<?xml version="1.0" encoding="utf-8" standalone="no"?>
<!DOCTYPE svg PUBLIC "-//W3C//DTD SVG 1.1//EN"
  "http://www.w3.org/Graphics/SVG/1.1/DTD/svg11.dtd">
<svg xmlns:xlink="http://www.w3.org/1999/xlink" width="1172.435pt" height="399.009062pt" viewBox="0 0 1172.435 399.009062" xmlns="http://www.w3.org/2000/svg" version="1.1">
 <metadata>
  <rdf:RDF xmlns:dc="http://purl.org/dc/elements/1.1/" xmlns:cc="http://creativecommons.org/ns#" xmlns:rdf="http://www.w3.org/1999/02/22-rdf-syntax-ns#">
   <cc:Work>
    <dc:type rdf:resource="http://purl.org/dc/dcmitype/StillImage"/>
    <dc:date>2025-05-09T14:48:00.122780</dc:date>
    <dc:format>image/svg+xml</dc:format>
    <dc:creator>
     <cc:Agent>
      <dc:title>Matplotlib v3.8.3, https://matplotlib.org/</dc:title>
     </cc:Agent>
    </dc:creator>
   </cc:Work>
  </rdf:RDF>
 </metadata>
 <defs>
  <style type="text/css">*{stroke-linejoin: round; stroke-linecap: butt}</style>
 </defs>
 <g id="figure_1">
  <g id="patch_1">
   <path d="M 0 399.009062 
L 1172.435 399.009062 
L 1172.435 0 
L 0 0 
z
" style="fill: #ffffff"/>
  </g>
  <g id="axes_1">
   <g id="patch_2">
    <path d="M 49.235 359.517187 
L 1165.235 359.517187 
L 1165.235 26.877187 
L 49.235 26.877187 
z
" style="fill: #ffffff"/>
   </g>
   <g id="patch_3">
    <path d="M 128.848098 359.517187 
L 128.848098 26.877187 
L 128.580603 26.877187 
L 128.580603 359.517187 
z
" clip-path="url(#p8c019e4fa1)" style="fill: #add8e6; stroke: #add8e6; stroke-linejoin: miter"/>
   </g>
   <g id="patch_4">
    <path d="M 133.138223 359.517187 
L 133.138223 26.877187 
L 133.238078 26.877187 
L 133.238078 359.517187 
z
" clip-path="url(#p8c019e4fa1)" style="fill: #add8e6; stroke: #add8e6; stroke-linejoin: miter"/>
   </g>
   <g id="patch_5">
    <path d="M 136.261429 359.517187 
L 136.261429 26.877187 
L 136.278193 26.877187 
L 136.278193 359.517187 
z
" clip-path="url(#p8c019e4fa1)" style="fill: #add8e6; stroke: #add8e6; stroke-linejoin: miter"/>
   </g>
   <g id="patch_6">
    <path d="M 137.635348 359.517187 
L 137.635348 26.877187 
L 137.650654 26.877187 
L 137.650654 359.517187 
z
" clip-path="url(#p8c019e4fa1)" style="fill: #add8e6; stroke: #add8e6; stroke-linejoin: miter"/>
   </g>
   <g id="patch_7">
    <path d="M 137.977917 359.517187 
L 137.977917 26.877187 
L 138.160134 26.877187 
L 138.160134 359.517187 
z
" clip-path="url(#p8c019e4fa1)" style="fill: #add8e6; stroke: #add8e6; stroke-linejoin: miter"/>
   </g>
   <g id="patch_8">
    <path d="M 141.646316 359.517187 
L 141.646316 26.877187 
L 141.619348 26.877187 
L 141.619348 359.517187 
z
" clip-path="url(#p8c019e4fa1)" style="fill: #add8e6; stroke: #add8e6; stroke-linejoin: miter"/>
   </g>
   <g id="patch_9">
    <path d="M 142.093842 359.517187 
L 142.093842 26.877187 
L 142.105504 26.877187 
L 142.105504 359.517187 
z
" clip-path="url(#p8c019e4fa1)" style="fill: #add8e6; stroke: #add8e6; stroke-linejoin: miter"/>
   </g>
   <g id="patch_10">
    <path d="M 143.327818 359.517187 
L 143.327818 26.877187 
L 143.356973 26.877187 
L 143.356973 359.517187 
z
" clip-path="url(#p8c019e4fa1)" style="fill: #add8e6; stroke: #add8e6; stroke-linejoin: miter"/>
   </g>
   <g id="patch_11">
    <path d="M 195.057141 359.517187 
L 195.057141 26.877187 
L 195.235714 26.877187 
L 195.235714 359.517187 
z
" clip-path="url(#p8c019e4fa1)" style="fill: #add8e6; stroke: #add8e6; stroke-linejoin: miter"/>
   </g>
   <g id="patch_12">
    <path d="M 195.88951 359.517187 
L 195.88951 26.877187 
L 195.96677 26.877187 
L 195.96677 359.517187 
z
" clip-path="url(#p8c019e4fa1)" style="fill: #add8e6; stroke: #add8e6; stroke-linejoin: miter"/>
   </g>
   <g id="patch_13">
    <path d="M 198.961694 359.517187 
L 198.961694 26.877187 
L 199.11257 26.877187 
L 199.11257 359.517187 
z
" clip-path="url(#p8c019e4fa1)" style="fill: #add8e6; stroke: #add8e6; stroke-linejoin: miter"/>
   </g>
   <g id="patch_14">
    <path d="M 207.362644 359.517187 
L 207.362644 26.877187 
L 207.351711 26.877187 
L 207.351711 359.517187 
z
" clip-path="url(#p8c019e4fa1)" style="fill: #add8e6; stroke: #add8e6; stroke-linejoin: miter"/>
   </g>
   <g id="patch_15">
    <path d="M 218.039123 359.517187 
L 218.039123 26.877187 
L 218.179795 26.877187 
L 218.179795 359.517187 
z
" clip-path="url(#p8c019e4fa1)" style="fill: #add8e6; stroke: #add8e6; stroke-linejoin: miter"/>
   </g>
   <g id="patch_16">
    <path d="M 218.423966 359.517187 
L 218.423966 26.877187 
L 218.526737 26.877187 
L 218.526737 359.517187 
z
" clip-path="url(#p8c019e4fa1)" style="fill: #add8e6; stroke: #add8e6; stroke-linejoin: miter"/>
   </g>
   <g id="patch_17">
    <path d="M 219.329951 359.517187 
L 219.329951 26.877187 
L 219.102544 26.877187 
L 219.102544 359.517187 
z
" clip-path="url(#p8c019e4fa1)" style="fill: #add8e6; stroke: #add8e6; stroke-linejoin: miter"/>
   </g>
   <g id="patch_18">
    <path d="M 229.831502 359.517187 
L 229.831502 26.877187 
L 229.20759 26.877187 
L 229.20759 359.517187 
z
" clip-path="url(#p8c019e4fa1)" style="fill: #add8e6; stroke: #add8e6; stroke-linejoin: miter"/>
   </g>
   <g id="patch_19">
    <path d="M 335.87982 359.517187 
L 335.87982 26.877187 
L 335.981862 26.877187 
L 335.981862 359.517187 
z
" clip-path="url(#p8c019e4fa1)" style="fill: #add8e6; stroke: #add8e6; stroke-linejoin: miter"/>
   </g>
   <g id="patch_20">
    <path d="M 341.154648 359.517187 
L 341.154648 26.877187 
L 340.848523 26.877187 
L 340.848523 359.517187 
z
" clip-path="url(#p8c019e4fa1)" style="fill: #add8e6; stroke: #add8e6; stroke-linejoin: miter"/>
   </g>
   <g id="patch_21">
    <path d="M 341.879873 359.517187 
L 341.879873 26.877187 
L 341.937454 26.877187 
L 341.937454 359.517187 
z
" clip-path="url(#p8c019e4fa1)" style="fill: #add8e6; stroke: #add8e6; stroke-linejoin: miter"/>
   </g>
   <g id="patch_22">
    <path d="M 363.197118 359.517187 
L 363.197118 26.877187 
L 363.384438 26.877187 
L 363.384438 359.517187 
z
" clip-path="url(#p8c019e4fa1)" style="fill: #add8e6; stroke: #add8e6; stroke-linejoin: miter"/>
   </g>
   <g id="patch_23">
    <path d="M 363.509803 359.517187 
L 363.509803 26.877187 
L 363.636626 26.877187 
L 363.636626 359.517187 
z
" clip-path="url(#p8c019e4fa1)" style="fill: #add8e6; stroke: #add8e6; stroke-linejoin: miter"/>
   </g>
   <g id="patch_24">
    <path d="M 365.460258 359.517187 
L 365.460258 26.877187 
L 365.659239 26.877187 
L 365.659239 359.517187 
z
" clip-path="url(#p8c019e4fa1)" style="fill: #add8e6; stroke: #add8e6; stroke-linejoin: miter"/>
   </g>
   <g id="patch_25">
    <path d="M 368.654164 359.517187 
L 368.654164 26.877187 
L 368.479964 26.877187 
L 368.479964 359.517187 
z
" clip-path="url(#p8c019e4fa1)" style="fill: #add8e6; stroke: #add8e6; stroke-linejoin: miter"/>
   </g>
   <g id="patch_26">
    <path d="M 384.633169 359.517187 
L 384.633169 26.877187 
L 384.847456 26.877187 
L 384.847456 359.517187 
z
" clip-path="url(#p8c019e4fa1)" style="fill: #add8e6; stroke: #add8e6; stroke-linejoin: miter"/>
   </g>
   <g id="patch_27">
    <path d="M 406.891384 359.517187 
L 406.891384 26.877187 
L 407.04882 26.877187 
L 407.04882 359.517187 
z
" clip-path="url(#p8c019e4fa1)" style="fill: #add8e6; stroke: #add8e6; stroke-linejoin: miter"/>
   </g>
   <g id="patch_28">
    <path d="M 431.006758 359.517187 
L 431.006758 26.877187 
L 430.895241 26.877187 
L 430.895241 359.517187 
z
" clip-path="url(#p8c019e4fa1)" style="fill: #add8e6; stroke: #add8e6; stroke-linejoin: miter"/>
   </g>
   <g id="patch_29">
    <path d="M 454.732188 359.517187 
L 454.732188 26.877187 
L 454.927525 26.877187 
L 454.927525 359.517187 
z
" clip-path="url(#p8c019e4fa1)" style="fill: #add8e6; stroke: #add8e6; stroke-linejoin: miter"/>
   </g>
   <g id="patch_30">
    <path d="M 463.519438 359.517187 
L 463.519438 26.877187 
L 458.457439 26.877187 
L 458.457439 359.517187 
z
" clip-path="url(#p8c019e4fa1)" style="fill: #add8e6; stroke: #add8e6; stroke-linejoin: miter"/>
   </g>
   <g id="patch_31">
    <path d="M 473.4204 359.517187 
L 473.4204 26.877187 
L 473.335851 26.877187 
L 473.335851 359.517187 
z
" clip-path="url(#p8c019e4fa1)" style="fill: #add8e6; stroke: #add8e6; stroke-linejoin: miter"/>
   </g>
   <g id="patch_32">
    <path d="M 479.499172 359.517187 
L 479.499172 26.877187 
L 479.55821 26.877187 
L 479.55821 359.517187 
z
" clip-path="url(#p8c019e4fa1)" style="fill: #add8e6; stroke: #add8e6; stroke-linejoin: miter"/>
   </g>
   <g id="patch_33">
    <path d="M 482.669025 359.517187 
L 482.669025 26.877187 
L 482.603427 26.877187 
L 482.603427 359.517187 
z
" clip-path="url(#p8c019e4fa1)" style="fill: #add8e6; stroke: #add8e6; stroke-linejoin: miter"/>
   </g>
   <g id="patch_34">
    <path d="M 488.070676 359.517187 
L 488.070676 26.877187 
L 488.178549 26.877187 
L 488.178549 359.517187 
z
" clip-path="url(#p8c019e4fa1)" style="fill: #add8e6; stroke: #add8e6; stroke-linejoin: miter"/>
   </g>
   <g id="patch_35">
    <path d="M 506.566467 359.517187 
L 506.566467 26.877187 
L 506.388623 26.877187 
L 506.388623 359.517187 
z
" clip-path="url(#p8c019e4fa1)" style="fill: #add8e6; stroke: #add8e6; stroke-linejoin: miter"/>
   </g>
   <g id="patch_36">
    <path d="M 526.148274 359.517187 
L 526.148274 26.877187 
L 523.563703 26.877187 
L 523.563703 359.517187 
z
" clip-path="url(#p8c019e4fa1)" style="fill: #add8e6; stroke: #add8e6; stroke-linejoin: miter"/>
   </g>
   <g id="patch_37">
    <path d="M 527.073209 359.517187 
L 527.073209 26.877187 
L 527.245951 26.877187 
L 527.245951 359.517187 
z
" clip-path="url(#p8c019e4fa1)" style="fill: #add8e6; stroke: #add8e6; stroke-linejoin: miter"/>
   </g>
   <g id="patch_38">
    <path d="M 547.050063 359.517187 
L 547.050063 26.877187 
L 538.931915 26.877187 
L 538.931915 359.517187 
z
" clip-path="url(#p8c019e4fa1)" style="fill: #add8e6; stroke: #add8e6; stroke-linejoin: miter"/>
   </g>
   <g id="patch_39">
    <path d="M 572.153056 359.517187 
L 572.153056 26.877187 
L 572.175651 26.877187 
L 572.175651 359.517187 
z
" clip-path="url(#p8c019e4fa1)" style="fill: #add8e6; stroke: #add8e6; stroke-linejoin: miter"/>
   </g>
   <g id="patch_40">
    <path d="M 583.749369 359.517187 
L 583.749369 26.877187 
L 583.946163 26.877187 
L 583.946163 359.517187 
z
" clip-path="url(#p8c019e4fa1)" style="fill: #add8e6; stroke: #add8e6; stroke-linejoin: miter"/>
   </g>
   <g id="patch_41">
    <path d="M 610.555729 359.517187 
L 610.555729 26.877187 
L 610.659958 26.877187 
L 610.659958 359.517187 
z
" clip-path="url(#p8c019e4fa1)" style="fill: #add8e6; stroke: #add8e6; stroke-linejoin: miter"/>
   </g>
   <g id="patch_42">
    <path d="M 668.702747 359.517187 
L 668.702747 26.877187 
L 668.762514 26.877187 
L 668.762514 359.517187 
z
" clip-path="url(#p8c019e4fa1)" style="fill: #add8e6; stroke: #add8e6; stroke-linejoin: miter"/>
   </g>
   <g id="patch_43">
    <path d="M 678.69409 359.517187 
L 678.69409 26.877187 
L 678.726889 26.877187 
L 678.726889 359.517187 
z
" clip-path="url(#p8c019e4fa1)" style="fill: #add8e6; stroke: #add8e6; stroke-linejoin: miter"/>
   </g>
   <g id="patch_44">
    <path d="M 680.805624 359.517187 
L 680.805624 26.877187 
L 680.745857 26.877187 
L 680.745857 359.517187 
z
" clip-path="url(#p8c019e4fa1)" style="fill: #add8e6; stroke: #add8e6; stroke-linejoin: miter"/>
   </g>
   <g id="patch_45">
    <path d="M 700.708133 359.517187 
L 700.708133 26.877187 
L 700.764256 26.877187 
L 700.764256 359.517187 
z
" clip-path="url(#p8c019e4fa1)" style="fill: #add8e6; stroke: #add8e6; stroke-linejoin: miter"/>
   </g>
   <g id="patch_46">
    <path d="M 725.072781 359.517187 
L 725.072781 26.877187 
L 725.238235 26.877187 
L 725.238235 359.517187 
z
" clip-path="url(#p8c019e4fa1)" style="fill: #add8e6; stroke: #add8e6; stroke-linejoin: miter"/>
   </g>
   <g id="patch_47">
    <path d="M 753.298251 359.517187 
L 753.298251 26.877187 
L 752.726817 26.877187 
L 752.726817 359.517187 
z
" clip-path="url(#p8c019e4fa1)" style="fill: #add8e6; stroke: #add8e6; stroke-linejoin: miter"/>
   </g>
   <g id="patch_48">
    <path d="M 758.168556 359.517187 
L 758.168556 26.877187 
L 758.113162 26.877187 
L 758.113162 359.517187 
z
" clip-path="url(#p8c019e4fa1)" style="fill: #add8e6; stroke: #add8e6; stroke-linejoin: miter"/>
   </g>
   <g id="patch_49">
    <path d="M 770.80861 359.517187 
L 770.80861 26.877187 
L 763.425892 26.877187 
L 763.425892 359.517187 
z
" clip-path="url(#p8c019e4fa1)" style="fill: #add8e6; stroke: #add8e6; stroke-linejoin: miter"/>
   </g>
   <g id="patch_50">
    <path d="M 786.731492 359.517187 
L 786.731492 26.877187 
L 780.98217 26.877187 
L 780.98217 359.517187 
z
" clip-path="url(#p8c019e4fa1)" style="fill: #add8e6; stroke: #add8e6; stroke-linejoin: miter"/>
   </g>
   <g id="patch_51">
    <path d="M 788.546377 359.517187 
L 788.546377 26.877187 
L 787.408612 26.877187 
L 787.408612 359.517187 
z
" clip-path="url(#p8c019e4fa1)" style="fill: #add8e6; stroke: #add8e6; stroke-linejoin: miter"/>
   </g>
   <g id="patch_52">
    <path d="M 791.34888 359.517187 
L 791.34888 26.877187 
L 787.160068 26.877187 
L 787.160068 359.517187 
z
" clip-path="url(#p8c019e4fa1)" style="fill: #add8e6; stroke: #add8e6; stroke-linejoin: miter"/>
   </g>
   <g id="patch_53">
    <path d="M 795.018738 359.517187 
L 795.018738 26.877187 
L 790.064612 26.877187 
L 790.064612 359.517187 
z
" clip-path="url(#p8c019e4fa1)" style="fill: #add8e6; stroke: #add8e6; stroke-linejoin: miter"/>
   </g>
   <g id="patch_54">
    <path d="M 796.957531 359.517187 
L 796.957531 26.877187 
L 793.054435 26.877187 
L 793.054435 359.517187 
z
" clip-path="url(#p8c019e4fa1)" style="fill: #add8e6; stroke: #add8e6; stroke-linejoin: miter"/>
   </g>
   <g id="patch_55">
    <path d="M 839.116068 359.517187 
L 839.116068 26.877187 
L 834.830316 26.877187 
L 834.830316 359.517187 
z
" clip-path="url(#p8c019e4fa1)" style="fill: #add8e6; stroke: #add8e6; stroke-linejoin: miter"/>
   </g>
   <g id="patch_56">
    <path d="M 849.009742 359.517187 
L 849.009742 26.877187 
L 842.397439 26.877187 
L 842.397439 359.517187 
z
" clip-path="url(#p8c019e4fa1)" style="fill: #add8e6; stroke: #add8e6; stroke-linejoin: miter"/>
   </g>
   <g id="patch_57">
    <path d="M 855.216066 359.517187 
L 855.216066 26.877187 
L 850.685413 26.877187 
L 850.685413 359.517187 
z
" clip-path="url(#p8c019e4fa1)" style="fill: #add8e6; stroke: #add8e6; stroke-linejoin: miter"/>
   </g>
   <g id="patch_58">
    <path d="M 865.052159 359.517187 
L 865.052159 26.877187 
L 861.814521 26.877187 
L 861.814521 359.517187 
z
" clip-path="url(#p8c019e4fa1)" style="fill: #add8e6; stroke: #add8e6; stroke-linejoin: miter"/>
   </g>
   <g id="patch_59">
    <path d="M 894.687991 359.517187 
L 894.687991 26.877187 
L 893.497747 26.877187 
L 893.497747 359.517187 
z
" clip-path="url(#p8c019e4fa1)" style="fill: #add8e6; stroke: #add8e6; stroke-linejoin: miter"/>
   </g>
   <g id="patch_60">
    <path d="M 906.500049 359.517187 
L 906.500049 26.877187 
L 906.682266 26.877187 
L 906.682266 359.517187 
z
" clip-path="url(#p8c019e4fa1)" style="fill: #add8e6; stroke: #add8e6; stroke-linejoin: miter"/>
   </g>
   <g id="patch_61">
    <path d="M 906.988391 359.517187 
L 906.988391 26.877187 
L 906.8346 26.877187 
L 906.8346 359.517187 
z
" clip-path="url(#p8c019e4fa1)" style="fill: #add8e6; stroke: #add8e6; stroke-linejoin: miter"/>
   </g>
   <g id="patch_62">
    <path d="M 937.882252 359.517187 
L 937.882252 26.877187 
L 937.933273 26.877187 
L 937.933273 359.517187 
z
" clip-path="url(#p8c019e4fa1)" style="fill: #add8e6; stroke: #add8e6; stroke-linejoin: miter"/>
   </g>
   <g id="patch_63">
    <path d="M 953.163729 359.517187 
L 953.163729 26.877187 
L 953.147693 26.877187 
L 953.147693 359.517187 
z
" clip-path="url(#p8c019e4fa1)" style="fill: #add8e6; stroke: #add8e6; stroke-linejoin: miter"/>
   </g>
   <g id="patch_64">
    <path d="M 983.551025 359.517187 
L 983.551025 26.877187 
L 983.682221 26.877187 
L 983.682221 359.517187 
z
" clip-path="url(#p8c019e4fa1)" style="fill: #add8e6; stroke: #add8e6; stroke-linejoin: miter"/>
   </g>
   <g id="patch_65">
    <path d="M 983.787907 359.517187 
L 983.787907 26.877187 
L 983.904526 26.877187 
L 983.904526 359.517187 
z
" clip-path="url(#p8c019e4fa1)" style="fill: #add8e6; stroke: #add8e6; stroke-linejoin: miter"/>
   </g>
   <g id="patch_66">
    <path d="M 999.561371 359.517187 
L 999.561371 26.877187 
L 988.887807 26.877187 
L 988.887807 359.517187 
z
" clip-path="url(#p8c019e4fa1)" style="fill: #add8e6; stroke: #add8e6; stroke-linejoin: miter"/>
   </g>
   <g id="patch_67">
    <path d="M 1000.315751 359.517187 
L 1000.315751 26.877187 
L 1000.332515 26.877187 
L 1000.332515 359.517187 
z
" clip-path="url(#p8c019e4fa1)" style="fill: #add8e6; stroke: #add8e6; stroke-linejoin: miter"/>
   </g>
   <g id="patch_68">
    <path d="M 1000.697678 359.517187 
L 1000.697678 26.877187 
L 1000.800449 26.877187 
L 1000.800449 359.517187 
z
" clip-path="url(#p8c019e4fa1)" style="fill: #add8e6; stroke: #add8e6; stroke-linejoin: miter"/>
   </g>
   <g id="patch_69">
    <path d="M 1011.947778 359.517187 
L 1011.947778 26.877187 
L 1011.027216 26.877187 
L 1011.027216 359.517187 
z
" clip-path="url(#p8c019e4fa1)" style="fill: #add8e6; stroke: #add8e6; stroke-linejoin: miter"/>
   </g>
   <g id="patch_70">
    <path d="M 1029.053615 359.517187 
L 1029.053615 26.877187 
L 1029.211051 26.877187 
L 1029.211051 359.517187 
z
" clip-path="url(#p8c019e4fa1)" style="fill: #add8e6; stroke: #add8e6; stroke-linejoin: miter"/>
   </g>
   <g id="patch_71">
    <path d="M 1051.4802 359.517187 
L 1051.4802 26.877187 
L 1051.679181 26.877187 
L 1051.679181 359.517187 
z
" clip-path="url(#p8c019e4fa1)" style="fill: #add8e6; stroke: #add8e6; stroke-linejoin: miter"/>
   </g>
   <g id="patch_72">
    <path d="M 1051.961253 359.517187 
L 1051.961253 26.877187 
L 1052.11796 26.877187 
L 1052.11796 359.517187 
z
" clip-path="url(#p8c019e4fa1)" style="fill: #add8e6; stroke: #add8e6; stroke-linejoin: miter"/>
   </g>
   <g id="patch_73">
    <path d="M 1065.340381 359.517187 
L 1065.340381 26.877187 
L 1065.188776 26.877187 
L 1065.188776 359.517187 
z
" clip-path="url(#p8c019e4fa1)" style="fill: #add8e6; stroke: #add8e6; stroke-linejoin: miter"/>
   </g>
   <g id="patch_74">
    <path d="M 1078.049677 359.517187 
L 1078.049677 26.877187 
L 1077.881309 26.877187 
L 1077.881309 359.517187 
z
" clip-path="url(#p8c019e4fa1)" style="fill: #add8e6; stroke: #add8e6; stroke-linejoin: miter"/>
   </g>
   <g id="patch_75">
    <path d="M 1079.151728 359.517187 
L 1079.151728 26.877187 
L 1079.083943 26.877187 
L 1079.083943 359.517187 
z
" clip-path="url(#p8c019e4fa1)" style="fill: #add8e6; stroke: #add8e6; stroke-linejoin: miter"/>
   </g>
   <g id="patch_76">
    <path d="M 1084.019847 359.517187 
L 1084.019847 26.877187 
L 1084.032967 26.877187 
L 1084.032967 359.517187 
z
" clip-path="url(#p8c019e4fa1)" style="fill: #add8e6; stroke: #add8e6; stroke-linejoin: miter"/>
   </g>
   <g id="patch_77">
    <path d="M 1087.301217 359.517187 
L 1087.301217 26.877187 
L 1087.452093 26.877187 
L 1087.452093 359.517187 
z
" clip-path="url(#p8c019e4fa1)" style="fill: #add8e6; stroke: #add8e6; stroke-linejoin: miter"/>
   </g>
   <g id="patch_78">
    <path d="M 1095.030878 359.517187 
L 1095.030878 26.877187 
L 1093.533051 26.877187 
L 1093.533051 359.517187 
z
" clip-path="url(#p8c019e4fa1)" style="fill: #add8e6; stroke: #add8e6; stroke-linejoin: miter"/>
   </g>
   <g id="patch_79">
    <path d="M 1106.205904 359.517187 
L 1106.205904 26.877187 
L 1102.252516 26.877187 
L 1102.252516 359.517187 
z
" clip-path="url(#p8c019e4fa1)" style="fill: #add8e6; stroke: #add8e6; stroke-linejoin: miter"/>
   </g>
   <g id="patch_80">
    <path d="M 1107.352416 359.517187 
L 1107.352416 26.877187 
L 1107.15635 26.877187 
L 1107.15635 359.517187 
z
" clip-path="url(#p8c019e4fa1)" style="fill: #add8e6; stroke: #add8e6; stroke-linejoin: miter"/>
   </g>
   <g id="patch_81">
    <path d="M 1114.507727 359.517187 
L 1114.507727 26.877187 
L 1104.473382 26.877187 
L 1104.473382 359.517187 
z
" clip-path="url(#p8c019e4fa1)" style="fill: #add8e6; stroke: #add8e6; stroke-linejoin: miter"/>
   </g>
   <g id="patch_82">
    <path d="M 99.962273 26.877187 
L 99.962273 26.877187 
L 99.962273 359.517187 
" clip-path="url(#p8c019e4fa1)" style="fill: #808080; opacity: 0.4; stroke: #808080; stroke-linejoin: miter"/>
   </g>
   <g id="patch_83">
    <path d="M 104.335489 26.877187 
L 104.335489 26.877187 
L 104.335489 359.517187 
" clip-path="url(#p8c019e4fa1)" style="fill: #808080; opacity: 0.4; stroke: #808080; stroke-linejoin: miter"/>
   </g>
   <g id="patch_84">
    <path d="M 108.708706 26.877187 
L 108.708706 26.877187 
L 108.708706 359.517187 
" clip-path="url(#p8c019e4fa1)" style="fill: #808080; opacity: 0.4; stroke: #808080; stroke-linejoin: miter"/>
   </g>
   <g id="patch_85">
    <path d="M 257.398073 359.517187 
L 257.398073 26.877187 
L 414.833874 26.877187 
L 414.833874 359.517187 
z
" clip-path="url(#p8c019e4fa1)" style="fill: #808080; opacity: 0.4; stroke: #808080; stroke-linejoin: miter"/>
   </g>
   <g id="patch_86">
    <path d="M 419.207091 26.877187 
L 419.207091 26.877187 
L 419.207091 359.517187 
" clip-path="url(#p8c019e4fa1)" style="fill: #808080; opacity: 0.4; stroke: #808080; stroke-linejoin: miter"/>
   </g>
   <g id="patch_87">
    <path d="M 423.580308 26.877187 
L 423.580308 26.877187 
L 423.580308 359.517187 
" clip-path="url(#p8c019e4fa1)" style="fill: #808080; opacity: 0.4; stroke: #808080; stroke-linejoin: miter"/>
   </g>
   <g id="patch_88">
    <path d="M 572.269675 359.517187 
L 572.269675 26.877187 
L 729.705476 26.877187 
L 729.705476 359.517187 
z
" clip-path="url(#p8c019e4fa1)" style="fill: #808080; opacity: 0.4; stroke: #808080; stroke-linejoin: miter"/>
   </g>
   <g id="patch_89">
    <path d="M 734.078692 26.877187 
L 734.078692 26.877187 
L 734.078692 359.517187 
" clip-path="url(#p8c019e4fa1)" style="fill: #808080; opacity: 0.4; stroke: #808080; stroke-linejoin: miter"/>
   </g>
   <g id="patch_90">
    <path d="M 738.451909 26.877187 
L 738.451909 26.877187 
L 738.451909 359.517187 
" clip-path="url(#p8c019e4fa1)" style="fill: #808080; opacity: 0.4; stroke: #808080; stroke-linejoin: miter"/>
   </g>
   <g id="patch_91">
    <path d="M 887.141276 359.517187 
L 887.141276 26.877187 
L 1044.577077 26.877187 
L 1044.577077 359.517187 
z
" clip-path="url(#p8c019e4fa1)" style="fill: #808080; opacity: 0.4; stroke: #808080; stroke-linejoin: miter"/>
   </g>
   <g id="patch_92">
    <path d="M 1048.950294 26.877187 
L 1048.950294 26.877187 
L 1048.950294 359.517187 
" clip-path="url(#p8c019e4fa1)" style="fill: #808080; opacity: 0.4; stroke: #808080; stroke-linejoin: miter"/>
   </g>
   <g id="patch_93">
    <path d="M 1053.32351 26.877187 
L 1053.32351 26.877187 
L 1053.32351 359.517187 
" clip-path="url(#p8c019e4fa1)" style="fill: #808080; opacity: 0.4; stroke: #808080; stroke-linejoin: miter"/>
   </g>
   <g id="matplotlib.axis_1">
    <g id="xtick_1">
     <g id="line2d_1">
      <defs>
       <path id="m810f514560" d="M 0 0 
L 0 3.5 
" style="stroke: #000000; stroke-width: 0.8"/>
      </defs>
      <g>
       <use xlink:href="#m810f514560" x="164.496374" y="359.517187" style="stroke: #000000; stroke-width: 0.8"/>
      </g>
     </g>
     <g id="text_1">
      <!-- 02-26 12 -->
      <g transform="translate(142.015905 374.115625) scale(0.1 -0.1)">
       <defs>
        <path id="DejaVuSans-30" d="M 2034 4250 
Q 1547 4250 1301 3770 
Q 1056 3291 1056 2328 
Q 1056 1369 1301 889 
Q 1547 409 2034 409 
Q 2525 409 2770 889 
Q 3016 1369 3016 2328 
Q 3016 3291 2770 3770 
Q 2525 4250 2034 4250 
z
M 2034 4750 
Q 2819 4750 3233 4129 
Q 3647 3509 3647 2328 
Q 3647 1150 3233 529 
Q 2819 -91 2034 -91 
Q 1250 -91 836 529 
Q 422 1150 422 2328 
Q 422 3509 836 4129 
Q 1250 4750 2034 4750 
z
" transform="scale(0.015625)"/>
        <path id="DejaVuSans-32" d="M 1228 531 
L 3431 531 
L 3431 0 
L 469 0 
L 469 531 
Q 828 903 1448 1529 
Q 2069 2156 2228 2338 
Q 2531 2678 2651 2914 
Q 2772 3150 2772 3378 
Q 2772 3750 2511 3984 
Q 2250 4219 1831 4219 
Q 1534 4219 1204 4116 
Q 875 4013 500 3803 
L 500 4441 
Q 881 4594 1212 4672 
Q 1544 4750 1819 4750 
Q 2544 4750 2975 4387 
Q 3406 4025 3406 3419 
Q 3406 3131 3298 2873 
Q 3191 2616 2906 2266 
Q 2828 2175 2409 1742 
Q 1991 1309 1228 531 
z
" transform="scale(0.015625)"/>
        <path id="DejaVuSans-2d" d="M 313 2009 
L 1997 2009 
L 1997 1497 
L 313 1497 
L 313 2009 
z
" transform="scale(0.015625)"/>
        <path id="DejaVuSans-36" d="M 2113 2584 
Q 1688 2584 1439 2293 
Q 1191 2003 1191 1497 
Q 1191 994 1439 701 
Q 1688 409 2113 409 
Q 2538 409 2786 701 
Q 3034 994 3034 1497 
Q 3034 2003 2786 2293 
Q 2538 2584 2113 2584 
z
M 3366 4563 
L 3366 3988 
Q 3128 4100 2886 4159 
Q 2644 4219 2406 4219 
Q 1781 4219 1451 3797 
Q 1122 3375 1075 2522 
Q 1259 2794 1537 2939 
Q 1816 3084 2150 3084 
Q 2853 3084 3261 2657 
Q 3669 2231 3669 1497 
Q 3669 778 3244 343 
Q 2819 -91 2113 -91 
Q 1303 -91 875 529 
Q 447 1150 447 2328 
Q 447 3434 972 4092 
Q 1497 4750 2381 4750 
Q 2619 4750 2861 4703 
Q 3103 4656 3366 4563 
z
" transform="scale(0.015625)"/>
        <path id="DejaVuSans-20" transform="scale(0.015625)"/>
        <path id="DejaVuSans-31" d="M 794 531 
L 1825 531 
L 1825 4091 
L 703 3866 
L 703 4441 
L 1819 4666 
L 2450 4666 
L 2450 531 
L 3481 531 
L 3481 0 
L 794 0 
L 794 531 
z
" transform="scale(0.015625)"/>
       </defs>
       <use xlink:href="#DejaVuSans-30"/>
       <use xlink:href="#DejaVuSans-32" x="63.623047"/>
       <use xlink:href="#DejaVuSans-2d" x="127.246094"/>
       <use xlink:href="#DejaVuSans-32" x="163.330078"/>
       <use xlink:href="#DejaVuSans-36" x="226.953125"/>
       <use xlink:href="#DejaVuSans-20" x="290.576172"/>
       <use xlink:href="#DejaVuSans-31" x="322.363281"/>
       <use xlink:href="#DejaVuSans-32" x="385.986328"/>
      </g>
     </g>
    </g>
    <g id="xtick_2">
     <g id="line2d_2">
      <g>
       <use xlink:href="#m810f514560" x="321.932174" y="359.517187" style="stroke: #000000; stroke-width: 0.8"/>
      </g>
     </g>
     <g id="text_2">
      <!-- 02-27 00 -->
      <g transform="translate(299.451706 374.115625) scale(0.1 -0.1)">
       <defs>
        <path id="DejaVuSans-37" d="M 525 4666 
L 3525 4666 
L 3525 4397 
L 1831 0 
L 1172 0 
L 2766 4134 
L 525 4134 
L 525 4666 
z
" transform="scale(0.015625)"/>
       </defs>
       <use xlink:href="#DejaVuSans-30"/>
       <use xlink:href="#DejaVuSans-32" x="63.623047"/>
       <use xlink:href="#DejaVuSans-2d" x="127.246094"/>
       <use xlink:href="#DejaVuSans-32" x="163.330078"/>
       <use xlink:href="#DejaVuSans-37" x="226.953125"/>
       <use xlink:href="#DejaVuSans-20" x="290.576172"/>
       <use xlink:href="#DejaVuSans-30" x="322.363281"/>
       <use xlink:href="#DejaVuSans-30" x="385.986328"/>
      </g>
     </g>
    </g>
    <g id="xtick_3">
     <g id="line2d_3">
      <g>
       <use xlink:href="#m810f514560" x="479.367975" y="359.517187" style="stroke: #000000; stroke-width: 0.8"/>
      </g>
     </g>
     <g id="text_3">
      <!-- 02-27 12 -->
      <g transform="translate(456.887506 374.115625) scale(0.1 -0.1)">
       <use xlink:href="#DejaVuSans-30"/>
       <use xlink:href="#DejaVuSans-32" x="63.623047"/>
       <use xlink:href="#DejaVuSans-2d" x="127.246094"/>
       <use xlink:href="#DejaVuSans-32" x="163.330078"/>
       <use xlink:href="#DejaVuSans-37" x="226.953125"/>
       <use xlink:href="#DejaVuSans-20" x="290.576172"/>
       <use xlink:href="#DejaVuSans-31" x="322.363281"/>
       <use xlink:href="#DejaVuSans-32" x="385.986328"/>
      </g>
     </g>
    </g>
    <g id="xtick_4">
     <g id="line2d_4">
      <g>
       <use xlink:href="#m810f514560" x="636.803776" y="359.517187" style="stroke: #000000; stroke-width: 0.8"/>
      </g>
     </g>
     <g id="text_4">
      <!-- 02-28 00 -->
      <g transform="translate(614.323307 374.115625) scale(0.1 -0.1)">
       <defs>
        <path id="DejaVuSans-38" d="M 2034 2216 
Q 1584 2216 1326 1975 
Q 1069 1734 1069 1313 
Q 1069 891 1326 650 
Q 1584 409 2034 409 
Q 2484 409 2743 651 
Q 3003 894 3003 1313 
Q 3003 1734 2745 1975 
Q 2488 2216 2034 2216 
z
M 1403 2484 
Q 997 2584 770 2862 
Q 544 3141 544 3541 
Q 544 4100 942 4425 
Q 1341 4750 2034 4750 
Q 2731 4750 3128 4425 
Q 3525 4100 3525 3541 
Q 3525 3141 3298 2862 
Q 3072 2584 2669 2484 
Q 3125 2378 3379 2068 
Q 3634 1759 3634 1313 
Q 3634 634 3220 271 
Q 2806 -91 2034 -91 
Q 1263 -91 848 271 
Q 434 634 434 1313 
Q 434 1759 690 2068 
Q 947 2378 1403 2484 
z
M 1172 3481 
Q 1172 3119 1398 2916 
Q 1625 2713 2034 2713 
Q 2441 2713 2670 2916 
Q 2900 3119 2900 3481 
Q 2900 3844 2670 4047 
Q 2441 4250 2034 4250 
Q 1625 4250 1398 4047 
Q 1172 3844 1172 3481 
z
" transform="scale(0.015625)"/>
       </defs>
       <use xlink:href="#DejaVuSans-30"/>
       <use xlink:href="#DejaVuSans-32" x="63.623047"/>
       <use xlink:href="#DejaVuSans-2d" x="127.246094"/>
       <use xlink:href="#DejaVuSans-32" x="163.330078"/>
       <use xlink:href="#DejaVuSans-38" x="226.953125"/>
       <use xlink:href="#DejaVuSans-20" x="290.576172"/>
       <use xlink:href="#DejaVuSans-30" x="322.363281"/>
       <use xlink:href="#DejaVuSans-30" x="385.986328"/>
      </g>
     </g>
    </g>
    <g id="xtick_5">
     <g id="line2d_5">
      <g>
       <use xlink:href="#m810f514560" x="794.239576" y="359.517187" style="stroke: #000000; stroke-width: 0.8"/>
      </g>
     </g>
     <g id="text_5">
      <!-- 02-28 12 -->
      <g transform="translate(771.759108 374.115625) scale(0.1 -0.1)">
       <use xlink:href="#DejaVuSans-30"/>
       <use xlink:href="#DejaVuSans-32" x="63.623047"/>
       <use xlink:href="#DejaVuSans-2d" x="127.246094"/>
       <use xlink:href="#DejaVuSans-32" x="163.330078"/>
       <use xlink:href="#DejaVuSans-38" x="226.953125"/>
       <use xlink:href="#DejaVuSans-20" x="290.576172"/>
       <use xlink:href="#DejaVuSans-31" x="322.363281"/>
       <use xlink:href="#DejaVuSans-32" x="385.986328"/>
      </g>
     </g>
    </g>
    <g id="xtick_6">
     <g id="line2d_6">
      <g>
       <use xlink:href="#m810f514560" x="951.675377" y="359.517187" style="stroke: #000000; stroke-width: 0.8"/>
      </g>
     </g>
     <g id="text_6">
      <!-- 03-01 00 -->
      <g transform="translate(929.194908 374.115625) scale(0.1 -0.1)">
       <defs>
        <path id="DejaVuSans-33" d="M 2597 2516 
Q 3050 2419 3304 2112 
Q 3559 1806 3559 1356 
Q 3559 666 3084 287 
Q 2609 -91 1734 -91 
Q 1441 -91 1130 -33 
Q 819 25 488 141 
L 488 750 
Q 750 597 1062 519 
Q 1375 441 1716 441 
Q 2309 441 2620 675 
Q 2931 909 2931 1356 
Q 2931 1769 2642 2001 
Q 2353 2234 1838 2234 
L 1294 2234 
L 1294 2753 
L 1863 2753 
Q 2328 2753 2575 2939 
Q 2822 3125 2822 3475 
Q 2822 3834 2567 4026 
Q 2313 4219 1838 4219 
Q 1578 4219 1281 4162 
Q 984 4106 628 3988 
L 628 4550 
Q 988 4650 1302 4700 
Q 1616 4750 1894 4750 
Q 2613 4750 3031 4423 
Q 3450 4097 3450 3541 
Q 3450 3153 3228 2886 
Q 3006 2619 2597 2516 
z
" transform="scale(0.015625)"/>
       </defs>
       <use xlink:href="#DejaVuSans-30"/>
       <use xlink:href="#DejaVuSans-33" x="63.623047"/>
       <use xlink:href="#DejaVuSans-2d" x="127.246094"/>
       <use xlink:href="#DejaVuSans-30" x="163.330078"/>
       <use xlink:href="#DejaVuSans-31" x="226.953125"/>
       <use xlink:href="#DejaVuSans-20" x="290.576172"/>
       <use xlink:href="#DejaVuSans-30" x="322.363281"/>
       <use xlink:href="#DejaVuSans-30" x="385.986328"/>
      </g>
     </g>
    </g>
    <g id="xtick_7">
     <g id="line2d_7">
      <g>
       <use xlink:href="#m810f514560" x="1109.111178" y="359.517187" style="stroke: #000000; stroke-width: 0.8"/>
      </g>
     </g>
     <g id="text_7">
      <!-- 03-01 12 -->
      <g transform="translate(1086.630709 374.115625) scale(0.1 -0.1)">
       <use xlink:href="#DejaVuSans-30"/>
       <use xlink:href="#DejaVuSans-33" x="63.623047"/>
       <use xlink:href="#DejaVuSans-2d" x="127.246094"/>
       <use xlink:href="#DejaVuSans-30" x="163.330078"/>
       <use xlink:href="#DejaVuSans-31" x="226.953125"/>
       <use xlink:href="#DejaVuSans-20" x="290.576172"/>
       <use xlink:href="#DejaVuSans-31" x="322.363281"/>
       <use xlink:href="#DejaVuSans-32" x="385.986328"/>
      </g>
     </g>
    </g>
    <g id="text_8">
     <!-- Time -->
     <g transform="translate(592.554688 389.313437) scale(0.12 -0.12)">
      <defs>
       <path id="DejaVuSans-54" d="M -19 4666 
L 3928 4666 
L 3928 4134 
L 2272 4134 
L 2272 0 
L 1638 0 
L 1638 4134 
L -19 4134 
L -19 4666 
z
" transform="scale(0.015625)"/>
       <path id="DejaVuSans-69" d="M 603 3500 
L 1178 3500 
L 1178 0 
L 603 0 
L 603 3500 
z
M 603 4863 
L 1178 4863 
L 1178 4134 
L 603 4134 
L 603 4863 
z
" transform="scale(0.015625)"/>
       <path id="DejaVuSans-6d" d="M 3328 2828 
Q 3544 3216 3844 3400 
Q 4144 3584 4550 3584 
Q 5097 3584 5394 3201 
Q 5691 2819 5691 2113 
L 5691 0 
L 5113 0 
L 5113 2094 
Q 5113 2597 4934 2840 
Q 4756 3084 4391 3084 
Q 3944 3084 3684 2787 
Q 3425 2491 3425 1978 
L 3425 0 
L 2847 0 
L 2847 2094 
Q 2847 2600 2669 2842 
Q 2491 3084 2119 3084 
Q 1678 3084 1418 2786 
Q 1159 2488 1159 1978 
L 1159 0 
L 581 0 
L 581 3500 
L 1159 3500 
L 1159 2956 
Q 1356 3278 1631 3431 
Q 1906 3584 2284 3584 
Q 2666 3584 2933 3390 
Q 3200 3197 3328 2828 
z
" transform="scale(0.015625)"/>
       <path id="DejaVuSans-65" d="M 3597 1894 
L 3597 1613 
L 953 1613 
Q 991 1019 1311 708 
Q 1631 397 2203 397 
Q 2534 397 2845 478 
Q 3156 559 3463 722 
L 3463 178 
Q 3153 47 2828 -22 
Q 2503 -91 2169 -91 
Q 1331 -91 842 396 
Q 353 884 353 1716 
Q 353 2575 817 3079 
Q 1281 3584 2069 3584 
Q 2775 3584 3186 3129 
Q 3597 2675 3597 1894 
z
M 3022 2063 
Q 3016 2534 2758 2815 
Q 2500 3097 2075 3097 
Q 1594 3097 1305 2825 
Q 1016 2553 972 2059 
L 3022 2063 
z
" transform="scale(0.015625)"/>
      </defs>
      <use xlink:href="#DejaVuSans-54"/>
      <use xlink:href="#DejaVuSans-69" x="57.958984"/>
      <use xlink:href="#DejaVuSans-6d" x="85.742188"/>
      <use xlink:href="#DejaVuSans-65" x="183.154297"/>
     </g>
    </g>
   </g>
   <g id="matplotlib.axis_2">
    <g id="ytick_1">
     <g id="line2d_8">
      <defs>
       <path id="m6bc7391fb6" d="M 0 0 
L -3.5 0 
" style="stroke: #000000; stroke-width: 0.8"/>
      </defs>
      <g>
       <use xlink:href="#m6bc7391fb6" x="49.235" y="344.397187" style="stroke: #000000; stroke-width: 0.8"/>
      </g>
     </g>
     <g id="text_9">
      <!-- 0 -->
      <g transform="translate(35.8725 348.196406) scale(0.1 -0.1)">
       <use xlink:href="#DejaVuSans-30"/>
      </g>
     </g>
    </g>
    <g id="ytick_2">
     <g id="line2d_9">
      <g>
       <use xlink:href="#m6bc7391fb6" x="49.235" y="283.429446" style="stroke: #000000; stroke-width: 0.8"/>
      </g>
     </g>
     <g id="text_10">
      <!-- 100 -->
      <g transform="translate(23.1475 287.228664) scale(0.1 -0.1)">
       <use xlink:href="#DejaVuSans-31"/>
       <use xlink:href="#DejaVuSans-30" x="63.623047"/>
       <use xlink:href="#DejaVuSans-30" x="127.246094"/>
      </g>
     </g>
    </g>
    <g id="ytick_3">
     <g id="line2d_10">
      <g>
       <use xlink:href="#m6bc7391fb6" x="49.235" y="222.461704" style="stroke: #000000; stroke-width: 0.8"/>
      </g>
     </g>
     <g id="text_11">
      <!-- 200 -->
      <g transform="translate(23.1475 226.260922) scale(0.1 -0.1)">
       <use xlink:href="#DejaVuSans-32"/>
       <use xlink:href="#DejaVuSans-30" x="63.623047"/>
       <use xlink:href="#DejaVuSans-30" x="127.246094"/>
      </g>
     </g>
    </g>
    <g id="ytick_4">
     <g id="line2d_11">
      <g>
       <use xlink:href="#m6bc7391fb6" x="49.235" y="161.493962" style="stroke: #000000; stroke-width: 0.8"/>
      </g>
     </g>
     <g id="text_12">
      <!-- 300 -->
      <g transform="translate(23.1475 165.29318) scale(0.1 -0.1)">
       <use xlink:href="#DejaVuSans-33"/>
       <use xlink:href="#DejaVuSans-30" x="63.623047"/>
       <use xlink:href="#DejaVuSans-30" x="127.246094"/>
      </g>
     </g>
    </g>
    <g id="ytick_5">
     <g id="line2d_12">
      <g>
       <use xlink:href="#m6bc7391fb6" x="49.235" y="100.52622" style="stroke: #000000; stroke-width: 0.8"/>
      </g>
     </g>
     <g id="text_13">
      <!-- 400 -->
      <g transform="translate(23.1475 104.325439) scale(0.1 -0.1)">
       <defs>
        <path id="DejaVuSans-34" d="M 2419 4116 
L 825 1625 
L 2419 1625 
L 2419 4116 
z
M 2253 4666 
L 3047 4666 
L 3047 1625 
L 3713 1625 
L 3713 1100 
L 3047 1100 
L 3047 0 
L 2419 0 
L 2419 1100 
L 313 1100 
L 313 1709 
L 2253 4666 
z
" transform="scale(0.015625)"/>
       </defs>
       <use xlink:href="#DejaVuSans-34"/>
       <use xlink:href="#DejaVuSans-30" x="63.623047"/>
       <use xlink:href="#DejaVuSans-30" x="127.246094"/>
      </g>
     </g>
    </g>
    <g id="ytick_6">
     <g id="line2d_13">
      <g>
       <use xlink:href="#m6bc7391fb6" x="49.235" y="39.558478" style="stroke: #000000; stroke-width: 0.8"/>
      </g>
     </g>
     <g id="text_14">
      <!-- 500 -->
      <g transform="translate(23.1475 43.357697) scale(0.1 -0.1)">
       <defs>
        <path id="DejaVuSans-35" d="M 691 4666 
L 3169 4666 
L 3169 4134 
L 1269 4134 
L 1269 2991 
Q 1406 3038 1543 3061 
Q 1681 3084 1819 3084 
Q 2600 3084 3056 2656 
Q 3513 2228 3513 1497 
Q 3513 744 3044 326 
Q 2575 -91 1722 -91 
Q 1428 -91 1123 -41 
Q 819 9 494 109 
L 494 744 
Q 775 591 1075 516 
Q 1375 441 1709 441 
Q 2250 441 2565 725 
Q 2881 1009 2881 1497 
Q 2881 1984 2565 2268 
Q 2250 2553 1709 2553 
Q 1456 2553 1204 2497 
Q 953 2441 691 2322 
L 691 4666 
z
" transform="scale(0.015625)"/>
       </defs>
       <use xlink:href="#DejaVuSans-35"/>
       <use xlink:href="#DejaVuSans-30" x="63.623047"/>
       <use xlink:href="#DejaVuSans-30" x="127.246094"/>
      </g>
     </g>
    </g>
    <g id="text_15">
     <!-- Pellet_Count -->
     <g transform="translate(16.318125 230.485312) rotate(-90) scale(0.12 -0.12)">
      <defs>
       <path id="DejaVuSans-50" d="M 1259 4147 
L 1259 2394 
L 2053 2394 
Q 2494 2394 2734 2622 
Q 2975 2850 2975 3272 
Q 2975 3691 2734 3919 
Q 2494 4147 2053 4147 
L 1259 4147 
z
M 628 4666 
L 2053 4666 
Q 2838 4666 3239 4311 
Q 3641 3956 3641 3272 
Q 3641 2581 3239 2228 
Q 2838 1875 2053 1875 
L 1259 1875 
L 1259 0 
L 628 0 
L 628 4666 
z
" transform="scale(0.015625)"/>
       <path id="DejaVuSans-6c" d="M 603 4863 
L 1178 4863 
L 1178 0 
L 603 0 
L 603 4863 
z
" transform="scale(0.015625)"/>
       <path id="DejaVuSans-74" d="M 1172 4494 
L 1172 3500 
L 2356 3500 
L 2356 3053 
L 1172 3053 
L 1172 1153 
Q 1172 725 1289 603 
Q 1406 481 1766 481 
L 2356 481 
L 2356 0 
L 1766 0 
Q 1100 0 847 248 
Q 594 497 594 1153 
L 594 3053 
L 172 3053 
L 172 3500 
L 594 3500 
L 594 4494 
L 1172 4494 
z
" transform="scale(0.015625)"/>
       <path id="DejaVuSans-5f" d="M 3263 -1063 
L 3263 -1509 
L -63 -1509 
L -63 -1063 
L 3263 -1063 
z
" transform="scale(0.015625)"/>
       <path id="DejaVuSans-43" d="M 4122 4306 
L 4122 3641 
Q 3803 3938 3442 4084 
Q 3081 4231 2675 4231 
Q 1875 4231 1450 3742 
Q 1025 3253 1025 2328 
Q 1025 1406 1450 917 
Q 1875 428 2675 428 
Q 3081 428 3442 575 
Q 3803 722 4122 1019 
L 4122 359 
Q 3791 134 3420 21 
Q 3050 -91 2638 -91 
Q 1578 -91 968 557 
Q 359 1206 359 2328 
Q 359 3453 968 4101 
Q 1578 4750 2638 4750 
Q 3056 4750 3426 4639 
Q 3797 4528 4122 4306 
z
" transform="scale(0.015625)"/>
       <path id="DejaVuSans-6f" d="M 1959 3097 
Q 1497 3097 1228 2736 
Q 959 2375 959 1747 
Q 959 1119 1226 758 
Q 1494 397 1959 397 
Q 2419 397 2687 759 
Q 2956 1122 2956 1747 
Q 2956 2369 2687 2733 
Q 2419 3097 1959 3097 
z
M 1959 3584 
Q 2709 3584 3137 3096 
Q 3566 2609 3566 1747 
Q 3566 888 3137 398 
Q 2709 -91 1959 -91 
Q 1206 -91 779 398 
Q 353 888 353 1747 
Q 353 2609 779 3096 
Q 1206 3584 1959 3584 
z
" transform="scale(0.015625)"/>
       <path id="DejaVuSans-75" d="M 544 1381 
L 544 3500 
L 1119 3500 
L 1119 1403 
Q 1119 906 1312 657 
Q 1506 409 1894 409 
Q 2359 409 2629 706 
Q 2900 1003 2900 1516 
L 2900 3500 
L 3475 3500 
L 3475 0 
L 2900 0 
L 2900 538 
Q 2691 219 2414 64 
Q 2138 -91 1772 -91 
Q 1169 -91 856 284 
Q 544 659 544 1381 
z
M 1991 3584 
L 1991 3584 
z
" transform="scale(0.015625)"/>
       <path id="DejaVuSans-6e" d="M 3513 2113 
L 3513 0 
L 2938 0 
L 2938 2094 
Q 2938 2591 2744 2837 
Q 2550 3084 2163 3084 
Q 1697 3084 1428 2787 
Q 1159 2491 1159 1978 
L 1159 0 
L 581 0 
L 581 3500 
L 1159 3500 
L 1159 2956 
Q 1366 3272 1645 3428 
Q 1925 3584 2291 3584 
Q 2894 3584 3203 3211 
Q 3513 2838 3513 2113 
z
" transform="scale(0.015625)"/>
      </defs>
      <use xlink:href="#DejaVuSans-50"/>
      <use xlink:href="#DejaVuSans-65" x="56.677734"/>
      <use xlink:href="#DejaVuSans-6c" x="118.201172"/>
      <use xlink:href="#DejaVuSans-6c" x="145.984375"/>
      <use xlink:href="#DejaVuSans-65" x="173.767578"/>
      <use xlink:href="#DejaVuSans-74" x="235.291016"/>
      <use xlink:href="#DejaVuSans-5f" x="274.5"/>
      <use xlink:href="#DejaVuSans-43" x="324.5"/>
      <use xlink:href="#DejaVuSans-6f" x="394.324219"/>
      <use xlink:href="#DejaVuSans-75" x="455.505859"/>
      <use xlink:href="#DejaVuSans-6e" x="518.884766"/>
      <use xlink:href="#DejaVuSans-74" x="582.263672"/>
     </g>
    </g>
   </g>
   <g id="line2d_14">
    <path d="M 99.962273 344.397187 
L 100.03516 343.78751 
L 100.844205 343.78751 
L 100.891581 343.177833 
L 101.15033 343.177833 
L 101.161263 342.568155 
L 107.859573 342.568155 
L 107.874151 341.958478 
L 110.173734 341.958478 
L 110.213822 341.3488 
L 113.581198 341.3488 
L 113.628575 340.739123 
L 118.267829 340.739123 
L 118.278762 340.129446 
L 118.460979 340.129446 
L 118.471912 339.519768 
L 128.147654 339.519768 
L 128.154943 338.910091 
L 128.282495 338.910091 
L 128.282495 338.910091 
L 128.42098 337.690736 
L 128.523022 337.690736 
L 128.537599 337.081058 
L 128.723461 337.081058 
L 128.73075 336.471381 
L 128.902034 336.471381 
L 128.912967 335.861704 
L 130.316041 335.861704 
L 130.326974 335.252026 
L 132.714021 335.252026 
L 132.724954 334.642349 
L 132.837929 334.642349 
L 132.852507 334.032671 
L 133.071167 334.032671 
L 133.078456 333.422994 
L 133.883857 333.422994 
L 133.891146 332.813317 
L 134.109806 332.813317 
L 134.120739 332.203639 
L 135.013604 332.203639 
L 135.020893 331.593962 
L 135.716963 331.593962 
L 135.727897 330.984284 
L 135.972068 330.984284 
L 136.092331 329.764929 
L 136.300059 329.764929 
L 136.307348 329.155252 
L 137.032573 329.155252 
L 137.04715 328.545575 
L 137.324121 328.545575 
L 137.331409 327.935897 
L 137.677622 327.935897 
L 137.684911 327.32622 
L 137.980103 327.32622 
L 138.096722 326.106865 
L 138.289873 326.106865 
L 138.315383 325.497187 
L 138.432002 325.497187 
L 138.5304 324.88751 
L 138.811014 324.88751 
L 138.825592 324.277833 
L 141.332903 324.277833 
L 141.340191 323.668155 
L 141.482321 323.668155 
L 141.485965 323.058478 
L 141.861333 323.058478 
L 141.985241 321.839123 
L 142.418918 321.839123 
L 142.422562 321.229446 
L 142.823441 321.229446 
L 142.943704 320.010091 
L 143.056679 320.010091 
L 143.063968 319.400413 
L 144.871564 319.400413 
L 144.911652 318.181058 
L 146.165307 318.181058 
L 146.17624 317.571381 
L 149.405132 317.571381 
L 149.41242 316.961704 
L 149.696679 316.961704 
L 149.703968 316.352026 
L 152.768864 316.352026 
L 152.779797 315.742349 
L 153.468579 315.742349 
L 153.472223 315.132671 
L 156.077932 315.132671 
L 156.088865 314.522994 
L 156.333036 314.522994 
L 156.427789 313.913317 
L 160.677098 313.913317 
L 160.684386 313.303639 
L 165.028448 313.303639 
L 165.039381 312.693962 
L 165.735452 312.693962 
L 165.746385 312.084284 
L 166.059799 312.084284 
L 166.081665 311.474607 
L 166.209217 311.474607 
L 166.212861 310.864929 
L 166.391434 310.864929 
L 166.493476 310.255252 
L 187.448473 310.255252 
L 187.455761 309.645575 
L 187.6562 309.645575 
L 187.663489 309.035897 
L 194.576816 309.035897 
L 194.682502 308.42622 
L 194.766322 308.42622 
L 194.769966 307.816542 
L 194.89023 307.816542 
L 194.897518 307.206865 
L 195.072447 307.206865 
L 195.076091 306.597187 
L 195.382216 306.597187 
L 195.389505 305.98751 
L 195.67012 305.98751 
L 195.677409 305.377833 
L 195.790383 305.377833 
L 195.794028 304.768155 
L 195.907002 304.768155 
L 195.925224 304.158478 
L 196.475521 304.158478 
L 196.606717 303.5488 
L 197.583402 303.5488 
L 197.59798 302.939123 
L 198.691284 302.939123 
L 198.79697 302.329446 
L 198.840702 302.329446 
L 198.844346 301.719768 
L 198.971899 301.719768 
L 198.979187 301.110091 
L 200.779495 301.110091 
L 200.786783 300.500413 
L 201.850933 300.500413 
L 201.858222 299.890736 
L 202.051372 299.890736 
L 202.058661 299.281058 
L 207.055061 299.281058 
L 207.178968 298.061704 
L 207.357542 298.061704 
L 207.36483 297.452026 
L 208.560176 297.452026 
L 208.567465 296.842349 
L 208.70595 296.842349 
L 208.800703 296.232671 
L 210.553634 296.232671 
L 210.564567 295.622994 
L 212.222745 295.622994 
L 212.237322 295.013317 
L 212.616335 295.013317 
L 212.619979 294.403639 
L 213.122899 294.403639 
L 213.130188 293.793962 
L 214.722767 293.793962 
L 214.730056 293.184284 
L 215.025248 293.184284 
L 215.028892 292.574607 
L 215.181955 292.574607 
L 215.189244 291.964929 
L 215.918113 291.964929 
L 215.925402 291.355252 
L 217.915215 291.355252 
L 218.020902 290.135897 
L 218.097433 290.135897 
L 218.101077 289.52622 
L 218.221341 289.52622 
L 218.319738 288.306865 
L 218.410847 288.306865 
L 218.527466 287.08751 
L 218.600353 287.08751 
L 218.684173 285.868155 
L 218.749771 285.868155 
L 218.822658 284.6488 
L 220.130979 284.6488 
L 220.145556 284.039123 
L 220.808827 284.039123 
L 220.812472 283.429446 
L 225.043559 283.429446 
L 225.054492 282.819768 
L 225.845315 282.819768 
L 225.852604 282.210091 
L 228.695195 282.210091 
L 228.811814 280.990736 
L 228.946655 280.990736 
L 228.953943 280.381058 
L 232.15368 280.381058 
L 232.160969 279.771381 
L 232.988236 279.771381 
L 233.097566 279.161704 
L 233.972209 279.161704 
L 233.979498 278.552026 
L 239.956228 278.552026 
L 239.981738 277.942349 
L 244.846942 277.942349 
L 244.978138 276.722994 
L 261.847821 276.722994 
L 261.862399 276.113317 
L 270.64892 276.113317 
L 270.656209 275.503639 
L 270.769183 275.503639 
L 270.783761 274.893962 
L 271.472542 274.893962 
L 271.483476 274.284284 
L 271.611028 274.284284 
L 271.618316 273.674607 
L 271.979107 273.674607 
L 271.993684 273.064929 
L 288.087122 273.064929 
L 288.09441 272.455252 
L 312.420428 272.455252 
L 312.427717 271.845575 
L 313.043611 271.845575 
L 313.0509 271.235897 
L 313.269561 271.235897 
L 313.38618 270.62622 
L 313.408046 270.62622 
L 313.502799 270.016542 
L 335.729673 270.016542 
L 335.835359 268.797187 
L 336.312769 268.797187 
L 336.320057 268.18751 
L 340.117467 268.18751 
L 340.135689 267.577833 
L 340.285107 267.577833 
L 340.29604 266.968155 
L 340.645897 266.968155 
L 340.649542 266.358478 
L 341.608005 266.358478 
L 341.608005 266.358478 
L 341.695469 265.139123 
L 341.757423 265.139123 
L 341.764712 264.529446 
L 343.940387 264.529446 
L 343.95132 263.919768 
L 362.79624 263.919768 
L 362.803529 263.310091 
L 362.949303 263.310091 
L 363.0477 262.090736 
L 363.13152 262.090736 
L 363.211696 260.871381 
L 363.342892 260.871381 
L 363.412135 259.652026 
L 363.49231 259.652026 
L 363.503243 259.042349 
L 365.33635 259.042349 
L 365.44568 258.432671 
L 365.460258 257.822994 
L 368.040456 257.822994 
L 368.047744 257.213317 
L 368.168008 257.213317 
L 368.168008 257.213317 
L 368.280983 255.993962 
L 384.440018 255.993962 
L 384.556637 254.774607 
L 384.680545 254.774607 
L 384.687834 254.164929 
L 387.599667 254.164929 
L 387.606956 253.555252 
L 387.902148 253.555252 
L 387.905792 252.945575 
L 406.506541 252.945575 
L 406.590361 252.335897 
L 406.645026 252.335897 
L 406.64867 251.72622 
L 406.761645 251.72622 
L 406.768934 251.116542 
L 406.929285 251.116542 
L 407.031327 250.506865 
L 407.257276 250.506865 
L 407.268209 249.897187 
L 417.388562 249.897187 
L 417.505181 248.677833 
L 417.596289 248.677833 
L 417.599934 248.068155 
L 417.723842 248.068155 
L 417.73113 247.458478 
L 421.524896 247.458478 
L 421.532184 246.8488 
L 422.038749 246.8488 
L 422.042393 246.239123 
L 422.159012 246.239123 
L 422.166301 245.629446 
L 424.82303 245.629446 
L 424.826674 245.019768 
L 424.946938 245.019768 
L 424.950582 244.410091 
L 430.592032 244.410091 
L 430.606609 243.800413 
L 430.737805 243.800413 
L 430.748739 243.190736 
L 433.806346 243.190736 
L 433.922965 242.581058 
L 435.242219 242.581058 
L 435.26044 241.971381 
L 435.395281 241.971381 
L 435.464524 241.361704 
L 435.890912 241.361704 
L 435.920067 240.752026 
L 437.261187 240.752026 
L 437.388739 239.532671 
L 440.409903 239.532671 
L 440.413547 238.922994 
L 441.375655 238.922994 
L 441.477697 238.313317 
L 441.59796 238.313317 
L 441.700002 237.703639 
L 441.904085 237.703639 
L 441.922307 237.093962 
L 443.493021 237.093962 
L 443.511243 236.484284 
L 448.066677 236.484284 
L 448.073965 235.874607 
L 448.96683 235.874607 
L 448.974119 235.264929 
L 450.665096 235.264929 
L 450.759849 234.045575 
L 451.64907 234.045575 
L 451.656359 233.435897 
L 452.939169 233.435897 
L 452.950102 232.82622 
L 453.751858 232.82622 
L 453.857544 231.606865 
L 454.21469 231.606865 
L 454.221979 230.997187 
L 454.531749 230.997187 
L 454.546326 230.38751 
L 454.721255 230.38751 
L 454.812363 229.168155 
L 454.877962 229.168155 
L 454.88525 228.558478 
L 456.270102 228.558478 
L 456.277391 227.9488 
L 456.609027 227.9488 
L 456.791244 227.339123 
L 458.004812 227.339123 
L 458.015745 226.729446 
L 458.427556 226.729446 
L 458.427556 226.729446 
L 458.434845 226.119768 
L 459.04345 226.119768 
L 459.050739 225.510091 
L 461.255569 225.510091 
L 461.262858 224.900413 
L 462.297853 224.900413 
L 462.305141 224.290736 
L 464.229357 224.290736 
L 464.24029 223.681058 
L 464.396997 223.681058 
L 464.400641 223.071381 
L 464.553704 223.071381 
L 464.560992 222.461704 
L 468.238139 222.461704 
L 468.249072 221.852026 
L 468.445866 221.852026 
L 468.456799 221.242349 
L 470.399236 221.242349 
L 470.439324 220.632671 
L 470.913089 220.632671 
L 470.993265 220.022994 
L 473.045033 220.022994 
L 473.176229 218.803639 
L 473.854078 218.803639 
L 473.959764 218.193962 
L 476.335878 218.193962 
L 476.423342 216.974607 
L 476.518096 216.974607 
L 476.616493 216.364929 
L 479.306021 216.364929 
L 479.393485 215.145575 
L 479.462728 215.145575 
L 479.535615 214.535897 
L 480.450346 214.535897 
L 480.453991 213.92622 
L 481.784177 213.92622 
L 481.79511 213.316542 
L 482.38185 213.316542 
L 482.443804 212.097187 
L 482.830105 212.097187 
L 482.833749 211.48751 
L 483.952564 211.48751 
L 484.061894 210.877833 
L 484.510149 210.877833 
L 484.524726 210.268155 
L 487.309008 210.268155 
L 487.316296 209.658478 
L 487.877526 209.658478 
L 487.979568 208.439123 
L 490.147954 208.439123 
L 490.162532 207.829446 
L 490.741983 207.829446 
L 490.741983 207.829446 
L 490.960644 207.219768 
L 492.513136 207.219768 
L 492.54229 206.610091 
L 492.720863 206.610091 
L 492.724508 206.000413 
L 492.986901 206.000413 
L 492.997834 205.390736 
L 495.946111 205.390736 
L 495.957044 204.781058 
L 497.750063 204.781058 
L 497.760996 204.171381 
L 499.52486 204.171381 
L 499.535793 203.561704 
L 506.040952 203.561704 
L 506.153927 202.342349 
L 506.204948 202.342349 
L 506.296057 201.732671 
L 520.403325 201.732671 
L 520.498078 201.122994 
L 520.76776 201.122994 
L 520.847935 199.903639 
L 520.913534 199.903639 
L 521.030153 198.684284 
L 521.117617 198.684284 
L 521.121261 198.074607 
L 521.791821 198.074607 
L 521.85742 197.464929 
L 523.122008 197.464929 
L 523.22405 196.245575 
L 523.286004 196.245575 
L 523.351602 195.02622 
L 526.923062 195.02622 
L 527.043326 193.197187 
L 527.101635 193.197187 
L 527.192744 191.977833 
L 527.582689 191.977833 
L 527.622777 191.368155 
L 527.954412 191.368155 
L 527.961701 190.758478 
L 530.108222 190.758478 
L 530.261284 190.1488 
L 530.771493 190.1488 
L 531.343655 189.539123 
L 531.904885 189.539123 
L 531.95955 188.929446 
L 534.062338 188.929446 
L 534.525171 188.319768 
L 534.747476 188.319768 
L 534.805785 187.710091 
L 535.534655 187.710091 
L 536.00842 187.100413 
L 536.194282 186.490736 
L 545.680517 186.490736 
L 545.778915 185.881058 
L 547.579222 185.881058 
L 547.692197 185.271381 
L 547.706774 185.271381 
L 547.710419 184.661704 
L 548.286226 184.661704 
L 548.362757 183.442349 
L 549.102559 183.442349 
L 549.292066 182.832671 
L 571.599115 182.832671 
L 571.606404 182.222994 
L 571.784977 182.222994 
L 571.90524 181.003639 
L 572.021859 181.003639 
L 572.029148 180.393962 
L 572.55029 180.393962 
L 572.557578 179.784284 
L 583.625461 179.784284 
L 583.71657 178.564929 
L 583.818611 178.564929 
L 583.917009 177.955252 
L 583.949808 177.955252 
L 584.059138 176.735897 
L 604.248822 176.735897 
L 604.259755 176.12622 
L 604.693432 176.12622 
L 604.693432 176.12622 
L 604.788185 175.516542 
L 608.359646 175.516542 
L 608.428888 174.297187 
L 610.294794 174.297187 
L 610.378614 173.077833 
L 610.447857 173.077833 
L 610.513455 171.858478 
L 633.928386 171.858478 
L 634.008561 170.639123 
L 634.066871 170.639123 
L 634.07416 170.029446 
L 649.883338 170.029446 
L 649.999957 168.810091 
L 650.098354 168.810091 
L 650.101999 168.200413 
L 652.868058 168.200413 
L 652.875347 167.590736 
L 668.502308 167.590736 
L 668.516885 166.981058 
L 668.651726 166.981058 
L 668.655371 166.371381 
L 670.954954 166.371381 
L 670.969531 165.761704 
L 673.316491 165.761704 
L 673.331068 165.152026 
L 673.994339 165.152026 
L 674.001628 164.542349 
L 678.433154 164.542349 
L 678.440443 163.932671 
L 678.586217 163.932671 
L 678.593506 163.322994 
L 680.557809 163.322994 
L 680.667139 162.103639 
L 697.598776 162.103639 
L 697.602421 161.493962 
L 697.923123 161.493962 
L 697.926768 160.884284 
L 700.434079 160.884284 
L 700.441367 160.274607 
L 700.627229 160.274607 
L 700.630873 159.664929 
L 701.862663 159.664929 
L 701.873596 159.055252 
L 723.265914 159.055252 
L 723.273203 158.445575 
L 724.242599 158.445575 
L 724.246243 157.835897 
L 724.607034 157.835897 
L 724.723653 156.616542 
L 724.832983 156.616542 
L 724.851205 156.006865 
L 726.05384 156.006865 
L 726.064773 155.397187 
L 727.453269 155.397187 
L 727.456913 154.78751 
L 739.818539 154.78751 
L 739.887782 154.177833 
L 744.712897 154.177833 
L 744.723831 153.568155 
L 744.858671 153.568155 
L 744.982579 152.3488 
L 748.258847 152.3488 
L 748.262492 151.739123 
L 751.997948 151.739123 
L 752.110922 150.519768 
L 752.172876 150.519768 
L 752.260341 149.910091 
L 752.508156 149.910091 
L 752.606554 148.690736 
L 755.0264 148.690736 
L 755.037333 148.081058 
L 757.894501 148.081058 
L 757.992899 146.861704 
L 758.863898 146.861704 
L 759.053404 146.252026 
L 760.430967 146.252026 
L 760.503854 145.642349 
L 760.988552 145.642349 
L 761.119749 145.032671 
L 761.717422 145.032671 
L 761.717422 145.032671 
L 761.768443 144.422994 
L 762.5374 144.422994 
L 762.555622 143.813317 
L 762.810726 143.813317 
L 763.14965 143.203639 
L 763.689014 143.203639 
L 765.514832 142.593962 
L 769.191978 142.593962 
L 769.632944 141.984284 
L 769.694898 141.984284 
L 770.627851 141.374607 
L 770.933976 140.764929 
L 772.526556 140.764929 
L 773.189827 140.155252 
L 773.707324 140.155252 
L 774.2066 139.545575 
L 775.285326 139.545575 
L 775.38008 138.935897 
L 775.737226 138.935897 
L 776.309388 137.716542 
L 778.495996 137.716542 
L 778.823988 137.106865 
L 780.15053 137.106865 
L 780.285371 136.497187 
L 780.835667 136.497187 
L 780.981441 135.88751 
L 781.079839 135.88751 
L 781.083483 135.277833 
L 782.362649 135.277833 
L 782.58131 134.668155 
L 783.036853 134.668155 
L 783.146183 134.058478 
L 783.383066 134.058478 
L 783.481463 133.4488 
L 783.725635 133.4488 
L 783.907852 132.839123 
L 784.399839 132.839123 
L 784.432638 132.229446 
L 785.810201 132.229446 
L 785.908599 131.619768 
L 787.366338 131.619768 
L 788.3576 131.010091 
L 788.485152 129.790736 
L 789.38895 129.790736 
L 789.906448 129.181058 
L 793.951673 129.181058 
L 794.906492 128.571381 
L 796.218457 128.571381 
L 796.218457 128.571381 
L 796.240323 127.961704 
L 797.515845 127.961704 
L 797.526778 127.352026 
L 797.938589 127.352026 
L 797.967744 126.742349 
L 798.339467 126.742349 
L 798.346756 126.132671 
L 801.324187 126.132671 
L 801.36792 125.522994 
L 801.531915 125.522994 
L 801.539204 124.913317 
L 802.413847 124.913317 
L 802.497667 124.303639 
L 807.344649 124.303639 
L 807.574243 123.693962 
L 808.693058 123.693962 
L 808.700346 123.084284 
L 809.680676 123.084284 
L 809.687964 122.474607 
L 812.45038 122.474607 
L 812.548777 121.255252 
L 812.647174 121.255252 
L 812.650819 120.645575 
L 826.881995 120.645575 
L 826.889283 120.035897 
L 827.516111 120.035897 
L 827.596287 119.42622 
L 828.675014 119.42622 
L 828.751545 118.816542 
L 829.775606 118.816542 
L 829.786539 118.206865 
L 830.318614 118.206865 
L 830.322258 117.597187 
L 830.934509 117.597187 
L 831.043839 116.377833 
L 832.88059 116.377833 
L 832.9389 115.768155 
L 833.339778 115.768155 
L 833.449108 115.158478 
L 833.485552 114.5488 
L 835.489943 114.5488 
L 836.48485 113.939123 
L 837.381359 113.939123 
L 837.421447 113.329446 
L 838.263291 113.329446 
L 838.277868 112.719768 
L 838.427287 112.719768 
L 838.43822 112.110091 
L 839.560679 112.110091 
L 839.600767 111.500413 
L 841.987814 111.500413 
L 842.279362 109.671381 
L 842.691173 109.061704 
L 845.464521 109.061704 
L 845.500965 108.452026 
L 848.390932 108.452026 
L 848.390932 108.452026 
L 848.482041 107.842349 
L 848.678836 107.842349 
L 848.693413 107.232671 
L 848.937584 107.232671 
L 849.003182 106.622994 
L 849.302019 106.013317 
L 850.391679 106.013317 
L 852.275806 105.403639 
L 852.527266 104.793962 
L 857.760549 104.793962 
L 857.771482 104.184284 
L 857.997431 104.184284 
L 858.00472 103.574607 
L 858.25618 103.574607 
L 858.347289 102.964929 
L 860.978507 102.964929 
L 860.996729 102.355252 
L 862.068167 102.355252 
L 862.396159 101.745575 
L 862.629397 101.745575 
L 862.873568 101.135897 
L 863.245291 101.135897 
L 863.952295 100.52622 
L 882.159454 100.52622 
L 882.163098 99.916542 
L 884.750584 99.916542 
L 884.765162 99.306865 
L 892.95401 99.306865 
L 893.056052 98.08751 
L 893.118006 98.08751 
L 893.20547 96.868155 
L 893.285646 96.868155 
L 893.28929 96.258478 
L 893.402265 96.258478 
L 893.405909 95.6488 
L 906.008062 95.6488 
L 906.018995 95.039123 
L 906.368852 95.039123 
L 906.485471 94.429446 
L 906.489116 94.429446 
L 906.609379 93.210091 
L 907.884901 93.210091 
L 907.884901 93.210091 
L 908.005164 92.600413 
L 908.005164 92.600413 
L 925.913487 92.600413 
L 926.022817 91.381058 
L 937.123499 91.381058 
L 937.134432 90.771381 
L 937.732105 90.771381 
L 937.841435 89.552026 
L 952.571887 89.552026 
L 952.677573 88.332671 
L 952.797836 88.332671 
L 952.903522 87.113317 
L 953.023786 87.113317 
L 953.02743 86.503639 
L 967.200296 86.503639 
L 967.316916 85.284284 
L 983.337466 85.284284 
L 983.352043 84.674607 
L 983.534261 84.674607 
L 983.654524 83.455252 
L 983.767499 83.455252 
L 983.847675 82.235897 
L 986.285743 82.235897 
L 987.189541 81.62622 
L 987.207763 81.016542 
L 987.397269 81.016542 
L 987.419135 80.406865 
L 988.450485 80.406865 
L 988.461418 79.797187 
L 1000.083242 79.797187 
L 1000.09053 79.18751 
L 1000.218082 79.18751 
L 1000.225371 78.577833 
L 1000.436743 78.577833 
L 1000.560651 77.358478 
L 1000.691848 77.358478 
L 1000.695492 76.7488 
L 1006.413473 76.7488 
L 1006.420761 76.139123 
L 1009.066557 76.139123 
L 1009.113934 75.529446 
L 1009.354461 75.529446 
L 1009.36175 74.919768 
L 1010.484209 74.919768 
L 1010.589895 73.700413 
L 1010.651849 73.700413 
L 1010.659137 73.090736 
L 1010.779401 73.090736 
L 1010.786689 72.481058 
L 1028.629413 72.481058 
L 1028.640347 71.871381 
L 1028.950116 71.871381 
L 1029.066735 70.652026 
L 1029.190643 70.652026 
L 1029.296329 70.042349 
L 1032.022301 70.042349 
L 1032.036878 69.432671 
L 1033.749721 69.432671 
L 1033.75701 68.822994 
L 1051.26081 68.822994 
L 1051.34463 67.603639 
L 1051.424805 67.603639 
L 1051.519558 66.384284 
L 1051.614311 66.384284 
L 1051.741864 65.164929 
L 1051.822039 65.164929 
L 1051.898571 63.945575 
L 1051.967813 63.945575 
L 1052.051633 62.72622 
L 1064.737606 62.72622 
L 1064.810493 61.506865 
L 1064.890668 61.506865 
L 1064.963555 60.28751 
L 1065.163995 60.28751 
L 1065.247815 59.677833 
L 1069.610098 59.677833 
L 1069.704851 58.458478 
L 1069.781382 58.458478 
L 1069.788671 57.8488 
L 1077.58393 57.8488 
L 1077.682327 56.629446 
L 1078.877673 56.629446 
L 1078.95056 55.410091 
L 1079.052602 55.410091 
L 1079.059891 54.800413 
L 1080.138617 54.800413 
L 1080.204216 54.190736 
L 1081.982657 54.190736 
L 1082.019101 53.581058 
L 1086.523514 53.581058 
L 1086.541735 52.971381 
L 1086.942614 52.971381 
L 1087.051944 51.752026 
L 1091.410583 51.752026 
L 1091.447027 51.142349 
L 1092.638728 51.142349 
L 1092.835523 49.313317 
L 1092.919343 49.313317 
L 1092.999519 48.093962 
L 1093.05054 48.093962 
L 1093.061473 47.484284 
L 1093.174447 47.484284 
L 1093.18538 46.874607 
L 1093.35302 46.874607 
L 1093.681012 46.264929 
L 1094.894579 46.264929 
L 1094.967466 45.655252 
L 1096.133657 45.655252 
L 1096.319519 45.045575 
L 1097.773614 45.045575 
L 1097.857434 44.435897 
L 1098.65919 44.435897 
L 1098.804964 43.82622 
L 1099.111089 43.82622 
L 1099.238641 43.216542 
L 1101.651199 43.216542 
L 1101.982835 42.606865 
L 1103.637368 42.606865 
L 1103.65559 41.997187 
L 1103.65559 41.997187 
" clip-path="url(#p8c019e4fa1)" style="fill: none; stroke: #0000ff; stroke-width: 1.5; stroke-linecap: square"/>
   </g>
   <g id="patch_94">
    <path d="M 49.235 359.517187 
L 49.235 26.877187 
" style="fill: none; stroke: #000000; stroke-width: 0.8; stroke-linejoin: miter; stroke-linecap: square"/>
   </g>
   <g id="patch_95">
    <path d="M 1165.235 359.517187 
L 1165.235 26.877187 
" style="fill: none; stroke: #000000; stroke-width: 0.8; stroke-linejoin: miter; stroke-linecap: square"/>
   </g>
   <g id="patch_96">
    <path d="M 49.235 359.517187 
L 1165.235 359.517187 
" style="fill: none; stroke: #000000; stroke-width: 0.8; stroke-linejoin: miter; stroke-linecap: square"/>
   </g>
   <g id="patch_97">
    <path d="M 49.235 26.877187 
L 1165.235 26.877187 
" style="fill: none; stroke: #000000; stroke-width: 0.8; stroke-linejoin: miter; stroke-linecap: square"/>
   </g>
   <g id="text_16">
    <!-- Pellet Count and Cumulative Sum Over Time of Group 3 Mouse 4 -->
    <g transform="translate(315.460625 20.877187) scale(0.18 -0.18)">
     <defs>
      <path id="DejaVuSans-61" d="M 2194 1759 
Q 1497 1759 1228 1600 
Q 959 1441 959 1056 
Q 959 750 1161 570 
Q 1363 391 1709 391 
Q 2188 391 2477 730 
Q 2766 1069 2766 1631 
L 2766 1759 
L 2194 1759 
z
M 3341 1997 
L 3341 0 
L 2766 0 
L 2766 531 
Q 2569 213 2275 61 
Q 1981 -91 1556 -91 
Q 1019 -91 701 211 
Q 384 513 384 1019 
Q 384 1609 779 1909 
Q 1175 2209 1959 2209 
L 2766 2209 
L 2766 2266 
Q 2766 2663 2505 2880 
Q 2244 3097 1772 3097 
Q 1472 3097 1187 3025 
Q 903 2953 641 2809 
L 641 3341 
Q 956 3463 1253 3523 
Q 1550 3584 1831 3584 
Q 2591 3584 2966 3190 
Q 3341 2797 3341 1997 
z
" transform="scale(0.015625)"/>
      <path id="DejaVuSans-64" d="M 2906 2969 
L 2906 4863 
L 3481 4863 
L 3481 0 
L 2906 0 
L 2906 525 
Q 2725 213 2448 61 
Q 2172 -91 1784 -91 
Q 1150 -91 751 415 
Q 353 922 353 1747 
Q 353 2572 751 3078 
Q 1150 3584 1784 3584 
Q 2172 3584 2448 3432 
Q 2725 3281 2906 2969 
z
M 947 1747 
Q 947 1113 1208 752 
Q 1469 391 1925 391 
Q 2381 391 2643 752 
Q 2906 1113 2906 1747 
Q 2906 2381 2643 2742 
Q 2381 3103 1925 3103 
Q 1469 3103 1208 2742 
Q 947 2381 947 1747 
z
" transform="scale(0.015625)"/>
      <path id="DejaVuSans-76" d="M 191 3500 
L 800 3500 
L 1894 563 
L 2988 3500 
L 3597 3500 
L 2284 0 
L 1503 0 
L 191 3500 
z
" transform="scale(0.015625)"/>
      <path id="DejaVuSans-53" d="M 3425 4513 
L 3425 3897 
Q 3066 4069 2747 4153 
Q 2428 4238 2131 4238 
Q 1616 4238 1336 4038 
Q 1056 3838 1056 3469 
Q 1056 3159 1242 3001 
Q 1428 2844 1947 2747 
L 2328 2669 
Q 3034 2534 3370 2195 
Q 3706 1856 3706 1288 
Q 3706 609 3251 259 
Q 2797 -91 1919 -91 
Q 1588 -91 1214 -16 
Q 841 59 441 206 
L 441 856 
Q 825 641 1194 531 
Q 1563 422 1919 422 
Q 2459 422 2753 634 
Q 3047 847 3047 1241 
Q 3047 1584 2836 1778 
Q 2625 1972 2144 2069 
L 1759 2144 
Q 1053 2284 737 2584 
Q 422 2884 422 3419 
Q 422 4038 858 4394 
Q 1294 4750 2059 4750 
Q 2388 4750 2728 4690 
Q 3069 4631 3425 4513 
z
" transform="scale(0.015625)"/>
      <path id="DejaVuSans-4f" d="M 2522 4238 
Q 1834 4238 1429 3725 
Q 1025 3213 1025 2328 
Q 1025 1447 1429 934 
Q 1834 422 2522 422 
Q 3209 422 3611 934 
Q 4013 1447 4013 2328 
Q 4013 3213 3611 3725 
Q 3209 4238 2522 4238 
z
M 2522 4750 
Q 3503 4750 4090 4092 
Q 4678 3434 4678 2328 
Q 4678 1225 4090 567 
Q 3503 -91 2522 -91 
Q 1538 -91 948 565 
Q 359 1222 359 2328 
Q 359 3434 948 4092 
Q 1538 4750 2522 4750 
z
" transform="scale(0.015625)"/>
      <path id="DejaVuSans-72" d="M 2631 2963 
Q 2534 3019 2420 3045 
Q 2306 3072 2169 3072 
Q 1681 3072 1420 2755 
Q 1159 2438 1159 1844 
L 1159 0 
L 581 0 
L 581 3500 
L 1159 3500 
L 1159 2956 
Q 1341 3275 1631 3429 
Q 1922 3584 2338 3584 
Q 2397 3584 2469 3576 
Q 2541 3569 2628 3553 
L 2631 2963 
z
" transform="scale(0.015625)"/>
      <path id="DejaVuSans-66" d="M 2375 4863 
L 2375 4384 
L 1825 4384 
Q 1516 4384 1395 4259 
Q 1275 4134 1275 3809 
L 1275 3500 
L 2222 3500 
L 2222 3053 
L 1275 3053 
L 1275 0 
L 697 0 
L 697 3053 
L 147 3053 
L 147 3500 
L 697 3500 
L 697 3744 
Q 697 4328 969 4595 
Q 1241 4863 1831 4863 
L 2375 4863 
z
" transform="scale(0.015625)"/>
      <path id="DejaVuSans-47" d="M 3809 666 
L 3809 1919 
L 2778 1919 
L 2778 2438 
L 4434 2438 
L 4434 434 
Q 4069 175 3628 42 
Q 3188 -91 2688 -91 
Q 1594 -91 976 548 
Q 359 1188 359 2328 
Q 359 3472 976 4111 
Q 1594 4750 2688 4750 
Q 3144 4750 3555 4637 
Q 3966 4525 4313 4306 
L 4313 3634 
Q 3963 3931 3569 4081 
Q 3175 4231 2741 4231 
Q 1884 4231 1454 3753 
Q 1025 3275 1025 2328 
Q 1025 1384 1454 906 
Q 1884 428 2741 428 
Q 3075 428 3337 486 
Q 3600 544 3809 666 
z
" transform="scale(0.015625)"/>
      <path id="DejaVuSans-70" d="M 1159 525 
L 1159 -1331 
L 581 -1331 
L 581 3500 
L 1159 3500 
L 1159 2969 
Q 1341 3281 1617 3432 
Q 1894 3584 2278 3584 
Q 2916 3584 3314 3078 
Q 3713 2572 3713 1747 
Q 3713 922 3314 415 
Q 2916 -91 2278 -91 
Q 1894 -91 1617 61 
Q 1341 213 1159 525 
z
M 3116 1747 
Q 3116 2381 2855 2742 
Q 2594 3103 2138 3103 
Q 1681 3103 1420 2742 
Q 1159 2381 1159 1747 
Q 1159 1113 1420 752 
Q 1681 391 2138 391 
Q 2594 391 2855 752 
Q 3116 1113 3116 1747 
z
" transform="scale(0.015625)"/>
      <path id="DejaVuSans-4d" d="M 628 4666 
L 1569 4666 
L 2759 1491 
L 3956 4666 
L 4897 4666 
L 4897 0 
L 4281 0 
L 4281 4097 
L 3078 897 
L 2444 897 
L 1241 4097 
L 1241 0 
L 628 0 
L 628 4666 
z
" transform="scale(0.015625)"/>
      <path id="DejaVuSans-73" d="M 2834 3397 
L 2834 2853 
Q 2591 2978 2328 3040 
Q 2066 3103 1784 3103 
Q 1356 3103 1142 2972 
Q 928 2841 928 2578 
Q 928 2378 1081 2264 
Q 1234 2150 1697 2047 
L 1894 2003 
Q 2506 1872 2764 1633 
Q 3022 1394 3022 966 
Q 3022 478 2636 193 
Q 2250 -91 1575 -91 
Q 1294 -91 989 -36 
Q 684 19 347 128 
L 347 722 
Q 666 556 975 473 
Q 1284 391 1588 391 
Q 1994 391 2212 530 
Q 2431 669 2431 922 
Q 2431 1156 2273 1281 
Q 2116 1406 1581 1522 
L 1381 1569 
Q 847 1681 609 1914 
Q 372 2147 372 2553 
Q 372 3047 722 3315 
Q 1072 3584 1716 3584 
Q 2034 3584 2315 3537 
Q 2597 3491 2834 3397 
z
" transform="scale(0.015625)"/>
     </defs>
     <use xlink:href="#DejaVuSans-50"/>
     <use xlink:href="#DejaVuSans-65" x="56.677734"/>
     <use xlink:href="#DejaVuSans-6c" x="118.201172"/>
     <use xlink:href="#DejaVuSans-6c" x="145.984375"/>
     <use xlink:href="#DejaVuSans-65" x="173.767578"/>
     <use xlink:href="#DejaVuSans-74" x="235.291016"/>
     <use xlink:href="#DejaVuSans-20" x="274.5"/>
     <use xlink:href="#DejaVuSans-43" x="306.287109"/>
     <use xlink:href="#DejaVuSans-6f" x="376.111328"/>
     <use xlink:href="#DejaVuSans-75" x="437.292969"/>
     <use xlink:href="#DejaVuSans-6e" x="500.671875"/>
     <use xlink:href="#DejaVuSans-74" x="564.050781"/>
     <use xlink:href="#DejaVuSans-20" x="603.259766"/>
     <use xlink:href="#DejaVuSans-61" x="635.046875"/>
     <use xlink:href="#DejaVuSans-6e" x="696.326172"/>
     <use xlink:href="#DejaVuSans-64" x="759.705078"/>
     <use xlink:href="#DejaVuSans-20" x="823.181641"/>
     <use xlink:href="#DejaVuSans-43" x="854.96875"/>
     <use xlink:href="#DejaVuSans-75" x="924.792969"/>
     <use xlink:href="#DejaVuSans-6d" x="988.171875"/>
     <use xlink:href="#DejaVuSans-75" x="1085.583984"/>
     <use xlink:href="#DejaVuSans-6c" x="1148.962891"/>
     <use xlink:href="#DejaVuSans-61" x="1176.746094"/>
     <use xlink:href="#DejaVuSans-74" x="1238.025391"/>
     <use xlink:href="#DejaVuSans-69" x="1277.234375"/>
     <use xlink:href="#DejaVuSans-76" x="1305.017578"/>
     <use xlink:href="#DejaVuSans-65" x="1364.197266"/>
     <use xlink:href="#DejaVuSans-20" x="1425.720703"/>
     <use xlink:href="#DejaVuSans-53" x="1457.507812"/>
     <use xlink:href="#DejaVuSans-75" x="1520.984375"/>
     <use xlink:href="#DejaVuSans-6d" x="1584.363281"/>
     <use xlink:href="#DejaVuSans-20" x="1681.775391"/>
     <use xlink:href="#DejaVuSans-4f" x="1713.5625"/>
     <use xlink:href="#DejaVuSans-76" x="1792.273438"/>
     <use xlink:href="#DejaVuSans-65" x="1851.453125"/>
     <use xlink:href="#DejaVuSans-72" x="1912.976562"/>
     <use xlink:href="#DejaVuSans-20" x="1954.089844"/>
     <use xlink:href="#DejaVuSans-54" x="1985.876953"/>
     <use xlink:href="#DejaVuSans-69" x="2043.835938"/>
     <use xlink:href="#DejaVuSans-6d" x="2071.619141"/>
     <use xlink:href="#DejaVuSans-65" x="2169.03125"/>
     <use xlink:href="#DejaVuSans-20" x="2230.554688"/>
     <use xlink:href="#DejaVuSans-6f" x="2262.341797"/>
     <use xlink:href="#DejaVuSans-66" x="2323.523438"/>
     <use xlink:href="#DejaVuSans-20" x="2358.728516"/>
     <use xlink:href="#DejaVuSans-47" x="2390.515625"/>
     <use xlink:href="#DejaVuSans-72" x="2468.005859"/>
     <use xlink:href="#DejaVuSans-6f" x="2506.869141"/>
     <use xlink:href="#DejaVuSans-75" x="2568.050781"/>
     <use xlink:href="#DejaVuSans-70" x="2631.429688"/>
     <use xlink:href="#DejaVuSans-20" x="2694.90625"/>
     <use xlink:href="#DejaVuSans-33" x="2726.693359"/>
     <use xlink:href="#DejaVuSans-20" x="2790.316406"/>
     <use xlink:href="#DejaVuSans-4d" x="2822.103516"/>
     <use xlink:href="#DejaVuSans-6f" x="2908.382812"/>
     <use xlink:href="#DejaVuSans-75" x="2969.564453"/>
     <use xlink:href="#DejaVuSans-73" x="3032.943359"/>
     <use xlink:href="#DejaVuSans-65" x="3085.042969"/>
     <use xlink:href="#DejaVuSans-20" x="3146.566406"/>
     <use xlink:href="#DejaVuSans-34" x="3178.353516"/>
    </g>
   </g>
   <g id="legend_1">
    <g id="patch_98">
     <path d="M 1086.550625 64.233437 
L 1158.235 64.233437 
Q 1160.235 64.233437 1160.235 62.233437 
L 1160.235 33.877187 
Q 1160.235 31.877187 1158.235 31.877187 
L 1086.550625 31.877187 
Q 1084.550625 31.877187 1084.550625 33.877187 
L 1084.550625 62.233437 
Q 1084.550625 64.233437 1086.550625 64.233437 
z
" style="fill: #ffffff; opacity: 0.8; stroke: #cccccc; stroke-linejoin: miter"/>
    </g>
    <g id="patch_99">
     <path d="M 1088.550625 43.475625 
L 1108.550625 43.475625 
L 1108.550625 36.475625 
L 1088.550625 36.475625 
z
" style="fill: #add8e6; opacity: 0.9; stroke: #add8e6; stroke-linejoin: miter"/>
    </g>
    <g id="text_17">
     <!-- Meal -->
     <g transform="translate(1116.550625 43.475625) scale(0.1 -0.1)">
      <use xlink:href="#DejaVuSans-4d"/>
      <use xlink:href="#DejaVuSans-65" x="86.279297"/>
      <use xlink:href="#DejaVuSans-61" x="147.802734"/>
      <use xlink:href="#DejaVuSans-6c" x="209.082031"/>
     </g>
    </g>
    <g id="patch_100">
     <path d="M 1088.550625 58.15375 
L 1108.550625 58.15375 
L 1108.550625 51.15375 
L 1088.550625 51.15375 
z
" style="fill: #808080; opacity: 0.5; stroke: #808080; stroke-linejoin: miter"/>
    </g>
    <g id="text_18">
     <!-- Inactive -->
     <g transform="translate(1116.550625 58.15375) scale(0.1 -0.1)">
      <defs>
       <path id="DejaVuSans-49" d="M 628 4666 
L 1259 4666 
L 1259 0 
L 628 0 
L 628 4666 
z
" transform="scale(0.015625)"/>
       <path id="DejaVuSans-63" d="M 3122 3366 
L 3122 2828 
Q 2878 2963 2633 3030 
Q 2388 3097 2138 3097 
Q 1578 3097 1268 2742 
Q 959 2388 959 1747 
Q 959 1106 1268 751 
Q 1578 397 2138 397 
Q 2388 397 2633 464 
Q 2878 531 3122 666 
L 3122 134 
Q 2881 22 2623 -34 
Q 2366 -91 2075 -91 
Q 1284 -91 818 406 
Q 353 903 353 1747 
Q 353 2603 823 3093 
Q 1294 3584 2113 3584 
Q 2378 3584 2631 3529 
Q 2884 3475 3122 3366 
z
" transform="scale(0.015625)"/>
      </defs>
      <use xlink:href="#DejaVuSans-49"/>
      <use xlink:href="#DejaVuSans-6e" x="29.492188"/>
      <use xlink:href="#DejaVuSans-61" x="92.871094"/>
      <use xlink:href="#DejaVuSans-63" x="154.150391"/>
      <use xlink:href="#DejaVuSans-74" x="209.130859"/>
      <use xlink:href="#DejaVuSans-69" x="248.339844"/>
      <use xlink:href="#DejaVuSans-76" x="276.123047"/>
      <use xlink:href="#DejaVuSans-65" x="335.302734"/>
     </g>
    </g>
   </g>
  </g>
 </g>
 <defs>
  <clipPath id="p8c019e4fa1">
   <rect x="49.235" y="26.877187" width="1116" height="332.64"/>
  </clipPath>
 </defs>
</svg>
