<?xml version="1.0" encoding="utf-8" standalone="no"?>
<!DOCTYPE svg PUBLIC "-//W3C//DTD SVG 1.1//EN"
  "http://www.w3.org/Graphics/SVG/1.1/DTD/svg11.dtd">
<svg xmlns:xlink="http://www.w3.org/1999/xlink" width="1172.435pt" height="399.009062pt" viewBox="0 0 1172.435 399.009062" xmlns="http://www.w3.org/2000/svg" version="1.1">
 <metadata>
  <rdf:RDF xmlns:dc="http://purl.org/dc/elements/1.1/" xmlns:cc="http://creativecommons.org/ns#" xmlns:rdf="http://www.w3.org/1999/02/22-rdf-syntax-ns#">
   <cc:Work>
    <dc:type rdf:resource="http://purl.org/dc/dcmitype/StillImage"/>
    <dc:date>2025-04-08T13:20:36.432021</dc:date>
    <dc:format>image/svg+xml</dc:format>
    <dc:creator>
     <cc:Agent>
      <dc:title>Matplotlib v3.8.3, https://matplotlib.org/</dc:title>
     </cc:Agent>
    </dc:creator>
   </cc:Work>
  </rdf:RDF>
 </metadata>
 <defs>
  <style type="text/css">*{stroke-linejoin: round; stroke-linecap: butt}</style>
 </defs>
 <g id="figure_1">
  <g id="patch_1">
   <path d="M 0 399.009062 
L 1172.435 399.009062 
L 1172.435 0 
L 0 0 
z
" style="fill: #ffffff"/>
  </g>
  <g id="axes_1">
   <g id="patch_2">
    <path d="M 49.235 359.517187 
L 1165.235 359.517187 
L 1165.235 26.877187 
L 49.235 26.877187 
z
" style="fill: #ffffff"/>
   </g>
   <g id="patch_3">
    <path d="M 113.040858 359.517187 
L 113.040858 26.877187 
L 112.94345 26.877187 
L 112.94345 359.517187 
z
" clip-path="url(#pa0b576d31a)" style="fill: #add8e6; stroke: #add8e6; stroke-linejoin: miter"/>
   </g>
   <g id="patch_4">
    <path d="M 113.599434 359.517187 
L 113.599434 26.877187 
L 113.723478 26.877187 
L 113.723478 359.517187 
z
" clip-path="url(#pa0b576d31a)" style="fill: #add8e6; stroke: #add8e6; stroke-linejoin: miter"/>
   </g>
   <g id="patch_5">
    <path d="M 114.346738 359.517187 
L 114.346738 26.877187 
L 114.156488 26.877187 
L 114.156488 359.517187 
z
" clip-path="url(#pa0b576d31a)" style="fill: #add8e6; stroke: #add8e6; stroke-linejoin: miter"/>
   </g>
   <g id="patch_6">
    <path d="M 115.261463 359.517187 
L 115.261463 26.877187 
L 114.863459 26.877187 
L 114.863459 359.517187 
z
" clip-path="url(#pa0b576d31a)" style="fill: #add8e6; stroke: #add8e6; stroke-linejoin: miter"/>
   </g>
   <g id="patch_7">
    <path d="M 115.578801 359.517187 
L 115.578801 26.877187 
L 115.578801 26.877187 
z
" clip-path="url(#pa0b576d31a)" style="fill: #add8e6; stroke: #add8e6; stroke-linejoin: miter"/>
   </g>
   <g id="patch_8">
    <path d="M 122.518381 359.517187 
L 122.518381 26.877187 
L 122.530557 26.877187 
L 122.530557 359.517187 
z
" clip-path="url(#pa0b576d31a)" style="fill: #add8e6; stroke: #add8e6; stroke-linejoin: miter"/>
   </g>
   <g id="patch_9">
    <path d="M 128.677173 359.517187 
L 128.677173 26.877187 
L 128.795128 26.877187 
L 128.795128 359.517187 
z
" clip-path="url(#pa0b576d31a)" style="fill: #add8e6; stroke: #add8e6; stroke-linejoin: miter"/>
   </g>
   <g id="patch_10">
    <path d="M 129.561458 359.517187 
L 129.561458 26.877187 
L 129.581244 26.877187 
L 129.581244 359.517187 
z
" clip-path="url(#pa0b576d31a)" style="fill: #add8e6; stroke: #add8e6; stroke-linejoin: miter"/>
   </g>
   <g id="patch_11">
    <path d="M 142.773219 359.517187 
L 142.773219 26.877187 
L 139.000169 26.877187 
L 139.000169 359.517187 
z
" clip-path="url(#pa0b576d31a)" style="fill: #add8e6; stroke: #add8e6; stroke-linejoin: miter"/>
   </g>
   <g id="patch_12">
    <path d="M 151.243175 359.517187 
L 151.243175 26.877187 
L 149.150418 26.877187 
L 149.150418 359.517187 
z
" clip-path="url(#pa0b576d31a)" style="fill: #add8e6; stroke: #add8e6; stroke-linejoin: miter"/>
   </g>
   <g id="patch_13">
    <path d="M 163.099591 359.517187 
L 163.099591 26.877187 
L 162.692454 26.877187 
L 162.692454 359.517187 
z
" clip-path="url(#pa0b576d31a)" style="fill: #add8e6; stroke: #add8e6; stroke-linejoin: miter"/>
   </g>
   <g id="patch_14">
    <path d="M 197.852283 359.517187 
L 197.852283 26.877187 
L 197.778466 26.877187 
L 197.778466 359.517187 
z
" clip-path="url(#pa0b576d31a)" style="fill: #add8e6; stroke: #add8e6; stroke-linejoin: miter"/>
   </g>
   <g id="patch_15">
    <path d="M 247.210132 359.517187 
L 247.210132 26.877187 
L 246.514576 26.877187 
L 246.514576 359.517187 
z
" clip-path="url(#pa0b576d31a)" style="fill: #add8e6; stroke: #add8e6; stroke-linejoin: miter"/>
   </g>
   <g id="patch_16">
    <path d="M 259.792545 359.517187 
L 259.792545 26.877187 
L 248.366856 26.877187 
L 248.366856 359.517187 
z
" clip-path="url(#pa0b576d31a)" style="fill: #add8e6; stroke: #add8e6; stroke-linejoin: miter"/>
   </g>
   <g id="patch_17">
    <path d="M 309.059073 359.517187 
L 309.059073 26.877187 
L 309.20062 26.877187 
L 309.20062 359.517187 
z
" clip-path="url(#pa0b576d31a)" style="fill: #add8e6; stroke: #add8e6; stroke-linejoin: miter"/>
   </g>
   <g id="patch_18">
    <path d="M 368.346481 359.517187 
L 368.346481 26.877187 
L 368.529882 26.877187 
L 368.529882 359.517187 
z
" clip-path="url(#pa0b576d31a)" style="fill: #add8e6; stroke: #add8e6; stroke-linejoin: miter"/>
   </g>
   <g id="patch_19">
    <path d="M 372.271731 359.517187 
L 372.271731 26.877187 
L 372.437629 26.877187 
L 372.437629 359.517187 
z
" clip-path="url(#pa0b576d31a)" style="fill: #add8e6; stroke: #add8e6; stroke-linejoin: miter"/>
   </g>
   <g id="patch_20">
    <path d="M 375.570676 359.517187 
L 375.570676 26.877187 
L 375.544041 26.877187 
L 375.544041 359.517187 
z
" clip-path="url(#pa0b576d31a)" style="fill: #add8e6; stroke: #add8e6; stroke-linejoin: miter"/>
   </g>
   <g id="patch_21">
    <path d="M 408.850068 359.517187 
L 408.850068 26.877187 
L 408.923124 26.877187 
L 408.923124 359.517187 
z
" clip-path="url(#pa0b576d31a)" style="fill: #add8e6; stroke: #add8e6; stroke-linejoin: miter"/>
   </g>
   <g id="patch_22">
    <path d="M 427.747277 359.517187 
L 427.747277 26.877187 
L 427.912415 26.877187 
L 427.912415 359.517187 
z
" clip-path="url(#pa0b576d31a)" style="fill: #add8e6; stroke: #add8e6; stroke-linejoin: miter"/>
   </g>
   <g id="patch_23">
    <path d="M 435.651808 359.517187 
L 435.651808 26.877187 
L 435.851191 26.877187 
L 435.851191 359.517187 
z
" clip-path="url(#pa0b576d31a)" style="fill: #add8e6; stroke: #add8e6; stroke-linejoin: miter"/>
   </g>
   <g id="patch_24">
    <path d="M 438.237694 359.517187 
L 438.237694 26.877187 
L 438.391417 26.877187 
L 438.391417 359.517187 
z
" clip-path="url(#pa0b576d31a)" style="fill: #add8e6; stroke: #add8e6; stroke-linejoin: miter"/>
   </g>
   <g id="patch_25">
    <path d="M 446.57828 359.517187 
L 446.57828 26.877187 
L 446.703845 26.877187 
L 446.703845 359.517187 
z
" clip-path="url(#pa0b576d31a)" style="fill: #add8e6; stroke: #add8e6; stroke-linejoin: miter"/>
   </g>
   <g id="patch_26">
    <path d="M 449.693062 359.517187 
L 449.693062 26.877187 
L 449.883313 26.877187 
L 449.883313 359.517187 
z
" clip-path="url(#pa0b576d31a)" style="fill: #add8e6; stroke: #add8e6; stroke-linejoin: miter"/>
   </g>
   <g id="patch_27">
    <path d="M 449.993658 359.517187 
L 449.993658 26.877187 
L 450.091827 26.877187 
L 450.091827 359.517187 
z
" clip-path="url(#pa0b576d31a)" style="fill: #add8e6; stroke: #add8e6; stroke-linejoin: miter"/>
   </g>
   <g id="patch_28">
    <path d="M 459.53891 359.517187 
L 459.53891 26.877187 
L 459.676651 26.877187 
L 459.676651 359.517187 
z
" clip-path="url(#pa0b576d31a)" style="fill: #add8e6; stroke: #add8e6; stroke-linejoin: miter"/>
   </g>
   <g id="patch_29">
    <path d="M 475.997107 359.517187 
L 475.997107 26.877187 
L 472.678376 26.877187 
L 472.678376 359.517187 
z
" clip-path="url(#pa0b576d31a)" style="fill: #add8e6; stroke: #add8e6; stroke-linejoin: miter"/>
   </g>
   <g id="patch_30">
    <path d="M 489.040687 359.517187 
L 489.040687 26.877187 
L 477.16068 26.877187 
L 477.16068 359.517187 
z
" clip-path="url(#pa0b576d31a)" style="fill: #add8e6; stroke: #add8e6; stroke-linejoin: miter"/>
   </g>
   <g id="patch_31">
    <path d="M 492.370072 359.517187 
L 492.370072 26.877187 
L 483.589627 26.877187 
L 483.589627 359.517187 
z
" clip-path="url(#pa0b576d31a)" style="fill: #add8e6; stroke: #add8e6; stroke-linejoin: miter"/>
   </g>
   <g id="patch_32">
    <path d="M 496.993161 359.517187 
L 496.993161 26.877187 
L 486.162576 26.877187 
L 486.162576 359.517187 
z
" clip-path="url(#pa0b576d31a)" style="fill: #add8e6; stroke: #add8e6; stroke-linejoin: miter"/>
   </g>
   <g id="patch_33">
    <path d="M 531.958173 359.517187 
L 531.958173 26.877187 
L 528.249048 26.877187 
L 528.249048 359.517187 
z
" clip-path="url(#pa0b576d31a)" style="fill: #add8e6; stroke: #add8e6; stroke-linejoin: miter"/>
   </g>
   <g id="patch_34">
    <path d="M 606.176446 359.517187 
L 606.176446 26.877187 
L 604.317317 26.877187 
L 604.317317 359.517187 
z
" clip-path="url(#pa0b576d31a)" style="fill: #add8e6; stroke: #add8e6; stroke-linejoin: miter"/>
   </g>
   <g id="patch_35">
    <path d="M 657.811214 359.517187 
L 657.811214 26.877187 
L 657.56541 26.877187 
L 657.56541 359.517187 
z
" clip-path="url(#pa0b576d31a)" style="fill: #add8e6; stroke: #add8e6; stroke-linejoin: miter"/>
   </g>
   <g id="patch_36">
    <path d="M 673.443723 359.517187 
L 673.443723 26.877187 
L 673.486339 26.877187 
L 673.486339 359.517187 
z
" clip-path="url(#pa0b576d31a)" style="fill: #add8e6; stroke: #add8e6; stroke-linejoin: miter"/>
   </g>
   <g id="patch_37">
    <path d="M 723.204904 359.517187 
L 723.204904 26.877187 
L 712.85375 26.877187 
L 712.85375 359.517187 
z
" clip-path="url(#pa0b576d31a)" style="fill: #add8e6; stroke: #add8e6; stroke-linejoin: miter"/>
   </g>
   <g id="patch_38">
    <path d="M 730.605651 359.517187 
L 730.605651 26.877187 
L 730.188622 26.877187 
L 730.188622 359.517187 
z
" clip-path="url(#pa0b576d31a)" style="fill: #add8e6; stroke: #add8e6; stroke-linejoin: miter"/>
   </g>
   <g id="patch_39">
    <path d="M 750.203744 359.517187 
L 750.203744 26.877187 
L 740.27799 26.877187 
L 740.27799 359.517187 
z
" clip-path="url(#pa0b576d31a)" style="fill: #add8e6; stroke: #add8e6; stroke-linejoin: miter"/>
   </g>
   <g id="patch_40">
    <path d="M 760.996278 359.517187 
L 760.996278 26.877187 
L 756.231643 26.877187 
L 756.231643 359.517187 
z
" clip-path="url(#pa0b576d31a)" style="fill: #add8e6; stroke: #add8e6; stroke-linejoin: miter"/>
   </g>
   <g id="patch_41">
    <path d="M 768.086537 359.517187 
L 768.086537 26.877187 
L 768.311033 26.877187 
L 768.311033 359.517187 
z
" clip-path="url(#pa0b576d31a)" style="fill: #add8e6; stroke: #add8e6; stroke-linejoin: miter"/>
   </g>
   <g id="patch_42">
    <path d="M 768.684685 359.517187 
L 768.684685 26.877187 
L 768.794269 26.877187 
L 768.794269 359.517187 
z
" clip-path="url(#pa0b576d31a)" style="fill: #add8e6; stroke: #add8e6; stroke-linejoin: miter"/>
   </g>
   <g id="patch_43">
    <path d="M 768.944187 359.517187 
L 768.944187 26.877187 
L 769.161833 26.877187 
L 769.161833 359.517187 
z
" clip-path="url(#pa0b576d31a)" style="fill: #add8e6; stroke: #add8e6; stroke-linejoin: miter"/>
   </g>
   <g id="patch_44">
    <path d="M 793.650888 359.517187 
L 793.650888 26.877187 
L 787.77595 26.877187 
L 787.77595 359.517187 
z
" clip-path="url(#pa0b576d31a)" style="fill: #add8e6; stroke: #add8e6; stroke-linejoin: miter"/>
   </g>
   <g id="patch_45">
    <path d="M 802.284459 359.517187 
L 802.284459 26.877187 
L 797.118014 26.877187 
L 797.118014 359.517187 
z
" clip-path="url(#pa0b576d31a)" style="fill: #add8e6; stroke: #add8e6; stroke-linejoin: miter"/>
   </g>
   <g id="patch_46">
    <path d="M 815.069298 359.517187 
L 815.069298 26.877187 
L 804.247084 26.877187 
L 804.247084 359.517187 
z
" clip-path="url(#pa0b576d31a)" style="fill: #add8e6; stroke: #add8e6; stroke-linejoin: miter"/>
   </g>
   <g id="patch_47">
    <path d="M 818.048622 359.517187 
L 818.048622 26.877187 
L 809.898287 26.877187 
L 809.898287 359.517187 
z
" clip-path="url(#pa0b576d31a)" style="fill: #add8e6; stroke: #add8e6; stroke-linejoin: miter"/>
   </g>
   <g id="patch_48">
    <path d="M 824.772077 359.517187 
L 824.772077 26.877187 
L 819.750223 26.877187 
L 819.750223 359.517187 
z
" clip-path="url(#pa0b576d31a)" style="fill: #add8e6; stroke: #add8e6; stroke-linejoin: miter"/>
   </g>
   <g id="patch_49">
    <path d="M 834.394952 359.517187 
L 834.394952 26.877187 
L 832.312849 26.877187 
L 832.312849 359.517187 
z
" clip-path="url(#pa0b576d31a)" style="fill: #add8e6; stroke: #add8e6; stroke-linejoin: miter"/>
   </g>
   <g id="patch_50">
    <path d="M 840.931201 359.517187 
L 840.931201 26.877187 
L 832.328069 26.877187 
L 832.328069 359.517187 
z
" clip-path="url(#pa0b576d31a)" style="fill: #add8e6; stroke: #add8e6; stroke-linejoin: miter"/>
   </g>
   <g id="patch_51">
    <path d="M 850.143895 359.517187 
L 850.143895 26.877187 
L 838.966293 26.877187 
L 838.966293 359.517187 
z
" clip-path="url(#pa0b576d31a)" style="fill: #add8e6; stroke: #add8e6; stroke-linejoin: miter"/>
   </g>
   <g id="patch_52">
    <path d="M 892.866564 359.517187 
L 892.866564 26.877187 
L 885.349384 26.877187 
L 885.349384 359.517187 
z
" clip-path="url(#pa0b576d31a)" style="fill: #add8e6; stroke: #add8e6; stroke-linejoin: miter"/>
   </g>
   <g id="patch_53">
    <path d="M 912.828416 359.517187 
L 912.828416 26.877187 
L 912.973007 26.877187 
L 912.973007 359.517187 
z
" clip-path="url(#pa0b576d31a)" style="fill: #add8e6; stroke: #add8e6; stroke-linejoin: miter"/>
   </g>
   <g id="patch_54">
    <path d="M 913.105421 359.517187 
L 913.105421 26.877187 
L 913.237835 26.877187 
L 913.237835 359.517187 
z
" clip-path="url(#pa0b576d31a)" style="fill: #add8e6; stroke: #add8e6; stroke-linejoin: miter"/>
   </g>
   <g id="patch_55">
    <path d="M 927.698401 359.517187 
L 927.698401 26.877187 
L 927.857451 26.877187 
L 927.857451 359.517187 
z
" clip-path="url(#pa0b576d31a)" style="fill: #add8e6; stroke: #add8e6; stroke-linejoin: miter"/>
   </g>
   <g id="patch_56">
    <path d="M 968.335164 359.517187 
L 968.335164 26.877187 
L 960.305067 26.877187 
L 960.305067 359.517187 
z
" clip-path="url(#pa0b576d31a)" style="fill: #add8e6; stroke: #add8e6; stroke-linejoin: miter"/>
   </g>
   <g id="patch_57">
    <path d="M 969.526132 359.517187 
L 969.526132 26.877187 
L 969.548202 26.877187 
L 969.548202 359.517187 
z
" clip-path="url(#pa0b576d31a)" style="fill: #add8e6; stroke: #add8e6; stroke-linejoin: miter"/>
   </g>
   <g id="patch_58">
    <path d="M 990.564802 359.517187 
L 990.564802 26.877187 
L 990.66145 26.877187 
L 990.66145 359.517187 
z
" clip-path="url(#pa0b576d31a)" style="fill: #add8e6; stroke: #add8e6; stroke-linejoin: miter"/>
   </g>
   <g id="patch_59">
    <path d="M 1019.89992 359.517187 
L 1019.89992 26.877187 
L 1020.111478 26.877187 
L 1020.111478 359.517187 
z
" clip-path="url(#pa0b576d31a)" style="fill: #add8e6; stroke: #add8e6; stroke-linejoin: miter"/>
   </g>
   <g id="patch_60">
    <path d="M 1020.530791 359.517187 
L 1020.530791 26.877187 
L 1020.52242 26.877187 
L 1020.52242 359.517187 
z
" clip-path="url(#pa0b576d31a)" style="fill: #add8e6; stroke: #add8e6; stroke-linejoin: miter"/>
   </g>
   <g id="patch_61">
    <path d="M 1037.654865 359.517187 
L 1037.654865 26.877187 
L 1033.523383 26.877187 
L 1033.523383 359.517187 
z
" clip-path="url(#pa0b576d31a)" style="fill: #add8e6; stroke: #add8e6; stroke-linejoin: miter"/>
   </g>
   <g id="patch_62">
    <path d="M 1045.123341 359.517187 
L 1045.123341 26.877187 
L 1045.280869 26.877187 
L 1045.280869 359.517187 
z
" clip-path="url(#pa0b576d31a)" style="fill: #add8e6; stroke: #add8e6; stroke-linejoin: miter"/>
   </g>
   <g id="patch_63">
    <path d="M 1077.414952 359.517187 
L 1077.414952 26.877187 
L 1077.312978 26.877187 
L 1077.312978 359.517187 
z
" clip-path="url(#pa0b576d31a)" style="fill: #add8e6; stroke: #add8e6; stroke-linejoin: miter"/>
   </g>
   <g id="patch_64">
    <path d="M 1091.267478 359.517187 
L 1091.267478 26.877187 
L 1088.259235 26.877187 
L 1088.259235 359.517187 
z
" clip-path="url(#pa0b576d31a)" style="fill: #add8e6; stroke: #add8e6; stroke-linejoin: miter"/>
   </g>
   <g id="patch_65">
    <path d="M 1099.308989 359.517187 
L 1099.308989 26.877187 
L 1099.293769 26.877187 
L 1099.293769 359.517187 
z
" clip-path="url(#pa0b576d31a)" style="fill: #add8e6; stroke: #add8e6; stroke-linejoin: miter"/>
   </g>
   <g id="patch_66">
    <path d="M 1099.546422 359.517187 
L 1099.546422 26.877187 
L 1099.662094 26.877187 
L 1099.662094 359.517187 
z
" clip-path="url(#pa0b576d31a)" style="fill: #add8e6; stroke: #add8e6; stroke-linejoin: miter"/>
   </g>
   <g id="patch_67">
    <path d="M 1114.507727 359.517187 
L 1114.507727 26.877187 
L 1113.010075 26.877187 
L 1113.010075 359.517187 
z
" clip-path="url(#pa0b576d31a)" style="fill: #add8e6; stroke: #add8e6; stroke-linejoin: miter"/>
   </g>
   <g id="patch_68">
    <path d="M 223.244648 359.517187 
L 223.244648 26.877187 
L 387.621147 26.877187 
L 387.621147 359.517187 
z
" clip-path="url(#pa0b576d31a)" style="fill: #808080; opacity: 0.4; stroke: #808080; stroke-linejoin: miter"/>
   </g>
   <g id="patch_69">
    <path d="M 392.187161 26.877187 
L 392.187161 26.877187 
L 392.187161 359.517187 
" clip-path="url(#pa0b576d31a)" style="fill: #808080; opacity: 0.4; stroke: #808080; stroke-linejoin: miter"/>
   </g>
   <g id="patch_70">
    <path d="M 396.753175 26.877187 
L 396.753175 26.877187 
L 396.753175 359.517187 
" clip-path="url(#pa0b576d31a)" style="fill: #808080; opacity: 0.4; stroke: #808080; stroke-linejoin: miter"/>
   </g>
   <g id="patch_71">
    <path d="M 551.997647 359.517187 
L 551.997647 26.877187 
L 716.374147 26.877187 
L 716.374147 359.517187 
z
" clip-path="url(#pa0b576d31a)" style="fill: #808080; opacity: 0.4; stroke: #808080; stroke-linejoin: miter"/>
   </g>
   <g id="patch_72">
    <path d="M 720.940161 26.877187 
L 720.940161 26.877187 
L 720.940161 359.517187 
" clip-path="url(#pa0b576d31a)" style="fill: #808080; opacity: 0.4; stroke: #808080; stroke-linejoin: miter"/>
   </g>
   <g id="patch_73">
    <path d="M 725.506175 26.877187 
L 725.506175 26.877187 
L 725.506175 359.517187 
" clip-path="url(#pa0b576d31a)" style="fill: #808080; opacity: 0.4; stroke: #808080; stroke-linejoin: miter"/>
   </g>
   <g id="patch_74">
    <path d="M 880.750647 359.517187 
L 880.750647 26.877187 
L 1045.127146 26.877187 
L 1045.127146 359.517187 
z
" clip-path="url(#pa0b576d31a)" style="fill: #808080; opacity: 0.4; stroke: #808080; stroke-linejoin: miter"/>
   </g>
   <g id="patch_75">
    <path d="M 1049.69316 26.877187 
L 1049.69316 26.877187 
L 1049.69316 359.517187 
" clip-path="url(#pa0b576d31a)" style="fill: #808080; opacity: 0.4; stroke: #808080; stroke-linejoin: miter"/>
   </g>
   <g id="patch_76">
    <path d="M 1054.259174 26.877187 
L 1054.259174 26.877187 
L 1054.259174 359.517187 
" clip-path="url(#pa0b576d31a)" style="fill: #808080; opacity: 0.4; stroke: #808080; stroke-linejoin: miter"/>
   </g>
   <g id="matplotlib.axis_1">
    <g id="xtick_1">
     <g id="line2d_1">
      <defs>
       <path id="mabcf2fb23a" d="M 0 0 
L 0 3.5 
" style="stroke: #000000; stroke-width: 0.8"/>
      </defs>
      <g>
       <use xlink:href="#mabcf2fb23a" x="122.971178" y="359.517187" style="stroke: #000000; stroke-width: 0.8"/>
      </g>
     </g>
     <g id="text_1">
      <!-- 12-13 12 -->
      <g transform="translate(100.490709 374.115625) scale(0.1 -0.1)">
       <defs>
        <path id="DejaVuSans-31" d="M 794 531 
L 1825 531 
L 1825 4091 
L 703 3866 
L 703 4441 
L 1819 4666 
L 2450 4666 
L 2450 531 
L 3481 531 
L 3481 0 
L 794 0 
L 794 531 
z
" transform="scale(0.015625)"/>
        <path id="DejaVuSans-32" d="M 1228 531 
L 3431 531 
L 3431 0 
L 469 0 
L 469 531 
Q 828 903 1448 1529 
Q 2069 2156 2228 2338 
Q 2531 2678 2651 2914 
Q 2772 3150 2772 3378 
Q 2772 3750 2511 3984 
Q 2250 4219 1831 4219 
Q 1534 4219 1204 4116 
Q 875 4013 500 3803 
L 500 4441 
Q 881 4594 1212 4672 
Q 1544 4750 1819 4750 
Q 2544 4750 2975 4387 
Q 3406 4025 3406 3419 
Q 3406 3131 3298 2873 
Q 3191 2616 2906 2266 
Q 2828 2175 2409 1742 
Q 1991 1309 1228 531 
z
" transform="scale(0.015625)"/>
        <path id="DejaVuSans-2d" d="M 313 2009 
L 1997 2009 
L 1997 1497 
L 313 1497 
L 313 2009 
z
" transform="scale(0.015625)"/>
        <path id="DejaVuSans-33" d="M 2597 2516 
Q 3050 2419 3304 2112 
Q 3559 1806 3559 1356 
Q 3559 666 3084 287 
Q 2609 -91 1734 -91 
Q 1441 -91 1130 -33 
Q 819 25 488 141 
L 488 750 
Q 750 597 1062 519 
Q 1375 441 1716 441 
Q 2309 441 2620 675 
Q 2931 909 2931 1356 
Q 2931 1769 2642 2001 
Q 2353 2234 1838 2234 
L 1294 2234 
L 1294 2753 
L 1863 2753 
Q 2328 2753 2575 2939 
Q 2822 3125 2822 3475 
Q 2822 3834 2567 4026 
Q 2313 4219 1838 4219 
Q 1578 4219 1281 4162 
Q 984 4106 628 3988 
L 628 4550 
Q 988 4650 1302 4700 
Q 1616 4750 1894 4750 
Q 2613 4750 3031 4423 
Q 3450 4097 3450 3541 
Q 3450 3153 3228 2886 
Q 3006 2619 2597 2516 
z
" transform="scale(0.015625)"/>
        <path id="DejaVuSans-20" transform="scale(0.015625)"/>
       </defs>
       <use xlink:href="#DejaVuSans-31"/>
       <use xlink:href="#DejaVuSans-32" x="63.623047"/>
       <use xlink:href="#DejaVuSans-2d" x="127.246094"/>
       <use xlink:href="#DejaVuSans-31" x="163.330078"/>
       <use xlink:href="#DejaVuSans-33" x="226.953125"/>
       <use xlink:href="#DejaVuSans-20" x="290.576172"/>
       <use xlink:href="#DejaVuSans-31" x="322.363281"/>
       <use xlink:href="#DejaVuSans-32" x="385.986328"/>
      </g>
     </g>
    </g>
    <g id="xtick_2">
     <g id="line2d_2">
      <g>
       <use xlink:href="#mabcf2fb23a" x="287.347677" y="359.517187" style="stroke: #000000; stroke-width: 0.8"/>
      </g>
     </g>
     <g id="text_2">
      <!-- 12-14 00 -->
      <g transform="translate(264.867209 374.115625) scale(0.1 -0.1)">
       <defs>
        <path id="DejaVuSans-34" d="M 2419 4116 
L 825 1625 
L 2419 1625 
L 2419 4116 
z
M 2253 4666 
L 3047 4666 
L 3047 1625 
L 3713 1625 
L 3713 1100 
L 3047 1100 
L 3047 0 
L 2419 0 
L 2419 1100 
L 313 1100 
L 313 1709 
L 2253 4666 
z
" transform="scale(0.015625)"/>
        <path id="DejaVuSans-30" d="M 2034 4250 
Q 1547 4250 1301 3770 
Q 1056 3291 1056 2328 
Q 1056 1369 1301 889 
Q 1547 409 2034 409 
Q 2525 409 2770 889 
Q 3016 1369 3016 2328 
Q 3016 3291 2770 3770 
Q 2525 4250 2034 4250 
z
M 2034 4750 
Q 2819 4750 3233 4129 
Q 3647 3509 3647 2328 
Q 3647 1150 3233 529 
Q 2819 -91 2034 -91 
Q 1250 -91 836 529 
Q 422 1150 422 2328 
Q 422 3509 836 4129 
Q 1250 4750 2034 4750 
z
" transform="scale(0.015625)"/>
       </defs>
       <use xlink:href="#DejaVuSans-31"/>
       <use xlink:href="#DejaVuSans-32" x="63.623047"/>
       <use xlink:href="#DejaVuSans-2d" x="127.246094"/>
       <use xlink:href="#DejaVuSans-31" x="163.330078"/>
       <use xlink:href="#DejaVuSans-34" x="226.953125"/>
       <use xlink:href="#DejaVuSans-20" x="290.576172"/>
       <use xlink:href="#DejaVuSans-30" x="322.363281"/>
       <use xlink:href="#DejaVuSans-30" x="385.986328"/>
      </g>
     </g>
    </g>
    <g id="xtick_3">
     <g id="line2d_3">
      <g>
       <use xlink:href="#mabcf2fb23a" x="451.724177" y="359.517187" style="stroke: #000000; stroke-width: 0.8"/>
      </g>
     </g>
     <g id="text_3">
      <!-- 12-14 12 -->
      <g transform="translate(429.243708 374.115625) scale(0.1 -0.1)">
       <use xlink:href="#DejaVuSans-31"/>
       <use xlink:href="#DejaVuSans-32" x="63.623047"/>
       <use xlink:href="#DejaVuSans-2d" x="127.246094"/>
       <use xlink:href="#DejaVuSans-31" x="163.330078"/>
       <use xlink:href="#DejaVuSans-34" x="226.953125"/>
       <use xlink:href="#DejaVuSans-20" x="290.576172"/>
       <use xlink:href="#DejaVuSans-31" x="322.363281"/>
       <use xlink:href="#DejaVuSans-32" x="385.986328"/>
      </g>
     </g>
    </g>
    <g id="xtick_4">
     <g id="line2d_4">
      <g>
       <use xlink:href="#mabcf2fb23a" x="616.100677" y="359.517187" style="stroke: #000000; stroke-width: 0.8"/>
      </g>
     </g>
     <g id="text_4">
      <!-- 12-15 00 -->
      <g transform="translate(593.620208 374.115625) scale(0.1 -0.1)">
       <defs>
        <path id="DejaVuSans-35" d="M 691 4666 
L 3169 4666 
L 3169 4134 
L 1269 4134 
L 1269 2991 
Q 1406 3038 1543 3061 
Q 1681 3084 1819 3084 
Q 2600 3084 3056 2656 
Q 3513 2228 3513 1497 
Q 3513 744 3044 326 
Q 2575 -91 1722 -91 
Q 1428 -91 1123 -41 
Q 819 9 494 109 
L 494 744 
Q 775 591 1075 516 
Q 1375 441 1709 441 
Q 2250 441 2565 725 
Q 2881 1009 2881 1497 
Q 2881 1984 2565 2268 
Q 2250 2553 1709 2553 
Q 1456 2553 1204 2497 
Q 953 2441 691 2322 
L 691 4666 
z
" transform="scale(0.015625)"/>
       </defs>
       <use xlink:href="#DejaVuSans-31"/>
       <use xlink:href="#DejaVuSans-32" x="63.623047"/>
       <use xlink:href="#DejaVuSans-2d" x="127.246094"/>
       <use xlink:href="#DejaVuSans-31" x="163.330078"/>
       <use xlink:href="#DejaVuSans-35" x="226.953125"/>
       <use xlink:href="#DejaVuSans-20" x="290.576172"/>
       <use xlink:href="#DejaVuSans-30" x="322.363281"/>
       <use xlink:href="#DejaVuSans-30" x="385.986328"/>
      </g>
     </g>
    </g>
    <g id="xtick_5">
     <g id="line2d_5">
      <g>
       <use xlink:href="#mabcf2fb23a" x="780.477177" y="359.517187" style="stroke: #000000; stroke-width: 0.8"/>
      </g>
     </g>
     <g id="text_5">
      <!-- 12-15 12 -->
      <g transform="translate(757.996708 374.115625) scale(0.1 -0.1)">
       <use xlink:href="#DejaVuSans-31"/>
       <use xlink:href="#DejaVuSans-32" x="63.623047"/>
       <use xlink:href="#DejaVuSans-2d" x="127.246094"/>
       <use xlink:href="#DejaVuSans-31" x="163.330078"/>
       <use xlink:href="#DejaVuSans-35" x="226.953125"/>
       <use xlink:href="#DejaVuSans-20" x="290.576172"/>
       <use xlink:href="#DejaVuSans-31" x="322.363281"/>
       <use xlink:href="#DejaVuSans-32" x="385.986328"/>
      </g>
     </g>
    </g>
    <g id="xtick_6">
     <g id="line2d_6">
      <g>
       <use xlink:href="#mabcf2fb23a" x="944.853676" y="359.517187" style="stroke: #000000; stroke-width: 0.8"/>
      </g>
     </g>
     <g id="text_6">
      <!-- 12-16 00 -->
      <g transform="translate(922.373208 374.115625) scale(0.1 -0.1)">
       <defs>
        <path id="DejaVuSans-36" d="M 2113 2584 
Q 1688 2584 1439 2293 
Q 1191 2003 1191 1497 
Q 1191 994 1439 701 
Q 1688 409 2113 409 
Q 2538 409 2786 701 
Q 3034 994 3034 1497 
Q 3034 2003 2786 2293 
Q 2538 2584 2113 2584 
z
M 3366 4563 
L 3366 3988 
Q 3128 4100 2886 4159 
Q 2644 4219 2406 4219 
Q 1781 4219 1451 3797 
Q 1122 3375 1075 2522 
Q 1259 2794 1537 2939 
Q 1816 3084 2150 3084 
Q 2853 3084 3261 2657 
Q 3669 2231 3669 1497 
Q 3669 778 3244 343 
Q 2819 -91 2113 -91 
Q 1303 -91 875 529 
Q 447 1150 447 2328 
Q 447 3434 972 4092 
Q 1497 4750 2381 4750 
Q 2619 4750 2861 4703 
Q 3103 4656 3366 4563 
z
" transform="scale(0.015625)"/>
       </defs>
       <use xlink:href="#DejaVuSans-31"/>
       <use xlink:href="#DejaVuSans-32" x="63.623047"/>
       <use xlink:href="#DejaVuSans-2d" x="127.246094"/>
       <use xlink:href="#DejaVuSans-31" x="163.330078"/>
       <use xlink:href="#DejaVuSans-36" x="226.953125"/>
       <use xlink:href="#DejaVuSans-20" x="290.576172"/>
       <use xlink:href="#DejaVuSans-30" x="322.363281"/>
       <use xlink:href="#DejaVuSans-30" x="385.986328"/>
      </g>
     </g>
    </g>
    <g id="xtick_7">
     <g id="line2d_7">
      <g>
       <use xlink:href="#mabcf2fb23a" x="1109.230176" y="359.517187" style="stroke: #000000; stroke-width: 0.8"/>
      </g>
     </g>
     <g id="text_7">
      <!-- 12-16 12 -->
      <g transform="translate(1086.749707 374.115625) scale(0.1 -0.1)">
       <use xlink:href="#DejaVuSans-31"/>
       <use xlink:href="#DejaVuSans-32" x="63.623047"/>
       <use xlink:href="#DejaVuSans-2d" x="127.246094"/>
       <use xlink:href="#DejaVuSans-31" x="163.330078"/>
       <use xlink:href="#DejaVuSans-36" x="226.953125"/>
       <use xlink:href="#DejaVuSans-20" x="290.576172"/>
       <use xlink:href="#DejaVuSans-31" x="322.363281"/>
       <use xlink:href="#DejaVuSans-32" x="385.986328"/>
      </g>
     </g>
    </g>
    <g id="text_8">
     <!-- Time -->
     <g transform="translate(592.554688 389.313437) scale(0.12 -0.12)">
      <defs>
       <path id="DejaVuSans-54" d="M -19 4666 
L 3928 4666 
L 3928 4134 
L 2272 4134 
L 2272 0 
L 1638 0 
L 1638 4134 
L -19 4134 
L -19 4666 
z
" transform="scale(0.015625)"/>
       <path id="DejaVuSans-69" d="M 603 3500 
L 1178 3500 
L 1178 0 
L 603 0 
L 603 3500 
z
M 603 4863 
L 1178 4863 
L 1178 4134 
L 603 4134 
L 603 4863 
z
" transform="scale(0.015625)"/>
       <path id="DejaVuSans-6d" d="M 3328 2828 
Q 3544 3216 3844 3400 
Q 4144 3584 4550 3584 
Q 5097 3584 5394 3201 
Q 5691 2819 5691 2113 
L 5691 0 
L 5113 0 
L 5113 2094 
Q 5113 2597 4934 2840 
Q 4756 3084 4391 3084 
Q 3944 3084 3684 2787 
Q 3425 2491 3425 1978 
L 3425 0 
L 2847 0 
L 2847 2094 
Q 2847 2600 2669 2842 
Q 2491 3084 2119 3084 
Q 1678 3084 1418 2786 
Q 1159 2488 1159 1978 
L 1159 0 
L 581 0 
L 581 3500 
L 1159 3500 
L 1159 2956 
Q 1356 3278 1631 3431 
Q 1906 3584 2284 3584 
Q 2666 3584 2933 3390 
Q 3200 3197 3328 2828 
z
" transform="scale(0.015625)"/>
       <path id="DejaVuSans-65" d="M 3597 1894 
L 3597 1613 
L 953 1613 
Q 991 1019 1311 708 
Q 1631 397 2203 397 
Q 2534 397 2845 478 
Q 3156 559 3463 722 
L 3463 178 
Q 3153 47 2828 -22 
Q 2503 -91 2169 -91 
Q 1331 -91 842 396 
Q 353 884 353 1716 
Q 353 2575 817 3079 
Q 1281 3584 2069 3584 
Q 2775 3584 3186 3129 
Q 3597 2675 3597 1894 
z
M 3022 2063 
Q 3016 2534 2758 2815 
Q 2500 3097 2075 3097 
Q 1594 3097 1305 2825 
Q 1016 2553 972 2059 
L 3022 2063 
z
" transform="scale(0.015625)"/>
      </defs>
      <use xlink:href="#DejaVuSans-54"/>
      <use xlink:href="#DejaVuSans-69" x="57.958984"/>
      <use xlink:href="#DejaVuSans-6d" x="85.742188"/>
      <use xlink:href="#DejaVuSans-65" x="183.154297"/>
     </g>
    </g>
   </g>
   <g id="matplotlib.axis_2">
    <g id="ytick_1">
     <g id="line2d_8">
      <defs>
       <path id="m74c04b4f01" d="M 0 0 
L -3.5 0 
" style="stroke: #000000; stroke-width: 0.8"/>
      </defs>
      <g>
       <use xlink:href="#m74c04b4f01" x="49.235" y="344.397187" style="stroke: #000000; stroke-width: 0.8"/>
      </g>
     </g>
     <g id="text_9">
      <!-- 0 -->
      <g transform="translate(35.8725 348.196406) scale(0.1 -0.1)">
       <use xlink:href="#DejaVuSans-30"/>
      </g>
     </g>
    </g>
    <g id="ytick_2">
     <g id="line2d_9">
      <g>
       <use xlink:href="#m74c04b4f01" x="49.235" y="298.579006" style="stroke: #000000; stroke-width: 0.8"/>
      </g>
     </g>
     <g id="text_10">
      <!-- 100 -->
      <g transform="translate(23.1475 302.378224) scale(0.1 -0.1)">
       <use xlink:href="#DejaVuSans-31"/>
       <use xlink:href="#DejaVuSans-30" x="63.623047"/>
       <use xlink:href="#DejaVuSans-30" x="127.246094"/>
      </g>
     </g>
    </g>
    <g id="ytick_3">
     <g id="line2d_10">
      <g>
       <use xlink:href="#m74c04b4f01" x="49.235" y="252.760824" style="stroke: #000000; stroke-width: 0.8"/>
      </g>
     </g>
     <g id="text_11">
      <!-- 200 -->
      <g transform="translate(23.1475 256.560043) scale(0.1 -0.1)">
       <use xlink:href="#DejaVuSans-32"/>
       <use xlink:href="#DejaVuSans-30" x="63.623047"/>
       <use xlink:href="#DejaVuSans-30" x="127.246094"/>
      </g>
     </g>
    </g>
    <g id="ytick_4">
     <g id="line2d_11">
      <g>
       <use xlink:href="#m74c04b4f01" x="49.235" y="206.942642" style="stroke: #000000; stroke-width: 0.8"/>
      </g>
     </g>
     <g id="text_12">
      <!-- 300 -->
      <g transform="translate(23.1475 210.741861) scale(0.1 -0.1)">
       <use xlink:href="#DejaVuSans-33"/>
       <use xlink:href="#DejaVuSans-30" x="63.623047"/>
       <use xlink:href="#DejaVuSans-30" x="127.246094"/>
      </g>
     </g>
    </g>
    <g id="ytick_5">
     <g id="line2d_12">
      <g>
       <use xlink:href="#m74c04b4f01" x="49.235" y="161.12446" style="stroke: #000000; stroke-width: 0.8"/>
      </g>
     </g>
     <g id="text_13">
      <!-- 400 -->
      <g transform="translate(23.1475 164.923679) scale(0.1 -0.1)">
       <use xlink:href="#DejaVuSans-34"/>
       <use xlink:href="#DejaVuSans-30" x="63.623047"/>
       <use xlink:href="#DejaVuSans-30" x="127.246094"/>
      </g>
     </g>
    </g>
    <g id="ytick_6">
     <g id="line2d_13">
      <g>
       <use xlink:href="#m74c04b4f01" x="49.235" y="115.306278" style="stroke: #000000; stroke-width: 0.8"/>
      </g>
     </g>
     <g id="text_14">
      <!-- 500 -->
      <g transform="translate(23.1475 119.105497) scale(0.1 -0.1)">
       <use xlink:href="#DejaVuSans-35"/>
       <use xlink:href="#DejaVuSans-30" x="63.623047"/>
       <use xlink:href="#DejaVuSans-30" x="127.246094"/>
      </g>
     </g>
    </g>
    <g id="ytick_7">
     <g id="line2d_14">
      <g>
       <use xlink:href="#m74c04b4f01" x="49.235" y="69.488097" style="stroke: #000000; stroke-width: 0.8"/>
      </g>
     </g>
     <g id="text_15">
      <!-- 600 -->
      <g transform="translate(23.1475 73.287315) scale(0.1 -0.1)">
       <use xlink:href="#DejaVuSans-36"/>
       <use xlink:href="#DejaVuSans-30" x="63.623047"/>
       <use xlink:href="#DejaVuSans-30" x="127.246094"/>
      </g>
     </g>
    </g>
    <g id="text_16">
     <!-- Pellet_Count -->
     <g transform="translate(16.318125 230.485312) rotate(-90) scale(0.12 -0.12)">
      <defs>
       <path id="DejaVuSans-50" d="M 1259 4147 
L 1259 2394 
L 2053 2394 
Q 2494 2394 2734 2622 
Q 2975 2850 2975 3272 
Q 2975 3691 2734 3919 
Q 2494 4147 2053 4147 
L 1259 4147 
z
M 628 4666 
L 2053 4666 
Q 2838 4666 3239 4311 
Q 3641 3956 3641 3272 
Q 3641 2581 3239 2228 
Q 2838 1875 2053 1875 
L 1259 1875 
L 1259 0 
L 628 0 
L 628 4666 
z
" transform="scale(0.015625)"/>
       <path id="DejaVuSans-6c" d="M 603 4863 
L 1178 4863 
L 1178 0 
L 603 0 
L 603 4863 
z
" transform="scale(0.015625)"/>
       <path id="DejaVuSans-74" d="M 1172 4494 
L 1172 3500 
L 2356 3500 
L 2356 3053 
L 1172 3053 
L 1172 1153 
Q 1172 725 1289 603 
Q 1406 481 1766 481 
L 2356 481 
L 2356 0 
L 1766 0 
Q 1100 0 847 248 
Q 594 497 594 1153 
L 594 3053 
L 172 3053 
L 172 3500 
L 594 3500 
L 594 4494 
L 1172 4494 
z
" transform="scale(0.015625)"/>
       <path id="DejaVuSans-5f" d="M 3263 -1063 
L 3263 -1509 
L -63 -1509 
L -63 -1063 
L 3263 -1063 
z
" transform="scale(0.015625)"/>
       <path id="DejaVuSans-43" d="M 4122 4306 
L 4122 3641 
Q 3803 3938 3442 4084 
Q 3081 4231 2675 4231 
Q 1875 4231 1450 3742 
Q 1025 3253 1025 2328 
Q 1025 1406 1450 917 
Q 1875 428 2675 428 
Q 3081 428 3442 575 
Q 3803 722 4122 1019 
L 4122 359 
Q 3791 134 3420 21 
Q 3050 -91 2638 -91 
Q 1578 -91 968 557 
Q 359 1206 359 2328 
Q 359 3453 968 4101 
Q 1578 4750 2638 4750 
Q 3056 4750 3426 4639 
Q 3797 4528 4122 4306 
z
" transform="scale(0.015625)"/>
       <path id="DejaVuSans-6f" d="M 1959 3097 
Q 1497 3097 1228 2736 
Q 959 2375 959 1747 
Q 959 1119 1226 758 
Q 1494 397 1959 397 
Q 2419 397 2687 759 
Q 2956 1122 2956 1747 
Q 2956 2369 2687 2733 
Q 2419 3097 1959 3097 
z
M 1959 3584 
Q 2709 3584 3137 3096 
Q 3566 2609 3566 1747 
Q 3566 888 3137 398 
Q 2709 -91 1959 -91 
Q 1206 -91 779 398 
Q 353 888 353 1747 
Q 353 2609 779 3096 
Q 1206 3584 1959 3584 
z
" transform="scale(0.015625)"/>
       <path id="DejaVuSans-75" d="M 544 1381 
L 544 3500 
L 1119 3500 
L 1119 1403 
Q 1119 906 1312 657 
Q 1506 409 1894 409 
Q 2359 409 2629 706 
Q 2900 1003 2900 1516 
L 2900 3500 
L 3475 3500 
L 3475 0 
L 2900 0 
L 2900 538 
Q 2691 219 2414 64 
Q 2138 -91 1772 -91 
Q 1169 -91 856 284 
Q 544 659 544 1381 
z
M 1991 3584 
L 1991 3584 
z
" transform="scale(0.015625)"/>
       <path id="DejaVuSans-6e" d="M 3513 2113 
L 3513 0 
L 2938 0 
L 2938 2094 
Q 2938 2591 2744 2837 
Q 2550 3084 2163 3084 
Q 1697 3084 1428 2787 
Q 1159 2491 1159 1978 
L 1159 0 
L 581 0 
L 581 3500 
L 1159 3500 
L 1159 2956 
Q 1366 3272 1645 3428 
Q 1925 3584 2291 3584 
Q 2894 3584 3203 3211 
Q 3513 2838 3513 2113 
z
" transform="scale(0.015625)"/>
      </defs>
      <use xlink:href="#DejaVuSans-50"/>
      <use xlink:href="#DejaVuSans-65" x="56.677734"/>
      <use xlink:href="#DejaVuSans-6c" x="118.201172"/>
      <use xlink:href="#DejaVuSans-6c" x="145.984375"/>
      <use xlink:href="#DejaVuSans-65" x="173.767578"/>
      <use xlink:href="#DejaVuSans-74" x="235.291016"/>
      <use xlink:href="#DejaVuSans-5f" x="274.5"/>
      <use xlink:href="#DejaVuSans-43" x="324.5"/>
      <use xlink:href="#DejaVuSans-6f" x="394.324219"/>
      <use xlink:href="#DejaVuSans-75" x="455.505859"/>
      <use xlink:href="#DejaVuSans-6e" x="518.884766"/>
      <use xlink:href="#DejaVuSans-74" x="582.263672"/>
     </g>
    </g>
   </g>
   <g id="line2d_15">
    <path d="M 99.962273 344.397187 
L 107.808207 344.397187 
L 107.812012 343.939006 
L 107.983237 343.939006 
L 108.074557 343.480824 
L 108.177293 343.480824 
L 108.207733 343.022642 
L 108.923075 343.022642 
L 109.022005 342.56446 
L 109.242696 342.56446 
L 109.387286 342.106278 
L 109.417726 342.106278 
L 109.432947 341.648097 
L 111.502873 341.648097 
L 111.510483 341.189915 
L 112.12309 341.189915 
L 112.1307 340.731733 
L 112.370415 340.731733 
L 112.503591 339.815369 
L 112.857457 339.815369 
L 112.861262 339.357187 
L 113.043903 339.357187 
L 113.051513 338.899006 
L 113.188493 338.899006 
L 113.188493 338.899006 
L 113.207518 338.440824 
L 113.660314 338.440824 
L 113.660314 338.440824 
L 113.789685 337.52446 
L 113.957105 337.52446 
L 114.033206 336.608097 
L 114.512637 336.608097 
L 114.512637 336.608097 
L 114.607762 335.691733 
L 114.763768 335.691733 
L 114.767573 335.233551 
L 115.106219 335.233551 
L 115.186124 334.317187 
L 115.345934 334.317187 
L 115.42584 333.400824 
L 115.52477 333.400824 
L 115.536185 332.942642 
L 115.920491 332.942642 
L 115.928101 332.48446 
L 122.065585 332.48446 
L 122.16071 331.568097 
L 122.369986 331.568097 
L 122.377596 331.109915 
L 122.514576 331.109915 
L 122.525991 330.651733 
L 124.858463 330.651733 
L 124.862268 330.193551 
L 125.771666 330.193551 
L 125.786886 329.735369 
L 127.613292 329.735369 
L 127.617097 329.277187 
L 128.241119 329.277187 
L 128.343854 328.360824 
L 128.610205 328.360824 
L 128.71294 327.44446 
L 128.884166 327.44446 
L 129.002121 326.528097 
L 129.470137 326.528097 
L 129.470137 326.528097 
L 129.485357 326.069915 
L 129.648973 326.069915 
L 129.892494 325.611733 
L 130.862772 325.611733 
L 130.957897 325.153551 
L 130.988337 325.153551 
L 131.094877 324.237187 
L 131.209028 324.237187 
L 131.212833 323.779006 
L 133.138169 323.779006 
L 133.141974 323.320824 
L 133.259929 323.320824 
L 133.374079 322.40446 
L 133.453985 322.40446 
L 133.4654 321.946278 
L 134.641148 321.946278 
L 134.751493 321.029915 
L 134.903694 321.029915 
L 134.911304 320.571733 
L 135.1358 320.571733 
L 135.26517 319.655369 
L 135.965292 319.655369 
L 135.969097 319.197187 
L 136.094663 319.197187 
L 136.208813 318.280824 
L 136.300133 318.280824 
L 136.303938 317.822642 
L 137.829748 317.822642 
L 137.829748 317.822642 
L 137.928678 316.906278 
L 138.000973 316.906278 
L 138.099904 315.989915 
L 138.187419 315.989915 
L 138.290154 315.073551 
L 138.59836 315.073551 
L 138.609775 314.615369 
L 139.233797 314.615369 
L 139.424048 314.157187 
L 142.361517 314.157187 
L 142.369127 313.699006 
L 143.628585 313.699006 
L 143.704686 313.240824 
L 143.807421 312.782642 
L 148.190794 312.782642 
L 148.198404 312.32446 
L 148.47617 312.32446 
L 148.52944 311.866278 
L 148.734911 311.866278 
L 148.871891 310.949915 
L 150.03242 310.949915 
L 150.268331 310.491733 
L 150.283551 310.033551 
L 151.459299 310.033551 
L 151.56584 309.117187 
L 151.64194 309.117187 
L 151.737065 308.200824 
L 152.011026 308.200824 
L 152.132786 307.28446 
L 152.654073 307.28446 
L 152.772028 305.909915 
L 152.893789 305.909915 
L 152.988914 304.993551 
L 153.106869 304.993551 
L 153.209605 304.077187 
L 153.293315 304.077187 
L 153.308535 303.619006 
L 153.422685 303.619006 
L 153.430295 303.160824 
L 153.631961 303.160824 
L 153.662401 302.702642 
L 155.374656 302.702642 
L 155.477392 302.24446 
L 156.352544 302.24446 
L 156.356349 301.786278 
L 157.368482 301.786278 
L 157.376092 301.328097 
L 157.612003 301.328097 
L 157.699518 300.411733 
L 157.817474 300.411733 
L 157.821279 299.953551 
L 160.998463 299.953551 
L 161.009878 299.495369 
L 162.592763 299.495369 
L 162.596568 299.037187 
L 163.04556 299.037187 
L 163.06078 298.579006 
L 165.438912 298.579006 
L 165.450327 298.120824 
L 165.948783 298.120824 
L 166.055324 297.662642 
L 166.078154 297.662642 
L 166.177084 297.20446 
L 167.923584 297.20446 
L 167.927389 296.746278 
L 168.734052 296.746278 
L 168.734052 296.746278 
L 168.753077 296.288097 
L 169.300999 296.288097 
L 169.361879 295.829915 
L 170.100051 295.829915 
L 170.210396 295.371733 
L 170.335962 295.371733 
L 171.081744 294.913551 
L 171.656301 294.913551 
L 171.827526 294.455369 
L 172.162367 294.455369 
L 172.169977 293.997187 
L 173.13645 293.997187 
L 173.14406 293.539006 
L 183.303441 293.539006 
L 183.311051 293.080824 
L 183.550767 293.080824 
L 183.558377 292.622642 
L 183.904633 292.622642 
L 183.976928 291.706278 
L 184.056833 291.706278 
L 184.148154 290.789915 
L 184.319379 290.789915 
L 184.326989 290.331733 
L 185.506543 290.331733 
L 185.586448 289.415369 
L 185.670158 289.415369 
L 185.677768 288.957187 
L 197.442864 288.957187 
L 197.557014 288.040824 
L 198.919209 288.040824 
L 212.51832 287.582642 
L 212.522125 287.12446 
L 214.375166 287.12446 
L 214.378971 286.666278 
L 214.504536 286.666278 
L 214.512146 286.208097 
L 215.467204 286.208097 
L 215.471009 285.749915 
L 215.619404 285.749915 
L 215.733555 285.291733 
L 215.7678 285.291733 
L 215.7678 285.291733 
L 215.78302 284.833551 
L 216.623927 284.833551 
L 216.639147 284.375369 
L 217.000624 284.375369 
L 217.110969 283.459006 
L 217.202289 283.459006 
L 217.206094 283.000824 
L 217.33166 283.000824 
L 217.426785 282.08446 
L 218.457943 282.08446 
L 218.473163 281.626278 
L 219.869602 281.626278 
L 219.873407 281.168097 
L 220.154978 281.168097 
L 220.162588 280.709915 
L 220.88554 280.709915 
L 220.889345 280.251733 
L 221.167111 280.251733 
L 221.288872 279.335369 
L 221.383997 279.335369 
L 221.471512 278.419006 
L 223.842034 278.419006 
L 223.849644 277.960824 
L 225.272719 277.960824 
L 225.394479 277.502642 
L 228.845625 277.502642 
L 228.944555 276.586278 
L 229.111975 276.586278 
L 229.199491 275.669915 
L 229.328861 275.669915 
L 229.443011 274.753551 
L 245.869246 274.753551 
L 245.876856 274.295369 
L 246.074717 274.295369 
L 246.253553 272.920824 
L 246.337263 272.920824 
L 246.432388 272.00446 
L 246.576978 272.00446 
L 246.91182 271.546278 
L 247.402666 271.546278 
L 247.406471 271.088097 
L 247.996248 271.088097 
L 248.003858 270.629915 
L 249.799823 270.629915 
L 249.993879 270.171733 
L 263.566355 270.171733 
L 263.573965 269.713551 
L 263.707141 269.713551 
L 263.787046 269.255369 
L 266.496214 269.255369 
L 266.621779 268.797187 
L 266.648415 268.797187 
L 266.656025 268.339006 
L 286.64375 268.339006 
L 286.738876 267.880824 
L 289.246378 267.880824 
L 289.250183 267.422642 
L 308.986778 267.422642 
L 309.104734 266.506278 
L 309.230299 266.506278 
L 309.237909 266.048097 
L 337.128644 266.048097 
L 337.242794 265.589915 
L 337.269429 265.589915 
L 337.273234 265.131733 
L 337.433045 265.131733 
L 337.440655 264.673551 
L 337.954331 264.673551 
L 337.965746 264.215369 
L 338.437568 264.215369 
L 338.460398 263.757187 
L 338.604988 263.757187 
L 338.627818 263.299006 
L 368.158513 263.299006 
L 368.166123 262.840824 
L 368.383009 262.840824 
L 368.390619 262.382642 
L 368.516184 262.382642 
L 368.622725 261.466278 
L 372.138555 261.466278 
L 372.245096 260.549915 
L 372.351636 260.549915 
L 372.427736 259.633551 
L 375.106464 259.633551 
L 375.235835 258.717187 
L 375.3614 258.717187 
L 375.47555 257.800824 
L 388.51152 257.800824 
L 388.51913 257.342642 
L 388.888216 257.342642 
L 388.892021 256.88446 
L 389.146957 256.88446 
L 389.154567 256.426278 
L 390.18192 256.426278 
L 390.22758 255.968097 
L 391.947445 255.968097 
L 392.065401 255.051733 
L 392.689423 255.051733 
L 392.792158 254.135369 
L 406.62718 254.135369 
L 406.72611 253.219006 
L 406.840261 253.219006 
L 406.950606 252.760824 
L 406.973436 252.760824 
L 407.072366 252.302642 
L 407.441453 252.302642 
L 407.445258 251.84446 
L 408.29758 251.84446 
L 408.32041 251.386278 
L 408.514466 251.386278 
L 408.522076 250.928097 
L 408.727546 250.928097 
L 408.742767 250.469915 
L 409.97559 250.469915 
L 410.063106 250.011733 
L 410.337066 250.011733 
L 410.477852 249.553551 
L 413.17941 249.553551 
L 413.282145 248.637187 
L 413.411516 248.637187 
L 413.415321 248.179006 
L 413.540886 248.179006 
L 413.628401 247.262642 
L 425.990884 247.262642 
L 426.097424 246.80446 
L 426.348555 246.80446 
L 426.35236 246.346278 
L 427.604209 246.346278 
L 427.608014 245.888097 
L 427.84012 245.888097 
L 427.942855 244.971733 
L 428.09125 244.971733 
L 428.095055 244.513551 
L 431.496736 244.513551 
L 431.527176 244.055369 
L 434.023263 244.055369 
L 434.068924 243.597187 
L 434.40757 243.597187 
L 434.51411 243.139006 
L 435.073447 243.139006 
L 435.081057 242.680824 
L 435.579513 242.680824 
L 435.663223 242.222642 
L 435.735519 242.222642 
L 435.739324 241.76446 
L 435.979039 241.76446 
L 436.081775 241.306278 
L 436.941707 241.306278 
L 437.048248 240.389915 
L 438.147896 240.389915 
L 438.265851 239.473551 
L 438.338147 239.473551 
L 438.349562 239.015369 
L 444.605001 239.015369 
L 444.608806 238.557187 
L 446.480871 238.557187 
L 446.480871 238.557187 
L 446.564582 237.640824 
L 446.640682 237.640824 
L 446.747222 236.72446 
L 446.861372 236.72446 
L 446.865177 236.266278 
L 447.340804 236.266278 
L 447.344609 235.808097 
L 447.569105 235.808097 
L 447.57291 235.349915 
L 449.593371 235.349915 
L 449.692301 234.433551 
L 449.779816 234.433551 
L 449.897772 233.517187 
L 449.962457 233.517187 
L 449.966262 233.059006 
L 450.468523 233.059006 
L 450.476133 232.600824 
L 453.657123 232.600824 
L 453.752248 231.68446 
L 458.550368 231.68446 
L 458.645493 230.768097 
L 458.717788 230.768097 
L 458.828134 229.851733 
L 458.961309 229.851733 
L 459.071655 229.393551 
L 459.09829 229.393551 
L 459.20483 228.935369 
L 459.223855 228.935369 
L 459.223855 228.935369 
L 459.246685 228.477187 
L 459.547281 228.477187 
L 459.661431 227.560824 
L 463.085942 227.560824 
L 463.192482 226.64446 
L 463.272387 226.64446 
L 463.348488 225.728097 
L 463.420783 225.728097 
L 463.420783 225.728097 
L 463.584398 224.353551 
L 463.652888 224.353551 
L 463.740404 223.437187 
L 464.07905 223.437187 
L 464.1932 222.979006 
L 464.21603 222.979006 
L 464.21603 222.979006 
L 464.235055 222.520824 
L 470.186093 222.520824 
L 470.273609 221.60446 
L 470.58562 221.60446 
L 470.589425 221.146278 
L 471.141151 221.146278 
L 471.148761 220.688097 
L 471.289547 220.688097 
L 471.297157 220.229915 
L 471.738538 220.229915 
L 471.826053 218.855369 
L 472.38539 218.855369 
L 472.49954 218.397187 
L 472.549006 218.397187 
L 472.647936 217.939006 
L 476.042006 217.939006 
L 476.711688 215.189915 
L 476.715493 214.731733 
L 476.860084 214.731733 
L 476.928574 213.815369 
L 477.000869 213.815369 
L 477.092189 212.899006 
L 477.704796 212.899006 
L 477.917877 212.440824 
L 478.785419 212.440824 
L 479.595887 211.982642 
L 479.873653 211.982642 
L 479.983998 211.066278 
L 480.006828 211.066278 
L 480.006828 210.608097 
L 480.162834 210.608097 
L 480.250349 209.691733 
L 480.353084 209.691733 
L 480.368304 209.233551 
L 480.855346 209.233551 
L 480.859151 208.775369 
L 480.992326 208.775369 
L 481.083646 207.859006 
L 481.662008 207.859006 
L 481.760939 206.942642 
L 483.419924 206.942642 
L 483.507439 206.026278 
L 483.762375 206.026278 
L 484.161901 205.568097 
L 484.165706 205.109915 
L 484.314101 205.109915 
L 484.413032 204.193551 
L 484.492937 204.193551 
L 484.591867 203.277187 
L 484.679382 203.277187 
L 484.686992 202.819006 
L 485.988306 202.819006 
L 486.083432 202.360824 
L 487.460846 202.360824 
L 489.036121 201.902642 
L 489.534577 201.902642 
L 489.614482 200.986278 
L 489.705803 200.986278 
L 489.797123 200.069915 
L 489.865613 200.069915 
L 489.945518 199.153551 
L 490.048254 199.153551 
L 490.052059 198.695369 
L 490.32602 198.695369 
L 490.33363 198.237187 
L 490.691301 198.237187 
L 490.790231 197.320824 
L 490.866331 197.320824 
L 490.870136 196.862642 
L 492.921037 196.862642 
L 492.928647 196.40446 
L 494.477287 196.40446 
L 494.606658 195.488097 
L 494.732223 195.488097 
L 494.815933 194.571733 
L 494.918669 194.571733 
L 495.013794 194.113551 
L 495.070869 194.113551 
L 495.105114 193.197187 
L 502.715137 193.197187 
L 502.722747 192.739006 
L 503.114663 192.739006 
L 503.213594 192.280824 
L 503.339159 191.822642 
L 509.099947 191.822642 
L 509.103752 191.36446 
L 509.240732 191.36446 
L 509.343467 190.448097 
L 509.522303 190.448097 
L 509.526108 189.989915 
L 510.005539 189.989915 
L 510.214815 189.531733 
L 512.364647 189.531733 
L 512.368452 189.073551 
L 512.482602 189.073551 
L 512.505432 188.157187 
L 514.552528 188.157187 
L 514.662874 187.699006 
L 515.789157 187.699006 
L 515.800572 187.240824 
L 517.980844 187.240824 
L 517.984649 186.782642 
L 524.034617 186.782642 
L 524.163987 186.32446 
L 527.961389 186.32446 
L 527.968999 185.866278 
L 528.098369 185.866278 
L 528.109784 185.408097 
L 529.110502 185.408097 
L 530.514552 184.949915 
L 533.413971 184.949915 
L 533.413971 184.949915 
L 533.543341 184.033551 
L 535.989963 184.033551 
L 536.096504 183.575369 
L 536.290559 183.575369 
L 536.45037 183.117187 
L 540.384752 183.117187 
L 540.495097 182.200824 
L 540.586417 182.200824 
L 540.601637 181.742642 
L 540.750033 181.742642 
L 540.864183 180.826278 
L 541.899146 180.826278 
L 541.902951 180.368097 
L 542.066567 180.368097 
L 542.146472 179.451733 
L 542.553608 179.451733 
L 542.553608 179.451733 
L 542.568828 178.993551 
L 544.189763 178.993551 
L 544.204983 178.535369 
L 552.374343 178.535369 
L 552.381953 178.077187 
L 556.049984 178.077187 
L 556.057594 177.619006 
L 556.483756 177.619006 
L 570.082867 177.160824 
L 570.086672 176.702642 
L 570.246483 176.702642 
L 570.257898 176.24446 
L 570.478588 176.24446 
L 570.486198 175.786278 
L 571.243396 175.786278 
L 571.251006 175.328097 
L 574.770641 175.328097 
L 574.774446 174.869915 
L 575.101677 174.869915 
L 575.212023 173.953551 
L 575.310953 173.953551 
L 575.432713 173.037187 
L 575.543059 173.037187 
L 575.554474 172.579006 
L 577.483615 172.579006 
L 577.590155 172.120824 
L 591.052286 172.120824 
L 591.056091 171.662642 
L 593.080357 171.662642 
L 593.091772 171.20446 
L 593.982145 171.20446 
L 594.18381 170.746278 
L 601.078491 170.746278 
L 601.086101 170.288097 
L 603.312033 170.288097 
L 603.312033 170.288097 
L 603.418573 169.371733 
L 603.494674 169.371733 
L 603.585994 168.455369 
L 603.677314 168.455369 
L 603.764829 167.539006 
L 603.844735 167.539006 
L 603.943665 166.622642 
L 604.03118 166.622642 
L 604.03879 166.16446 
L 621.480963 166.16446 
L 621.842439 164.331733 
L 622.953503 164.331733 
L 623.421519 163.873551 
L 625.065284 163.873551 
L 625.065284 163.873551 
L 625.080504 163.415369 
L 642.130761 163.415369 
L 642.138371 162.957187 
L 643.169529 162.957187 
L 643.173334 162.499006 
L 657.114897 162.499006 
L 657.126312 162.040824 
L 657.339392 162.040824 
L 657.453543 161.12446 
L 660.931323 161.12446 
L 660.957958 160.666278 
L 672.848619 160.666278 
L 672.95516 159.749915 
L 673.259561 159.749915 
L 673.263366 159.291733 
L 673.400346 159.291733 
L 673.404151 158.833551 
L 675.656718 158.833551 
L 675.668133 158.375369 
L 689.51457 158.375369 
L 689.518375 157.917187 
L 691.089845 157.917187 
L 691.097455 157.459006 
L 708.060197 157.459006 
L 710.324178 157.000824 
L 711.922283 157.000824 
L 712.032629 156.542642 
L 712.047849 156.542642 
L 712.161999 155.626278 
L 712.35225 155.626278 
L 712.356055 155.168097 
L 712.477815 155.168097 
L 712.48162 154.709915 
L 712.61099 154.709915 
L 712.713726 153.793551 
L 712.805046 153.793551 
L 712.812656 153.335369 
L 714.966293 153.335369 
L 715.183178 152.877187 
L 715.674025 152.877187 
L 716.252386 152.419006 
L 717.138954 152.419006 
L 717.724926 151.960824 
L 718.756084 151.960824 
L 718.881649 151.502642 
L 729.767788 151.502642 
L 729.775398 151.04446 
L 729.904768 151.04446 
L 729.980868 150.128097 
L 730.045553 150.128097 
L 730.155899 149.669915 
L 731.084322 149.669915 
L 731.095737 149.211733 
L 739.291731 149.211733 
L 739.295537 148.753551 
L 739.459152 148.753551 
L 739.637988 148.295369 
L 739.793993 148.295369 
L 739.892923 147.379006 
L 739.972829 147.379006 
L 740.075564 146.462642 
L 740.178299 146.462642 
L 740.182104 146.00446 
L 741.624204 146.00446 
L 748.115553 145.546278 
L 755.805482 145.546278 
L 755.809287 145.088097 
L 755.965292 145.088097 
L 756.056612 144.171733 
L 756.159348 144.171733 
L 756.254473 143.713551 
L 756.440919 142.797187 
L 756.650194 142.797187 
L 756.653999 142.339006 
L 768.000544 142.339006 
L 768.004349 141.880824 
L 768.225039 141.880824 
L 768.320165 140.96446 
L 768.441925 140.96446 
L 768.52944 140.048097 
L 768.613151 140.048097 
L 768.746326 139.131733 
L 768.875696 139.131733 
L 768.883306 138.673551 
L 778.373005 138.673551 
L 778.388225 138.215369 
L 778.586086 138.215369 
L 778.681211 137.299006 
L 778.852437 137.299006 
L 778.966587 136.382642 
L 779.054102 136.382642 
L 779.164448 135.92446 
L 779.183473 135.466278 
L 779.845545 135.466278 
L 779.94067 135.008097 
L 780.237461 135.008097 
L 780.770163 134.549915 
L 786.945696 134.549915 
L 787.052237 133.633551 
L 787.291952 133.633551 
L 787.413713 132.717187 
L 787.489813 132.717187 
L 787.588743 131.800824 
L 787.676259 131.800824 
L 787.680064 131.342642 
L 789.095528 131.342642 
L 789.403734 130.88446 
L 794.148583 130.88446 
L 794.152388 130.426278 
L 794.384494 130.426278 
L 794.472009 129.509915 
L 794.56333 129.509915 
L 794.574745 129.051733 
L 796.671306 129.051733 
L 796.758821 128.135369 
L 796.842531 128.135369 
L 796.937657 127.219006 
L 799.825661 127.219006 
L 799.920786 126.760824 
L 800.917699 126.760824 
L 800.925309 126.302642 
L 801.26015 126.302642 
L 802.188573 125.84446 
L 804.030198 125.84446 
L 804.034003 125.386278 
L 804.174789 125.386278 
L 804.178594 124.928097 
L 805.164092 124.928097 
L 805.167897 124.469915 
L 805.681573 124.469915 
L 805.845189 124.011733 
L 807.135088 124.011733 
L 807.245433 123.553551 
L 807.298703 123.553551 
L 807.370998 122.637187 
L 807.447099 122.637187 
L 807.450904 122.179006 
L 808.946273 122.179006 
L 808.957688 121.720824 
L 809.303944 121.720824 
L 809.36863 121.262642 
L 809.48278 121.262642 
L 809.494195 120.80446 
L 811.887547 120.80446 
L 812.001698 119.888097 
L 812.073993 119.888097 
L 812.085408 119.429915 
L 814.136309 119.429915 
L 814.227629 118.513551 
L 814.29612 118.513551 
L 814.40266 117.597187 
L 814.47115 117.597187 
L 814.54725 116.680824 
L 815.365328 116.680824 
L 815.468063 116.222642 
L 816.788402 116.222642 
L 816.792207 115.76446 
L 817.59126 115.76446 
L 817.59887 115.306278 
L 818.538707 115.306278 
L 818.546317 114.848097 
L 819.611721 114.848097 
L 819.695431 113.931733 
L 821.502811 113.931733 
L 821.514226 113.473551 
L 821.970828 113.473551 
L 822.073563 112.557187 
L 822.301864 112.557187 
L 822.396989 111.640824 
L 822.484504 111.640824 
L 822.59485 111.182642 
L 822.61768 111.182642 
L 822.61768 111.182642 
L 822.697585 110.266278 
L 822.766075 110.266278 
L 822.76988 109.808097 
L 823.439562 109.808097 
L 823.443367 109.349915 
L 824.881662 109.349915 
L 824.988202 108.891733 
L 826.304736 108.891733 
L 826.369421 108.433551 
L 827.46907 108.433551 
L 827.472875 107.975369 
L 828.644818 107.975369 
L 828.705698 107.517187 
L 829.436261 107.517187 
L 829.618901 107.059006 
L 831.829613 107.059006 
L 831.932348 106.142642 
L 831.981813 106.142642 
L 831.997033 105.68446 
L 832.183479 105.68446 
L 832.259579 104.768097 
L 832.712376 104.768097 
L 832.860771 104.309915 
L 837.263169 104.309915 
L 837.263169 103.851733 
L 837.274584 103.851733 
L 838.275302 103.851733 
L 838.370428 102.935369 
L 838.560678 102.935369 
L 838.667219 101.560824 
L 838.743319 101.560824 
L 838.743319 101.560824 
L 838.819419 100.64446 
L 838.903129 100.64446 
L 838.952594 99.728097 
L 839.24558 99.728097 
L 839.725012 99.269915 
L 839.728817 98.811733 
L 856.805709 98.811733 
L 856.923664 98.353551 
L 857.494416 98.353551 
L 870.119444 97.895369 
L 870.241205 96.979006 
L 870.477115 96.979006 
L 870.553216 96.062642 
L 871.527299 96.062642 
L 871.641449 95.146278 
L 871.706134 95.146278 
L 871.709939 94.688097 
L 875.282845 94.688097 
L 875.36275 93.771733 
L 875.457875 93.771733 
L 875.530171 92.855369 
L 875.606271 92.855369 
L 875.697591 92.397187 
L 879.886909 92.397187 
L 879.985839 91.939006 
L 880.868602 91.939006 
L 880.990362 91.022642 
L 881.047437 91.022642 
L 881.047437 91.022642 
L 881.142563 90.106278 
L 881.203443 90.106278 
L 881.275738 89.189915 
L 881.340423 89.189915 
L 881.405109 88.273551 
L 882.162306 88.273551 
L 882.253626 87.357187 
L 885.26339 87.357187 
L 885.267195 86.899006 
L 898.017789 86.899006 
L 898.025399 86.440824 
L 898.432535 86.440824 
L 898.43634 85.982642 
L 908.3522 85.982642 
L 908.356006 85.52446 
L 908.470156 85.52446 
L 908.477766 85.066278 
L 908.607136 85.066278 
L 908.610941 84.608097 
L 910.277536 84.608097 
L 910.285146 84.149915 
L 912.766014 84.149915 
L 912.861139 83.233551 
L 912.937239 83.233551 
L 912.937239 83.233551 
L 913.02095 82.317187 
L 913.093245 82.317187 
L 913.169345 81.400824 
L 913.25686 81.400824 
L 913.363401 80.942642 
L 927.126128 80.942642 
L 927.129933 80.48446 
L 927.453359 80.48446 
L 927.559899 79.568097 
L 927.635999 79.568097 
L 927.635999 79.568097 
L 927.761565 78.651733 
L 927.845275 78.651733 
L 927.94801 78.193551 
L 930.874064 78.193551 
L 930.893089 77.735369 
L 940.725239 77.735369 
L 940.831779 77.277187 
L 954.868467 77.277187 
L 955.454439 76.819006 
L 956.789998 76.819006 
L 956.892733 76.360824 
L 956.942198 76.360824 
L 957.029713 75.44446 
L 959.913912 75.44446 
L 959.921522 74.986278 
L 960.069918 74.986278 
L 960.073723 74.528097 
L 960.191678 74.528097 
L 960.195483 74.069915 
L 969.239996 74.069915 
L 969.316096 73.153551 
L 969.388391 73.153551 
L 969.388391 73.153551 
L 969.479711 72.237187 
L 969.536787 72.237187 
L 969.544397 71.779006 
L 969.959143 71.779006 
L 970.453794 71.320824 
L 990.44913 71.320824 
L 990.551865 70.40446 
L 990.666016 70.40446 
L 990.730701 69.488097 
L 1019.698254 69.488097 
L 1019.808599 68.571733 
L 1020.025485 68.571733 
L 1020.113 67.655369 
L 1020.204321 67.655369 
L 1020.322276 67.197187 
L 1020.322276 67.197187 
L 1020.440231 66.280824 
L 1024.138703 66.280824 
L 1024.88068 65.822642 
L 1024.94156 65.36446 
L 1032.981549 65.36446 
L 1032.985354 64.906278 
L 1033.122335 64.906278 
L 1033.20224 63.989915 
L 1033.289755 63.989915 
L 1033.388686 63.073551 
L 1033.464786 63.073551 
L 1033.468591 62.615369 
L 1044.815135 62.615369 
L 1044.917871 62.157187 
L 1044.948311 62.157187 
L 1045.054851 61.240824 
L 1045.130951 61.240824 
L 1045.226077 60.32446 
L 1045.325007 60.32446 
L 1045.328812 59.866278 
L 1061.739827 59.866278 
L 1061.743632 59.408097 
L 1061.869197 59.408097 
L 1061.873002 58.949915 
L 1066.777662 58.949915 
L 1066.872787 58.491733 
L 1067.040208 58.491733 
L 1067.150553 58.033551 
L 1076.701132 58.033551 
L 1076.800063 57.117187 
L 1076.872358 57.117187 
L 1076.978898 56.200824 
L 1077.081633 56.200824 
L 1077.089244 55.742642 
L 1078.382947 55.742642 
L 1078.386752 55.28446 
L 1087.606295 55.28446 
L 1087.6101 54.826278 
L 1087.739471 54.826278 
L 1087.849816 53.909915 
L 1087.922111 53.909915 
L 1088.021042 52.993551 
L 1088.100947 52.993551 
L 1088.177047 52.077187 
L 1099.03655 52.077187 
L 1099.116455 51.160824 
L 1099.181141 51.160824 
L 1099.295291 49.786278 
L 1099.371391 49.786278 
L 1099.417051 48.869915 
L 1099.603497 48.869915 
L 1099.607302 48.411733 
L 1110.090109 48.411733 
L 1110.131964 47.495369 
L 1110.234699 47.495369 
L 1110.238504 47.037187 
L 1110.436365 47.037187 
L 1110.44017 46.579006 
L 1112.205695 46.579006 
L 1112.308431 45.662642 
L 1112.380726 45.662642 
L 1112.388336 45.20446 
L 1112.536731 45.20446 
L 1112.631857 43.829915 
L 1112.700347 43.829915 
L 1112.795472 42.913551 
L 1112.863962 42.913551 
L 1112.863962 42.913551 
L 1112.955283 41.997187 
L 1112.955283 41.997187 
" clip-path="url(#pa0b576d31a)" style="fill: none; stroke: #0000ff; stroke-width: 1.5; stroke-linecap: square"/>
   </g>
   <g id="patch_77">
    <path d="M 49.235 359.517187 
L 49.235 26.877187 
" style="fill: none; stroke: #000000; stroke-width: 0.8; stroke-linejoin: miter; stroke-linecap: square"/>
   </g>
   <g id="patch_78">
    <path d="M 1165.235 359.517187 
L 1165.235 26.877187 
" style="fill: none; stroke: #000000; stroke-width: 0.8; stroke-linejoin: miter; stroke-linecap: square"/>
   </g>
   <g id="patch_79">
    <path d="M 49.235 359.517187 
L 1165.235 359.517187 
" style="fill: none; stroke: #000000; stroke-width: 0.8; stroke-linejoin: miter; stroke-linecap: square"/>
   </g>
   <g id="patch_80">
    <path d="M 49.235 26.877187 
L 1165.235 26.877187 
" style="fill: none; stroke: #000000; stroke-width: 0.8; stroke-linejoin: miter; stroke-linecap: square"/>
   </g>
   <g id="text_17">
    <!-- Pellet Count and Cumulative Sum Over Time of Group 1 Mouse 8 -->
    <g transform="translate(315.460625 20.877187) scale(0.18 -0.18)">
     <defs>
      <path id="DejaVuSans-61" d="M 2194 1759 
Q 1497 1759 1228 1600 
Q 959 1441 959 1056 
Q 959 750 1161 570 
Q 1363 391 1709 391 
Q 2188 391 2477 730 
Q 2766 1069 2766 1631 
L 2766 1759 
L 2194 1759 
z
M 3341 1997 
L 3341 0 
L 2766 0 
L 2766 531 
Q 2569 213 2275 61 
Q 1981 -91 1556 -91 
Q 1019 -91 701 211 
Q 384 513 384 1019 
Q 384 1609 779 1909 
Q 1175 2209 1959 2209 
L 2766 2209 
L 2766 2266 
Q 2766 2663 2505 2880 
Q 2244 3097 1772 3097 
Q 1472 3097 1187 3025 
Q 903 2953 641 2809 
L 641 3341 
Q 956 3463 1253 3523 
Q 1550 3584 1831 3584 
Q 2591 3584 2966 3190 
Q 3341 2797 3341 1997 
z
" transform="scale(0.015625)"/>
      <path id="DejaVuSans-64" d="M 2906 2969 
L 2906 4863 
L 3481 4863 
L 3481 0 
L 2906 0 
L 2906 525 
Q 2725 213 2448 61 
Q 2172 -91 1784 -91 
Q 1150 -91 751 415 
Q 353 922 353 1747 
Q 353 2572 751 3078 
Q 1150 3584 1784 3584 
Q 2172 3584 2448 3432 
Q 2725 3281 2906 2969 
z
M 947 1747 
Q 947 1113 1208 752 
Q 1469 391 1925 391 
Q 2381 391 2643 752 
Q 2906 1113 2906 1747 
Q 2906 2381 2643 2742 
Q 2381 3103 1925 3103 
Q 1469 3103 1208 2742 
Q 947 2381 947 1747 
z
" transform="scale(0.015625)"/>
      <path id="DejaVuSans-76" d="M 191 3500 
L 800 3500 
L 1894 563 
L 2988 3500 
L 3597 3500 
L 2284 0 
L 1503 0 
L 191 3500 
z
" transform="scale(0.015625)"/>
      <path id="DejaVuSans-53" d="M 3425 4513 
L 3425 3897 
Q 3066 4069 2747 4153 
Q 2428 4238 2131 4238 
Q 1616 4238 1336 4038 
Q 1056 3838 1056 3469 
Q 1056 3159 1242 3001 
Q 1428 2844 1947 2747 
L 2328 2669 
Q 3034 2534 3370 2195 
Q 3706 1856 3706 1288 
Q 3706 609 3251 259 
Q 2797 -91 1919 -91 
Q 1588 -91 1214 -16 
Q 841 59 441 206 
L 441 856 
Q 825 641 1194 531 
Q 1563 422 1919 422 
Q 2459 422 2753 634 
Q 3047 847 3047 1241 
Q 3047 1584 2836 1778 
Q 2625 1972 2144 2069 
L 1759 2144 
Q 1053 2284 737 2584 
Q 422 2884 422 3419 
Q 422 4038 858 4394 
Q 1294 4750 2059 4750 
Q 2388 4750 2728 4690 
Q 3069 4631 3425 4513 
z
" transform="scale(0.015625)"/>
      <path id="DejaVuSans-4f" d="M 2522 4238 
Q 1834 4238 1429 3725 
Q 1025 3213 1025 2328 
Q 1025 1447 1429 934 
Q 1834 422 2522 422 
Q 3209 422 3611 934 
Q 4013 1447 4013 2328 
Q 4013 3213 3611 3725 
Q 3209 4238 2522 4238 
z
M 2522 4750 
Q 3503 4750 4090 4092 
Q 4678 3434 4678 2328 
Q 4678 1225 4090 567 
Q 3503 -91 2522 -91 
Q 1538 -91 948 565 
Q 359 1222 359 2328 
Q 359 3434 948 4092 
Q 1538 4750 2522 4750 
z
" transform="scale(0.015625)"/>
      <path id="DejaVuSans-72" d="M 2631 2963 
Q 2534 3019 2420 3045 
Q 2306 3072 2169 3072 
Q 1681 3072 1420 2755 
Q 1159 2438 1159 1844 
L 1159 0 
L 581 0 
L 581 3500 
L 1159 3500 
L 1159 2956 
Q 1341 3275 1631 3429 
Q 1922 3584 2338 3584 
Q 2397 3584 2469 3576 
Q 2541 3569 2628 3553 
L 2631 2963 
z
" transform="scale(0.015625)"/>
      <path id="DejaVuSans-66" d="M 2375 4863 
L 2375 4384 
L 1825 4384 
Q 1516 4384 1395 4259 
Q 1275 4134 1275 3809 
L 1275 3500 
L 2222 3500 
L 2222 3053 
L 1275 3053 
L 1275 0 
L 697 0 
L 697 3053 
L 147 3053 
L 147 3500 
L 697 3500 
L 697 3744 
Q 697 4328 969 4595 
Q 1241 4863 1831 4863 
L 2375 4863 
z
" transform="scale(0.015625)"/>
      <path id="DejaVuSans-47" d="M 3809 666 
L 3809 1919 
L 2778 1919 
L 2778 2438 
L 4434 2438 
L 4434 434 
Q 4069 175 3628 42 
Q 3188 -91 2688 -91 
Q 1594 -91 976 548 
Q 359 1188 359 2328 
Q 359 3472 976 4111 
Q 1594 4750 2688 4750 
Q 3144 4750 3555 4637 
Q 3966 4525 4313 4306 
L 4313 3634 
Q 3963 3931 3569 4081 
Q 3175 4231 2741 4231 
Q 1884 4231 1454 3753 
Q 1025 3275 1025 2328 
Q 1025 1384 1454 906 
Q 1884 428 2741 428 
Q 3075 428 3337 486 
Q 3600 544 3809 666 
z
" transform="scale(0.015625)"/>
      <path id="DejaVuSans-70" d="M 1159 525 
L 1159 -1331 
L 581 -1331 
L 581 3500 
L 1159 3500 
L 1159 2969 
Q 1341 3281 1617 3432 
Q 1894 3584 2278 3584 
Q 2916 3584 3314 3078 
Q 3713 2572 3713 1747 
Q 3713 922 3314 415 
Q 2916 -91 2278 -91 
Q 1894 -91 1617 61 
Q 1341 213 1159 525 
z
M 3116 1747 
Q 3116 2381 2855 2742 
Q 2594 3103 2138 3103 
Q 1681 3103 1420 2742 
Q 1159 2381 1159 1747 
Q 1159 1113 1420 752 
Q 1681 391 2138 391 
Q 2594 391 2855 752 
Q 3116 1113 3116 1747 
z
" transform="scale(0.015625)"/>
      <path id="DejaVuSans-4d" d="M 628 4666 
L 1569 4666 
L 2759 1491 
L 3956 4666 
L 4897 4666 
L 4897 0 
L 4281 0 
L 4281 4097 
L 3078 897 
L 2444 897 
L 1241 4097 
L 1241 0 
L 628 0 
L 628 4666 
z
" transform="scale(0.015625)"/>
      <path id="DejaVuSans-73" d="M 2834 3397 
L 2834 2853 
Q 2591 2978 2328 3040 
Q 2066 3103 1784 3103 
Q 1356 3103 1142 2972 
Q 928 2841 928 2578 
Q 928 2378 1081 2264 
Q 1234 2150 1697 2047 
L 1894 2003 
Q 2506 1872 2764 1633 
Q 3022 1394 3022 966 
Q 3022 478 2636 193 
Q 2250 -91 1575 -91 
Q 1294 -91 989 -36 
Q 684 19 347 128 
L 347 722 
Q 666 556 975 473 
Q 1284 391 1588 391 
Q 1994 391 2212 530 
Q 2431 669 2431 922 
Q 2431 1156 2273 1281 
Q 2116 1406 1581 1522 
L 1381 1569 
Q 847 1681 609 1914 
Q 372 2147 372 2553 
Q 372 3047 722 3315 
Q 1072 3584 1716 3584 
Q 2034 3584 2315 3537 
Q 2597 3491 2834 3397 
z
" transform="scale(0.015625)"/>
      <path id="DejaVuSans-38" d="M 2034 2216 
Q 1584 2216 1326 1975 
Q 1069 1734 1069 1313 
Q 1069 891 1326 650 
Q 1584 409 2034 409 
Q 2484 409 2743 651 
Q 3003 894 3003 1313 
Q 3003 1734 2745 1975 
Q 2488 2216 2034 2216 
z
M 1403 2484 
Q 997 2584 770 2862 
Q 544 3141 544 3541 
Q 544 4100 942 4425 
Q 1341 4750 2034 4750 
Q 2731 4750 3128 4425 
Q 3525 4100 3525 3541 
Q 3525 3141 3298 2862 
Q 3072 2584 2669 2484 
Q 3125 2378 3379 2068 
Q 3634 1759 3634 1313 
Q 3634 634 3220 271 
Q 2806 -91 2034 -91 
Q 1263 -91 848 271 
Q 434 634 434 1313 
Q 434 1759 690 2068 
Q 947 2378 1403 2484 
z
M 1172 3481 
Q 1172 3119 1398 2916 
Q 1625 2713 2034 2713 
Q 2441 2713 2670 2916 
Q 2900 3119 2900 3481 
Q 2900 3844 2670 4047 
Q 2441 4250 2034 4250 
Q 1625 4250 1398 4047 
Q 1172 3844 1172 3481 
z
" transform="scale(0.015625)"/>
     </defs>
     <use xlink:href="#DejaVuSans-50"/>
     <use xlink:href="#DejaVuSans-65" x="56.677734"/>
     <use xlink:href="#DejaVuSans-6c" x="118.201172"/>
     <use xlink:href="#DejaVuSans-6c" x="145.984375"/>
     <use xlink:href="#DejaVuSans-65" x="173.767578"/>
     <use xlink:href="#DejaVuSans-74" x="235.291016"/>
     <use xlink:href="#DejaVuSans-20" x="274.5"/>
     <use xlink:href="#DejaVuSans-43" x="306.287109"/>
     <use xlink:href="#DejaVuSans-6f" x="376.111328"/>
     <use xlink:href="#DejaVuSans-75" x="437.292969"/>
     <use xlink:href="#DejaVuSans-6e" x="500.671875"/>
     <use xlink:href="#DejaVuSans-74" x="564.050781"/>
     <use xlink:href="#DejaVuSans-20" x="603.259766"/>
     <use xlink:href="#DejaVuSans-61" x="635.046875"/>
     <use xlink:href="#DejaVuSans-6e" x="696.326172"/>
     <use xlink:href="#DejaVuSans-64" x="759.705078"/>
     <use xlink:href="#DejaVuSans-20" x="823.181641"/>
     <use xlink:href="#DejaVuSans-43" x="854.96875"/>
     <use xlink:href="#DejaVuSans-75" x="924.792969"/>
     <use xlink:href="#DejaVuSans-6d" x="988.171875"/>
     <use xlink:href="#DejaVuSans-75" x="1085.583984"/>
     <use xlink:href="#DejaVuSans-6c" x="1148.962891"/>
     <use xlink:href="#DejaVuSans-61" x="1176.746094"/>
     <use xlink:href="#DejaVuSans-74" x="1238.025391"/>
     <use xlink:href="#DejaVuSans-69" x="1277.234375"/>
     <use xlink:href="#DejaVuSans-76" x="1305.017578"/>
     <use xlink:href="#DejaVuSans-65" x="1364.197266"/>
     <use xlink:href="#DejaVuSans-20" x="1425.720703"/>
     <use xlink:href="#DejaVuSans-53" x="1457.507812"/>
     <use xlink:href="#DejaVuSans-75" x="1520.984375"/>
     <use xlink:href="#DejaVuSans-6d" x="1584.363281"/>
     <use xlink:href="#DejaVuSans-20" x="1681.775391"/>
     <use xlink:href="#DejaVuSans-4f" x="1713.5625"/>
     <use xlink:href="#DejaVuSans-76" x="1792.273438"/>
     <use xlink:href="#DejaVuSans-65" x="1851.453125"/>
     <use xlink:href="#DejaVuSans-72" x="1912.976562"/>
     <use xlink:href="#DejaVuSans-20" x="1954.089844"/>
     <use xlink:href="#DejaVuSans-54" x="1985.876953"/>
     <use xlink:href="#DejaVuSans-69" x="2043.835938"/>
     <use xlink:href="#DejaVuSans-6d" x="2071.619141"/>
     <use xlink:href="#DejaVuSans-65" x="2169.03125"/>
     <use xlink:href="#DejaVuSans-20" x="2230.554688"/>
     <use xlink:href="#DejaVuSans-6f" x="2262.341797"/>
     <use xlink:href="#DejaVuSans-66" x="2323.523438"/>
     <use xlink:href="#DejaVuSans-20" x="2358.728516"/>
     <use xlink:href="#DejaVuSans-47" x="2390.515625"/>
     <use xlink:href="#DejaVuSans-72" x="2468.005859"/>
     <use xlink:href="#DejaVuSans-6f" x="2506.869141"/>
     <use xlink:href="#DejaVuSans-75" x="2568.050781"/>
     <use xlink:href="#DejaVuSans-70" x="2631.429688"/>
     <use xlink:href="#DejaVuSans-20" x="2694.90625"/>
     <use xlink:href="#DejaVuSans-31" x="2726.693359"/>
     <use xlink:href="#DejaVuSans-20" x="2790.316406"/>
     <use xlink:href="#DejaVuSans-4d" x="2822.103516"/>
     <use xlink:href="#DejaVuSans-6f" x="2908.382812"/>
     <use xlink:href="#DejaVuSans-75" x="2969.564453"/>
     <use xlink:href="#DejaVuSans-73" x="3032.943359"/>
     <use xlink:href="#DejaVuSans-65" x="3085.042969"/>
     <use xlink:href="#DejaVuSans-20" x="3146.566406"/>
     <use xlink:href="#DejaVuSans-38" x="3178.353516"/>
    </g>
   </g>
   <g id="legend_1">
    <g id="patch_81">
     <path d="M 1086.550625 64.233437 
L 1158.235 64.233437 
Q 1160.235 64.233437 1160.235 62.233437 
L 1160.235 33.877187 
Q 1160.235 31.877187 1158.235 31.877187 
L 1086.550625 31.877187 
Q 1084.550625 31.877187 1084.550625 33.877187 
L 1084.550625 62.233437 
Q 1084.550625 64.233437 1086.550625 64.233437 
z
" style="fill: #ffffff; opacity: 0.8; stroke: #cccccc; stroke-linejoin: miter"/>
    </g>
    <g id="patch_82">
     <path d="M 1088.550625 43.475625 
L 1108.550625 43.475625 
L 1108.550625 36.475625 
L 1088.550625 36.475625 
z
" style="fill: #add8e6; opacity: 0.9; stroke: #add8e6; stroke-linejoin: miter"/>
    </g>
    <g id="text_18">
     <!-- Meal -->
     <g transform="translate(1116.550625 43.475625) scale(0.1 -0.1)">
      <use xlink:href="#DejaVuSans-4d"/>
      <use xlink:href="#DejaVuSans-65" x="86.279297"/>
      <use xlink:href="#DejaVuSans-61" x="147.802734"/>
      <use xlink:href="#DejaVuSans-6c" x="209.082031"/>
     </g>
    </g>
    <g id="patch_83">
     <path d="M 1088.550625 58.15375 
L 1108.550625 58.15375 
L 1108.550625 51.15375 
L 1088.550625 51.15375 
z
" style="fill: #808080; opacity: 0.5; stroke: #808080; stroke-linejoin: miter"/>
    </g>
    <g id="text_19">
     <!-- Inactive -->
     <g transform="translate(1116.550625 58.15375) scale(0.1 -0.1)">
      <defs>
       <path id="DejaVuSans-49" d="M 628 4666 
L 1259 4666 
L 1259 0 
L 628 0 
L 628 4666 
z
" transform="scale(0.015625)"/>
       <path id="DejaVuSans-63" d="M 3122 3366 
L 3122 2828 
Q 2878 2963 2633 3030 
Q 2388 3097 2138 3097 
Q 1578 3097 1268 2742 
Q 959 2388 959 1747 
Q 959 1106 1268 751 
Q 1578 397 2138 397 
Q 2388 397 2633 464 
Q 2878 531 3122 666 
L 3122 134 
Q 2881 22 2623 -34 
Q 2366 -91 2075 -91 
Q 1284 -91 818 406 
Q 353 903 353 1747 
Q 353 2603 823 3093 
Q 1294 3584 2113 3584 
Q 2378 3584 2631 3529 
Q 2884 3475 3122 3366 
z
" transform="scale(0.015625)"/>
      </defs>
      <use xlink:href="#DejaVuSans-49"/>
      <use xlink:href="#DejaVuSans-6e" x="29.492188"/>
      <use xlink:href="#DejaVuSans-61" x="92.871094"/>
      <use xlink:href="#DejaVuSans-63" x="154.150391"/>
      <use xlink:href="#DejaVuSans-74" x="209.130859"/>
      <use xlink:href="#DejaVuSans-69" x="248.339844"/>
      <use xlink:href="#DejaVuSans-76" x="276.123047"/>
      <use xlink:href="#DejaVuSans-65" x="335.302734"/>
     </g>
    </g>
   </g>
  </g>
 </g>
 <defs>
  <clipPath id="pa0b576d31a">
   <rect x="49.235" y="26.877187" width="1116" height="332.64"/>
  </clipPath>
 </defs>
</svg>
