<?xml version="1.0" encoding="utf-8" standalone="no"?>
<!DOCTYPE svg PUBLIC "-//W3C//DTD SVG 1.1//EN"
  "http://www.w3.org/Graphics/SVG/1.1/DTD/svg11.dtd">
<svg xmlns:xlink="http://www.w3.org/1999/xlink" width="1182.160716pt" height="399.009062pt" viewBox="0 0 1182.160716 399.009062" xmlns="http://www.w3.org/2000/svg" version="1.1">
 <metadata>
  <rdf:RDF xmlns:dc="http://purl.org/dc/elements/1.1/" xmlns:cc="http://creativecommons.org/ns#" xmlns:rdf="http://www.w3.org/1999/02/22-rdf-syntax-ns#">
   <cc:Work>
    <dc:type rdf:resource="http://purl.org/dc/dcmitype/StillImage"/>
    <dc:date>2025-04-08T13:20:54.046230</dc:date>
    <dc:format>image/svg+xml</dc:format>
    <dc:creator>
     <cc:Agent>
      <dc:title>Matplotlib v3.8.3, https://matplotlib.org/</dc:title>
     </cc:Agent>
    </dc:creator>
   </cc:Work>
  </rdf:RDF>
 </metadata>
 <defs>
  <style type="text/css">*{stroke-linejoin: round; stroke-linecap: butt}</style>
 </defs>
 <g id="figure_1">
  <g id="patch_1">
   <path d="M 0 399.009062 
L 1182.160716 399.009062 
L 1182.160716 0 
L 0 0 
z
" style="fill: #ffffff"/>
  </g>
  <g id="axes_1">
   <g id="patch_2">
    <path d="M 49.235 359.517187 
L 1165.235 359.517187 
L 1165.235 26.877187 
L 49.235 26.877187 
z
" style="fill: #ffffff"/>
   </g>
   <g id="patch_3">
    <path d="M 111.482303 359.517187 
L 111.482303 26.877187 
L 108.681982 26.877187 
L 108.681982 359.517187 
z
" clip-path="url(#p87fdf825f1)" style="fill: #add8e6; stroke: #add8e6; stroke-linejoin: miter"/>
   </g>
   <g id="patch_4">
    <path d="M 120.207655 359.517187 
L 120.207655 26.877187 
L 120.196371 26.877187 
L 120.196371 359.517187 
z
" clip-path="url(#p87fdf825f1)" style="fill: #add8e6; stroke: #add8e6; stroke-linejoin: miter"/>
   </g>
   <g id="patch_5">
    <path d="M 121.024973 359.517187 
L 121.024973 26.877187 
L 121.180116 26.877187 
L 121.180116 359.517187 
z
" clip-path="url(#p87fdf825f1)" style="fill: #add8e6; stroke: #add8e6; stroke-linejoin: miter"/>
   </g>
   <g id="patch_6">
    <path d="M 132.220615 359.517187 
L 132.220615 26.877187 
L 132.010467 26.877187 
L 132.010467 359.517187 
z
" clip-path="url(#p87fdf825f1)" style="fill: #add8e6; stroke: #add8e6; stroke-linejoin: miter"/>
   </g>
   <g id="patch_7">
    <path d="M 135.555472 359.517187 
L 135.555472 26.877187 
L 135.716256 26.877187 
L 135.716256 359.517187 
z
" clip-path="url(#p87fdf825f1)" style="fill: #add8e6; stroke: #add8e6; stroke-linejoin: miter"/>
   </g>
   <g id="patch_8">
    <path d="M 154.700048 359.517187 
L 154.700048 26.877187 
L 143.141232 26.877187 
L 143.141232 359.517187 
z
" clip-path="url(#p87fdf825f1)" style="fill: #add8e6; stroke: #add8e6; stroke-linejoin: miter"/>
   </g>
   <g id="patch_9">
    <path d="M 168.166411 359.517187 
L 168.166411 26.877187 
L 164.211689 26.877187 
L 164.211689 359.517187 
z
" clip-path="url(#p87fdf825f1)" style="fill: #add8e6; stroke: #add8e6; stroke-linejoin: miter"/>
   </g>
   <g id="patch_10">
    <path d="M 177.714017 359.517187 
L 177.714017 26.877187 
L 174.767721 26.877187 
L 174.767721 359.517187 
z
" clip-path="url(#p87fdf825f1)" style="fill: #add8e6; stroke: #add8e6; stroke-linejoin: miter"/>
   </g>
   <g id="patch_11">
    <path d="M 182.629211 359.517187 
L 182.629211 26.877187 
L 173.836866 26.877187 
L 173.836866 359.517187 
z
" clip-path="url(#p87fdf825f1)" style="fill: #add8e6; stroke: #add8e6; stroke-linejoin: miter"/>
   </g>
   <g id="patch_12">
    <path d="M 190.765726 359.517187 
L 190.765726 26.877187 
L 190.83413 26.877187 
L 190.83413 359.517187 
z
" clip-path="url(#p87fdf825f1)" style="fill: #add8e6; stroke: #add8e6; stroke-linejoin: miter"/>
   </g>
   <g id="patch_13">
    <path d="M 192.984968 359.517187 
L 192.984968 26.877187 
L 193.173255 26.877187 
L 193.173255 359.517187 
z
" clip-path="url(#p87fdf825f1)" style="fill: #add8e6; stroke: #add8e6; stroke-linejoin: miter"/>
   </g>
   <g id="patch_14">
    <path d="M 197.651935 359.517187 
L 197.651935 26.877187 
L 197.752777 26.877187 
L 197.752777 359.517187 
z
" clip-path="url(#p87fdf825f1)" style="fill: #add8e6; stroke: #add8e6; stroke-linejoin: miter"/>
   </g>
   <g id="patch_15">
    <path d="M 213.784632 359.517187 
L 213.784632 26.877187 
L 202.742017 26.877187 
L 202.742017 359.517187 
z
" clip-path="url(#p87fdf825f1)" style="fill: #add8e6; stroke: #add8e6; stroke-linejoin: miter"/>
   </g>
   <g id="patch_16">
    <path d="M 217.779549 359.517187 
L 217.779549 26.877187 
L 216.203443 26.877187 
L 216.203443 359.517187 
z
" clip-path="url(#p87fdf825f1)" style="fill: #add8e6; stroke: #add8e6; stroke-linejoin: miter"/>
   </g>
   <g id="patch_17">
    <path d="M 231.805835 359.517187 
L 231.805835 26.877187 
L 227.062708 26.877187 
L 227.062708 359.517187 
z
" clip-path="url(#p87fdf825f1)" style="fill: #add8e6; stroke: #add8e6; stroke-linejoin: miter"/>
   </g>
   <g id="patch_18">
    <path d="M 245.782052 359.517187 
L 245.782052 26.877187 
L 245.802503 26.877187 
L 245.802503 359.517187 
z
" clip-path="url(#p87fdf825f1)" style="fill: #add8e6; stroke: #add8e6; stroke-linejoin: miter"/>
   </g>
   <g id="patch_19">
    <path d="M 246.430125 359.517187 
L 246.430125 26.877187 
L 246.553533 26.877187 
L 246.553533 359.517187 
z
" clip-path="url(#p87fdf825f1)" style="fill: #add8e6; stroke: #add8e6; stroke-linejoin: miter"/>
   </g>
   <g id="patch_20">
    <path d="M 250.051995 359.517187 
L 250.051995 26.877187 
L 250.117578 26.877187 
L 250.117578 359.517187 
z
" clip-path="url(#p87fdf825f1)" style="fill: #add8e6; stroke: #add8e6; stroke-linejoin: miter"/>
   </g>
   <g id="patch_21">
    <path d="M 268.747363 359.517187 
L 268.747363 26.877187 
L 259.321755 26.877187 
L 259.321755 359.517187 
z
" clip-path="url(#p87fdf825f1)" style="fill: #add8e6; stroke: #add8e6; stroke-linejoin: miter"/>
   </g>
   <g id="patch_22">
    <path d="M 282.521895 359.517187 
L 282.521895 26.877187 
L 282.671396 26.877187 
L 282.671396 359.517187 
z
" clip-path="url(#p87fdf825f1)" style="fill: #add8e6; stroke: #add8e6; stroke-linejoin: miter"/>
   </g>
   <g id="patch_23">
    <path d="M 282.945011 359.517187 
L 282.945011 26.877187 
L 283.119194 26.877187 
L 283.119194 359.517187 
z
" clip-path="url(#p87fdf825f1)" style="fill: #add8e6; stroke: #add8e6; stroke-linejoin: miter"/>
   </g>
   <g id="patch_24">
    <path d="M 283.39845 359.517187 
L 283.39845 26.877187 
L 283.094512 26.877187 
L 283.094512 359.517187 
z
" clip-path="url(#p87fdf825f1)" style="fill: #add8e6; stroke: #add8e6; stroke-linejoin: miter"/>
   </g>
   <g id="patch_25">
    <path d="M 300.751836 359.517187 
L 300.751836 26.877187 
L 300.565665 26.877187 
L 300.565665 359.517187 
z
" clip-path="url(#p87fdf825f1)" style="fill: #add8e6; stroke: #add8e6; stroke-linejoin: miter"/>
   </g>
   <g id="patch_26">
    <path d="M 300.973972 359.517187 
L 300.973972 26.877187 
L 300.758183 26.877187 
L 300.758183 359.517187 
z
" clip-path="url(#p87fdf825f1)" style="fill: #add8e6; stroke: #add8e6; stroke-linejoin: miter"/>
   </g>
   <g id="patch_27">
    <path d="M 304.603599 359.517187 
L 304.603599 26.877187 
L 304.597958 26.877187 
L 304.597958 359.517187 
z
" clip-path="url(#p87fdf825f1)" style="fill: #add8e6; stroke: #add8e6; stroke-linejoin: miter"/>
   </g>
   <g id="patch_28">
    <path d="M 330.570211 359.517187 
L 330.570211 26.877187 
L 330.632973 26.877187 
L 330.632973 359.517187 
z
" clip-path="url(#p87fdf825f1)" style="fill: #add8e6; stroke: #add8e6; stroke-linejoin: miter"/>
   </g>
   <g id="patch_29">
    <path d="M 339.454936 359.517187 
L 339.454936 26.877187 
L 339.06849 26.877187 
L 339.06849 359.517187 
z
" clip-path="url(#p87fdf825f1)" style="fill: #add8e6; stroke: #add8e6; stroke-linejoin: miter"/>
   </g>
   <g id="patch_30">
    <path d="M 351.051832 359.517187 
L 351.051832 26.877187 
L 351.144918 26.877187 
L 351.144918 359.517187 
z
" clip-path="url(#p87fdf825f1)" style="fill: #add8e6; stroke: #add8e6; stroke-linejoin: miter"/>
   </g>
   <g id="patch_31">
    <path d="M 351.403724 359.517187 
L 351.403724 26.877187 
L 351.434047 26.877187 
L 351.434047 359.517187 
z
" clip-path="url(#p87fdf825f1)" style="fill: #add8e6; stroke: #add8e6; stroke-linejoin: miter"/>
   </g>
   <g id="patch_32">
    <path d="M 376.495896 359.517187 
L 376.495896 26.877187 
L 369.355113 26.877187 
L 369.355113 359.517187 
z
" clip-path="url(#p87fdf825f1)" style="fill: #add8e6; stroke: #add8e6; stroke-linejoin: miter"/>
   </g>
   <g id="patch_33">
    <path d="M 380.897005 359.517187 
L 380.897005 26.877187 
L 380.335671 26.877187 
L 380.335671 359.517187 
z
" clip-path="url(#p87fdf825f1)" style="fill: #add8e6; stroke: #add8e6; stroke-linejoin: miter"/>
   </g>
   <g id="patch_34">
    <path d="M 393.522778 359.517187 
L 393.522778 26.877187 
L 393.177233 26.877187 
L 393.177233 359.517187 
z
" clip-path="url(#p87fdf825f1)" style="fill: #add8e6; stroke: #add8e6; stroke-linejoin: miter"/>
   </g>
   <g id="patch_35">
    <path d="M 404.185294 359.517187 
L 404.185294 26.877187 
L 404.2812 26.877187 
L 404.2812 359.517187 
z
" clip-path="url(#p87fdf825f1)" style="fill: #add8e6; stroke: #add8e6; stroke-linejoin: miter"/>
   </g>
   <g id="patch_36">
    <path d="M 408.57935 359.517187 
L 408.57935 26.877187 
L 408.563836 26.877187 
L 408.563836 359.517187 
z
" clip-path="url(#p87fdf825f1)" style="fill: #add8e6; stroke: #add8e6; stroke-linejoin: miter"/>
   </g>
   <g id="patch_37">
    <path d="M 412.115187 359.517187 
L 412.115187 26.877187 
L 410.741472 26.877187 
L 410.741472 359.517187 
z
" clip-path="url(#p87fdf825f1)" style="fill: #add8e6; stroke: #add8e6; stroke-linejoin: miter"/>
   </g>
   <g id="patch_38">
    <path d="M 436.670708 359.517187 
L 436.670708 26.877187 
L 436.825145 26.877187 
L 436.825145 359.517187 
z
" clip-path="url(#p87fdf825f1)" style="fill: #add8e6; stroke: #add8e6; stroke-linejoin: miter"/>
   </g>
   <g id="patch_39">
    <path d="M 442.424377 359.517187 
L 442.424377 26.877187 
L 442.562594 26.877187 
L 442.562594 359.517187 
z
" clip-path="url(#p87fdf825f1)" style="fill: #add8e6; stroke: #add8e6; stroke-linejoin: miter"/>
   </g>
   <g id="patch_40">
    <path d="M 452.370417 359.517187 
L 452.370417 26.877187 
L 452.481837 26.877187 
L 452.481837 359.517187 
z
" clip-path="url(#p87fdf825f1)" style="fill: #add8e6; stroke: #add8e6; stroke-linejoin: miter"/>
   </g>
   <g id="patch_41">
    <path d="M 470.017868 359.517187 
L 470.017868 26.877187 
L 469.64059 26.877187 
L 469.64059 359.517187 
z
" clip-path="url(#p87fdf825f1)" style="fill: #add8e6; stroke: #add8e6; stroke-linejoin: miter"/>
   </g>
   <g id="patch_42">
    <path d="M 473.233547 359.517187 
L 473.233547 26.877187 
L 472.930314 26.877187 
L 472.930314 359.517187 
z
" clip-path="url(#p87fdf825f1)" style="fill: #add8e6; stroke: #add8e6; stroke-linejoin: miter"/>
   </g>
   <g id="patch_43">
    <path d="M 492.603785 359.517187 
L 492.603785 26.877187 
L 484.594204 26.877187 
L 484.594204 359.517187 
z
" clip-path="url(#p87fdf825f1)" style="fill: #add8e6; stroke: #add8e6; stroke-linejoin: miter"/>
   </g>
   <g id="patch_44">
    <path d="M 502.105554 359.517187 
L 502.105554 26.877187 
L 502.291019 26.877187 
L 502.291019 359.517187 
z
" clip-path="url(#p87fdf825f1)" style="fill: #add8e6; stroke: #add8e6; stroke-linejoin: miter"/>
   </g>
   <g id="patch_45">
    <path d="M 502.337562 359.517187 
L 502.337562 26.877187 
L 502.511745 26.877187 
L 502.511745 359.517187 
z
" clip-path="url(#p87fdf825f1)" style="fill: #add8e6; stroke: #add8e6; stroke-linejoin: miter"/>
   </g>
   <g id="patch_46">
    <path d="M 521.596379 359.517187 
L 521.596379 26.877187 
L 517.788338 26.877187 
L 517.788338 359.517187 
z
" clip-path="url(#p87fdf825f1)" style="fill: #add8e6; stroke: #add8e6; stroke-linejoin: miter"/>
   </g>
   <g id="patch_47">
    <path d="M 533.705951 359.517187 
L 533.705951 26.877187 
L 522.105528 26.877187 
L 522.105528 359.517187 
z
" clip-path="url(#p87fdf825f1)" style="fill: #add8e6; stroke: #add8e6; stroke-linejoin: miter"/>
   </g>
   <g id="patch_48">
    <path d="M 536.392736 359.517187 
L 536.392736 26.877187 
L 527.544681 26.877187 
L 527.544681 359.517187 
z
" clip-path="url(#p87fdf825f1)" style="fill: #add8e6; stroke: #add8e6; stroke-linejoin: miter"/>
   </g>
   <g id="patch_49">
    <path d="M 564.932596 359.517187 
L 564.932596 26.877187 
L 560.767727 26.877187 
L 560.767727 359.517187 
z
" clip-path="url(#p87fdf825f1)" style="fill: #add8e6; stroke: #add8e6; stroke-linejoin: miter"/>
   </g>
   <g id="patch_50">
    <path d="M 580.307916 359.517187 
L 580.307916 26.877187 
L 580.403117 26.877187 
L 580.403117 359.517187 
z
" clip-path="url(#p87fdf825f1)" style="fill: #add8e6; stroke: #add8e6; stroke-linejoin: miter"/>
   </g>
   <g id="patch_51">
    <path d="M 580.52441 359.517187 
L 580.52441 26.877187 
L 580.685899 26.877187 
L 580.685899 359.517187 
z
" clip-path="url(#p87fdf825f1)" style="fill: #add8e6; stroke: #add8e6; stroke-linejoin: miter"/>
   </g>
   <g id="patch_52">
    <path d="M 580.786742 359.517187 
L 580.786742 26.877187 
L 580.840336 26.877187 
L 580.840336 359.517187 
z
" clip-path="url(#p87fdf825f1)" style="fill: #add8e6; stroke: #add8e6; stroke-linejoin: miter"/>
   </g>
   <g id="patch_53">
    <path d="M 607.297762 359.517187 
L 607.297762 26.877187 
L 606.01008 26.877187 
L 606.01008 359.517187 
z
" clip-path="url(#p87fdf825f1)" style="fill: #add8e6; stroke: #add8e6; stroke-linejoin: miter"/>
   </g>
   <g id="patch_54">
    <path d="M 639.792344 359.517187 
L 639.792344 26.877187 
L 639.680218 26.877187 
L 639.680218 359.517187 
z
" clip-path="url(#p87fdf825f1)" style="fill: #add8e6; stroke: #add8e6; stroke-linejoin: miter"/>
   </g>
   <g id="patch_55">
    <path d="M 643.462873 359.517187 
L 643.462873 26.877187 
L 640.238731 26.877187 
L 640.238731 359.517187 
z
" clip-path="url(#p87fdf825f1)" style="fill: #add8e6; stroke: #add8e6; stroke-linejoin: miter"/>
   </g>
   <g id="patch_56">
    <path d="M 674.076 359.517187 
L 674.076 26.877187 
L 674.160623 26.877187 
L 674.160623 359.517187 
z
" clip-path="url(#p87fdf825f1)" style="fill: #add8e6; stroke: #add8e6; stroke-linejoin: miter"/>
   </g>
   <g id="patch_57">
    <path d="M 674.303072 359.517187 
L 674.303072 26.877187 
L 674.387695 26.877187 
L 674.387695 359.517187 
z
" clip-path="url(#p87fdf825f1)" style="fill: #add8e6; stroke: #add8e6; stroke-linejoin: miter"/>
   </g>
   <g id="patch_58">
    <path d="M 710.471709 359.517187 
L 710.471709 26.877187 
L 710.481582 26.877187 
L 710.481582 359.517187 
z
" clip-path="url(#p87fdf825f1)" style="fill: #add8e6; stroke: #add8e6; stroke-linejoin: miter"/>
   </g>
   <g id="patch_59">
    <path d="M 729.404022 359.517187 
L 729.404022 26.877187 
L 722.611604 26.877187 
L 722.611604 359.517187 
z
" clip-path="url(#p87fdf825f1)" style="fill: #add8e6; stroke: #add8e6; stroke-linejoin: miter"/>
   </g>
   <g id="patch_60">
    <path d="M 750.418769 359.517187 
L 750.418769 26.877187 
L 750.414538 26.877187 
L 750.414538 359.517187 
z
" clip-path="url(#p87fdf825f1)" style="fill: #add8e6; stroke: #add8e6; stroke-linejoin: miter"/>
   </g>
   <g id="patch_61">
    <path d="M 750.648662 359.517187 
L 750.648662 26.877187 
L 750.730464 26.877187 
L 750.730464 359.517187 
z
" clip-path="url(#p87fdf825f1)" style="fill: #add8e6; stroke: #add8e6; stroke-linejoin: miter"/>
   </g>
   <g id="patch_62">
    <path d="M 753.878445 359.517187 
L 753.878445 26.877187 
L 751.528037 26.877187 
L 751.528037 359.517187 
z
" clip-path="url(#p87fdf825f1)" style="fill: #add8e6; stroke: #add8e6; stroke-linejoin: miter"/>
   </g>
   <g id="patch_63">
    <path d="M 759.669489 359.517187 
L 759.669489 26.877187 
L 759.848608 26.877187 
L 759.848608 359.517187 
z
" clip-path="url(#p87fdf825f1)" style="fill: #add8e6; stroke: #add8e6; stroke-linejoin: miter"/>
   </g>
   <g id="patch_64">
    <path d="M 772.92782 359.517187 
L 772.92782 26.877187 
L 773.028662 26.877187 
L 773.028662 359.517187 
z
" clip-path="url(#p87fdf825f1)" style="fill: #add8e6; stroke: #add8e6; stroke-linejoin: miter"/>
   </g>
   <g id="patch_65">
    <path d="M 782.077697 359.517187 
L 782.077697 26.877187 
L 782.116483 26.877187 
L 782.116483 359.517187 
z
" clip-path="url(#p87fdf825f1)" style="fill: #add8e6; stroke: #add8e6; stroke-linejoin: miter"/>
   </g>
   <g id="patch_66">
    <path d="M 796.834563 359.517187 
L 796.834563 26.877187 
L 785.590263 26.877187 
L 785.590263 359.517187 
z
" clip-path="url(#p87fdf825f1)" style="fill: #add8e6; stroke: #add8e6; stroke-linejoin: miter"/>
   </g>
   <g id="patch_67">
    <path d="M 800.286482 359.517187 
L 800.286482 26.877187 
L 795.14069 26.877187 
L 795.14069 359.517187 
z
" clip-path="url(#p87fdf825f1)" style="fill: #add8e6; stroke: #add8e6; stroke-linejoin: miter"/>
   </g>
   <g id="patch_68">
    <path d="M 808.85246 359.517187 
L 808.85246 26.877187 
L 808.913811 26.877187 
L 808.913811 359.517187 
z
" clip-path="url(#p87fdf825f1)" style="fill: #add8e6; stroke: #add8e6; stroke-linejoin: miter"/>
   </g>
   <g id="patch_69">
    <path d="M 809.186721 359.517187 
L 809.186721 26.877187 
L 809.249483 26.877187 
L 809.249483 359.517187 
z
" clip-path="url(#p87fdf825f1)" style="fill: #add8e6; stroke: #add8e6; stroke-linejoin: miter"/>
   </g>
   <g id="patch_70">
    <path d="M 824.24682 359.517187 
L 824.24682 26.877187 
L 824.378691 26.877187 
L 824.378691 359.517187 
z
" clip-path="url(#p87fdf825f1)" style="fill: #add8e6; stroke: #add8e6; stroke-linejoin: miter"/>
   </g>
   <g id="patch_71">
    <path d="M 853.625154 359.517187 
L 853.625154 26.877187 
L 853.676633 26.877187 
L 853.676633 359.517187 
z
" clip-path="url(#p87fdf825f1)" style="fill: #add8e6; stroke: #add8e6; stroke-linejoin: miter"/>
   </g>
   <g id="patch_72">
    <path d="M 853.933324 359.517187 
L 853.933324 26.877187 
L 853.991149 26.877187 
L 853.991149 359.517187 
z
" clip-path="url(#p87fdf825f1)" style="fill: #add8e6; stroke: #add8e6; stroke-linejoin: miter"/>
   </g>
   <g id="patch_73">
    <path d="M 868.863667 359.517187 
L 868.863667 26.877187 
L 868.769171 26.877187 
L 868.769171 359.517187 
z
" clip-path="url(#p87fdf825f1)" style="fill: #add8e6; stroke: #add8e6; stroke-linejoin: miter"/>
   </g>
   <g id="patch_74">
    <path d="M 871.550452 359.517187 
L 871.550452 26.877187 
L 871.39954 26.877187 
L 871.39954 359.517187 
z
" clip-path="url(#p87fdf825f1)" style="fill: #add8e6; stroke: #add8e6; stroke-linejoin: miter"/>
   </g>
   <g id="patch_75">
    <path d="M 894.063029 359.517187 
L 894.063029 26.877187 
L 894.255546 26.877187 
L 894.255546 359.517187 
z
" clip-path="url(#p87fdf825f1)" style="fill: #add8e6; stroke: #add8e6; stroke-linejoin: miter"/>
   </g>
   <g id="patch_76">
    <path d="M 895.835883 359.517187 
L 895.835883 26.877187 
L 895.981153 26.877187 
L 895.981153 359.517187 
z
" clip-path="url(#p87fdf825f1)" style="fill: #add8e6; stroke: #add8e6; stroke-linejoin: miter"/>
   </g>
   <g id="patch_77">
    <path d="M 948.05612 359.517187 
L 948.05612 26.877187 
L 948.173182 26.877187 
L 948.173182 359.517187 
z
" clip-path="url(#p87fdf825f1)" style="fill: #add8e6; stroke: #add8e6; stroke-linejoin: miter"/>
   </g>
   <g id="patch_78">
    <path d="M 1008.498905 359.517187 
L 1008.498905 26.877187 
L 1008.670267 26.877187 
L 1008.670267 359.517187 
z
" clip-path="url(#p87fdf825f1)" style="fill: #add8e6; stroke: #add8e6; stroke-linejoin: miter"/>
   </g>
   <g id="patch_79">
    <path d="M 1009.473482 359.517187 
L 1009.473482 26.877187 
L 1009.682219 26.877187 
L 1009.682219 359.517187 
z
" clip-path="url(#p87fdf825f1)" style="fill: #add8e6; stroke: #add8e6; stroke-linejoin: miter"/>
   </g>
   <g id="patch_80">
    <path d="M 1009.694912 359.517187 
L 1009.694912 26.877187 
L 1009.72453 26.877187 
L 1009.72453 359.517187 
z
" clip-path="url(#p87fdf825f1)" style="fill: #add8e6; stroke: #add8e6; stroke-linejoin: miter"/>
   </g>
   <g id="patch_81">
    <path d="M 1009.952308 359.517187 
L 1009.952308 26.877187 
L 1009.949487 26.877187 
L 1009.949487 359.517187 
z
" clip-path="url(#p87fdf825f1)" style="fill: #add8e6; stroke: #add8e6; stroke-linejoin: miter"/>
   </g>
   <g id="patch_82">
    <path d="M 1016.860377 359.517187 
L 1016.860377 26.877187 
L 1017.033854 26.877187 
L 1017.033854 359.517187 
z
" clip-path="url(#p87fdf825f1)" style="fill: #add8e6; stroke: #add8e6; stroke-linejoin: miter"/>
   </g>
   <g id="patch_83">
    <path d="M 1030.294301 359.517187 
L 1030.294301 26.877187 
L 1030.421236 26.877187 
L 1030.421236 359.517187 
z
" clip-path="url(#p87fdf825f1)" style="fill: #add8e6; stroke: #add8e6; stroke-linejoin: miter"/>
   </g>
   <g id="patch_84">
    <path d="M 1030.54676 359.517187 
L 1030.54676 26.877187 
L 1030.732226 26.877187 
L 1030.732226 359.517187 
z
" clip-path="url(#p87fdf825f1)" style="fill: #add8e6; stroke: #add8e6; stroke-linejoin: miter"/>
   </g>
   <g id="patch_85">
    <path d="M 1041.343263 359.517187 
L 1041.343263 26.877187 
L 1041.455388 26.877187 
L 1041.455388 359.517187 
z
" clip-path="url(#p87fdf825f1)" style="fill: #add8e6; stroke: #add8e6; stroke-linejoin: miter"/>
   </g>
   <g id="patch_86">
    <path d="M 1050.043227 359.517187 
L 1050.043227 26.877187 
L 1050.180035 26.877187 
L 1050.180035 359.517187 
z
" clip-path="url(#p87fdf825f1)" style="fill: #add8e6; stroke: #add8e6; stroke-linejoin: miter"/>
   </g>
   <g id="patch_87">
    <path d="M 1050.507244 359.517187 
L 1050.507244 26.877187 
L 1050.650398 26.877187 
L 1050.650398 359.517187 
z
" clip-path="url(#p87fdf825f1)" style="fill: #add8e6; stroke: #add8e6; stroke-linejoin: miter"/>
   </g>
   <g id="patch_88">
    <path d="M 1072.017037 359.517187 
L 1072.017037 26.877187 
L 1069.550977 26.877187 
L 1069.550977 359.517187 
z
" clip-path="url(#p87fdf825f1)" style="fill: #add8e6; stroke: #add8e6; stroke-linejoin: miter"/>
   </g>
   <g id="patch_89">
    <path d="M 1076.385706 359.517187 
L 1076.385706 26.877187 
L 1076.387117 26.877187 
L 1076.387117 359.517187 
z
" clip-path="url(#p87fdf825f1)" style="fill: #add8e6; stroke: #add8e6; stroke-linejoin: miter"/>
   </g>
   <g id="patch_90">
    <path d="M 1081.885506 359.517187 
L 1081.885506 26.877187 
L 1081.971539 26.877187 
L 1081.971539 359.517187 
z
" clip-path="url(#p87fdf825f1)" style="fill: #add8e6; stroke: #add8e6; stroke-linejoin: miter"/>
   </g>
   <g id="patch_91">
    <path d="M 1082.12104 359.517187 
L 1082.12104 26.877187 
L 1082.264899 26.877187 
L 1082.264899 359.517187 
z
" clip-path="url(#p87fdf825f1)" style="fill: #add8e6; stroke: #add8e6; stroke-linejoin: miter"/>
   </g>
   <g id="patch_92">
    <path d="M 1097.760807 359.517187 
L 1097.760807 26.877187 
L 1097.870817 26.877187 
L 1097.870817 359.517187 
z
" clip-path="url(#p87fdf825f1)" style="fill: #add8e6; stroke: #add8e6; stroke-linejoin: miter"/>
   </g>
   <g id="patch_93">
    <path d="M 1103.474985 359.517187 
L 1103.474985 26.877187 
L 1103.644231 26.877187 
L 1103.644231 359.517187 
z
" clip-path="url(#p87fdf825f1)" style="fill: #add8e6; stroke: #add8e6; stroke-linejoin: miter"/>
   </g>
   <g id="patch_94">
    <path d="M 1106.230879 359.517187 
L 1106.230879 26.877187 
L 1106.235815 26.877187 
L 1106.235815 359.517187 
z
" clip-path="url(#p87fdf825f1)" style="fill: #add8e6; stroke: #add8e6; stroke-linejoin: miter"/>
   </g>
   <g id="patch_95">
    <path d="M 1111.330128 359.517187 
L 1111.330128 26.877187 
L 1111.528993 26.877187 
L 1111.528993 359.517187 
z
" clip-path="url(#p87fdf825f1)" style="fill: #add8e6; stroke: #add8e6; stroke-linejoin: miter"/>
   </g>
   <g id="patch_96">
    <path d="M 1114.373035 359.517187 
L 1114.373035 26.877187 
L 1114.507727 26.877187 
L 1114.507727 359.517187 
z
" clip-path="url(#p87fdf825f1)" style="fill: #add8e6; stroke: #add8e6; stroke-linejoin: miter"/>
   </g>
   <g id="patch_97">
    <path d="M 99.962273 359.517187 
L 99.962273 26.877187 
L 176.123102 26.877187 
L 176.123102 359.517187 
z
" clip-path="url(#p87fdf825f1)" style="fill: #808080; opacity: 0.4; stroke: #808080; stroke-linejoin: miter"/>
   </g>
   <g id="patch_98">
    <path d="M 180.354259 26.877187 
L 180.354259 26.877187 
L 180.354259 359.517187 
" clip-path="url(#p87fdf825f1)" style="fill: #808080; opacity: 0.4; stroke: #808080; stroke-linejoin: miter"/>
   </g>
   <g id="patch_99">
    <path d="M 184.585416 26.877187 
L 184.585416 26.877187 
L 184.585416 359.517187 
" clip-path="url(#p87fdf825f1)" style="fill: #808080; opacity: 0.4; stroke: #808080; stroke-linejoin: miter"/>
   </g>
   <g id="patch_100">
    <path d="M 328.44476 359.517187 
L 328.44476 26.877187 
L 480.766418 26.877187 
L 480.766418 359.517187 
z
" clip-path="url(#p87fdf825f1)" style="fill: #808080; opacity: 0.4; stroke: #808080; stroke-linejoin: miter"/>
   </g>
   <g id="patch_101">
    <path d="M 484.997575 26.877187 
L 484.997575 26.877187 
L 484.997575 359.517187 
" clip-path="url(#p87fdf825f1)" style="fill: #808080; opacity: 0.4; stroke: #808080; stroke-linejoin: miter"/>
   </g>
   <g id="patch_102">
    <path d="M 489.228732 26.877187 
L 489.228732 26.877187 
L 489.228732 359.517187 
" clip-path="url(#p87fdf825f1)" style="fill: #808080; opacity: 0.4; stroke: #808080; stroke-linejoin: miter"/>
   </g>
   <g id="patch_103">
    <path d="M 633.088075 359.517187 
L 633.088075 26.877187 
L 785.409733 26.877187 
L 785.409733 359.517187 
z
" clip-path="url(#p87fdf825f1)" style="fill: #808080; opacity: 0.4; stroke: #808080; stroke-linejoin: miter"/>
   </g>
   <g id="patch_104">
    <path d="M 789.640891 26.877187 
L 789.640891 26.877187 
L 789.640891 359.517187 
" clip-path="url(#p87fdf825f1)" style="fill: #808080; opacity: 0.4; stroke: #808080; stroke-linejoin: miter"/>
   </g>
   <g id="patch_105">
    <path d="M 793.872048 26.877187 
L 793.872048 26.877187 
L 793.872048 359.517187 
" clip-path="url(#p87fdf825f1)" style="fill: #808080; opacity: 0.4; stroke: #808080; stroke-linejoin: miter"/>
   </g>
   <g id="patch_106">
    <path d="M 937.731391 359.517187 
L 937.731391 26.877187 
L 1090.053049 26.877187 
L 1090.053049 359.517187 
z
" clip-path="url(#p87fdf825f1)" style="fill: #808080; opacity: 0.4; stroke: #808080; stroke-linejoin: miter"/>
   </g>
   <g id="patch_107">
    <path d="M 1094.284206 26.877187 
L 1094.284206 26.877187 
L 1094.284206 359.517187 
" clip-path="url(#p87fdf825f1)" style="fill: #808080; opacity: 0.4; stroke: #808080; stroke-linejoin: miter"/>
   </g>
   <g id="patch_108">
    <path d="M 1098.515364 26.877187 
L 1098.515364 26.877187 
L 1098.515364 359.517187 
" clip-path="url(#p87fdf825f1)" style="fill: #808080; opacity: 0.4; stroke: #808080; stroke-linejoin: miter"/>
   </g>
   <g id="matplotlib.axis_1">
    <g id="xtick_1">
     <g id="line2d_1">
      <defs>
       <path id="md001ec8178" d="M 0 0 
L 0 3.5 
" style="stroke: #000000; stroke-width: 0.8"/>
      </defs>
      <g>
       <use xlink:href="#md001ec8178" x="86.228642" y="359.517187" style="stroke: #000000; stroke-width: 0.8"/>
      </g>
     </g>
     <g id="text_1">
      <!-- 05-10 00 -->
      <g transform="translate(63.748173 374.115625) scale(0.1 -0.1)">
       <defs>
        <path id="DejaVuSans-30" d="M 2034 4250 
Q 1547 4250 1301 3770 
Q 1056 3291 1056 2328 
Q 1056 1369 1301 889 
Q 1547 409 2034 409 
Q 2525 409 2770 889 
Q 3016 1369 3016 2328 
Q 3016 3291 2770 3770 
Q 2525 4250 2034 4250 
z
M 2034 4750 
Q 2819 4750 3233 4129 
Q 3647 3509 3647 2328 
Q 3647 1150 3233 529 
Q 2819 -91 2034 -91 
Q 1250 -91 836 529 
Q 422 1150 422 2328 
Q 422 3509 836 4129 
Q 1250 4750 2034 4750 
z
" transform="scale(0.015625)"/>
        <path id="DejaVuSans-35" d="M 691 4666 
L 3169 4666 
L 3169 4134 
L 1269 4134 
L 1269 2991 
Q 1406 3038 1543 3061 
Q 1681 3084 1819 3084 
Q 2600 3084 3056 2656 
Q 3513 2228 3513 1497 
Q 3513 744 3044 326 
Q 2575 -91 1722 -91 
Q 1428 -91 1123 -41 
Q 819 9 494 109 
L 494 744 
Q 775 591 1075 516 
Q 1375 441 1709 441 
Q 2250 441 2565 725 
Q 2881 1009 2881 1497 
Q 2881 1984 2565 2268 
Q 2250 2553 1709 2553 
Q 1456 2553 1204 2497 
Q 953 2441 691 2322 
L 691 4666 
z
" transform="scale(0.015625)"/>
        <path id="DejaVuSans-2d" d="M 313 2009 
L 1997 2009 
L 1997 1497 
L 313 1497 
L 313 2009 
z
" transform="scale(0.015625)"/>
        <path id="DejaVuSans-31" d="M 794 531 
L 1825 531 
L 1825 4091 
L 703 3866 
L 703 4441 
L 1819 4666 
L 2450 4666 
L 2450 531 
L 3481 531 
L 3481 0 
L 794 0 
L 794 531 
z
" transform="scale(0.015625)"/>
        <path id="DejaVuSans-20" transform="scale(0.015625)"/>
       </defs>
       <use xlink:href="#DejaVuSans-30"/>
       <use xlink:href="#DejaVuSans-35" x="63.623047"/>
       <use xlink:href="#DejaVuSans-2d" x="127.246094"/>
       <use xlink:href="#DejaVuSans-31" x="163.330078"/>
       <use xlink:href="#DejaVuSans-30" x="226.953125"/>
       <use xlink:href="#DejaVuSans-20" x="290.576172"/>
       <use xlink:href="#DejaVuSans-30" x="322.363281"/>
       <use xlink:href="#DejaVuSans-30" x="385.986328"/>
      </g>
     </g>
    </g>
    <g id="xtick_2">
     <g id="line2d_2">
      <g>
       <use xlink:href="#md001ec8178" x="238.5503" y="359.517187" style="stroke: #000000; stroke-width: 0.8"/>
      </g>
     </g>
     <g id="text_2">
      <!-- 05-10 12 -->
      <g transform="translate(216.069831 374.115625) scale(0.1 -0.1)">
       <defs>
        <path id="DejaVuSans-32" d="M 1228 531 
L 3431 531 
L 3431 0 
L 469 0 
L 469 531 
Q 828 903 1448 1529 
Q 2069 2156 2228 2338 
Q 2531 2678 2651 2914 
Q 2772 3150 2772 3378 
Q 2772 3750 2511 3984 
Q 2250 4219 1831 4219 
Q 1534 4219 1204 4116 
Q 875 4013 500 3803 
L 500 4441 
Q 881 4594 1212 4672 
Q 1544 4750 1819 4750 
Q 2544 4750 2975 4387 
Q 3406 4025 3406 3419 
Q 3406 3131 3298 2873 
Q 3191 2616 2906 2266 
Q 2828 2175 2409 1742 
Q 1991 1309 1228 531 
z
" transform="scale(0.015625)"/>
       </defs>
       <use xlink:href="#DejaVuSans-30"/>
       <use xlink:href="#DejaVuSans-35" x="63.623047"/>
       <use xlink:href="#DejaVuSans-2d" x="127.246094"/>
       <use xlink:href="#DejaVuSans-31" x="163.330078"/>
       <use xlink:href="#DejaVuSans-30" x="226.953125"/>
       <use xlink:href="#DejaVuSans-20" x="290.576172"/>
       <use xlink:href="#DejaVuSans-31" x="322.363281"/>
       <use xlink:href="#DejaVuSans-32" x="385.986328"/>
      </g>
     </g>
    </g>
    <g id="xtick_3">
     <g id="line2d_3">
      <g>
       <use xlink:href="#md001ec8178" x="390.871958" y="359.517187" style="stroke: #000000; stroke-width: 0.8"/>
      </g>
     </g>
     <g id="text_3">
      <!-- 05-11 00 -->
      <g transform="translate(368.391489 374.115625) scale(0.1 -0.1)">
       <use xlink:href="#DejaVuSans-30"/>
       <use xlink:href="#DejaVuSans-35" x="63.623047"/>
       <use xlink:href="#DejaVuSans-2d" x="127.246094"/>
       <use xlink:href="#DejaVuSans-31" x="163.330078"/>
       <use xlink:href="#DejaVuSans-31" x="226.953125"/>
       <use xlink:href="#DejaVuSans-20" x="290.576172"/>
       <use xlink:href="#DejaVuSans-30" x="322.363281"/>
       <use xlink:href="#DejaVuSans-30" x="385.986328"/>
      </g>
     </g>
    </g>
    <g id="xtick_4">
     <g id="line2d_4">
      <g>
       <use xlink:href="#md001ec8178" x="543.193616" y="359.517187" style="stroke: #000000; stroke-width: 0.8"/>
      </g>
     </g>
     <g id="text_4">
      <!-- 05-11 12 -->
      <g transform="translate(520.713147 374.115625) scale(0.1 -0.1)">
       <use xlink:href="#DejaVuSans-30"/>
       <use xlink:href="#DejaVuSans-35" x="63.623047"/>
       <use xlink:href="#DejaVuSans-2d" x="127.246094"/>
       <use xlink:href="#DejaVuSans-31" x="163.330078"/>
       <use xlink:href="#DejaVuSans-31" x="226.953125"/>
       <use xlink:href="#DejaVuSans-20" x="290.576172"/>
       <use xlink:href="#DejaVuSans-31" x="322.363281"/>
       <use xlink:href="#DejaVuSans-32" x="385.986328"/>
      </g>
     </g>
    </g>
    <g id="xtick_5">
     <g id="line2d_5">
      <g>
       <use xlink:href="#md001ec8178" x="695.515273" y="359.517187" style="stroke: #000000; stroke-width: 0.8"/>
      </g>
     </g>
     <g id="text_5">
      <!-- 05-12 00 -->
      <g transform="translate(673.034805 374.115625) scale(0.1 -0.1)">
       <use xlink:href="#DejaVuSans-30"/>
       <use xlink:href="#DejaVuSans-35" x="63.623047"/>
       <use xlink:href="#DejaVuSans-2d" x="127.246094"/>
       <use xlink:href="#DejaVuSans-31" x="163.330078"/>
       <use xlink:href="#DejaVuSans-32" x="226.953125"/>
       <use xlink:href="#DejaVuSans-20" x="290.576172"/>
       <use xlink:href="#DejaVuSans-30" x="322.363281"/>
       <use xlink:href="#DejaVuSans-30" x="385.986328"/>
      </g>
     </g>
    </g>
    <g id="xtick_6">
     <g id="line2d_6">
      <g>
       <use xlink:href="#md001ec8178" x="847.836931" y="359.517187" style="stroke: #000000; stroke-width: 0.8"/>
      </g>
     </g>
     <g id="text_6">
      <!-- 05-12 12 -->
      <g transform="translate(825.356463 374.115625) scale(0.1 -0.1)">
       <use xlink:href="#DejaVuSans-30"/>
       <use xlink:href="#DejaVuSans-35" x="63.623047"/>
       <use xlink:href="#DejaVuSans-2d" x="127.246094"/>
       <use xlink:href="#DejaVuSans-31" x="163.330078"/>
       <use xlink:href="#DejaVuSans-32" x="226.953125"/>
       <use xlink:href="#DejaVuSans-20" x="290.576172"/>
       <use xlink:href="#DejaVuSans-31" x="322.363281"/>
       <use xlink:href="#DejaVuSans-32" x="385.986328"/>
      </g>
     </g>
    </g>
    <g id="xtick_7">
     <g id="line2d_7">
      <g>
       <use xlink:href="#md001ec8178" x="1000.158589" y="359.517187" style="stroke: #000000; stroke-width: 0.8"/>
      </g>
     </g>
     <g id="text_7">
      <!-- 05-13 00 -->
      <g transform="translate(977.678121 374.115625) scale(0.1 -0.1)">
       <defs>
        <path id="DejaVuSans-33" d="M 2597 2516 
Q 3050 2419 3304 2112 
Q 3559 1806 3559 1356 
Q 3559 666 3084 287 
Q 2609 -91 1734 -91 
Q 1441 -91 1130 -33 
Q 819 25 488 141 
L 488 750 
Q 750 597 1062 519 
Q 1375 441 1716 441 
Q 2309 441 2620 675 
Q 2931 909 2931 1356 
Q 2931 1769 2642 2001 
Q 2353 2234 1838 2234 
L 1294 2234 
L 1294 2753 
L 1863 2753 
Q 2328 2753 2575 2939 
Q 2822 3125 2822 3475 
Q 2822 3834 2567 4026 
Q 2313 4219 1838 4219 
Q 1578 4219 1281 4162 
Q 984 4106 628 3988 
L 628 4550 
Q 988 4650 1302 4700 
Q 1616 4750 1894 4750 
Q 2613 4750 3031 4423 
Q 3450 4097 3450 3541 
Q 3450 3153 3228 2886 
Q 3006 2619 2597 2516 
z
" transform="scale(0.015625)"/>
       </defs>
       <use xlink:href="#DejaVuSans-30"/>
       <use xlink:href="#DejaVuSans-35" x="63.623047"/>
       <use xlink:href="#DejaVuSans-2d" x="127.246094"/>
       <use xlink:href="#DejaVuSans-31" x="163.330078"/>
       <use xlink:href="#DejaVuSans-33" x="226.953125"/>
       <use xlink:href="#DejaVuSans-20" x="290.576172"/>
       <use xlink:href="#DejaVuSans-30" x="322.363281"/>
       <use xlink:href="#DejaVuSans-30" x="385.986328"/>
      </g>
     </g>
    </g>
    <g id="xtick_8">
     <g id="line2d_8">
      <g>
       <use xlink:href="#md001ec8178" x="1152.480247" y="359.517187" style="stroke: #000000; stroke-width: 0.8"/>
      </g>
     </g>
     <g id="text_8">
      <!-- 05-13 12 -->
      <g transform="translate(1129.999778 374.115625) scale(0.1 -0.1)">
       <use xlink:href="#DejaVuSans-30"/>
       <use xlink:href="#DejaVuSans-35" x="63.623047"/>
       <use xlink:href="#DejaVuSans-2d" x="127.246094"/>
       <use xlink:href="#DejaVuSans-31" x="163.330078"/>
       <use xlink:href="#DejaVuSans-33" x="226.953125"/>
       <use xlink:href="#DejaVuSans-20" x="290.576172"/>
       <use xlink:href="#DejaVuSans-31" x="322.363281"/>
       <use xlink:href="#DejaVuSans-32" x="385.986328"/>
      </g>
     </g>
    </g>
    <g id="text_9">
     <!-- Time -->
     <g transform="translate(592.554688 389.313437) scale(0.12 -0.12)">
      <defs>
       <path id="DejaVuSans-54" d="M -19 4666 
L 3928 4666 
L 3928 4134 
L 2272 4134 
L 2272 0 
L 1638 0 
L 1638 4134 
L -19 4134 
L -19 4666 
z
" transform="scale(0.015625)"/>
       <path id="DejaVuSans-69" d="M 603 3500 
L 1178 3500 
L 1178 0 
L 603 0 
L 603 3500 
z
M 603 4863 
L 1178 4863 
L 1178 4134 
L 603 4134 
L 603 4863 
z
" transform="scale(0.015625)"/>
       <path id="DejaVuSans-6d" d="M 3328 2828 
Q 3544 3216 3844 3400 
Q 4144 3584 4550 3584 
Q 5097 3584 5394 3201 
Q 5691 2819 5691 2113 
L 5691 0 
L 5113 0 
L 5113 2094 
Q 5113 2597 4934 2840 
Q 4756 3084 4391 3084 
Q 3944 3084 3684 2787 
Q 3425 2491 3425 1978 
L 3425 0 
L 2847 0 
L 2847 2094 
Q 2847 2600 2669 2842 
Q 2491 3084 2119 3084 
Q 1678 3084 1418 2786 
Q 1159 2488 1159 1978 
L 1159 0 
L 581 0 
L 581 3500 
L 1159 3500 
L 1159 2956 
Q 1356 3278 1631 3431 
Q 1906 3584 2284 3584 
Q 2666 3584 2933 3390 
Q 3200 3197 3328 2828 
z
" transform="scale(0.015625)"/>
       <path id="DejaVuSans-65" d="M 3597 1894 
L 3597 1613 
L 953 1613 
Q 991 1019 1311 708 
Q 1631 397 2203 397 
Q 2534 397 2845 478 
Q 3156 559 3463 722 
L 3463 178 
Q 3153 47 2828 -22 
Q 2503 -91 2169 -91 
Q 1331 -91 842 396 
Q 353 884 353 1716 
Q 353 2575 817 3079 
Q 1281 3584 2069 3584 
Q 2775 3584 3186 3129 
Q 3597 2675 3597 1894 
z
M 3022 2063 
Q 3016 2534 2758 2815 
Q 2500 3097 2075 3097 
Q 1594 3097 1305 2825 
Q 1016 2553 972 2059 
L 3022 2063 
z
" transform="scale(0.015625)"/>
      </defs>
      <use xlink:href="#DejaVuSans-54"/>
      <use xlink:href="#DejaVuSans-69" x="57.958984"/>
      <use xlink:href="#DejaVuSans-6d" x="85.742188"/>
      <use xlink:href="#DejaVuSans-65" x="183.154297"/>
     </g>
    </g>
   </g>
   <g id="matplotlib.axis_2">
    <g id="ytick_1">
     <g id="line2d_9">
      <defs>
       <path id="me0213808cb" d="M 0 0 
L -3.5 0 
" style="stroke: #000000; stroke-width: 0.8"/>
      </defs>
      <g>
       <use xlink:href="#me0213808cb" x="49.235" y="344.397187" style="stroke: #000000; stroke-width: 0.8"/>
      </g>
     </g>
     <g id="text_10">
      <!-- 0 -->
      <g transform="translate(35.8725 348.196406) scale(0.1 -0.1)">
       <use xlink:href="#DejaVuSans-30"/>
      </g>
     </g>
    </g>
    <g id="ytick_2">
     <g id="line2d_10">
      <g>
       <use xlink:href="#me0213808cb" x="49.235" y="298.439741" style="stroke: #000000; stroke-width: 0.8"/>
      </g>
     </g>
     <g id="text_11">
      <!-- 100 -->
      <g transform="translate(23.1475 302.238959) scale(0.1 -0.1)">
       <use xlink:href="#DejaVuSans-31"/>
       <use xlink:href="#DejaVuSans-30" x="63.623047"/>
       <use xlink:href="#DejaVuSans-30" x="127.246094"/>
      </g>
     </g>
    </g>
    <g id="ytick_3">
     <g id="line2d_11">
      <g>
       <use xlink:href="#me0213808cb" x="49.235" y="252.482294" style="stroke: #000000; stroke-width: 0.8"/>
      </g>
     </g>
     <g id="text_12">
      <!-- 200 -->
      <g transform="translate(23.1475 256.281513) scale(0.1 -0.1)">
       <use xlink:href="#DejaVuSans-32"/>
       <use xlink:href="#DejaVuSans-30" x="63.623047"/>
       <use xlink:href="#DejaVuSans-30" x="127.246094"/>
      </g>
     </g>
    </g>
    <g id="ytick_4">
     <g id="line2d_12">
      <g>
       <use xlink:href="#me0213808cb" x="49.235" y="206.524847" style="stroke: #000000; stroke-width: 0.8"/>
      </g>
     </g>
     <g id="text_13">
      <!-- 300 -->
      <g transform="translate(23.1475 210.324066) scale(0.1 -0.1)">
       <use xlink:href="#DejaVuSans-33"/>
       <use xlink:href="#DejaVuSans-30" x="63.623047"/>
       <use xlink:href="#DejaVuSans-30" x="127.246094"/>
      </g>
     </g>
    </g>
    <g id="ytick_5">
     <g id="line2d_13">
      <g>
       <use xlink:href="#me0213808cb" x="49.235" y="160.5674" style="stroke: #000000; stroke-width: 0.8"/>
      </g>
     </g>
     <g id="text_14">
      <!-- 400 -->
      <g transform="translate(23.1475 164.366619) scale(0.1 -0.1)">
       <defs>
        <path id="DejaVuSans-34" d="M 2419 4116 
L 825 1625 
L 2419 1625 
L 2419 4116 
z
M 2253 4666 
L 3047 4666 
L 3047 1625 
L 3713 1625 
L 3713 1100 
L 3047 1100 
L 3047 0 
L 2419 0 
L 2419 1100 
L 313 1100 
L 313 1709 
L 2253 4666 
z
" transform="scale(0.015625)"/>
       </defs>
       <use xlink:href="#DejaVuSans-34"/>
       <use xlink:href="#DejaVuSans-30" x="63.623047"/>
       <use xlink:href="#DejaVuSans-30" x="127.246094"/>
      </g>
     </g>
    </g>
    <g id="ytick_6">
     <g id="line2d_14">
      <g>
       <use xlink:href="#me0213808cb" x="49.235" y="114.609953" style="stroke: #000000; stroke-width: 0.8"/>
      </g>
     </g>
     <g id="text_15">
      <!-- 500 -->
      <g transform="translate(23.1475 118.409172) scale(0.1 -0.1)">
       <use xlink:href="#DejaVuSans-35"/>
       <use xlink:href="#DejaVuSans-30" x="63.623047"/>
       <use xlink:href="#DejaVuSans-30" x="127.246094"/>
      </g>
     </g>
    </g>
    <g id="ytick_7">
     <g id="line2d_15">
      <g>
       <use xlink:href="#me0213808cb" x="49.235" y="68.652507" style="stroke: #000000; stroke-width: 0.8"/>
      </g>
     </g>
     <g id="text_16">
      <!-- 600 -->
      <g transform="translate(23.1475 72.451725) scale(0.1 -0.1)">
       <defs>
        <path id="DejaVuSans-36" d="M 2113 2584 
Q 1688 2584 1439 2293 
Q 1191 2003 1191 1497 
Q 1191 994 1439 701 
Q 1688 409 2113 409 
Q 2538 409 2786 701 
Q 3034 994 3034 1497 
Q 3034 2003 2786 2293 
Q 2538 2584 2113 2584 
z
M 3366 4563 
L 3366 3988 
Q 3128 4100 2886 4159 
Q 2644 4219 2406 4219 
Q 1781 4219 1451 3797 
Q 1122 3375 1075 2522 
Q 1259 2794 1537 2939 
Q 1816 3084 2150 3084 
Q 2853 3084 3261 2657 
Q 3669 2231 3669 1497 
Q 3669 778 3244 343 
Q 2819 -91 2113 -91 
Q 1303 -91 875 529 
Q 447 1150 447 2328 
Q 447 3434 972 4092 
Q 1497 4750 2381 4750 
Q 2619 4750 2861 4703 
Q 3103 4656 3366 4563 
z
" transform="scale(0.015625)"/>
       </defs>
       <use xlink:href="#DejaVuSans-36"/>
       <use xlink:href="#DejaVuSans-30" x="63.623047"/>
       <use xlink:href="#DejaVuSans-30" x="127.246094"/>
      </g>
     </g>
    </g>
    <g id="text_17">
     <!-- Pellet_Count -->
     <g transform="translate(16.318125 230.485312) rotate(-90) scale(0.12 -0.12)">
      <defs>
       <path id="DejaVuSans-50" d="M 1259 4147 
L 1259 2394 
L 2053 2394 
Q 2494 2394 2734 2622 
Q 2975 2850 2975 3272 
Q 2975 3691 2734 3919 
Q 2494 4147 2053 4147 
L 1259 4147 
z
M 628 4666 
L 2053 4666 
Q 2838 4666 3239 4311 
Q 3641 3956 3641 3272 
Q 3641 2581 3239 2228 
Q 2838 1875 2053 1875 
L 1259 1875 
L 1259 0 
L 628 0 
L 628 4666 
z
" transform="scale(0.015625)"/>
       <path id="DejaVuSans-6c" d="M 603 4863 
L 1178 4863 
L 1178 0 
L 603 0 
L 603 4863 
z
" transform="scale(0.015625)"/>
       <path id="DejaVuSans-74" d="M 1172 4494 
L 1172 3500 
L 2356 3500 
L 2356 3053 
L 1172 3053 
L 1172 1153 
Q 1172 725 1289 603 
Q 1406 481 1766 481 
L 2356 481 
L 2356 0 
L 1766 0 
Q 1100 0 847 248 
Q 594 497 594 1153 
L 594 3053 
L 172 3053 
L 172 3500 
L 594 3500 
L 594 4494 
L 1172 4494 
z
" transform="scale(0.015625)"/>
       <path id="DejaVuSans-5f" d="M 3263 -1063 
L 3263 -1509 
L -63 -1509 
L -63 -1063 
L 3263 -1063 
z
" transform="scale(0.015625)"/>
       <path id="DejaVuSans-43" d="M 4122 4306 
L 4122 3641 
Q 3803 3938 3442 4084 
Q 3081 4231 2675 4231 
Q 1875 4231 1450 3742 
Q 1025 3253 1025 2328 
Q 1025 1406 1450 917 
Q 1875 428 2675 428 
Q 3081 428 3442 575 
Q 3803 722 4122 1019 
L 4122 359 
Q 3791 134 3420 21 
Q 3050 -91 2638 -91 
Q 1578 -91 968 557 
Q 359 1206 359 2328 
Q 359 3453 968 4101 
Q 1578 4750 2638 4750 
Q 3056 4750 3426 4639 
Q 3797 4528 4122 4306 
z
" transform="scale(0.015625)"/>
       <path id="DejaVuSans-6f" d="M 1959 3097 
Q 1497 3097 1228 2736 
Q 959 2375 959 1747 
Q 959 1119 1226 758 
Q 1494 397 1959 397 
Q 2419 397 2687 759 
Q 2956 1122 2956 1747 
Q 2956 2369 2687 2733 
Q 2419 3097 1959 3097 
z
M 1959 3584 
Q 2709 3584 3137 3096 
Q 3566 2609 3566 1747 
Q 3566 888 3137 398 
Q 2709 -91 1959 -91 
Q 1206 -91 779 398 
Q 353 888 353 1747 
Q 353 2609 779 3096 
Q 1206 3584 1959 3584 
z
" transform="scale(0.015625)"/>
       <path id="DejaVuSans-75" d="M 544 1381 
L 544 3500 
L 1119 3500 
L 1119 1403 
Q 1119 906 1312 657 
Q 1506 409 1894 409 
Q 2359 409 2629 706 
Q 2900 1003 2900 1516 
L 2900 3500 
L 3475 3500 
L 3475 0 
L 2900 0 
L 2900 538 
Q 2691 219 2414 64 
Q 2138 -91 1772 -91 
Q 1169 -91 856 284 
Q 544 659 544 1381 
z
M 1991 3584 
L 1991 3584 
z
" transform="scale(0.015625)"/>
       <path id="DejaVuSans-6e" d="M 3513 2113 
L 3513 0 
L 2938 0 
L 2938 2094 
Q 2938 2591 2744 2837 
Q 2550 3084 2163 3084 
Q 1697 3084 1428 2787 
Q 1159 2491 1159 1978 
L 1159 0 
L 581 0 
L 581 3500 
L 1159 3500 
L 1159 2956 
Q 1366 3272 1645 3428 
Q 1925 3584 2291 3584 
Q 2894 3584 3203 3211 
Q 3513 2838 3513 2113 
z
" transform="scale(0.015625)"/>
      </defs>
      <use xlink:href="#DejaVuSans-50"/>
      <use xlink:href="#DejaVuSans-65" x="56.677734"/>
      <use xlink:href="#DejaVuSans-6c" x="118.201172"/>
      <use xlink:href="#DejaVuSans-6c" x="145.984375"/>
      <use xlink:href="#DejaVuSans-65" x="173.767578"/>
      <use xlink:href="#DejaVuSans-74" x="235.291016"/>
      <use xlink:href="#DejaVuSans-5f" x="274.5"/>
      <use xlink:href="#DejaVuSans-43" x="324.5"/>
      <use xlink:href="#DejaVuSans-6f" x="394.324219"/>
      <use xlink:href="#DejaVuSans-75" x="455.505859"/>
      <use xlink:href="#DejaVuSans-6e" x="518.884766"/>
      <use xlink:href="#DejaVuSans-74" x="582.263672"/>
     </g>
    </g>
   </g>
   <g id="line2d_16">
    <path d="M 99.962273 344.397187 
L 100.367759 344.397187 
L 100.561687 343.937613 
L 100.741511 343.937613 
L 100.921335 343.478039 
L 102.113111 343.478039 
L 102.162474 343.018464 
L 102.539753 343.018464 
L 102.642006 342.55889 
L 104.235741 342.55889 
L 104.56013 342.099315 
L 104.898623 342.099315 
L 105.223011 341.639741 
L 107.684135 341.639741 
L 107.782862 341.180166 
L 110.790509 341.180166 
L 110.797561 340.720592 
L 116.298065 340.720592 
L 116.340377 340.261017 
L 116.7917 340.261017 
L 116.802278 339.801443 
L 119.559582 339.801443 
L 119.563108 339.341868 
L 119.693569 339.341868 
L 119.704147 338.882294 
L 119.943912 338.882294 
L 119.950964 338.422719 
L 120.127263 338.422719 
L 120.144892 337.963145 
L 120.352924 337.963145 
L 120.448125 337.043996 
L 120.807774 337.043996 
L 120.818352 336.584422 
L 121.266149 336.584422 
L 121.276727 336.124847 
L 124.058713 336.124847 
L 124.069291 335.665273 
L 124.421887 335.665273 
L 124.446569 335.205698 
L 125.574877 335.205698 
L 125.585455 334.746124 
L 126.519836 334.746124 
L 126.604459 333.826975 
L 126.671452 333.826975 
L 126.68203 333.3674 
L 126.992315 333.3674 
L 127.002893 332.907826 
L 127.246185 332.907826 
L 127.256762 332.448251 
L 128.05363 332.448251 
L 128.155883 331.988677 
L 131.262258 331.988677 
L 131.279888 331.529102 
L 131.392719 331.529102 
L 131.477342 331.069528 
L 131.565491 331.069528 
L 131.664218 330.150379 
L 131.745315 330.150379 
L 131.752367 329.690805 
L 132.179009 329.690805 
L 132.189586 329.23123 
L 132.40467 329.23123 
L 132.496345 328.771656 
L 135.119663 328.771656 
L 135.21839 327.852507 
L 135.320643 327.852507 
L 135.394688 326.933358 
L 135.511045 326.933358 
L 135.518097 326.473783 
L 136.184504 326.473783 
L 136.18803 326.014209 
L 139.470703 326.014209 
L 139.840929 325.554634 
L 141.857781 325.554634 
L 142.781583 325.09506 
L 142.792161 324.635485 
L 143.691282 324.635485 
L 144.167287 324.175911 
L 145.119298 324.175911 
L 145.225076 323.716336 
L 148.007062 323.716336 
L 148.416074 323.256762 
L 148.870924 323.256762 
L 148.997858 322.797187 
L 149.794726 322.797187 
L 149.801778 322.337613 
L 149.953395 322.337613 
L 149.963973 321.878039 
L 152.982198 321.878039 
L 153.525196 321.418464 
L 158.190047 321.418464 
L 158.200625 320.95889 
L 158.588481 320.95889 
L 158.606111 320.499315 
L 160.594755 320.499315 
L 160.725216 320.039741 
L 160.753423 320.039741 
L 160.841572 319.580166 
L 162.819638 319.580166 
L 163.09819 318.201443 
L 163.22865 318.201443 
L 163.348533 316.822719 
L 163.443734 316.822719 
L 163.545987 315.443996 
L 163.641188 315.443996 
L 163.662344 314.984422 
L 163.923265 314.984422 
L 165.065678 314.524847 
L 165.393592 314.524847 
L 165.703877 314.065273 
L 165.908383 314.065273 
L 166.000058 313.605698 
L 166.052948 313.605698 
L 166.109363 312.686549 
L 167.61495 312.686549 
L 167.688995 312.226975 
L 168.055695 311.7674 
L 170.467455 311.7674 
L 170.619071 311.307826 
L 170.809473 311.307826 
L 170.862363 310.848251 
L 171.422991 310.848251 
L 172.706442 310.388677 
L 173.947582 310.388677 
L 174.032205 309.929102 
L 175.34739 309.929102 
L 175.34739 309.929102 
L 175.470798 309.469528 
L 179.476294 309.469528 
L 179.596177 308.550379 
L 179.666696 308.550379 
L 179.677274 308.090805 
L 183.033992 308.090805 
L 183.125667 307.171656 
L 183.21029 307.171656 
L 183.340751 305.792932 
L 183.414796 305.792932 
L 183.485315 305.333358 
L 186.083951 305.333358 
L 186.105107 304.873783 
L 189.564078 304.873783 
L 189.574656 304.414209 
L 190.600711 304.414209 
L 190.692386 303.49506 
L 190.787587 303.49506 
L 190.798165 303.035485 
L 192.839698 303.035485 
L 192.843224 302.575911 
L 192.977211 302.575911 
L 193.072412 301.656762 
L 194.310026 301.656762 
L 194.320603 301.197187 
L 197.374089 301.197187 
L 197.458712 300.278039 
L 197.525705 300.278039 
L 197.642062 299.35889 
L 197.723159 298.439741 
L 197.807782 298.439741 
L 197.938243 297.980166 
L 201.390162 297.980166 
L 201.883797 297.520592 
L 202.00368 297.061017 
L 202.017784 297.061017 
L 202.148244 295.682294 
L 202.194082 295.682294 
L 202.289283 294.763145 
L 204.799769 294.763145 
L 205.76941 294.30357 
L 206.08322 294.30357 
L 206.08322 294.30357 
L 206.192525 293.384422 
L 209.376471 293.384422 
L 209.485776 292.924847 
L 209.588029 292.465273 
L 209.750223 292.465273 
L 210.071086 292.005698 
L 219.094029 292.005698 
L 219.795696 291.546124 
L 222.052313 291.546124 
L 222.175721 290.626975 
L 222.285026 290.626975 
L 222.366124 289.707826 
L 222.471902 289.707826 
L 222.489532 289.248251 
L 222.612941 289.248251 
L 222.623519 288.788677 
L 222.789239 288.788677 
L 222.799817 288.329102 
L 223.30403 288.329102 
L 223.529692 287.409953 
L 226.124801 287.409953 
L 226.142431 286.950379 
L 226.269366 286.950379 
L 226.639592 286.490805 
L 227.101494 286.490805 
L 227.348311 286.03123 
L 245.42593 286.03123 
L 245.432982 285.571656 
L 245.581073 285.571656 
L 245.683325 284.652507 
L 246.032396 284.652507 
L 246.039448 284.192932 
L 246.272162 284.192932 
L 246.367363 283.273783 
L 246.44846 283.273783 
L 246.543661 282.354634 
L 249.868645 282.354634 
L 249.872171 281.89506 
L 249.985002 281.89506 
L 249.988528 281.435485 
L 250.464533 281.435485 
L 250.468059 280.975911 
L 250.669039 280.975911 
L 250.676091 280.516336 
L 256.730172 280.516336 
L 256.737224 280.056762 
L 257.512936 280.056762 
L 257.544669 279.597187 
L 269.367228 279.597187 
L 269.518844 278.678039 
L 269.656357 278.678039 
L 269.751558 277.75889 
L 269.874967 277.75889 
L 269.878493 277.299315 
L 269.994849 277.299315 
L 270.100628 276.380166 
L 270.192303 276.380166 
L 270.305134 275.461017 
L 281.693999 275.461017 
L 281.693999 275.461017 
L 281.708103 275.001443 
L 281.898505 275.001443 
L 281.905557 274.541868 
L 282.071277 274.541868 
L 282.180582 273.622719 
L 282.236997 273.622719 
L 282.236997 273.622719 
L 282.254627 273.163145 
L 282.367458 273.163145 
L 282.452081 272.243996 
L 282.526126 272.243996 
L 282.621328 271.324847 
L 282.684795 271.324847 
L 282.77647 270.405698 
L 282.829359 270.405698 
L 282.836411 269.946124 
L 286.380005 269.946124 
L 287.138088 269.486549 
L 300.106585 269.486549 
L 300.117162 269.026975 
L 300.289935 269.026975 
L 300.392188 268.107826 
L 300.480337 268.107826 
L 300.487389 267.648251 
L 300.882297 267.648251 
L 300.928134 267.188677 
L 304.013353 267.188677 
L 304.013353 267.188677 
L 304.108554 266.269528 
L 304.172021 266.269528 
L 304.239015 265.350379 
L 304.320112 265.350379 
L 304.327164 264.890805 
L 319.199681 264.890805 
L 319.206733 264.43123 
L 319.347772 264.43123 
L 319.354824 263.971656 
L 330.204216 263.971656 
L 330.211268 263.512081 
L 330.345254 263.512081 
L 330.352306 263.052507 
L 330.496871 263.052507 
L 330.606176 262.592932 
L 330.606176 262.592932 
L 330.630857 262.133358 
L 330.76837 262.133358 
L 330.775422 261.673783 
L 336.695516 261.673783 
L 336.706094 261.214209 
L 337.989545 261.214209 
L 338.014227 260.754634 
L 338.29983 260.754634 
L 338.31746 260.29506 
L 350.852263 260.29506 
L 350.859315 259.835485 
L 351.025035 259.835485 
L 351.028561 259.375911 
L 351.176651 259.375911 
L 351.183703 258.916336 
L 351.310638 258.916336 
L 351.31769 258.456762 
L 351.458729 258.456762 
L 351.571559 257.997187 
L 367.720476 257.997187 
L 367.73458 257.537613 
L 368.376305 255.239741 
L 368.841733 255.239741 
L 368.876992 254.780166 
L 379.553612 254.780166 
L 379.613554 254.320592 
L 379.733436 254.320592 
L 379.860371 253.861017 
L 380.008462 253.861017 
L 380.117766 252.941868 
L 387.649226 252.941868 
L 387.652752 252.482294 
L 387.86431 252.482294 
L 387.903096 252.022719 
L 392.58205 252.022719 
L 392.723089 251.563145 
L 392.832394 251.563145 
L 392.917017 251.10357 
L 393.075685 250.184422 
L 393.163834 250.184422 
L 393.287243 249.724847 
L 403.9145 249.724847 
L 403.967389 249.265273 
L 404.154265 249.265273 
L 404.164843 248.805698 
L 404.2812 248.805698 
L 404.394031 248.346124 
L 404.506862 248.346124 
L 404.609115 247.886549 
L 404.672582 247.426975 
L 408.216176 247.426975 
L 408.318429 246.507826 
L 410.113145 246.507826 
L 410.194242 246.048251 
L 410.377592 246.048251 
L 410.483371 245.588677 
L 418.025409 245.588677 
L 418.187603 245.129102 
L 430.560212 245.129102 
L 432.101058 244.669528 
L 432.252675 244.209953 
L 432.679316 244.209953 
L 432.732206 243.750379 
L 433.049543 243.750379 
L 433.053069 243.290805 
L 434.66796 243.290805 
L 434.675012 242.83123 
L 436.600189 242.83123 
L 436.709494 242.371656 
L 436.709494 242.371656 
L 436.727123 241.912081 
L 437.523991 241.912081 
L 437.643874 240.992932 
L 442.19942 240.992932 
L 442.259361 240.073783 
L 442.343985 240.073783 
L 442.446237 239.154634 
L 442.530861 239.154634 
L 442.544964 238.69506 
L 444.240953 238.69506 
L 444.248005 238.235485 
L 445.383366 238.235485 
L 445.436255 237.775911 
L 448.211189 237.775911 
L 448.32402 237.316336 
L 448.338124 237.316336 
L 448.422747 236.397187 
L 449.219615 236.397187 
L 449.219615 236.397187 
L 449.240771 235.937613 
L 452.174373 235.937613 
L 452.287204 234.55889 
L 452.336567 234.55889 
L 452.449398 233.639741 
L 454.892891 233.639741 
L 454.952833 233.180166 
L 455.368897 233.180166 
L 455.442942 232.720592 
L 456.698185 232.720592 
L 457.699559 232.261017 
L 457.766552 231.341868 
L 457.83002 231.341868 
L 457.925221 230.422719 
L 461.419451 230.422719 
L 461.426503 229.963145 
L 464.271957 229.963145 
L 464.370684 229.043996 
L 464.472936 229.043996 
L 464.610449 228.584422 
L 466.084302 228.584422 
L 466.108984 228.124847 
L 467.004579 228.124847 
L 467.120936 227.205698 
L 467.226715 227.205698 
L 467.30076 226.286549 
L 467.431221 226.286549 
L 467.487636 225.3674 
L 468.566581 225.3674 
L 468.577159 224.907826 
L 469.151891 224.907826 
L 469.162469 224.448251 
L 472.032604 224.448251 
L 472.131331 223.529102 
L 472.212428 223.529102 
L 472.293525 222.609953 
L 472.388726 222.609953 
L 472.512135 221.23123 
L 472.596758 221.23123 
L 472.737797 219.852507 
L 472.797738 219.852507 
L 472.85768 219.392932 
L 474.712337 219.392932 
L 475.223602 218.933358 
L 475.230654 218.473783 
L 477.127622 218.473783 
L 477.268661 218.014209 
L 478.541534 218.014209 
L 478.640261 217.554634 
L 479.53233 217.554634 
L 480.593645 217.09506 
L 484.045564 217.09506 
L 484.172499 215.716336 
L 484.214811 215.716336 
L 484.214811 215.716336 
L 484.331167 214.337613 
L 484.394635 214.337613 
L 484.465154 213.418464 
L 487.733723 213.418464 
L 488.047534 212.95889 
L 500.815051 212.95889 
L 500.927881 212.499315 
L 500.973719 212.499315 
L 501.08655 211.580166 
L 501.241692 211.580166 
L 501.245218 211.120592 
L 501.922203 211.120592 
L 502.017404 210.201443 
L 502.084398 210.201443 
L 502.161969 209.282294 
L 502.232488 209.282294 
L 502.303008 208.363145 
L 502.366475 208.363145 
L 502.45815 207.443996 
L 502.528669 207.443996 
L 502.60624 206.524847 
L 516.618423 206.524847 
L 516.703046 206.065273 
L 516.84761 206.065273 
L 516.949863 205.146124 
L 517.006279 205.146124 
L 517.087376 204.226975 
L 517.136739 204.226975 
L 517.221362 203.307826 
L 517.281304 203.307826 
L 517.362401 202.388677 
L 517.422342 202.388677 
L 517.570433 201.009953 
L 517.644478 201.009953 
L 517.799621 200.550379 
L 520.567503 200.550379 
L 521.773382 200.090805 
L 521.78396 199.63123 
L 522.401004 199.63123 
L 524.382596 199.171656 
L 526.759096 199.171656 
L 526.878979 198.252507 
L 526.942446 198.252507 
L 527.023543 197.333358 
L 527.079959 197.333358 
L 527.199841 195.954634 
L 527.266835 195.954634 
L 527.273887 195.49506 
L 530.048821 195.49506 
L 530.845689 195.035485 
L 538.729745 195.035485 
L 538.743849 194.575911 
L 543.5039 194.575911 
L 543.507426 194.116336 
L 559.434207 194.116336 
L 560.248705 189.980166 
L 560.34038 189.061017 
L 564.543329 189.061017 
L 565.273204 188.601443 
L 580.12104 188.601443 
L 580.209189 187.682294 
L 580.283234 187.682294 
L 580.357279 186.763145 
L 580.463058 186.763145 
L 580.544155 185.843996 
L 580.628779 185.843996 
L 580.72398 184.924847 
L 581.834658 184.924847 
L 581.84171 184.465273 
L 604.527765 184.465273 
L 604.555972 184.005698 
L 604.735797 184.005698 
L 604.859205 183.086549 
L 605.373996 183.086549 
L 605.472723 182.1674 
L 605.532664 182.1674 
L 605.645495 180.788677 
L 605.701911 180.788677 
L 605.842949 179.409953 
L 606.177916 179.409953 
L 621.685107 178.950379 
L 621.688633 178.490805 
L 625.119396 178.490805 
L 625.204019 177.571656 
L 625.256909 177.571656 
L 625.267487 177.112081 
L 625.859849 177.112081 
L 625.870427 176.652507 
L 639.177416 176.652507 
L 639.283195 176.192932 
L 639.381922 176.192932 
L 639.455967 175.273783 
L 639.544116 175.273783 
L 639.614635 174.814209 
L 639.903764 172.975911 
L 639.984862 172.975911 
L 640.058907 172.056762 
L 650.982344 172.056762 
L 650.989396 171.597187 
L 655.192346 171.597187 
L 655.40743 171.137613 
L 673.58025 171.137613 
L 673.675451 170.218464 
L 673.742444 170.218464 
L 673.823541 169.299315 
L 673.897586 169.299315 
L 673.971632 168.380166 
L 674.028047 168.380166 
L 674.123248 167.461017 
L 674.193767 167.461017 
L 674.207871 167.001443 
L 676.136574 167.001443 
L 692.394795 166.541868 
L 692.401847 166.082294 
L 692.549937 166.082294 
L 692.655716 165.163145 
L 692.891956 165.163145 
L 693.004787 164.70357 
L 694.397543 164.70357 
L 694.563263 164.243996 
L 696.135843 164.243996 
L 697.105483 163.784422 
L 697.116061 163.324847 
L 700.285903 163.324847 
L 700.292955 162.865273 
L 702.14056 162.865273 
L 702.22871 162.405698 
L 703.039681 162.405698 
L 703.113727 161.946124 
L 710.246752 161.946124 
L 710.352531 161.026975 
L 710.729809 161.026975 
L 710.743913 160.5674 
L 713.659886 160.5674 
L 713.783295 159.648251 
L 715.599166 159.648251 
L 716.748631 159.188677 
L 717.270473 159.188677 
L 717.393882 158.729102 
L 719.996044 158.729102 
L 720.003096 158.269528 
L 722.213875 158.269528 
L 722.224453 157.809953 
L 740.284442 157.809953 
L 740.298546 157.350379 
L 749.786916 157.350379 
L 749.793968 156.890805 
L 749.910325 156.890805 
L 750.012578 155.971656 
L 750.104253 155.971656 
L 750.234713 154.592932 
L 750.319337 154.592932 
L 750.650777 152.29506 
L 750.887017 150.456762 
L 751.296029 150.456762 
L 751.3736 149.537613 
L 758.890956 149.537613 
L 759.003787 149.078039 
L 759.05315 149.078039 
L 759.165981 148.618464 
L 759.218871 148.618464 
L 759.335227 147.699315 
L 759.398695 147.699315 
L 759.405747 147.239741 
L 759.532681 147.239741 
L 759.610253 146.780166 
L 759.959323 146.780166 
L 759.959323 146.780166 
L 760.142673 146.320592 
L 761.697623 146.320592 
L 761.750513 145.861017 
L 766.299007 145.861017 
L 766.302533 145.401443 
L 769.010473 145.401443 
L 769.130356 144.482294 
L 769.229083 144.482294 
L 769.32781 144.022719 
L 772.398925 144.022719 
L 772.50823 143.10357 
L 772.606957 143.10357 
L 772.698632 142.184422 
L 772.747996 142.184422 
L 772.825567 141.265273 
L 772.896086 141.265273 
L 773.012443 140.346124 
L 773.023021 140.346124 
L 773.100592 139.426975 
L 773.174637 139.426975 
L 773.181689 138.9674 
L 777.871222 138.9674 
L 777.959371 138.507826 
L 777.998156 138.507826 
L 778.068676 138.048251 
L 780.307663 138.048251 
L 780.409916 137.129102 
L 780.582688 137.129102 
L 780.684941 135.750379 
L 780.755461 135.750379 
L 780.885921 134.371656 
L 780.945863 134.371656 
L 781.065745 132.992932 
L 781.125687 132.992932 
L 781.196206 132.073783 
L 781.933133 132.073783 
L 781.936659 131.614209 
L 782.483183 131.614209 
L 782.976818 131.154634 
L 784.57408 131.154634 
L 785.028929 130.235485 
L 785.138234 128.856762 
L 785.198176 128.856762 
L 785.215805 128.397187 
L 785.977414 128.397187 
L 788.276342 127.937613 
L 790.740991 127.937613 
L 790.751569 127.478039 
L 791.439132 127.478039 
L 791.523755 127.018464 
L 794.637182 127.018464 
L 794.753539 126.099315 
L 808.370813 126.099315 
L 808.483644 125.639741 
L 808.483644 125.639741 
L 808.592949 124.720592 
L 808.719883 124.720592 
L 808.797455 123.801443 
L 808.896182 123.801443 
L 808.991383 122.882294 
L 809.079532 122.882294 
L 809.09011 122.422719 
L 812.058972 122.422719 
L 812.298737 121.963145 
L 814.096979 121.963145 
L 814.107557 121.50357 
L 814.414316 121.50357 
L 814.424894 121.043996 
L 816.170246 121.043996 
L 816.180824 120.584422 
L 818.546746 120.584422 
L 818.553798 120.124847 
L 818.694836 120.124847 
L 818.818245 119.205698 
L 824.110718 119.205698 
L 824.11777 118.746124 
L 824.255282 118.746124 
L 824.332853 117.826975 
L 824.477418 117.826975 
L 824.576145 116.907826 
L 824.65019 116.907826 
L 824.741865 116.448251 
L 832.248643 116.448251 
L 832.252169 115.988677 
L 832.439045 115.988677 
L 832.509565 115.069528 
L 832.604766 115.069528 
L 832.699967 114.609953 
L 835.968536 114.609953 
L 836.049633 113.690805 
L 836.109574 113.690805 
L 836.222405 113.23123 
L 836.236509 112.771656 
L 853.002469 112.771656 
L 853.009521 112.312081 
L 853.199923 112.312081 
L 853.273968 111.392932 
L 853.376221 111.392932 
L 853.46437 110.473783 
L 853.527838 110.473783 
L 853.637143 109.554634 
L 853.70061 109.554634 
L 853.816967 109.09506 
L 853.820493 109.09506 
L 853.898064 108.175911 
L 868.573127 108.175911 
L 868.640121 107.256762 
L 869.401729 107.256762 
L 869.408781 106.797187 
L 870.967257 106.797187 
L 870.981361 106.337613 
L 871.147081 106.337613 
L 871.154133 105.878039 
L 872.783129 105.878039 
L 872.800759 105.418464 
L 879.263851 105.418464 
L 879.267377 104.95889 
L 893.914233 104.95889 
L 894.002382 104.039741 
L 894.097583 104.039741 
L 894.19631 103.120592 
L 894.351452 103.120592 
L 894.358504 102.661017 
L 895.716001 102.661017 
L 895.818254 101.741868 
L 895.888773 101.741868 
L 895.9875 100.822719 
L 896.054493 100.822719 
L 896.058019 100.363145 
L 914.91135 100.363145 
L 915.027707 99.443996 
L 947.639351 99.443996 
L 947.748656 98.984422 
L 947.759234 98.984422 
L 947.857961 98.065273 
L 947.907324 98.065273 
L 948.006051 97.146124 
L 948.351596 97.146124 
L 948.436219 96.686549 
L 974.443732 96.686549 
L 974.447258 96.226975 
L 974.563614 96.226975 
L 974.669393 95.7674 
L 974.687023 95.7674 
L 974.806906 94.848251 
L 974.863321 94.848251 
L 974.866847 94.388677 
L 986.23103 94.388677 
L 986.238082 93.929102 
L 988.269038 93.929102 
L 988.269038 93.469528 
L 989.379716 93.469528 
L 989.489021 92.550379 
L 1008.137847 92.550379 
L 1008.2401 92.090805 
L 1008.264781 92.090805 
L 1008.367034 91.63123 
L 1008.391716 91.63123 
L 1008.462235 90.712081 
L 1008.550384 90.712081 
L 1008.627956 89.792932 
L 1009.311993 89.792932 
L 1009.431875 88.873783 
L 1009.488291 88.873783 
L 1009.488291 88.873783 
L 1009.565862 87.954634 
L 1009.657537 87.954634 
L 1009.706901 87.035485 
L 1009.791524 87.035485 
L 1009.79505 86.575911 
L 1010.59897 86.575911 
L 1010.606022 86.116336 
L 1016.751777 86.116336 
L 1016.846978 85.197187 
L 1016.913972 85.197187 
L 1016.917498 84.737613 
L 1017.03738 84.737613 
L 1017.044432 84.278039 
L 1030.132812 84.278039 
L 1030.206857 83.35889 
L 1030.263273 83.35889 
L 1030.32674 82.439741 
L 1030.393733 82.439741 
L 1030.467778 81.520592 
L 1030.541824 81.520592 
L 1030.615869 80.601443 
L 1030.704018 80.601443 
L 1030.820375 80.141868 
L 1040.936366 80.141868 
L 1041.045671 79.682294 
L 1041.056249 79.682294 
L 1041.147924 78.763145 
L 1041.236073 78.763145 
L 1041.296015 77.843996 
L 1041.363008 77.843996 
L 1041.451157 76.924847 
L 1041.542832 76.924847 
L 1041.549884 76.465273 
L 1049.881738 76.465273 
L 1049.994569 76.005698 
L 1050.015725 76.005698 
L 1050.103874 75.086549 
L 1050.170867 75.086549 
L 1050.287224 74.1674 
L 1050.382425 74.1674 
L 1050.467048 73.248251 
L 1050.530515 73.248251 
L 1050.62219 72.329102 
L 1050.682132 72.329102 
L 1050.763229 71.409953 
L 1058.174806 71.409953 
L 1058.277059 70.950379 
L 1061.848861 70.950379 
L 1061.922906 70.03123 
L 1062.021633 70.03123 
L 1062.092152 69.112081 
L 1062.15562 69.112081 
L 1062.226139 68.652507 
L 1063.026533 68.652507 
L 1063.178149 68.192932 
L 1065.371299 68.192932 
L 1065.378351 67.733358 
L 1068.791484 67.733358 
L 1068.858478 66.814209 
L 1068.943101 66.814209 
L 1069.062984 65.435485 
L 1069.112347 65.435485 
L 1069.172289 64.516336 
L 1069.239282 64.516336 
L 1069.306275 63.597187 
L 1069.380321 63.597187 
L 1069.383846 63.137613 
L 1076.227743 63.137613 
L 1076.298262 62.218464 
L 1076.971722 62.218464 
L 1076.9823 61.75889 
L 1079.796019 61.75889 
L 1079.806597 61.299315 
L 1081.752929 61.299315 
L 1081.855182 59.920592 
L 1081.893968 59.920592 
L 1082.020903 58.541868 
L 1082.070266 58.541868 
L 1082.172519 57.163145 
L 1083.216204 57.163145 
L 1083.695736 56.70357 
L 1090.624255 56.70357 
L 1090.722982 56.243996 
L 1090.909859 56.243996 
L 1090.994482 55.324847 
L 1091.801928 55.324847 
L 1091.808979 54.865273 
L 1092.207413 54.865273 
L 1092.210939 54.405698 
L 1093.430923 54.405698 
L 1093.487338 53.946124 
L 1095.26795 53.946124 
L 1095.377255 53.486549 
L 1096.336318 53.486549 
L 1096.34337 53.026975 
L 1097.411737 53.026975 
L 1097.49636 52.107826 
L 1097.549249 52.107826 
L 1097.619769 51.188677 
L 1097.693814 51.188677 
L 1097.781963 50.269528 
L 1101.00822 50.269528 
L 1101.124577 49.350379 
L 1103.342409 49.350379 
L 1103.395298 48.43123 
L 1103.494025 48.43123 
L 1103.56807 47.512081 
L 1106.078557 47.512081 
L 1106.159654 46.592932 
L 1109.188458 46.592932 
L 1109.258977 45.673783 
L 1111.155946 45.673783 
L 1111.268776 44.29506 
L 1111.321666 44.29506 
L 1111.434497 42.916336 
L 1114.075444 42.916336 
L 1114.089548 42.456762 
L 1114.368099 42.456762 
L 1114.378677 41.997187 
L 1114.378677 41.997187 
" clip-path="url(#p87fdf825f1)" style="fill: none; stroke: #0000ff; stroke-width: 1.5; stroke-linecap: square"/>
   </g>
   <g id="patch_109">
    <path d="M 49.235 359.517187 
L 49.235 26.877187 
" style="fill: none; stroke: #000000; stroke-width: 0.8; stroke-linejoin: miter; stroke-linecap: square"/>
   </g>
   <g id="patch_110">
    <path d="M 1165.235 359.517187 
L 1165.235 26.877187 
" style="fill: none; stroke: #000000; stroke-width: 0.8; stroke-linejoin: miter; stroke-linecap: square"/>
   </g>
   <g id="patch_111">
    <path d="M 49.235 359.517187 
L 1165.235 359.517187 
" style="fill: none; stroke: #000000; stroke-width: 0.8; stroke-linejoin: miter; stroke-linecap: square"/>
   </g>
   <g id="patch_112">
    <path d="M 49.235 26.877187 
L 1165.235 26.877187 
" style="fill: none; stroke: #000000; stroke-width: 0.8; stroke-linejoin: miter; stroke-linecap: square"/>
   </g>
   <g id="text_18">
    <!-- Pellet Count and Cumulative Sum Over Time of Group 2 Mouse 7 -->
    <g transform="translate(315.460625 20.877187) scale(0.18 -0.18)">
     <defs>
      <path id="DejaVuSans-61" d="M 2194 1759 
Q 1497 1759 1228 1600 
Q 959 1441 959 1056 
Q 959 750 1161 570 
Q 1363 391 1709 391 
Q 2188 391 2477 730 
Q 2766 1069 2766 1631 
L 2766 1759 
L 2194 1759 
z
M 3341 1997 
L 3341 0 
L 2766 0 
L 2766 531 
Q 2569 213 2275 61 
Q 1981 -91 1556 -91 
Q 1019 -91 701 211 
Q 384 513 384 1019 
Q 384 1609 779 1909 
Q 1175 2209 1959 2209 
L 2766 2209 
L 2766 2266 
Q 2766 2663 2505 2880 
Q 2244 3097 1772 3097 
Q 1472 3097 1187 3025 
Q 903 2953 641 2809 
L 641 3341 
Q 956 3463 1253 3523 
Q 1550 3584 1831 3584 
Q 2591 3584 2966 3190 
Q 3341 2797 3341 1997 
z
" transform="scale(0.015625)"/>
      <path id="DejaVuSans-64" d="M 2906 2969 
L 2906 4863 
L 3481 4863 
L 3481 0 
L 2906 0 
L 2906 525 
Q 2725 213 2448 61 
Q 2172 -91 1784 -91 
Q 1150 -91 751 415 
Q 353 922 353 1747 
Q 353 2572 751 3078 
Q 1150 3584 1784 3584 
Q 2172 3584 2448 3432 
Q 2725 3281 2906 2969 
z
M 947 1747 
Q 947 1113 1208 752 
Q 1469 391 1925 391 
Q 2381 391 2643 752 
Q 2906 1113 2906 1747 
Q 2906 2381 2643 2742 
Q 2381 3103 1925 3103 
Q 1469 3103 1208 2742 
Q 947 2381 947 1747 
z
" transform="scale(0.015625)"/>
      <path id="DejaVuSans-76" d="M 191 3500 
L 800 3500 
L 1894 563 
L 2988 3500 
L 3597 3500 
L 2284 0 
L 1503 0 
L 191 3500 
z
" transform="scale(0.015625)"/>
      <path id="DejaVuSans-53" d="M 3425 4513 
L 3425 3897 
Q 3066 4069 2747 4153 
Q 2428 4238 2131 4238 
Q 1616 4238 1336 4038 
Q 1056 3838 1056 3469 
Q 1056 3159 1242 3001 
Q 1428 2844 1947 2747 
L 2328 2669 
Q 3034 2534 3370 2195 
Q 3706 1856 3706 1288 
Q 3706 609 3251 259 
Q 2797 -91 1919 -91 
Q 1588 -91 1214 -16 
Q 841 59 441 206 
L 441 856 
Q 825 641 1194 531 
Q 1563 422 1919 422 
Q 2459 422 2753 634 
Q 3047 847 3047 1241 
Q 3047 1584 2836 1778 
Q 2625 1972 2144 2069 
L 1759 2144 
Q 1053 2284 737 2584 
Q 422 2884 422 3419 
Q 422 4038 858 4394 
Q 1294 4750 2059 4750 
Q 2388 4750 2728 4690 
Q 3069 4631 3425 4513 
z
" transform="scale(0.015625)"/>
      <path id="DejaVuSans-4f" d="M 2522 4238 
Q 1834 4238 1429 3725 
Q 1025 3213 1025 2328 
Q 1025 1447 1429 934 
Q 1834 422 2522 422 
Q 3209 422 3611 934 
Q 4013 1447 4013 2328 
Q 4013 3213 3611 3725 
Q 3209 4238 2522 4238 
z
M 2522 4750 
Q 3503 4750 4090 4092 
Q 4678 3434 4678 2328 
Q 4678 1225 4090 567 
Q 3503 -91 2522 -91 
Q 1538 -91 948 565 
Q 359 1222 359 2328 
Q 359 3434 948 4092 
Q 1538 4750 2522 4750 
z
" transform="scale(0.015625)"/>
      <path id="DejaVuSans-72" d="M 2631 2963 
Q 2534 3019 2420 3045 
Q 2306 3072 2169 3072 
Q 1681 3072 1420 2755 
Q 1159 2438 1159 1844 
L 1159 0 
L 581 0 
L 581 3500 
L 1159 3500 
L 1159 2956 
Q 1341 3275 1631 3429 
Q 1922 3584 2338 3584 
Q 2397 3584 2469 3576 
Q 2541 3569 2628 3553 
L 2631 2963 
z
" transform="scale(0.015625)"/>
      <path id="DejaVuSans-66" d="M 2375 4863 
L 2375 4384 
L 1825 4384 
Q 1516 4384 1395 4259 
Q 1275 4134 1275 3809 
L 1275 3500 
L 2222 3500 
L 2222 3053 
L 1275 3053 
L 1275 0 
L 697 0 
L 697 3053 
L 147 3053 
L 147 3500 
L 697 3500 
L 697 3744 
Q 697 4328 969 4595 
Q 1241 4863 1831 4863 
L 2375 4863 
z
" transform="scale(0.015625)"/>
      <path id="DejaVuSans-47" d="M 3809 666 
L 3809 1919 
L 2778 1919 
L 2778 2438 
L 4434 2438 
L 4434 434 
Q 4069 175 3628 42 
Q 3188 -91 2688 -91 
Q 1594 -91 976 548 
Q 359 1188 359 2328 
Q 359 3472 976 4111 
Q 1594 4750 2688 4750 
Q 3144 4750 3555 4637 
Q 3966 4525 4313 4306 
L 4313 3634 
Q 3963 3931 3569 4081 
Q 3175 4231 2741 4231 
Q 1884 4231 1454 3753 
Q 1025 3275 1025 2328 
Q 1025 1384 1454 906 
Q 1884 428 2741 428 
Q 3075 428 3337 486 
Q 3600 544 3809 666 
z
" transform="scale(0.015625)"/>
      <path id="DejaVuSans-70" d="M 1159 525 
L 1159 -1331 
L 581 -1331 
L 581 3500 
L 1159 3500 
L 1159 2969 
Q 1341 3281 1617 3432 
Q 1894 3584 2278 3584 
Q 2916 3584 3314 3078 
Q 3713 2572 3713 1747 
Q 3713 922 3314 415 
Q 2916 -91 2278 -91 
Q 1894 -91 1617 61 
Q 1341 213 1159 525 
z
M 3116 1747 
Q 3116 2381 2855 2742 
Q 2594 3103 2138 3103 
Q 1681 3103 1420 2742 
Q 1159 2381 1159 1747 
Q 1159 1113 1420 752 
Q 1681 391 2138 391 
Q 2594 391 2855 752 
Q 3116 1113 3116 1747 
z
" transform="scale(0.015625)"/>
      <path id="DejaVuSans-4d" d="M 628 4666 
L 1569 4666 
L 2759 1491 
L 3956 4666 
L 4897 4666 
L 4897 0 
L 4281 0 
L 4281 4097 
L 3078 897 
L 2444 897 
L 1241 4097 
L 1241 0 
L 628 0 
L 628 4666 
z
" transform="scale(0.015625)"/>
      <path id="DejaVuSans-73" d="M 2834 3397 
L 2834 2853 
Q 2591 2978 2328 3040 
Q 2066 3103 1784 3103 
Q 1356 3103 1142 2972 
Q 928 2841 928 2578 
Q 928 2378 1081 2264 
Q 1234 2150 1697 2047 
L 1894 2003 
Q 2506 1872 2764 1633 
Q 3022 1394 3022 966 
Q 3022 478 2636 193 
Q 2250 -91 1575 -91 
Q 1294 -91 989 -36 
Q 684 19 347 128 
L 347 722 
Q 666 556 975 473 
Q 1284 391 1588 391 
Q 1994 391 2212 530 
Q 2431 669 2431 922 
Q 2431 1156 2273 1281 
Q 2116 1406 1581 1522 
L 1381 1569 
Q 847 1681 609 1914 
Q 372 2147 372 2553 
Q 372 3047 722 3315 
Q 1072 3584 1716 3584 
Q 2034 3584 2315 3537 
Q 2597 3491 2834 3397 
z
" transform="scale(0.015625)"/>
      <path id="DejaVuSans-37" d="M 525 4666 
L 3525 4666 
L 3525 4397 
L 1831 0 
L 1172 0 
L 2766 4134 
L 525 4134 
L 525 4666 
z
" transform="scale(0.015625)"/>
     </defs>
     <use xlink:href="#DejaVuSans-50"/>
     <use xlink:href="#DejaVuSans-65" x="56.677734"/>
     <use xlink:href="#DejaVuSans-6c" x="118.201172"/>
     <use xlink:href="#DejaVuSans-6c" x="145.984375"/>
     <use xlink:href="#DejaVuSans-65" x="173.767578"/>
     <use xlink:href="#DejaVuSans-74" x="235.291016"/>
     <use xlink:href="#DejaVuSans-20" x="274.5"/>
     <use xlink:href="#DejaVuSans-43" x="306.287109"/>
     <use xlink:href="#DejaVuSans-6f" x="376.111328"/>
     <use xlink:href="#DejaVuSans-75" x="437.292969"/>
     <use xlink:href="#DejaVuSans-6e" x="500.671875"/>
     <use xlink:href="#DejaVuSans-74" x="564.050781"/>
     <use xlink:href="#DejaVuSans-20" x="603.259766"/>
     <use xlink:href="#DejaVuSans-61" x="635.046875"/>
     <use xlink:href="#DejaVuSans-6e" x="696.326172"/>
     <use xlink:href="#DejaVuSans-64" x="759.705078"/>
     <use xlink:href="#DejaVuSans-20" x="823.181641"/>
     <use xlink:href="#DejaVuSans-43" x="854.96875"/>
     <use xlink:href="#DejaVuSans-75" x="924.792969"/>
     <use xlink:href="#DejaVuSans-6d" x="988.171875"/>
     <use xlink:href="#DejaVuSans-75" x="1085.583984"/>
     <use xlink:href="#DejaVuSans-6c" x="1148.962891"/>
     <use xlink:href="#DejaVuSans-61" x="1176.746094"/>
     <use xlink:href="#DejaVuSans-74" x="1238.025391"/>
     <use xlink:href="#DejaVuSans-69" x="1277.234375"/>
     <use xlink:href="#DejaVuSans-76" x="1305.017578"/>
     <use xlink:href="#DejaVuSans-65" x="1364.197266"/>
     <use xlink:href="#DejaVuSans-20" x="1425.720703"/>
     <use xlink:href="#DejaVuSans-53" x="1457.507812"/>
     <use xlink:href="#DejaVuSans-75" x="1520.984375"/>
     <use xlink:href="#DejaVuSans-6d" x="1584.363281"/>
     <use xlink:href="#DejaVuSans-20" x="1681.775391"/>
     <use xlink:href="#DejaVuSans-4f" x="1713.5625"/>
     <use xlink:href="#DejaVuSans-76" x="1792.273438"/>
     <use xlink:href="#DejaVuSans-65" x="1851.453125"/>
     <use xlink:href="#DejaVuSans-72" x="1912.976562"/>
     <use xlink:href="#DejaVuSans-20" x="1954.089844"/>
     <use xlink:href="#DejaVuSans-54" x="1985.876953"/>
     <use xlink:href="#DejaVuSans-69" x="2043.835938"/>
     <use xlink:href="#DejaVuSans-6d" x="2071.619141"/>
     <use xlink:href="#DejaVuSans-65" x="2169.03125"/>
     <use xlink:href="#DejaVuSans-20" x="2230.554688"/>
     <use xlink:href="#DejaVuSans-6f" x="2262.341797"/>
     <use xlink:href="#DejaVuSans-66" x="2323.523438"/>
     <use xlink:href="#DejaVuSans-20" x="2358.728516"/>
     <use xlink:href="#DejaVuSans-47" x="2390.515625"/>
     <use xlink:href="#DejaVuSans-72" x="2468.005859"/>
     <use xlink:href="#DejaVuSans-6f" x="2506.869141"/>
     <use xlink:href="#DejaVuSans-75" x="2568.050781"/>
     <use xlink:href="#DejaVuSans-70" x="2631.429688"/>
     <use xlink:href="#DejaVuSans-20" x="2694.90625"/>
     <use xlink:href="#DejaVuSans-32" x="2726.693359"/>
     <use xlink:href="#DejaVuSans-20" x="2790.316406"/>
     <use xlink:href="#DejaVuSans-4d" x="2822.103516"/>
     <use xlink:href="#DejaVuSans-6f" x="2908.382812"/>
     <use xlink:href="#DejaVuSans-75" x="2969.564453"/>
     <use xlink:href="#DejaVuSans-73" x="3032.943359"/>
     <use xlink:href="#DejaVuSans-65" x="3085.042969"/>
     <use xlink:href="#DejaVuSans-20" x="3146.566406"/>
     <use xlink:href="#DejaVuSans-37" x="3178.353516"/>
    </g>
   </g>
   <g id="legend_1">
    <g id="patch_113">
     <path d="M 1086.550625 64.233437 
L 1158.235 64.233437 
Q 1160.235 64.233437 1160.235 62.233437 
L 1160.235 33.877187 
Q 1160.235 31.877187 1158.235 31.877187 
L 1086.550625 31.877187 
Q 1084.550625 31.877187 1084.550625 33.877187 
L 1084.550625 62.233437 
Q 1084.550625 64.233437 1086.550625 64.233437 
z
" style="fill: #ffffff; opacity: 0.8; stroke: #cccccc; stroke-linejoin: miter"/>
    </g>
    <g id="patch_114">
     <path d="M 1088.550625 43.475625 
L 1108.550625 43.475625 
L 1108.550625 36.475625 
L 1088.550625 36.475625 
z
" style="fill: #add8e6; opacity: 0.9; stroke: #add8e6; stroke-linejoin: miter"/>
    </g>
    <g id="text_19">
     <!-- Meal -->
     <g transform="translate(1116.550625 43.475625) scale(0.1 -0.1)">
      <use xlink:href="#DejaVuSans-4d"/>
      <use xlink:href="#DejaVuSans-65" x="86.279297"/>
      <use xlink:href="#DejaVuSans-61" x="147.802734"/>
      <use xlink:href="#DejaVuSans-6c" x="209.082031"/>
     </g>
    </g>
    <g id="patch_115">
     <path d="M 1088.550625 58.15375 
L 1108.550625 58.15375 
L 1108.550625 51.15375 
L 1088.550625 51.15375 
z
" style="fill: #808080; opacity: 0.5; stroke: #808080; stroke-linejoin: miter"/>
    </g>
    <g id="text_20">
     <!-- Inactive -->
     <g transform="translate(1116.550625 58.15375) scale(0.1 -0.1)">
      <defs>
       <path id="DejaVuSans-49" d="M 628 4666 
L 1259 4666 
L 1259 0 
L 628 0 
L 628 4666 
z
" transform="scale(0.015625)"/>
       <path id="DejaVuSans-63" d="M 3122 3366 
L 3122 2828 
Q 2878 2963 2633 3030 
Q 2388 3097 2138 3097 
Q 1578 3097 1268 2742 
Q 959 2388 959 1747 
Q 959 1106 1268 751 
Q 1578 397 2138 397 
Q 2388 397 2633 464 
Q 2878 531 3122 666 
L 3122 134 
Q 2881 22 2623 -34 
Q 2366 -91 2075 -91 
Q 1284 -91 818 406 
Q 353 903 353 1747 
Q 353 2603 823 3093 
Q 1294 3584 2113 3584 
Q 2378 3584 2631 3529 
Q 2884 3475 3122 3366 
z
" transform="scale(0.015625)"/>
      </defs>
      <use xlink:href="#DejaVuSans-49"/>
      <use xlink:href="#DejaVuSans-6e" x="29.492188"/>
      <use xlink:href="#DejaVuSans-61" x="92.871094"/>
      <use xlink:href="#DejaVuSans-63" x="154.150391"/>
      <use xlink:href="#DejaVuSans-74" x="209.130859"/>
      <use xlink:href="#DejaVuSans-69" x="248.339844"/>
      <use xlink:href="#DejaVuSans-76" x="276.123047"/>
      <use xlink:href="#DejaVuSans-65" x="335.302734"/>
     </g>
    </g>
   </g>
  </g>
 </g>
 <defs>
  <clipPath id="p87fdf825f1">
   <rect x="49.235" y="26.877187" width="1116" height="332.64"/>
  </clipPath>
 </defs>
</svg>
