<?xml version="1.0" encoding="utf-8" standalone="no"?>
<!DOCTYPE svg PUBLIC "-//W3C//DTD SVG 1.1//EN"
  "http://www.w3.org/Graphics/SVG/1.1/DTD/svg11.dtd">
<svg xmlns:xlink="http://www.w3.org/1999/xlink" width="1172.435pt" height="399.009062pt" viewBox="0 0 1172.435 399.009062" xmlns="http://www.w3.org/2000/svg" version="1.1">
 <metadata>
  <rdf:RDF xmlns:dc="http://purl.org/dc/elements/1.1/" xmlns:cc="http://creativecommons.org/ns#" xmlns:rdf="http://www.w3.org/1999/02/22-rdf-syntax-ns#">
   <cc:Work>
    <dc:type rdf:resource="http://purl.org/dc/dcmitype/StillImage"/>
    <dc:date>2025-04-10T15:27:15.607344</dc:date>
    <dc:format>image/svg+xml</dc:format>
    <dc:creator>
     <cc:Agent>
      <dc:title>Matplotlib v3.8.3, https://matplotlib.org/</dc:title>
     </cc:Agent>
    </dc:creator>
   </cc:Work>
  </rdf:RDF>
 </metadata>
 <defs>
  <style type="text/css">*{stroke-linejoin: round; stroke-linecap: butt}</style>
 </defs>
 <g id="figure_1">
  <g id="patch_1">
   <path d="M 0 399.009062 
L 1172.435 399.009062 
L 1172.435 0 
L 0 0 
z
" style="fill: #ffffff"/>
  </g>
  <g id="axes_1">
   <g id="patch_2">
    <path d="M 49.235 359.517187 
L 1165.235 359.517187 
L 1165.235 26.877187 
L 49.235 26.877187 
z
" style="fill: #ffffff"/>
   </g>
   <g id="patch_3">
    <path d="M 118.195456 359.517187 
L 118.195456 26.877187 
L 118.290859 26.877187 
L 118.290859 359.517187 
z
" clip-path="url(#pa3ee8ee25b)" style="fill: #add8e6; stroke: #add8e6; stroke-linejoin: miter"/>
   </g>
   <g id="patch_4">
    <path d="M 120.969195 359.517187 
L 120.969195 26.877187 
L 121.131733 26.877187 
L 121.131733 359.517187 
z
" clip-path="url(#pa3ee8ee25b)" style="fill: #add8e6; stroke: #add8e6; stroke-linejoin: miter"/>
   </g>
   <g id="patch_5">
    <path d="M 124.84395 359.517187 
L 124.84395 26.877187 
L 124.882111 26.877187 
L 124.882111 359.517187 
z
" clip-path="url(#pa3ee8ee25b)" style="fill: #add8e6; stroke: #add8e6; stroke-linejoin: miter"/>
   </g>
   <g id="patch_6">
    <path d="M 127.336428 359.517187 
L 127.336428 26.877187 
L 127.430417 26.877187 
L 127.430417 359.517187 
z
" clip-path="url(#pa3ee8ee25b)" style="fill: #add8e6; stroke: #add8e6; stroke-linejoin: miter"/>
   </g>
   <g id="patch_7">
    <path d="M 135.42656 359.517187 
L 135.42656 26.877187 
L 135.607471 26.877187 
L 135.607471 359.517187 
z
" clip-path="url(#pa3ee8ee25b)" style="fill: #add8e6; stroke: #add8e6; stroke-linejoin: miter"/>
   </g>
   <g id="patch_8">
    <path d="M 135.773542 359.517187 
L 135.773542 26.877187 
L 135.848451 26.877187 
L 135.848451 359.517187 
z
" clip-path="url(#pa3ee8ee25b)" style="fill: #add8e6; stroke: #add8e6; stroke-linejoin: miter"/>
   </g>
   <g id="patch_9">
    <path d="M 140.576174 359.517187 
L 140.576174 26.877187 
L 140.716098 26.877187 
L 140.716098 359.517187 
z
" clip-path="url(#pa3ee8ee25b)" style="fill: #add8e6; stroke: #add8e6; stroke-linejoin: miter"/>
   </g>
   <g id="patch_10">
    <path d="M 141.93301 359.517187 
L 141.93301 26.877187 
L 142.079294 26.877187 
L 142.079294 359.517187 
z
" clip-path="url(#pa3ee8ee25b)" style="fill: #add8e6; stroke: #add8e6; stroke-linejoin: miter"/>
   </g>
   <g id="patch_11">
    <path d="M 142.282112 359.517187 
L 142.282112 26.877187 
L 142.484931 26.877187 
L 142.484931 359.517187 
z
" clip-path="url(#pa3ee8ee25b)" style="fill: #add8e6; stroke: #add8e6; stroke-linejoin: miter"/>
   </g>
   <g id="patch_12">
    <path d="M 142.505425 359.517187 
L 142.505425 26.877187 
L 142.635455 26.877187 
L 142.635455 359.517187 
z
" clip-path="url(#pa3ee8ee25b)" style="fill: #add8e6; stroke: #add8e6; stroke-linejoin: miter"/>
   </g>
   <g id="patch_13">
    <path d="M 143.07572 359.517187 
L 143.07572 26.877187 
L 142.788806 26.877187 
L 142.788806 359.517187 
z
" clip-path="url(#pa3ee8ee25b)" style="fill: #add8e6; stroke: #add8e6; stroke-linejoin: miter"/>
   </g>
   <g id="patch_14">
    <path d="M 156.577646 359.517187 
L 156.577646 26.877187 
L 156.735237 26.877187 
L 156.735237 359.517187 
z
" clip-path="url(#pa3ee8ee25b)" style="fill: #add8e6; stroke: #add8e6; stroke-linejoin: miter"/>
   </g>
   <g id="patch_15">
    <path d="M 158.074405 359.517187 
L 158.074405 26.877187 
L 158.183235 26.877187 
L 158.183235 359.517187 
z
" clip-path="url(#pa3ee8ee25b)" style="fill: #add8e6; stroke: #add8e6; stroke-linejoin: miter"/>
   </g>
   <g id="patch_16">
    <path d="M 159.861612 359.517187 
L 159.861612 26.877187 
L 159.866559 26.877187 
L 159.866559 359.517187 
z
" clip-path="url(#pa3ee8ee25b)" style="fill: #add8e6; stroke: #add8e6; stroke-linejoin: miter"/>
   </g>
   <g id="patch_17">
    <path d="M 174.810829 359.517187 
L 174.810829 26.877187 
L 168.955236 26.877187 
L 168.955236 359.517187 
z
" clip-path="url(#pa3ee8ee25b)" style="fill: #add8e6; stroke: #add8e6; stroke-linejoin: miter"/>
   </g>
   <g id="patch_18">
    <path d="M 202.158131 359.517187 
L 202.158131 26.877187 
L 202.204772 26.877187 
L 202.204772 359.517187 
z
" clip-path="url(#pa3ee8ee25b)" style="fill: #add8e6; stroke: #add8e6; stroke-linejoin: miter"/>
   </g>
   <g id="patch_19">
    <path d="M 221.044291 359.517187 
L 221.044291 26.877187 
L 215.631083 26.877187 
L 215.631083 359.517187 
z
" clip-path="url(#pa3ee8ee25b)" style="fill: #add8e6; stroke: #add8e6; stroke-linejoin: miter"/>
   </g>
   <g id="patch_20">
    <path d="M 229.55278 359.517187 
L 229.55278 26.877187 
L 222.714895 26.877187 
L 222.714895 359.517187 
z
" clip-path="url(#pa3ee8ee25b)" style="fill: #add8e6; stroke: #add8e6; stroke-linejoin: miter"/>
   </g>
   <g id="patch_21">
    <path d="M 238.584216 359.517187 
L 238.584216 26.877187 
L 230.199397 26.877187 
L 230.199397 359.517187 
z
" clip-path="url(#pa3ee8ee25b)" style="fill: #add8e6; stroke: #add8e6; stroke-linejoin: miter"/>
   </g>
   <g id="patch_22">
    <path d="M 253.0119 359.517187 
L 253.0119 26.877187 
L 252.959606 26.877187 
L 252.959606 359.517187 
z
" clip-path="url(#pa3ee8ee25b)" style="fill: #add8e6; stroke: #add8e6; stroke-linejoin: miter"/>
   </g>
   <g id="patch_23">
    <path d="M 253.624596 359.517187 
L 253.624596 26.877187 
L 253.422484 26.877187 
L 253.422484 359.517187 
z
" clip-path="url(#pa3ee8ee25b)" style="fill: #add8e6; stroke: #add8e6; stroke-linejoin: miter"/>
   </g>
   <g id="patch_24">
    <path d="M 439.014256 359.517187 
L 439.014256 26.877187 
L 432.816627 26.877187 
L 432.816627 359.517187 
z
" clip-path="url(#pa3ee8ee25b)" style="fill: #add8e6; stroke: #add8e6; stroke-linejoin: miter"/>
   </g>
   <g id="patch_25">
    <path d="M 446.091708 359.517187 
L 446.091708 26.877187 
L 435.125368 26.877187 
L 435.125368 359.517187 
z
" clip-path="url(#pa3ee8ee25b)" style="fill: #add8e6; stroke: #add8e6; stroke-linejoin: miter"/>
   </g>
   <g id="patch_26">
    <path d="M 448.291618 359.517187 
L 448.291618 26.877187 
L 448.478183 26.877187 
L 448.478183 359.517187 
z
" clip-path="url(#pa3ee8ee25b)" style="fill: #add8e6; stroke: #add8e6; stroke-linejoin: miter"/>
   </g>
   <g id="patch_27">
    <path d="M 455.188865 359.517187 
L 455.188865 26.877187 
L 450.608839 26.877187 
L 450.608839 359.517187 
z
" clip-path="url(#pa3ee8ee25b)" style="fill: #add8e6; stroke: #add8e6; stroke-linejoin: miter"/>
   </g>
   <g id="patch_28">
    <path d="M 458.154823 359.517187 
L 458.154823 26.877187 
L 451.967088 26.877187 
L 451.967088 359.517187 
z
" clip-path="url(#pa3ee8ee25b)" style="fill: #add8e6; stroke: #add8e6; stroke-linejoin: miter"/>
   </g>
   <g id="patch_29">
    <path d="M 464.953134 359.517187 
L 464.953134 26.877187 
L 453.762775 26.877187 
L 453.762775 359.517187 
z
" clip-path="url(#pa3ee8ee25b)" style="fill: #add8e6; stroke: #add8e6; stroke-linejoin: miter"/>
   </g>
   <g id="patch_30">
    <path d="M 489.178301 359.517187 
L 489.178301 26.877187 
L 479.281882 26.877187 
L 479.281882 359.517187 
z
" clip-path="url(#pa3ee8ee25b)" style="fill: #add8e6; stroke: #add8e6; stroke-linejoin: miter"/>
   </g>
   <g id="patch_31">
    <path d="M 503.011662 359.517187 
L 503.011662 26.877187 
L 500.815991 26.877187 
L 500.815991 359.517187 
z
" clip-path="url(#pa3ee8ee25b)" style="fill: #add8e6; stroke: #add8e6; stroke-linejoin: miter"/>
   </g>
   <g id="patch_32">
    <path d="M 509.063007 359.517187 
L 509.063007 26.877187 
L 509.245332 26.877187 
L 509.245332 359.517187 
z
" clip-path="url(#pa3ee8ee25b)" style="fill: #add8e6; stroke: #add8e6; stroke-linejoin: miter"/>
   </g>
   <g id="patch_33">
    <path d="M 511.556192 359.517187 
L 511.556192 26.877187 
L 511.690462 26.877187 
L 511.690462 359.517187 
z
" clip-path="url(#pa3ee8ee25b)" style="fill: #add8e6; stroke: #add8e6; stroke-linejoin: miter"/>
   </g>
   <g id="patch_34">
    <path d="M 514.789277 359.517187 
L 514.789277 26.877187 
L 514.890333 26.877187 
L 514.890333 359.517187 
z
" clip-path="url(#pa3ee8ee25b)" style="fill: #add8e6; stroke: #add8e6; stroke-linejoin: miter"/>
   </g>
   <g id="patch_35">
    <path d="M 522.211591 359.517187 
L 522.211591 26.877187 
L 519.798261 26.877187 
L 519.798261 359.517187 
z
" clip-path="url(#pa3ee8ee25b)" style="fill: #add8e6; stroke: #add8e6; stroke-linejoin: miter"/>
   </g>
   <g id="patch_36">
    <path d="M 534.211811 359.517187 
L 534.211811 26.877187 
L 524.256738 26.877187 
L 524.256738 359.517187 
z
" clip-path="url(#pa3ee8ee25b)" style="fill: #add8e6; stroke: #add8e6; stroke-linejoin: miter"/>
   </g>
   <g id="patch_37">
    <path d="M 540.759249 359.517187 
L 540.759249 26.877187 
L 536.937496 26.877187 
L 536.937496 359.517187 
z
" clip-path="url(#pa3ee8ee25b)" style="fill: #add8e6; stroke: #add8e6; stroke-linejoin: miter"/>
   </g>
   <g id="patch_38">
    <path d="M 570.093749 359.517187 
L 570.093749 26.877187 
L 559.892749 26.877187 
L 559.892749 359.517187 
z
" clip-path="url(#pa3ee8ee25b)" style="fill: #add8e6; stroke: #add8e6; stroke-linejoin: miter"/>
   </g>
   <g id="patch_39">
    <path d="M 574.266725 359.517187 
L 574.266725 26.877187 
L 563.553378 26.877187 
L 563.553378 359.517187 
z
" clip-path="url(#pa3ee8ee25b)" style="fill: #add8e6; stroke: #add8e6; stroke-linejoin: miter"/>
   </g>
   <g id="patch_40">
    <path d="M 575.556425 359.517187 
L 575.556425 26.877187 
L 564.477722 26.877187 
L 564.477722 359.517187 
z
" clip-path="url(#pa3ee8ee25b)" style="fill: #add8e6; stroke: #add8e6; stroke-linejoin: miter"/>
   </g>
   <g id="patch_41">
    <path d="M 596.956265 359.517187 
L 596.956265 26.877187 
L 597.106082 26.877187 
L 597.106082 359.517187 
z
" clip-path="url(#pa3ee8ee25b)" style="fill: #add8e6; stroke: #add8e6; stroke-linejoin: miter"/>
   </g>
   <g id="patch_42">
    <path d="M 597.260846 359.517187 
L 597.260846 26.877187 
L 597.41985 26.877187 
L 597.41985 359.517187 
z
" clip-path="url(#pa3ee8ee25b)" style="fill: #add8e6; stroke: #add8e6; stroke-linejoin: miter"/>
   </g>
   <g id="patch_43">
    <path d="M 604.613905 359.517187 
L 604.613905 26.877187 
L 604.787043 26.877187 
L 604.787043 359.517187 
z
" clip-path="url(#pa3ee8ee25b)" style="fill: #add8e6; stroke: #add8e6; stroke-linejoin: miter"/>
   </g>
   <g id="patch_44">
    <path d="M 623.752352 359.517187 
L 623.752352 26.877187 
L 612.631954 26.877187 
L 612.631954 359.517187 
z
" clip-path="url(#pa3ee8ee25b)" style="fill: #add8e6; stroke: #add8e6; stroke-linejoin: miter"/>
   </g>
   <g id="patch_45">
    <path d="M 649.995104 359.517187 
L 649.995104 26.877187 
L 638.920642 26.877187 
L 638.920642 359.517187 
z
" clip-path="url(#pa3ee8ee25b)" style="fill: #add8e6; stroke: #add8e6; stroke-linejoin: miter"/>
   </g>
   <g id="patch_46">
    <path d="M 685.506739 359.517187 
L 685.506739 26.877187 
L 685.677757 26.877187 
L 685.677757 359.517187 
z
" clip-path="url(#pa3ee8ee25b)" style="fill: #add8e6; stroke: #add8e6; stroke-linejoin: miter"/>
   </g>
   <g id="patch_47">
    <path d="M 685.826161 359.517187 
L 685.826161 26.877187 
L 685.987992 26.877187 
L 685.987992 359.517187 
z
" clip-path="url(#pa3ee8ee25b)" style="fill: #add8e6; stroke: #add8e6; stroke-linejoin: miter"/>
   </g>
   <g id="patch_48">
    <path d="M 686.195757 359.517187 
L 686.195757 26.877187 
L 686.28904 26.877187 
L 686.28904 359.517187 
z
" clip-path="url(#pa3ee8ee25b)" style="fill: #add8e6; stroke: #add8e6; stroke-linejoin: miter"/>
   </g>
   <g id="patch_49">
    <path d="M 688.447256 359.517187 
L 688.447256 26.877187 
L 688.527112 26.877187 
L 688.527112 359.517187 
z
" clip-path="url(#pa3ee8ee25b)" style="fill: #add8e6; stroke: #add8e6; stroke-linejoin: miter"/>
   </g>
   <g id="patch_50">
    <path d="M 705.982235 359.517187 
L 705.982235 26.877187 
L 694.914839 26.877187 
L 694.914839 359.517187 
z
" clip-path="url(#pa3ee8ee25b)" style="fill: #add8e6; stroke: #add8e6; stroke-linejoin: miter"/>
   </g>
   <g id="patch_51">
    <path d="M 725.836554 359.517187 
L 725.836554 26.877187 
L 715.889254 26.877187 
L 715.889254 359.517187 
z
" clip-path="url(#pa3ee8ee25b)" style="fill: #add8e6; stroke: #add8e6; stroke-linejoin: miter"/>
   </g>
   <g id="patch_52">
    <path d="M 730.005996 359.517187 
L 730.005996 26.877187 
L 718.966161 26.877187 
L 718.966161 359.517187 
z
" clip-path="url(#pa3ee8ee25b)" style="fill: #add8e6; stroke: #add8e6; stroke-linejoin: miter"/>
   </g>
   <g id="patch_53">
    <path d="M 731.398166 359.517187 
L 731.398166 26.877187 
L 721.328609 26.877187 
L 721.328609 359.517187 
z
" clip-path="url(#pa3ee8ee25b)" style="fill: #add8e6; stroke: #add8e6; stroke-linejoin: miter"/>
   </g>
   <g id="patch_54">
    <path d="M 735.2708 359.517187 
L 735.2708 26.877187 
L 725.428796 26.877187 
L 725.428796 359.517187 
z
" clip-path="url(#pa3ee8ee25b)" style="fill: #add8e6; stroke: #add8e6; stroke-linejoin: miter"/>
   </g>
   <g id="patch_55">
    <path d="M 748.478746 359.517187 
L 748.478746 26.877187 
L 737.376015 26.877187 
L 737.376015 359.517187 
z
" clip-path="url(#pa3ee8ee25b)" style="fill: #add8e6; stroke: #add8e6; stroke-linejoin: miter"/>
   </g>
   <g id="patch_56">
    <path d="M 756.757562 359.517187 
L 756.757562 26.877187 
L 747.032868 26.877187 
L 747.032868 359.517187 
z
" clip-path="url(#pa3ee8ee25b)" style="fill: #add8e6; stroke: #add8e6; stroke-linejoin: miter"/>
   </g>
   <g id="patch_57">
    <path d="M 762.990525 359.517187 
L 762.990525 26.877187 
L 758.663492 26.877187 
L 758.663492 359.517187 
z
" clip-path="url(#pa3ee8ee25b)" style="fill: #add8e6; stroke: #add8e6; stroke-linejoin: miter"/>
   </g>
   <g id="patch_58">
    <path d="M 781.715561 359.517187 
L 781.715561 26.877187 
L 781.827217 26.877187 
L 781.827217 359.517187 
z
" clip-path="url(#pa3ee8ee25b)" style="fill: #add8e6; stroke: #add8e6; stroke-linejoin: miter"/>
   </g>
   <g id="patch_59">
    <path d="M 782.20176 359.517187 
L 782.20176 26.877187 
L 782.285856 26.877187 
L 782.285856 359.517187 
z
" clip-path="url(#pa3ee8ee25b)" style="fill: #add8e6; stroke: #add8e6; stroke-linejoin: miter"/>
   </g>
   <g id="patch_60">
    <path d="M 800.709844 359.517187 
L 800.709844 26.877187 
L 795.404759 26.877187 
L 795.404759 359.517187 
z
" clip-path="url(#pa3ee8ee25b)" style="fill: #add8e6; stroke: #add8e6; stroke-linejoin: miter"/>
   </g>
   <g id="patch_61">
    <path d="M 829.774391 359.517187 
L 829.774391 26.877187 
L 829.653548 26.877187 
L 829.653548 359.517187 
z
" clip-path="url(#pa3ee8ee25b)" style="fill: #add8e6; stroke: #add8e6; stroke-linejoin: miter"/>
   </g>
   <g id="patch_62">
    <path d="M 862.717225 359.517187 
L 862.717225 26.877187 
L 862.436671 26.877187 
L 862.436671 359.517187 
z
" clip-path="url(#pa3ee8ee25b)" style="fill: #add8e6; stroke: #add8e6; stroke-linejoin: miter"/>
   </g>
   <g id="patch_63">
    <path d="M 864.041553 359.517187 
L 864.041553 26.877187 
L 864.180063 26.877187 
L 864.180063 359.517187 
z
" clip-path="url(#pa3ee8ee25b)" style="fill: #add8e6; stroke: #add8e6; stroke-linejoin: miter"/>
   </g>
   <g id="patch_64">
    <path d="M 864.2896 359.517187 
L 864.2896 26.877187 
L 864.388536 26.877187 
L 864.388536 359.517187 
z
" clip-path="url(#pa3ee8ee25b)" style="fill: #add8e6; stroke: #add8e6; stroke-linejoin: miter"/>
   </g>
   <g id="patch_65">
    <path d="M 864.505845 359.517187 
L 864.505845 26.877187 
L 864.712197 26.877187 
L 864.712197 359.517187 
z
" clip-path="url(#pa3ee8ee25b)" style="fill: #add8e6; stroke: #add8e6; stroke-linejoin: miter"/>
   </g>
   <g id="patch_66">
    <path d="M 893.441775 359.517187 
L 893.441775 26.877187 
L 893.235423 26.877187 
L 893.235423 359.517187 
z
" clip-path="url(#pa3ee8ee25b)" style="fill: #add8e6; stroke: #add8e6; stroke-linejoin: miter"/>
   </g>
   <g id="patch_67">
    <path d="M 902.834327 359.517187 
L 902.834327 26.877187 
L 894.062245 26.877187 
L 894.062245 359.517187 
z
" clip-path="url(#pa3ee8ee25b)" style="fill: #add8e6; stroke: #add8e6; stroke-linejoin: miter"/>
   </g>
   <g id="patch_68">
    <path d="M 932.965262 359.517187 
L 932.965262 26.877187 
L 933.089638 26.877187 
L 933.089638 359.517187 
z
" clip-path="url(#pa3ee8ee25b)" style="fill: #add8e6; stroke: #add8e6; stroke-linejoin: miter"/>
   </g>
   <g id="patch_69">
    <path d="M 933.279736 359.517187 
L 933.279736 26.877187 
L 933.381499 26.877187 
L 933.381499 359.517187 
z
" clip-path="url(#pa3ee8ee25b)" style="fill: #add8e6; stroke: #add8e6; stroke-linejoin: miter"/>
   </g>
   <g id="patch_70">
    <path d="M 988.843562 359.517187 
L 988.843562 26.877187 
L 977.470878 26.877187 
L 977.470878 359.517187 
z
" clip-path="url(#pa3ee8ee25b)" style="fill: #add8e6; stroke: #add8e6; stroke-linejoin: miter"/>
   </g>
   <g id="patch_71">
    <path d="M 994.610113 359.517187 
L 994.610113 26.877187 
L 993.72605 26.877187 
L 993.72605 359.517187 
z
" clip-path="url(#pa3ee8ee25b)" style="fill: #add8e6; stroke: #add8e6; stroke-linejoin: miter"/>
   </g>
   <g id="patch_72">
    <path d="M 996.92592 359.517187 
L 996.92592 26.877187 
L 996.357039 26.877187 
L 996.357039 359.517187 
z
" clip-path="url(#pa3ee8ee25b)" style="fill: #add8e6; stroke: #add8e6; stroke-linejoin: miter"/>
   </g>
   <g id="patch_73">
    <path d="M 1030.541519 359.517187 
L 1030.541519 26.877187 
L 1019.711569 26.877187 
L 1019.711569 359.517187 
z
" clip-path="url(#pa3ee8ee25b)" style="fill: #add8e6; stroke: #add8e6; stroke-linejoin: miter"/>
   </g>
   <g id="patch_74">
    <path d="M 1038.905138 359.517187 
L 1038.905138 26.877187 
L 1032.460169 26.877187 
L 1032.460169 359.517187 
z
" clip-path="url(#pa3ee8ee25b)" style="fill: #add8e6; stroke: #add8e6; stroke-linejoin: miter"/>
   </g>
   <g id="patch_75">
    <path d="M 1053.597122 359.517187 
L 1053.597122 26.877187 
L 1045.227143 26.877187 
L 1045.227143 359.517187 
z
" clip-path="url(#pa3ee8ee25b)" style="fill: #add8e6; stroke: #add8e6; stroke-linejoin: miter"/>
   </g>
   <g id="patch_76">
    <path d="M 1057.872567 359.517187 
L 1057.872567 26.877187 
L 1046.716835 26.877187 
L 1046.716835 359.517187 
z
" clip-path="url(#pa3ee8ee25b)" style="fill: #add8e6; stroke: #add8e6; stroke-linejoin: miter"/>
   </g>
   <g id="patch_77">
    <path d="M 1059.678147 359.517187 
L 1059.678147 26.877187 
L 1059.405367 26.877187 
L 1059.405367 359.517187 
z
" clip-path="url(#pa3ee8ee25b)" style="fill: #add8e6; stroke: #add8e6; stroke-linejoin: miter"/>
   </g>
   <g id="patch_78">
    <path d="M 1072.64582 359.517187 
L 1072.64582 26.877187 
L 1061.169253 26.877187 
L 1061.169253 359.517187 
z
" clip-path="url(#pa3ee8ee25b)" style="fill: #add8e6; stroke: #add8e6; stroke-linejoin: miter"/>
   </g>
   <g id="patch_79">
    <path d="M 1101.736513 359.517187 
L 1101.736513 26.877187 
L 1093.201877 26.877187 
L 1093.201877 359.517187 
z
" clip-path="url(#pa3ee8ee25b)" style="fill: #add8e6; stroke: #add8e6; stroke-linejoin: miter"/>
   </g>
   <g id="patch_80">
    <path d="M 1109.057771 359.517187 
L 1109.057771 26.877187 
L 1098.993868 26.877187 
L 1098.993868 359.517187 
z
" clip-path="url(#pa3ee8ee25b)" style="fill: #add8e6; stroke: #add8e6; stroke-linejoin: miter"/>
   </g>
   <g id="patch_81">
    <path d="M 1112.704267 359.517187 
L 1112.704267 26.877187 
L 1101.516734 26.877187 
L 1101.516734 359.517187 
z
" clip-path="url(#pa3ee8ee25b)" style="fill: #add8e6; stroke: #add8e6; stroke-linejoin: miter"/>
   </g>
   <g id="patch_82">
    <path d="M 222.925487 359.517187 
L 222.925487 26.877187 
L 375.569477 26.877187 
L 375.569477 359.517187 
z
" clip-path="url(#pa3ee8ee25b)" style="fill: #808080; opacity: 0.4; stroke: #808080; stroke-linejoin: miter"/>
   </g>
   <g id="patch_83">
    <path d="M 379.809588 26.877187 
L 379.809588 26.877187 
L 379.809588 359.517187 
" clip-path="url(#pa3ee8ee25b)" style="fill: #808080; opacity: 0.4; stroke: #808080; stroke-linejoin: miter"/>
   </g>
   <g id="patch_84">
    <path d="M 384.049699 26.877187 
L 384.049699 26.877187 
L 384.049699 359.517187 
" clip-path="url(#pa3ee8ee25b)" style="fill: #808080; opacity: 0.4; stroke: #808080; stroke-linejoin: miter"/>
   </g>
   <g id="patch_85">
    <path d="M 528.213468 359.517187 
L 528.213468 26.877187 
L 680.857458 26.877187 
L 680.857458 359.517187 
z
" clip-path="url(#pa3ee8ee25b)" style="fill: #808080; opacity: 0.4; stroke: #808080; stroke-linejoin: miter"/>
   </g>
   <g id="patch_86">
    <path d="M 685.097569 26.877187 
L 685.097569 26.877187 
L 685.097569 359.517187 
" clip-path="url(#pa3ee8ee25b)" style="fill: #808080; opacity: 0.4; stroke: #808080; stroke-linejoin: miter"/>
   </g>
   <g id="patch_87">
    <path d="M 689.33768 26.877187 
L 689.33768 26.877187 
L 689.33768 359.517187 
" clip-path="url(#pa3ee8ee25b)" style="fill: #808080; opacity: 0.4; stroke: #808080; stroke-linejoin: miter"/>
   </g>
   <g id="patch_88">
    <path d="M 833.501448 359.517187 
L 833.501448 26.877187 
L 986.145438 26.877187 
L 986.145438 359.517187 
z
" clip-path="url(#pa3ee8ee25b)" style="fill: #808080; opacity: 0.4; stroke: #808080; stroke-linejoin: miter"/>
   </g>
   <g id="patch_89">
    <path d="M 990.385549 26.877187 
L 990.385549 26.877187 
L 990.385549 359.517187 
" clip-path="url(#pa3ee8ee25b)" style="fill: #808080; opacity: 0.4; stroke: #808080; stroke-linejoin: miter"/>
   </g>
   <g id="patch_90">
    <path d="M 994.62566 26.877187 
L 994.62566 26.877187 
L 994.62566 359.517187 
" clip-path="url(#pa3ee8ee25b)" style="fill: #808080; opacity: 0.4; stroke: #808080; stroke-linejoin: miter"/>
   </g>
   <g id="matplotlib.axis_1">
    <g id="xtick_1">
     <g id="line2d_1">
      <defs>
       <path id="mbce745bdb6" d="M 0 0 
L 0 3.5 
" style="stroke: #000000; stroke-width: 0.8"/>
      </defs>
      <g>
       <use xlink:href="#mbce745bdb6" x="130.208397" y="359.517187" style="stroke: #000000; stroke-width: 0.8"/>
      </g>
     </g>
     <g id="text_1">
      <!-- 12-20 12 -->
      <g transform="translate(107.727928 374.115625) scale(0.1 -0.1)">
       <defs>
        <path id="DejaVuSans-31" d="M 794 531 
L 1825 531 
L 1825 4091 
L 703 3866 
L 703 4441 
L 1819 4666 
L 2450 4666 
L 2450 531 
L 3481 531 
L 3481 0 
L 794 0 
L 794 531 
z
" transform="scale(0.015625)"/>
        <path id="DejaVuSans-32" d="M 1228 531 
L 3431 531 
L 3431 0 
L 469 0 
L 469 531 
Q 828 903 1448 1529 
Q 2069 2156 2228 2338 
Q 2531 2678 2651 2914 
Q 2772 3150 2772 3378 
Q 2772 3750 2511 3984 
Q 2250 4219 1831 4219 
Q 1534 4219 1204 4116 
Q 875 4013 500 3803 
L 500 4441 
Q 881 4594 1212 4672 
Q 1544 4750 1819 4750 
Q 2544 4750 2975 4387 
Q 3406 4025 3406 3419 
Q 3406 3131 3298 2873 
Q 3191 2616 2906 2266 
Q 2828 2175 2409 1742 
Q 1991 1309 1228 531 
z
" transform="scale(0.015625)"/>
        <path id="DejaVuSans-2d" d="M 313 2009 
L 1997 2009 
L 1997 1497 
L 313 1497 
L 313 2009 
z
" transform="scale(0.015625)"/>
        <path id="DejaVuSans-30" d="M 2034 4250 
Q 1547 4250 1301 3770 
Q 1056 3291 1056 2328 
Q 1056 1369 1301 889 
Q 1547 409 2034 409 
Q 2525 409 2770 889 
Q 3016 1369 3016 2328 
Q 3016 3291 2770 3770 
Q 2525 4250 2034 4250 
z
M 2034 4750 
Q 2819 4750 3233 4129 
Q 3647 3509 3647 2328 
Q 3647 1150 3233 529 
Q 2819 -91 2034 -91 
Q 1250 -91 836 529 
Q 422 1150 422 2328 
Q 422 3509 836 4129 
Q 1250 4750 2034 4750 
z
" transform="scale(0.015625)"/>
        <path id="DejaVuSans-20" transform="scale(0.015625)"/>
       </defs>
       <use xlink:href="#DejaVuSans-31"/>
       <use xlink:href="#DejaVuSans-32" x="63.623047"/>
       <use xlink:href="#DejaVuSans-2d" x="127.246094"/>
       <use xlink:href="#DejaVuSans-32" x="163.330078"/>
       <use xlink:href="#DejaVuSans-30" x="226.953125"/>
       <use xlink:href="#DejaVuSans-20" x="290.576172"/>
       <use xlink:href="#DejaVuSans-31" x="322.363281"/>
       <use xlink:href="#DejaVuSans-32" x="385.986328"/>
      </g>
     </g>
    </g>
    <g id="xtick_2">
     <g id="line2d_2">
      <g>
       <use xlink:href="#mbce745bdb6" x="282.852387" y="359.517187" style="stroke: #000000; stroke-width: 0.8"/>
      </g>
     </g>
     <g id="text_2">
      <!-- 12-21 00 -->
      <g transform="translate(260.371918 374.115625) scale(0.1 -0.1)">
       <use xlink:href="#DejaVuSans-31"/>
       <use xlink:href="#DejaVuSans-32" x="63.623047"/>
       <use xlink:href="#DejaVuSans-2d" x="127.246094"/>
       <use xlink:href="#DejaVuSans-32" x="163.330078"/>
       <use xlink:href="#DejaVuSans-31" x="226.953125"/>
       <use xlink:href="#DejaVuSans-20" x="290.576172"/>
       <use xlink:href="#DejaVuSans-30" x="322.363281"/>
       <use xlink:href="#DejaVuSans-30" x="385.986328"/>
      </g>
     </g>
    </g>
    <g id="xtick_3">
     <g id="line2d_3">
      <g>
       <use xlink:href="#mbce745bdb6" x="435.496377" y="359.517187" style="stroke: #000000; stroke-width: 0.8"/>
      </g>
     </g>
     <g id="text_3">
      <!-- 12-21 12 -->
      <g transform="translate(413.015909 374.115625) scale(0.1 -0.1)">
       <use xlink:href="#DejaVuSans-31"/>
       <use xlink:href="#DejaVuSans-32" x="63.623047"/>
       <use xlink:href="#DejaVuSans-2d" x="127.246094"/>
       <use xlink:href="#DejaVuSans-32" x="163.330078"/>
       <use xlink:href="#DejaVuSans-31" x="226.953125"/>
       <use xlink:href="#DejaVuSans-20" x="290.576172"/>
       <use xlink:href="#DejaVuSans-31" x="322.363281"/>
       <use xlink:href="#DejaVuSans-32" x="385.986328"/>
      </g>
     </g>
    </g>
    <g id="xtick_4">
     <g id="line2d_4">
      <g>
       <use xlink:href="#mbce745bdb6" x="588.140368" y="359.517187" style="stroke: #000000; stroke-width: 0.8"/>
      </g>
     </g>
     <g id="text_4">
      <!-- 12-22 00 -->
      <g transform="translate(565.659899 374.115625) scale(0.1 -0.1)">
       <use xlink:href="#DejaVuSans-31"/>
       <use xlink:href="#DejaVuSans-32" x="63.623047"/>
       <use xlink:href="#DejaVuSans-2d" x="127.246094"/>
       <use xlink:href="#DejaVuSans-32" x="163.330078"/>
       <use xlink:href="#DejaVuSans-32" x="226.953125"/>
       <use xlink:href="#DejaVuSans-20" x="290.576172"/>
       <use xlink:href="#DejaVuSans-30" x="322.363281"/>
       <use xlink:href="#DejaVuSans-30" x="385.986328"/>
      </g>
     </g>
    </g>
    <g id="xtick_5">
     <g id="line2d_5">
      <g>
       <use xlink:href="#mbce745bdb6" x="740.784358" y="359.517187" style="stroke: #000000; stroke-width: 0.8"/>
      </g>
     </g>
     <g id="text_5">
      <!-- 12-22 12 -->
      <g transform="translate(718.303889 374.115625) scale(0.1 -0.1)">
       <use xlink:href="#DejaVuSans-31"/>
       <use xlink:href="#DejaVuSans-32" x="63.623047"/>
       <use xlink:href="#DejaVuSans-2d" x="127.246094"/>
       <use xlink:href="#DejaVuSans-32" x="163.330078"/>
       <use xlink:href="#DejaVuSans-32" x="226.953125"/>
       <use xlink:href="#DejaVuSans-20" x="290.576172"/>
       <use xlink:href="#DejaVuSans-31" x="322.363281"/>
       <use xlink:href="#DejaVuSans-32" x="385.986328"/>
      </g>
     </g>
    </g>
    <g id="xtick_6">
     <g id="line2d_6">
      <g>
       <use xlink:href="#mbce745bdb6" x="893.428348" y="359.517187" style="stroke: #000000; stroke-width: 0.8"/>
      </g>
     </g>
     <g id="text_6">
      <!-- 12-23 00 -->
      <g transform="translate(870.947879 374.115625) scale(0.1 -0.1)">
       <defs>
        <path id="DejaVuSans-33" d="M 2597 2516 
Q 3050 2419 3304 2112 
Q 3559 1806 3559 1356 
Q 3559 666 3084 287 
Q 2609 -91 1734 -91 
Q 1441 -91 1130 -33 
Q 819 25 488 141 
L 488 750 
Q 750 597 1062 519 
Q 1375 441 1716 441 
Q 2309 441 2620 675 
Q 2931 909 2931 1356 
Q 2931 1769 2642 2001 
Q 2353 2234 1838 2234 
L 1294 2234 
L 1294 2753 
L 1863 2753 
Q 2328 2753 2575 2939 
Q 2822 3125 2822 3475 
Q 2822 3834 2567 4026 
Q 2313 4219 1838 4219 
Q 1578 4219 1281 4162 
Q 984 4106 628 3988 
L 628 4550 
Q 988 4650 1302 4700 
Q 1616 4750 1894 4750 
Q 2613 4750 3031 4423 
Q 3450 4097 3450 3541 
Q 3450 3153 3228 2886 
Q 3006 2619 2597 2516 
z
" transform="scale(0.015625)"/>
       </defs>
       <use xlink:href="#DejaVuSans-31"/>
       <use xlink:href="#DejaVuSans-32" x="63.623047"/>
       <use xlink:href="#DejaVuSans-2d" x="127.246094"/>
       <use xlink:href="#DejaVuSans-32" x="163.330078"/>
       <use xlink:href="#DejaVuSans-33" x="226.953125"/>
       <use xlink:href="#DejaVuSans-20" x="290.576172"/>
       <use xlink:href="#DejaVuSans-30" x="322.363281"/>
       <use xlink:href="#DejaVuSans-30" x="385.986328"/>
      </g>
     </g>
    </g>
    <g id="xtick_7">
     <g id="line2d_7">
      <g>
       <use xlink:href="#mbce745bdb6" x="1046.072338" y="359.517187" style="stroke: #000000; stroke-width: 0.8"/>
      </g>
     </g>
     <g id="text_7">
      <!-- 12-23 12 -->
      <g transform="translate(1023.59187 374.115625) scale(0.1 -0.1)">
       <use xlink:href="#DejaVuSans-31"/>
       <use xlink:href="#DejaVuSans-32" x="63.623047"/>
       <use xlink:href="#DejaVuSans-2d" x="127.246094"/>
       <use xlink:href="#DejaVuSans-32" x="163.330078"/>
       <use xlink:href="#DejaVuSans-33" x="226.953125"/>
       <use xlink:href="#DejaVuSans-20" x="290.576172"/>
       <use xlink:href="#DejaVuSans-31" x="322.363281"/>
       <use xlink:href="#DejaVuSans-32" x="385.986328"/>
      </g>
     </g>
    </g>
    <g id="text_8">
     <!-- Time -->
     <g transform="translate(592.554688 389.313437) scale(0.12 -0.12)">
      <defs>
       <path id="DejaVuSans-54" d="M -19 4666 
L 3928 4666 
L 3928 4134 
L 2272 4134 
L 2272 0 
L 1638 0 
L 1638 4134 
L -19 4134 
L -19 4666 
z
" transform="scale(0.015625)"/>
       <path id="DejaVuSans-69" d="M 603 3500 
L 1178 3500 
L 1178 0 
L 603 0 
L 603 3500 
z
M 603 4863 
L 1178 4863 
L 1178 4134 
L 603 4134 
L 603 4863 
z
" transform="scale(0.015625)"/>
       <path id="DejaVuSans-6d" d="M 3328 2828 
Q 3544 3216 3844 3400 
Q 4144 3584 4550 3584 
Q 5097 3584 5394 3201 
Q 5691 2819 5691 2113 
L 5691 0 
L 5113 0 
L 5113 2094 
Q 5113 2597 4934 2840 
Q 4756 3084 4391 3084 
Q 3944 3084 3684 2787 
Q 3425 2491 3425 1978 
L 3425 0 
L 2847 0 
L 2847 2094 
Q 2847 2600 2669 2842 
Q 2491 3084 2119 3084 
Q 1678 3084 1418 2786 
Q 1159 2488 1159 1978 
L 1159 0 
L 581 0 
L 581 3500 
L 1159 3500 
L 1159 2956 
Q 1356 3278 1631 3431 
Q 1906 3584 2284 3584 
Q 2666 3584 2933 3390 
Q 3200 3197 3328 2828 
z
" transform="scale(0.015625)"/>
       <path id="DejaVuSans-65" d="M 3597 1894 
L 3597 1613 
L 953 1613 
Q 991 1019 1311 708 
Q 1631 397 2203 397 
Q 2534 397 2845 478 
Q 3156 559 3463 722 
L 3463 178 
Q 3153 47 2828 -22 
Q 2503 -91 2169 -91 
Q 1331 -91 842 396 
Q 353 884 353 1716 
Q 353 2575 817 3079 
Q 1281 3584 2069 3584 
Q 2775 3584 3186 3129 
Q 3597 2675 3597 1894 
z
M 3022 2063 
Q 3016 2534 2758 2815 
Q 2500 3097 2075 3097 
Q 1594 3097 1305 2825 
Q 1016 2553 972 2059 
L 3022 2063 
z
" transform="scale(0.015625)"/>
      </defs>
      <use xlink:href="#DejaVuSans-54"/>
      <use xlink:href="#DejaVuSans-69" x="57.958984"/>
      <use xlink:href="#DejaVuSans-6d" x="85.742188"/>
      <use xlink:href="#DejaVuSans-65" x="183.154297"/>
     </g>
    </g>
   </g>
   <g id="matplotlib.axis_2">
    <g id="ytick_1">
     <g id="line2d_8">
      <defs>
       <path id="m5003cb6d06" d="M 0 0 
L -3.5 0 
" style="stroke: #000000; stroke-width: 0.8"/>
      </defs>
      <g>
       <use xlink:href="#m5003cb6d06" x="49.235" y="344.397187" style="stroke: #000000; stroke-width: 0.8"/>
      </g>
     </g>
     <g id="text_9">
      <!-- 0 -->
      <g transform="translate(35.8725 348.196406) scale(0.1 -0.1)">
       <use xlink:href="#DejaVuSans-30"/>
      </g>
     </g>
    </g>
    <g id="ytick_2">
     <g id="line2d_9">
      <g>
       <use xlink:href="#m5003cb6d06" x="49.235" y="303.96938" style="stroke: #000000; stroke-width: 0.8"/>
      </g>
     </g>
     <g id="text_10">
      <!-- 100 -->
      <g transform="translate(23.1475 307.768599) scale(0.1 -0.1)">
       <use xlink:href="#DejaVuSans-31"/>
       <use xlink:href="#DejaVuSans-30" x="63.623047"/>
       <use xlink:href="#DejaVuSans-30" x="127.246094"/>
      </g>
     </g>
    </g>
    <g id="ytick_3">
     <g id="line2d_10">
      <g>
       <use xlink:href="#m5003cb6d06" x="49.235" y="263.541573" style="stroke: #000000; stroke-width: 0.8"/>
      </g>
     </g>
     <g id="text_11">
      <!-- 200 -->
      <g transform="translate(23.1475 267.340791) scale(0.1 -0.1)">
       <use xlink:href="#DejaVuSans-32"/>
       <use xlink:href="#DejaVuSans-30" x="63.623047"/>
       <use xlink:href="#DejaVuSans-30" x="127.246094"/>
      </g>
     </g>
    </g>
    <g id="ytick_4">
     <g id="line2d_11">
      <g>
       <use xlink:href="#m5003cb6d06" x="49.235" y="223.113765" style="stroke: #000000; stroke-width: 0.8"/>
      </g>
     </g>
     <g id="text_12">
      <!-- 300 -->
      <g transform="translate(23.1475 226.912984) scale(0.1 -0.1)">
       <use xlink:href="#DejaVuSans-33"/>
       <use xlink:href="#DejaVuSans-30" x="63.623047"/>
       <use xlink:href="#DejaVuSans-30" x="127.246094"/>
      </g>
     </g>
    </g>
    <g id="ytick_5">
     <g id="line2d_12">
      <g>
       <use xlink:href="#m5003cb6d06" x="49.235" y="182.685958" style="stroke: #000000; stroke-width: 0.8"/>
      </g>
     </g>
     <g id="text_13">
      <!-- 400 -->
      <g transform="translate(23.1475 186.485176) scale(0.1 -0.1)">
       <defs>
        <path id="DejaVuSans-34" d="M 2419 4116 
L 825 1625 
L 2419 1625 
L 2419 4116 
z
M 2253 4666 
L 3047 4666 
L 3047 1625 
L 3713 1625 
L 3713 1100 
L 3047 1100 
L 3047 0 
L 2419 0 
L 2419 1100 
L 313 1100 
L 313 1709 
L 2253 4666 
z
" transform="scale(0.015625)"/>
       </defs>
       <use xlink:href="#DejaVuSans-34"/>
       <use xlink:href="#DejaVuSans-30" x="63.623047"/>
       <use xlink:href="#DejaVuSans-30" x="127.246094"/>
      </g>
     </g>
    </g>
    <g id="ytick_6">
     <g id="line2d_13">
      <g>
       <use xlink:href="#m5003cb6d06" x="49.235" y="142.25815" style="stroke: #000000; stroke-width: 0.8"/>
      </g>
     </g>
     <g id="text_14">
      <!-- 500 -->
      <g transform="translate(23.1475 146.057369) scale(0.1 -0.1)">
       <defs>
        <path id="DejaVuSans-35" d="M 691 4666 
L 3169 4666 
L 3169 4134 
L 1269 4134 
L 1269 2991 
Q 1406 3038 1543 3061 
Q 1681 3084 1819 3084 
Q 2600 3084 3056 2656 
Q 3513 2228 3513 1497 
Q 3513 744 3044 326 
Q 2575 -91 1722 -91 
Q 1428 -91 1123 -41 
Q 819 9 494 109 
L 494 744 
Q 775 591 1075 516 
Q 1375 441 1709 441 
Q 2250 441 2565 725 
Q 2881 1009 2881 1497 
Q 2881 1984 2565 2268 
Q 2250 2553 1709 2553 
Q 1456 2553 1204 2497 
Q 953 2441 691 2322 
L 691 4666 
z
" transform="scale(0.015625)"/>
       </defs>
       <use xlink:href="#DejaVuSans-35"/>
       <use xlink:href="#DejaVuSans-30" x="63.623047"/>
       <use xlink:href="#DejaVuSans-30" x="127.246094"/>
      </g>
     </g>
    </g>
    <g id="ytick_7">
     <g id="line2d_14">
      <g>
       <use xlink:href="#m5003cb6d06" x="49.235" y="101.830343" style="stroke: #000000; stroke-width: 0.8"/>
      </g>
     </g>
     <g id="text_15">
      <!-- 600 -->
      <g transform="translate(23.1475 105.629561) scale(0.1 -0.1)">
       <defs>
        <path id="DejaVuSans-36" d="M 2113 2584 
Q 1688 2584 1439 2293 
Q 1191 2003 1191 1497 
Q 1191 994 1439 701 
Q 1688 409 2113 409 
Q 2538 409 2786 701 
Q 3034 994 3034 1497 
Q 3034 2003 2786 2293 
Q 2538 2584 2113 2584 
z
M 3366 4563 
L 3366 3988 
Q 3128 4100 2886 4159 
Q 2644 4219 2406 4219 
Q 1781 4219 1451 3797 
Q 1122 3375 1075 2522 
Q 1259 2794 1537 2939 
Q 1816 3084 2150 3084 
Q 2853 3084 3261 2657 
Q 3669 2231 3669 1497 
Q 3669 778 3244 343 
Q 2819 -91 2113 -91 
Q 1303 -91 875 529 
Q 447 1150 447 2328 
Q 447 3434 972 4092 
Q 1497 4750 2381 4750 
Q 2619 4750 2861 4703 
Q 3103 4656 3366 4563 
z
" transform="scale(0.015625)"/>
       </defs>
       <use xlink:href="#DejaVuSans-36"/>
       <use xlink:href="#DejaVuSans-30" x="63.623047"/>
       <use xlink:href="#DejaVuSans-30" x="127.246094"/>
      </g>
     </g>
    </g>
    <g id="ytick_8">
     <g id="line2d_15">
      <g>
       <use xlink:href="#m5003cb6d06" x="49.235" y="61.402535" style="stroke: #000000; stroke-width: 0.8"/>
      </g>
     </g>
     <g id="text_16">
      <!-- 700 -->
      <g transform="translate(23.1475 65.201754) scale(0.1 -0.1)">
       <defs>
        <path id="DejaVuSans-37" d="M 525 4666 
L 3525 4666 
L 3525 4397 
L 1831 0 
L 1172 0 
L 2766 4134 
L 525 4134 
L 525 4666 
z
" transform="scale(0.015625)"/>
       </defs>
       <use xlink:href="#DejaVuSans-37"/>
       <use xlink:href="#DejaVuSans-30" x="63.623047"/>
       <use xlink:href="#DejaVuSans-30" x="127.246094"/>
      </g>
     </g>
    </g>
    <g id="text_17">
     <!-- Pellet_Count -->
     <g transform="translate(16.318125 230.485312) rotate(-90) scale(0.12 -0.12)">
      <defs>
       <path id="DejaVuSans-50" d="M 1259 4147 
L 1259 2394 
L 2053 2394 
Q 2494 2394 2734 2622 
Q 2975 2850 2975 3272 
Q 2975 3691 2734 3919 
Q 2494 4147 2053 4147 
L 1259 4147 
z
M 628 4666 
L 2053 4666 
Q 2838 4666 3239 4311 
Q 3641 3956 3641 3272 
Q 3641 2581 3239 2228 
Q 2838 1875 2053 1875 
L 1259 1875 
L 1259 0 
L 628 0 
L 628 4666 
z
" transform="scale(0.015625)"/>
       <path id="DejaVuSans-6c" d="M 603 4863 
L 1178 4863 
L 1178 0 
L 603 0 
L 603 4863 
z
" transform="scale(0.015625)"/>
       <path id="DejaVuSans-74" d="M 1172 4494 
L 1172 3500 
L 2356 3500 
L 2356 3053 
L 1172 3053 
L 1172 1153 
Q 1172 725 1289 603 
Q 1406 481 1766 481 
L 2356 481 
L 2356 0 
L 1766 0 
Q 1100 0 847 248 
Q 594 497 594 1153 
L 594 3053 
L 172 3053 
L 172 3500 
L 594 3500 
L 594 4494 
L 1172 4494 
z
" transform="scale(0.015625)"/>
       <path id="DejaVuSans-5f" d="M 3263 -1063 
L 3263 -1509 
L -63 -1509 
L -63 -1063 
L 3263 -1063 
z
" transform="scale(0.015625)"/>
       <path id="DejaVuSans-43" d="M 4122 4306 
L 4122 3641 
Q 3803 3938 3442 4084 
Q 3081 4231 2675 4231 
Q 1875 4231 1450 3742 
Q 1025 3253 1025 2328 
Q 1025 1406 1450 917 
Q 1875 428 2675 428 
Q 3081 428 3442 575 
Q 3803 722 4122 1019 
L 4122 359 
Q 3791 134 3420 21 
Q 3050 -91 2638 -91 
Q 1578 -91 968 557 
Q 359 1206 359 2328 
Q 359 3453 968 4101 
Q 1578 4750 2638 4750 
Q 3056 4750 3426 4639 
Q 3797 4528 4122 4306 
z
" transform="scale(0.015625)"/>
       <path id="DejaVuSans-6f" d="M 1959 3097 
Q 1497 3097 1228 2736 
Q 959 2375 959 1747 
Q 959 1119 1226 758 
Q 1494 397 1959 397 
Q 2419 397 2687 759 
Q 2956 1122 2956 1747 
Q 2956 2369 2687 2733 
Q 2419 3097 1959 3097 
z
M 1959 3584 
Q 2709 3584 3137 3096 
Q 3566 2609 3566 1747 
Q 3566 888 3137 398 
Q 2709 -91 1959 -91 
Q 1206 -91 779 398 
Q 353 888 353 1747 
Q 353 2609 779 3096 
Q 1206 3584 1959 3584 
z
" transform="scale(0.015625)"/>
       <path id="DejaVuSans-75" d="M 544 1381 
L 544 3500 
L 1119 3500 
L 1119 1403 
Q 1119 906 1312 657 
Q 1506 409 1894 409 
Q 2359 409 2629 706 
Q 2900 1003 2900 1516 
L 2900 3500 
L 3475 3500 
L 3475 0 
L 2900 0 
L 2900 538 
Q 2691 219 2414 64 
Q 2138 -91 1772 -91 
Q 1169 -91 856 284 
Q 544 659 544 1381 
z
M 1991 3584 
L 1991 3584 
z
" transform="scale(0.015625)"/>
       <path id="DejaVuSans-6e" d="M 3513 2113 
L 3513 0 
L 2938 0 
L 2938 2094 
Q 2938 2591 2744 2837 
Q 2550 3084 2163 3084 
Q 1697 3084 1428 2787 
Q 1159 2491 1159 1978 
L 1159 0 
L 581 0 
L 581 3500 
L 1159 3500 
L 1159 2956 
Q 1366 3272 1645 3428 
Q 1925 3584 2291 3584 
Q 2894 3584 3203 3211 
Q 3513 2838 3513 2113 
z
" transform="scale(0.015625)"/>
      </defs>
      <use xlink:href="#DejaVuSans-50"/>
      <use xlink:href="#DejaVuSans-65" x="56.677734"/>
      <use xlink:href="#DejaVuSans-6c" x="118.201172"/>
      <use xlink:href="#DejaVuSans-6c" x="145.984375"/>
      <use xlink:href="#DejaVuSans-65" x="173.767578"/>
      <use xlink:href="#DejaVuSans-74" x="235.291016"/>
      <use xlink:href="#DejaVuSans-5f" x="274.5"/>
      <use xlink:href="#DejaVuSans-43" x="324.5"/>
      <use xlink:href="#DejaVuSans-6f" x="394.324219"/>
      <use xlink:href="#DejaVuSans-75" x="455.505859"/>
      <use xlink:href="#DejaVuSans-6e" x="518.884766"/>
      <use xlink:href="#DejaVuSans-74" x="582.263672"/>
     </g>
    </g>
   </g>
   <g id="line2d_16">
    <path d="M 99.962273 344.397187 
L 100.513487 343.992909 
L 105.099874 343.992909 
L 105.145808 343.588631 
L 111.343437 343.588631 
L 111.467107 343.184353 
L 111.527175 342.780075 
L 115.117136 342.780075 
L 115.134803 342.375797 
L 116.304367 342.375797 
L 116.322034 341.971519 
L 117.512798 341.971519 
L 117.533999 341.567241 
L 117.82374 341.567241 
L 117.852007 341.162963 
L 118.230084 341.162963 
L 118.244217 340.758685 
L 120.230003 340.758685 
L 120.244136 340.354407 
L 120.417274 340.354407 
L 120.512677 339.950129 
L 120.555078 339.950129 
L 120.555078 339.950129 
L 120.576278 339.545851 
L 120.707015 339.545851 
L 120.760016 339.141573 
L 121.141626 339.141573 
L 121.16636 338.737294 
L 123.120345 338.737294 
L 123.233414 338.333016 
L 123.282882 338.333016 
L 123.31115 337.928738 
L 124.434779 337.928738 
L 124.445379 337.52446 
L 124.565516 337.52446 
L 124.572583 337.120182 
L 124.703319 337.120182 
L 124.720987 336.715904 
L 125.657344 336.715904 
L 125.667945 336.311626 
L 126.660837 336.311626 
L 126.674971 335.907348 
L 126.833975 335.907348 
L 126.908177 335.50307 
L 127.639596 335.50307 
L 127.752666 334.694514 
L 128.318014 334.694514 
L 128.335681 334.290236 
L 131.646501 334.290236 
L 131.653568 333.885958 
L 133.455615 333.885958 
L 133.469749 333.481679 
L 135.201127 333.481679 
L 135.208194 333.077401 
L 135.4202 333.077401 
L 135.540336 332.268845 
L 135.635739 332.268845 
L 135.642805 331.864567 
L 135.773542 331.864567 
L 135.80181 331.460289 
L 137.423652 331.460289 
L 137.536722 331.056011 
L 137.59679 331.056011 
L 137.709859 330.651733 
L 137.738127 330.651733 
L 137.74166 330.247455 
L 140.363462 330.247455 
L 140.458865 329.438899 
L 140.5472 329.438899 
L 140.561334 329.034621 
L 140.685004 329.034621 
L 140.688537 328.630343 
L 141.723831 328.630343 
L 141.727365 328.226065 
L 141.879302 328.226065 
L 141.985305 327.417508 
L 142.05244 327.417508 
L 142.059507 327.01323 
L 142.193777 327.01323 
L 142.299779 326.204674 
L 142.409316 326.204674 
L 142.518852 325.396118 
L 142.585987 325.396118 
L 142.621321 324.587562 
L 144.490503 324.587562 
L 144.494037 324.183284 
L 145.211322 324.183284 
L 145.324392 323.779006 
L 146.197148 323.779006 
L 146.243083 323.374728 
L 146.868499 323.374728 
L 146.9109 322.97045 
L 149.080423 322.97045 
L 149.091024 322.566171 
L 149.317163 322.566171 
L 149.331297 322.161893 
L 151.055608 322.161893 
L 151.066209 321.757615 
L 151.214613 321.757615 
L 151.228746 321.353337 
L 151.391284 321.353337 
L 151.469019 320.949059 
L 152.211039 320.949059 
L 152.214572 320.544781 
L 152.37711 320.544781 
L 152.472512 320.140503 
L 152.543181 320.140503 
L 152.560848 319.736225 
L 152.698651 319.736225 
L 152.825855 318.927669 
L 153.737478 318.927669 
L 153.744545 318.523391 
L 154.422963 318.523391 
L 154.433563 318.119113 
L 154.825774 318.119113 
L 154.938843 317.714835 
L 154.974177 317.714835 
L 154.981244 317.310556 
L 155.126115 317.310556 
L 155.143782 316.906278 
L 156.299212 316.906278 
L 156.306279 316.502 
L 156.433482 316.502 
L 156.451149 316.097722 
L 156.631354 316.097722 
L 156.638421 315.693444 
L 156.921095 315.693444 
L 156.928162 315.289166 
L 157.345106 315.289166 
L 157.352173 314.884888 
L 157.836252 314.884888 
L 157.843319 314.48061 
L 157.974056 314.48061 
L 157.977589 314.076332 
L 159.069418 314.076332 
L 159.083552 313.672054 
L 159.316758 313.672054 
L 159.327358 313.267776 
L 159.500496 313.267776 
L 159.507563 312.863498 
L 159.6595 312.863498 
L 159.673634 312.45922 
L 160.284916 312.45922 
L 160.313184 312.054942 
L 161.440346 311.650663 
L 163.560402 311.650663 
L 163.567469 311.246385 
L 163.687605 311.246385 
L 163.691139 310.842107 
L 163.87841 310.842107 
L 163.984413 310.033551 
L 164.062148 310.033551 
L 164.076282 309.629273 
L 164.740566 309.629273 
L 164.747633 309.224995 
L 165.698124 309.224995 
L 165.729925 308.820717 
L 168.245724 308.820717 
L 168.355261 308.416439 
L 168.567266 308.416439 
L 168.5814 308.012161 
L 168.796939 308.012161 
L 168.800472 307.607883 
L 170.64492 307.607883 
L 170.712056 307.203605 
L 174.146545 307.203605 
L 174.150079 306.799327 
L 174.43982 306.799327 
L 174.514022 305.99077 
L 174.581157 305.99077 
L 174.669492 305.182214 
L 174.743694 305.182214 
L 174.83203 304.373658 
L 174.973367 304.373658 
L 174.9769 303.96938 
L 189.227206 303.96938 
L 189.244873 303.565102 
L 189.538148 303.565102 
L 189.545215 303.160824 
L 200.163159 303.160824 
L 200.180826 302.756546 
L 200.368097 302.756546 
L 200.382231 302.352268 
L 200.60837 302.352268 
L 200.615437 301.94799 
L 201.134851 301.94799 
L 201.141918 301.543712 
L 201.272654 301.543712 
L 201.279721 301.139433 
L 201.530594 301.139433 
L 201.537661 300.735155 
L 201.678998 300.735155 
L 201.682532 300.330877 
L 201.958139 300.330877 
L 201.965206 299.926599 
L 202.099476 299.926599 
L 202.103009 299.522321 
L 202.262014 299.522321 
L 202.26908 299.118043 
L 202.410417 299.118043 
L 202.417484 298.713765 
L 203.534047 298.713765 
L 205.526899 298.309487 
L 206.707063 298.309487 
L 206.813066 297.905209 
L 206.8378 297.905209 
L 206.936736 297.500931 
L 209.01439 297.500931 
L 209.307664 297.096653 
L 210.194554 297.096653 
L 210.208688 296.692375 
L 210.381826 296.692375 
L 210.399493 296.288097 
L 210.752836 296.288097 
L 210.865905 295.47954 
L 210.964841 295.47954 
L 210.971908 295.075262 
L 211.173313 295.075262 
L 211.18038 294.670984 
L 211.402986 294.670984 
L 211.410053 294.266706 
L 213.752714 294.266706 
L 213.763314 293.862428 
L 213.968253 293.862428 
L 213.982387 293.45815 
L 214.35693 293.45815 
L 214.360463 293.053872 
L 214.498267 293.053872 
L 214.519467 292.649594 
L 214.671405 292.649594 
L 214.674938 292.245316 
L 214.795075 292.245316 
L 214.89401 291.43676 
L 215.494693 291.43676 
L 215.50176 291.032482 
L 217.349741 291.032482 
L 217.911556 290.628204 
L 217.918623 290.223925 
L 218.031693 290.223925 
L 218.035226 289.819647 
L 222.247069 289.819647 
L 222.310671 289.415369 
L 222.540344 289.415369 
L 222.547411 289.011091 
L 223.088025 289.011091 
L 227.045461 288.606813 
L 227.052528 288.202535 
L 229.299787 288.202535 
L 229.306854 287.798257 
L 229.42699 287.798257 
L 229.444658 287.393979 
L 229.589528 287.393979 
L 229.596595 286.989701 
L 229.822734 286.989701 
L 229.836868 286.585423 
L 252.334189 286.585423 
L 252.373057 286.181145 
L 252.48966 286.181145 
L 252.683998 285.372589 
L 252.775867 285.372589 
L 252.846536 284.564032 
L 252.938405 284.564032 
L 252.956072 284.159754 
L 256.100821 284.159754 
L 256.107888 283.755476 
L 257.814532 283.755476 
L 257.821599 283.351198 
L 258.24561 283.351198 
L 258.302145 282.94692 
L 266.262953 282.94692 
L 266.27002 282.542642 
L 266.503226 282.542642 
L 266.538561 282.138364 
L 275.937473 282.138364 
L 275.937473 282.138364 
L 275.94454 281.734086 
L 276.244881 281.734086 
L 276.251948 281.329808 
L 277.071703 281.329808 
L 277.117637 280.92553 
L 277.442712 280.92553 
L 277.644118 280.521252 
L 296.950756 280.521252 
L 296.97549 280.116974 
L 297.721042 280.116974 
L 297.752843 279.712696 
L 302.310962 279.712696 
L 302.34983 279.308417 
L 304.226079 279.308417 
L 304.233146 278.904139 
L 325.105092 278.904139 
L 325.119225 278.499861 
L 328.097903 278.499861 
L 328.108503 278.095583 
L 350.181814 278.095583 
L 350.213615 277.691305 
L 350.393819 277.691305 
L 350.506889 277.287027 
L 351.284243 277.287027 
L 351.506848 276.882749 
L 352.70468 276.882749 
L 353.262961 276.478471 
L 354.934271 276.478471 
L 355.033207 276.074193 
L 385.957749 276.074193 
L 386.593766 275.669915 
L 405.635397 275.669915 
L 405.667197 275.265637 
L 406.034674 275.265637 
L 406.140677 274.861359 
L 424.079879 274.861359 
L 426.751149 274.457081 
L 427.493168 274.457081 
L 429.503687 274.052802 
L 429.775761 274.052802 
L 429.938299 273.648524 
L 430.284574 273.648524 
L 430.323442 273.244246 
L 430.740386 273.244246 
L 430.835789 272.43569 
L 430.885257 272.43569 
L 430.892324 272.031412 
L 431.008927 272.031412 
L 431.065461 271.222856 
L 431.408204 271.222856 
L 431.422337 270.818578 
L 431.768613 270.818578 
L 431.842815 270.010022 
L 431.895816 270.010022 
L 431.994752 268.797187 
L 432.266826 268.797187 
L 432.365762 267.988631 
L 432.439964 267.988631 
L 432.545967 267.180075 
L 432.616635 267.180075 
L 432.623702 266.775797 
L 434.266745 266.775797 
L 434.355081 266.371519 
L 434.510551 266.371519 
L 434.613021 265.562963 
L 434.641288 265.562963 
L 434.648355 265.158685 
L 434.800292 265.158685 
L 434.899228 264.350129 
L 435.001698 264.350129 
L 435.100634 263.945851 
L 435.959256 263.945851 
L 436.248997 263.541573 
L 438.559857 263.541573 
L 438.563391 263.137294 
L 438.803664 263.137294 
L 438.810731 262.733016 
L 442.054415 262.733016 
L 442.061482 262.328738 
L 442.220486 262.328738 
L 442.330023 261.92446 
L 442.418358 261.92446 
L 442.425425 261.520182 
L 442.602096 261.520182 
L 442.693965 261.115904 
L 444.552547 261.115904 
L 444.65855 260.711626 
L 444.718618 260.711626 
L 444.722152 260.307348 
L 445.2875 260.307348 
L 445.404103 259.90307 
L 445.414703 259.90307 
L 445.527773 259.498792 
L 445.640842 258.690236 
L 445.729178 258.690236 
L 445.835181 257.881679 
L 445.955317 257.881679 
L 445.958851 257.477401 
L 446.492398 257.477401 
L 446.495931 257.073123 
L 446.729138 257.073123 
L 446.842207 256.264567 
L 446.934076 256.264567 
L 447.050679 255.456011 
L 447.131948 255.456011 
L 447.139015 255.051733 
L 447.252085 255.051733 
L 447.354554 254.243177 
L 447.45349 254.243177 
L 447.46409 253.838899 
L 448.142508 253.838899 
L 448.149575 253.434621 
L 448.287378 253.434621 
L 448.297979 253.030343 
L 449.997556 253.030343 
L 450.188361 252.221786 
L 450.301431 252.221786 
L 450.414501 251.817508 
L 450.827911 250.604674 
L 450.831445 250.200396 
L 450.944514 250.200396 
L 451.054051 249.39184 
L 451.859672 249.39184 
L 451.863205 248.987562 
L 452.859631 248.987562 
L 453.294243 248.583284 
L 453.301309 248.179006 
L 453.488581 248.179006 
L 453.495648 247.774728 
L 453.629918 247.774728 
L 453.739454 247.37045 
L 455.587436 247.37045 
L 455.61217 246.966171 
L 455.89131 246.966171 
L 456.01498 246.157615 
L 456.135117 246.157615 
L 456.152784 245.349059 
L 456.424858 245.349059 
L 456.428391 244.944781 
L 456.831202 244.944781 
L 456.834735 244.540503 
L 457.891229 244.540503 
L 458.237505 243.327669 
L 459.262199 243.327669 
L 459.537806 242.114835 
L 460.096087 242.114835 
L 460.09962 241.710556 
L 460.272758 241.710556 
L 460.279825 241.306278 
L 460.640235 241.306278 
L 460.643768 240.902 
L 460.85224 240.902 
L 460.859307 240.497722 
L 461.859266 240.497722 
L 461.8628 240.093444 
L 462.004137 240.093444 
L 462.011204 239.689166 
L 462.332745 239.689166 
L 462.498816 239.284888 
L 462.703755 239.284888 
L 462.809758 238.88061 
L 463.951054 238.88061 
L 463.954588 238.476332 
L 464.138326 238.476332 
L 464.254929 237.667776 
L 464.417467 237.667776 
L 464.424533 237.263498 
L 465.102951 237.263498 
L 465.110018 236.85922 
L 466.996867 236.85922 
L 467.099337 236.454942 
L 467.131138 236.454942 
L 467.141738 236.050663 
L 467.477413 236.050663 
L 467.579883 235.646385 
L 467.622284 235.646385 
L 467.657618 234.837829 
L 468.357236 234.837829 
L 468.477373 234.029273 
L 468.608109 234.029273 
L 468.615176 233.624995 
L 468.788314 233.624995 
L 468.89785 232.816439 
L 476.879859 232.816439 
L 477.459341 232.412161 
L 477.462874 232.007883 
L 477.575944 232.007883 
L 477.579477 231.603605 
L 477.692547 231.603605 
L 477.80915 230.795048 
L 477.975221 230.795048 
L 478.113025 229.986492 
L 478.254362 229.986492 
L 478.261429 229.582214 
L 478.388632 229.582214 
L 478.395699 229.177936 
L 478.529969 229.177936 
L 478.533502 228.773658 
L 478.650105 228.773658 
L 478.653639 228.36938 
L 479.120051 228.36938 
L 479.127118 227.965102 
L 482.183531 227.965102 
L 482.190598 227.560824 
L 500.122733 227.560824 
L 500.1298 227.156546 
L 500.331205 227.156546 
L 500.36654 226.34799 
L 500.688081 226.34799 
L 500.726949 225.539433 
L 508.913896 225.539433 
L 508.920963 225.135155 
L 509.203637 225.135155 
L 509.207171 224.730877 
L 509.369708 224.730877 
L 509.373242 224.326599 
L 509.500445 224.326599 
L 509.500445 224.326599 
L 509.514579 223.922321 
L 509.627648 223.922321 
L 509.634715 223.518043 
L 509.751318 223.518043 
L 509.754852 223.113765 
L 511.132888 223.113765 
L 511.249491 222.709487 
L 511.274225 222.709487 
L 511.380228 222.305209 
L 511.397895 222.305209 
L 511.401428 221.900931 
L 511.532165 221.900931 
L 511.535698 221.496653 
L 511.662902 221.496653 
L 511.669969 221.092375 
L 511.86784 221.092375 
L 511.874907 220.688097 
L 512.040978 220.688097 
L 512.044512 220.283819 
L 512.295385 220.283819 
L 512.298918 219.87954 
L 512.464989 219.87954 
L 512.479123 219.475262 
L 512.641661 219.475262 
L 512.655794 219.070984 
L 513.454348 219.070984 
L 513.457882 218.666706 
L 514.563844 218.666706 
L 514.570911 218.262428 
L 514.694581 218.262428 
L 514.722848 217.453872 
L 514.913653 217.453872 
L 515.023189 217.049594 
L 515.143326 216.645316 
L 515.334131 216.645316 
L 515.337664 216.241038 
L 515.507269 216.241038 
L 515.510802 215.83676 
L 515.659206 215.83676 
L 515.659206 215.83676 
L 515.67334 215.432482 
L 517.08671 215.432482 
L 517.09731 215.028204 
L 517.623791 215.028204 
L 517.627324 214.623925 
L 518.814555 214.623925 
L 518.818089 214.219647 
L 519.570708 214.219647 
L 519.577775 213.815369 
L 521.499959 213.815369 
L 522.567053 213.411091 
L 522.588254 213.006813 
L 522.761392 213.006813 
L 522.768459 212.602535 
L 523.34794 212.602535 
L 523.362074 212.198257 
L 523.57408 212.198257 
L 523.581147 211.793979 
L 523.874421 211.793979 
L 523.877954 211.389701 
L 524.107627 211.389701 
L 524.114694 210.985423 
L 526.9167 210.985423 
L 529.022622 210.581145 
L 529.895378 210.581145 
L 530.001381 209.772589 
L 530.10385 209.772589 
L 530.22752 208.964032 
L 530.35119 208.964032 
L 530.471327 208.155476 
L 530.478394 208.155476 
L 530.594997 207.34692 
L 530.686866 207.34692 
L 530.690399 206.942642 
L 530.821136 206.942642 
L 530.831736 206.538364 
L 530.962473 206.538364 
L 531.075542 205.729808 
L 531.202746 205.729808 
L 531.209813 205.32553 
L 532.711519 205.32553 
L 532.757453 204.921252 
L 536.453416 204.921252 
L 536.453416 204.921252 
L 536.471083 204.516974 
L 558.205185 204.516974 
L 558.357122 204.112696 
L 558.703398 204.112696 
L 558.703398 204.112696 
L 558.717532 203.708417 
L 558.858869 203.708417 
L 558.968405 202.899861 
L 559.597355 202.899861 
L 559.604422 202.495583 
L 559.759892 202.495583 
L 559.869428 202.091305 
L 560.123835 202.091305 
L 562.706769 201.687027 
L 562.713836 201.282749 
L 562.918775 201.282749 
L 563.028311 200.474193 
L 563.13078 200.474193 
L 563.144914 200.069915 
L 563.296851 200.069915 
L 563.303918 199.665637 
L 563.420521 199.665637 
L 563.424055 199.261359 
L 563.600726 199.261359 
L 563.837466 198.857081 
L 563.879867 198.048524 
L 579.144266 198.048524 
L 579.154866 197.644246 
L 579.310337 197.644246 
L 579.328004 197.239968 
L 579.515275 197.239968 
L 579.518809 196.83569 
L 579.653079 196.83569 
L 579.667213 196.431412 
L 579.82975 196.431412 
L 579.833284 196.027134 
L 579.971087 196.027134 
L 579.978154 195.622856 
L 596.475719 195.622856 
L 596.482786 195.218578 
L 596.680657 195.218578 
L 596.684191 194.8143 
L 596.836128 194.8143 
L 596.839662 194.410022 
L 596.998666 194.410022 
L 597.111735 194.005744 
L 597.115269 194.005744 
L 597.221272 193.197187 
L 597.327274 193.197187 
L 597.330808 192.792909 
L 598.072827 192.792909 
L 598.101095 192.388631 
L 604.29519 192.388631 
L 604.408259 191.580075 
L 604.489528 191.580075 
L 604.581397 190.771519 
L 604.694467 190.771519 
L 604.793403 189.962963 
L 610.563487 189.962963 
L 612.171196 189.558685 
L 612.178263 189.154407 
L 626.866713 189.154407 
L 626.87378 188.750129 
L 627.085786 188.750129 
L 627.092852 188.345851 
L 636.050087 188.345851 
L 638.339746 187.941573 
L 638.34328 187.537294 
L 638.463416 187.537294 
L 638.562352 187.133016 
L 638.753157 186.32446 
L 641.880239 186.32446 
L 641.887306 185.920182 
L 685.171771 185.920182 
L 685.182371 185.515904 
L 685.309574 185.515904 
L 685.412044 184.707348 
L 685.51098 184.707348 
L 685.588715 183.898792 
L 685.677051 183.898792 
L 685.684117 183.494514 
L 685.821921 183.494514 
L 685.92439 182.685958 
L 686.033927 182.685958 
L 686.129329 181.877401 
L 686.196464 181.877401 
L 686.199998 181.473123 
L 686.814814 181.473123 
L 686.942017 181.068845 
L 688.210517 181.068845 
L 688.21405 180.664567 
L 688.334187 180.664567 
L 688.45079 179.856011 
L 690.274037 179.856011 
L 690.281104 179.451733 
L 693.584857 179.451733 
L 694.245608 179.047455 
L 694.641352 179.047455 
L 694.641352 179.047455 
L 694.747354 178.238899 
L 695.429305 178.238899 
L 695.432839 177.834621 
L 697.079415 177.834621 
L 697.082949 177.430343 
L 697.245486 177.430343 
L 697.24902 177.026065 
L 697.400957 177.026065 
L 697.415091 176.621786 
L 701.581 176.621786 
L 701.584533 176.217508 
L 701.732937 176.217508 
L 701.73647 175.81323 
L 701.930809 175.81323 
L 701.934342 175.408952 
L 702.050945 175.408952 
L 702.058012 175.004674 
L 702.206416 175.004674 
L 702.217016 174.600396 
L 713.548712 174.600396 
L 713.856121 174.196118 
L 714.022192 174.196118 
L 714.099927 173.79184 
L 715.598099 173.79184 
L 715.605166 173.387562 
L 717.749956 173.387562 
L 718.269369 172.983284 
L 718.615645 172.983284 
L 718.703981 172.174728 
L 718.764049 172.174728 
L 718.824117 171.366171 
L 719.424799 171.366171 
L 719.661539 170.961893 
L 721.09611 170.961893 
L 721.195046 170.557615 
L 722.75682 170.557615 
L 723.534174 170.153337 
L 724.449331 170.153337 
L 724.534133 169.344781 
L 724.601268 169.344781 
L 724.671937 168.536225 
L 724.749672 168.536225 
L 724.830941 167.727669 
L 724.891009 167.727669 
L 724.968744 166.919113 
L 725.071214 166.919113 
L 725.156016 166.110556 
L 725.240818 166.110556 
L 725.339754 165.302 
L 735.904697 165.302 
L 736.879922 164.897722 
L 736.964725 164.089166 
L 737.028326 164.089166 
L 737.028326 164.089166 
L 737.162596 163.28061 
L 740.356813 163.28061 
L 740.36388 162.876332 
L 740.48755 162.876332 
L 740.597086 162.472054 
L 742.116459 162.472054 
L 742.194195 161.663498 
L 742.250729 161.663498 
L 742.339065 161.25922 
L 745.013868 161.25922 
L 745.020935 160.854942 
L 745.83009 160.854942 
L 745.943159 160.046385 
L 745.996161 160.046385 
L 746.10923 159.237829 
L 746.194033 159.237829 
L 746.296502 158.429273 
L 746.36717 158.429273 
L 746.487307 157.620717 
L 746.572109 157.620717 
L 746.667512 157.216439 
L 746.731113 157.216439 
L 746.844183 156.812161 
L 746.85125 156.812161 
L 746.85125 156.812161 
L 746.946652 156.407883 
L 751.101961 156.407883 
L 751.253898 156.003605 
L 752.34926 156.003605 
L 752.448196 155.599327 
L 754.038238 155.599327 
L 754.119506 154.79077 
L 754.197242 154.79077 
L 754.278511 153.982214 
L 754.331512 153.982214 
L 754.419848 153.173658 
L 754.483449 153.173658 
L 754.578852 152.365102 
L 754.684854 152.365102 
L 754.684854 152.365102 
L 754.769657 151.556546 
L 756.94978 151.556546 
L 756.978048 151.152268 
L 758.211213 151.152268 
L 758.285415 150.343712 
L 758.349017 150.343712 
L 758.430286 149.535155 
L 758.543355 149.535155 
L 758.624624 149.130877 
L 763.896495 149.130877 
L 764.34524 148.726599 
L 765.3664 148.726599 
L 765.475937 147.918043 
L 765.553672 147.918043 
L 765.652608 147.109487 
L 765.709143 147.109487 
L 765.815145 146.300931 
L 765.885814 146.300931 
L 765.970616 145.492375 
L 766.066019 145.492375 
L 766.147287 144.683819 
L 766.239157 144.683819 
L 766.323959 143.875262 
L 767.034177 143.875262 
L 767.037711 143.470984 
L 767.535924 143.470984 
L 767.560658 143.066706 
L 768.246142 143.066706 
L 768.461681 142.25815 
L 769.716047 142.25815 
L 769.754915 141.853872 
L 770.171859 141.853872 
L 770.175393 141.449594 
L 770.546402 141.449594 
L 770.638272 141.045316 
L 772.87493 141.045316 
L 772.973866 140.641038 
L 773.037468 140.641038 
L 773.14347 140.23676 
L 774.055094 140.23676 
L 774.178764 139.832482 
L 774.853648 139.832482 
L 774.970251 139.023925 
L 775.065654 139.023925 
L 775.182257 138.215369 
L 775.252925 138.215369 
L 775.330661 137.406813 
L 775.454331 137.406813 
L 775.581534 136.598257 
L 775.676937 136.598257 
L 775.790006 136.193979 
L 775.906609 135.789701 
L 775.924276 135.789701 
L 775.92781 135.385423 
L 777.906528 135.385423 
L 778.016064 134.981145 
L 778.369407 134.981145 
L 778.411808 134.576867 
L 778.623814 134.576867 
L 778.63088 134.172589 
L 778.761617 134.172589 
L 778.853486 133.364032 
L 781.595425 133.364032 
L 781.697894 132.555476 
L 781.772096 132.555476 
L 781.888699 132.151198 
L 782.005302 132.151198 
L 782.008835 131.74692 
L 782.121905 131.74692 
L 782.234975 130.938364 
L 786.591689 130.938364 
L 789.019152 130.534086 
L 789.128688 129.72553 
L 789.199357 129.72553 
L 789.294759 128.916974 
L 789.379561 128.916974 
L 789.386628 128.512696 
L 789.499698 128.512696 
L 789.5845 127.704139 
L 789.711703 127.704139 
L 789.715237 127.299861 
L 789.85304 127.299861 
L 789.856574 126.895583 
L 790.001444 126.895583 
L 790.004978 126.491305 
L 790.135715 126.491305 
L 790.245251 125.682749 
L 794.623165 125.682749 
L 794.637299 125.278471 
L 814.746025 125.278471 
L 814.820226 124.469915 
L 814.961564 124.469915 
L 815.067566 123.661359 
L 815.170036 123.661359 
L 815.279572 122.852802 
L 815.367907 122.852802 
L 815.378508 122.448524 
L 815.530445 122.448524 
L 815.629381 122.044246 
L 815.827253 122.044246 
L 815.830786 121.639968 
L 818.456122 121.639968 
L 818.565658 121.23569 
L 818.664594 121.23569 
L 818.777663 120.831412 
L 819.502016 120.831412 
L 819.600951 120.022856 
L 819.749355 120.022856 
L 819.759956 119.618578 
L 819.908359 119.618578 
L 820.010829 119.2143 
L 820.024963 119.2143 
L 820.141566 118.810022 
L 820.205167 118.405744 
L 822.865837 118.405744 
L 822.872904 118.001466 
L 823.014241 118.001466 
L 823.024841 117.597187 
L 823.144977 117.597187 
L 823.258047 117.192909 
L 823.36405 116.384353 
L 823.462986 116.384353 
L 823.473586 115.980075 
L 823.614923 115.980075 
L 823.720926 115.575797 
L 823.75626 115.575797 
L 823.759794 115.171519 
L 825.162564 115.171519 
L 825.16963 114.767241 
L 825.533573 114.767241 
L 825.54064 114.362963 
L 825.689044 114.362963 
L 825.696111 113.958685 
L 829.50161 113.958685 
L 829.536945 113.150129 
L 830.056358 113.150129 
L 830.229496 112.745851 
L 834.140998 112.745851 
L 834.526142 112.341573 
L 846.914332 112.341573 
L 846.921399 111.937294 
L 847.094537 111.937294 
L 847.101604 111.533016 
L 862.072728 111.533016 
L 862.072728 111.533016 
L 862.108063 110.72446 
L 862.242333 110.72446 
L 862.320068 109.915904 
L 863.175157 109.915904 
L 863.277627 109.107348 
L 863.895976 109.107348 
L 863.994912 108.298792 
L 864.069114 108.298792 
L 864.185717 107.490236 
L 864.277586 107.490236 
L 864.376522 106.681679 
L 864.461324 106.681679 
L 864.464858 106.277401 
L 864.588527 106.277401 
L 864.595594 105.873123 
L 865.224544 105.873123 
L 865.238678 105.468845 
L 866.171502 105.468845 
L 866.249238 105.064567 
L 892.894801 105.064567 
L 893.000804 104.256011 
L 893.060872 104.256011 
L 893.067939 103.851733 
L 893.534351 103.851733 
L 893.87356 103.043177 
L 893.958362 102.234621 
L 896.424693 102.234621 
L 897.085444 101.830343 
L 898.113671 101.830343 
L 898.117204 101.426065 
L 898.251474 101.426065 
L 898.368077 101.021786 
L 898.375144 101.021786 
L 898.382211 100.617508 
L 898.555349 100.617508 
L 898.565949 100.21323 
L 898.735553 100.21323 
L 898.760287 99.808952 
L 906.530291 99.808952 
L 906.646894 99.404674 
L 906.650427 99.404674 
L 906.664561 99.000396 
L 932.320765 99.000396 
L 932.433834 98.596118 
L 932.444435 98.596118 
L 932.564571 97.787562 
L 932.677641 97.787562 
L 932.783643 97.383284 
L 932.783643 97.383284 
L 932.896713 96.574728 
L 932.988582 96.574728 
L 932.995649 96.17045 
L 933.288923 96.17045 
L 933.394926 95.361893 
L 933.486795 95.361893 
L 933.490329 94.957615 
L 944.140074 94.957615 
L 944.154207 94.553337 
L 944.267277 94.553337 
L 944.38388 94.149059 
L 949.182272 94.149059 
L 977.138736 93.744781 
L 977.255339 93.340503 
L 977.280073 93.340503 
L 977.393143 92.936225 
L 977.396676 92.936225 
L 977.485012 92.531947 
L 977.954958 92.127669 
L 980.8559 92.127669 
L 981.074973 91.723391 
L 982.587279 91.723391 
L 982.965355 91.319113 
L 982.972422 90.914835 
L 986.272642 90.914835 
L 986.283242 90.510556 
L 986.562383 90.510556 
L 986.565916 90.106278 
L 986.710787 90.106278 
L 986.717853 89.702 
L 988.717772 89.702 
L 988.806108 88.893444 
L 988.883843 88.893444 
L 988.996913 88.084888 
L 990.622289 88.084888 
L 990.67529 87.68061 
L 994.936602 87.68061 
L 995.056738 87.276332 
L 995.077939 87.276332 
L 995.12034 86.467776 
L 995.975429 86.467776 
L 996.081431 85.65922 
L 996.169767 85.65922 
L 996.176834 85.254942 
L 1018.783692 85.254942 
L 1018.896761 84.446385 
L 1018.953296 84.446385 
L 1019.020431 83.637829 
L 1019.076966 83.637829 
L 1019.190036 83.233551 
L 1019.197102 83.233551 
L 1019.281905 82.424995 
L 1019.331373 82.424995 
L 1019.405575 81.616439 
L 1019.515111 81.616439 
L 1019.518644 81.212161 
L 1027.041307 81.212161 
L 1027.274514 80.807883 
L 1027.295714 80.807883 
L 1027.39465 79.999327 
L 1027.454718 79.999327 
L 1027.454718 79.999327 
L 1027.567788 79.19077 
L 1027.64199 79.19077 
L 1027.755059 78.382214 
L 1027.875196 78.382214 
L 1027.878729 77.977936 
L 1028.041267 77.977936 
L 1028.041267 77.977936 
L 1028.136669 77.16938 
L 1028.203805 77.16938 
L 1028.295674 76.360824 
L 1028.391076 76.360824 
L 1028.398143 75.956546 
L 1028.514746 75.956546 
L 1028.525346 75.552268 
L 1032.101173 75.552268 
L 1032.214243 74.743712 
L 1041.853428 74.743712 
L 1041.966498 73.935155 
L 1042.058367 73.935155 
L 1042.065434 73.530877 
L 1042.199704 73.530877 
L 1042.305707 73.126599 
L 1042.316307 73.126599 
L 1042.436443 72.318043 
L 1042.538913 72.318043 
L 1042.591914 71.913765 
L 1044.019418 71.913765 
L 1044.044152 71.509487 
L 1045.439855 71.509487 
L 1046.14654 71.105209 
L 1046.153607 70.700931 
L 1046.337345 70.700931 
L 1046.415081 69.892375 
L 1046.521083 69.892375 
L 1046.612952 69.083819 
L 1047.439774 69.083819 
L 1047.941521 68.67954 
L 1054.637362 68.67954 
L 1054.725698 67.870984 
L 1054.803433 67.870984 
L 1054.895302 67.062428 
L 1054.983638 67.062428 
L 1055.05784 66.253872 
L 1055.114375 66.253872 
L 1055.117908 65.849594 
L 1058.658401 65.849594 
L 1058.732603 65.041038 
L 1058.796204 65.041038 
L 1058.866873 64.232482 
L 1058.926941 64.232482 
L 1059.004676 63.423925 
L 1059.297951 63.423925 
L 1059.301484 63.019647 
L 1060.485182 63.019647 
L 1060.972794 62.615369 
L 1061.03993 61.806813 
L 1070.297505 61.806813 
L 1070.88052 61.402535 
L 1070.982989 60.593979 
L 1072.746169 60.593979 
L 1072.859239 60.189701 
L 1072.866305 60.189701 
L 1072.972308 59.381145 
L 1073.053577 59.381145 
L 1073.15958 58.976867 
L 1073.173713 58.976867 
L 1073.251449 58.16831 
L 1073.325651 58.16831 
L 1073.389252 57.359754 
L 1073.456387 57.359754 
L 1073.558857 56.955476 
L 1073.558857 56.955476 
L 1079.321874 56.955476 
L 1080.399569 56.551198 
L 1081.5762 56.551198 
L 1081.706936 55.742642 
L 1081.774072 55.742642 
L 1081.841207 54.934086 
L 1081.911875 54.934086 
L 1082.032012 54.12553 
L 1082.099147 54.12553 
L 1082.10268 53.721252 
L 1085.233295 53.721252 
L 1085.339298 52.912696 
L 1085.4029 52.912696 
L 1085.462968 52.104139 
L 1089.953952 52.104139 
L 1090.01402 51.699861 
L 1090.346162 51.699861 
L 1090.441565 50.891305 
L 1090.473366 50.891305 
L 1090.554634 50.082749 
L 1091.738332 50.082749 
L 1092.021006 48.465637 
L 1092.172943 48.465637 
L 1092.176477 48.061359 
L 1092.975031 48.061359 
L 1092.978564 47.657081 
L 1093.109301 47.657081 
L 1093.112835 47.252802 
L 1097.243409 47.252802 
L 1097.384746 46.444246 
L 1097.529617 46.444246 
L 1097.603819 45.63569 
L 1098.805183 45.63569 
L 1098.889986 44.827134 
L 1100.20442 44.827134 
L 1101.048909 44.422856 
L 1101.130178 43.6143 
L 1101.22558 43.6143 
L 1101.306849 42.805744 
L 1101.388118 42.805744 
L 1101.465853 41.997187 
L 1114.507727 41.997187 
L 1114.507727 41.997187 
" clip-path="url(#pa3ee8ee25b)" style="fill: none; stroke: #0000ff; stroke-width: 1.5; stroke-linecap: square"/>
   </g>
   <g id="patch_91">
    <path d="M 49.235 359.517187 
L 49.235 26.877187 
" style="fill: none; stroke: #000000; stroke-width: 0.8; stroke-linejoin: miter; stroke-linecap: square"/>
   </g>
   <g id="patch_92">
    <path d="M 1165.235 359.517187 
L 1165.235 26.877187 
" style="fill: none; stroke: #000000; stroke-width: 0.8; stroke-linejoin: miter; stroke-linecap: square"/>
   </g>
   <g id="patch_93">
    <path d="M 49.235 359.517187 
L 1165.235 359.517187 
" style="fill: none; stroke: #000000; stroke-width: 0.8; stroke-linejoin: miter; stroke-linecap: square"/>
   </g>
   <g id="patch_94">
    <path d="M 49.235 26.877187 
L 1165.235 26.877187 
" style="fill: none; stroke: #000000; stroke-width: 0.8; stroke-linejoin: miter; stroke-linecap: square"/>
   </g>
   <g id="text_18">
    <!-- Pellet Count and Cumulative Sum Over Time of Group 2 Mouse 6 -->
    <g transform="translate(315.460625 20.877187) scale(0.18 -0.18)">
     <defs>
      <path id="DejaVuSans-61" d="M 2194 1759 
Q 1497 1759 1228 1600 
Q 959 1441 959 1056 
Q 959 750 1161 570 
Q 1363 391 1709 391 
Q 2188 391 2477 730 
Q 2766 1069 2766 1631 
L 2766 1759 
L 2194 1759 
z
M 3341 1997 
L 3341 0 
L 2766 0 
L 2766 531 
Q 2569 213 2275 61 
Q 1981 -91 1556 -91 
Q 1019 -91 701 211 
Q 384 513 384 1019 
Q 384 1609 779 1909 
Q 1175 2209 1959 2209 
L 2766 2209 
L 2766 2266 
Q 2766 2663 2505 2880 
Q 2244 3097 1772 3097 
Q 1472 3097 1187 3025 
Q 903 2953 641 2809 
L 641 3341 
Q 956 3463 1253 3523 
Q 1550 3584 1831 3584 
Q 2591 3584 2966 3190 
Q 3341 2797 3341 1997 
z
" transform="scale(0.015625)"/>
      <path id="DejaVuSans-64" d="M 2906 2969 
L 2906 4863 
L 3481 4863 
L 3481 0 
L 2906 0 
L 2906 525 
Q 2725 213 2448 61 
Q 2172 -91 1784 -91 
Q 1150 -91 751 415 
Q 353 922 353 1747 
Q 353 2572 751 3078 
Q 1150 3584 1784 3584 
Q 2172 3584 2448 3432 
Q 2725 3281 2906 2969 
z
M 947 1747 
Q 947 1113 1208 752 
Q 1469 391 1925 391 
Q 2381 391 2643 752 
Q 2906 1113 2906 1747 
Q 2906 2381 2643 2742 
Q 2381 3103 1925 3103 
Q 1469 3103 1208 2742 
Q 947 2381 947 1747 
z
" transform="scale(0.015625)"/>
      <path id="DejaVuSans-76" d="M 191 3500 
L 800 3500 
L 1894 563 
L 2988 3500 
L 3597 3500 
L 2284 0 
L 1503 0 
L 191 3500 
z
" transform="scale(0.015625)"/>
      <path id="DejaVuSans-53" d="M 3425 4513 
L 3425 3897 
Q 3066 4069 2747 4153 
Q 2428 4238 2131 4238 
Q 1616 4238 1336 4038 
Q 1056 3838 1056 3469 
Q 1056 3159 1242 3001 
Q 1428 2844 1947 2747 
L 2328 2669 
Q 3034 2534 3370 2195 
Q 3706 1856 3706 1288 
Q 3706 609 3251 259 
Q 2797 -91 1919 -91 
Q 1588 -91 1214 -16 
Q 841 59 441 206 
L 441 856 
Q 825 641 1194 531 
Q 1563 422 1919 422 
Q 2459 422 2753 634 
Q 3047 847 3047 1241 
Q 3047 1584 2836 1778 
Q 2625 1972 2144 2069 
L 1759 2144 
Q 1053 2284 737 2584 
Q 422 2884 422 3419 
Q 422 4038 858 4394 
Q 1294 4750 2059 4750 
Q 2388 4750 2728 4690 
Q 3069 4631 3425 4513 
z
" transform="scale(0.015625)"/>
      <path id="DejaVuSans-4f" d="M 2522 4238 
Q 1834 4238 1429 3725 
Q 1025 3213 1025 2328 
Q 1025 1447 1429 934 
Q 1834 422 2522 422 
Q 3209 422 3611 934 
Q 4013 1447 4013 2328 
Q 4013 3213 3611 3725 
Q 3209 4238 2522 4238 
z
M 2522 4750 
Q 3503 4750 4090 4092 
Q 4678 3434 4678 2328 
Q 4678 1225 4090 567 
Q 3503 -91 2522 -91 
Q 1538 -91 948 565 
Q 359 1222 359 2328 
Q 359 3434 948 4092 
Q 1538 4750 2522 4750 
z
" transform="scale(0.015625)"/>
      <path id="DejaVuSans-72" d="M 2631 2963 
Q 2534 3019 2420 3045 
Q 2306 3072 2169 3072 
Q 1681 3072 1420 2755 
Q 1159 2438 1159 1844 
L 1159 0 
L 581 0 
L 581 3500 
L 1159 3500 
L 1159 2956 
Q 1341 3275 1631 3429 
Q 1922 3584 2338 3584 
Q 2397 3584 2469 3576 
Q 2541 3569 2628 3553 
L 2631 2963 
z
" transform="scale(0.015625)"/>
      <path id="DejaVuSans-66" d="M 2375 4863 
L 2375 4384 
L 1825 4384 
Q 1516 4384 1395 4259 
Q 1275 4134 1275 3809 
L 1275 3500 
L 2222 3500 
L 2222 3053 
L 1275 3053 
L 1275 0 
L 697 0 
L 697 3053 
L 147 3053 
L 147 3500 
L 697 3500 
L 697 3744 
Q 697 4328 969 4595 
Q 1241 4863 1831 4863 
L 2375 4863 
z
" transform="scale(0.015625)"/>
      <path id="DejaVuSans-47" d="M 3809 666 
L 3809 1919 
L 2778 1919 
L 2778 2438 
L 4434 2438 
L 4434 434 
Q 4069 175 3628 42 
Q 3188 -91 2688 -91 
Q 1594 -91 976 548 
Q 359 1188 359 2328 
Q 359 3472 976 4111 
Q 1594 4750 2688 4750 
Q 3144 4750 3555 4637 
Q 3966 4525 4313 4306 
L 4313 3634 
Q 3963 3931 3569 4081 
Q 3175 4231 2741 4231 
Q 1884 4231 1454 3753 
Q 1025 3275 1025 2328 
Q 1025 1384 1454 906 
Q 1884 428 2741 428 
Q 3075 428 3337 486 
Q 3600 544 3809 666 
z
" transform="scale(0.015625)"/>
      <path id="DejaVuSans-70" d="M 1159 525 
L 1159 -1331 
L 581 -1331 
L 581 3500 
L 1159 3500 
L 1159 2969 
Q 1341 3281 1617 3432 
Q 1894 3584 2278 3584 
Q 2916 3584 3314 3078 
Q 3713 2572 3713 1747 
Q 3713 922 3314 415 
Q 2916 -91 2278 -91 
Q 1894 -91 1617 61 
Q 1341 213 1159 525 
z
M 3116 1747 
Q 3116 2381 2855 2742 
Q 2594 3103 2138 3103 
Q 1681 3103 1420 2742 
Q 1159 2381 1159 1747 
Q 1159 1113 1420 752 
Q 1681 391 2138 391 
Q 2594 391 2855 752 
Q 3116 1113 3116 1747 
z
" transform="scale(0.015625)"/>
      <path id="DejaVuSans-4d" d="M 628 4666 
L 1569 4666 
L 2759 1491 
L 3956 4666 
L 4897 4666 
L 4897 0 
L 4281 0 
L 4281 4097 
L 3078 897 
L 2444 897 
L 1241 4097 
L 1241 0 
L 628 0 
L 628 4666 
z
" transform="scale(0.015625)"/>
      <path id="DejaVuSans-73" d="M 2834 3397 
L 2834 2853 
Q 2591 2978 2328 3040 
Q 2066 3103 1784 3103 
Q 1356 3103 1142 2972 
Q 928 2841 928 2578 
Q 928 2378 1081 2264 
Q 1234 2150 1697 2047 
L 1894 2003 
Q 2506 1872 2764 1633 
Q 3022 1394 3022 966 
Q 3022 478 2636 193 
Q 2250 -91 1575 -91 
Q 1294 -91 989 -36 
Q 684 19 347 128 
L 347 722 
Q 666 556 975 473 
Q 1284 391 1588 391 
Q 1994 391 2212 530 
Q 2431 669 2431 922 
Q 2431 1156 2273 1281 
Q 2116 1406 1581 1522 
L 1381 1569 
Q 847 1681 609 1914 
Q 372 2147 372 2553 
Q 372 3047 722 3315 
Q 1072 3584 1716 3584 
Q 2034 3584 2315 3537 
Q 2597 3491 2834 3397 
z
" transform="scale(0.015625)"/>
     </defs>
     <use xlink:href="#DejaVuSans-50"/>
     <use xlink:href="#DejaVuSans-65" x="56.677734"/>
     <use xlink:href="#DejaVuSans-6c" x="118.201172"/>
     <use xlink:href="#DejaVuSans-6c" x="145.984375"/>
     <use xlink:href="#DejaVuSans-65" x="173.767578"/>
     <use xlink:href="#DejaVuSans-74" x="235.291016"/>
     <use xlink:href="#DejaVuSans-20" x="274.5"/>
     <use xlink:href="#DejaVuSans-43" x="306.287109"/>
     <use xlink:href="#DejaVuSans-6f" x="376.111328"/>
     <use xlink:href="#DejaVuSans-75" x="437.292969"/>
     <use xlink:href="#DejaVuSans-6e" x="500.671875"/>
     <use xlink:href="#DejaVuSans-74" x="564.050781"/>
     <use xlink:href="#DejaVuSans-20" x="603.259766"/>
     <use xlink:href="#DejaVuSans-61" x="635.046875"/>
     <use xlink:href="#DejaVuSans-6e" x="696.326172"/>
     <use xlink:href="#DejaVuSans-64" x="759.705078"/>
     <use xlink:href="#DejaVuSans-20" x="823.181641"/>
     <use xlink:href="#DejaVuSans-43" x="854.96875"/>
     <use xlink:href="#DejaVuSans-75" x="924.792969"/>
     <use xlink:href="#DejaVuSans-6d" x="988.171875"/>
     <use xlink:href="#DejaVuSans-75" x="1085.583984"/>
     <use xlink:href="#DejaVuSans-6c" x="1148.962891"/>
     <use xlink:href="#DejaVuSans-61" x="1176.746094"/>
     <use xlink:href="#DejaVuSans-74" x="1238.025391"/>
     <use xlink:href="#DejaVuSans-69" x="1277.234375"/>
     <use xlink:href="#DejaVuSans-76" x="1305.017578"/>
     <use xlink:href="#DejaVuSans-65" x="1364.197266"/>
     <use xlink:href="#DejaVuSans-20" x="1425.720703"/>
     <use xlink:href="#DejaVuSans-53" x="1457.507812"/>
     <use xlink:href="#DejaVuSans-75" x="1520.984375"/>
     <use xlink:href="#DejaVuSans-6d" x="1584.363281"/>
     <use xlink:href="#DejaVuSans-20" x="1681.775391"/>
     <use xlink:href="#DejaVuSans-4f" x="1713.5625"/>
     <use xlink:href="#DejaVuSans-76" x="1792.273438"/>
     <use xlink:href="#DejaVuSans-65" x="1851.453125"/>
     <use xlink:href="#DejaVuSans-72" x="1912.976562"/>
     <use xlink:href="#DejaVuSans-20" x="1954.089844"/>
     <use xlink:href="#DejaVuSans-54" x="1985.876953"/>
     <use xlink:href="#DejaVuSans-69" x="2043.835938"/>
     <use xlink:href="#DejaVuSans-6d" x="2071.619141"/>
     <use xlink:href="#DejaVuSans-65" x="2169.03125"/>
     <use xlink:href="#DejaVuSans-20" x="2230.554688"/>
     <use xlink:href="#DejaVuSans-6f" x="2262.341797"/>
     <use xlink:href="#DejaVuSans-66" x="2323.523438"/>
     <use xlink:href="#DejaVuSans-20" x="2358.728516"/>
     <use xlink:href="#DejaVuSans-47" x="2390.515625"/>
     <use xlink:href="#DejaVuSans-72" x="2468.005859"/>
     <use xlink:href="#DejaVuSans-6f" x="2506.869141"/>
     <use xlink:href="#DejaVuSans-75" x="2568.050781"/>
     <use xlink:href="#DejaVuSans-70" x="2631.429688"/>
     <use xlink:href="#DejaVuSans-20" x="2694.90625"/>
     <use xlink:href="#DejaVuSans-32" x="2726.693359"/>
     <use xlink:href="#DejaVuSans-20" x="2790.316406"/>
     <use xlink:href="#DejaVuSans-4d" x="2822.103516"/>
     <use xlink:href="#DejaVuSans-6f" x="2908.382812"/>
     <use xlink:href="#DejaVuSans-75" x="2969.564453"/>
     <use xlink:href="#DejaVuSans-73" x="3032.943359"/>
     <use xlink:href="#DejaVuSans-65" x="3085.042969"/>
     <use xlink:href="#DejaVuSans-20" x="3146.566406"/>
     <use xlink:href="#DejaVuSans-36" x="3178.353516"/>
    </g>
   </g>
   <g id="legend_1">
    <g id="patch_95">
     <path d="M 1086.550625 64.233437 
L 1158.235 64.233437 
Q 1160.235 64.233437 1160.235 62.233437 
L 1160.235 33.877187 
Q 1160.235 31.877187 1158.235 31.877187 
L 1086.550625 31.877187 
Q 1084.550625 31.877187 1084.550625 33.877187 
L 1084.550625 62.233437 
Q 1084.550625 64.233437 1086.550625 64.233437 
z
" style="fill: #ffffff; opacity: 0.8; stroke: #cccccc; stroke-linejoin: miter"/>
    </g>
    <g id="patch_96">
     <path d="M 1088.550625 43.475625 
L 1108.550625 43.475625 
L 1108.550625 36.475625 
L 1088.550625 36.475625 
z
" style="fill: #add8e6; opacity: 0.9; stroke: #add8e6; stroke-linejoin: miter"/>
    </g>
    <g id="text_19">
     <!-- Meal -->
     <g transform="translate(1116.550625 43.475625) scale(0.1 -0.1)">
      <use xlink:href="#DejaVuSans-4d"/>
      <use xlink:href="#DejaVuSans-65" x="86.279297"/>
      <use xlink:href="#DejaVuSans-61" x="147.802734"/>
      <use xlink:href="#DejaVuSans-6c" x="209.082031"/>
     </g>
    </g>
    <g id="patch_97">
     <path d="M 1088.550625 58.15375 
L 1108.550625 58.15375 
L 1108.550625 51.15375 
L 1088.550625 51.15375 
z
" style="fill: #808080; opacity: 0.5; stroke: #808080; stroke-linejoin: miter"/>
    </g>
    <g id="text_20">
     <!-- Inactive -->
     <g transform="translate(1116.550625 58.15375) scale(0.1 -0.1)">
      <defs>
       <path id="DejaVuSans-49" d="M 628 4666 
L 1259 4666 
L 1259 0 
L 628 0 
L 628 4666 
z
" transform="scale(0.015625)"/>
       <path id="DejaVuSans-63" d="M 3122 3366 
L 3122 2828 
Q 2878 2963 2633 3030 
Q 2388 3097 2138 3097 
Q 1578 3097 1268 2742 
Q 959 2388 959 1747 
Q 959 1106 1268 751 
Q 1578 397 2138 397 
Q 2388 397 2633 464 
Q 2878 531 3122 666 
L 3122 134 
Q 2881 22 2623 -34 
Q 2366 -91 2075 -91 
Q 1284 -91 818 406 
Q 353 903 353 1747 
Q 353 2603 823 3093 
Q 1294 3584 2113 3584 
Q 2378 3584 2631 3529 
Q 2884 3475 3122 3366 
z
" transform="scale(0.015625)"/>
      </defs>
      <use xlink:href="#DejaVuSans-49"/>
      <use xlink:href="#DejaVuSans-6e" x="29.492188"/>
      <use xlink:href="#DejaVuSans-61" x="92.871094"/>
      <use xlink:href="#DejaVuSans-63" x="154.150391"/>
      <use xlink:href="#DejaVuSans-74" x="209.130859"/>
      <use xlink:href="#DejaVuSans-69" x="248.339844"/>
      <use xlink:href="#DejaVuSans-76" x="276.123047"/>
      <use xlink:href="#DejaVuSans-65" x="335.302734"/>
     </g>
    </g>
   </g>
  </g>
 </g>
 <defs>
  <clipPath id="pa3ee8ee25b">
   <rect x="49.235" y="26.877187" width="1116" height="332.64"/>
  </clipPath>
 </defs>
</svg>
