<?xml version="1.0" encoding="utf-8" standalone="no"?>
<!DOCTYPE svg PUBLIC "-//W3C//DTD SVG 1.1//EN"
  "http://www.w3.org/Graphics/SVG/1.1/DTD/svg11.dtd">
<svg xmlns:xlink="http://www.w3.org/1999/xlink" width="1172.435pt" height="399.009062pt" viewBox="0 0 1172.435 399.009062" xmlns="http://www.w3.org/2000/svg" version="1.1">
 <metadata>
  <rdf:RDF xmlns:dc="http://purl.org/dc/elements/1.1/" xmlns:cc="http://creativecommons.org/ns#" xmlns:rdf="http://www.w3.org/1999/02/22-rdf-syntax-ns#">
   <cc:Work>
    <dc:type rdf:resource="http://purl.org/dc/dcmitype/StillImage"/>
    <dc:date>2025-05-09T14:47:45.739757</dc:date>
    <dc:format>image/svg+xml</dc:format>
    <dc:creator>
     <cc:Agent>
      <dc:title>Matplotlib v3.8.3, https://matplotlib.org/</dc:title>
     </cc:Agent>
    </dc:creator>
   </cc:Work>
  </rdf:RDF>
 </metadata>
 <defs>
  <style type="text/css">*{stroke-linejoin: round; stroke-linecap: butt}</style>
 </defs>
 <g id="figure_1">
  <g id="patch_1">
   <path d="M 0 399.009062 
L 1172.435 399.009062 
L 1172.435 0 
L 0 0 
z
" style="fill: #ffffff"/>
  </g>
  <g id="axes_1">
   <g id="patch_2">
    <path d="M 49.235 359.517187 
L 1165.235 359.517187 
L 1165.235 26.877187 
L 49.235 26.877187 
z
" style="fill: #ffffff"/>
   </g>
   <g id="patch_3">
    <path d="M 107.495855 359.517187 
L 107.495855 26.877187 
L 105.30206 26.877187 
L 105.30206 359.517187 
z
" clip-path="url(#p6a4d0ba558)" style="fill: #add8e6; stroke: #add8e6; stroke-linejoin: miter"/>
   </g>
   <g id="patch_4">
    <path d="M 110.89172 359.517187 
L 110.89172 26.877187 
L 110.269862 26.877187 
L 110.269862 359.517187 
z
" clip-path="url(#p6a4d0ba558)" style="fill: #add8e6; stroke: #add8e6; stroke-linejoin: miter"/>
   </g>
   <g id="patch_5">
    <path d="M 117.26276 359.517187 
L 117.26276 26.877187 
L 117.077826 26.877187 
L 117.077826 359.517187 
z
" clip-path="url(#p6a4d0ba558)" style="fill: #add8e6; stroke: #add8e6; stroke-linejoin: miter"/>
   </g>
   <g id="patch_6">
    <path d="M 117.859207 359.517187 
L 117.859207 26.877187 
L 117.962967 26.877187 
L 117.962967 359.517187 
z
" clip-path="url(#p6a4d0ba558)" style="fill: #add8e6; stroke: #add8e6; stroke-linejoin: miter"/>
   </g>
   <g id="patch_7">
    <path d="M 121.758345 359.517187 
L 121.758345 26.877187 
L 120.833676 26.877187 
L 120.833676 359.517187 
z
" clip-path="url(#p6a4d0ba558)" style="fill: #add8e6; stroke: #add8e6; stroke-linejoin: miter"/>
   </g>
   <g id="patch_8">
    <path d="M 124.239423 359.517187 
L 124.239423 26.877187 
L 124.065783 26.877187 
L 124.065783 359.517187 
z
" clip-path="url(#p6a4d0ba558)" style="fill: #add8e6; stroke: #add8e6; stroke-linejoin: miter"/>
   </g>
   <g id="patch_9">
    <path d="M 132.123109 359.517187 
L 132.123109 26.877187 
L 131.150442 26.877187 
L 131.150442 359.517187 
z
" clip-path="url(#p6a4d0ba558)" style="fill: #add8e6; stroke: #add8e6; stroke-linejoin: miter"/>
   </g>
   <g id="patch_10">
    <path d="M 156.429905 359.517187 
L 156.429905 26.877187 
L 144.404266 26.877187 
L 144.404266 359.517187 
z
" clip-path="url(#p6a4d0ba558)" style="fill: #add8e6; stroke: #add8e6; stroke-linejoin: miter"/>
   </g>
   <g id="patch_11">
    <path d="M 165.154263 359.517187 
L 165.154263 26.877187 
L 153.195681 26.877187 
L 153.195681 359.517187 
z
" clip-path="url(#p6a4d0ba558)" style="fill: #add8e6; stroke: #add8e6; stroke-linejoin: miter"/>
   </g>
   <g id="patch_12">
    <path d="M 172.029283 359.517187 
L 172.029283 26.877187 
L 161.986389 26.877187 
L 161.986389 359.517187 
z
" clip-path="url(#p6a4d0ba558)" style="fill: #add8e6; stroke: #add8e6; stroke-linejoin: miter"/>
   </g>
   <g id="patch_13">
    <path d="M 181.413615 359.517187 
L 181.413615 26.877187 
L 170.040186 26.877187 
L 170.040186 359.517187 
z
" clip-path="url(#p6a4d0ba558)" style="fill: #add8e6; stroke: #add8e6; stroke-linejoin: miter"/>
   </g>
   <g id="patch_14">
    <path d="M 196.949467 359.517187 
L 196.949467 26.877187 
L 188.597094 26.877187 
L 188.597094 359.517187 
z
" clip-path="url(#p6a4d0ba558)" style="fill: #add8e6; stroke: #add8e6; stroke-linejoin: miter"/>
   </g>
   <g id="patch_15">
    <path d="M 208.0702 359.517187 
L 208.0702 26.877187 
L 198.943505 26.877187 
L 198.943505 359.517187 
z
" clip-path="url(#p6a4d0ba558)" style="fill: #add8e6; stroke: #add8e6; stroke-linejoin: miter"/>
   </g>
   <g id="patch_16">
    <path d="M 339.344969 359.517187 
L 339.344969 26.877187 
L 331.159883 26.877187 
L 331.159883 359.517187 
z
" clip-path="url(#p6a4d0ba558)" style="fill: #add8e6; stroke: #add8e6; stroke-linejoin: miter"/>
   </g>
   <g id="patch_17">
    <path d="M 393.678098 359.517187 
L 393.678098 26.877187 
L 383.382508 26.877187 
L 383.382508 359.517187 
z
" clip-path="url(#p6a4d0ba558)" style="fill: #add8e6; stroke: #add8e6; stroke-linejoin: miter"/>
   </g>
   <g id="patch_18">
    <path d="M 437.7714 359.517187 
L 437.7714 26.877187 
L 434.110134 26.877187 
L 434.110134 359.517187 
z
" clip-path="url(#p6a4d0ba558)" style="fill: #add8e6; stroke: #add8e6; stroke-linejoin: miter"/>
   </g>
   <g id="patch_19">
    <path d="M 479.547382 359.517187 
L 479.547382 26.877187 
L 479.751374 26.877187 
L 479.751374 359.517187 
z
" clip-path="url(#p6a4d0ba558)" style="fill: #add8e6; stroke: #add8e6; stroke-linejoin: miter"/>
   </g>
   <g id="patch_20">
    <path d="M 481.863996 359.517187 
L 481.863996 26.877187 
L 481.777176 26.877187 
L 481.777176 359.517187 
z
" clip-path="url(#p6a4d0ba558)" style="fill: #add8e6; stroke: #add8e6; stroke-linejoin: miter"/>
   </g>
   <g id="patch_21">
    <path d="M 482.133632 359.517187 
L 482.133632 26.877187 
L 482.156925 26.877187 
L 482.156925 359.517187 
z
" clip-path="url(#p6a4d0ba558)" style="fill: #add8e6; stroke: #add8e6; stroke-linejoin: miter"/>
   </g>
   <g id="patch_22">
    <path d="M 482.408915 359.517187 
L 482.408915 26.877187 
L 482.545851 26.877187 
L 482.545851 359.517187 
z
" clip-path="url(#p6a4d0ba558)" style="fill: #add8e6; stroke: #add8e6; stroke-linejoin: miter"/>
   </g>
   <g id="patch_23">
    <path d="M 483.691452 359.517187 
L 483.691452 26.877187 
L 483.668159 26.877187 
L 483.668159 359.517187 
z
" clip-path="url(#p6a4d0ba558)" style="fill: #add8e6; stroke: #add8e6; stroke-linejoin: miter"/>
   </g>
   <g id="patch_24">
    <path d="M 488.795484 359.517187 
L 488.795484 26.877187 
L 488.902774 26.877187 
L 488.902774 359.517187 
z
" clip-path="url(#p6a4d0ba558)" style="fill: #add8e6; stroke: #add8e6; stroke-linejoin: miter"/>
   </g>
   <g id="patch_25">
    <path d="M 489.091237 359.517187 
L 489.091237 26.877187 
L 489.297347 26.877187 
L 489.297347 359.517187 
z
" clip-path="url(#p6a4d0ba558)" style="fill: #add8e6; stroke: #add8e6; stroke-linejoin: miter"/>
   </g>
   <g id="patch_26">
    <path d="M 494.841126 359.517187 
L 494.841126 26.877187 
L 494.878536 26.877187 
L 494.878536 359.517187 
z
" clip-path="url(#p6a4d0ba558)" style="fill: #add8e6; stroke: #add8e6; stroke-linejoin: miter"/>
   </g>
   <g id="patch_27">
    <path d="M 496.067195 359.517187 
L 496.067195 26.877187 
L 496.05096 26.877187 
L 496.05096 359.517187 
z
" clip-path="url(#p6a4d0ba558)" style="fill: #add8e6; stroke: #add8e6; stroke-linejoin: miter"/>
   </g>
   <g id="patch_28">
    <path d="M 498.60827 359.517187 
L 498.60827 26.877187 
L 498.664032 26.877187 
L 498.664032 359.517187 
z
" clip-path="url(#p6a4d0ba558)" style="fill: #add8e6; stroke: #add8e6; stroke-linejoin: miter"/>
   </g>
   <g id="patch_29">
    <path d="M 522.046865 359.517187 
L 522.046865 26.877187 
L 520.136824 26.877187 
L 520.136824 359.517187 
z
" clip-path="url(#p6a4d0ba558)" style="fill: #add8e6; stroke: #add8e6; stroke-linejoin: miter"/>
   </g>
   <g id="patch_30">
    <path d="M 525.475905 359.517187 
L 525.475905 26.877187 
L 524.380419 26.877187 
L 524.380419 359.517187 
z
" clip-path="url(#p6a4d0ba558)" style="fill: #add8e6; stroke: #add8e6; stroke-linejoin: miter"/>
   </g>
   <g id="patch_31">
    <path d="M 526.501511 359.517187 
L 526.501511 26.877187 
L 526.572802 26.877187 
L 526.572802 359.517187 
z
" clip-path="url(#p6a4d0ba558)" style="fill: #add8e6; stroke: #add8e6; stroke-linejoin: miter"/>
   </g>
   <g id="patch_32">
    <path d="M 526.725973 359.517187 
L 526.725973 26.877187 
L 526.762677 26.877187 
L 526.762677 359.517187 
z
" clip-path="url(#p6a4d0ba558)" style="fill: #add8e6; stroke: #add8e6; stroke-linejoin: miter"/>
   </g>
   <g id="patch_33">
    <path d="M 541.656907 359.517187 
L 541.656907 26.877187 
L 541.442328 26.877187 
L 541.442328 359.517187 
z
" clip-path="url(#p6a4d0ba558)" style="fill: #add8e6; stroke: #add8e6; stroke-linejoin: miter"/>
   </g>
   <g id="patch_34">
    <path d="M 546.86117 359.517187 
L 546.86117 26.877187 
L 547.003047 26.877187 
L 547.003047 359.517187 
z
" clip-path="url(#p6a4d0ba558)" style="fill: #add8e6; stroke: #add8e6; stroke-linejoin: miter"/>
   </g>
   <g id="patch_35">
    <path d="M 547.787957 359.517187 
L 547.787957 26.877187 
L 547.887483 26.877187 
L 547.887483 359.517187 
z
" clip-path="url(#p6a4d0ba558)" style="fill: #add8e6; stroke: #add8e6; stroke-linejoin: miter"/>
   </g>
   <g id="patch_36">
    <path d="M 548.560867 359.517187 
L 548.560867 26.877187 
L 548.21147 26.877187 
L 548.21147 359.517187 
z
" clip-path="url(#p6a4d0ba558)" style="fill: #add8e6; stroke: #add8e6; stroke-linejoin: miter"/>
   </g>
   <g id="patch_37">
    <path d="M 549.695175 359.517187 
L 549.695175 26.877187 
L 549.78623 26.877187 
L 549.78623 359.517187 
z
" clip-path="url(#p6a4d0ba558)" style="fill: #add8e6; stroke: #add8e6; stroke-linejoin: miter"/>
   </g>
   <g id="patch_38">
    <path d="M 576.127298 359.517187 
L 576.127298 26.877187 
L 576.181649 26.877187 
L 576.181649 359.517187 
z
" clip-path="url(#p6a4d0ba558)" style="fill: #add8e6; stroke: #add8e6; stroke-linejoin: miter"/>
   </g>
   <g id="patch_39">
    <path d="M 579.006478 359.517187 
L 579.006478 26.877187 
L 579.106709 26.877187 
L 579.106709 359.517187 
z
" clip-path="url(#p6a4d0ba558)" style="fill: #add8e6; stroke: #add8e6; stroke-linejoin: miter"/>
   </g>
   <g id="patch_40">
    <path d="M 579.727861 359.517187 
L 579.727861 26.877187 
L 579.602925 26.877187 
L 579.602925 359.517187 
z
" clip-path="url(#p6a4d0ba558)" style="fill: #add8e6; stroke: #add8e6; stroke-linejoin: miter"/>
   </g>
   <g id="patch_41">
    <path d="M 580.794407 359.517187 
L 580.794407 26.877187 
L 580.830405 26.877187 
L 580.830405 359.517187 
z
" clip-path="url(#p6a4d0ba558)" style="fill: #add8e6; stroke: #add8e6; stroke-linejoin: miter"/>
   </g>
   <g id="patch_42">
    <path d="M 606.090104 359.517187 
L 606.090104 26.877187 
L 601.526757 26.877187 
L 601.526757 359.517187 
z
" clip-path="url(#p6a4d0ba558)" style="fill: #add8e6; stroke: #add8e6; stroke-linejoin: miter"/>
   </g>
   <g id="patch_43">
    <path d="M 614.543415 359.517187 
L 614.543415 26.877187 
L 602.473307 26.877187 
L 602.473307 359.517187 
z
" clip-path="url(#p6a4d0ba558)" style="fill: #add8e6; stroke: #add8e6; stroke-linejoin: miter"/>
   </g>
   <g id="patch_44">
    <path d="M 678.080883 359.517187 
L 678.080883 26.877187 
L 675.383814 26.877187 
L 675.383814 359.517187 
z
" clip-path="url(#p6a4d0ba558)" style="fill: #add8e6; stroke: #add8e6; stroke-linejoin: miter"/>
   </g>
   <g id="patch_45">
    <path d="M 685.855867 359.517187 
L 685.855867 26.877187 
L 686.012567 26.877187 
L 686.012567 359.517187 
z
" clip-path="url(#p6a4d0ba558)" style="fill: #add8e6; stroke: #add8e6; stroke-linejoin: miter"/>
   </g>
   <g id="patch_46">
    <path d="M 689.339258 359.517187 
L 689.339258 26.877187 
L 689.534073 26.877187 
L 689.534073 359.517187 
z
" clip-path="url(#p6a4d0ba558)" style="fill: #add8e6; stroke: #add8e6; stroke-linejoin: miter"/>
   </g>
   <g id="patch_47">
    <path d="M 693.150871 359.517187 
L 693.150871 26.877187 
L 693.335804 26.877187 
L 693.335804 359.517187 
z
" clip-path="url(#p6a4d0ba558)" style="fill: #add8e6; stroke: #add8e6; stroke-linejoin: miter"/>
   </g>
   <g id="patch_48">
    <path d="M 693.438153 359.517187 
L 693.438153 26.877187 
L 693.509444 26.877187 
L 693.509444 359.517187 
z
" clip-path="url(#p6a4d0ba558)" style="fill: #add8e6; stroke: #add8e6; stroke-linejoin: miter"/>
   </g>
   <g id="patch_49">
    <path d="M 696.805078 359.517187 
L 696.805078 26.877187 
L 696.614497 26.877187 
L 696.614497 359.517187 
z
" clip-path="url(#p6a4d0ba558)" style="fill: #add8e6; stroke: #add8e6; stroke-linejoin: miter"/>
   </g>
   <g id="patch_50">
    <path d="M 757.246669 359.517187 
L 757.246669 26.877187 
L 757.449955 26.877187 
L 757.449955 359.517187 
z
" clip-path="url(#p6a4d0ba558)" style="fill: #add8e6; stroke: #add8e6; stroke-linejoin: miter"/>
   </g>
   <g id="patch_51">
    <path d="M 757.694181 359.517187 
L 757.694181 26.877187 
L 757.772531 26.877187 
L 757.772531 359.517187 
z
" clip-path="url(#p6a4d0ba558)" style="fill: #add8e6; stroke: #add8e6; stroke-linejoin: miter"/>
   </g>
   <g id="patch_52">
    <path d="M 758.153692 359.517187 
L 758.153692 26.877187 
L 758.149457 26.877187 
L 758.149457 359.517187 
z
" clip-path="url(#p6a4d0ba558)" style="fill: #add8e6; stroke: #add8e6; stroke-linejoin: miter"/>
   </g>
   <g id="patch_53">
    <path d="M 759.767981 359.517187 
L 759.767981 26.877187 
L 759.967737 26.877187 
L 759.967737 359.517187 
z
" clip-path="url(#p6a4d0ba558)" style="fill: #add8e6; stroke: #add8e6; stroke-linejoin: miter"/>
   </g>
   <g id="patch_54">
    <path d="M 762.058478 359.517187 
L 762.058478 26.877187 
L 762.210942 26.877187 
L 762.210942 359.517187 
z
" clip-path="url(#p6a4d0ba558)" style="fill: #add8e6; stroke: #add8e6; stroke-linejoin: miter"/>
   </g>
   <g id="patch_55">
    <path d="M 775.898867 359.517187 
L 775.898867 26.877187 
L 775.239599 26.877187 
L 775.239599 359.517187 
z
" clip-path="url(#p6a4d0ba558)" style="fill: #add8e6; stroke: #add8e6; stroke-linejoin: miter"/>
   </g>
   <g id="patch_56">
    <path d="M 777.598564 359.517187 
L 777.598564 26.877187 
L 777.436924 26.877187 
L 777.436924 359.517187 
z
" clip-path="url(#p6a4d0ba558)" style="fill: #add8e6; stroke: #add8e6; stroke-linejoin: miter"/>
   </g>
   <g id="patch_57">
    <path d="M 778.235245 359.517187 
L 778.235245 26.877187 
L 778.408179 26.877187 
L 778.408179 359.517187 
z
" clip-path="url(#p6a4d0ba558)" style="fill: #add8e6; stroke: #add8e6; stroke-linejoin: miter"/>
   </g>
   <g id="patch_58">
    <path d="M 787.065481 359.517187 
L 787.065481 26.877187 
L 787.128302 26.877187 
L 787.128302 359.517187 
z
" clip-path="url(#p6a4d0ba558)" style="fill: #add8e6; stroke: #add8e6; stroke-linejoin: miter"/>
   </g>
   <g id="patch_59">
    <path d="M 793.864975 359.517187 
L 793.864975 26.877187 
L 793.832506 26.877187 
L 793.832506 359.517187 
z
" clip-path="url(#p6a4d0ba558)" style="fill: #add8e6; stroke: #add8e6; stroke-linejoin: miter"/>
   </g>
   <g id="patch_60">
    <path d="M 799.496986 359.517187 
L 799.496986 26.877187 
L 799.579571 26.877187 
L 799.579571 359.517187 
z
" clip-path="url(#p6a4d0ba558)" style="fill: #add8e6; stroke: #add8e6; stroke-linejoin: miter"/>
   </g>
   <g id="patch_61">
    <path d="M 799.786386 359.517187 
L 799.786386 26.877187 
L 799.795562 26.877187 
L 799.795562 359.517187 
z
" clip-path="url(#p6a4d0ba558)" style="fill: #add8e6; stroke: #add8e6; stroke-linejoin: miter"/>
   </g>
   <g id="patch_62">
    <path d="M 800.103315 359.517187 
L 800.103315 26.877187 
L 800.312247 26.877187 
L 800.312247 359.517187 
z
" clip-path="url(#p6a4d0ba558)" style="fill: #add8e6; stroke: #add8e6; stroke-linejoin: miter"/>
   </g>
   <g id="patch_63">
    <path d="M 800.90093 359.517187 
L 800.90093 26.877187 
L 801.026572 26.877187 
L 801.026572 359.517187 
z
" clip-path="url(#p6a4d0ba558)" style="fill: #add8e6; stroke: #add8e6; stroke-linejoin: miter"/>
   </g>
   <g id="patch_64">
    <path d="M 803.120841 359.517187 
L 803.120841 26.877187 
L 803.266953 26.877187 
L 803.266953 359.517187 
z
" clip-path="url(#p6a4d0ba558)" style="fill: #add8e6; stroke: #add8e6; stroke-linejoin: miter"/>
   </g>
   <g id="patch_65">
    <path d="M 806.104487 359.517187 
L 806.104487 26.877187 
L 805.806617 26.877187 
L 805.806617 359.517187 
z
" clip-path="url(#p6a4d0ba558)" style="fill: #add8e6; stroke: #add8e6; stroke-linejoin: miter"/>
   </g>
   <g id="patch_66">
    <path d="M 807.264912 359.517187 
L 807.264912 26.877187 
L 807.471021 26.877187 
L 807.471021 359.517187 
z
" clip-path="url(#p6a4d0ba558)" style="fill: #add8e6; stroke: #add8e6; stroke-linejoin: miter"/>
   </g>
   <g id="patch_67">
    <path d="M 814.954487 359.517187 
L 814.954487 26.877187 
L 814.588855 26.877187 
L 814.588855 359.517187 
z
" clip-path="url(#p6a4d0ba558)" style="fill: #add8e6; stroke: #add8e6; stroke-linejoin: miter"/>
   </g>
   <g id="patch_68">
    <path d="M 819.325843 359.517187 
L 819.325843 26.877187 
L 818.746336 26.877187 
L 818.746336 359.517187 
z
" clip-path="url(#p6a4d0ba558)" style="fill: #add8e6; stroke: #add8e6; stroke-linejoin: miter"/>
   </g>
   <g id="patch_69">
    <path d="M 825.722294 359.517187 
L 825.722294 26.877187 
L 825.839465 26.877187 
L 825.839465 359.517187 
z
" clip-path="url(#p6a4d0ba558)" style="fill: #add8e6; stroke: #add8e6; stroke-linejoin: miter"/>
   </g>
   <g id="patch_70">
    <path d="M 845.762907 359.517187 
L 845.762907 26.877187 
L 845.877255 26.877187 
L 845.877255 359.517187 
z
" clip-path="url(#p6a4d0ba558)" style="fill: #add8e6; stroke: #add8e6; stroke-linejoin: miter"/>
   </g>
   <g id="patch_71">
    <path d="M 846.494172 359.517187 
L 846.494172 26.877187 
L 846.705222 26.877187 
L 846.705222 359.517187 
z
" clip-path="url(#p6a4d0ba558)" style="fill: #add8e6; stroke: #add8e6; stroke-linejoin: miter"/>
   </g>
   <g id="patch_72">
    <path d="M 847.104736 359.517187 
L 847.104736 26.877187 
L 847.221908 26.877187 
L 847.221908 359.517187 
z
" clip-path="url(#p6a4d0ba558)" style="fill: #add8e6; stroke: #add8e6; stroke-linejoin: miter"/>
   </g>
   <g id="patch_73">
    <path d="M 847.583305 359.517187 
L 847.583305 26.877187 
L 847.725182 26.877187 
L 847.725182 359.517187 
z
" clip-path="url(#p6a4d0ba558)" style="fill: #add8e6; stroke: #add8e6; stroke-linejoin: miter"/>
   </g>
   <g id="patch_74">
    <path d="M 904.579622 359.517187 
L 904.579622 26.877187 
L 904.713028 26.877187 
L 904.713028 359.517187 
z
" clip-path="url(#p6a4d0ba558)" style="fill: #add8e6; stroke: #add8e6; stroke-linejoin: miter"/>
   </g>
   <g id="patch_75">
    <path d="M 908.159715 359.517187 
L 908.159715 26.877187 
L 908.266299 26.877187 
L 908.266299 359.517187 
z
" clip-path="url(#p6a4d0ba558)" style="fill: #add8e6; stroke: #add8e6; stroke-linejoin: miter"/>
   </g>
   <g id="patch_76">
    <path d="M 936.241419 359.517187 
L 936.241419 26.877187 
L 936.406589 26.877187 
L 936.406589 359.517187 
z
" clip-path="url(#p6a4d0ba558)" style="fill: #add8e6; stroke: #add8e6; stroke-linejoin: miter"/>
   </g>
   <g id="patch_77">
    <path d="M 937.247261 359.517187 
L 937.247261 26.877187 
L 937.026329 26.877187 
L 937.026329 359.517187 
z
" clip-path="url(#p6a4d0ba558)" style="fill: #add8e6; stroke: #add8e6; stroke-linejoin: miter"/>
   </g>
   <g id="patch_78">
    <path d="M 937.648892 359.517187 
L 937.648892 26.877187 
L 937.297377 26.877187 
L 937.297377 359.517187 
z
" clip-path="url(#p6a4d0ba558)" style="fill: #add8e6; stroke: #add8e6; stroke-linejoin: miter"/>
   </g>
   <g id="patch_79">
    <path d="M 956.684369 359.517187 
L 956.684369 26.877187 
L 956.896125 26.877187 
L 956.896125 359.517187 
z
" clip-path="url(#p6a4d0ba558)" style="fill: #add8e6; stroke: #add8e6; stroke-linejoin: miter"/>
   </g>
   <g id="patch_80">
    <path d="M 957.035179 359.517187 
L 957.035179 26.877187 
L 957.081765 26.877187 
L 957.081765 359.517187 
z
" clip-path="url(#p6a4d0ba558)" style="fill: #add8e6; stroke: #add8e6; stroke-linejoin: miter"/>
   </g>
   <g id="patch_81">
    <path d="M 980.033321 359.517187 
L 980.033321 26.877187 
L 979.056419 26.877187 
L 979.056419 359.517187 
z
" clip-path="url(#p6a4d0ba558)" style="fill: #add8e6; stroke: #add8e6; stroke-linejoin: miter"/>
   </g>
   <g id="patch_82">
    <path d="M 988.371577 359.517187 
L 988.371577 26.877187 
L 988.418163 26.877187 
L 988.418163 359.517187 
z
" clip-path="url(#p6a4d0ba558)" style="fill: #add8e6; stroke: #add8e6; stroke-linejoin: miter"/>
   </g>
   <g id="patch_83">
    <path d="M 992.798695 359.517187 
L 992.798695 26.877187 
L 992.962453 26.877187 
L 992.962453 359.517187 
z
" clip-path="url(#p6a4d0ba558)" style="fill: #add8e6; stroke: #add8e6; stroke-linejoin: miter"/>
   </g>
   <g id="patch_84">
    <path d="M 1008.400191 359.517187 
L 1008.400191 26.877187 
L 1008.55689 26.877187 
L 1008.55689 359.517187 
z
" clip-path="url(#p6a4d0ba558)" style="fill: #add8e6; stroke: #add8e6; stroke-linejoin: miter"/>
   </g>
   <g id="patch_85">
    <path d="M 1008.774999 359.517187 
L 1008.774999 26.877187 
L 1008.736883 26.877187 
L 1008.736883 359.517187 
z
" clip-path="url(#p6a4d0ba558)" style="fill: #add8e6; stroke: #add8e6; stroke-linejoin: miter"/>
   </g>
   <g id="patch_86">
    <path d="M 1036.433191 359.517187 
L 1036.433191 26.877187 
L 1036.534128 26.877187 
L 1036.534128 359.517187 
z
" clip-path="url(#p6a4d0ba558)" style="fill: #add8e6; stroke: #add8e6; stroke-linejoin: miter"/>
   </g>
   <g id="patch_87">
    <path d="M 1036.705651 359.517187 
L 1036.705651 26.877187 
L 1036.690828 26.877187 
L 1036.690828 359.517187 
z
" clip-path="url(#p6a4d0ba558)" style="fill: #add8e6; stroke: #add8e6; stroke-linejoin: miter"/>
   </g>
   <g id="patch_88">
    <path d="M 1049.88042 359.517187 
L 1049.88042 26.877187 
L 1050.088647 26.877187 
L 1050.088647 359.517187 
z
" clip-path="url(#p6a4d0ba558)" style="fill: #add8e6; stroke: #add8e6; stroke-linejoin: miter"/>
   </g>
   <g id="patch_89">
    <path d="M 1052.456082 359.517187 
L 1052.456082 26.877187 
L 1052.497022 26.877187 
L 1052.497022 359.517187 
z
" clip-path="url(#p6a4d0ba558)" style="fill: #add8e6; stroke: #add8e6; stroke-linejoin: miter"/>
   </g>
   <g id="patch_90">
    <path d="M 1056.626975 359.517187 
L 1056.626975 26.877187 
L 1056.794262 26.877187 
L 1056.794262 359.517187 
z
" clip-path="url(#p6a4d0ba558)" style="fill: #add8e6; stroke: #add8e6; stroke-linejoin: miter"/>
   </g>
   <g id="patch_91">
    <path d="M 1058.613249 359.517187 
L 1058.613249 26.877187 
L 1058.759361 26.877187 
L 1058.759361 359.517187 
z
" clip-path="url(#p6a4d0ba558)" style="fill: #add8e6; stroke: #add8e6; stroke-linejoin: miter"/>
   </g>
   <g id="patch_92">
    <path d="M 1058.82924 359.517187 
L 1058.82924 26.877187 
L 1058.973234 26.877187 
L 1058.973234 359.517187 
z
" clip-path="url(#p6a4d0ba558)" style="fill: #add8e6; stroke: #add8e6; stroke-linejoin: miter"/>
   </g>
   <g id="patch_93">
    <path d="M 1062.510976 359.517187 
L 1062.510976 26.877187 
L 1062.510976 26.877187 
z
" clip-path="url(#p6a4d0ba558)" style="fill: #add8e6; stroke: #add8e6; stroke-linejoin: miter"/>
   </g>
   <g id="patch_94">
    <path d="M 1065.480504 359.517187 
L 1065.480504 26.877187 
L 1065.623793 26.877187 
L 1065.623793 359.517187 
z
" clip-path="url(#p6a4d0ba558)" style="fill: #add8e6; stroke: #add8e6; stroke-linejoin: miter"/>
   </g>
   <g id="patch_95">
    <path d="M 1072.803036 359.517187 
L 1072.803036 26.877187 
L 1072.849623 26.877187 
L 1072.849623 359.517187 
z
" clip-path="url(#p6a4d0ba558)" style="fill: #add8e6; stroke: #add8e6; stroke-linejoin: miter"/>
   </g>
   <g id="patch_96">
    <path d="M 1108.178332 359.517187 
L 1108.178332 26.877187 
L 1108.373854 26.877187 
L 1108.373854 359.517187 
z
" clip-path="url(#p6a4d0ba558)" style="fill: #add8e6; stroke: #add8e6; stroke-linejoin: miter"/>
   </g>
   <g id="patch_97">
    <path d="M 1109.413577 359.517187 
L 1109.413577 26.877187 
L 1109.530043 26.877187 
L 1109.530043 359.517187 
z
" clip-path="url(#p6a4d0ba558)" style="fill: #add8e6; stroke: #add8e6; stroke-linejoin: miter"/>
   </g>
   <g id="patch_98">
    <path d="M 1114.053157 359.517187 
L 1114.053157 26.877187 
L 1112.558158 26.877187 
L 1112.558158 359.517187 
z
" clip-path="url(#p6a4d0ba558)" style="fill: #add8e6; stroke: #add8e6; stroke-linejoin: miter"/>
   </g>
   <g id="patch_99">
    <path d="M 1114.47667 359.517187 
L 1114.47667 26.877187 
L 1114.507727 26.877187 
L 1114.507727 359.517187 
z
" clip-path="url(#p6a4d0ba558)" style="fill: #add8e6; stroke: #add8e6; stroke-linejoin: miter"/>
   </g>
   <g id="patch_100">
    <path d="M 222.780908 359.517187 
L 222.780908 26.877187 
L 375.245421 26.877187 
L 375.245421 359.517187 
z
" clip-path="url(#p6a4d0ba558)" style="fill: #808080; opacity: 0.4; stroke: #808080; stroke-linejoin: miter"/>
   </g>
   <g id="patch_101">
    <path d="M 379.480546 26.877187 
L 379.480546 26.877187 
L 379.480546 359.517187 
" clip-path="url(#p6a4d0ba558)" style="fill: #808080; opacity: 0.4; stroke: #808080; stroke-linejoin: miter"/>
   </g>
   <g id="patch_102">
    <path d="M 383.715672 26.877187 
L 383.715672 26.877187 
L 383.715672 359.517187 
" clip-path="url(#p6a4d0ba558)" style="fill: #808080; opacity: 0.4; stroke: #808080; stroke-linejoin: miter"/>
   </g>
   <g id="patch_103">
    <path d="M 527.709934 359.517187 
L 527.709934 26.877187 
L 680.174446 26.877187 
L 680.174446 359.517187 
z
" clip-path="url(#p6a4d0ba558)" style="fill: #808080; opacity: 0.4; stroke: #808080; stroke-linejoin: miter"/>
   </g>
   <g id="patch_104">
    <path d="M 684.409572 26.877187 
L 684.409572 26.877187 
L 684.409572 359.517187 
" clip-path="url(#p6a4d0ba558)" style="fill: #808080; opacity: 0.4; stroke: #808080; stroke-linejoin: miter"/>
   </g>
   <g id="patch_105">
    <path d="M 688.644697 26.877187 
L 688.644697 26.877187 
L 688.644697 359.517187 
" clip-path="url(#p6a4d0ba558)" style="fill: #808080; opacity: 0.4; stroke: #808080; stroke-linejoin: miter"/>
   </g>
   <g id="patch_106">
    <path d="M 832.638959 359.517187 
L 832.638959 26.877187 
L 985.103472 26.877187 
L 985.103472 359.517187 
z
" clip-path="url(#p6a4d0ba558)" style="fill: #808080; opacity: 0.4; stroke: #808080; stroke-linejoin: miter"/>
   </g>
   <g id="patch_107">
    <path d="M 989.338597 26.877187 
L 989.338597 26.877187 
L 989.338597 359.517187 
" clip-path="url(#p6a4d0ba558)" style="fill: #808080; opacity: 0.4; stroke: #808080; stroke-linejoin: miter"/>
   </g>
   <g id="patch_108">
    <path d="M 993.573723 26.877187 
L 993.573723 26.877187 
L 993.573723 359.517187 
" clip-path="url(#p6a4d0ba558)" style="fill: #808080; opacity: 0.4; stroke: #808080; stroke-linejoin: miter"/>
   </g>
   <g id="matplotlib.axis_1">
    <g id="xtick_1">
     <g id="line2d_1">
      <defs>
       <path id="mb218010985" d="M 0 0 
L 0 3.5 
" style="stroke: #000000; stroke-width: 0.8"/>
      </defs>
      <g>
       <use xlink:href="#mb218010985" x="133.6774" y="359.517187" style="stroke: #000000; stroke-width: 0.8"/>
      </g>
     </g>
     <g id="text_1">
      <!-- 12-20 12 -->
      <g transform="translate(111.196931 374.115625) scale(0.1 -0.1)">
       <defs>
        <path id="DejaVuSans-31" d="M 794 531 
L 1825 531 
L 1825 4091 
L 703 3866 
L 703 4441 
L 1819 4666 
L 2450 4666 
L 2450 531 
L 3481 531 
L 3481 0 
L 794 0 
L 794 531 
z
" transform="scale(0.015625)"/>
        <path id="DejaVuSans-32" d="M 1228 531 
L 3431 531 
L 3431 0 
L 469 0 
L 469 531 
Q 828 903 1448 1529 
Q 2069 2156 2228 2338 
Q 2531 2678 2651 2914 
Q 2772 3150 2772 3378 
Q 2772 3750 2511 3984 
Q 2250 4219 1831 4219 
Q 1534 4219 1204 4116 
Q 875 4013 500 3803 
L 500 4441 
Q 881 4594 1212 4672 
Q 1544 4750 1819 4750 
Q 2544 4750 2975 4387 
Q 3406 4025 3406 3419 
Q 3406 3131 3298 2873 
Q 3191 2616 2906 2266 
Q 2828 2175 2409 1742 
Q 1991 1309 1228 531 
z
" transform="scale(0.015625)"/>
        <path id="DejaVuSans-2d" d="M 313 2009 
L 1997 2009 
L 1997 1497 
L 313 1497 
L 313 2009 
z
" transform="scale(0.015625)"/>
        <path id="DejaVuSans-30" d="M 2034 4250 
Q 1547 4250 1301 3770 
Q 1056 3291 1056 2328 
Q 1056 1369 1301 889 
Q 1547 409 2034 409 
Q 2525 409 2770 889 
Q 3016 1369 3016 2328 
Q 3016 3291 2770 3770 
Q 2525 4250 2034 4250 
z
M 2034 4750 
Q 2819 4750 3233 4129 
Q 3647 3509 3647 2328 
Q 3647 1150 3233 529 
Q 2819 -91 2034 -91 
Q 1250 -91 836 529 
Q 422 1150 422 2328 
Q 422 3509 836 4129 
Q 1250 4750 2034 4750 
z
" transform="scale(0.015625)"/>
        <path id="DejaVuSans-20" transform="scale(0.015625)"/>
       </defs>
       <use xlink:href="#DejaVuSans-31"/>
       <use xlink:href="#DejaVuSans-32" x="63.623047"/>
       <use xlink:href="#DejaVuSans-2d" x="127.246094"/>
       <use xlink:href="#DejaVuSans-32" x="163.330078"/>
       <use xlink:href="#DejaVuSans-30" x="226.953125"/>
       <use xlink:href="#DejaVuSans-20" x="290.576172"/>
       <use xlink:href="#DejaVuSans-31" x="322.363281"/>
       <use xlink:href="#DejaVuSans-32" x="385.986328"/>
      </g>
     </g>
    </g>
    <g id="xtick_2">
     <g id="line2d_2">
      <g>
       <use xlink:href="#mb218010985" x="286.141913" y="359.517187" style="stroke: #000000; stroke-width: 0.8"/>
      </g>
     </g>
     <g id="text_2">
      <!-- 12-21 00 -->
      <g transform="translate(263.661444 374.115625) scale(0.1 -0.1)">
       <use xlink:href="#DejaVuSans-31"/>
       <use xlink:href="#DejaVuSans-32" x="63.623047"/>
       <use xlink:href="#DejaVuSans-2d" x="127.246094"/>
       <use xlink:href="#DejaVuSans-32" x="163.330078"/>
       <use xlink:href="#DejaVuSans-31" x="226.953125"/>
       <use xlink:href="#DejaVuSans-20" x="290.576172"/>
       <use xlink:href="#DejaVuSans-30" x="322.363281"/>
       <use xlink:href="#DejaVuSans-30" x="385.986328"/>
      </g>
     </g>
    </g>
    <g id="xtick_3">
     <g id="line2d_3">
      <g>
       <use xlink:href="#mb218010985" x="438.606425" y="359.517187" style="stroke: #000000; stroke-width: 0.8"/>
      </g>
     </g>
     <g id="text_3">
      <!-- 12-21 12 -->
      <g transform="translate(416.125957 374.115625) scale(0.1 -0.1)">
       <use xlink:href="#DejaVuSans-31"/>
       <use xlink:href="#DejaVuSans-32" x="63.623047"/>
       <use xlink:href="#DejaVuSans-2d" x="127.246094"/>
       <use xlink:href="#DejaVuSans-32" x="163.330078"/>
       <use xlink:href="#DejaVuSans-31" x="226.953125"/>
       <use xlink:href="#DejaVuSans-20" x="290.576172"/>
       <use xlink:href="#DejaVuSans-31" x="322.363281"/>
       <use xlink:href="#DejaVuSans-32" x="385.986328"/>
      </g>
     </g>
    </g>
    <g id="xtick_4">
     <g id="line2d_4">
      <g>
       <use xlink:href="#mb218010985" x="591.070938" y="359.517187" style="stroke: #000000; stroke-width: 0.8"/>
      </g>
     </g>
     <g id="text_4">
      <!-- 12-22 00 -->
      <g transform="translate(568.590469 374.115625) scale(0.1 -0.1)">
       <use xlink:href="#DejaVuSans-31"/>
       <use xlink:href="#DejaVuSans-32" x="63.623047"/>
       <use xlink:href="#DejaVuSans-2d" x="127.246094"/>
       <use xlink:href="#DejaVuSans-32" x="163.330078"/>
       <use xlink:href="#DejaVuSans-32" x="226.953125"/>
       <use xlink:href="#DejaVuSans-20" x="290.576172"/>
       <use xlink:href="#DejaVuSans-30" x="322.363281"/>
       <use xlink:href="#DejaVuSans-30" x="385.986328"/>
      </g>
     </g>
    </g>
    <g id="xtick_5">
     <g id="line2d_5">
      <g>
       <use xlink:href="#mb218010985" x="743.535451" y="359.517187" style="stroke: #000000; stroke-width: 0.8"/>
      </g>
     </g>
     <g id="text_5">
      <!-- 12-22 12 -->
      <g transform="translate(721.054982 374.115625) scale(0.1 -0.1)">
       <use xlink:href="#DejaVuSans-31"/>
       <use xlink:href="#DejaVuSans-32" x="63.623047"/>
       <use xlink:href="#DejaVuSans-2d" x="127.246094"/>
       <use xlink:href="#DejaVuSans-32" x="163.330078"/>
       <use xlink:href="#DejaVuSans-32" x="226.953125"/>
       <use xlink:href="#DejaVuSans-20" x="290.576172"/>
       <use xlink:href="#DejaVuSans-31" x="322.363281"/>
       <use xlink:href="#DejaVuSans-32" x="385.986328"/>
      </g>
     </g>
    </g>
    <g id="xtick_6">
     <g id="line2d_6">
      <g>
       <use xlink:href="#mb218010985" x="895.999964" y="359.517187" style="stroke: #000000; stroke-width: 0.8"/>
      </g>
     </g>
     <g id="text_6">
      <!-- 12-23 00 -->
      <g transform="translate(873.519495 374.115625) scale(0.1 -0.1)">
       <defs>
        <path id="DejaVuSans-33" d="M 2597 2516 
Q 3050 2419 3304 2112 
Q 3559 1806 3559 1356 
Q 3559 666 3084 287 
Q 2609 -91 1734 -91 
Q 1441 -91 1130 -33 
Q 819 25 488 141 
L 488 750 
Q 750 597 1062 519 
Q 1375 441 1716 441 
Q 2309 441 2620 675 
Q 2931 909 2931 1356 
Q 2931 1769 2642 2001 
Q 2353 2234 1838 2234 
L 1294 2234 
L 1294 2753 
L 1863 2753 
Q 2328 2753 2575 2939 
Q 2822 3125 2822 3475 
Q 2822 3834 2567 4026 
Q 2313 4219 1838 4219 
Q 1578 4219 1281 4162 
Q 984 4106 628 3988 
L 628 4550 
Q 988 4650 1302 4700 
Q 1616 4750 1894 4750 
Q 2613 4750 3031 4423 
Q 3450 4097 3450 3541 
Q 3450 3153 3228 2886 
Q 3006 2619 2597 2516 
z
" transform="scale(0.015625)"/>
       </defs>
       <use xlink:href="#DejaVuSans-31"/>
       <use xlink:href="#DejaVuSans-32" x="63.623047"/>
       <use xlink:href="#DejaVuSans-2d" x="127.246094"/>
       <use xlink:href="#DejaVuSans-32" x="163.330078"/>
       <use xlink:href="#DejaVuSans-33" x="226.953125"/>
       <use xlink:href="#DejaVuSans-20" x="290.576172"/>
       <use xlink:href="#DejaVuSans-30" x="322.363281"/>
       <use xlink:href="#DejaVuSans-30" x="385.986328"/>
      </g>
     </g>
    </g>
    <g id="xtick_7">
     <g id="line2d_7">
      <g>
       <use xlink:href="#mb218010985" x="1048.464477" y="359.517187" style="stroke: #000000; stroke-width: 0.8"/>
      </g>
     </g>
     <g id="text_7">
      <!-- 12-23 12 -->
      <g transform="translate(1025.984008 374.115625) scale(0.1 -0.1)">
       <use xlink:href="#DejaVuSans-31"/>
       <use xlink:href="#DejaVuSans-32" x="63.623047"/>
       <use xlink:href="#DejaVuSans-2d" x="127.246094"/>
       <use xlink:href="#DejaVuSans-32" x="163.330078"/>
       <use xlink:href="#DejaVuSans-33" x="226.953125"/>
       <use xlink:href="#DejaVuSans-20" x="290.576172"/>
       <use xlink:href="#DejaVuSans-31" x="322.363281"/>
       <use xlink:href="#DejaVuSans-32" x="385.986328"/>
      </g>
     </g>
    </g>
    <g id="text_8">
     <!-- Time -->
     <g transform="translate(592.554688 389.313437) scale(0.12 -0.12)">
      <defs>
       <path id="DejaVuSans-54" d="M -19 4666 
L 3928 4666 
L 3928 4134 
L 2272 4134 
L 2272 0 
L 1638 0 
L 1638 4134 
L -19 4134 
L -19 4666 
z
" transform="scale(0.015625)"/>
       <path id="DejaVuSans-69" d="M 603 3500 
L 1178 3500 
L 1178 0 
L 603 0 
L 603 3500 
z
M 603 4863 
L 1178 4863 
L 1178 4134 
L 603 4134 
L 603 4863 
z
" transform="scale(0.015625)"/>
       <path id="DejaVuSans-6d" d="M 3328 2828 
Q 3544 3216 3844 3400 
Q 4144 3584 4550 3584 
Q 5097 3584 5394 3201 
Q 5691 2819 5691 2113 
L 5691 0 
L 5113 0 
L 5113 2094 
Q 5113 2597 4934 2840 
Q 4756 3084 4391 3084 
Q 3944 3084 3684 2787 
Q 3425 2491 3425 1978 
L 3425 0 
L 2847 0 
L 2847 2094 
Q 2847 2600 2669 2842 
Q 2491 3084 2119 3084 
Q 1678 3084 1418 2786 
Q 1159 2488 1159 1978 
L 1159 0 
L 581 0 
L 581 3500 
L 1159 3500 
L 1159 2956 
Q 1356 3278 1631 3431 
Q 1906 3584 2284 3584 
Q 2666 3584 2933 3390 
Q 3200 3197 3328 2828 
z
" transform="scale(0.015625)"/>
       <path id="DejaVuSans-65" d="M 3597 1894 
L 3597 1613 
L 953 1613 
Q 991 1019 1311 708 
Q 1631 397 2203 397 
Q 2534 397 2845 478 
Q 3156 559 3463 722 
L 3463 178 
Q 3153 47 2828 -22 
Q 2503 -91 2169 -91 
Q 1331 -91 842 396 
Q 353 884 353 1716 
Q 353 2575 817 3079 
Q 1281 3584 2069 3584 
Q 2775 3584 3186 3129 
Q 3597 2675 3597 1894 
z
M 3022 2063 
Q 3016 2534 2758 2815 
Q 2500 3097 2075 3097 
Q 1594 3097 1305 2825 
Q 1016 2553 972 2059 
L 3022 2063 
z
" transform="scale(0.015625)"/>
      </defs>
      <use xlink:href="#DejaVuSans-54"/>
      <use xlink:href="#DejaVuSans-69" x="57.958984"/>
      <use xlink:href="#DejaVuSans-6d" x="85.742188"/>
      <use xlink:href="#DejaVuSans-65" x="183.154297"/>
     </g>
    </g>
   </g>
   <g id="matplotlib.axis_2">
    <g id="ytick_1">
     <g id="line2d_8">
      <defs>
       <path id="m4aad148a6b" d="M 0 0 
L -3.5 0 
" style="stroke: #000000; stroke-width: 0.8"/>
      </defs>
      <g>
       <use xlink:href="#m4aad148a6b" x="49.235" y="344.397187" style="stroke: #000000; stroke-width: 0.8"/>
      </g>
     </g>
     <g id="text_9">
      <!-- 0 -->
      <g transform="translate(35.8725 348.196406) scale(0.1 -0.1)">
       <use xlink:href="#DejaVuSans-30"/>
      </g>
     </g>
    </g>
    <g id="ytick_2">
     <g id="line2d_9">
      <g>
       <use xlink:href="#m4aad148a6b" x="49.235" y="303.198277" style="stroke: #000000; stroke-width: 0.8"/>
      </g>
     </g>
     <g id="text_10">
      <!-- 100 -->
      <g transform="translate(23.1475 306.997496) scale(0.1 -0.1)">
       <use xlink:href="#DejaVuSans-31"/>
       <use xlink:href="#DejaVuSans-30" x="63.623047"/>
       <use xlink:href="#DejaVuSans-30" x="127.246094"/>
      </g>
     </g>
    </g>
    <g id="ytick_3">
     <g id="line2d_10">
      <g>
       <use xlink:href="#m4aad148a6b" x="49.235" y="261.999367" style="stroke: #000000; stroke-width: 0.8"/>
      </g>
     </g>
     <g id="text_11">
      <!-- 200 -->
      <g transform="translate(23.1475 265.798586) scale(0.1 -0.1)">
       <use xlink:href="#DejaVuSans-32"/>
       <use xlink:href="#DejaVuSans-30" x="63.623047"/>
       <use xlink:href="#DejaVuSans-30" x="127.246094"/>
      </g>
     </g>
    </g>
    <g id="ytick_4">
     <g id="line2d_11">
      <g>
       <use xlink:href="#m4aad148a6b" x="49.235" y="220.800457" style="stroke: #000000; stroke-width: 0.8"/>
      </g>
     </g>
     <g id="text_12">
      <!-- 300 -->
      <g transform="translate(23.1475 224.599676) scale(0.1 -0.1)">
       <use xlink:href="#DejaVuSans-33"/>
       <use xlink:href="#DejaVuSans-30" x="63.623047"/>
       <use xlink:href="#DejaVuSans-30" x="127.246094"/>
      </g>
     </g>
    </g>
    <g id="ytick_5">
     <g id="line2d_12">
      <g>
       <use xlink:href="#m4aad148a6b" x="49.235" y="179.601547" style="stroke: #000000; stroke-width: 0.8"/>
      </g>
     </g>
     <g id="text_13">
      <!-- 400 -->
      <g transform="translate(23.1475 183.400766) scale(0.1 -0.1)">
       <defs>
        <path id="DejaVuSans-34" d="M 2419 4116 
L 825 1625 
L 2419 1625 
L 2419 4116 
z
M 2253 4666 
L 3047 4666 
L 3047 1625 
L 3713 1625 
L 3713 1100 
L 3047 1100 
L 3047 0 
L 2419 0 
L 2419 1100 
L 313 1100 
L 313 1709 
L 2253 4666 
z
" transform="scale(0.015625)"/>
       </defs>
       <use xlink:href="#DejaVuSans-34"/>
       <use xlink:href="#DejaVuSans-30" x="63.623047"/>
       <use xlink:href="#DejaVuSans-30" x="127.246094"/>
      </g>
     </g>
    </g>
    <g id="ytick_6">
     <g id="line2d_13">
      <g>
       <use xlink:href="#m4aad148a6b" x="49.235" y="138.402637" style="stroke: #000000; stroke-width: 0.8"/>
      </g>
     </g>
     <g id="text_14">
      <!-- 500 -->
      <g transform="translate(23.1475 142.201856) scale(0.1 -0.1)">
       <defs>
        <path id="DejaVuSans-35" d="M 691 4666 
L 3169 4666 
L 3169 4134 
L 1269 4134 
L 1269 2991 
Q 1406 3038 1543 3061 
Q 1681 3084 1819 3084 
Q 2600 3084 3056 2656 
Q 3513 2228 3513 1497 
Q 3513 744 3044 326 
Q 2575 -91 1722 -91 
Q 1428 -91 1123 -41 
Q 819 9 494 109 
L 494 744 
Q 775 591 1075 516 
Q 1375 441 1709 441 
Q 2250 441 2565 725 
Q 2881 1009 2881 1497 
Q 2881 1984 2565 2268 
Q 2250 2553 1709 2553 
Q 1456 2553 1204 2497 
Q 953 2441 691 2322 
L 691 4666 
z
" transform="scale(0.015625)"/>
       </defs>
       <use xlink:href="#DejaVuSans-35"/>
       <use xlink:href="#DejaVuSans-30" x="63.623047"/>
       <use xlink:href="#DejaVuSans-30" x="127.246094"/>
      </g>
     </g>
    </g>
    <g id="ytick_7">
     <g id="line2d_14">
      <g>
       <use xlink:href="#m4aad148a6b" x="49.235" y="97.203727" style="stroke: #000000; stroke-width: 0.8"/>
      </g>
     </g>
     <g id="text_15">
      <!-- 600 -->
      <g transform="translate(23.1475 101.002946) scale(0.1 -0.1)">
       <defs>
        <path id="DejaVuSans-36" d="M 2113 2584 
Q 1688 2584 1439 2293 
Q 1191 2003 1191 1497 
Q 1191 994 1439 701 
Q 1688 409 2113 409 
Q 2538 409 2786 701 
Q 3034 994 3034 1497 
Q 3034 2003 2786 2293 
Q 2538 2584 2113 2584 
z
M 3366 4563 
L 3366 3988 
Q 3128 4100 2886 4159 
Q 2644 4219 2406 4219 
Q 1781 4219 1451 3797 
Q 1122 3375 1075 2522 
Q 1259 2794 1537 2939 
Q 1816 3084 2150 3084 
Q 2853 3084 3261 2657 
Q 3669 2231 3669 1497 
Q 3669 778 3244 343 
Q 2819 -91 2113 -91 
Q 1303 -91 875 529 
Q 447 1150 447 2328 
Q 447 3434 972 4092 
Q 1497 4750 2381 4750 
Q 2619 4750 2861 4703 
Q 3103 4656 3366 4563 
z
" transform="scale(0.015625)"/>
       </defs>
       <use xlink:href="#DejaVuSans-36"/>
       <use xlink:href="#DejaVuSans-30" x="63.623047"/>
       <use xlink:href="#DejaVuSans-30" x="127.246094"/>
      </g>
     </g>
    </g>
    <g id="ytick_8">
     <g id="line2d_15">
      <g>
       <use xlink:href="#m4aad148a6b" x="49.235" y="56.004817" style="stroke: #000000; stroke-width: 0.8"/>
      </g>
     </g>
     <g id="text_16">
      <!-- 700 -->
      <g transform="translate(23.1475 59.804036) scale(0.1 -0.1)">
       <defs>
        <path id="DejaVuSans-37" d="M 525 4666 
L 3525 4666 
L 3525 4397 
L 1831 0 
L 1172 0 
L 2766 4134 
L 525 4134 
L 525 4666 
z
" transform="scale(0.015625)"/>
       </defs>
       <use xlink:href="#DejaVuSans-37"/>
       <use xlink:href="#DejaVuSans-30" x="63.623047"/>
       <use xlink:href="#DejaVuSans-30" x="127.246094"/>
      </g>
     </g>
    </g>
    <g id="text_17">
     <!-- Pellet_Count -->
     <g transform="translate(16.318125 230.485312) rotate(-90) scale(0.12 -0.12)">
      <defs>
       <path id="DejaVuSans-50" d="M 1259 4147 
L 1259 2394 
L 2053 2394 
Q 2494 2394 2734 2622 
Q 2975 2850 2975 3272 
Q 2975 3691 2734 3919 
Q 2494 4147 2053 4147 
L 1259 4147 
z
M 628 4666 
L 2053 4666 
Q 2838 4666 3239 4311 
Q 3641 3956 3641 3272 
Q 3641 2581 3239 2228 
Q 2838 1875 2053 1875 
L 1259 1875 
L 1259 0 
L 628 0 
L 628 4666 
z
" transform="scale(0.015625)"/>
       <path id="DejaVuSans-6c" d="M 603 4863 
L 1178 4863 
L 1178 0 
L 603 0 
L 603 4863 
z
" transform="scale(0.015625)"/>
       <path id="DejaVuSans-74" d="M 1172 4494 
L 1172 3500 
L 2356 3500 
L 2356 3053 
L 1172 3053 
L 1172 1153 
Q 1172 725 1289 603 
Q 1406 481 1766 481 
L 2356 481 
L 2356 0 
L 1766 0 
Q 1100 0 847 248 
Q 594 497 594 1153 
L 594 3053 
L 172 3053 
L 172 3500 
L 594 3500 
L 594 4494 
L 1172 4494 
z
" transform="scale(0.015625)"/>
       <path id="DejaVuSans-5f" d="M 3263 -1063 
L 3263 -1509 
L -63 -1509 
L -63 -1063 
L 3263 -1063 
z
" transform="scale(0.015625)"/>
       <path id="DejaVuSans-43" d="M 4122 4306 
L 4122 3641 
Q 3803 3938 3442 4084 
Q 3081 4231 2675 4231 
Q 1875 4231 1450 3742 
Q 1025 3253 1025 2328 
Q 1025 1406 1450 917 
Q 1875 428 2675 428 
Q 3081 428 3442 575 
Q 3803 722 4122 1019 
L 4122 359 
Q 3791 134 3420 21 
Q 3050 -91 2638 -91 
Q 1578 -91 968 557 
Q 359 1206 359 2328 
Q 359 3453 968 4101 
Q 1578 4750 2638 4750 
Q 3056 4750 3426 4639 
Q 3797 4528 4122 4306 
z
" transform="scale(0.015625)"/>
       <path id="DejaVuSans-6f" d="M 1959 3097 
Q 1497 3097 1228 2736 
Q 959 2375 959 1747 
Q 959 1119 1226 758 
Q 1494 397 1959 397 
Q 2419 397 2687 759 
Q 2956 1122 2956 1747 
Q 2956 2369 2687 2733 
Q 2419 3097 1959 3097 
z
M 1959 3584 
Q 2709 3584 3137 3096 
Q 3566 2609 3566 1747 
Q 3566 888 3137 398 
Q 2709 -91 1959 -91 
Q 1206 -91 779 398 
Q 353 888 353 1747 
Q 353 2609 779 3096 
Q 1206 3584 1959 3584 
z
" transform="scale(0.015625)"/>
       <path id="DejaVuSans-75" d="M 544 1381 
L 544 3500 
L 1119 3500 
L 1119 1403 
Q 1119 906 1312 657 
Q 1506 409 1894 409 
Q 2359 409 2629 706 
Q 2900 1003 2900 1516 
L 2900 3500 
L 3475 3500 
L 3475 0 
L 2900 0 
L 2900 538 
Q 2691 219 2414 64 
Q 2138 -91 1772 -91 
Q 1169 -91 856 284 
Q 544 659 544 1381 
z
M 1991 3584 
L 1991 3584 
z
" transform="scale(0.015625)"/>
       <path id="DejaVuSans-6e" d="M 3513 2113 
L 3513 0 
L 2938 0 
L 2938 2094 
Q 2938 2591 2744 2837 
Q 2550 3084 2163 3084 
Q 1697 3084 1428 2787 
Q 1159 2491 1159 1978 
L 1159 0 
L 581 0 
L 581 3500 
L 1159 3500 
L 1159 2956 
Q 1366 3272 1645 3428 
Q 1925 3584 2291 3584 
Q 2894 3584 3203 3211 
Q 3513 2838 3513 2113 
z
" transform="scale(0.015625)"/>
      </defs>
      <use xlink:href="#DejaVuSans-50"/>
      <use xlink:href="#DejaVuSans-65" x="56.677734"/>
      <use xlink:href="#DejaVuSans-6c" x="118.201172"/>
      <use xlink:href="#DejaVuSans-6c" x="145.984375"/>
      <use xlink:href="#DejaVuSans-65" x="173.767578"/>
      <use xlink:href="#DejaVuSans-74" x="235.291016"/>
      <use xlink:href="#DejaVuSans-5f" x="274.5"/>
      <use xlink:href="#DejaVuSans-43" x="324.5"/>
      <use xlink:href="#DejaVuSans-6f" x="394.324219"/>
      <use xlink:href="#DejaVuSans-75" x="455.505859"/>
      <use xlink:href="#DejaVuSans-6e" x="518.884766"/>
      <use xlink:href="#DejaVuSans-74" x="582.263672"/>
     </g>
    </g>
   </g>
   <g id="line2d_16">
    <path d="M 99.962273 344.397187 
L 100.209322 343.573209 
L 101.317513 343.573209 
L 101.324571 343.16122 
L 101.603384 343.16122 
L 101.617501 342.749231 
L 104.162105 342.749231 
L 104.179752 342.337242 
L 104.451506 342.337242 
L 104.557384 341.513264 
L 104.779728 341.513264 
L 104.790316 341.101275 
L 105.051482 341.101275 
L 105.05854 340.689286 
L 105.196182 340.689286 
L 105.390292 340.277296 
L 106.07497 340.277296 
L 106.177319 339.865307 
L 106.353783 339.865307 
L 106.364371 339.453318 
L 107.133752 339.453318 
L 107.14081 339.041329 
L 107.599615 339.041329 
L 107.719611 338.217351 
L 108.220767 338.217351 
L 108.231355 337.805362 
L 108.665455 337.805362 
L 108.683102 337.393373 
L 108.820743 337.393373 
L 108.83486 336.981384 
L 109.085439 336.981384 
L 109.092497 336.569395 
L 109.31837 336.569395 
L 109.3219 336.157405 
L 109.918347 336.157405 
L 110.024225 335.333427 
L 110.084222 335.333427 
L 110.091281 334.921438 
L 111.333584 334.921438 
L 111.382994 334.09746 
L 114.704038 334.09746 
L 114.809916 333.273482 
L 114.933441 333.273482 
L 115.025202 332.861493 
L 116.906303 332.861493 
L 116.948655 332.037514 
L 117.220409 332.037514 
L 117.220409 331.625525 
L 117.322757 331.625525 
L 117.396872 331.625525 
L 117.40746 331.213536 
L 117.672155 331.213536 
L 117.679214 330.801547 
L 117.79215 330.801547 
L 117.79568 330.389558 
L 117.996848 330.389558 
L 118.007436 329.977569 
L 120.255582 329.977569 
L 120.329696 329.153591 
L 123.431926 329.153591 
L 123.438984 328.741602 
L 123.788382 328.741602 
L 123.79897 328.329613 
L 123.933082 328.329613 
L 124.03896 327.917623 
L 124.084841 327.917623 
L 124.095429 327.505634 
L 130.014016 327.505634 
L 130.126953 327.093645 
L 130.194009 326.269667 
L 130.342239 326.269667 
L 130.342239 326.269667 
L 130.448117 325.445689 
L 130.536349 325.445689 
L 130.638697 324.621711 
L 130.737517 324.621711 
L 130.853983 323.797732 
L 133.218595 323.797732 
L 133.23977 323.385743 
L 133.366824 323.385743 
L 133.377412 322.973754 
L 133.57858 322.973754 
L 133.57858 322.973754 
L 133.596227 322.561765 
L 137.739591 322.561765 
L 137.774884 322.149776 
L 140.315959 322.149776 
L 140.326547 321.737787 
L 140.471247 321.737787 
L 140.478305 321.325798 
L 140.661827 321.325798 
L 140.774764 320.913809 
L 140.820645 320.913809 
L 140.930052 320.089831 
L 141.007696 320.089831 
L 141.007696 320.089831 
L 141.028872 319.677841 
L 142.034714 319.677841 
L 142.137063 319.265852 
L 142.20059 319.265852 
L 142.214707 318.853863 
L 142.362936 318.853863 
L 142.380582 318.441874 
L 143.831113 318.441874 
L 143.915815 317.617896 
L 143.98993 317.617896 
L 144.004047 317.205907 
L 144.628728 317.205907 
L 146.329837 316.793918 
L 147.38156 316.793918 
L 149.449713 316.381929 
L 150.123803 316.381929 
L 151.937849 315.96994 
L 152.181368 315.96994 
L 152.643703 315.55795 
L 152.760169 315.145961 
L 152.781344 315.145961 
L 152.89781 314.733972 
L 158.664639 314.733972 
L 159.434021 314.321983 
L 161.392766 314.321983 
L 161.544525 313.909994 
L 161.618639 313.909994 
L 161.738635 313.086016 
L 161.837454 313.086016 
L 161.946862 312.674027 
L 162.818592 312.674027 
L 162.952704 312.262038 
L 163.104463 312.262038 
L 163.111521 311.850049 
L 163.355041 311.850049 
L 163.432685 311.02607 
L 163.513858 311.02607 
L 163.623265 309.378114 
L 163.736202 309.378114 
L 163.778553 308.966125 
L 164.749103 308.966125 
L 165.250259 308.554136 
L 165.963172 308.554136 
L 166.294924 308.142147 
L 168.514835 308.142147 
L 168.818352 307.730158 
L 168.994816 307.730158 
L 169.075989 306.906179 
L 169.132458 306.906179 
L 169.255982 305.670212 
L 169.305392 305.670212 
L 169.333626 304.846234 
L 169.50656 304.846234 
L 169.531265 304.434245 
L 169.940661 303.610267 
L 176.565103 303.610267 
L 176.572161 303.198277 
L 177.196842 303.198277 
L 177.278015 302.374299 
L 177.380364 302.374299 
L 177.465067 301.550321 
L 177.532123 301.550321 
L 177.606238 300.726343 
L 177.673294 300.726343 
L 177.765055 300.314354 
L 178.170921 300.314354 
L 178.206214 299.902365 
L 179.476751 299.902365 
L 179.480281 299.490376 
L 180.93787 299.490376 
L 180.955516 299.078386 
L 181.802541 299.078386 
L 181.911948 298.666397 
L 181.926065 298.666397 
L 182.003709 298.254408 
L 182.829559 298.254408 
L 182.878969 297.842419 
L 184.350675 297.842419 
L 184.354204 297.43043 
L 186.129427 297.43043 
L 186.245893 296.606452 
L 186.411769 296.606452 
L 186.500001 295.782474 
L 186.55294 295.782474 
L 186.634113 294.958495 
L 186.694111 294.958495 
L 186.852928 293.722528 
L 187.022333 293.722528 
L 187.159975 293.310539 
L 187.572899 293.310539 
L 187.654072 292.89855 
L 190.819829 292.89855 
L 190.939824 292.074572 
L 190.975117 292.074572 
L 191.116287 291.250593 
L 191.2504 291.250593 
L 191.451568 290.426615 
L 192.467998 290.426615 
L 192.559759 290.014626 
L 195.453762 290.014626 
L 195.534935 289.190648 
L 195.665518 289.190648 
L 195.774925 288.778659 
L 195.80316 288.778659 
L 195.863157 287.954681 
L 195.990211 287.954681 
L 196.004328 287.542692 
L 196.180792 287.542692 
L 196.597246 285.482746 
L 196.946643 285.482746 
L 197.063109 284.658768 
L 197.620734 284.658768 
L 197.634851 284.246779 
L 198.03013 284.246779 
L 198.044247 283.83479 
L 198.188947 283.83479 
L 198.217181 283.422801 
L 198.870096 283.422801 
L 199.127733 283.010811 
L 200.433563 283.010811 
L 201.03001 282.598822 
L 204.598103 282.598822 
L 204.66163 282.186833 
L 205.169845 282.186833 
L 205.208667 281.774844 
L 205.685119 281.774844 
L 206.821544 281.362855 
L 207.167413 281.362855 
L 207.601513 280.950866 
L 208.459126 280.950866 
L 210.075532 280.538877 
L 246.441142 280.538877 
L 246.599959 280.126888 
L 253.672618 280.126888 
L 253.672618 280.126888 
L 283.124386 279.714899 
L 283.138503 279.30291 
L 284.641972 279.30291 
L 284.931373 278.89092 
L 289.660596 278.89092 
L 289.766474 278.478931 
L 291.446407 278.478931 
L 294.425112 278.066942 
L 299.764899 278.066942 
L 327.07087 277.654953 
L 327.677905 277.242964 
L 328.023773 277.242964 
L 330.303682 276.830975 
L 330.543673 276.418986 
L 331.09071 276.418986 
L 331.150707 276.006997 
L 365.444635 276.006997 
L 365.765799 275.595008 
L 369.559765 275.595008 
L 370.159741 275.183019 
L 373.544312 274.771029 
L 382.109853 274.35904 
L 383.521562 273.947051 
L 401.549079 273.947051 
L 401.725542 273.535062 
L 421.408287 273.535062 
L 421.535341 273.123073 
L 430.856146 273.123073 
L 431.749052 272.711084 
L 432.952533 272.711084 
L 432.970179 272.299095 
L 433.132526 272.299095 
L 433.181936 271.887106 
L 433.513687 271.887106 
L 433.626624 271.063128 
L 433.771324 271.063128 
L 433.877202 270.651138 
L 461.493749 270.651138 
L 461.843147 270.239149 
L 470.994547 270.239149 
L 471.873335 269.82716 
L 472.208616 269.82716 
L 473.422685 269.415171 
L 473.609736 269.003182 
L 474.057954 269.003182 
L 474.276769 268.591193 
L 474.820276 268.591193 
L 474.869686 268.179204 
L 475.070855 268.179204 
L 475.28614 267.767215 
L 475.459075 267.767215 
L 475.575541 266.943237 
L 475.653184 266.943237 
L 475.667302 266.531247 
L 475.995524 266.531247 
L 476.115519 266.119258 
L 476.115519 266.119258 
L 476.150812 266.119258 
L 476.291983 265.29528 
L 476.330805 265.29528 
L 476.426095 264.471302 
L 476.514327 264.471302 
L 476.609617 264.059313 
L 476.634322 264.059313 
L 476.69079 263.647324 
L 476.888429 263.647324 
L 476.976661 262.823346 
L 477.071951 262.823346 
L 477.156654 262.411356 
L 477.227239 262.411356 
L 477.255474 261.999367 
L 477.774276 261.999367 
L 477.873096 261.175389 
L 477.957799 261.175389 
L 478.077794 260.7634 
L 478.088382 260.7634 
L 478.141321 260.351411 
L 478.254257 260.351411 
L 478.356606 259.939422 
L 478.356606 259.939422 
L 478.374253 259.527433 
L 478.557775 259.527433 
L 478.646006 258.703455 
L 478.720121 258.703455 
L 478.903643 257.879476 
L 479.143634 257.879476 
L 479.147163 257.467487 
L 479.337744 257.467487 
L 479.376566 257.055498 
L 479.542441 257.055498 
L 479.556558 256.643509 
L 479.863605 256.643509 
L 479.905956 256.23152 
L 480.036539 256.23152 
L 480.149476 255.819531 
L 481.218845 255.819531 
L 481.218845 255.819531 
L 481.254138 255.407542 
L 481.391779 255.407542 
L 481.402367 254.995553 
L 481.614123 254.995553 
L 481.642358 254.583564 
L 481.829409 254.583564 
L 481.935287 253.759585 
L 482.051753 253.759585 
L 482.150573 252.935607 
L 482.242334 252.935607 
L 482.249392 252.523618 
L 482.489383 252.523618 
L 482.588202 251.69964 
L 483.159944 251.69964 
L 483.167003 251.287651 
L 483.322291 251.287651 
L 483.3717 250.463673 
L 486.749213 250.463673 
L 486.759801 250.051683 
L 486.90803 250.051683 
L 486.915089 249.639694 
L 487.105669 249.639694 
L 487.208018 248.815716 
L 488.510319 248.815716 
L 488.637373 247.991738 
L 488.810307 247.991738 
L 488.813837 247.579749 
L 488.955007 247.579749 
L 488.962066 247.16776 
L 489.113825 247.16776 
L 489.117354 246.755771 
L 489.240878 246.755771 
L 489.247937 246.343782 
L 492.819559 246.343782 
L 492.971318 245.931792 
L 493.352479 245.931792 
L 493.88187 245.519803 
L 494.174799 245.519803 
L 494.284207 245.107814 
L 494.474787 245.107814 
L 494.594783 244.283836 
L 494.750071 244.283836 
L 494.884183 243.871847 
L 494.887712 243.871847 
L 495.011237 243.047869 
L 495.145349 243.047869 
L 495.148878 242.63588 
L 495.275932 242.63588 
L 495.367693 241.811901 
L 495.512393 241.811901 
L 495.618271 241.399912 
L 495.642976 241.399912 
L 495.642976 241.399912 
L 495.759442 240.987923 
L 495.805323 240.575934 
L 496.49353 240.575934 
L 496.49706 240.163945 
L 497.509961 240.163945 
L 497.51349 239.751956 
L 497.742892 239.751956 
L 497.799361 239.339967 
L 498.000529 239.339967 
L 498.011117 238.927978 
L 498.24052 238.927978 
L 498.258166 238.515989 
L 498.540508 238.515989 
L 498.547566 238.103999 
L 499.101662 238.103999 
L 499.10872 237.69201 
L 506.022563 237.69201 
L 506.029621 237.280021 
L 506.206085 237.280021 
L 506.354314 236.868032 
L 506.407253 236.868032 
L 506.7143 236.044054 
L 510.58591 236.044054 
L 510.610615 235.632065 
L 510.811783 235.632065 
L 510.815313 235.220076 
L 511.009423 235.220076 
L 511.016481 234.808087 
L 511.185886 234.808087 
L 511.31294 234.396098 
L 511.379996 234.396098 
L 511.379996 234.396098 
L 511.394113 233.984108 
L 511.517638 233.984108 
L 515.936285 233.572119 
L 518.424421 233.572119 
L 518.445597 233.16013 
L 519.049102 233.16013 
L 519.200861 232.748141 
L 519.504378 232.748141 
L 519.525554 232.336152 
L 519.829071 232.336152 
L 519.829071 232.336152 
L 519.860835 231.924163 
L 519.973771 231.924163 
L 519.994947 231.512174 
L 520.326698 231.512174 
L 520.55963 230.688196 
L 520.750211 230.688196 
L 520.750211 230.688196 
L 520.767857 230.276207 
L 521.007848 230.276207 
L 521.085492 229.864217 
L 521.212545 229.864217 
L 521.325482 229.040239 
L 521.466653 229.040239 
L 521.569002 228.216261 
L 523.630096 228.216261 
L 523.739504 227.392283 
L 523.85244 227.392283 
L 523.85244 227.392283 
L 523.983023 226.568305 
L 524.120665 226.568305 
L 524.134782 226.156316 
L 525.994708 226.156316 
L 526.146467 225.744326 
L 526.365281 225.332337 
L 526.404103 225.332337 
L 526.41822 224.920348 
L 526.577038 224.920348 
L 526.686445 224.09637 
L 526.799382 224.09637 
L 526.915848 223.684381 
L 527.512294 223.272392 
L 529.061644 222.860403 
L 531.150973 222.860403 
L 531.556839 222.448414 
L 531.59919 222.448414 
L 534.147324 222.036425 
L 539.324765 222.036425 
L 539.564755 221.212446 
L 539.663575 221.212446 
L 539.674163 220.800457 
L 539.903565 220.800457 
L 539.910624 220.388468 
L 540.101205 220.388468 
L 540.175319 219.976479 
L 545.719804 219.976479 
L 545.825682 219.56449 
L 546.266841 219.56449 
L 546.291546 219.152501 
L 546.51389 219.152501 
L 546.616239 218.328523 
L 546.750351 218.328523 
L 546.75741 217.916534 
L 546.877405 217.916534 
L 546.895051 217.504544 
L 547.039752 217.504544 
L 547.099749 217.092555 
L 547.251508 217.092555 
L 547.251508 217.092555 
L 547.272684 216.680566 
L 547.449147 216.680566 
L 547.459735 216.268577 
L 547.593847 216.268577 
L 547.692667 215.856588 
L 547.957362 215.856588 
L 547.978538 215.444599 
L 549.231429 215.444599 
L 549.358483 214.620621 
L 549.46789 214.620621 
L 549.580827 213.796643 
L 549.676117 213.796643 
L 549.704351 213.384653 
L 563.666148 212.972664 
L 563.680265 212.560675 
L 573.329292 212.560675 
L 573.343409 212.148686 
L 573.470463 212.148686 
L 573.576341 211.736697 
L 574.483364 211.736697 
L 574.518657 211.324708 
L 574.776293 211.324708 
L 574.836291 210.912719 
L 575.171572 210.912719 
L 575.273921 210.50073 
L 575.393916 210.50073 
L 575.397445 210.088741 
L 575.513911 210.088741 
L 575.52097 209.676752 
L 575.676258 209.676752 
L 575.679787 209.264762 
L 575.81037 209.264762 
L 575.85625 208.852773 
L 575.993892 208.852773 
L 576.092712 208.028795 
L 576.226824 208.028795 
L 576.233882 207.616806 
L 578.806721 207.616806 
L 578.919658 206.792828 
L 579.039653 206.792828 
L 579.156119 205.96885 
L 579.279643 205.96885 
L 579.374934 205.144871 
L 579.466695 205.144871 
L 579.473753 204.732882 
L 580.465478 204.732882 
L 580.60312 203.908904 
L 580.680764 203.908904 
L 580.779584 203.084926 
L 599.763533 203.084926 
L 599.925879 202.672937 
L 600.081167 202.672937 
L 600.105872 202.260948 
L 600.222338 202.260948 
L 600.225868 201.848959 
L 600.363509 201.848959 
L 600.367038 201.43697 
L 600.585853 201.43697 
L 600.617617 201.02498 
L 601.139949 201.02498 
L 601.164654 200.612991 
L 601.330529 200.612991 
L 602.068147 200.201002 
L 602.085793 199.789013 
L 602.19873 199.789013 
L 604.566871 199.377024 
L 609.02787 199.377024 
L 609.02787 199.377024 
L 609.059633 198.965035 
L 609.246685 198.965035 
L 609.345504 198.141057 
L 609.444324 198.141057 
L 609.444324 198.141057 
L 609.578436 197.729068 
L 609.581965 197.729068 
L 609.694902 197.317079 
L 626.896569 197.317079 
L 627.034211 196.905089 
L 639.958402 196.905089 
L 640.060751 196.4931 
L 654.040194 196.4931 
L 655.056624 196.081111 
L 655.346024 196.081111 
L 655.430727 195.669122 
L 658.201204 195.669122 
L 658.201204 195.669122 
L 658.310612 195.257133 
L 658.504722 195.257133 
L 658.504722 195.257133 
L 658.536485 194.845144 
L 658.751771 194.845144 
L 658.963527 194.433155 
L 661.991642 194.433155 
L 662.016346 194.021166 
L 662.295159 194.021166 
L 662.295159 194.021166 
L 662.358686 193.609177 
L 662.492798 193.609177 
L 662.701025 193.197187 
L 662.736318 193.197187 
L 662.796315 192.785198 
L 663.477465 192.785198 
L 663.798628 191.96122 
L 663.812745 191.96122 
L 663.978621 191.137242 
L 664.860939 191.137242 
L 665.48562 190.725253 
L 673.108846 190.725253 
L 673.214724 190.313264 
L 673.295897 190.313264 
L 673.317073 189.901275 
L 674.672313 189.901275 
L 674.785249 189.077296 
L 674.869952 189.077296 
L 674.884069 188.665307 
L 675.000535 188.665307 
L 675.191116 187.841329 
L 685.429531 187.841329 
L 685.53188 187.42934 
L 685.733048 187.42934 
L 685.860102 187.017351 
L 685.994215 186.605362 
L 686.107151 186.193373 
L 688.912922 186.193373 
L 688.955273 185.781384 
L 689.142324 185.781384 
L 689.294083 185.369395 
L 689.495251 184.545416 
L 690.014054 184.545416 
L 690.042289 184.133427 
L 692.925703 184.133427 
L 692.932762 183.721438 
L 693.186869 183.721438 
L 693.296276 182.89746 
L 693.402155 182.89746 
L 693.405684 182.485471 
L 696.020874 182.485471 
L 696.13381 182.073482 
L 696.239689 181.661493 
L 709.036826 181.661493 
L 709.082706 181.249504 
L 709.287404 181.249504 
L 709.336814 180.837514 
L 710.868517 180.837514 
L 710.896752 180.425525 
L 711.154388 180.425525 
L 711.239091 179.601547 
L 712.957846 179.601547 
L 713.070783 179.189558 
L 714.175444 179.189558 
L 714.182503 178.777569 
L 715.001294 178.777569 
L 715.064821 178.36558 
L 717.383552 178.36558 
L 717.503547 177.953591 
L 718.272928 177.953591 
L 718.279987 177.541602 
L 718.597621 177.541602 
L 718.60115 177.129613 
L 720.531662 177.129613 
L 720.570484 176.717623 
L 720.739889 176.717623 
L 720.859884 175.893645 
L 721.79867 175.893645 
L 721.805729 175.481656 
L 722.663342 175.481656 
L 722.860981 175.069667 
L 724.427977 175.069667 
L 724.551502 174.657678 
L 724.745612 173.8337 
L 726.118498 173.8337 
L 726.220847 173.421711 
L 726.584362 173.421711 
L 726.714945 173.009722 
L 726.774942 173.009722 
L 726.838469 172.597732 
L 727.80549 172.597732 
L 727.893721 172.185743 
L 736.688665 172.185743 
L 736.709841 171.773754 
L 736.900421 171.773754 
L 736.974536 171.361765 
L 742.169623 171.361765 
L 742.169623 171.361765 
L 742.197857 170.949776 
L 742.388438 170.949776 
L 742.547255 170.125798 
L 742.646075 170.125798 
L 742.854302 169.713809 
L 742.868419 169.713809 
L 743.076646 169.30182 
L 743.10488 169.30182 
L 743.15076 168.889831 
L 743.267226 168.889831 
L 743.320165 168.477841 
L 757.006679 168.477841 
L 757.119616 167.653863 
L 757.239611 167.653863 
L 757.331372 167.241874 
L 757.370194 167.241874 
L 757.476072 166.417896 
L 757.571362 166.417896 
L 757.698416 166.005907 
L 758.107812 164.76994 
L 759.579518 164.76994 
L 759.600693 164.35795 
L 759.766569 164.35795 
L 759.890093 163.945961 
L 761.735902 163.945961 
L 761.735902 163.945961 
L 761.774724 163.533972 
L 761.951188 163.533972 
L 762.046478 162.709994 
L 762.131181 162.709994 
L 762.226471 161.886016 
L 762.32882 161.886016 
L 762.353525 161.474027 
L 774.501276 161.474027 
L 774.81891 160.650049 
L 775.073018 160.650049 
L 775.097723 160.238059 
L 775.263598 160.238059 
L 775.362418 159.82607 
L 777.010588 159.82607 
L 777.010588 159.82607 
L 777.165876 159.002092 
L 777.988196 159.002092 
L 778.11172 158.178114 
L 779.234029 158.178114 
L 779.255204 157.766125 
L 779.636365 157.766125 
L 779.636365 157.766125 
L 779.731656 157.354136 
L 780.423393 157.354136 
L 780.426922 156.942147 
L 782.064504 156.942147 
L 782.177441 156.530158 
L 782.283319 156.118168 
L 782.428019 156.118168 
L 782.537426 155.706179 
L 783.204459 155.706179 
L 783.313866 155.29419 
L 783.335042 155.29419 
L 783.44092 154.882201 
L 784.033837 154.882201 
L 784.132657 154.470212 
L 786.387861 154.470212 
L 786.521973 154.058223 
L 786.521973 154.058223 
L 786.624322 153.646234 
L 786.765493 153.646234 
L 786.910193 152.822256 
L 787.277237 152.822256 
L 787.277237 152.822256 
L 787.354881 152.410267 
L 787.626635 151.586288 
L 788.696004 151.586288 
L 788.844234 151.174299 
L 790.718277 151.174299 
L 790.820626 150.76231 
L 792.722903 150.76231 
L 792.878191 149.938332 
L 793.012303 149.938332 
L 793.012303 149.938332 
L 793.157003 149.114354 
L 793.495813 149.114354 
L 793.576986 148.290376 
L 793.65463 148.290376 
L 793.749921 147.878386 
L 793.84874 147.466397 
L 795.073397 147.466397 
L 795.154571 147.054408 
L 795.235744 147.054408 
L 795.260449 146.642419 
L 797.134492 146.642419 
L 797.180372 146.23043 
L 797.833287 146.23043 
L 797.836817 145.818441 
L 797.977987 145.818441 
L 798.023868 145.406452 
L 799.022652 145.406452 
L 799.072062 144.994463 
L 799.269701 144.994463 
L 799.354403 144.582474 
L 799.477928 143.758495 
L 799.61204 143.758495 
L 799.679096 142.934517 
L 799.799091 142.934517 
L 799.975555 142.110539 
L 800.642587 142.110539 
L 800.766112 141.69855 
L 800.87199 141.286561 
L 802.876616 141.286561 
L 803.021316 140.462583 
L 803.077784 140.462583 
L 803.24366 139.638604 
L 803.861282 139.638604 
L 803.960102 139.226615 
L 804.620076 139.226615 
L 804.662427 138.814626 
L 805.590625 138.814626 
L 805.601213 138.402637 
L 806.712934 138.402637 
L 806.868221 137.990648 
L 806.949395 137.990648 
L 806.981158 137.578659 
L 807.245853 137.578659 
L 807.252912 137.16667 
L 810.60572 137.16667 
L 812.846807 136.754681 
L 813.972644 136.754681 
L 814.096169 136.342692 
L 814.374981 135.518713 
L 814.480859 135.518713 
L 814.650264 135.106724 
L 814.773789 135.106724 
L 814.773789 135.106724 
L 814.851433 134.694735 
L 814.974957 134.694735 
L 815.01025 134.282746 
L 815.476114 134.282746 
L 815.550228 133.870757 
L 815.814924 133.870757 
L 815.818453 133.458768 
L 816.005504 133.458768 
L 816.136087 133.046779 
L 816.167851 133.046779 
L 816.213731 132.63479 
L 816.407841 132.63479 
L 816.425488 132.222801 
L 818.066599 132.222801 
L 818.073657 131.810811 
L 818.285414 131.810811 
L 818.458348 130.986833 
L 818.694809 130.986833 
L 818.733631 130.574844 
L 820.597086 130.574844 
L 820.699435 129.750866 
L 820.777079 129.750866 
L 820.780608 129.338877 
L 820.978247 129.338877 
L 820.978247 129.338877 
L 821.087655 128.514899 
L 821.15824 128.514899 
L 821.260589 128.10291 
L 825.365131 128.10291 
L 825.629827 127.278931 
L 825.693354 127.278931 
L 825.834524 126.866942 
L 825.876876 126.866942 
L 825.898051 126.454953 
L 834.975337 126.454953 
L 835.148271 125.630975 
L 835.292971 125.630975 
L 835.303559 125.218986 
L 835.472964 125.218986 
L 835.525903 124.806997 
L 836.761148 124.806997 
L 836.803499 124.395008 
L 845.630206 124.395008 
L 845.633736 123.983019 
L 845.75726 123.983019 
L 845.760789 123.571029 
L 845.877255 123.571029 
L 845.993721 122.747051 
L 846.276063 122.747051 
L 846.396058 122.335062 
L 846.413704 122.335062 
L 846.413704 122.335062 
L 846.512524 121.923073 
L 846.636049 121.923073 
L 846.636049 121.923073 
L 846.664283 121.511084 
L 846.840746 121.511084 
L 846.988976 120.687106 
L 847.154851 120.687106 
L 847.158381 120.275117 
L 847.285434 120.275117 
L 847.285434 120.275117 
L 847.394842 119.451138 
L 847.64542 119.451138 
L 847.716006 118.62716 
L 851.111164 118.62716 
L 851.199396 118.215171 
L 851.418211 117.803182 
L 851.446445 117.803182 
L 851.591145 116.979204 
L 854.601613 116.979204 
L 854.707492 116.567215 
L 854.742784 116.567215 
L 854.845133 116.155226 
L 864.847088 116.155226 
L 864.871792 115.743237 
L 875.639599 115.743237 
L 875.865472 115.331247 
L 876.197224 115.331247 
L 876.232516 114.919258 
L 876.574856 114.919258 
L 876.666617 114.507269 
L 877.42541 114.507269 
L 877.47482 114.09528 
L 877.679517 114.09528 
L 877.686576 113.683291 
L 877.799513 113.683291 
L 877.884215 113.271302 
L 877.986564 113.271302 
L 878.078325 112.859313 
L 878.124206 112.447324 
L 881.515835 112.447324 
L 881.632301 112.035335 
L 881.692299 111.623346 
L 881.822882 111.623346 
L 881.83347 111.211356 
L 900.42567 111.211356 
L 900.432728 110.799367 
L 900.563311 110.799367 
L 900.686836 110.387378 
L 900.736246 110.387378 
L 900.845653 109.975389 
L 900.884475 109.975389 
L 900.891534 109.5634 
L 901.039763 109.5634 
L 901.039763 109.5634 
L 901.092702 109.151411 
L 901.742088 109.151411 
L 901.840908 108.739422 
L 901.862083 108.739422 
L 901.869142 108.327433 
L 901.985608 108.327433 
L 902.080898 107.915444 
L 904.159639 107.915444 
L 904.272575 107.503455 
L 904.332573 107.503455 
L 904.332573 107.503455 
L 904.452568 106.679476 
L 904.671383 106.679476 
L 904.78079 106.267487 
L 904.9749 105.443509 
L 907.925371 105.443509 
L 908.02772 104.619531 
L 908.087717 104.619531 
L 908.087717 104.619531 
L 908.253593 103.383564 
L 909.841765 103.383564 
L 909.940585 102.971574 
L 911.292296 102.971574 
L 911.299354 102.559585 
L 935.976018 102.559585 
L 936.085425 102.147596 
L 936.11013 101.735607 
L 936.265418 101.735607 
L 936.378355 100.911629 
L 936.508938 100.911629 
L 936.628933 100.49964 
L 936.727753 99.675662 
L 936.826572 99.675662 
L 936.830102 99.263673 
L 936.946567 99.263673 
L 937.048916 98.851683 
L 937.147736 98.027705 
L 937.243026 98.027705 
L 937.355963 97.615716 
L 939.311179 97.615716 
L 939.466467 97.203727 
L 939.477055 97.203727 
L 939.586462 96.791738 
L 956.135215 96.791738 
L 956.15639 96.379749 
L 956.318737 96.379749 
L 956.438732 95.555771 
L 956.590491 95.555771 
L 956.703427 94.731792 
L 956.78813 94.731792 
L 956.78813 94.731792 
L 956.879891 93.907814 
L 956.989298 93.907814 
L 957.081059 93.495825 
L 957.582216 93.495825 
L 957.589274 93.083836 
L 958.948044 93.083836 
L 959.050393 92.671847 
L 960.151525 92.671847 
L 960.17623 92.259858 
L 960.596213 92.259858 
L 960.620918 91.847869 
L 977.836703 91.847869 
L 977.967286 91.43588 
L 977.981403 91.43588 
L 978.104927 91.02389 
L 978.164925 91.02389 
L 978.295508 90.611901 
L 978.669611 89.375934 
L 978.747255 89.375934 
L 978.842545 88.551956 
L 978.923718 88.551956 
L 978.927248 88.139967 
L 983.839993 88.139967 
L 983.857639 87.727978 
L 983.977635 87.727978 
L 983.995281 87.315989 
L 985.989319 87.315989 
L 986.084609 86.903999 
L 986.151666 86.903999 
L 986.158724 86.49201 
L 988.304521 86.49201 
L 988.392753 85.668032 
L 988.466867 85.668032 
L 988.484514 85.256043 
L 989.215073 85.256043 
L 989.222131 84.844054 
L 989.444476 84.844054 
L 989.465651 84.432065 
L 992.451415 84.432065 
L 992.536117 84.020076 
L 992.719639 82.784108 
L 992.829047 82.784108 
L 992.924337 81.96013 
L 992.984334 81.96013 
L 992.987864 81.548141 
L 1008.280196 81.548141 
L 1008.375486 80.724163 
L 1008.442542 80.724163 
L 1008.506069 79.900185 
L 1008.590771 79.900185 
L 1008.74253 79.076207 
L 1008.968403 78.664217 
L 1009.875426 78.664217 
L 1010.373053 76.604272 
L 1012.684726 76.604272 
L 1012.804721 75.780294 
L 1030.493428 75.780294 
L 1030.645187 75.368305 
L 1030.708714 75.368305 
L 1030.856943 74.956316 
L 1030.860472 74.956316 
L 1030.983997 74.132337 
L 1031.100463 74.132337 
L 1031.216929 73.720348 
L 1031.294573 73.720348 
L 1031.418097 72.89637 
L 1031.545151 72.89637 
L 1031.636912 72.072392 
L 1031.711027 72.072392 
L 1031.827493 71.248414 
L 1031.954546 71.248414 
L 1032.088659 70.836425 
L 1032.875686 70.836425 
L 1032.928625 70.424435 
L 1036.306138 70.424435 
L 1036.404957 69.600457 
L 1036.493189 69.600457 
L 1036.574362 68.776479 
L 1047.832737 68.776479 
L 1047.857442 68.36449 
L 1049.371499 68.36449 
L 1049.565609 67.952501 
L 1049.770307 67.952501 
L 1049.791483 67.540512 
L 1049.943241 67.540512 
L 1050.049119 67.128523 
L 1050.073824 67.128523 
L 1050.193819 66.304544 
L 1050.373812 66.304544 
L 1050.419693 65.892555 
L 1052.336087 65.892555 
L 1052.42079 65.068577 
L 1054.810106 65.068577 
L 1054.859516 64.656588 
L 1056.5818 64.656588 
L 1056.705325 63.83261 
L 1056.839437 63.83261 
L 1056.97002 63.420621 
L 1058.392316 63.420621 
L 1058.491136 62.596643 
L 1058.692304 62.596643 
L 1058.791124 61.772664 
L 1058.893473 61.772664 
L 1058.897002 61.360675 
L 1062.270985 61.360675 
L 1062.380393 60.536697 
L 1062.44392 60.536697 
L 1062.447449 60.124708 
L 1065.115578 60.124708 
L 1065.119107 59.712719 
L 1065.426154 59.712719 
L 1065.479093 58.888741 
L 1065.553207 58.888741 
L 1065.627322 58.064762 
L 1067.194319 58.064762 
L 1067.201377 57.652773 
L 1068.514266 57.652773 
L 1068.517795 57.240784 
L 1072.710569 57.240784 
L 1072.798801 56.416806 
L 1072.862328 56.416806 
L 1072.964677 56.004817 
L 1073.059967 56.004817 
L 1073.179962 55.180839 
L 1076.765702 55.180839 
L 1076.853934 54.76885 
L 1093.596796 54.76885 
L 1093.709733 54.356861 
L 1093.745025 54.356861 
L 1093.822669 53.532882 
L 1093.903842 53.532882 
L 1093.907372 53.120893 
L 1094.055601 53.120893 
L 1094.225006 52.296915 
L 1094.30265 52.296915 
L 1094.362648 51.472937 
L 1094.464997 51.472937 
L 1094.472055 51.060948 
L 1094.613226 51.060948 
L 1094.613226 51.060948 
L 1094.627343 50.648959 
L 1096.953133 50.648959 
L 1097.059011 50.23697 
L 1097.087245 50.23697 
L 1097.175477 49.82498 
L 1097.309589 49.412991 
L 1105.261037 49.412991 
L 1105.359857 49.001002 
L 1105.395149 49.001002 
L 1105.504557 48.589013 
L 1105.642198 47.765035 
L 1105.744547 47.765035 
L 1105.748076 47.353046 
L 1106.877443 47.353046 
L 1106.962146 46.941057 
L 1107.000968 46.941057 
L 1107.022143 46.529068 
L 1108.25033 46.529068 
L 1108.257388 46.117079 
L 1108.398559 46.117079 
L 1108.398559 45.705089 
L 1108.469144 45.705089 
L 1109.273818 45.705089 
L 1109.376167 44.881111 
L 1109.425577 44.881111 
L 1109.517338 44.057133 
L 1109.891441 44.057133 
L 1109.905558 43.645144 
L 1112.400752 43.645144 
L 1112.481926 42.821166 
L 1114.380674 42.821166 
L 1114.4442 41.997187 
L 1114.4442 41.997187 
" clip-path="url(#p6a4d0ba558)" style="fill: none; stroke: #0000ff; stroke-width: 1.5; stroke-linecap: square"/>
   </g>
   <g id="patch_109">
    <path d="M 49.235 359.517187 
L 49.235 26.877187 
" style="fill: none; stroke: #000000; stroke-width: 0.8; stroke-linejoin: miter; stroke-linecap: square"/>
   </g>
   <g id="patch_110">
    <path d="M 1165.235 359.517187 
L 1165.235 26.877187 
" style="fill: none; stroke: #000000; stroke-width: 0.8; stroke-linejoin: miter; stroke-linecap: square"/>
   </g>
   <g id="patch_111">
    <path d="M 49.235 359.517187 
L 1165.235 359.517187 
" style="fill: none; stroke: #000000; stroke-width: 0.8; stroke-linejoin: miter; stroke-linecap: square"/>
   </g>
   <g id="patch_112">
    <path d="M 49.235 26.877187 
L 1165.235 26.877187 
" style="fill: none; stroke: #000000; stroke-width: 0.8; stroke-linejoin: miter; stroke-linecap: square"/>
   </g>
   <g id="text_18">
    <!-- Pellet Count and Cumulative Sum Over Time of Group 2 Mouse 4 -->
    <g transform="translate(315.460625 20.877187) scale(0.18 -0.18)">
     <defs>
      <path id="DejaVuSans-61" d="M 2194 1759 
Q 1497 1759 1228 1600 
Q 959 1441 959 1056 
Q 959 750 1161 570 
Q 1363 391 1709 391 
Q 2188 391 2477 730 
Q 2766 1069 2766 1631 
L 2766 1759 
L 2194 1759 
z
M 3341 1997 
L 3341 0 
L 2766 0 
L 2766 531 
Q 2569 213 2275 61 
Q 1981 -91 1556 -91 
Q 1019 -91 701 211 
Q 384 513 384 1019 
Q 384 1609 779 1909 
Q 1175 2209 1959 2209 
L 2766 2209 
L 2766 2266 
Q 2766 2663 2505 2880 
Q 2244 3097 1772 3097 
Q 1472 3097 1187 3025 
Q 903 2953 641 2809 
L 641 3341 
Q 956 3463 1253 3523 
Q 1550 3584 1831 3584 
Q 2591 3584 2966 3190 
Q 3341 2797 3341 1997 
z
" transform="scale(0.015625)"/>
      <path id="DejaVuSans-64" d="M 2906 2969 
L 2906 4863 
L 3481 4863 
L 3481 0 
L 2906 0 
L 2906 525 
Q 2725 213 2448 61 
Q 2172 -91 1784 -91 
Q 1150 -91 751 415 
Q 353 922 353 1747 
Q 353 2572 751 3078 
Q 1150 3584 1784 3584 
Q 2172 3584 2448 3432 
Q 2725 3281 2906 2969 
z
M 947 1747 
Q 947 1113 1208 752 
Q 1469 391 1925 391 
Q 2381 391 2643 752 
Q 2906 1113 2906 1747 
Q 2906 2381 2643 2742 
Q 2381 3103 1925 3103 
Q 1469 3103 1208 2742 
Q 947 2381 947 1747 
z
" transform="scale(0.015625)"/>
      <path id="DejaVuSans-76" d="M 191 3500 
L 800 3500 
L 1894 563 
L 2988 3500 
L 3597 3500 
L 2284 0 
L 1503 0 
L 191 3500 
z
" transform="scale(0.015625)"/>
      <path id="DejaVuSans-53" d="M 3425 4513 
L 3425 3897 
Q 3066 4069 2747 4153 
Q 2428 4238 2131 4238 
Q 1616 4238 1336 4038 
Q 1056 3838 1056 3469 
Q 1056 3159 1242 3001 
Q 1428 2844 1947 2747 
L 2328 2669 
Q 3034 2534 3370 2195 
Q 3706 1856 3706 1288 
Q 3706 609 3251 259 
Q 2797 -91 1919 -91 
Q 1588 -91 1214 -16 
Q 841 59 441 206 
L 441 856 
Q 825 641 1194 531 
Q 1563 422 1919 422 
Q 2459 422 2753 634 
Q 3047 847 3047 1241 
Q 3047 1584 2836 1778 
Q 2625 1972 2144 2069 
L 1759 2144 
Q 1053 2284 737 2584 
Q 422 2884 422 3419 
Q 422 4038 858 4394 
Q 1294 4750 2059 4750 
Q 2388 4750 2728 4690 
Q 3069 4631 3425 4513 
z
" transform="scale(0.015625)"/>
      <path id="DejaVuSans-4f" d="M 2522 4238 
Q 1834 4238 1429 3725 
Q 1025 3213 1025 2328 
Q 1025 1447 1429 934 
Q 1834 422 2522 422 
Q 3209 422 3611 934 
Q 4013 1447 4013 2328 
Q 4013 3213 3611 3725 
Q 3209 4238 2522 4238 
z
M 2522 4750 
Q 3503 4750 4090 4092 
Q 4678 3434 4678 2328 
Q 4678 1225 4090 567 
Q 3503 -91 2522 -91 
Q 1538 -91 948 565 
Q 359 1222 359 2328 
Q 359 3434 948 4092 
Q 1538 4750 2522 4750 
z
" transform="scale(0.015625)"/>
      <path id="DejaVuSans-72" d="M 2631 2963 
Q 2534 3019 2420 3045 
Q 2306 3072 2169 3072 
Q 1681 3072 1420 2755 
Q 1159 2438 1159 1844 
L 1159 0 
L 581 0 
L 581 3500 
L 1159 3500 
L 1159 2956 
Q 1341 3275 1631 3429 
Q 1922 3584 2338 3584 
Q 2397 3584 2469 3576 
Q 2541 3569 2628 3553 
L 2631 2963 
z
" transform="scale(0.015625)"/>
      <path id="DejaVuSans-66" d="M 2375 4863 
L 2375 4384 
L 1825 4384 
Q 1516 4384 1395 4259 
Q 1275 4134 1275 3809 
L 1275 3500 
L 2222 3500 
L 2222 3053 
L 1275 3053 
L 1275 0 
L 697 0 
L 697 3053 
L 147 3053 
L 147 3500 
L 697 3500 
L 697 3744 
Q 697 4328 969 4595 
Q 1241 4863 1831 4863 
L 2375 4863 
z
" transform="scale(0.015625)"/>
      <path id="DejaVuSans-47" d="M 3809 666 
L 3809 1919 
L 2778 1919 
L 2778 2438 
L 4434 2438 
L 4434 434 
Q 4069 175 3628 42 
Q 3188 -91 2688 -91 
Q 1594 -91 976 548 
Q 359 1188 359 2328 
Q 359 3472 976 4111 
Q 1594 4750 2688 4750 
Q 3144 4750 3555 4637 
Q 3966 4525 4313 4306 
L 4313 3634 
Q 3963 3931 3569 4081 
Q 3175 4231 2741 4231 
Q 1884 4231 1454 3753 
Q 1025 3275 1025 2328 
Q 1025 1384 1454 906 
Q 1884 428 2741 428 
Q 3075 428 3337 486 
Q 3600 544 3809 666 
z
" transform="scale(0.015625)"/>
      <path id="DejaVuSans-70" d="M 1159 525 
L 1159 -1331 
L 581 -1331 
L 581 3500 
L 1159 3500 
L 1159 2969 
Q 1341 3281 1617 3432 
Q 1894 3584 2278 3584 
Q 2916 3584 3314 3078 
Q 3713 2572 3713 1747 
Q 3713 922 3314 415 
Q 2916 -91 2278 -91 
Q 1894 -91 1617 61 
Q 1341 213 1159 525 
z
M 3116 1747 
Q 3116 2381 2855 2742 
Q 2594 3103 2138 3103 
Q 1681 3103 1420 2742 
Q 1159 2381 1159 1747 
Q 1159 1113 1420 752 
Q 1681 391 2138 391 
Q 2594 391 2855 752 
Q 3116 1113 3116 1747 
z
" transform="scale(0.015625)"/>
      <path id="DejaVuSans-4d" d="M 628 4666 
L 1569 4666 
L 2759 1491 
L 3956 4666 
L 4897 4666 
L 4897 0 
L 4281 0 
L 4281 4097 
L 3078 897 
L 2444 897 
L 1241 4097 
L 1241 0 
L 628 0 
L 628 4666 
z
" transform="scale(0.015625)"/>
      <path id="DejaVuSans-73" d="M 2834 3397 
L 2834 2853 
Q 2591 2978 2328 3040 
Q 2066 3103 1784 3103 
Q 1356 3103 1142 2972 
Q 928 2841 928 2578 
Q 928 2378 1081 2264 
Q 1234 2150 1697 2047 
L 1894 2003 
Q 2506 1872 2764 1633 
Q 3022 1394 3022 966 
Q 3022 478 2636 193 
Q 2250 -91 1575 -91 
Q 1294 -91 989 -36 
Q 684 19 347 128 
L 347 722 
Q 666 556 975 473 
Q 1284 391 1588 391 
Q 1994 391 2212 530 
Q 2431 669 2431 922 
Q 2431 1156 2273 1281 
Q 2116 1406 1581 1522 
L 1381 1569 
Q 847 1681 609 1914 
Q 372 2147 372 2553 
Q 372 3047 722 3315 
Q 1072 3584 1716 3584 
Q 2034 3584 2315 3537 
Q 2597 3491 2834 3397 
z
" transform="scale(0.015625)"/>
     </defs>
     <use xlink:href="#DejaVuSans-50"/>
     <use xlink:href="#DejaVuSans-65" x="56.677734"/>
     <use xlink:href="#DejaVuSans-6c" x="118.201172"/>
     <use xlink:href="#DejaVuSans-6c" x="145.984375"/>
     <use xlink:href="#DejaVuSans-65" x="173.767578"/>
     <use xlink:href="#DejaVuSans-74" x="235.291016"/>
     <use xlink:href="#DejaVuSans-20" x="274.5"/>
     <use xlink:href="#DejaVuSans-43" x="306.287109"/>
     <use xlink:href="#DejaVuSans-6f" x="376.111328"/>
     <use xlink:href="#DejaVuSans-75" x="437.292969"/>
     <use xlink:href="#DejaVuSans-6e" x="500.671875"/>
     <use xlink:href="#DejaVuSans-74" x="564.050781"/>
     <use xlink:href="#DejaVuSans-20" x="603.259766"/>
     <use xlink:href="#DejaVuSans-61" x="635.046875"/>
     <use xlink:href="#DejaVuSans-6e" x="696.326172"/>
     <use xlink:href="#DejaVuSans-64" x="759.705078"/>
     <use xlink:href="#DejaVuSans-20" x="823.181641"/>
     <use xlink:href="#DejaVuSans-43" x="854.96875"/>
     <use xlink:href="#DejaVuSans-75" x="924.792969"/>
     <use xlink:href="#DejaVuSans-6d" x="988.171875"/>
     <use xlink:href="#DejaVuSans-75" x="1085.583984"/>
     <use xlink:href="#DejaVuSans-6c" x="1148.962891"/>
     <use xlink:href="#DejaVuSans-61" x="1176.746094"/>
     <use xlink:href="#DejaVuSans-74" x="1238.025391"/>
     <use xlink:href="#DejaVuSans-69" x="1277.234375"/>
     <use xlink:href="#DejaVuSans-76" x="1305.017578"/>
     <use xlink:href="#DejaVuSans-65" x="1364.197266"/>
     <use xlink:href="#DejaVuSans-20" x="1425.720703"/>
     <use xlink:href="#DejaVuSans-53" x="1457.507812"/>
     <use xlink:href="#DejaVuSans-75" x="1520.984375"/>
     <use xlink:href="#DejaVuSans-6d" x="1584.363281"/>
     <use xlink:href="#DejaVuSans-20" x="1681.775391"/>
     <use xlink:href="#DejaVuSans-4f" x="1713.5625"/>
     <use xlink:href="#DejaVuSans-76" x="1792.273438"/>
     <use xlink:href="#DejaVuSans-65" x="1851.453125"/>
     <use xlink:href="#DejaVuSans-72" x="1912.976562"/>
     <use xlink:href="#DejaVuSans-20" x="1954.089844"/>
     <use xlink:href="#DejaVuSans-54" x="1985.876953"/>
     <use xlink:href="#DejaVuSans-69" x="2043.835938"/>
     <use xlink:href="#DejaVuSans-6d" x="2071.619141"/>
     <use xlink:href="#DejaVuSans-65" x="2169.03125"/>
     <use xlink:href="#DejaVuSans-20" x="2230.554688"/>
     <use xlink:href="#DejaVuSans-6f" x="2262.341797"/>
     <use xlink:href="#DejaVuSans-66" x="2323.523438"/>
     <use xlink:href="#DejaVuSans-20" x="2358.728516"/>
     <use xlink:href="#DejaVuSans-47" x="2390.515625"/>
     <use xlink:href="#DejaVuSans-72" x="2468.005859"/>
     <use xlink:href="#DejaVuSans-6f" x="2506.869141"/>
     <use xlink:href="#DejaVuSans-75" x="2568.050781"/>
     <use xlink:href="#DejaVuSans-70" x="2631.429688"/>
     <use xlink:href="#DejaVuSans-20" x="2694.90625"/>
     <use xlink:href="#DejaVuSans-32" x="2726.693359"/>
     <use xlink:href="#DejaVuSans-20" x="2790.316406"/>
     <use xlink:href="#DejaVuSans-4d" x="2822.103516"/>
     <use xlink:href="#DejaVuSans-6f" x="2908.382812"/>
     <use xlink:href="#DejaVuSans-75" x="2969.564453"/>
     <use xlink:href="#DejaVuSans-73" x="3032.943359"/>
     <use xlink:href="#DejaVuSans-65" x="3085.042969"/>
     <use xlink:href="#DejaVuSans-20" x="3146.566406"/>
     <use xlink:href="#DejaVuSans-34" x="3178.353516"/>
    </g>
   </g>
   <g id="legend_1">
    <g id="patch_113">
     <path d="M 1086.550625 64.233437 
L 1158.235 64.233437 
Q 1160.235 64.233437 1160.235 62.233437 
L 1160.235 33.877187 
Q 1160.235 31.877187 1158.235 31.877187 
L 1086.550625 31.877187 
Q 1084.550625 31.877187 1084.550625 33.877187 
L 1084.550625 62.233437 
Q 1084.550625 64.233437 1086.550625 64.233437 
z
" style="fill: #ffffff; opacity: 0.8; stroke: #cccccc; stroke-linejoin: miter"/>
    </g>
    <g id="patch_114">
     <path d="M 1088.550625 43.475625 
L 1108.550625 43.475625 
L 1108.550625 36.475625 
L 1088.550625 36.475625 
z
" style="fill: #add8e6; opacity: 0.9; stroke: #add8e6; stroke-linejoin: miter"/>
    </g>
    <g id="text_19">
     <!-- Meal -->
     <g transform="translate(1116.550625 43.475625) scale(0.1 -0.1)">
      <use xlink:href="#DejaVuSans-4d"/>
      <use xlink:href="#DejaVuSans-65" x="86.279297"/>
      <use xlink:href="#DejaVuSans-61" x="147.802734"/>
      <use xlink:href="#DejaVuSans-6c" x="209.082031"/>
     </g>
    </g>
    <g id="patch_115">
     <path d="M 1088.550625 58.15375 
L 1108.550625 58.15375 
L 1108.550625 51.15375 
L 1088.550625 51.15375 
z
" style="fill: #808080; opacity: 0.5; stroke: #808080; stroke-linejoin: miter"/>
    </g>
    <g id="text_20">
     <!-- Inactive -->
     <g transform="translate(1116.550625 58.15375) scale(0.1 -0.1)">
      <defs>
       <path id="DejaVuSans-49" d="M 628 4666 
L 1259 4666 
L 1259 0 
L 628 0 
L 628 4666 
z
" transform="scale(0.015625)"/>
       <path id="DejaVuSans-63" d="M 3122 3366 
L 3122 2828 
Q 2878 2963 2633 3030 
Q 2388 3097 2138 3097 
Q 1578 3097 1268 2742 
Q 959 2388 959 1747 
Q 959 1106 1268 751 
Q 1578 397 2138 397 
Q 2388 397 2633 464 
Q 2878 531 3122 666 
L 3122 134 
Q 2881 22 2623 -34 
Q 2366 -91 2075 -91 
Q 1284 -91 818 406 
Q 353 903 353 1747 
Q 353 2603 823 3093 
Q 1294 3584 2113 3584 
Q 2378 3584 2631 3529 
Q 2884 3475 3122 3366 
z
" transform="scale(0.015625)"/>
      </defs>
      <use xlink:href="#DejaVuSans-49"/>
      <use xlink:href="#DejaVuSans-6e" x="29.492188"/>
      <use xlink:href="#DejaVuSans-61" x="92.871094"/>
      <use xlink:href="#DejaVuSans-63" x="154.150391"/>
      <use xlink:href="#DejaVuSans-74" x="209.130859"/>
      <use xlink:href="#DejaVuSans-69" x="248.339844"/>
      <use xlink:href="#DejaVuSans-76" x="276.123047"/>
      <use xlink:href="#DejaVuSans-65" x="335.302734"/>
     </g>
    </g>
   </g>
  </g>
 </g>
 <defs>
  <clipPath id="p6a4d0ba558">
   <rect x="49.235" y="26.877187" width="1116" height="332.64"/>
  </clipPath>
 </defs>
</svg>
