<?xml version="1.0" encoding="utf-8" standalone="no"?>
<!DOCTYPE svg PUBLIC "-//W3C//DTD SVG 1.1//EN"
  "http://www.w3.org/Graphics/SVG/1.1/DTD/svg11.dtd">
<svg xmlns:xlink="http://www.w3.org/1999/xlink" width="1172.435pt" height="399.009062pt" viewBox="0 0 1172.435 399.009062" xmlns="http://www.w3.org/2000/svg" version="1.1">
 <metadata>
  <rdf:RDF xmlns:dc="http://purl.org/dc/elements/1.1/" xmlns:cc="http://creativecommons.org/ns#" xmlns:rdf="http://www.w3.org/1999/02/22-rdf-syntax-ns#">
   <cc:Work>
    <dc:type rdf:resource="http://purl.org/dc/dcmitype/StillImage"/>
    <dc:date>2025-07-29T17:51:09.341694</dc:date>
    <dc:format>image/svg+xml</dc:format>
    <dc:creator>
     <cc:Agent>
      <dc:title>Matplotlib v3.8.4, https://matplotlib.org/</dc:title>
     </cc:Agent>
    </dc:creator>
   </cc:Work>
  </rdf:RDF>
 </metadata>
 <defs>
  <style type="text/css">*{stroke-linejoin: round; stroke-linecap: butt}</style>
 </defs>
 <g id="figure_1">
  <g id="patch_1">
   <path d="M 0 399.009062 
L 1172.435 399.009062 
L 1172.435 0 
L 0 0 
z
" style="fill: #ffffff"/>
  </g>
  <g id="axes_1">
   <g id="patch_2">
    <path d="M 49.235 359.517187 
L 1165.235 359.517187 
L 1165.235 26.877187 
L 49.235 26.877187 
z
" style="fill: #ffffff"/>
   </g>
   <g id="patch_3">
    <path d="M 106.317618 359.517187 
L 106.317618 26.877187 
L 102.192883 26.877187 
L 102.192883 359.517187 
z
" clip-path="url(#p1c1d67cd32)" style="fill: #add8e6; stroke: #add8e6; stroke-linejoin: miter"/>
   </g>
   <g id="patch_4">
    <path d="M 105.326392 359.517187 
L 105.326392 26.877187 
L 105.062112 26.877187 
L 105.062112 359.517187 
z
" clip-path="url(#p1c1d67cd32)" style="fill: #add8e6; stroke: #add8e6; stroke-linejoin: miter"/>
   </g>
   <g id="patch_5">
    <path d="M 111.335439 359.517187 
L 111.335439 26.877187 
L 106.743832 26.877187 
L 106.743832 359.517187 
z
" clip-path="url(#p1c1d67cd32)" style="fill: #add8e6; stroke: #add8e6; stroke-linejoin: miter"/>
   </g>
   <g id="patch_6">
    <path d="M 110.957595 359.517187 
L 110.957595 26.877187 
L 111.247112 26.877187 
L 111.247112 359.517187 
z
" clip-path="url(#p1c1d67cd32)" style="fill: #add8e6; stroke: #add8e6; stroke-linejoin: miter"/>
   </g>
   <g id="patch_7">
    <path d="M 114.802628 359.517187 
L 114.802628 26.877187 
L 114.811741 26.877187 
L 114.811741 359.517187 
z
" clip-path="url(#p1c1d67cd32)" style="fill: #add8e6; stroke: #add8e6; stroke-linejoin: miter"/>
   </g>
   <g id="patch_8">
    <path d="M 120.731761 359.517187 
L 120.731761 26.877187 
L 121.005855 26.877187 
L 121.005855 359.517187 
z
" clip-path="url(#p1c1d67cd32)" style="fill: #add8e6; stroke: #add8e6; stroke-linejoin: miter"/>
   </g>
   <g id="patch_9">
    <path d="M 137.581207 359.517187 
L 137.581207 26.877187 
L 137.428387 26.877187 
L 137.428387 359.517187 
z
" clip-path="url(#p1c1d67cd32)" style="fill: #add8e6; stroke: #add8e6; stroke-linejoin: miter"/>
   </g>
   <g id="patch_10">
    <path d="M 139.444489 359.517187 
L 139.444489 26.877187 
L 139.499167 26.877187 
L 139.499167 359.517187 
z
" clip-path="url(#p1c1d67cd32)" style="fill: #add8e6; stroke: #add8e6; stroke-linejoin: miter"/>
   </g>
   <g id="patch_11">
    <path d="M 139.817425 359.517187 
L 139.817425 26.877187 
L 139.739613 26.877187 
L 139.739613 359.517187 
z
" clip-path="url(#p1c1d67cd32)" style="fill: #add8e6; stroke: #add8e6; stroke-linejoin: miter"/>
   </g>
   <g id="patch_12">
    <path d="M 152.436985 359.517187 
L 152.436985 26.877187 
L 144.896234 26.877187 
L 144.896234 359.517187 
z
" clip-path="url(#p1c1d67cd32)" style="fill: #add8e6; stroke: #add8e6; stroke-linejoin: miter"/>
   </g>
   <g id="patch_13">
    <path d="M 152.446098 359.517187 
L 152.446098 26.877187 
L 148.326971 26.877187 
L 148.326971 359.517187 
z
" clip-path="url(#p1c1d67cd32)" style="fill: #add8e6; stroke: #add8e6; stroke-linejoin: miter"/>
   </g>
   <g id="patch_14">
    <path d="M 158.764991 359.517187 
L 158.764991 26.877187 
L 159.148443 26.877187 
L 159.148443 359.517187 
z
" clip-path="url(#p1c1d67cd32)" style="fill: #add8e6; stroke: #add8e6; stroke-linejoin: miter"/>
   </g>
   <g id="patch_15">
    <path d="M 167.788376 359.517187 
L 167.788376 26.877187 
L 167.904744 26.877187 
L 167.904744 359.517187 
z
" clip-path="url(#p1c1d67cd32)" style="fill: #add8e6; stroke: #add8e6; stroke-linejoin: miter"/>
   </g>
   <g id="patch_16">
    <path d="M 168.342874 359.517187 
L 168.342874 26.877187 
L 168.307123 26.877187 
L 168.307123 359.517187 
z
" clip-path="url(#p1c1d67cd32)" style="fill: #add8e6; stroke: #add8e6; stroke-linejoin: miter"/>
   </g>
   <g id="patch_17">
    <path d="M 186.807445 359.517187 
L 186.807445 26.877187 
L 175.842967 26.877187 
L 175.842967 359.517187 
z
" clip-path="url(#p1c1d67cd32)" style="fill: #add8e6; stroke: #add8e6; stroke-linejoin: miter"/>
   </g>
   <g id="patch_18">
    <path d="M 180.199035 359.517187 
L 180.199035 26.877187 
L 180.165387 26.877187 
L 180.165387 359.517187 
z
" clip-path="url(#p1c1d67cd32)" style="fill: #add8e6; stroke: #add8e6; stroke-linejoin: miter"/>
   </g>
   <g id="patch_19">
    <path d="M 182.552322 359.517187 
L 182.552322 26.877187 
L 182.667988 26.877187 
L 182.667988 359.517187 
z
" clip-path="url(#p1c1d67cd32)" style="fill: #add8e6; stroke: #add8e6; stroke-linejoin: miter"/>
   </g>
   <g id="patch_20">
    <path d="M 186.834083 359.517187 
L 186.834083 26.877187 
L 187.189495 26.877187 
L 187.189495 359.517187 
z
" clip-path="url(#p1c1d67cd32)" style="fill: #add8e6; stroke: #add8e6; stroke-linejoin: miter"/>
   </g>
   <g id="patch_21">
    <path d="M 209.499099 359.517187 
L 209.499099 26.877187 
L 198.341142 26.877187 
L 198.341142 359.517187 
z
" clip-path="url(#p1c1d67cd32)" style="fill: #add8e6; stroke: #add8e6; stroke-linejoin: miter"/>
   </g>
   <g id="patch_22">
    <path d="M 218.833031 359.517187 
L 218.833031 26.877187 
L 208.078154 26.877187 
L 208.078154 359.517187 
z
" clip-path="url(#p1c1d67cd32)" style="fill: #add8e6; stroke: #add8e6; stroke-linejoin: miter"/>
   </g>
   <g id="patch_23">
    <path d="M 217.666552 359.517187 
L 217.666552 26.877187 
L 211.715688 26.877187 
L 211.715688 359.517187 
z
" clip-path="url(#p1c1d67cd32)" style="fill: #add8e6; stroke: #add8e6; stroke-linejoin: miter"/>
   </g>
   <g id="patch_24">
    <path d="M 212.296124 359.517187 
L 212.296124 26.877187 
L 212.404079 26.877187 
L 212.404079 359.517187 
z
" clip-path="url(#p1c1d67cd32)" style="fill: #add8e6; stroke: #add8e6; stroke-linejoin: miter"/>
   </g>
   <g id="patch_25">
    <path d="M 213.707955 359.517187 
L 213.707955 26.877187 
L 213.654679 26.877187 
L 213.654679 359.517187 
z
" clip-path="url(#p1c1d67cd32)" style="fill: #add8e6; stroke: #add8e6; stroke-linejoin: miter"/>
   </g>
   <g id="patch_26">
    <path d="M 216.417354 359.517187 
L 216.417354 26.877187 
L 216.534423 26.877187 
L 216.534423 359.517187 
z
" clip-path="url(#p1c1d67cd32)" style="fill: #add8e6; stroke: #add8e6; stroke-linejoin: miter"/>
   </g>
   <g id="patch_27">
    <path d="M 231.402118 359.517187 
L 231.402118 26.877187 
L 221.7303 26.877187 
L 221.7303 359.517187 
z
" clip-path="url(#p1c1d67cd32)" style="fill: #add8e6; stroke: #add8e6; stroke-linejoin: miter"/>
   </g>
   <g id="patch_28">
    <path d="M 241.643856 359.517187 
L 241.643856 26.877187 
L 230.668162 26.877187 
L 230.668162 359.517187 
z
" clip-path="url(#p1c1d67cd32)" style="fill: #add8e6; stroke: #add8e6; stroke-linejoin: miter"/>
   </g>
   <g id="patch_29">
    <path d="M 230.941555 359.517187 
L 230.941555 26.877187 
L 230.9037 26.877187 
L 230.9037 359.517187 
z
" clip-path="url(#p1c1d67cd32)" style="fill: #add8e6; stroke: #add8e6; stroke-linejoin: miter"/>
   </g>
   <g id="patch_30">
    <path d="M 280.589099 359.517187 
L 280.589099 26.877187 
L 281.026528 26.877187 
L 281.026528 359.517187 
z
" clip-path="url(#p1c1d67cd32)" style="fill: #add8e6; stroke: #add8e6; stroke-linejoin: miter"/>
   </g>
   <g id="patch_31">
    <path d="M 281.398764 359.517187 
L 281.398764 26.877187 
L 281.496204 26.877187 
L 281.496204 359.517187 
z
" clip-path="url(#p1c1d67cd32)" style="fill: #add8e6; stroke: #add8e6; stroke-linejoin: miter"/>
   </g>
   <g id="patch_32">
    <path d="M 301.908178 359.517187 
L 301.908178 26.877187 
L 297.81709 26.877187 
L 297.81709 359.517187 
z
" clip-path="url(#p1c1d67cd32)" style="fill: #add8e6; stroke: #add8e6; stroke-linejoin: miter"/>
   </g>
   <g id="patch_33">
    <path d="M 298.1017 359.517187 
L 298.1017 26.877187 
L 298.126235 26.877187 
L 298.126235 359.517187 
z
" clip-path="url(#p1c1d67cd32)" style="fill: #add8e6; stroke: #add8e6; stroke-linejoin: miter"/>
   </g>
   <g id="patch_34">
    <path d="M 298.709475 359.517187 
L 298.709475 26.877187 
L 298.8658 26.877187 
L 298.8658 359.517187 
z
" clip-path="url(#p1c1d67cd32)" style="fill: #add8e6; stroke: #add8e6; stroke-linejoin: miter"/>
   </g>
   <g id="patch_35">
    <path d="M 314.318837 359.517187 
L 314.318837 26.877187 
L 314.488481 26.877187 
L 314.488481 359.517187 
z
" clip-path="url(#p1c1d67cd32)" style="fill: #add8e6; stroke: #add8e6; stroke-linejoin: miter"/>
   </g>
   <g id="patch_36">
    <path d="M 335.465467 359.517187 
L 335.465467 26.877187 
L 330.174253 26.877187 
L 330.174253 359.517187 
z
" clip-path="url(#p1c1d67cd32)" style="fill: #add8e6; stroke: #add8e6; stroke-linejoin: miter"/>
   </g>
   <g id="patch_37">
    <path d="M 330.472883 359.517187 
L 330.472883 26.877187 
L 330.403483 26.877187 
L 330.403483 359.517187 
z
" clip-path="url(#p1c1d67cd32)" style="fill: #add8e6; stroke: #add8e6; stroke-linejoin: miter"/>
   </g>
   <g id="patch_38">
    <path d="M 347.288681 359.517187 
L 347.288681 26.877187 
L 344.651486 26.877187 
L 344.651486 359.517187 
z
" clip-path="url(#p1c1d67cd32)" style="fill: #add8e6; stroke: #add8e6; stroke-linejoin: miter"/>
   </g>
   <g id="patch_39">
    <path d="M 370.013282 359.517187 
L 370.013282 26.877187 
L 370.087589 26.877187 
L 370.087589 359.517187 
z
" clip-path="url(#p1c1d67cd32)" style="fill: #add8e6; stroke: #add8e6; stroke-linejoin: miter"/>
   </g>
   <g id="patch_40">
    <path d="M 370.341355 359.517187 
L 370.341355 26.877187 
L 370.698168 26.877187 
L 370.698168 359.517187 
z
" clip-path="url(#p1c1d67cd32)" style="fill: #add8e6; stroke: #add8e6; stroke-linejoin: miter"/>
   </g>
   <g id="patch_41">
    <path d="M 389.005012 359.517187 
L 389.005012 26.877187 
L 389.244056 26.877187 
L 389.244056 359.517187 
z
" clip-path="url(#p1c1d67cd32)" style="fill: #add8e6; stroke: #add8e6; stroke-linejoin: miter"/>
   </g>
   <g id="patch_42">
    <path d="M 391.711607 359.517187 
L 391.711607 26.877187 
L 391.844097 26.877187 
L 391.844097 359.517187 
z
" clip-path="url(#p1c1d67cd32)" style="fill: #add8e6; stroke: #add8e6; stroke-linejoin: miter"/>
   </g>
   <g id="patch_43">
    <path d="M 396.150394 359.517187 
L 396.150394 26.877187 
L 396.544361 26.877187 
L 396.544361 359.517187 
z
" clip-path="url(#p1c1d67cd32)" style="fill: #add8e6; stroke: #add8e6; stroke-linejoin: miter"/>
   </g>
   <g id="patch_44">
    <path d="M 403.113514 359.517187 
L 403.113514 26.877187 
L 403.560057 26.877187 
L 403.560057 359.517187 
z
" clip-path="url(#p1c1d67cd32)" style="fill: #add8e6; stroke: #add8e6; stroke-linejoin: miter"/>
   </g>
   <g id="patch_45">
    <path d="M 407.80116 359.517187 
L 407.80116 26.877187 
L 407.954681 26.877187 
L 407.954681 359.517187 
z
" clip-path="url(#p1c1d67cd32)" style="fill: #add8e6; stroke: #add8e6; stroke-linejoin: miter"/>
   </g>
   <g id="patch_46">
    <path d="M 409.764686 359.517187 
L 409.764686 26.877187 
L 410.063315 26.877187 
L 410.063315 359.517187 
z
" clip-path="url(#p1c1d67cd32)" style="fill: #add8e6; stroke: #add8e6; stroke-linejoin: miter"/>
   </g>
   <g id="patch_47">
    <path d="M 415.736579 359.517187 
L 415.736579 26.877187 
L 416.198544 26.877187 
L 416.198544 359.517187 
z
" clip-path="url(#p1c1d67cd32)" style="fill: #add8e6; stroke: #add8e6; stroke-linejoin: miter"/>
   </g>
   <g id="patch_48">
    <path d="M 424.896661 359.517187 
L 424.896661 26.877187 
L 425.321472 26.877187 
L 425.321472 359.517187 
z
" clip-path="url(#p1c1d67cd32)" style="fill: #add8e6; stroke: #add8e6; stroke-linejoin: miter"/>
   </g>
   <g id="patch_49">
    <path d="M 431.828236 359.517187 
L 431.828236 26.877187 
L 431.733599 26.877187 
L 431.733599 359.517187 
z
" clip-path="url(#p1c1d67cd32)" style="fill: #add8e6; stroke: #add8e6; stroke-linejoin: miter"/>
   </g>
   <g id="patch_50">
    <path d="M 433.031167 359.517187 
L 433.031167 26.877187 
L 432.934427 26.877187 
L 432.934427 359.517187 
z
" clip-path="url(#p1c1d67cd32)" style="fill: #add8e6; stroke: #add8e6; stroke-linejoin: miter"/>
   </g>
   <g id="patch_51">
    <path d="M 451.904426 359.517187 
L 451.904426 26.877187 
L 446.36926 26.877187 
L 446.36926 359.517187 
z
" clip-path="url(#p1c1d67cd32)" style="fill: #add8e6; stroke: #add8e6; stroke-linejoin: miter"/>
   </g>
   <g id="patch_52">
    <path d="M 454.521992 359.517187 
L 454.521992 26.877187 
L 454.587186 26.877187 
L 454.587186 359.517187 
z
" clip-path="url(#p1c1d67cd32)" style="fill: #add8e6; stroke: #add8e6; stroke-linejoin: miter"/>
   </g>
   <g id="patch_53">
    <path d="M 464.49244 359.517187 
L 464.49244 26.877187 
L 464.370465 26.877187 
L 464.370465 359.517187 
z
" clip-path="url(#p1c1d67cd32)" style="fill: #add8e6; stroke: #add8e6; stroke-linejoin: miter"/>
   </g>
   <g id="patch_54">
    <path d="M 469.76683 359.517187 
L 469.76683 26.877187 
L 464.917952 26.877187 
L 464.917952 359.517187 
z
" clip-path="url(#p1c1d67cd32)" style="fill: #add8e6; stroke: #add8e6; stroke-linejoin: miter"/>
   </g>
   <g id="patch_55">
    <path d="M 483.649608 359.517187 
L 483.649608 26.877187 
L 479.984033 26.877187 
L 479.984033 359.517187 
z
" clip-path="url(#p1c1d67cd32)" style="fill: #add8e6; stroke: #add8e6; stroke-linejoin: miter"/>
   </g>
   <g id="patch_56">
    <path d="M 485.56196 359.517187 
L 485.56196 26.877187 
L 480.666114 26.877187 
L 480.666114 359.517187 
z
" clip-path="url(#p1c1d67cd32)" style="fill: #add8e6; stroke: #add8e6; stroke-linejoin: miter"/>
   </g>
   <g id="patch_57">
    <path d="M 488.208969 359.517187 
L 488.208969 26.877187 
L 488.095405 26.877187 
L 488.095405 359.517187 
z
" clip-path="url(#p1c1d67cd32)" style="fill: #add8e6; stroke: #add8e6; stroke-linejoin: miter"/>
   </g>
   <g id="patch_58">
    <path d="M 505.72858 359.517187 
L 505.72858 26.877187 
L 505.90944 26.877187 
L 505.90944 359.517187 
z
" clip-path="url(#p1c1d67cd32)" style="fill: #add8e6; stroke: #add8e6; stroke-linejoin: miter"/>
   </g>
   <g id="patch_59">
    <path d="M 514.405666 359.517187 
L 514.405666 26.877187 
L 513.904445 26.877187 
L 513.904445 359.517187 
z
" clip-path="url(#p1c1d67cd32)" style="fill: #add8e6; stroke: #add8e6; stroke-linejoin: miter"/>
   </g>
   <g id="patch_60">
    <path d="M 521.680735 359.517187 
L 521.680735 26.877187 
L 522.592047 26.877187 
L 522.592047 359.517187 
z
" clip-path="url(#p1c1d67cd32)" style="fill: #add8e6; stroke: #add8e6; stroke-linejoin: miter"/>
   </g>
   <g id="patch_61">
    <path d="M 538.005828 359.517187 
L 538.005828 26.877187 
L 532.092819 26.877187 
L 532.092819 359.517187 
z
" clip-path="url(#p1c1d67cd32)" style="fill: #add8e6; stroke: #add8e6; stroke-linejoin: miter"/>
   </g>
   <g id="patch_62">
    <path d="M 544.041513 359.517187 
L 544.041513 26.877187 
L 542.438306 26.877187 
L 542.438306 359.517187 
z
" clip-path="url(#p1c1d67cd32)" style="fill: #add8e6; stroke: #add8e6; stroke-linejoin: miter"/>
   </g>
   <g id="patch_63">
    <path d="M 554.619735 359.517187 
L 554.619735 26.877187 
L 554.855975 26.877187 
L 554.855975 359.517187 
z
" clip-path="url(#p1c1d67cd32)" style="fill: #add8e6; stroke: #add8e6; stroke-linejoin: miter"/>
   </g>
   <g id="patch_64">
    <path d="M 577.46491 359.517187 
L 577.46491 26.877187 
L 577.605112 26.877187 
L 577.605112 359.517187 
z
" clip-path="url(#p1c1d67cd32)" style="fill: #add8e6; stroke: #add8e6; stroke-linejoin: miter"/>
   </g>
   <g id="patch_65">
    <path d="M 608.708871 359.517187 
L 608.708871 26.877187 
L 608.927586 26.877187 
L 608.927586 359.517187 
z
" clip-path="url(#p1c1d67cd32)" style="fill: #add8e6; stroke: #add8e6; stroke-linejoin: miter"/>
   </g>
   <g id="patch_66">
    <path d="M 621.66842 359.517187 
L 621.66842 26.877187 
L 621.782684 26.877187 
L 621.782684 359.517187 
z
" clip-path="url(#p1c1d67cd32)" style="fill: #add8e6; stroke: #add8e6; stroke-linejoin: miter"/>
   </g>
   <g id="patch_67">
    <path d="M 626.425466 359.517187 
L 626.425466 26.877187 
L 626.051127 26.877187 
L 626.051127 359.517187 
z
" clip-path="url(#p1c1d67cd32)" style="fill: #add8e6; stroke: #add8e6; stroke-linejoin: miter"/>
   </g>
   <g id="patch_68">
    <path d="M 637.527341 359.517187 
L 637.527341 26.877187 
L 637.556083 26.877187 
L 637.556083 359.517187 
z
" clip-path="url(#p1c1d67cd32)" style="fill: #add8e6; stroke: #add8e6; stroke-linejoin: miter"/>
   </g>
   <g id="patch_69">
    <path d="M 652.420273 359.517187 
L 652.420273 26.877187 
L 652.450416 26.877187 
L 652.450416 359.517187 
z
" clip-path="url(#p1c1d67cd32)" style="fill: #add8e6; stroke: #add8e6; stroke-linejoin: miter"/>
   </g>
   <g id="patch_70">
    <path d="M 673.589335 359.517187 
L 673.589335 26.877187 
L 672.820329 26.877187 
L 672.820329 359.517187 
z
" clip-path="url(#p1c1d67cd32)" style="fill: #add8e6; stroke: #add8e6; stroke-linejoin: miter"/>
   </g>
   <g id="patch_71">
    <path d="M 684.654759 359.517187 
L 684.654759 26.877187 
L 685.148269 26.877187 
L 685.148269 359.517187 
z
" clip-path="url(#p1c1d67cd32)" style="fill: #add8e6; stroke: #add8e6; stroke-linejoin: miter"/>
   </g>
   <g id="patch_72">
    <path d="M 691.744762 359.517187 
L 691.744762 26.877187 
L 692.245983 26.877187 
L 692.245983 359.517187 
z
" clip-path="url(#p1c1d67cd32)" style="fill: #add8e6; stroke: #add8e6; stroke-linejoin: miter"/>
   </g>
   <g id="patch_73">
    <path d="M 699.138301 359.517187 
L 699.138301 26.877187 
L 699.220319 26.877187 
L 699.220319 359.517187 
z
" clip-path="url(#p1c1d67cd32)" style="fill: #add8e6; stroke: #add8e6; stroke-linejoin: miter"/>
   </g>
   <g id="patch_74">
    <path d="M 702.060807 359.517187 
L 702.060807 26.877187 
L 702.201008 26.877187 
L 702.201008 359.517187 
z
" clip-path="url(#p1c1d67cd32)" style="fill: #add8e6; stroke: #add8e6; stroke-linejoin: miter"/>
   </g>
   <g id="patch_75">
    <path d="M 705.826626 359.517187 
L 705.826626 26.877187 
L 705.665394 26.877187 
L 705.665394 359.517187 
z
" clip-path="url(#p1c1d67cd32)" style="fill: #add8e6; stroke: #add8e6; stroke-linejoin: miter"/>
   </g>
   <g id="patch_76">
    <path d="M 710.130118 359.517187 
L 710.130118 26.877187 
L 710.181993 26.877187 
L 710.181993 359.517187 
z
" clip-path="url(#p1c1d67cd32)" style="fill: #add8e6; stroke: #add8e6; stroke-linejoin: miter"/>
   </g>
   <g id="patch_77">
    <path d="M 711.873527 359.517187 
L 711.873527 26.877187 
L 712.024244 26.877187 
L 712.024244 359.517187 
z
" clip-path="url(#p1c1d67cd32)" style="fill: #add8e6; stroke: #add8e6; stroke-linejoin: miter"/>
   </g>
   <g id="patch_78">
    <path d="M 713.212454 359.517187 
L 713.212454 26.877187 
L 713.352656 26.877187 
L 713.352656 359.517187 
z
" clip-path="url(#p1c1d67cd32)" style="fill: #add8e6; stroke: #add8e6; stroke-linejoin: miter"/>
   </g>
   <g id="patch_79">
    <path d="M 725.760511 359.517187 
L 725.760511 26.877187 
L 716.409054 26.877187 
L 716.409054 359.517187 
z
" clip-path="url(#p1c1d67cd32)" style="fill: #add8e6; stroke: #add8e6; stroke-linejoin: miter"/>
   </g>
   <g id="patch_80">
    <path d="M 725.449263 359.517187 
L 725.449263 26.877187 
L 725.677792 26.877187 
L 725.677792 359.517187 
z
" clip-path="url(#p1c1d67cd32)" style="fill: #add8e6; stroke: #add8e6; stroke-linejoin: miter"/>
   </g>
   <g id="patch_81">
    <path d="M 741.366368 359.517187 
L 741.366368 26.877187 
L 741.607515 26.877187 
L 741.607515 359.517187 
z
" clip-path="url(#p1c1d67cd32)" style="fill: #add8e6; stroke: #add8e6; stroke-linejoin: miter"/>
   </g>
   <g id="patch_82">
    <path d="M 755.25195 359.517187 
L 755.25195 26.877187 
L 751.557634 26.877187 
L 751.557634 359.517187 
z
" clip-path="url(#p1c1d67cd32)" style="fill: #add8e6; stroke: #add8e6; stroke-linejoin: miter"/>
   </g>
   <g id="patch_83">
    <path d="M 762.030004 359.517187 
L 762.030004 26.877187 
L 759.350748 26.877187 
L 759.350748 359.517187 
z
" clip-path="url(#p1c1d67cd32)" style="fill: #add8e6; stroke: #add8e6; stroke-linejoin: miter"/>
   </g>
   <g id="patch_84">
    <path d="M 760.736642 359.517187 
L 760.736642 26.877187 
L 760.892266 26.877187 
L 760.892266 359.517187 
z
" clip-path="url(#p1c1d67cd32)" style="fill: #add8e6; stroke: #add8e6; stroke-linejoin: miter"/>
   </g>
   <g id="patch_85">
    <path d="M 766.755504 359.517187 
L 766.755504 26.877187 
L 767.460018 26.877187 
L 767.460018 359.517187 
z
" clip-path="url(#p1c1d67cd32)" style="fill: #add8e6; stroke: #add8e6; stroke-linejoin: miter"/>
   </g>
   <g id="patch_86">
    <path d="M 778.284294 359.517187 
L 778.284294 26.877187 
L 778.354395 26.877187 
L 778.354395 359.517187 
z
" clip-path="url(#p1c1d67cd32)" style="fill: #add8e6; stroke: #add8e6; stroke-linejoin: miter"/>
   </g>
   <g id="patch_87">
    <path d="M 804.751581 359.517187 
L 804.751581 26.877187 
L 805.108394 26.877187 
L 805.108394 359.517187 
z
" clip-path="url(#p1c1d67cd32)" style="fill: #add8e6; stroke: #add8e6; stroke-linejoin: miter"/>
   </g>
   <g id="patch_88">
    <path d="M 818.949112 359.517187 
L 818.949112 26.877187 
L 819.434911 26.877187 
L 819.434911 359.517187 
z
" clip-path="url(#p1c1d67cd32)" style="fill: #add8e6; stroke: #add8e6; stroke-linejoin: miter"/>
   </g>
   <g id="patch_89">
    <path d="M 824.342673 359.517187 
L 824.342673 26.877187 
L 824.788515 26.877187 
L 824.788515 359.517187 
z
" clip-path="url(#p1c1d67cd32)" style="fill: #add8e6; stroke: #add8e6; stroke-linejoin: miter"/>
   </g>
   <g id="patch_90">
    <path d="M 841.412938 359.517187 
L 841.412938 26.877187 
L 834.72952 26.877187 
L 834.72952 359.517187 
z
" clip-path="url(#p1c1d67cd32)" style="fill: #add8e6; stroke: #add8e6; stroke-linejoin: miter"/>
   </g>
   <g id="patch_91">
    <path d="M 835.213917 359.517187 
L 835.213917 26.877187 
L 835.29944 26.877187 
L 835.29944 359.517187 
z
" clip-path="url(#p1c1d67cd32)" style="fill: #add8e6; stroke: #add8e6; stroke-linejoin: miter"/>
   </g>
   <g id="patch_92">
    <path d="M 845.367328 359.517187 
L 845.367328 26.877187 
L 845.544683 26.877187 
L 845.544683 359.517187 
z
" clip-path="url(#p1c1d67cd32)" style="fill: #add8e6; stroke: #add8e6; stroke-linejoin: miter"/>
   </g>
   <g id="patch_93">
    <path d="M 845.781624 359.517187 
L 845.781624 26.877187 
L 846.132129 26.877187 
L 846.132129 359.517187 
z
" clip-path="url(#p1c1d67cd32)" style="fill: #add8e6; stroke: #add8e6; stroke-linejoin: miter"/>
   </g>
   <g id="patch_94">
    <path d="M 971.110776 359.517187 
L 971.110776 26.877187 
L 971.644243 26.877187 
L 971.644243 359.517187 
z
" clip-path="url(#p1c1d67cd32)" style="fill: #add8e6; stroke: #add8e6; stroke-linejoin: miter"/>
   </g>
   <g id="patch_95">
    <path d="M 978.420895 359.517187 
L 978.420895 26.877187 
L 978.533057 26.877187 
L 978.533057 359.517187 
z
" clip-path="url(#p1c1d67cd32)" style="fill: #add8e6; stroke: #add8e6; stroke-linejoin: miter"/>
   </g>
   <g id="patch_96">
    <path d="M 985.325131 359.517187 
L 985.325131 26.877187 
L 985.726809 26.877187 
L 985.726809 359.517187 
z
" clip-path="url(#p1c1d67cd32)" style="fill: #add8e6; stroke: #add8e6; stroke-linejoin: miter"/>
   </g>
   <g id="patch_97">
    <path d="M 994.696917 359.517187 
L 994.696917 26.877187 
L 995.355164 26.877187 
L 995.355164 359.517187 
z
" clip-path="url(#p1c1d67cd32)" style="fill: #add8e6; stroke: #add8e6; stroke-linejoin: miter"/>
   </g>
   <g id="patch_98">
    <path d="M 1009.395669 359.517187 
L 1009.395669 26.877187 
L 1009.593353 26.877187 
L 1009.593353 359.517187 
z
" clip-path="url(#p1c1d67cd32)" style="fill: #add8e6; stroke: #add8e6; stroke-linejoin: miter"/>
   </g>
   <g id="patch_99">
    <path d="M 1016.377015 359.517187 
L 1016.377015 26.877187 
L 1016.879638 26.877187 
L 1016.879638 359.517187 
z
" clip-path="url(#p1c1d67cd32)" style="fill: #add8e6; stroke: #add8e6; stroke-linejoin: miter"/>
   </g>
   <g id="patch_100">
    <path d="M 1023.856778 359.517187 
L 1023.856778 26.877187 
L 1024.213592 26.877187 
L 1024.213592 359.517187 
z
" clip-path="url(#p1c1d67cd32)" style="fill: #add8e6; stroke: #add8e6; stroke-linejoin: miter"/>
   </g>
   <g id="patch_101">
    <path d="M 1040.352917 359.517187 
L 1040.352917 26.877187 
L 1040.571632 26.877187 
L 1040.571632 359.517187 
z
" clip-path="url(#p1c1d67cd32)" style="fill: #add8e6; stroke: #add8e6; stroke-linejoin: miter"/>
   </g>
   <g id="patch_102">
    <path d="M 1055.44844 359.517187 
L 1055.44844 26.877187 
L 1044.847785 26.877187 
L 1044.847785 359.517187 
z
" clip-path="url(#p1c1d67cd32)" style="fill: #add8e6; stroke: #add8e6; stroke-linejoin: miter"/>
   </g>
   <g id="patch_103">
    <path d="M 1049.925893 359.517187 
L 1049.925893 26.877187 
L 1049.623758 26.877187 
L 1049.623758 359.517187 
z
" clip-path="url(#p1c1d67cd32)" style="fill: #add8e6; stroke: #add8e6; stroke-linejoin: miter"/>
   </g>
   <g id="patch_104">
    <path d="M 1052.815451 359.517187 
L 1052.815451 26.877187 
L 1052.964065 26.877187 
L 1052.964065 359.517187 
z
" clip-path="url(#p1c1d67cd32)" style="fill: #add8e6; stroke: #add8e6; stroke-linejoin: miter"/>
   </g>
   <g id="patch_105">
    <path d="M 1065.160916 359.517187 
L 1065.160916 26.877187 
L 1053.859253 26.877187 
L 1053.859253 359.517187 
z
" clip-path="url(#p1c1d67cd32)" style="fill: #add8e6; stroke: #add8e6; stroke-linejoin: miter"/>
   </g>
   <g id="patch_106">
    <path d="M 1056.270022 359.517187 
L 1056.270022 26.877187 
L 1056.575662 26.877187 
L 1056.575662 359.517187 
z
" clip-path="url(#p1c1d67cd32)" style="fill: #add8e6; stroke: #add8e6; stroke-linejoin: miter"/>
   </g>
   <g id="patch_107">
    <path d="M 1065.571707 359.517187 
L 1065.571707 26.877187 
L 1061.646759 26.877187 
L 1061.646759 359.517187 
z
" clip-path="url(#p1c1d67cd32)" style="fill: #add8e6; stroke: #add8e6; stroke-linejoin: miter"/>
   </g>
   <g id="patch_108">
    <path d="M 1071.448965 359.517187 
L 1071.448965 26.877187 
L 1070.175933 26.877187 
L 1070.175933 359.517187 
z
" clip-path="url(#p1c1d67cd32)" style="fill: #add8e6; stroke: #add8e6; stroke-linejoin: miter"/>
   </g>
   <g id="patch_109">
    <path d="M 1094.938367 359.517187 
L 1094.938367 26.877187 
L 1095.061043 26.877187 
L 1095.061043 359.517187 
z
" clip-path="url(#p1c1d67cd32)" style="fill: #add8e6; stroke: #add8e6; stroke-linejoin: miter"/>
   </g>
   <g id="patch_110">
    <path d="M 1104.268793 359.517187 
L 1104.268793 26.877187 
L 1104.563217 26.877187 
L 1104.563217 359.517187 
z
" clip-path="url(#p1c1d67cd32)" style="fill: #add8e6; stroke: #add8e6; stroke-linejoin: miter"/>
   </g>
   <g id="patch_111">
    <path d="M 1113.986878 359.517187 
L 1113.986878 26.877187 
L 1113.644785 26.877187 
L 1113.644785 359.517187 
z
" clip-path="url(#p1c1d67cd32)" style="fill: #add8e6; stroke: #add8e6; stroke-linejoin: miter"/>
   </g>
   <g id="patch_112">
    <path d="M 226.143851 359.517187 
L 226.143851 26.877187 
L 377.561745 26.877187 
L 377.561745 359.517187 
z
" clip-path="url(#p1c1d67cd32)" style="fill: #808080; opacity: 0.4; stroke: #808080; stroke-linejoin: miter"/>
   </g>
   <g id="patch_113">
    <path d="M 381.767797 26.877187 
L 381.767797 26.877187 
L 381.767797 359.517187 
" clip-path="url(#p1c1d67cd32)" style="fill: #808080; opacity: 0.4; stroke: #808080; stroke-linejoin: miter"/>
   </g>
   <g id="patch_114">
    <path d="M 385.97385 26.877187 
L 385.97385 26.877187 
L 385.97385 359.517187 
" clip-path="url(#p1c1d67cd32)" style="fill: #808080; opacity: 0.4; stroke: #808080; stroke-linejoin: miter"/>
   </g>
   <g id="patch_115">
    <path d="M 528.979639 359.517187 
L 528.979639 26.877187 
L 680.397533 26.877187 
L 680.397533 359.517187 
z
" clip-path="url(#p1c1d67cd32)" style="fill: #808080; opacity: 0.4; stroke: #808080; stroke-linejoin: miter"/>
   </g>
   <g id="patch_116">
    <path d="M 684.603585 26.877187 
L 684.603585 26.877187 
L 684.603585 359.517187 
" clip-path="url(#p1c1d67cd32)" style="fill: #808080; opacity: 0.4; stroke: #808080; stroke-linejoin: miter"/>
   </g>
   <g id="patch_117">
    <path d="M 688.809638 26.877187 
L 688.809638 26.877187 
L 688.809638 359.517187 
" clip-path="url(#p1c1d67cd32)" style="fill: #808080; opacity: 0.4; stroke: #808080; stroke-linejoin: miter"/>
   </g>
   <g id="patch_118">
    <path d="M 831.815426 359.517187 
L 831.815426 26.877187 
L 983.23332 26.877187 
L 983.23332 359.517187 
z
" clip-path="url(#p1c1d67cd32)" style="fill: #808080; opacity: 0.4; stroke: #808080; stroke-linejoin: miter"/>
   </g>
   <g id="patch_119">
    <path d="M 987.439373 26.877187 
L 987.439373 26.877187 
L 987.439373 359.517187 
" clip-path="url(#p1c1d67cd32)" style="fill: #808080; opacity: 0.4; stroke: #808080; stroke-linejoin: miter"/>
   </g>
   <g id="patch_120">
    <path d="M 991.645426 26.877187 
L 991.645426 26.877187 
L 991.645426 359.517187 
" clip-path="url(#p1c1d67cd32)" style="fill: #808080; opacity: 0.4; stroke: #808080; stroke-linejoin: miter"/>
   </g>
   <g id="matplotlib.axis_1">
    <g id="xtick_1">
     <g id="line2d_1">
      <defs>
       <path id="me1fd773c06" d="M 0 0 
L 0 3.5 
" style="stroke: #000000; stroke-width: 0.8"/>
      </defs>
      <g>
       <use xlink:href="#me1fd773c06" x="136.663587" y="359.517187" style="stroke: #000000; stroke-width: 0.8"/>
      </g>
     </g>
     <g id="text_1">
      <!-- 07-11 12 -->
      <g transform="translate(114.183118 374.115625) scale(0.1 -0.1)">
       <defs>
        <path id="DejaVuSans-30" d="M 2034 4250 
Q 1547 4250 1301 3770 
Q 1056 3291 1056 2328 
Q 1056 1369 1301 889 
Q 1547 409 2034 409 
Q 2525 409 2770 889 
Q 3016 1369 3016 2328 
Q 3016 3291 2770 3770 
Q 2525 4250 2034 4250 
z
M 2034 4750 
Q 2819 4750 3233 4129 
Q 3647 3509 3647 2328 
Q 3647 1150 3233 529 
Q 2819 -91 2034 -91 
Q 1250 -91 836 529 
Q 422 1150 422 2328 
Q 422 3509 836 4129 
Q 1250 4750 2034 4750 
z
" transform="scale(0.015625)"/>
        <path id="DejaVuSans-37" d="M 525 4666 
L 3525 4666 
L 3525 4397 
L 1831 0 
L 1172 0 
L 2766 4134 
L 525 4134 
L 525 4666 
z
" transform="scale(0.015625)"/>
        <path id="DejaVuSans-2d" d="M 313 2009 
L 1997 2009 
L 1997 1497 
L 313 1497 
L 313 2009 
z
" transform="scale(0.015625)"/>
        <path id="DejaVuSans-31" d="M 794 531 
L 1825 531 
L 1825 4091 
L 703 3866 
L 703 4441 
L 1819 4666 
L 2450 4666 
L 2450 531 
L 3481 531 
L 3481 0 
L 794 0 
L 794 531 
z
" transform="scale(0.015625)"/>
        <path id="DejaVuSans-20" transform="scale(0.015625)"/>
        <path id="DejaVuSans-32" d="M 1228 531 
L 3431 531 
L 3431 0 
L 469 0 
L 469 531 
Q 828 903 1448 1529 
Q 2069 2156 2228 2338 
Q 2531 2678 2651 2914 
Q 2772 3150 2772 3378 
Q 2772 3750 2511 3984 
Q 2250 4219 1831 4219 
Q 1534 4219 1204 4116 
Q 875 4013 500 3803 
L 500 4441 
Q 881 4594 1212 4672 
Q 1544 4750 1819 4750 
Q 2544 4750 2975 4387 
Q 3406 4025 3406 3419 
Q 3406 3131 3298 2873 
Q 3191 2616 2906 2266 
Q 2828 2175 2409 1742 
Q 1991 1309 1228 531 
z
" transform="scale(0.015625)"/>
       </defs>
       <use xlink:href="#DejaVuSans-30"/>
       <use xlink:href="#DejaVuSans-37" x="63.623047"/>
       <use xlink:href="#DejaVuSans-2d" x="127.246094"/>
       <use xlink:href="#DejaVuSans-31" x="163.330078"/>
       <use xlink:href="#DejaVuSans-31" x="226.953125"/>
       <use xlink:href="#DejaVuSans-20" x="290.576172"/>
       <use xlink:href="#DejaVuSans-31" x="322.363281"/>
       <use xlink:href="#DejaVuSans-32" x="385.986328"/>
      </g>
     </g>
    </g>
    <g id="xtick_2">
     <g id="line2d_2">
      <g>
       <use xlink:href="#me1fd773c06" x="288.081481" y="359.517187" style="stroke: #000000; stroke-width: 0.8"/>
      </g>
     </g>
     <g id="text_2">
      <!-- 07-12 00 -->
      <g transform="translate(265.601012 374.115625) scale(0.1 -0.1)">
       <use xlink:href="#DejaVuSans-30"/>
       <use xlink:href="#DejaVuSans-37" x="63.623047"/>
       <use xlink:href="#DejaVuSans-2d" x="127.246094"/>
       <use xlink:href="#DejaVuSans-31" x="163.330078"/>
       <use xlink:href="#DejaVuSans-32" x="226.953125"/>
       <use xlink:href="#DejaVuSans-20" x="290.576172"/>
       <use xlink:href="#DejaVuSans-30" x="322.363281"/>
       <use xlink:href="#DejaVuSans-30" x="385.986328"/>
      </g>
     </g>
    </g>
    <g id="xtick_3">
     <g id="line2d_3">
      <g>
       <use xlink:href="#me1fd773c06" x="439.499375" y="359.517187" style="stroke: #000000; stroke-width: 0.8"/>
      </g>
     </g>
     <g id="text_3">
      <!-- 07-12 12 -->
      <g transform="translate(417.018906 374.115625) scale(0.1 -0.1)">
       <use xlink:href="#DejaVuSans-30"/>
       <use xlink:href="#DejaVuSans-37" x="63.623047"/>
       <use xlink:href="#DejaVuSans-2d" x="127.246094"/>
       <use xlink:href="#DejaVuSans-31" x="163.330078"/>
       <use xlink:href="#DejaVuSans-32" x="226.953125"/>
       <use xlink:href="#DejaVuSans-20" x="290.576172"/>
       <use xlink:href="#DejaVuSans-31" x="322.363281"/>
       <use xlink:href="#DejaVuSans-32" x="385.986328"/>
      </g>
     </g>
    </g>
    <g id="xtick_4">
     <g id="line2d_4">
      <g>
       <use xlink:href="#me1fd773c06" x="590.917268" y="359.517187" style="stroke: #000000; stroke-width: 0.8"/>
      </g>
     </g>
     <g id="text_4">
      <!-- 07-13 00 -->
      <g transform="translate(568.4368 374.115625) scale(0.1 -0.1)">
       <defs>
        <path id="DejaVuSans-33" d="M 2597 2516 
Q 3050 2419 3304 2112 
Q 3559 1806 3559 1356 
Q 3559 666 3084 287 
Q 2609 -91 1734 -91 
Q 1441 -91 1130 -33 
Q 819 25 488 141 
L 488 750 
Q 750 597 1062 519 
Q 1375 441 1716 441 
Q 2309 441 2620 675 
Q 2931 909 2931 1356 
Q 2931 1769 2642 2001 
Q 2353 2234 1838 2234 
L 1294 2234 
L 1294 2753 
L 1863 2753 
Q 2328 2753 2575 2939 
Q 2822 3125 2822 3475 
Q 2822 3834 2567 4026 
Q 2313 4219 1838 4219 
Q 1578 4219 1281 4162 
Q 984 4106 628 3988 
L 628 4550 
Q 988 4650 1302 4700 
Q 1616 4750 1894 4750 
Q 2613 4750 3031 4423 
Q 3450 4097 3450 3541 
Q 3450 3153 3228 2886 
Q 3006 2619 2597 2516 
z
" transform="scale(0.015625)"/>
       </defs>
       <use xlink:href="#DejaVuSans-30"/>
       <use xlink:href="#DejaVuSans-37" x="63.623047"/>
       <use xlink:href="#DejaVuSans-2d" x="127.246094"/>
       <use xlink:href="#DejaVuSans-31" x="163.330078"/>
       <use xlink:href="#DejaVuSans-33" x="226.953125"/>
       <use xlink:href="#DejaVuSans-20" x="290.576172"/>
       <use xlink:href="#DejaVuSans-30" x="322.363281"/>
       <use xlink:href="#DejaVuSans-30" x="385.986328"/>
      </g>
     </g>
    </g>
    <g id="xtick_5">
     <g id="line2d_5">
      <g>
       <use xlink:href="#me1fd773c06" x="742.335162" y="359.517187" style="stroke: #000000; stroke-width: 0.8"/>
      </g>
     </g>
     <g id="text_5">
      <!-- 07-13 12 -->
      <g transform="translate(719.854694 374.115625) scale(0.1 -0.1)">
       <use xlink:href="#DejaVuSans-30"/>
       <use xlink:href="#DejaVuSans-37" x="63.623047"/>
       <use xlink:href="#DejaVuSans-2d" x="127.246094"/>
       <use xlink:href="#DejaVuSans-31" x="163.330078"/>
       <use xlink:href="#DejaVuSans-33" x="226.953125"/>
       <use xlink:href="#DejaVuSans-20" x="290.576172"/>
       <use xlink:href="#DejaVuSans-31" x="322.363281"/>
       <use xlink:href="#DejaVuSans-32" x="385.986328"/>
      </g>
     </g>
    </g>
    <g id="xtick_6">
     <g id="line2d_6">
      <g>
       <use xlink:href="#me1fd773c06" x="893.753056" y="359.517187" style="stroke: #000000; stroke-width: 0.8"/>
      </g>
     </g>
     <g id="text_6">
      <!-- 07-14 00 -->
      <g transform="translate(871.272587 374.115625) scale(0.1 -0.1)">
       <defs>
        <path id="DejaVuSans-34" d="M 2419 4116 
L 825 1625 
L 2419 1625 
L 2419 4116 
z
M 2253 4666 
L 3047 4666 
L 3047 1625 
L 3713 1625 
L 3713 1100 
L 3047 1100 
L 3047 0 
L 2419 0 
L 2419 1100 
L 313 1100 
L 313 1709 
L 2253 4666 
z
" transform="scale(0.015625)"/>
       </defs>
       <use xlink:href="#DejaVuSans-30"/>
       <use xlink:href="#DejaVuSans-37" x="63.623047"/>
       <use xlink:href="#DejaVuSans-2d" x="127.246094"/>
       <use xlink:href="#DejaVuSans-31" x="163.330078"/>
       <use xlink:href="#DejaVuSans-34" x="226.953125"/>
       <use xlink:href="#DejaVuSans-20" x="290.576172"/>
       <use xlink:href="#DejaVuSans-30" x="322.363281"/>
       <use xlink:href="#DejaVuSans-30" x="385.986328"/>
      </g>
     </g>
    </g>
    <g id="xtick_7">
     <g id="line2d_7">
      <g>
       <use xlink:href="#me1fd773c06" x="1045.17095" y="359.517187" style="stroke: #000000; stroke-width: 0.8"/>
      </g>
     </g>
     <g id="text_7">
      <!-- 07-14 12 -->
      <g transform="translate(1022.690481 374.115625) scale(0.1 -0.1)">
       <use xlink:href="#DejaVuSans-30"/>
       <use xlink:href="#DejaVuSans-37" x="63.623047"/>
       <use xlink:href="#DejaVuSans-2d" x="127.246094"/>
       <use xlink:href="#DejaVuSans-31" x="163.330078"/>
       <use xlink:href="#DejaVuSans-34" x="226.953125"/>
       <use xlink:href="#DejaVuSans-20" x="290.576172"/>
       <use xlink:href="#DejaVuSans-31" x="322.363281"/>
       <use xlink:href="#DejaVuSans-32" x="385.986328"/>
      </g>
     </g>
    </g>
    <g id="text_8">
     <!-- Time -->
     <g transform="translate(592.554688 389.313437) scale(0.12 -0.12)">
      <defs>
       <path id="DejaVuSans-54" d="M -19 4666 
L 3928 4666 
L 3928 4134 
L 2272 4134 
L 2272 0 
L 1638 0 
L 1638 4134 
L -19 4134 
L -19 4666 
z
" transform="scale(0.015625)"/>
       <path id="DejaVuSans-69" d="M 603 3500 
L 1178 3500 
L 1178 0 
L 603 0 
L 603 3500 
z
M 603 4863 
L 1178 4863 
L 1178 4134 
L 603 4134 
L 603 4863 
z
" transform="scale(0.015625)"/>
       <path id="DejaVuSans-6d" d="M 3328 2828 
Q 3544 3216 3844 3400 
Q 4144 3584 4550 3584 
Q 5097 3584 5394 3201 
Q 5691 2819 5691 2113 
L 5691 0 
L 5113 0 
L 5113 2094 
Q 5113 2597 4934 2840 
Q 4756 3084 4391 3084 
Q 3944 3084 3684 2787 
Q 3425 2491 3425 1978 
L 3425 0 
L 2847 0 
L 2847 2094 
Q 2847 2600 2669 2842 
Q 2491 3084 2119 3084 
Q 1678 3084 1418 2786 
Q 1159 2488 1159 1978 
L 1159 0 
L 581 0 
L 581 3500 
L 1159 3500 
L 1159 2956 
Q 1356 3278 1631 3431 
Q 1906 3584 2284 3584 
Q 2666 3584 2933 3390 
Q 3200 3197 3328 2828 
z
" transform="scale(0.015625)"/>
       <path id="DejaVuSans-65" d="M 3597 1894 
L 3597 1613 
L 953 1613 
Q 991 1019 1311 708 
Q 1631 397 2203 397 
Q 2534 397 2845 478 
Q 3156 559 3463 722 
L 3463 178 
Q 3153 47 2828 -22 
Q 2503 -91 2169 -91 
Q 1331 -91 842 396 
Q 353 884 353 1716 
Q 353 2575 817 3079 
Q 1281 3584 2069 3584 
Q 2775 3584 3186 3129 
Q 3597 2675 3597 1894 
z
M 3022 2063 
Q 3016 2534 2758 2815 
Q 2500 3097 2075 3097 
Q 1594 3097 1305 2825 
Q 1016 2553 972 2059 
L 3022 2063 
z
" transform="scale(0.015625)"/>
      </defs>
      <use xlink:href="#DejaVuSans-54"/>
      <use xlink:href="#DejaVuSans-69" x="57.958984"/>
      <use xlink:href="#DejaVuSans-6d" x="85.742188"/>
      <use xlink:href="#DejaVuSans-65" x="183.154297"/>
     </g>
    </g>
   </g>
   <g id="matplotlib.axis_2">
    <g id="ytick_1">
     <g id="line2d_8">
      <defs>
       <path id="m73473eec1b" d="M 0 0 
L -3.5 0 
" style="stroke: #000000; stroke-width: 0.8"/>
      </defs>
      <g>
       <use xlink:href="#m73473eec1b" x="49.235" y="344.397187" style="stroke: #000000; stroke-width: 0.8"/>
      </g>
     </g>
     <g id="text_9">
      <!-- 0 -->
      <g transform="translate(35.8725 348.196406) scale(0.1 -0.1)">
       <use xlink:href="#DejaVuSans-30"/>
      </g>
     </g>
    </g>
    <g id="ytick_2">
     <g id="line2d_9">
      <g>
       <use xlink:href="#m73473eec1b" x="49.235" y="298.509479" style="stroke: #000000; stroke-width: 0.8"/>
      </g>
     </g>
     <g id="text_10">
      <!-- 100 -->
      <g transform="translate(23.1475 302.308698) scale(0.1 -0.1)">
       <use xlink:href="#DejaVuSans-31"/>
       <use xlink:href="#DejaVuSans-30" x="63.623047"/>
       <use xlink:href="#DejaVuSans-30" x="127.246094"/>
      </g>
     </g>
    </g>
    <g id="ytick_3">
     <g id="line2d_10">
      <g>
       <use xlink:href="#m73473eec1b" x="49.235" y="252.62177" style="stroke: #000000; stroke-width: 0.8"/>
      </g>
     </g>
     <g id="text_11">
      <!-- 200 -->
      <g transform="translate(23.1475 256.420989) scale(0.1 -0.1)">
       <use xlink:href="#DejaVuSans-32"/>
       <use xlink:href="#DejaVuSans-30" x="63.623047"/>
       <use xlink:href="#DejaVuSans-30" x="127.246094"/>
      </g>
     </g>
    </g>
    <g id="ytick_4">
     <g id="line2d_11">
      <g>
       <use xlink:href="#m73473eec1b" x="49.235" y="206.734062" style="stroke: #000000; stroke-width: 0.8"/>
      </g>
     </g>
     <g id="text_12">
      <!-- 300 -->
      <g transform="translate(23.1475 210.53328) scale(0.1 -0.1)">
       <use xlink:href="#DejaVuSans-33"/>
       <use xlink:href="#DejaVuSans-30" x="63.623047"/>
       <use xlink:href="#DejaVuSans-30" x="127.246094"/>
      </g>
     </g>
    </g>
    <g id="ytick_5">
     <g id="line2d_12">
      <g>
       <use xlink:href="#m73473eec1b" x="49.235" y="160.846353" style="stroke: #000000; stroke-width: 0.8"/>
      </g>
     </g>
     <g id="text_13">
      <!-- 400 -->
      <g transform="translate(23.1475 164.645572) scale(0.1 -0.1)">
       <use xlink:href="#DejaVuSans-34"/>
       <use xlink:href="#DejaVuSans-30" x="63.623047"/>
       <use xlink:href="#DejaVuSans-30" x="127.246094"/>
      </g>
     </g>
    </g>
    <g id="ytick_6">
     <g id="line2d_13">
      <g>
       <use xlink:href="#m73473eec1b" x="49.235" y="114.958644" style="stroke: #000000; stroke-width: 0.8"/>
      </g>
     </g>
     <g id="text_14">
      <!-- 500 -->
      <g transform="translate(23.1475 118.757863) scale(0.1 -0.1)">
       <defs>
        <path id="DejaVuSans-35" d="M 691 4666 
L 3169 4666 
L 3169 4134 
L 1269 4134 
L 1269 2991 
Q 1406 3038 1543 3061 
Q 1681 3084 1819 3084 
Q 2600 3084 3056 2656 
Q 3513 2228 3513 1497 
Q 3513 744 3044 326 
Q 2575 -91 1722 -91 
Q 1428 -91 1123 -41 
Q 819 9 494 109 
L 494 744 
Q 775 591 1075 516 
Q 1375 441 1709 441 
Q 2250 441 2565 725 
Q 2881 1009 2881 1497 
Q 2881 1984 2565 2268 
Q 2250 2553 1709 2553 
Q 1456 2553 1204 2497 
Q 953 2441 691 2322 
L 691 4666 
z
" transform="scale(0.015625)"/>
       </defs>
       <use xlink:href="#DejaVuSans-35"/>
       <use xlink:href="#DejaVuSans-30" x="63.623047"/>
       <use xlink:href="#DejaVuSans-30" x="127.246094"/>
      </g>
     </g>
    </g>
    <g id="ytick_7">
     <g id="line2d_14">
      <g>
       <use xlink:href="#m73473eec1b" x="49.235" y="69.070936" style="stroke: #000000; stroke-width: 0.8"/>
      </g>
     </g>
     <g id="text_15">
      <!-- 600 -->
      <g transform="translate(23.1475 72.870154) scale(0.1 -0.1)">
       <defs>
        <path id="DejaVuSans-36" d="M 2113 2584 
Q 1688 2584 1439 2293 
Q 1191 2003 1191 1497 
Q 1191 994 1439 701 
Q 1688 409 2113 409 
Q 2538 409 2786 701 
Q 3034 994 3034 1497 
Q 3034 2003 2786 2293 
Q 2538 2584 2113 2584 
z
M 3366 4563 
L 3366 3988 
Q 3128 4100 2886 4159 
Q 2644 4219 2406 4219 
Q 1781 4219 1451 3797 
Q 1122 3375 1075 2522 
Q 1259 2794 1537 2939 
Q 1816 3084 2150 3084 
Q 2853 3084 3261 2657 
Q 3669 2231 3669 1497 
Q 3669 778 3244 343 
Q 2819 -91 2113 -91 
Q 1303 -91 875 529 
Q 447 1150 447 2328 
Q 447 3434 972 4092 
Q 1497 4750 2381 4750 
Q 2619 4750 2861 4703 
Q 3103 4656 3366 4563 
z
" transform="scale(0.015625)"/>
       </defs>
       <use xlink:href="#DejaVuSans-36"/>
       <use xlink:href="#DejaVuSans-30" x="63.623047"/>
       <use xlink:href="#DejaVuSans-30" x="127.246094"/>
      </g>
     </g>
    </g>
    <g id="text_16">
     <!-- Pellet_Count -->
     <g transform="translate(16.318125 230.485312) rotate(-90) scale(0.12 -0.12)">
      <defs>
       <path id="DejaVuSans-50" d="M 1259 4147 
L 1259 2394 
L 2053 2394 
Q 2494 2394 2734 2622 
Q 2975 2850 2975 3272 
Q 2975 3691 2734 3919 
Q 2494 4147 2053 4147 
L 1259 4147 
z
M 628 4666 
L 2053 4666 
Q 2838 4666 3239 4311 
Q 3641 3956 3641 3272 
Q 3641 2581 3239 2228 
Q 2838 1875 2053 1875 
L 1259 1875 
L 1259 0 
L 628 0 
L 628 4666 
z
" transform="scale(0.015625)"/>
       <path id="DejaVuSans-6c" d="M 603 4863 
L 1178 4863 
L 1178 0 
L 603 0 
L 603 4863 
z
" transform="scale(0.015625)"/>
       <path id="DejaVuSans-74" d="M 1172 4494 
L 1172 3500 
L 2356 3500 
L 2356 3053 
L 1172 3053 
L 1172 1153 
Q 1172 725 1289 603 
Q 1406 481 1766 481 
L 2356 481 
L 2356 0 
L 1766 0 
Q 1100 0 847 248 
Q 594 497 594 1153 
L 594 3053 
L 172 3053 
L 172 3500 
L 594 3500 
L 594 4494 
L 1172 4494 
z
" transform="scale(0.015625)"/>
       <path id="DejaVuSans-5f" d="M 3263 -1063 
L 3263 -1509 
L -63 -1509 
L -63 -1063 
L 3263 -1063 
z
" transform="scale(0.015625)"/>
       <path id="DejaVuSans-43" d="M 4122 4306 
L 4122 3641 
Q 3803 3938 3442 4084 
Q 3081 4231 2675 4231 
Q 1875 4231 1450 3742 
Q 1025 3253 1025 2328 
Q 1025 1406 1450 917 
Q 1875 428 2675 428 
Q 3081 428 3442 575 
Q 3803 722 4122 1019 
L 4122 359 
Q 3791 134 3420 21 
Q 3050 -91 2638 -91 
Q 1578 -91 968 557 
Q 359 1206 359 2328 
Q 359 3453 968 4101 
Q 1578 4750 2638 4750 
Q 3056 4750 3426 4639 
Q 3797 4528 4122 4306 
z
" transform="scale(0.015625)"/>
       <path id="DejaVuSans-6f" d="M 1959 3097 
Q 1497 3097 1228 2736 
Q 959 2375 959 1747 
Q 959 1119 1226 758 
Q 1494 397 1959 397 
Q 2419 397 2687 759 
Q 2956 1122 2956 1747 
Q 2956 2369 2687 2733 
Q 2419 3097 1959 3097 
z
M 1959 3584 
Q 2709 3584 3137 3096 
Q 3566 2609 3566 1747 
Q 3566 888 3137 398 
Q 2709 -91 1959 -91 
Q 1206 -91 779 398 
Q 353 888 353 1747 
Q 353 2609 779 3096 
Q 1206 3584 1959 3584 
z
" transform="scale(0.015625)"/>
       <path id="DejaVuSans-75" d="M 544 1381 
L 544 3500 
L 1119 3500 
L 1119 1403 
Q 1119 906 1312 657 
Q 1506 409 1894 409 
Q 2359 409 2629 706 
Q 2900 1003 2900 1516 
L 2900 3500 
L 3475 3500 
L 3475 0 
L 2900 0 
L 2900 538 
Q 2691 219 2414 64 
Q 2138 -91 1772 -91 
Q 1169 -91 856 284 
Q 544 659 544 1381 
z
M 1991 3584 
L 1991 3584 
z
" transform="scale(0.015625)"/>
       <path id="DejaVuSans-6e" d="M 3513 2113 
L 3513 0 
L 2938 0 
L 2938 2094 
Q 2938 2591 2744 2837 
Q 2550 3084 2163 3084 
Q 1697 3084 1428 2787 
Q 1159 2491 1159 1978 
L 1159 0 
L 581 0 
L 581 3500 
L 1159 3500 
L 1159 2956 
Q 1366 3272 1645 3428 
Q 1925 3584 2291 3584 
Q 2894 3584 3203 3211 
Q 3513 2838 3513 2113 
z
" transform="scale(0.015625)"/>
      </defs>
      <use xlink:href="#DejaVuSans-50"/>
      <use xlink:href="#DejaVuSans-65" x="56.677734"/>
      <use xlink:href="#DejaVuSans-6c" x="118.201172"/>
      <use xlink:href="#DejaVuSans-6c" x="145.984375"/>
      <use xlink:href="#DejaVuSans-65" x="173.767578"/>
      <use xlink:href="#DejaVuSans-74" x="235.291016"/>
      <use xlink:href="#DejaVuSans-5f" x="274.5"/>
      <use xlink:href="#DejaVuSans-43" x="324.5"/>
      <use xlink:href="#DejaVuSans-6f" x="394.324219"/>
      <use xlink:href="#DejaVuSans-75" x="455.505859"/>
      <use xlink:href="#DejaVuSans-6e" x="518.884766"/>
      <use xlink:href="#DejaVuSans-74" x="582.263672"/>
     </g>
    </g>
   </g>
   <g id="line2d_15">
    <path d="M 99.962273 344.397187 
L 100.274222 344.397187 
L 100.274222 344.397187 
L 100.382878 343.93831 
L 101.960148 343.93831 
L 101.963653 343.479433 
L 104.750163 343.479433 
L 104.760678 343.020556 
L 104.94294 343.020556 
L 104.946445 342.561679 
L 105.910332 342.561679 
L 106.204756 341.185048 
L 106.302897 341.185048 
L 106.306402 340.726171 
L 106.436089 340.726171 
L 106.52722 339.808417 
L 110.719252 339.808417 
L 110.806878 338.890662 
L 110.964605 338.890662 
L 111.069757 337.972908 
L 111.167898 337.972908 
L 111.171403 337.514031 
L 114.375013 337.514031 
L 114.5047 336.596277 
L 114.592326 336.596277 
L 114.683457 335.678523 
L 120.480799 335.678523 
L 120.589456 334.760769 
L 120.694607 334.760769 
L 120.747183 333.843015 
L 123.593278 333.384137 
L 123.600288 332.92526 
L 133.190088 332.92526 
L 133.232149 332.466383 
L 135.871447 332.466383 
L 135.885467 332.007506 
L 136.302567 332.007506 
L 136.323598 331.548629 
L 136.51287 331.548629 
L 136.51988 331.089752 
L 136.740698 331.089752 
L 136.740698 331.089752 
L 136.758223 330.630875 
L 136.873889 330.630875 
L 136.877394 330.171998 
L 137.189343 330.171998 
L 137.287485 329.254244 
L 137.511807 329.254244 
L 137.634484 328.336489 
L 137.788706 328.336489 
L 137.795716 327.877612 
L 139.274844 327.877612 
L 139.383501 326.959858 
L 139.488652 326.959858 
L 139.495662 326.500981 
L 139.607824 326.500981 
L 139.611329 326.042104 
L 140.771498 326.042104 
L 141.013346 325.583227 
L 144.620036 325.583227 
L 144.623541 325.12435 
L 144.735703 325.12435 
L 144.742713 324.665473 
L 147.399536 324.665473 
L 147.406546 324.206596 
L 147.592313 324.206596 
L 147.676435 323.747719 
L 147.869212 323.747719 
L 147.984878 323.288842 
L 148.012919 323.288842 
L 148.135595 322.371087 
L 148.202191 322.371087 
L 148.223221 321.91221 
L 152.874415 321.91221 
L 152.87792 321.453333 
L 158.566606 321.453333 
L 158.573616 320.994456 
L 158.685777 320.994456 
L 158.797939 320.535579 
L 158.836494 320.535579 
L 158.836494 320.535579 
L 158.850514 320.076702 
L 159.004736 320.076702 
L 159.032777 319.617825 
L 167.602609 319.617825 
L 167.711265 318.700071 
L 167.812911 318.700071 
L 167.928578 317.782316 
L 168.023214 317.782316 
L 168.026719 317.323439 
L 168.184446 317.323439 
L 168.191456 316.864562 
L 168.310628 316.864562 
L 168.331658 316.405685 
L 171.310945 316.405685 
L 171.317955 315.946808 
L 174.241162 315.946808 
L 174.248172 315.487931 
L 174.479505 315.487931 
L 174.479505 315.487931 
L 175.383806 315.029054 
L 175.660705 315.029054 
L 175.66421 314.570177 
L 179.425122 314.570177 
L 179.428627 314.1113 
L 179.726555 314.1113 
L 179.726555 314.1113 
L 179.740576 313.652423 
L 179.870262 313.652423 
L 179.877272 313.193546 
L 180.017474 313.193546 
L 180.024484 312.734669 
L 182.341318 312.734669 
L 182.463995 311.816914 
L 186.673552 311.816914 
L 186.680562 311.358037 
L 186.803239 311.358037 
L 186.810249 310.89916 
L 186.92241 310.89916 
L 186.925915 310.440283 
L 187.041582 310.440283 
L 187.048592 309.981406 
L 187.202814 309.981406 
L 187.234359 309.522529 
L 190.399414 309.063652 
L 191.941633 309.063652 
L 191.948643 308.604775 
L 195.331011 308.604775 
L 195.338021 308.145898 
L 196.049545 308.145898 
L 196.06006 307.687021 
L 197.770521 307.687021 
L 198.11051 307.228143 
L 198.124531 306.769266 
L 199.764891 306.769266 
L 200.280132 306.310389 
L 201.643595 306.310389 
L 201.671635 305.851512 
L 202.551401 305.392635 
L 204.759578 305.392635 
L 204.763084 304.933758 
L 205.460587 304.933758 
L 205.467597 304.474881 
L 207.034352 304.474881 
L 207.546088 304.016004 
L 207.640725 303.09825 
L 207.731856 303.09825 
L 207.738866 302.639373 
L 207.963189 302.639373 
L 207.963189 302.639373 
L 207.977209 302.180496 
L 209.964569 302.180496 
L 209.968074 301.721618 
L 210.308063 301.721618 
L 210.311568 301.262741 
L 211.583899 301.262741 
L 211.63998 300.344987 
L 211.913373 300.344987 
L 211.916878 299.88611 
L 212.151716 299.88611 
L 212.155221 299.427233 
L 212.281403 299.427233 
L 212.288413 298.968356 
L 213.346936 298.968356 
L 213.441572 298.050602 
L 213.543218 298.050602 
L 213.553733 297.591725 
L 215.492023 297.591725 
L 215.495528 297.132848 
L 216.115921 297.132848 
L 216.217567 296.215093 
L 216.287668 296.215093 
L 216.368284 295.297339 
L 217.083313 295.297339 
L 217.111353 294.838462 
L 219.967964 294.838462 
L 219.978479 294.379585 
L 220.532276 294.379585 
L 220.532276 294.379585 
L 220.654952 293.920708 
L 221.180709 293.920708 
L 221.212254 293.461831 
L 224.005774 293.461831 
L 224.117936 293.002954 
L 224.117936 293.002954 
L 225.043267 292.544077 
L 226.136841 292.544077 
L 227.62999 292.0852 
L 229.452612 292.0852 
L 229.550754 291.626323 
L 229.669925 291.626323 
L 230.220217 291.167445 
L 230.507631 291.167445 
L 230.619792 290.249691 
L 230.703913 290.249691 
L 230.788034 289.331937 
L 233.430837 289.331937 
L 233.511453 288.87306 
L 238.639332 288.87306 
L 238.758504 288.414183 
L 239.084473 287.955306 
L 250.892966 287.955306 
L 250.896471 287.496429 
L 251.117288 287.496429 
L 251.120793 287.037552 
L 279.753496 287.037552 
L 279.872668 286.119798 
L 280.023385 286.119798 
L 280.125031 285.202043 
L 280.293273 285.202043 
L 280.296778 284.743166 
L 280.535121 284.743166 
L 280.538626 284.284289 
L 280.661303 284.284289 
L 280.769959 283.366535 
L 280.934696 283.366535 
L 280.938201 282.907658 
L 281.288706 282.907658 
L 281.407877 281.989904 
L 297.355827 281.989904 
L 297.432938 281.531027 
L 297.737876 281.531027 
L 297.741381 281.07215 
L 297.871068 281.07215 
L 297.885088 280.613272 
L 298.021785 280.613272 
L 298.02529 280.154395 
L 298.498471 280.154395 
L 298.505481 279.695518 
L 298.642178 279.695518 
L 298.649188 279.236641 
L 314.120451 279.236641 
L 314.232613 278.318887 
L 314.316734 278.318887 
L 314.42539 277.401133 
L 314.530541 277.401133 
L 314.646208 276.483379 
L 314.740844 276.483379 
L 314.856511 276.024502 
L 329.181625 276.024502 
L 329.286776 275.565625 
L 329.377907 275.565625 
L 329.381412 275.106747 
L 329.665321 275.106747 
L 329.675836 274.64787 
L 329.847583 274.64787 
L 330.050876 274.188993 
L 330.078916 274.188993 
L 330.191077 273.271239 
L 330.324269 273.271239 
L 330.327774 272.812362 
L 330.590652 272.812362 
L 330.601167 272.353485 
L 343.685496 272.353485 
L 343.745082 271.894608 
L 343.916829 271.894608 
L 343.920334 271.435731 
L 344.039506 271.435731 
L 344.043011 270.976854 
L 344.162182 270.976854 
L 344.267333 270.059099 
L 344.379495 270.059099 
L 344.481141 269.141345 
L 344.572272 269.141345 
L 344.575777 268.682468 
L 369.584265 268.682468 
L 369.58777 268.223591 
L 369.756012 268.223591 
L 369.759517 267.764714 
L 369.906729 267.764714 
L 370.01188 266.84696 
L 370.103012 266.84696 
L 370.110022 266.388083 
L 370.229193 266.388083 
L 370.34486 265.470329 
L 370.450011 265.470329 
L 370.544647 264.552574 
L 370.649798 264.552574 
L 371.028343 264.093697 
L 382.906937 264.093697 
L 382.910442 263.63482 
L 383.068169 263.63482 
L 383.176825 263.175943 
L 383.246926 263.175943 
L 383.348572 262.258189 
L 383.439703 262.258189 
L 383.443208 261.799312 
L 388.791905 261.799312 
L 388.893552 260.881558 
L 388.977673 260.881558 
L 389.061794 259.963804 
L 389.17746 259.963804 
L 389.180965 259.504926 
L 391.638001 259.504926 
L 391.648516 259.046049 
L 391.802738 259.046049 
L 391.806243 258.587172 
L 396.043841 258.587172 
L 396.134972 257.669418 
L 396.208578 257.669418 
L 396.212083 257.210541 
L 396.338265 257.210541 
L 396.443416 256.292787 
L 396.559082 256.292787 
L 396.653719 255.83391 
L 403.046919 255.83391 
L 403.162585 254.916156 
L 403.239696 254.916156 
L 403.341342 253.998401 
L 403.428968 253.998401 
L 403.509584 253.080647 
L 403.807513 253.080647 
L 403.811018 252.62177 
L 404.673259 252.62177 
L 404.673259 252.62177 
L 404.690784 252.162893 
L 406.881437 252.162893 
L 406.898962 251.704016 
L 407.691102 251.704016 
L 407.698112 251.245139 
L 409.513724 251.245139 
L 409.520735 250.786262 
L 409.643411 250.786262 
L 409.752067 250.327385 
L 409.762583 250.327385 
L 409.850209 249.409631 
L 409.94835 249.409631 
L 410.025461 248.491876 
L 415.444259 248.491876 
L 415.52838 247.574122 
L 415.594976 247.574122 
L 415.686107 246.656368 
L 415.777238 246.656368 
L 415.854349 245.738614 
L 415.927955 245.738614 
L 416.015581 244.82086 
L 416.103207 244.82086 
L 416.218873 244.361983 
L 416.218873 244.361983 
L 421.683237 243.903106 
L 423.260506 243.903106 
L 423.264011 243.444228 
L 424.788706 243.444228 
L 424.795716 242.985351 
L 424.939422 242.985351 
L 425.048079 242.067597 
L 425.156735 242.067597 
L 425.258381 241.149843 
L 426.064541 241.149843 
L 426.092582 240.690966 
L 426.982863 240.690966 
L 426.993378 240.232089 
L 429.495979 240.232089 
L 429.499484 239.773212 
L 431.14335 239.773212 
L 431.252006 239.314335 
L 431.336127 238.396581 
L 431.416743 238.396581 
L 431.51839 237.478826 
L 431.595501 237.478826 
L 431.683127 236.561072 
L 432.780205 236.561072 
L 432.871337 235.643318 
L 437.92561 235.643318 
L 437.93262 235.184441 
L 438.977123 235.184441 
L 438.994648 234.725564 
L 439.96905 234.725564 
L 440.154818 234.266687 
L 440.165333 234.266687 
L 440.480787 233.80781 
L 446.057312 233.80781 
L 446.057312 233.80781 
L 446.151948 232.890055 
L 446.215039 232.890055 
L 446.30617 231.972301 
L 454.220559 231.972301 
L 454.29767 231.054547 
L 454.371276 231.054547 
L 454.479932 230.136793 
L 454.571063 230.136793 
L 454.574568 229.677916 
L 464.178388 229.677916 
L 464.269519 228.760162 
L 464.444772 228.760162 
L 464.546418 227.842408 
L 464.623529 227.842408 
L 464.718165 226.924653 
L 464.851357 226.924653 
L 464.854862 226.465776 
L 472.481837 226.465776 
L 472.488847 226.006899 
L 473.810249 226.006899 
L 473.820764 225.548022 
L 475.787093 225.548022 
L 476.042962 224.630268 
L 479.730268 224.630268 
L 480.003661 223.253637 
L 480.091287 223.253637 
L 480.091287 222.79476 
L 480.175408 222.79476 
L 480.375196 221.877005 
L 480.487357 221.877005 
L 480.603024 220.959251 
L 481.016619 220.959251 
L 481.023629 220.500374 
L 487.613111 220.500374 
L 487.718263 219.58262 
L 487.907535 219.58262 
L 488.019696 218.664866 
L 488.373706 218.664866 
L 488.394736 218.205989 
L 496.256549 218.205989 
L 496.260054 217.747112 
L 496.438812 217.747112 
L 496.449327 217.288235 
L 497.301052 217.288235 
L 497.308063 216.829357 
L 497.458779 216.829357 
L 497.462285 216.37048 
L 501.451024 216.37048 
L 501.563186 215.452726 
L 501.664832 215.452726 
L 501.668337 214.993849 
L 505.622027 214.993849 
L 505.625532 214.534972 
L 505.744703 214.534972 
L 505.846349 213.617218 
L 505.951501 213.617218 
L 506.035622 213.158341 
L 506.309015 213.158341 
L 506.501793 212.240587 
L 506.634984 212.240587 
L 506.638489 211.78171 
L 506.764671 211.78171 
L 506.768176 211.322832 
L 511.815439 211.322832 
L 511.91358 210.863955 
L 512.081822 210.863955 
L 512.123883 210.405078 
L 513.51188 210.405078 
L 513.522395 209.946201 
L 513.725688 209.946201 
L 513.841354 209.028447 
L 513.935991 209.028447 
L 514.009596 208.56957 
L 514.167323 208.56957 
L 514.258455 208.110693 
L 514.286495 208.110693 
L 514.398656 207.651816 
L 514.405666 207.192939 
L 519.396849 207.192939 
L 519.400354 206.734062 
L 519.996211 206.734062 
L 520.006726 206.275184 
L 521.548946 206.275184 
L 521.552451 205.816307 
L 521.706673 205.816307 
L 521.801309 204.898553 
L 521.89945 204.898553 
L 521.983571 203.980799 
L 522.141298 203.980799 
L 522.144803 203.521922 
L 522.26047 203.521922 
L 522.26748 203.063045 
L 522.512833 203.063045 
L 522.516338 202.604168 
L 522.758186 202.604168 
L 522.761691 202.145291 
L 523.343528 202.145291 
L 523.354043 201.686414 
L 523.869285 201.686414 
L 526.732906 201.227537 
L 526.929188 200.768659 
L 531.524301 200.768659 
L 531.650482 199.850905 
L 531.748623 199.850905 
L 531.85728 198.933151 
L 531.948411 198.933151 
L 531.951916 198.474274 
L 532.333966 198.474274 
L 532.617874 198.015397 
L 532.761581 198.015397 
L 532.926318 197.55652 
L 547.265452 197.55652 
L 547.388129 196.638766 
L 547.559876 196.638766 
L 547.651007 195.721011 
L 547.784199 195.721011 
L 547.787704 195.262134 
L 554.475328 195.262134 
L 554.478833 194.803257 
L 554.590994 194.803257 
L 554.594499 194.34438 
L 554.710166 194.34438 
L 554.717176 193.885503 
L 554.832842 193.885503 
L 554.843357 193.426626 
L 554.976549 193.426626 
L 555.085205 192.967749 
L 555.09572 192.967749 
L 555.10273 192.508872 
L 564.044097 192.508872 
L 564.047602 192.049995 
L 566.785042 192.049995 
L 566.897203 191.591118 
L 566.921738 191.591118 
L 566.998849 191.132241 
L 567.188122 191.132241 
L 567.202142 190.673364 
L 577.398314 190.673364 
L 577.401819 190.214486 
L 577.538516 190.214486 
L 577.542021 189.755609 
L 577.959121 189.755609 
L 578.067778 189.296732 
L 578.085303 189.296732 
L 578.179939 188.378978 
L 578.267565 188.378978 
L 578.372717 187.461224 
L 578.477868 187.461224 
L 578.484878 187.002347 
L 597.45768 187.002347 
L 597.46469 186.54347 
L 599.816575 186.54347 
L 599.823585 186.084593 
L 599.939251 186.084593 
L 599.942756 185.625716 
L 608.456508 185.625716 
L 608.460013 185.166838 
L 608.579184 185.166838 
L 608.579184 185.166838 
L 608.593204 184.707961 
L 608.719386 184.707961 
L 608.824537 183.790207 
L 609.525546 183.790207 
L 609.529051 183.33133 
L 618.957619 183.33133 
L 618.961124 182.872453 
L 619.276578 182.872453 
L 619.280083 182.413576 
L 619.46585 182.413576 
L 619.472861 181.954699 
L 621.561867 181.954699 
L 621.565372 181.495822 
L 621.716089 181.495822 
L 621.719594 181.036945 
L 625.771424 181.036945 
L 625.897606 180.119191 
L 626.009767 180.119191 
L 626.013272 179.660313 
L 628.112794 179.660313 
L 628.22846 178.742559 
L 630.387567 178.742559 
L 630.405092 178.283682 
L 635.81688 178.283682 
L 635.82389 177.824805 
L 637.40817 177.824805 
L 637.411675 177.365928 
L 637.527341 177.365928 
L 637.530846 176.907051 
L 643.608592 176.907051 
L 643.615603 176.448174 
L 644.008167 176.448174 
L 644.015178 175.989297 
L 644.730206 175.989297 
L 644.747732 175.53042 
L 645.504821 175.53042 
L 645.567912 175.071543 
L 651.894516 175.071543 
L 651.905031 174.612665 
L 652.024203 174.612665 
L 652.027708 174.153788 
L 652.157394 174.153788 
L 652.164404 173.694911 
L 652.318626 173.694911 
L 652.322131 173.236034 
L 653.114271 173.236034 
L 653.415705 172.777157 
L 655.466156 172.777157 
L 656.647356 172.31828 
L 672.574275 172.31828 
L 672.609325 171.859403 
L 672.791587 171.859403 
L 672.795093 171.400526 
L 672.938799 171.400526 
L 673.00189 170.941649 
L 673.142092 170.941649 
L 673.145597 170.482772 
L 673.257758 170.482772 
L 673.3559 169.565018 
L 684.575545 169.565018 
L 684.659666 168.647263 
L 684.740282 168.647263 
L 684.820898 167.729509 
L 684.926049 167.729509 
L 685.01017 166.811755 
L 685.094291 166.811755 
L 685.097796 166.352878 
L 691.638208 166.352878 
L 691.75037 165.435124 
L 691.830986 165.435124 
L 691.922117 164.51737 
L 692.016753 164.51737 
L 692.111389 163.599615 
L 692.192005 163.599615 
L 692.19551 163.140738 
L 698.981275 163.140738 
L 698.98478 162.681861 
L 699.096941 162.681861 
L 699.195083 161.764107 
L 701.981593 161.764107 
L 701.985098 161.30523 
L 702.121794 161.30523 
L 702.125299 160.846353 
L 705.353445 160.846353 
L 705.465606 159.928599 
L 705.591788 159.928599 
L 705.591788 159.928599 
L 705.602303 159.469722 
L 706.468049 159.469722 
L 706.475059 159.010845 
L 709.342185 159.010845 
L 709.454346 158.551967 
L 709.485891 158.551967 
L 709.584033 157.634213 
L 709.664649 157.634213 
L 709.7698 156.716459 
L 709.899487 156.716459 
L 709.902992 156.257582 
L 710.088759 156.257582 
L 710.169375 155.339828 
L 711.781695 155.339828 
L 711.883341 154.422074 
L 712.819188 154.422074 
L 712.826198 153.963197 
L 713.00145 153.963197 
L 713.106602 153.045442 
L 713.204743 153.045442 
L 713.211753 152.586565 
L 714.144095 152.586565 
L 714.336872 152.127688 
L 716.289182 152.127688 
L 716.383818 151.209934 
L 718.683126 151.209934 
L 718.788278 150.29218 
L 718.861884 150.29218 
L 718.97755 149.374426 
L 725.34271 149.374426 
L 725.447861 148.456672 
L 725.546002 148.456672 
L 725.546002 147.997794 
L 725.654659 147.997794 
L 725.661669 147.997794 
L 725.665174 147.538917 
L 725.78084 147.538917 
L 725.893002 147.08004 
L 730.842124 147.08004 
L 730.940265 146.162286 
L 731.203143 146.162286 
L 731.315304 145.703409 
L 736.425658 145.703409 
L 736.429163 145.244532 
L 736.583385 145.244532 
L 736.583385 144.785655 
L 736.692042 144.785655 
L 736.797193 143.867901 
L 741.006751 143.867901 
L 741.111902 142.950147 
L 741.350245 142.950147 
L 741.448386 142.032392 
L 741.553538 142.032392 
L 741.557043 141.573515 
L 743.179878 141.573515 
L 743.421726 141.114638 
L 751.104782 141.114638 
L 751.108287 140.655761 
L 751.227459 140.655761 
L 751.230964 140.196884 
L 751.343125 140.196884 
L 751.409721 139.738007 
L 751.532397 139.738007 
L 751.532397 139.27913 
L 755.219703 139.27913 
L 755.223208 138.820253 
L 755.359905 138.820253 
L 755.461551 137.902499 
L 758.654646 137.902499 
L 758.759798 137.443621 
L 758.815878 137.443621 
L 759.043706 136.06699 
L 759.106797 136.06699 
L 759.187413 135.149236 
L 759.268029 135.149236 
L 759.275039 134.690359 
L 760.435209 134.690359 
L 760.550875 134.231482 
L 760.55438 134.231482 
L 760.557885 133.772605 
L 766.663672 133.772605 
L 766.775833 133.313728 
L 766.887994 132.395974 
L 766.993146 132.395974 
L 766.996651 131.937096 
L 767.108812 131.937096 
L 767.220974 131.019342 
L 767.31561 131.019342 
L 767.319115 130.560465 
L 774.728777 130.560465 
L 774.753313 130.101588 
L 776.439239 130.101588 
L 776.446249 129.642711 
L 778.013004 129.642711 
L 778.118155 128.724957 
L 778.202276 128.724957 
L 778.303922 127.807203 
L 778.405568 127.807203 
L 778.461649 127.348326 
L 784.753203 127.348326 
L 784.756708 126.889449 
L 784.886394 126.889449 
L 784.8899 126.430571 
L 792.187401 126.430571 
L 792.190906 125.971694 
L 795.029991 125.971694 
L 795.033496 125.512817 
L 795.170193 125.512817 
L 795.282355 125.05394 
L 799.222024 125.05394 
L 799.236044 124.595063 
L 799.383256 124.595063 
L 799.502427 123.677309 
L 804.616286 123.677309 
L 804.707417 122.759555 
L 804.830094 122.759555 
L 804.928235 121.841801 
L 805.054417 121.841801 
L 805.163073 121.382923 
L 805.219154 120.924046 
L 810.760628 120.924046 
L 810.869284 120.465169 
L 810.8798 120.465169 
L 810.974436 119.547415 
L 811.097112 119.547415 
L 811.100617 119.088538 
L 814.367318 119.088538 
L 814.47247 118.170784 
L 814.574116 117.711907 
L 818.853774 117.711907 
L 818.972946 116.794153 
L 819.071087 116.794153 
L 819.169228 115.876398 
L 819.260359 115.876398 
L 819.263864 115.417521 
L 819.393551 115.417521 
L 819.397056 114.958644 
L 822.789939 114.958644 
L 822.9021 114.499767 
L 822.919625 114.499767 
L 822.933645 114.04089 
L 824.272572 114.04089 
L 824.353188 113.123136 
L 824.423289 113.123136 
L 824.49339 112.205382 
L 824.577511 112.205382 
L 824.581016 111.746505 
L 824.696682 111.746505 
L 824.700187 111.287628 
L 827.497212 111.287628 
L 827.612879 110.369873 
L 828.629342 110.369873 
L 828.632847 109.910996 
L 829.761471 109.910996 
L 829.989299 109.452119 
L 834.545856 109.452119 
L 834.549361 108.993242 
L 834.675542 108.993242 
L 834.679047 108.534365 
L 835.134703 108.534365 
L 835.236349 107.616611 
L 845.25727 107.616611 
L 845.26428 107.157734 
L 845.383451 107.157734 
L 845.481592 106.23998 
L 845.70241 106.23998 
L 845.818077 105.322225 
L 845.919723 105.322225 
L 845.933743 104.863348 
L 846.045904 104.863348 
L 846.045904 104.863348 
L 846.05642 104.404471 
L 852.460135 104.404471 
L 852.572296 103.486717 
L 858.790244 103.486717 
L 858.793749 103.02784 
L 872.004259 103.02784 
L 872.007764 102.568963 
L 872.179511 102.568963 
L 872.183016 102.110086 
L 872.295178 102.110086 
L 872.298683 101.651209 
L 888.972176 101.651209 
L 889.084338 100.733455 
L 889.185984 100.733455 
L 889.200004 100.274577 
L 889.312166 100.274577 
L 889.420822 99.356823 
L 889.547004 99.356823 
L 889.561024 98.897946 
L 915.957509 98.897946 
L 916.073175 97.980192 
L 916.157296 97.980192 
L 916.160801 97.521315 
L 916.293993 97.521315 
L 916.304508 97.062438 
L 933.132224 97.062438 
L 933.135729 96.603561 
L 933.2549 96.603561 
L 933.303971 96.144684 
L 933.454688 96.144684 
L 933.458193 95.685807 
L 948.663073 95.685807 
L 948.666578 95.22693 
L 948.866365 95.22693 
L 948.869871 94.768052 
L 949.055638 94.768052 
L 949.059143 94.309175 
L 949.199345 94.309175 
L 949.20285 93.850298 
L 949.325526 93.850298 
L 949.332536 93.391421 
L 970.289193 93.391421 
L 970.292698 92.932544 
L 970.510011 92.932544 
L 970.513516 92.473667 
L 970.625678 92.473667 
L 970.639698 92.01479 
L 970.82196 92.01479 
L 970.82897 91.555913 
L 970.951647 91.555913 
L 970.993707 91.097036 
L 971.151434 91.097036 
L 971.154939 90.638159 
L 971.319676 90.638159 
L 971.421323 89.720404 
L 971.565029 89.720404 
L 971.568534 89.261527 
L 977.407937 89.261527 
L 977.414948 88.80265 
L 978.354299 88.80265 
L 978.469966 87.884896 
L 985.22068 87.884896 
L 985.332842 87.426019 
L 985.339852 86.967142 
L 985.455518 86.967142 
L 985.564174 86.049388 
L 985.672831 86.049388 
L 985.676336 85.590511 
L 994.614198 85.590511 
L 994.621208 85.131634 
L 994.77543 85.131634 
L 994.877076 84.213879 
L 994.989237 84.213879 
L 994.992742 83.755002 
L 995.157479 83.755002 
L 995.252116 82.837248 
L 997.656576 82.837248 
L 997.660081 82.378371 
L 998.143777 82.378371 
L 998.255938 81.460617 
L 998.347069 81.460617 
L 998.350574 81.00174 
L 998.462736 81.00174 
L 998.466241 80.542863 
L 1003.092899 80.542863 
L 1003.208565 79.625109 
L 1009.366927 79.625109 
L 1009.370432 79.166232 
L 1009.482594 79.166232 
L 1009.580735 78.248477 
L 1009.668361 78.248477 
L 1009.713927 77.7896 
L 1009.878664 77.7896 
L 1009.924229 77.330723 
L 1016.310419 77.330723 
L 1016.405055 76.412969 
L 1016.485671 76.412969 
L 1016.559277 75.495215 
L 1016.636388 75.495215 
L 1016.741539 74.577461 
L 1016.825661 74.577461 
L 1016.923802 74.118584 
L 1023.790183 74.118584 
L 1023.895334 73.659706 
L 1023.909354 73.659706 
L 1024.025021 72.741952 
L 1024.172232 72.741952 
L 1024.175737 72.283075 
L 1024.308929 72.283075 
L 1024.361505 71.824198 
L 1030.337605 71.824198 
L 1030.446261 71.365321 
L 1030.481311 70.906444 
L 1030.625018 70.906444 
L 1030.670584 70.447567 
L 1035.542595 70.447567 
L 1035.665271 69.529813 
L 1035.784443 69.529813 
L 1035.886089 68.612059 
L 1035.959695 68.612059 
L 1035.9632 68.153181 
L 1040.242858 68.153181 
L 1040.35502 67.235427 
L 1040.446151 67.235427 
L 1040.533777 66.317673 
L 1041.129634 66.317673 
L 1041.13314 65.858796 
L 1044.438396 65.858796 
L 1044.806425 64.941042 
L 1044.809931 64.482165 
L 1048.956397 64.482165 
L 1049.065054 63.564411 
L 1049.440093 63.564411 
L 1049.450609 63.105533 
L 1049.56978 63.105533 
L 1049.681941 62.646656 
L 1049.688952 62.187779 
L 1052.748855 62.187779 
L 1052.843491 61.270025 
L 1052.910087 61.270025 
L 1052.913592 60.811148 
L 1053.505944 60.811148 
L 1053.817893 60.352271 
L 1053.821398 59.893394 
L 1056.190808 59.893394 
L 1056.288949 58.97564 
L 1056.369565 58.97564 
L 1056.464201 58.057886 
L 1056.534302 58.057886 
L 1056.628938 57.599008 
L 1057.789108 57.599008 
L 1057.806633 57.140131 
L 1061.360748 57.140131 
L 1061.613111 56.222377 
L 1061.630636 56.222377 
L 1061.634141 55.7635 
L 1066.194203 55.7635 
L 1066.281829 55.304623 
L 1070.000681 55.304623 
L 1070.112842 54.386869 
L 1072.114222 54.386869 
L 1072.226383 53.469115 
L 1072.317515 53.469115 
L 1072.412151 52.55136 
L 1072.499777 52.55136 
L 1072.503282 52.092483 
L 1075.51762 52.092483 
L 1075.601741 51.174729 
L 1075.692872 51.174729 
L 1075.696377 50.715852 
L 1081.872264 50.715852 
L 1081.875769 50.256975 
L 1082.044011 50.256975 
L 1082.138647 49.339221 
L 1082.222768 49.339221 
L 1082.226274 48.880344 
L 1094.897007 48.880344 
L 1094.900512 48.421467 
L 1095.019684 48.421467 
L 1095.023189 47.96259 
L 1095.15638 47.96259 
L 1095.236996 47.044835 
L 1095.324622 47.044835 
L 1095.429774 46.127081 
L 1103.992596 46.127081 
L 1104.080222 45.209327 
L 1104.146818 45.209327 
L 1104.234444 44.291573 
L 1104.420211 44.291573 
L 1104.525362 43.373819 
L 1106.354995 43.373819 
L 1106.481177 42.914942 
L 1113.018084 42.914942 
L 1113.039114 42.456065 
L 1113.883829 42.456065 
L 1114.507727 41.997187 
L 1114.507727 41.997187 
" clip-path="url(#p1c1d67cd32)" style="fill: none; stroke: #0000ff; stroke-width: 1.5; stroke-linecap: square"/>
   </g>
   <g id="patch_121">
    <path d="M 49.235 359.517187 
L 49.235 26.877187 
" style="fill: none; stroke: #000000; stroke-width: 0.8; stroke-linejoin: miter; stroke-linecap: square"/>
   </g>
   <g id="patch_122">
    <path d="M 1165.235 359.517187 
L 1165.235 26.877187 
" style="fill: none; stroke: #000000; stroke-width: 0.8; stroke-linejoin: miter; stroke-linecap: square"/>
   </g>
   <g id="patch_123">
    <path d="M 49.235 359.517187 
L 1165.235 359.517187 
" style="fill: none; stroke: #000000; stroke-width: 0.8; stroke-linejoin: miter; stroke-linecap: square"/>
   </g>
   <g id="patch_124">
    <path d="M 49.235 26.877187 
L 1165.235 26.877187 
" style="fill: none; stroke: #000000; stroke-width: 0.8; stroke-linejoin: miter; stroke-linecap: square"/>
   </g>
   <g id="text_17">
    <!-- Pellet Count and Cumulative Sum Over Time of Group 5 Mouse 4 -->
    <g transform="translate(315.460625 20.877187) scale(0.18 -0.18)">
     <defs>
      <path id="DejaVuSans-61" d="M 2194 1759 
Q 1497 1759 1228 1600 
Q 959 1441 959 1056 
Q 959 750 1161 570 
Q 1363 391 1709 391 
Q 2188 391 2477 730 
Q 2766 1069 2766 1631 
L 2766 1759 
L 2194 1759 
z
M 3341 1997 
L 3341 0 
L 2766 0 
L 2766 531 
Q 2569 213 2275 61 
Q 1981 -91 1556 -91 
Q 1019 -91 701 211 
Q 384 513 384 1019 
Q 384 1609 779 1909 
Q 1175 2209 1959 2209 
L 2766 2209 
L 2766 2266 
Q 2766 2663 2505 2880 
Q 2244 3097 1772 3097 
Q 1472 3097 1187 3025 
Q 903 2953 641 2809 
L 641 3341 
Q 956 3463 1253 3523 
Q 1550 3584 1831 3584 
Q 2591 3584 2966 3190 
Q 3341 2797 3341 1997 
z
" transform="scale(0.015625)"/>
      <path id="DejaVuSans-64" d="M 2906 2969 
L 2906 4863 
L 3481 4863 
L 3481 0 
L 2906 0 
L 2906 525 
Q 2725 213 2448 61 
Q 2172 -91 1784 -91 
Q 1150 -91 751 415 
Q 353 922 353 1747 
Q 353 2572 751 3078 
Q 1150 3584 1784 3584 
Q 2172 3584 2448 3432 
Q 2725 3281 2906 2969 
z
M 947 1747 
Q 947 1113 1208 752 
Q 1469 391 1925 391 
Q 2381 391 2643 752 
Q 2906 1113 2906 1747 
Q 2906 2381 2643 2742 
Q 2381 3103 1925 3103 
Q 1469 3103 1208 2742 
Q 947 2381 947 1747 
z
" transform="scale(0.015625)"/>
      <path id="DejaVuSans-76" d="M 191 3500 
L 800 3500 
L 1894 563 
L 2988 3500 
L 3597 3500 
L 2284 0 
L 1503 0 
L 191 3500 
z
" transform="scale(0.015625)"/>
      <path id="DejaVuSans-53" d="M 3425 4513 
L 3425 3897 
Q 3066 4069 2747 4153 
Q 2428 4238 2131 4238 
Q 1616 4238 1336 4038 
Q 1056 3838 1056 3469 
Q 1056 3159 1242 3001 
Q 1428 2844 1947 2747 
L 2328 2669 
Q 3034 2534 3370 2195 
Q 3706 1856 3706 1288 
Q 3706 609 3251 259 
Q 2797 -91 1919 -91 
Q 1588 -91 1214 -16 
Q 841 59 441 206 
L 441 856 
Q 825 641 1194 531 
Q 1563 422 1919 422 
Q 2459 422 2753 634 
Q 3047 847 3047 1241 
Q 3047 1584 2836 1778 
Q 2625 1972 2144 2069 
L 1759 2144 
Q 1053 2284 737 2584 
Q 422 2884 422 3419 
Q 422 4038 858 4394 
Q 1294 4750 2059 4750 
Q 2388 4750 2728 4690 
Q 3069 4631 3425 4513 
z
" transform="scale(0.015625)"/>
      <path id="DejaVuSans-4f" d="M 2522 4238 
Q 1834 4238 1429 3725 
Q 1025 3213 1025 2328 
Q 1025 1447 1429 934 
Q 1834 422 2522 422 
Q 3209 422 3611 934 
Q 4013 1447 4013 2328 
Q 4013 3213 3611 3725 
Q 3209 4238 2522 4238 
z
M 2522 4750 
Q 3503 4750 4090 4092 
Q 4678 3434 4678 2328 
Q 4678 1225 4090 567 
Q 3503 -91 2522 -91 
Q 1538 -91 948 565 
Q 359 1222 359 2328 
Q 359 3434 948 4092 
Q 1538 4750 2522 4750 
z
" transform="scale(0.015625)"/>
      <path id="DejaVuSans-72" d="M 2631 2963 
Q 2534 3019 2420 3045 
Q 2306 3072 2169 3072 
Q 1681 3072 1420 2755 
Q 1159 2438 1159 1844 
L 1159 0 
L 581 0 
L 581 3500 
L 1159 3500 
L 1159 2956 
Q 1341 3275 1631 3429 
Q 1922 3584 2338 3584 
Q 2397 3584 2469 3576 
Q 2541 3569 2628 3553 
L 2631 2963 
z
" transform="scale(0.015625)"/>
      <path id="DejaVuSans-66" d="M 2375 4863 
L 2375 4384 
L 1825 4384 
Q 1516 4384 1395 4259 
Q 1275 4134 1275 3809 
L 1275 3500 
L 2222 3500 
L 2222 3053 
L 1275 3053 
L 1275 0 
L 697 0 
L 697 3053 
L 147 3053 
L 147 3500 
L 697 3500 
L 697 3744 
Q 697 4328 969 4595 
Q 1241 4863 1831 4863 
L 2375 4863 
z
" transform="scale(0.015625)"/>
      <path id="DejaVuSans-47" d="M 3809 666 
L 3809 1919 
L 2778 1919 
L 2778 2438 
L 4434 2438 
L 4434 434 
Q 4069 175 3628 42 
Q 3188 -91 2688 -91 
Q 1594 -91 976 548 
Q 359 1188 359 2328 
Q 359 3472 976 4111 
Q 1594 4750 2688 4750 
Q 3144 4750 3555 4637 
Q 3966 4525 4313 4306 
L 4313 3634 
Q 3963 3931 3569 4081 
Q 3175 4231 2741 4231 
Q 1884 4231 1454 3753 
Q 1025 3275 1025 2328 
Q 1025 1384 1454 906 
Q 1884 428 2741 428 
Q 3075 428 3337 486 
Q 3600 544 3809 666 
z
" transform="scale(0.015625)"/>
      <path id="DejaVuSans-70" d="M 1159 525 
L 1159 -1331 
L 581 -1331 
L 581 3500 
L 1159 3500 
L 1159 2969 
Q 1341 3281 1617 3432 
Q 1894 3584 2278 3584 
Q 2916 3584 3314 3078 
Q 3713 2572 3713 1747 
Q 3713 922 3314 415 
Q 2916 -91 2278 -91 
Q 1894 -91 1617 61 
Q 1341 213 1159 525 
z
M 3116 1747 
Q 3116 2381 2855 2742 
Q 2594 3103 2138 3103 
Q 1681 3103 1420 2742 
Q 1159 2381 1159 1747 
Q 1159 1113 1420 752 
Q 1681 391 2138 391 
Q 2594 391 2855 752 
Q 3116 1113 3116 1747 
z
" transform="scale(0.015625)"/>
      <path id="DejaVuSans-4d" d="M 628 4666 
L 1569 4666 
L 2759 1491 
L 3956 4666 
L 4897 4666 
L 4897 0 
L 4281 0 
L 4281 4097 
L 3078 897 
L 2444 897 
L 1241 4097 
L 1241 0 
L 628 0 
L 628 4666 
z
" transform="scale(0.015625)"/>
      <path id="DejaVuSans-73" d="M 2834 3397 
L 2834 2853 
Q 2591 2978 2328 3040 
Q 2066 3103 1784 3103 
Q 1356 3103 1142 2972 
Q 928 2841 928 2578 
Q 928 2378 1081 2264 
Q 1234 2150 1697 2047 
L 1894 2003 
Q 2506 1872 2764 1633 
Q 3022 1394 3022 966 
Q 3022 478 2636 193 
Q 2250 -91 1575 -91 
Q 1294 -91 989 -36 
Q 684 19 347 128 
L 347 722 
Q 666 556 975 473 
Q 1284 391 1588 391 
Q 1994 391 2212 530 
Q 2431 669 2431 922 
Q 2431 1156 2273 1281 
Q 2116 1406 1581 1522 
L 1381 1569 
Q 847 1681 609 1914 
Q 372 2147 372 2553 
Q 372 3047 722 3315 
Q 1072 3584 1716 3584 
Q 2034 3584 2315 3537 
Q 2597 3491 2834 3397 
z
" transform="scale(0.015625)"/>
     </defs>
     <use xlink:href="#DejaVuSans-50"/>
     <use xlink:href="#DejaVuSans-65" x="56.677734"/>
     <use xlink:href="#DejaVuSans-6c" x="118.201172"/>
     <use xlink:href="#DejaVuSans-6c" x="145.984375"/>
     <use xlink:href="#DejaVuSans-65" x="173.767578"/>
     <use xlink:href="#DejaVuSans-74" x="235.291016"/>
     <use xlink:href="#DejaVuSans-20" x="274.5"/>
     <use xlink:href="#DejaVuSans-43" x="306.287109"/>
     <use xlink:href="#DejaVuSans-6f" x="376.111328"/>
     <use xlink:href="#DejaVuSans-75" x="437.292969"/>
     <use xlink:href="#DejaVuSans-6e" x="500.671875"/>
     <use xlink:href="#DejaVuSans-74" x="564.050781"/>
     <use xlink:href="#DejaVuSans-20" x="603.259766"/>
     <use xlink:href="#DejaVuSans-61" x="635.046875"/>
     <use xlink:href="#DejaVuSans-6e" x="696.326172"/>
     <use xlink:href="#DejaVuSans-64" x="759.705078"/>
     <use xlink:href="#DejaVuSans-20" x="823.181641"/>
     <use xlink:href="#DejaVuSans-43" x="854.96875"/>
     <use xlink:href="#DejaVuSans-75" x="924.792969"/>
     <use xlink:href="#DejaVuSans-6d" x="988.171875"/>
     <use xlink:href="#DejaVuSans-75" x="1085.583984"/>
     <use xlink:href="#DejaVuSans-6c" x="1148.962891"/>
     <use xlink:href="#DejaVuSans-61" x="1176.746094"/>
     <use xlink:href="#DejaVuSans-74" x="1238.025391"/>
     <use xlink:href="#DejaVuSans-69" x="1277.234375"/>
     <use xlink:href="#DejaVuSans-76" x="1305.017578"/>
     <use xlink:href="#DejaVuSans-65" x="1364.197266"/>
     <use xlink:href="#DejaVuSans-20" x="1425.720703"/>
     <use xlink:href="#DejaVuSans-53" x="1457.507812"/>
     <use xlink:href="#DejaVuSans-75" x="1520.984375"/>
     <use xlink:href="#DejaVuSans-6d" x="1584.363281"/>
     <use xlink:href="#DejaVuSans-20" x="1681.775391"/>
     <use xlink:href="#DejaVuSans-4f" x="1713.5625"/>
     <use xlink:href="#DejaVuSans-76" x="1792.273438"/>
     <use xlink:href="#DejaVuSans-65" x="1851.453125"/>
     <use xlink:href="#DejaVuSans-72" x="1912.976562"/>
     <use xlink:href="#DejaVuSans-20" x="1954.089844"/>
     <use xlink:href="#DejaVuSans-54" x="1985.876953"/>
     <use xlink:href="#DejaVuSans-69" x="2043.835938"/>
     <use xlink:href="#DejaVuSans-6d" x="2071.619141"/>
     <use xlink:href="#DejaVuSans-65" x="2169.03125"/>
     <use xlink:href="#DejaVuSans-20" x="2230.554688"/>
     <use xlink:href="#DejaVuSans-6f" x="2262.341797"/>
     <use xlink:href="#DejaVuSans-66" x="2323.523438"/>
     <use xlink:href="#DejaVuSans-20" x="2358.728516"/>
     <use xlink:href="#DejaVuSans-47" x="2390.515625"/>
     <use xlink:href="#DejaVuSans-72" x="2468.005859"/>
     <use xlink:href="#DejaVuSans-6f" x="2506.869141"/>
     <use xlink:href="#DejaVuSans-75" x="2568.050781"/>
     <use xlink:href="#DejaVuSans-70" x="2631.429688"/>
     <use xlink:href="#DejaVuSans-20" x="2694.90625"/>
     <use xlink:href="#DejaVuSans-35" x="2726.693359"/>
     <use xlink:href="#DejaVuSans-20" x="2790.316406"/>
     <use xlink:href="#DejaVuSans-4d" x="2822.103516"/>
     <use xlink:href="#DejaVuSans-6f" x="2908.382812"/>
     <use xlink:href="#DejaVuSans-75" x="2969.564453"/>
     <use xlink:href="#DejaVuSans-73" x="3032.943359"/>
     <use xlink:href="#DejaVuSans-65" x="3085.042969"/>
     <use xlink:href="#DejaVuSans-20" x="3146.566406"/>
     <use xlink:href="#DejaVuSans-34" x="3178.353516"/>
    </g>
   </g>
   <g id="legend_1">
    <g id="patch_125">
     <path d="M 1086.550625 64.233437 
L 1158.235 64.233437 
Q 1160.235 64.233437 1160.235 62.233437 
L 1160.235 33.877187 
Q 1160.235 31.877187 1158.235 31.877187 
L 1086.550625 31.877187 
Q 1084.550625 31.877187 1084.550625 33.877187 
L 1084.550625 62.233437 
Q 1084.550625 64.233437 1086.550625 64.233437 
z
" style="fill: #ffffff; opacity: 0.8; stroke: #cccccc; stroke-linejoin: miter"/>
    </g>
    <g id="patch_126">
     <path d="M 1088.550625 43.475625 
L 1108.550625 43.475625 
L 1108.550625 36.475625 
L 1088.550625 36.475625 
z
" style="fill: #add8e6; opacity: 0.9; stroke: #add8e6; stroke-linejoin: miter"/>
    </g>
    <g id="text_18">
     <!-- Meal -->
     <g transform="translate(1116.550625 43.475625) scale(0.1 -0.1)">
      <use xlink:href="#DejaVuSans-4d"/>
      <use xlink:href="#DejaVuSans-65" x="86.279297"/>
      <use xlink:href="#DejaVuSans-61" x="147.802734"/>
      <use xlink:href="#DejaVuSans-6c" x="209.082031"/>
     </g>
    </g>
    <g id="patch_127">
     <path d="M 1088.550625 58.15375 
L 1108.550625 58.15375 
L 1108.550625 51.15375 
L 1088.550625 51.15375 
z
" style="fill: #808080; opacity: 0.5; stroke: #808080; stroke-linejoin: miter"/>
    </g>
    <g id="text_19">
     <!-- Inactive -->
     <g transform="translate(1116.550625 58.15375) scale(0.1 -0.1)">
      <defs>
       <path id="DejaVuSans-49" d="M 628 4666 
L 1259 4666 
L 1259 0 
L 628 0 
L 628 4666 
z
" transform="scale(0.015625)"/>
       <path id="DejaVuSans-63" d="M 3122 3366 
L 3122 2828 
Q 2878 2963 2633 3030 
Q 2388 3097 2138 3097 
Q 1578 3097 1268 2742 
Q 959 2388 959 1747 
Q 959 1106 1268 751 
Q 1578 397 2138 397 
Q 2388 397 2633 464 
Q 2878 531 3122 666 
L 3122 134 
Q 2881 22 2623 -34 
Q 2366 -91 2075 -91 
Q 1284 -91 818 406 
Q 353 903 353 1747 
Q 353 2603 823 3093 
Q 1294 3584 2113 3584 
Q 2378 3584 2631 3529 
Q 2884 3475 3122 3366 
z
" transform="scale(0.015625)"/>
      </defs>
      <use xlink:href="#DejaVuSans-49"/>
      <use xlink:href="#DejaVuSans-6e" x="29.492188"/>
      <use xlink:href="#DejaVuSans-61" x="92.871094"/>
      <use xlink:href="#DejaVuSans-63" x="154.150391"/>
      <use xlink:href="#DejaVuSans-74" x="209.130859"/>
      <use xlink:href="#DejaVuSans-69" x="248.339844"/>
      <use xlink:href="#DejaVuSans-76" x="276.123047"/>
      <use xlink:href="#DejaVuSans-65" x="335.302734"/>
     </g>
    </g>
   </g>
  </g>
 </g>
 <defs>
  <clipPath id="p1c1d67cd32">
   <rect x="49.235" y="26.877187" width="1116" height="332.64"/>
  </clipPath>
 </defs>
</svg>
