<?xml version="1.0" encoding="utf-8" standalone="no"?>
<!DOCTYPE svg PUBLIC "-//W3C//DTD SVG 1.1//EN"
  "http://www.w3.org/Graphics/SVG/1.1/DTD/svg11.dtd">
<svg xmlns:xlink="http://www.w3.org/1999/xlink" width="860.3475pt" height="424.665pt" viewBox="0 0 860.3475 424.665" xmlns="http://www.w3.org/2000/svg" version="1.1">
 <metadata>
  <rdf:RDF xmlns:dc="http://purl.org/dc/elements/1.1/" xmlns:cc="http://creativecommons.org/ns#" xmlns:rdf="http://www.w3.org/1999/02/22-rdf-syntax-ns#">
   <cc:Work>
    <dc:type rdf:resource="http://purl.org/dc/dcmitype/StillImage"/>
    <dc:date>2025-12-24T12:54:11.530055</dc:date>
    <dc:format>image/svg+xml</dc:format>
    <dc:creator>
     <cc:Agent>
      <dc:title>Matplotlib v3.8.4, https://matplotlib.org/</dc:title>
     </cc:Agent>
    </dc:creator>
   </cc:Work>
  </rdf:RDF>
 </metadata>
 <defs>
  <style type="text/css">*{stroke-linejoin: round; stroke-linecap: butt}</style>
 </defs>
 <g id="figure_1">
  <g id="patch_1">
   <path d="M 0 424.665 
L 860.3475 424.665 
L 860.3475 0 
L 0 0 
z
" style="fill: #ffffff"/>
  </g>
  <g id="axes_1">
   <g id="patch_2">
    <path d="M 54.015 383.2375 
L 423.055 383.2375 
L 423.055 25.3575 
L 54.015 25.3575 
z
" style="fill: #ffffff"/>
   </g>
   <g id="PolyCollection_1">
    <defs>
     <path id="mc67bcc73df" d="M 151.815995 -289.710011 
L 140.734005 -289.710011 
L 140.460396 -290.49209 
L 140.186147 -291.274168 
L 139.911935 -292.056247 
L 139.638383 -292.838326 
L 139.366052 -293.620404 
L 139.095427 -294.402483 
L 138.826907 -295.184562 
L 138.560797 -295.966641 
L 138.297297 -296.748719 
L 138.036504 -297.530798 
L 137.7784 -298.312877 
L 137.522856 -299.094955 
L 137.269633 -299.877034 
L 137.018387 -300.659113 
L 136.768672 -301.441192 
L 136.519957 -302.22327 
L 136.271632 -303.005349 
L 136.023028 -303.787428 
L 135.773431 -304.569506 
L 135.522103 -305.351585 
L 135.268306 -306.133664 
L 135.011316 -306.915743 
L 134.750454 -307.697821 
L 134.485102 -308.4799 
L 134.214728 -309.261979 
L 133.938903 -310.044057 
L 133.657321 -310.826136 
L 133.369813 -311.608215 
L 133.076361 -312.390294 
L 132.777103 -313.172372 
L 132.472342 -313.954451 
L 132.162543 -314.73653 
L 131.848333 -315.518608 
L 131.530488 -316.300687 
L 131.209926 -317.082766 
L 130.887689 -317.864845 
L 130.564921 -318.646923 
L 130.24285 -319.429002 
L 129.922757 -320.211081 
L 129.605955 -320.993159 
L 129.293753 -321.775238 
L 128.987431 -322.557317 
L 128.688211 -323.339396 
L 128.397225 -324.121474 
L 128.115494 -324.903553 
L 127.843898 -325.685632 
L 127.583156 -326.46771 
L 127.333813 -327.249789 
L 127.096223 -328.031868 
L 126.870543 -328.813947 
L 126.656728 -329.596025 
L 126.454537 -330.378104 
L 126.263539 -331.160183 
L 126.083129 -331.942261 
L 125.912546 -332.72434 
L 125.750898 -333.506419 
L 125.597191 -334.288498 
L 125.450363 -335.070576 
L 125.30932 -335.852655 
L 125.172975 -336.634734 
L 125.040285 -337.416812 
L 124.910297 -338.198891 
L 124.782183 -338.98097 
L 124.65528 -339.763049 
L 124.529124 -340.545127 
L 124.403482 -341.327206 
L 124.278375 -342.109285 
L 124.154102 -342.891363 
L 124.031251 -343.673442 
L 123.910709 -344.455521 
L 123.793658 -345.2376 
L 123.681568 -346.019678 
L 123.576186 -346.801757 
L 123.479508 -347.583836 
L 123.393752 -348.365914 
L 123.321325 -349.147993 
L 123.264779 -349.930072 
L 123.226769 -350.712151 
L 123.21 -351.494229 
L 123.217181 -352.276308 
L 123.250968 -353.058387 
L 123.313912 -353.840465 
L 123.408408 -354.622544 
L 123.536645 -355.404623 
L 123.700554 -356.186702 
L 123.901771 -356.96878 
L 124.141594 -357.750859 
L 124.420954 -358.532938 
L 124.740381 -359.315016 
L 125.099995 -360.097095 
L 125.499481 -360.879174 
L 125.938094 -361.661253 
L 126.414657 -362.443331 
L 126.927569 -363.22541 
L 127.474827 -364.007489 
L 128.054045 -364.789567 
L 128.66249 -365.571646 
L 129.297114 -366.353725 
L 129.954599 -367.135804 
L 162.595401 -367.135804 
L 162.595401 -367.135804 
L 163.252886 -366.353725 
L 163.88751 -365.571646 
L 164.495955 -364.789567 
L 165.075173 -364.007489 
L 165.622431 -363.22541 
L 166.135343 -362.443331 
L 166.611906 -361.661253 
L 167.050519 -360.879174 
L 167.450005 -360.097095 
L 167.809619 -359.315016 
L 168.129046 -358.532938 
L 168.408406 -357.750859 
L 168.648229 -356.96878 
L 168.849446 -356.186702 
L 169.013355 -355.404623 
L 169.141592 -354.622544 
L 169.236088 -353.840465 
L 169.299032 -353.058387 
L 169.332819 -352.276308 
L 169.34 -351.494229 
L 169.323231 -350.712151 
L 169.285221 -349.930072 
L 169.228675 -349.147993 
L 169.156248 -348.365914 
L 169.070492 -347.583836 
L 168.973814 -346.801757 
L 168.868432 -346.019678 
L 168.756342 -345.2376 
L 168.639291 -344.455521 
L 168.518749 -343.673442 
L 168.395898 -342.891363 
L 168.271625 -342.109285 
L 168.146518 -341.327206 
L 168.020876 -340.545127 
L 167.89472 -339.763049 
L 167.767817 -338.98097 
L 167.639703 -338.198891 
L 167.509715 -337.416812 
L 167.377025 -336.634734 
L 167.24068 -335.852655 
L 167.099637 -335.070576 
L 166.952809 -334.288498 
L 166.799102 -333.506419 
L 166.637454 -332.72434 
L 166.466871 -331.942261 
L 166.286461 -331.160183 
L 166.095463 -330.378104 
L 165.893272 -329.596025 
L 165.679457 -328.813947 
L 165.453777 -328.031868 
L 165.216187 -327.249789 
L 164.966844 -326.46771 
L 164.706102 -325.685632 
L 164.434506 -324.903553 
L 164.152775 -324.121474 
L 163.861789 -323.339396 
L 163.562569 -322.557317 
L 163.256247 -321.775238 
L 162.944045 -320.993159 
L 162.627243 -320.211081 
L 162.30715 -319.429002 
L 161.985079 -318.646923 
L 161.662311 -317.864845 
L 161.340074 -317.082766 
L 161.019512 -316.300687 
L 160.701667 -315.518608 
L 160.387457 -314.73653 
L 160.077658 -313.954451 
L 159.772897 -313.172372 
L 159.473639 -312.390294 
L 159.180187 -311.608215 
L 158.892679 -310.826136 
L 158.611097 -310.044057 
L 158.335272 -309.261979 
L 158.064898 -308.4799 
L 157.799546 -307.697821 
L 157.538684 -306.915743 
L 157.281694 -306.133664 
L 157.027897 -305.351585 
L 156.776569 -304.569506 
L 156.526972 -303.787428 
L 156.278368 -303.005349 
L 156.030043 -302.22327 
L 155.781328 -301.441192 
L 155.531613 -300.659113 
L 155.280367 -299.877034 
L 155.027144 -299.094955 
L 154.7716 -298.312877 
L 154.513496 -297.530798 
L 154.252703 -296.748719 
L 153.989203 -295.966641 
L 153.723093 -295.184562 
L 153.454573 -294.402483 
L 153.183948 -293.620404 
L 152.911617 -292.838326 
L 152.638065 -292.056247 
L 152.363853 -291.274168 
L 152.089604 -290.49209 
L 151.815995 -289.710011 
z
" style="stroke: #000000; stroke-opacity: 0.65"/>
    </defs>
    <g clip-path="url(#p7a972d9536)">
     <use xlink:href="#mc67bcc73df" x="0" y="424.665" style="fill: #425df5; fill-opacity: 0.65; stroke: #000000; stroke-opacity: 0.65"/>
    </g>
   </g>
   <g id="PolyCollection_2">
    <defs>
     <path id="m3561c92e1c" d="M 332.952237 -163.332102 
L 328.637763 -163.332102 
L 328.548601 -165.414446 
L 328.458322 -167.49679 
L 328.36544 -169.579134 
L 328.268283 -171.661478 
L 328.165045 -173.743823 
L 328.053856 -175.826167 
L 327.932849 -177.908511 
L 327.800229 -179.990855 
L 327.654345 -182.073199 
L 327.493755 -184.155543 
L 327.317277 -186.237887 
L 327.124041 -188.320231 
L 326.913511 -190.402575 
L 326.685513 -192.484919 
L 326.440231 -194.567263 
L 326.178195 -196.649608 
L 325.900263 -198.731952 
L 325.607571 -200.814296 
L 325.301496 -202.89664 
L 324.983593 -204.978984 
L 324.655532 -207.061328 
L 324.319031 -209.143672 
L 323.975791 -211.226016 
L 323.627424 -213.30836 
L 323.27539 -215.390704 
L 322.920939 -217.473048 
L 322.565053 -219.555392 
L 322.208408 -221.637737 
L 321.851336 -223.720081 
L 321.493804 -225.802425 
L 321.135403 -227.884769 
L 320.775361 -229.967113 
L 320.412553 -232.049457 
L 320.04555 -234.131801 
L 319.672664 -236.214145 
L 319.292025 -238.296489 
L 318.901656 -240.378833 
L 318.499578 -242.461177 
L 318.083913 -244.543521 
L 317.652992 -246.625866 
L 317.205475 -248.70821 
L 316.740458 -250.790554 
L 316.257574 -252.872898 
L 315.757085 -254.955242 
L 315.23995 -257.037586 
L 314.707874 -259.11993 
L 314.163329 -261.202274 
L 313.60955 -263.284618 
L 313.050494 -265.366962 
L 312.490785 -267.449306 
L 311.935615 -269.531651 
L 311.390637 -271.613995 
L 310.861832 -273.696339 
L 310.355368 -275.778683 
L 309.877447 -277.861027 
L 309.43416 -279.943371 
L 309.031344 -282.025715 
L 308.674451 -284.108059 
L 308.368433 -286.190403 
L 308.117653 -288.272747 
L 307.925808 -290.355091 
L 307.795883 -292.437435 
L 307.730117 -294.51978 
L 307.73 -296.602124 
L 307.796272 -298.684468 
L 307.928945 -300.766812 
L 308.127333 -302.849156 
L 308.390079 -304.9315 
L 308.7152 -307.013844 
L 309.100119 -309.096188 
L 309.541708 -311.178532 
L 310.036326 -313.260876 
L 310.579863 -315.34322 
L 311.167781 -317.425565 
L 311.795165 -319.507909 
L 312.456782 -321.590253 
L 313.14714 -323.672597 
L 313.860564 -325.754941 
L 314.591278 -327.837285 
L 315.333491 -329.919629 
L 316.081495 -332.001973 
L 316.829762 -334.084317 
L 317.573038 -336.166661 
L 318.306439 -338.249005 
L 319.025534 -340.331349 
L 319.72641 -342.413694 
L 320.405734 -344.496038 
L 321.060781 -346.578382 
L 321.689453 -348.660726 
L 322.290273 -350.74307 
L 322.862358 -352.825414 
L 323.405375 -354.907758 
L 323.91948 -356.990102 
L 324.405247 -359.072446 
L 324.86359 -361.15479 
L 325.295674 -363.237134 
L 325.702837 -365.319478 
L 326.086506 -367.401823 
L 326.448129 -369.484167 
L 335.141871 -369.484167 
L 335.141871 -369.484167 
L 335.503494 -367.401823 
L 335.887163 -365.319478 
L 336.294326 -363.237134 
L 336.72641 -361.15479 
L 337.184753 -359.072446 
L 337.67052 -356.990102 
L 338.184625 -354.907758 
L 338.727642 -352.825414 
L 339.299727 -350.74307 
L 339.900547 -348.660726 
L 340.529219 -346.578382 
L 341.184266 -344.496038 
L 341.86359 -342.413694 
L 342.564466 -340.331349 
L 343.283561 -338.249005 
L 344.016962 -336.166661 
L 344.760238 -334.084317 
L 345.508505 -332.001973 
L 346.256509 -329.919629 
L 346.998722 -327.837285 
L 347.729436 -325.754941 
L 348.44286 -323.672597 
L 349.133218 -321.590253 
L 349.794835 -319.507909 
L 350.422219 -317.425565 
L 351.010137 -315.34322 
L 351.553674 -313.260876 
L 352.048292 -311.178532 
L 352.489881 -309.096188 
L 352.8748 -307.013844 
L 353.199921 -304.9315 
L 353.462667 -302.849156 
L 353.661055 -300.766812 
L 353.793728 -298.684468 
L 353.86 -296.602124 
L 353.859883 -294.51978 
L 353.794117 -292.437435 
L 353.664192 -290.355091 
L 353.472347 -288.272747 
L 353.221567 -286.190403 
L 352.915549 -284.108059 
L 352.558656 -282.025715 
L 352.15584 -279.943371 
L 351.712553 -277.861027 
L 351.234632 -275.778683 
L 350.728168 -273.696339 
L 350.199363 -271.613995 
L 349.654385 -269.531651 
L 349.099215 -267.449306 
L 348.539506 -265.366962 
L 347.98045 -263.284618 
L 347.426671 -261.202274 
L 346.882126 -259.11993 
L 346.35005 -257.037586 
L 345.832915 -254.955242 
L 345.332426 -252.872898 
L 344.849542 -250.790554 
L 344.384525 -248.70821 
L 343.937008 -246.625866 
L 343.506087 -244.543521 
L 343.090422 -242.461177 
L 342.688344 -240.378833 
L 342.297975 -238.296489 
L 341.917336 -236.214145 
L 341.54445 -234.131801 
L 341.177447 -232.049457 
L 340.814639 -229.967113 
L 340.454597 -227.884769 
L 340.096196 -225.802425 
L 339.738664 -223.720081 
L 339.381592 -221.637737 
L 339.024947 -219.555392 
L 338.669061 -217.473048 
L 338.31461 -215.390704 
L 337.962576 -213.30836 
L 337.614209 -211.226016 
L 337.270969 -209.143672 
L 336.934468 -207.061328 
L 336.606407 -204.978984 
L 336.288504 -202.89664 
L 335.982429 -200.814296 
L 335.689737 -198.731952 
L 335.411805 -196.649608 
L 335.149769 -194.567263 
L 334.904487 -192.484919 
L 334.676489 -190.402575 
L 334.465959 -188.320231 
L 334.272723 -186.237887 
L 334.096245 -184.155543 
L 333.935655 -182.073199 
L 333.789771 -179.990855 
L 333.657151 -177.908511 
L 333.536144 -175.826167 
L 333.424955 -173.743823 
L 333.321717 -171.661478 
L 333.22456 -169.579134 
L 333.131678 -167.49679 
L 333.041399 -165.414446 
L 332.952237 -163.332102 
z
" style="stroke: #000000; stroke-opacity: 0.65"/>
    </defs>
    <g clip-path="url(#p7a972d9536)">
     <use xlink:href="#m3561c92e1c" x="0" y="424.665" style="fill: #f55442; fill-opacity: 0.65; stroke: #000000; stroke-opacity: 0.65"/>
    </g>
   </g>
   <g id="matplotlib.axis_1">
    <g id="xtick_1">
     <g id="line2d_1">
      <defs>
       <path id="m668310e885" d="M 0 0 
L 0 3.5 
" style="stroke: #000000; stroke-width: 0.8"/>
      </defs>
      <g>
       <use xlink:href="#m668310e885" x="146.275" y="383.2375" style="stroke: #000000; stroke-width: 0.8"/>
      </g>
     </g>
     <g id="text_1">
      <!-- cask -->
      <g transform="translate(134.961719 397.835937) scale(0.1 -0.1)">
       <defs>
        <path id="DejaVuSans-63" d="M 3122 3366 
L 3122 2828 
Q 2878 2963 2633 3030 
Q 2388 3097 2138 3097 
Q 1578 3097 1268 2742 
Q 959 2388 959 1747 
Q 959 1106 1268 751 
Q 1578 397 2138 397 
Q 2388 397 2633 464 
Q 2878 531 3122 666 
L 3122 134 
Q 2881 22 2623 -34 
Q 2366 -91 2075 -91 
Q 1284 -91 818 406 
Q 353 903 353 1747 
Q 353 2603 823 3093 
Q 1294 3584 2113 3584 
Q 2378 3584 2631 3529 
Q 2884 3475 3122 3366 
z
" transform="scale(0.015625)"/>
        <path id="DejaVuSans-61" d="M 2194 1759 
Q 1497 1759 1228 1600 
Q 959 1441 959 1056 
Q 959 750 1161 570 
Q 1363 391 1709 391 
Q 2188 391 2477 730 
Q 2766 1069 2766 1631 
L 2766 1759 
L 2194 1759 
z
M 3341 1997 
L 3341 0 
L 2766 0 
L 2766 531 
Q 2569 213 2275 61 
Q 1981 -91 1556 -91 
Q 1019 -91 701 211 
Q 384 513 384 1019 
Q 384 1609 779 1909 
Q 1175 2209 1959 2209 
L 2766 2209 
L 2766 2266 
Q 2766 2663 2505 2880 
Q 2244 3097 1772 3097 
Q 1472 3097 1187 3025 
Q 903 2953 641 2809 
L 641 3341 
Q 956 3463 1253 3523 
Q 1550 3584 1831 3584 
Q 2591 3584 2966 3190 
Q 3341 2797 3341 1997 
z
" transform="scale(0.015625)"/>
        <path id="DejaVuSans-73" d="M 2834 3397 
L 2834 2853 
Q 2591 2978 2328 3040 
Q 2066 3103 1784 3103 
Q 1356 3103 1142 2972 
Q 928 2841 928 2578 
Q 928 2378 1081 2264 
Q 1234 2150 1697 2047 
L 1894 2003 
Q 2506 1872 2764 1633 
Q 3022 1394 3022 966 
Q 3022 478 2636 193 
Q 2250 -91 1575 -91 
Q 1294 -91 989 -36 
Q 684 19 347 128 
L 347 722 
Q 666 556 975 473 
Q 1284 391 1588 391 
Q 1994 391 2212 530 
Q 2431 669 2431 922 
Q 2431 1156 2273 1281 
Q 2116 1406 1581 1522 
L 1381 1569 
Q 847 1681 609 1914 
Q 372 2147 372 2553 
Q 372 3047 722 3315 
Q 1072 3584 1716 3584 
Q 2034 3584 2315 3537 
Q 2597 3491 2834 3397 
z
" transform="scale(0.015625)"/>
        <path id="DejaVuSans-6b" d="M 581 4863 
L 1159 4863 
L 1159 1991 
L 2875 3500 
L 3609 3500 
L 1753 1863 
L 3688 0 
L 2938 0 
L 1159 1709 
L 1159 0 
L 581 0 
L 581 4863 
z
" transform="scale(0.015625)"/>
       </defs>
       <use xlink:href="#DejaVuSans-63"/>
       <use xlink:href="#DejaVuSans-61" x="54.980469"/>
       <use xlink:href="#DejaVuSans-73" x="116.259766"/>
       <use xlink:href="#DejaVuSans-6b" x="168.359375"/>
      </g>
     </g>
    </g>
    <g id="xtick_2">
     <g id="line2d_2">
      <g>
       <use xlink:href="#m668310e885" x="330.795" y="383.2375" style="stroke: #000000; stroke-width: 0.8"/>
      </g>
     </g>
     <g id="text_2">
      <!-- ctrl -->
      <g transform="translate(322.641094 397.835937) scale(0.1 -0.1)">
       <defs>
        <path id="DejaVuSans-74" d="M 1172 4494 
L 1172 3500 
L 2356 3500 
L 2356 3053 
L 1172 3053 
L 1172 1153 
Q 1172 725 1289 603 
Q 1406 481 1766 481 
L 2356 481 
L 2356 0 
L 1766 0 
Q 1100 0 847 248 
Q 594 497 594 1153 
L 594 3053 
L 172 3053 
L 172 3500 
L 594 3500 
L 594 4494 
L 1172 4494 
z
" transform="scale(0.015625)"/>
        <path id="DejaVuSans-72" d="M 2631 2963 
Q 2534 3019 2420 3045 
Q 2306 3072 2169 3072 
Q 1681 3072 1420 2755 
Q 1159 2438 1159 1844 
L 1159 0 
L 581 0 
L 581 3500 
L 1159 3500 
L 1159 2956 
Q 1341 3275 1631 3429 
Q 1922 3584 2338 3584 
Q 2397 3584 2469 3576 
Q 2541 3569 2628 3553 
L 2631 2963 
z
" transform="scale(0.015625)"/>
        <path id="DejaVuSans-6c" d="M 603 4863 
L 1178 4863 
L 1178 0 
L 603 0 
L 603 4863 
z
" transform="scale(0.015625)"/>
       </defs>
       <use xlink:href="#DejaVuSans-63"/>
       <use xlink:href="#DejaVuSans-74" x="54.980469"/>
       <use xlink:href="#DejaVuSans-72" x="94.189453"/>
       <use xlink:href="#DejaVuSans-6c" x="135.302734"/>
      </g>
     </g>
    </g>
    <g id="text_3">
     <!-- Groups -->
     <g transform="translate(213.581094 414.553437) scale(0.14 -0.14)">
      <defs>
       <path id="DejaVuSans-47" d="M 3809 666 
L 3809 1919 
L 2778 1919 
L 2778 2438 
L 4434 2438 
L 4434 434 
Q 4069 175 3628 42 
Q 3188 -91 2688 -91 
Q 1594 -91 976 548 
Q 359 1188 359 2328 
Q 359 3472 976 4111 
Q 1594 4750 2688 4750 
Q 3144 4750 3555 4637 
Q 3966 4525 4313 4306 
L 4313 3634 
Q 3963 3931 3569 4081 
Q 3175 4231 2741 4231 
Q 1884 4231 1454 3753 
Q 1025 3275 1025 2328 
Q 1025 1384 1454 906 
Q 1884 428 2741 428 
Q 3075 428 3337 486 
Q 3600 544 3809 666 
z
" transform="scale(0.015625)"/>
       <path id="DejaVuSans-6f" d="M 1959 3097 
Q 1497 3097 1228 2736 
Q 959 2375 959 1747 
Q 959 1119 1226 758 
Q 1494 397 1959 397 
Q 2419 397 2687 759 
Q 2956 1122 2956 1747 
Q 2956 2369 2687 2733 
Q 2419 3097 1959 3097 
z
M 1959 3584 
Q 2709 3584 3137 3096 
Q 3566 2609 3566 1747 
Q 3566 888 3137 398 
Q 2709 -91 1959 -91 
Q 1206 -91 779 398 
Q 353 888 353 1747 
Q 353 2609 779 3096 
Q 1206 3584 1959 3584 
z
" transform="scale(0.015625)"/>
       <path id="DejaVuSans-75" d="M 544 1381 
L 544 3500 
L 1119 3500 
L 1119 1403 
Q 1119 906 1312 657 
Q 1506 409 1894 409 
Q 2359 409 2629 706 
Q 2900 1003 2900 1516 
L 2900 3500 
L 3475 3500 
L 3475 0 
L 2900 0 
L 2900 538 
Q 2691 219 2414 64 
Q 2138 -91 1772 -91 
Q 1169 -91 856 284 
Q 544 659 544 1381 
z
M 1991 3584 
L 1991 3584 
z
" transform="scale(0.015625)"/>
       <path id="DejaVuSans-70" d="M 1159 525 
L 1159 -1331 
L 581 -1331 
L 581 3500 
L 1159 3500 
L 1159 2969 
Q 1341 3281 1617 3432 
Q 1894 3584 2278 3584 
Q 2916 3584 3314 3078 
Q 3713 2572 3713 1747 
Q 3713 922 3314 415 
Q 2916 -91 2278 -91 
Q 1894 -91 1617 61 
Q 1341 213 1159 525 
z
M 3116 1747 
Q 3116 2381 2855 2742 
Q 2594 3103 2138 3103 
Q 1681 3103 1420 2742 
Q 1159 2381 1159 1747 
Q 1159 1113 1420 752 
Q 1681 391 2138 391 
Q 2594 391 2855 752 
Q 3116 1113 3116 1747 
z
" transform="scale(0.015625)"/>
      </defs>
      <use xlink:href="#DejaVuSans-47"/>
      <use xlink:href="#DejaVuSans-72" x="77.490234"/>
      <use xlink:href="#DejaVuSans-6f" x="116.353516"/>
      <use xlink:href="#DejaVuSans-75" x="177.535156"/>
      <use xlink:href="#DejaVuSans-70" x="240.914062"/>
      <use xlink:href="#DejaVuSans-73" x="304.390625"/>
     </g>
    </g>
   </g>
   <g id="matplotlib.axis_2">
    <g id="ytick_1">
     <g id="line2d_3">
      <path d="M 54.015 378.41853 
L 423.055 378.41853 
" clip-path="url(#p7a972d9536)" style="fill: none; stroke-dasharray: 2.96,1.28; stroke-dashoffset: 0; stroke: #b0b0b0; stroke-opacity: 0.3; stroke-width: 0.8"/>
     </g>
     <g id="line2d_4">
      <defs>
       <path id="m1aedcb7751" d="M 0 0 
L -3.5 0 
" style="stroke: #000000; stroke-width: 0.8"/>
      </defs>
      <g>
       <use xlink:href="#m1aedcb7751" x="54.015" y="378.41853" style="stroke: #000000; stroke-width: 0.8"/>
      </g>
     </g>
     <g id="text_4">
      <!-- 0.50 -->
      <g transform="translate(24.749375 382.217749) scale(0.1 -0.1)">
       <defs>
        <path id="DejaVuSans-30" d="M 2034 4250 
Q 1547 4250 1301 3770 
Q 1056 3291 1056 2328 
Q 1056 1369 1301 889 
Q 1547 409 2034 409 
Q 2525 409 2770 889 
Q 3016 1369 3016 2328 
Q 3016 3291 2770 3770 
Q 2525 4250 2034 4250 
z
M 2034 4750 
Q 2819 4750 3233 4129 
Q 3647 3509 3647 2328 
Q 3647 1150 3233 529 
Q 2819 -91 2034 -91 
Q 1250 -91 836 529 
Q 422 1150 422 2328 
Q 422 3509 836 4129 
Q 1250 4750 2034 4750 
z
" transform="scale(0.015625)"/>
        <path id="DejaVuSans-2e" d="M 684 794 
L 1344 794 
L 1344 0 
L 684 0 
L 684 794 
z
" transform="scale(0.015625)"/>
        <path id="DejaVuSans-35" d="M 691 4666 
L 3169 4666 
L 3169 4134 
L 1269 4134 
L 1269 2991 
Q 1406 3038 1543 3061 
Q 1681 3084 1819 3084 
Q 2600 3084 3056 2656 
Q 3513 2228 3513 1497 
Q 3513 744 3044 326 
Q 2575 -91 1722 -91 
Q 1428 -91 1123 -41 
Q 819 9 494 109 
L 494 744 
Q 775 591 1075 516 
Q 1375 441 1709 441 
Q 2250 441 2565 725 
Q 2881 1009 2881 1497 
Q 2881 1984 2565 2268 
Q 2250 2553 1709 2553 
Q 1456 2553 1204 2497 
Q 953 2441 691 2322 
L 691 4666 
z
" transform="scale(0.015625)"/>
       </defs>
       <use xlink:href="#DejaVuSans-30"/>
       <use xlink:href="#DejaVuSans-2e" x="63.623047"/>
       <use xlink:href="#DejaVuSans-35" x="95.410156"/>
       <use xlink:href="#DejaVuSans-30" x="159.033203"/>
      </g>
     </g>
    </g>
    <g id="ytick_2">
     <g id="line2d_5">
      <path d="M 54.015 342.228004 
L 423.055 342.228004 
" clip-path="url(#p7a972d9536)" style="fill: none; stroke-dasharray: 2.96,1.28; stroke-dashoffset: 0; stroke: #b0b0b0; stroke-opacity: 0.3; stroke-width: 0.8"/>
     </g>
     <g id="line2d_6">
      <g>
       <use xlink:href="#m1aedcb7751" x="54.015" y="342.228004" style="stroke: #000000; stroke-width: 0.8"/>
      </g>
     </g>
     <g id="text_5">
      <!-- 0.55 -->
      <g transform="translate(24.749375 346.027223) scale(0.1 -0.1)">
       <use xlink:href="#DejaVuSans-30"/>
       <use xlink:href="#DejaVuSans-2e" x="63.623047"/>
       <use xlink:href="#DejaVuSans-35" x="95.410156"/>
       <use xlink:href="#DejaVuSans-35" x="159.033203"/>
      </g>
     </g>
    </g>
    <g id="ytick_3">
     <g id="line2d_7">
      <path d="M 54.015 306.037478 
L 423.055 306.037478 
" clip-path="url(#p7a972d9536)" style="fill: none; stroke-dasharray: 2.96,1.28; stroke-dashoffset: 0; stroke: #b0b0b0; stroke-opacity: 0.3; stroke-width: 0.8"/>
     </g>
     <g id="line2d_8">
      <g>
       <use xlink:href="#m1aedcb7751" x="54.015" y="306.037478" style="stroke: #000000; stroke-width: 0.8"/>
      </g>
     </g>
     <g id="text_6">
      <!-- 0.60 -->
      <g transform="translate(24.749375 309.836696) scale(0.1 -0.1)">
       <defs>
        <path id="DejaVuSans-36" d="M 2113 2584 
Q 1688 2584 1439 2293 
Q 1191 2003 1191 1497 
Q 1191 994 1439 701 
Q 1688 409 2113 409 
Q 2538 409 2786 701 
Q 3034 994 3034 1497 
Q 3034 2003 2786 2293 
Q 2538 2584 2113 2584 
z
M 3366 4563 
L 3366 3988 
Q 3128 4100 2886 4159 
Q 2644 4219 2406 4219 
Q 1781 4219 1451 3797 
Q 1122 3375 1075 2522 
Q 1259 2794 1537 2939 
Q 1816 3084 2150 3084 
Q 2853 3084 3261 2657 
Q 3669 2231 3669 1497 
Q 3669 778 3244 343 
Q 2819 -91 2113 -91 
Q 1303 -91 875 529 
Q 447 1150 447 2328 
Q 447 3434 972 4092 
Q 1497 4750 2381 4750 
Q 2619 4750 2861 4703 
Q 3103 4656 3366 4563 
z
" transform="scale(0.015625)"/>
       </defs>
       <use xlink:href="#DejaVuSans-30"/>
       <use xlink:href="#DejaVuSans-2e" x="63.623047"/>
       <use xlink:href="#DejaVuSans-36" x="95.410156"/>
       <use xlink:href="#DejaVuSans-30" x="159.033203"/>
      </g>
     </g>
    </g>
    <g id="ytick_4">
     <g id="line2d_9">
      <path d="M 54.015 269.846951 
L 423.055 269.846951 
" clip-path="url(#p7a972d9536)" style="fill: none; stroke-dasharray: 2.96,1.28; stroke-dashoffset: 0; stroke: #b0b0b0; stroke-opacity: 0.3; stroke-width: 0.8"/>
     </g>
     <g id="line2d_10">
      <g>
       <use xlink:href="#m1aedcb7751" x="54.015" y="269.846951" style="stroke: #000000; stroke-width: 0.8"/>
      </g>
     </g>
     <g id="text_7">
      <!-- 0.65 -->
      <g transform="translate(24.749375 273.64617) scale(0.1 -0.1)">
       <use xlink:href="#DejaVuSans-30"/>
       <use xlink:href="#DejaVuSans-2e" x="63.623047"/>
       <use xlink:href="#DejaVuSans-36" x="95.410156"/>
       <use xlink:href="#DejaVuSans-35" x="159.033203"/>
      </g>
     </g>
    </g>
    <g id="ytick_5">
     <g id="line2d_11">
      <path d="M 54.015 233.656425 
L 423.055 233.656425 
" clip-path="url(#p7a972d9536)" style="fill: none; stroke-dasharray: 2.96,1.28; stroke-dashoffset: 0; stroke: #b0b0b0; stroke-opacity: 0.3; stroke-width: 0.8"/>
     </g>
     <g id="line2d_12">
      <g>
       <use xlink:href="#m1aedcb7751" x="54.015" y="233.656425" style="stroke: #000000; stroke-width: 0.8"/>
      </g>
     </g>
     <g id="text_8">
      <!-- 0.70 -->
      <g transform="translate(24.749375 237.455644) scale(0.1 -0.1)">
       <defs>
        <path id="DejaVuSans-37" d="M 525 4666 
L 3525 4666 
L 3525 4397 
L 1831 0 
L 1172 0 
L 2766 4134 
L 525 4134 
L 525 4666 
z
" transform="scale(0.015625)"/>
       </defs>
       <use xlink:href="#DejaVuSans-30"/>
       <use xlink:href="#DejaVuSans-2e" x="63.623047"/>
       <use xlink:href="#DejaVuSans-37" x="95.410156"/>
       <use xlink:href="#DejaVuSans-30" x="159.033203"/>
      </g>
     </g>
    </g>
    <g id="ytick_6">
     <g id="line2d_13">
      <path d="M 54.015 197.465898 
L 423.055 197.465898 
" clip-path="url(#p7a972d9536)" style="fill: none; stroke-dasharray: 2.96,1.28; stroke-dashoffset: 0; stroke: #b0b0b0; stroke-opacity: 0.3; stroke-width: 0.8"/>
     </g>
     <g id="line2d_14">
      <g>
       <use xlink:href="#m1aedcb7751" x="54.015" y="197.465898" style="stroke: #000000; stroke-width: 0.8"/>
      </g>
     </g>
     <g id="text_9">
      <!-- 0.75 -->
      <g transform="translate(24.749375 201.265117) scale(0.1 -0.1)">
       <use xlink:href="#DejaVuSans-30"/>
       <use xlink:href="#DejaVuSans-2e" x="63.623047"/>
       <use xlink:href="#DejaVuSans-37" x="95.410156"/>
       <use xlink:href="#DejaVuSans-35" x="159.033203"/>
      </g>
     </g>
    </g>
    <g id="ytick_7">
     <g id="line2d_15">
      <path d="M 54.015 161.275372 
L 423.055 161.275372 
" clip-path="url(#p7a972d9536)" style="fill: none; stroke-dasharray: 2.96,1.28; stroke-dashoffset: 0; stroke: #b0b0b0; stroke-opacity: 0.3; stroke-width: 0.8"/>
     </g>
     <g id="line2d_16">
      <g>
       <use xlink:href="#m1aedcb7751" x="54.015" y="161.275372" style="stroke: #000000; stroke-width: 0.8"/>
      </g>
     </g>
     <g id="text_10">
      <!-- 0.80 -->
      <g transform="translate(24.749375 165.074591) scale(0.1 -0.1)">
       <defs>
        <path id="DejaVuSans-38" d="M 2034 2216 
Q 1584 2216 1326 1975 
Q 1069 1734 1069 1313 
Q 1069 891 1326 650 
Q 1584 409 2034 409 
Q 2484 409 2743 651 
Q 3003 894 3003 1313 
Q 3003 1734 2745 1975 
Q 2488 2216 2034 2216 
z
M 1403 2484 
Q 997 2584 770 2862 
Q 544 3141 544 3541 
Q 544 4100 942 4425 
Q 1341 4750 2034 4750 
Q 2731 4750 3128 4425 
Q 3525 4100 3525 3541 
Q 3525 3141 3298 2862 
Q 3072 2584 2669 2484 
Q 3125 2378 3379 2068 
Q 3634 1759 3634 1313 
Q 3634 634 3220 271 
Q 2806 -91 2034 -91 
Q 1263 -91 848 271 
Q 434 634 434 1313 
Q 434 1759 690 2068 
Q 947 2378 1403 2484 
z
M 1172 3481 
Q 1172 3119 1398 2916 
Q 1625 2713 2034 2713 
Q 2441 2713 2670 2916 
Q 2900 3119 2900 3481 
Q 2900 3844 2670 4047 
Q 2441 4250 2034 4250 
Q 1625 4250 1398 4047 
Q 1172 3844 1172 3481 
z
" transform="scale(0.015625)"/>
       </defs>
       <use xlink:href="#DejaVuSans-30"/>
       <use xlink:href="#DejaVuSans-2e" x="63.623047"/>
       <use xlink:href="#DejaVuSans-38" x="95.410156"/>
       <use xlink:href="#DejaVuSans-30" x="159.033203"/>
      </g>
     </g>
    </g>
    <g id="ytick_8">
     <g id="line2d_17">
      <path d="M 54.015 125.084846 
L 423.055 125.084846 
" clip-path="url(#p7a972d9536)" style="fill: none; stroke-dasharray: 2.96,1.28; stroke-dashoffset: 0; stroke: #b0b0b0; stroke-opacity: 0.3; stroke-width: 0.8"/>
     </g>
     <g id="line2d_18">
      <g>
       <use xlink:href="#m1aedcb7751" x="54.015" y="125.084846" style="stroke: #000000; stroke-width: 0.8"/>
      </g>
     </g>
     <g id="text_11">
      <!-- 0.85 -->
      <g transform="translate(24.749375 128.884064) scale(0.1 -0.1)">
       <use xlink:href="#DejaVuSans-30"/>
       <use xlink:href="#DejaVuSans-2e" x="63.623047"/>
       <use xlink:href="#DejaVuSans-38" x="95.410156"/>
       <use xlink:href="#DejaVuSans-35" x="159.033203"/>
      </g>
     </g>
    </g>
    <g id="ytick_9">
     <g id="line2d_19">
      <path d="M 54.015 88.894319 
L 423.055 88.894319 
" clip-path="url(#p7a972d9536)" style="fill: none; stroke-dasharray: 2.96,1.28; stroke-dashoffset: 0; stroke: #b0b0b0; stroke-opacity: 0.3; stroke-width: 0.8"/>
     </g>
     <g id="line2d_20">
      <g>
       <use xlink:href="#m1aedcb7751" x="54.015" y="88.894319" style="stroke: #000000; stroke-width: 0.8"/>
      </g>
     </g>
     <g id="text_12">
      <!-- 0.90 -->
      <g transform="translate(24.749375 92.693538) scale(0.1 -0.1)">
       <defs>
        <path id="DejaVuSans-39" d="M 703 97 
L 703 672 
Q 941 559 1184 500 
Q 1428 441 1663 441 
Q 2288 441 2617 861 
Q 2947 1281 2994 2138 
Q 2813 1869 2534 1725 
Q 2256 1581 1919 1581 
Q 1219 1581 811 2004 
Q 403 2428 403 3163 
Q 403 3881 828 4315 
Q 1253 4750 1959 4750 
Q 2769 4750 3195 4129 
Q 3622 3509 3622 2328 
Q 3622 1225 3098 567 
Q 2575 -91 1691 -91 
Q 1453 -91 1209 -44 
Q 966 3 703 97 
z
M 1959 2075 
Q 2384 2075 2632 2365 
Q 2881 2656 2881 3163 
Q 2881 3666 2632 3958 
Q 2384 4250 1959 4250 
Q 1534 4250 1286 3958 
Q 1038 3666 1038 3163 
Q 1038 2656 1286 2365 
Q 1534 2075 1959 2075 
z
" transform="scale(0.015625)"/>
       </defs>
       <use xlink:href="#DejaVuSans-30"/>
       <use xlink:href="#DejaVuSans-2e" x="63.623047"/>
       <use xlink:href="#DejaVuSans-39" x="95.410156"/>
       <use xlink:href="#DejaVuSans-30" x="159.033203"/>
      </g>
     </g>
    </g>
    <g id="ytick_10">
     <g id="line2d_21">
      <path d="M 54.015 52.703793 
L 423.055 52.703793 
" clip-path="url(#p7a972d9536)" style="fill: none; stroke-dasharray: 2.96,1.28; stroke-dashoffset: 0; stroke: #b0b0b0; stroke-opacity: 0.3; stroke-width: 0.8"/>
     </g>
     <g id="line2d_22">
      <g>
       <use xlink:href="#m1aedcb7751" x="54.015" y="52.703793" style="stroke: #000000; stroke-width: 0.8"/>
      </g>
     </g>
     <g id="text_13">
      <!-- 0.95 -->
      <g transform="translate(24.749375 56.503012) scale(0.1 -0.1)">
       <use xlink:href="#DejaVuSans-30"/>
       <use xlink:href="#DejaVuSans-2e" x="63.623047"/>
       <use xlink:href="#DejaVuSans-39" x="95.410156"/>
       <use xlink:href="#DejaVuSans-35" x="159.033203"/>
      </g>
     </g>
    </g>
    <g id="text_14">
     <!-- Pellet-in-Meal Ratio (ratio) -->
     <g transform="translate(17.837813 295.544687) rotate(-90) scale(0.14 -0.14)">
      <defs>
       <path id="DejaVuSans-50" d="M 1259 4147 
L 1259 2394 
L 2053 2394 
Q 2494 2394 2734 2622 
Q 2975 2850 2975 3272 
Q 2975 3691 2734 3919 
Q 2494 4147 2053 4147 
L 1259 4147 
z
M 628 4666 
L 2053 4666 
Q 2838 4666 3239 4311 
Q 3641 3956 3641 3272 
Q 3641 2581 3239 2228 
Q 2838 1875 2053 1875 
L 1259 1875 
L 1259 0 
L 628 0 
L 628 4666 
z
" transform="scale(0.015625)"/>
       <path id="DejaVuSans-65" d="M 3597 1894 
L 3597 1613 
L 953 1613 
Q 991 1019 1311 708 
Q 1631 397 2203 397 
Q 2534 397 2845 478 
Q 3156 559 3463 722 
L 3463 178 
Q 3153 47 2828 -22 
Q 2503 -91 2169 -91 
Q 1331 -91 842 396 
Q 353 884 353 1716 
Q 353 2575 817 3079 
Q 1281 3584 2069 3584 
Q 2775 3584 3186 3129 
Q 3597 2675 3597 1894 
z
M 3022 2063 
Q 3016 2534 2758 2815 
Q 2500 3097 2075 3097 
Q 1594 3097 1305 2825 
Q 1016 2553 972 2059 
L 3022 2063 
z
" transform="scale(0.015625)"/>
       <path id="DejaVuSans-2d" d="M 313 2009 
L 1997 2009 
L 1997 1497 
L 313 1497 
L 313 2009 
z
" transform="scale(0.015625)"/>
       <path id="DejaVuSans-69" d="M 603 3500 
L 1178 3500 
L 1178 0 
L 603 0 
L 603 3500 
z
M 603 4863 
L 1178 4863 
L 1178 4134 
L 603 4134 
L 603 4863 
z
" transform="scale(0.015625)"/>
       <path id="DejaVuSans-6e" d="M 3513 2113 
L 3513 0 
L 2938 0 
L 2938 2094 
Q 2938 2591 2744 2837 
Q 2550 3084 2163 3084 
Q 1697 3084 1428 2787 
Q 1159 2491 1159 1978 
L 1159 0 
L 581 0 
L 581 3500 
L 1159 3500 
L 1159 2956 
Q 1366 3272 1645 3428 
Q 1925 3584 2291 3584 
Q 2894 3584 3203 3211 
Q 3513 2838 3513 2113 
z
" transform="scale(0.015625)"/>
       <path id="DejaVuSans-4d" d="M 628 4666 
L 1569 4666 
L 2759 1491 
L 3956 4666 
L 4897 4666 
L 4897 0 
L 4281 0 
L 4281 4097 
L 3078 897 
L 2444 897 
L 1241 4097 
L 1241 0 
L 628 0 
L 628 4666 
z
" transform="scale(0.015625)"/>
       <path id="DejaVuSans-20" transform="scale(0.015625)"/>
       <path id="DejaVuSans-52" d="M 2841 2188 
Q 3044 2119 3236 1894 
Q 3428 1669 3622 1275 
L 4263 0 
L 3584 0 
L 2988 1197 
Q 2756 1666 2539 1819 
Q 2322 1972 1947 1972 
L 1259 1972 
L 1259 0 
L 628 0 
L 628 4666 
L 2053 4666 
Q 2853 4666 3247 4331 
Q 3641 3997 3641 3322 
Q 3641 2881 3436 2590 
Q 3231 2300 2841 2188 
z
M 1259 4147 
L 1259 2491 
L 2053 2491 
Q 2509 2491 2742 2702 
Q 2975 2913 2975 3322 
Q 2975 3731 2742 3939 
Q 2509 4147 2053 4147 
L 1259 4147 
z
" transform="scale(0.015625)"/>
       <path id="DejaVuSans-28" d="M 1984 4856 
Q 1566 4138 1362 3434 
Q 1159 2731 1159 2009 
Q 1159 1288 1364 580 
Q 1569 -128 1984 -844 
L 1484 -844 
Q 1016 -109 783 600 
Q 550 1309 550 2009 
Q 550 2706 781 3412 
Q 1013 4119 1484 4856 
L 1984 4856 
z
" transform="scale(0.015625)"/>
       <path id="DejaVuSans-29" d="M 513 4856 
L 1013 4856 
Q 1481 4119 1714 3412 
Q 1947 2706 1947 2009 
Q 1947 1309 1714 600 
Q 1481 -109 1013 -844 
L 513 -844 
Q 928 -128 1133 580 
Q 1338 1288 1338 2009 
Q 1338 2731 1133 3434 
Q 928 4138 513 4856 
z
" transform="scale(0.015625)"/>
      </defs>
      <use xlink:href="#DejaVuSans-50"/>
      <use xlink:href="#DejaVuSans-65" x="56.677734"/>
      <use xlink:href="#DejaVuSans-6c" x="118.201172"/>
      <use xlink:href="#DejaVuSans-6c" x="145.984375"/>
      <use xlink:href="#DejaVuSans-65" x="173.767578"/>
      <use xlink:href="#DejaVuSans-74" x="235.291016"/>
      <use xlink:href="#DejaVuSans-2d" x="274.5"/>
      <use xlink:href="#DejaVuSans-69" x="310.583984"/>
      <use xlink:href="#DejaVuSans-6e" x="338.367188"/>
      <use xlink:href="#DejaVuSans-2d" x="401.746094"/>
      <use xlink:href="#DejaVuSans-4d" x="437.830078"/>
      <use xlink:href="#DejaVuSans-65" x="524.109375"/>
      <use xlink:href="#DejaVuSans-61" x="585.632812"/>
      <use xlink:href="#DejaVuSans-6c" x="646.912109"/>
      <use xlink:href="#DejaVuSans-20" x="674.695312"/>
      <use xlink:href="#DejaVuSans-52" x="706.482422"/>
      <use xlink:href="#DejaVuSans-61" x="773.714844"/>
      <use xlink:href="#DejaVuSans-74" x="834.994141"/>
      <use xlink:href="#DejaVuSans-69" x="874.203125"/>
      <use xlink:href="#DejaVuSans-6f" x="901.986328"/>
      <use xlink:href="#DejaVuSans-20" x="963.167969"/>
      <use xlink:href="#DejaVuSans-28" x="994.955078"/>
      <use xlink:href="#DejaVuSans-72" x="1033.96875"/>
      <use xlink:href="#DejaVuSans-61" x="1075.082031"/>
      <use xlink:href="#DejaVuSans-74" x="1136.361328"/>
      <use xlink:href="#DejaVuSans-69" x="1175.570312"/>
      <use xlink:href="#DejaVuSans-6f" x="1203.353516"/>
      <use xlink:href="#DejaVuSans-29" x="1264.535156"/>
     </g>
    </g>
   </g>
   <g id="patch_3">
    <path d="M 132.436 101.465646 
L 160.114 101.465646 
L 160.114 69.92171 
L 132.436 69.92171 
L 132.436 101.465646 
z
" clip-path="url(#p7a972d9536)" style="fill: #ffffff; stroke: #000000; stroke-linejoin: miter"/>
   </g>
   <g id="line2d_23">
    <path d="M 146.275 101.465646 
L 146.275 134.954989 
" clip-path="url(#p7a972d9536)" style="fill: none; stroke: #000000; stroke-linecap: square"/>
   </g>
   <g id="line2d_24">
    <path d="M 146.275 69.92171 
L 146.275 57.529196 
" clip-path="url(#p7a972d9536)" style="fill: none; stroke: #000000; stroke-linecap: square"/>
   </g>
   <g id="line2d_25">
    <path d="M 139.3555 134.954989 
L 153.1945 134.954989 
" clip-path="url(#p7a972d9536)" style="fill: none; stroke: #000000; stroke-linecap: square"/>
   </g>
   <g id="line2d_26">
    <path d="M 139.3555 57.529196 
L 153.1945 57.529196 
" clip-path="url(#p7a972d9536)" style="fill: none; stroke: #000000; stroke-linecap: square"/>
   </g>
   <g id="patch_4">
    <path d="M 316.956 163.613837 
L 344.634 163.613837 
L 344.634 110.386777 
L 316.956 110.386777 
L 316.956 163.613837 
z
" clip-path="url(#p7a972d9536)" style="fill: #ffffff; stroke: #000000; stroke-linejoin: miter"/>
   </g>
   <g id="line2d_27">
    <path d="M 330.795 163.613837 
L 330.795 218.37598 
" clip-path="url(#p7a972d9536)" style="fill: none; stroke: #000000; stroke-linecap: square"/>
   </g>
   <g id="line2d_28">
    <path d="M 330.795 110.386777 
L 330.795 55.180833 
" clip-path="url(#p7a972d9536)" style="fill: none; stroke: #000000; stroke-linecap: square"/>
   </g>
   <g id="line2d_29">
    <path d="M 323.8755 218.37598 
L 337.7145 218.37598 
" clip-path="url(#p7a972d9536)" style="fill: none; stroke: #000000; stroke-linecap: square"/>
   </g>
   <g id="line2d_30">
    <path d="M 323.8755 55.180833 
L 337.7145 55.180833 
" clip-path="url(#p7a972d9536)" style="fill: none; stroke: #000000; stroke-linecap: square"/>
   </g>
   <g id="line2d_31">
    <path d="M 132.436 87.062556 
L 160.114 87.062556 
" clip-path="url(#p7a972d9536)" style="fill: none; stroke: #000000"/>
   </g>
   <g id="line2d_32">
    <path d="M 316.956 136.459011 
L 344.634 136.459011 
" clip-path="url(#p7a972d9536)" style="fill: none; stroke: #000000"/>
   </g>
   <g id="patch_5">
    <path d="M 54.015 383.2375 
L 54.015 25.3575 
" style="fill: none; stroke: #000000; stroke-width: 0.8; stroke-linejoin: miter; stroke-linecap: square"/>
   </g>
   <g id="patch_6">
    <path d="M 423.055 383.2375 
L 423.055 25.3575 
" style="fill: none; stroke: #000000; stroke-width: 0.8; stroke-linejoin: miter; stroke-linecap: square"/>
   </g>
   <g id="patch_7">
    <path d="M 54.015 383.2375 
L 423.055 383.2375 
" style="fill: none; stroke: #000000; stroke-width: 0.8; stroke-linejoin: miter; stroke-linecap: square"/>
   </g>
   <g id="patch_8">
    <path d="M 54.015 25.3575 
L 423.055 25.3575 
" style="fill: none; stroke: #000000; stroke-width: 0.8; stroke-linejoin: miter; stroke-linecap: square"/>
   </g>
   <g id="PathCollection_1">
    <defs>
     <path id="md0f5330bce" d="M 0 3 
C 0.795609 3 1.55874 2.683901 2.12132 2.12132 
C 2.683901 1.55874 3 0.795609 3 0 
C 3 -0.795609 2.683901 -1.55874 2.12132 -2.12132 
C 1.55874 -2.683901 0.795609 -3 0 -3 
C -0.795609 -3 -1.55874 -2.683901 -2.12132 -2.12132 
C -2.683901 -1.55874 -3 -0.795609 -3 0 
C -3 0.795609 -2.683901 1.55874 -2.12132 2.12132 
C -1.55874 2.683901 -0.795609 3 0 3 
z
" style="stroke: #000000; stroke-opacity: 0.85; stroke-width: 0.4"/>
    </defs>
    <g clip-path="url(#p7a972d9536)">
     <use xlink:href="#md0f5330bce" x="146.056605" y="91.709138" style="fill: #425df5; fill-opacity: 0.85; stroke: #000000; stroke-opacity: 0.85; stroke-width: 0.4"/>
     <use xlink:href="#md0f5330bce" x="150.221444" y="73.159308" style="fill: #425df5; fill-opacity: 0.85; stroke: #000000; stroke-opacity: 0.85; stroke-width: 0.4"/>
     <use xlink:href="#md0f5330bce" x="141.771767" y="134.954989" style="fill: #425df5; fill-opacity: 0.85; stroke: #000000; stroke-opacity: 0.85; stroke-width: 0.4"/>
     <use xlink:href="#md0f5330bce" x="139.674385" y="63.491354" style="fill: #425df5; fill-opacity: 0.85; stroke: #000000; stroke-opacity: 0.85; stroke-width: 0.4"/>
     <use xlink:href="#md0f5330bce" x="139.907903" y="66.454506" style="fill: #425df5; fill-opacity: 0.85; stroke: #000000; stroke-opacity: 0.85; stroke-width: 0.4"/>
     <use xlink:href="#md0f5330bce" x="144.916532" y="73.384094" style="fill: #425df5; fill-opacity: 0.85; stroke: #000000; stroke-opacity: 0.85; stroke-width: 0.4"/>
     <use xlink:href="#md0f5330bce" x="148.99379" y="123.878495" style="fill: #425df5; fill-opacity: 0.85; stroke: #000000; stroke-opacity: 0.85; stroke-width: 0.4"/>
     <use xlink:href="#md0f5330bce" x="152.975143" y="115.3" style="fill: #425df5; fill-opacity: 0.85; stroke: #000000; stroke-opacity: 0.85; stroke-width: 0.4"/>
     <use xlink:href="#md0f5330bce" x="147.653864" y="84.413587" style="fill: #425df5; fill-opacity: 0.85; stroke: #000000; stroke-opacity: 0.85; stroke-width: 0.4"/>
     <use xlink:href="#md0f5330bce" x="147.226832" y="99.422472" style="fill: #425df5; fill-opacity: 0.85; stroke: #000000; stroke-opacity: 0.85; stroke-width: 0.4"/>
     <use xlink:href="#md0f5330bce" x="151.811791" y="57.529196" style="fill: #425df5; fill-opacity: 0.85; stroke: #000000; stroke-opacity: 0.85; stroke-width: 0.4"/>
     <use xlink:href="#md0f5330bce" x="140.80195" y="89.711525" style="fill: #425df5; fill-opacity: 0.85; stroke: #000000; stroke-opacity: 0.85; stroke-width: 0.4"/>
     <use xlink:href="#md0f5330bce" x="153.668506" y="91.608609" style="fill: #425df5; fill-opacity: 0.85; stroke: #000000; stroke-opacity: 0.85; stroke-width: 0.4"/>
     <use xlink:href="#md0f5330bce" x="151.257734" y="58.976817" style="fill: #425df5; fill-opacity: 0.85; stroke: #000000; stroke-opacity: 0.85; stroke-width: 0.4"/>
     <use xlink:href="#md0f5330bce" x="152.641143" y="73.513346" style="fill: #425df5; fill-opacity: 0.85; stroke: #000000; stroke-opacity: 0.85; stroke-width: 0.4"/>
     <use xlink:href="#md0f5330bce" x="147.79571" y="71.077445" style="fill: #425df5; fill-opacity: 0.85; stroke: #000000; stroke-opacity: 0.85; stroke-width: 0.4"/>
     <use xlink:href="#md0f5330bce" x="146.32113" y="90.166953" style="fill: #425df5; fill-opacity: 0.85; stroke: #000000; stroke-opacity: 0.85; stroke-width: 0.4"/>
     <use xlink:href="#md0f5330bce" x="139.236921" y="122.370556" style="fill: #425df5; fill-opacity: 0.85; stroke: #000000; stroke-opacity: 0.85; stroke-width: 0.4"/>
     <use xlink:href="#md0f5330bce" x="143.67146" y="100.526988" style="fill: #425df5; fill-opacity: 0.85; stroke: #000000; stroke-opacity: 0.85; stroke-width: 0.4"/>
     <use xlink:href="#md0f5330bce" x="143.308299" y="106.172377" style="fill: #425df5; fill-opacity: 0.85; stroke: #000000; stroke-opacity: 0.85; stroke-width: 0.4"/>
     <use xlink:href="#md0f5330bce" x="143.182848" y="104.28162" style="fill: #425df5; fill-opacity: 0.85; stroke: #000000; stroke-opacity: 0.85; stroke-width: 0.4"/>
     <use xlink:href="#md0f5330bce" x="143.51863" y="77.892399" style="fill: #425df5; fill-opacity: 0.85; stroke: #000000; stroke-opacity: 0.85; stroke-width: 0.4"/>
     <use xlink:href="#md0f5330bce" x="142.414291" y="63.802221" style="fill: #425df5; fill-opacity: 0.85; stroke: #000000; stroke-opacity: 0.85; stroke-width: 0.4"/>
     <use xlink:href="#md0f5330bce" x="150.3078" y="58.976817" style="fill: #425df5; fill-opacity: 0.85; stroke: #000000; stroke-opacity: 0.85; stroke-width: 0.4"/>
    </g>
   </g>
   <g id="PathCollection_2">
    <defs>
     <path id="mf01eb93682" d="M 0 3 
C 0.795609 3 1.55874 2.683901 2.12132 2.12132 
C 2.683901 1.55874 3 0.795609 3 0 
C 3 -0.795609 2.683901 -1.55874 2.12132 -2.12132 
C 1.55874 -2.683901 0.795609 -3 0 -3 
C -0.795609 -3 -1.55874 -2.683901 -2.12132 -2.12132 
C -2.683901 -1.55874 -3 -0.795609 -3 0 
C -3 0.795609 -2.683901 1.55874 -2.12132 2.12132 
C -1.55874 2.683901 -0.795609 3 0 3 
z
" style="stroke: #000000; stroke-opacity: 0.85; stroke-width: 0.4"/>
    </defs>
    <g clip-path="url(#p7a972d9536)">
     <use xlink:href="#mf01eb93682" x="328.59175" y="218.37598" style="fill: #f55442; fill-opacity: 0.85; stroke: #000000; stroke-opacity: 0.85; stroke-width: 0.4"/>
     <use xlink:href="#mf01eb93682" x="338.070603" y="185.50729" style="fill: #f55442; fill-opacity: 0.85; stroke: #000000; stroke-opacity: 0.85; stroke-width: 0.4"/>
     <use xlink:href="#mf01eb93682" x="329.64519" y="136.459011" style="fill: #f55442; fill-opacity: 0.85; stroke: #000000; stroke-opacity: 0.85; stroke-width: 0.4"/>
     <use xlink:href="#mf01eb93682" x="337.203122" y="146.799161" style="fill: #f55442; fill-opacity: 0.85; stroke: #000000; stroke-opacity: 0.85; stroke-width: 0.4"/>
     <use xlink:href="#mf01eb93682" x="332.802599" y="132.216898" style="fill: #f55442; fill-opacity: 0.85; stroke: #000000; stroke-opacity: 0.85; stroke-width: 0.4"/>
     <use xlink:href="#mf01eb93682" x="324.413475" y="102.834374" style="fill: #f55442; fill-opacity: 0.85; stroke: #000000; stroke-opacity: 0.85; stroke-width: 0.4"/>
     <use xlink:href="#mf01eb93682" x="334.594473" y="134.596458" style="fill: #f55442; fill-opacity: 0.85; stroke: #000000; stroke-opacity: 0.85; stroke-width: 0.4"/>
     <use xlink:href="#mf01eb93682" x="330.107978" y="190.227793" style="fill: #f55442; fill-opacity: 0.85; stroke: #000000; stroke-opacity: 0.85; stroke-width: 0.4"/>
     <use xlink:href="#mf01eb93682" x="324.470418" y="261.332898" style="fill: #f55442; fill-opacity: 0.85; stroke: #000000; stroke-opacity: 0.85; stroke-width: 0.4"/>
     <use xlink:href="#mf01eb93682" x="329.767082" y="187.107607" style="fill: #f55442; fill-opacity: 0.85; stroke: #000000; stroke-opacity: 0.85; stroke-width: 0.4"/>
     <use xlink:href="#mf01eb93682" x="329.600437" y="160.161817" style="fill: #f55442; fill-opacity: 0.85; stroke: #000000; stroke-opacity: 0.85; stroke-width: 0.4"/>
     <use xlink:href="#mf01eb93682" x="328.349325" y="131.426591" style="fill: #f55442; fill-opacity: 0.85; stroke: #000000; stroke-opacity: 0.85; stroke-width: 0.4"/>
     <use xlink:href="#mf01eb93682" x="325.454835" y="121.638129" style="fill: #f55442; fill-opacity: 0.85; stroke: #000000; stroke-opacity: 0.85; stroke-width: 0.4"/>
     <use xlink:href="#mf01eb93682" x="327.251639" y="141.535085" style="fill: #f55442; fill-opacity: 0.85; stroke: #000000; stroke-opacity: 0.85; stroke-width: 0.4"/>
     <use xlink:href="#mf01eb93682" x="326.46041" y="112.182136" style="fill: #f55442; fill-opacity: 0.85; stroke: #000000; stroke-opacity: 0.85; stroke-width: 0.4"/>
     <use xlink:href="#mf01eb93682" x="323.850425" y="90.273006" style="fill: #f55442; fill-opacity: 0.85; stroke: #000000; stroke-opacity: 0.85; stroke-width: 0.4"/>
     <use xlink:href="#mf01eb93682" x="337.771956" y="55.180833" style="fill: #f55442; fill-opacity: 0.85; stroke: #000000; stroke-opacity: 0.85; stroke-width: 0.4"/>
     <use xlink:href="#mf01eb93682" x="334.964861" y="105.515154" style="fill: #f55442; fill-opacity: 0.85; stroke: #000000; stroke-opacity: 0.85; stroke-width: 0.4"/>
     <use xlink:href="#mf01eb93682" x="336.692349" y="75.531663" style="fill: #f55442; fill-opacity: 0.85; stroke: #000000; stroke-opacity: 0.85; stroke-width: 0.4"/>
     <use xlink:href="#mf01eb93682" x="327.515508" y="167.065856" style="fill: #f55442; fill-opacity: 0.85; stroke: #000000; stroke-opacity: 0.85; stroke-width: 0.4"/>
     <use xlink:href="#mf01eb93682" x="335.482651" y="103.674227" style="fill: #f55442; fill-opacity: 0.85; stroke: #000000; stroke-opacity: 0.85; stroke-width: 0.4"/>
     <use xlink:href="#mf01eb93682" x="338.166655" y="208.179389" style="fill: #f55442; fill-opacity: 0.85; stroke: #000000; stroke-opacity: 0.85; stroke-width: 0.4"/>
     <use xlink:href="#mf01eb93682" x="333.396325" y="141.008677" style="fill: #f55442; fill-opacity: 0.85; stroke: #000000; stroke-opacity: 0.85; stroke-width: 0.4"/>
     <use xlink:href="#mf01eb93682" x="328.633835" y="111.412869" style="fill: #f55442; fill-opacity: 0.85; stroke: #000000; stroke-opacity: 0.85; stroke-width: 0.4"/>
     <use xlink:href="#mf01eb93682" x="327.726371" y="136.631347" style="fill: #f55442; fill-opacity: 0.85; stroke: #000000; stroke-opacity: 0.85; stroke-width: 0.4"/>
     <use xlink:href="#mf01eb93682" x="329.158858" y="109.360686" style="fill: #f55442; fill-opacity: 0.85; stroke: #000000; stroke-opacity: 0.85; stroke-width: 0.4"/>
     <use xlink:href="#mf01eb93682" x="326.999877" y="160.069021" style="fill: #f55442; fill-opacity: 0.85; stroke: #000000; stroke-opacity: 0.85; stroke-width: 0.4"/>
    </g>
   </g>
   <g id="text_15">
    <!-- Pellet-in-Meal Ratio Distribution - Control Groups -->
    <g transform="translate(44.32375 19.3575) scale(0.16 -0.16)">
     <defs>
      <path id="DejaVuSans-44" d="M 1259 4147 
L 1259 519 
L 2022 519 
Q 2988 519 3436 956 
Q 3884 1394 3884 2338 
Q 3884 3275 3436 3711 
Q 2988 4147 2022 4147 
L 1259 4147 
z
M 628 4666 
L 1925 4666 
Q 3281 4666 3915 4102 
Q 4550 3538 4550 2338 
Q 4550 1131 3912 565 
Q 3275 0 1925 0 
L 628 0 
L 628 4666 
z
" transform="scale(0.015625)"/>
      <path id="DejaVuSans-62" d="M 3116 1747 
Q 3116 2381 2855 2742 
Q 2594 3103 2138 3103 
Q 1681 3103 1420 2742 
Q 1159 2381 1159 1747 
Q 1159 1113 1420 752 
Q 1681 391 2138 391 
Q 2594 391 2855 752 
Q 3116 1113 3116 1747 
z
M 1159 2969 
Q 1341 3281 1617 3432 
Q 1894 3584 2278 3584 
Q 2916 3584 3314 3078 
Q 3713 2572 3713 1747 
Q 3713 922 3314 415 
Q 2916 -91 2278 -91 
Q 1894 -91 1617 61 
Q 1341 213 1159 525 
L 1159 0 
L 581 0 
L 581 4863 
L 1159 4863 
L 1159 2969 
z
" transform="scale(0.015625)"/>
      <path id="DejaVuSans-43" d="M 4122 4306 
L 4122 3641 
Q 3803 3938 3442 4084 
Q 3081 4231 2675 4231 
Q 1875 4231 1450 3742 
Q 1025 3253 1025 2328 
Q 1025 1406 1450 917 
Q 1875 428 2675 428 
Q 3081 428 3442 575 
Q 3803 722 4122 1019 
L 4122 359 
Q 3791 134 3420 21 
Q 3050 -91 2638 -91 
Q 1578 -91 968 557 
Q 359 1206 359 2328 
Q 359 3453 968 4101 
Q 1578 4750 2638 4750 
Q 3056 4750 3426 4639 
Q 3797 4528 4122 4306 
z
" transform="scale(0.015625)"/>
     </defs>
     <use xlink:href="#DejaVuSans-50"/>
     <use xlink:href="#DejaVuSans-65" x="56.677734"/>
     <use xlink:href="#DejaVuSans-6c" x="118.201172"/>
     <use xlink:href="#DejaVuSans-6c" x="145.984375"/>
     <use xlink:href="#DejaVuSans-65" x="173.767578"/>
     <use xlink:href="#DejaVuSans-74" x="235.291016"/>
     <use xlink:href="#DejaVuSans-2d" x="274.5"/>
     <use xlink:href="#DejaVuSans-69" x="310.583984"/>
     <use xlink:href="#DejaVuSans-6e" x="338.367188"/>
     <use xlink:href="#DejaVuSans-2d" x="401.746094"/>
     <use xlink:href="#DejaVuSans-4d" x="437.830078"/>
     <use xlink:href="#DejaVuSans-65" x="524.109375"/>
     <use xlink:href="#DejaVuSans-61" x="585.632812"/>
     <use xlink:href="#DejaVuSans-6c" x="646.912109"/>
     <use xlink:href="#DejaVuSans-20" x="674.695312"/>
     <use xlink:href="#DejaVuSans-52" x="706.482422"/>
     <use xlink:href="#DejaVuSans-61" x="773.714844"/>
     <use xlink:href="#DejaVuSans-74" x="834.994141"/>
     <use xlink:href="#DejaVuSans-69" x="874.203125"/>
     <use xlink:href="#DejaVuSans-6f" x="901.986328"/>
     <use xlink:href="#DejaVuSans-20" x="963.167969"/>
     <use xlink:href="#DejaVuSans-44" x="994.955078"/>
     <use xlink:href="#DejaVuSans-69" x="1071.957031"/>
     <use xlink:href="#DejaVuSans-73" x="1099.740234"/>
     <use xlink:href="#DejaVuSans-74" x="1151.839844"/>
     <use xlink:href="#DejaVuSans-72" x="1191.048828"/>
     <use xlink:href="#DejaVuSans-69" x="1232.162109"/>
     <use xlink:href="#DejaVuSans-62" x="1259.945312"/>
     <use xlink:href="#DejaVuSans-75" x="1323.421875"/>
     <use xlink:href="#DejaVuSans-74" x="1386.800781"/>
     <use xlink:href="#DejaVuSans-69" x="1426.009766"/>
     <use xlink:href="#DejaVuSans-6f" x="1453.792969"/>
     <use xlink:href="#DejaVuSans-6e" x="1514.974609"/>
     <use xlink:href="#DejaVuSans-20" x="1578.353516"/>
     <use xlink:href="#DejaVuSans-2d" x="1610.140625"/>
     <use xlink:href="#DejaVuSans-20" x="1646.224609"/>
     <use xlink:href="#DejaVuSans-43" x="1678.011719"/>
     <use xlink:href="#DejaVuSans-6f" x="1747.835938"/>
     <use xlink:href="#DejaVuSans-6e" x="1809.017578"/>
     <use xlink:href="#DejaVuSans-74" x="1872.396484"/>
     <use xlink:href="#DejaVuSans-72" x="1911.605469"/>
     <use xlink:href="#DejaVuSans-6f" x="1950.46875"/>
     <use xlink:href="#DejaVuSans-6c" x="2011.650391"/>
     <use xlink:href="#DejaVuSans-20" x="2039.433594"/>
     <use xlink:href="#DejaVuSans-47" x="2071.220703"/>
     <use xlink:href="#DejaVuSans-72" x="2148.710938"/>
     <use xlink:href="#DejaVuSans-6f" x="2187.574219"/>
     <use xlink:href="#DejaVuSans-75" x="2248.755859"/>
     <use xlink:href="#DejaVuSans-70" x="2312.134766"/>
     <use xlink:href="#DejaVuSans-73" x="2375.611328"/>
    </g>
   </g>
   <g id="legend_1">
    <g id="patch_9">
     <path d="M 62.415 377.2375 
L 174.075 377.2375 
Q 176.475 377.2375 176.475 374.8375 
L 176.475 340.81 
Q 176.475 338.41 174.075 338.41 
L 62.415 338.41 
Q 60.015 338.41 60.015 340.81 
L 60.015 374.8375 
Q 60.015 377.2375 62.415 377.2375 
z
" style="fill: #ffffff; opacity: 0.8; stroke: #cccccc; stroke-linejoin: miter"/>
    </g>
    <g id="patch_10">
     <path d="M 64.815 352.328125 
L 88.815 352.328125 
L 88.815 343.928125 
L 64.815 343.928125 
z
" style="fill: #425df5; opacity: 0.65; stroke: #425df5; stroke-linejoin: miter"/>
    </g>
    <g id="text_16">
     <!-- cask (n=24) -->
     <g transform="translate(98.415 352.328125) scale(0.12 -0.12)">
      <defs>
       <path id="DejaVuSans-3d" d="M 678 2906 
L 4684 2906 
L 4684 2381 
L 678 2381 
L 678 2906 
z
M 678 1631 
L 4684 1631 
L 4684 1100 
L 678 1100 
L 678 1631 
z
" transform="scale(0.015625)"/>
       <path id="DejaVuSans-32" d="M 1228 531 
L 3431 531 
L 3431 0 
L 469 0 
L 469 531 
Q 828 903 1448 1529 
Q 2069 2156 2228 2338 
Q 2531 2678 2651 2914 
Q 2772 3150 2772 3378 
Q 2772 3750 2511 3984 
Q 2250 4219 1831 4219 
Q 1534 4219 1204 4116 
Q 875 4013 500 3803 
L 500 4441 
Q 881 4594 1212 4672 
Q 1544 4750 1819 4750 
Q 2544 4750 2975 4387 
Q 3406 4025 3406 3419 
Q 3406 3131 3298 2873 
Q 3191 2616 2906 2266 
Q 2828 2175 2409 1742 
Q 1991 1309 1228 531 
z
" transform="scale(0.015625)"/>
       <path id="DejaVuSans-34" d="M 2419 4116 
L 825 1625 
L 2419 1625 
L 2419 4116 
z
M 2253 4666 
L 3047 4666 
L 3047 1625 
L 3713 1625 
L 3713 1100 
L 3047 1100 
L 3047 0 
L 2419 0 
L 2419 1100 
L 313 1100 
L 313 1709 
L 2253 4666 
z
" transform="scale(0.015625)"/>
      </defs>
      <use xlink:href="#DejaVuSans-63"/>
      <use xlink:href="#DejaVuSans-61" x="54.980469"/>
      <use xlink:href="#DejaVuSans-73" x="116.259766"/>
      <use xlink:href="#DejaVuSans-6b" x="168.359375"/>
      <use xlink:href="#DejaVuSans-20" x="226.269531"/>
      <use xlink:href="#DejaVuSans-28" x="258.056641"/>
      <use xlink:href="#DejaVuSans-6e" x="297.070312"/>
      <use xlink:href="#DejaVuSans-3d" x="360.449219"/>
      <use xlink:href="#DejaVuSans-32" x="444.238281"/>
      <use xlink:href="#DejaVuSans-34" x="507.861328"/>
      <use xlink:href="#DejaVuSans-29" x="571.484375"/>
     </g>
    </g>
    <g id="patch_11">
     <path d="M 64.815 369.941875 
L 88.815 369.941875 
L 88.815 361.541875 
L 64.815 361.541875 
z
" style="fill: #f55442; opacity: 0.65; stroke: #f55442; stroke-linejoin: miter"/>
    </g>
    <g id="text_17">
     <!-- ctrl (n=27) -->
     <g transform="translate(98.415 369.941875) scale(0.12 -0.12)">
      <use xlink:href="#DejaVuSans-63"/>
      <use xlink:href="#DejaVuSans-74" x="54.980469"/>
      <use xlink:href="#DejaVuSans-72" x="94.189453"/>
      <use xlink:href="#DejaVuSans-6c" x="135.302734"/>
      <use xlink:href="#DejaVuSans-20" x="163.085938"/>
      <use xlink:href="#DejaVuSans-28" x="194.873047"/>
      <use xlink:href="#DejaVuSans-6e" x="233.886719"/>
      <use xlink:href="#DejaVuSans-3d" x="297.265625"/>
      <use xlink:href="#DejaVuSans-32" x="381.054688"/>
      <use xlink:href="#DejaVuSans-37" x="444.677734"/>
      <use xlink:href="#DejaVuSans-29" x="508.300781"/>
     </g>
    </g>
   </g>
  </g>
  <g id="axes_2">
   <g id="patch_12">
    <path d="M 480.615 383.2375 
L 849.655 383.2375 
L 849.655 25.3575 
L 480.615 25.3575 
z
" style="fill: #ffffff"/>
   </g>
   <g id="PolyCollection_3">
    <defs>
     <path id="m3faff4135e" d="M 675.830058 -71.250833 
L 654.439942 -71.250833 
L 654.065295 -73.636151 
L 653.712925 -76.021469 
L 653.384691 -78.406787 
L 653.082153 -80.792105 
L 652.806543 -83.177423 
L 652.558745 -85.562741 
L 652.339275 -87.948059 
L 652.148263 -90.333377 
L 651.985437 -92.718695 
L 651.850105 -95.104013 
L 651.741145 -97.489331 
L 651.656992 -99.874648 
L 651.595623 -102.259966 
L 651.554547 -104.645284 
L 651.530801 -107.030602 
L 651.520941 -109.41592 
L 651.521044 -111.801238 
L 651.526714 -114.186556 
L 651.533093 -116.571874 
L 651.534888 -118.957192 
L 651.526397 -121.34251 
L 651.501558 -123.727828 
L 651.454004 -126.113146 
L 651.377134 -128.498464 
L 651.264195 -130.883781 
L 651.108384 -133.269099 
L 650.90295 -135.654417 
L 650.641323 -138.039735 
L 650.317239 -140.425053 
L 649.92488 -142.810371 
L 649.459013 -145.195689 
L 648.915134 -147.581007 
L 648.289604 -149.966325 
L 647.579785 -152.351643 
L 646.784156 -154.736961 
L 645.902423 -157.122279 
L 644.935607 -159.507597 
L 643.886114 -161.892915 
L 642.757772 -164.278232 
L 641.555854 -166.66355 
L 640.287067 -169.048868 
L 638.95951 -171.434186 
L 637.582607 -173.819504 
L 636.167013 -176.204822 
L 634.724488 -178.59014 
L 633.26775 -180.975458 
L 631.810307 -183.360776 
L 630.366266 -185.746094 
L 628.95013 -188.131412 
L 627.576583 -190.51673 
L 626.260266 -192.902048 
L 625.015554 -195.287366 
L 623.856333 -197.672683 
L 622.79578 -200.058001 
L 621.846159 -202.443319 
L 621.018627 -204.828637 
L 620.323058 -207.213955 
L 619.767888 -209.599273 
L 619.359985 -211.984591 
L 619.104542 -214.369909 
L 619.005 -216.755227 
L 619.062998 -219.140545 
L 619.278353 -221.525863 
L 619.649072 -223.911181 
L 620.17139 -226.296499 
L 620.83984 -228.681816 
L 621.647348 -231.067134 
L 622.585359 -233.452452 
L 623.64398 -235.83777 
L 624.812149 -238.223088 
L 626.077822 -240.608406 
L 627.42817 -242.993724 
L 628.84979 -245.379042 
L 630.328925 -247.76436 
L 631.851681 -250.149678 
L 633.404246 -252.534996 
L 634.973099 -254.920314 
L 636.545211 -257.305632 
L 638.108231 -259.69095 
L 639.650651 -262.076267 
L 641.161951 -264.461585 
L 642.632721 -266.846903 
L 644.054751 -269.232221 
L 645.4211 -271.617539 
L 646.726131 -274.002857 
L 647.965515 -276.388175 
L 649.136219 -278.773493 
L 650.236454 -281.158811 
L 651.265606 -283.544129 
L 652.224146 -285.929447 
L 653.113521 -288.314765 
L 653.936034 -290.700083 
L 654.694705 -293.085401 
L 655.39314 -295.470718 
L 656.035387 -297.856036 
L 656.625799 -300.241354 
L 657.168899 -302.626672 
L 657.669262 -305.01199 
L 658.131396 -307.397308 
L 672.138604 -307.397308 
L 672.138604 -307.397308 
L 672.600738 -305.01199 
L 673.101101 -302.626672 
L 673.644201 -300.241354 
L 674.234613 -297.856036 
L 674.87686 -295.470718 
L 675.575295 -293.085401 
L 676.333966 -290.700083 
L 677.156479 -288.314765 
L 678.045854 -285.929447 
L 679.004394 -283.544129 
L 680.033546 -281.158811 
L 681.133781 -278.773493 
L 682.304485 -276.388175 
L 683.543869 -274.002857 
L 684.8489 -271.617539 
L 686.215249 -269.232221 
L 687.637279 -266.846903 
L 689.108049 -264.461585 
L 690.619349 -262.076267 
L 692.161769 -259.69095 
L 693.724789 -257.305632 
L 695.296901 -254.920314 
L 696.865754 -252.534996 
L 698.418319 -250.149678 
L 699.941075 -247.76436 
L 701.42021 -245.379042 
L 702.84183 -242.993724 
L 704.192178 -240.608406 
L 705.457851 -238.223088 
L 706.62602 -235.83777 
L 707.684641 -233.452452 
L 708.622652 -231.067134 
L 709.43016 -228.681816 
L 710.09861 -226.296499 
L 710.620928 -223.911181 
L 710.991647 -221.525863 
L 711.207002 -219.140545 
L 711.265 -216.755227 
L 711.165458 -214.369909 
L 710.910015 -211.984591 
L 710.502112 -209.599273 
L 709.946942 -207.213955 
L 709.251373 -204.828637 
L 708.423841 -202.443319 
L 707.47422 -200.058001 
L 706.413667 -197.672683 
L 705.254446 -195.287366 
L 704.009734 -192.902048 
L 702.693417 -190.51673 
L 701.31987 -188.131412 
L 699.903734 -185.746094 
L 698.459693 -183.360776 
L 697.00225 -180.975458 
L 695.545512 -178.59014 
L 694.102987 -176.204822 
L 692.687393 -173.819504 
L 691.31049 -171.434186 
L 689.982933 -169.048868 
L 688.714146 -166.66355 
L 687.512228 -164.278232 
L 686.383886 -161.892915 
L 685.334393 -159.507597 
L 684.367577 -157.122279 
L 683.485844 -154.736961 
L 682.690215 -152.351643 
L 681.980396 -149.966325 
L 681.354866 -147.581007 
L 680.810987 -145.195689 
L 680.34512 -142.810371 
L 679.952761 -140.425053 
L 679.628677 -138.039735 
L 679.36705 -135.654417 
L 679.161616 -133.269099 
L 679.005805 -130.883781 
L 678.892866 -128.498464 
L 678.815996 -126.113146 
L 678.768442 -123.727828 
L 678.743603 -121.34251 
L 678.735112 -118.957192 
L 678.736907 -116.571874 
L 678.743286 -114.186556 
L 678.748956 -111.801238 
L 678.749059 -109.41592 
L 678.739199 -107.030602 
L 678.715453 -104.645284 
L 678.674377 -102.259966 
L 678.613008 -99.874648 
L 678.528855 -97.489331 
L 678.419895 -95.104013 
L 678.284563 -92.718695 
L 678.121737 -90.333377 
L 677.930725 -87.948059 
L 677.711255 -85.562741 
L 677.463457 -83.177423 
L 677.187847 -80.792105 
L 676.885309 -78.406787 
L 676.557075 -76.021469 
L 676.204705 -73.636151 
L 675.830058 -71.250833 
z
" style="stroke: #000000; stroke-opacity: 0.65"/>
    </defs>
    <g clip-path="url(#p803d36fa09)">
     <use xlink:href="#m3faff4135e" x="0" y="424.665" style="fill: #0ec72a; fill-opacity: 0.65; stroke: #000000; stroke-opacity: 0.65"/>
    </g>
   </g>
   <g id="matplotlib.axis_3">
    <g id="xtick_3">
     <g id="line2d_33">
      <g>
       <use xlink:href="#m668310e885" x="665.135" y="383.2375" style="stroke: #000000; stroke-width: 0.8"/>
      </g>
     </g>
     <g id="text_18">
      <!-- female -->
      <g transform="translate(647.898281 397.835937) scale(0.1 -0.1)">
       <defs>
        <path id="DejaVuSans-66" d="M 2375 4863 
L 2375 4384 
L 1825 4384 
Q 1516 4384 1395 4259 
Q 1275 4134 1275 3809 
L 1275 3500 
L 2222 3500 
L 2222 3053 
L 1275 3053 
L 1275 0 
L 697 0 
L 697 3053 
L 147 3053 
L 147 3500 
L 697 3500 
L 697 3744 
Q 697 4328 969 4595 
Q 1241 4863 1831 4863 
L 2375 4863 
z
" transform="scale(0.015625)"/>
        <path id="DejaVuSans-6d" d="M 3328 2828 
Q 3544 3216 3844 3400 
Q 4144 3584 4550 3584 
Q 5097 3584 5394 3201 
Q 5691 2819 5691 2113 
L 5691 0 
L 5113 0 
L 5113 2094 
Q 5113 2597 4934 2840 
Q 4756 3084 4391 3084 
Q 3944 3084 3684 2787 
Q 3425 2491 3425 1978 
L 3425 0 
L 2847 0 
L 2847 2094 
Q 2847 2600 2669 2842 
Q 2491 3084 2119 3084 
Q 1678 3084 1418 2786 
Q 1159 2488 1159 1978 
L 1159 0 
L 581 0 
L 581 3500 
L 1159 3500 
L 1159 2956 
Q 1356 3278 1631 3431 
Q 1906 3584 2284 3584 
Q 2666 3584 2933 3390 
Q 3200 3197 3328 2828 
z
" transform="scale(0.015625)"/>
       </defs>
       <use xlink:href="#DejaVuSans-66"/>
       <use xlink:href="#DejaVuSans-65" x="35.205078"/>
       <use xlink:href="#DejaVuSans-6d" x="96.728516"/>
       <use xlink:href="#DejaVuSans-61" x="194.140625"/>
       <use xlink:href="#DejaVuSans-6c" x="255.419922"/>
       <use xlink:href="#DejaVuSans-65" x="283.203125"/>
      </g>
     </g>
    </g>
    <g id="text_19">
     <!-- Groups -->
     <g transform="translate(640.181094 414.553437) scale(0.14 -0.14)">
      <use xlink:href="#DejaVuSans-47"/>
      <use xlink:href="#DejaVuSans-72" x="77.490234"/>
      <use xlink:href="#DejaVuSans-6f" x="116.353516"/>
      <use xlink:href="#DejaVuSans-75" x="177.535156"/>
      <use xlink:href="#DejaVuSans-70" x="240.914062"/>
      <use xlink:href="#DejaVuSans-73" x="304.390625"/>
     </g>
    </g>
   </g>
   <g id="matplotlib.axis_4">
    <g id="ytick_11">
     <g id="line2d_34">
      <path d="M 480.615 378.41853 
L 849.655 378.41853 
" clip-path="url(#p803d36fa09)" style="fill: none; stroke-dasharray: 2.96,1.28; stroke-dashoffset: 0; stroke: #b0b0b0; stroke-opacity: 0.3; stroke-width: 0.8"/>
     </g>
     <g id="line2d_35">
      <g>
       <use xlink:href="#m1aedcb7751" x="480.615" y="378.41853" style="stroke: #000000; stroke-width: 0.8"/>
      </g>
     </g>
     <g id="text_20">
      <!-- 0.50 -->
      <g transform="translate(451.349375 382.217749) scale(0.1 -0.1)">
       <use xlink:href="#DejaVuSans-30"/>
       <use xlink:href="#DejaVuSans-2e" x="63.623047"/>
       <use xlink:href="#DejaVuSans-35" x="95.410156"/>
       <use xlink:href="#DejaVuSans-30" x="159.033203"/>
      </g>
     </g>
    </g>
    <g id="ytick_12">
     <g id="line2d_36">
      <path d="M 480.615 342.228004 
L 849.655 342.228004 
" clip-path="url(#p803d36fa09)" style="fill: none; stroke-dasharray: 2.96,1.28; stroke-dashoffset: 0; stroke: #b0b0b0; stroke-opacity: 0.3; stroke-width: 0.8"/>
     </g>
     <g id="line2d_37">
      <g>
       <use xlink:href="#m1aedcb7751" x="480.615" y="342.228004" style="stroke: #000000; stroke-width: 0.8"/>
      </g>
     </g>
     <g id="text_21">
      <!-- 0.55 -->
      <g transform="translate(451.349375 346.027223) scale(0.1 -0.1)">
       <use xlink:href="#DejaVuSans-30"/>
       <use xlink:href="#DejaVuSans-2e" x="63.623047"/>
       <use xlink:href="#DejaVuSans-35" x="95.410156"/>
       <use xlink:href="#DejaVuSans-35" x="159.033203"/>
      </g>
     </g>
    </g>
    <g id="ytick_13">
     <g id="line2d_38">
      <path d="M 480.615 306.037478 
L 849.655 306.037478 
" clip-path="url(#p803d36fa09)" style="fill: none; stroke-dasharray: 2.96,1.28; stroke-dashoffset: 0; stroke: #b0b0b0; stroke-opacity: 0.3; stroke-width: 0.8"/>
     </g>
     <g id="line2d_39">
      <g>
       <use xlink:href="#m1aedcb7751" x="480.615" y="306.037478" style="stroke: #000000; stroke-width: 0.8"/>
      </g>
     </g>
     <g id="text_22">
      <!-- 0.60 -->
      <g transform="translate(451.349375 309.836696) scale(0.1 -0.1)">
       <use xlink:href="#DejaVuSans-30"/>
       <use xlink:href="#DejaVuSans-2e" x="63.623047"/>
       <use xlink:href="#DejaVuSans-36" x="95.410156"/>
       <use xlink:href="#DejaVuSans-30" x="159.033203"/>
      </g>
     </g>
    </g>
    <g id="ytick_14">
     <g id="line2d_40">
      <path d="M 480.615 269.846951 
L 849.655 269.846951 
" clip-path="url(#p803d36fa09)" style="fill: none; stroke-dasharray: 2.96,1.28; stroke-dashoffset: 0; stroke: #b0b0b0; stroke-opacity: 0.3; stroke-width: 0.8"/>
     </g>
     <g id="line2d_41">
      <g>
       <use xlink:href="#m1aedcb7751" x="480.615" y="269.846951" style="stroke: #000000; stroke-width: 0.8"/>
      </g>
     </g>
     <g id="text_23">
      <!-- 0.65 -->
      <g transform="translate(451.349375 273.64617) scale(0.1 -0.1)">
       <use xlink:href="#DejaVuSans-30"/>
       <use xlink:href="#DejaVuSans-2e" x="63.623047"/>
       <use xlink:href="#DejaVuSans-36" x="95.410156"/>
       <use xlink:href="#DejaVuSans-35" x="159.033203"/>
      </g>
     </g>
    </g>
    <g id="ytick_15">
     <g id="line2d_42">
      <path d="M 480.615 233.656425 
L 849.655 233.656425 
" clip-path="url(#p803d36fa09)" style="fill: none; stroke-dasharray: 2.96,1.28; stroke-dashoffset: 0; stroke: #b0b0b0; stroke-opacity: 0.3; stroke-width: 0.8"/>
     </g>
     <g id="line2d_43">
      <g>
       <use xlink:href="#m1aedcb7751" x="480.615" y="233.656425" style="stroke: #000000; stroke-width: 0.8"/>
      </g>
     </g>
     <g id="text_24">
      <!-- 0.70 -->
      <g transform="translate(451.349375 237.455644) scale(0.1 -0.1)">
       <use xlink:href="#DejaVuSans-30"/>
       <use xlink:href="#DejaVuSans-2e" x="63.623047"/>
       <use xlink:href="#DejaVuSans-37" x="95.410156"/>
       <use xlink:href="#DejaVuSans-30" x="159.033203"/>
      </g>
     </g>
    </g>
    <g id="ytick_16">
     <g id="line2d_44">
      <path d="M 480.615 197.465898 
L 849.655 197.465898 
" clip-path="url(#p803d36fa09)" style="fill: none; stroke-dasharray: 2.96,1.28; stroke-dashoffset: 0; stroke: #b0b0b0; stroke-opacity: 0.3; stroke-width: 0.8"/>
     </g>
     <g id="line2d_45">
      <g>
       <use xlink:href="#m1aedcb7751" x="480.615" y="197.465898" style="stroke: #000000; stroke-width: 0.8"/>
      </g>
     </g>
     <g id="text_25">
      <!-- 0.75 -->
      <g transform="translate(451.349375 201.265117) scale(0.1 -0.1)">
       <use xlink:href="#DejaVuSans-30"/>
       <use xlink:href="#DejaVuSans-2e" x="63.623047"/>
       <use xlink:href="#DejaVuSans-37" x="95.410156"/>
       <use xlink:href="#DejaVuSans-35" x="159.033203"/>
      </g>
     </g>
    </g>
    <g id="ytick_17">
     <g id="line2d_46">
      <path d="M 480.615 161.275372 
L 849.655 161.275372 
" clip-path="url(#p803d36fa09)" style="fill: none; stroke-dasharray: 2.96,1.28; stroke-dashoffset: 0; stroke: #b0b0b0; stroke-opacity: 0.3; stroke-width: 0.8"/>
     </g>
     <g id="line2d_47">
      <g>
       <use xlink:href="#m1aedcb7751" x="480.615" y="161.275372" style="stroke: #000000; stroke-width: 0.8"/>
      </g>
     </g>
     <g id="text_26">
      <!-- 0.80 -->
      <g transform="translate(451.349375 165.074591) scale(0.1 -0.1)">
       <use xlink:href="#DejaVuSans-30"/>
       <use xlink:href="#DejaVuSans-2e" x="63.623047"/>
       <use xlink:href="#DejaVuSans-38" x="95.410156"/>
       <use xlink:href="#DejaVuSans-30" x="159.033203"/>
      </g>
     </g>
    </g>
    <g id="ytick_18">
     <g id="line2d_48">
      <path d="M 480.615 125.084846 
L 849.655 125.084846 
" clip-path="url(#p803d36fa09)" style="fill: none; stroke-dasharray: 2.96,1.28; stroke-dashoffset: 0; stroke: #b0b0b0; stroke-opacity: 0.3; stroke-width: 0.8"/>
     </g>
     <g id="line2d_49">
      <g>
       <use xlink:href="#m1aedcb7751" x="480.615" y="125.084846" style="stroke: #000000; stroke-width: 0.8"/>
      </g>
     </g>
     <g id="text_27">
      <!-- 0.85 -->
      <g transform="translate(451.349375 128.884064) scale(0.1 -0.1)">
       <use xlink:href="#DejaVuSans-30"/>
       <use xlink:href="#DejaVuSans-2e" x="63.623047"/>
       <use xlink:href="#DejaVuSans-38" x="95.410156"/>
       <use xlink:href="#DejaVuSans-35" x="159.033203"/>
      </g>
     </g>
    </g>
    <g id="ytick_19">
     <g id="line2d_50">
      <path d="M 480.615 88.894319 
L 849.655 88.894319 
" clip-path="url(#p803d36fa09)" style="fill: none; stroke-dasharray: 2.96,1.28; stroke-dashoffset: 0; stroke: #b0b0b0; stroke-opacity: 0.3; stroke-width: 0.8"/>
     </g>
     <g id="line2d_51">
      <g>
       <use xlink:href="#m1aedcb7751" x="480.615" y="88.894319" style="stroke: #000000; stroke-width: 0.8"/>
      </g>
     </g>
     <g id="text_28">
      <!-- 0.90 -->
      <g transform="translate(451.349375 92.693538) scale(0.1 -0.1)">
       <use xlink:href="#DejaVuSans-30"/>
       <use xlink:href="#DejaVuSans-2e" x="63.623047"/>
       <use xlink:href="#DejaVuSans-39" x="95.410156"/>
       <use xlink:href="#DejaVuSans-30" x="159.033203"/>
      </g>
     </g>
    </g>
    <g id="ytick_20">
     <g id="line2d_52">
      <path d="M 480.615 52.703793 
L 849.655 52.703793 
" clip-path="url(#p803d36fa09)" style="fill: none; stroke-dasharray: 2.96,1.28; stroke-dashoffset: 0; stroke: #b0b0b0; stroke-opacity: 0.3; stroke-width: 0.8"/>
     </g>
     <g id="line2d_53">
      <g>
       <use xlink:href="#m1aedcb7751" x="480.615" y="52.703793" style="stroke: #000000; stroke-width: 0.8"/>
      </g>
     </g>
     <g id="text_29">
      <!-- 0.95 -->
      <g transform="translate(451.349375 56.503012) scale(0.1 -0.1)">
       <use xlink:href="#DejaVuSans-30"/>
       <use xlink:href="#DejaVuSans-2e" x="63.623047"/>
       <use xlink:href="#DejaVuSans-39" x="95.410156"/>
       <use xlink:href="#DejaVuSans-35" x="159.033203"/>
      </g>
     </g>
    </g>
    <g id="text_30">
     <!-- Pellet-in-Meal Ratio (ratio) -->
     <g transform="translate(444.437813 295.544687) rotate(-90) scale(0.14 -0.14)">
      <use xlink:href="#DejaVuSans-50"/>
      <use xlink:href="#DejaVuSans-65" x="56.677734"/>
      <use xlink:href="#DejaVuSans-6c" x="118.201172"/>
      <use xlink:href="#DejaVuSans-6c" x="145.984375"/>
      <use xlink:href="#DejaVuSans-65" x="173.767578"/>
      <use xlink:href="#DejaVuSans-74" x="235.291016"/>
      <use xlink:href="#DejaVuSans-2d" x="274.5"/>
      <use xlink:href="#DejaVuSans-69" x="310.583984"/>
      <use xlink:href="#DejaVuSans-6e" x="338.367188"/>
      <use xlink:href="#DejaVuSans-2d" x="401.746094"/>
      <use xlink:href="#DejaVuSans-4d" x="437.830078"/>
      <use xlink:href="#DejaVuSans-65" x="524.109375"/>
      <use xlink:href="#DejaVuSans-61" x="585.632812"/>
      <use xlink:href="#DejaVuSans-6c" x="646.912109"/>
      <use xlink:href="#DejaVuSans-20" x="674.695312"/>
      <use xlink:href="#DejaVuSans-52" x="706.482422"/>
      <use xlink:href="#DejaVuSans-61" x="773.714844"/>
      <use xlink:href="#DejaVuSans-74" x="834.994141"/>
      <use xlink:href="#DejaVuSans-69" x="874.203125"/>
      <use xlink:href="#DejaVuSans-6f" x="901.986328"/>
      <use xlink:href="#DejaVuSans-20" x="963.167969"/>
      <use xlink:href="#DejaVuSans-28" x="994.955078"/>
      <use xlink:href="#DejaVuSans-72" x="1033.96875"/>
      <use xlink:href="#DejaVuSans-61" x="1075.082031"/>
      <use xlink:href="#DejaVuSans-74" x="1136.361328"/>
      <use xlink:href="#DejaVuSans-69" x="1175.570312"/>
      <use xlink:href="#DejaVuSans-6f" x="1203.353516"/>
      <use xlink:href="#DejaVuSans-29" x="1264.535156"/>
     </g>
    </g>
   </g>
   <g id="patch_13">
    <path d="M 637.457 236.784983 
L 692.813 236.784983 
L 692.813 192.070726 
L 637.457 192.070726 
L 637.457 236.784983 
z
" clip-path="url(#p803d36fa09)" style="fill: #ffffff; stroke: #000000; stroke-linejoin: miter"/>
   </g>
   <g id="line2d_54">
    <path d="M 665.135 236.784983 
L 665.135 297.335332 
" clip-path="url(#p803d36fa09)" style="fill: none; stroke: #000000; stroke-linecap: square"/>
   </g>
   <g id="line2d_55">
    <path d="M 665.135 192.070726 
L 665.135 181.45855 
" clip-path="url(#p803d36fa09)" style="fill: none; stroke: #000000; stroke-linecap: square"/>
   </g>
   <g id="line2d_56">
    <path d="M 651.296 297.335332 
L 678.974 297.335332 
" clip-path="url(#p803d36fa09)" style="fill: none; stroke: #000000; stroke-linecap: square"/>
   </g>
   <g id="line2d_57">
    <path d="M 651.296 181.45855 
L 678.974 181.45855 
" clip-path="url(#p803d36fa09)" style="fill: none; stroke: #000000; stroke-linecap: square"/>
   </g>
   <g id="line2d_58">
    <path d="M 637.457 217.581781 
L 692.813 217.581781 
" clip-path="url(#p803d36fa09)" style="fill: none; stroke: #000000"/>
   </g>
   <g id="patch_14">
    <path d="M 480.615 383.2375 
L 480.615 25.3575 
" style="fill: none; stroke: #000000; stroke-width: 0.8; stroke-linejoin: miter; stroke-linecap: square"/>
   </g>
   <g id="patch_15">
    <path d="M 849.655 383.2375 
L 849.655 25.3575 
" style="fill: none; stroke: #000000; stroke-width: 0.8; stroke-linejoin: miter; stroke-linecap: square"/>
   </g>
   <g id="patch_16">
    <path d="M 480.615 383.2375 
L 849.655 383.2375 
" style="fill: none; stroke: #000000; stroke-width: 0.8; stroke-linejoin: miter; stroke-linecap: square"/>
   </g>
   <g id="patch_17">
    <path d="M 480.615 25.3575 
L 849.655 25.3575 
" style="fill: none; stroke: #000000; stroke-width: 0.8; stroke-linejoin: miter; stroke-linecap: square"/>
   </g>
   <g id="PathCollection_3">
    <defs>
     <path id="m90d4548fb1" d="M 0 3 
C 0.795609 3 1.55874 2.683901 2.12132 2.12132 
C 2.683901 1.55874 3 0.795609 3 0 
C 3 -0.795609 2.683901 -1.55874 2.12132 -2.12132 
C 1.55874 -2.683901 0.795609 -3 0 -3 
C -0.795609 -3 -1.55874 -2.683901 -2.12132 -2.12132 
C -2.683901 -1.55874 -3 -0.795609 -3 0 
C -3 0.795609 -2.683901 1.55874 -2.12132 2.12132 
C -1.55874 2.683901 -0.795609 3 0 3 
z
" style="stroke: #000000; stroke-opacity: 0.85; stroke-width: 0.4"/>
    </defs>
    <g clip-path="url(#p803d36fa09)">
     <use xlink:href="#m90d4548fb1" x="672.904117" y="117.267692" style="fill: #0ec72a; fill-opacity: 0.85; stroke: #000000; stroke-opacity: 0.85; stroke-width: 0.4"/>
     <use xlink:href="#m90d4548fb1" x="650.266579" y="222.075456" style="fill: #0ec72a; fill-opacity: 0.85; stroke: #000000; stroke-opacity: 0.85; stroke-width: 0.4"/>
     <use xlink:href="#m90d4548fb1" x="656.316536" y="213.838725" style="fill: #0ec72a; fill-opacity: 0.85; stroke: #000000; stroke-opacity: 0.85; stroke-width: 0.4"/>
     <use xlink:href="#m90d4548fb1" x="664.621172" y="188.911774" style="fill: #0ec72a; fill-opacity: 0.85; stroke: #000000; stroke-opacity: 0.85; stroke-width: 0.4"/>
     <use xlink:href="#m90d4548fb1" x="654.154137" y="208.48893" style="fill: #0ec72a; fill-opacity: 0.85; stroke: #000000; stroke-opacity: 0.85; stroke-width: 0.4"/>
     <use xlink:href="#m90d4548fb1" x="656.049373" y="191.52694" style="fill: #0ec72a; fill-opacity: 0.85; stroke: #000000; stroke-opacity: 0.85; stroke-width: 0.4"/>
     <use xlink:href="#m90d4548fb1" x="665.677322" y="230.315761" style="fill: #0ec72a; fill-opacity: 0.85; stroke: #000000; stroke-opacity: 0.85; stroke-width: 0.4"/>
     <use xlink:href="#m90d4548fb1" x="661.469663" y="309.961432" style="fill: #0ec72a; fill-opacity: 0.85; stroke: #000000; stroke-opacity: 0.85; stroke-width: 0.4"/>
     <use xlink:href="#m90d4548fb1" x="655.743397" y="193.702084" style="fill: #0ec72a; fill-opacity: 0.85; stroke: #000000; stroke-opacity: 0.85; stroke-width: 0.4"/>
     <use xlink:href="#m90d4548fb1" x="654.647027" y="223.8461" style="fill: #0ec72a; fill-opacity: 0.85; stroke: #000000; stroke-opacity: 0.85; stroke-width: 0.4"/>
     <use xlink:href="#m90d4548fb1" x="650.877058" y="221.324838" style="fill: #0ec72a; fill-opacity: 0.85; stroke: #000000; stroke-opacity: 0.85; stroke-width: 0.4"/>
     <use xlink:href="#m90d4548fb1" x="657.136892" y="202.291302" style="fill: #0ec72a; fill-opacity: 0.85; stroke: #000000; stroke-opacity: 0.85; stroke-width: 0.4"/>
     <use xlink:href="#m90d4548fb1" x="658.075015" y="181.45855" style="fill: #0ec72a; fill-opacity: 0.85; stroke: #000000; stroke-opacity: 0.85; stroke-width: 0.4"/>
     <use xlink:href="#m90d4548fb1" x="666.036171" y="181.521087" style="fill: #0ec72a; fill-opacity: 0.85; stroke: #000000; stroke-opacity: 0.85; stroke-width: 0.4"/>
     <use xlink:href="#m90d4548fb1" x="666.907211" y="238.941391" style="fill: #0ec72a; fill-opacity: 0.85; stroke: #000000; stroke-opacity: 0.85; stroke-width: 0.4"/>
     <use xlink:href="#m90d4548fb1" x="667.028239" y="353.414167" style="fill: #0ec72a; fill-opacity: 0.85; stroke: #000000; stroke-opacity: 0.85; stroke-width: 0.4"/>
     <use xlink:href="#m90d4548fb1" x="666.469184" y="297.335332" style="fill: #0ec72a; fill-opacity: 0.85; stroke: #000000; stroke-opacity: 0.85; stroke-width: 0.4"/>
     <use xlink:href="#m90d4548fb1" x="668.041511" y="341.085145" style="fill: #0ec72a; fill-opacity: 0.85; stroke: #000000; stroke-opacity: 0.85; stroke-width: 0.4"/>
    </g>
   </g>
   <g id="text_31">
    <!-- Pellet-in-Meal Ratio Distribution - Other Groups -->
    <g transform="translate(477.1225 19.3575) scale(0.16 -0.16)">
     <defs>
      <path id="DejaVuSans-4f" d="M 2522 4238 
Q 1834 4238 1429 3725 
Q 1025 3213 1025 2328 
Q 1025 1447 1429 934 
Q 1834 422 2522 422 
Q 3209 422 3611 934 
Q 4013 1447 4013 2328 
Q 4013 3213 3611 3725 
Q 3209 4238 2522 4238 
z
M 2522 4750 
Q 3503 4750 4090 4092 
Q 4678 3434 4678 2328 
Q 4678 1225 4090 567 
Q 3503 -91 2522 -91 
Q 1538 -91 948 565 
Q 359 1222 359 2328 
Q 359 3434 948 4092 
Q 1538 4750 2522 4750 
z
" transform="scale(0.015625)"/>
      <path id="DejaVuSans-68" d="M 3513 2113 
L 3513 0 
L 2938 0 
L 2938 2094 
Q 2938 2591 2744 2837 
Q 2550 3084 2163 3084 
Q 1697 3084 1428 2787 
Q 1159 2491 1159 1978 
L 1159 0 
L 581 0 
L 581 4863 
L 1159 4863 
L 1159 2956 
Q 1366 3272 1645 3428 
Q 1925 3584 2291 3584 
Q 2894 3584 3203 3211 
Q 3513 2838 3513 2113 
z
" transform="scale(0.015625)"/>
     </defs>
     <use xlink:href="#DejaVuSans-50"/>
     <use xlink:href="#DejaVuSans-65" x="56.677734"/>
     <use xlink:href="#DejaVuSans-6c" x="118.201172"/>
     <use xlink:href="#DejaVuSans-6c" x="145.984375"/>
     <use xlink:href="#DejaVuSans-65" x="173.767578"/>
     <use xlink:href="#DejaVuSans-74" x="235.291016"/>
     <use xlink:href="#DejaVuSans-2d" x="274.5"/>
     <use xlink:href="#DejaVuSans-69" x="310.583984"/>
     <use xlink:href="#DejaVuSans-6e" x="338.367188"/>
     <use xlink:href="#DejaVuSans-2d" x="401.746094"/>
     <use xlink:href="#DejaVuSans-4d" x="437.830078"/>
     <use xlink:href="#DejaVuSans-65" x="524.109375"/>
     <use xlink:href="#DejaVuSans-61" x="585.632812"/>
     <use xlink:href="#DejaVuSans-6c" x="646.912109"/>
     <use xlink:href="#DejaVuSans-20" x="674.695312"/>
     <use xlink:href="#DejaVuSans-52" x="706.482422"/>
     <use xlink:href="#DejaVuSans-61" x="773.714844"/>
     <use xlink:href="#DejaVuSans-74" x="834.994141"/>
     <use xlink:href="#DejaVuSans-69" x="874.203125"/>
     <use xlink:href="#DejaVuSans-6f" x="901.986328"/>
     <use xlink:href="#DejaVuSans-20" x="963.167969"/>
     <use xlink:href="#DejaVuSans-44" x="994.955078"/>
     <use xlink:href="#DejaVuSans-69" x="1071.957031"/>
     <use xlink:href="#DejaVuSans-73" x="1099.740234"/>
     <use xlink:href="#DejaVuSans-74" x="1151.839844"/>
     <use xlink:href="#DejaVuSans-72" x="1191.048828"/>
     <use xlink:href="#DejaVuSans-69" x="1232.162109"/>
     <use xlink:href="#DejaVuSans-62" x="1259.945312"/>
     <use xlink:href="#DejaVuSans-75" x="1323.421875"/>
     <use xlink:href="#DejaVuSans-74" x="1386.800781"/>
     <use xlink:href="#DejaVuSans-69" x="1426.009766"/>
     <use xlink:href="#DejaVuSans-6f" x="1453.792969"/>
     <use xlink:href="#DejaVuSans-6e" x="1514.974609"/>
     <use xlink:href="#DejaVuSans-20" x="1578.353516"/>
     <use xlink:href="#DejaVuSans-2d" x="1610.140625"/>
     <use xlink:href="#DejaVuSans-20" x="1646.224609"/>
     <use xlink:href="#DejaVuSans-4f" x="1678.011719"/>
     <use xlink:href="#DejaVuSans-74" x="1756.722656"/>
     <use xlink:href="#DejaVuSans-68" x="1795.931641"/>
     <use xlink:href="#DejaVuSans-65" x="1859.310547"/>
     <use xlink:href="#DejaVuSans-72" x="1920.833984"/>
     <use xlink:href="#DejaVuSans-20" x="1961.947266"/>
     <use xlink:href="#DejaVuSans-47" x="1993.734375"/>
     <use xlink:href="#DejaVuSans-72" x="2071.224609"/>
     <use xlink:href="#DejaVuSans-6f" x="2110.087891"/>
     <use xlink:href="#DejaVuSans-75" x="2171.269531"/>
     <use xlink:href="#DejaVuSans-70" x="2234.648438"/>
     <use xlink:href="#DejaVuSans-73" x="2298.125"/>
    </g>
   </g>
   <g id="legend_2">
    <g id="patch_18">
     <path d="M 715.37875 52.57125 
L 841.255 52.57125 
Q 843.655 52.57125 843.655 50.17125 
L 843.655 33.7575 
Q 843.655 31.3575 841.255 31.3575 
L 715.37875 31.3575 
Q 712.97875 31.3575 712.97875 33.7575 
L 712.97875 50.17125 
Q 712.97875 52.57125 715.37875 52.57125 
z
" style="fill: #ffffff; opacity: 0.8; stroke: #cccccc; stroke-linejoin: miter"/>
    </g>
    <g id="patch_19">
     <path d="M 717.77875 45.275625 
L 741.77875 45.275625 
L 741.77875 36.875625 
L 717.77875 36.875625 
z
" style="fill: #0ec72a; opacity: 0.65; stroke: #0ec72a; stroke-linejoin: miter"/>
    </g>
    <g id="text_32">
     <!-- female (n=18) -->
     <g transform="translate(751.37875 45.275625) scale(0.12 -0.12)">
      <defs>
       <path id="DejaVuSans-31" d="M 794 531 
L 1825 531 
L 1825 4091 
L 703 3866 
L 703 4441 
L 1819 4666 
L 2450 4666 
L 2450 531 
L 3481 531 
L 3481 0 
L 794 0 
L 794 531 
z
" transform="scale(0.015625)"/>
      </defs>
      <use xlink:href="#DejaVuSans-66"/>
      <use xlink:href="#DejaVuSans-65" x="35.205078"/>
      <use xlink:href="#DejaVuSans-6d" x="96.728516"/>
      <use xlink:href="#DejaVuSans-61" x="194.140625"/>
      <use xlink:href="#DejaVuSans-6c" x="255.419922"/>
      <use xlink:href="#DejaVuSans-65" x="283.203125"/>
      <use xlink:href="#DejaVuSans-20" x="344.726562"/>
      <use xlink:href="#DejaVuSans-28" x="376.513672"/>
      <use xlink:href="#DejaVuSans-6e" x="415.527344"/>
      <use xlink:href="#DejaVuSans-3d" x="478.90625"/>
      <use xlink:href="#DejaVuSans-31" x="562.695312"/>
      <use xlink:href="#DejaVuSans-38" x="626.318359"/>
      <use xlink:href="#DejaVuSans-29" x="689.941406"/>
     </g>
    </g>
   </g>
  </g>
 </g>
 <defs>
  <clipPath id="p7a972d9536">
   <rect x="54.015" y="25.3575" width="369.04" height="357.88"/>
  </clipPath>
  <clipPath id="p803d36fa09">
   <rect x="480.615" y="25.3575" width="369.04" height="357.88"/>
  </clipPath>
 </defs>
</svg>
