<?xml version="1.0" encoding="utf-8" standalone="no"?>
<!DOCTYPE svg PUBLIC "-//W3C//DTD SVG 1.1//EN"
  "http://www.w3.org/Graphics/SVG/1.1/DTD/svg11.dtd">
<svg xmlns:xlink="http://www.w3.org/1999/xlink" width="613.246875pt" height="402.464375pt" viewBox="0 0 613.246875 402.464375" xmlns="http://www.w3.org/2000/svg" version="1.1">
 <metadata>
  <rdf:RDF xmlns:dc="http://purl.org/dc/elements/1.1/" xmlns:cc="http://creativecommons.org/ns#" xmlns:rdf="http://www.w3.org/1999/02/22-rdf-syntax-ns#">
   <cc:Work>
    <dc:type rdf:resource="http://purl.org/dc/dcmitype/StillImage"/>
    <dc:date>2025-05-09T15:18:45.816107</dc:date>
    <dc:format>image/svg+xml</dc:format>
    <dc:creator>
     <cc:Agent>
      <dc:title>Matplotlib v3.8.3, https://matplotlib.org/</dc:title>
     </cc:Agent>
    </dc:creator>
   </cc:Work>
  </rdf:RDF>
 </metadata>
 <defs>
  <style type="text/css">*{stroke-linejoin: round; stroke-linecap: butt}</style>
 </defs>
 <g id="figure_1">
  <g id="patch_1">
   <path d="M 0 402.464375 
L 613.246875 402.464375 
L 613.246875 0 
L 0 0 
z
" style="fill: #ffffff"/>
  </g>
  <g id="axes_1">
   <g id="patch_2">
    <path d="M 139.223438 361.036875 
L 474.023438 361.036875 
L 474.023438 28.396875 
L 139.223438 28.396875 
z
" style="fill: #ffffff"/>
   </g>
   <g id="PolyCollection_1">
    <defs>
     <path id="m11fcbb7d3e" d="M 252.95156 -56.5475 
L 248.695315 -56.5475 
L 248.634433 -59.296591 
L 248.581273 -62.045682 
L 248.5356 -64.794773 
L 248.497035 -67.543864 
L 248.4651 -70.292955 
L 248.439258 -73.042045 
L 248.418957 -75.791136 
L 248.40366 -78.540227 
L 248.392879 -81.289318 
L 248.386186 -84.038409 
L 248.383223 -86.7875 
L 248.383689 -89.536591 
L 248.387324 -92.285682 
L 248.393874 -95.034773 
L 248.403056 -97.783864 
L 248.414514 -100.532955 
L 248.427778 -103.282045 
L 248.442224 -106.031136 
L 248.457039 -108.780227 
L 248.471205 -111.529318 
L 248.483481 -114.278409 
L 248.492406 -117.0275 
L 248.496316 -119.776591 
L 248.493366 -122.525682 
L 248.481562 -125.274773 
L 248.458802 -128.023864 
L 248.422915 -130.772955 
L 248.371702 -133.522045 
L 248.302971 -136.271136 
L 248.214564 -139.020227 
L 248.104378 -141.769318 
L 247.970379 -144.518409 
L 247.810594 -147.2675 
L 247.623114 -150.016591 
L 247.40608 -152.765682 
L 247.157667 -155.514773 
L 246.876073 -158.263864 
L 246.559512 -161.012955 
L 246.206212 -163.762045 
L 245.814428 -166.511136 
L 245.382466 -169.260227 
L 244.908717 -172.009318 
L 244.391716 -174.758409 
L 243.830199 -177.5075 
L 243.223183 -180.256591 
L 242.570052 -183.005682 
L 241.87064 -185.754773 
L 241.125326 -188.503864 
L 240.335117 -191.252955 
L 239.501728 -194.002045 
L 238.62765 -196.751136 
L 237.716202 -199.500227 
L 236.77157 -202.249318 
L 235.798822 -204.998409 
L 234.803906 -207.7475 
L 233.793626 -210.496591 
L 232.775592 -213.245682 
L 231.758154 -215.994773 
L 230.750314 -218.743864 
L 229.761609 -221.492955 
L 228.801991 -224.242045 
L 227.881672 -226.991136 
L 227.010966 -229.740227 
L 226.200114 -232.489318 
L 225.459097 -235.238409 
L 224.797445 -237.9875 
L 224.224044 -240.736591 
L 223.746944 -243.485682 
L 223.373176 -246.234773 
L 223.108582 -248.983864 
L 222.957659 -251.732955 
L 222.923438 -254.482045 
L 223.007382 -257.231136 
L 223.209323 -259.980227 
L 223.527439 -262.729318 
L 223.958262 -265.478409 
L 224.49674 -268.2275 
L 225.136328 -270.976591 
L 225.869128 -273.725682 
L 226.686053 -276.474773 
L 227.577032 -279.223864 
L 228.531232 -281.972955 
L 229.537298 -284.722045 
L 230.583603 -287.471136 
L 231.658497 -290.220227 
L 232.750548 -292.969318 
L 233.848772 -295.718409 
L 234.942832 -298.4675 
L 236.023214 -301.216591 
L 237.08137 -303.965682 
L 238.109823 -306.714773 
L 239.102232 -309.463864 
L 240.053423 -312.212955 
L 240.959381 -314.962045 
L 241.817206 -317.711136 
L 242.625049 -320.460227 
L 243.382013 -323.209318 
L 244.088043 -325.958409 
L 244.743805 -328.7075 
L 256.90307 -328.7075 
L 256.90307 -328.7075 
L 257.558832 -325.958409 
L 258.264862 -323.209318 
L 259.021826 -320.460227 
L 259.829669 -317.711136 
L 260.687494 -314.962045 
L 261.593452 -312.212955 
L 262.544643 -309.463864 
L 263.537052 -306.714773 
L 264.565505 -303.965682 
L 265.623661 -301.216591 
L 266.704043 -298.4675 
L 267.798103 -295.718409 
L 268.896327 -292.969318 
L 269.988378 -290.220227 
L 271.063272 -287.471136 
L 272.109577 -284.722045 
L 273.115643 -281.972955 
L 274.069843 -279.223864 
L 274.960822 -276.474773 
L 275.777747 -273.725682 
L 276.510547 -270.976591 
L 277.150135 -268.2275 
L 277.688613 -265.478409 
L 278.119436 -262.729318 
L 278.437552 -259.980227 
L 278.639493 -257.231136 
L 278.723438 -254.482045 
L 278.689216 -251.732955 
L 278.538293 -248.983864 
L 278.273699 -246.234773 
L 277.899931 -243.485682 
L 277.422831 -240.736591 
L 276.84943 -237.9875 
L 276.187778 -235.238409 
L 275.446761 -232.489318 
L 274.635909 -229.740227 
L 273.765203 -226.991136 
L 272.844884 -224.242045 
L 271.885266 -221.492955 
L 270.896561 -218.743864 
L 269.888721 -215.994773 
L 268.871283 -213.245682 
L 267.853249 -210.496591 
L 266.842969 -207.7475 
L 265.848053 -204.998409 
L 264.875305 -202.249318 
L 263.930673 -199.500227 
L 263.019225 -196.751136 
L 262.145147 -194.002045 
L 261.311758 -191.252955 
L 260.521549 -188.503864 
L 259.776235 -185.754773 
L 259.076823 -183.005682 
L 258.423692 -180.256591 
L 257.816676 -177.5075 
L 257.255159 -174.758409 
L 256.738158 -172.009318 
L 256.264409 -169.260227 
L 255.832447 -166.511136 
L 255.440663 -163.762045 
L 255.087363 -161.012955 
L 254.770802 -158.263864 
L 254.489208 -155.514773 
L 254.240795 -152.765682 
L 254.023761 -150.016591 
L 253.836281 -147.2675 
L 253.676496 -144.518409 
L 253.542497 -141.769318 
L 253.432311 -139.020227 
L 253.343904 -136.271136 
L 253.275173 -133.522045 
L 253.22396 -130.772955 
L 253.188073 -128.023864 
L 253.165313 -125.274773 
L 253.153509 -122.525682 
L 253.150559 -119.776591 
L 253.154469 -117.0275 
L 253.163394 -114.278409 
L 253.17567 -111.529318 
L 253.189836 -108.780227 
L 253.204651 -106.031136 
L 253.219097 -103.282045 
L 253.232361 -100.532955 
L 253.243819 -97.783864 
L 253.253001 -95.034773 
L 253.259551 -92.285682 
L 253.263186 -89.536591 
L 253.263652 -86.7875 
L 253.260689 -84.038409 
L 253.253996 -81.289318 
L 253.243215 -78.540227 
L 253.227918 -75.791136 
L 253.207617 -73.042045 
L 253.181775 -70.292955 
L 253.14984 -67.543864 
L 253.111275 -64.794773 
L 253.065602 -62.045682 
L 253.012442 -59.296591 
L 252.95156 -56.5475 
z
" style="stroke: #000000; stroke-opacity: 0.6"/>
    </defs>
    <g clip-path="url(#pb2ba4071fd)">
     <use xlink:href="#m11fcbb7d3e" x="0" y="402.464375" style="fill: #38bcf5; fill-opacity: 0.6; stroke: #000000; stroke-opacity: 0.6"/>
    </g>
   </g>
   <g id="PolyCollection_2">
    <defs>
     <path id="me4a9e7b3df" d="M 364.06046 -137.1875 
L 360.786415 -137.1875 
L 360.796102 -139.4275 
L 360.826663 -141.6675 
L 360.876557 -143.9075 
L 360.94339 -146.1475 
L 361.024029 -148.3875 
L 361.114738 -150.6275 
L 361.211345 -152.8675 
L 361.309402 -155.1075 
L 361.404345 -157.3475 
L 361.49162 -159.5875 
L 361.566796 -161.8275 
L 361.625631 -164.0675 
L 361.664113 -166.3075 
L 361.678474 -168.5475 
L 361.66518 -170.7875 
L 361.620912 -173.0275 
L 361.542534 -175.2675 
L 361.427075 -177.5075 
L 361.271704 -179.7475 
L 361.073722 -181.9875 
L 360.830555 -184.2275 
L 360.539753 -186.4675 
L 360.198986 -188.7075 
L 359.80604 -190.9475 
L 359.358796 -193.1875 
L 358.855211 -195.4275 
L 358.293285 -197.6675 
L 357.671041 -199.9075 
L 356.986507 -202.1475 
L 356.237739 -204.3875 
L 355.422882 -206.6275 
L 354.540296 -208.8675 
L 353.588756 -211.1075 
L 352.567736 -213.3475 
L 351.477774 -215.5875 
L 350.320902 -217.8275 
L 349.101137 -220.0675 
L 347.824966 -222.3075 
L 346.501819 -224.5475 
L 345.144445 -226.7875 
L 343.76915 -229.0275 
L 342.395852 -231.2675 
L 341.047891 -233.5075 
L 339.751584 -235.7475 
L 338.5355 -237.9875 
L 337.429481 -240.2275 
L 336.463444 -242.4675 
L 335.666034 -244.7075 
L 335.063204 -246.9475 
L 334.676826 -249.1875 
L 334.523438 -251.4275 
L 334.613214 -253.6675 
L 334.949258 -255.9075 
L 335.527262 -258.1475 
L 336.335576 -260.3875 
L 337.355679 -262.6275 
L 338.563023 -264.8675 
L 339.928184 -267.1075 
L 341.418234 -269.3475 
L 342.998242 -271.5875 
L 344.632795 -273.8275 
L 346.287439 -276.0675 
L 347.929969 -278.3075 
L 349.53148 -280.5475 
L 351.067155 -282.7875 
L 352.516765 -285.0275 
L 353.864881 -287.2675 
L 355.100827 -289.5075 
L 356.218409 -291.7475 
L 357.215471 -293.9875 
L 358.093327 -296.2275 
L 358.85612 -298.4675 
L 359.510156 -300.7075 
L 360.063265 -302.9475 
L 360.524197 -305.1875 
L 360.902099 -307.4275 
L 361.206084 -309.6675 
L 361.444888 -311.9075 
L 361.626627 -314.1475 
L 361.758652 -316.3875 
L 361.84748 -318.6275 
L 361.898808 -320.8675 
L 361.91758 -323.1075 
L 361.908105 -325.3475 
L 361.874204 -327.5875 
L 361.819367 -329.8275 
L 361.746913 -332.0675 
L 361.660136 -334.3075 
L 361.562407 -336.5475 
L 361.457258 -338.7875 
L 361.348393 -341.0275 
L 361.239673 -343.2675 
L 361.135032 -345.5075 
L 361.038366 -347.7475 
L 360.95338 -349.9875 
L 360.883422 -352.2275 
L 360.831317 -354.4675 
L 360.799214 -356.7075 
L 360.788467 -358.9475 
L 364.058408 -358.9475 
L 364.058408 -358.9475 
L 364.047661 -356.7075 
L 364.015558 -354.4675 
L 363.963453 -352.2275 
L 363.893495 -349.9875 
L 363.808509 -347.7475 
L 363.711843 -345.5075 
L 363.607202 -343.2675 
L 363.498482 -341.0275 
L 363.389617 -338.7875 
L 363.284468 -336.5475 
L 363.186739 -334.3075 
L 363.099962 -332.0675 
L 363.027508 -329.8275 
L 362.972671 -327.5875 
L 362.93877 -325.3475 
L 362.929295 -323.1075 
L 362.948067 -320.8675 
L 362.999395 -318.6275 
L 363.088223 -316.3875 
L 363.220248 -314.1475 
L 363.401987 -311.9075 
L 363.640791 -309.6675 
L 363.944776 -307.4275 
L 364.322678 -305.1875 
L 364.78361 -302.9475 
L 365.336719 -300.7075 
L 365.990755 -298.4675 
L 366.753548 -296.2275 
L 367.631404 -293.9875 
L 368.628466 -291.7475 
L 369.746048 -289.5075 
L 370.981994 -287.2675 
L 372.33011 -285.0275 
L 373.77972 -282.7875 
L 375.315395 -280.5475 
L 376.916906 -278.3075 
L 378.559436 -276.0675 
L 380.21408 -273.8275 
L 381.848633 -271.5875 
L 383.428641 -269.3475 
L 384.918691 -267.1075 
L 386.283852 -264.8675 
L 387.491196 -262.6275 
L 388.511299 -260.3875 
L 389.319613 -258.1475 
L 389.897617 -255.9075 
L 390.233661 -253.6675 
L 390.323438 -251.4275 
L 390.170049 -249.1875 
L 389.783671 -246.9475 
L 389.180841 -244.7075 
L 388.383431 -242.4675 
L 387.417394 -240.2275 
L 386.311375 -237.9875 
L 385.095291 -235.7475 
L 383.798984 -233.5075 
L 382.451023 -231.2675 
L 381.077725 -229.0275 
L 379.70243 -226.7875 
L 378.345056 -224.5475 
L 377.021909 -222.3075 
L 375.745738 -220.0675 
L 374.525973 -217.8275 
L 373.369101 -215.5875 
L 372.279139 -213.3475 
L 371.258119 -211.1075 
L 370.306579 -208.8675 
L 369.423993 -206.6275 
L 368.609136 -204.3875 
L 367.860368 -202.1475 
L 367.175834 -199.9075 
L 366.55359 -197.6675 
L 365.991664 -195.4275 
L 365.488079 -193.1875 
L 365.040835 -190.9475 
L 364.647889 -188.7075 
L 364.307122 -186.4675 
L 364.01632 -184.2275 
L 363.773153 -181.9875 
L 363.575171 -179.7475 
L 363.4198 -177.5075 
L 363.304341 -175.2675 
L 363.225963 -173.0275 
L 363.181695 -170.7875 
L 363.168401 -168.5475 
L 363.182762 -166.3075 
L 363.221244 -164.0675 
L 363.280079 -161.8275 
L 363.355255 -159.5875 
L 363.44253 -157.3475 
L 363.537473 -155.1075 
L 363.63553 -152.8675 
L 363.732137 -150.6275 
L 363.822846 -148.3875 
L 363.903485 -146.1475 
L 363.970318 -143.9075 
L 364.020212 -141.6675 
L 364.050773 -139.4275 
L 364.06046 -137.1875 
z
" style="stroke: #000000; stroke-opacity: 0.6"/>
    </defs>
    <g clip-path="url(#pb2ba4071fd)">
     <use xlink:href="#me4a9e7b3df" x="0" y="402.464375" style="fill: #38f5a6; fill-opacity: 0.6; stroke: #000000; stroke-opacity: 0.6"/>
    </g>
   </g>
   <g id="matplotlib.axis_1">
    <g id="xtick_1">
     <g id="line2d_1">
      <defs>
       <path id="m9c11f1be3a" d="M 0 0 
L 0 3.5 
" style="stroke: #000000; stroke-width: 0.8"/>
      </defs>
      <g>
       <use xlink:href="#m9c11f1be3a" x="250.823438" y="361.036875" style="stroke: #000000; stroke-width: 0.8"/>
      </g>
     </g>
     <g id="text_1">
      <!-- Ctrl -->
      <g transform="translate(241.927344 375.635312) scale(0.1 -0.1)">
       <defs>
        <path id="DejaVuSans-43" d="M 4122 4306 
L 4122 3641 
Q 3803 3938 3442 4084 
Q 3081 4231 2675 4231 
Q 1875 4231 1450 3742 
Q 1025 3253 1025 2328 
Q 1025 1406 1450 917 
Q 1875 428 2675 428 
Q 3081 428 3442 575 
Q 3803 722 4122 1019 
L 4122 359 
Q 3791 134 3420 21 
Q 3050 -91 2638 -91 
Q 1578 -91 968 557 
Q 359 1206 359 2328 
Q 359 3453 968 4101 
Q 1578 4750 2638 4750 
Q 3056 4750 3426 4639 
Q 3797 4528 4122 4306 
z
" transform="scale(0.015625)"/>
        <path id="DejaVuSans-74" d="M 1172 4494 
L 1172 3500 
L 2356 3500 
L 2356 3053 
L 1172 3053 
L 1172 1153 
Q 1172 725 1289 603 
Q 1406 481 1766 481 
L 2356 481 
L 2356 0 
L 1766 0 
Q 1100 0 847 248 
Q 594 497 594 1153 
L 594 3053 
L 172 3053 
L 172 3500 
L 594 3500 
L 594 4494 
L 1172 4494 
z
" transform="scale(0.015625)"/>
        <path id="DejaVuSans-72" d="M 2631 2963 
Q 2534 3019 2420 3045 
Q 2306 3072 2169 3072 
Q 1681 3072 1420 2755 
Q 1159 2438 1159 1844 
L 1159 0 
L 581 0 
L 581 3500 
L 1159 3500 
L 1159 2956 
Q 1341 3275 1631 3429 
Q 1922 3584 2338 3584 
Q 2397 3584 2469 3576 
Q 2541 3569 2628 3553 
L 2631 2963 
z
" transform="scale(0.015625)"/>
        <path id="DejaVuSans-6c" d="M 603 4863 
L 1178 4863 
L 1178 0 
L 603 0 
L 603 4863 
z
" transform="scale(0.015625)"/>
       </defs>
       <use xlink:href="#DejaVuSans-43"/>
       <use xlink:href="#DejaVuSans-74" x="69.824219"/>
       <use xlink:href="#DejaVuSans-72" x="109.033203"/>
       <use xlink:href="#DejaVuSans-6c" x="150.146484"/>
      </g>
     </g>
    </g>
    <g id="xtick_2">
     <g id="line2d_2">
      <g>
       <use xlink:href="#m9c11f1be3a" x="362.423438" y="361.036875" style="stroke: #000000; stroke-width: 0.8"/>
      </g>
     </g>
     <g id="text_2">
      <!-- CASK -->
      <g transform="translate(349.058594 375.635312) scale(0.1 -0.1)">
       <defs>
        <path id="DejaVuSans-41" d="M 2188 4044 
L 1331 1722 
L 3047 1722 
L 2188 4044 
z
M 1831 4666 
L 2547 4666 
L 4325 0 
L 3669 0 
L 3244 1197 
L 1141 1197 
L 716 0 
L 50 0 
L 1831 4666 
z
" transform="scale(0.015625)"/>
        <path id="DejaVuSans-53" d="M 3425 4513 
L 3425 3897 
Q 3066 4069 2747 4153 
Q 2428 4238 2131 4238 
Q 1616 4238 1336 4038 
Q 1056 3838 1056 3469 
Q 1056 3159 1242 3001 
Q 1428 2844 1947 2747 
L 2328 2669 
Q 3034 2534 3370 2195 
Q 3706 1856 3706 1288 
Q 3706 609 3251 259 
Q 2797 -91 1919 -91 
Q 1588 -91 1214 -16 
Q 841 59 441 206 
L 441 856 
Q 825 641 1194 531 
Q 1563 422 1919 422 
Q 2459 422 2753 634 
Q 3047 847 3047 1241 
Q 3047 1584 2836 1778 
Q 2625 1972 2144 2069 
L 1759 2144 
Q 1053 2284 737 2584 
Q 422 2884 422 3419 
Q 422 4038 858 4394 
Q 1294 4750 2059 4750 
Q 2388 4750 2728 4690 
Q 3069 4631 3425 4513 
z
" transform="scale(0.015625)"/>
        <path id="DejaVuSans-4b" d="M 628 4666 
L 1259 4666 
L 1259 2694 
L 3353 4666 
L 4166 4666 
L 1850 2491 
L 4331 0 
L 3500 0 
L 1259 2247 
L 1259 0 
L 628 0 
L 628 4666 
z
" transform="scale(0.015625)"/>
       </defs>
       <use xlink:href="#DejaVuSans-43"/>
       <use xlink:href="#DejaVuSans-41" x="69.824219"/>
       <use xlink:href="#DejaVuSans-53" x="138.232422"/>
       <use xlink:href="#DejaVuSans-4b" x="201.708984"/>
      </g>
     </g>
    </g>
    <g id="text_3">
     <!-- Groups -->
     <g transform="translate(281.669531 392.352812) scale(0.14 -0.14)">
      <defs>
       <path id="DejaVuSans-47" d="M 3809 666 
L 3809 1919 
L 2778 1919 
L 2778 2438 
L 4434 2438 
L 4434 434 
Q 4069 175 3628 42 
Q 3188 -91 2688 -91 
Q 1594 -91 976 548 
Q 359 1188 359 2328 
Q 359 3472 976 4111 
Q 1594 4750 2688 4750 
Q 3144 4750 3555 4637 
Q 3966 4525 4313 4306 
L 4313 3634 
Q 3963 3931 3569 4081 
Q 3175 4231 2741 4231 
Q 1884 4231 1454 3753 
Q 1025 3275 1025 2328 
Q 1025 1384 1454 906 
Q 1884 428 2741 428 
Q 3075 428 3337 486 
Q 3600 544 3809 666 
z
" transform="scale(0.015625)"/>
       <path id="DejaVuSans-6f" d="M 1959 3097 
Q 1497 3097 1228 2736 
Q 959 2375 959 1747 
Q 959 1119 1226 758 
Q 1494 397 1959 397 
Q 2419 397 2687 759 
Q 2956 1122 2956 1747 
Q 2956 2369 2687 2733 
Q 2419 3097 1959 3097 
z
M 1959 3584 
Q 2709 3584 3137 3096 
Q 3566 2609 3566 1747 
Q 3566 888 3137 398 
Q 2709 -91 1959 -91 
Q 1206 -91 779 398 
Q 353 888 353 1747 
Q 353 2609 779 3096 
Q 1206 3584 1959 3584 
z
" transform="scale(0.015625)"/>
       <path id="DejaVuSans-75" d="M 544 1381 
L 544 3500 
L 1119 3500 
L 1119 1403 
Q 1119 906 1312 657 
Q 1506 409 1894 409 
Q 2359 409 2629 706 
Q 2900 1003 2900 1516 
L 2900 3500 
L 3475 3500 
L 3475 0 
L 2900 0 
L 2900 538 
Q 2691 219 2414 64 
Q 2138 -91 1772 -91 
Q 1169 -91 856 284 
Q 544 659 544 1381 
z
M 1991 3584 
L 1991 3584 
z
" transform="scale(0.015625)"/>
       <path id="DejaVuSans-70" d="M 1159 525 
L 1159 -1331 
L 581 -1331 
L 581 3500 
L 1159 3500 
L 1159 2969 
Q 1341 3281 1617 3432 
Q 1894 3584 2278 3584 
Q 2916 3584 3314 3078 
Q 3713 2572 3713 1747 
Q 3713 922 3314 415 
Q 2916 -91 2278 -91 
Q 1894 -91 1617 61 
Q 1341 213 1159 525 
z
M 3116 1747 
Q 3116 2381 2855 2742 
Q 2594 3103 2138 3103 
Q 1681 3103 1420 2742 
Q 1159 2381 1159 1747 
Q 1159 1113 1420 752 
Q 1681 391 2138 391 
Q 2594 391 2855 752 
Q 3116 1113 3116 1747 
z
" transform="scale(0.015625)"/>
       <path id="DejaVuSans-73" d="M 2834 3397 
L 2834 2853 
Q 2591 2978 2328 3040 
Q 2066 3103 1784 3103 
Q 1356 3103 1142 2972 
Q 928 2841 928 2578 
Q 928 2378 1081 2264 
Q 1234 2150 1697 2047 
L 1894 2003 
Q 2506 1872 2764 1633 
Q 3022 1394 3022 966 
Q 3022 478 2636 193 
Q 2250 -91 1575 -91 
Q 1294 -91 989 -36 
Q 684 19 347 128 
L 347 722 
Q 666 556 975 473 
Q 1284 391 1588 391 
Q 1994 391 2212 530 
Q 2431 669 2431 922 
Q 2431 1156 2273 1281 
Q 2116 1406 1581 1522 
L 1381 1569 
Q 847 1681 609 1914 
Q 372 2147 372 2553 
Q 372 3047 722 3315 
Q 1072 3584 1716 3584 
Q 2034 3584 2315 3537 
Q 2597 3491 2834 3397 
z
" transform="scale(0.015625)"/>
      </defs>
      <use xlink:href="#DejaVuSans-47"/>
      <use xlink:href="#DejaVuSans-72" x="77.490234"/>
      <use xlink:href="#DejaVuSans-6f" x="116.353516"/>
      <use xlink:href="#DejaVuSans-75" x="177.535156"/>
      <use xlink:href="#DejaVuSans-70" x="240.914062"/>
      <use xlink:href="#DejaVuSans-73" x="304.390625"/>
     </g>
    </g>
   </g>
   <g id="matplotlib.axis_2">
    <g id="ytick_1">
     <g id="line2d_3">
      <defs>
       <path id="maff9ec181c" d="M 0 0 
L -3.5 0 
" style="stroke: #000000; stroke-width: 0.8"/>
      </defs>
      <g>
       <use xlink:href="#maff9ec181c" x="139.223438" y="325.756875" style="stroke: #000000; stroke-width: 0.8"/>
      </g>
     </g>
     <g id="text_4">
      <!-- −0.20 -->
      <g transform="translate(101.578125 329.556094) scale(0.1 -0.1)">
       <defs>
        <path id="DejaVuSans-2212" d="M 678 2272 
L 4684 2272 
L 4684 1741 
L 678 1741 
L 678 2272 
z
" transform="scale(0.015625)"/>
        <path id="DejaVuSans-30" d="M 2034 4250 
Q 1547 4250 1301 3770 
Q 1056 3291 1056 2328 
Q 1056 1369 1301 889 
Q 1547 409 2034 409 
Q 2525 409 2770 889 
Q 3016 1369 3016 2328 
Q 3016 3291 2770 3770 
Q 2525 4250 2034 4250 
z
M 2034 4750 
Q 2819 4750 3233 4129 
Q 3647 3509 3647 2328 
Q 3647 1150 3233 529 
Q 2819 -91 2034 -91 
Q 1250 -91 836 529 
Q 422 1150 422 2328 
Q 422 3509 836 4129 
Q 1250 4750 2034 4750 
z
" transform="scale(0.015625)"/>
        <path id="DejaVuSans-2e" d="M 684 794 
L 1344 794 
L 1344 0 
L 684 0 
L 684 794 
z
" transform="scale(0.015625)"/>
        <path id="DejaVuSans-32" d="M 1228 531 
L 3431 531 
L 3431 0 
L 469 0 
L 469 531 
Q 828 903 1448 1529 
Q 2069 2156 2228 2338 
Q 2531 2678 2651 2914 
Q 2772 3150 2772 3378 
Q 2772 3750 2511 3984 
Q 2250 4219 1831 4219 
Q 1534 4219 1204 4116 
Q 875 4013 500 3803 
L 500 4441 
Q 881 4594 1212 4672 
Q 1544 4750 1819 4750 
Q 2544 4750 2975 4387 
Q 3406 4025 3406 3419 
Q 3406 3131 3298 2873 
Q 3191 2616 2906 2266 
Q 2828 2175 2409 1742 
Q 1991 1309 1228 531 
z
" transform="scale(0.015625)"/>
       </defs>
       <use xlink:href="#DejaVuSans-2212"/>
       <use xlink:href="#DejaVuSans-30" x="83.789062"/>
       <use xlink:href="#DejaVuSans-2e" x="147.412109"/>
       <use xlink:href="#DejaVuSans-32" x="179.199219"/>
       <use xlink:href="#DejaVuSans-30" x="242.822266"/>
      </g>
     </g>
    </g>
    <g id="ytick_2">
     <g id="line2d_4">
      <g>
       <use xlink:href="#maff9ec181c" x="139.223438" y="275.356875" style="stroke: #000000; stroke-width: 0.8"/>
      </g>
     </g>
     <g id="text_5">
      <!-- −0.15 -->
      <g transform="translate(101.578125 279.156094) scale(0.1 -0.1)">
       <defs>
        <path id="DejaVuSans-31" d="M 794 531 
L 1825 531 
L 1825 4091 
L 703 3866 
L 703 4441 
L 1819 4666 
L 2450 4666 
L 2450 531 
L 3481 531 
L 3481 0 
L 794 0 
L 794 531 
z
" transform="scale(0.015625)"/>
        <path id="DejaVuSans-35" d="M 691 4666 
L 3169 4666 
L 3169 4134 
L 1269 4134 
L 1269 2991 
Q 1406 3038 1543 3061 
Q 1681 3084 1819 3084 
Q 2600 3084 3056 2656 
Q 3513 2228 3513 1497 
Q 3513 744 3044 326 
Q 2575 -91 1722 -91 
Q 1428 -91 1123 -41 
Q 819 9 494 109 
L 494 744 
Q 775 591 1075 516 
Q 1375 441 1709 441 
Q 2250 441 2565 725 
Q 2881 1009 2881 1497 
Q 2881 1984 2565 2268 
Q 2250 2553 1709 2553 
Q 1456 2553 1204 2497 
Q 953 2441 691 2322 
L 691 4666 
z
" transform="scale(0.015625)"/>
       </defs>
       <use xlink:href="#DejaVuSans-2212"/>
       <use xlink:href="#DejaVuSans-30" x="83.789062"/>
       <use xlink:href="#DejaVuSans-2e" x="147.412109"/>
       <use xlink:href="#DejaVuSans-31" x="179.199219"/>
       <use xlink:href="#DejaVuSans-35" x="242.822266"/>
      </g>
     </g>
    </g>
    <g id="ytick_3">
     <g id="line2d_5">
      <g>
       <use xlink:href="#maff9ec181c" x="139.223438" y="224.956875" style="stroke: #000000; stroke-width: 0.8"/>
      </g>
     </g>
     <g id="text_6">
      <!-- −0.10 -->
      <g transform="translate(101.578125 228.756094) scale(0.1 -0.1)">
       <use xlink:href="#DejaVuSans-2212"/>
       <use xlink:href="#DejaVuSans-30" x="83.789062"/>
       <use xlink:href="#DejaVuSans-2e" x="147.412109"/>
       <use xlink:href="#DejaVuSans-31" x="179.199219"/>
       <use xlink:href="#DejaVuSans-30" x="242.822266"/>
      </g>
     </g>
    </g>
    <g id="ytick_4">
     <g id="line2d_6">
      <g>
       <use xlink:href="#maff9ec181c" x="139.223438" y="174.556875" style="stroke: #000000; stroke-width: 0.8"/>
      </g>
     </g>
     <g id="text_7">
      <!-- −0.05 -->
      <g transform="translate(101.578125 178.356094) scale(0.1 -0.1)">
       <use xlink:href="#DejaVuSans-2212"/>
       <use xlink:href="#DejaVuSans-30" x="83.789062"/>
       <use xlink:href="#DejaVuSans-2e" x="147.412109"/>
       <use xlink:href="#DejaVuSans-30" x="179.199219"/>
       <use xlink:href="#DejaVuSans-35" x="242.822266"/>
      </g>
     </g>
    </g>
    <g id="ytick_5">
     <g id="line2d_7">
      <g>
       <use xlink:href="#maff9ec181c" x="139.223438" y="124.156875" style="stroke: #000000; stroke-width: 0.8"/>
      </g>
     </g>
     <g id="text_8">
      <!-- 0.00 -->
      <g transform="translate(109.957813 127.956094) scale(0.1 -0.1)">
       <use xlink:href="#DejaVuSans-30"/>
       <use xlink:href="#DejaVuSans-2e" x="63.623047"/>
       <use xlink:href="#DejaVuSans-30" x="95.410156"/>
       <use xlink:href="#DejaVuSans-30" x="159.033203"/>
      </g>
     </g>
    </g>
    <g id="ytick_6">
     <g id="line2d_8">
      <g>
       <use xlink:href="#maff9ec181c" x="139.223438" y="73.756875" style="stroke: #000000; stroke-width: 0.8"/>
      </g>
     </g>
     <g id="text_9">
      <!-- 0.05 -->
      <g transform="translate(109.957813 77.556094) scale(0.1 -0.1)">
       <use xlink:href="#DejaVuSans-30"/>
       <use xlink:href="#DejaVuSans-2e" x="63.623047"/>
       <use xlink:href="#DejaVuSans-30" x="95.410156"/>
       <use xlink:href="#DejaVuSans-35" x="159.033203"/>
      </g>
     </g>
    </g>
    <g id="text_10">
     <!-- Retrieval Time Best-fit Line Slope () -->
     <g transform="translate(94.666563 318.727344) rotate(-90) scale(0.14 -0.14)">
      <defs>
       <path id="DejaVuSans-52" d="M 2841 2188 
Q 3044 2119 3236 1894 
Q 3428 1669 3622 1275 
L 4263 0 
L 3584 0 
L 2988 1197 
Q 2756 1666 2539 1819 
Q 2322 1972 1947 1972 
L 1259 1972 
L 1259 0 
L 628 0 
L 628 4666 
L 2053 4666 
Q 2853 4666 3247 4331 
Q 3641 3997 3641 3322 
Q 3641 2881 3436 2590 
Q 3231 2300 2841 2188 
z
M 1259 4147 
L 1259 2491 
L 2053 2491 
Q 2509 2491 2742 2702 
Q 2975 2913 2975 3322 
Q 2975 3731 2742 3939 
Q 2509 4147 2053 4147 
L 1259 4147 
z
" transform="scale(0.015625)"/>
       <path id="DejaVuSans-65" d="M 3597 1894 
L 3597 1613 
L 953 1613 
Q 991 1019 1311 708 
Q 1631 397 2203 397 
Q 2534 397 2845 478 
Q 3156 559 3463 722 
L 3463 178 
Q 3153 47 2828 -22 
Q 2503 -91 2169 -91 
Q 1331 -91 842 396 
Q 353 884 353 1716 
Q 353 2575 817 3079 
Q 1281 3584 2069 3584 
Q 2775 3584 3186 3129 
Q 3597 2675 3597 1894 
z
M 3022 2063 
Q 3016 2534 2758 2815 
Q 2500 3097 2075 3097 
Q 1594 3097 1305 2825 
Q 1016 2553 972 2059 
L 3022 2063 
z
" transform="scale(0.015625)"/>
       <path id="DejaVuSans-69" d="M 603 3500 
L 1178 3500 
L 1178 0 
L 603 0 
L 603 3500 
z
M 603 4863 
L 1178 4863 
L 1178 4134 
L 603 4134 
L 603 4863 
z
" transform="scale(0.015625)"/>
       <path id="DejaVuSans-76" d="M 191 3500 
L 800 3500 
L 1894 563 
L 2988 3500 
L 3597 3500 
L 2284 0 
L 1503 0 
L 191 3500 
z
" transform="scale(0.015625)"/>
       <path id="DejaVuSans-61" d="M 2194 1759 
Q 1497 1759 1228 1600 
Q 959 1441 959 1056 
Q 959 750 1161 570 
Q 1363 391 1709 391 
Q 2188 391 2477 730 
Q 2766 1069 2766 1631 
L 2766 1759 
L 2194 1759 
z
M 3341 1997 
L 3341 0 
L 2766 0 
L 2766 531 
Q 2569 213 2275 61 
Q 1981 -91 1556 -91 
Q 1019 -91 701 211 
Q 384 513 384 1019 
Q 384 1609 779 1909 
Q 1175 2209 1959 2209 
L 2766 2209 
L 2766 2266 
Q 2766 2663 2505 2880 
Q 2244 3097 1772 3097 
Q 1472 3097 1187 3025 
Q 903 2953 641 2809 
L 641 3341 
Q 956 3463 1253 3523 
Q 1550 3584 1831 3584 
Q 2591 3584 2966 3190 
Q 3341 2797 3341 1997 
z
" transform="scale(0.015625)"/>
       <path id="DejaVuSans-20" transform="scale(0.015625)"/>
       <path id="DejaVuSans-54" d="M -19 4666 
L 3928 4666 
L 3928 4134 
L 2272 4134 
L 2272 0 
L 1638 0 
L 1638 4134 
L -19 4134 
L -19 4666 
z
" transform="scale(0.015625)"/>
       <path id="DejaVuSans-6d" d="M 3328 2828 
Q 3544 3216 3844 3400 
Q 4144 3584 4550 3584 
Q 5097 3584 5394 3201 
Q 5691 2819 5691 2113 
L 5691 0 
L 5113 0 
L 5113 2094 
Q 5113 2597 4934 2840 
Q 4756 3084 4391 3084 
Q 3944 3084 3684 2787 
Q 3425 2491 3425 1978 
L 3425 0 
L 2847 0 
L 2847 2094 
Q 2847 2600 2669 2842 
Q 2491 3084 2119 3084 
Q 1678 3084 1418 2786 
Q 1159 2488 1159 1978 
L 1159 0 
L 581 0 
L 581 3500 
L 1159 3500 
L 1159 2956 
Q 1356 3278 1631 3431 
Q 1906 3584 2284 3584 
Q 2666 3584 2933 3390 
Q 3200 3197 3328 2828 
z
" transform="scale(0.015625)"/>
       <path id="DejaVuSans-42" d="M 1259 2228 
L 1259 519 
L 2272 519 
Q 2781 519 3026 730 
Q 3272 941 3272 1375 
Q 3272 1813 3026 2020 
Q 2781 2228 2272 2228 
L 1259 2228 
z
M 1259 4147 
L 1259 2741 
L 2194 2741 
Q 2656 2741 2882 2914 
Q 3109 3088 3109 3444 
Q 3109 3797 2882 3972 
Q 2656 4147 2194 4147 
L 1259 4147 
z
M 628 4666 
L 2241 4666 
Q 2963 4666 3353 4366 
Q 3744 4066 3744 3513 
Q 3744 3084 3544 2831 
Q 3344 2578 2956 2516 
Q 3422 2416 3680 2098 
Q 3938 1781 3938 1306 
Q 3938 681 3513 340 
Q 3088 0 2303 0 
L 628 0 
L 628 4666 
z
" transform="scale(0.015625)"/>
       <path id="DejaVuSans-2d" d="M 313 2009 
L 1997 2009 
L 1997 1497 
L 313 1497 
L 313 2009 
z
" transform="scale(0.015625)"/>
       <path id="DejaVuSans-66" d="M 2375 4863 
L 2375 4384 
L 1825 4384 
Q 1516 4384 1395 4259 
Q 1275 4134 1275 3809 
L 1275 3500 
L 2222 3500 
L 2222 3053 
L 1275 3053 
L 1275 0 
L 697 0 
L 697 3053 
L 147 3053 
L 147 3500 
L 697 3500 
L 697 3744 
Q 697 4328 969 4595 
Q 1241 4863 1831 4863 
L 2375 4863 
z
" transform="scale(0.015625)"/>
       <path id="DejaVuSans-4c" d="M 628 4666 
L 1259 4666 
L 1259 531 
L 3531 531 
L 3531 0 
L 628 0 
L 628 4666 
z
" transform="scale(0.015625)"/>
       <path id="DejaVuSans-6e" d="M 3513 2113 
L 3513 0 
L 2938 0 
L 2938 2094 
Q 2938 2591 2744 2837 
Q 2550 3084 2163 3084 
Q 1697 3084 1428 2787 
Q 1159 2491 1159 1978 
L 1159 0 
L 581 0 
L 581 3500 
L 1159 3500 
L 1159 2956 
Q 1366 3272 1645 3428 
Q 1925 3584 2291 3584 
Q 2894 3584 3203 3211 
Q 3513 2838 3513 2113 
z
" transform="scale(0.015625)"/>
       <path id="DejaVuSans-28" d="M 1984 4856 
Q 1566 4138 1362 3434 
Q 1159 2731 1159 2009 
Q 1159 1288 1364 580 
Q 1569 -128 1984 -844 
L 1484 -844 
Q 1016 -109 783 600 
Q 550 1309 550 2009 
Q 550 2706 781 3412 
Q 1013 4119 1484 4856 
L 1984 4856 
z
" transform="scale(0.015625)"/>
       <path id="DejaVuSans-29" d="M 513 4856 
L 1013 4856 
Q 1481 4119 1714 3412 
Q 1947 2706 1947 2009 
Q 1947 1309 1714 600 
Q 1481 -109 1013 -844 
L 513 -844 
Q 928 -128 1133 580 
Q 1338 1288 1338 2009 
Q 1338 2731 1133 3434 
Q 928 4138 513 4856 
z
" transform="scale(0.015625)"/>
      </defs>
      <use xlink:href="#DejaVuSans-52"/>
      <use xlink:href="#DejaVuSans-65" x="64.982422"/>
      <use xlink:href="#DejaVuSans-74" x="126.505859"/>
      <use xlink:href="#DejaVuSans-72" x="165.714844"/>
      <use xlink:href="#DejaVuSans-69" x="206.828125"/>
      <use xlink:href="#DejaVuSans-65" x="234.611328"/>
      <use xlink:href="#DejaVuSans-76" x="296.134766"/>
      <use xlink:href="#DejaVuSans-61" x="355.314453"/>
      <use xlink:href="#DejaVuSans-6c" x="416.59375"/>
      <use xlink:href="#DejaVuSans-20" x="444.376953"/>
      <use xlink:href="#DejaVuSans-54" x="476.164062"/>
      <use xlink:href="#DejaVuSans-69" x="534.123047"/>
      <use xlink:href="#DejaVuSans-6d" x="561.90625"/>
      <use xlink:href="#DejaVuSans-65" x="659.318359"/>
      <use xlink:href="#DejaVuSans-20" x="720.841797"/>
      <use xlink:href="#DejaVuSans-42" x="752.628906"/>
      <use xlink:href="#DejaVuSans-65" x="821.232422"/>
      <use xlink:href="#DejaVuSans-73" x="882.755859"/>
      <use xlink:href="#DejaVuSans-74" x="934.855469"/>
      <use xlink:href="#DejaVuSans-2d" x="974.064453"/>
      <use xlink:href="#DejaVuSans-66" x="1010.148438"/>
      <use xlink:href="#DejaVuSans-69" x="1045.353516"/>
      <use xlink:href="#DejaVuSans-74" x="1073.136719"/>
      <use xlink:href="#DejaVuSans-20" x="1112.345703"/>
      <use xlink:href="#DejaVuSans-4c" x="1144.132812"/>
      <use xlink:href="#DejaVuSans-69" x="1199.845703"/>
      <use xlink:href="#DejaVuSans-6e" x="1227.628906"/>
      <use xlink:href="#DejaVuSans-65" x="1291.007812"/>
      <use xlink:href="#DejaVuSans-20" x="1352.53125"/>
      <use xlink:href="#DejaVuSans-53" x="1384.318359"/>
      <use xlink:href="#DejaVuSans-6c" x="1447.794922"/>
      <use xlink:href="#DejaVuSans-6f" x="1475.578125"/>
      <use xlink:href="#DejaVuSans-70" x="1536.759766"/>
      <use xlink:href="#DejaVuSans-65" x="1600.236328"/>
      <use xlink:href="#DejaVuSans-20" x="1661.759766"/>
      <use xlink:href="#DejaVuSans-28" x="1693.546875"/>
      <use xlink:href="#DejaVuSans-29" x="1732.560547"/>
     </g>
    </g>
   </g>
   <g id="patch_3">
    <path d="M 236.873438 174.556875 
L 264.773438 174.556875 
L 264.773438 134.236875 
L 236.873438 134.236875 
L 236.873438 174.556875 
z
" clip-path="url(#pb2ba4071fd)" style="fill: #ffffff; stroke: #000000; stroke-linejoin: miter"/>
   </g>
   <g id="line2d_9">
    <path d="M 250.823438 174.556875 
L 250.823438 235.036875 
" clip-path="url(#pb2ba4071fd)" style="fill: none; stroke: #000000; stroke-linecap: square"/>
   </g>
   <g id="line2d_10">
    <path d="M 250.823438 134.236875 
L 250.823438 103.996875 
" clip-path="url(#pb2ba4071fd)" style="fill: none; stroke: #000000; stroke-linecap: square"/>
   </g>
   <g id="line2d_11">
    <path d="M 243.848438 235.036875 
L 257.798438 235.036875 
" clip-path="url(#pb2ba4071fd)" style="fill: none; stroke: #000000; stroke-linecap: square"/>
   </g>
   <g id="line2d_12">
    <path d="M 243.848438 103.996875 
L 257.798438 103.996875 
" clip-path="url(#pb2ba4071fd)" style="fill: none; stroke: #000000; stroke-linecap: square"/>
   </g>
   <g id="patch_4">
    <path d="M 348.473438 164.476875 
L 376.373438 164.476875 
L 376.373438 144.316875 
L 348.473438 144.316875 
L 348.473438 164.476875 
z
" clip-path="url(#pb2ba4071fd)" style="fill: #ffffff; stroke: #000000; stroke-linejoin: miter"/>
   </g>
   <g id="line2d_13">
    <path d="M 362.423438 164.476875 
L 362.423438 194.716875 
" clip-path="url(#pb2ba4071fd)" style="fill: none; stroke: #000000; stroke-linecap: square"/>
   </g>
   <g id="line2d_14">
    <path d="M 362.423438 144.316875 
L 362.423438 124.156875 
" clip-path="url(#pb2ba4071fd)" style="fill: none; stroke: #000000; stroke-linecap: square"/>
   </g>
   <g id="line2d_15">
    <path d="M 355.448438 194.716875 
L 369.398438 194.716875 
" clip-path="url(#pb2ba4071fd)" style="fill: none; stroke: #000000; stroke-linecap: square"/>
   </g>
   <g id="line2d_16">
    <path d="M 355.448438 124.156875 
L 369.398438 124.156875 
" clip-path="url(#pb2ba4071fd)" style="fill: none; stroke: #000000; stroke-linecap: square"/>
   </g>
   <g id="line2d_17">
    <path d="M 236.873438 149.356875 
L 264.773438 149.356875 
" clip-path="url(#pb2ba4071fd)" style="fill: none; stroke: #000000"/>
   </g>
   <g id="line2d_18">
    <path d="M 348.473438 154.396875 
L 376.373438 154.396875 
" clip-path="url(#pb2ba4071fd)" style="fill: none; stroke: #000000"/>
   </g>
   <g id="patch_5">
    <path d="M 139.223438 361.036875 
L 139.223438 28.396875 
" style="fill: none; stroke: #000000; stroke-width: 0.8; stroke-linejoin: miter; stroke-linecap: square"/>
   </g>
   <g id="patch_6">
    <path d="M 474.023438 361.036875 
L 474.023438 28.396875 
" style="fill: none; stroke: #000000; stroke-width: 0.8; stroke-linejoin: miter; stroke-linecap: square"/>
   </g>
   <g id="patch_7">
    <path d="M 139.223438 361.036875 
L 474.023438 361.036875 
" style="fill: none; stroke: #000000; stroke-width: 0.8; stroke-linejoin: miter; stroke-linecap: square"/>
   </g>
   <g id="patch_8">
    <path d="M 139.223438 28.396875 
L 474.023438 28.396875 
" style="fill: none; stroke: #000000; stroke-width: 0.8; stroke-linejoin: miter; stroke-linecap: square"/>
   </g>
   <g id="PathCollection_1">
    <defs>
     <path id="mee3c1a59c4" d="M 0 3 
C 0.795609 3 1.55874 2.683901 2.12132 2.12132 
C 2.683901 1.55874 3 0.795609 3 0 
C 3 -0.795609 2.683901 -1.55874 2.12132 -2.12132 
C 1.55874 -2.683901 0.795609 -3 0 -3 
C -0.795609 -3 -1.55874 -2.683901 -2.12132 -2.12132 
C -2.683901 -1.55874 -3 -0.795609 -3 0 
C -3 0.795609 -2.683901 1.55874 -2.12132 2.12132 
C -1.55874 2.683901 -0.795609 3 0 3 
z
" style="stroke: #18c1f5; stroke-opacity: 0.8"/>
    </defs>
    <g clip-path="url(#pb2ba4071fd)">
     <use xlink:href="#mee3c1a59c4" x="246.729261" y="345.916875" style="fill: #18c1f5; fill-opacity: 0.8; stroke: #18c1f5; stroke-opacity: 0.8"/>
     <use xlink:href="#mee3c1a59c4" x="253.240815" y="144.316875" style="fill: #18c1f5; fill-opacity: 0.8; stroke: #18c1f5; stroke-opacity: 0.8"/>
     <use xlink:href="#mee3c1a59c4" x="248.959151" y="114.076875" style="fill: #18c1f5; fill-opacity: 0.8; stroke: #18c1f5; stroke-opacity: 0.8"/>
     <use xlink:href="#mee3c1a59c4" x="255.829198" y="184.636875" style="fill: #18c1f5; fill-opacity: 0.8; stroke: #18c1f5; stroke-opacity: 0.8"/>
     <use xlink:href="#mee3c1a59c4" x="251.721028" y="144.316875" style="fill: #18c1f5; fill-opacity: 0.8; stroke: #18c1f5; stroke-opacity: 0.8"/>
     <use xlink:href="#mee3c1a59c4" x="255.726879" y="174.556875" style="fill: #18c1f5; fill-opacity: 0.8; stroke: #18c1f5; stroke-opacity: 0.8"/>
     <use xlink:href="#mee3c1a59c4" x="246.168378" y="174.556875" style="fill: #18c1f5; fill-opacity: 0.8; stroke: #18c1f5; stroke-opacity: 0.8"/>
     <use xlink:href="#mee3c1a59c4" x="253.278775" y="164.476875" style="fill: #18c1f5; fill-opacity: 0.8; stroke: #18c1f5; stroke-opacity: 0.8"/>
     <use xlink:href="#mee3c1a59c4" x="253.025183" y="134.236875" style="fill: #18c1f5; fill-opacity: 0.8; stroke: #18c1f5; stroke-opacity: 0.8"/>
     <use xlink:href="#mee3c1a59c4" x="246.671881" y="73.756875" style="fill: #18c1f5; fill-opacity: 0.8; stroke: #18c1f5; stroke-opacity: 0.8"/>
     <use xlink:href="#mee3c1a59c4" x="251.047767" y="134.236875" style="fill: #18c1f5; fill-opacity: 0.8; stroke: #18c1f5; stroke-opacity: 0.8"/>
     <use xlink:href="#mee3c1a59c4" x="252.315929" y="204.796875" style="fill: #18c1f5; fill-opacity: 0.8; stroke: #18c1f5; stroke-opacity: 0.8"/>
     <use xlink:href="#mee3c1a59c4" x="254.379476" y="164.476875" style="fill: #18c1f5; fill-opacity: 0.8; stroke: #18c1f5; stroke-opacity: 0.8"/>
     <use xlink:href="#mee3c1a59c4" x="245.471464" y="144.316875" style="fill: #18c1f5; fill-opacity: 0.8; stroke: #18c1f5; stroke-opacity: 0.8"/>
     <use xlink:href="#mee3c1a59c4" x="249.141055" y="295.516875" style="fill: #18c1f5; fill-opacity: 0.8; stroke: #18c1f5; stroke-opacity: 0.8"/>
     <use xlink:href="#mee3c1a59c4" x="253.928979" y="114.076875" style="fill: #18c1f5; fill-opacity: 0.8; stroke: #18c1f5; stroke-opacity: 0.8"/>
     <use xlink:href="#mee3c1a59c4" x="249.723562" y="235.036875" style="fill: #18c1f5; fill-opacity: 0.8; stroke: #18c1f5; stroke-opacity: 0.8"/>
     <use xlink:href="#mee3c1a59c4" x="248.589698" y="144.316875" style="fill: #18c1f5; fill-opacity: 0.8; stroke: #18c1f5; stroke-opacity: 0.8"/>
     <use xlink:href="#mee3c1a59c4" x="244.473616" y="154.396875" style="fill: #18c1f5; fill-opacity: 0.8; stroke: #18c1f5; stroke-opacity: 0.8"/>
     <use xlink:href="#mee3c1a59c4" x="247.601152" y="103.996875" style="fill: #18c1f5; fill-opacity: 0.8; stroke: #18c1f5; stroke-opacity: 0.8"/>
     <use xlink:href="#mee3c1a59c4" x="256.014266" y="154.396875" style="fill: #18c1f5; fill-opacity: 0.8; stroke: #18c1f5; stroke-opacity: 0.8"/>
     <use xlink:href="#mee3c1a59c4" x="250.143183" y="174.556875" style="fill: #18c1f5; fill-opacity: 0.8; stroke: #18c1f5; stroke-opacity: 0.8"/>
     <use xlink:href="#mee3c1a59c4" x="244.45541" y="124.156875" style="fill: #18c1f5; fill-opacity: 0.8; stroke: #18c1f5; stroke-opacity: 0.8"/>
     <use xlink:href="#mee3c1a59c4" x="247.390215" y="194.716875" style="fill: #18c1f5; fill-opacity: 0.8; stroke: #18c1f5; stroke-opacity: 0.8"/>
     <use xlink:href="#mee3c1a59c4" x="256.787298" y="144.316875" style="fill: #18c1f5; fill-opacity: 0.8; stroke: #18c1f5; stroke-opacity: 0.8"/>
     <use xlink:href="#mee3c1a59c4" x="244.12386" y="124.156875" style="fill: #18c1f5; fill-opacity: 0.8; stroke: #18c1f5; stroke-opacity: 0.8"/>
    </g>
   </g>
   <g id="PathCollection_2">
    <defs>
     <path id="m426df812eb" d="M 0 3 
C 0.795609 3 1.55874 2.683901 2.12132 2.12132 
C 2.683901 1.55874 3 0.795609 3 0 
C 3 -0.795609 2.683901 -1.55874 2.12132 -2.12132 
C 1.55874 -2.683901 0.795609 -3 0 -3 
C -0.795609 -3 -1.55874 -2.683901 -2.12132 -2.12132 
C -2.683901 -1.55874 -3 -0.795609 -3 0 
C -3 0.795609 -2.683901 1.55874 -2.12132 2.12132 
C -1.55874 2.683901 -0.795609 3 0 3 
z
" style="stroke: #36d15a; stroke-opacity: 0.8"/>
    </defs>
    <g clip-path="url(#pb2ba4071fd)">
     <use xlink:href="#m426df812eb" x="362.230154" y="164.476875" style="fill: #36d15a; fill-opacity: 0.8; stroke: #36d15a; stroke-opacity: 0.8"/>
     <use xlink:href="#m426df812eb" x="360.697319" y="144.316875" style="fill: #36d15a; fill-opacity: 0.8; stroke: #36d15a; stroke-opacity: 0.8"/>
     <use xlink:href="#m426df812eb" x="359.853417" y="144.316875" style="fill: #36d15a; fill-opacity: 0.8; stroke: #36d15a; stroke-opacity: 0.8"/>
     <use xlink:href="#m426df812eb" x="362.435102" y="154.396875" style="fill: #36d15a; fill-opacity: 0.8; stroke: #36d15a; stroke-opacity: 0.8"/>
     <use xlink:href="#m426df812eb" x="364.218678" y="124.156875" style="fill: #36d15a; fill-opacity: 0.8; stroke: #36d15a; stroke-opacity: 0.8"/>
     <use xlink:href="#m426df812eb" x="367.325088" y="154.396875" style="fill: #36d15a; fill-opacity: 0.8; stroke: #36d15a; stroke-opacity: 0.8"/>
     <use xlink:href="#m426df812eb" x="365.44573" y="184.636875" style="fill: #36d15a; fill-opacity: 0.8; stroke: #36d15a; stroke-opacity: 0.8"/>
     <use xlink:href="#m426df812eb" x="360.694207" y="174.556875" style="fill: #36d15a; fill-opacity: 0.8; stroke: #36d15a; stroke-opacity: 0.8"/>
     <use xlink:href="#m426df812eb" x="360.774698" y="154.396875" style="fill: #36d15a; fill-opacity: 0.8; stroke: #36d15a; stroke-opacity: 0.8"/>
     <use xlink:href="#m426df812eb" x="356.700933" y="174.556875" style="fill: #36d15a; fill-opacity: 0.8; stroke: #36d15a; stroke-opacity: 0.8"/>
     <use xlink:href="#m426df812eb" x="366.745188" y="134.236875" style="fill: #36d15a; fill-opacity: 0.8; stroke: #36d15a; stroke-opacity: 0.8"/>
     <use xlink:href="#m426df812eb" x="362.431089" y="144.316875" style="fill: #36d15a; fill-opacity: 0.8; stroke: #36d15a; stroke-opacity: 0.8"/>
     <use xlink:href="#m426df812eb" x="360.52727" y="194.716875" style="fill: #36d15a; fill-opacity: 0.8; stroke: #36d15a; stroke-opacity: 0.8"/>
     <use xlink:href="#m426df812eb" x="366.860798" y="154.396875" style="fill: #36d15a; fill-opacity: 0.8; stroke: #36d15a; stroke-opacity: 0.8"/>
     <use xlink:href="#m426df812eb" x="363.963653" y="144.316875" style="fill: #36d15a; fill-opacity: 0.8; stroke: #36d15a; stroke-opacity: 0.8"/>
     <use xlink:href="#m426df812eb" x="369.287677" y="144.316875" style="fill: #36d15a; fill-opacity: 0.8; stroke: #36d15a; stroke-opacity: 0.8"/>
     <use xlink:href="#m426df812eb" x="359.808562" y="144.316875" style="fill: #36d15a; fill-opacity: 0.8; stroke: #36d15a; stroke-opacity: 0.8"/>
     <use xlink:href="#m426df812eb" x="367.956149" y="144.316875" style="fill: #36d15a; fill-opacity: 0.8; stroke: #36d15a; stroke-opacity: 0.8"/>
     <use xlink:href="#m426df812eb" x="368.338948" y="134.236875" style="fill: #36d15a; fill-opacity: 0.8; stroke: #36d15a; stroke-opacity: 0.8"/>
     <use xlink:href="#m426df812eb" x="367.954239" y="43.516875" style="fill: #36d15a; fill-opacity: 0.8; stroke: #36d15a; stroke-opacity: 0.8"/>
     <use xlink:href="#m426df812eb" x="366.744589" y="154.396875" style="fill: #36d15a; fill-opacity: 0.8; stroke: #36d15a; stroke-opacity: 0.8"/>
     <use xlink:href="#m426df812eb" x="367.707185" y="164.476875" style="fill: #36d15a; fill-opacity: 0.8; stroke: #36d15a; stroke-opacity: 0.8"/>
     <use xlink:href="#m426df812eb" x="364.461433" y="154.396875" style="fill: #36d15a; fill-opacity: 0.8; stroke: #36d15a; stroke-opacity: 0.8"/>
     <use xlink:href="#m426df812eb" x="358.114192" y="265.276875" style="fill: #36d15a; fill-opacity: 0.8; stroke: #36d15a; stroke-opacity: 0.8"/>
    </g>
   </g>
   <g id="text_11">
    <!-- Retrieval Time Best-fit Line Slope Distribution: Ctrl vs. CASK -->
    <g transform="translate(7.2 22.396875) scale(0.2 -0.2)">
     <defs>
      <path id="DejaVuSans-44" d="M 1259 4147 
L 1259 519 
L 2022 519 
Q 2988 519 3436 956 
Q 3884 1394 3884 2338 
Q 3884 3275 3436 3711 
Q 2988 4147 2022 4147 
L 1259 4147 
z
M 628 4666 
L 1925 4666 
Q 3281 4666 3915 4102 
Q 4550 3538 4550 2338 
Q 4550 1131 3912 565 
Q 3275 0 1925 0 
L 628 0 
L 628 4666 
z
" transform="scale(0.015625)"/>
      <path id="DejaVuSans-62" d="M 3116 1747 
Q 3116 2381 2855 2742 
Q 2594 3103 2138 3103 
Q 1681 3103 1420 2742 
Q 1159 2381 1159 1747 
Q 1159 1113 1420 752 
Q 1681 391 2138 391 
Q 2594 391 2855 752 
Q 3116 1113 3116 1747 
z
M 1159 2969 
Q 1341 3281 1617 3432 
Q 1894 3584 2278 3584 
Q 2916 3584 3314 3078 
Q 3713 2572 3713 1747 
Q 3713 922 3314 415 
Q 2916 -91 2278 -91 
Q 1894 -91 1617 61 
Q 1341 213 1159 525 
L 1159 0 
L 581 0 
L 581 4863 
L 1159 4863 
L 1159 2969 
z
" transform="scale(0.015625)"/>
      <path id="DejaVuSans-3a" d="M 750 794 
L 1409 794 
L 1409 0 
L 750 0 
L 750 794 
z
M 750 3309 
L 1409 3309 
L 1409 2516 
L 750 2516 
L 750 3309 
z
" transform="scale(0.015625)"/>
     </defs>
     <use xlink:href="#DejaVuSans-52"/>
     <use xlink:href="#DejaVuSans-65" x="64.982422"/>
     <use xlink:href="#DejaVuSans-74" x="126.505859"/>
     <use xlink:href="#DejaVuSans-72" x="165.714844"/>
     <use xlink:href="#DejaVuSans-69" x="206.828125"/>
     <use xlink:href="#DejaVuSans-65" x="234.611328"/>
     <use xlink:href="#DejaVuSans-76" x="296.134766"/>
     <use xlink:href="#DejaVuSans-61" x="355.314453"/>
     <use xlink:href="#DejaVuSans-6c" x="416.59375"/>
     <use xlink:href="#DejaVuSans-20" x="444.376953"/>
     <use xlink:href="#DejaVuSans-54" x="476.164062"/>
     <use xlink:href="#DejaVuSans-69" x="534.123047"/>
     <use xlink:href="#DejaVuSans-6d" x="561.90625"/>
     <use xlink:href="#DejaVuSans-65" x="659.318359"/>
     <use xlink:href="#DejaVuSans-20" x="720.841797"/>
     <use xlink:href="#DejaVuSans-42" x="752.628906"/>
     <use xlink:href="#DejaVuSans-65" x="821.232422"/>
     <use xlink:href="#DejaVuSans-73" x="882.755859"/>
     <use xlink:href="#DejaVuSans-74" x="934.855469"/>
     <use xlink:href="#DejaVuSans-2d" x="974.064453"/>
     <use xlink:href="#DejaVuSans-66" x="1010.148438"/>
     <use xlink:href="#DejaVuSans-69" x="1045.353516"/>
     <use xlink:href="#DejaVuSans-74" x="1073.136719"/>
     <use xlink:href="#DejaVuSans-20" x="1112.345703"/>
     <use xlink:href="#DejaVuSans-4c" x="1144.132812"/>
     <use xlink:href="#DejaVuSans-69" x="1199.845703"/>
     <use xlink:href="#DejaVuSans-6e" x="1227.628906"/>
     <use xlink:href="#DejaVuSans-65" x="1291.007812"/>
     <use xlink:href="#DejaVuSans-20" x="1352.53125"/>
     <use xlink:href="#DejaVuSans-53" x="1384.318359"/>
     <use xlink:href="#DejaVuSans-6c" x="1447.794922"/>
     <use xlink:href="#DejaVuSans-6f" x="1475.578125"/>
     <use xlink:href="#DejaVuSans-70" x="1536.759766"/>
     <use xlink:href="#DejaVuSans-65" x="1600.236328"/>
     <use xlink:href="#DejaVuSans-20" x="1661.759766"/>
     <use xlink:href="#DejaVuSans-44" x="1693.546875"/>
     <use xlink:href="#DejaVuSans-69" x="1770.548828"/>
     <use xlink:href="#DejaVuSans-73" x="1798.332031"/>
     <use xlink:href="#DejaVuSans-74" x="1850.431641"/>
     <use xlink:href="#DejaVuSans-72" x="1889.640625"/>
     <use xlink:href="#DejaVuSans-69" x="1930.753906"/>
     <use xlink:href="#DejaVuSans-62" x="1958.537109"/>
     <use xlink:href="#DejaVuSans-75" x="2022.013672"/>
     <use xlink:href="#DejaVuSans-74" x="2085.392578"/>
     <use xlink:href="#DejaVuSans-69" x="2124.601562"/>
     <use xlink:href="#DejaVuSans-6f" x="2152.384766"/>
     <use xlink:href="#DejaVuSans-6e" x="2213.566406"/>
     <use xlink:href="#DejaVuSans-3a" x="2276.945312"/>
     <use xlink:href="#DejaVuSans-20" x="2310.636719"/>
     <use xlink:href="#DejaVuSans-43" x="2342.423828"/>
     <use xlink:href="#DejaVuSans-74" x="2412.248047"/>
     <use xlink:href="#DejaVuSans-72" x="2451.457031"/>
     <use xlink:href="#DejaVuSans-6c" x="2492.570312"/>
     <use xlink:href="#DejaVuSans-20" x="2520.353516"/>
     <use xlink:href="#DejaVuSans-76" x="2552.140625"/>
     <use xlink:href="#DejaVuSans-73" x="2611.320312"/>
     <use xlink:href="#DejaVuSans-2e" x="2663.419922"/>
     <use xlink:href="#DejaVuSans-20" x="2695.207031"/>
     <use xlink:href="#DejaVuSans-43" x="2726.994141"/>
     <use xlink:href="#DejaVuSans-41" x="2796.818359"/>
     <use xlink:href="#DejaVuSans-53" x="2865.226562"/>
     <use xlink:href="#DejaVuSans-4b" x="2928.703125"/>
    </g>
   </g>
   <g id="legend_1">
    <g id="patch_9">
     <path d="M 146.223438 65.753125 
L 243.376563 65.753125 
Q 245.376563 65.753125 245.376563 63.753125 
L 245.376563 35.396875 
Q 245.376563 33.396875 243.376563 33.396875 
L 146.223438 33.396875 
Q 144.223438 33.396875 144.223438 35.396875 
L 144.223438 63.753125 
Q 144.223438 65.753125 146.223438 65.753125 
z
" style="fill: #ffffff; opacity: 0.8; stroke: #cccccc; stroke-linejoin: miter"/>
    </g>
    <g id="patch_10">
     <path d="M 148.223438 44.995312 
L 168.223438 44.995312 
L 168.223438 37.995312 
L 148.223438 37.995312 
z
" style="fill: #38bcf5; opacity: 0.6; stroke: #38bcf5; stroke-linejoin: miter"/>
    </g>
    <g id="text_12">
     <!-- Ctrl (n=26) -->
     <g transform="translate(176.223438 44.995312) scale(0.1 -0.1)">
      <defs>
       <path id="DejaVuSans-3d" d="M 678 2906 
L 4684 2906 
L 4684 2381 
L 678 2381 
L 678 2906 
z
M 678 1631 
L 4684 1631 
L 4684 1100 
L 678 1100 
L 678 1631 
z
" transform="scale(0.015625)"/>
       <path id="DejaVuSans-36" d="M 2113 2584 
Q 1688 2584 1439 2293 
Q 1191 2003 1191 1497 
Q 1191 994 1439 701 
Q 1688 409 2113 409 
Q 2538 409 2786 701 
Q 3034 994 3034 1497 
Q 3034 2003 2786 2293 
Q 2538 2584 2113 2584 
z
M 3366 4563 
L 3366 3988 
Q 3128 4100 2886 4159 
Q 2644 4219 2406 4219 
Q 1781 4219 1451 3797 
Q 1122 3375 1075 2522 
Q 1259 2794 1537 2939 
Q 1816 3084 2150 3084 
Q 2853 3084 3261 2657 
Q 3669 2231 3669 1497 
Q 3669 778 3244 343 
Q 2819 -91 2113 -91 
Q 1303 -91 875 529 
Q 447 1150 447 2328 
Q 447 3434 972 4092 
Q 1497 4750 2381 4750 
Q 2619 4750 2861 4703 
Q 3103 4656 3366 4563 
z
" transform="scale(0.015625)"/>
      </defs>
      <use xlink:href="#DejaVuSans-43"/>
      <use xlink:href="#DejaVuSans-74" x="69.824219"/>
      <use xlink:href="#DejaVuSans-72" x="109.033203"/>
      <use xlink:href="#DejaVuSans-6c" x="150.146484"/>
      <use xlink:href="#DejaVuSans-20" x="177.929688"/>
      <use xlink:href="#DejaVuSans-28" x="209.716797"/>
      <use xlink:href="#DejaVuSans-6e" x="248.730469"/>
      <use xlink:href="#DejaVuSans-3d" x="312.109375"/>
      <use xlink:href="#DejaVuSans-32" x="395.898438"/>
      <use xlink:href="#DejaVuSans-36" x="459.521484"/>
      <use xlink:href="#DejaVuSans-29" x="523.144531"/>
     </g>
    </g>
    <g id="patch_11">
     <path d="M 148.223438 59.673437 
L 168.223438 59.673437 
L 168.223438 52.673437 
L 148.223438 52.673437 
z
" style="fill: #38f5a6; opacity: 0.6; stroke: #38f5a6; stroke-linejoin: miter"/>
    </g>
    <g id="text_13">
     <!-- CASK (n=24) -->
     <g transform="translate(176.223438 59.673437) scale(0.1 -0.1)">
      <defs>
       <path id="DejaVuSans-34" d="M 2419 4116 
L 825 1625 
L 2419 1625 
L 2419 4116 
z
M 2253 4666 
L 3047 4666 
L 3047 1625 
L 3713 1625 
L 3713 1100 
L 3047 1100 
L 3047 0 
L 2419 0 
L 2419 1100 
L 313 1100 
L 313 1709 
L 2253 4666 
z
" transform="scale(0.015625)"/>
      </defs>
      <use xlink:href="#DejaVuSans-43"/>
      <use xlink:href="#DejaVuSans-41" x="69.824219"/>
      <use xlink:href="#DejaVuSans-53" x="138.232422"/>
      <use xlink:href="#DejaVuSans-4b" x="201.708984"/>
      <use xlink:href="#DejaVuSans-20" x="267.285156"/>
      <use xlink:href="#DejaVuSans-28" x="299.072266"/>
      <use xlink:href="#DejaVuSans-6e" x="338.085938"/>
      <use xlink:href="#DejaVuSans-3d" x="401.464844"/>
      <use xlink:href="#DejaVuSans-32" x="485.253906"/>
      <use xlink:href="#DejaVuSans-34" x="548.876953"/>
      <use xlink:href="#DejaVuSans-29" x="612.5"/>
     </g>
    </g>
   </g>
  </g>
 </g>
 <defs>
  <clipPath id="pb2ba4071fd">
   <rect x="139.223438" y="28.396875" width="334.8" height="332.64"/>
  </clipPath>
 </defs>
</svg>
