<?xml version="1.0" encoding="utf-8" standalone="no"?>
<!DOCTYPE svg PUBLIC "-//W3C//DTD SVG 1.1//EN"
  "http://www.w3.org/Graphics/SVG/1.1/DTD/svg11.dtd">
<svg xmlns:xlink="http://www.w3.org/1999/xlink" width="600.10625pt" height="402.464375pt" viewBox="0 0 600.10625 402.464375" xmlns="http://www.w3.org/2000/svg" version="1.1">
 <metadata>
  <rdf:RDF xmlns:dc="http://purl.org/dc/elements/1.1/" xmlns:cc="http://creativecommons.org/ns#" xmlns:rdf="http://www.w3.org/1999/02/22-rdf-syntax-ns#">
   <cc:Work>
    <dc:type rdf:resource="http://purl.org/dc/dcmitype/StillImage"/>
    <dc:date>2025-04-10T15:01:11.853580</dc:date>
    <dc:format>image/svg+xml</dc:format>
    <dc:creator>
     <cc:Agent>
      <dc:title>Matplotlib v3.8.3, https://matplotlib.org/</dc:title>
     </cc:Agent>
    </dc:creator>
   </cc:Work>
  </rdf:RDF>
 </metadata>
 <defs>
  <style type="text/css">*{stroke-linejoin: round; stroke-linecap: butt}</style>
 </defs>
 <g id="figure_1">
  <g id="patch_1">
   <path d="M 0 402.464375 
L 600.10625 402.464375 
L 600.10625 0 
L 0 0 
z
" style="fill: #ffffff"/>
  </g>
  <g id="axes_1">
   <g id="patch_2">
    <path d="M 132.653125 361.036875 
L 467.453125 361.036875 
L 467.453125 28.396875 
L 132.653125 28.396875 
z
" style="fill: #ffffff"/>
   </g>
   <g id="PolyCollection_1">
    <defs>
     <path id="mf5eda10b61" d="M 221.625069 -61.026718 
L 175.57209 -61.026718 
L 174.048057 -64.036019 
L 172.531745 -67.04532 
L 171.028382 -70.054621 
L 169.542116 -73.063921 
L 168.076106 -76.073222 
L 166.632707 -79.082523 
L 165.21371 -82.091824 
L 163.820633 -85.101125 
L 162.455032 -88.110426 
L 161.118799 -91.119726 
L 159.814437 -94.129027 
L 158.545268 -97.138328 
L 157.315569 -100.147629 
L 156.130611 -103.15693 
L 154.996612 -106.166231 
L 153.920586 -109.175531 
L 152.910114 -112.184832 
L 151.973054 -115.194133 
L 151.117208 -118.203434 
L 150.349974 -121.212735 
L 149.678023 -124.222036 
L 149.107008 -127.231336 
L 148.641339 -130.240637 
L 148.284044 -133.249938 
L 148.036708 -136.259239 
L 147.899506 -139.26854 
L 147.871307 -142.27784 
L 147.949846 -145.287141 
L 148.131935 -148.296442 
L 148.413689 -151.305743 
L 148.790746 -154.315044 
L 149.25846 -157.324345 
L 149.812041 -160.333645 
L 150.446643 -163.342946 
L 151.157385 -166.352247 
L 151.93932 -169.361548 
L 152.787353 -172.370849 
L 153.696133 -175.38015 
L 154.659935 -178.38945 
L 155.672559 -181.398751 
L 156.727264 -184.408052 
L 157.816753 -187.417353 
L 158.933229 -190.426654 
L 160.068517 -193.435955 
L 161.214259 -196.445255 
L 162.362163 -199.454556 
L 163.504302 -202.463857 
L 164.633422 -205.473158 
L 165.743259 -208.482459 
L 166.828812 -211.491759 
L 167.886572 -214.50106 
L 168.914673 -217.510361 
L 169.912949 -220.519662 
L 170.882901 -223.528963 
L 171.827555 -226.538264 
L 172.751238 -229.547564 
L 173.659268 -232.556865 
L 174.557584 -235.566166 
L 175.452346 -238.575467 
L 176.349515 -241.584768 
L 177.254451 -244.594069 
L 178.171553 -247.603369 
L 179.103951 -250.61267 
L 180.053278 -253.621971 
L 181.019532 -256.631272 
L 182.00102 -259.640573 
L 182.994405 -262.649874 
L 183.994833 -265.659174 
L 184.996131 -268.668475 
L 185.991072 -271.677776 
L 186.971678 -274.687077 
L 187.929552 -277.696378 
L 188.856208 -280.705679 
L 189.743404 -283.714979 
L 190.583439 -286.72428 
L 191.369417 -289.733581 
L 192.095469 -292.742882 
L 192.756921 -295.752183 
L 193.350407 -298.761483 
L 193.873936 -301.770784 
L 194.326906 -304.780085 
L 194.710073 -307.789386 
L 195.025483 -310.798687 
L 195.276375 -313.807988 
L 195.467049 -316.817288 
L 195.602726 -319.826589 
L 195.689381 -322.83589 
L 195.733577 -325.845191 
L 195.742286 -328.854492 
L 195.722711 -331.863793 
L 195.682106 -334.873093 
L 195.627608 -337.882394 
L 195.566066 -340.891695 
L 195.503891 -343.900996 
L 195.446914 -346.910297 
L 195.400268 -349.919598 
L 195.368287 -352.928898 
L 195.354432 -355.938199 
L 195.361252 -358.9475 
L 201.835908 -358.9475 
L 201.835908 -358.9475 
L 201.842727 -355.938199 
L 201.828872 -352.928898 
L 201.796891 -349.919598 
L 201.750245 -346.910297 
L 201.693268 -343.900996 
L 201.631093 -340.891695 
L 201.569551 -337.882394 
L 201.515053 -334.873093 
L 201.474448 -331.863793 
L 201.454873 -328.854492 
L 201.463582 -325.845191 
L 201.507778 -322.83589 
L 201.594433 -319.826589 
L 201.73011 -316.817288 
L 201.920784 -313.807988 
L 202.171676 -310.798687 
L 202.487086 -307.789386 
L 202.870253 -304.780085 
L 203.323223 -301.770784 
L 203.846752 -298.761483 
L 204.440238 -295.752183 
L 205.10169 -292.742882 
L 205.827742 -289.733581 
L 206.61372 -286.72428 
L 207.453755 -283.714979 
L 208.340951 -280.705679 
L 209.267607 -277.696378 
L 210.225481 -274.687077 
L 211.206087 -271.677776 
L 212.201028 -268.668475 
L 213.202326 -265.659174 
L 214.202754 -262.649874 
L 215.196139 -259.640573 
L 216.177627 -256.631272 
L 217.143881 -253.621971 
L 218.093209 -250.61267 
L 219.025606 -247.603369 
L 219.942708 -244.594069 
L 220.847644 -241.584768 
L 221.744813 -238.575467 
L 222.639575 -235.566166 
L 223.537891 -232.556865 
L 224.445921 -229.547564 
L 225.369604 -226.538264 
L 226.314258 -223.528963 
L 227.28421 -220.519662 
L 228.282486 -217.510361 
L 229.310587 -214.50106 
L 230.368347 -211.491759 
L 231.4539 -208.482459 
L 232.563737 -205.473158 
L 233.692857 -202.463857 
L 234.834996 -199.454556 
L 235.9829 -196.445255 
L 237.128642 -193.435955 
L 238.26393 -190.426654 
L 239.380406 -187.417353 
L 240.469895 -184.408052 
L 241.5246 -181.398751 
L 242.537224 -178.38945 
L 243.501026 -175.38015 
L 244.409806 -172.370849 
L 245.257839 -169.361548 
L 246.039774 -166.352247 
L 246.750516 -163.342946 
L 247.385118 -160.333645 
L 247.938699 -157.324345 
L 248.406413 -154.315044 
L 248.783471 -151.305743 
L 249.065224 -148.296442 
L 249.247313 -145.287141 
L 249.325852 -142.27784 
L 249.297653 -139.26854 
L 249.160451 -136.259239 
L 248.913115 -133.249938 
L 248.55582 -130.240637 
L 248.090151 -127.231336 
L 247.519136 -124.222036 
L 246.847185 -121.212735 
L 246.079951 -118.203434 
L 245.224105 -115.194133 
L 244.287045 -112.184832 
L 243.276573 -109.175531 
L 242.200547 -106.166231 
L 241.066548 -103.15693 
L 239.881591 -100.147629 
L 238.651891 -97.138328 
L 237.382722 -94.129027 
L 236.07836 -91.119726 
L 234.742128 -88.110426 
L 233.376526 -85.101125 
L 231.98345 -82.091824 
L 230.564452 -79.082523 
L 229.121053 -76.073222 
L 227.655043 -73.063921 
L 226.168777 -70.054621 
L 224.665414 -67.04532 
L 223.149102 -64.036019 
L 221.625069 -61.026718 
z
" style="stroke: #000000; stroke-opacity: 0.6"/>
    </defs>
    <g clip-path="url(#pdd8a3da57d)">
     <use xlink:href="#mf5eda10b61" x="0" y="402.464375" style="fill: #38bcf5; fill-opacity: 0.6; stroke: #000000; stroke-opacity: 0.6"/>
    </g>
   </g>
   <g id="PolyCollection_2">
    <defs>
     <path id="m96186c2d59" d="M 417.996931 -56.5475 
L 385.01841 -56.5475 
L 383.992078 -58.298629 
L 382.933721 -60.049759 
L 381.841658 -61.800888 
L 380.714211 -63.552018 
L 379.549872 -65.303147 
L 378.347497 -67.054277 
L 377.106494 -68.805406 
L 375.827024 -70.556535 
L 374.510181 -72.307665 
L 373.158157 -74.058794 
L 371.77437 -75.809924 
L 370.363556 -77.561053 
L 368.931809 -79.312183 
L 367.486573 -81.063312 
L 366.036576 -82.814441 
L 364.591699 -84.565571 
L 363.162808 -86.3167 
L 361.761518 -88.06783 
L 360.399925 -89.818959 
L 359.090305 -91.570089 
L 357.844785 -93.321218 
L 356.675007 -95.072347 
L 355.591802 -96.823477 
L 354.604867 -98.574606 
L 353.722481 -100.325736 
L 352.951252 -102.076865 
L 352.295924 -103.827995 
L 351.75923 -105.579124 
L 351.341812 -107.330253 
L 351.042204 -109.081383 
L 350.856887 -110.832512 
L 350.780398 -112.583642 
L 350.805507 -114.334771 
L 350.923445 -116.085901 
L 351.124177 -117.83703 
L 351.39671 -119.588159 
L 351.729435 -121.339289 
L 352.110474 -123.090418 
L 352.528039 -124.841548 
L 352.970777 -126.592677 
L 353.428106 -128.343807 
L 353.890509 -130.094936 
L 354.349803 -131.846066 
L 354.799355 -133.597195 
L 355.234245 -135.348324 
L 355.651376 -137.099454 
L 356.049519 -138.850583 
L 356.429299 -140.601713 
L 356.793114 -142.352842 
L 357.145001 -144.103972 
L 357.490446 -145.855101 
L 357.836145 -147.60623 
L 358.189721 -149.35736 
L 358.559423 -151.108489 
L 358.953789 -152.859619 
L 359.381313 -154.610748 
L 359.850109 -156.361878 
L 360.367593 -158.113007 
L 360.940187 -159.864136 
L 361.573067 -161.615266 
L 362.269948 -163.366395 
L 363.032926 -165.117525 
L 363.862381 -166.868654 
L 364.756931 -168.619784 
L 365.713462 -170.370913 
L 366.727202 -172.122042 
L 367.791864 -173.873172 
L 368.899832 -175.624301 
L 370.04239 -177.375431 
L 371.209988 -179.12656 
L 372.392525 -180.87769 
L 373.579648 -182.628819 
L 374.761052 -184.379948 
L 375.926766 -186.131078 
L 377.067427 -187.882207 
L 378.174521 -189.633337 
L 379.240588 -191.384466 
L 380.259389 -193.135596 
L 381.226028 -194.886725 
L 382.137024 -196.637854 
L 382.990335 -198.388984 
L 383.785341 -200.140113 
L 384.522781 -201.891243 
L 385.20465 -203.642372 
L 385.83406 -205.393502 
L 386.415084 -207.144631 
L 386.952567 -208.89576 
L 387.451931 -210.64689 
L 387.918975 -212.398019 
L 388.359669 -214.149149 
L 388.77996 -215.900278 
L 389.185594 -217.651408 
L 389.581946 -219.402537 
L 389.973885 -221.153666 
L 390.365655 -222.904796 
L 390.760786 -224.655925 
L 391.162037 -226.407055 
L 391.571366 -228.158184 
L 391.989925 -229.909314 
L 411.025415 -229.909314 
L 411.025415 -229.909314 
L 411.443974 -228.158184 
L 411.853304 -226.407055 
L 412.254555 -224.655925 
L 412.649686 -222.904796 
L 413.041456 -221.153666 
L 413.433395 -219.402537 
L 413.829747 -217.651408 
L 414.235381 -215.900278 
L 414.655672 -214.149149 
L 415.096366 -212.398019 
L 415.56341 -210.64689 
L 416.062774 -208.89576 
L 416.600257 -207.144631 
L 417.181281 -205.393502 
L 417.810691 -203.642372 
L 418.492559 -201.891243 
L 419.23 -200.140113 
L 420.025006 -198.388984 
L 420.878317 -196.637854 
L 421.789312 -194.886725 
L 422.755952 -193.135596 
L 423.774753 -191.384466 
L 424.84082 -189.633337 
L 425.947914 -187.882207 
L 427.088575 -186.131078 
L 428.254289 -184.379948 
L 429.435693 -182.628819 
L 430.622816 -180.87769 
L 431.805353 -179.12656 
L 432.972951 -177.375431 
L 434.115509 -175.624301 
L 435.223477 -173.873172 
L 436.288139 -172.122042 
L 437.301879 -170.370913 
L 438.25841 -168.619784 
L 439.15296 -166.868654 
L 439.982415 -165.117525 
L 440.745393 -163.366395 
L 441.442274 -161.615266 
L 442.075154 -159.864136 
L 442.647748 -158.113007 
L 443.165232 -156.361878 
L 443.634028 -154.610748 
L 444.061552 -152.859619 
L 444.455918 -151.108489 
L 444.825619 -149.35736 
L 445.179196 -147.60623 
L 445.524894 -145.855101 
L 445.87034 -144.103972 
L 446.222227 -142.352842 
L 446.586042 -140.601713 
L 446.965822 -138.850583 
L 447.363965 -137.099454 
L 447.781096 -135.348324 
L 448.215986 -133.597195 
L 448.665538 -131.846066 
L 449.124832 -130.094936 
L 449.587235 -128.343807 
L 450.044563 -126.592677 
L 450.487302 -124.841548 
L 450.904867 -123.090418 
L 451.285906 -121.339289 
L 451.618631 -119.588159 
L 451.891164 -117.83703 
L 452.091896 -116.085901 
L 452.209834 -114.334771 
L 452.234943 -112.583642 
L 452.158454 -110.832512 
L 451.973137 -109.081383 
L 451.673529 -107.330253 
L 451.256111 -105.579124 
L 450.719417 -103.827995 
L 450.064089 -102.076865 
L 449.29286 -100.325736 
L 448.410473 -98.574606 
L 447.423538 -96.823477 
L 446.340334 -95.072347 
L 445.170556 -93.321218 
L 443.925036 -91.570089 
L 442.615415 -89.818959 
L 441.253823 -88.06783 
L 439.852533 -86.3167 
L 438.423642 -84.565571 
L 436.978765 -82.814441 
L 435.528768 -81.063312 
L 434.083532 -79.312183 
L 432.651785 -77.561053 
L 431.240971 -75.809924 
L 429.857184 -74.058794 
L 428.50516 -72.307665 
L 427.188317 -70.556535 
L 425.908847 -68.805406 
L 424.667844 -67.054277 
L 423.465469 -65.303147 
L 422.30113 -63.552018 
L 421.173683 -61.800888 
L 420.08162 -60.049759 
L 419.023263 -58.298629 
L 417.996931 -56.5475 
z
" style="stroke: #000000; stroke-opacity: 0.6"/>
    </defs>
    <g clip-path="url(#pdd8a3da57d)">
     <use xlink:href="#m96186c2d59" x="0" y="402.464375" style="fill: #38f5a6; fill-opacity: 0.6; stroke: #000000; stroke-opacity: 0.6"/>
    </g>
   </g>
   <g id="matplotlib.axis_1">
    <g id="xtick_1">
     <g id="line2d_1">
      <defs>
       <path id="m7c96ec2768" d="M 0 0 
L 0 3.5 
" style="stroke: #000000; stroke-width: 0.8"/>
      </defs>
      <g>
       <use xlink:href="#m7c96ec2768" x="198.59858" y="361.036875" style="stroke: #000000; stroke-width: 0.8"/>
      </g>
     </g>
     <g id="text_1">
      <!-- Ctrl -->
      <g transform="translate(189.702486 375.635312) scale(0.1 -0.1)">
       <defs>
        <path id="DejaVuSans-43" d="M 4122 4306 
L 4122 3641 
Q 3803 3938 3442 4084 
Q 3081 4231 2675 4231 
Q 1875 4231 1450 3742 
Q 1025 3253 1025 2328 
Q 1025 1406 1450 917 
Q 1875 428 2675 428 
Q 3081 428 3442 575 
Q 3803 722 4122 1019 
L 4122 359 
Q 3791 134 3420 21 
Q 3050 -91 2638 -91 
Q 1578 -91 968 557 
Q 359 1206 359 2328 
Q 359 3453 968 4101 
Q 1578 4750 2638 4750 
Q 3056 4750 3426 4639 
Q 3797 4528 4122 4306 
z
" transform="scale(0.015625)"/>
        <path id="DejaVuSans-74" d="M 1172 4494 
L 1172 3500 
L 2356 3500 
L 2356 3053 
L 1172 3053 
L 1172 1153 
Q 1172 725 1289 603 
Q 1406 481 1766 481 
L 2356 481 
L 2356 0 
L 1766 0 
Q 1100 0 847 248 
Q 594 497 594 1153 
L 594 3053 
L 172 3053 
L 172 3500 
L 594 3500 
L 594 4494 
L 1172 4494 
z
" transform="scale(0.015625)"/>
        <path id="DejaVuSans-72" d="M 2631 2963 
Q 2534 3019 2420 3045 
Q 2306 3072 2169 3072 
Q 1681 3072 1420 2755 
Q 1159 2438 1159 1844 
L 1159 0 
L 581 0 
L 581 3500 
L 1159 3500 
L 1159 2956 
Q 1341 3275 1631 3429 
Q 1922 3584 2338 3584 
Q 2397 3584 2469 3576 
Q 2541 3569 2628 3553 
L 2631 2963 
z
" transform="scale(0.015625)"/>
        <path id="DejaVuSans-6c" d="M 603 4863 
L 1178 4863 
L 1178 0 
L 603 0 
L 603 4863 
z
" transform="scale(0.015625)"/>
       </defs>
       <use xlink:href="#DejaVuSans-43"/>
       <use xlink:href="#DejaVuSans-74" x="69.824219"/>
       <use xlink:href="#DejaVuSans-72" x="109.033203"/>
       <use xlink:href="#DejaVuSans-6c" x="150.146484"/>
      </g>
     </g>
    </g>
    <g id="xtick_2">
     <g id="line2d_2">
      <g>
       <use xlink:href="#m7c96ec2768" x="401.50767" y="361.036875" style="stroke: #000000; stroke-width: 0.8"/>
      </g>
     </g>
     <g id="text_2">
      <!-- CASK -->
      <g transform="translate(388.142827 375.635312) scale(0.1 -0.1)">
       <defs>
        <path id="DejaVuSans-41" d="M 2188 4044 
L 1331 1722 
L 3047 1722 
L 2188 4044 
z
M 1831 4666 
L 2547 4666 
L 4325 0 
L 3669 0 
L 3244 1197 
L 1141 1197 
L 716 0 
L 50 0 
L 1831 4666 
z
" transform="scale(0.015625)"/>
        <path id="DejaVuSans-53" d="M 3425 4513 
L 3425 3897 
Q 3066 4069 2747 4153 
Q 2428 4238 2131 4238 
Q 1616 4238 1336 4038 
Q 1056 3838 1056 3469 
Q 1056 3159 1242 3001 
Q 1428 2844 1947 2747 
L 2328 2669 
Q 3034 2534 3370 2195 
Q 3706 1856 3706 1288 
Q 3706 609 3251 259 
Q 2797 -91 1919 -91 
Q 1588 -91 1214 -16 
Q 841 59 441 206 
L 441 856 
Q 825 641 1194 531 
Q 1563 422 1919 422 
Q 2459 422 2753 634 
Q 3047 847 3047 1241 
Q 3047 1584 2836 1778 
Q 2625 1972 2144 2069 
L 1759 2144 
Q 1053 2284 737 2584 
Q 422 2884 422 3419 
Q 422 4038 858 4394 
Q 1294 4750 2059 4750 
Q 2388 4750 2728 4690 
Q 3069 4631 3425 4513 
z
" transform="scale(0.015625)"/>
        <path id="DejaVuSans-4b" d="M 628 4666 
L 1259 4666 
L 1259 2694 
L 3353 4666 
L 4166 4666 
L 1850 2491 
L 4331 0 
L 3500 0 
L 1259 2247 
L 1259 0 
L 628 0 
L 628 4666 
z
" transform="scale(0.015625)"/>
       </defs>
       <use xlink:href="#DejaVuSans-43"/>
       <use xlink:href="#DejaVuSans-41" x="69.824219"/>
       <use xlink:href="#DejaVuSans-53" x="138.232422"/>
       <use xlink:href="#DejaVuSans-4b" x="201.708984"/>
      </g>
     </g>
    </g>
    <g id="text_3">
     <!-- Groups -->
     <g transform="translate(275.099219 392.352812) scale(0.14 -0.14)">
      <defs>
       <path id="DejaVuSans-47" d="M 3809 666 
L 3809 1919 
L 2778 1919 
L 2778 2438 
L 4434 2438 
L 4434 434 
Q 4069 175 3628 42 
Q 3188 -91 2688 -91 
Q 1594 -91 976 548 
Q 359 1188 359 2328 
Q 359 3472 976 4111 
Q 1594 4750 2688 4750 
Q 3144 4750 3555 4637 
Q 3966 4525 4313 4306 
L 4313 3634 
Q 3963 3931 3569 4081 
Q 3175 4231 2741 4231 
Q 1884 4231 1454 3753 
Q 1025 3275 1025 2328 
Q 1025 1384 1454 906 
Q 1884 428 2741 428 
Q 3075 428 3337 486 
Q 3600 544 3809 666 
z
" transform="scale(0.015625)"/>
       <path id="DejaVuSans-6f" d="M 1959 3097 
Q 1497 3097 1228 2736 
Q 959 2375 959 1747 
Q 959 1119 1226 758 
Q 1494 397 1959 397 
Q 2419 397 2687 759 
Q 2956 1122 2956 1747 
Q 2956 2369 2687 2733 
Q 2419 3097 1959 3097 
z
M 1959 3584 
Q 2709 3584 3137 3096 
Q 3566 2609 3566 1747 
Q 3566 888 3137 398 
Q 2709 -91 1959 -91 
Q 1206 -91 779 398 
Q 353 888 353 1747 
Q 353 2609 779 3096 
Q 1206 3584 1959 3584 
z
" transform="scale(0.015625)"/>
       <path id="DejaVuSans-75" d="M 544 1381 
L 544 3500 
L 1119 3500 
L 1119 1403 
Q 1119 906 1312 657 
Q 1506 409 1894 409 
Q 2359 409 2629 706 
Q 2900 1003 2900 1516 
L 2900 3500 
L 3475 3500 
L 3475 0 
L 2900 0 
L 2900 538 
Q 2691 219 2414 64 
Q 2138 -91 1772 -91 
Q 1169 -91 856 284 
Q 544 659 544 1381 
z
M 1991 3584 
L 1991 3584 
z
" transform="scale(0.015625)"/>
       <path id="DejaVuSans-70" d="M 1159 525 
L 1159 -1331 
L 581 -1331 
L 581 3500 
L 1159 3500 
L 1159 2969 
Q 1341 3281 1617 3432 
Q 1894 3584 2278 3584 
Q 2916 3584 3314 3078 
Q 3713 2572 3713 1747 
Q 3713 922 3314 415 
Q 2916 -91 2278 -91 
Q 1894 -91 1617 61 
Q 1341 213 1159 525 
z
M 3116 1747 
Q 3116 2381 2855 2742 
Q 2594 3103 2138 3103 
Q 1681 3103 1420 2742 
Q 1159 2381 1159 1747 
Q 1159 1113 1420 752 
Q 1681 391 2138 391 
Q 2594 391 2855 752 
Q 3116 1113 3116 1747 
z
" transform="scale(0.015625)"/>
       <path id="DejaVuSans-73" d="M 2834 3397 
L 2834 2853 
Q 2591 2978 2328 3040 
Q 2066 3103 1784 3103 
Q 1356 3103 1142 2972 
Q 928 2841 928 2578 
Q 928 2378 1081 2264 
Q 1234 2150 1697 2047 
L 1894 2003 
Q 2506 1872 2764 1633 
Q 3022 1394 3022 966 
Q 3022 478 2636 193 
Q 2250 -91 1575 -91 
Q 1294 -91 989 -36 
Q 684 19 347 128 
L 347 722 
Q 666 556 975 473 
Q 1284 391 1588 391 
Q 1994 391 2212 530 
Q 2431 669 2431 922 
Q 2431 1156 2273 1281 
Q 2116 1406 1581 1522 
L 1381 1569 
Q 847 1681 609 1914 
Q 372 2147 372 2553 
Q 372 3047 722 3315 
Q 1072 3584 1716 3584 
Q 2034 3584 2315 3537 
Q 2597 3491 2834 3397 
z
" transform="scale(0.015625)"/>
      </defs>
      <use xlink:href="#DejaVuSans-47"/>
      <use xlink:href="#DejaVuSans-72" x="77.490234"/>
      <use xlink:href="#DejaVuSans-6f" x="116.353516"/>
      <use xlink:href="#DejaVuSans-75" x="177.535156"/>
      <use xlink:href="#DejaVuSans-70" x="240.914062"/>
      <use xlink:href="#DejaVuSans-73" x="304.390625"/>
     </g>
    </g>
   </g>
   <g id="matplotlib.axis_2">
    <g id="ytick_1">
     <g id="line2d_3">
      <defs>
       <path id="md44e5a6fbe" d="M 0 0 
L -3.5 0 
" style="stroke: #000000; stroke-width: 0.8"/>
      </defs>
      <g>
       <use xlink:href="#md44e5a6fbe" x="132.653125" y="348.295294" style="stroke: #000000; stroke-width: 0.8"/>
      </g>
     </g>
     <g id="text_4">
      <!-- 1 -->
      <g transform="translate(119.290625 352.094512) scale(0.1 -0.1)">
       <defs>
        <path id="DejaVuSans-31" d="M 794 531 
L 1825 531 
L 1825 4091 
L 703 3866 
L 703 4441 
L 1819 4666 
L 2450 4666 
L 2450 531 
L 3481 531 
L 3481 0 
L 794 0 
L 794 531 
z
" transform="scale(0.015625)"/>
       </defs>
       <use xlink:href="#DejaVuSans-31"/>
      </g>
     </g>
    </g>
    <g id="ytick_2">
     <g id="line2d_4">
      <g>
       <use xlink:href="#md44e5a6fbe" x="132.653125" y="287.275938" style="stroke: #000000; stroke-width: 0.8"/>
      </g>
     </g>
     <g id="text_5">
      <!-- 2 -->
      <g transform="translate(119.290625 291.075156) scale(0.1 -0.1)">
       <defs>
        <path id="DejaVuSans-32" d="M 1228 531 
L 3431 531 
L 3431 0 
L 469 0 
L 469 531 
Q 828 903 1448 1529 
Q 2069 2156 2228 2338 
Q 2531 2678 2651 2914 
Q 2772 3150 2772 3378 
Q 2772 3750 2511 3984 
Q 2250 4219 1831 4219 
Q 1534 4219 1204 4116 
Q 875 4013 500 3803 
L 500 4441 
Q 881 4594 1212 4672 
Q 1544 4750 1819 4750 
Q 2544 4750 2975 4387 
Q 3406 4025 3406 3419 
Q 3406 3131 3298 2873 
Q 3191 2616 2906 2266 
Q 2828 2175 2409 1742 
Q 1991 1309 1228 531 
z
" transform="scale(0.015625)"/>
       </defs>
       <use xlink:href="#DejaVuSans-32"/>
      </g>
     </g>
    </g>
    <g id="ytick_3">
     <g id="line2d_5">
      <g>
       <use xlink:href="#md44e5a6fbe" x="132.653125" y="226.256581" style="stroke: #000000; stroke-width: 0.8"/>
      </g>
     </g>
     <g id="text_6">
      <!-- 3 -->
      <g transform="translate(119.290625 230.0558) scale(0.1 -0.1)">
       <defs>
        <path id="DejaVuSans-33" d="M 2597 2516 
Q 3050 2419 3304 2112 
Q 3559 1806 3559 1356 
Q 3559 666 3084 287 
Q 2609 -91 1734 -91 
Q 1441 -91 1130 -33 
Q 819 25 488 141 
L 488 750 
Q 750 597 1062 519 
Q 1375 441 1716 441 
Q 2309 441 2620 675 
Q 2931 909 2931 1356 
Q 2931 1769 2642 2001 
Q 2353 2234 1838 2234 
L 1294 2234 
L 1294 2753 
L 1863 2753 
Q 2328 2753 2575 2939 
Q 2822 3125 2822 3475 
Q 2822 3834 2567 4026 
Q 2313 4219 1838 4219 
Q 1578 4219 1281 4162 
Q 984 4106 628 3988 
L 628 4550 
Q 988 4650 1302 4700 
Q 1616 4750 1894 4750 
Q 2613 4750 3031 4423 
Q 3450 4097 3450 3541 
Q 3450 3153 3228 2886 
Q 3006 2619 2597 2516 
z
" transform="scale(0.015625)"/>
       </defs>
       <use xlink:href="#DejaVuSans-33"/>
      </g>
     </g>
    </g>
    <g id="ytick_4">
     <g id="line2d_6">
      <g>
       <use xlink:href="#md44e5a6fbe" x="132.653125" y="165.237225" style="stroke: #000000; stroke-width: 0.8"/>
      </g>
     </g>
     <g id="text_7">
      <!-- 4 -->
      <g transform="translate(119.290625 169.036444) scale(0.1 -0.1)">
       <defs>
        <path id="DejaVuSans-34" d="M 2419 4116 
L 825 1625 
L 2419 1625 
L 2419 4116 
z
M 2253 4666 
L 3047 4666 
L 3047 1625 
L 3713 1625 
L 3713 1100 
L 3047 1100 
L 3047 0 
L 2419 0 
L 2419 1100 
L 313 1100 
L 313 1709 
L 2253 4666 
z
" transform="scale(0.015625)"/>
       </defs>
       <use xlink:href="#DejaVuSans-34"/>
      </g>
     </g>
    </g>
    <g id="ytick_5">
     <g id="line2d_7">
      <g>
       <use xlink:href="#md44e5a6fbe" x="132.653125" y="104.217869" style="stroke: #000000; stroke-width: 0.8"/>
      </g>
     </g>
     <g id="text_8">
      <!-- 5 -->
      <g transform="translate(119.290625 108.017088) scale(0.1 -0.1)">
       <defs>
        <path id="DejaVuSans-35" d="M 691 4666 
L 3169 4666 
L 3169 4134 
L 1269 4134 
L 1269 2991 
Q 1406 3038 1543 3061 
Q 1681 3084 1819 3084 
Q 2600 3084 3056 2656 
Q 3513 2228 3513 1497 
Q 3513 744 3044 326 
Q 2575 -91 1722 -91 
Q 1428 -91 1123 -41 
Q 819 9 494 109 
L 494 744 
Q 775 591 1075 516 
Q 1375 441 1709 441 
Q 2250 441 2565 725 
Q 2881 1009 2881 1497 
Q 2881 1984 2565 2268 
Q 2250 2553 1709 2553 
Q 1456 2553 1204 2497 
Q 953 2441 691 2322 
L 691 4666 
z
" transform="scale(0.015625)"/>
       </defs>
       <use xlink:href="#DejaVuSans-35"/>
      </g>
     </g>
    </g>
    <g id="ytick_6">
     <g id="line2d_8">
      <g>
       <use xlink:href="#md44e5a6fbe" x="132.653125" y="43.198513" style="stroke: #000000; stroke-width: 0.8"/>
      </g>
     </g>
     <g id="text_9">
      <!-- 6 -->
      <g transform="translate(119.290625 46.997732) scale(0.1 -0.1)">
       <defs>
        <path id="DejaVuSans-36" d="M 2113 2584 
Q 1688 2584 1439 2293 
Q 1191 2003 1191 1497 
Q 1191 994 1439 701 
Q 1688 409 2113 409 
Q 2538 409 2786 701 
Q 3034 994 3034 1497 
Q 3034 2003 2786 2293 
Q 2538 2584 2113 2584 
z
M 3366 4563 
L 3366 3988 
Q 3128 4100 2886 4159 
Q 2644 4219 2406 4219 
Q 1781 4219 1451 3797 
Q 1122 3375 1075 2522 
Q 1259 2794 1537 2939 
Q 1816 3084 2150 3084 
Q 2853 3084 3261 2657 
Q 3669 2231 3669 1497 
Q 3669 778 3244 343 
Q 2819 -91 2113 -91 
Q 1303 -91 875 529 
Q 447 1150 447 2328 
Q 447 3434 972 4092 
Q 1497 4750 2381 4750 
Q 2619 4750 2861 4703 
Q 3103 4656 3366 4563 
z
" transform="scale(0.015625)"/>
       </defs>
       <use xlink:href="#DejaVuSans-36"/>
      </g>
     </g>
    </g>
    <g id="text_10">
     <!-- Pellet Retrieval Time (minutes) -->
     <g transform="translate(112.379063 302.636094) rotate(-90) scale(0.14 -0.14)">
      <defs>
       <path id="DejaVuSans-50" d="M 1259 4147 
L 1259 2394 
L 2053 2394 
Q 2494 2394 2734 2622 
Q 2975 2850 2975 3272 
Q 2975 3691 2734 3919 
Q 2494 4147 2053 4147 
L 1259 4147 
z
M 628 4666 
L 2053 4666 
Q 2838 4666 3239 4311 
Q 3641 3956 3641 3272 
Q 3641 2581 3239 2228 
Q 2838 1875 2053 1875 
L 1259 1875 
L 1259 0 
L 628 0 
L 628 4666 
z
" transform="scale(0.015625)"/>
       <path id="DejaVuSans-65" d="M 3597 1894 
L 3597 1613 
L 953 1613 
Q 991 1019 1311 708 
Q 1631 397 2203 397 
Q 2534 397 2845 478 
Q 3156 559 3463 722 
L 3463 178 
Q 3153 47 2828 -22 
Q 2503 -91 2169 -91 
Q 1331 -91 842 396 
Q 353 884 353 1716 
Q 353 2575 817 3079 
Q 1281 3584 2069 3584 
Q 2775 3584 3186 3129 
Q 3597 2675 3597 1894 
z
M 3022 2063 
Q 3016 2534 2758 2815 
Q 2500 3097 2075 3097 
Q 1594 3097 1305 2825 
Q 1016 2553 972 2059 
L 3022 2063 
z
" transform="scale(0.015625)"/>
       <path id="DejaVuSans-20" transform="scale(0.015625)"/>
       <path id="DejaVuSans-52" d="M 2841 2188 
Q 3044 2119 3236 1894 
Q 3428 1669 3622 1275 
L 4263 0 
L 3584 0 
L 2988 1197 
Q 2756 1666 2539 1819 
Q 2322 1972 1947 1972 
L 1259 1972 
L 1259 0 
L 628 0 
L 628 4666 
L 2053 4666 
Q 2853 4666 3247 4331 
Q 3641 3997 3641 3322 
Q 3641 2881 3436 2590 
Q 3231 2300 2841 2188 
z
M 1259 4147 
L 1259 2491 
L 2053 2491 
Q 2509 2491 2742 2702 
Q 2975 2913 2975 3322 
Q 2975 3731 2742 3939 
Q 2509 4147 2053 4147 
L 1259 4147 
z
" transform="scale(0.015625)"/>
       <path id="DejaVuSans-69" d="M 603 3500 
L 1178 3500 
L 1178 0 
L 603 0 
L 603 3500 
z
M 603 4863 
L 1178 4863 
L 1178 4134 
L 603 4134 
L 603 4863 
z
" transform="scale(0.015625)"/>
       <path id="DejaVuSans-76" d="M 191 3500 
L 800 3500 
L 1894 563 
L 2988 3500 
L 3597 3500 
L 2284 0 
L 1503 0 
L 191 3500 
z
" transform="scale(0.015625)"/>
       <path id="DejaVuSans-61" d="M 2194 1759 
Q 1497 1759 1228 1600 
Q 959 1441 959 1056 
Q 959 750 1161 570 
Q 1363 391 1709 391 
Q 2188 391 2477 730 
Q 2766 1069 2766 1631 
L 2766 1759 
L 2194 1759 
z
M 3341 1997 
L 3341 0 
L 2766 0 
L 2766 531 
Q 2569 213 2275 61 
Q 1981 -91 1556 -91 
Q 1019 -91 701 211 
Q 384 513 384 1019 
Q 384 1609 779 1909 
Q 1175 2209 1959 2209 
L 2766 2209 
L 2766 2266 
Q 2766 2663 2505 2880 
Q 2244 3097 1772 3097 
Q 1472 3097 1187 3025 
Q 903 2953 641 2809 
L 641 3341 
Q 956 3463 1253 3523 
Q 1550 3584 1831 3584 
Q 2591 3584 2966 3190 
Q 3341 2797 3341 1997 
z
" transform="scale(0.015625)"/>
       <path id="DejaVuSans-54" d="M -19 4666 
L 3928 4666 
L 3928 4134 
L 2272 4134 
L 2272 0 
L 1638 0 
L 1638 4134 
L -19 4134 
L -19 4666 
z
" transform="scale(0.015625)"/>
       <path id="DejaVuSans-6d" d="M 3328 2828 
Q 3544 3216 3844 3400 
Q 4144 3584 4550 3584 
Q 5097 3584 5394 3201 
Q 5691 2819 5691 2113 
L 5691 0 
L 5113 0 
L 5113 2094 
Q 5113 2597 4934 2840 
Q 4756 3084 4391 3084 
Q 3944 3084 3684 2787 
Q 3425 2491 3425 1978 
L 3425 0 
L 2847 0 
L 2847 2094 
Q 2847 2600 2669 2842 
Q 2491 3084 2119 3084 
Q 1678 3084 1418 2786 
Q 1159 2488 1159 1978 
L 1159 0 
L 581 0 
L 581 3500 
L 1159 3500 
L 1159 2956 
Q 1356 3278 1631 3431 
Q 1906 3584 2284 3584 
Q 2666 3584 2933 3390 
Q 3200 3197 3328 2828 
z
" transform="scale(0.015625)"/>
       <path id="DejaVuSans-28" d="M 1984 4856 
Q 1566 4138 1362 3434 
Q 1159 2731 1159 2009 
Q 1159 1288 1364 580 
Q 1569 -128 1984 -844 
L 1484 -844 
Q 1016 -109 783 600 
Q 550 1309 550 2009 
Q 550 2706 781 3412 
Q 1013 4119 1484 4856 
L 1984 4856 
z
" transform="scale(0.015625)"/>
       <path id="DejaVuSans-6e" d="M 3513 2113 
L 3513 0 
L 2938 0 
L 2938 2094 
Q 2938 2591 2744 2837 
Q 2550 3084 2163 3084 
Q 1697 3084 1428 2787 
Q 1159 2491 1159 1978 
L 1159 0 
L 581 0 
L 581 3500 
L 1159 3500 
L 1159 2956 
Q 1366 3272 1645 3428 
Q 1925 3584 2291 3584 
Q 2894 3584 3203 3211 
Q 3513 2838 3513 2113 
z
" transform="scale(0.015625)"/>
       <path id="DejaVuSans-29" d="M 513 4856 
L 1013 4856 
Q 1481 4119 1714 3412 
Q 1947 2706 1947 2009 
Q 1947 1309 1714 600 
Q 1481 -109 1013 -844 
L 513 -844 
Q 928 -128 1133 580 
Q 1338 1288 1338 2009 
Q 1338 2731 1133 3434 
Q 928 4138 513 4856 
z
" transform="scale(0.015625)"/>
      </defs>
      <use xlink:href="#DejaVuSans-50"/>
      <use xlink:href="#DejaVuSans-65" x="56.677734"/>
      <use xlink:href="#DejaVuSans-6c" x="118.201172"/>
      <use xlink:href="#DejaVuSans-6c" x="145.984375"/>
      <use xlink:href="#DejaVuSans-65" x="173.767578"/>
      <use xlink:href="#DejaVuSans-74" x="235.291016"/>
      <use xlink:href="#DejaVuSans-20" x="274.5"/>
      <use xlink:href="#DejaVuSans-52" x="306.287109"/>
      <use xlink:href="#DejaVuSans-65" x="371.269531"/>
      <use xlink:href="#DejaVuSans-74" x="432.792969"/>
      <use xlink:href="#DejaVuSans-72" x="472.001953"/>
      <use xlink:href="#DejaVuSans-69" x="513.115234"/>
      <use xlink:href="#DejaVuSans-65" x="540.898438"/>
      <use xlink:href="#DejaVuSans-76" x="602.421875"/>
      <use xlink:href="#DejaVuSans-61" x="661.601562"/>
      <use xlink:href="#DejaVuSans-6c" x="722.880859"/>
      <use xlink:href="#DejaVuSans-20" x="750.664062"/>
      <use xlink:href="#DejaVuSans-54" x="782.451172"/>
      <use xlink:href="#DejaVuSans-69" x="840.410156"/>
      <use xlink:href="#DejaVuSans-6d" x="868.193359"/>
      <use xlink:href="#DejaVuSans-65" x="965.605469"/>
      <use xlink:href="#DejaVuSans-20" x="1027.128906"/>
      <use xlink:href="#DejaVuSans-28" x="1058.916016"/>
      <use xlink:href="#DejaVuSans-6d" x="1097.929688"/>
      <use xlink:href="#DejaVuSans-69" x="1195.341797"/>
      <use xlink:href="#DejaVuSans-6e" x="1223.125"/>
      <use xlink:href="#DejaVuSans-75" x="1286.503906"/>
      <use xlink:href="#DejaVuSans-74" x="1349.882812"/>
      <use xlink:href="#DejaVuSans-65" x="1389.091797"/>
      <use xlink:href="#DejaVuSans-73" x="1450.615234"/>
      <use xlink:href="#DejaVuSans-29" x="1502.714844"/>
     </g>
    </g>
   </g>
   <g id="patch_3">
    <path d="M 132.653125 361.036875 
L 132.653125 28.396875 
" style="fill: none; stroke: #000000; stroke-width: 0.8; stroke-linejoin: miter; stroke-linecap: square"/>
   </g>
   <g id="patch_4">
    <path d="M 467.453125 361.036875 
L 467.453125 28.396875 
" style="fill: none; stroke: #000000; stroke-width: 0.8; stroke-linejoin: miter; stroke-linecap: square"/>
   </g>
   <g id="patch_5">
    <path d="M 132.653125 361.036875 
L 467.453125 361.036875 
" style="fill: none; stroke: #000000; stroke-width: 0.8; stroke-linejoin: miter; stroke-linecap: square"/>
   </g>
   <g id="patch_6">
    <path d="M 132.653125 28.396875 
L 467.453125 28.396875 
" style="fill: none; stroke: #000000; stroke-width: 0.8; stroke-linejoin: miter; stroke-linecap: square"/>
   </g>
   <g id="PathCollection_1">
    <defs>
     <path id="mbf88d81ab7" d="M 0 3 
C 0.795609 3 1.55874 2.683901 2.12132 2.12132 
C 2.683901 1.55874 3 0.795609 3 0 
C 3 -0.795609 2.683901 -1.55874 2.12132 -2.12132 
C 1.55874 -2.683901 0.795609 -3 0 -3 
C -0.795609 -3 -1.55874 -2.683901 -2.12132 -2.12132 
C -2.683901 -1.55874 -3 -0.795609 -3 0 
C -3 0.795609 -2.683901 1.55874 -2.12132 2.12132 
C -1.55874 2.683901 -0.795609 3 0 3 
z
" style="stroke: #18c1f5; stroke-opacity: 0.8"/>
    </defs>
    <g clip-path="url(#pdd8a3da57d)">
     <use xlink:href="#mbf88d81ab7" x="200.096096" y="209.246049" style="fill: #18c1f5; fill-opacity: 0.8; stroke: #18c1f5; stroke-opacity: 0.8"/>
     <use xlink:href="#mbf88d81ab7" x="197.203396" y="43.516875" style="fill: #18c1f5; fill-opacity: 0.8; stroke: #18c1f5; stroke-opacity: 0.8"/>
     <use xlink:href="#mbf88d81ab7" x="198.874814" y="231.214821" style="fill: #18c1f5; fill-opacity: 0.8; stroke: #18c1f5; stroke-opacity: 0.8"/>
     <use xlink:href="#mbf88d81ab7" x="197.439243" y="151.524465" style="fill: #18c1f5; fill-opacity: 0.8; stroke: #18c1f5; stroke-opacity: 0.8"/>
     <use xlink:href="#mbf88d81ab7" x="193.87533" y="220.251664" style="fill: #18c1f5; fill-opacity: 0.8; stroke: #18c1f5; stroke-opacity: 0.8"/>
     <use xlink:href="#mbf88d81ab7" x="201.965664" y="272.786341" style="fill: #18c1f5; fill-opacity: 0.8; stroke: #18c1f5; stroke-opacity: 0.8"/>
     <use xlink:href="#mbf88d81ab7" x="189.352165" y="268.236249" style="fill: #18c1f5; fill-opacity: 0.8; stroke: #18c1f5; stroke-opacity: 0.8"/>
     <use xlink:href="#mbf88d81ab7" x="195.947929" y="332.564711" style="fill: #18c1f5; fill-opacity: 0.8; stroke: #18c1f5; stroke-opacity: 0.8"/>
     <use xlink:href="#mbf88d81ab7" x="192.272765" y="299.418497" style="fill: #18c1f5; fill-opacity: 0.8; stroke: #18c1f5; stroke-opacity: 0.8"/>
     <use xlink:href="#mbf88d81ab7" x="193.745383" y="253.368401" style="fill: #18c1f5; fill-opacity: 0.8; stroke: #18c1f5; stroke-opacity: 0.8"/>
     <use xlink:href="#mbf88d81ab7" x="191.557575" y="218.612914" style="fill: #18c1f5; fill-opacity: 0.8; stroke: #18c1f5; stroke-opacity: 0.8"/>
     <use xlink:href="#mbf88d81ab7" x="193.690105" y="331.525234" style="fill: #18c1f5; fill-opacity: 0.8; stroke: #18c1f5; stroke-opacity: 0.8"/>
     <use xlink:href="#mbf88d81ab7" x="199.422837" y="246.662455" style="fill: #18c1f5; fill-opacity: 0.8; stroke: #18c1f5; stroke-opacity: 0.8"/>
     <use xlink:href="#mbf88d81ab7" x="201.88939" y="169.588419" style="fill: #18c1f5; fill-opacity: 0.8; stroke: #18c1f5; stroke-opacity: 0.8"/>
     <use xlink:href="#mbf88d81ab7" x="210.571078" y="215.380933" style="fill: #18c1f5; fill-opacity: 0.8; stroke: #18c1f5; stroke-opacity: 0.8"/>
     <use xlink:href="#mbf88d81ab7" x="200.653487" y="269.15177" style="fill: #18c1f5; fill-opacity: 0.8; stroke: #18c1f5; stroke-opacity: 0.8"/>
     <use xlink:href="#mbf88d81ab7" x="205.909298" y="309.451876" style="fill: #18c1f5; fill-opacity: 0.8; stroke: #18c1f5; stroke-opacity: 0.8"/>
     <use xlink:href="#mbf88d81ab7" x="199.733592" y="144.922613" style="fill: #18c1f5; fill-opacity: 0.8; stroke: #18c1f5; stroke-opacity: 0.8"/>
     <use xlink:href="#mbf88d81ab7" x="209.67857" y="330.438811" style="fill: #18c1f5; fill-opacity: 0.8; stroke: #18c1f5; stroke-opacity: 0.8"/>
     <use xlink:href="#mbf88d81ab7" x="187.154349" y="287.958088" style="fill: #18c1f5; fill-opacity: 0.8; stroke: #18c1f5; stroke-opacity: 0.8"/>
     <use xlink:href="#mbf88d81ab7" x="206.237312" y="218.963698" style="fill: #18c1f5; fill-opacity: 0.8; stroke: #18c1f5; stroke-opacity: 0.8"/>
     <use xlink:href="#mbf88d81ab7" x="193.924065" y="275.027199" style="fill: #18c1f5; fill-opacity: 0.8; stroke: #18c1f5; stroke-opacity: 0.8"/>
     <use xlink:href="#mbf88d81ab7" x="203.211996" y="173.565888" style="fill: #18c1f5; fill-opacity: 0.8; stroke: #18c1f5; stroke-opacity: 0.8"/>
     <use xlink:href="#mbf88d81ab7" x="202.008579" y="264.364455" style="fill: #18c1f5; fill-opacity: 0.8; stroke: #18c1f5; stroke-opacity: 0.8"/>
     <use xlink:href="#mbf88d81ab7" x="191.740566" y="225.838641" style="fill: #18c1f5; fill-opacity: 0.8; stroke: #18c1f5; stroke-opacity: 0.8"/>
     <use xlink:href="#mbf88d81ab7" x="206.547723" y="261.32334" style="fill: #18c1f5; fill-opacity: 0.8; stroke: #18c1f5; stroke-opacity: 0.8"/>
     <use xlink:href="#mbf88d81ab7" x="204.288244" y="227.509561" style="fill: #18c1f5; fill-opacity: 0.8; stroke: #18c1f5; stroke-opacity: 0.8"/>
     <use xlink:href="#mbf88d81ab7" x="192.952559" y="186.866914" style="fill: #18c1f5; fill-opacity: 0.8; stroke: #18c1f5; stroke-opacity: 0.8"/>
     <use xlink:href="#mbf88d81ab7" x="206.872262" y="277.646844" style="fill: #18c1f5; fill-opacity: 0.8; stroke: #18c1f5; stroke-opacity: 0.8"/>
     <use xlink:href="#mbf88d81ab7" x="199.60034" y="147.702189" style="fill: #18c1f5; fill-opacity: 0.8; stroke: #18c1f5; stroke-opacity: 0.8"/>
     <use xlink:href="#mbf88d81ab7" x="201.42503" y="274.47481" style="fill: #18c1f5; fill-opacity: 0.8; stroke: #18c1f5; stroke-opacity: 0.8"/>
     <use xlink:href="#mbf88d81ab7" x="210.212094" y="294.561438" style="fill: #18c1f5; fill-opacity: 0.8; stroke: #18c1f5; stroke-opacity: 0.8"/>
     <use xlink:href="#mbf88d81ab7" x="201.384153" y="326.185432" style="fill: #18c1f5; fill-opacity: 0.8; stroke: #18c1f5; stroke-opacity: 0.8"/>
     <use xlink:href="#mbf88d81ab7" x="186.19047" y="341.437657" style="fill: #18c1f5; fill-opacity: 0.8; stroke: #18c1f5; stroke-opacity: 0.8"/>
    </g>
   </g>
   <g id="PathCollection_2">
    <defs>
     <path id="m802399c9c4" d="M 0 3 
C 0.795609 3 1.55874 2.683901 2.12132 2.12132 
C 2.683901 1.55874 3 0.795609 3 0 
C 3 -0.795609 2.683901 -1.55874 2.12132 -2.12132 
C 1.55874 -2.683901 0.795609 -3 0 -3 
C -0.795609 -3 -1.55874 -2.683901 -2.12132 -2.12132 
C -2.683901 -1.55874 -3 -0.795609 -3 0 
C -3 0.795609 -2.683901 1.55874 -2.12132 2.12132 
C -1.55874 2.683901 -0.795609 3 0 3 
z
" style="stroke: #36d15a; stroke-opacity: 0.8"/>
    </defs>
    <g clip-path="url(#pdd8a3da57d)">
     <use xlink:href="#m802399c9c4" x="404.965226" y="299.23359" style="fill: #36d15a; fill-opacity: 0.8; stroke: #36d15a; stroke-opacity: 0.8"/>
     <use xlink:href="#m802399c9c4" x="397.744485" y="237.887844" style="fill: #36d15a; fill-opacity: 0.8; stroke: #36d15a; stroke-opacity: 0.8"/>
     <use xlink:href="#m802399c9c4" x="412.089433" y="281.384796" style="fill: #36d15a; fill-opacity: 0.8; stroke: #36d15a; stroke-opacity: 0.8"/>
     <use xlink:href="#m802399c9c4" x="398.993112" y="224.373033" style="fill: #36d15a; fill-opacity: 0.8; stroke: #36d15a; stroke-opacity: 0.8"/>
     <use xlink:href="#m802399c9c4" x="400.639321" y="172.555061" style="fill: #36d15a; fill-opacity: 0.8; stroke: #36d15a; stroke-opacity: 0.8"/>
     <use xlink:href="#m802399c9c4" x="411.026922" y="243.28049" style="fill: #36d15a; fill-opacity: 0.8; stroke: #36d15a; stroke-opacity: 0.8"/>
     <use xlink:href="#m802399c9c4" x="393.253298" y="239.800532" style="fill: #36d15a; fill-opacity: 0.8; stroke: #36d15a; stroke-opacity: 0.8"/>
     <use xlink:href="#m802399c9c4" x="396.789669" y="311.297945" style="fill: #36d15a; fill-opacity: 0.8; stroke: #36d15a; stroke-opacity: 0.8"/>
     <use xlink:href="#m802399c9c4" x="396.683615" y="267.115061" style="fill: #36d15a; fill-opacity: 0.8; stroke: #36d15a; stroke-opacity: 0.8"/>
     <use xlink:href="#m802399c9c4" x="395.009845" y="296.02931" style="fill: #36d15a; fill-opacity: 0.8; stroke: #36d15a; stroke-opacity: 0.8"/>
     <use xlink:href="#m802399c9c4" x="412.682782" y="310.937888" style="fill: #36d15a; fill-opacity: 0.8; stroke: #36d15a; stroke-opacity: 0.8"/>
     <use xlink:href="#m802399c9c4" x="393.646487" y="181.673236" style="fill: #36d15a; fill-opacity: 0.8; stroke: #36d15a; stroke-opacity: 0.8"/>
     <use xlink:href="#m802399c9c4" x="402.077937" y="298.831278" style="fill: #36d15a; fill-opacity: 0.8; stroke: #36d15a; stroke-opacity: 0.8"/>
     <use xlink:href="#m802399c9c4" x="394.249939" y="260.557513" style="fill: #36d15a; fill-opacity: 0.8; stroke: #36d15a; stroke-opacity: 0.8"/>
     <use xlink:href="#m802399c9c4" x="389.042975" y="291.509988" style="fill: #36d15a; fill-opacity: 0.8; stroke: #36d15a; stroke-opacity: 0.8"/>
     <use xlink:href="#m802399c9c4" x="398.368752" y="336.337321" style="fill: #36d15a; fill-opacity: 0.8; stroke: #36d15a; stroke-opacity: 0.8"/>
     <use xlink:href="#m802399c9c4" x="402.821732" y="296.810212" style="fill: #36d15a; fill-opacity: 0.8; stroke: #36d15a; stroke-opacity: 0.8"/>
     <use xlink:href="#m802399c9c4" x="400.926568" y="225.241779" style="fill: #36d15a; fill-opacity: 0.8; stroke: #36d15a; stroke-opacity: 0.8"/>
     <use xlink:href="#m802399c9c4" x="389.893194" y="342.60294" style="fill: #36d15a; fill-opacity: 0.8; stroke: #36d15a; stroke-opacity: 0.8"/>
     <use xlink:href="#m802399c9c4" x="397.395077" y="199.02008" style="fill: #36d15a; fill-opacity: 0.8; stroke: #36d15a; stroke-opacity: 0.8"/>
     <use xlink:href="#m802399c9c4" x="408.420893" y="310.63394" style="fill: #36d15a; fill-opacity: 0.8; stroke: #36d15a; stroke-opacity: 0.8"/>
     <use xlink:href="#m802399c9c4" x="407.46307" y="253.130853" style="fill: #36d15a; fill-opacity: 0.8; stroke: #36d15a; stroke-opacity: 0.8"/>
     <use xlink:href="#m802399c9c4" x="400.64369" y="274.964068" style="fill: #36d15a; fill-opacity: 0.8; stroke: #36d15a; stroke-opacity: 0.8"/>
     <use xlink:href="#m802399c9c4" x="401.689461" y="306.564834" style="fill: #36d15a; fill-opacity: 0.8; stroke: #36d15a; stroke-opacity: 0.8"/>
     <use xlink:href="#m802399c9c4" x="399.299515" y="283.60213" style="fill: #36d15a; fill-opacity: 0.8; stroke: #36d15a; stroke-opacity: 0.8"/>
     <use xlink:href="#m802399c9c4" x="392.817219" y="231.949241" style="fill: #36d15a; fill-opacity: 0.8; stroke: #36d15a; stroke-opacity: 0.8"/>
     <use xlink:href="#m802399c9c4" x="393.470067" y="245.368256" style="fill: #36d15a; fill-opacity: 0.8; stroke: #36d15a; stroke-opacity: 0.8"/>
     <use xlink:href="#m802399c9c4" x="397.902868" y="241.358872" style="fill: #36d15a; fill-opacity: 0.8; stroke: #36d15a; stroke-opacity: 0.8"/>
     <use xlink:href="#m802399c9c4" x="408.375208" y="274.887737" style="fill: #36d15a; fill-opacity: 0.8; stroke: #36d15a; stroke-opacity: 0.8"/>
     <use xlink:href="#m802399c9c4" x="408.274632" y="293.099169" style="fill: #36d15a; fill-opacity: 0.8; stroke: #36d15a; stroke-opacity: 0.8"/>
     <use xlink:href="#m802399c9c4" x="412.453579" y="345.916875" style="fill: #36d15a; fill-opacity: 0.8; stroke: #36d15a; stroke-opacity: 0.8"/>
    </g>
   </g>
   <g id="text_11">
    <!-- Pellet Retrieval Time Distribution for Ctrl and CASK Groups -->
    <g transform="translate(7.2 22.396875) scale(0.2 -0.2)">
     <defs>
      <path id="DejaVuSans-44" d="M 1259 4147 
L 1259 519 
L 2022 519 
Q 2988 519 3436 956 
Q 3884 1394 3884 2338 
Q 3884 3275 3436 3711 
Q 2988 4147 2022 4147 
L 1259 4147 
z
M 628 4666 
L 1925 4666 
Q 3281 4666 3915 4102 
Q 4550 3538 4550 2338 
Q 4550 1131 3912 565 
Q 3275 0 1925 0 
L 628 0 
L 628 4666 
z
" transform="scale(0.015625)"/>
      <path id="DejaVuSans-62" d="M 3116 1747 
Q 3116 2381 2855 2742 
Q 2594 3103 2138 3103 
Q 1681 3103 1420 2742 
Q 1159 2381 1159 1747 
Q 1159 1113 1420 752 
Q 1681 391 2138 391 
Q 2594 391 2855 752 
Q 3116 1113 3116 1747 
z
M 1159 2969 
Q 1341 3281 1617 3432 
Q 1894 3584 2278 3584 
Q 2916 3584 3314 3078 
Q 3713 2572 3713 1747 
Q 3713 922 3314 415 
Q 2916 -91 2278 -91 
Q 1894 -91 1617 61 
Q 1341 213 1159 525 
L 1159 0 
L 581 0 
L 581 4863 
L 1159 4863 
L 1159 2969 
z
" transform="scale(0.015625)"/>
      <path id="DejaVuSans-66" d="M 2375 4863 
L 2375 4384 
L 1825 4384 
Q 1516 4384 1395 4259 
Q 1275 4134 1275 3809 
L 1275 3500 
L 2222 3500 
L 2222 3053 
L 1275 3053 
L 1275 0 
L 697 0 
L 697 3053 
L 147 3053 
L 147 3500 
L 697 3500 
L 697 3744 
Q 697 4328 969 4595 
Q 1241 4863 1831 4863 
L 2375 4863 
z
" transform="scale(0.015625)"/>
      <path id="DejaVuSans-64" d="M 2906 2969 
L 2906 4863 
L 3481 4863 
L 3481 0 
L 2906 0 
L 2906 525 
Q 2725 213 2448 61 
Q 2172 -91 1784 -91 
Q 1150 -91 751 415 
Q 353 922 353 1747 
Q 353 2572 751 3078 
Q 1150 3584 1784 3584 
Q 2172 3584 2448 3432 
Q 2725 3281 2906 2969 
z
M 947 1747 
Q 947 1113 1208 752 
Q 1469 391 1925 391 
Q 2381 391 2643 752 
Q 2906 1113 2906 1747 
Q 2906 2381 2643 2742 
Q 2381 3103 1925 3103 
Q 1469 3103 1208 2742 
Q 947 2381 947 1747 
z
" transform="scale(0.015625)"/>
     </defs>
     <use xlink:href="#DejaVuSans-50"/>
     <use xlink:href="#DejaVuSans-65" x="56.677734"/>
     <use xlink:href="#DejaVuSans-6c" x="118.201172"/>
     <use xlink:href="#DejaVuSans-6c" x="145.984375"/>
     <use xlink:href="#DejaVuSans-65" x="173.767578"/>
     <use xlink:href="#DejaVuSans-74" x="235.291016"/>
     <use xlink:href="#DejaVuSans-20" x="274.5"/>
     <use xlink:href="#DejaVuSans-52" x="306.287109"/>
     <use xlink:href="#DejaVuSans-65" x="371.269531"/>
     <use xlink:href="#DejaVuSans-74" x="432.792969"/>
     <use xlink:href="#DejaVuSans-72" x="472.001953"/>
     <use xlink:href="#DejaVuSans-69" x="513.115234"/>
     <use xlink:href="#DejaVuSans-65" x="540.898438"/>
     <use xlink:href="#DejaVuSans-76" x="602.421875"/>
     <use xlink:href="#DejaVuSans-61" x="661.601562"/>
     <use xlink:href="#DejaVuSans-6c" x="722.880859"/>
     <use xlink:href="#DejaVuSans-20" x="750.664062"/>
     <use xlink:href="#DejaVuSans-54" x="782.451172"/>
     <use xlink:href="#DejaVuSans-69" x="840.410156"/>
     <use xlink:href="#DejaVuSans-6d" x="868.193359"/>
     <use xlink:href="#DejaVuSans-65" x="965.605469"/>
     <use xlink:href="#DejaVuSans-20" x="1027.128906"/>
     <use xlink:href="#DejaVuSans-44" x="1058.916016"/>
     <use xlink:href="#DejaVuSans-69" x="1135.917969"/>
     <use xlink:href="#DejaVuSans-73" x="1163.701172"/>
     <use xlink:href="#DejaVuSans-74" x="1215.800781"/>
     <use xlink:href="#DejaVuSans-72" x="1255.009766"/>
     <use xlink:href="#DejaVuSans-69" x="1296.123047"/>
     <use xlink:href="#DejaVuSans-62" x="1323.90625"/>
     <use xlink:href="#DejaVuSans-75" x="1387.382812"/>
     <use xlink:href="#DejaVuSans-74" x="1450.761719"/>
     <use xlink:href="#DejaVuSans-69" x="1489.970703"/>
     <use xlink:href="#DejaVuSans-6f" x="1517.753906"/>
     <use xlink:href="#DejaVuSans-6e" x="1578.935547"/>
     <use xlink:href="#DejaVuSans-20" x="1642.314453"/>
     <use xlink:href="#DejaVuSans-66" x="1674.101562"/>
     <use xlink:href="#DejaVuSans-6f" x="1709.306641"/>
     <use xlink:href="#DejaVuSans-72" x="1770.488281"/>
     <use xlink:href="#DejaVuSans-20" x="1811.601562"/>
     <use xlink:href="#DejaVuSans-43" x="1843.388672"/>
     <use xlink:href="#DejaVuSans-74" x="1913.212891"/>
     <use xlink:href="#DejaVuSans-72" x="1952.421875"/>
     <use xlink:href="#DejaVuSans-6c" x="1993.535156"/>
     <use xlink:href="#DejaVuSans-20" x="2021.318359"/>
     <use xlink:href="#DejaVuSans-61" x="2053.105469"/>
     <use xlink:href="#DejaVuSans-6e" x="2114.384766"/>
     <use xlink:href="#DejaVuSans-64" x="2177.763672"/>
     <use xlink:href="#DejaVuSans-20" x="2241.240234"/>
     <use xlink:href="#DejaVuSans-43" x="2273.027344"/>
     <use xlink:href="#DejaVuSans-41" x="2342.851562"/>
     <use xlink:href="#DejaVuSans-53" x="2411.259766"/>
     <use xlink:href="#DejaVuSans-4b" x="2474.736328"/>
     <use xlink:href="#DejaVuSans-20" x="2540.3125"/>
     <use xlink:href="#DejaVuSans-47" x="2572.099609"/>
     <use xlink:href="#DejaVuSans-72" x="2649.589844"/>
     <use xlink:href="#DejaVuSans-6f" x="2688.453125"/>
     <use xlink:href="#DejaVuSans-75" x="2749.634766"/>
     <use xlink:href="#DejaVuSans-70" x="2813.013672"/>
     <use xlink:href="#DejaVuSans-73" x="2876.490234"/>
    </g>
   </g>
   <g id="legend_1">
    <g id="patch_7">
     <path d="M 356.94375 65.753125 
L 460.453125 65.753125 
Q 462.453125 65.753125 462.453125 63.753125 
L 462.453125 35.396875 
Q 462.453125 33.396875 460.453125 33.396875 
L 356.94375 33.396875 
Q 354.94375 33.396875 354.94375 35.396875 
L 354.94375 63.753125 
Q 354.94375 65.753125 356.94375 65.753125 
z
" style="fill: #ffffff; opacity: 0.8; stroke: #cccccc; stroke-linejoin: miter"/>
    </g>
    <g id="patch_8">
     <path d="M 358.94375 44.995312 
L 378.94375 44.995312 
L 378.94375 37.995312 
L 358.94375 37.995312 
z
" style="fill: #38bcf5; opacity: 0.6; stroke: #38bcf5; stroke-linejoin: miter"/>
    </g>
    <g id="text_12">
     <!-- Ctrl (n = 34) -->
     <g transform="translate(386.94375 44.995312) scale(0.1 -0.1)">
      <defs>
       <path id="DejaVuSans-3d" d="M 678 2906 
L 4684 2906 
L 4684 2381 
L 678 2381 
L 678 2906 
z
M 678 1631 
L 4684 1631 
L 4684 1100 
L 678 1100 
L 678 1631 
z
" transform="scale(0.015625)"/>
      </defs>
      <use xlink:href="#DejaVuSans-43"/>
      <use xlink:href="#DejaVuSans-74" x="69.824219"/>
      <use xlink:href="#DejaVuSans-72" x="109.033203"/>
      <use xlink:href="#DejaVuSans-6c" x="150.146484"/>
      <use xlink:href="#DejaVuSans-20" x="177.929688"/>
      <use xlink:href="#DejaVuSans-28" x="209.716797"/>
      <use xlink:href="#DejaVuSans-6e" x="248.730469"/>
      <use xlink:href="#DejaVuSans-20" x="312.109375"/>
      <use xlink:href="#DejaVuSans-3d" x="343.896484"/>
      <use xlink:href="#DejaVuSans-20" x="427.685547"/>
      <use xlink:href="#DejaVuSans-33" x="459.472656"/>
      <use xlink:href="#DejaVuSans-34" x="523.095703"/>
      <use xlink:href="#DejaVuSans-29" x="586.71875"/>
     </g>
    </g>
    <g id="patch_9">
     <path d="M 358.94375 59.673437 
L 378.94375 59.673437 
L 378.94375 52.673437 
L 358.94375 52.673437 
z
" style="fill: #38f5a6; opacity: 0.6; stroke: #38f5a6; stroke-linejoin: miter"/>
    </g>
    <g id="text_13">
     <!-- CASK (n = 31) -->
     <g transform="translate(386.94375 59.673437) scale(0.1 -0.1)">
      <use xlink:href="#DejaVuSans-43"/>
      <use xlink:href="#DejaVuSans-41" x="69.824219"/>
      <use xlink:href="#DejaVuSans-53" x="138.232422"/>
      <use xlink:href="#DejaVuSans-4b" x="201.708984"/>
      <use xlink:href="#DejaVuSans-20" x="267.285156"/>
      <use xlink:href="#DejaVuSans-28" x="299.072266"/>
      <use xlink:href="#DejaVuSans-6e" x="338.085938"/>
      <use xlink:href="#DejaVuSans-20" x="401.464844"/>
      <use xlink:href="#DejaVuSans-3d" x="433.251953"/>
      <use xlink:href="#DejaVuSans-20" x="517.041016"/>
      <use xlink:href="#DejaVuSans-33" x="548.828125"/>
      <use xlink:href="#DejaVuSans-31" x="612.451172"/>
      <use xlink:href="#DejaVuSans-29" x="676.074219"/>
     </g>
    </g>
   </g>
  </g>
 </g>
 <defs>
  <clipPath id="pdd8a3da57d">
   <rect x="132.653125" y="28.396875" width="334.8" height="332.64"/>
  </clipPath>
 </defs>
</svg>
