<?xml version="1.0" encoding="utf-8" standalone="no"?>
<!DOCTYPE svg PUBLIC "-//W3C//DTD SVG 1.1//EN"
  "http://www.w3.org/Graphics/SVG/1.1/DTD/svg11.dtd">
<svg xmlns:xlink="http://www.w3.org/1999/xlink" width="700.34375pt" height="402.464375pt" viewBox="0 0 700.34375 402.464375" xmlns="http://www.w3.org/2000/svg" version="1.1">
 <metadata>
  <rdf:RDF xmlns:dc="http://purl.org/dc/elements/1.1/" xmlns:cc="http://creativecommons.org/ns#" xmlns:rdf="http://www.w3.org/1999/02/22-rdf-syntax-ns#">
   <cc:Work>
    <dc:type rdf:resource="http://purl.org/dc/dcmitype/StillImage"/>
    <dc:date>2025-04-10T15:00:15.224202</dc:date>
    <dc:format>image/svg+xml</dc:format>
    <dc:creator>
     <cc:Agent>
      <dc:title>Matplotlib v3.8.3, https://matplotlib.org/</dc:title>
     </cc:Agent>
    </dc:creator>
   </cc:Work>
  </rdf:RDF>
 </metadata>
 <defs>
  <style type="text/css">*{stroke-linejoin: round; stroke-linecap: butt}</style>
 </defs>
 <g id="figure_1">
  <g id="patch_1">
   <path d="M 0 402.464375 
L 700.34375 402.464375 
L 700.34375 0 
L 0 0 
z
" style="fill: #ffffff"/>
  </g>
  <g id="axes_1">
   <g id="patch_2">
    <path d="M 182.771875 361.036875 
L 517.571875 361.036875 
L 517.571875 28.396875 
L 182.771875 28.396875 
z
" style="fill: #ffffff"/>
   </g>
   <g id="PolyCollection_1">
    <defs>
     <path id="mc01f20c883" d="M 274.524317 -105.506759 
L 222.910342 -105.506759 
L 221.323841 -108.066766 
L 219.72884 -110.626774 
L 218.133566 -113.186781 
L 216.546501 -115.746789 
L 214.976293 -118.306796 
L 213.431662 -120.866804 
L 211.921304 -123.426811 
L 210.453792 -125.986819 
L 209.037485 -128.546826 
L 207.680422 -131.106834 
L 206.390239 -133.666841 
L 205.174074 -136.226849 
L 204.03849 -138.786856 
L 202.989396 -141.346864 
L 202.031983 -143.906871 
L 201.17067 -146.466879 
L 200.409055 -149.026886 
L 199.749885 -151.586894 
L 199.195033 -154.146901 
L 198.745493 -156.706909 
L 198.40138 -159.266916 
L 198.161951 -161.826924 
L 198.025632 -164.386931 
L 197.990057 -166.946939 
L 198.052116 -169.506946 
L 198.208013 -172.066954 
L 198.453325 -174.626961 
L 198.783074 -177.186969 
L 199.191789 -179.746976 
L 199.673581 -182.306983 
L 200.222206 -184.866991 
L 200.831138 -187.426998 
L 201.493624 -189.987006 
L 202.202749 -192.547013 
L 202.951489 -195.107021 
L 203.732761 -197.667028 
L 204.539476 -200.227036 
L 205.364583 -202.787043 
L 206.201114 -205.347051 
L 207.042236 -207.907058 
L 207.881299 -210.467066 
L 208.711886 -213.027073 
L 209.527873 -215.587081 
L 210.323492 -218.147088 
L 211.093392 -220.707096 
L 211.832716 -223.267103 
L 212.537167 -225.827111 
L 213.203087 -228.387118 
L 213.827524 -230.947126 
L 214.408298 -233.507133 
L 214.944065 -236.067141 
L 215.434358 -238.627148 
L 215.879621 -241.187156 
L 216.281227 -243.747163 
L 216.641466 -246.307171 
L 216.963527 -248.867178 
L 217.251438 -251.427186 
L 217.509999 -253.987193 
L 217.744681 -256.547201 
L 217.961513 -259.107208 
L 218.166945 -261.667216 
L 218.367696 -264.227223 
L 218.570599 -266.787231 
L 218.782429 -269.347238 
L 219.009746 -271.907245 
L 219.258727 -274.467253 
L 219.535019 -277.02726 
L 219.843604 -279.587268 
L 220.188682 -282.147275 
L 220.573582 -284.707283 
L 221.00069 -287.26729 
L 221.471414 -289.827298 
L 221.98617 -292.387305 
L 222.544401 -294.947313 
L 223.144622 -297.50732 
L 223.784484 -300.067328 
L 224.460868 -302.627335 
L 225.169991 -305.187343 
L 225.907526 -307.74735 
L 226.668737 -310.307358 
L 227.44861 -312.867365 
L 228.241988 -315.427373 
L 229.043708 -317.98738 
L 229.848718 -320.547388 
L 230.652189 -323.107395 
L 231.449616 -325.667403 
L 232.236893 -328.22741 
L 233.010381 -330.787418 
L 233.766943 -333.347425 
L 234.503979 -335.907433 
L 235.219421 -338.46744 
L 235.911732 -341.027448 
L 236.579875 -343.587455 
L 237.223274 -346.147463 
L 237.841769 -348.70747 
L 238.435554 -351.267478 
L 239.00512 -353.827485 
L 239.551187 -356.387493 
L 240.074643 -358.9475 
L 257.360016 -358.9475 
L 257.360016 -358.9475 
L 257.883472 -356.387493 
L 258.429539 -353.827485 
L 258.999105 -351.267478 
L 259.59289 -348.70747 
L 260.211385 -346.147463 
L 260.854784 -343.587455 
L 261.522927 -341.027448 
L 262.215238 -338.46744 
L 262.93068 -335.907433 
L 263.667716 -333.347425 
L 264.424279 -330.787418 
L 265.197766 -328.22741 
L 265.985044 -325.667403 
L 266.78247 -323.107395 
L 267.585941 -320.547388 
L 268.390951 -317.98738 
L 269.192671 -315.427373 
L 269.986049 -312.867365 
L 270.765922 -310.307358 
L 271.527133 -307.74735 
L 272.264668 -305.187343 
L 272.973791 -302.627335 
L 273.650175 -300.067328 
L 274.290037 -297.50732 
L 274.890258 -294.947313 
L 275.448489 -292.387305 
L 275.963245 -289.827298 
L 276.433969 -287.26729 
L 276.861077 -284.707283 
L 277.245977 -282.147275 
L 277.591055 -279.587268 
L 277.89964 -277.02726 
L 278.175932 -274.467253 
L 278.424913 -271.907245 
L 278.65223 -269.347238 
L 278.864061 -266.787231 
L 279.066963 -264.227223 
L 279.267714 -261.667216 
L 279.473146 -259.107208 
L 279.689978 -256.547201 
L 279.92466 -253.987193 
L 280.183221 -251.427186 
L 280.471132 -248.867178 
L 280.793193 -246.307171 
L 281.153432 -243.747163 
L 281.555038 -241.187156 
L 282.000301 -238.627148 
L 282.490594 -236.067141 
L 283.026361 -233.507133 
L 283.607135 -230.947126 
L 284.231572 -228.387118 
L 284.897492 -225.827111 
L 285.601943 -223.267103 
L 286.341267 -220.707096 
L 287.111167 -218.147088 
L 287.906786 -215.587081 
L 288.722773 -213.027073 
L 289.55336 -210.467066 
L 290.392423 -207.907058 
L 291.233545 -205.347051 
L 292.070077 -202.787043 
L 292.895183 -200.227036 
L 293.701898 -197.667028 
L 294.48317 -195.107021 
L 295.23191 -192.547013 
L 295.941035 -189.987006 
L 296.603521 -187.426998 
L 297.212453 -184.866991 
L 297.761078 -182.306983 
L 298.24287 -179.746976 
L 298.651585 -177.186969 
L 298.981334 -174.626961 
L 299.226647 -172.066954 
L 299.382543 -169.506946 
L 299.444602 -166.946939 
L 299.409027 -164.386931 
L 299.272708 -161.826924 
L 299.03328 -159.266916 
L 298.689167 -156.706909 
L 298.239626 -154.146901 
L 297.684774 -151.586894 
L 297.025604 -149.026886 
L 296.263989 -146.466879 
L 295.402676 -143.906871 
L 294.445263 -141.346864 
L 293.396169 -138.786856 
L 292.260585 -136.226849 
L 291.04442 -133.666841 
L 289.754237 -131.106834 
L 288.397174 -128.546826 
L 286.980867 -125.986819 
L 285.513356 -123.426811 
L 284.002997 -120.866804 
L 282.458366 -118.306796 
L 280.888158 -115.746789 
L 279.301093 -113.186781 
L 277.705819 -110.626774 
L 276.110818 -108.066766 
L 274.524317 -105.506759 
z
" style="stroke: #000000; stroke-opacity: 0.6"/>
    </defs>
    <g clip-path="url(#p61cb5ca93b)">
     <use xlink:href="#mc01f20c883" x="0" y="402.464375" style="fill: #38bcf5; fill-opacity: 0.6; stroke: #000000; stroke-opacity: 0.6"/>
    </g>
   </g>
   <g id="PolyCollection_2">
    <defs>
     <path id="m3a8eb87268" d="M 456.468491 -56.5475 
L 446.78435 -56.5475 
L 446.650556 -58.80122 
L 446.524544 -61.054941 
L 446.402087 -63.308661 
L 446.278035 -65.562382 
L 446.146406 -67.816102 
L 446.000488 -70.069823 
L 445.832972 -72.323543 
L 445.636085 -74.577264 
L 445.401745 -76.830984 
L 445.121702 -79.084705 
L 444.787689 -81.338425 
L 444.391563 -83.592146 
L 443.925442 -85.845866 
L 443.381843 -88.099587 
L 442.753807 -90.353307 
L 442.035038 -92.607028 
L 441.220038 -94.860748 
L 440.304251 -97.114469 
L 439.284214 -99.368189 
L 438.157715 -101.62191 
L 436.923959 -103.87563 
L 435.583729 -106.129351 
L 434.139544 -108.383071 
L 432.595796 -110.636792 
L 430.958863 -112.890512 
L 429.237178 -115.144233 
L 427.441254 -117.397953 
L 425.583643 -119.651674 
L 423.678826 -121.905394 
L 421.743035 -124.159115 
L 419.794 -126.412835 
L 417.850625 -128.666556 
L 415.932601 -130.920276 
L 414.059975 -133.173997 
L 412.252681 -135.427717 
L 410.530056 -137.681438 
L 408.910363 -139.935158 
L 407.410337 -142.188879 
L 406.044775 -144.442599 
L 404.826192 -146.69632 
L 403.764545 -148.95004 
L 402.867054 -151.203761 
L 402.138108 -153.457481 
L 401.579268 -155.711202 
L 401.189362 -157.964922 
L 400.964665 -160.218643 
L 400.899148 -162.472363 
L 400.984796 -164.726084 
L 401.211963 -166.979804 
L 401.569763 -169.233525 
L 402.046467 -171.487245 
L 402.629901 -173.740966 
L 403.307821 -175.994686 
L 404.068267 -178.248407 
L 404.899861 -180.502127 
L 405.792065 -182.755848 
L 406.735377 -185.009568 
L 407.721467 -187.263289 
L 408.743255 -189.517009 
L 409.794926 -191.770729 
L 410.871889 -194.02445 
L 411.970681 -196.27817 
L 413.088831 -198.531891 
L 414.224688 -200.785611 
L 415.377217 -203.039332 
L 416.545782 -205.293052 
L 417.729923 -207.546773 
L 418.929136 -209.800493 
L 420.142671 -212.054214 
L 421.36935 -214.307934 
L 422.60742 -216.561655 
L 423.854447 -218.815375 
L 425.10725 -221.069096 
L 426.361883 -223.322816 
L 427.61367 -225.576537 
L 428.857276 -227.830257 
L 430.086825 -230.083978 
L 431.29606 -232.337698 
L 432.478519 -234.591419 
L 433.627744 -236.845139 
L 434.737494 -239.09886 
L 435.801958 -241.35258 
L 436.815962 -243.606301 
L 437.775154 -245.860021 
L 438.676158 -248.113742 
L 439.516699 -250.367462 
L 440.295677 -252.621183 
L 441.013202 -254.874903 
L 441.670576 -257.128624 
L 442.270232 -259.382344 
L 442.815621 -261.636065 
L 443.31107 -263.889785 
L 443.761601 -266.143506 
L 444.172722 -268.397226 
L 444.550216 -270.650947 
L 444.899916 -272.904667 
L 445.227494 -275.158388 
L 445.538261 -277.412108 
L 445.836996 -279.665829 
L 457.415844 -279.665829 
L 457.415844 -279.665829 
L 457.71458 -277.412108 
L 458.025347 -275.158388 
L 458.352925 -272.904667 
L 458.702625 -270.650947 
L 459.080119 -268.397226 
L 459.49124 -266.143506 
L 459.941771 -263.889785 
L 460.43722 -261.636065 
L 460.982609 -259.382344 
L 461.582264 -257.128624 
L 462.239639 -254.874903 
L 462.957164 -252.621183 
L 463.736142 -250.367462 
L 464.576683 -248.113742 
L 465.477687 -245.860021 
L 466.436879 -243.606301 
L 467.450883 -241.35258 
L 468.515347 -239.09886 
L 469.625097 -236.845139 
L 470.774322 -234.591419 
L 471.956781 -232.337698 
L 473.166016 -230.083978 
L 474.395565 -227.830257 
L 475.639171 -225.576537 
L 476.890958 -223.322816 
L 478.145591 -221.069096 
L 479.398394 -218.815375 
L 480.645421 -216.561655 
L 481.883491 -214.307934 
L 483.11017 -212.054214 
L 484.323705 -209.800493 
L 485.522918 -207.546773 
L 486.707059 -205.293052 
L 487.875624 -203.039332 
L 489.028153 -200.785611 
L 490.16401 -198.531891 
L 491.28216 -196.27817 
L 492.380952 -194.02445 
L 493.457914 -191.770729 
L 494.509586 -189.517009 
L 495.531374 -187.263289 
L 496.517464 -185.009568 
L 497.460775 -182.755848 
L 498.352979 -180.502127 
L 499.184574 -178.248407 
L 499.94502 -175.994686 
L 500.62294 -173.740966 
L 501.206373 -171.487245 
L 501.683077 -169.233525 
L 502.040878 -166.979804 
L 502.268045 -164.726084 
L 502.353693 -162.472363 
L 502.288176 -160.218643 
L 502.063478 -157.964922 
L 501.673573 -155.711202 
L 501.114733 -153.457481 
L 500.385787 -151.203761 
L 499.488296 -148.95004 
L 498.426649 -146.69632 
L 497.208065 -144.442599 
L 495.842504 -142.188879 
L 494.342478 -139.935158 
L 492.722785 -137.681438 
L 491.00016 -135.427717 
L 489.192866 -133.173997 
L 487.32024 -130.920276 
L 485.402216 -128.666556 
L 483.458841 -126.412835 
L 481.509806 -124.159115 
L 479.574015 -121.905394 
L 477.669198 -119.651674 
L 475.811586 -117.397953 
L 474.015663 -115.144233 
L 472.293978 -112.890512 
L 470.657045 -110.636792 
L 469.113297 -108.383071 
L 467.669111 -106.129351 
L 466.328882 -103.87563 
L 465.095125 -101.62191 
L 463.968627 -99.368189 
L 462.948589 -97.114469 
L 462.032803 -94.860748 
L 461.217803 -92.607028 
L 460.499034 -90.353307 
L 459.870998 -88.099587 
L 459.327399 -85.845866 
L 458.861278 -83.592146 
L 458.465152 -81.338425 
L 458.131139 -79.084705 
L 457.851096 -76.830984 
L 457.616756 -74.577264 
L 457.419869 -72.323543 
L 457.252352 -70.069823 
L 457.106435 -67.816102 
L 456.974806 -65.562382 
L 456.850754 -63.308661 
L 456.728297 -61.054941 
L 456.602285 -58.80122 
L 456.468491 -56.5475 
z
" style="stroke: #000000; stroke-opacity: 0.6"/>
    </defs>
    <g clip-path="url(#p61cb5ca93b)">
     <use xlink:href="#m3a8eb87268" x="0" y="402.464375" style="fill: #38f5a6; fill-opacity: 0.6; stroke: #000000; stroke-opacity: 0.6"/>
    </g>
   </g>
   <g id="matplotlib.axis_1">
    <g id="xtick_1">
     <g id="line2d_1">
      <defs>
       <path id="mb6f0b334b6" d="M 0 0 
L 0 3.5 
" style="stroke: #000000; stroke-width: 0.8"/>
      </defs>
      <g>
       <use xlink:href="#mb6f0b334b6" x="248.71733" y="361.036875" style="stroke: #000000; stroke-width: 0.8"/>
      </g>
     </g>
     <g id="text_1">
      <!-- Ctrl -->
      <g transform="translate(239.821236 375.635312) scale(0.1 -0.1)">
       <defs>
        <path id="DejaVuSans-43" d="M 4122 4306 
L 4122 3641 
Q 3803 3938 3442 4084 
Q 3081 4231 2675 4231 
Q 1875 4231 1450 3742 
Q 1025 3253 1025 2328 
Q 1025 1406 1450 917 
Q 1875 428 2675 428 
Q 3081 428 3442 575 
Q 3803 722 4122 1019 
L 4122 359 
Q 3791 134 3420 21 
Q 3050 -91 2638 -91 
Q 1578 -91 968 557 
Q 359 1206 359 2328 
Q 359 3453 968 4101 
Q 1578 4750 2638 4750 
Q 3056 4750 3426 4639 
Q 3797 4528 4122 4306 
z
" transform="scale(0.015625)"/>
        <path id="DejaVuSans-74" d="M 1172 4494 
L 1172 3500 
L 2356 3500 
L 2356 3053 
L 1172 3053 
L 1172 1153 
Q 1172 725 1289 603 
Q 1406 481 1766 481 
L 2356 481 
L 2356 0 
L 1766 0 
Q 1100 0 847 248 
Q 594 497 594 1153 
L 594 3053 
L 172 3053 
L 172 3500 
L 594 3500 
L 594 4494 
L 1172 4494 
z
" transform="scale(0.015625)"/>
        <path id="DejaVuSans-72" d="M 2631 2963 
Q 2534 3019 2420 3045 
Q 2306 3072 2169 3072 
Q 1681 3072 1420 2755 
Q 1159 2438 1159 1844 
L 1159 0 
L 581 0 
L 581 3500 
L 1159 3500 
L 1159 2956 
Q 1341 3275 1631 3429 
Q 1922 3584 2338 3584 
Q 2397 3584 2469 3576 
Q 2541 3569 2628 3553 
L 2631 2963 
z
" transform="scale(0.015625)"/>
        <path id="DejaVuSans-6c" d="M 603 4863 
L 1178 4863 
L 1178 0 
L 603 0 
L 603 4863 
z
" transform="scale(0.015625)"/>
       </defs>
       <use xlink:href="#DejaVuSans-43"/>
       <use xlink:href="#DejaVuSans-74" x="69.824219"/>
       <use xlink:href="#DejaVuSans-72" x="109.033203"/>
       <use xlink:href="#DejaVuSans-6c" x="150.146484"/>
      </g>
     </g>
    </g>
    <g id="xtick_2">
     <g id="line2d_2">
      <g>
       <use xlink:href="#mb6f0b334b6" x="451.62642" y="361.036875" style="stroke: #000000; stroke-width: 0.8"/>
      </g>
     </g>
     <g id="text_2">
      <!-- CASK -->
      <g transform="translate(438.261577 375.635312) scale(0.1 -0.1)">
       <defs>
        <path id="DejaVuSans-41" d="M 2188 4044 
L 1331 1722 
L 3047 1722 
L 2188 4044 
z
M 1831 4666 
L 2547 4666 
L 4325 0 
L 3669 0 
L 3244 1197 
L 1141 1197 
L 716 0 
L 50 0 
L 1831 4666 
z
" transform="scale(0.015625)"/>
        <path id="DejaVuSans-53" d="M 3425 4513 
L 3425 3897 
Q 3066 4069 2747 4153 
Q 2428 4238 2131 4238 
Q 1616 4238 1336 4038 
Q 1056 3838 1056 3469 
Q 1056 3159 1242 3001 
Q 1428 2844 1947 2747 
L 2328 2669 
Q 3034 2534 3370 2195 
Q 3706 1856 3706 1288 
Q 3706 609 3251 259 
Q 2797 -91 1919 -91 
Q 1588 -91 1214 -16 
Q 841 59 441 206 
L 441 856 
Q 825 641 1194 531 
Q 1563 422 1919 422 
Q 2459 422 2753 634 
Q 3047 847 3047 1241 
Q 3047 1584 2836 1778 
Q 2625 1972 2144 2069 
L 1759 2144 
Q 1053 2284 737 2584 
Q 422 2884 422 3419 
Q 422 4038 858 4394 
Q 1294 4750 2059 4750 
Q 2388 4750 2728 4690 
Q 3069 4631 3425 4513 
z
" transform="scale(0.015625)"/>
        <path id="DejaVuSans-4b" d="M 628 4666 
L 1259 4666 
L 1259 2694 
L 3353 4666 
L 4166 4666 
L 1850 2491 
L 4331 0 
L 3500 0 
L 1259 2247 
L 1259 0 
L 628 0 
L 628 4666 
z
" transform="scale(0.015625)"/>
       </defs>
       <use xlink:href="#DejaVuSans-43"/>
       <use xlink:href="#DejaVuSans-41" x="69.824219"/>
       <use xlink:href="#DejaVuSans-53" x="138.232422"/>
       <use xlink:href="#DejaVuSans-4b" x="201.708984"/>
      </g>
     </g>
    </g>
    <g id="text_3">
     <!-- Groups -->
     <g transform="translate(325.217969 392.352812) scale(0.14 -0.14)">
      <defs>
       <path id="DejaVuSans-47" d="M 3809 666 
L 3809 1919 
L 2778 1919 
L 2778 2438 
L 4434 2438 
L 4434 434 
Q 4069 175 3628 42 
Q 3188 -91 2688 -91 
Q 1594 -91 976 548 
Q 359 1188 359 2328 
Q 359 3472 976 4111 
Q 1594 4750 2688 4750 
Q 3144 4750 3555 4637 
Q 3966 4525 4313 4306 
L 4313 3634 
Q 3963 3931 3569 4081 
Q 3175 4231 2741 4231 
Q 1884 4231 1454 3753 
Q 1025 3275 1025 2328 
Q 1025 1384 1454 906 
Q 1884 428 2741 428 
Q 3075 428 3337 486 
Q 3600 544 3809 666 
z
" transform="scale(0.015625)"/>
       <path id="DejaVuSans-6f" d="M 1959 3097 
Q 1497 3097 1228 2736 
Q 959 2375 959 1747 
Q 959 1119 1226 758 
Q 1494 397 1959 397 
Q 2419 397 2687 759 
Q 2956 1122 2956 1747 
Q 2956 2369 2687 2733 
Q 2419 3097 1959 3097 
z
M 1959 3584 
Q 2709 3584 3137 3096 
Q 3566 2609 3566 1747 
Q 3566 888 3137 398 
Q 2709 -91 1959 -91 
Q 1206 -91 779 398 
Q 353 888 353 1747 
Q 353 2609 779 3096 
Q 1206 3584 1959 3584 
z
" transform="scale(0.015625)"/>
       <path id="DejaVuSans-75" d="M 544 1381 
L 544 3500 
L 1119 3500 
L 1119 1403 
Q 1119 906 1312 657 
Q 1506 409 1894 409 
Q 2359 409 2629 706 
Q 2900 1003 2900 1516 
L 2900 3500 
L 3475 3500 
L 3475 0 
L 2900 0 
L 2900 538 
Q 2691 219 2414 64 
Q 2138 -91 1772 -91 
Q 1169 -91 856 284 
Q 544 659 544 1381 
z
M 1991 3584 
L 1991 3584 
z
" transform="scale(0.015625)"/>
       <path id="DejaVuSans-70" d="M 1159 525 
L 1159 -1331 
L 581 -1331 
L 581 3500 
L 1159 3500 
L 1159 2969 
Q 1341 3281 1617 3432 
Q 1894 3584 2278 3584 
Q 2916 3584 3314 3078 
Q 3713 2572 3713 1747 
Q 3713 922 3314 415 
Q 2916 -91 2278 -91 
Q 1894 -91 1617 61 
Q 1341 213 1159 525 
z
M 3116 1747 
Q 3116 2381 2855 2742 
Q 2594 3103 2138 3103 
Q 1681 3103 1420 2742 
Q 1159 2381 1159 1747 
Q 1159 1113 1420 752 
Q 1681 391 2138 391 
Q 2594 391 2855 752 
Q 3116 1113 3116 1747 
z
" transform="scale(0.015625)"/>
       <path id="DejaVuSans-73" d="M 2834 3397 
L 2834 2853 
Q 2591 2978 2328 3040 
Q 2066 3103 1784 3103 
Q 1356 3103 1142 2972 
Q 928 2841 928 2578 
Q 928 2378 1081 2264 
Q 1234 2150 1697 2047 
L 1894 2003 
Q 2506 1872 2764 1633 
Q 3022 1394 3022 966 
Q 3022 478 2636 193 
Q 2250 -91 1575 -91 
Q 1294 -91 989 -36 
Q 684 19 347 128 
L 347 722 
Q 666 556 975 473 
Q 1284 391 1588 391 
Q 1994 391 2212 530 
Q 2431 669 2431 922 
Q 2431 1156 2273 1281 
Q 2116 1406 1581 1522 
L 1381 1569 
Q 847 1681 609 1914 
Q 372 2147 372 2553 
Q 372 3047 722 3315 
Q 1072 3584 1716 3584 
Q 2034 3584 2315 3537 
Q 2597 3491 2834 3397 
z
" transform="scale(0.015625)"/>
      </defs>
      <use xlink:href="#DejaVuSans-47"/>
      <use xlink:href="#DejaVuSans-72" x="77.490234"/>
      <use xlink:href="#DejaVuSans-6f" x="116.353516"/>
      <use xlink:href="#DejaVuSans-75" x="177.535156"/>
      <use xlink:href="#DejaVuSans-70" x="240.914062"/>
      <use xlink:href="#DejaVuSans-73" x="304.390625"/>
     </g>
    </g>
   </g>
   <g id="matplotlib.axis_2">
    <g id="ytick_1">
     <g id="line2d_3">
      <defs>
       <path id="mf8064df618" d="M 0 0 
L -3.5 0 
" style="stroke: #000000; stroke-width: 0.8"/>
      </defs>
      <g>
       <use xlink:href="#mf8064df618" x="182.771875" y="322.766163" style="stroke: #000000; stroke-width: 0.8"/>
      </g>
     </g>
     <g id="text_4">
      <!-- 0.0 -->
      <g transform="translate(159.86875 326.565381) scale(0.1 -0.1)">
       <defs>
        <path id="DejaVuSans-30" d="M 2034 4250 
Q 1547 4250 1301 3770 
Q 1056 3291 1056 2328 
Q 1056 1369 1301 889 
Q 1547 409 2034 409 
Q 2525 409 2770 889 
Q 3016 1369 3016 2328 
Q 3016 3291 2770 3770 
Q 2525 4250 2034 4250 
z
M 2034 4750 
Q 2819 4750 3233 4129 
Q 3647 3509 3647 2328 
Q 3647 1150 3233 529 
Q 2819 -91 2034 -91 
Q 1250 -91 836 529 
Q 422 1150 422 2328 
Q 422 3509 836 4129 
Q 1250 4750 2034 4750 
z
" transform="scale(0.015625)"/>
        <path id="DejaVuSans-2e" d="M 684 794 
L 1344 794 
L 1344 0 
L 684 0 
L 684 794 
z
" transform="scale(0.015625)"/>
       </defs>
       <use xlink:href="#DejaVuSans-30"/>
       <use xlink:href="#DejaVuSans-2e" x="63.623047"/>
       <use xlink:href="#DejaVuSans-30" x="95.410156"/>
      </g>
     </g>
    </g>
    <g id="ytick_2">
     <g id="line2d_4">
      <g>
       <use xlink:href="#mf8064df618" x="182.771875" y="262.777931" style="stroke: #000000; stroke-width: 0.8"/>
      </g>
     </g>
     <g id="text_5">
      <!-- 0.5 -->
      <g transform="translate(159.86875 266.57715) scale(0.1 -0.1)">
       <defs>
        <path id="DejaVuSans-35" d="M 691 4666 
L 3169 4666 
L 3169 4134 
L 1269 4134 
L 1269 2991 
Q 1406 3038 1543 3061 
Q 1681 3084 1819 3084 
Q 2600 3084 3056 2656 
Q 3513 2228 3513 1497 
Q 3513 744 3044 326 
Q 2575 -91 1722 -91 
Q 1428 -91 1123 -41 
Q 819 9 494 109 
L 494 744 
Q 775 591 1075 516 
Q 1375 441 1709 441 
Q 2250 441 2565 725 
Q 2881 1009 2881 1497 
Q 2881 1984 2565 2268 
Q 2250 2553 1709 2553 
Q 1456 2553 1204 2497 
Q 953 2441 691 2322 
L 691 4666 
z
" transform="scale(0.015625)"/>
       </defs>
       <use xlink:href="#DejaVuSans-30"/>
       <use xlink:href="#DejaVuSans-2e" x="63.623047"/>
       <use xlink:href="#DejaVuSans-35" x="95.410156"/>
      </g>
     </g>
    </g>
    <g id="ytick_3">
     <g id="line2d_5">
      <g>
       <use xlink:href="#mf8064df618" x="182.771875" y="202.7897" style="stroke: #000000; stroke-width: 0.8"/>
      </g>
     </g>
     <g id="text_6">
      <!-- 1.0 -->
      <g transform="translate(159.86875 206.588918) scale(0.1 -0.1)">
       <defs>
        <path id="DejaVuSans-31" d="M 794 531 
L 1825 531 
L 1825 4091 
L 703 3866 
L 703 4441 
L 1819 4666 
L 2450 4666 
L 2450 531 
L 3481 531 
L 3481 0 
L 794 0 
L 794 531 
z
" transform="scale(0.015625)"/>
       </defs>
       <use xlink:href="#DejaVuSans-31"/>
       <use xlink:href="#DejaVuSans-2e" x="63.623047"/>
       <use xlink:href="#DejaVuSans-30" x="95.410156"/>
      </g>
     </g>
    </g>
    <g id="ytick_4">
     <g id="line2d_6">
      <g>
       <use xlink:href="#mf8064df618" x="182.771875" y="142.801468" style="stroke: #000000; stroke-width: 0.8"/>
      </g>
     </g>
     <g id="text_7">
      <!-- 1.5 -->
      <g transform="translate(159.86875 146.600687) scale(0.1 -0.1)">
       <use xlink:href="#DejaVuSans-31"/>
       <use xlink:href="#DejaVuSans-2e" x="63.623047"/>
       <use xlink:href="#DejaVuSans-35" x="95.410156"/>
      </g>
     </g>
    </g>
    <g id="ytick_5">
     <g id="line2d_7">
      <g>
       <use xlink:href="#mf8064df618" x="182.771875" y="82.813237" style="stroke: #000000; stroke-width: 0.8"/>
      </g>
     </g>
     <g id="text_8">
      <!-- 2.0 -->
      <g transform="translate(159.86875 86.612455) scale(0.1 -0.1)">
       <defs>
        <path id="DejaVuSans-32" d="M 1228 531 
L 3431 531 
L 3431 0 
L 469 0 
L 469 531 
Q 828 903 1448 1529 
Q 2069 2156 2228 2338 
Q 2531 2678 2651 2914 
Q 2772 3150 2772 3378 
Q 2772 3750 2511 3984 
Q 2250 4219 1831 4219 
Q 1534 4219 1204 4116 
Q 875 4013 500 3803 
L 500 4441 
Q 881 4594 1212 4672 
Q 1544 4750 1819 4750 
Q 2544 4750 2975 4387 
Q 3406 4025 3406 3419 
Q 3406 3131 3298 2873 
Q 3191 2616 2906 2266 
Q 2828 2175 2409 1742 
Q 1991 1309 1228 531 
z
" transform="scale(0.015625)"/>
       </defs>
       <use xlink:href="#DejaVuSans-32"/>
       <use xlink:href="#DejaVuSans-2e" x="63.623047"/>
       <use xlink:href="#DejaVuSans-30" x="95.410156"/>
      </g>
     </g>
    </g>
    <g id="text_9">
     <!-- Predicted Pellet Retrieval Time (minutes) -->
     <g transform="translate(152.957188 337.719219) rotate(-90) scale(0.14 -0.14)">
      <defs>
       <path id="DejaVuSans-50" d="M 1259 4147 
L 1259 2394 
L 2053 2394 
Q 2494 2394 2734 2622 
Q 2975 2850 2975 3272 
Q 2975 3691 2734 3919 
Q 2494 4147 2053 4147 
L 1259 4147 
z
M 628 4666 
L 2053 4666 
Q 2838 4666 3239 4311 
Q 3641 3956 3641 3272 
Q 3641 2581 3239 2228 
Q 2838 1875 2053 1875 
L 1259 1875 
L 1259 0 
L 628 0 
L 628 4666 
z
" transform="scale(0.015625)"/>
       <path id="DejaVuSans-65" d="M 3597 1894 
L 3597 1613 
L 953 1613 
Q 991 1019 1311 708 
Q 1631 397 2203 397 
Q 2534 397 2845 478 
Q 3156 559 3463 722 
L 3463 178 
Q 3153 47 2828 -22 
Q 2503 -91 2169 -91 
Q 1331 -91 842 396 
Q 353 884 353 1716 
Q 353 2575 817 3079 
Q 1281 3584 2069 3584 
Q 2775 3584 3186 3129 
Q 3597 2675 3597 1894 
z
M 3022 2063 
Q 3016 2534 2758 2815 
Q 2500 3097 2075 3097 
Q 1594 3097 1305 2825 
Q 1016 2553 972 2059 
L 3022 2063 
z
" transform="scale(0.015625)"/>
       <path id="DejaVuSans-64" d="M 2906 2969 
L 2906 4863 
L 3481 4863 
L 3481 0 
L 2906 0 
L 2906 525 
Q 2725 213 2448 61 
Q 2172 -91 1784 -91 
Q 1150 -91 751 415 
Q 353 922 353 1747 
Q 353 2572 751 3078 
Q 1150 3584 1784 3584 
Q 2172 3584 2448 3432 
Q 2725 3281 2906 2969 
z
M 947 1747 
Q 947 1113 1208 752 
Q 1469 391 1925 391 
Q 2381 391 2643 752 
Q 2906 1113 2906 1747 
Q 2906 2381 2643 2742 
Q 2381 3103 1925 3103 
Q 1469 3103 1208 2742 
Q 947 2381 947 1747 
z
" transform="scale(0.015625)"/>
       <path id="DejaVuSans-69" d="M 603 3500 
L 1178 3500 
L 1178 0 
L 603 0 
L 603 3500 
z
M 603 4863 
L 1178 4863 
L 1178 4134 
L 603 4134 
L 603 4863 
z
" transform="scale(0.015625)"/>
       <path id="DejaVuSans-63" d="M 3122 3366 
L 3122 2828 
Q 2878 2963 2633 3030 
Q 2388 3097 2138 3097 
Q 1578 3097 1268 2742 
Q 959 2388 959 1747 
Q 959 1106 1268 751 
Q 1578 397 2138 397 
Q 2388 397 2633 464 
Q 2878 531 3122 666 
L 3122 134 
Q 2881 22 2623 -34 
Q 2366 -91 2075 -91 
Q 1284 -91 818 406 
Q 353 903 353 1747 
Q 353 2603 823 3093 
Q 1294 3584 2113 3584 
Q 2378 3584 2631 3529 
Q 2884 3475 3122 3366 
z
" transform="scale(0.015625)"/>
       <path id="DejaVuSans-20" transform="scale(0.015625)"/>
       <path id="DejaVuSans-52" d="M 2841 2188 
Q 3044 2119 3236 1894 
Q 3428 1669 3622 1275 
L 4263 0 
L 3584 0 
L 2988 1197 
Q 2756 1666 2539 1819 
Q 2322 1972 1947 1972 
L 1259 1972 
L 1259 0 
L 628 0 
L 628 4666 
L 2053 4666 
Q 2853 4666 3247 4331 
Q 3641 3997 3641 3322 
Q 3641 2881 3436 2590 
Q 3231 2300 2841 2188 
z
M 1259 4147 
L 1259 2491 
L 2053 2491 
Q 2509 2491 2742 2702 
Q 2975 2913 2975 3322 
Q 2975 3731 2742 3939 
Q 2509 4147 2053 4147 
L 1259 4147 
z
" transform="scale(0.015625)"/>
       <path id="DejaVuSans-76" d="M 191 3500 
L 800 3500 
L 1894 563 
L 2988 3500 
L 3597 3500 
L 2284 0 
L 1503 0 
L 191 3500 
z
" transform="scale(0.015625)"/>
       <path id="DejaVuSans-61" d="M 2194 1759 
Q 1497 1759 1228 1600 
Q 959 1441 959 1056 
Q 959 750 1161 570 
Q 1363 391 1709 391 
Q 2188 391 2477 730 
Q 2766 1069 2766 1631 
L 2766 1759 
L 2194 1759 
z
M 3341 1997 
L 3341 0 
L 2766 0 
L 2766 531 
Q 2569 213 2275 61 
Q 1981 -91 1556 -91 
Q 1019 -91 701 211 
Q 384 513 384 1019 
Q 384 1609 779 1909 
Q 1175 2209 1959 2209 
L 2766 2209 
L 2766 2266 
Q 2766 2663 2505 2880 
Q 2244 3097 1772 3097 
Q 1472 3097 1187 3025 
Q 903 2953 641 2809 
L 641 3341 
Q 956 3463 1253 3523 
Q 1550 3584 1831 3584 
Q 2591 3584 2966 3190 
Q 3341 2797 3341 1997 
z
" transform="scale(0.015625)"/>
       <path id="DejaVuSans-54" d="M -19 4666 
L 3928 4666 
L 3928 4134 
L 2272 4134 
L 2272 0 
L 1638 0 
L 1638 4134 
L -19 4134 
L -19 4666 
z
" transform="scale(0.015625)"/>
       <path id="DejaVuSans-6d" d="M 3328 2828 
Q 3544 3216 3844 3400 
Q 4144 3584 4550 3584 
Q 5097 3584 5394 3201 
Q 5691 2819 5691 2113 
L 5691 0 
L 5113 0 
L 5113 2094 
Q 5113 2597 4934 2840 
Q 4756 3084 4391 3084 
Q 3944 3084 3684 2787 
Q 3425 2491 3425 1978 
L 3425 0 
L 2847 0 
L 2847 2094 
Q 2847 2600 2669 2842 
Q 2491 3084 2119 3084 
Q 1678 3084 1418 2786 
Q 1159 2488 1159 1978 
L 1159 0 
L 581 0 
L 581 3500 
L 1159 3500 
L 1159 2956 
Q 1356 3278 1631 3431 
Q 1906 3584 2284 3584 
Q 2666 3584 2933 3390 
Q 3200 3197 3328 2828 
z
" transform="scale(0.015625)"/>
       <path id="DejaVuSans-28" d="M 1984 4856 
Q 1566 4138 1362 3434 
Q 1159 2731 1159 2009 
Q 1159 1288 1364 580 
Q 1569 -128 1984 -844 
L 1484 -844 
Q 1016 -109 783 600 
Q 550 1309 550 2009 
Q 550 2706 781 3412 
Q 1013 4119 1484 4856 
L 1984 4856 
z
" transform="scale(0.015625)"/>
       <path id="DejaVuSans-6e" d="M 3513 2113 
L 3513 0 
L 2938 0 
L 2938 2094 
Q 2938 2591 2744 2837 
Q 2550 3084 2163 3084 
Q 1697 3084 1428 2787 
Q 1159 2491 1159 1978 
L 1159 0 
L 581 0 
L 581 3500 
L 1159 3500 
L 1159 2956 
Q 1366 3272 1645 3428 
Q 1925 3584 2291 3584 
Q 2894 3584 3203 3211 
Q 3513 2838 3513 2113 
z
" transform="scale(0.015625)"/>
       <path id="DejaVuSans-29" d="M 513 4856 
L 1013 4856 
Q 1481 4119 1714 3412 
Q 1947 2706 1947 2009 
Q 1947 1309 1714 600 
Q 1481 -109 1013 -844 
L 513 -844 
Q 928 -128 1133 580 
Q 1338 1288 1338 2009 
Q 1338 2731 1133 3434 
Q 928 4138 513 4856 
z
" transform="scale(0.015625)"/>
      </defs>
      <use xlink:href="#DejaVuSans-50"/>
      <use xlink:href="#DejaVuSans-72" x="58.552734"/>
      <use xlink:href="#DejaVuSans-65" x="97.416016"/>
      <use xlink:href="#DejaVuSans-64" x="158.939453"/>
      <use xlink:href="#DejaVuSans-69" x="222.416016"/>
      <use xlink:href="#DejaVuSans-63" x="250.199219"/>
      <use xlink:href="#DejaVuSans-74" x="305.179688"/>
      <use xlink:href="#DejaVuSans-65" x="344.388672"/>
      <use xlink:href="#DejaVuSans-64" x="405.912109"/>
      <use xlink:href="#DejaVuSans-20" x="469.388672"/>
      <use xlink:href="#DejaVuSans-50" x="501.175781"/>
      <use xlink:href="#DejaVuSans-65" x="557.853516"/>
      <use xlink:href="#DejaVuSans-6c" x="619.376953"/>
      <use xlink:href="#DejaVuSans-6c" x="647.160156"/>
      <use xlink:href="#DejaVuSans-65" x="674.943359"/>
      <use xlink:href="#DejaVuSans-74" x="736.466797"/>
      <use xlink:href="#DejaVuSans-20" x="775.675781"/>
      <use xlink:href="#DejaVuSans-52" x="807.462891"/>
      <use xlink:href="#DejaVuSans-65" x="872.445312"/>
      <use xlink:href="#DejaVuSans-74" x="933.96875"/>
      <use xlink:href="#DejaVuSans-72" x="973.177734"/>
      <use xlink:href="#DejaVuSans-69" x="1014.291016"/>
      <use xlink:href="#DejaVuSans-65" x="1042.074219"/>
      <use xlink:href="#DejaVuSans-76" x="1103.597656"/>
      <use xlink:href="#DejaVuSans-61" x="1162.777344"/>
      <use xlink:href="#DejaVuSans-6c" x="1224.056641"/>
      <use xlink:href="#DejaVuSans-20" x="1251.839844"/>
      <use xlink:href="#DejaVuSans-54" x="1283.626953"/>
      <use xlink:href="#DejaVuSans-69" x="1341.585938"/>
      <use xlink:href="#DejaVuSans-6d" x="1369.369141"/>
      <use xlink:href="#DejaVuSans-65" x="1466.78125"/>
      <use xlink:href="#DejaVuSans-20" x="1528.304688"/>
      <use xlink:href="#DejaVuSans-28" x="1560.091797"/>
      <use xlink:href="#DejaVuSans-6d" x="1599.105469"/>
      <use xlink:href="#DejaVuSans-69" x="1696.517578"/>
      <use xlink:href="#DejaVuSans-6e" x="1724.300781"/>
      <use xlink:href="#DejaVuSans-75" x="1787.679688"/>
      <use xlink:href="#DejaVuSans-74" x="1851.058594"/>
      <use xlink:href="#DejaVuSans-65" x="1890.267578"/>
      <use xlink:href="#DejaVuSans-73" x="1951.791016"/>
      <use xlink:href="#DejaVuSans-29" x="2003.890625"/>
     </g>
    </g>
   </g>
   <g id="patch_3">
    <path d="M 182.771875 361.036875 
L 182.771875 28.396875 
" style="fill: none; stroke: #000000; stroke-width: 0.8; stroke-linejoin: miter; stroke-linecap: square"/>
   </g>
   <g id="patch_4">
    <path d="M 517.571875 361.036875 
L 517.571875 28.396875 
" style="fill: none; stroke: #000000; stroke-width: 0.8; stroke-linejoin: miter; stroke-linecap: square"/>
   </g>
   <g id="patch_5">
    <path d="M 182.771875 361.036875 
L 517.571875 361.036875 
" style="fill: none; stroke: #000000; stroke-width: 0.8; stroke-linejoin: miter; stroke-linecap: square"/>
   </g>
   <g id="patch_6">
    <path d="M 182.771875 28.396875 
L 517.571875 28.396875 
" style="fill: none; stroke: #000000; stroke-width: 0.8; stroke-linejoin: miter; stroke-linecap: square"/>
   </g>
   <g id="PathCollection_1">
    <defs>
     <path id="m555aa70072" d="M 0 3 
C 0.795609 3 1.55874 2.683901 2.12132 2.12132 
C 2.683901 1.55874 3 0.795609 3 0 
C 3 -0.795609 2.683901 -1.55874 2.12132 -2.12132 
C 1.55874 -2.683901 0.795609 -3 0 -3 
C -0.795609 -3 -1.55874 -2.683901 -2.12132 -2.12132 
C -2.683901 -1.55874 -3 -0.795609 -3 0 
C -3 0.795609 -2.683901 1.55874 -2.12132 2.12132 
C -1.55874 2.683901 -0.795609 3 0 3 
z
" style="stroke: #18c1f5; stroke-opacity: 0.8"/>
    </defs>
    <g clip-path="url(#p61cb5ca93b)">
     <use xlink:href="#m555aa70072" x="238.905439" y="234.286612" style="fill: #18c1f5; fill-opacity: 0.8; stroke: #18c1f5; stroke-opacity: 0.8"/>
     <use xlink:href="#m555aa70072" x="253.233745" y="127.903546" style="fill: #18c1f5; fill-opacity: 0.8; stroke: #18c1f5; stroke-opacity: 0.8"/>
     <use xlink:href="#m555aa70072" x="247.307103" y="259.259085" style="fill: #18c1f5; fill-opacity: 0.8; stroke: #18c1f5; stroke-opacity: 0.8"/>
     <use xlink:href="#m555aa70072" x="238.391391" y="224.691275" style="fill: #18c1f5; fill-opacity: 0.8; stroke: #18c1f5; stroke-opacity: 0.8"/>
     <use xlink:href="#m555aa70072" x="239.201615" y="177.307477" style="fill: #18c1f5; fill-opacity: 0.8; stroke: #18c1f5; stroke-opacity: 0.8"/>
     <use xlink:href="#m555aa70072" x="245.048178" y="296.957616" style="fill: #18c1f5; fill-opacity: 0.8; stroke: #18c1f5; stroke-opacity: 0.8"/>
     <use xlink:href="#m555aa70072" x="236.144882" y="242.283232" style="fill: #18c1f5; fill-opacity: 0.8; stroke: #18c1f5; stroke-opacity: 0.8"/>
     <use xlink:href="#m555aa70072" x="251.813555" y="102.122148" style="fill: #18c1f5; fill-opacity: 0.8; stroke: #18c1f5; stroke-opacity: 0.8"/>
     <use xlink:href="#m555aa70072" x="239.577774" y="43.516875" style="fill: #18c1f5; fill-opacity: 0.8; stroke: #18c1f5; stroke-opacity: 0.8"/>
     <use xlink:href="#m555aa70072" x="251.419683" y="179.568393" style="fill: #18c1f5; fill-opacity: 0.8; stroke: #18c1f5; stroke-opacity: 0.8"/>
     <use xlink:href="#m555aa70072" x="249.616367" y="236.01575" style="fill: #18c1f5; fill-opacity: 0.8; stroke: #18c1f5; stroke-opacity: 0.8"/>
     <use xlink:href="#m555aa70072" x="240.3071" y="274.859382" style="fill: #18c1f5; fill-opacity: 0.8; stroke: #18c1f5; stroke-opacity: 0.8"/>
     <use xlink:href="#m555aa70072" x="249.895508" y="273.582574" style="fill: #18c1f5; fill-opacity: 0.8; stroke: #18c1f5; stroke-opacity: 0.8"/>
     <use xlink:href="#m555aa70072" x="257.297191" y="127.465409" style="fill: #18c1f5; fill-opacity: 0.8; stroke: #18c1f5; stroke-opacity: 0.8"/>
     <use xlink:href="#m555aa70072" x="260.317314" y="231.560561" style="fill: #18c1f5; fill-opacity: 0.8; stroke: #18c1f5; stroke-opacity: 0.8"/>
     <use xlink:href="#m555aa70072" x="236.223523" y="127.030851" style="fill: #18c1f5; fill-opacity: 0.8; stroke: #18c1f5; stroke-opacity: 0.8"/>
     <use xlink:href="#m555aa70072" x="258.296036" y="123.138349" style="fill: #18c1f5; fill-opacity: 0.8; stroke: #18c1f5; stroke-opacity: 0.8"/>
     <use xlink:href="#m555aa70072" x="242.67938" y="90.576118" style="fill: #18c1f5; fill-opacity: 0.8; stroke: #18c1f5; stroke-opacity: 0.8"/>
     <use xlink:href="#m555aa70072" x="250.507714" y="194.39304" style="fill: #18c1f5; fill-opacity: 0.8; stroke: #18c1f5; stroke-opacity: 0.8"/>
     <use xlink:href="#m555aa70072" x="256.491594" y="233.178674" style="fill: #18c1f5; fill-opacity: 0.8; stroke: #18c1f5; stroke-opacity: 0.8"/>
     <use xlink:href="#m555aa70072" x="259.160783" y="197.231957" style="fill: #18c1f5; fill-opacity: 0.8; stroke: #18c1f5; stroke-opacity: 0.8"/>
     <use xlink:href="#m555aa70072" x="244.818796" y="276.221557" style="fill: #18c1f5; fill-opacity: 0.8; stroke: #18c1f5; stroke-opacity: 0.8"/>
     <use xlink:href="#m555aa70072" x="249.739836" y="254.003006" style="fill: #18c1f5; fill-opacity: 0.8; stroke: #18c1f5; stroke-opacity: 0.8"/>
     <use xlink:href="#m555aa70072" x="240.353741" y="193.420841" style="fill: #18c1f5; fill-opacity: 0.8; stroke: #18c1f5; stroke-opacity: 0.8"/>
    </g>
   </g>
   <g id="PathCollection_2">
    <defs>
     <path id="m721aaa08ae" d="M 0 3 
C 0.795609 3 1.55874 2.683901 2.12132 2.12132 
C 2.683901 1.55874 3 0.795609 3 0 
C 3 -0.795609 2.683901 -1.55874 2.12132 -2.12132 
C 1.55874 -2.683901 0.795609 -3 0 -3 
C -0.795609 -3 -1.55874 -2.683901 -2.12132 -2.12132 
C -2.683901 -1.55874 -3 -0.795609 -3 0 
C -3 0.795609 -2.683901 1.55874 -2.12132 2.12132 
C -1.55874 2.683901 -0.795609 3 0 3 
z
" style="stroke: #36d15a; stroke-opacity: 0.8"/>
    </defs>
    <g clip-path="url(#p61cb5ca93b)">
     <use xlink:href="#m721aaa08ae" x="454.268349" y="190.285479" style="fill: #36d15a; fill-opacity: 0.8; stroke: #36d15a; stroke-opacity: 0.8"/>
     <use xlink:href="#m721aaa08ae" x="454.258591" y="238.73299" style="fill: #36d15a; fill-opacity: 0.8; stroke: #36d15a; stroke-opacity: 0.8"/>
     <use xlink:href="#m721aaa08ae" x="453.169371" y="163.872155" style="fill: #36d15a; fill-opacity: 0.8; stroke: #36d15a; stroke-opacity: 0.8"/>
     <use xlink:href="#m721aaa08ae" x="448.09236" y="243.148961" style="fill: #36d15a; fill-opacity: 0.8; stroke: #36d15a; stroke-opacity: 0.8"/>
     <use xlink:href="#m721aaa08ae" x="463.690923" y="122.798546" style="fill: #36d15a; fill-opacity: 0.8; stroke: #36d15a; stroke-opacity: 0.8"/>
     <use xlink:href="#m721aaa08ae" x="453.297114" y="249.841516" style="fill: #36d15a; fill-opacity: 0.8; stroke: #36d15a; stroke-opacity: 0.8"/>
     <use xlink:href="#m721aaa08ae" x="440.560132" y="264.346333" style="fill: #36d15a; fill-opacity: 0.8; stroke: #36d15a; stroke-opacity: 0.8"/>
     <use xlink:href="#m721aaa08ae" x="453.263151" y="236.568398" style="fill: #36d15a; fill-opacity: 0.8; stroke: #36d15a; stroke-opacity: 0.8"/>
     <use xlink:href="#m721aaa08ae" x="451.205876" y="263.30041" style="fill: #36d15a; fill-opacity: 0.8; stroke: #36d15a; stroke-opacity: 0.8"/>
     <use xlink:href="#m721aaa08ae" x="455.996136" y="296.885271" style="fill: #36d15a; fill-opacity: 0.8; stroke: #36d15a; stroke-opacity: 0.8"/>
     <use xlink:href="#m721aaa08ae" x="455.024415" y="232.619433" style="fill: #36d15a; fill-opacity: 0.8; stroke: #36d15a; stroke-opacity: 0.8"/>
     <use xlink:href="#m721aaa08ae" x="463.811565" y="219.346326" style="fill: #36d15a; fill-opacity: 0.8; stroke: #36d15a; stroke-opacity: 0.8"/>
     <use xlink:href="#m721aaa08ae" x="455.512985" y="257.886564" style="fill: #36d15a; fill-opacity: 0.8; stroke: #36d15a; stroke-opacity: 0.8"/>
     <use xlink:href="#m721aaa08ae" x="453.247399" y="271.977591" style="fill: #36d15a; fill-opacity: 0.8; stroke: #36d15a; stroke-opacity: 0.8"/>
     <use xlink:href="#m721aaa08ae" x="449.774181" y="180.098115" style="fill: #36d15a; fill-opacity: 0.8; stroke: #36d15a; stroke-opacity: 0.8"/>
     <use xlink:href="#m721aaa08ae" x="449.103316" y="223.725473" style="fill: #36d15a; fill-opacity: 0.8; stroke: #36d15a; stroke-opacity: 0.8"/>
     <use xlink:href="#m721aaa08ae" x="453.247302" y="209.861651" style="fill: #36d15a; fill-opacity: 0.8; stroke: #36d15a; stroke-opacity: 0.8"/>
     <use xlink:href="#m721aaa08ae" x="443.153916" y="214.50824" style="fill: #36d15a; fill-opacity: 0.8; stroke: #36d15a; stroke-opacity: 0.8"/>
     <use xlink:href="#m721aaa08ae" x="443.229576" y="198.724904" style="fill: #36d15a; fill-opacity: 0.8; stroke: #36d15a; stroke-opacity: 0.8"/>
     <use xlink:href="#m721aaa08ae" x="439.826185" y="249.505977" style="fill: #36d15a; fill-opacity: 0.8; stroke: #36d15a; stroke-opacity: 0.8"/>
     <use xlink:href="#m721aaa08ae" x="441.205526" y="258.422892" style="fill: #36d15a; fill-opacity: 0.8; stroke: #36d15a; stroke-opacity: 0.8"/>
     <use xlink:href="#m721aaa08ae" x="456.903893" y="188.332249" style="fill: #36d15a; fill-opacity: 0.8; stroke: #36d15a; stroke-opacity: 0.8"/>
     <use xlink:href="#m721aaa08ae" x="443.273254" y="345.916875" style="fill: #36d15a; fill-opacity: 0.8; stroke: #36d15a; stroke-opacity: 0.8"/>
    </g>
   </g>
   <g id="text_10">
    <!-- Predicted Pellet Retrieval Time Distribution for Ctrl and CASK Groups -->
    <g transform="translate(7.2 22.396875) scale(0.2 -0.2)">
     <defs>
      <path id="DejaVuSans-44" d="M 1259 4147 
L 1259 519 
L 2022 519 
Q 2988 519 3436 956 
Q 3884 1394 3884 2338 
Q 3884 3275 3436 3711 
Q 2988 4147 2022 4147 
L 1259 4147 
z
M 628 4666 
L 1925 4666 
Q 3281 4666 3915 4102 
Q 4550 3538 4550 2338 
Q 4550 1131 3912 565 
Q 3275 0 1925 0 
L 628 0 
L 628 4666 
z
" transform="scale(0.015625)"/>
      <path id="DejaVuSans-62" d="M 3116 1747 
Q 3116 2381 2855 2742 
Q 2594 3103 2138 3103 
Q 1681 3103 1420 2742 
Q 1159 2381 1159 1747 
Q 1159 1113 1420 752 
Q 1681 391 2138 391 
Q 2594 391 2855 752 
Q 3116 1113 3116 1747 
z
M 1159 2969 
Q 1341 3281 1617 3432 
Q 1894 3584 2278 3584 
Q 2916 3584 3314 3078 
Q 3713 2572 3713 1747 
Q 3713 922 3314 415 
Q 2916 -91 2278 -91 
Q 1894 -91 1617 61 
Q 1341 213 1159 525 
L 1159 0 
L 581 0 
L 581 4863 
L 1159 4863 
L 1159 2969 
z
" transform="scale(0.015625)"/>
      <path id="DejaVuSans-66" d="M 2375 4863 
L 2375 4384 
L 1825 4384 
Q 1516 4384 1395 4259 
Q 1275 4134 1275 3809 
L 1275 3500 
L 2222 3500 
L 2222 3053 
L 1275 3053 
L 1275 0 
L 697 0 
L 697 3053 
L 147 3053 
L 147 3500 
L 697 3500 
L 697 3744 
Q 697 4328 969 4595 
Q 1241 4863 1831 4863 
L 2375 4863 
z
" transform="scale(0.015625)"/>
     </defs>
     <use xlink:href="#DejaVuSans-50"/>
     <use xlink:href="#DejaVuSans-72" x="58.552734"/>
     <use xlink:href="#DejaVuSans-65" x="97.416016"/>
     <use xlink:href="#DejaVuSans-64" x="158.939453"/>
     <use xlink:href="#DejaVuSans-69" x="222.416016"/>
     <use xlink:href="#DejaVuSans-63" x="250.199219"/>
     <use xlink:href="#DejaVuSans-74" x="305.179688"/>
     <use xlink:href="#DejaVuSans-65" x="344.388672"/>
     <use xlink:href="#DejaVuSans-64" x="405.912109"/>
     <use xlink:href="#DejaVuSans-20" x="469.388672"/>
     <use xlink:href="#DejaVuSans-50" x="501.175781"/>
     <use xlink:href="#DejaVuSans-65" x="557.853516"/>
     <use xlink:href="#DejaVuSans-6c" x="619.376953"/>
     <use xlink:href="#DejaVuSans-6c" x="647.160156"/>
     <use xlink:href="#DejaVuSans-65" x="674.943359"/>
     <use xlink:href="#DejaVuSans-74" x="736.466797"/>
     <use xlink:href="#DejaVuSans-20" x="775.675781"/>
     <use xlink:href="#DejaVuSans-52" x="807.462891"/>
     <use xlink:href="#DejaVuSans-65" x="872.445312"/>
     <use xlink:href="#DejaVuSans-74" x="933.96875"/>
     <use xlink:href="#DejaVuSans-72" x="973.177734"/>
     <use xlink:href="#DejaVuSans-69" x="1014.291016"/>
     <use xlink:href="#DejaVuSans-65" x="1042.074219"/>
     <use xlink:href="#DejaVuSans-76" x="1103.597656"/>
     <use xlink:href="#DejaVuSans-61" x="1162.777344"/>
     <use xlink:href="#DejaVuSans-6c" x="1224.056641"/>
     <use xlink:href="#DejaVuSans-20" x="1251.839844"/>
     <use xlink:href="#DejaVuSans-54" x="1283.626953"/>
     <use xlink:href="#DejaVuSans-69" x="1341.585938"/>
     <use xlink:href="#DejaVuSans-6d" x="1369.369141"/>
     <use xlink:href="#DejaVuSans-65" x="1466.78125"/>
     <use xlink:href="#DejaVuSans-20" x="1528.304688"/>
     <use xlink:href="#DejaVuSans-44" x="1560.091797"/>
     <use xlink:href="#DejaVuSans-69" x="1637.09375"/>
     <use xlink:href="#DejaVuSans-73" x="1664.876953"/>
     <use xlink:href="#DejaVuSans-74" x="1716.976562"/>
     <use xlink:href="#DejaVuSans-72" x="1756.185547"/>
     <use xlink:href="#DejaVuSans-69" x="1797.298828"/>
     <use xlink:href="#DejaVuSans-62" x="1825.082031"/>
     <use xlink:href="#DejaVuSans-75" x="1888.558594"/>
     <use xlink:href="#DejaVuSans-74" x="1951.9375"/>
     <use xlink:href="#DejaVuSans-69" x="1991.146484"/>
     <use xlink:href="#DejaVuSans-6f" x="2018.929688"/>
     <use xlink:href="#DejaVuSans-6e" x="2080.111328"/>
     <use xlink:href="#DejaVuSans-20" x="2143.490234"/>
     <use xlink:href="#DejaVuSans-66" x="2175.277344"/>
     <use xlink:href="#DejaVuSans-6f" x="2210.482422"/>
     <use xlink:href="#DejaVuSans-72" x="2271.664062"/>
     <use xlink:href="#DejaVuSans-20" x="2312.777344"/>
     <use xlink:href="#DejaVuSans-43" x="2344.564453"/>
     <use xlink:href="#DejaVuSans-74" x="2414.388672"/>
     <use xlink:href="#DejaVuSans-72" x="2453.597656"/>
     <use xlink:href="#DejaVuSans-6c" x="2494.710938"/>
     <use xlink:href="#DejaVuSans-20" x="2522.494141"/>
     <use xlink:href="#DejaVuSans-61" x="2554.28125"/>
     <use xlink:href="#DejaVuSans-6e" x="2615.560547"/>
     <use xlink:href="#DejaVuSans-64" x="2678.939453"/>
     <use xlink:href="#DejaVuSans-20" x="2742.416016"/>
     <use xlink:href="#DejaVuSans-43" x="2774.203125"/>
     <use xlink:href="#DejaVuSans-41" x="2844.027344"/>
     <use xlink:href="#DejaVuSans-53" x="2912.435547"/>
     <use xlink:href="#DejaVuSans-4b" x="2975.912109"/>
     <use xlink:href="#DejaVuSans-20" x="3041.488281"/>
     <use xlink:href="#DejaVuSans-47" x="3073.275391"/>
     <use xlink:href="#DejaVuSans-72" x="3150.765625"/>
     <use xlink:href="#DejaVuSans-6f" x="3189.628906"/>
     <use xlink:href="#DejaVuSans-75" x="3250.810547"/>
     <use xlink:href="#DejaVuSans-70" x="3314.189453"/>
     <use xlink:href="#DejaVuSans-73" x="3377.666016"/>
    </g>
   </g>
   <g id="legend_1">
    <g id="patch_7">
     <path d="M 407.0625 65.753125 
L 510.571875 65.753125 
Q 512.571875 65.753125 512.571875 63.753125 
L 512.571875 35.396875 
Q 512.571875 33.396875 510.571875 33.396875 
L 407.0625 33.396875 
Q 405.0625 33.396875 405.0625 35.396875 
L 405.0625 63.753125 
Q 405.0625 65.753125 407.0625 65.753125 
z
" style="fill: #ffffff; opacity: 0.8; stroke: #cccccc; stroke-linejoin: miter"/>
    </g>
    <g id="patch_8">
     <path d="M 409.0625 44.995312 
L 429.0625 44.995312 
L 429.0625 37.995312 
L 409.0625 37.995312 
z
" style="fill: #38bcf5; opacity: 0.6; stroke: #38bcf5; stroke-linejoin: miter"/>
    </g>
    <g id="text_11">
     <!-- Ctrl (n = 24) -->
     <g transform="translate(437.0625 44.995312) scale(0.1 -0.1)">
      <defs>
       <path id="DejaVuSans-3d" d="M 678 2906 
L 4684 2906 
L 4684 2381 
L 678 2381 
L 678 2906 
z
M 678 1631 
L 4684 1631 
L 4684 1100 
L 678 1100 
L 678 1631 
z
" transform="scale(0.015625)"/>
       <path id="DejaVuSans-34" d="M 2419 4116 
L 825 1625 
L 2419 1625 
L 2419 4116 
z
M 2253 4666 
L 3047 4666 
L 3047 1625 
L 3713 1625 
L 3713 1100 
L 3047 1100 
L 3047 0 
L 2419 0 
L 2419 1100 
L 313 1100 
L 313 1709 
L 2253 4666 
z
" transform="scale(0.015625)"/>
      </defs>
      <use xlink:href="#DejaVuSans-43"/>
      <use xlink:href="#DejaVuSans-74" x="69.824219"/>
      <use xlink:href="#DejaVuSans-72" x="109.033203"/>
      <use xlink:href="#DejaVuSans-6c" x="150.146484"/>
      <use xlink:href="#DejaVuSans-20" x="177.929688"/>
      <use xlink:href="#DejaVuSans-28" x="209.716797"/>
      <use xlink:href="#DejaVuSans-6e" x="248.730469"/>
      <use xlink:href="#DejaVuSans-20" x="312.109375"/>
      <use xlink:href="#DejaVuSans-3d" x="343.896484"/>
      <use xlink:href="#DejaVuSans-20" x="427.685547"/>
      <use xlink:href="#DejaVuSans-32" x="459.472656"/>
      <use xlink:href="#DejaVuSans-34" x="523.095703"/>
      <use xlink:href="#DejaVuSans-29" x="586.71875"/>
     </g>
    </g>
    <g id="patch_9">
     <path d="M 409.0625 59.673437 
L 429.0625 59.673437 
L 429.0625 52.673437 
L 409.0625 52.673437 
z
" style="fill: #38f5a6; opacity: 0.6; stroke: #38f5a6; stroke-linejoin: miter"/>
    </g>
    <g id="text_12">
     <!-- CASK (n = 23) -->
     <g transform="translate(437.0625 59.673437) scale(0.1 -0.1)">
      <defs>
       <path id="DejaVuSans-33" d="M 2597 2516 
Q 3050 2419 3304 2112 
Q 3559 1806 3559 1356 
Q 3559 666 3084 287 
Q 2609 -91 1734 -91 
Q 1441 -91 1130 -33 
Q 819 25 488 141 
L 488 750 
Q 750 597 1062 519 
Q 1375 441 1716 441 
Q 2309 441 2620 675 
Q 2931 909 2931 1356 
Q 2931 1769 2642 2001 
Q 2353 2234 1838 2234 
L 1294 2234 
L 1294 2753 
L 1863 2753 
Q 2328 2753 2575 2939 
Q 2822 3125 2822 3475 
Q 2822 3834 2567 4026 
Q 2313 4219 1838 4219 
Q 1578 4219 1281 4162 
Q 984 4106 628 3988 
L 628 4550 
Q 988 4650 1302 4700 
Q 1616 4750 1894 4750 
Q 2613 4750 3031 4423 
Q 3450 4097 3450 3541 
Q 3450 3153 3228 2886 
Q 3006 2619 2597 2516 
z
" transform="scale(0.015625)"/>
      </defs>
      <use xlink:href="#DejaVuSans-43"/>
      <use xlink:href="#DejaVuSans-41" x="69.824219"/>
      <use xlink:href="#DejaVuSans-53" x="138.232422"/>
      <use xlink:href="#DejaVuSans-4b" x="201.708984"/>
      <use xlink:href="#DejaVuSans-20" x="267.285156"/>
      <use xlink:href="#DejaVuSans-28" x="299.072266"/>
      <use xlink:href="#DejaVuSans-6e" x="338.085938"/>
      <use xlink:href="#DejaVuSans-20" x="401.464844"/>
      <use xlink:href="#DejaVuSans-3d" x="433.251953"/>
      <use xlink:href="#DejaVuSans-20" x="517.041016"/>
      <use xlink:href="#DejaVuSans-32" x="548.828125"/>
      <use xlink:href="#DejaVuSans-33" x="612.451172"/>
      <use xlink:href="#DejaVuSans-29" x="676.074219"/>
     </g>
    </g>
   </g>
  </g>
 </g>
 <defs>
  <clipPath id="p61cb5ca93b">
   <rect x="182.771875" y="28.396875" width="334.8" height="332.64"/>
  </clipPath>
 </defs>
</svg>
