<?xml version="1.0" encoding="utf-8" standalone="no"?>
<!DOCTYPE svg PUBLIC "-//W3C//DTD SVG 1.1//EN"
  "http://www.w3.org/Graphics/SVG/1.1/DTD/svg11.dtd">
<svg xmlns:xlink="http://www.w3.org/1999/xlink" width="727.034375pt" height="402.464375pt" viewBox="0 0 727.034375 402.464375" xmlns="http://www.w3.org/2000/svg" version="1.1">
 <metadata>
  <rdf:RDF xmlns:dc="http://purl.org/dc/elements/1.1/" xmlns:cc="http://creativecommons.org/ns#" xmlns:rdf="http://www.w3.org/1999/02/22-rdf-syntax-ns#">
   <cc:Work>
    <dc:type rdf:resource="http://purl.org/dc/dcmitype/StillImage"/>
    <dc:date>2025-04-10T15:00:27.352304</dc:date>
    <dc:format>image/svg+xml</dc:format>
    <dc:creator>
     <cc:Agent>
      <dc:title>Matplotlib v3.8.3, https://matplotlib.org/</dc:title>
     </cc:Agent>
    </dc:creator>
   </cc:Work>
  </rdf:RDF>
 </metadata>
 <defs>
  <style type="text/css">*{stroke-linejoin: round; stroke-linecap: butt}</style>
 </defs>
 <g id="figure_1">
  <g id="patch_1">
   <path d="M 0 402.464375 
L 727.034375 402.464375 
L 727.034375 0 
L 0 0 
z
" style="fill: #ffffff"/>
  </g>
  <g id="axes_1">
   <g id="patch_2">
    <path d="M 196.117188 361.036875 
L 530.917187 361.036875 
L 530.917187 28.396875 
L 196.117188 28.396875 
z
" style="fill: #ffffff"/>
   </g>
   <g id="PolyCollection_1">
    <defs>
     <path id="mb1b31e280e" d="M 265.931956 -56.5475 
L 258.193328 -56.5475 
L 258.082634 -59.296591 
L 257.98598 -62.045682 
L 257.902937 -64.794773 
L 257.832819 -67.543864 
L 257.774755 -70.292955 
L 257.727771 -73.042045 
L 257.690859 -75.791136 
L 257.663047 -78.540227 
L 257.643444 -81.289318 
L 257.631275 -84.038409 
L 257.625888 -86.7875 
L 257.626736 -89.536591 
L 257.633345 -92.285682 
L 257.645254 -95.034773 
L 257.661948 -97.783864 
L 257.682781 -100.532955 
L 257.706898 -103.282045 
L 257.733162 -106.031136 
L 257.7601 -108.780227 
L 257.785856 -111.529318 
L 257.808175 -114.278409 
L 257.824403 -117.0275 
L 257.831512 -119.776591 
L 257.826148 -122.525682 
L 257.804686 -125.274773 
L 257.763304 -128.023864 
L 257.698055 -130.772955 
L 257.604941 -133.522045 
L 257.479975 -136.271136 
L 257.319235 -139.020227 
L 257.118898 -141.769318 
L 256.875262 -144.518409 
L 256.584744 -147.2675 
L 256.243873 -150.016591 
L 255.849266 -152.765682 
L 255.397606 -155.514773 
L 254.885617 -158.263864 
L 254.31005 -161.012955 
L 253.667687 -163.762045 
L 252.955352 -166.511136 
L 252.169966 -169.260227 
L 251.308605 -172.009318 
L 250.368603 -174.758409 
L 249.347662 -177.5075 
L 248.243998 -180.256591 
L 247.056486 -183.005682 
L 245.784828 -185.754773 
L 244.429712 -188.503864 
L 242.992969 -191.252955 
L 241.477716 -194.002045 
L 239.888483 -196.751136 
L 238.231305 -199.500227 
L 236.513792 -202.249318 
L 234.745159 -204.998409 
L 232.936222 -207.7475 
L 231.099348 -210.496591 
L 229.248377 -213.245682 
L 227.398491 -215.994773 
L 225.566053 -218.743864 
L 223.768409 -221.492955 
L 222.023648 -224.242045 
L 220.350341 -226.991136 
L 218.767239 -229.740227 
L 217.292963 -232.489318 
L 215.945659 -235.238409 
L 214.742655 -237.9875 
L 213.700108 -240.736591 
L 212.832654 -243.485682 
L 212.153076 -246.234773 
L 211.671995 -248.983864 
L 211.397589 -251.732955 
L 211.335369 -254.482045 
L 211.487995 -257.231136 
L 211.855162 -259.980227 
L 212.433554 -262.729318 
L 213.216869 -265.478409 
L 214.195919 -268.2275 
L 215.358807 -270.976591 
L 216.69117 -273.725682 
L 218.176489 -276.474773 
L 219.796451 -279.223864 
L 221.53136 -281.972955 
L 223.36057 -284.722045 
L 225.262943 -287.471136 
L 227.217295 -290.220227 
L 229.202844 -292.969318 
L 231.199615 -295.718409 
L 233.188814 -298.4675 
L 235.153144 -301.216591 
L 237.077065 -303.965682 
L 238.946979 -306.714773 
L 240.751359 -309.463864 
L 242.480798 -312.212955 
L 244.127993 -314.962045 
L 245.687676 -317.711136 
L 247.156482 -320.460227 
L 248.532779 -323.209318 
L 249.81647 -325.958409 
L 251.008766 -328.7075 
L 273.116519 -328.7075 
L 273.116519 -328.7075 
L 274.308814 -325.958409 
L 275.592505 -323.209318 
L 276.968802 -320.460227 
L 278.437608 -317.711136 
L 279.997291 -314.962045 
L 281.644486 -312.212955 
L 283.373925 -309.463864 
L 285.178305 -306.714773 
L 287.04822 -303.965682 
L 288.97214 -301.216591 
L 290.93647 -298.4675 
L 292.925669 -295.718409 
L 294.92244 -292.969318 
L 296.907989 -290.220227 
L 298.862341 -287.471136 
L 300.764714 -284.722045 
L 302.593924 -281.972955 
L 304.328833 -279.223864 
L 305.948796 -276.474773 
L 307.434114 -273.725682 
L 308.766477 -270.976591 
L 309.929365 -268.2275 
L 310.908415 -265.478409 
L 311.69173 -262.729318 
L 312.270122 -259.980227 
L 312.637289 -257.231136 
L 312.789915 -254.482045 
L 312.727695 -251.732955 
L 312.453289 -248.983864 
L 311.972208 -246.234773 
L 311.29263 -243.485682 
L 310.425176 -240.736591 
L 309.382629 -237.9875 
L 308.179625 -235.238409 
L 306.832321 -232.489318 
L 305.358045 -229.740227 
L 303.774943 -226.991136 
L 302.101636 -224.242045 
L 300.356875 -221.492955 
L 298.559231 -218.743864 
L 296.726793 -215.994773 
L 294.876907 -213.245682 
L 293.025936 -210.496591 
L 291.189063 -207.7475 
L 289.380125 -204.998409 
L 287.611492 -202.249318 
L 285.893979 -199.500227 
L 284.236801 -196.751136 
L 282.647568 -194.002045 
L 281.132315 -191.252955 
L 279.695572 -188.503864 
L 278.340456 -185.754773 
L 277.068798 -183.005682 
L 275.881286 -180.256591 
L 274.777622 -177.5075 
L 273.756681 -174.758409 
L 272.816679 -172.009318 
L 271.955318 -169.260227 
L 271.169932 -166.511136 
L 270.457597 -163.762045 
L 269.815234 -161.012955 
L 269.239668 -158.263864 
L 268.727679 -155.514773 
L 268.276018 -152.765682 
L 267.881411 -150.016591 
L 267.54054 -147.2675 
L 267.250022 -144.518409 
L 267.006386 -141.769318 
L 266.806049 -139.020227 
L 266.645309 -136.271136 
L 266.520343 -133.522045 
L 266.427229 -130.772955 
L 266.36198 -128.023864 
L 266.320598 -125.274773 
L 266.299136 -122.525682 
L 266.293772 -119.776591 
L 266.300882 -117.0275 
L 266.317109 -114.278409 
L 266.339428 -111.529318 
L 266.365184 -108.780227 
L 266.392122 -106.031136 
L 266.418387 -103.282045 
L 266.442503 -100.532955 
L 266.463336 -97.783864 
L 266.48003 -95.034773 
L 266.491939 -92.285682 
L 266.498548 -89.536591 
L 266.499396 -86.7875 
L 266.494009 -84.038409 
L 266.48184 -81.289318 
L 266.462237 -78.540227 
L 266.434425 -75.791136 
L 266.397513 -73.042045 
L 266.350529 -70.292955 
L 266.292465 -67.543864 
L 266.222347 -64.794773 
L 266.139304 -62.045682 
L 266.04265 -59.296591 
L 265.931956 -56.5475 
z
" style="stroke: #000000; stroke-opacity: 0.6"/>
    </defs>
    <g clip-path="url(#p86c77a929c)">
     <use xlink:href="#mb1b31e280e" x="0" y="402.464375" style="fill: #38bcf5; fill-opacity: 0.6; stroke: #000000; stroke-opacity: 0.6"/>
    </g>
   </g>
   <g id="PolyCollection_2">
    <defs>
     <path id="me3140ead80" d="M 467.948138 -137.1875 
L 461.995328 -137.1875 
L 462.012941 -139.4275 
L 462.068507 -141.6675 
L 462.159222 -143.9075 
L 462.280738 -146.1475 
L 462.427353 -148.3875 
L 462.592279 -150.6275 
L 462.767928 -152.8675 
L 462.946215 -155.1075 
L 463.118837 -157.3475 
L 463.27752 -159.5875 
L 463.414204 -161.8275 
L 463.521176 -164.0675 
L 463.591143 -166.3075 
L 463.617254 -168.5475 
L 463.593084 -170.7875 
L 463.512595 -173.0275 
L 463.370091 -175.2675 
L 463.160165 -177.5075 
L 462.877672 -179.7475 
L 462.517705 -181.9875 
L 462.075583 -184.2275 
L 461.546852 -186.4675 
L 460.927276 -188.7075 
L 460.212828 -190.9475 
L 459.399657 -193.1875 
L 458.484048 -195.4275 
L 457.462365 -197.6675 
L 456.331012 -199.9075 
L 455.086405 -202.1475 
L 453.725009 -204.3875 
L 452.24345 -206.6275 
L 450.638748 -208.8675 
L 448.908675 -211.1075 
L 447.052276 -213.3475 
L 445.070526 -215.5875 
L 442.967124 -217.8275 
L 440.749368 -220.0675 
L 438.429057 -222.3075 
L 436.023337 -224.5475 
L 433.555383 -226.7875 
L 431.054846 -229.0275 
L 428.55794 -231.2675 
L 426.107103 -233.5075 
L 423.750182 -235.7475 
L 421.53912 -237.9875 
L 419.528175 -240.2275 
L 417.771744 -242.4675 
L 416.321908 -244.7075 
L 415.225853 -246.9475 
L 414.523348 -249.1875 
L 414.24446 -251.4275 
L 414.40769 -253.6675 
L 415.01868 -255.9075 
L 416.069596 -258.1475 
L 417.539257 -260.3875 
L 419.393989 -262.6275 
L 421.589161 -264.8675 
L 424.071272 -267.1075 
L 426.780454 -269.3475 
L 429.653196 -271.5875 
L 432.62511 -273.8275 
L 435.633554 -276.0675 
L 438.619972 -278.3075 
L 441.53181 -280.5475 
L 444.323946 -282.7875 
L 446.959601 -285.0275 
L 449.410721 -287.2675 
L 451.657895 -289.5075 
L 453.689863 -291.7475 
L 455.502704 -293.9875 
L 457.098806 -296.2275 
L 458.485701 -298.4675 
L 459.674858 -300.7075 
L 460.680511 -302.9475 
L 461.518568 -305.1875 
L 462.205663 -307.4275 
L 462.758363 -309.6675 
L 463.192551 -311.9075 
L 463.522987 -314.1475 
L 463.763032 -316.3875 
L 463.924538 -318.6275 
L 464.017861 -320.8675 
L 464.051992 -323.1075 
L 464.034766 -325.3475 
L 463.973127 -327.5875 
L 463.873422 -329.8275 
L 463.741689 -332.0675 
L 463.583911 -334.3075 
L 463.406224 -336.5475 
L 463.215042 -338.7875 
L 463.017107 -341.0275 
L 462.819433 -343.2675 
L 462.629178 -345.5075 
L 462.453422 -347.7475 
L 462.298901 -349.9875 
L 462.171705 -352.2275 
L 462.076968 -354.4675 
L 462.018599 -356.7075 
L 461.99906 -358.9475 
L 467.944406 -358.9475 
L 467.944406 -358.9475 
L 467.924867 -356.7075 
L 467.866498 -354.4675 
L 467.771761 -352.2275 
L 467.644564 -349.9875 
L 467.490044 -347.7475 
L 467.314288 -345.5075 
L 467.124033 -343.2675 
L 466.926359 -341.0275 
L 466.728424 -338.7875 
L 466.537242 -336.5475 
L 466.359555 -334.3075 
L 466.201777 -332.0675 
L 466.070044 -329.8275 
L 465.970339 -327.5875 
L 465.9087 -325.3475 
L 465.891474 -323.1075 
L 465.925605 -320.8675 
L 466.018928 -318.6275 
L 466.180434 -316.3875 
L 466.420479 -314.1475 
L 466.750915 -311.9075 
L 467.185103 -309.6675 
L 467.737803 -307.4275 
L 468.424898 -305.1875 
L 469.262955 -302.9475 
L 470.268608 -300.7075 
L 471.457765 -298.4675 
L 472.84466 -296.2275 
L 474.440762 -293.9875 
L 476.253603 -291.7475 
L 478.285571 -289.5075 
L 480.532745 -287.2675 
L 482.983865 -285.0275 
L 485.61952 -282.7875 
L 488.411656 -280.5475 
L 491.323494 -278.3075 
L 494.309912 -276.0675 
L 497.318356 -273.8275 
L 500.29027 -271.5875 
L 503.163012 -269.3475 
L 505.872194 -267.1075 
L 508.354305 -264.8675 
L 510.549477 -262.6275 
L 512.404209 -260.3875 
L 513.87387 -258.1475 
L 514.924786 -255.9075 
L 515.535776 -253.6675 
L 515.699006 -251.4275 
L 515.420118 -249.1875 
L 514.717613 -246.9475 
L 513.621558 -244.7075 
L 512.171722 -242.4675 
L 510.415291 -240.2275 
L 508.404346 -237.9875 
L 506.193284 -235.7475 
L 503.836363 -233.5075 
L 501.385526 -231.2675 
L 498.888619 -229.0275 
L 496.388083 -226.7875 
L 493.920129 -224.5475 
L 491.514409 -222.3075 
L 489.194098 -220.0675 
L 486.976342 -217.8275 
L 484.87294 -215.5875 
L 482.89119 -213.3475 
L 481.03479 -211.1075 
L 479.304718 -208.8675 
L 477.700016 -206.6275 
L 476.218457 -204.3875 
L 474.857061 -202.1475 
L 473.612454 -199.9075 
L 472.481101 -197.6675 
L 471.459418 -195.4275 
L 470.543809 -193.1875 
L 469.730638 -190.9475 
L 469.01619 -188.7075 
L 468.396614 -186.4675 
L 467.867883 -184.2275 
L 467.425761 -181.9875 
L 467.065793 -179.7475 
L 466.783301 -177.5075 
L 466.573375 -175.2675 
L 466.43087 -173.0275 
L 466.350382 -170.7875 
L 466.326212 -168.5475 
L 466.352323 -166.3075 
L 466.42229 -164.0675 
L 466.529262 -161.8275 
L 466.665946 -159.5875 
L 466.824629 -157.3475 
L 466.997251 -155.1075 
L 467.175538 -152.8675 
L 467.351187 -150.6275 
L 467.516113 -148.3875 
L 467.662728 -146.1475 
L 467.784244 -143.9075 
L 467.874959 -141.6675 
L 467.930524 -139.4275 
L 467.948138 -137.1875 
z
" style="stroke: #000000; stroke-opacity: 0.6"/>
    </defs>
    <g clip-path="url(#p86c77a929c)">
     <use xlink:href="#me3140ead80" x="0" y="402.464375" style="fill: #38f5a6; fill-opacity: 0.6; stroke: #000000; stroke-opacity: 0.6"/>
    </g>
   </g>
   <g id="matplotlib.axis_1">
    <g id="xtick_1">
     <g id="line2d_1">
      <defs>
       <path id="m3b904c422c" d="M 0 0 
L 0 3.5 
" style="stroke: #000000; stroke-width: 0.8"/>
      </defs>
      <g>
       <use xlink:href="#m3b904c422c" x="262.062642" y="361.036875" style="stroke: #000000; stroke-width: 0.8"/>
      </g>
     </g>
     <g id="text_1">
      <!-- Ctrl -->
      <g transform="translate(253.166548 375.635312) scale(0.1 -0.1)">
       <defs>
        <path id="DejaVuSans-43" d="M 4122 4306 
L 4122 3641 
Q 3803 3938 3442 4084 
Q 3081 4231 2675 4231 
Q 1875 4231 1450 3742 
Q 1025 3253 1025 2328 
Q 1025 1406 1450 917 
Q 1875 428 2675 428 
Q 3081 428 3442 575 
Q 3803 722 4122 1019 
L 4122 359 
Q 3791 134 3420 21 
Q 3050 -91 2638 -91 
Q 1578 -91 968 557 
Q 359 1206 359 2328 
Q 359 3453 968 4101 
Q 1578 4750 2638 4750 
Q 3056 4750 3426 4639 
Q 3797 4528 4122 4306 
z
" transform="scale(0.015625)"/>
        <path id="DejaVuSans-74" d="M 1172 4494 
L 1172 3500 
L 2356 3500 
L 2356 3053 
L 1172 3053 
L 1172 1153 
Q 1172 725 1289 603 
Q 1406 481 1766 481 
L 2356 481 
L 2356 0 
L 1766 0 
Q 1100 0 847 248 
Q 594 497 594 1153 
L 594 3053 
L 172 3053 
L 172 3500 
L 594 3500 
L 594 4494 
L 1172 4494 
z
" transform="scale(0.015625)"/>
        <path id="DejaVuSans-72" d="M 2631 2963 
Q 2534 3019 2420 3045 
Q 2306 3072 2169 3072 
Q 1681 3072 1420 2755 
Q 1159 2438 1159 1844 
L 1159 0 
L 581 0 
L 581 3500 
L 1159 3500 
L 1159 2956 
Q 1341 3275 1631 3429 
Q 1922 3584 2338 3584 
Q 2397 3584 2469 3576 
Q 2541 3569 2628 3553 
L 2631 2963 
z
" transform="scale(0.015625)"/>
        <path id="DejaVuSans-6c" d="M 603 4863 
L 1178 4863 
L 1178 0 
L 603 0 
L 603 4863 
z
" transform="scale(0.015625)"/>
       </defs>
       <use xlink:href="#DejaVuSans-43"/>
       <use xlink:href="#DejaVuSans-74" x="69.824219"/>
       <use xlink:href="#DejaVuSans-72" x="109.033203"/>
       <use xlink:href="#DejaVuSans-6c" x="150.146484"/>
      </g>
     </g>
    </g>
    <g id="xtick_2">
     <g id="line2d_2">
      <g>
       <use xlink:href="#m3b904c422c" x="464.971733" y="361.036875" style="stroke: #000000; stroke-width: 0.8"/>
      </g>
     </g>
     <g id="text_2">
      <!-- CASK -->
      <g transform="translate(451.606889 375.635312) scale(0.1 -0.1)">
       <defs>
        <path id="DejaVuSans-41" d="M 2188 4044 
L 1331 1722 
L 3047 1722 
L 2188 4044 
z
M 1831 4666 
L 2547 4666 
L 4325 0 
L 3669 0 
L 3244 1197 
L 1141 1197 
L 716 0 
L 50 0 
L 1831 4666 
z
" transform="scale(0.015625)"/>
        <path id="DejaVuSans-53" d="M 3425 4513 
L 3425 3897 
Q 3066 4069 2747 4153 
Q 2428 4238 2131 4238 
Q 1616 4238 1336 4038 
Q 1056 3838 1056 3469 
Q 1056 3159 1242 3001 
Q 1428 2844 1947 2747 
L 2328 2669 
Q 3034 2534 3370 2195 
Q 3706 1856 3706 1288 
Q 3706 609 3251 259 
Q 2797 -91 1919 -91 
Q 1588 -91 1214 -16 
Q 841 59 441 206 
L 441 856 
Q 825 641 1194 531 
Q 1563 422 1919 422 
Q 2459 422 2753 634 
Q 3047 847 3047 1241 
Q 3047 1584 2836 1778 
Q 2625 1972 2144 2069 
L 1759 2144 
Q 1053 2284 737 2584 
Q 422 2884 422 3419 
Q 422 4038 858 4394 
Q 1294 4750 2059 4750 
Q 2388 4750 2728 4690 
Q 3069 4631 3425 4513 
z
" transform="scale(0.015625)"/>
        <path id="DejaVuSans-4b" d="M 628 4666 
L 1259 4666 
L 1259 2694 
L 3353 4666 
L 4166 4666 
L 1850 2491 
L 4331 0 
L 3500 0 
L 1259 2247 
L 1259 0 
L 628 0 
L 628 4666 
z
" transform="scale(0.015625)"/>
       </defs>
       <use xlink:href="#DejaVuSans-43"/>
       <use xlink:href="#DejaVuSans-41" x="69.824219"/>
       <use xlink:href="#DejaVuSans-53" x="138.232422"/>
       <use xlink:href="#DejaVuSans-4b" x="201.708984"/>
      </g>
     </g>
    </g>
    <g id="text_3">
     <!-- Groups -->
     <g transform="translate(338.563281 392.352812) scale(0.14 -0.14)">
      <defs>
       <path id="DejaVuSans-47" d="M 3809 666 
L 3809 1919 
L 2778 1919 
L 2778 2438 
L 4434 2438 
L 4434 434 
Q 4069 175 3628 42 
Q 3188 -91 2688 -91 
Q 1594 -91 976 548 
Q 359 1188 359 2328 
Q 359 3472 976 4111 
Q 1594 4750 2688 4750 
Q 3144 4750 3555 4637 
Q 3966 4525 4313 4306 
L 4313 3634 
Q 3963 3931 3569 4081 
Q 3175 4231 2741 4231 
Q 1884 4231 1454 3753 
Q 1025 3275 1025 2328 
Q 1025 1384 1454 906 
Q 1884 428 2741 428 
Q 3075 428 3337 486 
Q 3600 544 3809 666 
z
" transform="scale(0.015625)"/>
       <path id="DejaVuSans-6f" d="M 1959 3097 
Q 1497 3097 1228 2736 
Q 959 2375 959 1747 
Q 959 1119 1226 758 
Q 1494 397 1959 397 
Q 2419 397 2687 759 
Q 2956 1122 2956 1747 
Q 2956 2369 2687 2733 
Q 2419 3097 1959 3097 
z
M 1959 3584 
Q 2709 3584 3137 3096 
Q 3566 2609 3566 1747 
Q 3566 888 3137 398 
Q 2709 -91 1959 -91 
Q 1206 -91 779 398 
Q 353 888 353 1747 
Q 353 2609 779 3096 
Q 1206 3584 1959 3584 
z
" transform="scale(0.015625)"/>
       <path id="DejaVuSans-75" d="M 544 1381 
L 544 3500 
L 1119 3500 
L 1119 1403 
Q 1119 906 1312 657 
Q 1506 409 1894 409 
Q 2359 409 2629 706 
Q 2900 1003 2900 1516 
L 2900 3500 
L 3475 3500 
L 3475 0 
L 2900 0 
L 2900 538 
Q 2691 219 2414 64 
Q 2138 -91 1772 -91 
Q 1169 -91 856 284 
Q 544 659 544 1381 
z
M 1991 3584 
L 1991 3584 
z
" transform="scale(0.015625)"/>
       <path id="DejaVuSans-70" d="M 1159 525 
L 1159 -1331 
L 581 -1331 
L 581 3500 
L 1159 3500 
L 1159 2969 
Q 1341 3281 1617 3432 
Q 1894 3584 2278 3584 
Q 2916 3584 3314 3078 
Q 3713 2572 3713 1747 
Q 3713 922 3314 415 
Q 2916 -91 2278 -91 
Q 1894 -91 1617 61 
Q 1341 213 1159 525 
z
M 3116 1747 
Q 3116 2381 2855 2742 
Q 2594 3103 2138 3103 
Q 1681 3103 1420 2742 
Q 1159 2381 1159 1747 
Q 1159 1113 1420 752 
Q 1681 391 2138 391 
Q 2594 391 2855 752 
Q 3116 1113 3116 1747 
z
" transform="scale(0.015625)"/>
       <path id="DejaVuSans-73" d="M 2834 3397 
L 2834 2853 
Q 2591 2978 2328 3040 
Q 2066 3103 1784 3103 
Q 1356 3103 1142 2972 
Q 928 2841 928 2578 
Q 928 2378 1081 2264 
Q 1234 2150 1697 2047 
L 1894 2003 
Q 2506 1872 2764 1633 
Q 3022 1394 3022 966 
Q 3022 478 2636 193 
Q 2250 -91 1575 -91 
Q 1294 -91 989 -36 
Q 684 19 347 128 
L 347 722 
Q 666 556 975 473 
Q 1284 391 1588 391 
Q 1994 391 2212 530 
Q 2431 669 2431 922 
Q 2431 1156 2273 1281 
Q 2116 1406 1581 1522 
L 1381 1569 
Q 847 1681 609 1914 
Q 372 2147 372 2553 
Q 372 3047 722 3315 
Q 1072 3584 1716 3584 
Q 2034 3584 2315 3537 
Q 2597 3491 2834 3397 
z
" transform="scale(0.015625)"/>
      </defs>
      <use xlink:href="#DejaVuSans-47"/>
      <use xlink:href="#DejaVuSans-72" x="77.490234"/>
      <use xlink:href="#DejaVuSans-6f" x="116.353516"/>
      <use xlink:href="#DejaVuSans-75" x="177.535156"/>
      <use xlink:href="#DejaVuSans-70" x="240.914062"/>
      <use xlink:href="#DejaVuSans-73" x="304.390625"/>
     </g>
    </g>
   </g>
   <g id="matplotlib.axis_2">
    <g id="ytick_1">
     <g id="line2d_3">
      <defs>
       <path id="m464bc6adae" d="M 0 0 
L -3.5 0 
" style="stroke: #000000; stroke-width: 0.8"/>
      </defs>
      <g>
       <use xlink:href="#m464bc6adae" x="196.117188" y="325.756875" style="stroke: #000000; stroke-width: 0.8"/>
      </g>
     </g>
     <g id="text_4">
      <!-- −0.20 -->
      <g transform="translate(158.471875 329.556094) scale(0.1 -0.1)">
       <defs>
        <path id="DejaVuSans-2212" d="M 678 2272 
L 4684 2272 
L 4684 1741 
L 678 1741 
L 678 2272 
z
" transform="scale(0.015625)"/>
        <path id="DejaVuSans-30" d="M 2034 4250 
Q 1547 4250 1301 3770 
Q 1056 3291 1056 2328 
Q 1056 1369 1301 889 
Q 1547 409 2034 409 
Q 2525 409 2770 889 
Q 3016 1369 3016 2328 
Q 3016 3291 2770 3770 
Q 2525 4250 2034 4250 
z
M 2034 4750 
Q 2819 4750 3233 4129 
Q 3647 3509 3647 2328 
Q 3647 1150 3233 529 
Q 2819 -91 2034 -91 
Q 1250 -91 836 529 
Q 422 1150 422 2328 
Q 422 3509 836 4129 
Q 1250 4750 2034 4750 
z
" transform="scale(0.015625)"/>
        <path id="DejaVuSans-2e" d="M 684 794 
L 1344 794 
L 1344 0 
L 684 0 
L 684 794 
z
" transform="scale(0.015625)"/>
        <path id="DejaVuSans-32" d="M 1228 531 
L 3431 531 
L 3431 0 
L 469 0 
L 469 531 
Q 828 903 1448 1529 
Q 2069 2156 2228 2338 
Q 2531 2678 2651 2914 
Q 2772 3150 2772 3378 
Q 2772 3750 2511 3984 
Q 2250 4219 1831 4219 
Q 1534 4219 1204 4116 
Q 875 4013 500 3803 
L 500 4441 
Q 881 4594 1212 4672 
Q 1544 4750 1819 4750 
Q 2544 4750 2975 4387 
Q 3406 4025 3406 3419 
Q 3406 3131 3298 2873 
Q 3191 2616 2906 2266 
Q 2828 2175 2409 1742 
Q 1991 1309 1228 531 
z
" transform="scale(0.015625)"/>
       </defs>
       <use xlink:href="#DejaVuSans-2212"/>
       <use xlink:href="#DejaVuSans-30" x="83.789062"/>
       <use xlink:href="#DejaVuSans-2e" x="147.412109"/>
       <use xlink:href="#DejaVuSans-32" x="179.199219"/>
       <use xlink:href="#DejaVuSans-30" x="242.822266"/>
      </g>
     </g>
    </g>
    <g id="ytick_2">
     <g id="line2d_4">
      <g>
       <use xlink:href="#m464bc6adae" x="196.117188" y="275.356875" style="stroke: #000000; stroke-width: 0.8"/>
      </g>
     </g>
     <g id="text_5">
      <!-- −0.15 -->
      <g transform="translate(158.471875 279.156094) scale(0.1 -0.1)">
       <defs>
        <path id="DejaVuSans-31" d="M 794 531 
L 1825 531 
L 1825 4091 
L 703 3866 
L 703 4441 
L 1819 4666 
L 2450 4666 
L 2450 531 
L 3481 531 
L 3481 0 
L 794 0 
L 794 531 
z
" transform="scale(0.015625)"/>
        <path id="DejaVuSans-35" d="M 691 4666 
L 3169 4666 
L 3169 4134 
L 1269 4134 
L 1269 2991 
Q 1406 3038 1543 3061 
Q 1681 3084 1819 3084 
Q 2600 3084 3056 2656 
Q 3513 2228 3513 1497 
Q 3513 744 3044 326 
Q 2575 -91 1722 -91 
Q 1428 -91 1123 -41 
Q 819 9 494 109 
L 494 744 
Q 775 591 1075 516 
Q 1375 441 1709 441 
Q 2250 441 2565 725 
Q 2881 1009 2881 1497 
Q 2881 1984 2565 2268 
Q 2250 2553 1709 2553 
Q 1456 2553 1204 2497 
Q 953 2441 691 2322 
L 691 4666 
z
" transform="scale(0.015625)"/>
       </defs>
       <use xlink:href="#DejaVuSans-2212"/>
       <use xlink:href="#DejaVuSans-30" x="83.789062"/>
       <use xlink:href="#DejaVuSans-2e" x="147.412109"/>
       <use xlink:href="#DejaVuSans-31" x="179.199219"/>
       <use xlink:href="#DejaVuSans-35" x="242.822266"/>
      </g>
     </g>
    </g>
    <g id="ytick_3">
     <g id="line2d_5">
      <g>
       <use xlink:href="#m464bc6adae" x="196.117188" y="224.956875" style="stroke: #000000; stroke-width: 0.8"/>
      </g>
     </g>
     <g id="text_6">
      <!-- −0.10 -->
      <g transform="translate(158.471875 228.756094) scale(0.1 -0.1)">
       <use xlink:href="#DejaVuSans-2212"/>
       <use xlink:href="#DejaVuSans-30" x="83.789062"/>
       <use xlink:href="#DejaVuSans-2e" x="147.412109"/>
       <use xlink:href="#DejaVuSans-31" x="179.199219"/>
       <use xlink:href="#DejaVuSans-30" x="242.822266"/>
      </g>
     </g>
    </g>
    <g id="ytick_4">
     <g id="line2d_6">
      <g>
       <use xlink:href="#m464bc6adae" x="196.117188" y="174.556875" style="stroke: #000000; stroke-width: 0.8"/>
      </g>
     </g>
     <g id="text_7">
      <!-- −0.05 -->
      <g transform="translate(158.471875 178.356094) scale(0.1 -0.1)">
       <use xlink:href="#DejaVuSans-2212"/>
       <use xlink:href="#DejaVuSans-30" x="83.789062"/>
       <use xlink:href="#DejaVuSans-2e" x="147.412109"/>
       <use xlink:href="#DejaVuSans-30" x="179.199219"/>
       <use xlink:href="#DejaVuSans-35" x="242.822266"/>
      </g>
     </g>
    </g>
    <g id="ytick_5">
     <g id="line2d_7">
      <g>
       <use xlink:href="#m464bc6adae" x="196.117188" y="124.156875" style="stroke: #000000; stroke-width: 0.8"/>
      </g>
     </g>
     <g id="text_8">
      <!-- 0.00 -->
      <g transform="translate(166.851563 127.956094) scale(0.1 -0.1)">
       <use xlink:href="#DejaVuSans-30"/>
       <use xlink:href="#DejaVuSans-2e" x="63.623047"/>
       <use xlink:href="#DejaVuSans-30" x="95.410156"/>
       <use xlink:href="#DejaVuSans-30" x="159.033203"/>
      </g>
     </g>
    </g>
    <g id="ytick_6">
     <g id="line2d_8">
      <g>
       <use xlink:href="#m464bc6adae" x="196.117188" y="73.756875" style="stroke: #000000; stroke-width: 0.8"/>
      </g>
     </g>
     <g id="text_9">
      <!-- 0.05 -->
      <g transform="translate(166.851563 77.556094) scale(0.1 -0.1)">
       <use xlink:href="#DejaVuSans-30"/>
       <use xlink:href="#DejaVuSans-2e" x="63.623047"/>
       <use xlink:href="#DejaVuSans-30" x="95.410156"/>
       <use xlink:href="#DejaVuSans-35" x="159.033203"/>
      </g>
     </g>
    </g>
    <g id="text_10">
     <!-- Retrieval Time Best-fit Line Slope () -->
     <g transform="translate(151.560313 318.727344) rotate(-90) scale(0.14 -0.14)">
      <defs>
       <path id="DejaVuSans-52" d="M 2841 2188 
Q 3044 2119 3236 1894 
Q 3428 1669 3622 1275 
L 4263 0 
L 3584 0 
L 2988 1197 
Q 2756 1666 2539 1819 
Q 2322 1972 1947 1972 
L 1259 1972 
L 1259 0 
L 628 0 
L 628 4666 
L 2053 4666 
Q 2853 4666 3247 4331 
Q 3641 3997 3641 3322 
Q 3641 2881 3436 2590 
Q 3231 2300 2841 2188 
z
M 1259 4147 
L 1259 2491 
L 2053 2491 
Q 2509 2491 2742 2702 
Q 2975 2913 2975 3322 
Q 2975 3731 2742 3939 
Q 2509 4147 2053 4147 
L 1259 4147 
z
" transform="scale(0.015625)"/>
       <path id="DejaVuSans-65" d="M 3597 1894 
L 3597 1613 
L 953 1613 
Q 991 1019 1311 708 
Q 1631 397 2203 397 
Q 2534 397 2845 478 
Q 3156 559 3463 722 
L 3463 178 
Q 3153 47 2828 -22 
Q 2503 -91 2169 -91 
Q 1331 -91 842 396 
Q 353 884 353 1716 
Q 353 2575 817 3079 
Q 1281 3584 2069 3584 
Q 2775 3584 3186 3129 
Q 3597 2675 3597 1894 
z
M 3022 2063 
Q 3016 2534 2758 2815 
Q 2500 3097 2075 3097 
Q 1594 3097 1305 2825 
Q 1016 2553 972 2059 
L 3022 2063 
z
" transform="scale(0.015625)"/>
       <path id="DejaVuSans-69" d="M 603 3500 
L 1178 3500 
L 1178 0 
L 603 0 
L 603 3500 
z
M 603 4863 
L 1178 4863 
L 1178 4134 
L 603 4134 
L 603 4863 
z
" transform="scale(0.015625)"/>
       <path id="DejaVuSans-76" d="M 191 3500 
L 800 3500 
L 1894 563 
L 2988 3500 
L 3597 3500 
L 2284 0 
L 1503 0 
L 191 3500 
z
" transform="scale(0.015625)"/>
       <path id="DejaVuSans-61" d="M 2194 1759 
Q 1497 1759 1228 1600 
Q 959 1441 959 1056 
Q 959 750 1161 570 
Q 1363 391 1709 391 
Q 2188 391 2477 730 
Q 2766 1069 2766 1631 
L 2766 1759 
L 2194 1759 
z
M 3341 1997 
L 3341 0 
L 2766 0 
L 2766 531 
Q 2569 213 2275 61 
Q 1981 -91 1556 -91 
Q 1019 -91 701 211 
Q 384 513 384 1019 
Q 384 1609 779 1909 
Q 1175 2209 1959 2209 
L 2766 2209 
L 2766 2266 
Q 2766 2663 2505 2880 
Q 2244 3097 1772 3097 
Q 1472 3097 1187 3025 
Q 903 2953 641 2809 
L 641 3341 
Q 956 3463 1253 3523 
Q 1550 3584 1831 3584 
Q 2591 3584 2966 3190 
Q 3341 2797 3341 1997 
z
" transform="scale(0.015625)"/>
       <path id="DejaVuSans-20" transform="scale(0.015625)"/>
       <path id="DejaVuSans-54" d="M -19 4666 
L 3928 4666 
L 3928 4134 
L 2272 4134 
L 2272 0 
L 1638 0 
L 1638 4134 
L -19 4134 
L -19 4666 
z
" transform="scale(0.015625)"/>
       <path id="DejaVuSans-6d" d="M 3328 2828 
Q 3544 3216 3844 3400 
Q 4144 3584 4550 3584 
Q 5097 3584 5394 3201 
Q 5691 2819 5691 2113 
L 5691 0 
L 5113 0 
L 5113 2094 
Q 5113 2597 4934 2840 
Q 4756 3084 4391 3084 
Q 3944 3084 3684 2787 
Q 3425 2491 3425 1978 
L 3425 0 
L 2847 0 
L 2847 2094 
Q 2847 2600 2669 2842 
Q 2491 3084 2119 3084 
Q 1678 3084 1418 2786 
Q 1159 2488 1159 1978 
L 1159 0 
L 581 0 
L 581 3500 
L 1159 3500 
L 1159 2956 
Q 1356 3278 1631 3431 
Q 1906 3584 2284 3584 
Q 2666 3584 2933 3390 
Q 3200 3197 3328 2828 
z
" transform="scale(0.015625)"/>
       <path id="DejaVuSans-42" d="M 1259 2228 
L 1259 519 
L 2272 519 
Q 2781 519 3026 730 
Q 3272 941 3272 1375 
Q 3272 1813 3026 2020 
Q 2781 2228 2272 2228 
L 1259 2228 
z
M 1259 4147 
L 1259 2741 
L 2194 2741 
Q 2656 2741 2882 2914 
Q 3109 3088 3109 3444 
Q 3109 3797 2882 3972 
Q 2656 4147 2194 4147 
L 1259 4147 
z
M 628 4666 
L 2241 4666 
Q 2963 4666 3353 4366 
Q 3744 4066 3744 3513 
Q 3744 3084 3544 2831 
Q 3344 2578 2956 2516 
Q 3422 2416 3680 2098 
Q 3938 1781 3938 1306 
Q 3938 681 3513 340 
Q 3088 0 2303 0 
L 628 0 
L 628 4666 
z
" transform="scale(0.015625)"/>
       <path id="DejaVuSans-2d" d="M 313 2009 
L 1997 2009 
L 1997 1497 
L 313 1497 
L 313 2009 
z
" transform="scale(0.015625)"/>
       <path id="DejaVuSans-66" d="M 2375 4863 
L 2375 4384 
L 1825 4384 
Q 1516 4384 1395 4259 
Q 1275 4134 1275 3809 
L 1275 3500 
L 2222 3500 
L 2222 3053 
L 1275 3053 
L 1275 0 
L 697 0 
L 697 3053 
L 147 3053 
L 147 3500 
L 697 3500 
L 697 3744 
Q 697 4328 969 4595 
Q 1241 4863 1831 4863 
L 2375 4863 
z
" transform="scale(0.015625)"/>
       <path id="DejaVuSans-4c" d="M 628 4666 
L 1259 4666 
L 1259 531 
L 3531 531 
L 3531 0 
L 628 0 
L 628 4666 
z
" transform="scale(0.015625)"/>
       <path id="DejaVuSans-6e" d="M 3513 2113 
L 3513 0 
L 2938 0 
L 2938 2094 
Q 2938 2591 2744 2837 
Q 2550 3084 2163 3084 
Q 1697 3084 1428 2787 
Q 1159 2491 1159 1978 
L 1159 0 
L 581 0 
L 581 3500 
L 1159 3500 
L 1159 2956 
Q 1366 3272 1645 3428 
Q 1925 3584 2291 3584 
Q 2894 3584 3203 3211 
Q 3513 2838 3513 2113 
z
" transform="scale(0.015625)"/>
       <path id="DejaVuSans-28" d="M 1984 4856 
Q 1566 4138 1362 3434 
Q 1159 2731 1159 2009 
Q 1159 1288 1364 580 
Q 1569 -128 1984 -844 
L 1484 -844 
Q 1016 -109 783 600 
Q 550 1309 550 2009 
Q 550 2706 781 3412 
Q 1013 4119 1484 4856 
L 1984 4856 
z
" transform="scale(0.015625)"/>
       <path id="DejaVuSans-29" d="M 513 4856 
L 1013 4856 
Q 1481 4119 1714 3412 
Q 1947 2706 1947 2009 
Q 1947 1309 1714 600 
Q 1481 -109 1013 -844 
L 513 -844 
Q 928 -128 1133 580 
Q 1338 1288 1338 2009 
Q 1338 2731 1133 3434 
Q 928 4138 513 4856 
z
" transform="scale(0.015625)"/>
      </defs>
      <use xlink:href="#DejaVuSans-52"/>
      <use xlink:href="#DejaVuSans-65" x="64.982422"/>
      <use xlink:href="#DejaVuSans-74" x="126.505859"/>
      <use xlink:href="#DejaVuSans-72" x="165.714844"/>
      <use xlink:href="#DejaVuSans-69" x="206.828125"/>
      <use xlink:href="#DejaVuSans-65" x="234.611328"/>
      <use xlink:href="#DejaVuSans-76" x="296.134766"/>
      <use xlink:href="#DejaVuSans-61" x="355.314453"/>
      <use xlink:href="#DejaVuSans-6c" x="416.59375"/>
      <use xlink:href="#DejaVuSans-20" x="444.376953"/>
      <use xlink:href="#DejaVuSans-54" x="476.164062"/>
      <use xlink:href="#DejaVuSans-69" x="534.123047"/>
      <use xlink:href="#DejaVuSans-6d" x="561.90625"/>
      <use xlink:href="#DejaVuSans-65" x="659.318359"/>
      <use xlink:href="#DejaVuSans-20" x="720.841797"/>
      <use xlink:href="#DejaVuSans-42" x="752.628906"/>
      <use xlink:href="#DejaVuSans-65" x="821.232422"/>
      <use xlink:href="#DejaVuSans-73" x="882.755859"/>
      <use xlink:href="#DejaVuSans-74" x="934.855469"/>
      <use xlink:href="#DejaVuSans-2d" x="974.064453"/>
      <use xlink:href="#DejaVuSans-66" x="1010.148438"/>
      <use xlink:href="#DejaVuSans-69" x="1045.353516"/>
      <use xlink:href="#DejaVuSans-74" x="1073.136719"/>
      <use xlink:href="#DejaVuSans-20" x="1112.345703"/>
      <use xlink:href="#DejaVuSans-4c" x="1144.132812"/>
      <use xlink:href="#DejaVuSans-69" x="1199.845703"/>
      <use xlink:href="#DejaVuSans-6e" x="1227.628906"/>
      <use xlink:href="#DejaVuSans-65" x="1291.007812"/>
      <use xlink:href="#DejaVuSans-20" x="1352.53125"/>
      <use xlink:href="#DejaVuSans-53" x="1384.318359"/>
      <use xlink:href="#DejaVuSans-6c" x="1447.794922"/>
      <use xlink:href="#DejaVuSans-6f" x="1475.578125"/>
      <use xlink:href="#DejaVuSans-70" x="1536.759766"/>
      <use xlink:href="#DejaVuSans-65" x="1600.236328"/>
      <use xlink:href="#DejaVuSans-20" x="1661.759766"/>
      <use xlink:href="#DejaVuSans-28" x="1693.546875"/>
      <use xlink:href="#DejaVuSans-29" x="1732.560547"/>
     </g>
    </g>
   </g>
   <g id="patch_3">
    <path d="M 196.117188 361.036875 
L 196.117188 28.396875 
" style="fill: none; stroke: #000000; stroke-width: 0.8; stroke-linejoin: miter; stroke-linecap: square"/>
   </g>
   <g id="patch_4">
    <path d="M 530.917187 361.036875 
L 530.917187 28.396875 
" style="fill: none; stroke: #000000; stroke-width: 0.8; stroke-linejoin: miter; stroke-linecap: square"/>
   </g>
   <g id="patch_5">
    <path d="M 196.117188 361.036875 
L 530.917187 361.036875 
" style="fill: none; stroke: #000000; stroke-width: 0.8; stroke-linejoin: miter; stroke-linecap: square"/>
   </g>
   <g id="patch_6">
    <path d="M 196.117188 28.396875 
L 530.917187 28.396875 
" style="fill: none; stroke: #000000; stroke-width: 0.8; stroke-linejoin: miter; stroke-linecap: square"/>
   </g>
   <g id="PathCollection_1">
    <defs>
     <path id="m8b9531f293" d="M 0 3 
C 0.795609 3 1.55874 2.683901 2.12132 2.12132 
C 2.683901 1.55874 3 0.795609 3 0 
C 3 -0.795609 2.683901 -1.55874 2.12132 -2.12132 
C 1.55874 -2.683901 0.795609 -3 0 -3 
C -0.795609 -3 -1.55874 -2.683901 -2.12132 -2.12132 
C -2.683901 -1.55874 -3 -0.795609 -3 0 
C -3 0.795609 -2.683901 1.55874 -2.12132 2.12132 
C -1.55874 2.683901 -0.795609 3 0 3 
z
" style="stroke: #18c1f5; stroke-opacity: 0.8"/>
    </defs>
    <g clip-path="url(#p86c77a929c)">
     <use xlink:href="#m8b9531f293" x="252.289265" y="345.916875" style="fill: #18c1f5; fill-opacity: 0.8; stroke: #18c1f5; stroke-opacity: 0.8"/>
     <use xlink:href="#m8b9531f293" x="262.392458" y="144.316875" style="fill: #18c1f5; fill-opacity: 0.8; stroke: #18c1f5; stroke-opacity: 0.8"/>
     <use xlink:href="#m8b9531f293" x="253.798653" y="114.076875" style="fill: #18c1f5; fill-opacity: 0.8; stroke: #18c1f5; stroke-opacity: 0.8"/>
     <use xlink:href="#m8b9531f293" x="264.833963" y="184.636875" style="fill: #18c1f5; fill-opacity: 0.8; stroke: #18c1f5; stroke-opacity: 0.8"/>
     <use xlink:href="#m8b9531f293" x="255.663769" y="144.316875" style="fill: #18c1f5; fill-opacity: 0.8; stroke: #18c1f5; stroke-opacity: 0.8"/>
     <use xlink:href="#m8b9531f293" x="256.474652" y="174.556875" style="fill: #18c1f5; fill-opacity: 0.8; stroke: #18c1f5; stroke-opacity: 0.8"/>
     <use xlink:href="#m8b9531f293" x="256.507126" y="174.556875" style="fill: #18c1f5; fill-opacity: 0.8; stroke: #18c1f5; stroke-opacity: 0.8"/>
     <use xlink:href="#m8b9531f293" x="268.062791" y="164.476875" style="fill: #18c1f5; fill-opacity: 0.8; stroke: #18c1f5; stroke-opacity: 0.8"/>
     <use xlink:href="#m8b9531f293" x="254.533619" y="134.236875" style="fill: #18c1f5; fill-opacity: 0.8; stroke: #18c1f5; stroke-opacity: 0.8"/>
     <use xlink:href="#m8b9531f293" x="261.000725" y="73.756875" style="fill: #18c1f5; fill-opacity: 0.8; stroke: #18c1f5; stroke-opacity: 0.8"/>
     <use xlink:href="#m8b9531f293" x="252.219915" y="134.236875" style="fill: #18c1f5; fill-opacity: 0.8; stroke: #18c1f5; stroke-opacity: 0.8"/>
     <use xlink:href="#m8b9531f293" x="259.348739" y="204.796875" style="fill: #18c1f5; fill-opacity: 0.8; stroke: #18c1f5; stroke-opacity: 0.8"/>
     <use xlink:href="#m8b9531f293" x="265.269327" y="164.476875" style="fill: #18c1f5; fill-opacity: 0.8; stroke: #18c1f5; stroke-opacity: 0.8"/>
     <use xlink:href="#m8b9531f293" x="250.555217" y="144.316875" style="fill: #18c1f5; fill-opacity: 0.8; stroke: #18c1f5; stroke-opacity: 0.8"/>
     <use xlink:href="#m8b9531f293" x="264.858749" y="295.516875" style="fill: #18c1f5; fill-opacity: 0.8; stroke: #18c1f5; stroke-opacity: 0.8"/>
     <use xlink:href="#m8b9531f293" x="255.890757" y="114.076875" style="fill: #18c1f5; fill-opacity: 0.8; stroke: #18c1f5; stroke-opacity: 0.8"/>
     <use xlink:href="#m8b9531f293" x="262.611392" y="235.036875" style="fill: #18c1f5; fill-opacity: 0.8; stroke: #18c1f5; stroke-opacity: 0.8"/>
     <use xlink:href="#m8b9531f293" x="256.27164" y="144.316875" style="fill: #18c1f5; fill-opacity: 0.8; stroke: #18c1f5; stroke-opacity: 0.8"/>
     <use xlink:href="#m8b9531f293" x="272.952682" y="154.396875" style="fill: #18c1f5; fill-opacity: 0.8; stroke: #18c1f5; stroke-opacity: 0.8"/>
     <use xlink:href="#m8b9531f293" x="264.858809" y="103.996875" style="fill: #18c1f5; fill-opacity: 0.8; stroke: #18c1f5; stroke-opacity: 0.8"/>
     <use xlink:href="#m8b9531f293" x="258.596264" y="154.396875" style="fill: #18c1f5; fill-opacity: 0.8; stroke: #18c1f5; stroke-opacity: 0.8"/>
     <use xlink:href="#m8b9531f293" x="273.051456" y="174.556875" style="fill: #18c1f5; fill-opacity: 0.8; stroke: #18c1f5; stroke-opacity: 0.8"/>
     <use xlink:href="#m8b9531f293" x="269.175717" y="124.156875" style="fill: #18c1f5; fill-opacity: 0.8; stroke: #18c1f5; stroke-opacity: 0.8"/>
     <use xlink:href="#m8b9531f293" x="269.666938" y="194.716875" style="fill: #18c1f5; fill-opacity: 0.8; stroke: #18c1f5; stroke-opacity: 0.8"/>
     <use xlink:href="#m8b9531f293" x="252.860687" y="144.316875" style="fill: #18c1f5; fill-opacity: 0.8; stroke: #18c1f5; stroke-opacity: 0.8"/>
     <use xlink:href="#m8b9531f293" x="250.29544" y="124.156875" style="fill: #18c1f5; fill-opacity: 0.8; stroke: #18c1f5; stroke-opacity: 0.8"/>
    </g>
   </g>
   <g id="PathCollection_2">
    <defs>
     <path id="m3c832d8139" d="M 0 3 
C 0.795609 3 1.55874 2.683901 2.12132 2.12132 
C 2.683901 1.55874 3 0.795609 3 0 
C 3 -0.795609 2.683901 -1.55874 2.12132 -2.12132 
C 1.55874 -2.683901 0.795609 -3 0 -3 
C -0.795609 -3 -1.55874 -2.683901 -2.12132 -2.12132 
C -2.683901 -1.55874 -3 -0.795609 -3 0 
C -3 0.795609 -2.683901 1.55874 -2.12132 2.12132 
C -1.55874 2.683901 -0.795609 3 0 3 
z
" style="stroke: #36d15a; stroke-opacity: 0.8"/>
    </defs>
    <g clip-path="url(#p86c77a929c)">
     <use xlink:href="#m3c832d8139" x="474.499008" y="164.476875" style="fill: #36d15a; fill-opacity: 0.8; stroke: #36d15a; stroke-opacity: 0.8"/>
     <use xlink:href="#m3c832d8139" x="465.299593" y="144.316875" style="fill: #36d15a; fill-opacity: 0.8; stroke: #36d15a; stroke-opacity: 0.8"/>
     <use xlink:href="#m3c832d8139" x="459.633532" y="144.316875" style="fill: #36d15a; fill-opacity: 0.8; stroke: #36d15a; stroke-opacity: 0.8"/>
     <use xlink:href="#m3c832d8139" x="462.625128" y="154.396875" style="fill: #36d15a; fill-opacity: 0.8; stroke: #36d15a; stroke-opacity: 0.8"/>
     <use xlink:href="#m3c832d8139" x="455.469156" y="124.156875" style="fill: #36d15a; fill-opacity: 0.8; stroke: #36d15a; stroke-opacity: 0.8"/>
     <use xlink:href="#m3c832d8139" x="472.174043" y="154.396875" style="fill: #36d15a; fill-opacity: 0.8; stroke: #36d15a; stroke-opacity: 0.8"/>
     <use xlink:href="#m3c832d8139" x="461.580063" y="184.636875" style="fill: #36d15a; fill-opacity: 0.8; stroke: #36d15a; stroke-opacity: 0.8"/>
     <use xlink:href="#m3c832d8139" x="460.95254" y="174.556875" style="fill: #36d15a; fill-opacity: 0.8; stroke: #36d15a; stroke-opacity: 0.8"/>
     <use xlink:href="#m3c832d8139" x="460.274378" y="154.396875" style="fill: #36d15a; fill-opacity: 0.8; stroke: #36d15a; stroke-opacity: 0.8"/>
     <use xlink:href="#m3c832d8139" x="475.883935" y="174.556875" style="fill: #36d15a; fill-opacity: 0.8; stroke: #36d15a; stroke-opacity: 0.8"/>
     <use xlink:href="#m3c832d8139" x="476.362947" y="134.236875" style="fill: #36d15a; fill-opacity: 0.8; stroke: #36d15a; stroke-opacity: 0.8"/>
     <use xlink:href="#m3c832d8139" x="456.588372" y="144.316875" style="fill: #36d15a; fill-opacity: 0.8; stroke: #36d15a; stroke-opacity: 0.8"/>
     <use xlink:href="#m3c832d8139" x="459.505572" y="194.716875" style="fill: #36d15a; fill-opacity: 0.8; stroke: #36d15a; stroke-opacity: 0.8"/>
     <use xlink:href="#m3c832d8139" x="455.747377" y="154.396875" style="fill: #36d15a; fill-opacity: 0.8; stroke: #36d15a; stroke-opacity: 0.8"/>
     <use xlink:href="#m3c832d8139" x="467.861034" y="144.316875" style="fill: #36d15a; fill-opacity: 0.8; stroke: #36d15a; stroke-opacity: 0.8"/>
     <use xlink:href="#m3c832d8139" x="471.962884" y="144.316875" style="fill: #36d15a; fill-opacity: 0.8; stroke: #36d15a; stroke-opacity: 0.8"/>
     <use xlink:href="#m3c832d8139" x="473.747074" y="144.316875" style="fill: #36d15a; fill-opacity: 0.8; stroke: #36d15a; stroke-opacity: 0.8"/>
     <use xlink:href="#m3c832d8139" x="455.833377" y="144.316875" style="fill: #36d15a; fill-opacity: 0.8; stroke: #36d15a; stroke-opacity: 0.8"/>
     <use xlink:href="#m3c832d8139" x="459.849039" y="134.236875" style="fill: #36d15a; fill-opacity: 0.8; stroke: #36d15a; stroke-opacity: 0.8"/>
     <use xlink:href="#m3c832d8139" x="474.831418" y="43.516875" style="fill: #36d15a; fill-opacity: 0.8; stroke: #36d15a; stroke-opacity: 0.8"/>
     <use xlink:href="#m3c832d8139" x="470.725728" y="154.396875" style="fill: #36d15a; fill-opacity: 0.8; stroke: #36d15a; stroke-opacity: 0.8"/>
     <use xlink:href="#m3c832d8139" x="456.021107" y="164.476875" style="fill: #36d15a; fill-opacity: 0.8; stroke: #36d15a; stroke-opacity: 0.8"/>
     <use xlink:href="#m3c832d8139" x="474.66684" y="154.396875" style="fill: #36d15a; fill-opacity: 0.8; stroke: #36d15a; stroke-opacity: 0.8"/>
     <use xlink:href="#m3c832d8139" x="462.283659" y="265.276875" style="fill: #36d15a; fill-opacity: 0.8; stroke: #36d15a; stroke-opacity: 0.8"/>
    </g>
   </g>
   <g id="text_11">
    <!-- Retrieval Time Best-fit Line Slope Distribution for Ctrl and CASK Groups -->
    <g transform="translate(7.2 22.396875) scale(0.2 -0.2)">
     <defs>
      <path id="DejaVuSans-44" d="M 1259 4147 
L 1259 519 
L 2022 519 
Q 2988 519 3436 956 
Q 3884 1394 3884 2338 
Q 3884 3275 3436 3711 
Q 2988 4147 2022 4147 
L 1259 4147 
z
M 628 4666 
L 1925 4666 
Q 3281 4666 3915 4102 
Q 4550 3538 4550 2338 
Q 4550 1131 3912 565 
Q 3275 0 1925 0 
L 628 0 
L 628 4666 
z
" transform="scale(0.015625)"/>
      <path id="DejaVuSans-62" d="M 3116 1747 
Q 3116 2381 2855 2742 
Q 2594 3103 2138 3103 
Q 1681 3103 1420 2742 
Q 1159 2381 1159 1747 
Q 1159 1113 1420 752 
Q 1681 391 2138 391 
Q 2594 391 2855 752 
Q 3116 1113 3116 1747 
z
M 1159 2969 
Q 1341 3281 1617 3432 
Q 1894 3584 2278 3584 
Q 2916 3584 3314 3078 
Q 3713 2572 3713 1747 
Q 3713 922 3314 415 
Q 2916 -91 2278 -91 
Q 1894 -91 1617 61 
Q 1341 213 1159 525 
L 1159 0 
L 581 0 
L 581 4863 
L 1159 4863 
L 1159 2969 
z
" transform="scale(0.015625)"/>
      <path id="DejaVuSans-64" d="M 2906 2969 
L 2906 4863 
L 3481 4863 
L 3481 0 
L 2906 0 
L 2906 525 
Q 2725 213 2448 61 
Q 2172 -91 1784 -91 
Q 1150 -91 751 415 
Q 353 922 353 1747 
Q 353 2572 751 3078 
Q 1150 3584 1784 3584 
Q 2172 3584 2448 3432 
Q 2725 3281 2906 2969 
z
M 947 1747 
Q 947 1113 1208 752 
Q 1469 391 1925 391 
Q 2381 391 2643 752 
Q 2906 1113 2906 1747 
Q 2906 2381 2643 2742 
Q 2381 3103 1925 3103 
Q 1469 3103 1208 2742 
Q 947 2381 947 1747 
z
" transform="scale(0.015625)"/>
     </defs>
     <use xlink:href="#DejaVuSans-52"/>
     <use xlink:href="#DejaVuSans-65" x="64.982422"/>
     <use xlink:href="#DejaVuSans-74" x="126.505859"/>
     <use xlink:href="#DejaVuSans-72" x="165.714844"/>
     <use xlink:href="#DejaVuSans-69" x="206.828125"/>
     <use xlink:href="#DejaVuSans-65" x="234.611328"/>
     <use xlink:href="#DejaVuSans-76" x="296.134766"/>
     <use xlink:href="#DejaVuSans-61" x="355.314453"/>
     <use xlink:href="#DejaVuSans-6c" x="416.59375"/>
     <use xlink:href="#DejaVuSans-20" x="444.376953"/>
     <use xlink:href="#DejaVuSans-54" x="476.164062"/>
     <use xlink:href="#DejaVuSans-69" x="534.123047"/>
     <use xlink:href="#DejaVuSans-6d" x="561.90625"/>
     <use xlink:href="#DejaVuSans-65" x="659.318359"/>
     <use xlink:href="#DejaVuSans-20" x="720.841797"/>
     <use xlink:href="#DejaVuSans-42" x="752.628906"/>
     <use xlink:href="#DejaVuSans-65" x="821.232422"/>
     <use xlink:href="#DejaVuSans-73" x="882.755859"/>
     <use xlink:href="#DejaVuSans-74" x="934.855469"/>
     <use xlink:href="#DejaVuSans-2d" x="974.064453"/>
     <use xlink:href="#DejaVuSans-66" x="1010.148438"/>
     <use xlink:href="#DejaVuSans-69" x="1045.353516"/>
     <use xlink:href="#DejaVuSans-74" x="1073.136719"/>
     <use xlink:href="#DejaVuSans-20" x="1112.345703"/>
     <use xlink:href="#DejaVuSans-4c" x="1144.132812"/>
     <use xlink:href="#DejaVuSans-69" x="1199.845703"/>
     <use xlink:href="#DejaVuSans-6e" x="1227.628906"/>
     <use xlink:href="#DejaVuSans-65" x="1291.007812"/>
     <use xlink:href="#DejaVuSans-20" x="1352.53125"/>
     <use xlink:href="#DejaVuSans-53" x="1384.318359"/>
     <use xlink:href="#DejaVuSans-6c" x="1447.794922"/>
     <use xlink:href="#DejaVuSans-6f" x="1475.578125"/>
     <use xlink:href="#DejaVuSans-70" x="1536.759766"/>
     <use xlink:href="#DejaVuSans-65" x="1600.236328"/>
     <use xlink:href="#DejaVuSans-20" x="1661.759766"/>
     <use xlink:href="#DejaVuSans-44" x="1693.546875"/>
     <use xlink:href="#DejaVuSans-69" x="1770.548828"/>
     <use xlink:href="#DejaVuSans-73" x="1798.332031"/>
     <use xlink:href="#DejaVuSans-74" x="1850.431641"/>
     <use xlink:href="#DejaVuSans-72" x="1889.640625"/>
     <use xlink:href="#DejaVuSans-69" x="1930.753906"/>
     <use xlink:href="#DejaVuSans-62" x="1958.537109"/>
     <use xlink:href="#DejaVuSans-75" x="2022.013672"/>
     <use xlink:href="#DejaVuSans-74" x="2085.392578"/>
     <use xlink:href="#DejaVuSans-69" x="2124.601562"/>
     <use xlink:href="#DejaVuSans-6f" x="2152.384766"/>
     <use xlink:href="#DejaVuSans-6e" x="2213.566406"/>
     <use xlink:href="#DejaVuSans-20" x="2276.945312"/>
     <use xlink:href="#DejaVuSans-66" x="2308.732422"/>
     <use xlink:href="#DejaVuSans-6f" x="2343.9375"/>
     <use xlink:href="#DejaVuSans-72" x="2405.119141"/>
     <use xlink:href="#DejaVuSans-20" x="2446.232422"/>
     <use xlink:href="#DejaVuSans-43" x="2478.019531"/>
     <use xlink:href="#DejaVuSans-74" x="2547.84375"/>
     <use xlink:href="#DejaVuSans-72" x="2587.052734"/>
     <use xlink:href="#DejaVuSans-6c" x="2628.166016"/>
     <use xlink:href="#DejaVuSans-20" x="2655.949219"/>
     <use xlink:href="#DejaVuSans-61" x="2687.736328"/>
     <use xlink:href="#DejaVuSans-6e" x="2749.015625"/>
     <use xlink:href="#DejaVuSans-64" x="2812.394531"/>
     <use xlink:href="#DejaVuSans-20" x="2875.871094"/>
     <use xlink:href="#DejaVuSans-43" x="2907.658203"/>
     <use xlink:href="#DejaVuSans-41" x="2977.482422"/>
     <use xlink:href="#DejaVuSans-53" x="3045.890625"/>
     <use xlink:href="#DejaVuSans-4b" x="3109.367188"/>
     <use xlink:href="#DejaVuSans-20" x="3174.943359"/>
     <use xlink:href="#DejaVuSans-47" x="3206.730469"/>
     <use xlink:href="#DejaVuSans-72" x="3284.220703"/>
     <use xlink:href="#DejaVuSans-6f" x="3323.083984"/>
     <use xlink:href="#DejaVuSans-75" x="3384.265625"/>
     <use xlink:href="#DejaVuSans-70" x="3447.644531"/>
     <use xlink:href="#DejaVuSans-73" x="3511.121094"/>
    </g>
   </g>
   <g id="legend_1">
    <g id="patch_7">
     <path d="M 203.117188 65.753125 
L 306.626563 65.753125 
Q 308.626563 65.753125 308.626563 63.753125 
L 308.626563 35.396875 
Q 308.626563 33.396875 306.626563 33.396875 
L 203.117188 33.396875 
Q 201.117188 33.396875 201.117188 35.396875 
L 201.117188 63.753125 
Q 201.117188 65.753125 203.117188 65.753125 
z
" style="fill: #ffffff; opacity: 0.8; stroke: #cccccc; stroke-linejoin: miter"/>
    </g>
    <g id="patch_8">
     <path d="M 205.117188 44.995312 
L 225.117188 44.995312 
L 225.117188 37.995312 
L 205.117188 37.995312 
z
" style="fill: #38bcf5; opacity: 0.6; stroke: #38bcf5; stroke-linejoin: miter"/>
    </g>
    <g id="text_12">
     <!-- Ctrl (n = 26) -->
     <g transform="translate(233.117188 44.995312) scale(0.1 -0.1)">
      <defs>
       <path id="DejaVuSans-3d" d="M 678 2906 
L 4684 2906 
L 4684 2381 
L 678 2381 
L 678 2906 
z
M 678 1631 
L 4684 1631 
L 4684 1100 
L 678 1100 
L 678 1631 
z
" transform="scale(0.015625)"/>
       <path id="DejaVuSans-36" d="M 2113 2584 
Q 1688 2584 1439 2293 
Q 1191 2003 1191 1497 
Q 1191 994 1439 701 
Q 1688 409 2113 409 
Q 2538 409 2786 701 
Q 3034 994 3034 1497 
Q 3034 2003 2786 2293 
Q 2538 2584 2113 2584 
z
M 3366 4563 
L 3366 3988 
Q 3128 4100 2886 4159 
Q 2644 4219 2406 4219 
Q 1781 4219 1451 3797 
Q 1122 3375 1075 2522 
Q 1259 2794 1537 2939 
Q 1816 3084 2150 3084 
Q 2853 3084 3261 2657 
Q 3669 2231 3669 1497 
Q 3669 778 3244 343 
Q 2819 -91 2113 -91 
Q 1303 -91 875 529 
Q 447 1150 447 2328 
Q 447 3434 972 4092 
Q 1497 4750 2381 4750 
Q 2619 4750 2861 4703 
Q 3103 4656 3366 4563 
z
" transform="scale(0.015625)"/>
      </defs>
      <use xlink:href="#DejaVuSans-43"/>
      <use xlink:href="#DejaVuSans-74" x="69.824219"/>
      <use xlink:href="#DejaVuSans-72" x="109.033203"/>
      <use xlink:href="#DejaVuSans-6c" x="150.146484"/>
      <use xlink:href="#DejaVuSans-20" x="177.929688"/>
      <use xlink:href="#DejaVuSans-28" x="209.716797"/>
      <use xlink:href="#DejaVuSans-6e" x="248.730469"/>
      <use xlink:href="#DejaVuSans-20" x="312.109375"/>
      <use xlink:href="#DejaVuSans-3d" x="343.896484"/>
      <use xlink:href="#DejaVuSans-20" x="427.685547"/>
      <use xlink:href="#DejaVuSans-32" x="459.472656"/>
      <use xlink:href="#DejaVuSans-36" x="523.095703"/>
      <use xlink:href="#DejaVuSans-29" x="586.71875"/>
     </g>
    </g>
    <g id="patch_9">
     <path d="M 205.117188 59.673437 
L 225.117188 59.673437 
L 225.117188 52.673437 
L 205.117188 52.673437 
z
" style="fill: #38f5a6; opacity: 0.6; stroke: #38f5a6; stroke-linejoin: miter"/>
    </g>
    <g id="text_13">
     <!-- CASK (n = 24) -->
     <g transform="translate(233.117188 59.673437) scale(0.1 -0.1)">
      <defs>
       <path id="DejaVuSans-34" d="M 2419 4116 
L 825 1625 
L 2419 1625 
L 2419 4116 
z
M 2253 4666 
L 3047 4666 
L 3047 1625 
L 3713 1625 
L 3713 1100 
L 3047 1100 
L 3047 0 
L 2419 0 
L 2419 1100 
L 313 1100 
L 313 1709 
L 2253 4666 
z
" transform="scale(0.015625)"/>
      </defs>
      <use xlink:href="#DejaVuSans-43"/>
      <use xlink:href="#DejaVuSans-41" x="69.824219"/>
      <use xlink:href="#DejaVuSans-53" x="138.232422"/>
      <use xlink:href="#DejaVuSans-4b" x="201.708984"/>
      <use xlink:href="#DejaVuSans-20" x="267.285156"/>
      <use xlink:href="#DejaVuSans-28" x="299.072266"/>
      <use xlink:href="#DejaVuSans-6e" x="338.085938"/>
      <use xlink:href="#DejaVuSans-20" x="401.464844"/>
      <use xlink:href="#DejaVuSans-3d" x="433.251953"/>
      <use xlink:href="#DejaVuSans-20" x="517.041016"/>
      <use xlink:href="#DejaVuSans-32" x="548.828125"/>
      <use xlink:href="#DejaVuSans-34" x="612.451172"/>
      <use xlink:href="#DejaVuSans-29" x="676.074219"/>
     </g>
    </g>
   </g>
  </g>
 </g>
 <defs>
  <clipPath id="p86c77a929c">
   <rect x="196.117188" y="28.396875" width="334.8" height="332.64"/>
  </clipPath>
 </defs>
</svg>
