<?xml version="1.0" encoding="utf-8" standalone="no"?>
<!DOCTYPE svg PUBLIC "-//W3C//DTD SVG 1.1//EN"
  "http://www.w3.org/Graphics/SVG/1.1/DTD/svg11.dtd">
<svg xmlns:xlink="http://www.w3.org/1999/xlink" width="552.0875pt" height="402.464375pt" viewBox="0 0 552.0875 402.464375" xmlns="http://www.w3.org/2000/svg" version="1.1">
 <metadata>
  <rdf:RDF xmlns:dc="http://purl.org/dc/elements/1.1/" xmlns:cc="http://creativecommons.org/ns#" xmlns:rdf="http://www.w3.org/1999/02/22-rdf-syntax-ns#">
   <cc:Work>
    <dc:type rdf:resource="http://purl.org/dc/dcmitype/StillImage"/>
    <dc:date>2025-07-29T18:08:32.536954</dc:date>
    <dc:format>image/svg+xml</dc:format>
    <dc:creator>
     <cc:Agent>
      <dc:title>Matplotlib v3.8.4, https://matplotlib.org/</dc:title>
     </cc:Agent>
    </dc:creator>
   </cc:Work>
  </rdf:RDF>
 </metadata>
 <defs>
  <style type="text/css">*{stroke-linejoin: round; stroke-linecap: butt}</style>
 </defs>
 <g id="figure_1">
  <g id="patch_1">
   <path d="M 0 402.464375 
L 552.0875 402.464375 
L 552.0875 0 
L 0 0 
z
" style="fill: #ffffff"/>
  </g>
  <g id="axes_1">
   <g id="patch_2">
    <path d="M 108.64375 361.036875 
L 443.44375 361.036875 
L 443.44375 28.396875 
L 108.64375 28.396875 
z
" style="fill: #ffffff"/>
   </g>
   <g id="PolyCollection_1">
    <defs>
     <path id="mdc5330e711" d="M 288.117217 -56.5475 
L 263.970283 -56.5475 
L 263.532376 -59.602045 
L 263.115453 -62.656591 
L 262.721013 -65.711136 
L 262.350089 -68.765682 
L 262.003207 -71.820227 
L 261.680352 -74.874773 
L 261.380936 -77.929318 
L 261.103784 -80.983864 
L 260.847125 -84.038409 
L 260.608597 -87.092955 
L 260.385264 -90.1475 
L 260.173644 -93.202045 
L 259.969748 -96.256591 
L 259.769137 -99.311136 
L 259.566978 -102.365682 
L 259.358123 -105.420227 
L 259.137194 -108.474773 
L 258.898667 -111.529318 
L 258.636981 -114.583864 
L 258.346633 -117.638409 
L 258.022289 -120.692955 
L 257.658893 -123.7475 
L 257.251769 -126.802045 
L 256.796731 -129.856591 
L 256.290177 -132.911136 
L 255.729181 -135.965682 
L 255.111571 -139.020227 
L 254.435998 -142.074773 
L 253.701989 -145.129318 
L 252.909982 -148.183864 
L 252.061346 -151.238409 
L 251.158383 -154.292955 
L 250.204305 -157.3475 
L 249.2032 -160.402045 
L 248.159969 -163.456591 
L 247.080254 -166.511136 
L 245.970342 -169.565682 
L 244.837056 -172.620227 
L 243.687635 -175.674773 
L 242.529602 -178.729318 
L 241.370626 -181.783864 
L 240.218381 -184.838409 
L 239.080405 -187.892955 
L 237.963965 -190.9475 
L 236.875929 -194.002045 
L 235.82265 -197.056591 
L 234.809867 -200.111136 
L 233.842624 -203.165682 
L 232.925205 -206.220227 
L 232.061099 -209.274773 
L 231.252987 -212.329318 
L 230.502746 -215.383864 
L 229.811485 -218.438409 
L 229.179601 -221.492955 
L 228.606851 -224.5475 
L 228.092448 -227.602045 
L 227.635165 -230.656591 
L 227.233456 -233.711136 
L 226.885572 -236.765682 
L 226.589694 -239.820227 
L 226.344048 -242.874773 
L 226.147021 -245.929318 
L 225.997264 -248.983864 
L 225.893777 -252.038409 
L 225.835978 -255.092955 
L 225.82375 -258.1475 
L 225.857466 -261.202045 
L 225.937986 -264.256591 
L 226.066639 -267.311136 
L 226.245173 -270.365682 
L 226.47569 -273.420227 
L 226.76056 -276.474773 
L 227.10232 -279.529318 
L 227.503565 -282.583864 
L 227.966826 -285.638409 
L 228.494446 -288.692955 
L 229.088466 -291.7475 
L 229.750504 -294.802045 
L 230.481653 -297.856591 
L 231.282391 -300.911136 
L 232.152506 -303.965682 
L 233.091038 -307.020227 
L 234.096252 -310.074773 
L 235.165619 -313.129318 
L 236.295826 -316.183864 
L 237.48281 -319.238409 
L 238.721808 -322.292955 
L 240.007423 -325.3475 
L 241.333706 -328.402045 
L 242.694255 -331.456591 
L 244.08232 -334.511136 
L 245.490909 -337.565682 
L 246.912902 -340.620227 
L 248.341164 -343.674773 
L 249.768651 -346.729318 
L 251.188509 -349.783864 
L 252.594167 -352.838409 
L 253.979418 -355.892955 
L 255.338488 -358.9475 
L 296.749012 -358.9475 
L 296.749012 -358.9475 
L 298.108082 -355.892955 
L 299.493333 -352.838409 
L 300.898991 -349.783864 
L 302.318849 -346.729318 
L 303.746336 -343.674773 
L 305.174598 -340.620227 
L 306.596591 -337.565682 
L 308.00518 -334.511136 
L 309.393245 -331.456591 
L 310.753794 -328.402045 
L 312.080077 -325.3475 
L 313.365692 -322.292955 
L 314.60469 -319.238409 
L 315.791674 -316.183864 
L 316.921881 -313.129318 
L 317.991248 -310.074773 
L 318.996462 -307.020227 
L 319.934994 -303.965682 
L 320.805109 -300.911136 
L 321.605847 -297.856591 
L 322.336996 -294.802045 
L 322.999034 -291.7475 
L 323.593054 -288.692955 
L 324.120674 -285.638409 
L 324.583935 -282.583864 
L 324.98518 -279.529318 
L 325.32694 -276.474773 
L 325.61181 -273.420227 
L 325.842327 -270.365682 
L 326.020861 -267.311136 
L 326.149514 -264.256591 
L 326.230034 -261.202045 
L 326.26375 -258.1475 
L 326.251522 -255.092955 
L 326.193723 -252.038409 
L 326.090236 -248.983864 
L 325.940479 -245.929318 
L 325.743452 -242.874773 
L 325.497806 -239.820227 
L 325.201928 -236.765682 
L 324.854044 -233.711136 
L 324.452335 -230.656591 
L 323.995052 -227.602045 
L 323.480649 -224.5475 
L 322.907899 -221.492955 
L 322.276015 -218.438409 
L 321.584754 -215.383864 
L 320.834513 -212.329318 
L 320.026401 -209.274773 
L 319.162295 -206.220227 
L 318.244876 -203.165682 
L 317.277633 -200.111136 
L 316.26485 -197.056591 
L 315.211571 -194.002045 
L 314.123535 -190.9475 
L 313.007095 -187.892955 
L 311.869119 -184.838409 
L 310.716874 -181.783864 
L 309.557898 -178.729318 
L 308.399865 -175.674773 
L 307.250444 -172.620227 
L 306.117158 -169.565682 
L 305.007246 -166.511136 
L 303.927531 -163.456591 
L 302.8843 -160.402045 
L 301.883195 -157.3475 
L 300.929117 -154.292955 
L 300.026154 -151.238409 
L 299.177518 -148.183864 
L 298.385511 -145.129318 
L 297.651502 -142.074773 
L 296.975929 -139.020227 
L 296.358319 -135.965682 
L 295.797323 -132.911136 
L 295.290769 -129.856591 
L 294.835731 -126.802045 
L 294.428607 -123.7475 
L 294.065211 -120.692955 
L 293.740867 -117.638409 
L 293.450519 -114.583864 
L 293.188833 -111.529318 
L 292.950306 -108.474773 
L 292.729377 -105.420227 
L 292.520522 -102.365682 
L 292.318363 -99.311136 
L 292.117752 -96.256591 
L 291.913856 -93.202045 
L 291.702236 -90.1475 
L 291.478903 -87.092955 
L 291.240375 -84.038409 
L 290.983716 -80.983864 
L 290.706564 -77.929318 
L 290.407148 -74.874773 
L 290.084293 -71.820227 
L 289.737411 -68.765682 
L 289.366487 -65.711136 
L 288.972047 -62.656591 
L 288.555124 -59.602045 
L 288.117217 -56.5475 
z
" style="stroke: #000000; stroke-opacity: 0.6"/>
    </defs>
    <g clip-path="url(#p1797a3d299)">
     <use xlink:href="#mdc5330e711" x="0" y="402.464375" style="fill: #38bcf5; fill-opacity: 0.6; stroke: #000000; stroke-opacity: 0.6"/>
    </g>
   </g>
   <g id="matplotlib.axis_1">
    <g id="xtick_1">
     <g id="line2d_1">
      <defs>
       <path id="m4ed3ce7ae9" d="M 0 0 
L 0 3.5 
" style="stroke: #000000; stroke-width: 0.8"/>
      </defs>
      <g>
       <use xlink:href="#m4ed3ce7ae9" x="276.04375" y="361.036875" style="stroke: #000000; stroke-width: 0.8"/>
      </g>
     </g>
     <g id="text_1">
      <!-- Female -->
      <g transform="translate(257.966406 375.635312) scale(0.1 -0.1)">
       <defs>
        <path id="DejaVuSans-46" d="M 628 4666 
L 3309 4666 
L 3309 4134 
L 1259 4134 
L 1259 2759 
L 3109 2759 
L 3109 2228 
L 1259 2228 
L 1259 0 
L 628 0 
L 628 4666 
z
" transform="scale(0.015625)"/>
        <path id="DejaVuSans-65" d="M 3597 1894 
L 3597 1613 
L 953 1613 
Q 991 1019 1311 708 
Q 1631 397 2203 397 
Q 2534 397 2845 478 
Q 3156 559 3463 722 
L 3463 178 
Q 3153 47 2828 -22 
Q 2503 -91 2169 -91 
Q 1331 -91 842 396 
Q 353 884 353 1716 
Q 353 2575 817 3079 
Q 1281 3584 2069 3584 
Q 2775 3584 3186 3129 
Q 3597 2675 3597 1894 
z
M 3022 2063 
Q 3016 2534 2758 2815 
Q 2500 3097 2075 3097 
Q 1594 3097 1305 2825 
Q 1016 2553 972 2059 
L 3022 2063 
z
" transform="scale(0.015625)"/>
        <path id="DejaVuSans-6d" d="M 3328 2828 
Q 3544 3216 3844 3400 
Q 4144 3584 4550 3584 
Q 5097 3584 5394 3201 
Q 5691 2819 5691 2113 
L 5691 0 
L 5113 0 
L 5113 2094 
Q 5113 2597 4934 2840 
Q 4756 3084 4391 3084 
Q 3944 3084 3684 2787 
Q 3425 2491 3425 1978 
L 3425 0 
L 2847 0 
L 2847 2094 
Q 2847 2600 2669 2842 
Q 2491 3084 2119 3084 
Q 1678 3084 1418 2786 
Q 1159 2488 1159 1978 
L 1159 0 
L 581 0 
L 581 3500 
L 1159 3500 
L 1159 2956 
Q 1356 3278 1631 3431 
Q 1906 3584 2284 3584 
Q 2666 3584 2933 3390 
Q 3200 3197 3328 2828 
z
" transform="scale(0.015625)"/>
        <path id="DejaVuSans-61" d="M 2194 1759 
Q 1497 1759 1228 1600 
Q 959 1441 959 1056 
Q 959 750 1161 570 
Q 1363 391 1709 391 
Q 2188 391 2477 730 
Q 2766 1069 2766 1631 
L 2766 1759 
L 2194 1759 
z
M 3341 1997 
L 3341 0 
L 2766 0 
L 2766 531 
Q 2569 213 2275 61 
Q 1981 -91 1556 -91 
Q 1019 -91 701 211 
Q 384 513 384 1019 
Q 384 1609 779 1909 
Q 1175 2209 1959 2209 
L 2766 2209 
L 2766 2266 
Q 2766 2663 2505 2880 
Q 2244 3097 1772 3097 
Q 1472 3097 1187 3025 
Q 903 2953 641 2809 
L 641 3341 
Q 956 3463 1253 3523 
Q 1550 3584 1831 3584 
Q 2591 3584 2966 3190 
Q 3341 2797 3341 1997 
z
" transform="scale(0.015625)"/>
        <path id="DejaVuSans-6c" d="M 603 4863 
L 1178 4863 
L 1178 0 
L 603 0 
L 603 4863 
z
" transform="scale(0.015625)"/>
       </defs>
       <use xlink:href="#DejaVuSans-46"/>
       <use xlink:href="#DejaVuSans-65" x="52.019531"/>
       <use xlink:href="#DejaVuSans-6d" x="113.542969"/>
       <use xlink:href="#DejaVuSans-61" x="210.955078"/>
       <use xlink:href="#DejaVuSans-6c" x="272.234375"/>
       <use xlink:href="#DejaVuSans-65" x="300.017578"/>
      </g>
     </g>
    </g>
    <g id="text_2">
     <!-- Groups -->
     <g transform="translate(251.089844 392.352812) scale(0.14 -0.14)">
      <defs>
       <path id="DejaVuSans-47" d="M 3809 666 
L 3809 1919 
L 2778 1919 
L 2778 2438 
L 4434 2438 
L 4434 434 
Q 4069 175 3628 42 
Q 3188 -91 2688 -91 
Q 1594 -91 976 548 
Q 359 1188 359 2328 
Q 359 3472 976 4111 
Q 1594 4750 2688 4750 
Q 3144 4750 3555 4637 
Q 3966 4525 4313 4306 
L 4313 3634 
Q 3963 3931 3569 4081 
Q 3175 4231 2741 4231 
Q 1884 4231 1454 3753 
Q 1025 3275 1025 2328 
Q 1025 1384 1454 906 
Q 1884 428 2741 428 
Q 3075 428 3337 486 
Q 3600 544 3809 666 
z
" transform="scale(0.015625)"/>
       <path id="DejaVuSans-72" d="M 2631 2963 
Q 2534 3019 2420 3045 
Q 2306 3072 2169 3072 
Q 1681 3072 1420 2755 
Q 1159 2438 1159 1844 
L 1159 0 
L 581 0 
L 581 3500 
L 1159 3500 
L 1159 2956 
Q 1341 3275 1631 3429 
Q 1922 3584 2338 3584 
Q 2397 3584 2469 3576 
Q 2541 3569 2628 3553 
L 2631 2963 
z
" transform="scale(0.015625)"/>
       <path id="DejaVuSans-6f" d="M 1959 3097 
Q 1497 3097 1228 2736 
Q 959 2375 959 1747 
Q 959 1119 1226 758 
Q 1494 397 1959 397 
Q 2419 397 2687 759 
Q 2956 1122 2956 1747 
Q 2956 2369 2687 2733 
Q 2419 3097 1959 3097 
z
M 1959 3584 
Q 2709 3584 3137 3096 
Q 3566 2609 3566 1747 
Q 3566 888 3137 398 
Q 2709 -91 1959 -91 
Q 1206 -91 779 398 
Q 353 888 353 1747 
Q 353 2609 779 3096 
Q 1206 3584 1959 3584 
z
" transform="scale(0.015625)"/>
       <path id="DejaVuSans-75" d="M 544 1381 
L 544 3500 
L 1119 3500 
L 1119 1403 
Q 1119 906 1312 657 
Q 1506 409 1894 409 
Q 2359 409 2629 706 
Q 2900 1003 2900 1516 
L 2900 3500 
L 3475 3500 
L 3475 0 
L 2900 0 
L 2900 538 
Q 2691 219 2414 64 
Q 2138 -91 1772 -91 
Q 1169 -91 856 284 
Q 544 659 544 1381 
z
M 1991 3584 
L 1991 3584 
z
" transform="scale(0.015625)"/>
       <path id="DejaVuSans-70" d="M 1159 525 
L 1159 -1331 
L 581 -1331 
L 581 3500 
L 1159 3500 
L 1159 2969 
Q 1341 3281 1617 3432 
Q 1894 3584 2278 3584 
Q 2916 3584 3314 3078 
Q 3713 2572 3713 1747 
Q 3713 922 3314 415 
Q 2916 -91 2278 -91 
Q 1894 -91 1617 61 
Q 1341 213 1159 525 
z
M 3116 1747 
Q 3116 2381 2855 2742 
Q 2594 3103 2138 3103 
Q 1681 3103 1420 2742 
Q 1159 2381 1159 1747 
Q 1159 1113 1420 752 
Q 1681 391 2138 391 
Q 2594 391 2855 752 
Q 3116 1113 3116 1747 
z
" transform="scale(0.015625)"/>
       <path id="DejaVuSans-73" d="M 2834 3397 
L 2834 2853 
Q 2591 2978 2328 3040 
Q 2066 3103 1784 3103 
Q 1356 3103 1142 2972 
Q 928 2841 928 2578 
Q 928 2378 1081 2264 
Q 1234 2150 1697 2047 
L 1894 2003 
Q 2506 1872 2764 1633 
Q 3022 1394 3022 966 
Q 3022 478 2636 193 
Q 2250 -91 1575 -91 
Q 1294 -91 989 -36 
Q 684 19 347 128 
L 347 722 
Q 666 556 975 473 
Q 1284 391 1588 391 
Q 1994 391 2212 530 
Q 2431 669 2431 922 
Q 2431 1156 2273 1281 
Q 2116 1406 1581 1522 
L 1381 1569 
Q 847 1681 609 1914 
Q 372 2147 372 2553 
Q 372 3047 722 3315 
Q 1072 3584 1716 3584 
Q 2034 3584 2315 3537 
Q 2597 3491 2834 3397 
z
" transform="scale(0.015625)"/>
      </defs>
      <use xlink:href="#DejaVuSans-47"/>
      <use xlink:href="#DejaVuSans-72" x="77.490234"/>
      <use xlink:href="#DejaVuSans-6f" x="116.353516"/>
      <use xlink:href="#DejaVuSans-75" x="177.535156"/>
      <use xlink:href="#DejaVuSans-70" x="240.914062"/>
      <use xlink:href="#DejaVuSans-73" x="304.390625"/>
     </g>
    </g>
   </g>
   <g id="matplotlib.axis_2">
    <g id="ytick_1">
     <g id="line2d_2">
      <defs>
       <path id="m6448ebf4b7" d="M 0 0 
L -3.5 0 
" style="stroke: #000000; stroke-width: 0.8"/>
      </defs>
      <g>
       <use xlink:href="#m6448ebf4b7" x="108.64375" y="330.157152" style="stroke: #000000; stroke-width: 0.8"/>
      </g>
     </g>
     <g id="text_3">
      <!-- 0.3 -->
      <g transform="translate(85.740625 333.95637) scale(0.1 -0.1)">
       <defs>
        <path id="DejaVuSans-30" d="M 2034 4250 
Q 1547 4250 1301 3770 
Q 1056 3291 1056 2328 
Q 1056 1369 1301 889 
Q 1547 409 2034 409 
Q 2525 409 2770 889 
Q 3016 1369 3016 2328 
Q 3016 3291 2770 3770 
Q 2525 4250 2034 4250 
z
M 2034 4750 
Q 2819 4750 3233 4129 
Q 3647 3509 3647 2328 
Q 3647 1150 3233 529 
Q 2819 -91 2034 -91 
Q 1250 -91 836 529 
Q 422 1150 422 2328 
Q 422 3509 836 4129 
Q 1250 4750 2034 4750 
z
" transform="scale(0.015625)"/>
        <path id="DejaVuSans-2e" d="M 684 794 
L 1344 794 
L 1344 0 
L 684 0 
L 684 794 
z
" transform="scale(0.015625)"/>
        <path id="DejaVuSans-33" d="M 2597 2516 
Q 3050 2419 3304 2112 
Q 3559 1806 3559 1356 
Q 3559 666 3084 287 
Q 2609 -91 1734 -91 
Q 1441 -91 1130 -33 
Q 819 25 488 141 
L 488 750 
Q 750 597 1062 519 
Q 1375 441 1716 441 
Q 2309 441 2620 675 
Q 2931 909 2931 1356 
Q 2931 1769 2642 2001 
Q 2353 2234 1838 2234 
L 1294 2234 
L 1294 2753 
L 1863 2753 
Q 2328 2753 2575 2939 
Q 2822 3125 2822 3475 
Q 2822 3834 2567 4026 
Q 2313 4219 1838 4219 
Q 1578 4219 1281 4162 
Q 984 4106 628 3988 
L 628 4550 
Q 988 4650 1302 4700 
Q 1616 4750 1894 4750 
Q 2613 4750 3031 4423 
Q 3450 4097 3450 3541 
Q 3450 3153 3228 2886 
Q 3006 2619 2597 2516 
z
" transform="scale(0.015625)"/>
       </defs>
       <use xlink:href="#DejaVuSans-30"/>
       <use xlink:href="#DejaVuSans-2e" x="63.623047"/>
       <use xlink:href="#DejaVuSans-33" x="95.410156"/>
      </g>
     </g>
    </g>
    <g id="ytick_2">
     <g id="line2d_3">
      <g>
       <use xlink:href="#m6448ebf4b7" x="108.64375" y="265.813832" style="stroke: #000000; stroke-width: 0.8"/>
      </g>
     </g>
     <g id="text_4">
      <!-- 0.4 -->
      <g transform="translate(85.740625 269.613051) scale(0.1 -0.1)">
       <defs>
        <path id="DejaVuSans-34" d="M 2419 4116 
L 825 1625 
L 2419 1625 
L 2419 4116 
z
M 2253 4666 
L 3047 4666 
L 3047 1625 
L 3713 1625 
L 3713 1100 
L 3047 1100 
L 3047 0 
L 2419 0 
L 2419 1100 
L 313 1100 
L 313 1709 
L 2253 4666 
z
" transform="scale(0.015625)"/>
       </defs>
       <use xlink:href="#DejaVuSans-30"/>
       <use xlink:href="#DejaVuSans-2e" x="63.623047"/>
       <use xlink:href="#DejaVuSans-34" x="95.410156"/>
      </g>
     </g>
    </g>
    <g id="ytick_3">
     <g id="line2d_4">
      <g>
       <use xlink:href="#m6448ebf4b7" x="108.64375" y="201.470513" style="stroke: #000000; stroke-width: 0.8"/>
      </g>
     </g>
     <g id="text_5">
      <!-- 0.5 -->
      <g transform="translate(85.740625 205.269732) scale(0.1 -0.1)">
       <defs>
        <path id="DejaVuSans-35" d="M 691 4666 
L 3169 4666 
L 3169 4134 
L 1269 4134 
L 1269 2991 
Q 1406 3038 1543 3061 
Q 1681 3084 1819 3084 
Q 2600 3084 3056 2656 
Q 3513 2228 3513 1497 
Q 3513 744 3044 326 
Q 2575 -91 1722 -91 
Q 1428 -91 1123 -41 
Q 819 9 494 109 
L 494 744 
Q 775 591 1075 516 
Q 1375 441 1709 441 
Q 2250 441 2565 725 
Q 2881 1009 2881 1497 
Q 2881 1984 2565 2268 
Q 2250 2553 1709 2553 
Q 1456 2553 1204 2497 
Q 953 2441 691 2322 
L 691 4666 
z
" transform="scale(0.015625)"/>
       </defs>
       <use xlink:href="#DejaVuSans-30"/>
       <use xlink:href="#DejaVuSans-2e" x="63.623047"/>
       <use xlink:href="#DejaVuSans-35" x="95.410156"/>
      </g>
     </g>
    </g>
    <g id="ytick_4">
     <g id="line2d_5">
      <g>
       <use xlink:href="#m6448ebf4b7" x="108.64375" y="137.127193" style="stroke: #000000; stroke-width: 0.8"/>
      </g>
     </g>
     <g id="text_6">
      <!-- 0.6 -->
      <g transform="translate(85.740625 140.926412) scale(0.1 -0.1)">
       <defs>
        <path id="DejaVuSans-36" d="M 2113 2584 
Q 1688 2584 1439 2293 
Q 1191 2003 1191 1497 
Q 1191 994 1439 701 
Q 1688 409 2113 409 
Q 2538 409 2786 701 
Q 3034 994 3034 1497 
Q 3034 2003 2786 2293 
Q 2538 2584 2113 2584 
z
M 3366 4563 
L 3366 3988 
Q 3128 4100 2886 4159 
Q 2644 4219 2406 4219 
Q 1781 4219 1451 3797 
Q 1122 3375 1075 2522 
Q 1259 2794 1537 2939 
Q 1816 3084 2150 3084 
Q 2853 3084 3261 2657 
Q 3669 2231 3669 1497 
Q 3669 778 3244 343 
Q 2819 -91 2113 -91 
Q 1303 -91 875 529 
Q 447 1150 447 2328 
Q 447 3434 972 4092 
Q 1497 4750 2381 4750 
Q 2619 4750 2861 4703 
Q 3103 4656 3366 4563 
z
" transform="scale(0.015625)"/>
       </defs>
       <use xlink:href="#DejaVuSans-30"/>
       <use xlink:href="#DejaVuSans-2e" x="63.623047"/>
       <use xlink:href="#DejaVuSans-36" x="95.410156"/>
      </g>
     </g>
    </g>
    <g id="ytick_5">
     <g id="line2d_6">
      <g>
       <use xlink:href="#m6448ebf4b7" x="108.64375" y="72.783874" style="stroke: #000000; stroke-width: 0.8"/>
      </g>
     </g>
     <g id="text_7">
      <!-- 0.7 -->
      <g transform="translate(85.740625 76.583093) scale(0.1 -0.1)">
       <defs>
        <path id="DejaVuSans-37" d="M 525 4666 
L 3525 4666 
L 3525 4397 
L 1831 0 
L 1172 0 
L 2766 4134 
L 525 4134 
L 525 4666 
z
" transform="scale(0.015625)"/>
       </defs>
       <use xlink:href="#DejaVuSans-30"/>
       <use xlink:href="#DejaVuSans-2e" x="63.623047"/>
       <use xlink:href="#DejaVuSans-37" x="95.410156"/>
      </g>
     </g>
    </g>
    <g id="text_8">
     <!-- 1st Meal and Block Time Ratio (%) -->
     <g transform="translate(78.829062 314.801875) rotate(-90) scale(0.14 -0.14)">
      <defs>
       <path id="DejaVuSans-31" d="M 794 531 
L 1825 531 
L 1825 4091 
L 703 3866 
L 703 4441 
L 1819 4666 
L 2450 4666 
L 2450 531 
L 3481 531 
L 3481 0 
L 794 0 
L 794 531 
z
" transform="scale(0.015625)"/>
       <path id="DejaVuSans-74" d="M 1172 4494 
L 1172 3500 
L 2356 3500 
L 2356 3053 
L 1172 3053 
L 1172 1153 
Q 1172 725 1289 603 
Q 1406 481 1766 481 
L 2356 481 
L 2356 0 
L 1766 0 
Q 1100 0 847 248 
Q 594 497 594 1153 
L 594 3053 
L 172 3053 
L 172 3500 
L 594 3500 
L 594 4494 
L 1172 4494 
z
" transform="scale(0.015625)"/>
       <path id="DejaVuSans-20" transform="scale(0.015625)"/>
       <path id="DejaVuSans-4d" d="M 628 4666 
L 1569 4666 
L 2759 1491 
L 3956 4666 
L 4897 4666 
L 4897 0 
L 4281 0 
L 4281 4097 
L 3078 897 
L 2444 897 
L 1241 4097 
L 1241 0 
L 628 0 
L 628 4666 
z
" transform="scale(0.015625)"/>
       <path id="DejaVuSans-6e" d="M 3513 2113 
L 3513 0 
L 2938 0 
L 2938 2094 
Q 2938 2591 2744 2837 
Q 2550 3084 2163 3084 
Q 1697 3084 1428 2787 
Q 1159 2491 1159 1978 
L 1159 0 
L 581 0 
L 581 3500 
L 1159 3500 
L 1159 2956 
Q 1366 3272 1645 3428 
Q 1925 3584 2291 3584 
Q 2894 3584 3203 3211 
Q 3513 2838 3513 2113 
z
" transform="scale(0.015625)"/>
       <path id="DejaVuSans-64" d="M 2906 2969 
L 2906 4863 
L 3481 4863 
L 3481 0 
L 2906 0 
L 2906 525 
Q 2725 213 2448 61 
Q 2172 -91 1784 -91 
Q 1150 -91 751 415 
Q 353 922 353 1747 
Q 353 2572 751 3078 
Q 1150 3584 1784 3584 
Q 2172 3584 2448 3432 
Q 2725 3281 2906 2969 
z
M 947 1747 
Q 947 1113 1208 752 
Q 1469 391 1925 391 
Q 2381 391 2643 752 
Q 2906 1113 2906 1747 
Q 2906 2381 2643 2742 
Q 2381 3103 1925 3103 
Q 1469 3103 1208 2742 
Q 947 2381 947 1747 
z
" transform="scale(0.015625)"/>
       <path id="DejaVuSans-42" d="M 1259 2228 
L 1259 519 
L 2272 519 
Q 2781 519 3026 730 
Q 3272 941 3272 1375 
Q 3272 1813 3026 2020 
Q 2781 2228 2272 2228 
L 1259 2228 
z
M 1259 4147 
L 1259 2741 
L 2194 2741 
Q 2656 2741 2882 2914 
Q 3109 3088 3109 3444 
Q 3109 3797 2882 3972 
Q 2656 4147 2194 4147 
L 1259 4147 
z
M 628 4666 
L 2241 4666 
Q 2963 4666 3353 4366 
Q 3744 4066 3744 3513 
Q 3744 3084 3544 2831 
Q 3344 2578 2956 2516 
Q 3422 2416 3680 2098 
Q 3938 1781 3938 1306 
Q 3938 681 3513 340 
Q 3088 0 2303 0 
L 628 0 
L 628 4666 
z
" transform="scale(0.015625)"/>
       <path id="DejaVuSans-63" d="M 3122 3366 
L 3122 2828 
Q 2878 2963 2633 3030 
Q 2388 3097 2138 3097 
Q 1578 3097 1268 2742 
Q 959 2388 959 1747 
Q 959 1106 1268 751 
Q 1578 397 2138 397 
Q 2388 397 2633 464 
Q 2878 531 3122 666 
L 3122 134 
Q 2881 22 2623 -34 
Q 2366 -91 2075 -91 
Q 1284 -91 818 406 
Q 353 903 353 1747 
Q 353 2603 823 3093 
Q 1294 3584 2113 3584 
Q 2378 3584 2631 3529 
Q 2884 3475 3122 3366 
z
" transform="scale(0.015625)"/>
       <path id="DejaVuSans-6b" d="M 581 4863 
L 1159 4863 
L 1159 1991 
L 2875 3500 
L 3609 3500 
L 1753 1863 
L 3688 0 
L 2938 0 
L 1159 1709 
L 1159 0 
L 581 0 
L 581 4863 
z
" transform="scale(0.015625)"/>
       <path id="DejaVuSans-54" d="M -19 4666 
L 3928 4666 
L 3928 4134 
L 2272 4134 
L 2272 0 
L 1638 0 
L 1638 4134 
L -19 4134 
L -19 4666 
z
" transform="scale(0.015625)"/>
       <path id="DejaVuSans-69" d="M 603 3500 
L 1178 3500 
L 1178 0 
L 603 0 
L 603 3500 
z
M 603 4863 
L 1178 4863 
L 1178 4134 
L 603 4134 
L 603 4863 
z
" transform="scale(0.015625)"/>
       <path id="DejaVuSans-52" d="M 2841 2188 
Q 3044 2119 3236 1894 
Q 3428 1669 3622 1275 
L 4263 0 
L 3584 0 
L 2988 1197 
Q 2756 1666 2539 1819 
Q 2322 1972 1947 1972 
L 1259 1972 
L 1259 0 
L 628 0 
L 628 4666 
L 2053 4666 
Q 2853 4666 3247 4331 
Q 3641 3997 3641 3322 
Q 3641 2881 3436 2590 
Q 3231 2300 2841 2188 
z
M 1259 4147 
L 1259 2491 
L 2053 2491 
Q 2509 2491 2742 2702 
Q 2975 2913 2975 3322 
Q 2975 3731 2742 3939 
Q 2509 4147 2053 4147 
L 1259 4147 
z
" transform="scale(0.015625)"/>
       <path id="DejaVuSans-28" d="M 1984 4856 
Q 1566 4138 1362 3434 
Q 1159 2731 1159 2009 
Q 1159 1288 1364 580 
Q 1569 -128 1984 -844 
L 1484 -844 
Q 1016 -109 783 600 
Q 550 1309 550 2009 
Q 550 2706 781 3412 
Q 1013 4119 1484 4856 
L 1984 4856 
z
" transform="scale(0.015625)"/>
       <path id="DejaVuSans-25" d="M 4653 2053 
Q 4381 2053 4226 1822 
Q 4072 1591 4072 1178 
Q 4072 772 4226 539 
Q 4381 306 4653 306 
Q 4919 306 5073 539 
Q 5228 772 5228 1178 
Q 5228 1588 5073 1820 
Q 4919 2053 4653 2053 
z
M 4653 2450 
Q 5147 2450 5437 2106 
Q 5728 1763 5728 1178 
Q 5728 594 5436 251 
Q 5144 -91 4653 -91 
Q 4153 -91 3862 251 
Q 3572 594 3572 1178 
Q 3572 1766 3864 2108 
Q 4156 2450 4653 2450 
z
M 1428 4353 
Q 1159 4353 1004 4120 
Q 850 3888 850 3481 
Q 850 3069 1003 2837 
Q 1156 2606 1428 2606 
Q 1700 2606 1854 2837 
Q 2009 3069 2009 3481 
Q 2009 3884 1853 4118 
Q 1697 4353 1428 4353 
z
M 4250 4750 
L 4750 4750 
L 1831 -91 
L 1331 -91 
L 4250 4750 
z
M 1428 4750 
Q 1922 4750 2215 4408 
Q 2509 4066 2509 3481 
Q 2509 2891 2217 2550 
Q 1925 2209 1428 2209 
Q 931 2209 642 2551 
Q 353 2894 353 3481 
Q 353 4063 643 4406 
Q 934 4750 1428 4750 
z
" transform="scale(0.015625)"/>
       <path id="DejaVuSans-29" d="M 513 4856 
L 1013 4856 
Q 1481 4119 1714 3412 
Q 1947 2706 1947 2009 
Q 1947 1309 1714 600 
Q 1481 -109 1013 -844 
L 513 -844 
Q 928 -128 1133 580 
Q 1338 1288 1338 2009 
Q 1338 2731 1133 3434 
Q 928 4138 513 4856 
z
" transform="scale(0.015625)"/>
      </defs>
      <use xlink:href="#DejaVuSans-31"/>
      <use xlink:href="#DejaVuSans-73" x="63.623047"/>
      <use xlink:href="#DejaVuSans-74" x="115.722656"/>
      <use xlink:href="#DejaVuSans-20" x="154.931641"/>
      <use xlink:href="#DejaVuSans-4d" x="186.71875"/>
      <use xlink:href="#DejaVuSans-65" x="272.998047"/>
      <use xlink:href="#DejaVuSans-61" x="334.521484"/>
      <use xlink:href="#DejaVuSans-6c" x="395.800781"/>
      <use xlink:href="#DejaVuSans-20" x="423.583984"/>
      <use xlink:href="#DejaVuSans-61" x="455.371094"/>
      <use xlink:href="#DejaVuSans-6e" x="516.650391"/>
      <use xlink:href="#DejaVuSans-64" x="580.029297"/>
      <use xlink:href="#DejaVuSans-20" x="643.505859"/>
      <use xlink:href="#DejaVuSans-42" x="675.292969"/>
      <use xlink:href="#DejaVuSans-6c" x="743.896484"/>
      <use xlink:href="#DejaVuSans-6f" x="771.679688"/>
      <use xlink:href="#DejaVuSans-63" x="832.861328"/>
      <use xlink:href="#DejaVuSans-6b" x="887.841797"/>
      <use xlink:href="#DejaVuSans-20" x="945.751953"/>
      <use xlink:href="#DejaVuSans-54" x="977.539062"/>
      <use xlink:href="#DejaVuSans-69" x="1035.498047"/>
      <use xlink:href="#DejaVuSans-6d" x="1063.28125"/>
      <use xlink:href="#DejaVuSans-65" x="1160.693359"/>
      <use xlink:href="#DejaVuSans-20" x="1222.216797"/>
      <use xlink:href="#DejaVuSans-52" x="1254.003906"/>
      <use xlink:href="#DejaVuSans-61" x="1321.236328"/>
      <use xlink:href="#DejaVuSans-74" x="1382.515625"/>
      <use xlink:href="#DejaVuSans-69" x="1421.724609"/>
      <use xlink:href="#DejaVuSans-6f" x="1449.507812"/>
      <use xlink:href="#DejaVuSans-20" x="1510.689453"/>
      <use xlink:href="#DejaVuSans-28" x="1542.476562"/>
      <use xlink:href="#DejaVuSans-25" x="1581.490234"/>
      <use xlink:href="#DejaVuSans-29" x="1676.509766"/>
     </g>
    </g>
   </g>
   <g id="patch_3">
    <path d="M 250.93375 201.830208 
L 301.15375 201.830208 
L 301.15375 103.567901 
L 250.93375 103.567901 
L 250.93375 201.830208 
z
" clip-path="url(#p1797a3d299)" style="fill: #ffffff; stroke: #000000; stroke-linejoin: miter"/>
   </g>
   <g id="line2d_7">
    <path d="M 276.04375 201.830208 
L 276.04375 345.916875 
" clip-path="url(#p1797a3d299)" style="fill: none; stroke: #000000; stroke-linecap: square"/>
   </g>
   <g id="line2d_8">
    <path d="M 276.04375 103.567901 
L 276.04375 43.516875 
" clip-path="url(#p1797a3d299)" style="fill: none; stroke: #000000; stroke-linecap: square"/>
   </g>
   <g id="line2d_9">
    <path d="M 263.48875 345.916875 
L 288.59875 345.916875 
" clip-path="url(#p1797a3d299)" style="fill: none; stroke: #000000; stroke-linecap: square"/>
   </g>
   <g id="line2d_10">
    <path d="M 263.48875 43.516875 
L 288.59875 43.516875 
" clip-path="url(#p1797a3d299)" style="fill: none; stroke: #000000; stroke-linecap: square"/>
   </g>
   <g id="line2d_11">
    <path d="M 250.93375 162.321277 
L 301.15375 162.321277 
" clip-path="url(#p1797a3d299)" style="fill: none; stroke: #000000"/>
   </g>
   <g id="patch_4">
    <path d="M 108.64375 361.036875 
L 108.64375 28.396875 
" style="fill: none; stroke: #000000; stroke-width: 0.8; stroke-linejoin: miter; stroke-linecap: square"/>
   </g>
   <g id="patch_5">
    <path d="M 443.44375 361.036875 
L 443.44375 28.396875 
" style="fill: none; stroke: #000000; stroke-width: 0.8; stroke-linejoin: miter; stroke-linecap: square"/>
   </g>
   <g id="patch_6">
    <path d="M 108.64375 361.036875 
L 443.44375 361.036875 
" style="fill: none; stroke: #000000; stroke-width: 0.8; stroke-linejoin: miter; stroke-linecap: square"/>
   </g>
   <g id="patch_7">
    <path d="M 108.64375 28.396875 
L 443.44375 28.396875 
" style="fill: none; stroke: #000000; stroke-width: 0.8; stroke-linejoin: miter; stroke-linecap: square"/>
   </g>
   <g id="PathCollection_1">
    <defs>
     <path id="mb8b0cb3f0b" d="M 0 3 
C 0.795609 3 1.55874 2.683901 2.12132 2.12132 
C 2.683901 1.55874 3 0.795609 3 0 
C 3 -0.795609 2.683901 -1.55874 2.12132 -2.12132 
C 1.55874 -2.683901 0.795609 -3 0 -3 
C -0.795609 -3 -1.55874 -2.683901 -2.12132 -2.12132 
C -2.683901 -1.55874 -3 -0.795609 -3 0 
C -3 0.795609 -2.683901 1.55874 -2.12132 2.12132 
C -1.55874 2.683901 -0.795609 3 0 3 
z
" style="stroke: #0000ff; stroke-opacity: 0.8"/>
    </defs>
    <g clip-path="url(#p1797a3d299)">
     <use xlink:href="#mb8b0cb3f0b" x="273.830495" y="345.916875" style="fill: #0000ff; fill-opacity: 0.8; stroke: #0000ff; stroke-opacity: 0.8"/>
     <use xlink:href="#mb8b0cb3f0b" x="266.612446" y="95.710019" style="fill: #0000ff; fill-opacity: 0.8; stroke: #0000ff; stroke-opacity: 0.8"/>
     <use xlink:href="#mb8b0cb3f0b" x="269.635063" y="98.23056" style="fill: #0000ff; fill-opacity: 0.8; stroke: #0000ff; stroke-opacity: 0.8"/>
     <use xlink:href="#mb8b0cb3f0b" x="274.573255" y="293.489588" style="fill: #0000ff; fill-opacity: 0.8; stroke: #0000ff; stroke-opacity: 0.8"/>
     <use xlink:href="#mb8b0cb3f0b" x="284.581926" y="148.055487" style="fill: #0000ff; fill-opacity: 0.8; stroke: #0000ff; stroke-opacity: 0.8"/>
     <use xlink:href="#mb8b0cb3f0b" x="278.963565" y="113.482189" style="fill: #0000ff; fill-opacity: 0.8; stroke: #0000ff; stroke-opacity: 0.8"/>
     <use xlink:href="#mb8b0cb3f0b" x="272.095111" y="97.511279" style="fill: #0000ff; fill-opacity: 0.8; stroke: #0000ff; stroke-opacity: 0.8"/>
     <use xlink:href="#mb8b0cb3f0b" x="274.52962" y="203.657017" style="fill: #0000ff; fill-opacity: 0.8; stroke: #0000ff; stroke-opacity: 0.8"/>
     <use xlink:href="#mb8b0cb3f0b" x="268.96924" y="170.968471" style="fill: #0000ff; fill-opacity: 0.8; stroke: #0000ff; stroke-opacity: 0.8"/>
     <use xlink:href="#mb8b0cb3f0b" x="282.866033" y="78.762895" style="fill: #0000ff; fill-opacity: 0.8; stroke: #0000ff; stroke-opacity: 0.8"/>
     <use xlink:href="#mb8b0cb3f0b" x="265.345452" y="195.642232" style="fill: #0000ff; fill-opacity: 0.8; stroke: #0000ff; stroke-opacity: 0.8"/>
     <use xlink:href="#mb8b0cb3f0b" x="280.462467" y="105.347015" style="fill: #0000ff; fill-opacity: 0.8; stroke: #0000ff; stroke-opacity: 0.8"/>
     <use xlink:href="#mb8b0cb3f0b" x="266.327047" y="153.674083" style="fill: #0000ff; fill-opacity: 0.8; stroke: #0000ff; stroke-opacity: 0.8"/>
     <use xlink:href="#mb8b0cb3f0b" x="282.503686" y="134.363042" style="fill: #0000ff; fill-opacity: 0.8; stroke: #0000ff; stroke-opacity: 0.8"/>
     <use xlink:href="#mb8b0cb3f0b" x="266.636609" y="43.516875" style="fill: #0000ff; fill-opacity: 0.8; stroke: #0000ff; stroke-opacity: 0.8"/>
     <use xlink:href="#mb8b0cb3f0b" x="279.765986" y="318.912671" style="fill: #0000ff; fill-opacity: 0.8; stroke: #0000ff; stroke-opacity: 0.8"/>
     <use xlink:href="#mb8b0cb3f0b" x="276.160139" y="242.226439" style="fill: #0000ff; fill-opacity: 0.8; stroke: #0000ff; stroke-opacity: 0.8"/>
     <use xlink:href="#mb8b0cb3f0b" x="271.046783" y="201.221272" style="fill: #0000ff; fill-opacity: 0.8; stroke: #0000ff; stroke-opacity: 0.8"/>
     <use xlink:href="#mb8b0cb3f0b" x="270.190238" y="197.953652" style="fill: #0000ff; fill-opacity: 0.8; stroke: #0000ff; stroke-opacity: 0.8"/>
     <use xlink:href="#mb8b0cb3f0b" x="264.09495" y="180.350778" style="fill: #0000ff; fill-opacity: 0.8; stroke: #0000ff; stroke-opacity: 0.8"/>
    </g>
   </g>
   <g id="text_9">
    <!-- 1st Meal and Block Time Ratio Distribution for Female -->
    <g transform="translate(7.2 22.396875) scale(0.2 -0.2)">
     <defs>
      <path id="DejaVuSans-44" d="M 1259 4147 
L 1259 519 
L 2022 519 
Q 2988 519 3436 956 
Q 3884 1394 3884 2338 
Q 3884 3275 3436 3711 
Q 2988 4147 2022 4147 
L 1259 4147 
z
M 628 4666 
L 1925 4666 
Q 3281 4666 3915 4102 
Q 4550 3538 4550 2338 
Q 4550 1131 3912 565 
Q 3275 0 1925 0 
L 628 0 
L 628 4666 
z
" transform="scale(0.015625)"/>
      <path id="DejaVuSans-62" d="M 3116 1747 
Q 3116 2381 2855 2742 
Q 2594 3103 2138 3103 
Q 1681 3103 1420 2742 
Q 1159 2381 1159 1747 
Q 1159 1113 1420 752 
Q 1681 391 2138 391 
Q 2594 391 2855 752 
Q 3116 1113 3116 1747 
z
M 1159 2969 
Q 1341 3281 1617 3432 
Q 1894 3584 2278 3584 
Q 2916 3584 3314 3078 
Q 3713 2572 3713 1747 
Q 3713 922 3314 415 
Q 2916 -91 2278 -91 
Q 1894 -91 1617 61 
Q 1341 213 1159 525 
L 1159 0 
L 581 0 
L 581 4863 
L 1159 4863 
L 1159 2969 
z
" transform="scale(0.015625)"/>
      <path id="DejaVuSans-66" d="M 2375 4863 
L 2375 4384 
L 1825 4384 
Q 1516 4384 1395 4259 
Q 1275 4134 1275 3809 
L 1275 3500 
L 2222 3500 
L 2222 3053 
L 1275 3053 
L 1275 0 
L 697 0 
L 697 3053 
L 147 3053 
L 147 3500 
L 697 3500 
L 697 3744 
Q 697 4328 969 4595 
Q 1241 4863 1831 4863 
L 2375 4863 
z
" transform="scale(0.015625)"/>
     </defs>
     <use xlink:href="#DejaVuSans-31"/>
     <use xlink:href="#DejaVuSans-73" x="63.623047"/>
     <use xlink:href="#DejaVuSans-74" x="115.722656"/>
     <use xlink:href="#DejaVuSans-20" x="154.931641"/>
     <use xlink:href="#DejaVuSans-4d" x="186.71875"/>
     <use xlink:href="#DejaVuSans-65" x="272.998047"/>
     <use xlink:href="#DejaVuSans-61" x="334.521484"/>
     <use xlink:href="#DejaVuSans-6c" x="395.800781"/>
     <use xlink:href="#DejaVuSans-20" x="423.583984"/>
     <use xlink:href="#DejaVuSans-61" x="455.371094"/>
     <use xlink:href="#DejaVuSans-6e" x="516.650391"/>
     <use xlink:href="#DejaVuSans-64" x="580.029297"/>
     <use xlink:href="#DejaVuSans-20" x="643.505859"/>
     <use xlink:href="#DejaVuSans-42" x="675.292969"/>
     <use xlink:href="#DejaVuSans-6c" x="743.896484"/>
     <use xlink:href="#DejaVuSans-6f" x="771.679688"/>
     <use xlink:href="#DejaVuSans-63" x="832.861328"/>
     <use xlink:href="#DejaVuSans-6b" x="887.841797"/>
     <use xlink:href="#DejaVuSans-20" x="945.751953"/>
     <use xlink:href="#DejaVuSans-54" x="977.539062"/>
     <use xlink:href="#DejaVuSans-69" x="1035.498047"/>
     <use xlink:href="#DejaVuSans-6d" x="1063.28125"/>
     <use xlink:href="#DejaVuSans-65" x="1160.693359"/>
     <use xlink:href="#DejaVuSans-20" x="1222.216797"/>
     <use xlink:href="#DejaVuSans-52" x="1254.003906"/>
     <use xlink:href="#DejaVuSans-61" x="1321.236328"/>
     <use xlink:href="#DejaVuSans-74" x="1382.515625"/>
     <use xlink:href="#DejaVuSans-69" x="1421.724609"/>
     <use xlink:href="#DejaVuSans-6f" x="1449.507812"/>
     <use xlink:href="#DejaVuSans-20" x="1510.689453"/>
     <use xlink:href="#DejaVuSans-44" x="1542.476562"/>
     <use xlink:href="#DejaVuSans-69" x="1619.478516"/>
     <use xlink:href="#DejaVuSans-73" x="1647.261719"/>
     <use xlink:href="#DejaVuSans-74" x="1699.361328"/>
     <use xlink:href="#DejaVuSans-72" x="1738.570312"/>
     <use xlink:href="#DejaVuSans-69" x="1779.683594"/>
     <use xlink:href="#DejaVuSans-62" x="1807.466797"/>
     <use xlink:href="#DejaVuSans-75" x="1870.943359"/>
     <use xlink:href="#DejaVuSans-74" x="1934.322266"/>
     <use xlink:href="#DejaVuSans-69" x="1973.53125"/>
     <use xlink:href="#DejaVuSans-6f" x="2001.314453"/>
     <use xlink:href="#DejaVuSans-6e" x="2062.496094"/>
     <use xlink:href="#DejaVuSans-20" x="2125.875"/>
     <use xlink:href="#DejaVuSans-66" x="2157.662109"/>
     <use xlink:href="#DejaVuSans-6f" x="2192.867188"/>
     <use xlink:href="#DejaVuSans-72" x="2254.048828"/>
     <use xlink:href="#DejaVuSans-20" x="2295.162109"/>
     <use xlink:href="#DejaVuSans-46" x="2326.949219"/>
     <use xlink:href="#DejaVuSans-65" x="2378.96875"/>
     <use xlink:href="#DejaVuSans-6d" x="2440.492188"/>
     <use xlink:href="#DejaVuSans-61" x="2537.904297"/>
     <use xlink:href="#DejaVuSans-6c" x="2599.183594"/>
     <use xlink:href="#DejaVuSans-65" x="2626.966797"/>
    </g>
   </g>
   <g id="legend_1">
    <g id="patch_8">
     <path d="M 323.509375 51.075 
L 436.44375 51.075 
Q 438.44375 51.075 438.44375 49.075 
L 438.44375 35.396875 
Q 438.44375 33.396875 436.44375 33.396875 
L 323.509375 33.396875 
Q 321.509375 33.396875 321.509375 35.396875 
L 321.509375 49.075 
Q 321.509375 51.075 323.509375 51.075 
z
" style="fill: #ffffff; opacity: 0.8; stroke: #cccccc; stroke-linejoin: miter"/>
    </g>
    <g id="patch_9">
     <path d="M 325.509375 44.995312 
L 345.509375 44.995312 
L 345.509375 37.995312 
L 325.509375 37.995312 
z
" style="fill: #38bcf5; opacity: 0.6; stroke: #38bcf5; stroke-linejoin: miter"/>
    </g>
    <g id="text_10">
     <!-- Female (n = 20) -->
     <g transform="translate(353.509375 44.995312) scale(0.1 -0.1)">
      <defs>
       <path id="DejaVuSans-3d" d="M 678 2906 
L 4684 2906 
L 4684 2381 
L 678 2381 
L 678 2906 
z
M 678 1631 
L 4684 1631 
L 4684 1100 
L 678 1100 
L 678 1631 
z
" transform="scale(0.015625)"/>
       <path id="DejaVuSans-32" d="M 1228 531 
L 3431 531 
L 3431 0 
L 469 0 
L 469 531 
Q 828 903 1448 1529 
Q 2069 2156 2228 2338 
Q 2531 2678 2651 2914 
Q 2772 3150 2772 3378 
Q 2772 3750 2511 3984 
Q 2250 4219 1831 4219 
Q 1534 4219 1204 4116 
Q 875 4013 500 3803 
L 500 4441 
Q 881 4594 1212 4672 
Q 1544 4750 1819 4750 
Q 2544 4750 2975 4387 
Q 3406 4025 3406 3419 
Q 3406 3131 3298 2873 
Q 3191 2616 2906 2266 
Q 2828 2175 2409 1742 
Q 1991 1309 1228 531 
z
" transform="scale(0.015625)"/>
      </defs>
      <use xlink:href="#DejaVuSans-46"/>
      <use xlink:href="#DejaVuSans-65" x="52.019531"/>
      <use xlink:href="#DejaVuSans-6d" x="113.542969"/>
      <use xlink:href="#DejaVuSans-61" x="210.955078"/>
      <use xlink:href="#DejaVuSans-6c" x="272.234375"/>
      <use xlink:href="#DejaVuSans-65" x="300.017578"/>
      <use xlink:href="#DejaVuSans-20" x="361.541016"/>
      <use xlink:href="#DejaVuSans-28" x="393.328125"/>
      <use xlink:href="#DejaVuSans-6e" x="432.341797"/>
      <use xlink:href="#DejaVuSans-20" x="495.720703"/>
      <use xlink:href="#DejaVuSans-3d" x="527.507812"/>
      <use xlink:href="#DejaVuSans-20" x="611.296875"/>
      <use xlink:href="#DejaVuSans-32" x="643.083984"/>
      <use xlink:href="#DejaVuSans-30" x="706.707031"/>
      <use xlink:href="#DejaVuSans-29" x="770.330078"/>
     </g>
    </g>
   </g>
  </g>
 </g>
 <defs>
  <clipPath id="p1797a3d299">
   <rect x="108.64375" y="28.396875" width="334.8" height="332.64"/>
  </clipPath>
 </defs>
</svg>
