<?xml version="1.0" encoding="utf-8" standalone="no"?>
<!DOCTYPE svg PUBLIC "-//W3C//DTD SVG 1.1//EN"
  "http://www.w3.org/Graphics/SVG/1.1/DTD/svg11.dtd">
<svg xmlns:xlink="http://www.w3.org/1999/xlink" width="450.809375pt" height="402.464375pt" viewBox="0 0 450.809375 402.464375" xmlns="http://www.w3.org/2000/svg" version="1.1">
 <metadata>
  <rdf:RDF xmlns:dc="http://purl.org/dc/elements/1.1/" xmlns:cc="http://creativecommons.org/ns#" xmlns:rdf="http://www.w3.org/1999/02/22-rdf-syntax-ns#">
   <cc:Work>
    <dc:type rdf:resource="http://purl.org/dc/dcmitype/StillImage"/>
    <dc:date>2025-07-29T18:08:23.316879</dc:date>
    <dc:format>image/svg+xml</dc:format>
    <dc:creator>
     <cc:Agent>
      <dc:title>Matplotlib v3.8.4, https://matplotlib.org/</dc:title>
     </cc:Agent>
    </dc:creator>
   </cc:Work>
  </rdf:RDF>
 </metadata>
 <defs>
  <style type="text/css">*{stroke-linejoin: round; stroke-linecap: butt}</style>
 </defs>
 <g id="figure_1">
  <g id="patch_1">
   <path d="M 0 402.464375 
L 450.809375 402.464375 
L 450.809375 0 
L 0 0 
z
" style="fill: #ffffff"/>
  </g>
  <g id="axes_1">
   <g id="patch_2">
    <path d="M 58.004688 361.036875 
L 392.804688 361.036875 
L 392.804688 28.396875 
L 58.004688 28.396875 
z
" style="fill: #ffffff"/>
   </g>
   <g id="PolyCollection_1">
    <defs>
     <path id="mfc95ca50b2" d="M 251.399101 -56.5475 
L 199.410274 -56.5475 
L 197.723723 -59.602045 
L 196.029629 -62.656591 
L 194.337896 -65.711136 
L 192.658752 -68.765682 
L 191.002646 -71.820227 
L 189.380133 -74.874773 
L 187.80175 -77.929318 
L 186.277903 -80.983864 
L 184.818742 -84.038409 
L 183.43404 -87.092955 
L 182.133073 -90.1475 
L 180.924508 -93.202045 
L 179.816285 -96.256591 
L 178.815513 -99.311136 
L 177.92837 -102.365682 
L 177.160006 -105.420227 
L 176.514464 -108.474773 
L 175.994602 -111.529318 
L 175.602034 -114.583864 
L 175.33708 -117.638409 
L 175.198742 -120.692955 
L 175.184687 -123.7475 
L 175.291262 -126.802045 
L 175.513526 -129.856591 
L 175.845313 -132.911136 
L 176.279319 -135.965682 
L 176.807223 -139.020227 
L 177.419827 -142.074773 
L 178.107234 -145.129318 
L 178.859048 -148.183864 
L 179.664586 -151.238409 
L 180.513122 -154.292955 
L 181.394128 -157.3475 
L 182.29752 -160.402045 
L 183.213904 -163.456591 
L 184.134798 -166.511136 
L 185.052836 -169.565682 
L 185.961935 -172.620227 
L 186.85743 -175.674773 
L 187.736149 -178.729318 
L 188.596451 -181.783864 
L 189.438198 -184.838409 
L 190.262683 -187.892955 
L 191.072499 -190.9475 
L 191.871363 -194.002045 
L 192.663896 -197.056591 
L 193.455377 -200.111136 
L 194.251465 -203.165682 
L 195.057922 -206.220227 
L 195.880321 -209.274773 
L 196.723782 -212.329318 
L 197.592716 -215.383864 
L 198.490614 -218.438409 
L 199.419867 -221.492955 
L 200.381637 -224.5475 
L 201.375781 -227.602045 
L 202.400821 -230.656591 
L 203.453971 -233.711136 
L 204.531208 -236.765682 
L 205.627389 -239.820227 
L 206.736406 -242.874773 
L 207.851364 -245.929318 
L 208.964788 -248.983864 
L 210.068835 -252.038409 
L 211.155514 -255.092955 
L 212.216893 -258.1475 
L 213.245306 -261.202045 
L 214.23353 -264.256591 
L 215.174946 -267.311136 
L 216.063669 -270.365682 
L 216.894654 -273.420227 
L 217.66377 -276.474773 
L 218.367846 -279.529318 
L 219.004693 -282.583864 
L 219.573102 -285.638409 
L 220.072815 -288.692955 
L 220.504489 -291.7475 
L 220.86964 -294.802045 
L 221.170571 -297.856591 
L 221.410304 -300.911136 
L 221.592499 -303.965682 
L 221.721368 -307.020227 
L 221.801594 -310.074773 
L 221.838244 -313.129318 
L 221.836682 -316.183864 
L 221.802487 -319.238409 
L 221.741365 -322.292955 
L 221.65907 -325.3475 
L 221.561315 -328.402045 
L 221.453697 -331.456591 
L 221.341612 -334.511136 
L 221.230184 -337.565682 
L 221.124187 -340.620227 
L 221.027982 -343.674773 
L 220.945453 -346.729318 
L 220.879959 -349.783864 
L 220.834286 -352.838409 
L 220.810624 -355.892955 
L 220.810539 -358.9475 
L 229.998836 -358.9475 
L 229.998836 -358.9475 
L 229.998751 -355.892955 
L 229.975089 -352.838409 
L 229.929416 -349.783864 
L 229.863922 -346.729318 
L 229.781393 -343.674773 
L 229.685188 -340.620227 
L 229.579191 -337.565682 
L 229.467763 -334.511136 
L 229.355678 -331.456591 
L 229.24806 -328.402045 
L 229.150305 -325.3475 
L 229.06801 -322.292955 
L 229.006888 -319.238409 
L 228.972693 -316.183864 
L 228.971131 -313.129318 
L 229.007781 -310.074773 
L 229.088007 -307.020227 
L 229.216876 -303.965682 
L 229.399071 -300.911136 
L 229.638804 -297.856591 
L 229.939735 -294.802045 
L 230.304886 -291.7475 
L 230.73656 -288.692955 
L 231.236273 -285.638409 
L 231.804682 -282.583864 
L 232.441529 -279.529318 
L 233.145605 -276.474773 
L 233.914721 -273.420227 
L 234.745706 -270.365682 
L 235.634429 -267.311136 
L 236.575845 -264.256591 
L 237.564069 -261.202045 
L 238.592482 -258.1475 
L 239.653861 -255.092955 
L 240.74054 -252.038409 
L 241.844587 -248.983864 
L 242.958011 -245.929318 
L 244.072969 -242.874773 
L 245.181986 -239.820227 
L 246.278167 -236.765682 
L 247.355404 -233.711136 
L 248.408554 -230.656591 
L 249.433594 -227.602045 
L 250.427738 -224.5475 
L 251.389508 -221.492955 
L 252.318761 -218.438409 
L 253.216659 -215.383864 
L 254.085593 -212.329318 
L 254.929054 -209.274773 
L 255.751453 -206.220227 
L 256.55791 -203.165682 
L 257.353998 -200.111136 
L 258.145479 -197.056591 
L 258.938012 -194.002045 
L 259.736876 -190.9475 
L 260.546692 -187.892955 
L 261.371177 -184.838409 
L 262.212924 -181.783864 
L 263.073226 -178.729318 
L 263.951945 -175.674773 
L 264.84744 -172.620227 
L 265.756539 -169.565682 
L 266.674577 -166.511136 
L 267.595471 -163.456591 
L 268.511855 -160.402045 
L 269.415247 -157.3475 
L 270.296253 -154.292955 
L 271.144789 -151.238409 
L 271.950327 -148.183864 
L 272.702141 -145.129318 
L 273.389548 -142.074773 
L 274.002152 -139.020227 
L 274.530056 -135.965682 
L 274.964062 -132.911136 
L 275.295849 -129.856591 
L 275.518113 -126.802045 
L 275.624687 -123.7475 
L 275.610633 -120.692955 
L 275.472295 -117.638409 
L 275.207341 -114.583864 
L 274.814773 -111.529318 
L 274.294911 -108.474773 
L 273.649369 -105.420227 
L 272.881005 -102.365682 
L 271.993862 -99.311136 
L 270.99309 -96.256591 
L 269.884867 -93.202045 
L 268.676302 -90.1475 
L 267.375335 -87.092955 
L 265.990633 -84.038409 
L 264.531472 -80.983864 
L 263.007625 -77.929318 
L 261.429242 -74.874773 
L 259.806729 -71.820227 
L 258.150623 -68.765682 
L 256.471479 -65.711136 
L 254.779746 -62.656591 
L 253.085652 -59.602045 
L 251.399101 -56.5475 
z
" style="stroke: #000000; stroke-opacity: 0.6"/>
    </defs>
    <g clip-path="url(#p3c1232bb03)">
     <use xlink:href="#mfc95ca50b2" x="0" y="402.464375" style="fill: #38bcf5; fill-opacity: 0.6; stroke: #000000; stroke-opacity: 0.6"/>
    </g>
   </g>
   <g id="matplotlib.axis_1">
    <g id="xtick_1">
     <g id="line2d_1">
      <defs>
       <path id="m7c772290b0" d="M 0 0 
L 0 3.5 
" style="stroke: #000000; stroke-width: 0.8"/>
      </defs>
      <g>
       <use xlink:href="#m7c772290b0" x="225.404688" y="361.036875" style="stroke: #000000; stroke-width: 0.8"/>
      </g>
     </g>
     <g id="text_1">
      <!-- Female -->
      <g transform="translate(207.327344 375.635312) scale(0.1 -0.1)">
       <defs>
        <path id="DejaVuSans-46" d="M 628 4666 
L 3309 4666 
L 3309 4134 
L 1259 4134 
L 1259 2759 
L 3109 2759 
L 3109 2228 
L 1259 2228 
L 1259 0 
L 628 0 
L 628 4666 
z
" transform="scale(0.015625)"/>
        <path id="DejaVuSans-65" d="M 3597 1894 
L 3597 1613 
L 953 1613 
Q 991 1019 1311 708 
Q 1631 397 2203 397 
Q 2534 397 2845 478 
Q 3156 559 3463 722 
L 3463 178 
Q 3153 47 2828 -22 
Q 2503 -91 2169 -91 
Q 1331 -91 842 396 
Q 353 884 353 1716 
Q 353 2575 817 3079 
Q 1281 3584 2069 3584 
Q 2775 3584 3186 3129 
Q 3597 2675 3597 1894 
z
M 3022 2063 
Q 3016 2534 2758 2815 
Q 2500 3097 2075 3097 
Q 1594 3097 1305 2825 
Q 1016 2553 972 2059 
L 3022 2063 
z
" transform="scale(0.015625)"/>
        <path id="DejaVuSans-6d" d="M 3328 2828 
Q 3544 3216 3844 3400 
Q 4144 3584 4550 3584 
Q 5097 3584 5394 3201 
Q 5691 2819 5691 2113 
L 5691 0 
L 5113 0 
L 5113 2094 
Q 5113 2597 4934 2840 
Q 4756 3084 4391 3084 
Q 3944 3084 3684 2787 
Q 3425 2491 3425 1978 
L 3425 0 
L 2847 0 
L 2847 2094 
Q 2847 2600 2669 2842 
Q 2491 3084 2119 3084 
Q 1678 3084 1418 2786 
Q 1159 2488 1159 1978 
L 1159 0 
L 581 0 
L 581 3500 
L 1159 3500 
L 1159 2956 
Q 1356 3278 1631 3431 
Q 1906 3584 2284 3584 
Q 2666 3584 2933 3390 
Q 3200 3197 3328 2828 
z
" transform="scale(0.015625)"/>
        <path id="DejaVuSans-61" d="M 2194 1759 
Q 1497 1759 1228 1600 
Q 959 1441 959 1056 
Q 959 750 1161 570 
Q 1363 391 1709 391 
Q 2188 391 2477 730 
Q 2766 1069 2766 1631 
L 2766 1759 
L 2194 1759 
z
M 3341 1997 
L 3341 0 
L 2766 0 
L 2766 531 
Q 2569 213 2275 61 
Q 1981 -91 1556 -91 
Q 1019 -91 701 211 
Q 384 513 384 1019 
Q 384 1609 779 1909 
Q 1175 2209 1959 2209 
L 2766 2209 
L 2766 2266 
Q 2766 2663 2505 2880 
Q 2244 3097 1772 3097 
Q 1472 3097 1187 3025 
Q 903 2953 641 2809 
L 641 3341 
Q 956 3463 1253 3523 
Q 1550 3584 1831 3584 
Q 2591 3584 2966 3190 
Q 3341 2797 3341 1997 
z
" transform="scale(0.015625)"/>
        <path id="DejaVuSans-6c" d="M 603 4863 
L 1178 4863 
L 1178 0 
L 603 0 
L 603 4863 
z
" transform="scale(0.015625)"/>
       </defs>
       <use xlink:href="#DejaVuSans-46"/>
       <use xlink:href="#DejaVuSans-65" x="52.019531"/>
       <use xlink:href="#DejaVuSans-6d" x="113.542969"/>
       <use xlink:href="#DejaVuSans-61" x="210.955078"/>
       <use xlink:href="#DejaVuSans-6c" x="272.234375"/>
       <use xlink:href="#DejaVuSans-65" x="300.017578"/>
      </g>
     </g>
    </g>
    <g id="text_2">
     <!-- Groups -->
     <g transform="translate(200.450781 392.352812) scale(0.14 -0.14)">
      <defs>
       <path id="DejaVuSans-47" d="M 3809 666 
L 3809 1919 
L 2778 1919 
L 2778 2438 
L 4434 2438 
L 4434 434 
Q 4069 175 3628 42 
Q 3188 -91 2688 -91 
Q 1594 -91 976 548 
Q 359 1188 359 2328 
Q 359 3472 976 4111 
Q 1594 4750 2688 4750 
Q 3144 4750 3555 4637 
Q 3966 4525 4313 4306 
L 4313 3634 
Q 3963 3931 3569 4081 
Q 3175 4231 2741 4231 
Q 1884 4231 1454 3753 
Q 1025 3275 1025 2328 
Q 1025 1384 1454 906 
Q 1884 428 2741 428 
Q 3075 428 3337 486 
Q 3600 544 3809 666 
z
" transform="scale(0.015625)"/>
       <path id="DejaVuSans-72" d="M 2631 2963 
Q 2534 3019 2420 3045 
Q 2306 3072 2169 3072 
Q 1681 3072 1420 2755 
Q 1159 2438 1159 1844 
L 1159 0 
L 581 0 
L 581 3500 
L 1159 3500 
L 1159 2956 
Q 1341 3275 1631 3429 
Q 1922 3584 2338 3584 
Q 2397 3584 2469 3576 
Q 2541 3569 2628 3553 
L 2631 2963 
z
" transform="scale(0.015625)"/>
       <path id="DejaVuSans-6f" d="M 1959 3097 
Q 1497 3097 1228 2736 
Q 959 2375 959 1747 
Q 959 1119 1226 758 
Q 1494 397 1959 397 
Q 2419 397 2687 759 
Q 2956 1122 2956 1747 
Q 2956 2369 2687 2733 
Q 2419 3097 1959 3097 
z
M 1959 3584 
Q 2709 3584 3137 3096 
Q 3566 2609 3566 1747 
Q 3566 888 3137 398 
Q 2709 -91 1959 -91 
Q 1206 -91 779 398 
Q 353 888 353 1747 
Q 353 2609 779 3096 
Q 1206 3584 1959 3584 
z
" transform="scale(0.015625)"/>
       <path id="DejaVuSans-75" d="M 544 1381 
L 544 3500 
L 1119 3500 
L 1119 1403 
Q 1119 906 1312 657 
Q 1506 409 1894 409 
Q 2359 409 2629 706 
Q 2900 1003 2900 1516 
L 2900 3500 
L 3475 3500 
L 3475 0 
L 2900 0 
L 2900 538 
Q 2691 219 2414 64 
Q 2138 -91 1772 -91 
Q 1169 -91 856 284 
Q 544 659 544 1381 
z
M 1991 3584 
L 1991 3584 
z
" transform="scale(0.015625)"/>
       <path id="DejaVuSans-70" d="M 1159 525 
L 1159 -1331 
L 581 -1331 
L 581 3500 
L 1159 3500 
L 1159 2969 
Q 1341 3281 1617 3432 
Q 1894 3584 2278 3584 
Q 2916 3584 3314 3078 
Q 3713 2572 3713 1747 
Q 3713 922 3314 415 
Q 2916 -91 2278 -91 
Q 1894 -91 1617 61 
Q 1341 213 1159 525 
z
M 3116 1747 
Q 3116 2381 2855 2742 
Q 2594 3103 2138 3103 
Q 1681 3103 1420 2742 
Q 1159 2381 1159 1747 
Q 1159 1113 1420 752 
Q 1681 391 2138 391 
Q 2594 391 2855 752 
Q 3116 1113 3116 1747 
z
" transform="scale(0.015625)"/>
       <path id="DejaVuSans-73" d="M 2834 3397 
L 2834 2853 
Q 2591 2978 2328 3040 
Q 2066 3103 1784 3103 
Q 1356 3103 1142 2972 
Q 928 2841 928 2578 
Q 928 2378 1081 2264 
Q 1234 2150 1697 2047 
L 1894 2003 
Q 2506 1872 2764 1633 
Q 3022 1394 3022 966 
Q 3022 478 2636 193 
Q 2250 -91 1575 -91 
Q 1294 -91 989 -36 
Q 684 19 347 128 
L 347 722 
Q 666 556 975 473 
Q 1284 391 1588 391 
Q 1994 391 2212 530 
Q 2431 669 2431 922 
Q 2431 1156 2273 1281 
Q 2116 1406 1581 1522 
L 1381 1569 
Q 847 1681 609 1914 
Q 372 2147 372 2553 
Q 372 3047 722 3315 
Q 1072 3584 1716 3584 
Q 2034 3584 2315 3537 
Q 2597 3491 2834 3397 
z
" transform="scale(0.015625)"/>
      </defs>
      <use xlink:href="#DejaVuSans-47"/>
      <use xlink:href="#DejaVuSans-72" x="77.490234"/>
      <use xlink:href="#DejaVuSans-6f" x="116.353516"/>
      <use xlink:href="#DejaVuSans-75" x="177.535156"/>
      <use xlink:href="#DejaVuSans-70" x="240.914062"/>
      <use xlink:href="#DejaVuSans-73" x="304.390625"/>
     </g>
    </g>
   </g>
   <g id="matplotlib.axis_2">
    <g id="ytick_1">
     <g id="line2d_2">
      <defs>
       <path id="md620ac030b" d="M 0 0 
L -3.5 0 
" style="stroke: #000000; stroke-width: 0.8"/>
      </defs>
      <g>
       <use xlink:href="#md620ac030b" x="58.004688" y="297.829229" style="stroke: #000000; stroke-width: 0.8"/>
      </g>
     </g>
     <g id="text_3">
      <!-- 60 -->
      <g transform="translate(38.279688 301.628448) scale(0.1 -0.1)">
       <defs>
        <path id="DejaVuSans-36" d="M 2113 2584 
Q 1688 2584 1439 2293 
Q 1191 2003 1191 1497 
Q 1191 994 1439 701 
Q 1688 409 2113 409 
Q 2538 409 2786 701 
Q 3034 994 3034 1497 
Q 3034 2003 2786 2293 
Q 2538 2584 2113 2584 
z
M 3366 4563 
L 3366 3988 
Q 3128 4100 2886 4159 
Q 2644 4219 2406 4219 
Q 1781 4219 1451 3797 
Q 1122 3375 1075 2522 
Q 1259 2794 1537 2939 
Q 1816 3084 2150 3084 
Q 2853 3084 3261 2657 
Q 3669 2231 3669 1497 
Q 3669 778 3244 343 
Q 2819 -91 2113 -91 
Q 1303 -91 875 529 
Q 447 1150 447 2328 
Q 447 3434 972 4092 
Q 1497 4750 2381 4750 
Q 2619 4750 2861 4703 
Q 3103 4656 3366 4563 
z
" transform="scale(0.015625)"/>
        <path id="DejaVuSans-30" d="M 2034 4250 
Q 1547 4250 1301 3770 
Q 1056 3291 1056 2328 
Q 1056 1369 1301 889 
Q 1547 409 2034 409 
Q 2525 409 2770 889 
Q 3016 1369 3016 2328 
Q 3016 3291 2770 3770 
Q 2525 4250 2034 4250 
z
M 2034 4750 
Q 2819 4750 3233 4129 
Q 3647 3509 3647 2328 
Q 3647 1150 3233 529 
Q 2819 -91 2034 -91 
Q 1250 -91 836 529 
Q 422 1150 422 2328 
Q 422 3509 836 4129 
Q 1250 4750 2034 4750 
z
" transform="scale(0.015625)"/>
       </defs>
       <use xlink:href="#DejaVuSans-36"/>
       <use xlink:href="#DejaVuSans-30" x="63.623047"/>
      </g>
     </g>
    </g>
    <g id="ytick_2">
     <g id="line2d_3">
      <g>
       <use xlink:href="#md620ac030b" x="58.004688" y="227.934395" style="stroke: #000000; stroke-width: 0.8"/>
      </g>
     </g>
     <g id="text_4">
      <!-- 80 -->
      <g transform="translate(38.279688 231.733614) scale(0.1 -0.1)">
       <defs>
        <path id="DejaVuSans-38" d="M 2034 2216 
Q 1584 2216 1326 1975 
Q 1069 1734 1069 1313 
Q 1069 891 1326 650 
Q 1584 409 2034 409 
Q 2484 409 2743 651 
Q 3003 894 3003 1313 
Q 3003 1734 2745 1975 
Q 2488 2216 2034 2216 
z
M 1403 2484 
Q 997 2584 770 2862 
Q 544 3141 544 3541 
Q 544 4100 942 4425 
Q 1341 4750 2034 4750 
Q 2731 4750 3128 4425 
Q 3525 4100 3525 3541 
Q 3525 3141 3298 2862 
Q 3072 2584 2669 2484 
Q 3125 2378 3379 2068 
Q 3634 1759 3634 1313 
Q 3634 634 3220 271 
Q 2806 -91 2034 -91 
Q 1263 -91 848 271 
Q 434 634 434 1313 
Q 434 1759 690 2068 
Q 947 2378 1403 2484 
z
M 1172 3481 
Q 1172 3119 1398 2916 
Q 1625 2713 2034 2713 
Q 2441 2713 2670 2916 
Q 2900 3119 2900 3481 
Q 2900 3844 2670 4047 
Q 2441 4250 2034 4250 
Q 1625 4250 1398 4047 
Q 1172 3844 1172 3481 
z
" transform="scale(0.015625)"/>
       </defs>
       <use xlink:href="#DejaVuSans-38"/>
       <use xlink:href="#DejaVuSans-30" x="63.623047"/>
      </g>
     </g>
    </g>
    <g id="ytick_3">
     <g id="line2d_4">
      <g>
       <use xlink:href="#md620ac030b" x="58.004688" y="158.039561" style="stroke: #000000; stroke-width: 0.8"/>
      </g>
     </g>
     <g id="text_5">
      <!-- 100 -->
      <g transform="translate(31.917188 161.83878) scale(0.1 -0.1)">
       <defs>
        <path id="DejaVuSans-31" d="M 794 531 
L 1825 531 
L 1825 4091 
L 703 3866 
L 703 4441 
L 1819 4666 
L 2450 4666 
L 2450 531 
L 3481 531 
L 3481 0 
L 794 0 
L 794 531 
z
" transform="scale(0.015625)"/>
       </defs>
       <use xlink:href="#DejaVuSans-31"/>
       <use xlink:href="#DejaVuSans-30" x="63.623047"/>
       <use xlink:href="#DejaVuSans-30" x="127.246094"/>
      </g>
     </g>
    </g>
    <g id="ytick_4">
     <g id="line2d_5">
      <g>
       <use xlink:href="#md620ac030b" x="58.004688" y="88.144727" style="stroke: #000000; stroke-width: 0.8"/>
      </g>
     </g>
     <g id="text_6">
      <!-- 120 -->
      <g transform="translate(31.917188 91.943945) scale(0.1 -0.1)">
       <defs>
        <path id="DejaVuSans-32" d="M 1228 531 
L 3431 531 
L 3431 0 
L 469 0 
L 469 531 
Q 828 903 1448 1529 
Q 2069 2156 2228 2338 
Q 2531 2678 2651 2914 
Q 2772 3150 2772 3378 
Q 2772 3750 2511 3984 
Q 2250 4219 1831 4219 
Q 1534 4219 1204 4116 
Q 875 4013 500 3803 
L 500 4441 
Q 881 4594 1212 4672 
Q 1544 4750 1819 4750 
Q 2544 4750 2975 4387 
Q 3406 4025 3406 3419 
Q 3406 3131 3298 2873 
Q 3191 2616 2906 2266 
Q 2828 2175 2409 1742 
Q 1991 1309 1228 531 
z
" transform="scale(0.015625)"/>
       </defs>
       <use xlink:href="#DejaVuSans-31"/>
       <use xlink:href="#DejaVuSans-32" x="63.623047"/>
       <use xlink:href="#DejaVuSans-30" x="127.246094"/>
      </g>
     </g>
    </g>
    <g id="text_7">
     <!-- Mean 1st Meal Time (minutes) -->
     <g transform="translate(25.005625 301.037031) rotate(-90) scale(0.14 -0.14)">
      <defs>
       <path id="DejaVuSans-4d" d="M 628 4666 
L 1569 4666 
L 2759 1491 
L 3956 4666 
L 4897 4666 
L 4897 0 
L 4281 0 
L 4281 4097 
L 3078 897 
L 2444 897 
L 1241 4097 
L 1241 0 
L 628 0 
L 628 4666 
z
" transform="scale(0.015625)"/>
       <path id="DejaVuSans-6e" d="M 3513 2113 
L 3513 0 
L 2938 0 
L 2938 2094 
Q 2938 2591 2744 2837 
Q 2550 3084 2163 3084 
Q 1697 3084 1428 2787 
Q 1159 2491 1159 1978 
L 1159 0 
L 581 0 
L 581 3500 
L 1159 3500 
L 1159 2956 
Q 1366 3272 1645 3428 
Q 1925 3584 2291 3584 
Q 2894 3584 3203 3211 
Q 3513 2838 3513 2113 
z
" transform="scale(0.015625)"/>
       <path id="DejaVuSans-20" transform="scale(0.015625)"/>
       <path id="DejaVuSans-74" d="M 1172 4494 
L 1172 3500 
L 2356 3500 
L 2356 3053 
L 1172 3053 
L 1172 1153 
Q 1172 725 1289 603 
Q 1406 481 1766 481 
L 2356 481 
L 2356 0 
L 1766 0 
Q 1100 0 847 248 
Q 594 497 594 1153 
L 594 3053 
L 172 3053 
L 172 3500 
L 594 3500 
L 594 4494 
L 1172 4494 
z
" transform="scale(0.015625)"/>
       <path id="DejaVuSans-54" d="M -19 4666 
L 3928 4666 
L 3928 4134 
L 2272 4134 
L 2272 0 
L 1638 0 
L 1638 4134 
L -19 4134 
L -19 4666 
z
" transform="scale(0.015625)"/>
       <path id="DejaVuSans-69" d="M 603 3500 
L 1178 3500 
L 1178 0 
L 603 0 
L 603 3500 
z
M 603 4863 
L 1178 4863 
L 1178 4134 
L 603 4134 
L 603 4863 
z
" transform="scale(0.015625)"/>
       <path id="DejaVuSans-28" d="M 1984 4856 
Q 1566 4138 1362 3434 
Q 1159 2731 1159 2009 
Q 1159 1288 1364 580 
Q 1569 -128 1984 -844 
L 1484 -844 
Q 1016 -109 783 600 
Q 550 1309 550 2009 
Q 550 2706 781 3412 
Q 1013 4119 1484 4856 
L 1984 4856 
z
" transform="scale(0.015625)"/>
       <path id="DejaVuSans-29" d="M 513 4856 
L 1013 4856 
Q 1481 4119 1714 3412 
Q 1947 2706 1947 2009 
Q 1947 1309 1714 600 
Q 1481 -109 1013 -844 
L 513 -844 
Q 928 -128 1133 580 
Q 1338 1288 1338 2009 
Q 1338 2731 1133 3434 
Q 928 4138 513 4856 
z
" transform="scale(0.015625)"/>
      </defs>
      <use xlink:href="#DejaVuSans-4d"/>
      <use xlink:href="#DejaVuSans-65" x="86.279297"/>
      <use xlink:href="#DejaVuSans-61" x="147.802734"/>
      <use xlink:href="#DejaVuSans-6e" x="209.082031"/>
      <use xlink:href="#DejaVuSans-20" x="272.460938"/>
      <use xlink:href="#DejaVuSans-31" x="304.248047"/>
      <use xlink:href="#DejaVuSans-73" x="367.871094"/>
      <use xlink:href="#DejaVuSans-74" x="419.970703"/>
      <use xlink:href="#DejaVuSans-20" x="459.179688"/>
      <use xlink:href="#DejaVuSans-4d" x="490.966797"/>
      <use xlink:href="#DejaVuSans-65" x="577.246094"/>
      <use xlink:href="#DejaVuSans-61" x="638.769531"/>
      <use xlink:href="#DejaVuSans-6c" x="700.048828"/>
      <use xlink:href="#DejaVuSans-20" x="727.832031"/>
      <use xlink:href="#DejaVuSans-54" x="759.619141"/>
      <use xlink:href="#DejaVuSans-69" x="817.578125"/>
      <use xlink:href="#DejaVuSans-6d" x="845.361328"/>
      <use xlink:href="#DejaVuSans-65" x="942.773438"/>
      <use xlink:href="#DejaVuSans-20" x="1004.296875"/>
      <use xlink:href="#DejaVuSans-28" x="1036.083984"/>
      <use xlink:href="#DejaVuSans-6d" x="1075.097656"/>
      <use xlink:href="#DejaVuSans-69" x="1172.509766"/>
      <use xlink:href="#DejaVuSans-6e" x="1200.292969"/>
      <use xlink:href="#DejaVuSans-75" x="1263.671875"/>
      <use xlink:href="#DejaVuSans-74" x="1327.050781"/>
      <use xlink:href="#DejaVuSans-65" x="1366.259766"/>
      <use xlink:href="#DejaVuSans-73" x="1427.783203"/>
      <use xlink:href="#DejaVuSans-29" x="1479.882812"/>
     </g>
    </g>
   </g>
   <g id="patch_3">
    <path d="M 200.294688 306.072451 
L 250.514687 306.072451 
L 250.514687 203.628466 
L 200.294688 203.628466 
L 200.294688 306.072451 
z
" clip-path="url(#p3c1232bb03)" style="fill: #ffffff; stroke: #000000; stroke-linejoin: miter"/>
   </g>
   <g id="line2d_6">
    <path d="M 225.404688 306.072451 
L 225.404688 345.916875 
" clip-path="url(#p3c1232bb03)" style="fill: none; stroke: #000000; stroke-linecap: square"/>
   </g>
   <g id="line2d_7">
    <path d="M 225.404688 203.628466 
L 225.404688 172.752423 
" clip-path="url(#p3c1232bb03)" style="fill: none; stroke: #000000; stroke-linecap: square"/>
   </g>
   <g id="line2d_8">
    <path d="M 212.849688 345.916875 
L 237.959688 345.916875 
" clip-path="url(#p3c1232bb03)" style="fill: none; stroke: #000000; stroke-linecap: square"/>
   </g>
   <g id="line2d_9">
    <path d="M 212.849688 172.752423 
L 237.959688 172.752423 
" clip-path="url(#p3c1232bb03)" style="fill: none; stroke: #000000; stroke-linecap: square"/>
   </g>
   <g id="line2d_10">
    <path d="M 200.294688 259.876334 
L 250.514687 259.876334 
" clip-path="url(#p3c1232bb03)" style="fill: none; stroke: #000000"/>
   </g>
   <g id="patch_4">
    <path d="M 58.004688 361.036875 
L 58.004688 28.396875 
" style="fill: none; stroke: #000000; stroke-width: 0.8; stroke-linejoin: miter; stroke-linecap: square"/>
   </g>
   <g id="patch_5">
    <path d="M 392.804688 361.036875 
L 392.804688 28.396875 
" style="fill: none; stroke: #000000; stroke-width: 0.8; stroke-linejoin: miter; stroke-linecap: square"/>
   </g>
   <g id="patch_6">
    <path d="M 58.004688 361.036875 
L 392.804688 361.036875 
" style="fill: none; stroke: #000000; stroke-width: 0.8; stroke-linejoin: miter; stroke-linecap: square"/>
   </g>
   <g id="patch_7">
    <path d="M 58.004688 28.396875 
L 392.804688 28.396875 
" style="fill: none; stroke: #000000; stroke-width: 0.8; stroke-linejoin: miter; stroke-linecap: square"/>
   </g>
   <g id="PathCollection_1">
    <defs>
     <path id="m0f8c8dcd97" d="M 0 3 
C 0.795609 3 1.55874 2.683901 2.12132 2.12132 
C 2.683901 1.55874 3 0.795609 3 0 
C 3 -0.795609 2.683901 -1.55874 2.12132 -2.12132 
C 1.55874 -2.683901 0.795609 -3 0 -3 
C -0.795609 -3 -1.55874 -2.683901 -2.12132 -2.12132 
C -2.683901 -1.55874 -3 -0.795609 -3 0 
C -3 0.795609 -2.683901 1.55874 -2.12132 2.12132 
C -1.55874 2.683901 -0.795609 3 0 3 
z
" style="stroke: #0000ff; stroke-opacity: 0.8"/>
    </defs>
    <g clip-path="url(#p3c1232bb03)">
     <use xlink:href="#m0f8c8dcd97" x="219.055548" y="245.320735" style="fill: #0000ff; fill-opacity: 0.8; stroke: #0000ff; stroke-opacity: 0.8"/>
     <use xlink:href="#m0f8c8dcd97" x="232.798937" y="290.612587" style="fill: #0000ff; fill-opacity: 0.8; stroke: #0000ff; stroke-opacity: 0.8"/>
     <use xlink:href="#m0f8c8dcd97" x="235.901165" y="172.752423" style="fill: #0000ff; fill-opacity: 0.8; stroke: #0000ff; stroke-opacity: 0.8"/>
     <use xlink:href="#m0f8c8dcd97" x="218.496371" y="345.916875" style="fill: #0000ff; fill-opacity: 0.8; stroke: #0000ff; stroke-opacity: 0.8"/>
     <use xlink:href="#m0f8c8dcd97" x="229.14249" y="191.833713" style="fill: #0000ff; fill-opacity: 0.8; stroke: #0000ff; stroke-opacity: 0.8"/>
     <use xlink:href="#m0f8c8dcd97" x="236.525595" y="174.657058" style="fill: #0000ff; fill-opacity: 0.8; stroke: #0000ff; stroke-opacity: 0.8"/>
     <use xlink:href="#m0f8c8dcd97" x="212.934562" y="191.833713" style="fill: #0000ff; fill-opacity: 0.8; stroke: #0000ff; stroke-opacity: 0.8"/>
     <use xlink:href="#m0f8c8dcd97" x="221.440353" y="311.982933" style="fill: #0000ff; fill-opacity: 0.8; stroke: #0000ff; stroke-opacity: 0.8"/>
     <use xlink:href="#m0f8c8dcd97" x="217.583759" y="305.674924" style="fill: #0000ff; fill-opacity: 0.8; stroke: #0000ff; stroke-opacity: 0.8"/>
     <use xlink:href="#m0f8c8dcd97" x="227.605993" y="43.516875" style="fill: #0000ff; fill-opacity: 0.8; stroke: #0000ff; stroke-opacity: 0.8"/>
     <use xlink:href="#m0f8c8dcd97" x="232.311545" y="307.544611" style="fill: #0000ff; fill-opacity: 0.8; stroke: #0000ff; stroke-opacity: 0.8"/>
     <use xlink:href="#m0f8c8dcd97" x="230.214376" y="207.560051" style="fill: #0000ff; fill-opacity: 0.8; stroke: #0000ff; stroke-opacity: 0.8"/>
     <use xlink:href="#m0f8c8dcd97" x="222.053343" y="338.665286" style="fill: #0000ff; fill-opacity: 0.8; stroke: #0000ff; stroke-opacity: 0.8"/>
     <use xlink:href="#m0f8c8dcd97" x="218.025659" y="259.561807" style="fill: #0000ff; fill-opacity: 0.8; stroke: #0000ff; stroke-opacity: 0.8"/>
     <use xlink:href="#m0f8c8dcd97" x="233.162031" y="280.77489" style="fill: #0000ff; fill-opacity: 0.8; stroke: #0000ff; stroke-opacity: 0.8"/>
     <use xlink:href="#m0f8c8dcd97" x="236.44032" y="307.265032" style="fill: #0000ff; fill-opacity: 0.8; stroke: #0000ff; stroke-opacity: 0.8"/>
     <use xlink:href="#m0f8c8dcd97" x="225.524559" y="259.631702" style="fill: #0000ff; fill-opacity: 0.8; stroke: #0000ff; stroke-opacity: 0.8"/>
     <use xlink:href="#m0f8c8dcd97" x="230.138889" y="279.07994" style="fill: #0000ff; fill-opacity: 0.8; stroke: #0000ff; stroke-opacity: 0.8"/>
     <use xlink:href="#m0f8c8dcd97" x="220.253815" y="260.120966" style="fill: #0000ff; fill-opacity: 0.8; stroke: #0000ff; stroke-opacity: 0.8"/>
     <use xlink:href="#m0f8c8dcd97" x="228.494753" y="247.714633" style="fill: #0000ff; fill-opacity: 0.8; stroke: #0000ff; stroke-opacity: 0.8"/>
    </g>
   </g>
   <g id="text_8">
    <!-- Mean 1st Meal Time Distribution for Female -->
    <g transform="translate(7.2 22.396875) scale(0.2 -0.2)">
     <defs>
      <path id="DejaVuSans-44" d="M 1259 4147 
L 1259 519 
L 2022 519 
Q 2988 519 3436 956 
Q 3884 1394 3884 2338 
Q 3884 3275 3436 3711 
Q 2988 4147 2022 4147 
L 1259 4147 
z
M 628 4666 
L 1925 4666 
Q 3281 4666 3915 4102 
Q 4550 3538 4550 2338 
Q 4550 1131 3912 565 
Q 3275 0 1925 0 
L 628 0 
L 628 4666 
z
" transform="scale(0.015625)"/>
      <path id="DejaVuSans-62" d="M 3116 1747 
Q 3116 2381 2855 2742 
Q 2594 3103 2138 3103 
Q 1681 3103 1420 2742 
Q 1159 2381 1159 1747 
Q 1159 1113 1420 752 
Q 1681 391 2138 391 
Q 2594 391 2855 752 
Q 3116 1113 3116 1747 
z
M 1159 2969 
Q 1341 3281 1617 3432 
Q 1894 3584 2278 3584 
Q 2916 3584 3314 3078 
Q 3713 2572 3713 1747 
Q 3713 922 3314 415 
Q 2916 -91 2278 -91 
Q 1894 -91 1617 61 
Q 1341 213 1159 525 
L 1159 0 
L 581 0 
L 581 4863 
L 1159 4863 
L 1159 2969 
z
" transform="scale(0.015625)"/>
      <path id="DejaVuSans-66" d="M 2375 4863 
L 2375 4384 
L 1825 4384 
Q 1516 4384 1395 4259 
Q 1275 4134 1275 3809 
L 1275 3500 
L 2222 3500 
L 2222 3053 
L 1275 3053 
L 1275 0 
L 697 0 
L 697 3053 
L 147 3053 
L 147 3500 
L 697 3500 
L 697 3744 
Q 697 4328 969 4595 
Q 1241 4863 1831 4863 
L 2375 4863 
z
" transform="scale(0.015625)"/>
     </defs>
     <use xlink:href="#DejaVuSans-4d"/>
     <use xlink:href="#DejaVuSans-65" x="86.279297"/>
     <use xlink:href="#DejaVuSans-61" x="147.802734"/>
     <use xlink:href="#DejaVuSans-6e" x="209.082031"/>
     <use xlink:href="#DejaVuSans-20" x="272.460938"/>
     <use xlink:href="#DejaVuSans-31" x="304.248047"/>
     <use xlink:href="#DejaVuSans-73" x="367.871094"/>
     <use xlink:href="#DejaVuSans-74" x="419.970703"/>
     <use xlink:href="#DejaVuSans-20" x="459.179688"/>
     <use xlink:href="#DejaVuSans-4d" x="490.966797"/>
     <use xlink:href="#DejaVuSans-65" x="577.246094"/>
     <use xlink:href="#DejaVuSans-61" x="638.769531"/>
     <use xlink:href="#DejaVuSans-6c" x="700.048828"/>
     <use xlink:href="#DejaVuSans-20" x="727.832031"/>
     <use xlink:href="#DejaVuSans-54" x="759.619141"/>
     <use xlink:href="#DejaVuSans-69" x="817.578125"/>
     <use xlink:href="#DejaVuSans-6d" x="845.361328"/>
     <use xlink:href="#DejaVuSans-65" x="942.773438"/>
     <use xlink:href="#DejaVuSans-20" x="1004.296875"/>
     <use xlink:href="#DejaVuSans-44" x="1036.083984"/>
     <use xlink:href="#DejaVuSans-69" x="1113.085938"/>
     <use xlink:href="#DejaVuSans-73" x="1140.869141"/>
     <use xlink:href="#DejaVuSans-74" x="1192.96875"/>
     <use xlink:href="#DejaVuSans-72" x="1232.177734"/>
     <use xlink:href="#DejaVuSans-69" x="1273.291016"/>
     <use xlink:href="#DejaVuSans-62" x="1301.074219"/>
     <use xlink:href="#DejaVuSans-75" x="1364.550781"/>
     <use xlink:href="#DejaVuSans-74" x="1427.929688"/>
     <use xlink:href="#DejaVuSans-69" x="1467.138672"/>
     <use xlink:href="#DejaVuSans-6f" x="1494.921875"/>
     <use xlink:href="#DejaVuSans-6e" x="1556.103516"/>
     <use xlink:href="#DejaVuSans-20" x="1619.482422"/>
     <use xlink:href="#DejaVuSans-66" x="1651.269531"/>
     <use xlink:href="#DejaVuSans-6f" x="1686.474609"/>
     <use xlink:href="#DejaVuSans-72" x="1747.65625"/>
     <use xlink:href="#DejaVuSans-20" x="1788.769531"/>
     <use xlink:href="#DejaVuSans-46" x="1820.556641"/>
     <use xlink:href="#DejaVuSans-65" x="1872.576172"/>
     <use xlink:href="#DejaVuSans-6d" x="1934.099609"/>
     <use xlink:href="#DejaVuSans-61" x="2031.511719"/>
     <use xlink:href="#DejaVuSans-6c" x="2092.791016"/>
     <use xlink:href="#DejaVuSans-65" x="2120.574219"/>
    </g>
   </g>
   <g id="legend_1">
    <g id="patch_8">
     <path d="M 272.870313 51.075 
L 385.804688 51.075 
Q 387.804688 51.075 387.804688 49.075 
L 387.804688 35.396875 
Q 387.804688 33.396875 385.804688 33.396875 
L 272.870313 33.396875 
Q 270.870313 33.396875 270.870313 35.396875 
L 270.870313 49.075 
Q 270.870313 51.075 272.870313 51.075 
z
" style="fill: #ffffff; opacity: 0.8; stroke: #cccccc; stroke-linejoin: miter"/>
    </g>
    <g id="patch_9">
     <path d="M 274.870313 44.995312 
L 294.870313 44.995312 
L 294.870313 37.995312 
L 274.870313 37.995312 
z
" style="fill: #38bcf5; opacity: 0.6; stroke: #38bcf5; stroke-linejoin: miter"/>
    </g>
    <g id="text_9">
     <!-- Female (n = 20) -->
     <g transform="translate(302.870313 44.995312) scale(0.1 -0.1)">
      <defs>
       <path id="DejaVuSans-3d" d="M 678 2906 
L 4684 2906 
L 4684 2381 
L 678 2381 
L 678 2906 
z
M 678 1631 
L 4684 1631 
L 4684 1100 
L 678 1100 
L 678 1631 
z
" transform="scale(0.015625)"/>
      </defs>
      <use xlink:href="#DejaVuSans-46"/>
      <use xlink:href="#DejaVuSans-65" x="52.019531"/>
      <use xlink:href="#DejaVuSans-6d" x="113.542969"/>
      <use xlink:href="#DejaVuSans-61" x="210.955078"/>
      <use xlink:href="#DejaVuSans-6c" x="272.234375"/>
      <use xlink:href="#DejaVuSans-65" x="300.017578"/>
      <use xlink:href="#DejaVuSans-20" x="361.541016"/>
      <use xlink:href="#DejaVuSans-28" x="393.328125"/>
      <use xlink:href="#DejaVuSans-6e" x="432.341797"/>
      <use xlink:href="#DejaVuSans-20" x="495.720703"/>
      <use xlink:href="#DejaVuSans-3d" x="527.507812"/>
      <use xlink:href="#DejaVuSans-20" x="611.296875"/>
      <use xlink:href="#DejaVuSans-32" x="643.083984"/>
      <use xlink:href="#DejaVuSans-30" x="706.707031"/>
      <use xlink:href="#DejaVuSans-29" x="770.330078"/>
     </g>
    </g>
   </g>
  </g>
 </g>
 <defs>
  <clipPath id="p3c1232bb03">
   <rect x="58.004688" y="28.396875" width="334.8" height="332.64"/>
  </clipPath>
 </defs>
</svg>
