<?xml version="1.0" encoding="utf-8" standalone="no"?>
<!DOCTYPE svg PUBLIC "-//W3C//DTD SVG 1.1//EN"
  "http://www.w3.org/Graphics/SVG/1.1/DTD/svg11.dtd">
<svg xmlns:xlink="http://www.w3.org/1999/xlink" width="409.372812pt" height="402.464375pt" viewBox="0 0 409.372812 402.464375" xmlns="http://www.w3.org/2000/svg" version="1.1">
 <metadata>
  <rdf:RDF xmlns:dc="http://purl.org/dc/elements/1.1/" xmlns:cc="http://creativecommons.org/ns#" xmlns:rdf="http://www.w3.org/1999/02/22-rdf-syntax-ns#">
   <cc:Work>
    <dc:type rdf:resource="http://purl.org/dc/dcmitype/StillImage"/>
    <dc:date>2025-07-29T18:08:48.348348</dc:date>
    <dc:format>image/svg+xml</dc:format>
    <dc:creator>
     <cc:Agent>
      <dc:title>Matplotlib v3.8.4, https://matplotlib.org/</dc:title>
     </cc:Agent>
    </dc:creator>
   </cc:Work>
  </rdf:RDF>
 </metadata>
 <defs>
  <style type="text/css">*{stroke-linejoin: round; stroke-linecap: butt}</style>
 </defs>
 <g id="figure_1">
  <g id="patch_1">
   <path d="M 0 402.464375 
L 409.372812 402.464375 
L 409.372812 0 
L 0 0 
z
" style="fill: #ffffff"/>
  </g>
  <g id="axes_1">
   <g id="patch_2">
    <path d="M 44.474375 361.036875 
L 379.274375 361.036875 
L 379.274375 28.396875 
L 44.474375 28.396875 
z
" style="fill: #ffffff"/>
   </g>
   <g id="PolyCollection_1">
    <defs>
     <path id="m3fc0ed8f1f" d="M 229.261132 -56.5475 
L 194.487618 -56.5475 
L 193.472184 -59.602045 
L 192.431953 -62.656591 
L 191.368335 -65.711136 
L 190.282835 -68.765682 
L 189.17706 -71.820227 
L 188.052725 -74.874773 
L 186.911665 -77.929318 
L 185.755851 -80.983864 
L 184.587404 -84.038409 
L 183.408615 -87.092955 
L 182.221962 -90.1475 
L 181.030133 -93.202045 
L 179.836042 -96.256591 
L 178.642848 -99.311136 
L 177.45397 -102.365682 
L 176.273097 -105.420227 
L 175.104195 -108.474773 
L 173.951508 -111.529318 
L 172.819548 -114.583864 
L 171.713083 -117.638409 
L 170.637109 -120.692955 
L 169.596823 -123.7475 
L 168.597572 -126.802045 
L 167.644812 -129.856591 
L 166.744038 -132.911136 
L 165.900723 -135.965682 
L 165.120239 -139.020227 
L 164.407779 -142.074773 
L 163.768272 -145.129318 
L 163.206296 -148.183864 
L 162.725997 -151.238409 
L 162.331004 -154.292955 
L 162.024347 -157.3475 
L 161.808395 -160.402045 
L 161.684784 -163.456591 
L 161.654375 -166.511136 
L 161.717208 -169.565682 
L 161.872482 -172.620227 
L 162.118541 -175.674773 
L 162.452883 -178.729318 
L 162.872176 -181.783864 
L 163.372299 -184.838409 
L 163.948384 -187.892955 
L 164.594887 -190.9475 
L 165.305657 -194.002045 
L 166.074024 -197.056591 
L 166.892893 -200.111136 
L 167.75484 -203.165682 
L 168.65222 -206.220227 
L 169.577268 -209.274773 
L 170.522209 -212.329318 
L 171.479354 -215.383864 
L 172.441203 -218.438409 
L 173.400536 -221.492955 
L 174.350493 -224.5475 
L 175.284656 -227.602045 
L 176.197109 -230.656591 
L 177.082495 -233.711136 
L 177.936062 -236.765682 
L 178.753693 -239.820227 
L 179.531933 -242.874773 
L 180.267995 -245.929318 
L 180.959772 -248.983864 
L 181.605819 -252.038409 
L 182.205351 -255.092955 
L 182.758212 -258.1475 
L 183.264849 -261.202045 
L 183.726284 -264.256591 
L 184.144067 -267.311136 
L 184.520245 -270.365682 
L 184.857311 -273.420227 
L 185.158158 -276.474773 
L 185.426038 -279.529318 
L 185.664507 -282.583864 
L 185.87738 -285.638409 
L 186.068683 -288.692955 
L 186.242598 -291.7475 
L 186.403424 -294.802045 
L 186.55552 -297.856591 
L 186.703261 -300.911136 
L 186.850993 -303.965682 
L 187.00298 -307.020227 
L 187.163364 -310.074773 
L 187.336116 -313.129318 
L 187.524996 -316.183864 
L 187.733507 -319.238409 
L 187.964859 -322.292955 
L 188.221927 -325.3475 
L 188.507222 -328.402045 
L 188.822855 -331.456591 
L 189.170515 -334.511136 
L 189.551444 -337.565682 
L 189.966426 -340.620227 
L 190.415769 -343.674773 
L 190.899309 -346.729318 
L 191.416411 -349.783864 
L 191.965976 -352.838409 
L 192.546462 -355.892955 
L 193.155909 -358.9475 
L 230.592841 -358.9475 
L 230.592841 -358.9475 
L 231.202288 -355.892955 
L 231.782774 -352.838409 
L 232.332339 -349.783864 
L 232.849441 -346.729318 
L 233.332981 -343.674773 
L 233.782324 -340.620227 
L 234.197306 -337.565682 
L 234.578235 -334.511136 
L 234.925895 -331.456591 
L 235.241528 -328.402045 
L 235.526823 -325.3475 
L 235.783891 -322.292955 
L 236.015243 -319.238409 
L 236.223754 -316.183864 
L 236.412634 -313.129318 
L 236.585386 -310.074773 
L 236.74577 -307.020227 
L 236.897757 -303.965682 
L 237.045489 -300.911136 
L 237.19323 -297.856591 
L 237.345326 -294.802045 
L 237.506152 -291.7475 
L 237.680067 -288.692955 
L 237.87137 -285.638409 
L 238.084243 -282.583864 
L 238.322712 -279.529318 
L 238.590592 -276.474773 
L 238.891439 -273.420227 
L 239.228505 -270.365682 
L 239.604683 -267.311136 
L 240.022466 -264.256591 
L 240.483901 -261.202045 
L 240.990538 -258.1475 
L 241.543399 -255.092955 
L 242.142931 -252.038409 
L 242.788978 -248.983864 
L 243.480755 -245.929318 
L 244.216817 -242.874773 
L 244.995057 -239.820227 
L 245.812688 -236.765682 
L 246.666255 -233.711136 
L 247.551641 -230.656591 
L 248.464094 -227.602045 
L 249.398257 -224.5475 
L 250.348214 -221.492955 
L 251.307547 -218.438409 
L 252.269396 -215.383864 
L 253.226541 -212.329318 
L 254.171482 -209.274773 
L 255.09653 -206.220227 
L 255.99391 -203.165682 
L 256.855857 -200.111136 
L 257.674726 -197.056591 
L 258.443093 -194.002045 
L 259.153863 -190.9475 
L 259.800366 -187.892955 
L 260.376451 -184.838409 
L 260.876574 -181.783864 
L 261.295867 -178.729318 
L 261.630209 -175.674773 
L 261.876268 -172.620227 
L 262.031542 -169.565682 
L 262.094375 -166.511136 
L 262.063966 -163.456591 
L 261.940355 -160.402045 
L 261.724403 -157.3475 
L 261.417746 -154.292955 
L 261.022753 -151.238409 
L 260.542454 -148.183864 
L 259.980478 -145.129318 
L 259.340971 -142.074773 
L 258.628511 -139.020227 
L 257.848027 -135.965682 
L 257.004712 -132.911136 
L 256.103938 -129.856591 
L 255.151178 -126.802045 
L 254.151927 -123.7475 
L 253.111641 -120.692955 
L 252.035667 -117.638409 
L 250.929202 -114.583864 
L 249.797242 -111.529318 
L 248.644555 -108.474773 
L 247.475653 -105.420227 
L 246.29478 -102.365682 
L 245.105902 -99.311136 
L 243.912708 -96.256591 
L 242.718617 -93.202045 
L 241.526788 -90.1475 
L 240.340135 -87.092955 
L 239.161346 -84.038409 
L 237.992899 -80.983864 
L 236.837085 -77.929318 
L 235.696025 -74.874773 
L 234.57169 -71.820227 
L 233.465915 -68.765682 
L 232.380415 -65.711136 
L 231.316797 -62.656591 
L 230.276566 -59.602045 
L 229.261132 -56.5475 
z
" style="stroke: #000000; stroke-opacity: 0.6"/>
    </defs>
    <g clip-path="url(#p16009fe617)">
     <use xlink:href="#m3fc0ed8f1f" x="0" y="402.464375" style="fill: #38bcf5; fill-opacity: 0.6; stroke: #000000; stroke-opacity: 0.6"/>
    </g>
   </g>
   <g id="matplotlib.axis_1">
    <g id="xtick_1">
     <g id="line2d_1">
      <defs>
       <path id="m828f1985e6" d="M 0 0 
L 0 3.5 
" style="stroke: #000000; stroke-width: 0.8"/>
      </defs>
      <g>
       <use xlink:href="#m828f1985e6" x="211.874375" y="361.036875" style="stroke: #000000; stroke-width: 0.8"/>
      </g>
     </g>
     <g id="text_1">
      <!-- Female -->
      <g transform="translate(193.797031 375.635312) scale(0.1 -0.1)">
       <defs>
        <path id="DejaVuSans-46" d="M 628 4666 
L 3309 4666 
L 3309 4134 
L 1259 4134 
L 1259 2759 
L 3109 2759 
L 3109 2228 
L 1259 2228 
L 1259 0 
L 628 0 
L 628 4666 
z
" transform="scale(0.015625)"/>
        <path id="DejaVuSans-65" d="M 3597 1894 
L 3597 1613 
L 953 1613 
Q 991 1019 1311 708 
Q 1631 397 2203 397 
Q 2534 397 2845 478 
Q 3156 559 3463 722 
L 3463 178 
Q 3153 47 2828 -22 
Q 2503 -91 2169 -91 
Q 1331 -91 842 396 
Q 353 884 353 1716 
Q 353 2575 817 3079 
Q 1281 3584 2069 3584 
Q 2775 3584 3186 3129 
Q 3597 2675 3597 1894 
z
M 3022 2063 
Q 3016 2534 2758 2815 
Q 2500 3097 2075 3097 
Q 1594 3097 1305 2825 
Q 1016 2553 972 2059 
L 3022 2063 
z
" transform="scale(0.015625)"/>
        <path id="DejaVuSans-6d" d="M 3328 2828 
Q 3544 3216 3844 3400 
Q 4144 3584 4550 3584 
Q 5097 3584 5394 3201 
Q 5691 2819 5691 2113 
L 5691 0 
L 5113 0 
L 5113 2094 
Q 5113 2597 4934 2840 
Q 4756 3084 4391 3084 
Q 3944 3084 3684 2787 
Q 3425 2491 3425 1978 
L 3425 0 
L 2847 0 
L 2847 2094 
Q 2847 2600 2669 2842 
Q 2491 3084 2119 3084 
Q 1678 3084 1418 2786 
Q 1159 2488 1159 1978 
L 1159 0 
L 581 0 
L 581 3500 
L 1159 3500 
L 1159 2956 
Q 1356 3278 1631 3431 
Q 1906 3584 2284 3584 
Q 2666 3584 2933 3390 
Q 3200 3197 3328 2828 
z
" transform="scale(0.015625)"/>
        <path id="DejaVuSans-61" d="M 2194 1759 
Q 1497 1759 1228 1600 
Q 959 1441 959 1056 
Q 959 750 1161 570 
Q 1363 391 1709 391 
Q 2188 391 2477 730 
Q 2766 1069 2766 1631 
L 2766 1759 
L 2194 1759 
z
M 3341 1997 
L 3341 0 
L 2766 0 
L 2766 531 
Q 2569 213 2275 61 
Q 1981 -91 1556 -91 
Q 1019 -91 701 211 
Q 384 513 384 1019 
Q 384 1609 779 1909 
Q 1175 2209 1959 2209 
L 2766 2209 
L 2766 2266 
Q 2766 2663 2505 2880 
Q 2244 3097 1772 3097 
Q 1472 3097 1187 3025 
Q 903 2953 641 2809 
L 641 3341 
Q 956 3463 1253 3523 
Q 1550 3584 1831 3584 
Q 2591 3584 2966 3190 
Q 3341 2797 3341 1997 
z
" transform="scale(0.015625)"/>
        <path id="DejaVuSans-6c" d="M 603 4863 
L 1178 4863 
L 1178 0 
L 603 0 
L 603 4863 
z
" transform="scale(0.015625)"/>
       </defs>
       <use xlink:href="#DejaVuSans-46"/>
       <use xlink:href="#DejaVuSans-65" x="52.019531"/>
       <use xlink:href="#DejaVuSans-6d" x="113.542969"/>
       <use xlink:href="#DejaVuSans-61" x="210.955078"/>
       <use xlink:href="#DejaVuSans-6c" x="272.234375"/>
       <use xlink:href="#DejaVuSans-65" x="300.017578"/>
      </g>
     </g>
    </g>
    <g id="text_2">
     <!-- Groups -->
     <g transform="translate(186.920469 392.352812) scale(0.14 -0.14)">
      <defs>
       <path id="DejaVuSans-47" d="M 3809 666 
L 3809 1919 
L 2778 1919 
L 2778 2438 
L 4434 2438 
L 4434 434 
Q 4069 175 3628 42 
Q 3188 -91 2688 -91 
Q 1594 -91 976 548 
Q 359 1188 359 2328 
Q 359 3472 976 4111 
Q 1594 4750 2688 4750 
Q 3144 4750 3555 4637 
Q 3966 4525 4313 4306 
L 4313 3634 
Q 3963 3931 3569 4081 
Q 3175 4231 2741 4231 
Q 1884 4231 1454 3753 
Q 1025 3275 1025 2328 
Q 1025 1384 1454 906 
Q 1884 428 2741 428 
Q 3075 428 3337 486 
Q 3600 544 3809 666 
z
" transform="scale(0.015625)"/>
       <path id="DejaVuSans-72" d="M 2631 2963 
Q 2534 3019 2420 3045 
Q 2306 3072 2169 3072 
Q 1681 3072 1420 2755 
Q 1159 2438 1159 1844 
L 1159 0 
L 581 0 
L 581 3500 
L 1159 3500 
L 1159 2956 
Q 1341 3275 1631 3429 
Q 1922 3584 2338 3584 
Q 2397 3584 2469 3576 
Q 2541 3569 2628 3553 
L 2631 2963 
z
" transform="scale(0.015625)"/>
       <path id="DejaVuSans-6f" d="M 1959 3097 
Q 1497 3097 1228 2736 
Q 959 2375 959 1747 
Q 959 1119 1226 758 
Q 1494 397 1959 397 
Q 2419 397 2687 759 
Q 2956 1122 2956 1747 
Q 2956 2369 2687 2733 
Q 2419 3097 1959 3097 
z
M 1959 3584 
Q 2709 3584 3137 3096 
Q 3566 2609 3566 1747 
Q 3566 888 3137 398 
Q 2709 -91 1959 -91 
Q 1206 -91 779 398 
Q 353 888 353 1747 
Q 353 2609 779 3096 
Q 1206 3584 1959 3584 
z
" transform="scale(0.015625)"/>
       <path id="DejaVuSans-75" d="M 544 1381 
L 544 3500 
L 1119 3500 
L 1119 1403 
Q 1119 906 1312 657 
Q 1506 409 1894 409 
Q 2359 409 2629 706 
Q 2900 1003 2900 1516 
L 2900 3500 
L 3475 3500 
L 3475 0 
L 2900 0 
L 2900 538 
Q 2691 219 2414 64 
Q 2138 -91 1772 -91 
Q 1169 -91 856 284 
Q 544 659 544 1381 
z
M 1991 3584 
L 1991 3584 
z
" transform="scale(0.015625)"/>
       <path id="DejaVuSans-70" d="M 1159 525 
L 1159 -1331 
L 581 -1331 
L 581 3500 
L 1159 3500 
L 1159 2969 
Q 1341 3281 1617 3432 
Q 1894 3584 2278 3584 
Q 2916 3584 3314 3078 
Q 3713 2572 3713 1747 
Q 3713 922 3314 415 
Q 2916 -91 2278 -91 
Q 1894 -91 1617 61 
Q 1341 213 1159 525 
z
M 3116 1747 
Q 3116 2381 2855 2742 
Q 2594 3103 2138 3103 
Q 1681 3103 1420 2742 
Q 1159 2381 1159 1747 
Q 1159 1113 1420 752 
Q 1681 391 2138 391 
Q 2594 391 2855 752 
Q 3116 1113 3116 1747 
z
" transform="scale(0.015625)"/>
       <path id="DejaVuSans-73" d="M 2834 3397 
L 2834 2853 
Q 2591 2978 2328 3040 
Q 2066 3103 1784 3103 
Q 1356 3103 1142 2972 
Q 928 2841 928 2578 
Q 928 2378 1081 2264 
Q 1234 2150 1697 2047 
L 1894 2003 
Q 2506 1872 2764 1633 
Q 3022 1394 3022 966 
Q 3022 478 2636 193 
Q 2250 -91 1575 -91 
Q 1294 -91 989 -36 
Q 684 19 347 128 
L 347 722 
Q 666 556 975 473 
Q 1284 391 1588 391 
Q 1994 391 2212 530 
Q 2431 669 2431 922 
Q 2431 1156 2273 1281 
Q 2116 1406 1581 1522 
L 1381 1569 
Q 847 1681 609 1914 
Q 372 2147 372 2553 
Q 372 3047 722 3315 
Q 1072 3584 1716 3584 
Q 2034 3584 2315 3537 
Q 2597 3491 2834 3397 
z
" transform="scale(0.015625)"/>
      </defs>
      <use xlink:href="#DejaVuSans-47"/>
      <use xlink:href="#DejaVuSans-72" x="77.490234"/>
      <use xlink:href="#DejaVuSans-6f" x="116.353516"/>
      <use xlink:href="#DejaVuSans-75" x="177.535156"/>
      <use xlink:href="#DejaVuSans-70" x="240.914062"/>
      <use xlink:href="#DejaVuSans-73" x="304.390625"/>
     </g>
    </g>
   </g>
   <g id="matplotlib.axis_2">
    <g id="ytick_1">
     <g id="line2d_2">
      <defs>
       <path id="m609c54df5c" d="M 0 0 
L -3.5 0 
" style="stroke: #000000; stroke-width: 0.8"/>
      </defs>
      <g>
       <use xlink:href="#m609c54df5c" x="44.474375" y="316.019094" style="stroke: #000000; stroke-width: 0.8"/>
      </g>
     </g>
     <g id="text_3">
      <!-- 82 -->
      <g transform="translate(24.749375 319.818313) scale(0.1 -0.1)">
       <defs>
        <path id="DejaVuSans-38" d="M 2034 2216 
Q 1584 2216 1326 1975 
Q 1069 1734 1069 1313 
Q 1069 891 1326 650 
Q 1584 409 2034 409 
Q 2484 409 2743 651 
Q 3003 894 3003 1313 
Q 3003 1734 2745 1975 
Q 2488 2216 2034 2216 
z
M 1403 2484 
Q 997 2584 770 2862 
Q 544 3141 544 3541 
Q 544 4100 942 4425 
Q 1341 4750 2034 4750 
Q 2731 4750 3128 4425 
Q 3525 4100 3525 3541 
Q 3525 3141 3298 2862 
Q 3072 2584 2669 2484 
Q 3125 2378 3379 2068 
Q 3634 1759 3634 1313 
Q 3634 634 3220 271 
Q 2806 -91 2034 -91 
Q 1263 -91 848 271 
Q 434 634 434 1313 
Q 434 1759 690 2068 
Q 947 2378 1403 2484 
z
M 1172 3481 
Q 1172 3119 1398 2916 
Q 1625 2713 2034 2713 
Q 2441 2713 2670 2916 
Q 2900 3119 2900 3481 
Q 2900 3844 2670 4047 
Q 2441 4250 2034 4250 
Q 1625 4250 1398 4047 
Q 1172 3844 1172 3481 
z
" transform="scale(0.015625)"/>
        <path id="DejaVuSans-32" d="M 1228 531 
L 3431 531 
L 3431 0 
L 469 0 
L 469 531 
Q 828 903 1448 1529 
Q 2069 2156 2228 2338 
Q 2531 2678 2651 2914 
Q 2772 3150 2772 3378 
Q 2772 3750 2511 3984 
Q 2250 4219 1831 4219 
Q 1534 4219 1204 4116 
Q 875 4013 500 3803 
L 500 4441 
Q 881 4594 1212 4672 
Q 1544 4750 1819 4750 
Q 2544 4750 2975 4387 
Q 3406 4025 3406 3419 
Q 3406 3131 3298 2873 
Q 3191 2616 2906 2266 
Q 2828 2175 2409 1742 
Q 1991 1309 1228 531 
z
" transform="scale(0.015625)"/>
       </defs>
       <use xlink:href="#DejaVuSans-38"/>
       <use xlink:href="#DejaVuSans-32" x="63.623047"/>
      </g>
     </g>
    </g>
    <g id="ytick_2">
     <g id="line2d_3">
      <g>
       <use xlink:href="#m609c54df5c" x="44.474375" y="255.781003" style="stroke: #000000; stroke-width: 0.8"/>
      </g>
     </g>
     <g id="text_4">
      <!-- 84 -->
      <g transform="translate(24.749375 259.580221) scale(0.1 -0.1)">
       <defs>
        <path id="DejaVuSans-34" d="M 2419 4116 
L 825 1625 
L 2419 1625 
L 2419 4116 
z
M 2253 4666 
L 3047 4666 
L 3047 1625 
L 3713 1625 
L 3713 1100 
L 3047 1100 
L 3047 0 
L 2419 0 
L 2419 1100 
L 313 1100 
L 313 1709 
L 2253 4666 
z
" transform="scale(0.015625)"/>
       </defs>
       <use xlink:href="#DejaVuSans-38"/>
       <use xlink:href="#DejaVuSans-34" x="63.623047"/>
      </g>
     </g>
    </g>
    <g id="ytick_3">
     <g id="line2d_4">
      <g>
       <use xlink:href="#m609c54df5c" x="44.474375" y="195.542912" style="stroke: #000000; stroke-width: 0.8"/>
      </g>
     </g>
     <g id="text_5">
      <!-- 86 -->
      <g transform="translate(24.749375 199.34213) scale(0.1 -0.1)">
       <defs>
        <path id="DejaVuSans-36" d="M 2113 2584 
Q 1688 2584 1439 2293 
Q 1191 2003 1191 1497 
Q 1191 994 1439 701 
Q 1688 409 2113 409 
Q 2538 409 2786 701 
Q 3034 994 3034 1497 
Q 3034 2003 2786 2293 
Q 2538 2584 2113 2584 
z
M 3366 4563 
L 3366 3988 
Q 3128 4100 2886 4159 
Q 2644 4219 2406 4219 
Q 1781 4219 1451 3797 
Q 1122 3375 1075 2522 
Q 1259 2794 1537 2939 
Q 1816 3084 2150 3084 
Q 2853 3084 3261 2657 
Q 3669 2231 3669 1497 
Q 3669 778 3244 343 
Q 2819 -91 2113 -91 
Q 1303 -91 875 529 
Q 447 1150 447 2328 
Q 447 3434 972 4092 
Q 1497 4750 2381 4750 
Q 2619 4750 2861 4703 
Q 3103 4656 3366 4563 
z
" transform="scale(0.015625)"/>
       </defs>
       <use xlink:href="#DejaVuSans-38"/>
       <use xlink:href="#DejaVuSans-36" x="63.623047"/>
      </g>
     </g>
    </g>
    <g id="ytick_4">
     <g id="line2d_5">
      <g>
       <use xlink:href="#m609c54df5c" x="44.474375" y="135.304821" style="stroke: #000000; stroke-width: 0.8"/>
      </g>
     </g>
     <g id="text_6">
      <!-- 88 -->
      <g transform="translate(24.749375 139.104039) scale(0.1 -0.1)">
       <use xlink:href="#DejaVuSans-38"/>
       <use xlink:href="#DejaVuSans-38" x="63.623047"/>
      </g>
     </g>
    </g>
    <g id="ytick_5">
     <g id="line2d_6">
      <g>
       <use xlink:href="#m609c54df5c" x="44.474375" y="75.06673" style="stroke: #000000; stroke-width: 0.8"/>
      </g>
     </g>
     <g id="text_7">
      <!-- 90 -->
      <g transform="translate(24.749375 78.865948) scale(0.1 -0.1)">
       <defs>
        <path id="DejaVuSans-39" d="M 703 97 
L 703 672 
Q 941 559 1184 500 
Q 1428 441 1663 441 
Q 2288 441 2617 861 
Q 2947 1281 2994 2138 
Q 2813 1869 2534 1725 
Q 2256 1581 1919 1581 
Q 1219 1581 811 2004 
Q 403 2428 403 3163 
Q 403 3881 828 4315 
Q 1253 4750 1959 4750 
Q 2769 4750 3195 4129 
Q 3622 3509 3622 2328 
Q 3622 1225 3098 567 
Q 2575 -91 1691 -91 
Q 1453 -91 1209 -44 
Q 966 3 703 97 
z
M 1959 2075 
Q 2384 2075 2632 2365 
Q 2881 2656 2881 3163 
Q 2881 3666 2632 3958 
Q 2384 4250 1959 4250 
Q 1534 4250 1286 3958 
Q 1038 3666 1038 3163 
Q 1038 2656 1286 2365 
Q 1534 2075 1959 2075 
z
" transform="scale(0.015625)"/>
        <path id="DejaVuSans-30" d="M 2034 4250 
Q 1547 4250 1301 3770 
Q 1056 3291 1056 2328 
Q 1056 1369 1301 889 
Q 1547 409 2034 409 
Q 2525 409 2770 889 
Q 3016 1369 3016 2328 
Q 3016 3291 2770 3770 
Q 2525 4250 2034 4250 
z
M 2034 4750 
Q 2819 4750 3233 4129 
Q 3647 3509 3647 2328 
Q 3647 1150 3233 529 
Q 2819 -91 2034 -91 
Q 1250 -91 836 529 
Q 422 1150 422 2328 
Q 422 3509 836 4129 
Q 1250 4750 2034 4750 
z
" transform="scale(0.015625)"/>
       </defs>
       <use xlink:href="#DejaVuSans-39"/>
       <use xlink:href="#DejaVuSans-30" x="63.623047"/>
      </g>
     </g>
    </g>
    <g id="text_8">
     <!-- Meal Accuracy (%) -->
     <g transform="translate(17.837813 259.820156) rotate(-90) scale(0.14 -0.14)">
      <defs>
       <path id="DejaVuSans-4d" d="M 628 4666 
L 1569 4666 
L 2759 1491 
L 3956 4666 
L 4897 4666 
L 4897 0 
L 4281 0 
L 4281 4097 
L 3078 897 
L 2444 897 
L 1241 4097 
L 1241 0 
L 628 0 
L 628 4666 
z
" transform="scale(0.015625)"/>
       <path id="DejaVuSans-20" transform="scale(0.015625)"/>
       <path id="DejaVuSans-41" d="M 2188 4044 
L 1331 1722 
L 3047 1722 
L 2188 4044 
z
M 1831 4666 
L 2547 4666 
L 4325 0 
L 3669 0 
L 3244 1197 
L 1141 1197 
L 716 0 
L 50 0 
L 1831 4666 
z
" transform="scale(0.015625)"/>
       <path id="DejaVuSans-63" d="M 3122 3366 
L 3122 2828 
Q 2878 2963 2633 3030 
Q 2388 3097 2138 3097 
Q 1578 3097 1268 2742 
Q 959 2388 959 1747 
Q 959 1106 1268 751 
Q 1578 397 2138 397 
Q 2388 397 2633 464 
Q 2878 531 3122 666 
L 3122 134 
Q 2881 22 2623 -34 
Q 2366 -91 2075 -91 
Q 1284 -91 818 406 
Q 353 903 353 1747 
Q 353 2603 823 3093 
Q 1294 3584 2113 3584 
Q 2378 3584 2631 3529 
Q 2884 3475 3122 3366 
z
" transform="scale(0.015625)"/>
       <path id="DejaVuSans-79" d="M 2059 -325 
Q 1816 -950 1584 -1140 
Q 1353 -1331 966 -1331 
L 506 -1331 
L 506 -850 
L 844 -850 
Q 1081 -850 1212 -737 
Q 1344 -625 1503 -206 
L 1606 56 
L 191 3500 
L 800 3500 
L 1894 763 
L 2988 3500 
L 3597 3500 
L 2059 -325 
z
" transform="scale(0.015625)"/>
       <path id="DejaVuSans-28" d="M 1984 4856 
Q 1566 4138 1362 3434 
Q 1159 2731 1159 2009 
Q 1159 1288 1364 580 
Q 1569 -128 1984 -844 
L 1484 -844 
Q 1016 -109 783 600 
Q 550 1309 550 2009 
Q 550 2706 781 3412 
Q 1013 4119 1484 4856 
L 1984 4856 
z
" transform="scale(0.015625)"/>
       <path id="DejaVuSans-25" d="M 4653 2053 
Q 4381 2053 4226 1822 
Q 4072 1591 4072 1178 
Q 4072 772 4226 539 
Q 4381 306 4653 306 
Q 4919 306 5073 539 
Q 5228 772 5228 1178 
Q 5228 1588 5073 1820 
Q 4919 2053 4653 2053 
z
M 4653 2450 
Q 5147 2450 5437 2106 
Q 5728 1763 5728 1178 
Q 5728 594 5436 251 
Q 5144 -91 4653 -91 
Q 4153 -91 3862 251 
Q 3572 594 3572 1178 
Q 3572 1766 3864 2108 
Q 4156 2450 4653 2450 
z
M 1428 4353 
Q 1159 4353 1004 4120 
Q 850 3888 850 3481 
Q 850 3069 1003 2837 
Q 1156 2606 1428 2606 
Q 1700 2606 1854 2837 
Q 2009 3069 2009 3481 
Q 2009 3884 1853 4118 
Q 1697 4353 1428 4353 
z
M 4250 4750 
L 4750 4750 
L 1831 -91 
L 1331 -91 
L 4250 4750 
z
M 1428 4750 
Q 1922 4750 2215 4408 
Q 2509 4066 2509 3481 
Q 2509 2891 2217 2550 
Q 1925 2209 1428 2209 
Q 931 2209 642 2551 
Q 353 2894 353 3481 
Q 353 4063 643 4406 
Q 934 4750 1428 4750 
z
" transform="scale(0.015625)"/>
       <path id="DejaVuSans-29" d="M 513 4856 
L 1013 4856 
Q 1481 4119 1714 3412 
Q 1947 2706 1947 2009 
Q 1947 1309 1714 600 
Q 1481 -109 1013 -844 
L 513 -844 
Q 928 -128 1133 580 
Q 1338 1288 1338 2009 
Q 1338 2731 1133 3434 
Q 928 4138 513 4856 
z
" transform="scale(0.015625)"/>
      </defs>
      <use xlink:href="#DejaVuSans-4d"/>
      <use xlink:href="#DejaVuSans-65" x="86.279297"/>
      <use xlink:href="#DejaVuSans-61" x="147.802734"/>
      <use xlink:href="#DejaVuSans-6c" x="209.082031"/>
      <use xlink:href="#DejaVuSans-20" x="236.865234"/>
      <use xlink:href="#DejaVuSans-41" x="268.652344"/>
      <use xlink:href="#DejaVuSans-63" x="335.310547"/>
      <use xlink:href="#DejaVuSans-63" x="390.291016"/>
      <use xlink:href="#DejaVuSans-75" x="445.271484"/>
      <use xlink:href="#DejaVuSans-72" x="508.650391"/>
      <use xlink:href="#DejaVuSans-61" x="549.763672"/>
      <use xlink:href="#DejaVuSans-63" x="611.042969"/>
      <use xlink:href="#DejaVuSans-79" x="666.023438"/>
      <use xlink:href="#DejaVuSans-20" x="725.203125"/>
      <use xlink:href="#DejaVuSans-28" x="756.990234"/>
      <use xlink:href="#DejaVuSans-25" x="796.003906"/>
      <use xlink:href="#DejaVuSans-29" x="891.023438"/>
     </g>
    </g>
   </g>
   <g id="patch_3">
    <path d="M 186.764375 253.829671 
L 236.984375 253.829671 
L 236.984375 136.910568 
L 186.764375 136.910568 
L 186.764375 253.829671 
z
" clip-path="url(#p16009fe617)" style="fill: #ffffff; stroke: #000000; stroke-linejoin: miter"/>
   </g>
   <g id="line2d_7">
    <path d="M 211.874375 253.829671 
L 211.874375 345.916875 
" clip-path="url(#p16009fe617)" style="fill: none; stroke: #000000; stroke-linecap: square"/>
   </g>
   <g id="line2d_8">
    <path d="M 211.874375 136.910568 
L 211.874375 43.516875 
" clip-path="url(#p16009fe617)" style="fill: none; stroke: #000000; stroke-linecap: square"/>
   </g>
   <g id="line2d_9">
    <path d="M 199.319375 345.916875 
L 224.429375 345.916875 
" clip-path="url(#p16009fe617)" style="fill: none; stroke: #000000; stroke-linecap: square"/>
   </g>
   <g id="line2d_10">
    <path d="M 199.319375 43.516875 
L 224.429375 43.516875 
" clip-path="url(#p16009fe617)" style="fill: none; stroke: #000000; stroke-linecap: square"/>
   </g>
   <g id="line2d_11">
    <path d="M 186.764375 228.495793 
L 236.984375 228.495793 
" clip-path="url(#p16009fe617)" style="fill: none; stroke: #000000"/>
   </g>
   <g id="patch_4">
    <path d="M 44.474375 361.036875 
L 44.474375 28.396875 
" style="fill: none; stroke: #000000; stroke-width: 0.8; stroke-linejoin: miter; stroke-linecap: square"/>
   </g>
   <g id="patch_5">
    <path d="M 379.274375 361.036875 
L 379.274375 28.396875 
" style="fill: none; stroke: #000000; stroke-width: 0.8; stroke-linejoin: miter; stroke-linecap: square"/>
   </g>
   <g id="patch_6">
    <path d="M 44.474375 361.036875 
L 379.274375 361.036875 
" style="fill: none; stroke: #000000; stroke-width: 0.8; stroke-linejoin: miter; stroke-linecap: square"/>
   </g>
   <g id="patch_7">
    <path d="M 44.474375 28.396875 
L 379.274375 28.396875 
" style="fill: none; stroke: #000000; stroke-width: 0.8; stroke-linejoin: miter; stroke-linecap: square"/>
   </g>
   <g id="PathCollection_1">
    <defs>
     <path id="ma7d8cbf47e" d="M 0 3 
C 0.795609 3 1.55874 2.683901 2.12132 2.12132 
C 2.683901 1.55874 3 0.795609 3 0 
C 3 -0.795609 2.683901 -1.55874 2.12132 -2.12132 
C 1.55874 -2.683901 0.795609 -3 0 -3 
C -0.795609 -3 -1.55874 -2.683901 -2.12132 -2.12132 
C -2.683901 -1.55874 -3 -0.795609 -3 0 
C -3 0.795609 -2.683901 1.55874 -2.12132 2.12132 
C -1.55874 2.683901 -0.795609 3 0 3 
z
" style="stroke: #0000ff; stroke-opacity: 0.8"/>
    </defs>
    <g clip-path="url(#p16009fe617)">
     <use xlink:href="#ma7d8cbf47e" x="203.429725" y="68.211614" style="fill: #0000ff; fill-opacity: 0.8; stroke: #0000ff; stroke-opacity: 0.8"/>
     <use xlink:href="#ma7d8cbf47e" x="217.781684" y="345.916875" style="fill: #0000ff; fill-opacity: 0.8; stroke: #0000ff; stroke-opacity: 0.8"/>
     <use xlink:href="#ma7d8cbf47e" x="214.090381" y="51.640805" style="fill: #0000ff; fill-opacity: 0.8; stroke: #0000ff; stroke-opacity: 0.8"/>
     <use xlink:href="#ma7d8cbf47e" x="208.09746" y="117.847711" style="fill: #0000ff; fill-opacity: 0.8; stroke: #0000ff; stroke-opacity: 0.8"/>
     <use xlink:href="#ma7d8cbf47e" x="223.562711" y="291.905508" style="fill: #0000ff; fill-opacity: 0.8; stroke: #0000ff; stroke-opacity: 0.8"/>
     <use xlink:href="#ma7d8cbf47e" x="208.262752" y="183.304279" style="fill: #0000ff; fill-opacity: 0.8; stroke: #0000ff; stroke-opacity: 0.8"/>
     <use xlink:href="#ma7d8cbf47e" x="205.922945" y="305.271204" style="fill: #0000ff; fill-opacity: 0.8; stroke: #0000ff; stroke-opacity: 0.8"/>
     <use xlink:href="#ma7d8cbf47e" x="216.504271" y="233.824602" style="fill: #0000ff; fill-opacity: 0.8; stroke: #0000ff; stroke-opacity: 0.8"/>
     <use xlink:href="#ma7d8cbf47e" x="210.85768" y="184.025655" style="fill: #0000ff; fill-opacity: 0.8; stroke: #0000ff; stroke-opacity: 0.8"/>
     <use xlink:href="#ma7d8cbf47e" x="214.543907" y="237.877283" style="fill: #0000ff; fill-opacity: 0.8; stroke: #0000ff; stroke-opacity: 0.8"/>
     <use xlink:href="#ma7d8cbf47e" x="216.508374" y="208.613862" style="fill: #0000ff; fill-opacity: 0.8; stroke: #0000ff; stroke-opacity: 0.8"/>
     <use xlink:href="#ma7d8cbf47e" x="200.003588" y="301.059383" style="fill: #0000ff; fill-opacity: 0.8; stroke: #0000ff; stroke-opacity: 0.8"/>
     <use xlink:href="#ma7d8cbf47e" x="208.266691" y="226.677031" style="fill: #0000ff; fill-opacity: 0.8; stroke: #0000ff; stroke-opacity: 0.8"/>
     <use xlink:href="#ma7d8cbf47e" x="219.854447" y="235.412128" style="fill: #0000ff; fill-opacity: 0.8; stroke: #0000ff; stroke-opacity: 0.8"/>
     <use xlink:href="#ma7d8cbf47e" x="222.884307" y="257.497562" style="fill: #0000ff; fill-opacity: 0.8; stroke: #0000ff; stroke-opacity: 0.8"/>
     <use xlink:href="#ma7d8cbf47e" x="217.238064" y="43.516875" style="fill: #0000ff; fill-opacity: 0.8; stroke: #0000ff; stroke-opacity: 0.8"/>
     <use xlink:href="#ma7d8cbf47e" x="216.580404" y="97.321358" style="fill: #0000ff; fill-opacity: 0.8; stroke: #0000ff; stroke-opacity: 0.8"/>
     <use xlink:href="#ma7d8cbf47e" x="209.711818" y="143.264854" style="fill: #0000ff; fill-opacity: 0.8; stroke: #0000ff; stroke-opacity: 0.8"/>
     <use xlink:href="#ma7d8cbf47e" x="207.371376" y="252.607041" style="fill: #0000ff; fill-opacity: 0.8; stroke: #0000ff; stroke-opacity: 0.8"/>
     <use xlink:href="#ma7d8cbf47e" x="201.529605" y="230.314555" style="fill: #0000ff; fill-opacity: 0.8; stroke: #0000ff; stroke-opacity: 0.8"/>
    </g>
   </g>
   <g id="text_9">
    <!-- Meal Accuracy Distribution for Female -->
    <g transform="translate(21.575938 22.396875) scale(0.2 -0.2)">
     <defs>
      <path id="DejaVuSans-44" d="M 1259 4147 
L 1259 519 
L 2022 519 
Q 2988 519 3436 956 
Q 3884 1394 3884 2338 
Q 3884 3275 3436 3711 
Q 2988 4147 2022 4147 
L 1259 4147 
z
M 628 4666 
L 1925 4666 
Q 3281 4666 3915 4102 
Q 4550 3538 4550 2338 
Q 4550 1131 3912 565 
Q 3275 0 1925 0 
L 628 0 
L 628 4666 
z
" transform="scale(0.015625)"/>
      <path id="DejaVuSans-69" d="M 603 3500 
L 1178 3500 
L 1178 0 
L 603 0 
L 603 3500 
z
M 603 4863 
L 1178 4863 
L 1178 4134 
L 603 4134 
L 603 4863 
z
" transform="scale(0.015625)"/>
      <path id="DejaVuSans-74" d="M 1172 4494 
L 1172 3500 
L 2356 3500 
L 2356 3053 
L 1172 3053 
L 1172 1153 
Q 1172 725 1289 603 
Q 1406 481 1766 481 
L 2356 481 
L 2356 0 
L 1766 0 
Q 1100 0 847 248 
Q 594 497 594 1153 
L 594 3053 
L 172 3053 
L 172 3500 
L 594 3500 
L 594 4494 
L 1172 4494 
z
" transform="scale(0.015625)"/>
      <path id="DejaVuSans-62" d="M 3116 1747 
Q 3116 2381 2855 2742 
Q 2594 3103 2138 3103 
Q 1681 3103 1420 2742 
Q 1159 2381 1159 1747 
Q 1159 1113 1420 752 
Q 1681 391 2138 391 
Q 2594 391 2855 752 
Q 3116 1113 3116 1747 
z
M 1159 2969 
Q 1341 3281 1617 3432 
Q 1894 3584 2278 3584 
Q 2916 3584 3314 3078 
Q 3713 2572 3713 1747 
Q 3713 922 3314 415 
Q 2916 -91 2278 -91 
Q 1894 -91 1617 61 
Q 1341 213 1159 525 
L 1159 0 
L 581 0 
L 581 4863 
L 1159 4863 
L 1159 2969 
z
" transform="scale(0.015625)"/>
      <path id="DejaVuSans-6e" d="M 3513 2113 
L 3513 0 
L 2938 0 
L 2938 2094 
Q 2938 2591 2744 2837 
Q 2550 3084 2163 3084 
Q 1697 3084 1428 2787 
Q 1159 2491 1159 1978 
L 1159 0 
L 581 0 
L 581 3500 
L 1159 3500 
L 1159 2956 
Q 1366 3272 1645 3428 
Q 1925 3584 2291 3584 
Q 2894 3584 3203 3211 
Q 3513 2838 3513 2113 
z
" transform="scale(0.015625)"/>
      <path id="DejaVuSans-66" d="M 2375 4863 
L 2375 4384 
L 1825 4384 
Q 1516 4384 1395 4259 
Q 1275 4134 1275 3809 
L 1275 3500 
L 2222 3500 
L 2222 3053 
L 1275 3053 
L 1275 0 
L 697 0 
L 697 3053 
L 147 3053 
L 147 3500 
L 697 3500 
L 697 3744 
Q 697 4328 969 4595 
Q 1241 4863 1831 4863 
L 2375 4863 
z
" transform="scale(0.015625)"/>
     </defs>
     <use xlink:href="#DejaVuSans-4d"/>
     <use xlink:href="#DejaVuSans-65" x="86.279297"/>
     <use xlink:href="#DejaVuSans-61" x="147.802734"/>
     <use xlink:href="#DejaVuSans-6c" x="209.082031"/>
     <use xlink:href="#DejaVuSans-20" x="236.865234"/>
     <use xlink:href="#DejaVuSans-41" x="268.652344"/>
     <use xlink:href="#DejaVuSans-63" x="335.310547"/>
     <use xlink:href="#DejaVuSans-63" x="390.291016"/>
     <use xlink:href="#DejaVuSans-75" x="445.271484"/>
     <use xlink:href="#DejaVuSans-72" x="508.650391"/>
     <use xlink:href="#DejaVuSans-61" x="549.763672"/>
     <use xlink:href="#DejaVuSans-63" x="611.042969"/>
     <use xlink:href="#DejaVuSans-79" x="666.023438"/>
     <use xlink:href="#DejaVuSans-20" x="725.203125"/>
     <use xlink:href="#DejaVuSans-44" x="756.990234"/>
     <use xlink:href="#DejaVuSans-69" x="833.992188"/>
     <use xlink:href="#DejaVuSans-73" x="861.775391"/>
     <use xlink:href="#DejaVuSans-74" x="913.875"/>
     <use xlink:href="#DejaVuSans-72" x="953.083984"/>
     <use xlink:href="#DejaVuSans-69" x="994.197266"/>
     <use xlink:href="#DejaVuSans-62" x="1021.980469"/>
     <use xlink:href="#DejaVuSans-75" x="1085.457031"/>
     <use xlink:href="#DejaVuSans-74" x="1148.835938"/>
     <use xlink:href="#DejaVuSans-69" x="1188.044922"/>
     <use xlink:href="#DejaVuSans-6f" x="1215.828125"/>
     <use xlink:href="#DejaVuSans-6e" x="1277.009766"/>
     <use xlink:href="#DejaVuSans-20" x="1340.388672"/>
     <use xlink:href="#DejaVuSans-66" x="1372.175781"/>
     <use xlink:href="#DejaVuSans-6f" x="1407.380859"/>
     <use xlink:href="#DejaVuSans-72" x="1468.5625"/>
     <use xlink:href="#DejaVuSans-20" x="1509.675781"/>
     <use xlink:href="#DejaVuSans-46" x="1541.462891"/>
     <use xlink:href="#DejaVuSans-65" x="1593.482422"/>
     <use xlink:href="#DejaVuSans-6d" x="1655.005859"/>
     <use xlink:href="#DejaVuSans-61" x="1752.417969"/>
     <use xlink:href="#DejaVuSans-6c" x="1813.697266"/>
     <use xlink:href="#DejaVuSans-65" x="1841.480469"/>
    </g>
   </g>
   <g id="legend_1">
    <g id="patch_8">
     <path d="M 259.34 51.075 
L 372.274375 51.075 
Q 374.274375 51.075 374.274375 49.075 
L 374.274375 35.396875 
Q 374.274375 33.396875 372.274375 33.396875 
L 259.34 33.396875 
Q 257.34 33.396875 257.34 35.396875 
L 257.34 49.075 
Q 257.34 51.075 259.34 51.075 
z
" style="fill: #ffffff; opacity: 0.8; stroke: #cccccc; stroke-linejoin: miter"/>
    </g>
    <g id="patch_9">
     <path d="M 261.34 44.995312 
L 281.34 44.995312 
L 281.34 37.995312 
L 261.34 37.995312 
z
" style="fill: #38bcf5; opacity: 0.6; stroke: #38bcf5; stroke-linejoin: miter"/>
    </g>
    <g id="text_10">
     <!-- Female (n = 20) -->
     <g transform="translate(289.34 44.995312) scale(0.1 -0.1)">
      <defs>
       <path id="DejaVuSans-3d" d="M 678 2906 
L 4684 2906 
L 4684 2381 
L 678 2381 
L 678 2906 
z
M 678 1631 
L 4684 1631 
L 4684 1100 
L 678 1100 
L 678 1631 
z
" transform="scale(0.015625)"/>
      </defs>
      <use xlink:href="#DejaVuSans-46"/>
      <use xlink:href="#DejaVuSans-65" x="52.019531"/>
      <use xlink:href="#DejaVuSans-6d" x="113.542969"/>
      <use xlink:href="#DejaVuSans-61" x="210.955078"/>
      <use xlink:href="#DejaVuSans-6c" x="272.234375"/>
      <use xlink:href="#DejaVuSans-65" x="300.017578"/>
      <use xlink:href="#DejaVuSans-20" x="361.541016"/>
      <use xlink:href="#DejaVuSans-28" x="393.328125"/>
      <use xlink:href="#DejaVuSans-6e" x="432.341797"/>
      <use xlink:href="#DejaVuSans-20" x="495.720703"/>
      <use xlink:href="#DejaVuSans-3d" x="527.507812"/>
      <use xlink:href="#DejaVuSans-20" x="611.296875"/>
      <use xlink:href="#DejaVuSans-32" x="643.083984"/>
      <use xlink:href="#DejaVuSans-30" x="706.707031"/>
      <use xlink:href="#DejaVuSans-29" x="770.330078"/>
     </g>
    </g>
   </g>
  </g>
 </g>
 <defs>
  <clipPath id="p16009fe617">
   <rect x="44.474375" y="28.396875" width="334.8" height="332.64"/>
  </clipPath>
 </defs>
</svg>
