<?xml version="1.0" encoding="utf-8" standalone="no"?>
<!DOCTYPE svg PUBLIC "-//W3C//DTD SVG 1.1//EN"
  "http://www.w3.org/Graphics/SVG/1.1/DTD/svg11.dtd">
<svg xmlns:xlink="http://www.w3.org/1999/xlink" width="455.378125pt" height="402.464375pt" viewBox="0 0 455.378125 402.464375" xmlns="http://www.w3.org/2000/svg" version="1.1">
 <metadata>
  <rdf:RDF xmlns:dc="http://purl.org/dc/elements/1.1/" xmlns:cc="http://creativecommons.org/ns#" xmlns:rdf="http://www.w3.org/1999/02/22-rdf-syntax-ns#">
   <cc:Work>
    <dc:type rdf:resource="http://purl.org/dc/dcmitype/StillImage"/>
    <dc:date>2025-05-09T14:53:13.284811</dc:date>
    <dc:format>image/svg+xml</dc:format>
    <dc:creator>
     <cc:Agent>
      <dc:title>Matplotlib v3.8.3, https://matplotlib.org/</dc:title>
     </cc:Agent>
    </dc:creator>
   </cc:Work>
  </rdf:RDF>
 </metadata>
 <defs>
  <style type="text/css">*{stroke-linejoin: round; stroke-linecap: butt}</style>
 </defs>
 <g id="figure_1">
  <g id="patch_1">
   <path d="M 0 402.464375 
L 455.378125 402.464375 
L 455.378125 0 
L 0 0 
z
" style="fill: #ffffff"/>
  </g>
  <g id="axes_1">
   <g id="patch_2">
    <path d="M 60.289063 361.036875 
L 395.089063 361.036875 
L 395.089063 28.396875 
L 60.289063 28.396875 
z
" style="fill: #ffffff"/>
   </g>
   <g id="PolyCollection_1">
    <defs>
     <path id="m27d981e399" d="M 271.88272 -56.5475 
L 183.495405 -56.5475 
L 182.186899 -59.602045 
L 181.018771 -62.656591 
L 180.002366 -65.711136 
L 179.147376 -68.765682 
L 178.461673 -71.820227 
L 177.95117 -74.874773 
L 177.619721 -77.929318 
L 177.469063 -80.983864 
L 177.498796 -84.038409 
L 177.706413 -87.092955 
L 178.087355 -90.1475 
L 178.635122 -93.202045 
L 179.341402 -96.256591 
L 180.196244 -99.311136 
L 181.188245 -102.365682 
L 182.304774 -105.420227 
L 183.532191 -108.474773 
L 184.856092 -111.529318 
L 186.261552 -114.583864 
L 187.733363 -117.638409 
L 189.256272 -120.692955 
L 190.815199 -123.7475 
L 192.395452 -126.802045 
L 193.982907 -129.856591 
L 195.564186 -132.911136 
L 197.126788 -135.965682 
L 198.659222 -139.020227 
L 200.151091 -142.074773 
L 201.593168 -145.129318 
L 202.97744 -148.183864 
L 204.297131 -151.238409 
L 205.546704 -154.292955 
L 206.721848 -157.3475 
L 207.819437 -160.402045 
L 208.83749 -163.456591 
L 209.775107 -166.511136 
L 210.632398 -169.565682 
L 211.410408 -172.620227 
L 212.111032 -175.674773 
L 212.736928 -178.729318 
L 213.291429 -181.783864 
L 213.778449 -184.838409 
L 214.202399 -187.892955 
L 214.56809 -190.9475 
L 214.880656 -194.002045 
L 215.14546 -197.056591 
L 215.368019 -200.111136 
L 215.553924 -203.165682 
L 215.708767 -206.220227 
L 215.838067 -209.274773 
L 215.947208 -212.329318 
L 216.041376 -215.383864 
L 216.1255 -218.438409 
L 216.204203 -221.492955 
L 216.281753 -224.5475 
L 216.362023 -227.602045 
L 216.448456 -230.656591 
L 216.544038 -233.711136 
L 216.651271 -236.765682 
L 216.772168 -239.820227 
L 216.908237 -242.874773 
L 217.060487 -245.929318 
L 217.229433 -248.983864 
L 217.415116 -252.038409 
L 217.617123 -255.092955 
L 217.83462 -258.1475 
L 218.066387 -261.202045 
L 218.310864 -264.256591 
L 218.566197 -267.311136 
L 218.830295 -270.365682 
L 219.100884 -273.420227 
L 219.375563 -276.474773 
L 219.651872 -279.529318 
L 219.927343 -282.583864 
L 220.199563 -285.638409 
L 220.46623 -288.692955 
L 220.725202 -291.7475 
L 220.974545 -294.802045 
L 221.212573 -297.856591 
L 221.437883 -300.911136 
L 221.649379 -303.965682 
L 221.846291 -307.020227 
L 222.028184 -310.074773 
L 222.194961 -313.129318 
L 222.346851 -316.183864 
L 222.484397 -319.238409 
L 222.608433 -322.292955 
L 222.720052 -325.3475 
L 222.820572 -328.402045 
L 222.911494 -331.456591 
L 222.994461 -334.511136 
L 223.071209 -337.565682 
L 223.143523 -340.620227 
L 223.213186 -343.674773 
L 223.281938 -346.729318 
L 223.351433 -349.783864 
L 223.423198 -352.838409 
L 223.498603 -355.892955 
L 223.578831 -358.9475 
L 231.799294 -358.9475 
L 231.799294 -358.9475 
L 231.879522 -355.892955 
L 231.954927 -352.838409 
L 232.026692 -349.783864 
L 232.096187 -346.729318 
L 232.164939 -343.674773 
L 232.234602 -340.620227 
L 232.306916 -337.565682 
L 232.383664 -334.511136 
L 232.466631 -331.456591 
L 232.557553 -328.402045 
L 232.658073 -325.3475 
L 232.769692 -322.292955 
L 232.893728 -319.238409 
L 233.031274 -316.183864 
L 233.183164 -313.129318 
L 233.349941 -310.074773 
L 233.531834 -307.020227 
L 233.728746 -303.965682 
L 233.940242 -300.911136 
L 234.165552 -297.856591 
L 234.40358 -294.802045 
L 234.652923 -291.7475 
L 234.911895 -288.692955 
L 235.178562 -285.638409 
L 235.450782 -282.583864 
L 235.726253 -279.529318 
L 236.002562 -276.474773 
L 236.277241 -273.420227 
L 236.54783 -270.365682 
L 236.811928 -267.311136 
L 237.067261 -264.256591 
L 237.311738 -261.202045 
L 237.543505 -258.1475 
L 237.761002 -255.092955 
L 237.963009 -252.038409 
L 238.148692 -248.983864 
L 238.317638 -245.929318 
L 238.469888 -242.874773 
L 238.605957 -239.820227 
L 238.726854 -236.765682 
L 238.834087 -233.711136 
L 238.929669 -230.656591 
L 239.016102 -227.602045 
L 239.096372 -224.5475 
L 239.173922 -221.492955 
L 239.252625 -218.438409 
L 239.336749 -215.383864 
L 239.430917 -212.329318 
L 239.540058 -209.274773 
L 239.669358 -206.220227 
L 239.824201 -203.165682 
L 240.010106 -200.111136 
L 240.232665 -197.056591 
L 240.497469 -194.002045 
L 240.810035 -190.9475 
L 241.175726 -187.892955 
L 241.599676 -184.838409 
L 242.086696 -181.783864 
L 242.641197 -178.729318 
L 243.267093 -175.674773 
L 243.967717 -172.620227 
L 244.745727 -169.565682 
L 245.603018 -166.511136 
L 246.540635 -163.456591 
L 247.558688 -160.402045 
L 248.656277 -157.3475 
L 249.831421 -154.292955 
L 251.080994 -151.238409 
L 252.400685 -148.183864 
L 253.784957 -145.129318 
L 255.227034 -142.074773 
L 256.718903 -139.020227 
L 258.251337 -135.965682 
L 259.813939 -132.911136 
L 261.395218 -129.856591 
L 262.982673 -126.802045 
L 264.562926 -123.7475 
L 266.121853 -120.692955 
L 267.644762 -117.638409 
L 269.116573 -114.583864 
L 270.522033 -111.529318 
L 271.845934 -108.474773 
L 273.073351 -105.420227 
L 274.18988 -102.365682 
L 275.181881 -99.311136 
L 276.036723 -96.256591 
L 276.743003 -93.202045 
L 277.29077 -90.1475 
L 277.671712 -87.092955 
L 277.879329 -84.038409 
L 277.909063 -80.983864 
L 277.758404 -77.929318 
L 277.426955 -74.874773 
L 276.916452 -71.820227 
L 276.230749 -68.765682 
L 275.375759 -65.711136 
L 274.359354 -62.656591 
L 273.191226 -59.602045 
L 271.88272 -56.5475 
z
" style="stroke: #000000; stroke-opacity: 0.6"/>
    </defs>
    <g clip-path="url(#peb5d06dcdc)">
     <use xlink:href="#m27d981e399" x="0" y="402.464375" style="fill: #38bcf5; fill-opacity: 0.6; stroke: #000000; stroke-opacity: 0.6"/>
    </g>
   </g>
   <g id="matplotlib.axis_1">
    <g id="xtick_1">
     <g id="line2d_1">
      <defs>
       <path id="mcfaff13a86" d="M 0 0 
L 0 3.5 
" style="stroke: #000000; stroke-width: 0.8"/>
      </defs>
      <g>
       <use xlink:href="#mcfaff13a86" x="227.689063" y="361.036875" style="stroke: #000000; stroke-width: 0.8"/>
      </g>
     </g>
     <g id="text_1">
      <!-- Female -->
      <g transform="translate(209.611719 375.635312) scale(0.1 -0.1)">
       <defs>
        <path id="DejaVuSans-46" d="M 628 4666 
L 3309 4666 
L 3309 4134 
L 1259 4134 
L 1259 2759 
L 3109 2759 
L 3109 2228 
L 1259 2228 
L 1259 0 
L 628 0 
L 628 4666 
z
" transform="scale(0.015625)"/>
        <path id="DejaVuSans-65" d="M 3597 1894 
L 3597 1613 
L 953 1613 
Q 991 1019 1311 708 
Q 1631 397 2203 397 
Q 2534 397 2845 478 
Q 3156 559 3463 722 
L 3463 178 
Q 3153 47 2828 -22 
Q 2503 -91 2169 -91 
Q 1331 -91 842 396 
Q 353 884 353 1716 
Q 353 2575 817 3079 
Q 1281 3584 2069 3584 
Q 2775 3584 3186 3129 
Q 3597 2675 3597 1894 
z
M 3022 2063 
Q 3016 2534 2758 2815 
Q 2500 3097 2075 3097 
Q 1594 3097 1305 2825 
Q 1016 2553 972 2059 
L 3022 2063 
z
" transform="scale(0.015625)"/>
        <path id="DejaVuSans-6d" d="M 3328 2828 
Q 3544 3216 3844 3400 
Q 4144 3584 4550 3584 
Q 5097 3584 5394 3201 
Q 5691 2819 5691 2113 
L 5691 0 
L 5113 0 
L 5113 2094 
Q 5113 2597 4934 2840 
Q 4756 3084 4391 3084 
Q 3944 3084 3684 2787 
Q 3425 2491 3425 1978 
L 3425 0 
L 2847 0 
L 2847 2094 
Q 2847 2600 2669 2842 
Q 2491 3084 2119 3084 
Q 1678 3084 1418 2786 
Q 1159 2488 1159 1978 
L 1159 0 
L 581 0 
L 581 3500 
L 1159 3500 
L 1159 2956 
Q 1356 3278 1631 3431 
Q 1906 3584 2284 3584 
Q 2666 3584 2933 3390 
Q 3200 3197 3328 2828 
z
" transform="scale(0.015625)"/>
        <path id="DejaVuSans-61" d="M 2194 1759 
Q 1497 1759 1228 1600 
Q 959 1441 959 1056 
Q 959 750 1161 570 
Q 1363 391 1709 391 
Q 2188 391 2477 730 
Q 2766 1069 2766 1631 
L 2766 1759 
L 2194 1759 
z
M 3341 1997 
L 3341 0 
L 2766 0 
L 2766 531 
Q 2569 213 2275 61 
Q 1981 -91 1556 -91 
Q 1019 -91 701 211 
Q 384 513 384 1019 
Q 384 1609 779 1909 
Q 1175 2209 1959 2209 
L 2766 2209 
L 2766 2266 
Q 2766 2663 2505 2880 
Q 2244 3097 1772 3097 
Q 1472 3097 1187 3025 
Q 903 2953 641 2809 
L 641 3341 
Q 956 3463 1253 3523 
Q 1550 3584 1831 3584 
Q 2591 3584 2966 3190 
Q 3341 2797 3341 1997 
z
" transform="scale(0.015625)"/>
        <path id="DejaVuSans-6c" d="M 603 4863 
L 1178 4863 
L 1178 0 
L 603 0 
L 603 4863 
z
" transform="scale(0.015625)"/>
       </defs>
       <use xlink:href="#DejaVuSans-46"/>
       <use xlink:href="#DejaVuSans-65" x="52.019531"/>
       <use xlink:href="#DejaVuSans-6d" x="113.542969"/>
       <use xlink:href="#DejaVuSans-61" x="210.955078"/>
       <use xlink:href="#DejaVuSans-6c" x="272.234375"/>
       <use xlink:href="#DejaVuSans-65" x="300.017578"/>
      </g>
     </g>
    </g>
    <g id="text_2">
     <!-- Groups -->
     <g transform="translate(202.735156 392.352812) scale(0.14 -0.14)">
      <defs>
       <path id="DejaVuSans-47" d="M 3809 666 
L 3809 1919 
L 2778 1919 
L 2778 2438 
L 4434 2438 
L 4434 434 
Q 4069 175 3628 42 
Q 3188 -91 2688 -91 
Q 1594 -91 976 548 
Q 359 1188 359 2328 
Q 359 3472 976 4111 
Q 1594 4750 2688 4750 
Q 3144 4750 3555 4637 
Q 3966 4525 4313 4306 
L 4313 3634 
Q 3963 3931 3569 4081 
Q 3175 4231 2741 4231 
Q 1884 4231 1454 3753 
Q 1025 3275 1025 2328 
Q 1025 1384 1454 906 
Q 1884 428 2741 428 
Q 3075 428 3337 486 
Q 3600 544 3809 666 
z
" transform="scale(0.015625)"/>
       <path id="DejaVuSans-72" d="M 2631 2963 
Q 2534 3019 2420 3045 
Q 2306 3072 2169 3072 
Q 1681 3072 1420 2755 
Q 1159 2438 1159 1844 
L 1159 0 
L 581 0 
L 581 3500 
L 1159 3500 
L 1159 2956 
Q 1341 3275 1631 3429 
Q 1922 3584 2338 3584 
Q 2397 3584 2469 3576 
Q 2541 3569 2628 3553 
L 2631 2963 
z
" transform="scale(0.015625)"/>
       <path id="DejaVuSans-6f" d="M 1959 3097 
Q 1497 3097 1228 2736 
Q 959 2375 959 1747 
Q 959 1119 1226 758 
Q 1494 397 1959 397 
Q 2419 397 2687 759 
Q 2956 1122 2956 1747 
Q 2956 2369 2687 2733 
Q 2419 3097 1959 3097 
z
M 1959 3584 
Q 2709 3584 3137 3096 
Q 3566 2609 3566 1747 
Q 3566 888 3137 398 
Q 2709 -91 1959 -91 
Q 1206 -91 779 398 
Q 353 888 353 1747 
Q 353 2609 779 3096 
Q 1206 3584 1959 3584 
z
" transform="scale(0.015625)"/>
       <path id="DejaVuSans-75" d="M 544 1381 
L 544 3500 
L 1119 3500 
L 1119 1403 
Q 1119 906 1312 657 
Q 1506 409 1894 409 
Q 2359 409 2629 706 
Q 2900 1003 2900 1516 
L 2900 3500 
L 3475 3500 
L 3475 0 
L 2900 0 
L 2900 538 
Q 2691 219 2414 64 
Q 2138 -91 1772 -91 
Q 1169 -91 856 284 
Q 544 659 544 1381 
z
M 1991 3584 
L 1991 3584 
z
" transform="scale(0.015625)"/>
       <path id="DejaVuSans-70" d="M 1159 525 
L 1159 -1331 
L 581 -1331 
L 581 3500 
L 1159 3500 
L 1159 2969 
Q 1341 3281 1617 3432 
Q 1894 3584 2278 3584 
Q 2916 3584 3314 3078 
Q 3713 2572 3713 1747 
Q 3713 922 3314 415 
Q 2916 -91 2278 -91 
Q 1894 -91 1617 61 
Q 1341 213 1159 525 
z
M 3116 1747 
Q 3116 2381 2855 2742 
Q 2594 3103 2138 3103 
Q 1681 3103 1420 2742 
Q 1159 2381 1159 1747 
Q 1159 1113 1420 752 
Q 1681 391 2138 391 
Q 2594 391 2855 752 
Q 3116 1113 3116 1747 
z
" transform="scale(0.015625)"/>
       <path id="DejaVuSans-73" d="M 2834 3397 
L 2834 2853 
Q 2591 2978 2328 3040 
Q 2066 3103 1784 3103 
Q 1356 3103 1142 2972 
Q 928 2841 928 2578 
Q 928 2378 1081 2264 
Q 1234 2150 1697 2047 
L 1894 2003 
Q 2506 1872 2764 1633 
Q 3022 1394 3022 966 
Q 3022 478 2636 193 
Q 2250 -91 1575 -91 
Q 1294 -91 989 -36 
Q 684 19 347 128 
L 347 722 
Q 666 556 975 473 
Q 1284 391 1588 391 
Q 1994 391 2212 530 
Q 2431 669 2431 922 
Q 2431 1156 2273 1281 
Q 2116 1406 1581 1522 
L 1381 1569 
Q 847 1681 609 1914 
Q 372 2147 372 2553 
Q 372 3047 722 3315 
Q 1072 3584 1716 3584 
Q 2034 3584 2315 3537 
Q 2597 3491 2834 3397 
z
" transform="scale(0.015625)"/>
      </defs>
      <use xlink:href="#DejaVuSans-47"/>
      <use xlink:href="#DejaVuSans-72" x="77.490234"/>
      <use xlink:href="#DejaVuSans-6f" x="116.353516"/>
      <use xlink:href="#DejaVuSans-75" x="177.535156"/>
      <use xlink:href="#DejaVuSans-70" x="240.914062"/>
      <use xlink:href="#DejaVuSans-73" x="304.390625"/>
     </g>
    </g>
   </g>
   <g id="matplotlib.axis_2">
    <g id="ytick_1">
     <g id="line2d_2">
      <defs>
       <path id="m04437f7a31" d="M 0 0 
L -3.5 0 
" style="stroke: #000000; stroke-width: 0.8"/>
      </defs>
      <g>
       <use xlink:href="#m04437f7a31" x="60.289063" y="331.026199" style="stroke: #000000; stroke-width: 0.8"/>
      </g>
     </g>
     <g id="text_3">
      <!-- 2 -->
      <g transform="translate(46.926563 334.825418) scale(0.1 -0.1)">
       <defs>
        <path id="DejaVuSans-32" d="M 1228 531 
L 3431 531 
L 3431 0 
L 469 0 
L 469 531 
Q 828 903 1448 1529 
Q 2069 2156 2228 2338 
Q 2531 2678 2651 2914 
Q 2772 3150 2772 3378 
Q 2772 3750 2511 3984 
Q 2250 4219 1831 4219 
Q 1534 4219 1204 4116 
Q 875 4013 500 3803 
L 500 4441 
Q 881 4594 1212 4672 
Q 1544 4750 1819 4750 
Q 2544 4750 2975 4387 
Q 3406 4025 3406 3419 
Q 3406 3131 3298 2873 
Q 3191 2616 2906 2266 
Q 2828 2175 2409 1742 
Q 1991 1309 1228 531 
z
" transform="scale(0.015625)"/>
       </defs>
       <use xlink:href="#DejaVuSans-32"/>
      </g>
     </g>
    </g>
    <g id="ytick_2">
     <g id="line2d_3">
      <g>
       <use xlink:href="#m04437f7a31" x="60.289063" y="271.623088" style="stroke: #000000; stroke-width: 0.8"/>
      </g>
     </g>
     <g id="text_4">
      <!-- 4 -->
      <g transform="translate(46.926563 275.422306) scale(0.1 -0.1)">
       <defs>
        <path id="DejaVuSans-34" d="M 2419 4116 
L 825 1625 
L 2419 1625 
L 2419 4116 
z
M 2253 4666 
L 3047 4666 
L 3047 1625 
L 3713 1625 
L 3713 1100 
L 3047 1100 
L 3047 0 
L 2419 0 
L 2419 1100 
L 313 1100 
L 313 1709 
L 2253 4666 
z
" transform="scale(0.015625)"/>
       </defs>
       <use xlink:href="#DejaVuSans-34"/>
      </g>
     </g>
    </g>
    <g id="ytick_3">
     <g id="line2d_4">
      <g>
       <use xlink:href="#m04437f7a31" x="60.289063" y="212.219976" style="stroke: #000000; stroke-width: 0.8"/>
      </g>
     </g>
     <g id="text_5">
      <!-- 6 -->
      <g transform="translate(46.926563 216.019194) scale(0.1 -0.1)">
       <defs>
        <path id="DejaVuSans-36" d="M 2113 2584 
Q 1688 2584 1439 2293 
Q 1191 2003 1191 1497 
Q 1191 994 1439 701 
Q 1688 409 2113 409 
Q 2538 409 2786 701 
Q 3034 994 3034 1497 
Q 3034 2003 2786 2293 
Q 2538 2584 2113 2584 
z
M 3366 4563 
L 3366 3988 
Q 3128 4100 2886 4159 
Q 2644 4219 2406 4219 
Q 1781 4219 1451 3797 
Q 1122 3375 1075 2522 
Q 1259 2794 1537 2939 
Q 1816 3084 2150 3084 
Q 2853 3084 3261 2657 
Q 3669 2231 3669 1497 
Q 3669 778 3244 343 
Q 2819 -91 2113 -91 
Q 1303 -91 875 529 
Q 447 1150 447 2328 
Q 447 3434 972 4092 
Q 1497 4750 2381 4750 
Q 2619 4750 2861 4703 
Q 3103 4656 3366 4563 
z
" transform="scale(0.015625)"/>
       </defs>
       <use xlink:href="#DejaVuSans-36"/>
      </g>
     </g>
    </g>
    <g id="ytick_4">
     <g id="line2d_5">
      <g>
       <use xlink:href="#m04437f7a31" x="60.289063" y="152.816864" style="stroke: #000000; stroke-width: 0.8"/>
      </g>
     </g>
     <g id="text_6">
      <!-- 8 -->
      <g transform="translate(46.926563 156.616083) scale(0.1 -0.1)">
       <defs>
        <path id="DejaVuSans-38" d="M 2034 2216 
Q 1584 2216 1326 1975 
Q 1069 1734 1069 1313 
Q 1069 891 1326 650 
Q 1584 409 2034 409 
Q 2484 409 2743 651 
Q 3003 894 3003 1313 
Q 3003 1734 2745 1975 
Q 2488 2216 2034 2216 
z
M 1403 2484 
Q 997 2584 770 2862 
Q 544 3141 544 3541 
Q 544 4100 942 4425 
Q 1341 4750 2034 4750 
Q 2731 4750 3128 4425 
Q 3525 4100 3525 3541 
Q 3525 3141 3298 2862 
Q 3072 2584 2669 2484 
Q 3125 2378 3379 2068 
Q 3634 1759 3634 1313 
Q 3634 634 3220 271 
Q 2806 -91 2034 -91 
Q 1263 -91 848 271 
Q 434 634 434 1313 
Q 434 1759 690 2068 
Q 947 2378 1403 2484 
z
M 1172 3481 
Q 1172 3119 1398 2916 
Q 1625 2713 2034 2713 
Q 2441 2713 2670 2916 
Q 2900 3119 2900 3481 
Q 2900 3844 2670 4047 
Q 2441 4250 2034 4250 
Q 1625 4250 1398 4047 
Q 1172 3844 1172 3481 
z
" transform="scale(0.015625)"/>
       </defs>
       <use xlink:href="#DejaVuSans-38"/>
      </g>
     </g>
    </g>
    <g id="ytick_5">
     <g id="line2d_6">
      <g>
       <use xlink:href="#m04437f7a31" x="60.289063" y="93.413752" style="stroke: #000000; stroke-width: 0.8"/>
      </g>
     </g>
     <g id="text_7">
      <!-- 10 -->
      <g transform="translate(40.564063 97.212971) scale(0.1 -0.1)">
       <defs>
        <path id="DejaVuSans-31" d="M 794 531 
L 1825 531 
L 1825 4091 
L 703 3866 
L 703 4441 
L 1819 4666 
L 2450 4666 
L 2450 531 
L 3481 531 
L 3481 0 
L 794 0 
L 794 531 
z
" transform="scale(0.015625)"/>
        <path id="DejaVuSans-30" d="M 2034 4250 
Q 1547 4250 1301 3770 
Q 1056 3291 1056 2328 
Q 1056 1369 1301 889 
Q 1547 409 2034 409 
Q 2525 409 2770 889 
Q 3016 1369 3016 2328 
Q 3016 3291 2770 3770 
Q 2525 4250 2034 4250 
z
M 2034 4750 
Q 2819 4750 3233 4129 
Q 3647 3509 3647 2328 
Q 3647 1150 3233 529 
Q 2819 -91 2034 -91 
Q 1250 -91 836 529 
Q 422 1150 422 2328 
Q 422 3509 836 4129 
Q 1250 4750 2034 4750 
z
" transform="scale(0.015625)"/>
       </defs>
       <use xlink:href="#DejaVuSans-31"/>
       <use xlink:href="#DejaVuSans-30" x="63.623047"/>
      </g>
     </g>
    </g>
    <g id="ytick_6">
     <g id="line2d_7">
      <g>
       <use xlink:href="#m04437f7a31" x="60.289063" y="34.01064" style="stroke: #000000; stroke-width: 0.8"/>
      </g>
     </g>
     <g id="text_8">
      <!-- 12 -->
      <g transform="translate(40.564063 37.809859) scale(0.1 -0.1)">
       <use xlink:href="#DejaVuSans-31"/>
       <use xlink:href="#DejaVuSans-32" x="63.623047"/>
      </g>
     </g>
    </g>
    <g id="text_9">
     <!-- Pellet Retrieval Time (minutes) -->
     <g transform="translate(33.6525 302.636094) rotate(-90) scale(0.14 -0.14)">
      <defs>
       <path id="DejaVuSans-50" d="M 1259 4147 
L 1259 2394 
L 2053 2394 
Q 2494 2394 2734 2622 
Q 2975 2850 2975 3272 
Q 2975 3691 2734 3919 
Q 2494 4147 2053 4147 
L 1259 4147 
z
M 628 4666 
L 2053 4666 
Q 2838 4666 3239 4311 
Q 3641 3956 3641 3272 
Q 3641 2581 3239 2228 
Q 2838 1875 2053 1875 
L 1259 1875 
L 1259 0 
L 628 0 
L 628 4666 
z
" transform="scale(0.015625)"/>
       <path id="DejaVuSans-74" d="M 1172 4494 
L 1172 3500 
L 2356 3500 
L 2356 3053 
L 1172 3053 
L 1172 1153 
Q 1172 725 1289 603 
Q 1406 481 1766 481 
L 2356 481 
L 2356 0 
L 1766 0 
Q 1100 0 847 248 
Q 594 497 594 1153 
L 594 3053 
L 172 3053 
L 172 3500 
L 594 3500 
L 594 4494 
L 1172 4494 
z
" transform="scale(0.015625)"/>
       <path id="DejaVuSans-20" transform="scale(0.015625)"/>
       <path id="DejaVuSans-52" d="M 2841 2188 
Q 3044 2119 3236 1894 
Q 3428 1669 3622 1275 
L 4263 0 
L 3584 0 
L 2988 1197 
Q 2756 1666 2539 1819 
Q 2322 1972 1947 1972 
L 1259 1972 
L 1259 0 
L 628 0 
L 628 4666 
L 2053 4666 
Q 2853 4666 3247 4331 
Q 3641 3997 3641 3322 
Q 3641 2881 3436 2590 
Q 3231 2300 2841 2188 
z
M 1259 4147 
L 1259 2491 
L 2053 2491 
Q 2509 2491 2742 2702 
Q 2975 2913 2975 3322 
Q 2975 3731 2742 3939 
Q 2509 4147 2053 4147 
L 1259 4147 
z
" transform="scale(0.015625)"/>
       <path id="DejaVuSans-69" d="M 603 3500 
L 1178 3500 
L 1178 0 
L 603 0 
L 603 3500 
z
M 603 4863 
L 1178 4863 
L 1178 4134 
L 603 4134 
L 603 4863 
z
" transform="scale(0.015625)"/>
       <path id="DejaVuSans-76" d="M 191 3500 
L 800 3500 
L 1894 563 
L 2988 3500 
L 3597 3500 
L 2284 0 
L 1503 0 
L 191 3500 
z
" transform="scale(0.015625)"/>
       <path id="DejaVuSans-54" d="M -19 4666 
L 3928 4666 
L 3928 4134 
L 2272 4134 
L 2272 0 
L 1638 0 
L 1638 4134 
L -19 4134 
L -19 4666 
z
" transform="scale(0.015625)"/>
       <path id="DejaVuSans-28" d="M 1984 4856 
Q 1566 4138 1362 3434 
Q 1159 2731 1159 2009 
Q 1159 1288 1364 580 
Q 1569 -128 1984 -844 
L 1484 -844 
Q 1016 -109 783 600 
Q 550 1309 550 2009 
Q 550 2706 781 3412 
Q 1013 4119 1484 4856 
L 1984 4856 
z
" transform="scale(0.015625)"/>
       <path id="DejaVuSans-6e" d="M 3513 2113 
L 3513 0 
L 2938 0 
L 2938 2094 
Q 2938 2591 2744 2837 
Q 2550 3084 2163 3084 
Q 1697 3084 1428 2787 
Q 1159 2491 1159 1978 
L 1159 0 
L 581 0 
L 581 3500 
L 1159 3500 
L 1159 2956 
Q 1366 3272 1645 3428 
Q 1925 3584 2291 3584 
Q 2894 3584 3203 3211 
Q 3513 2838 3513 2113 
z
" transform="scale(0.015625)"/>
       <path id="DejaVuSans-29" d="M 513 4856 
L 1013 4856 
Q 1481 4119 1714 3412 
Q 1947 2706 1947 2009 
Q 1947 1309 1714 600 
Q 1481 -109 1013 -844 
L 513 -844 
Q 928 -128 1133 580 
Q 1338 1288 1338 2009 
Q 1338 2731 1133 3434 
Q 928 4138 513 4856 
z
" transform="scale(0.015625)"/>
      </defs>
      <use xlink:href="#DejaVuSans-50"/>
      <use xlink:href="#DejaVuSans-65" x="56.677734"/>
      <use xlink:href="#DejaVuSans-6c" x="118.201172"/>
      <use xlink:href="#DejaVuSans-6c" x="145.984375"/>
      <use xlink:href="#DejaVuSans-65" x="173.767578"/>
      <use xlink:href="#DejaVuSans-74" x="235.291016"/>
      <use xlink:href="#DejaVuSans-20" x="274.5"/>
      <use xlink:href="#DejaVuSans-52" x="306.287109"/>
      <use xlink:href="#DejaVuSans-65" x="371.269531"/>
      <use xlink:href="#DejaVuSans-74" x="432.792969"/>
      <use xlink:href="#DejaVuSans-72" x="472.001953"/>
      <use xlink:href="#DejaVuSans-69" x="513.115234"/>
      <use xlink:href="#DejaVuSans-65" x="540.898438"/>
      <use xlink:href="#DejaVuSans-76" x="602.421875"/>
      <use xlink:href="#DejaVuSans-61" x="661.601562"/>
      <use xlink:href="#DejaVuSans-6c" x="722.880859"/>
      <use xlink:href="#DejaVuSans-20" x="750.664062"/>
      <use xlink:href="#DejaVuSans-54" x="782.451172"/>
      <use xlink:href="#DejaVuSans-69" x="840.410156"/>
      <use xlink:href="#DejaVuSans-6d" x="868.193359"/>
      <use xlink:href="#DejaVuSans-65" x="965.605469"/>
      <use xlink:href="#DejaVuSans-20" x="1027.128906"/>
      <use xlink:href="#DejaVuSans-28" x="1058.916016"/>
      <use xlink:href="#DejaVuSans-6d" x="1097.929688"/>
      <use xlink:href="#DejaVuSans-69" x="1195.341797"/>
      <use xlink:href="#DejaVuSans-6e" x="1223.125"/>
      <use xlink:href="#DejaVuSans-75" x="1286.503906"/>
      <use xlink:href="#DejaVuSans-74" x="1349.882812"/>
      <use xlink:href="#DejaVuSans-65" x="1389.091797"/>
      <use xlink:href="#DejaVuSans-73" x="1450.615234"/>
      <use xlink:href="#DejaVuSans-29" x="1502.714844"/>
     </g>
    </g>
   </g>
   <g id="patch_3">
    <path d="M 202.579063 333.022599 
L 252.799062 333.022599 
L 252.799062 277.379989 
L 202.579063 277.379989 
L 202.579063 333.022599 
z
" clip-path="url(#peb5d06dcdc)" style="fill: #ffffff; stroke: #000000; stroke-linejoin: miter"/>
   </g>
   <g id="line2d_8">
    <path d="M 227.689063 333.022599 
L 227.689063 345.916875 
" clip-path="url(#peb5d06dcdc)" style="fill: none; stroke: #000000; stroke-linecap: square"/>
   </g>
   <g id="line2d_9">
    <path d="M 227.689063 277.379989 
L 227.689063 241.223671 
" clip-path="url(#peb5d06dcdc)" style="fill: none; stroke: #000000; stroke-linecap: square"/>
   </g>
   <g id="line2d_10">
    <path d="M 215.134063 345.916875 
L 240.244063 345.916875 
" clip-path="url(#peb5d06dcdc)" style="fill: none; stroke: #000000; stroke-linecap: square"/>
   </g>
   <g id="line2d_11">
    <path d="M 215.134063 241.223671 
L 240.244063 241.223671 
" clip-path="url(#peb5d06dcdc)" style="fill: none; stroke: #000000; stroke-linecap: square"/>
   </g>
   <g id="line2d_12">
    <path d="M 202.579063 319.374199 
L 252.799062 319.374199 
" clip-path="url(#peb5d06dcdc)" style="fill: none; stroke: #000000"/>
   </g>
   <g id="patch_4">
    <path d="M 60.289063 361.036875 
L 60.289063 28.396875 
" style="fill: none; stroke: #000000; stroke-width: 0.8; stroke-linejoin: miter; stroke-linecap: square"/>
   </g>
   <g id="patch_5">
    <path d="M 395.089063 361.036875 
L 395.089063 28.396875 
" style="fill: none; stroke: #000000; stroke-width: 0.8; stroke-linejoin: miter; stroke-linecap: square"/>
   </g>
   <g id="patch_6">
    <path d="M 60.289063 361.036875 
L 395.089063 361.036875 
" style="fill: none; stroke: #000000; stroke-width: 0.8; stroke-linejoin: miter; stroke-linecap: square"/>
   </g>
   <g id="patch_7">
    <path d="M 60.289063 28.396875 
L 395.089063 28.396875 
" style="fill: none; stroke: #000000; stroke-width: 0.8; stroke-linejoin: miter; stroke-linecap: square"/>
   </g>
   <g id="PathCollection_1">
    <defs>
     <path id="mefdc023f6e" d="M 0 3 
C 0.795609 3 1.55874 2.683901 2.12132 2.12132 
C 2.683901 1.55874 3 0.795609 3 0 
C 3 -0.795609 2.683901 -1.55874 2.12132 -2.12132 
C 1.55874 -2.683901 0.795609 -3 0 -3 
C -0.795609 -3 -1.55874 -2.683901 -2.12132 -2.12132 
C -2.683901 -1.55874 -3 -0.795609 -3 0 
C -3 0.795609 -2.683901 1.55874 -2.12132 2.12132 
C -1.55874 2.683901 -0.795609 3 0 3 
z
" style="stroke: #0000ff; stroke-opacity: 0.8"/>
    </defs>
    <g clip-path="url(#peb5d06dcdc)">
     <use xlink:href="#mefdc023f6e" x="233.639704" y="293.261031" style="fill: #0000ff; fill-opacity: 0.8; stroke: #0000ff; stroke-opacity: 0.8"/>
     <use xlink:href="#mefdc023f6e" x="238.289067" y="326.933753" style="fill: #0000ff; fill-opacity: 0.8; stroke: #0000ff; stroke-opacity: 0.8"/>
     <use xlink:href="#mefdc023f6e" x="229.251859" y="345.916875" style="fill: #0000ff; fill-opacity: 0.8; stroke: #0000ff; stroke-opacity: 0.8"/>
     <use xlink:href="#mefdc023f6e" x="236.454034" y="334.004964" style="fill: #0000ff; fill-opacity: 0.8; stroke: #0000ff; stroke-opacity: 0.8"/>
     <use xlink:href="#mefdc023f6e" x="236.053771" y="162.23149" style="fill: #0000ff; fill-opacity: 0.8; stroke: #0000ff; stroke-opacity: 0.8"/>
     <use xlink:href="#mefdc023f6e" x="239.59273" y="138.187057" style="fill: #0000ff; fill-opacity: 0.8; stroke: #0000ff; stroke-opacity: 0.8"/>
     <use xlink:href="#mefdc023f6e" x="231.984985" y="241.223671" style="fill: #0000ff; fill-opacity: 0.8; stroke: #0000ff; stroke-opacity: 0.8"/>
     <use xlink:href="#mefdc023f6e" x="228.666095" y="332.695144" style="fill: #0000ff; fill-opacity: 0.8; stroke: #0000ff; stroke-opacity: 0.8"/>
     <use xlink:href="#mefdc023f6e" x="222.222337" y="319.170536" style="fill: #0000ff; fill-opacity: 0.8; stroke: #0000ff; stroke-opacity: 0.8"/>
     <use xlink:href="#mefdc023f6e" x="230.013249" y="43.516875" style="fill: #0000ff; fill-opacity: 0.8; stroke: #0000ff; stroke-opacity: 0.8"/>
     <use xlink:href="#mefdc023f6e" x="229.811319" y="327.984504" style="fill: #0000ff; fill-opacity: 0.8; stroke: #0000ff; stroke-opacity: 0.8"/>
     <use xlink:href="#mefdc023f6e" x="236.437693" y="299.94611" style="fill: #0000ff; fill-opacity: 0.8; stroke: #0000ff; stroke-opacity: 0.8"/>
     <use xlink:href="#mefdc023f6e" x="229.326761" y="319.577862" style="fill: #0000ff; fill-opacity: 0.8; stroke: #0000ff; stroke-opacity: 0.8"/>
     <use xlink:href="#mefdc023f6e" x="232.317662" y="187.259778" style="fill: #0000ff; fill-opacity: 0.8; stroke: #0000ff; stroke-opacity: 0.8"/>
     <use xlink:href="#mefdc023f6e" x="227.229557" y="324.235501" style="fill: #0000ff; fill-opacity: 0.8; stroke: #0000ff; stroke-opacity: 0.8"/>
     <use xlink:href="#mefdc023f6e" x="237.690538" y="289.432095" style="fill: #0000ff; fill-opacity: 0.8; stroke: #0000ff; stroke-opacity: 0.8"/>
     <use xlink:href="#mefdc023f6e" x="236.183477" y="334.918168" style="fill: #0000ff; fill-opacity: 0.8; stroke: #0000ff; stroke-opacity: 0.8"/>
     <use xlink:href="#mefdc023f6e" x="219.806303" y="338.050367" style="fill: #0000ff; fill-opacity: 0.8; stroke: #0000ff; stroke-opacity: 0.8"/>
     <use xlink:href="#mefdc023f6e" x="231.971681" y="339.800028" style="fill: #0000ff; fill-opacity: 0.8; stroke: #0000ff; stroke-opacity: 0.8"/>
     <use xlink:href="#mefdc023f6e" x="223.124968" y="290.399268" style="fill: #0000ff; fill-opacity: 0.8; stroke: #0000ff; stroke-opacity: 0.8"/>
    </g>
   </g>
   <g id="text_10">
    <!-- Pellet Retrieval Time Distribution for Female -->
    <g transform="translate(7.2 22.396875) scale(0.2 -0.2)">
     <defs>
      <path id="DejaVuSans-44" d="M 1259 4147 
L 1259 519 
L 2022 519 
Q 2988 519 3436 956 
Q 3884 1394 3884 2338 
Q 3884 3275 3436 3711 
Q 2988 4147 2022 4147 
L 1259 4147 
z
M 628 4666 
L 1925 4666 
Q 3281 4666 3915 4102 
Q 4550 3538 4550 2338 
Q 4550 1131 3912 565 
Q 3275 0 1925 0 
L 628 0 
L 628 4666 
z
" transform="scale(0.015625)"/>
      <path id="DejaVuSans-62" d="M 3116 1747 
Q 3116 2381 2855 2742 
Q 2594 3103 2138 3103 
Q 1681 3103 1420 2742 
Q 1159 2381 1159 1747 
Q 1159 1113 1420 752 
Q 1681 391 2138 391 
Q 2594 391 2855 752 
Q 3116 1113 3116 1747 
z
M 1159 2969 
Q 1341 3281 1617 3432 
Q 1894 3584 2278 3584 
Q 2916 3584 3314 3078 
Q 3713 2572 3713 1747 
Q 3713 922 3314 415 
Q 2916 -91 2278 -91 
Q 1894 -91 1617 61 
Q 1341 213 1159 525 
L 1159 0 
L 581 0 
L 581 4863 
L 1159 4863 
L 1159 2969 
z
" transform="scale(0.015625)"/>
      <path id="DejaVuSans-66" d="M 2375 4863 
L 2375 4384 
L 1825 4384 
Q 1516 4384 1395 4259 
Q 1275 4134 1275 3809 
L 1275 3500 
L 2222 3500 
L 2222 3053 
L 1275 3053 
L 1275 0 
L 697 0 
L 697 3053 
L 147 3053 
L 147 3500 
L 697 3500 
L 697 3744 
Q 697 4328 969 4595 
Q 1241 4863 1831 4863 
L 2375 4863 
z
" transform="scale(0.015625)"/>
     </defs>
     <use xlink:href="#DejaVuSans-50"/>
     <use xlink:href="#DejaVuSans-65" x="56.677734"/>
     <use xlink:href="#DejaVuSans-6c" x="118.201172"/>
     <use xlink:href="#DejaVuSans-6c" x="145.984375"/>
     <use xlink:href="#DejaVuSans-65" x="173.767578"/>
     <use xlink:href="#DejaVuSans-74" x="235.291016"/>
     <use xlink:href="#DejaVuSans-20" x="274.5"/>
     <use xlink:href="#DejaVuSans-52" x="306.287109"/>
     <use xlink:href="#DejaVuSans-65" x="371.269531"/>
     <use xlink:href="#DejaVuSans-74" x="432.792969"/>
     <use xlink:href="#DejaVuSans-72" x="472.001953"/>
     <use xlink:href="#DejaVuSans-69" x="513.115234"/>
     <use xlink:href="#DejaVuSans-65" x="540.898438"/>
     <use xlink:href="#DejaVuSans-76" x="602.421875"/>
     <use xlink:href="#DejaVuSans-61" x="661.601562"/>
     <use xlink:href="#DejaVuSans-6c" x="722.880859"/>
     <use xlink:href="#DejaVuSans-20" x="750.664062"/>
     <use xlink:href="#DejaVuSans-54" x="782.451172"/>
     <use xlink:href="#DejaVuSans-69" x="840.410156"/>
     <use xlink:href="#DejaVuSans-6d" x="868.193359"/>
     <use xlink:href="#DejaVuSans-65" x="965.605469"/>
     <use xlink:href="#DejaVuSans-20" x="1027.128906"/>
     <use xlink:href="#DejaVuSans-44" x="1058.916016"/>
     <use xlink:href="#DejaVuSans-69" x="1135.917969"/>
     <use xlink:href="#DejaVuSans-73" x="1163.701172"/>
     <use xlink:href="#DejaVuSans-74" x="1215.800781"/>
     <use xlink:href="#DejaVuSans-72" x="1255.009766"/>
     <use xlink:href="#DejaVuSans-69" x="1296.123047"/>
     <use xlink:href="#DejaVuSans-62" x="1323.90625"/>
     <use xlink:href="#DejaVuSans-75" x="1387.382812"/>
     <use xlink:href="#DejaVuSans-74" x="1450.761719"/>
     <use xlink:href="#DejaVuSans-69" x="1489.970703"/>
     <use xlink:href="#DejaVuSans-6f" x="1517.753906"/>
     <use xlink:href="#DejaVuSans-6e" x="1578.935547"/>
     <use xlink:href="#DejaVuSans-20" x="1642.314453"/>
     <use xlink:href="#DejaVuSans-66" x="1674.101562"/>
     <use xlink:href="#DejaVuSans-6f" x="1709.306641"/>
     <use xlink:href="#DejaVuSans-72" x="1770.488281"/>
     <use xlink:href="#DejaVuSans-20" x="1811.601562"/>
     <use xlink:href="#DejaVuSans-46" x="1843.388672"/>
     <use xlink:href="#DejaVuSans-65" x="1895.408203"/>
     <use xlink:href="#DejaVuSans-6d" x="1956.931641"/>
     <use xlink:href="#DejaVuSans-61" x="2054.34375"/>
     <use xlink:href="#DejaVuSans-6c" x="2115.623047"/>
     <use xlink:href="#DejaVuSans-65" x="2143.40625"/>
    </g>
   </g>
   <g id="legend_1">
    <g id="patch_8">
     <path d="M 275.154688 51.075 
L 388.089063 51.075 
Q 390.089063 51.075 390.089063 49.075 
L 390.089063 35.396875 
Q 390.089063 33.396875 388.089063 33.396875 
L 275.154688 33.396875 
Q 273.154688 33.396875 273.154688 35.396875 
L 273.154688 49.075 
Q 273.154688 51.075 275.154688 51.075 
z
" style="fill: #ffffff; opacity: 0.8; stroke: #cccccc; stroke-linejoin: miter"/>
    </g>
    <g id="patch_9">
     <path d="M 277.154688 44.995312 
L 297.154688 44.995312 
L 297.154688 37.995312 
L 277.154688 37.995312 
z
" style="fill: #38bcf5; opacity: 0.6; stroke: #38bcf5; stroke-linejoin: miter"/>
    </g>
    <g id="text_11">
     <!-- Female (n = 20) -->
     <g transform="translate(305.154688 44.995312) scale(0.1 -0.1)">
      <defs>
       <path id="DejaVuSans-3d" d="M 678 2906 
L 4684 2906 
L 4684 2381 
L 678 2381 
L 678 2906 
z
M 678 1631 
L 4684 1631 
L 4684 1100 
L 678 1100 
L 678 1631 
z
" transform="scale(0.015625)"/>
      </defs>
      <use xlink:href="#DejaVuSans-46"/>
      <use xlink:href="#DejaVuSans-65" x="52.019531"/>
      <use xlink:href="#DejaVuSans-6d" x="113.542969"/>
      <use xlink:href="#DejaVuSans-61" x="210.955078"/>
      <use xlink:href="#DejaVuSans-6c" x="272.234375"/>
      <use xlink:href="#DejaVuSans-65" x="300.017578"/>
      <use xlink:href="#DejaVuSans-20" x="361.541016"/>
      <use xlink:href="#DejaVuSans-28" x="393.328125"/>
      <use xlink:href="#DejaVuSans-6e" x="432.341797"/>
      <use xlink:href="#DejaVuSans-20" x="495.720703"/>
      <use xlink:href="#DejaVuSans-3d" x="527.507812"/>
      <use xlink:href="#DejaVuSans-20" x="611.296875"/>
      <use xlink:href="#DejaVuSans-32" x="643.083984"/>
      <use xlink:href="#DejaVuSans-30" x="706.707031"/>
      <use xlink:href="#DejaVuSans-29" x="770.330078"/>
     </g>
    </g>
   </g>
  </g>
 </g>
 <defs>
  <clipPath id="peb5d06dcdc">
   <rect x="60.289063" y="28.396875" width="334.8" height="332.64"/>
  </clipPath>
 </defs>
</svg>
