<?xml version="1.0" encoding="utf-8" standalone="no"?>
<!DOCTYPE svg PUBLIC "-//W3C//DTD SVG 1.1//EN"
  "http://www.w3.org/Graphics/SVG/1.1/DTD/svg11.dtd">
<svg xmlns:xlink="http://www.w3.org/1999/xlink" width="500.984375pt" height="402.464375pt" viewBox="0 0 500.984375 402.464375" xmlns="http://www.w3.org/2000/svg" version="1.1">
 <metadata>
  <rdf:RDF xmlns:dc="http://purl.org/dc/elements/1.1/" xmlns:cc="http://creativecommons.org/ns#" xmlns:rdf="http://www.w3.org/1999/02/22-rdf-syntax-ns#">
   <cc:Work>
    <dc:type rdf:resource="http://purl.org/dc/dcmitype/StillImage"/>
    <dc:date>2025-01-13T12:36:10.338068</dc:date>
    <dc:format>image/svg+xml</dc:format>
    <dc:creator>
     <cc:Agent>
      <dc:title>Matplotlib v3.8.3, https://matplotlib.org/</dc:title>
     </cc:Agent>
    </dc:creator>
   </cc:Work>
  </rdf:RDF>
 </metadata>
 <defs>
  <style type="text/css">*{stroke-linejoin: round; stroke-linecap: butt}</style>
 </defs>
 <g id="figure_1">
  <g id="patch_1">
   <path d="M -0 402.464375 
L 500.984375 402.464375 
L 500.984375 0 
L -0 0 
z
" style="fill: #ffffff"/>
  </g>
  <g id="axes_1">
   <g id="patch_2">
    <path d="M 83.092187 361.036875 
L 417.892188 361.036875 
L 417.892188 28.396875 
L 83.092187 28.396875 
z
" style="fill: #ffffff"/>
   </g>
   <g id="patch_3">
    <path d="M 98.310369 361.036875 
L 185.271408 361.036875 
L 185.271408 230.020983 
L 98.310369 230.020983 
z
" clip-path="url(#pd2a456442b)" style="fill: #0000ff; opacity: 0.6"/>
   </g>
   <g id="patch_4">
    <path d="M 315.712967 361.036875 
L 402.674006 361.036875 
L 402.674006 219.365805 
L 315.712967 219.365805 
z
" clip-path="url(#pd2a456442b)" style="fill: #ffa500; opacity: 0.6"/>
   </g>
   <g id="LineCollection_1">
    <path d="M 141.790889 241.886734 
L 141.790889 218.155231 
" clip-path="url(#pd2a456442b)" style="fill: none; stroke: #000000; stroke-width: 1.5"/>
   </g>
   <g id="line2d_1">
    <defs>
     <path id="m1e37b44856" d="M 14 0 
L -14 -0 
" style="stroke: #000000"/>
    </defs>
    <g clip-path="url(#pd2a456442b)">
     <use xlink:href="#m1e37b44856" x="141.790889" y="241.886734" style="stroke: #000000"/>
    </g>
   </g>
   <g id="line2d_2">
    <g clip-path="url(#pd2a456442b)">
     <use xlink:href="#m1e37b44856" x="141.790889" y="218.155231" style="stroke: #000000"/>
    </g>
   </g>
   <g id="LineCollection_2">
    <path d="M 359.193486 233.794727 
L 359.193486 204.936883 
" clip-path="url(#pd2a456442b)" style="fill: none; stroke: #000000; stroke-width: 1.5"/>
   </g>
   <g id="line2d_3">
    <g clip-path="url(#pd2a456442b)">
     <use xlink:href="#m1e37b44856" x="359.193486" y="233.794727" style="stroke: #000000"/>
    </g>
   </g>
   <g id="line2d_4">
    <g clip-path="url(#pd2a456442b)">
     <use xlink:href="#m1e37b44856" x="359.193486" y="204.936883" style="stroke: #000000"/>
    </g>
   </g>
   <g id="matplotlib.axis_1">
    <g id="xtick_1">
     <g id="line2d_5">
      <defs>
       <path id="m2a9e798c81" d="M 0 0 
L 0 3.5 
" style="stroke: #000000; stroke-width: 0.8"/>
      </defs>
      <g>
       <use xlink:href="#m2a9e798c81" x="141.790889" y="361.036875" style="stroke: #000000; stroke-width: 0.8"/>
      </g>
     </g>
     <g id="text_1">
      <!-- Control -->
      <g transform="translate(123.719795 375.635312) scale(0.1 -0.1)">
       <defs>
        <path id="DejaVuSans-43" d="M 4122 4306 
L 4122 3641 
Q 3803 3938 3442 4084 
Q 3081 4231 2675 4231 
Q 1875 4231 1450 3742 
Q 1025 3253 1025 2328 
Q 1025 1406 1450 917 
Q 1875 428 2675 428 
Q 3081 428 3442 575 
Q 3803 722 4122 1019 
L 4122 359 
Q 3791 134 3420 21 
Q 3050 -91 2638 -91 
Q 1578 -91 968 557 
Q 359 1206 359 2328 
Q 359 3453 968 4101 
Q 1578 4750 2638 4750 
Q 3056 4750 3426 4639 
Q 3797 4528 4122 4306 
z
" transform="scale(0.015625)"/>
        <path id="DejaVuSans-6f" d="M 1959 3097 
Q 1497 3097 1228 2736 
Q 959 2375 959 1747 
Q 959 1119 1226 758 
Q 1494 397 1959 397 
Q 2419 397 2687 759 
Q 2956 1122 2956 1747 
Q 2956 2369 2687 2733 
Q 2419 3097 1959 3097 
z
M 1959 3584 
Q 2709 3584 3137 3096 
Q 3566 2609 3566 1747 
Q 3566 888 3137 398 
Q 2709 -91 1959 -91 
Q 1206 -91 779 398 
Q 353 888 353 1747 
Q 353 2609 779 3096 
Q 1206 3584 1959 3584 
z
" transform="scale(0.015625)"/>
        <path id="DejaVuSans-6e" d="M 3513 2113 
L 3513 0 
L 2938 0 
L 2938 2094 
Q 2938 2591 2744 2837 
Q 2550 3084 2163 3084 
Q 1697 3084 1428 2787 
Q 1159 2491 1159 1978 
L 1159 0 
L 581 0 
L 581 3500 
L 1159 3500 
L 1159 2956 
Q 1366 3272 1645 3428 
Q 1925 3584 2291 3584 
Q 2894 3584 3203 3211 
Q 3513 2838 3513 2113 
z
" transform="scale(0.015625)"/>
        <path id="DejaVuSans-74" d="M 1172 4494 
L 1172 3500 
L 2356 3500 
L 2356 3053 
L 1172 3053 
L 1172 1153 
Q 1172 725 1289 603 
Q 1406 481 1766 481 
L 2356 481 
L 2356 0 
L 1766 0 
Q 1100 0 847 248 
Q 594 497 594 1153 
L 594 3053 
L 172 3053 
L 172 3500 
L 594 3500 
L 594 4494 
L 1172 4494 
z
" transform="scale(0.015625)"/>
        <path id="DejaVuSans-72" d="M 2631 2963 
Q 2534 3019 2420 3045 
Q 2306 3072 2169 3072 
Q 1681 3072 1420 2755 
Q 1159 2438 1159 1844 
L 1159 0 
L 581 0 
L 581 3500 
L 1159 3500 
L 1159 2956 
Q 1341 3275 1631 3429 
Q 1922 3584 2338 3584 
Q 2397 3584 2469 3576 
Q 2541 3569 2628 3553 
L 2631 2963 
z
" transform="scale(0.015625)"/>
        <path id="DejaVuSans-6c" d="M 603 4863 
L 1178 4863 
L 1178 0 
L 603 0 
L 603 4863 
z
" transform="scale(0.015625)"/>
       </defs>
       <use xlink:href="#DejaVuSans-43"/>
       <use xlink:href="#DejaVuSans-6f" x="69.824219"/>
       <use xlink:href="#DejaVuSans-6e" x="131.005859"/>
       <use xlink:href="#DejaVuSans-74" x="194.384766"/>
       <use xlink:href="#DejaVuSans-72" x="233.59375"/>
       <use xlink:href="#DejaVuSans-6f" x="272.457031"/>
       <use xlink:href="#DejaVuSans-6c" x="333.638672"/>
      </g>
     </g>
    </g>
    <g id="xtick_2">
     <g id="line2d_6">
      <g>
       <use xlink:href="#m2a9e798c81" x="359.193486" y="361.036875" style="stroke: #000000; stroke-width: 0.8"/>
      </g>
     </g>
     <g id="text_2">
      <!-- CASK -->
      <g transform="translate(345.828642 375.635312) scale(0.1 -0.1)">
       <defs>
        <path id="DejaVuSans-41" d="M 2188 4044 
L 1331 1722 
L 3047 1722 
L 2188 4044 
z
M 1831 4666 
L 2547 4666 
L 4325 0 
L 3669 0 
L 3244 1197 
L 1141 1197 
L 716 0 
L 50 0 
L 1831 4666 
z
" transform="scale(0.015625)"/>
        <path id="DejaVuSans-53" d="M 3425 4513 
L 3425 3897 
Q 3066 4069 2747 4153 
Q 2428 4238 2131 4238 
Q 1616 4238 1336 4038 
Q 1056 3838 1056 3469 
Q 1056 3159 1242 3001 
Q 1428 2844 1947 2747 
L 2328 2669 
Q 3034 2534 3370 2195 
Q 3706 1856 3706 1288 
Q 3706 609 3251 259 
Q 2797 -91 1919 -91 
Q 1588 -91 1214 -16 
Q 841 59 441 206 
L 441 856 
Q 825 641 1194 531 
Q 1563 422 1919 422 
Q 2459 422 2753 634 
Q 3047 847 3047 1241 
Q 3047 1584 2836 1778 
Q 2625 1972 2144 2069 
L 1759 2144 
Q 1053 2284 737 2584 
Q 422 2884 422 3419 
Q 422 4038 858 4394 
Q 1294 4750 2059 4750 
Q 2388 4750 2728 4690 
Q 3069 4631 3425 4513 
z
" transform="scale(0.015625)"/>
        <path id="DejaVuSans-4b" d="M 628 4666 
L 1259 4666 
L 1259 2694 
L 3353 4666 
L 4166 4666 
L 1850 2491 
L 4331 0 
L 3500 0 
L 1259 2247 
L 1259 0 
L 628 0 
L 628 4666 
z
" transform="scale(0.015625)"/>
       </defs>
       <use xlink:href="#DejaVuSans-43"/>
       <use xlink:href="#DejaVuSans-41" x="69.824219"/>
       <use xlink:href="#DejaVuSans-53" x="138.232422"/>
       <use xlink:href="#DejaVuSans-4b" x="201.708984"/>
      </g>
     </g>
    </g>
    <g id="text_3">
     <!-- Groups -->
     <g transform="translate(225.538281 392.352812) scale(0.14 -0.14)">
      <defs>
       <path id="DejaVuSans-47" d="M 3809 666 
L 3809 1919 
L 2778 1919 
L 2778 2438 
L 4434 2438 
L 4434 434 
Q 4069 175 3628 42 
Q 3188 -91 2688 -91 
Q 1594 -91 976 548 
Q 359 1188 359 2328 
Q 359 3472 976 4111 
Q 1594 4750 2688 4750 
Q 3144 4750 3555 4637 
Q 3966 4525 4313 4306 
L 4313 3634 
Q 3963 3931 3569 4081 
Q 3175 4231 2741 4231 
Q 1884 4231 1454 3753 
Q 1025 3275 1025 2328 
Q 1025 1384 1454 906 
Q 1884 428 2741 428 
Q 3075 428 3337 486 
Q 3600 544 3809 666 
z
" transform="scale(0.015625)"/>
       <path id="DejaVuSans-75" d="M 544 1381 
L 544 3500 
L 1119 3500 
L 1119 1403 
Q 1119 906 1312 657 
Q 1506 409 1894 409 
Q 2359 409 2629 706 
Q 2900 1003 2900 1516 
L 2900 3500 
L 3475 3500 
L 3475 0 
L 2900 0 
L 2900 538 
Q 2691 219 2414 64 
Q 2138 -91 1772 -91 
Q 1169 -91 856 284 
Q 544 659 544 1381 
z
M 1991 3584 
L 1991 3584 
z
" transform="scale(0.015625)"/>
       <path id="DejaVuSans-70" d="M 1159 525 
L 1159 -1331 
L 581 -1331 
L 581 3500 
L 1159 3500 
L 1159 2969 
Q 1341 3281 1617 3432 
Q 1894 3584 2278 3584 
Q 2916 3584 3314 3078 
Q 3713 2572 3713 1747 
Q 3713 922 3314 415 
Q 2916 -91 2278 -91 
Q 1894 -91 1617 61 
Q 1341 213 1159 525 
z
M 3116 1747 
Q 3116 2381 2855 2742 
Q 2594 3103 2138 3103 
Q 1681 3103 1420 2742 
Q 1159 2381 1159 1747 
Q 1159 1113 1420 752 
Q 1681 391 2138 391 
Q 2594 391 2855 752 
Q 3116 1113 3116 1747 
z
" transform="scale(0.015625)"/>
       <path id="DejaVuSans-73" d="M 2834 3397 
L 2834 2853 
Q 2591 2978 2328 3040 
Q 2066 3103 1784 3103 
Q 1356 3103 1142 2972 
Q 928 2841 928 2578 
Q 928 2378 1081 2264 
Q 1234 2150 1697 2047 
L 1894 2003 
Q 2506 1872 2764 1633 
Q 3022 1394 3022 966 
Q 3022 478 2636 193 
Q 2250 -91 1575 -91 
Q 1294 -91 989 -36 
Q 684 19 347 128 
L 347 722 
Q 666 556 975 473 
Q 1284 391 1588 391 
Q 1994 391 2212 530 
Q 2431 669 2431 922 
Q 2431 1156 2273 1281 
Q 2116 1406 1581 1522 
L 1381 1569 
Q 847 1681 609 1914 
Q 372 2147 372 2553 
Q 372 3047 722 3315 
Q 1072 3584 1716 3584 
Q 2034 3584 2315 3537 
Q 2597 3491 2834 3397 
z
" transform="scale(0.015625)"/>
      </defs>
      <use xlink:href="#DejaVuSans-47"/>
      <use xlink:href="#DejaVuSans-72" x="77.490234"/>
      <use xlink:href="#DejaVuSans-6f" x="116.353516"/>
      <use xlink:href="#DejaVuSans-75" x="177.535156"/>
      <use xlink:href="#DejaVuSans-70" x="240.914062"/>
      <use xlink:href="#DejaVuSans-73" x="304.390625"/>
     </g>
    </g>
   </g>
   <g id="matplotlib.axis_2">
    <g id="ytick_1">
     <g id="line2d_7">
      <defs>
       <path id="m5167cb7694" d="M 0 0 
L -3.5 0 
" style="stroke: #000000; stroke-width: 0.8"/>
      </defs>
      <g>
       <use xlink:href="#m5167cb7694" x="83.092187" y="361.036875" style="stroke: #000000; stroke-width: 0.8"/>
      </g>
     </g>
     <g id="text_4">
      <!-- 0 -->
      <g transform="translate(69.729687 364.836094) scale(0.1 -0.1)">
       <defs>
        <path id="DejaVuSans-30" d="M 2034 4250 
Q 1547 4250 1301 3770 
Q 1056 3291 1056 2328 
Q 1056 1369 1301 889 
Q 1547 409 2034 409 
Q 2525 409 2770 889 
Q 3016 1369 3016 2328 
Q 3016 3291 2770 3770 
Q 2525 4250 2034 4250 
z
M 2034 4750 
Q 2819 4750 3233 4129 
Q 3647 3509 3647 2328 
Q 3647 1150 3233 529 
Q 2819 -91 2034 -91 
Q 1250 -91 836 529 
Q 422 1150 422 2328 
Q 422 3509 836 4129 
Q 1250 4750 2034 4750 
z
" transform="scale(0.015625)"/>
       </defs>
       <use xlink:href="#DejaVuSans-30"/>
      </g>
     </g>
    </g>
    <g id="ytick_2">
     <g id="line2d_8">
      <g>
       <use xlink:href="#m5167cb7694" x="83.092187" y="305.608653" style="stroke: #000000; stroke-width: 0.8"/>
      </g>
     </g>
     <g id="text_5">
      <!-- 20 -->
      <g transform="translate(63.367187 309.407872) scale(0.1 -0.1)">
       <defs>
        <path id="DejaVuSans-32" d="M 1228 531 
L 3431 531 
L 3431 0 
L 469 0 
L 469 531 
Q 828 903 1448 1529 
Q 2069 2156 2228 2338 
Q 2531 2678 2651 2914 
Q 2772 3150 2772 3378 
Q 2772 3750 2511 3984 
Q 2250 4219 1831 4219 
Q 1534 4219 1204 4116 
Q 875 4013 500 3803 
L 500 4441 
Q 881 4594 1212 4672 
Q 1544 4750 1819 4750 
Q 2544 4750 2975 4387 
Q 3406 4025 3406 3419 
Q 3406 3131 3298 2873 
Q 3191 2616 2906 2266 
Q 2828 2175 2409 1742 
Q 1991 1309 1228 531 
z
" transform="scale(0.015625)"/>
       </defs>
       <use xlink:href="#DejaVuSans-32"/>
       <use xlink:href="#DejaVuSans-30" x="63.623047"/>
      </g>
     </g>
    </g>
    <g id="ytick_3">
     <g id="line2d_9">
      <g>
       <use xlink:href="#m5167cb7694" x="83.092187" y="250.180432" style="stroke: #000000; stroke-width: 0.8"/>
      </g>
     </g>
     <g id="text_6">
      <!-- 40 -->
      <g transform="translate(63.367187 253.979651) scale(0.1 -0.1)">
       <defs>
        <path id="DejaVuSans-34" d="M 2419 4116 
L 825 1625 
L 2419 1625 
L 2419 4116 
z
M 2253 4666 
L 3047 4666 
L 3047 1625 
L 3713 1625 
L 3713 1100 
L 3047 1100 
L 3047 0 
L 2419 0 
L 2419 1100 
L 313 1100 
L 313 1709 
L 2253 4666 
z
" transform="scale(0.015625)"/>
       </defs>
       <use xlink:href="#DejaVuSans-34"/>
       <use xlink:href="#DejaVuSans-30" x="63.623047"/>
      </g>
     </g>
    </g>
    <g id="ytick_4">
     <g id="line2d_10">
      <g>
       <use xlink:href="#m5167cb7694" x="83.092187" y="194.75221" style="stroke: #000000; stroke-width: 0.8"/>
      </g>
     </g>
     <g id="text_7">
      <!-- 60 -->
      <g transform="translate(63.367187 198.551429) scale(0.1 -0.1)">
       <defs>
        <path id="DejaVuSans-36" d="M 2113 2584 
Q 1688 2584 1439 2293 
Q 1191 2003 1191 1497 
Q 1191 994 1439 701 
Q 1688 409 2113 409 
Q 2538 409 2786 701 
Q 3034 994 3034 1497 
Q 3034 2003 2786 2293 
Q 2538 2584 2113 2584 
z
M 3366 4563 
L 3366 3988 
Q 3128 4100 2886 4159 
Q 2644 4219 2406 4219 
Q 1781 4219 1451 3797 
Q 1122 3375 1075 2522 
Q 1259 2794 1537 2939 
Q 1816 3084 2150 3084 
Q 2853 3084 3261 2657 
Q 3669 2231 3669 1497 
Q 3669 778 3244 343 
Q 2819 -91 2113 -91 
Q 1303 -91 875 529 
Q 447 1150 447 2328 
Q 447 3434 972 4092 
Q 1497 4750 2381 4750 
Q 2619 4750 2861 4703 
Q 3103 4656 3366 4563 
z
" transform="scale(0.015625)"/>
       </defs>
       <use xlink:href="#DejaVuSans-36"/>
       <use xlink:href="#DejaVuSans-30" x="63.623047"/>
      </g>
     </g>
    </g>
    <g id="ytick_5">
     <g id="line2d_11">
      <g>
       <use xlink:href="#m5167cb7694" x="83.092187" y="139.323989" style="stroke: #000000; stroke-width: 0.8"/>
      </g>
     </g>
     <g id="text_8">
      <!-- 80 -->
      <g transform="translate(63.367187 143.123208) scale(0.1 -0.1)">
       <defs>
        <path id="DejaVuSans-38" d="M 2034 2216 
Q 1584 2216 1326 1975 
Q 1069 1734 1069 1313 
Q 1069 891 1326 650 
Q 1584 409 2034 409 
Q 2484 409 2743 651 
Q 3003 894 3003 1313 
Q 3003 1734 2745 1975 
Q 2488 2216 2034 2216 
z
M 1403 2484 
Q 997 2584 770 2862 
Q 544 3141 544 3541 
Q 544 4100 942 4425 
Q 1341 4750 2034 4750 
Q 2731 4750 3128 4425 
Q 3525 4100 3525 3541 
Q 3525 3141 3298 2862 
Q 3072 2584 2669 2484 
Q 3125 2378 3379 2068 
Q 3634 1759 3634 1313 
Q 3634 634 3220 271 
Q 2806 -91 2034 -91 
Q 1263 -91 848 271 
Q 434 634 434 1313 
Q 434 1759 690 2068 
Q 947 2378 1403 2484 
z
M 1172 3481 
Q 1172 3119 1398 2916 
Q 1625 2713 2034 2713 
Q 2441 2713 2670 2916 
Q 2900 3119 2900 3481 
Q 2900 3844 2670 4047 
Q 2441 4250 2034 4250 
Q 1625 4250 1398 4047 
Q 1172 3844 1172 3481 
z
" transform="scale(0.015625)"/>
       </defs>
       <use xlink:href="#DejaVuSans-38"/>
       <use xlink:href="#DejaVuSans-30" x="63.623047"/>
      </g>
     </g>
    </g>
    <g id="ytick_6">
     <g id="line2d_12">
      <g>
       <use xlink:href="#m5167cb7694" x="83.092187" y="83.895767" style="stroke: #000000; stroke-width: 0.8"/>
      </g>
     </g>
     <g id="text_9">
      <!-- 100 -->
      <g transform="translate(57.004687 87.694986) scale(0.1 -0.1)">
       <defs>
        <path id="DejaVuSans-31" d="M 794 531 
L 1825 531 
L 1825 4091 
L 703 3866 
L 703 4441 
L 1819 4666 
L 2450 4666 
L 2450 531 
L 3481 531 
L 3481 0 
L 794 0 
L 794 531 
z
" transform="scale(0.015625)"/>
       </defs>
       <use xlink:href="#DejaVuSans-31"/>
       <use xlink:href="#DejaVuSans-30" x="63.623047"/>
       <use xlink:href="#DejaVuSans-30" x="127.246094"/>
      </g>
     </g>
    </g>
    <g id="ytick_7">
     <g id="line2d_13">
      <g>
       <use xlink:href="#m5167cb7694" x="83.092187" y="28.467546" style="stroke: #000000; stroke-width: 0.8"/>
      </g>
     </g>
     <g id="text_10">
      <!-- 120 -->
      <g transform="translate(57.004687 32.266765) scale(0.1 -0.1)">
       <use xlink:href="#DejaVuSans-31"/>
       <use xlink:href="#DejaVuSans-32" x="63.623047"/>
       <use xlink:href="#DejaVuSans-30" x="127.246094"/>
      </g>
     </g>
    </g>
    <g id="text_11">
     <!-- Averages (minutes) -->
     <g transform="translate(50.093125 263.129844) rotate(-90) scale(0.14 -0.14)">
      <defs>
       <path id="DejaVuSans-76" d="M 191 3500 
L 800 3500 
L 1894 563 
L 2988 3500 
L 3597 3500 
L 2284 0 
L 1503 0 
L 191 3500 
z
" transform="scale(0.015625)"/>
       <path id="DejaVuSans-65" d="M 3597 1894 
L 3597 1613 
L 953 1613 
Q 991 1019 1311 708 
Q 1631 397 2203 397 
Q 2534 397 2845 478 
Q 3156 559 3463 722 
L 3463 178 
Q 3153 47 2828 -22 
Q 2503 -91 2169 -91 
Q 1331 -91 842 396 
Q 353 884 353 1716 
Q 353 2575 817 3079 
Q 1281 3584 2069 3584 
Q 2775 3584 3186 3129 
Q 3597 2675 3597 1894 
z
M 3022 2063 
Q 3016 2534 2758 2815 
Q 2500 3097 2075 3097 
Q 1594 3097 1305 2825 
Q 1016 2553 972 2059 
L 3022 2063 
z
" transform="scale(0.015625)"/>
       <path id="DejaVuSans-61" d="M 2194 1759 
Q 1497 1759 1228 1600 
Q 959 1441 959 1056 
Q 959 750 1161 570 
Q 1363 391 1709 391 
Q 2188 391 2477 730 
Q 2766 1069 2766 1631 
L 2766 1759 
L 2194 1759 
z
M 3341 1997 
L 3341 0 
L 2766 0 
L 2766 531 
Q 2569 213 2275 61 
Q 1981 -91 1556 -91 
Q 1019 -91 701 211 
Q 384 513 384 1019 
Q 384 1609 779 1909 
Q 1175 2209 1959 2209 
L 2766 2209 
L 2766 2266 
Q 2766 2663 2505 2880 
Q 2244 3097 1772 3097 
Q 1472 3097 1187 3025 
Q 903 2953 641 2809 
L 641 3341 
Q 956 3463 1253 3523 
Q 1550 3584 1831 3584 
Q 2591 3584 2966 3190 
Q 3341 2797 3341 1997 
z
" transform="scale(0.015625)"/>
       <path id="DejaVuSans-67" d="M 2906 1791 
Q 2906 2416 2648 2759 
Q 2391 3103 1925 3103 
Q 1463 3103 1205 2759 
Q 947 2416 947 1791 
Q 947 1169 1205 825 
Q 1463 481 1925 481 
Q 2391 481 2648 825 
Q 2906 1169 2906 1791 
z
M 3481 434 
Q 3481 -459 3084 -895 
Q 2688 -1331 1869 -1331 
Q 1566 -1331 1297 -1286 
Q 1028 -1241 775 -1147 
L 775 -588 
Q 1028 -725 1275 -790 
Q 1522 -856 1778 -856 
Q 2344 -856 2625 -561 
Q 2906 -266 2906 331 
L 2906 616 
Q 2728 306 2450 153 
Q 2172 0 1784 0 
Q 1141 0 747 490 
Q 353 981 353 1791 
Q 353 2603 747 3093 
Q 1141 3584 1784 3584 
Q 2172 3584 2450 3431 
Q 2728 3278 2906 2969 
L 2906 3500 
L 3481 3500 
L 3481 434 
z
" transform="scale(0.015625)"/>
       <path id="DejaVuSans-20" transform="scale(0.015625)"/>
       <path id="DejaVuSans-28" d="M 1984 4856 
Q 1566 4138 1362 3434 
Q 1159 2731 1159 2009 
Q 1159 1288 1364 580 
Q 1569 -128 1984 -844 
L 1484 -844 
Q 1016 -109 783 600 
Q 550 1309 550 2009 
Q 550 2706 781 3412 
Q 1013 4119 1484 4856 
L 1984 4856 
z
" transform="scale(0.015625)"/>
       <path id="DejaVuSans-6d" d="M 3328 2828 
Q 3544 3216 3844 3400 
Q 4144 3584 4550 3584 
Q 5097 3584 5394 3201 
Q 5691 2819 5691 2113 
L 5691 0 
L 5113 0 
L 5113 2094 
Q 5113 2597 4934 2840 
Q 4756 3084 4391 3084 
Q 3944 3084 3684 2787 
Q 3425 2491 3425 1978 
L 3425 0 
L 2847 0 
L 2847 2094 
Q 2847 2600 2669 2842 
Q 2491 3084 2119 3084 
Q 1678 3084 1418 2786 
Q 1159 2488 1159 1978 
L 1159 0 
L 581 0 
L 581 3500 
L 1159 3500 
L 1159 2956 
Q 1356 3278 1631 3431 
Q 1906 3584 2284 3584 
Q 2666 3584 2933 3390 
Q 3200 3197 3328 2828 
z
" transform="scale(0.015625)"/>
       <path id="DejaVuSans-69" d="M 603 3500 
L 1178 3500 
L 1178 0 
L 603 0 
L 603 3500 
z
M 603 4863 
L 1178 4863 
L 1178 4134 
L 603 4134 
L 603 4863 
z
" transform="scale(0.015625)"/>
       <path id="DejaVuSans-29" d="M 513 4856 
L 1013 4856 
Q 1481 4119 1714 3412 
Q 1947 2706 1947 2009 
Q 1947 1309 1714 600 
Q 1481 -109 1013 -844 
L 513 -844 
Q 928 -128 1133 580 
Q 1338 1288 1338 2009 
Q 1338 2731 1133 3434 
Q 928 4138 513 4856 
z
" transform="scale(0.015625)"/>
      </defs>
      <use xlink:href="#DejaVuSans-41"/>
      <use xlink:href="#DejaVuSans-76" x="62.533203"/>
      <use xlink:href="#DejaVuSans-65" x="121.712891"/>
      <use xlink:href="#DejaVuSans-72" x="183.236328"/>
      <use xlink:href="#DejaVuSans-61" x="224.349609"/>
      <use xlink:href="#DejaVuSans-67" x="285.628906"/>
      <use xlink:href="#DejaVuSans-65" x="349.105469"/>
      <use xlink:href="#DejaVuSans-73" x="410.628906"/>
      <use xlink:href="#DejaVuSans-20" x="462.728516"/>
      <use xlink:href="#DejaVuSans-28" x="494.515625"/>
      <use xlink:href="#DejaVuSans-6d" x="533.529297"/>
      <use xlink:href="#DejaVuSans-69" x="630.941406"/>
      <use xlink:href="#DejaVuSans-6e" x="658.724609"/>
      <use xlink:href="#DejaVuSans-75" x="722.103516"/>
      <use xlink:href="#DejaVuSans-74" x="785.482422"/>
      <use xlink:href="#DejaVuSans-65" x="824.691406"/>
      <use xlink:href="#DejaVuSans-73" x="886.214844"/>
      <use xlink:href="#DejaVuSans-29" x="938.314453"/>
     </g>
    </g>
   </g>
   <g id="PathCollection_1">
    <defs>
     <path id="ma016b67e23" d="M 0 3 
C 0.795609 3 1.55874 2.683901 2.12132 2.12132 
C 2.683901 1.55874 3 0.795609 3 0 
C 3 -0.795609 2.683901 -1.55874 2.12132 -2.12132 
C 1.55874 -2.683901 0.795609 -3 0 -3 
C -0.795609 -3 -1.55874 -2.683901 -2.12132 -2.12132 
C -2.683901 -1.55874 -3 -0.795609 -3 0 
C -3 0.795609 -2.683901 1.55874 -2.12132 2.12132 
C -1.55874 2.683901 -0.795609 3 0 3 
z
" style="stroke: #1405eb; stroke-opacity: 0.8"/>
    </defs>
    <g clip-path="url(#pd2a456442b)">
     <use xlink:href="#ma016b67e23" x="149.996036" y="101.355657" style="fill: #1405eb; fill-opacity: 0.8; stroke: #1405eb; stroke-opacity: 0.8"/>
     <use xlink:href="#ma016b67e23" x="145.107205" y="261.709502" style="fill: #1405eb; fill-opacity: 0.8; stroke: #1405eb; stroke-opacity: 0.8"/>
     <use xlink:href="#ma016b67e23" x="143.850108" y="161.606134" style="fill: #1405eb; fill-opacity: 0.8; stroke: #1405eb; stroke-opacity: 0.8"/>
     <use xlink:href="#ma016b67e23" x="140.881222" y="324.565105" style="fill: #1405eb; fill-opacity: 0.8; stroke: #1405eb; stroke-opacity: 0.8"/>
     <use xlink:href="#ma016b67e23" x="142.29166" y="251.205854" style="fill: #1405eb; fill-opacity: 0.8; stroke: #1405eb; stroke-opacity: 0.8"/>
     <use xlink:href="#ma016b67e23" x="146.280116" y="262.513211" style="fill: #1405eb; fill-opacity: 0.8; stroke: #1405eb; stroke-opacity: 0.8"/>
     <use xlink:href="#ma016b67e23" x="146.77124" y="295.27129" style="fill: #1405eb; fill-opacity: 0.8; stroke: #1405eb; stroke-opacity: 0.8"/>
     <use xlink:href="#ma016b67e23" x="142.466632" y="288.148764" style="fill: #1405eb; fill-opacity: 0.8; stroke: #1405eb; stroke-opacity: 0.8"/>
     <use xlink:href="#ma016b67e23" x="135.769752" y="158.723867" style="fill: #1405eb; fill-opacity: 0.8; stroke: #1405eb; stroke-opacity: 0.8"/>
     <use xlink:href="#ma016b67e23" x="149.379982" y="155.952455" style="fill: #1405eb; fill-opacity: 0.8; stroke: #1405eb; stroke-opacity: 0.8"/>
     <use xlink:href="#ma016b67e23" x="135.828571" y="278.088542" style="fill: #1405eb; fill-opacity: 0.8; stroke: #1405eb; stroke-opacity: 0.8"/>
     <use xlink:href="#ma016b67e23" x="138.81218" y="276.439552" style="fill: #1405eb; fill-opacity: 0.8; stroke: #1405eb; stroke-opacity: 0.8"/>
     <use xlink:href="#ma016b67e23" x="146.767755" y="199.920892" style="fill: #1405eb; fill-opacity: 0.8; stroke: #1405eb; stroke-opacity: 0.8"/>
     <use xlink:href="#ma016b67e23" x="143.16695" y="217.20064" style="fill: #1405eb; fill-opacity: 0.8; stroke: #1405eb; stroke-opacity: 0.8"/>
     <use xlink:href="#ma016b67e23" x="139.290582" y="269.663452" style="fill: #1405eb; fill-opacity: 0.8; stroke: #1405eb; stroke-opacity: 0.8"/>
     <use xlink:href="#ma016b67e23" x="141.078331" y="133.254599" style="fill: #1405eb; fill-opacity: 0.8; stroke: #1405eb; stroke-opacity: 0.8"/>
     <use xlink:href="#ma016b67e23" x="147.042602" y="204.396721" style="fill: #1405eb; fill-opacity: 0.8; stroke: #1405eb; stroke-opacity: 0.8"/>
     <use xlink:href="#ma016b67e23" x="135.713236" y="214.720227" style="fill: #1405eb; fill-opacity: 0.8; stroke: #1405eb; stroke-opacity: 0.8"/>
     <use xlink:href="#ma016b67e23" x="142.798211" y="163.088839" style="fill: #1405eb; fill-opacity: 0.8; stroke: #1405eb; stroke-opacity: 0.8"/>
     <use xlink:href="#ma016b67e23" x="148.79152" y="216.535502" style="fill: #1405eb; fill-opacity: 0.8; stroke: #1405eb; stroke-opacity: 0.8"/>
     <use xlink:href="#ma016b67e23" x="150.414703" y="161.037995" style="fill: #1405eb; fill-opacity: 0.8; stroke: #1405eb; stroke-opacity: 0.8"/>
     <use xlink:href="#ma016b67e23" x="148.720336" y="158.349726" style="fill: #1405eb; fill-opacity: 0.8; stroke: #1405eb; stroke-opacity: 0.8"/>
     <use xlink:href="#ma016b67e23" x="143.309945" y="301.922677" style="fill: #1405eb; fill-opacity: 0.8; stroke: #1405eb; stroke-opacity: 0.8"/>
     <use xlink:href="#ma016b67e23" x="135.839073" y="312.481753" style="fill: #1405eb; fill-opacity: 0.8; stroke: #1405eb; stroke-opacity: 0.8"/>
     <use xlink:href="#ma016b67e23" x="138.402558" y="272.490291" style="fill: #1405eb; fill-opacity: 0.8; stroke: #1405eb; stroke-opacity: 0.8"/>
     <use xlink:href="#ma016b67e23" x="145.253053" y="281.580519" style="fill: #1405eb; fill-opacity: 0.8; stroke: #1405eb; stroke-opacity: 0.8"/>
     <use xlink:href="#ma016b67e23" x="136.36029" y="288.342762" style="fill: #1405eb; fill-opacity: 0.8; stroke: #1405eb; stroke-opacity: 0.8"/>
    </g>
   </g>
   <g id="PathCollection_2">
    <defs>
     <path id="m66e64dc833" d="M 0 3 
C 0.795609 3 1.55874 2.683901 2.12132 2.12132 
C 2.683901 1.55874 3 0.795609 3 0 
C 3 -0.795609 2.683901 -1.55874 2.12132 -2.12132 
C 1.55874 -2.683901 0.795609 -3 0 -3 
C -0.795609 -3 -1.55874 -2.683901 -2.12132 -2.12132 
C -2.683901 -1.55874 -3 -0.795609 -3 0 
C -3 0.795609 -2.683901 1.55874 -2.12132 2.12132 
C -1.55874 2.683901 -0.795609 3 0 3 
z
" style="stroke: #f28211; stroke-opacity: 0.8"/>
    </defs>
    <g clip-path="url(#pd2a456442b)">
     <use xlink:href="#m66e64dc833" x="354.596799" y="288.037907" style="fill: #f28211; fill-opacity: 0.8; stroke: #f28211; stroke-opacity: 0.8"/>
     <use xlink:href="#m66e64dc833" x="353.23667" y="243.08562" style="fill: #f28211; fill-opacity: 0.8; stroke: #f28211; stroke-opacity: 0.8"/>
     <use xlink:href="#m66e64dc833" x="365.118819" y="113.937864" style="fill: #f28211; fill-opacity: 0.8; stroke: #f28211; stroke-opacity: 0.8"/>
     <use xlink:href="#m66e64dc833" x="364.881771" y="292.735449" style="fill: #f28211; fill-opacity: 0.8; stroke: #f28211; stroke-opacity: 0.8"/>
     <use xlink:href="#m66e64dc833" x="362.702908" y="314.1446" style="fill: #f28211; fill-opacity: 0.8; stroke: #f28211; stroke-opacity: 0.8"/>
     <use xlink:href="#m66e64dc833" x="350.744312" y="245.178035" style="fill: #f28211; fill-opacity: 0.8; stroke: #f28211; stroke-opacity: 0.8"/>
     <use xlink:href="#m66e64dc833" x="349.367531" y="129.236053" style="fill: #f28211; fill-opacity: 0.8; stroke: #f28211; stroke-opacity: 0.8"/>
     <use xlink:href="#m66e64dc833" x="350.70707" y="265.838905" style="fill: #f28211; fill-opacity: 0.8; stroke: #f28211; stroke-opacity: 0.8"/>
     <use xlink:href="#m66e64dc833" x="350.806355" y="279.266391" style="fill: #f28211; fill-opacity: 0.8; stroke: #f28211; stroke-opacity: 0.8"/>
     <use xlink:href="#m66e64dc833" x="358.905999" y="307.881211" style="fill: #f28211; fill-opacity: 0.8; stroke: #f28211; stroke-opacity: 0.8"/>
     <use xlink:href="#m66e64dc833" x="366.631131" y="188.641249" style="fill: #f28211; fill-opacity: 0.8; stroke: #f28211; stroke-opacity: 0.8"/>
     <use xlink:href="#m66e64dc833" x="350.429268" y="210.909537" style="fill: #f28211; fill-opacity: 0.8; stroke: #f28211; stroke-opacity: 0.8"/>
     <use xlink:href="#m66e64dc833" x="365.340359" y="160.358999" style="fill: #f28211; fill-opacity: 0.8; stroke: #f28211; stroke-opacity: 0.8"/>
     <use xlink:href="#m66e64dc833" x="349.817279" y="220.457048" style="fill: #f28211; fill-opacity: 0.8; stroke: #f28211; stroke-opacity: 0.8"/>
     <use xlink:href="#m66e64dc833" x="350.750753" y="87.55403" style="fill: #f28211; fill-opacity: 0.8; stroke: #f28211; stroke-opacity: 0.8"/>
     <use xlink:href="#m66e64dc833" x="366.809715" y="264.176058" style="fill: #f28211; fill-opacity: 0.8; stroke: #f28211; stroke-opacity: 0.8"/>
     <use xlink:href="#m66e64dc833" x="360.644366" y="44.236875" style="fill: #f28211; fill-opacity: 0.8; stroke: #f28211; stroke-opacity: 0.8"/>
     <use xlink:href="#m66e64dc833" x="363.024495" y="276.508837" style="fill: #f28211; fill-opacity: 0.8; stroke: #f28211; stroke-opacity: 0.8"/>
     <use xlink:href="#m66e64dc833" x="369.898295" y="215.593222" style="fill: #f28211; fill-opacity: 0.8; stroke: #f28211; stroke-opacity: 0.8"/>
     <use xlink:href="#m66e64dc833" x="369.98489" y="224.07374" style="fill: #f28211; fill-opacity: 0.8; stroke: #f28211; stroke-opacity: 0.8"/>
     <use xlink:href="#m66e64dc833" x="353.275824" y="150.04935" style="fill: #f28211; fill-opacity: 0.8; stroke: #f28211; stroke-opacity: 0.8"/>
     <use xlink:href="#m66e64dc833" x="363.9159" y="261.266076" style="fill: #f28211; fill-opacity: 0.8; stroke: #f28211; stroke-opacity: 0.8"/>
     <use xlink:href="#m66e64dc833" x="357.279414" y="267.778892" style="fill: #f28211; fill-opacity: 0.8; stroke: #f28211; stroke-opacity: 0.8"/>
     <use xlink:href="#m66e64dc833" x="368.669978" y="213.833376" style="fill: #f28211; fill-opacity: 0.8; stroke: #f28211; stroke-opacity: 0.8"/>
    </g>
   </g>
   <g id="patch_5">
    <path d="M 83.092187 361.036875 
L 83.092187 28.396875 
" style="fill: none; stroke: #000000; stroke-width: 0.8; stroke-linejoin: miter; stroke-linecap: square"/>
   </g>
   <g id="patch_6">
    <path d="M 417.892188 361.036875 
L 417.892188 28.396875 
" style="fill: none; stroke: #000000; stroke-width: 0.8; stroke-linejoin: miter; stroke-linecap: square"/>
   </g>
   <g id="patch_7">
    <path d="M 83.092187 361.036875 
L 417.892188 361.036875 
" style="fill: none; stroke: #000000; stroke-width: 0.8; stroke-linejoin: miter; stroke-linecap: square"/>
   </g>
   <g id="patch_8">
    <path d="M 83.092187 28.396875 
L 417.892188 28.396875 
" style="fill: none; stroke: #000000; stroke-width: 0.8; stroke-linejoin: miter; stroke-linecap: square"/>
   </g>
   <g id="text_12">
    <!-- Mean 1st Meal Time of Control and CASK Groups -->
    <g transform="translate(7.2 22.396875) scale(0.2 -0.2)">
     <defs>
      <path id="DejaVuSans-4d" d="M 628 4666 
L 1569 4666 
L 2759 1491 
L 3956 4666 
L 4897 4666 
L 4897 0 
L 4281 0 
L 4281 4097 
L 3078 897 
L 2444 897 
L 1241 4097 
L 1241 0 
L 628 0 
L 628 4666 
z
" transform="scale(0.015625)"/>
      <path id="DejaVuSans-54" d="M -19 4666 
L 3928 4666 
L 3928 4134 
L 2272 4134 
L 2272 0 
L 1638 0 
L 1638 4134 
L -19 4134 
L -19 4666 
z
" transform="scale(0.015625)"/>
      <path id="DejaVuSans-66" d="M 2375 4863 
L 2375 4384 
L 1825 4384 
Q 1516 4384 1395 4259 
Q 1275 4134 1275 3809 
L 1275 3500 
L 2222 3500 
L 2222 3053 
L 1275 3053 
L 1275 0 
L 697 0 
L 697 3053 
L 147 3053 
L 147 3500 
L 697 3500 
L 697 3744 
Q 697 4328 969 4595 
Q 1241 4863 1831 4863 
L 2375 4863 
z
" transform="scale(0.015625)"/>
      <path id="DejaVuSans-64" d="M 2906 2969 
L 2906 4863 
L 3481 4863 
L 3481 0 
L 2906 0 
L 2906 525 
Q 2725 213 2448 61 
Q 2172 -91 1784 -91 
Q 1150 -91 751 415 
Q 353 922 353 1747 
Q 353 2572 751 3078 
Q 1150 3584 1784 3584 
Q 2172 3584 2448 3432 
Q 2725 3281 2906 2969 
z
M 947 1747 
Q 947 1113 1208 752 
Q 1469 391 1925 391 
Q 2381 391 2643 752 
Q 2906 1113 2906 1747 
Q 2906 2381 2643 2742 
Q 2381 3103 1925 3103 
Q 1469 3103 1208 2742 
Q 947 2381 947 1747 
z
" transform="scale(0.015625)"/>
     </defs>
     <use xlink:href="#DejaVuSans-4d"/>
     <use xlink:href="#DejaVuSans-65" x="86.279297"/>
     <use xlink:href="#DejaVuSans-61" x="147.802734"/>
     <use xlink:href="#DejaVuSans-6e" x="209.082031"/>
     <use xlink:href="#DejaVuSans-20" x="272.460938"/>
     <use xlink:href="#DejaVuSans-31" x="304.248047"/>
     <use xlink:href="#DejaVuSans-73" x="367.871094"/>
     <use xlink:href="#DejaVuSans-74" x="419.970703"/>
     <use xlink:href="#DejaVuSans-20" x="459.179688"/>
     <use xlink:href="#DejaVuSans-4d" x="490.966797"/>
     <use xlink:href="#DejaVuSans-65" x="577.246094"/>
     <use xlink:href="#DejaVuSans-61" x="638.769531"/>
     <use xlink:href="#DejaVuSans-6c" x="700.048828"/>
     <use xlink:href="#DejaVuSans-20" x="727.832031"/>
     <use xlink:href="#DejaVuSans-54" x="759.619141"/>
     <use xlink:href="#DejaVuSans-69" x="817.578125"/>
     <use xlink:href="#DejaVuSans-6d" x="845.361328"/>
     <use xlink:href="#DejaVuSans-65" x="942.773438"/>
     <use xlink:href="#DejaVuSans-20" x="1004.296875"/>
     <use xlink:href="#DejaVuSans-6f" x="1036.083984"/>
     <use xlink:href="#DejaVuSans-66" x="1097.265625"/>
     <use xlink:href="#DejaVuSans-20" x="1132.470703"/>
     <use xlink:href="#DejaVuSans-43" x="1164.257812"/>
     <use xlink:href="#DejaVuSans-6f" x="1234.082031"/>
     <use xlink:href="#DejaVuSans-6e" x="1295.263672"/>
     <use xlink:href="#DejaVuSans-74" x="1358.642578"/>
     <use xlink:href="#DejaVuSans-72" x="1397.851562"/>
     <use xlink:href="#DejaVuSans-6f" x="1436.714844"/>
     <use xlink:href="#DejaVuSans-6c" x="1497.896484"/>
     <use xlink:href="#DejaVuSans-20" x="1525.679688"/>
     <use xlink:href="#DejaVuSans-61" x="1557.466797"/>
     <use xlink:href="#DejaVuSans-6e" x="1618.746094"/>
     <use xlink:href="#DejaVuSans-64" x="1682.125"/>
     <use xlink:href="#DejaVuSans-20" x="1745.601562"/>
     <use xlink:href="#DejaVuSans-43" x="1777.388672"/>
     <use xlink:href="#DejaVuSans-41" x="1847.212891"/>
     <use xlink:href="#DejaVuSans-53" x="1915.621094"/>
     <use xlink:href="#DejaVuSans-4b" x="1979.097656"/>
     <use xlink:href="#DejaVuSans-20" x="2044.673828"/>
     <use xlink:href="#DejaVuSans-47" x="2076.460938"/>
     <use xlink:href="#DejaVuSans-72" x="2153.951172"/>
     <use xlink:href="#DejaVuSans-6f" x="2192.814453"/>
     <use xlink:href="#DejaVuSans-75" x="2253.996094"/>
     <use xlink:href="#DejaVuSans-70" x="2317.375"/>
     <use xlink:href="#DejaVuSans-73" x="2380.851562"/>
    </g>
   </g>
   <g id="legend_1">
    <g id="patch_9">
     <path d="M 90.092187 65.753125 
L 203.014062 65.753125 
Q 205.014062 65.753125 205.014062 63.753125 
L 205.014062 35.396875 
Q 205.014062 33.396875 203.014062 33.396875 
L 90.092187 33.396875 
Q 88.092187 33.396875 88.092187 35.396875 
L 88.092187 63.753125 
Q 88.092187 65.753125 90.092187 65.753125 
z
" style="fill: #ffffff; opacity: 0.8; stroke: #cccccc; stroke-linejoin: miter"/>
    </g>
    <g id="patch_10">
     <path d="M 92.092187 44.995312 
L 112.092187 44.995312 
L 112.092187 37.995312 
L 92.092187 37.995312 
z
" style="fill: #0000ff; opacity: 0.6"/>
    </g>
    <g id="text_13">
     <!-- Control (n = 27) -->
     <g transform="translate(120.092187 44.995312) scale(0.1 -0.1)">
      <defs>
       <path id="DejaVuSans-3d" d="M 678 2906 
L 4684 2906 
L 4684 2381 
L 678 2381 
L 678 2906 
z
M 678 1631 
L 4684 1631 
L 4684 1100 
L 678 1100 
L 678 1631 
z
" transform="scale(0.015625)"/>
       <path id="DejaVuSans-37" d="M 525 4666 
L 3525 4666 
L 3525 4397 
L 1831 0 
L 1172 0 
L 2766 4134 
L 525 4134 
L 525 4666 
z
" transform="scale(0.015625)"/>
      </defs>
      <use xlink:href="#DejaVuSans-43"/>
      <use xlink:href="#DejaVuSans-6f" x="69.824219"/>
      <use xlink:href="#DejaVuSans-6e" x="131.005859"/>
      <use xlink:href="#DejaVuSans-74" x="194.384766"/>
      <use xlink:href="#DejaVuSans-72" x="233.59375"/>
      <use xlink:href="#DejaVuSans-6f" x="272.457031"/>
      <use xlink:href="#DejaVuSans-6c" x="333.638672"/>
      <use xlink:href="#DejaVuSans-20" x="361.421875"/>
      <use xlink:href="#DejaVuSans-28" x="393.208984"/>
      <use xlink:href="#DejaVuSans-6e" x="432.222656"/>
      <use xlink:href="#DejaVuSans-20" x="495.601562"/>
      <use xlink:href="#DejaVuSans-3d" x="527.388672"/>
      <use xlink:href="#DejaVuSans-20" x="611.177734"/>
      <use xlink:href="#DejaVuSans-32" x="642.964844"/>
      <use xlink:href="#DejaVuSans-37" x="706.587891"/>
      <use xlink:href="#DejaVuSans-29" x="770.210938"/>
     </g>
    </g>
    <g id="patch_11">
     <path d="M 92.092187 59.673437 
L 112.092187 59.673437 
L 112.092187 52.673437 
L 92.092187 52.673437 
z
" style="fill: #ffa500; opacity: 0.6"/>
    </g>
    <g id="text_14">
     <!-- CASK (n = 24) -->
     <g transform="translate(120.092187 59.673437) scale(0.1 -0.1)">
      <use xlink:href="#DejaVuSans-43"/>
      <use xlink:href="#DejaVuSans-41" x="69.824219"/>
      <use xlink:href="#DejaVuSans-53" x="138.232422"/>
      <use xlink:href="#DejaVuSans-4b" x="201.708984"/>
      <use xlink:href="#DejaVuSans-20" x="267.285156"/>
      <use xlink:href="#DejaVuSans-28" x="299.072266"/>
      <use xlink:href="#DejaVuSans-6e" x="338.085938"/>
      <use xlink:href="#DejaVuSans-20" x="401.464844"/>
      <use xlink:href="#DejaVuSans-3d" x="433.251953"/>
      <use xlink:href="#DejaVuSans-20" x="517.041016"/>
      <use xlink:href="#DejaVuSans-32" x="548.828125"/>
      <use xlink:href="#DejaVuSans-34" x="612.451172"/>
      <use xlink:href="#DejaVuSans-29" x="676.074219"/>
     </g>
    </g>
   </g>
  </g>
 </g>
 <defs>
  <clipPath id="pd2a456442b">
   <rect x="83.092187" y="28.396875" width="334.8" height="332.64"/>
  </clipPath>
 </defs>
</svg>
