<?xml version="1.0" encoding="utf-8" standalone="no"?>
<!DOCTYPE svg PUBLIC "-//W3C//DTD SVG 1.1//EN"
  "http://www.w3.org/Graphics/SVG/1.1/DTD/svg11.dtd">
<svg xmlns:xlink="http://www.w3.org/1999/xlink" width="468.70625pt" height="402.464375pt" viewBox="0 0 468.70625 402.464375" xmlns="http://www.w3.org/2000/svg" version="1.1">
 <metadata>
  <rdf:RDF xmlns:dc="http://purl.org/dc/elements/1.1/" xmlns:cc="http://creativecommons.org/ns#" xmlns:rdf="http://www.w3.org/1999/02/22-rdf-syntax-ns#">
   <cc:Work>
    <dc:type rdf:resource="http://purl.org/dc/dcmitype/StillImage"/>
    <dc:date>2025-07-28T21:54:40.662944</dc:date>
    <dc:format>image/svg+xml</dc:format>
    <dc:creator>
     <cc:Agent>
      <dc:title>Matplotlib v3.8.4, https://matplotlib.org/</dc:title>
     </cc:Agent>
    </dc:creator>
   </cc:Work>
  </rdf:RDF>
 </metadata>
 <defs>
  <style type="text/css">*{stroke-linejoin: round; stroke-linecap: butt}</style>
 </defs>
 <g id="figure_1">
  <g id="patch_1">
   <path d="M 0 402.464375 
L 468.70625 402.464375 
L 468.70625 0 
L 0 0 
z
" style="fill: #ffffff"/>
  </g>
  <g id="axes_1">
   <g id="patch_2">
    <path d="M 66.953125 361.036875 
L 401.753125 361.036875 
L 401.753125 28.396875 
L 66.953125 28.396875 
z
" style="fill: #ffffff"/>
   </g>
   <g id="PolyCollection_1">
    <defs>
     <path id="m7953362a8d" d="M 185.171568 -56.5475 
L 171.934682 -56.5475 
L 171.278299 -59.219195 
L 170.570809 -61.890889 
L 169.810319 -64.562584 
L 168.995752 -67.234278 
L 168.127079 -69.905973 
L 167.205533 -72.577667 
L 166.233793 -75.249362 
L 165.216125 -77.921056 
L 164.158467 -80.592751 
L 163.06844 -83.264445 
L 161.955287 -85.93614 
L 160.829735 -88.607835 
L 159.703779 -91.279529 
L 158.590399 -93.951224 
L 157.503216 -96.622918 
L 156.456108 -99.294613 
L 155.462801 -101.966307 
L 154.536451 -104.638002 
L 153.689248 -107.309696 
L 152.932047 -109.981391 
L 152.27405 -112.653085 
L 151.722555 -115.32478 
L 151.282777 -117.996475 
L 150.957747 -120.668169 
L 150.748299 -123.339864 
L 150.653125 -126.011558 
L 150.668908 -128.683253 
L 150.790515 -131.354947 
L 151.011243 -134.026642 
L 151.323094 -136.698336 
L 151.717082 -139.370031 
L 152.183545 -142.041725 
L 152.712449 -144.71342 
L 153.293683 -147.385115 
L 153.917326 -150.056809 
L 154.573874 -152.728504 
L 155.254433 -155.400198 
L 155.950866 -158.071893 
L 156.655891 -160.743587 
L 157.363135 -163.415282 
L 158.067143 -166.086976 
L 158.763348 -168.758671 
L 159.448005 -171.430366 
L 160.118106 -174.10206 
L 160.771268 -176.773755 
L 161.405616 -179.445449 
L 162.01967 -182.117144 
L 162.612237 -184.788838 
L 163.182316 -187.460533 
L 163.729035 -190.132227 
L 164.251603 -192.803922 
L 164.749301 -195.475616 
L 165.221494 -198.147311 
L 165.667668 -200.819006 
L 166.08749 -203.4907 
L 166.480878 -206.162395 
L 166.848075 -208.834089 
L 167.189727 -211.505784 
L 167.506936 -214.177478 
L 167.801304 -216.849173 
L 168.074951 -219.520867 
L 168.330493 -222.192562 
L 168.571005 -224.864256 
L 168.799931 -227.535951 
L 169.020988 -230.207646 
L 169.238026 -232.87934 
L 169.454888 -235.551035 
L 169.675246 -238.222729 
L 169.902447 -240.894424 
L 170.139366 -243.566118 
L 170.388273 -246.237813 
L 170.650732 -248.909507 
L 170.927524 -251.581202 
L 171.218611 -254.252896 
L 171.523142 -256.924591 
L 171.839488 -259.596286 
L 172.165322 -262.26798 
L 172.497728 -264.939675 
L 172.83334 -267.611369 
L 173.16849 -270.283064 
L 173.499387 -272.954758 
L 173.822275 -275.626453 
L 174.133605 -278.298147 
L 174.430179 -280.969842 
L 174.709283 -283.641536 
L 174.968785 -286.313231 
L 175.207208 -288.984926 
L 175.423765 -291.65662 
L 175.618362 -294.328315 
L 175.791571 -297.000009 
L 175.944567 -299.671704 
L 176.079047 -302.343398 
L 176.19712 -305.015093 
L 176.301198 -307.686787 
L 176.393866 -310.358482 
L 176.477756 -313.030176 
L 176.555435 -315.701871 
L 176.629296 -318.373566 
L 176.70147 -321.04526 
L 180.40478 -321.04526 
L 180.40478 -321.04526 
L 180.476954 -318.373566 
L 180.550815 -315.701871 
L 180.628494 -313.030176 
L 180.712384 -310.358482 
L 180.805052 -307.686787 
L 180.90913 -305.015093 
L 181.027203 -302.343398 
L 181.161683 -299.671704 
L 181.314679 -297.000009 
L 181.487888 -294.328315 
L 181.682485 -291.65662 
L 181.899042 -288.984926 
L 182.137465 -286.313231 
L 182.396967 -283.641536 
L 182.676071 -280.969842 
L 182.972645 -278.298147 
L 183.283975 -275.626453 
L 183.606863 -272.954758 
L 183.93776 -270.283064 
L 184.27291 -267.611369 
L 184.608522 -264.939675 
L 184.940928 -262.26798 
L 185.266762 -259.596286 
L 185.583108 -256.924591 
L 185.887639 -254.252896 
L 186.178726 -251.581202 
L 186.455518 -248.909507 
L 186.717977 -246.237813 
L 186.966884 -243.566118 
L 187.203803 -240.894424 
L 187.431004 -238.222729 
L 187.651362 -235.551035 
L 187.868224 -232.87934 
L 188.085262 -230.207646 
L 188.306319 -227.535951 
L 188.535245 -224.864256 
L 188.775757 -222.192562 
L 189.031299 -219.520867 
L 189.304946 -216.849173 
L 189.599314 -214.177478 
L 189.916523 -211.505784 
L 190.258175 -208.834089 
L 190.625372 -206.162395 
L 191.01876 -203.4907 
L 191.438582 -200.819006 
L 191.884756 -198.147311 
L 192.356949 -195.475616 
L 192.854647 -192.803922 
L 193.377215 -190.132227 
L 193.923934 -187.460533 
L 194.494013 -184.788838 
L 195.08658 -182.117144 
L 195.700634 -179.445449 
L 196.334982 -176.773755 
L 196.988144 -174.10206 
L 197.658245 -171.430366 
L 198.342902 -168.758671 
L 199.039107 -166.086976 
L 199.743115 -163.415282 
L 200.450359 -160.743587 
L 201.155384 -158.071893 
L 201.851817 -155.400198 
L 202.532376 -152.728504 
L 203.188924 -150.056809 
L 203.812567 -147.385115 
L 204.393801 -144.71342 
L 204.922705 -142.041725 
L 205.389168 -139.370031 
L 205.783156 -136.698336 
L 206.095007 -134.026642 
L 206.315735 -131.354947 
L 206.437342 -128.683253 
L 206.453125 -126.011558 
L 206.357951 -123.339864 
L 206.148503 -120.668169 
L 205.823473 -117.996475 
L 205.383695 -115.32478 
L 204.8322 -112.653085 
L 204.174203 -109.981391 
L 203.417002 -107.309696 
L 202.569799 -104.638002 
L 201.643449 -101.966307 
L 200.650142 -99.294613 
L 199.603034 -96.622918 
L 198.515851 -93.951224 
L 197.402471 -91.279529 
L 196.276515 -88.607835 
L 195.150963 -85.93614 
L 194.03781 -83.264445 
L 192.947783 -80.592751 
L 191.890125 -77.921056 
L 190.872457 -75.249362 
L 189.900717 -72.577667 
L 188.979171 -69.905973 
L 188.110498 -67.234278 
L 187.295931 -64.562584 
L 186.535441 -61.890889 
L 185.827951 -59.219195 
L 185.171568 -56.5475 
z
" style="stroke: #000000; stroke-opacity: 0.6"/>
    </defs>
    <g clip-path="url(#pac28f35f3f)">
     <use xlink:href="#m7953362a8d" x="0" y="402.464375" style="fill: #38bcf5; fill-opacity: 0.6; stroke: #000000; stroke-opacity: 0.6"/>
    </g>
   </g>
   <g id="PolyCollection_2">
    <defs>
     <path id="m6946bb26c5" d="M 307.004061 -58.020393 
L 273.302189 -58.020393 
L 272.337667 -61.060061 
L 271.389179 -64.099729 
L 270.462878 -67.139396 
L 269.564663 -70.179064 
L 268.700111 -73.218732 
L 267.874418 -76.2584 
L 267.092355 -79.298067 
L 266.358247 -82.337735 
L 265.675955 -85.377403 
L 265.048885 -88.417071 
L 264.479996 -91.456738 
L 263.971825 -94.496406 
L 263.526517 -97.536074 
L 263.145855 -100.575742 
L 262.831296 -103.615409 
L 262.583994 -106.655077 
L 262.404829 -109.694745 
L 262.294418 -112.734413 
L 262.253125 -115.77408 
L 262.281055 -118.813748 
L 262.37804 -121.853416 
L 262.543619 -124.893084 
L 262.777007 -127.932751 
L 263.077057 -130.972419 
L 263.44223 -134.012087 
L 263.870549 -137.051755 
L 264.359572 -140.091422 
L 264.906363 -143.13109 
L 265.507476 -146.170758 
L 266.158948 -149.210426 
L 266.856312 -152.250093 
L 267.594619 -155.289761 
L 268.368477 -158.329429 
L 269.172115 -161.369097 
L 269.999443 -164.408764 
L 270.844147 -167.448432 
L 271.699778 -170.4881 
L 272.55986 -173.527768 
L 273.417993 -176.567435 
L 274.267967 -179.607103 
L 275.10387 -182.646771 
L 275.920183 -185.686439 
L 276.711879 -188.726106 
L 277.474496 -191.765774 
L 278.204206 -194.805442 
L 278.897858 -197.84511 
L 279.553004 -200.884777 
L 280.167916 -203.924445 
L 280.741565 -206.964113 
L 281.273598 -210.00378 
L 281.764291 -213.043448 
L 282.214489 -216.083116 
L 282.625528 -219.122784 
L 282.999161 -222.162451 
L 283.337466 -225.202119 
L 283.642754 -228.241787 
L 283.917489 -231.281455 
L 284.164195 -234.321122 
L 284.385388 -237.36079 
L 284.583502 -240.400458 
L 284.760842 -243.440126 
L 284.919534 -246.479793 
L 285.061506 -249.519461 
L 285.188465 -252.559129 
L 285.301897 -255.598797 
L 285.403079 -258.638464 
L 285.493095 -261.678132 
L 285.572862 -264.7178 
L 285.643163 -267.757468 
L 285.704681 -270.797135 
L 285.758035 -273.836803 
L 285.803814 -276.876471 
L 285.842607 -279.916139 
L 285.875031 -282.955806 
L 285.901753 -285.995474 
L 285.923502 -289.035142 
L 285.941081 -292.07481 
L 285.955364 -295.114477 
L 285.967296 -298.154145 
L 285.977885 -301.193813 
L 285.98818 -304.233481 
L 285.999264 -307.273148 
L 286.012228 -310.312816 
L 286.028149 -313.352484 
L 286.048073 -316.392152 
L 286.072989 -319.431819 
L 286.103813 -322.471487 
L 286.141364 -325.511155 
L 286.186352 -328.550823 
L 286.239361 -331.59049 
L 286.300839 -334.630158 
L 286.371089 -337.669826 
L 286.450263 -340.709494 
L 286.538362 -343.749161 
L 286.63523 -346.788829 
L 286.740564 -349.828497 
L 286.853917 -352.868165 
L 286.974707 -355.907832 
L 287.102229 -358.9475 
L 293.204021 -358.9475 
L 293.204021 -358.9475 
L 293.331543 -355.907832 
L 293.452333 -352.868165 
L 293.565686 -349.828497 
L 293.67102 -346.788829 
L 293.767888 -343.749161 
L 293.855987 -340.709494 
L 293.935161 -337.669826 
L 294.005411 -334.630158 
L 294.066889 -331.59049 
L 294.119898 -328.550823 
L 294.164886 -325.511155 
L 294.202437 -322.471487 
L 294.233261 -319.431819 
L 294.258177 -316.392152 
L 294.278101 -313.352484 
L 294.294022 -310.312816 
L 294.306986 -307.273148 
L 294.31807 -304.233481 
L 294.328365 -301.193813 
L 294.338954 -298.154145 
L 294.350886 -295.114477 
L 294.365169 -292.07481 
L 294.382748 -289.035142 
L 294.404497 -285.995474 
L 294.431219 -282.955806 
L 294.463643 -279.916139 
L 294.502436 -276.876471 
L 294.548215 -273.836803 
L 294.601569 -270.797135 
L 294.663087 -267.757468 
L 294.733388 -264.7178 
L 294.813155 -261.678132 
L 294.903171 -258.638464 
L 295.004353 -255.598797 
L 295.117785 -252.559129 
L 295.244744 -249.519461 
L 295.386716 -246.479793 
L 295.545408 -243.440126 
L 295.722748 -240.400458 
L 295.920862 -237.36079 
L 296.142055 -234.321122 
L 296.388761 -231.281455 
L 296.663496 -228.241787 
L 296.968784 -225.202119 
L 297.307089 -222.162451 
L 297.680722 -219.122784 
L 298.091761 -216.083116 
L 298.541959 -213.043448 
L 299.032652 -210.00378 
L 299.564685 -206.964113 
L 300.138334 -203.924445 
L 300.753246 -200.884777 
L 301.408392 -197.84511 
L 302.102044 -194.805442 
L 302.831754 -191.765774 
L 303.594371 -188.726106 
L 304.386067 -185.686439 
L 305.20238 -182.646771 
L 306.038283 -179.607103 
L 306.888257 -176.567435 
L 307.74639 -173.527768 
L 308.606472 -170.4881 
L 309.462103 -167.448432 
L 310.306807 -164.408764 
L 311.134135 -161.369097 
L 311.937773 -158.329429 
L 312.711631 -155.289761 
L 313.449938 -152.250093 
L 314.147302 -149.210426 
L 314.798774 -146.170758 
L 315.399887 -143.13109 
L 315.946678 -140.091422 
L 316.435701 -137.051755 
L 316.86402 -134.012087 
L 317.229193 -130.972419 
L 317.529243 -127.932751 
L 317.762631 -124.893084 
L 317.92821 -121.853416 
L 318.025195 -118.813748 
L 318.053125 -115.77408 
L 318.011832 -112.734413 
L 317.901421 -109.694745 
L 317.722256 -106.655077 
L 317.474954 -103.615409 
L 317.160395 -100.575742 
L 316.779733 -97.536074 
L 316.334425 -94.496406 
L 315.826254 -91.456738 
L 315.257365 -88.417071 
L 314.630295 -85.377403 
L 313.948003 -82.337735 
L 313.213895 -79.298067 
L 312.431832 -76.2584 
L 311.606139 -73.218732 
L 310.741587 -70.179064 
L 309.843372 -67.139396 
L 308.917071 -64.099729 
L 307.968583 -61.060061 
L 307.004061 -58.020393 
z
" style="stroke: #000000; stroke-opacity: 0.6"/>
    </defs>
    <g clip-path="url(#pac28f35f3f)">
     <use xlink:href="#m6946bb26c5" x="0" y="402.464375" style="fill: #38f5a6; fill-opacity: 0.6; stroke: #000000; stroke-opacity: 0.6"/>
    </g>
   </g>
   <g id="matplotlib.axis_1">
    <g id="xtick_1">
     <g id="line2d_1">
      <defs>
       <path id="m0fd8bada80" d="M 0 0 
L 0 3.5 
" style="stroke: #000000; stroke-width: 0.8"/>
      </defs>
      <g>
       <use xlink:href="#m0fd8bada80" x="178.553125" y="361.036875" style="stroke: #000000; stroke-width: 0.8"/>
      </g>
     </g>
     <g id="text_1">
      <!-- Control -->
      <g transform="translate(160.482031 375.635312) scale(0.1 -0.1)">
       <defs>
        <path id="DejaVuSans-43" d="M 4122 4306 
L 4122 3641 
Q 3803 3938 3442 4084 
Q 3081 4231 2675 4231 
Q 1875 4231 1450 3742 
Q 1025 3253 1025 2328 
Q 1025 1406 1450 917 
Q 1875 428 2675 428 
Q 3081 428 3442 575 
Q 3803 722 4122 1019 
L 4122 359 
Q 3791 134 3420 21 
Q 3050 -91 2638 -91 
Q 1578 -91 968 557 
Q 359 1206 359 2328 
Q 359 3453 968 4101 
Q 1578 4750 2638 4750 
Q 3056 4750 3426 4639 
Q 3797 4528 4122 4306 
z
" transform="scale(0.015625)"/>
        <path id="DejaVuSans-6f" d="M 1959 3097 
Q 1497 3097 1228 2736 
Q 959 2375 959 1747 
Q 959 1119 1226 758 
Q 1494 397 1959 397 
Q 2419 397 2687 759 
Q 2956 1122 2956 1747 
Q 2956 2369 2687 2733 
Q 2419 3097 1959 3097 
z
M 1959 3584 
Q 2709 3584 3137 3096 
Q 3566 2609 3566 1747 
Q 3566 888 3137 398 
Q 2709 -91 1959 -91 
Q 1206 -91 779 398 
Q 353 888 353 1747 
Q 353 2609 779 3096 
Q 1206 3584 1959 3584 
z
" transform="scale(0.015625)"/>
        <path id="DejaVuSans-6e" d="M 3513 2113 
L 3513 0 
L 2938 0 
L 2938 2094 
Q 2938 2591 2744 2837 
Q 2550 3084 2163 3084 
Q 1697 3084 1428 2787 
Q 1159 2491 1159 1978 
L 1159 0 
L 581 0 
L 581 3500 
L 1159 3500 
L 1159 2956 
Q 1366 3272 1645 3428 
Q 1925 3584 2291 3584 
Q 2894 3584 3203 3211 
Q 3513 2838 3513 2113 
z
" transform="scale(0.015625)"/>
        <path id="DejaVuSans-74" d="M 1172 4494 
L 1172 3500 
L 2356 3500 
L 2356 3053 
L 1172 3053 
L 1172 1153 
Q 1172 725 1289 603 
Q 1406 481 1766 481 
L 2356 481 
L 2356 0 
L 1766 0 
Q 1100 0 847 248 
Q 594 497 594 1153 
L 594 3053 
L 172 3053 
L 172 3500 
L 594 3500 
L 594 4494 
L 1172 4494 
z
" transform="scale(0.015625)"/>
        <path id="DejaVuSans-72" d="M 2631 2963 
Q 2534 3019 2420 3045 
Q 2306 3072 2169 3072 
Q 1681 3072 1420 2755 
Q 1159 2438 1159 1844 
L 1159 0 
L 581 0 
L 581 3500 
L 1159 3500 
L 1159 2956 
Q 1341 3275 1631 3429 
Q 1922 3584 2338 3584 
Q 2397 3584 2469 3576 
Q 2541 3569 2628 3553 
L 2631 2963 
z
" transform="scale(0.015625)"/>
        <path id="DejaVuSans-6c" d="M 603 4863 
L 1178 4863 
L 1178 0 
L 603 0 
L 603 4863 
z
" transform="scale(0.015625)"/>
       </defs>
       <use xlink:href="#DejaVuSans-43"/>
       <use xlink:href="#DejaVuSans-6f" x="69.824219"/>
       <use xlink:href="#DejaVuSans-6e" x="131.005859"/>
       <use xlink:href="#DejaVuSans-74" x="194.384766"/>
       <use xlink:href="#DejaVuSans-72" x="233.59375"/>
       <use xlink:href="#DejaVuSans-6f" x="272.457031"/>
       <use xlink:href="#DejaVuSans-6c" x="333.638672"/>
      </g>
     </g>
    </g>
    <g id="xtick_2">
     <g id="line2d_2">
      <g>
       <use xlink:href="#m0fd8bada80" x="290.153125" y="361.036875" style="stroke: #000000; stroke-width: 0.8"/>
      </g>
     </g>
     <g id="text_2">
      <!-- CASK -->
      <g transform="translate(276.788281 375.635312) scale(0.1 -0.1)">
       <defs>
        <path id="DejaVuSans-41" d="M 2188 4044 
L 1331 1722 
L 3047 1722 
L 2188 4044 
z
M 1831 4666 
L 2547 4666 
L 4325 0 
L 3669 0 
L 3244 1197 
L 1141 1197 
L 716 0 
L 50 0 
L 1831 4666 
z
" transform="scale(0.015625)"/>
        <path id="DejaVuSans-53" d="M 3425 4513 
L 3425 3897 
Q 3066 4069 2747 4153 
Q 2428 4238 2131 4238 
Q 1616 4238 1336 4038 
Q 1056 3838 1056 3469 
Q 1056 3159 1242 3001 
Q 1428 2844 1947 2747 
L 2328 2669 
Q 3034 2534 3370 2195 
Q 3706 1856 3706 1288 
Q 3706 609 3251 259 
Q 2797 -91 1919 -91 
Q 1588 -91 1214 -16 
Q 841 59 441 206 
L 441 856 
Q 825 641 1194 531 
Q 1563 422 1919 422 
Q 2459 422 2753 634 
Q 3047 847 3047 1241 
Q 3047 1584 2836 1778 
Q 2625 1972 2144 2069 
L 1759 2144 
Q 1053 2284 737 2584 
Q 422 2884 422 3419 
Q 422 4038 858 4394 
Q 1294 4750 2059 4750 
Q 2388 4750 2728 4690 
Q 3069 4631 3425 4513 
z
" transform="scale(0.015625)"/>
        <path id="DejaVuSans-4b" d="M 628 4666 
L 1259 4666 
L 1259 2694 
L 3353 4666 
L 4166 4666 
L 1850 2491 
L 4331 0 
L 3500 0 
L 1259 2247 
L 1259 0 
L 628 0 
L 628 4666 
z
" transform="scale(0.015625)"/>
       </defs>
       <use xlink:href="#DejaVuSans-43"/>
       <use xlink:href="#DejaVuSans-41" x="69.824219"/>
       <use xlink:href="#DejaVuSans-53" x="138.232422"/>
       <use xlink:href="#DejaVuSans-4b" x="201.708984"/>
      </g>
     </g>
    </g>
    <g id="text_3">
     <!-- Groups -->
     <g transform="translate(209.399219 392.352812) scale(0.14 -0.14)">
      <defs>
       <path id="DejaVuSans-47" d="M 3809 666 
L 3809 1919 
L 2778 1919 
L 2778 2438 
L 4434 2438 
L 4434 434 
Q 4069 175 3628 42 
Q 3188 -91 2688 -91 
Q 1594 -91 976 548 
Q 359 1188 359 2328 
Q 359 3472 976 4111 
Q 1594 4750 2688 4750 
Q 3144 4750 3555 4637 
Q 3966 4525 4313 4306 
L 4313 3634 
Q 3963 3931 3569 4081 
Q 3175 4231 2741 4231 
Q 1884 4231 1454 3753 
Q 1025 3275 1025 2328 
Q 1025 1384 1454 906 
Q 1884 428 2741 428 
Q 3075 428 3337 486 
Q 3600 544 3809 666 
z
" transform="scale(0.015625)"/>
       <path id="DejaVuSans-75" d="M 544 1381 
L 544 3500 
L 1119 3500 
L 1119 1403 
Q 1119 906 1312 657 
Q 1506 409 1894 409 
Q 2359 409 2629 706 
Q 2900 1003 2900 1516 
L 2900 3500 
L 3475 3500 
L 3475 0 
L 2900 0 
L 2900 538 
Q 2691 219 2414 64 
Q 2138 -91 1772 -91 
Q 1169 -91 856 284 
Q 544 659 544 1381 
z
M 1991 3584 
L 1991 3584 
z
" transform="scale(0.015625)"/>
       <path id="DejaVuSans-70" d="M 1159 525 
L 1159 -1331 
L 581 -1331 
L 581 3500 
L 1159 3500 
L 1159 2969 
Q 1341 3281 1617 3432 
Q 1894 3584 2278 3584 
Q 2916 3584 3314 3078 
Q 3713 2572 3713 1747 
Q 3713 922 3314 415 
Q 2916 -91 2278 -91 
Q 1894 -91 1617 61 
Q 1341 213 1159 525 
z
M 3116 1747 
Q 3116 2381 2855 2742 
Q 2594 3103 2138 3103 
Q 1681 3103 1420 2742 
Q 1159 2381 1159 1747 
Q 1159 1113 1420 752 
Q 1681 391 2138 391 
Q 2594 391 2855 752 
Q 3116 1113 3116 1747 
z
" transform="scale(0.015625)"/>
       <path id="DejaVuSans-73" d="M 2834 3397 
L 2834 2853 
Q 2591 2978 2328 3040 
Q 2066 3103 1784 3103 
Q 1356 3103 1142 2972 
Q 928 2841 928 2578 
Q 928 2378 1081 2264 
Q 1234 2150 1697 2047 
L 1894 2003 
Q 2506 1872 2764 1633 
Q 3022 1394 3022 966 
Q 3022 478 2636 193 
Q 2250 -91 1575 -91 
Q 1294 -91 989 -36 
Q 684 19 347 128 
L 347 722 
Q 666 556 975 473 
Q 1284 391 1588 391 
Q 1994 391 2212 530 
Q 2431 669 2431 922 
Q 2431 1156 2273 1281 
Q 2116 1406 1581 1522 
L 1381 1569 
Q 847 1681 609 1914 
Q 372 2147 372 2553 
Q 372 3047 722 3315 
Q 1072 3584 1716 3584 
Q 2034 3584 2315 3537 
Q 2597 3491 2834 3397 
z
" transform="scale(0.015625)"/>
      </defs>
      <use xlink:href="#DejaVuSans-47"/>
      <use xlink:href="#DejaVuSans-72" x="77.490234"/>
      <use xlink:href="#DejaVuSans-6f" x="116.353516"/>
      <use xlink:href="#DejaVuSans-75" x="177.535156"/>
      <use xlink:href="#DejaVuSans-70" x="240.914062"/>
      <use xlink:href="#DejaVuSans-73" x="304.390625"/>
     </g>
    </g>
   </g>
   <g id="matplotlib.axis_2">
    <g id="ytick_1">
     <g id="line2d_3">
      <defs>
       <path id="mef4593783d" d="M 0 0 
L -3.5 0 
" style="stroke: #000000; stroke-width: 0.8"/>
      </defs>
      <g>
       <use xlink:href="#mef4593783d" x="66.953125" y="314.372678" style="stroke: #000000; stroke-width: 0.8"/>
      </g>
     </g>
     <g id="text_4">
      <!-- 1 -->
      <g transform="translate(53.590625 318.171896) scale(0.1 -0.1)">
       <defs>
        <path id="DejaVuSans-31" d="M 794 531 
L 1825 531 
L 1825 4091 
L 703 3866 
L 703 4441 
L 1819 4666 
L 2450 4666 
L 2450 531 
L 3481 531 
L 3481 0 
L 794 0 
L 794 531 
z
" transform="scale(0.015625)"/>
       </defs>
       <use xlink:href="#DejaVuSans-31"/>
      </g>
     </g>
    </g>
    <g id="ytick_2">
     <g id="line2d_4">
      <g>
       <use xlink:href="#mef4593783d" x="66.953125" y="256.862746" style="stroke: #000000; stroke-width: 0.8"/>
      </g>
     </g>
     <g id="text_5">
      <!-- 2 -->
      <g transform="translate(53.590625 260.661965) scale(0.1 -0.1)">
       <defs>
        <path id="DejaVuSans-32" d="M 1228 531 
L 3431 531 
L 3431 0 
L 469 0 
L 469 531 
Q 828 903 1448 1529 
Q 2069 2156 2228 2338 
Q 2531 2678 2651 2914 
Q 2772 3150 2772 3378 
Q 2772 3750 2511 3984 
Q 2250 4219 1831 4219 
Q 1534 4219 1204 4116 
Q 875 4013 500 3803 
L 500 4441 
Q 881 4594 1212 4672 
Q 1544 4750 1819 4750 
Q 2544 4750 2975 4387 
Q 3406 4025 3406 3419 
Q 3406 3131 3298 2873 
Q 3191 2616 2906 2266 
Q 2828 2175 2409 1742 
Q 1991 1309 1228 531 
z
" transform="scale(0.015625)"/>
       </defs>
       <use xlink:href="#DejaVuSans-32"/>
      </g>
     </g>
    </g>
    <g id="ytick_3">
     <g id="line2d_5">
      <g>
       <use xlink:href="#mef4593783d" x="66.953125" y="199.352814" style="stroke: #000000; stroke-width: 0.8"/>
      </g>
     </g>
     <g id="text_6">
      <!-- 3 -->
      <g transform="translate(53.590625 203.152033) scale(0.1 -0.1)">
       <defs>
        <path id="DejaVuSans-33" d="M 2597 2516 
Q 3050 2419 3304 2112 
Q 3559 1806 3559 1356 
Q 3559 666 3084 287 
Q 2609 -91 1734 -91 
Q 1441 -91 1130 -33 
Q 819 25 488 141 
L 488 750 
Q 750 597 1062 519 
Q 1375 441 1716 441 
Q 2309 441 2620 675 
Q 2931 909 2931 1356 
Q 2931 1769 2642 2001 
Q 2353 2234 1838 2234 
L 1294 2234 
L 1294 2753 
L 1863 2753 
Q 2328 2753 2575 2939 
Q 2822 3125 2822 3475 
Q 2822 3834 2567 4026 
Q 2313 4219 1838 4219 
Q 1578 4219 1281 4162 
Q 984 4106 628 3988 
L 628 4550 
Q 988 4650 1302 4700 
Q 1616 4750 1894 4750 
Q 2613 4750 3031 4423 
Q 3450 4097 3450 3541 
Q 3450 3153 3228 2886 
Q 3006 2619 2597 2516 
z
" transform="scale(0.015625)"/>
       </defs>
       <use xlink:href="#DejaVuSans-33"/>
      </g>
     </g>
    </g>
    <g id="ytick_4">
     <g id="line2d_6">
      <g>
       <use xlink:href="#mef4593783d" x="66.953125" y="141.842883" style="stroke: #000000; stroke-width: 0.8"/>
      </g>
     </g>
     <g id="text_7">
      <!-- 4 -->
      <g transform="translate(53.590625 145.642102) scale(0.1 -0.1)">
       <defs>
        <path id="DejaVuSans-34" d="M 2419 4116 
L 825 1625 
L 2419 1625 
L 2419 4116 
z
M 2253 4666 
L 3047 4666 
L 3047 1625 
L 3713 1625 
L 3713 1100 
L 3047 1100 
L 3047 0 
L 2419 0 
L 2419 1100 
L 313 1100 
L 313 1709 
L 2253 4666 
z
" transform="scale(0.015625)"/>
       </defs>
       <use xlink:href="#DejaVuSans-34"/>
      </g>
     </g>
    </g>
    <g id="ytick_5">
     <g id="line2d_7">
      <g>
       <use xlink:href="#mef4593783d" x="66.953125" y="84.332951" style="stroke: #000000; stroke-width: 0.8"/>
      </g>
     </g>
     <g id="text_8">
      <!-- 5 -->
      <g transform="translate(53.590625 88.13217) scale(0.1 -0.1)">
       <defs>
        <path id="DejaVuSans-35" d="M 691 4666 
L 3169 4666 
L 3169 4134 
L 1269 4134 
L 1269 2991 
Q 1406 3038 1543 3061 
Q 1681 3084 1819 3084 
Q 2600 3084 3056 2656 
Q 3513 2228 3513 1497 
Q 3513 744 3044 326 
Q 2575 -91 1722 -91 
Q 1428 -91 1123 -41 
Q 819 9 494 109 
L 494 744 
Q 775 591 1075 516 
Q 1375 441 1709 441 
Q 2250 441 2565 725 
Q 2881 1009 2881 1497 
Q 2881 1984 2565 2268 
Q 2250 2553 1709 2553 
Q 1456 2553 1204 2497 
Q 953 2441 691 2322 
L 691 4666 
z
" transform="scale(0.015625)"/>
       </defs>
       <use xlink:href="#DejaVuSans-35"/>
      </g>
     </g>
    </g>
    <g id="text_9">
     <!-- First Meal Time (hours) -->
     <g transform="translate(46.679063 274.972969) rotate(-90) scale(0.14 -0.14)">
      <defs>
       <path id="DejaVuSans-46" d="M 628 4666 
L 3309 4666 
L 3309 4134 
L 1259 4134 
L 1259 2759 
L 3109 2759 
L 3109 2228 
L 1259 2228 
L 1259 0 
L 628 0 
L 628 4666 
z
" transform="scale(0.015625)"/>
       <path id="DejaVuSans-69" d="M 603 3500 
L 1178 3500 
L 1178 0 
L 603 0 
L 603 3500 
z
M 603 4863 
L 1178 4863 
L 1178 4134 
L 603 4134 
L 603 4863 
z
" transform="scale(0.015625)"/>
       <path id="DejaVuSans-20" transform="scale(0.015625)"/>
       <path id="DejaVuSans-4d" d="M 628 4666 
L 1569 4666 
L 2759 1491 
L 3956 4666 
L 4897 4666 
L 4897 0 
L 4281 0 
L 4281 4097 
L 3078 897 
L 2444 897 
L 1241 4097 
L 1241 0 
L 628 0 
L 628 4666 
z
" transform="scale(0.015625)"/>
       <path id="DejaVuSans-65" d="M 3597 1894 
L 3597 1613 
L 953 1613 
Q 991 1019 1311 708 
Q 1631 397 2203 397 
Q 2534 397 2845 478 
Q 3156 559 3463 722 
L 3463 178 
Q 3153 47 2828 -22 
Q 2503 -91 2169 -91 
Q 1331 -91 842 396 
Q 353 884 353 1716 
Q 353 2575 817 3079 
Q 1281 3584 2069 3584 
Q 2775 3584 3186 3129 
Q 3597 2675 3597 1894 
z
M 3022 2063 
Q 3016 2534 2758 2815 
Q 2500 3097 2075 3097 
Q 1594 3097 1305 2825 
Q 1016 2553 972 2059 
L 3022 2063 
z
" transform="scale(0.015625)"/>
       <path id="DejaVuSans-61" d="M 2194 1759 
Q 1497 1759 1228 1600 
Q 959 1441 959 1056 
Q 959 750 1161 570 
Q 1363 391 1709 391 
Q 2188 391 2477 730 
Q 2766 1069 2766 1631 
L 2766 1759 
L 2194 1759 
z
M 3341 1997 
L 3341 0 
L 2766 0 
L 2766 531 
Q 2569 213 2275 61 
Q 1981 -91 1556 -91 
Q 1019 -91 701 211 
Q 384 513 384 1019 
Q 384 1609 779 1909 
Q 1175 2209 1959 2209 
L 2766 2209 
L 2766 2266 
Q 2766 2663 2505 2880 
Q 2244 3097 1772 3097 
Q 1472 3097 1187 3025 
Q 903 2953 641 2809 
L 641 3341 
Q 956 3463 1253 3523 
Q 1550 3584 1831 3584 
Q 2591 3584 2966 3190 
Q 3341 2797 3341 1997 
z
" transform="scale(0.015625)"/>
       <path id="DejaVuSans-54" d="M -19 4666 
L 3928 4666 
L 3928 4134 
L 2272 4134 
L 2272 0 
L 1638 0 
L 1638 4134 
L -19 4134 
L -19 4666 
z
" transform="scale(0.015625)"/>
       <path id="DejaVuSans-6d" d="M 3328 2828 
Q 3544 3216 3844 3400 
Q 4144 3584 4550 3584 
Q 5097 3584 5394 3201 
Q 5691 2819 5691 2113 
L 5691 0 
L 5113 0 
L 5113 2094 
Q 5113 2597 4934 2840 
Q 4756 3084 4391 3084 
Q 3944 3084 3684 2787 
Q 3425 2491 3425 1978 
L 3425 0 
L 2847 0 
L 2847 2094 
Q 2847 2600 2669 2842 
Q 2491 3084 2119 3084 
Q 1678 3084 1418 2786 
Q 1159 2488 1159 1978 
L 1159 0 
L 581 0 
L 581 3500 
L 1159 3500 
L 1159 2956 
Q 1356 3278 1631 3431 
Q 1906 3584 2284 3584 
Q 2666 3584 2933 3390 
Q 3200 3197 3328 2828 
z
" transform="scale(0.015625)"/>
       <path id="DejaVuSans-28" d="M 1984 4856 
Q 1566 4138 1362 3434 
Q 1159 2731 1159 2009 
Q 1159 1288 1364 580 
Q 1569 -128 1984 -844 
L 1484 -844 
Q 1016 -109 783 600 
Q 550 1309 550 2009 
Q 550 2706 781 3412 
Q 1013 4119 1484 4856 
L 1984 4856 
z
" transform="scale(0.015625)"/>
       <path id="DejaVuSans-68" d="M 3513 2113 
L 3513 0 
L 2938 0 
L 2938 2094 
Q 2938 2591 2744 2837 
Q 2550 3084 2163 3084 
Q 1697 3084 1428 2787 
Q 1159 2491 1159 1978 
L 1159 0 
L 581 0 
L 581 4863 
L 1159 4863 
L 1159 2956 
Q 1366 3272 1645 3428 
Q 1925 3584 2291 3584 
Q 2894 3584 3203 3211 
Q 3513 2838 3513 2113 
z
" transform="scale(0.015625)"/>
       <path id="DejaVuSans-29" d="M 513 4856 
L 1013 4856 
Q 1481 4119 1714 3412 
Q 1947 2706 1947 2009 
Q 1947 1309 1714 600 
Q 1481 -109 1013 -844 
L 513 -844 
Q 928 -128 1133 580 
Q 1338 1288 1338 2009 
Q 1338 2731 1133 3434 
Q 928 4138 513 4856 
z
" transform="scale(0.015625)"/>
      </defs>
      <use xlink:href="#DejaVuSans-46"/>
      <use xlink:href="#DejaVuSans-69" x="50.269531"/>
      <use xlink:href="#DejaVuSans-72" x="78.052734"/>
      <use xlink:href="#DejaVuSans-73" x="119.166016"/>
      <use xlink:href="#DejaVuSans-74" x="171.265625"/>
      <use xlink:href="#DejaVuSans-20" x="210.474609"/>
      <use xlink:href="#DejaVuSans-4d" x="242.261719"/>
      <use xlink:href="#DejaVuSans-65" x="328.541016"/>
      <use xlink:href="#DejaVuSans-61" x="390.064453"/>
      <use xlink:href="#DejaVuSans-6c" x="451.34375"/>
      <use xlink:href="#DejaVuSans-20" x="479.126953"/>
      <use xlink:href="#DejaVuSans-54" x="510.914062"/>
      <use xlink:href="#DejaVuSans-69" x="568.873047"/>
      <use xlink:href="#DejaVuSans-6d" x="596.65625"/>
      <use xlink:href="#DejaVuSans-65" x="694.068359"/>
      <use xlink:href="#DejaVuSans-20" x="755.591797"/>
      <use xlink:href="#DejaVuSans-28" x="787.378906"/>
      <use xlink:href="#DejaVuSans-68" x="826.392578"/>
      <use xlink:href="#DejaVuSans-6f" x="889.771484"/>
      <use xlink:href="#DejaVuSans-75" x="950.953125"/>
      <use xlink:href="#DejaVuSans-72" x="1014.332031"/>
      <use xlink:href="#DejaVuSans-73" x="1055.445312"/>
      <use xlink:href="#DejaVuSans-29" x="1107.544922"/>
     </g>
    </g>
   </g>
   <g id="patch_3">
    <path d="M 164.603125 289.16256 
L 192.503125 289.16256 
L 192.503125 215.65049 
L 164.603125 215.65049 
L 164.603125 289.16256 
z
" clip-path="url(#pac28f35f3f)" style="fill: #ffffff; stroke: #000000; stroke-linejoin: miter"/>
   </g>
   <g id="line2d_8">
    <path d="M 178.553125 289.16256 
L 178.553125 345.916875 
" clip-path="url(#pac28f35f3f)" style="fill: none; stroke: #000000; stroke-linecap: square"/>
   </g>
   <g id="line2d_9">
    <path d="M 178.553125 215.65049 
L 178.553125 142.271012 
" clip-path="url(#pac28f35f3f)" style="fill: none; stroke: #000000; stroke-linecap: square"/>
   </g>
   <g id="line2d_10">
    <path d="M 171.578125 345.916875 
L 185.528125 345.916875 
" clip-path="url(#pac28f35f3f)" style="fill: none; stroke: #000000; stroke-linecap: square"/>
   </g>
   <g id="line2d_11">
    <path d="M 171.578125 142.271012 
L 185.528125 142.271012 
" clip-path="url(#pac28f35f3f)" style="fill: none; stroke: #000000; stroke-linecap: square"/>
   </g>
   <g id="patch_4">
    <path d="M 276.203125 310.618557 
L 304.103125 310.618557 
L 304.103125 240.847828 
L 276.203125 240.847828 
L 276.203125 310.618557 
z
" clip-path="url(#pac28f35f3f)" style="fill: #ffffff; stroke: #000000; stroke-linejoin: miter"/>
   </g>
   <g id="line2d_12">
    <path d="M 290.153125 310.618557 
L 290.153125 344.443982 
" clip-path="url(#pac28f35f3f)" style="fill: none; stroke: #000000; stroke-linecap: square"/>
   </g>
   <g id="line2d_13">
    <path d="M 290.153125 240.847828 
L 290.153125 160.412201 
" clip-path="url(#pac28f35f3f)" style="fill: none; stroke: #000000; stroke-linecap: square"/>
   </g>
   <g id="line2d_14">
    <path d="M 283.178125 344.443982 
L 297.128125 344.443982 
" clip-path="url(#pac28f35f3f)" style="fill: none; stroke: #000000; stroke-linecap: square"/>
   </g>
   <g id="line2d_15">
    <path d="M 283.178125 160.412201 
L 297.128125 160.412201 
" clip-path="url(#pac28f35f3f)" style="fill: none; stroke: #000000; stroke-linecap: square"/>
   </g>
   <g id="line2d_16">
    <path d="M 164.603125 260.294172 
L 192.503125 260.294172 
" clip-path="url(#pac28f35f3f)" style="fill: none; stroke: #000000"/>
   </g>
   <g id="line2d_17">
    <path d="M 276.203125 274.000706 
L 304.103125 274.000706 
" clip-path="url(#pac28f35f3f)" style="fill: none; stroke: #000000"/>
   </g>
   <g id="patch_5">
    <path d="M 66.953125 361.036875 
L 66.953125 28.396875 
" style="fill: none; stroke: #000000; stroke-width: 0.8; stroke-linejoin: miter; stroke-linecap: square"/>
   </g>
   <g id="patch_6">
    <path d="M 401.753125 361.036875 
L 401.753125 28.396875 
" style="fill: none; stroke: #000000; stroke-width: 0.8; stroke-linejoin: miter; stroke-linecap: square"/>
   </g>
   <g id="patch_7">
    <path d="M 66.953125 361.036875 
L 401.753125 361.036875 
" style="fill: none; stroke: #000000; stroke-width: 0.8; stroke-linejoin: miter; stroke-linecap: square"/>
   </g>
   <g id="patch_8">
    <path d="M 66.953125 28.396875 
L 401.753125 28.396875 
" style="fill: none; stroke: #000000; stroke-width: 0.8; stroke-linejoin: miter; stroke-linecap: square"/>
   </g>
   <g id="PathCollection_1">
    <defs>
     <path id="m6bf34201ad" d="M 0 3 
C 0.795609 3 1.55874 2.683901 2.12132 2.12132 
C 2.683901 1.55874 3 0.795609 3 0 
C 3 -0.795609 2.683901 -1.55874 2.12132 -2.12132 
C 1.55874 -2.683901 0.795609 -3 0 -3 
C -0.795609 -3 -1.55874 -2.683901 -2.12132 -2.12132 
C -2.683901 -1.55874 -3 -0.795609 -3 0 
C -3 0.795609 -2.683901 1.55874 -2.12132 2.12132 
C -1.55874 2.683901 -0.795609 3 0 3 
z
" style="stroke: #18c1f5; stroke-opacity: 0.8"/>
    </defs>
    <g clip-path="url(#pac28f35f3f)">
     <use xlink:href="#m6bf34201ad" x="171.818273" y="268.712987" style="fill: #18c1f5; fill-opacity: 0.8; stroke: #18c1f5; stroke-opacity: 0.8"/>
     <use xlink:href="#m6bf34201ad" x="177.861985" y="176.719461" style="fill: #18c1f5; fill-opacity: 0.8; stroke: #18c1f5; stroke-opacity: 0.8"/>
     <use xlink:href="#m6bf34201ad" x="177.064793" y="289.592287" style="fill: #18c1f5; fill-opacity: 0.8; stroke: #18c1f5; stroke-opacity: 0.8"/>
     <use xlink:href="#m6bf34201ad" x="174.998711" y="152.913545" style="fill: #18c1f5; fill-opacity: 0.8; stroke: #18c1f5; stroke-opacity: 0.8"/>
     <use xlink:href="#m6bf34201ad" x="176.125444" y="275.780318" style="fill: #18c1f5; fill-opacity: 0.8; stroke: #18c1f5; stroke-opacity: 0.8"/>
     <use xlink:href="#m6bf34201ad" x="182.023586" y="212.717484" style="fill: #18c1f5; fill-opacity: 0.8; stroke: #18c1f5; stroke-opacity: 0.8"/>
     <use xlink:href="#m6bf34201ad" x="178.489009" y="171.463693" style="fill: #18c1f5; fill-opacity: 0.8; stroke: #18c1f5; stroke-opacity: 0.8"/>
     <use xlink:href="#m6bf34201ad" x="171.665605" y="81.419115" style="fill: #18c1f5; fill-opacity: 0.8; stroke: #18c1f5; stroke-opacity: 0.8"/>
     <use xlink:href="#m6bf34201ad" x="184.191661" y="213.104078" style="fill: #18c1f5; fill-opacity: 0.8; stroke: #18c1f5; stroke-opacity: 0.8"/>
     <use xlink:href="#m6bf34201ad" x="179.231239" y="252.990411" style="fill: #18c1f5; fill-opacity: 0.8; stroke: #18c1f5; stroke-opacity: 0.8"/>
     <use xlink:href="#m6bf34201ad" x="176.463241" y="251.392913" style="fill: #18c1f5; fill-opacity: 0.8; stroke: #18c1f5; stroke-opacity: 0.8"/>
     <use xlink:href="#m6bf34201ad" x="174.612775" y="288.732833" style="fill: #18c1f5; fill-opacity: 0.8; stroke: #18c1f5; stroke-opacity: 0.8"/>
     <use xlink:href="#m6bf34201ad" x="183.82426" y="285.700782" style="fill: #18c1f5; fill-opacity: 0.8; stroke: #18c1f5; stroke-opacity: 0.8"/>
     <use xlink:href="#m6bf34201ad" x="175.329042" y="298.055832" style="fill: #18c1f5; fill-opacity: 0.8; stroke: #18c1f5; stroke-opacity: 0.8"/>
     <use xlink:href="#m6bf34201ad" x="171.885972" y="200.963093" style="fill: #18c1f5; fill-opacity: 0.8; stroke: #18c1f5; stroke-opacity: 0.8"/>
     <use xlink:href="#m6bf34201ad" x="183.41019" y="260.290977" style="fill: #18c1f5; fill-opacity: 0.8; stroke: #18c1f5; stroke-opacity: 0.8"/>
     <use xlink:href="#m6bf34201ad" x="181.867802" y="281.917906" style="fill: #18c1f5; fill-opacity: 0.8; stroke: #18c1f5; stroke-opacity: 0.8"/>
     <use xlink:href="#m6bf34201ad" x="183.578574" y="223.078856" style="fill: #18c1f5; fill-opacity: 0.8; stroke: #18c1f5; stroke-opacity: 0.8"/>
     <use xlink:href="#m6bf34201ad" x="171.774997" y="275.863388" style="fill: #18c1f5; fill-opacity: 0.8; stroke: #18c1f5; stroke-opacity: 0.8"/>
     <use xlink:href="#m6bf34201ad" x="180.364502" y="345.916875" style="fill: #18c1f5; fill-opacity: 0.8; stroke: #18c1f5; stroke-opacity: 0.8"/>
     <use xlink:href="#m6bf34201ad" x="179.813419" y="292.966203" style="fill: #18c1f5; fill-opacity: 0.8; stroke: #18c1f5; stroke-opacity: 0.8"/>
     <use xlink:href="#m6bf34201ad" x="185.3735" y="340.114762" style="fill: #18c1f5; fill-opacity: 0.8; stroke: #18c1f5; stroke-opacity: 0.8"/>
     <use xlink:href="#m6bf34201ad" x="182.477207" y="305.621583" style="fill: #18c1f5; fill-opacity: 0.8; stroke: #18c1f5; stroke-opacity: 0.8"/>
     <use xlink:href="#m6bf34201ad" x="177.265272" y="230.583902" style="fill: #18c1f5; fill-opacity: 0.8; stroke: #18c1f5; stroke-opacity: 0.8"/>
     <use xlink:href="#m6bf34201ad" x="180.074194" y="251.306648" style="fill: #18c1f5; fill-opacity: 0.8; stroke: #18c1f5; stroke-opacity: 0.8"/>
     <use xlink:href="#m6bf34201ad" x="178.960619" y="142.271012" style="fill: #18c1f5; fill-opacity: 0.8; stroke: #18c1f5; stroke-opacity: 0.8"/>
     <use xlink:href="#m6bf34201ad" x="178.484669" y="285.620907" style="fill: #18c1f5; fill-opacity: 0.8; stroke: #18c1f5; stroke-opacity: 0.8"/>
     <use xlink:href="#m6bf34201ad" x="184.472226" y="297.854547" style="fill: #18c1f5; fill-opacity: 0.8; stroke: #18c1f5; stroke-opacity: 0.8"/>
     <use xlink:href="#m6bf34201ad" x="183.979755" y="151.776126" style="fill: #18c1f5; fill-opacity: 0.8; stroke: #18c1f5; stroke-opacity: 0.8"/>
     <use xlink:href="#m6bf34201ad" x="177.143904" y="245.29686" style="fill: #18c1f5; fill-opacity: 0.8; stroke: #18c1f5; stroke-opacity: 0.8"/>
     <use xlink:href="#m6bf34201ad" x="177.988911" y="265.326291" style="fill: #18c1f5; fill-opacity: 0.8; stroke: #18c1f5; stroke-opacity: 0.8"/>
     <use xlink:href="#m6bf34201ad" x="173.156018" y="260.294172" style="fill: #18c1f5; fill-opacity: 0.8; stroke: #18c1f5; stroke-opacity: 0.8"/>
     <use xlink:href="#m6bf34201ad" x="181.025116" y="297.170818" style="fill: #18c1f5; fill-opacity: 0.8; stroke: #18c1f5; stroke-opacity: 0.8"/>
     <use xlink:href="#m6bf34201ad" x="176.429802" y="298.669271" style="fill: #18c1f5; fill-opacity: 0.8; stroke: #18c1f5; stroke-opacity: 0.8"/>
     <use xlink:href="#m6bf34201ad" x="177.17875" y="218.196902" style="fill: #18c1f5; fill-opacity: 0.8; stroke: #18c1f5; stroke-opacity: 0.8"/>
    </g>
   </g>
   <g id="PathCollection_2">
    <defs>
     <path id="m08603e3f98" d="M 0 3 
C 0.795609 3 1.55874 2.683901 2.12132 2.12132 
C 2.683901 1.55874 3 0.795609 3 0 
C 3 -0.795609 2.683901 -1.55874 2.12132 -2.12132 
C 1.55874 -2.683901 0.795609 -3 0 -3 
C -0.795609 -3 -1.55874 -2.683901 -2.12132 -2.12132 
C -2.683901 -1.55874 -3 -0.795609 -3 0 
C -3 0.795609 -2.683901 1.55874 -2.12132 2.12132 
C -1.55874 2.683901 -0.795609 3 0 3 
z
" style="stroke: #36d15a; stroke-opacity: 0.8"/>
    </defs>
    <g clip-path="url(#pac28f35f3f)">
     <use xlink:href="#m08603e3f98" x="292.264858" y="253.754015" style="fill: #36d15a; fill-opacity: 0.8; stroke: #36d15a; stroke-opacity: 0.8"/>
     <use xlink:href="#m08603e3f98" x="292.41524" y="242.149789" style="fill: #36d15a; fill-opacity: 0.8; stroke: #36d15a; stroke-opacity: 0.8"/>
     <use xlink:href="#m08603e3f98" x="287.499666" y="260.345292" style="fill: #36d15a; fill-opacity: 0.8; stroke: #36d15a; stroke-opacity: 0.8"/>
     <use xlink:href="#m08603e3f98" x="286.924691" y="344.063777" style="fill: #36d15a; fill-opacity: 0.8; stroke: #36d15a; stroke-opacity: 0.8"/>
     <use xlink:href="#m08603e3f98" x="292.00146" y="310.564242" style="fill: #36d15a; fill-opacity: 0.8; stroke: #36d15a; stroke-opacity: 0.8"/>
     <use xlink:href="#m08603e3f98" x="294.008995" y="310.672872" style="fill: #36d15a; fill-opacity: 0.8; stroke: #36d15a; stroke-opacity: 0.8"/>
     <use xlink:href="#m08603e3f98" x="289.415877" y="306.688712" style="fill: #36d15a; fill-opacity: 0.8; stroke: #36d15a; stroke-opacity: 0.8"/>
     <use xlink:href="#m08603e3f98" x="291.614329" y="253.837085" style="fill: #36d15a; fill-opacity: 0.8; stroke: #36d15a; stroke-opacity: 0.8"/>
     <use xlink:href="#m08603e3f98" x="287.770351" y="344.443982" style="fill: #36d15a; fill-opacity: 0.8; stroke: #36d15a; stroke-opacity: 0.8"/>
     <use xlink:href="#m08603e3f98" x="283.231976" y="239.545867" style="fill: #36d15a; fill-opacity: 0.8; stroke: #36d15a; stroke-opacity: 0.8"/>
     <use xlink:href="#m08603e3f98" x="285.643257" y="289.068308" style="fill: #36d15a; fill-opacity: 0.8; stroke: #36d15a; stroke-opacity: 0.8"/>
     <use xlink:href="#m08603e3f98" x="285.735367" y="321.737144" style="fill: #36d15a; fill-opacity: 0.8; stroke: #36d15a; stroke-opacity: 0.8"/>
     <use xlink:href="#m08603e3f98" x="288.641224" y="274.460785" style="fill: #36d15a; fill-opacity: 0.8; stroke: #36d15a; stroke-opacity: 0.8"/>
     <use xlink:href="#m08603e3f98" x="285.025624" y="326.088729" style="fill: #36d15a; fill-opacity: 0.8; stroke: #36d15a; stroke-opacity: 0.8"/>
     <use xlink:href="#m08603e3f98" x="294.608667" y="290.566761" style="fill: #36d15a; fill-opacity: 0.8; stroke: #36d15a; stroke-opacity: 0.8"/>
     <use xlink:href="#m08603e3f98" x="290.27367" y="43.516875" style="fill: #36d15a; fill-opacity: 0.8; stroke: #36d15a; stroke-opacity: 0.8"/>
     <use xlink:href="#m08603e3f98" x="287.973535" y="332.731126" style="fill: #36d15a; fill-opacity: 0.8; stroke: #36d15a; stroke-opacity: 0.8"/>
     <use xlink:href="#m08603e3f98" x="287.015667" y="317.244979" style="fill: #36d15a; fill-opacity: 0.8; stroke: #36d15a; stroke-opacity: 0.8"/>
     <use xlink:href="#m08603e3f98" x="286.245475" y="335.005963" style="fill: #36d15a; fill-opacity: 0.8; stroke: #36d15a; stroke-opacity: 0.8"/>
     <use xlink:href="#m08603e3f98" x="291.105279" y="164.802126" style="fill: #36d15a; fill-opacity: 0.8; stroke: #36d15a; stroke-opacity: 0.8"/>
     <use xlink:href="#m08603e3f98" x="288.081707" y="160.412201" style="fill: #36d15a; fill-opacity: 0.8; stroke: #36d15a; stroke-opacity: 0.8"/>
     <use xlink:href="#m08603e3f98" x="296.967896" y="274.000706" style="fill: #36d15a; fill-opacity: 0.8; stroke: #36d15a; stroke-opacity: 0.8"/>
     <use xlink:href="#m08603e3f98" x="290.206251" y="284.898838" style="fill: #36d15a; fill-opacity: 0.8; stroke: #36d15a; stroke-opacity: 0.8"/>
     <use xlink:href="#m08603e3f98" x="287.242409" y="261.166406" style="fill: #36d15a; fill-opacity: 0.8; stroke: #36d15a; stroke-opacity: 0.8"/>
     <use xlink:href="#m08603e3f98" x="285.747947" y="106.761825" style="fill: #36d15a; fill-opacity: 0.8; stroke: #36d15a; stroke-opacity: 0.8"/>
     <use xlink:href="#m08603e3f98" x="295.895592" y="270.14115" style="fill: #36d15a; fill-opacity: 0.8; stroke: #36d15a; stroke-opacity: 0.8"/>
     <use xlink:href="#m08603e3f98" x="291.609041" y="297.554218" style="fill: #36d15a; fill-opacity: 0.8; stroke: #36d15a; stroke-opacity: 0.8"/>
     <use xlink:href="#m08603e3f98" x="294.920135" y="76.073886" style="fill: #36d15a; fill-opacity: 0.8; stroke: #36d15a; stroke-opacity: 0.8"/>
     <use xlink:href="#m08603e3f98" x="288.564344" y="221.915878" style="fill: #36d15a; fill-opacity: 0.8; stroke: #36d15a; stroke-opacity: 0.8"/>
     <use xlink:href="#m08603e3f98" x="287.29308" y="220.385474" style="fill: #36d15a; fill-opacity: 0.8; stroke: #36d15a; stroke-opacity: 0.8"/>
     <use xlink:href="#m08603e3f98" x="284.162143" y="257.5944" style="fill: #36d15a; fill-opacity: 0.8; stroke: #36d15a; stroke-opacity: 0.8"/>
    </g>
   </g>
   <g id="text_10">
    <!-- First Meal Time Distribution: Control vs. CASK -->
    <g transform="translate(7.2 22.396875) scale(0.2 -0.2)">
     <defs>
      <path id="DejaVuSans-44" d="M 1259 4147 
L 1259 519 
L 2022 519 
Q 2988 519 3436 956 
Q 3884 1394 3884 2338 
Q 3884 3275 3436 3711 
Q 2988 4147 2022 4147 
L 1259 4147 
z
M 628 4666 
L 1925 4666 
Q 3281 4666 3915 4102 
Q 4550 3538 4550 2338 
Q 4550 1131 3912 565 
Q 3275 0 1925 0 
L 628 0 
L 628 4666 
z
" transform="scale(0.015625)"/>
      <path id="DejaVuSans-62" d="M 3116 1747 
Q 3116 2381 2855 2742 
Q 2594 3103 2138 3103 
Q 1681 3103 1420 2742 
Q 1159 2381 1159 1747 
Q 1159 1113 1420 752 
Q 1681 391 2138 391 
Q 2594 391 2855 752 
Q 3116 1113 3116 1747 
z
M 1159 2969 
Q 1341 3281 1617 3432 
Q 1894 3584 2278 3584 
Q 2916 3584 3314 3078 
Q 3713 2572 3713 1747 
Q 3713 922 3314 415 
Q 2916 -91 2278 -91 
Q 1894 -91 1617 61 
Q 1341 213 1159 525 
L 1159 0 
L 581 0 
L 581 4863 
L 1159 4863 
L 1159 2969 
z
" transform="scale(0.015625)"/>
      <path id="DejaVuSans-3a" d="M 750 794 
L 1409 794 
L 1409 0 
L 750 0 
L 750 794 
z
M 750 3309 
L 1409 3309 
L 1409 2516 
L 750 2516 
L 750 3309 
z
" transform="scale(0.015625)"/>
      <path id="DejaVuSans-76" d="M 191 3500 
L 800 3500 
L 1894 563 
L 2988 3500 
L 3597 3500 
L 2284 0 
L 1503 0 
L 191 3500 
z
" transform="scale(0.015625)"/>
      <path id="DejaVuSans-2e" d="M 684 794 
L 1344 794 
L 1344 0 
L 684 0 
L 684 794 
z
" transform="scale(0.015625)"/>
     </defs>
     <use xlink:href="#DejaVuSans-46"/>
     <use xlink:href="#DejaVuSans-69" x="50.269531"/>
     <use xlink:href="#DejaVuSans-72" x="78.052734"/>
     <use xlink:href="#DejaVuSans-73" x="119.166016"/>
     <use xlink:href="#DejaVuSans-74" x="171.265625"/>
     <use xlink:href="#DejaVuSans-20" x="210.474609"/>
     <use xlink:href="#DejaVuSans-4d" x="242.261719"/>
     <use xlink:href="#DejaVuSans-65" x="328.541016"/>
     <use xlink:href="#DejaVuSans-61" x="390.064453"/>
     <use xlink:href="#DejaVuSans-6c" x="451.34375"/>
     <use xlink:href="#DejaVuSans-20" x="479.126953"/>
     <use xlink:href="#DejaVuSans-54" x="510.914062"/>
     <use xlink:href="#DejaVuSans-69" x="568.873047"/>
     <use xlink:href="#DejaVuSans-6d" x="596.65625"/>
     <use xlink:href="#DejaVuSans-65" x="694.068359"/>
     <use xlink:href="#DejaVuSans-20" x="755.591797"/>
     <use xlink:href="#DejaVuSans-44" x="787.378906"/>
     <use xlink:href="#DejaVuSans-69" x="864.380859"/>
     <use xlink:href="#DejaVuSans-73" x="892.164062"/>
     <use xlink:href="#DejaVuSans-74" x="944.263672"/>
     <use xlink:href="#DejaVuSans-72" x="983.472656"/>
     <use xlink:href="#DejaVuSans-69" x="1024.585938"/>
     <use xlink:href="#DejaVuSans-62" x="1052.369141"/>
     <use xlink:href="#DejaVuSans-75" x="1115.845703"/>
     <use xlink:href="#DejaVuSans-74" x="1179.224609"/>
     <use xlink:href="#DejaVuSans-69" x="1218.433594"/>
     <use xlink:href="#DejaVuSans-6f" x="1246.216797"/>
     <use xlink:href="#DejaVuSans-6e" x="1307.398438"/>
     <use xlink:href="#DejaVuSans-3a" x="1370.777344"/>
     <use xlink:href="#DejaVuSans-20" x="1404.46875"/>
     <use xlink:href="#DejaVuSans-43" x="1436.255859"/>
     <use xlink:href="#DejaVuSans-6f" x="1506.080078"/>
     <use xlink:href="#DejaVuSans-6e" x="1567.261719"/>
     <use xlink:href="#DejaVuSans-74" x="1630.640625"/>
     <use xlink:href="#DejaVuSans-72" x="1669.849609"/>
     <use xlink:href="#DejaVuSans-6f" x="1708.712891"/>
     <use xlink:href="#DejaVuSans-6c" x="1769.894531"/>
     <use xlink:href="#DejaVuSans-20" x="1797.677734"/>
     <use xlink:href="#DejaVuSans-76" x="1829.464844"/>
     <use xlink:href="#DejaVuSans-73" x="1888.644531"/>
     <use xlink:href="#DejaVuSans-2e" x="1940.744141"/>
     <use xlink:href="#DejaVuSans-20" x="1972.53125"/>
     <use xlink:href="#DejaVuSans-43" x="2004.318359"/>
     <use xlink:href="#DejaVuSans-41" x="2074.142578"/>
     <use xlink:href="#DejaVuSans-53" x="2142.550781"/>
     <use xlink:href="#DejaVuSans-4b" x="2206.027344"/>
    </g>
   </g>
   <g id="legend_1">
    <g id="patch_9">
     <path d="M 73.953125 65.753125 
L 180.51875 65.753125 
Q 182.51875 65.753125 182.51875 63.753125 
L 182.51875 35.396875 
Q 182.51875 33.396875 180.51875 33.396875 
L 73.953125 33.396875 
Q 71.953125 33.396875 71.953125 35.396875 
L 71.953125 63.753125 
Q 71.953125 65.753125 73.953125 65.753125 
z
" style="fill: #ffffff; opacity: 0.8; stroke: #cccccc; stroke-linejoin: miter"/>
    </g>
    <g id="patch_10">
     <path d="M 75.953125 44.995312 
L 95.953125 44.995312 
L 95.953125 37.995312 
L 75.953125 37.995312 
z
" style="fill: #38bcf5; opacity: 0.6; stroke: #38bcf5; stroke-linejoin: miter"/>
    </g>
    <g id="text_11">
     <!-- Control (n=35) -->
     <g transform="translate(103.953125 44.995312) scale(0.1 -0.1)">
      <defs>
       <path id="DejaVuSans-3d" d="M 678 2906 
L 4684 2906 
L 4684 2381 
L 678 2381 
L 678 2906 
z
M 678 1631 
L 4684 1631 
L 4684 1100 
L 678 1100 
L 678 1631 
z
" transform="scale(0.015625)"/>
      </defs>
      <use xlink:href="#DejaVuSans-43"/>
      <use xlink:href="#DejaVuSans-6f" x="69.824219"/>
      <use xlink:href="#DejaVuSans-6e" x="131.005859"/>
      <use xlink:href="#DejaVuSans-74" x="194.384766"/>
      <use xlink:href="#DejaVuSans-72" x="233.59375"/>
      <use xlink:href="#DejaVuSans-6f" x="272.457031"/>
      <use xlink:href="#DejaVuSans-6c" x="333.638672"/>
      <use xlink:href="#DejaVuSans-20" x="361.421875"/>
      <use xlink:href="#DejaVuSans-28" x="393.208984"/>
      <use xlink:href="#DejaVuSans-6e" x="432.222656"/>
      <use xlink:href="#DejaVuSans-3d" x="495.601562"/>
      <use xlink:href="#DejaVuSans-33" x="579.390625"/>
      <use xlink:href="#DejaVuSans-35" x="643.013672"/>
      <use xlink:href="#DejaVuSans-29" x="706.636719"/>
     </g>
    </g>
    <g id="patch_11">
     <path d="M 75.953125 59.673437 
L 95.953125 59.673437 
L 95.953125 52.673437 
L 75.953125 52.673437 
z
" style="fill: #38f5a6; opacity: 0.6; stroke: #38f5a6; stroke-linejoin: miter"/>
    </g>
    <g id="text_12">
     <!-- CASK (n=31) -->
     <g transform="translate(103.953125 59.673437) scale(0.1 -0.1)">
      <use xlink:href="#DejaVuSans-43"/>
      <use xlink:href="#DejaVuSans-41" x="69.824219"/>
      <use xlink:href="#DejaVuSans-53" x="138.232422"/>
      <use xlink:href="#DejaVuSans-4b" x="201.708984"/>
      <use xlink:href="#DejaVuSans-20" x="267.285156"/>
      <use xlink:href="#DejaVuSans-28" x="299.072266"/>
      <use xlink:href="#DejaVuSans-6e" x="338.085938"/>
      <use xlink:href="#DejaVuSans-3d" x="401.464844"/>
      <use xlink:href="#DejaVuSans-33" x="485.253906"/>
      <use xlink:href="#DejaVuSans-31" x="548.876953"/>
      <use xlink:href="#DejaVuSans-29" x="612.5"/>
     </g>
    </g>
   </g>
  </g>
 </g>
 <defs>
  <clipPath id="pac28f35f3f">
   <rect x="66.953125" y="28.396875" width="334.8" height="332.64"/>
  </clipPath>
 </defs>
</svg>
