<?xml version="1.0" encoding="utf-8" standalone="no"?>
<!DOCTYPE svg PUBLIC "-//W3C//DTD SVG 1.1//EN"
  "http://www.w3.org/Graphics/SVG/1.1/DTD/svg11.dtd">
<svg xmlns:xlink="http://www.w3.org/1999/xlink" width="494.578125pt" height="402.464375pt" viewBox="0 0 494.578125 402.464375" xmlns="http://www.w3.org/2000/svg" version="1.1">
 <metadata>
  <rdf:RDF xmlns:dc="http://purl.org/dc/elements/1.1/" xmlns:cc="http://creativecommons.org/ns#" xmlns:rdf="http://www.w3.org/1999/02/22-rdf-syntax-ns#">
   <cc:Work>
    <dc:type rdf:resource="http://purl.org/dc/dcmitype/StillImage"/>
    <dc:date>2025-05-09T15:04:02.679921</dc:date>
    <dc:format>image/svg+xml</dc:format>
    <dc:creator>
     <cc:Agent>
      <dc:title>Matplotlib v3.8.3, https://matplotlib.org/</dc:title>
     </cc:Agent>
    </dc:creator>
   </cc:Work>
  </rdf:RDF>
 </metadata>
 <defs>
  <style type="text/css">*{stroke-linejoin: round; stroke-linecap: butt}</style>
 </defs>
 <g id="figure_1">
  <g id="patch_1">
   <path d="M 0 402.464375 
L 494.578125 402.464375 
L 494.578125 0 
L 0 0 
z
" style="fill: #ffffff"/>
  </g>
  <g id="axes_1">
   <g id="patch_2">
    <path d="M 79.889062 361.036875 
L 414.689063 361.036875 
L 414.689063 28.396875 
L 79.889062 28.396875 
z
" style="fill: #ffffff"/>
   </g>
   <g id="PolyCollection_1">
    <defs>
     <path id="mc3fe1baded" d="M 193.477287 -56.5475 
L 189.500838 -56.5475 
L 189.422911 -59.066955 
L 189.342682 -61.586411 
L 189.258215 -64.105866 
L 189.16736 -66.625322 
L 189.067822 -69.144777 
L 188.957251 -71.664233 
L 188.833332 -74.183688 
L 188.693886 -76.703144 
L 188.536965 -79.222599 
L 188.360942 -81.742055 
L 188.164597 -84.26151 
L 187.947178 -86.780966 
L 187.708453 -89.300421 
L 187.448731 -91.819877 
L 187.168866 -94.339332 
L 186.870237 -96.858788 
L 186.554699 -99.378243 
L 186.224518 -101.897699 
L 185.88229 -104.417154 
L 185.530838 -106.93661 
L 185.173111 -109.456065 
L 184.812075 -111.975521 
L 184.450603 -114.494976 
L 184.091379 -117.014432 
L 183.73681 -119.533887 
L 183.388953 -122.053343 
L 183.049461 -124.572798 
L 182.719545 -127.092254 
L 182.399952 -129.611709 
L 182.090967 -132.131165 
L 181.792421 -134.65062 
L 181.503714 -137.170076 
L 181.223845 -139.689531 
L 180.95145 -142.208987 
L 180.684835 -144.728442 
L 180.422018 -147.247898 
L 180.160766 -149.767353 
L 179.898625 -152.286809 
L 179.632961 -154.806264 
L 179.360988 -157.32572 
L 179.07981 -159.845175 
L 178.786457 -162.364631 
L 178.477938 -164.884086 
L 178.151289 -167.403542 
L 177.803641 -169.922997 
L 177.432294 -172.442453 
L 177.034799 -174.961908 
L 176.609047 -177.481364 
L 176.153363 -180.000819 
L 175.666602 -182.520275 
L 175.148242 -185.03973 
L 174.598466 -187.559186 
L 174.018234 -190.078641 
L 173.409342 -192.598097 
L 172.77445 -195.117552 
L 172.117097 -197.637008 
L 171.441687 -200.156463 
L 170.753439 -202.675919 
L 170.058322 -205.195374 
L 169.362958 -207.71483 
L 168.674496 -210.234285 
L 168.000476 -212.753741 
L 167.34867 -215.273196 
L 166.726905 -217.792652 
L 166.142898 -220.312107 
L 165.604073 -222.831563 
L 165.117393 -225.351018 
L 164.689204 -227.870474 
L 164.325096 -230.389929 
L 164.029785 -232.909385 
L 163.807028 -235.42884 
L 163.659558 -237.948296 
L 163.589063 -240.467751 
L 163.596188 -242.987207 
L 163.680575 -245.506662 
L 163.840928 -248.026118 
L 164.075101 -250.545573 
L 164.380215 -253.065029 
L 164.752775 -255.584484 
L 165.188808 -258.10394 
L 165.683994 -260.623395 
L 166.233794 -263.142851 
L 166.833563 -265.662306 
L 167.478658 -268.181762 
L 168.164509 -270.701217 
L 168.886684 -273.220673 
L 169.640924 -275.740128 
L 170.423157 -278.259584 
L 171.229493 -280.779039 
L 172.056203 -283.298495 
L 172.899688 -285.81795 
L 173.756437 -288.337406 
L 174.622988 -290.856861 
L 175.495884 -293.376317 
L 176.371645 -295.895772 
L 177.246742 -298.415228 
L 178.117589 -300.934683 
L 178.980547 -303.454139 
L 179.831943 -305.973594 
L 203.146182 -305.973594 
L 203.146182 -305.973594 
L 203.997578 -303.454139 
L 204.860536 -300.934683 
L 205.731383 -298.415228 
L 206.60648 -295.895772 
L 207.482241 -293.376317 
L 208.355137 -290.856861 
L 209.221688 -288.337406 
L 210.078437 -285.81795 
L 210.921922 -283.298495 
L 211.748632 -280.779039 
L 212.554968 -278.259584 
L 213.337201 -275.740128 
L 214.091441 -273.220673 
L 214.813616 -270.701217 
L 215.499467 -268.181762 
L 216.144562 -265.662306 
L 216.744331 -263.142851 
L 217.294131 -260.623395 
L 217.789317 -258.10394 
L 218.22535 -255.584484 
L 218.59791 -253.065029 
L 218.903024 -250.545573 
L 219.137197 -248.026118 
L 219.29755 -245.506662 
L 219.381937 -242.987207 
L 219.389063 -240.467751 
L 219.318567 -237.948296 
L 219.171097 -235.42884 
L 218.94834 -232.909385 
L 218.653029 -230.389929 
L 218.288921 -227.870474 
L 217.860732 -225.351018 
L 217.374052 -222.831563 
L 216.835227 -220.312107 
L 216.25122 -217.792652 
L 215.629455 -215.273196 
L 214.977649 -212.753741 
L 214.303629 -210.234285 
L 213.615167 -207.71483 
L 212.919803 -205.195374 
L 212.224686 -202.675919 
L 211.536438 -200.156463 
L 210.861028 -197.637008 
L 210.203675 -195.117552 
L 209.568783 -192.598097 
L 208.959891 -190.078641 
L 208.379659 -187.559186 
L 207.829883 -185.03973 
L 207.311523 -182.520275 
L 206.824762 -180.000819 
L 206.369078 -177.481364 
L 205.943326 -174.961908 
L 205.545831 -172.442453 
L 205.174484 -169.922997 
L 204.826836 -167.403542 
L 204.500187 -164.884086 
L 204.191668 -162.364631 
L 203.898315 -159.845175 
L 203.617137 -157.32572 
L 203.345164 -154.806264 
L 203.0795 -152.286809 
L 202.817359 -149.767353 
L 202.556107 -147.247898 
L 202.29329 -144.728442 
L 202.026675 -142.208987 
L 201.75428 -139.689531 
L 201.474411 -137.170076 
L 201.185704 -134.65062 
L 200.887158 -132.131165 
L 200.578173 -129.611709 
L 200.25858 -127.092254 
L 199.928664 -124.572798 
L 199.589172 -122.053343 
L 199.241315 -119.533887 
L 198.886746 -117.014432 
L 198.527522 -114.494976 
L 198.16605 -111.975521 
L 197.805014 -109.456065 
L 197.447287 -106.93661 
L 197.095835 -104.417154 
L 196.753607 -101.897699 
L 196.423426 -99.378243 
L 196.107888 -96.858788 
L 195.809259 -94.339332 
L 195.529394 -91.819877 
L 195.269672 -89.300421 
L 195.030947 -86.780966 
L 194.813528 -84.26151 
L 194.617183 -81.742055 
L 194.44116 -79.222599 
L 194.284239 -76.703144 
L 194.144793 -74.183688 
L 194.020874 -71.664233 
L 193.910303 -69.144777 
L 193.810765 -66.625322 
L 193.71991 -64.105866 
L 193.635443 -61.586411 
L 193.555214 -59.066955 
L 193.477287 -56.5475 
z
" style="stroke: #000000; stroke-opacity: 0.6"/>
    </defs>
    <g clip-path="url(#pe59afca139)">
     <use xlink:href="#mc3fe1baded" x="0" y="402.464375" style="fill: #38bcf5; fill-opacity: 0.6; stroke: #000000; stroke-opacity: 0.6"/>
    </g>
   </g>
   <g id="PolyCollection_2">
    <defs>
     <path id="m376b05b36b" d="M 304.930267 -98.429388 
L 301.247858 -98.429388 
L 301.253582 -101.060884 
L 301.275147 -103.69238 
L 301.311458 -106.323876 
L 301.360873 -108.955372 
L 301.421232 -111.586868 
L 301.489898 -114.218365 
L 301.563812 -116.849861 
L 301.639552 -119.481357 
L 301.713393 -122.112853 
L 301.78137 -124.744349 
L 301.839336 -127.375845 
L 301.883013 -130.007341 
L 301.908048 -132.638837 
L 301.910057 -135.270333 
L 301.884676 -137.901829 
L 301.827614 -140.533325 
L 301.734713 -143.164821 
L 301.602016 -145.796317 
L 301.425858 -148.427814 
L 301.202953 -151.05931 
L 300.930515 -153.690806 
L 300.606376 -156.322302 
L 300.229111 -158.953798 
L 299.798168 -161.585294 
L 299.313983 -164.21679 
L 298.778073 -166.848286 
L 298.193107 -169.479782 
L 297.562925 -172.111278 
L 296.892522 -174.742774 
L 296.187962 -177.37427 
L 295.456253 -180.005767 
L 294.705147 -182.637263 
L 293.942903 -185.268759 
L 293.178002 -187.900255 
L 292.418829 -190.531751 
L 291.673356 -193.163247 
L 290.948812 -195.794743 
L 290.251386 -198.426239 
L 289.585974 -201.057735 
L 288.955975 -203.689231 
L 288.363167 -206.320727 
L 287.807649 -208.952223 
L 287.287883 -211.583719 
L 286.8008 -214.215216 
L 286.341995 -216.846712 
L 285.905979 -219.478208 
L 285.486482 -222.109704 
L 285.076798 -224.7412 
L 284.670132 -227.372696 
L 284.25996 -230.004192 
L 283.84036 -232.635688 
L 283.40631 -235.267184 
L 282.953948 -237.89868 
L 282.480765 -240.530176 
L 281.985749 -243.161672 
L 281.469457 -245.793169 
L 280.934028 -248.424665 
L 280.383134 -251.056161 
L 279.821874 -253.687657 
L 279.256629 -256.319153 
L 278.694857 -258.950649 
L 278.144876 -261.582145 
L 277.615606 -264.213641 
L 277.116311 -266.845137 
L 276.65632 -269.476633 
L 276.244765 -272.108129 
L 275.890325 -274.739625 
L 275.600991 -277.371122 
L 275.383855 -280.002618 
L 275.244941 -282.634114 
L 275.189063 -285.26561 
L 275.219732 -287.897106 
L 275.339101 -290.528602 
L 275.547952 -293.160098 
L 275.84572 -295.791594 
L 276.230557 -298.42309 
L 276.699417 -301.054586 
L 277.248176 -303.686082 
L 277.871761 -306.317578 
L 278.564294 -308.949074 
L 279.319241 -311.580571 
L 280.129563 -314.212067 
L 280.987864 -316.843563 
L 281.886529 -319.475059 
L 282.817858 -322.106555 
L 283.774185 -324.738051 
L 284.747988 -327.369547 
L 285.731987 -330.001043 
L 286.719231 -332.632539 
L 287.703169 -335.264035 
L 288.677708 -337.895531 
L 289.637264 -340.527027 
L 290.576792 -343.158524 
L 291.491812 -345.79002 
L 292.378411 -348.421516 
L 293.233244 -351.053012 
L 294.053517 -353.684508 
L 294.836971 -356.316004 
L 295.581844 -358.9475 
L 310.596281 -358.9475 
L 310.596281 -358.9475 
L 311.341154 -356.316004 
L 312.124608 -353.684508 
L 312.944881 -351.053012 
L 313.799714 -348.421516 
L 314.686313 -345.79002 
L 315.601333 -343.158524 
L 316.540861 -340.527027 
L 317.500417 -337.895531 
L 318.474956 -335.264035 
L 319.458894 -332.632539 
L 320.446138 -330.001043 
L 321.430137 -327.369547 
L 322.40394 -324.738051 
L 323.360267 -322.106555 
L 324.291596 -319.475059 
L 325.190261 -316.843563 
L 326.048562 -314.212067 
L 326.858884 -311.580571 
L 327.613831 -308.949074 
L 328.306364 -306.317578 
L 328.929949 -303.686082 
L 329.478708 -301.054586 
L 329.947568 -298.42309 
L 330.332405 -295.791594 
L 330.630173 -293.160098 
L 330.839024 -290.528602 
L 330.958393 -287.897106 
L 330.989063 -285.26561 
L 330.933184 -282.634114 
L 330.79427 -280.002618 
L 330.577134 -277.371122 
L 330.2878 -274.739625 
L 329.93336 -272.108129 
L 329.521805 -269.476633 
L 329.061814 -266.845137 
L 328.562519 -264.213641 
L 328.033249 -261.582145 
L 327.483268 -258.950649 
L 326.921496 -256.319153 
L 326.356251 -253.687657 
L 325.794991 -251.056161 
L 325.244097 -248.424665 
L 324.708668 -245.793169 
L 324.192376 -243.161672 
L 323.69736 -240.530176 
L 323.224177 -237.89868 
L 322.771815 -235.267184 
L 322.337765 -232.635688 
L 321.918165 -230.004192 
L 321.507993 -227.372696 
L 321.101327 -224.7412 
L 320.691643 -222.109704 
L 320.272146 -219.478208 
L 319.83613 -216.846712 
L 319.377325 -214.215216 
L 318.890242 -211.583719 
L 318.370476 -208.952223 
L 317.814958 -206.320727 
L 317.22215 -203.689231 
L 316.592151 -201.057735 
L 315.926739 -198.426239 
L 315.229313 -195.794743 
L 314.504769 -193.163247 
L 313.759296 -190.531751 
L 313.000123 -187.900255 
L 312.235222 -185.268759 
L 311.472978 -182.637263 
L 310.721872 -180.005767 
L 309.990163 -177.37427 
L 309.285603 -174.742774 
L 308.6152 -172.111278 
L 307.985018 -169.479782 
L 307.400052 -166.848286 
L 306.864142 -164.21679 
L 306.379957 -161.585294 
L 305.949014 -158.953798 
L 305.571749 -156.322302 
L 305.24761 -153.690806 
L 304.975172 -151.05931 
L 304.752267 -148.427814 
L 304.576109 -145.796317 
L 304.443412 -143.164821 
L 304.350511 -140.533325 
L 304.293449 -137.901829 
L 304.268068 -135.270333 
L 304.270077 -132.638837 
L 304.295112 -130.007341 
L 304.338789 -127.375845 
L 304.396755 -124.744349 
L 304.464732 -122.112853 
L 304.538573 -119.481357 
L 304.614313 -116.849861 
L 304.688227 -114.218365 
L 304.756893 -111.586868 
L 304.817252 -108.955372 
L 304.866667 -106.323876 
L 304.902978 -103.69238 
L 304.924543 -101.060884 
L 304.930267 -98.429388 
z
" style="stroke: #000000; stroke-opacity: 0.6"/>
    </defs>
    <g clip-path="url(#pe59afca139)">
     <use xlink:href="#m376b05b36b" x="0" y="402.464375" style="fill: #38f5a6; fill-opacity: 0.6; stroke: #000000; stroke-opacity: 0.6"/>
    </g>
   </g>
   <g id="matplotlib.axis_1">
    <g id="xtick_1">
     <g id="line2d_1">
      <defs>
       <path id="m529881cdce" d="M 0 0 
L 0 3.5 
" style="stroke: #000000; stroke-width: 0.8"/>
      </defs>
      <g>
       <use xlink:href="#m529881cdce" x="191.489063" y="361.036875" style="stroke: #000000; stroke-width: 0.8"/>
      </g>
     </g>
     <g id="text_1">
      <!-- Ctrl -->
      <g transform="translate(182.592969 375.635312) scale(0.1 -0.1)">
       <defs>
        <path id="DejaVuSans-43" d="M 4122 4306 
L 4122 3641 
Q 3803 3938 3442 4084 
Q 3081 4231 2675 4231 
Q 1875 4231 1450 3742 
Q 1025 3253 1025 2328 
Q 1025 1406 1450 917 
Q 1875 428 2675 428 
Q 3081 428 3442 575 
Q 3803 722 4122 1019 
L 4122 359 
Q 3791 134 3420 21 
Q 3050 -91 2638 -91 
Q 1578 -91 968 557 
Q 359 1206 359 2328 
Q 359 3453 968 4101 
Q 1578 4750 2638 4750 
Q 3056 4750 3426 4639 
Q 3797 4528 4122 4306 
z
" transform="scale(0.015625)"/>
        <path id="DejaVuSans-74" d="M 1172 4494 
L 1172 3500 
L 2356 3500 
L 2356 3053 
L 1172 3053 
L 1172 1153 
Q 1172 725 1289 603 
Q 1406 481 1766 481 
L 2356 481 
L 2356 0 
L 1766 0 
Q 1100 0 847 248 
Q 594 497 594 1153 
L 594 3053 
L 172 3053 
L 172 3500 
L 594 3500 
L 594 4494 
L 1172 4494 
z
" transform="scale(0.015625)"/>
        <path id="DejaVuSans-72" d="M 2631 2963 
Q 2534 3019 2420 3045 
Q 2306 3072 2169 3072 
Q 1681 3072 1420 2755 
Q 1159 2438 1159 1844 
L 1159 0 
L 581 0 
L 581 3500 
L 1159 3500 
L 1159 2956 
Q 1341 3275 1631 3429 
Q 1922 3584 2338 3584 
Q 2397 3584 2469 3576 
Q 2541 3569 2628 3553 
L 2631 2963 
z
" transform="scale(0.015625)"/>
        <path id="DejaVuSans-6c" d="M 603 4863 
L 1178 4863 
L 1178 0 
L 603 0 
L 603 4863 
z
" transform="scale(0.015625)"/>
       </defs>
       <use xlink:href="#DejaVuSans-43"/>
       <use xlink:href="#DejaVuSans-74" x="69.824219"/>
       <use xlink:href="#DejaVuSans-72" x="109.033203"/>
       <use xlink:href="#DejaVuSans-6c" x="150.146484"/>
      </g>
     </g>
    </g>
    <g id="xtick_2">
     <g id="line2d_2">
      <g>
       <use xlink:href="#m529881cdce" x="303.089063" y="361.036875" style="stroke: #000000; stroke-width: 0.8"/>
      </g>
     </g>
     <g id="text_2">
      <!-- CASK -->
      <g transform="translate(289.724219 375.635312) scale(0.1 -0.1)">
       <defs>
        <path id="DejaVuSans-41" d="M 2188 4044 
L 1331 1722 
L 3047 1722 
L 2188 4044 
z
M 1831 4666 
L 2547 4666 
L 4325 0 
L 3669 0 
L 3244 1197 
L 1141 1197 
L 716 0 
L 50 0 
L 1831 4666 
z
" transform="scale(0.015625)"/>
        <path id="DejaVuSans-53" d="M 3425 4513 
L 3425 3897 
Q 3066 4069 2747 4153 
Q 2428 4238 2131 4238 
Q 1616 4238 1336 4038 
Q 1056 3838 1056 3469 
Q 1056 3159 1242 3001 
Q 1428 2844 1947 2747 
L 2328 2669 
Q 3034 2534 3370 2195 
Q 3706 1856 3706 1288 
Q 3706 609 3251 259 
Q 2797 -91 1919 -91 
Q 1588 -91 1214 -16 
Q 841 59 441 206 
L 441 856 
Q 825 641 1194 531 
Q 1563 422 1919 422 
Q 2459 422 2753 634 
Q 3047 847 3047 1241 
Q 3047 1584 2836 1778 
Q 2625 1972 2144 2069 
L 1759 2144 
Q 1053 2284 737 2584 
Q 422 2884 422 3419 
Q 422 4038 858 4394 
Q 1294 4750 2059 4750 
Q 2388 4750 2728 4690 
Q 3069 4631 3425 4513 
z
" transform="scale(0.015625)"/>
        <path id="DejaVuSans-4b" d="M 628 4666 
L 1259 4666 
L 1259 2694 
L 3353 4666 
L 4166 4666 
L 1850 2491 
L 4331 0 
L 3500 0 
L 1259 2247 
L 1259 0 
L 628 0 
L 628 4666 
z
" transform="scale(0.015625)"/>
       </defs>
       <use xlink:href="#DejaVuSans-43"/>
       <use xlink:href="#DejaVuSans-41" x="69.824219"/>
       <use xlink:href="#DejaVuSans-53" x="138.232422"/>
       <use xlink:href="#DejaVuSans-4b" x="201.708984"/>
      </g>
     </g>
    </g>
    <g id="text_3">
     <!-- Groups -->
     <g transform="translate(222.335156 392.352812) scale(0.14 -0.14)">
      <defs>
       <path id="DejaVuSans-47" d="M 3809 666 
L 3809 1919 
L 2778 1919 
L 2778 2438 
L 4434 2438 
L 4434 434 
Q 4069 175 3628 42 
Q 3188 -91 2688 -91 
Q 1594 -91 976 548 
Q 359 1188 359 2328 
Q 359 3472 976 4111 
Q 1594 4750 2688 4750 
Q 3144 4750 3555 4637 
Q 3966 4525 4313 4306 
L 4313 3634 
Q 3963 3931 3569 4081 
Q 3175 4231 2741 4231 
Q 1884 4231 1454 3753 
Q 1025 3275 1025 2328 
Q 1025 1384 1454 906 
Q 1884 428 2741 428 
Q 3075 428 3337 486 
Q 3600 544 3809 666 
z
" transform="scale(0.015625)"/>
       <path id="DejaVuSans-6f" d="M 1959 3097 
Q 1497 3097 1228 2736 
Q 959 2375 959 1747 
Q 959 1119 1226 758 
Q 1494 397 1959 397 
Q 2419 397 2687 759 
Q 2956 1122 2956 1747 
Q 2956 2369 2687 2733 
Q 2419 3097 1959 3097 
z
M 1959 3584 
Q 2709 3584 3137 3096 
Q 3566 2609 3566 1747 
Q 3566 888 3137 398 
Q 2709 -91 1959 -91 
Q 1206 -91 779 398 
Q 353 888 353 1747 
Q 353 2609 779 3096 
Q 1206 3584 1959 3584 
z
" transform="scale(0.015625)"/>
       <path id="DejaVuSans-75" d="M 544 1381 
L 544 3500 
L 1119 3500 
L 1119 1403 
Q 1119 906 1312 657 
Q 1506 409 1894 409 
Q 2359 409 2629 706 
Q 2900 1003 2900 1516 
L 2900 3500 
L 3475 3500 
L 3475 0 
L 2900 0 
L 2900 538 
Q 2691 219 2414 64 
Q 2138 -91 1772 -91 
Q 1169 -91 856 284 
Q 544 659 544 1381 
z
M 1991 3584 
L 1991 3584 
z
" transform="scale(0.015625)"/>
       <path id="DejaVuSans-70" d="M 1159 525 
L 1159 -1331 
L 581 -1331 
L 581 3500 
L 1159 3500 
L 1159 2969 
Q 1341 3281 1617 3432 
Q 1894 3584 2278 3584 
Q 2916 3584 3314 3078 
Q 3713 2572 3713 1747 
Q 3713 922 3314 415 
Q 2916 -91 2278 -91 
Q 1894 -91 1617 61 
Q 1341 213 1159 525 
z
M 3116 1747 
Q 3116 2381 2855 2742 
Q 2594 3103 2138 3103 
Q 1681 3103 1420 2742 
Q 1159 2381 1159 1747 
Q 1159 1113 1420 752 
Q 1681 391 2138 391 
Q 2594 391 2855 752 
Q 3116 1113 3116 1747 
z
" transform="scale(0.015625)"/>
       <path id="DejaVuSans-73" d="M 2834 3397 
L 2834 2853 
Q 2591 2978 2328 3040 
Q 2066 3103 1784 3103 
Q 1356 3103 1142 2972 
Q 928 2841 928 2578 
Q 928 2378 1081 2264 
Q 1234 2150 1697 2047 
L 1894 2003 
Q 2506 1872 2764 1633 
Q 3022 1394 3022 966 
Q 3022 478 2636 193 
Q 2250 -91 1575 -91 
Q 1294 -91 989 -36 
Q 684 19 347 128 
L 347 722 
Q 666 556 975 473 
Q 1284 391 1588 391 
Q 1994 391 2212 530 
Q 2431 669 2431 922 
Q 2431 1156 2273 1281 
Q 2116 1406 1581 1522 
L 1381 1569 
Q 847 1681 609 1914 
Q 372 2147 372 2553 
Q 372 3047 722 3315 
Q 1072 3584 1716 3584 
Q 2034 3584 2315 3537 
Q 2597 3491 2834 3397 
z
" transform="scale(0.015625)"/>
      </defs>
      <use xlink:href="#DejaVuSans-47"/>
      <use xlink:href="#DejaVuSans-72" x="77.490234"/>
      <use xlink:href="#DejaVuSans-6f" x="116.353516"/>
      <use xlink:href="#DejaVuSans-75" x="177.535156"/>
      <use xlink:href="#DejaVuSans-70" x="240.914062"/>
      <use xlink:href="#DejaVuSans-73" x="304.390625"/>
     </g>
    </g>
   </g>
   <g id="matplotlib.axis_2">
    <g id="ytick_1">
     <g id="line2d_3">
      <defs>
       <path id="m0d38373b1b" d="M 0 0 
L -3.5 0 
" style="stroke: #000000; stroke-width: 0.8"/>
      </defs>
      <g>
       <use xlink:href="#m0d38373b1b" x="79.889062" y="308.752163" style="stroke: #000000; stroke-width: 0.8"/>
      </g>
     </g>
     <g id="text_4">
      <!-- 50 -->
      <g transform="translate(60.164062 312.551381) scale(0.1 -0.1)">
       <defs>
        <path id="DejaVuSans-35" d="M 691 4666 
L 3169 4666 
L 3169 4134 
L 1269 4134 
L 1269 2991 
Q 1406 3038 1543 3061 
Q 1681 3084 1819 3084 
Q 2600 3084 3056 2656 
Q 3513 2228 3513 1497 
Q 3513 744 3044 326 
Q 2575 -91 1722 -91 
Q 1428 -91 1123 -41 
Q 819 9 494 109 
L 494 744 
Q 775 591 1075 516 
Q 1375 441 1709 441 
Q 2250 441 2565 725 
Q 2881 1009 2881 1497 
Q 2881 1984 2565 2268 
Q 2250 2553 1709 2553 
Q 1456 2553 1204 2497 
Q 953 2441 691 2322 
L 691 4666 
z
" transform="scale(0.015625)"/>
        <path id="DejaVuSans-30" d="M 2034 4250 
Q 1547 4250 1301 3770 
Q 1056 3291 1056 2328 
Q 1056 1369 1301 889 
Q 1547 409 2034 409 
Q 2525 409 2770 889 
Q 3016 1369 3016 2328 
Q 3016 3291 2770 3770 
Q 2525 4250 2034 4250 
z
M 2034 4750 
Q 2819 4750 3233 4129 
Q 3647 3509 3647 2328 
Q 3647 1150 3233 529 
Q 2819 -91 2034 -91 
Q 1250 -91 836 529 
Q 422 1150 422 2328 
Q 422 3509 836 4129 
Q 1250 4750 2034 4750 
z
" transform="scale(0.015625)"/>
       </defs>
       <use xlink:href="#DejaVuSans-35"/>
       <use xlink:href="#DejaVuSans-30" x="63.623047"/>
      </g>
     </g>
    </g>
    <g id="ytick_2">
     <g id="line2d_4">
      <g>
       <use xlink:href="#m0d38373b1b" x="79.889062" y="253.359044" style="stroke: #000000; stroke-width: 0.8"/>
      </g>
     </g>
     <g id="text_5">
      <!-- 60 -->
      <g transform="translate(60.164062 257.158262) scale(0.1 -0.1)">
       <defs>
        <path id="DejaVuSans-36" d="M 2113 2584 
Q 1688 2584 1439 2293 
Q 1191 2003 1191 1497 
Q 1191 994 1439 701 
Q 1688 409 2113 409 
Q 2538 409 2786 701 
Q 3034 994 3034 1497 
Q 3034 2003 2786 2293 
Q 2538 2584 2113 2584 
z
M 3366 4563 
L 3366 3988 
Q 3128 4100 2886 4159 
Q 2644 4219 2406 4219 
Q 1781 4219 1451 3797 
Q 1122 3375 1075 2522 
Q 1259 2794 1537 2939 
Q 1816 3084 2150 3084 
Q 2853 3084 3261 2657 
Q 3669 2231 3669 1497 
Q 3669 778 3244 343 
Q 2819 -91 2113 -91 
Q 1303 -91 875 529 
Q 447 1150 447 2328 
Q 447 3434 972 4092 
Q 1497 4750 2381 4750 
Q 2619 4750 2861 4703 
Q 3103 4656 3366 4563 
z
" transform="scale(0.015625)"/>
       </defs>
       <use xlink:href="#DejaVuSans-36"/>
       <use xlink:href="#DejaVuSans-30" x="63.623047"/>
      </g>
     </g>
    </g>
    <g id="ytick_3">
     <g id="line2d_5">
      <g>
       <use xlink:href="#m0d38373b1b" x="79.889062" y="197.965925" style="stroke: #000000; stroke-width: 0.8"/>
      </g>
     </g>
     <g id="text_6">
      <!-- 70 -->
      <g transform="translate(60.164062 201.765143) scale(0.1 -0.1)">
       <defs>
        <path id="DejaVuSans-37" d="M 525 4666 
L 3525 4666 
L 3525 4397 
L 1831 0 
L 1172 0 
L 2766 4134 
L 525 4134 
L 525 4666 
z
" transform="scale(0.015625)"/>
       </defs>
       <use xlink:href="#DejaVuSans-37"/>
       <use xlink:href="#DejaVuSans-30" x="63.623047"/>
      </g>
     </g>
    </g>
    <g id="ytick_4">
     <g id="line2d_6">
      <g>
       <use xlink:href="#m0d38373b1b" x="79.889062" y="142.572805" style="stroke: #000000; stroke-width: 0.8"/>
      </g>
     </g>
     <g id="text_7">
      <!-- 80 -->
      <g transform="translate(60.164062 146.372024) scale(0.1 -0.1)">
       <defs>
        <path id="DejaVuSans-38" d="M 2034 2216 
Q 1584 2216 1326 1975 
Q 1069 1734 1069 1313 
Q 1069 891 1326 650 
Q 1584 409 2034 409 
Q 2484 409 2743 651 
Q 3003 894 3003 1313 
Q 3003 1734 2745 1975 
Q 2488 2216 2034 2216 
z
M 1403 2484 
Q 997 2584 770 2862 
Q 544 3141 544 3541 
Q 544 4100 942 4425 
Q 1341 4750 2034 4750 
Q 2731 4750 3128 4425 
Q 3525 4100 3525 3541 
Q 3525 3141 3298 2862 
Q 3072 2584 2669 2484 
Q 3125 2378 3379 2068 
Q 3634 1759 3634 1313 
Q 3634 634 3220 271 
Q 2806 -91 2034 -91 
Q 1263 -91 848 271 
Q 434 634 434 1313 
Q 434 1759 690 2068 
Q 947 2378 1403 2484 
z
M 1172 3481 
Q 1172 3119 1398 2916 
Q 1625 2713 2034 2713 
Q 2441 2713 2670 2916 
Q 2900 3119 2900 3481 
Q 2900 3844 2670 4047 
Q 2441 4250 2034 4250 
Q 1625 4250 1398 4047 
Q 1172 3844 1172 3481 
z
" transform="scale(0.015625)"/>
       </defs>
       <use xlink:href="#DejaVuSans-38"/>
       <use xlink:href="#DejaVuSans-30" x="63.623047"/>
      </g>
     </g>
    </g>
    <g id="ytick_5">
     <g id="line2d_7">
      <g>
       <use xlink:href="#m0d38373b1b" x="79.889062" y="87.179686" style="stroke: #000000; stroke-width: 0.8"/>
      </g>
     </g>
     <g id="text_8">
      <!-- 90 -->
      <g transform="translate(60.164062 90.978905) scale(0.1 -0.1)">
       <defs>
        <path id="DejaVuSans-39" d="M 703 97 
L 703 672 
Q 941 559 1184 500 
Q 1428 441 1663 441 
Q 2288 441 2617 861 
Q 2947 1281 2994 2138 
Q 2813 1869 2534 1725 
Q 2256 1581 1919 1581 
Q 1219 1581 811 2004 
Q 403 2428 403 3163 
Q 403 3881 828 4315 
Q 1253 4750 1959 4750 
Q 2769 4750 3195 4129 
Q 3622 3509 3622 2328 
Q 3622 1225 3098 567 
Q 2575 -91 1691 -91 
Q 1453 -91 1209 -44 
Q 966 3 703 97 
z
M 1959 2075 
Q 2384 2075 2632 2365 
Q 2881 2656 2881 3163 
Q 2881 3666 2632 3958 
Q 2384 4250 1959 4250 
Q 1534 4250 1286 3958 
Q 1038 3666 1038 3163 
Q 1038 2656 1286 2365 
Q 1534 2075 1959 2075 
z
" transform="scale(0.015625)"/>
       </defs>
       <use xlink:href="#DejaVuSans-39"/>
       <use xlink:href="#DejaVuSans-30" x="63.623047"/>
      </g>
     </g>
    </g>
    <g id="ytick_6">
     <g id="line2d_8">
      <g>
       <use xlink:href="#m0d38373b1b" x="79.889062" y="31.786567" style="stroke: #000000; stroke-width: 0.8"/>
      </g>
     </g>
     <g id="text_9">
      <!-- 100 -->
      <g transform="translate(53.801562 35.585786) scale(0.1 -0.1)">
       <defs>
        <path id="DejaVuSans-31" d="M 794 531 
L 1825 531 
L 1825 4091 
L 703 3866 
L 703 4441 
L 1819 4666 
L 2450 4666 
L 2450 531 
L 3481 531 
L 3481 0 
L 794 0 
L 794 531 
z
" transform="scale(0.015625)"/>
       </defs>
       <use xlink:href="#DejaVuSans-31"/>
       <use xlink:href="#DejaVuSans-30" x="63.623047"/>
       <use xlink:href="#DejaVuSans-30" x="127.246094"/>
      </g>
     </g>
    </g>
    <g id="text_10">
     <!-- Average Correct Rate (%) -->
     <g transform="translate(46.89 283.844375) rotate(-90) scale(0.14 -0.14)">
      <defs>
       <path id="DejaVuSans-76" d="M 191 3500 
L 800 3500 
L 1894 563 
L 2988 3500 
L 3597 3500 
L 2284 0 
L 1503 0 
L 191 3500 
z
" transform="scale(0.015625)"/>
       <path id="DejaVuSans-65" d="M 3597 1894 
L 3597 1613 
L 953 1613 
Q 991 1019 1311 708 
Q 1631 397 2203 397 
Q 2534 397 2845 478 
Q 3156 559 3463 722 
L 3463 178 
Q 3153 47 2828 -22 
Q 2503 -91 2169 -91 
Q 1331 -91 842 396 
Q 353 884 353 1716 
Q 353 2575 817 3079 
Q 1281 3584 2069 3584 
Q 2775 3584 3186 3129 
Q 3597 2675 3597 1894 
z
M 3022 2063 
Q 3016 2534 2758 2815 
Q 2500 3097 2075 3097 
Q 1594 3097 1305 2825 
Q 1016 2553 972 2059 
L 3022 2063 
z
" transform="scale(0.015625)"/>
       <path id="DejaVuSans-61" d="M 2194 1759 
Q 1497 1759 1228 1600 
Q 959 1441 959 1056 
Q 959 750 1161 570 
Q 1363 391 1709 391 
Q 2188 391 2477 730 
Q 2766 1069 2766 1631 
L 2766 1759 
L 2194 1759 
z
M 3341 1997 
L 3341 0 
L 2766 0 
L 2766 531 
Q 2569 213 2275 61 
Q 1981 -91 1556 -91 
Q 1019 -91 701 211 
Q 384 513 384 1019 
Q 384 1609 779 1909 
Q 1175 2209 1959 2209 
L 2766 2209 
L 2766 2266 
Q 2766 2663 2505 2880 
Q 2244 3097 1772 3097 
Q 1472 3097 1187 3025 
Q 903 2953 641 2809 
L 641 3341 
Q 956 3463 1253 3523 
Q 1550 3584 1831 3584 
Q 2591 3584 2966 3190 
Q 3341 2797 3341 1997 
z
" transform="scale(0.015625)"/>
       <path id="DejaVuSans-67" d="M 2906 1791 
Q 2906 2416 2648 2759 
Q 2391 3103 1925 3103 
Q 1463 3103 1205 2759 
Q 947 2416 947 1791 
Q 947 1169 1205 825 
Q 1463 481 1925 481 
Q 2391 481 2648 825 
Q 2906 1169 2906 1791 
z
M 3481 434 
Q 3481 -459 3084 -895 
Q 2688 -1331 1869 -1331 
Q 1566 -1331 1297 -1286 
Q 1028 -1241 775 -1147 
L 775 -588 
Q 1028 -725 1275 -790 
Q 1522 -856 1778 -856 
Q 2344 -856 2625 -561 
Q 2906 -266 2906 331 
L 2906 616 
Q 2728 306 2450 153 
Q 2172 0 1784 0 
Q 1141 0 747 490 
Q 353 981 353 1791 
Q 353 2603 747 3093 
Q 1141 3584 1784 3584 
Q 2172 3584 2450 3431 
Q 2728 3278 2906 2969 
L 2906 3500 
L 3481 3500 
L 3481 434 
z
" transform="scale(0.015625)"/>
       <path id="DejaVuSans-20" transform="scale(0.015625)"/>
       <path id="DejaVuSans-63" d="M 3122 3366 
L 3122 2828 
Q 2878 2963 2633 3030 
Q 2388 3097 2138 3097 
Q 1578 3097 1268 2742 
Q 959 2388 959 1747 
Q 959 1106 1268 751 
Q 1578 397 2138 397 
Q 2388 397 2633 464 
Q 2878 531 3122 666 
L 3122 134 
Q 2881 22 2623 -34 
Q 2366 -91 2075 -91 
Q 1284 -91 818 406 
Q 353 903 353 1747 
Q 353 2603 823 3093 
Q 1294 3584 2113 3584 
Q 2378 3584 2631 3529 
Q 2884 3475 3122 3366 
z
" transform="scale(0.015625)"/>
       <path id="DejaVuSans-52" d="M 2841 2188 
Q 3044 2119 3236 1894 
Q 3428 1669 3622 1275 
L 4263 0 
L 3584 0 
L 2988 1197 
Q 2756 1666 2539 1819 
Q 2322 1972 1947 1972 
L 1259 1972 
L 1259 0 
L 628 0 
L 628 4666 
L 2053 4666 
Q 2853 4666 3247 4331 
Q 3641 3997 3641 3322 
Q 3641 2881 3436 2590 
Q 3231 2300 2841 2188 
z
M 1259 4147 
L 1259 2491 
L 2053 2491 
Q 2509 2491 2742 2702 
Q 2975 2913 2975 3322 
Q 2975 3731 2742 3939 
Q 2509 4147 2053 4147 
L 1259 4147 
z
" transform="scale(0.015625)"/>
       <path id="DejaVuSans-28" d="M 1984 4856 
Q 1566 4138 1362 3434 
Q 1159 2731 1159 2009 
Q 1159 1288 1364 580 
Q 1569 -128 1984 -844 
L 1484 -844 
Q 1016 -109 783 600 
Q 550 1309 550 2009 
Q 550 2706 781 3412 
Q 1013 4119 1484 4856 
L 1984 4856 
z
" transform="scale(0.015625)"/>
       <path id="DejaVuSans-25" d="M 4653 2053 
Q 4381 2053 4226 1822 
Q 4072 1591 4072 1178 
Q 4072 772 4226 539 
Q 4381 306 4653 306 
Q 4919 306 5073 539 
Q 5228 772 5228 1178 
Q 5228 1588 5073 1820 
Q 4919 2053 4653 2053 
z
M 4653 2450 
Q 5147 2450 5437 2106 
Q 5728 1763 5728 1178 
Q 5728 594 5436 251 
Q 5144 -91 4653 -91 
Q 4153 -91 3862 251 
Q 3572 594 3572 1178 
Q 3572 1766 3864 2108 
Q 4156 2450 4653 2450 
z
M 1428 4353 
Q 1159 4353 1004 4120 
Q 850 3888 850 3481 
Q 850 3069 1003 2837 
Q 1156 2606 1428 2606 
Q 1700 2606 1854 2837 
Q 2009 3069 2009 3481 
Q 2009 3884 1853 4118 
Q 1697 4353 1428 4353 
z
M 4250 4750 
L 4750 4750 
L 1831 -91 
L 1331 -91 
L 4250 4750 
z
M 1428 4750 
Q 1922 4750 2215 4408 
Q 2509 4066 2509 3481 
Q 2509 2891 2217 2550 
Q 1925 2209 1428 2209 
Q 931 2209 642 2551 
Q 353 2894 353 3481 
Q 353 4063 643 4406 
Q 934 4750 1428 4750 
z
" transform="scale(0.015625)"/>
       <path id="DejaVuSans-29" d="M 513 4856 
L 1013 4856 
Q 1481 4119 1714 3412 
Q 1947 2706 1947 2009 
Q 1947 1309 1714 600 
Q 1481 -109 1013 -844 
L 513 -844 
Q 928 -128 1133 580 
Q 1338 1288 1338 2009 
Q 1338 2731 1133 3434 
Q 928 4138 513 4856 
z
" transform="scale(0.015625)"/>
      </defs>
      <use xlink:href="#DejaVuSans-41"/>
      <use xlink:href="#DejaVuSans-76" x="62.533203"/>
      <use xlink:href="#DejaVuSans-65" x="121.712891"/>
      <use xlink:href="#DejaVuSans-72" x="183.236328"/>
      <use xlink:href="#DejaVuSans-61" x="224.349609"/>
      <use xlink:href="#DejaVuSans-67" x="285.628906"/>
      <use xlink:href="#DejaVuSans-65" x="349.105469"/>
      <use xlink:href="#DejaVuSans-20" x="410.628906"/>
      <use xlink:href="#DejaVuSans-43" x="442.416016"/>
      <use xlink:href="#DejaVuSans-6f" x="512.240234"/>
      <use xlink:href="#DejaVuSans-72" x="573.421875"/>
      <use xlink:href="#DejaVuSans-72" x="612.785156"/>
      <use xlink:href="#DejaVuSans-65" x="651.648438"/>
      <use xlink:href="#DejaVuSans-63" x="713.171875"/>
      <use xlink:href="#DejaVuSans-74" x="768.152344"/>
      <use xlink:href="#DejaVuSans-20" x="807.361328"/>
      <use xlink:href="#DejaVuSans-52" x="839.148438"/>
      <use xlink:href="#DejaVuSans-61" x="906.380859"/>
      <use xlink:href="#DejaVuSans-74" x="967.660156"/>
      <use xlink:href="#DejaVuSans-65" x="1006.869141"/>
      <use xlink:href="#DejaVuSans-20" x="1068.392578"/>
      <use xlink:href="#DejaVuSans-28" x="1100.179688"/>
      <use xlink:href="#DejaVuSans-25" x="1139.193359"/>
      <use xlink:href="#DejaVuSans-29" x="1234.212891"/>
     </g>
    </g>
   </g>
   <g id="patch_3">
    <path d="M 177.539062 216.294101 
L 205.439063 216.294101 
L 205.439063 144.591498 
L 177.539062 144.591498 
L 177.539062 216.294101 
z
" clip-path="url(#pe59afca139)" style="fill: #ffffff; stroke: #000000; stroke-linejoin: miter"/>
   </g>
   <g id="line2d_9">
    <path d="M 191.489063 216.294101 
L 191.489063 281.499255 
" clip-path="url(#pe59afca139)" style="fill: none; stroke: #000000; stroke-linecap: square"/>
   </g>
   <g id="line2d_10">
    <path d="M 191.489063 144.591498 
L 191.489063 96.490781 
" clip-path="url(#pe59afca139)" style="fill: none; stroke: #000000; stroke-linecap: square"/>
   </g>
   <g id="line2d_11">
    <path d="M 184.514063 281.499255 
L 198.464063 281.499255 
" clip-path="url(#pe59afca139)" style="fill: none; stroke: #000000; stroke-linecap: square"/>
   </g>
   <g id="line2d_12">
    <path d="M 184.514063 96.490781 
L 198.464063 96.490781 
" clip-path="url(#pe59afca139)" style="fill: none; stroke: #000000; stroke-linecap: square"/>
   </g>
   <g id="patch_4">
    <path d="M 289.139063 169.007296 
L 317.039062 169.007296 
L 317.039062 102.698926 
L 289.139063 102.698926 
L 289.139063 169.007296 
z
" clip-path="url(#pe59afca139)" style="fill: #ffffff; stroke: #000000; stroke-linejoin: miter"/>
   </g>
   <g id="line2d_13">
    <path d="M 303.089063 169.007296 
L 303.089063 207.289519 
" clip-path="url(#pe59afca139)" style="fill: none; stroke: #000000; stroke-linecap: square"/>
   </g>
   <g id="line2d_14">
    <path d="M 303.089063 102.698926 
L 303.089063 43.516875 
" clip-path="url(#pe59afca139)" style="fill: none; stroke: #000000; stroke-linecap: square"/>
   </g>
   <g id="line2d_15">
    <path d="M 296.114063 207.289519 
L 310.064063 207.289519 
" clip-path="url(#pe59afca139)" style="fill: none; stroke: #000000; stroke-linecap: square"/>
   </g>
   <g id="line2d_16">
    <path d="M 296.114063 43.516875 
L 310.064063 43.516875 
" clip-path="url(#pe59afca139)" style="fill: none; stroke: #000000; stroke-linecap: square"/>
   </g>
   <g id="line2d_17">
    <path d="M 177.539062 168.535233 
L 205.439063 168.535233 
" clip-path="url(#pe59afca139)" style="fill: none; stroke: #000000"/>
   </g>
   <g id="line2d_18">
    <path d="M 289.139063 124.591793 
L 317.039062 124.591793 
" clip-path="url(#pe59afca139)" style="fill: none; stroke: #000000"/>
   </g>
   <g id="patch_5">
    <path d="M 79.889062 361.036875 
L 79.889062 28.396875 
" style="fill: none; stroke: #000000; stroke-width: 0.8; stroke-linejoin: miter; stroke-linecap: square"/>
   </g>
   <g id="patch_6">
    <path d="M 414.689063 361.036875 
L 414.689063 28.396875 
" style="fill: none; stroke: #000000; stroke-width: 0.8; stroke-linejoin: miter; stroke-linecap: square"/>
   </g>
   <g id="patch_7">
    <path d="M 79.889062 361.036875 
L 414.689063 361.036875 
" style="fill: none; stroke: #000000; stroke-width: 0.8; stroke-linejoin: miter; stroke-linecap: square"/>
   </g>
   <g id="patch_8">
    <path d="M 79.889062 28.396875 
L 414.689063 28.396875 
" style="fill: none; stroke: #000000; stroke-width: 0.8; stroke-linejoin: miter; stroke-linecap: square"/>
   </g>
   <g id="PathCollection_1">
    <defs>
     <path id="m5efbede9b0" d="M 0 3 
C 0.795609 3 1.55874 2.683901 2.12132 2.12132 
C 2.683901 1.55874 3 0.795609 3 0 
C 3 -0.795609 2.683901 -1.55874 2.12132 -2.12132 
C 1.55874 -2.683901 0.795609 -3 0 -3 
C -0.795609 -3 -1.55874 -2.683901 -2.12132 -2.12132 
C -2.683901 -1.55874 -3 -0.795609 -3 0 
C -3 0.795609 -2.683901 1.55874 -2.12132 2.12132 
C -1.55874 2.683901 -0.795609 3 0 3 
z
" style="stroke: #18c1f5; stroke-opacity: 0.8"/>
    </defs>
    <g clip-path="url(#pe59afca139)">
     <use xlink:href="#m5efbede9b0" x="194.43405" y="156.69262" style="fill: #18c1f5; fill-opacity: 0.8; stroke: #18c1f5; stroke-opacity: 0.8"/>
     <use xlink:href="#m5efbede9b0" x="193.468487" y="279.132953" style="fill: #18c1f5; fill-opacity: 0.8; stroke: #18c1f5; stroke-opacity: 0.8"/>
     <use xlink:href="#m5efbede9b0" x="191.987108" y="192.548932" style="fill: #18c1f5; fill-opacity: 0.8; stroke: #18c1f5; stroke-opacity: 0.8"/>
     <use xlink:href="#m5efbede9b0" x="190.792924" y="164.164555" style="fill: #18c1f5; fill-opacity: 0.8; stroke: #18c1f5; stroke-opacity: 0.8"/>
     <use xlink:href="#m5efbede9b0" x="194.602386" y="256.08969" style="fill: #18c1f5; fill-opacity: 0.8; stroke: #18c1f5; stroke-opacity: 0.8"/>
     <use xlink:href="#m5efbede9b0" x="191.336645" y="140.025995" style="fill: #18c1f5; fill-opacity: 0.8; stroke: #18c1f5; stroke-opacity: 0.8"/>
     <use xlink:href="#m5efbede9b0" x="191.527078" y="98.410594" style="fill: #18c1f5; fill-opacity: 0.8; stroke: #18c1f5; stroke-opacity: 0.8"/>
     <use xlink:href="#m5efbede9b0" x="196.510068" y="165.03462" style="fill: #18c1f5; fill-opacity: 0.8; stroke: #18c1f5; stroke-opacity: 0.8"/>
     <use xlink:href="#m5efbede9b0" x="191.271411" y="280.729761" style="fill: #18c1f5; fill-opacity: 0.8; stroke: #18c1f5; stroke-opacity: 0.8"/>
     <use xlink:href="#m5efbede9b0" x="190.931479" y="227.792989" style="fill: #18c1f5; fill-opacity: 0.8; stroke: #18c1f5; stroke-opacity: 0.8"/>
     <use xlink:href="#m5efbede9b0" x="196.164222" y="229.427065" style="fill: #18c1f5; fill-opacity: 0.8; stroke: #18c1f5; stroke-opacity: 0.8"/>
     <use xlink:href="#m5efbede9b0" x="185.884951" y="120.778791" style="fill: #18c1f5; fill-opacity: 0.8; stroke: #18c1f5; stroke-opacity: 0.8"/>
     <use xlink:href="#m5efbede9b0" x="189.965517" y="183.491341" style="fill: #18c1f5; fill-opacity: 0.8; stroke: #18c1f5; stroke-opacity: 0.8"/>
     <use xlink:href="#m5efbede9b0" x="194.645546" y="281.499255" style="fill: #18c1f5; fill-opacity: 0.8; stroke: #18c1f5; stroke-opacity: 0.8"/>
     <use xlink:href="#m5efbede9b0" x="188.182869" y="345.916875" style="fill: #18c1f5; fill-opacity: 0.8; stroke: #18c1f5; stroke-opacity: 0.8"/>
     <use xlink:href="#m5efbede9b0" x="193.33812" y="243.848392" style="fill: #18c1f5; fill-opacity: 0.8; stroke: #18c1f5; stroke-opacity: 0.8"/>
     <use xlink:href="#m5efbede9b0" x="191.089881" y="149.157001" style="fill: #18c1f5; fill-opacity: 0.8; stroke: #18c1f5; stroke-opacity: 0.8"/>
     <use xlink:href="#m5efbede9b0" x="187.18634" y="158.246743" style="fill: #18c1f5; fill-opacity: 0.8; stroke: #18c1f5; stroke-opacity: 0.8"/>
     <use xlink:href="#m5efbede9b0" x="193.601124" y="200.782524" style="fill: #18c1f5; fill-opacity: 0.8; stroke: #18c1f5; stroke-opacity: 0.8"/>
     <use xlink:href="#m5efbede9b0" x="185.618819" y="124.43698" style="fill: #18c1f5; fill-opacity: 0.8; stroke: #18c1f5; stroke-opacity: 0.8"/>
     <use xlink:href="#m5efbede9b0" x="191.313063" y="192.905976" style="fill: #18c1f5; fill-opacity: 0.8; stroke: #18c1f5; stroke-opacity: 0.8"/>
     <use xlink:href="#m5efbede9b0" x="196.730075" y="108.721455" style="fill: #18c1f5; fill-opacity: 0.8; stroke: #18c1f5; stroke-opacity: 0.8"/>
     <use xlink:href="#m5efbede9b0" x="187.011686" y="149.209769" style="fill: #18c1f5; fill-opacity: 0.8; stroke: #18c1f5; stroke-opacity: 0.8"/>
     <use xlink:href="#m5efbede9b0" x="194.327255" y="174.226016" style="fill: #18c1f5; fill-opacity: 0.8; stroke: #18c1f5; stroke-opacity: 0.8"/>
     <use xlink:href="#m5efbede9b0" x="197.650327" y="96.490781" style="fill: #18c1f5; fill-opacity: 0.8; stroke: #18c1f5; stroke-opacity: 0.8"/>
     <use xlink:href="#m5efbede9b0" x="193.333694" y="204.795213" style="fill: #18c1f5; fill-opacity: 0.8; stroke: #18c1f5; stroke-opacity: 0.8"/>
     <use xlink:href="#m5efbede9b0" x="198.299804" y="127.396608" style="fill: #18c1f5; fill-opacity: 0.8; stroke: #18c1f5; stroke-opacity: 0.8"/>
     <use xlink:href="#m5efbede9b0" x="185.391605" y="168.535233" style="fill: #18c1f5; fill-opacity: 0.8; stroke: #18c1f5; stroke-opacity: 0.8"/>
     <use xlink:href="#m5efbede9b0" x="191.422195" y="189.852791" style="fill: #18c1f5; fill-opacity: 0.8; stroke: #18c1f5; stroke-opacity: 0.8"/>
     <use xlink:href="#m5efbede9b0" x="187.537315" y="135.944569" style="fill: #18c1f5; fill-opacity: 0.8; stroke: #18c1f5; stroke-opacity: 0.8"/>
     <use xlink:href="#m5efbede9b0" x="196.331644" y="119.11219" style="fill: #18c1f5; fill-opacity: 0.8; stroke: #18c1f5; stroke-opacity: 0.8"/>
     <use xlink:href="#m5efbede9b0" x="189.306558" y="164.472411" style="fill: #18c1f5; fill-opacity: 0.8; stroke: #18c1f5; stroke-opacity: 0.8"/>
     <use xlink:href="#m5efbede9b0" x="188.408572" y="155.826374" style="fill: #18c1f5; fill-opacity: 0.8; stroke: #18c1f5; stroke-opacity: 0.8"/>
     <use xlink:href="#m5efbede9b0" x="196.358185" y="173.082785" style="fill: #18c1f5; fill-opacity: 0.8; stroke: #18c1f5; stroke-opacity: 0.8"/>
     <use xlink:href="#m5efbede9b0" x="196.180037" y="238.012032" style="fill: #18c1f5; fill-opacity: 0.8; stroke: #18c1f5; stroke-opacity: 0.8"/>
    </g>
   </g>
   <g id="PathCollection_2">
    <defs>
     <path id="m7ce3af106b" d="M 0 3 
C 0.795609 3 1.55874 2.683901 2.12132 2.12132 
C 2.683901 1.55874 3 0.795609 3 0 
C 3 -0.795609 2.683901 -1.55874 2.12132 -2.12132 
C 1.55874 -2.683901 0.795609 -3 0 -3 
C -0.795609 -3 -1.55874 -2.683901 -2.12132 -2.12132 
C -2.683901 -1.55874 -3 -0.795609 -3 0 
C -3 0.795609 -2.683901 1.55874 -2.12132 2.12132 
C -1.55874 2.683901 -0.795609 3 0 3 
z
" style="stroke: #36d15a; stroke-opacity: 0.8"/>
    </defs>
    <g clip-path="url(#pe59afca139)">
     <use xlink:href="#m7ce3af106b" x="309.556332" y="104.67225" style="fill: #36d15a; fill-opacity: 0.8; stroke: #36d15a; stroke-opacity: 0.8"/>
     <use xlink:href="#m7ce3af106b" x="300.578352" y="135.894202" style="fill: #36d15a; fill-opacity: 0.8; stroke: #36d15a; stroke-opacity: 0.8"/>
     <use xlink:href="#m7ce3af106b" x="303.834089" y="197.965925" style="fill: #36d15a; fill-opacity: 0.8; stroke: #36d15a; stroke-opacity: 0.8"/>
     <use xlink:href="#m7ce3af106b" x="300.048109" y="100.725602" style="fill: #36d15a; fill-opacity: 0.8; stroke: #36d15a; stroke-opacity: 0.8"/>
     <use xlink:href="#m7ce3af106b" x="309.556316" y="177.763728" style="fill: #36d15a; fill-opacity: 0.8; stroke: #36d15a; stroke-opacity: 0.8"/>
     <use xlink:href="#m7ce3af106b" x="301.97167" y="124.591793" style="fill: #36d15a; fill-opacity: 0.8; stroke: #36d15a; stroke-opacity: 0.8"/>
     <use xlink:href="#m7ce3af106b" x="303.299681" y="87.528071" style="fill: #36d15a; fill-opacity: 0.8; stroke: #36d15a; stroke-opacity: 0.8"/>
     <use xlink:href="#m7ce3af106b" x="302.712101" y="77.121089" style="fill: #36d15a; fill-opacity: 0.8; stroke: #36d15a; stroke-opacity: 0.8"/>
     <use xlink:href="#m7ce3af106b" x="304.529539" y="141.475912" style="fill: #36d15a; fill-opacity: 0.8; stroke: #36d15a; stroke-opacity: 0.8"/>
     <use xlink:href="#m7ce3af106b" x="303.662436" y="43.516875" style="fill: #36d15a; fill-opacity: 0.8; stroke: #36d15a; stroke-opacity: 0.8"/>
     <use xlink:href="#m7ce3af106b" x="303.196426" y="161.577976" style="fill: #36d15a; fill-opacity: 0.8; stroke: #36d15a; stroke-opacity: 0.8"/>
     <use xlink:href="#m7ce3af106b" x="297.262496" y="112.77066" style="fill: #36d15a; fill-opacity: 0.8; stroke: #36d15a; stroke-opacity: 0.8"/>
     <use xlink:href="#m7ce3af106b" x="300.098427" y="155.692228" style="fill: #36d15a; fill-opacity: 0.8; stroke: #36d15a; stroke-opacity: 0.8"/>
     <use xlink:href="#m7ce3af106b" x="302.488206" y="207.289519" style="fill: #36d15a; fill-opacity: 0.8; stroke: #36d15a; stroke-opacity: 0.8"/>
     <use xlink:href="#m7ce3af106b" x="309.036054" y="194.880366" style="fill: #36d15a; fill-opacity: 0.8; stroke: #36d15a; stroke-opacity: 0.8"/>
     <use xlink:href="#m7ce3af106b" x="296.522805" y="106.195235" style="fill: #36d15a; fill-opacity: 0.8; stroke: #36d15a; stroke-opacity: 0.8"/>
     <use xlink:href="#m7ce3af106b" x="302.503408" y="74.711125" style="fill: #36d15a; fill-opacity: 0.8; stroke: #36d15a; stroke-opacity: 0.8"/>
     <use xlink:href="#m7ce3af106b" x="303.547355" y="176.436615" style="fill: #36d15a; fill-opacity: 0.8; stroke: #36d15a; stroke-opacity: 0.8"/>
     <use xlink:href="#m7ce3af106b" x="300.414027" y="86.207877" style="fill: #36d15a; fill-opacity: 0.8; stroke: #36d15a; stroke-opacity: 0.8"/>
     <use xlink:href="#m7ce3af106b" x="296.233453" y="304.034987" style="fill: #36d15a; fill-opacity: 0.8; stroke: #36d15a; stroke-opacity: 0.8"/>
     <use xlink:href="#m7ce3af106b" x="305.723171" y="142.909542" style="fill: #36d15a; fill-opacity: 0.8; stroke: #36d15a; stroke-opacity: 0.8"/>
     <use xlink:href="#m7ce3af106b" x="308.733506" y="126.963748" style="fill: #36d15a; fill-opacity: 0.8; stroke: #36d15a; stroke-opacity: 0.8"/>
     <use xlink:href="#m7ce3af106b" x="303.310055" y="200.960147" style="fill: #36d15a; fill-opacity: 0.8; stroke: #36d15a; stroke-opacity: 0.8"/>
     <use xlink:href="#m7ce3af106b" x="305.95859" y="108.316535" style="fill: #36d15a; fill-opacity: 0.8; stroke: #36d15a; stroke-opacity: 0.8"/>
     <use xlink:href="#m7ce3af106b" x="304.058455" y="116.174522" style="fill: #36d15a; fill-opacity: 0.8; stroke: #36d15a; stroke-opacity: 0.8"/>
     <use xlink:href="#m7ce3af106b" x="303.20096" y="60.339722" style="fill: #36d15a; fill-opacity: 0.8; stroke: #36d15a; stroke-opacity: 0.8"/>
     <use xlink:href="#m7ce3af106b" x="297.807149" y="122.864202" style="fill: #36d15a; fill-opacity: 0.8; stroke: #36d15a; stroke-opacity: 0.8"/>
     <use xlink:href="#m7ce3af106b" x="304.733358" y="195.144291" style="fill: #36d15a; fill-opacity: 0.8; stroke: #36d15a; stroke-opacity: 0.8"/>
     <use xlink:href="#m7ce3af106b" x="298.646417" y="121.613247" style="fill: #36d15a; fill-opacity: 0.8; stroke: #36d15a; stroke-opacity: 0.8"/>
     <use xlink:href="#m7ce3af106b" x="296.890375" y="86.318654" style="fill: #36d15a; fill-opacity: 0.8; stroke: #36d15a; stroke-opacity: 0.8"/>
     <use xlink:href="#m7ce3af106b" x="307.837768" y="152.206391" style="fill: #36d15a; fill-opacity: 0.8; stroke: #36d15a; stroke-opacity: 0.8"/>
    </g>
   </g>
   <g id="text_11">
    <!-- Average Correct Rate Distribution: Ctrl vs. CASK -->
    <g transform="translate(7.2 22.396875) scale(0.2 -0.2)">
     <defs>
      <path id="DejaVuSans-44" d="M 1259 4147 
L 1259 519 
L 2022 519 
Q 2988 519 3436 956 
Q 3884 1394 3884 2338 
Q 3884 3275 3436 3711 
Q 2988 4147 2022 4147 
L 1259 4147 
z
M 628 4666 
L 1925 4666 
Q 3281 4666 3915 4102 
Q 4550 3538 4550 2338 
Q 4550 1131 3912 565 
Q 3275 0 1925 0 
L 628 0 
L 628 4666 
z
" transform="scale(0.015625)"/>
      <path id="DejaVuSans-69" d="M 603 3500 
L 1178 3500 
L 1178 0 
L 603 0 
L 603 3500 
z
M 603 4863 
L 1178 4863 
L 1178 4134 
L 603 4134 
L 603 4863 
z
" transform="scale(0.015625)"/>
      <path id="DejaVuSans-62" d="M 3116 1747 
Q 3116 2381 2855 2742 
Q 2594 3103 2138 3103 
Q 1681 3103 1420 2742 
Q 1159 2381 1159 1747 
Q 1159 1113 1420 752 
Q 1681 391 2138 391 
Q 2594 391 2855 752 
Q 3116 1113 3116 1747 
z
M 1159 2969 
Q 1341 3281 1617 3432 
Q 1894 3584 2278 3584 
Q 2916 3584 3314 3078 
Q 3713 2572 3713 1747 
Q 3713 922 3314 415 
Q 2916 -91 2278 -91 
Q 1894 -91 1617 61 
Q 1341 213 1159 525 
L 1159 0 
L 581 0 
L 581 4863 
L 1159 4863 
L 1159 2969 
z
" transform="scale(0.015625)"/>
      <path id="DejaVuSans-6e" d="M 3513 2113 
L 3513 0 
L 2938 0 
L 2938 2094 
Q 2938 2591 2744 2837 
Q 2550 3084 2163 3084 
Q 1697 3084 1428 2787 
Q 1159 2491 1159 1978 
L 1159 0 
L 581 0 
L 581 3500 
L 1159 3500 
L 1159 2956 
Q 1366 3272 1645 3428 
Q 1925 3584 2291 3584 
Q 2894 3584 3203 3211 
Q 3513 2838 3513 2113 
z
" transform="scale(0.015625)"/>
      <path id="DejaVuSans-3a" d="M 750 794 
L 1409 794 
L 1409 0 
L 750 0 
L 750 794 
z
M 750 3309 
L 1409 3309 
L 1409 2516 
L 750 2516 
L 750 3309 
z
" transform="scale(0.015625)"/>
      <path id="DejaVuSans-2e" d="M 684 794 
L 1344 794 
L 1344 0 
L 684 0 
L 684 794 
z
" transform="scale(0.015625)"/>
     </defs>
     <use xlink:href="#DejaVuSans-41"/>
     <use xlink:href="#DejaVuSans-76" x="62.533203"/>
     <use xlink:href="#DejaVuSans-65" x="121.712891"/>
     <use xlink:href="#DejaVuSans-72" x="183.236328"/>
     <use xlink:href="#DejaVuSans-61" x="224.349609"/>
     <use xlink:href="#DejaVuSans-67" x="285.628906"/>
     <use xlink:href="#DejaVuSans-65" x="349.105469"/>
     <use xlink:href="#DejaVuSans-20" x="410.628906"/>
     <use xlink:href="#DejaVuSans-43" x="442.416016"/>
     <use xlink:href="#DejaVuSans-6f" x="512.240234"/>
     <use xlink:href="#DejaVuSans-72" x="573.421875"/>
     <use xlink:href="#DejaVuSans-72" x="612.785156"/>
     <use xlink:href="#DejaVuSans-65" x="651.648438"/>
     <use xlink:href="#DejaVuSans-63" x="713.171875"/>
     <use xlink:href="#DejaVuSans-74" x="768.152344"/>
     <use xlink:href="#DejaVuSans-20" x="807.361328"/>
     <use xlink:href="#DejaVuSans-52" x="839.148438"/>
     <use xlink:href="#DejaVuSans-61" x="906.380859"/>
     <use xlink:href="#DejaVuSans-74" x="967.660156"/>
     <use xlink:href="#DejaVuSans-65" x="1006.869141"/>
     <use xlink:href="#DejaVuSans-20" x="1068.392578"/>
     <use xlink:href="#DejaVuSans-44" x="1100.179688"/>
     <use xlink:href="#DejaVuSans-69" x="1177.181641"/>
     <use xlink:href="#DejaVuSans-73" x="1204.964844"/>
     <use xlink:href="#DejaVuSans-74" x="1257.064453"/>
     <use xlink:href="#DejaVuSans-72" x="1296.273438"/>
     <use xlink:href="#DejaVuSans-69" x="1337.386719"/>
     <use xlink:href="#DejaVuSans-62" x="1365.169922"/>
     <use xlink:href="#DejaVuSans-75" x="1428.646484"/>
     <use xlink:href="#DejaVuSans-74" x="1492.025391"/>
     <use xlink:href="#DejaVuSans-69" x="1531.234375"/>
     <use xlink:href="#DejaVuSans-6f" x="1559.017578"/>
     <use xlink:href="#DejaVuSans-6e" x="1620.199219"/>
     <use xlink:href="#DejaVuSans-3a" x="1683.578125"/>
     <use xlink:href="#DejaVuSans-20" x="1717.269531"/>
     <use xlink:href="#DejaVuSans-43" x="1749.056641"/>
     <use xlink:href="#DejaVuSans-74" x="1818.880859"/>
     <use xlink:href="#DejaVuSans-72" x="1858.089844"/>
     <use xlink:href="#DejaVuSans-6c" x="1899.203125"/>
     <use xlink:href="#DejaVuSans-20" x="1926.986328"/>
     <use xlink:href="#DejaVuSans-76" x="1958.773438"/>
     <use xlink:href="#DejaVuSans-73" x="2017.953125"/>
     <use xlink:href="#DejaVuSans-2e" x="2070.052734"/>
     <use xlink:href="#DejaVuSans-20" x="2101.839844"/>
     <use xlink:href="#DejaVuSans-43" x="2133.626953"/>
     <use xlink:href="#DejaVuSans-41" x="2203.451172"/>
     <use xlink:href="#DejaVuSans-53" x="2271.859375"/>
     <use xlink:href="#DejaVuSans-4b" x="2335.335938"/>
    </g>
   </g>
   <g id="legend_1">
    <g id="patch_9">
     <path d="M 86.889062 65.753125 
L 184.042188 65.753125 
Q 186.042188 65.753125 186.042188 63.753125 
L 186.042188 35.396875 
Q 186.042188 33.396875 184.042188 33.396875 
L 86.889062 33.396875 
Q 84.889062 33.396875 84.889062 35.396875 
L 84.889062 63.753125 
Q 84.889062 65.753125 86.889062 65.753125 
z
" style="fill: #ffffff; opacity: 0.8; stroke: #cccccc; stroke-linejoin: miter"/>
    </g>
    <g id="patch_10">
     <path d="M 88.889062 44.995312 
L 108.889062 44.995312 
L 108.889062 37.995312 
L 88.889062 37.995312 
z
" style="fill: #38bcf5; opacity: 0.6; stroke: #38bcf5; stroke-linejoin: miter"/>
    </g>
    <g id="text_12">
     <!-- Ctrl (n=35) -->
     <g transform="translate(116.889062 44.995312) scale(0.1 -0.1)">
      <defs>
       <path id="DejaVuSans-3d" d="M 678 2906 
L 4684 2906 
L 4684 2381 
L 678 2381 
L 678 2906 
z
M 678 1631 
L 4684 1631 
L 4684 1100 
L 678 1100 
L 678 1631 
z
" transform="scale(0.015625)"/>
       <path id="DejaVuSans-33" d="M 2597 2516 
Q 3050 2419 3304 2112 
Q 3559 1806 3559 1356 
Q 3559 666 3084 287 
Q 2609 -91 1734 -91 
Q 1441 -91 1130 -33 
Q 819 25 488 141 
L 488 750 
Q 750 597 1062 519 
Q 1375 441 1716 441 
Q 2309 441 2620 675 
Q 2931 909 2931 1356 
Q 2931 1769 2642 2001 
Q 2353 2234 1838 2234 
L 1294 2234 
L 1294 2753 
L 1863 2753 
Q 2328 2753 2575 2939 
Q 2822 3125 2822 3475 
Q 2822 3834 2567 4026 
Q 2313 4219 1838 4219 
Q 1578 4219 1281 4162 
Q 984 4106 628 3988 
L 628 4550 
Q 988 4650 1302 4700 
Q 1616 4750 1894 4750 
Q 2613 4750 3031 4423 
Q 3450 4097 3450 3541 
Q 3450 3153 3228 2886 
Q 3006 2619 2597 2516 
z
" transform="scale(0.015625)"/>
      </defs>
      <use xlink:href="#DejaVuSans-43"/>
      <use xlink:href="#DejaVuSans-74" x="69.824219"/>
      <use xlink:href="#DejaVuSans-72" x="109.033203"/>
      <use xlink:href="#DejaVuSans-6c" x="150.146484"/>
      <use xlink:href="#DejaVuSans-20" x="177.929688"/>
      <use xlink:href="#DejaVuSans-28" x="209.716797"/>
      <use xlink:href="#DejaVuSans-6e" x="248.730469"/>
      <use xlink:href="#DejaVuSans-3d" x="312.109375"/>
      <use xlink:href="#DejaVuSans-33" x="395.898438"/>
      <use xlink:href="#DejaVuSans-35" x="459.521484"/>
      <use xlink:href="#DejaVuSans-29" x="523.144531"/>
     </g>
    </g>
    <g id="patch_11">
     <path d="M 88.889062 59.673437 
L 108.889062 59.673437 
L 108.889062 52.673437 
L 88.889062 52.673437 
z
" style="fill: #38f5a6; opacity: 0.6; stroke: #38f5a6; stroke-linejoin: miter"/>
    </g>
    <g id="text_13">
     <!-- CASK (n=31) -->
     <g transform="translate(116.889062 59.673437) scale(0.1 -0.1)">
      <use xlink:href="#DejaVuSans-43"/>
      <use xlink:href="#DejaVuSans-41" x="69.824219"/>
      <use xlink:href="#DejaVuSans-53" x="138.232422"/>
      <use xlink:href="#DejaVuSans-4b" x="201.708984"/>
      <use xlink:href="#DejaVuSans-20" x="267.285156"/>
      <use xlink:href="#DejaVuSans-28" x="299.072266"/>
      <use xlink:href="#DejaVuSans-6e" x="338.085938"/>
      <use xlink:href="#DejaVuSans-3d" x="401.464844"/>
      <use xlink:href="#DejaVuSans-33" x="485.253906"/>
      <use xlink:href="#DejaVuSans-31" x="548.876953"/>
      <use xlink:href="#DejaVuSans-29" x="612.5"/>
     </g>
    </g>
   </g>
  </g>
 </g>
 <defs>
  <clipPath id="pe59afca139">
   <rect x="79.889062" y="28.396875" width="334.8" height="332.64"/>
  </clipPath>
 </defs>
</svg>
