<?xml version="1.0" encoding="utf-8" standalone="no"?>
<!DOCTYPE svg PUBLIC "-//W3C//DTD SVG 1.1//EN"
  "http://www.w3.org/Graphics/SVG/1.1/DTD/svg11.dtd">
<svg xmlns:xlink="http://www.w3.org/1999/xlink" width="1144.995pt" height="424.355625pt" viewBox="0 0 1144.995 424.355625" xmlns="http://www.w3.org/2000/svg" version="1.1">
 <metadata>
  <rdf:RDF xmlns:dc="http://purl.org/dc/elements/1.1/" xmlns:cc="http://creativecommons.org/ns#" xmlns:rdf="http://www.w3.org/1999/02/22-rdf-syntax-ns#">
   <cc:Work>
    <dc:type rdf:resource="http://purl.org/dc/dcmitype/StillImage"/>
    <dc:date>2025-05-12T15:09:52.432495</dc:date>
    <dc:format>image/svg+xml</dc:format>
    <dc:creator>
     <cc:Agent>
      <dc:title>Matplotlib v3.8.4, https://matplotlib.org/</dc:title>
     </cc:Agent>
    </dc:creator>
   </cc:Work>
  </rdf:RDF>
 </metadata>
 <defs>
  <style type="text/css">*{stroke-linejoin: round; stroke-linecap: butt}</style>
 </defs>
 <g id="figure_1">
  <g id="patch_1">
   <path d="M 0 424.355625 
L 1144.995 424.355625 
L 1144.995 0 
L 0 0 
z
" style="fill: #ffffff"/>
  </g>
  <g id="axes_1">
   <g id="patch_2">
    <path d="M 60.515 373.25 
L 1137.795 373.25 
L 1137.795 38.17 
L 60.515 38.17 
z
" style="fill: #ffffff"/>
   </g>
   <g id="PolyCollection_1">
    <defs>
     <path id="m62944634e9" d="M 109.482273 -185.889236 
L 109.482273 -148.030345 
L 111.526835 -150.194988 
L 113.571398 -157.720852 
L 115.61596 -154.239093 
L 117.660523 -160.73647 
L 119.705085 -155.900479 
L 121.749648 -159.634047 
L 123.79421 -160.926706 
L 125.838773 -163.847291 
L 127.883336 -160.857376 
L 129.927898 -159.405714 
L 131.972461 -154.661915 
L 134.017023 -162.835359 
L 136.061586 -164.071571 
L 138.106148 -166.663221 
L 140.150711 -164.811483 
L 142.195273 -162.980856 
L 144.239836 -164.913978 
L 146.284398 -163.057867 
L 148.328961 -161.338074 
L 150.373523 -159.931026 
L 152.418086 -158.691197 
L 154.462649 -153.72831 
L 156.507211 -152.16372 
L 158.551774 -152.725238 
L 160.596336 -152.710772 
L 162.640899 -152.229946 
L 164.685461 -156.765176 
L 166.730024 -156.483697 
L 168.774586 -161.309229 
L 170.819149 -159.829631 
L 172.863711 -159.889573 
L 174.908274 -157.89606 
L 176.952836 -157.867743 
L 178.997399 -156.838938 
L 181.041961 -154.915996 
L 183.086524 -154.788807 
L 185.131087 -154.362747 
L 187.175649 -156.378142 
L 189.220212 -156.617203 
L 191.264774 -155.70575 
L 193.309337 -155.660934 
L 195.353899 -155.988509 
L 197.398462 -157.05012 
L 199.443024 -157.790997 
L 201.487587 -158.669805 
L 203.532149 -158.446138 
L 205.576712 -156.582453 
L 207.621274 -155.850493 
L 209.665837 -157.269242 
L 211.7104 -158.324853 
L 213.754962 -158.859142 
L 215.799525 -157.677422 
L 217.844087 -155.049298 
L 219.88865 -155.53604 
L 221.933212 -154.92565 
L 223.977775 -154.896145 
L 226.022337 -153.949184 
L 228.0669 -153.154409 
L 230.111462 -152.733535 
L 232.156025 -152.709703 
L 234.200587 -152.587173 
L 236.24515 -152.359271 
L 238.289712 -153.405398 
L 240.334275 -153.735686 
L 242.378838 -152.454901 
L 244.4234 -153.646402 
L 246.467963 -153.929645 
L 248.512525 -153.394172 
L 250.557088 -153.077947 
L 252.60165 -154.714262 
L 254.646213 -155.415545 
L 256.690775 -156.479778 
L 258.735338 -157.316736 
L 260.7799 -159.256294 
L 262.824463 -159.459125 
L 264.869025 -159.678552 
L 266.913588 -160.034163 
L 268.958151 -161.274994 
L 271.002713 -161.067359 
L 273.047276 -162.779076 
L 275.091838 -162.673034 
L 277.136401 -163.399397 
L 279.180963 -164.777259 
L 281.225526 -165.546448 
L 283.270088 -166.973038 
L 285.314651 -167.280682 
L 287.359213 -168.362738 
L 289.403776 -168.558338 
L 291.448338 -170.411521 
L 293.492901 -170.499548 
L 295.537463 -172.139983 
L 297.582026 -172.082658 
L 299.626589 -173.528606 
L 301.671151 -173.800353 
L 303.715714 -175.006553 
L 305.760276 -174.864386 
L 307.804839 -176.074864 
L 309.849401 -177.302849 
L 311.893964 -178.938254 
L 313.938526 -179.797469 
L 315.983089 -180.615744 
L 318.027651 -181.219109 
L 320.072214 -183.092473 
L 322.116776 -183.83213 
L 324.161339 -184.147666 
L 326.205901 -185.020996 
L 328.250464 -185.866961 
L 330.295027 -185.727653 
L 332.339589 -186.413639 
L 334.384152 -187.322988 
L 336.428714 -187.926341 
L 338.473277 -188.212085 
L 340.517839 -191.093379 
L 342.562402 -192.650852 
L 344.606964 -193.064324 
L 346.651527 -193.926637 
L 348.696089 -194.709544 
L 350.740652 -195.700165 
L 352.785214 -196.761485 
L 354.829777 -196.952939 
L 356.87434 -197.072684 
L 358.918902 -198.085149 
L 360.963465 -198.332948 
L 363.008027 -199.405044 
L 365.05259 -199.361621 
L 367.097152 -199.725748 
L 369.141715 -199.954616 
L 371.186277 -200.617522 
L 373.23084 -200.718315 
L 375.275402 -200.762045 
L 377.319965 -201.147325 
L 379.364527 -201.260284 
L 381.40909 -201.496311 
L 383.453652 -202.015726 
L 385.498215 -202.503135 
L 387.542778 -203.307979 
L 389.58734 -203.514073 
L 391.631903 -204.969924 
L 393.676465 -206.078668 
L 395.721028 -205.794543 
L 397.76559 -204.341836 
L 399.810153 -205.580057 
L 401.854715 -206.397766 
L 403.899278 -205.707079 
L 405.94384 -205.385436 
L 407.988403 -205.657665 
L 410.032965 -205.151042 
L 412.077528 -204.8004 
L 414.122091 -204.961329 
L 416.166653 -205.140519 
L 418.211216 -205.73756 
L 420.255778 -206.169459 
L 422.300341 -206.677474 
L 424.344903 -207.247727 
L 426.389466 -208.080633 
L 428.434028 -208.466338 
L 430.478591 -208.813607 
L 432.523153 -209.053031 
L 434.567716 -209.22609 
L 436.612278 -208.684634 
L 438.656841 -208.8735 
L 440.701403 -209.608347 
L 442.745966 -210.003651 
L 444.790529 -210.676735 
L 446.835091 -210.119153 
L 448.879654 -209.67466 
L 450.924216 -210.283273 
L 452.968779 -210.497143 
L 455.013341 -210.818974 
L 457.057904 -211.061939 
L 459.102466 -210.960573 
L 461.147029 -211.450511 
L 463.191591 -211.401899 
L 465.236154 -211.303261 
L 467.280716 -211.654644 
L 469.325279 -211.851225 
L 471.369842 -212.174489 
L 473.414404 -212.32261 
L 475.458967 -212.67211 
L 477.503529 -213.353564 
L 479.548092 -213.78794 
L 481.592654 -214.884967 
L 483.637217 -215.95689 
L 485.681779 -215.940384 
L 487.726342 -216.043525 
L 489.770904 -216.280092 
L 491.815467 -215.751111 
L 493.860029 -215.467959 
L 495.904592 -215.77885 
L 497.949154 -215.349009 
L 499.993717 -215.088026 
L 502.03828 -214.753327 
L 504.082842 -214.669632 
L 506.127405 -214.554463 
L 508.171967 -214.608499 
L 510.21653 -215.170023 
L 512.261092 -215.496229 
L 514.305655 -215.501544 
L 516.350217 -215.41797 
L 518.39478 -215.448178 
L 520.439342 -215.54123 
L 522.483905 -215.860306 
L 524.528467 -215.781702 
L 526.57303 -215.234003 
L 528.617593 -215.058717 
L 530.662155 -215.108605 
L 532.706718 -215.203899 
L 534.75128 -215.132122 
L 536.795843 -215.405513 
L 538.840405 -215.506671 
L 540.884968 -215.759617 
L 542.92953 -215.702329 
L 544.974093 -215.250889 
L 547.018655 -215.044364 
L 549.063218 -215.233876 
L 551.10778 -215.723622 
L 553.152343 -216.180066 
L 555.196905 -216.52576 
L 557.241468 -216.678033 
L 559.286031 -217.066022 
L 561.330593 -217.081336 
L 563.375156 -217.403755 
L 565.419718 -217.717279 
L 567.464281 -217.956842 
L 569.508843 -217.994472 
L 571.553406 -217.876951 
L 573.597968 -218.135797 
L 575.642531 -218.559585 
L 577.687093 -218.55123 
L 579.731656 -218.365411 
L 581.776218 -218.411661 
L 583.820781 -218.161577 
L 585.865344 -218.119358 
L 587.909906 -218.292142 
L 589.954469 -218.326611 
L 591.999031 -218.767446 
L 594.043594 -218.912733 
L 596.088156 -218.76617 
L 598.132719 -218.877347 
L 600.177281 -218.90165 
L 602.221844 -219.005337 
L 604.266406 -218.832543 
L 606.310969 -218.532433 
L 608.355531 -218.732089 
L 610.400094 -218.73522 
L 612.444656 -218.271498 
L 614.489219 -218.258752 
L 616.533782 -217.295783 
L 618.578344 -217.1381 
L 620.622907 -217.281823 
L 622.667469 -217.60934 
L 624.712032 -217.783958 
L 626.756594 -217.935863 
L 628.801157 -218.268914 
L 630.845719 -218.385625 
L 632.890282 -217.948986 
L 634.934844 -218.235488 
L 636.979407 -218.282961 
L 639.023969 -218.158492 
L 641.068532 -218.334017 
L 643.113095 -217.677254 
L 645.157657 -216.477073 
L 647.20222 -215.935065 
L 649.246782 -215.850847 
L 651.291345 -215.922367 
L 653.335907 -215.769347 
L 655.38047 -215.587875 
L 657.425032 -215.731658 
L 659.469595 -215.815485 
L 661.514157 -215.72924 
L 663.55872 -216.141619 
L 665.603282 -216.284284 
L 667.647845 -216.374999 
L 669.692407 -216.505472 
L 671.73697 -216.751683 
L 673.781533 -216.769784 
L 675.826095 -216.845058 
L 677.870658 -216.79231 
L 679.91522 -216.710687 
L 681.959783 -216.757472 
L 684.004345 -216.854118 
L 686.048908 -216.93291 
L 688.09347 -216.975284 
L 690.138033 -216.902037 
L 692.182595 -217.271852 
L 694.227158 -217.57033 
L 696.27172 -217.735211 
L 698.316283 -217.695923 
L 700.360846 -217.741252 
L 702.405408 -217.850634 
L 704.449971 -217.98343 
L 706.494533 -218.001288 
L 708.539096 -218.087736 
L 710.583658 -218.205455 
L 712.628221 -218.371317 
L 714.672783 -218.544357 
L 716.717346 -218.632397 
L 718.761908 -218.670666 
L 720.806471 -218.736435 
L 722.851033 -218.783513 
L 724.895596 -218.909112 
L 726.940158 -218.936063 
L 728.984721 -219.073426 
L 731.029284 -218.460767 
L 733.073846 -218.376541 
L 735.118409 -218.64843 
L 737.162971 -218.659254 
L 739.207534 -218.408007 
L 741.252096 -218.459003 
L 743.296659 -218.487235 
L 745.341221 -218.493343 
L 747.385784 -218.644616 
L 749.430346 -219.135272 
L 751.474909 -219.462134 
L 753.519471 -219.618425 
L 755.564034 -219.996095 
L 757.608597 -219.888125 
L 759.653159 -219.575751 
L 761.697722 -218.798768 
L 763.742284 -218.36068 
L 765.786847 -218.061009 
L 767.831409 -217.773284 
L 769.875972 -217.54536 
L 771.920534 -217.525049 
L 773.965097 -217.814428 
L 776.009659 -217.93243 
L 778.054222 -217.997238 
L 780.098784 -218.04445 
L 782.143347 -218.04445 
L 784.187909 -218.04445 
L 786.232472 -218.151693 
L 788.277035 -218.180608 
L 790.321597 -218.180608 
L 792.36616 -217.947641 
L 794.410722 -217.661614 
L 796.455285 -217.587115 
L 798.499847 -217.587115 
L 800.54441 -217.633974 
L 802.588972 -217.579702 
L 804.633535 -217.606696 
L 806.678097 -217.705302 
L 808.72266 -217.948889 
L 810.767222 -218.249249 
L 812.811785 -218.30499 
L 814.856348 -218.400952 
L 816.90091 -218.483656 
L 818.945473 -218.502893 
L 820.990035 -218.406121 
L 823.034598 -218.407888 
L 825.07916 -218.553658 
L 827.123723 -218.672805 
L 829.168285 -218.77412 
L 831.212848 -218.72538 
L 833.25741 -218.727012 
L 835.301973 -218.933061 
L 837.346535 -219.176183 
L 839.391098 -219.275698 
L 841.43566 -219.376278 
L 843.480223 -219.480731 
L 845.524786 -219.528288 
L 847.569348 -219.986908 
L 849.613911 -220.922552 
L 851.658473 -221.577509 
L 853.703036 -221.797875 
L 855.747598 -221.931973 
L 857.792161 -222.085344 
L 859.836723 -222.119977 
L 861.881286 -221.725057 
L 863.925848 -221.373815 
L 865.970411 -221.467624 
L 868.014973 -221.548848 
L 870.059536 -221.635558 
L 872.104099 -221.780924 
L 874.148661 -221.885998 
L 876.193224 -221.921131 
L 878.237786 -221.975919 
L 880.282349 -221.986727 
L 882.326911 -222.054355 
L 884.371474 -221.964361 
L 886.416036 -221.976352 
L 888.460599 -222.090553 
L 890.505161 -222.178168 
L 892.549724 -222.180311 
L 894.594286 -222.233273 
L 896.638849 -222.196231 
L 898.683411 -222.147879 
L 900.727974 -222.216045 
L 902.772537 -222.302983 
L 904.817099 -222.430333 
L 906.861662 -222.468297 
L 908.906224 -222.524796 
L 910.950787 -222.286556 
L 912.995349 -222.284339 
L 915.039912 -222.512386 
L 917.084474 -222.300599 
L 919.129037 -222.246185 
L 921.173599 -222.494389 
L 923.218162 -222.642932 
L 925.262724 -222.878968 
L 927.307287 -223.201896 
L 929.351849 -223.201896 
L 931.396412 -223.228213 
L 933.440975 -223.271961 
L 935.485537 -223.484527 
L 937.5301 -223.624009 
L 939.574662 -223.689648 
L 941.619225 -223.708442 
L 943.663787 -223.777121 
L 945.70835 -223.884457 
L 947.752912 -223.944012 
L 949.797475 -223.944012 
L 951.842037 -223.847173 
L 953.8866 -223.967354 
L 955.931162 -224.017486 
L 957.975725 -224.044936 
L 960.020288 -223.835674 
L 962.06485 -223.987764 
L 964.109413 -224.210796 
L 966.153975 -224.295786 
L 968.198538 -224.382646 
L 970.2431 -224.557403 
L 972.287663 -224.557403 
L 974.332225 -224.557403 
L 976.376788 -224.557403 
L 978.42135 -224.584864 
L 980.465913 -224.581922 
L 982.510475 -224.636439 
L 984.555038 -224.636439 
L 986.5996 -224.528368 
L 988.644163 -223.95891 
L 990.688726 -223.748925 
L 992.733288 -223.890363 
L 994.777851 -224.013747 
L 996.822413 -224.084728 
L 998.866976 -224.180239 
L 1000.911538 -224.138744 
L 1002.956101 -224.229388 
L 1005.000663 -224.3366 
L 1007.045226 -224.33366 
L 1009.089788 -224.388906 
L 1011.134351 -224.599562 
L 1013.178913 -224.528683 
L 1015.223476 -224.575138 
L 1017.268039 -224.575138 
L 1019.312601 -224.538478 
L 1021.357164 -224.678377 
L 1023.401726 -224.629267 
L 1025.446289 -224.629267 
L 1027.490851 -224.652483 
L 1029.535414 -224.678732 
L 1031.579976 -224.687676 
L 1033.624539 -224.687676 
L 1035.669101 -224.687676 
L 1037.713664 -224.687676 
L 1039.758226 -224.742949 
L 1041.802789 -224.755373 
L 1043.847351 -224.805844 
L 1045.891914 -224.857151 
L 1047.936477 -224.931668 
L 1049.981039 -225.039205 
L 1052.025602 -225.203506 
L 1054.070164 -225.044956 
L 1056.114727 -225.03618 
L 1058.159289 -224.975347 
L 1060.203852 -225.033557 
L 1062.248414 -225.133054 
L 1064.292977 -225.07159 
L 1066.337539 -222.617783 
L 1068.382102 -224.268958 
L 1070.426664 -224.032599 
L 1072.471227 -224.053086 
L 1074.51579 -224.124027 
L 1076.560352 -224.261957 
L 1078.604915 -224.239837 
L 1080.649477 -223.93695 
L 1082.69404 -222.658937 
L 1084.738602 -218.904203 
L 1086.783165 -218.943301 
L 1088.827727 -219.041057 
L 1088.827727 -240.865376 
L 1088.827727 -240.865376 
L 1086.783165 -240.715408 
L 1084.738602 -240.587531 
L 1082.69404 -243.723852 
L 1080.649477 -243.533285 
L 1078.604915 -242.541718 
L 1076.560352 -242.537865 
L 1074.51579 -242.355726 
L 1072.471227 -242.261974 
L 1070.426664 -242.223474 
L 1068.382102 -242.302237 
L 1066.337539 -239.847228 
L 1064.292977 -241.891161 
L 1062.248414 -241.876677 
L 1060.203852 -241.801915 
L 1058.159289 -241.805517 
L 1056.114727 -242.019436 
L 1054.070164 -242.019767 
L 1052.025602 -242.281022 
L 1049.981039 -242.158662 
L 1047.936477 -242.031212 
L 1045.891914 -241.934468 
L 1043.847351 -241.855353 
L 1041.802789 -241.778621 
L 1039.758226 -241.756157 
L 1037.713664 -241.68949 
L 1035.669101 -241.68949 
L 1033.624539 -241.68949 
L 1031.579976 -241.68949 
L 1029.535414 -241.677556 
L 1027.490851 -241.654286 
L 1025.446289 -241.623508 
L 1023.401726 -241.623508 
L 1021.357164 -241.717697 
L 1019.312601 -241.615103 
L 1017.268039 -241.651742 
L 1015.223476 -241.651742 
L 1013.178913 -241.588051 
L 1011.134351 -241.659792 
L 1009.089788 -241.453338 
L 1007.045226 -241.460244 
L 1005.000663 -241.395279 
L 1002.956101 -241.202814 
L 1000.911538 -241.090674 
L 998.866976 -241.19984 
L 996.822413 -241.107949 
L 994.777851 -241.029297 
L 992.733288 -240.914873 
L 990.688726 -240.837874 
L 988.644163 -240.868013 
L 986.5996 -240.983703 
L 984.555038 -240.924664 
L 982.510475 -240.924664 
L 980.465913 -240.875463 
L 978.42135 -240.874704 
L 976.376788 -240.799251 
L 974.332225 -240.799251 
L 972.287663 -240.799251 
L 970.2431 -240.799251 
L 968.198538 -240.64243 
L 966.153975 -240.590208 
L 964.109413 -240.538524 
L 962.06485 -240.309491 
L 960.020288 -240.101783 
L 957.975725 -240.251766 
L 955.931162 -240.203889 
L 953.8866 -240.117516 
L 951.842037 -239.980614 
L 949.797475 -240.046095 
L 947.752912 -240.046095 
L 945.70835 -239.984857 
L 943.663787 -239.829846 
L 941.619225 -239.702511 
L 939.574662 -239.688897 
L 937.5301 -239.637015 
L 935.485537 -239.516541 
L 933.440975 -239.346202 
L 931.396412 -239.285242 
L 929.351849 -239.259909 
L 927.307287 -239.259909 
L 925.262724 -239.019283 
L 923.218162 -238.809656 
L 921.173599 -238.621234 
L 919.129037 -238.42897 
L 917.084474 -238.463989 
L 915.039912 -238.567435 
L 912.995349 -238.342153 
L 910.950787 -238.298072 
L 908.906224 -238.454878 
L 906.861662 -238.396892 
L 904.817099 -238.365493 
L 902.772537 -238.281068 
L 900.727974 -238.224624 
L 898.683411 -238.205632 
L 896.638849 -238.226825 
L 894.594286 -238.22815 
L 892.549724 -238.175721 
L 890.505161 -238.155041 
L 888.460599 -238.039125 
L 886.416036 -237.999473 
L 884.371474 -238.016403 
L 882.326911 -238.061172 
L 880.282349 -237.967882 
L 878.237786 -237.949299 
L 876.193224 -237.892617 
L 874.148661 -237.791682 
L 872.104099 -237.591864 
L 870.059536 -237.415336 
L 868.014973 -237.321037 
L 865.970411 -237.244872 
L 863.925848 -237.148886 
L 861.881286 -237.339391 
L 859.836723 -237.607348 
L 857.792161 -237.575103 
L 855.747598 -237.434146 
L 853.703036 -237.302072 
L 851.658473 -237.077484 
L 849.613911 -236.407287 
L 847.569348 -235.604613 
L 845.524786 -235.305212 
L 843.480223 -235.271397 
L 841.43566 -235.16973 
L 839.391098 -235.053964 
L 837.346535 -234.939889 
L 835.301973 -234.680707 
L 833.25741 -234.420672 
L 831.212848 -234.423494 
L 829.168285 -234.482677 
L 827.123723 -234.396488 
L 825.07916 -234.290867 
L 823.034598 -234.207396 
L 820.990035 -234.244582 
L 818.945473 -234.346331 
L 816.90091 -234.322811 
L 814.856348 -234.291469 
L 812.811785 -234.186279 
L 810.767222 -234.136497 
L 808.72266 -233.896269 
L 806.678097 -233.691781 
L 804.633535 -233.587039 
L 802.588972 -233.551096 
L 800.54441 -233.587237 
L 798.499847 -233.55601 
L 796.455285 -233.55601 
L 794.410722 -233.639748 
L 792.36616 -234.08495 
L 790.321597 -234.47732 
L 788.277035 -234.47732 
L 786.232472 -234.427059 
L 784.187909 -234.288583 
L 782.143347 -234.288583 
L 780.098784 -234.288583 
L 778.054222 -234.171913 
L 776.009659 -234.127926 
L 773.965097 -234.028572 
L 771.920534 -233.638307 
L 769.875972 -233.618277 
L 767.831409 -233.785726 
L 765.786847 -234.166962 
L 763.742284 -234.591162 
L 761.697722 -234.926136 
L 759.653159 -235.562959 
L 757.608597 -235.855696 
L 755.564034 -236.005429 
L 753.519471 -235.598337 
L 751.474909 -235.475557 
L 749.430346 -235.200042 
L 747.385784 -234.818674 
L 745.341221 -234.736671 
L 743.296659 -234.716347 
L 741.252096 -234.668315 
L 739.207534 -234.553287 
L 737.162971 -234.876732 
L 735.118409 -234.850668 
L 733.073846 -234.627538 
L 731.029284 -234.685227 
L 728.984721 -235.408637 
L 726.940158 -235.252188 
L 724.895596 -235.153728 
L 722.851033 -235.024229 
L 720.806471 -235.001884 
L 718.761908 -234.943649 
L 716.717346 -234.88993 
L 714.672783 -234.798738 
L 712.628221 -234.62879 
L 710.583658 -234.453659 
L 708.539096 -234.345907 
L 706.494533 -234.244477 
L 704.449971 -234.207843 
L 702.405408 -234.187421 
L 700.360846 -234.092813 
L 698.316283 -234.03512 
L 696.27172 -234.015858 
L 694.227158 -233.876095 
L 692.182595 -233.423444 
L 690.138033 -232.886305 
L 688.09347 -232.896512 
L 686.048908 -232.8413 
L 684.004345 -232.729619 
L 681.959783 -232.596258 
L 679.91522 -232.532387 
L 677.870658 -232.629036 
L 675.826095 -232.655661 
L 673.781533 -232.606076 
L 671.73697 -232.593759 
L 669.692407 -232.358566 
L 667.647845 -232.260092 
L 665.603282 -232.21065 
L 663.55872 -232.108719 
L 661.514157 -231.750046 
L 659.469595 -231.889474 
L 657.425032 -231.841065 
L 655.38047 -231.693152 
L 653.335907 -231.814946 
L 651.291345 -232.06232 
L 649.246782 -232.023382 
L 647.20222 -232.402711 
L 645.157657 -232.913164 
L 643.113095 -234.095389 
L 641.068532 -234.868889 
L 639.023969 -234.667377 
L 636.979407 -234.801992 
L 634.934844 -234.705447 
L 632.890282 -234.477202 
L 630.845719 -235.034296 
L 628.801157 -234.823292 
L 626.756594 -234.930091 
L 624.712032 -234.766544 
L 622.667469 -234.435303 
L 620.622907 -234.045941 
L 618.578344 -233.942796 
L 616.533782 -234.079814 
L 614.489219 -235.145371 
L 612.444656 -235.040081 
L 610.400094 -235.770997 
L 608.355531 -235.77286 
L 606.310969 -235.571068 
L 604.266406 -235.81309 
L 602.221844 -236.07452 
L 600.177281 -235.884921 
L 598.132719 -235.97414 
L 596.088156 -235.963764 
L 594.043594 -236.030663 
L 591.999031 -235.773512 
L 589.954469 -235.389467 
L 587.909906 -235.334445 
L 585.865344 -235.231833 
L 583.820781 -235.239906 
L 581.776218 -235.443518 
L 579.731656 -235.283922 
L 577.687093 -235.4157 
L 575.642531 -235.662001 
L 573.597968 -235.363245 
L 571.553406 -235.23653 
L 569.508843 -235.321323 
L 567.464281 -235.118446 
L 565.419718 -234.846936 
L 563.375156 -234.612093 
L 561.330593 -234.087561 
L 559.286031 -233.997833 
L 557.241468 -233.689864 
L 555.196905 -233.686864 
L 553.152343 -233.67907 
L 551.10778 -233.740524 
L 549.063218 -233.810851 
L 547.018655 -233.685636 
L 544.974093 -233.837375 
L 542.92953 -233.861116 
L 540.884968 -233.847127 
L 538.840405 -233.522147 
L 536.795843 -233.439117 
L 534.75128 -233.035194 
L 532.706718 -232.953803 
L 530.662155 -232.824166 
L 528.617593 -232.915648 
L 526.57303 -233.143382 
L 524.528467 -233.655648 
L 522.483905 -233.787136 
L 520.439342 -233.503324 
L 518.39478 -233.228844 
L 516.350217 -233.157927 
L 514.305655 -233.328418 
L 512.261092 -233.345165 
L 510.21653 -233.083686 
L 508.171967 -232.642482 
L 506.127405 -232.452609 
L 504.082842 -232.583877 
L 502.03828 -232.699377 
L 499.993717 -233.089278 
L 497.949154 -233.335147 
L 495.904592 -233.799949 
L 493.860029 -233.599417 
L 491.815467 -234.206688 
L 489.770904 -235.48524 
L 487.726342 -235.419377 
L 485.681779 -235.397395 
L 483.637217 -235.389882 
L 481.592654 -234.479593 
L 479.548092 -233.774603 
L 477.503529 -233.637777 
L 475.458967 -233.072659 
L 473.414404 -232.90462 
L 471.369842 -232.679447 
L 469.325279 -232.579171 
L 467.280716 -232.553788 
L 465.236154 -232.48373 
L 463.191591 -232.734532 
L 461.147029 -232.660578 
L 459.102466 -232.364289 
L 457.057904 -232.674263 
L 455.013341 -232.498447 
L 452.968779 -232.246809 
L 450.924216 -231.878754 
L 448.879654 -231.549097 
L 446.835091 -231.96507 
L 444.790529 -232.308031 
L 442.745966 -231.985625 
L 440.701403 -231.765552 
L 438.656841 -231.289288 
L 436.612278 -231.284768 
L 434.567716 -232.059043 
L 432.523153 -231.972908 
L 430.478591 -231.89036 
L 428.434028 -231.786769 
L 426.389466 -231.481243 
L 424.344903 -230.825389 
L 422.300341 -230.35214 
L 420.255778 -229.935049 
L 418.211216 -229.419478 
L 416.166653 -228.875542 
L 414.122091 -228.749541 
L 412.077528 -228.40777 
L 410.032965 -228.641487 
L 407.988403 -229.270068 
L 405.94384 -229.173035 
L 403.899278 -229.811246 
L 401.854715 -230.373279 
L 399.810153 -229.506013 
L 397.76559 -228.595121 
L 395.721028 -229.839678 
L 393.676465 -229.914447 
L 391.631903 -228.480556 
L 389.58734 -227.056697 
L 387.542778 -226.716861 
L 385.498215 -226.020975 
L 383.453652 -225.398354 
L 381.40909 -224.764904 
L 379.364527 -224.683113 
L 377.319965 -224.319445 
L 375.275402 -224.036164 
L 373.23084 -224.055037 
L 371.186277 -223.926366 
L 369.141715 -223.329762 
L 367.097152 -223.037008 
L 365.05259 -222.963897 
L 363.008027 -223.240806 
L 360.963465 -222.465522 
L 358.918902 -222.303842 
L 356.87434 -221.53858 
L 354.829777 -221.441742 
L 352.785214 -221.177818 
L 350.740652 -220.19727 
L 348.696089 -219.414469 
L 346.651527 -218.951018 
L 344.606964 -217.998145 
L 342.562402 -217.68087 
L 340.517839 -216.724667 
L 338.473277 -215.094984 
L 336.428714 -214.761055 
L 334.384152 -213.925051 
L 332.339589 -213.167593 
L 330.295027 -212.741684 
L 328.250464 -212.663718 
L 326.205901 -211.918054 
L 324.161339 -210.999695 
L 322.116776 -210.591904 
L 320.072214 -209.672166 
L 318.027651 -208.500927 
L 315.983089 -208.116861 
L 313.938526 -207.762319 
L 311.893964 -206.780459 
L 309.849401 -205.389742 
L 307.804839 -204.571307 
L 305.760276 -203.791059 
L 303.715714 -203.891809 
L 301.671151 -202.960452 
L 299.626589 -202.505795 
L 297.582026 -201.204446 
L 295.537463 -201.417853 
L 293.492901 -200.246389 
L 291.448338 -200.486533 
L 289.403776 -199.065434 
L 287.359213 -198.676349 
L 285.314651 -197.872516 
L 283.270088 -197.653779 
L 281.225526 -196.269345 
L 279.180963 -195.548248 
L 277.136401 -194.15592 
L 275.091838 -193.084914 
L 273.047276 -192.851413 
L 271.002713 -191.477229 
L 268.958151 -191.921779 
L 266.913588 -191.209015 
L 264.869025 -190.979589 
L 262.824463 -190.984232 
L 260.7799 -190.577679 
L 258.735338 -189.055184 
L 256.690775 -188.800779 
L 254.646213 -188.139268 
L 252.60165 -187.940472 
L 250.557088 -186.86822 
L 248.512525 -186.46894 
L 246.467963 -186.412166 
L 244.4234 -185.887255 
L 242.378838 -184.827671 
L 240.334275 -186.044757 
L 238.289712 -185.285405 
L 236.24515 -184.256632 
L 234.200587 -184.415258 
L 232.156025 -184.525695 
L 230.111462 -184.525805 
L 228.0669 -185.400393 
L 226.022337 -185.599423 
L 223.977775 -186.018427 
L 221.933212 -185.893927 
L 219.88865 -186.697687 
L 217.844087 -186.052269 
L 215.799525 -188.046756 
L 213.754962 -188.735996 
L 211.7104 -187.88518 
L 209.665837 -186.83308 
L 207.621274 -186.351136 
L 205.576712 -187.419623 
L 203.532149 -189.033012 
L 201.487587 -189.808808 
L 199.443024 -188.801788 
L 197.398462 -187.664698 
L 195.353899 -186.320988 
L 193.309337 -185.735886 
L 191.264774 -185.716682 
L 189.220212 -186.214942 
L 187.175649 -186.110543 
L 185.131087 -183.91333 
L 183.086524 -183.723701 
L 181.041961 -184.628376 
L 178.997399 -187.08204 
L 176.952836 -188.091615 
L 174.908274 -189.980618 
L 172.863711 -191.087613 
L 170.819149 -190.93364 
L 168.774586 -192.829894 
L 166.730024 -189.973689 
L 164.685461 -191.815884 
L 162.640899 -188.736597 
L 160.596336 -187.445899 
L 158.551774 -187.823219 
L 156.507211 -185.915793 
L 154.462649 -185.601477 
L 152.418086 -190.270929 
L 150.373523 -191.972018 
L 148.328961 -193.392027 
L 146.284398 -193.857441 
L 144.239836 -191.39726 
L 142.195273 -188.041052 
L 140.150711 -188.801499 
L 138.106148 -189.012774 
L 136.061586 -186.089414 
L 134.017023 -183.345761 
L 131.972461 -180.988993 
L 129.927898 -186.955262 
L 127.883336 -188.533913 
L 125.838773 -193.848737 
L 123.79421 -190.594964 
L 121.749648 -189.984278 
L 119.705085 -191.339679 
L 117.660523 -199.676131 
L 115.61596 -192.521987 
L 113.571398 -195.375159 
L 111.526835 -189.533577 
L 109.482273 -185.889236 
z
" style="stroke: #425df5; stroke-opacity: 0.3"/>
    </defs>
    <g clip-path="url(#p8e3865c56c)">
     <use xlink:href="#m62944634e9" x="0" y="424.355625" style="fill: #425df5; fill-opacity: 0.3; stroke: #425df5; stroke-opacity: 0.3"/>
    </g>
   </g>
   <g id="matplotlib.axis_1">
    <g id="xtick_1">
     <g id="line2d_1">
      <path d="M 109.482273 373.25 
L 109.482273 38.17 
" clip-path="url(#p8e3865c56c)" style="fill: none; stroke-dasharray: 2.96,1.28; stroke-dashoffset: 0; stroke: #b0b0b0; stroke-opacity: 0.4; stroke-width: 0.8"/>
     </g>
     <g id="line2d_2">
      <defs>
       <path id="m1d544e7bda" d="M 0 0 
L 0 3.5 
" style="stroke: #000000; stroke-width: 0.8"/>
      </defs>
      <g>
       <use xlink:href="#m1d544e7bda" x="109.482273" y="373.25" style="stroke: #000000; stroke-width: 0.8"/>
      </g>
     </g>
     <g id="text_1">
      <!-- 0 -->
      <g transform="translate(106.301023 387.848437) scale(0.1 -0.1)">
       <defs>
        <path id="DejaVuSans-30" d="M 2034 4250 
Q 1547 4250 1301 3770 
Q 1056 3291 1056 2328 
Q 1056 1369 1301 889 
Q 1547 409 2034 409 
Q 2525 409 2770 889 
Q 3016 1369 3016 2328 
Q 3016 3291 2770 3770 
Q 2525 4250 2034 4250 
z
M 2034 4750 
Q 2819 4750 3233 4129 
Q 3647 3509 3647 2328 
Q 3647 1150 3233 529 
Q 2819 -91 2034 -91 
Q 1250 -91 836 529 
Q 422 1150 422 2328 
Q 422 3509 836 4129 
Q 1250 4750 2034 4750 
z
" transform="scale(0.015625)"/>
       </defs>
       <use xlink:href="#DejaVuSans-30"/>
      </g>
     </g>
    </g>
    <g id="xtick_2">
     <g id="line2d_3">
      <path d="M 273.047276 373.25 
L 273.047276 38.17 
" clip-path="url(#p8e3865c56c)" style="fill: none; stroke-dasharray: 2.96,1.28; stroke-dashoffset: 0; stroke: #b0b0b0; stroke-opacity: 0.4; stroke-width: 0.8"/>
     </g>
     <g id="line2d_4">
      <g>
       <use xlink:href="#m1d544e7bda" x="273.047276" y="373.25" style="stroke: #000000; stroke-width: 0.8"/>
      </g>
     </g>
     <g id="text_2">
      <!-- 4 -->
      <g transform="translate(269.866026 387.848437) scale(0.1 -0.1)">
       <defs>
        <path id="DejaVuSans-34" d="M 2419 4116 
L 825 1625 
L 2419 1625 
L 2419 4116 
z
M 2253 4666 
L 3047 4666 
L 3047 1625 
L 3713 1625 
L 3713 1100 
L 3047 1100 
L 3047 0 
L 2419 0 
L 2419 1100 
L 313 1100 
L 313 1709 
L 2253 4666 
z
" transform="scale(0.015625)"/>
       </defs>
       <use xlink:href="#DejaVuSans-34"/>
      </g>
     </g>
    </g>
    <g id="xtick_3">
     <g id="line2d_5">
      <path d="M 436.612278 373.25 
L 436.612278 38.17 
" clip-path="url(#p8e3865c56c)" style="fill: none; stroke-dasharray: 2.96,1.28; stroke-dashoffset: 0; stroke: #b0b0b0; stroke-opacity: 0.4; stroke-width: 0.8"/>
     </g>
     <g id="line2d_6">
      <g>
       <use xlink:href="#m1d544e7bda" x="436.612278" y="373.25" style="stroke: #000000; stroke-width: 0.8"/>
      </g>
     </g>
     <g id="text_3">
      <!-- 8 -->
      <g transform="translate(433.431028 387.848437) scale(0.1 -0.1)">
       <defs>
        <path id="DejaVuSans-38" d="M 2034 2216 
Q 1584 2216 1326 1975 
Q 1069 1734 1069 1313 
Q 1069 891 1326 650 
Q 1584 409 2034 409 
Q 2484 409 2743 651 
Q 3003 894 3003 1313 
Q 3003 1734 2745 1975 
Q 2488 2216 2034 2216 
z
M 1403 2484 
Q 997 2584 770 2862 
Q 544 3141 544 3541 
Q 544 4100 942 4425 
Q 1341 4750 2034 4750 
Q 2731 4750 3128 4425 
Q 3525 4100 3525 3541 
Q 3525 3141 3298 2862 
Q 3072 2584 2669 2484 
Q 3125 2378 3379 2068 
Q 3634 1759 3634 1313 
Q 3634 634 3220 271 
Q 2806 -91 2034 -91 
Q 1263 -91 848 271 
Q 434 634 434 1313 
Q 434 1759 690 2068 
Q 947 2378 1403 2484 
z
M 1172 3481 
Q 1172 3119 1398 2916 
Q 1625 2713 2034 2713 
Q 2441 2713 2670 2916 
Q 2900 3119 2900 3481 
Q 2900 3844 2670 4047 
Q 2441 4250 2034 4250 
Q 1625 4250 1398 4047 
Q 1172 3844 1172 3481 
z
" transform="scale(0.015625)"/>
       </defs>
       <use xlink:href="#DejaVuSans-38"/>
      </g>
     </g>
    </g>
    <g id="xtick_4">
     <g id="line2d_7">
      <path d="M 600.177281 373.25 
L 600.177281 38.17 
" clip-path="url(#p8e3865c56c)" style="fill: none; stroke-dasharray: 2.96,1.28; stroke-dashoffset: 0; stroke: #b0b0b0; stroke-opacity: 0.4; stroke-width: 0.8"/>
     </g>
     <g id="line2d_8">
      <g>
       <use xlink:href="#m1d544e7bda" x="600.177281" y="373.25" style="stroke: #000000; stroke-width: 0.8"/>
      </g>
     </g>
     <g id="text_4">
      <!-- 12 -->
      <g transform="translate(593.814781 387.848437) scale(0.1 -0.1)">
       <defs>
        <path id="DejaVuSans-31" d="M 794 531 
L 1825 531 
L 1825 4091 
L 703 3866 
L 703 4441 
L 1819 4666 
L 2450 4666 
L 2450 531 
L 3481 531 
L 3481 0 
L 794 0 
L 794 531 
z
" transform="scale(0.015625)"/>
        <path id="DejaVuSans-32" d="M 1228 531 
L 3431 531 
L 3431 0 
L 469 0 
L 469 531 
Q 828 903 1448 1529 
Q 2069 2156 2228 2338 
Q 2531 2678 2651 2914 
Q 2772 3150 2772 3378 
Q 2772 3750 2511 3984 
Q 2250 4219 1831 4219 
Q 1534 4219 1204 4116 
Q 875 4013 500 3803 
L 500 4441 
Q 881 4594 1212 4672 
Q 1544 4750 1819 4750 
Q 2544 4750 2975 4387 
Q 3406 4025 3406 3419 
Q 3406 3131 3298 2873 
Q 3191 2616 2906 2266 
Q 2828 2175 2409 1742 
Q 1991 1309 1228 531 
z
" transform="scale(0.015625)"/>
       </defs>
       <use xlink:href="#DejaVuSans-31"/>
       <use xlink:href="#DejaVuSans-32" x="63.623047"/>
      </g>
     </g>
    </g>
    <g id="xtick_5">
     <g id="line2d_9">
      <path d="M 763.742284 373.25 
L 763.742284 38.17 
" clip-path="url(#p8e3865c56c)" style="fill: none; stroke-dasharray: 2.96,1.28; stroke-dashoffset: 0; stroke: #b0b0b0; stroke-opacity: 0.4; stroke-width: 0.8"/>
     </g>
     <g id="line2d_10">
      <g>
       <use xlink:href="#m1d544e7bda" x="763.742284" y="373.25" style="stroke: #000000; stroke-width: 0.8"/>
      </g>
     </g>
     <g id="text_5">
      <!-- 16 -->
      <g transform="translate(757.379784 387.848437) scale(0.1 -0.1)">
       <defs>
        <path id="DejaVuSans-36" d="M 2113 2584 
Q 1688 2584 1439 2293 
Q 1191 2003 1191 1497 
Q 1191 994 1439 701 
Q 1688 409 2113 409 
Q 2538 409 2786 701 
Q 3034 994 3034 1497 
Q 3034 2003 2786 2293 
Q 2538 2584 2113 2584 
z
M 3366 4563 
L 3366 3988 
Q 3128 4100 2886 4159 
Q 2644 4219 2406 4219 
Q 1781 4219 1451 3797 
Q 1122 3375 1075 2522 
Q 1259 2794 1537 2939 
Q 1816 3084 2150 3084 
Q 2853 3084 3261 2657 
Q 3669 2231 3669 1497 
Q 3669 778 3244 343 
Q 2819 -91 2113 -91 
Q 1303 -91 875 529 
Q 447 1150 447 2328 
Q 447 3434 972 4092 
Q 1497 4750 2381 4750 
Q 2619 4750 2861 4703 
Q 3103 4656 3366 4563 
z
" transform="scale(0.015625)"/>
       </defs>
       <use xlink:href="#DejaVuSans-31"/>
       <use xlink:href="#DejaVuSans-36" x="63.623047"/>
      </g>
     </g>
    </g>
    <g id="xtick_6">
     <g id="line2d_11">
      <path d="M 927.307287 373.25 
L 927.307287 38.17 
" clip-path="url(#p8e3865c56c)" style="fill: none; stroke-dasharray: 2.96,1.28; stroke-dashoffset: 0; stroke: #b0b0b0; stroke-opacity: 0.4; stroke-width: 0.8"/>
     </g>
     <g id="line2d_12">
      <g>
       <use xlink:href="#m1d544e7bda" x="927.307287" y="373.25" style="stroke: #000000; stroke-width: 0.8"/>
      </g>
     </g>
     <g id="text_6">
      <!-- 20 -->
      <g transform="translate(920.944787 387.848437) scale(0.1 -0.1)">
       <use xlink:href="#DejaVuSans-32"/>
       <use xlink:href="#DejaVuSans-30" x="63.623047"/>
      </g>
     </g>
    </g>
    <g id="xtick_7">
     <g id="line2d_13">
      <path d="M 1090.87229 373.25 
L 1090.87229 38.17 
" clip-path="url(#p8e3865c56c)" style="fill: none; stroke-dasharray: 2.96,1.28; stroke-dashoffset: 0; stroke: #b0b0b0; stroke-opacity: 0.4; stroke-width: 0.8"/>
     </g>
     <g id="line2d_14">
      <g>
       <use xlink:href="#m1d544e7bda" x="1090.87229" y="373.25" style="stroke: #000000; stroke-width: 0.8"/>
      </g>
     </g>
     <g id="text_7">
      <!-- 24 -->
      <g transform="translate(1084.50979 387.848437) scale(0.1 -0.1)">
       <use xlink:href="#DejaVuSans-32"/>
       <use xlink:href="#DejaVuSans-34" x="63.623047"/>
      </g>
     </g>
    </g>
    <g id="text_8">
     <!-- Time Passed (hours) -->
     <g transform="translate(477.5125 412.164375) scale(0.24 -0.24)">
      <defs>
       <path id="DejaVuSans-54" d="M -19 4666 
L 3928 4666 
L 3928 4134 
L 2272 4134 
L 2272 0 
L 1638 0 
L 1638 4134 
L -19 4134 
L -19 4666 
z
" transform="scale(0.015625)"/>
       <path id="DejaVuSans-69" d="M 603 3500 
L 1178 3500 
L 1178 0 
L 603 0 
L 603 3500 
z
M 603 4863 
L 1178 4863 
L 1178 4134 
L 603 4134 
L 603 4863 
z
" transform="scale(0.015625)"/>
       <path id="DejaVuSans-6d" d="M 3328 2828 
Q 3544 3216 3844 3400 
Q 4144 3584 4550 3584 
Q 5097 3584 5394 3201 
Q 5691 2819 5691 2113 
L 5691 0 
L 5113 0 
L 5113 2094 
Q 5113 2597 4934 2840 
Q 4756 3084 4391 3084 
Q 3944 3084 3684 2787 
Q 3425 2491 3425 1978 
L 3425 0 
L 2847 0 
L 2847 2094 
Q 2847 2600 2669 2842 
Q 2491 3084 2119 3084 
Q 1678 3084 1418 2786 
Q 1159 2488 1159 1978 
L 1159 0 
L 581 0 
L 581 3500 
L 1159 3500 
L 1159 2956 
Q 1356 3278 1631 3431 
Q 1906 3584 2284 3584 
Q 2666 3584 2933 3390 
Q 3200 3197 3328 2828 
z
" transform="scale(0.015625)"/>
       <path id="DejaVuSans-65" d="M 3597 1894 
L 3597 1613 
L 953 1613 
Q 991 1019 1311 708 
Q 1631 397 2203 397 
Q 2534 397 2845 478 
Q 3156 559 3463 722 
L 3463 178 
Q 3153 47 2828 -22 
Q 2503 -91 2169 -91 
Q 1331 -91 842 396 
Q 353 884 353 1716 
Q 353 2575 817 3079 
Q 1281 3584 2069 3584 
Q 2775 3584 3186 3129 
Q 3597 2675 3597 1894 
z
M 3022 2063 
Q 3016 2534 2758 2815 
Q 2500 3097 2075 3097 
Q 1594 3097 1305 2825 
Q 1016 2553 972 2059 
L 3022 2063 
z
" transform="scale(0.015625)"/>
       <path id="DejaVuSans-20" transform="scale(0.015625)"/>
       <path id="DejaVuSans-50" d="M 1259 4147 
L 1259 2394 
L 2053 2394 
Q 2494 2394 2734 2622 
Q 2975 2850 2975 3272 
Q 2975 3691 2734 3919 
Q 2494 4147 2053 4147 
L 1259 4147 
z
M 628 4666 
L 2053 4666 
Q 2838 4666 3239 4311 
Q 3641 3956 3641 3272 
Q 3641 2581 3239 2228 
Q 2838 1875 2053 1875 
L 1259 1875 
L 1259 0 
L 628 0 
L 628 4666 
z
" transform="scale(0.015625)"/>
       <path id="DejaVuSans-61" d="M 2194 1759 
Q 1497 1759 1228 1600 
Q 959 1441 959 1056 
Q 959 750 1161 570 
Q 1363 391 1709 391 
Q 2188 391 2477 730 
Q 2766 1069 2766 1631 
L 2766 1759 
L 2194 1759 
z
M 3341 1997 
L 3341 0 
L 2766 0 
L 2766 531 
Q 2569 213 2275 61 
Q 1981 -91 1556 -91 
Q 1019 -91 701 211 
Q 384 513 384 1019 
Q 384 1609 779 1909 
Q 1175 2209 1959 2209 
L 2766 2209 
L 2766 2266 
Q 2766 2663 2505 2880 
Q 2244 3097 1772 3097 
Q 1472 3097 1187 3025 
Q 903 2953 641 2809 
L 641 3341 
Q 956 3463 1253 3523 
Q 1550 3584 1831 3584 
Q 2591 3584 2966 3190 
Q 3341 2797 3341 1997 
z
" transform="scale(0.015625)"/>
       <path id="DejaVuSans-73" d="M 2834 3397 
L 2834 2853 
Q 2591 2978 2328 3040 
Q 2066 3103 1784 3103 
Q 1356 3103 1142 2972 
Q 928 2841 928 2578 
Q 928 2378 1081 2264 
Q 1234 2150 1697 2047 
L 1894 2003 
Q 2506 1872 2764 1633 
Q 3022 1394 3022 966 
Q 3022 478 2636 193 
Q 2250 -91 1575 -91 
Q 1294 -91 989 -36 
Q 684 19 347 128 
L 347 722 
Q 666 556 975 473 
Q 1284 391 1588 391 
Q 1994 391 2212 530 
Q 2431 669 2431 922 
Q 2431 1156 2273 1281 
Q 2116 1406 1581 1522 
L 1381 1569 
Q 847 1681 609 1914 
Q 372 2147 372 2553 
Q 372 3047 722 3315 
Q 1072 3584 1716 3584 
Q 2034 3584 2315 3537 
Q 2597 3491 2834 3397 
z
" transform="scale(0.015625)"/>
       <path id="DejaVuSans-64" d="M 2906 2969 
L 2906 4863 
L 3481 4863 
L 3481 0 
L 2906 0 
L 2906 525 
Q 2725 213 2448 61 
Q 2172 -91 1784 -91 
Q 1150 -91 751 415 
Q 353 922 353 1747 
Q 353 2572 751 3078 
Q 1150 3584 1784 3584 
Q 2172 3584 2448 3432 
Q 2725 3281 2906 2969 
z
M 947 1747 
Q 947 1113 1208 752 
Q 1469 391 1925 391 
Q 2381 391 2643 752 
Q 2906 1113 2906 1747 
Q 2906 2381 2643 2742 
Q 2381 3103 1925 3103 
Q 1469 3103 1208 2742 
Q 947 2381 947 1747 
z
" transform="scale(0.015625)"/>
       <path id="DejaVuSans-28" d="M 1984 4856 
Q 1566 4138 1362 3434 
Q 1159 2731 1159 2009 
Q 1159 1288 1364 580 
Q 1569 -128 1984 -844 
L 1484 -844 
Q 1016 -109 783 600 
Q 550 1309 550 2009 
Q 550 2706 781 3412 
Q 1013 4119 1484 4856 
L 1984 4856 
z
" transform="scale(0.015625)"/>
       <path id="DejaVuSans-68" d="M 3513 2113 
L 3513 0 
L 2938 0 
L 2938 2094 
Q 2938 2591 2744 2837 
Q 2550 3084 2163 3084 
Q 1697 3084 1428 2787 
Q 1159 2491 1159 1978 
L 1159 0 
L 581 0 
L 581 4863 
L 1159 4863 
L 1159 2956 
Q 1366 3272 1645 3428 
Q 1925 3584 2291 3584 
Q 2894 3584 3203 3211 
Q 3513 2838 3513 2113 
z
" transform="scale(0.015625)"/>
       <path id="DejaVuSans-6f" d="M 1959 3097 
Q 1497 3097 1228 2736 
Q 959 2375 959 1747 
Q 959 1119 1226 758 
Q 1494 397 1959 397 
Q 2419 397 2687 759 
Q 2956 1122 2956 1747 
Q 2956 2369 2687 2733 
Q 2419 3097 1959 3097 
z
M 1959 3584 
Q 2709 3584 3137 3096 
Q 3566 2609 3566 1747 
Q 3566 888 3137 398 
Q 2709 -91 1959 -91 
Q 1206 -91 779 398 
Q 353 888 353 1747 
Q 353 2609 779 3096 
Q 1206 3584 1959 3584 
z
" transform="scale(0.015625)"/>
       <path id="DejaVuSans-75" d="M 544 1381 
L 544 3500 
L 1119 3500 
L 1119 1403 
Q 1119 906 1312 657 
Q 1506 409 1894 409 
Q 2359 409 2629 706 
Q 2900 1003 2900 1516 
L 2900 3500 
L 3475 3500 
L 3475 0 
L 2900 0 
L 2900 538 
Q 2691 219 2414 64 
Q 2138 -91 1772 -91 
Q 1169 -91 856 284 
Q 544 659 544 1381 
z
M 1991 3584 
L 1991 3584 
z
" transform="scale(0.015625)"/>
       <path id="DejaVuSans-72" d="M 2631 2963 
Q 2534 3019 2420 3045 
Q 2306 3072 2169 3072 
Q 1681 3072 1420 2755 
Q 1159 2438 1159 1844 
L 1159 0 
L 581 0 
L 581 3500 
L 1159 3500 
L 1159 2956 
Q 1341 3275 1631 3429 
Q 1922 3584 2338 3584 
Q 2397 3584 2469 3576 
Q 2541 3569 2628 3553 
L 2631 2963 
z
" transform="scale(0.015625)"/>
       <path id="DejaVuSans-29" d="M 513 4856 
L 1013 4856 
Q 1481 4119 1714 3412 
Q 1947 2706 1947 2009 
Q 1947 1309 1714 600 
Q 1481 -109 1013 -844 
L 513 -844 
Q 928 -128 1133 580 
Q 1338 1288 1338 2009 
Q 1338 2731 1133 3434 
Q 928 4138 513 4856 
z
" transform="scale(0.015625)"/>
      </defs>
      <use xlink:href="#DejaVuSans-54"/>
      <use xlink:href="#DejaVuSans-69" x="57.958984"/>
      <use xlink:href="#DejaVuSans-6d" x="85.742188"/>
      <use xlink:href="#DejaVuSans-65" x="183.154297"/>
      <use xlink:href="#DejaVuSans-20" x="244.677734"/>
      <use xlink:href="#DejaVuSans-50" x="276.464844"/>
      <use xlink:href="#DejaVuSans-61" x="332.267578"/>
      <use xlink:href="#DejaVuSans-73" x="393.546875"/>
      <use xlink:href="#DejaVuSans-73" x="445.646484"/>
      <use xlink:href="#DejaVuSans-65" x="497.746094"/>
      <use xlink:href="#DejaVuSans-64" x="559.269531"/>
      <use xlink:href="#DejaVuSans-20" x="622.746094"/>
      <use xlink:href="#DejaVuSans-28" x="654.533203"/>
      <use xlink:href="#DejaVuSans-68" x="693.546875"/>
      <use xlink:href="#DejaVuSans-6f" x="756.925781"/>
      <use xlink:href="#DejaVuSans-75" x="818.107422"/>
      <use xlink:href="#DejaVuSans-72" x="881.486328"/>
      <use xlink:href="#DejaVuSans-73" x="922.599609"/>
      <use xlink:href="#DejaVuSans-29" x="974.699219"/>
     </g>
    </g>
   </g>
   <g id="matplotlib.axis_2">
    <g id="ytick_1">
     <g id="line2d_15">
      <path d="M 60.515 373.25 
L 1137.795 373.25 
" clip-path="url(#p8e3865c56c)" style="fill: none; stroke-dasharray: 2.96,1.28; stroke-dashoffset: 0; stroke: #b0b0b0; stroke-opacity: 0.4; stroke-width: 0.8"/>
     </g>
     <g id="line2d_16">
      <defs>
       <path id="m5aee24d0bd" d="M 0 0 
L -3.5 0 
" style="stroke: #000000; stroke-width: 0.8"/>
      </defs>
      <g>
       <use xlink:href="#m5aee24d0bd" x="60.515" y="373.25" style="stroke: #000000; stroke-width: 0.8"/>
      </g>
     </g>
     <g id="text_9">
      <!-- 30 -->
      <g transform="translate(40.79 377.049219) scale(0.1 -0.1)">
       <defs>
        <path id="DejaVuSans-33" d="M 2597 2516 
Q 3050 2419 3304 2112 
Q 3559 1806 3559 1356 
Q 3559 666 3084 287 
Q 2609 -91 1734 -91 
Q 1441 -91 1130 -33 
Q 819 25 488 141 
L 488 750 
Q 750 597 1062 519 
Q 1375 441 1716 441 
Q 2309 441 2620 675 
Q 2931 909 2931 1356 
Q 2931 1769 2642 2001 
Q 2353 2234 1838 2234 
L 1294 2234 
L 1294 2753 
L 1863 2753 
Q 2328 2753 2575 2939 
Q 2822 3125 2822 3475 
Q 2822 3834 2567 4026 
Q 2313 4219 1838 4219 
Q 1578 4219 1281 4162 
Q 984 4106 628 3988 
L 628 4550 
Q 988 4650 1302 4700 
Q 1616 4750 1894 4750 
Q 2613 4750 3031 4423 
Q 3450 4097 3450 3541 
Q 3450 3153 3228 2886 
Q 3006 2619 2597 2516 
z
" transform="scale(0.015625)"/>
       </defs>
       <use xlink:href="#DejaVuSans-33"/>
       <use xlink:href="#DejaVuSans-30" x="63.623047"/>
      </g>
     </g>
    </g>
    <g id="ytick_2">
     <g id="line2d_17">
      <path d="M 60.515 325.381429 
L 1137.795 325.381429 
" clip-path="url(#p8e3865c56c)" style="fill: none; stroke-dasharray: 2.96,1.28; stroke-dashoffset: 0; stroke: #b0b0b0; stroke-opacity: 0.4; stroke-width: 0.8"/>
     </g>
     <g id="line2d_18">
      <g>
       <use xlink:href="#m5aee24d0bd" x="60.515" y="325.381429" style="stroke: #000000; stroke-width: 0.8"/>
      </g>
     </g>
     <g id="text_10">
      <!-- 40 -->
      <g transform="translate(40.79 329.180647) scale(0.1 -0.1)">
       <use xlink:href="#DejaVuSans-34"/>
       <use xlink:href="#DejaVuSans-30" x="63.623047"/>
      </g>
     </g>
    </g>
    <g id="ytick_3">
     <g id="line2d_19">
      <path d="M 60.515 277.512857 
L 1137.795 277.512857 
" clip-path="url(#p8e3865c56c)" style="fill: none; stroke-dasharray: 2.96,1.28; stroke-dashoffset: 0; stroke: #b0b0b0; stroke-opacity: 0.4; stroke-width: 0.8"/>
     </g>
     <g id="line2d_20">
      <g>
       <use xlink:href="#m5aee24d0bd" x="60.515" y="277.512857" style="stroke: #000000; stroke-width: 0.8"/>
      </g>
     </g>
     <g id="text_11">
      <!-- 50 -->
      <g transform="translate(40.79 281.312076) scale(0.1 -0.1)">
       <defs>
        <path id="DejaVuSans-35" d="M 691 4666 
L 3169 4666 
L 3169 4134 
L 1269 4134 
L 1269 2991 
Q 1406 3038 1543 3061 
Q 1681 3084 1819 3084 
Q 2600 3084 3056 2656 
Q 3513 2228 3513 1497 
Q 3513 744 3044 326 
Q 2575 -91 1722 -91 
Q 1428 -91 1123 -41 
Q 819 9 494 109 
L 494 744 
Q 775 591 1075 516 
Q 1375 441 1709 441 
Q 2250 441 2565 725 
Q 2881 1009 2881 1497 
Q 2881 1984 2565 2268 
Q 2250 2553 1709 2553 
Q 1456 2553 1204 2497 
Q 953 2441 691 2322 
L 691 4666 
z
" transform="scale(0.015625)"/>
       </defs>
       <use xlink:href="#DejaVuSans-35"/>
       <use xlink:href="#DejaVuSans-30" x="63.623047"/>
      </g>
     </g>
    </g>
    <g id="ytick_4">
     <g id="line2d_21">
      <path d="M 60.515 229.644286 
L 1137.795 229.644286 
" clip-path="url(#p8e3865c56c)" style="fill: none; stroke-dasharray: 2.96,1.28; stroke-dashoffset: 0; stroke: #b0b0b0; stroke-opacity: 0.4; stroke-width: 0.8"/>
     </g>
     <g id="line2d_22">
      <g>
       <use xlink:href="#m5aee24d0bd" x="60.515" y="229.644286" style="stroke: #000000; stroke-width: 0.8"/>
      </g>
     </g>
     <g id="text_12">
      <!-- 60 -->
      <g transform="translate(40.79 233.443504) scale(0.1 -0.1)">
       <use xlink:href="#DejaVuSans-36"/>
       <use xlink:href="#DejaVuSans-30" x="63.623047"/>
      </g>
     </g>
    </g>
    <g id="ytick_5">
     <g id="line2d_23">
      <path d="M 60.515 181.775714 
L 1137.795 181.775714 
" clip-path="url(#p8e3865c56c)" style="fill: none; stroke-dasharray: 2.96,1.28; stroke-dashoffset: 0; stroke: #b0b0b0; stroke-opacity: 0.4; stroke-width: 0.8"/>
     </g>
     <g id="line2d_24">
      <g>
       <use xlink:href="#m5aee24d0bd" x="60.515" y="181.775714" style="stroke: #000000; stroke-width: 0.8"/>
      </g>
     </g>
     <g id="text_13">
      <!-- 70 -->
      <g transform="translate(40.79 185.574933) scale(0.1 -0.1)">
       <defs>
        <path id="DejaVuSans-37" d="M 525 4666 
L 3525 4666 
L 3525 4397 
L 1831 0 
L 1172 0 
L 2766 4134 
L 525 4134 
L 525 4666 
z
" transform="scale(0.015625)"/>
       </defs>
       <use xlink:href="#DejaVuSans-37"/>
       <use xlink:href="#DejaVuSans-30" x="63.623047"/>
      </g>
     </g>
    </g>
    <g id="ytick_6">
     <g id="line2d_25">
      <path d="M 60.515 133.907143 
L 1137.795 133.907143 
" clip-path="url(#p8e3865c56c)" style="fill: none; stroke-dasharray: 2.96,1.28; stroke-dashoffset: 0; stroke: #b0b0b0; stroke-opacity: 0.4; stroke-width: 0.8"/>
     </g>
     <g id="line2d_26">
      <g>
       <use xlink:href="#m5aee24d0bd" x="60.515" y="133.907143" style="stroke: #000000; stroke-width: 0.8"/>
      </g>
     </g>
     <g id="text_14">
      <!-- 80 -->
      <g transform="translate(40.79 137.706362) scale(0.1 -0.1)">
       <use xlink:href="#DejaVuSans-38"/>
       <use xlink:href="#DejaVuSans-30" x="63.623047"/>
      </g>
     </g>
    </g>
    <g id="ytick_7">
     <g id="line2d_27">
      <path d="M 60.515 86.038571 
L 1137.795 86.038571 
" clip-path="url(#p8e3865c56c)" style="fill: none; stroke-dasharray: 2.96,1.28; stroke-dashoffset: 0; stroke: #b0b0b0; stroke-opacity: 0.4; stroke-width: 0.8"/>
     </g>
     <g id="line2d_28">
      <g>
       <use xlink:href="#m5aee24d0bd" x="60.515" y="86.038571" style="stroke: #000000; stroke-width: 0.8"/>
      </g>
     </g>
     <g id="text_15">
      <!-- 90 -->
      <g transform="translate(40.79 89.83779) scale(0.1 -0.1)">
       <defs>
        <path id="DejaVuSans-39" d="M 703 97 
L 703 672 
Q 941 559 1184 500 
Q 1428 441 1663 441 
Q 2288 441 2617 861 
Q 2947 1281 2994 2138 
Q 2813 1869 2534 1725 
Q 2256 1581 1919 1581 
Q 1219 1581 811 2004 
Q 403 2428 403 3163 
Q 403 3881 828 4315 
Q 1253 4750 1959 4750 
Q 2769 4750 3195 4129 
Q 3622 3509 3622 2328 
Q 3622 1225 3098 567 
Q 2575 -91 1691 -91 
Q 1453 -91 1209 -44 
Q 966 3 703 97 
z
M 1959 2075 
Q 2384 2075 2632 2365 
Q 2881 2656 2881 3163 
Q 2881 3666 2632 3958 
Q 2384 4250 1959 4250 
Q 1534 4250 1286 3958 
Q 1038 3666 1038 3163 
Q 1038 2656 1286 2365 
Q 1534 2075 1959 2075 
z
" transform="scale(0.015625)"/>
       </defs>
       <use xlink:href="#DejaVuSans-39"/>
       <use xlink:href="#DejaVuSans-30" x="63.623047"/>
      </g>
     </g>
    </g>
    <g id="ytick_8">
     <g id="line2d_29">
      <path d="M 60.515 38.17 
L 1137.795 38.17 
" clip-path="url(#p8e3865c56c)" style="fill: none; stroke-dasharray: 2.96,1.28; stroke-dashoffset: 0; stroke: #b0b0b0; stroke-opacity: 0.4; stroke-width: 0.8"/>
     </g>
     <g id="line2d_30">
      <g>
       <use xlink:href="#m5aee24d0bd" x="60.515" y="38.17" style="stroke: #000000; stroke-width: 0.8"/>
      </g>
     </g>
     <g id="text_16">
      <!-- 100 -->
      <g transform="translate(34.4275 41.969219) scale(0.1 -0.1)">
       <use xlink:href="#DejaVuSans-31"/>
       <use xlink:href="#DejaVuSans-30" x="63.623047"/>
       <use xlink:href="#DejaVuSans-30" x="127.246094"/>
      </g>
     </g>
    </g>
    <g id="text_17">
     <!-- Percent Correct -->
     <g transform="translate(25.43625 298.456875) rotate(-90) scale(0.24 -0.24)">
      <defs>
       <path id="DejaVuSans-63" d="M 3122 3366 
L 3122 2828 
Q 2878 2963 2633 3030 
Q 2388 3097 2138 3097 
Q 1578 3097 1268 2742 
Q 959 2388 959 1747 
Q 959 1106 1268 751 
Q 1578 397 2138 397 
Q 2388 397 2633 464 
Q 2878 531 3122 666 
L 3122 134 
Q 2881 22 2623 -34 
Q 2366 -91 2075 -91 
Q 1284 -91 818 406 
Q 353 903 353 1747 
Q 353 2603 823 3093 
Q 1294 3584 2113 3584 
Q 2378 3584 2631 3529 
Q 2884 3475 3122 3366 
z
" transform="scale(0.015625)"/>
       <path id="DejaVuSans-6e" d="M 3513 2113 
L 3513 0 
L 2938 0 
L 2938 2094 
Q 2938 2591 2744 2837 
Q 2550 3084 2163 3084 
Q 1697 3084 1428 2787 
Q 1159 2491 1159 1978 
L 1159 0 
L 581 0 
L 581 3500 
L 1159 3500 
L 1159 2956 
Q 1366 3272 1645 3428 
Q 1925 3584 2291 3584 
Q 2894 3584 3203 3211 
Q 3513 2838 3513 2113 
z
" transform="scale(0.015625)"/>
       <path id="DejaVuSans-74" d="M 1172 4494 
L 1172 3500 
L 2356 3500 
L 2356 3053 
L 1172 3053 
L 1172 1153 
Q 1172 725 1289 603 
Q 1406 481 1766 481 
L 2356 481 
L 2356 0 
L 1766 0 
Q 1100 0 847 248 
Q 594 497 594 1153 
L 594 3053 
L 172 3053 
L 172 3500 
L 594 3500 
L 594 4494 
L 1172 4494 
z
" transform="scale(0.015625)"/>
       <path id="DejaVuSans-43" d="M 4122 4306 
L 4122 3641 
Q 3803 3938 3442 4084 
Q 3081 4231 2675 4231 
Q 1875 4231 1450 3742 
Q 1025 3253 1025 2328 
Q 1025 1406 1450 917 
Q 1875 428 2675 428 
Q 3081 428 3442 575 
Q 3803 722 4122 1019 
L 4122 359 
Q 3791 134 3420 21 
Q 3050 -91 2638 -91 
Q 1578 -91 968 557 
Q 359 1206 359 2328 
Q 359 3453 968 4101 
Q 1578 4750 2638 4750 
Q 3056 4750 3426 4639 
Q 3797 4528 4122 4306 
z
" transform="scale(0.015625)"/>
      </defs>
      <use xlink:href="#DejaVuSans-50"/>
      <use xlink:href="#DejaVuSans-65" x="56.677734"/>
      <use xlink:href="#DejaVuSans-72" x="118.201172"/>
      <use xlink:href="#DejaVuSans-63" x="157.064453"/>
      <use xlink:href="#DejaVuSans-65" x="212.044922"/>
      <use xlink:href="#DejaVuSans-6e" x="273.568359"/>
      <use xlink:href="#DejaVuSans-74" x="336.947266"/>
      <use xlink:href="#DejaVuSans-20" x="376.15625"/>
      <use xlink:href="#DejaVuSans-43" x="407.943359"/>
      <use xlink:href="#DejaVuSans-6f" x="477.767578"/>
      <use xlink:href="#DejaVuSans-72" x="538.949219"/>
      <use xlink:href="#DejaVuSans-72" x="578.3125"/>
      <use xlink:href="#DejaVuSans-65" x="617.175781"/>
      <use xlink:href="#DejaVuSans-63" x="678.699219"/>
      <use xlink:href="#DejaVuSans-74" x="733.679688"/>
     </g>
    </g>
   </g>
   <g id="line2d_31">
    <path d="M 109.482273 257.395835 
L 111.526835 254.491343 
L 113.571398 247.807619 
L 115.61596 250.975085 
L 117.660523 244.149325 
L 119.705085 250.735546 
L 121.749648 249.546463 
L 123.79421 248.59479 
L 125.838773 245.507611 
L 127.883336 249.659981 
L 129.927898 251.175137 
L 131.972461 256.530171 
L 134.017023 251.265065 
L 136.061586 249.275133 
L 138.106148 246.517627 
L 140.150711 247.549134 
L 142.195273 248.844671 
L 144.239836 246.200006 
L 146.284398 245.897971 
L 148.328961 246.990574 
L 152.418086 249.874562 
L 154.462649 254.690731 
L 156.507211 255.315868 
L 158.551774 254.081397 
L 160.596336 254.27729 
L 162.640899 253.872354 
L 164.685461 250.065095 
L 166.730024 251.126932 
L 168.774586 247.286064 
L 170.819149 248.97399 
L 172.863711 248.867032 
L 174.908274 250.417286 
L 178.997399 252.395136 
L 181.041961 254.583439 
L 183.086524 255.099371 
L 185.131087 255.217587 
L 187.175649 253.111283 
L 189.220212 252.939552 
L 191.264774 253.644409 
L 193.309337 253.657215 
L 195.353899 253.200877 
L 197.398462 251.998216 
L 201.487587 250.116319 
L 203.532149 250.61605 
L 205.576712 252.354587 
L 207.621274 253.254811 
L 211.7104 251.250608 
L 213.754962 250.558056 
L 215.799525 251.493536 
L 217.844087 253.804842 
L 219.88865 253.238762 
L 221.933212 253.945836 
L 223.977775 253.898339 
L 226.022337 254.581321 
L 228.0669 255.078224 
L 230.111462 255.725955 
L 234.200587 255.854409 
L 236.24515 256.047674 
L 238.289712 255.010223 
L 240.334275 254.465404 
L 242.378838 255.714339 
L 244.4234 254.588796 
L 246.467963 254.184719 
L 248.512525 254.424069 
L 250.557088 254.382542 
L 252.60165 253.028258 
L 254.646213 252.578218 
L 256.690775 251.715347 
L 258.735338 251.169665 
L 260.7799 249.438639 
L 262.824463 249.133946 
L 264.869025 249.026555 
L 266.913588 248.734036 
L 268.958151 247.757238 
L 271.002713 248.083331 
L 273.047276 246.54038 
L 275.091838 246.476651 
L 277.136401 245.577967 
L 279.180963 244.192872 
L 281.225526 243.447729 
L 283.270088 242.042217 
L 285.314651 241.779026 
L 287.359213 240.836082 
L 289.403776 240.543739 
L 291.448338 238.906598 
L 293.492901 238.982656 
L 295.537463 237.576707 
L 297.582026 237.712073 
L 299.626589 236.338425 
L 301.671151 235.975222 
L 303.715714 234.906444 
L 305.760276 235.027903 
L 309.849401 233.00933 
L 311.893964 231.496268 
L 313.938526 230.575731 
L 318.027651 229.495607 
L 320.072214 227.973305 
L 322.116776 227.143608 
L 324.161339 226.781944 
L 328.250464 225.090285 
L 330.295027 225.120956 
L 332.339589 224.565009 
L 336.428714 223.011927 
L 338.473277 222.70209 
L 340.517839 220.446602 
L 342.562402 219.189764 
L 344.606964 218.824391 
L 346.651527 217.916797 
L 348.696089 217.293618 
L 350.740652 216.406908 
L 352.785214 215.385973 
L 354.829777 215.158284 
L 356.87434 215.049993 
L 358.918902 214.161129 
L 360.963465 213.95639 
L 363.008027 213.0327 
L 365.05259 213.192866 
L 369.141715 212.713436 
L 371.186277 212.083681 
L 375.275402 211.956521 
L 379.364527 211.383927 
L 381.40909 211.225017 
L 385.498215 210.09357 
L 387.542778 209.343205 
L 389.58734 209.07024 
L 391.631903 207.630385 
L 393.676465 206.359067 
L 395.721028 206.538514 
L 397.76559 207.887146 
L 399.810153 206.81259 
L 401.854715 205.970103 
L 403.899278 206.596463 
L 405.94384 207.076389 
L 407.988403 206.891758 
L 410.032965 207.45936 
L 412.077528 207.75154 
L 416.166653 207.347595 
L 420.255778 206.303371 
L 424.344903 205.319067 
L 426.389466 204.574687 
L 428.434028 204.229072 
L 432.523153 203.842656 
L 434.567716 203.713059 
L 436.612278 204.370924 
L 438.656841 204.274231 
L 440.701403 203.668675 
L 442.745966 203.360987 
L 444.790529 202.863242 
L 448.879654 203.743746 
L 450.924216 203.274612 
L 457.057904 202.487524 
L 459.102466 202.693194 
L 461.147029 202.300081 
L 463.191591 202.28741 
L 465.236154 202.46213 
L 471.369842 201.928657 
L 475.458967 201.483241 
L 477.503529 200.859954 
L 479.548092 200.574354 
L 483.637217 198.682239 
L 487.726342 198.624174 
L 489.770904 198.472959 
L 491.815467 199.376726 
L 493.860029 199.821937 
L 495.904592 199.566226 
L 497.949154 200.013547 
L 504.082842 200.728871 
L 506.127405 200.852089 
L 508.171967 200.730134 
L 510.21653 200.22877 
L 512.261092 199.934928 
L 514.305655 199.940644 
L 516.350217 200.067677 
L 518.39478 200.017114 
L 520.439342 199.833348 
L 522.483905 199.531904 
L 524.528467 199.63695 
L 526.57303 200.166933 
L 528.617593 200.368442 
L 530.662155 200.389239 
L 534.75128 200.271967 
L 536.795843 199.93331 
L 538.840405 199.841216 
L 540.884968 199.552253 
L 542.92953 199.573902 
L 547.018655 199.990625 
L 553.152343 199.426057 
L 561.330593 198.771176 
L 563.375156 198.347701 
L 567.464281 197.817981 
L 569.508843 197.697727 
L 571.553406 197.798884 
L 573.597968 197.606104 
L 575.642531 197.244832 
L 579.731656 197.530959 
L 581.776218 197.428036 
L 583.820781 197.654884 
L 585.865344 197.68003 
L 589.954469 197.497586 
L 591.999031 197.085146 
L 594.043594 196.883927 
L 596.088156 196.990658 
L 602.221844 196.815697 
L 606.310969 197.303875 
L 608.355531 197.103151 
L 610.400094 197.102517 
L 612.444656 197.699836 
L 614.489219 197.653563 
L 616.533782 198.667827 
L 618.578344 198.815177 
L 620.622907 198.691743 
L 624.712032 198.080374 
L 630.845719 197.645664 
L 632.890282 198.142531 
L 634.934844 197.885158 
L 636.979407 197.813149 
L 639.023969 197.942691 
L 641.068532 197.754172 
L 643.113095 198.469303 
L 645.157657 199.660507 
L 647.20222 200.186737 
L 649.246782 200.41851 
L 651.291345 200.363282 
L 655.38047 200.715112 
L 659.469595 200.503145 
L 661.514157 200.615982 
L 663.55872 200.230456 
L 675.826095 199.605266 
L 681.959783 199.67876 
L 688.09347 199.419727 
L 690.138033 199.461454 
L 694.227158 198.632413 
L 696.27172 198.48009 
L 700.360846 198.438593 
L 720.806471 197.486465 
L 724.895596 197.324205 
L 728.984721 197.114594 
L 731.029284 197.782628 
L 733.073846 197.853586 
L 735.118409 197.606076 
L 737.162971 197.587632 
L 739.207534 197.874978 
L 743.296659 197.753834 
L 747.385784 197.62398 
L 749.430346 197.187968 
L 751.474909 196.886779 
L 753.519471 196.747244 
L 755.564034 196.354863 
L 757.608597 196.483715 
L 759.653159 196.78627 
L 761.697722 197.493173 
L 767.831409 198.57612 
L 769.875972 198.773807 
L 771.920534 198.773947 
L 773.965097 198.434125 
L 780.098784 198.189108 
L 784.187909 198.189108 
L 788.277035 198.026661 
L 790.321597 198.026661 
L 794.410722 198.704944 
L 798.499847 198.784063 
L 806.678097 198.657084 
L 810.767222 198.162752 
L 818.945473 197.931013 
L 823.034598 198.047983 
L 829.168285 197.727226 
L 833.25741 197.781783 
L 839.391098 197.190794 
L 845.524786 196.938875 
L 847.569348 196.559864 
L 849.613911 195.690706 
L 851.658473 195.028129 
L 855.747598 194.672565 
L 857.792161 194.525401 
L 859.836723 194.491963 
L 863.925848 195.094274 
L 882.326911 194.297861 
L 886.416036 194.367712 
L 894.594286 194.124913 
L 900.727974 194.13529 
L 908.906224 193.865788 
L 910.950787 194.063311 
L 912.995349 194.042379 
L 915.039912 193.815714 
L 917.084474 193.973331 
L 919.129037 194.018047 
L 927.307287 193.124722 
L 933.440975 193.046544 
L 937.5301 192.725113 
L 949.797475 192.360572 
L 951.842037 192.441731 
L 955.931162 192.244937 
L 957.975725 192.207274 
L 960.020288 192.386897 
L 966.153975 191.912628 
L 974.332225 191.677298 
L 986.5996 191.59959 
L 988.644163 191.942164 
L 990.688726 192.062225 
L 998.866976 191.665586 
L 1000.911538 191.740916 
L 1011.134351 191.225948 
L 1013.178913 191.297258 
L 1017.268039 191.242185 
L 1019.312601 191.278835 
L 1021.357164 191.157588 
L 1025.446289 191.229238 
L 1047.936477 190.874185 
L 1052.025602 190.613361 
L 1054.070164 190.823263 
L 1056.114727 190.827817 
L 1058.159289 190.965193 
L 1064.292977 190.874249 
L 1066.337539 193.123119 
L 1068.382102 191.070028 
L 1070.426664 191.227588 
L 1074.51579 191.115749 
L 1076.560352 190.955714 
L 1078.604915 190.964848 
L 1080.649477 190.620508 
L 1082.69404 191.164231 
L 1084.738602 194.609758 
L 1088.827727 194.402408 
L 1088.827727 194.402408 
" clip-path="url(#p8e3865c56c)" style="fill: none; stroke: #425df5; stroke-width: 2; stroke-linecap: square"/>
   </g>
   <g id="patch_3">
    <path d="M 60.515 373.25 
L 60.515 38.17 
" style="fill: none; stroke: #000000; stroke-width: 0.8; stroke-linejoin: miter; stroke-linecap: square"/>
   </g>
   <g id="patch_4">
    <path d="M 1137.795 373.25 
L 1137.795 38.17 
" style="fill: none; stroke: #000000; stroke-width: 0.8; stroke-linejoin: miter; stroke-linecap: square"/>
   </g>
   <g id="patch_5">
    <path d="M 60.515 373.25 
L 1137.795 373.25 
" style="fill: none; stroke: #000000; stroke-width: 0.8; stroke-linejoin: miter; stroke-linecap: square"/>
   </g>
   <g id="patch_6">
    <path d="M 60.515 38.17 
L 1137.795 38.17 
" style="fill: none; stroke: #000000; stroke-width: 0.8; stroke-linejoin: miter; stroke-linecap: square"/>
   </g>
   <g id="text_18">
    <!-- Cumulative Accuracy for Cohort Wild Type Female -->
    <g transform="translate(199.4325 31.515) scale(0.32 -0.32)">
     <defs>
      <path id="DejaVuSans-6c" d="M 603 4863 
L 1178 4863 
L 1178 0 
L 603 0 
L 603 4863 
z
" transform="scale(0.015625)"/>
      <path id="DejaVuSans-76" d="M 191 3500 
L 800 3500 
L 1894 563 
L 2988 3500 
L 3597 3500 
L 2284 0 
L 1503 0 
L 191 3500 
z
" transform="scale(0.015625)"/>
      <path id="DejaVuSans-41" d="M 2188 4044 
L 1331 1722 
L 3047 1722 
L 2188 4044 
z
M 1831 4666 
L 2547 4666 
L 4325 0 
L 3669 0 
L 3244 1197 
L 1141 1197 
L 716 0 
L 50 0 
L 1831 4666 
z
" transform="scale(0.015625)"/>
      <path id="DejaVuSans-79" d="M 2059 -325 
Q 1816 -950 1584 -1140 
Q 1353 -1331 966 -1331 
L 506 -1331 
L 506 -850 
L 844 -850 
Q 1081 -850 1212 -737 
Q 1344 -625 1503 -206 
L 1606 56 
L 191 3500 
L 800 3500 
L 1894 763 
L 2988 3500 
L 3597 3500 
L 2059 -325 
z
" transform="scale(0.015625)"/>
      <path id="DejaVuSans-66" d="M 2375 4863 
L 2375 4384 
L 1825 4384 
Q 1516 4384 1395 4259 
Q 1275 4134 1275 3809 
L 1275 3500 
L 2222 3500 
L 2222 3053 
L 1275 3053 
L 1275 0 
L 697 0 
L 697 3053 
L 147 3053 
L 147 3500 
L 697 3500 
L 697 3744 
Q 697 4328 969 4595 
Q 1241 4863 1831 4863 
L 2375 4863 
z
" transform="scale(0.015625)"/>
      <path id="DejaVuSans-57" d="M 213 4666 
L 850 4666 
L 1831 722 
L 2809 4666 
L 3519 4666 
L 4500 722 
L 5478 4666 
L 6119 4666 
L 4947 0 
L 4153 0 
L 3169 4050 
L 2175 0 
L 1381 0 
L 213 4666 
z
" transform="scale(0.015625)"/>
      <path id="DejaVuSans-70" d="M 1159 525 
L 1159 -1331 
L 581 -1331 
L 581 3500 
L 1159 3500 
L 1159 2969 
Q 1341 3281 1617 3432 
Q 1894 3584 2278 3584 
Q 2916 3584 3314 3078 
Q 3713 2572 3713 1747 
Q 3713 922 3314 415 
Q 2916 -91 2278 -91 
Q 1894 -91 1617 61 
Q 1341 213 1159 525 
z
M 3116 1747 
Q 3116 2381 2855 2742 
Q 2594 3103 2138 3103 
Q 1681 3103 1420 2742 
Q 1159 2381 1159 1747 
Q 1159 1113 1420 752 
Q 1681 391 2138 391 
Q 2594 391 2855 752 
Q 3116 1113 3116 1747 
z
" transform="scale(0.015625)"/>
      <path id="DejaVuSans-46" d="M 628 4666 
L 3309 4666 
L 3309 4134 
L 1259 4134 
L 1259 2759 
L 3109 2759 
L 3109 2228 
L 1259 2228 
L 1259 0 
L 628 0 
L 628 4666 
z
" transform="scale(0.015625)"/>
     </defs>
     <use xlink:href="#DejaVuSans-43"/>
     <use xlink:href="#DejaVuSans-75" x="69.824219"/>
     <use xlink:href="#DejaVuSans-6d" x="133.203125"/>
     <use xlink:href="#DejaVuSans-75" x="230.615234"/>
     <use xlink:href="#DejaVuSans-6c" x="293.994141"/>
     <use xlink:href="#DejaVuSans-61" x="321.777344"/>
     <use xlink:href="#DejaVuSans-74" x="383.056641"/>
     <use xlink:href="#DejaVuSans-69" x="422.265625"/>
     <use xlink:href="#DejaVuSans-76" x="450.048828"/>
     <use xlink:href="#DejaVuSans-65" x="509.228516"/>
     <use xlink:href="#DejaVuSans-20" x="570.751953"/>
     <use xlink:href="#DejaVuSans-41" x="602.539062"/>
     <use xlink:href="#DejaVuSans-63" x="669.197266"/>
     <use xlink:href="#DejaVuSans-63" x="724.177734"/>
     <use xlink:href="#DejaVuSans-75" x="779.158203"/>
     <use xlink:href="#DejaVuSans-72" x="842.537109"/>
     <use xlink:href="#DejaVuSans-61" x="883.650391"/>
     <use xlink:href="#DejaVuSans-63" x="944.929688"/>
     <use xlink:href="#DejaVuSans-79" x="999.910156"/>
     <use xlink:href="#DejaVuSans-20" x="1059.089844"/>
     <use xlink:href="#DejaVuSans-66" x="1090.876953"/>
     <use xlink:href="#DejaVuSans-6f" x="1126.082031"/>
     <use xlink:href="#DejaVuSans-72" x="1187.263672"/>
     <use xlink:href="#DejaVuSans-20" x="1228.376953"/>
     <use xlink:href="#DejaVuSans-43" x="1260.164062"/>
     <use xlink:href="#DejaVuSans-6f" x="1329.988281"/>
     <use xlink:href="#DejaVuSans-68" x="1391.169922"/>
     <use xlink:href="#DejaVuSans-6f" x="1454.548828"/>
     <use xlink:href="#DejaVuSans-72" x="1515.730469"/>
     <use xlink:href="#DejaVuSans-74" x="1556.84375"/>
     <use xlink:href="#DejaVuSans-20" x="1596.052734"/>
     <use xlink:href="#DejaVuSans-57" x="1627.839844"/>
     <use xlink:href="#DejaVuSans-69" x="1724.466797"/>
     <use xlink:href="#DejaVuSans-6c" x="1752.25"/>
     <use xlink:href="#DejaVuSans-64" x="1780.033203"/>
     <use xlink:href="#DejaVuSans-20" x="1843.509766"/>
     <use xlink:href="#DejaVuSans-54" x="1875.296875"/>
     <use xlink:href="#DejaVuSans-79" x="1920.755859"/>
     <use xlink:href="#DejaVuSans-70" x="1979.935547"/>
     <use xlink:href="#DejaVuSans-65" x="2043.412109"/>
     <use xlink:href="#DejaVuSans-20" x="2104.935547"/>
     <use xlink:href="#DejaVuSans-46" x="2136.722656"/>
     <use xlink:href="#DejaVuSans-65" x="2188.742188"/>
     <use xlink:href="#DejaVuSans-6d" x="2250.265625"/>
     <use xlink:href="#DejaVuSans-61" x="2347.677734"/>
     <use xlink:href="#DejaVuSans-6c" x="2408.957031"/>
     <use xlink:href="#DejaVuSans-65" x="2436.740234"/>
    </g>
   </g>
   <g id="legend_1">
    <g id="patch_7">
     <path d="M 71.715 74.455 
L 323.6625 74.455 
Q 326.8625 74.455 326.8625 71.255 
L 326.8625 49.37 
Q 326.8625 46.17 323.6625 46.17 
L 71.715 46.17 
Q 68.515 46.17 68.515 49.37 
L 68.515 71.255 
Q 68.515 74.455 71.715 74.455 
z
" style="fill: #ffffff; opacity: 0.8; stroke: #cccccc; stroke-linejoin: miter"/>
    </g>
    <g id="line2d_32">
     <path d="M 74.915 59.1275 
L 90.915 59.1275 
L 106.915 59.1275 
" style="fill: none; stroke: #425df5; stroke-width: 2; stroke-linecap: square"/>
    </g>
    <g id="text_19">
     <!-- Wild Type Female (n=17) -->
     <g transform="translate(119.715 64.7275) scale(0.16 -0.16)">
      <defs>
       <path id="DejaVuSans-3d" d="M 678 2906 
L 4684 2906 
L 4684 2381 
L 678 2381 
L 678 2906 
z
M 678 1631 
L 4684 1631 
L 4684 1100 
L 678 1100 
L 678 1631 
z
" transform="scale(0.015625)"/>
      </defs>
      <use xlink:href="#DejaVuSans-57"/>
      <use xlink:href="#DejaVuSans-69" x="96.626953"/>
      <use xlink:href="#DejaVuSans-6c" x="124.410156"/>
      <use xlink:href="#DejaVuSans-64" x="152.193359"/>
      <use xlink:href="#DejaVuSans-20" x="215.669922"/>
      <use xlink:href="#DejaVuSans-54" x="247.457031"/>
      <use xlink:href="#DejaVuSans-79" x="292.916016"/>
      <use xlink:href="#DejaVuSans-70" x="352.095703"/>
      <use xlink:href="#DejaVuSans-65" x="415.572266"/>
      <use xlink:href="#DejaVuSans-20" x="477.095703"/>
      <use xlink:href="#DejaVuSans-46" x="508.882812"/>
      <use xlink:href="#DejaVuSans-65" x="560.902344"/>
      <use xlink:href="#DejaVuSans-6d" x="622.425781"/>
      <use xlink:href="#DejaVuSans-61" x="719.837891"/>
      <use xlink:href="#DejaVuSans-6c" x="781.117188"/>
      <use xlink:href="#DejaVuSans-65" x="808.900391"/>
      <use xlink:href="#DejaVuSans-20" x="870.423828"/>
      <use xlink:href="#DejaVuSans-28" x="902.210938"/>
      <use xlink:href="#DejaVuSans-6e" x="941.224609"/>
      <use xlink:href="#DejaVuSans-3d" x="1004.603516"/>
      <use xlink:href="#DejaVuSans-31" x="1088.392578"/>
      <use xlink:href="#DejaVuSans-37" x="1152.015625"/>
      <use xlink:href="#DejaVuSans-29" x="1215.638672"/>
     </g>
    </g>
   </g>
  </g>
 </g>
 <defs>
  <clipPath id="p8e3865c56c">
   <rect x="60.515" y="38.17" width="1077.28" height="335.08"/>
  </clipPath>
 </defs>
</svg>
