<?xml version="1.0" encoding="utf-8" standalone="no"?>
<!DOCTYPE svg PUBLIC "-//W3C//DTD SVG 1.1//EN"
  "http://www.w3.org/Graphics/SVG/1.1/DTD/svg11.dtd">
<svg xmlns:xlink="http://www.w3.org/1999/xlink" width="460.090625pt" height="402.464375pt" viewBox="0 0 460.090625 402.464375" xmlns="http://www.w3.org/2000/svg" version="1.1">
 <metadata>
  <rdf:RDF xmlns:dc="http://purl.org/dc/elements/1.1/" xmlns:cc="http://creativecommons.org/ns#" xmlns:rdf="http://www.w3.org/1999/02/22-rdf-syntax-ns#">
   <cc:Work>
    <dc:type rdf:resource="http://purl.org/dc/dcmitype/StillImage"/>
    <dc:date>2025-05-09T14:44:46.010958</dc:date>
    <dc:format>image/svg+xml</dc:format>
    <dc:creator>
     <cc:Agent>
      <dc:title>Matplotlib v3.8.3, https://matplotlib.org/</dc:title>
     </cc:Agent>
    </dc:creator>
   </cc:Work>
  </rdf:RDF>
 </metadata>
 <defs>
  <style type="text/css">*{stroke-linejoin: round; stroke-linecap: butt}</style>
 </defs>
 <g id="figure_1">
  <g id="patch_1">
   <path d="M 0 402.464375 
L 460.090625 402.464375 
L 460.090625 0 
L 0 0 
z
" style="fill: #ffffff"/>
  </g>
  <g id="axes_1">
   <g id="patch_2">
    <path d="M 62.645313 361.036875 
L 397.445312 361.036875 
L 397.445312 28.396875 
L 62.645313 28.396875 
z
" style="fill: #ffffff"/>
   </g>
   <g id="PolyCollection_1">
    <defs>
     <path id="mdcc688d4c1" d="M 256.570518 -56.5475 
L 203.520107 -56.5475 
L 202.19391 -59.602045 
L 200.860459 -62.656591 
L 199.524746 -65.711136 
L 198.191979 -68.765682 
L 196.867542 -71.820227 
L 195.556954 -74.874773 
L 194.265823 -77.929318 
L 192.999802 -80.983864 
L 191.764529 -84.038409 
L 190.565585 -87.092955 
L 189.408435 -90.1475 
L 188.298374 -93.202045 
L 187.240475 -96.256591 
L 186.239536 -99.311136 
L 185.30003 -102.365682 
L 184.426058 -105.420227 
L 183.6213 -108.474773 
L 182.888981 -111.529318 
L 182.231828 -114.583864 
L 181.652044 -117.638409 
L 181.151281 -120.692955 
L 180.730616 -123.7475 
L 180.390545 -126.802045 
L 180.130967 -129.856591 
L 179.951189 -132.911136 
L 179.849925 -135.965682 
L 179.825312 -139.020227 
L 179.874926 -142.074773 
L 179.9958 -145.129318 
L 180.184458 -148.183864 
L 180.436946 -151.238409 
L 180.748869 -154.292955 
L 181.115435 -157.3475 
L 181.531501 -160.402045 
L 181.99162 -163.456591 
L 182.4901 -166.511136 
L 183.021052 -169.565682 
L 183.578452 -172.620227 
L 184.156197 -175.674773 
L 184.748168 -178.729318 
L 185.348284 -181.783864 
L 185.950567 -184.838409 
L 186.549199 -187.892955 
L 187.138581 -190.9475 
L 187.713383 -194.002045 
L 188.268607 -197.056591 
L 188.799627 -200.111136 
L 189.302242 -203.165682 
L 189.772714 -206.220227 
L 190.207808 -209.274773 
L 190.604822 -212.329318 
L 190.961613 -215.383864 
L 191.276615 -218.438409 
L 191.548856 -221.492955 
L 191.777961 -224.5475 
L 191.964149 -227.602045 
L 192.108231 -230.656591 
L 192.211589 -233.711136 
L 192.276157 -236.765682 
L 192.30439 -239.820227 
L 192.299233 -242.874773 
L 192.264076 -245.929318 
L 192.20271 -248.983864 
L 192.119278 -252.038409 
L 192.01822 -255.092955 
L 191.904214 -258.1475 
L 191.782122 -261.202045 
L 191.656926 -264.256591 
L 191.533668 -267.311136 
L 191.417393 -270.365682 
L 191.31309 -273.420227 
L 191.225633 -276.474773 
L 191.159733 -279.529318 
L 191.119883 -282.583864 
L 191.110317 -285.638409 
L 191.134966 -288.692955 
L 191.197425 -291.7475 
L 191.300918 -294.802045 
L 191.448276 -297.856591 
L 191.641914 -300.911136 
L 191.883816 -303.965682 
L 192.175526 -307.020227 
L 192.518143 -310.074773 
L 192.912318 -313.129318 
L 193.358263 -316.183864 
L 193.855752 -319.238409 
L 194.404142 -322.292955 
L 195.002379 -325.3475 
L 195.649024 -328.402045 
L 196.342272 -331.456591 
L 197.079976 -334.511136 
L 197.859672 -337.565682 
L 198.678609 -340.620227 
L 199.53378 -343.674773 
L 200.421948 -346.729318 
L 201.339682 -349.783864 
L 202.283389 -352.838409 
L 203.249347 -355.892955 
L 204.233739 -358.9475 
L 255.856886 -358.9475 
L 255.856886 -358.9475 
L 256.841278 -355.892955 
L 257.807236 -352.838409 
L 258.750943 -349.783864 
L 259.668677 -346.729318 
L 260.556845 -343.674773 
L 261.412016 -340.620227 
L 262.230953 -337.565682 
L 263.010649 -334.511136 
L 263.748353 -331.456591 
L 264.441601 -328.402045 
L 265.088246 -325.3475 
L 265.686483 -322.292955 
L 266.234873 -319.238409 
L 266.732362 -316.183864 
L 267.178307 -313.129318 
L 267.572482 -310.074773 
L 267.915099 -307.020227 
L 268.206809 -303.965682 
L 268.448711 -300.911136 
L 268.642349 -297.856591 
L 268.789707 -294.802045 
L 268.8932 -291.7475 
L 268.955659 -288.692955 
L 268.980308 -285.638409 
L 268.970742 -282.583864 
L 268.930892 -279.529318 
L 268.864992 -276.474773 
L 268.777535 -273.420227 
L 268.673232 -270.365682 
L 268.556957 -267.311136 
L 268.433699 -264.256591 
L 268.308503 -261.202045 
L 268.186411 -258.1475 
L 268.072405 -255.092955 
L 267.971347 -252.038409 
L 267.887915 -248.983864 
L 267.826549 -245.929318 
L 267.791392 -242.874773 
L 267.786235 -239.820227 
L 267.814468 -236.765682 
L 267.879036 -233.711136 
L 267.982394 -230.656591 
L 268.126476 -227.602045 
L 268.312664 -224.5475 
L 268.541769 -221.492955 
L 268.81401 -218.438409 
L 269.129012 -215.383864 
L 269.485803 -212.329318 
L 269.882817 -209.274773 
L 270.317911 -206.220227 
L 270.788383 -203.165682 
L 271.290998 -200.111136 
L 271.822018 -197.056591 
L 272.377242 -194.002045 
L 272.952044 -190.9475 
L 273.541426 -187.892955 
L 274.140058 -184.838409 
L 274.742341 -181.783864 
L 275.342457 -178.729318 
L 275.934428 -175.674773 
L 276.512173 -172.620227 
L 277.069573 -169.565682 
L 277.600525 -166.511136 
L 278.099005 -163.456591 
L 278.559124 -160.402045 
L 278.97519 -157.3475 
L 279.341756 -154.292955 
L 279.653679 -151.238409 
L 279.906167 -148.183864 
L 280.094825 -145.129318 
L 280.215699 -142.074773 
L 280.265312 -139.020227 
L 280.2407 -135.965682 
L 280.139436 -132.911136 
L 279.959658 -129.856591 
L 279.70008 -126.802045 
L 279.360009 -123.7475 
L 278.939344 -120.692955 
L 278.438581 -117.638409 
L 277.858797 -114.583864 
L 277.201644 -111.529318 
L 276.469325 -108.474773 
L 275.664567 -105.420227 
L 274.790595 -102.365682 
L 273.851089 -99.311136 
L 272.85015 -96.256591 
L 271.792251 -93.202045 
L 270.68219 -90.1475 
L 269.52504 -87.092955 
L 268.326096 -84.038409 
L 267.090823 -80.983864 
L 265.824802 -77.929318 
L 264.533671 -74.874773 
L 263.223083 -71.820227 
L 261.898646 -68.765682 
L 260.565879 -65.711136 
L 259.230166 -62.656591 
L 257.896715 -59.602045 
L 256.570518 -56.5475 
z
" style="stroke: #000000; stroke-opacity: 0.6"/>
    </defs>
    <g clip-path="url(#pac093889b2)">
     <use xlink:href="#mdcc688d4c1" x="0" y="402.464375" style="fill: #38bcf5; fill-opacity: 0.6; stroke: #000000; stroke-opacity: 0.6"/>
    </g>
   </g>
   <g id="matplotlib.axis_1">
    <g id="xtick_1">
     <g id="line2d_1">
      <defs>
       <path id="m745fd8df39" d="M 0 0 
L 0 3.5 
" style="stroke: #000000; stroke-width: 0.8"/>
      </defs>
      <g>
       <use xlink:href="#m745fd8df39" x="230.045313" y="361.036875" style="stroke: #000000; stroke-width: 0.8"/>
      </g>
     </g>
     <g id="text_1">
      <!-- Female -->
      <g transform="translate(211.967969 375.635312) scale(0.1 -0.1)">
       <defs>
        <path id="DejaVuSans-46" d="M 628 4666 
L 3309 4666 
L 3309 4134 
L 1259 4134 
L 1259 2759 
L 3109 2759 
L 3109 2228 
L 1259 2228 
L 1259 0 
L 628 0 
L 628 4666 
z
" transform="scale(0.015625)"/>
        <path id="DejaVuSans-65" d="M 3597 1894 
L 3597 1613 
L 953 1613 
Q 991 1019 1311 708 
Q 1631 397 2203 397 
Q 2534 397 2845 478 
Q 3156 559 3463 722 
L 3463 178 
Q 3153 47 2828 -22 
Q 2503 -91 2169 -91 
Q 1331 -91 842 396 
Q 353 884 353 1716 
Q 353 2575 817 3079 
Q 1281 3584 2069 3584 
Q 2775 3584 3186 3129 
Q 3597 2675 3597 1894 
z
M 3022 2063 
Q 3016 2534 2758 2815 
Q 2500 3097 2075 3097 
Q 1594 3097 1305 2825 
Q 1016 2553 972 2059 
L 3022 2063 
z
" transform="scale(0.015625)"/>
        <path id="DejaVuSans-6d" d="M 3328 2828 
Q 3544 3216 3844 3400 
Q 4144 3584 4550 3584 
Q 5097 3584 5394 3201 
Q 5691 2819 5691 2113 
L 5691 0 
L 5113 0 
L 5113 2094 
Q 5113 2597 4934 2840 
Q 4756 3084 4391 3084 
Q 3944 3084 3684 2787 
Q 3425 2491 3425 1978 
L 3425 0 
L 2847 0 
L 2847 2094 
Q 2847 2600 2669 2842 
Q 2491 3084 2119 3084 
Q 1678 3084 1418 2786 
Q 1159 2488 1159 1978 
L 1159 0 
L 581 0 
L 581 3500 
L 1159 3500 
L 1159 2956 
Q 1356 3278 1631 3431 
Q 1906 3584 2284 3584 
Q 2666 3584 2933 3390 
Q 3200 3197 3328 2828 
z
" transform="scale(0.015625)"/>
        <path id="DejaVuSans-61" d="M 2194 1759 
Q 1497 1759 1228 1600 
Q 959 1441 959 1056 
Q 959 750 1161 570 
Q 1363 391 1709 391 
Q 2188 391 2477 730 
Q 2766 1069 2766 1631 
L 2766 1759 
L 2194 1759 
z
M 3341 1997 
L 3341 0 
L 2766 0 
L 2766 531 
Q 2569 213 2275 61 
Q 1981 -91 1556 -91 
Q 1019 -91 701 211 
Q 384 513 384 1019 
Q 384 1609 779 1909 
Q 1175 2209 1959 2209 
L 2766 2209 
L 2766 2266 
Q 2766 2663 2505 2880 
Q 2244 3097 1772 3097 
Q 1472 3097 1187 3025 
Q 903 2953 641 2809 
L 641 3341 
Q 956 3463 1253 3523 
Q 1550 3584 1831 3584 
Q 2591 3584 2966 3190 
Q 3341 2797 3341 1997 
z
" transform="scale(0.015625)"/>
        <path id="DejaVuSans-6c" d="M 603 4863 
L 1178 4863 
L 1178 0 
L 603 0 
L 603 4863 
z
" transform="scale(0.015625)"/>
       </defs>
       <use xlink:href="#DejaVuSans-46"/>
       <use xlink:href="#DejaVuSans-65" x="52.019531"/>
       <use xlink:href="#DejaVuSans-6d" x="113.542969"/>
       <use xlink:href="#DejaVuSans-61" x="210.955078"/>
       <use xlink:href="#DejaVuSans-6c" x="272.234375"/>
       <use xlink:href="#DejaVuSans-65" x="300.017578"/>
      </g>
     </g>
    </g>
    <g id="text_2">
     <!-- Groups -->
     <g transform="translate(205.091406 392.352812) scale(0.14 -0.14)">
      <defs>
       <path id="DejaVuSans-47" d="M 3809 666 
L 3809 1919 
L 2778 1919 
L 2778 2438 
L 4434 2438 
L 4434 434 
Q 4069 175 3628 42 
Q 3188 -91 2688 -91 
Q 1594 -91 976 548 
Q 359 1188 359 2328 
Q 359 3472 976 4111 
Q 1594 4750 2688 4750 
Q 3144 4750 3555 4637 
Q 3966 4525 4313 4306 
L 4313 3634 
Q 3963 3931 3569 4081 
Q 3175 4231 2741 4231 
Q 1884 4231 1454 3753 
Q 1025 3275 1025 2328 
Q 1025 1384 1454 906 
Q 1884 428 2741 428 
Q 3075 428 3337 486 
Q 3600 544 3809 666 
z
" transform="scale(0.015625)"/>
       <path id="DejaVuSans-72" d="M 2631 2963 
Q 2534 3019 2420 3045 
Q 2306 3072 2169 3072 
Q 1681 3072 1420 2755 
Q 1159 2438 1159 1844 
L 1159 0 
L 581 0 
L 581 3500 
L 1159 3500 
L 1159 2956 
Q 1341 3275 1631 3429 
Q 1922 3584 2338 3584 
Q 2397 3584 2469 3576 
Q 2541 3569 2628 3553 
L 2631 2963 
z
" transform="scale(0.015625)"/>
       <path id="DejaVuSans-6f" d="M 1959 3097 
Q 1497 3097 1228 2736 
Q 959 2375 959 1747 
Q 959 1119 1226 758 
Q 1494 397 1959 397 
Q 2419 397 2687 759 
Q 2956 1122 2956 1747 
Q 2956 2369 2687 2733 
Q 2419 3097 1959 3097 
z
M 1959 3584 
Q 2709 3584 3137 3096 
Q 3566 2609 3566 1747 
Q 3566 888 3137 398 
Q 2709 -91 1959 -91 
Q 1206 -91 779 398 
Q 353 888 353 1747 
Q 353 2609 779 3096 
Q 1206 3584 1959 3584 
z
" transform="scale(0.015625)"/>
       <path id="DejaVuSans-75" d="M 544 1381 
L 544 3500 
L 1119 3500 
L 1119 1403 
Q 1119 906 1312 657 
Q 1506 409 1894 409 
Q 2359 409 2629 706 
Q 2900 1003 2900 1516 
L 2900 3500 
L 3475 3500 
L 3475 0 
L 2900 0 
L 2900 538 
Q 2691 219 2414 64 
Q 2138 -91 1772 -91 
Q 1169 -91 856 284 
Q 544 659 544 1381 
z
M 1991 3584 
L 1991 3584 
z
" transform="scale(0.015625)"/>
       <path id="DejaVuSans-70" d="M 1159 525 
L 1159 -1331 
L 581 -1331 
L 581 3500 
L 1159 3500 
L 1159 2969 
Q 1341 3281 1617 3432 
Q 1894 3584 2278 3584 
Q 2916 3584 3314 3078 
Q 3713 2572 3713 1747 
Q 3713 922 3314 415 
Q 2916 -91 2278 -91 
Q 1894 -91 1617 61 
Q 1341 213 1159 525 
z
M 3116 1747 
Q 3116 2381 2855 2742 
Q 2594 3103 2138 3103 
Q 1681 3103 1420 2742 
Q 1159 2381 1159 1747 
Q 1159 1113 1420 752 
Q 1681 391 2138 391 
Q 2594 391 2855 752 
Q 3116 1113 3116 1747 
z
" transform="scale(0.015625)"/>
       <path id="DejaVuSans-73" d="M 2834 3397 
L 2834 2853 
Q 2591 2978 2328 3040 
Q 2066 3103 1784 3103 
Q 1356 3103 1142 2972 
Q 928 2841 928 2578 
Q 928 2378 1081 2264 
Q 1234 2150 1697 2047 
L 1894 2003 
Q 2506 1872 2764 1633 
Q 3022 1394 3022 966 
Q 3022 478 2636 193 
Q 2250 -91 1575 -91 
Q 1294 -91 989 -36 
Q 684 19 347 128 
L 347 722 
Q 666 556 975 473 
Q 1284 391 1588 391 
Q 1994 391 2212 530 
Q 2431 669 2431 922 
Q 2431 1156 2273 1281 
Q 2116 1406 1581 1522 
L 1381 1569 
Q 847 1681 609 1914 
Q 372 2147 372 2553 
Q 372 3047 722 3315 
Q 1072 3584 1716 3584 
Q 2034 3584 2315 3537 
Q 2597 3491 2834 3397 
z
" transform="scale(0.015625)"/>
      </defs>
      <use xlink:href="#DejaVuSans-47"/>
      <use xlink:href="#DejaVuSans-72" x="77.490234"/>
      <use xlink:href="#DejaVuSans-6f" x="116.353516"/>
      <use xlink:href="#DejaVuSans-75" x="177.535156"/>
      <use xlink:href="#DejaVuSans-70" x="240.914062"/>
      <use xlink:href="#DejaVuSans-73" x="304.390625"/>
     </g>
    </g>
   </g>
   <g id="matplotlib.axis_2">
    <g id="ytick_1">
     <g id="line2d_2">
      <defs>
       <path id="m345706087c" d="M 0 0 
L -3.5 0 
" style="stroke: #000000; stroke-width: 0.8"/>
      </defs>
      <g>
       <use xlink:href="#m345706087c" x="62.645313" y="334.873116" style="stroke: #000000; stroke-width: 0.8"/>
      </g>
     </g>
     <g id="text_3">
      <!-- 1.0 -->
      <g transform="translate(39.742188 338.672335) scale(0.1 -0.1)">
       <defs>
        <path id="DejaVuSans-31" d="M 794 531 
L 1825 531 
L 1825 4091 
L 703 3866 
L 703 4441 
L 1819 4666 
L 2450 4666 
L 2450 531 
L 3481 531 
L 3481 0 
L 794 0 
L 794 531 
z
" transform="scale(0.015625)"/>
        <path id="DejaVuSans-2e" d="M 684 794 
L 1344 794 
L 1344 0 
L 684 0 
L 684 794 
z
" transform="scale(0.015625)"/>
        <path id="DejaVuSans-30" d="M 2034 4250 
Q 1547 4250 1301 3770 
Q 1056 3291 1056 2328 
Q 1056 1369 1301 889 
Q 1547 409 2034 409 
Q 2525 409 2770 889 
Q 3016 1369 3016 2328 
Q 3016 3291 2770 3770 
Q 2525 4250 2034 4250 
z
M 2034 4750 
Q 2819 4750 3233 4129 
Q 3647 3509 3647 2328 
Q 3647 1150 3233 529 
Q 2819 -91 2034 -91 
Q 1250 -91 836 529 
Q 422 1150 422 2328 
Q 422 3509 836 4129 
Q 1250 4750 2034 4750 
z
" transform="scale(0.015625)"/>
       </defs>
       <use xlink:href="#DejaVuSans-31"/>
       <use xlink:href="#DejaVuSans-2e" x="63.623047"/>
       <use xlink:href="#DejaVuSans-30" x="95.410156"/>
      </g>
     </g>
    </g>
    <g id="ytick_2">
     <g id="line2d_3">
      <g>
       <use xlink:href="#m345706087c" x="62.645313" y="294.353821" style="stroke: #000000; stroke-width: 0.8"/>
      </g>
     </g>
     <g id="text_4">
      <!-- 1.5 -->
      <g transform="translate(39.742188 298.15304) scale(0.1 -0.1)">
       <defs>
        <path id="DejaVuSans-35" d="M 691 4666 
L 3169 4666 
L 3169 4134 
L 1269 4134 
L 1269 2991 
Q 1406 3038 1543 3061 
Q 1681 3084 1819 3084 
Q 2600 3084 3056 2656 
Q 3513 2228 3513 1497 
Q 3513 744 3044 326 
Q 2575 -91 1722 -91 
Q 1428 -91 1123 -41 
Q 819 9 494 109 
L 494 744 
Q 775 591 1075 516 
Q 1375 441 1709 441 
Q 2250 441 2565 725 
Q 2881 1009 2881 1497 
Q 2881 1984 2565 2268 
Q 2250 2553 1709 2553 
Q 1456 2553 1204 2497 
Q 953 2441 691 2322 
L 691 4666 
z
" transform="scale(0.015625)"/>
       </defs>
       <use xlink:href="#DejaVuSans-31"/>
       <use xlink:href="#DejaVuSans-2e" x="63.623047"/>
       <use xlink:href="#DejaVuSans-35" x="95.410156"/>
      </g>
     </g>
    </g>
    <g id="ytick_3">
     <g id="line2d_4">
      <g>
       <use xlink:href="#m345706087c" x="62.645313" y="253.834526" style="stroke: #000000; stroke-width: 0.8"/>
      </g>
     </g>
     <g id="text_5">
      <!-- 2.0 -->
      <g transform="translate(39.742188 257.633745) scale(0.1 -0.1)">
       <defs>
        <path id="DejaVuSans-32" d="M 1228 531 
L 3431 531 
L 3431 0 
L 469 0 
L 469 531 
Q 828 903 1448 1529 
Q 2069 2156 2228 2338 
Q 2531 2678 2651 2914 
Q 2772 3150 2772 3378 
Q 2772 3750 2511 3984 
Q 2250 4219 1831 4219 
Q 1534 4219 1204 4116 
Q 875 4013 500 3803 
L 500 4441 
Q 881 4594 1212 4672 
Q 1544 4750 1819 4750 
Q 2544 4750 2975 4387 
Q 3406 4025 3406 3419 
Q 3406 3131 3298 2873 
Q 3191 2616 2906 2266 
Q 2828 2175 2409 1742 
Q 1991 1309 1228 531 
z
" transform="scale(0.015625)"/>
       </defs>
       <use xlink:href="#DejaVuSans-32"/>
       <use xlink:href="#DejaVuSans-2e" x="63.623047"/>
       <use xlink:href="#DejaVuSans-30" x="95.410156"/>
      </g>
     </g>
    </g>
    <g id="ytick_4">
     <g id="line2d_5">
      <g>
       <use xlink:href="#m345706087c" x="62.645313" y="213.315231" style="stroke: #000000; stroke-width: 0.8"/>
      </g>
     </g>
     <g id="text_6">
      <!-- 2.5 -->
      <g transform="translate(39.742188 217.11445) scale(0.1 -0.1)">
       <use xlink:href="#DejaVuSans-32"/>
       <use xlink:href="#DejaVuSans-2e" x="63.623047"/>
       <use xlink:href="#DejaVuSans-35" x="95.410156"/>
      </g>
     </g>
    </g>
    <g id="ytick_5">
     <g id="line2d_6">
      <g>
       <use xlink:href="#m345706087c" x="62.645313" y="172.795936" style="stroke: #000000; stroke-width: 0.8"/>
      </g>
     </g>
     <g id="text_7">
      <!-- 3.0 -->
      <g transform="translate(39.742188 176.595155) scale(0.1 -0.1)">
       <defs>
        <path id="DejaVuSans-33" d="M 2597 2516 
Q 3050 2419 3304 2112 
Q 3559 1806 3559 1356 
Q 3559 666 3084 287 
Q 2609 -91 1734 -91 
Q 1441 -91 1130 -33 
Q 819 25 488 141 
L 488 750 
Q 750 597 1062 519 
Q 1375 441 1716 441 
Q 2309 441 2620 675 
Q 2931 909 2931 1356 
Q 2931 1769 2642 2001 
Q 2353 2234 1838 2234 
L 1294 2234 
L 1294 2753 
L 1863 2753 
Q 2328 2753 2575 2939 
Q 2822 3125 2822 3475 
Q 2822 3834 2567 4026 
Q 2313 4219 1838 4219 
Q 1578 4219 1281 4162 
Q 984 4106 628 3988 
L 628 4550 
Q 988 4650 1302 4700 
Q 1616 4750 1894 4750 
Q 2613 4750 3031 4423 
Q 3450 4097 3450 3541 
Q 3450 3153 3228 2886 
Q 3006 2619 2597 2516 
z
" transform="scale(0.015625)"/>
       </defs>
       <use xlink:href="#DejaVuSans-33"/>
       <use xlink:href="#DejaVuSans-2e" x="63.623047"/>
       <use xlink:href="#DejaVuSans-30" x="95.410156"/>
      </g>
     </g>
    </g>
    <g id="ytick_6">
     <g id="line2d_7">
      <g>
       <use xlink:href="#m345706087c" x="62.645313" y="132.276642" style="stroke: #000000; stroke-width: 0.8"/>
      </g>
     </g>
     <g id="text_8">
      <!-- 3.5 -->
      <g transform="translate(39.742188 136.07586) scale(0.1 -0.1)">
       <use xlink:href="#DejaVuSans-33"/>
       <use xlink:href="#DejaVuSans-2e" x="63.623047"/>
       <use xlink:href="#DejaVuSans-35" x="95.410156"/>
      </g>
     </g>
    </g>
    <g id="ytick_7">
     <g id="line2d_8">
      <g>
       <use xlink:href="#m345706087c" x="62.645313" y="91.757347" style="stroke: #000000; stroke-width: 0.8"/>
      </g>
     </g>
     <g id="text_9">
      <!-- 4.0 -->
      <g transform="translate(39.742188 95.556565) scale(0.1 -0.1)">
       <defs>
        <path id="DejaVuSans-34" d="M 2419 4116 
L 825 1625 
L 2419 1625 
L 2419 4116 
z
M 2253 4666 
L 3047 4666 
L 3047 1625 
L 3713 1625 
L 3713 1100 
L 3047 1100 
L 3047 0 
L 2419 0 
L 2419 1100 
L 313 1100 
L 313 1709 
L 2253 4666 
z
" transform="scale(0.015625)"/>
       </defs>
       <use xlink:href="#DejaVuSans-34"/>
       <use xlink:href="#DejaVuSans-2e" x="63.623047"/>
       <use xlink:href="#DejaVuSans-30" x="95.410156"/>
      </g>
     </g>
    </g>
    <g id="ytick_8">
     <g id="line2d_9">
      <g>
       <use xlink:href="#m345706087c" x="62.645313" y="51.238052" style="stroke: #000000; stroke-width: 0.8"/>
      </g>
     </g>
     <g id="text_10">
      <!-- 4.5 -->
      <g transform="translate(39.742188 55.037271) scale(0.1 -0.1)">
       <use xlink:href="#DejaVuSans-34"/>
       <use xlink:href="#DejaVuSans-2e" x="63.623047"/>
       <use xlink:href="#DejaVuSans-35" x="95.410156"/>
      </g>
     </g>
    </g>
    <g id="text_11">
     <!-- First Good Meal Time (hours) -->
     <g transform="translate(32.830625 295.631719) rotate(-90) scale(0.14 -0.14)">
      <defs>
       <path id="DejaVuSans-69" d="M 603 3500 
L 1178 3500 
L 1178 0 
L 603 0 
L 603 3500 
z
M 603 4863 
L 1178 4863 
L 1178 4134 
L 603 4134 
L 603 4863 
z
" transform="scale(0.015625)"/>
       <path id="DejaVuSans-74" d="M 1172 4494 
L 1172 3500 
L 2356 3500 
L 2356 3053 
L 1172 3053 
L 1172 1153 
Q 1172 725 1289 603 
Q 1406 481 1766 481 
L 2356 481 
L 2356 0 
L 1766 0 
Q 1100 0 847 248 
Q 594 497 594 1153 
L 594 3053 
L 172 3053 
L 172 3500 
L 594 3500 
L 594 4494 
L 1172 4494 
z
" transform="scale(0.015625)"/>
       <path id="DejaVuSans-20" transform="scale(0.015625)"/>
       <path id="DejaVuSans-64" d="M 2906 2969 
L 2906 4863 
L 3481 4863 
L 3481 0 
L 2906 0 
L 2906 525 
Q 2725 213 2448 61 
Q 2172 -91 1784 -91 
Q 1150 -91 751 415 
Q 353 922 353 1747 
Q 353 2572 751 3078 
Q 1150 3584 1784 3584 
Q 2172 3584 2448 3432 
Q 2725 3281 2906 2969 
z
M 947 1747 
Q 947 1113 1208 752 
Q 1469 391 1925 391 
Q 2381 391 2643 752 
Q 2906 1113 2906 1747 
Q 2906 2381 2643 2742 
Q 2381 3103 1925 3103 
Q 1469 3103 1208 2742 
Q 947 2381 947 1747 
z
" transform="scale(0.015625)"/>
       <path id="DejaVuSans-4d" d="M 628 4666 
L 1569 4666 
L 2759 1491 
L 3956 4666 
L 4897 4666 
L 4897 0 
L 4281 0 
L 4281 4097 
L 3078 897 
L 2444 897 
L 1241 4097 
L 1241 0 
L 628 0 
L 628 4666 
z
" transform="scale(0.015625)"/>
       <path id="DejaVuSans-54" d="M -19 4666 
L 3928 4666 
L 3928 4134 
L 2272 4134 
L 2272 0 
L 1638 0 
L 1638 4134 
L -19 4134 
L -19 4666 
z
" transform="scale(0.015625)"/>
       <path id="DejaVuSans-28" d="M 1984 4856 
Q 1566 4138 1362 3434 
Q 1159 2731 1159 2009 
Q 1159 1288 1364 580 
Q 1569 -128 1984 -844 
L 1484 -844 
Q 1016 -109 783 600 
Q 550 1309 550 2009 
Q 550 2706 781 3412 
Q 1013 4119 1484 4856 
L 1984 4856 
z
" transform="scale(0.015625)"/>
       <path id="DejaVuSans-68" d="M 3513 2113 
L 3513 0 
L 2938 0 
L 2938 2094 
Q 2938 2591 2744 2837 
Q 2550 3084 2163 3084 
Q 1697 3084 1428 2787 
Q 1159 2491 1159 1978 
L 1159 0 
L 581 0 
L 581 4863 
L 1159 4863 
L 1159 2956 
Q 1366 3272 1645 3428 
Q 1925 3584 2291 3584 
Q 2894 3584 3203 3211 
Q 3513 2838 3513 2113 
z
" transform="scale(0.015625)"/>
       <path id="DejaVuSans-29" d="M 513 4856 
L 1013 4856 
Q 1481 4119 1714 3412 
Q 1947 2706 1947 2009 
Q 1947 1309 1714 600 
Q 1481 -109 1013 -844 
L 513 -844 
Q 928 -128 1133 580 
Q 1338 1288 1338 2009 
Q 1338 2731 1133 3434 
Q 928 4138 513 4856 
z
" transform="scale(0.015625)"/>
      </defs>
      <use xlink:href="#DejaVuSans-46"/>
      <use xlink:href="#DejaVuSans-69" x="50.269531"/>
      <use xlink:href="#DejaVuSans-72" x="78.052734"/>
      <use xlink:href="#DejaVuSans-73" x="119.166016"/>
      <use xlink:href="#DejaVuSans-74" x="171.265625"/>
      <use xlink:href="#DejaVuSans-20" x="210.474609"/>
      <use xlink:href="#DejaVuSans-47" x="242.261719"/>
      <use xlink:href="#DejaVuSans-6f" x="319.751953"/>
      <use xlink:href="#DejaVuSans-6f" x="380.933594"/>
      <use xlink:href="#DejaVuSans-64" x="442.115234"/>
      <use xlink:href="#DejaVuSans-20" x="505.591797"/>
      <use xlink:href="#DejaVuSans-4d" x="537.378906"/>
      <use xlink:href="#DejaVuSans-65" x="623.658203"/>
      <use xlink:href="#DejaVuSans-61" x="685.181641"/>
      <use xlink:href="#DejaVuSans-6c" x="746.460938"/>
      <use xlink:href="#DejaVuSans-20" x="774.244141"/>
      <use xlink:href="#DejaVuSans-54" x="806.03125"/>
      <use xlink:href="#DejaVuSans-69" x="863.990234"/>
      <use xlink:href="#DejaVuSans-6d" x="891.773438"/>
      <use xlink:href="#DejaVuSans-65" x="989.185547"/>
      <use xlink:href="#DejaVuSans-20" x="1050.708984"/>
      <use xlink:href="#DejaVuSans-28" x="1082.496094"/>
      <use xlink:href="#DejaVuSans-68" x="1121.509766"/>
      <use xlink:href="#DejaVuSans-6f" x="1184.888672"/>
      <use xlink:href="#DejaVuSans-75" x="1246.070312"/>
      <use xlink:href="#DejaVuSans-72" x="1309.449219"/>
      <use xlink:href="#DejaVuSans-73" x="1350.5625"/>
      <use xlink:href="#DejaVuSans-29" x="1402.662109"/>
     </g>
    </g>
   </g>
   <g id="patch_3">
    <path d="M 204.935313 280.99596 
L 255.155312 280.99596 
L 255.155312 123.344388 
L 204.935313 123.344388 
L 204.935313 280.99596 
z
" clip-path="url(#pac093889b2)" style="fill: #ffffff; stroke: #000000; stroke-linejoin: miter"/>
   </g>
   <g id="line2d_10">
    <path d="M 230.045313 280.99596 
L 230.045313 345.916875 
" clip-path="url(#pac093889b2)" style="fill: none; stroke: #000000; stroke-linecap: square"/>
   </g>
   <g id="line2d_11">
    <path d="M 230.045313 123.344388 
L 230.045313 43.516875 
" clip-path="url(#pac093889b2)" style="fill: none; stroke: #000000; stroke-linecap: square"/>
   </g>
   <g id="line2d_12">
    <path d="M 217.490313 345.916875 
L 242.600313 345.916875 
" clip-path="url(#pac093889b2)" style="fill: none; stroke: #000000; stroke-linecap: square"/>
   </g>
   <g id="line2d_13">
    <path d="M 217.490313 43.516875 
L 242.600313 43.516875 
" clip-path="url(#pac093889b2)" style="fill: none; stroke: #000000; stroke-linecap: square"/>
   </g>
   <g id="line2d_14">
    <path d="M 204.935313 212.738957 
L 255.155312 212.738957 
" clip-path="url(#pac093889b2)" style="fill: none; stroke: #000000"/>
   </g>
   <g id="patch_4">
    <path d="M 62.645313 361.036875 
L 62.645313 28.396875 
" style="fill: none; stroke: #000000; stroke-width: 0.8; stroke-linejoin: miter; stroke-linecap: square"/>
   </g>
   <g id="patch_5">
    <path d="M 397.445312 361.036875 
L 397.445312 28.396875 
" style="fill: none; stroke: #000000; stroke-width: 0.8; stroke-linejoin: miter; stroke-linecap: square"/>
   </g>
   <g id="patch_6">
    <path d="M 62.645313 361.036875 
L 397.445312 361.036875 
" style="fill: none; stroke: #000000; stroke-width: 0.8; stroke-linejoin: miter; stroke-linecap: square"/>
   </g>
   <g id="patch_7">
    <path d="M 62.645313 28.396875 
L 397.445312 28.396875 
" style="fill: none; stroke: #000000; stroke-width: 0.8; stroke-linejoin: miter; stroke-linecap: square"/>
   </g>
   <g id="PathCollection_1">
    <defs>
     <path id="m378bb86c40" d="M 0 3 
C 0.795609 3 1.55874 2.683901 2.12132 2.12132 
C 2.683901 1.55874 3 0.795609 3 0 
C 3 -0.795609 2.683901 -1.55874 2.12132 -2.12132 
C 1.55874 -2.683901 0.795609 -3 0 -3 
C -0.795609 -3 -1.55874 -2.683901 -2.12132 -2.12132 
C -2.683901 -1.55874 -3 -0.795609 -3 0 
C -3 0.795609 -2.683901 1.55874 -2.12132 2.12132 
C -1.55874 2.683901 -0.795609 3 0 3 
z
" style="stroke: #0000ff; stroke-opacity: 0.8"/>
    </defs>
    <g clip-path="url(#pac093889b2)">
     <use xlink:href="#m378bb86c40" x="227.784671" y="212.738957" style="fill: #0000ff; fill-opacity: 0.8; stroke: #0000ff; stroke-opacity: 0.8"/>
     <use xlink:href="#m378bb86c40" x="225.11114" y="61.610991" style="fill: #0000ff; fill-opacity: 0.8; stroke: #0000ff; stroke-opacity: 0.8"/>
     <use xlink:href="#m378bb86c40" x="228.714242" y="123.344388" style="fill: #0000ff; fill-opacity: 0.8; stroke: #0000ff; stroke-opacity: 0.8"/>
     <use xlink:href="#m378bb86c40" x="240.4198" y="345.916875" style="fill: #0000ff; fill-opacity: 0.8; stroke: #0000ff; stroke-opacity: 0.8"/>
     <use xlink:href="#m378bb86c40" x="239.658564" y="280.99596" style="fill: #0000ff; fill-opacity: 0.8; stroke: #0000ff; stroke-opacity: 0.8"/>
     <use xlink:href="#m378bb86c40" x="228.733966" y="289.018781" style="fill: #0000ff; fill-opacity: 0.8; stroke: #0000ff; stroke-opacity: 0.8"/>
     <use xlink:href="#m378bb86c40" x="231.365722" y="208.33586" style="fill: #0000ff; fill-opacity: 0.8; stroke: #0000ff; stroke-opacity: 0.8"/>
     <use xlink:href="#m378bb86c40" x="232.847396" y="235.560324" style="fill: #0000ff; fill-opacity: 0.8; stroke: #0000ff; stroke-opacity: 0.8"/>
     <use xlink:href="#m378bb86c40" x="242.227652" y="146.782549" style="fill: #0000ff; fill-opacity: 0.8; stroke: #0000ff; stroke-opacity: 0.8"/>
     <use xlink:href="#m378bb86c40" x="223.350771" y="266.062349" style="fill: #0000ff; fill-opacity: 0.8; stroke: #0000ff; stroke-opacity: 0.8"/>
     <use xlink:href="#m378bb86c40" x="231.638527" y="297.829476" style="fill: #0000ff; fill-opacity: 0.8; stroke: #0000ff; stroke-opacity: 0.8"/>
     <use xlink:href="#m378bb86c40" x="224.861649" y="123.72707" style="fill: #0000ff; fill-opacity: 0.8; stroke: #0000ff; stroke-opacity: 0.8"/>
     <use xlink:href="#m378bb86c40" x="219.218322" y="301.768852" style="fill: #0000ff; fill-opacity: 0.8; stroke: #0000ff; stroke-opacity: 0.8"/>
     <use xlink:href="#m378bb86c40" x="234.050306" y="80.344412" style="fill: #0000ff; fill-opacity: 0.8; stroke: #0000ff; stroke-opacity: 0.8"/>
     <use xlink:href="#m378bb86c40" x="230.774948" y="253.82102" style="fill: #0000ff; fill-opacity: 0.8; stroke: #0000ff; stroke-opacity: 0.8"/>
     <use xlink:href="#m378bb86c40" x="236.600022" y="103.863612" style="fill: #0000ff; fill-opacity: 0.8; stroke: #0000ff; stroke-opacity: 0.8"/>
     <use xlink:href="#m378bb86c40" x="239.594455" y="43.516875" style="fill: #0000ff; fill-opacity: 0.8; stroke: #0000ff; stroke-opacity: 0.8"/>
    </g>
   </g>
   <g id="text_12">
    <!-- First Good Meal Time Distribution for Female -->
    <g transform="translate(7.2 22.396875) scale(0.2 -0.2)">
     <defs>
      <path id="DejaVuSans-44" d="M 1259 4147 
L 1259 519 
L 2022 519 
Q 2988 519 3436 956 
Q 3884 1394 3884 2338 
Q 3884 3275 3436 3711 
Q 2988 4147 2022 4147 
L 1259 4147 
z
M 628 4666 
L 1925 4666 
Q 3281 4666 3915 4102 
Q 4550 3538 4550 2338 
Q 4550 1131 3912 565 
Q 3275 0 1925 0 
L 628 0 
L 628 4666 
z
" transform="scale(0.015625)"/>
      <path id="DejaVuSans-62" d="M 3116 1747 
Q 3116 2381 2855 2742 
Q 2594 3103 2138 3103 
Q 1681 3103 1420 2742 
Q 1159 2381 1159 1747 
Q 1159 1113 1420 752 
Q 1681 391 2138 391 
Q 2594 391 2855 752 
Q 3116 1113 3116 1747 
z
M 1159 2969 
Q 1341 3281 1617 3432 
Q 1894 3584 2278 3584 
Q 2916 3584 3314 3078 
Q 3713 2572 3713 1747 
Q 3713 922 3314 415 
Q 2916 -91 2278 -91 
Q 1894 -91 1617 61 
Q 1341 213 1159 525 
L 1159 0 
L 581 0 
L 581 4863 
L 1159 4863 
L 1159 2969 
z
" transform="scale(0.015625)"/>
      <path id="DejaVuSans-6e" d="M 3513 2113 
L 3513 0 
L 2938 0 
L 2938 2094 
Q 2938 2591 2744 2837 
Q 2550 3084 2163 3084 
Q 1697 3084 1428 2787 
Q 1159 2491 1159 1978 
L 1159 0 
L 581 0 
L 581 3500 
L 1159 3500 
L 1159 2956 
Q 1366 3272 1645 3428 
Q 1925 3584 2291 3584 
Q 2894 3584 3203 3211 
Q 3513 2838 3513 2113 
z
" transform="scale(0.015625)"/>
      <path id="DejaVuSans-66" d="M 2375 4863 
L 2375 4384 
L 1825 4384 
Q 1516 4384 1395 4259 
Q 1275 4134 1275 3809 
L 1275 3500 
L 2222 3500 
L 2222 3053 
L 1275 3053 
L 1275 0 
L 697 0 
L 697 3053 
L 147 3053 
L 147 3500 
L 697 3500 
L 697 3744 
Q 697 4328 969 4595 
Q 1241 4863 1831 4863 
L 2375 4863 
z
" transform="scale(0.015625)"/>
     </defs>
     <use xlink:href="#DejaVuSans-46"/>
     <use xlink:href="#DejaVuSans-69" x="50.269531"/>
     <use xlink:href="#DejaVuSans-72" x="78.052734"/>
     <use xlink:href="#DejaVuSans-73" x="119.166016"/>
     <use xlink:href="#DejaVuSans-74" x="171.265625"/>
     <use xlink:href="#DejaVuSans-20" x="210.474609"/>
     <use xlink:href="#DejaVuSans-47" x="242.261719"/>
     <use xlink:href="#DejaVuSans-6f" x="319.751953"/>
     <use xlink:href="#DejaVuSans-6f" x="380.933594"/>
     <use xlink:href="#DejaVuSans-64" x="442.115234"/>
     <use xlink:href="#DejaVuSans-20" x="505.591797"/>
     <use xlink:href="#DejaVuSans-4d" x="537.378906"/>
     <use xlink:href="#DejaVuSans-65" x="623.658203"/>
     <use xlink:href="#DejaVuSans-61" x="685.181641"/>
     <use xlink:href="#DejaVuSans-6c" x="746.460938"/>
     <use xlink:href="#DejaVuSans-20" x="774.244141"/>
     <use xlink:href="#DejaVuSans-54" x="806.03125"/>
     <use xlink:href="#DejaVuSans-69" x="863.990234"/>
     <use xlink:href="#DejaVuSans-6d" x="891.773438"/>
     <use xlink:href="#DejaVuSans-65" x="989.185547"/>
     <use xlink:href="#DejaVuSans-20" x="1050.708984"/>
     <use xlink:href="#DejaVuSans-44" x="1082.496094"/>
     <use xlink:href="#DejaVuSans-69" x="1159.498047"/>
     <use xlink:href="#DejaVuSans-73" x="1187.28125"/>
     <use xlink:href="#DejaVuSans-74" x="1239.380859"/>
     <use xlink:href="#DejaVuSans-72" x="1278.589844"/>
     <use xlink:href="#DejaVuSans-69" x="1319.703125"/>
     <use xlink:href="#DejaVuSans-62" x="1347.486328"/>
     <use xlink:href="#DejaVuSans-75" x="1410.962891"/>
     <use xlink:href="#DejaVuSans-74" x="1474.341797"/>
     <use xlink:href="#DejaVuSans-69" x="1513.550781"/>
     <use xlink:href="#DejaVuSans-6f" x="1541.333984"/>
     <use xlink:href="#DejaVuSans-6e" x="1602.515625"/>
     <use xlink:href="#DejaVuSans-20" x="1665.894531"/>
     <use xlink:href="#DejaVuSans-66" x="1697.681641"/>
     <use xlink:href="#DejaVuSans-6f" x="1732.886719"/>
     <use xlink:href="#DejaVuSans-72" x="1794.068359"/>
     <use xlink:href="#DejaVuSans-20" x="1835.181641"/>
     <use xlink:href="#DejaVuSans-46" x="1866.96875"/>
     <use xlink:href="#DejaVuSans-65" x="1918.988281"/>
     <use xlink:href="#DejaVuSans-6d" x="1980.511719"/>
     <use xlink:href="#DejaVuSans-61" x="2077.923828"/>
     <use xlink:href="#DejaVuSans-6c" x="2139.203125"/>
     <use xlink:href="#DejaVuSans-65" x="2166.986328"/>
    </g>
   </g>
   <g id="legend_1">
    <g id="patch_8">
     <path d="M 277.510938 51.075 
L 390.445312 51.075 
Q 392.445312 51.075 392.445312 49.075 
L 392.445312 35.396875 
Q 392.445312 33.396875 390.445312 33.396875 
L 277.510938 33.396875 
Q 275.510938 33.396875 275.510938 35.396875 
L 275.510938 49.075 
Q 275.510938 51.075 277.510938 51.075 
z
" style="fill: #ffffff; opacity: 0.8; stroke: #cccccc; stroke-linejoin: miter"/>
    </g>
    <g id="patch_9">
     <path d="M 279.510938 44.995312 
L 299.510938 44.995312 
L 299.510938 37.995312 
L 279.510938 37.995312 
z
" style="fill: #38bcf5; opacity: 0.6; stroke: #38bcf5; stroke-linejoin: miter"/>
    </g>
    <g id="text_13">
     <!-- Female (n = 17) -->
     <g transform="translate(307.510938 44.995312) scale(0.1 -0.1)">
      <defs>
       <path id="DejaVuSans-3d" d="M 678 2906 
L 4684 2906 
L 4684 2381 
L 678 2381 
L 678 2906 
z
M 678 1631 
L 4684 1631 
L 4684 1100 
L 678 1100 
L 678 1631 
z
" transform="scale(0.015625)"/>
       <path id="DejaVuSans-37" d="M 525 4666 
L 3525 4666 
L 3525 4397 
L 1831 0 
L 1172 0 
L 2766 4134 
L 525 4134 
L 525 4666 
z
" transform="scale(0.015625)"/>
      </defs>
      <use xlink:href="#DejaVuSans-46"/>
      <use xlink:href="#DejaVuSans-65" x="52.019531"/>
      <use xlink:href="#DejaVuSans-6d" x="113.542969"/>
      <use xlink:href="#DejaVuSans-61" x="210.955078"/>
      <use xlink:href="#DejaVuSans-6c" x="272.234375"/>
      <use xlink:href="#DejaVuSans-65" x="300.017578"/>
      <use xlink:href="#DejaVuSans-20" x="361.541016"/>
      <use xlink:href="#DejaVuSans-28" x="393.328125"/>
      <use xlink:href="#DejaVuSans-6e" x="432.341797"/>
      <use xlink:href="#DejaVuSans-20" x="495.720703"/>
      <use xlink:href="#DejaVuSans-3d" x="527.507812"/>
      <use xlink:href="#DejaVuSans-20" x="611.296875"/>
      <use xlink:href="#DejaVuSans-31" x="643.083984"/>
      <use xlink:href="#DejaVuSans-37" x="706.707031"/>
      <use xlink:href="#DejaVuSans-29" x="770.330078"/>
     </g>
    </g>
   </g>
  </g>
 </g>
 <defs>
  <clipPath id="pac093889b2">
   <rect x="62.645313" y="28.396875" width="334.8" height="332.64"/>
  </clipPath>
 </defs>
</svg>
