<?xml version="1.0" encoding="utf-8" standalone="no"?>
<!DOCTYPE svg PUBLIC "-//W3C//DTD SVG 1.1//EN"
  "http://www.w3.org/Graphics/SVG/1.1/DTD/svg11.dtd">
<svg xmlns:xlink="http://www.w3.org/1999/xlink" width="437.821875pt" height="402.464375pt" viewBox="0 0 437.821875 402.464375" xmlns="http://www.w3.org/2000/svg" version="1.1">
 <metadata>
  <rdf:RDF xmlns:dc="http://purl.org/dc/elements/1.1/" xmlns:cc="http://creativecommons.org/ns#" xmlns:rdf="http://www.w3.org/1999/02/22-rdf-syntax-ns#">
   <cc:Work>
    <dc:type rdf:resource="http://purl.org/dc/dcmitype/StillImage"/>
    <dc:date>2025-05-09T14:44:45.770627</dc:date>
    <dc:format>image/svg+xml</dc:format>
    <dc:creator>
     <cc:Agent>
      <dc:title>Matplotlib v3.8.3, https://matplotlib.org/</dc:title>
     </cc:Agent>
    </dc:creator>
   </cc:Work>
  </rdf:RDF>
 </metadata>
 <defs>
  <style type="text/css">*{stroke-linejoin: round; stroke-linecap: butt}</style>
 </defs>
 <g id="figure_1">
  <g id="patch_1">
   <path d="M 0 402.464375 
L 437.821875 402.464375 
L 437.821875 0 
L 0 0 
z
" style="fill: #ffffff"/>
  </g>
  <g id="axes_1">
   <g id="patch_2">
    <path d="M 51.510937 361.036875 
L 386.310938 361.036875 
L 386.310938 28.396875 
L 51.510937 28.396875 
z
" style="fill: #ffffff"/>
   </g>
   <g id="PolyCollection_1">
    <defs>
     <path id="mf61aebd79f" d="M 239.676911 -56.5475 
L 198.144964 -56.5475 
L 197.816058 -59.602045 
L 197.536737 -62.656591 
L 197.306912 -65.711136 
L 197.125767 -68.765682 
L 196.991756 -71.820227 
L 196.902601 -74.874773 
L 196.855315 -77.929318 
L 196.846227 -80.983864 
L 196.871025 -84.038409 
L 196.924807 -87.092955 
L 197.002143 -90.1475 
L 197.097146 -93.202045 
L 197.20355 -96.256591 
L 197.314794 -99.311136 
L 197.424115 -102.365682 
L 197.524638 -105.420227 
L 197.609472 -108.474773 
L 197.671804 -111.529318 
L 197.704993 -114.583864 
L 197.702662 -117.638409 
L 197.658782 -120.692955 
L 197.567756 -123.7475 
L 197.424493 -126.802045 
L 197.224474 -129.856591 
L 196.963816 -132.911136 
L 196.63932 -135.965682 
L 196.248515 -139.020227 
L 195.789693 -142.074773 
L 195.261931 -145.129318 
L 194.665106 -148.183864 
L 193.999904 -151.238409 
L 193.267815 -154.292955 
L 192.471122 -157.3475 
L 191.612883 -160.402045 
L 190.696901 -163.456591 
L 189.727689 -166.511136 
L 188.710433 -169.565682 
L 187.650935 -172.620227 
L 186.555568 -175.674773 
L 185.431205 -178.729318 
L 184.285162 -181.783864 
L 183.125124 -184.838409 
L 181.95907 -187.892955 
L 180.795196 -190.9475 
L 179.641836 -194.002045 
L 178.507377 -197.056591 
L 177.400177 -200.111136 
L 176.328479 -203.165682 
L 175.30033 -206.220227 
L 174.323496 -209.274773 
L 173.405383 -212.329318 
L 172.552963 -215.383864 
L 171.772698 -218.438409 
L 171.070479 -221.492955 
L 170.451564 -224.5475 
L 169.920526 -227.602045 
L 169.481209 -230.656591 
L 169.136697 -233.711136 
L 168.889286 -236.765682 
L 168.740469 -239.820227 
L 168.690937 -242.874773 
L 168.740582 -245.929318 
L 168.888511 -248.983864 
L 169.133081 -252.038409 
L 169.471929 -255.092955 
L 169.90202 -258.1475 
L 170.419701 -261.202045 
L 171.020761 -264.256591 
L 171.700497 -267.311136 
L 172.453785 -270.365682 
L 173.275155 -273.420227 
L 174.158864 -276.474773 
L 175.098976 -279.529318 
L 176.089435 -282.583864 
L 177.124136 -285.638409 
L 178.197 -288.692955 
L 179.302034 -291.7475 
L 180.433393 -294.802045 
L 181.585432 -297.856591 
L 182.752757 -300.911136 
L 183.930255 -303.965682 
L 185.113137 -307.020227 
L 186.296955 -310.074773 
L 187.477618 -313.129318 
L 188.651409 -316.183864 
L 189.814979 -319.238409 
L 190.965349 -322.292955 
L 192.099901 -325.3475 
L 193.21636 -328.402045 
L 194.31278 -331.456591 
L 195.387517 -334.511136 
L 196.439212 -337.565682 
L 197.46676 -340.620227 
L 198.469284 -343.674773 
L 199.446107 -346.729318 
L 200.396729 -349.783864 
L 201.320794 -352.838409 
L 202.218072 -355.892955 
L 203.088436 -358.9475 
L 234.733439 -358.9475 
L 234.733439 -358.9475 
L 235.603803 -355.892955 
L 236.501081 -352.838409 
L 237.425146 -349.783864 
L 238.375768 -346.729318 
L 239.352591 -343.674773 
L 240.355115 -340.620227 
L 241.382663 -337.565682 
L 242.434358 -334.511136 
L 243.509095 -331.456591 
L 244.605515 -328.402045 
L 245.721974 -325.3475 
L 246.856526 -322.292955 
L 248.006896 -319.238409 
L 249.170466 -316.183864 
L 250.344257 -313.129318 
L 251.52492 -310.074773 
L 252.708738 -307.020227 
L 253.89162 -303.965682 
L 255.069118 -300.911136 
L 256.236443 -297.856591 
L 257.388482 -294.802045 
L 258.519841 -291.7475 
L 259.624875 -288.692955 
L 260.697739 -285.638409 
L 261.73244 -282.583864 
L 262.722899 -279.529318 
L 263.663011 -276.474773 
L 264.54672 -273.420227 
L 265.36809 -270.365682 
L 266.121378 -267.311136 
L 266.801114 -264.256591 
L 267.402174 -261.202045 
L 267.919855 -258.1475 
L 268.349946 -255.092955 
L 268.688794 -252.038409 
L 268.933364 -248.983864 
L 269.081293 -245.929318 
L 269.130938 -242.874773 
L 269.081406 -239.820227 
L 268.932589 -236.765682 
L 268.685178 -233.711136 
L 268.340666 -230.656591 
L 267.901349 -227.602045 
L 267.370311 -224.5475 
L 266.751396 -221.492955 
L 266.049177 -218.438409 
L 265.268912 -215.383864 
L 264.416492 -212.329318 
L 263.498379 -209.274773 
L 262.521545 -206.220227 
L 261.493396 -203.165682 
L 260.421698 -200.111136 
L 259.314498 -197.056591 
L 258.180039 -194.002045 
L 257.026679 -190.9475 
L 255.862805 -187.892955 
L 254.696751 -184.838409 
L 253.536713 -181.783864 
L 252.39067 -178.729318 
L 251.266307 -175.674773 
L 250.17094 -172.620227 
L 249.111442 -169.565682 
L 248.094186 -166.511136 
L 247.124974 -163.456591 
L 246.208992 -160.402045 
L 245.350753 -157.3475 
L 244.55406 -154.292955 
L 243.821971 -151.238409 
L 243.156769 -148.183864 
L 242.559944 -145.129318 
L 242.032182 -142.074773 
L 241.57336 -139.020227 
L 241.182555 -135.965682 
L 240.858059 -132.911136 
L 240.597401 -129.856591 
L 240.397382 -126.802045 
L 240.254119 -123.7475 
L 240.163093 -120.692955 
L 240.119213 -117.638409 
L 240.116882 -114.583864 
L 240.150071 -111.529318 
L 240.212403 -108.474773 
L 240.297237 -105.420227 
L 240.39776 -102.365682 
L 240.507081 -99.311136 
L 240.618325 -96.256591 
L 240.724729 -93.202045 
L 240.819732 -90.1475 
L 240.897068 -87.092955 
L 240.95085 -84.038409 
L 240.975648 -80.983864 
L 240.96656 -77.929318 
L 240.919274 -74.874773 
L 240.830119 -71.820227 
L 240.696108 -68.765682 
L 240.514963 -65.711136 
L 240.285138 -62.656591 
L 240.005817 -59.602045 
L 239.676911 -56.5475 
z
" style="stroke: #000000; stroke-opacity: 0.6"/>
    </defs>
    <g clip-path="url(#pcb41b0e7c3)">
     <use xlink:href="#mf61aebd79f" x="0" y="402.464375" style="fill: #38bcf5; fill-opacity: 0.6; stroke: #000000; stroke-opacity: 0.6"/>
    </g>
   </g>
   <g id="matplotlib.axis_1">
    <g id="xtick_1">
     <g id="line2d_1">
      <defs>
       <path id="m725174a951" d="M 0 0 
L 0 3.5 
" style="stroke: #000000; stroke-width: 0.8"/>
      </defs>
      <g>
       <use xlink:href="#m725174a951" x="218.910937" y="361.036875" style="stroke: #000000; stroke-width: 0.8"/>
      </g>
     </g>
     <g id="text_1">
      <!-- Female -->
      <g transform="translate(200.833594 375.635312) scale(0.1 -0.1)">
       <defs>
        <path id="DejaVuSans-46" d="M 628 4666 
L 3309 4666 
L 3309 4134 
L 1259 4134 
L 1259 2759 
L 3109 2759 
L 3109 2228 
L 1259 2228 
L 1259 0 
L 628 0 
L 628 4666 
z
" transform="scale(0.015625)"/>
        <path id="DejaVuSans-65" d="M 3597 1894 
L 3597 1613 
L 953 1613 
Q 991 1019 1311 708 
Q 1631 397 2203 397 
Q 2534 397 2845 478 
Q 3156 559 3463 722 
L 3463 178 
Q 3153 47 2828 -22 
Q 2503 -91 2169 -91 
Q 1331 -91 842 396 
Q 353 884 353 1716 
Q 353 2575 817 3079 
Q 1281 3584 2069 3584 
Q 2775 3584 3186 3129 
Q 3597 2675 3597 1894 
z
M 3022 2063 
Q 3016 2534 2758 2815 
Q 2500 3097 2075 3097 
Q 1594 3097 1305 2825 
Q 1016 2553 972 2059 
L 3022 2063 
z
" transform="scale(0.015625)"/>
        <path id="DejaVuSans-6d" d="M 3328 2828 
Q 3544 3216 3844 3400 
Q 4144 3584 4550 3584 
Q 5097 3584 5394 3201 
Q 5691 2819 5691 2113 
L 5691 0 
L 5113 0 
L 5113 2094 
Q 5113 2597 4934 2840 
Q 4756 3084 4391 3084 
Q 3944 3084 3684 2787 
Q 3425 2491 3425 1978 
L 3425 0 
L 2847 0 
L 2847 2094 
Q 2847 2600 2669 2842 
Q 2491 3084 2119 3084 
Q 1678 3084 1418 2786 
Q 1159 2488 1159 1978 
L 1159 0 
L 581 0 
L 581 3500 
L 1159 3500 
L 1159 2956 
Q 1356 3278 1631 3431 
Q 1906 3584 2284 3584 
Q 2666 3584 2933 3390 
Q 3200 3197 3328 2828 
z
" transform="scale(0.015625)"/>
        <path id="DejaVuSans-61" d="M 2194 1759 
Q 1497 1759 1228 1600 
Q 959 1441 959 1056 
Q 959 750 1161 570 
Q 1363 391 1709 391 
Q 2188 391 2477 730 
Q 2766 1069 2766 1631 
L 2766 1759 
L 2194 1759 
z
M 3341 1997 
L 3341 0 
L 2766 0 
L 2766 531 
Q 2569 213 2275 61 
Q 1981 -91 1556 -91 
Q 1019 -91 701 211 
Q 384 513 384 1019 
Q 384 1609 779 1909 
Q 1175 2209 1959 2209 
L 2766 2209 
L 2766 2266 
Q 2766 2663 2505 2880 
Q 2244 3097 1772 3097 
Q 1472 3097 1187 3025 
Q 903 2953 641 2809 
L 641 3341 
Q 956 3463 1253 3523 
Q 1550 3584 1831 3584 
Q 2591 3584 2966 3190 
Q 3341 2797 3341 1997 
z
" transform="scale(0.015625)"/>
        <path id="DejaVuSans-6c" d="M 603 4863 
L 1178 4863 
L 1178 0 
L 603 0 
L 603 4863 
z
" transform="scale(0.015625)"/>
       </defs>
       <use xlink:href="#DejaVuSans-46"/>
       <use xlink:href="#DejaVuSans-65" x="52.019531"/>
       <use xlink:href="#DejaVuSans-6d" x="113.542969"/>
       <use xlink:href="#DejaVuSans-61" x="210.955078"/>
       <use xlink:href="#DejaVuSans-6c" x="272.234375"/>
       <use xlink:href="#DejaVuSans-65" x="300.017578"/>
      </g>
     </g>
    </g>
    <g id="text_2">
     <!-- Groups -->
     <g transform="translate(193.957031 392.352812) scale(0.14 -0.14)">
      <defs>
       <path id="DejaVuSans-47" d="M 3809 666 
L 3809 1919 
L 2778 1919 
L 2778 2438 
L 4434 2438 
L 4434 434 
Q 4069 175 3628 42 
Q 3188 -91 2688 -91 
Q 1594 -91 976 548 
Q 359 1188 359 2328 
Q 359 3472 976 4111 
Q 1594 4750 2688 4750 
Q 3144 4750 3555 4637 
Q 3966 4525 4313 4306 
L 4313 3634 
Q 3963 3931 3569 4081 
Q 3175 4231 2741 4231 
Q 1884 4231 1454 3753 
Q 1025 3275 1025 2328 
Q 1025 1384 1454 906 
Q 1884 428 2741 428 
Q 3075 428 3337 486 
Q 3600 544 3809 666 
z
" transform="scale(0.015625)"/>
       <path id="DejaVuSans-72" d="M 2631 2963 
Q 2534 3019 2420 3045 
Q 2306 3072 2169 3072 
Q 1681 3072 1420 2755 
Q 1159 2438 1159 1844 
L 1159 0 
L 581 0 
L 581 3500 
L 1159 3500 
L 1159 2956 
Q 1341 3275 1631 3429 
Q 1922 3584 2338 3584 
Q 2397 3584 2469 3576 
Q 2541 3569 2628 3553 
L 2631 2963 
z
" transform="scale(0.015625)"/>
       <path id="DejaVuSans-6f" d="M 1959 3097 
Q 1497 3097 1228 2736 
Q 959 2375 959 1747 
Q 959 1119 1226 758 
Q 1494 397 1959 397 
Q 2419 397 2687 759 
Q 2956 1122 2956 1747 
Q 2956 2369 2687 2733 
Q 2419 3097 1959 3097 
z
M 1959 3584 
Q 2709 3584 3137 3096 
Q 3566 2609 3566 1747 
Q 3566 888 3137 398 
Q 2709 -91 1959 -91 
Q 1206 -91 779 398 
Q 353 888 353 1747 
Q 353 2609 779 3096 
Q 1206 3584 1959 3584 
z
" transform="scale(0.015625)"/>
       <path id="DejaVuSans-75" d="M 544 1381 
L 544 3500 
L 1119 3500 
L 1119 1403 
Q 1119 906 1312 657 
Q 1506 409 1894 409 
Q 2359 409 2629 706 
Q 2900 1003 2900 1516 
L 2900 3500 
L 3475 3500 
L 3475 0 
L 2900 0 
L 2900 538 
Q 2691 219 2414 64 
Q 2138 -91 1772 -91 
Q 1169 -91 856 284 
Q 544 659 544 1381 
z
M 1991 3584 
L 1991 3584 
z
" transform="scale(0.015625)"/>
       <path id="DejaVuSans-70" d="M 1159 525 
L 1159 -1331 
L 581 -1331 
L 581 3500 
L 1159 3500 
L 1159 2969 
Q 1341 3281 1617 3432 
Q 1894 3584 2278 3584 
Q 2916 3584 3314 3078 
Q 3713 2572 3713 1747 
Q 3713 922 3314 415 
Q 2916 -91 2278 -91 
Q 1894 -91 1617 61 
Q 1341 213 1159 525 
z
M 3116 1747 
Q 3116 2381 2855 2742 
Q 2594 3103 2138 3103 
Q 1681 3103 1420 2742 
Q 1159 2381 1159 1747 
Q 1159 1113 1420 752 
Q 1681 391 2138 391 
Q 2594 391 2855 752 
Q 3116 1113 3116 1747 
z
" transform="scale(0.015625)"/>
       <path id="DejaVuSans-73" d="M 2834 3397 
L 2834 2853 
Q 2591 2978 2328 3040 
Q 2066 3103 1784 3103 
Q 1356 3103 1142 2972 
Q 928 2841 928 2578 
Q 928 2378 1081 2264 
Q 1234 2150 1697 2047 
L 1894 2003 
Q 2506 1872 2764 1633 
Q 3022 1394 3022 966 
Q 3022 478 2636 193 
Q 2250 -91 1575 -91 
Q 1294 -91 989 -36 
Q 684 19 347 128 
L 347 722 
Q 666 556 975 473 
Q 1284 391 1588 391 
Q 1994 391 2212 530 
Q 2431 669 2431 922 
Q 2431 1156 2273 1281 
Q 2116 1406 1581 1522 
L 1381 1569 
Q 847 1681 609 1914 
Q 372 2147 372 2553 
Q 372 3047 722 3315 
Q 1072 3584 1716 3584 
Q 2034 3584 2315 3537 
Q 2597 3491 2834 3397 
z
" transform="scale(0.015625)"/>
      </defs>
      <use xlink:href="#DejaVuSans-47"/>
      <use xlink:href="#DejaVuSans-72" x="77.490234"/>
      <use xlink:href="#DejaVuSans-6f" x="116.353516"/>
      <use xlink:href="#DejaVuSans-75" x="177.535156"/>
      <use xlink:href="#DejaVuSans-70" x="240.914062"/>
      <use xlink:href="#DejaVuSans-73" x="304.390625"/>
     </g>
    </g>
   </g>
   <g id="matplotlib.axis_2">
    <g id="ytick_1">
     <g id="line2d_2">
      <defs>
       <path id="ma50099c01a" d="M 0 0 
L -3.5 0 
" style="stroke: #000000; stroke-width: 0.8"/>
      </defs>
      <g>
       <use xlink:href="#ma50099c01a" x="51.510937" y="322.318735" style="stroke: #000000; stroke-width: 0.8"/>
      </g>
     </g>
     <g id="text_3">
      <!-- 160 -->
      <g transform="translate(25.423437 326.117954) scale(0.1 -0.1)">
       <defs>
        <path id="DejaVuSans-31" d="M 794 531 
L 1825 531 
L 1825 4091 
L 703 3866 
L 703 4441 
L 1819 4666 
L 2450 4666 
L 2450 531 
L 3481 531 
L 3481 0 
L 794 0 
L 794 531 
z
" transform="scale(0.015625)"/>
        <path id="DejaVuSans-36" d="M 2113 2584 
Q 1688 2584 1439 2293 
Q 1191 2003 1191 1497 
Q 1191 994 1439 701 
Q 1688 409 2113 409 
Q 2538 409 2786 701 
Q 3034 994 3034 1497 
Q 3034 2003 2786 2293 
Q 2538 2584 2113 2584 
z
M 3366 4563 
L 3366 3988 
Q 3128 4100 2886 4159 
Q 2644 4219 2406 4219 
Q 1781 4219 1451 3797 
Q 1122 3375 1075 2522 
Q 1259 2794 1537 2939 
Q 1816 3084 2150 3084 
Q 2853 3084 3261 2657 
Q 3669 2231 3669 1497 
Q 3669 778 3244 343 
Q 2819 -91 2113 -91 
Q 1303 -91 875 529 
Q 447 1150 447 2328 
Q 447 3434 972 4092 
Q 1497 4750 2381 4750 
Q 2619 4750 2861 4703 
Q 3103 4656 3366 4563 
z
" transform="scale(0.015625)"/>
        <path id="DejaVuSans-30" d="M 2034 4250 
Q 1547 4250 1301 3770 
Q 1056 3291 1056 2328 
Q 1056 1369 1301 889 
Q 1547 409 2034 409 
Q 2525 409 2770 889 
Q 3016 1369 3016 2328 
Q 3016 3291 2770 3770 
Q 2525 4250 2034 4250 
z
M 2034 4750 
Q 2819 4750 3233 4129 
Q 3647 3509 3647 2328 
Q 3647 1150 3233 529 
Q 2819 -91 2034 -91 
Q 1250 -91 836 529 
Q 422 1150 422 2328 
Q 422 3509 836 4129 
Q 1250 4750 2034 4750 
z
" transform="scale(0.015625)"/>
       </defs>
       <use xlink:href="#DejaVuSans-31"/>
       <use xlink:href="#DejaVuSans-36" x="63.623047"/>
       <use xlink:href="#DejaVuSans-30" x="127.246094"/>
      </g>
     </g>
    </g>
    <g id="ytick_2">
     <g id="line2d_3">
      <g>
       <use xlink:href="#ma50099c01a" x="51.510937" y="270.225712" style="stroke: #000000; stroke-width: 0.8"/>
      </g>
     </g>
     <g id="text_4">
      <!-- 180 -->
      <g transform="translate(25.423437 274.024931) scale(0.1 -0.1)">
       <defs>
        <path id="DejaVuSans-38" d="M 2034 2216 
Q 1584 2216 1326 1975 
Q 1069 1734 1069 1313 
Q 1069 891 1326 650 
Q 1584 409 2034 409 
Q 2484 409 2743 651 
Q 3003 894 3003 1313 
Q 3003 1734 2745 1975 
Q 2488 2216 2034 2216 
z
M 1403 2484 
Q 997 2584 770 2862 
Q 544 3141 544 3541 
Q 544 4100 942 4425 
Q 1341 4750 2034 4750 
Q 2731 4750 3128 4425 
Q 3525 4100 3525 3541 
Q 3525 3141 3298 2862 
Q 3072 2584 2669 2484 
Q 3125 2378 3379 2068 
Q 3634 1759 3634 1313 
Q 3634 634 3220 271 
Q 2806 -91 2034 -91 
Q 1263 -91 848 271 
Q 434 634 434 1313 
Q 434 1759 690 2068 
Q 947 2378 1403 2484 
z
M 1172 3481 
Q 1172 3119 1398 2916 
Q 1625 2713 2034 2713 
Q 2441 2713 2670 2916 
Q 2900 3119 2900 3481 
Q 2900 3844 2670 4047 
Q 2441 4250 2034 4250 
Q 1625 4250 1398 4047 
Q 1172 3844 1172 3481 
z
" transform="scale(0.015625)"/>
       </defs>
       <use xlink:href="#DejaVuSans-31"/>
       <use xlink:href="#DejaVuSans-38" x="63.623047"/>
       <use xlink:href="#DejaVuSans-30" x="127.246094"/>
      </g>
     </g>
    </g>
    <g id="ytick_3">
     <g id="line2d_4">
      <g>
       <use xlink:href="#ma50099c01a" x="51.510937" y="218.132689" style="stroke: #000000; stroke-width: 0.8"/>
      </g>
     </g>
     <g id="text_5">
      <!-- 200 -->
      <g transform="translate(25.423437 221.931908) scale(0.1 -0.1)">
       <defs>
        <path id="DejaVuSans-32" d="M 1228 531 
L 3431 531 
L 3431 0 
L 469 0 
L 469 531 
Q 828 903 1448 1529 
Q 2069 2156 2228 2338 
Q 2531 2678 2651 2914 
Q 2772 3150 2772 3378 
Q 2772 3750 2511 3984 
Q 2250 4219 1831 4219 
Q 1534 4219 1204 4116 
Q 875 4013 500 3803 
L 500 4441 
Q 881 4594 1212 4672 
Q 1544 4750 1819 4750 
Q 2544 4750 2975 4387 
Q 3406 4025 3406 3419 
Q 3406 3131 3298 2873 
Q 3191 2616 2906 2266 
Q 2828 2175 2409 1742 
Q 1991 1309 1228 531 
z
" transform="scale(0.015625)"/>
       </defs>
       <use xlink:href="#DejaVuSans-32"/>
       <use xlink:href="#DejaVuSans-30" x="63.623047"/>
       <use xlink:href="#DejaVuSans-30" x="127.246094"/>
      </g>
     </g>
    </g>
    <g id="ytick_4">
     <g id="line2d_5">
      <g>
       <use xlink:href="#ma50099c01a" x="51.510937" y="166.039666" style="stroke: #000000; stroke-width: 0.8"/>
      </g>
     </g>
     <g id="text_6">
      <!-- 220 -->
      <g transform="translate(25.423437 169.838884) scale(0.1 -0.1)">
       <use xlink:href="#DejaVuSans-32"/>
       <use xlink:href="#DejaVuSans-32" x="63.623047"/>
       <use xlink:href="#DejaVuSans-30" x="127.246094"/>
      </g>
     </g>
    </g>
    <g id="ytick_5">
     <g id="line2d_6">
      <g>
       <use xlink:href="#ma50099c01a" x="51.510937" y="113.946642" style="stroke: #000000; stroke-width: 0.8"/>
      </g>
     </g>
     <g id="text_7">
      <!-- 240 -->
      <g transform="translate(25.423437 117.745861) scale(0.1 -0.1)">
       <defs>
        <path id="DejaVuSans-34" d="M 2419 4116 
L 825 1625 
L 2419 1625 
L 2419 4116 
z
M 2253 4666 
L 3047 4666 
L 3047 1625 
L 3713 1625 
L 3713 1100 
L 3047 1100 
L 3047 0 
L 2419 0 
L 2419 1100 
L 313 1100 
L 313 1709 
L 2253 4666 
z
" transform="scale(0.015625)"/>
       </defs>
       <use xlink:href="#DejaVuSans-32"/>
       <use xlink:href="#DejaVuSans-34" x="63.623047"/>
       <use xlink:href="#DejaVuSans-30" x="127.246094"/>
      </g>
     </g>
    </g>
    <g id="ytick_6">
     <g id="line2d_7">
      <g>
       <use xlink:href="#ma50099c01a" x="51.510937" y="61.853619" style="stroke: #000000; stroke-width: 0.8"/>
      </g>
     </g>
     <g id="text_8">
      <!-- 260 -->
      <g transform="translate(25.423437 65.652838) scale(0.1 -0.1)">
       <use xlink:href="#DejaVuSans-32"/>
       <use xlink:href="#DejaVuSans-36" x="63.623047"/>
       <use xlink:href="#DejaVuSans-30" x="127.246094"/>
      </g>
     </g>
    </g>
    <g id="text_9">
     <!-- FR1 Average Pellet (pellets) -->
     <g transform="translate(18.511875 291.49625) rotate(-90) scale(0.14 -0.14)">
      <defs>
       <path id="DejaVuSans-52" d="M 2841 2188 
Q 3044 2119 3236 1894 
Q 3428 1669 3622 1275 
L 4263 0 
L 3584 0 
L 2988 1197 
Q 2756 1666 2539 1819 
Q 2322 1972 1947 1972 
L 1259 1972 
L 1259 0 
L 628 0 
L 628 4666 
L 2053 4666 
Q 2853 4666 3247 4331 
Q 3641 3997 3641 3322 
Q 3641 2881 3436 2590 
Q 3231 2300 2841 2188 
z
M 1259 4147 
L 1259 2491 
L 2053 2491 
Q 2509 2491 2742 2702 
Q 2975 2913 2975 3322 
Q 2975 3731 2742 3939 
Q 2509 4147 2053 4147 
L 1259 4147 
z
" transform="scale(0.015625)"/>
       <path id="DejaVuSans-20" transform="scale(0.015625)"/>
       <path id="DejaVuSans-41" d="M 2188 4044 
L 1331 1722 
L 3047 1722 
L 2188 4044 
z
M 1831 4666 
L 2547 4666 
L 4325 0 
L 3669 0 
L 3244 1197 
L 1141 1197 
L 716 0 
L 50 0 
L 1831 4666 
z
" transform="scale(0.015625)"/>
       <path id="DejaVuSans-76" d="M 191 3500 
L 800 3500 
L 1894 563 
L 2988 3500 
L 3597 3500 
L 2284 0 
L 1503 0 
L 191 3500 
z
" transform="scale(0.015625)"/>
       <path id="DejaVuSans-67" d="M 2906 1791 
Q 2906 2416 2648 2759 
Q 2391 3103 1925 3103 
Q 1463 3103 1205 2759 
Q 947 2416 947 1791 
Q 947 1169 1205 825 
Q 1463 481 1925 481 
Q 2391 481 2648 825 
Q 2906 1169 2906 1791 
z
M 3481 434 
Q 3481 -459 3084 -895 
Q 2688 -1331 1869 -1331 
Q 1566 -1331 1297 -1286 
Q 1028 -1241 775 -1147 
L 775 -588 
Q 1028 -725 1275 -790 
Q 1522 -856 1778 -856 
Q 2344 -856 2625 -561 
Q 2906 -266 2906 331 
L 2906 616 
Q 2728 306 2450 153 
Q 2172 0 1784 0 
Q 1141 0 747 490 
Q 353 981 353 1791 
Q 353 2603 747 3093 
Q 1141 3584 1784 3584 
Q 2172 3584 2450 3431 
Q 2728 3278 2906 2969 
L 2906 3500 
L 3481 3500 
L 3481 434 
z
" transform="scale(0.015625)"/>
       <path id="DejaVuSans-50" d="M 1259 4147 
L 1259 2394 
L 2053 2394 
Q 2494 2394 2734 2622 
Q 2975 2850 2975 3272 
Q 2975 3691 2734 3919 
Q 2494 4147 2053 4147 
L 1259 4147 
z
M 628 4666 
L 2053 4666 
Q 2838 4666 3239 4311 
Q 3641 3956 3641 3272 
Q 3641 2581 3239 2228 
Q 2838 1875 2053 1875 
L 1259 1875 
L 1259 0 
L 628 0 
L 628 4666 
z
" transform="scale(0.015625)"/>
       <path id="DejaVuSans-74" d="M 1172 4494 
L 1172 3500 
L 2356 3500 
L 2356 3053 
L 1172 3053 
L 1172 1153 
Q 1172 725 1289 603 
Q 1406 481 1766 481 
L 2356 481 
L 2356 0 
L 1766 0 
Q 1100 0 847 248 
Q 594 497 594 1153 
L 594 3053 
L 172 3053 
L 172 3500 
L 594 3500 
L 594 4494 
L 1172 4494 
z
" transform="scale(0.015625)"/>
       <path id="DejaVuSans-28" d="M 1984 4856 
Q 1566 4138 1362 3434 
Q 1159 2731 1159 2009 
Q 1159 1288 1364 580 
Q 1569 -128 1984 -844 
L 1484 -844 
Q 1016 -109 783 600 
Q 550 1309 550 2009 
Q 550 2706 781 3412 
Q 1013 4119 1484 4856 
L 1984 4856 
z
" transform="scale(0.015625)"/>
       <path id="DejaVuSans-29" d="M 513 4856 
L 1013 4856 
Q 1481 4119 1714 3412 
Q 1947 2706 1947 2009 
Q 1947 1309 1714 600 
Q 1481 -109 1013 -844 
L 513 -844 
Q 928 -128 1133 580 
Q 1338 1288 1338 2009 
Q 1338 2731 1133 3434 
Q 928 4138 513 4856 
z
" transform="scale(0.015625)"/>
      </defs>
      <use xlink:href="#DejaVuSans-46"/>
      <use xlink:href="#DejaVuSans-52" x="57.519531"/>
      <use xlink:href="#DejaVuSans-31" x="127.001953"/>
      <use xlink:href="#DejaVuSans-20" x="190.625"/>
      <use xlink:href="#DejaVuSans-41" x="222.412109"/>
      <use xlink:href="#DejaVuSans-76" x="284.945312"/>
      <use xlink:href="#DejaVuSans-65" x="344.125"/>
      <use xlink:href="#DejaVuSans-72" x="405.648438"/>
      <use xlink:href="#DejaVuSans-61" x="446.761719"/>
      <use xlink:href="#DejaVuSans-67" x="508.041016"/>
      <use xlink:href="#DejaVuSans-65" x="571.517578"/>
      <use xlink:href="#DejaVuSans-20" x="633.041016"/>
      <use xlink:href="#DejaVuSans-50" x="664.828125"/>
      <use xlink:href="#DejaVuSans-65" x="721.505859"/>
      <use xlink:href="#DejaVuSans-6c" x="783.029297"/>
      <use xlink:href="#DejaVuSans-6c" x="810.8125"/>
      <use xlink:href="#DejaVuSans-65" x="838.595703"/>
      <use xlink:href="#DejaVuSans-74" x="900.119141"/>
      <use xlink:href="#DejaVuSans-20" x="939.328125"/>
      <use xlink:href="#DejaVuSans-28" x="971.115234"/>
      <use xlink:href="#DejaVuSans-70" x="1010.128906"/>
      <use xlink:href="#DejaVuSans-65" x="1073.605469"/>
      <use xlink:href="#DejaVuSans-6c" x="1135.128906"/>
      <use xlink:href="#DejaVuSans-6c" x="1162.912109"/>
      <use xlink:href="#DejaVuSans-65" x="1190.695312"/>
      <use xlink:href="#DejaVuSans-74" x="1252.21875"/>
      <use xlink:href="#DejaVuSans-73" x="1291.427734"/>
      <use xlink:href="#DejaVuSans-29" x="1343.527344"/>
     </g>
    </g>
   </g>
   <g id="patch_3">
    <path d="M 193.800937 231.885247 
L 244.020938 231.885247 
L 244.020938 148.640596 
L 193.800937 148.640596 
L 193.800937 231.885247 
z
" clip-path="url(#pcb41b0e7c3)" style="fill: #ffffff; stroke: #000000; stroke-linejoin: miter"/>
   </g>
   <g id="line2d_8">
    <path d="M 218.910937 231.885247 
L 218.910937 345.916875 
" clip-path="url(#pcb41b0e7c3)" style="fill: none; stroke: #000000; stroke-linecap: square"/>
   </g>
   <g id="line2d_9">
    <path d="M 218.910937 148.640596 
L 218.910937 43.516875 
" clip-path="url(#pcb41b0e7c3)" style="fill: none; stroke: #000000; stroke-linecap: square"/>
   </g>
   <g id="line2d_10">
    <path d="M 206.355937 345.916875 
L 231.465937 345.916875 
" clip-path="url(#pcb41b0e7c3)" style="fill: none; stroke: #000000; stroke-linecap: square"/>
   </g>
   <g id="line2d_11">
    <path d="M 206.355937 43.516875 
L 231.465937 43.516875 
" clip-path="url(#pcb41b0e7c3)" style="fill: none; stroke: #000000; stroke-linecap: square"/>
   </g>
   <g id="line2d_12">
    <path d="M 193.800937 171.874084 
L 244.020938 171.874084 
" clip-path="url(#pcb41b0e7c3)" style="fill: none; stroke: #000000"/>
   </g>
   <g id="patch_4">
    <path d="M 51.510937 361.036875 
L 51.510937 28.396875 
" style="fill: none; stroke: #000000; stroke-width: 0.8; stroke-linejoin: miter; stroke-linecap: square"/>
   </g>
   <g id="patch_5">
    <path d="M 386.310938 361.036875 
L 386.310938 28.396875 
" style="fill: none; stroke: #000000; stroke-width: 0.8; stroke-linejoin: miter; stroke-linecap: square"/>
   </g>
   <g id="patch_6">
    <path d="M 51.510937 361.036875 
L 386.310938 361.036875 
" style="fill: none; stroke: #000000; stroke-width: 0.8; stroke-linejoin: miter; stroke-linecap: square"/>
   </g>
   <g id="patch_7">
    <path d="M 51.510937 28.396875 
L 386.310938 28.396875 
" style="fill: none; stroke: #000000; stroke-width: 0.8; stroke-linejoin: miter; stroke-linecap: square"/>
   </g>
   <g id="PathCollection_1">
    <defs>
     <path id="m4a0a7f7ba1" d="M 0 3 
C 0.795609 3 1.55874 2.683901 2.12132 2.12132 
C 2.683901 1.55874 3 0.795609 3 0 
C 3 -0.795609 2.683901 -1.55874 2.12132 -2.12132 
C 1.55874 -2.683901 0.795609 -3 0 -3 
C -0.795609 -3 -1.55874 -2.683901 -2.12132 -2.12132 
C -2.683901 -1.55874 -3 -0.795609 -3 0 
C -3 0.795609 -2.683901 1.55874 -2.12132 2.12132 
C -1.55874 2.683901 -0.795609 3 0 3 
z
" style="stroke: #0000ff; stroke-opacity: 0.8"/>
    </defs>
    <g clip-path="url(#pcb41b0e7c3)">
     <use xlink:href="#m4a0a7f7ba1" x="206.756941" y="86.884317" style="fill: #0000ff; fill-opacity: 0.8; stroke: #0000ff; stroke-opacity: 0.8"/>
     <use xlink:href="#m4a0a7f7ba1" x="210.893799" y="345.916875" style="fill: #0000ff; fill-opacity: 0.8; stroke: #0000ff; stroke-opacity: 0.8"/>
     <use xlink:href="#m4a0a7f7ba1" x="230.895361" y="171.874084" style="fill: #0000ff; fill-opacity: 0.8; stroke: #0000ff; stroke-opacity: 0.8"/>
     <use xlink:href="#m4a0a7f7ba1" x="226.497749" y="162.731759" style="fill: #0000ff; fill-opacity: 0.8; stroke: #0000ff; stroke-opacity: 0.8"/>
     <use xlink:href="#m4a0a7f7ba1" x="224.349389" y="153.01641" style="fill: #0000ff; fill-opacity: 0.8; stroke: #0000ff; stroke-opacity: 0.8"/>
     <use xlink:href="#m4a0a7f7ba1" x="208.53539" y="210.240596" style="fill: #0000ff; fill-opacity: 0.8; stroke: #0000ff; stroke-opacity: 0.8"/>
     <use xlink:href="#m4a0a7f7ba1" x="227.000864" y="130.460131" style="fill: #0000ff; fill-opacity: 0.8; stroke: #0000ff; stroke-opacity: 0.8"/>
     <use xlink:href="#m4a0a7f7ba1" x="207.140196" y="185.965247" style="fill: #0000ff; fill-opacity: 0.8; stroke: #0000ff; stroke-opacity: 0.8"/>
     <use xlink:href="#m4a0a7f7ba1" x="209.440344" y="331.174549" style="fill: #0000ff; fill-opacity: 0.8; stroke: #0000ff; stroke-opacity: 0.8"/>
     <use xlink:href="#m4a0a7f7ba1" x="217.485646" y="148.640596" style="fill: #0000ff; fill-opacity: 0.8; stroke: #0000ff; stroke-opacity: 0.8"/>
     <use xlink:href="#m4a0a7f7ba1" x="227.059079" y="231.885247" style="fill: #0000ff; fill-opacity: 0.8; stroke: #0000ff; stroke-opacity: 0.8"/>
     <use xlink:href="#m4a0a7f7ba1" x="208.808235" y="102.147573" style="fill: #0000ff; fill-opacity: 0.8; stroke: #0000ff; stroke-opacity: 0.8"/>
     <use xlink:href="#m4a0a7f7ba1" x="223.366223" y="43.516875" style="fill: #0000ff; fill-opacity: 0.8; stroke: #0000ff; stroke-opacity: 0.8"/>
     <use xlink:href="#m4a0a7f7ba1" x="218.190142" y="151.531759" style="fill: #0000ff; fill-opacity: 0.8; stroke: #0000ff; stroke-opacity: 0.8"/>
     <use xlink:href="#m4a0a7f7ba1" x="216.523759" y="179.088968" style="fill: #0000ff; fill-opacity: 0.8; stroke: #0000ff; stroke-opacity: 0.8"/>
     <use xlink:href="#m4a0a7f7ba1" x="226.573332" y="318.77641" style="fill: #0000ff; fill-opacity: 0.8; stroke: #0000ff; stroke-opacity: 0.8"/>
     <use xlink:href="#m4a0a7f7ba1" x="216.94153" y="342.556875" style="fill: #0000ff; fill-opacity: 0.8; stroke: #0000ff; stroke-opacity: 0.8"/>
    </g>
   </g>
   <g id="text_10">
    <!-- FR1 Average Pellet Distribution for Female -->
    <g transform="translate(7.2 22.396875) scale(0.2 -0.2)">
     <defs>
      <path id="DejaVuSans-44" d="M 1259 4147 
L 1259 519 
L 2022 519 
Q 2988 519 3436 956 
Q 3884 1394 3884 2338 
Q 3884 3275 3436 3711 
Q 2988 4147 2022 4147 
L 1259 4147 
z
M 628 4666 
L 1925 4666 
Q 3281 4666 3915 4102 
Q 4550 3538 4550 2338 
Q 4550 1131 3912 565 
Q 3275 0 1925 0 
L 628 0 
L 628 4666 
z
" transform="scale(0.015625)"/>
      <path id="DejaVuSans-69" d="M 603 3500 
L 1178 3500 
L 1178 0 
L 603 0 
L 603 3500 
z
M 603 4863 
L 1178 4863 
L 1178 4134 
L 603 4134 
L 603 4863 
z
" transform="scale(0.015625)"/>
      <path id="DejaVuSans-62" d="M 3116 1747 
Q 3116 2381 2855 2742 
Q 2594 3103 2138 3103 
Q 1681 3103 1420 2742 
Q 1159 2381 1159 1747 
Q 1159 1113 1420 752 
Q 1681 391 2138 391 
Q 2594 391 2855 752 
Q 3116 1113 3116 1747 
z
M 1159 2969 
Q 1341 3281 1617 3432 
Q 1894 3584 2278 3584 
Q 2916 3584 3314 3078 
Q 3713 2572 3713 1747 
Q 3713 922 3314 415 
Q 2916 -91 2278 -91 
Q 1894 -91 1617 61 
Q 1341 213 1159 525 
L 1159 0 
L 581 0 
L 581 4863 
L 1159 4863 
L 1159 2969 
z
" transform="scale(0.015625)"/>
      <path id="DejaVuSans-6e" d="M 3513 2113 
L 3513 0 
L 2938 0 
L 2938 2094 
Q 2938 2591 2744 2837 
Q 2550 3084 2163 3084 
Q 1697 3084 1428 2787 
Q 1159 2491 1159 1978 
L 1159 0 
L 581 0 
L 581 3500 
L 1159 3500 
L 1159 2956 
Q 1366 3272 1645 3428 
Q 1925 3584 2291 3584 
Q 2894 3584 3203 3211 
Q 3513 2838 3513 2113 
z
" transform="scale(0.015625)"/>
      <path id="DejaVuSans-66" d="M 2375 4863 
L 2375 4384 
L 1825 4384 
Q 1516 4384 1395 4259 
Q 1275 4134 1275 3809 
L 1275 3500 
L 2222 3500 
L 2222 3053 
L 1275 3053 
L 1275 0 
L 697 0 
L 697 3053 
L 147 3053 
L 147 3500 
L 697 3500 
L 697 3744 
Q 697 4328 969 4595 
Q 1241 4863 1831 4863 
L 2375 4863 
z
" transform="scale(0.015625)"/>
     </defs>
     <use xlink:href="#DejaVuSans-46"/>
     <use xlink:href="#DejaVuSans-52" x="57.519531"/>
     <use xlink:href="#DejaVuSans-31" x="127.001953"/>
     <use xlink:href="#DejaVuSans-20" x="190.625"/>
     <use xlink:href="#DejaVuSans-41" x="222.412109"/>
     <use xlink:href="#DejaVuSans-76" x="284.945312"/>
     <use xlink:href="#DejaVuSans-65" x="344.125"/>
     <use xlink:href="#DejaVuSans-72" x="405.648438"/>
     <use xlink:href="#DejaVuSans-61" x="446.761719"/>
     <use xlink:href="#DejaVuSans-67" x="508.041016"/>
     <use xlink:href="#DejaVuSans-65" x="571.517578"/>
     <use xlink:href="#DejaVuSans-20" x="633.041016"/>
     <use xlink:href="#DejaVuSans-50" x="664.828125"/>
     <use xlink:href="#DejaVuSans-65" x="721.505859"/>
     <use xlink:href="#DejaVuSans-6c" x="783.029297"/>
     <use xlink:href="#DejaVuSans-6c" x="810.8125"/>
     <use xlink:href="#DejaVuSans-65" x="838.595703"/>
     <use xlink:href="#DejaVuSans-74" x="900.119141"/>
     <use xlink:href="#DejaVuSans-20" x="939.328125"/>
     <use xlink:href="#DejaVuSans-44" x="971.115234"/>
     <use xlink:href="#DejaVuSans-69" x="1048.117188"/>
     <use xlink:href="#DejaVuSans-73" x="1075.900391"/>
     <use xlink:href="#DejaVuSans-74" x="1128"/>
     <use xlink:href="#DejaVuSans-72" x="1167.208984"/>
     <use xlink:href="#DejaVuSans-69" x="1208.322266"/>
     <use xlink:href="#DejaVuSans-62" x="1236.105469"/>
     <use xlink:href="#DejaVuSans-75" x="1299.582031"/>
     <use xlink:href="#DejaVuSans-74" x="1362.960938"/>
     <use xlink:href="#DejaVuSans-69" x="1402.169922"/>
     <use xlink:href="#DejaVuSans-6f" x="1429.953125"/>
     <use xlink:href="#DejaVuSans-6e" x="1491.134766"/>
     <use xlink:href="#DejaVuSans-20" x="1554.513672"/>
     <use xlink:href="#DejaVuSans-66" x="1586.300781"/>
     <use xlink:href="#DejaVuSans-6f" x="1621.505859"/>
     <use xlink:href="#DejaVuSans-72" x="1682.6875"/>
     <use xlink:href="#DejaVuSans-20" x="1723.800781"/>
     <use xlink:href="#DejaVuSans-46" x="1755.587891"/>
     <use xlink:href="#DejaVuSans-65" x="1807.607422"/>
     <use xlink:href="#DejaVuSans-6d" x="1869.130859"/>
     <use xlink:href="#DejaVuSans-61" x="1966.542969"/>
     <use xlink:href="#DejaVuSans-6c" x="2027.822266"/>
     <use xlink:href="#DejaVuSans-65" x="2055.605469"/>
    </g>
   </g>
   <g id="legend_1">
    <g id="patch_8">
     <path d="M 266.376563 51.075 
L 379.310938 51.075 
Q 381.310938 51.075 381.310938 49.075 
L 381.310938 35.396875 
Q 381.310938 33.396875 379.310938 33.396875 
L 266.376563 33.396875 
Q 264.376563 33.396875 264.376563 35.396875 
L 264.376563 49.075 
Q 264.376563 51.075 266.376563 51.075 
z
" style="fill: #ffffff; opacity: 0.8; stroke: #cccccc; stroke-linejoin: miter"/>
    </g>
    <g id="patch_9">
     <path d="M 268.376563 44.995312 
L 288.376563 44.995312 
L 288.376563 37.995312 
L 268.376563 37.995312 
z
" style="fill: #38bcf5; opacity: 0.6; stroke: #38bcf5; stroke-linejoin: miter"/>
    </g>
    <g id="text_11">
     <!-- Female (n = 17) -->
     <g transform="translate(296.376563 44.995312) scale(0.1 -0.1)">
      <defs>
       <path id="DejaVuSans-3d" d="M 678 2906 
L 4684 2906 
L 4684 2381 
L 678 2381 
L 678 2906 
z
M 678 1631 
L 4684 1631 
L 4684 1100 
L 678 1100 
L 678 1631 
z
" transform="scale(0.015625)"/>
       <path id="DejaVuSans-37" d="M 525 4666 
L 3525 4666 
L 3525 4397 
L 1831 0 
L 1172 0 
L 2766 4134 
L 525 4134 
L 525 4666 
z
" transform="scale(0.015625)"/>
      </defs>
      <use xlink:href="#DejaVuSans-46"/>
      <use xlink:href="#DejaVuSans-65" x="52.019531"/>
      <use xlink:href="#DejaVuSans-6d" x="113.542969"/>
      <use xlink:href="#DejaVuSans-61" x="210.955078"/>
      <use xlink:href="#DejaVuSans-6c" x="272.234375"/>
      <use xlink:href="#DejaVuSans-65" x="300.017578"/>
      <use xlink:href="#DejaVuSans-20" x="361.541016"/>
      <use xlink:href="#DejaVuSans-28" x="393.328125"/>
      <use xlink:href="#DejaVuSans-6e" x="432.341797"/>
      <use xlink:href="#DejaVuSans-20" x="495.720703"/>
      <use xlink:href="#DejaVuSans-3d" x="527.507812"/>
      <use xlink:href="#DejaVuSans-20" x="611.296875"/>
      <use xlink:href="#DejaVuSans-31" x="643.083984"/>
      <use xlink:href="#DejaVuSans-37" x="706.707031"/>
      <use xlink:href="#DejaVuSans-29" x="770.330078"/>
     </g>
    </g>
   </g>
  </g>
 </g>
 <defs>
  <clipPath id="pcb41b0e7c3">
   <rect x="51.510937" y="28.396875" width="334.8" height="332.64"/>
  </clipPath>
 </defs>
</svg>
