<?xml version="1.0" encoding="utf-8" standalone="no"?>
<!DOCTYPE svg PUBLIC "-//W3C//DTD SVG 1.1//EN"
  "http://www.w3.org/Graphics/SVG/1.1/DTD/svg11.dtd">
<svg xmlns:xlink="http://www.w3.org/1999/xlink" width="1172.435pt" height="399.009062pt" viewBox="0 0 1172.435 399.009062" xmlns="http://www.w3.org/2000/svg" version="1.1">
 <metadata>
  <rdf:RDF xmlns:dc="http://purl.org/dc/elements/1.1/" xmlns:cc="http://creativecommons.org/ns#" xmlns:rdf="http://www.w3.org/1999/02/22-rdf-syntax-ns#">
   <cc:Work>
    <dc:type rdf:resource="http://purl.org/dc/dcmitype/StillImage"/>
    <dc:date>2025-04-02T10:38:31.024069</dc:date>
    <dc:format>image/svg+xml</dc:format>
    <dc:creator>
     <cc:Agent>
      <dc:title>Matplotlib v3.8.3, https://matplotlib.org/</dc:title>
     </cc:Agent>
    </dc:creator>
   </cc:Work>
  </rdf:RDF>
 </metadata>
 <defs>
  <style type="text/css">*{stroke-linejoin: round; stroke-linecap: butt}</style>
 </defs>
 <g id="figure_1">
  <g id="patch_1">
   <path d="M 0 399.009062 
L 1172.435 399.009062 
L 1172.435 0 
L 0 0 
z
" style="fill: #ffffff"/>
  </g>
  <g id="axes_1">
   <g id="patch_2">
    <path d="M 49.235 359.517187 
L 1165.235 359.517187 
L 1165.235 26.877187 
L 49.235 26.877187 
z
" style="fill: #ffffff"/>
   </g>
   <g id="patch_3">
    <path d="M 118.308259 359.517187 
L 118.308259 26.877187 
L 112.360088 26.877187 
L 112.360088 359.517187 
z
" clip-path="url(#p6b296a06ef)" style="fill: #add8e6; stroke: #add8e6; stroke-linejoin: miter"/>
   </g>
   <g id="patch_4">
    <path d="M 119.939107 359.517187 
L 119.939107 26.877187 
L 119.083649 26.877187 
L 119.083649 359.517187 
z
" clip-path="url(#p6b296a06ef)" style="fill: #add8e6; stroke: #add8e6; stroke-linejoin: miter"/>
   </g>
   <g id="patch_5">
    <path d="M 148.179746 359.517187 
L 148.179746 26.877187 
L 147.939544 26.877187 
L 147.939544 359.517187 
z
" clip-path="url(#p6b296a06ef)" style="fill: #add8e6; stroke: #add8e6; stroke-linejoin: miter"/>
   </g>
   <g id="patch_6">
    <path d="M 157.26319 359.517187 
L 157.26319 26.877187 
L 157.728846 26.877187 
L 157.728846 359.517187 
z
" clip-path="url(#p6b296a06ef)" style="fill: #add8e6; stroke: #add8e6; stroke-linejoin: miter"/>
   </g>
   <g id="patch_7">
    <path d="M 168.194507 359.517187 
L 168.194507 26.877187 
L 166.856537 26.877187 
L 166.856537 359.517187 
z
" clip-path="url(#p6b296a06ef)" style="fill: #add8e6; stroke: #add8e6; stroke-linejoin: miter"/>
   </g>
   <g id="patch_8">
    <path d="M 174.625189 359.517187 
L 174.625189 26.877187 
L 175.166698 26.877187 
L 175.166698 359.517187 
z
" clip-path="url(#p6b296a06ef)" style="fill: #add8e6; stroke: #add8e6; stroke-linejoin: miter"/>
   </g>
   <g id="patch_9">
    <path d="M 194.543026 359.517187 
L 194.543026 26.877187 
L 178.065983 26.877187 
L 178.065983 359.517187 
z
" clip-path="url(#p6b296a06ef)" style="fill: #add8e6; stroke: #add8e6; stroke-linejoin: miter"/>
   </g>
   <g id="patch_10">
    <path d="M 219.25859 359.517187 
L 219.25859 26.877187 
L 197.819471 26.877187 
L 197.819471 359.517187 
z
" clip-path="url(#p6b296a06ef)" style="fill: #add8e6; stroke: #add8e6; stroke-linejoin: miter"/>
   </g>
   <g id="patch_11">
    <path d="M 236.504702 359.517187 
L 236.504702 26.877187 
L 210.14354 26.877187 
L 210.14354 359.517187 
z
" clip-path="url(#p6b296a06ef)" style="fill: #add8e6; stroke: #add8e6; stroke-linejoin: miter"/>
   </g>
   <g id="patch_12">
    <path d="M 248.556963 359.517187 
L 248.556963 26.877187 
L 215.990573 26.877187 
L 215.990573 359.517187 
z
" clip-path="url(#p6b296a06ef)" style="fill: #add8e6; stroke: #add8e6; stroke-linejoin: miter"/>
   </g>
   <g id="patch_13">
    <path d="M 253.982588 359.517187 
L 253.982588 26.877187 
L 223.569591 26.877187 
L 223.569591 359.517187 
z
" clip-path="url(#p6b296a06ef)" style="fill: #add8e6; stroke: #add8e6; stroke-linejoin: miter"/>
   </g>
   <g id="patch_14">
    <path d="M 265.982173 359.517187 
L 265.982173 26.877187 
L 253.363118 26.877187 
L 253.363118 359.517187 
z
" clip-path="url(#p6b296a06ef)" style="fill: #add8e6; stroke: #add8e6; stroke-linejoin: miter"/>
   </g>
   <g id="patch_15">
    <path d="M 292.004101 359.517187 
L 292.004101 26.877187 
L 277.147371 26.877187 
L 277.147371 359.517187 
z
" clip-path="url(#p6b296a06ef)" style="fill: #add8e6; stroke: #add8e6; stroke-linejoin: miter"/>
   </g>
   <g id="patch_16">
    <path d="M 315.455442 359.517187 
L 315.455442 26.877187 
L 297.785815 26.877187 
L 297.785815 359.517187 
z
" clip-path="url(#p6b296a06ef)" style="fill: #add8e6; stroke: #add8e6; stroke-linejoin: miter"/>
   </g>
   <g id="patch_17">
    <path d="M 337.147405 359.517187 
L 337.147405 26.877187 
L 313.896233 26.877187 
L 313.896233 359.517187 
z
" clip-path="url(#p6b296a06ef)" style="fill: #add8e6; stroke: #add8e6; stroke-linejoin: miter"/>
   </g>
   <g id="patch_18">
    <path d="M 362.252771 359.517187 
L 362.252771 26.877187 
L 334.441967 26.877187 
L 334.441967 359.517187 
z
" clip-path="url(#p6b296a06ef)" style="fill: #add8e6; stroke: #add8e6; stroke-linejoin: miter"/>
   </g>
   <g id="patch_19">
    <path d="M 372.124247 359.517187 
L 372.124247 26.877187 
L 335.91268 26.877187 
L 335.91268 359.517187 
z
" clip-path="url(#p6b296a06ef)" style="fill: #add8e6; stroke: #add8e6; stroke-linejoin: miter"/>
   </g>
   <g id="patch_20">
    <path d="M 421.787149 359.517187 
L 421.787149 26.877187 
L 412.143233 26.877187 
L 412.143233 359.517187 
z
" clip-path="url(#p6b296a06ef)" style="fill: #add8e6; stroke: #add8e6; stroke-linejoin: miter"/>
   </g>
   <g id="patch_21">
    <path d="M 450.801072 359.517187 
L 450.801072 26.877187 
L 414.76439 26.877187 
L 414.76439 359.517187 
z
" clip-path="url(#p6b296a06ef)" style="fill: #add8e6; stroke: #add8e6; stroke-linejoin: miter"/>
   </g>
   <g id="patch_22">
    <path d="M 453.097745 359.517187 
L 453.097745 26.877187 
L 416.681795 26.877187 
L 416.681795 359.517187 
z
" clip-path="url(#p6b296a06ef)" style="fill: #add8e6; stroke: #add8e6; stroke-linejoin: miter"/>
   </g>
   <g id="patch_23">
    <path d="M 459.176551 359.517187 
L 459.176551 26.877187 
L 458.940563 26.877187 
L 458.940563 359.517187 
z
" clip-path="url(#p6b296a06ef)" style="fill: #add8e6; stroke: #add8e6; stroke-linejoin: miter"/>
   </g>
   <g id="patch_24">
    <path d="M 470.765264 359.517187 
L 470.765264 26.877187 
L 437.842784 26.877187 
L 437.842784 359.517187 
z
" clip-path="url(#p6b296a06ef)" style="fill: #add8e6; stroke: #add8e6; stroke-linejoin: miter"/>
   </g>
   <g id="patch_25">
    <path d="M 477.581534 359.517187 
L 477.581534 26.877187 
L 448.266305 26.877187 
L 448.266305 359.517187 
z
" clip-path="url(#p6b296a06ef)" style="fill: #add8e6; stroke: #add8e6; stroke-linejoin: miter"/>
   </g>
   <g id="patch_26">
    <path d="M 491.266751 359.517187 
L 491.266751 26.877187 
L 458.455944 26.877187 
L 458.455944 359.517187 
z
" clip-path="url(#p6b296a06ef)" style="fill: #add8e6; stroke: #add8e6; stroke-linejoin: miter"/>
   </g>
   <g id="patch_27">
    <path d="M 507.101146 359.517187 
L 507.101146 26.877187 
L 473.249463 26.877187 
L 473.249463 359.517187 
z
" clip-path="url(#p6b296a06ef)" style="fill: #add8e6; stroke: #add8e6; stroke-linejoin: miter"/>
   </g>
   <g id="patch_28">
    <path d="M 516.603891 359.517187 
L 516.603891 26.877187 
L 481.48377 26.877187 
L 481.48377 359.517187 
z
" clip-path="url(#p6b296a06ef)" style="fill: #add8e6; stroke: #add8e6; stroke-linejoin: miter"/>
   </g>
   <g id="patch_29">
    <path d="M 526.211987 359.517187 
L 526.211987 26.877187 
L 494.471556 26.877187 
L 494.471556 359.517187 
z
" clip-path="url(#p6b296a06ef)" style="fill: #add8e6; stroke: #add8e6; stroke-linejoin: miter"/>
   </g>
   <g id="patch_30">
    <path d="M 531.974738 359.517187 
L 531.974738 26.877187 
L 496.344714 26.877187 
L 496.344714 359.517187 
z
" clip-path="url(#p6b296a06ef)" style="fill: #add8e6; stroke: #add8e6; stroke-linejoin: miter"/>
   </g>
   <g id="patch_31">
    <path d="M 543.921648 359.517187 
L 543.921648 26.877187 
L 510.891709 26.877187 
L 510.891709 359.517187 
z
" clip-path="url(#p6b296a06ef)" style="fill: #add8e6; stroke: #add8e6; stroke-linejoin: miter"/>
   </g>
   <g id="patch_32">
    <path d="M 548.873189 359.517187 
L 548.873189 26.877187 
L 516.294156 26.877187 
L 516.294156 359.517187 
z
" clip-path="url(#p6b296a06ef)" style="fill: #add8e6; stroke: #add8e6; stroke-linejoin: miter"/>
   </g>
   <g id="patch_33">
    <path d="M 558.639313 359.517187 
L 558.639313 26.877187 
L 551.150897 26.877187 
L 551.150897 359.517187 
z
" clip-path="url(#p6b296a06ef)" style="fill: #add8e6; stroke: #add8e6; stroke-linejoin: miter"/>
   </g>
   <g id="patch_34">
    <path d="M 564.022797 359.517187 
L 564.022797 26.877187 
L 544.075461 26.877187 
L 544.075461 359.517187 
z
" clip-path="url(#p6b296a06ef)" style="fill: #add8e6; stroke: #add8e6; stroke-linejoin: miter"/>
   </g>
   <g id="patch_35">
    <path d="M 715.984535 359.517187 
L 715.984535 26.877187 
L 716.553435 26.877187 
L 716.553435 359.517187 
z
" clip-path="url(#p6b296a06ef)" style="fill: #add8e6; stroke: #add8e6; stroke-linejoin: miter"/>
   </g>
   <g id="patch_36">
    <path d="M 765.476767 359.517187 
L 765.476767 26.877187 
L 729.631824 26.877187 
L 729.631824 359.517187 
z
" clip-path="url(#p6b296a06ef)" style="fill: #add8e6; stroke: #add8e6; stroke-linejoin: miter"/>
   </g>
   <g id="patch_37">
    <path d="M 845.318784 359.517187 
L 845.318784 26.877187 
L 845.487347 26.877187 
L 845.487347 359.517187 
z
" clip-path="url(#p6b296a06ef)" style="fill: #add8e6; stroke: #add8e6; stroke-linejoin: miter"/>
   </g>
   <g id="patch_38">
    <path d="M 930.607497 359.517187 
L 930.607497 26.877187 
L 926.49245 26.877187 
L 926.49245 359.517187 
z
" clip-path="url(#p6b296a06ef)" style="fill: #add8e6; stroke: #add8e6; stroke-linejoin: miter"/>
   </g>
   <g id="patch_39">
    <path d="M 950.044929 359.517187 
L 950.044929 26.877187 
L 950.647542 26.877187 
L 950.647542 359.517187 
z
" clip-path="url(#p6b296a06ef)" style="fill: #add8e6; stroke: #add8e6; stroke-linejoin: miter"/>
   </g>
   <g id="patch_40">
    <path d="M 971.056319 359.517187 
L 971.056319 26.877187 
L 968.791252 26.877187 
L 968.791252 359.517187 
z
" clip-path="url(#p6b296a06ef)" style="fill: #add8e6; stroke: #add8e6; stroke-linejoin: miter"/>
   </g>
   <g id="patch_41">
    <path d="M 987.01503 359.517187 
L 987.01503 26.877187 
L 969.349617 26.877187 
L 969.349617 359.517187 
z
" clip-path="url(#p6b296a06ef)" style="fill: #add8e6; stroke: #add8e6; stroke-linejoin: miter"/>
   </g>
   <g id="patch_42">
    <path d="M 1008.671173 359.517187 
L 1008.671173 26.877187 
L 986.905464 26.877187 
L 986.905464 359.517187 
z
" clip-path="url(#p6b296a06ef)" style="fill: #add8e6; stroke: #add8e6; stroke-linejoin: miter"/>
   </g>
   <g id="patch_43">
    <path d="M 1037.411181 359.517187 
L 1037.411181 26.877187 
L 1026.275482 26.877187 
L 1026.275482 359.517187 
z
" clip-path="url(#p6b296a06ef)" style="fill: #add8e6; stroke: #add8e6; stroke-linejoin: miter"/>
   </g>
   <g id="patch_44">
    <path d="M 1061.256538 359.517187 
L 1061.256538 26.877187 
L 1027.419604 26.877187 
L 1027.419604 359.517187 
z
" clip-path="url(#p6b296a06ef)" style="fill: #add8e6; stroke: #add8e6; stroke-linejoin: miter"/>
   </g>
   <g id="patch_45">
    <path d="M 1071.640025 359.517187 
L 1071.640025 26.877187 
L 1044.929095 26.877187 
L 1044.929095 359.517187 
z
" clip-path="url(#p6b296a06ef)" style="fill: #add8e6; stroke: #add8e6; stroke-linejoin: miter"/>
   </g>
   <g id="patch_46">
    <path d="M 1089.929121 359.517187 
L 1089.929121 26.877187 
L 1053.053837 26.877187 
L 1053.053837 359.517187 
z
" clip-path="url(#p6b296a06ef)" style="fill: #add8e6; stroke: #add8e6; stroke-linejoin: miter"/>
   </g>
   <g id="patch_47">
    <path d="M 1090.712939 359.517187 
L 1090.712939 26.877187 
L 1059.591978 26.877187 
L 1059.591978 359.517187 
z
" clip-path="url(#p6b296a06ef)" style="fill: #add8e6; stroke: #add8e6; stroke-linejoin: miter"/>
   </g>
   <g id="patch_48">
    <path d="M 1108.608019 359.517187 
L 1108.608019 26.877187 
L 1089.244333 26.877187 
L 1089.244333 359.517187 
z
" clip-path="url(#p6b296a06ef)" style="fill: #add8e6; stroke: #add8e6; stroke-linejoin: miter"/>
   </g>
   <g id="patch_49">
    <path d="M 1114.507727 359.517187 
L 1114.507727 26.877187 
L 1090.512771 26.877187 
L 1090.512771 359.517187 
z
" clip-path="url(#p6b296a06ef)" style="fill: #add8e6; stroke: #add8e6; stroke-linejoin: miter"/>
   </g>
   <g id="patch_50">
    <path d="M 99.962273 26.877187 
L 99.962273 26.877187 
L 99.962273 359.517187 
" clip-path="url(#p6b296a06ef)" style="fill: #808080; opacity: 0.4; stroke: #808080; stroke-linejoin: miter"/>
   </g>
   <g id="patch_51">
    <path d="M 112.604505 26.877187 
L 112.604505 26.877187 
L 112.604505 359.517187 
" clip-path="url(#p6b296a06ef)" style="fill: #808080; opacity: 0.4; stroke: #808080; stroke-linejoin: miter"/>
   </g>
   <g id="patch_52">
    <path d="M 542.440399 359.517187 
L 542.440399 26.877187 
L 997.560758 26.877187 
L 997.560758 359.517187 
z
" clip-path="url(#p6b296a06ef)" style="fill: #808080; opacity: 0.4; stroke: #808080; stroke-linejoin: miter"/>
   </g>
   <g id="patch_53">
    <path d="M 1010.202991 26.877187 
L 1010.202991 26.877187 
L 1010.202991 359.517187 
" clip-path="url(#p6b296a06ef)" style="fill: #808080; opacity: 0.4; stroke: #808080; stroke-linejoin: miter"/>
   </g>
   <g id="patch_54">
    <path d="M 1022.845223 26.877187 
L 1022.845223 26.877187 
L 1022.845223 359.517187 
" clip-path="url(#p6b296a06ef)" style="fill: #808080; opacity: 0.4; stroke: #808080; stroke-linejoin: miter"/>
   </g>
   <g id="matplotlib.axis_1">
    <g id="xtick_1">
     <g id="line2d_1">
      <defs>
       <path id="m75be9867e2" d="M 0 0 
L 0 3.5 
" style="stroke: #000000; stroke-width: 0.8"/>
      </defs>
      <g>
       <use xlink:href="#m75be9867e2" x="151.152778" y="359.517187" style="stroke: #000000; stroke-width: 0.8"/>
      </g>
     </g>
     <g id="text_1">
      <!-- 09-01 09 -->
      <g transform="translate(128.672309 374.115625) scale(0.1 -0.1)">
       <defs>
        <path id="DejaVuSans-30" d="M 2034 4250 
Q 1547 4250 1301 3770 
Q 1056 3291 1056 2328 
Q 1056 1369 1301 889 
Q 1547 409 2034 409 
Q 2525 409 2770 889 
Q 3016 1369 3016 2328 
Q 3016 3291 2770 3770 
Q 2525 4250 2034 4250 
z
M 2034 4750 
Q 2819 4750 3233 4129 
Q 3647 3509 3647 2328 
Q 3647 1150 3233 529 
Q 2819 -91 2034 -91 
Q 1250 -91 836 529 
Q 422 1150 422 2328 
Q 422 3509 836 4129 
Q 1250 4750 2034 4750 
z
" transform="scale(0.015625)"/>
        <path id="DejaVuSans-39" d="M 703 97 
L 703 672 
Q 941 559 1184 500 
Q 1428 441 1663 441 
Q 2288 441 2617 861 
Q 2947 1281 2994 2138 
Q 2813 1869 2534 1725 
Q 2256 1581 1919 1581 
Q 1219 1581 811 2004 
Q 403 2428 403 3163 
Q 403 3881 828 4315 
Q 1253 4750 1959 4750 
Q 2769 4750 3195 4129 
Q 3622 3509 3622 2328 
Q 3622 1225 3098 567 
Q 2575 -91 1691 -91 
Q 1453 -91 1209 -44 
Q 966 3 703 97 
z
M 1959 2075 
Q 2384 2075 2632 2365 
Q 2881 2656 2881 3163 
Q 2881 3666 2632 3958 
Q 2384 4250 1959 4250 
Q 1534 4250 1286 3958 
Q 1038 3666 1038 3163 
Q 1038 2656 1286 2365 
Q 1534 2075 1959 2075 
z
" transform="scale(0.015625)"/>
        <path id="DejaVuSans-2d" d="M 313 2009 
L 1997 2009 
L 1997 1497 
L 313 1497 
L 313 2009 
z
" transform="scale(0.015625)"/>
        <path id="DejaVuSans-31" d="M 794 531 
L 1825 531 
L 1825 4091 
L 703 3866 
L 703 4441 
L 1819 4666 
L 2450 4666 
L 2450 531 
L 3481 531 
L 3481 0 
L 794 0 
L 794 531 
z
" transform="scale(0.015625)"/>
        <path id="DejaVuSans-20" transform="scale(0.015625)"/>
       </defs>
       <use xlink:href="#DejaVuSans-30"/>
       <use xlink:href="#DejaVuSans-39" x="63.623047"/>
       <use xlink:href="#DejaVuSans-2d" x="127.246094"/>
       <use xlink:href="#DejaVuSans-30" x="163.330078"/>
       <use xlink:href="#DejaVuSans-31" x="226.953125"/>
       <use xlink:href="#DejaVuSans-20" x="290.576172"/>
       <use xlink:href="#DejaVuSans-30" x="322.363281"/>
       <use xlink:href="#DejaVuSans-39" x="385.986328"/>
      </g>
     </g>
    </g>
    <g id="xtick_2">
     <g id="line2d_2">
      <g>
       <use xlink:href="#m75be9867e2" x="264.932868" y="359.517187" style="stroke: #000000; stroke-width: 0.8"/>
      </g>
     </g>
     <g id="text_2">
      <!-- 09-01 12 -->
      <g transform="translate(242.452399 374.115625) scale(0.1 -0.1)">
       <defs>
        <path id="DejaVuSans-32" d="M 1228 531 
L 3431 531 
L 3431 0 
L 469 0 
L 469 531 
Q 828 903 1448 1529 
Q 2069 2156 2228 2338 
Q 2531 2678 2651 2914 
Q 2772 3150 2772 3378 
Q 2772 3750 2511 3984 
Q 2250 4219 1831 4219 
Q 1534 4219 1204 4116 
Q 875 4013 500 3803 
L 500 4441 
Q 881 4594 1212 4672 
Q 1544 4750 1819 4750 
Q 2544 4750 2975 4387 
Q 3406 4025 3406 3419 
Q 3406 3131 3298 2873 
Q 3191 2616 2906 2266 
Q 2828 2175 2409 1742 
Q 1991 1309 1228 531 
z
" transform="scale(0.015625)"/>
       </defs>
       <use xlink:href="#DejaVuSans-30"/>
       <use xlink:href="#DejaVuSans-39" x="63.623047"/>
       <use xlink:href="#DejaVuSans-2d" x="127.246094"/>
       <use xlink:href="#DejaVuSans-30" x="163.330078"/>
       <use xlink:href="#DejaVuSans-31" x="226.953125"/>
       <use xlink:href="#DejaVuSans-20" x="290.576172"/>
       <use xlink:href="#DejaVuSans-31" x="322.363281"/>
       <use xlink:href="#DejaVuSans-32" x="385.986328"/>
      </g>
     </g>
    </g>
    <g id="xtick_3">
     <g id="line2d_3">
      <g>
       <use xlink:href="#m75be9867e2" x="378.712957" y="359.517187" style="stroke: #000000; stroke-width: 0.8"/>
      </g>
     </g>
     <g id="text_3">
      <!-- 09-01 15 -->
      <g transform="translate(356.232489 374.115625) scale(0.1 -0.1)">
       <defs>
        <path id="DejaVuSans-35" d="M 691 4666 
L 3169 4666 
L 3169 4134 
L 1269 4134 
L 1269 2991 
Q 1406 3038 1543 3061 
Q 1681 3084 1819 3084 
Q 2600 3084 3056 2656 
Q 3513 2228 3513 1497 
Q 3513 744 3044 326 
Q 2575 -91 1722 -91 
Q 1428 -91 1123 -41 
Q 819 9 494 109 
L 494 744 
Q 775 591 1075 516 
Q 1375 441 1709 441 
Q 2250 441 2565 725 
Q 2881 1009 2881 1497 
Q 2881 1984 2565 2268 
Q 2250 2553 1709 2553 
Q 1456 2553 1204 2497 
Q 953 2441 691 2322 
L 691 4666 
z
" transform="scale(0.015625)"/>
       </defs>
       <use xlink:href="#DejaVuSans-30"/>
       <use xlink:href="#DejaVuSans-39" x="63.623047"/>
       <use xlink:href="#DejaVuSans-2d" x="127.246094"/>
       <use xlink:href="#DejaVuSans-30" x="163.330078"/>
       <use xlink:href="#DejaVuSans-31" x="226.953125"/>
       <use xlink:href="#DejaVuSans-20" x="290.576172"/>
       <use xlink:href="#DejaVuSans-31" x="322.363281"/>
       <use xlink:href="#DejaVuSans-35" x="385.986328"/>
      </g>
     </g>
    </g>
    <g id="xtick_4">
     <g id="line2d_4">
      <g>
       <use xlink:href="#m75be9867e2" x="492.493047" y="359.517187" style="stroke: #000000; stroke-width: 0.8"/>
      </g>
     </g>
     <g id="text_4">
      <!-- 09-01 18 -->
      <g transform="translate(470.012578 374.115625) scale(0.1 -0.1)">
       <defs>
        <path id="DejaVuSans-38" d="M 2034 2216 
Q 1584 2216 1326 1975 
Q 1069 1734 1069 1313 
Q 1069 891 1326 650 
Q 1584 409 2034 409 
Q 2484 409 2743 651 
Q 3003 894 3003 1313 
Q 3003 1734 2745 1975 
Q 2488 2216 2034 2216 
z
M 1403 2484 
Q 997 2584 770 2862 
Q 544 3141 544 3541 
Q 544 4100 942 4425 
Q 1341 4750 2034 4750 
Q 2731 4750 3128 4425 
Q 3525 4100 3525 3541 
Q 3525 3141 3298 2862 
Q 3072 2584 2669 2484 
Q 3125 2378 3379 2068 
Q 3634 1759 3634 1313 
Q 3634 634 3220 271 
Q 2806 -91 2034 -91 
Q 1263 -91 848 271 
Q 434 634 434 1313 
Q 434 1759 690 2068 
Q 947 2378 1403 2484 
z
M 1172 3481 
Q 1172 3119 1398 2916 
Q 1625 2713 2034 2713 
Q 2441 2713 2670 2916 
Q 2900 3119 2900 3481 
Q 2900 3844 2670 4047 
Q 2441 4250 2034 4250 
Q 1625 4250 1398 4047 
Q 1172 3844 1172 3481 
z
" transform="scale(0.015625)"/>
       </defs>
       <use xlink:href="#DejaVuSans-30"/>
       <use xlink:href="#DejaVuSans-39" x="63.623047"/>
       <use xlink:href="#DejaVuSans-2d" x="127.246094"/>
       <use xlink:href="#DejaVuSans-30" x="163.330078"/>
       <use xlink:href="#DejaVuSans-31" x="226.953125"/>
       <use xlink:href="#DejaVuSans-20" x="290.576172"/>
       <use xlink:href="#DejaVuSans-31" x="322.363281"/>
       <use xlink:href="#DejaVuSans-38" x="385.986328"/>
      </g>
     </g>
    </g>
    <g id="xtick_5">
     <g id="line2d_5">
      <g>
       <use xlink:href="#m75be9867e2" x="606.273137" y="359.517187" style="stroke: #000000; stroke-width: 0.8"/>
      </g>
     </g>
     <g id="text_5">
      <!-- 09-01 21 -->
      <g transform="translate(583.792668 374.115625) scale(0.1 -0.1)">
       <use xlink:href="#DejaVuSans-30"/>
       <use xlink:href="#DejaVuSans-39" x="63.623047"/>
       <use xlink:href="#DejaVuSans-2d" x="127.246094"/>
       <use xlink:href="#DejaVuSans-30" x="163.330078"/>
       <use xlink:href="#DejaVuSans-31" x="226.953125"/>
       <use xlink:href="#DejaVuSans-20" x="290.576172"/>
       <use xlink:href="#DejaVuSans-32" x="322.363281"/>
       <use xlink:href="#DejaVuSans-31" x="385.986328"/>
      </g>
     </g>
    </g>
    <g id="xtick_6">
     <g id="line2d_6">
      <g>
       <use xlink:href="#m75be9867e2" x="720.053227" y="359.517187" style="stroke: #000000; stroke-width: 0.8"/>
      </g>
     </g>
     <g id="text_6">
      <!-- 09-02 00 -->
      <g transform="translate(697.572758 374.115625) scale(0.1 -0.1)">
       <use xlink:href="#DejaVuSans-30"/>
       <use xlink:href="#DejaVuSans-39" x="63.623047"/>
       <use xlink:href="#DejaVuSans-2d" x="127.246094"/>
       <use xlink:href="#DejaVuSans-30" x="163.330078"/>
       <use xlink:href="#DejaVuSans-32" x="226.953125"/>
       <use xlink:href="#DejaVuSans-20" x="290.576172"/>
       <use xlink:href="#DejaVuSans-30" x="322.363281"/>
       <use xlink:href="#DejaVuSans-30" x="385.986328"/>
      </g>
     </g>
    </g>
    <g id="xtick_7">
     <g id="line2d_7">
      <g>
       <use xlink:href="#m75be9867e2" x="833.833316" y="359.517187" style="stroke: #000000; stroke-width: 0.8"/>
      </g>
     </g>
     <g id="text_7">
      <!-- 09-02 03 -->
      <g transform="translate(811.352848 374.115625) scale(0.1 -0.1)">
       <defs>
        <path id="DejaVuSans-33" d="M 2597 2516 
Q 3050 2419 3304 2112 
Q 3559 1806 3559 1356 
Q 3559 666 3084 287 
Q 2609 -91 1734 -91 
Q 1441 -91 1130 -33 
Q 819 25 488 141 
L 488 750 
Q 750 597 1062 519 
Q 1375 441 1716 441 
Q 2309 441 2620 675 
Q 2931 909 2931 1356 
Q 2931 1769 2642 2001 
Q 2353 2234 1838 2234 
L 1294 2234 
L 1294 2753 
L 1863 2753 
Q 2328 2753 2575 2939 
Q 2822 3125 2822 3475 
Q 2822 3834 2567 4026 
Q 2313 4219 1838 4219 
Q 1578 4219 1281 4162 
Q 984 4106 628 3988 
L 628 4550 
Q 988 4650 1302 4700 
Q 1616 4750 1894 4750 
Q 2613 4750 3031 4423 
Q 3450 4097 3450 3541 
Q 3450 3153 3228 2886 
Q 3006 2619 2597 2516 
z
" transform="scale(0.015625)"/>
       </defs>
       <use xlink:href="#DejaVuSans-30"/>
       <use xlink:href="#DejaVuSans-39" x="63.623047"/>
       <use xlink:href="#DejaVuSans-2d" x="127.246094"/>
       <use xlink:href="#DejaVuSans-30" x="163.330078"/>
       <use xlink:href="#DejaVuSans-32" x="226.953125"/>
       <use xlink:href="#DejaVuSans-20" x="290.576172"/>
       <use xlink:href="#DejaVuSans-30" x="322.363281"/>
       <use xlink:href="#DejaVuSans-33" x="385.986328"/>
      </g>
     </g>
    </g>
    <g id="xtick_8">
     <g id="line2d_8">
      <g>
       <use xlink:href="#m75be9867e2" x="947.613406" y="359.517187" style="stroke: #000000; stroke-width: 0.8"/>
      </g>
     </g>
     <g id="text_8">
      <!-- 09-02 06 -->
      <g transform="translate(925.132937 374.115625) scale(0.1 -0.1)">
       <defs>
        <path id="DejaVuSans-36" d="M 2113 2584 
Q 1688 2584 1439 2293 
Q 1191 2003 1191 1497 
Q 1191 994 1439 701 
Q 1688 409 2113 409 
Q 2538 409 2786 701 
Q 3034 994 3034 1497 
Q 3034 2003 2786 2293 
Q 2538 2584 2113 2584 
z
M 3366 4563 
L 3366 3988 
Q 3128 4100 2886 4159 
Q 2644 4219 2406 4219 
Q 1781 4219 1451 3797 
Q 1122 3375 1075 2522 
Q 1259 2794 1537 2939 
Q 1816 3084 2150 3084 
Q 2853 3084 3261 2657 
Q 3669 2231 3669 1497 
Q 3669 778 3244 343 
Q 2819 -91 2113 -91 
Q 1303 -91 875 529 
Q 447 1150 447 2328 
Q 447 3434 972 4092 
Q 1497 4750 2381 4750 
Q 2619 4750 2861 4703 
Q 3103 4656 3366 4563 
z
" transform="scale(0.015625)"/>
       </defs>
       <use xlink:href="#DejaVuSans-30"/>
       <use xlink:href="#DejaVuSans-39" x="63.623047"/>
       <use xlink:href="#DejaVuSans-2d" x="127.246094"/>
       <use xlink:href="#DejaVuSans-30" x="163.330078"/>
       <use xlink:href="#DejaVuSans-32" x="226.953125"/>
       <use xlink:href="#DejaVuSans-20" x="290.576172"/>
       <use xlink:href="#DejaVuSans-30" x="322.363281"/>
       <use xlink:href="#DejaVuSans-36" x="385.986328"/>
      </g>
     </g>
    </g>
    <g id="xtick_9">
     <g id="line2d_9">
      <g>
       <use xlink:href="#m75be9867e2" x="1061.393496" y="359.517187" style="stroke: #000000; stroke-width: 0.8"/>
      </g>
     </g>
     <g id="text_9">
      <!-- 09-02 09 -->
      <g transform="translate(1038.913027 374.115625) scale(0.1 -0.1)">
       <use xlink:href="#DejaVuSans-30"/>
       <use xlink:href="#DejaVuSans-39" x="63.623047"/>
       <use xlink:href="#DejaVuSans-2d" x="127.246094"/>
       <use xlink:href="#DejaVuSans-30" x="163.330078"/>
       <use xlink:href="#DejaVuSans-32" x="226.953125"/>
       <use xlink:href="#DejaVuSans-20" x="290.576172"/>
       <use xlink:href="#DejaVuSans-30" x="322.363281"/>
       <use xlink:href="#DejaVuSans-39" x="385.986328"/>
      </g>
     </g>
    </g>
    <g id="text_10">
     <!-- Time -->
     <g transform="translate(592.554688 389.313437) scale(0.12 -0.12)">
      <defs>
       <path id="DejaVuSans-54" d="M -19 4666 
L 3928 4666 
L 3928 4134 
L 2272 4134 
L 2272 0 
L 1638 0 
L 1638 4134 
L -19 4134 
L -19 4666 
z
" transform="scale(0.015625)"/>
       <path id="DejaVuSans-69" d="M 603 3500 
L 1178 3500 
L 1178 0 
L 603 0 
L 603 3500 
z
M 603 4863 
L 1178 4863 
L 1178 4134 
L 603 4134 
L 603 4863 
z
" transform="scale(0.015625)"/>
       <path id="DejaVuSans-6d" d="M 3328 2828 
Q 3544 3216 3844 3400 
Q 4144 3584 4550 3584 
Q 5097 3584 5394 3201 
Q 5691 2819 5691 2113 
L 5691 0 
L 5113 0 
L 5113 2094 
Q 5113 2597 4934 2840 
Q 4756 3084 4391 3084 
Q 3944 3084 3684 2787 
Q 3425 2491 3425 1978 
L 3425 0 
L 2847 0 
L 2847 2094 
Q 2847 2600 2669 2842 
Q 2491 3084 2119 3084 
Q 1678 3084 1418 2786 
Q 1159 2488 1159 1978 
L 1159 0 
L 581 0 
L 581 3500 
L 1159 3500 
L 1159 2956 
Q 1356 3278 1631 3431 
Q 1906 3584 2284 3584 
Q 2666 3584 2933 3390 
Q 3200 3197 3328 2828 
z
" transform="scale(0.015625)"/>
       <path id="DejaVuSans-65" d="M 3597 1894 
L 3597 1613 
L 953 1613 
Q 991 1019 1311 708 
Q 1631 397 2203 397 
Q 2534 397 2845 478 
Q 3156 559 3463 722 
L 3463 178 
Q 3153 47 2828 -22 
Q 2503 -91 2169 -91 
Q 1331 -91 842 396 
Q 353 884 353 1716 
Q 353 2575 817 3079 
Q 1281 3584 2069 3584 
Q 2775 3584 3186 3129 
Q 3597 2675 3597 1894 
z
M 3022 2063 
Q 3016 2534 2758 2815 
Q 2500 3097 2075 3097 
Q 1594 3097 1305 2825 
Q 1016 2553 972 2059 
L 3022 2063 
z
" transform="scale(0.015625)"/>
      </defs>
      <use xlink:href="#DejaVuSans-54"/>
      <use xlink:href="#DejaVuSans-69" x="57.958984"/>
      <use xlink:href="#DejaVuSans-6d" x="85.742188"/>
      <use xlink:href="#DejaVuSans-65" x="183.154297"/>
     </g>
    </g>
   </g>
   <g id="matplotlib.axis_2">
    <g id="ytick_1">
     <g id="line2d_10">
      <defs>
       <path id="m867b28db21" d="M 0 0 
L -3.5 0 
" style="stroke: #000000; stroke-width: 0.8"/>
      </defs>
      <g>
       <use xlink:href="#m867b28db21" x="49.235" y="344.397187" style="stroke: #000000; stroke-width: 0.8"/>
      </g>
     </g>
     <g id="text_11">
      <!-- 0 -->
      <g transform="translate(35.8725 348.196406) scale(0.1 -0.1)">
       <use xlink:href="#DejaVuSans-30"/>
      </g>
     </g>
    </g>
    <g id="ytick_2">
     <g id="line2d_11">
      <g>
       <use xlink:href="#m867b28db21" x="49.235" y="298.439741" style="stroke: #000000; stroke-width: 0.8"/>
      </g>
     </g>
     <g id="text_12">
      <!-- 50 -->
      <g transform="translate(29.51 302.238959) scale(0.1 -0.1)">
       <use xlink:href="#DejaVuSans-35"/>
       <use xlink:href="#DejaVuSans-30" x="63.623047"/>
      </g>
     </g>
    </g>
    <g id="ytick_3">
     <g id="line2d_12">
      <g>
       <use xlink:href="#m867b28db21" x="49.235" y="252.482294" style="stroke: #000000; stroke-width: 0.8"/>
      </g>
     </g>
     <g id="text_13">
      <!-- 100 -->
      <g transform="translate(23.1475 256.281513) scale(0.1 -0.1)">
       <use xlink:href="#DejaVuSans-31"/>
       <use xlink:href="#DejaVuSans-30" x="63.623047"/>
       <use xlink:href="#DejaVuSans-30" x="127.246094"/>
      </g>
     </g>
    </g>
    <g id="ytick_4">
     <g id="line2d_13">
      <g>
       <use xlink:href="#m867b28db21" x="49.235" y="206.524847" style="stroke: #000000; stroke-width: 0.8"/>
      </g>
     </g>
     <g id="text_14">
      <!-- 150 -->
      <g transform="translate(23.1475 210.324066) scale(0.1 -0.1)">
       <use xlink:href="#DejaVuSans-31"/>
       <use xlink:href="#DejaVuSans-35" x="63.623047"/>
       <use xlink:href="#DejaVuSans-30" x="127.246094"/>
      </g>
     </g>
    </g>
    <g id="ytick_5">
     <g id="line2d_14">
      <g>
       <use xlink:href="#m867b28db21" x="49.235" y="160.5674" style="stroke: #000000; stroke-width: 0.8"/>
      </g>
     </g>
     <g id="text_15">
      <!-- 200 -->
      <g transform="translate(23.1475 164.366619) scale(0.1 -0.1)">
       <use xlink:href="#DejaVuSans-32"/>
       <use xlink:href="#DejaVuSans-30" x="63.623047"/>
       <use xlink:href="#DejaVuSans-30" x="127.246094"/>
      </g>
     </g>
    </g>
    <g id="ytick_6">
     <g id="line2d_15">
      <g>
       <use xlink:href="#m867b28db21" x="49.235" y="114.609953" style="stroke: #000000; stroke-width: 0.8"/>
      </g>
     </g>
     <g id="text_16">
      <!-- 250 -->
      <g transform="translate(23.1475 118.409172) scale(0.1 -0.1)">
       <use xlink:href="#DejaVuSans-32"/>
       <use xlink:href="#DejaVuSans-35" x="63.623047"/>
       <use xlink:href="#DejaVuSans-30" x="127.246094"/>
      </g>
     </g>
    </g>
    <g id="ytick_7">
     <g id="line2d_16">
      <g>
       <use xlink:href="#m867b28db21" x="49.235" y="68.652507" style="stroke: #000000; stroke-width: 0.8"/>
      </g>
     </g>
     <g id="text_17">
      <!-- 300 -->
      <g transform="translate(23.1475 72.451725) scale(0.1 -0.1)">
       <use xlink:href="#DejaVuSans-33"/>
       <use xlink:href="#DejaVuSans-30" x="63.623047"/>
       <use xlink:href="#DejaVuSans-30" x="127.246094"/>
      </g>
     </g>
    </g>
    <g id="text_18">
     <!-- Pellet_Count -->
     <g transform="translate(16.318125 230.485312) rotate(-90) scale(0.12 -0.12)">
      <defs>
       <path id="DejaVuSans-50" d="M 1259 4147 
L 1259 2394 
L 2053 2394 
Q 2494 2394 2734 2622 
Q 2975 2850 2975 3272 
Q 2975 3691 2734 3919 
Q 2494 4147 2053 4147 
L 1259 4147 
z
M 628 4666 
L 2053 4666 
Q 2838 4666 3239 4311 
Q 3641 3956 3641 3272 
Q 3641 2581 3239 2228 
Q 2838 1875 2053 1875 
L 1259 1875 
L 1259 0 
L 628 0 
L 628 4666 
z
" transform="scale(0.015625)"/>
       <path id="DejaVuSans-6c" d="M 603 4863 
L 1178 4863 
L 1178 0 
L 603 0 
L 603 4863 
z
" transform="scale(0.015625)"/>
       <path id="DejaVuSans-74" d="M 1172 4494 
L 1172 3500 
L 2356 3500 
L 2356 3053 
L 1172 3053 
L 1172 1153 
Q 1172 725 1289 603 
Q 1406 481 1766 481 
L 2356 481 
L 2356 0 
L 1766 0 
Q 1100 0 847 248 
Q 594 497 594 1153 
L 594 3053 
L 172 3053 
L 172 3500 
L 594 3500 
L 594 4494 
L 1172 4494 
z
" transform="scale(0.015625)"/>
       <path id="DejaVuSans-5f" d="M 3263 -1063 
L 3263 -1509 
L -63 -1509 
L -63 -1063 
L 3263 -1063 
z
" transform="scale(0.015625)"/>
       <path id="DejaVuSans-43" d="M 4122 4306 
L 4122 3641 
Q 3803 3938 3442 4084 
Q 3081 4231 2675 4231 
Q 1875 4231 1450 3742 
Q 1025 3253 1025 2328 
Q 1025 1406 1450 917 
Q 1875 428 2675 428 
Q 3081 428 3442 575 
Q 3803 722 4122 1019 
L 4122 359 
Q 3791 134 3420 21 
Q 3050 -91 2638 -91 
Q 1578 -91 968 557 
Q 359 1206 359 2328 
Q 359 3453 968 4101 
Q 1578 4750 2638 4750 
Q 3056 4750 3426 4639 
Q 3797 4528 4122 4306 
z
" transform="scale(0.015625)"/>
       <path id="DejaVuSans-6f" d="M 1959 3097 
Q 1497 3097 1228 2736 
Q 959 2375 959 1747 
Q 959 1119 1226 758 
Q 1494 397 1959 397 
Q 2419 397 2687 759 
Q 2956 1122 2956 1747 
Q 2956 2369 2687 2733 
Q 2419 3097 1959 3097 
z
M 1959 3584 
Q 2709 3584 3137 3096 
Q 3566 2609 3566 1747 
Q 3566 888 3137 398 
Q 2709 -91 1959 -91 
Q 1206 -91 779 398 
Q 353 888 353 1747 
Q 353 2609 779 3096 
Q 1206 3584 1959 3584 
z
" transform="scale(0.015625)"/>
       <path id="DejaVuSans-75" d="M 544 1381 
L 544 3500 
L 1119 3500 
L 1119 1403 
Q 1119 906 1312 657 
Q 1506 409 1894 409 
Q 2359 409 2629 706 
Q 2900 1003 2900 1516 
L 2900 3500 
L 3475 3500 
L 3475 0 
L 2900 0 
L 2900 538 
Q 2691 219 2414 64 
Q 2138 -91 1772 -91 
Q 1169 -91 856 284 
Q 544 659 544 1381 
z
M 1991 3584 
L 1991 3584 
z
" transform="scale(0.015625)"/>
       <path id="DejaVuSans-6e" d="M 3513 2113 
L 3513 0 
L 2938 0 
L 2938 2094 
Q 2938 2591 2744 2837 
Q 2550 3084 2163 3084 
Q 1697 3084 1428 2787 
Q 1159 2491 1159 1978 
L 1159 0 
L 581 0 
L 581 3500 
L 1159 3500 
L 1159 2956 
Q 1366 3272 1645 3428 
Q 1925 3584 2291 3584 
Q 2894 3584 3203 3211 
Q 3513 2838 3513 2113 
z
" transform="scale(0.015625)"/>
      </defs>
      <use xlink:href="#DejaVuSans-50"/>
      <use xlink:href="#DejaVuSans-65" x="56.677734"/>
      <use xlink:href="#DejaVuSans-6c" x="118.201172"/>
      <use xlink:href="#DejaVuSans-6c" x="145.984375"/>
      <use xlink:href="#DejaVuSans-65" x="173.767578"/>
      <use xlink:href="#DejaVuSans-74" x="235.291016"/>
      <use xlink:href="#DejaVuSans-5f" x="274.5"/>
      <use xlink:href="#DejaVuSans-43" x="324.5"/>
      <use xlink:href="#DejaVuSans-6f" x="394.324219"/>
      <use xlink:href="#DejaVuSans-75" x="455.505859"/>
      <use xlink:href="#DejaVuSans-6e" x="518.884766"/>
      <use xlink:href="#DejaVuSans-74" x="582.263672"/>
     </g>
    </g>
   </g>
   <g id="line2d_17">
    <path d="M 99.962273 344.397187 
L 102.912127 344.397187 
L 102.985873 343.478039 
L 105.314151 343.478039 
L 105.51432 342.55889 
L 105.809305 342.55889 
L 106.020009 341.639741 
L 106.799613 341.639741 
L 106.904965 340.720592 
L 107.842597 340.720592 
L 108.042766 339.801443 
L 109.033074 339.801443 
L 109.170032 338.882294 
L 110.255157 338.882294 
L 110.276227 337.963145 
L 113.289292 337.963145 
L 113.394644 337.043996 
L 126.22651 337.043996 
L 126.24758 336.124847 
L 129.429209 336.124847 
L 129.524026 335.205698 
L 134.443961 335.205698 
L 134.454496 334.286549 
L 135.170889 334.286549 
L 135.170889 334.286549 
L 135.423734 333.3674 
L 136.213874 333.3674 
L 136.256014 332.448251 
L 137.699336 332.448251 
L 137.730941 331.529102 
L 138.131279 331.529102 
L 138.162884 330.609953 
L 139.332291 330.609953 
L 139.353361 329.690805 
L 139.5746 329.690805 
L 139.595671 328.771656 
L 140.006543 328.771656 
L 140.027614 327.852507 
L 140.491162 327.852507 
L 140.512232 326.933358 
L 140.93364 326.933358 
L 140.954711 326.014209 
L 141.249696 326.014209 
L 141.270766 325.09506 
L 141.492005 325.09506 
L 141.502541 324.175911 
L 141.681639 324.175911 
L 141.72378 323.256762 
L 141.997695 323.256762 
L 142.050371 322.337613 
L 142.261075 322.337613 
L 142.29268 321.418464 
L 142.566595 321.418464 
L 142.598201 320.499315 
L 143.546368 320.499315 
L 143.577974 319.580166 
L 144.44186 319.580166 
L 144.484 318.661017 
L 145.063436 318.661017 
L 145.063436 317.741868 
L 146.022139 317.741868 
L 146.053744 316.822719 
L 146.454082 316.822719 
L 146.569969 314.984422 
L 146.791208 314.984422 
L 146.812278 314.065273 
L 147.549742 314.065273 
L 147.560277 313.146124 
L 149.793738 313.146124 
L 149.825344 312.226975 
L 151.057961 312.226975 
L 151.079032 311.307826 
L 151.679538 311.307826 
L 151.711143 310.388677 
L 154.618857 310.388677 
L 154.629392 309.469528 
L 156.209671 309.469528 
L 156.325558 308.550379 
L 156.388769 307.63123 
L 157.294796 307.63123 
L 157.305331 306.712081 
L 159.528257 306.712081 
L 159.549327 305.792932 
L 161.329775 305.792932 
L 161.350845 304.873783 
L 165.512247 304.873783 
L 165.564923 303.954634 
L 165.891514 303.954634 
L 165.933654 303.035485 
L 166.260245 303.035485 
L 166.281316 302.116336 
L 168.662269 302.116336 
L 168.725481 301.197187 
L 173.192403 301.197187 
L 173.213473 300.278039 
L 173.360966 300.278039 
L 173.392571 299.35889 
L 173.582205 299.35889 
L 173.59274 298.439741 
L 173.719162 298.439741 
L 173.729698 297.520592 
L 173.940401 297.520592 
L 173.972007 296.601443 
L 174.962315 296.601443 
L 175.078202 295.682294 
L 176.542594 295.682294 
L 176.83758 294.763145 
L 177.12203 294.763145 
L 177.1431 293.843996 
L 180.872559 293.843996 
L 181.926078 292.924847 
L 184.918073 292.924847 
L 184.939143 292.005698 
L 186.624774 292.005698 
L 186.772267 291.086549 
L 186.91976 291.086549 
L 186.94083 290.1674 
L 195.695576 290.1674 
L 195.90628 289.248251 
L 197.223179 289.248251 
L 197.244249 288.329102 
L 198.202952 288.329102 
L 199.17219 287.409953 
L 204.745307 287.409953 
L 204.787448 286.490805 
L 209.433468 286.490805 
L 209.454539 285.571656 
L 209.812735 285.571656 
L 211.224451 284.652507 
L 213.521123 284.652507 
L 213.542194 283.733358 
L 215.280501 283.733358 
L 215.343712 282.814209 
L 216.629005 282.814209 
L 216.650076 281.89506 
L 217.197906 281.89506 
L 217.208441 280.975911 
L 219.979197 280.975911 
L 220.010803 280.056762 
L 220.463816 280.056762 
L 220.474351 279.137613 
L 222.549784 279.137613 
L 222.570855 278.218464 
L 225.204653 278.218464 
L 228.84983 277.299315 
L 228.860365 276.380166 
L 232.431796 276.380166 
L 232.442331 275.461017 
L 232.716246 275.461017 
L 232.737316 274.541868 
L 238.626489 274.541868 
L 238.637025 273.622719 
L 239.153249 273.622719 
L 239.19539 272.70357 
L 244.231212 272.70357 
L 244.252283 271.784422 
L 246.928222 271.784422 
L 246.938757 270.865273 
L 247.138926 270.865273 
L 247.181067 269.946124 
L 247.3707 269.946124 
L 247.39177 269.026975 
L 249.878076 269.026975 
L 249.899147 268.107826 
L 250.10985 268.107826 
L 250.141456 267.188677 
L 250.320554 267.188677 
L 250.436441 266.269528 
L 250.499653 265.350379 
L 251.131764 265.350379 
L 251.268722 264.43123 
L 253.038634 264.43123 
L 253.059705 263.512081 
L 253.491648 263.512081 
L 254.671589 262.592932 
L 257.178965 262.592932 
L 257.200036 261.673783 
L 261.888197 261.673783 
L 262.046225 260.754634 
L 266.544752 260.754634 
L 266.565823 259.835485 
L 266.70278 259.835485 
L 266.860808 257.997187 
L 271.285589 257.997187 
L 271.296125 257.078039 
L 272.012518 257.078039 
L 272.044123 256.15889 
L 276.131778 256.15889 
L 276.194989 255.239741 
L 278.12293 254.320592 
L 280.461743 254.320592 
L 280.472278 253.401443 
L 292.334906 253.401443 
L 292.355976 252.482294 
L 292.556145 252.482294 
L 292.577215 251.563145 
L 296.306674 251.563145 
L 296.317209 250.643996 
L 296.728082 250.643996 
L 296.749152 249.724847 
L 299.182782 249.724847 
L 299.814893 248.805698 
L 303.733985 248.805698 
L 303.74452 247.886549 
L 305.272124 247.886549 
L 305.293194 246.9674 
L 305.461757 246.9674 
L 305.493363 246.048251 
L 305.60925 246.048251 
L 305.63032 245.129102 
L 305.809418 245.129102 
L 305.851559 244.209953 
L 305.988517 244.209953 
L 306.009587 243.290805 
L 306.209756 243.290805 
L 306.230826 242.371656 
L 310.971663 242.371656 
L 310.992734 241.452507 
L 311.940901 241.452507 
L 311.951436 240.533358 
L 312.42552 240.533358 
L 312.44659 239.614209 
L 312.594083 239.614209 
L 312.604618 238.69506 
L 312.752111 238.69506 
L 312.762646 237.775911 
L 313.036561 237.775911 
L 313.162983 236.856762 
L 313.299941 236.856762 
L 313.321011 235.937613 
L 317.229568 235.937613 
L 322.023081 235.018464 
L 324.920259 234.099315 
L 327.532987 234.099315 
L 327.554058 233.180166 
L 333.780357 233.180166 
L 333.875174 232.261017 
L 334.928693 231.341868 
L 334.991904 231.341868 
L 335.012975 230.422719 
L 335.202608 230.422719 
L 335.223679 229.50357 
L 340.343783 229.50357 
L 385.202637 228.584422 
L 385.223707 227.665273 
L 385.550298 227.665273 
L 385.571368 226.746124 
L 386.719704 226.746124 
L 386.740775 225.826975 
L 387.056831 225.826975 
L 387.077901 224.907826 
L 387.362351 224.907826 
L 387.415027 223.988677 
L 387.762689 223.988677 
L 387.773224 223.069528 
L 387.962857 223.069528 
L 387.983928 222.150379 
L 409.812849 222.150379 
L 409.833919 221.23123 
L 410.72941 221.23123 
L 410.845298 219.392932 
L 411.098142 219.392932 
L 411.108677 218.473783 
L 411.319381 218.473783 
L 411.329916 217.554634 
L 411.509015 217.554634 
L 411.530085 216.635485 
L 412.341295 216.635485 
L 413.468561 215.716336 
L 414.374587 215.716336 
L 414.385123 214.797187 
L 414.869741 214.797187 
L 415.765233 213.878039 
L 416.323598 213.878039 
L 416.334133 212.95889 
L 421.412097 212.95889 
L 421.84404 212.039741 
L 425.65778 212.039741 
L 425.773667 210.201443 
L 427.627861 210.201443 
L 427.627861 210.201443 
L 427.670002 209.282294 
L 427.796424 209.282294 
L 427.817494 208.363145 
L 428.15462 208.363145 
L 428.165156 207.443996 
L 428.302113 207.443996 
L 428.333719 206.524847 
L 428.481211 206.524847 
L 428.502282 205.605698 
L 428.649775 205.605698 
L 428.670845 204.686549 
L 428.828873 204.686549 
L 428.849943 203.7674 
L 428.96583 203.7674 
L 428.976366 202.848251 
L 429.144929 202.848251 
L 429.165999 201.929102 
L 431.873544 201.929102 
L 432.316022 201.009953 
L 432.505655 201.009953 
L 433.432752 200.090805 
L 434.802328 200.090805 
L 435.044637 199.171656 
L 435.697819 199.171656 
L 435.718889 198.252507 
L 435.855847 198.252507 
L 435.866382 197.333358 
L 436.730268 197.333358 
L 436.867225 196.414209 
L 439.184968 196.414209 
L 440.249023 195.49506 
L 446.001238 195.49506 
L 446.022309 194.575911 
L 447.70794 194.575911 
L 447.72901 193.656762 
L 451.01599 193.656762 
L 453.934239 192.737613 
L 456.483756 192.737613 
L 456.494291 191.818464 
L 456.69446 191.818464 
L 456.726065 190.899315 
L 456.99998 190.899315 
L 457.010515 189.980166 
L 457.136938 189.980166 
L 457.147473 189.061017 
L 457.28443 189.061017 
L 457.305501 188.141868 
L 457.632092 188.141868 
L 457.653162 187.222719 
L 457.779585 187.222719 
L 457.79012 186.30357 
L 457.990288 186.30357 
L 458.011359 185.384422 
L 458.179922 185.384422 
L 458.190457 184.465273 
L 459.897158 184.465273 
L 464.732812 183.546124 
L 468.061933 183.546124 
L 469.768635 182.626975 
L 472.160124 182.626975 
L 472.181194 181.707826 
L 472.307616 181.707826 
L 472.318152 180.788677 
L 472.444574 180.788677 
L 472.602602 179.869528 
L 472.729024 179.869528 
L 472.750094 178.950379 
L 479.176563 178.950379 
L 479.271379 178.03123 
L 480.093124 178.03123 
L 480.12473 177.112081 
L 480.756842 177.112081 
L 480.830588 175.273783 
L 480.93594 175.273783 
L 480.946475 174.354634 
L 485.624101 174.354634 
L 488.879476 173.435485 
L 493.799411 173.435485 
L 493.841552 172.516336 
L 494.642227 171.597187 
L 495.042564 171.597187 
L 495.232197 169.75889 
L 495.400761 169.75889 
L 495.421831 168.839741 
L 495.674676 168.839741 
L 498.582389 167.920592 
L 504.376745 167.920592 
L 504.91404 167.001443 
L 508.99116 167.001443 
L 509.022766 166.082294 
L 509.317751 166.082294 
L 509.359892 165.163145 
L 511.540677 164.243996 
L 515.185854 164.243996 
L 515.733684 163.324847 
L 515.870641 161.486549 
L 517.535202 161.486549 
L 518.314806 160.5674 
L 518.462299 160.5674 
L 521.338407 159.648251 
L 521.833561 158.729102 
L 524.003811 158.729102 
L 526.764032 157.809953 
L 526.774567 156.890805 
L 527.069552 156.890805 
L 527.080087 155.971656 
L 541.397415 155.971656 
L 541.429021 155.052507 
L 542.925018 155.052507 
L 542.935554 154.133358 
L 543.283215 154.133358 
L 543.29375 153.214209 
L 543.441243 153.214209 
L 543.462313 152.29506 
L 553.365395 152.29506 
L 555.356547 151.375911 
L 715.502023 151.375911 
L 715.523093 150.456762 
L 715.828614 150.456762 
L 715.849684 149.537613 
L 716.049853 149.537613 
L 716.070923 148.618464 
L 716.239487 148.618464 
L 716.250022 147.699315 
L 716.471261 147.699315 
L 716.492331 146.780166 
L 717.630132 146.780166 
L 717.735484 145.861017 
L 728.123185 145.861017 
L 728.218002 144.022719 
L 728.386565 144.022719 
L 728.3971 143.10357 
L 728.586733 143.10357 
L 728.628874 142.184422 
L 728.786902 142.184422 
L 728.807972 141.265273 
L 728.976535 141.265273 
L 728.997606 140.346124 
L 729.197775 140.346124 
L 729.20831 139.426975 
L 844.08406 139.426975 
L 844.10513 138.507826 
L 844.315834 138.507826 
L 844.347439 137.588677 
L 844.621354 137.588677 
L 844.63189 136.669528 
L 844.832058 136.669528 
L 844.863664 135.750379 
L 845.053297 135.750379 
L 845.063833 134.83123 
L 845.232396 134.83123 
L 845.253466 133.912081 
L 853.449847 133.912081 
L 853.470917 132.992932 
L 921.465056 132.992932 
L 921.67576 131.154634 
L 921.844323 131.154634 
L 921.854858 130.235485 
L 922.26573 130.235485 
L 922.286801 129.316336 
L 922.465899 129.316336 
L 922.476434 128.397187 
L 923.0348 128.397187 
L 923.045335 127.478039 
L 923.287644 127.478039 
L 923.298179 126.55889 
L 925.51057 126.55889 
L 925.53164 125.639741 
L 949.562417 125.639741 
L 949.583487 124.720592 
L 949.836332 124.720592 
L 949.846867 123.801443 
L 950.447373 123.801443 
L 950.457908 122.882294 
L 951.121625 122.882294 
L 951.142696 121.963145 
L 951.39554 121.963145 
L 951.806413 121.043996 
L 951.816948 120.124847 
L 968.135963 120.124847 
L 968.157033 119.205698 
L 968.346667 119.205698 
L 968.357202 118.286549 
L 968.504695 118.286549 
L 968.525765 117.3674 
L 968.989314 117.3674 
L 969.08413 115.529102 
L 971.285986 115.529102 
L 971.507225 112.771656 
L 971.854886 112.771656 
L 971.865421 111.852507 
L 972.149872 111.852507 
L 972.160407 110.933358 
L 973.108574 110.933358 
L 973.14018 110.014209 
L 973.287673 110.014209 
L 973.319278 109.09506 
L 973.519447 109.09506 
L 973.529982 108.175911 
L 973.730151 108.175911 
L 973.730151 108.175911 
L 973.772291 107.256762 
L 980.493745 107.256762 
L 980.50428 106.337613 
L 986.309172 106.337613 
L 986.330242 105.418464 
L 1000.057599 105.418464 
L 1000.07867 104.499315 
L 1000.342049 104.499315 
L 1000.352585 103.580166 
L 1000.563289 103.580166 
L 1000.573824 102.661017 
L 1000.752922 102.661017 
L 1000.773992 101.741868 
L 1001.058443 101.741868 
L 1001.068978 100.822719 
L 1001.237541 100.822719 
L 1001.258611 99.90357 
L 1001.469315 99.90357 
L 1001.47985 98.984422 
L 1001.648413 98.984422 
L 1001.680019 98.065273 
L 1001.911793 98.065273 
L 1001.922328 97.146124 
L 1025.94257 97.146124 
L 1026.047922 95.307826 
L 1026.785385 95.307826 
L 1026.806456 94.388677 
L 1026.964483 94.388677 
L 1026.975019 93.469528 
L 1027.143582 93.469528 
L 1027.154117 92.550379 
L 1033.2856 92.550379 
L 1033.369881 91.63123 
L 1034.286443 91.63123 
L 1034.38126 89.792932 
L 1034.560358 89.792932 
L 1034.570893 88.873783 
L 1034.771062 88.873783 
L 1034.781597 87.954634 
L 1035.308357 87.954634 
L 1035.361033 86.116336 
L 1035.561201 86.116336 
L 1035.666553 85.197187 
L 1035.877257 85.197187 
L 1035.887792 84.278039 
L 1036.035285 84.278039 
L 1036.056355 83.35889 
L 1036.182778 83.35889 
L 1036.193313 82.439741 
L 1036.33027 82.439741 
L 1036.351341 81.520592 
L 1036.562045 81.520592 
L 1036.583115 80.601443 
L 1043.452061 80.601443 
L 1043.462596 79.682294 
L 1043.968286 79.682294 
L 1044.042032 77.843996 
L 1044.20006 77.843996 
L 1044.210595 76.924847 
L 1044.368623 76.924847 
L 1044.379158 76.005698 
L 1044.495045 76.005698 
L 1044.505581 75.086549 
L 1052.575539 75.086549 
L 1052.596609 74.1674 
L 1052.712496 74.1674 
L 1052.723032 73.248251 
L 1052.90213 73.248251 
L 1052.90213 72.329102 
L 1053.660664 72.329102 
L 1053.744945 71.409953 
L 1053.881903 70.490805 
L 1054.050466 70.490805 
L 1054.071536 69.571656 
L 1054.250635 69.571656 
L 1054.26117 68.652507 
L 1054.408662 68.652507 
L 1054.429733 67.733358 
L 1054.661507 67.733358 
L 1054.672042 66.814209 
L 1054.840605 66.814209 
L 1054.851141 65.89506 
L 1055.019704 65.89506 
L 1055.030239 64.975911 
L 1055.209337 64.975911 
L 1055.230408 64.056762 
L 1055.430576 64.056762 
L 1055.451647 63.137613 
L 1059.233781 63.137613 
L 1059.244316 62.218464 
L 1071.243902 62.218464 
L 1071.275507 61.299315 
L 1076.06902 61.299315 
L 1076.06902 61.299315 
L 1076.31133 60.380166 
L 1077.16468 60.380166 
L 1077.206821 58.541868 
L 1077.364849 58.541868 
L 1077.375384 57.622719 
L 1077.491271 57.622719 
L 1077.628229 55.784422 
L 1077.775722 55.784422 
L 1077.93375 53.946124 
L 1078.060172 53.946124 
L 1078.081242 53.026975 
L 1078.249805 53.026975 
L 1078.291946 52.107826 
L 1078.449974 52.107826 
L 1078.460509 51.188677 
L 1078.629072 51.188677 
L 1078.639608 50.269528 
L 1078.7871 50.269528 
L 1078.808171 49.350379 
L 1079.008339 49.350379 
L 1079.155832 47.512081 
L 1079.303325 47.512081 
L 1079.324395 46.592932 
L 1079.482423 46.592932 
L 1079.514029 45.673783 
L 1079.672056 45.673783 
L 1079.703662 44.754634 
L 1083.685965 44.754634 
L 1083.707036 43.835485 
L 1088.532154 43.835485 
L 1088.542689 42.916336 
L 1090.154574 42.916336 
L 1090.165109 41.997187 
L 1098.709151 41.997187 
L 1098.709151 41.997187 
" clip-path="url(#p6b296a06ef)" style="fill: none; stroke: #0000ff; stroke-width: 1.5; stroke-linecap: square"/>
   </g>
   <g id="patch_55">
    <path d="M 49.235 359.517187 
L 49.235 26.877187 
" style="fill: none; stroke: #000000; stroke-width: 0.8; stroke-linejoin: miter; stroke-linecap: square"/>
   </g>
   <g id="patch_56">
    <path d="M 1165.235 359.517187 
L 1165.235 26.877187 
" style="fill: none; stroke: #000000; stroke-width: 0.8; stroke-linejoin: miter; stroke-linecap: square"/>
   </g>
   <g id="patch_57">
    <path d="M 49.235 359.517187 
L 1165.235 359.517187 
" style="fill: none; stroke: #000000; stroke-width: 0.8; stroke-linejoin: miter; stroke-linecap: square"/>
   </g>
   <g id="patch_58">
    <path d="M 49.235 26.877187 
L 1165.235 26.877187 
" style="fill: none; stroke: #000000; stroke-width: 0.8; stroke-linejoin: miter; stroke-linecap: square"/>
   </g>
   <g id="text_19">
    <!-- Pellet Count and Cumulative Sum Over Time of Group 10 Mouse 1 -->
    <g transform="translate(309.734375 20.877187) scale(0.18 -0.18)">
     <defs>
      <path id="DejaVuSans-61" d="M 2194 1759 
Q 1497 1759 1228 1600 
Q 959 1441 959 1056 
Q 959 750 1161 570 
Q 1363 391 1709 391 
Q 2188 391 2477 730 
Q 2766 1069 2766 1631 
L 2766 1759 
L 2194 1759 
z
M 3341 1997 
L 3341 0 
L 2766 0 
L 2766 531 
Q 2569 213 2275 61 
Q 1981 -91 1556 -91 
Q 1019 -91 701 211 
Q 384 513 384 1019 
Q 384 1609 779 1909 
Q 1175 2209 1959 2209 
L 2766 2209 
L 2766 2266 
Q 2766 2663 2505 2880 
Q 2244 3097 1772 3097 
Q 1472 3097 1187 3025 
Q 903 2953 641 2809 
L 641 3341 
Q 956 3463 1253 3523 
Q 1550 3584 1831 3584 
Q 2591 3584 2966 3190 
Q 3341 2797 3341 1997 
z
" transform="scale(0.015625)"/>
      <path id="DejaVuSans-64" d="M 2906 2969 
L 2906 4863 
L 3481 4863 
L 3481 0 
L 2906 0 
L 2906 525 
Q 2725 213 2448 61 
Q 2172 -91 1784 -91 
Q 1150 -91 751 415 
Q 353 922 353 1747 
Q 353 2572 751 3078 
Q 1150 3584 1784 3584 
Q 2172 3584 2448 3432 
Q 2725 3281 2906 2969 
z
M 947 1747 
Q 947 1113 1208 752 
Q 1469 391 1925 391 
Q 2381 391 2643 752 
Q 2906 1113 2906 1747 
Q 2906 2381 2643 2742 
Q 2381 3103 1925 3103 
Q 1469 3103 1208 2742 
Q 947 2381 947 1747 
z
" transform="scale(0.015625)"/>
      <path id="DejaVuSans-76" d="M 191 3500 
L 800 3500 
L 1894 563 
L 2988 3500 
L 3597 3500 
L 2284 0 
L 1503 0 
L 191 3500 
z
" transform="scale(0.015625)"/>
      <path id="DejaVuSans-53" d="M 3425 4513 
L 3425 3897 
Q 3066 4069 2747 4153 
Q 2428 4238 2131 4238 
Q 1616 4238 1336 4038 
Q 1056 3838 1056 3469 
Q 1056 3159 1242 3001 
Q 1428 2844 1947 2747 
L 2328 2669 
Q 3034 2534 3370 2195 
Q 3706 1856 3706 1288 
Q 3706 609 3251 259 
Q 2797 -91 1919 -91 
Q 1588 -91 1214 -16 
Q 841 59 441 206 
L 441 856 
Q 825 641 1194 531 
Q 1563 422 1919 422 
Q 2459 422 2753 634 
Q 3047 847 3047 1241 
Q 3047 1584 2836 1778 
Q 2625 1972 2144 2069 
L 1759 2144 
Q 1053 2284 737 2584 
Q 422 2884 422 3419 
Q 422 4038 858 4394 
Q 1294 4750 2059 4750 
Q 2388 4750 2728 4690 
Q 3069 4631 3425 4513 
z
" transform="scale(0.015625)"/>
      <path id="DejaVuSans-4f" d="M 2522 4238 
Q 1834 4238 1429 3725 
Q 1025 3213 1025 2328 
Q 1025 1447 1429 934 
Q 1834 422 2522 422 
Q 3209 422 3611 934 
Q 4013 1447 4013 2328 
Q 4013 3213 3611 3725 
Q 3209 4238 2522 4238 
z
M 2522 4750 
Q 3503 4750 4090 4092 
Q 4678 3434 4678 2328 
Q 4678 1225 4090 567 
Q 3503 -91 2522 -91 
Q 1538 -91 948 565 
Q 359 1222 359 2328 
Q 359 3434 948 4092 
Q 1538 4750 2522 4750 
z
" transform="scale(0.015625)"/>
      <path id="DejaVuSans-72" d="M 2631 2963 
Q 2534 3019 2420 3045 
Q 2306 3072 2169 3072 
Q 1681 3072 1420 2755 
Q 1159 2438 1159 1844 
L 1159 0 
L 581 0 
L 581 3500 
L 1159 3500 
L 1159 2956 
Q 1341 3275 1631 3429 
Q 1922 3584 2338 3584 
Q 2397 3584 2469 3576 
Q 2541 3569 2628 3553 
L 2631 2963 
z
" transform="scale(0.015625)"/>
      <path id="DejaVuSans-66" d="M 2375 4863 
L 2375 4384 
L 1825 4384 
Q 1516 4384 1395 4259 
Q 1275 4134 1275 3809 
L 1275 3500 
L 2222 3500 
L 2222 3053 
L 1275 3053 
L 1275 0 
L 697 0 
L 697 3053 
L 147 3053 
L 147 3500 
L 697 3500 
L 697 3744 
Q 697 4328 969 4595 
Q 1241 4863 1831 4863 
L 2375 4863 
z
" transform="scale(0.015625)"/>
      <path id="DejaVuSans-47" d="M 3809 666 
L 3809 1919 
L 2778 1919 
L 2778 2438 
L 4434 2438 
L 4434 434 
Q 4069 175 3628 42 
Q 3188 -91 2688 -91 
Q 1594 -91 976 548 
Q 359 1188 359 2328 
Q 359 3472 976 4111 
Q 1594 4750 2688 4750 
Q 3144 4750 3555 4637 
Q 3966 4525 4313 4306 
L 4313 3634 
Q 3963 3931 3569 4081 
Q 3175 4231 2741 4231 
Q 1884 4231 1454 3753 
Q 1025 3275 1025 2328 
Q 1025 1384 1454 906 
Q 1884 428 2741 428 
Q 3075 428 3337 486 
Q 3600 544 3809 666 
z
" transform="scale(0.015625)"/>
      <path id="DejaVuSans-70" d="M 1159 525 
L 1159 -1331 
L 581 -1331 
L 581 3500 
L 1159 3500 
L 1159 2969 
Q 1341 3281 1617 3432 
Q 1894 3584 2278 3584 
Q 2916 3584 3314 3078 
Q 3713 2572 3713 1747 
Q 3713 922 3314 415 
Q 2916 -91 2278 -91 
Q 1894 -91 1617 61 
Q 1341 213 1159 525 
z
M 3116 1747 
Q 3116 2381 2855 2742 
Q 2594 3103 2138 3103 
Q 1681 3103 1420 2742 
Q 1159 2381 1159 1747 
Q 1159 1113 1420 752 
Q 1681 391 2138 391 
Q 2594 391 2855 752 
Q 3116 1113 3116 1747 
z
" transform="scale(0.015625)"/>
      <path id="DejaVuSans-4d" d="M 628 4666 
L 1569 4666 
L 2759 1491 
L 3956 4666 
L 4897 4666 
L 4897 0 
L 4281 0 
L 4281 4097 
L 3078 897 
L 2444 897 
L 1241 4097 
L 1241 0 
L 628 0 
L 628 4666 
z
" transform="scale(0.015625)"/>
      <path id="DejaVuSans-73" d="M 2834 3397 
L 2834 2853 
Q 2591 2978 2328 3040 
Q 2066 3103 1784 3103 
Q 1356 3103 1142 2972 
Q 928 2841 928 2578 
Q 928 2378 1081 2264 
Q 1234 2150 1697 2047 
L 1894 2003 
Q 2506 1872 2764 1633 
Q 3022 1394 3022 966 
Q 3022 478 2636 193 
Q 2250 -91 1575 -91 
Q 1294 -91 989 -36 
Q 684 19 347 128 
L 347 722 
Q 666 556 975 473 
Q 1284 391 1588 391 
Q 1994 391 2212 530 
Q 2431 669 2431 922 
Q 2431 1156 2273 1281 
Q 2116 1406 1581 1522 
L 1381 1569 
Q 847 1681 609 1914 
Q 372 2147 372 2553 
Q 372 3047 722 3315 
Q 1072 3584 1716 3584 
Q 2034 3584 2315 3537 
Q 2597 3491 2834 3397 
z
" transform="scale(0.015625)"/>
     </defs>
     <use xlink:href="#DejaVuSans-50"/>
     <use xlink:href="#DejaVuSans-65" x="56.677734"/>
     <use xlink:href="#DejaVuSans-6c" x="118.201172"/>
     <use xlink:href="#DejaVuSans-6c" x="145.984375"/>
     <use xlink:href="#DejaVuSans-65" x="173.767578"/>
     <use xlink:href="#DejaVuSans-74" x="235.291016"/>
     <use xlink:href="#DejaVuSans-20" x="274.5"/>
     <use xlink:href="#DejaVuSans-43" x="306.287109"/>
     <use xlink:href="#DejaVuSans-6f" x="376.111328"/>
     <use xlink:href="#DejaVuSans-75" x="437.292969"/>
     <use xlink:href="#DejaVuSans-6e" x="500.671875"/>
     <use xlink:href="#DejaVuSans-74" x="564.050781"/>
     <use xlink:href="#DejaVuSans-20" x="603.259766"/>
     <use xlink:href="#DejaVuSans-61" x="635.046875"/>
     <use xlink:href="#DejaVuSans-6e" x="696.326172"/>
     <use xlink:href="#DejaVuSans-64" x="759.705078"/>
     <use xlink:href="#DejaVuSans-20" x="823.181641"/>
     <use xlink:href="#DejaVuSans-43" x="854.96875"/>
     <use xlink:href="#DejaVuSans-75" x="924.792969"/>
     <use xlink:href="#DejaVuSans-6d" x="988.171875"/>
     <use xlink:href="#DejaVuSans-75" x="1085.583984"/>
     <use xlink:href="#DejaVuSans-6c" x="1148.962891"/>
     <use xlink:href="#DejaVuSans-61" x="1176.746094"/>
     <use xlink:href="#DejaVuSans-74" x="1238.025391"/>
     <use xlink:href="#DejaVuSans-69" x="1277.234375"/>
     <use xlink:href="#DejaVuSans-76" x="1305.017578"/>
     <use xlink:href="#DejaVuSans-65" x="1364.197266"/>
     <use xlink:href="#DejaVuSans-20" x="1425.720703"/>
     <use xlink:href="#DejaVuSans-53" x="1457.507812"/>
     <use xlink:href="#DejaVuSans-75" x="1520.984375"/>
     <use xlink:href="#DejaVuSans-6d" x="1584.363281"/>
     <use xlink:href="#DejaVuSans-20" x="1681.775391"/>
     <use xlink:href="#DejaVuSans-4f" x="1713.5625"/>
     <use xlink:href="#DejaVuSans-76" x="1792.273438"/>
     <use xlink:href="#DejaVuSans-65" x="1851.453125"/>
     <use xlink:href="#DejaVuSans-72" x="1912.976562"/>
     <use xlink:href="#DejaVuSans-20" x="1954.089844"/>
     <use xlink:href="#DejaVuSans-54" x="1985.876953"/>
     <use xlink:href="#DejaVuSans-69" x="2043.835938"/>
     <use xlink:href="#DejaVuSans-6d" x="2071.619141"/>
     <use xlink:href="#DejaVuSans-65" x="2169.03125"/>
     <use xlink:href="#DejaVuSans-20" x="2230.554688"/>
     <use xlink:href="#DejaVuSans-6f" x="2262.341797"/>
     <use xlink:href="#DejaVuSans-66" x="2323.523438"/>
     <use xlink:href="#DejaVuSans-20" x="2358.728516"/>
     <use xlink:href="#DejaVuSans-47" x="2390.515625"/>
     <use xlink:href="#DejaVuSans-72" x="2468.005859"/>
     <use xlink:href="#DejaVuSans-6f" x="2506.869141"/>
     <use xlink:href="#DejaVuSans-75" x="2568.050781"/>
     <use xlink:href="#DejaVuSans-70" x="2631.429688"/>
     <use xlink:href="#DejaVuSans-20" x="2694.90625"/>
     <use xlink:href="#DejaVuSans-31" x="2726.693359"/>
     <use xlink:href="#DejaVuSans-30" x="2790.316406"/>
     <use xlink:href="#DejaVuSans-20" x="2853.939453"/>
     <use xlink:href="#DejaVuSans-4d" x="2885.726562"/>
     <use xlink:href="#DejaVuSans-6f" x="2972.005859"/>
     <use xlink:href="#DejaVuSans-75" x="3033.1875"/>
     <use xlink:href="#DejaVuSans-73" x="3096.566406"/>
     <use xlink:href="#DejaVuSans-65" x="3148.666016"/>
     <use xlink:href="#DejaVuSans-20" x="3210.189453"/>
     <use xlink:href="#DejaVuSans-31" x="3241.976562"/>
    </g>
   </g>
   <g id="legend_1">
    <g id="patch_59">
     <path d="M 1086.550625 64.233437 
L 1158.235 64.233437 
Q 1160.235 64.233437 1160.235 62.233437 
L 1160.235 33.877187 
Q 1160.235 31.877187 1158.235 31.877187 
L 1086.550625 31.877187 
Q 1084.550625 31.877187 1084.550625 33.877187 
L 1084.550625 62.233437 
Q 1084.550625 64.233437 1086.550625 64.233437 
z
" style="fill: #ffffff; opacity: 0.8; stroke: #cccccc; stroke-linejoin: miter"/>
    </g>
    <g id="patch_60">
     <path d="M 1088.550625 43.475625 
L 1108.550625 43.475625 
L 1108.550625 36.475625 
L 1088.550625 36.475625 
z
" style="fill: #add8e6; opacity: 0.9; stroke: #add8e6; stroke-linejoin: miter"/>
    </g>
    <g id="text_20">
     <!-- Meal -->
     <g transform="translate(1116.550625 43.475625) scale(0.1 -0.1)">
      <use xlink:href="#DejaVuSans-4d"/>
      <use xlink:href="#DejaVuSans-65" x="86.279297"/>
      <use xlink:href="#DejaVuSans-61" x="147.802734"/>
      <use xlink:href="#DejaVuSans-6c" x="209.082031"/>
     </g>
    </g>
    <g id="patch_61">
     <path d="M 1088.550625 58.15375 
L 1108.550625 58.15375 
L 1108.550625 51.15375 
L 1088.550625 51.15375 
z
" style="fill: #808080; opacity: 0.5; stroke: #808080; stroke-linejoin: miter"/>
    </g>
    <g id="text_21">
     <!-- Inactive -->
     <g transform="translate(1116.550625 58.15375) scale(0.1 -0.1)">
      <defs>
       <path id="DejaVuSans-49" d="M 628 4666 
L 1259 4666 
L 1259 0 
L 628 0 
L 628 4666 
z
" transform="scale(0.015625)"/>
       <path id="DejaVuSans-63" d="M 3122 3366 
L 3122 2828 
Q 2878 2963 2633 3030 
Q 2388 3097 2138 3097 
Q 1578 3097 1268 2742 
Q 959 2388 959 1747 
Q 959 1106 1268 751 
Q 1578 397 2138 397 
Q 2388 397 2633 464 
Q 2878 531 3122 666 
L 3122 134 
Q 2881 22 2623 -34 
Q 2366 -91 2075 -91 
Q 1284 -91 818 406 
Q 353 903 353 1747 
Q 353 2603 823 3093 
Q 1294 3584 2113 3584 
Q 2378 3584 2631 3529 
Q 2884 3475 3122 3366 
z
" transform="scale(0.015625)"/>
      </defs>
      <use xlink:href="#DejaVuSans-49"/>
      <use xlink:href="#DejaVuSans-6e" x="29.492188"/>
      <use xlink:href="#DejaVuSans-61" x="92.871094"/>
      <use xlink:href="#DejaVuSans-63" x="154.150391"/>
      <use xlink:href="#DejaVuSans-74" x="209.130859"/>
      <use xlink:href="#DejaVuSans-69" x="248.339844"/>
      <use xlink:href="#DejaVuSans-76" x="276.123047"/>
      <use xlink:href="#DejaVuSans-65" x="335.302734"/>
     </g>
    </g>
   </g>
  </g>
 </g>
 <defs>
  <clipPath id="p6b296a06ef">
   <rect x="49.235" y="26.877187" width="1116" height="332.64"/>
  </clipPath>
 </defs>
</svg>
