<?xml version="1.0" encoding="utf-8" standalone="no"?>
<!DOCTYPE svg PUBLIC "-//W3C//DTD SVG 1.1//EN"
  "http://www.w3.org/Graphics/SVG/1.1/DTD/svg11.dtd">
<svg xmlns:xlink="http://www.w3.org/1999/xlink" width="1172.435pt" height="399.009062pt" viewBox="0 0 1172.435 399.009062" xmlns="http://www.w3.org/2000/svg" version="1.1">
 <metadata>
  <rdf:RDF xmlns:dc="http://purl.org/dc/elements/1.1/" xmlns:cc="http://creativecommons.org/ns#" xmlns:rdf="http://www.w3.org/1999/02/22-rdf-syntax-ns#">
   <cc:Work>
    <dc:type rdf:resource="http://purl.org/dc/dcmitype/StillImage"/>
    <dc:date>2025-04-02T10:38:45.750592</dc:date>
    <dc:format>image/svg+xml</dc:format>
    <dc:creator>
     <cc:Agent>
      <dc:title>Matplotlib v3.8.3, https://matplotlib.org/</dc:title>
     </cc:Agent>
    </dc:creator>
   </cc:Work>
  </rdf:RDF>
 </metadata>
 <defs>
  <style type="text/css">*{stroke-linejoin: round; stroke-linecap: butt}</style>
 </defs>
 <g id="figure_1">
  <g id="patch_1">
   <path d="M 0 399.009062 
L 1172.435 399.009062 
L 1172.435 0 
L 0 0 
z
" style="fill: #ffffff"/>
  </g>
  <g id="axes_1">
   <g id="patch_2">
    <path d="M 49.235 359.517187 
L 1165.235 359.517187 
L 1165.235 26.877187 
L 49.235 26.877187 
z
" style="fill: #ffffff"/>
   </g>
   <g id="patch_3">
    <path d="M 148.602095 359.517187 
L 148.602095 26.877187 
L 147.455084 26.877187 
L 147.455084 359.517187 
z
" clip-path="url(#pfa3eb7dd19)" style="fill: #add8e6; stroke: #add8e6; stroke-linejoin: miter"/>
   </g>
   <g id="patch_4">
    <path d="M 161.785075 359.517187 
L 161.785075 26.877187 
L 156.744781 26.877187 
L 156.744781 359.517187 
z
" clip-path="url(#pfa3eb7dd19)" style="fill: #add8e6; stroke: #add8e6; stroke-linejoin: miter"/>
   </g>
   <g id="patch_5">
    <path d="M 175.263 359.517187 
L 175.263 26.877187 
L 170.150608 26.877187 
L 170.150608 359.517187 
z
" clip-path="url(#pfa3eb7dd19)" style="fill: #add8e6; stroke: #add8e6; stroke-linejoin: miter"/>
   </g>
   <g id="patch_6">
    <path d="M 215.174615 359.517187 
L 215.174615 26.877187 
L 192.695383 26.877187 
L 192.695383 359.517187 
z
" clip-path="url(#pfa3eb7dd19)" style="fill: #add8e6; stroke: #add8e6; stroke-linejoin: miter"/>
   </g>
   <g id="patch_7">
    <path d="M 236.825813 359.517187 
L 236.825813 26.877187 
L 235.770563 26.877187 
L 235.770563 359.517187 
z
" clip-path="url(#pfa3eb7dd19)" style="fill: #add8e6; stroke: #add8e6; stroke-linejoin: miter"/>
   </g>
   <g id="patch_8">
    <path d="M 239.978455 359.517187 
L 239.978455 26.877187 
L 240.441629 26.877187 
L 240.441629 359.517187 
z
" clip-path="url(#pfa3eb7dd19)" style="fill: #add8e6; stroke: #add8e6; stroke-linejoin: miter"/>
   </g>
   <g id="patch_9">
    <path d="M 285.644787 359.517187 
L 285.644787 26.877187 
L 246.851782 26.877187 
L 246.851782 359.517187 
z
" clip-path="url(#pfa3eb7dd19)" style="fill: #add8e6; stroke: #add8e6; stroke-linejoin: miter"/>
   </g>
   <g id="patch_10">
    <path d="M 304.717942 359.517187 
L 304.717942 26.877187 
L 267.056654 26.877187 
L 267.056654 359.517187 
z
" clip-path="url(#pfa3eb7dd19)" style="fill: #add8e6; stroke: #add8e6; stroke-linejoin: miter"/>
   </g>
   <g id="patch_11">
    <path d="M 318.919031 359.517187 
L 318.919031 26.877187 
L 294.552147 26.877187 
L 294.552147 359.517187 
z
" clip-path="url(#pfa3eb7dd19)" style="fill: #add8e6; stroke: #add8e6; stroke-linejoin: miter"/>
   </g>
   <g id="patch_12">
    <path d="M 351.843709 359.517187 
L 351.843709 26.877187 
L 336.926012 26.877187 
L 336.926012 359.517187 
z
" clip-path="url(#pfa3eb7dd19)" style="fill: #add8e6; stroke: #add8e6; stroke-linejoin: miter"/>
   </g>
   <g id="patch_13">
    <path d="M 373.374745 359.517187 
L 373.374745 26.877187 
L 335.291794 26.877187 
L 335.291794 359.517187 
z
" clip-path="url(#pfa3eb7dd19)" style="fill: #add8e6; stroke: #add8e6; stroke-linejoin: miter"/>
   </g>
   <g id="patch_14">
    <path d="M 374.565452 359.517187 
L 374.565452 26.877187 
L 352.103699 26.877187 
L 352.103699 359.517187 
z
" clip-path="url(#pfa3eb7dd19)" style="fill: #add8e6; stroke: #add8e6; stroke-linejoin: miter"/>
   </g>
   <g id="patch_15">
    <path d="M 375.426256 359.517187 
L 375.426256 26.877187 
L 370.982408 26.877187 
L 370.982408 359.517187 
z
" clip-path="url(#pfa3eb7dd19)" style="fill: #add8e6; stroke: #add8e6; stroke-linejoin: miter"/>
   </g>
   <g id="patch_16">
    <path d="M 409.467359 359.517187 
L 409.467359 26.877187 
L 392.808389 26.877187 
L 392.808389 359.517187 
z
" clip-path="url(#pfa3eb7dd19)" style="fill: #add8e6; stroke: #add8e6; stroke-linejoin: miter"/>
   </g>
   <g id="patch_17">
    <path d="M 424.444046 359.517187 
L 424.444046 26.877187 
L 407.656174 26.877187 
L 407.656174 359.517187 
z
" clip-path="url(#pfa3eb7dd19)" style="fill: #add8e6; stroke: #add8e6; stroke-linejoin: miter"/>
   </g>
   <g id="patch_18">
    <path d="M 434.231873 359.517187 
L 434.231873 26.877187 
L 428.249937 26.877187 
L 428.249937 359.517187 
z
" clip-path="url(#pfa3eb7dd19)" style="fill: #add8e6; stroke: #add8e6; stroke-linejoin: miter"/>
   </g>
   <g id="patch_19">
    <path d="M 436.967221 359.517187 
L 436.967221 26.877187 
L 437.292754 26.877187 
L 437.292754 359.517187 
z
" clip-path="url(#pfa3eb7dd19)" style="fill: #add8e6; stroke: #add8e6; stroke-linejoin: miter"/>
   </g>
   <g id="patch_20">
    <path d="M 439.182591 359.517187 
L 439.182591 26.877187 
L 439.215363 26.877187 
L 439.215363 359.517187 
z
" clip-path="url(#pfa3eb7dd19)" style="fill: #add8e6; stroke: #add8e6; stroke-linejoin: miter"/>
   </g>
   <g id="patch_21">
    <path d="M 463.466453 359.517187 
L 463.466453 26.877187 
L 461.526366 26.877187 
L 461.526366 359.517187 
z
" clip-path="url(#pfa3eb7dd19)" style="fill: #add8e6; stroke: #add8e6; stroke-linejoin: miter"/>
   </g>
   <g id="patch_22">
    <path d="M 478.54801 359.517187 
L 478.54801 26.877187 
L 479.054879 26.877187 
L 479.054879 359.517187 
z
" clip-path="url(#pfa3eb7dd19)" style="fill: #add8e6; stroke: #add8e6; stroke-linejoin: miter"/>
   </g>
   <g id="patch_23">
    <path d="M 479.229662 359.517187 
L 479.229662 26.877187 
L 479.75401 26.877187 
L 479.75401 359.517187 
z
" clip-path="url(#pfa3eb7dd19)" style="fill: #add8e6; stroke: #add8e6; stroke-linejoin: miter"/>
   </g>
   <g id="patch_24">
    <path d="M 496.589947 359.517187 
L 496.589947 26.877187 
L 497.05749 26.877187 
L 497.05749 359.517187 
z
" clip-path="url(#pfa3eb7dd19)" style="fill: #add8e6; stroke: #add8e6; stroke-linejoin: miter"/>
   </g>
   <g id="patch_25">
    <path d="M 581.289611 359.517187 
L 581.289611 26.877187 
L 581.728752 26.877187 
L 581.728752 359.517187 
z
" clip-path="url(#pfa3eb7dd19)" style="fill: #add8e6; stroke: #add8e6; stroke-linejoin: miter"/>
   </g>
   <g id="patch_26">
    <path d="M 584.643252 359.517187 
L 584.643252 26.877187 
L 585.156676 26.877187 
L 585.156676 359.517187 
z
" clip-path="url(#pfa3eb7dd19)" style="fill: #add8e6; stroke: #add8e6; stroke-linejoin: miter"/>
   </g>
   <g id="patch_27">
    <path d="M 649.771631 359.517187 
L 649.771631 26.877187 
L 644.290011 26.877187 
L 644.290011 359.517187 
z
" clip-path="url(#pfa3eb7dd19)" style="fill: #add8e6; stroke: #add8e6; stroke-linejoin: miter"/>
   </g>
   <g id="patch_28">
    <path d="M 656.839404 359.517187 
L 656.839404 26.877187 
L 646.487902 26.877187 
L 646.487902 359.517187 
z
" clip-path="url(#pfa3eb7dd19)" style="fill: #add8e6; stroke: #add8e6; stroke-linejoin: miter"/>
   </g>
   <g id="patch_29">
    <path d="M 696.700768 359.517187 
L 696.700768 26.877187 
L 659.102839 26.877187 
L 659.102839 359.517187 
z
" clip-path="url(#pfa3eb7dd19)" style="fill: #add8e6; stroke: #add8e6; stroke-linejoin: miter"/>
   </g>
   <g id="patch_30">
    <path d="M 705.33066 359.517187 
L 705.33066 26.877187 
L 705.791649 26.877187 
L 705.791649 359.517187 
z
" clip-path="url(#pfa3eb7dd19)" style="fill: #add8e6; stroke: #add8e6; stroke-linejoin: miter"/>
   </g>
   <g id="patch_31">
    <path d="M 706.322552 359.517187 
L 706.322552 26.877187 
L 706.766063 26.877187 
L 706.766063 359.517187 
z
" clip-path="url(#pfa3eb7dd19)" style="fill: #add8e6; stroke: #add8e6; stroke-linejoin: miter"/>
   </g>
   <g id="patch_32">
    <path d="M 707.076302 359.517187 
L 707.076302 26.877187 
L 706.894965 26.877187 
L 706.894965 359.517187 
z
" clip-path="url(#pfa3eb7dd19)" style="fill: #add8e6; stroke: #add8e6; stroke-linejoin: miter"/>
   </g>
   <g id="patch_33">
    <path d="M 757.260765 359.517187 
L 757.260765 26.877187 
L 757.907461 26.877187 
L 757.907461 359.517187 
z
" clip-path="url(#pfa3eb7dd19)" style="fill: #add8e6; stroke: #add8e6; stroke-linejoin: miter"/>
   </g>
   <g id="patch_34">
    <path d="M 758.202407 359.517187 
L 758.202407 26.877187 
L 757.695537 26.877187 
L 757.695537 359.517187 
z
" clip-path="url(#pfa3eb7dd19)" style="fill: #add8e6; stroke: #add8e6; stroke-linejoin: miter"/>
   </g>
   <g id="patch_35">
    <path d="M 800.834076 359.517187 
L 800.834076 26.877187 
L 800.746684 26.877187 
L 800.746684 359.517187 
z
" clip-path="url(#pfa3eb7dd19)" style="fill: #add8e6; stroke: #add8e6; stroke-linejoin: miter"/>
   </g>
   <g id="patch_36">
    <path d="M 821.982774 359.517187 
L 821.982774 26.877187 
L 802.638706 26.877187 
L 802.638706 359.517187 
z
" clip-path="url(#pfa3eb7dd19)" style="fill: #add8e6; stroke: #add8e6; stroke-linejoin: miter"/>
   </g>
   <g id="patch_37">
    <path d="M 851.850941 359.517187 
L 851.850941 26.877187 
L 852.058496 26.877187 
L 852.058496 359.517187 
z
" clip-path="url(#pfa3eb7dd19)" style="fill: #add8e6; stroke: #add8e6; stroke-linejoin: miter"/>
   </g>
   <g id="patch_38">
    <path d="M 852.630909 359.517187 
L 852.630909 26.877187 
L 853.216431 26.877187 
L 853.216431 359.517187 
z
" clip-path="url(#pfa3eb7dd19)" style="fill: #add8e6; stroke: #add8e6; stroke-linejoin: miter"/>
   </g>
   <g id="patch_39">
    <path d="M 934.8858 359.517187 
L 934.8858 26.877187 
L 926.734375 26.877187 
L 926.734375 359.517187 
z
" clip-path="url(#pfa3eb7dd19)" style="fill: #add8e6; stroke: #add8e6; stroke-linejoin: miter"/>
   </g>
   <g id="patch_40">
    <path d="M 968.363229 359.517187 
L 968.363229 26.877187 
L 959.683086 26.877187 
L 959.683086 359.517187 
z
" clip-path="url(#pfa3eb7dd19)" style="fill: #add8e6; stroke: #add8e6; stroke-linejoin: miter"/>
   </g>
   <g id="patch_41">
    <path d="M 1030.229727 359.517187 
L 1030.229727 26.877187 
L 1019.82579 26.877187 
L 1019.82579 359.517187 
z
" clip-path="url(#pfa3eb7dd19)" style="fill: #add8e6; stroke: #add8e6; stroke-linejoin: miter"/>
   </g>
   <g id="patch_42">
    <path d="M 1037.751934 359.517187 
L 1037.751934 26.877187 
L 1038.365858 26.877187 
L 1038.365858 359.517187 
z
" clip-path="url(#pfa3eb7dd19)" style="fill: #add8e6; stroke: #add8e6; stroke-linejoin: miter"/>
   </g>
   <g id="patch_43">
    <path d="M 1038.680467 359.517187 
L 1038.680467 26.877187 
L 1038.748195 26.877187 
L 1038.748195 359.517187 
z
" clip-path="url(#pfa3eb7dd19)" style="fill: #add8e6; stroke: #add8e6; stroke-linejoin: miter"/>
   </g>
   <g id="patch_44">
    <path d="M 1056.049491 359.517187 
L 1056.049491 26.877187 
L 1055.979578 26.877187 
L 1055.979578 359.517187 
z
" clip-path="url(#pfa3eb7dd19)" style="fill: #add8e6; stroke: #add8e6; stroke-linejoin: miter"/>
   </g>
   <g id="patch_45">
    <path d="M 1068.865428 359.517187 
L 1068.865428 26.877187 
L 1068.439395 26.877187 
L 1068.439395 359.517187 
z
" clip-path="url(#pfa3eb7dd19)" style="fill: #add8e6; stroke: #add8e6; stroke-linejoin: miter"/>
   </g>
   <g id="patch_46">
    <path d="M 1114.507727 359.517187 
L 1114.507727 26.877187 
L 1077.134831 26.877187 
L 1077.134831 359.517187 
z
" clip-path="url(#pfa3eb7dd19)" style="fill: #add8e6; stroke: #add8e6; stroke-linejoin: miter"/>
   </g>
   <g id="patch_47">
    <path d="M 506.331894 359.517187 
L 506.331894 26.877187 
L 978.245002 26.877187 
L 978.245002 359.517187 
z
" clip-path="url(#pfa3eb7dd19)" style="fill: #808080; opacity: 0.4; stroke: #808080; stroke-linejoin: miter"/>
   </g>
   <g id="patch_48">
    <path d="M 991.353699 26.877187 
L 991.353699 26.877187 
L 991.353699 359.517187 
" clip-path="url(#pfa3eb7dd19)" style="fill: #808080; opacity: 0.4; stroke: #808080; stroke-linejoin: miter"/>
   </g>
   <g id="patch_49">
    <path d="M 1004.462397 26.877187 
L 1004.462397 26.877187 
L 1004.462397 359.517187 
" clip-path="url(#pfa3eb7dd19)" style="fill: #808080; opacity: 0.4; stroke: #808080; stroke-linejoin: miter"/>
   </g>
   <g id="matplotlib.axis_1">
    <g id="xtick_1">
     <g id="line2d_1">
      <defs>
       <path id="m63f34d8caf" d="M 0 0 
L 0 3.5 
" style="stroke: #000000; stroke-width: 0.8"/>
      </defs>
      <g>
       <use xlink:href="#m63f34d8caf" x="104.659556" y="359.517187" style="stroke: #000000; stroke-width: 0.8"/>
      </g>
     </g>
     <g id="text_1">
      <!-- 07-17 09 -->
      <g transform="translate(82.179087 374.115625) scale(0.1 -0.1)">
       <defs>
        <path id="DejaVuSans-30" d="M 2034 4250 
Q 1547 4250 1301 3770 
Q 1056 3291 1056 2328 
Q 1056 1369 1301 889 
Q 1547 409 2034 409 
Q 2525 409 2770 889 
Q 3016 1369 3016 2328 
Q 3016 3291 2770 3770 
Q 2525 4250 2034 4250 
z
M 2034 4750 
Q 2819 4750 3233 4129 
Q 3647 3509 3647 2328 
Q 3647 1150 3233 529 
Q 2819 -91 2034 -91 
Q 1250 -91 836 529 
Q 422 1150 422 2328 
Q 422 3509 836 4129 
Q 1250 4750 2034 4750 
z
" transform="scale(0.015625)"/>
        <path id="DejaVuSans-37" d="M 525 4666 
L 3525 4666 
L 3525 4397 
L 1831 0 
L 1172 0 
L 2766 4134 
L 525 4134 
L 525 4666 
z
" transform="scale(0.015625)"/>
        <path id="DejaVuSans-2d" d="M 313 2009 
L 1997 2009 
L 1997 1497 
L 313 1497 
L 313 2009 
z
" transform="scale(0.015625)"/>
        <path id="DejaVuSans-31" d="M 794 531 
L 1825 531 
L 1825 4091 
L 703 3866 
L 703 4441 
L 1819 4666 
L 2450 4666 
L 2450 531 
L 3481 531 
L 3481 0 
L 794 0 
L 794 531 
z
" transform="scale(0.015625)"/>
        <path id="DejaVuSans-20" transform="scale(0.015625)"/>
        <path id="DejaVuSans-39" d="M 703 97 
L 703 672 
Q 941 559 1184 500 
Q 1428 441 1663 441 
Q 2288 441 2617 861 
Q 2947 1281 2994 2138 
Q 2813 1869 2534 1725 
Q 2256 1581 1919 1581 
Q 1219 1581 811 2004 
Q 403 2428 403 3163 
Q 403 3881 828 4315 
Q 1253 4750 1959 4750 
Q 2769 4750 3195 4129 
Q 3622 3509 3622 2328 
Q 3622 1225 3098 567 
Q 2575 -91 1691 -91 
Q 1453 -91 1209 -44 
Q 966 3 703 97 
z
M 1959 2075 
Q 2384 2075 2632 2365 
Q 2881 2656 2881 3163 
Q 2881 3666 2632 3958 
Q 2384 4250 1959 4250 
Q 1534 4250 1286 3958 
Q 1038 3666 1038 3163 
Q 1038 2656 1286 2365 
Q 1534 2075 1959 2075 
z
" transform="scale(0.015625)"/>
       </defs>
       <use xlink:href="#DejaVuSans-30"/>
       <use xlink:href="#DejaVuSans-37" x="63.623047"/>
       <use xlink:href="#DejaVuSans-2d" x="127.246094"/>
       <use xlink:href="#DejaVuSans-31" x="163.330078"/>
       <use xlink:href="#DejaVuSans-37" x="226.953125"/>
       <use xlink:href="#DejaVuSans-20" x="290.576172"/>
       <use xlink:href="#DejaVuSans-30" x="322.363281"/>
       <use xlink:href="#DejaVuSans-39" x="385.986328"/>
      </g>
     </g>
    </g>
    <g id="xtick_2">
     <g id="line2d_2">
      <g>
       <use xlink:href="#m63f34d8caf" x="222.637833" y="359.517187" style="stroke: #000000; stroke-width: 0.8"/>
      </g>
     </g>
     <g id="text_2">
      <!-- 07-17 12 -->
      <g transform="translate(200.157364 374.115625) scale(0.1 -0.1)">
       <defs>
        <path id="DejaVuSans-32" d="M 1228 531 
L 3431 531 
L 3431 0 
L 469 0 
L 469 531 
Q 828 903 1448 1529 
Q 2069 2156 2228 2338 
Q 2531 2678 2651 2914 
Q 2772 3150 2772 3378 
Q 2772 3750 2511 3984 
Q 2250 4219 1831 4219 
Q 1534 4219 1204 4116 
Q 875 4013 500 3803 
L 500 4441 
Q 881 4594 1212 4672 
Q 1544 4750 1819 4750 
Q 2544 4750 2975 4387 
Q 3406 4025 3406 3419 
Q 3406 3131 3298 2873 
Q 3191 2616 2906 2266 
Q 2828 2175 2409 1742 
Q 1991 1309 1228 531 
z
" transform="scale(0.015625)"/>
       </defs>
       <use xlink:href="#DejaVuSans-30"/>
       <use xlink:href="#DejaVuSans-37" x="63.623047"/>
       <use xlink:href="#DejaVuSans-2d" x="127.246094"/>
       <use xlink:href="#DejaVuSans-31" x="163.330078"/>
       <use xlink:href="#DejaVuSans-37" x="226.953125"/>
       <use xlink:href="#DejaVuSans-20" x="290.576172"/>
       <use xlink:href="#DejaVuSans-31" x="322.363281"/>
       <use xlink:href="#DejaVuSans-32" x="385.986328"/>
      </g>
     </g>
    </g>
    <g id="xtick_3">
     <g id="line2d_3">
      <g>
       <use xlink:href="#m63f34d8caf" x="340.61611" y="359.517187" style="stroke: #000000; stroke-width: 0.8"/>
      </g>
     </g>
     <g id="text_3">
      <!-- 07-17 15 -->
      <g transform="translate(318.135641 374.115625) scale(0.1 -0.1)">
       <defs>
        <path id="DejaVuSans-35" d="M 691 4666 
L 3169 4666 
L 3169 4134 
L 1269 4134 
L 1269 2991 
Q 1406 3038 1543 3061 
Q 1681 3084 1819 3084 
Q 2600 3084 3056 2656 
Q 3513 2228 3513 1497 
Q 3513 744 3044 326 
Q 2575 -91 1722 -91 
Q 1428 -91 1123 -41 
Q 819 9 494 109 
L 494 744 
Q 775 591 1075 516 
Q 1375 441 1709 441 
Q 2250 441 2565 725 
Q 2881 1009 2881 1497 
Q 2881 1984 2565 2268 
Q 2250 2553 1709 2553 
Q 1456 2553 1204 2497 
Q 953 2441 691 2322 
L 691 4666 
z
" transform="scale(0.015625)"/>
       </defs>
       <use xlink:href="#DejaVuSans-30"/>
       <use xlink:href="#DejaVuSans-37" x="63.623047"/>
       <use xlink:href="#DejaVuSans-2d" x="127.246094"/>
       <use xlink:href="#DejaVuSans-31" x="163.330078"/>
       <use xlink:href="#DejaVuSans-37" x="226.953125"/>
       <use xlink:href="#DejaVuSans-20" x="290.576172"/>
       <use xlink:href="#DejaVuSans-31" x="322.363281"/>
       <use xlink:href="#DejaVuSans-35" x="385.986328"/>
      </g>
     </g>
    </g>
    <g id="xtick_4">
     <g id="line2d_4">
      <g>
       <use xlink:href="#m63f34d8caf" x="458.594387" y="359.517187" style="stroke: #000000; stroke-width: 0.8"/>
      </g>
     </g>
     <g id="text_4">
      <!-- 07-17 18 -->
      <g transform="translate(436.113918 374.115625) scale(0.1 -0.1)">
       <defs>
        <path id="DejaVuSans-38" d="M 2034 2216 
Q 1584 2216 1326 1975 
Q 1069 1734 1069 1313 
Q 1069 891 1326 650 
Q 1584 409 2034 409 
Q 2484 409 2743 651 
Q 3003 894 3003 1313 
Q 3003 1734 2745 1975 
Q 2488 2216 2034 2216 
z
M 1403 2484 
Q 997 2584 770 2862 
Q 544 3141 544 3541 
Q 544 4100 942 4425 
Q 1341 4750 2034 4750 
Q 2731 4750 3128 4425 
Q 3525 4100 3525 3541 
Q 3525 3141 3298 2862 
Q 3072 2584 2669 2484 
Q 3125 2378 3379 2068 
Q 3634 1759 3634 1313 
Q 3634 634 3220 271 
Q 2806 -91 2034 -91 
Q 1263 -91 848 271 
Q 434 634 434 1313 
Q 434 1759 690 2068 
Q 947 2378 1403 2484 
z
M 1172 3481 
Q 1172 3119 1398 2916 
Q 1625 2713 2034 2713 
Q 2441 2713 2670 2916 
Q 2900 3119 2900 3481 
Q 2900 3844 2670 4047 
Q 2441 4250 2034 4250 
Q 1625 4250 1398 4047 
Q 1172 3844 1172 3481 
z
" transform="scale(0.015625)"/>
       </defs>
       <use xlink:href="#DejaVuSans-30"/>
       <use xlink:href="#DejaVuSans-37" x="63.623047"/>
       <use xlink:href="#DejaVuSans-2d" x="127.246094"/>
       <use xlink:href="#DejaVuSans-31" x="163.330078"/>
       <use xlink:href="#DejaVuSans-37" x="226.953125"/>
       <use xlink:href="#DejaVuSans-20" x="290.576172"/>
       <use xlink:href="#DejaVuSans-31" x="322.363281"/>
       <use xlink:href="#DejaVuSans-38" x="385.986328"/>
      </g>
     </g>
    </g>
    <g id="xtick_5">
     <g id="line2d_5">
      <g>
       <use xlink:href="#m63f34d8caf" x="576.572664" y="359.517187" style="stroke: #000000; stroke-width: 0.8"/>
      </g>
     </g>
     <g id="text_5">
      <!-- 07-17 21 -->
      <g transform="translate(554.092196 374.115625) scale(0.1 -0.1)">
       <use xlink:href="#DejaVuSans-30"/>
       <use xlink:href="#DejaVuSans-37" x="63.623047"/>
       <use xlink:href="#DejaVuSans-2d" x="127.246094"/>
       <use xlink:href="#DejaVuSans-31" x="163.330078"/>
       <use xlink:href="#DejaVuSans-37" x="226.953125"/>
       <use xlink:href="#DejaVuSans-20" x="290.576172"/>
       <use xlink:href="#DejaVuSans-32" x="322.363281"/>
       <use xlink:href="#DejaVuSans-31" x="385.986328"/>
      </g>
     </g>
    </g>
    <g id="xtick_6">
     <g id="line2d_6">
      <g>
       <use xlink:href="#m63f34d8caf" x="694.550941" y="359.517187" style="stroke: #000000; stroke-width: 0.8"/>
      </g>
     </g>
     <g id="text_6">
      <!-- 07-18 00 -->
      <g transform="translate(672.070473 374.115625) scale(0.1 -0.1)">
       <use xlink:href="#DejaVuSans-30"/>
       <use xlink:href="#DejaVuSans-37" x="63.623047"/>
       <use xlink:href="#DejaVuSans-2d" x="127.246094"/>
       <use xlink:href="#DejaVuSans-31" x="163.330078"/>
       <use xlink:href="#DejaVuSans-38" x="226.953125"/>
       <use xlink:href="#DejaVuSans-20" x="290.576172"/>
       <use xlink:href="#DejaVuSans-30" x="322.363281"/>
       <use xlink:href="#DejaVuSans-30" x="385.986328"/>
      </g>
     </g>
    </g>
    <g id="xtick_7">
     <g id="line2d_7">
      <g>
       <use xlink:href="#m63f34d8caf" x="812.529218" y="359.517187" style="stroke: #000000; stroke-width: 0.8"/>
      </g>
     </g>
     <g id="text_7">
      <!-- 07-18 03 -->
      <g transform="translate(790.04875 374.115625) scale(0.1 -0.1)">
       <defs>
        <path id="DejaVuSans-33" d="M 2597 2516 
Q 3050 2419 3304 2112 
Q 3559 1806 3559 1356 
Q 3559 666 3084 287 
Q 2609 -91 1734 -91 
Q 1441 -91 1130 -33 
Q 819 25 488 141 
L 488 750 
Q 750 597 1062 519 
Q 1375 441 1716 441 
Q 2309 441 2620 675 
Q 2931 909 2931 1356 
Q 2931 1769 2642 2001 
Q 2353 2234 1838 2234 
L 1294 2234 
L 1294 2753 
L 1863 2753 
Q 2328 2753 2575 2939 
Q 2822 3125 2822 3475 
Q 2822 3834 2567 4026 
Q 2313 4219 1838 4219 
Q 1578 4219 1281 4162 
Q 984 4106 628 3988 
L 628 4550 
Q 988 4650 1302 4700 
Q 1616 4750 1894 4750 
Q 2613 4750 3031 4423 
Q 3450 4097 3450 3541 
Q 3450 3153 3228 2886 
Q 3006 2619 2597 2516 
z
" transform="scale(0.015625)"/>
       </defs>
       <use xlink:href="#DejaVuSans-30"/>
       <use xlink:href="#DejaVuSans-37" x="63.623047"/>
       <use xlink:href="#DejaVuSans-2d" x="127.246094"/>
       <use xlink:href="#DejaVuSans-31" x="163.330078"/>
       <use xlink:href="#DejaVuSans-38" x="226.953125"/>
       <use xlink:href="#DejaVuSans-20" x="290.576172"/>
       <use xlink:href="#DejaVuSans-30" x="322.363281"/>
       <use xlink:href="#DejaVuSans-33" x="385.986328"/>
      </g>
     </g>
    </g>
    <g id="xtick_8">
     <g id="line2d_8">
      <g>
       <use xlink:href="#m63f34d8caf" x="930.507495" y="359.517187" style="stroke: #000000; stroke-width: 0.8"/>
      </g>
     </g>
     <g id="text_8">
      <!-- 07-18 06 -->
      <g transform="translate(908.027027 374.115625) scale(0.1 -0.1)">
       <defs>
        <path id="DejaVuSans-36" d="M 2113 2584 
Q 1688 2584 1439 2293 
Q 1191 2003 1191 1497 
Q 1191 994 1439 701 
Q 1688 409 2113 409 
Q 2538 409 2786 701 
Q 3034 994 3034 1497 
Q 3034 2003 2786 2293 
Q 2538 2584 2113 2584 
z
M 3366 4563 
L 3366 3988 
Q 3128 4100 2886 4159 
Q 2644 4219 2406 4219 
Q 1781 4219 1451 3797 
Q 1122 3375 1075 2522 
Q 1259 2794 1537 2939 
Q 1816 3084 2150 3084 
Q 2853 3084 3261 2657 
Q 3669 2231 3669 1497 
Q 3669 778 3244 343 
Q 2819 -91 2113 -91 
Q 1303 -91 875 529 
Q 447 1150 447 2328 
Q 447 3434 972 4092 
Q 1497 4750 2381 4750 
Q 2619 4750 2861 4703 
Q 3103 4656 3366 4563 
z
" transform="scale(0.015625)"/>
       </defs>
       <use xlink:href="#DejaVuSans-30"/>
       <use xlink:href="#DejaVuSans-37" x="63.623047"/>
       <use xlink:href="#DejaVuSans-2d" x="127.246094"/>
       <use xlink:href="#DejaVuSans-31" x="163.330078"/>
       <use xlink:href="#DejaVuSans-38" x="226.953125"/>
       <use xlink:href="#DejaVuSans-20" x="290.576172"/>
       <use xlink:href="#DejaVuSans-30" x="322.363281"/>
       <use xlink:href="#DejaVuSans-36" x="385.986328"/>
      </g>
     </g>
    </g>
    <g id="xtick_9">
     <g id="line2d_9">
      <g>
       <use xlink:href="#m63f34d8caf" x="1048.485773" y="359.517187" style="stroke: #000000; stroke-width: 0.8"/>
      </g>
     </g>
     <g id="text_9">
      <!-- 07-18 09 -->
      <g transform="translate(1026.005304 374.115625) scale(0.1 -0.1)">
       <use xlink:href="#DejaVuSans-30"/>
       <use xlink:href="#DejaVuSans-37" x="63.623047"/>
       <use xlink:href="#DejaVuSans-2d" x="127.246094"/>
       <use xlink:href="#DejaVuSans-31" x="163.330078"/>
       <use xlink:href="#DejaVuSans-38" x="226.953125"/>
       <use xlink:href="#DejaVuSans-20" x="290.576172"/>
       <use xlink:href="#DejaVuSans-30" x="322.363281"/>
       <use xlink:href="#DejaVuSans-39" x="385.986328"/>
      </g>
     </g>
    </g>
    <g id="text_10">
     <!-- Time -->
     <g transform="translate(592.554688 389.313437) scale(0.12 -0.12)">
      <defs>
       <path id="DejaVuSans-54" d="M -19 4666 
L 3928 4666 
L 3928 4134 
L 2272 4134 
L 2272 0 
L 1638 0 
L 1638 4134 
L -19 4134 
L -19 4666 
z
" transform="scale(0.015625)"/>
       <path id="DejaVuSans-69" d="M 603 3500 
L 1178 3500 
L 1178 0 
L 603 0 
L 603 3500 
z
M 603 4863 
L 1178 4863 
L 1178 4134 
L 603 4134 
L 603 4863 
z
" transform="scale(0.015625)"/>
       <path id="DejaVuSans-6d" d="M 3328 2828 
Q 3544 3216 3844 3400 
Q 4144 3584 4550 3584 
Q 5097 3584 5394 3201 
Q 5691 2819 5691 2113 
L 5691 0 
L 5113 0 
L 5113 2094 
Q 5113 2597 4934 2840 
Q 4756 3084 4391 3084 
Q 3944 3084 3684 2787 
Q 3425 2491 3425 1978 
L 3425 0 
L 2847 0 
L 2847 2094 
Q 2847 2600 2669 2842 
Q 2491 3084 2119 3084 
Q 1678 3084 1418 2786 
Q 1159 2488 1159 1978 
L 1159 0 
L 581 0 
L 581 3500 
L 1159 3500 
L 1159 2956 
Q 1356 3278 1631 3431 
Q 1906 3584 2284 3584 
Q 2666 3584 2933 3390 
Q 3200 3197 3328 2828 
z
" transform="scale(0.015625)"/>
       <path id="DejaVuSans-65" d="M 3597 1894 
L 3597 1613 
L 953 1613 
Q 991 1019 1311 708 
Q 1631 397 2203 397 
Q 2534 397 2845 478 
Q 3156 559 3463 722 
L 3463 178 
Q 3153 47 2828 -22 
Q 2503 -91 2169 -91 
Q 1331 -91 842 396 
Q 353 884 353 1716 
Q 353 2575 817 3079 
Q 1281 3584 2069 3584 
Q 2775 3584 3186 3129 
Q 3597 2675 3597 1894 
z
M 3022 2063 
Q 3016 2534 2758 2815 
Q 2500 3097 2075 3097 
Q 1594 3097 1305 2825 
Q 1016 2553 972 2059 
L 3022 2063 
z
" transform="scale(0.015625)"/>
      </defs>
      <use xlink:href="#DejaVuSans-54"/>
      <use xlink:href="#DejaVuSans-69" x="57.958984"/>
      <use xlink:href="#DejaVuSans-6d" x="85.742188"/>
      <use xlink:href="#DejaVuSans-65" x="183.154297"/>
     </g>
    </g>
   </g>
   <g id="matplotlib.axis_2">
    <g id="ytick_1">
     <g id="line2d_10">
      <defs>
       <path id="m1a7bf5f885" d="M 0 0 
L -3.5 0 
" style="stroke: #000000; stroke-width: 0.8"/>
      </defs>
      <g>
       <use xlink:href="#m1a7bf5f885" x="49.235" y="344.397187" style="stroke: #000000; stroke-width: 0.8"/>
      </g>
     </g>
     <g id="text_11">
      <!-- 0 -->
      <g transform="translate(35.8725 348.196406) scale(0.1 -0.1)">
       <use xlink:href="#DejaVuSans-30"/>
      </g>
     </g>
    </g>
    <g id="ytick_2">
     <g id="line2d_11">
      <g>
       <use xlink:href="#m1a7bf5f885" x="49.235" y="294.985423" style="stroke: #000000; stroke-width: 0.8"/>
      </g>
     </g>
     <g id="text_12">
      <!-- 50 -->
      <g transform="translate(29.51 298.784642) scale(0.1 -0.1)">
       <use xlink:href="#DejaVuSans-35"/>
       <use xlink:href="#DejaVuSans-30" x="63.623047"/>
      </g>
     </g>
    </g>
    <g id="ytick_3">
     <g id="line2d_12">
      <g>
       <use xlink:href="#m1a7bf5f885" x="49.235" y="245.573658" style="stroke: #000000; stroke-width: 0.8"/>
      </g>
     </g>
     <g id="text_13">
      <!-- 100 -->
      <g transform="translate(23.1475 249.372877) scale(0.1 -0.1)">
       <use xlink:href="#DejaVuSans-31"/>
       <use xlink:href="#DejaVuSans-30" x="63.623047"/>
       <use xlink:href="#DejaVuSans-30" x="127.246094"/>
      </g>
     </g>
    </g>
    <g id="ytick_4">
     <g id="line2d_13">
      <g>
       <use xlink:href="#m1a7bf5f885" x="49.235" y="196.161893" style="stroke: #000000; stroke-width: 0.8"/>
      </g>
     </g>
     <g id="text_14">
      <!-- 150 -->
      <g transform="translate(23.1475 199.961112) scale(0.1 -0.1)">
       <use xlink:href="#DejaVuSans-31"/>
       <use xlink:href="#DejaVuSans-35" x="63.623047"/>
       <use xlink:href="#DejaVuSans-30" x="127.246094"/>
      </g>
     </g>
    </g>
    <g id="ytick_5">
     <g id="line2d_14">
      <g>
       <use xlink:href="#m1a7bf5f885" x="49.235" y="146.750129" style="stroke: #000000; stroke-width: 0.8"/>
      </g>
     </g>
     <g id="text_15">
      <!-- 200 -->
      <g transform="translate(23.1475 150.549347) scale(0.1 -0.1)">
       <use xlink:href="#DejaVuSans-32"/>
       <use xlink:href="#DejaVuSans-30" x="63.623047"/>
       <use xlink:href="#DejaVuSans-30" x="127.246094"/>
      </g>
     </g>
    </g>
    <g id="ytick_6">
     <g id="line2d_15">
      <g>
       <use xlink:href="#m1a7bf5f885" x="49.235" y="97.338364" style="stroke: #000000; stroke-width: 0.8"/>
      </g>
     </g>
     <g id="text_16">
      <!-- 250 -->
      <g transform="translate(23.1475 101.137583) scale(0.1 -0.1)">
       <use xlink:href="#DejaVuSans-32"/>
       <use xlink:href="#DejaVuSans-35" x="63.623047"/>
       <use xlink:href="#DejaVuSans-30" x="127.246094"/>
      </g>
     </g>
    </g>
    <g id="ytick_7">
     <g id="line2d_16">
      <g>
       <use xlink:href="#m1a7bf5f885" x="49.235" y="47.926599" style="stroke: #000000; stroke-width: 0.8"/>
      </g>
     </g>
     <g id="text_17">
      <!-- 300 -->
      <g transform="translate(23.1475 51.725818) scale(0.1 -0.1)">
       <use xlink:href="#DejaVuSans-33"/>
       <use xlink:href="#DejaVuSans-30" x="63.623047"/>
       <use xlink:href="#DejaVuSans-30" x="127.246094"/>
      </g>
     </g>
    </g>
    <g id="text_18">
     <!-- Pellet_Count -->
     <g transform="translate(16.318125 230.485312) rotate(-90) scale(0.12 -0.12)">
      <defs>
       <path id="DejaVuSans-50" d="M 1259 4147 
L 1259 2394 
L 2053 2394 
Q 2494 2394 2734 2622 
Q 2975 2850 2975 3272 
Q 2975 3691 2734 3919 
Q 2494 4147 2053 4147 
L 1259 4147 
z
M 628 4666 
L 2053 4666 
Q 2838 4666 3239 4311 
Q 3641 3956 3641 3272 
Q 3641 2581 3239 2228 
Q 2838 1875 2053 1875 
L 1259 1875 
L 1259 0 
L 628 0 
L 628 4666 
z
" transform="scale(0.015625)"/>
       <path id="DejaVuSans-6c" d="M 603 4863 
L 1178 4863 
L 1178 0 
L 603 0 
L 603 4863 
z
" transform="scale(0.015625)"/>
       <path id="DejaVuSans-74" d="M 1172 4494 
L 1172 3500 
L 2356 3500 
L 2356 3053 
L 1172 3053 
L 1172 1153 
Q 1172 725 1289 603 
Q 1406 481 1766 481 
L 2356 481 
L 2356 0 
L 1766 0 
Q 1100 0 847 248 
Q 594 497 594 1153 
L 594 3053 
L 172 3053 
L 172 3500 
L 594 3500 
L 594 4494 
L 1172 4494 
z
" transform="scale(0.015625)"/>
       <path id="DejaVuSans-5f" d="M 3263 -1063 
L 3263 -1509 
L -63 -1509 
L -63 -1063 
L 3263 -1063 
z
" transform="scale(0.015625)"/>
       <path id="DejaVuSans-43" d="M 4122 4306 
L 4122 3641 
Q 3803 3938 3442 4084 
Q 3081 4231 2675 4231 
Q 1875 4231 1450 3742 
Q 1025 3253 1025 2328 
Q 1025 1406 1450 917 
Q 1875 428 2675 428 
Q 3081 428 3442 575 
Q 3803 722 4122 1019 
L 4122 359 
Q 3791 134 3420 21 
Q 3050 -91 2638 -91 
Q 1578 -91 968 557 
Q 359 1206 359 2328 
Q 359 3453 968 4101 
Q 1578 4750 2638 4750 
Q 3056 4750 3426 4639 
Q 3797 4528 4122 4306 
z
" transform="scale(0.015625)"/>
       <path id="DejaVuSans-6f" d="M 1959 3097 
Q 1497 3097 1228 2736 
Q 959 2375 959 1747 
Q 959 1119 1226 758 
Q 1494 397 1959 397 
Q 2419 397 2687 759 
Q 2956 1122 2956 1747 
Q 2956 2369 2687 2733 
Q 2419 3097 1959 3097 
z
M 1959 3584 
Q 2709 3584 3137 3096 
Q 3566 2609 3566 1747 
Q 3566 888 3137 398 
Q 2709 -91 1959 -91 
Q 1206 -91 779 398 
Q 353 888 353 1747 
Q 353 2609 779 3096 
Q 1206 3584 1959 3584 
z
" transform="scale(0.015625)"/>
       <path id="DejaVuSans-75" d="M 544 1381 
L 544 3500 
L 1119 3500 
L 1119 1403 
Q 1119 906 1312 657 
Q 1506 409 1894 409 
Q 2359 409 2629 706 
Q 2900 1003 2900 1516 
L 2900 3500 
L 3475 3500 
L 3475 0 
L 2900 0 
L 2900 538 
Q 2691 219 2414 64 
Q 2138 -91 1772 -91 
Q 1169 -91 856 284 
Q 544 659 544 1381 
z
M 1991 3584 
L 1991 3584 
z
" transform="scale(0.015625)"/>
       <path id="DejaVuSans-6e" d="M 3513 2113 
L 3513 0 
L 2938 0 
L 2938 2094 
Q 2938 2591 2744 2837 
Q 2550 3084 2163 3084 
Q 1697 3084 1428 2787 
Q 1159 2491 1159 1978 
L 1159 0 
L 581 0 
L 581 3500 
L 1159 3500 
L 1159 2956 
Q 1366 3272 1645 3428 
Q 1925 3584 2291 3584 
Q 2894 3584 3203 3211 
Q 3513 2838 3513 2113 
z
" transform="scale(0.015625)"/>
      </defs>
      <use xlink:href="#DejaVuSans-50"/>
      <use xlink:href="#DejaVuSans-65" x="56.677734"/>
      <use xlink:href="#DejaVuSans-6c" x="118.201172"/>
      <use xlink:href="#DejaVuSans-6c" x="145.984375"/>
      <use xlink:href="#DejaVuSans-65" x="173.767578"/>
      <use xlink:href="#DejaVuSans-74" x="235.291016"/>
      <use xlink:href="#DejaVuSans-5f" x="274.5"/>
      <use xlink:href="#DejaVuSans-43" x="324.5"/>
      <use xlink:href="#DejaVuSans-6f" x="394.324219"/>
      <use xlink:href="#DejaVuSans-75" x="455.505859"/>
      <use xlink:href="#DejaVuSans-6e" x="518.884766"/>
      <use xlink:href="#DejaVuSans-74" x="582.263672"/>
     </g>
    </g>
   </g>
   <g id="line2d_17">
    <path d="M 99.962273 344.397187 
L 101.863034 344.397187 
L 102.343686 343.408952 
L 105.697328 343.408952 
L 105.915806 342.420717 
L 108.078741 342.420717 
L 108.133361 341.432482 
L 111.071894 341.432482 
L 111.126513 340.444246 
L 113.344068 340.444246 
L 113.453307 339.456011 
L 118.347221 339.456011 
L 118.423688 338.467776 
L 120.46646 338.467776 
L 120.510156 337.47954 
L 122.421841 337.47954 
L 122.476461 336.491305 
L 128.16782 336.491305 
L 128.211516 335.50307 
L 132.668473 335.50307 
L 132.755864 334.514835 
L 135.781789 334.514835 
L 135.81456 333.526599 
L 136.579234 333.526599 
L 136.601082 332.538364 
L 137.485919 332.538364 
L 137.518691 331.550129 
L 145.394833 331.550129 
L 145.449453 330.561893 
L 146.13766 330.561893 
L 146.170431 329.573658 
L 150.059345 329.573658 
L 150.255975 328.585423 
L 154.254128 328.585423 
L 154.254128 328.585423 
L 154.308748 327.597187 
L 154.592769 327.597187 
L 154.636465 326.608952 
L 155.149889 326.608952 
L 155.171737 325.620717 
L 155.346519 325.620717 
L 155.379291 324.632482 
L 155.772552 324.632482 
L 155.7944 323.644246 
L 158.044726 323.644246 
L 158.339672 322.656011 
L 158.590922 322.656011 
L 158.61277 321.667776 
L 159.716085 321.667776 
L 159.792553 320.67954 
L 161.37652 320.67954 
L 161.409292 319.691305 
L 162.49076 319.691305 
L 162.501683 318.70307 
L 162.654618 318.70307 
L 162.68739 317.714835 
L 163.452064 317.714835 
L 163.615923 316.726599 
L 163.768858 316.726599 
L 163.790705 315.738364 
L 164.063803 315.738364 
L 164.085651 314.750129 
L 164.260434 314.750129 
L 164.282282 313.761893 
L 166.521684 313.761893 
L 166.674619 311.785423 
L 167.701467 311.785423 
L 167.723315 310.797187 
L 169.591304 310.797187 
L 169.613152 309.808952 
L 175.697772 309.808952 
L 175.894403 308.820717 
L 179.816088 308.820717 
L 179.870708 306.844246 
L 182.470599 306.844246 
L 182.492447 305.856011 
L 183.748697 305.856011 
L 183.967176 304.867776 
L 189.287122 304.867776 
L 189.385437 302.891305 
L 191.843318 302.891305 
L 191.908861 300.914835 
L 196.770003 300.914835 
L 197.545601 299.926599 
L 199.52283 299.926599 
L 200.058102 298.938364 
L 201.663917 298.938364 
L 201.696689 297.950129 
L 206.284733 297.950129 
L 206.47044 296.961893 
L 209.73669 296.961893 
L 209.856853 293.997187 
L 213.723919 293.997187 
L 213.81131 293.008952 
L 215.428049 293.008952 
L 215.449897 292.020717 
L 216.553213 292.020717 
L 216.837234 291.032482 
L 220.988322 291.032482 
L 221.032018 290.044246 
L 221.348811 290.044246 
L 221.370659 289.056011 
L 222.2118 289.056011 
L 222.244572 288.067776 
L 222.834464 288.067776 
L 222.867235 287.07954 
L 229.323269 287.07954 
L 229.345117 286.091305 
L 229.792997 286.091305 
L 229.814845 285.10307 
L 230.055171 285.10307 
L 230.087943 284.114835 
L 230.273649 284.114835 
L 230.328269 283.126599 
L 230.492128 283.126599 
L 230.513975 282.138364 
L 230.765225 282.138364 
L 230.787073 281.150129 
L 230.994628 281.150129 
L 231.005552 280.161893 
L 231.256802 280.161893 
L 231.311421 279.173658 
L 233.933161 279.173658 
L 233.98778 278.185423 
L 239.209411 278.185423 
L 239.231259 277.197187 
L 239.853922 277.197187 
L 239.864846 276.208952 
L 240.203488 276.208952 
L 240.236259 275.220717 
L 246.353652 275.220717 
L 246.484738 273.244246 
L 252.329033 273.244246 
L 253.770989 272.256011 
L 255.464196 272.256011 
L 256.043164 271.267776 
L 260.063164 271.267776 
L 261.734523 270.27954 
L 262.488273 270.27954 
L 262.641208 269.291305 
L 262.815991 268.30307 
L 265.43773 267.314835 
L 266.169633 267.314835 
L 266.224252 266.326599 
L 268.856915 265.338364 
L 270.746753 265.338364 
L 273.521427 264.350129 
L 278.710286 264.350129 
L 278.950613 263.361893 
L 279.638819 262.373658 
L 283.363874 262.373658 
L 283.735287 261.385423 
L 287.580505 261.385423 
L 287.602353 260.397187 
L 288.465342 260.397187 
L 288.498114 259.408952 
L 293.06431 259.408952 
L 293.097082 258.420717 
L 293.555886 258.420717 
L 293.56681 257.432482 
L 293.916375 257.432482 
L 294.014691 255.456011 
L 294.506267 255.456011 
L 295.096158 254.467776 
L 299.422028 254.467776 
L 300.088387 253.47954 
L 303.070616 253.47954 
L 303.08154 252.491305 
L 303.354638 252.491305 
L 303.365562 251.50307 
L 303.900833 251.50307 
L 303.922681 250.514835 
L 304.097464 250.514835 
L 304.130236 249.526599 
L 304.414257 249.526599 
L 304.425181 248.538364 
L 304.621812 248.538364 
L 304.632736 247.550129 
L 304.796594 247.550129 
L 304.927681 246.561893 
L 305.113388 246.561893 
L 305.135236 245.573658 
L 307.276323 245.573658 
L 307.40741 244.585423 
L 311.634965 244.585423 
L 311.722356 243.597187 
L 311.853443 243.597187 
L 312.563498 242.608952 
L 316.266705 242.608952 
L 316.288552 241.620717 
L 322.121923 241.620717 
L 322.25301 239.644246 
L 331.636652 239.644246 
L 331.647576 238.656011 
L 332.477794 238.656011 
L 332.499642 237.667776 
L 332.881979 237.667776 
L 333.056761 236.67954 
L 333.111381 236.67954 
L 334.094533 235.691305 
L 334.444098 235.691305 
L 334.520566 234.70307 
L 335.28524 233.714835 
L 338.682577 233.714835 
L 338.901056 232.726599 
L 345.138611 232.726599 
L 345.378937 231.738364 
L 351.354318 231.738364 
L 351.714807 230.750129 
L 351.736655 229.761893 
L 354.478558 229.761893 
L 354.806275 228.773658 
L 355.538177 228.773658 
L 355.581873 227.785423 
L 355.756656 227.785423 
L 355.76758 226.797187 
L 355.953286 226.797187 
L 355.96421 225.808952 
L 356.084373 225.808952 
L 356.128069 224.820717 
L 356.423014 224.820717 
L 356.433938 223.832482 
L 356.674265 223.832482 
L 356.685188 222.844246 
L 356.805351 222.844246 
L 356.827199 221.856011 
L 357.02383 221.856011 
L 357.045678 220.867776 
L 357.198612 220.867776 
L 357.209536 219.87954 
L 357.362471 219.87954 
L 357.406167 218.891305 
L 363.512635 218.891305 
L 363.523559 217.90307 
L 363.91682 217.90307 
L 370.722419 216.914835 
L 370.787962 215.926599 
L 371.159375 214.938364 
L 376.031441 214.938364 
L 376.053289 213.950129 
L 376.326387 213.950129 
L 385.382312 211.973658 
L 385.633562 210.985423 
L 385.90666 210.985423 
L 395.290302 209.997187 
L 399.419542 209.997187 
L 399.506933 209.008952 
L 399.725412 209.008952 
L 399.736336 208.020717 
L 399.965738 208.020717 
L 399.987586 207.032482 
L 400.129597 207.032482 
L 400.184216 206.044246 
L 400.326227 206.044246 
L 400.348075 205.056011 
L 400.566553 205.056011 
L 400.577477 204.067776 
L 400.795955 204.067776 
L 400.806879 203.07954 
L 401.025358 203.07954 
L 401.036281 202.091305 
L 404.193293 202.091305 
L 404.368075 201.10307 
L 404.52101 201.10307 
L 404.750412 200.114835 
L 404.957967 200.114835 
L 405.045358 198.138364 
L 410.758565 198.138364 
L 410.900576 196.161893 
L 411.173674 196.161893 
L 411.206446 195.173658 
L 411.370305 195.173658 
L 411.381229 194.185423 
L 411.556011 194.185423 
L 411.577859 193.197187 
L 411.752642 193.197187 
L 411.796337 192.208952 
L 422.217752 192.208952 
L 422.2396 191.220717 
L 427.679709 191.220717 
L 427.712481 190.232482 
L 436.386069 190.232482 
L 436.429765 189.244246 
L 436.626395 189.244246 
L 436.637319 188.256011 
L 436.790254 188.256011 
L 436.801178 187.267776 
L 437.085199 187.267776 
L 437.150743 186.27954 
L 437.292754 186.27954 
L 437.314602 185.291305 
L 437.489384 185.291305 
L 437.511232 184.30307 
L 437.653243 184.30307 
L 437.675091 183.314835 
L 437.882645 183.314835 
L 437.915417 182.326599 
L 438.079276 182.326599 
L 438.101124 181.338364 
L 450.182973 181.338364 
L 450.193897 180.350129 
L 455.677702 180.350129 
L 455.688626 179.361893 
L 459.402757 179.361893 
L 459.413681 178.373658 
L 459.654007 178.373658 
L 459.664931 177.385423 
L 459.806942 177.385423 
L 459.817866 176.397187 
L 460.014496 176.397187 
L 460.02542 175.408952 
L 460.265746 175.408952 
L 460.287594 174.420717 
L 466.754551 174.420717 
L 466.809171 172.444246 
L 478.170042 172.444246 
L 478.180966 171.456011 
L 478.38852 171.456011 
L 478.399444 170.467776 
L 478.552379 170.467776 
L 478.574227 169.47954 
L 478.716238 169.47954 
L 478.727162 168.491305 
L 478.89102 168.491305 
L 478.901944 167.50307 
L 479.087651 167.50307 
L 479.098575 166.514835 
L 479.25151 166.514835 
L 479.262434 165.526599 
L 479.743086 165.526599 
L 479.75401 164.538364 
L 495.702925 164.538364 
L 495.724773 163.550129 
L 495.877708 163.550129 
L 495.888631 162.561893 
L 496.019718 162.561893 
L 496.085262 161.573658 
L 496.55499 161.573658 
L 496.565914 160.585423 
L 579.762447 160.585423 
L 579.795219 159.597187 
L 580.199404 159.597187 
L 580.221252 158.608952 
L 580.680056 158.608952 
L 580.701904 157.620717 
L 580.975002 157.620717 
L 581.084241 155.644246 
L 581.379187 155.644246 
L 581.401034 154.656011 
L 581.564893 154.656011 
L 581.575817 153.667776 
L 583.2581 153.667776 
L 583.279948 152.67954 
L 583.487502 152.67954 
L 583.498426 151.691305 
L 584.208481 151.691305 
L 584.219404 150.70307 
L 584.405111 150.70307 
L 584.416035 149.714835 
L 642.061532 149.714835 
L 642.072456 148.726599 
L 642.312782 148.726599 
L 642.443869 147.738364 
L 643.08838 147.738364 
L 643.110228 146.750129 
L 643.361478 146.750129 
L 643.503489 143.785423 
L 644.246315 143.785423 
L 644.464793 142.797187 
L 645.032837 142.797187 
L 645.043761 141.808952 
L 645.262239 141.808952 
L 645.284087 140.820717 
L 645.557185 140.820717 
L 645.579032 139.832482 
L 645.764739 139.832482 
L 645.786587 138.844246 
L 652.701425 138.844246 
L 657.748273 137.856011 
L 657.759197 136.867776 
L 657.988599 136.867776 
L 658.010447 135.87954 
L 658.239849 135.87954 
L 658.250773 134.891305 
L 658.425556 134.891305 
L 658.469252 133.90307 
L 658.698654 133.90307 
L 658.775121 131.926599 
L 704.895888 131.926599 
L 704.917736 130.938364 
L 705.201758 130.938364 
L 705.223606 129.950129 
L 705.442084 129.950129 
L 705.463932 128.961893 
L 705.616867 128.961893 
L 705.660562 127.973658 
L 705.857193 127.973658 
L 705.900889 126.985423 
L 706.064747 126.985423 
L 706.086595 125.997187 
L 706.381541 125.997187 
L 706.403389 125.008952 
L 707.124367 125.008952 
L 707.157139 124.020717 
L 755.134971 124.020717 
L 755.145895 123.032482 
L 755.506384 123.032482 
L 755.55008 122.044246 
L 755.823178 122.044246 
L 755.845026 121.056011 
L 756.150895 121.056011 
L 756.161819 120.067776 
L 756.336602 120.067776 
L 756.347526 119.07954 
L 756.544156 119.07954 
L 756.55508 118.091305 
L 756.828178 118.091305 
L 756.839102 117.10307 
L 757.101276 117.10307 
L 757.16682 116.114835 
L 757.396222 116.114835 
L 757.407146 115.126599 
L 800.359978 115.126599 
L 800.458293 113.150129 
L 800.753239 113.150129 
L 801.113728 112.161893 
L 801.53976 112.161893 
L 801.561608 111.173658 
L 801.780087 111.173658 
L 801.801934 110.185423 
L 802.031337 110.185423 
L 802.04226 109.197187 
L 802.238891 109.197187 
L 802.249815 108.208952 
L 802.424597 108.208952 
L 802.435521 107.220717 
L 851.46205 107.220717 
L 851.483898 106.232482 
L 851.844387 106.232482 
L 851.855311 105.244246 
L 852.084713 105.244246 
L 852.139333 104.256011 
L 852.346887 104.256011 
L 852.357811 103.267776 
L 852.587213 103.267776 
L 852.598137 102.27954 
L 852.816615 102.27954 
L 852.849387 101.291305 
L 854.051018 101.291305 
L 895.63836 100.30307 
L 895.682056 99.314835 
L 895.977002 99.314835 
L 895.987926 98.326599 
L 896.50135 98.326599 
L 896.512273 97.338364 
L 896.708904 97.338364 
L 896.719828 96.350129 
L 896.94923 96.350129 
L 896.960154 95.361893 
L 897.2551 95.361893 
L 897.266024 94.373658 
L 898.20548 94.373658 
L 898.249176 93.385423 
L 924.171625 93.385423 
L 924.182549 92.397187 
L 924.52119 92.397187 
L 924.532114 91.408952 
L 924.77244 91.408952 
L 924.783364 90.420717 
L 924.969071 90.420717 
L 925.012766 89.432482 
L 925.220321 89.432482 
L 925.253093 88.444246 
L 925.416951 88.444246 
L 925.438799 87.456011 
L 925.668201 87.456011 
L 925.744669 85.47954 
L 926.08331 85.47954 
L 926.094234 84.491305 
L 926.301788 84.491305 
L 926.345484 83.50307 
L 926.520267 83.50307 
L 926.531191 82.514835 
L 957.238314 82.514835 
L 957.391249 81.526599 
L 957.817282 81.526599 
L 957.828206 80.538364 
L 958.024836 80.538364 
L 958.046684 79.550129 
L 958.243315 79.550129 
L 958.254238 78.561893 
L 958.439945 78.561893 
L 958.472717 77.573658 
L 958.658423 77.573658 
L 958.723967 76.585423 
L 958.898749 76.585423 
L 958.942445 75.597187 
L 990.938591 75.597187 
L 990.949515 74.608952 
L 991.124297 74.608952 
L 991.135221 73.620717 
L 991.419243 73.620717 
L 991.462939 72.632482 
L 991.615873 72.632482 
L 991.637721 71.644246 
L 991.768808 71.644246 
L 991.779732 70.656011 
L 992.096526 70.656011 
L 992.10745 69.667776 
L 992.336852 69.667776 
L 992.347776 68.67954 
L 992.664569 68.67954 
L 992.686417 67.691305 
L 1016.740877 67.691305 
L 1016.762725 66.70307 
L 1017.003051 66.70307 
L 1017.013975 65.714835 
L 1017.188757 65.714835 
L 1017.232453 64.726599 
L 1017.385388 64.726599 
L 1017.407236 63.738364 
L 1017.61479 63.738364 
L 1017.636638 62.750129 
L 1037.441695 62.750129 
L 1037.54001 60.773658 
L 1037.747565 60.773658 
L 1037.758488 59.785423 
L 1037.944195 59.785423 
L 1037.987891 58.797187 
L 1038.151749 58.797187 
L 1038.162673 57.808952 
L 1038.337456 57.808952 
L 1038.392076 56.820717 
L 1038.534086 56.820717 
L 1038.54501 55.832482 
L 1055.586317 55.832482 
L 1055.597241 54.844246 
L 1055.793871 54.844246 
L 1055.815719 53.856011 
L 1063.506155 53.856011 
L 1063.517079 52.867776 
L 1068.18159 52.867776 
L 1068.203438 51.87954 
L 1068.389145 51.87954 
L 1068.400069 50.891305 
L 1075.172896 50.891305 
L 1075.271211 48.914835 
L 1075.43507 48.914835 
L 1075.445994 47.926599 
L 1075.620776 47.926599 
L 1075.6317 46.938364 
L 1075.817407 46.938364 
L 1075.828331 45.950129 
L 1076.035885 45.950129 
L 1076.046809 44.961893 
L 1076.199744 44.961893 
L 1076.210668 43.973658 
L 1076.505613 43.973658 
L 1076.516537 42.985423 
L 1076.756863 42.985423 
L 1076.767787 41.997187 
L 1076.767787 41.997187 
" clip-path="url(#pfa3eb7dd19)" style="fill: none; stroke: #0000ff; stroke-width: 1.5; stroke-linecap: square"/>
   </g>
   <g id="patch_50">
    <path d="M 49.235 359.517187 
L 49.235 26.877187 
" style="fill: none; stroke: #000000; stroke-width: 0.8; stroke-linejoin: miter; stroke-linecap: square"/>
   </g>
   <g id="patch_51">
    <path d="M 1165.235 359.517187 
L 1165.235 26.877187 
" style="fill: none; stroke: #000000; stroke-width: 0.8; stroke-linejoin: miter; stroke-linecap: square"/>
   </g>
   <g id="patch_52">
    <path d="M 49.235 359.517187 
L 1165.235 359.517187 
" style="fill: none; stroke: #000000; stroke-width: 0.8; stroke-linejoin: miter; stroke-linecap: square"/>
   </g>
   <g id="patch_53">
    <path d="M 49.235 26.877187 
L 1165.235 26.877187 
" style="fill: none; stroke: #000000; stroke-width: 0.8; stroke-linejoin: miter; stroke-linecap: square"/>
   </g>
   <g id="text_19">
    <!-- Pellet Count and Cumulative Sum Over Time of Group 8 Mouse 2 -->
    <g transform="translate(315.460625 20.877187) scale(0.18 -0.18)">
     <defs>
      <path id="DejaVuSans-61" d="M 2194 1759 
Q 1497 1759 1228 1600 
Q 959 1441 959 1056 
Q 959 750 1161 570 
Q 1363 391 1709 391 
Q 2188 391 2477 730 
Q 2766 1069 2766 1631 
L 2766 1759 
L 2194 1759 
z
M 3341 1997 
L 3341 0 
L 2766 0 
L 2766 531 
Q 2569 213 2275 61 
Q 1981 -91 1556 -91 
Q 1019 -91 701 211 
Q 384 513 384 1019 
Q 384 1609 779 1909 
Q 1175 2209 1959 2209 
L 2766 2209 
L 2766 2266 
Q 2766 2663 2505 2880 
Q 2244 3097 1772 3097 
Q 1472 3097 1187 3025 
Q 903 2953 641 2809 
L 641 3341 
Q 956 3463 1253 3523 
Q 1550 3584 1831 3584 
Q 2591 3584 2966 3190 
Q 3341 2797 3341 1997 
z
" transform="scale(0.015625)"/>
      <path id="DejaVuSans-64" d="M 2906 2969 
L 2906 4863 
L 3481 4863 
L 3481 0 
L 2906 0 
L 2906 525 
Q 2725 213 2448 61 
Q 2172 -91 1784 -91 
Q 1150 -91 751 415 
Q 353 922 353 1747 
Q 353 2572 751 3078 
Q 1150 3584 1784 3584 
Q 2172 3584 2448 3432 
Q 2725 3281 2906 2969 
z
M 947 1747 
Q 947 1113 1208 752 
Q 1469 391 1925 391 
Q 2381 391 2643 752 
Q 2906 1113 2906 1747 
Q 2906 2381 2643 2742 
Q 2381 3103 1925 3103 
Q 1469 3103 1208 2742 
Q 947 2381 947 1747 
z
" transform="scale(0.015625)"/>
      <path id="DejaVuSans-76" d="M 191 3500 
L 800 3500 
L 1894 563 
L 2988 3500 
L 3597 3500 
L 2284 0 
L 1503 0 
L 191 3500 
z
" transform="scale(0.015625)"/>
      <path id="DejaVuSans-53" d="M 3425 4513 
L 3425 3897 
Q 3066 4069 2747 4153 
Q 2428 4238 2131 4238 
Q 1616 4238 1336 4038 
Q 1056 3838 1056 3469 
Q 1056 3159 1242 3001 
Q 1428 2844 1947 2747 
L 2328 2669 
Q 3034 2534 3370 2195 
Q 3706 1856 3706 1288 
Q 3706 609 3251 259 
Q 2797 -91 1919 -91 
Q 1588 -91 1214 -16 
Q 841 59 441 206 
L 441 856 
Q 825 641 1194 531 
Q 1563 422 1919 422 
Q 2459 422 2753 634 
Q 3047 847 3047 1241 
Q 3047 1584 2836 1778 
Q 2625 1972 2144 2069 
L 1759 2144 
Q 1053 2284 737 2584 
Q 422 2884 422 3419 
Q 422 4038 858 4394 
Q 1294 4750 2059 4750 
Q 2388 4750 2728 4690 
Q 3069 4631 3425 4513 
z
" transform="scale(0.015625)"/>
      <path id="DejaVuSans-4f" d="M 2522 4238 
Q 1834 4238 1429 3725 
Q 1025 3213 1025 2328 
Q 1025 1447 1429 934 
Q 1834 422 2522 422 
Q 3209 422 3611 934 
Q 4013 1447 4013 2328 
Q 4013 3213 3611 3725 
Q 3209 4238 2522 4238 
z
M 2522 4750 
Q 3503 4750 4090 4092 
Q 4678 3434 4678 2328 
Q 4678 1225 4090 567 
Q 3503 -91 2522 -91 
Q 1538 -91 948 565 
Q 359 1222 359 2328 
Q 359 3434 948 4092 
Q 1538 4750 2522 4750 
z
" transform="scale(0.015625)"/>
      <path id="DejaVuSans-72" d="M 2631 2963 
Q 2534 3019 2420 3045 
Q 2306 3072 2169 3072 
Q 1681 3072 1420 2755 
Q 1159 2438 1159 1844 
L 1159 0 
L 581 0 
L 581 3500 
L 1159 3500 
L 1159 2956 
Q 1341 3275 1631 3429 
Q 1922 3584 2338 3584 
Q 2397 3584 2469 3576 
Q 2541 3569 2628 3553 
L 2631 2963 
z
" transform="scale(0.015625)"/>
      <path id="DejaVuSans-66" d="M 2375 4863 
L 2375 4384 
L 1825 4384 
Q 1516 4384 1395 4259 
Q 1275 4134 1275 3809 
L 1275 3500 
L 2222 3500 
L 2222 3053 
L 1275 3053 
L 1275 0 
L 697 0 
L 697 3053 
L 147 3053 
L 147 3500 
L 697 3500 
L 697 3744 
Q 697 4328 969 4595 
Q 1241 4863 1831 4863 
L 2375 4863 
z
" transform="scale(0.015625)"/>
      <path id="DejaVuSans-47" d="M 3809 666 
L 3809 1919 
L 2778 1919 
L 2778 2438 
L 4434 2438 
L 4434 434 
Q 4069 175 3628 42 
Q 3188 -91 2688 -91 
Q 1594 -91 976 548 
Q 359 1188 359 2328 
Q 359 3472 976 4111 
Q 1594 4750 2688 4750 
Q 3144 4750 3555 4637 
Q 3966 4525 4313 4306 
L 4313 3634 
Q 3963 3931 3569 4081 
Q 3175 4231 2741 4231 
Q 1884 4231 1454 3753 
Q 1025 3275 1025 2328 
Q 1025 1384 1454 906 
Q 1884 428 2741 428 
Q 3075 428 3337 486 
Q 3600 544 3809 666 
z
" transform="scale(0.015625)"/>
      <path id="DejaVuSans-70" d="M 1159 525 
L 1159 -1331 
L 581 -1331 
L 581 3500 
L 1159 3500 
L 1159 2969 
Q 1341 3281 1617 3432 
Q 1894 3584 2278 3584 
Q 2916 3584 3314 3078 
Q 3713 2572 3713 1747 
Q 3713 922 3314 415 
Q 2916 -91 2278 -91 
Q 1894 -91 1617 61 
Q 1341 213 1159 525 
z
M 3116 1747 
Q 3116 2381 2855 2742 
Q 2594 3103 2138 3103 
Q 1681 3103 1420 2742 
Q 1159 2381 1159 1747 
Q 1159 1113 1420 752 
Q 1681 391 2138 391 
Q 2594 391 2855 752 
Q 3116 1113 3116 1747 
z
" transform="scale(0.015625)"/>
      <path id="DejaVuSans-4d" d="M 628 4666 
L 1569 4666 
L 2759 1491 
L 3956 4666 
L 4897 4666 
L 4897 0 
L 4281 0 
L 4281 4097 
L 3078 897 
L 2444 897 
L 1241 4097 
L 1241 0 
L 628 0 
L 628 4666 
z
" transform="scale(0.015625)"/>
      <path id="DejaVuSans-73" d="M 2834 3397 
L 2834 2853 
Q 2591 2978 2328 3040 
Q 2066 3103 1784 3103 
Q 1356 3103 1142 2972 
Q 928 2841 928 2578 
Q 928 2378 1081 2264 
Q 1234 2150 1697 2047 
L 1894 2003 
Q 2506 1872 2764 1633 
Q 3022 1394 3022 966 
Q 3022 478 2636 193 
Q 2250 -91 1575 -91 
Q 1294 -91 989 -36 
Q 684 19 347 128 
L 347 722 
Q 666 556 975 473 
Q 1284 391 1588 391 
Q 1994 391 2212 530 
Q 2431 669 2431 922 
Q 2431 1156 2273 1281 
Q 2116 1406 1581 1522 
L 1381 1569 
Q 847 1681 609 1914 
Q 372 2147 372 2553 
Q 372 3047 722 3315 
Q 1072 3584 1716 3584 
Q 2034 3584 2315 3537 
Q 2597 3491 2834 3397 
z
" transform="scale(0.015625)"/>
     </defs>
     <use xlink:href="#DejaVuSans-50"/>
     <use xlink:href="#DejaVuSans-65" x="56.677734"/>
     <use xlink:href="#DejaVuSans-6c" x="118.201172"/>
     <use xlink:href="#DejaVuSans-6c" x="145.984375"/>
     <use xlink:href="#DejaVuSans-65" x="173.767578"/>
     <use xlink:href="#DejaVuSans-74" x="235.291016"/>
     <use xlink:href="#DejaVuSans-20" x="274.5"/>
     <use xlink:href="#DejaVuSans-43" x="306.287109"/>
     <use xlink:href="#DejaVuSans-6f" x="376.111328"/>
     <use xlink:href="#DejaVuSans-75" x="437.292969"/>
     <use xlink:href="#DejaVuSans-6e" x="500.671875"/>
     <use xlink:href="#DejaVuSans-74" x="564.050781"/>
     <use xlink:href="#DejaVuSans-20" x="603.259766"/>
     <use xlink:href="#DejaVuSans-61" x="635.046875"/>
     <use xlink:href="#DejaVuSans-6e" x="696.326172"/>
     <use xlink:href="#DejaVuSans-64" x="759.705078"/>
     <use xlink:href="#DejaVuSans-20" x="823.181641"/>
     <use xlink:href="#DejaVuSans-43" x="854.96875"/>
     <use xlink:href="#DejaVuSans-75" x="924.792969"/>
     <use xlink:href="#DejaVuSans-6d" x="988.171875"/>
     <use xlink:href="#DejaVuSans-75" x="1085.583984"/>
     <use xlink:href="#DejaVuSans-6c" x="1148.962891"/>
     <use xlink:href="#DejaVuSans-61" x="1176.746094"/>
     <use xlink:href="#DejaVuSans-74" x="1238.025391"/>
     <use xlink:href="#DejaVuSans-69" x="1277.234375"/>
     <use xlink:href="#DejaVuSans-76" x="1305.017578"/>
     <use xlink:href="#DejaVuSans-65" x="1364.197266"/>
     <use xlink:href="#DejaVuSans-20" x="1425.720703"/>
     <use xlink:href="#DejaVuSans-53" x="1457.507812"/>
     <use xlink:href="#DejaVuSans-75" x="1520.984375"/>
     <use xlink:href="#DejaVuSans-6d" x="1584.363281"/>
     <use xlink:href="#DejaVuSans-20" x="1681.775391"/>
     <use xlink:href="#DejaVuSans-4f" x="1713.5625"/>
     <use xlink:href="#DejaVuSans-76" x="1792.273438"/>
     <use xlink:href="#DejaVuSans-65" x="1851.453125"/>
     <use xlink:href="#DejaVuSans-72" x="1912.976562"/>
     <use xlink:href="#DejaVuSans-20" x="1954.089844"/>
     <use xlink:href="#DejaVuSans-54" x="1985.876953"/>
     <use xlink:href="#DejaVuSans-69" x="2043.835938"/>
     <use xlink:href="#DejaVuSans-6d" x="2071.619141"/>
     <use xlink:href="#DejaVuSans-65" x="2169.03125"/>
     <use xlink:href="#DejaVuSans-20" x="2230.554688"/>
     <use xlink:href="#DejaVuSans-6f" x="2262.341797"/>
     <use xlink:href="#DejaVuSans-66" x="2323.523438"/>
     <use xlink:href="#DejaVuSans-20" x="2358.728516"/>
     <use xlink:href="#DejaVuSans-47" x="2390.515625"/>
     <use xlink:href="#DejaVuSans-72" x="2468.005859"/>
     <use xlink:href="#DejaVuSans-6f" x="2506.869141"/>
     <use xlink:href="#DejaVuSans-75" x="2568.050781"/>
     <use xlink:href="#DejaVuSans-70" x="2631.429688"/>
     <use xlink:href="#DejaVuSans-20" x="2694.90625"/>
     <use xlink:href="#DejaVuSans-38" x="2726.693359"/>
     <use xlink:href="#DejaVuSans-20" x="2790.316406"/>
     <use xlink:href="#DejaVuSans-4d" x="2822.103516"/>
     <use xlink:href="#DejaVuSans-6f" x="2908.382812"/>
     <use xlink:href="#DejaVuSans-75" x="2969.564453"/>
     <use xlink:href="#DejaVuSans-73" x="3032.943359"/>
     <use xlink:href="#DejaVuSans-65" x="3085.042969"/>
     <use xlink:href="#DejaVuSans-20" x="3146.566406"/>
     <use xlink:href="#DejaVuSans-32" x="3178.353516"/>
    </g>
   </g>
   <g id="legend_1">
    <g id="patch_54">
     <path d="M 1086.550625 64.233437 
L 1158.235 64.233437 
Q 1160.235 64.233437 1160.235 62.233437 
L 1160.235 33.877187 
Q 1160.235 31.877187 1158.235 31.877187 
L 1086.550625 31.877187 
Q 1084.550625 31.877187 1084.550625 33.877187 
L 1084.550625 62.233437 
Q 1084.550625 64.233437 1086.550625 64.233437 
z
" style="fill: #ffffff; opacity: 0.8; stroke: #cccccc; stroke-linejoin: miter"/>
    </g>
    <g id="patch_55">
     <path d="M 1088.550625 43.475625 
L 1108.550625 43.475625 
L 1108.550625 36.475625 
L 1088.550625 36.475625 
z
" style="fill: #add8e6; opacity: 0.9; stroke: #add8e6; stroke-linejoin: miter"/>
    </g>
    <g id="text_20">
     <!-- Meal -->
     <g transform="translate(1116.550625 43.475625) scale(0.1 -0.1)">
      <use xlink:href="#DejaVuSans-4d"/>
      <use xlink:href="#DejaVuSans-65" x="86.279297"/>
      <use xlink:href="#DejaVuSans-61" x="147.802734"/>
      <use xlink:href="#DejaVuSans-6c" x="209.082031"/>
     </g>
    </g>
    <g id="patch_56">
     <path d="M 1088.550625 58.15375 
L 1108.550625 58.15375 
L 1108.550625 51.15375 
L 1088.550625 51.15375 
z
" style="fill: #808080; opacity: 0.5; stroke: #808080; stroke-linejoin: miter"/>
    </g>
    <g id="text_21">
     <!-- Inactive -->
     <g transform="translate(1116.550625 58.15375) scale(0.1 -0.1)">
      <defs>
       <path id="DejaVuSans-49" d="M 628 4666 
L 1259 4666 
L 1259 0 
L 628 0 
L 628 4666 
z
" transform="scale(0.015625)"/>
       <path id="DejaVuSans-63" d="M 3122 3366 
L 3122 2828 
Q 2878 2963 2633 3030 
Q 2388 3097 2138 3097 
Q 1578 3097 1268 2742 
Q 959 2388 959 1747 
Q 959 1106 1268 751 
Q 1578 397 2138 397 
Q 2388 397 2633 464 
Q 2878 531 3122 666 
L 3122 134 
Q 2881 22 2623 -34 
Q 2366 -91 2075 -91 
Q 1284 -91 818 406 
Q 353 903 353 1747 
Q 353 2603 823 3093 
Q 1294 3584 2113 3584 
Q 2378 3584 2631 3529 
Q 2884 3475 3122 3366 
z
" transform="scale(0.015625)"/>
      </defs>
      <use xlink:href="#DejaVuSans-49"/>
      <use xlink:href="#DejaVuSans-6e" x="29.492188"/>
      <use xlink:href="#DejaVuSans-61" x="92.871094"/>
      <use xlink:href="#DejaVuSans-63" x="154.150391"/>
      <use xlink:href="#DejaVuSans-74" x="209.130859"/>
      <use xlink:href="#DejaVuSans-69" x="248.339844"/>
      <use xlink:href="#DejaVuSans-76" x="276.123047"/>
      <use xlink:href="#DejaVuSans-65" x="335.302734"/>
     </g>
    </g>
   </g>
  </g>
 </g>
 <defs>
  <clipPath id="pfa3eb7dd19">
   <rect x="49.235" y="26.877187" width="1116" height="332.64"/>
  </clipPath>
 </defs>
</svg>
