<?xml version="1.0" encoding="utf-8" standalone="no"?>
<!DOCTYPE svg PUBLIC "-//W3C//DTD SVG 1.1//EN"
  "http://www.w3.org/Graphics/SVG/1.1/DTD/svg11.dtd">
<svg xmlns:xlink="http://www.w3.org/1999/xlink" width="1172.435pt" height="399.009062pt" viewBox="0 0 1172.435 399.009062" xmlns="http://www.w3.org/2000/svg" version="1.1">
 <metadata>
  <rdf:RDF xmlns:dc="http://purl.org/dc/elements/1.1/" xmlns:cc="http://creativecommons.org/ns#" xmlns:rdf="http://www.w3.org/1999/02/22-rdf-syntax-ns#">
   <cc:Work>
    <dc:type rdf:resource="http://purl.org/dc/dcmitype/StillImage"/>
    <dc:date>2025-04-02T10:37:58.738524</dc:date>
    <dc:format>image/svg+xml</dc:format>
    <dc:creator>
     <cc:Agent>
      <dc:title>Matplotlib v3.8.3, https://matplotlib.org/</dc:title>
     </cc:Agent>
    </dc:creator>
   </cc:Work>
  </rdf:RDF>
 </metadata>
 <defs>
  <style type="text/css">*{stroke-linejoin: round; stroke-linecap: butt}</style>
 </defs>
 <g id="figure_1">
  <g id="patch_1">
   <path d="M 0 399.009062 
L 1172.435 399.009062 
L 1172.435 0 
L 0 0 
z
" style="fill: #ffffff"/>
  </g>
  <g id="axes_1">
   <g id="patch_2">
    <path d="M 49.235 359.517187 
L 1165.235 359.517187 
L 1165.235 26.877187 
L 49.235 26.877187 
z
" style="fill: #ffffff"/>
   </g>
   <g id="patch_3">
    <path d="M 234.486849 359.517187 
L 234.486849 26.877187 
L 234.438031 26.877187 
L 234.438031 359.517187 
z
" clip-path="url(#pa9a2aa3bf9)" style="fill: #add8e6; stroke: #add8e6; stroke-linejoin: miter"/>
   </g>
   <g id="patch_4">
    <path d="M 238.581695 359.517187 
L 238.581695 26.877187 
L 238.456721 26.877187 
L 238.456721 359.517187 
z
" clip-path="url(#pa9a2aa3bf9)" style="fill: #add8e6; stroke: #add8e6; stroke-linejoin: miter"/>
   </g>
   <g id="patch_5">
    <path d="M 239.825576 359.517187 
L 239.825576 26.877187 
L 240.247362 26.877187 
L 240.247362 359.517187 
z
" clip-path="url(#pa9a2aa3bf9)" style="fill: #add8e6; stroke: #add8e6; stroke-linejoin: miter"/>
   </g>
   <g id="patch_6">
    <path d="M 243.359992 359.517187 
L 243.359992 26.877187 
L 239.806048 26.877187 
L 239.806048 359.517187 
z
" clip-path="url(#pa9a2aa3bf9)" style="fill: #add8e6; stroke: #add8e6; stroke-linejoin: miter"/>
   </g>
   <g id="patch_7">
    <path d="M 248.706529 359.517187 
L 248.706529 26.877187 
L 249.198614 26.877187 
L 249.198614 359.517187 
z
" clip-path="url(#pa9a2aa3bf9)" style="fill: #add8e6; stroke: #add8e6; stroke-linejoin: miter"/>
   </g>
   <g id="patch_8">
    <path d="M 250.895524 359.517187 
L 250.895524 26.877187 
L 250.585042 26.877187 
L 250.585042 359.517187 
z
" clip-path="url(#pa9a2aa3bf9)" style="fill: #add8e6; stroke: #add8e6; stroke-linejoin: miter"/>
   </g>
   <g id="patch_9">
    <path d="M 277.522763 359.517187 
L 277.522763 26.877187 
L 268.889805 26.877187 
L 268.889805 359.517187 
z
" clip-path="url(#pa9a2aa3bf9)" style="fill: #add8e6; stroke: #add8e6; stroke-linejoin: miter"/>
   </g>
   <g id="patch_10">
    <path d="M 279.221626 359.517187 
L 279.221626 26.877187 
L 269.374078 26.877187 
L 269.374078 359.517187 
z
" clip-path="url(#pa9a2aa3bf9)" style="fill: #add8e6; stroke: #add8e6; stroke-linejoin: miter"/>
   </g>
   <g id="patch_11">
    <path d="M 292.162277 359.517187 
L 292.162277 26.877187 
L 292.369265 26.877187 
L 292.369265 359.517187 
z
" clip-path="url(#pa9a2aa3bf9)" style="fill: #add8e6; stroke: #add8e6; stroke-linejoin: miter"/>
   </g>
   <g id="patch_12">
    <path d="M 293.931438 359.517187 
L 293.931438 26.877187 
L 293.454975 26.877187 
L 293.454975 359.517187 
z
" clip-path="url(#pa9a2aa3bf9)" style="fill: #add8e6; stroke: #add8e6; stroke-linejoin: miter"/>
   </g>
   <g id="patch_13">
    <path d="M 322.689091 359.517187 
L 322.689091 26.877187 
L 322.599266 26.877187 
L 322.599266 359.517187 
z
" clip-path="url(#pa9a2aa3bf9)" style="fill: #add8e6; stroke: #add8e6; stroke-linejoin: miter"/>
   </g>
   <g id="patch_14">
    <path d="M 325.663077 359.517187 
L 325.663077 26.877187 
L 323.440886 26.877187 
L 323.440886 359.517187 
z
" clip-path="url(#pa9a2aa3bf9)" style="fill: #add8e6; stroke: #add8e6; stroke-linejoin: miter"/>
   </g>
   <g id="patch_15">
    <path d="M 339.990157 359.517187 
L 339.990157 26.877187 
L 339.84175 26.877187 
L 339.84175 359.517187 
z
" clip-path="url(#pa9a2aa3bf9)" style="fill: #add8e6; stroke: #add8e6; stroke-linejoin: miter"/>
   </g>
   <g id="patch_16">
    <path d="M 346.758271 359.517187 
L 346.758271 26.877187 
L 346.547378 26.877187 
L 346.547378 359.517187 
z
" clip-path="url(#pa9a2aa3bf9)" style="fill: #add8e6; stroke: #add8e6; stroke-linejoin: miter"/>
   </g>
   <g id="patch_17">
    <path d="M 361.6243 359.517187 
L 361.6243 26.877187 
L 355.604076 26.877187 
L 355.604076 359.517187 
z
" clip-path="url(#pa9a2aa3bf9)" style="fill: #add8e6; stroke: #add8e6; stroke-linejoin: miter"/>
   </g>
   <g id="patch_18">
    <path d="M 366.262001 359.517187 
L 366.262001 26.877187 
L 366.773613 26.877187 
L 366.773613 359.517187 
z
" clip-path="url(#pa9a2aa3bf9)" style="fill: #add8e6; stroke: #add8e6; stroke-linejoin: miter"/>
   </g>
   <g id="patch_19">
    <path d="M 367.546889 359.517187 
L 367.546889 26.877187 
L 367.988203 26.877187 
L 367.988203 359.517187 
z
" clip-path="url(#pa9a2aa3bf9)" style="fill: #add8e6; stroke: #add8e6; stroke-linejoin: miter"/>
   </g>
   <g id="patch_20">
    <path d="M 368.368982 359.517187 
L 368.368982 26.877187 
L 368.929412 26.877187 
L 368.929412 359.517187 
z
" clip-path="url(#pa9a2aa3bf9)" style="fill: #add8e6; stroke: #add8e6; stroke-linejoin: miter"/>
   </g>
   <g id="patch_21">
    <path d="M 394.636921 359.517187 
L 394.636921 26.877187 
L 394.277622 26.877187 
L 394.277622 359.517187 
z
" clip-path="url(#pa9a2aa3bf9)" style="fill: #add8e6; stroke: #add8e6; stroke-linejoin: miter"/>
   </g>
   <g id="patch_22">
    <path d="M 414.886589 359.517187 
L 414.886589 26.877187 
L 413.683716 26.877187 
L 413.683716 359.517187 
z
" clip-path="url(#pa9a2aa3bf9)" style="fill: #add8e6; stroke: #add8e6; stroke-linejoin: miter"/>
   </g>
   <g id="patch_23">
    <path d="M 441.927804 359.517187 
L 441.927804 26.877187 
L 439.662653 26.877187 
L 439.662653 359.517187 
z
" clip-path="url(#pa9a2aa3bf9)" style="fill: #add8e6; stroke: #add8e6; stroke-linejoin: miter"/>
   </g>
   <g id="patch_24">
    <path d="M 458.764124 359.517187 
L 458.764124 26.877187 
L 459.248397 26.877187 
L 459.248397 359.517187 
z
" clip-path="url(#pa9a2aa3bf9)" style="fill: #add8e6; stroke: #add8e6; stroke-linejoin: miter"/>
   </g>
   <g id="patch_25">
    <path d="M 459.578407 359.517187 
L 459.578407 26.877187 
L 459.847881 26.877187 
L 459.847881 359.517187 
z
" clip-path="url(#pa9a2aa3bf9)" style="fill: #add8e6; stroke: #add8e6; stroke-linejoin: miter"/>
   </g>
   <g id="patch_26">
    <path d="M 460.837908 359.517187 
L 460.837908 26.877187 
L 460.640684 26.877187 
L 460.640684 359.517187 
z
" clip-path="url(#pa9a2aa3bf9)" style="fill: #add8e6; stroke: #add8e6; stroke-linejoin: miter"/>
   </g>
   <g id="patch_27">
    <path d="M 495.535724 359.517187 
L 495.535724 26.877187 
L 467.904789 26.877187 
L 467.904789 359.517187 
z
" clip-path="url(#pa9a2aa3bf9)" style="fill: #add8e6; stroke: #add8e6; stroke-linejoin: miter"/>
   </g>
   <g id="patch_28">
    <path d="M 524.875286 359.517187 
L 524.875286 26.877187 
L 514.584471 26.877187 
L 514.584471 359.517187 
z
" clip-path="url(#pa9a2aa3bf9)" style="fill: #add8e6; stroke: #add8e6; stroke-linejoin: miter"/>
   </g>
   <g id="patch_29">
    <path d="M 549.713837 359.517187 
L 549.713837 26.877187 
L 546.925358 26.877187 
L 546.925358 359.517187 
z
" clip-path="url(#pa9a2aa3bf9)" style="fill: #add8e6; stroke: #add8e6; stroke-linejoin: miter"/>
   </g>
   <g id="patch_30">
    <path d="M 572.843761 359.517187 
L 572.843761 26.877187 
L 569.295676 26.877187 
L 569.295676 359.517187 
z
" clip-path="url(#pa9a2aa3bf9)" style="fill: #add8e6; stroke: #add8e6; stroke-linejoin: miter"/>
   </g>
   <g id="patch_31">
    <path d="M 594.99928 359.517187 
L 594.99928 26.877187 
L 593.673385 26.877187 
L 593.673385 359.517187 
z
" clip-path="url(#pa9a2aa3bf9)" style="fill: #add8e6; stroke: #add8e6; stroke-linejoin: miter"/>
   </g>
   <g id="patch_32">
    <path d="M 599.797104 359.517187 
L 599.797104 26.877187 
L 600.308715 26.877187 
L 600.308715 359.517187 
z
" clip-path="url(#pa9a2aa3bf9)" style="fill: #add8e6; stroke: #add8e6; stroke-linejoin: miter"/>
   </g>
   <g id="patch_33">
    <path d="M 644.752538 359.517187 
L 644.752538 26.877187 
L 632.292255 26.877187 
L 632.292255 359.517187 
z
" clip-path="url(#pa9a2aa3bf9)" style="fill: #add8e6; stroke: #add8e6; stroke-linejoin: miter"/>
   </g>
   <g id="patch_34">
    <path d="M 659.954434 359.517187 
L 659.954434 26.877187 
L 626.684054 26.877187 
L 626.684054 359.517187 
z
" clip-path="url(#pa9a2aa3bf9)" style="fill: #add8e6; stroke: #add8e6; stroke-linejoin: miter"/>
   </g>
   <g id="patch_35">
    <path d="M 678.876255 359.517187 
L 678.876255 26.877187 
L 646.674011 26.877187 
L 646.674011 359.517187 
z
" clip-path="url(#pa9a2aa3bf9)" style="fill: #add8e6; stroke: #add8e6; stroke-linejoin: miter"/>
   </g>
   <g id="patch_36">
    <path d="M 708.159188 359.517187 
L 708.159188 26.877187 
L 708.551684 26.877187 
L 708.551684 359.517187 
z
" clip-path="url(#pa9a2aa3bf9)" style="fill: #add8e6; stroke: #add8e6; stroke-linejoin: miter"/>
   </g>
   <g id="patch_37">
    <path d="M 751.810207 359.517187 
L 751.810207 26.877187 
L 752.089446 26.877187 
L 752.089446 359.517187 
z
" clip-path="url(#pa9a2aa3bf9)" style="fill: #add8e6; stroke: #add8e6; stroke-linejoin: miter"/>
   </g>
   <g id="patch_38">
    <path d="M 808.08749 359.517187 
L 808.08749 26.877187 
L 800.852676 26.877187 
L 800.852676 359.517187 
z
" clip-path="url(#pa9a2aa3bf9)" style="fill: #add8e6; stroke: #add8e6; stroke-linejoin: miter"/>
   </g>
   <g id="patch_39">
    <path d="M 841.8109 359.517187 
L 841.8109 26.877187 
L 842.373282 26.877187 
L 842.373282 359.517187 
z
" clip-path="url(#pa9a2aa3bf9)" style="fill: #add8e6; stroke: #add8e6; stroke-linejoin: miter"/>
   </g>
   <g id="patch_40">
    <path d="M 859.199839 359.517187 
L 859.199839 26.877187 
L 859.580618 26.877187 
L 859.580618 359.517187 
z
" clip-path="url(#pa9a2aa3bf9)" style="fill: #add8e6; stroke: #add8e6; stroke-linejoin: miter"/>
   </g>
   <g id="patch_41">
    <path d="M 887.029951 359.517187 
L 887.029951 26.877187 
L 885.973531 26.877187 
L 885.973531 359.517187 
z
" clip-path="url(#pa9a2aa3bf9)" style="fill: #add8e6; stroke: #add8e6; stroke-linejoin: miter"/>
   </g>
   <g id="patch_42">
    <path d="M 888.146904 359.517187 
L 888.146904 26.877187 
L 886.707753 26.877187 
L 886.707753 359.517187 
z
" clip-path="url(#pa9a2aa3bf9)" style="fill: #add8e6; stroke: #add8e6; stroke-linejoin: miter"/>
   </g>
   <g id="patch_43">
    <path d="M 924.953653 359.517187 
L 924.953653 26.877187 
L 924.953653 26.877187 
z
" clip-path="url(#pa9a2aa3bf9)" style="fill: #add8e6; stroke: #add8e6; stroke-linejoin: miter"/>
   </g>
   <g id="patch_44">
    <path d="M 1009.266084 359.517187 
L 1009.266084 26.877187 
L 976.372578 26.877187 
L 976.372578 359.517187 
z
" clip-path="url(#pa9a2aa3bf9)" style="fill: #add8e6; stroke: #add8e6; stroke-linejoin: miter"/>
   </g>
   <g id="patch_45">
    <path d="M 1037.512125 359.517187 
L 1037.512125 26.877187 
L 1025.137762 26.877187 
L 1025.137762 359.517187 
z
" clip-path="url(#pa9a2aa3bf9)" style="fill: #add8e6; stroke: #add8e6; stroke-linejoin: miter"/>
   </g>
   <g id="patch_46">
    <path d="M 1079.749378 359.517187 
L 1079.749378 26.877187 
L 1046.988657 26.877187 
L 1046.988657 359.517187 
z
" clip-path="url(#pa9a2aa3bf9)" style="fill: #add8e6; stroke: #add8e6; stroke-linejoin: miter"/>
   </g>
   <g id="patch_47">
    <path d="M 1114.507727 359.517187 
L 1114.507727 26.877187 
L 1089.651602 26.877187 
L 1089.651602 359.517187 
z
" clip-path="url(#pa9a2aa3bf9)" style="fill: #add8e6; stroke: #add8e6; stroke-linejoin: miter"/>
   </g>
   <g id="patch_48">
    <path d="M 99.962273 359.517187 
L 99.962273 26.877187 
L 158.543761 26.877187 
L 158.543761 359.517187 
z
" clip-path="url(#pa9a2aa3bf9)" style="fill: #808080; opacity: 0.4; stroke: #808080; stroke-linejoin: miter"/>
   </g>
   <g id="patch_49">
    <path d="M 170.260058 26.877187 
L 170.260058 26.877187 
L 170.260058 359.517187 
" clip-path="url(#pa9a2aa3bf9)" style="fill: #808080; opacity: 0.4; stroke: #808080; stroke-linejoin: miter"/>
   </g>
   <g id="patch_50">
    <path d="M 181.976356 26.877187 
L 181.976356 26.877187 
L 181.976356 359.517187 
" clip-path="url(#pa9a2aa3bf9)" style="fill: #808080; opacity: 0.4; stroke: #808080; stroke-linejoin: miter"/>
   </g>
   <g id="patch_51">
    <path d="M 580.330475 359.517187 
L 580.330475 26.877187 
L 1002.11719 26.877187 
L 1002.11719 359.517187 
z
" clip-path="url(#pa9a2aa3bf9)" style="fill: #808080; opacity: 0.4; stroke: #808080; stroke-linejoin: miter"/>
   </g>
   <g id="patch_52">
    <path d="M 1013.833487 26.877187 
L 1013.833487 26.877187 
L 1013.833487 359.517187 
" clip-path="url(#pa9a2aa3bf9)" style="fill: #808080; opacity: 0.4; stroke: #808080; stroke-linejoin: miter"/>
   </g>
   <g id="patch_53">
    <path d="M 1025.549785 26.877187 
L 1025.549785 26.877187 
L 1025.549785 359.517187 
" clip-path="url(#pa9a2aa3bf9)" style="fill: #808080; opacity: 0.4; stroke: #808080; stroke-linejoin: miter"/>
   </g>
   <g id="matplotlib.axis_1">
    <g id="xtick_1">
     <g id="line2d_1">
      <defs>
       <path id="mdd023dd3cd" d="M 0 0 
L 0 3.5 
" style="stroke: #000000; stroke-width: 0.8"/>
      </defs>
      <g>
       <use xlink:href="#mdd023dd3cd" x="115.759747" y="359.517187" style="stroke: #000000; stroke-width: 0.8"/>
      </g>
     </g>
     <g id="text_1">
      <!-- 11-12 06 -->
      <g transform="translate(93.279279 374.115625) scale(0.1 -0.1)">
       <defs>
        <path id="DejaVuSans-31" d="M 794 531 
L 1825 531 
L 1825 4091 
L 703 3866 
L 703 4441 
L 1819 4666 
L 2450 4666 
L 2450 531 
L 3481 531 
L 3481 0 
L 794 0 
L 794 531 
z
" transform="scale(0.015625)"/>
        <path id="DejaVuSans-2d" d="M 313 2009 
L 1997 2009 
L 1997 1497 
L 313 1497 
L 313 2009 
z
" transform="scale(0.015625)"/>
        <path id="DejaVuSans-32" d="M 1228 531 
L 3431 531 
L 3431 0 
L 469 0 
L 469 531 
Q 828 903 1448 1529 
Q 2069 2156 2228 2338 
Q 2531 2678 2651 2914 
Q 2772 3150 2772 3378 
Q 2772 3750 2511 3984 
Q 2250 4219 1831 4219 
Q 1534 4219 1204 4116 
Q 875 4013 500 3803 
L 500 4441 
Q 881 4594 1212 4672 
Q 1544 4750 1819 4750 
Q 2544 4750 2975 4387 
Q 3406 4025 3406 3419 
Q 3406 3131 3298 2873 
Q 3191 2616 2906 2266 
Q 2828 2175 2409 1742 
Q 1991 1309 1228 531 
z
" transform="scale(0.015625)"/>
        <path id="DejaVuSans-20" transform="scale(0.015625)"/>
        <path id="DejaVuSans-30" d="M 2034 4250 
Q 1547 4250 1301 3770 
Q 1056 3291 1056 2328 
Q 1056 1369 1301 889 
Q 1547 409 2034 409 
Q 2525 409 2770 889 
Q 3016 1369 3016 2328 
Q 3016 3291 2770 3770 
Q 2525 4250 2034 4250 
z
M 2034 4750 
Q 2819 4750 3233 4129 
Q 3647 3509 3647 2328 
Q 3647 1150 3233 529 
Q 2819 -91 2034 -91 
Q 1250 -91 836 529 
Q 422 1150 422 2328 
Q 422 3509 836 4129 
Q 1250 4750 2034 4750 
z
" transform="scale(0.015625)"/>
        <path id="DejaVuSans-36" d="M 2113 2584 
Q 1688 2584 1439 2293 
Q 1191 2003 1191 1497 
Q 1191 994 1439 701 
Q 1688 409 2113 409 
Q 2538 409 2786 701 
Q 3034 994 3034 1497 
Q 3034 2003 2786 2293 
Q 2538 2584 2113 2584 
z
M 3366 4563 
L 3366 3988 
Q 3128 4100 2886 4159 
Q 2644 4219 2406 4219 
Q 1781 4219 1451 3797 
Q 1122 3375 1075 2522 
Q 1259 2794 1537 2939 
Q 1816 3084 2150 3084 
Q 2853 3084 3261 2657 
Q 3669 2231 3669 1497 
Q 3669 778 3244 343 
Q 2819 -91 2113 -91 
Q 1303 -91 875 529 
Q 447 1150 447 2328 
Q 447 3434 972 4092 
Q 1497 4750 2381 4750 
Q 2619 4750 2861 4703 
Q 3103 4656 3366 4563 
z
" transform="scale(0.015625)"/>
       </defs>
       <use xlink:href="#DejaVuSans-31"/>
       <use xlink:href="#DejaVuSans-31" x="63.623047"/>
       <use xlink:href="#DejaVuSans-2d" x="127.246094"/>
       <use xlink:href="#DejaVuSans-31" x="163.330078"/>
       <use xlink:href="#DejaVuSans-32" x="226.953125"/>
       <use xlink:href="#DejaVuSans-20" x="290.576172"/>
       <use xlink:href="#DejaVuSans-30" x="322.363281"/>
       <use xlink:href="#DejaVuSans-36" x="385.986328"/>
      </g>
     </g>
    </g>
    <g id="xtick_2">
     <g id="line2d_2">
      <g>
       <use xlink:href="#mdd023dd3cd" x="221.206426" y="359.517187" style="stroke: #000000; stroke-width: 0.8"/>
      </g>
     </g>
     <g id="text_2">
      <!-- 11-12 09 -->
      <g transform="translate(198.725957 374.115625) scale(0.1 -0.1)">
       <defs>
        <path id="DejaVuSans-39" d="M 703 97 
L 703 672 
Q 941 559 1184 500 
Q 1428 441 1663 441 
Q 2288 441 2617 861 
Q 2947 1281 2994 2138 
Q 2813 1869 2534 1725 
Q 2256 1581 1919 1581 
Q 1219 1581 811 2004 
Q 403 2428 403 3163 
Q 403 3881 828 4315 
Q 1253 4750 1959 4750 
Q 2769 4750 3195 4129 
Q 3622 3509 3622 2328 
Q 3622 1225 3098 567 
Q 2575 -91 1691 -91 
Q 1453 -91 1209 -44 
Q 966 3 703 97 
z
M 1959 2075 
Q 2384 2075 2632 2365 
Q 2881 2656 2881 3163 
Q 2881 3666 2632 3958 
Q 2384 4250 1959 4250 
Q 1534 4250 1286 3958 
Q 1038 3666 1038 3163 
Q 1038 2656 1286 2365 
Q 1534 2075 1959 2075 
z
" transform="scale(0.015625)"/>
       </defs>
       <use xlink:href="#DejaVuSans-31"/>
       <use xlink:href="#DejaVuSans-31" x="63.623047"/>
       <use xlink:href="#DejaVuSans-2d" x="127.246094"/>
       <use xlink:href="#DejaVuSans-31" x="163.330078"/>
       <use xlink:href="#DejaVuSans-32" x="226.953125"/>
       <use xlink:href="#DejaVuSans-20" x="290.576172"/>
       <use xlink:href="#DejaVuSans-30" x="322.363281"/>
       <use xlink:href="#DejaVuSans-39" x="385.986328"/>
      </g>
     </g>
    </g>
    <g id="xtick_3">
     <g id="line2d_3">
      <g>
       <use xlink:href="#mdd023dd3cd" x="326.653105" y="359.517187" style="stroke: #000000; stroke-width: 0.8"/>
      </g>
     </g>
     <g id="text_3">
      <!-- 11-12 12 -->
      <g transform="translate(304.172636 374.115625) scale(0.1 -0.1)">
       <use xlink:href="#DejaVuSans-31"/>
       <use xlink:href="#DejaVuSans-31" x="63.623047"/>
       <use xlink:href="#DejaVuSans-2d" x="127.246094"/>
       <use xlink:href="#DejaVuSans-31" x="163.330078"/>
       <use xlink:href="#DejaVuSans-32" x="226.953125"/>
       <use xlink:href="#DejaVuSans-20" x="290.576172"/>
       <use xlink:href="#DejaVuSans-31" x="322.363281"/>
       <use xlink:href="#DejaVuSans-32" x="385.986328"/>
      </g>
     </g>
    </g>
    <g id="xtick_4">
     <g id="line2d_4">
      <g>
       <use xlink:href="#mdd023dd3cd" x="432.099783" y="359.517187" style="stroke: #000000; stroke-width: 0.8"/>
      </g>
     </g>
     <g id="text_4">
      <!-- 11-12 15 -->
      <g transform="translate(409.619314 374.115625) scale(0.1 -0.1)">
       <defs>
        <path id="DejaVuSans-35" d="M 691 4666 
L 3169 4666 
L 3169 4134 
L 1269 4134 
L 1269 2991 
Q 1406 3038 1543 3061 
Q 1681 3084 1819 3084 
Q 2600 3084 3056 2656 
Q 3513 2228 3513 1497 
Q 3513 744 3044 326 
Q 2575 -91 1722 -91 
Q 1428 -91 1123 -41 
Q 819 9 494 109 
L 494 744 
Q 775 591 1075 516 
Q 1375 441 1709 441 
Q 2250 441 2565 725 
Q 2881 1009 2881 1497 
Q 2881 1984 2565 2268 
Q 2250 2553 1709 2553 
Q 1456 2553 1204 2497 
Q 953 2441 691 2322 
L 691 4666 
z
" transform="scale(0.015625)"/>
       </defs>
       <use xlink:href="#DejaVuSans-31"/>
       <use xlink:href="#DejaVuSans-31" x="63.623047"/>
       <use xlink:href="#DejaVuSans-2d" x="127.246094"/>
       <use xlink:href="#DejaVuSans-31" x="163.330078"/>
       <use xlink:href="#DejaVuSans-32" x="226.953125"/>
       <use xlink:href="#DejaVuSans-20" x="290.576172"/>
       <use xlink:href="#DejaVuSans-31" x="322.363281"/>
       <use xlink:href="#DejaVuSans-35" x="385.986328"/>
      </g>
     </g>
    </g>
    <g id="xtick_5">
     <g id="line2d_5">
      <g>
       <use xlink:href="#mdd023dd3cd" x="537.546462" y="359.517187" style="stroke: #000000; stroke-width: 0.8"/>
      </g>
     </g>
     <g id="text_5">
      <!-- 11-12 18 -->
      <g transform="translate(515.065993 374.115625) scale(0.1 -0.1)">
       <defs>
        <path id="DejaVuSans-38" d="M 2034 2216 
Q 1584 2216 1326 1975 
Q 1069 1734 1069 1313 
Q 1069 891 1326 650 
Q 1584 409 2034 409 
Q 2484 409 2743 651 
Q 3003 894 3003 1313 
Q 3003 1734 2745 1975 
Q 2488 2216 2034 2216 
z
M 1403 2484 
Q 997 2584 770 2862 
Q 544 3141 544 3541 
Q 544 4100 942 4425 
Q 1341 4750 2034 4750 
Q 2731 4750 3128 4425 
Q 3525 4100 3525 3541 
Q 3525 3141 3298 2862 
Q 3072 2584 2669 2484 
Q 3125 2378 3379 2068 
Q 3634 1759 3634 1313 
Q 3634 634 3220 271 
Q 2806 -91 2034 -91 
Q 1263 -91 848 271 
Q 434 634 434 1313 
Q 434 1759 690 2068 
Q 947 2378 1403 2484 
z
M 1172 3481 
Q 1172 3119 1398 2916 
Q 1625 2713 2034 2713 
Q 2441 2713 2670 2916 
Q 2900 3119 2900 3481 
Q 2900 3844 2670 4047 
Q 2441 4250 2034 4250 
Q 1625 4250 1398 4047 
Q 1172 3844 1172 3481 
z
" transform="scale(0.015625)"/>
       </defs>
       <use xlink:href="#DejaVuSans-31"/>
       <use xlink:href="#DejaVuSans-31" x="63.623047"/>
       <use xlink:href="#DejaVuSans-2d" x="127.246094"/>
       <use xlink:href="#DejaVuSans-31" x="163.330078"/>
       <use xlink:href="#DejaVuSans-32" x="226.953125"/>
       <use xlink:href="#DejaVuSans-20" x="290.576172"/>
       <use xlink:href="#DejaVuSans-31" x="322.363281"/>
       <use xlink:href="#DejaVuSans-38" x="385.986328"/>
      </g>
     </g>
    </g>
    <g id="xtick_6">
     <g id="line2d_6">
      <g>
       <use xlink:href="#mdd023dd3cd" x="642.99314" y="359.517187" style="stroke: #000000; stroke-width: 0.8"/>
      </g>
     </g>
     <g id="text_6">
      <!-- 11-12 21 -->
      <g transform="translate(620.512672 374.115625) scale(0.1 -0.1)">
       <use xlink:href="#DejaVuSans-31"/>
       <use xlink:href="#DejaVuSans-31" x="63.623047"/>
       <use xlink:href="#DejaVuSans-2d" x="127.246094"/>
       <use xlink:href="#DejaVuSans-31" x="163.330078"/>
       <use xlink:href="#DejaVuSans-32" x="226.953125"/>
       <use xlink:href="#DejaVuSans-20" x="290.576172"/>
       <use xlink:href="#DejaVuSans-32" x="322.363281"/>
       <use xlink:href="#DejaVuSans-31" x="385.986328"/>
      </g>
     </g>
    </g>
    <g id="xtick_7">
     <g id="line2d_7">
      <g>
       <use xlink:href="#mdd023dd3cd" x="748.439819" y="359.517187" style="stroke: #000000; stroke-width: 0.8"/>
      </g>
     </g>
     <g id="text_7">
      <!-- 11-13 00 -->
      <g transform="translate(725.95935 374.115625) scale(0.1 -0.1)">
       <defs>
        <path id="DejaVuSans-33" d="M 2597 2516 
Q 3050 2419 3304 2112 
Q 3559 1806 3559 1356 
Q 3559 666 3084 287 
Q 2609 -91 1734 -91 
Q 1441 -91 1130 -33 
Q 819 25 488 141 
L 488 750 
Q 750 597 1062 519 
Q 1375 441 1716 441 
Q 2309 441 2620 675 
Q 2931 909 2931 1356 
Q 2931 1769 2642 2001 
Q 2353 2234 1838 2234 
L 1294 2234 
L 1294 2753 
L 1863 2753 
Q 2328 2753 2575 2939 
Q 2822 3125 2822 3475 
Q 2822 3834 2567 4026 
Q 2313 4219 1838 4219 
Q 1578 4219 1281 4162 
Q 984 4106 628 3988 
L 628 4550 
Q 988 4650 1302 4700 
Q 1616 4750 1894 4750 
Q 2613 4750 3031 4423 
Q 3450 4097 3450 3541 
Q 3450 3153 3228 2886 
Q 3006 2619 2597 2516 
z
" transform="scale(0.015625)"/>
       </defs>
       <use xlink:href="#DejaVuSans-31"/>
       <use xlink:href="#DejaVuSans-31" x="63.623047"/>
       <use xlink:href="#DejaVuSans-2d" x="127.246094"/>
       <use xlink:href="#DejaVuSans-31" x="163.330078"/>
       <use xlink:href="#DejaVuSans-33" x="226.953125"/>
       <use xlink:href="#DejaVuSans-20" x="290.576172"/>
       <use xlink:href="#DejaVuSans-30" x="322.363281"/>
       <use xlink:href="#DejaVuSans-30" x="385.986328"/>
      </g>
     </g>
    </g>
    <g id="xtick_8">
     <g id="line2d_8">
      <g>
       <use xlink:href="#mdd023dd3cd" x="853.886498" y="359.517187" style="stroke: #000000; stroke-width: 0.8"/>
      </g>
     </g>
     <g id="text_8">
      <!-- 11-13 03 -->
      <g transform="translate(831.406029 374.115625) scale(0.1 -0.1)">
       <use xlink:href="#DejaVuSans-31"/>
       <use xlink:href="#DejaVuSans-31" x="63.623047"/>
       <use xlink:href="#DejaVuSans-2d" x="127.246094"/>
       <use xlink:href="#DejaVuSans-31" x="163.330078"/>
       <use xlink:href="#DejaVuSans-33" x="226.953125"/>
       <use xlink:href="#DejaVuSans-20" x="290.576172"/>
       <use xlink:href="#DejaVuSans-30" x="322.363281"/>
       <use xlink:href="#DejaVuSans-33" x="385.986328"/>
      </g>
     </g>
    </g>
    <g id="xtick_9">
     <g id="line2d_9">
      <g>
       <use xlink:href="#mdd023dd3cd" x="959.333176" y="359.517187" style="stroke: #000000; stroke-width: 0.8"/>
      </g>
     </g>
     <g id="text_9">
      <!-- 11-13 06 -->
      <g transform="translate(936.852707 374.115625) scale(0.1 -0.1)">
       <use xlink:href="#DejaVuSans-31"/>
       <use xlink:href="#DejaVuSans-31" x="63.623047"/>
       <use xlink:href="#DejaVuSans-2d" x="127.246094"/>
       <use xlink:href="#DejaVuSans-31" x="163.330078"/>
       <use xlink:href="#DejaVuSans-33" x="226.953125"/>
       <use xlink:href="#DejaVuSans-20" x="290.576172"/>
       <use xlink:href="#DejaVuSans-30" x="322.363281"/>
       <use xlink:href="#DejaVuSans-36" x="385.986328"/>
      </g>
     </g>
    </g>
    <g id="xtick_10">
     <g id="line2d_10">
      <g>
       <use xlink:href="#mdd023dd3cd" x="1064.779855" y="359.517187" style="stroke: #000000; stroke-width: 0.8"/>
      </g>
     </g>
     <g id="text_10">
      <!-- 11-13 09 -->
      <g transform="translate(1042.299386 374.115625) scale(0.1 -0.1)">
       <use xlink:href="#DejaVuSans-31"/>
       <use xlink:href="#DejaVuSans-31" x="63.623047"/>
       <use xlink:href="#DejaVuSans-2d" x="127.246094"/>
       <use xlink:href="#DejaVuSans-31" x="163.330078"/>
       <use xlink:href="#DejaVuSans-33" x="226.953125"/>
       <use xlink:href="#DejaVuSans-20" x="290.576172"/>
       <use xlink:href="#DejaVuSans-30" x="322.363281"/>
       <use xlink:href="#DejaVuSans-39" x="385.986328"/>
      </g>
     </g>
    </g>
    <g id="text_11">
     <!-- Time -->
     <g transform="translate(592.554688 389.313437) scale(0.12 -0.12)">
      <defs>
       <path id="DejaVuSans-54" d="M -19 4666 
L 3928 4666 
L 3928 4134 
L 2272 4134 
L 2272 0 
L 1638 0 
L 1638 4134 
L -19 4134 
L -19 4666 
z
" transform="scale(0.015625)"/>
       <path id="DejaVuSans-69" d="M 603 3500 
L 1178 3500 
L 1178 0 
L 603 0 
L 603 3500 
z
M 603 4863 
L 1178 4863 
L 1178 4134 
L 603 4134 
L 603 4863 
z
" transform="scale(0.015625)"/>
       <path id="DejaVuSans-6d" d="M 3328 2828 
Q 3544 3216 3844 3400 
Q 4144 3584 4550 3584 
Q 5097 3584 5394 3201 
Q 5691 2819 5691 2113 
L 5691 0 
L 5113 0 
L 5113 2094 
Q 5113 2597 4934 2840 
Q 4756 3084 4391 3084 
Q 3944 3084 3684 2787 
Q 3425 2491 3425 1978 
L 3425 0 
L 2847 0 
L 2847 2094 
Q 2847 2600 2669 2842 
Q 2491 3084 2119 3084 
Q 1678 3084 1418 2786 
Q 1159 2488 1159 1978 
L 1159 0 
L 581 0 
L 581 3500 
L 1159 3500 
L 1159 2956 
Q 1356 3278 1631 3431 
Q 1906 3584 2284 3584 
Q 2666 3584 2933 3390 
Q 3200 3197 3328 2828 
z
" transform="scale(0.015625)"/>
       <path id="DejaVuSans-65" d="M 3597 1894 
L 3597 1613 
L 953 1613 
Q 991 1019 1311 708 
Q 1631 397 2203 397 
Q 2534 397 2845 478 
Q 3156 559 3463 722 
L 3463 178 
Q 3153 47 2828 -22 
Q 2503 -91 2169 -91 
Q 1331 -91 842 396 
Q 353 884 353 1716 
Q 353 2575 817 3079 
Q 1281 3584 2069 3584 
Q 2775 3584 3186 3129 
Q 3597 2675 3597 1894 
z
M 3022 2063 
Q 3016 2534 2758 2815 
Q 2500 3097 2075 3097 
Q 1594 3097 1305 2825 
Q 1016 2553 972 2059 
L 3022 2063 
z
" transform="scale(0.015625)"/>
      </defs>
      <use xlink:href="#DejaVuSans-54"/>
      <use xlink:href="#DejaVuSans-69" x="57.958984"/>
      <use xlink:href="#DejaVuSans-6d" x="85.742188"/>
      <use xlink:href="#DejaVuSans-65" x="183.154297"/>
     </g>
    </g>
   </g>
   <g id="matplotlib.axis_2">
    <g id="ytick_1">
     <g id="line2d_11">
      <defs>
       <path id="mb66baca8af" d="M 0 0 
L -3.5 0 
" style="stroke: #000000; stroke-width: 0.8"/>
      </defs>
      <g>
       <use xlink:href="#mb66baca8af" x="49.235" y="344.397187" style="stroke: #000000; stroke-width: 0.8"/>
      </g>
     </g>
     <g id="text_12">
      <!-- 0 -->
      <g transform="translate(35.8725 348.196406) scale(0.1 -0.1)">
       <use xlink:href="#DejaVuSans-30"/>
      </g>
     </g>
    </g>
    <g id="ytick_2">
     <g id="line2d_12">
      <g>
       <use xlink:href="#mb66baca8af" x="49.235" y="286.243341" style="stroke: #000000; stroke-width: 0.8"/>
      </g>
     </g>
     <g id="text_13">
      <!-- 50 -->
      <g transform="translate(29.51 290.04256) scale(0.1 -0.1)">
       <use xlink:href="#DejaVuSans-35"/>
       <use xlink:href="#DejaVuSans-30" x="63.623047"/>
      </g>
     </g>
    </g>
    <g id="ytick_3">
     <g id="line2d_13">
      <g>
       <use xlink:href="#mb66baca8af" x="49.235" y="228.089495" style="stroke: #000000; stroke-width: 0.8"/>
      </g>
     </g>
     <g id="text_14">
      <!-- 100 -->
      <g transform="translate(23.1475 231.888714) scale(0.1 -0.1)">
       <use xlink:href="#DejaVuSans-31"/>
       <use xlink:href="#DejaVuSans-30" x="63.623047"/>
       <use xlink:href="#DejaVuSans-30" x="127.246094"/>
      </g>
     </g>
    </g>
    <g id="ytick_4">
     <g id="line2d_14">
      <g>
       <use xlink:href="#mb66baca8af" x="49.235" y="169.935649" style="stroke: #000000; stroke-width: 0.8"/>
      </g>
     </g>
     <g id="text_15">
      <!-- 150 -->
      <g transform="translate(23.1475 173.734868) scale(0.1 -0.1)">
       <use xlink:href="#DejaVuSans-31"/>
       <use xlink:href="#DejaVuSans-35" x="63.623047"/>
       <use xlink:href="#DejaVuSans-30" x="127.246094"/>
      </g>
     </g>
    </g>
    <g id="ytick_5">
     <g id="line2d_15">
      <g>
       <use xlink:href="#mb66baca8af" x="49.235" y="111.781803" style="stroke: #000000; stroke-width: 0.8"/>
      </g>
     </g>
     <g id="text_16">
      <!-- 200 -->
      <g transform="translate(23.1475 115.581022) scale(0.1 -0.1)">
       <use xlink:href="#DejaVuSans-32"/>
       <use xlink:href="#DejaVuSans-30" x="63.623047"/>
       <use xlink:href="#DejaVuSans-30" x="127.246094"/>
      </g>
     </g>
    </g>
    <g id="ytick_6">
     <g id="line2d_16">
      <g>
       <use xlink:href="#mb66baca8af" x="49.235" y="53.627957" style="stroke: #000000; stroke-width: 0.8"/>
      </g>
     </g>
     <g id="text_17">
      <!-- 250 -->
      <g transform="translate(23.1475 57.427175) scale(0.1 -0.1)">
       <use xlink:href="#DejaVuSans-32"/>
       <use xlink:href="#DejaVuSans-35" x="63.623047"/>
       <use xlink:href="#DejaVuSans-30" x="127.246094"/>
      </g>
     </g>
    </g>
    <g id="text_18">
     <!-- Pellet_Count -->
     <g transform="translate(16.318125 230.485312) rotate(-90) scale(0.12 -0.12)">
      <defs>
       <path id="DejaVuSans-50" d="M 1259 4147 
L 1259 2394 
L 2053 2394 
Q 2494 2394 2734 2622 
Q 2975 2850 2975 3272 
Q 2975 3691 2734 3919 
Q 2494 4147 2053 4147 
L 1259 4147 
z
M 628 4666 
L 2053 4666 
Q 2838 4666 3239 4311 
Q 3641 3956 3641 3272 
Q 3641 2581 3239 2228 
Q 2838 1875 2053 1875 
L 1259 1875 
L 1259 0 
L 628 0 
L 628 4666 
z
" transform="scale(0.015625)"/>
       <path id="DejaVuSans-6c" d="M 603 4863 
L 1178 4863 
L 1178 0 
L 603 0 
L 603 4863 
z
" transform="scale(0.015625)"/>
       <path id="DejaVuSans-74" d="M 1172 4494 
L 1172 3500 
L 2356 3500 
L 2356 3053 
L 1172 3053 
L 1172 1153 
Q 1172 725 1289 603 
Q 1406 481 1766 481 
L 2356 481 
L 2356 0 
L 1766 0 
Q 1100 0 847 248 
Q 594 497 594 1153 
L 594 3053 
L 172 3053 
L 172 3500 
L 594 3500 
L 594 4494 
L 1172 4494 
z
" transform="scale(0.015625)"/>
       <path id="DejaVuSans-5f" d="M 3263 -1063 
L 3263 -1509 
L -63 -1509 
L -63 -1063 
L 3263 -1063 
z
" transform="scale(0.015625)"/>
       <path id="DejaVuSans-43" d="M 4122 4306 
L 4122 3641 
Q 3803 3938 3442 4084 
Q 3081 4231 2675 4231 
Q 1875 4231 1450 3742 
Q 1025 3253 1025 2328 
Q 1025 1406 1450 917 
Q 1875 428 2675 428 
Q 3081 428 3442 575 
Q 3803 722 4122 1019 
L 4122 359 
Q 3791 134 3420 21 
Q 3050 -91 2638 -91 
Q 1578 -91 968 557 
Q 359 1206 359 2328 
Q 359 3453 968 4101 
Q 1578 4750 2638 4750 
Q 3056 4750 3426 4639 
Q 3797 4528 4122 4306 
z
" transform="scale(0.015625)"/>
       <path id="DejaVuSans-6f" d="M 1959 3097 
Q 1497 3097 1228 2736 
Q 959 2375 959 1747 
Q 959 1119 1226 758 
Q 1494 397 1959 397 
Q 2419 397 2687 759 
Q 2956 1122 2956 1747 
Q 2956 2369 2687 2733 
Q 2419 3097 1959 3097 
z
M 1959 3584 
Q 2709 3584 3137 3096 
Q 3566 2609 3566 1747 
Q 3566 888 3137 398 
Q 2709 -91 1959 -91 
Q 1206 -91 779 398 
Q 353 888 353 1747 
Q 353 2609 779 3096 
Q 1206 3584 1959 3584 
z
" transform="scale(0.015625)"/>
       <path id="DejaVuSans-75" d="M 544 1381 
L 544 3500 
L 1119 3500 
L 1119 1403 
Q 1119 906 1312 657 
Q 1506 409 1894 409 
Q 2359 409 2629 706 
Q 2900 1003 2900 1516 
L 2900 3500 
L 3475 3500 
L 3475 0 
L 2900 0 
L 2900 538 
Q 2691 219 2414 64 
Q 2138 -91 1772 -91 
Q 1169 -91 856 284 
Q 544 659 544 1381 
z
M 1991 3584 
L 1991 3584 
z
" transform="scale(0.015625)"/>
       <path id="DejaVuSans-6e" d="M 3513 2113 
L 3513 0 
L 2938 0 
L 2938 2094 
Q 2938 2591 2744 2837 
Q 2550 3084 2163 3084 
Q 1697 3084 1428 2787 
Q 1159 2491 1159 1978 
L 1159 0 
L 581 0 
L 581 3500 
L 1159 3500 
L 1159 2956 
Q 1366 3272 1645 3428 
Q 1925 3584 2291 3584 
Q 2894 3584 3203 3211 
Q 3513 2838 3513 2113 
z
" transform="scale(0.015625)"/>
      </defs>
      <use xlink:href="#DejaVuSans-50"/>
      <use xlink:href="#DejaVuSans-65" x="56.677734"/>
      <use xlink:href="#DejaVuSans-6c" x="118.201172"/>
      <use xlink:href="#DejaVuSans-6c" x="145.984375"/>
      <use xlink:href="#DejaVuSans-65" x="173.767578"/>
      <use xlink:href="#DejaVuSans-74" x="235.291016"/>
      <use xlink:href="#DejaVuSans-5f" x="274.5"/>
      <use xlink:href="#DejaVuSans-43" x="324.5"/>
      <use xlink:href="#DejaVuSans-6f" x="394.324219"/>
      <use xlink:href="#DejaVuSans-75" x="455.505859"/>
      <use xlink:href="#DejaVuSans-6e" x="518.884766"/>
      <use xlink:href="#DejaVuSans-74" x="582.263672"/>
     </g>
    </g>
   </g>
   <g id="line2d_17">
    <path d="M 99.962273 344.397187 
L 107.255668 344.397187 
L 107.304486 343.234111 
L 120.495084 343.234111 
L 122.994561 342.071034 
L 123.72683 342.071034 
L 123.795175 340.907957 
L 153.740079 340.907957 
L 154.208731 339.74488 
L 174.956341 339.74488 
L 175.229721 338.581803 
L 177.104329 338.581803 
L 177.250783 337.418726 
L 186.145405 337.418726 
L 186.379731 336.255649 
L 202.606803 336.255649 
L 202.782548 335.092572 
L 210.827739 335.092572 
L 211.208519 333.929495 
L 223.48134 333.929495 
L 223.666848 332.766418 
L 225.160676 332.766418 
L 225.180204 331.603341 
L 225.668383 331.603341 
L 225.795309 330.440264 
L 226.215143 330.440264 
L 226.23467 329.277187 
L 227.416064 329.277187 
L 227.416064 329.277187 
L 227.5137 328.114111 
L 227.767553 328.114111 
L 227.806607 326.951034 
L 232.717688 326.951034 
L 232.756743 325.787957 
L 232.981305 325.787957 
L 233.030123 324.62488 
L 233.215631 324.62488 
L 233.29374 323.461803 
L 236.59383 323.461803 
L 236.613357 322.298726 
L 238.019313 322.298726 
L 238.029077 321.135649 
L 238.263403 321.135649 
L 238.28293 319.972572 
L 238.507492 319.972572 
L 238.536783 318.809495 
L 238.732054 318.809495 
L 238.741818 317.646418 
L 238.976144 317.646418 
L 239.054253 316.483341 
L 239.288579 316.483341 
L 239.308106 315.320264 
L 239.522905 315.320264 
L 239.610777 314.157187 
L 245.166255 314.157187 
L 245.185782 312.994111 
L 245.410344 312.994111 
L 245.429871 311.831034 
L 246.728428 311.831034 
L 246.747955 310.667957 
L 247.831712 310.667957 
L 247.851239 309.50488 
L 248.036748 309.50488 
L 248.066038 308.341803 
L 248.212492 308.341803 
L 248.232019 307.178726 
L 249.120505 307.178726 
L 249.120505 307.178726 
L 249.179087 306.015649 
L 250.018755 306.015649 
L 250.038282 304.852572 
L 250.243317 304.852572 
L 250.262844 303.689495 
L 258.151818 303.689495 
L 258.220163 302.526418 
L 259.216048 302.526418 
L 259.333211 301.363341 
L 259.801863 301.363341 
L 259.82139 300.200264 
L 265.454977 300.200264 
L 265.660012 299.037187 
L 267.134313 299.037187 
L 267.173367 297.874111 
L 268.73554 297.874111 
L 268.911284 296.711034 
L 269.047975 296.711034 
L 269.057738 295.547957 
L 270.287949 295.547957 
L 270.463694 294.38488 
L 270.649202 294.38488 
L 270.912819 293.221803 
L 279.114227 293.221803 
L 279.241154 292.058726 
L 279.836732 292.058726 
L 279.875786 290.895649 
L 280.02224 290.895649 
L 280.032004 289.732572 
L 281.164579 289.732572 
L 281.174343 288.569495 
L 282.77557 288.569495 
L 282.785334 287.406418 
L 291.68972 287.406418 
L 291.699483 286.243341 
L 292.002154 286.243341 
L 292.011918 285.080264 
L 292.23648 285.080264 
L 292.256007 283.917187 
L 292.402461 283.917187 
L 292.431752 282.754111 
L 292.685605 282.754111 
L 292.705132 281.591034 
L 292.978512 281.591034 
L 293.037094 280.427957 
L 294.179433 280.427957 
L 294.247778 279.26488 
L 299.43224 279.26488 
L 299.451767 278.101803 
L 301.355665 278.101803 
L 301.404483 276.938726 
L 315.298059 276.938726 
L 315.385932 275.775649 
L 321.468643 275.775649 
L 321.48817 274.612572 
L 321.849423 274.612572 
L 321.86895 273.449495 
L 322.161857 273.449495 
L 322.171621 272.286418 
L 322.503582 272.286418 
L 322.503582 272.286418 
L 322.581691 271.123341 
L 322.776963 271.123341 
L 322.786726 269.960264 
L 322.952707 269.960264 
L 322.972234 268.797187 
L 323.108925 268.797187 
L 323.118688 267.634111 
L 323.323723 267.634111 
L 323.645921 266.471034 
L 332.023074 266.471034 
L 332.052365 265.307957 
L 337.510207 265.307957 
L 337.549261 264.14488 
L 338.213185 264.14488 
L 338.242476 262.981803 
L 338.388929 262.981803 
L 338.408456 261.818726 
L 338.584201 261.818726 
L 338.623255 260.655649 
L 338.818527 260.655649 
L 338.847818 259.492572 
L 339.052853 259.492572 
L 339.062616 258.329495 
L 339.550796 258.329495 
L 339.560559 257.166418 
L 345.496817 257.166418 
L 345.50658 256.003341 
L 345.692088 256.003341 
L 345.721379 254.840264 
L 345.848305 254.840264 
L 345.867833 253.677187 
L 346.02405 253.677187 
L 346.287667 252.514111 
L 354.118059 252.514111 
L 354.127822 251.351034 
L 354.254749 251.351034 
L 354.264513 250.187957 
L 354.410966 250.187957 
L 354.430493 249.02488 
L 354.69411 249.02488 
L 354.713637 247.861803 
L 363.803532 247.861803 
L 363.813295 246.698726 
L 365.971047 246.698726 
L 365.98081 245.535649 
L 366.371353 245.535649 
L 366.381117 244.372572 
L 366.654497 244.372572 
L 366.664261 243.209495 
L 366.888823 243.209495 
L 366.90835 242.046418 
L 367.142676 242.046418 
L 367.162204 240.883341 
L 367.406293 240.883341 
L 367.416057 239.720264 
L 367.621092 239.720264 
L 367.630855 238.557187 
L 367.826127 238.557187 
L 367.835891 237.394111 
L 368.070217 237.394111 
L 368.109271 236.231034 
L 382.080956 236.231034 
L 382.090719 235.067957 
L 389.520805 235.067957 
L 389.579386 233.90488 
L 392.664678 233.90488 
L 392.703732 232.741803 
L 392.938058 232.741803 
L 392.947822 231.578726 
L 393.172384 231.578726 
L 393.191911 230.415649 
L 393.445765 230.415649 
L 393.455528 229.252572 
L 393.631273 229.252572 
L 393.641036 228.089495 
L 393.826544 228.089495 
L 393.836308 226.926418 
L 394.021816 226.926418 
L 394.031579 225.763341 
L 406.431328 225.763341 
L 406.450855 224.600264 
L 410.541796 224.600264 
L 410.561323 223.437187 
L 410.776121 223.437187 
L 410.824939 222.274111 
L 411.967278 222.274111 
L 412.016096 221.111034 
L 413.236544 221.111034 
L 413.256071 219.947957 
L 416.419471 219.947957 
L 416.487817 218.78488 
L 418.46006 218.78488 
L 418.616277 217.621803 
L 425.13835 217.621803 
L 425.16764 216.458726 
L 426.153762 216.458726 
L 426.251398 215.295649 
L 431.250352 215.295649 
L 431.269879 214.132572 
L 436.45434 214.132572 
L 436.473868 212.969495 
L 437.840769 212.969495 
L 437.909114 211.806418 
L 438.465638 211.806418 
L 438.494929 210.643341 
L 439.110035 210.643341 
L 439.129562 209.480264 
L 441.853601 209.480264 
L 441.892655 208.317187 
L 445.495417 208.317187 
L 445.544235 207.154111 
L 449.644939 207.154111 
L 449.723047 205.991034 
L 458.256418 205.991034 
L 458.266181 204.827957 
L 458.549325 204.827957 
L 458.568852 203.66488 
L 458.773887 203.66488 
L 458.793415 202.501803 
L 459.164431 202.501803 
L 459.183958 201.338726 
L 459.330412 201.338726 
L 459.349939 200.175649 
L 459.476865 200.175649 
L 459.496392 199.012572 
L 459.6819 199.012572 
L 459.701428 197.849495 
L 459.886936 197.849495 
L 459.886936 197.849495 
L 459.92599 196.686418 
L 460.19937 196.686418 
L 460.785185 195.523341 
L 465.32525 195.523341 
L 465.637685 194.360264 
L 466.74097 194.360264 
L 466.760497 193.197187 
L 466.985059 193.197187 
L 467.01435 192.034111 
L 468.332434 192.034111 
L 490.661744 190.871034 
L 491.110869 189.707957 
L 499.575894 189.707957 
L 499.605185 188.54488 
L 500.532725 188.54488 
L 500.542488 187.381803 
L 500.806105 187.381803 
L 500.825632 186.218726 
L 501.020904 186.218726 
L 501.040431 185.055649 
L 501.294284 185.055649 
L 501.304048 183.892572 
L 508.109264 183.892572 
L 508.148318 182.729495 
L 508.372881 182.729495 
L 508.392408 181.566418 
L 509.105149 181.566418 
L 509.13444 180.403341 
L 509.329712 180.403341 
L 509.349239 179.240264 
L 513.528052 179.240264 
L 513.547579 178.077187 
L 513.772141 178.077187 
L 514.963298 176.914111 
L 520.04036 176.914111 
L 520.069651 175.751034 
L 520.352795 175.751034 
L 520.382086 174.587957 
L 520.587121 174.587957 
L 520.596885 173.42488 
L 520.821447 173.42488 
L 520.860501 172.261803 
L 521.055773 172.261803 
L 521.065536 171.098726 
L 524.531608 171.098726 
L 524.590189 169.935649 
L 526.084017 169.935649 
L 526.240235 168.772572 
L 530.077322 168.772572 
L 530.165194 167.609495 
L 530.526447 167.609495 
L 531.151316 166.446418 
L 535.623036 166.446418 
L 538.093222 165.283341 
L 540.075229 165.283341 
L 540.24121 164.120264 
L 549.995028 164.120264 
L 550.053609 162.957187 
L 550.239117 162.957187 
L 550.258645 161.794111 
L 550.434389 161.794111 
L 550.473443 160.631034 
L 550.649188 160.631034 
L 550.668715 159.467957 
L 550.815169 159.467957 
L 550.834696 158.30488 
L 568.04789 158.30488 
L 568.077181 157.141803 
L 575.155777 157.141803 
L 575.165541 155.978726 
L 577.987216 155.978726 
L 577.996979 154.815649 
L 584.929122 154.815649 
L 584.948649 153.652572 
L 585.222029 153.652572 
L 585.241557 152.489495 
L 591.763629 152.489495 
L 591.79292 151.326418 
L 592.408025 151.326418 
L 592.427553 150.163341 
L 592.622824 150.163341 
L 592.622824 150.163341 
L 592.671642 149.000264 
L 598.432155 149.000264 
L 598.441919 147.837187 
L 598.705535 147.837187 
L 598.725062 146.674111 
L 599.066788 146.674111 
L 599.076551 145.511034 
L 599.340168 145.511034 
L 599.349932 144.347957 
L 599.486622 144.347957 
L 599.496385 143.18488 
L 599.67213 143.18488 
L 599.691657 142.021803 
L 599.828347 142.021803 
L 599.838111 140.858726 
L 600.05291 140.858726 
L 600.062673 139.695649 
L 600.21889 139.695649 
L 600.228654 138.532572 
L 609.025641 138.532572 
L 610.001999 137.369495 
L 613.458307 137.369495 
L 613.780505 136.206418 
L 615.733221 136.206418 
L 617.197758 135.043341 
L 623.592904 135.043341 
L 625.203895 133.880264 
L 625.65302 133.880264 
L 625.682311 132.717187 
L 634.967476 132.717187 
L 637.506008 131.554111 
L 639.712577 131.554111 
L 644.516259 130.391034 
L 644.535786 129.227957 
L 647.826113 129.227957 
L 647.865167 128.06488 
L 654.709438 128.06488 
L 654.719202 126.901803 
L 656.574282 126.901803 
L 660.674986 125.738726 
L 707.03247 125.738726 
L 707.051998 124.575649 
L 707.530413 124.575649 
L 707.54994 123.412572 
L 708.116228 123.412572 
L 708.145519 122.249495 
L 733.433194 122.249495 
L 733.452722 121.086418 
L 749.240433 121.086418 
L 749.25996 119.923341 
L 749.611449 119.923341 
L 749.660267 118.760264 
L 749.933647 118.760264 
L 749.953174 117.597187 
L 750.197264 117.597187 
L 750.216791 116.434111 
L 750.538989 116.434111 
L 750.558516 115.271034 
L 750.812369 115.271034 
L 750.831896 114.107957 
L 751.066222 114.107957 
L 751.085749 112.94488 
L 751.329839 112.94488 
L 751.339603 111.781803 
L 751.642274 111.781803 
L 751.661801 110.618726 
L 759.941318 110.618726 
L 763.534316 109.455649 
L 772.458229 109.455649 
L 773.336951 108.292572 
L 788.948918 108.292572 
L 789.007499 107.129495 
L 799.161624 107.129495 
L 799.181151 105.966418 
L 799.571694 105.966418 
L 799.620512 104.803341 
L 800.030583 104.803341 
L 800.05011 103.640264 
L 800.255145 103.640264 
L 800.264909 102.477187 
L 800.450417 102.477187 
L 800.46018 101.314111 
L 828.305914 101.314111 
L 828.481659 100.151034 
L 841.076679 100.151034 
L 841.096206 98.987957 
L 841.437931 98.987957 
L 841.457458 97.82488 
L 841.750366 97.82488 
L 841.769893 96.661803 
L 858.133655 96.661803 
L 858.162946 95.498726 
L 858.387509 95.498726 
L 858.407036 94.335649 
L 858.602307 94.335649 
L 858.621834 93.172572 
L 858.992851 93.172572 
L 859.012378 92.009495 
L 859.295522 92.009495 
L 859.305285 90.846418 
L 885.051849 90.846418 
L 885.090904 89.683341 
L 885.49121 89.683341 
L 885.510738 88.520264 
L 885.696246 88.520264 
L 885.745063 87.357187 
L 885.989153 87.357187 
L 886.028207 86.194111 
L 907.976738 86.194111 
L 908.006029 85.031034 
L 908.396572 85.031034 
L 908.416099 83.867957 
L 923.295797 83.867957 
L 923.315325 82.70488 
L 923.530123 82.70488 
L 923.559414 81.541803 
L 923.754686 81.541803 
L 923.774213 80.378726 
L 924.086647 80.378726 
L 924.106175 79.215649 
L 924.330737 79.215649 
L 924.350264 78.052572 
L 924.535772 78.052572 
L 924.565063 76.889495 
L 951.502784 76.889495 
L 974.759635 75.726418 
L 974.779162 74.563341 
L 974.954906 74.563341 
L 974.974433 73.400264 
L 975.140414 73.400264 
L 975.159942 72.237187 
L 975.34545 72.237187 
L 975.364977 71.074111 
L 975.550485 71.074111 
L 975.550485 71.074111 
L 975.589539 69.911034 
L 975.745756 69.911034 
L 975.765284 68.747957 
L 975.970319 68.747957 
L 975.980082 67.58488 
L 976.897859 67.58488 
L 1003.025203 66.421803 
L 1003.054493 65.258726 
L 1003.386455 65.258726 
L 1003.405982 64.095649 
L 1003.59149 64.095649 
L 1003.611018 62.932572 
L 1004.255414 62.932572 
L 1004.265178 61.769495 
L 1004.509267 61.769495 
L 1004.519031 60.606418 
L 1004.704539 60.606418 
L 1004.724066 59.443341 
L 1021.107355 59.443341 
L 1021.117119 58.280264 
L 1021.370972 58.280264 
L 1021.380736 57.117187 
L 1021.605298 57.117187 
L 1021.624825 55.954111 
L 1023.860685 55.954111 
L 1023.870449 54.791034 
L 1024.329337 54.791034 
L 1024.358628 53.627957 
L 1024.514845 53.627957 
L 1024.534372 52.46488 
L 1035.59651 52.46488 
L 1045.184347 51.301803 
L 1045.203874 50.138726 
L 1045.447964 50.138726 
L 1045.467491 48.975649 
L 1045.799453 48.975649 
L 1045.809216 47.812572 
L 1045.984961 47.812572 
L 1045.994724 46.649495 
L 1046.238814 46.649495 
L 1046.258341 45.486418 
L 1046.551248 45.486418 
L 1046.561012 44.323341 
L 1079.610735 44.323341 
L 1079.757189 43.160264 
L 1081.290071 43.160264 
L 1081.39747 41.997187 
L 1081.39747 41.997187 
" clip-path="url(#pa9a2aa3bf9)" style="fill: none; stroke: #0000ff; stroke-width: 1.5; stroke-linecap: square"/>
   </g>
   <g id="patch_54">
    <path d="M 49.235 359.517187 
L 49.235 26.877187 
" style="fill: none; stroke: #000000; stroke-width: 0.8; stroke-linejoin: miter; stroke-linecap: square"/>
   </g>
   <g id="patch_55">
    <path d="M 1165.235 359.517187 
L 1165.235 26.877187 
" style="fill: none; stroke: #000000; stroke-width: 0.8; stroke-linejoin: miter; stroke-linecap: square"/>
   </g>
   <g id="patch_56">
    <path d="M 49.235 359.517187 
L 1165.235 359.517187 
" style="fill: none; stroke: #000000; stroke-width: 0.8; stroke-linejoin: miter; stroke-linecap: square"/>
   </g>
   <g id="patch_57">
    <path d="M 49.235 26.877187 
L 1165.235 26.877187 
" style="fill: none; stroke: #000000; stroke-width: 0.8; stroke-linejoin: miter; stroke-linecap: square"/>
   </g>
   <g id="text_19">
    <!-- Pellet Count and Cumulative Sum Over Time of Group 6 Mouse 1 -->
    <g transform="translate(315.460625 20.877187) scale(0.18 -0.18)">
     <defs>
      <path id="DejaVuSans-61" d="M 2194 1759 
Q 1497 1759 1228 1600 
Q 959 1441 959 1056 
Q 959 750 1161 570 
Q 1363 391 1709 391 
Q 2188 391 2477 730 
Q 2766 1069 2766 1631 
L 2766 1759 
L 2194 1759 
z
M 3341 1997 
L 3341 0 
L 2766 0 
L 2766 531 
Q 2569 213 2275 61 
Q 1981 -91 1556 -91 
Q 1019 -91 701 211 
Q 384 513 384 1019 
Q 384 1609 779 1909 
Q 1175 2209 1959 2209 
L 2766 2209 
L 2766 2266 
Q 2766 2663 2505 2880 
Q 2244 3097 1772 3097 
Q 1472 3097 1187 3025 
Q 903 2953 641 2809 
L 641 3341 
Q 956 3463 1253 3523 
Q 1550 3584 1831 3584 
Q 2591 3584 2966 3190 
Q 3341 2797 3341 1997 
z
" transform="scale(0.015625)"/>
      <path id="DejaVuSans-64" d="M 2906 2969 
L 2906 4863 
L 3481 4863 
L 3481 0 
L 2906 0 
L 2906 525 
Q 2725 213 2448 61 
Q 2172 -91 1784 -91 
Q 1150 -91 751 415 
Q 353 922 353 1747 
Q 353 2572 751 3078 
Q 1150 3584 1784 3584 
Q 2172 3584 2448 3432 
Q 2725 3281 2906 2969 
z
M 947 1747 
Q 947 1113 1208 752 
Q 1469 391 1925 391 
Q 2381 391 2643 752 
Q 2906 1113 2906 1747 
Q 2906 2381 2643 2742 
Q 2381 3103 1925 3103 
Q 1469 3103 1208 2742 
Q 947 2381 947 1747 
z
" transform="scale(0.015625)"/>
      <path id="DejaVuSans-76" d="M 191 3500 
L 800 3500 
L 1894 563 
L 2988 3500 
L 3597 3500 
L 2284 0 
L 1503 0 
L 191 3500 
z
" transform="scale(0.015625)"/>
      <path id="DejaVuSans-53" d="M 3425 4513 
L 3425 3897 
Q 3066 4069 2747 4153 
Q 2428 4238 2131 4238 
Q 1616 4238 1336 4038 
Q 1056 3838 1056 3469 
Q 1056 3159 1242 3001 
Q 1428 2844 1947 2747 
L 2328 2669 
Q 3034 2534 3370 2195 
Q 3706 1856 3706 1288 
Q 3706 609 3251 259 
Q 2797 -91 1919 -91 
Q 1588 -91 1214 -16 
Q 841 59 441 206 
L 441 856 
Q 825 641 1194 531 
Q 1563 422 1919 422 
Q 2459 422 2753 634 
Q 3047 847 3047 1241 
Q 3047 1584 2836 1778 
Q 2625 1972 2144 2069 
L 1759 2144 
Q 1053 2284 737 2584 
Q 422 2884 422 3419 
Q 422 4038 858 4394 
Q 1294 4750 2059 4750 
Q 2388 4750 2728 4690 
Q 3069 4631 3425 4513 
z
" transform="scale(0.015625)"/>
      <path id="DejaVuSans-4f" d="M 2522 4238 
Q 1834 4238 1429 3725 
Q 1025 3213 1025 2328 
Q 1025 1447 1429 934 
Q 1834 422 2522 422 
Q 3209 422 3611 934 
Q 4013 1447 4013 2328 
Q 4013 3213 3611 3725 
Q 3209 4238 2522 4238 
z
M 2522 4750 
Q 3503 4750 4090 4092 
Q 4678 3434 4678 2328 
Q 4678 1225 4090 567 
Q 3503 -91 2522 -91 
Q 1538 -91 948 565 
Q 359 1222 359 2328 
Q 359 3434 948 4092 
Q 1538 4750 2522 4750 
z
" transform="scale(0.015625)"/>
      <path id="DejaVuSans-72" d="M 2631 2963 
Q 2534 3019 2420 3045 
Q 2306 3072 2169 3072 
Q 1681 3072 1420 2755 
Q 1159 2438 1159 1844 
L 1159 0 
L 581 0 
L 581 3500 
L 1159 3500 
L 1159 2956 
Q 1341 3275 1631 3429 
Q 1922 3584 2338 3584 
Q 2397 3584 2469 3576 
Q 2541 3569 2628 3553 
L 2631 2963 
z
" transform="scale(0.015625)"/>
      <path id="DejaVuSans-66" d="M 2375 4863 
L 2375 4384 
L 1825 4384 
Q 1516 4384 1395 4259 
Q 1275 4134 1275 3809 
L 1275 3500 
L 2222 3500 
L 2222 3053 
L 1275 3053 
L 1275 0 
L 697 0 
L 697 3053 
L 147 3053 
L 147 3500 
L 697 3500 
L 697 3744 
Q 697 4328 969 4595 
Q 1241 4863 1831 4863 
L 2375 4863 
z
" transform="scale(0.015625)"/>
      <path id="DejaVuSans-47" d="M 3809 666 
L 3809 1919 
L 2778 1919 
L 2778 2438 
L 4434 2438 
L 4434 434 
Q 4069 175 3628 42 
Q 3188 -91 2688 -91 
Q 1594 -91 976 548 
Q 359 1188 359 2328 
Q 359 3472 976 4111 
Q 1594 4750 2688 4750 
Q 3144 4750 3555 4637 
Q 3966 4525 4313 4306 
L 4313 3634 
Q 3963 3931 3569 4081 
Q 3175 4231 2741 4231 
Q 1884 4231 1454 3753 
Q 1025 3275 1025 2328 
Q 1025 1384 1454 906 
Q 1884 428 2741 428 
Q 3075 428 3337 486 
Q 3600 544 3809 666 
z
" transform="scale(0.015625)"/>
      <path id="DejaVuSans-70" d="M 1159 525 
L 1159 -1331 
L 581 -1331 
L 581 3500 
L 1159 3500 
L 1159 2969 
Q 1341 3281 1617 3432 
Q 1894 3584 2278 3584 
Q 2916 3584 3314 3078 
Q 3713 2572 3713 1747 
Q 3713 922 3314 415 
Q 2916 -91 2278 -91 
Q 1894 -91 1617 61 
Q 1341 213 1159 525 
z
M 3116 1747 
Q 3116 2381 2855 2742 
Q 2594 3103 2138 3103 
Q 1681 3103 1420 2742 
Q 1159 2381 1159 1747 
Q 1159 1113 1420 752 
Q 1681 391 2138 391 
Q 2594 391 2855 752 
Q 3116 1113 3116 1747 
z
" transform="scale(0.015625)"/>
      <path id="DejaVuSans-4d" d="M 628 4666 
L 1569 4666 
L 2759 1491 
L 3956 4666 
L 4897 4666 
L 4897 0 
L 4281 0 
L 4281 4097 
L 3078 897 
L 2444 897 
L 1241 4097 
L 1241 0 
L 628 0 
L 628 4666 
z
" transform="scale(0.015625)"/>
      <path id="DejaVuSans-73" d="M 2834 3397 
L 2834 2853 
Q 2591 2978 2328 3040 
Q 2066 3103 1784 3103 
Q 1356 3103 1142 2972 
Q 928 2841 928 2578 
Q 928 2378 1081 2264 
Q 1234 2150 1697 2047 
L 1894 2003 
Q 2506 1872 2764 1633 
Q 3022 1394 3022 966 
Q 3022 478 2636 193 
Q 2250 -91 1575 -91 
Q 1294 -91 989 -36 
Q 684 19 347 128 
L 347 722 
Q 666 556 975 473 
Q 1284 391 1588 391 
Q 1994 391 2212 530 
Q 2431 669 2431 922 
Q 2431 1156 2273 1281 
Q 2116 1406 1581 1522 
L 1381 1569 
Q 847 1681 609 1914 
Q 372 2147 372 2553 
Q 372 3047 722 3315 
Q 1072 3584 1716 3584 
Q 2034 3584 2315 3537 
Q 2597 3491 2834 3397 
z
" transform="scale(0.015625)"/>
     </defs>
     <use xlink:href="#DejaVuSans-50"/>
     <use xlink:href="#DejaVuSans-65" x="56.677734"/>
     <use xlink:href="#DejaVuSans-6c" x="118.201172"/>
     <use xlink:href="#DejaVuSans-6c" x="145.984375"/>
     <use xlink:href="#DejaVuSans-65" x="173.767578"/>
     <use xlink:href="#DejaVuSans-74" x="235.291016"/>
     <use xlink:href="#DejaVuSans-20" x="274.5"/>
     <use xlink:href="#DejaVuSans-43" x="306.287109"/>
     <use xlink:href="#DejaVuSans-6f" x="376.111328"/>
     <use xlink:href="#DejaVuSans-75" x="437.292969"/>
     <use xlink:href="#DejaVuSans-6e" x="500.671875"/>
     <use xlink:href="#DejaVuSans-74" x="564.050781"/>
     <use xlink:href="#DejaVuSans-20" x="603.259766"/>
     <use xlink:href="#DejaVuSans-61" x="635.046875"/>
     <use xlink:href="#DejaVuSans-6e" x="696.326172"/>
     <use xlink:href="#DejaVuSans-64" x="759.705078"/>
     <use xlink:href="#DejaVuSans-20" x="823.181641"/>
     <use xlink:href="#DejaVuSans-43" x="854.96875"/>
     <use xlink:href="#DejaVuSans-75" x="924.792969"/>
     <use xlink:href="#DejaVuSans-6d" x="988.171875"/>
     <use xlink:href="#DejaVuSans-75" x="1085.583984"/>
     <use xlink:href="#DejaVuSans-6c" x="1148.962891"/>
     <use xlink:href="#DejaVuSans-61" x="1176.746094"/>
     <use xlink:href="#DejaVuSans-74" x="1238.025391"/>
     <use xlink:href="#DejaVuSans-69" x="1277.234375"/>
     <use xlink:href="#DejaVuSans-76" x="1305.017578"/>
     <use xlink:href="#DejaVuSans-65" x="1364.197266"/>
     <use xlink:href="#DejaVuSans-20" x="1425.720703"/>
     <use xlink:href="#DejaVuSans-53" x="1457.507812"/>
     <use xlink:href="#DejaVuSans-75" x="1520.984375"/>
     <use xlink:href="#DejaVuSans-6d" x="1584.363281"/>
     <use xlink:href="#DejaVuSans-20" x="1681.775391"/>
     <use xlink:href="#DejaVuSans-4f" x="1713.5625"/>
     <use xlink:href="#DejaVuSans-76" x="1792.273438"/>
     <use xlink:href="#DejaVuSans-65" x="1851.453125"/>
     <use xlink:href="#DejaVuSans-72" x="1912.976562"/>
     <use xlink:href="#DejaVuSans-20" x="1954.089844"/>
     <use xlink:href="#DejaVuSans-54" x="1985.876953"/>
     <use xlink:href="#DejaVuSans-69" x="2043.835938"/>
     <use xlink:href="#DejaVuSans-6d" x="2071.619141"/>
     <use xlink:href="#DejaVuSans-65" x="2169.03125"/>
     <use xlink:href="#DejaVuSans-20" x="2230.554688"/>
     <use xlink:href="#DejaVuSans-6f" x="2262.341797"/>
     <use xlink:href="#DejaVuSans-66" x="2323.523438"/>
     <use xlink:href="#DejaVuSans-20" x="2358.728516"/>
     <use xlink:href="#DejaVuSans-47" x="2390.515625"/>
     <use xlink:href="#DejaVuSans-72" x="2468.005859"/>
     <use xlink:href="#DejaVuSans-6f" x="2506.869141"/>
     <use xlink:href="#DejaVuSans-75" x="2568.050781"/>
     <use xlink:href="#DejaVuSans-70" x="2631.429688"/>
     <use xlink:href="#DejaVuSans-20" x="2694.90625"/>
     <use xlink:href="#DejaVuSans-36" x="2726.693359"/>
     <use xlink:href="#DejaVuSans-20" x="2790.316406"/>
     <use xlink:href="#DejaVuSans-4d" x="2822.103516"/>
     <use xlink:href="#DejaVuSans-6f" x="2908.382812"/>
     <use xlink:href="#DejaVuSans-75" x="2969.564453"/>
     <use xlink:href="#DejaVuSans-73" x="3032.943359"/>
     <use xlink:href="#DejaVuSans-65" x="3085.042969"/>
     <use xlink:href="#DejaVuSans-20" x="3146.566406"/>
     <use xlink:href="#DejaVuSans-31" x="3178.353516"/>
    </g>
   </g>
   <g id="legend_1">
    <g id="patch_58">
     <path d="M 1086.550625 64.233437 
L 1158.235 64.233437 
Q 1160.235 64.233437 1160.235 62.233437 
L 1160.235 33.877187 
Q 1160.235 31.877187 1158.235 31.877187 
L 1086.550625 31.877187 
Q 1084.550625 31.877187 1084.550625 33.877187 
L 1084.550625 62.233437 
Q 1084.550625 64.233437 1086.550625 64.233437 
z
" style="fill: #ffffff; opacity: 0.8; stroke: #cccccc; stroke-linejoin: miter"/>
    </g>
    <g id="patch_59">
     <path d="M 1088.550625 43.475625 
L 1108.550625 43.475625 
L 1108.550625 36.475625 
L 1088.550625 36.475625 
z
" style="fill: #add8e6; opacity: 0.9; stroke: #add8e6; stroke-linejoin: miter"/>
    </g>
    <g id="text_20">
     <!-- Meal -->
     <g transform="translate(1116.550625 43.475625) scale(0.1 -0.1)">
      <use xlink:href="#DejaVuSans-4d"/>
      <use xlink:href="#DejaVuSans-65" x="86.279297"/>
      <use xlink:href="#DejaVuSans-61" x="147.802734"/>
      <use xlink:href="#DejaVuSans-6c" x="209.082031"/>
     </g>
    </g>
    <g id="patch_60">
     <path d="M 1088.550625 58.15375 
L 1108.550625 58.15375 
L 1108.550625 51.15375 
L 1088.550625 51.15375 
z
" style="fill: #808080; opacity: 0.5; stroke: #808080; stroke-linejoin: miter"/>
    </g>
    <g id="text_21">
     <!-- Inactive -->
     <g transform="translate(1116.550625 58.15375) scale(0.1 -0.1)">
      <defs>
       <path id="DejaVuSans-49" d="M 628 4666 
L 1259 4666 
L 1259 0 
L 628 0 
L 628 4666 
z
" transform="scale(0.015625)"/>
       <path id="DejaVuSans-63" d="M 3122 3366 
L 3122 2828 
Q 2878 2963 2633 3030 
Q 2388 3097 2138 3097 
Q 1578 3097 1268 2742 
Q 959 2388 959 1747 
Q 959 1106 1268 751 
Q 1578 397 2138 397 
Q 2388 397 2633 464 
Q 2878 531 3122 666 
L 3122 134 
Q 2881 22 2623 -34 
Q 2366 -91 2075 -91 
Q 1284 -91 818 406 
Q 353 903 353 1747 
Q 353 2603 823 3093 
Q 1294 3584 2113 3584 
Q 2378 3584 2631 3529 
Q 2884 3475 3122 3366 
z
" transform="scale(0.015625)"/>
      </defs>
      <use xlink:href="#DejaVuSans-49"/>
      <use xlink:href="#DejaVuSans-6e" x="29.492188"/>
      <use xlink:href="#DejaVuSans-61" x="92.871094"/>
      <use xlink:href="#DejaVuSans-63" x="154.150391"/>
      <use xlink:href="#DejaVuSans-74" x="209.130859"/>
      <use xlink:href="#DejaVuSans-69" x="248.339844"/>
      <use xlink:href="#DejaVuSans-76" x="276.123047"/>
      <use xlink:href="#DejaVuSans-65" x="335.302734"/>
     </g>
    </g>
   </g>
  </g>
 </g>
 <defs>
  <clipPath id="pa9a2aa3bf9">
   <rect x="49.235" y="26.877187" width="1116" height="332.64"/>
  </clipPath>
 </defs>
</svg>
