<?xml version="1.0" encoding="utf-8" standalone="no"?>
<!DOCTYPE svg PUBLIC "-//W3C//DTD SVG 1.1//EN"
  "http://www.w3.org/Graphics/SVG/1.1/DTD/svg11.dtd">
<svg xmlns:xlink="http://www.w3.org/1999/xlink" width="1191.130669pt" height="399.009062pt" viewBox="0 0 1191.130669 399.009062" xmlns="http://www.w3.org/2000/svg" version="1.1">
 <metadata>
  <rdf:RDF xmlns:dc="http://purl.org/dc/elements/1.1/" xmlns:cc="http://creativecommons.org/ns#" xmlns:rdf="http://www.w3.org/1999/02/22-rdf-syntax-ns#">
   <cc:Work>
    <dc:type rdf:resource="http://purl.org/dc/dcmitype/StillImage"/>
    <dc:date>2025-04-02T10:37:29.856358</dc:date>
    <dc:format>image/svg+xml</dc:format>
    <dc:creator>
     <cc:Agent>
      <dc:title>Matplotlib v3.8.3, https://matplotlib.org/</dc:title>
     </cc:Agent>
    </dc:creator>
   </cc:Work>
  </rdf:RDF>
 </metadata>
 <defs>
  <style type="text/css">*{stroke-linejoin: round; stroke-linecap: butt}</style>
 </defs>
 <g id="figure_1">
  <g id="patch_1">
   <path d="M 0 399.009062 
L 1191.130669 399.009062 
L 1191.130669 0 
L 0 0 
z
" style="fill: #ffffff"/>
  </g>
  <g id="axes_1">
   <g id="patch_2">
    <path d="M 49.235 359.517187 
L 1165.235 359.517187 
L 1165.235 26.877187 
L 49.235 26.877187 
z
" style="fill: #ffffff"/>
   </g>
   <g id="patch_3">
    <path d="M 144.137791 359.517187 
L 144.137791 26.877187 
L 144.137791 26.877187 
z
" clip-path="url(#p212884939d)" style="fill: #add8e6; stroke: #add8e6; stroke-linejoin: miter"/>
   </g>
   <g id="patch_4">
    <path d="M 165.755901 359.517187 
L 165.755901 26.877187 
L 152.968412 26.877187 
L 152.968412 359.517187 
z
" clip-path="url(#p212884939d)" style="fill: #add8e6; stroke: #add8e6; stroke-linejoin: miter"/>
   </g>
   <g id="patch_5">
    <path d="M 250.376235 359.517187 
L 250.376235 26.877187 
L 249.612164 26.877187 
L 249.612164 359.517187 
z
" clip-path="url(#p212884939d)" style="fill: #add8e6; stroke: #add8e6; stroke-linejoin: miter"/>
   </g>
   <g id="patch_6">
    <path d="M 256.647728 359.517187 
L 256.647728 26.877187 
L 257.144883 26.877187 
L 257.144883 359.517187 
z
" clip-path="url(#p212884939d)" style="fill: #add8e6; stroke: #add8e6; stroke-linejoin: miter"/>
   </g>
   <g id="patch_7">
    <path d="M 271.008184 359.517187 
L 271.008184 26.877187 
L 267.833725 26.877187 
L 267.833725 359.517187 
z
" clip-path="url(#p212884939d)" style="fill: #add8e6; stroke: #add8e6; stroke-linejoin: miter"/>
   </g>
   <g id="patch_8">
    <path d="M 276.857911 359.517187 
L 276.857911 26.877187 
L 274.960977 26.877187 
L 274.960977 359.517187 
z
" clip-path="url(#p212884939d)" style="fill: #add8e6; stroke: #add8e6; stroke-linejoin: miter"/>
   </g>
   <g id="patch_9">
    <path d="M 282.522222 359.517187 
L 282.522222 26.877187 
L 281.694988 26.877187 
L 281.694988 359.517187 
z
" clip-path="url(#p212884939d)" style="fill: #add8e6; stroke: #add8e6; stroke-linejoin: miter"/>
   </g>
   <g id="patch_10">
    <path d="M 283.968863 359.517187 
L 283.968863 26.877187 
L 283.706023 26.877187 
L 283.706023 359.517187 
z
" clip-path="url(#p212884939d)" style="fill: #add8e6; stroke: #add8e6; stroke-linejoin: miter"/>
   </g>
   <g id="patch_11">
    <path d="M 286.69303 359.517187 
L 286.69303 26.877187 
L 286.063436 26.877187 
L 286.063436 359.517187 
z
" clip-path="url(#p212884939d)" style="fill: #add8e6; stroke: #add8e6; stroke-linejoin: miter"/>
   </g>
   <g id="patch_12">
    <path d="M 294.568053 359.517187 
L 294.568053 26.877187 
L 293.35369 26.877187 
L 293.35369 359.517187 
z
" clip-path="url(#p212884939d)" style="fill: #add8e6; stroke: #add8e6; stroke-linejoin: miter"/>
   </g>
   <g id="patch_13">
    <path d="M 302.31675 359.517187 
L 302.31675 26.877187 
L 302.722217 26.877187 
L 302.722217 359.517187 
z
" clip-path="url(#p212884939d)" style="fill: #add8e6; stroke: #add8e6; stroke-linejoin: miter"/>
   </g>
   <g id="patch_14">
    <path d="M 303.298836 359.517187 
L 303.298836 26.877187 
L 303.525001 26.877187 
L 303.525001 359.517187 
z
" clip-path="url(#p212884939d)" style="fill: #add8e6; stroke: #add8e6; stroke-linejoin: miter"/>
   </g>
   <g id="patch_15">
    <path d="M 319.729415 359.517187 
L 319.729415 26.877187 
L 318.891993 26.877187 
L 318.891993 359.517187 
z
" clip-path="url(#p212884939d)" style="fill: #add8e6; stroke: #add8e6; stroke-linejoin: miter"/>
   </g>
   <g id="patch_16">
    <path d="M 322.29873 359.517187 
L 322.29873 26.877187 
L 322.531008 26.877187 
L 322.531008 359.517187 
z
" clip-path="url(#p212884939d)" style="fill: #add8e6; stroke: #add8e6; stroke-linejoin: miter"/>
   </g>
   <g id="patch_17">
    <path d="M 324.523704 359.517187 
L 324.523704 26.877187 
L 324.444241 26.877187 
L 324.444241 359.517187 
z
" clip-path="url(#p212884939d)" style="fill: #add8e6; stroke: #add8e6; stroke-linejoin: miter"/>
   </g>
   <g id="patch_18">
    <path d="M 325.70343 359.517187 
L 325.70343 26.877187 
L 325.568953 26.877187 
L 325.568953 359.517187 
z
" clip-path="url(#p212884939d)" style="fill: #add8e6; stroke: #add8e6; stroke-linejoin: miter"/>
   </g>
   <g id="patch_19">
    <path d="M 363.130674 359.517187 
L 363.130674 26.877187 
L 363.257001 26.877187 
L 363.257001 359.517187 
z
" clip-path="url(#p212884939d)" style="fill: #add8e6; stroke: #add8e6; stroke-linejoin: miter"/>
   </g>
   <g id="patch_20">
    <path d="M 390.946927 359.517187 
L 390.946927 26.877187 
L 390.213419 26.877187 
L 390.213419 359.517187 
z
" clip-path="url(#p212884939d)" style="fill: #add8e6; stroke: #add8e6; stroke-linejoin: miter"/>
   </g>
   <g id="patch_21">
    <path d="M 399.801999 359.517187 
L 399.801999 26.877187 
L 398.974765 26.877187 
L 398.974765 359.517187 
z
" clip-path="url(#p212884939d)" style="fill: #add8e6; stroke: #add8e6; stroke-linejoin: miter"/>
   </g>
   <g id="patch_22">
    <path d="M 415.409418 359.517187 
L 415.409418 26.877187 
L 415.31773 26.877187 
L 415.31773 359.517187 
z
" clip-path="url(#p212884939d)" style="fill: #add8e6; stroke: #add8e6; stroke-linejoin: miter"/>
   </g>
   <g id="patch_23">
    <path d="M 422.785249 359.517187 
L 422.785249 26.877187 
L 423.143853 26.877187 
L 423.143853 359.517187 
z
" clip-path="url(#p212884939d)" style="fill: #add8e6; stroke: #add8e6; stroke-linejoin: miter"/>
   </g>
   <g id="patch_24">
    <path d="M 428.559587 359.517187 
L 428.559587 26.877187 
L 428.952828 26.877187 
L 428.952828 359.517187 
z
" clip-path="url(#p212884939d)" style="fill: #add8e6; stroke: #add8e6; stroke-linejoin: miter"/>
   </g>
   <g id="patch_25">
    <path d="M 437.461521 359.517187 
L 437.461521 26.877187 
L 437.779374 26.877187 
L 437.779374 359.517187 
z
" clip-path="url(#p212884939d)" style="fill: #add8e6; stroke: #add8e6; stroke-linejoin: miter"/>
   </g>
   <g id="patch_26">
    <path d="M 441.565091 359.517187 
L 441.565091 26.877187 
L 440.430191 26.877187 
L 440.430191 359.517187 
z
" clip-path="url(#p212884939d)" style="fill: #add8e6; stroke: #add8e6; stroke-linejoin: miter"/>
   </g>
   <g id="patch_27">
    <path d="M 450.699303 359.517187 
L 450.699303 26.877187 
L 451.241283 26.877187 
L 451.241283 359.517187 
z
" clip-path="url(#p212884939d)" style="fill: #add8e6; stroke: #add8e6; stroke-linejoin: miter"/>
   </g>
   <g id="patch_28">
    <path d="M 467.376422 359.517187 
L 467.376422 26.877187 
L 466.917979 26.877187 
L 466.917979 359.517187 
z
" clip-path="url(#p212884939d)" style="fill: #add8e6; stroke: #add8e6; stroke-linejoin: miter"/>
   </g>
   <g id="patch_29">
    <path d="M 467.993791 359.517187 
L 467.993791 26.877187 
L 468.393145 26.877187 
L 468.393145 359.517187 
z
" clip-path="url(#p212884939d)" style="fill: #add8e6; stroke: #add8e6; stroke-linejoin: miter"/>
   </g>
   <g id="patch_30">
    <path d="M 485.928061 359.517187 
L 485.928061 26.877187 
L 484.532358 26.877187 
L 484.532358 359.517187 
z
" clip-path="url(#p212884939d)" style="fill: #add8e6; stroke: #add8e6; stroke-linejoin: miter"/>
   </g>
   <g id="patch_31">
    <path d="M 504.665115 359.517187 
L 504.665115 26.877187 
L 504.85868 26.877187 
L 504.85868 359.517187 
z
" clip-path="url(#p212884939d)" style="fill: #add8e6; stroke: #add8e6; stroke-linejoin: miter"/>
   </g>
   <g id="patch_32">
    <path d="M 505.747039 359.517187 
L 505.747039 26.877187 
L 505.718514 26.877187 
L 505.718514 359.517187 
z
" clip-path="url(#p212884939d)" style="fill: #add8e6; stroke: #add8e6; stroke-linejoin: miter"/>
   </g>
   <g id="patch_33">
    <path d="M 522.511772 359.517187 
L 522.511772 26.877187 
L 522.193918 26.877187 
L 522.193918 359.517187 
z
" clip-path="url(#p212884939d)" style="fill: #add8e6; stroke: #add8e6; stroke-linejoin: miter"/>
   </g>
   <g id="patch_34">
    <path d="M 530.148405 359.517187 
L 530.148405 26.877187 
L 530.205455 26.877187 
L 530.205455 359.517187 
z
" clip-path="url(#p212884939d)" style="fill: #add8e6; stroke: #add8e6; stroke-linejoin: miter"/>
   </g>
   <g id="patch_35">
    <path d="M 615.149755 359.517187 
L 615.149755 26.877187 
L 615.624498 26.877187 
L 615.624498 359.517187 
z
" clip-path="url(#p212884939d)" style="fill: #add8e6; stroke: #add8e6; stroke-linejoin: miter"/>
   </g>
   <g id="patch_36">
    <path d="M 616.808298 359.517187 
L 616.808298 26.877187 
L 617.065026 26.877187 
L 617.065026 359.517187 
z
" clip-path="url(#p212884939d)" style="fill: #add8e6; stroke: #add8e6; stroke-linejoin: miter"/>
   </g>
   <g id="patch_37">
    <path d="M 618.800995 359.517187 
L 618.800995 26.877187 
L 618.849895 26.877187 
L 618.849895 359.517187 
z
" clip-path="url(#p212884939d)" style="fill: #add8e6; stroke: #add8e6; stroke-linejoin: miter"/>
   </g>
   <g id="patch_38">
    <path d="M 708.160605 359.517187 
L 708.160605 26.877187 
L 696.096436 26.877187 
L 696.096436 359.517187 
z
" clip-path="url(#p212884939d)" style="fill: #add8e6; stroke: #add8e6; stroke-linejoin: miter"/>
   </g>
   <g id="patch_39">
    <path d="M 757.684619 359.517187 
L 757.684619 26.877187 
L 758.157324 26.877187 
L 758.157324 359.517187 
z
" clip-path="url(#p212884939d)" style="fill: #add8e6; stroke: #add8e6; stroke-linejoin: miter"/>
   </g>
   <g id="patch_40">
    <path d="M 759.41855 359.517187 
L 759.41855 26.877187 
L 759.821979 26.877187 
L 759.821979 359.517187 
z
" clip-path="url(#p212884939d)" style="fill: #add8e6; stroke: #add8e6; stroke-linejoin: miter"/>
   </g>
   <g id="patch_41">
    <path d="M 819.079237 359.517187 
L 819.079237 26.877187 
L 818.692108 26.877187 
L 818.692108 359.517187 
z
" clip-path="url(#p212884939d)" style="fill: #add8e6; stroke: #add8e6; stroke-linejoin: miter"/>
   </g>
   <g id="patch_42">
    <path d="M 827.539029 359.517187 
L 827.539029 26.877187 
L 822.573587 26.877187 
L 822.573587 359.517187 
z
" clip-path="url(#p212884939d)" style="fill: #add8e6; stroke: #add8e6; stroke-linejoin: miter"/>
   </g>
   <g id="patch_43">
    <path d="M 866.256025 359.517187 
L 866.256025 26.877187 
L 866.714468 26.877187 
L 866.714468 359.517187 
z
" clip-path="url(#p212884939d)" style="fill: #add8e6; stroke: #add8e6; stroke-linejoin: miter"/>
   </g>
   <g id="patch_44">
    <path d="M 866.975271 359.517187 
L 866.975271 26.877187 
L 867.407225 26.877187 
L 867.407225 359.517187 
z
" clip-path="url(#p212884939d)" style="fill: #add8e6; stroke: #add8e6; stroke-linejoin: miter"/>
   </g>
   <g id="patch_45">
    <path d="M 926.116389 359.517187 
L 926.116389 26.877187 
L 912.361077 26.877187 
L 912.361077 359.517187 
z
" clip-path="url(#p212884939d)" style="fill: #add8e6; stroke: #add8e6; stroke-linejoin: miter"/>
   </g>
   <g id="patch_46">
    <path d="M 969.819203 359.517187 
L 969.819203 26.877187 
L 970.336733 26.877187 
L 970.336733 359.517187 
z
" clip-path="url(#p212884939d)" style="fill: #add8e6; stroke: #add8e6; stroke-linejoin: miter"/>
   </g>
   <g id="patch_47">
    <path d="M 992.496824 359.517187 
L 992.496824 26.877187 
L 990.2148 26.877187 
L 990.2148 359.517187 
z
" clip-path="url(#p212884939d)" style="fill: #add8e6; stroke: #add8e6; stroke-linejoin: miter"/>
   </g>
   <g id="patch_48">
    <path d="M 1015.781628 359.517187 
L 1015.781628 26.877187 
L 1014.504101 26.877187 
L 1014.504101 359.517187 
z
" clip-path="url(#p212884939d)" style="fill: #add8e6; stroke: #add8e6; stroke-linejoin: miter"/>
   </g>
   <g id="patch_49">
    <path d="M 1057.905361 359.517187 
L 1057.905361 26.877187 
L 1047.501773 26.877187 
L 1047.501773 359.517187 
z
" clip-path="url(#p212884939d)" style="fill: #add8e6; stroke: #add8e6; stroke-linejoin: miter"/>
   </g>
   <g id="patch_50">
    <path d="M 1058.913935 359.517187 
L 1058.913935 26.877187 
L 1059.512966 26.877187 
L 1059.512966 359.517187 
z
" clip-path="url(#p212884939d)" style="fill: #add8e6; stroke: #add8e6; stroke-linejoin: miter"/>
   </g>
   <g id="patch_51">
    <path d="M 1105.298127 359.517187 
L 1105.298127 26.877187 
L 1078.384497 26.877187 
L 1078.384497 359.517187 
z
" clip-path="url(#p212884939d)" style="fill: #add8e6; stroke: #add8e6; stroke-linejoin: miter"/>
   </g>
   <g id="patch_52">
    <path d="M 1114.507727 359.517187 
L 1114.507727 26.877187 
L 1097.512755 26.877187 
L 1097.512755 359.517187 
z
" clip-path="url(#p212884939d)" style="fill: #add8e6; stroke: #add8e6; stroke-linejoin: miter"/>
   </g>
   <g id="patch_53">
    <path d="M 99.962273 26.877187 
L 99.962273 26.877187 
L 99.962273 359.517187 
" clip-path="url(#p212884939d)" style="fill: #808080; opacity: 0.4; stroke: #808080; stroke-linejoin: miter"/>
   </g>
   <g id="patch_54">
    <path d="M 112.187406 26.877187 
L 112.187406 26.877187 
L 112.187406 359.517187 
" clip-path="url(#p212884939d)" style="fill: #808080; opacity: 0.4; stroke: #808080; stroke-linejoin: miter"/>
   </g>
   <g id="patch_55">
    <path d="M 124.412539 26.877187 
L 124.412539 26.877187 
L 124.412539 359.517187 
" clip-path="url(#p212884939d)" style="fill: #808080; opacity: 0.4; stroke: #808080; stroke-linejoin: miter"/>
   </g>
   <g id="patch_56">
    <path d="M 540.067063 359.517187 
L 540.067063 26.877187 
L 980.171853 26.877187 
L 980.171853 359.517187 
z
" clip-path="url(#p212884939d)" style="fill: #808080; opacity: 0.4; stroke: #808080; stroke-linejoin: miter"/>
   </g>
   <g id="patch_57">
    <path d="M 992.396986 26.877187 
L 992.396986 26.877187 
L 992.396986 359.517187 
" clip-path="url(#p212884939d)" style="fill: #808080; opacity: 0.4; stroke: #808080; stroke-linejoin: miter"/>
   </g>
   <g id="patch_58">
    <path d="M 1004.622119 26.877187 
L 1004.622119 26.877187 
L 1004.622119 359.517187 
" clip-path="url(#p212884939d)" style="fill: #808080; opacity: 0.4; stroke: #808080; stroke-linejoin: miter"/>
   </g>
   <g id="matplotlib.axis_1">
    <g id="xtick_1">
     <g id="line2d_1">
      <defs>
       <path id="mccb99f1e1d" d="M 0 0 
L 0 3.5 
" style="stroke: #000000; stroke-width: 0.8"/>
      </defs>
      <g>
       <use xlink:href="#mccb99f1e1d" x="61.188226" y="359.517187" style="stroke: #000000; stroke-width: 0.8"/>
      </g>
     </g>
     <g id="text_1">
      <!-- 09-06 06 -->
      <g transform="translate(38.707757 374.115625) scale(0.1 -0.1)">
       <defs>
        <path id="DejaVuSans-30" d="M 2034 4250 
Q 1547 4250 1301 3770 
Q 1056 3291 1056 2328 
Q 1056 1369 1301 889 
Q 1547 409 2034 409 
Q 2525 409 2770 889 
Q 3016 1369 3016 2328 
Q 3016 3291 2770 3770 
Q 2525 4250 2034 4250 
z
M 2034 4750 
Q 2819 4750 3233 4129 
Q 3647 3509 3647 2328 
Q 3647 1150 3233 529 
Q 2819 -91 2034 -91 
Q 1250 -91 836 529 
Q 422 1150 422 2328 
Q 422 3509 836 4129 
Q 1250 4750 2034 4750 
z
" transform="scale(0.015625)"/>
        <path id="DejaVuSans-39" d="M 703 97 
L 703 672 
Q 941 559 1184 500 
Q 1428 441 1663 441 
Q 2288 441 2617 861 
Q 2947 1281 2994 2138 
Q 2813 1869 2534 1725 
Q 2256 1581 1919 1581 
Q 1219 1581 811 2004 
Q 403 2428 403 3163 
Q 403 3881 828 4315 
Q 1253 4750 1959 4750 
Q 2769 4750 3195 4129 
Q 3622 3509 3622 2328 
Q 3622 1225 3098 567 
Q 2575 -91 1691 -91 
Q 1453 -91 1209 -44 
Q 966 3 703 97 
z
M 1959 2075 
Q 2384 2075 2632 2365 
Q 2881 2656 2881 3163 
Q 2881 3666 2632 3958 
Q 2384 4250 1959 4250 
Q 1534 4250 1286 3958 
Q 1038 3666 1038 3163 
Q 1038 2656 1286 2365 
Q 1534 2075 1959 2075 
z
" transform="scale(0.015625)"/>
        <path id="DejaVuSans-2d" d="M 313 2009 
L 1997 2009 
L 1997 1497 
L 313 1497 
L 313 2009 
z
" transform="scale(0.015625)"/>
        <path id="DejaVuSans-36" d="M 2113 2584 
Q 1688 2584 1439 2293 
Q 1191 2003 1191 1497 
Q 1191 994 1439 701 
Q 1688 409 2113 409 
Q 2538 409 2786 701 
Q 3034 994 3034 1497 
Q 3034 2003 2786 2293 
Q 2538 2584 2113 2584 
z
M 3366 4563 
L 3366 3988 
Q 3128 4100 2886 4159 
Q 2644 4219 2406 4219 
Q 1781 4219 1451 3797 
Q 1122 3375 1075 2522 
Q 1259 2794 1537 2939 
Q 1816 3084 2150 3084 
Q 2853 3084 3261 2657 
Q 3669 2231 3669 1497 
Q 3669 778 3244 343 
Q 2819 -91 2113 -91 
Q 1303 -91 875 529 
Q 447 1150 447 2328 
Q 447 3434 972 4092 
Q 1497 4750 2381 4750 
Q 2619 4750 2861 4703 
Q 3103 4656 3366 4563 
z
" transform="scale(0.015625)"/>
        <path id="DejaVuSans-20" transform="scale(0.015625)"/>
       </defs>
       <use xlink:href="#DejaVuSans-30"/>
       <use xlink:href="#DejaVuSans-39" x="63.623047"/>
       <use xlink:href="#DejaVuSans-2d" x="127.246094"/>
       <use xlink:href="#DejaVuSans-30" x="163.330078"/>
       <use xlink:href="#DejaVuSans-36" x="226.953125"/>
       <use xlink:href="#DejaVuSans-20" x="290.576172"/>
       <use xlink:href="#DejaVuSans-30" x="322.363281"/>
       <use xlink:href="#DejaVuSans-36" x="385.986328"/>
      </g>
     </g>
    </g>
    <g id="xtick_2">
     <g id="line2d_2">
      <g>
       <use xlink:href="#mccb99f1e1d" x="171.214423" y="359.517187" style="stroke: #000000; stroke-width: 0.8"/>
      </g>
     </g>
     <g id="text_2">
      <!-- 09-06 09 -->
      <g transform="translate(148.733954 374.115625) scale(0.1 -0.1)">
       <use xlink:href="#DejaVuSans-30"/>
       <use xlink:href="#DejaVuSans-39" x="63.623047"/>
       <use xlink:href="#DejaVuSans-2d" x="127.246094"/>
       <use xlink:href="#DejaVuSans-30" x="163.330078"/>
       <use xlink:href="#DejaVuSans-36" x="226.953125"/>
       <use xlink:href="#DejaVuSans-20" x="290.576172"/>
       <use xlink:href="#DejaVuSans-30" x="322.363281"/>
       <use xlink:href="#DejaVuSans-39" x="385.986328"/>
      </g>
     </g>
    </g>
    <g id="xtick_3">
     <g id="line2d_3">
      <g>
       <use xlink:href="#mccb99f1e1d" x="281.240621" y="359.517187" style="stroke: #000000; stroke-width: 0.8"/>
      </g>
     </g>
     <g id="text_3">
      <!-- 09-06 12 -->
      <g transform="translate(258.760152 374.115625) scale(0.1 -0.1)">
       <defs>
        <path id="DejaVuSans-31" d="M 794 531 
L 1825 531 
L 1825 4091 
L 703 3866 
L 703 4441 
L 1819 4666 
L 2450 4666 
L 2450 531 
L 3481 531 
L 3481 0 
L 794 0 
L 794 531 
z
" transform="scale(0.015625)"/>
        <path id="DejaVuSans-32" d="M 1228 531 
L 3431 531 
L 3431 0 
L 469 0 
L 469 531 
Q 828 903 1448 1529 
Q 2069 2156 2228 2338 
Q 2531 2678 2651 2914 
Q 2772 3150 2772 3378 
Q 2772 3750 2511 3984 
Q 2250 4219 1831 4219 
Q 1534 4219 1204 4116 
Q 875 4013 500 3803 
L 500 4441 
Q 881 4594 1212 4672 
Q 1544 4750 1819 4750 
Q 2544 4750 2975 4387 
Q 3406 4025 3406 3419 
Q 3406 3131 3298 2873 
Q 3191 2616 2906 2266 
Q 2828 2175 2409 1742 
Q 1991 1309 1228 531 
z
" transform="scale(0.015625)"/>
       </defs>
       <use xlink:href="#DejaVuSans-30"/>
       <use xlink:href="#DejaVuSans-39" x="63.623047"/>
       <use xlink:href="#DejaVuSans-2d" x="127.246094"/>
       <use xlink:href="#DejaVuSans-30" x="163.330078"/>
       <use xlink:href="#DejaVuSans-36" x="226.953125"/>
       <use xlink:href="#DejaVuSans-20" x="290.576172"/>
       <use xlink:href="#DejaVuSans-31" x="322.363281"/>
       <use xlink:href="#DejaVuSans-32" x="385.986328"/>
      </g>
     </g>
    </g>
    <g id="xtick_4">
     <g id="line2d_4">
      <g>
       <use xlink:href="#mccb99f1e1d" x="391.266818" y="359.517187" style="stroke: #000000; stroke-width: 0.8"/>
      </g>
     </g>
     <g id="text_4">
      <!-- 09-06 15 -->
      <g transform="translate(368.786349 374.115625) scale(0.1 -0.1)">
       <defs>
        <path id="DejaVuSans-35" d="M 691 4666 
L 3169 4666 
L 3169 4134 
L 1269 4134 
L 1269 2991 
Q 1406 3038 1543 3061 
Q 1681 3084 1819 3084 
Q 2600 3084 3056 2656 
Q 3513 2228 3513 1497 
Q 3513 744 3044 326 
Q 2575 -91 1722 -91 
Q 1428 -91 1123 -41 
Q 819 9 494 109 
L 494 744 
Q 775 591 1075 516 
Q 1375 441 1709 441 
Q 2250 441 2565 725 
Q 2881 1009 2881 1497 
Q 2881 1984 2565 2268 
Q 2250 2553 1709 2553 
Q 1456 2553 1204 2497 
Q 953 2441 691 2322 
L 691 4666 
z
" transform="scale(0.015625)"/>
       </defs>
       <use xlink:href="#DejaVuSans-30"/>
       <use xlink:href="#DejaVuSans-39" x="63.623047"/>
       <use xlink:href="#DejaVuSans-2d" x="127.246094"/>
       <use xlink:href="#DejaVuSans-30" x="163.330078"/>
       <use xlink:href="#DejaVuSans-36" x="226.953125"/>
       <use xlink:href="#DejaVuSans-20" x="290.576172"/>
       <use xlink:href="#DejaVuSans-31" x="322.363281"/>
       <use xlink:href="#DejaVuSans-35" x="385.986328"/>
      </g>
     </g>
    </g>
    <g id="xtick_5">
     <g id="line2d_5">
      <g>
       <use xlink:href="#mccb99f1e1d" x="501.293016" y="359.517187" style="stroke: #000000; stroke-width: 0.8"/>
      </g>
     </g>
     <g id="text_5">
      <!-- 09-06 18 -->
      <g transform="translate(478.812547 374.115625) scale(0.1 -0.1)">
       <defs>
        <path id="DejaVuSans-38" d="M 2034 2216 
Q 1584 2216 1326 1975 
Q 1069 1734 1069 1313 
Q 1069 891 1326 650 
Q 1584 409 2034 409 
Q 2484 409 2743 651 
Q 3003 894 3003 1313 
Q 3003 1734 2745 1975 
Q 2488 2216 2034 2216 
z
M 1403 2484 
Q 997 2584 770 2862 
Q 544 3141 544 3541 
Q 544 4100 942 4425 
Q 1341 4750 2034 4750 
Q 2731 4750 3128 4425 
Q 3525 4100 3525 3541 
Q 3525 3141 3298 2862 
Q 3072 2584 2669 2484 
Q 3125 2378 3379 2068 
Q 3634 1759 3634 1313 
Q 3634 634 3220 271 
Q 2806 -91 2034 -91 
Q 1263 -91 848 271 
Q 434 634 434 1313 
Q 434 1759 690 2068 
Q 947 2378 1403 2484 
z
M 1172 3481 
Q 1172 3119 1398 2916 
Q 1625 2713 2034 2713 
Q 2441 2713 2670 2916 
Q 2900 3119 2900 3481 
Q 2900 3844 2670 4047 
Q 2441 4250 2034 4250 
Q 1625 4250 1398 4047 
Q 1172 3844 1172 3481 
z
" transform="scale(0.015625)"/>
       </defs>
       <use xlink:href="#DejaVuSans-30"/>
       <use xlink:href="#DejaVuSans-39" x="63.623047"/>
       <use xlink:href="#DejaVuSans-2d" x="127.246094"/>
       <use xlink:href="#DejaVuSans-30" x="163.330078"/>
       <use xlink:href="#DejaVuSans-36" x="226.953125"/>
       <use xlink:href="#DejaVuSans-20" x="290.576172"/>
       <use xlink:href="#DejaVuSans-31" x="322.363281"/>
       <use xlink:href="#DejaVuSans-38" x="385.986328"/>
      </g>
     </g>
    </g>
    <g id="xtick_6">
     <g id="line2d_6">
      <g>
       <use xlink:href="#mccb99f1e1d" x="611.319213" y="359.517187" style="stroke: #000000; stroke-width: 0.8"/>
      </g>
     </g>
     <g id="text_6">
      <!-- 09-06 21 -->
      <g transform="translate(588.838744 374.115625) scale(0.1 -0.1)">
       <use xlink:href="#DejaVuSans-30"/>
       <use xlink:href="#DejaVuSans-39" x="63.623047"/>
       <use xlink:href="#DejaVuSans-2d" x="127.246094"/>
       <use xlink:href="#DejaVuSans-30" x="163.330078"/>
       <use xlink:href="#DejaVuSans-36" x="226.953125"/>
       <use xlink:href="#DejaVuSans-20" x="290.576172"/>
       <use xlink:href="#DejaVuSans-32" x="322.363281"/>
       <use xlink:href="#DejaVuSans-31" x="385.986328"/>
      </g>
     </g>
    </g>
    <g id="xtick_7">
     <g id="line2d_7">
      <g>
       <use xlink:href="#mccb99f1e1d" x="721.345411" y="359.517187" style="stroke: #000000; stroke-width: 0.8"/>
      </g>
     </g>
     <g id="text_7">
      <!-- 09-07 00 -->
      <g transform="translate(698.864942 374.115625) scale(0.1 -0.1)">
       <defs>
        <path id="DejaVuSans-37" d="M 525 4666 
L 3525 4666 
L 3525 4397 
L 1831 0 
L 1172 0 
L 2766 4134 
L 525 4134 
L 525 4666 
z
" transform="scale(0.015625)"/>
       </defs>
       <use xlink:href="#DejaVuSans-30"/>
       <use xlink:href="#DejaVuSans-39" x="63.623047"/>
       <use xlink:href="#DejaVuSans-2d" x="127.246094"/>
       <use xlink:href="#DejaVuSans-30" x="163.330078"/>
       <use xlink:href="#DejaVuSans-37" x="226.953125"/>
       <use xlink:href="#DejaVuSans-20" x="290.576172"/>
       <use xlink:href="#DejaVuSans-30" x="322.363281"/>
       <use xlink:href="#DejaVuSans-30" x="385.986328"/>
      </g>
     </g>
    </g>
    <g id="xtick_8">
     <g id="line2d_8">
      <g>
       <use xlink:href="#mccb99f1e1d" x="831.371608" y="359.517187" style="stroke: #000000; stroke-width: 0.8"/>
      </g>
     </g>
     <g id="text_8">
      <!-- 09-07 03 -->
      <g transform="translate(808.891139 374.115625) scale(0.1 -0.1)">
       <defs>
        <path id="DejaVuSans-33" d="M 2597 2516 
Q 3050 2419 3304 2112 
Q 3559 1806 3559 1356 
Q 3559 666 3084 287 
Q 2609 -91 1734 -91 
Q 1441 -91 1130 -33 
Q 819 25 488 141 
L 488 750 
Q 750 597 1062 519 
Q 1375 441 1716 441 
Q 2309 441 2620 675 
Q 2931 909 2931 1356 
Q 2931 1769 2642 2001 
Q 2353 2234 1838 2234 
L 1294 2234 
L 1294 2753 
L 1863 2753 
Q 2328 2753 2575 2939 
Q 2822 3125 2822 3475 
Q 2822 3834 2567 4026 
Q 2313 4219 1838 4219 
Q 1578 4219 1281 4162 
Q 984 4106 628 3988 
L 628 4550 
Q 988 4650 1302 4700 
Q 1616 4750 1894 4750 
Q 2613 4750 3031 4423 
Q 3450 4097 3450 3541 
Q 3450 3153 3228 2886 
Q 3006 2619 2597 2516 
z
" transform="scale(0.015625)"/>
       </defs>
       <use xlink:href="#DejaVuSans-30"/>
       <use xlink:href="#DejaVuSans-39" x="63.623047"/>
       <use xlink:href="#DejaVuSans-2d" x="127.246094"/>
       <use xlink:href="#DejaVuSans-30" x="163.330078"/>
       <use xlink:href="#DejaVuSans-37" x="226.953125"/>
       <use xlink:href="#DejaVuSans-20" x="290.576172"/>
       <use xlink:href="#DejaVuSans-30" x="322.363281"/>
       <use xlink:href="#DejaVuSans-33" x="385.986328"/>
      </g>
     </g>
    </g>
    <g id="xtick_9">
     <g id="line2d_9">
      <g>
       <use xlink:href="#mccb99f1e1d" x="941.397806" y="359.517187" style="stroke: #000000; stroke-width: 0.8"/>
      </g>
     </g>
     <g id="text_9">
      <!-- 09-07 06 -->
      <g transform="translate(918.917337 374.115625) scale(0.1 -0.1)">
       <use xlink:href="#DejaVuSans-30"/>
       <use xlink:href="#DejaVuSans-39" x="63.623047"/>
       <use xlink:href="#DejaVuSans-2d" x="127.246094"/>
       <use xlink:href="#DejaVuSans-30" x="163.330078"/>
       <use xlink:href="#DejaVuSans-37" x="226.953125"/>
       <use xlink:href="#DejaVuSans-20" x="290.576172"/>
       <use xlink:href="#DejaVuSans-30" x="322.363281"/>
       <use xlink:href="#DejaVuSans-36" x="385.986328"/>
      </g>
     </g>
    </g>
    <g id="xtick_10">
     <g id="line2d_10">
      <g>
       <use xlink:href="#mccb99f1e1d" x="1051.424003" y="359.517187" style="stroke: #000000; stroke-width: 0.8"/>
      </g>
     </g>
     <g id="text_10">
      <!-- 09-07 09 -->
      <g transform="translate(1028.943534 374.115625) scale(0.1 -0.1)">
       <use xlink:href="#DejaVuSans-30"/>
       <use xlink:href="#DejaVuSans-39" x="63.623047"/>
       <use xlink:href="#DejaVuSans-2d" x="127.246094"/>
       <use xlink:href="#DejaVuSans-30" x="163.330078"/>
       <use xlink:href="#DejaVuSans-37" x="226.953125"/>
       <use xlink:href="#DejaVuSans-20" x="290.576172"/>
       <use xlink:href="#DejaVuSans-30" x="322.363281"/>
       <use xlink:href="#DejaVuSans-39" x="385.986328"/>
      </g>
     </g>
    </g>
    <g id="xtick_11">
     <g id="line2d_11">
      <g>
       <use xlink:href="#mccb99f1e1d" x="1161.450201" y="359.517187" style="stroke: #000000; stroke-width: 0.8"/>
      </g>
     </g>
     <g id="text_11">
      <!-- 09-07 12 -->
      <g transform="translate(1138.969732 374.115625) scale(0.1 -0.1)">
       <use xlink:href="#DejaVuSans-30"/>
       <use xlink:href="#DejaVuSans-39" x="63.623047"/>
       <use xlink:href="#DejaVuSans-2d" x="127.246094"/>
       <use xlink:href="#DejaVuSans-30" x="163.330078"/>
       <use xlink:href="#DejaVuSans-37" x="226.953125"/>
       <use xlink:href="#DejaVuSans-20" x="290.576172"/>
       <use xlink:href="#DejaVuSans-31" x="322.363281"/>
       <use xlink:href="#DejaVuSans-32" x="385.986328"/>
      </g>
     </g>
    </g>
    <g id="text_12">
     <!-- Time -->
     <g transform="translate(592.554688 389.313437) scale(0.12 -0.12)">
      <defs>
       <path id="DejaVuSans-54" d="M -19 4666 
L 3928 4666 
L 3928 4134 
L 2272 4134 
L 2272 0 
L 1638 0 
L 1638 4134 
L -19 4134 
L -19 4666 
z
" transform="scale(0.015625)"/>
       <path id="DejaVuSans-69" d="M 603 3500 
L 1178 3500 
L 1178 0 
L 603 0 
L 603 3500 
z
M 603 4863 
L 1178 4863 
L 1178 4134 
L 603 4134 
L 603 4863 
z
" transform="scale(0.015625)"/>
       <path id="DejaVuSans-6d" d="M 3328 2828 
Q 3544 3216 3844 3400 
Q 4144 3584 4550 3584 
Q 5097 3584 5394 3201 
Q 5691 2819 5691 2113 
L 5691 0 
L 5113 0 
L 5113 2094 
Q 5113 2597 4934 2840 
Q 4756 3084 4391 3084 
Q 3944 3084 3684 2787 
Q 3425 2491 3425 1978 
L 3425 0 
L 2847 0 
L 2847 2094 
Q 2847 2600 2669 2842 
Q 2491 3084 2119 3084 
Q 1678 3084 1418 2786 
Q 1159 2488 1159 1978 
L 1159 0 
L 581 0 
L 581 3500 
L 1159 3500 
L 1159 2956 
Q 1356 3278 1631 3431 
Q 1906 3584 2284 3584 
Q 2666 3584 2933 3390 
Q 3200 3197 3328 2828 
z
" transform="scale(0.015625)"/>
       <path id="DejaVuSans-65" d="M 3597 1894 
L 3597 1613 
L 953 1613 
Q 991 1019 1311 708 
Q 1631 397 2203 397 
Q 2534 397 2845 478 
Q 3156 559 3463 722 
L 3463 178 
Q 3153 47 2828 -22 
Q 2503 -91 2169 -91 
Q 1331 -91 842 396 
Q 353 884 353 1716 
Q 353 2575 817 3079 
Q 1281 3584 2069 3584 
Q 2775 3584 3186 3129 
Q 3597 2675 3597 1894 
z
M 3022 2063 
Q 3016 2534 2758 2815 
Q 2500 3097 2075 3097 
Q 1594 3097 1305 2825 
Q 1016 2553 972 2059 
L 3022 2063 
z
" transform="scale(0.015625)"/>
      </defs>
      <use xlink:href="#DejaVuSans-54"/>
      <use xlink:href="#DejaVuSans-69" x="57.958984"/>
      <use xlink:href="#DejaVuSans-6d" x="85.742188"/>
      <use xlink:href="#DejaVuSans-65" x="183.154297"/>
     </g>
    </g>
   </g>
   <g id="matplotlib.axis_2">
    <g id="ytick_1">
     <g id="line2d_12">
      <defs>
       <path id="m74c8c2e084" d="M 0 0 
L -3.5 0 
" style="stroke: #000000; stroke-width: 0.8"/>
      </defs>
      <g>
       <use xlink:href="#m74c8c2e084" x="49.235" y="344.397187" style="stroke: #000000; stroke-width: 0.8"/>
      </g>
     </g>
     <g id="text_13">
      <!-- 0 -->
      <g transform="translate(35.8725 348.196406) scale(0.1 -0.1)">
       <use xlink:href="#DejaVuSans-30"/>
      </g>
     </g>
    </g>
    <g id="ytick_2">
     <g id="line2d_13">
      <g>
       <use xlink:href="#m74c8c2e084" x="49.235" y="279.504484" style="stroke: #000000; stroke-width: 0.8"/>
      </g>
     </g>
     <g id="text_14">
      <!-- 50 -->
      <g transform="translate(29.51 283.303702) scale(0.1 -0.1)">
       <use xlink:href="#DejaVuSans-35"/>
       <use xlink:href="#DejaVuSans-30" x="63.623047"/>
      </g>
     </g>
    </g>
    <g id="ytick_3">
     <g id="line2d_14">
      <g>
       <use xlink:href="#m74c8c2e084" x="49.235" y="214.61178" style="stroke: #000000; stroke-width: 0.8"/>
      </g>
     </g>
     <g id="text_15">
      <!-- 100 -->
      <g transform="translate(23.1475 218.410999) scale(0.1 -0.1)">
       <use xlink:href="#DejaVuSans-31"/>
       <use xlink:href="#DejaVuSans-30" x="63.623047"/>
       <use xlink:href="#DejaVuSans-30" x="127.246094"/>
      </g>
     </g>
    </g>
    <g id="ytick_4">
     <g id="line2d_15">
      <g>
       <use xlink:href="#m74c8c2e084" x="49.235" y="149.719076" style="stroke: #000000; stroke-width: 0.8"/>
      </g>
     </g>
     <g id="text_16">
      <!-- 150 -->
      <g transform="translate(23.1475 153.518295) scale(0.1 -0.1)">
       <use xlink:href="#DejaVuSans-31"/>
       <use xlink:href="#DejaVuSans-35" x="63.623047"/>
       <use xlink:href="#DejaVuSans-30" x="127.246094"/>
      </g>
     </g>
    </g>
    <g id="ytick_5">
     <g id="line2d_16">
      <g>
       <use xlink:href="#m74c8c2e084" x="49.235" y="84.826372" style="stroke: #000000; stroke-width: 0.8"/>
      </g>
     </g>
     <g id="text_17">
      <!-- 200 -->
      <g transform="translate(23.1475 88.625591) scale(0.1 -0.1)">
       <use xlink:href="#DejaVuSans-32"/>
       <use xlink:href="#DejaVuSans-30" x="63.623047"/>
       <use xlink:href="#DejaVuSans-30" x="127.246094"/>
      </g>
     </g>
    </g>
    <g id="text_18">
     <!-- Pellet_Count -->
     <g transform="translate(16.318125 230.485312) rotate(-90) scale(0.12 -0.12)">
      <defs>
       <path id="DejaVuSans-50" d="M 1259 4147 
L 1259 2394 
L 2053 2394 
Q 2494 2394 2734 2622 
Q 2975 2850 2975 3272 
Q 2975 3691 2734 3919 
Q 2494 4147 2053 4147 
L 1259 4147 
z
M 628 4666 
L 2053 4666 
Q 2838 4666 3239 4311 
Q 3641 3956 3641 3272 
Q 3641 2581 3239 2228 
Q 2838 1875 2053 1875 
L 1259 1875 
L 1259 0 
L 628 0 
L 628 4666 
z
" transform="scale(0.015625)"/>
       <path id="DejaVuSans-6c" d="M 603 4863 
L 1178 4863 
L 1178 0 
L 603 0 
L 603 4863 
z
" transform="scale(0.015625)"/>
       <path id="DejaVuSans-74" d="M 1172 4494 
L 1172 3500 
L 2356 3500 
L 2356 3053 
L 1172 3053 
L 1172 1153 
Q 1172 725 1289 603 
Q 1406 481 1766 481 
L 2356 481 
L 2356 0 
L 1766 0 
Q 1100 0 847 248 
Q 594 497 594 1153 
L 594 3053 
L 172 3053 
L 172 3500 
L 594 3500 
L 594 4494 
L 1172 4494 
z
" transform="scale(0.015625)"/>
       <path id="DejaVuSans-5f" d="M 3263 -1063 
L 3263 -1509 
L -63 -1509 
L -63 -1063 
L 3263 -1063 
z
" transform="scale(0.015625)"/>
       <path id="DejaVuSans-43" d="M 4122 4306 
L 4122 3641 
Q 3803 3938 3442 4084 
Q 3081 4231 2675 4231 
Q 1875 4231 1450 3742 
Q 1025 3253 1025 2328 
Q 1025 1406 1450 917 
Q 1875 428 2675 428 
Q 3081 428 3442 575 
Q 3803 722 4122 1019 
L 4122 359 
Q 3791 134 3420 21 
Q 3050 -91 2638 -91 
Q 1578 -91 968 557 
Q 359 1206 359 2328 
Q 359 3453 968 4101 
Q 1578 4750 2638 4750 
Q 3056 4750 3426 4639 
Q 3797 4528 4122 4306 
z
" transform="scale(0.015625)"/>
       <path id="DejaVuSans-6f" d="M 1959 3097 
Q 1497 3097 1228 2736 
Q 959 2375 959 1747 
Q 959 1119 1226 758 
Q 1494 397 1959 397 
Q 2419 397 2687 759 
Q 2956 1122 2956 1747 
Q 2956 2369 2687 2733 
Q 2419 3097 1959 3097 
z
M 1959 3584 
Q 2709 3584 3137 3096 
Q 3566 2609 3566 1747 
Q 3566 888 3137 398 
Q 2709 -91 1959 -91 
Q 1206 -91 779 398 
Q 353 888 353 1747 
Q 353 2609 779 3096 
Q 1206 3584 1959 3584 
z
" transform="scale(0.015625)"/>
       <path id="DejaVuSans-75" d="M 544 1381 
L 544 3500 
L 1119 3500 
L 1119 1403 
Q 1119 906 1312 657 
Q 1506 409 1894 409 
Q 2359 409 2629 706 
Q 2900 1003 2900 1516 
L 2900 3500 
L 3475 3500 
L 3475 0 
L 2900 0 
L 2900 538 
Q 2691 219 2414 64 
Q 2138 -91 1772 -91 
Q 1169 -91 856 284 
Q 544 659 544 1381 
z
M 1991 3584 
L 1991 3584 
z
" transform="scale(0.015625)"/>
       <path id="DejaVuSans-6e" d="M 3513 2113 
L 3513 0 
L 2938 0 
L 2938 2094 
Q 2938 2591 2744 2837 
Q 2550 3084 2163 3084 
Q 1697 3084 1428 2787 
Q 1159 2491 1159 1978 
L 1159 0 
L 581 0 
L 581 3500 
L 1159 3500 
L 1159 2956 
Q 1366 3272 1645 3428 
Q 1925 3584 2291 3584 
Q 2894 3584 3203 3211 
Q 3513 2838 3513 2113 
z
" transform="scale(0.015625)"/>
      </defs>
      <use xlink:href="#DejaVuSans-50"/>
      <use xlink:href="#DejaVuSans-65" x="56.677734"/>
      <use xlink:href="#DejaVuSans-6c" x="118.201172"/>
      <use xlink:href="#DejaVuSans-6c" x="145.984375"/>
      <use xlink:href="#DejaVuSans-65" x="173.767578"/>
      <use xlink:href="#DejaVuSans-74" x="235.291016"/>
      <use xlink:href="#DejaVuSans-5f" x="274.5"/>
      <use xlink:href="#DejaVuSans-43" x="324.5"/>
      <use xlink:href="#DejaVuSans-6f" x="394.324219"/>
      <use xlink:href="#DejaVuSans-75" x="455.505859"/>
      <use xlink:href="#DejaVuSans-6e" x="518.884766"/>
      <use xlink:href="#DejaVuSans-74" x="582.263672"/>
     </g>
    </g>
   </g>
   <g id="line2d_17">
    <path d="M 99.962273 344.397187 
L 114.245303 344.397187 
L 115.671569 343.099333 
L 121.784135 343.099333 
L 126.714939 341.801479 
L 130.127789 341.801479 
L 131.849495 340.503625 
L 135.404971 340.503625 
L 137.289679 339.205771 
L 146.448341 339.205771 
L 146.519654 337.907917 
L 153.151789 337.907917 
L 153.151789 337.907917 
L 153.426855 336.610063 
L 161.821446 336.610063 
L 161.994635 335.312209 
L 163.706154 335.312209 
L 164.032158 334.014355 
L 173.272321 334.014355 
L 173.465885 332.716501 
L 186.098523 332.716501 
L 186.271712 331.418647 
L 188.003606 331.418647 
L 188.064732 330.120793 
L 204.354721 330.120793 
L 204.843727 328.822939 
L 214.277454 328.822939 
L 214.389518 327.525084 
L 223.914934 327.525084 
L 224.026998 326.22723 
L 230.475756 326.22723 
L 230.567444 324.929376 
L 234.968492 324.929376 
L 235.070368 323.631522 
L 242.181321 323.631522 
L 242.334135 322.333668 
L 242.833328 322.333668 
L 242.986142 321.035814 
L 244.422595 321.035814 
L 244.514283 319.73796 
L 245.308917 319.73796 
L 245.451544 318.440106 
L 251.085293 318.440106 
L 251.176981 317.142252 
L 253.82576 317.142252 
L 253.886886 315.844398 
L 258.440748 315.844398 
L 258.654687 314.546544 
L 259.989264 314.546544 
L 260.040202 313.24869 
L 260.498645 313.24869 
L 260.580146 311.950836 
L 262.31204 311.950836 
L 262.332415 310.652981 
L 263.188174 310.652981 
L 263.2493 309.355127 
L 263.524365 309.355127 
L 263.575303 308.057273 
L 264.44125 308.057273 
L 264.502376 306.759419 
L 265.032132 306.759419 
L 265.429449 304.163711 
L 265.847141 304.163711 
L 265.898079 302.865857 
L 266.132394 302.865857 
L 266.162957 301.568003 
L 266.366709 301.568003 
L 266.519523 300.270149 
L 277.91946 300.270149 
L 277.980585 298.972295 
L 278.367714 298.972295 
L 278.439028 297.674441 
L 279.284599 297.674441 
L 279.335537 296.376587 
L 280.456175 296.376587 
L 280.527488 295.078733 
L 280.843304 295.078733 
L 280.884054 293.780878 
L 281.495311 293.780878 
L 281.536061 292.483024 
L 282.452946 292.483024 
L 282.503884 291.18517 
L 282.728012 291.18517 
L 282.799325 289.887316 
L 285.376791 289.887316 
L 285.397166 288.589462 
L 285.733357 288.589462 
L 285.794483 287.291608 
L 286.038985 287.291608 
L 286.100111 285.993754 
L 286.385364 285.993754 
L 286.477053 284.6959 
L 288.056132 284.6959 
L 288.086695 283.398046 
L 291.917237 283.398046 
L 291.98855 282.100192 
L 292.314554 282.100192 
L 292.345117 280.802338 
L 298.416933 280.802338 
L 298.416933 280.802338 
L 298.457683 279.504484 
L 300.831396 279.504484 
L 300.861959 278.20663 
L 301.1574 278.20663 
L 301.187963 276.908775 
L 302.186349 276.908775 
L 302.216912 275.610921 
L 302.481789 275.610921 
L 302.502165 274.313067 
L 302.685542 274.313067 
L 302.705917 273.015213 
L 306.271581 273.015213 
L 306.291956 271.717359 
L 313.851163 271.717359 
L 313.953039 270.419505 
L 314.605046 270.419505 
L 314.645797 269.121651 
L 315.460806 269.121651 
L 315.511744 267.823797 
L 315.796997 267.823797 
L 315.82756 266.525943 
L 316.072062 266.525943 
L 316.123 265.228089 
L 321.033429 265.228089 
L 321.063992 263.930235 
L 321.32887 263.930235 
L 321.339057 262.632381 
L 322.062378 262.632381 
L 322.072565 261.334527 
L 323.376579 261.334527 
L 323.386767 260.036672 
L 323.651645 260.036672 
L 323.661832 258.738818 
L 323.957273 258.738818 
L 323.998024 257.440964 
L 324.262901 257.440964 
L 324.303652 256.14311 
L 331.455355 256.14311 
L 331.506293 254.845256 
L 334.185634 254.845256 
L 334.664452 253.547402 
L 343.711051 253.547402 
L 343.731426 252.249548 
L 343.986116 252.249548 
L 343.996304 250.951694 
L 344.250994 250.951694 
L 344.291744 249.65384 
L 344.505684 249.65384 
L 344.536247 248.355986 
L 344.770562 248.355986 
L 344.790937 247.058132 
L 345.025252 247.058132 
L 345.106753 245.760278 
L 354.357104 245.760278 
L 354.408042 244.462424 
L 357.535639 244.462424 
L 357.545826 243.164569 
L 357.831079 243.164569 
L 357.87183 241.866715 
L 360.500233 241.866715 
L 360.591922 240.568861 
L 365.003157 240.568861 
L 365.023533 239.271007 
L 368.456757 239.271007 
L 368.507696 237.973153 
L 368.894825 237.973153 
L 369.190265 236.675299 
L 372.704991 236.675299 
L 372.715179 235.377445 
L 384.644871 235.377445 
L 384.655059 234.079591 
L 385.164439 234.079591 
L 385.184815 232.781737 
L 385.449692 232.781737 
L 385.470068 231.483883 
L 387.619654 231.483883 
L 387.640029 230.186029 
L 387.97622 230.186029 
L 388.006783 228.888175 
L 388.200347 228.888175 
L 388.220723 227.590321 
L 388.505976 227.590321 
L 388.526351 226.292466 
L 388.801416 226.292466 
L 388.831979 224.994612 
L 396.635689 224.994612 
L 396.645877 223.696758 
L 396.951505 223.696758 
L 396.982068 222.398904 
L 397.664638 222.398904 
L 397.674825 221.10105 
L 397.878578 221.10105 
L 397.878578 221.10105 
L 397.929516 219.803196 
L 407.668872 219.803196 
L 407.679059 218.505342 
L 408.555194 218.505342 
L 408.575569 217.207488 
L 410.124086 217.207488 
L 410.144461 215.909634 
L 414.107442 215.909634 
L 414.138005 214.61178 
L 414.464008 214.61178 
L 414.494571 213.313926 
L 414.851137 213.313926 
L 414.871513 212.016072 
L 415.085452 212.016072 
L 415.116015 210.718218 
L 415.329955 210.718218 
L 415.431831 209.420363 
L 422.186217 209.420363 
L 422.226968 208.122509 
L 422.451095 208.122509 
L 422.47147 206.824655 
L 423.052164 206.824655 
L 423.052164 206.824655 
L 423.092915 205.526801 
L 427.483775 205.526801 
L 427.514338 204.228947 
L 427.769028 204.228947 
L 427.779216 202.931093 
L 427.97278 202.931093 
L 427.97278 202.931093 
L 428.023718 201.633239 
L 436.958253 201.633239 
L 436.978628 200.335385 
L 437.18238 200.335385 
L 437.223131 199.037531 
L 437.447258 199.037531 
L 437.518572 197.739677 
L 437.752887 197.739677 
L 437.763074 196.441823 
L 439.291216 196.441823 
L 439.311591 195.143969 
L 445.729786 195.143969 
L 445.750161 193.846115 
L 450.242898 193.846115 
L 450.253085 192.54826 
L 450.599464 192.54826 
L 450.721715 191.250406 
L 450.945843 191.250406 
L 450.996781 189.952552 
L 451.292222 189.952552 
L 451.332972 188.654698 
L 461.072328 188.654698 
L 461.102891 187.356844 
L 466.074445 187.356844 
L 466.105008 186.05899 
L 466.604201 186.05899 
L 466.624576 184.761136 
L 466.81814 184.761136 
L 466.838516 183.463282 
L 467.093206 183.463282 
L 467.113581 182.165428 
L 467.327521 182.165428 
L 467.347896 180.867574 
L 478.442205 180.867574 
L 478.574643 179.56972 
L 478.808958 179.56972 
L 478.819146 178.271866 
L 479.267401 178.271866 
L 479.277589 176.974012 
L 479.491528 176.974012 
L 479.542466 175.676157 
L 483.383196 175.676157 
L 483.413759 174.378303 
L 492.796548 174.378303 
L 492.816923 173.080449 
L 494.722007 173.080449 
L 494.742382 171.782595 
L 494.966509 171.782595 
L 495.04801 170.484741 
L 503.972357 170.484741 
L 503.992733 169.186887 
L 504.165922 169.186887 
L 504.186297 167.889033 
L 504.481738 167.889033 
L 504.512301 166.591179 
L 504.756803 166.591179 
L 504.766991 165.293325 
L 504.970743 165.293325 
L 504.991118 163.995471 
L 505.225434 163.995471 
L 505.235621 162.697617 
L 512.346574 162.697617 
L 512.366949 161.399763 
L 521.01623 161.399763 
L 521.056981 160.101909 
L 521.321859 160.101909 
L 521.342234 158.804054 
L 521.617299 158.804054 
L 521.637675 157.5062 
L 528.942192 157.5062 
L 528.942192 157.5062 
L 528.99313 156.208346 
L 529.20707 156.208346 
L 529.217257 154.910492 
L 529.400634 154.910492 
L 529.421009 153.612638 
L 529.6757 153.612638 
L 529.685887 152.314784 
L 529.910015 152.314784 
L 529.93039 151.01693 
L 544.264358 151.01693 
L 544.284734 149.719076 
L 614.456997 149.719076 
L 614.477373 148.421222 
L 614.711688 148.421222 
L 614.732063 147.123368 
L 615.058066 147.123368 
L 615.068254 145.825514 
L 615.312757 145.825514 
L 615.322944 144.52766 
L 615.536884 144.52766 
L 615.547072 143.229806 
L 615.791574 143.229806 
L 615.822137 141.931951 
L 616.005514 141.931951 
L 616.025889 140.634097 
L 616.260204 140.634097 
L 616.270392 139.336243 
L 616.53527 139.336243 
L 616.545458 138.038389 
L 617.961535 138.038389 
L 617.981911 136.740535 
L 618.195851 136.740535 
L 618.216226 135.442681 
L 618.419978 135.442681 
L 618.440353 134.144827 
L 618.62373 134.144827 
L 618.868233 132.846973 
L 694.765934 132.846973 
L 695.000249 131.549119 
L 695.285502 131.549119 
L 695.305877 130.251265 
L 695.519817 130.251265 
L 695.540192 128.953411 
L 757.33824 128.953411 
L 757.348428 127.655557 
L 757.582743 127.655557 
L 757.59293 126.357703 
L 757.84762 126.357703 
L 757.857808 125.059848 
L 758.153249 125.059848 
L 758.183812 123.761994 
L 758.407939 123.761994 
L 758.418127 122.46414 
L 758.662629 122.46414 
L 758.672817 121.166286 
L 758.927507 121.166286 
L 758.947882 119.868432 
L 759.17201 119.868432 
L 759.192385 118.570578 
L 817.25158 118.570578 
L 817.282142 117.272724 
L 817.659084 117.272724 
L 817.669272 115.97487 
L 817.903587 115.97487 
L 817.944337 114.677016 
L 818.199027 114.677016 
L 818.209215 113.379162 
L 818.44353 113.379162 
L 818.596344 112.081308 
L 819.421541 112.081308 
L 819.441916 110.783454 
L 819.951296 110.783454 
L 819.971672 109.4856 
L 820.205987 109.4856 
L 820.256925 108.187745 
L 865.98911 108.187745 
L 865.999298 106.889891 
L 866.192862 106.889891 
L 866.213237 105.592037 
L 866.437365 105.592037 
L 866.45774 104.294183 
L 866.661492 104.294183 
L 866.681868 102.996329 
L 866.916183 102.996329 
L 866.92637 101.698475 
L 867.130122 101.698475 
L 867.150498 100.400621 
L 867.425563 100.400621 
L 867.435751 99.102767 
L 909.836587 99.102767 
L 909.846775 97.804913 
L 910.162591 97.804913 
L 910.437656 96.507059 
L 910.641408 96.507059 
L 910.651596 95.209205 
L 910.947037 95.209205 
L 910.967412 93.911351 
L 911.191539 93.911351 
L 911.201727 92.613497 
L 911.507355 92.613497 
L 911.548106 91.315642 
L 911.782421 91.315642 
L 911.792608 90.017788 
L 912.047299 90.017788 
L 912.067674 88.719934 
L 969.169233 88.719934 
L 969.189608 87.42208 
L 969.464674 87.42208 
L 969.485049 86.124226 
L 969.770302 86.124226 
L 969.78049 84.826372 
L 970.004617 84.826372 
L 970.024992 83.528518 
L 970.24912 83.528518 
L 970.269495 82.230664 
L 972.256079 82.230664 
L 972.276454 80.93281 
L 972.470019 80.93281 
L 972.531145 79.634956 
L 988.525694 79.634956 
L 988.597007 78.337102 
L 989.381453 78.337102 
L 989.412016 77.039248 
L 989.748207 77.039248 
L 989.768582 75.741394 
L 1012.721269 75.741394 
L 1012.741645 74.443539 
L 1013.077836 74.443539 
L 1013.159337 73.145685 
L 1013.403839 73.145685 
L 1013.414027 71.847831 
L 1013.617779 71.847831 
L 1013.627967 70.549977 
L 1013.943783 70.549977 
L 1013.984533 69.252123 
L 1014.198473 69.252123 
L 1014.279974 67.954269 
L 1021.227925 67.954269 
L 1021.564116 66.656415 
L 1026.240229 66.656415 
L 1029.714204 65.358561 
L 1029.765142 64.060707 
L 1033.48362 64.060707 
L 1033.544746 62.762853 
L 1033.840187 62.762853 
L 1033.87075 61.464999 
L 1046.238509 61.464999 
L 1046.248697 60.167145 
L 1046.462637 60.167145 
L 1046.4932 58.869291 
L 1056.976251 58.869291 
L 1057.006814 57.571436 
L 1057.373568 57.571436 
L 1057.383756 56.273582 
L 1057.587508 56.273582 
L 1057.648633 54.975728 
L 1057.964449 54.975728 
L 1058.015387 53.677874 
L 1076.81153 53.677874 
L 1076.831905 52.38002 
L 1077.687664 52.38002 
L 1077.708039 51.082166 
L 1077.881229 51.082166 
L 1077.901604 49.784312 
L 1086.031317 49.784312 
L 1086.041505 48.486458 
L 1086.27582 48.486458 
L 1086.31657 47.188604 
L 1095.964238 47.188604 
L 1095.994801 45.89075 
L 1096.178178 45.89075 
L 1096.208741 44.592896 
L 1096.718121 44.592896 
L 1096.758872 43.295042 
L 1096.972811 43.295042 
L 1096.993187 41.997187 
L 1097.96101 41.997187 
L 1097.96101 41.997187 
" clip-path="url(#p212884939d)" style="fill: none; stroke: #0000ff; stroke-width: 1.5; stroke-linecap: square"/>
   </g>
   <g id="patch_59">
    <path d="M 49.235 359.517187 
L 49.235 26.877187 
" style="fill: none; stroke: #000000; stroke-width: 0.8; stroke-linejoin: miter; stroke-linecap: square"/>
   </g>
   <g id="patch_60">
    <path d="M 1165.235 359.517187 
L 1165.235 26.877187 
" style="fill: none; stroke: #000000; stroke-width: 0.8; stroke-linejoin: miter; stroke-linecap: square"/>
   </g>
   <g id="patch_61">
    <path d="M 49.235 359.517187 
L 1165.235 359.517187 
" style="fill: none; stroke: #000000; stroke-width: 0.8; stroke-linejoin: miter; stroke-linecap: square"/>
   </g>
   <g id="patch_62">
    <path d="M 49.235 26.877187 
L 1165.235 26.877187 
" style="fill: none; stroke: #000000; stroke-width: 0.8; stroke-linejoin: miter; stroke-linecap: square"/>
   </g>
   <g id="text_19">
    <!-- Pellet Count and Cumulative Sum Over Time of Group 11 Mouse 1 -->
    <g transform="translate(309.734375 20.877187) scale(0.18 -0.18)">
     <defs>
      <path id="DejaVuSans-61" d="M 2194 1759 
Q 1497 1759 1228 1600 
Q 959 1441 959 1056 
Q 959 750 1161 570 
Q 1363 391 1709 391 
Q 2188 391 2477 730 
Q 2766 1069 2766 1631 
L 2766 1759 
L 2194 1759 
z
M 3341 1997 
L 3341 0 
L 2766 0 
L 2766 531 
Q 2569 213 2275 61 
Q 1981 -91 1556 -91 
Q 1019 -91 701 211 
Q 384 513 384 1019 
Q 384 1609 779 1909 
Q 1175 2209 1959 2209 
L 2766 2209 
L 2766 2266 
Q 2766 2663 2505 2880 
Q 2244 3097 1772 3097 
Q 1472 3097 1187 3025 
Q 903 2953 641 2809 
L 641 3341 
Q 956 3463 1253 3523 
Q 1550 3584 1831 3584 
Q 2591 3584 2966 3190 
Q 3341 2797 3341 1997 
z
" transform="scale(0.015625)"/>
      <path id="DejaVuSans-64" d="M 2906 2969 
L 2906 4863 
L 3481 4863 
L 3481 0 
L 2906 0 
L 2906 525 
Q 2725 213 2448 61 
Q 2172 -91 1784 -91 
Q 1150 -91 751 415 
Q 353 922 353 1747 
Q 353 2572 751 3078 
Q 1150 3584 1784 3584 
Q 2172 3584 2448 3432 
Q 2725 3281 2906 2969 
z
M 947 1747 
Q 947 1113 1208 752 
Q 1469 391 1925 391 
Q 2381 391 2643 752 
Q 2906 1113 2906 1747 
Q 2906 2381 2643 2742 
Q 2381 3103 1925 3103 
Q 1469 3103 1208 2742 
Q 947 2381 947 1747 
z
" transform="scale(0.015625)"/>
      <path id="DejaVuSans-76" d="M 191 3500 
L 800 3500 
L 1894 563 
L 2988 3500 
L 3597 3500 
L 2284 0 
L 1503 0 
L 191 3500 
z
" transform="scale(0.015625)"/>
      <path id="DejaVuSans-53" d="M 3425 4513 
L 3425 3897 
Q 3066 4069 2747 4153 
Q 2428 4238 2131 4238 
Q 1616 4238 1336 4038 
Q 1056 3838 1056 3469 
Q 1056 3159 1242 3001 
Q 1428 2844 1947 2747 
L 2328 2669 
Q 3034 2534 3370 2195 
Q 3706 1856 3706 1288 
Q 3706 609 3251 259 
Q 2797 -91 1919 -91 
Q 1588 -91 1214 -16 
Q 841 59 441 206 
L 441 856 
Q 825 641 1194 531 
Q 1563 422 1919 422 
Q 2459 422 2753 634 
Q 3047 847 3047 1241 
Q 3047 1584 2836 1778 
Q 2625 1972 2144 2069 
L 1759 2144 
Q 1053 2284 737 2584 
Q 422 2884 422 3419 
Q 422 4038 858 4394 
Q 1294 4750 2059 4750 
Q 2388 4750 2728 4690 
Q 3069 4631 3425 4513 
z
" transform="scale(0.015625)"/>
      <path id="DejaVuSans-4f" d="M 2522 4238 
Q 1834 4238 1429 3725 
Q 1025 3213 1025 2328 
Q 1025 1447 1429 934 
Q 1834 422 2522 422 
Q 3209 422 3611 934 
Q 4013 1447 4013 2328 
Q 4013 3213 3611 3725 
Q 3209 4238 2522 4238 
z
M 2522 4750 
Q 3503 4750 4090 4092 
Q 4678 3434 4678 2328 
Q 4678 1225 4090 567 
Q 3503 -91 2522 -91 
Q 1538 -91 948 565 
Q 359 1222 359 2328 
Q 359 3434 948 4092 
Q 1538 4750 2522 4750 
z
" transform="scale(0.015625)"/>
      <path id="DejaVuSans-72" d="M 2631 2963 
Q 2534 3019 2420 3045 
Q 2306 3072 2169 3072 
Q 1681 3072 1420 2755 
Q 1159 2438 1159 1844 
L 1159 0 
L 581 0 
L 581 3500 
L 1159 3500 
L 1159 2956 
Q 1341 3275 1631 3429 
Q 1922 3584 2338 3584 
Q 2397 3584 2469 3576 
Q 2541 3569 2628 3553 
L 2631 2963 
z
" transform="scale(0.015625)"/>
      <path id="DejaVuSans-66" d="M 2375 4863 
L 2375 4384 
L 1825 4384 
Q 1516 4384 1395 4259 
Q 1275 4134 1275 3809 
L 1275 3500 
L 2222 3500 
L 2222 3053 
L 1275 3053 
L 1275 0 
L 697 0 
L 697 3053 
L 147 3053 
L 147 3500 
L 697 3500 
L 697 3744 
Q 697 4328 969 4595 
Q 1241 4863 1831 4863 
L 2375 4863 
z
" transform="scale(0.015625)"/>
      <path id="DejaVuSans-47" d="M 3809 666 
L 3809 1919 
L 2778 1919 
L 2778 2438 
L 4434 2438 
L 4434 434 
Q 4069 175 3628 42 
Q 3188 -91 2688 -91 
Q 1594 -91 976 548 
Q 359 1188 359 2328 
Q 359 3472 976 4111 
Q 1594 4750 2688 4750 
Q 3144 4750 3555 4637 
Q 3966 4525 4313 4306 
L 4313 3634 
Q 3963 3931 3569 4081 
Q 3175 4231 2741 4231 
Q 1884 4231 1454 3753 
Q 1025 3275 1025 2328 
Q 1025 1384 1454 906 
Q 1884 428 2741 428 
Q 3075 428 3337 486 
Q 3600 544 3809 666 
z
" transform="scale(0.015625)"/>
      <path id="DejaVuSans-70" d="M 1159 525 
L 1159 -1331 
L 581 -1331 
L 581 3500 
L 1159 3500 
L 1159 2969 
Q 1341 3281 1617 3432 
Q 1894 3584 2278 3584 
Q 2916 3584 3314 3078 
Q 3713 2572 3713 1747 
Q 3713 922 3314 415 
Q 2916 -91 2278 -91 
Q 1894 -91 1617 61 
Q 1341 213 1159 525 
z
M 3116 1747 
Q 3116 2381 2855 2742 
Q 2594 3103 2138 3103 
Q 1681 3103 1420 2742 
Q 1159 2381 1159 1747 
Q 1159 1113 1420 752 
Q 1681 391 2138 391 
Q 2594 391 2855 752 
Q 3116 1113 3116 1747 
z
" transform="scale(0.015625)"/>
      <path id="DejaVuSans-4d" d="M 628 4666 
L 1569 4666 
L 2759 1491 
L 3956 4666 
L 4897 4666 
L 4897 0 
L 4281 0 
L 4281 4097 
L 3078 897 
L 2444 897 
L 1241 4097 
L 1241 0 
L 628 0 
L 628 4666 
z
" transform="scale(0.015625)"/>
      <path id="DejaVuSans-73" d="M 2834 3397 
L 2834 2853 
Q 2591 2978 2328 3040 
Q 2066 3103 1784 3103 
Q 1356 3103 1142 2972 
Q 928 2841 928 2578 
Q 928 2378 1081 2264 
Q 1234 2150 1697 2047 
L 1894 2003 
Q 2506 1872 2764 1633 
Q 3022 1394 3022 966 
Q 3022 478 2636 193 
Q 2250 -91 1575 -91 
Q 1294 -91 989 -36 
Q 684 19 347 128 
L 347 722 
Q 666 556 975 473 
Q 1284 391 1588 391 
Q 1994 391 2212 530 
Q 2431 669 2431 922 
Q 2431 1156 2273 1281 
Q 2116 1406 1581 1522 
L 1381 1569 
Q 847 1681 609 1914 
Q 372 2147 372 2553 
Q 372 3047 722 3315 
Q 1072 3584 1716 3584 
Q 2034 3584 2315 3537 
Q 2597 3491 2834 3397 
z
" transform="scale(0.015625)"/>
     </defs>
     <use xlink:href="#DejaVuSans-50"/>
     <use xlink:href="#DejaVuSans-65" x="56.677734"/>
     <use xlink:href="#DejaVuSans-6c" x="118.201172"/>
     <use xlink:href="#DejaVuSans-6c" x="145.984375"/>
     <use xlink:href="#DejaVuSans-65" x="173.767578"/>
     <use xlink:href="#DejaVuSans-74" x="235.291016"/>
     <use xlink:href="#DejaVuSans-20" x="274.5"/>
     <use xlink:href="#DejaVuSans-43" x="306.287109"/>
     <use xlink:href="#DejaVuSans-6f" x="376.111328"/>
     <use xlink:href="#DejaVuSans-75" x="437.292969"/>
     <use xlink:href="#DejaVuSans-6e" x="500.671875"/>
     <use xlink:href="#DejaVuSans-74" x="564.050781"/>
     <use xlink:href="#DejaVuSans-20" x="603.259766"/>
     <use xlink:href="#DejaVuSans-61" x="635.046875"/>
     <use xlink:href="#DejaVuSans-6e" x="696.326172"/>
     <use xlink:href="#DejaVuSans-64" x="759.705078"/>
     <use xlink:href="#DejaVuSans-20" x="823.181641"/>
     <use xlink:href="#DejaVuSans-43" x="854.96875"/>
     <use xlink:href="#DejaVuSans-75" x="924.792969"/>
     <use xlink:href="#DejaVuSans-6d" x="988.171875"/>
     <use xlink:href="#DejaVuSans-75" x="1085.583984"/>
     <use xlink:href="#DejaVuSans-6c" x="1148.962891"/>
     <use xlink:href="#DejaVuSans-61" x="1176.746094"/>
     <use xlink:href="#DejaVuSans-74" x="1238.025391"/>
     <use xlink:href="#DejaVuSans-69" x="1277.234375"/>
     <use xlink:href="#DejaVuSans-76" x="1305.017578"/>
     <use xlink:href="#DejaVuSans-65" x="1364.197266"/>
     <use xlink:href="#DejaVuSans-20" x="1425.720703"/>
     <use xlink:href="#DejaVuSans-53" x="1457.507812"/>
     <use xlink:href="#DejaVuSans-75" x="1520.984375"/>
     <use xlink:href="#DejaVuSans-6d" x="1584.363281"/>
     <use xlink:href="#DejaVuSans-20" x="1681.775391"/>
     <use xlink:href="#DejaVuSans-4f" x="1713.5625"/>
     <use xlink:href="#DejaVuSans-76" x="1792.273438"/>
     <use xlink:href="#DejaVuSans-65" x="1851.453125"/>
     <use xlink:href="#DejaVuSans-72" x="1912.976562"/>
     <use xlink:href="#DejaVuSans-20" x="1954.089844"/>
     <use xlink:href="#DejaVuSans-54" x="1985.876953"/>
     <use xlink:href="#DejaVuSans-69" x="2043.835938"/>
     <use xlink:href="#DejaVuSans-6d" x="2071.619141"/>
     <use xlink:href="#DejaVuSans-65" x="2169.03125"/>
     <use xlink:href="#DejaVuSans-20" x="2230.554688"/>
     <use xlink:href="#DejaVuSans-6f" x="2262.341797"/>
     <use xlink:href="#DejaVuSans-66" x="2323.523438"/>
     <use xlink:href="#DejaVuSans-20" x="2358.728516"/>
     <use xlink:href="#DejaVuSans-47" x="2390.515625"/>
     <use xlink:href="#DejaVuSans-72" x="2468.005859"/>
     <use xlink:href="#DejaVuSans-6f" x="2506.869141"/>
     <use xlink:href="#DejaVuSans-75" x="2568.050781"/>
     <use xlink:href="#DejaVuSans-70" x="2631.429688"/>
     <use xlink:href="#DejaVuSans-20" x="2694.90625"/>
     <use xlink:href="#DejaVuSans-31" x="2726.693359"/>
     <use xlink:href="#DejaVuSans-31" x="2790.316406"/>
     <use xlink:href="#DejaVuSans-20" x="2853.939453"/>
     <use xlink:href="#DejaVuSans-4d" x="2885.726562"/>
     <use xlink:href="#DejaVuSans-6f" x="2972.005859"/>
     <use xlink:href="#DejaVuSans-75" x="3033.1875"/>
     <use xlink:href="#DejaVuSans-73" x="3096.566406"/>
     <use xlink:href="#DejaVuSans-65" x="3148.666016"/>
     <use xlink:href="#DejaVuSans-20" x="3210.189453"/>
     <use xlink:href="#DejaVuSans-31" x="3241.976562"/>
    </g>
   </g>
   <g id="legend_1">
    <g id="patch_63">
     <path d="M 1086.550625 64.233437 
L 1158.235 64.233437 
Q 1160.235 64.233437 1160.235 62.233437 
L 1160.235 33.877187 
Q 1160.235 31.877187 1158.235 31.877187 
L 1086.550625 31.877187 
Q 1084.550625 31.877187 1084.550625 33.877187 
L 1084.550625 62.233437 
Q 1084.550625 64.233437 1086.550625 64.233437 
z
" style="fill: #ffffff; opacity: 0.8; stroke: #cccccc; stroke-linejoin: miter"/>
    </g>
    <g id="patch_64">
     <path d="M 1088.550625 43.475625 
L 1108.550625 43.475625 
L 1108.550625 36.475625 
L 1088.550625 36.475625 
z
" style="fill: #add8e6; opacity: 0.9; stroke: #add8e6; stroke-linejoin: miter"/>
    </g>
    <g id="text_20">
     <!-- Meal -->
     <g transform="translate(1116.550625 43.475625) scale(0.1 -0.1)">
      <use xlink:href="#DejaVuSans-4d"/>
      <use xlink:href="#DejaVuSans-65" x="86.279297"/>
      <use xlink:href="#DejaVuSans-61" x="147.802734"/>
      <use xlink:href="#DejaVuSans-6c" x="209.082031"/>
     </g>
    </g>
    <g id="patch_65">
     <path d="M 1088.550625 58.15375 
L 1108.550625 58.15375 
L 1108.550625 51.15375 
L 1088.550625 51.15375 
z
" style="fill: #808080; opacity: 0.5; stroke: #808080; stroke-linejoin: miter"/>
    </g>
    <g id="text_21">
     <!-- Inactive -->
     <g transform="translate(1116.550625 58.15375) scale(0.1 -0.1)">
      <defs>
       <path id="DejaVuSans-49" d="M 628 4666 
L 1259 4666 
L 1259 0 
L 628 0 
L 628 4666 
z
" transform="scale(0.015625)"/>
       <path id="DejaVuSans-63" d="M 3122 3366 
L 3122 2828 
Q 2878 2963 2633 3030 
Q 2388 3097 2138 3097 
Q 1578 3097 1268 2742 
Q 959 2388 959 1747 
Q 959 1106 1268 751 
Q 1578 397 2138 397 
Q 2388 397 2633 464 
Q 2878 531 3122 666 
L 3122 134 
Q 2881 22 2623 -34 
Q 2366 -91 2075 -91 
Q 1284 -91 818 406 
Q 353 903 353 1747 
Q 353 2603 823 3093 
Q 1294 3584 2113 3584 
Q 2378 3584 2631 3529 
Q 2884 3475 3122 3366 
z
" transform="scale(0.015625)"/>
      </defs>
      <use xlink:href="#DejaVuSans-49"/>
      <use xlink:href="#DejaVuSans-6e" x="29.492188"/>
      <use xlink:href="#DejaVuSans-61" x="92.871094"/>
      <use xlink:href="#DejaVuSans-63" x="154.150391"/>
      <use xlink:href="#DejaVuSans-74" x="209.130859"/>
      <use xlink:href="#DejaVuSans-69" x="248.339844"/>
      <use xlink:href="#DejaVuSans-76" x="276.123047"/>
      <use xlink:href="#DejaVuSans-65" x="335.302734"/>
     </g>
    </g>
   </g>
  </g>
 </g>
 <defs>
  <clipPath id="p212884939d">
   <rect x="49.235" y="26.877187" width="1116" height="332.64"/>
  </clipPath>
 </defs>
</svg>
