<?xml version="1.0" encoding="utf-8" standalone="no"?>
<!DOCTYPE svg PUBLIC "-//W3C//DTD SVG 1.1//EN"
  "http://www.w3.org/Graphics/SVG/1.1/DTD/svg11.dtd">
<svg xmlns:xlink="http://www.w3.org/1999/xlink" width="1172.435pt" height="399.009062pt" viewBox="0 0 1172.435 399.009062" xmlns="http://www.w3.org/2000/svg" version="1.1">
 <metadata>
  <rdf:RDF xmlns:dc="http://purl.org/dc/elements/1.1/" xmlns:cc="http://creativecommons.org/ns#" xmlns:rdf="http://www.w3.org/1999/02/22-rdf-syntax-ns#">
   <cc:Work>
    <dc:type rdf:resource="http://purl.org/dc/dcmitype/StillImage"/>
    <dc:date>2025-04-02T10:38:00.725079</dc:date>
    <dc:format>image/svg+xml</dc:format>
    <dc:creator>
     <cc:Agent>
      <dc:title>Matplotlib v3.8.3, https://matplotlib.org/</dc:title>
     </cc:Agent>
    </dc:creator>
   </cc:Work>
  </rdf:RDF>
 </metadata>
 <defs>
  <style type="text/css">*{stroke-linejoin: round; stroke-linecap: butt}</style>
 </defs>
 <g id="figure_1">
  <g id="patch_1">
   <path d="M 0 399.009062 
L 1172.435 399.009062 
L 1172.435 0 
L 0 0 
z
" style="fill: #ffffff"/>
  </g>
  <g id="axes_1">
   <g id="patch_2">
    <path d="M 49.235 359.517187 
L 1165.235 359.517187 
L 1165.235 26.877187 
L 49.235 26.877187 
z
" style="fill: #ffffff"/>
   </g>
   <g id="patch_3">
    <path d="M 144.451725 359.517187 
L 144.451725 26.877187 
L 144.451725 26.877187 
z
" clip-path="url(#p1035d0b6f5)" style="fill: #add8e6; stroke: #add8e6; stroke-linejoin: miter"/>
   </g>
   <g id="patch_4">
    <path d="M 189.471834 359.517187 
L 189.471834 26.877187 
L 181.035656 26.877187 
L 181.035656 359.517187 
z
" clip-path="url(#p1035d0b6f5)" style="fill: #add8e6; stroke: #add8e6; stroke-linejoin: miter"/>
   </g>
   <g id="patch_5">
    <path d="M 227.977826 359.517187 
L 227.977826 26.877187 
L 196.16771 26.877187 
L 196.16771 359.517187 
z
" clip-path="url(#p1035d0b6f5)" style="fill: #add8e6; stroke: #add8e6; stroke-linejoin: miter"/>
   </g>
   <g id="patch_6">
    <path d="M 232.762087 359.517187 
L 232.762087 26.877187 
L 198.873221 26.877187 
L 198.873221 359.517187 
z
" clip-path="url(#p1035d0b6f5)" style="fill: #add8e6; stroke: #add8e6; stroke-linejoin: miter"/>
   </g>
   <g id="patch_7">
    <path d="M 236.992711 359.517187 
L 236.992711 26.877187 
L 207.271793 26.877187 
L 207.271793 359.517187 
z
" clip-path="url(#p1035d0b6f5)" style="fill: #add8e6; stroke: #add8e6; stroke-linejoin: miter"/>
   </g>
   <g id="patch_8">
    <path d="M 245.809123 359.517187 
L 245.809123 26.877187 
L 216.928062 26.877187 
L 216.928062 359.517187 
z
" clip-path="url(#p1035d0b6f5)" style="fill: #add8e6; stroke: #add8e6; stroke-linejoin: miter"/>
   </g>
   <g id="patch_9">
    <path d="M 253.633166 359.517187 
L 253.633166 26.877187 
L 236.986444 26.877187 
L 236.986444 359.517187 
z
" clip-path="url(#p1035d0b6f5)" style="fill: #add8e6; stroke: #add8e6; stroke-linejoin: miter"/>
   </g>
   <g id="patch_10">
    <path d="M 264.716357 359.517187 
L 264.716357 26.877187 
L 230.165215 26.877187 
L 230.165215 359.517187 
z
" clip-path="url(#p1035d0b6f5)" style="fill: #add8e6; stroke: #add8e6; stroke-linejoin: miter"/>
   </g>
   <g id="patch_11">
    <path d="M 267.129379 359.517187 
L 267.129379 26.877187 
L 232.59913 26.877187 
L 232.59913 359.517187 
z
" clip-path="url(#p1035d0b6f5)" style="fill: #add8e6; stroke: #add8e6; stroke-linejoin: miter"/>
   </g>
   <g id="patch_12">
    <path d="M 276.541212 359.517187 
L 276.541212 26.877187 
L 268.926089 26.877187 
L 268.926089 359.517187 
z
" clip-path="url(#p1035d0b6f5)" style="fill: #add8e6; stroke: #add8e6; stroke-linejoin: miter"/>
   </g>
   <g id="patch_13">
    <path d="M 283.508685 359.517187 
L 283.508685 26.877187 
L 252.837182 26.877187 
L 252.837182 359.517187 
z
" clip-path="url(#p1035d0b6f5)" style="fill: #add8e6; stroke: #add8e6; stroke-linejoin: miter"/>
   </g>
   <g id="patch_14">
    <path d="M 284.189763 359.517187 
L 284.189763 26.877187 
L 267.329942 26.877187 
L 267.329942 359.517187 
z
" clip-path="url(#p1035d0b6f5)" style="fill: #add8e6; stroke: #add8e6; stroke-linejoin: miter"/>
   </g>
   <g id="patch_15">
    <path d="M 308.265671 359.517187 
L 308.265671 26.877187 
L 280.266251 26.877187 
L 280.266251 359.517187 
z
" clip-path="url(#p1035d0b6f5)" style="fill: #add8e6; stroke: #add8e6; stroke-linejoin: miter"/>
   </g>
   <g id="patch_16">
    <path d="M 316.51591 359.517187 
L 316.51591 26.877187 
L 298.114262 26.877187 
L 298.114262 359.517187 
z
" clip-path="url(#p1035d0b6f5)" style="fill: #add8e6; stroke: #add8e6; stroke-linejoin: miter"/>
   </g>
   <g id="patch_17">
    <path d="M 324.722276 359.517187 
L 324.722276 26.877187 
L 295.072391 26.877187 
L 295.072391 359.517187 
z
" clip-path="url(#p1035d0b6f5)" style="fill: #add8e6; stroke: #add8e6; stroke-linejoin: miter"/>
   </g>
   <g id="patch_18">
    <path d="M 327.538514 359.517187 
L 327.538514 26.877187 
L 314.286737 26.877187 
L 314.286737 359.517187 
z
" clip-path="url(#p1035d0b6f5)" style="fill: #add8e6; stroke: #add8e6; stroke-linejoin: miter"/>
   </g>
   <g id="patch_19">
    <path d="M 340.410057 359.517187 
L 340.410057 26.877187 
L 338.379358 26.877187 
L 338.379358 359.517187 
z
" clip-path="url(#p1035d0b6f5)" style="fill: #add8e6; stroke: #add8e6; stroke-linejoin: miter"/>
   </g>
   <g id="patch_20">
    <path d="M 359.994191 359.517187 
L 359.994191 26.877187 
L 356.572086 26.877187 
L 356.572086 359.517187 
z
" clip-path="url(#p1035d0b6f5)" style="fill: #add8e6; stroke: #add8e6; stroke-linejoin: miter"/>
   </g>
   <g id="patch_21">
    <path d="M 396.55514 359.517187 
L 396.55514 26.877187 
L 369.510484 26.877187 
L 369.510484 359.517187 
z
" clip-path="url(#p1035d0b6f5)" style="fill: #add8e6; stroke: #add8e6; stroke-linejoin: miter"/>
   </g>
   <g id="patch_22">
    <path d="M 421.374802 359.517187 
L 421.374802 26.877187 
L 389.004782 26.877187 
L 389.004782 359.517187 
z
" clip-path="url(#p1035d0b6f5)" style="fill: #add8e6; stroke: #add8e6; stroke-linejoin: miter"/>
   </g>
   <g id="patch_23">
    <path d="M 430.191214 359.517187 
L 430.191214 26.877187 
L 403.207144 26.877187 
L 403.207144 359.517187 
z
" clip-path="url(#p1035d0b6f5)" style="fill: #add8e6; stroke: #add8e6; stroke-linejoin: miter"/>
   </g>
   <g id="patch_24">
    <path d="M 437.607864 359.517187 
L 437.607864 26.877187 
L 406.842347 26.877187 
L 406.842347 359.517187 
z
" clip-path="url(#p1035d0b6f5)" style="fill: #add8e6; stroke: #add8e6; stroke-linejoin: miter"/>
   </g>
   <g id="patch_25">
    <path d="M 464.266019 359.517187 
L 464.266019 26.877187 
L 438.004811 26.877187 
L 438.004811 359.517187 
z
" clip-path="url(#p1035d0b6f5)" style="fill: #add8e6; stroke: #add8e6; stroke-linejoin: miter"/>
   </g>
   <g id="patch_26">
    <path d="M 475.265642 359.517187 
L 475.265642 26.877187 
L 442.37959 26.877187 
L 442.37959 359.517187 
z
" clip-path="url(#p1035d0b6f5)" style="fill: #add8e6; stroke: #add8e6; stroke-linejoin: miter"/>
   </g>
   <g id="patch_27">
    <path d="M 480.739338 359.517187 
L 480.739338 26.877187 
L 481.353562 26.877187 
L 481.353562 359.517187 
z
" clip-path="url(#p1035d0b6f5)" style="fill: #add8e6; stroke: #add8e6; stroke-linejoin: miter"/>
   </g>
   <g id="patch_28">
    <path d="M 481.495627 359.517187 
L 481.495627 26.877187 
L 481.892575 26.877187 
L 481.892575 359.517187 
z
" clip-path="url(#p1035d0b6f5)" style="fill: #add8e6; stroke: #add8e6; stroke-linejoin: miter"/>
   </g>
   <g id="patch_29">
    <path d="M 483.334121 359.517187 
L 483.334121 26.877187 
L 483.421867 26.877187 
L 483.421867 359.517187 
z
" clip-path="url(#p1035d0b6f5)" style="fill: #add8e6; stroke: #add8e6; stroke-linejoin: miter"/>
   </g>
   <g id="patch_30">
    <path d="M 503.749755 359.517187 
L 503.749755 26.877187 
L 498.148617 26.877187 
L 498.148617 359.517187 
z
" clip-path="url(#p1035d0b6f5)" style="fill: #add8e6; stroke: #add8e6; stroke-linejoin: miter"/>
   </g>
   <g id="patch_31">
    <path d="M 506.265148 359.517187 
L 506.265148 26.877187 
L 501.31584 26.877187 
L 501.31584 359.517187 
z
" clip-path="url(#p1035d0b6f5)" style="fill: #add8e6; stroke: #add8e6; stroke-linejoin: miter"/>
   </g>
   <g id="patch_32">
    <path d="M 540.479929 359.517187 
L 540.479929 26.877187 
L 515.729211 26.877187 
L 515.729211 359.517187 
z
" clip-path="url(#p1035d0b6f5)" style="fill: #add8e6; stroke: #add8e6; stroke-linejoin: miter"/>
   </g>
   <g id="patch_33">
    <path d="M 558.185875 359.517187 
L 558.185875 26.877187 
L 548.947445 26.877187 
L 548.947445 359.517187 
z
" clip-path="url(#p1035d0b6f5)" style="fill: #add8e6; stroke: #add8e6; stroke-linejoin: miter"/>
   </g>
   <g id="patch_34">
    <path d="M 560.753498 359.517187 
L 560.753498 26.877187 
L 554.525602 26.877187 
L 554.525602 359.517187 
z
" clip-path="url(#p1035d0b6f5)" style="fill: #add8e6; stroke: #add8e6; stroke-linejoin: miter"/>
   </g>
   <g id="patch_35">
    <path d="M 566.768297 359.517187 
L 566.768297 26.877187 
L 566.885292 26.877187 
L 566.885292 359.517187 
z
" clip-path="url(#p1035d0b6f5)" style="fill: #add8e6; stroke: #add8e6; stroke-linejoin: miter"/>
   </g>
   <g id="patch_36">
    <path d="M 567.553835 359.517187 
L 567.553835 26.877187 
L 567.948693 26.877187 
L 567.948693 359.517187 
z
" clip-path="url(#p1035d0b6f5)" style="fill: #add8e6; stroke: #add8e6; stroke-linejoin: miter"/>
   </g>
   <g id="patch_37">
    <path d="M 568.717517 359.517187 
L 568.717517 26.877187 
L 569.005827 26.877187 
L 569.005827 359.517187 
z
" clip-path="url(#p1035d0b6f5)" style="fill: #add8e6; stroke: #add8e6; stroke-linejoin: miter"/>
   </g>
   <g id="patch_38">
    <path d="M 626.749146 359.517187 
L 626.749146 26.877187 
L 627.286069 26.877187 
L 627.286069 359.517187 
z
" clip-path="url(#p1035d0b6f5)" style="fill: #add8e6; stroke: #add8e6; stroke-linejoin: miter"/>
   </g>
   <g id="patch_39">
    <path d="M 627.559754 359.517187 
L 627.559754 26.877187 
L 627.998485 26.877187 
L 627.998485 359.517187 
z
" clip-path="url(#p1035d0b6f5)" style="fill: #add8e6; stroke: #add8e6; stroke-linejoin: miter"/>
   </g>
   <g id="patch_40">
    <path d="M 628.297241 359.517187 
L 628.297241 26.877187 
L 628.712991 26.877187 
L 628.712991 359.517187 
z
" clip-path="url(#p1035d0b6f5)" style="fill: #add8e6; stroke: #add8e6; stroke-linejoin: miter"/>
   </g>
   <g id="patch_41">
    <path d="M 629.141276 359.517187 
L 629.141276 26.877187 
L 629.10576 26.877187 
L 629.10576 359.517187 
z
" clip-path="url(#p1035d0b6f5)" style="fill: #add8e6; stroke: #add8e6; stroke-linejoin: miter"/>
   </g>
   <g id="patch_42">
    <path d="M 674.575046 359.517187 
L 674.575046 26.877187 
L 658.883086 26.877187 
L 658.883086 359.517187 
z
" clip-path="url(#p1035d0b6f5)" style="fill: #add8e6; stroke: #add8e6; stroke-linejoin: miter"/>
   </g>
   <g id="patch_43">
    <path d="M 697.451754 359.517187 
L 697.451754 26.877187 
L 685.555866 26.877187 
L 685.555866 359.517187 
z
" clip-path="url(#p1035d0b6f5)" style="fill: #add8e6; stroke: #add8e6; stroke-linejoin: miter"/>
   </g>
   <g id="patch_44">
    <path d="M 739.847831 359.517187 
L 739.847831 26.877187 
L 740.242689 26.877187 
L 740.242689 359.517187 
z
" clip-path="url(#p1035d0b6f5)" style="fill: #add8e6; stroke: #add8e6; stroke-linejoin: miter"/>
   </g>
   <g id="patch_45">
    <path d="M 747.803494 359.517187 
L 747.803494 26.877187 
L 748.227601 26.877187 
L 748.227601 359.517187 
z
" clip-path="url(#p1035d0b6f5)" style="fill: #add8e6; stroke: #add8e6; stroke-linejoin: miter"/>
   </g>
   <g id="patch_46">
    <path d="M 748.603656 359.517187 
L 748.603656 26.877187 
L 749.171918 26.877187 
L 749.171918 359.517187 
z
" clip-path="url(#p1035d0b6f5)" style="fill: #add8e6; stroke: #add8e6; stroke-linejoin: miter"/>
   </g>
   <g id="patch_47">
    <path d="M 798.898987 359.517187 
L 798.898987 26.877187 
L 799.034785 26.877187 
L 799.034785 359.517187 
z
" clip-path="url(#p1035d0b6f5)" style="fill: #add8e6; stroke: #add8e6; stroke-linejoin: miter"/>
   </g>
   <g id="patch_48">
    <path d="M 799.573798 359.517187 
L 799.573798 26.877187 
L 800.085651 26.877187 
L 800.085651 359.517187 
z
" clip-path="url(#p1035d0b6f5)" style="fill: #add8e6; stroke: #add8e6; stroke-linejoin: miter"/>
   </g>
   <g id="patch_49">
    <path d="M 853.732055 359.517187 
L 853.732055 26.877187 
L 854.091397 26.877187 
L 854.091397 359.517187 
z
" clip-path="url(#p1035d0b6f5)" style="fill: #add8e6; stroke: #add8e6; stroke-linejoin: miter"/>
   </g>
   <g id="patch_50">
    <path d="M 854.693085 359.517187 
L 854.693085 26.877187 
L 855.219563 26.877187 
L 855.219563 359.517187 
z
" clip-path="url(#p1035d0b6f5)" style="fill: #add8e6; stroke: #add8e6; stroke-linejoin: miter"/>
   </g>
   <g id="patch_51">
    <path d="M 918.781296 359.517187 
L 918.781296 26.877187 
L 919.399698 26.877187 
L 919.399698 359.517187 
z
" clip-path="url(#p1035d0b6f5)" style="fill: #add8e6; stroke: #add8e6; stroke-linejoin: miter"/>
   </g>
   <g id="patch_52">
    <path d="M 919.616975 359.517187 
L 919.616975 26.877187 
L 920.003476 26.877187 
L 920.003476 359.517187 
z
" clip-path="url(#p1035d0b6f5)" style="fill: #add8e6; stroke: #add8e6; stroke-linejoin: miter"/>
   </g>
   <g id="patch_53">
    <path d="M 970.150475 359.517187 
L 970.150475 26.877187 
L 969.266744 26.877187 
L 969.266744 359.517187 
z
" clip-path="url(#p1035d0b6f5)" style="fill: #add8e6; stroke: #add8e6; stroke-linejoin: miter"/>
   </g>
   <g id="patch_54">
    <path d="M 980.276813 359.517187 
L 980.276813 26.877187 
L 980.62153 26.877187 
L 980.62153 359.517187 
z
" clip-path="url(#p1035d0b6f5)" style="fill: #add8e6; stroke: #add8e6; stroke-linejoin: miter"/>
   </g>
   <g id="patch_55">
    <path d="M 1009.912074 359.517187 
L 1009.912074 26.877187 
L 1009.730314 26.877187 
L 1009.730314 359.517187 
z
" clip-path="url(#p1035d0b6f5)" style="fill: #add8e6; stroke: #add8e6; stroke-linejoin: miter"/>
   </g>
   <g id="patch_56">
    <path d="M 1010.929513 359.517187 
L 1010.929513 26.877187 
L 1010.461533 26.877187 
L 1010.461533 359.517187 
z
" clip-path="url(#p1035d0b6f5)" style="fill: #add8e6; stroke: #add8e6; stroke-linejoin: miter"/>
   </g>
   <g id="patch_57">
    <path d="M 1013.864835 359.517187 
L 1013.864835 26.877187 
L 1012.997818 26.877187 
L 1012.997818 359.517187 
z
" clip-path="url(#p1035d0b6f5)" style="fill: #add8e6; stroke: #add8e6; stroke-linejoin: miter"/>
   </g>
   <g id="patch_58">
    <path d="M 1029.216255 359.517187 
L 1029.216255 26.877187 
L 1029.134777 26.877187 
L 1029.134777 359.517187 
z
" clip-path="url(#p1035d0b6f5)" style="fill: #add8e6; stroke: #add8e6; stroke-linejoin: miter"/>
   </g>
   <g id="patch_59">
    <path d="M 1045.447228 359.517187 
L 1045.447228 26.877187 
L 1045.4138 26.877187 
L 1045.4138 359.517187 
z
" clip-path="url(#p1035d0b6f5)" style="fill: #add8e6; stroke: #add8e6; stroke-linejoin: miter"/>
   </g>
   <g id="patch_60">
    <path d="M 1047.931283 359.517187 
L 1047.931283 26.877187 
L 1047.879053 26.877187 
L 1047.879053 359.517187 
z
" clip-path="url(#p1035d0b6f5)" style="fill: #add8e6; stroke: #add8e6; stroke-linejoin: miter"/>
   </g>
   <g id="patch_61">
    <path d="M 1073.952233 359.517187 
L 1073.952233 26.877187 
L 1073.722421 26.877187 
L 1073.722421 359.517187 
z
" clip-path="url(#p1035d0b6f5)" style="fill: #add8e6; stroke: #add8e6; stroke-linejoin: miter"/>
   </g>
   <g id="patch_62">
    <path d="M 1074.808804 359.517187 
L 1074.808804 26.877187 
L 1074.800447 26.877187 
L 1074.800447 359.517187 
z
" clip-path="url(#p1035d0b6f5)" style="fill: #add8e6; stroke: #add8e6; stroke-linejoin: miter"/>
   </g>
   <g id="patch_63">
    <path d="M 1114.507727 359.517187 
L 1114.507727 26.877187 
L 1096.308731 26.877187 
L 1096.308731 359.517187 
z
" clip-path="url(#p1035d0b6f5)" style="fill: #add8e6; stroke: #add8e6; stroke-linejoin: miter"/>
   </g>
   <g id="patch_64">
    <path d="M 99.962273 359.517187 
L 99.962273 26.877187 
L 112.497455 26.877187 
L 112.497455 359.517187 
z
" clip-path="url(#p1035d0b6f5)" style="fill: #808080; opacity: 0.4; stroke: #808080; stroke-linejoin: miter"/>
   </g>
   <g id="patch_65">
    <path d="M 125.032638 26.877187 
L 125.032638 26.877187 
L 125.032638 359.517187 
" clip-path="url(#p1035d0b6f5)" style="fill: #808080; opacity: 0.4; stroke: #808080; stroke-linejoin: miter"/>
   </g>
   <g id="patch_66">
    <path d="M 137.567821 26.877187 
L 137.567821 26.877187 
L 137.567821 359.517187 
" clip-path="url(#p1035d0b6f5)" style="fill: #808080; opacity: 0.4; stroke: #808080; stroke-linejoin: miter"/>
   </g>
   <g id="patch_67">
    <path d="M 563.764031 359.517187 
L 563.764031 26.877187 
L 1015.030607 26.877187 
L 1015.030607 359.517187 
z
" clip-path="url(#p1035d0b6f5)" style="fill: #808080; opacity: 0.4; stroke: #808080; stroke-linejoin: miter"/>
   </g>
   <g id="patch_68">
    <path d="M 1027.56579 26.877187 
L 1027.56579 26.877187 
L 1027.56579 359.517187 
" clip-path="url(#p1035d0b6f5)" style="fill: #808080; opacity: 0.4; stroke: #808080; stroke-linejoin: miter"/>
   </g>
   <g id="patch_69">
    <path d="M 1040.100972 26.877187 
L 1040.100972 26.877187 
L 1040.100972 359.517187 
" clip-path="url(#p1035d0b6f5)" style="fill: #808080; opacity: 0.4; stroke: #808080; stroke-linejoin: miter"/>
   </g>
   <g id="matplotlib.axis_1">
    <g id="xtick_1">
     <g id="line2d_1">
      <defs>
       <path id="mc7351efe9b" d="M 0 0 
L 0 3.5 
" style="stroke: #000000; stroke-width: 0.8"/>
      </defs>
      <g>
       <use xlink:href="#mc7351efe9b" x="71.444732" y="359.517187" style="stroke: #000000; stroke-width: 0.8"/>
      </g>
     </g>
     <g id="text_1">
      <!-- 11-19 06 -->
      <g transform="translate(48.964263 374.115625) scale(0.1 -0.1)">
       <defs>
        <path id="DejaVuSans-31" d="M 794 531 
L 1825 531 
L 1825 4091 
L 703 3866 
L 703 4441 
L 1819 4666 
L 2450 4666 
L 2450 531 
L 3481 531 
L 3481 0 
L 794 0 
L 794 531 
z
" transform="scale(0.015625)"/>
        <path id="DejaVuSans-2d" d="M 313 2009 
L 1997 2009 
L 1997 1497 
L 313 1497 
L 313 2009 
z
" transform="scale(0.015625)"/>
        <path id="DejaVuSans-39" d="M 703 97 
L 703 672 
Q 941 559 1184 500 
Q 1428 441 1663 441 
Q 2288 441 2617 861 
Q 2947 1281 2994 2138 
Q 2813 1869 2534 1725 
Q 2256 1581 1919 1581 
Q 1219 1581 811 2004 
Q 403 2428 403 3163 
Q 403 3881 828 4315 
Q 1253 4750 1959 4750 
Q 2769 4750 3195 4129 
Q 3622 3509 3622 2328 
Q 3622 1225 3098 567 
Q 2575 -91 1691 -91 
Q 1453 -91 1209 -44 
Q 966 3 703 97 
z
M 1959 2075 
Q 2384 2075 2632 2365 
Q 2881 2656 2881 3163 
Q 2881 3666 2632 3958 
Q 2384 4250 1959 4250 
Q 1534 4250 1286 3958 
Q 1038 3666 1038 3163 
Q 1038 2656 1286 2365 
Q 1534 2075 1959 2075 
z
" transform="scale(0.015625)"/>
        <path id="DejaVuSans-20" transform="scale(0.015625)"/>
        <path id="DejaVuSans-30" d="M 2034 4250 
Q 1547 4250 1301 3770 
Q 1056 3291 1056 2328 
Q 1056 1369 1301 889 
Q 1547 409 2034 409 
Q 2525 409 2770 889 
Q 3016 1369 3016 2328 
Q 3016 3291 2770 3770 
Q 2525 4250 2034 4250 
z
M 2034 4750 
Q 2819 4750 3233 4129 
Q 3647 3509 3647 2328 
Q 3647 1150 3233 529 
Q 2819 -91 2034 -91 
Q 1250 -91 836 529 
Q 422 1150 422 2328 
Q 422 3509 836 4129 
Q 1250 4750 2034 4750 
z
" transform="scale(0.015625)"/>
        <path id="DejaVuSans-36" d="M 2113 2584 
Q 1688 2584 1439 2293 
Q 1191 2003 1191 1497 
Q 1191 994 1439 701 
Q 1688 409 2113 409 
Q 2538 409 2786 701 
Q 3034 994 3034 1497 
Q 3034 2003 2786 2293 
Q 2538 2584 2113 2584 
z
M 3366 4563 
L 3366 3988 
Q 3128 4100 2886 4159 
Q 2644 4219 2406 4219 
Q 1781 4219 1451 3797 
Q 1122 3375 1075 2522 
Q 1259 2794 1537 2939 
Q 1816 3084 2150 3084 
Q 2853 3084 3261 2657 
Q 3669 2231 3669 1497 
Q 3669 778 3244 343 
Q 2819 -91 2113 -91 
Q 1303 -91 875 529 
Q 447 1150 447 2328 
Q 447 3434 972 4092 
Q 1497 4750 2381 4750 
Q 2619 4750 2861 4703 
Q 3103 4656 3366 4563 
z
" transform="scale(0.015625)"/>
       </defs>
       <use xlink:href="#DejaVuSans-31"/>
       <use xlink:href="#DejaVuSans-31" x="63.623047"/>
       <use xlink:href="#DejaVuSans-2d" x="127.246094"/>
       <use xlink:href="#DejaVuSans-31" x="163.330078"/>
       <use xlink:href="#DejaVuSans-39" x="226.953125"/>
       <use xlink:href="#DejaVuSans-20" x="290.576172"/>
       <use xlink:href="#DejaVuSans-30" x="322.363281"/>
       <use xlink:href="#DejaVuSans-36" x="385.986328"/>
      </g>
     </g>
    </g>
    <g id="xtick_2">
     <g id="line2d_2">
      <g>
       <use xlink:href="#mc7351efe9b" x="184.261376" y="359.517187" style="stroke: #000000; stroke-width: 0.8"/>
      </g>
     </g>
     <g id="text_2">
      <!-- 11-19 09 -->
      <g transform="translate(161.780907 374.115625) scale(0.1 -0.1)">
       <use xlink:href="#DejaVuSans-31"/>
       <use xlink:href="#DejaVuSans-31" x="63.623047"/>
       <use xlink:href="#DejaVuSans-2d" x="127.246094"/>
       <use xlink:href="#DejaVuSans-31" x="163.330078"/>
       <use xlink:href="#DejaVuSans-39" x="226.953125"/>
       <use xlink:href="#DejaVuSans-20" x="290.576172"/>
       <use xlink:href="#DejaVuSans-30" x="322.363281"/>
       <use xlink:href="#DejaVuSans-39" x="385.986328"/>
      </g>
     </g>
    </g>
    <g id="xtick_3">
     <g id="line2d_3">
      <g>
       <use xlink:href="#mc7351efe9b" x="297.07802" y="359.517187" style="stroke: #000000; stroke-width: 0.8"/>
      </g>
     </g>
     <g id="text_3">
      <!-- 11-19 12 -->
      <g transform="translate(274.597551 374.115625) scale(0.1 -0.1)">
       <defs>
        <path id="DejaVuSans-32" d="M 1228 531 
L 3431 531 
L 3431 0 
L 469 0 
L 469 531 
Q 828 903 1448 1529 
Q 2069 2156 2228 2338 
Q 2531 2678 2651 2914 
Q 2772 3150 2772 3378 
Q 2772 3750 2511 3984 
Q 2250 4219 1831 4219 
Q 1534 4219 1204 4116 
Q 875 4013 500 3803 
L 500 4441 
Q 881 4594 1212 4672 
Q 1544 4750 1819 4750 
Q 2544 4750 2975 4387 
Q 3406 4025 3406 3419 
Q 3406 3131 3298 2873 
Q 3191 2616 2906 2266 
Q 2828 2175 2409 1742 
Q 1991 1309 1228 531 
z
" transform="scale(0.015625)"/>
       </defs>
       <use xlink:href="#DejaVuSans-31"/>
       <use xlink:href="#DejaVuSans-31" x="63.623047"/>
       <use xlink:href="#DejaVuSans-2d" x="127.246094"/>
       <use xlink:href="#DejaVuSans-31" x="163.330078"/>
       <use xlink:href="#DejaVuSans-39" x="226.953125"/>
       <use xlink:href="#DejaVuSans-20" x="290.576172"/>
       <use xlink:href="#DejaVuSans-31" x="322.363281"/>
       <use xlink:href="#DejaVuSans-32" x="385.986328"/>
      </g>
     </g>
    </g>
    <g id="xtick_4">
     <g id="line2d_4">
      <g>
       <use xlink:href="#mc7351efe9b" x="409.894664" y="359.517187" style="stroke: #000000; stroke-width: 0.8"/>
      </g>
     </g>
     <g id="text_4">
      <!-- 11-19 15 -->
      <g transform="translate(387.414195 374.115625) scale(0.1 -0.1)">
       <defs>
        <path id="DejaVuSans-35" d="M 691 4666 
L 3169 4666 
L 3169 4134 
L 1269 4134 
L 1269 2991 
Q 1406 3038 1543 3061 
Q 1681 3084 1819 3084 
Q 2600 3084 3056 2656 
Q 3513 2228 3513 1497 
Q 3513 744 3044 326 
Q 2575 -91 1722 -91 
Q 1428 -91 1123 -41 
Q 819 9 494 109 
L 494 744 
Q 775 591 1075 516 
Q 1375 441 1709 441 
Q 2250 441 2565 725 
Q 2881 1009 2881 1497 
Q 2881 1984 2565 2268 
Q 2250 2553 1709 2553 
Q 1456 2553 1204 2497 
Q 953 2441 691 2322 
L 691 4666 
z
" transform="scale(0.015625)"/>
       </defs>
       <use xlink:href="#DejaVuSans-31"/>
       <use xlink:href="#DejaVuSans-31" x="63.623047"/>
       <use xlink:href="#DejaVuSans-2d" x="127.246094"/>
       <use xlink:href="#DejaVuSans-31" x="163.330078"/>
       <use xlink:href="#DejaVuSans-39" x="226.953125"/>
       <use xlink:href="#DejaVuSans-20" x="290.576172"/>
       <use xlink:href="#DejaVuSans-31" x="322.363281"/>
       <use xlink:href="#DejaVuSans-35" x="385.986328"/>
      </g>
     </g>
    </g>
    <g id="xtick_5">
     <g id="line2d_5">
      <g>
       <use xlink:href="#mc7351efe9b" x="522.711308" y="359.517187" style="stroke: #000000; stroke-width: 0.8"/>
      </g>
     </g>
     <g id="text_5">
      <!-- 11-19 18 -->
      <g transform="translate(500.230839 374.115625) scale(0.1 -0.1)">
       <defs>
        <path id="DejaVuSans-38" d="M 2034 2216 
Q 1584 2216 1326 1975 
Q 1069 1734 1069 1313 
Q 1069 891 1326 650 
Q 1584 409 2034 409 
Q 2484 409 2743 651 
Q 3003 894 3003 1313 
Q 3003 1734 2745 1975 
Q 2488 2216 2034 2216 
z
M 1403 2484 
Q 997 2584 770 2862 
Q 544 3141 544 3541 
Q 544 4100 942 4425 
Q 1341 4750 2034 4750 
Q 2731 4750 3128 4425 
Q 3525 4100 3525 3541 
Q 3525 3141 3298 2862 
Q 3072 2584 2669 2484 
Q 3125 2378 3379 2068 
Q 3634 1759 3634 1313 
Q 3634 634 3220 271 
Q 2806 -91 2034 -91 
Q 1263 -91 848 271 
Q 434 634 434 1313 
Q 434 1759 690 2068 
Q 947 2378 1403 2484 
z
M 1172 3481 
Q 1172 3119 1398 2916 
Q 1625 2713 2034 2713 
Q 2441 2713 2670 2916 
Q 2900 3119 2900 3481 
Q 2900 3844 2670 4047 
Q 2441 4250 2034 4250 
Q 1625 4250 1398 4047 
Q 1172 3844 1172 3481 
z
" transform="scale(0.015625)"/>
       </defs>
       <use xlink:href="#DejaVuSans-31"/>
       <use xlink:href="#DejaVuSans-31" x="63.623047"/>
       <use xlink:href="#DejaVuSans-2d" x="127.246094"/>
       <use xlink:href="#DejaVuSans-31" x="163.330078"/>
       <use xlink:href="#DejaVuSans-39" x="226.953125"/>
       <use xlink:href="#DejaVuSans-20" x="290.576172"/>
       <use xlink:href="#DejaVuSans-31" x="322.363281"/>
       <use xlink:href="#DejaVuSans-38" x="385.986328"/>
      </g>
     </g>
    </g>
    <g id="xtick_6">
     <g id="line2d_6">
      <g>
       <use xlink:href="#mc7351efe9b" x="635.527952" y="359.517187" style="stroke: #000000; stroke-width: 0.8"/>
      </g>
     </g>
     <g id="text_6">
      <!-- 11-19 21 -->
      <g transform="translate(613.047483 374.115625) scale(0.1 -0.1)">
       <use xlink:href="#DejaVuSans-31"/>
       <use xlink:href="#DejaVuSans-31" x="63.623047"/>
       <use xlink:href="#DejaVuSans-2d" x="127.246094"/>
       <use xlink:href="#DejaVuSans-31" x="163.330078"/>
       <use xlink:href="#DejaVuSans-39" x="226.953125"/>
       <use xlink:href="#DejaVuSans-20" x="290.576172"/>
       <use xlink:href="#DejaVuSans-32" x="322.363281"/>
       <use xlink:href="#DejaVuSans-31" x="385.986328"/>
      </g>
     </g>
    </g>
    <g id="xtick_7">
     <g id="line2d_7">
      <g>
       <use xlink:href="#mc7351efe9b" x="748.344596" y="359.517187" style="stroke: #000000; stroke-width: 0.8"/>
      </g>
     </g>
     <g id="text_7">
      <!-- 11-20 00 -->
      <g transform="translate(725.864127 374.115625) scale(0.1 -0.1)">
       <use xlink:href="#DejaVuSans-31"/>
       <use xlink:href="#DejaVuSans-31" x="63.623047"/>
       <use xlink:href="#DejaVuSans-2d" x="127.246094"/>
       <use xlink:href="#DejaVuSans-32" x="163.330078"/>
       <use xlink:href="#DejaVuSans-30" x="226.953125"/>
       <use xlink:href="#DejaVuSans-20" x="290.576172"/>
       <use xlink:href="#DejaVuSans-30" x="322.363281"/>
       <use xlink:href="#DejaVuSans-30" x="385.986328"/>
      </g>
     </g>
    </g>
    <g id="xtick_8">
     <g id="line2d_8">
      <g>
       <use xlink:href="#mc7351efe9b" x="861.16124" y="359.517187" style="stroke: #000000; stroke-width: 0.8"/>
      </g>
     </g>
     <g id="text_8">
      <!-- 11-20 03 -->
      <g transform="translate(838.680771 374.115625) scale(0.1 -0.1)">
       <defs>
        <path id="DejaVuSans-33" d="M 2597 2516 
Q 3050 2419 3304 2112 
Q 3559 1806 3559 1356 
Q 3559 666 3084 287 
Q 2609 -91 1734 -91 
Q 1441 -91 1130 -33 
Q 819 25 488 141 
L 488 750 
Q 750 597 1062 519 
Q 1375 441 1716 441 
Q 2309 441 2620 675 
Q 2931 909 2931 1356 
Q 2931 1769 2642 2001 
Q 2353 2234 1838 2234 
L 1294 2234 
L 1294 2753 
L 1863 2753 
Q 2328 2753 2575 2939 
Q 2822 3125 2822 3475 
Q 2822 3834 2567 4026 
Q 2313 4219 1838 4219 
Q 1578 4219 1281 4162 
Q 984 4106 628 3988 
L 628 4550 
Q 988 4650 1302 4700 
Q 1616 4750 1894 4750 
Q 2613 4750 3031 4423 
Q 3450 4097 3450 3541 
Q 3450 3153 3228 2886 
Q 3006 2619 2597 2516 
z
" transform="scale(0.015625)"/>
       </defs>
       <use xlink:href="#DejaVuSans-31"/>
       <use xlink:href="#DejaVuSans-31" x="63.623047"/>
       <use xlink:href="#DejaVuSans-2d" x="127.246094"/>
       <use xlink:href="#DejaVuSans-32" x="163.330078"/>
       <use xlink:href="#DejaVuSans-30" x="226.953125"/>
       <use xlink:href="#DejaVuSans-20" x="290.576172"/>
       <use xlink:href="#DejaVuSans-30" x="322.363281"/>
       <use xlink:href="#DejaVuSans-33" x="385.986328"/>
      </g>
     </g>
    </g>
    <g id="xtick_9">
     <g id="line2d_9">
      <g>
       <use xlink:href="#mc7351efe9b" x="973.977884" y="359.517187" style="stroke: #000000; stroke-width: 0.8"/>
      </g>
     </g>
     <g id="text_9">
      <!-- 11-20 06 -->
      <g transform="translate(951.497415 374.115625) scale(0.1 -0.1)">
       <use xlink:href="#DejaVuSans-31"/>
       <use xlink:href="#DejaVuSans-31" x="63.623047"/>
       <use xlink:href="#DejaVuSans-2d" x="127.246094"/>
       <use xlink:href="#DejaVuSans-32" x="163.330078"/>
       <use xlink:href="#DejaVuSans-30" x="226.953125"/>
       <use xlink:href="#DejaVuSans-20" x="290.576172"/>
       <use xlink:href="#DejaVuSans-30" x="322.363281"/>
       <use xlink:href="#DejaVuSans-36" x="385.986328"/>
      </g>
     </g>
    </g>
    <g id="xtick_10">
     <g id="line2d_10">
      <g>
       <use xlink:href="#mc7351efe9b" x="1086.794528" y="359.517187" style="stroke: #000000; stroke-width: 0.8"/>
      </g>
     </g>
     <g id="text_10">
      <!-- 11-20 09 -->
      <g transform="translate(1064.314059 374.115625) scale(0.1 -0.1)">
       <use xlink:href="#DejaVuSans-31"/>
       <use xlink:href="#DejaVuSans-31" x="63.623047"/>
       <use xlink:href="#DejaVuSans-2d" x="127.246094"/>
       <use xlink:href="#DejaVuSans-32" x="163.330078"/>
       <use xlink:href="#DejaVuSans-30" x="226.953125"/>
       <use xlink:href="#DejaVuSans-20" x="290.576172"/>
       <use xlink:href="#DejaVuSans-30" x="322.363281"/>
       <use xlink:href="#DejaVuSans-39" x="385.986328"/>
      </g>
     </g>
    </g>
    <g id="text_11">
     <!-- Time -->
     <g transform="translate(592.554688 389.313437) scale(0.12 -0.12)">
      <defs>
       <path id="DejaVuSans-54" d="M -19 4666 
L 3928 4666 
L 3928 4134 
L 2272 4134 
L 2272 0 
L 1638 0 
L 1638 4134 
L -19 4134 
L -19 4666 
z
" transform="scale(0.015625)"/>
       <path id="DejaVuSans-69" d="M 603 3500 
L 1178 3500 
L 1178 0 
L 603 0 
L 603 3500 
z
M 603 4863 
L 1178 4863 
L 1178 4134 
L 603 4134 
L 603 4863 
z
" transform="scale(0.015625)"/>
       <path id="DejaVuSans-6d" d="M 3328 2828 
Q 3544 3216 3844 3400 
Q 4144 3584 4550 3584 
Q 5097 3584 5394 3201 
Q 5691 2819 5691 2113 
L 5691 0 
L 5113 0 
L 5113 2094 
Q 5113 2597 4934 2840 
Q 4756 3084 4391 3084 
Q 3944 3084 3684 2787 
Q 3425 2491 3425 1978 
L 3425 0 
L 2847 0 
L 2847 2094 
Q 2847 2600 2669 2842 
Q 2491 3084 2119 3084 
Q 1678 3084 1418 2786 
Q 1159 2488 1159 1978 
L 1159 0 
L 581 0 
L 581 3500 
L 1159 3500 
L 1159 2956 
Q 1356 3278 1631 3431 
Q 1906 3584 2284 3584 
Q 2666 3584 2933 3390 
Q 3200 3197 3328 2828 
z
" transform="scale(0.015625)"/>
       <path id="DejaVuSans-65" d="M 3597 1894 
L 3597 1613 
L 953 1613 
Q 991 1019 1311 708 
Q 1631 397 2203 397 
Q 2534 397 2845 478 
Q 3156 559 3463 722 
L 3463 178 
Q 3153 47 2828 -22 
Q 2503 -91 2169 -91 
Q 1331 -91 842 396 
Q 353 884 353 1716 
Q 353 2575 817 3079 
Q 1281 3584 2069 3584 
Q 2775 3584 3186 3129 
Q 3597 2675 3597 1894 
z
M 3022 2063 
Q 3016 2534 2758 2815 
Q 2500 3097 2075 3097 
Q 1594 3097 1305 2825 
Q 1016 2553 972 2059 
L 3022 2063 
z
" transform="scale(0.015625)"/>
      </defs>
      <use xlink:href="#DejaVuSans-54"/>
      <use xlink:href="#DejaVuSans-69" x="57.958984"/>
      <use xlink:href="#DejaVuSans-6d" x="85.742188"/>
      <use xlink:href="#DejaVuSans-65" x="183.154297"/>
     </g>
    </g>
   </g>
   <g id="matplotlib.axis_2">
    <g id="ytick_1">
     <g id="line2d_11">
      <defs>
       <path id="m70042b021a" d="M 0 0 
L -3.5 0 
" style="stroke: #000000; stroke-width: 0.8"/>
      </defs>
      <g>
       <use xlink:href="#m70042b021a" x="49.235" y="344.397187" style="stroke: #000000; stroke-width: 0.8"/>
      </g>
     </g>
     <g id="text_12">
      <!-- 0 -->
      <g transform="translate(35.8725 348.196406) scale(0.1 -0.1)">
       <use xlink:href="#DejaVuSans-30"/>
      </g>
     </g>
    </g>
    <g id="ytick_2">
     <g id="line2d_12">
      <g>
       <use xlink:href="#m70042b021a" x="49.235" y="298.299627" style="stroke: #000000; stroke-width: 0.8"/>
      </g>
     </g>
     <g id="text_13">
      <!-- 50 -->
      <g transform="translate(29.51 302.098845) scale(0.1 -0.1)">
       <use xlink:href="#DejaVuSans-35"/>
       <use xlink:href="#DejaVuSans-30" x="63.623047"/>
      </g>
     </g>
    </g>
    <g id="ytick_3">
     <g id="line2d_13">
      <g>
       <use xlink:href="#m70042b021a" x="49.235" y="252.202066" style="stroke: #000000; stroke-width: 0.8"/>
      </g>
     </g>
     <g id="text_14">
      <!-- 100 -->
      <g transform="translate(23.1475 256.001284) scale(0.1 -0.1)">
       <use xlink:href="#DejaVuSans-31"/>
       <use xlink:href="#DejaVuSans-30" x="63.623047"/>
       <use xlink:href="#DejaVuSans-30" x="127.246094"/>
      </g>
     </g>
    </g>
    <g id="ytick_4">
     <g id="line2d_14">
      <g>
       <use xlink:href="#m70042b021a" x="49.235" y="206.104505" style="stroke: #000000; stroke-width: 0.8"/>
      </g>
     </g>
     <g id="text_15">
      <!-- 150 -->
      <g transform="translate(23.1475 209.903723) scale(0.1 -0.1)">
       <use xlink:href="#DejaVuSans-31"/>
       <use xlink:href="#DejaVuSans-35" x="63.623047"/>
       <use xlink:href="#DejaVuSans-30" x="127.246094"/>
      </g>
     </g>
    </g>
    <g id="ytick_5">
     <g id="line2d_15">
      <g>
       <use xlink:href="#m70042b021a" x="49.235" y="160.006944" style="stroke: #000000; stroke-width: 0.8"/>
      </g>
     </g>
     <g id="text_16">
      <!-- 200 -->
      <g transform="translate(23.1475 163.806162) scale(0.1 -0.1)">
       <use xlink:href="#DejaVuSans-32"/>
       <use xlink:href="#DejaVuSans-30" x="63.623047"/>
       <use xlink:href="#DejaVuSans-30" x="127.246094"/>
      </g>
     </g>
    </g>
    <g id="ytick_6">
     <g id="line2d_16">
      <g>
       <use xlink:href="#m70042b021a" x="49.235" y="113.909383" style="stroke: #000000; stroke-width: 0.8"/>
      </g>
     </g>
     <g id="text_17">
      <!-- 250 -->
      <g transform="translate(23.1475 117.708601) scale(0.1 -0.1)">
       <use xlink:href="#DejaVuSans-32"/>
       <use xlink:href="#DejaVuSans-35" x="63.623047"/>
       <use xlink:href="#DejaVuSans-30" x="127.246094"/>
      </g>
     </g>
    </g>
    <g id="ytick_7">
     <g id="line2d_17">
      <g>
       <use xlink:href="#m70042b021a" x="49.235" y="67.811822" style="stroke: #000000; stroke-width: 0.8"/>
      </g>
     </g>
     <g id="text_18">
      <!-- 300 -->
      <g transform="translate(23.1475 71.61104) scale(0.1 -0.1)">
       <use xlink:href="#DejaVuSans-33"/>
       <use xlink:href="#DejaVuSans-30" x="63.623047"/>
       <use xlink:href="#DejaVuSans-30" x="127.246094"/>
      </g>
     </g>
    </g>
    <g id="text_19">
     <!-- Pellet_Count -->
     <g transform="translate(16.318125 230.485312) rotate(-90) scale(0.12 -0.12)">
      <defs>
       <path id="DejaVuSans-50" d="M 1259 4147 
L 1259 2394 
L 2053 2394 
Q 2494 2394 2734 2622 
Q 2975 2850 2975 3272 
Q 2975 3691 2734 3919 
Q 2494 4147 2053 4147 
L 1259 4147 
z
M 628 4666 
L 2053 4666 
Q 2838 4666 3239 4311 
Q 3641 3956 3641 3272 
Q 3641 2581 3239 2228 
Q 2838 1875 2053 1875 
L 1259 1875 
L 1259 0 
L 628 0 
L 628 4666 
z
" transform="scale(0.015625)"/>
       <path id="DejaVuSans-6c" d="M 603 4863 
L 1178 4863 
L 1178 0 
L 603 0 
L 603 4863 
z
" transform="scale(0.015625)"/>
       <path id="DejaVuSans-74" d="M 1172 4494 
L 1172 3500 
L 2356 3500 
L 2356 3053 
L 1172 3053 
L 1172 1153 
Q 1172 725 1289 603 
Q 1406 481 1766 481 
L 2356 481 
L 2356 0 
L 1766 0 
Q 1100 0 847 248 
Q 594 497 594 1153 
L 594 3053 
L 172 3053 
L 172 3500 
L 594 3500 
L 594 4494 
L 1172 4494 
z
" transform="scale(0.015625)"/>
       <path id="DejaVuSans-5f" d="M 3263 -1063 
L 3263 -1509 
L -63 -1509 
L -63 -1063 
L 3263 -1063 
z
" transform="scale(0.015625)"/>
       <path id="DejaVuSans-43" d="M 4122 4306 
L 4122 3641 
Q 3803 3938 3442 4084 
Q 3081 4231 2675 4231 
Q 1875 4231 1450 3742 
Q 1025 3253 1025 2328 
Q 1025 1406 1450 917 
Q 1875 428 2675 428 
Q 3081 428 3442 575 
Q 3803 722 4122 1019 
L 4122 359 
Q 3791 134 3420 21 
Q 3050 -91 2638 -91 
Q 1578 -91 968 557 
Q 359 1206 359 2328 
Q 359 3453 968 4101 
Q 1578 4750 2638 4750 
Q 3056 4750 3426 4639 
Q 3797 4528 4122 4306 
z
" transform="scale(0.015625)"/>
       <path id="DejaVuSans-6f" d="M 1959 3097 
Q 1497 3097 1228 2736 
Q 959 2375 959 1747 
Q 959 1119 1226 758 
Q 1494 397 1959 397 
Q 2419 397 2687 759 
Q 2956 1122 2956 1747 
Q 2956 2369 2687 2733 
Q 2419 3097 1959 3097 
z
M 1959 3584 
Q 2709 3584 3137 3096 
Q 3566 2609 3566 1747 
Q 3566 888 3137 398 
Q 2709 -91 1959 -91 
Q 1206 -91 779 398 
Q 353 888 353 1747 
Q 353 2609 779 3096 
Q 1206 3584 1959 3584 
z
" transform="scale(0.015625)"/>
       <path id="DejaVuSans-75" d="M 544 1381 
L 544 3500 
L 1119 3500 
L 1119 1403 
Q 1119 906 1312 657 
Q 1506 409 1894 409 
Q 2359 409 2629 706 
Q 2900 1003 2900 1516 
L 2900 3500 
L 3475 3500 
L 3475 0 
L 2900 0 
L 2900 538 
Q 2691 219 2414 64 
Q 2138 -91 1772 -91 
Q 1169 -91 856 284 
Q 544 659 544 1381 
z
M 1991 3584 
L 1991 3584 
z
" transform="scale(0.015625)"/>
       <path id="DejaVuSans-6e" d="M 3513 2113 
L 3513 0 
L 2938 0 
L 2938 2094 
Q 2938 2591 2744 2837 
Q 2550 3084 2163 3084 
Q 1697 3084 1428 2787 
Q 1159 2491 1159 1978 
L 1159 0 
L 581 0 
L 581 3500 
L 1159 3500 
L 1159 2956 
Q 1366 3272 1645 3428 
Q 1925 3584 2291 3584 
Q 2894 3584 3203 3211 
Q 3513 2838 3513 2113 
z
" transform="scale(0.015625)"/>
      </defs>
      <use xlink:href="#DejaVuSans-50"/>
      <use xlink:href="#DejaVuSans-65" x="56.677734"/>
      <use xlink:href="#DejaVuSans-6c" x="118.201172"/>
      <use xlink:href="#DejaVuSans-6c" x="145.984375"/>
      <use xlink:href="#DejaVuSans-65" x="173.767578"/>
      <use xlink:href="#DejaVuSans-74" x="235.291016"/>
      <use xlink:href="#DejaVuSans-5f" x="274.5"/>
      <use xlink:href="#DejaVuSans-43" x="324.5"/>
      <use xlink:href="#DejaVuSans-6f" x="394.324219"/>
      <use xlink:href="#DejaVuSans-75" x="455.505859"/>
      <use xlink:href="#DejaVuSans-6e" x="518.884766"/>
      <use xlink:href="#DejaVuSans-74" x="582.263672"/>
     </g>
    </g>
   </g>
   <g id="line2d_18">
    <path d="M 99.962273 344.397187 
L 104.798764 344.397187 
L 107.535612 343.475236 
L 112.560131 343.475236 
L 112.654145 342.553285 
L 130.109387 342.553285 
L 130.255631 341.631334 
L 153.696422 341.631334 
L 154.291844 340.709383 
L 162.272577 340.709383 
L 162.439712 339.787431 
L 165.33325 339.787431 
L 165.406372 338.86548 
L 167.798503 338.86548 
L 167.840287 337.943529 
L 168.675966 337.943529 
L 168.707304 337.021578 
L 170.608473 337.021578 
L 170.692041 336.099627 
L 175.027125 336.099627 
L 175.058463 335.177675 
L 175.392734 335.177675 
L 175.413626 334.255724 
L 175.632992 334.255724 
L 175.653884 333.333773 
L 176.708929 333.333773 
L 176.729821 332.411822 
L 176.970078 332.411822 
L 176.980524 331.48987 
L 177.293904 331.48987 
L 177.335688 330.567919 
L 177.575945 330.567919 
L 177.607283 329.645968 
L 177.847541 329.645968 
L 177.878879 328.724017 
L 178.26538 328.724017 
L 178.307164 327.802066 
L 178.557868 327.802066 
L 178.57876 326.880114 
L 180.250118 326.880114 
L 180.27101 325.958163 
L 180.908215 325.958163 
L 181.587204 325.036212 
L 183.540603 325.036212 
L 184.679216 324.114261 
L 186.695291 324.114261 
L 186.737075 323.192309 
L 187.854795 323.192309 
L 191.427322 322.270358 
L 191.469106 321.348407 
L 192.419691 321.348407 
L 192.482367 320.426456 
L 194.874497 320.426456 
L 195.845974 319.504505 
L 197.402426 319.504505 
L 197.423318 318.582553 
L 198.050077 318.582553 
L 198.070969 317.660602 
L 199.585637 317.660602 
L 200.076598 316.738651 
L 201.47636 316.738651 
L 201.507698 315.8167 
L 202.991028 315.8167 
L 203.01192 314.894748 
L 203.711801 314.894748 
L 203.753585 313.972797 
L 204.129641 313.972797 
L 204.171425 313.050846 
L 206.803813 313.050846 
L 206.814259 312.128895 
L 207.25299 312.128895 
L 208.89301 311.206944 
L 215.275507 311.206944 
L 215.348629 310.284992 
L 216.717053 309.363041 
L 217.019987 309.363041 
L 217.040879 308.44109 
L 217.47961 308.44109 
L 217.782544 307.519139 
L 218.419749 307.519139 
L 219.161414 306.597187 
L 220.164228 306.597187 
L 221.010353 305.675236 
L 224.112811 305.675236 
L 227.800244 304.753285 
L 228.364327 304.753285 
L 228.364327 304.753285 
L 228.416557 303.831334 
L 228.729937 303.831334 
L 228.803058 302.909383 
L 229.064208 302.909383 
L 229.074654 301.987431 
L 229.304466 301.987431 
L 229.325358 301.06548 
L 230.683336 301.06548 
L 231.278757 300.143529 
L 231.89507 300.143529 
L 231.915962 299.221578 
L 238.152216 299.221578 
L 238.674515 298.299627 
L 238.977448 298.299627 
L 239.6251 297.377675 
L 241.453147 297.377675 
L 241.91277 296.455724 
L 242.33061 296.455724 
L 243.354316 295.533773 
L 244.189995 295.533773 
L 244.910768 294.611822 
L 245.683771 294.611822 
L 246.592572 293.68987 
L 248.671323 293.68987 
L 248.723553 292.767919 
L 251.115684 292.767919 
L 251.147022 291.845968 
L 252.170728 291.845968 
L 252.19162 290.924017 
L 256.150649 290.924017 
L 256.599826 290.002066 
L 257.498181 290.002066 
L 257.539965 289.080114 
L 262.334672 289.080114 
L 262.355564 288.158163 
L 264.131382 288.158163 
L 264.152274 287.236212 
L 264.810371 287.236212 
L 264.852155 286.314261 
L 265.740063 286.314261 
L 265.760955 285.392309 
L 266.105673 285.392309 
L 266.241471 283.548407 
L 271.349558 282.626456 
L 272.018101 282.626456 
L 272.038993 281.704505 
L 274.065514 281.704505 
L 274.096852 280.782553 
L 275.726426 280.782553 
L 276.144265 279.860602 
L 279.298953 279.860602 
L 279.298953 279.860602 
L 279.351183 278.938651 
L 279.789914 278.938651 
L 280.395781 278.0167 
L 282.129815 278.0167 
L 282.40141 277.094748 
L 283.623591 277.094748 
L 284.824879 276.172797 
L 287.415483 276.172797 
L 288.031797 275.250846 
L 289.013719 275.250846 
L 289.118179 274.328895 
L 289.943412 274.328895 
L 290.622401 273.406944 
L 296.493045 273.406944 
L 296.503491 272.484992 
L 296.942222 272.484992 
L 297.255602 271.563041 
L 297.579427 271.563041 
L 297.589873 270.64109 
L 297.945037 270.64109 
L 297.965929 269.719139 
L 299.449259 269.719139 
L 299.470151 268.797187 
L 307.492668 268.797187 
L 307.503114 267.875236 
L 307.962737 267.875236 
L 307.983629 266.953285 
L 308.276117 266.953285 
L 308.3179 266.031334 
L 308.63128 266.031334 
L 308.798416 265.109383 
L 309.331161 265.109383 
L 309.341607 264.187431 
L 313.781151 264.187431 
L 313.791597 263.26548 
L 315.222697 263.26548 
L 315.640536 262.343529 
L 320.038296 262.343529 
L 320.34123 261.421578 
L 320.957543 261.421578 
L 323.078078 260.499627 
L 325.209059 260.499627 
L 325.261289 259.577675 
L 328.708464 259.577675 
L 328.708464 259.577675 
L 328.833816 258.655724 
L 329.408345 258.655724 
L 329.429237 257.733773 
L 331.852706 257.733773 
L 331.873598 256.811822 
L 332.207869 256.811822 
L 332.228761 255.88987 
L 332.803291 255.88987 
L 333.074886 254.967919 
L 334.380634 254.967919 
L 334.589554 254.045968 
L 352.922259 254.045968 
L 352.943151 253.124017 
L 353.371436 253.124017 
L 353.392328 252.202066 
L 353.653478 252.202066 
L 353.67437 251.280114 
L 353.945965 251.280114 
L 353.966857 250.358163 
L 354.123547 250.358163 
L 354.165331 249.436212 
L 354.499603 249.436212 
L 354.541387 248.514261 
L 355.251714 248.514261 
L 359.973299 247.592309 
L 360.422476 246.670358 
L 361.247709 246.670358 
L 361.331277 245.748407 
L 364.621763 245.748407 
L 364.642655 244.826456 
L 365.039602 244.826456 
L 365.060494 243.904505 
L 365.405212 243.904505 
L 365.436549 242.982553 
L 365.760375 242.982553 
L 365.781267 242.060602 
L 366.094647 242.060602 
L 366.115539 241.138651 
L 366.303566 241.138651 
L 366.334904 240.2167 
L 366.648284 240.2167 
L 366.669176 239.294748 
L 366.836312 239.294748 
L 366.86765 238.372797 
L 367.055677 238.372797 
L 367.097461 237.450846 
L 367.400395 237.450846 
L 367.431733 236.528895 
L 367.588423 236.528895 
L 367.630206 235.606944 
L 368.904617 235.606944 
L 372.832307 234.684992 
L 374.670801 233.763041 
L 377.501663 233.763041 
L 378.494031 232.84109 
L 381.857639 232.84109 
L 384.458689 231.919139 
L 385.221246 231.919139 
L 385.57641 230.997187 
L 385.973357 230.997187 
L 385.994249 230.075236 
L 386.401642 230.075236 
L 386.422534 229.153285 
L 387.488025 229.153285 
L 387.571593 228.231334 
L 387.978986 228.231334 
L 387.999878 227.309383 
L 388.219244 227.309383 
L 388.240136 226.387431 
L 388.751989 226.387431 
L 393.557143 225.46548 
L 394.027212 225.46548 
L 394.037658 224.543529 
L 395.17627 224.543529 
L 395.322514 223.621578 
L 397.202792 223.621578 
L 400.691751 222.699627 
L 401.496092 222.699627 
L 401.684119 221.777675 
L 402.164635 221.777675 
L 402.175081 220.855724 
L 403.8151 220.855724 
L 403.835992 219.933773 
L 404.118034 219.933773 
L 404.12848 219.011822 
L 404.431414 219.011822 
L 404.452306 218.08987 
L 405.40289 218.08987 
L 405.423782 217.167919 
L 405.66404 217.167919 
L 405.695378 216.245968 
L 406.071433 216.245968 
L 407.053356 215.324017 
L 407.324952 215.324017 
L 407.356289 214.402066 
L 413.341839 214.402066 
L 413.791017 213.480114 
L 414.710263 213.480114 
L 414.992305 212.558163 
L 424.63395 212.558163 
L 427.349906 211.636212 
L 435.121719 211.636212 
L 435.132165 210.714261 
L 436.751293 210.714261 
L 436.782631 209.792309 
L 437.127348 209.792309 
L 438.349529 208.870358 
L 441.713136 208.870358 
L 441.734028 207.948407 
L 442.245881 207.948407 
L 443.823225 207.026456 
L 445.599043 207.026456 
L 447.019697 206.104505 
L 448.628378 206.104505 
L 450.571332 205.182553 
L 451.250321 205.182553 
L 452.200905 204.260602 
L 452.838111 204.260602 
L 452.838111 204.260602 
L 452.890341 203.338651 
L 453.235058 203.338651 
L 453.276842 202.4167 
L 453.537992 202.4167 
L 453.642451 201.494748 
L 455.073551 201.494748 
L 455.345147 200.572797 
L 456.22261 200.572797 
L 456.264394 199.650846 
L 456.556881 199.650846 
L 456.567327 198.728895 
L 457.058289 198.728895 
L 457.319438 197.806944 
L 457.60148 197.806944 
L 457.622372 196.884992 
L 459.763799 196.884992 
L 460.066733 195.963041 
L 467.117773 195.963041 
L 467.170003 195.04109 
L 467.525166 195.04109 
L 467.744532 194.119139 
L 467.88033 194.119139 
L 467.890776 193.197187 
L 468.141479 193.197187 
L 468.183263 192.275236 
L 468.454859 192.275236 
L 468.507089 191.353285 
L 468.695117 191.353285 
L 468.736901 190.431334 
L 468.966712 190.431334 
L 468.99805 189.509383 
L 479.715631 189.509383 
L 479.736523 188.587431 
L 480.530418 188.587431 
L 480.55131 187.66548 
L 480.791568 187.66548 
L 480.81246 186.743529 
L 481.031826 186.743529 
L 481.052718 185.821578 
L 481.251191 185.821578 
L 481.303421 184.899627 
L 481.564571 184.899627 
L 481.669031 183.977675 
L 481.971964 183.977675 
L 482.003302 183.055724 
L 482.19133 183.055724 
L 482.212222 182.133773 
L 482.598723 182.133773 
L 482.619615 181.211822 
L 482.838981 181.211822 
L 482.859873 180.28987 
L 486.902469 180.28987 
L 487.184511 179.367919 
L 488.908099 179.367919 
L 488.949883 178.445968 
L 497.055967 178.445968 
L 497.076859 177.524017 
L 497.766294 177.524017 
L 497.922984 176.602066 
L 499.197394 176.602066 
L 499.218286 175.680114 
L 499.510774 175.680114 
L 499.667464 174.758163 
L 499.886829 174.758163 
L 499.886829 174.758163 
L 503.563816 173.836212 
L 506.666274 173.836212 
L 506.843856 172.914261 
L 507.658643 172.914261 
L 507.857116 171.992309 
L 510.499951 171.992309 
L 510.520843 171.070358 
L 511.17894 171.070358 
L 511.199832 170.148407 
L 511.899713 170.148407 
L 512.004173 169.226456 
L 513.717314 169.226456 
L 513.748652 168.304505 
L 514.072478 168.304505 
L 514.09337 167.382553 
L 514.364965 167.382553 
L 514.385857 166.460602 
L 514.720129 166.460602 
L 514.730575 165.538651 
L 514.981279 165.538651 
L 515.002171 164.6167 
L 521.24887 164.6167 
L 521.269762 163.694748 
L 524.05884 163.694748 
L 524.100624 162.772797 
L 525.33325 162.772797 
L 525.354142 161.850846 
L 527.589583 161.850846 
L 527.610475 160.928895 
L 528.101436 160.928895 
L 528.122328 160.006944 
L 528.383478 160.006944 
L 528.40437 159.084992 
L 536.541793 159.084992 
L 536.552239 158.163041 
L 537.105876 158.163041 
L 537.126768 157.24109 
L 539.278641 157.24109 
L 539.445777 156.319139 
L 543.530157 156.319139 
L 543.551049 155.397187 
L 543.833091 155.397187 
L 543.853983 154.475236 
L 544.240484 154.475236 
L 544.261376 153.553285 
L 544.585202 153.553285 
L 544.606094 152.631334 
L 544.982149 152.631334 
L 545.337313 151.709383 
L 549.609721 151.709383 
L 549.860424 150.787431 
L 550.205142 150.787431 
L 550.226034 149.86548 
L 550.508075 149.86548 
L 550.508075 148.943529 
L 552.210771 148.943529 
L 552.231663 148.021578 
L 552.88976 148.021578 
L 552.910652 147.099627 
L 553.589641 147.099627 
L 553.610533 146.177675 
L 565.832336 146.177675 
L 565.853228 145.255724 
L 566.218838 145.255724 
L 566.23973 144.333773 
L 566.542663 144.333773 
L 566.563555 143.411822 
L 567.35745 143.411822 
L 567.378342 142.48987 
L 567.931979 142.48987 
L 567.952871 141.567919 
L 568.182683 141.567919 
L 568.203575 140.645968 
L 573.23854 140.645968 
L 573.823515 139.724017 
L 625.802739 139.724017 
L 625.834077 138.802066 
L 626.241471 138.802066 
L 626.262363 137.880114 
L 626.575742 137.880114 
L 626.596634 136.958163 
L 626.930906 136.958163 
L 626.951798 136.036212 
L 627.212947 136.036212 
L 627.233839 135.114261 
L 627.474097 135.114261 
L 627.494989 134.192309 
L 627.735247 134.192309 
L 627.756139 133.270358 
L 628.121748 133.270358 
L 628.14264 132.348407 
L 628.393344 132.348407 
L 628.414236 131.426456 
L 628.675385 131.426456 
L 628.685831 130.504505 
L 632.968685 130.504505 
L 637.658933 129.582553 
L 658.059943 129.582553 
L 658.080835 128.660602 
L 659.658178 128.660602 
L 660.535641 127.738651 
L 673.593123 127.738651 
L 673.634907 126.8167 
L 680.665055 126.8167 
L 680.685947 125.894748 
L 681.103787 125.894748 
L 681.124679 124.972797 
L 681.40672 124.972797 
L 681.417166 124.050846 
L 681.77233 124.050846 
L 681.803668 123.128895 
L 682.117047 123.128895 
L 682.137939 122.206944 
L 682.378197 122.206944 
L 682.388643 121.284992 
L 682.806482 121.284992 
L 682.816928 120.363041 
L 683.088524 120.363041 
L 683.09897 119.44109 
L 684.927018 119.44109 
L 684.947909 118.519139 
L 706.46664 118.519139 
L 706.46664 118.519139 
L 706.508424 117.597187 
L 738.911871 117.597187 
L 738.932763 116.675236 
L 739.38194 116.675236 
L 739.402832 115.753285 
L 746.662792 115.753285 
L 746.69413 114.831334 
L 747.101524 114.831334 
L 747.122415 113.909383 
L 747.394011 113.909383 
L 747.404457 112.987431 
L 747.749175 112.987431 
L 747.770067 112.06548 
L 748.114784 112.06548 
L 748.146122 111.143529 
L 748.38638 111.143529 
L 748.396826 110.221578 
L 748.741543 110.221578 
L 748.751989 109.299627 
L 748.960909 109.299627 
L 748.971355 108.377675 
L 797.963027 108.377675 
L 797.983919 107.455724 
L 798.443542 107.455724 
L 798.464434 106.533773 
L 798.78826 106.533773 
L 798.809152 105.611822 
L 799.456803 105.611822 
L 799.477695 104.68987 
L 799.686615 104.68987 
L 799.697061 103.767919 
L 853.264075 103.767919 
L 853.274521 102.845968 
L 853.661022 102.845968 
L 853.671468 101.924017 
L 854.026632 101.924017 
L 854.047524 101.002066 
L 854.319119 101.002066 
L 854.340011 100.080114 
L 854.590715 100.080114 
L 854.611607 99.158163 
L 854.893648 99.158163 
L 854.904094 98.236212 
L 869.925422 98.236212 
L 869.946314 97.314261 
L 873.978464 97.314261 
L 873.999356 96.392309 
L 893.554241 96.392309 
L 893.585579 95.470358 
L 918.070969 95.470358 
L 918.091861 94.548407 
L 918.478362 94.548407 
L 918.499254 93.626456 
L 918.71862 93.626456 
L 918.729066 92.704505 
L 918.969324 92.704505 
L 918.97977 91.782553 
L 919.261811 91.782553 
L 919.272257 90.860602 
L 919.637867 90.860602 
L 919.658759 89.938651 
L 919.909462 89.938651 
L 920.003476 89.0167 
L 920.369086 89.0167 
L 927.002287 88.094748 
L 967.919212 88.094748 
L 967.95055 87.172797 
L 968.274376 87.172797 
L 968.31616 86.250846 
L 968.545971 86.250846 
L 968.577309 85.328895 
L 968.901135 85.328895 
L 968.922027 84.406944 
L 969.22496 84.406944 
L 969.59057 83.484992 
L 979.639608 83.484992 
L 979.744068 82.563041 
L 980.078339 82.563041 
L 980.088785 81.64109 
L 1009.358437 81.64109 
L 1009.379329 80.719139 
L 1009.66137 80.719139 
L 1009.692708 79.797187 
L 1009.901628 79.797187 
L 1009.932966 78.875236 
L 1010.319467 78.875236 
L 1010.549279 77.031334 
L 1010.747753 77.031334 
L 1010.852213 75.187431 
L 1010.998456 75.187431 
L 1011.30139 73.343529 
L 1011.311836 72.421578 
L 1012.481786 72.421578 
L 1012.502678 71.499627 
L 1025.372133 71.499627 
L 1025.382579 70.577675 
L 1026.249595 70.577675 
L 1026.249595 69.655724 
L 1026.322717 69.655724 
L 1026.374947 68.733773 
L 1027.127058 68.733773 
L 1027.189734 67.811822 
L 1028.140319 67.811822 
L 1028.182103 66.88987 
L 1028.693956 66.88987 
L 1028.714848 65.967919 
L 1036.831379 65.967919 
L 1036.904501 65.045968 
L 1044.780774 65.045968 
L 1044.801666 64.124017 
L 1045.073261 64.124017 
L 1045.125491 63.202066 
L 1045.344857 63.202066 
L 1045.511993 61.358163 
L 1045.710466 61.358163 
L 1045.762696 60.436212 
L 1046.002954 60.436212 
L 1046.023846 59.514261 
L 1046.27455 59.514261 
L 1046.37901 58.592309 
L 1046.483469 56.748407 
L 1046.859525 56.748407 
L 1046.869971 55.826456 
L 1047.214688 55.826456 
L 1047.225134 54.904505 
L 1047.475838 54.904505 
L 1047.49673 53.982553 
L 1073.016273 53.982553 
L 1073.037165 53.060602 
L 1073.350544 53.060602 
L 1073.371436 52.138651 
L 1073.580356 52.138651 
L 1073.737046 50.294748 
L 1073.935519 50.294748 
L 1073.956411 49.372797 
L 1074.395143 49.372797 
L 1074.499603 48.450846 
L 1074.802536 48.450846 
L 1074.823428 47.528895 
L 1075.387511 47.528895 
L 1077.591614 46.606944 
L 1086.324458 46.606944 
L 1086.39758 45.684992 
L 1086.71096 45.684992 
L 1086.731852 44.763041 
L 1086.961663 44.763041 
L 1086.972109 43.84109 
L 1087.275043 43.84109 
L 1087.306381 42.919139 
L 1087.630206 42.919139 
L 1087.922694 41.997187 
L 1087.922694 41.997187 
" clip-path="url(#p1035d0b6f5)" style="fill: none; stroke: #0000ff; stroke-width: 1.5; stroke-linecap: square"/>
   </g>
   <g id="patch_70">
    <path d="M 49.235 359.517187 
L 49.235 26.877187 
" style="fill: none; stroke: #000000; stroke-width: 0.8; stroke-linejoin: miter; stroke-linecap: square"/>
   </g>
   <g id="patch_71">
    <path d="M 1165.235 359.517187 
L 1165.235 26.877187 
" style="fill: none; stroke: #000000; stroke-width: 0.8; stroke-linejoin: miter; stroke-linecap: square"/>
   </g>
   <g id="patch_72">
    <path d="M 49.235 359.517187 
L 1165.235 359.517187 
" style="fill: none; stroke: #000000; stroke-width: 0.8; stroke-linejoin: miter; stroke-linecap: square"/>
   </g>
   <g id="patch_73">
    <path d="M 49.235 26.877187 
L 1165.235 26.877187 
" style="fill: none; stroke: #000000; stroke-width: 0.8; stroke-linejoin: miter; stroke-linecap: square"/>
   </g>
   <g id="text_20">
    <!-- Pellet Count and Cumulative Sum Over Time of Group 7 Mouse 1 -->
    <g transform="translate(315.460625 20.877187) scale(0.18 -0.18)">
     <defs>
      <path id="DejaVuSans-61" d="M 2194 1759 
Q 1497 1759 1228 1600 
Q 959 1441 959 1056 
Q 959 750 1161 570 
Q 1363 391 1709 391 
Q 2188 391 2477 730 
Q 2766 1069 2766 1631 
L 2766 1759 
L 2194 1759 
z
M 3341 1997 
L 3341 0 
L 2766 0 
L 2766 531 
Q 2569 213 2275 61 
Q 1981 -91 1556 -91 
Q 1019 -91 701 211 
Q 384 513 384 1019 
Q 384 1609 779 1909 
Q 1175 2209 1959 2209 
L 2766 2209 
L 2766 2266 
Q 2766 2663 2505 2880 
Q 2244 3097 1772 3097 
Q 1472 3097 1187 3025 
Q 903 2953 641 2809 
L 641 3341 
Q 956 3463 1253 3523 
Q 1550 3584 1831 3584 
Q 2591 3584 2966 3190 
Q 3341 2797 3341 1997 
z
" transform="scale(0.015625)"/>
      <path id="DejaVuSans-64" d="M 2906 2969 
L 2906 4863 
L 3481 4863 
L 3481 0 
L 2906 0 
L 2906 525 
Q 2725 213 2448 61 
Q 2172 -91 1784 -91 
Q 1150 -91 751 415 
Q 353 922 353 1747 
Q 353 2572 751 3078 
Q 1150 3584 1784 3584 
Q 2172 3584 2448 3432 
Q 2725 3281 2906 2969 
z
M 947 1747 
Q 947 1113 1208 752 
Q 1469 391 1925 391 
Q 2381 391 2643 752 
Q 2906 1113 2906 1747 
Q 2906 2381 2643 2742 
Q 2381 3103 1925 3103 
Q 1469 3103 1208 2742 
Q 947 2381 947 1747 
z
" transform="scale(0.015625)"/>
      <path id="DejaVuSans-76" d="M 191 3500 
L 800 3500 
L 1894 563 
L 2988 3500 
L 3597 3500 
L 2284 0 
L 1503 0 
L 191 3500 
z
" transform="scale(0.015625)"/>
      <path id="DejaVuSans-53" d="M 3425 4513 
L 3425 3897 
Q 3066 4069 2747 4153 
Q 2428 4238 2131 4238 
Q 1616 4238 1336 4038 
Q 1056 3838 1056 3469 
Q 1056 3159 1242 3001 
Q 1428 2844 1947 2747 
L 2328 2669 
Q 3034 2534 3370 2195 
Q 3706 1856 3706 1288 
Q 3706 609 3251 259 
Q 2797 -91 1919 -91 
Q 1588 -91 1214 -16 
Q 841 59 441 206 
L 441 856 
Q 825 641 1194 531 
Q 1563 422 1919 422 
Q 2459 422 2753 634 
Q 3047 847 3047 1241 
Q 3047 1584 2836 1778 
Q 2625 1972 2144 2069 
L 1759 2144 
Q 1053 2284 737 2584 
Q 422 2884 422 3419 
Q 422 4038 858 4394 
Q 1294 4750 2059 4750 
Q 2388 4750 2728 4690 
Q 3069 4631 3425 4513 
z
" transform="scale(0.015625)"/>
      <path id="DejaVuSans-4f" d="M 2522 4238 
Q 1834 4238 1429 3725 
Q 1025 3213 1025 2328 
Q 1025 1447 1429 934 
Q 1834 422 2522 422 
Q 3209 422 3611 934 
Q 4013 1447 4013 2328 
Q 4013 3213 3611 3725 
Q 3209 4238 2522 4238 
z
M 2522 4750 
Q 3503 4750 4090 4092 
Q 4678 3434 4678 2328 
Q 4678 1225 4090 567 
Q 3503 -91 2522 -91 
Q 1538 -91 948 565 
Q 359 1222 359 2328 
Q 359 3434 948 4092 
Q 1538 4750 2522 4750 
z
" transform="scale(0.015625)"/>
      <path id="DejaVuSans-72" d="M 2631 2963 
Q 2534 3019 2420 3045 
Q 2306 3072 2169 3072 
Q 1681 3072 1420 2755 
Q 1159 2438 1159 1844 
L 1159 0 
L 581 0 
L 581 3500 
L 1159 3500 
L 1159 2956 
Q 1341 3275 1631 3429 
Q 1922 3584 2338 3584 
Q 2397 3584 2469 3576 
Q 2541 3569 2628 3553 
L 2631 2963 
z
" transform="scale(0.015625)"/>
      <path id="DejaVuSans-66" d="M 2375 4863 
L 2375 4384 
L 1825 4384 
Q 1516 4384 1395 4259 
Q 1275 4134 1275 3809 
L 1275 3500 
L 2222 3500 
L 2222 3053 
L 1275 3053 
L 1275 0 
L 697 0 
L 697 3053 
L 147 3053 
L 147 3500 
L 697 3500 
L 697 3744 
Q 697 4328 969 4595 
Q 1241 4863 1831 4863 
L 2375 4863 
z
" transform="scale(0.015625)"/>
      <path id="DejaVuSans-47" d="M 3809 666 
L 3809 1919 
L 2778 1919 
L 2778 2438 
L 4434 2438 
L 4434 434 
Q 4069 175 3628 42 
Q 3188 -91 2688 -91 
Q 1594 -91 976 548 
Q 359 1188 359 2328 
Q 359 3472 976 4111 
Q 1594 4750 2688 4750 
Q 3144 4750 3555 4637 
Q 3966 4525 4313 4306 
L 4313 3634 
Q 3963 3931 3569 4081 
Q 3175 4231 2741 4231 
Q 1884 4231 1454 3753 
Q 1025 3275 1025 2328 
Q 1025 1384 1454 906 
Q 1884 428 2741 428 
Q 3075 428 3337 486 
Q 3600 544 3809 666 
z
" transform="scale(0.015625)"/>
      <path id="DejaVuSans-70" d="M 1159 525 
L 1159 -1331 
L 581 -1331 
L 581 3500 
L 1159 3500 
L 1159 2969 
Q 1341 3281 1617 3432 
Q 1894 3584 2278 3584 
Q 2916 3584 3314 3078 
Q 3713 2572 3713 1747 
Q 3713 922 3314 415 
Q 2916 -91 2278 -91 
Q 1894 -91 1617 61 
Q 1341 213 1159 525 
z
M 3116 1747 
Q 3116 2381 2855 2742 
Q 2594 3103 2138 3103 
Q 1681 3103 1420 2742 
Q 1159 2381 1159 1747 
Q 1159 1113 1420 752 
Q 1681 391 2138 391 
Q 2594 391 2855 752 
Q 3116 1113 3116 1747 
z
" transform="scale(0.015625)"/>
      <path id="DejaVuSans-37" d="M 525 4666 
L 3525 4666 
L 3525 4397 
L 1831 0 
L 1172 0 
L 2766 4134 
L 525 4134 
L 525 4666 
z
" transform="scale(0.015625)"/>
      <path id="DejaVuSans-4d" d="M 628 4666 
L 1569 4666 
L 2759 1491 
L 3956 4666 
L 4897 4666 
L 4897 0 
L 4281 0 
L 4281 4097 
L 3078 897 
L 2444 897 
L 1241 4097 
L 1241 0 
L 628 0 
L 628 4666 
z
" transform="scale(0.015625)"/>
      <path id="DejaVuSans-73" d="M 2834 3397 
L 2834 2853 
Q 2591 2978 2328 3040 
Q 2066 3103 1784 3103 
Q 1356 3103 1142 2972 
Q 928 2841 928 2578 
Q 928 2378 1081 2264 
Q 1234 2150 1697 2047 
L 1894 2003 
Q 2506 1872 2764 1633 
Q 3022 1394 3022 966 
Q 3022 478 2636 193 
Q 2250 -91 1575 -91 
Q 1294 -91 989 -36 
Q 684 19 347 128 
L 347 722 
Q 666 556 975 473 
Q 1284 391 1588 391 
Q 1994 391 2212 530 
Q 2431 669 2431 922 
Q 2431 1156 2273 1281 
Q 2116 1406 1581 1522 
L 1381 1569 
Q 847 1681 609 1914 
Q 372 2147 372 2553 
Q 372 3047 722 3315 
Q 1072 3584 1716 3584 
Q 2034 3584 2315 3537 
Q 2597 3491 2834 3397 
z
" transform="scale(0.015625)"/>
     </defs>
     <use xlink:href="#DejaVuSans-50"/>
     <use xlink:href="#DejaVuSans-65" x="56.677734"/>
     <use xlink:href="#DejaVuSans-6c" x="118.201172"/>
     <use xlink:href="#DejaVuSans-6c" x="145.984375"/>
     <use xlink:href="#DejaVuSans-65" x="173.767578"/>
     <use xlink:href="#DejaVuSans-74" x="235.291016"/>
     <use xlink:href="#DejaVuSans-20" x="274.5"/>
     <use xlink:href="#DejaVuSans-43" x="306.287109"/>
     <use xlink:href="#DejaVuSans-6f" x="376.111328"/>
     <use xlink:href="#DejaVuSans-75" x="437.292969"/>
     <use xlink:href="#DejaVuSans-6e" x="500.671875"/>
     <use xlink:href="#DejaVuSans-74" x="564.050781"/>
     <use xlink:href="#DejaVuSans-20" x="603.259766"/>
     <use xlink:href="#DejaVuSans-61" x="635.046875"/>
     <use xlink:href="#DejaVuSans-6e" x="696.326172"/>
     <use xlink:href="#DejaVuSans-64" x="759.705078"/>
     <use xlink:href="#DejaVuSans-20" x="823.181641"/>
     <use xlink:href="#DejaVuSans-43" x="854.96875"/>
     <use xlink:href="#DejaVuSans-75" x="924.792969"/>
     <use xlink:href="#DejaVuSans-6d" x="988.171875"/>
     <use xlink:href="#DejaVuSans-75" x="1085.583984"/>
     <use xlink:href="#DejaVuSans-6c" x="1148.962891"/>
     <use xlink:href="#DejaVuSans-61" x="1176.746094"/>
     <use xlink:href="#DejaVuSans-74" x="1238.025391"/>
     <use xlink:href="#DejaVuSans-69" x="1277.234375"/>
     <use xlink:href="#DejaVuSans-76" x="1305.017578"/>
     <use xlink:href="#DejaVuSans-65" x="1364.197266"/>
     <use xlink:href="#DejaVuSans-20" x="1425.720703"/>
     <use xlink:href="#DejaVuSans-53" x="1457.507812"/>
     <use xlink:href="#DejaVuSans-75" x="1520.984375"/>
     <use xlink:href="#DejaVuSans-6d" x="1584.363281"/>
     <use xlink:href="#DejaVuSans-20" x="1681.775391"/>
     <use xlink:href="#DejaVuSans-4f" x="1713.5625"/>
     <use xlink:href="#DejaVuSans-76" x="1792.273438"/>
     <use xlink:href="#DejaVuSans-65" x="1851.453125"/>
     <use xlink:href="#DejaVuSans-72" x="1912.976562"/>
     <use xlink:href="#DejaVuSans-20" x="1954.089844"/>
     <use xlink:href="#DejaVuSans-54" x="1985.876953"/>
     <use xlink:href="#DejaVuSans-69" x="2043.835938"/>
     <use xlink:href="#DejaVuSans-6d" x="2071.619141"/>
     <use xlink:href="#DejaVuSans-65" x="2169.03125"/>
     <use xlink:href="#DejaVuSans-20" x="2230.554688"/>
     <use xlink:href="#DejaVuSans-6f" x="2262.341797"/>
     <use xlink:href="#DejaVuSans-66" x="2323.523438"/>
     <use xlink:href="#DejaVuSans-20" x="2358.728516"/>
     <use xlink:href="#DejaVuSans-47" x="2390.515625"/>
     <use xlink:href="#DejaVuSans-72" x="2468.005859"/>
     <use xlink:href="#DejaVuSans-6f" x="2506.869141"/>
     <use xlink:href="#DejaVuSans-75" x="2568.050781"/>
     <use xlink:href="#DejaVuSans-70" x="2631.429688"/>
     <use xlink:href="#DejaVuSans-20" x="2694.90625"/>
     <use xlink:href="#DejaVuSans-37" x="2726.693359"/>
     <use xlink:href="#DejaVuSans-20" x="2790.316406"/>
     <use xlink:href="#DejaVuSans-4d" x="2822.103516"/>
     <use xlink:href="#DejaVuSans-6f" x="2908.382812"/>
     <use xlink:href="#DejaVuSans-75" x="2969.564453"/>
     <use xlink:href="#DejaVuSans-73" x="3032.943359"/>
     <use xlink:href="#DejaVuSans-65" x="3085.042969"/>
     <use xlink:href="#DejaVuSans-20" x="3146.566406"/>
     <use xlink:href="#DejaVuSans-31" x="3178.353516"/>
    </g>
   </g>
   <g id="legend_1">
    <g id="patch_74">
     <path d="M 1086.550625 64.233437 
L 1158.235 64.233437 
Q 1160.235 64.233437 1160.235 62.233437 
L 1160.235 33.877187 
Q 1160.235 31.877187 1158.235 31.877187 
L 1086.550625 31.877187 
Q 1084.550625 31.877187 1084.550625 33.877187 
L 1084.550625 62.233437 
Q 1084.550625 64.233437 1086.550625 64.233437 
z
" style="fill: #ffffff; opacity: 0.8; stroke: #cccccc; stroke-linejoin: miter"/>
    </g>
    <g id="patch_75">
     <path d="M 1088.550625 43.475625 
L 1108.550625 43.475625 
L 1108.550625 36.475625 
L 1088.550625 36.475625 
z
" style="fill: #add8e6; opacity: 0.9; stroke: #add8e6; stroke-linejoin: miter"/>
    </g>
    <g id="text_21">
     <!-- Meal -->
     <g transform="translate(1116.550625 43.475625) scale(0.1 -0.1)">
      <use xlink:href="#DejaVuSans-4d"/>
      <use xlink:href="#DejaVuSans-65" x="86.279297"/>
      <use xlink:href="#DejaVuSans-61" x="147.802734"/>
      <use xlink:href="#DejaVuSans-6c" x="209.082031"/>
     </g>
    </g>
    <g id="patch_76">
     <path d="M 1088.550625 58.15375 
L 1108.550625 58.15375 
L 1108.550625 51.15375 
L 1088.550625 51.15375 
z
" style="fill: #808080; opacity: 0.5; stroke: #808080; stroke-linejoin: miter"/>
    </g>
    <g id="text_22">
     <!-- Inactive -->
     <g transform="translate(1116.550625 58.15375) scale(0.1 -0.1)">
      <defs>
       <path id="DejaVuSans-49" d="M 628 4666 
L 1259 4666 
L 1259 0 
L 628 0 
L 628 4666 
z
" transform="scale(0.015625)"/>
       <path id="DejaVuSans-63" d="M 3122 3366 
L 3122 2828 
Q 2878 2963 2633 3030 
Q 2388 3097 2138 3097 
Q 1578 3097 1268 2742 
Q 959 2388 959 1747 
Q 959 1106 1268 751 
Q 1578 397 2138 397 
Q 2388 397 2633 464 
Q 2878 531 3122 666 
L 3122 134 
Q 2881 22 2623 -34 
Q 2366 -91 2075 -91 
Q 1284 -91 818 406 
Q 353 903 353 1747 
Q 353 2603 823 3093 
Q 1294 3584 2113 3584 
Q 2378 3584 2631 3529 
Q 2884 3475 3122 3366 
z
" transform="scale(0.015625)"/>
      </defs>
      <use xlink:href="#DejaVuSans-49"/>
      <use xlink:href="#DejaVuSans-6e" x="29.492188"/>
      <use xlink:href="#DejaVuSans-61" x="92.871094"/>
      <use xlink:href="#DejaVuSans-63" x="154.150391"/>
      <use xlink:href="#DejaVuSans-74" x="209.130859"/>
      <use xlink:href="#DejaVuSans-69" x="248.339844"/>
      <use xlink:href="#DejaVuSans-76" x="276.123047"/>
      <use xlink:href="#DejaVuSans-65" x="335.302734"/>
     </g>
    </g>
   </g>
  </g>
 </g>
 <defs>
  <clipPath id="p1035d0b6f5">
   <rect x="49.235" y="26.877187" width="1116" height="332.64"/>
  </clipPath>
 </defs>
</svg>
