<?xml version="1.0" encoding="utf-8" standalone="no"?>
<!DOCTYPE svg PUBLIC "-//W3C//DTD SVG 1.1//EN"
  "http://www.w3.org/Graphics/SVG/1.1/DTD/svg11.dtd">
<svg xmlns:xlink="http://www.w3.org/1999/xlink" width="1172.435pt" height="399.009062pt" viewBox="0 0 1172.435 399.009062" xmlns="http://www.w3.org/2000/svg" version="1.1">
 <metadata>
  <rdf:RDF xmlns:dc="http://purl.org/dc/elements/1.1/" xmlns:cc="http://creativecommons.org/ns#" xmlns:rdf="http://www.w3.org/1999/02/22-rdf-syntax-ns#">
   <cc:Work>
    <dc:type rdf:resource="http://purl.org/dc/dcmitype/StillImage"/>
    <dc:date>2025-03-05T11:06:41.122052</dc:date>
    <dc:format>image/svg+xml</dc:format>
    <dc:creator>
     <cc:Agent>
      <dc:title>Matplotlib v3.8.3, https://matplotlib.org/</dc:title>
     </cc:Agent>
    </dc:creator>
   </cc:Work>
  </rdf:RDF>
 </metadata>
 <defs>
  <style type="text/css">*{stroke-linejoin: round; stroke-linecap: butt}</style>
 </defs>
 <g id="figure_1">
  <g id="patch_1">
   <path d="M 0 399.009062 
L 1172.435 399.009062 
L 1172.435 0 
L 0 0 
z
" style="fill: #ffffff"/>
  </g>
  <g id="axes_1">
   <g id="patch_2">
    <path d="M 49.235 359.517187 
L 1165.235 359.517187 
L 1165.235 26.877187 
L 49.235 26.877187 
z
" style="fill: #ffffff"/>
   </g>
   <g id="patch_3">
    <path d="M 116.689215 359.517187 
L 116.689215 26.877187 
L 116.828832 26.877187 
L 116.828832 359.517187 
z
" clip-path="url(#paec081aa09)" style="fill: #add8e6; stroke: #add8e6; stroke-linejoin: miter"/>
   </g>
   <g id="patch_4">
    <path d="M 117.117375 359.517187 
L 117.117375 26.877187 
L 117.125131 26.877187 
L 117.125131 359.517187 
z
" clip-path="url(#paec081aa09)" style="fill: #add8e6; stroke: #add8e6; stroke-linejoin: miter"/>
   </g>
   <g id="patch_5">
    <path d="M 118.429778 359.517187 
L 118.429778 26.877187 
L 118.491055 26.877187 
L 118.491055 359.517187 
z
" clip-path="url(#paec081aa09)" style="fill: #add8e6; stroke: #add8e6; stroke-linejoin: miter"/>
   </g>
   <g id="patch_6">
    <path d="M 120.336332 359.517187 
L 120.336332 26.877187 
L 120.490687 26.877187 
L 120.490687 359.517187 
z
" clip-path="url(#paec081aa09)" style="fill: #add8e6; stroke: #add8e6; stroke-linejoin: miter"/>
   </g>
   <g id="patch_7">
    <path d="M 127.559206 359.517187 
L 127.559206 26.877187 
L 127.702702 26.877187 
L 127.702702 359.517187 
z
" clip-path="url(#paec081aa09)" style="fill: #add8e6; stroke: #add8e6; stroke-linejoin: miter"/>
   </g>
   <g id="patch_8">
    <path d="M 127.796556 359.517187 
L 127.796556 26.877187 
L 127.878775 26.877187 
L 127.878775 359.517187 
z
" clip-path="url(#paec081aa09)" style="fill: #add8e6; stroke: #add8e6; stroke-linejoin: miter"/>
   </g>
   <g id="patch_9">
    <path d="M 128.25419 359.517187 
L 128.25419 26.877187 
L 128.390705 26.877187 
L 128.390705 359.517187 
z
" clip-path="url(#paec081aa09)" style="fill: #add8e6; stroke: #add8e6; stroke-linejoin: miter"/>
   </g>
   <g id="patch_10">
    <path d="M 128.631933 359.517187 
L 128.631933 26.877187 
L 128.75914 26.877187 
L 128.75914 359.517187 
z
" clip-path="url(#paec081aa09)" style="fill: #add8e6; stroke: #add8e6; stroke-linejoin: miter"/>
   </g>
   <g id="patch_11">
    <path d="M 130.401196 359.517187 
L 130.401196 26.877187 
L 130.545467 26.877187 
L 130.545467 359.517187 
z
" clip-path="url(#paec081aa09)" style="fill: #add8e6; stroke: #add8e6; stroke-linejoin: miter"/>
   </g>
   <g id="patch_12">
    <path d="M 131.189259 359.517187 
L 131.189259 26.877187 
L 131.322671 26.877187 
L 131.322671 359.517187 
z
" clip-path="url(#paec081aa09)" style="fill: #add8e6; stroke: #add8e6; stroke-linejoin: miter"/>
   </g>
   <g id="patch_13">
    <path d="M 135.533687 359.517187 
L 135.533687 26.877187 
L 135.577124 26.877187 
L 135.577124 359.517187 
z
" clip-path="url(#paec081aa09)" style="fill: #add8e6; stroke: #add8e6; stroke-linejoin: miter"/>
   </g>
   <g id="patch_14">
    <path d="M 159.611486 359.517187 
L 159.611486 26.877187 
L 159.791437 26.877187 
L 159.791437 359.517187 
z
" clip-path="url(#paec081aa09)" style="fill: #add8e6; stroke: #add8e6; stroke-linejoin: miter"/>
   </g>
   <g id="patch_15">
    <path d="M 159.896926 359.517187 
L 159.896926 26.877187 
L 160.099371 26.877187 
L 160.099371 359.517187 
z
" clip-path="url(#paec081aa09)" style="fill: #add8e6; stroke: #add8e6; stroke-linejoin: miter"/>
   </g>
   <g id="patch_16">
    <path d="M 164.78819 359.517187 
L 164.78819 26.877187 
L 164.709849 26.877187 
L 164.709849 359.517187 
z
" clip-path="url(#paec081aa09)" style="fill: #add8e6; stroke: #add8e6; stroke-linejoin: miter"/>
   </g>
   <g id="patch_17">
    <path d="M 166.854527 359.517187 
L 166.854527 26.877187 
L 166.890207 26.877187 
L 166.890207 359.517187 
z
" clip-path="url(#paec081aa09)" style="fill: #add8e6; stroke: #add8e6; stroke-linejoin: miter"/>
   </g>
   <g id="patch_18">
    <path d="M 170.718051 359.517187 
L 170.718051 26.877187 
L 170.881714 26.877187 
L 170.881714 359.517187 
z
" clip-path="url(#paec081aa09)" style="fill: #add8e6; stroke: #add8e6; stroke-linejoin: miter"/>
   </g>
   <g id="patch_19">
    <path d="M 178.352797 359.517187 
L 178.352797 26.877187 
L 178.561447 26.877187 
L 178.561447 359.517187 
z
" clip-path="url(#paec081aa09)" style="fill: #add8e6; stroke: #add8e6; stroke-linejoin: miter"/>
   </g>
   <g id="patch_20">
    <path d="M 179.156373 359.517187 
L 179.156373 26.877187 
L 179.286682 26.877187 
L 179.286682 359.517187 
z
" clip-path="url(#paec081aa09)" style="fill: #add8e6; stroke: #add8e6; stroke-linejoin: miter"/>
   </g>
   <g id="patch_21">
    <path d="M 180.228324 359.517187 
L 180.228324 26.877187 
L 180.383455 26.877187 
L 180.383455 359.517187 
z
" clip-path="url(#paec081aa09)" style="fill: #add8e6; stroke: #add8e6; stroke-linejoin: miter"/>
   </g>
   <g id="patch_22">
    <path d="M 181.78118 359.517187 
L 181.78118 26.877187 
L 181.873483 26.877187 
L 181.873483 359.517187 
z
" clip-path="url(#paec081aa09)" style="fill: #add8e6; stroke: #add8e6; stroke-linejoin: miter"/>
   </g>
   <g id="patch_23">
    <path d="M 182.757726 359.517187 
L 182.757726 26.877187 
L 182.938453 26.877187 
L 182.938453 359.517187 
z
" clip-path="url(#paec081aa09)" style="fill: #add8e6; stroke: #add8e6; stroke-linejoin: miter"/>
   </g>
   <g id="patch_24">
    <path d="M 190.254406 359.517187 
L 190.254406 26.877187 
L 190.380062 26.877187 
L 190.380062 359.517187 
z
" clip-path="url(#paec081aa09)" style="fill: #add8e6; stroke: #add8e6; stroke-linejoin: miter"/>
   </g>
   <g id="patch_25">
    <path d="M 207.534388 359.517187 
L 207.534388 26.877187 
L 207.692621 26.877187 
L 207.692621 359.517187 
z
" clip-path="url(#paec081aa09)" style="fill: #add8e6; stroke: #add8e6; stroke-linejoin: miter"/>
   </g>
   <g id="patch_26">
    <path d="M 207.772513 359.517187 
L 207.772513 26.877187 
L 207.919111 26.877187 
L 207.919111 359.517187 
z
" clip-path="url(#paec081aa09)" style="fill: #add8e6; stroke: #add8e6; stroke-linejoin: miter"/>
   </g>
   <g id="patch_27">
    <path d="M 221.784672 359.517187 
L 221.784672 26.877187 
L 220.044108 26.877187 
L 220.044108 359.517187 
z
" clip-path="url(#paec081aa09)" style="fill: #add8e6; stroke: #add8e6; stroke-linejoin: miter"/>
   </g>
   <g id="patch_28">
    <path d="M 229.484572 359.517187 
L 229.484572 26.877187 
L 227.92939 26.877187 
L 227.92939 359.517187 
z
" clip-path="url(#paec081aa09)" style="fill: #add8e6; stroke: #add8e6; stroke-linejoin: miter"/>
   </g>
   <g id="patch_29">
    <path d="M 232.310274 359.517187 
L 232.310274 26.877187 
L 231.01571 26.877187 
L 231.01571 359.517187 
z
" clip-path="url(#paec081aa09)" style="fill: #add8e6; stroke: #add8e6; stroke-linejoin: miter"/>
   </g>
   <g id="patch_30">
    <path d="M 249.496402 359.517187 
L 249.496402 26.877187 
L 239.683625 26.877187 
L 239.683625 359.517187 
z
" clip-path="url(#paec081aa09)" style="fill: #add8e6; stroke: #add8e6; stroke-linejoin: miter"/>
   </g>
   <g id="patch_31">
    <path d="M 250.884819 359.517187 
L 250.884819 26.877187 
L 241.614223 26.877187 
L 241.614223 359.517187 
z
" clip-path="url(#paec081aa09)" style="fill: #add8e6; stroke: #add8e6; stroke-linejoin: miter"/>
   </g>
   <g id="patch_32">
    <path d="M 264.125204 359.517187 
L 264.125204 26.877187 
L 264.137615 26.877187 
L 264.137615 359.517187 
z
" clip-path="url(#paec081aa09)" style="fill: #add8e6; stroke: #add8e6; stroke-linejoin: miter"/>
   </g>
   <g id="patch_33">
    <path d="M 282.15912 359.517187 
L 282.15912 26.877187 
L 282.297186 26.877187 
L 282.297186 359.517187 
z
" clip-path="url(#paec081aa09)" style="fill: #add8e6; stroke: #add8e6; stroke-linejoin: miter"/>
   </g>
   <g id="patch_34">
    <path d="M 302.26713 359.517187 
L 302.26713 26.877187 
L 302.457941 26.877187 
L 302.457941 359.517187 
z
" clip-path="url(#paec081aa09)" style="fill: #add8e6; stroke: #add8e6; stroke-linejoin: miter"/>
   </g>
   <g id="patch_35">
    <path d="M 302.653405 359.517187 
L 302.653405 26.877187 
L 302.703823 26.877187 
L 302.703823 359.517187 
z
" clip-path="url(#paec081aa09)" style="fill: #add8e6; stroke: #add8e6; stroke-linejoin: miter"/>
   </g>
   <g id="patch_36">
    <path d="M 319.45481 359.517187 
L 319.45481 26.877187 
L 318.638824 26.877187 
L 318.638824 359.517187 
z
" clip-path="url(#paec081aa09)" style="fill: #add8e6; stroke: #add8e6; stroke-linejoin: miter"/>
   </g>
   <g id="patch_37">
    <path d="M 341.743954 359.517187 
L 341.743954 26.877187 
L 341.78584 26.877187 
L 341.78584 359.517187 
z
" clip-path="url(#paec081aa09)" style="fill: #add8e6; stroke: #add8e6; stroke-linejoin: miter"/>
   </g>
   <g id="patch_38">
    <path d="M 353.689 359.517187 
L 353.689 26.877187 
L 353.84956 26.877187 
L 353.84956 359.517187 
z
" clip-path="url(#paec081aa09)" style="fill: #add8e6; stroke: #add8e6; stroke-linejoin: miter"/>
   </g>
   <g id="patch_39">
    <path d="M 353.949619 359.517187 
L 353.949619 26.877187 
L 354.132673 26.877187 
L 354.132673 359.517187 
z
" clip-path="url(#paec081aa09)" style="fill: #add8e6; stroke: #add8e6; stroke-linejoin: miter"/>
   </g>
   <g id="patch_40">
    <path d="M 354.238937 359.517187 
L 354.238937 26.877187 
L 354.322708 26.877187 
L 354.322708 359.517187 
z
" clip-path="url(#paec081aa09)" style="fill: #add8e6; stroke: #add8e6; stroke-linejoin: miter"/>
   </g>
   <g id="patch_41">
    <path d="M 381.838973 359.517187 
L 381.838973 26.877187 
L 382.071669 26.877187 
L 382.071669 359.517187 
z
" clip-path="url(#paec081aa09)" style="fill: #add8e6; stroke: #add8e6; stroke-linejoin: miter"/>
   </g>
   <g id="patch_42">
    <path d="M 390.645729 359.517187 
L 390.645729 26.877187 
L 390.875323 26.877187 
L 390.875323 359.517187 
z
" clip-path="url(#paec081aa09)" style="fill: #add8e6; stroke: #add8e6; stroke-linejoin: miter"/>
   </g>
   <g id="patch_43">
    <path d="M 398.163352 359.517187 
L 398.163352 26.877187 
L 398.336322 26.877187 
L 398.336322 359.517187 
z
" clip-path="url(#paec081aa09)" style="fill: #add8e6; stroke: #add8e6; stroke-linejoin: miter"/>
   </g>
   <g id="patch_44">
    <path d="M 398.93978 359.517187 
L 398.93978 26.877187 
L 399.153084 26.877187 
L 399.153084 359.517187 
z
" clip-path="url(#paec081aa09)" style="fill: #add8e6; stroke: #add8e6; stroke-linejoin: miter"/>
   </g>
   <g id="patch_45">
    <path d="M 407.915628 359.517187 
L 407.915628 26.877187 
L 408.050591 26.877187 
L 408.050591 359.517187 
z
" clip-path="url(#paec081aa09)" style="fill: #add8e6; stroke: #add8e6; stroke-linejoin: miter"/>
   </g>
   <g id="patch_46">
    <path d="M 408.230543 359.517187 
L 408.230543 26.877187 
L 408.379468 26.877187 
L 408.379468 359.517187 
z
" clip-path="url(#paec081aa09)" style="fill: #add8e6; stroke: #add8e6; stroke-linejoin: miter"/>
   </g>
   <g id="patch_47">
    <path d="M 413.072164 359.517187 
L 413.072164 26.877187 
L 413.124909 26.877187 
L 413.124909 359.517187 
z
" clip-path="url(#paec081aa09)" style="fill: #add8e6; stroke: #add8e6; stroke-linejoin: miter"/>
   </g>
   <g id="patch_48">
    <path d="M 414.053365 359.517187 
L 414.053365 26.877187 
L 414.246502 26.877187 
L 414.246502 359.517187 
z
" clip-path="url(#paec081aa09)" style="fill: #add8e6; stroke: #add8e6; stroke-linejoin: miter"/>
   </g>
   <g id="patch_49">
    <path d="M 423.944483 359.517187 
L 423.944483 26.877187 
L 423.933624 26.877187 
L 423.933624 359.517187 
z
" clip-path="url(#paec081aa09)" style="fill: #add8e6; stroke: #add8e6; stroke-linejoin: miter"/>
   </g>
   <g id="patch_50">
    <path d="M 432.321528 359.517187 
L 432.321528 26.877187 
L 432.441754 26.877187 
L 432.441754 359.517187 
z
" clip-path="url(#paec081aa09)" style="fill: #add8e6; stroke: #add8e6; stroke-linejoin: miter"/>
   </g>
   <g id="patch_51">
    <path d="M 432.567409 359.517187 
L 432.567409 26.877187 
L 432.77063 26.877187 
L 432.77063 359.517187 
z
" clip-path="url(#paec081aa09)" style="fill: #add8e6; stroke: #add8e6; stroke-linejoin: miter"/>
   </g>
   <g id="patch_52">
    <path d="M 434.896693 359.517187 
L 434.896693 26.877187 
L 434.852481 26.877187 
L 434.852481 359.517187 
z
" clip-path="url(#paec081aa09)" style="fill: #add8e6; stroke: #add8e6; stroke-linejoin: miter"/>
   </g>
   <g id="patch_53">
    <path d="M 436.955274 359.517187 
L 436.955274 26.877187 
L 436.074909 26.877187 
L 436.074909 359.517187 
z
" clip-path="url(#paec081aa09)" style="fill: #add8e6; stroke: #add8e6; stroke-linejoin: miter"/>
   </g>
   <g id="patch_54">
    <path d="M 440.344875 359.517187 
L 440.344875 26.877187 
L 440.361164 26.877187 
L 440.361164 359.517187 
z
" clip-path="url(#paec081aa09)" style="fill: #add8e6; stroke: #add8e6; stroke-linejoin: miter"/>
   </g>
   <g id="patch_55">
    <path d="M 448.572995 359.517187 
L 448.572995 26.877187 
L 448.389165 26.877187 
L 448.389165 359.517187 
z
" clip-path="url(#paec081aa09)" style="fill: #add8e6; stroke: #add8e6; stroke-linejoin: miter"/>
   </g>
   <g id="patch_56">
    <path d="M 475.276376 359.517187 
L 475.276376 26.877187 
L 475.421423 26.877187 
L 475.421423 359.517187 
z
" clip-path="url(#paec081aa09)" style="fill: #add8e6; stroke: #add8e6; stroke-linejoin: miter"/>
   </g>
   <g id="patch_57">
    <path d="M 482.612496 359.517187 
L 482.612496 26.877187 
L 482.702472 26.877187 
L 482.702472 359.517187 
z
" clip-path="url(#paec081aa09)" style="fill: #add8e6; stroke: #add8e6; stroke-linejoin: miter"/>
   </g>
   <g id="patch_58">
    <path d="M 484.862663 359.517187 
L 484.862663 26.877187 
L 484.843272 26.877187 
L 484.843272 359.517187 
z
" clip-path="url(#paec081aa09)" style="fill: #add8e6; stroke: #add8e6; stroke-linejoin: miter"/>
   </g>
   <g id="patch_59">
    <path d="M 492.352362 359.517187 
L 492.352362 26.877187 
L 492.448543 26.877187 
L 492.448543 359.517187 
z
" clip-path="url(#paec081aa09)" style="fill: #add8e6; stroke: #add8e6; stroke-linejoin: miter"/>
   </g>
   <g id="patch_60">
    <path d="M 498.304718 359.517187 
L 498.304718 26.877187 
L 498.46838 26.877187 
L 498.46838 359.517187 
z
" clip-path="url(#paec081aa09)" style="fill: #add8e6; stroke: #add8e6; stroke-linejoin: miter"/>
   </g>
   <g id="patch_61">
    <path d="M 498.618081 359.517187 
L 498.618081 26.877187 
L 498.756923 26.877187 
L 498.756923 359.517187 
z
" clip-path="url(#paec081aa09)" style="fill: #add8e6; stroke: #add8e6; stroke-linejoin: miter"/>
   </g>
   <g id="patch_62">
    <path d="M 516.141618 359.517187 
L 516.141618 26.877187 
L 516.293646 26.877187 
L 516.293646 359.517187 
z
" clip-path="url(#paec081aa09)" style="fill: #add8e6; stroke: #add8e6; stroke-linejoin: miter"/>
   </g>
   <g id="patch_63">
    <path d="M 523.781793 359.517187 
L 523.781793 26.877187 
L 524.011386 26.877187 
L 524.011386 359.517187 
z
" clip-path="url(#paec081aa09)" style="fill: #add8e6; stroke: #add8e6; stroke-linejoin: miter"/>
   </g>
   <g id="patch_64">
    <path d="M 528.497759 359.517187 
L 528.497759 26.877187 
L 528.667627 26.877187 
L 528.667627 359.517187 
z
" clip-path="url(#paec081aa09)" style="fill: #add8e6; stroke: #add8e6; stroke-linejoin: miter"/>
   </g>
   <g id="patch_65">
    <path d="M 538.759639 359.517187 
L 538.759639 26.877187 
L 538.906237 26.877187 
L 538.906237 359.517187 
z
" clip-path="url(#paec081aa09)" style="fill: #add8e6; stroke: #add8e6; stroke-linejoin: miter"/>
   </g>
   <g id="patch_66">
    <path d="M 539.106356 359.517187 
L 539.106356 26.877187 
L 539.134279 26.877187 
L 539.134279 359.517187 
z
" clip-path="url(#paec081aa09)" style="fill: #add8e6; stroke: #add8e6; stroke-linejoin: miter"/>
   </g>
   <g id="patch_67">
    <path d="M 545.876249 359.517187 
L 545.876249 26.877187 
L 546.105066 26.877187 
L 546.105066 359.517187 
z
" clip-path="url(#paec081aa09)" style="fill: #add8e6; stroke: #add8e6; stroke-linejoin: miter"/>
   </g>
   <g id="patch_68">
    <path d="M 548.372298 359.517187 
L 548.372298 26.877187 
L 548.468479 26.877187 
L 548.468479 359.517187 
z
" clip-path="url(#paec081aa09)" style="fill: #add8e6; stroke: #add8e6; stroke-linejoin: miter"/>
   </g>
   <g id="patch_69">
    <path d="M 568.719985 359.517187 
L 568.719985 26.877187 
L 568.7673 26.877187 
L 568.7673 359.517187 
z
" clip-path="url(#paec081aa09)" style="fill: #add8e6; stroke: #add8e6; stroke-linejoin: miter"/>
   </g>
   <g id="patch_70">
    <path d="M 583.50702 359.517187 
L 583.50702 26.877187 
L 583.628798 26.877187 
L 583.628798 359.517187 
z
" clip-path="url(#paec081aa09)" style="fill: #add8e6; stroke: #add8e6; stroke-linejoin: miter"/>
   </g>
   <g id="patch_71">
    <path d="M 583.915014 359.517187 
L 583.915014 26.877187 
L 583.845205 26.877187 
L 583.845205 359.517187 
z
" clip-path="url(#paec081aa09)" style="fill: #add8e6; stroke: #add8e6; stroke-linejoin: miter"/>
   </g>
   <g id="patch_72">
    <path d="M 639.409057 359.517187 
L 639.409057 26.877187 
L 639.430776 26.877187 
L 639.430776 359.517187 
z
" clip-path="url(#paec081aa09)" style="fill: #add8e6; stroke: #add8e6; stroke-linejoin: miter"/>
   </g>
   <g id="patch_73">
    <path d="M 639.722421 359.517187 
L 639.722421 26.877187 
L 639.737158 26.877187 
L 639.737158 359.517187 
z
" clip-path="url(#paec081aa09)" style="fill: #add8e6; stroke: #add8e6; stroke-linejoin: miter"/>
   </g>
   <g id="patch_74">
    <path d="M 676.022173 359.517187 
L 676.022173 26.877187 
L 676.126111 26.877187 
L 676.126111 359.517187 
z
" clip-path="url(#paec081aa09)" style="fill: #add8e6; stroke: #add8e6; stroke-linejoin: miter"/>
   </g>
   <g id="patch_75">
    <path d="M 676.327004 359.517187 
L 676.327004 26.877187 
L 676.464295 26.877187 
L 676.464295 359.517187 
z
" clip-path="url(#paec081aa09)" style="fill: #add8e6; stroke: #add8e6; stroke-linejoin: miter"/>
   </g>
   <g id="patch_76">
    <path d="M 698.81937 359.517187 
L 698.81937 26.877187 
L 698.913224 26.877187 
L 698.913224 359.517187 
z
" clip-path="url(#paec081aa09)" style="fill: #add8e6; stroke: #add8e6; stroke-linejoin: miter"/>
   </g>
   <g id="patch_77">
    <path d="M 699.064476 359.517187 
L 699.064476 26.877187 
L 699.138939 26.877187 
L 699.138939 359.517187 
z
" clip-path="url(#paec081aa09)" style="fill: #add8e6; stroke: #add8e6; stroke-linejoin: miter"/>
   </g>
   <g id="patch_78">
    <path d="M 718.55274 359.517187 
L 718.55274 26.877187 
L 718.662107 26.877187 
L 718.662107 359.517187 
z
" clip-path="url(#paec081aa09)" style="fill: #add8e6; stroke: #add8e6; stroke-linejoin: miter"/>
   </g>
   <g id="patch_79">
    <path d="M 718.977798 359.517187 
L 718.977798 26.877187 
L 718.990208 26.877187 
L 718.990208 359.517187 
z
" clip-path="url(#paec081aa09)" style="fill: #add8e6; stroke: #add8e6; stroke-linejoin: miter"/>
   </g>
   <g id="patch_80">
    <path d="M 726.557472 359.517187 
L 726.557472 26.877187 
L 726.660634 26.877187 
L 726.660634 359.517187 
z
" clip-path="url(#paec081aa09)" style="fill: #add8e6; stroke: #add8e6; stroke-linejoin: miter"/>
   </g>
   <g id="patch_81">
    <path d="M 736.527707 359.517187 
L 736.527707 26.877187 
L 736.683613 26.877187 
L 736.683613 359.517187 
z
" clip-path="url(#paec081aa09)" style="fill: #add8e6; stroke: #add8e6; stroke-linejoin: miter"/>
   </g>
   <g id="patch_82">
    <path d="M 736.947334 359.517187 
L 736.947334 26.877187 
L 736.862788 26.877187 
L 736.862788 359.517187 
z
" clip-path="url(#paec081aa09)" style="fill: #add8e6; stroke: #add8e6; stroke-linejoin: miter"/>
   </g>
   <g id="patch_83">
    <path d="M 742.469203 359.517187 
L 742.469203 26.877187 
L 742.63209 26.877187 
L 742.63209 359.517187 
z
" clip-path="url(#paec081aa09)" style="fill: #add8e6; stroke: #add8e6; stroke-linejoin: miter"/>
   </g>
   <g id="patch_84">
    <path d="M 742.771708 359.517187 
L 742.771708 26.877187 
L 742.936146 26.877187 
L 742.936146 359.517187 
z
" clip-path="url(#paec081aa09)" style="fill: #add8e6; stroke: #add8e6; stroke-linejoin: miter"/>
   </g>
   <g id="patch_85">
    <path d="M 752.226134 359.517187 
L 752.226134 26.877187 
L 752.378161 26.877187 
L 752.378161 359.517187 
z
" clip-path="url(#paec081aa09)" style="fill: #add8e6; stroke: #add8e6; stroke-linejoin: miter"/>
   </g>
   <g id="patch_86">
    <path d="M 758.829262 359.517187 
L 758.829262 26.877187 
L 758.614406 26.877187 
L 758.614406 359.517187 
z
" clip-path="url(#paec081aa09)" style="fill: #add8e6; stroke: #add8e6; stroke-linejoin: miter"/>
   </g>
   <g id="patch_87">
    <path d="M 766.316633 359.517187 
L 766.316633 26.877187 
L 766.533816 26.877187 
L 766.533816 359.517187 
z
" clip-path="url(#paec081aa09)" style="fill: #add8e6; stroke: #add8e6; stroke-linejoin: miter"/>
   </g>
   <g id="patch_88">
    <path d="M 774.274826 359.517187 
L 774.274826 26.877187 
L 774.435386 26.877187 
L 774.435386 359.517187 
z
" clip-path="url(#paec081aa09)" style="fill: #add8e6; stroke: #add8e6; stroke-linejoin: miter"/>
   </g>
   <g id="patch_89">
    <path d="M 781.023777 359.517187 
L 781.023777 26.877187 
L 781.24251 26.877187 
L 781.24251 359.517187 
z
" clip-path="url(#paec081aa09)" style="fill: #add8e6; stroke: #add8e6; stroke-linejoin: miter"/>
   </g>
   <g id="patch_90">
    <path d="M 781.328608 359.517187 
L 781.328608 26.877187 
L 781.493822 26.877187 
L 781.493822 359.517187 
z
" clip-path="url(#paec081aa09)" style="fill: #add8e6; stroke: #add8e6; stroke-linejoin: miter"/>
   </g>
   <g id="patch_91">
    <path d="M 783.016427 359.517187 
L 783.016427 26.877187 
L 783.090114 26.877187 
L 783.090114 359.517187 
z
" clip-path="url(#paec081aa09)" style="fill: #add8e6; stroke: #add8e6; stroke-linejoin: miter"/>
   </g>
   <g id="patch_92">
    <path d="M 783.872747 359.517187 
L 783.872747 26.877187 
L 783.942556 26.877187 
L 783.942556 359.517187 
z
" clip-path="url(#paec081aa09)" style="fill: #add8e6; stroke: #add8e6; stroke-linejoin: miter"/>
   </g>
   <g id="patch_93">
    <path d="M 800.422841 359.517187 
L 800.422841 26.877187 
L 800.397244 26.877187 
L 800.397244 359.517187 
z
" clip-path="url(#paec081aa09)" style="fill: #add8e6; stroke: #add8e6; stroke-linejoin: miter"/>
   </g>
   <g id="patch_94">
    <path d="M 818.230266 359.517187 
L 818.230266 26.877187 
L 818.314812 26.877187 
L 818.314812 359.517187 
z
" clip-path="url(#paec081aa09)" style="fill: #add8e6; stroke: #add8e6; stroke-linejoin: miter"/>
   </g>
   <g id="patch_95">
    <path d="M 832.156328 359.517187 
L 832.156328 26.877187 
L 832.312234 26.877187 
L 832.312234 359.517187 
z
" clip-path="url(#paec081aa09)" style="fill: #add8e6; stroke: #add8e6; stroke-linejoin: miter"/>
   </g>
   <g id="patch_96">
    <path d="M 832.513128 359.517187 
L 832.513128 26.877187 
L 832.533295 26.877187 
L 832.533295 359.517187 
z
" clip-path="url(#paec081aa09)" style="fill: #add8e6; stroke: #add8e6; stroke-linejoin: miter"/>
   </g>
   <g id="patch_97">
    <path d="M 854.91862 359.517187 
L 854.91862 26.877187 
L 855.067545 26.877187 
L 855.067545 359.517187 
z
" clip-path="url(#paec081aa09)" style="fill: #add8e6; stroke: #add8e6; stroke-linejoin: miter"/>
   </g>
   <g id="patch_98">
    <path d="M 869.949986 359.517187 
L 869.949986 26.877187 
L 870.042289 26.877187 
L 870.042289 359.517187 
z
" clip-path="url(#paec081aa09)" style="fill: #add8e6; stroke: #add8e6; stroke-linejoin: miter"/>
   </g>
   <g id="patch_99">
    <path d="M 870.232323 359.517187 
L 870.232323 26.877187 
L 870.319197 26.877187 
L 870.319197 359.517187 
z
" clip-path="url(#paec081aa09)" style="fill: #add8e6; stroke: #add8e6; stroke-linejoin: miter"/>
   </g>
   <g id="patch_100">
    <path d="M 873.310112 359.517187 
L 873.310112 26.877187 
L 873.284515 26.877187 
L 873.284515 359.517187 
z
" clip-path="url(#paec081aa09)" style="fill: #add8e6; stroke: #add8e6; stroke-linejoin: miter"/>
   </g>
   <g id="patch_101">
    <path d="M 876.295597 359.517187 
L 876.295597 26.877187 
L 876.46469 26.877187 
L 876.46469 359.517187 
z
" clip-path="url(#paec081aa09)" style="fill: #add8e6; stroke: #add8e6; stroke-linejoin: miter"/>
   </g>
   <g id="patch_102">
    <path d="M 892.854223 359.517187 
L 892.854223 26.877187 
L 892.813889 26.877187 
L 892.813889 359.517187 
z
" clip-path="url(#paec081aa09)" style="fill: #add8e6; stroke: #add8e6; stroke-linejoin: miter"/>
   </g>
   <g id="patch_103">
    <path d="M 910.567019 359.517187 
L 910.567019 26.877187 
L 910.684142 26.877187 
L 910.684142 359.517187 
z
" clip-path="url(#paec081aa09)" style="fill: #add8e6; stroke: #add8e6; stroke-linejoin: miter"/>
   </g>
   <g id="patch_104">
    <path d="M 932.054139 359.517187 
L 932.054139 26.877187 
L 932.171262 26.877187 
L 932.171262 359.517187 
z
" clip-path="url(#paec081aa09)" style="fill: #add8e6; stroke: #add8e6; stroke-linejoin: miter"/>
   </g>
   <g id="patch_105">
    <path d="M 960.631497 359.517187 
L 960.631497 26.877187 
L 960.769563 26.877187 
L 960.769563 359.517187 
z
" clip-path="url(#paec081aa09)" style="fill: #add8e6; stroke: #add8e6; stroke-linejoin: miter"/>
   </g>
   <g id="patch_106">
    <path d="M 989.847216 359.517187 
L 989.847216 26.877187 
L 989.343042 26.877187 
L 989.343042 359.517187 
z
" clip-path="url(#paec081aa09)" style="fill: #add8e6; stroke: #add8e6; stroke-linejoin: miter"/>
   </g>
   <g id="patch_107">
    <path d="M 1015.059794 359.517187 
L 1015.059794 26.877187 
L 1015.055916 26.877187 
L 1015.055916 359.517187 
z
" clip-path="url(#paec081aa09)" style="fill: #add8e6; stroke: #add8e6; stroke-linejoin: miter"/>
   </g>
   <g id="patch_108">
    <path d="M 1026.800843 359.517187 
L 1026.800843 26.877187 
L 1026.980019 26.877187 
L 1026.980019 359.517187 
z
" clip-path="url(#paec081aa09)" style="fill: #add8e6; stroke: #add8e6; stroke-linejoin: miter"/>
   </g>
   <g id="patch_109">
    <path d="M 1031.059174 359.517187 
L 1031.059174 26.877187 
L 1031.13674 26.877187 
L 1031.13674 359.517187 
z
" clip-path="url(#paec081aa09)" style="fill: #add8e6; stroke: #add8e6; stroke-linejoin: miter"/>
   </g>
   <g id="patch_110">
    <path d="M 1034.40146 359.517187 
L 1034.40146 26.877187 
L 1034.068705 26.877187 
L 1034.068705 359.517187 
z
" clip-path="url(#paec081aa09)" style="fill: #add8e6; stroke: #add8e6; stroke-linejoin: miter"/>
   </g>
   <g id="patch_111">
    <path d="M 1048.330624 359.517187 
L 1048.330624 26.877187 
L 1048.383369 26.877187 
L 1048.383369 359.517187 
z
" clip-path="url(#paec081aa09)" style="fill: #add8e6; stroke: #add8e6; stroke-linejoin: miter"/>
   </g>
   <g id="patch_112">
    <path d="M 1048.564096 359.517187 
L 1048.564096 26.877187 
L 1048.73629 26.877187 
L 1048.73629 359.517187 
z
" clip-path="url(#paec081aa09)" style="fill: #add8e6; stroke: #add8e6; stroke-linejoin: miter"/>
   </g>
   <g id="patch_113">
    <path d="M 1071.012249 359.517187 
L 1071.012249 26.877187 
L 1071.217797 26.877187 
L 1071.217797 359.517187 
z
" clip-path="url(#paec081aa09)" style="fill: #add8e6; stroke: #add8e6; stroke-linejoin: miter"/>
   </g>
   <g id="patch_114">
    <path d="M 1071.257355 359.517187 
L 1071.257355 26.877187 
L 1071.418691 26.877187 
L 1071.418691 359.517187 
z
" clip-path="url(#paec081aa09)" style="fill: #add8e6; stroke: #add8e6; stroke-linejoin: miter"/>
   </g>
   <g id="patch_115">
    <path d="M 1089.787688 359.517187 
L 1089.787688 26.877187 
L 1089.991685 26.877187 
L 1089.991685 359.517187 
z
" clip-path="url(#paec081aa09)" style="fill: #add8e6; stroke: #add8e6; stroke-linejoin: miter"/>
   </g>
   <g id="patch_116">
    <path d="M 1090.042102 359.517187 
L 1090.042102 26.877187 
L 1090.256958 26.877187 
L 1090.256958 359.517187 
z
" clip-path="url(#paec081aa09)" style="fill: #add8e6; stroke: #add8e6; stroke-linejoin: miter"/>
   </g>
   <g id="patch_117">
    <path d="M 1094.100315 359.517187 
L 1094.100315 26.877187 
L 1094.277164 26.877187 
L 1094.277164 359.517187 
z
" clip-path="url(#paec081aa09)" style="fill: #add8e6; stroke: #add8e6; stroke-linejoin: miter"/>
   </g>
   <g id="patch_118">
    <path d="M 1098.250055 359.517187 
L 1098.250055 26.877187 
L 1098.399756 26.877187 
L 1098.399756 359.517187 
z
" clip-path="url(#paec081aa09)" style="fill: #add8e6; stroke: #add8e6; stroke-linejoin: miter"/>
   </g>
   <g id="patch_119">
    <path d="M 1114.507727 359.517187 
L 1114.507727 26.877187 
L 1110.969201 26.877187 
L 1110.969201 359.517187 
z
" clip-path="url(#paec081aa09)" style="fill: #add8e6; stroke: #add8e6; stroke-linejoin: miter"/>
   </g>
   <g id="patch_120">
    <path d="M 225.617946 359.517187 
L 225.617946 26.877187 
L 393.158843 26.877187 
L 393.158843 359.517187 
z
" clip-path="url(#paec081aa09)" style="fill: #808080; opacity: 0.4; stroke: #808080; stroke-linejoin: miter"/>
   </g>
   <g id="patch_121">
    <path d="M 397.812757 26.877187 
L 397.812757 26.877187 
L 397.812757 359.517187 
" clip-path="url(#paec081aa09)" style="fill: #808080; opacity: 0.4; stroke: #808080; stroke-linejoin: miter"/>
   </g>
   <g id="patch_122">
    <path d="M 402.466671 26.877187 
L 402.466671 26.877187 
L 402.466671 359.517187 
" clip-path="url(#paec081aa09)" style="fill: #808080; opacity: 0.4; stroke: #808080; stroke-linejoin: miter"/>
   </g>
   <g id="patch_123">
    <path d="M 560.69974 359.517187 
L 560.69974 26.877187 
L 728.240637 26.877187 
L 728.240637 359.517187 
z
" clip-path="url(#paec081aa09)" style="fill: #808080; opacity: 0.4; stroke: #808080; stroke-linejoin: miter"/>
   </g>
   <g id="patch_124">
    <path d="M 732.894551 26.877187 
L 732.894551 26.877187 
L 732.894551 359.517187 
" clip-path="url(#paec081aa09)" style="fill: #808080; opacity: 0.4; stroke: #808080; stroke-linejoin: miter"/>
   </g>
   <g id="patch_125">
    <path d="M 737.548465 26.877187 
L 737.548465 26.877187 
L 737.548465 359.517187 
" clip-path="url(#paec081aa09)" style="fill: #808080; opacity: 0.4; stroke: #808080; stroke-linejoin: miter"/>
   </g>
   <g id="patch_126">
    <path d="M 895.781535 359.517187 
L 895.781535 26.877187 
L 1063.322432 26.877187 
L 1063.322432 359.517187 
z
" clip-path="url(#paec081aa09)" style="fill: #808080; opacity: 0.4; stroke: #808080; stroke-linejoin: miter"/>
   </g>
   <g id="patch_127">
    <path d="M 1067.976346 26.877187 
L 1067.976346 26.877187 
L 1067.976346 359.517187 
" clip-path="url(#paec081aa09)" style="fill: #808080; opacity: 0.4; stroke: #808080; stroke-linejoin: miter"/>
   </g>
   <g id="patch_128">
    <path d="M 1072.630259 26.877187 
L 1072.630259 26.877187 
L 1072.630259 359.517187 
" clip-path="url(#paec081aa09)" style="fill: #808080; opacity: 0.4; stroke: #808080; stroke-linejoin: miter"/>
   </g>
   <g id="matplotlib.axis_1">
    <g id="xtick_1">
     <g id="line2d_1">
      <defs>
       <path id="mdf5d7f901b" d="M 0 0 
L 0 3.5 
" style="stroke: #000000; stroke-width: 0.8"/>
      </defs>
      <g>
       <use xlink:href="#mdf5d7f901b" x="126.551634" y="359.517187" style="stroke: #000000; stroke-width: 0.8"/>
      </g>
     </g>
     <g id="text_1">
      <!-- 12-06 12 -->
      <g transform="translate(104.071165 374.115625) scale(0.1 -0.1)">
       <defs>
        <path id="DejaVuSans-31" d="M 794 531 
L 1825 531 
L 1825 4091 
L 703 3866 
L 703 4441 
L 1819 4666 
L 2450 4666 
L 2450 531 
L 3481 531 
L 3481 0 
L 794 0 
L 794 531 
z
" transform="scale(0.015625)"/>
        <path id="DejaVuSans-32" d="M 1228 531 
L 3431 531 
L 3431 0 
L 469 0 
L 469 531 
Q 828 903 1448 1529 
Q 2069 2156 2228 2338 
Q 2531 2678 2651 2914 
Q 2772 3150 2772 3378 
Q 2772 3750 2511 3984 
Q 2250 4219 1831 4219 
Q 1534 4219 1204 4116 
Q 875 4013 500 3803 
L 500 4441 
Q 881 4594 1212 4672 
Q 1544 4750 1819 4750 
Q 2544 4750 2975 4387 
Q 3406 4025 3406 3419 
Q 3406 3131 3298 2873 
Q 3191 2616 2906 2266 
Q 2828 2175 2409 1742 
Q 1991 1309 1228 531 
z
" transform="scale(0.015625)"/>
        <path id="DejaVuSans-2d" d="M 313 2009 
L 1997 2009 
L 1997 1497 
L 313 1497 
L 313 2009 
z
" transform="scale(0.015625)"/>
        <path id="DejaVuSans-30" d="M 2034 4250 
Q 1547 4250 1301 3770 
Q 1056 3291 1056 2328 
Q 1056 1369 1301 889 
Q 1547 409 2034 409 
Q 2525 409 2770 889 
Q 3016 1369 3016 2328 
Q 3016 3291 2770 3770 
Q 2525 4250 2034 4250 
z
M 2034 4750 
Q 2819 4750 3233 4129 
Q 3647 3509 3647 2328 
Q 3647 1150 3233 529 
Q 2819 -91 2034 -91 
Q 1250 -91 836 529 
Q 422 1150 422 2328 
Q 422 3509 836 4129 
Q 1250 4750 2034 4750 
z
" transform="scale(0.015625)"/>
        <path id="DejaVuSans-36" d="M 2113 2584 
Q 1688 2584 1439 2293 
Q 1191 2003 1191 1497 
Q 1191 994 1439 701 
Q 1688 409 2113 409 
Q 2538 409 2786 701 
Q 3034 994 3034 1497 
Q 3034 2003 2786 2293 
Q 2538 2584 2113 2584 
z
M 3366 4563 
L 3366 3988 
Q 3128 4100 2886 4159 
Q 2644 4219 2406 4219 
Q 1781 4219 1451 3797 
Q 1122 3375 1075 2522 
Q 1259 2794 1537 2939 
Q 1816 3084 2150 3084 
Q 2853 3084 3261 2657 
Q 3669 2231 3669 1497 
Q 3669 778 3244 343 
Q 2819 -91 2113 -91 
Q 1303 -91 875 529 
Q 447 1150 447 2328 
Q 447 3434 972 4092 
Q 1497 4750 2381 4750 
Q 2619 4750 2861 4703 
Q 3103 4656 3366 4563 
z
" transform="scale(0.015625)"/>
        <path id="DejaVuSans-20" transform="scale(0.015625)"/>
       </defs>
       <use xlink:href="#DejaVuSans-31"/>
       <use xlink:href="#DejaVuSans-32" x="63.623047"/>
       <use xlink:href="#DejaVuSans-2d" x="127.246094"/>
       <use xlink:href="#DejaVuSans-30" x="163.330078"/>
       <use xlink:href="#DejaVuSans-36" x="226.953125"/>
       <use xlink:href="#DejaVuSans-20" x="290.576172"/>
       <use xlink:href="#DejaVuSans-31" x="322.363281"/>
       <use xlink:href="#DejaVuSans-32" x="385.986328"/>
      </g>
     </g>
    </g>
    <g id="xtick_2">
     <g id="line2d_2">
      <g>
       <use xlink:href="#mdf5d7f901b" x="294.092531" y="359.517187" style="stroke: #000000; stroke-width: 0.8"/>
      </g>
     </g>
     <g id="text_2">
      <!-- 12-07 00 -->
      <g transform="translate(271.612062 374.115625) scale(0.1 -0.1)">
       <defs>
        <path id="DejaVuSans-37" d="M 525 4666 
L 3525 4666 
L 3525 4397 
L 1831 0 
L 1172 0 
L 2766 4134 
L 525 4134 
L 525 4666 
z
" transform="scale(0.015625)"/>
       </defs>
       <use xlink:href="#DejaVuSans-31"/>
       <use xlink:href="#DejaVuSans-32" x="63.623047"/>
       <use xlink:href="#DejaVuSans-2d" x="127.246094"/>
       <use xlink:href="#DejaVuSans-30" x="163.330078"/>
       <use xlink:href="#DejaVuSans-37" x="226.953125"/>
       <use xlink:href="#DejaVuSans-20" x="290.576172"/>
       <use xlink:href="#DejaVuSans-30" x="322.363281"/>
       <use xlink:href="#DejaVuSans-30" x="385.986328"/>
      </g>
     </g>
    </g>
    <g id="xtick_3">
     <g id="line2d_3">
      <g>
       <use xlink:href="#mdf5d7f901b" x="461.633428" y="359.517187" style="stroke: #000000; stroke-width: 0.8"/>
      </g>
     </g>
     <g id="text_3">
      <!-- 12-07 12 -->
      <g transform="translate(439.152959 374.115625) scale(0.1 -0.1)">
       <use xlink:href="#DejaVuSans-31"/>
       <use xlink:href="#DejaVuSans-32" x="63.623047"/>
       <use xlink:href="#DejaVuSans-2d" x="127.246094"/>
       <use xlink:href="#DejaVuSans-30" x="163.330078"/>
       <use xlink:href="#DejaVuSans-37" x="226.953125"/>
       <use xlink:href="#DejaVuSans-20" x="290.576172"/>
       <use xlink:href="#DejaVuSans-31" x="322.363281"/>
       <use xlink:href="#DejaVuSans-32" x="385.986328"/>
      </g>
     </g>
    </g>
    <g id="xtick_4">
     <g id="line2d_4">
      <g>
       <use xlink:href="#mdf5d7f901b" x="629.174325" y="359.517187" style="stroke: #000000; stroke-width: 0.8"/>
      </g>
     </g>
     <g id="text_4">
      <!-- 12-08 00 -->
      <g transform="translate(606.693857 374.115625) scale(0.1 -0.1)">
       <defs>
        <path id="DejaVuSans-38" d="M 2034 2216 
Q 1584 2216 1326 1975 
Q 1069 1734 1069 1313 
Q 1069 891 1326 650 
Q 1584 409 2034 409 
Q 2484 409 2743 651 
Q 3003 894 3003 1313 
Q 3003 1734 2745 1975 
Q 2488 2216 2034 2216 
z
M 1403 2484 
Q 997 2584 770 2862 
Q 544 3141 544 3541 
Q 544 4100 942 4425 
Q 1341 4750 2034 4750 
Q 2731 4750 3128 4425 
Q 3525 4100 3525 3541 
Q 3525 3141 3298 2862 
Q 3072 2584 2669 2484 
Q 3125 2378 3379 2068 
Q 3634 1759 3634 1313 
Q 3634 634 3220 271 
Q 2806 -91 2034 -91 
Q 1263 -91 848 271 
Q 434 634 434 1313 
Q 434 1759 690 2068 
Q 947 2378 1403 2484 
z
M 1172 3481 
Q 1172 3119 1398 2916 
Q 1625 2713 2034 2713 
Q 2441 2713 2670 2916 
Q 2900 3119 2900 3481 
Q 2900 3844 2670 4047 
Q 2441 4250 2034 4250 
Q 1625 4250 1398 4047 
Q 1172 3844 1172 3481 
z
" transform="scale(0.015625)"/>
       </defs>
       <use xlink:href="#DejaVuSans-31"/>
       <use xlink:href="#DejaVuSans-32" x="63.623047"/>
       <use xlink:href="#DejaVuSans-2d" x="127.246094"/>
       <use xlink:href="#DejaVuSans-30" x="163.330078"/>
       <use xlink:href="#DejaVuSans-38" x="226.953125"/>
       <use xlink:href="#DejaVuSans-20" x="290.576172"/>
       <use xlink:href="#DejaVuSans-30" x="322.363281"/>
       <use xlink:href="#DejaVuSans-30" x="385.986328"/>
      </g>
     </g>
    </g>
    <g id="xtick_5">
     <g id="line2d_5">
      <g>
       <use xlink:href="#mdf5d7f901b" x="796.715223" y="359.517187" style="stroke: #000000; stroke-width: 0.8"/>
      </g>
     </g>
     <g id="text_5">
      <!-- 12-08 12 -->
      <g transform="translate(774.234754 374.115625) scale(0.1 -0.1)">
       <use xlink:href="#DejaVuSans-31"/>
       <use xlink:href="#DejaVuSans-32" x="63.623047"/>
       <use xlink:href="#DejaVuSans-2d" x="127.246094"/>
       <use xlink:href="#DejaVuSans-30" x="163.330078"/>
       <use xlink:href="#DejaVuSans-38" x="226.953125"/>
       <use xlink:href="#DejaVuSans-20" x="290.576172"/>
       <use xlink:href="#DejaVuSans-31" x="322.363281"/>
       <use xlink:href="#DejaVuSans-32" x="385.986328"/>
      </g>
     </g>
    </g>
    <g id="xtick_6">
     <g id="line2d_6">
      <g>
       <use xlink:href="#mdf5d7f901b" x="964.25612" y="359.517187" style="stroke: #000000; stroke-width: 0.8"/>
      </g>
     </g>
     <g id="text_6">
      <!-- 12-09 00 -->
      <g transform="translate(941.775651 374.115625) scale(0.1 -0.1)">
       <defs>
        <path id="DejaVuSans-39" d="M 703 97 
L 703 672 
Q 941 559 1184 500 
Q 1428 441 1663 441 
Q 2288 441 2617 861 
Q 2947 1281 2994 2138 
Q 2813 1869 2534 1725 
Q 2256 1581 1919 1581 
Q 1219 1581 811 2004 
Q 403 2428 403 3163 
Q 403 3881 828 4315 
Q 1253 4750 1959 4750 
Q 2769 4750 3195 4129 
Q 3622 3509 3622 2328 
Q 3622 1225 3098 567 
Q 2575 -91 1691 -91 
Q 1453 -91 1209 -44 
Q 966 3 703 97 
z
M 1959 2075 
Q 2384 2075 2632 2365 
Q 2881 2656 2881 3163 
Q 2881 3666 2632 3958 
Q 2384 4250 1959 4250 
Q 1534 4250 1286 3958 
Q 1038 3666 1038 3163 
Q 1038 2656 1286 2365 
Q 1534 2075 1959 2075 
z
" transform="scale(0.015625)"/>
       </defs>
       <use xlink:href="#DejaVuSans-31"/>
       <use xlink:href="#DejaVuSans-32" x="63.623047"/>
       <use xlink:href="#DejaVuSans-2d" x="127.246094"/>
       <use xlink:href="#DejaVuSans-30" x="163.330078"/>
       <use xlink:href="#DejaVuSans-39" x="226.953125"/>
       <use xlink:href="#DejaVuSans-20" x="290.576172"/>
       <use xlink:href="#DejaVuSans-30" x="322.363281"/>
       <use xlink:href="#DejaVuSans-30" x="385.986328"/>
      </g>
     </g>
    </g>
    <g id="xtick_7">
     <g id="line2d_7">
      <g>
       <use xlink:href="#mdf5d7f901b" x="1131.797017" y="359.517187" style="stroke: #000000; stroke-width: 0.8"/>
      </g>
     </g>
     <g id="text_7">
      <!-- 12-09 12 -->
      <g transform="translate(1109.316548 374.115625) scale(0.1 -0.1)">
       <use xlink:href="#DejaVuSans-31"/>
       <use xlink:href="#DejaVuSans-32" x="63.623047"/>
       <use xlink:href="#DejaVuSans-2d" x="127.246094"/>
       <use xlink:href="#DejaVuSans-30" x="163.330078"/>
       <use xlink:href="#DejaVuSans-39" x="226.953125"/>
       <use xlink:href="#DejaVuSans-20" x="290.576172"/>
       <use xlink:href="#DejaVuSans-31" x="322.363281"/>
       <use xlink:href="#DejaVuSans-32" x="385.986328"/>
      </g>
     </g>
    </g>
    <g id="text_8">
     <!-- Time -->
     <g transform="translate(592.554688 389.313437) scale(0.12 -0.12)">
      <defs>
       <path id="DejaVuSans-54" d="M -19 4666 
L 3928 4666 
L 3928 4134 
L 2272 4134 
L 2272 0 
L 1638 0 
L 1638 4134 
L -19 4134 
L -19 4666 
z
" transform="scale(0.015625)"/>
       <path id="DejaVuSans-69" d="M 603 3500 
L 1178 3500 
L 1178 0 
L 603 0 
L 603 3500 
z
M 603 4863 
L 1178 4863 
L 1178 4134 
L 603 4134 
L 603 4863 
z
" transform="scale(0.015625)"/>
       <path id="DejaVuSans-6d" d="M 3328 2828 
Q 3544 3216 3844 3400 
Q 4144 3584 4550 3584 
Q 5097 3584 5394 3201 
Q 5691 2819 5691 2113 
L 5691 0 
L 5113 0 
L 5113 2094 
Q 5113 2597 4934 2840 
Q 4756 3084 4391 3084 
Q 3944 3084 3684 2787 
Q 3425 2491 3425 1978 
L 3425 0 
L 2847 0 
L 2847 2094 
Q 2847 2600 2669 2842 
Q 2491 3084 2119 3084 
Q 1678 3084 1418 2786 
Q 1159 2488 1159 1978 
L 1159 0 
L 581 0 
L 581 3500 
L 1159 3500 
L 1159 2956 
Q 1356 3278 1631 3431 
Q 1906 3584 2284 3584 
Q 2666 3584 2933 3390 
Q 3200 3197 3328 2828 
z
" transform="scale(0.015625)"/>
       <path id="DejaVuSans-65" d="M 3597 1894 
L 3597 1613 
L 953 1613 
Q 991 1019 1311 708 
Q 1631 397 2203 397 
Q 2534 397 2845 478 
Q 3156 559 3463 722 
L 3463 178 
Q 3153 47 2828 -22 
Q 2503 -91 2169 -91 
Q 1331 -91 842 396 
Q 353 884 353 1716 
Q 353 2575 817 3079 
Q 1281 3584 2069 3584 
Q 2775 3584 3186 3129 
Q 3597 2675 3597 1894 
z
M 3022 2063 
Q 3016 2534 2758 2815 
Q 2500 3097 2075 3097 
Q 1594 3097 1305 2825 
Q 1016 2553 972 2059 
L 3022 2063 
z
" transform="scale(0.015625)"/>
      </defs>
      <use xlink:href="#DejaVuSans-54"/>
      <use xlink:href="#DejaVuSans-69" x="57.958984"/>
      <use xlink:href="#DejaVuSans-6d" x="85.742188"/>
      <use xlink:href="#DejaVuSans-65" x="183.154297"/>
     </g>
    </g>
   </g>
   <g id="matplotlib.axis_2">
    <g id="ytick_1">
     <g id="line2d_8">
      <defs>
       <path id="m3da857f119" d="M 0 0 
L -3.5 0 
" style="stroke: #000000; stroke-width: 0.8"/>
      </defs>
      <g>
       <use xlink:href="#m3da857f119" x="49.235" y="344.397187" style="stroke: #000000; stroke-width: 0.8"/>
      </g>
     </g>
     <g id="text_9">
      <!-- 0 -->
      <g transform="translate(35.8725 348.196406) scale(0.1 -0.1)">
       <use xlink:href="#DejaVuSans-30"/>
      </g>
     </g>
    </g>
    <g id="ytick_2">
     <g id="line2d_9">
      <g>
       <use xlink:href="#m3da857f119" x="49.235" y="301.197187" style="stroke: #000000; stroke-width: 0.8"/>
      </g>
     </g>
     <g id="text_10">
      <!-- 100 -->
      <g transform="translate(23.1475 304.996406) scale(0.1 -0.1)">
       <use xlink:href="#DejaVuSans-31"/>
       <use xlink:href="#DejaVuSans-30" x="63.623047"/>
       <use xlink:href="#DejaVuSans-30" x="127.246094"/>
      </g>
     </g>
    </g>
    <g id="ytick_3">
     <g id="line2d_10">
      <g>
       <use xlink:href="#m3da857f119" x="49.235" y="257.997187" style="stroke: #000000; stroke-width: 0.8"/>
      </g>
     </g>
     <g id="text_11">
      <!-- 200 -->
      <g transform="translate(23.1475 261.796406) scale(0.1 -0.1)">
       <use xlink:href="#DejaVuSans-32"/>
       <use xlink:href="#DejaVuSans-30" x="63.623047"/>
       <use xlink:href="#DejaVuSans-30" x="127.246094"/>
      </g>
     </g>
    </g>
    <g id="ytick_4">
     <g id="line2d_11">
      <g>
       <use xlink:href="#m3da857f119" x="49.235" y="214.797187" style="stroke: #000000; stroke-width: 0.8"/>
      </g>
     </g>
     <g id="text_12">
      <!-- 300 -->
      <g transform="translate(23.1475 218.596406) scale(0.1 -0.1)">
       <defs>
        <path id="DejaVuSans-33" d="M 2597 2516 
Q 3050 2419 3304 2112 
Q 3559 1806 3559 1356 
Q 3559 666 3084 287 
Q 2609 -91 1734 -91 
Q 1441 -91 1130 -33 
Q 819 25 488 141 
L 488 750 
Q 750 597 1062 519 
Q 1375 441 1716 441 
Q 2309 441 2620 675 
Q 2931 909 2931 1356 
Q 2931 1769 2642 2001 
Q 2353 2234 1838 2234 
L 1294 2234 
L 1294 2753 
L 1863 2753 
Q 2328 2753 2575 2939 
Q 2822 3125 2822 3475 
Q 2822 3834 2567 4026 
Q 2313 4219 1838 4219 
Q 1578 4219 1281 4162 
Q 984 4106 628 3988 
L 628 4550 
Q 988 4650 1302 4700 
Q 1616 4750 1894 4750 
Q 2613 4750 3031 4423 
Q 3450 4097 3450 3541 
Q 3450 3153 3228 2886 
Q 3006 2619 2597 2516 
z
" transform="scale(0.015625)"/>
       </defs>
       <use xlink:href="#DejaVuSans-33"/>
       <use xlink:href="#DejaVuSans-30" x="63.623047"/>
       <use xlink:href="#DejaVuSans-30" x="127.246094"/>
      </g>
     </g>
    </g>
    <g id="ytick_5">
     <g id="line2d_12">
      <g>
       <use xlink:href="#m3da857f119" x="49.235" y="171.597187" style="stroke: #000000; stroke-width: 0.8"/>
      </g>
     </g>
     <g id="text_13">
      <!-- 400 -->
      <g transform="translate(23.1475 175.396406) scale(0.1 -0.1)">
       <defs>
        <path id="DejaVuSans-34" d="M 2419 4116 
L 825 1625 
L 2419 1625 
L 2419 4116 
z
M 2253 4666 
L 3047 4666 
L 3047 1625 
L 3713 1625 
L 3713 1100 
L 3047 1100 
L 3047 0 
L 2419 0 
L 2419 1100 
L 313 1100 
L 313 1709 
L 2253 4666 
z
" transform="scale(0.015625)"/>
       </defs>
       <use xlink:href="#DejaVuSans-34"/>
       <use xlink:href="#DejaVuSans-30" x="63.623047"/>
       <use xlink:href="#DejaVuSans-30" x="127.246094"/>
      </g>
     </g>
    </g>
    <g id="ytick_6">
     <g id="line2d_13">
      <g>
       <use xlink:href="#m3da857f119" x="49.235" y="128.397187" style="stroke: #000000; stroke-width: 0.8"/>
      </g>
     </g>
     <g id="text_14">
      <!-- 500 -->
      <g transform="translate(23.1475 132.196406) scale(0.1 -0.1)">
       <defs>
        <path id="DejaVuSans-35" d="M 691 4666 
L 3169 4666 
L 3169 4134 
L 1269 4134 
L 1269 2991 
Q 1406 3038 1543 3061 
Q 1681 3084 1819 3084 
Q 2600 3084 3056 2656 
Q 3513 2228 3513 1497 
Q 3513 744 3044 326 
Q 2575 -91 1722 -91 
Q 1428 -91 1123 -41 
Q 819 9 494 109 
L 494 744 
Q 775 591 1075 516 
Q 1375 441 1709 441 
Q 2250 441 2565 725 
Q 2881 1009 2881 1497 
Q 2881 1984 2565 2268 
Q 2250 2553 1709 2553 
Q 1456 2553 1204 2497 
Q 953 2441 691 2322 
L 691 4666 
z
" transform="scale(0.015625)"/>
       </defs>
       <use xlink:href="#DejaVuSans-35"/>
       <use xlink:href="#DejaVuSans-30" x="63.623047"/>
       <use xlink:href="#DejaVuSans-30" x="127.246094"/>
      </g>
     </g>
    </g>
    <g id="ytick_7">
     <g id="line2d_14">
      <g>
       <use xlink:href="#m3da857f119" x="49.235" y="85.197187" style="stroke: #000000; stroke-width: 0.8"/>
      </g>
     </g>
     <g id="text_15">
      <!-- 600 -->
      <g transform="translate(23.1475 88.996406) scale(0.1 -0.1)">
       <use xlink:href="#DejaVuSans-36"/>
       <use xlink:href="#DejaVuSans-30" x="63.623047"/>
       <use xlink:href="#DejaVuSans-30" x="127.246094"/>
      </g>
     </g>
    </g>
    <g id="ytick_8">
     <g id="line2d_15">
      <g>
       <use xlink:href="#m3da857f119" x="49.235" y="41.997187" style="stroke: #000000; stroke-width: 0.8"/>
      </g>
     </g>
     <g id="text_16">
      <!-- 700 -->
      <g transform="translate(23.1475 45.796406) scale(0.1 -0.1)">
       <use xlink:href="#DejaVuSans-37"/>
       <use xlink:href="#DejaVuSans-30" x="63.623047"/>
       <use xlink:href="#DejaVuSans-30" x="127.246094"/>
      </g>
     </g>
    </g>
    <g id="text_17">
     <!-- Pellet_Count -->
     <g transform="translate(16.318125 230.485312) rotate(-90) scale(0.12 -0.12)">
      <defs>
       <path id="DejaVuSans-50" d="M 1259 4147 
L 1259 2394 
L 2053 2394 
Q 2494 2394 2734 2622 
Q 2975 2850 2975 3272 
Q 2975 3691 2734 3919 
Q 2494 4147 2053 4147 
L 1259 4147 
z
M 628 4666 
L 2053 4666 
Q 2838 4666 3239 4311 
Q 3641 3956 3641 3272 
Q 3641 2581 3239 2228 
Q 2838 1875 2053 1875 
L 1259 1875 
L 1259 0 
L 628 0 
L 628 4666 
z
" transform="scale(0.015625)"/>
       <path id="DejaVuSans-6c" d="M 603 4863 
L 1178 4863 
L 1178 0 
L 603 0 
L 603 4863 
z
" transform="scale(0.015625)"/>
       <path id="DejaVuSans-74" d="M 1172 4494 
L 1172 3500 
L 2356 3500 
L 2356 3053 
L 1172 3053 
L 1172 1153 
Q 1172 725 1289 603 
Q 1406 481 1766 481 
L 2356 481 
L 2356 0 
L 1766 0 
Q 1100 0 847 248 
Q 594 497 594 1153 
L 594 3053 
L 172 3053 
L 172 3500 
L 594 3500 
L 594 4494 
L 1172 4494 
z
" transform="scale(0.015625)"/>
       <path id="DejaVuSans-5f" d="M 3263 -1063 
L 3263 -1509 
L -63 -1509 
L -63 -1063 
L 3263 -1063 
z
" transform="scale(0.015625)"/>
       <path id="DejaVuSans-43" d="M 4122 4306 
L 4122 3641 
Q 3803 3938 3442 4084 
Q 3081 4231 2675 4231 
Q 1875 4231 1450 3742 
Q 1025 3253 1025 2328 
Q 1025 1406 1450 917 
Q 1875 428 2675 428 
Q 3081 428 3442 575 
Q 3803 722 4122 1019 
L 4122 359 
Q 3791 134 3420 21 
Q 3050 -91 2638 -91 
Q 1578 -91 968 557 
Q 359 1206 359 2328 
Q 359 3453 968 4101 
Q 1578 4750 2638 4750 
Q 3056 4750 3426 4639 
Q 3797 4528 4122 4306 
z
" transform="scale(0.015625)"/>
       <path id="DejaVuSans-6f" d="M 1959 3097 
Q 1497 3097 1228 2736 
Q 959 2375 959 1747 
Q 959 1119 1226 758 
Q 1494 397 1959 397 
Q 2419 397 2687 759 
Q 2956 1122 2956 1747 
Q 2956 2369 2687 2733 
Q 2419 3097 1959 3097 
z
M 1959 3584 
Q 2709 3584 3137 3096 
Q 3566 2609 3566 1747 
Q 3566 888 3137 398 
Q 2709 -91 1959 -91 
Q 1206 -91 779 398 
Q 353 888 353 1747 
Q 353 2609 779 3096 
Q 1206 3584 1959 3584 
z
" transform="scale(0.015625)"/>
       <path id="DejaVuSans-75" d="M 544 1381 
L 544 3500 
L 1119 3500 
L 1119 1403 
Q 1119 906 1312 657 
Q 1506 409 1894 409 
Q 2359 409 2629 706 
Q 2900 1003 2900 1516 
L 2900 3500 
L 3475 3500 
L 3475 0 
L 2900 0 
L 2900 538 
Q 2691 219 2414 64 
Q 2138 -91 1772 -91 
Q 1169 -91 856 284 
Q 544 659 544 1381 
z
M 1991 3584 
L 1991 3584 
z
" transform="scale(0.015625)"/>
       <path id="DejaVuSans-6e" d="M 3513 2113 
L 3513 0 
L 2938 0 
L 2938 2094 
Q 2938 2591 2744 2837 
Q 2550 3084 2163 3084 
Q 1697 3084 1428 2787 
Q 1159 2491 1159 1978 
L 1159 0 
L 581 0 
L 581 3500 
L 1159 3500 
L 1159 2956 
Q 1366 3272 1645 3428 
Q 1925 3584 2291 3584 
Q 2894 3584 3203 3211 
Q 3513 2838 3513 2113 
z
" transform="scale(0.015625)"/>
      </defs>
      <use xlink:href="#DejaVuSans-50"/>
      <use xlink:href="#DejaVuSans-65" x="56.677734"/>
      <use xlink:href="#DejaVuSans-6c" x="118.201172"/>
      <use xlink:href="#DejaVuSans-6c" x="145.984375"/>
      <use xlink:href="#DejaVuSans-65" x="173.767578"/>
      <use xlink:href="#DejaVuSans-74" x="235.291016"/>
      <use xlink:href="#DejaVuSans-5f" x="274.5"/>
      <use xlink:href="#DejaVuSans-43" x="324.5"/>
      <use xlink:href="#DejaVuSans-6f" x="394.324219"/>
      <use xlink:href="#DejaVuSans-75" x="455.505859"/>
      <use xlink:href="#DejaVuSans-6e" x="518.884766"/>
      <use xlink:href="#DejaVuSans-74" x="582.263672"/>
     </g>
    </g>
   </g>
   <g id="line2d_16">
    <path d="M 99.962273 344.397187 
L 103.584569 344.397187 
L 103.588447 343.965187 
L 108.851248 343.965187 
L 108.975352 343.533187 
L 109.068431 343.533187 
L 109.177022 343.101187 
L 111.182083 343.101187 
L 111.18984 342.669187 
L 111.631962 342.669187 
L 111.744431 342.237187 
L 111.787092 341.805187 
L 112.52784 341.805187 
L 112.659701 340.941187 
L 112.70624 340.941187 
L 112.713997 340.509187 
L 116.47591 340.509187 
L 116.58838 339.645187 
L 116.696971 339.645187 
L 116.700849 339.213187 
L 116.85598 339.213187 
L 116.941302 338.349187 
L 117.10031 338.349187 
L 117.205023 337.485187 
L 117.321371 337.485187 
L 117.32525 337.053187 
L 118.182345 337.053187 
L 118.279302 336.189187 
L 119.826728 336.189187 
L 119.838363 335.757187 
L 120.257215 335.757187 
L 120.264972 335.325187 
L 121.436207 335.325187 
L 121.440085 334.893187 
L 122.002433 334.893187 
L 122.010189 334.461187 
L 122.227372 334.461187 
L 122.335963 333.597187 
L 126.140538 333.597187 
L 126.148294 333.165187 
L 127.381582 333.165187 
L 127.389338 332.733187 
L 127.528956 332.733187 
L 127.532834 332.301187 
L 127.660816 332.301187 
L 127.781043 331.437187 
L 127.916782 331.437187 
L 128.005982 330.573187 
L 128.126208 330.573187 
L 128.234799 329.709187 
L 128.444225 329.709187 
L 128.525669 328.845187 
L 128.595477 328.845187 
L 128.603234 328.413187 
L 130.255373 328.413187 
L 130.367843 327.981187 
L 130.375599 327.549187 
L 130.623808 327.549187 
L 130.697495 326.685187 
L 130.77506 326.685187 
L 130.852626 325.821187 
L 134.951948 325.821187 
L 135.079931 324.957187 
L 135.161374 324.957187 
L 135.273844 324.093187 
L 135.343652 324.093187 
L 135.467757 323.229187 
L 138.457896 323.229187 
L 138.47341 322.797187 
L 148.549133 322.797187 
L 148.553011 322.365187 
L 159.423778 322.365187 
L 159.528491 321.501187 
L 159.617691 321.501187 
L 159.699135 320.637187 
L 159.780578 320.637187 
L 159.873657 319.773187 
L 159.958978 319.773187 
L 159.966735 319.341187 
L 160.339048 319.341187 
L 160.346804 318.909187 
L 164.236701 318.909187 
L 164.318144 318.045187 
L 164.376318 318.045187 
L 164.453883 317.181187 
L 166.520997 317.181187 
L 166.633466 316.317187 
L 166.726545 316.317187 
L 166.784719 315.885187 
L 170.558267 315.885187 
L 170.624197 315.021187 
L 170.690128 315.021187 
L 170.697884 314.589187 
L 174.979485 314.589187 
L 174.983363 314.157187 
L 178.171294 314.157187 
L 178.252738 313.293187 
L 178.341938 313.293187 
L 178.438894 312.861187 
L 178.555242 312.861187 
L 178.625051 311.997187 
L 178.815086 311.997187 
L 178.888773 311.133187 
L 178.977973 311.133187 
L 179.090442 310.269187 
L 179.14086 310.269187 
L 179.144738 309.837187 
L 180.040616 309.837187 
L 180.129816 308.973187 
L 181.533747 308.973187 
L 181.646217 308.541187 
L 181.770321 308.109187 
L 181.863399 307.245187 
L 182.646808 307.245187 
L 182.759278 306.813187 
L 182.79806 306.381187 
L 189.976722 306.381187 
L 190.073679 305.517187 
L 190.166757 305.517187 
L 190.18227 305.085187 
L 193.610653 305.085187 
L 193.61841 304.653187 
L 196.306045 304.653187 
L 196.31768 304.221187 
L 197.225193 304.221187 
L 197.318271 303.357187 
L 197.535454 303.357187 
L 197.547089 302.925187 
L 198.283959 302.925187 
L 198.291715 302.493187 
L 199.137176 302.493187 
L 199.144933 302.061187 
L 199.265159 302.061187 
L 199.269037 301.629187 
L 200.517837 301.629187 
L 200.521715 301.197187 
L 200.688481 301.197187 
L 200.703994 300.765187 
L 202.813768 300.765187 
L 202.89909 299.901187 
L 203.065855 299.901187 
L 203.182203 299.037187 
L 203.310185 299.037187 
L 203.317942 298.605187 
L 203.453681 298.605187 
L 203.461438 298.173187 
L 204.880881 298.173187 
L 204.989473 297.741187 
L 205.004986 297.309187 
L 205.125212 297.309187 
L 205.210534 296.445187 
L 207.374604 296.445187 
L 207.487073 296.013187 
L 207.56076 295.149187 
L 207.646082 295.149187 
L 207.735282 294.285187 
L 207.82836 294.285187 
L 207.936951 293.421187 
L 210.364743 293.421187 
L 210.3725 292.989187 
L 210.496604 292.989187 
L 210.500482 292.557187 
L 212.075056 292.557187 
L 212.191404 292.125187 
L 212.214674 292.125187 
L 212.22243 291.693187 
L 212.478396 291.693187 
L 212.486152 291.261187 
L 218.862014 291.261187 
L 218.989997 290.397187 
L 219.238205 290.397187 
L 219.327405 289.533187 
L 219.404971 289.533187 
L 219.513562 288.669187 
L 219.637666 288.669187 
L 219.746258 287.805187 
L 219.843214 287.805187 
L 220.002223 287.373187 
L 221.239388 287.373187 
L 221.247145 286.941187 
L 221.41391 286.941187 
L 221.549649 286.509187 
L 225.815737 286.509187 
L 225.835128 286.077187 
L 226.765911 286.077187 
L 226.773668 285.645187 
L 227.723842 285.645187 
L 227.731598 285.213187 
L 228.674016 285.213187 
L 228.736068 284.781187 
L 230.376573 284.781187 
L 230.485164 283.917187 
L 230.67132 283.917187 
L 230.756642 283.053187 
L 230.841964 283.053187 
L 230.845842 282.621187 
L 231.94339 282.621187 
L 239.187983 282.189187 
L 239.199617 281.757187 
L 240.15367 281.757187 
L 240.33207 281.325187 
L 241.33654 281.325187 
L 241.344296 280.893187 
L 251.792333 280.893187 
L 251.800089 280.461187 
L 256.283359 280.461187 
L 256.291116 280.029187 
L 256.59362 280.029187 
L 256.601377 279.597187 
L 263.7335 279.597187 
L 263.818822 278.733187 
L 263.908022 278.733187 
L 263.9119 278.301187 
L 264.163987 278.301187 
L 264.171743 277.869187 
L 264.288091 277.869187 
L 264.404439 277.437187 
L 264.42383 277.437187 
L 264.427709 277.005187 
L 281.658824 277.005187 
L 281.775172 276.141187 
L 281.856616 276.141187 
L 281.957451 275.277187 
L 282.073798 275.277187 
L 282.155242 274.413187 
L 282.244442 274.413187 
L 282.244442 274.413187 
L 282.36079 273.981187 
L 282.376303 273.981187 
L 282.384059 273.549187 
L 293.375053 273.549187 
L 293.4914 273.117187 
L 293.510792 273.117187 
L 293.607748 272.253187 
L 293.712461 272.253187 
L 293.828809 271.389187 
L 302.093384 271.389187 
L 302.190341 270.525187 
L 302.256271 270.525187 
L 302.341593 269.661187 
L 302.430793 269.661187 
L 302.519993 268.797187 
L 302.59368 268.797187 
L 302.609193 268.365187 
L 316.086152 268.365187 
L 316.190865 267.933187 
L 316.249039 267.933187 
L 316.423561 267.069187 
L 316.505004 267.069187 
L 316.574813 266.205187 
L 316.671769 266.205187 
L 316.675648 265.773187 
L 318.347178 265.773187 
L 318.354935 265.341187 
L 326.898745 265.341187 
L 326.906502 264.909187 
L 337.381686 264.909187 
L 337.393321 264.477187 
L 339.832747 264.477187 
L 339.840504 264.045187 
L 341.508156 264.045187 
L 341.577965 263.181187 
L 341.640017 263.181187 
L 341.717582 262.749187 
L 353.515254 262.749187 
L 353.592819 261.885187 
L 353.685897 261.885187 
L 353.751828 261.021187 
L 353.821636 261.021187 
L 353.906958 260.157187 
L 354.019428 260.157187 
L 354.077602 259.293187 
L 354.151289 259.293187 
L 354.151289 259.293187 
L 354.248245 258.429187 
L 368.733552 258.429187 
L 368.741308 257.997187 
L 371.37077 257.997187 
L 371.487118 257.565187 
L 371.553048 257.565187 
L 371.553048 257.565187 
L 371.677152 257.133187 
L 371.715935 257.133187 
L 371.820648 256.701187 
L 371.874944 256.701187 
L 371.960265 255.837187 
L 372.037831 255.837187 
L 372.0611 255.405187 
L 381.675311 255.405187 
L 381.764511 254.541187 
L 381.822685 254.541187 
L 381.892493 253.677187 
L 381.96618 253.677187 
L 382.051502 252.813187 
L 382.125189 252.813187 
L 382.226024 252.381187 
L 382.268685 252.381187 
L 382.34625 251.517187 
L 390.50999 251.517187 
L 390.603069 251.085187 
L 390.630216 251.085187 
L 390.719416 250.221187 
L 390.796982 250.221187 
L 390.86679 249.357187 
L 390.95599 249.357187 
L 390.963747 248.925187 
L 397.568426 248.925187 
L 397.638235 248.061187 
L 397.708044 248.061187 
L 397.793365 247.197187 
L 397.975644 247.197187 
L 398.045452 246.333187 
L 398.126896 246.333187 
L 398.227731 245.469187 
L 398.309174 245.469187 
L 398.324687 245.037187 
L 401.958618 245.037187 
L 401.974131 244.605187 
L 403.67281 244.605187 
L 403.758132 243.741187 
L 403.831819 243.741187 
L 403.897749 242.877187 
L 407.783767 242.877187 
L 407.865211 242.013187 
L 407.935019 242.013187 
L 408.004828 241.149187 
L 408.078515 241.149187 
L 408.152202 240.285187 
L 408.233645 240.285187 
L 408.237524 239.853187 
L 412.852655 239.853187 
L 412.969003 238.989187 
L 413.907542 238.989187 
L 413.985107 238.125187 
L 414.058794 238.125187 
L 414.062672 237.693187 
L 416.184081 237.693187 
L 416.195716 237.261187 
L 418.297734 237.261187 
L 418.301612 236.829187 
L 418.526551 236.829187 
L 418.635143 235.965187 
L 419.752082 235.965187 
L 419.860673 235.533187 
L 419.887821 235.533187 
L 419.9809 234.669187 
L 420.027439 234.669187 
L 420.116639 233.805187 
L 423.16883 233.805187 
L 423.250274 232.941187 
L 423.312326 232.941187 
L 423.432552 231.645187 
L 423.494604 231.645187 
L 423.57217 230.781187 
L 423.630344 230.781187 
L 423.707909 229.917187 
L 427.25264 229.917187 
L 427.260396 229.485187 
L 429.067666 229.485187 
L 429.164623 228.621187 
L 429.21504 228.621187 
L 429.226675 228.189187 
L 432.119858 228.189187 
L 432.201302 227.325187 
L 432.251719 227.325187 
L 432.38358 226.029187 
L 432.441754 226.029187 
L 432.53871 225.165187 
L 432.596884 225.165187 
L 432.600762 224.733187 
L 432.876119 224.733187 
L 432.883876 224.301187 
L 434.632971 224.301187 
L 434.710537 223.437187 
L 434.869545 223.437187 
L 434.88118 223.005187 
L 435.501702 223.005187 
L 435.649076 222.141187 
L 438.790468 222.141187 
L 438.798224 221.709187 
L 439.368329 221.709187 
L 439.372207 221.277187 
L 439.907407 221.277187 
L 440.043146 219.981187 
L 440.097442 219.981187 
L 440.105198 219.549187 
L 442.64546 219.549187 
L 442.660973 219.117187 
L 447.997461 219.117187 
L 448.075026 218.253187 
L 448.125443 218.253187 
L 448.179739 217.389187 
L 448.253426 217.389187 
L 448.261182 216.957187 
L 448.920487 216.957187 
L 449.129913 216.093187 
L 449.606939 216.093187 
L 449.707774 215.229187 
L 449.789217 215.229187 
L 449.804731 214.797187 
L 454.284123 214.797187 
L 454.40047 213.933187 
L 457.813341 213.933187 
L 458.441619 213.501187 
L 458.46101 213.069187 
L 461.144767 213.069187 
L 461.148645 212.637187 
L 461.288263 212.637187 
L 461.296019 212.205187 
L 462.76588 212.205187 
L 462.851202 211.341187 
L 462.909376 211.341187 
L 463.002454 210.909187 
L 465.403098 210.909187 
L 465.48842 210.477187 
L 465.531081 210.477187 
L 465.635794 209.613187 
L 465.721116 209.613187 
L 465.732751 209.181187 
L 466.330003 209.181187 
L 466.337759 208.749187 
L 474.776856 208.749187 
L 474.881569 207.885187 
L 474.970769 207.885187 
L 475.056091 207.021187 
L 475.118143 207.021187 
L 475.122022 206.589187 
L 475.250004 206.589187 
L 475.323691 205.725187 
L 475.471065 205.725187 
L 475.474943 205.293187 
L 477.766996 205.293187 
L 477.774753 204.861187 
L 478.437935 204.861187 
L 478.441814 204.429187 
L 479.713883 204.429187 
L 479.818596 203.997187 
L 480.109466 203.997187 
L 480.237449 203.565187 
L 480.776527 203.565187 
L 480.873483 203.133187 
L 480.896753 203.133187 
L 480.927779 202.701187 
L 481.044127 202.701187 
L 481.094544 202.269187 
L 482.48684 202.269187 
L 482.490719 201.837187 
L 484.58498 201.837187 
L 484.662545 200.973187 
L 484.755623 200.973187 
L 484.759502 200.541187 
L 485.670893 200.541187 
L 485.682528 200.109187 
L 486.527989 200.109187 
L 486.535745 199.677187 
L 492.174738 199.677187 
L 492.182494 199.245187 
L 492.298842 199.245187 
L 492.306598 198.813187 
L 498.158895 198.813187 
L 498.217069 197.949187 
L 498.279121 197.949187 
L 498.356686 197.085187 
L 498.430373 197.085187 
L 498.507939 196.221187 
L 498.597139 196.221187 
L 498.713486 195.357187 
L 503.603974 195.357187 
L 503.689296 194.493187 
L 503.743592 194.493187 
L 503.875452 193.197187 
L 505.058322 193.197187 
L 505.155279 192.765187 
L 511.034723 192.765187 
L 511.13168 192.333187 
L 515.444307 192.333187 
L 515.529628 191.469187 
L 515.580046 191.469187 
L 515.715785 190.173187 
L 515.777837 190.173187 
L 515.870915 189.309187 
L 515.952359 189.309187 
L 516.022168 188.445187 
L 516.088098 188.445187 
L 516.165663 187.581187 
L 523.666221 187.581187 
L 523.670099 187.149187 
L 523.879525 187.149187 
L 523.957091 186.285187 
L 527.947822 186.285187 
L 528.037022 185.421187 
L 528.110709 185.421187 
L 528.176639 184.557187 
L 528.24257 184.557187 
L 528.355039 183.693187 
L 528.409335 183.693187 
L 528.502413 182.829187 
L 528.579978 182.829187 
L 528.68857 181.965187 
L 529.359509 181.965187 
L 529.367265 181.533187 
L 531.957944 181.533187 
L 532.043266 180.669187 
L 536.557562 180.669187 
L 536.561441 180.237187 
L 538.512206 180.237187 
L 538.605284 179.805187 
L 538.671215 179.805187 
L 538.671215 179.805187 
L 538.760415 178.941187 
L 538.818589 178.941187 
L 538.880641 178.077187 
L 538.958206 178.077187 
L 539.020258 177.213187 
L 541.20372 177.213187 
L 541.215354 176.781187 
L 541.793215 176.781187 
L 541.80485 176.349187 
L 545.097494 176.349187 
L 545.101372 175.917187 
L 545.698625 175.917187 
L 545.791703 175.053187 
L 545.861512 175.053187 
L 545.935199 174.189187 
L 545.997251 174.189187 
L 546.001129 173.757187 
L 548.180712 173.757187 
L 548.188469 173.325187 
L 548.304816 173.325187 
L 548.312573 172.893187 
L 550.387443 172.893187 
L 550.496034 172.029187 
L 550.569721 172.029187 
L 550.627895 171.597187 
L 552.819113 171.597187 
L 552.826869 171.165187 
L 553.428 171.165187 
L 553.435756 170.733187 
L 568.386454 170.733187 
L 568.394211 170.301187 
L 568.607515 170.301187 
L 568.685081 169.437187 
L 568.758768 169.437187 
L 568.832455 168.573187 
L 583.391448 168.573187 
L 583.461257 167.709187 
L 583.527187 167.709187 
L 583.643535 166.413187 
L 583.709466 166.413187 
L 583.790909 165.549187 
L 583.837448 165.549187 
L 583.903379 164.685187 
L 583.969309 164.685187 
L 584.050753 163.821187 
L 607.463817 163.821187 
L 607.5918 163.389187 
L 608.832844 163.389187 
L 609.290479 162.957187 
L 639.145336 162.957187 
L 639.153092 162.525187 
L 639.281075 162.525187 
L 639.366397 161.661187 
L 639.44784 161.661187 
L 639.525405 160.797187 
L 652.242225 160.797187 
L 652.249981 160.365187 
L 663.489183 160.365187 
L 663.49694 159.933187 
L 664.582853 159.933187 
L 664.590609 159.501187 
L 675.473011 159.501187 
L 675.480768 159.069187 
L 675.597116 159.069187 
L 675.686316 158.205187 
L 675.818177 158.205187 
L 675.950037 156.909187 
L 676.008211 156.909187 
L 676.10129 156.045187 
L 676.151707 156.045187 
L 676.240907 155.181187 
L 676.318472 155.181187 
L 676.322351 154.749187 
L 691.408788 154.749187 
L 691.428179 154.317187 
L 698.56418 154.317187 
L 698.657259 153.453187 
L 698.730946 153.453187 
L 698.804633 152.589187 
L 698.870563 152.589187 
L 698.96752 151.725187 
L 699.037328 151.725187 
L 699.126528 151.293187 
L 706.677503 151.293187 
L 706.766703 150.429187 
L 706.809364 150.429187 
L 706.88693 149.997187 
L 718.347192 149.997187 
L 718.417001 149.133187 
L 718.48681 149.133187 
L 718.564375 148.269187 
L 718.630305 148.269187 
L 718.742775 147.837187 
L 718.758288 147.837187 
L 718.82034 146.973187 
L 718.925053 146.973187 
L 718.925053 146.973187 
L 719.029766 146.109187 
L 726.103715 146.109187 
L 726.220063 145.245187 
L 726.258846 145.245187 
L 726.336411 144.381187 
L 726.394585 144.381187 
L 726.491541 143.517187 
L 726.572985 143.517187 
L 726.677698 143.085187 
L 726.693211 142.653187 
L 733.70123 142.653187 
L 733.705108 142.221187 
L 733.860238 142.221187 
L 733.930047 141.357187 
L 736.35396 141.357187 
L 736.416013 140.493187 
L 736.481943 140.493187 
L 736.55563 139.629187 
L 736.613804 139.629187 
L 736.687491 138.765187 
L 736.761178 138.765187 
L 736.765056 138.333187 
L 742.295457 138.333187 
L 742.411805 137.469187 
L 742.458344 137.469187 
L 742.570814 136.605187 
L 742.570814 136.605187 
L 742.652257 135.741187 
L 742.718188 135.741187 
L 742.78024 134.877187 
L 742.838414 134.877187 
L 742.84617 134.445187 
L 745.475632 134.445187 
L 745.495023 134.013187 
L 746.239649 134.013187 
L 746.255162 133.581187 
L 748.151632 133.581187 
L 748.163267 133.149187 
L 748.900136 133.149187 
L 748.997093 132.285187 
L 752.080311 132.285187 
L 752.153998 131.421187 
L 752.204415 131.421187 
L 752.266467 130.557187 
L 752.37118 130.557187 
L 752.378937 130.125187 
L 757.684399 130.125187 
L 757.692155 129.693187 
L 758.277773 129.693187 
L 758.374729 128.829187 
L 759.003008 128.829187 
L 759.006886 128.397187 
L 759.204677 128.397187 
L 759.212434 127.965187 
L 764.661391 127.965187 
L 764.738956 127.101187 
L 764.785496 127.101187 
L 764.859183 126.237187 
L 766.201061 126.237187 
L 766.282505 125.373187 
L 766.344557 125.373187 
L 766.422122 124.509187 
L 766.499687 124.509187 
L 766.557861 124.077187 
L 773.89941 124.077187 
L 774.015758 123.213187 
L 774.027393 123.213187 
L 774.143741 121.917187 
L 774.201915 121.917187 
L 774.27948 121.053187 
L 774.333775 121.053187 
L 774.337654 120.621187 
L 780.95009 120.621187 
L 781.066437 119.325187 
L 781.124611 119.325187 
L 781.186664 118.461187 
L 781.252594 118.461187 
L 781.337916 117.597187 
L 782.842681 117.597187 
L 782.916368 116.733187 
L 782.974542 116.733187 
L 782.97842 116.301187 
L 783.785099 116.301187 
L 783.858786 115.437187 
L 783.924716 115.437187 
L 783.932473 115.005187 
L 784.54136 115.005187 
L 784.622803 114.141187 
L 787.849517 114.141187 
L 789.870091 113.709187 
L 790.971517 113.709187 
L 791.056839 112.845187 
L 791.871274 112.845187 
L 792.003135 112.413187 
L 793.255813 112.413187 
L 793.383796 111.981187 
L 795.144527 111.981187 
L 795.152283 111.549187 
L 796.106336 111.549187 
L 796.199414 110.685187 
L 796.242075 110.685187 
L 796.257588 110.253187 
L 797.490875 110.253187 
L 797.599466 109.389187 
L 799.883762 109.389187 
L 799.961327 108.525187 
L 800.015623 108.525187 
L 800.100945 107.661187 
L 800.155241 107.661187 
L 800.283223 106.797187 
L 803.955937 106.797187 
L 803.963693 106.365187 
L 804.122702 106.365187 
L 804.200267 105.933187 
L 805.829137 105.933187 
L 805.836894 105.501187 
L 809.273033 105.501187 
L 809.393259 104.637187 
L 809.455312 104.637187 
L 809.45919 104.205187 
L 812.422182 104.205187 
L 812.429938 103.773187 
L 812.844912 103.773187 
L 812.856547 103.341187 
L 812.996164 103.341187 
L 813.003921 102.909187 
L 817.952583 102.909187 
L 818.076687 101.613187 
L 818.127104 101.613187 
L 818.130983 101.181187 
L 831.836759 101.181187 
L 831.953107 99.885187 
L 832.003524 99.885187 
L 832.05782 99.021187 
L 832.158655 99.021187 
L 832.228463 98.157187 
L 832.278881 98.157187 
L 832.449524 96.861187 
L 845.212883 96.861187 
L 845.220639 96.429187 
L 846.550883 96.429187 
L 846.55864 95.997187 
L 854.38885 95.997187 
L 854.485806 95.565187 
L 854.505197 95.565187 
L 854.512954 95.133187 
L 854.640937 95.133187 
L 854.768919 93.837187 
L 854.827093 93.837187 
L 854.916293 92.973187 
L 854.993858 92.973187 
L 855.063667 92.109187 
L 869.762278 92.109187 
L 869.859235 91.245187 
L 869.9368 91.245187 
L 870.006609 90.381187 
L 870.076417 90.381187 
L 870.084174 89.949187 
L 870.231548 89.949187 
L 870.235426 89.517187 
L 873.004505 89.517187 
L 873.109218 88.653187 
L 873.182905 88.653187 
L 873.186783 88.221187 
L 876.017914 88.221187 
L 876.095479 87.357187 
L 876.169166 87.357187 
L 876.246731 86.493187 
L 876.359201 86.493187 
L 876.366958 86.061187 
L 876.921549 86.061187 
L 876.929305 85.629187 
L 889.192368 85.629187 
L 889.289325 85.197187 
L 892.380299 85.197187 
L 892.492769 84.333187 
L 892.574212 84.333187 
L 892.702195 83.037187 
L 910.375433 83.037187 
L 910.464633 82.173187 
L 910.530563 82.173187 
L 910.600372 81.309187 
L 931.806706 81.309187 
L 931.907541 80.877187 
L 931.942445 80.877187 
L 932.04328 80.013187 
L 960.439911 80.013187 
L 960.548502 79.149187 
L 960.618311 79.149187 
L 960.699754 78.285187 
L 960.788954 78.285187 
L 960.858763 77.853187 
L 961.099215 77.853187 
L 961.103093 77.421187 
L 988.235411 77.421187 
L 988.239289 76.989187 
L 989.06148 76.989187 
L 989.201098 75.693187 
L 1014.27018 75.693187 
L 1014.367137 74.829187 
L 1014.421432 74.829187 
L 1014.522267 74.397187 
L 1014.712302 74.397187 
L 1014.793746 73.533187 
L 1014.875189 73.533187 
L 1014.972146 72.669187 
L 1018.571172 72.669187 
L 1018.578929 72.237187 
L 1026.599174 72.237187 
L 1026.603052 71.805187 
L 1026.878408 71.805187 
L 1026.882287 71.373187 
L 1030.857505 71.373187 
L 1030.861383 70.941187 
L 1031.004879 70.941187 
L 1031.008757 70.509187 
L 1033.587801 70.509187 
L 1033.677001 69.645187 
L 1033.739053 69.645187 
L 1033.820497 68.781187 
L 1033.894184 68.781187 
L 1033.998897 67.917187 
L 1034.390601 67.917187 
L 1034.402236 67.485187 
L 1041.270637 67.485187 
L 1041.28615 67.053187 
L 1048.142916 67.053187 
L 1048.228238 66.189187 
L 1048.309682 66.189187 
L 1048.414395 65.757187 
L 1048.464812 65.757187 
L 1048.608308 64.461187 
L 1048.678116 64.461187 
L 1048.763438 63.597187 
L 1059.987127 63.597187 
L 1060.076327 63.165187 
L 1062.872554 63.165187 
L 1062.96951 62.733187 
L 1063.000536 62.733187 
L 1063.008293 62.301187 
L 1063.144032 62.301187 
L 1063.14791 61.869187 
L 1064.962936 61.869187 
L 1065.04438 61.437187 
L 1065.083163 61.437187 
L 1065.180119 61.005187 
L 1070.896677 61.005187 
L 1070.974242 60.141187 
L 1071.044051 60.141187 
L 1071.129372 59.277187 
L 1071.183668 59.277187 
L 1071.276746 58.413187 
L 1071.338798 58.413187 
L 1071.420242 57.549187 
L 1071.493929 57.549187 
L 1071.579251 56.685187 
L 1078.102486 56.685187 
L 1078.106365 56.253187 
L 1078.928556 56.253187 
L 1078.932434 55.821187 
L 1082.775792 55.821187 
L 1082.849479 54.957187 
L 1082.938679 54.957187 
L 1083.039513 54.525187 
L 1086.087827 54.525187 
L 1086.157636 54.093187 
L 1088.949984 54.093187 
L 1089.054697 53.229187 
L 1089.132262 53.229187 
L 1089.202071 52.797187 
L 1089.714001 52.797187 
L 1089.830349 51.933187 
L 1089.958332 50.637187 
L 1090.032019 50.637187 
L 1090.090193 49.773187 
L 1090.183271 49.773187 
L 1090.187149 49.341187 
L 1094.026628 49.341187 
L 1094.127463 48.477187 
L 1094.189515 48.477187 
L 1094.193393 48.045187 
L 1094.666541 48.045187 
L 1094.67042 47.613187 
L 1098.176368 47.613187 
L 1098.26169 46.749187 
L 1098.312107 46.749187 
L 1098.389672 45.885187 
L 1100.499447 45.885187 
L 1100.639064 45.453187 
L 1103.563273 45.453187 
L 1103.954978 45.021187 
L 1104.497934 45.021187 
L 1104.501813 44.589187 
L 1109.322492 44.589187 
L 1109.330248 44.157187 
L 1109.516405 44.157187 
L 1109.516405 44.157187 
L 1109.531918 43.725187 
L 1109.644387 43.725187 
L 1109.652144 43.293187 
L 1109.86157 43.293187 
L 1109.869327 42.861187 
L 1109.981796 42.861187 
L 1109.997309 42.429187 
L 1110.749692 42.429187 
L 1110.757448 41.997187 
L 1111.505953 41.997187 
L 1111.505953 41.997187 
" clip-path="url(#paec081aa09)" style="fill: none; stroke: #0000ff; stroke-width: 1.5; stroke-linecap: square"/>
   </g>
   <g id="patch_129">
    <path d="M 49.235 359.517187 
L 49.235 26.877187 
" style="fill: none; stroke: #000000; stroke-width: 0.8; stroke-linejoin: miter; stroke-linecap: square"/>
   </g>
   <g id="patch_130">
    <path d="M 1165.235 359.517187 
L 1165.235 26.877187 
" style="fill: none; stroke: #000000; stroke-width: 0.8; stroke-linejoin: miter; stroke-linecap: square"/>
   </g>
   <g id="patch_131">
    <path d="M 49.235 359.517187 
L 1165.235 359.517187 
" style="fill: none; stroke: #000000; stroke-width: 0.8; stroke-linejoin: miter; stroke-linecap: square"/>
   </g>
   <g id="patch_132">
    <path d="M 49.235 26.877187 
L 1165.235 26.877187 
" style="fill: none; stroke: #000000; stroke-width: 0.8; stroke-linejoin: miter; stroke-linecap: square"/>
   </g>
   <g id="text_18">
    <!-- Pellet Count and Cumulative Sum Over Time of Group 2 Mouse 12 -->
    <g transform="translate(309.734375 20.877187) scale(0.18 -0.18)">
     <defs>
      <path id="DejaVuSans-61" d="M 2194 1759 
Q 1497 1759 1228 1600 
Q 959 1441 959 1056 
Q 959 750 1161 570 
Q 1363 391 1709 391 
Q 2188 391 2477 730 
Q 2766 1069 2766 1631 
L 2766 1759 
L 2194 1759 
z
M 3341 1997 
L 3341 0 
L 2766 0 
L 2766 531 
Q 2569 213 2275 61 
Q 1981 -91 1556 -91 
Q 1019 -91 701 211 
Q 384 513 384 1019 
Q 384 1609 779 1909 
Q 1175 2209 1959 2209 
L 2766 2209 
L 2766 2266 
Q 2766 2663 2505 2880 
Q 2244 3097 1772 3097 
Q 1472 3097 1187 3025 
Q 903 2953 641 2809 
L 641 3341 
Q 956 3463 1253 3523 
Q 1550 3584 1831 3584 
Q 2591 3584 2966 3190 
Q 3341 2797 3341 1997 
z
" transform="scale(0.015625)"/>
      <path id="DejaVuSans-64" d="M 2906 2969 
L 2906 4863 
L 3481 4863 
L 3481 0 
L 2906 0 
L 2906 525 
Q 2725 213 2448 61 
Q 2172 -91 1784 -91 
Q 1150 -91 751 415 
Q 353 922 353 1747 
Q 353 2572 751 3078 
Q 1150 3584 1784 3584 
Q 2172 3584 2448 3432 
Q 2725 3281 2906 2969 
z
M 947 1747 
Q 947 1113 1208 752 
Q 1469 391 1925 391 
Q 2381 391 2643 752 
Q 2906 1113 2906 1747 
Q 2906 2381 2643 2742 
Q 2381 3103 1925 3103 
Q 1469 3103 1208 2742 
Q 947 2381 947 1747 
z
" transform="scale(0.015625)"/>
      <path id="DejaVuSans-76" d="M 191 3500 
L 800 3500 
L 1894 563 
L 2988 3500 
L 3597 3500 
L 2284 0 
L 1503 0 
L 191 3500 
z
" transform="scale(0.015625)"/>
      <path id="DejaVuSans-53" d="M 3425 4513 
L 3425 3897 
Q 3066 4069 2747 4153 
Q 2428 4238 2131 4238 
Q 1616 4238 1336 4038 
Q 1056 3838 1056 3469 
Q 1056 3159 1242 3001 
Q 1428 2844 1947 2747 
L 2328 2669 
Q 3034 2534 3370 2195 
Q 3706 1856 3706 1288 
Q 3706 609 3251 259 
Q 2797 -91 1919 -91 
Q 1588 -91 1214 -16 
Q 841 59 441 206 
L 441 856 
Q 825 641 1194 531 
Q 1563 422 1919 422 
Q 2459 422 2753 634 
Q 3047 847 3047 1241 
Q 3047 1584 2836 1778 
Q 2625 1972 2144 2069 
L 1759 2144 
Q 1053 2284 737 2584 
Q 422 2884 422 3419 
Q 422 4038 858 4394 
Q 1294 4750 2059 4750 
Q 2388 4750 2728 4690 
Q 3069 4631 3425 4513 
z
" transform="scale(0.015625)"/>
      <path id="DejaVuSans-4f" d="M 2522 4238 
Q 1834 4238 1429 3725 
Q 1025 3213 1025 2328 
Q 1025 1447 1429 934 
Q 1834 422 2522 422 
Q 3209 422 3611 934 
Q 4013 1447 4013 2328 
Q 4013 3213 3611 3725 
Q 3209 4238 2522 4238 
z
M 2522 4750 
Q 3503 4750 4090 4092 
Q 4678 3434 4678 2328 
Q 4678 1225 4090 567 
Q 3503 -91 2522 -91 
Q 1538 -91 948 565 
Q 359 1222 359 2328 
Q 359 3434 948 4092 
Q 1538 4750 2522 4750 
z
" transform="scale(0.015625)"/>
      <path id="DejaVuSans-72" d="M 2631 2963 
Q 2534 3019 2420 3045 
Q 2306 3072 2169 3072 
Q 1681 3072 1420 2755 
Q 1159 2438 1159 1844 
L 1159 0 
L 581 0 
L 581 3500 
L 1159 3500 
L 1159 2956 
Q 1341 3275 1631 3429 
Q 1922 3584 2338 3584 
Q 2397 3584 2469 3576 
Q 2541 3569 2628 3553 
L 2631 2963 
z
" transform="scale(0.015625)"/>
      <path id="DejaVuSans-66" d="M 2375 4863 
L 2375 4384 
L 1825 4384 
Q 1516 4384 1395 4259 
Q 1275 4134 1275 3809 
L 1275 3500 
L 2222 3500 
L 2222 3053 
L 1275 3053 
L 1275 0 
L 697 0 
L 697 3053 
L 147 3053 
L 147 3500 
L 697 3500 
L 697 3744 
Q 697 4328 969 4595 
Q 1241 4863 1831 4863 
L 2375 4863 
z
" transform="scale(0.015625)"/>
      <path id="DejaVuSans-47" d="M 3809 666 
L 3809 1919 
L 2778 1919 
L 2778 2438 
L 4434 2438 
L 4434 434 
Q 4069 175 3628 42 
Q 3188 -91 2688 -91 
Q 1594 -91 976 548 
Q 359 1188 359 2328 
Q 359 3472 976 4111 
Q 1594 4750 2688 4750 
Q 3144 4750 3555 4637 
Q 3966 4525 4313 4306 
L 4313 3634 
Q 3963 3931 3569 4081 
Q 3175 4231 2741 4231 
Q 1884 4231 1454 3753 
Q 1025 3275 1025 2328 
Q 1025 1384 1454 906 
Q 1884 428 2741 428 
Q 3075 428 3337 486 
Q 3600 544 3809 666 
z
" transform="scale(0.015625)"/>
      <path id="DejaVuSans-70" d="M 1159 525 
L 1159 -1331 
L 581 -1331 
L 581 3500 
L 1159 3500 
L 1159 2969 
Q 1341 3281 1617 3432 
Q 1894 3584 2278 3584 
Q 2916 3584 3314 3078 
Q 3713 2572 3713 1747 
Q 3713 922 3314 415 
Q 2916 -91 2278 -91 
Q 1894 -91 1617 61 
Q 1341 213 1159 525 
z
M 3116 1747 
Q 3116 2381 2855 2742 
Q 2594 3103 2138 3103 
Q 1681 3103 1420 2742 
Q 1159 2381 1159 1747 
Q 1159 1113 1420 752 
Q 1681 391 2138 391 
Q 2594 391 2855 752 
Q 3116 1113 3116 1747 
z
" transform="scale(0.015625)"/>
      <path id="DejaVuSans-4d" d="M 628 4666 
L 1569 4666 
L 2759 1491 
L 3956 4666 
L 4897 4666 
L 4897 0 
L 4281 0 
L 4281 4097 
L 3078 897 
L 2444 897 
L 1241 4097 
L 1241 0 
L 628 0 
L 628 4666 
z
" transform="scale(0.015625)"/>
      <path id="DejaVuSans-73" d="M 2834 3397 
L 2834 2853 
Q 2591 2978 2328 3040 
Q 2066 3103 1784 3103 
Q 1356 3103 1142 2972 
Q 928 2841 928 2578 
Q 928 2378 1081 2264 
Q 1234 2150 1697 2047 
L 1894 2003 
Q 2506 1872 2764 1633 
Q 3022 1394 3022 966 
Q 3022 478 2636 193 
Q 2250 -91 1575 -91 
Q 1294 -91 989 -36 
Q 684 19 347 128 
L 347 722 
Q 666 556 975 473 
Q 1284 391 1588 391 
Q 1994 391 2212 530 
Q 2431 669 2431 922 
Q 2431 1156 2273 1281 
Q 2116 1406 1581 1522 
L 1381 1569 
Q 847 1681 609 1914 
Q 372 2147 372 2553 
Q 372 3047 722 3315 
Q 1072 3584 1716 3584 
Q 2034 3584 2315 3537 
Q 2597 3491 2834 3397 
z
" transform="scale(0.015625)"/>
     </defs>
     <use xlink:href="#DejaVuSans-50"/>
     <use xlink:href="#DejaVuSans-65" x="56.677734"/>
     <use xlink:href="#DejaVuSans-6c" x="118.201172"/>
     <use xlink:href="#DejaVuSans-6c" x="145.984375"/>
     <use xlink:href="#DejaVuSans-65" x="173.767578"/>
     <use xlink:href="#DejaVuSans-74" x="235.291016"/>
     <use xlink:href="#DejaVuSans-20" x="274.5"/>
     <use xlink:href="#DejaVuSans-43" x="306.287109"/>
     <use xlink:href="#DejaVuSans-6f" x="376.111328"/>
     <use xlink:href="#DejaVuSans-75" x="437.292969"/>
     <use xlink:href="#DejaVuSans-6e" x="500.671875"/>
     <use xlink:href="#DejaVuSans-74" x="564.050781"/>
     <use xlink:href="#DejaVuSans-20" x="603.259766"/>
     <use xlink:href="#DejaVuSans-61" x="635.046875"/>
     <use xlink:href="#DejaVuSans-6e" x="696.326172"/>
     <use xlink:href="#DejaVuSans-64" x="759.705078"/>
     <use xlink:href="#DejaVuSans-20" x="823.181641"/>
     <use xlink:href="#DejaVuSans-43" x="854.96875"/>
     <use xlink:href="#DejaVuSans-75" x="924.792969"/>
     <use xlink:href="#DejaVuSans-6d" x="988.171875"/>
     <use xlink:href="#DejaVuSans-75" x="1085.583984"/>
     <use xlink:href="#DejaVuSans-6c" x="1148.962891"/>
     <use xlink:href="#DejaVuSans-61" x="1176.746094"/>
     <use xlink:href="#DejaVuSans-74" x="1238.025391"/>
     <use xlink:href="#DejaVuSans-69" x="1277.234375"/>
     <use xlink:href="#DejaVuSans-76" x="1305.017578"/>
     <use xlink:href="#DejaVuSans-65" x="1364.197266"/>
     <use xlink:href="#DejaVuSans-20" x="1425.720703"/>
     <use xlink:href="#DejaVuSans-53" x="1457.507812"/>
     <use xlink:href="#DejaVuSans-75" x="1520.984375"/>
     <use xlink:href="#DejaVuSans-6d" x="1584.363281"/>
     <use xlink:href="#DejaVuSans-20" x="1681.775391"/>
     <use xlink:href="#DejaVuSans-4f" x="1713.5625"/>
     <use xlink:href="#DejaVuSans-76" x="1792.273438"/>
     <use xlink:href="#DejaVuSans-65" x="1851.453125"/>
     <use xlink:href="#DejaVuSans-72" x="1912.976562"/>
     <use xlink:href="#DejaVuSans-20" x="1954.089844"/>
     <use xlink:href="#DejaVuSans-54" x="1985.876953"/>
     <use xlink:href="#DejaVuSans-69" x="2043.835938"/>
     <use xlink:href="#DejaVuSans-6d" x="2071.619141"/>
     <use xlink:href="#DejaVuSans-65" x="2169.03125"/>
     <use xlink:href="#DejaVuSans-20" x="2230.554688"/>
     <use xlink:href="#DejaVuSans-6f" x="2262.341797"/>
     <use xlink:href="#DejaVuSans-66" x="2323.523438"/>
     <use xlink:href="#DejaVuSans-20" x="2358.728516"/>
     <use xlink:href="#DejaVuSans-47" x="2390.515625"/>
     <use xlink:href="#DejaVuSans-72" x="2468.005859"/>
     <use xlink:href="#DejaVuSans-6f" x="2506.869141"/>
     <use xlink:href="#DejaVuSans-75" x="2568.050781"/>
     <use xlink:href="#DejaVuSans-70" x="2631.429688"/>
     <use xlink:href="#DejaVuSans-20" x="2694.90625"/>
     <use xlink:href="#DejaVuSans-32" x="2726.693359"/>
     <use xlink:href="#DejaVuSans-20" x="2790.316406"/>
     <use xlink:href="#DejaVuSans-4d" x="2822.103516"/>
     <use xlink:href="#DejaVuSans-6f" x="2908.382812"/>
     <use xlink:href="#DejaVuSans-75" x="2969.564453"/>
     <use xlink:href="#DejaVuSans-73" x="3032.943359"/>
     <use xlink:href="#DejaVuSans-65" x="3085.042969"/>
     <use xlink:href="#DejaVuSans-20" x="3146.566406"/>
     <use xlink:href="#DejaVuSans-31" x="3178.353516"/>
     <use xlink:href="#DejaVuSans-32" x="3241.976562"/>
    </g>
   </g>
   <g id="legend_1">
    <g id="patch_133">
     <path d="M 1086.550625 64.233437 
L 1158.235 64.233437 
Q 1160.235 64.233437 1160.235 62.233437 
L 1160.235 33.877187 
Q 1160.235 31.877187 1158.235 31.877187 
L 1086.550625 31.877187 
Q 1084.550625 31.877187 1084.550625 33.877187 
L 1084.550625 62.233437 
Q 1084.550625 64.233437 1086.550625 64.233437 
z
" style="fill: #ffffff; opacity: 0.8; stroke: #cccccc; stroke-linejoin: miter"/>
    </g>
    <g id="patch_134">
     <path d="M 1088.550625 43.475625 
L 1108.550625 43.475625 
L 1108.550625 36.475625 
L 1088.550625 36.475625 
z
" style="fill: #add8e6; opacity: 0.9; stroke: #add8e6; stroke-linejoin: miter"/>
    </g>
    <g id="text_19">
     <!-- Meal -->
     <g transform="translate(1116.550625 43.475625) scale(0.1 -0.1)">
      <use xlink:href="#DejaVuSans-4d"/>
      <use xlink:href="#DejaVuSans-65" x="86.279297"/>
      <use xlink:href="#DejaVuSans-61" x="147.802734"/>
      <use xlink:href="#DejaVuSans-6c" x="209.082031"/>
     </g>
    </g>
    <g id="patch_135">
     <path d="M 1088.550625 58.15375 
L 1108.550625 58.15375 
L 1108.550625 51.15375 
L 1088.550625 51.15375 
z
" style="fill: #808080; opacity: 0.5; stroke: #808080; stroke-linejoin: miter"/>
    </g>
    <g id="text_20">
     <!-- Inactive -->
     <g transform="translate(1116.550625 58.15375) scale(0.1 -0.1)">
      <defs>
       <path id="DejaVuSans-49" d="M 628 4666 
L 1259 4666 
L 1259 0 
L 628 0 
L 628 4666 
z
" transform="scale(0.015625)"/>
       <path id="DejaVuSans-63" d="M 3122 3366 
L 3122 2828 
Q 2878 2963 2633 3030 
Q 2388 3097 2138 3097 
Q 1578 3097 1268 2742 
Q 959 2388 959 1747 
Q 959 1106 1268 751 
Q 1578 397 2138 397 
Q 2388 397 2633 464 
Q 2878 531 3122 666 
L 3122 134 
Q 2881 22 2623 -34 
Q 2366 -91 2075 -91 
Q 1284 -91 818 406 
Q 353 903 353 1747 
Q 353 2603 823 3093 
Q 1294 3584 2113 3584 
Q 2378 3584 2631 3529 
Q 2884 3475 3122 3366 
z
" transform="scale(0.015625)"/>
      </defs>
      <use xlink:href="#DejaVuSans-49"/>
      <use xlink:href="#DejaVuSans-6e" x="29.492188"/>
      <use xlink:href="#DejaVuSans-61" x="92.871094"/>
      <use xlink:href="#DejaVuSans-63" x="154.150391"/>
      <use xlink:href="#DejaVuSans-74" x="209.130859"/>
      <use xlink:href="#DejaVuSans-69" x="248.339844"/>
      <use xlink:href="#DejaVuSans-76" x="276.123047"/>
      <use xlink:href="#DejaVuSans-65" x="335.302734"/>
     </g>
    </g>
   </g>
  </g>
 </g>
 <defs>
  <clipPath id="paec081aa09">
   <rect x="49.235" y="26.877187" width="1116" height="332.64"/>
  </clipPath>
 </defs>
</svg>
