<?xml version="1.0" encoding="utf-8" standalone="no"?>
<!DOCTYPE svg PUBLIC "-//W3C//DTD SVG 1.1//EN"
  "http://www.w3.org/Graphics/SVG/1.1/DTD/svg11.dtd">
<svg xmlns:xlink="http://www.w3.org/1999/xlink" width="1172.435pt" height="399.009062pt" viewBox="0 0 1172.435 399.009062" xmlns="http://www.w3.org/2000/svg" version="1.1">
 <metadata>
  <rdf:RDF xmlns:dc="http://purl.org/dc/elements/1.1/" xmlns:cc="http://creativecommons.org/ns#" xmlns:rdf="http://www.w3.org/1999/02/22-rdf-syntax-ns#">
   <cc:Work>
    <dc:type rdf:resource="http://purl.org/dc/dcmitype/StillImage"/>
    <dc:date>2025-02-26T10:29:04.917326</dc:date>
    <dc:format>image/svg+xml</dc:format>
    <dc:creator>
     <cc:Agent>
      <dc:title>Matplotlib v3.8.3, https://matplotlib.org/</dc:title>
     </cc:Agent>
    </dc:creator>
   </cc:Work>
  </rdf:RDF>
 </metadata>
 <defs>
  <style type="text/css">*{stroke-linejoin: round; stroke-linecap: butt}</style>
 </defs>
 <g id="figure_1">
  <g id="patch_1">
   <path d="M 0 399.009062 
L 1172.435 399.009062 
L 1172.435 0 
L 0 0 
z
" style="fill: #ffffff"/>
  </g>
  <g id="axes_1">
   <g id="patch_2">
    <path d="M 49.235 359.517187 
L 1165.235 359.517187 
L 1165.235 26.877187 
L 49.235 26.877187 
z
" style="fill: #ffffff"/>
   </g>
   <g id="patch_3">
    <path d="M 155.293047 359.517187 
L 155.293047 26.877187 
L 152.277499 26.877187 
L 152.277499 359.517187 
z
" clip-path="url(#p2484b9e943)" style="fill: #add8e6; stroke: #add8e6; stroke-linejoin: miter"/>
   </g>
   <g id="patch_4">
    <path d="M 179.112854 359.517187 
L 179.112854 26.877187 
L 157.600597 26.877187 
L 157.600597 359.517187 
z
" clip-path="url(#p2484b9e943)" style="fill: #add8e6; stroke: #add8e6; stroke-linejoin: miter"/>
   </g>
   <g id="patch_5">
    <path d="M 194.868338 359.517187 
L 194.868338 26.877187 
L 193.980819 26.877187 
L 193.980819 359.517187 
z
" clip-path="url(#p2484b9e943)" style="fill: #add8e6; stroke: #add8e6; stroke-linejoin: miter"/>
   </g>
   <g id="patch_6">
    <path d="M 205.76062 359.517187 
L 205.76062 26.877187 
L 205.274501 26.877187 
L 205.274501 359.517187 
z
" clip-path="url(#p2484b9e943)" style="fill: #add8e6; stroke: #add8e6; stroke-linejoin: miter"/>
   </g>
   <g id="patch_7">
    <path d="M 221.826736 359.517187 
L 221.826736 26.877187 
L 220.531764 26.877187 
L 220.531764 359.517187 
z
" clip-path="url(#p2484b9e943)" style="fill: #add8e6; stroke: #add8e6; stroke-linejoin: miter"/>
   </g>
   <g id="patch_8">
    <path d="M 226.740365 359.517187 
L 226.740365 26.877187 
L 225.814521 26.877187 
L 225.814521 359.517187 
z
" clip-path="url(#p2484b9e943)" style="fill: #add8e6; stroke: #add8e6; stroke-linejoin: miter"/>
   </g>
   <g id="patch_9">
    <path d="M 237.432955 359.517187 
L 237.432955 26.877187 
L 235.298874 26.877187 
L 235.298874 359.517187 
z
" clip-path="url(#p2484b9e943)" style="fill: #add8e6; stroke: #add8e6; stroke-linejoin: miter"/>
   </g>
   <g id="patch_10">
    <path d="M 239.540813 359.517187 
L 239.540813 26.877187 
L 237.675006 26.877187 
L 237.675006 359.517187 
z
" clip-path="url(#p2484b9e943)" style="fill: #add8e6; stroke: #add8e6; stroke-linejoin: miter"/>
   </g>
   <g id="patch_11">
    <path d="M 249.132072 359.517187 
L 249.132072 26.877187 
L 247.403427 26.877187 
L 247.403427 359.517187 
z
" clip-path="url(#p2484b9e943)" style="fill: #add8e6; stroke: #add8e6; stroke-linejoin: miter"/>
   </g>
   <g id="patch_12">
    <path d="M 252.198048 359.517187 
L 252.198048 26.877187 
L 251.250016 26.877187 
L 251.250016 359.517187 
z
" clip-path="url(#p2484b9e943)" style="fill: #add8e6; stroke: #add8e6; stroke-linejoin: miter"/>
   </g>
   <g id="patch_13">
    <path d="M 290.290778 359.517187 
L 290.290778 26.877187 
L 271.902993 26.877187 
L 271.902993 359.517187 
z
" clip-path="url(#p2484b9e943)" style="fill: #add8e6; stroke: #add8e6; stroke-linejoin: miter"/>
   </g>
   <g id="patch_14">
    <path d="M 299.819508 359.517187 
L 299.819508 26.877187 
L 292.085988 26.877187 
L 292.085988 359.517187 
z
" clip-path="url(#p2484b9e943)" style="fill: #add8e6; stroke: #add8e6; stroke-linejoin: miter"/>
   </g>
   <g id="patch_15">
    <path d="M 319.504281 359.517187 
L 319.504281 26.877187 
L 303.460354 26.877187 
L 303.460354 359.517187 
z
" clip-path="url(#p2484b9e943)" style="fill: #add8e6; stroke: #add8e6; stroke-linejoin: miter"/>
   </g>
   <g id="patch_16">
    <path d="M 332.222029 359.517187 
L 332.222029 26.877187 
L 331.062203 26.877187 
L 331.062203 359.517187 
z
" clip-path="url(#p2484b9e943)" style="fill: #add8e6; stroke: #add8e6; stroke-linejoin: miter"/>
   </g>
   <g id="patch_17">
    <path d="M 371.424158 359.517187 
L 371.424158 26.877187 
L 342.852089 26.877187 
L 342.852089 359.517187 
z
" clip-path="url(#p2484b9e943)" style="fill: #add8e6; stroke: #add8e6; stroke-linejoin: miter"/>
   </g>
   <g id="patch_18">
    <path d="M 375.740729 359.517187 
L 375.740729 26.877187 
L 371.4645 26.877187 
L 371.4645 359.517187 
z
" clip-path="url(#p2484b9e943)" style="fill: #add8e6; stroke: #add8e6; stroke-linejoin: miter"/>
   </g>
   <g id="patch_19">
    <path d="M 381.993706 359.517187 
L 381.993706 26.877187 
L 349.901816 26.877187 
L 349.901816 359.517187 
z
" clip-path="url(#p2484b9e943)" style="fill: #add8e6; stroke: #add8e6; stroke-linejoin: miter"/>
   </g>
   <g id="patch_20">
    <path d="M 393.733165 359.517187 
L 393.733165 26.877187 
L 371.648055 26.877187 
L 371.648055 359.517187 
z
" clip-path="url(#p2484b9e943)" style="fill: #add8e6; stroke: #add8e6; stroke-linejoin: miter"/>
   </g>
   <g id="patch_21">
    <path d="M 403.042032 359.517187 
L 403.042032 26.877187 
L 384.151991 26.877187 
L 384.151991 359.517187 
z
" clip-path="url(#p2484b9e943)" style="fill: #add8e6; stroke: #add8e6; stroke-linejoin: miter"/>
   </g>
   <g id="patch_22">
    <path d="M 416.647299 359.517187 
L 416.647299 26.877187 
L 390.618779 26.877187 
L 390.618779 359.517187 
z
" clip-path="url(#p2484b9e943)" style="fill: #add8e6; stroke: #add8e6; stroke-linejoin: miter"/>
   </g>
   <g id="patch_23">
    <path d="M 426.601634 359.517187 
L 426.601634 26.877187 
L 393.251081 26.877187 
L 393.251081 359.517187 
z
" clip-path="url(#p2484b9e943)" style="fill: #add8e6; stroke: #add8e6; stroke-linejoin: miter"/>
   </g>
   <g id="patch_24">
    <path d="M 432.370509 359.517187 
L 432.370509 26.877187 
L 402.632563 26.877187 
L 402.632563 359.517187 
z
" clip-path="url(#p2484b9e943)" style="fill: #add8e6; stroke: #add8e6; stroke-linejoin: miter"/>
   </g>
   <g id="patch_25">
    <path d="M 439.379894 359.517187 
L 439.379894 26.877187 
L 414.743166 26.877187 
L 414.743166 359.517187 
z
" clip-path="url(#p2484b9e943)" style="fill: #add8e6; stroke: #add8e6; stroke-linejoin: miter"/>
   </g>
   <g id="patch_26">
    <path d="M 441.729803 359.517187 
L 441.729803 26.877187 
L 413.260606 26.877187 
L 413.260606 359.517187 
z
" clip-path="url(#p2484b9e943)" style="fill: #add8e6; stroke: #add8e6; stroke-linejoin: miter"/>
   </g>
   <g id="patch_27">
    <path d="M 451.220208 359.517187 
L 451.220208 26.877187 
L 431.989279 26.877187 
L 431.989279 359.517187 
z
" clip-path="url(#p2484b9e943)" style="fill: #add8e6; stroke: #add8e6; stroke-linejoin: miter"/>
   </g>
   <g id="patch_28">
    <path d="M 459.177625 359.517187 
L 459.177625 26.877187 
L 425.726217 26.877187 
L 425.726217 359.517187 
z
" clip-path="url(#p2484b9e943)" style="fill: #add8e6; stroke: #add8e6; stroke-linejoin: miter"/>
   </g>
   <g id="patch_29">
    <path d="M 472.389559 359.517187 
L 472.389559 26.877187 
L 444.610207 26.877187 
L 444.610207 359.517187 
z
" clip-path="url(#p2484b9e943)" style="fill: #add8e6; stroke: #add8e6; stroke-linejoin: miter"/>
   </g>
   <g id="patch_30">
    <path d="M 480.800822 359.517187 
L 480.800822 26.877187 
L 447.889994 26.877187 
L 447.889994 359.517187 
z
" clip-path="url(#p2484b9e943)" style="fill: #add8e6; stroke: #add8e6; stroke-linejoin: miter"/>
   </g>
   <g id="patch_31">
    <path d="M 491.904898 359.517187 
L 491.904898 26.877187 
L 457.862483 26.877187 
L 457.862483 359.517187 
z
" clip-path="url(#p2484b9e943)" style="fill: #add8e6; stroke: #add8e6; stroke-linejoin: miter"/>
   </g>
   <g id="patch_32">
    <path d="M 507.184349 359.517187 
L 507.184349 26.877187 
L 490.547397 26.877187 
L 490.547397 359.517187 
z
" clip-path="url(#p2484b9e943)" style="fill: #add8e6; stroke: #add8e6; stroke-linejoin: miter"/>
   </g>
   <g id="patch_33">
    <path d="M 535.796759 359.517187 
L 535.796759 26.877187 
L 510.73846 26.877187 
L 510.73846 359.517187 
z
" clip-path="url(#p2484b9e943)" style="fill: #add8e6; stroke: #add8e6; stroke-linejoin: miter"/>
   </g>
   <g id="patch_34">
    <path d="M 541.90854 359.517187 
L 541.90854 26.877187 
L 523.833403 26.877187 
L 523.833403 359.517187 
z
" clip-path="url(#p2484b9e943)" style="fill: #add8e6; stroke: #add8e6; stroke-linejoin: miter"/>
   </g>
   <g id="patch_35">
    <path d="M 550.783732 359.517187 
L 550.783732 26.877187 
L 518.986338 26.877187 
L 518.986338 359.517187 
z
" clip-path="url(#p2484b9e943)" style="fill: #add8e6; stroke: #add8e6; stroke-linejoin: miter"/>
   </g>
   <g id="patch_36">
    <path d="M 554.898594 359.517187 
L 554.898594 26.877187 
L 539.082598 26.877187 
L 539.082598 359.517187 
z
" clip-path="url(#p2484b9e943)" style="fill: #add8e6; stroke: #add8e6; stroke-linejoin: miter"/>
   </g>
   <g id="patch_37">
    <path d="M 581.729915 359.517187 
L 581.729915 26.877187 
L 581.982051 26.877187 
L 581.982051 359.517187 
z
" clip-path="url(#p2484b9e943)" style="fill: #add8e6; stroke: #add8e6; stroke-linejoin: miter"/>
   </g>
   <g id="patch_38">
    <path d="M 586.490246 359.517187 
L 586.490246 26.877187 
L 586.665733 26.877187 
L 586.665733 359.517187 
z
" clip-path="url(#p2484b9e943)" style="fill: #add8e6; stroke: #add8e6; stroke-linejoin: miter"/>
   </g>
   <g id="patch_39">
    <path d="M 592.406369 359.517187 
L 592.406369 26.877187 
L 592.158267 26.877187 
L 592.158267 359.517187 
z
" clip-path="url(#p2484b9e943)" style="fill: #add8e6; stroke: #add8e6; stroke-linejoin: miter"/>
   </g>
   <g id="patch_40">
    <path d="M 634.220628 359.517187 
L 634.220628 26.877187 
L 621.480693 26.877187 
L 621.480693 359.517187 
z
" clip-path="url(#p2484b9e943)" style="fill: #add8e6; stroke: #add8e6; stroke-linejoin: miter"/>
   </g>
   <g id="patch_41">
    <path d="M 648.350338 359.517187 
L 648.350338 26.877187 
L 648.429005 26.877187 
L 648.429005 359.517187 
z
" clip-path="url(#p2484b9e943)" style="fill: #add8e6; stroke: #add8e6; stroke-linejoin: miter"/>
   </g>
   <g id="patch_42">
    <path d="M 649.399225 359.517187 
L 649.399225 26.877187 
L 648.842508 26.877187 
L 648.842508 359.517187 
z
" clip-path="url(#p2484b9e943)" style="fill: #add8e6; stroke: #add8e6; stroke-linejoin: miter"/>
   </g>
   <g id="patch_43">
    <path d="M 651.067357 359.517187 
L 651.067357 26.877187 
L 650.736555 26.877187 
L 650.736555 359.517187 
z
" clip-path="url(#p2484b9e943)" style="fill: #add8e6; stroke: #add8e6; stroke-linejoin: miter"/>
   </g>
   <g id="patch_44">
    <path d="M 654.936135 359.517187 
L 654.936135 26.877187 
L 652.543867 26.877187 
L 652.543867 359.517187 
z
" clip-path="url(#p2484b9e943)" style="fill: #add8e6; stroke: #add8e6; stroke-linejoin: miter"/>
   </g>
   <g id="patch_45">
    <path d="M 676.240631 359.517187 
L 676.240631 26.877187 
L 675.593145 26.877187 
L 675.593145 359.517187 
z
" clip-path="url(#p2484b9e943)" style="fill: #add8e6; stroke: #add8e6; stroke-linejoin: miter"/>
   </g>
   <g id="patch_46">
    <path d="M 719.129999 359.517187 
L 719.129999 26.877187 
L 719.214717 26.877187 
L 719.214717 359.517187 
z
" clip-path="url(#p2484b9e943)" style="fill: #add8e6; stroke: #add8e6; stroke-linejoin: miter"/>
   </g>
   <g id="patch_47">
    <path d="M 721.284251 359.517187 
L 721.284251 26.877187 
L 721.592865 26.877187 
L 721.592865 359.517187 
z
" clip-path="url(#p2484b9e943)" style="fill: #add8e6; stroke: #add8e6; stroke-linejoin: miter"/>
   </g>
   <g id="patch_48">
    <path d="M 730.169529 359.517187 
L 730.169529 26.877187 
L 729.415137 26.877187 
L 729.415137 359.517187 
z
" clip-path="url(#p2484b9e943)" style="fill: #add8e6; stroke: #add8e6; stroke-linejoin: miter"/>
   </g>
   <g id="patch_49">
    <path d="M 769.101368 359.517187 
L 769.101368 26.877187 
L 769.377709 26.877187 
L 769.377709 359.517187 
z
" clip-path="url(#p2484b9e943)" style="fill: #add8e6; stroke: #add8e6; stroke-linejoin: miter"/>
   </g>
   <g id="patch_50">
    <path d="M 775.309968 359.517187 
L 775.309968 26.877187 
L 774.668534 26.877187 
L 774.668534 359.517187 
z
" clip-path="url(#p2484b9e943)" style="fill: #add8e6; stroke: #add8e6; stroke-linejoin: miter"/>
   </g>
   <g id="patch_51">
    <path d="M 822.828557 359.517187 
L 822.828557 26.877187 
L 804.600121 26.877187 
L 804.600121 359.517187 
z
" clip-path="url(#p2484b9e943)" style="fill: #add8e6; stroke: #add8e6; stroke-linejoin: miter"/>
   </g>
   <g id="patch_52">
    <path d="M 885.116272 359.517187 
L 885.116272 26.877187 
L 884.91658 26.877187 
L 884.91658 359.517187 
z
" clip-path="url(#p2484b9e943)" style="fill: #add8e6; stroke: #add8e6; stroke-linejoin: miter"/>
   </g>
   <g id="patch_53">
    <path d="M 887.976504 359.517187 
L 887.976504 26.877187 
L 887.355241 26.877187 
L 887.355241 359.517187 
z
" clip-path="url(#p2484b9e943)" style="fill: #add8e6; stroke: #add8e6; stroke-linejoin: miter"/>
   </g>
   <g id="patch_54">
    <path d="M 970.550086 359.517187 
L 970.550086 26.877187 
L 952.817855 26.877187 
L 952.817855 359.517187 
z
" clip-path="url(#p2484b9e943)" style="fill: #add8e6; stroke: #add8e6; stroke-linejoin: miter"/>
   </g>
   <g id="patch_55">
    <path d="M 991.003371 359.517187 
L 991.003371 26.877187 
L 976.669935 26.877187 
L 976.669935 359.517187 
z
" clip-path="url(#p2484b9e943)" style="fill: #add8e6; stroke: #add8e6; stroke-linejoin: miter"/>
   </g>
   <g id="patch_56">
    <path d="M 1007.343811 359.517187 
L 1007.343811 26.877187 
L 1006.95653 26.877187 
L 1006.95653 359.517187 
z
" clip-path="url(#p2484b9e943)" style="fill: #add8e6; stroke: #add8e6; stroke-linejoin: miter"/>
   </g>
   <g id="patch_57">
    <path d="M 1010.58729 359.517187 
L 1010.58729 26.877187 
L 1010.764794 26.877187 
L 1010.764794 359.517187 
z
" clip-path="url(#p2484b9e943)" style="fill: #add8e6; stroke: #add8e6; stroke-linejoin: miter"/>
   </g>
   <g id="patch_58">
    <path d="M 1058.293468 359.517187 
L 1058.293468 26.877187 
L 1035.435812 26.877187 
L 1035.435812 359.517187 
z
" clip-path="url(#p2484b9e943)" style="fill: #add8e6; stroke: #add8e6; stroke-linejoin: miter"/>
   </g>
   <g id="patch_59">
    <path d="M 1079.977177 359.517187 
L 1079.977177 26.877187 
L 1071.90882 26.877187 
L 1071.90882 359.517187 
z
" clip-path="url(#p2484b9e943)" style="fill: #add8e6; stroke: #add8e6; stroke-linejoin: miter"/>
   </g>
   <g id="patch_60">
    <path d="M 1085.110669 359.517187 
L 1085.110669 26.877187 
L 1084.787935 26.877187 
L 1084.787935 359.517187 
z
" clip-path="url(#p2484b9e943)" style="fill: #add8e6; stroke: #add8e6; stroke-linejoin: miter"/>
   </g>
   <g id="patch_61">
    <path d="M 1111.780623 359.517187 
L 1111.780623 26.877187 
L 1096.434608 26.877187 
L 1096.434608 359.517187 
z
" clip-path="url(#p2484b9e943)" style="fill: #add8e6; stroke: #add8e6; stroke-linejoin: miter"/>
   </g>
   <g id="patch_62">
    <path d="M 99.962273 359.517187 
L 99.962273 26.877187 
L 148.372414 26.877187 
L 148.372414 359.517187 
z
" clip-path="url(#p2484b9e943)" style="fill: #808080; opacity: 0.4; stroke: #808080; stroke-linejoin: miter"/>
   </g>
   <g id="patch_63">
    <path d="M 160.47495 26.877187 
L 160.47495 26.877187 
L 160.47495 359.517187 
" clip-path="url(#p2484b9e943)" style="fill: #808080; opacity: 0.4; stroke: #808080; stroke-linejoin: miter"/>
   </g>
   <g id="patch_64">
    <path d="M 172.577485 26.877187 
L 172.577485 26.877187 
L 172.577485 359.517187 
" clip-path="url(#p2484b9e943)" style="fill: #808080; opacity: 0.4; stroke: #808080; stroke-linejoin: miter"/>
   </g>
   <g id="patch_65">
    <path d="M 584.063687 359.517187 
L 584.063687 26.877187 
L 1019.754961 26.877187 
L 1019.754961 359.517187 
z
" clip-path="url(#p2484b9e943)" style="fill: #808080; opacity: 0.4; stroke: #808080; stroke-linejoin: miter"/>
   </g>
   <g id="patch_66">
    <path d="M 1031.857496 26.877187 
L 1031.857496 26.877187 
L 1031.857496 359.517187 
" clip-path="url(#p2484b9e943)" style="fill: #808080; opacity: 0.4; stroke: #808080; stroke-linejoin: miter"/>
   </g>
   <g id="patch_67">
    <path d="M 1043.960032 26.877187 
L 1043.960032 26.877187 
L 1043.960032 359.517187 
" clip-path="url(#p2484b9e943)" style="fill: #808080; opacity: 0.4; stroke: #808080; stroke-linejoin: miter"/>
   </g>
   <g id="matplotlib.axis_1">
    <g id="xtick_1">
     <g id="line2d_1">
      <defs>
       <path id="md3d62000e2" d="M 0 0 
L 0 3.5 
" style="stroke: #000000; stroke-width: 0.8"/>
      </defs>
      <g>
       <use xlink:href="#md3d62000e2" x="105.156277" y="359.517187" style="stroke: #000000; stroke-width: 0.8"/>
      </g>
     </g>
     <g id="text_1">
      <!-- 12-05 06 -->
      <g transform="translate(82.675809 374.115625) scale(0.1 -0.1)">
       <defs>
        <path id="DejaVuSans-31" d="M 794 531 
L 1825 531 
L 1825 4091 
L 703 3866 
L 703 4441 
L 1819 4666 
L 2450 4666 
L 2450 531 
L 3481 531 
L 3481 0 
L 794 0 
L 794 531 
z
" transform="scale(0.015625)"/>
        <path id="DejaVuSans-32" d="M 1228 531 
L 3431 531 
L 3431 0 
L 469 0 
L 469 531 
Q 828 903 1448 1529 
Q 2069 2156 2228 2338 
Q 2531 2678 2651 2914 
Q 2772 3150 2772 3378 
Q 2772 3750 2511 3984 
Q 2250 4219 1831 4219 
Q 1534 4219 1204 4116 
Q 875 4013 500 3803 
L 500 4441 
Q 881 4594 1212 4672 
Q 1544 4750 1819 4750 
Q 2544 4750 2975 4387 
Q 3406 4025 3406 3419 
Q 3406 3131 3298 2873 
Q 3191 2616 2906 2266 
Q 2828 2175 2409 1742 
Q 1991 1309 1228 531 
z
" transform="scale(0.015625)"/>
        <path id="DejaVuSans-2d" d="M 313 2009 
L 1997 2009 
L 1997 1497 
L 313 1497 
L 313 2009 
z
" transform="scale(0.015625)"/>
        <path id="DejaVuSans-30" d="M 2034 4250 
Q 1547 4250 1301 3770 
Q 1056 3291 1056 2328 
Q 1056 1369 1301 889 
Q 1547 409 2034 409 
Q 2525 409 2770 889 
Q 3016 1369 3016 2328 
Q 3016 3291 2770 3770 
Q 2525 4250 2034 4250 
z
M 2034 4750 
Q 2819 4750 3233 4129 
Q 3647 3509 3647 2328 
Q 3647 1150 3233 529 
Q 2819 -91 2034 -91 
Q 1250 -91 836 529 
Q 422 1150 422 2328 
Q 422 3509 836 4129 
Q 1250 4750 2034 4750 
z
" transform="scale(0.015625)"/>
        <path id="DejaVuSans-35" d="M 691 4666 
L 3169 4666 
L 3169 4134 
L 1269 4134 
L 1269 2991 
Q 1406 3038 1543 3061 
Q 1681 3084 1819 3084 
Q 2600 3084 3056 2656 
Q 3513 2228 3513 1497 
Q 3513 744 3044 326 
Q 2575 -91 1722 -91 
Q 1428 -91 1123 -41 
Q 819 9 494 109 
L 494 744 
Q 775 591 1075 516 
Q 1375 441 1709 441 
Q 2250 441 2565 725 
Q 2881 1009 2881 1497 
Q 2881 1984 2565 2268 
Q 2250 2553 1709 2553 
Q 1456 2553 1204 2497 
Q 953 2441 691 2322 
L 691 4666 
z
" transform="scale(0.015625)"/>
        <path id="DejaVuSans-20" transform="scale(0.015625)"/>
        <path id="DejaVuSans-36" d="M 2113 2584 
Q 1688 2584 1439 2293 
Q 1191 2003 1191 1497 
Q 1191 994 1439 701 
Q 1688 409 2113 409 
Q 2538 409 2786 701 
Q 3034 994 3034 1497 
Q 3034 2003 2786 2293 
Q 2538 2584 2113 2584 
z
M 3366 4563 
L 3366 3988 
Q 3128 4100 2886 4159 
Q 2644 4219 2406 4219 
Q 1781 4219 1451 3797 
Q 1122 3375 1075 2522 
Q 1259 2794 1537 2939 
Q 1816 3084 2150 3084 
Q 2853 3084 3261 2657 
Q 3669 2231 3669 1497 
Q 3669 778 3244 343 
Q 2819 -91 2113 -91 
Q 1303 -91 875 529 
Q 447 1150 447 2328 
Q 447 3434 972 4092 
Q 1497 4750 2381 4750 
Q 2619 4750 2861 4703 
Q 3103 4656 3366 4563 
z
" transform="scale(0.015625)"/>
       </defs>
       <use xlink:href="#DejaVuSans-31"/>
       <use xlink:href="#DejaVuSans-32" x="63.623047"/>
       <use xlink:href="#DejaVuSans-2d" x="127.246094"/>
       <use xlink:href="#DejaVuSans-30" x="163.330078"/>
       <use xlink:href="#DejaVuSans-35" x="226.953125"/>
       <use xlink:href="#DejaVuSans-20" x="290.576172"/>
       <use xlink:href="#DejaVuSans-30" x="322.363281"/>
       <use xlink:href="#DejaVuSans-36" x="385.986328"/>
      </g>
     </g>
    </g>
    <g id="xtick_2">
     <g id="line2d_2">
      <g>
       <use xlink:href="#md3d62000e2" x="214.079096" y="359.517187" style="stroke: #000000; stroke-width: 0.8"/>
      </g>
     </g>
     <g id="text_2">
      <!-- 12-05 09 -->
      <g transform="translate(191.598627 374.115625) scale(0.1 -0.1)">
       <defs>
        <path id="DejaVuSans-39" d="M 703 97 
L 703 672 
Q 941 559 1184 500 
Q 1428 441 1663 441 
Q 2288 441 2617 861 
Q 2947 1281 2994 2138 
Q 2813 1869 2534 1725 
Q 2256 1581 1919 1581 
Q 1219 1581 811 2004 
Q 403 2428 403 3163 
Q 403 3881 828 4315 
Q 1253 4750 1959 4750 
Q 2769 4750 3195 4129 
Q 3622 3509 3622 2328 
Q 3622 1225 3098 567 
Q 2575 -91 1691 -91 
Q 1453 -91 1209 -44 
Q 966 3 703 97 
z
M 1959 2075 
Q 2384 2075 2632 2365 
Q 2881 2656 2881 3163 
Q 2881 3666 2632 3958 
Q 2384 4250 1959 4250 
Q 1534 4250 1286 3958 
Q 1038 3666 1038 3163 
Q 1038 2656 1286 2365 
Q 1534 2075 1959 2075 
z
" transform="scale(0.015625)"/>
       </defs>
       <use xlink:href="#DejaVuSans-31"/>
       <use xlink:href="#DejaVuSans-32" x="63.623047"/>
       <use xlink:href="#DejaVuSans-2d" x="127.246094"/>
       <use xlink:href="#DejaVuSans-30" x="163.330078"/>
       <use xlink:href="#DejaVuSans-35" x="226.953125"/>
       <use xlink:href="#DejaVuSans-20" x="290.576172"/>
       <use xlink:href="#DejaVuSans-30" x="322.363281"/>
       <use xlink:href="#DejaVuSans-39" x="385.986328"/>
      </g>
     </g>
    </g>
    <g id="xtick_3">
     <g id="line2d_3">
      <g>
       <use xlink:href="#md3d62000e2" x="323.001914" y="359.517187" style="stroke: #000000; stroke-width: 0.8"/>
      </g>
     </g>
     <g id="text_3">
      <!-- 12-05 12 -->
      <g transform="translate(300.521445 374.115625) scale(0.1 -0.1)">
       <use xlink:href="#DejaVuSans-31"/>
       <use xlink:href="#DejaVuSans-32" x="63.623047"/>
       <use xlink:href="#DejaVuSans-2d" x="127.246094"/>
       <use xlink:href="#DejaVuSans-30" x="163.330078"/>
       <use xlink:href="#DejaVuSans-35" x="226.953125"/>
       <use xlink:href="#DejaVuSans-20" x="290.576172"/>
       <use xlink:href="#DejaVuSans-31" x="322.363281"/>
       <use xlink:href="#DejaVuSans-32" x="385.986328"/>
      </g>
     </g>
    </g>
    <g id="xtick_4">
     <g id="line2d_4">
      <g>
       <use xlink:href="#md3d62000e2" x="431.924732" y="359.517187" style="stroke: #000000; stroke-width: 0.8"/>
      </g>
     </g>
     <g id="text_4">
      <!-- 12-05 15 -->
      <g transform="translate(409.444264 374.115625) scale(0.1 -0.1)">
       <use xlink:href="#DejaVuSans-31"/>
       <use xlink:href="#DejaVuSans-32" x="63.623047"/>
       <use xlink:href="#DejaVuSans-2d" x="127.246094"/>
       <use xlink:href="#DejaVuSans-30" x="163.330078"/>
       <use xlink:href="#DejaVuSans-35" x="226.953125"/>
       <use xlink:href="#DejaVuSans-20" x="290.576172"/>
       <use xlink:href="#DejaVuSans-31" x="322.363281"/>
       <use xlink:href="#DejaVuSans-35" x="385.986328"/>
      </g>
     </g>
    </g>
    <g id="xtick_5">
     <g id="line2d_5">
      <g>
       <use xlink:href="#md3d62000e2" x="540.847551" y="359.517187" style="stroke: #000000; stroke-width: 0.8"/>
      </g>
     </g>
     <g id="text_5">
      <!-- 12-05 18 -->
      <g transform="translate(518.367082 374.115625) scale(0.1 -0.1)">
       <defs>
        <path id="DejaVuSans-38" d="M 2034 2216 
Q 1584 2216 1326 1975 
Q 1069 1734 1069 1313 
Q 1069 891 1326 650 
Q 1584 409 2034 409 
Q 2484 409 2743 651 
Q 3003 894 3003 1313 
Q 3003 1734 2745 1975 
Q 2488 2216 2034 2216 
z
M 1403 2484 
Q 997 2584 770 2862 
Q 544 3141 544 3541 
Q 544 4100 942 4425 
Q 1341 4750 2034 4750 
Q 2731 4750 3128 4425 
Q 3525 4100 3525 3541 
Q 3525 3141 3298 2862 
Q 3072 2584 2669 2484 
Q 3125 2378 3379 2068 
Q 3634 1759 3634 1313 
Q 3634 634 3220 271 
Q 2806 -91 2034 -91 
Q 1263 -91 848 271 
Q 434 634 434 1313 
Q 434 1759 690 2068 
Q 947 2378 1403 2484 
z
M 1172 3481 
Q 1172 3119 1398 2916 
Q 1625 2713 2034 2713 
Q 2441 2713 2670 2916 
Q 2900 3119 2900 3481 
Q 2900 3844 2670 4047 
Q 2441 4250 2034 4250 
Q 1625 4250 1398 4047 
Q 1172 3844 1172 3481 
z
" transform="scale(0.015625)"/>
       </defs>
       <use xlink:href="#DejaVuSans-31"/>
       <use xlink:href="#DejaVuSans-32" x="63.623047"/>
       <use xlink:href="#DejaVuSans-2d" x="127.246094"/>
       <use xlink:href="#DejaVuSans-30" x="163.330078"/>
       <use xlink:href="#DejaVuSans-35" x="226.953125"/>
       <use xlink:href="#DejaVuSans-20" x="290.576172"/>
       <use xlink:href="#DejaVuSans-31" x="322.363281"/>
       <use xlink:href="#DejaVuSans-38" x="385.986328"/>
      </g>
     </g>
    </g>
    <g id="xtick_6">
     <g id="line2d_6">
      <g>
       <use xlink:href="#md3d62000e2" x="649.770369" y="359.517187" style="stroke: #000000; stroke-width: 0.8"/>
      </g>
     </g>
     <g id="text_6">
      <!-- 12-05 21 -->
      <g transform="translate(627.2899 374.115625) scale(0.1 -0.1)">
       <use xlink:href="#DejaVuSans-31"/>
       <use xlink:href="#DejaVuSans-32" x="63.623047"/>
       <use xlink:href="#DejaVuSans-2d" x="127.246094"/>
       <use xlink:href="#DejaVuSans-30" x="163.330078"/>
       <use xlink:href="#DejaVuSans-35" x="226.953125"/>
       <use xlink:href="#DejaVuSans-20" x="290.576172"/>
       <use xlink:href="#DejaVuSans-32" x="322.363281"/>
       <use xlink:href="#DejaVuSans-31" x="385.986328"/>
      </g>
     </g>
    </g>
    <g id="xtick_7">
     <g id="line2d_7">
      <g>
       <use xlink:href="#md3d62000e2" x="758.693187" y="359.517187" style="stroke: #000000; stroke-width: 0.8"/>
      </g>
     </g>
     <g id="text_7">
      <!-- 12-06 00 -->
      <g transform="translate(736.212719 374.115625) scale(0.1 -0.1)">
       <use xlink:href="#DejaVuSans-31"/>
       <use xlink:href="#DejaVuSans-32" x="63.623047"/>
       <use xlink:href="#DejaVuSans-2d" x="127.246094"/>
       <use xlink:href="#DejaVuSans-30" x="163.330078"/>
       <use xlink:href="#DejaVuSans-36" x="226.953125"/>
       <use xlink:href="#DejaVuSans-20" x="290.576172"/>
       <use xlink:href="#DejaVuSans-30" x="322.363281"/>
       <use xlink:href="#DejaVuSans-30" x="385.986328"/>
      </g>
     </g>
    </g>
    <g id="xtick_8">
     <g id="line2d_8">
      <g>
       <use xlink:href="#md3d62000e2" x="867.616006" y="359.517187" style="stroke: #000000; stroke-width: 0.8"/>
      </g>
     </g>
     <g id="text_8">
      <!-- 12-06 03 -->
      <g transform="translate(845.135537 374.115625) scale(0.1 -0.1)">
       <defs>
        <path id="DejaVuSans-33" d="M 2597 2516 
Q 3050 2419 3304 2112 
Q 3559 1806 3559 1356 
Q 3559 666 3084 287 
Q 2609 -91 1734 -91 
Q 1441 -91 1130 -33 
Q 819 25 488 141 
L 488 750 
Q 750 597 1062 519 
Q 1375 441 1716 441 
Q 2309 441 2620 675 
Q 2931 909 2931 1356 
Q 2931 1769 2642 2001 
Q 2353 2234 1838 2234 
L 1294 2234 
L 1294 2753 
L 1863 2753 
Q 2328 2753 2575 2939 
Q 2822 3125 2822 3475 
Q 2822 3834 2567 4026 
Q 2313 4219 1838 4219 
Q 1578 4219 1281 4162 
Q 984 4106 628 3988 
L 628 4550 
Q 988 4650 1302 4700 
Q 1616 4750 1894 4750 
Q 2613 4750 3031 4423 
Q 3450 4097 3450 3541 
Q 3450 3153 3228 2886 
Q 3006 2619 2597 2516 
z
" transform="scale(0.015625)"/>
       </defs>
       <use xlink:href="#DejaVuSans-31"/>
       <use xlink:href="#DejaVuSans-32" x="63.623047"/>
       <use xlink:href="#DejaVuSans-2d" x="127.246094"/>
       <use xlink:href="#DejaVuSans-30" x="163.330078"/>
       <use xlink:href="#DejaVuSans-36" x="226.953125"/>
       <use xlink:href="#DejaVuSans-20" x="290.576172"/>
       <use xlink:href="#DejaVuSans-30" x="322.363281"/>
       <use xlink:href="#DejaVuSans-33" x="385.986328"/>
      </g>
     </g>
    </g>
    <g id="xtick_9">
     <g id="line2d_9">
      <g>
       <use xlink:href="#md3d62000e2" x="976.538824" y="359.517187" style="stroke: #000000; stroke-width: 0.8"/>
      </g>
     </g>
     <g id="text_9">
      <!-- 12-06 06 -->
      <g transform="translate(954.058355 374.115625) scale(0.1 -0.1)">
       <use xlink:href="#DejaVuSans-31"/>
       <use xlink:href="#DejaVuSans-32" x="63.623047"/>
       <use xlink:href="#DejaVuSans-2d" x="127.246094"/>
       <use xlink:href="#DejaVuSans-30" x="163.330078"/>
       <use xlink:href="#DejaVuSans-36" x="226.953125"/>
       <use xlink:href="#DejaVuSans-20" x="290.576172"/>
       <use xlink:href="#DejaVuSans-30" x="322.363281"/>
       <use xlink:href="#DejaVuSans-36" x="385.986328"/>
      </g>
     </g>
    </g>
    <g id="xtick_10">
     <g id="line2d_10">
      <g>
       <use xlink:href="#md3d62000e2" x="1085.461642" y="359.517187" style="stroke: #000000; stroke-width: 0.8"/>
      </g>
     </g>
     <g id="text_10">
      <!-- 12-06 09 -->
      <g transform="translate(1062.981174 374.115625) scale(0.1 -0.1)">
       <use xlink:href="#DejaVuSans-31"/>
       <use xlink:href="#DejaVuSans-32" x="63.623047"/>
       <use xlink:href="#DejaVuSans-2d" x="127.246094"/>
       <use xlink:href="#DejaVuSans-30" x="163.330078"/>
       <use xlink:href="#DejaVuSans-36" x="226.953125"/>
       <use xlink:href="#DejaVuSans-20" x="290.576172"/>
       <use xlink:href="#DejaVuSans-30" x="322.363281"/>
       <use xlink:href="#DejaVuSans-39" x="385.986328"/>
      </g>
     </g>
    </g>
    <g id="text_11">
     <!-- Time -->
     <g transform="translate(592.554688 389.313437) scale(0.12 -0.12)">
      <defs>
       <path id="DejaVuSans-54" d="M -19 4666 
L 3928 4666 
L 3928 4134 
L 2272 4134 
L 2272 0 
L 1638 0 
L 1638 4134 
L -19 4134 
L -19 4666 
z
" transform="scale(0.015625)"/>
       <path id="DejaVuSans-69" d="M 603 3500 
L 1178 3500 
L 1178 0 
L 603 0 
L 603 3500 
z
M 603 4863 
L 1178 4863 
L 1178 4134 
L 603 4134 
L 603 4863 
z
" transform="scale(0.015625)"/>
       <path id="DejaVuSans-6d" d="M 3328 2828 
Q 3544 3216 3844 3400 
Q 4144 3584 4550 3584 
Q 5097 3584 5394 3201 
Q 5691 2819 5691 2113 
L 5691 0 
L 5113 0 
L 5113 2094 
Q 5113 2597 4934 2840 
Q 4756 3084 4391 3084 
Q 3944 3084 3684 2787 
Q 3425 2491 3425 1978 
L 3425 0 
L 2847 0 
L 2847 2094 
Q 2847 2600 2669 2842 
Q 2491 3084 2119 3084 
Q 1678 3084 1418 2786 
Q 1159 2488 1159 1978 
L 1159 0 
L 581 0 
L 581 3500 
L 1159 3500 
L 1159 2956 
Q 1356 3278 1631 3431 
Q 1906 3584 2284 3584 
Q 2666 3584 2933 3390 
Q 3200 3197 3328 2828 
z
" transform="scale(0.015625)"/>
       <path id="DejaVuSans-65" d="M 3597 1894 
L 3597 1613 
L 953 1613 
Q 991 1019 1311 708 
Q 1631 397 2203 397 
Q 2534 397 2845 478 
Q 3156 559 3463 722 
L 3463 178 
Q 3153 47 2828 -22 
Q 2503 -91 2169 -91 
Q 1331 -91 842 396 
Q 353 884 353 1716 
Q 353 2575 817 3079 
Q 1281 3584 2069 3584 
Q 2775 3584 3186 3129 
Q 3597 2675 3597 1894 
z
M 3022 2063 
Q 3016 2534 2758 2815 
Q 2500 3097 2075 3097 
Q 1594 3097 1305 2825 
Q 1016 2553 972 2059 
L 3022 2063 
z
" transform="scale(0.015625)"/>
      </defs>
      <use xlink:href="#DejaVuSans-54"/>
      <use xlink:href="#DejaVuSans-69" x="57.958984"/>
      <use xlink:href="#DejaVuSans-6d" x="85.742188"/>
      <use xlink:href="#DejaVuSans-65" x="183.154297"/>
     </g>
    </g>
   </g>
   <g id="matplotlib.axis_2">
    <g id="ytick_1">
     <g id="line2d_11">
      <defs>
       <path id="mc6b0f8b359" d="M 0 0 
L -3.5 0 
" style="stroke: #000000; stroke-width: 0.8"/>
      </defs>
      <g>
       <use xlink:href="#mc6b0f8b359" x="49.235" y="344.397187" style="stroke: #000000; stroke-width: 0.8"/>
      </g>
     </g>
     <g id="text_12">
      <!-- 0 -->
      <g transform="translate(35.8725 348.196406) scale(0.1 -0.1)">
       <use xlink:href="#DejaVuSans-30"/>
      </g>
     </g>
    </g>
    <g id="ytick_2">
     <g id="line2d_12">
      <g>
       <use xlink:href="#mc6b0f8b359" x="49.235" y="296.090478" style="stroke: #000000; stroke-width: 0.8"/>
      </g>
     </g>
     <g id="text_13">
      <!-- 50 -->
      <g transform="translate(29.51 299.889697) scale(0.1 -0.1)">
       <use xlink:href="#DejaVuSans-35"/>
       <use xlink:href="#DejaVuSans-30" x="63.623047"/>
      </g>
     </g>
    </g>
    <g id="ytick_3">
     <g id="line2d_13">
      <g>
       <use xlink:href="#mc6b0f8b359" x="49.235" y="247.783769" style="stroke: #000000; stroke-width: 0.8"/>
      </g>
     </g>
     <g id="text_14">
      <!-- 100 -->
      <g transform="translate(23.1475 251.582988) scale(0.1 -0.1)">
       <use xlink:href="#DejaVuSans-31"/>
       <use xlink:href="#DejaVuSans-30" x="63.623047"/>
       <use xlink:href="#DejaVuSans-30" x="127.246094"/>
      </g>
     </g>
    </g>
    <g id="ytick_4">
     <g id="line2d_14">
      <g>
       <use xlink:href="#mc6b0f8b359" x="49.235" y="199.47706" style="stroke: #000000; stroke-width: 0.8"/>
      </g>
     </g>
     <g id="text_15">
      <!-- 150 -->
      <g transform="translate(23.1475 203.276278) scale(0.1 -0.1)">
       <use xlink:href="#DejaVuSans-31"/>
       <use xlink:href="#DejaVuSans-35" x="63.623047"/>
       <use xlink:href="#DejaVuSans-30" x="127.246094"/>
      </g>
     </g>
    </g>
    <g id="ytick_5">
     <g id="line2d_15">
      <g>
       <use xlink:href="#mc6b0f8b359" x="49.235" y="151.17035" style="stroke: #000000; stroke-width: 0.8"/>
      </g>
     </g>
     <g id="text_16">
      <!-- 200 -->
      <g transform="translate(23.1475 154.969569) scale(0.1 -0.1)">
       <use xlink:href="#DejaVuSans-32"/>
       <use xlink:href="#DejaVuSans-30" x="63.623047"/>
       <use xlink:href="#DejaVuSans-30" x="127.246094"/>
      </g>
     </g>
    </g>
    <g id="ytick_6">
     <g id="line2d_16">
      <g>
       <use xlink:href="#mc6b0f8b359" x="49.235" y="102.863641" style="stroke: #000000; stroke-width: 0.8"/>
      </g>
     </g>
     <g id="text_17">
      <!-- 250 -->
      <g transform="translate(23.1475 106.66286) scale(0.1 -0.1)">
       <use xlink:href="#DejaVuSans-32"/>
       <use xlink:href="#DejaVuSans-35" x="63.623047"/>
       <use xlink:href="#DejaVuSans-30" x="127.246094"/>
      </g>
     </g>
    </g>
    <g id="ytick_7">
     <g id="line2d_17">
      <g>
       <use xlink:href="#mc6b0f8b359" x="49.235" y="54.556932" style="stroke: #000000; stroke-width: 0.8"/>
      </g>
     </g>
     <g id="text_18">
      <!-- 300 -->
      <g transform="translate(23.1475 58.356151) scale(0.1 -0.1)">
       <use xlink:href="#DejaVuSans-33"/>
       <use xlink:href="#DejaVuSans-30" x="63.623047"/>
       <use xlink:href="#DejaVuSans-30" x="127.246094"/>
      </g>
     </g>
    </g>
    <g id="text_19">
     <!-- Pellet_Count -->
     <g transform="translate(16.318125 230.485312) rotate(-90) scale(0.12 -0.12)">
      <defs>
       <path id="DejaVuSans-50" d="M 1259 4147 
L 1259 2394 
L 2053 2394 
Q 2494 2394 2734 2622 
Q 2975 2850 2975 3272 
Q 2975 3691 2734 3919 
Q 2494 4147 2053 4147 
L 1259 4147 
z
M 628 4666 
L 2053 4666 
Q 2838 4666 3239 4311 
Q 3641 3956 3641 3272 
Q 3641 2581 3239 2228 
Q 2838 1875 2053 1875 
L 1259 1875 
L 1259 0 
L 628 0 
L 628 4666 
z
" transform="scale(0.015625)"/>
       <path id="DejaVuSans-6c" d="M 603 4863 
L 1178 4863 
L 1178 0 
L 603 0 
L 603 4863 
z
" transform="scale(0.015625)"/>
       <path id="DejaVuSans-74" d="M 1172 4494 
L 1172 3500 
L 2356 3500 
L 2356 3053 
L 1172 3053 
L 1172 1153 
Q 1172 725 1289 603 
Q 1406 481 1766 481 
L 2356 481 
L 2356 0 
L 1766 0 
Q 1100 0 847 248 
Q 594 497 594 1153 
L 594 3053 
L 172 3053 
L 172 3500 
L 594 3500 
L 594 4494 
L 1172 4494 
z
" transform="scale(0.015625)"/>
       <path id="DejaVuSans-5f" d="M 3263 -1063 
L 3263 -1509 
L -63 -1509 
L -63 -1063 
L 3263 -1063 
z
" transform="scale(0.015625)"/>
       <path id="DejaVuSans-43" d="M 4122 4306 
L 4122 3641 
Q 3803 3938 3442 4084 
Q 3081 4231 2675 4231 
Q 1875 4231 1450 3742 
Q 1025 3253 1025 2328 
Q 1025 1406 1450 917 
Q 1875 428 2675 428 
Q 3081 428 3442 575 
Q 3803 722 4122 1019 
L 4122 359 
Q 3791 134 3420 21 
Q 3050 -91 2638 -91 
Q 1578 -91 968 557 
Q 359 1206 359 2328 
Q 359 3453 968 4101 
Q 1578 4750 2638 4750 
Q 3056 4750 3426 4639 
Q 3797 4528 4122 4306 
z
" transform="scale(0.015625)"/>
       <path id="DejaVuSans-6f" d="M 1959 3097 
Q 1497 3097 1228 2736 
Q 959 2375 959 1747 
Q 959 1119 1226 758 
Q 1494 397 1959 397 
Q 2419 397 2687 759 
Q 2956 1122 2956 1747 
Q 2956 2369 2687 2733 
Q 2419 3097 1959 3097 
z
M 1959 3584 
Q 2709 3584 3137 3096 
Q 3566 2609 3566 1747 
Q 3566 888 3137 398 
Q 2709 -91 1959 -91 
Q 1206 -91 779 398 
Q 353 888 353 1747 
Q 353 2609 779 3096 
Q 1206 3584 1959 3584 
z
" transform="scale(0.015625)"/>
       <path id="DejaVuSans-75" d="M 544 1381 
L 544 3500 
L 1119 3500 
L 1119 1403 
Q 1119 906 1312 657 
Q 1506 409 1894 409 
Q 2359 409 2629 706 
Q 2900 1003 2900 1516 
L 2900 3500 
L 3475 3500 
L 3475 0 
L 2900 0 
L 2900 538 
Q 2691 219 2414 64 
Q 2138 -91 1772 -91 
Q 1169 -91 856 284 
Q 544 659 544 1381 
z
M 1991 3584 
L 1991 3584 
z
" transform="scale(0.015625)"/>
       <path id="DejaVuSans-6e" d="M 3513 2113 
L 3513 0 
L 2938 0 
L 2938 2094 
Q 2938 2591 2744 2837 
Q 2550 3084 2163 3084 
Q 1697 3084 1428 2787 
Q 1159 2491 1159 1978 
L 1159 0 
L 581 0 
L 581 3500 
L 1159 3500 
L 1159 2956 
Q 1366 3272 1645 3428 
Q 1925 3584 2291 3584 
Q 2894 3584 3203 3211 
Q 3513 2838 3513 2113 
z
" transform="scale(0.015625)"/>
      </defs>
      <use xlink:href="#DejaVuSans-50"/>
      <use xlink:href="#DejaVuSans-65" x="56.677734"/>
      <use xlink:href="#DejaVuSans-6c" x="118.201172"/>
      <use xlink:href="#DejaVuSans-6c" x="145.984375"/>
      <use xlink:href="#DejaVuSans-65" x="173.767578"/>
      <use xlink:href="#DejaVuSans-74" x="235.291016"/>
      <use xlink:href="#DejaVuSans-5f" x="274.5"/>
      <use xlink:href="#DejaVuSans-43" x="324.5"/>
      <use xlink:href="#DejaVuSans-6f" x="394.324219"/>
      <use xlink:href="#DejaVuSans-75" x="455.505859"/>
      <use xlink:href="#DejaVuSans-6e" x="518.884766"/>
      <use xlink:href="#DejaVuSans-74" x="582.263672"/>
     </g>
    </g>
   </g>
   <g id="line2d_18">
    <path d="M 99.962273 344.397187 
L 100.0127 343.431053 
L 106.386702 343.431053 
L 107.173367 342.464919 
L 116.73437 342.464919 
L 116.774711 341.498785 
L 118.448896 341.498785 
L 119.185133 340.532651 
L 127.445113 340.532651 
L 127.566139 339.566517 
L 135.029369 339.566517 
L 135.311761 338.600382 
L 137.066629 338.600382 
L 137.238082 337.634248 
L 142.976701 337.634248 
L 143.006957 336.668114 
L 143.995331 336.668114 
L 144.146612 335.70198 
L 144.711397 335.70198 
L 144.88285 334.735846 
L 145.6796 334.735846 
L 145.79054 333.769711 
L 147.091563 333.769711 
L 147.25293 332.803577 
L 151.055143 332.803577 
L 151.186254 331.837443 
L 157.277863 331.837443 
L 158.760424 330.871309 
L 171.175608 330.871309 
L 171.246206 329.905175 
L 180.958491 329.905175 
L 181.150114 328.939041 
L 185.738992 328.939041 
L 185.890274 327.972906 
L 192.092823 327.972906 
L 192.193678 327.006772 
L 195.683242 327.006772 
L 195.774011 326.040638 
L 198.991268 326.040638 
L 199.092123 325.074504 
L 199.344259 325.074504 
L 199.455199 324.10837 
L 200.403231 324.10837 
L 200.494 323.142235 
L 201.855535 323.142235 
L 201.946304 322.176101 
L 206.111593 322.176101 
L 206.192277 321.209967 
L 206.60578 321.209967 
L 206.696549 320.243833 
L 206.878087 320.243833 
L 207.009198 319.277699 
L 207.876546 319.277699 
L 208.058084 318.311564 
L 214.633795 318.311564 
L 214.704393 317.34543 
L 215.561656 317.34543 
L 215.672596 316.379296 
L 216.025587 316.379296 
L 216.096185 315.413162 
L 216.43909 315.413162 
L 216.499603 314.447028 
L 216.721483 314.447028 
L 216.792081 313.480894 
L 217.124901 313.480894 
L 217.185413 312.514759 
L 217.45772 312.514759 
L 217.558575 311.548625 
L 218.072932 311.548625 
L 218.173787 310.582491 
L 218.425923 310.582491 
L 218.516692 309.616357 
L 221.06831 309.616357 
L 221.06831 309.616357 
L 221.17925 308.650223 
L 224.063687 308.650223 
L 224.063687 308.650223 
L 224.214969 307.684088 
L 232.394266 307.684088 
L 232.454779 306.717954 
L 233.04982 306.717954 
L 233.130504 305.75182 
L 233.38264 305.75182 
L 233.422982 304.785686 
L 233.594434 304.785686 
L 233.634776 303.819552 
L 233.786058 303.819552 
L 233.907083 302.853418 
L 234.270159 302.853418 
L 234.300415 301.887283 
L 234.62315 301.887283 
L 234.673577 300.921149 
L 240.230658 300.921149 
L 240.230658 300.921149 
L 240.412196 299.955015 
L 242.30826 299.955015 
L 242.399029 298.988881 
L 245.14227 298.988881 
L 245.243124 298.022747 
L 250.800205 298.022747 
L 250.830462 297.056612 
L 251.203623 297.056612 
L 251.213709 296.090478 
L 254.340197 296.090478 
L 254.430966 295.124344 
L 254.894896 295.124344 
L 255.005836 294.15821 
L 256.992669 294.15821 
L 257.063267 293.192076 
L 257.749078 293.192076 
L 257.829761 292.225941 
L 259.796423 292.225941 
L 260.300695 291.259807 
L 260.724284 291.259807 
L 260.774711 290.293673 
L 261.1983 290.293673 
L 261.258813 289.327539 
L 262.126161 289.327539 
L 262.166503 288.361405 
L 262.77163 288.361405 
L 262.811972 287.395271 
L 263.951627 287.395271 
L 264.082738 286.429136 
L 264.082738 286.429136 
L 264.153336 285.463002 
L 264.718121 285.463002 
L 264.758463 284.496868 
L 266.563758 284.496868 
L 266.644441 283.530734 
L 266.947004 283.530734 
L 267.027688 282.5646 
L 269.90204 282.5646 
L 269.942382 281.598465 
L 270.285287 281.598465 
L 270.779474 280.632331 
L 276.044077 280.632331 
L 276.144931 279.666197 
L 279.200822 279.666197 
L 279.261334 278.700063 
L 279.805948 278.700063 
L 279.84629 277.733929 
L 280.189195 277.733929 
L 280.239622 276.767795 
L 281.056544 276.767795 
L 281.248167 275.80166 
L 282.115515 275.80166 
L 283.396367 274.835526 
L 285.242004 274.835526 
L 285.352944 273.869392 
L 287.168324 273.869392 
L 287.228837 272.903258 
L 291.908484 272.903258 
L 291.908484 272.903258 
L 292.04968 271.937124 
L 292.503525 271.937124 
L 292.584209 270.970989 
L 293.270019 270.970989 
L 293.391044 270.004855 
L 293.592753 270.004855 
L 296.114115 269.038721 
L 305.907083 269.038721 
L 305.997852 268.072587 
L 306.149134 268.072587 
L 306.189475 267.106453 
L 306.502124 267.106453 
L 306.552551 266.140318 
L 309.34622 266.140318 
L 309.34622 266.140318 
L 309.527758 265.174184 
L 309.850492 265.174184 
L 309.971518 264.20805 
L 310.385021 264.20805 
L 310.385021 264.20805 
L 310.425363 263.241916 
L 310.818695 263.241916 
L 310.969977 262.275782 
L 315.347061 262.275782 
L 315.447915 261.309648 
L 316.204323 261.309648 
L 316.446374 260.343513 
L 318.634916 260.343513 
L 318.745856 259.377379 
L 323.80875 259.377379 
L 323.939861 258.411245 
L 328.054723 258.411245 
L 328.054723 258.411245 
L 328.195919 257.445111 
L 335.10445 257.445111 
L 335.316244 256.478977 
L 335.598636 256.478977 
L 335.719662 255.512842 
L 336.032311 255.512842 
L 336.052481 254.546708 
L 336.486156 254.546708 
L 336.526497 253.580574 
L 336.748377 253.580574 
L 336.849232 252.61444 
L 338.654527 252.61444 
L 339.632815 251.648306 
L 341.125461 251.648306 
L 341.165803 250.682172 
L 341.922211 250.682172 
L 342.406313 249.716037 
L 345.84545 249.716037 
L 345.986646 248.749903 
L 346.107671 248.749903 
L 346.208526 247.783769 
L 346.75314 247.783769 
L 346.823738 246.817635 
L 347.297754 246.817635 
L 347.348181 245.851501 
L 350.222533 245.851501 
L 350.393986 244.885366 
L 357.574824 244.885366 
L 357.625251 243.919232 
L 359.218751 243.919232 
L 359.430546 242.953098 
L 365.320446 242.953098 
L 367.095485 241.986964 
L 367.196339 241.02083 
L 367.32745 241.02083 
L 367.387963 240.054695 
L 367.912406 240.054695 
L 367.942662 239.088561 
L 368.073773 239.088561 
L 368.134286 238.122427 
L 369.041976 238.122427 
L 369.14283 237.156293 
L 369.979922 237.156293 
L 370.010179 236.190159 
L 371.089321 236.190159 
L 371.159919 235.224025 
L 373.429145 235.224025 
L 373.681281 234.25789 
L 374.225895 234.25789 
L 380.710837 233.291756 
L 380.741093 232.325622 
L 380.983144 232.325622 
L 381.114255 231.359488 
L 381.23528 230.393354 
L 382.001774 230.393354 
L 382.042116 229.427219 
L 382.435448 229.427219 
L 383.060746 228.461085 
L 383.111173 227.494951 
L 384.200401 227.494951 
L 384.230658 226.528817 
L 388.133725 226.528817 
L 388.274922 225.562683 
L 388.325349 224.596549 
L 390.332353 224.596549 
L 390.49372 223.630414 
L 390.655087 223.630414 
L 390.705514 222.66428 
L 390.927394 222.66428 
L 390.977821 221.698146 
L 391.098846 221.698146 
L 391.139188 220.732012 
L 395.707895 220.732012 
L 396.262595 219.765878 
L 397.261054 219.765878 
L 397.301396 218.799743 
L 398.683102 218.799743 
L 398.773871 217.833609 
L 400.064808 217.833609 
L 400.115235 216.867475 
L 403.181211 216.867475 
L 403.27198 215.901341 
L 404.280525 215.901341 
L 404.462063 214.935207 
L 405.581547 214.935207 
L 405.621889 213.969072 
L 406.136247 213.969072 
L 406.458981 213.002938 
L 411.219312 213.002938 
L 411.269739 212.036804 
L 411.592473 212.036804 
L 411.632815 211.07067 
L 414.406313 211.07067 
L 415.223234 210.104536 
L 415.324088 209.138402 
L 421.01228 209.138402 
L 421.042536 208.172267 
L 421.80903 208.172267 
L 423.069711 207.206133 
L 423.392445 207.206133 
L 423.432787 206.239999 
L 425.933977 206.239999 
L 427.335854 205.273865 
L 427.537563 205.273865 
L 428.152776 204.307731 
L 436.16062 204.307731 
L 436.281645 203.341596 
L 436.483354 203.341596 
L 436.51361 202.375462 
L 437.138908 202.375462 
L 437.40113 201.409328 
L 437.612924 201.409328 
L 437.663351 200.443194 
L 439.801466 200.443194 
L 439.861979 199.47706 
L 441.818555 199.47706 
L 441.868982 198.510926 
L 443.573423 198.510926 
L 444.692907 197.544791 
L 445.358547 197.544791 
L 445.408974 196.578657 
L 446.79068 196.578657 
L 447.688285 195.612523 
L 449.463323 195.612523 
L 450.17939 194.646389 
L 452.670495 194.646389 
L 455.948265 193.680255 
L 456.16006 191.747986 
L 456.270999 191.747986 
L 456.321427 190.781852 
L 456.502965 190.781852 
L 456.593734 189.815718 
L 456.724845 189.815718 
L 456.755101 188.849584 
L 458.247747 188.849584 
L 458.247747 188.849584 
L 460.285007 187.883449 
L 471.046178 187.883449 
L 471.076434 186.917315 
L 471.449596 186.917315 
L 471.510109 185.951181 
L 474.243264 185.951181 
L 474.283606 184.985047 
L 476.613344 184.985047 
L 476.663772 184.018913 
L 477.914367 184.018913 
L 477.934538 183.052779 
L 478.337956 183.052779 
L 478.388383 182.086644 
L 479.275902 182.086644 
L 479.296073 181.12051 
L 485.458281 181.12051 
L 485.458281 181.12051 
L 485.579306 180.154376 
L 495.069711 180.154376 
L 499.688845 179.188242 
L 500.838586 179.188242 
L 501.05038 178.222108 
L 501.917729 178.222108 
L 505.800625 177.255973 
L 508.231218 177.255973 
L 508.372414 176.289839 
L 509.088481 176.289839 
L 509.340617 175.323705 
L 511.559415 175.323705 
L 514.675818 174.357571 
L 515.059065 174.357571 
L 515.159919 173.391437 
L 515.462483 173.391437 
L 515.502825 172.425303 
L 515.664192 172.425303 
L 515.724704 171.459168 
L 518.760424 171.459168 
L 518.79068 170.493034 
L 524.085539 170.493034 
L 524.085539 170.493034 
L 524.246906 169.5269 
L 535.17953 169.5269 
L 535.320726 168.560766 
L 536.399869 168.560766 
L 536.440211 167.594632 
L 536.682262 167.594632 
L 536.682262 167.594632 
L 536.75286 166.628497 
L 576.983704 166.628497 
L 577.094644 165.662363 
L 577.669515 165.662363 
L 577.699771 164.696229 
L 578.456179 164.696229 
L 578.486436 163.730095 
L 579.313442 163.730095 
L 579.343699 162.763961 
L 580.090022 162.763961 
L 580.130363 161.797826 
L 581.834804 161.797826 
L 581.86506 160.831692 
L 582.339076 160.831692 
L 582.369333 159.865558 
L 583.559415 159.865558 
L 583.559415 159.865558 
L 583.640099 158.899424 
L 583.811551 158.899424 
L 583.851893 157.93329 
L 584.608302 157.93329 
L 584.608302 157.93329 
L 584.668814 156.967156 
L 584.880609 156.967156 
L 584.961292 156.001021 
L 586.413596 156.001021 
L 586.443853 155.034887 
L 586.877527 155.034887 
L 586.907783 154.068753 
L 587.654106 154.068753 
L 587.684363 153.102619 
L 590.478031 153.102619 
L 590.518373 152.136485 
L 590.740253 152.136485 
L 590.770509 151.17035 
L 591.254611 151.17035 
L 591.274781 150.204216 
L 591.526918 150.204216 
L 591.577345 149.238082 
L 593.281785 149.238082 
L 598.36485 148.271948 
L 598.395106 147.305814 
L 599.05066 147.305814 
L 599.070831 146.33968 
L 603.720222 146.33968 
L 603.740393 145.373545 
L 603.982444 145.373545 
L 604.0127 144.407411 
L 609.569781 144.407411 
L 609.77149 143.441277 
L 611.828921 143.441277 
L 612.242424 142.475143 
L 646.573283 142.475143 
L 646.573283 142.475143 
L 646.633795 141.509009 
L 646.885931 141.509009 
L 646.916188 140.542874 
L 647.410375 140.542874 
L 647.430546 139.57674 
L 647.622169 139.57674 
L 647.662511 138.610606 
L 647.954989 138.610606 
L 647.995331 137.644472 
L 648.287809 137.644472 
L 648.32815 136.678338 
L 649.10473 136.678338 
L 649.124901 135.712203 
L 649.588831 135.712203 
L 649.629173 134.746069 
L 649.840967 134.746069 
L 649.931736 133.779935 
L 651.525237 133.779935 
L 651.545408 132.813801 
L 672.200401 132.813801 
L 672.200401 132.813801 
L 672.240743 131.847667 
L 672.563477 131.847667 
L 672.583648 130.881533 
L 673.168604 130.881533 
L 673.19886 129.915398 
L 674.399029 129.915398 
L 674.399029 129.915398 
L 674.449456 128.949264 
L 674.721763 128.949264 
L 679.391324 127.98313 
L 679.391324 127.98313 
L 683.001914 127.98313 
L 683.022085 127.016996 
L 718.472428 127.016996 
L 718.51277 126.050862 
L 718.84559 126.050862 
L 718.875846 125.084727 
L 719.19858 125.084727 
L 719.218751 124.118593 
L 719.470887 124.118593 
L 719.501144 123.152459 
L 719.702853 123.152459 
L 719.723024 122.186325 
L 719.904562 122.186325 
L 719.904562 122.186325 
L 719.965074 121.220191 
L 720.267638 121.220191 
L 720.43909 120.254057 
L 722.879768 120.254057 
L 722.930195 119.287922 
L 727.710697 119.287922 
L 727.751039 118.321788 
L 766.21693 118.321788 
L 766.257272 117.355654 
L 766.529579 117.355654 
L 766.559835 116.38952 
L 766.862399 116.38952 
L 766.88257 115.423386 
L 767.114535 115.423386 
L 767.144791 114.457251 
L 767.376757 114.457251 
L 767.417098 113.491117 
L 767.67932 113.491117 
L 767.760003 112.524983 
L 773.54905 112.524983 
L 773.609562 111.558849 
L 773.841528 111.558849 
L 773.881869 110.592715 
L 774.144091 110.592715 
L 774.154176 109.62658 
L 780.023906 109.62658 
L 780.044077 108.660446 
L 786.176028 108.660446 
L 786.720642 107.694312 
L 798.076855 107.694312 
L 798.480272 106.728178 
L 798.843349 106.728178 
L 798.88369 105.762044 
L 802.746416 105.762044 
L 802.786758 104.79591 
L 803.149834 104.79591 
L 803.18009 103.829775 
L 803.442312 103.829775 
L 803.492739 102.863641 
L 830.703273 102.863641 
L 830.763786 101.897507 
L 882.824859 101.897507 
L 882.855115 100.931373 
L 883.339216 100.931373 
L 883.349302 99.965239 
L 883.601438 99.965239 
L 883.631694 98.999104 
L 883.893916 98.999104 
L 883.914087 98.03297 
L 884.21665 98.03297 
L 884.256992 97.066836 
L 884.539384 97.066836 
L 884.54947 96.100702 
L 884.731008 96.100702 
L 884.751179 95.134568 
L 885.90092 95.134568 
L 885.90092 95.134568 
L 885.951347 94.168434 
L 887.635616 94.168434 
L 887.665873 93.202299 
L 887.907923 93.202299 
L 934.996871 92.236165 
L 935.017042 91.270031 
L 936.277723 91.270031 
L 936.307979 90.303897 
L 952.293412 90.303897 
L 952.303497 89.337763 
L 954.239903 89.337763 
L 954.895457 88.371628 
L 956.88229 88.371628 
L 956.912546 87.405494 
L 961.057664 87.405494 
L 961.077835 86.43936 
L 962.812532 86.43936 
L 962.842788 85.473226 
L 963.286548 85.473226 
L 963.316804 84.507092 
L 975.227716 84.507092 
L 975.318485 83.540957 
L 975.651305 83.540957 
L 975.671476 82.574823 
L 1005.837045 82.574823 
L 1005.837045 82.574823 
L 1005.887472 81.608689 
L 1006.149694 81.608689 
L 1006.200121 80.642555 
L 1006.40183 80.642555 
L 1006.40183 80.642555 
L 1006.442172 79.676421 
L 1010.032591 79.676421 
L 1010.032591 79.676421 
L 1010.072932 78.710287 
L 1010.385581 78.710287 
L 1010.395667 77.744152 
L 1015.458561 77.744152 
L 1015.468646 76.778018 
L 1021.247607 76.778018 
L 1021.267778 75.811884 
L 1021.469487 75.811884 
L 1022.185553 74.84575 
L 1033.128262 74.84575 
L 1033.148433 73.879616 
L 1033.3098 73.879616 
L 1033.360228 72.913481 
L 1033.713218 72.913481 
L 1033.733389 71.947347 
L 1034.620908 71.947347 
L 1034.620908 71.947347 
L 1034.66125 70.981213 
L 1034.88313 70.981213 
L 1034.88313 70.981213 
L 1044.081057 70.015079 
L 1044.111313 69.048945 
L 1044.464304 69.048945 
L 1044.484475 68.082811 
L 1044.776953 68.082811 
L 1044.797124 67.116676 
L 1050.535742 67.116676 
L 1050.565999 66.150542 
L 1051.393005 66.150542 
L 1051.413176 65.184408 
L 1051.594714 65.184408 
L 1051.594714 65.184408 
L 1051.635056 64.218274 
L 1057.061026 64.218274 
L 1057.061026 64.218274 
L 1057.111453 63.25214 
L 1057.585469 63.25214 
L 1057.595555 62.286005 
L 1058.029229 62.286005 
L 1058.0494 61.319871 
L 1058.341878 61.319871 
L 1058.351963 60.353737 
L 1058.543587 60.353737 
L 1058.563758 59.387603 
L 1060.399309 59.387603 
L 1060.439651 58.421469 
L 1068.618947 58.421469 
L 1068.639118 57.455334 
L 1068.840827 57.455334 
L 1068.871083 56.4892 
L 1069.12322 56.4892 
L 1069.143391 55.523066 
L 1069.324929 55.523066 
L 1069.36527 54.556932 
L 1071.644581 54.556932 
L 1071.654667 53.590798 
L 1083.232759 53.590798 
L 1083.242844 52.624664 
L 1084.16062 52.624664 
L 1084.190876 51.658529 
L 1084.372414 51.658529 
L 1084.3825 50.692395 
L 1085.027968 50.692395 
L 1085.048139 49.726261 
L 1085.421301 49.726261 
L 1086.571041 48.760127 
L 1091.04898 48.760127 
L 1091.51291 47.793993 
L 1095.496661 47.793993 
L 1095.516832 46.827858 
L 1095.768968 46.827858 
L 1095.92025 44.89559 
L 1105.168604 44.89559 
L 1105.340057 43.929456 
L 1105.894756 43.929456 
L 1105.904842 42.963322 
L 1114.467385 42.963322 
L 1114.507727 41.997187 
L 1114.507727 41.997187 
" clip-path="url(#p2484b9e943)" style="fill: none; stroke: #0000ff; stroke-width: 1.5; stroke-linecap: square"/>
   </g>
   <g id="patch_68">
    <path d="M 49.235 359.517187 
L 49.235 26.877187 
" style="fill: none; stroke: #000000; stroke-width: 0.8; stroke-linejoin: miter; stroke-linecap: square"/>
   </g>
   <g id="patch_69">
    <path d="M 1165.235 359.517187 
L 1165.235 26.877187 
" style="fill: none; stroke: #000000; stroke-width: 0.8; stroke-linejoin: miter; stroke-linecap: square"/>
   </g>
   <g id="patch_70">
    <path d="M 49.235 359.517187 
L 1165.235 359.517187 
" style="fill: none; stroke: #000000; stroke-width: 0.8; stroke-linejoin: miter; stroke-linecap: square"/>
   </g>
   <g id="patch_71">
    <path d="M 49.235 26.877187 
L 1165.235 26.877187 
" style="fill: none; stroke: #000000; stroke-width: 0.8; stroke-linejoin: miter; stroke-linecap: square"/>
   </g>
   <g id="text_20">
    <!-- Pellet Count and Cumulative Sum Over Time of Group 2 Mouse 11 -->
    <g transform="translate(309.734375 20.877187) scale(0.18 -0.18)">
     <defs>
      <path id="DejaVuSans-61" d="M 2194 1759 
Q 1497 1759 1228 1600 
Q 959 1441 959 1056 
Q 959 750 1161 570 
Q 1363 391 1709 391 
Q 2188 391 2477 730 
Q 2766 1069 2766 1631 
L 2766 1759 
L 2194 1759 
z
M 3341 1997 
L 3341 0 
L 2766 0 
L 2766 531 
Q 2569 213 2275 61 
Q 1981 -91 1556 -91 
Q 1019 -91 701 211 
Q 384 513 384 1019 
Q 384 1609 779 1909 
Q 1175 2209 1959 2209 
L 2766 2209 
L 2766 2266 
Q 2766 2663 2505 2880 
Q 2244 3097 1772 3097 
Q 1472 3097 1187 3025 
Q 903 2953 641 2809 
L 641 3341 
Q 956 3463 1253 3523 
Q 1550 3584 1831 3584 
Q 2591 3584 2966 3190 
Q 3341 2797 3341 1997 
z
" transform="scale(0.015625)"/>
      <path id="DejaVuSans-64" d="M 2906 2969 
L 2906 4863 
L 3481 4863 
L 3481 0 
L 2906 0 
L 2906 525 
Q 2725 213 2448 61 
Q 2172 -91 1784 -91 
Q 1150 -91 751 415 
Q 353 922 353 1747 
Q 353 2572 751 3078 
Q 1150 3584 1784 3584 
Q 2172 3584 2448 3432 
Q 2725 3281 2906 2969 
z
M 947 1747 
Q 947 1113 1208 752 
Q 1469 391 1925 391 
Q 2381 391 2643 752 
Q 2906 1113 2906 1747 
Q 2906 2381 2643 2742 
Q 2381 3103 1925 3103 
Q 1469 3103 1208 2742 
Q 947 2381 947 1747 
z
" transform="scale(0.015625)"/>
      <path id="DejaVuSans-76" d="M 191 3500 
L 800 3500 
L 1894 563 
L 2988 3500 
L 3597 3500 
L 2284 0 
L 1503 0 
L 191 3500 
z
" transform="scale(0.015625)"/>
      <path id="DejaVuSans-53" d="M 3425 4513 
L 3425 3897 
Q 3066 4069 2747 4153 
Q 2428 4238 2131 4238 
Q 1616 4238 1336 4038 
Q 1056 3838 1056 3469 
Q 1056 3159 1242 3001 
Q 1428 2844 1947 2747 
L 2328 2669 
Q 3034 2534 3370 2195 
Q 3706 1856 3706 1288 
Q 3706 609 3251 259 
Q 2797 -91 1919 -91 
Q 1588 -91 1214 -16 
Q 841 59 441 206 
L 441 856 
Q 825 641 1194 531 
Q 1563 422 1919 422 
Q 2459 422 2753 634 
Q 3047 847 3047 1241 
Q 3047 1584 2836 1778 
Q 2625 1972 2144 2069 
L 1759 2144 
Q 1053 2284 737 2584 
Q 422 2884 422 3419 
Q 422 4038 858 4394 
Q 1294 4750 2059 4750 
Q 2388 4750 2728 4690 
Q 3069 4631 3425 4513 
z
" transform="scale(0.015625)"/>
      <path id="DejaVuSans-4f" d="M 2522 4238 
Q 1834 4238 1429 3725 
Q 1025 3213 1025 2328 
Q 1025 1447 1429 934 
Q 1834 422 2522 422 
Q 3209 422 3611 934 
Q 4013 1447 4013 2328 
Q 4013 3213 3611 3725 
Q 3209 4238 2522 4238 
z
M 2522 4750 
Q 3503 4750 4090 4092 
Q 4678 3434 4678 2328 
Q 4678 1225 4090 567 
Q 3503 -91 2522 -91 
Q 1538 -91 948 565 
Q 359 1222 359 2328 
Q 359 3434 948 4092 
Q 1538 4750 2522 4750 
z
" transform="scale(0.015625)"/>
      <path id="DejaVuSans-72" d="M 2631 2963 
Q 2534 3019 2420 3045 
Q 2306 3072 2169 3072 
Q 1681 3072 1420 2755 
Q 1159 2438 1159 1844 
L 1159 0 
L 581 0 
L 581 3500 
L 1159 3500 
L 1159 2956 
Q 1341 3275 1631 3429 
Q 1922 3584 2338 3584 
Q 2397 3584 2469 3576 
Q 2541 3569 2628 3553 
L 2631 2963 
z
" transform="scale(0.015625)"/>
      <path id="DejaVuSans-66" d="M 2375 4863 
L 2375 4384 
L 1825 4384 
Q 1516 4384 1395 4259 
Q 1275 4134 1275 3809 
L 1275 3500 
L 2222 3500 
L 2222 3053 
L 1275 3053 
L 1275 0 
L 697 0 
L 697 3053 
L 147 3053 
L 147 3500 
L 697 3500 
L 697 3744 
Q 697 4328 969 4595 
Q 1241 4863 1831 4863 
L 2375 4863 
z
" transform="scale(0.015625)"/>
      <path id="DejaVuSans-47" d="M 3809 666 
L 3809 1919 
L 2778 1919 
L 2778 2438 
L 4434 2438 
L 4434 434 
Q 4069 175 3628 42 
Q 3188 -91 2688 -91 
Q 1594 -91 976 548 
Q 359 1188 359 2328 
Q 359 3472 976 4111 
Q 1594 4750 2688 4750 
Q 3144 4750 3555 4637 
Q 3966 4525 4313 4306 
L 4313 3634 
Q 3963 3931 3569 4081 
Q 3175 4231 2741 4231 
Q 1884 4231 1454 3753 
Q 1025 3275 1025 2328 
Q 1025 1384 1454 906 
Q 1884 428 2741 428 
Q 3075 428 3337 486 
Q 3600 544 3809 666 
z
" transform="scale(0.015625)"/>
      <path id="DejaVuSans-70" d="M 1159 525 
L 1159 -1331 
L 581 -1331 
L 581 3500 
L 1159 3500 
L 1159 2969 
Q 1341 3281 1617 3432 
Q 1894 3584 2278 3584 
Q 2916 3584 3314 3078 
Q 3713 2572 3713 1747 
Q 3713 922 3314 415 
Q 2916 -91 2278 -91 
Q 1894 -91 1617 61 
Q 1341 213 1159 525 
z
M 3116 1747 
Q 3116 2381 2855 2742 
Q 2594 3103 2138 3103 
Q 1681 3103 1420 2742 
Q 1159 2381 1159 1747 
Q 1159 1113 1420 752 
Q 1681 391 2138 391 
Q 2594 391 2855 752 
Q 3116 1113 3116 1747 
z
" transform="scale(0.015625)"/>
      <path id="DejaVuSans-4d" d="M 628 4666 
L 1569 4666 
L 2759 1491 
L 3956 4666 
L 4897 4666 
L 4897 0 
L 4281 0 
L 4281 4097 
L 3078 897 
L 2444 897 
L 1241 4097 
L 1241 0 
L 628 0 
L 628 4666 
z
" transform="scale(0.015625)"/>
      <path id="DejaVuSans-73" d="M 2834 3397 
L 2834 2853 
Q 2591 2978 2328 3040 
Q 2066 3103 1784 3103 
Q 1356 3103 1142 2972 
Q 928 2841 928 2578 
Q 928 2378 1081 2264 
Q 1234 2150 1697 2047 
L 1894 2003 
Q 2506 1872 2764 1633 
Q 3022 1394 3022 966 
Q 3022 478 2636 193 
Q 2250 -91 1575 -91 
Q 1294 -91 989 -36 
Q 684 19 347 128 
L 347 722 
Q 666 556 975 473 
Q 1284 391 1588 391 
Q 1994 391 2212 530 
Q 2431 669 2431 922 
Q 2431 1156 2273 1281 
Q 2116 1406 1581 1522 
L 1381 1569 
Q 847 1681 609 1914 
Q 372 2147 372 2553 
Q 372 3047 722 3315 
Q 1072 3584 1716 3584 
Q 2034 3584 2315 3537 
Q 2597 3491 2834 3397 
z
" transform="scale(0.015625)"/>
     </defs>
     <use xlink:href="#DejaVuSans-50"/>
     <use xlink:href="#DejaVuSans-65" x="56.677734"/>
     <use xlink:href="#DejaVuSans-6c" x="118.201172"/>
     <use xlink:href="#DejaVuSans-6c" x="145.984375"/>
     <use xlink:href="#DejaVuSans-65" x="173.767578"/>
     <use xlink:href="#DejaVuSans-74" x="235.291016"/>
     <use xlink:href="#DejaVuSans-20" x="274.5"/>
     <use xlink:href="#DejaVuSans-43" x="306.287109"/>
     <use xlink:href="#DejaVuSans-6f" x="376.111328"/>
     <use xlink:href="#DejaVuSans-75" x="437.292969"/>
     <use xlink:href="#DejaVuSans-6e" x="500.671875"/>
     <use xlink:href="#DejaVuSans-74" x="564.050781"/>
     <use xlink:href="#DejaVuSans-20" x="603.259766"/>
     <use xlink:href="#DejaVuSans-61" x="635.046875"/>
     <use xlink:href="#DejaVuSans-6e" x="696.326172"/>
     <use xlink:href="#DejaVuSans-64" x="759.705078"/>
     <use xlink:href="#DejaVuSans-20" x="823.181641"/>
     <use xlink:href="#DejaVuSans-43" x="854.96875"/>
     <use xlink:href="#DejaVuSans-75" x="924.792969"/>
     <use xlink:href="#DejaVuSans-6d" x="988.171875"/>
     <use xlink:href="#DejaVuSans-75" x="1085.583984"/>
     <use xlink:href="#DejaVuSans-6c" x="1148.962891"/>
     <use xlink:href="#DejaVuSans-61" x="1176.746094"/>
     <use xlink:href="#DejaVuSans-74" x="1238.025391"/>
     <use xlink:href="#DejaVuSans-69" x="1277.234375"/>
     <use xlink:href="#DejaVuSans-76" x="1305.017578"/>
     <use xlink:href="#DejaVuSans-65" x="1364.197266"/>
     <use xlink:href="#DejaVuSans-20" x="1425.720703"/>
     <use xlink:href="#DejaVuSans-53" x="1457.507812"/>
     <use xlink:href="#DejaVuSans-75" x="1520.984375"/>
     <use xlink:href="#DejaVuSans-6d" x="1584.363281"/>
     <use xlink:href="#DejaVuSans-20" x="1681.775391"/>
     <use xlink:href="#DejaVuSans-4f" x="1713.5625"/>
     <use xlink:href="#DejaVuSans-76" x="1792.273438"/>
     <use xlink:href="#DejaVuSans-65" x="1851.453125"/>
     <use xlink:href="#DejaVuSans-72" x="1912.976562"/>
     <use xlink:href="#DejaVuSans-20" x="1954.089844"/>
     <use xlink:href="#DejaVuSans-54" x="1985.876953"/>
     <use xlink:href="#DejaVuSans-69" x="2043.835938"/>
     <use xlink:href="#DejaVuSans-6d" x="2071.619141"/>
     <use xlink:href="#DejaVuSans-65" x="2169.03125"/>
     <use xlink:href="#DejaVuSans-20" x="2230.554688"/>
     <use xlink:href="#DejaVuSans-6f" x="2262.341797"/>
     <use xlink:href="#DejaVuSans-66" x="2323.523438"/>
     <use xlink:href="#DejaVuSans-20" x="2358.728516"/>
     <use xlink:href="#DejaVuSans-47" x="2390.515625"/>
     <use xlink:href="#DejaVuSans-72" x="2468.005859"/>
     <use xlink:href="#DejaVuSans-6f" x="2506.869141"/>
     <use xlink:href="#DejaVuSans-75" x="2568.050781"/>
     <use xlink:href="#DejaVuSans-70" x="2631.429688"/>
     <use xlink:href="#DejaVuSans-20" x="2694.90625"/>
     <use xlink:href="#DejaVuSans-32" x="2726.693359"/>
     <use xlink:href="#DejaVuSans-20" x="2790.316406"/>
     <use xlink:href="#DejaVuSans-4d" x="2822.103516"/>
     <use xlink:href="#DejaVuSans-6f" x="2908.382812"/>
     <use xlink:href="#DejaVuSans-75" x="2969.564453"/>
     <use xlink:href="#DejaVuSans-73" x="3032.943359"/>
     <use xlink:href="#DejaVuSans-65" x="3085.042969"/>
     <use xlink:href="#DejaVuSans-20" x="3146.566406"/>
     <use xlink:href="#DejaVuSans-31" x="3178.353516"/>
     <use xlink:href="#DejaVuSans-31" x="3241.976562"/>
    </g>
   </g>
   <g id="legend_1">
    <g id="patch_72">
     <path d="M 1086.550625 64.233437 
L 1158.235 64.233437 
Q 1160.235 64.233437 1160.235 62.233437 
L 1160.235 33.877187 
Q 1160.235 31.877187 1158.235 31.877187 
L 1086.550625 31.877187 
Q 1084.550625 31.877187 1084.550625 33.877187 
L 1084.550625 62.233437 
Q 1084.550625 64.233437 1086.550625 64.233437 
z
" style="fill: #ffffff; opacity: 0.8; stroke: #cccccc; stroke-linejoin: miter"/>
    </g>
    <g id="patch_73">
     <path d="M 1088.550625 43.475625 
L 1108.550625 43.475625 
L 1108.550625 36.475625 
L 1088.550625 36.475625 
z
" style="fill: #add8e6; opacity: 0.9; stroke: #add8e6; stroke-linejoin: miter"/>
    </g>
    <g id="text_21">
     <!-- Meal -->
     <g transform="translate(1116.550625 43.475625) scale(0.1 -0.1)">
      <use xlink:href="#DejaVuSans-4d"/>
      <use xlink:href="#DejaVuSans-65" x="86.279297"/>
      <use xlink:href="#DejaVuSans-61" x="147.802734"/>
      <use xlink:href="#DejaVuSans-6c" x="209.082031"/>
     </g>
    </g>
    <g id="patch_74">
     <path d="M 1088.550625 58.15375 
L 1108.550625 58.15375 
L 1108.550625 51.15375 
L 1088.550625 51.15375 
z
" style="fill: #808080; opacity: 0.5; stroke: #808080; stroke-linejoin: miter"/>
    </g>
    <g id="text_22">
     <!-- Inactive -->
     <g transform="translate(1116.550625 58.15375) scale(0.1 -0.1)">
      <defs>
       <path id="DejaVuSans-49" d="M 628 4666 
L 1259 4666 
L 1259 0 
L 628 0 
L 628 4666 
z
" transform="scale(0.015625)"/>
       <path id="DejaVuSans-63" d="M 3122 3366 
L 3122 2828 
Q 2878 2963 2633 3030 
Q 2388 3097 2138 3097 
Q 1578 3097 1268 2742 
Q 959 2388 959 1747 
Q 959 1106 1268 751 
Q 1578 397 2138 397 
Q 2388 397 2633 464 
Q 2878 531 3122 666 
L 3122 134 
Q 2881 22 2623 -34 
Q 2366 -91 2075 -91 
Q 1284 -91 818 406 
Q 353 903 353 1747 
Q 353 2603 823 3093 
Q 1294 3584 2113 3584 
Q 2378 3584 2631 3529 
Q 2884 3475 3122 3366 
z
" transform="scale(0.015625)"/>
      </defs>
      <use xlink:href="#DejaVuSans-49"/>
      <use xlink:href="#DejaVuSans-6e" x="29.492188"/>
      <use xlink:href="#DejaVuSans-61" x="92.871094"/>
      <use xlink:href="#DejaVuSans-63" x="154.150391"/>
      <use xlink:href="#DejaVuSans-74" x="209.130859"/>
      <use xlink:href="#DejaVuSans-69" x="248.339844"/>
      <use xlink:href="#DejaVuSans-76" x="276.123047"/>
      <use xlink:href="#DejaVuSans-65" x="335.302734"/>
     </g>
    </g>
   </g>
  </g>
 </g>
 <defs>
  <clipPath id="p2484b9e943">
   <rect x="49.235" y="26.877187" width="1116" height="332.64"/>
  </clipPath>
 </defs>
</svg>
