<?xml version="1.0" encoding="utf-8" standalone="no"?>
<!DOCTYPE svg PUBLIC "-//W3C//DTD SVG 1.1//EN"
  "http://www.w3.org/Graphics/SVG/1.1/DTD/svg11.dtd">
<svg xmlns:xlink="http://www.w3.org/1999/xlink" width="1172.435pt" height="399.009062pt" viewBox="0 0 1172.435 399.009062" xmlns="http://www.w3.org/2000/svg" version="1.1">
 <metadata>
  <rdf:RDF xmlns:dc="http://purl.org/dc/elements/1.1/" xmlns:cc="http://creativecommons.org/ns#" xmlns:rdf="http://www.w3.org/1999/02/22-rdf-syntax-ns#">
   <cc:Work>
    <dc:type rdf:resource="http://purl.org/dc/dcmitype/StillImage"/>
    <dc:date>2025-02-26T11:11:21.858212</dc:date>
    <dc:format>image/svg+xml</dc:format>
    <dc:creator>
     <cc:Agent>
      <dc:title>Matplotlib v3.8.3, https://matplotlib.org/</dc:title>
     </cc:Agent>
    </dc:creator>
   </cc:Work>
  </rdf:RDF>
 </metadata>
 <defs>
  <style type="text/css">*{stroke-linejoin: round; stroke-linecap: butt}</style>
 </defs>
 <g id="figure_1">
  <g id="patch_1">
   <path d="M 0 399.009062 
L 1172.435 399.009062 
L 1172.435 0 
L 0 0 
z
" style="fill: #ffffff"/>
  </g>
  <g id="axes_1">
   <g id="patch_2">
    <path d="M 49.235 359.517187 
L 1165.235 359.517187 
L 1165.235 26.877187 
L 49.235 26.877187 
z
" style="fill: #ffffff"/>
   </g>
   <g id="patch_3">
    <path d="M 135.188116 359.517187 
L 135.188116 26.877187 
L 135.377038 26.877187 
L 135.377038 359.517187 
z
" clip-path="url(#peb380d70cf)" style="fill: #add8e6; stroke: #add8e6; stroke-linejoin: miter"/>
   </g>
   <g id="patch_4">
    <path d="M 135.556706 359.517187 
L 135.556706 26.877187 
L 135.757195 26.877187 
L 135.757195 359.517187 
z
" clip-path="url(#peb380d70cf)" style="fill: #add8e6; stroke: #add8e6; stroke-linejoin: miter"/>
   </g>
   <g id="patch_5">
    <path d="M 138.025029 359.517187 
L 138.025029 26.877187 
L 138.15766 26.877187 
L 138.15766 359.517187 
z
" clip-path="url(#peb380d70cf)" style="fill: #add8e6; stroke: #add8e6; stroke-linejoin: miter"/>
   </g>
   <g id="patch_6">
    <path d="M 138.265615 359.517187 
L 138.265615 26.877187 
L 138.344269 26.877187 
L 138.344269 359.517187 
z
" clip-path="url(#peb380d70cf)" style="fill: #add8e6; stroke: #add8e6; stroke-linejoin: miter"/>
   </g>
   <g id="patch_7">
    <path d="M 138.538588 359.517187 
L 138.538588 26.877187 
L 138.539359 26.877187 
L 138.539359 359.517187 
z
" clip-path="url(#peb380d70cf)" style="fill: #add8e6; stroke: #add8e6; stroke-linejoin: miter"/>
   </g>
   <g id="patch_8">
    <path d="M 141.889061 359.517187 
L 141.889061 26.877187 
L 142.096489 26.877187 
L 142.096489 359.517187 
z
" clip-path="url(#peb380d70cf)" style="fill: #add8e6; stroke: #add8e6; stroke-linejoin: miter"/>
   </g>
   <g id="patch_9">
    <path d="M 142.165889 359.517187 
L 142.165889 26.877187 
L 142.236831 26.877187 
L 142.236831 359.517187 
z
" clip-path="url(#peb380d70cf)" style="fill: #add8e6; stroke: #add8e6; stroke-linejoin: miter"/>
   </g>
   <g id="patch_10">
    <path d="M 142.514431 359.517187 
L 142.514431 26.877187 
L 142.499009 26.877187 
L 142.499009 359.517187 
z
" clip-path="url(#peb380d70cf)" style="fill: #add8e6; stroke: #add8e6; stroke-linejoin: miter"/>
   </g>
   <g id="patch_11">
    <path d="M 182.044609 359.517187 
L 182.044609 26.877187 
L 181.678332 26.877187 
L 181.678332 359.517187 
z
" clip-path="url(#peb380d70cf)" style="fill: #add8e6; stroke: #add8e6; stroke-linejoin: miter"/>
   </g>
   <g id="patch_12">
    <path d="M 194.255135 359.517187 
L 194.255135 26.877187 
L 194.407815 26.877187 
L 194.407815 359.517187 
z
" clip-path="url(#peb380d70cf)" style="fill: #add8e6; stroke: #add8e6; stroke-linejoin: miter"/>
   </g>
   <g id="patch_13">
    <path d="M 194.511914 359.517187 
L 194.511914 26.877187 
L 194.708548 26.877187 
L 194.708548 359.517187 
z
" clip-path="url(#peb380d70cf)" style="fill: #add8e6; stroke: #add8e6; stroke-linejoin: miter"/>
   </g>
   <g id="patch_14">
    <path d="M 228.797774 359.517187 
L 228.797774 26.877187 
L 228.848668 26.877187 
L 228.848668 359.517187 
z
" clip-path="url(#peb380d70cf)" style="fill: #add8e6; stroke: #add8e6; stroke-linejoin: miter"/>
   </g>
   <g id="patch_15">
    <path d="M 238.846879 359.517187 
L 238.846879 26.877187 
L 238.887748 26.877187 
L 238.887748 359.517187 
z
" clip-path="url(#peb380d70cf)" style="fill: #add8e6; stroke: #add8e6; stroke-linejoin: miter"/>
   </g>
   <g id="patch_16">
    <path d="M 260.990842 359.517187 
L 260.990842 26.877187 
L 261.078749 26.877187 
L 261.078749 359.517187 
z
" clip-path="url(#peb380d70cf)" style="fill: #add8e6; stroke: #add8e6; stroke-linejoin: miter"/>
   </g>
   <g id="patch_17">
    <path d="M 261.577657 359.517187 
L 261.577657 26.877187 
L 261.576115 26.877187 
L 261.576115 359.517187 
z
" clip-path="url(#peb380d70cf)" style="fill: #add8e6; stroke: #add8e6; stroke-linejoin: miter"/>
   </g>
   <g id="patch_18">
    <path d="M 274.272439 359.517187 
L 274.272439 26.877187 
L 274.422035 26.877187 
L 274.422035 359.517187 
z
" clip-path="url(#peb380d70cf)" style="fill: #add8e6; stroke: #add8e6; stroke-linejoin: miter"/>
   </g>
   <g id="patch_19">
    <path d="M 276.520996 359.517187 
L 276.520996 26.877187 
L 276.733822 26.877187 
L 276.733822 359.517187 
z
" clip-path="url(#peb380d70cf)" style="fill: #add8e6; stroke: #add8e6; stroke-linejoin: miter"/>
   </g>
   <g id="patch_20">
    <path d="M 323.096805 359.517187 
L 323.096805 26.877187 
L 323.19705 26.877187 
L 323.19705 359.517187 
z
" clip-path="url(#peb380d70cf)" style="fill: #add8e6; stroke: #add8e6; stroke-linejoin: miter"/>
   </g>
   <g id="patch_21">
    <path d="M 323.918809 359.517187 
L 323.918809 26.877187 
L 323.902615 26.877187 
L 323.902615 359.517187 
z
" clip-path="url(#peb380d70cf)" style="fill: #add8e6; stroke: #add8e6; stroke-linejoin: miter"/>
   </g>
   <g id="patch_22">
    <path d="M 344.078706 359.517187 
L 344.078706 26.877187 
L 344.251435 26.877187 
L 344.251435 359.517187 
z
" clip-path="url(#peb380d70cf)" style="fill: #add8e6; stroke: #add8e6; stroke-linejoin: miter"/>
   </g>
   <g id="patch_23">
    <path d="M 359.291163 359.517187 
L 359.291163 26.877187 
L 359.507844 26.877187 
L 359.507844 359.517187 
z
" clip-path="url(#peb380d70cf)" style="fill: #add8e6; stroke: #add8e6; stroke-linejoin: miter"/>
   </g>
   <g id="patch_24">
    <path d="M 371.927341 359.517187 
L 371.927341 26.877187 
L 371.661308 26.877187 
L 371.661308 359.517187 
z
" clip-path="url(#peb380d70cf)" style="fill: #add8e6; stroke: #add8e6; stroke-linejoin: miter"/>
   </g>
   <g id="patch_25">
    <path d="M 387.731238 359.517187 
L 387.731238 26.877187 
L 387.868496 26.877187 
L 387.868496 359.517187 
z
" clip-path="url(#peb380d70cf)" style="fill: #add8e6; stroke: #add8e6; stroke-linejoin: miter"/>
   </g>
   <g id="patch_26">
    <path d="M 387.965656 359.517187 
L 387.965656 26.877187 
L 388.192362 26.877187 
L 388.192362 359.517187 
z
" clip-path="url(#peb380d70cf)" style="fill: #add8e6; stroke: #add8e6; stroke-linejoin: miter"/>
   </g>
   <g id="patch_27">
    <path d="M 403.277585 359.517187 
L 403.277585 26.877187 
L 403.303032 26.877187 
L 403.303032 359.517187 
z
" clip-path="url(#peb380d70cf)" style="fill: #add8e6; stroke: #add8e6; stroke-linejoin: miter"/>
   </g>
   <g id="patch_28">
    <path d="M 410.306252 359.517187 
L 410.306252 26.877187 
L 410.266925 26.877187 
L 410.266925 359.517187 
z
" clip-path="url(#peb380d70cf)" style="fill: #add8e6; stroke: #add8e6; stroke-linejoin: miter"/>
   </g>
   <g id="patch_29">
    <path d="M 418.065931 359.517187 
L 418.065931 26.877187 
L 418.23866 26.877187 
L 418.23866 359.517187 
z
" clip-path="url(#peb380d70cf)" style="fill: #add8e6; stroke: #add8e6; stroke-linejoin: miter"/>
   </g>
   <g id="patch_30">
    <path d="M 424.326572 359.517187 
L 424.326572 26.877187 
L 424.375923 26.877187 
L 424.375923 359.517187 
z
" clip-path="url(#peb380d70cf)" style="fill: #add8e6; stroke: #add8e6; stroke-linejoin: miter"/>
   </g>
   <g id="patch_31">
    <path d="M 429.233916 359.517187 
L 429.233916 26.877187 
L 429.257049 26.877187 
L 429.257049 359.517187 
z
" clip-path="url(#peb380d70cf)" style="fill: #add8e6; stroke: #add8e6; stroke-linejoin: miter"/>
   </g>
   <g id="patch_32">
    <path d="M 438.992312 359.517187 
L 438.992312 26.877187 
L 439.069423 26.877187 
L 439.069423 359.517187 
z
" clip-path="url(#peb380d70cf)" style="fill: #add8e6; stroke: #add8e6; stroke-linejoin: miter"/>
   </g>
   <g id="patch_33">
    <path d="M 443.905824 359.517187 
L 443.905824 26.877187 
L 444.010695 26.877187 
L 444.010695 359.517187 
z
" clip-path="url(#peb380d70cf)" style="fill: #add8e6; stroke: #add8e6; stroke-linejoin: miter"/>
   </g>
   <g id="patch_34">
    <path d="M 444.173399 359.517187 
L 444.173399 26.877187 
L 444.385455 26.877187 
L 444.385455 359.517187 
z
" clip-path="url(#peb380d70cf)" style="fill: #add8e6; stroke: #add8e6; stroke-linejoin: miter"/>
   </g>
   <g id="patch_35">
    <path d="M 453.479154 359.517187 
L 453.479154 26.877187 
L 453.6087 26.877187 
L 453.6087 359.517187 
z
" clip-path="url(#peb380d70cf)" style="fill: #add8e6; stroke: #add8e6; stroke-linejoin: miter"/>
   </g>
   <g id="patch_36">
    <path d="M 487.696385 359.517187 
L 487.696385 26.877187 
L 480.442554 26.877187 
L 480.442554 359.517187 
z
" clip-path="url(#peb380d70cf)" style="fill: #add8e6; stroke: #add8e6; stroke-linejoin: miter"/>
   </g>
   <g id="patch_37">
    <path d="M 489.838528 359.517187 
L 489.838528 26.877187 
L 487.327794 26.877187 
L 487.327794 359.517187 
z
" clip-path="url(#peb380d70cf)" style="fill: #add8e6; stroke: #add8e6; stroke-linejoin: miter"/>
   </g>
   <g id="patch_38">
    <path d="M 511.027086 359.517187 
L 511.027086 26.877187 
L 511.225262 26.877187 
L 511.225262 359.517187 
z
" clip-path="url(#peb380d70cf)" style="fill: #add8e6; stroke: #add8e6; stroke-linejoin: miter"/>
   </g>
   <g id="patch_39">
    <path d="M 511.292348 359.517187 
L 511.292348 26.877187 
L 511.492837 26.877187 
L 511.492837 359.517187 
z
" clip-path="url(#peb380d70cf)" style="fill: #add8e6; stroke: #add8e6; stroke-linejoin: miter"/>
   </g>
   <g id="patch_40">
    <path d="M 553.695682 359.517187 
L 553.695682 26.877187 
L 545.769443 26.877187 
L 545.769443 359.517187 
z
" clip-path="url(#peb380d70cf)" style="fill: #add8e6; stroke: #add8e6; stroke-linejoin: miter"/>
   </g>
   <g id="patch_41">
    <path d="M 576.250647 359.517187 
L 576.250647 26.877187 
L 569.84041 26.877187 
L 569.84041 359.517187 
z
" clip-path="url(#peb380d70cf)" style="fill: #add8e6; stroke: #add8e6; stroke-linejoin: miter"/>
   </g>
   <g id="patch_42">
    <path d="M 582.726428 359.517187 
L 582.726428 26.877187 
L 582.83207 26.877187 
L 582.83207 359.517187 
z
" clip-path="url(#peb380d70cf)" style="fill: #add8e6; stroke: #add8e6; stroke-linejoin: miter"/>
   </g>
   <g id="patch_43">
    <path d="M 602.435226 359.517187 
L 602.435226 26.877187 
L 602.594075 26.877187 
L 602.594075 359.517187 
z
" clip-path="url(#peb380d70cf)" style="fill: #add8e6; stroke: #add8e6; stroke-linejoin: miter"/>
   </g>
   <g id="patch_44">
    <path d="M 602.72285 359.517187 
L 602.72285 26.877187 
L 602.880928 26.877187 
L 602.880928 359.517187 
z
" clip-path="url(#peb380d70cf)" style="fill: #add8e6; stroke: #add8e6; stroke-linejoin: miter"/>
   </g>
   <g id="patch_45">
    <path d="M 632.838548 359.517187 
L 632.838548 26.877187 
L 633.031325 26.877187 
L 633.031325 359.517187 
z
" clip-path="url(#peb380d70cf)" style="fill: #add8e6; stroke: #add8e6; stroke-linejoin: miter"/>
   </g>
   <g id="patch_46">
    <path d="M 633.171667 359.517187 
L 633.171667 26.877187 
L 633.216392 26.877187 
L 633.216392 359.517187 
z
" clip-path="url(#peb380d70cf)" style="fill: #add8e6; stroke: #add8e6; stroke-linejoin: miter"/>
   </g>
   <g id="patch_47">
    <path d="M 633.5418 359.517187 
L 633.5418 26.877187 
L 633.516354 26.877187 
L 633.516354 359.517187 
z
" clip-path="url(#peb380d70cf)" style="fill: #add8e6; stroke: #add8e6; stroke-linejoin: miter"/>
   </g>
   <g id="patch_48">
    <path d="M 648.842163 359.517187 
L 648.842163 26.877187 
L 648.385666 26.877187 
L 648.385666 359.517187 
z
" clip-path="url(#peb380d70cf)" style="fill: #add8e6; stroke: #add8e6; stroke-linejoin: miter"/>
   </g>
   <g id="patch_49">
    <path d="M 706.908282 359.517187 
L 706.908282 26.877187 
L 707.138072 26.877187 
L 707.138072 359.517187 
z
" clip-path="url(#peb380d70cf)" style="fill: #add8e6; stroke: #add8e6; stroke-linejoin: miter"/>
   </g>
   <g id="patch_50">
    <path d="M 732.961772 359.517187 
L 732.961772 26.877187 
L 733.165345 26.877187 
L 733.165345 359.517187 
z
" clip-path="url(#peb380d70cf)" style="fill: #add8e6; stroke: #add8e6; stroke-linejoin: miter"/>
   </g>
   <g id="patch_51">
    <path d="M 752.623533 359.517187 
L 752.623533 26.877187 
L 752.436924 26.877187 
L 752.436924 359.517187 
z
" clip-path="url(#peb380d70cf)" style="fill: #add8e6; stroke: #add8e6; stroke-linejoin: miter"/>
   </g>
   <g id="patch_52">
    <path d="M 753.079259 359.517187 
L 753.079259 26.877187 
L 752.838672 26.877187 
L 752.838672 359.517187 
z
" clip-path="url(#peb380d70cf)" style="fill: #add8e6; stroke: #add8e6; stroke-linejoin: miter"/>
   </g>
   <g id="patch_53">
    <path d="M 760.463407 359.517187 
L 760.463407 26.877187 
L 760.518156 26.877187 
L 760.518156 359.517187 
z
" clip-path="url(#peb380d70cf)" style="fill: #add8e6; stroke: #add8e6; stroke-linejoin: miter"/>
   </g>
   <g id="patch_54">
    <path d="M 763.699755 359.517187 
L 763.699755 26.877187 
L 763.761444 26.877187 
L 763.761444 359.517187 
z
" clip-path="url(#peb380d70cf)" style="fill: #add8e6; stroke: #add8e6; stroke-linejoin: miter"/>
   </g>
   <g id="patch_55">
    <path d="M 801.887432 359.517187 
L 801.887432 26.877187 
L 799.347395 26.877187 
L 799.347395 359.517187 
z
" clip-path="url(#peb380d70cf)" style="fill: #add8e6; stroke: #add8e6; stroke-linejoin: miter"/>
   </g>
   <g id="patch_56">
    <path d="M 808.606883 359.517187 
L 808.606883 26.877187 
L 803.5191 26.877187 
L 803.5191 359.517187 
z
" clip-path="url(#peb380d70cf)" style="fill: #add8e6; stroke: #add8e6; stroke-linejoin: miter"/>
   </g>
   <g id="patch_57">
    <path d="M 821.694932 359.517187 
L 821.694932 26.877187 
L 821.879998 26.877187 
L 821.879998 359.517187 
z
" clip-path="url(#peb380d70cf)" style="fill: #add8e6; stroke: #add8e6; stroke-linejoin: miter"/>
   </g>
   <g id="patch_58">
    <path d="M 822.076631 359.517187 
L 822.076631 26.877187 
L 822.186129 26.877187 
L 822.186129 359.517187 
z
" clip-path="url(#peb380d70cf)" style="fill: #add8e6; stroke: #add8e6; stroke-linejoin: miter"/>
   </g>
   <g id="patch_59">
    <path d="M 822.342664 359.517187 
L 822.342664 26.877187 
L 822.489175 26.877187 
L 822.489175 359.517187 
z
" clip-path="url(#peb380d70cf)" style="fill: #add8e6; stroke: #add8e6; stroke-linejoin: miter"/>
   </g>
   <g id="patch_60">
    <path d="M 822.749039 359.517187 
L 822.749039 26.877187 
L 822.65265 26.877187 
L 822.65265 359.517187 
z
" clip-path="url(#peb380d70cf)" style="fill: #add8e6; stroke: #add8e6; stroke-linejoin: miter"/>
   </g>
   <g id="patch_61">
    <path d="M 827.525294 359.517187 
L 827.525294 26.877187 
L 827.671805 26.877187 
L 827.671805 359.517187 
z
" clip-path="url(#peb380d70cf)" style="fill: #add8e6; stroke: #add8e6; stroke-linejoin: miter"/>
   </g>
   <g id="patch_62">
    <path d="M 828.954161 359.517187 
L 828.954161 26.877187 
L 829.059031 26.877187 
L 829.059031 359.517187 
z
" clip-path="url(#peb380d70cf)" style="fill: #add8e6; stroke: #add8e6; stroke-linejoin: miter"/>
   </g>
   <g id="patch_63">
    <path d="M 829.527866 359.517187 
L 829.527866 26.877187 
L 829.733753 26.877187 
L 829.733753 359.517187 
z
" clip-path="url(#peb380d70cf)" style="fill: #add8e6; stroke: #add8e6; stroke-linejoin: miter"/>
   </g>
   <g id="patch_64">
    <path d="M 849.218929 359.517187 
L 849.218929 26.877187 
L 849.361584 26.877187 
L 849.361584 359.517187 
z
" clip-path="url(#peb380d70cf)" style="fill: #add8e6; stroke: #add8e6; stroke-linejoin: miter"/>
   </g>
   <g id="patch_65">
    <path d="M 871.801654 359.517187 
L 871.801654 26.877187 
L 868.745745 26.877187 
L 868.745745 359.517187 
z
" clip-path="url(#peb380d70cf)" style="fill: #add8e6; stroke: #add8e6; stroke-linejoin: miter"/>
   </g>
   <g id="patch_66">
    <path d="M 878.117044 359.517187 
L 878.117044 26.877187 
L 878.295942 26.877187 
L 878.295942 359.517187 
z
" clip-path="url(#peb380d70cf)" style="fill: #add8e6; stroke: #add8e6; stroke-linejoin: miter"/>
   </g>
   <g id="patch_67">
    <path d="M 878.555806 359.517187 
L 878.555806 26.877187 
L 878.738559 26.877187 
L 878.738559 359.517187 
z
" clip-path="url(#peb380d70cf)" style="fill: #add8e6; stroke: #add8e6; stroke-linejoin: miter"/>
   </g>
   <g id="patch_68">
    <path d="M 884.636778 359.517187 
L 884.636778 26.877187 
L 884.819531 26.877187 
L 884.819531 359.517187 
z
" clip-path="url(#peb380d70cf)" style="fill: #add8e6; stroke: #add8e6; stroke-linejoin: miter"/>
   </g>
   <g id="patch_69">
    <path d="M 914.730885 359.517187 
L 914.730885 26.877187 
L 914.923662 26.877187 
L 914.923662 359.517187 
z
" clip-path="url(#peb380d70cf)" style="fill: #add8e6; stroke: #add8e6; stroke-linejoin: miter"/>
   </g>
   <g id="patch_70">
    <path d="M 915.000773 359.517187 
L 915.000773 26.877187 
L 914.952193 26.877187 
L 914.952193 359.517187 
z
" clip-path="url(#peb380d70cf)" style="fill: #add8e6; stroke: #add8e6; stroke-linejoin: miter"/>
   </g>
   <g id="patch_71">
    <path d="M 915.267577 359.517187 
L 915.267577 26.877187 
L 915.445704 26.877187 
L 915.445704 359.517187 
z
" clip-path="url(#peb380d70cf)" style="fill: #add8e6; stroke: #add8e6; stroke-linejoin: miter"/>
   </g>
   <g id="patch_72">
    <path d="M 915.649277 359.517187 
L 915.649277 26.877187 
L 915.839741 26.877187 
L 915.839741 359.517187 
z
" clip-path="url(#peb380d70cf)" style="fill: #add8e6; stroke: #add8e6; stroke-linejoin: miter"/>
   </g>
   <g id="patch_73">
    <path d="M 984.534067 359.517187 
L 984.534067 26.877187 
L 971.884009 26.877187 
L 971.884009 359.517187 
z
" clip-path="url(#peb380d70cf)" style="fill: #add8e6; stroke: #add8e6; stroke-linejoin: miter"/>
   </g>
   <g id="patch_74">
    <path d="M 1005.967067 359.517187 
L 1005.967067 26.877187 
L 993.240669 26.877187 
L 993.240669 359.517187 
z
" clip-path="url(#peb380d70cf)" style="fill: #add8e6; stroke: #add8e6; stroke-linejoin: miter"/>
   </g>
   <g id="patch_75">
    <path d="M 1013.664286 359.517187 
L 1013.664286 26.877187 
L 1013.864004 26.877187 
L 1013.864004 359.517187 
z
" clip-path="url(#peb380d70cf)" style="fill: #add8e6; stroke: #add8e6; stroke-linejoin: miter"/>
   </g>
   <g id="patch_76">
    <path d="M 1014.027479 359.517187 
L 1014.027479 26.877187 
L 1014.117699 26.877187 
L 1014.117699 359.517187 
z
" clip-path="url(#peb380d70cf)" style="fill: #add8e6; stroke: #add8e6; stroke-linejoin: miter"/>
   </g>
   <g id="patch_77">
    <path d="M 1025.514704 359.517187 
L 1025.514704 26.877187 
L 1025.725988 26.877187 
L 1025.725988 359.517187 
z
" clip-path="url(#peb380d70cf)" style="fill: #add8e6; stroke: #add8e6; stroke-linejoin: miter"/>
   </g>
   <g id="patch_78">
    <path d="M 1025.774568 359.517187 
L 1025.774568 26.877187 
L 1025.981996 26.877187 
L 1025.981996 359.517187 
z
" clip-path="url(#peb380d70cf)" style="fill: #add8e6; stroke: #add8e6; stroke-linejoin: miter"/>
   </g>
   <g id="patch_79">
    <path d="M 1026.030576 359.517187 
L 1026.030576 26.877187 
L 1026.224125 26.877187 
L 1026.224125 359.517187 
z
" clip-path="url(#peb380d70cf)" style="fill: #add8e6; stroke: #add8e6; stroke-linejoin: miter"/>
   </g>
   <g id="patch_80">
    <path d="M 1026.281187 359.517187 
L 1026.281187 26.877187 
L 1026.502495 26.877187 
L 1026.502495 359.517187 
z
" clip-path="url(#peb380d70cf)" style="fill: #add8e6; stroke: #add8e6; stroke-linejoin: miter"/>
   </g>
   <g id="patch_81">
    <path d="M 1051.312186 359.517187 
L 1051.312186 26.877187 
L 1051.316041 26.877187 
L 1051.316041 359.517187 
z
" clip-path="url(#peb380d70cf)" style="fill: #add8e6; stroke: #add8e6; stroke-linejoin: miter"/>
   </g>
   <g id="patch_82">
    <path d="M 1097.794691 359.517187 
L 1097.794691 26.877187 
L 1085.190128 26.877187 
L 1085.190128 359.517187 
z
" clip-path="url(#peb380d70cf)" style="fill: #add8e6; stroke: #add8e6; stroke-linejoin: miter"/>
   </g>
   <g id="patch_83">
    <path d="M 1107.402721 359.517187 
L 1107.402721 26.877187 
L 1103.424565 26.877187 
L 1103.424565 359.517187 
z
" clip-path="url(#peb380d70cf)" style="fill: #add8e6; stroke: #add8e6; stroke-linejoin: miter"/>
   </g>
   <g id="patch_84">
    <path d="M 1113.667989 359.517187 
L 1113.667989 26.877187 
L 1113.846115 26.877187 
L 1113.846115 359.517187 
z
" clip-path="url(#peb380d70cf)" style="fill: #add8e6; stroke: #add8e6; stroke-linejoin: miter"/>
   </g>
   <g id="patch_85">
    <path d="M 1113.950986 359.517187 
L 1113.950986 26.877187 
L 1114.146077 26.877187 
L 1114.146077 359.517187 
z
" clip-path="url(#peb380d70cf)" style="fill: #add8e6; stroke: #add8e6; stroke-linejoin: miter"/>
   </g>
   <g id="patch_86">
    <path d="M 1114.284877 359.517187 
L 1114.284877 26.877187 
L 1114.472256 26.877187 
L 1114.472256 359.517187 
z
" clip-path="url(#peb380d70cf)" style="fill: #add8e6; stroke: #add8e6; stroke-linejoin: miter"/>
   </g>
   <g id="patch_87">
    <path d="M 229.508738 359.517187 
L 229.508738 26.877187 
L 396.068479 26.877187 
L 396.068479 359.517187 
z
" clip-path="url(#peb380d70cf)" style="fill: #808080; opacity: 0.4; stroke: #808080; stroke-linejoin: miter"/>
   </g>
   <g id="patch_88">
    <path d="M 400.695138 26.877187 
L 400.695138 26.877187 
L 400.695138 359.517187 
" clip-path="url(#peb380d70cf)" style="fill: #808080; opacity: 0.4; stroke: #808080; stroke-linejoin: miter"/>
   </g>
   <g id="patch_89">
    <path d="M 405.321798 26.877187 
L 405.321798 26.877187 
L 405.321798 359.517187 
" clip-path="url(#peb380d70cf)" style="fill: #808080; opacity: 0.4; stroke: #808080; stroke-linejoin: miter"/>
   </g>
   <g id="patch_90">
    <path d="M 562.628219 359.517187 
L 562.628219 26.877187 
L 729.18796 26.877187 
L 729.18796 359.517187 
z
" clip-path="url(#peb380d70cf)" style="fill: #808080; opacity: 0.4; stroke: #808080; stroke-linejoin: miter"/>
   </g>
   <g id="patch_91">
    <path d="M 733.81462 26.877187 
L 733.81462 26.877187 
L 733.81462 359.517187 
" clip-path="url(#peb380d70cf)" style="fill: #808080; opacity: 0.4; stroke: #808080; stroke-linejoin: miter"/>
   </g>
   <g id="patch_92">
    <path d="M 738.441279 26.877187 
L 738.441279 26.877187 
L 738.441279 359.517187 
" clip-path="url(#peb380d70cf)" style="fill: #808080; opacity: 0.4; stroke: #808080; stroke-linejoin: miter"/>
   </g>
   <g id="patch_93">
    <path d="M 895.747701 359.517187 
L 895.747701 26.877187 
L 1062.307442 26.877187 
L 1062.307442 359.517187 
z
" clip-path="url(#peb380d70cf)" style="fill: #808080; opacity: 0.4; stroke: #808080; stroke-linejoin: miter"/>
   </g>
   <g id="patch_94">
    <path d="M 1066.934101 26.877187 
L 1066.934101 26.877187 
L 1066.934101 359.517187 
" clip-path="url(#peb380d70cf)" style="fill: #808080; opacity: 0.4; stroke: #808080; stroke-linejoin: miter"/>
   </g>
   <g id="patch_95">
    <path d="M 1071.560761 26.877187 
L 1071.560761 26.877187 
L 1071.560761 359.517187 
" clip-path="url(#peb380d70cf)" style="fill: #808080; opacity: 0.4; stroke: #808080; stroke-linejoin: miter"/>
   </g>
   <g id="matplotlib.axis_1">
    <g id="xtick_1">
     <g id="line2d_1">
      <defs>
       <path id="m5612661778" d="M 0 0 
L 0 3.5 
" style="stroke: #000000; stroke-width: 0.8"/>
      </defs>
      <g>
       <use xlink:href="#m5612661778" x="128.04224" y="359.517187" style="stroke: #000000; stroke-width: 0.8"/>
      </g>
     </g>
     <g id="text_1">
      <!-- 07-18 12 -->
      <g transform="translate(105.561771 374.115625) scale(0.1 -0.1)">
       <defs>
        <path id="DejaVuSans-30" d="M 2034 4250 
Q 1547 4250 1301 3770 
Q 1056 3291 1056 2328 
Q 1056 1369 1301 889 
Q 1547 409 2034 409 
Q 2525 409 2770 889 
Q 3016 1369 3016 2328 
Q 3016 3291 2770 3770 
Q 2525 4250 2034 4250 
z
M 2034 4750 
Q 2819 4750 3233 4129 
Q 3647 3509 3647 2328 
Q 3647 1150 3233 529 
Q 2819 -91 2034 -91 
Q 1250 -91 836 529 
Q 422 1150 422 2328 
Q 422 3509 836 4129 
Q 1250 4750 2034 4750 
z
" transform="scale(0.015625)"/>
        <path id="DejaVuSans-37" d="M 525 4666 
L 3525 4666 
L 3525 4397 
L 1831 0 
L 1172 0 
L 2766 4134 
L 525 4134 
L 525 4666 
z
" transform="scale(0.015625)"/>
        <path id="DejaVuSans-2d" d="M 313 2009 
L 1997 2009 
L 1997 1497 
L 313 1497 
L 313 2009 
z
" transform="scale(0.015625)"/>
        <path id="DejaVuSans-31" d="M 794 531 
L 1825 531 
L 1825 4091 
L 703 3866 
L 703 4441 
L 1819 4666 
L 2450 4666 
L 2450 531 
L 3481 531 
L 3481 0 
L 794 0 
L 794 531 
z
" transform="scale(0.015625)"/>
        <path id="DejaVuSans-38" d="M 2034 2216 
Q 1584 2216 1326 1975 
Q 1069 1734 1069 1313 
Q 1069 891 1326 650 
Q 1584 409 2034 409 
Q 2484 409 2743 651 
Q 3003 894 3003 1313 
Q 3003 1734 2745 1975 
Q 2488 2216 2034 2216 
z
M 1403 2484 
Q 997 2584 770 2862 
Q 544 3141 544 3541 
Q 544 4100 942 4425 
Q 1341 4750 2034 4750 
Q 2731 4750 3128 4425 
Q 3525 4100 3525 3541 
Q 3525 3141 3298 2862 
Q 3072 2584 2669 2484 
Q 3125 2378 3379 2068 
Q 3634 1759 3634 1313 
Q 3634 634 3220 271 
Q 2806 -91 2034 -91 
Q 1263 -91 848 271 
Q 434 634 434 1313 
Q 434 1759 690 2068 
Q 947 2378 1403 2484 
z
M 1172 3481 
Q 1172 3119 1398 2916 
Q 1625 2713 2034 2713 
Q 2441 2713 2670 2916 
Q 2900 3119 2900 3481 
Q 2900 3844 2670 4047 
Q 2441 4250 2034 4250 
Q 1625 4250 1398 4047 
Q 1172 3844 1172 3481 
z
" transform="scale(0.015625)"/>
        <path id="DejaVuSans-20" transform="scale(0.015625)"/>
        <path id="DejaVuSans-32" d="M 1228 531 
L 3431 531 
L 3431 0 
L 469 0 
L 469 531 
Q 828 903 1448 1529 
Q 2069 2156 2228 2338 
Q 2531 2678 2651 2914 
Q 2772 3150 2772 3378 
Q 2772 3750 2511 3984 
Q 2250 4219 1831 4219 
Q 1534 4219 1204 4116 
Q 875 4013 500 3803 
L 500 4441 
Q 881 4594 1212 4672 
Q 1544 4750 1819 4750 
Q 2544 4750 2975 4387 
Q 3406 4025 3406 3419 
Q 3406 3131 3298 2873 
Q 3191 2616 2906 2266 
Q 2828 2175 2409 1742 
Q 1991 1309 1228 531 
z
" transform="scale(0.015625)"/>
       </defs>
       <use xlink:href="#DejaVuSans-30"/>
       <use xlink:href="#DejaVuSans-37" x="63.623047"/>
       <use xlink:href="#DejaVuSans-2d" x="127.246094"/>
       <use xlink:href="#DejaVuSans-31" x="163.330078"/>
       <use xlink:href="#DejaVuSans-38" x="226.953125"/>
       <use xlink:href="#DejaVuSans-20" x="290.576172"/>
       <use xlink:href="#DejaVuSans-31" x="322.363281"/>
       <use xlink:href="#DejaVuSans-32" x="385.986328"/>
      </g>
     </g>
    </g>
    <g id="xtick_2">
     <g id="line2d_2">
      <g>
       <use xlink:href="#m5612661778" x="294.601981" y="359.517187" style="stroke: #000000; stroke-width: 0.8"/>
      </g>
     </g>
     <g id="text_2">
      <!-- 07-19 00 -->
      <g transform="translate(272.121512 374.115625) scale(0.1 -0.1)">
       <defs>
        <path id="DejaVuSans-39" d="M 703 97 
L 703 672 
Q 941 559 1184 500 
Q 1428 441 1663 441 
Q 2288 441 2617 861 
Q 2947 1281 2994 2138 
Q 2813 1869 2534 1725 
Q 2256 1581 1919 1581 
Q 1219 1581 811 2004 
Q 403 2428 403 3163 
Q 403 3881 828 4315 
Q 1253 4750 1959 4750 
Q 2769 4750 3195 4129 
Q 3622 3509 3622 2328 
Q 3622 1225 3098 567 
Q 2575 -91 1691 -91 
Q 1453 -91 1209 -44 
Q 966 3 703 97 
z
M 1959 2075 
Q 2384 2075 2632 2365 
Q 2881 2656 2881 3163 
Q 2881 3666 2632 3958 
Q 2384 4250 1959 4250 
Q 1534 4250 1286 3958 
Q 1038 3666 1038 3163 
Q 1038 2656 1286 2365 
Q 1534 2075 1959 2075 
z
" transform="scale(0.015625)"/>
       </defs>
       <use xlink:href="#DejaVuSans-30"/>
       <use xlink:href="#DejaVuSans-37" x="63.623047"/>
       <use xlink:href="#DejaVuSans-2d" x="127.246094"/>
       <use xlink:href="#DejaVuSans-31" x="163.330078"/>
       <use xlink:href="#DejaVuSans-39" x="226.953125"/>
       <use xlink:href="#DejaVuSans-20" x="290.576172"/>
       <use xlink:href="#DejaVuSans-30" x="322.363281"/>
       <use xlink:href="#DejaVuSans-30" x="385.986328"/>
      </g>
     </g>
    </g>
    <g id="xtick_3">
     <g id="line2d_3">
      <g>
       <use xlink:href="#m5612661778" x="461.161722" y="359.517187" style="stroke: #000000; stroke-width: 0.8"/>
      </g>
     </g>
     <g id="text_3">
      <!-- 07-19 12 -->
      <g transform="translate(438.681253 374.115625) scale(0.1 -0.1)">
       <use xlink:href="#DejaVuSans-30"/>
       <use xlink:href="#DejaVuSans-37" x="63.623047"/>
       <use xlink:href="#DejaVuSans-2d" x="127.246094"/>
       <use xlink:href="#DejaVuSans-31" x="163.330078"/>
       <use xlink:href="#DejaVuSans-39" x="226.953125"/>
       <use xlink:href="#DejaVuSans-20" x="290.576172"/>
       <use xlink:href="#DejaVuSans-31" x="322.363281"/>
       <use xlink:href="#DejaVuSans-32" x="385.986328"/>
      </g>
     </g>
    </g>
    <g id="xtick_4">
     <g id="line2d_4">
      <g>
       <use xlink:href="#m5612661778" x="627.721463" y="359.517187" style="stroke: #000000; stroke-width: 0.8"/>
      </g>
     </g>
     <g id="text_4">
      <!-- 07-20 00 -->
      <g transform="translate(605.240994 374.115625) scale(0.1 -0.1)">
       <use xlink:href="#DejaVuSans-30"/>
       <use xlink:href="#DejaVuSans-37" x="63.623047"/>
       <use xlink:href="#DejaVuSans-2d" x="127.246094"/>
       <use xlink:href="#DejaVuSans-32" x="163.330078"/>
       <use xlink:href="#DejaVuSans-30" x="226.953125"/>
       <use xlink:href="#DejaVuSans-20" x="290.576172"/>
       <use xlink:href="#DejaVuSans-30" x="322.363281"/>
       <use xlink:href="#DejaVuSans-30" x="385.986328"/>
      </g>
     </g>
    </g>
    <g id="xtick_5">
     <g id="line2d_5">
      <g>
       <use xlink:href="#m5612661778" x="794.281203" y="359.517187" style="stroke: #000000; stroke-width: 0.8"/>
      </g>
     </g>
     <g id="text_5">
      <!-- 07-20 12 -->
      <g transform="translate(771.800735 374.115625) scale(0.1 -0.1)">
       <use xlink:href="#DejaVuSans-30"/>
       <use xlink:href="#DejaVuSans-37" x="63.623047"/>
       <use xlink:href="#DejaVuSans-2d" x="127.246094"/>
       <use xlink:href="#DejaVuSans-32" x="163.330078"/>
       <use xlink:href="#DejaVuSans-30" x="226.953125"/>
       <use xlink:href="#DejaVuSans-20" x="290.576172"/>
       <use xlink:href="#DejaVuSans-31" x="322.363281"/>
       <use xlink:href="#DejaVuSans-32" x="385.986328"/>
      </g>
     </g>
    </g>
    <g id="xtick_6">
     <g id="line2d_6">
      <g>
       <use xlink:href="#m5612661778" x="960.840944" y="359.517187" style="stroke: #000000; stroke-width: 0.8"/>
      </g>
     </g>
     <g id="text_6">
      <!-- 07-21 00 -->
      <g transform="translate(938.360475 374.115625) scale(0.1 -0.1)">
       <use xlink:href="#DejaVuSans-30"/>
       <use xlink:href="#DejaVuSans-37" x="63.623047"/>
       <use xlink:href="#DejaVuSans-2d" x="127.246094"/>
       <use xlink:href="#DejaVuSans-32" x="163.330078"/>
       <use xlink:href="#DejaVuSans-31" x="226.953125"/>
       <use xlink:href="#DejaVuSans-20" x="290.576172"/>
       <use xlink:href="#DejaVuSans-30" x="322.363281"/>
       <use xlink:href="#DejaVuSans-30" x="385.986328"/>
      </g>
     </g>
    </g>
    <g id="xtick_7">
     <g id="line2d_7">
      <g>
       <use xlink:href="#m5612661778" x="1127.400685" y="359.517187" style="stroke: #000000; stroke-width: 0.8"/>
      </g>
     </g>
     <g id="text_7">
      <!-- 07-21 12 -->
      <g transform="translate(1104.920216 374.115625) scale(0.1 -0.1)">
       <use xlink:href="#DejaVuSans-30"/>
       <use xlink:href="#DejaVuSans-37" x="63.623047"/>
       <use xlink:href="#DejaVuSans-2d" x="127.246094"/>
       <use xlink:href="#DejaVuSans-32" x="163.330078"/>
       <use xlink:href="#DejaVuSans-31" x="226.953125"/>
       <use xlink:href="#DejaVuSans-20" x="290.576172"/>
       <use xlink:href="#DejaVuSans-31" x="322.363281"/>
       <use xlink:href="#DejaVuSans-32" x="385.986328"/>
      </g>
     </g>
    </g>
    <g id="text_8">
     <!-- Time -->
     <g transform="translate(592.554688 389.313437) scale(0.12 -0.12)">
      <defs>
       <path id="DejaVuSans-54" d="M -19 4666 
L 3928 4666 
L 3928 4134 
L 2272 4134 
L 2272 0 
L 1638 0 
L 1638 4134 
L -19 4134 
L -19 4666 
z
" transform="scale(0.015625)"/>
       <path id="DejaVuSans-69" d="M 603 3500 
L 1178 3500 
L 1178 0 
L 603 0 
L 603 3500 
z
M 603 4863 
L 1178 4863 
L 1178 4134 
L 603 4134 
L 603 4863 
z
" transform="scale(0.015625)"/>
       <path id="DejaVuSans-6d" d="M 3328 2828 
Q 3544 3216 3844 3400 
Q 4144 3584 4550 3584 
Q 5097 3584 5394 3201 
Q 5691 2819 5691 2113 
L 5691 0 
L 5113 0 
L 5113 2094 
Q 5113 2597 4934 2840 
Q 4756 3084 4391 3084 
Q 3944 3084 3684 2787 
Q 3425 2491 3425 1978 
L 3425 0 
L 2847 0 
L 2847 2094 
Q 2847 2600 2669 2842 
Q 2491 3084 2119 3084 
Q 1678 3084 1418 2786 
Q 1159 2488 1159 1978 
L 1159 0 
L 581 0 
L 581 3500 
L 1159 3500 
L 1159 2956 
Q 1356 3278 1631 3431 
Q 1906 3584 2284 3584 
Q 2666 3584 2933 3390 
Q 3200 3197 3328 2828 
z
" transform="scale(0.015625)"/>
       <path id="DejaVuSans-65" d="M 3597 1894 
L 3597 1613 
L 953 1613 
Q 991 1019 1311 708 
Q 1631 397 2203 397 
Q 2534 397 2845 478 
Q 3156 559 3463 722 
L 3463 178 
Q 3153 47 2828 -22 
Q 2503 -91 2169 -91 
Q 1331 -91 842 396 
Q 353 884 353 1716 
Q 353 2575 817 3079 
Q 1281 3584 2069 3584 
Q 2775 3584 3186 3129 
Q 3597 2675 3597 1894 
z
M 3022 2063 
Q 3016 2534 2758 2815 
Q 2500 3097 2075 3097 
Q 1594 3097 1305 2825 
Q 1016 2553 972 2059 
L 3022 2063 
z
" transform="scale(0.015625)"/>
      </defs>
      <use xlink:href="#DejaVuSans-54"/>
      <use xlink:href="#DejaVuSans-69" x="57.958984"/>
      <use xlink:href="#DejaVuSans-6d" x="85.742188"/>
      <use xlink:href="#DejaVuSans-65" x="183.154297"/>
     </g>
    </g>
   </g>
   <g id="matplotlib.axis_2">
    <g id="ytick_1">
     <g id="line2d_8">
      <defs>
       <path id="m1f8b257758" d="M 0 0 
L -3.5 0 
" style="stroke: #000000; stroke-width: 0.8"/>
      </defs>
      <g>
       <use xlink:href="#m1f8b257758" x="49.235" y="344.397187" style="stroke: #000000; stroke-width: 0.8"/>
      </g>
     </g>
     <g id="text_9">
      <!-- 0 -->
      <g transform="translate(35.8725 348.196406) scale(0.1 -0.1)">
       <use xlink:href="#DejaVuSans-30"/>
      </g>
     </g>
    </g>
    <g id="ytick_2">
     <g id="line2d_9">
      <g>
       <use xlink:href="#m1f8b257758" x="49.235" y="295.622994" style="stroke: #000000; stroke-width: 0.8"/>
      </g>
     </g>
     <g id="text_10">
      <!-- 100 -->
      <g transform="translate(23.1475 299.422213) scale(0.1 -0.1)">
       <use xlink:href="#DejaVuSans-31"/>
       <use xlink:href="#DejaVuSans-30" x="63.623047"/>
       <use xlink:href="#DejaVuSans-30" x="127.246094"/>
      </g>
     </g>
    </g>
    <g id="ytick_3">
     <g id="line2d_10">
      <g>
       <use xlink:href="#m1f8b257758" x="49.235" y="246.8488" style="stroke: #000000; stroke-width: 0.8"/>
      </g>
     </g>
     <g id="text_11">
      <!-- 200 -->
      <g transform="translate(23.1475 250.648019) scale(0.1 -0.1)">
       <use xlink:href="#DejaVuSans-32"/>
       <use xlink:href="#DejaVuSans-30" x="63.623047"/>
       <use xlink:href="#DejaVuSans-30" x="127.246094"/>
      </g>
     </g>
    </g>
    <g id="ytick_4">
     <g id="line2d_11">
      <g>
       <use xlink:href="#m1f8b257758" x="49.235" y="198.074607" style="stroke: #000000; stroke-width: 0.8"/>
      </g>
     </g>
     <g id="text_12">
      <!-- 300 -->
      <g transform="translate(23.1475 201.873826) scale(0.1 -0.1)">
       <defs>
        <path id="DejaVuSans-33" d="M 2597 2516 
Q 3050 2419 3304 2112 
Q 3559 1806 3559 1356 
Q 3559 666 3084 287 
Q 2609 -91 1734 -91 
Q 1441 -91 1130 -33 
Q 819 25 488 141 
L 488 750 
Q 750 597 1062 519 
Q 1375 441 1716 441 
Q 2309 441 2620 675 
Q 2931 909 2931 1356 
Q 2931 1769 2642 2001 
Q 2353 2234 1838 2234 
L 1294 2234 
L 1294 2753 
L 1863 2753 
Q 2328 2753 2575 2939 
Q 2822 3125 2822 3475 
Q 2822 3834 2567 4026 
Q 2313 4219 1838 4219 
Q 1578 4219 1281 4162 
Q 984 4106 628 3988 
L 628 4550 
Q 988 4650 1302 4700 
Q 1616 4750 1894 4750 
Q 2613 4750 3031 4423 
Q 3450 4097 3450 3541 
Q 3450 3153 3228 2886 
Q 3006 2619 2597 2516 
z
" transform="scale(0.015625)"/>
       </defs>
       <use xlink:href="#DejaVuSans-33"/>
       <use xlink:href="#DejaVuSans-30" x="63.623047"/>
       <use xlink:href="#DejaVuSans-30" x="127.246094"/>
      </g>
     </g>
    </g>
    <g id="ytick_5">
     <g id="line2d_12">
      <g>
       <use xlink:href="#m1f8b257758" x="49.235" y="149.300413" style="stroke: #000000; stroke-width: 0.8"/>
      </g>
     </g>
     <g id="text_13">
      <!-- 400 -->
      <g transform="translate(23.1475 153.099632) scale(0.1 -0.1)">
       <defs>
        <path id="DejaVuSans-34" d="M 2419 4116 
L 825 1625 
L 2419 1625 
L 2419 4116 
z
M 2253 4666 
L 3047 4666 
L 3047 1625 
L 3713 1625 
L 3713 1100 
L 3047 1100 
L 3047 0 
L 2419 0 
L 2419 1100 
L 313 1100 
L 313 1709 
L 2253 4666 
z
" transform="scale(0.015625)"/>
       </defs>
       <use xlink:href="#DejaVuSans-34"/>
       <use xlink:href="#DejaVuSans-30" x="63.623047"/>
       <use xlink:href="#DejaVuSans-30" x="127.246094"/>
      </g>
     </g>
    </g>
    <g id="ytick_6">
     <g id="line2d_13">
      <g>
       <use xlink:href="#m1f8b257758" x="49.235" y="100.52622" style="stroke: #000000; stroke-width: 0.8"/>
      </g>
     </g>
     <g id="text_14">
      <!-- 500 -->
      <g transform="translate(23.1475 104.325439) scale(0.1 -0.1)">
       <defs>
        <path id="DejaVuSans-35" d="M 691 4666 
L 3169 4666 
L 3169 4134 
L 1269 4134 
L 1269 2991 
Q 1406 3038 1543 3061 
Q 1681 3084 1819 3084 
Q 2600 3084 3056 2656 
Q 3513 2228 3513 1497 
Q 3513 744 3044 326 
Q 2575 -91 1722 -91 
Q 1428 -91 1123 -41 
Q 819 9 494 109 
L 494 744 
Q 775 591 1075 516 
Q 1375 441 1709 441 
Q 2250 441 2565 725 
Q 2881 1009 2881 1497 
Q 2881 1984 2565 2268 
Q 2250 2553 1709 2553 
Q 1456 2553 1204 2497 
Q 953 2441 691 2322 
L 691 4666 
z
" transform="scale(0.015625)"/>
       </defs>
       <use xlink:href="#DejaVuSans-35"/>
       <use xlink:href="#DejaVuSans-30" x="63.623047"/>
       <use xlink:href="#DejaVuSans-30" x="127.246094"/>
      </g>
     </g>
    </g>
    <g id="ytick_7">
     <g id="line2d_14">
      <g>
       <use xlink:href="#m1f8b257758" x="49.235" y="51.752026" style="stroke: #000000; stroke-width: 0.8"/>
      </g>
     </g>
     <g id="text_15">
      <!-- 600 -->
      <g transform="translate(23.1475 55.551245) scale(0.1 -0.1)">
       <defs>
        <path id="DejaVuSans-36" d="M 2113 2584 
Q 1688 2584 1439 2293 
Q 1191 2003 1191 1497 
Q 1191 994 1439 701 
Q 1688 409 2113 409 
Q 2538 409 2786 701 
Q 3034 994 3034 1497 
Q 3034 2003 2786 2293 
Q 2538 2584 2113 2584 
z
M 3366 4563 
L 3366 3988 
Q 3128 4100 2886 4159 
Q 2644 4219 2406 4219 
Q 1781 4219 1451 3797 
Q 1122 3375 1075 2522 
Q 1259 2794 1537 2939 
Q 1816 3084 2150 3084 
Q 2853 3084 3261 2657 
Q 3669 2231 3669 1497 
Q 3669 778 3244 343 
Q 2819 -91 2113 -91 
Q 1303 -91 875 529 
Q 447 1150 447 2328 
Q 447 3434 972 4092 
Q 1497 4750 2381 4750 
Q 2619 4750 2861 4703 
Q 3103 4656 3366 4563 
z
" transform="scale(0.015625)"/>
       </defs>
       <use xlink:href="#DejaVuSans-36"/>
       <use xlink:href="#DejaVuSans-30" x="63.623047"/>
       <use xlink:href="#DejaVuSans-30" x="127.246094"/>
      </g>
     </g>
    </g>
    <g id="text_16">
     <!-- Pellet_Count -->
     <g transform="translate(16.318125 230.485312) rotate(-90) scale(0.12 -0.12)">
      <defs>
       <path id="DejaVuSans-50" d="M 1259 4147 
L 1259 2394 
L 2053 2394 
Q 2494 2394 2734 2622 
Q 2975 2850 2975 3272 
Q 2975 3691 2734 3919 
Q 2494 4147 2053 4147 
L 1259 4147 
z
M 628 4666 
L 2053 4666 
Q 2838 4666 3239 4311 
Q 3641 3956 3641 3272 
Q 3641 2581 3239 2228 
Q 2838 1875 2053 1875 
L 1259 1875 
L 1259 0 
L 628 0 
L 628 4666 
z
" transform="scale(0.015625)"/>
       <path id="DejaVuSans-6c" d="M 603 4863 
L 1178 4863 
L 1178 0 
L 603 0 
L 603 4863 
z
" transform="scale(0.015625)"/>
       <path id="DejaVuSans-74" d="M 1172 4494 
L 1172 3500 
L 2356 3500 
L 2356 3053 
L 1172 3053 
L 1172 1153 
Q 1172 725 1289 603 
Q 1406 481 1766 481 
L 2356 481 
L 2356 0 
L 1766 0 
Q 1100 0 847 248 
Q 594 497 594 1153 
L 594 3053 
L 172 3053 
L 172 3500 
L 594 3500 
L 594 4494 
L 1172 4494 
z
" transform="scale(0.015625)"/>
       <path id="DejaVuSans-5f" d="M 3263 -1063 
L 3263 -1509 
L -63 -1509 
L -63 -1063 
L 3263 -1063 
z
" transform="scale(0.015625)"/>
       <path id="DejaVuSans-43" d="M 4122 4306 
L 4122 3641 
Q 3803 3938 3442 4084 
Q 3081 4231 2675 4231 
Q 1875 4231 1450 3742 
Q 1025 3253 1025 2328 
Q 1025 1406 1450 917 
Q 1875 428 2675 428 
Q 3081 428 3442 575 
Q 3803 722 4122 1019 
L 4122 359 
Q 3791 134 3420 21 
Q 3050 -91 2638 -91 
Q 1578 -91 968 557 
Q 359 1206 359 2328 
Q 359 3453 968 4101 
Q 1578 4750 2638 4750 
Q 3056 4750 3426 4639 
Q 3797 4528 4122 4306 
z
" transform="scale(0.015625)"/>
       <path id="DejaVuSans-6f" d="M 1959 3097 
Q 1497 3097 1228 2736 
Q 959 2375 959 1747 
Q 959 1119 1226 758 
Q 1494 397 1959 397 
Q 2419 397 2687 759 
Q 2956 1122 2956 1747 
Q 2956 2369 2687 2733 
Q 2419 3097 1959 3097 
z
M 1959 3584 
Q 2709 3584 3137 3096 
Q 3566 2609 3566 1747 
Q 3566 888 3137 398 
Q 2709 -91 1959 -91 
Q 1206 -91 779 398 
Q 353 888 353 1747 
Q 353 2609 779 3096 
Q 1206 3584 1959 3584 
z
" transform="scale(0.015625)"/>
       <path id="DejaVuSans-75" d="M 544 1381 
L 544 3500 
L 1119 3500 
L 1119 1403 
Q 1119 906 1312 657 
Q 1506 409 1894 409 
Q 2359 409 2629 706 
Q 2900 1003 2900 1516 
L 2900 3500 
L 3475 3500 
L 3475 0 
L 2900 0 
L 2900 538 
Q 2691 219 2414 64 
Q 2138 -91 1772 -91 
Q 1169 -91 856 284 
Q 544 659 544 1381 
z
M 1991 3584 
L 1991 3584 
z
" transform="scale(0.015625)"/>
       <path id="DejaVuSans-6e" d="M 3513 2113 
L 3513 0 
L 2938 0 
L 2938 2094 
Q 2938 2591 2744 2837 
Q 2550 3084 2163 3084 
Q 1697 3084 1428 2787 
Q 1159 2491 1159 1978 
L 1159 0 
L 581 0 
L 581 3500 
L 1159 3500 
L 1159 2956 
Q 1366 3272 1645 3428 
Q 1925 3584 2291 3584 
Q 2894 3584 3203 3211 
Q 3513 2838 3513 2113 
z
" transform="scale(0.015625)"/>
      </defs>
      <use xlink:href="#DejaVuSans-50"/>
      <use xlink:href="#DejaVuSans-65" x="56.677734"/>
      <use xlink:href="#DejaVuSans-6c" x="118.201172"/>
      <use xlink:href="#DejaVuSans-6c" x="145.984375"/>
      <use xlink:href="#DejaVuSans-65" x="173.767578"/>
      <use xlink:href="#DejaVuSans-74" x="235.291016"/>
      <use xlink:href="#DejaVuSans-5f" x="274.5"/>
      <use xlink:href="#DejaVuSans-43" x="324.5"/>
      <use xlink:href="#DejaVuSans-6f" x="394.324219"/>
      <use xlink:href="#DejaVuSans-75" x="455.505859"/>
      <use xlink:href="#DejaVuSans-6e" x="518.884766"/>
      <use xlink:href="#DejaVuSans-74" x="582.263672"/>
     </g>
    </g>
   </g>
   <g id="line2d_15">
    <path d="M 99.962273 344.397187 
L 104.272777 344.397187 
L 104.369166 343.909446 
L 106.28923 343.909446 
L 106.397185 343.421704 
L 107.947116 343.421704 
L 107.950971 342.933962 
L 108.799192 342.933962 
L 108.841603 342.44622 
L 109.689824 342.44622 
L 109.913446 341.958478 
L 111.328433 341.958478 
L 111.332288 341.470736 
L 113.861529 341.470736 
L 113.861529 341.470736 
L 113.97334 340.982994 
L 113.996473 340.982994 
L 114.127562 340.00751 
L 114.177684 340.00751 
L 114.177684 340.00751 
L 114.29335 339.032026 
L 116.359925 339.032026 
L 116.444747 338.056542 
L 116.518003 338.056542 
L 116.60668 337.081058 
L 116.683791 337.081058 
L 116.757047 336.593317 
L 117.053924 336.593317 
L 118.407222 336.105575 
L 121.746128 336.105575 
L 121.753839 335.617833 
L 122.104694 335.617833 
L 122.201083 334.642349 
L 122.285905 334.642349 
L 122.366871 333.666865 
L 122.42856 333.666865 
L 122.517238 332.691381 
L 122.578926 332.691381 
L 122.656037 332.203639 
L 127.436919 332.203639 
L 127.54873 331.715897 
L 131.172946 331.715897 
L 131.273191 331.228155 
L 133.312776 331.228155 
L 133.316632 330.740413 
L 135.070907 330.740413 
L 135.186573 329.764929 
L 135.255973 329.764929 
L 135.263684 329.277187 
L 135.425618 329.277187 
L 135.429473 328.789446 
L 135.552851 328.789446 
L 135.556706 328.301704 
L 135.683939 328.301704 
L 135.687795 327.813962 
L 137.924014 327.813962 
L 138.00498 326.838478 
L 138.070525 326.838478 
L 138.182335 325.862994 
L 138.271013 325.862994 
L 138.355835 324.88751 
L 138.452224 324.88751 
L 138.456079 324.399768 
L 141.771852 324.399768 
L 141.775708 323.912026 
L 141.906796 323.912026 
L 141.99933 322.936542 
L 142.064874 322.936542 
L 142.153552 321.961058 
L 142.230663 321.961058 
L 142.230663 321.961058 
L 142.334762 320.985575 
L 142.411873 320.985575 
L 142.415729 320.497833 
L 150.022728 320.497833 
L 150.07285 320.010091 
L 151.306626 320.010091 
L 151.410726 319.034607 
L 154.321666 319.034607 
L 154.344799 318.059123 
L 155.678819 318.059123 
L 155.68653 317.571381 
L 155.937141 317.571381 
L 155.956419 317.083639 
L 157.12465 317.083639 
L 157.132362 316.595897 
L 157.348272 316.595897 
L 157.36755 316.108155 
L 158.848081 316.108155 
L 158.855792 315.620413 
L 159.01387 315.620413 
L 159.021581 315.132671 
L 159.222069 315.132671 
L 159.22978 314.644929 
L 159.804257 314.644929 
L 159.804257 314.644929 
L 159.939202 313.181704 
L 165.078649 313.181704 
L 165.08636 312.693962 
L 166.713402 312.693962 
L 166.717258 312.20622 
L 167.715845 312.20622 
L 167.723556 311.718478 
L 167.924045 311.718478 
L 167.935611 311.230736 
L 168.120678 311.230736 
L 168.139956 310.742994 
L 168.263333 310.742994 
L 168.367433 309.76751 
L 168.425266 309.76751 
L 168.506233 308.792026 
L 168.598766 308.792026 
L 168.911065 307.816542 
L 172.142016 307.816542 
L 172.157438 307.3288 
L 181.07918 307.3288 
L 181.194846 306.841058 
L 181.206413 306.841058 
L 181.214124 306.353317 
L 181.453168 306.353317 
L 181.453168 306.353317 
L 181.564979 305.377833 
L 185.401251 305.377833 
L 185.408962 304.890091 
L 186.029705 304.890091 
L 186.029705 304.890091 
L 186.045128 304.402349 
L 186.426827 304.402349 
L 186.442249 303.914607 
L 187.39457 303.914607 
L 187.402281 303.426865 
L 191.95183 303.426865 
L 191.955685 302.939123 
L 193.012106 302.939123 
L 193.108494 301.963639 
L 193.613571 301.963639 
L 193.617427 301.475897 
L 194.137926 301.475897 
L 194.141782 300.988155 
L 194.27287 300.988155 
L 194.384681 300.012671 
L 194.41167 300.012671 
L 194.511914 299.037187 
L 194.646859 299.037187 
L 194.650714 298.549446 
L 214.098106 298.549446 
L 214.437395 298.061704 
L 214.622461 298.061704 
L 214.630172 297.573962 
L 217.097724 297.573962 
L 217.105435 297.08622 
L 217.298212 297.08622 
L 217.417734 296.110736 
L 217.52569 296.110736 
L 217.533401 295.622994 
L 228.575695 295.622994 
L 228.679795 294.64751 
L 231.90689 294.64751 
L 231.910745 294.159768 
L 233.298743 294.159768 
L 233.298743 294.159768 
L 233.314165 293.672026 
L 233.456821 293.672026 
L 233.464532 293.184284 
L 236.352338 293.184284 
L 236.356194 292.696542 
L 238.584701 292.696542 
L 238.677235 291.721058 
L 239.197734 291.721058 
L 239.205445 291.233317 
L 239.903299 291.233317 
L 239.911011 290.745575 
L 260.873633 290.745575 
L 260.981589 289.770091 
L 261.070266 289.770091 
L 261.185933 288.306865 
L 261.309311 288.306865 
L 261.421121 287.331381 
L 274.113591 287.331381 
L 274.225402 286.355897 
L 274.472157 286.355897 
L 274.476012 285.868155 
L 275.821599 285.868155 
L 275.833166 285.380413 
L 276.330532 285.380413 
L 276.446198 284.404929 
L 276.646687 284.404929 
L 276.650542 283.917187 
L 278.906039 283.917187 
L 278.906039 283.917187 
L 278.925316 283.429446 
L 281.084424 283.429446 
L 281.084424 283.429446 
L 281.099846 282.941704 
L 291.428864 282.941704 
L 291.432719 282.453962 
L 291.729597 282.453962 
L 291.745019 281.96622 
L 298.249331 281.96622 
L 298.257042 281.478478 
L 298.577053 281.478478 
L 298.584764 280.990736 
L 298.773686 280.990736 
L 298.87393 280.502994 
L 298.931763 280.502994 
L 298.931763 280.502994 
L 299.04743 279.52751 
L 308.640037 279.52751 
L 308.647748 279.039768 
L 308.848237 279.039768 
L 308.971614 278.552026 
L 308.998603 278.552026 
L 308.998603 278.552026 
L 309.014025 278.064284 
L 309.152825 278.064284 
L 309.164392 277.576542 
L 311.40061 277.576542 
L 311.40061 277.576542 
L 311.550977 277.0888 
L 322.813037 277.0888 
L 322.828459 276.601058 
L 323.052081 276.601058 
L 323.055937 276.113317 
L 323.179314 276.113317 
L 323.298836 275.137833 
L 323.437636 275.137833 
L 323.499325 274.162349 
L 323.588003 274.162349 
L 323.591858 273.674607 
L 323.749936 273.674607 
L 323.85018 272.699123 
L 330.666791 272.699123 
L 330.686069 272.211381 
L 336.631327 272.211381 
L 336.639038 271.723639 
L 336.754704 271.723639 
L 336.75856 271.235897 
L 343.933738 271.235897 
L 344.033982 270.748155 
L 344.064826 270.748155 
L 344.068682 270.260413 
L 344.203626 270.260413 
L 344.273026 269.284929 
L 344.434959 269.284929 
L 344.44267 268.797187 
L 358.781459 268.797187 
L 358.904836 267.821704 
L 359.035925 267.821704 
L 359.136169 266.84622 
L 359.224847 266.84622 
L 359.325091 265.870736 
L 359.498591 265.870736 
L 359.506302 265.382994 
L 370.972707 265.382994 
L 370.980418 264.895252 
L 371.146206 264.895252 
L 371.277295 263.919768 
L 371.358262 263.919768 
L 371.362117 263.432026 
L 371.516339 263.432026 
L 371.520195 262.944284 
L 387.582414 262.944284 
L 387.590125 262.456542 
L 387.705792 262.456542 
L 387.821458 261.9688 
L 387.848447 261.9688 
L 387.852303 261.481058 
L 387.971825 261.481058 
L 387.97568 260.993317 
L 388.091347 260.993317 
L 388.095202 260.505575 
L 403.047023 260.505575 
L 403.09329 259.530091 
L 403.181968 259.530091 
L 403.189679 259.042349 
L 410.002435 259.042349 
L 410.114246 258.066865 
L 410.17979 258.066865 
L 410.276179 257.579123 
L 411.910932 257.579123 
L 411.914787 257.091381 
L 413.295074 257.091381 
L 413.406885 256.115897 
L 417.682689 256.115897 
L 417.755945 255.140413 
L 417.856189 255.140413 
L 417.860045 254.652671 
L 417.975711 254.652671 
L 418.052822 253.677187 
L 418.133789 253.677187 
L 418.226322 252.701704 
L 418.295722 252.701704 
L 418.303433 252.213962 
L 423.543125 252.213962 
L 423.554691 251.72622 
L 424.221701 251.72622 
L 424.306524 250.750736 
L 428.898483 250.750736 
L 428.97945 249.775252 
L 429.041138 249.775252 
L 429.114394 248.799768 
L 429.183794 248.799768 
L 429.260905 247.824284 
L 429.330305 247.824284 
L 429.338016 247.336542 
L 434.658674 247.336542 
L 434.770485 246.8488 
L 434.793618 246.8488 
L 434.797474 246.361058 
L 435.044229 246.361058 
L 435.055796 245.873317 
L 438.252046 245.873317 
L 438.259757 245.385575 
L 438.853512 245.385575 
L 438.865079 244.897833 
L 438.996167 244.897833 
L 439.000023 244.410091 
L 441.930241 244.410091 
L 441.941807 243.922349 
L 443.298961 243.922349 
L 443.403061 242.946865 
L 443.54186 242.946865 
L 443.64596 241.971381 
L 443.71536 241.971381 
L 443.842593 240.508155 
L 443.92356 240.508155 
L 444.004526 239.532671 
L 444.077782 239.532671 
L 444.089348 239.044929 
L 452.297813 239.044929 
L 452.305524 238.557187 
L 453.292545 238.557187 
L 453.296401 238.069446 
L 453.477611 238.069446 
L 453.481467 237.581704 
L 453.724367 237.581704 
L 453.732078 237.093962 
L 457.726427 237.093962 
L 457.795827 236.118478 
L 457.876794 236.118478 
L 457.884505 235.630736 
L 458.844536 235.630736 
L 458.956347 234.655252 
L 461.022922 234.655252 
L 461.1116 234.16751 
L 461.246544 234.16751 
L 461.389199 232.704284 
L 461.389199 232.704284 
L 461.470166 231.7288 
L 461.543421 231.7288 
L 461.551132 231.241058 
L 464.581594 231.241058 
L 464.589305 230.753317 
L 467.731578 230.753317 
L 467.739289 230.265575 
L 468.606788 230.265575 
L 468.610643 229.777833 
L 468.818843 229.777833 
L 468.919087 228.802349 
L 468.980776 228.802349 
L 469.054032 227.826865 
L 469.146565 227.826865 
L 469.15042 227.339123 
L 474.559756 227.339123 
L 474.629156 226.363639 
L 474.698556 226.363639 
L 474.775667 225.388155 
L 474.8682 225.388155 
L 474.956878 224.900413 
L 480.077048 224.900413 
L 480.104037 224.412671 
L 480.26597 223.924929 
L 480.478025 223.924929 
L 480.578269 222.949446 
L 480.643814 222.949446 
L 480.740202 221.973962 
L 486.500393 221.973962 
L 486.612204 220.998478 
L 486.68546 220.998478 
L 486.781849 220.022994 
L 486.851248 220.022994 
L 486.959204 219.04751 
L 487.051737 219.04751 
L 487.132704 218.072026 
L 487.240659 218.072026 
L 487.244515 217.584284 
L 491.015242 217.584284 
L 491.022953 217.096542 
L 492.665417 217.096542 
L 492.773373 216.6088 
L 495.665035 216.6088 
L 495.80769 216.121058 
L 497.427021 216.121058 
L 497.430876 215.633317 
L 510.906022 215.633317 
L 510.990844 214.657833 
L 511.052533 214.657833 
L 511.137355 213.682349 
L 511.226033 213.682349 
L 511.306999 212.706865 
L 511.391821 212.706865 
L 511.476643 211.731381 
L 511.561466 211.731381 
L 511.573032 211.243639 
L 518.71351 211.243639 
L 518.794477 210.268155 
L 522.198927 210.268155 
L 522.314593 209.780413 
L 522.333871 209.780413 
L 522.333871 209.780413 
L 522.461104 208.317187 
L 522.584482 208.317187 
L 522.692437 207.829446 
L 522.723282 207.829446 
L 522.81967 206.853962 
L 524.439001 206.853962 
L 524.442857 206.36622 
L 524.562379 206.36622 
L 524.57009 205.878478 
L 531.005002 205.878478 
L 531.012713 205.390736 
L 540.555198 205.390736 
L 540.663154 204.415252 
L 540.686287 204.415252 
L 540.771109 203.439768 
L 540.852076 203.439768 
L 540.948464 202.464284 
L 541.033286 202.464284 
L 541.145097 201.4888 
L 541.233775 201.4888 
L 541.334019 200.513317 
L 541.434264 200.513317 
L 541.526797 199.537833 
L 541.627041 199.537833 
L 541.630897 199.050091 
L 545.559702 199.050091 
L 545.65609 198.074607 
L 548.578597 198.074607 
L 549.295729 197.586865 
L 550.77626 197.586865 
L 550.783971 197.099123 
L 551.084704 197.099123 
L 551.08856 196.611381 
L 551.200371 196.611381 
L 551.285193 195.635897 
L 551.350737 195.635897 
L 551.439415 194.660413 
L 553.914677 194.660413 
L 553.922389 194.172671 
L 554.31951 194.172671 
L 554.323366 193.684929 
L 556.675251 193.684929 
L 556.783206 193.197187 
L 556.790917 193.197187 
L 556.883451 192.221704 
L 556.972128 192.221704 
L 556.975984 191.733962 
L 562.196398 191.733962 
L 563.117874 191.24622 
L 563.831151 191.24622 
L 563.904406 190.270736 
L 563.958384 190.270736 
L 564.039351 189.295252 
L 569.371576 189.295252 
L 569.375431 188.80751 
L 569.753275 188.80751 
L 569.757131 188.319768 
L 582.492011 188.319768 
L 582.576833 187.344284 
L 582.653944 187.344284 
L 582.73491 186.3688 
L 582.823588 186.3688 
L 582.935399 185.881058 
L 582.950821 185.881058 
L 583.054921 184.905575 
L 601.657948 184.905575 
L 601.719636 184.417833 
L 601.881569 184.417833 
L 601.95868 183.442349 
L 602.020369 183.442349 
L 602.124469 182.466865 
L 602.209291 182.466865 
L 602.274835 181.491381 
L 602.398213 181.491381 
L 602.463757 180.515897 
L 602.533157 180.515897 
L 602.625691 179.540413 
L 602.718224 179.540413 
L 602.725935 179.052671 
L 632.737533 179.052671 
L 632.741388 178.564929 
L 632.93031 178.564929 
L 633.030554 177.589446 
L 633.111521 177.589446 
L 633.215621 176.613962 
L 633.385265 176.613962 
L 633.38912 176.12622 
L 637.715047 176.12622 
L 637.722758 175.638478 
L 648.074909 175.638478 
L 648.090331 175.150736 
L 648.236842 175.150736 
L 648.340942 174.175252 
L 648.468175 174.175252 
L 648.57613 173.68751 
L 659.20588 173.68751 
L 659.321547 172.712026 
L 659.421791 172.712026 
L 659.533602 172.224284 
L 659.556735 172.224284 
L 659.668546 171.736542 
L 659.772646 171.2488 
L 682.504966 171.2488 
L 682.558944 170.273317 
L 682.740155 170.273317 
L 682.859677 169.297833 
L 682.979199 169.297833 
L 682.983054 168.810091 
L 683.121854 168.810091 
L 683.225954 167.834607 
L 683.299209 167.834607 
L 683.422587 166.859123 
L 706.791073 166.859123 
L 706.887462 165.883639 
L 707.003128 165.883639 
L 707.111083 165.395897 
L 707.134217 165.395897 
L 707.242172 164.420413 
L 717.039124 164.420413 
L 717.042979 163.932671 
L 717.177923 163.932671 
L 717.181779 163.444929 
L 717.29359 163.444929 
L 717.297445 162.957187 
L 717.428534 162.957187 
L 717.528778 161.981704 
L 717.663723 161.981704 
L 717.779389 161.493962 
L 717.825656 161.493962 
L 717.9259 160.518478 
L 732.727355 160.518478 
L 732.843021 160.030736 
L 732.862299 160.030736 
L 732.950977 159.055252 
L 733.020376 159.055252 
L 733.124476 158.079768 
L 735.611306 158.079768 
L 735.703839 157.104284 
L 741.656807 157.104284 
L 741.660663 156.616542 
L 743.67326 156.616542 
L 743.677115 156.1288 
L 745.14608 156.1288 
L 745.149935 155.641058 
L 752.124625 155.641058 
L 752.19788 154.665575 
L 752.244147 154.665575 
L 752.309691 153.690091 
L 752.37138 153.690091 
L 752.44078 152.714607 
L 752.529457 152.714607 
L 752.625846 151.739123 
L 759.619813 151.739123 
L 759.627524 151.251381 
L 760.290678 151.251381 
L 760.390923 150.275897 
L 763.409818 150.275897 
L 763.537051 148.812671 
L 763.606451 148.812671 
L 763.664284 147.837187 
L 766.220514 147.837187 
L 766.228225 147.349446 
L 766.875957 147.349446 
L 766.879813 146.861704 
L 771.120917 146.861704 
L 771.340684 146.373962 
L 774.590912 146.373962 
L 774.594767 145.88622 
L 776.295065 145.88622 
L 776.302776 145.398478 
L 776.449287 145.398478 
L 776.530253 144.910736 
L 785.371028 144.910736 
L 785.552239 142.959768 
L 785.62935 142.959768 
L 785.687183 141.984284 
L 789.022234 141.984284 
L 789.026089 141.496542 
L 790.425654 141.496542 
L 790.533609 140.521058 
L 791.994862 140.521058 
L 792.021851 140.033317 
L 792.796817 140.033317 
L 792.88935 139.545575 
L 793.864804 139.545575 
L 794.007459 138.082349 
L 798.53773 138.082349 
L 798.757496 137.106865 
L 798.776774 137.106865 
L 798.892441 136.131381 
L 798.965696 136.131381 
L 799.058229 135.155897 
L 799.119918 135.155897 
L 799.20474 134.180413 
L 799.27414 134.180413 
L 799.277996 133.692671 
L 800.546471 133.692671 
L 800.681416 133.204929 
L 802.825101 133.204929 
L 802.828957 132.717187 
L 802.940768 132.717187 
L 803.033301 131.741704 
L 803.110412 131.741704 
L 803.199089 130.76622 
L 803.283912 130.76622 
L 803.349456 129.790736 
L 803.441989 129.790736 
L 803.4497 129.302994 
L 803.970199 129.302994 
L 806.00593 128.815252 
L 807.55586 128.815252 
L 807.818038 128.32751 
L 809.398813 128.32751 
L 809.402669 127.839768 
L 809.541469 127.839768 
L 809.545324 127.352026 
L 809.664846 127.352026 
L 809.668702 126.864284 
L 814.453439 126.864284 
L 814.472716 126.376542 
L 817.125334 126.376542 
L 817.133046 125.8888 
L 817.368234 125.8888 
L 817.37209 125.401058 
L 817.5533 125.401058 
L 817.6574 124.913317 
L 817.9003 124.913317 
L 817.908011 124.425575 
L 819.963019 124.425575 
L 819.966875 123.937833 
L 821.092695 123.937833 
L 821.104262 123.450091 
L 821.536083 123.450091 
L 821.65175 122.474607 
L 821.732716 122.474607 
L 821.732716 122.474607 
L 821.863805 121.011381 
L 821.952483 121.011381 
L 822.037305 120.035897 
L 822.168393 120.035897 
L 822.245504 119.060413 
L 822.322615 119.060413 
L 822.392015 118.084929 
L 822.472982 118.084929 
L 822.56937 117.109446 
L 827.408085 117.109446 
L 827.411941 116.621704 
L 827.554596 116.621704 
L 827.558452 116.133962 
L 828.42595 116.133962 
L 828.429806 115.64622 
L 828.753672 115.64622 
L 828.850061 114.670736 
L 828.934883 114.670736 
L 829.038983 113.20751 
L 829.096816 113.20751 
L 829.200916 112.719768 
L 829.224049 112.719768 
L 829.30116 111.744284 
L 829.358993 111.744284 
L 829.443815 110.7688 
L 829.520926 110.7688 
L 829.520926 110.7688 
L 829.636593 109.793317 
L 849.014585 109.793317 
L 849.08784 108.817833 
L 849.15724 108.817833 
L 849.292184 107.354607 
L 858.66117 107.354607 
L 858.738281 106.379123 
L 858.811536 106.379123 
L 858.896358 105.403639 
L 859.073714 105.403639 
L 859.197091 103.940413 
L 863.96255 103.940413 
L 863.966406 103.452671 
L 864.143761 103.452671 
L 864.217017 102.477187 
L 864.286417 102.477187 
L 864.355817 101.501704 
L 864.436783 101.501704 
L 864.436783 101.501704 
L 864.537027 100.52622 
L 864.641127 100.52622 
L 864.725949 100.038478 
L 868.010878 100.038478 
L 868.014733 99.550736 
L 868.1304 99.550736 
L 868.246066 98.575252 
L 868.319321 98.575252 
L 868.392577 97.599768 
L 868.492821 97.599768 
L 868.581499 96.624284 
L 868.650899 96.624284 
L 868.662465 96.136542 
L 877.950484 96.136542 
L 878.050729 95.161058 
L 878.12784 95.161058 
L 878.212662 94.185575 
L 878.293628 94.185575 
L 878.390017 93.210091 
L 878.474839 93.210091 
L 878.478695 92.722349 
L 878.602072 92.722349 
L 878.683039 91.746865 
L 878.775572 91.746865 
L 878.775572 91.746865 
L 878.787139 91.259123 
L 884.416241 91.259123 
L 884.497207 90.283639 
L 884.612874 90.283639 
L 884.817218 88.820413 
L 884.990718 88.820413 
L 884.994573 88.332671 
L 914.643749 88.332671 
L 914.759416 87.357187 
L 914.778694 87.357187 
L 914.882793 85.893962 
L 915.222082 85.893962 
L 915.306904 84.918478 
L 915.372448 84.918478 
L 915.480404 83.942994 
L 915.576792 83.942994 
L 915.642337 82.96751 
L 915.738725 82.96751 
L 915.742581 82.479768 
L 971.289483 82.479768 
L 971.713594 80.5288 
L 971.779138 79.553317 
L 971.852394 79.553317 
L 971.856249 79.065575 
L 992.826583 79.065575 
L 992.949961 78.090091 
L 992.969239 78.090091 
L 993.061772 77.114607 
L 993.123461 77.114607 
L 993.219849 76.626865 
L 993.327805 76.626865 
L 993.327805 76.626865 
L 993.485882 76.139123 
L 1004.994698 76.139123 
L 1005.002409 75.651381 
L 1007.454538 75.651381 
L 1007.570205 75.163639 
L 1007.60876 75.163639 
L 1007.697438 74.675897 
L 1013.577151 74.675897 
L 1013.681251 73.700413 
L 1013.796917 73.700413 
L 1013.877884 72.724929 
L 1013.954995 72.724929 
L 1013.962706 72.237187 
L 1025.294166 72.237187 
L 1025.39441 71.261704 
L 1025.459955 71.261704 
L 1025.560199 70.773962 
L 1025.594899 70.773962 
L 1025.691288 69.798478 
L 1025.864787 69.798478 
L 1025.961176 68.822994 
L 1026.045998 68.822994 
L 1026.126965 67.84751 
L 1026.207931 67.84751 
L 1026.285042 66.872026 
L 1026.385287 66.872026 
L 1026.389142 66.384284 
L 1050.948993 66.384284 
L 1051.029959 65.4088 
L 1051.095504 65.4088 
L 1051.21117 64.921058 
L 1051.226592 64.921058 
L 1051.234304 64.433317 
L 1064.755716 64.433317 
L 1064.844393 63.945575 
L 1064.987049 63.945575 
L 1066.660357 63.457833 
L 1066.776024 62.970091 
L 1066.783735 62.970091 
L 1066.864701 61.994607 
L 1066.941812 61.994607 
L 1067.03049 61.019123 
L 1084.658063 61.019123 
L 1084.754451 59.555897 
L 1084.835418 59.555897 
L 1084.889396 58.580413 
L 1084.95494 58.580413 
L 1085.039762 57.604929 
L 1085.109162 57.604929 
L 1085.201695 57.117187 
L 1094.262237 57.117187 
L 1094.308503 56.141704 
L 1094.397181 56.141704 
L 1094.512847 54.678478 
L 1094.574536 54.678478 
L 1094.64008 53.702994 
L 1094.701769 53.702994 
L 1094.77888 52.72751 
L 1100.916915 52.72751 
L 1101.040293 51.752026 
L 1101.105837 51.752026 
L 1101.179092 50.776542 
L 1101.236926 50.776542 
L 1101.306326 49.801058 
L 1101.364159 49.801058 
L 1101.44127 48.825575 
L 1103.2341 48.825575 
L 1103.241811 48.337833 
L 1113.636373 48.337833 
L 1113.698062 47.362349 
L 1113.78674 47.362349 
L 1113.867706 46.386865 
L 1113.925539 46.386865 
L 1113.991084 45.411381 
L 1114.056628 45.411381 
L 1114.118317 44.435897 
L 1114.183861 44.435897 
L 1114.276394 43.460413 
L 1114.338083 43.460413 
L 1114.430616 42.484929 
L 1114.503872 42.484929 
L 1114.507727 41.997187 
L 1114.507727 41.997187 
" clip-path="url(#peb380d70cf)" style="fill: none; stroke: #0000ff; stroke-width: 1.5; stroke-linecap: square"/>
   </g>
   <g id="patch_96">
    <path d="M 49.235 359.517187 
L 49.235 26.877187 
" style="fill: none; stroke: #000000; stroke-width: 0.8; stroke-linejoin: miter; stroke-linecap: square"/>
   </g>
   <g id="patch_97">
    <path d="M 1165.235 359.517187 
L 1165.235 26.877187 
" style="fill: none; stroke: #000000; stroke-width: 0.8; stroke-linejoin: miter; stroke-linecap: square"/>
   </g>
   <g id="patch_98">
    <path d="M 49.235 359.517187 
L 1165.235 359.517187 
" style="fill: none; stroke: #000000; stroke-width: 0.8; stroke-linejoin: miter; stroke-linecap: square"/>
   </g>
   <g id="patch_99">
    <path d="M 49.235 26.877187 
L 1165.235 26.877187 
" style="fill: none; stroke: #000000; stroke-width: 0.8; stroke-linejoin: miter; stroke-linecap: square"/>
   </g>
   <g id="text_17">
    <!-- Pellet Count and Cumulative Sum Over Time of Group 8 Mouse 3 -->
    <g transform="translate(315.460625 20.877187) scale(0.18 -0.18)">
     <defs>
      <path id="DejaVuSans-61" d="M 2194 1759 
Q 1497 1759 1228 1600 
Q 959 1441 959 1056 
Q 959 750 1161 570 
Q 1363 391 1709 391 
Q 2188 391 2477 730 
Q 2766 1069 2766 1631 
L 2766 1759 
L 2194 1759 
z
M 3341 1997 
L 3341 0 
L 2766 0 
L 2766 531 
Q 2569 213 2275 61 
Q 1981 -91 1556 -91 
Q 1019 -91 701 211 
Q 384 513 384 1019 
Q 384 1609 779 1909 
Q 1175 2209 1959 2209 
L 2766 2209 
L 2766 2266 
Q 2766 2663 2505 2880 
Q 2244 3097 1772 3097 
Q 1472 3097 1187 3025 
Q 903 2953 641 2809 
L 641 3341 
Q 956 3463 1253 3523 
Q 1550 3584 1831 3584 
Q 2591 3584 2966 3190 
Q 3341 2797 3341 1997 
z
" transform="scale(0.015625)"/>
      <path id="DejaVuSans-64" d="M 2906 2969 
L 2906 4863 
L 3481 4863 
L 3481 0 
L 2906 0 
L 2906 525 
Q 2725 213 2448 61 
Q 2172 -91 1784 -91 
Q 1150 -91 751 415 
Q 353 922 353 1747 
Q 353 2572 751 3078 
Q 1150 3584 1784 3584 
Q 2172 3584 2448 3432 
Q 2725 3281 2906 2969 
z
M 947 1747 
Q 947 1113 1208 752 
Q 1469 391 1925 391 
Q 2381 391 2643 752 
Q 2906 1113 2906 1747 
Q 2906 2381 2643 2742 
Q 2381 3103 1925 3103 
Q 1469 3103 1208 2742 
Q 947 2381 947 1747 
z
" transform="scale(0.015625)"/>
      <path id="DejaVuSans-76" d="M 191 3500 
L 800 3500 
L 1894 563 
L 2988 3500 
L 3597 3500 
L 2284 0 
L 1503 0 
L 191 3500 
z
" transform="scale(0.015625)"/>
      <path id="DejaVuSans-53" d="M 3425 4513 
L 3425 3897 
Q 3066 4069 2747 4153 
Q 2428 4238 2131 4238 
Q 1616 4238 1336 4038 
Q 1056 3838 1056 3469 
Q 1056 3159 1242 3001 
Q 1428 2844 1947 2747 
L 2328 2669 
Q 3034 2534 3370 2195 
Q 3706 1856 3706 1288 
Q 3706 609 3251 259 
Q 2797 -91 1919 -91 
Q 1588 -91 1214 -16 
Q 841 59 441 206 
L 441 856 
Q 825 641 1194 531 
Q 1563 422 1919 422 
Q 2459 422 2753 634 
Q 3047 847 3047 1241 
Q 3047 1584 2836 1778 
Q 2625 1972 2144 2069 
L 1759 2144 
Q 1053 2284 737 2584 
Q 422 2884 422 3419 
Q 422 4038 858 4394 
Q 1294 4750 2059 4750 
Q 2388 4750 2728 4690 
Q 3069 4631 3425 4513 
z
" transform="scale(0.015625)"/>
      <path id="DejaVuSans-4f" d="M 2522 4238 
Q 1834 4238 1429 3725 
Q 1025 3213 1025 2328 
Q 1025 1447 1429 934 
Q 1834 422 2522 422 
Q 3209 422 3611 934 
Q 4013 1447 4013 2328 
Q 4013 3213 3611 3725 
Q 3209 4238 2522 4238 
z
M 2522 4750 
Q 3503 4750 4090 4092 
Q 4678 3434 4678 2328 
Q 4678 1225 4090 567 
Q 3503 -91 2522 -91 
Q 1538 -91 948 565 
Q 359 1222 359 2328 
Q 359 3434 948 4092 
Q 1538 4750 2522 4750 
z
" transform="scale(0.015625)"/>
      <path id="DejaVuSans-72" d="M 2631 2963 
Q 2534 3019 2420 3045 
Q 2306 3072 2169 3072 
Q 1681 3072 1420 2755 
Q 1159 2438 1159 1844 
L 1159 0 
L 581 0 
L 581 3500 
L 1159 3500 
L 1159 2956 
Q 1341 3275 1631 3429 
Q 1922 3584 2338 3584 
Q 2397 3584 2469 3576 
Q 2541 3569 2628 3553 
L 2631 2963 
z
" transform="scale(0.015625)"/>
      <path id="DejaVuSans-66" d="M 2375 4863 
L 2375 4384 
L 1825 4384 
Q 1516 4384 1395 4259 
Q 1275 4134 1275 3809 
L 1275 3500 
L 2222 3500 
L 2222 3053 
L 1275 3053 
L 1275 0 
L 697 0 
L 697 3053 
L 147 3053 
L 147 3500 
L 697 3500 
L 697 3744 
Q 697 4328 969 4595 
Q 1241 4863 1831 4863 
L 2375 4863 
z
" transform="scale(0.015625)"/>
      <path id="DejaVuSans-47" d="M 3809 666 
L 3809 1919 
L 2778 1919 
L 2778 2438 
L 4434 2438 
L 4434 434 
Q 4069 175 3628 42 
Q 3188 -91 2688 -91 
Q 1594 -91 976 548 
Q 359 1188 359 2328 
Q 359 3472 976 4111 
Q 1594 4750 2688 4750 
Q 3144 4750 3555 4637 
Q 3966 4525 4313 4306 
L 4313 3634 
Q 3963 3931 3569 4081 
Q 3175 4231 2741 4231 
Q 1884 4231 1454 3753 
Q 1025 3275 1025 2328 
Q 1025 1384 1454 906 
Q 1884 428 2741 428 
Q 3075 428 3337 486 
Q 3600 544 3809 666 
z
" transform="scale(0.015625)"/>
      <path id="DejaVuSans-70" d="M 1159 525 
L 1159 -1331 
L 581 -1331 
L 581 3500 
L 1159 3500 
L 1159 2969 
Q 1341 3281 1617 3432 
Q 1894 3584 2278 3584 
Q 2916 3584 3314 3078 
Q 3713 2572 3713 1747 
Q 3713 922 3314 415 
Q 2916 -91 2278 -91 
Q 1894 -91 1617 61 
Q 1341 213 1159 525 
z
M 3116 1747 
Q 3116 2381 2855 2742 
Q 2594 3103 2138 3103 
Q 1681 3103 1420 2742 
Q 1159 2381 1159 1747 
Q 1159 1113 1420 752 
Q 1681 391 2138 391 
Q 2594 391 2855 752 
Q 3116 1113 3116 1747 
z
" transform="scale(0.015625)"/>
      <path id="DejaVuSans-4d" d="M 628 4666 
L 1569 4666 
L 2759 1491 
L 3956 4666 
L 4897 4666 
L 4897 0 
L 4281 0 
L 4281 4097 
L 3078 897 
L 2444 897 
L 1241 4097 
L 1241 0 
L 628 0 
L 628 4666 
z
" transform="scale(0.015625)"/>
      <path id="DejaVuSans-73" d="M 2834 3397 
L 2834 2853 
Q 2591 2978 2328 3040 
Q 2066 3103 1784 3103 
Q 1356 3103 1142 2972 
Q 928 2841 928 2578 
Q 928 2378 1081 2264 
Q 1234 2150 1697 2047 
L 1894 2003 
Q 2506 1872 2764 1633 
Q 3022 1394 3022 966 
Q 3022 478 2636 193 
Q 2250 -91 1575 -91 
Q 1294 -91 989 -36 
Q 684 19 347 128 
L 347 722 
Q 666 556 975 473 
Q 1284 391 1588 391 
Q 1994 391 2212 530 
Q 2431 669 2431 922 
Q 2431 1156 2273 1281 
Q 2116 1406 1581 1522 
L 1381 1569 
Q 847 1681 609 1914 
Q 372 2147 372 2553 
Q 372 3047 722 3315 
Q 1072 3584 1716 3584 
Q 2034 3584 2315 3537 
Q 2597 3491 2834 3397 
z
" transform="scale(0.015625)"/>
     </defs>
     <use xlink:href="#DejaVuSans-50"/>
     <use xlink:href="#DejaVuSans-65" x="56.677734"/>
     <use xlink:href="#DejaVuSans-6c" x="118.201172"/>
     <use xlink:href="#DejaVuSans-6c" x="145.984375"/>
     <use xlink:href="#DejaVuSans-65" x="173.767578"/>
     <use xlink:href="#DejaVuSans-74" x="235.291016"/>
     <use xlink:href="#DejaVuSans-20" x="274.5"/>
     <use xlink:href="#DejaVuSans-43" x="306.287109"/>
     <use xlink:href="#DejaVuSans-6f" x="376.111328"/>
     <use xlink:href="#DejaVuSans-75" x="437.292969"/>
     <use xlink:href="#DejaVuSans-6e" x="500.671875"/>
     <use xlink:href="#DejaVuSans-74" x="564.050781"/>
     <use xlink:href="#DejaVuSans-20" x="603.259766"/>
     <use xlink:href="#DejaVuSans-61" x="635.046875"/>
     <use xlink:href="#DejaVuSans-6e" x="696.326172"/>
     <use xlink:href="#DejaVuSans-64" x="759.705078"/>
     <use xlink:href="#DejaVuSans-20" x="823.181641"/>
     <use xlink:href="#DejaVuSans-43" x="854.96875"/>
     <use xlink:href="#DejaVuSans-75" x="924.792969"/>
     <use xlink:href="#DejaVuSans-6d" x="988.171875"/>
     <use xlink:href="#DejaVuSans-75" x="1085.583984"/>
     <use xlink:href="#DejaVuSans-6c" x="1148.962891"/>
     <use xlink:href="#DejaVuSans-61" x="1176.746094"/>
     <use xlink:href="#DejaVuSans-74" x="1238.025391"/>
     <use xlink:href="#DejaVuSans-69" x="1277.234375"/>
     <use xlink:href="#DejaVuSans-76" x="1305.017578"/>
     <use xlink:href="#DejaVuSans-65" x="1364.197266"/>
     <use xlink:href="#DejaVuSans-20" x="1425.720703"/>
     <use xlink:href="#DejaVuSans-53" x="1457.507812"/>
     <use xlink:href="#DejaVuSans-75" x="1520.984375"/>
     <use xlink:href="#DejaVuSans-6d" x="1584.363281"/>
     <use xlink:href="#DejaVuSans-20" x="1681.775391"/>
     <use xlink:href="#DejaVuSans-4f" x="1713.5625"/>
     <use xlink:href="#DejaVuSans-76" x="1792.273438"/>
     <use xlink:href="#DejaVuSans-65" x="1851.453125"/>
     <use xlink:href="#DejaVuSans-72" x="1912.976562"/>
     <use xlink:href="#DejaVuSans-20" x="1954.089844"/>
     <use xlink:href="#DejaVuSans-54" x="1985.876953"/>
     <use xlink:href="#DejaVuSans-69" x="2043.835938"/>
     <use xlink:href="#DejaVuSans-6d" x="2071.619141"/>
     <use xlink:href="#DejaVuSans-65" x="2169.03125"/>
     <use xlink:href="#DejaVuSans-20" x="2230.554688"/>
     <use xlink:href="#DejaVuSans-6f" x="2262.341797"/>
     <use xlink:href="#DejaVuSans-66" x="2323.523438"/>
     <use xlink:href="#DejaVuSans-20" x="2358.728516"/>
     <use xlink:href="#DejaVuSans-47" x="2390.515625"/>
     <use xlink:href="#DejaVuSans-72" x="2468.005859"/>
     <use xlink:href="#DejaVuSans-6f" x="2506.869141"/>
     <use xlink:href="#DejaVuSans-75" x="2568.050781"/>
     <use xlink:href="#DejaVuSans-70" x="2631.429688"/>
     <use xlink:href="#DejaVuSans-20" x="2694.90625"/>
     <use xlink:href="#DejaVuSans-38" x="2726.693359"/>
     <use xlink:href="#DejaVuSans-20" x="2790.316406"/>
     <use xlink:href="#DejaVuSans-4d" x="2822.103516"/>
     <use xlink:href="#DejaVuSans-6f" x="2908.382812"/>
     <use xlink:href="#DejaVuSans-75" x="2969.564453"/>
     <use xlink:href="#DejaVuSans-73" x="3032.943359"/>
     <use xlink:href="#DejaVuSans-65" x="3085.042969"/>
     <use xlink:href="#DejaVuSans-20" x="3146.566406"/>
     <use xlink:href="#DejaVuSans-33" x="3178.353516"/>
    </g>
   </g>
   <g id="legend_1">
    <g id="patch_100">
     <path d="M 1086.550625 64.233437 
L 1158.235 64.233437 
Q 1160.235 64.233437 1160.235 62.233437 
L 1160.235 33.877187 
Q 1160.235 31.877187 1158.235 31.877187 
L 1086.550625 31.877187 
Q 1084.550625 31.877187 1084.550625 33.877187 
L 1084.550625 62.233437 
Q 1084.550625 64.233437 1086.550625 64.233437 
z
" style="fill: #ffffff; opacity: 0.8; stroke: #cccccc; stroke-linejoin: miter"/>
    </g>
    <g id="patch_101">
     <path d="M 1088.550625 43.475625 
L 1108.550625 43.475625 
L 1108.550625 36.475625 
L 1088.550625 36.475625 
z
" style="fill: #add8e6; opacity: 0.9; stroke: #add8e6; stroke-linejoin: miter"/>
    </g>
    <g id="text_18">
     <!-- Meal -->
     <g transform="translate(1116.550625 43.475625) scale(0.1 -0.1)">
      <use xlink:href="#DejaVuSans-4d"/>
      <use xlink:href="#DejaVuSans-65" x="86.279297"/>
      <use xlink:href="#DejaVuSans-61" x="147.802734"/>
      <use xlink:href="#DejaVuSans-6c" x="209.082031"/>
     </g>
    </g>
    <g id="patch_102">
     <path d="M 1088.550625 58.15375 
L 1108.550625 58.15375 
L 1108.550625 51.15375 
L 1088.550625 51.15375 
z
" style="fill: #808080; opacity: 0.5; stroke: #808080; stroke-linejoin: miter"/>
    </g>
    <g id="text_19">
     <!-- Inactive -->
     <g transform="translate(1116.550625 58.15375) scale(0.1 -0.1)">
      <defs>
       <path id="DejaVuSans-49" d="M 628 4666 
L 1259 4666 
L 1259 0 
L 628 0 
L 628 4666 
z
" transform="scale(0.015625)"/>
       <path id="DejaVuSans-63" d="M 3122 3366 
L 3122 2828 
Q 2878 2963 2633 3030 
Q 2388 3097 2138 3097 
Q 1578 3097 1268 2742 
Q 959 2388 959 1747 
Q 959 1106 1268 751 
Q 1578 397 2138 397 
Q 2388 397 2633 464 
Q 2878 531 3122 666 
L 3122 134 
Q 2881 22 2623 -34 
Q 2366 -91 2075 -91 
Q 1284 -91 818 406 
Q 353 903 353 1747 
Q 353 2603 823 3093 
Q 1294 3584 2113 3584 
Q 2378 3584 2631 3529 
Q 2884 3475 3122 3366 
z
" transform="scale(0.015625)"/>
      </defs>
      <use xlink:href="#DejaVuSans-49"/>
      <use xlink:href="#DejaVuSans-6e" x="29.492188"/>
      <use xlink:href="#DejaVuSans-61" x="92.871094"/>
      <use xlink:href="#DejaVuSans-63" x="154.150391"/>
      <use xlink:href="#DejaVuSans-74" x="209.130859"/>
      <use xlink:href="#DejaVuSans-69" x="248.339844"/>
      <use xlink:href="#DejaVuSans-76" x="276.123047"/>
      <use xlink:href="#DejaVuSans-65" x="335.302734"/>
     </g>
    </g>
   </g>
  </g>
 </g>
 <defs>
  <clipPath id="peb380d70cf">
   <rect x="49.235" y="26.877187" width="1116" height="332.64"/>
  </clipPath>
 </defs>
</svg>
