<?xml version="1.0" encoding="utf-8" standalone="no"?>
<!DOCTYPE svg PUBLIC "-//W3C//DTD SVG 1.1//EN"
  "http://www.w3.org/Graphics/SVG/1.1/DTD/svg11.dtd">
<svg xmlns:xlink="http://www.w3.org/1999/xlink" width="1172.435pt" height="399.009062pt" viewBox="0 0 1172.435 399.009062" xmlns="http://www.w3.org/2000/svg" version="1.1">
 <metadata>
  <rdf:RDF xmlns:dc="http://purl.org/dc/elements/1.1/" xmlns:cc="http://creativecommons.org/ns#" xmlns:rdf="http://www.w3.org/1999/02/22-rdf-syntax-ns#">
   <cc:Work>
    <dc:type rdf:resource="http://purl.org/dc/dcmitype/StillImage"/>
    <dc:date>2025-02-26T11:11:23.920618</dc:date>
    <dc:format>image/svg+xml</dc:format>
    <dc:creator>
     <cc:Agent>
      <dc:title>Matplotlib v3.8.3, https://matplotlib.org/</dc:title>
     </cc:Agent>
    </dc:creator>
   </cc:Work>
  </rdf:RDF>
 </metadata>
 <defs>
  <style type="text/css">*{stroke-linejoin: round; stroke-linecap: butt}</style>
 </defs>
 <g id="figure_1">
  <g id="patch_1">
   <path d="M 0 399.009062 
L 1172.435 399.009062 
L 1172.435 0 
L 0 0 
z
" style="fill: #ffffff"/>
  </g>
  <g id="axes_1">
   <g id="patch_2">
    <path d="M 49.235 359.517187 
L 1165.235 359.517187 
L 1165.235 26.877187 
L 49.235 26.877187 
z
" style="fill: #ffffff"/>
   </g>
   <g id="patch_3">
    <path d="M 115.708097 359.517187 
L 115.708097 26.877187 
L 115.793853 26.877187 
L 115.793853 359.517187 
z
" clip-path="url(#pe93b3138e7)" style="fill: #add8e6; stroke: #add8e6; stroke-linejoin: miter"/>
   </g>
   <g id="patch_4">
    <path d="M 117.542377 359.517187 
L 117.542377 26.877187 
L 117.571975 26.877187 
L 117.571975 359.517187 
z
" clip-path="url(#pe93b3138e7)" style="fill: #add8e6; stroke: #add8e6; stroke-linejoin: miter"/>
   </g>
   <g id="patch_5">
    <path d="M 118.094104 359.517187 
L 118.094104 26.877187 
L 117.732863 26.877187 
L 117.732863 359.517187 
z
" clip-path="url(#pe93b3138e7)" style="fill: #add8e6; stroke: #add8e6; stroke-linejoin: miter"/>
   </g>
   <g id="patch_6">
    <path d="M 146.748194 359.517187 
L 146.748194 26.877187 
L 140.140382 26.877187 
L 140.140382 359.517187 
z
" clip-path="url(#pe93b3138e7)" style="fill: #add8e6; stroke: #add8e6; stroke-linejoin: miter"/>
   </g>
   <g id="patch_7">
    <path d="M 165.330058 359.517187 
L 165.330058 26.877187 
L 159.184421 26.877187 
L 159.184421 359.517187 
z
" clip-path="url(#pe93b3138e7)" style="fill: #add8e6; stroke: #add8e6; stroke-linejoin: miter"/>
   </g>
   <g id="patch_8">
    <path d="M 174.262405 359.517187 
L 174.262405 26.877187 
L 167.838249 26.877187 
L 167.838249 359.517187 
z
" clip-path="url(#pe93b3138e7)" style="fill: #add8e6; stroke: #add8e6; stroke-linejoin: miter"/>
   </g>
   <g id="patch_9">
    <path d="M 182.580038 359.517187 
L 182.580038 26.877187 
L 180.108274 26.877187 
L 180.108274 359.517187 
z
" clip-path="url(#pe93b3138e7)" style="fill: #add8e6; stroke: #add8e6; stroke-linejoin: miter"/>
   </g>
   <g id="patch_10">
    <path d="M 200.194293 359.517187 
L 200.194293 26.877187 
L 199.113608 26.877187 
L 199.113608 359.517187 
z
" clip-path="url(#pe93b3138e7)" style="fill: #add8e6; stroke: #add8e6; stroke-linejoin: miter"/>
   </g>
   <g id="patch_11">
    <path d="M 211.306225 359.517187 
L 211.306225 26.877187 
L 206.311092 26.877187 
L 206.311092 359.517187 
z
" clip-path="url(#pe93b3138e7)" style="fill: #add8e6; stroke: #add8e6; stroke-linejoin: miter"/>
   </g>
   <g id="patch_12">
    <path d="M 248.677133 359.517187 
L 248.677133 26.877187 
L 243.168979 26.877187 
L 243.168979 359.517187 
z
" clip-path="url(#pe93b3138e7)" style="fill: #add8e6; stroke: #add8e6; stroke-linejoin: miter"/>
   </g>
   <g id="patch_13">
    <path d="M 272.109178 359.517187 
L 272.109178 26.877187 
L 272.255647 26.877187 
L 272.255647 359.517187 
z
" clip-path="url(#pe93b3138e7)" style="fill: #add8e6; stroke: #add8e6; stroke-linejoin: miter"/>
   </g>
   <g id="patch_14">
    <path d="M 273.055536 359.517187 
L 273.055536 26.877187 
L 273.075268 26.877187 
L 273.075268 359.517187 
z
" clip-path="url(#pe93b3138e7)" style="fill: #add8e6; stroke: #add8e6; stroke-linejoin: miter"/>
   </g>
   <g id="patch_15">
    <path d="M 302.989905 359.517187 
L 302.989905 26.877187 
L 303.110571 26.877187 
L 303.110571 359.517187 
z
" clip-path="url(#pe93b3138e7)" style="fill: #add8e6; stroke: #add8e6; stroke-linejoin: miter"/>
   </g>
   <g id="patch_16">
    <path d="M 303.247934 359.517187 
L 303.247934 26.877187 
L 303.451321 26.877187 
L 303.451321 359.517187 
z
" clip-path="url(#pe93b3138e7)" style="fill: #add8e6; stroke: #add8e6; stroke-linejoin: miter"/>
   </g>
   <g id="patch_17">
    <path d="M 320.886474 359.517187 
L 320.886474 26.877187 
L 320.97982 26.877187 
L 320.97982 359.517187 
z
" clip-path="url(#pe93b3138e7)" style="fill: #add8e6; stroke: #add8e6; stroke-linejoin: miter"/>
   </g>
   <g id="patch_18">
    <path d="M 343.800185 359.517187 
L 343.800185 26.877187 
L 343.977769 26.877187 
L 343.977769 359.517187 
z
" clip-path="url(#pe93b3138e7)" style="fill: #add8e6; stroke: #add8e6; stroke-linejoin: miter"/>
   </g>
   <g id="patch_19">
    <path d="M 344.122721 359.517187 
L 344.122721 26.877187 
L 344.146247 26.877187 
L 344.146247 359.517187 
z
" clip-path="url(#pe93b3138e7)" style="fill: #add8e6; stroke: #add8e6; stroke-linejoin: miter"/>
   </g>
   <g id="patch_20">
    <path d="M 389.698184 359.517187 
L 389.698184 26.877187 
L 389.810503 26.877187 
L 389.810503 359.517187 
z
" clip-path="url(#pe93b3138e7)" style="fill: #add8e6; stroke: #add8e6; stroke-linejoin: miter"/>
   </g>
   <g id="patch_21">
    <path d="M 389.974427 359.517187 
L 389.974427 26.877187 
L 390.190716 26.877187 
L 390.190716 359.517187 
z
" clip-path="url(#pe93b3138e7)" style="fill: #add8e6; stroke: #add8e6; stroke-linejoin: miter"/>
   </g>
   <g id="patch_22">
    <path d="M 403.599862 359.517187 
L 403.599862 26.877187 
L 403.799455 26.877187 
L 403.799455 359.517187 
z
" clip-path="url(#pe93b3138e7)" style="fill: #add8e6; stroke: #add8e6; stroke-linejoin: miter"/>
   </g>
   <g id="patch_23">
    <path d="M 416.103631 359.517187 
L 416.103631 26.877187 
L 415.502575 26.877187 
L 415.502575 359.517187 
z
" clip-path="url(#pe93b3138e7)" style="fill: #add8e6; stroke: #add8e6; stroke-linejoin: miter"/>
   </g>
   <g id="patch_24">
    <path d="M 416.886065 359.517187 
L 416.886065 26.877187 
L 416.203807 26.877187 
L 416.203807 359.517187 
z
" clip-path="url(#pe93b3138e7)" style="fill: #add8e6; stroke: #add8e6; stroke-linejoin: miter"/>
   </g>
   <g id="patch_25">
    <path d="M 417.35507 359.517187 
L 417.35507 26.877187 
L 416.564288 26.877187 
L 416.564288 359.517187 
z
" clip-path="url(#pe93b3138e7)" style="fill: #add8e6; stroke: #add8e6; stroke-linejoin: miter"/>
   </g>
   <g id="patch_26">
    <path d="M 437.148151 359.517187 
L 437.148151 26.877187 
L 431.182374 26.877187 
L 431.182374 359.517187 
z
" clip-path="url(#pe93b3138e7)" style="fill: #add8e6; stroke: #add8e6; stroke-linejoin: miter"/>
   </g>
   <g id="patch_27">
    <path d="M 444.482997 359.517187 
L 444.482997 26.877187 
L 437.865319 26.877187 
L 437.865319 359.517187 
z
" clip-path="url(#pe93b3138e7)" style="fill: #add8e6; stroke: #add8e6; stroke-linejoin: miter"/>
   </g>
   <g id="patch_28">
    <path d="M 465.825768 359.517187 
L 465.825768 26.877187 
L 466.041297 26.877187 
L 466.041297 359.517187 
z
" clip-path="url(#pe93b3138e7)" style="fill: #add8e6; stroke: #add8e6; stroke-linejoin: miter"/>
   </g>
   <g id="patch_29">
    <path d="M 466.110358 359.517187 
L 466.110358 26.877187 
L 466.319817 26.877187 
L 466.319817 359.517187 
z
" clip-path="url(#pe93b3138e7)" style="fill: #add8e6; stroke: #add8e6; stroke-linejoin: miter"/>
   </g>
   <g id="patch_30">
    <path d="M 466.822973 359.517187 
L 466.822973 26.877187 
L 466.688646 26.877187 
L 466.688646 359.517187 
z
" clip-path="url(#pe93b3138e7)" style="fill: #add8e6; stroke: #add8e6; stroke-linejoin: miter"/>
   </g>
   <g id="patch_31">
    <path d="M 484.792397 359.517187 
L 484.792397 26.877187 
L 478.683188 26.877187 
L 478.683188 359.517187 
z
" clip-path="url(#pe93b3138e7)" style="fill: #add8e6; stroke: #add8e6; stroke-linejoin: miter"/>
   </g>
   <g id="patch_32">
    <path d="M 502.129652 359.517187 
L 502.129652 26.877187 
L 495.946069 26.877187 
L 495.946069 359.517187 
z
" clip-path="url(#pe93b3138e7)" style="fill: #add8e6; stroke: #add8e6; stroke-linejoin: miter"/>
   </g>
   <g id="patch_33">
    <path d="M 512.223128 359.517187 
L 512.223128 26.877187 
L 511.400472 26.877187 
L 511.400472 359.517187 
z
" clip-path="url(#pe93b3138e7)" style="fill: #add8e6; stroke: #add8e6; stroke-linejoin: miter"/>
   </g>
   <g id="patch_34">
    <path d="M 522.351515 359.517187 
L 522.351515 26.877187 
L 522.57084 26.877187 
L 522.57084 359.517187 
z
" clip-path="url(#pe93b3138e7)" style="fill: #add8e6; stroke: #add8e6; stroke-linejoin: miter"/>
   </g>
   <g id="patch_35">
    <path d="M 522.790923 359.517187 
L 522.790923 26.877187 
L 522.985203 26.877187 
L 522.985203 359.517187 
z
" clip-path="url(#pe93b3138e7)" style="fill: #add8e6; stroke: #add8e6; stroke-linejoin: miter"/>
   </g>
   <g id="patch_36">
    <path d="M 539.354091 359.517187 
L 539.354091 26.877187 
L 535.019967 26.877187 
L 535.019967 359.517187 
z
" clip-path="url(#pe93b3138e7)" style="fill: #add8e6; stroke: #add8e6; stroke-linejoin: miter"/>
   </g>
   <g id="patch_37">
    <path d="M 541.230112 359.517187 
L 541.230112 26.877187 
L 541.316627 26.877187 
L 541.316627 359.517187 
z
" clip-path="url(#pe93b3138e7)" style="fill: #add8e6; stroke: #add8e6; stroke-linejoin: miter"/>
   </g>
   <g id="patch_38">
    <path d="M 593.707085 359.517187 
L 593.707085 26.877187 
L 587.562206 26.877187 
L 587.562206 359.517187 
z
" clip-path="url(#pe93b3138e7)" style="fill: #add8e6; stroke: #add8e6; stroke-linejoin: miter"/>
   </g>
   <g id="patch_39">
    <path d="M 609.336796 359.517187 
L 609.336796 26.877187 
L 609.457462 26.877187 
L 609.457462 359.517187 
z
" clip-path="url(#pe93b3138e7)" style="fill: #add8e6; stroke: #add8e6; stroke-linejoin: miter"/>
   </g>
   <g id="patch_40">
    <path d="M 666.896935 359.517187 
L 666.896935 26.877187 
L 667.068448 26.877187 
L 667.068448 359.517187 
z
" clip-path="url(#pe93b3138e7)" style="fill: #add8e6; stroke: #add8e6; stroke-linejoin: miter"/>
   </g>
   <g id="patch_41">
    <path d="M 701.66403 359.517187 
L 701.66403 26.877187 
L 701.715636 26.877187 
L 701.715636 359.517187 
z
" clip-path="url(#pe93b3138e7)" style="fill: #add8e6; stroke: #add8e6; stroke-linejoin: miter"/>
   </g>
   <g id="patch_42">
    <path d="M 733.370449 359.517187 
L 733.370449 26.877187 
L 733.576113 26.877187 
L 733.576113 359.517187 
z
" clip-path="url(#pe93b3138e7)" style="fill: #add8e6; stroke: #add8e6; stroke-linejoin: miter"/>
   </g>
   <g id="patch_43">
    <path d="M 737.977021 359.517187 
L 737.977021 26.877187 
L 738.150811 26.877187 
L 738.150811 359.517187 
z
" clip-path="url(#pe93b3138e7)" style="fill: #add8e6; stroke: #add8e6; stroke-linejoin: miter"/>
   </g>
   <g id="patch_44">
    <path d="M 741.650136 359.517187 
L 741.650136 26.877187 
L 741.801159 26.877187 
L 741.801159 359.517187 
z
" clip-path="url(#pe93b3138e7)" style="fill: #add8e6; stroke: #add8e6; stroke-linejoin: miter"/>
   </g>
   <g id="patch_45">
    <path d="M 750.491415 359.517187 
L 750.491415 26.877187 
L 750.655339 26.877187 
L 750.655339 359.517187 
z
" clip-path="url(#pe93b3138e7)" style="fill: #add8e6; stroke: #add8e6; stroke-linejoin: miter"/>
   </g>
   <g id="patch_46">
    <path d="M 750.973321 359.517187 
L 750.973321 26.877187 
L 750.923233 26.877187 
L 750.923233 359.517187 
z
" clip-path="url(#pe93b3138e7)" style="fill: #add8e6; stroke: #add8e6; stroke-linejoin: miter"/>
   </g>
   <g id="patch_47">
    <path d="M 751.789906 359.517187 
L 751.789906 26.877187 
L 751.923474 26.877187 
L 751.923474 359.517187 
z
" clip-path="url(#pe93b3138e7)" style="fill: #add8e6; stroke: #add8e6; stroke-linejoin: miter"/>
   </g>
   <g id="patch_48">
    <path d="M 769.682681 359.517187 
L 769.682681 26.877187 
L 763.455082 26.877187 
L 763.455082 359.517187 
z
" clip-path="url(#pe93b3138e7)" style="fill: #add8e6; stroke: #add8e6; stroke-linejoin: miter"/>
   </g>
   <g id="patch_49">
    <path d="M 791.18634 359.517187 
L 791.18634 26.877187 
L 784.311392 26.877187 
L 784.311392 359.517187 
z
" clip-path="url(#pe93b3138e7)" style="fill: #add8e6; stroke: #add8e6; stroke-linejoin: miter"/>
   </g>
   <g id="patch_50">
    <path d="M 803.947379 359.517187 
L 803.947379 26.877187 
L 796.998817 26.877187 
L 796.998817 359.517187 
z
" clip-path="url(#pe93b3138e7)" style="fill: #add8e6; stroke: #add8e6; stroke-linejoin: miter"/>
   </g>
   <g id="patch_51">
    <path d="M 822.153583 359.517187 
L 822.153583 26.877187 
L 816.476192 26.877187 
L 816.476192 359.517187 
z
" clip-path="url(#pe93b3138e7)" style="fill: #add8e6; stroke: #add8e6; stroke-linejoin: miter"/>
   </g>
   <g id="patch_52">
    <path d="M 843.232254 359.517187 
L 843.232254 26.877187 
L 843.398455 26.877187 
L 843.398455 359.517187 
z
" clip-path="url(#pe93b3138e7)" style="fill: #add8e6; stroke: #add8e6; stroke-linejoin: miter"/>
   </g>
   <g id="patch_53">
    <path d="M 843.584387 359.517187 
L 843.584387 26.877187 
L 843.789292 26.877187 
L 843.789292 359.517187 
z
" clip-path="url(#pe93b3138e7)" style="fill: #add8e6; stroke: #add8e6; stroke-linejoin: miter"/>
   </g>
   <g id="patch_54">
    <path d="M 843.827238 359.517187 
L 843.827238 26.877187 
L 844.032143 26.877187 
L 844.032143 359.517187 
z
" clip-path="url(#pe93b3138e7)" style="fill: #add8e6; stroke: #add8e6; stroke-linejoin: miter"/>
   </g>
   <g id="patch_55">
    <path d="M 854.331284 359.517187 
L 854.331284 26.877187 
L 847.706017 26.877187 
L 847.706017 359.517187 
z
" clip-path="url(#pe93b3138e7)" style="fill: #add8e6; stroke: #add8e6; stroke-linejoin: miter"/>
   </g>
   <g id="patch_56">
    <path d="M 863.935265 359.517187 
L 863.935265 26.877187 
L 857.879938 26.877187 
L 857.879938 359.517187 
z
" clip-path="url(#pe93b3138e7)" style="fill: #add8e6; stroke: #add8e6; stroke-linejoin: miter"/>
   </g>
   <g id="patch_57">
    <path d="M 874.533416 359.517187 
L 874.533416 26.877187 
L 871.63211 26.877187 
L 871.63211 359.517187 
z
" clip-path="url(#pe93b3138e7)" style="fill: #add8e6; stroke: #add8e6; stroke-linejoin: miter"/>
   </g>
   <g id="patch_58">
    <path d="M 874.85747 359.517187 
L 874.85747 26.877187 
L 874.974341 26.877187 
L 874.974341 359.517187 
z
" clip-path="url(#pe93b3138e7)" style="fill: #add8e6; stroke: #add8e6; stroke-linejoin: miter"/>
   </g>
   <g id="patch_59">
    <path d="M 875.097285 359.517187 
L 875.097285 26.877187 
L 875.234647 26.877187 
L 875.234647 359.517187 
z
" clip-path="url(#pe93b3138e7)" style="fill: #add8e6; stroke: #add8e6; stroke-linejoin: miter"/>
   </g>
   <g id="patch_60">
    <path d="M 907.728054 359.517187 
L 907.728054 26.877187 
L 901.576345 26.877187 
L 901.576345 359.517187 
z
" clip-path="url(#pe93b3138e7)" style="fill: #add8e6; stroke: #add8e6; stroke-linejoin: miter"/>
   </g>
   <g id="patch_61">
    <path d="M 1001.109411 359.517187 
L 1001.109411 26.877187 
L 1001.08968 26.877187 
L 1001.08968 359.517187 
z
" clip-path="url(#pe93b3138e7)" style="fill: #add8e6; stroke: #add8e6; stroke-linejoin: miter"/>
   </g>
   <g id="patch_62">
    <path d="M 1027.923909 359.517187 
L 1027.923909 26.877187 
L 1021.176458 26.877187 
L 1021.176458 359.517187 
z
" clip-path="url(#pe93b3138e7)" style="fill: #add8e6; stroke: #add8e6; stroke-linejoin: miter"/>
   </g>
   <g id="patch_63">
    <path d="M 1043.369964 359.517187 
L 1043.369964 26.877187 
L 1043.54679 26.877187 
L 1043.54679 359.517187 
z
" clip-path="url(#pe93b3138e7)" style="fill: #add8e6; stroke: #add8e6; stroke-linejoin: miter"/>
   </g>
   <g id="patch_64">
    <path d="M 1066.28671 359.517187 
L 1066.28671 26.877187 
L 1059.780592 26.877187 
L 1059.780592 359.517187 
z
" clip-path="url(#pe93b3138e7)" style="fill: #add8e6; stroke: #add8e6; stroke-linejoin: miter"/>
   </g>
   <g id="patch_65">
    <path d="M 1078.994626 359.517187 
L 1078.994626 26.877187 
L 1073.934986 26.877187 
L 1073.934986 359.517187 
z
" clip-path="url(#pe93b3138e7)" style="fill: #add8e6; stroke: #add8e6; stroke-linejoin: miter"/>
   </g>
   <g id="patch_66">
    <path d="M 1099.34095 359.517187 
L 1099.34095 26.877187 
L 1092.72479 26.877187 
L 1092.72479 359.517187 
z
" clip-path="url(#pe93b3138e7)" style="fill: #add8e6; stroke: #add8e6; stroke-linejoin: miter"/>
   </g>
   <g id="patch_67">
    <path d="M 1108.178434 359.517187 
L 1108.178434 26.877187 
L 1101.571381 26.877187 
L 1101.571381 359.517187 
z
" clip-path="url(#pe93b3138e7)" style="fill: #add8e6; stroke: #add8e6; stroke-linejoin: miter"/>
   </g>
   <g id="patch_68">
    <path d="M 1114.507727 359.517187 
L 1114.507727 26.877187 
L 1108.128346 26.877187 
L 1108.128346 359.517187 
z
" clip-path="url(#pe93b3138e7)" style="fill: #add8e6; stroke: #add8e6; stroke-linejoin: miter"/>
   </g>
   <g id="patch_69">
    <path d="M 222.905375 359.517187 
L 222.905375 26.877187 
L 386.829512 26.877187 
L 386.829512 359.517187 
z
" clip-path="url(#pe93b3138e7)" style="fill: #808080; opacity: 0.4; stroke: #808080; stroke-linejoin: miter"/>
   </g>
   <g id="patch_70">
    <path d="M 391.38296 26.877187 
L 391.38296 26.877187 
L 391.38296 359.517187 
" clip-path="url(#pe93b3138e7)" style="fill: #808080; opacity: 0.4; stroke: #808080; stroke-linejoin: miter"/>
   </g>
   <g id="patch_71">
    <path d="M 395.936408 26.877187 
L 395.936408 26.877187 
L 395.936408 359.517187 
" clip-path="url(#pe93b3138e7)" style="fill: #808080; opacity: 0.4; stroke: #808080; stroke-linejoin: miter"/>
   </g>
   <g id="patch_72">
    <path d="M 550.753649 359.517187 
L 550.753649 26.877187 
L 714.677785 26.877187 
L 714.677785 359.517187 
z
" clip-path="url(#pe93b3138e7)" style="fill: #808080; opacity: 0.4; stroke: #808080; stroke-linejoin: miter"/>
   </g>
   <g id="patch_73">
    <path d="M 719.231233 26.877187 
L 719.231233 26.877187 
L 719.231233 359.517187 
" clip-path="url(#pe93b3138e7)" style="fill: #808080; opacity: 0.4; stroke: #808080; stroke-linejoin: miter"/>
   </g>
   <g id="patch_74">
    <path d="M 723.784682 26.877187 
L 723.784682 26.877187 
L 723.784682 359.517187 
" clip-path="url(#pe93b3138e7)" style="fill: #808080; opacity: 0.4; stroke: #808080; stroke-linejoin: miter"/>
   </g>
   <g id="patch_75">
    <path d="M 878.601922 359.517187 
L 878.601922 26.877187 
L 1042.526059 26.877187 
L 1042.526059 359.517187 
z
" clip-path="url(#pe93b3138e7)" style="fill: #808080; opacity: 0.4; stroke: #808080; stroke-linejoin: miter"/>
   </g>
   <g id="patch_76">
    <path d="M 1047.079507 26.877187 
L 1047.079507 26.877187 
L 1047.079507 359.517187 
" clip-path="url(#pe93b3138e7)" style="fill: #808080; opacity: 0.4; stroke: #808080; stroke-linejoin: miter"/>
   </g>
   <g id="patch_77">
    <path d="M 1051.632955 26.877187 
L 1051.632955 26.877187 
L 1051.632955 359.517187 
" clip-path="url(#pe93b3138e7)" style="fill: #808080; opacity: 0.4; stroke: #808080; stroke-linejoin: miter"/>
   </g>
   <g id="matplotlib.axis_1">
    <g id="xtick_1">
     <g id="line2d_1">
      <defs>
       <path id="m20aaaf4f99" d="M 0 0 
L 0 3.5 
" style="stroke: #000000; stroke-width: 0.8"/>
      </defs>
      <g>
       <use xlink:href="#m20aaaf4f99" x="124.653346" y="359.517187" style="stroke: #000000; stroke-width: 0.8"/>
      </g>
     </g>
     <g id="text_1">
      <!-- 09-02 12 -->
      <g transform="translate(102.172877 374.115625) scale(0.1 -0.1)">
       <defs>
        <path id="DejaVuSans-30" d="M 2034 4250 
Q 1547 4250 1301 3770 
Q 1056 3291 1056 2328 
Q 1056 1369 1301 889 
Q 1547 409 2034 409 
Q 2525 409 2770 889 
Q 3016 1369 3016 2328 
Q 3016 3291 2770 3770 
Q 2525 4250 2034 4250 
z
M 2034 4750 
Q 2819 4750 3233 4129 
Q 3647 3509 3647 2328 
Q 3647 1150 3233 529 
Q 2819 -91 2034 -91 
Q 1250 -91 836 529 
Q 422 1150 422 2328 
Q 422 3509 836 4129 
Q 1250 4750 2034 4750 
z
" transform="scale(0.015625)"/>
        <path id="DejaVuSans-39" d="M 703 97 
L 703 672 
Q 941 559 1184 500 
Q 1428 441 1663 441 
Q 2288 441 2617 861 
Q 2947 1281 2994 2138 
Q 2813 1869 2534 1725 
Q 2256 1581 1919 1581 
Q 1219 1581 811 2004 
Q 403 2428 403 3163 
Q 403 3881 828 4315 
Q 1253 4750 1959 4750 
Q 2769 4750 3195 4129 
Q 3622 3509 3622 2328 
Q 3622 1225 3098 567 
Q 2575 -91 1691 -91 
Q 1453 -91 1209 -44 
Q 966 3 703 97 
z
M 1959 2075 
Q 2384 2075 2632 2365 
Q 2881 2656 2881 3163 
Q 2881 3666 2632 3958 
Q 2384 4250 1959 4250 
Q 1534 4250 1286 3958 
Q 1038 3666 1038 3163 
Q 1038 2656 1286 2365 
Q 1534 2075 1959 2075 
z
" transform="scale(0.015625)"/>
        <path id="DejaVuSans-2d" d="M 313 2009 
L 1997 2009 
L 1997 1497 
L 313 1497 
L 313 2009 
z
" transform="scale(0.015625)"/>
        <path id="DejaVuSans-32" d="M 1228 531 
L 3431 531 
L 3431 0 
L 469 0 
L 469 531 
Q 828 903 1448 1529 
Q 2069 2156 2228 2338 
Q 2531 2678 2651 2914 
Q 2772 3150 2772 3378 
Q 2772 3750 2511 3984 
Q 2250 4219 1831 4219 
Q 1534 4219 1204 4116 
Q 875 4013 500 3803 
L 500 4441 
Q 881 4594 1212 4672 
Q 1544 4750 1819 4750 
Q 2544 4750 2975 4387 
Q 3406 4025 3406 3419 
Q 3406 3131 3298 2873 
Q 3191 2616 2906 2266 
Q 2828 2175 2409 1742 
Q 1991 1309 1228 531 
z
" transform="scale(0.015625)"/>
        <path id="DejaVuSans-20" transform="scale(0.015625)"/>
        <path id="DejaVuSans-31" d="M 794 531 
L 1825 531 
L 1825 4091 
L 703 3866 
L 703 4441 
L 1819 4666 
L 2450 4666 
L 2450 531 
L 3481 531 
L 3481 0 
L 794 0 
L 794 531 
z
" transform="scale(0.015625)"/>
       </defs>
       <use xlink:href="#DejaVuSans-30"/>
       <use xlink:href="#DejaVuSans-39" x="63.623047"/>
       <use xlink:href="#DejaVuSans-2d" x="127.246094"/>
       <use xlink:href="#DejaVuSans-30" x="163.330078"/>
       <use xlink:href="#DejaVuSans-32" x="226.953125"/>
       <use xlink:href="#DejaVuSans-20" x="290.576172"/>
       <use xlink:href="#DejaVuSans-31" x="322.363281"/>
       <use xlink:href="#DejaVuSans-32" x="385.986328"/>
      </g>
     </g>
    </g>
    <g id="xtick_2">
     <g id="line2d_2">
      <g>
       <use xlink:href="#m20aaaf4f99" x="288.577482" y="359.517187" style="stroke: #000000; stroke-width: 0.8"/>
      </g>
     </g>
     <g id="text_2">
      <!-- 09-03 00 -->
      <g transform="translate(266.097014 374.115625) scale(0.1 -0.1)">
       <defs>
        <path id="DejaVuSans-33" d="M 2597 2516 
Q 3050 2419 3304 2112 
Q 3559 1806 3559 1356 
Q 3559 666 3084 287 
Q 2609 -91 1734 -91 
Q 1441 -91 1130 -33 
Q 819 25 488 141 
L 488 750 
Q 750 597 1062 519 
Q 1375 441 1716 441 
Q 2309 441 2620 675 
Q 2931 909 2931 1356 
Q 2931 1769 2642 2001 
Q 2353 2234 1838 2234 
L 1294 2234 
L 1294 2753 
L 1863 2753 
Q 2328 2753 2575 2939 
Q 2822 3125 2822 3475 
Q 2822 3834 2567 4026 
Q 2313 4219 1838 4219 
Q 1578 4219 1281 4162 
Q 984 4106 628 3988 
L 628 4550 
Q 988 4650 1302 4700 
Q 1616 4750 1894 4750 
Q 2613 4750 3031 4423 
Q 3450 4097 3450 3541 
Q 3450 3153 3228 2886 
Q 3006 2619 2597 2516 
z
" transform="scale(0.015625)"/>
       </defs>
       <use xlink:href="#DejaVuSans-30"/>
       <use xlink:href="#DejaVuSans-39" x="63.623047"/>
       <use xlink:href="#DejaVuSans-2d" x="127.246094"/>
       <use xlink:href="#DejaVuSans-30" x="163.330078"/>
       <use xlink:href="#DejaVuSans-33" x="226.953125"/>
       <use xlink:href="#DejaVuSans-20" x="290.576172"/>
       <use xlink:href="#DejaVuSans-30" x="322.363281"/>
       <use xlink:href="#DejaVuSans-30" x="385.986328"/>
      </g>
     </g>
    </g>
    <g id="xtick_3">
     <g id="line2d_3">
      <g>
       <use xlink:href="#m20aaaf4f99" x="452.501619" y="359.517187" style="stroke: #000000; stroke-width: 0.8"/>
      </g>
     </g>
     <g id="text_3">
      <!-- 09-03 12 -->
      <g transform="translate(430.02115 374.115625) scale(0.1 -0.1)">
       <use xlink:href="#DejaVuSans-30"/>
       <use xlink:href="#DejaVuSans-39" x="63.623047"/>
       <use xlink:href="#DejaVuSans-2d" x="127.246094"/>
       <use xlink:href="#DejaVuSans-30" x="163.330078"/>
       <use xlink:href="#DejaVuSans-33" x="226.953125"/>
       <use xlink:href="#DejaVuSans-20" x="290.576172"/>
       <use xlink:href="#DejaVuSans-31" x="322.363281"/>
       <use xlink:href="#DejaVuSans-32" x="385.986328"/>
      </g>
     </g>
    </g>
    <g id="xtick_4">
     <g id="line2d_4">
      <g>
       <use xlink:href="#m20aaaf4f99" x="616.425756" y="359.517187" style="stroke: #000000; stroke-width: 0.8"/>
      </g>
     </g>
     <g id="text_4">
      <!-- 09-04 00 -->
      <g transform="translate(593.945287 374.115625) scale(0.1 -0.1)">
       <defs>
        <path id="DejaVuSans-34" d="M 2419 4116 
L 825 1625 
L 2419 1625 
L 2419 4116 
z
M 2253 4666 
L 3047 4666 
L 3047 1625 
L 3713 1625 
L 3713 1100 
L 3047 1100 
L 3047 0 
L 2419 0 
L 2419 1100 
L 313 1100 
L 313 1709 
L 2253 4666 
z
" transform="scale(0.015625)"/>
       </defs>
       <use xlink:href="#DejaVuSans-30"/>
       <use xlink:href="#DejaVuSans-39" x="63.623047"/>
       <use xlink:href="#DejaVuSans-2d" x="127.246094"/>
       <use xlink:href="#DejaVuSans-30" x="163.330078"/>
       <use xlink:href="#DejaVuSans-34" x="226.953125"/>
       <use xlink:href="#DejaVuSans-20" x="290.576172"/>
       <use xlink:href="#DejaVuSans-30" x="322.363281"/>
       <use xlink:href="#DejaVuSans-30" x="385.986328"/>
      </g>
     </g>
    </g>
    <g id="xtick_5">
     <g id="line2d_5">
      <g>
       <use xlink:href="#m20aaaf4f99" x="780.349892" y="359.517187" style="stroke: #000000; stroke-width: 0.8"/>
      </g>
     </g>
     <g id="text_5">
      <!-- 09-04 12 -->
      <g transform="translate(757.869424 374.115625) scale(0.1 -0.1)">
       <use xlink:href="#DejaVuSans-30"/>
       <use xlink:href="#DejaVuSans-39" x="63.623047"/>
       <use xlink:href="#DejaVuSans-2d" x="127.246094"/>
       <use xlink:href="#DejaVuSans-30" x="163.330078"/>
       <use xlink:href="#DejaVuSans-34" x="226.953125"/>
       <use xlink:href="#DejaVuSans-20" x="290.576172"/>
       <use xlink:href="#DejaVuSans-31" x="322.363281"/>
       <use xlink:href="#DejaVuSans-32" x="385.986328"/>
      </g>
     </g>
    </g>
    <g id="xtick_6">
     <g id="line2d_6">
      <g>
       <use xlink:href="#m20aaaf4f99" x="944.274029" y="359.517187" style="stroke: #000000; stroke-width: 0.8"/>
      </g>
     </g>
     <g id="text_6">
      <!-- 09-05 00 -->
      <g transform="translate(921.79356 374.115625) scale(0.1 -0.1)">
       <defs>
        <path id="DejaVuSans-35" d="M 691 4666 
L 3169 4666 
L 3169 4134 
L 1269 4134 
L 1269 2991 
Q 1406 3038 1543 3061 
Q 1681 3084 1819 3084 
Q 2600 3084 3056 2656 
Q 3513 2228 3513 1497 
Q 3513 744 3044 326 
Q 2575 -91 1722 -91 
Q 1428 -91 1123 -41 
Q 819 9 494 109 
L 494 744 
Q 775 591 1075 516 
Q 1375 441 1709 441 
Q 2250 441 2565 725 
Q 2881 1009 2881 1497 
Q 2881 1984 2565 2268 
Q 2250 2553 1709 2553 
Q 1456 2553 1204 2497 
Q 953 2441 691 2322 
L 691 4666 
z
" transform="scale(0.015625)"/>
       </defs>
       <use xlink:href="#DejaVuSans-30"/>
       <use xlink:href="#DejaVuSans-39" x="63.623047"/>
       <use xlink:href="#DejaVuSans-2d" x="127.246094"/>
       <use xlink:href="#DejaVuSans-30" x="163.330078"/>
       <use xlink:href="#DejaVuSans-35" x="226.953125"/>
       <use xlink:href="#DejaVuSans-20" x="290.576172"/>
       <use xlink:href="#DejaVuSans-30" x="322.363281"/>
       <use xlink:href="#DejaVuSans-30" x="385.986328"/>
      </g>
     </g>
    </g>
    <g id="xtick_7">
     <g id="line2d_7">
      <g>
       <use xlink:href="#m20aaaf4f99" x="1108.198166" y="359.517187" style="stroke: #000000; stroke-width: 0.8"/>
      </g>
     </g>
     <g id="text_7">
      <!-- 09-05 12 -->
      <g transform="translate(1085.717697 374.115625) scale(0.1 -0.1)">
       <use xlink:href="#DejaVuSans-30"/>
       <use xlink:href="#DejaVuSans-39" x="63.623047"/>
       <use xlink:href="#DejaVuSans-2d" x="127.246094"/>
       <use xlink:href="#DejaVuSans-30" x="163.330078"/>
       <use xlink:href="#DejaVuSans-35" x="226.953125"/>
       <use xlink:href="#DejaVuSans-20" x="290.576172"/>
       <use xlink:href="#DejaVuSans-31" x="322.363281"/>
       <use xlink:href="#DejaVuSans-32" x="385.986328"/>
      </g>
     </g>
    </g>
    <g id="text_8">
     <!-- Time -->
     <g transform="translate(592.554688 389.313437) scale(0.12 -0.12)">
      <defs>
       <path id="DejaVuSans-54" d="M -19 4666 
L 3928 4666 
L 3928 4134 
L 2272 4134 
L 2272 0 
L 1638 0 
L 1638 4134 
L -19 4134 
L -19 4666 
z
" transform="scale(0.015625)"/>
       <path id="DejaVuSans-69" d="M 603 3500 
L 1178 3500 
L 1178 0 
L 603 0 
L 603 3500 
z
M 603 4863 
L 1178 4863 
L 1178 4134 
L 603 4134 
L 603 4863 
z
" transform="scale(0.015625)"/>
       <path id="DejaVuSans-6d" d="M 3328 2828 
Q 3544 3216 3844 3400 
Q 4144 3584 4550 3584 
Q 5097 3584 5394 3201 
Q 5691 2819 5691 2113 
L 5691 0 
L 5113 0 
L 5113 2094 
Q 5113 2597 4934 2840 
Q 4756 3084 4391 3084 
Q 3944 3084 3684 2787 
Q 3425 2491 3425 1978 
L 3425 0 
L 2847 0 
L 2847 2094 
Q 2847 2600 2669 2842 
Q 2491 3084 2119 3084 
Q 1678 3084 1418 2786 
Q 1159 2488 1159 1978 
L 1159 0 
L 581 0 
L 581 3500 
L 1159 3500 
L 1159 2956 
Q 1356 3278 1631 3431 
Q 1906 3584 2284 3584 
Q 2666 3584 2933 3390 
Q 3200 3197 3328 2828 
z
" transform="scale(0.015625)"/>
       <path id="DejaVuSans-65" d="M 3597 1894 
L 3597 1613 
L 953 1613 
Q 991 1019 1311 708 
Q 1631 397 2203 397 
Q 2534 397 2845 478 
Q 3156 559 3463 722 
L 3463 178 
Q 3153 47 2828 -22 
Q 2503 -91 2169 -91 
Q 1331 -91 842 396 
Q 353 884 353 1716 
Q 353 2575 817 3079 
Q 1281 3584 2069 3584 
Q 2775 3584 3186 3129 
Q 3597 2675 3597 1894 
z
M 3022 2063 
Q 3016 2534 2758 2815 
Q 2500 3097 2075 3097 
Q 1594 3097 1305 2825 
Q 1016 2553 972 2059 
L 3022 2063 
z
" transform="scale(0.015625)"/>
      </defs>
      <use xlink:href="#DejaVuSans-54"/>
      <use xlink:href="#DejaVuSans-69" x="57.958984"/>
      <use xlink:href="#DejaVuSans-6d" x="85.742188"/>
      <use xlink:href="#DejaVuSans-65" x="183.154297"/>
     </g>
    </g>
   </g>
   <g id="matplotlib.axis_2">
    <g id="ytick_1">
     <g id="line2d_8">
      <defs>
       <path id="m0a73980851" d="M 0 0 
L -3.5 0 
" style="stroke: #000000; stroke-width: 0.8"/>
      </defs>
      <g>
       <use xlink:href="#m0a73980851" x="49.235" y="344.397187" style="stroke: #000000; stroke-width: 0.8"/>
      </g>
     </g>
     <g id="text_9">
      <!-- 0 -->
      <g transform="translate(35.8725 348.196406) scale(0.1 -0.1)">
       <use xlink:href="#DejaVuSans-30"/>
      </g>
     </g>
    </g>
    <g id="ytick_2">
     <g id="line2d_9">
      <g>
       <use xlink:href="#m0a73980851" x="49.235" y="289.81235" style="stroke: #000000; stroke-width: 0.8"/>
      </g>
     </g>
     <g id="text_10">
      <!-- 100 -->
      <g transform="translate(23.1475 293.611569) scale(0.1 -0.1)">
       <use xlink:href="#DejaVuSans-31"/>
       <use xlink:href="#DejaVuSans-30" x="63.623047"/>
       <use xlink:href="#DejaVuSans-30" x="127.246094"/>
      </g>
     </g>
    </g>
    <g id="ytick_3">
     <g id="line2d_10">
      <g>
       <use xlink:href="#m0a73980851" x="49.235" y="235.227512" style="stroke: #000000; stroke-width: 0.8"/>
      </g>
     </g>
     <g id="text_11">
      <!-- 200 -->
      <g transform="translate(23.1475 239.026731) scale(0.1 -0.1)">
       <use xlink:href="#DejaVuSans-32"/>
       <use xlink:href="#DejaVuSans-30" x="63.623047"/>
       <use xlink:href="#DejaVuSans-30" x="127.246094"/>
      </g>
     </g>
    </g>
    <g id="ytick_4">
     <g id="line2d_11">
      <g>
       <use xlink:href="#m0a73980851" x="49.235" y="180.642675" style="stroke: #000000; stroke-width: 0.8"/>
      </g>
     </g>
     <g id="text_12">
      <!-- 300 -->
      <g transform="translate(23.1475 184.441894) scale(0.1 -0.1)">
       <use xlink:href="#DejaVuSans-33"/>
       <use xlink:href="#DejaVuSans-30" x="63.623047"/>
       <use xlink:href="#DejaVuSans-30" x="127.246094"/>
      </g>
     </g>
    </g>
    <g id="ytick_5">
     <g id="line2d_12">
      <g>
       <use xlink:href="#m0a73980851" x="49.235" y="126.057837" style="stroke: #000000; stroke-width: 0.8"/>
      </g>
     </g>
     <g id="text_13">
      <!-- 400 -->
      <g transform="translate(23.1475 129.857056) scale(0.1 -0.1)">
       <use xlink:href="#DejaVuSans-34"/>
       <use xlink:href="#DejaVuSans-30" x="63.623047"/>
       <use xlink:href="#DejaVuSans-30" x="127.246094"/>
      </g>
     </g>
    </g>
    <g id="ytick_6">
     <g id="line2d_13">
      <g>
       <use xlink:href="#m0a73980851" x="49.235" y="71.473" style="stroke: #000000; stroke-width: 0.8"/>
      </g>
     </g>
     <g id="text_14">
      <!-- 500 -->
      <g transform="translate(23.1475 75.272219) scale(0.1 -0.1)">
       <use xlink:href="#DejaVuSans-35"/>
       <use xlink:href="#DejaVuSans-30" x="63.623047"/>
       <use xlink:href="#DejaVuSans-30" x="127.246094"/>
      </g>
     </g>
    </g>
    <g id="text_15">
     <!-- Pellet_Count -->
     <g transform="translate(16.318125 230.485312) rotate(-90) scale(0.12 -0.12)">
      <defs>
       <path id="DejaVuSans-50" d="M 1259 4147 
L 1259 2394 
L 2053 2394 
Q 2494 2394 2734 2622 
Q 2975 2850 2975 3272 
Q 2975 3691 2734 3919 
Q 2494 4147 2053 4147 
L 1259 4147 
z
M 628 4666 
L 2053 4666 
Q 2838 4666 3239 4311 
Q 3641 3956 3641 3272 
Q 3641 2581 3239 2228 
Q 2838 1875 2053 1875 
L 1259 1875 
L 1259 0 
L 628 0 
L 628 4666 
z
" transform="scale(0.015625)"/>
       <path id="DejaVuSans-6c" d="M 603 4863 
L 1178 4863 
L 1178 0 
L 603 0 
L 603 4863 
z
" transform="scale(0.015625)"/>
       <path id="DejaVuSans-74" d="M 1172 4494 
L 1172 3500 
L 2356 3500 
L 2356 3053 
L 1172 3053 
L 1172 1153 
Q 1172 725 1289 603 
Q 1406 481 1766 481 
L 2356 481 
L 2356 0 
L 1766 0 
Q 1100 0 847 248 
Q 594 497 594 1153 
L 594 3053 
L 172 3053 
L 172 3500 
L 594 3500 
L 594 4494 
L 1172 4494 
z
" transform="scale(0.015625)"/>
       <path id="DejaVuSans-5f" d="M 3263 -1063 
L 3263 -1509 
L -63 -1509 
L -63 -1063 
L 3263 -1063 
z
" transform="scale(0.015625)"/>
       <path id="DejaVuSans-43" d="M 4122 4306 
L 4122 3641 
Q 3803 3938 3442 4084 
Q 3081 4231 2675 4231 
Q 1875 4231 1450 3742 
Q 1025 3253 1025 2328 
Q 1025 1406 1450 917 
Q 1875 428 2675 428 
Q 3081 428 3442 575 
Q 3803 722 4122 1019 
L 4122 359 
Q 3791 134 3420 21 
Q 3050 -91 2638 -91 
Q 1578 -91 968 557 
Q 359 1206 359 2328 
Q 359 3453 968 4101 
Q 1578 4750 2638 4750 
Q 3056 4750 3426 4639 
Q 3797 4528 4122 4306 
z
" transform="scale(0.015625)"/>
       <path id="DejaVuSans-6f" d="M 1959 3097 
Q 1497 3097 1228 2736 
Q 959 2375 959 1747 
Q 959 1119 1226 758 
Q 1494 397 1959 397 
Q 2419 397 2687 759 
Q 2956 1122 2956 1747 
Q 2956 2369 2687 2733 
Q 2419 3097 1959 3097 
z
M 1959 3584 
Q 2709 3584 3137 3096 
Q 3566 2609 3566 1747 
Q 3566 888 3137 398 
Q 2709 -91 1959 -91 
Q 1206 -91 779 398 
Q 353 888 353 1747 
Q 353 2609 779 3096 
Q 1206 3584 1959 3584 
z
" transform="scale(0.015625)"/>
       <path id="DejaVuSans-75" d="M 544 1381 
L 544 3500 
L 1119 3500 
L 1119 1403 
Q 1119 906 1312 657 
Q 1506 409 1894 409 
Q 2359 409 2629 706 
Q 2900 1003 2900 1516 
L 2900 3500 
L 3475 3500 
L 3475 0 
L 2900 0 
L 2900 538 
Q 2691 219 2414 64 
Q 2138 -91 1772 -91 
Q 1169 -91 856 284 
Q 544 659 544 1381 
z
M 1991 3584 
L 1991 3584 
z
" transform="scale(0.015625)"/>
       <path id="DejaVuSans-6e" d="M 3513 2113 
L 3513 0 
L 2938 0 
L 2938 2094 
Q 2938 2591 2744 2837 
Q 2550 3084 2163 3084 
Q 1697 3084 1428 2787 
Q 1159 2491 1159 1978 
L 1159 0 
L 581 0 
L 581 3500 
L 1159 3500 
L 1159 2956 
Q 1366 3272 1645 3428 
Q 1925 3584 2291 3584 
Q 2894 3584 3203 3211 
Q 3513 2838 3513 2113 
z
" transform="scale(0.015625)"/>
      </defs>
      <use xlink:href="#DejaVuSans-50"/>
      <use xlink:href="#DejaVuSans-65" x="56.677734"/>
      <use xlink:href="#DejaVuSans-6c" x="118.201172"/>
      <use xlink:href="#DejaVuSans-6c" x="145.984375"/>
      <use xlink:href="#DejaVuSans-65" x="173.767578"/>
      <use xlink:href="#DejaVuSans-74" x="235.291016"/>
      <use xlink:href="#DejaVuSans-5f" x="274.5"/>
      <use xlink:href="#DejaVuSans-43" x="324.5"/>
      <use xlink:href="#DejaVuSans-6f" x="394.324219"/>
      <use xlink:href="#DejaVuSans-75" x="455.505859"/>
      <use xlink:href="#DejaVuSans-6e" x="518.884766"/>
      <use xlink:href="#DejaVuSans-74" x="582.263672"/>
     </g>
    </g>
   </g>
   <g id="line2d_14">
    <path d="M 99.962273 344.397187 
L 101.271389 344.397187 
L 101.297951 343.851339 
L 106.689993 343.851339 
L 106.71276 343.305491 
L 106.978378 343.305491 
L 107.027707 342.759642 
L 108.439276 342.759642 
L 108.553112 342.213794 
L 108.621413 342.213794 
L 108.65177 341.667946 
L 109.110909 341.667946 
L 109.122293 341.122097 
L 109.433445 341.122097 
L 109.63835 340.576249 
L 109.653528 340.576249 
L 109.774954 339.484552 
L 110.01401 339.484552 
L 110.021599 338.938704 
L 113.000313 338.938704 
L 113.117944 338.392855 
L 113.133122 338.392855 
L 113.136916 337.847007 
L 113.296287 337.847007 
L 113.307671 337.301159 
L 115.394668 337.301159 
L 115.516093 336.209462 
L 117.106005 336.209462 
L 117.1098 335.663613 
L 117.307116 335.663613 
L 117.405774 334.571917 
L 117.462692 334.571917 
L 117.595501 333.48022 
L 117.709337 332.934372 
L 129.688701 332.934372 
L 129.69629 332.388523 
L 130.003647 332.388523 
L 130.1061 331.296826 
L 130.18958 331.296826 
L 130.292033 330.750978 
L 130.610774 330.750978 
L 130.610774 330.750978 
L 130.735994 330.20513 
L 130.754966 330.20513 
L 130.880186 329.113433 
L 130.997817 329.113433 
L 131.119242 328.567585 
L 139.353395 328.567585 
L 139.364778 328.021736 
L 139.501382 328.021736 
L 139.603834 326.930039 
L 139.713876 326.930039 
L 139.820123 325.838343 
L 139.956726 325.838343 
L 139.960521 325.292494 
L 140.358948 325.292494 
L 150.32341 324.746646 
L 150.437246 324.200798 
L 150.486576 323.109101 
L 150.596617 323.109101 
L 150.611795 322.563252 
L 151.021606 322.563252 
L 151.036784 322.017404 
L 151.237894 322.017404 
L 151.347936 321.471556 
L 151.347936 321.471556 
L 151.35932 320.925707 
L 157.935258 320.925707 
L 157.988381 319.834011 
L 158.113601 319.834011 
L 158.223643 318.742314 
L 158.257794 318.742314 
L 158.375425 317.650617 
L 158.489261 317.650617 
L 158.489261 317.650617 
L 158.614481 317.104769 
L 158.792824 317.104769 
L 158.800413 316.55892 
L 158.959784 316.55892 
L 158.963578 316.013072 
L 166.844838 316.013072 
L 166.958675 314.921375 
L 167.106662 314.921375 
L 167.118045 314.375527 
L 167.273621 314.375527 
L 167.28121 313.829678 
L 167.482321 313.829678 
L 167.592363 312.737982 
L 167.725172 312.737982 
L 167.728966 312.192133 
L 175.189032 312.192133 
L 175.196621 311.646285 
L 175.428088 311.646285 
L 175.435677 311.100437 
L 175.598843 311.100437 
L 175.610226 310.554588 
L 175.78098 310.554588 
L 175.78857 310.00874 
L 175.902406 310.00874 
L 176.016242 309.462891 
L 176.023831 308.917043 
L 176.141462 308.917043 
L 176.145256 308.371195 
L 176.304627 308.371195 
L 176.418463 307.825346 
L 176.418463 307.825346 
L 176.445025 307.279498 
L 176.570245 307.279498 
L 176.684081 306.73365 
L 176.69167 306.187801 
L 176.824479 306.187801 
L 176.907959 305.096104 
L 177.006617 305.096104 
L 177.093891 304.550256 
L 178.858353 304.550256 
L 178.88112 304.004408 
L 187.225314 304.004408 
L 187.301205 302.912711 
L 187.418835 302.912711 
L 187.521288 302.366863 
L 187.680659 302.366863 
L 187.798289 301.275166 
L 187.893153 301.275166 
L 188.010784 300.729317 
L 192.799493 300.729317 
L 192.848822 299.637621 
L 192.993015 299.637621 
L 192.993015 299.637621 
L 193.11444 299.091772 
L 193.133413 299.091772 
L 193.144796 298.545924 
L 193.262427 298.545924 
L 193.262427 298.545924 
L 193.387647 297.454227 
L 193.467332 297.454227 
L 193.584963 296.36253 
L 194.427351 296.36253 
L 194.544982 295.816682 
L 197.2429 295.816682 
L 197.261873 295.270834 
L 198.237069 295.270834 
L 198.244658 294.724985 
L 198.445769 294.724985 
L 198.453358 294.179137 
L 198.567194 294.179137 
L 198.684825 293.08744 
L 198.787278 293.08744 
L 198.794867 292.541592 
L 203.048546 292.541592 
L 203.173766 291.995743 
L 205.454285 291.995743 
L 205.552943 291.449895 
L 205.970342 291.449895 
L 206.076589 290.358198 
L 214.371454 290.358198 
L 214.379043 289.81235 
L 215.85512 289.81235 
L 215.862709 289.266502 
L 216.170066 289.266502 
L 216.177655 288.720653 
L 216.355999 288.720653 
L 216.47363 287.628956 
L 216.595055 287.628956 
L 216.595055 287.628956 
L 216.606438 287.083108 
L 216.739247 287.083108 
L 216.8417 285.991411 
L 216.928974 285.991411 
L 216.928974 285.991411 
L 217.046605 284.899715 
L 241.282333 284.899715 
L 241.392375 284.353866 
L 241.616253 284.353866 
L 241.676966 283.262169 
L 241.88946 283.262169 
L 241.916022 282.170473 
L 242.060214 282.170473 
L 242.075392 281.624624 
L 242.21579 281.624624 
L 242.344805 280.532928 
L 242.432079 280.532928 
L 242.523148 279.441231 
L 242.621806 279.441231 
L 242.629395 278.895382 
L 271.84356 278.895382 
L 271.858738 278.349534 
L 271.983958 278.349534 
L 271.991547 277.803686 
L 272.109178 277.803686 
L 272.116767 277.257837 
L 272.610057 277.257837 
L 272.621441 276.711989 
L 272.742866 276.711989 
L 272.868086 275.620292 
L 273.202006 275.620292 
L 273.296869 275.074444 
L 302.825981 275.074444 
L 302.837365 274.528595 
L 302.981557 274.528595 
L 303.095393 273.436899 
L 303.220613 273.436899 
L 303.330655 272.89105 
L 303.338244 272.89105 
L 303.433107 271.799354 
L 320.546484 271.799354 
L 320.554073 271.253505 
L 320.683087 271.253505 
L 320.690676 270.707657 
L 320.823485 270.707657 
L 320.941116 269.61596 
L 321.085308 269.61596 
L 321.096692 269.070112 
L 343.253012 269.070112 
L 343.260601 268.524263 
L 343.385821 268.524263 
L 343.507246 267.432567 
L 343.605904 267.432567 
L 343.72733 266.34087 
L 343.829782 266.34087 
L 343.844961 265.795021 
L 343.962591 265.795021 
L 344.065044 265.249173 
L 371.571666 265.249173 
L 371.583049 264.703325 
L 371.723447 264.703325 
L 371.727242 264.157476 
L 371.863845 264.157476 
L 371.977682 263.06578 
L 372.11049 263.06578 
L 372.224327 261.974083 
L 372.345752 261.974083 
L 372.353341 261.428234 
L 389.231456 261.428234 
L 389.322525 260.336538 
L 389.474306 260.336538 
L 389.591937 259.244841 
L 389.717157 259.244841 
L 389.717157 259.244841 
L 389.808226 258.153144 
L 389.891706 258.153144 
L 389.899295 257.607296 
L 403.388885 257.607296 
L 403.506516 256.515599 
L 403.605174 256.515599 
L 403.703832 255.423902 
L 403.783518 255.423902 
L 403.897354 254.878054 
L 408.606378 254.878054 
L 409.027572 252.69466 
L 415.387221 252.69466 
L 415.391016 252.148812 
L 415.504852 252.148812 
L 415.652839 251.057115 
L 415.800826 251.057115 
L 415.808415 250.511267 
L 415.941224 250.511267 
L 416.051266 249.41957 
L 416.13854 249.41957 
L 416.271349 248.327873 
L 416.370007 248.327873 
L 416.468665 247.236177 
L 417.887823 247.236177 
L 417.887823 247.236177 
L 417.906796 246.690328 
L 419.743354 246.690328 
L 419.849601 245.598632 
L 429.753351 245.598632 
L 429.829241 244.506935 
L 429.935489 244.506935 
L 430.049325 243.415238 
L 430.155572 243.415238 
L 430.265614 242.86939 
L 430.276997 242.86939 
L 430.280792 242.323541 
L 430.402217 242.323541 
L 430.508464 241.231845 
L 430.584355 241.231845 
L 430.584355 241.231845 
L 430.713369 240.140148 
L 430.815822 240.140148 
L 430.918274 239.048451 
L 436.64803 239.048451 
L 437.228595 238.502603 
L 437.236184 237.956754 
L 437.357609 237.956754 
L 437.365198 237.410906 
L 437.490418 237.410906 
L 437.585282 236.319209 
L 437.687734 236.319209 
L 437.699118 235.773361 
L 453.374363 235.773361 
L 453.491994 235.227512 
L 453.526145 235.227512 
L 453.609625 234.135816 
L 453.693105 234.135816 
L 453.780379 233.044119 
L 453.886626 233.044119 
L 453.996668 232.498271 
L 454.008052 232.498271 
L 454.121888 231.952422 
L 465.513098 231.952422 
L 465.607961 230.860725 
L 465.710414 230.860725 
L 465.809072 230.314877 
L 465.831839 230.314877 
L 465.945675 229.22318 
L 466.051922 229.22318 
L 466.139197 228.131484 
L 466.23406 228.131484 
L 466.237855 227.585635 
L 466.351691 227.585635 
L 466.450349 227.039787 
L 466.469322 227.039787 
L 466.579363 225.94809 
L 477.401392 225.94809 
L 477.446926 224.856393 
L 477.575941 224.856393 
L 477.685982 223.764697 
L 477.761873 223.764697 
L 477.875709 222.673 
L 477.966778 222.673 
L 478.042669 221.581303 
L 478.148916 221.581303 
L 478.24378 220.489606 
L 478.338643 220.489606 
L 478.414534 219.39791 
L 478.482836 219.39791 
L 478.573905 218.306213 
L 494.203616 218.306213 
L 494.325041 217.760364 
L 494.742441 217.760364 
L 494.746235 217.214516 
L 494.898017 217.214516 
L 494.996675 216.122819 
L 495.072566 216.122819 
L 495.080155 215.576971 
L 495.20158 215.576971 
L 495.28506 214.485274 
L 495.387513 214.485274 
L 495.470992 213.393577 
L 495.550678 213.393577 
L 495.641747 212.301881 
L 495.717637 212.301881 
L 495.835268 211.756032 
L 504.722081 211.756032 
L 504.93837 210.664336 
L 505.086357 210.664336 
L 505.181221 209.572639 
L 505.257112 209.572639 
L 505.35577 208.480942 
L 505.446839 208.480942 
L 505.553086 207.935094 
L 510.762989 207.935094 
L 510.83888 206.843397 
L 510.941333 206.843397 
L 510.941333 206.843397 
L 511.032402 205.7517 
L 511.119676 205.7517 
L 511.248691 204.660003 
L 511.271458 204.660003 
L 511.275252 204.114155 
L 522.154199 204.114155 
L 522.264241 203.022458 
L 522.370488 203.022458 
L 522.461557 201.930762 
L 522.548831 201.930762 
L 522.548831 201.930762 
L 522.662667 200.839065 
L 522.753736 200.839065 
L 522.859984 199.747368 
L 533.902096 199.747368 
L 533.90589 199.20152 
L 534.11459 199.20152 
L 534.228426 198.655671 
L 534.531989 197.563975 
L 534.539578 197.563975 
L 534.653414 196.472278 
L 534.740689 196.472278 
L 534.755867 195.926429 
L 539.628057 195.926429 
L 539.741893 195.380581 
L 539.741893 195.380581 
L 539.757071 194.834733 
L 541.066187 194.834733 
L 541.191407 193.743036 
L 541.274887 193.743036 
L 541.384929 192.651339 
L 541.468409 192.651339 
L 541.563272 191.559642 
L 541.673314 191.559642 
L 541.756794 191.013794 
L 549.83537 191.013794 
L 586.502012 190.467946 
L 586.505806 189.922097 
L 586.623437 189.922097 
L 586.72589 188.8304 
L 586.805575 188.8304 
L 586.911822 187.738704 
L 587.025658 187.738704 
L 587.139495 187.192855 
L 587.150878 187.192855 
L 587.257125 186.101159 
L 587.363372 186.101159 
L 587.450647 185.009462 
L 608.510345 185.009462 
L 608.533112 184.463613 
L 608.874621 184.463613 
L 608.988457 183.371917 
L 609.064348 183.371917 
L 609.174389 182.28022 
L 609.314787 182.28022 
L 609.318582 181.734372 
L 638.05843 181.734372 
L 638.066019 181.188523 
L 638.418911 181.188523 
L 638.434089 180.642675 
L 638.597254 180.642675 
L 638.71109 180.096826 
L 638.718679 179.550978 
L 666.563015 179.550978 
L 666.688235 178.459281 
L 666.790688 178.459281 
L 666.885551 177.913433 
L 666.927291 177.913433 
L 667.041128 176.821736 
L 667.170142 176.821736 
L 667.287773 175.730039 
L 667.458527 175.730039 
L 667.466116 175.184191 
L 667.633076 175.184191 
L 667.633076 175.184191 
L 667.731734 174.638343 
L 700.588657 174.638343 
L 700.596247 174.092494 
L 700.717672 174.092494 
L 700.823919 173.000798 
L 700.964317 173.000798 
L 701.06677 171.909101 
L 701.173017 171.909101 
L 701.286853 170.817404 
L 701.446224 170.817404 
L 701.552471 169.725707 
L 701.64354 169.725707 
L 701.647334 169.179859 
L 725.666774 169.179859 
L 725.670568 168.634011 
L 725.803377 168.634011 
L 725.909624 167.542314 
L 726.053817 167.542314 
L 726.057611 166.996465 
L 733.20273 166.996465 
L 733.20273 166.996465 
L 733.32795 165.904769 
L 733.456965 165.904769 
L 733.57839 164.813072 
L 733.714993 164.813072 
L 733.855391 164.267224 
L 737.820686 164.267224 
L 737.926933 163.175527 
L 738.018002 163.175527 
L 738.131838 162.08383 
L 741.421705 162.08383 
L 741.531746 160.992133 
L 741.619021 160.992133 
L 741.732857 159.900437 
L 741.831515 159.900437 
L 741.835309 159.354588 
L 741.979502 159.354588 
L 741.983297 158.80874 
L 750.266778 158.80874 
L 750.380614 157.717043 
L 750.448916 157.717043 
L 750.543779 156.625346 
L 750.687972 156.625346 
L 750.798013 155.53365 
L 751.291304 155.53365 
L 751.302687 154.987801 
L 751.484825 154.987801 
L 751.5721 153.896104 
L 751.659374 153.896104 
L 751.769416 153.350256 
L 751.769416 153.350256 
L 751.883252 152.258559 
L 761.995702 152.258559 
L 762.394128 151.712711 
L 762.488992 150.621014 
L 762.591444 150.621014 
L 762.709075 149.529317 
L 762.784966 149.529317 
L 762.78876 148.983469 
L 762.910186 148.983469 
L 763.012638 147.891772 
L 763.12268 147.891772 
L 763.236516 146.800076 
L 763.312407 146.800076 
L 763.316202 146.254227 
L 773.952298 146.254227 
L 776.843737 145.708379 
L 777.572289 145.708379 
L 777.708893 145.16253 
L 777.727865 145.16253 
L 777.822729 144.616682 
L 777.89862 144.616682 
L 777.997278 144.070834 
L 778.027634 144.070834 
L 778.133881 143.524985 
L 778.832076 143.524985 
L 778.904173 142.979137 
L 780.274002 142.979137 
L 780.281591 142.433289 
L 781.112595 142.433289 
L 781.123979 141.88744 
L 781.602091 141.88744 
L 781.60968 141.341592 
L 781.723516 141.341592 
L 781.829763 140.795743 
L 783.54869 140.795743 
L 783.912966 140.249895 
L 783.912966 140.249895 
L 783.928144 139.704047 
L 784.102693 139.704047 
L 784.201351 139.158198 
L 788.242536 139.158198 
L 788.269098 138.61235 
L 788.37914 138.61235 
L 788.382934 138.066502 
L 788.527127 138.066502 
L 788.530921 137.520653 
L 788.659936 137.520653 
L 788.766183 135.883108 
L 788.853457 135.883108 
L 788.986266 134.791411 
L 789.092513 134.791411 
L 789.179788 133.699715 
L 789.274651 133.699715 
L 789.354336 133.153866 
L 796.412181 133.153866 
L 796.58673 132.608018 
L 796.689183 132.062169 
L 796.749895 132.062169 
L 796.859937 130.970473 
L 814.762578 130.970473 
L 814.846057 129.878776 
L 814.940921 129.878776 
L 815.050963 128.787079 
L 815.119264 128.787079 
L 815.119264 128.787079 
L 815.225511 127.695382 
L 815.320375 127.695382 
L 815.419033 126.603686 
L 815.498718 126.603686 
L 815.616349 125.511989 
L 815.711213 125.511989 
L 815.715007 124.966141 
L 815.862994 124.966141 
L 815.954063 123.874444 
L 816.033749 123.874444 
L 816.128612 122.782747 
L 816.223476 122.782747 
L 816.333517 121.145202 
L 816.390435 121.145202 
L 816.39423 120.599354 
L 830.559248 120.599354 
L 830.574427 120.053505 
L 830.809688 120.053505 
L 830.813483 119.507657 
L 830.995621 119.507657 
L 831.098073 118.961808 
L 843.119176 118.961808 
L 843.233013 117.870112 
L 843.312698 117.870112 
L 843.42274 117.324263 
L 843.430329 117.324263 
L 843.563138 116.232567 
L 843.642823 116.232567 
L 843.745276 115.14087 
L 843.83255 115.14087 
L 843.950181 114.049173 
L 844.010893 114.049173 
L 844.105757 112.957476 
L 846.067534 112.957476 
L 847.084471 112.411628 
L 847.186924 111.319931 
L 847.293171 111.319931 
L 847.418391 110.228234 
L 847.505665 110.228234 
L 847.596734 109.136538 
L 849.346017 109.136538 
L 856.642918 108.590689 
L 856.752959 107.498993 
L 856.863001 107.498993 
L 856.866796 106.953144 
L 856.984426 106.953144 
L 857.094468 105.861447 
L 857.231071 105.861447 
L 857.238661 105.315599 
L 857.386648 105.315599 
L 857.390442 104.769751 
L 857.511867 104.769751 
L 857.621909 103.678054 
L 857.743334 103.678054 
L 857.841992 103.132206 
L 866.413859 103.132206 
L 867.15 102.586357 
L 870.079385 102.586357 
L 870.15907 101.49466 
L 870.24255 101.49466 
L 870.345002 100.402964 
L 870.413304 100.402964 
L 870.489195 99.857115 
L 870.56888 99.857115 
L 870.663744 98.765419 
L 871.168418 98.765419 
L 871.282254 97.673722 
L 871.339172 97.673722 
L 871.456803 96.582025 
L 871.532694 96.582025 
L 871.597201 96.036177 
L 874.629038 96.036177 
L 874.723902 94.94448 
L 874.811176 94.94448 
L 874.90604 93.852783 
L 874.978136 93.852783 
L 875.057821 92.761086 
L 875.133712 92.761086 
L 875.152685 92.215238 
L 877.289011 92.215238 
L 900.469857 91.66939 
L 900.576104 91.123541 
L 900.606461 91.123541 
L 900.701324 90.577693 
L 900.727886 90.577693 
L 900.837927 89.485996 
L 900.98212 89.485996 
L 901.092162 88.940148 
L 901.118723 88.940148 
L 901.228765 87.848451 
L 901.327423 87.848451 
L 901.426081 86.210906 
L 901.490588 86.210906 
L 901.494383 85.665058 
L 952.997677 85.665058 
L 953.103924 85.119209 
L 953.153253 85.119209 
L 953.2595 84.027512 
L 953.361953 84.027512 
L 953.361953 84.027512 
L 953.369542 83.481664 
L 953.487173 83.481664 
L 953.597214 82.935816 
L 953.604804 82.935816 
L 953.71864 82.389967 
L 953.730023 82.389967 
L 953.790736 81.844119 
L 982.872092 81.844119 
L 982.879681 81.298271 
L 983.027668 81.298271 
L 983.130121 80.206574 
L 983.289492 80.206574 
L 983.297081 79.660725 
L 983.418506 79.660725 
L 983.486808 79.114877 
L 1000.209346 79.114877 
L 1000.22073 78.569029 
L 1000.395279 78.569029 
L 1000.399073 78.02318 
L 1000.75576 78.02318 
L 1000.88098 76.931484 
L 1001.017583 76.931484 
L 1001.120036 76.385635 
L 1001.139009 75.839787 
L 1001.271818 75.839787 
L 1020.711247 75.293938 
L 1020.715042 74.74809 
L 1020.836467 74.74809 
L 1020.954098 74.202242 
L 1020.965481 74.202242 
L 1020.965481 74.202242 
L 1021.094496 73.110545 
L 1042.700607 73.110545 
L 1042.799265 72.564697 
L 1042.852389 72.564697 
L 1042.859978 72.018848 
L 1042.985198 72.018848 
L 1043.09524 70.927151 
L 1043.186309 70.927151 
L 1043.258405 69.835455 
L 1043.330501 69.835455 
L 1043.42157 68.743758 
L 1058.888116 68.743758 
L 1058.903294 68.19791 
L 1059.093021 68.19791 
L 1059.206857 67.106213 
L 1059.335872 67.106213 
L 1059.47627 66.014516 
L 1059.578722 66.014516 
L 1059.684969 64.922819 
L 1068.146794 64.922819 
L 1068.230274 64.376971 
L 1068.363083 64.376971 
L 1068.480714 63.831123 
L 1071.596031 63.831123 
L 1071.611209 63.285274 
L 1072.886175 63.285274 
L 1072.969655 62.193577 
L 1073.034162 62.193577 
L 1073.113847 61.101881 
L 1073.242861 61.101881 
L 1073.364287 60.556032 
L 1073.37567 60.556032 
L 1073.497096 59.464336 
L 1073.591959 59.464336 
L 1073.705795 58.918487 
L 1073.823426 57.82679 
L 1076.195014 57.82679 
L 1078.429998 57.280942 
L 1080.156514 57.280942 
L 1080.266555 56.735094 
L 1084.59992 56.735094 
L 1084.717551 56.189245 
L 1084.747907 56.189245 
L 1084.869333 55.097549 
L 1084.956607 55.097549 
L 1085.070443 54.005852 
L 1085.169101 54.005852 
L 1085.172896 53.460003 
L 1085.290527 53.460003 
L 1085.381596 52.914155 
L 1091.141708 52.914155 
L 1092.059986 52.368307 
L 1092.177617 51.27661 
L 1092.264892 51.27661 
L 1092.367344 50.184913 
L 1092.447029 50.184913 
L 1092.549482 49.093216 
L 1092.568455 49.093216 
L 1092.572249 48.547368 
L 1100.677387 48.547368 
L 1100.984745 47.455671 
L 1101.06443 47.455671 
L 1101.155499 46.363975 
L 1101.216212 46.363975 
L 1101.337637 44.726429 
L 1101.409733 44.726429 
L 1101.489419 43.634733 
L 1106.593075 43.634733 
L 1107.253325 43.088884 
L 1107.887014 43.088884 
L 1107.989466 41.997187 
L 1108.053973 41.997187 
L 1108.053973 41.997187 
" clip-path="url(#pe93b3138e7)" style="fill: none; stroke: #0000ff; stroke-width: 1.5; stroke-linecap: square"/>
   </g>
   <g id="patch_78">
    <path d="M 49.235 359.517187 
L 49.235 26.877187 
" style="fill: none; stroke: #000000; stroke-width: 0.8; stroke-linejoin: miter; stroke-linecap: square"/>
   </g>
   <g id="patch_79">
    <path d="M 1165.235 359.517187 
L 1165.235 26.877187 
" style="fill: none; stroke: #000000; stroke-width: 0.8; stroke-linejoin: miter; stroke-linecap: square"/>
   </g>
   <g id="patch_80">
    <path d="M 49.235 359.517187 
L 1165.235 359.517187 
" style="fill: none; stroke: #000000; stroke-width: 0.8; stroke-linejoin: miter; stroke-linecap: square"/>
   </g>
   <g id="patch_81">
    <path d="M 49.235 26.877187 
L 1165.235 26.877187 
" style="fill: none; stroke: #000000; stroke-width: 0.8; stroke-linejoin: miter; stroke-linecap: square"/>
   </g>
   <g id="text_16">
    <!-- Pellet Count and Cumulative Sum Over Time of Group 9 Mouse 1 -->
    <g transform="translate(315.460625 20.877187) scale(0.18 -0.18)">
     <defs>
      <path id="DejaVuSans-61" d="M 2194 1759 
Q 1497 1759 1228 1600 
Q 959 1441 959 1056 
Q 959 750 1161 570 
Q 1363 391 1709 391 
Q 2188 391 2477 730 
Q 2766 1069 2766 1631 
L 2766 1759 
L 2194 1759 
z
M 3341 1997 
L 3341 0 
L 2766 0 
L 2766 531 
Q 2569 213 2275 61 
Q 1981 -91 1556 -91 
Q 1019 -91 701 211 
Q 384 513 384 1019 
Q 384 1609 779 1909 
Q 1175 2209 1959 2209 
L 2766 2209 
L 2766 2266 
Q 2766 2663 2505 2880 
Q 2244 3097 1772 3097 
Q 1472 3097 1187 3025 
Q 903 2953 641 2809 
L 641 3341 
Q 956 3463 1253 3523 
Q 1550 3584 1831 3584 
Q 2591 3584 2966 3190 
Q 3341 2797 3341 1997 
z
" transform="scale(0.015625)"/>
      <path id="DejaVuSans-64" d="M 2906 2969 
L 2906 4863 
L 3481 4863 
L 3481 0 
L 2906 0 
L 2906 525 
Q 2725 213 2448 61 
Q 2172 -91 1784 -91 
Q 1150 -91 751 415 
Q 353 922 353 1747 
Q 353 2572 751 3078 
Q 1150 3584 1784 3584 
Q 2172 3584 2448 3432 
Q 2725 3281 2906 2969 
z
M 947 1747 
Q 947 1113 1208 752 
Q 1469 391 1925 391 
Q 2381 391 2643 752 
Q 2906 1113 2906 1747 
Q 2906 2381 2643 2742 
Q 2381 3103 1925 3103 
Q 1469 3103 1208 2742 
Q 947 2381 947 1747 
z
" transform="scale(0.015625)"/>
      <path id="DejaVuSans-76" d="M 191 3500 
L 800 3500 
L 1894 563 
L 2988 3500 
L 3597 3500 
L 2284 0 
L 1503 0 
L 191 3500 
z
" transform="scale(0.015625)"/>
      <path id="DejaVuSans-53" d="M 3425 4513 
L 3425 3897 
Q 3066 4069 2747 4153 
Q 2428 4238 2131 4238 
Q 1616 4238 1336 4038 
Q 1056 3838 1056 3469 
Q 1056 3159 1242 3001 
Q 1428 2844 1947 2747 
L 2328 2669 
Q 3034 2534 3370 2195 
Q 3706 1856 3706 1288 
Q 3706 609 3251 259 
Q 2797 -91 1919 -91 
Q 1588 -91 1214 -16 
Q 841 59 441 206 
L 441 856 
Q 825 641 1194 531 
Q 1563 422 1919 422 
Q 2459 422 2753 634 
Q 3047 847 3047 1241 
Q 3047 1584 2836 1778 
Q 2625 1972 2144 2069 
L 1759 2144 
Q 1053 2284 737 2584 
Q 422 2884 422 3419 
Q 422 4038 858 4394 
Q 1294 4750 2059 4750 
Q 2388 4750 2728 4690 
Q 3069 4631 3425 4513 
z
" transform="scale(0.015625)"/>
      <path id="DejaVuSans-4f" d="M 2522 4238 
Q 1834 4238 1429 3725 
Q 1025 3213 1025 2328 
Q 1025 1447 1429 934 
Q 1834 422 2522 422 
Q 3209 422 3611 934 
Q 4013 1447 4013 2328 
Q 4013 3213 3611 3725 
Q 3209 4238 2522 4238 
z
M 2522 4750 
Q 3503 4750 4090 4092 
Q 4678 3434 4678 2328 
Q 4678 1225 4090 567 
Q 3503 -91 2522 -91 
Q 1538 -91 948 565 
Q 359 1222 359 2328 
Q 359 3434 948 4092 
Q 1538 4750 2522 4750 
z
" transform="scale(0.015625)"/>
      <path id="DejaVuSans-72" d="M 2631 2963 
Q 2534 3019 2420 3045 
Q 2306 3072 2169 3072 
Q 1681 3072 1420 2755 
Q 1159 2438 1159 1844 
L 1159 0 
L 581 0 
L 581 3500 
L 1159 3500 
L 1159 2956 
Q 1341 3275 1631 3429 
Q 1922 3584 2338 3584 
Q 2397 3584 2469 3576 
Q 2541 3569 2628 3553 
L 2631 2963 
z
" transform="scale(0.015625)"/>
      <path id="DejaVuSans-66" d="M 2375 4863 
L 2375 4384 
L 1825 4384 
Q 1516 4384 1395 4259 
Q 1275 4134 1275 3809 
L 1275 3500 
L 2222 3500 
L 2222 3053 
L 1275 3053 
L 1275 0 
L 697 0 
L 697 3053 
L 147 3053 
L 147 3500 
L 697 3500 
L 697 3744 
Q 697 4328 969 4595 
Q 1241 4863 1831 4863 
L 2375 4863 
z
" transform="scale(0.015625)"/>
      <path id="DejaVuSans-47" d="M 3809 666 
L 3809 1919 
L 2778 1919 
L 2778 2438 
L 4434 2438 
L 4434 434 
Q 4069 175 3628 42 
Q 3188 -91 2688 -91 
Q 1594 -91 976 548 
Q 359 1188 359 2328 
Q 359 3472 976 4111 
Q 1594 4750 2688 4750 
Q 3144 4750 3555 4637 
Q 3966 4525 4313 4306 
L 4313 3634 
Q 3963 3931 3569 4081 
Q 3175 4231 2741 4231 
Q 1884 4231 1454 3753 
Q 1025 3275 1025 2328 
Q 1025 1384 1454 906 
Q 1884 428 2741 428 
Q 3075 428 3337 486 
Q 3600 544 3809 666 
z
" transform="scale(0.015625)"/>
      <path id="DejaVuSans-70" d="M 1159 525 
L 1159 -1331 
L 581 -1331 
L 581 3500 
L 1159 3500 
L 1159 2969 
Q 1341 3281 1617 3432 
Q 1894 3584 2278 3584 
Q 2916 3584 3314 3078 
Q 3713 2572 3713 1747 
Q 3713 922 3314 415 
Q 2916 -91 2278 -91 
Q 1894 -91 1617 61 
Q 1341 213 1159 525 
z
M 3116 1747 
Q 3116 2381 2855 2742 
Q 2594 3103 2138 3103 
Q 1681 3103 1420 2742 
Q 1159 2381 1159 1747 
Q 1159 1113 1420 752 
Q 1681 391 2138 391 
Q 2594 391 2855 752 
Q 3116 1113 3116 1747 
z
" transform="scale(0.015625)"/>
      <path id="DejaVuSans-4d" d="M 628 4666 
L 1569 4666 
L 2759 1491 
L 3956 4666 
L 4897 4666 
L 4897 0 
L 4281 0 
L 4281 4097 
L 3078 897 
L 2444 897 
L 1241 4097 
L 1241 0 
L 628 0 
L 628 4666 
z
" transform="scale(0.015625)"/>
      <path id="DejaVuSans-73" d="M 2834 3397 
L 2834 2853 
Q 2591 2978 2328 3040 
Q 2066 3103 1784 3103 
Q 1356 3103 1142 2972 
Q 928 2841 928 2578 
Q 928 2378 1081 2264 
Q 1234 2150 1697 2047 
L 1894 2003 
Q 2506 1872 2764 1633 
Q 3022 1394 3022 966 
Q 3022 478 2636 193 
Q 2250 -91 1575 -91 
Q 1294 -91 989 -36 
Q 684 19 347 128 
L 347 722 
Q 666 556 975 473 
Q 1284 391 1588 391 
Q 1994 391 2212 530 
Q 2431 669 2431 922 
Q 2431 1156 2273 1281 
Q 2116 1406 1581 1522 
L 1381 1569 
Q 847 1681 609 1914 
Q 372 2147 372 2553 
Q 372 3047 722 3315 
Q 1072 3584 1716 3584 
Q 2034 3584 2315 3537 
Q 2597 3491 2834 3397 
z
" transform="scale(0.015625)"/>
     </defs>
     <use xlink:href="#DejaVuSans-50"/>
     <use xlink:href="#DejaVuSans-65" x="56.677734"/>
     <use xlink:href="#DejaVuSans-6c" x="118.201172"/>
     <use xlink:href="#DejaVuSans-6c" x="145.984375"/>
     <use xlink:href="#DejaVuSans-65" x="173.767578"/>
     <use xlink:href="#DejaVuSans-74" x="235.291016"/>
     <use xlink:href="#DejaVuSans-20" x="274.5"/>
     <use xlink:href="#DejaVuSans-43" x="306.287109"/>
     <use xlink:href="#DejaVuSans-6f" x="376.111328"/>
     <use xlink:href="#DejaVuSans-75" x="437.292969"/>
     <use xlink:href="#DejaVuSans-6e" x="500.671875"/>
     <use xlink:href="#DejaVuSans-74" x="564.050781"/>
     <use xlink:href="#DejaVuSans-20" x="603.259766"/>
     <use xlink:href="#DejaVuSans-61" x="635.046875"/>
     <use xlink:href="#DejaVuSans-6e" x="696.326172"/>
     <use xlink:href="#DejaVuSans-64" x="759.705078"/>
     <use xlink:href="#DejaVuSans-20" x="823.181641"/>
     <use xlink:href="#DejaVuSans-43" x="854.96875"/>
     <use xlink:href="#DejaVuSans-75" x="924.792969"/>
     <use xlink:href="#DejaVuSans-6d" x="988.171875"/>
     <use xlink:href="#DejaVuSans-75" x="1085.583984"/>
     <use xlink:href="#DejaVuSans-6c" x="1148.962891"/>
     <use xlink:href="#DejaVuSans-61" x="1176.746094"/>
     <use xlink:href="#DejaVuSans-74" x="1238.025391"/>
     <use xlink:href="#DejaVuSans-69" x="1277.234375"/>
     <use xlink:href="#DejaVuSans-76" x="1305.017578"/>
     <use xlink:href="#DejaVuSans-65" x="1364.197266"/>
     <use xlink:href="#DejaVuSans-20" x="1425.720703"/>
     <use xlink:href="#DejaVuSans-53" x="1457.507812"/>
     <use xlink:href="#DejaVuSans-75" x="1520.984375"/>
     <use xlink:href="#DejaVuSans-6d" x="1584.363281"/>
     <use xlink:href="#DejaVuSans-20" x="1681.775391"/>
     <use xlink:href="#DejaVuSans-4f" x="1713.5625"/>
     <use xlink:href="#DejaVuSans-76" x="1792.273438"/>
     <use xlink:href="#DejaVuSans-65" x="1851.453125"/>
     <use xlink:href="#DejaVuSans-72" x="1912.976562"/>
     <use xlink:href="#DejaVuSans-20" x="1954.089844"/>
     <use xlink:href="#DejaVuSans-54" x="1985.876953"/>
     <use xlink:href="#DejaVuSans-69" x="2043.835938"/>
     <use xlink:href="#DejaVuSans-6d" x="2071.619141"/>
     <use xlink:href="#DejaVuSans-65" x="2169.03125"/>
     <use xlink:href="#DejaVuSans-20" x="2230.554688"/>
     <use xlink:href="#DejaVuSans-6f" x="2262.341797"/>
     <use xlink:href="#DejaVuSans-66" x="2323.523438"/>
     <use xlink:href="#DejaVuSans-20" x="2358.728516"/>
     <use xlink:href="#DejaVuSans-47" x="2390.515625"/>
     <use xlink:href="#DejaVuSans-72" x="2468.005859"/>
     <use xlink:href="#DejaVuSans-6f" x="2506.869141"/>
     <use xlink:href="#DejaVuSans-75" x="2568.050781"/>
     <use xlink:href="#DejaVuSans-70" x="2631.429688"/>
     <use xlink:href="#DejaVuSans-20" x="2694.90625"/>
     <use xlink:href="#DejaVuSans-39" x="2726.693359"/>
     <use xlink:href="#DejaVuSans-20" x="2790.316406"/>
     <use xlink:href="#DejaVuSans-4d" x="2822.103516"/>
     <use xlink:href="#DejaVuSans-6f" x="2908.382812"/>
     <use xlink:href="#DejaVuSans-75" x="2969.564453"/>
     <use xlink:href="#DejaVuSans-73" x="3032.943359"/>
     <use xlink:href="#DejaVuSans-65" x="3085.042969"/>
     <use xlink:href="#DejaVuSans-20" x="3146.566406"/>
     <use xlink:href="#DejaVuSans-31" x="3178.353516"/>
    </g>
   </g>
   <g id="legend_1">
    <g id="patch_82">
     <path d="M 1086.550625 64.233437 
L 1158.235 64.233437 
Q 1160.235 64.233437 1160.235 62.233437 
L 1160.235 33.877187 
Q 1160.235 31.877187 1158.235 31.877187 
L 1086.550625 31.877187 
Q 1084.550625 31.877187 1084.550625 33.877187 
L 1084.550625 62.233437 
Q 1084.550625 64.233437 1086.550625 64.233437 
z
" style="fill: #ffffff; opacity: 0.8; stroke: #cccccc; stroke-linejoin: miter"/>
    </g>
    <g id="patch_83">
     <path d="M 1088.550625 43.475625 
L 1108.550625 43.475625 
L 1108.550625 36.475625 
L 1088.550625 36.475625 
z
" style="fill: #add8e6; opacity: 0.9; stroke: #add8e6; stroke-linejoin: miter"/>
    </g>
    <g id="text_17">
     <!-- Meal -->
     <g transform="translate(1116.550625 43.475625) scale(0.1 -0.1)">
      <use xlink:href="#DejaVuSans-4d"/>
      <use xlink:href="#DejaVuSans-65" x="86.279297"/>
      <use xlink:href="#DejaVuSans-61" x="147.802734"/>
      <use xlink:href="#DejaVuSans-6c" x="209.082031"/>
     </g>
    </g>
    <g id="patch_84">
     <path d="M 1088.550625 58.15375 
L 1108.550625 58.15375 
L 1108.550625 51.15375 
L 1088.550625 51.15375 
z
" style="fill: #808080; opacity: 0.5; stroke: #808080; stroke-linejoin: miter"/>
    </g>
    <g id="text_18">
     <!-- Inactive -->
     <g transform="translate(1116.550625 58.15375) scale(0.1 -0.1)">
      <defs>
       <path id="DejaVuSans-49" d="M 628 4666 
L 1259 4666 
L 1259 0 
L 628 0 
L 628 4666 
z
" transform="scale(0.015625)"/>
       <path id="DejaVuSans-63" d="M 3122 3366 
L 3122 2828 
Q 2878 2963 2633 3030 
Q 2388 3097 2138 3097 
Q 1578 3097 1268 2742 
Q 959 2388 959 1747 
Q 959 1106 1268 751 
Q 1578 397 2138 397 
Q 2388 397 2633 464 
Q 2878 531 3122 666 
L 3122 134 
Q 2881 22 2623 -34 
Q 2366 -91 2075 -91 
Q 1284 -91 818 406 
Q 353 903 353 1747 
Q 353 2603 823 3093 
Q 1294 3584 2113 3584 
Q 2378 3584 2631 3529 
Q 2884 3475 3122 3366 
z
" transform="scale(0.015625)"/>
      </defs>
      <use xlink:href="#DejaVuSans-49"/>
      <use xlink:href="#DejaVuSans-6e" x="29.492188"/>
      <use xlink:href="#DejaVuSans-61" x="92.871094"/>
      <use xlink:href="#DejaVuSans-63" x="154.150391"/>
      <use xlink:href="#DejaVuSans-74" x="209.130859"/>
      <use xlink:href="#DejaVuSans-69" x="248.339844"/>
      <use xlink:href="#DejaVuSans-76" x="276.123047"/>
      <use xlink:href="#DejaVuSans-65" x="335.302734"/>
     </g>
    </g>
   </g>
  </g>
 </g>
 <defs>
  <clipPath id="pe93b3138e7">
   <rect x="49.235" y="26.877187" width="1116" height="332.64"/>
  </clipPath>
 </defs>
</svg>
