<?xml version="1.0" encoding="utf-8" standalone="no"?>
<!DOCTYPE svg PUBLIC "-//W3C//DTD SVG 1.1//EN"
  "http://www.w3.org/Graphics/SVG/1.1/DTD/svg11.dtd">
<svg xmlns:xlink="http://www.w3.org/1999/xlink" width="1172.435pt" height="399.009062pt" viewBox="0 0 1172.435 399.009062" xmlns="http://www.w3.org/2000/svg" version="1.1">
 <metadata>
  <rdf:RDF xmlns:dc="http://purl.org/dc/elements/1.1/" xmlns:cc="http://creativecommons.org/ns#" xmlns:rdf="http://www.w3.org/1999/02/22-rdf-syntax-ns#">
   <cc:Work>
    <dc:type rdf:resource="http://purl.org/dc/dcmitype/StillImage"/>
    <dc:date>2025-07-28T22:26:56.333542</dc:date>
    <dc:format>image/svg+xml</dc:format>
    <dc:creator>
     <cc:Agent>
      <dc:title>Matplotlib v3.8.4, https://matplotlib.org/</dc:title>
     </cc:Agent>
    </dc:creator>
   </cc:Work>
  </rdf:RDF>
 </metadata>
 <defs>
  <style type="text/css">*{stroke-linejoin: round; stroke-linecap: butt}</style>
 </defs>
 <g id="figure_1">
  <g id="patch_1">
   <path d="M 0 399.009062 
L 1172.435 399.009062 
L 1172.435 0 
L 0 0 
z
" style="fill: #ffffff"/>
  </g>
  <g id="axes_1">
   <g id="patch_2">
    <path d="M 49.235 359.517187 
L 1165.235 359.517187 
L 1165.235 26.877187 
L 49.235 26.877187 
z
" style="fill: #ffffff"/>
   </g>
   <g id="patch_3">
    <path d="M 117.046915 359.517187 
L 117.046915 26.877187 
L 116.969677 26.877187 
L 116.969677 359.517187 
z
" clip-path="url(#p8358f4c346)" style="fill: #add8e6; stroke: #add8e6; stroke-linejoin: miter"/>
   </g>
   <g id="patch_4">
    <path d="M 117.907129 359.517187 
L 117.907129 26.877187 
L 117.658 26.877187 
L 117.658 359.517187 
z
" clip-path="url(#p8358f4c346)" style="fill: #add8e6; stroke: #add8e6; stroke-linejoin: miter"/>
   </g>
   <g id="patch_5">
    <path d="M 125.389327 359.517187 
L 125.389327 26.877187 
L 125.463536 26.877187 
L 125.463536 359.517187 
z
" clip-path="url(#p8358f4c346)" style="fill: #add8e6; stroke: #add8e6; stroke-linejoin: miter"/>
   </g>
   <g id="patch_6">
    <path d="M 125.763399 359.517187 
L 125.763399 26.877187 
L 125.360552 26.877187 
L 125.360552 359.517187 
z
" clip-path="url(#p8358f4c346)" style="fill: #add8e6; stroke: #add8e6; stroke-linejoin: miter"/>
   </g>
   <g id="patch_7">
    <path d="M 140.866368 359.517187 
L 140.866368 26.877187 
L 129.316326 26.877187 
L 129.316326 359.517187 
z
" clip-path="url(#p8358f4c346)" style="fill: #add8e6; stroke: #add8e6; stroke-linejoin: miter"/>
   </g>
   <g id="patch_8">
    <path d="M 133.310719 359.517187 
L 133.310719 26.877187 
L 133.279673 26.877187 
L 133.279673 359.517187 
z
" clip-path="url(#p8358f4c346)" style="fill: #add8e6; stroke: #add8e6; stroke-linejoin: miter"/>
   </g>
   <g id="patch_9">
    <path d="M 136.803068 359.517187 
L 136.803068 26.877187 
L 136.995404 26.877187 
L 136.995404 359.517187 
z
" clip-path="url(#p8358f4c346)" style="fill: #add8e6; stroke: #add8e6; stroke-linejoin: miter"/>
   </g>
   <g id="patch_10">
    <path d="M 138.113077 359.517187 
L 138.113077 26.877187 
L 137.328586 26.877187 
L 137.328586 359.517187 
z
" clip-path="url(#p8358f4c346)" style="fill: #add8e6; stroke: #add8e6; stroke-linejoin: miter"/>
   </g>
   <g id="patch_11">
    <path d="M 142.345997 359.517187 
L 142.345997 26.877187 
L 142.4876 26.877187 
L 142.4876 359.517187 
z
" clip-path="url(#p8358f4c346)" style="fill: #add8e6; stroke: #add8e6; stroke-linejoin: miter"/>
   </g>
   <g id="patch_12">
    <path d="M 144.874391 359.517187 
L 144.874391 26.877187 
L 145.350689 26.877187 
L 145.350689 359.517187 
z
" clip-path="url(#p8358f4c346)" style="fill: #add8e6; stroke: #add8e6; stroke-linejoin: miter"/>
   </g>
   <g id="patch_13">
    <path d="M 146.581947 359.517187 
L 146.581947 26.877187 
L 146.786399 26.877187 
L 146.786399 359.517187 
z
" clip-path="url(#p8358f4c346)" style="fill: #add8e6; stroke: #add8e6; stroke-linejoin: miter"/>
   </g>
   <g id="patch_14">
    <path d="M 158.727172 359.517187 
L 158.727172 26.877187 
L 153.153196 26.877187 
L 153.153196 359.517187 
z
" clip-path="url(#p8358f4c346)" style="fill: #add8e6; stroke: #add8e6; stroke-linejoin: miter"/>
   </g>
   <g id="patch_15">
    <path d="M 153.501522 359.517187 
L 153.501522 26.877187 
L 153.596176 26.877187 
L 153.596176 359.517187 
z
" clip-path="url(#p8358f4c346)" style="fill: #add8e6; stroke: #add8e6; stroke-linejoin: miter"/>
   </g>
   <g id="patch_16">
    <path d="M 154.866809 359.517187 
L 154.866809 26.877187 
L 154.665386 26.877187 
L 154.665386 359.517187 
z
" clip-path="url(#p8358f4c346)" style="fill: #add8e6; stroke: #add8e6; stroke-linejoin: miter"/>
   </g>
   <g id="patch_17">
    <path d="M 169.023997 359.517187 
L 169.023997 26.877187 
L 156.042032 26.877187 
L 156.042032 359.517187 
z
" clip-path="url(#p8358f4c346)" style="fill: #add8e6; stroke: #add8e6; stroke-linejoin: miter"/>
   </g>
   <g id="patch_18">
    <path d="M 166.110173 359.517187 
L 166.110173 26.877187 
L 160.279495 26.877187 
L 160.279495 359.517187 
z
" clip-path="url(#p8358f4c346)" style="fill: #add8e6; stroke: #add8e6; stroke-linejoin: miter"/>
   </g>
   <g id="patch_19">
    <path d="M 176.413813 359.517187 
L 176.413813 26.877187 
L 176.665971 26.877187 
L 176.665971 359.517187 
z
" clip-path="url(#p8358f4c346)" style="fill: #add8e6; stroke: #add8e6; stroke-linejoin: miter"/>
   </g>
   <g id="patch_20">
    <path d="M 178.570406 359.517187 
L 178.570406 26.877187 
L 178.808934 26.877187 
L 178.808934 359.517187 
z
" clip-path="url(#p8358f4c346)" style="fill: #add8e6; stroke: #add8e6; stroke-linejoin: miter"/>
   </g>
   <g id="patch_21">
    <path d="M 192.626883 359.517187 
L 192.626883 26.877187 
L 179.882687 26.877187 
L 179.882687 359.517187 
z
" clip-path="url(#p8358f4c346)" style="fill: #add8e6; stroke: #add8e6; stroke-linejoin: miter"/>
   </g>
   <g id="patch_22">
    <path d="M 196.935526 359.517187 
L 196.935526 26.877187 
L 184.01111 26.877187 
L 184.01111 359.517187 
z
" clip-path="url(#p8358f4c346)" style="fill: #add8e6; stroke: #add8e6; stroke-linejoin: miter"/>
   </g>
   <g id="patch_23">
    <path d="M 204.911439 359.517187 
L 204.911439 26.877187 
L 203.874789 26.877187 
L 203.874789 359.517187 
z
" clip-path="url(#p8358f4c346)" style="fill: #add8e6; stroke: #add8e6; stroke-linejoin: miter"/>
   </g>
   <g id="patch_24">
    <path d="M 204.21933 359.517187 
L 204.21933 26.877187 
L 204.361689 26.877187 
L 204.361689 359.517187 
z
" clip-path="url(#p8358f4c346)" style="fill: #add8e6; stroke: #add8e6; stroke-linejoin: miter"/>
   </g>
   <g id="patch_25">
    <path d="M 204.649437 359.517187 
L 204.649437 26.877187 
L 204.599459 26.877187 
L 204.599459 359.517187 
z
" clip-path="url(#p8358f4c346)" style="fill: #add8e6; stroke: #add8e6; stroke-linejoin: miter"/>
   </g>
   <g id="patch_26">
    <path d="M 206.571289 359.517187 
L 206.571289 26.877187 
L 206.527369 26.877187 
L 206.527369 359.517187 
z
" clip-path="url(#p8358f4c346)" style="fill: #add8e6; stroke: #add8e6; stroke-linejoin: miter"/>
   </g>
   <g id="patch_27">
    <path d="M 211.650793 359.517187 
L 211.650793 26.877187 
L 210.726971 26.877187 
L 210.726971 359.517187 
z
" clip-path="url(#p8358f4c346)" style="fill: #add8e6; stroke: #add8e6; stroke-linejoin: miter"/>
   </g>
   <g id="patch_28">
    <path d="M 212.744234 359.517187 
L 212.744234 26.877187 
L 212.948687 26.877187 
L 212.948687 359.517187 
z
" clip-path="url(#p8358f4c346)" style="fill: #add8e6; stroke: #add8e6; stroke-linejoin: miter"/>
   </g>
   <g id="patch_29">
    <path d="M 226.009404 359.517187 
L 226.009404 26.877187 
L 219.139806 26.877187 
L 219.139806 359.517187 
z
" clip-path="url(#p8358f4c346)" style="fill: #add8e6; stroke: #add8e6; stroke-linejoin: miter"/>
   </g>
   <g id="patch_30">
    <path d="M 223.826308 359.517187 
L 223.826308 26.877187 
L 224.33971 26.877187 
L 224.33971 359.517187 
z
" clip-path="url(#p8358f4c346)" style="fill: #add8e6; stroke: #add8e6; stroke-linejoin: miter"/>
   </g>
   <g id="patch_31">
    <path d="M 241.733303 359.517187 
L 241.733303 26.877187 
L 228.562029 26.877187 
L 228.562029 359.517187 
z
" clip-path="url(#p8358f4c346)" style="fill: #add8e6; stroke: #add8e6; stroke-linejoin: miter"/>
   </g>
   <g id="patch_32">
    <path d="M 229.849322 359.517187 
L 229.849322 26.877187 
L 230.38317 26.877187 
L 230.38317 359.517187 
z
" clip-path="url(#p8358f4c346)" style="fill: #add8e6; stroke: #add8e6; stroke-linejoin: miter"/>
   </g>
   <g id="patch_33">
    <path d="M 243.848248 359.517187 
L 243.848248 26.877187 
L 243.549142 26.877187 
L 243.549142 359.517187 
z
" clip-path="url(#p8358f4c346)" style="fill: #add8e6; stroke: #add8e6; stroke-linejoin: miter"/>
   </g>
   <g id="patch_34">
    <path d="M 244.567618 359.517187 
L 244.567618 26.877187 
L 244.190517 26.877187 
L 244.190517 359.517187 
z
" clip-path="url(#p8358f4c346)" style="fill: #add8e6; stroke: #add8e6; stroke-linejoin: miter"/>
   </g>
   <g id="patch_35">
    <path d="M 262.048292 359.517187 
L 262.048292 26.877187 
L 262.068737 26.877187 
L 262.068737 359.517187 
z
" clip-path="url(#p8358f4c346)" style="fill: #add8e6; stroke: #add8e6; stroke-linejoin: miter"/>
   </g>
   <g id="patch_36">
    <path d="M 277.126272 359.517187 
L 277.126272 26.877187 
L 266.064644 26.877187 
L 266.064644 359.517187 
z
" clip-path="url(#p8358f4c346)" style="fill: #add8e6; stroke: #add8e6; stroke-linejoin: miter"/>
   </g>
   <g id="patch_37">
    <path d="M 276.272873 359.517187 
L 276.272873 26.877187 
L 276.456123 26.877187 
L 276.456123 359.517187 
z
" clip-path="url(#p8358f4c346)" style="fill: #add8e6; stroke: #add8e6; stroke-linejoin: miter"/>
   </g>
   <g id="patch_38">
    <path d="M 276.755986 359.517187 
L 276.755986 26.877187 
L 276.938479 26.877187 
L 276.938479 359.517187 
z
" clip-path="url(#p8358f4c346)" style="fill: #add8e6; stroke: #add8e6; stroke-linejoin: miter"/>
   </g>
   <g id="patch_39">
    <path d="M 305.748841 359.517187 
L 305.748841 26.877187 
L 305.713251 26.877187 
L 305.713251 359.517187 
z
" clip-path="url(#p8358f4c346)" style="fill: #add8e6; stroke: #add8e6; stroke-linejoin: miter"/>
   </g>
   <g id="patch_40">
    <path d="M 356.44166 359.517187 
L 356.44166 26.877187 
L 356.605221 26.877187 
L 356.605221 359.517187 
z
" clip-path="url(#p8358f4c346)" style="fill: #add8e6; stroke: #add8e6; stroke-linejoin: miter"/>
   </g>
   <g id="patch_41">
    <path d="M 359.419848 359.517187 
L 359.419848 26.877187 
L 359.687151 26.877187 
L 359.687151 359.517187 
z
" clip-path="url(#p8358f4c346)" style="fill: #add8e6; stroke: #add8e6; stroke-linejoin: miter"/>
   </g>
   <g id="patch_42">
    <path d="M 376.429525 359.517187 
L 376.429525 26.877187 
L 363.4256 26.877187 
L 363.4256 359.517187 
z
" clip-path="url(#p8358f4c346)" style="fill: #add8e6; stroke: #add8e6; stroke-linejoin: miter"/>
   </g>
   <g id="patch_43">
    <path d="M 393.412698 359.517187 
L 393.412698 26.877187 
L 393.495994 26.877187 
L 393.495994 359.517187 
z
" clip-path="url(#p8358f4c346)" style="fill: #add8e6; stroke: #add8e6; stroke-linejoin: miter"/>
   </g>
   <g id="patch_44">
    <path d="M 395.304261 359.517187 
L 395.304261 26.877187 
L 395.483725 26.877187 
L 395.483725 359.517187 
z
" clip-path="url(#p8358f4c346)" style="fill: #add8e6; stroke: #add8e6; stroke-linejoin: miter"/>
   </g>
   <g id="patch_45">
    <path d="M 395.77753 359.517187 
L 395.77753 26.877187 
L 395.678333 26.877187 
L 395.678333 359.517187 
z
" clip-path="url(#p8358f4c346)" style="fill: #add8e6; stroke: #add8e6; stroke-linejoin: miter"/>
   </g>
   <g id="patch_46">
    <path d="M 419.938495 359.517187 
L 419.938495 26.877187 
L 420.506418 26.877187 
L 420.506418 359.517187 
z
" clip-path="url(#p8358f4c346)" style="fill: #add8e6; stroke: #add8e6; stroke-linejoin: miter"/>
   </g>
   <g id="patch_47">
    <path d="M 436.755077 359.517187 
L 436.755077 26.877187 
L 437.29574 26.877187 
L 437.29574 359.517187 
z
" clip-path="url(#p8358f4c346)" style="fill: #add8e6; stroke: #add8e6; stroke-linejoin: miter"/>
   </g>
   <g id="patch_48">
    <path d="M 446.954977 359.517187 
L 446.954977 26.877187 
L 447.081434 26.877187 
L 447.081434 359.517187 
z
" clip-path="url(#p8358f4c346)" style="fill: #add8e6; stroke: #add8e6; stroke-linejoin: miter"/>
   </g>
   <g id="patch_49">
    <path d="M 447.382812 359.517187 
L 447.382812 26.877187 
L 447.435818 26.877187 
L 447.435818 359.517187 
z
" clip-path="url(#p8358f4c346)" style="fill: #add8e6; stroke: #add8e6; stroke-linejoin: miter"/>
   </g>
   <g id="patch_50">
    <path d="M 465.142904 359.517187 
L 465.142904 26.877187 
L 452.082187 26.877187 
L 452.082187 359.517187 
z
" clip-path="url(#p8358f4c346)" style="fill: #add8e6; stroke: #add8e6; stroke-linejoin: miter"/>
   </g>
   <g id="patch_51">
    <path d="M 456.1311 359.517187 
L 456.1311 26.877187 
L 454.186531 26.877187 
L 454.186531 359.517187 
z
" clip-path="url(#p8358f4c346)" style="fill: #add8e6; stroke: #add8e6; stroke-linejoin: miter"/>
   </g>
   <g id="patch_52">
    <path d="M 470.534388 359.517187 
L 470.534388 26.877187 
L 457.798522 26.877187 
L 457.798522 359.517187 
z
" clip-path="url(#p8358f4c346)" style="fill: #add8e6; stroke: #add8e6; stroke-linejoin: miter"/>
   </g>
   <g id="patch_53">
    <path d="M 463.598153 359.517187 
L 463.598153 26.877187 
L 460.883481 26.877187 
L 460.883481 359.517187 
z
" clip-path="url(#p8358f4c346)" style="fill: #add8e6; stroke: #add8e6; stroke-linejoin: miter"/>
   </g>
   <g id="patch_54">
    <path d="M 466.642221 359.517187 
L 466.642221 26.877187 
L 464.9854 26.877187 
L 464.9854 359.517187 
z
" clip-path="url(#p8358f4c346)" style="fill: #add8e6; stroke: #add8e6; stroke-linejoin: miter"/>
   </g>
   <g id="patch_55">
    <path d="M 468.124122 359.517187 
L 468.124122 26.877187 
L 468.172585 26.877187 
L 468.172585 359.517187 
z
" clip-path="url(#p8358f4c346)" style="fill: #add8e6; stroke: #add8e6; stroke-linejoin: miter"/>
   </g>
   <g id="patch_56">
    <path d="M 502.784849 359.517187 
L 502.784849 26.877187 
L 491.384739 26.877187 
L 491.384739 359.517187 
z
" clip-path="url(#p8358f4c346)" style="fill: #add8e6; stroke: #add8e6; stroke-linejoin: miter"/>
   </g>
   <g id="patch_57">
    <path d="M 491.639926 359.517187 
L 491.639926 26.877187 
L 492.028385 26.877187 
L 492.028385 359.517187 
z
" clip-path="url(#p8358f4c346)" style="fill: #add8e6; stroke: #add8e6; stroke-linejoin: miter"/>
   </g>
   <g id="patch_58">
    <path d="M 492.751541 359.517187 
L 492.751541 26.877187 
L 492.828021 26.877187 
L 492.828021 359.517187 
z
" clip-path="url(#p8358f4c346)" style="fill: #add8e6; stroke: #add8e6; stroke-linejoin: miter"/>
   </g>
   <g id="patch_59">
    <path d="M 494.537091 359.517187 
L 494.537091 26.877187 
L 494.998245 26.877187 
L 494.998245 359.517187 
z
" clip-path="url(#p8358f4c346)" style="fill: #add8e6; stroke: #add8e6; stroke-linejoin: miter"/>
   </g>
   <g id="patch_60">
    <path d="M 508.391386 359.517187 
L 508.391386 26.877187 
L 508.017314 26.877187 
L 508.017314 359.517187 
z
" clip-path="url(#p8358f4c346)" style="fill: #add8e6; stroke: #add8e6; stroke-linejoin: miter"/>
   </g>
   <g id="patch_61">
    <path d="M 512.543283 359.517187 
L 512.543283 26.877187 
L 508.393658 26.877187 
L 508.393658 359.517187 
z
" clip-path="url(#p8358f4c346)" style="fill: #add8e6; stroke: #add8e6; stroke-linejoin: miter"/>
   </g>
   <g id="patch_62">
    <path d="M 536.144654 359.517187 
L 536.144654 26.877187 
L 536.361979 26.877187 
L 536.361979 359.517187 
z
" clip-path="url(#p8358f4c346)" style="fill: #add8e6; stroke: #add8e6; stroke-linejoin: miter"/>
   </g>
   <g id="patch_63">
    <path d="M 544.14707 359.517187 
L 544.14707 26.877187 
L 539.458296 26.877187 
L 539.458296 359.517187 
z
" clip-path="url(#p8358f4c346)" style="fill: #add8e6; stroke: #add8e6; stroke-linejoin: miter"/>
   </g>
   <g id="patch_64">
    <path d="M 547.618973 359.517187 
L 547.618973 26.877187 
L 548.198255 26.877187 
L 548.198255 359.517187 
z
" clip-path="url(#p8358f4c346)" style="fill: #add8e6; stroke: #add8e6; stroke-linejoin: miter"/>
   </g>
   <g id="patch_65">
    <path d="M 553.925191 359.517187 
L 553.925191 26.877187 
L 554.131158 26.877187 
L 554.131158 359.517187 
z
" clip-path="url(#p8358f4c346)" style="fill: #add8e6; stroke: #add8e6; stroke-linejoin: miter"/>
   </g>
   <g id="patch_66">
    <path d="M 573.477649 359.517187 
L 573.477649 26.877187 
L 573.993323 26.877187 
L 573.993323 359.517187 
z
" clip-path="url(#p8358f4c346)" style="fill: #add8e6; stroke: #add8e6; stroke-linejoin: miter"/>
   </g>
   <g id="patch_67">
    <path d="M 589.467336 359.517187 
L 589.467336 26.877187 
L 589.786887 26.877187 
L 589.786887 359.517187 
z
" clip-path="url(#p8358f4c346)" style="fill: #add8e6; stroke: #add8e6; stroke-linejoin: miter"/>
   </g>
   <g id="patch_68">
    <path d="M 727.555952 359.517187 
L 727.555952 26.877187 
L 728.042851 26.877187 
L 728.042851 359.517187 
z
" clip-path="url(#p8358f4c346)" style="fill: #add8e6; stroke: #add8e6; stroke-linejoin: miter"/>
   </g>
   <g id="patch_69">
    <path d="M 734.782963 359.517187 
L 734.782963 26.877187 
L 734.791293 26.877187 
L 734.791293 359.517187 
z
" clip-path="url(#p8358f4c346)" style="fill: #add8e6; stroke: #add8e6; stroke-linejoin: miter"/>
   </g>
   <g id="patch_70">
    <path d="M 739.452048 359.517187 
L 739.452048 26.877187 
L 740.038902 26.877187 
L 740.038902 359.517187 
z
" clip-path="url(#p8358f4c346)" style="fill: #add8e6; stroke: #add8e6; stroke-linejoin: miter"/>
   </g>
   <g id="patch_71">
    <path d="M 764.81701 359.517187 
L 764.81701 26.877187 
L 765.001017 26.877187 
L 765.001017 359.517187 
z
" clip-path="url(#p8358f4c346)" style="fill: #add8e6; stroke: #add8e6; stroke-linejoin: miter"/>
   </g>
   <g id="patch_72">
    <path d="M 810.186496 359.517187 
L 810.186496 26.877187 
L 798.881039 26.877187 
L 798.881039 359.517187 
z
" clip-path="url(#p8358f4c346)" style="fill: #add8e6; stroke: #add8e6; stroke-linejoin: miter"/>
   </g>
   <g id="patch_73">
    <path d="M 815.729426 359.517187 
L 815.729426 26.877187 
L 802.557395 26.877187 
L 802.557395 359.517187 
z
" clip-path="url(#p8358f4c346)" style="fill: #add8e6; stroke: #add8e6; stroke-linejoin: miter"/>
   </g>
   <g id="patch_74">
    <path d="M 802.939039 359.517187 
L 802.939039 26.877187 
L 802.928438 26.877187 
L 802.928438 359.517187 
z
" clip-path="url(#p8358f4c346)" style="fill: #add8e6; stroke: #add8e6; stroke-linejoin: miter"/>
   </g>
   <g id="patch_75">
    <path d="M 828.216162 359.517187 
L 828.216162 26.877187 
L 817.916308 26.877187 
L 817.916308 359.517187 
z
" clip-path="url(#p8358f4c346)" style="fill: #add8e6; stroke: #add8e6; stroke-linejoin: miter"/>
   </g>
   <g id="patch_76">
    <path d="M 816.58131 359.517187 
L 816.58131 26.877187 
L 816.65249 26.877187 
L 816.65249 359.517187 
z
" clip-path="url(#p8358f4c346)" style="fill: #add8e6; stroke: #add8e6; stroke-linejoin: miter"/>
   </g>
   <g id="patch_77">
    <path d="M 835.519654 359.517187 
L 835.519654 26.877187 
L 822.688377 26.877187 
L 822.688377 359.517187 
z
" clip-path="url(#p8358f4c346)" style="fill: #add8e6; stroke: #add8e6; stroke-linejoin: miter"/>
   </g>
   <g id="patch_78">
    <path d="M 822.98294 359.517187 
L 822.98294 26.877187 
L 823.048819 26.877187 
L 823.048819 359.517187 
z
" clip-path="url(#p8358f4c346)" style="fill: #add8e6; stroke: #add8e6; stroke-linejoin: miter"/>
   </g>
   <g id="patch_79">
    <path d="M 830.318235 359.517187 
L 830.318235 26.877187 
L 827.852691 26.877187 
L 827.852691 359.517187 
z
" clip-path="url(#p8358f4c346)" style="fill: #add8e6; stroke: #add8e6; stroke-linejoin: miter"/>
   </g>
   <g id="patch_80">
    <path d="M 843.122251 359.517187 
L 843.122251 26.877187 
L 830.236454 26.877187 
L 830.236454 359.517187 
z
" clip-path="url(#p8358f4c346)" style="fill: #add8e6; stroke: #add8e6; stroke-linejoin: miter"/>
   </g>
   <g id="patch_81">
    <path d="M 844.371682 359.517187 
L 844.371682 26.877187 
L 831.093639 26.877187 
L 831.093639 359.517187 
z
" clip-path="url(#p8358f4c346)" style="fill: #add8e6; stroke: #add8e6; stroke-linejoin: miter"/>
   </g>
   <g id="patch_82">
    <path d="M 844.841165 359.517187 
L 844.841165 26.877187 
L 831.611585 26.877187 
L 831.611585 359.517187 
z
" clip-path="url(#p8358f4c346)" style="fill: #add8e6; stroke: #add8e6; stroke-linejoin: miter"/>
   </g>
   <g id="patch_83">
    <path d="M 846.18525 359.517187 
L 846.18525 26.877187 
L 833.432725 26.877187 
L 833.432725 359.517187 
z
" clip-path="url(#p8358f4c346)" style="fill: #add8e6; stroke: #add8e6; stroke-linejoin: miter"/>
   </g>
   <g id="patch_84">
    <path d="M 868.032874 359.517187 
L 868.032874 26.877187 
L 864.673798 26.877187 
L 864.673798 359.517187 
z
" clip-path="url(#p8358f4c346)" style="fill: #add8e6; stroke: #add8e6; stroke-linejoin: miter"/>
   </g>
   <g id="patch_85">
    <path d="M 867.436934 359.517187 
L 867.436934 26.877187 
L 867.584594 26.877187 
L 867.584594 359.517187 
z
" clip-path="url(#p8358f4c346)" style="fill: #add8e6; stroke: #add8e6; stroke-linejoin: miter"/>
   </g>
   <g id="patch_86">
    <path d="M 871.472974 359.517187 
L 871.472974 26.877187 
L 868.135858 26.877187 
L 868.135858 359.517187 
z
" clip-path="url(#p8358f4c346)" style="fill: #add8e6; stroke: #add8e6; stroke-linejoin: miter"/>
   </g>
   <g id="patch_87">
    <path d="M 884.656363 359.517187 
L 884.656363 26.877187 
L 871.787982 26.877187 
L 871.787982 359.517187 
z
" clip-path="url(#p8358f4c346)" style="fill: #add8e6; stroke: #add8e6; stroke-linejoin: miter"/>
   </g>
   <g id="patch_88">
    <path d="M 878.401636 359.517187 
L 878.401636 26.877187 
L 878.451613 26.877187 
L 878.451613 359.517187 
z
" clip-path="url(#p8358f4c346)" style="fill: #add8e6; stroke: #add8e6; stroke-linejoin: miter"/>
   </g>
   <g id="patch_89">
    <path d="M 918.103249 359.517187 
L 918.103249 26.877187 
L 905.471124 26.877187 
L 905.471124 359.517187 
z
" clip-path="url(#p8358f4c346)" style="fill: #add8e6; stroke: #add8e6; stroke-linejoin: miter"/>
   </g>
   <g id="patch_90">
    <path d="M 980.377914 359.517187 
L 980.377914 26.877187 
L 967.189224 26.877187 
L 967.189224 359.517187 
z
" clip-path="url(#p8358f4c346)" style="fill: #add8e6; stroke: #add8e6; stroke-linejoin: miter"/>
   </g>
   <g id="patch_91">
    <path d="M 967.42548 359.517187 
L 967.42548 26.877187 
L 967.714742 26.877187 
L 967.714742 359.517187 
z
" clip-path="url(#p8358f4c346)" style="fill: #add8e6; stroke: #add8e6; stroke-linejoin: miter"/>
   </g>
   <g id="patch_92">
    <path d="M 972.289931 359.517187 
L 972.289931 26.877187 
L 968.135763 26.877187 
L 968.135763 359.517187 
z
" clip-path="url(#p8358f4c346)" style="fill: #add8e6; stroke: #add8e6; stroke-linejoin: miter"/>
   </g>
   <g id="patch_93">
    <path d="M 970.316588 359.517187 
L 970.316588 26.877187 
L 970.096233 26.877187 
L 970.096233 359.517187 
z
" clip-path="url(#p8358f4c346)" style="fill: #add8e6; stroke: #add8e6; stroke-linejoin: miter"/>
   </g>
   <g id="patch_94">
    <path d="M 987.40123 359.517187 
L 987.40123 26.877187 
L 987.66929 26.877187 
L 987.66929 359.517187 
z
" clip-path="url(#p8358f4c346)" style="fill: #add8e6; stroke: #add8e6; stroke-linejoin: miter"/>
   </g>
   <g id="patch_95">
    <path d="M 1021.688642 359.517187 
L 1021.688642 26.877187 
L 1008.879325 26.877187 
L 1008.879325 359.517187 
z
" clip-path="url(#p8358f4c346)" style="fill: #add8e6; stroke: #add8e6; stroke-linejoin: miter"/>
   </g>
   <g id="patch_96">
    <path d="M 1025.462681 359.517187 
L 1025.462681 26.877187 
L 1025.549005 26.877187 
L 1025.549005 359.517187 
z
" clip-path="url(#p8358f4c346)" style="fill: #add8e6; stroke: #add8e6; stroke-linejoin: miter"/>
   </g>
   <g id="patch_97">
    <path d="M 1079.809896 359.517187 
L 1079.809896 26.877187 
L 1067.300442 26.877187 
L 1067.300442 359.517187 
z
" clip-path="url(#p8358f4c346)" style="fill: #add8e6; stroke: #add8e6; stroke-linejoin: miter"/>
   </g>
   <g id="patch_98">
    <path d="M 1101.125944 359.517187 
L 1101.125944 26.877187 
L 1101.166077 26.877187 
L 1101.166077 359.517187 
z
" clip-path="url(#p8358f4c346)" style="fill: #add8e6; stroke: #add8e6; stroke-linejoin: miter"/>
   </g>
   <g id="patch_99">
    <path d="M 1104.13215 359.517187 
L 1104.13215 26.877187 
L 1104.026138 26.877187 
L 1104.026138 359.517187 
z
" clip-path="url(#p8358f4c346)" style="fill: #add8e6; stroke: #add8e6; stroke-linejoin: miter"/>
   </g>
   <g id="patch_100">
    <path d="M 1104.294955 359.517187 
L 1104.294955 26.877187 
L 1104.57513 26.877187 
L 1104.57513 359.517187 
z
" clip-path="url(#p8358f4c346)" style="fill: #add8e6; stroke: #add8e6; stroke-linejoin: miter"/>
   </g>
   <g id="patch_101">
    <path d="M 222.633669 359.517187 
L 222.633669 26.877187 
L 386.195531 26.877187 
L 386.195531 359.517187 
z
" clip-path="url(#p8358f4c346)" style="fill: #808080; opacity: 0.4; stroke: #808080; stroke-linejoin: miter"/>
   </g>
   <g id="patch_102">
    <path d="M 390.738916 26.877187 
L 390.738916 26.877187 
L 390.738916 359.517187 
" clip-path="url(#p8358f4c346)" style="fill: #808080; opacity: 0.4; stroke: #808080; stroke-linejoin: miter"/>
   </g>
   <g id="patch_103">
    <path d="M 395.282301 26.877187 
L 395.282301 26.877187 
L 395.282301 359.517187 
" clip-path="url(#p8358f4c346)" style="fill: #808080; opacity: 0.4; stroke: #808080; stroke-linejoin: miter"/>
   </g>
   <g id="patch_104">
    <path d="M 549.757393 359.517187 
L 549.757393 26.877187 
L 713.319255 26.877187 
L 713.319255 359.517187 
z
" clip-path="url(#p8358f4c346)" style="fill: #808080; opacity: 0.4; stroke: #808080; stroke-linejoin: miter"/>
   </g>
   <g id="patch_105">
    <path d="M 717.86264 26.877187 
L 717.86264 26.877187 
L 717.86264 359.517187 
" clip-path="url(#p8358f4c346)" style="fill: #808080; opacity: 0.4; stroke: #808080; stroke-linejoin: miter"/>
   </g>
   <g id="patch_106">
    <path d="M 722.406025 26.877187 
L 722.406025 26.877187 
L 722.406025 359.517187 
" clip-path="url(#p8358f4c346)" style="fill: #808080; opacity: 0.4; stroke: #808080; stroke-linejoin: miter"/>
   </g>
   <g id="patch_107">
    <path d="M 876.881117 359.517187 
L 876.881117 26.877187 
L 1040.442979 26.877187 
L 1040.442979 359.517187 
z
" clip-path="url(#p8358f4c346)" style="fill: #808080; opacity: 0.4; stroke: #808080; stroke-linejoin: miter"/>
   </g>
   <g id="patch_108">
    <path d="M 1044.986364 26.877187 
L 1044.986364 26.877187 
L 1044.986364 359.517187 
" clip-path="url(#p8358f4c346)" style="fill: #808080; opacity: 0.4; stroke: #808080; stroke-linejoin: miter"/>
   </g>
   <g id="patch_109">
    <path d="M 1049.529749 26.877187 
L 1049.529749 26.877187 
L 1049.529749 359.517187 
" clip-path="url(#p8358f4c346)" style="fill: #808080; opacity: 0.4; stroke: #808080; stroke-linejoin: miter"/>
   </g>
   <g id="matplotlib.axis_1">
    <g id="xtick_1">
     <g id="line2d_1">
      <defs>
       <path id="m1fa08a4dd1" d="M 0 0 
L 0 3.5 
" style="stroke: #000000; stroke-width: 0.8"/>
      </defs>
      <g>
       <use xlink:href="#m1fa08a4dd1" x="124.63664" y="359.517187" style="stroke: #000000; stroke-width: 0.8"/>
      </g>
     </g>
     <g id="text_1">
      <!-- 12-13 12 -->
      <g transform="translate(102.156171 374.115625) scale(0.1 -0.1)">
       <defs>
        <path id="DejaVuSans-31" d="M 794 531 
L 1825 531 
L 1825 4091 
L 703 3866 
L 703 4441 
L 1819 4666 
L 2450 4666 
L 2450 531 
L 3481 531 
L 3481 0 
L 794 0 
L 794 531 
z
" transform="scale(0.015625)"/>
        <path id="DejaVuSans-32" d="M 1228 531 
L 3431 531 
L 3431 0 
L 469 0 
L 469 531 
Q 828 903 1448 1529 
Q 2069 2156 2228 2338 
Q 2531 2678 2651 2914 
Q 2772 3150 2772 3378 
Q 2772 3750 2511 3984 
Q 2250 4219 1831 4219 
Q 1534 4219 1204 4116 
Q 875 4013 500 3803 
L 500 4441 
Q 881 4594 1212 4672 
Q 1544 4750 1819 4750 
Q 2544 4750 2975 4387 
Q 3406 4025 3406 3419 
Q 3406 3131 3298 2873 
Q 3191 2616 2906 2266 
Q 2828 2175 2409 1742 
Q 1991 1309 1228 531 
z
" transform="scale(0.015625)"/>
        <path id="DejaVuSans-2d" d="M 313 2009 
L 1997 2009 
L 1997 1497 
L 313 1497 
L 313 2009 
z
" transform="scale(0.015625)"/>
        <path id="DejaVuSans-33" d="M 2597 2516 
Q 3050 2419 3304 2112 
Q 3559 1806 3559 1356 
Q 3559 666 3084 287 
Q 2609 -91 1734 -91 
Q 1441 -91 1130 -33 
Q 819 25 488 141 
L 488 750 
Q 750 597 1062 519 
Q 1375 441 1716 441 
Q 2309 441 2620 675 
Q 2931 909 2931 1356 
Q 2931 1769 2642 2001 
Q 2353 2234 1838 2234 
L 1294 2234 
L 1294 2753 
L 1863 2753 
Q 2328 2753 2575 2939 
Q 2822 3125 2822 3475 
Q 2822 3834 2567 4026 
Q 2313 4219 1838 4219 
Q 1578 4219 1281 4162 
Q 984 4106 628 3988 
L 628 4550 
Q 988 4650 1302 4700 
Q 1616 4750 1894 4750 
Q 2613 4750 3031 4423 
Q 3450 4097 3450 3541 
Q 3450 3153 3228 2886 
Q 3006 2619 2597 2516 
z
" transform="scale(0.015625)"/>
        <path id="DejaVuSans-20" transform="scale(0.015625)"/>
       </defs>
       <use xlink:href="#DejaVuSans-31"/>
       <use xlink:href="#DejaVuSans-32" x="63.623047"/>
       <use xlink:href="#DejaVuSans-2d" x="127.246094"/>
       <use xlink:href="#DejaVuSans-31" x="163.330078"/>
       <use xlink:href="#DejaVuSans-33" x="226.953125"/>
       <use xlink:href="#DejaVuSans-20" x="290.576172"/>
       <use xlink:href="#DejaVuSans-31" x="322.363281"/>
       <use xlink:href="#DejaVuSans-32" x="385.986328"/>
      </g>
     </g>
    </g>
    <g id="xtick_2">
     <g id="line2d_2">
      <g>
       <use xlink:href="#m1fa08a4dd1" x="288.198502" y="359.517187" style="stroke: #000000; stroke-width: 0.8"/>
      </g>
     </g>
     <g id="text_2">
      <!-- 12-14 00 -->
      <g transform="translate(265.718033 374.115625) scale(0.1 -0.1)">
       <defs>
        <path id="DejaVuSans-34" d="M 2419 4116 
L 825 1625 
L 2419 1625 
L 2419 4116 
z
M 2253 4666 
L 3047 4666 
L 3047 1625 
L 3713 1625 
L 3713 1100 
L 3047 1100 
L 3047 0 
L 2419 0 
L 2419 1100 
L 313 1100 
L 313 1709 
L 2253 4666 
z
" transform="scale(0.015625)"/>
        <path id="DejaVuSans-30" d="M 2034 4250 
Q 1547 4250 1301 3770 
Q 1056 3291 1056 2328 
Q 1056 1369 1301 889 
Q 1547 409 2034 409 
Q 2525 409 2770 889 
Q 3016 1369 3016 2328 
Q 3016 3291 2770 3770 
Q 2525 4250 2034 4250 
z
M 2034 4750 
Q 2819 4750 3233 4129 
Q 3647 3509 3647 2328 
Q 3647 1150 3233 529 
Q 2819 -91 2034 -91 
Q 1250 -91 836 529 
Q 422 1150 422 2328 
Q 422 3509 836 4129 
Q 1250 4750 2034 4750 
z
" transform="scale(0.015625)"/>
       </defs>
       <use xlink:href="#DejaVuSans-31"/>
       <use xlink:href="#DejaVuSans-32" x="63.623047"/>
       <use xlink:href="#DejaVuSans-2d" x="127.246094"/>
       <use xlink:href="#DejaVuSans-31" x="163.330078"/>
       <use xlink:href="#DejaVuSans-34" x="226.953125"/>
       <use xlink:href="#DejaVuSans-20" x="290.576172"/>
       <use xlink:href="#DejaVuSans-30" x="322.363281"/>
       <use xlink:href="#DejaVuSans-30" x="385.986328"/>
      </g>
     </g>
    </g>
    <g id="xtick_3">
     <g id="line2d_3">
      <g>
       <use xlink:href="#m1fa08a4dd1" x="451.760364" y="359.517187" style="stroke: #000000; stroke-width: 0.8"/>
      </g>
     </g>
     <g id="text_3">
      <!-- 12-14 12 -->
      <g transform="translate(429.279895 374.115625) scale(0.1 -0.1)">
       <use xlink:href="#DejaVuSans-31"/>
       <use xlink:href="#DejaVuSans-32" x="63.623047"/>
       <use xlink:href="#DejaVuSans-2d" x="127.246094"/>
       <use xlink:href="#DejaVuSans-31" x="163.330078"/>
       <use xlink:href="#DejaVuSans-34" x="226.953125"/>
       <use xlink:href="#DejaVuSans-20" x="290.576172"/>
       <use xlink:href="#DejaVuSans-31" x="322.363281"/>
       <use xlink:href="#DejaVuSans-32" x="385.986328"/>
      </g>
     </g>
    </g>
    <g id="xtick_4">
     <g id="line2d_4">
      <g>
       <use xlink:href="#m1fa08a4dd1" x="615.322225" y="359.517187" style="stroke: #000000; stroke-width: 0.8"/>
      </g>
     </g>
     <g id="text_4">
      <!-- 12-15 00 -->
      <g transform="translate(592.841757 374.115625) scale(0.1 -0.1)">
       <defs>
        <path id="DejaVuSans-35" d="M 691 4666 
L 3169 4666 
L 3169 4134 
L 1269 4134 
L 1269 2991 
Q 1406 3038 1543 3061 
Q 1681 3084 1819 3084 
Q 2600 3084 3056 2656 
Q 3513 2228 3513 1497 
Q 3513 744 3044 326 
Q 2575 -91 1722 -91 
Q 1428 -91 1123 -41 
Q 819 9 494 109 
L 494 744 
Q 775 591 1075 516 
Q 1375 441 1709 441 
Q 2250 441 2565 725 
Q 2881 1009 2881 1497 
Q 2881 1984 2565 2268 
Q 2250 2553 1709 2553 
Q 1456 2553 1204 2497 
Q 953 2441 691 2322 
L 691 4666 
z
" transform="scale(0.015625)"/>
       </defs>
       <use xlink:href="#DejaVuSans-31"/>
       <use xlink:href="#DejaVuSans-32" x="63.623047"/>
       <use xlink:href="#DejaVuSans-2d" x="127.246094"/>
       <use xlink:href="#DejaVuSans-31" x="163.330078"/>
       <use xlink:href="#DejaVuSans-35" x="226.953125"/>
       <use xlink:href="#DejaVuSans-20" x="290.576172"/>
       <use xlink:href="#DejaVuSans-30" x="322.363281"/>
       <use xlink:href="#DejaVuSans-30" x="385.986328"/>
      </g>
     </g>
    </g>
    <g id="xtick_5">
     <g id="line2d_5">
      <g>
       <use xlink:href="#m1fa08a4dd1" x="778.884087" y="359.517187" style="stroke: #000000; stroke-width: 0.8"/>
      </g>
     </g>
     <g id="text_5">
      <!-- 12-15 12 -->
      <g transform="translate(756.403619 374.115625) scale(0.1 -0.1)">
       <use xlink:href="#DejaVuSans-31"/>
       <use xlink:href="#DejaVuSans-32" x="63.623047"/>
       <use xlink:href="#DejaVuSans-2d" x="127.246094"/>
       <use xlink:href="#DejaVuSans-31" x="163.330078"/>
       <use xlink:href="#DejaVuSans-35" x="226.953125"/>
       <use xlink:href="#DejaVuSans-20" x="290.576172"/>
       <use xlink:href="#DejaVuSans-31" x="322.363281"/>
       <use xlink:href="#DejaVuSans-32" x="385.986328"/>
      </g>
     </g>
    </g>
    <g id="xtick_6">
     <g id="line2d_6">
      <g>
       <use xlink:href="#m1fa08a4dd1" x="942.445949" y="359.517187" style="stroke: #000000; stroke-width: 0.8"/>
      </g>
     </g>
     <g id="text_6">
      <!-- 12-16 00 -->
      <g transform="translate(919.96548 374.115625) scale(0.1 -0.1)">
       <defs>
        <path id="DejaVuSans-36" d="M 2113 2584 
Q 1688 2584 1439 2293 
Q 1191 2003 1191 1497 
Q 1191 994 1439 701 
Q 1688 409 2113 409 
Q 2538 409 2786 701 
Q 3034 994 3034 1497 
Q 3034 2003 2786 2293 
Q 2538 2584 2113 2584 
z
M 3366 4563 
L 3366 3988 
Q 3128 4100 2886 4159 
Q 2644 4219 2406 4219 
Q 1781 4219 1451 3797 
Q 1122 3375 1075 2522 
Q 1259 2794 1537 2939 
Q 1816 3084 2150 3084 
Q 2853 3084 3261 2657 
Q 3669 2231 3669 1497 
Q 3669 778 3244 343 
Q 2819 -91 2113 -91 
Q 1303 -91 875 529 
Q 447 1150 447 2328 
Q 447 3434 972 4092 
Q 1497 4750 2381 4750 
Q 2619 4750 2861 4703 
Q 3103 4656 3366 4563 
z
" transform="scale(0.015625)"/>
       </defs>
       <use xlink:href="#DejaVuSans-31"/>
       <use xlink:href="#DejaVuSans-32" x="63.623047"/>
       <use xlink:href="#DejaVuSans-2d" x="127.246094"/>
       <use xlink:href="#DejaVuSans-31" x="163.330078"/>
       <use xlink:href="#DejaVuSans-36" x="226.953125"/>
       <use xlink:href="#DejaVuSans-20" x="290.576172"/>
       <use xlink:href="#DejaVuSans-30" x="322.363281"/>
       <use xlink:href="#DejaVuSans-30" x="385.986328"/>
      </g>
     </g>
    </g>
    <g id="xtick_7">
     <g id="line2d_7">
      <g>
       <use xlink:href="#m1fa08a4dd1" x="1106.007811" y="359.517187" style="stroke: #000000; stroke-width: 0.8"/>
      </g>
     </g>
     <g id="text_7">
      <!-- 12-16 12 -->
      <g transform="translate(1083.527342 374.115625) scale(0.1 -0.1)">
       <use xlink:href="#DejaVuSans-31"/>
       <use xlink:href="#DejaVuSans-32" x="63.623047"/>
       <use xlink:href="#DejaVuSans-2d" x="127.246094"/>
       <use xlink:href="#DejaVuSans-31" x="163.330078"/>
       <use xlink:href="#DejaVuSans-36" x="226.953125"/>
       <use xlink:href="#DejaVuSans-20" x="290.576172"/>
       <use xlink:href="#DejaVuSans-31" x="322.363281"/>
       <use xlink:href="#DejaVuSans-32" x="385.986328"/>
      </g>
     </g>
    </g>
    <g id="text_8">
     <!-- Time -->
     <g transform="translate(592.554688 389.313437) scale(0.12 -0.12)">
      <defs>
       <path id="DejaVuSans-54" d="M -19 4666 
L 3928 4666 
L 3928 4134 
L 2272 4134 
L 2272 0 
L 1638 0 
L 1638 4134 
L -19 4134 
L -19 4666 
z
" transform="scale(0.015625)"/>
       <path id="DejaVuSans-69" d="M 603 3500 
L 1178 3500 
L 1178 0 
L 603 0 
L 603 3500 
z
M 603 4863 
L 1178 4863 
L 1178 4134 
L 603 4134 
L 603 4863 
z
" transform="scale(0.015625)"/>
       <path id="DejaVuSans-6d" d="M 3328 2828 
Q 3544 3216 3844 3400 
Q 4144 3584 4550 3584 
Q 5097 3584 5394 3201 
Q 5691 2819 5691 2113 
L 5691 0 
L 5113 0 
L 5113 2094 
Q 5113 2597 4934 2840 
Q 4756 3084 4391 3084 
Q 3944 3084 3684 2787 
Q 3425 2491 3425 1978 
L 3425 0 
L 2847 0 
L 2847 2094 
Q 2847 2600 2669 2842 
Q 2491 3084 2119 3084 
Q 1678 3084 1418 2786 
Q 1159 2488 1159 1978 
L 1159 0 
L 581 0 
L 581 3500 
L 1159 3500 
L 1159 2956 
Q 1356 3278 1631 3431 
Q 1906 3584 2284 3584 
Q 2666 3584 2933 3390 
Q 3200 3197 3328 2828 
z
" transform="scale(0.015625)"/>
       <path id="DejaVuSans-65" d="M 3597 1894 
L 3597 1613 
L 953 1613 
Q 991 1019 1311 708 
Q 1631 397 2203 397 
Q 2534 397 2845 478 
Q 3156 559 3463 722 
L 3463 178 
Q 3153 47 2828 -22 
Q 2503 -91 2169 -91 
Q 1331 -91 842 396 
Q 353 884 353 1716 
Q 353 2575 817 3079 
Q 1281 3584 2069 3584 
Q 2775 3584 3186 3129 
Q 3597 2675 3597 1894 
z
M 3022 2063 
Q 3016 2534 2758 2815 
Q 2500 3097 2075 3097 
Q 1594 3097 1305 2825 
Q 1016 2553 972 2059 
L 3022 2063 
z
" transform="scale(0.015625)"/>
      </defs>
      <use xlink:href="#DejaVuSans-54"/>
      <use xlink:href="#DejaVuSans-69" x="57.958984"/>
      <use xlink:href="#DejaVuSans-6d" x="85.742188"/>
      <use xlink:href="#DejaVuSans-65" x="183.154297"/>
     </g>
    </g>
   </g>
   <g id="matplotlib.axis_2">
    <g id="ytick_1">
     <g id="line2d_8">
      <defs>
       <path id="mf0ddd4774b" d="M 0 0 
L -3.5 0 
" style="stroke: #000000; stroke-width: 0.8"/>
      </defs>
      <g>
       <use xlink:href="#mf0ddd4774b" x="49.235" y="344.397187" style="stroke: #000000; stroke-width: 0.8"/>
      </g>
     </g>
     <g id="text_9">
      <!-- 0 -->
      <g transform="translate(35.8725 348.196406) scale(0.1 -0.1)">
       <use xlink:href="#DejaVuSans-30"/>
      </g>
     </g>
    </g>
    <g id="ytick_2">
     <g id="line2d_9">
      <g>
       <use xlink:href="#mf0ddd4774b" x="49.235" y="297.073244" style="stroke: #000000; stroke-width: 0.8"/>
      </g>
     </g>
     <g id="text_10">
      <!-- 100 -->
      <g transform="translate(23.1475 300.872463) scale(0.1 -0.1)">
       <use xlink:href="#DejaVuSans-31"/>
       <use xlink:href="#DejaVuSans-30" x="63.623047"/>
       <use xlink:href="#DejaVuSans-30" x="127.246094"/>
      </g>
     </g>
    </g>
    <g id="ytick_3">
     <g id="line2d_10">
      <g>
       <use xlink:href="#mf0ddd4774b" x="49.235" y="249.7493" style="stroke: #000000; stroke-width: 0.8"/>
      </g>
     </g>
     <g id="text_11">
      <!-- 200 -->
      <g transform="translate(23.1475 253.548519) scale(0.1 -0.1)">
       <use xlink:href="#DejaVuSans-32"/>
       <use xlink:href="#DejaVuSans-30" x="63.623047"/>
       <use xlink:href="#DejaVuSans-30" x="127.246094"/>
      </g>
     </g>
    </g>
    <g id="ytick_4">
     <g id="line2d_11">
      <g>
       <use xlink:href="#mf0ddd4774b" x="49.235" y="202.425357" style="stroke: #000000; stroke-width: 0.8"/>
      </g>
     </g>
     <g id="text_12">
      <!-- 300 -->
      <g transform="translate(23.1475 206.224575) scale(0.1 -0.1)">
       <use xlink:href="#DejaVuSans-33"/>
       <use xlink:href="#DejaVuSans-30" x="63.623047"/>
       <use xlink:href="#DejaVuSans-30" x="127.246094"/>
      </g>
     </g>
    </g>
    <g id="ytick_5">
     <g id="line2d_12">
      <g>
       <use xlink:href="#mf0ddd4774b" x="49.235" y="155.101413" style="stroke: #000000; stroke-width: 0.8"/>
      </g>
     </g>
     <g id="text_13">
      <!-- 400 -->
      <g transform="translate(23.1475 158.900632) scale(0.1 -0.1)">
       <use xlink:href="#DejaVuSans-34"/>
       <use xlink:href="#DejaVuSans-30" x="63.623047"/>
       <use xlink:href="#DejaVuSans-30" x="127.246094"/>
      </g>
     </g>
    </g>
    <g id="ytick_6">
     <g id="line2d_13">
      <g>
       <use xlink:href="#mf0ddd4774b" x="49.235" y="107.777469" style="stroke: #000000; stroke-width: 0.8"/>
      </g>
     </g>
     <g id="text_14">
      <!-- 500 -->
      <g transform="translate(23.1475 111.576688) scale(0.1 -0.1)">
       <use xlink:href="#DejaVuSans-35"/>
       <use xlink:href="#DejaVuSans-30" x="63.623047"/>
       <use xlink:href="#DejaVuSans-30" x="127.246094"/>
      </g>
     </g>
    </g>
    <g id="ytick_7">
     <g id="line2d_14">
      <g>
       <use xlink:href="#mf0ddd4774b" x="49.235" y="60.453526" style="stroke: #000000; stroke-width: 0.8"/>
      </g>
     </g>
     <g id="text_15">
      <!-- 600 -->
      <g transform="translate(23.1475 64.252744) scale(0.1 -0.1)">
       <use xlink:href="#DejaVuSans-36"/>
       <use xlink:href="#DejaVuSans-30" x="63.623047"/>
       <use xlink:href="#DejaVuSans-30" x="127.246094"/>
      </g>
     </g>
    </g>
    <g id="text_16">
     <!-- Pellet_Count -->
     <g transform="translate(16.318125 230.485312) rotate(-90) scale(0.12 -0.12)">
      <defs>
       <path id="DejaVuSans-50" d="M 1259 4147 
L 1259 2394 
L 2053 2394 
Q 2494 2394 2734 2622 
Q 2975 2850 2975 3272 
Q 2975 3691 2734 3919 
Q 2494 4147 2053 4147 
L 1259 4147 
z
M 628 4666 
L 2053 4666 
Q 2838 4666 3239 4311 
Q 3641 3956 3641 3272 
Q 3641 2581 3239 2228 
Q 2838 1875 2053 1875 
L 1259 1875 
L 1259 0 
L 628 0 
L 628 4666 
z
" transform="scale(0.015625)"/>
       <path id="DejaVuSans-6c" d="M 603 4863 
L 1178 4863 
L 1178 0 
L 603 0 
L 603 4863 
z
" transform="scale(0.015625)"/>
       <path id="DejaVuSans-74" d="M 1172 4494 
L 1172 3500 
L 2356 3500 
L 2356 3053 
L 1172 3053 
L 1172 1153 
Q 1172 725 1289 603 
Q 1406 481 1766 481 
L 2356 481 
L 2356 0 
L 1766 0 
Q 1100 0 847 248 
Q 594 497 594 1153 
L 594 3053 
L 172 3053 
L 172 3500 
L 594 3500 
L 594 4494 
L 1172 4494 
z
" transform="scale(0.015625)"/>
       <path id="DejaVuSans-5f" d="M 3263 -1063 
L 3263 -1509 
L -63 -1509 
L -63 -1063 
L 3263 -1063 
z
" transform="scale(0.015625)"/>
       <path id="DejaVuSans-43" d="M 4122 4306 
L 4122 3641 
Q 3803 3938 3442 4084 
Q 3081 4231 2675 4231 
Q 1875 4231 1450 3742 
Q 1025 3253 1025 2328 
Q 1025 1406 1450 917 
Q 1875 428 2675 428 
Q 3081 428 3442 575 
Q 3803 722 4122 1019 
L 4122 359 
Q 3791 134 3420 21 
Q 3050 -91 2638 -91 
Q 1578 -91 968 557 
Q 359 1206 359 2328 
Q 359 3453 968 4101 
Q 1578 4750 2638 4750 
Q 3056 4750 3426 4639 
Q 3797 4528 4122 4306 
z
" transform="scale(0.015625)"/>
       <path id="DejaVuSans-6f" d="M 1959 3097 
Q 1497 3097 1228 2736 
Q 959 2375 959 1747 
Q 959 1119 1226 758 
Q 1494 397 1959 397 
Q 2419 397 2687 759 
Q 2956 1122 2956 1747 
Q 2956 2369 2687 2733 
Q 2419 3097 1959 3097 
z
M 1959 3584 
Q 2709 3584 3137 3096 
Q 3566 2609 3566 1747 
Q 3566 888 3137 398 
Q 2709 -91 1959 -91 
Q 1206 -91 779 398 
Q 353 888 353 1747 
Q 353 2609 779 3096 
Q 1206 3584 1959 3584 
z
" transform="scale(0.015625)"/>
       <path id="DejaVuSans-75" d="M 544 1381 
L 544 3500 
L 1119 3500 
L 1119 1403 
Q 1119 906 1312 657 
Q 1506 409 1894 409 
Q 2359 409 2629 706 
Q 2900 1003 2900 1516 
L 2900 3500 
L 3475 3500 
L 3475 0 
L 2900 0 
L 2900 538 
Q 2691 219 2414 64 
Q 2138 -91 1772 -91 
Q 1169 -91 856 284 
Q 544 659 544 1381 
z
M 1991 3584 
L 1991 3584 
z
" transform="scale(0.015625)"/>
       <path id="DejaVuSans-6e" d="M 3513 2113 
L 3513 0 
L 2938 0 
L 2938 2094 
Q 2938 2591 2744 2837 
Q 2550 3084 2163 3084 
Q 1697 3084 1428 2787 
Q 1159 2491 1159 1978 
L 1159 0 
L 581 0 
L 581 3500 
L 1159 3500 
L 1159 2956 
Q 1366 3272 1645 3428 
Q 1925 3584 2291 3584 
Q 2894 3584 3203 3211 
Q 3513 2838 3513 2113 
z
" transform="scale(0.015625)"/>
      </defs>
      <use xlink:href="#DejaVuSans-50"/>
      <use xlink:href="#DejaVuSans-65" x="56.677734"/>
      <use xlink:href="#DejaVuSans-6c" x="118.201172"/>
      <use xlink:href="#DejaVuSans-6c" x="145.984375"/>
      <use xlink:href="#DejaVuSans-65" x="173.767578"/>
      <use xlink:href="#DejaVuSans-74" x="235.291016"/>
      <use xlink:href="#DejaVuSans-5f" x="274.5"/>
      <use xlink:href="#DejaVuSans-43" x="324.5"/>
      <use xlink:href="#DejaVuSans-6f" x="394.324219"/>
      <use xlink:href="#DejaVuSans-75" x="455.505859"/>
      <use xlink:href="#DejaVuSans-6e" x="518.884766"/>
      <use xlink:href="#DejaVuSans-74" x="582.263672"/>
     </g>
    </g>
   </g>
   <g id="line2d_15">
    <path d="M 99.962273 344.397187 
L 100.087216 343.923948 
L 103.002555 343.923948 
L 103.38117 343.450709 
L 104.191407 343.450709 
L 104.202765 342.977469 
L 111.623628 342.977469 
L 111.627414 342.50423 
L 113.266819 342.50423 
L 113.281963 342.03099 
L 114.610903 342.03099 
L 114.652551 341.557751 
L 116.515339 341.557751 
L 116.526697 341.084511 
L 117.128696 341.084511 
L 117.143841 340.611272 
L 117.287714 340.611272 
L 117.299073 340.138033 
L 117.412657 340.138033 
L 117.533814 339.191554 
L 118.908188 339.191554 
L 118.983911 338.718314 
L 121.365402 338.718314 
L 121.380547 338.245075 
L 121.588786 338.245075 
L 121.607716 337.771835 
L 124.405684 337.771835 
L 124.420829 337.298596 
L 124.651784 337.298596 
L 124.772941 336.825357 
L 124.788086 336.825357 
L 124.909243 335.878878 
L 124.984966 335.878878 
L 125.000111 335.405638 
L 125.125054 335.405638 
L 125.140198 334.932399 
L 126.313906 334.932399 
L 126.332837 334.459159 
L 127.222583 334.459159 
L 127.449752 333.98592 
L 127.813223 333.98592 
L 127.839726 333.51268 
L 128.536379 333.51268 
L 128.653749 333.039441 
L 129.123232 333.039441 
L 129.7063 332.566202 
L 132.951034 332.566202 
L 132.951034 332.566202 
L 133.060833 331.619723 
L 133.155487 331.619723 
L 133.276644 330.673244 
L 134.817608 330.673244 
L 134.828967 330.200004 
L 136.434296 330.200004 
L 136.555453 329.253526 
L 136.650107 329.253526 
L 136.653893 328.780286 
L 136.801553 328.780286 
L 136.899993 327.360568 
L 137.02115 327.360568 
L 137.108232 326.414089 
L 139.527584 326.414089 
L 139.626024 325.46761 
L 141.950723 325.46761 
L 141.958295 324.994371 
L 142.21954 324.994371 
L 142.321766 324.047892 
L 142.46564 324.047892 
L 142.575438 323.574652 
L 144.714615 323.574652 
L 144.831986 322.628173 
L 144.911496 322.628173 
L 145.032652 321.681695 
L 146.422171 321.681695 
L 146.535756 320.735216 
L 146.63041 320.735216 
L 146.732636 319.788737 
L 148.110796 319.788737 
L 148.122154 319.315497 
L 148.284959 319.315497 
L 148.40233 318.369018 
L 149.727484 318.369018 
L 149.738842 317.895779 
L 150.916336 317.895779 
L 151.048851 317.42254 
L 152.722332 317.42254 
L 152.73369 316.9493 
L 152.854847 316.9493 
L 152.960859 316.002821 
L 153.093375 316.002821 
L 153.104733 315.529582 
L 153.297827 315.529582 
L 153.305399 315.056342 
L 154.115636 315.056342 
L 154.225435 314.109864 
L 154.30873 314.109864 
L 154.320089 313.636624 
L 154.797144 313.636624 
L 154.914515 313.163385 
L 154.941018 313.163385 
L 155.739897 312.690145 
L 155.751255 312.216906 
L 157.43988 312.216906 
L 157.568609 311.743666 
L 159.639635 311.743666 
L 159.741862 310.797187 
L 159.889522 310.797187 
L 160.010679 309.850709 
L 160.071257 309.850709 
L 160.086402 309.377469 
L 160.203772 309.377469 
L 160.305999 308.90423 
L 161.555429 308.90423 
L 161.563002 308.43099 
L 161.975693 308.43099 
L 163.066105 307.957751 
L 164.519988 307.957751 
L 164.633573 307.484511 
L 164.716868 306.538033 
L 164.85317 306.538033 
L 164.940251 305.591554 
L 166.386562 305.591554 
L 166.390348 305.118314 
L 173.936154 305.118314 
L 173.943726 304.645075 
L 176.158626 304.645075 
L 176.268425 303.698596 
L 176.359292 303.698596 
L 176.472877 302.752117 
L 177.389126 302.752117 
L 177.491352 301.805638 
L 178.441677 301.805638 
L 178.54769 300.859159 
L 178.608268 300.859159 
L 178.725639 300.38592 
L 179.028531 300.38592 
L 179.210267 299.91268 
L 179.736542 299.91268 
L 179.744114 299.439441 
L 180.872388 299.439441 
L 180.989759 298.492962 
L 181.091985 298.492962 
L 181.182853 297.546483 
L 181.273721 297.546483 
L 181.281293 297.073244 
L 181.936298 297.073244 
L 182.019593 296.126765 
L 183.515124 296.126765 
L 183.624922 295.653526 
L 183.742293 295.180286 
L 183.76501 294.707047 
L 184.041399 294.707047 
L 184.35565 294.233807 
L 186.085923 294.233807 
L 186.093495 293.760568 
L 187.755617 293.760568 
L 187.766975 293.287328 
L 189.887221 293.287328 
L 189.891008 292.814089 
L 190.118177 292.814089 
L 190.125749 292.340849 
L 192.155128 292.340849 
L 192.1627 291.86761 
L 192.333077 291.86761 
L 192.344435 291.394371 
L 203.36593 291.394371 
L 203.384861 290.921131 
L 203.69154 290.921131 
L 203.78998 289.974652 
L 203.952784 289.974652 
L 203.960357 289.501413 
L 204.077727 289.501413 
L 204.0853 289.028173 
L 204.221601 289.028173 
L 204.3314 288.081695 
L 204.486632 288.081695 
L 204.490418 287.608455 
L 206.232049 287.608455 
L 206.334275 286.661976 
L 207.791945 286.661976 
L 207.799517 286.188737 
L 208.776345 286.188737 
L 208.799062 285.242258 
L 210.430894 285.242258 
L 210.495259 284.295779 
L 210.627774 284.295779 
L 210.63156 283.82254 
L 210.767862 283.82254 
L 210.82844 282.876061 
L 212.615505 282.876061 
L 212.619291 282.402821 
L 212.748021 282.402821 
L 212.861605 281.929582 
L 212.933542 281.929582 
L 213.081202 281.456342 
L 218.608987 281.456342 
L 218.61656 280.983103 
L 218.741503 280.983103 
L 218.745289 280.509864 
L 218.870232 280.509864 
L 218.987603 279.563385 
L 223.625642 279.563385 
L 223.633214 279.090145 
L 223.780874 279.090145 
L 223.890672 278.616906 
L 223.902031 278.143666 
L 224.026974 278.143666 
L 224.03076 277.670427 
L 224.193565 277.670427 
L 224.201137 277.197187 
L 226.775722 277.197187 
L 227.305783 276.723948 
L 228.286397 276.723948 
L 228.396196 275.777469 
L 229.675916 275.777469 
L 229.683488 275.30423 
L 229.816004 275.30423 
L 229.823576 274.83099 
L 229.952305 274.83099 
L 229.956091 274.357751 
L 230.088607 274.357751 
L 230.092393 273.884511 
L 230.209764 273.884511 
L 230.270342 272.938033 
L 243.283354 272.938033 
L 243.328788 271.991554 
L 243.608963 271.991554 
L 243.620322 271.518314 
L 243.786913 271.518314 
L 243.896711 270.571835 
L 243.942145 270.571835 
L 244.051944 269.625357 
L 244.229893 269.625357 
L 244.241251 269.152117 
L 261.354668 269.152117 
L 261.362241 268.678878 
L 261.509901 268.678878 
L 261.521259 268.205638 
L 261.668919 268.205638 
L 261.680278 267.732399 
L 261.801434 267.732399 
L 261.816579 267.259159 
L 263.315896 267.259159 
L 263.709656 266.78592 
L 264.981804 266.78592 
L 265.13325 266.31268 
L 265.932129 266.31268 
L 265.939701 265.839441 
L 266.121436 265.839441 
L 266.125223 265.366202 
L 266.924101 265.366202 
L 268.101595 264.892962 
L 269.411604 264.892962 
L 269.422963 264.419723 
L 276.113097 264.419723 
L 276.12067 263.946483 
L 276.256971 263.946483 
L 276.374342 263.000004 
L 276.586367 263.000004 
L 276.61287 262.053526 
L 276.741599 262.053526 
L 276.745385 261.580286 
L 280.84579 261.580286 
L 282.66693 261.107047 
L 284.07538 261.107047 
L 284.079166 260.633807 
L 300.583012 260.633807 
L 300.590584 260.160568 
L 300.976772 260.160568 
L 300.980558 259.687328 
L 301.113074 259.687328 
L 301.11686 259.214089 
L 305.436862 259.214089 
L 305.444434 258.740849 
L 305.584522 258.740849 
L 305.588308 258.26761 
L 307.1217 258.26761 
L 307.129273 257.794371 
L 307.3678 257.794371 
L 307.371587 257.321131 
L 324.927984 257.321131 
L 324.93177 256.847892 
L 335.975982 256.847892 
L 335.983554 256.374652 
L 356.32656 256.374652 
L 356.330347 255.901413 
L 356.519654 255.901413 
L 356.52344 255.428173 
L 356.773327 255.428173 
L 356.780899 254.954934 
L 359.026088 254.954934 
L 359.033661 254.481695 
L 359.291119 254.481695 
L 359.294905 254.008455 
L 359.412276 254.008455 
L 359.533433 253.061976 
L 359.544792 253.061976 
L 359.548578 252.588737 
L 362.123163 252.588737 
L 363.077273 252.115497 
L 363.092418 251.642258 
L 363.224933 251.642258 
L 363.232506 251.169018 
L 372.497225 251.169018 
L 372.501011 250.695779 
L 372.667602 250.695779 
L 372.671388 250.22254 
L 372.815262 250.22254 
L 372.819048 249.7493 
L 372.989425 249.7493 
L 372.993211 249.276061 
L 389.909748 249.276061 
L 389.936251 248.802821 
L 393.180986 248.802821 
L 393.192344 248.329582 
L 393.336218 248.329582 
L 393.34379 247.856342 
L 395.005912 247.856342 
L 395.013484 247.383103 
L 395.130855 247.383103 
L 395.146 246.909864 
L 395.26337 246.909864 
L 395.270943 246.436624 
L 395.384527 246.436624 
L 395.486753 245.490145 
L 395.585193 245.490145 
L 395.596552 245.016906 
L 397.811452 245.016906 
L 397.913678 244.070427 
L 398.04998 244.070427 
L 398.057552 243.597187 
L 419.642417 243.597187 
L 419.642417 243.597187 
L 419.661348 243.123948 
L 419.839297 243.123948 
L 419.84687 242.650709 
L 420.021033 242.650709 
L 420.024819 242.177469 
L 420.14219 242.177469 
L 420.248202 241.23099 
L 420.350428 241.23099 
L 420.354214 240.757751 
L 420.660893 240.757751 
L 420.759333 239.811272 
L 425.189133 239.811272 
L 425.196706 239.338033 
L 426.680878 239.338033 
L 426.783104 238.864793 
L 426.802035 238.864793 
L 426.881544 237.918314 
L 427.983315 237.918314 
L 428.191554 237.445075 
L 433.848068 237.445075 
L 434.62423 236.971835 
L 434.628016 236.498596 
L 436.64225 236.498596 
L 436.646036 236.025357 
L 436.759621 236.025357 
L 436.876991 235.078878 
L 436.964073 235.078878 
L 437.077657 234.132399 
L 437.149594 234.132399 
L 437.157167 233.659159 
L 446.842149 233.659159 
L 446.845935 233.18592 
L 446.982237 233.18592 
L 446.986023 232.71268 
L 447.141255 232.71268 
L 447.148828 232.239441 
L 447.296488 232.239441 
L 447.326777 231.292962 
L 447.447934 231.292962 
L 447.463078 230.819723 
L 450.045236 230.819723 
L 450.234543 229.873244 
L 451.722502 229.873244 
L 451.726288 229.400004 
L 451.851231 229.400004 
L 451.957244 228.453526 
L 452.055684 228.453526 
L 452.123834 227.980286 
L 453.774598 227.980286 
L 453.78217 227.507047 
L 453.960119 227.507047 
L 454.07749 226.560568 
L 457.106413 226.560568 
L 457.223784 226.087328 
L 457.242715 226.087328 
L 457.333582 225.140849 
L 457.401733 225.140849 
L 457.530463 224.194371 
L 457.628903 224.194371 
L 457.632689 223.721131 
L 458.526221 223.721131 
L 458.620875 223.247892 
L 460.627537 223.247892 
L 460.744907 222.301413 
L 462.460035 222.301413 
L 462.501683 221.354934 
L 463.887415 221.354934 
L 463.936635 220.881695 
L 464.561351 220.881695 
L 464.671149 219.935216 
L 464.78852 219.935216 
L 464.792306 219.461976 
L 467.344174 219.461976 
L 467.472903 218.042258 
L 467.571343 218.042258 
L 467.658425 217.095779 
L 467.74172 217.095779 
L 467.862877 216.1493 
L 467.957531 216.1493 
L 468.063544 215.202821 
L 469.623439 215.202821 
L 470.304947 214.729582 
L 470.766858 214.729582 
L 470.87287 214.256342 
L 473.640549 214.256342 
L 473.807139 213.783103 
L 473.848787 213.783103 
L 473.898007 213.309864 
L 474.030523 213.309864 
L 474.034309 212.836624 
L 474.189541 212.836624 
L 474.303126 212.363385 
L 478.032488 212.363385 
L 478.04006 211.890145 
L 478.202865 211.890145 
L 478.278588 211.416906 
L 478.437606 211.416906 
L 478.547405 210.470427 
L 480.781236 210.470427 
L 480.89482 209.523948 
L 480.99326 209.523948 
L 481.0917 208.577469 
L 481.19014 208.577469 
L 481.296152 208.10423 
L 481.315083 208.10423 
L 481.424882 207.157751 
L 483.022639 207.157751 
L 483.124865 206.684511 
L 483.151368 206.684511 
L 483.25738 205.738033 
L 489.364447 205.738033 
L 489.368233 205.264793 
L 491.14394 205.264793 
L 491.147726 204.791554 
L 491.299172 204.791554 
L 491.302958 204.318314 
L 491.511197 204.318314 
L 491.609637 203.845075 
L 491.65507 203.845075 
L 491.768655 202.898596 
L 491.859523 202.898596 
L 491.889812 201.952117 
L 492.408515 201.952117 
L 492.5221 200.532399 
L 492.567534 200.532399 
L 492.662187 199.58592 
L 494.381101 199.58592 
L 494.4909 198.639441 
L 494.581768 198.639441 
L 494.657491 197.692962 
L 494.744572 197.692962 
L 494.805151 196.746483 
L 507.182089 196.746483 
L 507.227523 195.800004 
L 507.371397 195.800004 
L 507.46605 194.853526 
L 507.708364 194.853526 
L 507.848452 193.433807 
L 507.931747 193.433807 
L 508.026401 192.960568 
L 508.102124 192.487328 
L 508.264929 192.487328 
L 508.348224 192.014089 
L 532.78785 192.014089 
L 532.905221 191.06761 
L 533.022591 191.06761 
L 533.026377 190.594371 
L 533.208113 190.594371 
L 533.211899 190.121131 
L 533.340628 190.121131 
L 533.454213 189.174652 
L 536.002295 189.174652 
L 536.112093 188.701413 
L 536.18403 188.701413 
L 536.293829 187.754934 
L 537.085135 187.754934 
L 537.194933 187.281695 
L 539.1183 187.281695 
L 539.3644 185.861976 
L 542.779511 185.861976 
L 542.893095 185.388737 
L 542.912026 185.388737 
L 542.995322 184.442258 
L 543.089975 184.442258 
L 543.180843 183.969018 
L 543.25278 183.969018 
L 543.328503 183.02254 
L 543.40044 183.02254 
L 543.521597 181.602821 
L 543.601106 181.602821 
L 543.688188 181.129582 
L 545.709994 181.129582 
L 545.71378 180.656342 
L 545.850082 180.656342 
L 545.967453 179.709864 
L 546.05832 178.763385 
L 547.137374 178.763385 
L 547.14116 178.290145 
L 547.394833 178.290145 
L 547.489487 177.816906 
L 547.542493 177.816906 
L 547.637147 177.343666 
L 547.7318 177.343666 
L 547.807524 175.923948 
L 547.887033 175.923948 
L 548.004404 175.450709 
L 548.015762 175.450709 
L 548.102844 174.50423 
L 548.689697 174.50423 
L 548.716201 174.03099 
L 553.808578 174.03099 
L 553.81615 173.557751 
L 554.031961 173.557751 
L 554.035747 173.084511 
L 572.769638 173.084511 
L 572.845361 172.138033 
L 572.974091 172.138033 
L 573.083889 171.664793 
L 573.095247 171.664793 
L 573.099034 171.191554 
L 573.280769 171.191554 
L 573.284555 170.718314 
L 573.451146 170.718314 
L 573.568517 170.245075 
L 573.579875 170.245075 
L 573.689674 169.298596 
L 573.795686 169.298596 
L 573.897912 168.352117 
L 576.082523 168.352117 
L 576.196108 167.878878 
L 576.20368 167.878878 
L 576.241542 166.932399 
L 576.389202 166.932399 
L 576.476283 166.459159 
L 589.311346 166.459159 
L 589.315132 165.98592 
L 589.534729 165.98592 
L 589.648314 165.039441 
L 590.678148 165.039441 
L 590.681934 164.566202 
L 590.856097 164.566202 
L 590.859883 164.092962 
L 591.018902 164.092962 
L 591.026474 163.619723 
L 592.643162 163.619723 
L 592.787036 163.146483 
L 594.301497 163.146483 
L 594.418868 162.200004 
L 607.462169 162.200004 
L 607.465955 161.726765 
L 607.897577 161.726765 
L 608.007375 161.253526 
L 608.734317 161.253526 
L 608.741889 160.780286 
L 620.06249 160.780286 
L 620.085207 160.307047 
L 621.845769 160.307047 
L 621.849555 159.833807 
L 622.023718 159.833807 
L 622.133517 159.360568 
L 622.171378 159.360568 
L 622.372045 158.887328 
L 727.396176 158.887328 
L 727.403748 158.414089 
L 727.555195 158.414089 
L 727.558981 157.940849 
L 727.702855 157.940849 
L 727.820225 156.994371 
L 727.930024 156.994371 
L 728.028464 156.521131 
L 728.956072 156.521131 
L 730.565187 156.047892 
L 733.590324 156.047892 
L 733.696337 155.101413 
L 733.809921 155.101413 
L 733.847783 154.628173 
L 734.01816 154.628173 
L 734.131745 154.154934 
L 734.139317 154.154934 
L 734.245329 153.208455 
L 734.328625 153.208455 
L 734.339983 152.735216 
L 734.487643 152.735216 
L 734.601228 151.788737 
L 734.692095 151.788737 
L 734.695881 151.315497 
L 734.813252 151.315497 
L 734.820825 150.842258 
L 736.899423 150.842258 
L 736.906996 150.369018 
L 739.352851 150.369018 
L 739.356637 149.895779 
L 739.489153 149.895779 
L 739.591379 148.9493 
L 739.674674 148.9493 
L 739.67846 148.476061 
L 739.792045 148.476061 
L 739.863982 147.529582 
L 739.939705 147.529582 
L 739.943491 147.056342 
L 740.621213 147.056342 
L 742.624088 146.583103 
L 742.790679 146.109864 
L 764.492915 146.109864 
L 764.610286 145.163385 
L 764.689795 145.163385 
L 764.693581 144.690145 
L 764.807166 144.690145 
L 764.905606 143.743666 
L 772.727801 143.743666 
L 773.106416 143.270427 
L 773.204856 142.323948 
L 773.265434 142.323948 
L 773.382805 141.377469 
L 773.485031 141.377469 
L 773.556968 140.43099 
L 773.674339 140.43099 
L 773.750062 139.484511 
L 773.859861 139.484511 
L 773.958301 138.538033 
L 774.030238 138.538033 
L 774.105961 137.591554 
L 793.718239 137.591554 
L 794.25966 137.118314 
L 796.766094 137.118314 
L 796.76988 136.645075 
L 798.784114 136.645075 
L 798.905271 136.171835 
L 800.291003 136.171835 
L 802.471828 135.698596 
L 802.57784 134.752117 
L 802.634633 134.752117 
L 802.733073 133.805638 
L 802.778507 133.805638 
L 802.899663 133.332399 
L 814.791974 133.332399 
L 814.901772 132.38592 
L 815.439406 132.38592 
L 816.662334 126.707047 
L 821.955378 126.707047 
L 822.262056 125.760568 
L 822.368068 124.814089 
L 822.458936 124.814089 
L 822.527087 123.86761 
L 822.60281 123.86761 
L 822.712608 122.921131 
L 822.818621 122.921131 
L 822.826193 122.447892 
L 827.051541 122.447892 
L 827.119692 121.501413 
L 827.199201 121.501413 
L 827.263566 120.554934 
L 827.433943 120.554934 
L 827.483163 120.081695 
L 827.619464 120.081695 
L 827.714118 119.135216 
L 829.478466 119.135216 
L 829.743497 118.661976 
L 829.849509 117.715497 
L 829.955521 117.715497 
L 830.035031 116.769018 
L 830.137257 116.769018 
L 830.21298 115.82254 
L 830.947494 115.82254 
L 831.011858 114.876061 
L 831.189808 114.876061 
L 831.435908 114.402821 
L 831.557065 113.456342 
L 831.882674 113.456342 
L 831.88646 112.983103 
L 832.015189 112.983103 
L 832.208283 112.509864 
L 832.238572 112.509864 
L 832.779992 112.036624 
L 832.901149 111.090145 
L 832.984445 111.090145 
L 833.075313 110.143666 
L 833.154822 110.143666 
L 833.245689 109.197187 
L 833.374419 109.197187 
L 833.378205 108.723948 
L 835.839205 108.723948 
L 835.964148 107.777469 
L 836.111808 107.777469 
L 836.21782 107.30423 
L 836.229179 107.30423 
L 836.320047 106.83099 
L 836.34655 106.83099 
L 836.350336 106.357751 
L 836.679731 106.357751 
L 836.78953 105.411272 
L 858.434973 105.411272 
L 858.43876 104.938033 
L 858.609136 104.938033 
L 858.612923 104.464793 
L 859.082406 104.464793 
L 859.214921 103.991554 
L 859.230066 103.991554 
L 859.445877 103.518314 
L 859.49131 103.518314 
L 859.597323 103.045075 
L 859.597323 103.045075 
L 859.631398 103.045075 
L 859.744983 102.571835 
L 859.824492 102.571835 
L 859.926718 102.098596 
L 863.046509 102.098596 
L 863.054082 101.625357 
L 863.546282 101.625357 
L 863.667439 100.678878 
L 863.762092 100.678878 
L 863.85296 99.732399 
L 863.966545 99.732399 
L 864.564757 95.473244 
L 867.343794 95.473244 
L 867.44602 94.526765 
L 867.506599 94.526765 
L 867.676976 93.580286 
L 867.813277 93.580286 
L 867.915504 92.633807 
L 868.339553 92.633807 
L 871.353332 92.160568 
L 871.455558 91.214089 
L 871.542639 91.214089 
L 871.656224 90.740849 
L 871.667582 90.740849 
L 871.667582 90.740849 
L 871.788739 89.794371 
L 878.134334 89.794371 
L 878.221415 88.847892 
L 878.335 88.847892 
L 878.448585 88.374652 
L 904.682847 88.374652 
L 904.697992 87.428173 
L 904.811576 87.428173 
L 904.921375 86.481695 
L 905.016029 86.481695 
L 905.057676 85.535216 
L 905.140972 85.535216 
L 905.25077 84.588737 
L 905.371927 84.588737 
L 905.481726 84.115497 
L 905.515801 84.115497 
L 905.572593 83.642258 
L 905.727826 83.642258 
L 905.727826 83.642258 
L 905.848983 83.169018 
L 905.924706 83.169018 
L 906.045863 82.22254 
L 906.13673 82.22254 
L 906.144303 81.7493 
L 907.087055 81.7493 
L 907.090841 81.276061 
L 908.469001 81.276061 
L 908.472787 80.802821 
L 911.986339 80.802821 
L 912.187005 80.329582 
L 912.236225 80.329582 
L 912.247583 79.856342 
L 912.433105 79.856342 
L 912.546689 79.383103 
L 912.584551 79.383103 
L 912.588337 78.909864 
L 936.797007 78.909864 
L 936.800793 78.436624 
L 936.963598 78.436624 
L 936.982529 77.963385 
L 940.462004 77.963385 
L 940.575589 77.490145 
L 940.583161 77.490145 
L 940.586947 77.016906 
L 940.723249 77.016906 
L 940.825475 76.543666 
L 940.825475 76.543666 
L 940.859551 76.543666 
L 940.950418 75.597187 
L 941.079148 75.597187 
L 941.132154 74.650709 
L 941.223021 74.650709 
L 941.340392 73.70423 
L 941.442618 73.70423 
L 941.446404 73.23099 
L 963.682488 73.23099 
L 963.686274 72.757751 
L 963.807431 72.757751 
L 963.924802 72.284511 
L 963.939947 72.284511 
L 964.057317 71.811272 
L 964.11411 71.811272 
L 964.117896 71.338033 
L 966.469098 71.338033 
L 966.984015 70.864793 
L 967.093813 69.918314 
L 967.332341 69.918314 
L 967.332341 69.918314 
L 967.445925 68.971835 
L 967.544365 68.971835 
L 967.646592 68.025357 
L 967.741245 68.025357 
L 967.816969 67.552117 
L 967.941912 67.552117 
L 968.040352 66.605638 
L 969.789555 66.605638 
L 969.90314 65.659159 
L 986.675803 65.659159 
L 986.683375 65.18592 
L 986.827249 65.18592 
L 986.838607 64.71268 
L 987.039273 64.71268 
L 987.046846 64.239441 
L 987.205864 64.239441 
L 987.330807 63.292962 
L 987.429247 63.292962 
L 987.531474 62.346483 
L 1008.249309 62.346483 
L 1008.389397 61.400004 
L 1008.476479 61.400004 
L 1008.559774 60.453526 
L 1008.692289 60.453526 
L 1008.794516 59.507047 
L 1025.347582 59.507047 
L 1025.453594 58.560568 
L 1025.552034 58.560568 
L 1025.953366 57.140849 
L 1066.389493 57.140849 
L 1066.480361 56.66761 
L 1066.525795 56.66761 
L 1066.60909 55.247892 
L 1066.684813 55.247892 
L 1066.771895 54.301413 
L 1066.851404 54.301413 
L 1066.957417 53.828173 
L 1066.972561 53.828173 
L 1067.067215 52.881695 
L 1067.177013 52.881695 
L 1067.286812 51.935216 
L 1082.772183 51.935216 
L 1082.775969 51.461976 
L 1085.324051 51.461976 
L 1085.437635 50.988737 
L 1085.475497 50.988737 
L 1085.570151 50.042258 
L 1085.732955 50.042258 
L 1085.831395 49.095779 
L 1085.926049 49.095779 
L 1086.032061 48.62254 
L 1088.057654 48.62254 
L 1088.171239 48.1493 
L 1088.190169 48.1493 
L 1088.296182 47.676061 
L 1097.810787 47.676061 
L 1097.848649 46.729582 
L 1100.911648 46.729582 
L 1101.013874 45.783103 
L 1103.917854 45.783103 
L 1104.012508 44.836624 
L 1104.080659 44.836624 
L 1104.160168 43.890145 
L 1104.269966 43.890145 
L 1104.353262 42.943666 
L 1104.489563 42.943666 
L 1104.572859 42.470427 
L 1109.263904 42.470427 
L 1114.507727 41.997187 
L 1114.507727 41.997187 
" clip-path="url(#p8358f4c346)" style="fill: none; stroke: #0000ff; stroke-width: 1.5; stroke-linecap: square"/>
   </g>
   <g id="patch_110">
    <path d="M 49.235 359.517187 
L 49.235 26.877187 
" style="fill: none; stroke: #000000; stroke-width: 0.8; stroke-linejoin: miter; stroke-linecap: square"/>
   </g>
   <g id="patch_111">
    <path d="M 1165.235 359.517187 
L 1165.235 26.877187 
" style="fill: none; stroke: #000000; stroke-width: 0.8; stroke-linejoin: miter; stroke-linecap: square"/>
   </g>
   <g id="patch_112">
    <path d="M 49.235 359.517187 
L 1165.235 359.517187 
" style="fill: none; stroke: #000000; stroke-width: 0.8; stroke-linejoin: miter; stroke-linecap: square"/>
   </g>
   <g id="patch_113">
    <path d="M 49.235 26.877187 
L 1165.235 26.877187 
" style="fill: none; stroke: #000000; stroke-width: 0.8; stroke-linejoin: miter; stroke-linecap: square"/>
   </g>
   <g id="text_17">
    <!-- Pellet Count and Cumulative Sum Over Time of Group 1 Mouse 2 -->
    <g transform="translate(315.460625 20.877187) scale(0.18 -0.18)">
     <defs>
      <path id="DejaVuSans-61" d="M 2194 1759 
Q 1497 1759 1228 1600 
Q 959 1441 959 1056 
Q 959 750 1161 570 
Q 1363 391 1709 391 
Q 2188 391 2477 730 
Q 2766 1069 2766 1631 
L 2766 1759 
L 2194 1759 
z
M 3341 1997 
L 3341 0 
L 2766 0 
L 2766 531 
Q 2569 213 2275 61 
Q 1981 -91 1556 -91 
Q 1019 -91 701 211 
Q 384 513 384 1019 
Q 384 1609 779 1909 
Q 1175 2209 1959 2209 
L 2766 2209 
L 2766 2266 
Q 2766 2663 2505 2880 
Q 2244 3097 1772 3097 
Q 1472 3097 1187 3025 
Q 903 2953 641 2809 
L 641 3341 
Q 956 3463 1253 3523 
Q 1550 3584 1831 3584 
Q 2591 3584 2966 3190 
Q 3341 2797 3341 1997 
z
" transform="scale(0.015625)"/>
      <path id="DejaVuSans-64" d="M 2906 2969 
L 2906 4863 
L 3481 4863 
L 3481 0 
L 2906 0 
L 2906 525 
Q 2725 213 2448 61 
Q 2172 -91 1784 -91 
Q 1150 -91 751 415 
Q 353 922 353 1747 
Q 353 2572 751 3078 
Q 1150 3584 1784 3584 
Q 2172 3584 2448 3432 
Q 2725 3281 2906 2969 
z
M 947 1747 
Q 947 1113 1208 752 
Q 1469 391 1925 391 
Q 2381 391 2643 752 
Q 2906 1113 2906 1747 
Q 2906 2381 2643 2742 
Q 2381 3103 1925 3103 
Q 1469 3103 1208 2742 
Q 947 2381 947 1747 
z
" transform="scale(0.015625)"/>
      <path id="DejaVuSans-76" d="M 191 3500 
L 800 3500 
L 1894 563 
L 2988 3500 
L 3597 3500 
L 2284 0 
L 1503 0 
L 191 3500 
z
" transform="scale(0.015625)"/>
      <path id="DejaVuSans-53" d="M 3425 4513 
L 3425 3897 
Q 3066 4069 2747 4153 
Q 2428 4238 2131 4238 
Q 1616 4238 1336 4038 
Q 1056 3838 1056 3469 
Q 1056 3159 1242 3001 
Q 1428 2844 1947 2747 
L 2328 2669 
Q 3034 2534 3370 2195 
Q 3706 1856 3706 1288 
Q 3706 609 3251 259 
Q 2797 -91 1919 -91 
Q 1588 -91 1214 -16 
Q 841 59 441 206 
L 441 856 
Q 825 641 1194 531 
Q 1563 422 1919 422 
Q 2459 422 2753 634 
Q 3047 847 3047 1241 
Q 3047 1584 2836 1778 
Q 2625 1972 2144 2069 
L 1759 2144 
Q 1053 2284 737 2584 
Q 422 2884 422 3419 
Q 422 4038 858 4394 
Q 1294 4750 2059 4750 
Q 2388 4750 2728 4690 
Q 3069 4631 3425 4513 
z
" transform="scale(0.015625)"/>
      <path id="DejaVuSans-4f" d="M 2522 4238 
Q 1834 4238 1429 3725 
Q 1025 3213 1025 2328 
Q 1025 1447 1429 934 
Q 1834 422 2522 422 
Q 3209 422 3611 934 
Q 4013 1447 4013 2328 
Q 4013 3213 3611 3725 
Q 3209 4238 2522 4238 
z
M 2522 4750 
Q 3503 4750 4090 4092 
Q 4678 3434 4678 2328 
Q 4678 1225 4090 567 
Q 3503 -91 2522 -91 
Q 1538 -91 948 565 
Q 359 1222 359 2328 
Q 359 3434 948 4092 
Q 1538 4750 2522 4750 
z
" transform="scale(0.015625)"/>
      <path id="DejaVuSans-72" d="M 2631 2963 
Q 2534 3019 2420 3045 
Q 2306 3072 2169 3072 
Q 1681 3072 1420 2755 
Q 1159 2438 1159 1844 
L 1159 0 
L 581 0 
L 581 3500 
L 1159 3500 
L 1159 2956 
Q 1341 3275 1631 3429 
Q 1922 3584 2338 3584 
Q 2397 3584 2469 3576 
Q 2541 3569 2628 3553 
L 2631 2963 
z
" transform="scale(0.015625)"/>
      <path id="DejaVuSans-66" d="M 2375 4863 
L 2375 4384 
L 1825 4384 
Q 1516 4384 1395 4259 
Q 1275 4134 1275 3809 
L 1275 3500 
L 2222 3500 
L 2222 3053 
L 1275 3053 
L 1275 0 
L 697 0 
L 697 3053 
L 147 3053 
L 147 3500 
L 697 3500 
L 697 3744 
Q 697 4328 969 4595 
Q 1241 4863 1831 4863 
L 2375 4863 
z
" transform="scale(0.015625)"/>
      <path id="DejaVuSans-47" d="M 3809 666 
L 3809 1919 
L 2778 1919 
L 2778 2438 
L 4434 2438 
L 4434 434 
Q 4069 175 3628 42 
Q 3188 -91 2688 -91 
Q 1594 -91 976 548 
Q 359 1188 359 2328 
Q 359 3472 976 4111 
Q 1594 4750 2688 4750 
Q 3144 4750 3555 4637 
Q 3966 4525 4313 4306 
L 4313 3634 
Q 3963 3931 3569 4081 
Q 3175 4231 2741 4231 
Q 1884 4231 1454 3753 
Q 1025 3275 1025 2328 
Q 1025 1384 1454 906 
Q 1884 428 2741 428 
Q 3075 428 3337 486 
Q 3600 544 3809 666 
z
" transform="scale(0.015625)"/>
      <path id="DejaVuSans-70" d="M 1159 525 
L 1159 -1331 
L 581 -1331 
L 581 3500 
L 1159 3500 
L 1159 2969 
Q 1341 3281 1617 3432 
Q 1894 3584 2278 3584 
Q 2916 3584 3314 3078 
Q 3713 2572 3713 1747 
Q 3713 922 3314 415 
Q 2916 -91 2278 -91 
Q 1894 -91 1617 61 
Q 1341 213 1159 525 
z
M 3116 1747 
Q 3116 2381 2855 2742 
Q 2594 3103 2138 3103 
Q 1681 3103 1420 2742 
Q 1159 2381 1159 1747 
Q 1159 1113 1420 752 
Q 1681 391 2138 391 
Q 2594 391 2855 752 
Q 3116 1113 3116 1747 
z
" transform="scale(0.015625)"/>
      <path id="DejaVuSans-4d" d="M 628 4666 
L 1569 4666 
L 2759 1491 
L 3956 4666 
L 4897 4666 
L 4897 0 
L 4281 0 
L 4281 4097 
L 3078 897 
L 2444 897 
L 1241 4097 
L 1241 0 
L 628 0 
L 628 4666 
z
" transform="scale(0.015625)"/>
      <path id="DejaVuSans-73" d="M 2834 3397 
L 2834 2853 
Q 2591 2978 2328 3040 
Q 2066 3103 1784 3103 
Q 1356 3103 1142 2972 
Q 928 2841 928 2578 
Q 928 2378 1081 2264 
Q 1234 2150 1697 2047 
L 1894 2003 
Q 2506 1872 2764 1633 
Q 3022 1394 3022 966 
Q 3022 478 2636 193 
Q 2250 -91 1575 -91 
Q 1294 -91 989 -36 
Q 684 19 347 128 
L 347 722 
Q 666 556 975 473 
Q 1284 391 1588 391 
Q 1994 391 2212 530 
Q 2431 669 2431 922 
Q 2431 1156 2273 1281 
Q 2116 1406 1581 1522 
L 1381 1569 
Q 847 1681 609 1914 
Q 372 2147 372 2553 
Q 372 3047 722 3315 
Q 1072 3584 1716 3584 
Q 2034 3584 2315 3537 
Q 2597 3491 2834 3397 
z
" transform="scale(0.015625)"/>
     </defs>
     <use xlink:href="#DejaVuSans-50"/>
     <use xlink:href="#DejaVuSans-65" x="56.677734"/>
     <use xlink:href="#DejaVuSans-6c" x="118.201172"/>
     <use xlink:href="#DejaVuSans-6c" x="145.984375"/>
     <use xlink:href="#DejaVuSans-65" x="173.767578"/>
     <use xlink:href="#DejaVuSans-74" x="235.291016"/>
     <use xlink:href="#DejaVuSans-20" x="274.5"/>
     <use xlink:href="#DejaVuSans-43" x="306.287109"/>
     <use xlink:href="#DejaVuSans-6f" x="376.111328"/>
     <use xlink:href="#DejaVuSans-75" x="437.292969"/>
     <use xlink:href="#DejaVuSans-6e" x="500.671875"/>
     <use xlink:href="#DejaVuSans-74" x="564.050781"/>
     <use xlink:href="#DejaVuSans-20" x="603.259766"/>
     <use xlink:href="#DejaVuSans-61" x="635.046875"/>
     <use xlink:href="#DejaVuSans-6e" x="696.326172"/>
     <use xlink:href="#DejaVuSans-64" x="759.705078"/>
     <use xlink:href="#DejaVuSans-20" x="823.181641"/>
     <use xlink:href="#DejaVuSans-43" x="854.96875"/>
     <use xlink:href="#DejaVuSans-75" x="924.792969"/>
     <use xlink:href="#DejaVuSans-6d" x="988.171875"/>
     <use xlink:href="#DejaVuSans-75" x="1085.583984"/>
     <use xlink:href="#DejaVuSans-6c" x="1148.962891"/>
     <use xlink:href="#DejaVuSans-61" x="1176.746094"/>
     <use xlink:href="#DejaVuSans-74" x="1238.025391"/>
     <use xlink:href="#DejaVuSans-69" x="1277.234375"/>
     <use xlink:href="#DejaVuSans-76" x="1305.017578"/>
     <use xlink:href="#DejaVuSans-65" x="1364.197266"/>
     <use xlink:href="#DejaVuSans-20" x="1425.720703"/>
     <use xlink:href="#DejaVuSans-53" x="1457.507812"/>
     <use xlink:href="#DejaVuSans-75" x="1520.984375"/>
     <use xlink:href="#DejaVuSans-6d" x="1584.363281"/>
     <use xlink:href="#DejaVuSans-20" x="1681.775391"/>
     <use xlink:href="#DejaVuSans-4f" x="1713.5625"/>
     <use xlink:href="#DejaVuSans-76" x="1792.273438"/>
     <use xlink:href="#DejaVuSans-65" x="1851.453125"/>
     <use xlink:href="#DejaVuSans-72" x="1912.976562"/>
     <use xlink:href="#DejaVuSans-20" x="1954.089844"/>
     <use xlink:href="#DejaVuSans-54" x="1985.876953"/>
     <use xlink:href="#DejaVuSans-69" x="2043.835938"/>
     <use xlink:href="#DejaVuSans-6d" x="2071.619141"/>
     <use xlink:href="#DejaVuSans-65" x="2169.03125"/>
     <use xlink:href="#DejaVuSans-20" x="2230.554688"/>
     <use xlink:href="#DejaVuSans-6f" x="2262.341797"/>
     <use xlink:href="#DejaVuSans-66" x="2323.523438"/>
     <use xlink:href="#DejaVuSans-20" x="2358.728516"/>
     <use xlink:href="#DejaVuSans-47" x="2390.515625"/>
     <use xlink:href="#DejaVuSans-72" x="2468.005859"/>
     <use xlink:href="#DejaVuSans-6f" x="2506.869141"/>
     <use xlink:href="#DejaVuSans-75" x="2568.050781"/>
     <use xlink:href="#DejaVuSans-70" x="2631.429688"/>
     <use xlink:href="#DejaVuSans-20" x="2694.90625"/>
     <use xlink:href="#DejaVuSans-31" x="2726.693359"/>
     <use xlink:href="#DejaVuSans-20" x="2790.316406"/>
     <use xlink:href="#DejaVuSans-4d" x="2822.103516"/>
     <use xlink:href="#DejaVuSans-6f" x="2908.382812"/>
     <use xlink:href="#DejaVuSans-75" x="2969.564453"/>
     <use xlink:href="#DejaVuSans-73" x="3032.943359"/>
     <use xlink:href="#DejaVuSans-65" x="3085.042969"/>
     <use xlink:href="#DejaVuSans-20" x="3146.566406"/>
     <use xlink:href="#DejaVuSans-32" x="3178.353516"/>
    </g>
   </g>
   <g id="legend_1">
    <g id="patch_114">
     <path d="M 1086.550625 64.233437 
L 1158.235 64.233437 
Q 1160.235 64.233437 1160.235 62.233437 
L 1160.235 33.877187 
Q 1160.235 31.877187 1158.235 31.877187 
L 1086.550625 31.877187 
Q 1084.550625 31.877187 1084.550625 33.877187 
L 1084.550625 62.233437 
Q 1084.550625 64.233437 1086.550625 64.233437 
z
" style="fill: #ffffff; opacity: 0.8; stroke: #cccccc; stroke-linejoin: miter"/>
    </g>
    <g id="patch_115">
     <path d="M 1088.550625 43.475625 
L 1108.550625 43.475625 
L 1108.550625 36.475625 
L 1088.550625 36.475625 
z
" style="fill: #add8e6; opacity: 0.9; stroke: #add8e6; stroke-linejoin: miter"/>
    </g>
    <g id="text_18">
     <!-- Meal -->
     <g transform="translate(1116.550625 43.475625) scale(0.1 -0.1)">
      <use xlink:href="#DejaVuSans-4d"/>
      <use xlink:href="#DejaVuSans-65" x="86.279297"/>
      <use xlink:href="#DejaVuSans-61" x="147.802734"/>
      <use xlink:href="#DejaVuSans-6c" x="209.082031"/>
     </g>
    </g>
    <g id="patch_116">
     <path d="M 1088.550625 58.15375 
L 1108.550625 58.15375 
L 1108.550625 51.15375 
L 1088.550625 51.15375 
z
" style="fill: #808080; opacity: 0.5; stroke: #808080; stroke-linejoin: miter"/>
    </g>
    <g id="text_19">
     <!-- Inactive -->
     <g transform="translate(1116.550625 58.15375) scale(0.1 -0.1)">
      <defs>
       <path id="DejaVuSans-49" d="M 628 4666 
L 1259 4666 
L 1259 0 
L 628 0 
L 628 4666 
z
" transform="scale(0.015625)"/>
       <path id="DejaVuSans-63" d="M 3122 3366 
L 3122 2828 
Q 2878 2963 2633 3030 
Q 2388 3097 2138 3097 
Q 1578 3097 1268 2742 
Q 959 2388 959 1747 
Q 959 1106 1268 751 
Q 1578 397 2138 397 
Q 2388 397 2633 464 
Q 2878 531 3122 666 
L 3122 134 
Q 2881 22 2623 -34 
Q 2366 -91 2075 -91 
Q 1284 -91 818 406 
Q 353 903 353 1747 
Q 353 2603 823 3093 
Q 1294 3584 2113 3584 
Q 2378 3584 2631 3529 
Q 2884 3475 3122 3366 
z
" transform="scale(0.015625)"/>
      </defs>
      <use xlink:href="#DejaVuSans-49"/>
      <use xlink:href="#DejaVuSans-6e" x="29.492188"/>
      <use xlink:href="#DejaVuSans-61" x="92.871094"/>
      <use xlink:href="#DejaVuSans-63" x="154.150391"/>
      <use xlink:href="#DejaVuSans-74" x="209.130859"/>
      <use xlink:href="#DejaVuSans-69" x="248.339844"/>
      <use xlink:href="#DejaVuSans-76" x="276.123047"/>
      <use xlink:href="#DejaVuSans-65" x="335.302734"/>
     </g>
    </g>
   </g>
  </g>
 </g>
 <defs>
  <clipPath id="p8358f4c346">
   <rect x="49.235" y="26.877187" width="1116" height="332.64"/>
  </clipPath>
 </defs>
</svg>
