<?xml version="1.0" encoding="utf-8" standalone="no"?>
<!DOCTYPE svg PUBLIC "-//W3C//DTD SVG 1.1//EN"
  "http://www.w3.org/Graphics/SVG/1.1/DTD/svg11.dtd">
<svg xmlns:xlink="http://www.w3.org/1999/xlink" width="1180.947179pt" height="399.009062pt" viewBox="0 0 1180.947179 399.009062" xmlns="http://www.w3.org/2000/svg" version="1.1">
 <metadata>
  <rdf:RDF xmlns:dc="http://purl.org/dc/elements/1.1/" xmlns:cc="http://creativecommons.org/ns#" xmlns:rdf="http://www.w3.org/1999/02/22-rdf-syntax-ns#">
   <cc:Work>
    <dc:type rdf:resource="http://purl.org/dc/dcmitype/StillImage"/>
    <dc:date>2025-10-01T20:29:37.547801</dc:date>
    <dc:format>image/svg+xml</dc:format>
    <dc:creator>
     <cc:Agent>
      <dc:title>Matplotlib v3.8.4, https://matplotlib.org/</dc:title>
     </cc:Agent>
    </dc:creator>
   </cc:Work>
  </rdf:RDF>
 </metadata>
 <defs>
  <style type="text/css">*{stroke-linejoin: round; stroke-linecap: butt}</style>
 </defs>
 <g id="figure_1">
  <g id="patch_1">
   <path d="M 0 399.009062 
L 1180.947179 399.009062 
L 1180.947179 0 
L 0 0 
z
" style="fill: #ffffff"/>
  </g>
  <g id="axes_1">
   <g id="patch_2">
    <path d="M 49.235 359.517187 
L 1165.235 359.517187 
L 1165.235 26.877187 
L 49.235 26.877187 
z
" style="fill: #ffffff"/>
   </g>
   <g id="patch_3">
    <path d="M 176.403661 359.517187 
L 176.403661 26.877187 
L 175.377464 26.877187 
L 175.377464 359.517187 
z
" clip-path="url(#p9c28e0f396)" style="fill: #add8e6; stroke: #add8e6; stroke-linejoin: miter"/>
   </g>
   <g id="patch_4">
    <path d="M 198.628291 359.517187 
L 198.628291 26.877187 
L 192.446277 26.877187 
L 192.446277 359.517187 
z
" clip-path="url(#p9c28e0f396)" style="fill: #add8e6; stroke: #add8e6; stroke-linejoin: miter"/>
   </g>
   <g id="patch_5">
    <path d="M 193.358683 359.517187 
L 193.358683 26.877187 
L 193.400062 26.877187 
L 193.400062 359.517187 
z
" clip-path="url(#p9c28e0f396)" style="fill: #add8e6; stroke: #add8e6; stroke-linejoin: miter"/>
   </g>
   <g id="patch_6">
    <path d="M 200.974477 359.517187 
L 200.974477 26.877187 
L 195.053151 26.877187 
L 195.053151 359.517187 
z
" clip-path="url(#p9c28e0f396)" style="fill: #add8e6; stroke: #add8e6; stroke-linejoin: miter"/>
   </g>
   <g id="patch_7">
    <path d="M 200.759307 359.517187 
L 200.759307 26.877187 
L 200.829651 26.877187 
L 200.829651 359.517187 
z
" clip-path="url(#p9c28e0f396)" style="fill: #add8e6; stroke: #add8e6; stroke-linejoin: miter"/>
   </g>
   <g id="patch_8">
    <path d="M 204.363413 359.517187 
L 204.363413 26.877187 
L 204.835133 26.877187 
L 204.835133 359.517187 
z
" clip-path="url(#p9c28e0f396)" style="fill: #add8e6; stroke: #add8e6; stroke-linejoin: miter"/>
   </g>
   <g id="patch_9">
    <path d="M 206.33305 359.517187 
L 206.33305 26.877187 
L 205.435127 26.877187 
L 205.435127 359.517187 
z
" clip-path="url(#p9c28e0f396)" style="fill: #add8e6; stroke: #add8e6; stroke-linejoin: miter"/>
   </g>
   <g id="patch_10">
    <path d="M 215.761242 359.517187 
L 215.761242 26.877187 
L 207.919933 26.877187 
L 207.919933 359.517187 
z
" clip-path="url(#p9c28e0f396)" style="fill: #add8e6; stroke: #add8e6; stroke-linejoin: miter"/>
   </g>
   <g id="patch_11">
    <path d="M 211.714382 359.517187 
L 211.714382 26.877187 
L 211.159904 26.877187 
L 211.159904 359.517187 
z
" clip-path="url(#p9c28e0f396)" style="fill: #add8e6; stroke: #add8e6; stroke-linejoin: miter"/>
   </g>
   <g id="patch_12">
    <path d="M 222.09222 359.517187 
L 222.09222 26.877187 
L 222.005325 26.877187 
L 222.005325 359.517187 
z
" clip-path="url(#p9c28e0f396)" style="fill: #add8e6; stroke: #add8e6; stroke-linejoin: miter"/>
   </g>
   <g id="patch_13">
    <path d="M 223.000488 359.517187 
L 223.000488 26.877187 
L 222.690146 26.877187 
L 222.690146 359.517187 
z
" clip-path="url(#p9c28e0f396)" style="fill: #add8e6; stroke: #add8e6; stroke-linejoin: miter"/>
   </g>
   <g id="patch_14">
    <path d="M 227.448724 359.517187 
L 227.448724 26.877187 
L 227.419759 26.877187 
L 227.419759 359.517187 
z
" clip-path="url(#p9c28e0f396)" style="fill: #add8e6; stroke: #add8e6; stroke-linejoin: miter"/>
   </g>
   <g id="patch_15">
    <path d="M 248.363711 359.517187 
L 248.363711 26.877187 
L 248.419572 26.877187 
L 248.419572 359.517187 
z
" clip-path="url(#p9c28e0f396)" style="fill: #add8e6; stroke: #add8e6; stroke-linejoin: miter"/>
   </g>
   <g id="patch_16">
    <path d="M 250.705759 359.517187 
L 250.705759 26.877187 
L 250.95817 26.877187 
L 250.95817 359.517187 
z
" clip-path="url(#p9c28e0f396)" style="fill: #add8e6; stroke: #add8e6; stroke-linejoin: miter"/>
   </g>
   <g id="patch_17">
    <path d="M 257.268459 359.517187 
L 257.268459 26.877187 
L 258.776722 26.877187 
L 258.776722 359.517187 
z
" clip-path="url(#p9c28e0f396)" style="fill: #add8e6; stroke: #add8e6; stroke-linejoin: miter"/>
   </g>
   <g id="patch_18">
    <path d="M 295.587428 359.517187 
L 295.587428 26.877187 
L 265.614592 26.877187 
L 265.614592 359.517187 
z
" clip-path="url(#p9c28e0f396)" style="fill: #add8e6; stroke: #add8e6; stroke-linejoin: miter"/>
   </g>
   <g id="patch_19">
    <path d="M 269.688349 359.517187 
L 269.688349 26.877187 
L 269.706969 26.877187 
L 269.706969 359.517187 
z
" clip-path="url(#p9c28e0f396)" style="fill: #add8e6; stroke: #add8e6; stroke-linejoin: miter"/>
   </g>
   <g id="patch_20">
    <path d="M 281.636518 359.517187 
L 281.636518 26.877187 
L 281.845482 26.877187 
L 281.845482 359.517187 
z
" clip-path="url(#p9c28e0f396)" style="fill: #add8e6; stroke: #add8e6; stroke-linejoin: miter"/>
   </g>
   <g id="patch_21">
    <path d="M 282.61513 359.517187 
L 282.61513 26.877187 
L 283.426157 26.877187 
L 283.426157 359.517187 
z
" clip-path="url(#p9c28e0f396)" style="fill: #add8e6; stroke: #add8e6; stroke-linejoin: miter"/>
   </g>
   <g id="patch_22">
    <path d="M 294.962606 359.517187 
L 294.962606 26.877187 
L 296.4088 26.877187 
L 296.4088 359.517187 
z
" clip-path="url(#p9c28e0f396)" style="fill: #add8e6; stroke: #add8e6; stroke-linejoin: miter"/>
   </g>
   <g id="patch_23">
    <path d="M 341.755983 359.517187 
L 341.755983 26.877187 
L 312.056247 26.877187 
L 312.056247 359.517187 
z
" clip-path="url(#p9c28e0f396)" style="fill: #add8e6; stroke: #add8e6; stroke-linejoin: miter"/>
   </g>
   <g id="patch_24">
    <path d="M 313.01417 359.517187 
L 313.01417 26.877187 
L 312.538312 26.877187 
L 312.538312 359.517187 
z
" clip-path="url(#p9c28e0f396)" style="fill: #add8e6; stroke: #add8e6; stroke-linejoin: miter"/>
   </g>
   <g id="patch_25">
    <path d="M 313.19003 359.517187 
L 313.19003 26.877187 
L 314.241056 26.877187 
L 314.241056 359.517187 
z
" clip-path="url(#p9c28e0f396)" style="fill: #add8e6; stroke: #add8e6; stroke-linejoin: miter"/>
   </g>
   <g id="patch_26">
    <path d="M 351.014521 359.517187 
L 351.014521 26.877187 
L 333.03744 26.877187 
L 333.03744 359.517187 
z
" clip-path="url(#p9c28e0f396)" style="fill: #add8e6; stroke: #add8e6; stroke-linejoin: miter"/>
   </g>
   <g id="patch_27">
    <path d="M 364.700607 359.517187 
L 364.700607 26.877187 
L 334.123637 26.877187 
L 334.123637 359.517187 
z
" clip-path="url(#p9c28e0f396)" style="fill: #add8e6; stroke: #add8e6; stroke-linejoin: miter"/>
   </g>
   <g id="patch_28">
    <path d="M 368.724709 359.517187 
L 368.724709 26.877187 
L 338.193256 26.877187 
L 338.193256 359.517187 
z
" clip-path="url(#p9c28e0f396)" style="fill: #add8e6; stroke: #add8e6; stroke-linejoin: miter"/>
   </g>
   <g id="patch_29">
    <path d="M 340.183583 359.517187 
L 340.183583 26.877187 
L 339.809104 26.877187 
L 339.809104 359.517187 
z
" clip-path="url(#p9c28e0f396)" style="fill: #add8e6; stroke: #add8e6; stroke-linejoin: miter"/>
   </g>
   <g id="patch_30">
    <path d="M 354.00415 359.517187 
L 354.00415 26.877187 
L 353.979323 26.877187 
L 353.979323 359.517187 
z
" clip-path="url(#p9c28e0f396)" style="fill: #add8e6; stroke: #add8e6; stroke-linejoin: miter"/>
   </g>
   <g id="patch_31">
    <path d="M 354.628972 359.517187 
L 354.628972 26.877187 
L 356.097924 26.877187 
L 356.097924 359.517187 
z
" clip-path="url(#p9c28e0f396)" style="fill: #add8e6; stroke: #add8e6; stroke-linejoin: miter"/>
   </g>
   <g id="patch_32">
    <path d="M 358.377904 359.517187 
L 358.377904 26.877187 
L 358.499972 26.877187 
L 358.499972 359.517187 
z
" clip-path="url(#p9c28e0f396)" style="fill: #add8e6; stroke: #add8e6; stroke-linejoin: miter"/>
   </g>
   <g id="patch_33">
    <path d="M 399.852018 359.517187 
L 399.852018 26.877187 
L 372.591571 26.877187 
L 372.591571 359.517187 
z
" clip-path="url(#p9c28e0f396)" style="fill: #add8e6; stroke: #add8e6; stroke-linejoin: miter"/>
   </g>
   <g id="patch_34">
    <path d="M 384.12802 359.517187 
L 384.12802 26.877187 
L 382.04459 26.877187 
L 382.04459 359.517187 
z
" clip-path="url(#p9c28e0f396)" style="fill: #add8e6; stroke: #add8e6; stroke-linejoin: miter"/>
   </g>
   <g id="patch_35">
    <path d="M 430.751743 359.517187 
L 430.751743 26.877187 
L 400.346496 26.877187 
L 400.346496 359.517187 
z
" clip-path="url(#p9c28e0f396)" style="fill: #add8e6; stroke: #add8e6; stroke-linejoin: miter"/>
   </g>
   <g id="patch_36">
    <path d="M 413.056038 359.517187 
L 413.056038 26.877187 
L 402.071998 26.877187 
L 402.071998 359.517187 
z
" clip-path="url(#p9c28e0f396)" style="fill: #add8e6; stroke: #add8e6; stroke-linejoin: miter"/>
   </g>
   <g id="patch_37">
    <path d="M 405.144385 359.517187 
L 405.144385 26.877187 
L 403.007162 26.877187 
L 403.007162 359.517187 
z
" clip-path="url(#p9c28e0f396)" style="fill: #add8e6; stroke: #add8e6; stroke-linejoin: miter"/>
   </g>
   <g id="patch_38">
    <path d="M 463.482486 359.517187 
L 463.482486 26.877187 
L 435.293082 26.877187 
L 435.293082 359.517187 
z
" clip-path="url(#p9c28e0f396)" style="fill: #add8e6; stroke: #add8e6; stroke-linejoin: miter"/>
   </g>
   <g id="patch_39">
    <path d="M 435.971696 359.517187 
L 435.971696 26.877187 
L 437.664095 26.877187 
L 437.664095 359.517187 
z
" clip-path="url(#p9c28e0f396)" style="fill: #add8e6; stroke: #add8e6; stroke-linejoin: miter"/>
   </g>
   <g id="patch_40">
    <path d="M 480.72716 359.517187 
L 480.72716 26.877187 
L 450.886736 26.877187 
L 450.886736 359.517187 
z
" clip-path="url(#p9c28e0f396)" style="fill: #add8e6; stroke: #add8e6; stroke-linejoin: miter"/>
   </g>
   <g id="patch_41">
    <path d="M 451.550868 359.517187 
L 451.550868 26.877187 
L 451.902589 26.877187 
L 451.902589 359.517187 
z
" clip-path="url(#p9c28e0f396)" style="fill: #add8e6; stroke: #add8e6; stroke-linejoin: miter"/>
   </g>
   <g id="patch_42">
    <path d="M 452.52948 359.517187 
L 452.52948 26.877187 
L 452.972235 26.877187 
L 452.972235 359.517187 
z
" clip-path="url(#p9c28e0f396)" style="fill: #add8e6; stroke: #add8e6; stroke-linejoin: miter"/>
   </g>
   <g id="patch_43">
    <path d="M 503.361442 359.517187 
L 503.361442 26.877187 
L 472.432751 26.877187 
L 472.432751 359.517187 
z
" clip-path="url(#p9c28e0f396)" style="fill: #add8e6; stroke: #add8e6; stroke-linejoin: miter"/>
   </g>
   <g id="patch_44">
    <path d="M 484.465748 359.517187 
L 484.465748 26.877187 
L 475.064452 26.877187 
L 475.064452 359.517187 
z
" clip-path="url(#p9c28e0f396)" style="fill: #add8e6; stroke: #add8e6; stroke-linejoin: miter"/>
   </g>
   <g id="patch_45">
    <path d="M 525.323315 359.517187 
L 525.323315 26.877187 
L 495.520132 26.877187 
L 495.520132 359.517187 
z
" clip-path="url(#p9c28e0f396)" style="fill: #add8e6; stroke: #add8e6; stroke-linejoin: miter"/>
   </g>
   <g id="patch_46">
    <path d="M 554.019611 359.517187 
L 554.019611 26.877187 
L 524.986077 26.877187 
L 524.986077 359.517187 
z
" clip-path="url(#p9c28e0f396)" style="fill: #add8e6; stroke: #add8e6; stroke-linejoin: miter"/>
   </g>
   <g id="patch_47">
    <path d="M 540.354216 359.517187 
L 540.354216 26.877187 
L 540.695592 26.877187 
L 540.695592 359.517187 
z
" clip-path="url(#p9c28e0f396)" style="fill: #add8e6; stroke: #add8e6; stroke-linejoin: miter"/>
   </g>
   <g id="patch_48">
    <path d="M 553.752717 359.517187 
L 553.752717 26.877187 
L 553.703063 26.877187 
L 553.703063 359.517187 
z
" clip-path="url(#p9c28e0f396)" style="fill: #add8e6; stroke: #add8e6; stroke-linejoin: miter"/>
   </g>
   <g id="patch_49">
    <path d="M 554.418918 359.517187 
L 554.418918 26.877187 
L 554.433401 26.877187 
L 554.433401 359.517187 
z
" clip-path="url(#p9c28e0f396)" style="fill: #add8e6; stroke: #add8e6; stroke-linejoin: miter"/>
   </g>
   <g id="patch_50">
    <path d="M 646.067068 359.517187 
L 646.067068 26.877187 
L 615.190102 26.877187 
L 615.190102 359.517187 
z
" clip-path="url(#p9c28e0f396)" style="fill: #add8e6; stroke: #add8e6; stroke-linejoin: miter"/>
   </g>
   <g id="patch_51">
    <path d="M 617.681114 359.517187 
L 617.681114 26.877187 
L 618.0618 26.877187 
L 618.0618 359.517187 
z
" clip-path="url(#p9c28e0f396)" style="fill: #add8e6; stroke: #add8e6; stroke-linejoin: miter"/>
   </g>
   <g id="patch_52">
    <path d="M 692.794239 359.517187 
L 692.794239 26.877187 
L 662.401406 26.877187 
L 662.401406 359.517187 
z
" clip-path="url(#p9c28e0f396)" style="fill: #add8e6; stroke: #add8e6; stroke-linejoin: miter"/>
   </g>
   <g id="patch_53">
    <path d="M 663.026228 359.517187 
L 663.026228 26.877187 
L 664.294492 26.877187 
L 664.294492 359.517187 
z
" clip-path="url(#p9c28e0f396)" style="fill: #add8e6; stroke: #add8e6; stroke-linejoin: miter"/>
   </g>
   <g id="patch_54">
    <path d="M 665.186208 359.517187 
L 665.186208 26.877187 
L 664.615179 26.877187 
L 664.615179 359.517187 
z
" clip-path="url(#p9c28e0f396)" style="fill: #add8e6; stroke: #add8e6; stroke-linejoin: miter"/>
   </g>
   <g id="patch_55">
    <path d="M 753.269563 359.517187 
L 753.269563 26.877187 
L 724.707748 26.877187 
L 724.707748 359.517187 
z
" clip-path="url(#p9c28e0f396)" style="fill: #add8e6; stroke: #add8e6; stroke-linejoin: miter"/>
   </g>
   <g id="patch_56">
    <path d="M 726.149804 359.517187 
L 726.149804 26.877187 
L 725.613947 26.877187 
L 725.613947 359.517187 
z
" clip-path="url(#p9c28e0f396)" style="fill: #add8e6; stroke: #add8e6; stroke-linejoin: miter"/>
   </g>
   <g id="patch_57">
    <path d="M 772.738355 359.517187 
L 772.738355 26.877187 
L 741.62139 26.877187 
L 741.62139 359.517187 
z
" clip-path="url(#p9c28e0f396)" style="fill: #add8e6; stroke: #add8e6; stroke-linejoin: miter"/>
   </g>
   <g id="patch_58">
    <path d="M 755.348854 359.517187 
L 755.348854 26.877187 
L 755.814367 26.877187 
L 755.814367 359.517187 
z
" clip-path="url(#p9c28e0f396)" style="fill: #add8e6; stroke: #add8e6; stroke-linejoin: miter"/>
   </g>
   <g id="patch_59">
    <path d="M 819.906211 359.517187 
L 819.906211 26.877187 
L 820.986201 26.877187 
L 820.986201 359.517187 
z
" clip-path="url(#p9c28e0f396)" style="fill: #add8e6; stroke: #add8e6; stroke-linejoin: miter"/>
   </g>
   <g id="patch_60">
    <path d="M 828.355791 359.517187 
L 828.355791 26.877187 
L 822.196535 26.877187 
L 822.196535 359.517187 
z
" clip-path="url(#p9c28e0f396)" style="fill: #add8e6; stroke: #add8e6; stroke-linejoin: miter"/>
   </g>
   <g id="patch_61">
    <path d="M 826.367533 359.517187 
L 826.367533 26.877187 
L 826.442015 26.877187 
L 826.442015 359.517187 
z
" clip-path="url(#p9c28e0f396)" style="fill: #add8e6; stroke: #add8e6; stroke-linejoin: miter"/>
   </g>
   <g id="patch_62">
    <path d="M 857.558979 359.517187 
L 857.558979 26.877187 
L 858.082423 26.877187 
L 858.082423 359.517187 
z
" clip-path="url(#p9c28e0f396)" style="fill: #add8e6; stroke: #add8e6; stroke-linejoin: miter"/>
   </g>
   <g id="patch_63">
    <path d="M 859.156206 359.517187 
L 859.156206 26.877187 
L 860.201025 26.877187 
L 860.201025 359.517187 
z
" clip-path="url(#p9c28e0f396)" style="fill: #add8e6; stroke: #add8e6; stroke-linejoin: miter"/>
   </g>
   <g id="patch_64">
    <path d="M 898.209652 359.517187 
L 898.209652 26.877187 
L 867.351306 26.877187 
L 867.351306 359.517187 
z
" clip-path="url(#p9c28e0f396)" style="fill: #add8e6; stroke: #add8e6; stroke-linejoin: miter"/>
   </g>
   <g id="patch_65">
    <path d="M 869.03336 359.517187 
L 869.03336 26.877187 
L 869.200945 26.877187 
L 869.200945 359.517187 
z
" clip-path="url(#p9c28e0f396)" style="fill: #add8e6; stroke: #add8e6; stroke-linejoin: miter"/>
   </g>
   <g id="patch_66">
    <path d="M 877.706386 359.517187 
L 877.706386 26.877187 
L 869.871284 26.877187 
L 869.871284 359.517187 
z
" clip-path="url(#p9c28e0f396)" style="fill: #add8e6; stroke: #add8e6; stroke-linejoin: miter"/>
   </g>
   <g id="patch_67">
    <path d="M 925.002517 359.517187 
L 925.002517 26.877187 
L 894.402789 26.877187 
L 894.402789 359.517187 
z
" clip-path="url(#p9c28e0f396)" style="fill: #add8e6; stroke: #add8e6; stroke-linejoin: miter"/>
   </g>
   <g id="patch_68">
    <path d="M 937.633439 359.517187 
L 937.633439 26.877187 
L 908.059909 26.877187 
L 908.059909 359.517187 
z
" clip-path="url(#p9c28e0f396)" style="fill: #add8e6; stroke: #add8e6; stroke-linejoin: miter"/>
   </g>
   <g id="patch_69">
    <path d="M 1004.036297 359.517187 
L 1004.036297 26.877187 
L 973.624843 26.877187 
L 973.624843 359.517187 
z
" clip-path="url(#p9c28e0f396)" style="fill: #add8e6; stroke: #add8e6; stroke-linejoin: miter"/>
   </g>
   <g id="patch_70">
    <path d="M 983.973716 359.517187 
L 983.973716 26.877187 
L 974.419319 26.877187 
L 974.419319 359.517187 
z
" clip-path="url(#p9c28e0f396)" style="fill: #add8e6; stroke: #add8e6; stroke-linejoin: miter"/>
   </g>
   <g id="patch_71">
    <path d="M 988.1323 359.517187 
L 988.1323 26.877187 
L 979.558583 26.877187 
L 979.558583 359.517187 
z
" clip-path="url(#p9c28e0f396)" style="fill: #add8e6; stroke: #add8e6; stroke-linejoin: miter"/>
   </g>
   <g id="patch_72">
    <path d="M 1011.914847 359.517187 
L 1011.914847 26.877187 
L 996.021195 26.877187 
L 996.021195 359.517187 
z
" clip-path="url(#p9c28e0f396)" style="fill: #add8e6; stroke: #add8e6; stroke-linejoin: miter"/>
   </g>
   <g id="patch_73">
    <path d="M 1001.052875 359.517187 
L 1001.052875 26.877187 
L 997.614285 26.877187 
L 997.614285 359.517187 
z
" clip-path="url(#p9c28e0f396)" style="fill: #add8e6; stroke: #add8e6; stroke-linejoin: miter"/>
   </g>
   <g id="patch_74">
    <path d="M 1055.077222 359.517187 
L 1055.077222 26.877187 
L 1025.654725 26.877187 
L 1025.654725 359.517187 
z
" clip-path="url(#p9c28e0f396)" style="fill: #add8e6; stroke: #add8e6; stroke-linejoin: miter"/>
   </g>
   <g id="patch_75">
    <path d="M 1069.632265 359.517187 
L 1069.632265 26.877187 
L 1039.744255 26.877187 
L 1039.744255 359.517187 
z
" clip-path="url(#p9c28e0f396)" style="fill: #add8e6; stroke: #add8e6; stroke-linejoin: miter"/>
   </g>
   <g id="patch_76">
    <path d="M 1041.428378 359.517187 
L 1041.428378 26.877187 
L 1041.854581 26.877187 
L 1041.854581 359.517187 
z
" clip-path="url(#p9c28e0f396)" style="fill: #add8e6; stroke: #add8e6; stroke-linejoin: miter"/>
   </g>
   <g id="patch_77">
    <path d="M 1045.820752 359.517187 
L 1045.820752 26.877187 
L 1045.913855 26.877187 
L 1045.913855 359.517187 
z
" clip-path="url(#p9c28e0f396)" style="fill: #add8e6; stroke: #add8e6; stroke-linejoin: miter"/>
   </g>
   <g id="patch_78">
    <path d="M 1083.597658 359.517187 
L 1083.597658 26.877187 
L 1054.17723 26.877187 
L 1054.17723 359.517187 
z
" clip-path="url(#p9c28e0f396)" style="fill: #add8e6; stroke: #add8e6; stroke-linejoin: miter"/>
   </g>
   <g id="patch_79">
    <path d="M 1071.186044 359.517187 
L 1071.186044 26.877187 
L 1062.241985 26.877187 
L 1062.241985 359.517187 
z
" clip-path="url(#p9c28e0f396)" style="fill: #add8e6; stroke: #add8e6; stroke-linejoin: miter"/>
   </g>
   <g id="patch_80">
    <path d="M 1074.953596 359.517187 
L 1074.953596 26.877187 
L 1063.425423 26.877187 
L 1063.425423 359.517187 
z
" clip-path="url(#p9c28e0f396)" style="fill: #add8e6; stroke: #add8e6; stroke-linejoin: miter"/>
   </g>
   <g id="patch_81">
    <path d="M 1114.507727 359.517187 
L 1114.507727 26.877187 
L 1083.328694 26.877187 
L 1083.328694 359.517187 
z
" clip-path="url(#p9c28e0f396)" style="fill: #add8e6; stroke: #add8e6; stroke-linejoin: miter"/>
   </g>
   <g id="patch_82">
    <path d="M 522.027482 359.517187 
L 522.027482 26.877187 
L 968.920057 26.877187 
L 968.920057 359.517187 
z
" clip-path="url(#p9c28e0f396)" style="fill: #808080; opacity: 0.4; stroke: #808080; stroke-linejoin: miter"/>
   </g>
   <g id="matplotlib.axis_1">
    <g id="xtick_1">
     <g id="line2d_1">
      <defs>
       <path id="m65b755295f" d="M 0 0 
L 0 3.5 
" style="stroke: #000000; stroke-width: 0.8"/>
      </defs>
      <g>
       <use xlink:href="#m65b755295f" x="145.758417" y="359.517187" style="stroke: #000000; stroke-width: 0.8"/>
      </g>
     </g>
     <g id="text_1">
      <!-- 09-01 09 -->
      <g transform="translate(123.277948 374.115625) scale(0.1 -0.1)">
       <defs>
        <path id="DejaVuSans-30" d="M 2034 4250 
Q 1547 4250 1301 3770 
Q 1056 3291 1056 2328 
Q 1056 1369 1301 889 
Q 1547 409 2034 409 
Q 2525 409 2770 889 
Q 3016 1369 3016 2328 
Q 3016 3291 2770 3770 
Q 2525 4250 2034 4250 
z
M 2034 4750 
Q 2819 4750 3233 4129 
Q 3647 3509 3647 2328 
Q 3647 1150 3233 529 
Q 2819 -91 2034 -91 
Q 1250 -91 836 529 
Q 422 1150 422 2328 
Q 422 3509 836 4129 
Q 1250 4750 2034 4750 
z
" transform="scale(0.015625)"/>
        <path id="DejaVuSans-39" d="M 703 97 
L 703 672 
Q 941 559 1184 500 
Q 1428 441 1663 441 
Q 2288 441 2617 861 
Q 2947 1281 2994 2138 
Q 2813 1869 2534 1725 
Q 2256 1581 1919 1581 
Q 1219 1581 811 2004 
Q 403 2428 403 3163 
Q 403 3881 828 4315 
Q 1253 4750 1959 4750 
Q 2769 4750 3195 4129 
Q 3622 3509 3622 2328 
Q 3622 1225 3098 567 
Q 2575 -91 1691 -91 
Q 1453 -91 1209 -44 
Q 966 3 703 97 
z
M 1959 2075 
Q 2384 2075 2632 2365 
Q 2881 2656 2881 3163 
Q 2881 3666 2632 3958 
Q 2384 4250 1959 4250 
Q 1534 4250 1286 3958 
Q 1038 3666 1038 3163 
Q 1038 2656 1286 2365 
Q 1534 2075 1959 2075 
z
" transform="scale(0.015625)"/>
        <path id="DejaVuSans-2d" d="M 313 2009 
L 1997 2009 
L 1997 1497 
L 313 1497 
L 313 2009 
z
" transform="scale(0.015625)"/>
        <path id="DejaVuSans-31" d="M 794 531 
L 1825 531 
L 1825 4091 
L 703 3866 
L 703 4441 
L 1819 4666 
L 2450 4666 
L 2450 531 
L 3481 531 
L 3481 0 
L 794 0 
L 794 531 
z
" transform="scale(0.015625)"/>
        <path id="DejaVuSans-20" transform="scale(0.015625)"/>
       </defs>
       <use xlink:href="#DejaVuSans-30"/>
       <use xlink:href="#DejaVuSans-39" x="63.623047"/>
       <use xlink:href="#DejaVuSans-2d" x="127.246094"/>
       <use xlink:href="#DejaVuSans-30" x="163.330078"/>
       <use xlink:href="#DejaVuSans-31" x="226.953125"/>
       <use xlink:href="#DejaVuSans-20" x="290.576172"/>
       <use xlink:href="#DejaVuSans-30" x="322.363281"/>
       <use xlink:href="#DejaVuSans-39" x="385.986328"/>
      </g>
     </g>
    </g>
    <g id="xtick_2">
     <g id="line2d_2">
      <g>
       <use xlink:href="#m65b755295f" x="257.481561" y="359.517187" style="stroke: #000000; stroke-width: 0.8"/>
      </g>
     </g>
     <g id="text_2">
      <!-- 09-01 12 -->
      <g transform="translate(235.001092 374.115625) scale(0.1 -0.1)">
       <defs>
        <path id="DejaVuSans-32" d="M 1228 531 
L 3431 531 
L 3431 0 
L 469 0 
L 469 531 
Q 828 903 1448 1529 
Q 2069 2156 2228 2338 
Q 2531 2678 2651 2914 
Q 2772 3150 2772 3378 
Q 2772 3750 2511 3984 
Q 2250 4219 1831 4219 
Q 1534 4219 1204 4116 
Q 875 4013 500 3803 
L 500 4441 
Q 881 4594 1212 4672 
Q 1544 4750 1819 4750 
Q 2544 4750 2975 4387 
Q 3406 4025 3406 3419 
Q 3406 3131 3298 2873 
Q 3191 2616 2906 2266 
Q 2828 2175 2409 1742 
Q 1991 1309 1228 531 
z
" transform="scale(0.015625)"/>
       </defs>
       <use xlink:href="#DejaVuSans-30"/>
       <use xlink:href="#DejaVuSans-39" x="63.623047"/>
       <use xlink:href="#DejaVuSans-2d" x="127.246094"/>
       <use xlink:href="#DejaVuSans-30" x="163.330078"/>
       <use xlink:href="#DejaVuSans-31" x="226.953125"/>
       <use xlink:href="#DejaVuSans-20" x="290.576172"/>
       <use xlink:href="#DejaVuSans-31" x="322.363281"/>
       <use xlink:href="#DejaVuSans-32" x="385.986328"/>
      </g>
     </g>
    </g>
    <g id="xtick_3">
     <g id="line2d_3">
      <g>
       <use xlink:href="#m65b755295f" x="369.204704" y="359.517187" style="stroke: #000000; stroke-width: 0.8"/>
      </g>
     </g>
     <g id="text_3">
      <!-- 09-01 15 -->
      <g transform="translate(346.724236 374.115625) scale(0.1 -0.1)">
       <defs>
        <path id="DejaVuSans-35" d="M 691 4666 
L 3169 4666 
L 3169 4134 
L 1269 4134 
L 1269 2991 
Q 1406 3038 1543 3061 
Q 1681 3084 1819 3084 
Q 2600 3084 3056 2656 
Q 3513 2228 3513 1497 
Q 3513 744 3044 326 
Q 2575 -91 1722 -91 
Q 1428 -91 1123 -41 
Q 819 9 494 109 
L 494 744 
Q 775 591 1075 516 
Q 1375 441 1709 441 
Q 2250 441 2565 725 
Q 2881 1009 2881 1497 
Q 2881 1984 2565 2268 
Q 2250 2553 1709 2553 
Q 1456 2553 1204 2497 
Q 953 2441 691 2322 
L 691 4666 
z
" transform="scale(0.015625)"/>
       </defs>
       <use xlink:href="#DejaVuSans-30"/>
       <use xlink:href="#DejaVuSans-39" x="63.623047"/>
       <use xlink:href="#DejaVuSans-2d" x="127.246094"/>
       <use xlink:href="#DejaVuSans-30" x="163.330078"/>
       <use xlink:href="#DejaVuSans-31" x="226.953125"/>
       <use xlink:href="#DejaVuSans-20" x="290.576172"/>
       <use xlink:href="#DejaVuSans-31" x="322.363281"/>
       <use xlink:href="#DejaVuSans-35" x="385.986328"/>
      </g>
     </g>
    </g>
    <g id="xtick_4">
     <g id="line2d_4">
      <g>
       <use xlink:href="#m65b755295f" x="480.927848" y="359.517187" style="stroke: #000000; stroke-width: 0.8"/>
      </g>
     </g>
     <g id="text_4">
      <!-- 09-01 18 -->
      <g transform="translate(458.447379 374.115625) scale(0.1 -0.1)">
       <defs>
        <path id="DejaVuSans-38" d="M 2034 2216 
Q 1584 2216 1326 1975 
Q 1069 1734 1069 1313 
Q 1069 891 1326 650 
Q 1584 409 2034 409 
Q 2484 409 2743 651 
Q 3003 894 3003 1313 
Q 3003 1734 2745 1975 
Q 2488 2216 2034 2216 
z
M 1403 2484 
Q 997 2584 770 2862 
Q 544 3141 544 3541 
Q 544 4100 942 4425 
Q 1341 4750 2034 4750 
Q 2731 4750 3128 4425 
Q 3525 4100 3525 3541 
Q 3525 3141 3298 2862 
Q 3072 2584 2669 2484 
Q 3125 2378 3379 2068 
Q 3634 1759 3634 1313 
Q 3634 634 3220 271 
Q 2806 -91 2034 -91 
Q 1263 -91 848 271 
Q 434 634 434 1313 
Q 434 1759 690 2068 
Q 947 2378 1403 2484 
z
M 1172 3481 
Q 1172 3119 1398 2916 
Q 1625 2713 2034 2713 
Q 2441 2713 2670 2916 
Q 2900 3119 2900 3481 
Q 2900 3844 2670 4047 
Q 2441 4250 2034 4250 
Q 1625 4250 1398 4047 
Q 1172 3844 1172 3481 
z
" transform="scale(0.015625)"/>
       </defs>
       <use xlink:href="#DejaVuSans-30"/>
       <use xlink:href="#DejaVuSans-39" x="63.623047"/>
       <use xlink:href="#DejaVuSans-2d" x="127.246094"/>
       <use xlink:href="#DejaVuSans-30" x="163.330078"/>
       <use xlink:href="#DejaVuSans-31" x="226.953125"/>
       <use xlink:href="#DejaVuSans-20" x="290.576172"/>
       <use xlink:href="#DejaVuSans-31" x="322.363281"/>
       <use xlink:href="#DejaVuSans-38" x="385.986328"/>
      </g>
     </g>
    </g>
    <g id="xtick_5">
     <g id="line2d_5">
      <g>
       <use xlink:href="#m65b755295f" x="592.650992" y="359.517187" style="stroke: #000000; stroke-width: 0.8"/>
      </g>
     </g>
     <g id="text_5">
      <!-- 09-01 21 -->
      <g transform="translate(570.170523 374.115625) scale(0.1 -0.1)">
       <use xlink:href="#DejaVuSans-30"/>
       <use xlink:href="#DejaVuSans-39" x="63.623047"/>
       <use xlink:href="#DejaVuSans-2d" x="127.246094"/>
       <use xlink:href="#DejaVuSans-30" x="163.330078"/>
       <use xlink:href="#DejaVuSans-31" x="226.953125"/>
       <use xlink:href="#DejaVuSans-20" x="290.576172"/>
       <use xlink:href="#DejaVuSans-32" x="322.363281"/>
       <use xlink:href="#DejaVuSans-31" x="385.986328"/>
      </g>
     </g>
    </g>
    <g id="xtick_6">
     <g id="line2d_6">
      <g>
       <use xlink:href="#m65b755295f" x="704.374136" y="359.517187" style="stroke: #000000; stroke-width: 0.8"/>
      </g>
     </g>
     <g id="text_6">
      <!-- 09-02 00 -->
      <g transform="translate(681.893667 374.115625) scale(0.1 -0.1)">
       <use xlink:href="#DejaVuSans-30"/>
       <use xlink:href="#DejaVuSans-39" x="63.623047"/>
       <use xlink:href="#DejaVuSans-2d" x="127.246094"/>
       <use xlink:href="#DejaVuSans-30" x="163.330078"/>
       <use xlink:href="#DejaVuSans-32" x="226.953125"/>
       <use xlink:href="#DejaVuSans-20" x="290.576172"/>
       <use xlink:href="#DejaVuSans-30" x="322.363281"/>
       <use xlink:href="#DejaVuSans-30" x="385.986328"/>
      </g>
     </g>
    </g>
    <g id="xtick_7">
     <g id="line2d_7">
      <g>
       <use xlink:href="#m65b755295f" x="816.097279" y="359.517187" style="stroke: #000000; stroke-width: 0.8"/>
      </g>
     </g>
     <g id="text_7">
      <!-- 09-02 03 -->
      <g transform="translate(793.616811 374.115625) scale(0.1 -0.1)">
       <defs>
        <path id="DejaVuSans-33" d="M 2597 2516 
Q 3050 2419 3304 2112 
Q 3559 1806 3559 1356 
Q 3559 666 3084 287 
Q 2609 -91 1734 -91 
Q 1441 -91 1130 -33 
Q 819 25 488 141 
L 488 750 
Q 750 597 1062 519 
Q 1375 441 1716 441 
Q 2309 441 2620 675 
Q 2931 909 2931 1356 
Q 2931 1769 2642 2001 
Q 2353 2234 1838 2234 
L 1294 2234 
L 1294 2753 
L 1863 2753 
Q 2328 2753 2575 2939 
Q 2822 3125 2822 3475 
Q 2822 3834 2567 4026 
Q 2313 4219 1838 4219 
Q 1578 4219 1281 4162 
Q 984 4106 628 3988 
L 628 4550 
Q 988 4650 1302 4700 
Q 1616 4750 1894 4750 
Q 2613 4750 3031 4423 
Q 3450 4097 3450 3541 
Q 3450 3153 3228 2886 
Q 3006 2619 2597 2516 
z
" transform="scale(0.015625)"/>
       </defs>
       <use xlink:href="#DejaVuSans-30"/>
       <use xlink:href="#DejaVuSans-39" x="63.623047"/>
       <use xlink:href="#DejaVuSans-2d" x="127.246094"/>
       <use xlink:href="#DejaVuSans-30" x="163.330078"/>
       <use xlink:href="#DejaVuSans-32" x="226.953125"/>
       <use xlink:href="#DejaVuSans-20" x="290.576172"/>
       <use xlink:href="#DejaVuSans-30" x="322.363281"/>
       <use xlink:href="#DejaVuSans-33" x="385.986328"/>
      </g>
     </g>
    </g>
    <g id="xtick_8">
     <g id="line2d_8">
      <g>
       <use xlink:href="#m65b755295f" x="927.820423" y="359.517187" style="stroke: #000000; stroke-width: 0.8"/>
      </g>
     </g>
     <g id="text_8">
      <!-- 09-02 06 -->
      <g transform="translate(905.339954 374.115625) scale(0.1 -0.1)">
       <defs>
        <path id="DejaVuSans-36" d="M 2113 2584 
Q 1688 2584 1439 2293 
Q 1191 2003 1191 1497 
Q 1191 994 1439 701 
Q 1688 409 2113 409 
Q 2538 409 2786 701 
Q 3034 994 3034 1497 
Q 3034 2003 2786 2293 
Q 2538 2584 2113 2584 
z
M 3366 4563 
L 3366 3988 
Q 3128 4100 2886 4159 
Q 2644 4219 2406 4219 
Q 1781 4219 1451 3797 
Q 1122 3375 1075 2522 
Q 1259 2794 1537 2939 
Q 1816 3084 2150 3084 
Q 2853 3084 3261 2657 
Q 3669 2231 3669 1497 
Q 3669 778 3244 343 
Q 2819 -91 2113 -91 
Q 1303 -91 875 529 
Q 447 1150 447 2328 
Q 447 3434 972 4092 
Q 1497 4750 2381 4750 
Q 2619 4750 2861 4703 
Q 3103 4656 3366 4563 
z
" transform="scale(0.015625)"/>
       </defs>
       <use xlink:href="#DejaVuSans-30"/>
       <use xlink:href="#DejaVuSans-39" x="63.623047"/>
       <use xlink:href="#DejaVuSans-2d" x="127.246094"/>
       <use xlink:href="#DejaVuSans-30" x="163.330078"/>
       <use xlink:href="#DejaVuSans-32" x="226.953125"/>
       <use xlink:href="#DejaVuSans-20" x="290.576172"/>
       <use xlink:href="#DejaVuSans-30" x="322.363281"/>
       <use xlink:href="#DejaVuSans-36" x="385.986328"/>
      </g>
     </g>
    </g>
    <g id="xtick_9">
     <g id="line2d_9">
      <g>
       <use xlink:href="#m65b755295f" x="1039.543567" y="359.517187" style="stroke: #000000; stroke-width: 0.8"/>
      </g>
     </g>
     <g id="text_9">
      <!-- 09-02 09 -->
      <g transform="translate(1017.063098 374.115625) scale(0.1 -0.1)">
       <use xlink:href="#DejaVuSans-30"/>
       <use xlink:href="#DejaVuSans-39" x="63.623047"/>
       <use xlink:href="#DejaVuSans-2d" x="127.246094"/>
       <use xlink:href="#DejaVuSans-30" x="163.330078"/>
       <use xlink:href="#DejaVuSans-32" x="226.953125"/>
       <use xlink:href="#DejaVuSans-20" x="290.576172"/>
       <use xlink:href="#DejaVuSans-30" x="322.363281"/>
       <use xlink:href="#DejaVuSans-39" x="385.986328"/>
      </g>
     </g>
    </g>
    <g id="xtick_10">
     <g id="line2d_10">
      <g>
       <use xlink:href="#m65b755295f" x="1151.266711" y="359.517187" style="stroke: #000000; stroke-width: 0.8"/>
      </g>
     </g>
     <g id="text_10">
      <!-- 09-02 12 -->
      <g transform="translate(1128.786242 374.115625) scale(0.1 -0.1)">
       <use xlink:href="#DejaVuSans-30"/>
       <use xlink:href="#DejaVuSans-39" x="63.623047"/>
       <use xlink:href="#DejaVuSans-2d" x="127.246094"/>
       <use xlink:href="#DejaVuSans-30" x="163.330078"/>
       <use xlink:href="#DejaVuSans-32" x="226.953125"/>
       <use xlink:href="#DejaVuSans-20" x="290.576172"/>
       <use xlink:href="#DejaVuSans-31" x="322.363281"/>
       <use xlink:href="#DejaVuSans-32" x="385.986328"/>
      </g>
     </g>
    </g>
    <g id="text_11">
     <!-- Time -->
     <g transform="translate(592.554688 389.313437) scale(0.12 -0.12)">
      <defs>
       <path id="DejaVuSans-54" d="M -19 4666 
L 3928 4666 
L 3928 4134 
L 2272 4134 
L 2272 0 
L 1638 0 
L 1638 4134 
L -19 4134 
L -19 4666 
z
" transform="scale(0.015625)"/>
       <path id="DejaVuSans-69" d="M 603 3500 
L 1178 3500 
L 1178 0 
L 603 0 
L 603 3500 
z
M 603 4863 
L 1178 4863 
L 1178 4134 
L 603 4134 
L 603 4863 
z
" transform="scale(0.015625)"/>
       <path id="DejaVuSans-6d" d="M 3328 2828 
Q 3544 3216 3844 3400 
Q 4144 3584 4550 3584 
Q 5097 3584 5394 3201 
Q 5691 2819 5691 2113 
L 5691 0 
L 5113 0 
L 5113 2094 
Q 5113 2597 4934 2840 
Q 4756 3084 4391 3084 
Q 3944 3084 3684 2787 
Q 3425 2491 3425 1978 
L 3425 0 
L 2847 0 
L 2847 2094 
Q 2847 2600 2669 2842 
Q 2491 3084 2119 3084 
Q 1678 3084 1418 2786 
Q 1159 2488 1159 1978 
L 1159 0 
L 581 0 
L 581 3500 
L 1159 3500 
L 1159 2956 
Q 1356 3278 1631 3431 
Q 1906 3584 2284 3584 
Q 2666 3584 2933 3390 
Q 3200 3197 3328 2828 
z
" transform="scale(0.015625)"/>
       <path id="DejaVuSans-65" d="M 3597 1894 
L 3597 1613 
L 953 1613 
Q 991 1019 1311 708 
Q 1631 397 2203 397 
Q 2534 397 2845 478 
Q 3156 559 3463 722 
L 3463 178 
Q 3153 47 2828 -22 
Q 2503 -91 2169 -91 
Q 1331 -91 842 396 
Q 353 884 353 1716 
Q 353 2575 817 3079 
Q 1281 3584 2069 3584 
Q 2775 3584 3186 3129 
Q 3597 2675 3597 1894 
z
M 3022 2063 
Q 3016 2534 2758 2815 
Q 2500 3097 2075 3097 
Q 1594 3097 1305 2825 
Q 1016 2553 972 2059 
L 3022 2063 
z
" transform="scale(0.015625)"/>
      </defs>
      <use xlink:href="#DejaVuSans-54"/>
      <use xlink:href="#DejaVuSans-69" x="57.958984"/>
      <use xlink:href="#DejaVuSans-6d" x="85.742188"/>
      <use xlink:href="#DejaVuSans-65" x="183.154297"/>
     </g>
    </g>
   </g>
   <g id="matplotlib.axis_2">
    <g id="ytick_1">
     <g id="line2d_11">
      <defs>
       <path id="m671b65188d" d="M 0 0 
L -3.5 0 
" style="stroke: #000000; stroke-width: 0.8"/>
      </defs>
      <g>
       <use xlink:href="#m671b65188d" x="49.235" y="344.397187" style="stroke: #000000; stroke-width: 0.8"/>
      </g>
     </g>
     <g id="text_12">
      <!-- 0 -->
      <g transform="translate(35.8725 348.196406) scale(0.1 -0.1)">
       <use xlink:href="#DejaVuSans-30"/>
      </g>
     </g>
    </g>
    <g id="ytick_2">
     <g id="line2d_12">
      <g>
       <use xlink:href="#m671b65188d" x="49.235" y="305.923905" style="stroke: #000000; stroke-width: 0.8"/>
      </g>
     </g>
     <g id="text_13">
      <!-- 50 -->
      <g transform="translate(29.51 309.723124) scale(0.1 -0.1)">
       <use xlink:href="#DejaVuSans-35"/>
       <use xlink:href="#DejaVuSans-30" x="63.623047"/>
      </g>
     </g>
    </g>
    <g id="ytick_3">
     <g id="line2d_13">
      <g>
       <use xlink:href="#m671b65188d" x="49.235" y="267.450623" style="stroke: #000000; stroke-width: 0.8"/>
      </g>
     </g>
     <g id="text_14">
      <!-- 100 -->
      <g transform="translate(23.1475 271.249841) scale(0.1 -0.1)">
       <use xlink:href="#DejaVuSans-31"/>
       <use xlink:href="#DejaVuSans-30" x="63.623047"/>
       <use xlink:href="#DejaVuSans-30" x="127.246094"/>
      </g>
     </g>
    </g>
    <g id="ytick_4">
     <g id="line2d_14">
      <g>
       <use xlink:href="#m671b65188d" x="49.235" y="228.97734" style="stroke: #000000; stroke-width: 0.8"/>
      </g>
     </g>
     <g id="text_15">
      <!-- 150 -->
      <g transform="translate(23.1475 232.776559) scale(0.1 -0.1)">
       <use xlink:href="#DejaVuSans-31"/>
       <use xlink:href="#DejaVuSans-35" x="63.623047"/>
       <use xlink:href="#DejaVuSans-30" x="127.246094"/>
      </g>
     </g>
    </g>
    <g id="ytick_5">
     <g id="line2d_15">
      <g>
       <use xlink:href="#m671b65188d" x="49.235" y="190.504058" style="stroke: #000000; stroke-width: 0.8"/>
      </g>
     </g>
     <g id="text_16">
      <!-- 200 -->
      <g transform="translate(23.1475 194.303276) scale(0.1 -0.1)">
       <use xlink:href="#DejaVuSans-32"/>
       <use xlink:href="#DejaVuSans-30" x="63.623047"/>
       <use xlink:href="#DejaVuSans-30" x="127.246094"/>
      </g>
     </g>
    </g>
    <g id="ytick_6">
     <g id="line2d_16">
      <g>
       <use xlink:href="#m671b65188d" x="49.235" y="152.030775" style="stroke: #000000; stroke-width: 0.8"/>
      </g>
     </g>
     <g id="text_17">
      <!-- 250 -->
      <g transform="translate(23.1475 155.829994) scale(0.1 -0.1)">
       <use xlink:href="#DejaVuSans-32"/>
       <use xlink:href="#DejaVuSans-35" x="63.623047"/>
       <use xlink:href="#DejaVuSans-30" x="127.246094"/>
      </g>
     </g>
    </g>
    <g id="ytick_7">
     <g id="line2d_17">
      <g>
       <use xlink:href="#m671b65188d" x="49.235" y="113.557493" style="stroke: #000000; stroke-width: 0.8"/>
      </g>
     </g>
     <g id="text_18">
      <!-- 300 -->
      <g transform="translate(23.1475 117.356712) scale(0.1 -0.1)">
       <use xlink:href="#DejaVuSans-33"/>
       <use xlink:href="#DejaVuSans-30" x="63.623047"/>
       <use xlink:href="#DejaVuSans-30" x="127.246094"/>
      </g>
     </g>
    </g>
    <g id="ytick_8">
     <g id="line2d_18">
      <g>
       <use xlink:href="#m671b65188d" x="49.235" y="75.08421" style="stroke: #000000; stroke-width: 0.8"/>
      </g>
     </g>
     <g id="text_19">
      <!-- 350 -->
      <g transform="translate(23.1475 78.883429) scale(0.1 -0.1)">
       <use xlink:href="#DejaVuSans-33"/>
       <use xlink:href="#DejaVuSans-35" x="63.623047"/>
       <use xlink:href="#DejaVuSans-30" x="127.246094"/>
      </g>
     </g>
    </g>
    <g id="ytick_9">
     <g id="line2d_19">
      <g>
       <use xlink:href="#m671b65188d" x="49.235" y="36.610928" style="stroke: #000000; stroke-width: 0.8"/>
      </g>
     </g>
     <g id="text_20">
      <!-- 400 -->
      <g transform="translate(23.1475 40.410147) scale(0.1 -0.1)">
       <defs>
        <path id="DejaVuSans-34" d="M 2419 4116 
L 825 1625 
L 2419 1625 
L 2419 4116 
z
M 2253 4666 
L 3047 4666 
L 3047 1625 
L 3713 1625 
L 3713 1100 
L 3047 1100 
L 3047 0 
L 2419 0 
L 2419 1100 
L 313 1100 
L 313 1709 
L 2253 4666 
z
" transform="scale(0.015625)"/>
       </defs>
       <use xlink:href="#DejaVuSans-34"/>
       <use xlink:href="#DejaVuSans-30" x="63.623047"/>
       <use xlink:href="#DejaVuSans-30" x="127.246094"/>
      </g>
     </g>
    </g>
    <g id="text_21">
     <!-- Pellet_Count -->
     <g transform="translate(16.318125 230.485312) rotate(-90) scale(0.12 -0.12)">
      <defs>
       <path id="DejaVuSans-50" d="M 1259 4147 
L 1259 2394 
L 2053 2394 
Q 2494 2394 2734 2622 
Q 2975 2850 2975 3272 
Q 2975 3691 2734 3919 
Q 2494 4147 2053 4147 
L 1259 4147 
z
M 628 4666 
L 2053 4666 
Q 2838 4666 3239 4311 
Q 3641 3956 3641 3272 
Q 3641 2581 3239 2228 
Q 2838 1875 2053 1875 
L 1259 1875 
L 1259 0 
L 628 0 
L 628 4666 
z
" transform="scale(0.015625)"/>
       <path id="DejaVuSans-6c" d="M 603 4863 
L 1178 4863 
L 1178 0 
L 603 0 
L 603 4863 
z
" transform="scale(0.015625)"/>
       <path id="DejaVuSans-74" d="M 1172 4494 
L 1172 3500 
L 2356 3500 
L 2356 3053 
L 1172 3053 
L 1172 1153 
Q 1172 725 1289 603 
Q 1406 481 1766 481 
L 2356 481 
L 2356 0 
L 1766 0 
Q 1100 0 847 248 
Q 594 497 594 1153 
L 594 3053 
L 172 3053 
L 172 3500 
L 594 3500 
L 594 4494 
L 1172 4494 
z
" transform="scale(0.015625)"/>
       <path id="DejaVuSans-5f" d="M 3263 -1063 
L 3263 -1509 
L -63 -1509 
L -63 -1063 
L 3263 -1063 
z
" transform="scale(0.015625)"/>
       <path id="DejaVuSans-43" d="M 4122 4306 
L 4122 3641 
Q 3803 3938 3442 4084 
Q 3081 4231 2675 4231 
Q 1875 4231 1450 3742 
Q 1025 3253 1025 2328 
Q 1025 1406 1450 917 
Q 1875 428 2675 428 
Q 3081 428 3442 575 
Q 3803 722 4122 1019 
L 4122 359 
Q 3791 134 3420 21 
Q 3050 -91 2638 -91 
Q 1578 -91 968 557 
Q 359 1206 359 2328 
Q 359 3453 968 4101 
Q 1578 4750 2638 4750 
Q 3056 4750 3426 4639 
Q 3797 4528 4122 4306 
z
" transform="scale(0.015625)"/>
       <path id="DejaVuSans-6f" d="M 1959 3097 
Q 1497 3097 1228 2736 
Q 959 2375 959 1747 
Q 959 1119 1226 758 
Q 1494 397 1959 397 
Q 2419 397 2687 759 
Q 2956 1122 2956 1747 
Q 2956 2369 2687 2733 
Q 2419 3097 1959 3097 
z
M 1959 3584 
Q 2709 3584 3137 3096 
Q 3566 2609 3566 1747 
Q 3566 888 3137 398 
Q 2709 -91 1959 -91 
Q 1206 -91 779 398 
Q 353 888 353 1747 
Q 353 2609 779 3096 
Q 1206 3584 1959 3584 
z
" transform="scale(0.015625)"/>
       <path id="DejaVuSans-75" d="M 544 1381 
L 544 3500 
L 1119 3500 
L 1119 1403 
Q 1119 906 1312 657 
Q 1506 409 1894 409 
Q 2359 409 2629 706 
Q 2900 1003 2900 1516 
L 2900 3500 
L 3475 3500 
L 3475 0 
L 2900 0 
L 2900 538 
Q 2691 219 2414 64 
Q 2138 -91 1772 -91 
Q 1169 -91 856 284 
Q 544 659 544 1381 
z
M 1991 3584 
L 1991 3584 
z
" transform="scale(0.015625)"/>
       <path id="DejaVuSans-6e" d="M 3513 2113 
L 3513 0 
L 2938 0 
L 2938 2094 
Q 2938 2591 2744 2837 
Q 2550 3084 2163 3084 
Q 1697 3084 1428 2787 
Q 1159 2491 1159 1978 
L 1159 0 
L 581 0 
L 581 3500 
L 1159 3500 
L 1159 2956 
Q 1366 3272 1645 3428 
Q 1925 3584 2291 3584 
Q 2894 3584 3203 3211 
Q 3513 2838 3513 2113 
z
" transform="scale(0.015625)"/>
      </defs>
      <use xlink:href="#DejaVuSans-50"/>
      <use xlink:href="#DejaVuSans-65" x="56.677734"/>
      <use xlink:href="#DejaVuSans-6c" x="118.201172"/>
      <use xlink:href="#DejaVuSans-6c" x="145.984375"/>
      <use xlink:href="#DejaVuSans-65" x="173.767578"/>
      <use xlink:href="#DejaVuSans-74" x="235.291016"/>
      <use xlink:href="#DejaVuSans-5f" x="274.5"/>
      <use xlink:href="#DejaVuSans-43" x="324.5"/>
      <use xlink:href="#DejaVuSans-6f" x="394.324219"/>
      <use xlink:href="#DejaVuSans-75" x="455.505859"/>
      <use xlink:href="#DejaVuSans-6e" x="518.884766"/>
      <use xlink:href="#DejaVuSans-74" x="582.263672"/>
     </g>
    </g>
   </g>
   <g id="line2d_20">
    <path d="M 99.962273 344.397187 
L 123.299996 344.397187 
L 138.40331 343.627722 
L 150.061827 343.627722 
L 150.268722 342.858256 
L 153.982482 342.858256 
L 154.158342 342.088791 
L 154.685924 342.088791 
L 154.758337 341.319325 
L 160.851386 341.319325 
L 160.975523 340.549859 
L 166.56168 340.549859 
L 166.572025 339.780394 
L 173.720237 339.780394 
L 173.751271 339.010928 
L 174.330576 339.010928 
L 174.392645 338.241462 
L 174.940916 338.241462 
L 174.961605 337.471997 
L 176.244353 337.471997 
L 176.254697 336.702531 
L 177.72365 336.702531 
L 177.806408 335.933065 
L 181.375341 335.933065 
L 181.571891 335.1636 
L 187.064946 335.1636 
L 187.085635 334.394134 
L 187.364943 334.394134 
L 187.395977 333.624668 
L 189.020101 333.624668 
L 189.04079 332.855203 
L 189.526993 332.855203 
L 189.547682 332.085737 
L 190.251124 332.085737 
L 190.41664 331.316271 
L 191.016635 331.316271 
L 191.037324 330.546806 
L 191.358011 330.546806 
L 191.389045 329.77734 
L 191.823524 329.77734 
L 191.844214 329.007875 
L 192.020074 329.007875 
L 192.030419 328.238409 
L 192.299382 328.238409 
L 192.309727 327.468943 
L 192.537311 327.468943 
L 192.568345 326.699478 
L 193.044203 326.699478 
L 193.178685 325.930012 
L 194.026953 325.930012 
L 194.047642 325.160546 
L 194.223503 325.160546 
L 194.244192 324.391081 
L 194.430398 324.391081 
L 194.451087 323.621615 
L 194.761429 323.621615 
L 194.792463 322.852149 
L 197.388992 322.852149 
L 197.409681 322.082684 
L 199.726902 322.082684 
L 199.757936 321.313218 
L 200.275173 321.313218 
L 200.306207 320.543752 
L 200.59586 320.543752 
L 200.606205 319.774287 
L 201.423439 319.774287 
L 201.464818 319.004821 
L 203.926865 319.004821 
L 203.947554 318.235355 
L 204.154449 318.235355 
L 204.164794 317.46589 
L 204.516515 317.46589 
L 204.537204 316.696424 
L 204.713065 316.696424 
L 204.744099 315.926958 
L 204.961338 315.926958 
L 204.982028 315.157493 
L 206.306154 315.157493 
L 206.316499 314.388027 
L 206.513049 314.388027 
L 206.66822 313.618562 
L 206.916493 313.618562 
L 206.926838 312.849096 
L 207.133733 312.849096 
L 207.154422 312.07963 
L 207.371662 312.07963 
L 207.392351 311.310165 
L 210.547496 311.310165 
L 210.57853 310.540699 
L 210.733701 310.540699 
L 210.744046 309.771233 
L 220.664647 309.771233 
L 220.674992 309.001768 
L 220.93361 309.001768 
L 220.943955 308.232302 
L 221.161194 308.232302 
L 221.181884 307.462836 
L 221.430157 307.462836 
L 221.440502 306.693371 
L 221.647397 306.693371 
L 221.678431 305.923905 
L 221.874981 305.923905 
L 221.89567 305.154439 
L 226.768041 305.154439 
L 226.80942 304.384974 
L 227.037004 304.384974 
L 227.047349 303.615508 
L 227.212864 303.615508 
L 227.419759 302.846042 
L 247.778199 302.846042 
L 247.798888 302.076577 
L 248.067851 302.076577 
L 248.078196 301.307111 
L 249.816112 301.307111 
L 249.836801 300.537646 
L 250.105764 300.537646 
L 250.126454 299.76818 
L 250.44714 299.76818 
L 250.46783 298.998714 
L 256.571224 298.998714 
L 256.591913 298.229249 
L 256.881566 298.229249 
L 256.9126 297.459783 
L 257.119495 297.459783 
L 257.140184 296.690317 
L 257.367769 296.690317 
L 257.378113 295.920852 
L 257.564319 295.920852 
L 257.585008 295.151386 
L 257.936729 295.151386 
L 257.947074 294.38192 
L 258.153968 294.38192 
L 258.174658 293.612455 
L 259.819471 293.612455 
L 259.850505 292.842989 
L 264.319431 292.842989 
L 264.371155 291.304058 
L 264.629773 291.304058 
L 264.640118 290.534592 
L 264.898736 290.534592 
L 264.909081 289.765126 
L 265.178044 289.765126 
L 265.198733 288.995661 
L 265.488386 288.995661 
L 265.509075 288.226195 
L 265.860796 288.226195 
L 265.902175 287.456729 
L 269.305593 287.456729 
L 269.409041 285.148333 
L 269.636625 285.148333 
L 269.657314 284.378867 
L 270.309033 284.378867 
L 270.360756 283.609401 
L 281.243418 283.609401 
L 281.264108 282.839936 
L 281.408934 282.839936 
L 281.429623 282.07047 
L 281.677897 282.07047 
L 281.708931 281.301004 
L 281.94686 281.301004 
L 281.96755 280.531539 
L 282.091686 280.531539 
L 282.102031 279.762073 
L 282.433063 279.762073 
L 282.443407 278.992607 
L 282.639957 278.992607 
L 282.712371 277.453676 
L 282.877886 277.453676 
L 282.898576 276.68421 
L 294.339853 276.68421 
L 294.360543 275.914745 
L 294.546748 275.914745 
L 294.567438 275.145279 
L 294.753643 275.145279 
L 294.763988 274.375813 
L 295.05364 274.375813 
L 295.07433 273.606348 
L 295.343293 273.606348 
L 295.353637 272.836882 
L 295.519153 272.836882 
L 295.529498 272.067417 
L 295.736393 272.067417 
L 295.757082 271.297951 
L 296.015701 271.297951 
L 296.03639 270.528485 
L 310.49833 270.528485 
L 310.560399 268.989554 
L 310.91212 268.989554 
L 310.932809 268.220088 
L 311.212117 268.220088 
L 311.232806 267.450623 
L 311.408667 267.450623 
L 311.429356 266.681157 
L 311.667285 266.681157 
L 311.67763 265.911691 
L 311.87418 265.911691 
L 311.915559 265.142226 
L 312.26728 265.142226 
L 312.277625 264.37276 
L 312.918998 264.37276 
L 312.929343 263.603294 
L 313.115548 263.603294 
L 313.136238 262.833829 
L 313.343133 262.833829 
L 313.353477 262.064363 
L 313.601751 262.064363 
L 313.612096 261.294897 
L 313.922438 261.294897 
L 313.984506 260.525432 
L 319.746524 260.525432 
L 319.756869 259.755966 
L 332.480893 259.755966 
L 332.501583 258.9865 
L 332.718822 258.9865 
L 332.739512 258.217035 
L 333.432609 258.217035 
L 333.432609 258.217035 
L 333.442954 257.447569 
L 333.649848 257.447569 
L 333.670538 256.678104 
L 334.249843 256.678104 
L 334.249843 256.678104 
L 334.301567 255.908638 
L 337.249816 255.908638 
L 337.508435 255.139172 
L 337.518779 254.369707 
L 337.922224 254.369707 
L 337.932569 253.600241 
L 338.191187 253.600241 
L 338.253256 252.830775 
L 339.46359 252.830775 
L 339.473934 252.06131 
L 352.725541 252.06131 
L 352.756575 251.291844 
L 353.149675 251.291844 
L 353.16002 250.522378 
L 354.080701 250.522378 
L 354.101391 249.752913 
L 354.29794 249.752913 
L 354.29794 249.752913 
L 354.339319 248.983447 
L 354.556559 248.983447 
L 354.566904 248.213981 
L 354.815177 248.213981 
L 354.825522 247.444516 
L 355.001383 247.444516 
L 355.011727 246.67505 
L 355.270346 246.67505 
L 355.28069 245.905584 
L 355.47724 245.905584 
L 355.487585 245.136119 
L 355.67379 245.136119 
L 355.756548 243.597187 
L 357.680669 243.597187 
L 357.784116 241.288791 
L 357.980666 241.288791 
L 357.991011 240.519325 
L 358.22894 240.519325 
L 358.239285 239.749859 
L 368.58402 239.749859 
L 368.594365 238.980394 
L 368.904707 238.980394 
L 368.915052 238.210928 
L 369.266773 238.210928 
L 369.277118 237.441462 
L 369.494357 237.441462 
L 369.504702 236.671997 
L 369.711596 236.671997 
L 369.752975 235.902531 
L 369.95987 235.902531 
L 369.970215 235.133065 
L 370.135731 235.133065 
L 370.146075 234.3636 
L 370.342625 234.3636 
L 370.35297 233.594134 
L 370.601244 233.594134 
L 370.611588 232.824668 
L 371.004688 232.824668 
L 371.015033 232.055203 
L 371.221928 232.055203 
L 371.232273 231.285737 
L 371.428823 231.285737 
L 371.439167 230.516271 
L 371.666751 230.516271 
L 371.677096 229.746806 
L 371.90468 229.746806 
L 372.018472 228.207875 
L 372.246057 228.207875 
L 372.256401 227.438409 
L 380.759774 227.438409 
L 380.832187 225.899478 
L 381.039082 225.899478 
L 381.049427 225.130012 
L 381.256321 225.130012 
L 381.266666 224.360546 
L 381.535629 224.360546 
L 381.545974 223.591081 
L 381.773558 223.591081 
L 381.783903 222.821615 
L 399.473401 222.821615 
L 399.49409 222.052149 
L 399.711329 222.052149 
L 399.752708 221.282684 
L 400.000982 221.282684 
L 400.011327 220.513218 
L 400.269945 220.513218 
L 400.487185 219.743752 
L 400.932008 219.743752 
L 400.942353 218.974287 
L 401.190627 218.974287 
L 401.200971 218.204821 
L 401.63545 218.204821 
L 401.65614 217.435355 
L 401.945792 217.435355 
L 402.02855 216.66589 
L 402.266479 216.66589 
L 402.287169 215.896424 
L 402.504408 215.896424 
L 402.514753 215.126958 
L 402.773371 215.126958 
L 402.783716 214.357493 
L 432.214489 214.357493 
L 432.224833 213.588027 
L 432.752415 213.588027 
L 433.248962 212.818562 
L 433.70413 212.818562 
L 433.714475 212.049096 
L 433.962749 212.049096 
L 433.973094 211.27963 
L 434.159299 211.27963 
L 434.179988 210.510165 
L 434.448951 210.510165 
L 434.459296 209.740699 
L 434.70757 209.740699 
L 434.717915 208.971233 
L 434.831707 208.971233 
L 434.842051 208.201768 
L 435.059291 208.201768 
L 435.069636 207.432302 
L 435.348943 207.432302 
L 435.483425 205.893371 
L 436.186867 205.893371 
L 436.197212 205.123905 
L 436.507554 205.123905 
L 436.517898 204.354439 
L 436.67307 204.354439 
L 436.693759 203.584974 
L 436.879964 203.584974 
L 436.890309 202.815508 
L 437.107548 202.815508 
L 437.128238 202.046042 
L 437.355822 202.046042 
L 437.366167 201.276577 
L 437.593751 201.276577 
L 437.593751 200.507111 
L 449.448818 200.507111 
L 449.572955 198.96818 
L 450.038468 198.96818 
L 450.048813 198.198714 
L 450.266052 198.198714 
L 450.276397 197.429249 
L 450.535015 197.429249 
L 450.54536 196.659783 
L 450.772944 196.659783 
L 450.793634 195.890317 
L 451.052252 195.890317 
L 451.093631 195.120852 
L 451.466041 195.120852 
L 451.486731 194.351386 
L 451.714315 194.351386 
L 451.735004 193.58192 
L 452.024657 193.58192 
L 452.035002 192.812455 
L 452.252241 192.812455 
L 452.31431 191.273523 
L 452.51086 191.273523 
L 452.521204 190.504058 
L 452.738444 190.504058 
L 452.748789 189.734592 
L 472.083099 189.734592 
L 472.134823 188.195661 
L 472.352062 188.195661 
L 472.579647 187.426195 
L 472.796886 187.426195 
L 472.807231 186.656729 
L 473.034815 186.656729 
L 473.065849 185.887264 
L 473.345157 185.887264 
L 473.376191 185.117798 
L 473.603775 185.117798 
L 473.61412 184.348333 
L 473.903773 184.348333 
L 473.914117 183.578867 
L 474.214115 183.578867 
L 474.224459 182.809401 
L 474.555491 182.809401 
L 474.565836 182.039936 
L 474.783075 182.039936 
L 474.803765 181.27047 
L 494.044973 181.27047 
L 494.14842 179.731539 
L 494.34497 179.731539 
L 494.355315 178.962073 
L 494.56221 178.962073 
L 494.582899 178.192607 
L 494.831173 178.192607 
L 494.841517 177.423142 
L 495.038067 177.423142 
L 495.048412 176.653676 
L 495.286341 176.653676 
L 495.296686 175.88421 
L 522.72058 175.88421 
L 522.813682 174.345279 
L 523.103335 174.345279 
L 523.124024 173.575813 
L 523.351609 173.575813 
L 523.392987 172.806348 
L 523.568848 172.806348 
L 523.579193 172.036882 
L 523.796432 172.036882 
L 523.806777 171.267417 
L 524.199877 171.267417 
L 524.241256 170.497951 
L 524.634356 170.497951 
L 524.6447 169.728485 
L 529.692931 169.728485 
L 529.817068 168.95902 
L 539.965254 168.95902 
L 539.975599 168.189554 
L 540.244562 168.189554 
L 540.265251 167.420088 
L 540.461801 167.420088 
L 540.472146 166.650623 
L 541.713514 166.650623 
L 541.734204 165.881157 
L 551.944458 165.881157 
L 551.965147 165.111691 
L 553.289273 165.111691 
L 553.299618 164.342226 
L 553.506513 164.342226 
L 553.516857 163.57276 
L 553.961681 163.57276 
L 554.00306 162.803294 
L 554.19961 162.803294 
L 554.209955 162.033829 
L 575.706315 162.033829 
L 575.71666 161.264363 
L 614.799071 161.264363 
L 614.892173 159.725432 
L 615.399065 159.725432 
L 615.440444 158.955966 
L 615.668028 158.955966 
L 615.678373 158.1865 
L 615.905957 158.1865 
L 615.916302 157.417035 
L 616.154231 157.417035 
L 616.164576 156.647569 
L 616.454228 156.647569 
L 616.464573 155.878104 
L 616.723191 155.878104 
L 616.733536 155.108638 
L 617.043878 155.108638 
L 617.054223 154.339172 
L 617.292152 154.339172 
L 617.302497 153.569707 
L 617.612839 153.569707 
L 617.623183 152.800241 
L 617.902491 152.800241 
L 617.912836 152.030775 
L 627.543785 152.030775 
L 661.867617 151.26131 
L 661.877962 150.491844 
L 662.074512 150.491844 
L 662.084857 149.722378 
L 662.35382 149.722378 
L 662.364165 148.952913 
L 662.674507 148.952913 
L 662.684851 148.183447 
L 662.871057 148.183447 
L 662.891746 147.413981 
L 663.129675 147.413981 
L 663.233122 145.87505 
L 663.440017 145.87505 
L 663.522775 144.336119 
L 663.72967 144.336119 
L 663.740014 143.566653 
L 663.998633 143.566653 
L 664.008978 142.797187 
L 664.215872 142.797187 
L 664.257251 142.027722 
L 664.505525 142.027722 
L 664.505525 142.027722 
L 664.577938 140.488791 
L 721.970531 140.488791 
L 722.053289 138.949859 
L 722.342941 138.949859 
L 722.353286 138.180394 
L 722.570525 138.180394 
L 722.58087 137.410928 
L 722.839489 137.410928 
L 722.849833 136.641462 
L 723.025694 136.641462 
L 723.036038 135.871997 
L 723.242933 135.871997 
L 723.273967 135.102531 
L 724.13258 135.102531 
L 724.142925 134.333065 
L 724.401544 134.333065 
L 724.411888 133.5636 
L 724.660162 133.5636 
L 724.670507 132.794134 
L 725.084296 132.794134 
L 725.125675 132.024668 
L 725.342915 132.024668 
L 725.353259 131.255203 
L 741.335876 131.255203 
L 741.584149 129.716271 
L 741.801389 129.716271 
L 741.811733 128.946806 
L 743.11517 128.946806 
L 743.125515 128.17734 
L 744.29447 128.17734 
L 744.315159 127.407875 
L 755.301269 127.407875 
L 755.311613 126.638409 
L 755.580576 126.638409 
L 755.590921 125.868943 
L 818.776566 125.868943 
L 818.786911 125.099478 
L 819.107597 125.099478 
L 819.117942 124.330012 
L 819.407595 124.330012 
L 819.417939 123.560546 
L 819.614489 123.560546 
L 819.624834 122.791081 
L 819.914487 122.791081 
L 819.914487 122.791081 
L 819.955866 122.021615 
L 820.121381 122.021615 
L 820.142071 121.252149 
L 820.338621 121.252149 
L 820.348966 120.482684 
L 820.586895 120.482684 
L 820.607584 119.713218 
L 820.814479 119.713218 
L 820.96965 118.943752 
L 821.321371 118.943752 
L 821.331715 118.174287 
L 821.579989 118.174287 
L 821.590334 117.404821 
L 821.807573 117.404821 
L 821.859297 115.86589 
L 821.962744 115.86589 
L 821.973089 115.096424 
L 826.05926 115.096424 
L 826.069604 114.326958 
L 826.245465 114.326958 
L 826.25581 113.557493 
L 857.207258 113.557493 
L 857.217603 112.788027 
L 857.486566 112.788027 
L 857.507256 112.018562 
L 857.807253 112.018562 
L 857.827942 111.249096 
L 858.034837 111.249096 
L 858.045182 110.47963 
L 858.3038 110.47963 
L 858.32449 109.710165 
L 858.614142 109.710165 
L 858.634832 108.940699 
L 858.862416 108.940699 
L 858.872761 108.171233 
L 859.141724 108.171233 
L 859.141724 108.171233 
L 859.183103 107.401768 
L 859.410687 107.401768 
L 859.421032 106.632302 
L 859.689995 106.632302 
L 859.710684 105.862836 
L 866.900276 105.862836 
L 866.951999 105.093371 
L 867.30372 105.093371 
L 867.314065 104.323905 
L 868.762328 104.323905 
L 868.772673 103.554439 
L 869.041636 103.554439 
L 869.05198 102.784974 
L 869.310599 102.784974 
L 869.476115 102.015508 
L 869.796801 102.015508 
L 869.796801 101.246042 
L 870.05542 101.246042 
L 870.065765 100.476577 
L 893.703485 100.476577 
L 893.744864 99.707111 
L 894.158654 99.707111 
L 894.179343 98.937646 
L 900.541355 98.937646 
L 900.57239 98.16818 
L 906.365442 98.16818 
L 906.479234 96.629249 
L 906.706818 96.629249 
L 906.758542 95.859783 
L 906.965436 95.859783 
L 906.975781 95.090317 
L 907.19302 95.090317 
L 907.21371 94.320852 
L 907.399915 94.320852 
L 907.41026 93.551386 
L 907.668878 93.551386 
L 907.679223 92.78192 
L 907.937841 92.78192 
L 907.948186 92.012455 
L 972.768299 92.012455 
L 972.840712 91.242989 
L 972.90278 90.473523 
L 973.31657 90.473523 
L 973.326915 89.704058 
L 973.637257 89.704058 
L 973.844151 88.934592 
L 974.144149 88.934592 
L 974.154493 88.165126 
L 974.371733 88.165126 
L 974.382078 87.395661 
L 974.620007 87.395661 
L 974.86828 86.626195 
L 975.08552 86.626195 
L 975.313104 85.856729 
L 976.140683 85.856729 
L 976.213096 85.087264 
L 995.340512 85.087264 
L 995.42327 83.548333 
L 995.712922 83.548333 
L 995.723267 82.778867 
L 995.971541 82.778867 
L 996.106022 82.009401 
L 996.343951 82.009401 
L 996.364641 81.239936 
L 996.60257 81.239936 
L 996.623259 80.47047 
L 996.840499 80.47047 
L 996.850843 79.701004 
L 997.037048 79.701004 
L 997.047393 78.931539 
L 997.306012 78.931539 
L 997.316356 78.162073 
L 1023.798879 78.162073 
L 1023.891982 76.623142 
L 1024.098877 76.623142 
L 1024.109221 75.853676 
L 1024.326461 75.853676 
L 1024.336806 75.08421 
L 1024.5437 75.08421 
L 1024.554045 74.314745 
L 1024.802319 74.314745 
L 1024.812663 73.545279 
L 1025.009213 73.545279 
L 1025.019558 72.775813 
L 1025.267832 72.775813 
L 1025.278176 72.006348 
L 1025.495416 72.006348 
L 1025.505761 71.236882 
L 1038.364267 71.236882 
L 1038.374612 70.467417 
L 1038.529783 70.467417 
L 1038.529783 70.467417 
L 1038.571162 69.697951 
L 1038.840125 69.697951 
L 1038.850469 68.928485 
L 1039.119433 68.928485 
L 1039.140122 68.15902 
L 1039.584946 68.15902 
L 1039.59529 67.389554 
L 1039.936667 67.389554 
L 1039.98839 66.620088 
L 1040.257354 66.620088 
L 1040.267698 65.850623 
L 1040.515972 65.850623 
L 1040.526317 65.081157 
L 1040.815969 65.081157 
L 1040.826314 64.311691 
L 1041.074588 64.311691 
L 1041.084932 63.542226 
L 1041.467688 63.542226 
L 1041.478032 62.77276 
L 1041.695272 62.77276 
L 1041.705617 62.003294 
L 1044.581453 62.003294 
L 1044.591798 61.233829 
L 1044.788348 61.233829 
L 1044.829727 60.464363 
L 1045.036621 60.464363 
L 1045.046966 59.694897 
L 1045.419377 59.694897 
L 1045.429721 58.925432 
L 1045.595237 58.925432 
L 1045.615927 58.155966 
L 1052.298626 58.155966 
L 1052.340005 57.3865 
L 1052.743449 57.3865 
L 1052.753794 56.617035 
L 1052.960689 56.617035 
L 1053.064136 55.078104 
L 1053.384823 55.078104 
L 1053.395168 54.308638 
L 1053.643441 54.308638 
L 1053.653786 53.539172 
L 1053.933094 53.539172 
L 1053.953783 52.769707 
L 1060.036488 52.769707 
L 1060.077867 52.000241 
L 1060.34683 52.000241 
L 1060.553725 51.230775 
L 1061.019238 51.230775 
L 1061.029582 50.46131 
L 1061.319235 50.46131 
L 1061.32958 49.691844 
L 1061.536475 49.691844 
L 1061.557164 48.922378 
L 1061.888196 48.922378 
L 1061.908885 48.152913 
L 1062.157159 48.152913 
L 1062.167503 47.383447 
L 1062.405432 47.383447 
L 1062.633016 46.613981 
L 1062.922669 46.613981 
L 1062.933014 45.844516 
L 1063.191632 45.844516 
L 1063.201977 45.07505 
L 1083.229385 45.07505 
L 1083.291453 43.536119 
L 1083.570761 43.536119 
L 1083.61214 42.766653 
L 1085.225919 42.766653 
L 1085.256953 41.997187 
L 1085.256953 41.997187 
" clip-path="url(#p9c28e0f396)" style="fill: none; stroke: #0000ff; stroke-width: 1.5; stroke-linecap: square"/>
   </g>
   <g id="patch_83">
    <path d="M 49.235 359.517187 
L 49.235 26.877187 
" style="fill: none; stroke: #000000; stroke-width: 0.8; stroke-linejoin: miter; stroke-linecap: square"/>
   </g>
   <g id="patch_84">
    <path d="M 1165.235 359.517187 
L 1165.235 26.877187 
" style="fill: none; stroke: #000000; stroke-width: 0.8; stroke-linejoin: miter; stroke-linecap: square"/>
   </g>
   <g id="patch_85">
    <path d="M 49.235 359.517187 
L 1165.235 359.517187 
" style="fill: none; stroke: #000000; stroke-width: 0.8; stroke-linejoin: miter; stroke-linecap: square"/>
   </g>
   <g id="patch_86">
    <path d="M 49.235 26.877187 
L 1165.235 26.877187 
" style="fill: none; stroke: #000000; stroke-width: 0.8; stroke-linejoin: miter; stroke-linecap: square"/>
   </g>
   <g id="text_22">
    <!-- Pellet Count and Cumulative Sum Over Time of Group cask Mouse M23 -->
    <g transform="translate(287.331406 20.877187) scale(0.18 -0.18)">
     <defs>
      <path id="DejaVuSans-61" d="M 2194 1759 
Q 1497 1759 1228 1600 
Q 959 1441 959 1056 
Q 959 750 1161 570 
Q 1363 391 1709 391 
Q 2188 391 2477 730 
Q 2766 1069 2766 1631 
L 2766 1759 
L 2194 1759 
z
M 3341 1997 
L 3341 0 
L 2766 0 
L 2766 531 
Q 2569 213 2275 61 
Q 1981 -91 1556 -91 
Q 1019 -91 701 211 
Q 384 513 384 1019 
Q 384 1609 779 1909 
Q 1175 2209 1959 2209 
L 2766 2209 
L 2766 2266 
Q 2766 2663 2505 2880 
Q 2244 3097 1772 3097 
Q 1472 3097 1187 3025 
Q 903 2953 641 2809 
L 641 3341 
Q 956 3463 1253 3523 
Q 1550 3584 1831 3584 
Q 2591 3584 2966 3190 
Q 3341 2797 3341 1997 
z
" transform="scale(0.015625)"/>
      <path id="DejaVuSans-64" d="M 2906 2969 
L 2906 4863 
L 3481 4863 
L 3481 0 
L 2906 0 
L 2906 525 
Q 2725 213 2448 61 
Q 2172 -91 1784 -91 
Q 1150 -91 751 415 
Q 353 922 353 1747 
Q 353 2572 751 3078 
Q 1150 3584 1784 3584 
Q 2172 3584 2448 3432 
Q 2725 3281 2906 2969 
z
M 947 1747 
Q 947 1113 1208 752 
Q 1469 391 1925 391 
Q 2381 391 2643 752 
Q 2906 1113 2906 1747 
Q 2906 2381 2643 2742 
Q 2381 3103 1925 3103 
Q 1469 3103 1208 2742 
Q 947 2381 947 1747 
z
" transform="scale(0.015625)"/>
      <path id="DejaVuSans-76" d="M 191 3500 
L 800 3500 
L 1894 563 
L 2988 3500 
L 3597 3500 
L 2284 0 
L 1503 0 
L 191 3500 
z
" transform="scale(0.015625)"/>
      <path id="DejaVuSans-53" d="M 3425 4513 
L 3425 3897 
Q 3066 4069 2747 4153 
Q 2428 4238 2131 4238 
Q 1616 4238 1336 4038 
Q 1056 3838 1056 3469 
Q 1056 3159 1242 3001 
Q 1428 2844 1947 2747 
L 2328 2669 
Q 3034 2534 3370 2195 
Q 3706 1856 3706 1288 
Q 3706 609 3251 259 
Q 2797 -91 1919 -91 
Q 1588 -91 1214 -16 
Q 841 59 441 206 
L 441 856 
Q 825 641 1194 531 
Q 1563 422 1919 422 
Q 2459 422 2753 634 
Q 3047 847 3047 1241 
Q 3047 1584 2836 1778 
Q 2625 1972 2144 2069 
L 1759 2144 
Q 1053 2284 737 2584 
Q 422 2884 422 3419 
Q 422 4038 858 4394 
Q 1294 4750 2059 4750 
Q 2388 4750 2728 4690 
Q 3069 4631 3425 4513 
z
" transform="scale(0.015625)"/>
      <path id="DejaVuSans-4f" d="M 2522 4238 
Q 1834 4238 1429 3725 
Q 1025 3213 1025 2328 
Q 1025 1447 1429 934 
Q 1834 422 2522 422 
Q 3209 422 3611 934 
Q 4013 1447 4013 2328 
Q 4013 3213 3611 3725 
Q 3209 4238 2522 4238 
z
M 2522 4750 
Q 3503 4750 4090 4092 
Q 4678 3434 4678 2328 
Q 4678 1225 4090 567 
Q 3503 -91 2522 -91 
Q 1538 -91 948 565 
Q 359 1222 359 2328 
Q 359 3434 948 4092 
Q 1538 4750 2522 4750 
z
" transform="scale(0.015625)"/>
      <path id="DejaVuSans-72" d="M 2631 2963 
Q 2534 3019 2420 3045 
Q 2306 3072 2169 3072 
Q 1681 3072 1420 2755 
Q 1159 2438 1159 1844 
L 1159 0 
L 581 0 
L 581 3500 
L 1159 3500 
L 1159 2956 
Q 1341 3275 1631 3429 
Q 1922 3584 2338 3584 
Q 2397 3584 2469 3576 
Q 2541 3569 2628 3553 
L 2631 2963 
z
" transform="scale(0.015625)"/>
      <path id="DejaVuSans-66" d="M 2375 4863 
L 2375 4384 
L 1825 4384 
Q 1516 4384 1395 4259 
Q 1275 4134 1275 3809 
L 1275 3500 
L 2222 3500 
L 2222 3053 
L 1275 3053 
L 1275 0 
L 697 0 
L 697 3053 
L 147 3053 
L 147 3500 
L 697 3500 
L 697 3744 
Q 697 4328 969 4595 
Q 1241 4863 1831 4863 
L 2375 4863 
z
" transform="scale(0.015625)"/>
      <path id="DejaVuSans-47" d="M 3809 666 
L 3809 1919 
L 2778 1919 
L 2778 2438 
L 4434 2438 
L 4434 434 
Q 4069 175 3628 42 
Q 3188 -91 2688 -91 
Q 1594 -91 976 548 
Q 359 1188 359 2328 
Q 359 3472 976 4111 
Q 1594 4750 2688 4750 
Q 3144 4750 3555 4637 
Q 3966 4525 4313 4306 
L 4313 3634 
Q 3963 3931 3569 4081 
Q 3175 4231 2741 4231 
Q 1884 4231 1454 3753 
Q 1025 3275 1025 2328 
Q 1025 1384 1454 906 
Q 1884 428 2741 428 
Q 3075 428 3337 486 
Q 3600 544 3809 666 
z
" transform="scale(0.015625)"/>
      <path id="DejaVuSans-70" d="M 1159 525 
L 1159 -1331 
L 581 -1331 
L 581 3500 
L 1159 3500 
L 1159 2969 
Q 1341 3281 1617 3432 
Q 1894 3584 2278 3584 
Q 2916 3584 3314 3078 
Q 3713 2572 3713 1747 
Q 3713 922 3314 415 
Q 2916 -91 2278 -91 
Q 1894 -91 1617 61 
Q 1341 213 1159 525 
z
M 3116 1747 
Q 3116 2381 2855 2742 
Q 2594 3103 2138 3103 
Q 1681 3103 1420 2742 
Q 1159 2381 1159 1747 
Q 1159 1113 1420 752 
Q 1681 391 2138 391 
Q 2594 391 2855 752 
Q 3116 1113 3116 1747 
z
" transform="scale(0.015625)"/>
      <path id="DejaVuSans-63" d="M 3122 3366 
L 3122 2828 
Q 2878 2963 2633 3030 
Q 2388 3097 2138 3097 
Q 1578 3097 1268 2742 
Q 959 2388 959 1747 
Q 959 1106 1268 751 
Q 1578 397 2138 397 
Q 2388 397 2633 464 
Q 2878 531 3122 666 
L 3122 134 
Q 2881 22 2623 -34 
Q 2366 -91 2075 -91 
Q 1284 -91 818 406 
Q 353 903 353 1747 
Q 353 2603 823 3093 
Q 1294 3584 2113 3584 
Q 2378 3584 2631 3529 
Q 2884 3475 3122 3366 
z
" transform="scale(0.015625)"/>
      <path id="DejaVuSans-73" d="M 2834 3397 
L 2834 2853 
Q 2591 2978 2328 3040 
Q 2066 3103 1784 3103 
Q 1356 3103 1142 2972 
Q 928 2841 928 2578 
Q 928 2378 1081 2264 
Q 1234 2150 1697 2047 
L 1894 2003 
Q 2506 1872 2764 1633 
Q 3022 1394 3022 966 
Q 3022 478 2636 193 
Q 2250 -91 1575 -91 
Q 1294 -91 989 -36 
Q 684 19 347 128 
L 347 722 
Q 666 556 975 473 
Q 1284 391 1588 391 
Q 1994 391 2212 530 
Q 2431 669 2431 922 
Q 2431 1156 2273 1281 
Q 2116 1406 1581 1522 
L 1381 1569 
Q 847 1681 609 1914 
Q 372 2147 372 2553 
Q 372 3047 722 3315 
Q 1072 3584 1716 3584 
Q 2034 3584 2315 3537 
Q 2597 3491 2834 3397 
z
" transform="scale(0.015625)"/>
      <path id="DejaVuSans-6b" d="M 581 4863 
L 1159 4863 
L 1159 1991 
L 2875 3500 
L 3609 3500 
L 1753 1863 
L 3688 0 
L 2938 0 
L 1159 1709 
L 1159 0 
L 581 0 
L 581 4863 
z
" transform="scale(0.015625)"/>
      <path id="DejaVuSans-4d" d="M 628 4666 
L 1569 4666 
L 2759 1491 
L 3956 4666 
L 4897 4666 
L 4897 0 
L 4281 0 
L 4281 4097 
L 3078 897 
L 2444 897 
L 1241 4097 
L 1241 0 
L 628 0 
L 628 4666 
z
" transform="scale(0.015625)"/>
     </defs>
     <use xlink:href="#DejaVuSans-50"/>
     <use xlink:href="#DejaVuSans-65" x="56.677734"/>
     <use xlink:href="#DejaVuSans-6c" x="118.201172"/>
     <use xlink:href="#DejaVuSans-6c" x="145.984375"/>
     <use xlink:href="#DejaVuSans-65" x="173.767578"/>
     <use xlink:href="#DejaVuSans-74" x="235.291016"/>
     <use xlink:href="#DejaVuSans-20" x="274.5"/>
     <use xlink:href="#DejaVuSans-43" x="306.287109"/>
     <use xlink:href="#DejaVuSans-6f" x="376.111328"/>
     <use xlink:href="#DejaVuSans-75" x="437.292969"/>
     <use xlink:href="#DejaVuSans-6e" x="500.671875"/>
     <use xlink:href="#DejaVuSans-74" x="564.050781"/>
     <use xlink:href="#DejaVuSans-20" x="603.259766"/>
     <use xlink:href="#DejaVuSans-61" x="635.046875"/>
     <use xlink:href="#DejaVuSans-6e" x="696.326172"/>
     <use xlink:href="#DejaVuSans-64" x="759.705078"/>
     <use xlink:href="#DejaVuSans-20" x="823.181641"/>
     <use xlink:href="#DejaVuSans-43" x="854.96875"/>
     <use xlink:href="#DejaVuSans-75" x="924.792969"/>
     <use xlink:href="#DejaVuSans-6d" x="988.171875"/>
     <use xlink:href="#DejaVuSans-75" x="1085.583984"/>
     <use xlink:href="#DejaVuSans-6c" x="1148.962891"/>
     <use xlink:href="#DejaVuSans-61" x="1176.746094"/>
     <use xlink:href="#DejaVuSans-74" x="1238.025391"/>
     <use xlink:href="#DejaVuSans-69" x="1277.234375"/>
     <use xlink:href="#DejaVuSans-76" x="1305.017578"/>
     <use xlink:href="#DejaVuSans-65" x="1364.197266"/>
     <use xlink:href="#DejaVuSans-20" x="1425.720703"/>
     <use xlink:href="#DejaVuSans-53" x="1457.507812"/>
     <use xlink:href="#DejaVuSans-75" x="1520.984375"/>
     <use xlink:href="#DejaVuSans-6d" x="1584.363281"/>
     <use xlink:href="#DejaVuSans-20" x="1681.775391"/>
     <use xlink:href="#DejaVuSans-4f" x="1713.5625"/>
     <use xlink:href="#DejaVuSans-76" x="1792.273438"/>
     <use xlink:href="#DejaVuSans-65" x="1851.453125"/>
     <use xlink:href="#DejaVuSans-72" x="1912.976562"/>
     <use xlink:href="#DejaVuSans-20" x="1954.089844"/>
     <use xlink:href="#DejaVuSans-54" x="1985.876953"/>
     <use xlink:href="#DejaVuSans-69" x="2043.835938"/>
     <use xlink:href="#DejaVuSans-6d" x="2071.619141"/>
     <use xlink:href="#DejaVuSans-65" x="2169.03125"/>
     <use xlink:href="#DejaVuSans-20" x="2230.554688"/>
     <use xlink:href="#DejaVuSans-6f" x="2262.341797"/>
     <use xlink:href="#DejaVuSans-66" x="2323.523438"/>
     <use xlink:href="#DejaVuSans-20" x="2358.728516"/>
     <use xlink:href="#DejaVuSans-47" x="2390.515625"/>
     <use xlink:href="#DejaVuSans-72" x="2468.005859"/>
     <use xlink:href="#DejaVuSans-6f" x="2506.869141"/>
     <use xlink:href="#DejaVuSans-75" x="2568.050781"/>
     <use xlink:href="#DejaVuSans-70" x="2631.429688"/>
     <use xlink:href="#DejaVuSans-20" x="2694.90625"/>
     <use xlink:href="#DejaVuSans-63" x="2726.693359"/>
     <use xlink:href="#DejaVuSans-61" x="2781.673828"/>
     <use xlink:href="#DejaVuSans-73" x="2842.953125"/>
     <use xlink:href="#DejaVuSans-6b" x="2895.052734"/>
     <use xlink:href="#DejaVuSans-20" x="2952.962891"/>
     <use xlink:href="#DejaVuSans-4d" x="2984.75"/>
     <use xlink:href="#DejaVuSans-6f" x="3071.029297"/>
     <use xlink:href="#DejaVuSans-75" x="3132.210938"/>
     <use xlink:href="#DejaVuSans-73" x="3195.589844"/>
     <use xlink:href="#DejaVuSans-65" x="3247.689453"/>
     <use xlink:href="#DejaVuSans-20" x="3309.212891"/>
     <use xlink:href="#DejaVuSans-4d" x="3341"/>
     <use xlink:href="#DejaVuSans-32" x="3427.279297"/>
     <use xlink:href="#DejaVuSans-33" x="3490.902344"/>
    </g>
   </g>
   <g id="legend_1">
    <g id="patch_87">
     <path d="M 1086.550625 64.233437 
L 1158.235 64.233437 
Q 1160.235 64.233437 1160.235 62.233437 
L 1160.235 33.877187 
Q 1160.235 31.877187 1158.235 31.877187 
L 1086.550625 31.877187 
Q 1084.550625 31.877187 1084.550625 33.877187 
L 1084.550625 62.233437 
Q 1084.550625 64.233437 1086.550625 64.233437 
z
" style="fill: #ffffff; opacity: 0.8; stroke: #cccccc; stroke-linejoin: miter"/>
    </g>
    <g id="patch_88">
     <path d="M 1088.550625 43.475625 
L 1108.550625 43.475625 
L 1108.550625 36.475625 
L 1088.550625 36.475625 
z
" style="fill: #add8e6; opacity: 0.9; stroke: #add8e6; stroke-linejoin: miter"/>
    </g>
    <g id="text_23">
     <!-- Meal -->
     <g transform="translate(1116.550625 43.475625) scale(0.1 -0.1)">
      <use xlink:href="#DejaVuSans-4d"/>
      <use xlink:href="#DejaVuSans-65" x="86.279297"/>
      <use xlink:href="#DejaVuSans-61" x="147.802734"/>
      <use xlink:href="#DejaVuSans-6c" x="209.082031"/>
     </g>
    </g>
    <g id="patch_89">
     <path d="M 1088.550625 58.15375 
L 1108.550625 58.15375 
L 1108.550625 51.15375 
L 1088.550625 51.15375 
z
" style="fill: #808080; opacity: 0.5; stroke: #808080; stroke-linejoin: miter"/>
    </g>
    <g id="text_24">
     <!-- Inactive -->
     <g transform="translate(1116.550625 58.15375) scale(0.1 -0.1)">
      <defs>
       <path id="DejaVuSans-49" d="M 628 4666 
L 1259 4666 
L 1259 0 
L 628 0 
L 628 4666 
z
" transform="scale(0.015625)"/>
      </defs>
      <use xlink:href="#DejaVuSans-49"/>
      <use xlink:href="#DejaVuSans-6e" x="29.492188"/>
      <use xlink:href="#DejaVuSans-61" x="92.871094"/>
      <use xlink:href="#DejaVuSans-63" x="154.150391"/>
      <use xlink:href="#DejaVuSans-74" x="209.130859"/>
      <use xlink:href="#DejaVuSans-69" x="248.339844"/>
      <use xlink:href="#DejaVuSans-76" x="276.123047"/>
      <use xlink:href="#DejaVuSans-65" x="335.302734"/>
     </g>
    </g>
   </g>
  </g>
 </g>
 <defs>
  <clipPath id="p9c28e0f396">
   <rect x="49.235" y="26.877187" width="1116" height="332.64"/>
  </clipPath>
 </defs>
</svg>
