<?xml version="1.0" encoding="utf-8" standalone="no"?>
<!DOCTYPE svg PUBLIC "-//W3C//DTD SVG 1.1//EN"
  "http://www.w3.org/Graphics/SVG/1.1/DTD/svg11.dtd">
<svg xmlns:xlink="http://www.w3.org/1999/xlink" width="1172.435pt" height="399.009062pt" viewBox="0 0 1172.435 399.009062" xmlns="http://www.w3.org/2000/svg" version="1.1">
 <metadata>
  <rdf:RDF xmlns:dc="http://purl.org/dc/elements/1.1/" xmlns:cc="http://creativecommons.org/ns#" xmlns:rdf="http://www.w3.org/1999/02/22-rdf-syntax-ns#">
   <cc:Work>
    <dc:type rdf:resource="http://purl.org/dc/dcmitype/StillImage"/>
    <dc:date>2025-10-01T22:37:33.320517</dc:date>
    <dc:format>image/svg+xml</dc:format>
    <dc:creator>
     <cc:Agent>
      <dc:title>Matplotlib v3.8.4, https://matplotlib.org/</dc:title>
     </cc:Agent>
    </dc:creator>
   </cc:Work>
  </rdf:RDF>
 </metadata>
 <defs>
  <style type="text/css">*{stroke-linejoin: round; stroke-linecap: butt}</style>
 </defs>
 <g id="figure_1">
  <g id="patch_1">
   <path d="M 0 399.009062 
L 1172.435 399.009062 
L 1172.435 0 
L 0 0 
z
" style="fill: #ffffff"/>
  </g>
  <g id="axes_1">
   <g id="patch_2">
    <path d="M 49.235 359.517187 
L 1165.235 359.517187 
L 1165.235 26.877187 
L 49.235 26.877187 
z
" style="fill: #ffffff"/>
   </g>
   <g id="patch_3">
    <path d="M 166.549567 359.517187 
L 166.549567 26.877187 
L 140.771071 26.877187 
L 140.771071 359.517187 
z
" clip-path="url(#pd70d40e416)" style="fill: #add8e6; stroke: #add8e6; stroke-linejoin: miter"/>
   </g>
   <g id="patch_4">
    <path d="M 159.232785 359.517187 
L 159.232785 26.877187 
L 160.161688 26.877187 
L 160.161688 359.517187 
z
" clip-path="url(#pd70d40e416)" style="fill: #add8e6; stroke: #add8e6; stroke-linejoin: miter"/>
   </g>
   <g id="patch_5">
    <path d="M 163.57021 359.517187 
L 163.57021 26.877187 
L 161.830662 26.877187 
L 161.830662 359.517187 
z
" clip-path="url(#pd70d40e416)" style="fill: #add8e6; stroke: #add8e6; stroke-linejoin: miter"/>
   </g>
   <g id="patch_6">
    <path d="M 165.771348 359.517187 
L 165.771348 26.877187 
L 166.105143 26.877187 
L 166.105143 359.517187 
z
" clip-path="url(#pd70d40e416)" style="fill: #add8e6; stroke: #add8e6; stroke-linejoin: miter"/>
   </g>
   <g id="patch_7">
    <path d="M 168.090745 359.517187 
L 168.090745 26.877187 
L 167.714988 26.877187 
L 167.714988 359.517187 
z
" clip-path="url(#pd70d40e416)" style="fill: #add8e6; stroke: #add8e6; stroke-linejoin: miter"/>
   </g>
   <g id="patch_8">
    <path d="M 169.660535 359.517187 
L 169.660535 26.877187 
L 170.196514 26.877187 
L 170.196514 359.517187 
z
" clip-path="url(#pd70d40e416)" style="fill: #add8e6; stroke: #add8e6; stroke-linejoin: miter"/>
   </g>
   <g id="patch_9">
    <path d="M 176.969687 359.517187 
L 176.969687 26.877187 
L 177.456074 26.877187 
L 177.456074 359.517187 
z
" clip-path="url(#pd70d40e416)" style="fill: #add8e6; stroke: #add8e6; stroke-linejoin: miter"/>
   </g>
   <g id="patch_10">
    <path d="M 180.595652 359.517187 
L 180.595652 26.877187 
L 180.437338 26.877187 
L 180.437338 359.517187 
z
" clip-path="url(#pd70d40e416)" style="fill: #add8e6; stroke: #add8e6; stroke-linejoin: miter"/>
   </g>
   <g id="patch_11">
    <path d="M 188.204266 359.517187 
L 188.204266 26.877187 
L 187.397437 26.877187 
L 187.397437 359.517187 
z
" clip-path="url(#pd70d40e416)" style="fill: #add8e6; stroke: #add8e6; stroke-linejoin: miter"/>
   </g>
   <g id="patch_12">
    <path d="M 224.25792 359.517187 
L 224.25792 26.877187 
L 197.123263 26.877187 
L 197.123263 359.517187 
z
" clip-path="url(#pd70d40e416)" style="fill: #add8e6; stroke: #add8e6; stroke-linejoin: miter"/>
   </g>
   <g id="patch_13">
    <path d="M 199.784085 359.517187 
L 199.784085 26.877187 
L 199.618141 26.877187 
L 199.618141 359.517187 
z
" clip-path="url(#pd70d40e416)" style="fill: #add8e6; stroke: #add8e6; stroke-linejoin: miter"/>
   </g>
   <g id="patch_14">
    <path d="M 208.083177 359.517187 
L 208.083177 26.877187 
L 208.390268 26.877187 
L 208.390268 359.517187 
z
" clip-path="url(#pd70d40e416)" style="fill: #add8e6; stroke: #add8e6; stroke-linejoin: miter"/>
   </g>
   <g id="patch_15">
    <path d="M 209.078839 359.517187 
L 209.078839 26.877187 
L 208.609619 26.877187 
L 208.609619 359.517187 
z
" clip-path="url(#pd70d40e416)" style="fill: #add8e6; stroke: #add8e6; stroke-linejoin: miter"/>
   </g>
   <g id="patch_16">
    <path d="M 211.009127 359.517187 
L 211.009127 26.877187 
L 211.402051 26.877187 
L 211.402051 359.517187 
z
" clip-path="url(#pd70d40e416)" style="fill: #add8e6; stroke: #add8e6; stroke-linejoin: miter"/>
   </g>
   <g id="patch_17">
    <path d="M 212.664749 359.517187 
L 212.664749 26.877187 
L 213.097729 26.877187 
L 213.097729 359.517187 
z
" clip-path="url(#pd70d40e416)" style="fill: #add8e6; stroke: #add8e6; stroke-linejoin: miter"/>
   </g>
   <g id="patch_18">
    <path d="M 215.831031 359.517187 
L 215.831031 26.877187 
L 215.369441 26.877187 
L 215.369441 359.517187 
z
" clip-path="url(#pd70d40e416)" style="fill: #add8e6; stroke: #add8e6; stroke-linejoin: miter"/>
   </g>
   <g id="patch_19">
    <path d="M 225.942153 359.517187 
L 225.942153 26.877187 
L 226.356058 26.877187 
L 226.356058 359.517187 
z
" clip-path="url(#pd70d40e416)" style="fill: #add8e6; stroke: #add8e6; stroke-linejoin: miter"/>
   </g>
   <g id="patch_20">
    <path d="M 285.054351 359.517187 
L 285.054351 26.877187 
L 252.800236 26.877187 
L 252.800236 359.517187 
z
" clip-path="url(#pd70d40e416)" style="fill: #add8e6; stroke: #add8e6; stroke-linejoin: miter"/>
   </g>
   <g id="patch_21">
    <path d="M 292.056412 359.517187 
L 292.056412 26.877187 
L 259.130893 26.877187 
L 259.130893 359.517187 
z
" clip-path="url(#pd70d40e416)" style="fill: #add8e6; stroke: #add8e6; stroke-linejoin: miter"/>
   </g>
   <g id="patch_22">
    <path d="M 289.643553 359.517187 
L 289.643553 26.877187 
L 284.392483 26.877187 
L 284.392483 359.517187 
z
" clip-path="url(#pd70d40e416)" style="fill: #add8e6; stroke: #add8e6; stroke-linejoin: miter"/>
   </g>
   <g id="patch_23">
    <path d="M 326.223648 359.517187 
L 326.223648 26.877187 
L 295.667118 26.877187 
L 295.667118 359.517187 
z
" clip-path="url(#pd70d40e416)" style="fill: #add8e6; stroke: #add8e6; stroke-linejoin: miter"/>
   </g>
   <g id="patch_24">
    <path d="M 340.914434 359.517187 
L 340.914434 26.877187 
L 308.12434 26.877187 
L 308.12434 359.517187 
z
" clip-path="url(#pd70d40e416)" style="fill: #add8e6; stroke: #add8e6; stroke-linejoin: miter"/>
   </g>
   <g id="patch_25">
    <path d="M 326.410573 359.517187 
L 326.410573 26.877187 
L 310.825217 26.877187 
L 310.825217 359.517187 
z
" clip-path="url(#pd70d40e416)" style="fill: #add8e6; stroke: #add8e6; stroke-linejoin: miter"/>
   </g>
   <g id="patch_26">
    <path d="M 348.486807 359.517187 
L 348.486807 26.877187 
L 316.352859 26.877187 
L 316.352859 359.517187 
z
" clip-path="url(#pd70d40e416)" style="fill: #add8e6; stroke: #add8e6; stroke-linejoin: miter"/>
   </g>
   <g id="patch_27">
    <path d="M 343.844199 359.517187 
L 343.844199 26.877187 
L 332.195714 26.877187 
L 332.195714 359.517187 
z
" clip-path="url(#pd70d40e416)" style="fill: #add8e6; stroke: #add8e6; stroke-linejoin: miter"/>
   </g>
   <g id="patch_28">
    <path d="M 337.366672 359.517187 
L 337.366672 26.877187 
L 335.106404 26.877187 
L 335.106404 359.517187 
z
" clip-path="url(#pd70d40e416)" style="fill: #add8e6; stroke: #add8e6; stroke-linejoin: miter"/>
   </g>
   <g id="patch_29">
    <path d="M 345.79356 359.517187 
L 345.79356 26.877187 
L 337.818726 26.877187 
L 337.818726 359.517187 
z
" clip-path="url(#pd70d40e416)" style="fill: #add8e6; stroke: #add8e6; stroke-linejoin: miter"/>
   </g>
   <g id="patch_30">
    <path d="M 370.915911 359.517187 
L 370.915911 26.877187 
L 339.031831 26.877187 
L 339.031831 359.517187 
z
" clip-path="url(#pd70d40e416)" style="fill: #add8e6; stroke: #add8e6; stroke-linejoin: miter"/>
   </g>
   <g id="patch_31">
    <path d="M 374.236692 359.517187 
L 374.236692 26.877187 
L 345.988115 26.877187 
L 345.988115 359.517187 
z
" clip-path="url(#pd70d40e416)" style="fill: #add8e6; stroke: #add8e6; stroke-linejoin: miter"/>
   </g>
   <g id="patch_32">
    <path d="M 399.69093 359.517187 
L 399.69093 26.877187 
L 368.745291 26.877187 
L 368.745291 359.517187 
z
" clip-path="url(#pd70d40e416)" style="fill: #add8e6; stroke: #add8e6; stroke-linejoin: miter"/>
   </g>
   <g id="patch_33">
    <path d="M 374.574302 359.517187 
L 374.574302 26.877187 
L 374.734523 26.877187 
L 374.734523 359.517187 
z
" clip-path="url(#pd70d40e416)" style="fill: #add8e6; stroke: #add8e6; stroke-linejoin: miter"/>
   </g>
   <g id="patch_34">
    <path d="M 377.803528 359.517187 
L 377.803528 26.877187 
L 375.611927 26.877187 
L 375.611927 359.517187 
z
" clip-path="url(#pd70d40e416)" style="fill: #add8e6; stroke: #add8e6; stroke-linejoin: miter"/>
   </g>
   <g id="patch_35">
    <path d="M 402.552028 359.517187 
L 402.552028 26.877187 
L 402.269733 26.877187 
L 402.269733 359.517187 
z
" clip-path="url(#pd70d40e416)" style="fill: #add8e6; stroke: #add8e6; stroke-linejoin: miter"/>
   </g>
   <g id="patch_36">
    <path d="M 433.848629 359.517187 
L 433.848629 26.877187 
L 408.913203 26.877187 
L 408.913203 359.517187 
z
" clip-path="url(#pd70d40e416)" style="fill: #add8e6; stroke: #add8e6; stroke-linejoin: miter"/>
   </g>
   <g id="patch_37">
    <path d="M 413.166703 359.517187 
L 413.166703 26.877187 
L 413.325017 26.877187 
L 413.325017 359.517187 
z
" clip-path="url(#pd70d40e416)" style="fill: #add8e6; stroke: #add8e6; stroke-linejoin: miter"/>
   </g>
   <g id="patch_38">
    <path d="M 432.194914 359.517187 
L 432.194914 26.877187 
L 431.197344 26.877187 
L 431.197344 359.517187 
z
" clip-path="url(#pd70d40e416)" style="fill: #add8e6; stroke: #add8e6; stroke-linejoin: miter"/>
   </g>
   <g id="patch_39">
    <path d="M 463.075701 359.517187 
L 463.075701 26.877187 
L 441.222633 26.877187 
L 441.222633 359.517187 
z
" clip-path="url(#pd70d40e416)" style="fill: #add8e6; stroke: #add8e6; stroke-linejoin: miter"/>
   </g>
   <g id="patch_40">
    <path d="M 493.754305 359.517187 
L 493.754305 26.877187 
L 460.849767 26.877187 
L 460.849767 359.517187 
z
" clip-path="url(#pd70d40e416)" style="fill: #add8e6; stroke: #add8e6; stroke-linejoin: miter"/>
   </g>
   <g id="patch_41">
    <path d="M 501.09779 359.517187 
L 501.09779 26.877187 
L 468.521325 26.877187 
L 468.521325 359.517187 
z
" clip-path="url(#pd70d40e416)" style="fill: #add8e6; stroke: #add8e6; stroke-linejoin: miter"/>
   </g>
   <g id="patch_42">
    <path d="M 483.47724 359.517187 
L 483.47724 26.877187 
L 484.766641 26.877187 
L 484.766641 359.517187 
z
" clip-path="url(#pd70d40e416)" style="fill: #add8e6; stroke: #add8e6; stroke-linejoin: miter"/>
   </g>
   <g id="patch_43">
    <path d="M 494.040415 359.517187 
L 494.040415 26.877187 
L 492.127293 26.877187 
L 492.127293 359.517187 
z
" clip-path="url(#pd70d40e416)" style="fill: #add8e6; stroke: #add8e6; stroke-linejoin: miter"/>
   </g>
   <g id="patch_44">
    <path d="M 535.095268 359.517187 
L 535.095268 26.877187 
L 536.346521 26.877187 
L 536.346521 359.517187 
z
" clip-path="url(#pd70d40e416)" style="fill: #add8e6; stroke: #add8e6; stroke-linejoin: miter"/>
   </g>
   <g id="patch_45">
    <path d="M 741.956489 359.517187 
L 741.956489 26.877187 
L 742.816726 26.877187 
L 742.816726 359.517187 
z
" clip-path="url(#pd70d40e416)" style="fill: #add8e6; stroke: #add8e6; stroke-linejoin: miter"/>
   </g>
   <g id="patch_46">
    <path d="M 743.5835 359.517187 
L 743.5835 26.877187 
L 744.006943 26.877187 
L 744.006943 359.517187 
z
" clip-path="url(#pd70d40e416)" style="fill: #add8e6; stroke: #add8e6; stroke-linejoin: miter"/>
   </g>
   <g id="patch_47">
    <path d="M 744.750828 359.517187 
L 744.750828 26.877187 
L 744.254905 26.877187 
L 744.254905 359.517187 
z
" clip-path="url(#pd70d40e416)" style="fill: #add8e6; stroke: #add8e6; stroke-linejoin: miter"/>
   </g>
   <g id="patch_48">
    <path d="M 829.237154 359.517187 
L 829.237154 26.877187 
L 829.647244 26.877187 
L 829.647244 359.517187 
z
" clip-path="url(#pd70d40e416)" style="fill: #add8e6; stroke: #add8e6; stroke-linejoin: miter"/>
   </g>
   <g id="patch_49">
    <path d="M 860.753105 359.517187 
L 860.753105 26.877187 
L 861.0869 26.877187 
L 861.0869 359.517187 
z
" clip-path="url(#pd70d40e416)" style="fill: #add8e6; stroke: #add8e6; stroke-linejoin: miter"/>
   </g>
   <g id="patch_50">
    <path d="M 862.591837 359.517187 
L 862.591837 26.877187 
L 861.733508 26.877187 
L 861.733508 359.517187 
z
" clip-path="url(#pd70d40e416)" style="fill: #add8e6; stroke: #add8e6; stroke-linejoin: miter"/>
   </g>
   <g id="patch_51">
    <path d="M 862.853151 359.517187 
L 862.853151 26.877187 
L 862.181747 26.877187 
L 862.181747 359.517187 
z
" clip-path="url(#pd70d40e416)" style="fill: #add8e6; stroke: #add8e6; stroke-linejoin: miter"/>
   </g>
   <g id="patch_52">
    <path d="M 913.002482 359.517187 
L 913.002482 26.877187 
L 914.408235 26.877187 
L 914.408235 359.517187 
z
" clip-path="url(#pd70d40e416)" style="fill: #add8e6; stroke: #add8e6; stroke-linejoin: miter"/>
   </g>
   <g id="patch_53">
    <path d="M 926.388607 359.517187 
L 926.388607 26.877187 
L 926.630847 26.877187 
L 926.630847 359.517187 
z
" clip-path="url(#pd70d40e416)" style="fill: #add8e6; stroke: #add8e6; stroke-linejoin: miter"/>
   </g>
   <g id="patch_54">
    <path d="M 943.593345 359.517187 
L 943.593345 26.877187 
L 942.988699 26.877187 
L 942.988699 359.517187 
z
" clip-path="url(#pd70d40e416)" style="fill: #add8e6; stroke: #add8e6; stroke-linejoin: miter"/>
   </g>
   <g id="patch_55">
    <path d="M 950.633554 359.517187 
L 950.633554 26.877187 
L 950.816664 26.877187 
L 950.816664 359.517187 
z
" clip-path="url(#pd70d40e416)" style="fill: #add8e6; stroke: #add8e6; stroke-linejoin: miter"/>
   </g>
   <g id="patch_56">
    <path d="M 966.667149 359.517187 
L 966.667149 26.877187 
L 961.934892 26.877187 
L 961.934892 359.517187 
z
" clip-path="url(#pd70d40e416)" style="fill: #add8e6; stroke: #add8e6; stroke-linejoin: miter"/>
   </g>
   <g id="patch_57">
    <path d="M 968.372363 359.517187 
L 968.372363 26.877187 
L 968.099605 26.877187 
L 968.099605 359.517187 
z
" clip-path="url(#pd70d40e416)" style="fill: #add8e6; stroke: #add8e6; stroke-linejoin: miter"/>
   </g>
   <g id="patch_58">
    <path d="M 974.168949 359.517187 
L 974.168949 26.877187 
L 973.701636 26.877187 
L 973.701636 359.517187 
z
" clip-path="url(#pd70d40e416)" style="fill: #add8e6; stroke: #add8e6; stroke-linejoin: miter"/>
   </g>
   <g id="patch_59">
    <path d="M 980.800974 359.517187 
L 980.800974 26.877187 
L 981.369379 26.877187 
L 981.369379 359.517187 
z
" clip-path="url(#pd70d40e416)" style="fill: #add8e6; stroke: #add8e6; stroke-linejoin: miter"/>
   </g>
   <g id="patch_60">
    <path d="M 984.196144 359.517187 
L 984.196144 26.877187 
L 983.753628 26.877187 
L 983.753628 359.517187 
z
" clip-path="url(#pd70d40e416)" style="fill: #add8e6; stroke: #add8e6; stroke-linejoin: miter"/>
   </g>
   <g id="patch_61">
    <path d="M 998.56458 359.517187 
L 998.56458 26.877187 
L 988.171164 26.877187 
L 988.171164 359.517187 
z
" clip-path="url(#pd70d40e416)" style="fill: #add8e6; stroke: #add8e6; stroke-linejoin: miter"/>
   </g>
   <g id="patch_62">
    <path d="M 1023.419895 359.517187 
L 1023.419895 26.877187 
L 993.736954 26.877187 
L 993.736954 359.517187 
z
" clip-path="url(#pd70d40e416)" style="fill: #add8e6; stroke: #add8e6; stroke-linejoin: miter"/>
   </g>
   <g id="patch_63">
    <path d="M 1031.059027 359.517187 
L 1031.059027 26.877187 
L 1004.033093 26.877187 
L 1004.033093 359.517187 
z
" clip-path="url(#pd70d40e416)" style="fill: #add8e6; stroke: #add8e6; stroke-linejoin: miter"/>
   </g>
   <g id="patch_64">
    <path d="M 1006.051121 359.517187 
L 1006.051121 26.877187 
L 1006.611896 26.877187 
L 1006.611896 359.517187 
z
" clip-path="url(#pd70d40e416)" style="fill: #add8e6; stroke: #add8e6; stroke-linejoin: miter"/>
   </g>
   <g id="patch_65">
    <path d="M 1018.348121 359.517187 
L 1018.348121 26.877187 
L 1017.630939 26.877187 
L 1017.630939 359.517187 
z
" clip-path="url(#pd70d40e416)" style="fill: #add8e6; stroke: #add8e6; stroke-linejoin: miter"/>
   </g>
   <g id="patch_66">
    <path d="M 1021.876809 359.517187 
L 1021.876809 26.877187 
L 1022.325048 26.877187 
L 1022.325048 359.517187 
z
" clip-path="url(#pd70d40e416)" style="fill: #add8e6; stroke: #add8e6; stroke-linejoin: miter"/>
   </g>
   <g id="patch_67">
    <path d="M 1039.092991 359.517187 
L 1039.092991 26.877187 
L 1040.52354 26.877187 
L 1040.52354 359.517187 
z
" clip-path="url(#pd70d40e416)" style="fill: #add8e6; stroke: #add8e6; stroke-linejoin: miter"/>
   </g>
   <g id="patch_68">
    <path d="M 1041.862534 359.517187 
L 1041.862534 26.877187 
L 1042.160088 26.877187 
L 1042.160088 359.517187 
z
" clip-path="url(#pd70d40e416)" style="fill: #add8e6; stroke: #add8e6; stroke-linejoin: miter"/>
   </g>
   <g id="patch_69">
    <path d="M 1076.45512 359.517187 
L 1076.45512 26.877187 
L 1045.736461 26.877187 
L 1045.736461 359.517187 
z
" clip-path="url(#pd70d40e416)" style="fill: #add8e6; stroke: #add8e6; stroke-linejoin: miter"/>
   </g>
   <g id="patch_70">
    <path d="M 1087.394052 359.517187 
L 1087.394052 26.877187 
L 1057.978147 26.877187 
L 1057.978147 359.517187 
z
" clip-path="url(#pd70d40e416)" style="fill: #add8e6; stroke: #add8e6; stroke-linejoin: miter"/>
   </g>
   <g id="patch_71">
    <path d="M 1076.306343 359.517187 
L 1076.306343 26.877187 
L 1076.464657 26.877187 
L 1076.464657 359.517187 
z
" clip-path="url(#pd70d40e416)" style="fill: #add8e6; stroke: #add8e6; stroke-linejoin: miter"/>
   </g>
   <g id="patch_72">
    <path d="M 1093.736154 359.517187 
L 1093.736154 26.877187 
L 1077.887577 26.877187 
L 1077.887577 359.517187 
z
" clip-path="url(#pd70d40e416)" style="fill: #add8e6; stroke: #add8e6; stroke-linejoin: miter"/>
   </g>
   <g id="patch_73">
    <path d="M 1114.507727 359.517187 
L 1114.507727 26.877187 
L 1081.788207 26.877187 
L 1081.788207 359.517187 
z
" clip-path="url(#pd70d40e416)" style="fill: #add8e6; stroke: #add8e6; stroke-linejoin: miter"/>
   </g>
   <g id="patch_74">
    <path d="M 1083.254997 359.517187 
L 1083.254997 26.877187 
L 1083.756643 26.877187 
L 1083.756643 359.517187 
z
" clip-path="url(#pd70d40e416)" style="fill: #add8e6; stroke: #add8e6; stroke-linejoin: miter"/>
   </g>
   <g id="patch_75">
    <path d="M 1089.795468 359.517187 
L 1089.795468 26.877187 
L 1090.770148 26.877187 
L 1090.770148 359.517187 
z
" clip-path="url(#pd70d40e416)" style="fill: #add8e6; stroke: #add8e6; stroke-linejoin: miter"/>
   </g>
   <g id="patch_76">
    <path d="M 443.294068 359.517187 
L 443.294068 26.877187 
L 855.292222 26.877187 
L 855.292222 359.517187 
z
" clip-path="url(#pd70d40e416)" style="fill: #808080; opacity: 0.4; stroke: #808080; stroke-linejoin: miter"/>
   </g>
   <g id="matplotlib.axis_1">
    <g id="xtick_1">
     <g id="line2d_1">
      <defs>
       <path id="m28ae97bc82" d="M 0 0 
L 0 3.5 
" style="stroke: #000000; stroke-width: 0.8"/>
      </defs>
      <g>
       <use xlink:href="#m28ae97bc82" x="95.413126" y="359.517187" style="stroke: #000000; stroke-width: 0.8"/>
      </g>
     </g>
     <g id="text_1">
      <!-- 03-26 09 -->
      <g transform="translate(72.932658 374.115625) scale(0.1 -0.1)">
       <defs>
        <path id="DejaVuSans-30" d="M 2034 4250 
Q 1547 4250 1301 3770 
Q 1056 3291 1056 2328 
Q 1056 1369 1301 889 
Q 1547 409 2034 409 
Q 2525 409 2770 889 
Q 3016 1369 3016 2328 
Q 3016 3291 2770 3770 
Q 2525 4250 2034 4250 
z
M 2034 4750 
Q 2819 4750 3233 4129 
Q 3647 3509 3647 2328 
Q 3647 1150 3233 529 
Q 2819 -91 2034 -91 
Q 1250 -91 836 529 
Q 422 1150 422 2328 
Q 422 3509 836 4129 
Q 1250 4750 2034 4750 
z
" transform="scale(0.015625)"/>
        <path id="DejaVuSans-33" d="M 2597 2516 
Q 3050 2419 3304 2112 
Q 3559 1806 3559 1356 
Q 3559 666 3084 287 
Q 2609 -91 1734 -91 
Q 1441 -91 1130 -33 
Q 819 25 488 141 
L 488 750 
Q 750 597 1062 519 
Q 1375 441 1716 441 
Q 2309 441 2620 675 
Q 2931 909 2931 1356 
Q 2931 1769 2642 2001 
Q 2353 2234 1838 2234 
L 1294 2234 
L 1294 2753 
L 1863 2753 
Q 2328 2753 2575 2939 
Q 2822 3125 2822 3475 
Q 2822 3834 2567 4026 
Q 2313 4219 1838 4219 
Q 1578 4219 1281 4162 
Q 984 4106 628 3988 
L 628 4550 
Q 988 4650 1302 4700 
Q 1616 4750 1894 4750 
Q 2613 4750 3031 4423 
Q 3450 4097 3450 3541 
Q 3450 3153 3228 2886 
Q 3006 2619 2597 2516 
z
" transform="scale(0.015625)"/>
        <path id="DejaVuSans-2d" d="M 313 2009 
L 1997 2009 
L 1997 1497 
L 313 1497 
L 313 2009 
z
" transform="scale(0.015625)"/>
        <path id="DejaVuSans-32" d="M 1228 531 
L 3431 531 
L 3431 0 
L 469 0 
L 469 531 
Q 828 903 1448 1529 
Q 2069 2156 2228 2338 
Q 2531 2678 2651 2914 
Q 2772 3150 2772 3378 
Q 2772 3750 2511 3984 
Q 2250 4219 1831 4219 
Q 1534 4219 1204 4116 
Q 875 4013 500 3803 
L 500 4441 
Q 881 4594 1212 4672 
Q 1544 4750 1819 4750 
Q 2544 4750 2975 4387 
Q 3406 4025 3406 3419 
Q 3406 3131 3298 2873 
Q 3191 2616 2906 2266 
Q 2828 2175 2409 1742 
Q 1991 1309 1228 531 
z
" transform="scale(0.015625)"/>
        <path id="DejaVuSans-36" d="M 2113 2584 
Q 1688 2584 1439 2293 
Q 1191 2003 1191 1497 
Q 1191 994 1439 701 
Q 1688 409 2113 409 
Q 2538 409 2786 701 
Q 3034 994 3034 1497 
Q 3034 2003 2786 2293 
Q 2538 2584 2113 2584 
z
M 3366 4563 
L 3366 3988 
Q 3128 4100 2886 4159 
Q 2644 4219 2406 4219 
Q 1781 4219 1451 3797 
Q 1122 3375 1075 2522 
Q 1259 2794 1537 2939 
Q 1816 3084 2150 3084 
Q 2853 3084 3261 2657 
Q 3669 2231 3669 1497 
Q 3669 778 3244 343 
Q 2819 -91 2113 -91 
Q 1303 -91 875 529 
Q 447 1150 447 2328 
Q 447 3434 972 4092 
Q 1497 4750 2381 4750 
Q 2619 4750 2861 4703 
Q 3103 4656 3366 4563 
z
" transform="scale(0.015625)"/>
        <path id="DejaVuSans-20" transform="scale(0.015625)"/>
        <path id="DejaVuSans-39" d="M 703 97 
L 703 672 
Q 941 559 1184 500 
Q 1428 441 1663 441 
Q 2288 441 2617 861 
Q 2947 1281 2994 2138 
Q 2813 1869 2534 1725 
Q 2256 1581 1919 1581 
Q 1219 1581 811 2004 
Q 403 2428 403 3163 
Q 403 3881 828 4315 
Q 1253 4750 1959 4750 
Q 2769 4750 3195 4129 
Q 3622 3509 3622 2328 
Q 3622 1225 3098 567 
Q 2575 -91 1691 -91 
Q 1453 -91 1209 -44 
Q 966 3 703 97 
z
M 1959 2075 
Q 2384 2075 2632 2365 
Q 2881 2656 2881 3163 
Q 2881 3666 2632 3958 
Q 2384 4250 1959 4250 
Q 1534 4250 1286 3958 
Q 1038 3666 1038 3163 
Q 1038 2656 1286 2365 
Q 1534 2075 1959 2075 
z
" transform="scale(0.015625)"/>
       </defs>
       <use xlink:href="#DejaVuSans-30"/>
       <use xlink:href="#DejaVuSans-33" x="63.623047"/>
       <use xlink:href="#DejaVuSans-2d" x="127.246094"/>
       <use xlink:href="#DejaVuSans-32" x="163.330078"/>
       <use xlink:href="#DejaVuSans-36" x="226.953125"/>
       <use xlink:href="#DejaVuSans-20" x="290.576172"/>
       <use xlink:href="#DejaVuSans-30" x="322.363281"/>
       <use xlink:href="#DejaVuSans-39" x="385.986328"/>
      </g>
     </g>
    </g>
    <g id="xtick_2">
     <g id="line2d_2">
      <g>
       <use xlink:href="#m28ae97bc82" x="198.412665" y="359.517187" style="stroke: #000000; stroke-width: 0.8"/>
      </g>
     </g>
     <g id="text_2">
      <!-- 03-26 12 -->
      <g transform="translate(175.932196 374.115625) scale(0.1 -0.1)">
       <defs>
        <path id="DejaVuSans-31" d="M 794 531 
L 1825 531 
L 1825 4091 
L 703 3866 
L 703 4441 
L 1819 4666 
L 2450 4666 
L 2450 531 
L 3481 531 
L 3481 0 
L 794 0 
L 794 531 
z
" transform="scale(0.015625)"/>
       </defs>
       <use xlink:href="#DejaVuSans-30"/>
       <use xlink:href="#DejaVuSans-33" x="63.623047"/>
       <use xlink:href="#DejaVuSans-2d" x="127.246094"/>
       <use xlink:href="#DejaVuSans-32" x="163.330078"/>
       <use xlink:href="#DejaVuSans-36" x="226.953125"/>
       <use xlink:href="#DejaVuSans-20" x="290.576172"/>
       <use xlink:href="#DejaVuSans-31" x="322.363281"/>
       <use xlink:href="#DejaVuSans-32" x="385.986328"/>
      </g>
     </g>
    </g>
    <g id="xtick_3">
     <g id="line2d_3">
      <g>
       <use xlink:href="#m28ae97bc82" x="301.412204" y="359.517187" style="stroke: #000000; stroke-width: 0.8"/>
      </g>
     </g>
     <g id="text_3">
      <!-- 03-26 15 -->
      <g transform="translate(278.931735 374.115625) scale(0.1 -0.1)">
       <defs>
        <path id="DejaVuSans-35" d="M 691 4666 
L 3169 4666 
L 3169 4134 
L 1269 4134 
L 1269 2991 
Q 1406 3038 1543 3061 
Q 1681 3084 1819 3084 
Q 2600 3084 3056 2656 
Q 3513 2228 3513 1497 
Q 3513 744 3044 326 
Q 2575 -91 1722 -91 
Q 1428 -91 1123 -41 
Q 819 9 494 109 
L 494 744 
Q 775 591 1075 516 
Q 1375 441 1709 441 
Q 2250 441 2565 725 
Q 2881 1009 2881 1497 
Q 2881 1984 2565 2268 
Q 2250 2553 1709 2553 
Q 1456 2553 1204 2497 
Q 953 2441 691 2322 
L 691 4666 
z
" transform="scale(0.015625)"/>
       </defs>
       <use xlink:href="#DejaVuSans-30"/>
       <use xlink:href="#DejaVuSans-33" x="63.623047"/>
       <use xlink:href="#DejaVuSans-2d" x="127.246094"/>
       <use xlink:href="#DejaVuSans-32" x="163.330078"/>
       <use xlink:href="#DejaVuSans-36" x="226.953125"/>
       <use xlink:href="#DejaVuSans-20" x="290.576172"/>
       <use xlink:href="#DejaVuSans-31" x="322.363281"/>
       <use xlink:href="#DejaVuSans-35" x="385.986328"/>
      </g>
     </g>
    </g>
    <g id="xtick_4">
     <g id="line2d_4">
      <g>
       <use xlink:href="#m28ae97bc82" x="404.411742" y="359.517187" style="stroke: #000000; stroke-width: 0.8"/>
      </g>
     </g>
     <g id="text_4">
      <!-- 03-26 18 -->
      <g transform="translate(381.931273 374.115625) scale(0.1 -0.1)">
       <defs>
        <path id="DejaVuSans-38" d="M 2034 2216 
Q 1584 2216 1326 1975 
Q 1069 1734 1069 1313 
Q 1069 891 1326 650 
Q 1584 409 2034 409 
Q 2484 409 2743 651 
Q 3003 894 3003 1313 
Q 3003 1734 2745 1975 
Q 2488 2216 2034 2216 
z
M 1403 2484 
Q 997 2584 770 2862 
Q 544 3141 544 3541 
Q 544 4100 942 4425 
Q 1341 4750 2034 4750 
Q 2731 4750 3128 4425 
Q 3525 4100 3525 3541 
Q 3525 3141 3298 2862 
Q 3072 2584 2669 2484 
Q 3125 2378 3379 2068 
Q 3634 1759 3634 1313 
Q 3634 634 3220 271 
Q 2806 -91 2034 -91 
Q 1263 -91 848 271 
Q 434 634 434 1313 
Q 434 1759 690 2068 
Q 947 2378 1403 2484 
z
M 1172 3481 
Q 1172 3119 1398 2916 
Q 1625 2713 2034 2713 
Q 2441 2713 2670 2916 
Q 2900 3119 2900 3481 
Q 2900 3844 2670 4047 
Q 2441 4250 2034 4250 
Q 1625 4250 1398 4047 
Q 1172 3844 1172 3481 
z
" transform="scale(0.015625)"/>
       </defs>
       <use xlink:href="#DejaVuSans-30"/>
       <use xlink:href="#DejaVuSans-33" x="63.623047"/>
       <use xlink:href="#DejaVuSans-2d" x="127.246094"/>
       <use xlink:href="#DejaVuSans-32" x="163.330078"/>
       <use xlink:href="#DejaVuSans-36" x="226.953125"/>
       <use xlink:href="#DejaVuSans-20" x="290.576172"/>
       <use xlink:href="#DejaVuSans-31" x="322.363281"/>
       <use xlink:href="#DejaVuSans-38" x="385.986328"/>
      </g>
     </g>
    </g>
    <g id="xtick_5">
     <g id="line2d_5">
      <g>
       <use xlink:href="#m28ae97bc82" x="507.411281" y="359.517187" style="stroke: #000000; stroke-width: 0.8"/>
      </g>
     </g>
     <g id="text_5">
      <!-- 03-26 21 -->
      <g transform="translate(484.930812 374.115625) scale(0.1 -0.1)">
       <use xlink:href="#DejaVuSans-30"/>
       <use xlink:href="#DejaVuSans-33" x="63.623047"/>
       <use xlink:href="#DejaVuSans-2d" x="127.246094"/>
       <use xlink:href="#DejaVuSans-32" x="163.330078"/>
       <use xlink:href="#DejaVuSans-36" x="226.953125"/>
       <use xlink:href="#DejaVuSans-20" x="290.576172"/>
       <use xlink:href="#DejaVuSans-32" x="322.363281"/>
       <use xlink:href="#DejaVuSans-31" x="385.986328"/>
      </g>
     </g>
    </g>
    <g id="xtick_6">
     <g id="line2d_6">
      <g>
       <use xlink:href="#m28ae97bc82" x="610.410819" y="359.517187" style="stroke: #000000; stroke-width: 0.8"/>
      </g>
     </g>
     <g id="text_6">
      <!-- 03-27 00 -->
      <g transform="translate(587.93035 374.115625) scale(0.1 -0.1)">
       <defs>
        <path id="DejaVuSans-37" d="M 525 4666 
L 3525 4666 
L 3525 4397 
L 1831 0 
L 1172 0 
L 2766 4134 
L 525 4134 
L 525 4666 
z
" transform="scale(0.015625)"/>
       </defs>
       <use xlink:href="#DejaVuSans-30"/>
       <use xlink:href="#DejaVuSans-33" x="63.623047"/>
       <use xlink:href="#DejaVuSans-2d" x="127.246094"/>
       <use xlink:href="#DejaVuSans-32" x="163.330078"/>
       <use xlink:href="#DejaVuSans-37" x="226.953125"/>
       <use xlink:href="#DejaVuSans-20" x="290.576172"/>
       <use xlink:href="#DejaVuSans-30" x="322.363281"/>
       <use xlink:href="#DejaVuSans-30" x="385.986328"/>
      </g>
     </g>
    </g>
    <g id="xtick_7">
     <g id="line2d_7">
      <g>
       <use xlink:href="#m28ae97bc82" x="713.410358" y="359.517187" style="stroke: #000000; stroke-width: 0.8"/>
      </g>
     </g>
     <g id="text_7">
      <!-- 03-27 03 -->
      <g transform="translate(690.929889 374.115625) scale(0.1 -0.1)">
       <use xlink:href="#DejaVuSans-30"/>
       <use xlink:href="#DejaVuSans-33" x="63.623047"/>
       <use xlink:href="#DejaVuSans-2d" x="127.246094"/>
       <use xlink:href="#DejaVuSans-32" x="163.330078"/>
       <use xlink:href="#DejaVuSans-37" x="226.953125"/>
       <use xlink:href="#DejaVuSans-20" x="290.576172"/>
       <use xlink:href="#DejaVuSans-30" x="322.363281"/>
       <use xlink:href="#DejaVuSans-33" x="385.986328"/>
      </g>
     </g>
    </g>
    <g id="xtick_8">
     <g id="line2d_8">
      <g>
       <use xlink:href="#m28ae97bc82" x="816.409896" y="359.517187" style="stroke: #000000; stroke-width: 0.8"/>
      </g>
     </g>
     <g id="text_8">
      <!-- 03-27 06 -->
      <g transform="translate(793.929427 374.115625) scale(0.1 -0.1)">
       <use xlink:href="#DejaVuSans-30"/>
       <use xlink:href="#DejaVuSans-33" x="63.623047"/>
       <use xlink:href="#DejaVuSans-2d" x="127.246094"/>
       <use xlink:href="#DejaVuSans-32" x="163.330078"/>
       <use xlink:href="#DejaVuSans-37" x="226.953125"/>
       <use xlink:href="#DejaVuSans-20" x="290.576172"/>
       <use xlink:href="#DejaVuSans-30" x="322.363281"/>
       <use xlink:href="#DejaVuSans-36" x="385.986328"/>
      </g>
     </g>
    </g>
    <g id="xtick_9">
     <g id="line2d_9">
      <g>
       <use xlink:href="#m28ae97bc82" x="919.409435" y="359.517187" style="stroke: #000000; stroke-width: 0.8"/>
      </g>
     </g>
     <g id="text_9">
      <!-- 03-27 09 -->
      <g transform="translate(896.928966 374.115625) scale(0.1 -0.1)">
       <use xlink:href="#DejaVuSans-30"/>
       <use xlink:href="#DejaVuSans-33" x="63.623047"/>
       <use xlink:href="#DejaVuSans-2d" x="127.246094"/>
       <use xlink:href="#DejaVuSans-32" x="163.330078"/>
       <use xlink:href="#DejaVuSans-37" x="226.953125"/>
       <use xlink:href="#DejaVuSans-20" x="290.576172"/>
       <use xlink:href="#DejaVuSans-30" x="322.363281"/>
       <use xlink:href="#DejaVuSans-39" x="385.986328"/>
      </g>
     </g>
    </g>
    <g id="xtick_10">
     <g id="line2d_10">
      <g>
       <use xlink:href="#m28ae97bc82" x="1022.408973" y="359.517187" style="stroke: #000000; stroke-width: 0.8"/>
      </g>
     </g>
     <g id="text_10">
      <!-- 03-27 12 -->
      <g transform="translate(999.928504 374.115625) scale(0.1 -0.1)">
       <use xlink:href="#DejaVuSans-30"/>
       <use xlink:href="#DejaVuSans-33" x="63.623047"/>
       <use xlink:href="#DejaVuSans-2d" x="127.246094"/>
       <use xlink:href="#DejaVuSans-32" x="163.330078"/>
       <use xlink:href="#DejaVuSans-37" x="226.953125"/>
       <use xlink:href="#DejaVuSans-20" x="290.576172"/>
       <use xlink:href="#DejaVuSans-31" x="322.363281"/>
       <use xlink:href="#DejaVuSans-32" x="385.986328"/>
      </g>
     </g>
    </g>
    <g id="xtick_11">
     <g id="line2d_11">
      <g>
       <use xlink:href="#m28ae97bc82" x="1125.408512" y="359.517187" style="stroke: #000000; stroke-width: 0.8"/>
      </g>
     </g>
     <g id="text_11">
      <!-- 03-27 15 -->
      <g transform="translate(1102.928043 374.115625) scale(0.1 -0.1)">
       <use xlink:href="#DejaVuSans-30"/>
       <use xlink:href="#DejaVuSans-33" x="63.623047"/>
       <use xlink:href="#DejaVuSans-2d" x="127.246094"/>
       <use xlink:href="#DejaVuSans-32" x="163.330078"/>
       <use xlink:href="#DejaVuSans-37" x="226.953125"/>
       <use xlink:href="#DejaVuSans-20" x="290.576172"/>
       <use xlink:href="#DejaVuSans-31" x="322.363281"/>
       <use xlink:href="#DejaVuSans-35" x="385.986328"/>
      </g>
     </g>
    </g>
    <g id="text_12">
     <!-- Time -->
     <g transform="translate(592.554688 389.313437) scale(0.12 -0.12)">
      <defs>
       <path id="DejaVuSans-54" d="M -19 4666 
L 3928 4666 
L 3928 4134 
L 2272 4134 
L 2272 0 
L 1638 0 
L 1638 4134 
L -19 4134 
L -19 4666 
z
" transform="scale(0.015625)"/>
       <path id="DejaVuSans-69" d="M 603 3500 
L 1178 3500 
L 1178 0 
L 603 0 
L 603 3500 
z
M 603 4863 
L 1178 4863 
L 1178 4134 
L 603 4134 
L 603 4863 
z
" transform="scale(0.015625)"/>
       <path id="DejaVuSans-6d" d="M 3328 2828 
Q 3544 3216 3844 3400 
Q 4144 3584 4550 3584 
Q 5097 3584 5394 3201 
Q 5691 2819 5691 2113 
L 5691 0 
L 5113 0 
L 5113 2094 
Q 5113 2597 4934 2840 
Q 4756 3084 4391 3084 
Q 3944 3084 3684 2787 
Q 3425 2491 3425 1978 
L 3425 0 
L 2847 0 
L 2847 2094 
Q 2847 2600 2669 2842 
Q 2491 3084 2119 3084 
Q 1678 3084 1418 2786 
Q 1159 2488 1159 1978 
L 1159 0 
L 581 0 
L 581 3500 
L 1159 3500 
L 1159 2956 
Q 1356 3278 1631 3431 
Q 1906 3584 2284 3584 
Q 2666 3584 2933 3390 
Q 3200 3197 3328 2828 
z
" transform="scale(0.015625)"/>
       <path id="DejaVuSans-65" d="M 3597 1894 
L 3597 1613 
L 953 1613 
Q 991 1019 1311 708 
Q 1631 397 2203 397 
Q 2534 397 2845 478 
Q 3156 559 3463 722 
L 3463 178 
Q 3153 47 2828 -22 
Q 2503 -91 2169 -91 
Q 1331 -91 842 396 
Q 353 884 353 1716 
Q 353 2575 817 3079 
Q 1281 3584 2069 3584 
Q 2775 3584 3186 3129 
Q 3597 2675 3597 1894 
z
M 3022 2063 
Q 3016 2534 2758 2815 
Q 2500 3097 2075 3097 
Q 1594 3097 1305 2825 
Q 1016 2553 972 2059 
L 3022 2063 
z
" transform="scale(0.015625)"/>
      </defs>
      <use xlink:href="#DejaVuSans-54"/>
      <use xlink:href="#DejaVuSans-69" x="57.958984"/>
      <use xlink:href="#DejaVuSans-6d" x="85.742188"/>
      <use xlink:href="#DejaVuSans-65" x="183.154297"/>
     </g>
    </g>
   </g>
   <g id="matplotlib.axis_2">
    <g id="ytick_1">
     <g id="line2d_12">
      <defs>
       <path id="mc973474a4e" d="M 0 0 
L -3.5 0 
" style="stroke: #000000; stroke-width: 0.8"/>
      </defs>
      <g>
       <use xlink:href="#mc973474a4e" x="49.235" y="344.397187" style="stroke: #000000; stroke-width: 0.8"/>
      </g>
     </g>
     <g id="text_13">
      <!-- 0 -->
      <g transform="translate(35.8725 348.196406) scale(0.1 -0.1)">
       <use xlink:href="#DejaVuSans-30"/>
      </g>
     </g>
    </g>
    <g id="ytick_2">
     <g id="line2d_13">
      <g>
       <use xlink:href="#mc973474a4e" x="49.235" y="294.330962" style="stroke: #000000; stroke-width: 0.8"/>
      </g>
     </g>
     <g id="text_14">
      <!-- 50 -->
      <g transform="translate(29.51 298.130181) scale(0.1 -0.1)">
       <use xlink:href="#DejaVuSans-35"/>
       <use xlink:href="#DejaVuSans-30" x="63.623047"/>
      </g>
     </g>
    </g>
    <g id="ytick_3">
     <g id="line2d_14">
      <g>
       <use xlink:href="#mc973474a4e" x="49.235" y="244.264737" style="stroke: #000000; stroke-width: 0.8"/>
      </g>
     </g>
     <g id="text_15">
      <!-- 100 -->
      <g transform="translate(23.1475 248.063956) scale(0.1 -0.1)">
       <use xlink:href="#DejaVuSans-31"/>
       <use xlink:href="#DejaVuSans-30" x="63.623047"/>
       <use xlink:href="#DejaVuSans-30" x="127.246094"/>
      </g>
     </g>
    </g>
    <g id="ytick_4">
     <g id="line2d_15">
      <g>
       <use xlink:href="#mc973474a4e" x="49.235" y="194.198512" style="stroke: #000000; stroke-width: 0.8"/>
      </g>
     </g>
     <g id="text_16">
      <!-- 150 -->
      <g transform="translate(23.1475 197.997731) scale(0.1 -0.1)">
       <use xlink:href="#DejaVuSans-31"/>
       <use xlink:href="#DejaVuSans-35" x="63.623047"/>
       <use xlink:href="#DejaVuSans-30" x="127.246094"/>
      </g>
     </g>
    </g>
    <g id="ytick_5">
     <g id="line2d_16">
      <g>
       <use xlink:href="#mc973474a4e" x="49.235" y="144.132287" style="stroke: #000000; stroke-width: 0.8"/>
      </g>
     </g>
     <g id="text_17">
      <!-- 200 -->
      <g transform="translate(23.1475 147.931506) scale(0.1 -0.1)">
       <use xlink:href="#DejaVuSans-32"/>
       <use xlink:href="#DejaVuSans-30" x="63.623047"/>
       <use xlink:href="#DejaVuSans-30" x="127.246094"/>
      </g>
     </g>
    </g>
    <g id="ytick_6">
     <g id="line2d_17">
      <g>
       <use xlink:href="#mc973474a4e" x="49.235" y="94.066062" style="stroke: #000000; stroke-width: 0.8"/>
      </g>
     </g>
     <g id="text_18">
      <!-- 250 -->
      <g transform="translate(23.1475 97.86528) scale(0.1 -0.1)">
       <use xlink:href="#DejaVuSans-32"/>
       <use xlink:href="#DejaVuSans-35" x="63.623047"/>
       <use xlink:href="#DejaVuSans-30" x="127.246094"/>
      </g>
     </g>
    </g>
    <g id="ytick_7">
     <g id="line2d_18">
      <g>
       <use xlink:href="#mc973474a4e" x="49.235" y="43.999837" style="stroke: #000000; stroke-width: 0.8"/>
      </g>
     </g>
     <g id="text_19">
      <!-- 300 -->
      <g transform="translate(23.1475 47.799055) scale(0.1 -0.1)">
       <use xlink:href="#DejaVuSans-33"/>
       <use xlink:href="#DejaVuSans-30" x="63.623047"/>
       <use xlink:href="#DejaVuSans-30" x="127.246094"/>
      </g>
     </g>
    </g>
    <g id="text_20">
     <!-- Pellet_Count -->
     <g transform="translate(16.318125 230.485312) rotate(-90) scale(0.12 -0.12)">
      <defs>
       <path id="DejaVuSans-50" d="M 1259 4147 
L 1259 2394 
L 2053 2394 
Q 2494 2394 2734 2622 
Q 2975 2850 2975 3272 
Q 2975 3691 2734 3919 
Q 2494 4147 2053 4147 
L 1259 4147 
z
M 628 4666 
L 2053 4666 
Q 2838 4666 3239 4311 
Q 3641 3956 3641 3272 
Q 3641 2581 3239 2228 
Q 2838 1875 2053 1875 
L 1259 1875 
L 1259 0 
L 628 0 
L 628 4666 
z
" transform="scale(0.015625)"/>
       <path id="DejaVuSans-6c" d="M 603 4863 
L 1178 4863 
L 1178 0 
L 603 0 
L 603 4863 
z
" transform="scale(0.015625)"/>
       <path id="DejaVuSans-74" d="M 1172 4494 
L 1172 3500 
L 2356 3500 
L 2356 3053 
L 1172 3053 
L 1172 1153 
Q 1172 725 1289 603 
Q 1406 481 1766 481 
L 2356 481 
L 2356 0 
L 1766 0 
Q 1100 0 847 248 
Q 594 497 594 1153 
L 594 3053 
L 172 3053 
L 172 3500 
L 594 3500 
L 594 4494 
L 1172 4494 
z
" transform="scale(0.015625)"/>
       <path id="DejaVuSans-5f" d="M 3263 -1063 
L 3263 -1509 
L -63 -1509 
L -63 -1063 
L 3263 -1063 
z
" transform="scale(0.015625)"/>
       <path id="DejaVuSans-43" d="M 4122 4306 
L 4122 3641 
Q 3803 3938 3442 4084 
Q 3081 4231 2675 4231 
Q 1875 4231 1450 3742 
Q 1025 3253 1025 2328 
Q 1025 1406 1450 917 
Q 1875 428 2675 428 
Q 3081 428 3442 575 
Q 3803 722 4122 1019 
L 4122 359 
Q 3791 134 3420 21 
Q 3050 -91 2638 -91 
Q 1578 -91 968 557 
Q 359 1206 359 2328 
Q 359 3453 968 4101 
Q 1578 4750 2638 4750 
Q 3056 4750 3426 4639 
Q 3797 4528 4122 4306 
z
" transform="scale(0.015625)"/>
       <path id="DejaVuSans-6f" d="M 1959 3097 
Q 1497 3097 1228 2736 
Q 959 2375 959 1747 
Q 959 1119 1226 758 
Q 1494 397 1959 397 
Q 2419 397 2687 759 
Q 2956 1122 2956 1747 
Q 2956 2369 2687 2733 
Q 2419 3097 1959 3097 
z
M 1959 3584 
Q 2709 3584 3137 3096 
Q 3566 2609 3566 1747 
Q 3566 888 3137 398 
Q 2709 -91 1959 -91 
Q 1206 -91 779 398 
Q 353 888 353 1747 
Q 353 2609 779 3096 
Q 1206 3584 1959 3584 
z
" transform="scale(0.015625)"/>
       <path id="DejaVuSans-75" d="M 544 1381 
L 544 3500 
L 1119 3500 
L 1119 1403 
Q 1119 906 1312 657 
Q 1506 409 1894 409 
Q 2359 409 2629 706 
Q 2900 1003 2900 1516 
L 2900 3500 
L 3475 3500 
L 3475 0 
L 2900 0 
L 2900 538 
Q 2691 219 2414 64 
Q 2138 -91 1772 -91 
Q 1169 -91 856 284 
Q 544 659 544 1381 
z
M 1991 3584 
L 1991 3584 
z
" transform="scale(0.015625)"/>
       <path id="DejaVuSans-6e" d="M 3513 2113 
L 3513 0 
L 2938 0 
L 2938 2094 
Q 2938 2591 2744 2837 
Q 2550 3084 2163 3084 
Q 1697 3084 1428 2787 
Q 1159 2491 1159 1978 
L 1159 0 
L 581 0 
L 581 3500 
L 1159 3500 
L 1159 2956 
Q 1366 3272 1645 3428 
Q 1925 3584 2291 3584 
Q 2894 3584 3203 3211 
Q 3513 2838 3513 2113 
z
" transform="scale(0.015625)"/>
      </defs>
      <use xlink:href="#DejaVuSans-50"/>
      <use xlink:href="#DejaVuSans-65" x="56.677734"/>
      <use xlink:href="#DejaVuSans-6c" x="118.201172"/>
      <use xlink:href="#DejaVuSans-6c" x="145.984375"/>
      <use xlink:href="#DejaVuSans-65" x="173.767578"/>
      <use xlink:href="#DejaVuSans-74" x="235.291016"/>
      <use xlink:href="#DejaVuSans-5f" x="274.5"/>
      <use xlink:href="#DejaVuSans-43" x="324.5"/>
      <use xlink:href="#DejaVuSans-6f" x="394.324219"/>
      <use xlink:href="#DejaVuSans-75" x="455.505859"/>
      <use xlink:href="#DejaVuSans-6e" x="518.884766"/>
      <use xlink:href="#DejaVuSans-74" x="582.263672"/>
     </g>
    </g>
   </g>
   <g id="line2d_19">
    <path d="M 99.962273 344.397187 
L 100.076717 344.397187 
L 106.85752 343.395863 
L 132.426201 343.395863 
L 132.988884 342.394538 
L 135.573409 342.394538 
L 135.907204 341.393214 
L 136.956274 341.393214 
L 137.023033 340.391889 
L 138.815988 340.391889 
L 138.911357 339.390565 
L 139.607558 339.390565 
L 139.683854 338.38924 
L 148.438815 338.38924 
L 148.476963 337.387916 
L 153.092868 337.387916 
L 153.102405 336.386591 
L 153.541107 336.386591 
L 153.560181 335.385267 
L 153.922587 335.385267 
L 153.960735 334.383942 
L 156.964888 334.383942 
L 156.983962 333.382618 
L 157.384515 333.382618 
L 157.403589 332.381293 
L 158.395437 332.381293 
L 158.414511 331.379969 
L 159.158396 331.379969 
L 159.17747 330.378644 
L 159.396821 330.378644 
L 159.415895 329.37732 
L 159.730616 329.37732 
L 159.740153 328.375995 
L 159.997652 328.375995 
L 160.007189 327.374671 
L 160.379132 327.374671 
L 160.445891 326.373346 
L 160.760611 326.373346 
L 160.779685 325.372022 
L 161.123017 325.372022 
L 161.151628 324.370697 
L 161.552182 324.370697 
L 161.561719 323.369373 
L 161.914588 323.369373 
L 161.933662 322.368048 
L 162.114865 322.368048 
L 162.133939 321.366724 
L 162.591714 321.366724 
L 162.601251 320.365399 
L 162.782454 320.365399 
L 162.791991 319.364075 
L 163.440507 319.364075 
L 163.450044 318.36275 
L 163.650321 318.36275 
L 163.688469 317.361426 
L 163.802913 317.361426 
L 163.821987 316.360101 
L 164.565872 316.360101 
L 164.60402 315.358777 
L 165.452813 315.358777 
L 165.46235 314.357452 
L 165.891514 314.357452 
L 166.015495 313.356128 
L 166.969195 313.356128 
L 166.997806 312.354803 
L 167.11225 312.354803 
L 167.150398 311.353479 
L 167.42697 311.353479 
L 167.446044 310.352154 
L 168.676317 310.352154 
L 168.685854 309.35083 
L 169.382054 309.35083 
L 169.391591 308.349505 
L 169.877978 308.349505 
L 169.887515 307.348181 
L 170.60279 307.348181 
L 170.612327 306.346856 
L 171.01288 306.346856 
L 171.031954 305.345532 
L 171.194083 305.345532 
L 171.20362 304.344207 
L 171.5851 304.344207 
L 171.594637 303.342883 
L 172.939353 303.342883 
L 172.958427 302.341558 
L 173.893053 302.341558 
L 173.912127 301.340234 
L 174.69416 301.340234 
L 174.703697 300.338909 
L 175.619249 300.338909 
L 175.64786 299.337585 
L 177.211927 299.337585 
L 177.221464 298.33626 
L 178.499421 298.33626 
L 178.623402 297.334936 
L 179.64386 297.334936 
L 179.662934 296.333611 
L 180.158858 296.333611 
L 180.168395 295.332287 
L 180.683393 295.332287 
L 180.902743 294.330962 
L 182.581254 294.330962 
L 182.600328 293.329638 
L 183.725694 293.329638 
L 183.735231 292.328313 
L 185.728463 292.328313 
L 185.738 291.326989 
L 186.653551 291.326989 
L 186.739384 289.32434 
L 188.56095 289.32434 
L 190.697237 288.323015 
L 196.600636 288.323015 
L 196.61971 287.321691 
L 198.946737 287.321691 
L 198.965811 286.320366 
L 199.299605 286.320366 
L 199.309142 285.319042 
L 199.833677 285.319042 
L 199.852751 284.317717 
L 200.911357 284.317717 
L 200.99719 283.316393 
L 206.051797 283.316393 
L 206.070871 282.315068 
L 206.271148 282.315068 
L 206.280685 281.313744 
L 206.604943 281.313744 
L 206.690776 280.312419 
L 207.415588 280.312419 
L 207.425125 279.311095 
L 207.673086 279.311095 
L 207.78753 278.30977 
L 207.911511 275.305797 
L 208.083177 275.305797 
L 208.121325 274.304472 
L 210.600944 274.304472 
L 210.620018 273.303148 
L 211.163626 273.303148 
L 211.173163 272.301823 
L 211.716772 272.301823 
L 211.726309 271.300499 
L 212.346214 271.300499 
L 212.355751 270.299174 
L 212.699082 270.299174 
L 212.708619 269.29785 
L 213.900744 269.29785 
L 213.919818 268.296525 
L 214.091484 268.296525 
L 214.110558 267.295201 
L 214.368056 267.295201 
L 214.396667 266.293876 
L 216.046567 266.293876 
L 216.065641 265.292552 
L 218.478501 265.292552 
L 218.497575 264.291227 
L 219.365441 264.291227 
L 219.374978 263.289903 
L 224.639399 263.289903 
L 224.648936 262.288578 
L 225.583562 262.288578 
L 225.593099 261.287254 
L 225.793376 261.287254 
L 225.81245 260.285929 
L 227.700774 260.285929 
L 227.710311 259.284605 
L 231.534646 259.284605 
L 231.544183 258.28328 
L 233.01288 258.28328 
L 233.022417 257.281956 
L 249.902897 257.281956 
L 249.921971 256.280631 
L 251.25715 256.280631 
L 251.943814 255.279307 
L 251.981962 254.277982 
L 258.171471 254.277982 
L 258.495729 253.276658 
L 258.762765 253.276658 
L 258.781839 252.275333 
L 259.563872 252.275333 
L 259.573409 251.274009 
L 271.294375 251.274009 
L 271.303912 250.272684 
L 280.678778 250.272684 
L 280.697852 249.27136 
L 282.509881 249.27136 
L 282.633862 248.270035 
L 282.881824 248.270035 
L 282.910435 247.268711 
L 284.245614 247.268711 
L 284.655705 246.267386 
L 293.982885 246.267386 
L 294.516957 245.266062 
L 294.869825 245.266062 
L 294.888899 244.264737 
L 297.263611 244.264737 
L 307.725694 243.263413 
L 307.735231 242.262088 
L 308.049952 242.262088 
L 308.069026 241.260764 
L 309.137169 241.260764 
L 309.432816 240.259439 
L 310.386515 240.259439 
L 310.396052 239.258115 
L 310.882439 239.258115 
L 311.321141 238.25679 
L 311.769379 238.25679 
L 314.926124 237.255466 
L 316.108712 237.255466 
L 316.118249 236.254141 
L 322.250536 236.254141 
L 322.603405 235.252817 
L 329.72754 235.252817 
L 329.775225 234.251492 
L 333.475578 234.251492 
L 333.504189 233.250168 
L 334.86798 233.250168 
L 334.877517 232.248843 
L 335.154089 232.248843 
L 335.211311 231.247519 
L 336.584639 231.247519 
L 336.746767 230.246194 
L 337.614634 230.246194 
L 337.624171 229.24487 
L 337.891207 229.24487 
L 338.453889 228.243545 
L 338.663703 228.243545 
L 338.682777 227.242221 
L 340.056104 227.242221 
L 340.676009 226.240896 
L 345.253766 226.240896 
L 345.330062 224.238247 
L 354.638169 224.238247 
L 366.130247 223.236923 
L 367.856443 223.236923 
L 367.86598 222.235598 
L 368.46681 222.235598 
L 368.476347 221.234274 
L 369.620787 221.234274 
L 369.649398 220.232949 
L 373.817064 220.232949 
L 373.836138 219.231625 
L 374.131785 219.231625 
L 374.150859 218.2303 
L 374.541876 218.2303 
L 374.599098 217.228976 
L 374.856597 217.228976 
L 374.875671 216.227651 
L 375.323909 216.227651 
L 375.342983 215.226327 
L 375.972425 215.226327 
L 375.981962 214.225002 
L 378.003805 214.225002 
L 381.112865 213.223678 
L 382.562488 213.223678 
L 382.762765 212.222353 
L 385.91951 212.222353 
L 385.929047 211.221029 
L 387.626632 211.221029 
L 387.645706 210.219704 
L 393.291607 210.219704 
L 393.310681 209.21838 
L 400.091484 209.21838 
L 400.110558 208.217055 
L 401.264534 208.217055 
L 401.283608 207.215731 
L 401.541107 207.215731 
L 401.579255 206.214406 
L 401.798606 206.214406 
L 401.81768 205.213082 
L 401.941661 205.213082 
L 401.960735 204.211757 
L 402.304066 204.211757 
L 402.828601 203.210433 
L 408.350521 203.210433 
L 408.369595 202.209108 
L 411.850598 202.209108 
L 411.879209 201.207784 
L 412.527724 201.207784 
L 412.546798 200.206459 
L 415.636784 200.206459 
L 415.655858 199.205135 
L 416.456966 199.205135 
L 416.466503 198.20381 
L 417.477424 198.20381 
L 417.496498 197.202486 
L 423.943506 197.202486 
L 423.953043 196.201161 
L 425.01165 196.201161 
L 425.021187 195.199837 
L 426.423125 195.199837 
L 426.442199 194.198512 
L 429.646629 194.198512 
L 429.694314 193.197187 
L 430.953197 193.197187 
L 430.962734 192.195863 
L 433.575871 192.195863 
L 433.594945 191.194538 
L 437.972425 191.194538 
L 438.010573 190.193214 
L 438.573256 190.193214 
L 438.649552 189.191889 
L 439.803528 189.191889 
L 440.175471 188.190565 
L 440.709542 188.190565 
L 440.719079 187.18924 
L 441.777686 187.18924 
L 442.979347 186.187916 
L 444.514803 186.187916 
L 451.762919 185.186591 
L 453.326986 184.185267 
L 454.938738 184.185267 
L 460.451121 183.183942 
L 460.460658 182.182618 
L 460.708619 182.182618 
L 460.784915 181.181293 
L 465.124248 181.181293 
L 467.785069 180.179969 
L 467.823217 179.178644 
L 470.846444 179.178644 
L 470.855981 178.17732 
L 472.086254 178.17732 
L 472.095791 177.175995 
L 482.529262 177.175995 
L 482.548336 176.174671 
L 482.720002 176.174671 
L 482.739076 175.173346 
L 483.158704 175.173346 
L 483.168241 174.172022 
L 483.606943 174.172022 
L 483.61648 173.170697 
L 483.80722 173.170697 
L 483.816757 172.169373 
L 484.036108 172.169373 
L 484.045645 171.168048 
L 484.284069 171.168048 
L 484.303143 170.166724 
L 486.429893 170.166724 
L 486.448967 169.165399 
L 486.906743 169.165399 
L 487.030724 168.164075 
L 491.808758 168.164075 
L 491.818295 167.16275 
L 493.458658 167.16275 
L 493.859212 166.161426 
L 534.696621 166.161426 
L 534.706158 165.160101 
L 535.030416 165.160101 
L 535.039953 164.158777 
L 535.268841 164.158777 
L 535.278378 163.157452 
L 535.459581 163.157452 
L 535.478655 162.156128 
L 535.764765 162.156128 
L 535.802913 161.154803 
L 542.173625 161.154803 
L 542.211773 160.153479 
L 542.450198 160.153479 
L 542.478809 159.152154 
L 741.668472 159.152154 
L 741.687546 158.15083 
L 742.030878 158.15083 
L 742.040415 157.149505 
L 742.269302 157.149505 
L 742.288376 156.148181 
L 742.488653 156.148181 
L 742.507727 155.146856 
L 742.746152 155.146856 
L 742.765226 154.145532 
L 743.718926 154.145532 
L 743.738 153.144207 
L 744.014572 153.144207 
L 744.100405 151.141558 
L 828.998729 151.141558 
L 829.008266 150.140234 
L 829.208543 150.140234 
L 829.21808 149.138909 
L 831.230385 149.138909 
L 831.239922 148.137585 
L 835.541107 148.137585 
L 835.550644 147.13626 
L 860.394514 147.13626 
L 860.404051 146.134936 
L 860.833216 146.134936 
L 860.85229 145.133611 
L 861.052567 145.133611 
L 861.109788 144.132287 
L 861.405435 144.132287 
L 861.424509 143.130962 
L 861.577101 143.130962 
L 861.605712 142.129638 
L 861.863211 142.129638 
L 861.872748 141.128313 
L 862.559412 141.128313 
L 862.568949 140.126989 
L 912.838446 140.126989 
L 912.847983 139.125664 
L 913.153166 139.125664 
L 913.162703 138.12434 
L 913.343906 138.12434 
L 913.353443 137.123015 
L 913.591868 137.123015 
L 913.601405 136.121691 
L 914.049644 136.121691 
L 914.059181 135.120366 
L 925.989961 135.120366 
L 925.999498 134.119042 
L 926.199775 134.119042 
L 926.218849 133.117717 
L 926.352367 133.117717 
L 926.361904 132.116393 
L 927.678009 132.116393 
L 927.840138 131.115068 
L 934.382516 131.115068 
L 934.40159 130.113744 
L 934.516034 130.113744 
L 934.535108 129.112419 
L 939.236846 129.112419 
L 939.246383 128.111095 
L 940.171471 128.111095 
L 940.181008 127.10977 
L 940.390822 127.10977 
L 940.400359 126.108446 
L 941.563872 126.108446 
L 941.573409 125.107121 
L 942.441276 125.107121 
L 942.46035 124.105797 
L 942.670164 124.105797 
L 942.679701 123.104472 
L 945.264226 123.104472 
L 945.273763 122.103148 
L 945.407281 122.103148 
L 945.426355 121.101823 
L 949.965964 121.101823 
L 949.975501 120.100499 
L 950.366518 120.100499 
L 950.385592 119.099174 
L 950.652628 119.099174 
L 950.662165 118.09785 
L 950.814757 118.09785 
L 950.833831 117.096525 
L 951.901974 117.096525 
L 952.149936 116.095201 
L 961.248229 116.095201 
L 961.267303 115.093876 
L 961.486654 115.093876 
L 961.505728 114.092552 
L 961.706004 114.092552 
L 961.763226 113.091227 
L 966.083485 113.091227 
L 966.093022 112.089903 
L 967.056258 112.089903 
L 967.084869 111.088578 
L 967.580793 111.088578 
L 967.599867 110.087254 
L 967.895514 110.087254 
L 967.905051 109.085929 
L 968.992268 109.085929 
L 969.001805 108.084605 
L 972.234846 108.084605 
L 972.292068 107.08328 
L 972.864288 107.08328 
L 972.883362 106.081956 
L 980.636938 106.081956 
L 980.646475 105.080631 
L 980.846752 105.080631 
L 980.961196 104.079307 
L 980.98027 103.077982 
L 981.523879 103.077982 
L 981.562027 102.076658 
L 983.145168 102.076658 
L 983.183316 101.075333 
L 983.354982 101.075333 
L 983.364519 100.074009 
L 984.051182 100.074009 
L 984.060719 99.072684 
L 985.04303 99.072684 
L 985.271917 98.07136 
L 987.837369 98.07136 
L 987.942276 96.068711 
L 988.113942 96.068711 
L 989.859212 95.067386 
L 992.357904 95.067386 
L 992.367441 94.066062 
L 992.91105 94.066062 
L 992.930124 93.064737 
L 993.263919 93.064737 
L 993.273456 92.063413 
L 994.017341 92.063413 
L 997.498344 91.062088 
L 1003.00119 91.062088 
L 1003.020264 90.060764 
L 1003.334985 90.060764 
L 1003.411281 88.058115 
L 1003.754612 88.058115 
L 1003.764149 87.05679 
L 1005.528493 87.05679 
L 1005.547567 86.055466 
L 1005.833677 86.055466 
L 1005.871825 85.054141 
L 1006.129324 85.054141 
L 1006.148398 84.052817 
L 1015.990576 84.052817 
L 1016.000113 83.051492 
L 1016.114557 83.051492 
L 1016.162242 82.050168 
L 1016.410204 82.050168 
L 1016.419741 81.048843 
L 1016.67724 81.048843 
L 1016.686777 80.047519 
L 1016.848906 80.047519 
L 1016.877517 79.046194 
L 1017.382977 79.046194 
L 1017.402051 78.04487 
L 1018.184085 78.04487 
L 1018.222233 77.043545 
L 1021.598329 77.043545 
L 1021.607866 76.042221 
L 1022.046567 76.042221 
L 1022.056104 75.040896 
L 1022.733231 75.040896 
L 1022.771379 74.039572 
L 1038.774455 74.039572 
L 1038.783992 73.038247 
L 1038.898436 73.038247 
L 1038.91751 72.036923 
L 1039.194083 72.036923 
L 1039.20362 71.035598 
L 1039.384823 71.035598 
L 1039.39436 70.034274 
L 1039.604174 70.034274 
L 1039.613711 69.032949 
L 1040.052413 69.032949 
L 1040.06195 68.031625 
L 1040.319449 68.031625 
L 1040.328986 67.0303 
L 1041.349444 67.0303 
L 1041.358981 66.028976 
L 1041.71185 66.028976 
L 1041.730924 65.027651 
L 1042.074255 65.027651 
L 1042.894437 64.026327 
L 1045.498036 64.026327 
L 1045.507573 63.025002 
L 1052.603097 63.025002 
L 1053.833369 62.023678 
L 1057.562334 62.023678 
L 1057.571871 61.022353 
L 1057.734 61.022353 
L 1057.743537 60.021029 
L 1058.40159 60.021029 
L 1058.420664 59.019704 
L 1060.061027 59.019704 
L 1060.070564 58.01838 
L 1067.871825 58.01838 
L 1067.909973 57.017055 
L 1069.903205 57.017055 
L 1069.912742 56.015731 
L 1076.102251 56.015731 
L 1076.111788 55.014406 
L 1076.340676 55.014406 
L 1076.350213 54.013082 
L 1076.674471 54.013082 
L 1076.712619 53.011757 
L 1077.179932 53.011757 
L 1077.456504 52.010433 
L 1077.72354 52.010433 
L 1077.733077 51.009108 
L 1078.667703 51.009108 
L 1078.67724 50.007784 
L 1079.430662 50.007784 
L 1080.947044 49.006459 
L 1081.624171 49.006459 
L 1081.633708 48.005135 
L 1083.016572 48.005135 
L 1083.026109 47.00381 
L 1083.264534 47.00381 
L 1083.293145 46.002486 
L 1089.263303 46.002486 
L 1089.291914 45.001161 
L 1090.026263 45.001161 
L 1090.0358 43.999837 
L 1090.331447 43.999837 
L 1090.340984 42.998512 
L 1091.361442 42.998512 
L 1091.370979 41.997187 
L 1091.370979 41.997187 
" clip-path="url(#pd70d40e416)" style="fill: none; stroke: #0000ff; stroke-width: 1.5; stroke-linecap: square"/>
   </g>
   <g id="patch_77">
    <path d="M 49.235 359.517187 
L 49.235 26.877187 
" style="fill: none; stroke: #000000; stroke-width: 0.8; stroke-linejoin: miter; stroke-linecap: square"/>
   </g>
   <g id="patch_78">
    <path d="M 1165.235 359.517187 
L 1165.235 26.877187 
" style="fill: none; stroke: #000000; stroke-width: 0.8; stroke-linejoin: miter; stroke-linecap: square"/>
   </g>
   <g id="patch_79">
    <path d="M 49.235 359.517187 
L 1165.235 359.517187 
" style="fill: none; stroke: #000000; stroke-width: 0.8; stroke-linejoin: miter; stroke-linecap: square"/>
   </g>
   <g id="patch_80">
    <path d="M 49.235 26.877187 
L 1165.235 26.877187 
" style="fill: none; stroke: #000000; stroke-width: 0.8; stroke-linejoin: miter; stroke-linecap: square"/>
   </g>
   <g id="text_21">
    <!-- Pellet Count and Cumulative Sum Over Time of Group cask Mouse M3 -->
    <g transform="translate(293.057656 20.877187) scale(0.18 -0.18)">
     <defs>
      <path id="DejaVuSans-61" d="M 2194 1759 
Q 1497 1759 1228 1600 
Q 959 1441 959 1056 
Q 959 750 1161 570 
Q 1363 391 1709 391 
Q 2188 391 2477 730 
Q 2766 1069 2766 1631 
L 2766 1759 
L 2194 1759 
z
M 3341 1997 
L 3341 0 
L 2766 0 
L 2766 531 
Q 2569 213 2275 61 
Q 1981 -91 1556 -91 
Q 1019 -91 701 211 
Q 384 513 384 1019 
Q 384 1609 779 1909 
Q 1175 2209 1959 2209 
L 2766 2209 
L 2766 2266 
Q 2766 2663 2505 2880 
Q 2244 3097 1772 3097 
Q 1472 3097 1187 3025 
Q 903 2953 641 2809 
L 641 3341 
Q 956 3463 1253 3523 
Q 1550 3584 1831 3584 
Q 2591 3584 2966 3190 
Q 3341 2797 3341 1997 
z
" transform="scale(0.015625)"/>
      <path id="DejaVuSans-64" d="M 2906 2969 
L 2906 4863 
L 3481 4863 
L 3481 0 
L 2906 0 
L 2906 525 
Q 2725 213 2448 61 
Q 2172 -91 1784 -91 
Q 1150 -91 751 415 
Q 353 922 353 1747 
Q 353 2572 751 3078 
Q 1150 3584 1784 3584 
Q 2172 3584 2448 3432 
Q 2725 3281 2906 2969 
z
M 947 1747 
Q 947 1113 1208 752 
Q 1469 391 1925 391 
Q 2381 391 2643 752 
Q 2906 1113 2906 1747 
Q 2906 2381 2643 2742 
Q 2381 3103 1925 3103 
Q 1469 3103 1208 2742 
Q 947 2381 947 1747 
z
" transform="scale(0.015625)"/>
      <path id="DejaVuSans-76" d="M 191 3500 
L 800 3500 
L 1894 563 
L 2988 3500 
L 3597 3500 
L 2284 0 
L 1503 0 
L 191 3500 
z
" transform="scale(0.015625)"/>
      <path id="DejaVuSans-53" d="M 3425 4513 
L 3425 3897 
Q 3066 4069 2747 4153 
Q 2428 4238 2131 4238 
Q 1616 4238 1336 4038 
Q 1056 3838 1056 3469 
Q 1056 3159 1242 3001 
Q 1428 2844 1947 2747 
L 2328 2669 
Q 3034 2534 3370 2195 
Q 3706 1856 3706 1288 
Q 3706 609 3251 259 
Q 2797 -91 1919 -91 
Q 1588 -91 1214 -16 
Q 841 59 441 206 
L 441 856 
Q 825 641 1194 531 
Q 1563 422 1919 422 
Q 2459 422 2753 634 
Q 3047 847 3047 1241 
Q 3047 1584 2836 1778 
Q 2625 1972 2144 2069 
L 1759 2144 
Q 1053 2284 737 2584 
Q 422 2884 422 3419 
Q 422 4038 858 4394 
Q 1294 4750 2059 4750 
Q 2388 4750 2728 4690 
Q 3069 4631 3425 4513 
z
" transform="scale(0.015625)"/>
      <path id="DejaVuSans-4f" d="M 2522 4238 
Q 1834 4238 1429 3725 
Q 1025 3213 1025 2328 
Q 1025 1447 1429 934 
Q 1834 422 2522 422 
Q 3209 422 3611 934 
Q 4013 1447 4013 2328 
Q 4013 3213 3611 3725 
Q 3209 4238 2522 4238 
z
M 2522 4750 
Q 3503 4750 4090 4092 
Q 4678 3434 4678 2328 
Q 4678 1225 4090 567 
Q 3503 -91 2522 -91 
Q 1538 -91 948 565 
Q 359 1222 359 2328 
Q 359 3434 948 4092 
Q 1538 4750 2522 4750 
z
" transform="scale(0.015625)"/>
      <path id="DejaVuSans-72" d="M 2631 2963 
Q 2534 3019 2420 3045 
Q 2306 3072 2169 3072 
Q 1681 3072 1420 2755 
Q 1159 2438 1159 1844 
L 1159 0 
L 581 0 
L 581 3500 
L 1159 3500 
L 1159 2956 
Q 1341 3275 1631 3429 
Q 1922 3584 2338 3584 
Q 2397 3584 2469 3576 
Q 2541 3569 2628 3553 
L 2631 2963 
z
" transform="scale(0.015625)"/>
      <path id="DejaVuSans-66" d="M 2375 4863 
L 2375 4384 
L 1825 4384 
Q 1516 4384 1395 4259 
Q 1275 4134 1275 3809 
L 1275 3500 
L 2222 3500 
L 2222 3053 
L 1275 3053 
L 1275 0 
L 697 0 
L 697 3053 
L 147 3053 
L 147 3500 
L 697 3500 
L 697 3744 
Q 697 4328 969 4595 
Q 1241 4863 1831 4863 
L 2375 4863 
z
" transform="scale(0.015625)"/>
      <path id="DejaVuSans-47" d="M 3809 666 
L 3809 1919 
L 2778 1919 
L 2778 2438 
L 4434 2438 
L 4434 434 
Q 4069 175 3628 42 
Q 3188 -91 2688 -91 
Q 1594 -91 976 548 
Q 359 1188 359 2328 
Q 359 3472 976 4111 
Q 1594 4750 2688 4750 
Q 3144 4750 3555 4637 
Q 3966 4525 4313 4306 
L 4313 3634 
Q 3963 3931 3569 4081 
Q 3175 4231 2741 4231 
Q 1884 4231 1454 3753 
Q 1025 3275 1025 2328 
Q 1025 1384 1454 906 
Q 1884 428 2741 428 
Q 3075 428 3337 486 
Q 3600 544 3809 666 
z
" transform="scale(0.015625)"/>
      <path id="DejaVuSans-70" d="M 1159 525 
L 1159 -1331 
L 581 -1331 
L 581 3500 
L 1159 3500 
L 1159 2969 
Q 1341 3281 1617 3432 
Q 1894 3584 2278 3584 
Q 2916 3584 3314 3078 
Q 3713 2572 3713 1747 
Q 3713 922 3314 415 
Q 2916 -91 2278 -91 
Q 1894 -91 1617 61 
Q 1341 213 1159 525 
z
M 3116 1747 
Q 3116 2381 2855 2742 
Q 2594 3103 2138 3103 
Q 1681 3103 1420 2742 
Q 1159 2381 1159 1747 
Q 1159 1113 1420 752 
Q 1681 391 2138 391 
Q 2594 391 2855 752 
Q 3116 1113 3116 1747 
z
" transform="scale(0.015625)"/>
      <path id="DejaVuSans-63" d="M 3122 3366 
L 3122 2828 
Q 2878 2963 2633 3030 
Q 2388 3097 2138 3097 
Q 1578 3097 1268 2742 
Q 959 2388 959 1747 
Q 959 1106 1268 751 
Q 1578 397 2138 397 
Q 2388 397 2633 464 
Q 2878 531 3122 666 
L 3122 134 
Q 2881 22 2623 -34 
Q 2366 -91 2075 -91 
Q 1284 -91 818 406 
Q 353 903 353 1747 
Q 353 2603 823 3093 
Q 1294 3584 2113 3584 
Q 2378 3584 2631 3529 
Q 2884 3475 3122 3366 
z
" transform="scale(0.015625)"/>
      <path id="DejaVuSans-73" d="M 2834 3397 
L 2834 2853 
Q 2591 2978 2328 3040 
Q 2066 3103 1784 3103 
Q 1356 3103 1142 2972 
Q 928 2841 928 2578 
Q 928 2378 1081 2264 
Q 1234 2150 1697 2047 
L 1894 2003 
Q 2506 1872 2764 1633 
Q 3022 1394 3022 966 
Q 3022 478 2636 193 
Q 2250 -91 1575 -91 
Q 1294 -91 989 -36 
Q 684 19 347 128 
L 347 722 
Q 666 556 975 473 
Q 1284 391 1588 391 
Q 1994 391 2212 530 
Q 2431 669 2431 922 
Q 2431 1156 2273 1281 
Q 2116 1406 1581 1522 
L 1381 1569 
Q 847 1681 609 1914 
Q 372 2147 372 2553 
Q 372 3047 722 3315 
Q 1072 3584 1716 3584 
Q 2034 3584 2315 3537 
Q 2597 3491 2834 3397 
z
" transform="scale(0.015625)"/>
      <path id="DejaVuSans-6b" d="M 581 4863 
L 1159 4863 
L 1159 1991 
L 2875 3500 
L 3609 3500 
L 1753 1863 
L 3688 0 
L 2938 0 
L 1159 1709 
L 1159 0 
L 581 0 
L 581 4863 
z
" transform="scale(0.015625)"/>
      <path id="DejaVuSans-4d" d="M 628 4666 
L 1569 4666 
L 2759 1491 
L 3956 4666 
L 4897 4666 
L 4897 0 
L 4281 0 
L 4281 4097 
L 3078 897 
L 2444 897 
L 1241 4097 
L 1241 0 
L 628 0 
L 628 4666 
z
" transform="scale(0.015625)"/>
     </defs>
     <use xlink:href="#DejaVuSans-50"/>
     <use xlink:href="#DejaVuSans-65" x="56.677734"/>
     <use xlink:href="#DejaVuSans-6c" x="118.201172"/>
     <use xlink:href="#DejaVuSans-6c" x="145.984375"/>
     <use xlink:href="#DejaVuSans-65" x="173.767578"/>
     <use xlink:href="#DejaVuSans-74" x="235.291016"/>
     <use xlink:href="#DejaVuSans-20" x="274.5"/>
     <use xlink:href="#DejaVuSans-43" x="306.287109"/>
     <use xlink:href="#DejaVuSans-6f" x="376.111328"/>
     <use xlink:href="#DejaVuSans-75" x="437.292969"/>
     <use xlink:href="#DejaVuSans-6e" x="500.671875"/>
     <use xlink:href="#DejaVuSans-74" x="564.050781"/>
     <use xlink:href="#DejaVuSans-20" x="603.259766"/>
     <use xlink:href="#DejaVuSans-61" x="635.046875"/>
     <use xlink:href="#DejaVuSans-6e" x="696.326172"/>
     <use xlink:href="#DejaVuSans-64" x="759.705078"/>
     <use xlink:href="#DejaVuSans-20" x="823.181641"/>
     <use xlink:href="#DejaVuSans-43" x="854.96875"/>
     <use xlink:href="#DejaVuSans-75" x="924.792969"/>
     <use xlink:href="#DejaVuSans-6d" x="988.171875"/>
     <use xlink:href="#DejaVuSans-75" x="1085.583984"/>
     <use xlink:href="#DejaVuSans-6c" x="1148.962891"/>
     <use xlink:href="#DejaVuSans-61" x="1176.746094"/>
     <use xlink:href="#DejaVuSans-74" x="1238.025391"/>
     <use xlink:href="#DejaVuSans-69" x="1277.234375"/>
     <use xlink:href="#DejaVuSans-76" x="1305.017578"/>
     <use xlink:href="#DejaVuSans-65" x="1364.197266"/>
     <use xlink:href="#DejaVuSans-20" x="1425.720703"/>
     <use xlink:href="#DejaVuSans-53" x="1457.507812"/>
     <use xlink:href="#DejaVuSans-75" x="1520.984375"/>
     <use xlink:href="#DejaVuSans-6d" x="1584.363281"/>
     <use xlink:href="#DejaVuSans-20" x="1681.775391"/>
     <use xlink:href="#DejaVuSans-4f" x="1713.5625"/>
     <use xlink:href="#DejaVuSans-76" x="1792.273438"/>
     <use xlink:href="#DejaVuSans-65" x="1851.453125"/>
     <use xlink:href="#DejaVuSans-72" x="1912.976562"/>
     <use xlink:href="#DejaVuSans-20" x="1954.089844"/>
     <use xlink:href="#DejaVuSans-54" x="1985.876953"/>
     <use xlink:href="#DejaVuSans-69" x="2043.835938"/>
     <use xlink:href="#DejaVuSans-6d" x="2071.619141"/>
     <use xlink:href="#DejaVuSans-65" x="2169.03125"/>
     <use xlink:href="#DejaVuSans-20" x="2230.554688"/>
     <use xlink:href="#DejaVuSans-6f" x="2262.341797"/>
     <use xlink:href="#DejaVuSans-66" x="2323.523438"/>
     <use xlink:href="#DejaVuSans-20" x="2358.728516"/>
     <use xlink:href="#DejaVuSans-47" x="2390.515625"/>
     <use xlink:href="#DejaVuSans-72" x="2468.005859"/>
     <use xlink:href="#DejaVuSans-6f" x="2506.869141"/>
     <use xlink:href="#DejaVuSans-75" x="2568.050781"/>
     <use xlink:href="#DejaVuSans-70" x="2631.429688"/>
     <use xlink:href="#DejaVuSans-20" x="2694.90625"/>
     <use xlink:href="#DejaVuSans-63" x="2726.693359"/>
     <use xlink:href="#DejaVuSans-61" x="2781.673828"/>
     <use xlink:href="#DejaVuSans-73" x="2842.953125"/>
     <use xlink:href="#DejaVuSans-6b" x="2895.052734"/>
     <use xlink:href="#DejaVuSans-20" x="2952.962891"/>
     <use xlink:href="#DejaVuSans-4d" x="2984.75"/>
     <use xlink:href="#DejaVuSans-6f" x="3071.029297"/>
     <use xlink:href="#DejaVuSans-75" x="3132.210938"/>
     <use xlink:href="#DejaVuSans-73" x="3195.589844"/>
     <use xlink:href="#DejaVuSans-65" x="3247.689453"/>
     <use xlink:href="#DejaVuSans-20" x="3309.212891"/>
     <use xlink:href="#DejaVuSans-4d" x="3341"/>
     <use xlink:href="#DejaVuSans-33" x="3427.279297"/>
    </g>
   </g>
   <g id="legend_1">
    <g id="patch_81">
     <path d="M 1086.550625 64.233437 
L 1158.235 64.233437 
Q 1160.235 64.233437 1160.235 62.233437 
L 1160.235 33.877187 
Q 1160.235 31.877187 1158.235 31.877187 
L 1086.550625 31.877187 
Q 1084.550625 31.877187 1084.550625 33.877187 
L 1084.550625 62.233437 
Q 1084.550625 64.233437 1086.550625 64.233437 
z
" style="fill: #ffffff; opacity: 0.8; stroke: #cccccc; stroke-linejoin: miter"/>
    </g>
    <g id="patch_82">
     <path d="M 1088.550625 43.475625 
L 1108.550625 43.475625 
L 1108.550625 36.475625 
L 1088.550625 36.475625 
z
" style="fill: #add8e6; opacity: 0.9; stroke: #add8e6; stroke-linejoin: miter"/>
    </g>
    <g id="text_22">
     <!-- Meal -->
     <g transform="translate(1116.550625 43.475625) scale(0.1 -0.1)">
      <use xlink:href="#DejaVuSans-4d"/>
      <use xlink:href="#DejaVuSans-65" x="86.279297"/>
      <use xlink:href="#DejaVuSans-61" x="147.802734"/>
      <use xlink:href="#DejaVuSans-6c" x="209.082031"/>
     </g>
    </g>
    <g id="patch_83">
     <path d="M 1088.550625 58.15375 
L 1108.550625 58.15375 
L 1108.550625 51.15375 
L 1088.550625 51.15375 
z
" style="fill: #808080; opacity: 0.5; stroke: #808080; stroke-linejoin: miter"/>
    </g>
    <g id="text_23">
     <!-- Inactive -->
     <g transform="translate(1116.550625 58.15375) scale(0.1 -0.1)">
      <defs>
       <path id="DejaVuSans-49" d="M 628 4666 
L 1259 4666 
L 1259 0 
L 628 0 
L 628 4666 
z
" transform="scale(0.015625)"/>
      </defs>
      <use xlink:href="#DejaVuSans-49"/>
      <use xlink:href="#DejaVuSans-6e" x="29.492188"/>
      <use xlink:href="#DejaVuSans-61" x="92.871094"/>
      <use xlink:href="#DejaVuSans-63" x="154.150391"/>
      <use xlink:href="#DejaVuSans-74" x="209.130859"/>
      <use xlink:href="#DejaVuSans-69" x="248.339844"/>
      <use xlink:href="#DejaVuSans-76" x="276.123047"/>
      <use xlink:href="#DejaVuSans-65" x="335.302734"/>
     </g>
    </g>
   </g>
  </g>
 </g>
 <defs>
  <clipPath id="pd70d40e416">
   <rect x="49.235" y="26.877187" width="1116" height="332.64"/>
  </clipPath>
 </defs>
</svg>
