<?xml version="1.0" encoding="utf-8" standalone="no"?>
<!DOCTYPE svg PUBLIC "-//W3C//DTD SVG 1.1//EN"
  "http://www.w3.org/Graphics/SVG/1.1/DTD/svg11.dtd">
<svg xmlns:xlink="http://www.w3.org/1999/xlink" width="1172.435pt" height="399.009062pt" viewBox="0 0 1172.435 399.009062" xmlns="http://www.w3.org/2000/svg" version="1.1">
 <metadata>
  <rdf:RDF xmlns:dc="http://purl.org/dc/elements/1.1/" xmlns:cc="http://creativecommons.org/ns#" xmlns:rdf="http://www.w3.org/1999/02/22-rdf-syntax-ns#">
   <cc:Work>
    <dc:type rdf:resource="http://purl.org/dc/dcmitype/StillImage"/>
    <dc:date>2025-10-02T16:54:47.553781</dc:date>
    <dc:format>image/svg+xml</dc:format>
    <dc:creator>
     <cc:Agent>
      <dc:title>Matplotlib v3.8.4, https://matplotlib.org/</dc:title>
     </cc:Agent>
    </dc:creator>
   </cc:Work>
  </rdf:RDF>
 </metadata>
 <defs>
  <style type="text/css">*{stroke-linejoin: round; stroke-linecap: butt}</style>
 </defs>
 <g id="figure_1">
  <g id="patch_1">
   <path d="M 0 399.009062 
L 1172.435 399.009062 
L 1172.435 0 
L 0 0 
z
" style="fill: #ffffff"/>
  </g>
  <g id="axes_1">
   <g id="patch_2">
    <path d="M 49.235 359.517187 
L 1165.235 359.517187 
L 1165.235 26.877187 
L 49.235 26.877187 
z
" style="fill: #ffffff"/>
   </g>
   <g id="patch_3">
    <path d="M 164.048573 359.517187 
L 164.048573 26.877187 
L 145.726701 26.877187 
L 145.726701 359.517187 
z
" clip-path="url(#p11378b3d6c)" style="fill: #add8e6; stroke: #add8e6; stroke-linejoin: miter"/>
   </g>
   <g id="patch_4">
    <path d="M 156.664681 359.517187 
L 156.664681 26.877187 
L 153.821008 26.877187 
L 153.821008 359.517187 
z
" clip-path="url(#p11378b3d6c)" style="fill: #add8e6; stroke: #add8e6; stroke-linejoin: miter"/>
   </g>
   <g id="patch_5">
    <path d="M 154.952037 359.517187 
L 154.952037 26.877187 
L 143.698093 26.877187 
L 143.698093 359.517187 
z
" clip-path="url(#p11378b3d6c)" style="fill: #add8e6; stroke: #add8e6; stroke-linejoin: miter"/>
   </g>
   <g id="patch_6">
    <path d="M 156.831719 359.517187 
L 156.831719 26.877187 
L 146.088953 26.877187 
L 146.088953 359.517187 
z
" clip-path="url(#p11378b3d6c)" style="fill: #add8e6; stroke: #add8e6; stroke-linejoin: miter"/>
   </g>
   <g id="patch_7">
    <path d="M 163.631983 359.517187 
L 163.631983 26.877187 
L 150.214594 26.877187 
L 150.214594 359.517187 
z
" clip-path="url(#p11378b3d6c)" style="fill: #add8e6; stroke: #add8e6; stroke-linejoin: miter"/>
   </g>
   <g id="patch_8">
    <path d="M 152.943554 359.517187 
L 152.943554 26.877187 
L 153.062292 26.877187 
L 153.062292 359.517187 
z
" clip-path="url(#p11378b3d6c)" style="fill: #add8e6; stroke: #add8e6; stroke-linejoin: miter"/>
   </g>
   <g id="patch_9">
    <path d="M 158.109662 359.517187 
L 158.109662 26.877187 
L 155.503464 26.877187 
L 155.503464 359.517187 
z
" clip-path="url(#p11378b3d6c)" style="fill: #add8e6; stroke: #add8e6; stroke-linejoin: miter"/>
   </g>
   <g id="patch_10">
    <path d="M 171.02795 359.517187 
L 171.02795 26.877187 
L 161.168674 26.877187 
L 161.168674 359.517187 
z
" clip-path="url(#p11378b3d6c)" style="fill: #add8e6; stroke: #add8e6; stroke-linejoin: miter"/>
   </g>
   <g id="patch_11">
    <path d="M 189.907286 359.517187 
L 189.907286 26.877187 
L 189.571197 26.877187 
L 189.571197 359.517187 
z
" clip-path="url(#p11378b3d6c)" style="fill: #add8e6; stroke: #add8e6; stroke-linejoin: miter"/>
   </g>
   <g id="patch_12">
    <path d="M 197.265014 359.517187 
L 197.265014 26.877187 
L 190.661976 26.877187 
L 190.661976 359.517187 
z
" clip-path="url(#p11378b3d6c)" style="fill: #add8e6; stroke: #add8e6; stroke-linejoin: miter"/>
   </g>
   <g id="patch_13">
    <path d="M 197.178477 359.517187 
L 197.178477 26.877187 
L 197.45419 26.877187 
L 197.45419 359.517187 
z
" clip-path="url(#p11378b3d6c)" style="fill: #add8e6; stroke: #add8e6; stroke-linejoin: miter"/>
   </g>
   <g id="patch_14">
    <path d="M 205.451896 359.517187 
L 205.451896 26.877187 
L 199.762537 26.877187 
L 199.762537 359.517187 
z
" clip-path="url(#p11378b3d6c)" style="fill: #add8e6; stroke: #add8e6; stroke-linejoin: miter"/>
   </g>
   <g id="patch_15">
    <path d="M 211.660483 359.517187 
L 211.660483 26.877187 
L 208.221107 26.877187 
L 208.221107 359.517187 
z
" clip-path="url(#p11378b3d6c)" style="fill: #add8e6; stroke: #add8e6; stroke-linejoin: miter"/>
   </g>
   <g id="patch_16">
    <path d="M 222.566263 359.517187 
L 222.566263 26.877187 
L 217.265317 26.877187 
L 217.265317 359.517187 
z
" clip-path="url(#p11378b3d6c)" style="fill: #add8e6; stroke: #add8e6; stroke-linejoin: miter"/>
   </g>
   <g id="patch_17">
    <path d="M 239.225803 359.517187 
L 239.225803 26.877187 
L 222.908389 26.877187 
L 222.908389 359.517187 
z
" clip-path="url(#p11378b3d6c)" style="fill: #add8e6; stroke: #add8e6; stroke-linejoin: miter"/>
   </g>
   <g id="patch_18">
    <path d="M 225.721875 359.517187 
L 225.721875 26.877187 
L 225.065798 26.877187 
L 225.065798 359.517187 
z
" clip-path="url(#p11378b3d6c)" style="fill: #add8e6; stroke: #add8e6; stroke-linejoin: miter"/>
   </g>
   <g id="patch_19">
    <path d="M 259.733258 359.517187 
L 259.733258 26.877187 
L 237.422596 26.877187 
L 237.422596 359.517187 
z
" clip-path="url(#p11378b3d6c)" style="fill: #add8e6; stroke: #add8e6; stroke-linejoin: miter"/>
   </g>
   <g id="patch_20">
    <path d="M 243.66942 359.517187 
L 243.66942 26.877187 
L 242.389465 26.877187 
L 242.389465 359.517187 
z
" clip-path="url(#p11378b3d6c)" style="fill: #add8e6; stroke: #add8e6; stroke-linejoin: miter"/>
   </g>
   <g id="patch_21">
    <path d="M 244.955413 359.517187 
L 244.955413 26.877187 
L 244.17456 26.877187 
L 244.17456 359.517187 
z
" clip-path="url(#p11378b3d6c)" style="fill: #add8e6; stroke: #add8e6; stroke-linejoin: miter"/>
   </g>
   <g id="patch_22">
    <path d="M 277.956517 359.517187 
L 277.956517 26.877187 
L 253.832585 26.877187 
L 253.832585 359.517187 
z
" clip-path="url(#p11378b3d6c)" style="fill: #add8e6; stroke: #add8e6; stroke-linejoin: miter"/>
   </g>
   <g id="patch_23">
    <path d="M 288.129744 359.517187 
L 288.129744 26.877187 
L 260.008972 26.877187 
L 260.008972 359.517187 
z
" clip-path="url(#p11378b3d6c)" style="fill: #add8e6; stroke: #add8e6; stroke-linejoin: miter"/>
   </g>
   <g id="patch_24">
    <path d="M 267.783289 359.517187 
L 267.783289 26.877187 
L 267.910077 26.877187 
L 267.910077 359.517187 
z
" clip-path="url(#p11378b3d6c)" style="fill: #add8e6; stroke: #add8e6; stroke-linejoin: miter"/>
   </g>
   <g id="patch_25">
    <path d="M 272.647521 359.517187 
L 272.647521 26.877187 
L 272.410045 26.877187 
L 272.410045 359.517187 
z
" clip-path="url(#p11378b3d6c)" style="fill: #add8e6; stroke: #add8e6; stroke-linejoin: miter"/>
   </g>
   <g id="patch_26">
    <path d="M 286.928276 359.517187 
L 286.928276 26.877187 
L 282.070083 26.877187 
L 282.070083 359.517187 
z
" clip-path="url(#p11378b3d6c)" style="fill: #add8e6; stroke: #add8e6; stroke-linejoin: miter"/>
   </g>
   <g id="patch_27">
    <path d="M 298.288883 359.517187 
L 298.288883 26.877187 
L 282.538997 26.877187 
L 282.538997 359.517187 
z
" clip-path="url(#p11378b3d6c)" style="fill: #add8e6; stroke: #add8e6; stroke-linejoin: miter"/>
   </g>
   <g id="patch_28">
    <path d="M 295.642435 359.517187 
L 295.642435 26.877187 
L 296.425301 26.877187 
L 296.425301 359.517187 
z
" clip-path="url(#p11378b3d6c)" style="fill: #add8e6; stroke: #add8e6; stroke-linejoin: miter"/>
   </g>
   <g id="patch_29">
    <path d="M 346.331471 359.517187 
L 346.331471 26.877187 
L 321.708437 26.877187 
L 321.708437 359.517187 
z
" clip-path="url(#p11378b3d6c)" style="fill: #add8e6; stroke: #add8e6; stroke-linejoin: miter"/>
   </g>
   <g id="patch_30">
    <path d="M 331.044461 359.517187 
L 331.044461 26.877187 
L 329.621618 26.877187 
L 329.621618 359.517187 
z
" clip-path="url(#p11378b3d6c)" style="fill: #add8e6; stroke: #add8e6; stroke-linejoin: miter"/>
   </g>
   <g id="patch_31">
    <path d="M 336.373582 359.517187 
L 336.373582 26.877187 
L 337.220848 26.877187 
L 337.220848 359.517187 
z
" clip-path="url(#p11378b3d6c)" style="fill: #add8e6; stroke: #add8e6; stroke-linejoin: miter"/>
   </g>
   <g id="patch_32">
    <path d="M 338.162701 359.517187 
L 338.162701 26.877187 
L 337.621337 26.877187 
L 337.621337 359.517187 
z
" clip-path="url(#p11378b3d6c)" style="fill: #add8e6; stroke: #add8e6; stroke-linejoin: miter"/>
   </g>
   <g id="patch_33">
    <path d="M 349.229482 359.517187 
L 349.229482 26.877187 
L 349.678271 26.877187 
L 349.678271 359.517187 
z
" clip-path="url(#p11378b3d6c)" style="fill: #add8e6; stroke: #add8e6; stroke-linejoin: miter"/>
   </g>
   <g id="patch_34">
    <path d="M 391.924836 359.517187 
L 391.924836 26.877187 
L 364.236753 26.877187 
L 364.236753 359.517187 
z
" clip-path="url(#p11378b3d6c)" style="fill: #add8e6; stroke: #add8e6; stroke-linejoin: miter"/>
   </g>
   <g id="patch_35">
    <path d="M 364.995468 359.517187 
L 364.995468 26.877187 
L 365.005531 26.877187 
L 365.005531 359.517187 
z
" clip-path="url(#p11378b3d6c)" style="fill: #add8e6; stroke: #add8e6; stroke-linejoin: miter"/>
   </g>
   <g id="patch_36">
    <path d="M 381.409482 359.517187 
L 381.409482 26.877187 
L 376.118599 26.877187 
L 376.118599 359.517187 
z
" clip-path="url(#p11378b3d6c)" style="fill: #add8e6; stroke: #add8e6; stroke-linejoin: miter"/>
   </g>
   <g id="patch_37">
    <path d="M 377.024228 359.517187 
L 377.024228 26.877187 
L 377.53943 26.877187 
L 377.53943 359.517187 
z
" clip-path="url(#p11378b3d6c)" style="fill: #add8e6; stroke: #add8e6; stroke-linejoin: miter"/>
   </g>
   <g id="patch_38">
    <path d="M 387.78712 359.517187 
L 387.78712 26.877187 
L 388.368734 26.877187 
L 388.368734 359.517187 
z
" clip-path="url(#p11378b3d6c)" style="fill: #add8e6; stroke: #add8e6; stroke-linejoin: miter"/>
   </g>
   <g id="patch_39">
    <path d="M 408.383125 359.517187 
L 408.383125 26.877187 
L 408.214074 26.877187 
L 408.214074 359.517187 
z
" clip-path="url(#p11378b3d6c)" style="fill: #add8e6; stroke: #add8e6; stroke-linejoin: miter"/>
   </g>
   <g id="patch_40">
    <path d="M 408.928515 359.517187 
L 408.928515 26.877187 
L 409.08549 26.877187 
L 409.08549 359.517187 
z
" clip-path="url(#p11378b3d6c)" style="fill: #add8e6; stroke: #add8e6; stroke-linejoin: miter"/>
   </g>
   <g id="patch_41">
    <path d="M 418.220263 359.517187 
L 418.220263 26.877187 
L 417.387085 26.877187 
L 417.387085 359.517187 
z
" clip-path="url(#p11378b3d6c)" style="fill: #add8e6; stroke: #add8e6; stroke-linejoin: miter"/>
   </g>
   <g id="patch_42">
    <path d="M 422.283517 359.517187 
L 422.283517 26.877187 
L 422.738343 26.877187 
L 422.738343 359.517187 
z
" clip-path="url(#p11378b3d6c)" style="fill: #add8e6; stroke: #add8e6; stroke-linejoin: miter"/>
   </g>
   <g id="patch_43">
    <path d="M 428.105702 359.517187 
L 428.105702 26.877187 
L 428.26469 26.877187 
L 428.26469 359.517187 
z
" clip-path="url(#p11378b3d6c)" style="fill: #add8e6; stroke: #add8e6; stroke-linejoin: miter"/>
   </g>
   <g id="patch_44">
    <path d="M 463.308489 359.517187 
L 463.308489 26.877187 
L 438.429867 26.877187 
L 438.429867 359.517187 
z
" clip-path="url(#p11378b3d6c)" style="fill: #add8e6; stroke: #add8e6; stroke-linejoin: miter"/>
   </g>
   <g id="patch_45">
    <path d="M 470.784956 359.517187 
L 470.784956 26.877187 
L 442.539408 26.877187 
L 442.539408 359.517187 
z
" clip-path="url(#p11378b3d6c)" style="fill: #add8e6; stroke: #add8e6; stroke-linejoin: miter"/>
   </g>
   <g id="patch_46">
    <path d="M 447.176226 359.517187 
L 447.176226 26.877187 
L 447.152076 26.877187 
L 447.152076 359.517187 
z
" clip-path="url(#p11378b3d6c)" style="fill: #add8e6; stroke: #add8e6; stroke-linejoin: miter"/>
   </g>
   <g id="patch_47">
    <path d="M 453.567951 359.517187 
L 453.567951 26.877187 
L 448.26298 26.877187 
L 448.26298 359.517187 
z
" clip-path="url(#p11378b3d6c)" style="fill: #add8e6; stroke: #add8e6; stroke-linejoin: miter"/>
   </g>
   <g id="patch_48">
    <path d="M 491.493661 359.517187 
L 491.493661 26.877187 
L 469.160862 26.877187 
L 469.160862 359.517187 
z
" clip-path="url(#p11378b3d6c)" style="fill: #add8e6; stroke: #add8e6; stroke-linejoin: miter"/>
   </g>
   <g id="patch_49">
    <path d="M 471.376633 359.517187 
L 471.376633 26.877187 
L 470.257679 26.877187 
L 470.257679 359.517187 
z
" clip-path="url(#p11378b3d6c)" style="fill: #add8e6; stroke: #add8e6; stroke-linejoin: miter"/>
   </g>
   <g id="patch_50">
    <path d="M 479.342139 359.517187 
L 479.342139 26.877187 
L 479.517227 26.877187 
L 479.517227 359.517187 
z
" clip-path="url(#p11378b3d6c)" style="fill: #add8e6; stroke: #add8e6; stroke-linejoin: miter"/>
   </g>
   <g id="patch_51">
    <path d="M 491.552024 359.517187 
L 491.552024 26.877187 
L 491.777425 26.877187 
L 491.777425 359.517187 
z
" clip-path="url(#p11378b3d6c)" style="fill: #add8e6; stroke: #add8e6; stroke-linejoin: miter"/>
   </g>
   <g id="patch_52">
    <path d="M 499.972357 359.517187 
L 499.972357 26.877187 
L 500.66466 26.877187 
L 500.66466 359.517187 
z
" clip-path="url(#p11378b3d6c)" style="fill: #add8e6; stroke: #add8e6; stroke-linejoin: miter"/>
   </g>
   <g id="patch_53">
    <path d="M 510.095271 359.517187 
L 510.095271 26.877187 
L 510.694999 26.877187 
L 510.694999 359.517187 
z
" clip-path="url(#p11378b3d6c)" style="fill: #add8e6; stroke: #add8e6; stroke-linejoin: miter"/>
   </g>
   <g id="patch_54">
    <path d="M 556.880041 359.517187 
L 556.880041 26.877187 
L 528.328592 26.877187 
L 528.328592 359.517187 
z
" clip-path="url(#p11378b3d6c)" style="fill: #add8e6; stroke: #add8e6; stroke-linejoin: miter"/>
   </g>
   <g id="patch_55">
    <path d="M 565.372824 359.517187 
L 565.372824 26.877187 
L 540.439865 26.877187 
L 540.439865 359.517187 
z
" clip-path="url(#p11378b3d6c)" style="fill: #add8e6; stroke: #add8e6; stroke-linejoin: miter"/>
   </g>
   <g id="patch_56">
    <path d="M 575.656739 359.517187 
L 575.656739 26.877187 
L 550.06569 26.877187 
L 550.06569 359.517187 
z
" clip-path="url(#p11378b3d6c)" style="fill: #add8e6; stroke: #add8e6; stroke-linejoin: miter"/>
   </g>
   <g id="patch_57">
    <path d="M 608.390179 359.517187 
L 608.390179 26.877187 
L 586.669182 26.877187 
L 586.669182 359.517187 
z
" clip-path="url(#p11378b3d6c)" style="fill: #add8e6; stroke: #add8e6; stroke-linejoin: miter"/>
   </g>
   <g id="patch_58">
    <path d="M 588.595152 359.517187 
L 588.595152 26.877187 
L 587.524498 26.877187 
L 587.524498 359.517187 
z
" clip-path="url(#p11378b3d6c)" style="fill: #add8e6; stroke: #add8e6; stroke-linejoin: miter"/>
   </g>
   <g id="patch_59">
    <path d="M 605.125892 359.517187 
L 605.125892 26.877187 
L 605.150042 26.877187 
L 605.150042 359.517187 
z
" clip-path="url(#p11378b3d6c)" style="fill: #add8e6; stroke: #add8e6; stroke-linejoin: miter"/>
   </g>
   <g id="patch_60">
    <path d="M 704.958356 359.517187 
L 704.958356 26.877187 
L 705.060994 26.877187 
L 705.060994 359.517187 
z
" clip-path="url(#p11378b3d6c)" style="fill: #add8e6; stroke: #add8e6; stroke-linejoin: miter"/>
   </g>
   <g id="patch_61">
    <path d="M 715.262396 359.517187 
L 715.262396 26.877187 
L 715.689048 26.877187 
L 715.689048 359.517187 
z
" clip-path="url(#p11378b3d6c)" style="fill: #add8e6; stroke: #add8e6; stroke-linejoin: miter"/>
   </g>
   <g id="patch_62">
    <path d="M 810.888719 359.517187 
L 810.888719 26.877187 
L 782.629084 26.877187 
L 782.629084 359.517187 
z
" clip-path="url(#p11378b3d6c)" style="fill: #add8e6; stroke: #add8e6; stroke-linejoin: miter"/>
   </g>
   <g id="patch_63">
    <path d="M 783.254974 359.517187 
L 783.254974 26.877187 
L 783.403899 26.877187 
L 783.403899 359.517187 
z
" clip-path="url(#p11378b3d6c)" style="fill: #add8e6; stroke: #add8e6; stroke-linejoin: miter"/>
   </g>
   <g id="patch_64">
    <path d="M 825.95234 359.517187 
L 825.95234 26.877187 
L 796.607963 26.877187 
L 796.607963 359.517187 
z
" clip-path="url(#p11378b3d6c)" style="fill: #add8e6; stroke: #add8e6; stroke-linejoin: miter"/>
   </g>
   <g id="patch_65">
    <path d="M 800.294878 359.517187 
L 800.294878 26.877187 
L 800.467953 26.877187 
L 800.467953 359.517187 
z
" clip-path="url(#p11378b3d6c)" style="fill: #add8e6; stroke: #add8e6; stroke-linejoin: miter"/>
   </g>
   <g id="patch_66">
    <path d="M 841.559338 359.517187 
L 841.559338 26.877187 
L 843.050607 26.877187 
L 843.050607 359.517187 
z
" clip-path="url(#p11378b3d6c)" style="fill: #add8e6; stroke: #add8e6; stroke-linejoin: miter"/>
   </g>
   <g id="patch_67">
    <path d="M 843.803285 359.517187 
L 843.803285 26.877187 
L 843.563796 26.877187 
L 843.563796 359.517187 
z
" clip-path="url(#p11378b3d6c)" style="fill: #add8e6; stroke: #add8e6; stroke-linejoin: miter"/>
   </g>
   <g id="patch_68">
    <path d="M 875.878635 359.517187 
L 875.878635 26.877187 
L 873.870152 26.877187 
L 873.870152 359.517187 
z
" clip-path="url(#p11378b3d6c)" style="fill: #add8e6; stroke: #add8e6; stroke-linejoin: miter"/>
   </g>
   <g id="patch_69">
    <path d="M 905.402125 359.517187 
L 905.402125 26.877187 
L 906.251403 26.877187 
L 906.251403 359.517187 
z
" clip-path="url(#p11378b3d6c)" style="fill: #add8e6; stroke: #add8e6; stroke-linejoin: miter"/>
   </g>
   <g id="patch_70">
    <path d="M 954.27789 359.517187 
L 954.27789 26.877187 
L 954.601904 26.877187 
L 954.601904 359.517187 
z
" clip-path="url(#p11378b3d6c)" style="fill: #add8e6; stroke: #add8e6; stroke-linejoin: miter"/>
   </g>
   <g id="patch_71">
    <path d="M 955.255969 359.517187 
L 955.255969 26.877187 
L 955.797334 26.877187 
L 955.797334 359.517187 
z
" clip-path="url(#p11378b3d6c)" style="fill: #add8e6; stroke: #add8e6; stroke-linejoin: miter"/>
   </g>
   <g id="patch_72">
    <path d="M 972.497124 359.517187 
L 972.497124 26.877187 
L 973.104901 26.877187 
L 973.104901 359.517187 
z
" clip-path="url(#p11378b3d6c)" style="fill: #add8e6; stroke: #add8e6; stroke-linejoin: miter"/>
   </g>
   <g id="patch_73">
    <path d="M 986.260665 359.517187 
L 986.260665 26.877187 
L 986.40154 26.877187 
L 986.40154 359.517187 
z
" clip-path="url(#p11378b3d6c)" style="fill: #add8e6; stroke: #add8e6; stroke-linejoin: miter"/>
   </g>
   <g id="patch_74">
    <path d="M 1002.604241 359.517187 
L 1002.604241 26.877187 
L 1003.469619 26.877187 
L 1003.469619 359.517187 
z
" clip-path="url(#p11378b3d6c)" style="fill: #add8e6; stroke: #add8e6; stroke-linejoin: miter"/>
   </g>
   <g id="patch_75">
    <path d="M 1014.355274 359.517187 
L 1014.355274 26.877187 
L 1014.735638 26.877187 
L 1014.735638 359.517187 
z
" clip-path="url(#p11378b3d6c)" style="fill: #add8e6; stroke: #add8e6; stroke-linejoin: miter"/>
   </g>
   <g id="patch_76">
    <path d="M 1031.375053 359.517187 
L 1031.375053 26.877187 
L 1031.554166 26.877187 
L 1031.554166 359.517187 
z
" clip-path="url(#p11378b3d6c)" style="fill: #add8e6; stroke: #add8e6; stroke-linejoin: miter"/>
   </g>
   <g id="patch_77">
    <path d="M 1046.080448 359.517187 
L 1046.080448 26.877187 
L 1046.098561 26.877187 
L 1046.098561 359.517187 
z
" clip-path="url(#p11378b3d6c)" style="fill: #add8e6; stroke: #add8e6; stroke-linejoin: miter"/>
   </g>
   <g id="patch_78">
    <path d="M 1057.406842 359.517187 
L 1057.406842 26.877187 
L 1057.724818 26.877187 
L 1057.724818 359.517187 
z
" clip-path="url(#p11378b3d6c)" style="fill: #add8e6; stroke: #add8e6; stroke-linejoin: miter"/>
   </g>
   <g id="patch_79">
    <path d="M 1065.607812 359.517187 
L 1065.607812 26.877187 
L 1065.448824 26.877187 
L 1065.448824 359.517187 
z
" clip-path="url(#p11378b3d6c)" style="fill: #add8e6; stroke: #add8e6; stroke-linejoin: miter"/>
   </g>
   <g id="patch_80">
    <path d="M 1096.427357 359.517187 
L 1096.427357 26.877187 
L 1076.529692 26.877187 
L 1076.529692 359.517187 
z
" clip-path="url(#p11378b3d6c)" style="fill: #add8e6; stroke: #add8e6; stroke-linejoin: miter"/>
   </g>
   <g id="patch_81">
    <path d="M 1077.429283 359.517187 
L 1077.429283 26.877187 
L 1076.781255 26.877187 
L 1076.781255 359.517187 
z
" clip-path="url(#p11378b3d6c)" style="fill: #add8e6; stroke: #add8e6; stroke-linejoin: miter"/>
   </g>
   <g id="patch_82">
    <path d="M 1086.529843 359.517187 
L 1086.529843 26.877187 
L 1086.809582 26.877187 
L 1086.809582 359.517187 
z
" clip-path="url(#p11378b3d6c)" style="fill: #add8e6; stroke: #add8e6; stroke-linejoin: miter"/>
   </g>
   <g id="patch_83">
    <path d="M 1092.060215 359.517187 
L 1092.060215 26.877187 
L 1092.915531 26.877187 
L 1092.915531 359.517187 
z
" clip-path="url(#p11378b3d6c)" style="fill: #add8e6; stroke: #add8e6; stroke-linejoin: miter"/>
   </g>
   <g id="patch_84">
    <path d="M 1093.615883 359.517187 
L 1093.615883 26.877187 
L 1093.39652 26.877187 
L 1093.39652 359.517187 
z
" clip-path="url(#p11378b3d6c)" style="fill: #add8e6; stroke: #add8e6; stroke-linejoin: miter"/>
   </g>
   <g id="patch_85">
    <path d="M 1101.585414 359.517187 
L 1101.585414 26.877187 
L 1101.754465 26.877187 
L 1101.754465 359.517187 
z
" clip-path="url(#p11378b3d6c)" style="fill: #add8e6; stroke: #add8e6; stroke-linejoin: miter"/>
   </g>
   <g id="patch_86">
    <path d="M 99.962273 359.517187 
L 99.962273 26.877187 
L 160.337508 26.877187 
L 160.337508 359.517187 
z
" clip-path="url(#p11378b3d6c)" style="fill: #808080; opacity: 0.4; stroke: #808080; stroke-linejoin: miter"/>
   </g>
   <g id="patch_87">
    <path d="M 595.039202 359.517187 
L 595.039202 26.877187 
L 1029.740897 26.877187 
L 1029.740897 359.517187 
z
" clip-path="url(#p11378b3d6c)" style="fill: #808080; opacity: 0.4; stroke: #808080; stroke-linejoin: miter"/>
   </g>
   <g id="matplotlib.axis_1">
    <g id="xtick_1">
     <g id="line2d_1">
      <defs>
       <path id="m59e4cf8a99" d="M 0 0 
L 0 3.5 
" style="stroke: #000000; stroke-width: 0.8"/>
      </defs>
      <g>
       <use xlink:href="#m59e4cf8a99" x="115.96171" y="359.517187" style="stroke: #000000; stroke-width: 0.8"/>
      </g>
     </g>
     <g id="text_1">
      <!-- 11-12 06 -->
      <g transform="translate(93.481241 374.115625) scale(0.1 -0.1)">
       <defs>
        <path id="DejaVuSans-31" d="M 794 531 
L 1825 531 
L 1825 4091 
L 703 3866 
L 703 4441 
L 1819 4666 
L 2450 4666 
L 2450 531 
L 3481 531 
L 3481 0 
L 794 0 
L 794 531 
z
" transform="scale(0.015625)"/>
        <path id="DejaVuSans-2d" d="M 313 2009 
L 1997 2009 
L 1997 1497 
L 313 1497 
L 313 2009 
z
" transform="scale(0.015625)"/>
        <path id="DejaVuSans-32" d="M 1228 531 
L 3431 531 
L 3431 0 
L 469 0 
L 469 531 
Q 828 903 1448 1529 
Q 2069 2156 2228 2338 
Q 2531 2678 2651 2914 
Q 2772 3150 2772 3378 
Q 2772 3750 2511 3984 
Q 2250 4219 1831 4219 
Q 1534 4219 1204 4116 
Q 875 4013 500 3803 
L 500 4441 
Q 881 4594 1212 4672 
Q 1544 4750 1819 4750 
Q 2544 4750 2975 4387 
Q 3406 4025 3406 3419 
Q 3406 3131 3298 2873 
Q 3191 2616 2906 2266 
Q 2828 2175 2409 1742 
Q 1991 1309 1228 531 
z
" transform="scale(0.015625)"/>
        <path id="DejaVuSans-20" transform="scale(0.015625)"/>
        <path id="DejaVuSans-30" d="M 2034 4250 
Q 1547 4250 1301 3770 
Q 1056 3291 1056 2328 
Q 1056 1369 1301 889 
Q 1547 409 2034 409 
Q 2525 409 2770 889 
Q 3016 1369 3016 2328 
Q 3016 3291 2770 3770 
Q 2525 4250 2034 4250 
z
M 2034 4750 
Q 2819 4750 3233 4129 
Q 3647 3509 3647 2328 
Q 3647 1150 3233 529 
Q 2819 -91 2034 -91 
Q 1250 -91 836 529 
Q 422 1150 422 2328 
Q 422 3509 836 4129 
Q 1250 4750 2034 4750 
z
" transform="scale(0.015625)"/>
        <path id="DejaVuSans-36" d="M 2113 2584 
Q 1688 2584 1439 2293 
Q 1191 2003 1191 1497 
Q 1191 994 1439 701 
Q 1688 409 2113 409 
Q 2538 409 2786 701 
Q 3034 994 3034 1497 
Q 3034 2003 2786 2293 
Q 2538 2584 2113 2584 
z
M 3366 4563 
L 3366 3988 
Q 3128 4100 2886 4159 
Q 2644 4219 2406 4219 
Q 1781 4219 1451 3797 
Q 1122 3375 1075 2522 
Q 1259 2794 1537 2939 
Q 1816 3084 2150 3084 
Q 2853 3084 3261 2657 
Q 3669 2231 3669 1497 
Q 3669 778 3244 343 
Q 2819 -91 2113 -91 
Q 1303 -91 875 529 
Q 447 1150 447 2328 
Q 447 3434 972 4092 
Q 1497 4750 2381 4750 
Q 2619 4750 2861 4703 
Q 3103 4656 3366 4563 
z
" transform="scale(0.015625)"/>
       </defs>
       <use xlink:href="#DejaVuSans-31"/>
       <use xlink:href="#DejaVuSans-31" x="63.623047"/>
       <use xlink:href="#DejaVuSans-2d" x="127.246094"/>
       <use xlink:href="#DejaVuSans-31" x="163.330078"/>
       <use xlink:href="#DejaVuSans-32" x="226.953125"/>
       <use xlink:href="#DejaVuSans-20" x="290.576172"/>
       <use xlink:href="#DejaVuSans-30" x="322.363281"/>
       <use xlink:href="#DejaVuSans-36" x="385.986328"/>
      </g>
     </g>
    </g>
    <g id="xtick_2">
     <g id="line2d_2">
      <g>
       <use xlink:href="#m59e4cf8a99" x="224.637134" y="359.517187" style="stroke: #000000; stroke-width: 0.8"/>
      </g>
     </g>
     <g id="text_2">
      <!-- 11-12 09 -->
      <g transform="translate(202.156665 374.115625) scale(0.1 -0.1)">
       <defs>
        <path id="DejaVuSans-39" d="M 703 97 
L 703 672 
Q 941 559 1184 500 
Q 1428 441 1663 441 
Q 2288 441 2617 861 
Q 2947 1281 2994 2138 
Q 2813 1869 2534 1725 
Q 2256 1581 1919 1581 
Q 1219 1581 811 2004 
Q 403 2428 403 3163 
Q 403 3881 828 4315 
Q 1253 4750 1959 4750 
Q 2769 4750 3195 4129 
Q 3622 3509 3622 2328 
Q 3622 1225 3098 567 
Q 2575 -91 1691 -91 
Q 1453 -91 1209 -44 
Q 966 3 703 97 
z
M 1959 2075 
Q 2384 2075 2632 2365 
Q 2881 2656 2881 3163 
Q 2881 3666 2632 3958 
Q 2384 4250 1959 4250 
Q 1534 4250 1286 3958 
Q 1038 3666 1038 3163 
Q 1038 2656 1286 2365 
Q 1534 2075 1959 2075 
z
" transform="scale(0.015625)"/>
       </defs>
       <use xlink:href="#DejaVuSans-31"/>
       <use xlink:href="#DejaVuSans-31" x="63.623047"/>
       <use xlink:href="#DejaVuSans-2d" x="127.246094"/>
       <use xlink:href="#DejaVuSans-31" x="163.330078"/>
       <use xlink:href="#DejaVuSans-32" x="226.953125"/>
       <use xlink:href="#DejaVuSans-20" x="290.576172"/>
       <use xlink:href="#DejaVuSans-30" x="322.363281"/>
       <use xlink:href="#DejaVuSans-39" x="385.986328"/>
      </g>
     </g>
    </g>
    <g id="xtick_3">
     <g id="line2d_3">
      <g>
       <use xlink:href="#m59e4cf8a99" x="333.312557" y="359.517187" style="stroke: #000000; stroke-width: 0.8"/>
      </g>
     </g>
     <g id="text_3">
      <!-- 11-12 12 -->
      <g transform="translate(310.832089 374.115625) scale(0.1 -0.1)">
       <use xlink:href="#DejaVuSans-31"/>
       <use xlink:href="#DejaVuSans-31" x="63.623047"/>
       <use xlink:href="#DejaVuSans-2d" x="127.246094"/>
       <use xlink:href="#DejaVuSans-31" x="163.330078"/>
       <use xlink:href="#DejaVuSans-32" x="226.953125"/>
       <use xlink:href="#DejaVuSans-20" x="290.576172"/>
       <use xlink:href="#DejaVuSans-31" x="322.363281"/>
       <use xlink:href="#DejaVuSans-32" x="385.986328"/>
      </g>
     </g>
    </g>
    <g id="xtick_4">
     <g id="line2d_4">
      <g>
       <use xlink:href="#m59e4cf8a99" x="441.987981" y="359.517187" style="stroke: #000000; stroke-width: 0.8"/>
      </g>
     </g>
     <g id="text_4">
      <!-- 11-12 15 -->
      <g transform="translate(419.507512 374.115625) scale(0.1 -0.1)">
       <defs>
        <path id="DejaVuSans-35" d="M 691 4666 
L 3169 4666 
L 3169 4134 
L 1269 4134 
L 1269 2991 
Q 1406 3038 1543 3061 
Q 1681 3084 1819 3084 
Q 2600 3084 3056 2656 
Q 3513 2228 3513 1497 
Q 3513 744 3044 326 
Q 2575 -91 1722 -91 
Q 1428 -91 1123 -41 
Q 819 9 494 109 
L 494 744 
Q 775 591 1075 516 
Q 1375 441 1709 441 
Q 2250 441 2565 725 
Q 2881 1009 2881 1497 
Q 2881 1984 2565 2268 
Q 2250 2553 1709 2553 
Q 1456 2553 1204 2497 
Q 953 2441 691 2322 
L 691 4666 
z
" transform="scale(0.015625)"/>
       </defs>
       <use xlink:href="#DejaVuSans-31"/>
       <use xlink:href="#DejaVuSans-31" x="63.623047"/>
       <use xlink:href="#DejaVuSans-2d" x="127.246094"/>
       <use xlink:href="#DejaVuSans-31" x="163.330078"/>
       <use xlink:href="#DejaVuSans-32" x="226.953125"/>
       <use xlink:href="#DejaVuSans-20" x="290.576172"/>
       <use xlink:href="#DejaVuSans-31" x="322.363281"/>
       <use xlink:href="#DejaVuSans-35" x="385.986328"/>
      </g>
     </g>
    </g>
    <g id="xtick_5">
     <g id="line2d_5">
      <g>
       <use xlink:href="#m59e4cf8a99" x="550.663404" y="359.517187" style="stroke: #000000; stroke-width: 0.8"/>
      </g>
     </g>
     <g id="text_5">
      <!-- 11-12 18 -->
      <g transform="translate(528.182936 374.115625) scale(0.1 -0.1)">
       <defs>
        <path id="DejaVuSans-38" d="M 2034 2216 
Q 1584 2216 1326 1975 
Q 1069 1734 1069 1313 
Q 1069 891 1326 650 
Q 1584 409 2034 409 
Q 2484 409 2743 651 
Q 3003 894 3003 1313 
Q 3003 1734 2745 1975 
Q 2488 2216 2034 2216 
z
M 1403 2484 
Q 997 2584 770 2862 
Q 544 3141 544 3541 
Q 544 4100 942 4425 
Q 1341 4750 2034 4750 
Q 2731 4750 3128 4425 
Q 3525 4100 3525 3541 
Q 3525 3141 3298 2862 
Q 3072 2584 2669 2484 
Q 3125 2378 3379 2068 
Q 3634 1759 3634 1313 
Q 3634 634 3220 271 
Q 2806 -91 2034 -91 
Q 1263 -91 848 271 
Q 434 634 434 1313 
Q 434 1759 690 2068 
Q 947 2378 1403 2484 
z
M 1172 3481 
Q 1172 3119 1398 2916 
Q 1625 2713 2034 2713 
Q 2441 2713 2670 2916 
Q 2900 3119 2900 3481 
Q 2900 3844 2670 4047 
Q 2441 4250 2034 4250 
Q 1625 4250 1398 4047 
Q 1172 3844 1172 3481 
z
" transform="scale(0.015625)"/>
       </defs>
       <use xlink:href="#DejaVuSans-31"/>
       <use xlink:href="#DejaVuSans-31" x="63.623047"/>
       <use xlink:href="#DejaVuSans-2d" x="127.246094"/>
       <use xlink:href="#DejaVuSans-31" x="163.330078"/>
       <use xlink:href="#DejaVuSans-32" x="226.953125"/>
       <use xlink:href="#DejaVuSans-20" x="290.576172"/>
       <use xlink:href="#DejaVuSans-31" x="322.363281"/>
       <use xlink:href="#DejaVuSans-38" x="385.986328"/>
      </g>
     </g>
    </g>
    <g id="xtick_6">
     <g id="line2d_6">
      <g>
       <use xlink:href="#m59e4cf8a99" x="659.338828" y="359.517187" style="stroke: #000000; stroke-width: 0.8"/>
      </g>
     </g>
     <g id="text_6">
      <!-- 11-12 21 -->
      <g transform="translate(636.858359 374.115625) scale(0.1 -0.1)">
       <use xlink:href="#DejaVuSans-31"/>
       <use xlink:href="#DejaVuSans-31" x="63.623047"/>
       <use xlink:href="#DejaVuSans-2d" x="127.246094"/>
       <use xlink:href="#DejaVuSans-31" x="163.330078"/>
       <use xlink:href="#DejaVuSans-32" x="226.953125"/>
       <use xlink:href="#DejaVuSans-20" x="290.576172"/>
       <use xlink:href="#DejaVuSans-32" x="322.363281"/>
       <use xlink:href="#DejaVuSans-31" x="385.986328"/>
      </g>
     </g>
    </g>
    <g id="xtick_7">
     <g id="line2d_7">
      <g>
       <use xlink:href="#m59e4cf8a99" x="768.014252" y="359.517187" style="stroke: #000000; stroke-width: 0.8"/>
      </g>
     </g>
     <g id="text_7">
      <!-- 11-13 00 -->
      <g transform="translate(745.533783 374.115625) scale(0.1 -0.1)">
       <defs>
        <path id="DejaVuSans-33" d="M 2597 2516 
Q 3050 2419 3304 2112 
Q 3559 1806 3559 1356 
Q 3559 666 3084 287 
Q 2609 -91 1734 -91 
Q 1441 -91 1130 -33 
Q 819 25 488 141 
L 488 750 
Q 750 597 1062 519 
Q 1375 441 1716 441 
Q 2309 441 2620 675 
Q 2931 909 2931 1356 
Q 2931 1769 2642 2001 
Q 2353 2234 1838 2234 
L 1294 2234 
L 1294 2753 
L 1863 2753 
Q 2328 2753 2575 2939 
Q 2822 3125 2822 3475 
Q 2822 3834 2567 4026 
Q 2313 4219 1838 4219 
Q 1578 4219 1281 4162 
Q 984 4106 628 3988 
L 628 4550 
Q 988 4650 1302 4700 
Q 1616 4750 1894 4750 
Q 2613 4750 3031 4423 
Q 3450 4097 3450 3541 
Q 3450 3153 3228 2886 
Q 3006 2619 2597 2516 
z
" transform="scale(0.015625)"/>
       </defs>
       <use xlink:href="#DejaVuSans-31"/>
       <use xlink:href="#DejaVuSans-31" x="63.623047"/>
       <use xlink:href="#DejaVuSans-2d" x="127.246094"/>
       <use xlink:href="#DejaVuSans-31" x="163.330078"/>
       <use xlink:href="#DejaVuSans-33" x="226.953125"/>
       <use xlink:href="#DejaVuSans-20" x="290.576172"/>
       <use xlink:href="#DejaVuSans-30" x="322.363281"/>
       <use xlink:href="#DejaVuSans-30" x="385.986328"/>
      </g>
     </g>
    </g>
    <g id="xtick_8">
     <g id="line2d_8">
      <g>
       <use xlink:href="#m59e4cf8a99" x="876.689675" y="359.517187" style="stroke: #000000; stroke-width: 0.8"/>
      </g>
     </g>
     <g id="text_8">
      <!-- 11-13 03 -->
      <g transform="translate(854.209207 374.115625) scale(0.1 -0.1)">
       <use xlink:href="#DejaVuSans-31"/>
       <use xlink:href="#DejaVuSans-31" x="63.623047"/>
       <use xlink:href="#DejaVuSans-2d" x="127.246094"/>
       <use xlink:href="#DejaVuSans-31" x="163.330078"/>
       <use xlink:href="#DejaVuSans-33" x="226.953125"/>
       <use xlink:href="#DejaVuSans-20" x="290.576172"/>
       <use xlink:href="#DejaVuSans-30" x="322.363281"/>
       <use xlink:href="#DejaVuSans-33" x="385.986328"/>
      </g>
     </g>
    </g>
    <g id="xtick_9">
     <g id="line2d_9">
      <g>
       <use xlink:href="#m59e4cf8a99" x="985.365099" y="359.517187" style="stroke: #000000; stroke-width: 0.8"/>
      </g>
     </g>
     <g id="text_9">
      <!-- 11-13 06 -->
      <g transform="translate(962.88463 374.115625) scale(0.1 -0.1)">
       <use xlink:href="#DejaVuSans-31"/>
       <use xlink:href="#DejaVuSans-31" x="63.623047"/>
       <use xlink:href="#DejaVuSans-2d" x="127.246094"/>
       <use xlink:href="#DejaVuSans-31" x="163.330078"/>
       <use xlink:href="#DejaVuSans-33" x="226.953125"/>
       <use xlink:href="#DejaVuSans-20" x="290.576172"/>
       <use xlink:href="#DejaVuSans-30" x="322.363281"/>
       <use xlink:href="#DejaVuSans-36" x="385.986328"/>
      </g>
     </g>
    </g>
    <g id="xtick_10">
     <g id="line2d_10">
      <g>
       <use xlink:href="#m59e4cf8a99" x="1094.040522" y="359.517187" style="stroke: #000000; stroke-width: 0.8"/>
      </g>
     </g>
     <g id="text_10">
      <!-- 11-13 09 -->
      <g transform="translate(1071.560054 374.115625) scale(0.1 -0.1)">
       <use xlink:href="#DejaVuSans-31"/>
       <use xlink:href="#DejaVuSans-31" x="63.623047"/>
       <use xlink:href="#DejaVuSans-2d" x="127.246094"/>
       <use xlink:href="#DejaVuSans-31" x="163.330078"/>
       <use xlink:href="#DejaVuSans-33" x="226.953125"/>
       <use xlink:href="#DejaVuSans-20" x="290.576172"/>
       <use xlink:href="#DejaVuSans-30" x="322.363281"/>
       <use xlink:href="#DejaVuSans-39" x="385.986328"/>
      </g>
     </g>
    </g>
    <g id="text_11">
     <!-- Time -->
     <g transform="translate(592.554688 389.313437) scale(0.12 -0.12)">
      <defs>
       <path id="DejaVuSans-54" d="M -19 4666 
L 3928 4666 
L 3928 4134 
L 2272 4134 
L 2272 0 
L 1638 0 
L 1638 4134 
L -19 4134 
L -19 4666 
z
" transform="scale(0.015625)"/>
       <path id="DejaVuSans-69" d="M 603 3500 
L 1178 3500 
L 1178 0 
L 603 0 
L 603 3500 
z
M 603 4863 
L 1178 4863 
L 1178 4134 
L 603 4134 
L 603 4863 
z
" transform="scale(0.015625)"/>
       <path id="DejaVuSans-6d" d="M 3328 2828 
Q 3544 3216 3844 3400 
Q 4144 3584 4550 3584 
Q 5097 3584 5394 3201 
Q 5691 2819 5691 2113 
L 5691 0 
L 5113 0 
L 5113 2094 
Q 5113 2597 4934 2840 
Q 4756 3084 4391 3084 
Q 3944 3084 3684 2787 
Q 3425 2491 3425 1978 
L 3425 0 
L 2847 0 
L 2847 2094 
Q 2847 2600 2669 2842 
Q 2491 3084 2119 3084 
Q 1678 3084 1418 2786 
Q 1159 2488 1159 1978 
L 1159 0 
L 581 0 
L 581 3500 
L 1159 3500 
L 1159 2956 
Q 1356 3278 1631 3431 
Q 1906 3584 2284 3584 
Q 2666 3584 2933 3390 
Q 3200 3197 3328 2828 
z
" transform="scale(0.015625)"/>
       <path id="DejaVuSans-65" d="M 3597 1894 
L 3597 1613 
L 953 1613 
Q 991 1019 1311 708 
Q 1631 397 2203 397 
Q 2534 397 2845 478 
Q 3156 559 3463 722 
L 3463 178 
Q 3153 47 2828 -22 
Q 2503 -91 2169 -91 
Q 1331 -91 842 396 
Q 353 884 353 1716 
Q 353 2575 817 3079 
Q 1281 3584 2069 3584 
Q 2775 3584 3186 3129 
Q 3597 2675 3597 1894 
z
M 3022 2063 
Q 3016 2534 2758 2815 
Q 2500 3097 2075 3097 
Q 1594 3097 1305 2825 
Q 1016 2553 972 2059 
L 3022 2063 
z
" transform="scale(0.015625)"/>
      </defs>
      <use xlink:href="#DejaVuSans-54"/>
      <use xlink:href="#DejaVuSans-69" x="57.958984"/>
      <use xlink:href="#DejaVuSans-6d" x="85.742188"/>
      <use xlink:href="#DejaVuSans-65" x="183.154297"/>
     </g>
    </g>
   </g>
   <g id="matplotlib.axis_2">
    <g id="ytick_1">
     <g id="line2d_11">
      <defs>
       <path id="m9f3a196820" d="M 0 0 
L -3.5 0 
" style="stroke: #000000; stroke-width: 0.8"/>
      </defs>
      <g>
       <use xlink:href="#m9f3a196820" x="49.235" y="344.397187" style="stroke: #000000; stroke-width: 0.8"/>
      </g>
     </g>
     <g id="text_12">
      <!-- 0 -->
      <g transform="translate(35.8725 348.196406) scale(0.1 -0.1)">
       <use xlink:href="#DejaVuSans-30"/>
      </g>
     </g>
    </g>
    <g id="ytick_2">
     <g id="line2d_12">
      <g>
       <use xlink:href="#m9f3a196820" x="49.235" y="301.320264" style="stroke: #000000; stroke-width: 0.8"/>
      </g>
     </g>
     <g id="text_13">
      <!-- 50 -->
      <g transform="translate(29.51 305.119483) scale(0.1 -0.1)">
       <use xlink:href="#DejaVuSans-35"/>
       <use xlink:href="#DejaVuSans-30" x="63.623047"/>
      </g>
     </g>
    </g>
    <g id="ytick_3">
     <g id="line2d_13">
      <g>
       <use xlink:href="#m9f3a196820" x="49.235" y="258.243341" style="stroke: #000000; stroke-width: 0.8"/>
      </g>
     </g>
     <g id="text_14">
      <!-- 100 -->
      <g transform="translate(23.1475 262.04256) scale(0.1 -0.1)">
       <use xlink:href="#DejaVuSans-31"/>
       <use xlink:href="#DejaVuSans-30" x="63.623047"/>
       <use xlink:href="#DejaVuSans-30" x="127.246094"/>
      </g>
     </g>
    </g>
    <g id="ytick_4">
     <g id="line2d_14">
      <g>
       <use xlink:href="#m9f3a196820" x="49.235" y="215.166418" style="stroke: #000000; stroke-width: 0.8"/>
      </g>
     </g>
     <g id="text_15">
      <!-- 150 -->
      <g transform="translate(23.1475 218.965637) scale(0.1 -0.1)">
       <use xlink:href="#DejaVuSans-31"/>
       <use xlink:href="#DejaVuSans-35" x="63.623047"/>
       <use xlink:href="#DejaVuSans-30" x="127.246094"/>
      </g>
     </g>
    </g>
    <g id="ytick_5">
     <g id="line2d_15">
      <g>
       <use xlink:href="#m9f3a196820" x="49.235" y="172.089495" style="stroke: #000000; stroke-width: 0.8"/>
      </g>
     </g>
     <g id="text_16">
      <!-- 200 -->
      <g transform="translate(23.1475 175.888714) scale(0.1 -0.1)">
       <use xlink:href="#DejaVuSans-32"/>
       <use xlink:href="#DejaVuSans-30" x="63.623047"/>
       <use xlink:href="#DejaVuSans-30" x="127.246094"/>
      </g>
     </g>
    </g>
    <g id="ytick_6">
     <g id="line2d_16">
      <g>
       <use xlink:href="#m9f3a196820" x="49.235" y="129.012572" style="stroke: #000000; stroke-width: 0.8"/>
      </g>
     </g>
     <g id="text_17">
      <!-- 250 -->
      <g transform="translate(23.1475 132.811791) scale(0.1 -0.1)">
       <use xlink:href="#DejaVuSans-32"/>
       <use xlink:href="#DejaVuSans-35" x="63.623047"/>
       <use xlink:href="#DejaVuSans-30" x="127.246094"/>
      </g>
     </g>
    </g>
    <g id="ytick_7">
     <g id="line2d_17">
      <g>
       <use xlink:href="#m9f3a196820" x="49.235" y="85.935649" style="stroke: #000000; stroke-width: 0.8"/>
      </g>
     </g>
     <g id="text_18">
      <!-- 300 -->
      <g transform="translate(23.1475 89.734868) scale(0.1 -0.1)">
       <use xlink:href="#DejaVuSans-33"/>
       <use xlink:href="#DejaVuSans-30" x="63.623047"/>
       <use xlink:href="#DejaVuSans-30" x="127.246094"/>
      </g>
     </g>
    </g>
    <g id="ytick_8">
     <g id="line2d_18">
      <g>
       <use xlink:href="#m9f3a196820" x="49.235" y="42.858726" style="stroke: #000000; stroke-width: 0.8"/>
      </g>
     </g>
     <g id="text_19">
      <!-- 350 -->
      <g transform="translate(23.1475 46.657945) scale(0.1 -0.1)">
       <use xlink:href="#DejaVuSans-33"/>
       <use xlink:href="#DejaVuSans-35" x="63.623047"/>
       <use xlink:href="#DejaVuSans-30" x="127.246094"/>
      </g>
     </g>
    </g>
    <g id="text_20">
     <!-- Pellet_Count -->
     <g transform="translate(16.318125 230.485312) rotate(-90) scale(0.12 -0.12)">
      <defs>
       <path id="DejaVuSans-50" d="M 1259 4147 
L 1259 2394 
L 2053 2394 
Q 2494 2394 2734 2622 
Q 2975 2850 2975 3272 
Q 2975 3691 2734 3919 
Q 2494 4147 2053 4147 
L 1259 4147 
z
M 628 4666 
L 2053 4666 
Q 2838 4666 3239 4311 
Q 3641 3956 3641 3272 
Q 3641 2581 3239 2228 
Q 2838 1875 2053 1875 
L 1259 1875 
L 1259 0 
L 628 0 
L 628 4666 
z
" transform="scale(0.015625)"/>
       <path id="DejaVuSans-6c" d="M 603 4863 
L 1178 4863 
L 1178 0 
L 603 0 
L 603 4863 
z
" transform="scale(0.015625)"/>
       <path id="DejaVuSans-74" d="M 1172 4494 
L 1172 3500 
L 2356 3500 
L 2356 3053 
L 1172 3053 
L 1172 1153 
Q 1172 725 1289 603 
Q 1406 481 1766 481 
L 2356 481 
L 2356 0 
L 1766 0 
Q 1100 0 847 248 
Q 594 497 594 1153 
L 594 3053 
L 172 3053 
L 172 3500 
L 594 3500 
L 594 4494 
L 1172 4494 
z
" transform="scale(0.015625)"/>
       <path id="DejaVuSans-5f" d="M 3263 -1063 
L 3263 -1509 
L -63 -1509 
L -63 -1063 
L 3263 -1063 
z
" transform="scale(0.015625)"/>
       <path id="DejaVuSans-43" d="M 4122 4306 
L 4122 3641 
Q 3803 3938 3442 4084 
Q 3081 4231 2675 4231 
Q 1875 4231 1450 3742 
Q 1025 3253 1025 2328 
Q 1025 1406 1450 917 
Q 1875 428 2675 428 
Q 3081 428 3442 575 
Q 3803 722 4122 1019 
L 4122 359 
Q 3791 134 3420 21 
Q 3050 -91 2638 -91 
Q 1578 -91 968 557 
Q 359 1206 359 2328 
Q 359 3453 968 4101 
Q 1578 4750 2638 4750 
Q 3056 4750 3426 4639 
Q 3797 4528 4122 4306 
z
" transform="scale(0.015625)"/>
       <path id="DejaVuSans-6f" d="M 1959 3097 
Q 1497 3097 1228 2736 
Q 959 2375 959 1747 
Q 959 1119 1226 758 
Q 1494 397 1959 397 
Q 2419 397 2687 759 
Q 2956 1122 2956 1747 
Q 2956 2369 2687 2733 
Q 2419 3097 1959 3097 
z
M 1959 3584 
Q 2709 3584 3137 3096 
Q 3566 2609 3566 1747 
Q 3566 888 3137 398 
Q 2709 -91 1959 -91 
Q 1206 -91 779 398 
Q 353 888 353 1747 
Q 353 2609 779 3096 
Q 1206 3584 1959 3584 
z
" transform="scale(0.015625)"/>
       <path id="DejaVuSans-75" d="M 544 1381 
L 544 3500 
L 1119 3500 
L 1119 1403 
Q 1119 906 1312 657 
Q 1506 409 1894 409 
Q 2359 409 2629 706 
Q 2900 1003 2900 1516 
L 2900 3500 
L 3475 3500 
L 3475 0 
L 2900 0 
L 2900 538 
Q 2691 219 2414 64 
Q 2138 -91 1772 -91 
Q 1169 -91 856 284 
Q 544 659 544 1381 
z
M 1991 3584 
L 1991 3584 
z
" transform="scale(0.015625)"/>
       <path id="DejaVuSans-6e" d="M 3513 2113 
L 3513 0 
L 2938 0 
L 2938 2094 
Q 2938 2591 2744 2837 
Q 2550 3084 2163 3084 
Q 1697 3084 1428 2787 
Q 1159 2491 1159 1978 
L 1159 0 
L 581 0 
L 581 3500 
L 1159 3500 
L 1159 2956 
Q 1366 3272 1645 3428 
Q 1925 3584 2291 3584 
Q 2894 3584 3203 3211 
Q 3513 2838 3513 2113 
z
" transform="scale(0.015625)"/>
      </defs>
      <use xlink:href="#DejaVuSans-50"/>
      <use xlink:href="#DejaVuSans-65" x="56.677734"/>
      <use xlink:href="#DejaVuSans-6c" x="118.201172"/>
      <use xlink:href="#DejaVuSans-6c" x="145.984375"/>
      <use xlink:href="#DejaVuSans-65" x="173.767578"/>
      <use xlink:href="#DejaVuSans-74" x="235.291016"/>
      <use xlink:href="#DejaVuSans-5f" x="274.5"/>
      <use xlink:href="#DejaVuSans-43" x="324.5"/>
      <use xlink:href="#DejaVuSans-6f" x="394.324219"/>
      <use xlink:href="#DejaVuSans-75" x="455.505859"/>
      <use xlink:href="#DejaVuSans-6e" x="518.884766"/>
      <use xlink:href="#DejaVuSans-74" x="582.263672"/>
     </g>
    </g>
   </g>
   <g id="line2d_19">
    <path d="M 99.962273 344.397187 
L 124.595369 344.397187 
L 135.191223 343.535649 
L 135.553474 343.535649 
L 135.764787 342.674111 
L 136.348415 342.674111 
L 136.519478 341.812572 
L 137.596169 341.812572 
L 137.918171 340.951034 
L 138.320672 340.951034 
L 138.582298 340.089495 
L 140.474056 340.089495 
L 140.715557 339.227957 
L 141.701685 339.227957 
L 141.741936 338.366418 
L 142.677752 338.366418 
L 142.939378 337.50488 
L 144.026132 337.50488 
L 144.026132 337.50488 
L 144.09657 336.643341 
L 144.790885 336.643341 
L 145.002198 335.781803 
L 147.648646 335.781803 
L 147.94046 334.920264 
L 148.473774 334.920264 
L 148.564337 334.058726 
L 149.32909 334.058726 
L 149.36934 333.197187 
L 150.063656 333.197187 
L 150.083781 332.335649 
L 150.727783 332.335649 
L 150.757971 331.474111 
L 151.693787 331.474111 
L 151.723974 330.612572 
L 152.035913 330.612572 
L 152.066101 329.751034 
L 152.57929 329.751034 
L 152.669853 328.889495 
L 153.484919 328.889495 
L 153.505044 328.027957 
L 154.581736 328.027957 
L 154.601861 327.166418 
L 158.576564 327.166418 
L 158.626876 326.30488 
L 159.019315 326.30488 
L 159.029378 325.443341 
L 159.280941 325.443341 
L 159.280941 325.443341 
L 159.502317 324.581803 
L 159.824319 324.581803 
L 159.854506 323.720264 
L 160.448196 323.720264 
L 160.468321 322.858726 
L 160.760135 322.858726 
L 160.800385 321.997187 
L 185.634732 321.997187 
L 185.685044 321.135649 
L 187.204488 321.135649 
L 187.244738 320.274111 
L 187.667365 320.274111 
L 187.697552 319.412572 
L 188.009491 319.412572 
L 188.019553 318.551034 
L 188.210742 318.551034 
L 188.371742 317.689495 
L 188.754119 317.689495 
L 188.754119 317.689495 
L 188.814494 316.827957 
L 189.337746 316.827957 
L 189.388059 315.966418 
L 196.08971 315.966418 
L 196.109835 315.10488 
L 196.391586 315.10488 
L 196.421774 314.243341 
L 197.347527 314.243341 
L 197.488403 313.381803 
L 198.565095 313.381803 
L 198.58522 312.520264 
L 198.947471 312.520264 
L 198.987721 311.658726 
L 203.89824 311.658726 
L 203.908303 310.797187 
L 204.200117 310.797187 
L 204.33093 309.935649 
L 204.673056 309.935649 
L 204.743494 309.074111 
L 209.804951 309.074111 
L 209.845201 308.212572 
L 215.027409 308.212572 
L 215.057596 307.351034 
L 215.329285 307.351034 
L 215.460098 306.489495 
L 215.741849 306.489495 
L 215.792162 305.627957 
L 217.281418 305.627957 
L 217.301543 304.766418 
L 217.482668 304.766418 
L 217.522918 303.90488 
L 220.843556 303.90488 
L 221.155495 303.043341 
L 221.960498 303.043341 
L 221.990686 302.181803 
L 223.459817 302.181803 
L 223.479942 301.320264 
L 223.922693 301.320264 
L 223.952881 300.458726 
L 224.164194 300.458726 
L 224.184319 299.597187 
L 224.606946 299.597187 
L 224.778009 298.735649 
L 228.018147 298.735649 
L 229.306152 297.874111 
L 229.950154 297.012572 
L 236.158741 297.012572 
L 236.209054 296.151034 
L 241.330886 296.151034 
L 241.381199 295.289495 
L 241.612637 295.289495 
L 241.652888 294.427957 
L 242.025201 294.427957 
L 242.035264 293.566418 
L 242.196265 293.566418 
L 242.25664 292.70488 
L 242.447828 292.70488 
L 242.478016 291.843341 
L 242.81008 291.843341 
L 243.01133 290.981803 
L 244.218835 290.981803 
L 248.173413 290.120264 
L 249.521793 290.120264 
L 249.672731 289.258726 
L 252.188366 289.258726 
L 252.278929 288.397187 
L 252.52043 288.397187 
L 252.540555 287.535649 
L 254.382 287.535649 
L 254.563125 286.674111 
L 256.897634 286.674111 
L 258.34664 285.812572 
L 258.729017 285.812572 
L 258.759204 284.951034 
L 259.071143 284.951034 
L 259.091268 284.089495 
L 264.203038 284.089495 
L 264.223163 283.227957 
L 266.658297 283.227957 
L 266.678423 282.366418 
L 267.412988 282.366418 
L 267.433113 281.50488 
L 268.026803 281.50488 
L 268.05699 280.643341 
L 269.968873 280.643341 
L 269.988998 279.781803 
L 271.709692 279.781803 
L 271.86063 278.058726 
L 274.99008 278.058726 
L 275.161143 277.197187 
L 276.026521 277.197187 
L 276.21771 276.335649 
L 278.501906 276.335649 
L 278.562281 275.474111 
L 279.296847 275.474111 
L 279.46791 274.612572 
L 280.514414 274.612572 
L 280.81629 273.751034 
L 281.128229 273.751034 
L 281.319417 272.889495 
L 281.601168 272.889495 
L 281.621293 272.027957 
L 282.174733 272.027957 
L 282.265296 271.166418 
L 293.565527 271.166418 
L 293.61584 270.30488 
L 294.300093 270.30488 
L 294.300093 270.30488 
L 294.440968 269.443341 
L 294.440968 269.443341 
L 294.481218 269.443341 
L 294.491281 268.581803 
L 295.175534 268.581803 
L 295.205721 267.720264 
L 295.326472 267.720264 
L 295.356659 266.858726 
L 295.678661 266.858726 
L 295.688723 265.997187 
L 296.735227 265.997187 
L 296.755352 265.135649 
L 298.838298 265.135649 
L 299.341425 264.274111 
L 303.567691 264.274111 
L 303.587816 263.412572 
L 304.483382 263.412572 
L 310.017779 262.551034 
L 313.630231 262.551034 
L 316.548367 261.689495 
L 320.211131 261.689495 
L 320.271506 260.827957 
L 322.294077 260.827957 
L 322.34439 259.966418 
L 326.701469 259.966418 
L 326.731657 259.10488 
L 326.953033 259.10488 
L 327.053658 258.243341 
L 327.355534 258.243341 
L 327.385722 257.381803 
L 327.607098 257.381803 
L 327.627223 256.520264 
L 327.838536 256.520264 
L 327.838536 256.520264 
L 327.888849 255.658726 
L 328.039787 255.658726 
L 328.069974 254.797187 
L 328.190725 254.797187 
L 328.220912 253.935649 
L 335.767817 253.935649 
L 335.787942 253.074111 
L 336.140131 253.074111 
L 336.160256 252.212572 
L 336.321257 252.212572 
L 336.321257 252.212572 
L 336.361507 251.351034 
L 336.53257 251.351034 
L 336.552695 250.489495 
L 336.733821 250.489495 
L 336.743883 249.627957 
L 336.945134 249.627957 
L 336.985384 248.766418 
L 337.20676 248.766418 
L 337.216823 247.90488 
L 345.941044 247.90488 
L 345.971232 247.043341 
L 347.913302 247.043341 
L 347.943489 246.181803 
L 348.174928 246.181803 
L 348.205115 245.320264 
L 348.436554 245.320264 
L 362.383233 244.458726 
L 362.413421 243.597187 
L 362.715297 243.597187 
L 362.745485 242.735649 
L 363.137924 242.735649 
L 363.158049 241.874111 
L 363.48005 241.874111 
L 363.500175 241.012572 
L 363.751738 241.012572 
L 363.781926 240.151034 
L 363.942927 240.151034 
L 363.973114 239.289495 
L 364.295116 239.289495 
L 364.335366 238.427957 
L 374.468343 238.427957 
L 374.508593 237.566418 
L 374.820532 237.566418 
L 374.93122 236.70488 
L 375.212971 236.70488 
L 375.243158 235.843341 
L 375.595347 235.843341 
L 375.60541 234.981803 
L 375.826786 234.981803 
L 375.846911 234.120264 
L 376.088412 234.120264 
L 376.118599 233.258726 
L 376.31985 233.258726 
L 376.350038 232.397187 
L 376.601601 232.397187 
L 376.621726 231.535649 
L 386.724515 231.535649 
L 386.754703 230.674111 
L 387.106892 230.674111 
L 387.127017 229.812572 
L 387.358455 229.812572 
L 387.378581 228.951034 
L 387.650269 228.951034 
L 387.670394 228.089495 
L 387.871645 228.089495 
L 387.89177 227.227957 
L 399.534128 227.227957 
L 399.564316 226.366418 
L 401.023384 226.366418 
L 401.043509 225.50488 
L 403.589331 225.50488 
L 403.649706 224.643341 
L 407.020657 224.643341 
L 407.040782 223.781803 
L 407.221908 223.781803 
L 407.242033 222.920264 
L 407.473471 222.920264 
L 407.483534 222.058726 
L 407.654597 222.058726 
L 407.66466 221.197187 
L 407.86591 221.197187 
L 408.026911 219.474111 
L 408.137599 219.474111 
L 408.167787 218.612572 
L 413.309744 218.612572 
L 413.319807 217.751034 
L 416.469381 217.751034 
L 416.559944 216.889495 
L 416.78132 216.889495 
L 416.801445 216.027957 
L 421.2994 216.027957 
L 421.329588 215.166418 
L 421.802527 215.166418 
L 421.822652 214.30488 
L 422.033966 214.30488 
L 422.044028 213.443341 
L 422.184904 213.443341 
L 422.225154 212.581803 
L 425.274103 212.581803 
L 425.294228 211.720264 
L 427.618675 211.720264 
L 427.628737 210.858726 
L 427.850113 210.858726 
L 427.860176 209.997187 
L 431.875129 209.997187 
L 431.905317 209.135649 
L 432.136755 209.135649 
L 433.525385 208.274111 
L 437.600714 208.274111 
L 437.620839 207.412572 
L 440.176724 207.412572 
L 441.001852 206.551034 
L 441.776668 206.551034 
L 441.816918 205.689495 
L 442.088606 205.689495 
L 442.098669 204.827957 
L 442.330107 204.827957 
L 442.34017 203.966418 
L 446.274623 203.966418 
L 446.294748 203.10488 
L 446.586561 203.10488 
L 446.596624 202.243341 
L 446.807937 202.243341 
L 446.93875 201.381803 
L 447.160126 201.381803 
L 447.170189 200.520264 
L 447.351314 200.520264 
L 447.381502 199.658726 
L 452.634147 199.658726 
L 452.805211 198.797187 
L 461.438869 198.797187 
L 461.710558 197.935649 
L 468.090208 197.935649 
L 468.120395 197.074111 
L 468.321646 197.074111 
L 468.331709 196.212572 
L 468.482647 196.212572 
L 468.502772 195.351034 
L 468.673835 195.351034 
L 468.683897 194.489495 
L 468.865023 194.489495 
L 469.015961 192.766418 
L 469.106524 192.766418 
L 469.106524 192.766418 
L 469.267525 191.043341 
L 469.428525 191.043341 
L 469.44865 190.181803 
L 476.079864 190.181803 
L 476.110051 189.320264 
L 478.122559 189.320264 
L 478.132622 188.458726 
L 478.353998 188.458726 
L 478.36406 187.597187 
L 478.504936 187.597187 
L 478.525061 186.735649 
L 478.655874 186.735649 
L 478.796749 185.012572 
L 478.95775 185.012572 
L 478.967813 184.151034 
L 490.831546 184.151034 
L 490.851671 183.289495 
L 491.04286 183.289495 
L 491.08311 182.427957 
L 498.650139 182.427957 
L 498.680327 181.566418 
L 498.85139 181.566418 
L 499.002328 179.843341 
L 499.173391 179.843341 
L 499.183454 178.981803 
L 499.334392 178.981803 
L 499.475267 177.258726 
L 499.636268 177.258726 
L 499.646331 176.397187 
L 499.887832 176.397187 
L 499.887832 176.397187 
L 499.928082 175.535649 
L 506.166856 175.535649 
L 506.197044 174.674111 
L 509.608244 174.674111 
L 509.688745 172.951034 
L 509.86987 172.951034 
L 509.879933 172.089495 
L 510.020809 172.089495 
L 510.040934 171.227957 
L 510.181809 171.227957 
L 510.201934 170.366418 
L 510.34281 170.366418 
L 510.362935 169.50488 
L 518.362654 169.50488 
L 518.382779 168.643341 
L 520.958789 168.643341 
L 520.978914 167.781803 
L 523.846737 167.781803 
L 527.429001 166.920264 
L 527.439064 166.058726 
L 527.66044 166.058726 
L 527.670502 165.197187 
L 534.543217 165.197187 
L 534.593529 164.335649 
L 535.589721 163.474111 
L 538.940546 163.474111 
L 538.960671 162.612572 
L 539.131735 162.612572 
L 539.252485 160.889495 
L 539.433611 160.889495 
L 539.443673 160.027957 
L 539.574486 160.027957 
L 539.594611 159.166418 
L 540.067551 159.166418 
L 546.306325 158.30488 
L 549.103711 158.30488 
L 549.123836 157.443341 
L 549.365337 157.443341 
L 549.375399 156.581803 
L 549.506212 156.581803 
L 549.526338 155.720264 
L 549.677276 155.720264 
L 549.697401 154.858726 
L 574.702811 154.858726 
L 578.607076 153.997187 
L 585.43954 153.997187 
L 585.570353 152.274111 
L 585.751479 152.274111 
L 585.771604 151.412572 
L 585.892354 151.412572 
L 585.912479 150.551034 
L 586.07348 150.551034 
L 586.083543 149.689495 
L 586.224418 149.689495 
L 586.365294 147.966418 
L 586.506169 147.966418 
L 586.657107 146.243341 
L 586.767795 146.243341 
L 586.78792 145.381803 
L 603.823799 145.381803 
L 603.833862 144.520264 
L 604.357114 144.520264 
L 604.377239 143.658726 
L 604.518114 143.658726 
L 604.528177 142.797187 
L 616.452286 142.797187 
L 616.472411 141.935649 
L 704.237878 141.935649 
L 704.258003 141.074111 
L 704.419004 141.074111 
L 704.439129 140.212572 
L 714.340667 140.212572 
L 714.380918 139.351034 
L 714.632481 139.351034 
L 714.652606 138.489495 
L 714.793482 138.489495 
L 714.813607 137.627957 
L 714.954482 137.627957 
L 714.974607 136.766418 
L 715.125546 136.766418 
L 715.145671 135.90488 
L 715.346921 135.90488 
L 715.356984 135.043341 
L 715.507922 135.043341 
L 715.528047 134.181803 
L 715.779611 134.181803 
L 781.498054 133.320264 
L 781.518179 132.458726 
L 781.689242 132.458726 
L 781.71943 131.597187 
L 782.131994 131.597187 
L 782.152119 130.735649 
L 782.343308 130.735649 
L 782.373495 129.874111 
L 782.524433 129.874111 
L 782.534496 129.012572 
L 782.705559 129.012572 
L 782.705559 129.012572 
L 782.745809 128.151034 
L 795.897548 128.151034 
L 796.229612 127.289495 
L 796.239674 126.427957 
L 799.610625 126.427957 
L 799.63075 125.566418 
L 799.821938 125.566418 
L 799.842063 124.70488 
L 800.043314 124.70488 
L 800.063439 123.843341 
L 807.046841 123.843341 
L 807.640531 122.981803 
L 810.52848 122.981803 
L 810.558668 122.120264 
L 840.76641 122.120264 
L 840.786535 121.258726 
L 840.977724 121.258726 
L 840.997849 120.397187 
L 841.128662 120.397187 
L 841.158849 119.535649 
L 841.339975 119.535649 
L 841.380225 118.674111 
L 841.672039 118.674111 
L 841.692164 117.812572 
L 842.406604 117.812572 
L 842.537417 116.089495 
L 842.66823 116.089495 
L 842.698418 115.227957 
L 842.879544 115.227957 
L 842.899669 114.366418 
L 843.14117 114.366418 
L 843.191482 113.50488 
L 872.403034 113.50488 
L 872.473471 112.643341 
L 872.644535 112.643341 
L 872.714972 111.781803 
L 872.875973 111.781803 
L 872.896098 110.920264 
L 873.047036 110.920264 
L 873.047036 110.920264 
L 873.097349 110.058726 
L 904.915098 110.058726 
L 904.92516 109.197187 
L 905.045911 109.197187 
L 905.066036 108.335649 
L 905.388037 108.335649 
L 905.408162 107.474111 
L 905.770414 107.474111 
L 905.770414 107.474111 
L 905.941477 105.751034 
L 906.19304 105.751034 
L 906.203103 104.889495 
L 953.708351 104.889495 
L 953.728476 104.027957 
L 954.151102 104.027957 
L 954.161165 103.166418 
L 954.463041 103.166418 
L 954.483166 102.30488 
L 954.613979 102.30488 
L 954.754855 100.581803 
L 955.016481 100.581803 
L 955.036606 99.720264 
L 955.207669 99.720264 
L 955.227794 98.858726 
L 955.418982 98.858726 
L 955.429045 97.997187 
L 971.740421 97.997187 
L 971.760546 97.135649 
L 972.313986 97.135649 
L 972.464924 95.412572 
L 972.595737 95.412572 
L 972.736612 93.689495 
L 985.576412 93.689495 
L 985.596537 92.827957 
L 985.717288 92.827957 
L 985.737413 91.966418 
L 1001.847538 91.966418 
L 1001.867663 91.10488 
L 1002.058851 91.10488 
L 1002.078977 90.243341 
L 1002.219852 90.243341 
L 1002.229915 89.381803 
L 1002.511666 89.381803 
L 1002.531791 88.520264 
L 1002.743104 88.520264 
L 1002.863855 87.658726 
L 1002.88398 86.797187 
L 1013.82196 86.797187 
L 1013.842085 85.935649 
L 1013.962835 85.935649 
L 1013.98296 85.074111 
L 1014.133899 85.074111 
L 1014.294899 83.351034 
L 1030.877964 83.351034 
L 1030.898089 82.489495 
L 1031.129527 82.489495 
L 1031.280465 80.766418 
L 1037.066425 80.766418 
L 1037.08655 79.90488 
L 1043.637264 79.90488 
L 1043.647326 79.043341 
L 1044.603267 79.043341 
L 1044.643517 78.181803 
L 1044.784393 78.181803 
L 1044.804518 77.320264 
L 1044.955456 77.320264 
L 1045.076207 76.458726 
L 1045.106394 75.597187 
L 1045.227145 75.597187 
L 1045.237207 74.735649 
L 1045.398208 74.735649 
L 1045.40827 73.874111 
L 1045.529021 73.874111 
L 1045.549146 73.012572 
L 1055.933686 73.012572 
L 1055.973937 72.151034 
L 1056.909753 72.151034 
L 1057.060691 70.427957 
L 1057.211629 70.427957 
L 1057.241817 69.566418 
L 1063.95353 69.566418 
L 1063.973655 68.70488 
L 1064.104468 68.70488 
L 1064.134656 67.843341 
L 1064.275531 67.843341 
L 1064.285594 66.981803 
L 1064.416407 66.981803 
L 1064.436532 66.120264 
L 1064.667971 66.120264 
L 1064.678033 65.258726 
L 1064.839034 65.258726 
L 1064.859159 64.397187 
L 1065.06041 64.397187 
L 1065.080535 63.535649 
L 1072.3155 63.535649 
L 1072.718002 62.674111 
L 1075.012261 62.674111 
L 1075.032386 61.812572 
L 1075.173261 61.812572 
L 1075.193387 60.951034 
L 1075.344325 60.951034 
L 1075.455013 59.227957 
L 1075.616013 59.227957 
L 1075.756889 57.50488 
L 1075.99839 57.50488 
L 1076.15939 55.781803 
L 1082.830854 55.781803 
L 1082.850979 54.920264 
L 1085.809365 54.920264 
L 1085.82949 54.058726 
L 1085.980429 54.058726 
L 1086.000554 53.197187 
L 1087.499872 53.197187 
L 1087.53006 52.335649 
L 1091.45445 52.335649 
L 1091.474575 51.474111 
L 1091.665763 51.474111 
L 1091.675826 50.612572 
L 1091.836826 50.612572 
L 1091.856951 49.751034 
L 1091.977702 49.751034 
L 1091.997827 48.889495 
L 1092.199078 48.889495 
L 1092.329891 47.166418 
L 1092.480829 47.166418 
L 1092.511017 46.30488 
L 1092.651892 46.30488 
L 1092.672017 45.443341 
L 1092.873268 45.443341 
L 1092.88333 44.581803 
L 1101.134613 44.581803 
L 1101.20505 42.858726 
L 1106.658947 42.858726 
L 1114.507727 41.997187 
L 1114.507727 41.997187 
" clip-path="url(#p11378b3d6c)" style="fill: none; stroke: #0000ff; stroke-width: 1.5; stroke-linecap: square"/>
   </g>
   <g id="patch_88">
    <path d="M 49.235 359.517187 
L 49.235 26.877187 
" style="fill: none; stroke: #000000; stroke-width: 0.8; stroke-linejoin: miter; stroke-linecap: square"/>
   </g>
   <g id="patch_89">
    <path d="M 1165.235 359.517187 
L 1165.235 26.877187 
" style="fill: none; stroke: #000000; stroke-width: 0.8; stroke-linejoin: miter; stroke-linecap: square"/>
   </g>
   <g id="patch_90">
    <path d="M 49.235 359.517187 
L 1165.235 359.517187 
" style="fill: none; stroke: #000000; stroke-width: 0.8; stroke-linejoin: miter; stroke-linecap: square"/>
   </g>
   <g id="patch_91">
    <path d="M 49.235 26.877187 
L 1165.235 26.877187 
" style="fill: none; stroke: #000000; stroke-width: 0.8; stroke-linejoin: miter; stroke-linecap: square"/>
   </g>
   <g id="text_21">
    <!-- Pellet Count and Cumulative Sum Over Time of Group cask Mouse M26 -->
    <g transform="translate(287.331406 20.877187) scale(0.18 -0.18)">
     <defs>
      <path id="DejaVuSans-61" d="M 2194 1759 
Q 1497 1759 1228 1600 
Q 959 1441 959 1056 
Q 959 750 1161 570 
Q 1363 391 1709 391 
Q 2188 391 2477 730 
Q 2766 1069 2766 1631 
L 2766 1759 
L 2194 1759 
z
M 3341 1997 
L 3341 0 
L 2766 0 
L 2766 531 
Q 2569 213 2275 61 
Q 1981 -91 1556 -91 
Q 1019 -91 701 211 
Q 384 513 384 1019 
Q 384 1609 779 1909 
Q 1175 2209 1959 2209 
L 2766 2209 
L 2766 2266 
Q 2766 2663 2505 2880 
Q 2244 3097 1772 3097 
Q 1472 3097 1187 3025 
Q 903 2953 641 2809 
L 641 3341 
Q 956 3463 1253 3523 
Q 1550 3584 1831 3584 
Q 2591 3584 2966 3190 
Q 3341 2797 3341 1997 
z
" transform="scale(0.015625)"/>
      <path id="DejaVuSans-64" d="M 2906 2969 
L 2906 4863 
L 3481 4863 
L 3481 0 
L 2906 0 
L 2906 525 
Q 2725 213 2448 61 
Q 2172 -91 1784 -91 
Q 1150 -91 751 415 
Q 353 922 353 1747 
Q 353 2572 751 3078 
Q 1150 3584 1784 3584 
Q 2172 3584 2448 3432 
Q 2725 3281 2906 2969 
z
M 947 1747 
Q 947 1113 1208 752 
Q 1469 391 1925 391 
Q 2381 391 2643 752 
Q 2906 1113 2906 1747 
Q 2906 2381 2643 2742 
Q 2381 3103 1925 3103 
Q 1469 3103 1208 2742 
Q 947 2381 947 1747 
z
" transform="scale(0.015625)"/>
      <path id="DejaVuSans-76" d="M 191 3500 
L 800 3500 
L 1894 563 
L 2988 3500 
L 3597 3500 
L 2284 0 
L 1503 0 
L 191 3500 
z
" transform="scale(0.015625)"/>
      <path id="DejaVuSans-53" d="M 3425 4513 
L 3425 3897 
Q 3066 4069 2747 4153 
Q 2428 4238 2131 4238 
Q 1616 4238 1336 4038 
Q 1056 3838 1056 3469 
Q 1056 3159 1242 3001 
Q 1428 2844 1947 2747 
L 2328 2669 
Q 3034 2534 3370 2195 
Q 3706 1856 3706 1288 
Q 3706 609 3251 259 
Q 2797 -91 1919 -91 
Q 1588 -91 1214 -16 
Q 841 59 441 206 
L 441 856 
Q 825 641 1194 531 
Q 1563 422 1919 422 
Q 2459 422 2753 634 
Q 3047 847 3047 1241 
Q 3047 1584 2836 1778 
Q 2625 1972 2144 2069 
L 1759 2144 
Q 1053 2284 737 2584 
Q 422 2884 422 3419 
Q 422 4038 858 4394 
Q 1294 4750 2059 4750 
Q 2388 4750 2728 4690 
Q 3069 4631 3425 4513 
z
" transform="scale(0.015625)"/>
      <path id="DejaVuSans-4f" d="M 2522 4238 
Q 1834 4238 1429 3725 
Q 1025 3213 1025 2328 
Q 1025 1447 1429 934 
Q 1834 422 2522 422 
Q 3209 422 3611 934 
Q 4013 1447 4013 2328 
Q 4013 3213 3611 3725 
Q 3209 4238 2522 4238 
z
M 2522 4750 
Q 3503 4750 4090 4092 
Q 4678 3434 4678 2328 
Q 4678 1225 4090 567 
Q 3503 -91 2522 -91 
Q 1538 -91 948 565 
Q 359 1222 359 2328 
Q 359 3434 948 4092 
Q 1538 4750 2522 4750 
z
" transform="scale(0.015625)"/>
      <path id="DejaVuSans-72" d="M 2631 2963 
Q 2534 3019 2420 3045 
Q 2306 3072 2169 3072 
Q 1681 3072 1420 2755 
Q 1159 2438 1159 1844 
L 1159 0 
L 581 0 
L 581 3500 
L 1159 3500 
L 1159 2956 
Q 1341 3275 1631 3429 
Q 1922 3584 2338 3584 
Q 2397 3584 2469 3576 
Q 2541 3569 2628 3553 
L 2631 2963 
z
" transform="scale(0.015625)"/>
      <path id="DejaVuSans-66" d="M 2375 4863 
L 2375 4384 
L 1825 4384 
Q 1516 4384 1395 4259 
Q 1275 4134 1275 3809 
L 1275 3500 
L 2222 3500 
L 2222 3053 
L 1275 3053 
L 1275 0 
L 697 0 
L 697 3053 
L 147 3053 
L 147 3500 
L 697 3500 
L 697 3744 
Q 697 4328 969 4595 
Q 1241 4863 1831 4863 
L 2375 4863 
z
" transform="scale(0.015625)"/>
      <path id="DejaVuSans-47" d="M 3809 666 
L 3809 1919 
L 2778 1919 
L 2778 2438 
L 4434 2438 
L 4434 434 
Q 4069 175 3628 42 
Q 3188 -91 2688 -91 
Q 1594 -91 976 548 
Q 359 1188 359 2328 
Q 359 3472 976 4111 
Q 1594 4750 2688 4750 
Q 3144 4750 3555 4637 
Q 3966 4525 4313 4306 
L 4313 3634 
Q 3963 3931 3569 4081 
Q 3175 4231 2741 4231 
Q 1884 4231 1454 3753 
Q 1025 3275 1025 2328 
Q 1025 1384 1454 906 
Q 1884 428 2741 428 
Q 3075 428 3337 486 
Q 3600 544 3809 666 
z
" transform="scale(0.015625)"/>
      <path id="DejaVuSans-70" d="M 1159 525 
L 1159 -1331 
L 581 -1331 
L 581 3500 
L 1159 3500 
L 1159 2969 
Q 1341 3281 1617 3432 
Q 1894 3584 2278 3584 
Q 2916 3584 3314 3078 
Q 3713 2572 3713 1747 
Q 3713 922 3314 415 
Q 2916 -91 2278 -91 
Q 1894 -91 1617 61 
Q 1341 213 1159 525 
z
M 3116 1747 
Q 3116 2381 2855 2742 
Q 2594 3103 2138 3103 
Q 1681 3103 1420 2742 
Q 1159 2381 1159 1747 
Q 1159 1113 1420 752 
Q 1681 391 2138 391 
Q 2594 391 2855 752 
Q 3116 1113 3116 1747 
z
" transform="scale(0.015625)"/>
      <path id="DejaVuSans-63" d="M 3122 3366 
L 3122 2828 
Q 2878 2963 2633 3030 
Q 2388 3097 2138 3097 
Q 1578 3097 1268 2742 
Q 959 2388 959 1747 
Q 959 1106 1268 751 
Q 1578 397 2138 397 
Q 2388 397 2633 464 
Q 2878 531 3122 666 
L 3122 134 
Q 2881 22 2623 -34 
Q 2366 -91 2075 -91 
Q 1284 -91 818 406 
Q 353 903 353 1747 
Q 353 2603 823 3093 
Q 1294 3584 2113 3584 
Q 2378 3584 2631 3529 
Q 2884 3475 3122 3366 
z
" transform="scale(0.015625)"/>
      <path id="DejaVuSans-73" d="M 2834 3397 
L 2834 2853 
Q 2591 2978 2328 3040 
Q 2066 3103 1784 3103 
Q 1356 3103 1142 2972 
Q 928 2841 928 2578 
Q 928 2378 1081 2264 
Q 1234 2150 1697 2047 
L 1894 2003 
Q 2506 1872 2764 1633 
Q 3022 1394 3022 966 
Q 3022 478 2636 193 
Q 2250 -91 1575 -91 
Q 1294 -91 989 -36 
Q 684 19 347 128 
L 347 722 
Q 666 556 975 473 
Q 1284 391 1588 391 
Q 1994 391 2212 530 
Q 2431 669 2431 922 
Q 2431 1156 2273 1281 
Q 2116 1406 1581 1522 
L 1381 1569 
Q 847 1681 609 1914 
Q 372 2147 372 2553 
Q 372 3047 722 3315 
Q 1072 3584 1716 3584 
Q 2034 3584 2315 3537 
Q 2597 3491 2834 3397 
z
" transform="scale(0.015625)"/>
      <path id="DejaVuSans-6b" d="M 581 4863 
L 1159 4863 
L 1159 1991 
L 2875 3500 
L 3609 3500 
L 1753 1863 
L 3688 0 
L 2938 0 
L 1159 1709 
L 1159 0 
L 581 0 
L 581 4863 
z
" transform="scale(0.015625)"/>
      <path id="DejaVuSans-4d" d="M 628 4666 
L 1569 4666 
L 2759 1491 
L 3956 4666 
L 4897 4666 
L 4897 0 
L 4281 0 
L 4281 4097 
L 3078 897 
L 2444 897 
L 1241 4097 
L 1241 0 
L 628 0 
L 628 4666 
z
" transform="scale(0.015625)"/>
     </defs>
     <use xlink:href="#DejaVuSans-50"/>
     <use xlink:href="#DejaVuSans-65" x="56.677734"/>
     <use xlink:href="#DejaVuSans-6c" x="118.201172"/>
     <use xlink:href="#DejaVuSans-6c" x="145.984375"/>
     <use xlink:href="#DejaVuSans-65" x="173.767578"/>
     <use xlink:href="#DejaVuSans-74" x="235.291016"/>
     <use xlink:href="#DejaVuSans-20" x="274.5"/>
     <use xlink:href="#DejaVuSans-43" x="306.287109"/>
     <use xlink:href="#DejaVuSans-6f" x="376.111328"/>
     <use xlink:href="#DejaVuSans-75" x="437.292969"/>
     <use xlink:href="#DejaVuSans-6e" x="500.671875"/>
     <use xlink:href="#DejaVuSans-74" x="564.050781"/>
     <use xlink:href="#DejaVuSans-20" x="603.259766"/>
     <use xlink:href="#DejaVuSans-61" x="635.046875"/>
     <use xlink:href="#DejaVuSans-6e" x="696.326172"/>
     <use xlink:href="#DejaVuSans-64" x="759.705078"/>
     <use xlink:href="#DejaVuSans-20" x="823.181641"/>
     <use xlink:href="#DejaVuSans-43" x="854.96875"/>
     <use xlink:href="#DejaVuSans-75" x="924.792969"/>
     <use xlink:href="#DejaVuSans-6d" x="988.171875"/>
     <use xlink:href="#DejaVuSans-75" x="1085.583984"/>
     <use xlink:href="#DejaVuSans-6c" x="1148.962891"/>
     <use xlink:href="#DejaVuSans-61" x="1176.746094"/>
     <use xlink:href="#DejaVuSans-74" x="1238.025391"/>
     <use xlink:href="#DejaVuSans-69" x="1277.234375"/>
     <use xlink:href="#DejaVuSans-76" x="1305.017578"/>
     <use xlink:href="#DejaVuSans-65" x="1364.197266"/>
     <use xlink:href="#DejaVuSans-20" x="1425.720703"/>
     <use xlink:href="#DejaVuSans-53" x="1457.507812"/>
     <use xlink:href="#DejaVuSans-75" x="1520.984375"/>
     <use xlink:href="#DejaVuSans-6d" x="1584.363281"/>
     <use xlink:href="#DejaVuSans-20" x="1681.775391"/>
     <use xlink:href="#DejaVuSans-4f" x="1713.5625"/>
     <use xlink:href="#DejaVuSans-76" x="1792.273438"/>
     <use xlink:href="#DejaVuSans-65" x="1851.453125"/>
     <use xlink:href="#DejaVuSans-72" x="1912.976562"/>
     <use xlink:href="#DejaVuSans-20" x="1954.089844"/>
     <use xlink:href="#DejaVuSans-54" x="1985.876953"/>
     <use xlink:href="#DejaVuSans-69" x="2043.835938"/>
     <use xlink:href="#DejaVuSans-6d" x="2071.619141"/>
     <use xlink:href="#DejaVuSans-65" x="2169.03125"/>
     <use xlink:href="#DejaVuSans-20" x="2230.554688"/>
     <use xlink:href="#DejaVuSans-6f" x="2262.341797"/>
     <use xlink:href="#DejaVuSans-66" x="2323.523438"/>
     <use xlink:href="#DejaVuSans-20" x="2358.728516"/>
     <use xlink:href="#DejaVuSans-47" x="2390.515625"/>
     <use xlink:href="#DejaVuSans-72" x="2468.005859"/>
     <use xlink:href="#DejaVuSans-6f" x="2506.869141"/>
     <use xlink:href="#DejaVuSans-75" x="2568.050781"/>
     <use xlink:href="#DejaVuSans-70" x="2631.429688"/>
     <use xlink:href="#DejaVuSans-20" x="2694.90625"/>
     <use xlink:href="#DejaVuSans-63" x="2726.693359"/>
     <use xlink:href="#DejaVuSans-61" x="2781.673828"/>
     <use xlink:href="#DejaVuSans-73" x="2842.953125"/>
     <use xlink:href="#DejaVuSans-6b" x="2895.052734"/>
     <use xlink:href="#DejaVuSans-20" x="2952.962891"/>
     <use xlink:href="#DejaVuSans-4d" x="2984.75"/>
     <use xlink:href="#DejaVuSans-6f" x="3071.029297"/>
     <use xlink:href="#DejaVuSans-75" x="3132.210938"/>
     <use xlink:href="#DejaVuSans-73" x="3195.589844"/>
     <use xlink:href="#DejaVuSans-65" x="3247.689453"/>
     <use xlink:href="#DejaVuSans-20" x="3309.212891"/>
     <use xlink:href="#DejaVuSans-4d" x="3341"/>
     <use xlink:href="#DejaVuSans-32" x="3427.279297"/>
     <use xlink:href="#DejaVuSans-36" x="3490.902344"/>
    </g>
   </g>
   <g id="legend_1">
    <g id="patch_92">
     <path d="M 1086.550625 64.233437 
L 1158.235 64.233437 
Q 1160.235 64.233437 1160.235 62.233437 
L 1160.235 33.877187 
Q 1160.235 31.877187 1158.235 31.877187 
L 1086.550625 31.877187 
Q 1084.550625 31.877187 1084.550625 33.877187 
L 1084.550625 62.233437 
Q 1084.550625 64.233437 1086.550625 64.233437 
z
" style="fill: #ffffff; opacity: 0.8; stroke: #cccccc; stroke-linejoin: miter"/>
    </g>
    <g id="patch_93">
     <path d="M 1088.550625 43.475625 
L 1108.550625 43.475625 
L 1108.550625 36.475625 
L 1088.550625 36.475625 
z
" style="fill: #add8e6; opacity: 0.9; stroke: #add8e6; stroke-linejoin: miter"/>
    </g>
    <g id="text_22">
     <!-- Meal -->
     <g transform="translate(1116.550625 43.475625) scale(0.1 -0.1)">
      <use xlink:href="#DejaVuSans-4d"/>
      <use xlink:href="#DejaVuSans-65" x="86.279297"/>
      <use xlink:href="#DejaVuSans-61" x="147.802734"/>
      <use xlink:href="#DejaVuSans-6c" x="209.082031"/>
     </g>
    </g>
    <g id="patch_94">
     <path d="M 1088.550625 58.15375 
L 1108.550625 58.15375 
L 1108.550625 51.15375 
L 1088.550625 51.15375 
z
" style="fill: #808080; opacity: 0.5; stroke: #808080; stroke-linejoin: miter"/>
    </g>
    <g id="text_23">
     <!-- Inactive -->
     <g transform="translate(1116.550625 58.15375) scale(0.1 -0.1)">
      <defs>
       <path id="DejaVuSans-49" d="M 628 4666 
L 1259 4666 
L 1259 0 
L 628 0 
L 628 4666 
z
" transform="scale(0.015625)"/>
      </defs>
      <use xlink:href="#DejaVuSans-49"/>
      <use xlink:href="#DejaVuSans-6e" x="29.492188"/>
      <use xlink:href="#DejaVuSans-61" x="92.871094"/>
      <use xlink:href="#DejaVuSans-63" x="154.150391"/>
      <use xlink:href="#DejaVuSans-74" x="209.130859"/>
      <use xlink:href="#DejaVuSans-69" x="248.339844"/>
      <use xlink:href="#DejaVuSans-76" x="276.123047"/>
      <use xlink:href="#DejaVuSans-65" x="335.302734"/>
     </g>
    </g>
   </g>
  </g>
 </g>
 <defs>
  <clipPath id="p11378b3d6c">
   <rect x="49.235" y="26.877187" width="1116" height="332.64"/>
  </clipPath>
 </defs>
</svg>
