<?xml version="1.0" encoding="utf-8" standalone="no"?>
<!DOCTYPE svg PUBLIC "-//W3C//DTD SVG 1.1//EN"
  "http://www.w3.org/Graphics/SVG/1.1/DTD/svg11.dtd">
<svg xmlns:xlink="http://www.w3.org/1999/xlink" width="1172.435pt" height="399.009062pt" viewBox="0 0 1172.435 399.009062" xmlns="http://www.w3.org/2000/svg" version="1.1">
 <metadata>
  <rdf:RDF xmlns:dc="http://purl.org/dc/elements/1.1/" xmlns:cc="http://creativecommons.org/ns#" xmlns:rdf="http://www.w3.org/1999/02/22-rdf-syntax-ns#">
   <cc:Work>
    <dc:type rdf:resource="http://purl.org/dc/dcmitype/StillImage"/>
    <dc:date>2025-10-01T20:29:56.255962</dc:date>
    <dc:format>image/svg+xml</dc:format>
    <dc:creator>
     <cc:Agent>
      <dc:title>Matplotlib v3.8.4, https://matplotlib.org/</dc:title>
     </cc:Agent>
    </dc:creator>
   </cc:Work>
  </rdf:RDF>
 </metadata>
 <defs>
  <style type="text/css">*{stroke-linejoin: round; stroke-linecap: butt}</style>
 </defs>
 <g id="figure_1">
  <g id="patch_1">
   <path d="M 0 399.009062 
L 1172.435 399.009062 
L 1172.435 0 
L 0 0 
z
" style="fill: #ffffff"/>
  </g>
  <g id="axes_1">
   <g id="patch_2">
    <path d="M 49.235 359.517187 
L 1165.235 359.517187 
L 1165.235 26.877187 
L 49.235 26.877187 
z
" style="fill: #ffffff"/>
   </g>
   <g id="patch_3">
    <path d="M 244.19547 359.517187 
L 244.19547 26.877187 
L 244.436307 26.877187 
L 244.436307 359.517187 
z
" clip-path="url(#pdd0ad66265)" style="fill: #add8e6; stroke: #add8e6; stroke-linejoin: miter"/>
   </g>
   <g id="patch_4">
    <path d="M 269.387008 359.517187 
L 269.387008 26.877187 
L 251.603211 26.877187 
L 251.603211 359.517187 
z
" clip-path="url(#pdd0ad66265)" style="fill: #add8e6; stroke: #add8e6; stroke-linejoin: miter"/>
   </g>
   <g id="patch_5">
    <path d="M 268.347396 359.517187 
L 268.347396 26.877187 
L 268.704637 26.877187 
L 268.704637 359.517187 
z
" clip-path="url(#pdd0ad66265)" style="fill: #add8e6; stroke: #add8e6; stroke-linejoin: miter"/>
   </g>
   <g id="patch_6">
    <path d="M 272.491797 359.517187 
L 272.491797 26.877187 
L 269.453239 26.877187 
L 269.453239 359.517187 
z
" clip-path="url(#pdd0ad66265)" style="fill: #add8e6; stroke: #add8e6; stroke-linejoin: miter"/>
   </g>
   <g id="patch_7">
    <path d="M 283.879368 359.517187 
L 283.879368 26.877187 
L 283.530155 26.877187 
L 283.530155 359.517187 
z
" clip-path="url(#pdd0ad66265)" style="fill: #add8e6; stroke: #add8e6; stroke-linejoin: miter"/>
   </g>
   <g id="patch_8">
    <path d="M 315.053696 359.517187 
L 315.053696 26.877187 
L 291.104475 26.877187 
L 291.104475 359.517187 
z
" clip-path="url(#pdd0ad66265)" style="fill: #add8e6; stroke: #add8e6; stroke-linejoin: miter"/>
   </g>
   <g id="patch_9">
    <path d="M 301.125296 359.517187 
L 301.125296 26.877187 
L 300.298423 26.877187 
L 300.298423 359.517187 
z
" clip-path="url(#pdd0ad66265)" style="fill: #add8e6; stroke: #add8e6; stroke-linejoin: miter"/>
   </g>
   <g id="patch_10">
    <path d="M 309.426141 359.517187 
L 309.426141 26.877187 
L 308.639407 26.877187 
L 308.639407 359.517187 
z
" clip-path="url(#pdd0ad66265)" style="fill: #add8e6; stroke: #add8e6; stroke-linejoin: miter"/>
   </g>
   <g id="patch_11">
    <path d="M 363.929535 359.517187 
L 363.929535 26.877187 
L 336.45406 26.877187 
L 336.45406 359.517187 
z
" clip-path="url(#pdd0ad66265)" style="fill: #add8e6; stroke: #add8e6; stroke-linejoin: miter"/>
   </g>
   <g id="patch_12">
    <path d="M 368.069923 359.517187 
L 368.069923 26.877187 
L 367.935456 26.877187 
L 367.935456 359.517187 
z
" clip-path="url(#pdd0ad66265)" style="fill: #add8e6; stroke: #add8e6; stroke-linejoin: miter"/>
   </g>
   <g id="patch_13">
    <path d="M 375.676354 359.517187 
L 375.676354 26.877187 
L 375.489706 26.877187 
L 375.489706 359.517187 
z
" clip-path="url(#pdd0ad66265)" style="fill: #add8e6; stroke: #add8e6; stroke-linejoin: miter"/>
   </g>
   <g id="patch_14">
    <path d="M 386.431728 359.517187 
L 386.431728 26.877187 
L 386.411659 26.877187 
L 386.411659 359.517187 
z
" clip-path="url(#pdd0ad66265)" style="fill: #add8e6; stroke: #add8e6; stroke-linejoin: miter"/>
   </g>
   <g id="patch_15">
    <path d="M 421.188505 359.517187 
L 421.188505 26.877187 
L 396.550892 26.877187 
L 396.550892 359.517187 
z
" clip-path="url(#pdd0ad66265)" style="fill: #add8e6; stroke: #add8e6; stroke-linejoin: miter"/>
   </g>
   <g id="patch_16">
    <path d="M 397.427939 359.517187 
L 397.427939 26.877187 
L 397.486142 26.877187 
L 397.486142 359.517187 
z
" clip-path="url(#pdd0ad66265)" style="fill: #add8e6; stroke: #add8e6; stroke-linejoin: miter"/>
   </g>
   <g id="patch_17">
    <path d="M 433.661849 359.517187 
L 433.661849 26.877187 
L 406.834627 26.877187 
L 406.834627 359.517187 
z
" clip-path="url(#pdd0ad66265)" style="fill: #add8e6; stroke: #add8e6; stroke-linejoin: miter"/>
   </g>
   <g id="patch_18">
    <path d="M 430.840043 359.517187 
L 430.840043 26.877187 
L 429.780361 26.877187 
L 429.780361 359.517187 
z
" clip-path="url(#pdd0ad66265)" style="fill: #add8e6; stroke: #add8e6; stroke-linejoin: miter"/>
   </g>
   <g id="patch_19">
    <path d="M 458.516216 359.517187 
L 458.516216 26.877187 
L 438.348133 26.877187 
L 438.348133 359.517187 
z
" clip-path="url(#pdd0ad66265)" style="fill: #add8e6; stroke: #add8e6; stroke-linejoin: miter"/>
   </g>
   <g id="patch_20">
    <path d="M 439.484081 359.517187 
L 439.484081 26.877187 
L 439.094728 26.877187 
L 439.094728 359.517187 
z
" clip-path="url(#pdd0ad66265)" style="fill: #add8e6; stroke: #add8e6; stroke-linejoin: miter"/>
   </g>
   <g id="patch_21">
    <path d="M 439.775092 359.517187 
L 439.775092 26.877187 
L 438.815758 26.877187 
L 438.815758 359.517187 
z
" clip-path="url(#pdd0ad66265)" style="fill: #add8e6; stroke: #add8e6; stroke-linejoin: miter"/>
   </g>
   <g id="patch_22">
    <path d="M 452.103933 359.517187 
L 452.103933 26.877187 
L 452.400966 26.877187 
L 452.400966 359.517187 
z
" clip-path="url(#pdd0ad66265)" style="fill: #add8e6; stroke: #add8e6; stroke-linejoin: miter"/>
   </g>
   <g id="patch_23">
    <path d="M 469.88171 359.517187 
L 469.88171 26.877187 
L 470.712597 26.877187 
L 470.712597 359.517187 
z
" clip-path="url(#pdd0ad66265)" style="fill: #add8e6; stroke: #add8e6; stroke-linejoin: miter"/>
   </g>
   <g id="patch_24">
    <path d="M 502.633519 359.517187 
L 502.633519 26.877187 
L 504.289273 26.877187 
L 504.289273 359.517187 
z
" clip-path="url(#pdd0ad66265)" style="fill: #add8e6; stroke: #add8e6; stroke-linejoin: miter"/>
   </g>
   <g id="patch_25">
    <path d="M 530.703058 359.517187 
L 530.703058 26.877187 
L 515.456076 26.877187 
L 515.456076 359.517187 
z
" clip-path="url(#pdd0ad66265)" style="fill: #add8e6; stroke: #add8e6; stroke-linejoin: miter"/>
   </g>
   <g id="patch_26">
    <path d="M 523.042438 359.517187 
L 523.042438 26.877187 
L 522.329963 26.877187 
L 522.329963 359.517187 
z
" clip-path="url(#pdd0ad66265)" style="fill: #add8e6; stroke: #add8e6; stroke-linejoin: miter"/>
   </g>
   <g id="patch_27">
    <path d="M 529.354372 359.517187 
L 529.354372 26.877187 
L 530.32374 26.877187 
L 530.32374 359.517187 
z
" clip-path="url(#pdd0ad66265)" style="fill: #add8e6; stroke: #add8e6; stroke-linejoin: miter"/>
   </g>
   <g id="patch_28">
    <path d="M 579.488584 359.517187 
L 579.488584 26.877187 
L 546.134682 26.877187 
L 546.134682 359.517187 
z
" clip-path="url(#pdd0ad66265)" style="fill: #add8e6; stroke: #add8e6; stroke-linejoin: miter"/>
   </g>
   <g id="patch_29">
    <path d="M 559.657673 359.517187 
L 559.657673 26.877187 
L 559.619541 26.877187 
L 559.619541 359.517187 
z
" clip-path="url(#pdd0ad66265)" style="fill: #add8e6; stroke: #add8e6; stroke-linejoin: miter"/>
   </g>
   <g id="patch_30">
    <path d="M 573.228832 359.517187 
L 573.228832 26.877187 
L 573.116441 26.877187 
L 573.116441 359.517187 
z
" clip-path="url(#pdd0ad66265)" style="fill: #add8e6; stroke: #add8e6; stroke-linejoin: miter"/>
   </g>
   <g id="patch_31">
    <path d="M 588.41159 359.517187 
L 588.41159 26.877187 
L 586.832102 26.877187 
L 586.832102 359.517187 
z
" clip-path="url(#pdd0ad66265)" style="fill: #add8e6; stroke: #add8e6; stroke-linejoin: miter"/>
   </g>
   <g id="patch_32">
    <path d="M 641.915512 359.517187 
L 641.915512 26.877187 
L 608.615798 26.877187 
L 608.615798 359.517187 
z
" clip-path="url(#pdd0ad66265)" style="fill: #add8e6; stroke: #add8e6; stroke-linejoin: miter"/>
   </g>
   <g id="patch_33">
    <path d="M 649.299169 359.517187 
L 649.299169 26.877187 
L 649.644369 26.877187 
L 649.644369 359.517187 
z
" clip-path="url(#pdd0ad66265)" style="fill: #add8e6; stroke: #add8e6; stroke-linejoin: miter"/>
   </g>
   <g id="patch_34">
    <path d="M 652.010591 359.517187 
L 652.010591 26.877187 
L 649.921331 26.877187 
L 649.921331 359.517187 
z
" clip-path="url(#pdd0ad66265)" style="fill: #add8e6; stroke: #add8e6; stroke-linejoin: miter"/>
   </g>
   <g id="patch_35">
    <path d="M 650.551521 359.517187 
L 650.551521 26.877187 
L 650.08791 26.877187 
L 650.08791 359.517187 
z
" clip-path="url(#pdd0ad66265)" style="fill: #add8e6; stroke: #add8e6; stroke-linejoin: miter"/>
   </g>
   <g id="patch_36">
    <path d="M 650.728135 359.517187 
L 650.728135 26.877187 
L 650.625779 26.877187 
L 650.625779 359.517187 
z
" clip-path="url(#pdd0ad66265)" style="fill: #add8e6; stroke: #add8e6; stroke-linejoin: miter"/>
   </g>
   <g id="patch_37">
    <path d="M 678.099247 359.517187 
L 678.099247 26.877187 
L 676.98939 26.877187 
L 676.98939 359.517187 
z
" clip-path="url(#pdd0ad66265)" style="fill: #add8e6; stroke: #add8e6; stroke-linejoin: miter"/>
   </g>
   <g id="patch_38">
    <path d="M 700.761998 359.517187 
L 700.761998 26.877187 
L 701.428313 26.877187 
L 701.428313 359.517187 
z
" clip-path="url(#pdd0ad66265)" style="fill: #add8e6; stroke: #add8e6; stroke-linejoin: miter"/>
   </g>
   <g id="patch_39">
    <path d="M 778.299434 359.517187 
L 778.299434 26.877187 
L 744.973629 26.877187 
L 744.973629 359.517187 
z
" clip-path="url(#pdd0ad66265)" style="fill: #add8e6; stroke: #add8e6; stroke-linejoin: miter"/>
   </g>
   <g id="patch_40">
    <path d="M 799.822223 359.517187 
L 799.822223 26.877187 
L 799.354598 26.877187 
L 799.354598 359.517187 
z
" clip-path="url(#pdd0ad66265)" style="fill: #add8e6; stroke: #add8e6; stroke-linejoin: miter"/>
   </g>
   <g id="patch_41">
    <path d="M 800.141332 359.517187 
L 800.141332 26.877187 
L 799.663672 26.877187 
L 799.663672 359.517187 
z
" clip-path="url(#pdd0ad66265)" style="fill: #add8e6; stroke: #add8e6; stroke-linejoin: miter"/>
   </g>
   <g id="patch_42">
    <path d="M 850.106958 359.517187 
L 850.106958 26.877187 
L 850.652855 26.877187 
L 850.652855 359.517187 
z
" clip-path="url(#pdd0ad66265)" style="fill: #add8e6; stroke: #add8e6; stroke-linejoin: miter"/>
   </g>
   <g id="patch_43">
    <path d="M 878.461488 359.517187 
L 878.461488 26.877187 
L 877.696831 26.877187 
L 877.696831 359.517187 
z
" clip-path="url(#pdd0ad66265)" style="fill: #add8e6; stroke: #add8e6; stroke-linejoin: miter"/>
   </g>
   <g id="patch_44">
    <path d="M 911.273507 359.517187 
L 911.273507 26.877187 
L 913.346711 26.877187 
L 913.346711 359.517187 
z
" clip-path="url(#pdd0ad66265)" style="fill: #add8e6; stroke: #add8e6; stroke-linejoin: miter"/>
   </g>
   <g id="patch_45">
    <path d="M 970.750183 359.517187 
L 970.750183 26.877187 
L 968.522441 26.877187 
L 968.522441 359.517187 
z
" clip-path="url(#pdd0ad66265)" style="fill: #add8e6; stroke: #add8e6; stroke-linejoin: miter"/>
   </g>
   <g id="patch_46">
    <path d="M 972.791275 359.517187 
L 972.791275 26.877187 
L 969.57811 26.877187 
L 969.57811 359.517187 
z
" clip-path="url(#pdd0ad66265)" style="fill: #add8e6; stroke: #add8e6; stroke-linejoin: miter"/>
   </g>
   <g id="patch_47">
    <path d="M 1040.50658 359.517187 
L 1040.50658 26.877187 
L 1041.536158 26.877187 
L 1041.536158 359.517187 
z
" clip-path="url(#pdd0ad66265)" style="fill: #add8e6; stroke: #add8e6; stroke-linejoin: miter"/>
   </g>
   <g id="patch_48">
    <path d="M 1114.507727 359.517187 
L 1114.507727 26.877187 
L 1081.723806 26.877187 
L 1081.723806 359.517187 
z
" clip-path="url(#pdd0ad66265)" style="fill: #add8e6; stroke: #add8e6; stroke-linejoin: miter"/>
   </g>
   <g id="patch_49">
    <path d="M 99.962273 359.517187 
L 99.962273 26.877187 
L 136.087806 26.877187 
L 136.087806 359.517187 
z
" clip-path="url(#pdd0ad66265)" style="fill: #808080; opacity: 0.4; stroke: #808080; stroke-linejoin: miter"/>
   </g>
   <g id="patch_50">
    <path d="M 569.594202 359.517187 
L 569.594202 26.877187 
L 1003.100597 26.877187 
L 1003.100597 359.517187 
z
" clip-path="url(#pdd0ad66265)" style="fill: #808080; opacity: 0.4; stroke: #808080; stroke-linejoin: miter"/>
   </g>
   <g id="matplotlib.axis_1">
    <g id="xtick_1">
     <g id="line2d_1">
      <defs>
       <path id="m790282874c" d="M 0 0 
L 0 3.5 
" style="stroke: #000000; stroke-width: 0.8"/>
      </defs>
      <g>
       <use xlink:href="#m790282874c" x="89.967542" y="359.517187" style="stroke: #000000; stroke-width: 0.8"/>
      </g>
     </g>
     <g id="text_1">
      <!-- 10-02 06 -->
      <g transform="translate(67.487073 374.115625) scale(0.1 -0.1)">
       <defs>
        <path id="DejaVuSans-31" d="M 794 531 
L 1825 531 
L 1825 4091 
L 703 3866 
L 703 4441 
L 1819 4666 
L 2450 4666 
L 2450 531 
L 3481 531 
L 3481 0 
L 794 0 
L 794 531 
z
" transform="scale(0.015625)"/>
        <path id="DejaVuSans-30" d="M 2034 4250 
Q 1547 4250 1301 3770 
Q 1056 3291 1056 2328 
Q 1056 1369 1301 889 
Q 1547 409 2034 409 
Q 2525 409 2770 889 
Q 3016 1369 3016 2328 
Q 3016 3291 2770 3770 
Q 2525 4250 2034 4250 
z
M 2034 4750 
Q 2819 4750 3233 4129 
Q 3647 3509 3647 2328 
Q 3647 1150 3233 529 
Q 2819 -91 2034 -91 
Q 1250 -91 836 529 
Q 422 1150 422 2328 
Q 422 3509 836 4129 
Q 1250 4750 2034 4750 
z
" transform="scale(0.015625)"/>
        <path id="DejaVuSans-2d" d="M 313 2009 
L 1997 2009 
L 1997 1497 
L 313 1497 
L 313 2009 
z
" transform="scale(0.015625)"/>
        <path id="DejaVuSans-32" d="M 1228 531 
L 3431 531 
L 3431 0 
L 469 0 
L 469 531 
Q 828 903 1448 1529 
Q 2069 2156 2228 2338 
Q 2531 2678 2651 2914 
Q 2772 3150 2772 3378 
Q 2772 3750 2511 3984 
Q 2250 4219 1831 4219 
Q 1534 4219 1204 4116 
Q 875 4013 500 3803 
L 500 4441 
Q 881 4594 1212 4672 
Q 1544 4750 1819 4750 
Q 2544 4750 2975 4387 
Q 3406 4025 3406 3419 
Q 3406 3131 3298 2873 
Q 3191 2616 2906 2266 
Q 2828 2175 2409 1742 
Q 1991 1309 1228 531 
z
" transform="scale(0.015625)"/>
        <path id="DejaVuSans-20" transform="scale(0.015625)"/>
        <path id="DejaVuSans-36" d="M 2113 2584 
Q 1688 2584 1439 2293 
Q 1191 2003 1191 1497 
Q 1191 994 1439 701 
Q 1688 409 2113 409 
Q 2538 409 2786 701 
Q 3034 994 3034 1497 
Q 3034 2003 2786 2293 
Q 2538 2584 2113 2584 
z
M 3366 4563 
L 3366 3988 
Q 3128 4100 2886 4159 
Q 2644 4219 2406 4219 
Q 1781 4219 1451 3797 
Q 1122 3375 1075 2522 
Q 1259 2794 1537 2939 
Q 1816 3084 2150 3084 
Q 2853 3084 3261 2657 
Q 3669 2231 3669 1497 
Q 3669 778 3244 343 
Q 2819 -91 2113 -91 
Q 1303 -91 875 529 
Q 447 1150 447 2328 
Q 447 3434 972 4092 
Q 1497 4750 2381 4750 
Q 2619 4750 2861 4703 
Q 3103 4656 3366 4563 
z
" transform="scale(0.015625)"/>
       </defs>
       <use xlink:href="#DejaVuSans-31"/>
       <use xlink:href="#DejaVuSans-30" x="63.623047"/>
       <use xlink:href="#DejaVuSans-2d" x="127.246094"/>
       <use xlink:href="#DejaVuSans-30" x="163.330078"/>
       <use xlink:href="#DejaVuSans-32" x="226.953125"/>
       <use xlink:href="#DejaVuSans-20" x="290.576172"/>
       <use xlink:href="#DejaVuSans-30" x="322.363281"/>
       <use xlink:href="#DejaVuSans-36" x="385.986328"/>
      </g>
     </g>
    </g>
    <g id="xtick_2">
     <g id="line2d_2">
      <g>
       <use xlink:href="#m790282874c" x="198.344141" y="359.517187" style="stroke: #000000; stroke-width: 0.8"/>
      </g>
     </g>
     <g id="text_2">
      <!-- 10-02 09 -->
      <g transform="translate(175.863672 374.115625) scale(0.1 -0.1)">
       <defs>
        <path id="DejaVuSans-39" d="M 703 97 
L 703 672 
Q 941 559 1184 500 
Q 1428 441 1663 441 
Q 2288 441 2617 861 
Q 2947 1281 2994 2138 
Q 2813 1869 2534 1725 
Q 2256 1581 1919 1581 
Q 1219 1581 811 2004 
Q 403 2428 403 3163 
Q 403 3881 828 4315 
Q 1253 4750 1959 4750 
Q 2769 4750 3195 4129 
Q 3622 3509 3622 2328 
Q 3622 1225 3098 567 
Q 2575 -91 1691 -91 
Q 1453 -91 1209 -44 
Q 966 3 703 97 
z
M 1959 2075 
Q 2384 2075 2632 2365 
Q 2881 2656 2881 3163 
Q 2881 3666 2632 3958 
Q 2384 4250 1959 4250 
Q 1534 4250 1286 3958 
Q 1038 3666 1038 3163 
Q 1038 2656 1286 2365 
Q 1534 2075 1959 2075 
z
" transform="scale(0.015625)"/>
       </defs>
       <use xlink:href="#DejaVuSans-31"/>
       <use xlink:href="#DejaVuSans-30" x="63.623047"/>
       <use xlink:href="#DejaVuSans-2d" x="127.246094"/>
       <use xlink:href="#DejaVuSans-30" x="163.330078"/>
       <use xlink:href="#DejaVuSans-32" x="226.953125"/>
       <use xlink:href="#DejaVuSans-20" x="290.576172"/>
       <use xlink:href="#DejaVuSans-30" x="322.363281"/>
       <use xlink:href="#DejaVuSans-39" x="385.986328"/>
      </g>
     </g>
    </g>
    <g id="xtick_3">
     <g id="line2d_3">
      <g>
       <use xlink:href="#m790282874c" x="306.72074" y="359.517187" style="stroke: #000000; stroke-width: 0.8"/>
      </g>
     </g>
     <g id="text_3">
      <!-- 10-02 12 -->
      <g transform="translate(284.240271 374.115625) scale(0.1 -0.1)">
       <use xlink:href="#DejaVuSans-31"/>
       <use xlink:href="#DejaVuSans-30" x="63.623047"/>
       <use xlink:href="#DejaVuSans-2d" x="127.246094"/>
       <use xlink:href="#DejaVuSans-30" x="163.330078"/>
       <use xlink:href="#DejaVuSans-32" x="226.953125"/>
       <use xlink:href="#DejaVuSans-20" x="290.576172"/>
       <use xlink:href="#DejaVuSans-31" x="322.363281"/>
       <use xlink:href="#DejaVuSans-32" x="385.986328"/>
      </g>
     </g>
    </g>
    <g id="xtick_4">
     <g id="line2d_4">
      <g>
       <use xlink:href="#m790282874c" x="415.097339" y="359.517187" style="stroke: #000000; stroke-width: 0.8"/>
      </g>
     </g>
     <g id="text_4">
      <!-- 10-02 15 -->
      <g transform="translate(392.61687 374.115625) scale(0.1 -0.1)">
       <defs>
        <path id="DejaVuSans-35" d="M 691 4666 
L 3169 4666 
L 3169 4134 
L 1269 4134 
L 1269 2991 
Q 1406 3038 1543 3061 
Q 1681 3084 1819 3084 
Q 2600 3084 3056 2656 
Q 3513 2228 3513 1497 
Q 3513 744 3044 326 
Q 2575 -91 1722 -91 
Q 1428 -91 1123 -41 
Q 819 9 494 109 
L 494 744 
Q 775 591 1075 516 
Q 1375 441 1709 441 
Q 2250 441 2565 725 
Q 2881 1009 2881 1497 
Q 2881 1984 2565 2268 
Q 2250 2553 1709 2553 
Q 1456 2553 1204 2497 
Q 953 2441 691 2322 
L 691 4666 
z
" transform="scale(0.015625)"/>
       </defs>
       <use xlink:href="#DejaVuSans-31"/>
       <use xlink:href="#DejaVuSans-30" x="63.623047"/>
       <use xlink:href="#DejaVuSans-2d" x="127.246094"/>
       <use xlink:href="#DejaVuSans-30" x="163.330078"/>
       <use xlink:href="#DejaVuSans-32" x="226.953125"/>
       <use xlink:href="#DejaVuSans-20" x="290.576172"/>
       <use xlink:href="#DejaVuSans-31" x="322.363281"/>
       <use xlink:href="#DejaVuSans-35" x="385.986328"/>
      </g>
     </g>
    </g>
    <g id="xtick_5">
     <g id="line2d_5">
      <g>
       <use xlink:href="#m790282874c" x="523.473938" y="359.517187" style="stroke: #000000; stroke-width: 0.8"/>
      </g>
     </g>
     <g id="text_5">
      <!-- 10-02 18 -->
      <g transform="translate(500.993469 374.115625) scale(0.1 -0.1)">
       <defs>
        <path id="DejaVuSans-38" d="M 2034 2216 
Q 1584 2216 1326 1975 
Q 1069 1734 1069 1313 
Q 1069 891 1326 650 
Q 1584 409 2034 409 
Q 2484 409 2743 651 
Q 3003 894 3003 1313 
Q 3003 1734 2745 1975 
Q 2488 2216 2034 2216 
z
M 1403 2484 
Q 997 2584 770 2862 
Q 544 3141 544 3541 
Q 544 4100 942 4425 
Q 1341 4750 2034 4750 
Q 2731 4750 3128 4425 
Q 3525 4100 3525 3541 
Q 3525 3141 3298 2862 
Q 3072 2584 2669 2484 
Q 3125 2378 3379 2068 
Q 3634 1759 3634 1313 
Q 3634 634 3220 271 
Q 2806 -91 2034 -91 
Q 1263 -91 848 271 
Q 434 634 434 1313 
Q 434 1759 690 2068 
Q 947 2378 1403 2484 
z
M 1172 3481 
Q 1172 3119 1398 2916 
Q 1625 2713 2034 2713 
Q 2441 2713 2670 2916 
Q 2900 3119 2900 3481 
Q 2900 3844 2670 4047 
Q 2441 4250 2034 4250 
Q 1625 4250 1398 4047 
Q 1172 3844 1172 3481 
z
" transform="scale(0.015625)"/>
       </defs>
       <use xlink:href="#DejaVuSans-31"/>
       <use xlink:href="#DejaVuSans-30" x="63.623047"/>
       <use xlink:href="#DejaVuSans-2d" x="127.246094"/>
       <use xlink:href="#DejaVuSans-30" x="163.330078"/>
       <use xlink:href="#DejaVuSans-32" x="226.953125"/>
       <use xlink:href="#DejaVuSans-20" x="290.576172"/>
       <use xlink:href="#DejaVuSans-31" x="322.363281"/>
       <use xlink:href="#DejaVuSans-38" x="385.986328"/>
      </g>
     </g>
    </g>
    <g id="xtick_6">
     <g id="line2d_6">
      <g>
       <use xlink:href="#m790282874c" x="631.850537" y="359.517187" style="stroke: #000000; stroke-width: 0.8"/>
      </g>
     </g>
     <g id="text_6">
      <!-- 10-02 21 -->
      <g transform="translate(609.370068 374.115625) scale(0.1 -0.1)">
       <use xlink:href="#DejaVuSans-31"/>
       <use xlink:href="#DejaVuSans-30" x="63.623047"/>
       <use xlink:href="#DejaVuSans-2d" x="127.246094"/>
       <use xlink:href="#DejaVuSans-30" x="163.330078"/>
       <use xlink:href="#DejaVuSans-32" x="226.953125"/>
       <use xlink:href="#DejaVuSans-20" x="290.576172"/>
       <use xlink:href="#DejaVuSans-32" x="322.363281"/>
       <use xlink:href="#DejaVuSans-31" x="385.986328"/>
      </g>
     </g>
    </g>
    <g id="xtick_7">
     <g id="line2d_7">
      <g>
       <use xlink:href="#m790282874c" x="740.227136" y="359.517187" style="stroke: #000000; stroke-width: 0.8"/>
      </g>
     </g>
     <g id="text_7">
      <!-- 10-03 00 -->
      <g transform="translate(717.746667 374.115625) scale(0.1 -0.1)">
       <defs>
        <path id="DejaVuSans-33" d="M 2597 2516 
Q 3050 2419 3304 2112 
Q 3559 1806 3559 1356 
Q 3559 666 3084 287 
Q 2609 -91 1734 -91 
Q 1441 -91 1130 -33 
Q 819 25 488 141 
L 488 750 
Q 750 597 1062 519 
Q 1375 441 1716 441 
Q 2309 441 2620 675 
Q 2931 909 2931 1356 
Q 2931 1769 2642 2001 
Q 2353 2234 1838 2234 
L 1294 2234 
L 1294 2753 
L 1863 2753 
Q 2328 2753 2575 2939 
Q 2822 3125 2822 3475 
Q 2822 3834 2567 4026 
Q 2313 4219 1838 4219 
Q 1578 4219 1281 4162 
Q 984 4106 628 3988 
L 628 4550 
Q 988 4650 1302 4700 
Q 1616 4750 1894 4750 
Q 2613 4750 3031 4423 
Q 3450 4097 3450 3541 
Q 3450 3153 3228 2886 
Q 3006 2619 2597 2516 
z
" transform="scale(0.015625)"/>
       </defs>
       <use xlink:href="#DejaVuSans-31"/>
       <use xlink:href="#DejaVuSans-30" x="63.623047"/>
       <use xlink:href="#DejaVuSans-2d" x="127.246094"/>
       <use xlink:href="#DejaVuSans-30" x="163.330078"/>
       <use xlink:href="#DejaVuSans-33" x="226.953125"/>
       <use xlink:href="#DejaVuSans-20" x="290.576172"/>
       <use xlink:href="#DejaVuSans-30" x="322.363281"/>
       <use xlink:href="#DejaVuSans-30" x="385.986328"/>
      </g>
     </g>
    </g>
    <g id="xtick_8">
     <g id="line2d_8">
      <g>
       <use xlink:href="#m790282874c" x="848.603735" y="359.517187" style="stroke: #000000; stroke-width: 0.8"/>
      </g>
     </g>
     <g id="text_8">
      <!-- 10-03 03 -->
      <g transform="translate(826.123266 374.115625) scale(0.1 -0.1)">
       <use xlink:href="#DejaVuSans-31"/>
       <use xlink:href="#DejaVuSans-30" x="63.623047"/>
       <use xlink:href="#DejaVuSans-2d" x="127.246094"/>
       <use xlink:href="#DejaVuSans-30" x="163.330078"/>
       <use xlink:href="#DejaVuSans-33" x="226.953125"/>
       <use xlink:href="#DejaVuSans-20" x="290.576172"/>
       <use xlink:href="#DejaVuSans-30" x="322.363281"/>
       <use xlink:href="#DejaVuSans-33" x="385.986328"/>
      </g>
     </g>
    </g>
    <g id="xtick_9">
     <g id="line2d_9">
      <g>
       <use xlink:href="#m790282874c" x="956.980334" y="359.517187" style="stroke: #000000; stroke-width: 0.8"/>
      </g>
     </g>
     <g id="text_9">
      <!-- 10-03 06 -->
      <g transform="translate(934.499865 374.115625) scale(0.1 -0.1)">
       <use xlink:href="#DejaVuSans-31"/>
       <use xlink:href="#DejaVuSans-30" x="63.623047"/>
       <use xlink:href="#DejaVuSans-2d" x="127.246094"/>
       <use xlink:href="#DejaVuSans-30" x="163.330078"/>
       <use xlink:href="#DejaVuSans-33" x="226.953125"/>
       <use xlink:href="#DejaVuSans-20" x="290.576172"/>
       <use xlink:href="#DejaVuSans-30" x="322.363281"/>
       <use xlink:href="#DejaVuSans-36" x="385.986328"/>
      </g>
     </g>
    </g>
    <g id="xtick_10">
     <g id="line2d_10">
      <g>
       <use xlink:href="#m790282874c" x="1065.356933" y="359.517187" style="stroke: #000000; stroke-width: 0.8"/>
      </g>
     </g>
     <g id="text_10">
      <!-- 10-03 09 -->
      <g transform="translate(1042.876464 374.115625) scale(0.1 -0.1)">
       <use xlink:href="#DejaVuSans-31"/>
       <use xlink:href="#DejaVuSans-30" x="63.623047"/>
       <use xlink:href="#DejaVuSans-2d" x="127.246094"/>
       <use xlink:href="#DejaVuSans-30" x="163.330078"/>
       <use xlink:href="#DejaVuSans-33" x="226.953125"/>
       <use xlink:href="#DejaVuSans-20" x="290.576172"/>
       <use xlink:href="#DejaVuSans-30" x="322.363281"/>
       <use xlink:href="#DejaVuSans-39" x="385.986328"/>
      </g>
     </g>
    </g>
    <g id="text_11">
     <!-- Time -->
     <g transform="translate(592.554688 389.313437) scale(0.12 -0.12)">
      <defs>
       <path id="DejaVuSans-54" d="M -19 4666 
L 3928 4666 
L 3928 4134 
L 2272 4134 
L 2272 0 
L 1638 0 
L 1638 4134 
L -19 4134 
L -19 4666 
z
" transform="scale(0.015625)"/>
       <path id="DejaVuSans-69" d="M 603 3500 
L 1178 3500 
L 1178 0 
L 603 0 
L 603 3500 
z
M 603 4863 
L 1178 4863 
L 1178 4134 
L 603 4134 
L 603 4863 
z
" transform="scale(0.015625)"/>
       <path id="DejaVuSans-6d" d="M 3328 2828 
Q 3544 3216 3844 3400 
Q 4144 3584 4550 3584 
Q 5097 3584 5394 3201 
Q 5691 2819 5691 2113 
L 5691 0 
L 5113 0 
L 5113 2094 
Q 5113 2597 4934 2840 
Q 4756 3084 4391 3084 
Q 3944 3084 3684 2787 
Q 3425 2491 3425 1978 
L 3425 0 
L 2847 0 
L 2847 2094 
Q 2847 2600 2669 2842 
Q 2491 3084 2119 3084 
Q 1678 3084 1418 2786 
Q 1159 2488 1159 1978 
L 1159 0 
L 581 0 
L 581 3500 
L 1159 3500 
L 1159 2956 
Q 1356 3278 1631 3431 
Q 1906 3584 2284 3584 
Q 2666 3584 2933 3390 
Q 3200 3197 3328 2828 
z
" transform="scale(0.015625)"/>
       <path id="DejaVuSans-65" d="M 3597 1894 
L 3597 1613 
L 953 1613 
Q 991 1019 1311 708 
Q 1631 397 2203 397 
Q 2534 397 2845 478 
Q 3156 559 3463 722 
L 3463 178 
Q 3153 47 2828 -22 
Q 2503 -91 2169 -91 
Q 1331 -91 842 396 
Q 353 884 353 1716 
Q 353 2575 817 3079 
Q 1281 3584 2069 3584 
Q 2775 3584 3186 3129 
Q 3597 2675 3597 1894 
z
M 3022 2063 
Q 3016 2534 2758 2815 
Q 2500 3097 2075 3097 
Q 1594 3097 1305 2825 
Q 1016 2553 972 2059 
L 3022 2063 
z
" transform="scale(0.015625)"/>
      </defs>
      <use xlink:href="#DejaVuSans-54"/>
      <use xlink:href="#DejaVuSans-69" x="57.958984"/>
      <use xlink:href="#DejaVuSans-6d" x="85.742188"/>
      <use xlink:href="#DejaVuSans-65" x="183.154297"/>
     </g>
    </g>
   </g>
   <g id="matplotlib.axis_2">
    <g id="ytick_1">
     <g id="line2d_11">
      <defs>
       <path id="mb8b4a0abcb" d="M 0 0 
L -3.5 0 
" style="stroke: #000000; stroke-width: 0.8"/>
      </defs>
      <g>
       <use xlink:href="#mb8b4a0abcb" x="49.235" y="344.397187" style="stroke: #000000; stroke-width: 0.8"/>
      </g>
     </g>
     <g id="text_12">
      <!-- 0 -->
      <g transform="translate(35.8725 348.196406) scale(0.1 -0.1)">
       <use xlink:href="#DejaVuSans-30"/>
      </g>
     </g>
    </g>
    <g id="ytick_2">
     <g id="line2d_12">
      <g>
       <use xlink:href="#mb8b4a0abcb" x="49.235" y="281.133589" style="stroke: #000000; stroke-width: 0.8"/>
      </g>
     </g>
     <g id="text_13">
      <!-- 50 -->
      <g transform="translate(29.51 284.932808) scale(0.1 -0.1)">
       <use xlink:href="#DejaVuSans-35"/>
       <use xlink:href="#DejaVuSans-30" x="63.623047"/>
      </g>
     </g>
    </g>
    <g id="ytick_3">
     <g id="line2d_13">
      <g>
       <use xlink:href="#mb8b4a0abcb" x="49.235" y="217.869991" style="stroke: #000000; stroke-width: 0.8"/>
      </g>
     </g>
     <g id="text_14">
      <!-- 100 -->
      <g transform="translate(23.1475 221.66921) scale(0.1 -0.1)">
       <use xlink:href="#DejaVuSans-31"/>
       <use xlink:href="#DejaVuSans-30" x="63.623047"/>
       <use xlink:href="#DejaVuSans-30" x="127.246094"/>
      </g>
     </g>
    </g>
    <g id="ytick_4">
     <g id="line2d_14">
      <g>
       <use xlink:href="#mb8b4a0abcb" x="49.235" y="154.606393" style="stroke: #000000; stroke-width: 0.8"/>
      </g>
     </g>
     <g id="text_15">
      <!-- 150 -->
      <g transform="translate(23.1475 158.405611) scale(0.1 -0.1)">
       <use xlink:href="#DejaVuSans-31"/>
       <use xlink:href="#DejaVuSans-35" x="63.623047"/>
       <use xlink:href="#DejaVuSans-30" x="127.246094"/>
      </g>
     </g>
    </g>
    <g id="ytick_5">
     <g id="line2d_15">
      <g>
       <use xlink:href="#mb8b4a0abcb" x="49.235" y="91.342794" style="stroke: #000000; stroke-width: 0.8"/>
      </g>
     </g>
     <g id="text_16">
      <!-- 200 -->
      <g transform="translate(23.1475 95.142013) scale(0.1 -0.1)">
       <use xlink:href="#DejaVuSans-32"/>
       <use xlink:href="#DejaVuSans-30" x="63.623047"/>
       <use xlink:href="#DejaVuSans-30" x="127.246094"/>
      </g>
     </g>
    </g>
    <g id="ytick_6">
     <g id="line2d_16">
      <g>
       <use xlink:href="#mb8b4a0abcb" x="49.235" y="28.079196" style="stroke: #000000; stroke-width: 0.8"/>
      </g>
     </g>
     <g id="text_17">
      <!-- 250 -->
      <g transform="translate(23.1475 31.878415) scale(0.1 -0.1)">
       <use xlink:href="#DejaVuSans-32"/>
       <use xlink:href="#DejaVuSans-35" x="63.623047"/>
       <use xlink:href="#DejaVuSans-30" x="127.246094"/>
      </g>
     </g>
    </g>
    <g id="text_18">
     <!-- Pellet_Count -->
     <g transform="translate(16.318125 230.485312) rotate(-90) scale(0.12 -0.12)">
      <defs>
       <path id="DejaVuSans-50" d="M 1259 4147 
L 1259 2394 
L 2053 2394 
Q 2494 2394 2734 2622 
Q 2975 2850 2975 3272 
Q 2975 3691 2734 3919 
Q 2494 4147 2053 4147 
L 1259 4147 
z
M 628 4666 
L 2053 4666 
Q 2838 4666 3239 4311 
Q 3641 3956 3641 3272 
Q 3641 2581 3239 2228 
Q 2838 1875 2053 1875 
L 1259 1875 
L 1259 0 
L 628 0 
L 628 4666 
z
" transform="scale(0.015625)"/>
       <path id="DejaVuSans-6c" d="M 603 4863 
L 1178 4863 
L 1178 0 
L 603 0 
L 603 4863 
z
" transform="scale(0.015625)"/>
       <path id="DejaVuSans-74" d="M 1172 4494 
L 1172 3500 
L 2356 3500 
L 2356 3053 
L 1172 3053 
L 1172 1153 
Q 1172 725 1289 603 
Q 1406 481 1766 481 
L 2356 481 
L 2356 0 
L 1766 0 
Q 1100 0 847 248 
Q 594 497 594 1153 
L 594 3053 
L 172 3053 
L 172 3500 
L 594 3500 
L 594 4494 
L 1172 4494 
z
" transform="scale(0.015625)"/>
       <path id="DejaVuSans-5f" d="M 3263 -1063 
L 3263 -1509 
L -63 -1509 
L -63 -1063 
L 3263 -1063 
z
" transform="scale(0.015625)"/>
       <path id="DejaVuSans-43" d="M 4122 4306 
L 4122 3641 
Q 3803 3938 3442 4084 
Q 3081 4231 2675 4231 
Q 1875 4231 1450 3742 
Q 1025 3253 1025 2328 
Q 1025 1406 1450 917 
Q 1875 428 2675 428 
Q 3081 428 3442 575 
Q 3803 722 4122 1019 
L 4122 359 
Q 3791 134 3420 21 
Q 3050 -91 2638 -91 
Q 1578 -91 968 557 
Q 359 1206 359 2328 
Q 359 3453 968 4101 
Q 1578 4750 2638 4750 
Q 3056 4750 3426 4639 
Q 3797 4528 4122 4306 
z
" transform="scale(0.015625)"/>
       <path id="DejaVuSans-6f" d="M 1959 3097 
Q 1497 3097 1228 2736 
Q 959 2375 959 1747 
Q 959 1119 1226 758 
Q 1494 397 1959 397 
Q 2419 397 2687 759 
Q 2956 1122 2956 1747 
Q 2956 2369 2687 2733 
Q 2419 3097 1959 3097 
z
M 1959 3584 
Q 2709 3584 3137 3096 
Q 3566 2609 3566 1747 
Q 3566 888 3137 398 
Q 2709 -91 1959 -91 
Q 1206 -91 779 398 
Q 353 888 353 1747 
Q 353 2609 779 3096 
Q 1206 3584 1959 3584 
z
" transform="scale(0.015625)"/>
       <path id="DejaVuSans-75" d="M 544 1381 
L 544 3500 
L 1119 3500 
L 1119 1403 
Q 1119 906 1312 657 
Q 1506 409 1894 409 
Q 2359 409 2629 706 
Q 2900 1003 2900 1516 
L 2900 3500 
L 3475 3500 
L 3475 0 
L 2900 0 
L 2900 538 
Q 2691 219 2414 64 
Q 2138 -91 1772 -91 
Q 1169 -91 856 284 
Q 544 659 544 1381 
z
M 1991 3584 
L 1991 3584 
z
" transform="scale(0.015625)"/>
       <path id="DejaVuSans-6e" d="M 3513 2113 
L 3513 0 
L 2938 0 
L 2938 2094 
Q 2938 2591 2744 2837 
Q 2550 3084 2163 3084 
Q 1697 3084 1428 2787 
Q 1159 2491 1159 1978 
L 1159 0 
L 581 0 
L 581 3500 
L 1159 3500 
L 1159 2956 
Q 1366 3272 1645 3428 
Q 1925 3584 2291 3584 
Q 2894 3584 3203 3211 
Q 3513 2838 3513 2113 
z
" transform="scale(0.015625)"/>
      </defs>
      <use xlink:href="#DejaVuSans-50"/>
      <use xlink:href="#DejaVuSans-65" x="56.677734"/>
      <use xlink:href="#DejaVuSans-6c" x="118.201172"/>
      <use xlink:href="#DejaVuSans-6c" x="145.984375"/>
      <use xlink:href="#DejaVuSans-65" x="173.767578"/>
      <use xlink:href="#DejaVuSans-74" x="235.291016"/>
      <use xlink:href="#DejaVuSans-5f" x="274.5"/>
      <use xlink:href="#DejaVuSans-43" x="324.5"/>
      <use xlink:href="#DejaVuSans-6f" x="394.324219"/>
      <use xlink:href="#DejaVuSans-75" x="455.505859"/>
      <use xlink:href="#DejaVuSans-6e" x="518.884766"/>
      <use xlink:href="#DejaVuSans-74" x="582.263672"/>
     </g>
    </g>
   </g>
   <g id="line2d_17">
    <path d="M 99.962273 344.397187 
L 100.102761 344.397187 
L 100.484086 343.131916 
L 118.837864 343.131916 
L 119.299468 341.866644 
L 136.689898 341.866644 
L 136.94077 340.601372 
L 138.606558 340.601372 
L 138.967813 339.3361 
L 142.128798 339.3361 
L 144.717794 338.070828 
L 158.114346 338.070828 
L 158.174555 336.805556 
L 168.821553 336.805556 
L 169.253052 335.540284 
L 171.681491 334.275012 
L 180.742978 334.275012 
L 181.003885 333.00974 
L 181.7565 333.00974 
L 181.896989 331.744468 
L 182.388697 331.744468 
L 182.408767 330.479196 
L 201.073626 330.479196 
L 201.133835 329.213924 
L 210.707101 329.213924 
L 210.707101 329.213924 
L 210.757275 327.948652 
L 211.148635 327.948652 
L 211.238949 326.68338 
L 240.550805 326.68338 
L 240.60098 325.418108 
L 241.403769 325.418108 
L 241.423839 324.152836 
L 242.196524 324.152836 
L 242.276803 322.887564 
L 242.577849 322.887564 
L 242.617989 321.622292 
L 243.009348 321.622292 
L 243.039453 320.35702 
L 243.430813 320.35702 
L 243.450883 319.091748 
L 244.624963 319.091748 
L 244.655067 317.826476 
L 244.966148 317.826476 
L 244.996253 316.561204 
L 245.427752 316.561204 
L 245.457857 315.295932 
L 246.973122 315.295932 
L 247.314308 314.03066 
L 250.585676 314.03066 
L 250.61578 312.765388 
L 266.992688 312.765388 
L 267.022793 311.500116 
L 267.464327 311.500116 
L 267.494432 310.234844 
L 267.956036 310.234844 
L 267.986141 308.969572 
L 268.477849 308.969572 
L 268.548093 307.7043 
L 268.748791 307.7043 
L 268.78893 306.439029 
L 269.170255 306.439029 
L 269.20036 305.173757 
L 269.441197 305.173757 
L 269.461267 303.908485 
L 269.842592 303.908485 
L 269.862661 302.643213 
L 271.769287 302.643213 
L 271.789356 301.377941 
L 279.977811 301.377941 
L 280.007915 300.112669 
L 281.161925 300.112669 
L 281.181995 298.847397 
L 281.58339 298.847397 
L 281.633564 297.582125 
L 282.988272 297.582125 
L 283.018376 296.316853 
L 285.767931 296.316853 
L 286.249605 295.051581 
L 290.474285 295.051581 
L 290.48432 293.786309 
L 290.83554 293.786309 
L 290.87568 292.521037 
L 298.120856 292.521037 
L 298.181065 291.255765 
L 298.763088 291.255765 
L 298.793192 289.990493 
L 300.157935 289.990493 
L 300.338562 288.725221 
L 304.051464 288.725221 
L 304.081569 287.459949 
L 304.332441 287.459949 
L 304.35251 286.194677 
L 306.901368 286.194677 
L 306.931472 284.929405 
L 307.362972 284.929405 
L 307.403111 283.664133 
L 307.653983 283.664133 
L 307.674053 282.398861 
L 307.884785 282.398861 
L 307.904855 281.133589 
L 308.085482 281.133589 
L 308.115587 279.868317 
L 308.777888 279.868317 
L 309.470294 278.603045 
L 310.734688 278.603045 
L 315.431007 277.337773 
L 317.759097 277.337773 
L 317.779167 276.072501 
L 318.270876 276.072501 
L 318.331085 274.807229 
L 324.592844 274.807229 
L 329.489861 273.541957 
L 333.784785 273.541957 
L 334.015587 271.011413 
L 334.607644 271.011413 
L 334.647784 269.746141 
L 337.216711 269.746141 
L 337.808768 268.48087 
L 339.313999 268.48087 
L 339.344103 267.215598 
L 341.431356 267.215598 
L 341.461461 265.950326 
L 352.509853 265.950326 
L 352.529923 264.685054 
L 352.891178 264.685054 
L 352.951387 263.419782 
L 355.630698 263.419782 
L 355.660802 262.15451 
L 355.951813 262.15451 
L 355.971883 260.889238 
L 356.262894 260.889238 
L 356.282964 259.623966 
L 365.976649 259.623966 
L 365.996719 258.358694 
L 366.337904 258.358694 
L 366.378044 257.093422 
L 366.538602 257.093422 
L 366.558671 255.82815 
L 366.849683 255.82815 
L 366.869752 254.562878 
L 368.836587 254.562878 
L 368.856657 253.297606 
L 373.613185 253.297606 
L 373.653325 252.032334 
L 373.944336 252.032334 
L 373.984475 250.767062 
L 375.600089 250.767062 
L 375.630194 249.50179 
L 381.641081 249.50179 
L 381.691256 248.236518 
L 385.604855 248.236518 
L 385.624925 246.971246 
L 385.925971 246.971246 
L 385.936006 245.705974 
L 387.090016 245.705974 
L 387.651969 244.440702 
L 395.810318 244.440702 
L 395.840423 243.17543 
L 396.091295 243.17543 
L 396.111364 241.910158 
L 396.332131 241.910158 
L 396.362236 240.644886 
L 396.562933 240.644886 
L 396.593038 239.379614 
L 396.964328 239.379614 
L 396.974363 238.114342 
L 397.225235 238.114342 
L 397.245305 236.84907 
L 397.58649 236.84907 
L 399.222174 235.583798 
L 405.885328 235.583798 
L 405.905398 234.318526 
L 406.07599 234.318526 
L 406.09606 233.053254 
L 406.276688 233.053254 
L 406.286723 231.787982 
L 406.597804 231.787982 
L 406.597804 231.787982 
L 406.627908 230.522711 
L 411.615239 230.522711 
L 411.635309 229.257439 
L 417.756579 229.257439 
L 418.288428 227.992167 
L 424.610396 227.992167 
L 424.770954 226.726895 
L 428.5541 226.726895 
L 428.594239 225.461623 
L 428.845111 225.461623 
L 428.865181 224.196351 
L 436.602066 224.196351 
L 436.973356 222.931079 
L 437.374751 222.931079 
L 437.404855 221.665807 
L 437.595518 221.665807 
L 437.615588 220.400535 
L 437.80625 220.400535 
L 437.836355 219.135263 
L 438.057122 219.135263 
L 438.087227 217.869991 
L 438.267854 217.869991 
L 438.287924 216.604719 
L 438.498656 216.604719 
L 438.528761 215.339447 
L 438.749528 215.339447 
L 438.749528 215.339447 
L 438.779633 214.074175 
L 439.0004 214.074175 
L 439.010435 212.808903 
L 451.644336 212.808903 
L 451.664406 211.543631 
L 451.915278 211.543631 
L 451.925313 210.278359 
L 468.763825 210.278359 
L 468.77386 209.013087 
L 469.205359 209.013087 
L 469.225429 207.747815 
L 469.416092 207.747815 
L 469.436161 206.482543 
L 469.717138 206.482543 
L 469.727173 205.217271 
L 469.957975 205.217271 
L 469.978044 203.951999 
L 470.238951 203.951999 
L 470.409544 202.686727 
L 501.547746 202.686727 
L 501.567816 201.421455 
L 501.808653 201.421455 
L 501.828723 200.156183 
L 502.059525 200.156183 
L 502.06956 198.890911 
L 502.360571 198.890911 
L 502.370606 197.625639 
L 502.561268 197.625639 
L 502.581338 196.360367 
L 502.782035 196.360367 
L 502.802105 195.095095 
L 503.2035 195.095095 
L 503.22357 193.829823 
L 503.685174 193.829823 
L 503.705243 192.564552 
L 508.25104 192.564552 
L 508.281144 191.29928 
L 513.589591 191.29928 
L 513.880602 190.034008 
L 514.251892 190.034008 
L 514.281997 188.768736 
L 516.891063 188.768736 
L 516.921168 187.503464 
L 520.343058 187.503464 
L 520.373163 186.238192 
L 520.684244 186.238192 
L 520.724383 184.97292 
L 520.96522 184.97292 
L 520.975255 183.707648 
L 521.206057 183.707648 
L 521.216092 182.442376 
L 521.35658 182.442376 
L 521.366615 181.177104 
L 521.637557 181.177104 
L 521.647591 179.911832 
L 521.808149 179.911832 
L 521.818184 178.64656 
L 528.802454 178.64656 
L 528.842593 177.381288 
L 529.374442 177.381288 
L 529.384476 176.116016 
L 529.605244 176.116016 
L 529.625313 174.850744 
L 539.730428 174.850744 
L 539.740463 173.585472 
L 539.96123 173.585472 
L 539.991334 172.3202 
L 540.272311 172.3202 
L 540.29238 171.054928 
L 544.466886 171.054928 
L 545.048909 169.789656 
L 545.530583 169.789656 
L 545.550652 168.524384 
L 547.858673 168.524384 
L 547.878742 167.259112 
L 558.144415 167.259112 
L 558.164484 165.99384 
L 558.325042 165.99384 
L 558.375217 164.728568 
L 558.555844 164.728568 
L 558.575914 163.463296 
L 558.87696 163.463296 
L 558.89703 162.198024 
L 559.037518 162.198024 
L 559.047553 160.932752 
L 559.278355 160.932752 
L 559.28839 159.66748 
L 559.438913 159.66748 
L 559.469017 158.402208 
L 571.801873 158.402208 
L 571.831978 157.136936 
L 572.133024 157.136936 
L 572.163128 155.871664 
L 572.403965 155.871664 
L 572.424035 154.606393 
L 572.644802 154.606393 
L 572.674907 153.341121 
L 584.656542 153.341121 
L 584.726786 152.075849 
L 584.987693 152.075849 
L 585.007762 150.810577 
L 585.16832 150.810577 
L 585.178355 149.545305 
L 585.469366 149.545305 
L 585.489436 148.280033 
L 585.670064 148.280033 
L 585.680099 147.014761 
L 585.900866 147.014761 
L 585.941005 145.749489 
L 586.191877 145.749489 
L 586.211947 144.484217 
L 604.706213 144.484217 
L 604.716248 143.218945 
L 606.351931 143.218945 
L 607.475837 141.953673 
L 607.716674 141.953673 
L 607.736744 140.688401 
L 647.685562 140.688401 
L 647.715667 139.423129 
L 647.84612 139.423129 
L 647.876225 138.157857 
L 648.147166 138.157857 
L 648.167236 136.892585 
L 648.367933 136.892585 
L 648.398038 135.627313 
L 648.618805 135.627313 
L 648.658944 134.362041 
L 648.819502 134.362041 
L 648.879712 133.096769 
L 649.130583 133.096769 
L 649.150653 131.831497 
L 649.321246 131.831497 
L 649.341316 130.566225 
L 649.572118 130.566225 
L 649.572118 130.566225 
L 649.612257 129.300953 
L 649.792885 129.300953 
L 649.812955 128.035681 
L 650.053791 128.035681 
L 650.073861 126.770409 
L 650.284593 126.770409 
L 650.294628 125.505137 
L 650.515395 125.505137 
L 650.535465 124.239865 
L 676.154489 124.239865 
L 676.184594 122.974593 
L 676.385291 122.974593 
L 676.405361 121.709321 
L 699.826748 121.709321 
L 699.846818 120.444049 
L 700.117759 120.444049 
L 700.137829 119.178777 
L 700.298387 119.178777 
L 700.318457 117.913505 
L 700.509119 117.913505 
L 700.519154 116.648234 
L 700.729886 116.648234 
L 700.749956 115.382962 
L 701.040967 115.382962 
L 701.061037 114.11769 
L 701.291839 114.11769 
L 701.321944 112.852418 
L 710.985524 112.852418 
L 712.81187 111.587146 
L 717.718922 111.587146 
L 717.738991 110.321874 
L 717.979828 110.321874 
L 717.989863 109.056602 
L 718.260805 109.056602 
L 718.280874 107.79133 
L 732.430042 107.79133 
L 732.450111 106.526058 
L 741.832715 106.526058 
L 743.859759 105.260786 
L 744.602339 105.260786 
L 744.612374 103.995514 
L 747.913846 103.995514 
L 748.034265 102.730242 
L 784.962587 102.730242 
L 784.982657 101.46497 
L 797.054606 101.46497 
L 797.084711 100.199698 
L 797.375722 100.199698 
L 797.425896 98.934426 
L 797.616559 98.934426 
L 797.626594 97.669154 
L 797.827291 97.669154 
L 797.837326 96.403882 
L 798.158442 96.403882 
L 798.178512 95.13861 
L 798.409314 95.13861 
L 798.439418 93.873338 
L 798.901022 93.873338 
L 798.931127 92.608066 
L 799.131824 92.608066 
L 799.151894 91.342794 
L 848.704083 91.342794 
L 848.724153 90.077522 
L 848.975025 90.077522 
L 849.00513 88.81225 
L 849.245966 88.81225 
L 849.276071 87.546978 
L 849.557047 87.546978 
L 849.587152 86.281706 
L 876.470569 86.281706 
L 876.510709 85.016434 
L 876.761581 85.016434 
L 876.78165 83.751162 
L 910.338257 83.751162 
L 910.358326 82.48589 
L 910.699512 82.48589 
L 910.719582 81.220618 
L 911.010593 81.220618 
L 911.030663 79.955346 
L 911.221325 79.955346 
L 911.23136 78.690075 
L 911.492267 78.690075 
L 911.512336 77.424803 
L 911.763208 77.424803 
L 911.783278 76.159531 
L 912.03415 76.159531 
L 912.074289 74.894259 
L 912.295056 74.894259 
L 912.315126 73.628987 
L 912.576033 73.628987 
L 912.586068 72.363715 
L 912.887114 72.363715 
L 912.907183 71.098443 
L 967.33632 71.098443 
L 967.396529 69.833171 
L 967.537017 69.833171 
L 967.567122 68.567899 
L 967.858133 68.567899 
L 967.878203 67.302627 
L 968.09897 67.302627 
L 968.11904 66.037355 
L 968.430121 66.037355 
L 968.5104 64.772083 
L 968.731167 64.772083 
L 968.751237 63.506811 
L 969.082387 63.506811 
L 969.102457 62.241539 
L 1008.910787 62.241539 
L 1008.920822 60.976267 
L 1009.914274 60.976267 
L 1009.954414 59.710995 
L 1011.128494 59.710995 
L 1011.148563 58.445723 
L 1039.788083 58.445723 
L 1039.808153 57.180451 
L 1040.159373 57.180451 
L 1040.179443 55.915179 
L 1040.46042 55.915179 
L 1040.470454 54.649907 
L 1040.681187 54.649907 
L 1040.701256 53.384635 
L 1041.012337 53.384635 
L 1041.032407 52.119363 
L 1041.273244 52.119363 
L 1041.283279 50.854091 
L 1049.933337 50.854091 
L 1049.993546 49.588819 
L 1066.169757 49.588819 
L 1080.379133 48.323547 
L 1080.399203 47.058275 
L 1080.66011 47.058275 
L 1080.68018 45.793003 
L 1080.941086 45.793003 
L 1080.961156 44.527731 
L 1081.151818 44.527731 
L 1081.161853 43.262459 
L 1081.38262 43.262459 
L 1081.392655 41.997187 
L 1081.392655 41.997187 
" clip-path="url(#pdd0ad66265)" style="fill: none; stroke: #0000ff; stroke-width: 1.5; stroke-linecap: square"/>
   </g>
   <g id="patch_51">
    <path d="M 49.235 359.517187 
L 49.235 26.877187 
" style="fill: none; stroke: #000000; stroke-width: 0.8; stroke-linejoin: miter; stroke-linecap: square"/>
   </g>
   <g id="patch_52">
    <path d="M 1165.235 359.517187 
L 1165.235 26.877187 
" style="fill: none; stroke: #000000; stroke-width: 0.8; stroke-linejoin: miter; stroke-linecap: square"/>
   </g>
   <g id="patch_53">
    <path d="M 49.235 359.517187 
L 1165.235 359.517187 
" style="fill: none; stroke: #000000; stroke-width: 0.8; stroke-linejoin: miter; stroke-linecap: square"/>
   </g>
   <g id="patch_54">
    <path d="M 49.235 26.877187 
L 1165.235 26.877187 
" style="fill: none; stroke: #000000; stroke-width: 0.8; stroke-linejoin: miter; stroke-linecap: square"/>
   </g>
   <g id="text_19">
    <!-- Pellet Count and Cumulative Sum Over Time of Group ctrl Mouse M50 -->
    <g transform="translate(293.018281 20.877187) scale(0.18 -0.18)">
     <defs>
      <path id="DejaVuSans-61" d="M 2194 1759 
Q 1497 1759 1228 1600 
Q 959 1441 959 1056 
Q 959 750 1161 570 
Q 1363 391 1709 391 
Q 2188 391 2477 730 
Q 2766 1069 2766 1631 
L 2766 1759 
L 2194 1759 
z
M 3341 1997 
L 3341 0 
L 2766 0 
L 2766 531 
Q 2569 213 2275 61 
Q 1981 -91 1556 -91 
Q 1019 -91 701 211 
Q 384 513 384 1019 
Q 384 1609 779 1909 
Q 1175 2209 1959 2209 
L 2766 2209 
L 2766 2266 
Q 2766 2663 2505 2880 
Q 2244 3097 1772 3097 
Q 1472 3097 1187 3025 
Q 903 2953 641 2809 
L 641 3341 
Q 956 3463 1253 3523 
Q 1550 3584 1831 3584 
Q 2591 3584 2966 3190 
Q 3341 2797 3341 1997 
z
" transform="scale(0.015625)"/>
      <path id="DejaVuSans-64" d="M 2906 2969 
L 2906 4863 
L 3481 4863 
L 3481 0 
L 2906 0 
L 2906 525 
Q 2725 213 2448 61 
Q 2172 -91 1784 -91 
Q 1150 -91 751 415 
Q 353 922 353 1747 
Q 353 2572 751 3078 
Q 1150 3584 1784 3584 
Q 2172 3584 2448 3432 
Q 2725 3281 2906 2969 
z
M 947 1747 
Q 947 1113 1208 752 
Q 1469 391 1925 391 
Q 2381 391 2643 752 
Q 2906 1113 2906 1747 
Q 2906 2381 2643 2742 
Q 2381 3103 1925 3103 
Q 1469 3103 1208 2742 
Q 947 2381 947 1747 
z
" transform="scale(0.015625)"/>
      <path id="DejaVuSans-76" d="M 191 3500 
L 800 3500 
L 1894 563 
L 2988 3500 
L 3597 3500 
L 2284 0 
L 1503 0 
L 191 3500 
z
" transform="scale(0.015625)"/>
      <path id="DejaVuSans-53" d="M 3425 4513 
L 3425 3897 
Q 3066 4069 2747 4153 
Q 2428 4238 2131 4238 
Q 1616 4238 1336 4038 
Q 1056 3838 1056 3469 
Q 1056 3159 1242 3001 
Q 1428 2844 1947 2747 
L 2328 2669 
Q 3034 2534 3370 2195 
Q 3706 1856 3706 1288 
Q 3706 609 3251 259 
Q 2797 -91 1919 -91 
Q 1588 -91 1214 -16 
Q 841 59 441 206 
L 441 856 
Q 825 641 1194 531 
Q 1563 422 1919 422 
Q 2459 422 2753 634 
Q 3047 847 3047 1241 
Q 3047 1584 2836 1778 
Q 2625 1972 2144 2069 
L 1759 2144 
Q 1053 2284 737 2584 
Q 422 2884 422 3419 
Q 422 4038 858 4394 
Q 1294 4750 2059 4750 
Q 2388 4750 2728 4690 
Q 3069 4631 3425 4513 
z
" transform="scale(0.015625)"/>
      <path id="DejaVuSans-4f" d="M 2522 4238 
Q 1834 4238 1429 3725 
Q 1025 3213 1025 2328 
Q 1025 1447 1429 934 
Q 1834 422 2522 422 
Q 3209 422 3611 934 
Q 4013 1447 4013 2328 
Q 4013 3213 3611 3725 
Q 3209 4238 2522 4238 
z
M 2522 4750 
Q 3503 4750 4090 4092 
Q 4678 3434 4678 2328 
Q 4678 1225 4090 567 
Q 3503 -91 2522 -91 
Q 1538 -91 948 565 
Q 359 1222 359 2328 
Q 359 3434 948 4092 
Q 1538 4750 2522 4750 
z
" transform="scale(0.015625)"/>
      <path id="DejaVuSans-72" d="M 2631 2963 
Q 2534 3019 2420 3045 
Q 2306 3072 2169 3072 
Q 1681 3072 1420 2755 
Q 1159 2438 1159 1844 
L 1159 0 
L 581 0 
L 581 3500 
L 1159 3500 
L 1159 2956 
Q 1341 3275 1631 3429 
Q 1922 3584 2338 3584 
Q 2397 3584 2469 3576 
Q 2541 3569 2628 3553 
L 2631 2963 
z
" transform="scale(0.015625)"/>
      <path id="DejaVuSans-66" d="M 2375 4863 
L 2375 4384 
L 1825 4384 
Q 1516 4384 1395 4259 
Q 1275 4134 1275 3809 
L 1275 3500 
L 2222 3500 
L 2222 3053 
L 1275 3053 
L 1275 0 
L 697 0 
L 697 3053 
L 147 3053 
L 147 3500 
L 697 3500 
L 697 3744 
Q 697 4328 969 4595 
Q 1241 4863 1831 4863 
L 2375 4863 
z
" transform="scale(0.015625)"/>
      <path id="DejaVuSans-47" d="M 3809 666 
L 3809 1919 
L 2778 1919 
L 2778 2438 
L 4434 2438 
L 4434 434 
Q 4069 175 3628 42 
Q 3188 -91 2688 -91 
Q 1594 -91 976 548 
Q 359 1188 359 2328 
Q 359 3472 976 4111 
Q 1594 4750 2688 4750 
Q 3144 4750 3555 4637 
Q 3966 4525 4313 4306 
L 4313 3634 
Q 3963 3931 3569 4081 
Q 3175 4231 2741 4231 
Q 1884 4231 1454 3753 
Q 1025 3275 1025 2328 
Q 1025 1384 1454 906 
Q 1884 428 2741 428 
Q 3075 428 3337 486 
Q 3600 544 3809 666 
z
" transform="scale(0.015625)"/>
      <path id="DejaVuSans-70" d="M 1159 525 
L 1159 -1331 
L 581 -1331 
L 581 3500 
L 1159 3500 
L 1159 2969 
Q 1341 3281 1617 3432 
Q 1894 3584 2278 3584 
Q 2916 3584 3314 3078 
Q 3713 2572 3713 1747 
Q 3713 922 3314 415 
Q 2916 -91 2278 -91 
Q 1894 -91 1617 61 
Q 1341 213 1159 525 
z
M 3116 1747 
Q 3116 2381 2855 2742 
Q 2594 3103 2138 3103 
Q 1681 3103 1420 2742 
Q 1159 2381 1159 1747 
Q 1159 1113 1420 752 
Q 1681 391 2138 391 
Q 2594 391 2855 752 
Q 3116 1113 3116 1747 
z
" transform="scale(0.015625)"/>
      <path id="DejaVuSans-63" d="M 3122 3366 
L 3122 2828 
Q 2878 2963 2633 3030 
Q 2388 3097 2138 3097 
Q 1578 3097 1268 2742 
Q 959 2388 959 1747 
Q 959 1106 1268 751 
Q 1578 397 2138 397 
Q 2388 397 2633 464 
Q 2878 531 3122 666 
L 3122 134 
Q 2881 22 2623 -34 
Q 2366 -91 2075 -91 
Q 1284 -91 818 406 
Q 353 903 353 1747 
Q 353 2603 823 3093 
Q 1294 3584 2113 3584 
Q 2378 3584 2631 3529 
Q 2884 3475 3122 3366 
z
" transform="scale(0.015625)"/>
      <path id="DejaVuSans-4d" d="M 628 4666 
L 1569 4666 
L 2759 1491 
L 3956 4666 
L 4897 4666 
L 4897 0 
L 4281 0 
L 4281 4097 
L 3078 897 
L 2444 897 
L 1241 4097 
L 1241 0 
L 628 0 
L 628 4666 
z
" transform="scale(0.015625)"/>
      <path id="DejaVuSans-73" d="M 2834 3397 
L 2834 2853 
Q 2591 2978 2328 3040 
Q 2066 3103 1784 3103 
Q 1356 3103 1142 2972 
Q 928 2841 928 2578 
Q 928 2378 1081 2264 
Q 1234 2150 1697 2047 
L 1894 2003 
Q 2506 1872 2764 1633 
Q 3022 1394 3022 966 
Q 3022 478 2636 193 
Q 2250 -91 1575 -91 
Q 1294 -91 989 -36 
Q 684 19 347 128 
L 347 722 
Q 666 556 975 473 
Q 1284 391 1588 391 
Q 1994 391 2212 530 
Q 2431 669 2431 922 
Q 2431 1156 2273 1281 
Q 2116 1406 1581 1522 
L 1381 1569 
Q 847 1681 609 1914 
Q 372 2147 372 2553 
Q 372 3047 722 3315 
Q 1072 3584 1716 3584 
Q 2034 3584 2315 3537 
Q 2597 3491 2834 3397 
z
" transform="scale(0.015625)"/>
     </defs>
     <use xlink:href="#DejaVuSans-50"/>
     <use xlink:href="#DejaVuSans-65" x="56.677734"/>
     <use xlink:href="#DejaVuSans-6c" x="118.201172"/>
     <use xlink:href="#DejaVuSans-6c" x="145.984375"/>
     <use xlink:href="#DejaVuSans-65" x="173.767578"/>
     <use xlink:href="#DejaVuSans-74" x="235.291016"/>
     <use xlink:href="#DejaVuSans-20" x="274.5"/>
     <use xlink:href="#DejaVuSans-43" x="306.287109"/>
     <use xlink:href="#DejaVuSans-6f" x="376.111328"/>
     <use xlink:href="#DejaVuSans-75" x="437.292969"/>
     <use xlink:href="#DejaVuSans-6e" x="500.671875"/>
     <use xlink:href="#DejaVuSans-74" x="564.050781"/>
     <use xlink:href="#DejaVuSans-20" x="603.259766"/>
     <use xlink:href="#DejaVuSans-61" x="635.046875"/>
     <use xlink:href="#DejaVuSans-6e" x="696.326172"/>
     <use xlink:href="#DejaVuSans-64" x="759.705078"/>
     <use xlink:href="#DejaVuSans-20" x="823.181641"/>
     <use xlink:href="#DejaVuSans-43" x="854.96875"/>
     <use xlink:href="#DejaVuSans-75" x="924.792969"/>
     <use xlink:href="#DejaVuSans-6d" x="988.171875"/>
     <use xlink:href="#DejaVuSans-75" x="1085.583984"/>
     <use xlink:href="#DejaVuSans-6c" x="1148.962891"/>
     <use xlink:href="#DejaVuSans-61" x="1176.746094"/>
     <use xlink:href="#DejaVuSans-74" x="1238.025391"/>
     <use xlink:href="#DejaVuSans-69" x="1277.234375"/>
     <use xlink:href="#DejaVuSans-76" x="1305.017578"/>
     <use xlink:href="#DejaVuSans-65" x="1364.197266"/>
     <use xlink:href="#DejaVuSans-20" x="1425.720703"/>
     <use xlink:href="#DejaVuSans-53" x="1457.507812"/>
     <use xlink:href="#DejaVuSans-75" x="1520.984375"/>
     <use xlink:href="#DejaVuSans-6d" x="1584.363281"/>
     <use xlink:href="#DejaVuSans-20" x="1681.775391"/>
     <use xlink:href="#DejaVuSans-4f" x="1713.5625"/>
     <use xlink:href="#DejaVuSans-76" x="1792.273438"/>
     <use xlink:href="#DejaVuSans-65" x="1851.453125"/>
     <use xlink:href="#DejaVuSans-72" x="1912.976562"/>
     <use xlink:href="#DejaVuSans-20" x="1954.089844"/>
     <use xlink:href="#DejaVuSans-54" x="1985.876953"/>
     <use xlink:href="#DejaVuSans-69" x="2043.835938"/>
     <use xlink:href="#DejaVuSans-6d" x="2071.619141"/>
     <use xlink:href="#DejaVuSans-65" x="2169.03125"/>
     <use xlink:href="#DejaVuSans-20" x="2230.554688"/>
     <use xlink:href="#DejaVuSans-6f" x="2262.341797"/>
     <use xlink:href="#DejaVuSans-66" x="2323.523438"/>
     <use xlink:href="#DejaVuSans-20" x="2358.728516"/>
     <use xlink:href="#DejaVuSans-47" x="2390.515625"/>
     <use xlink:href="#DejaVuSans-72" x="2468.005859"/>
     <use xlink:href="#DejaVuSans-6f" x="2506.869141"/>
     <use xlink:href="#DejaVuSans-75" x="2568.050781"/>
     <use xlink:href="#DejaVuSans-70" x="2631.429688"/>
     <use xlink:href="#DejaVuSans-20" x="2694.90625"/>
     <use xlink:href="#DejaVuSans-63" x="2726.693359"/>
     <use xlink:href="#DejaVuSans-74" x="2781.673828"/>
     <use xlink:href="#DejaVuSans-72" x="2820.882812"/>
     <use xlink:href="#DejaVuSans-6c" x="2861.996094"/>
     <use xlink:href="#DejaVuSans-20" x="2889.779297"/>
     <use xlink:href="#DejaVuSans-4d" x="2921.566406"/>
     <use xlink:href="#DejaVuSans-6f" x="3007.845703"/>
     <use xlink:href="#DejaVuSans-75" x="3069.027344"/>
     <use xlink:href="#DejaVuSans-73" x="3132.40625"/>
     <use xlink:href="#DejaVuSans-65" x="3184.505859"/>
     <use xlink:href="#DejaVuSans-20" x="3246.029297"/>
     <use xlink:href="#DejaVuSans-4d" x="3277.816406"/>
     <use xlink:href="#DejaVuSans-35" x="3364.095703"/>
     <use xlink:href="#DejaVuSans-30" x="3427.71875"/>
    </g>
   </g>
   <g id="legend_1">
    <g id="patch_55">
     <path d="M 1086.550625 64.233437 
L 1158.235 64.233437 
Q 1160.235 64.233437 1160.235 62.233437 
L 1160.235 33.877187 
Q 1160.235 31.877187 1158.235 31.877187 
L 1086.550625 31.877187 
Q 1084.550625 31.877187 1084.550625 33.877187 
L 1084.550625 62.233437 
Q 1084.550625 64.233437 1086.550625 64.233437 
z
" style="fill: #ffffff; opacity: 0.8; stroke: #cccccc; stroke-linejoin: miter"/>
    </g>
    <g id="patch_56">
     <path d="M 1088.550625 43.475625 
L 1108.550625 43.475625 
L 1108.550625 36.475625 
L 1088.550625 36.475625 
z
" style="fill: #add8e6; opacity: 0.9; stroke: #add8e6; stroke-linejoin: miter"/>
    </g>
    <g id="text_20">
     <!-- Meal -->
     <g transform="translate(1116.550625 43.475625) scale(0.1 -0.1)">
      <use xlink:href="#DejaVuSans-4d"/>
      <use xlink:href="#DejaVuSans-65" x="86.279297"/>
      <use xlink:href="#DejaVuSans-61" x="147.802734"/>
      <use xlink:href="#DejaVuSans-6c" x="209.082031"/>
     </g>
    </g>
    <g id="patch_57">
     <path d="M 1088.550625 58.15375 
L 1108.550625 58.15375 
L 1108.550625 51.15375 
L 1088.550625 51.15375 
z
" style="fill: #808080; opacity: 0.5; stroke: #808080; stroke-linejoin: miter"/>
    </g>
    <g id="text_21">
     <!-- Inactive -->
     <g transform="translate(1116.550625 58.15375) scale(0.1 -0.1)">
      <defs>
       <path id="DejaVuSans-49" d="M 628 4666 
L 1259 4666 
L 1259 0 
L 628 0 
L 628 4666 
z
" transform="scale(0.015625)"/>
      </defs>
      <use xlink:href="#DejaVuSans-49"/>
      <use xlink:href="#DejaVuSans-6e" x="29.492188"/>
      <use xlink:href="#DejaVuSans-61" x="92.871094"/>
      <use xlink:href="#DejaVuSans-63" x="154.150391"/>
      <use xlink:href="#DejaVuSans-74" x="209.130859"/>
      <use xlink:href="#DejaVuSans-69" x="248.339844"/>
      <use xlink:href="#DejaVuSans-76" x="276.123047"/>
      <use xlink:href="#DejaVuSans-65" x="335.302734"/>
     </g>
    </g>
   </g>
  </g>
 </g>
 <defs>
  <clipPath id="pdd0ad66265">
   <rect x="49.235" y="26.877187" width="1116" height="332.64"/>
  </clipPath>
 </defs>
</svg>
