<?xml version="1.0" encoding="utf-8" standalone="no"?>
<!DOCTYPE svg PUBLIC "-//W3C//DTD SVG 1.1//EN"
  "http://www.w3.org/Graphics/SVG/1.1/DTD/svg11.dtd">
<svg xmlns:xlink="http://www.w3.org/1999/xlink" width="1172.435pt" height="399.009062pt" viewBox="0 0 1172.435 399.009062" xmlns="http://www.w3.org/2000/svg" version="1.1">
 <metadata>
  <rdf:RDF xmlns:dc="http://purl.org/dc/elements/1.1/" xmlns:cc="http://creativecommons.org/ns#" xmlns:rdf="http://www.w3.org/1999/02/22-rdf-syntax-ns#">
   <cc:Work>
    <dc:type rdf:resource="http://purl.org/dc/dcmitype/StillImage"/>
    <dc:date>2025-10-02T16:55:00.750618</dc:date>
    <dc:format>image/svg+xml</dc:format>
    <dc:creator>
     <cc:Agent>
      <dc:title>Matplotlib v3.8.4, https://matplotlib.org/</dc:title>
     </cc:Agent>
    </dc:creator>
   </cc:Work>
  </rdf:RDF>
 </metadata>
 <defs>
  <style type="text/css">*{stroke-linejoin: round; stroke-linecap: butt}</style>
 </defs>
 <g id="figure_1">
  <g id="patch_1">
   <path d="M 0 399.009062 
L 1172.435 399.009062 
L 1172.435 0 
L 0 0 
z
" style="fill: #ffffff"/>
  </g>
  <g id="axes_1">
   <g id="patch_2">
    <path d="M 49.235 359.517187 
L 1165.235 359.517187 
L 1165.235 26.877187 
L 49.235 26.877187 
z
" style="fill: #ffffff"/>
   </g>
   <g id="patch_3">
    <path d="M 157.236557 359.517187 
L 157.236557 26.877187 
L 150.878876 26.877187 
L 150.878876 359.517187 
z
" clip-path="url(#p8909432b1e)" style="fill: #add8e6; stroke: #add8e6; stroke-linejoin: miter"/>
   </g>
   <g id="patch_4">
    <path d="M 187.8264 359.517187 
L 187.8264 26.877187 
L 161.025285 26.877187 
L 161.025285 359.517187 
z
" clip-path="url(#p8909432b1e)" style="fill: #add8e6; stroke: #add8e6; stroke-linejoin: miter"/>
   </g>
   <g id="patch_5">
    <path d="M 192.450939 359.517187 
L 192.450939 26.877187 
L 165.439811 26.877187 
L 165.439811 359.517187 
z
" clip-path="url(#p8909432b1e)" style="fill: #add8e6; stroke: #add8e6; stroke-linejoin: miter"/>
   </g>
   <g id="patch_6">
    <path d="M 181.033843 359.517187 
L 181.033843 26.877187 
L 171.052899 26.877187 
L 171.052899 359.517187 
z
" clip-path="url(#p8909432b1e)" style="fill: #add8e6; stroke: #add8e6; stroke-linejoin: miter"/>
   </g>
   <g id="patch_7">
    <path d="M 181.294768 359.517187 
L 181.294768 26.877187 
L 177.620593 26.877187 
L 177.620593 359.517187 
z
" clip-path="url(#p8909432b1e)" style="fill: #add8e6; stroke: #add8e6; stroke-linejoin: miter"/>
   </g>
   <g id="patch_8">
    <path d="M 182.363928 359.517187 
L 182.363928 26.877187 
L 177.665141 26.877187 
L 177.665141 359.517187 
z
" clip-path="url(#p8909432b1e)" style="fill: #add8e6; stroke: #add8e6; stroke-linejoin: miter"/>
   </g>
   <g id="patch_9">
    <path d="M 184.449213 359.517187 
L 184.449213 26.877187 
L 184.044036 26.877187 
L 184.044036 359.517187 
z
" clip-path="url(#p8909432b1e)" style="fill: #add8e6; stroke: #add8e6; stroke-linejoin: miter"/>
   </g>
   <g id="patch_10">
    <path d="M 196.562112 359.517187 
L 196.562112 26.877187 
L 188.280369 26.877187 
L 188.280369 359.517187 
z
" clip-path="url(#p8909432b1e)" style="fill: #add8e6; stroke: #add8e6; stroke-linejoin: miter"/>
   </g>
   <g id="patch_11">
    <path d="M 190.724162 359.517187 
L 190.724162 26.877187 
L 190.849321 26.877187 
L 190.849321 359.517187 
z
" clip-path="url(#p8909432b1e)" style="fill: #add8e6; stroke: #add8e6; stroke-linejoin: miter"/>
   </g>
   <g id="patch_12">
    <path d="M 203.92107 359.517187 
L 203.92107 26.877187 
L 203.730149 26.877187 
L 203.730149 359.517187 
z
" clip-path="url(#p8909432b1e)" style="fill: #add8e6; stroke: #add8e6; stroke-linejoin: miter"/>
   </g>
   <g id="patch_13">
    <path d="M 207.257951 359.517187 
L 207.257951 26.877187 
L 205.319038 26.877187 
L 205.319038 359.517187 
z
" clip-path="url(#p8909432b1e)" style="fill: #add8e6; stroke: #add8e6; stroke-linejoin: miter"/>
   </g>
   <g id="patch_14">
    <path d="M 261.225053 359.517187 
L 261.225053 26.877187 
L 225.620342 26.877187 
L 225.620342 359.517187 
z
" clip-path="url(#p8909432b1e)" style="fill: #add8e6; stroke: #add8e6; stroke-linejoin: miter"/>
   </g>
   <g id="patch_15">
    <path d="M 244.392154 359.517187 
L 244.392154 26.877187 
L 233.957241 26.877187 
L 233.957241 359.517187 
z
" clip-path="url(#p8909432b1e)" style="fill: #add8e6; stroke: #add8e6; stroke-linejoin: miter"/>
   </g>
   <g id="patch_16">
    <path d="M 238.032351 359.517187 
L 238.032351 26.877187 
L 236.70863 26.877187 
L 236.70863 359.517187 
z
" clip-path="url(#p8909432b1e)" style="fill: #add8e6; stroke: #add8e6; stroke-linejoin: miter"/>
   </g>
   <g id="patch_17">
    <path d="M 238.17236 359.517187 
L 238.17236 26.877187 
L 236.816819 26.877187 
L 236.816819 359.517187 
z
" clip-path="url(#p8909432b1e)" style="fill: #add8e6; stroke: #add8e6; stroke-linejoin: miter"/>
   </g>
   <g id="patch_18">
    <path d="M 239.012414 359.517187 
L 239.012414 26.877187 
L 237.881736 26.877187 
L 237.881736 359.517187 
z
" clip-path="url(#p8909432b1e)" style="fill: #add8e6; stroke: #add8e6; stroke-linejoin: miter"/>
   </g>
   <g id="patch_19">
    <path d="M 282.141548 359.517187 
L 282.141548 26.877187 
L 256.172001 26.877187 
L 256.172001 359.517187 
z
" clip-path="url(#p8909432b1e)" style="fill: #add8e6; stroke: #add8e6; stroke-linejoin: miter"/>
   </g>
   <g id="patch_20">
    <path d="M 257.190248 359.517187 
L 257.190248 26.877187 
L 256.053206 26.877187 
L 256.053206 359.517187 
z
" clip-path="url(#p8909432b1e)" style="fill: #add8e6; stroke: #add8e6; stroke-linejoin: miter"/>
   </g>
   <g id="patch_21">
    <path d="M 305.703364 359.517187 
L 305.703364 26.877187 
L 272.285763 26.877187 
L 272.285763 359.517187 
z
" clip-path="url(#p8909432b1e)" style="fill: #add8e6; stroke: #add8e6; stroke-linejoin: miter"/>
   </g>
   <g id="patch_22">
    <path d="M 281.596361 359.517187 
L 281.596361 26.877187 
L 280.552658 26.877187 
L 280.552658 359.517187 
z
" clip-path="url(#p8909432b1e)" style="fill: #add8e6; stroke: #add8e6; stroke-linejoin: miter"/>
   </g>
   <g id="patch_23">
    <path d="M 283.017664 359.517187 
L 283.017664 26.877187 
L 281.606968 26.877187 
L 281.606968 359.517187 
z
" clip-path="url(#p8909432b1e)" style="fill: #add8e6; stroke: #add8e6; stroke-linejoin: miter"/>
   </g>
   <g id="patch_24">
    <path d="M 290.968478 359.517187 
L 290.968478 26.877187 
L 289.731732 26.877187 
L 289.731732 359.517187 
z
" clip-path="url(#p8909432b1e)" style="fill: #add8e6; stroke: #add8e6; stroke-linejoin: miter"/>
   </g>
   <g id="patch_25">
    <path d="M 290.847561 359.517187 
L 290.847561 26.877187 
L 291.439417 26.877187 
L 291.439417 359.517187 
z
" clip-path="url(#p8909432b1e)" style="fill: #add8e6; stroke: #add8e6; stroke-linejoin: miter"/>
   </g>
   <g id="patch_26">
    <path d="M 335.758627 359.517187 
L 335.758627 26.877187 
L 300.514546 26.877187 
L 300.514546 359.517187 
z
" clip-path="url(#p8909432b1e)" style="fill: #add8e6; stroke: #add8e6; stroke-linejoin: miter"/>
   </g>
   <g id="patch_27">
    <path d="M 307.077997 359.517187 
L 307.077997 26.877187 
L 305.431831 26.877187 
L 305.431831 359.517187 
z
" clip-path="url(#p8909432b1e)" style="fill: #add8e6; stroke: #add8e6; stroke-linejoin: miter"/>
   </g>
   <g id="patch_28">
    <path d="M 314.850618 359.517187 
L 314.850618 26.877187 
L 314.977899 26.877187 
L 314.977899 359.517187 
z
" clip-path="url(#p8909432b1e)" style="fill: #add8e6; stroke: #add8e6; stroke-linejoin: miter"/>
   </g>
   <g id="patch_29">
    <path d="M 327.578708 359.517187 
L 327.578708 26.877187 
L 327.508703 26.877187 
L 327.508703 359.517187 
z
" clip-path="url(#p8909432b1e)" style="fill: #add8e6; stroke: #add8e6; stroke-linejoin: miter"/>
   </g>
   <g id="patch_30">
    <path d="M 336.885063 359.517187 
L 336.885063 26.877187 
L 336.488371 26.877187 
L 336.488371 359.517187 
z
" clip-path="url(#p8909432b1e)" style="fill: #add8e6; stroke: #add8e6; stroke-linejoin: miter"/>
   </g>
   <g id="patch_31">
    <path d="M 338.323337 359.517187 
L 338.323337 26.877187 
L 337.487526 26.877187 
L 337.487526 359.517187 
z
" clip-path="url(#p8909432b1e)" style="fill: #add8e6; stroke: #add8e6; stroke-linejoin: miter"/>
   </g>
   <g id="patch_32">
    <path d="M 345.54865 359.517187 
L 345.54865 26.877187 
L 344.014915 26.877187 
L 344.014915 359.517187 
z
" clip-path="url(#p8909432b1e)" style="fill: #add8e6; stroke: #add8e6; stroke-linejoin: miter"/>
   </g>
   <g id="patch_33">
    <path d="M 364.882619 359.517187 
L 364.882619 26.877187 
L 347.930924 26.877187 
L 347.930924 359.517187 
z
" clip-path="url(#p8909432b1e)" style="fill: #add8e6; stroke: #add8e6; stroke-linejoin: miter"/>
   </g>
   <g id="patch_34">
    <path d="M 361.590286 359.517187 
L 361.590286 26.877187 
L 360.608102 26.877187 
L 360.608102 359.517187 
z
" clip-path="url(#p8909432b1e)" style="fill: #add8e6; stroke: #add8e6; stroke-linejoin: miter"/>
   </g>
   <g id="patch_35">
    <path d="M 372.911922 359.517187 
L 372.911922 26.877187 
L 372.5619 26.877187 
L 372.5619 359.517187 
z
" clip-path="url(#p8909432b1e)" style="fill: #add8e6; stroke: #add8e6; stroke-linejoin: miter"/>
   </g>
   <g id="patch_36">
    <path d="M 374.172003 359.517187 
L 374.172003 26.877187 
L 373.529234 26.877187 
L 373.529234 359.517187 
z
" clip-path="url(#p8909432b1e)" style="fill: #add8e6; stroke: #add8e6; stroke-linejoin: miter"/>
   </g>
   <g id="patch_37">
    <path d="M 374.2611 359.517187 
L 374.2611 26.877187 
L 373.809252 26.877187 
L 373.809252 359.517187 
z
" clip-path="url(#p8909432b1e)" style="fill: #add8e6; stroke: #add8e6; stroke-linejoin: miter"/>
   </g>
   <g id="patch_38">
    <path d="M 375.654825 359.517187 
L 375.654825 26.877187 
L 375.247527 26.877187 
L 375.247527 359.517187 
z
" clip-path="url(#p8909432b1e)" style="fill: #add8e6; stroke: #add8e6; stroke-linejoin: miter"/>
   </g>
   <g id="patch_39">
    <path d="M 423.094539 359.517187 
L 423.094539 26.877187 
L 388.728695 26.877187 
L 388.728695 359.517187 
z
" clip-path="url(#p8909432b1e)" style="fill: #add8e6; stroke: #add8e6; stroke-linejoin: miter"/>
   </g>
   <g id="patch_40">
    <path d="M 389.384192 359.517187 
L 389.384192 26.877187 
L 389.182664 26.877187 
L 389.182664 359.517187 
z
" clip-path="url(#p8909432b1e)" style="fill: #add8e6; stroke: #add8e6; stroke-linejoin: miter"/>
   </g>
   <g id="patch_41">
    <path d="M 438.495528 359.517187 
L 438.495528 26.877187 
L 402.729594 26.877187 
L 402.729594 359.517187 
z
" clip-path="url(#p8909432b1e)" style="fill: #add8e6; stroke: #add8e6; stroke-linejoin: miter"/>
   </g>
   <g id="patch_42">
    <path d="M 404.6579 359.517187 
L 404.6579 26.877187 
L 403.862394 26.877187 
L 403.862394 359.517187 
z
" clip-path="url(#p8909432b1e)" style="fill: #add8e6; stroke: #add8e6; stroke-linejoin: miter"/>
   </g>
   <g id="patch_43">
    <path d="M 446.450584 359.517187 
L 446.450584 26.877187 
L 411.741082 26.877187 
L 411.741082 359.517187 
z
" clip-path="url(#p8909432b1e)" style="fill: #add8e6; stroke: #add8e6; stroke-linejoin: miter"/>
   </g>
   <g id="patch_44">
    <path d="M 430.118323 359.517187 
L 430.118323 26.877187 
L 430.612597 26.877187 
L 430.612597 359.517187 
z
" clip-path="url(#p8909432b1e)" style="fill: #add8e6; stroke: #add8e6; stroke-linejoin: miter"/>
   </g>
   <g id="patch_45">
    <path d="M 487.668382 359.517187 
L 487.668382 26.877187 
L 453.124346 26.877187 
L 453.124346 359.517187 
z
" clip-path="url(#p8909432b1e)" style="fill: #add8e6; stroke: #add8e6; stroke-linejoin: miter"/>
   </g>
   <g id="patch_46">
    <path d="M 453.803177 359.517187 
L 453.803177 26.877187 
L 453.302539 26.877187 
L 453.302539 359.517187 
z
" clip-path="url(#p8909432b1e)" style="fill: #add8e6; stroke: #add8e6; stroke-linejoin: miter"/>
   </g>
   <g id="patch_47">
    <path d="M 494.456697 359.517187 
L 494.456697 26.877187 
L 465.415438 26.877187 
L 465.415438 359.517187 
z
" clip-path="url(#p8909432b1e)" style="fill: #add8e6; stroke: #add8e6; stroke-linejoin: miter"/>
   </g>
   <g id="patch_48">
    <path d="M 466.164274 359.517187 
L 466.164274 26.877187 
L 465.423924 26.877187 
L 465.423924 359.517187 
z
" clip-path="url(#p8909432b1e)" style="fill: #add8e6; stroke: #add8e6; stroke-linejoin: miter"/>
   </g>
   <g id="patch_49">
    <path d="M 507.184787 359.517187 
L 507.184787 26.877187 
L 471.993739 26.877187 
L 471.993739 359.517187 
z
" clip-path="url(#p8909432b1e)" style="fill: #add8e6; stroke: #add8e6; stroke-linejoin: miter"/>
   </g>
   <g id="patch_50">
    <path d="M 519.509821 359.517187 
L 519.509821 26.877187 
L 484.013299 26.877187 
L 484.013299 359.517187 
z
" clip-path="url(#p8909432b1e)" style="fill: #add8e6; stroke: #add8e6; stroke-linejoin: miter"/>
   </g>
   <g id="patch_51">
    <path d="M 525.99054 359.517187 
L 525.99054 26.877187 
L 498.606054 26.877187 
L 498.606054 359.517187 
z
" clip-path="url(#p8909432b1e)" style="fill: #add8e6; stroke: #add8e6; stroke-linejoin: miter"/>
   </g>
   <g id="patch_52">
    <path d="M 501.817776 359.517187 
L 501.817776 26.877187 
L 501.817776 26.877187 
z
" clip-path="url(#p8909432b1e)" style="fill: #add8e6; stroke: #add8e6; stroke-linejoin: miter"/>
   </g>
   <g id="patch_53">
    <path d="M 502.50085 359.517187 
L 502.50085 26.877187 
L 502.284472 26.877187 
L 502.284472 359.517187 
z
" clip-path="url(#p8909432b1e)" style="fill: #add8e6; stroke: #add8e6; stroke-linejoin: miter"/>
   </g>
   <g id="patch_54">
    <path d="M 504.034585 359.517187 
L 504.034585 26.877187 
L 503.521219 26.877187 
L 503.521219 359.517187 
z
" clip-path="url(#p8909432b1e)" style="fill: #add8e6; stroke: #add8e6; stroke-linejoin: miter"/>
   </g>
   <g id="patch_55">
    <path d="M 534.261677 359.517187 
L 534.261677 26.877187 
L 534.242585 26.877187 
L 534.242585 359.517187 
z
" clip-path="url(#p8909432b1e)" style="fill: #add8e6; stroke: #add8e6; stroke-linejoin: miter"/>
   </g>
   <g id="patch_56">
    <path d="M 535.031727 359.517187 
L 535.031727 26.877187 
L 534.713525 26.877187 
L 534.713525 359.517187 
z
" clip-path="url(#p8909432b1e)" style="fill: #add8e6; stroke: #add8e6; stroke-linejoin: miter"/>
   </g>
   <g id="patch_57">
    <path d="M 539.946891 359.517187 
L 539.946891 26.877187 
L 535.301138 26.877187 
L 535.301138 359.517187 
z
" clip-path="url(#p8909432b1e)" style="fill: #add8e6; stroke: #add8e6; stroke-linejoin: miter"/>
   </g>
   <g id="patch_58">
    <path d="M 543.404689 359.517187 
L 543.404689 26.877187 
L 544.134433 26.877187 
L 544.134433 359.517187 
z
" clip-path="url(#p8909432b1e)" style="fill: #add8e6; stroke: #add8e6; stroke-linejoin: miter"/>
   </g>
   <g id="patch_59">
    <path d="M 552.100096 359.517187 
L 552.100096 26.877187 
L 550.999116 26.877187 
L 550.999116 359.517187 
z
" clip-path="url(#p8909432b1e)" style="fill: #add8e6; stroke: #add8e6; stroke-linejoin: miter"/>
   </g>
   <g id="patch_60">
    <path d="M 557.761974 359.517187 
L 557.761974 26.877187 
L 558.676276 26.877187 
L 558.676276 359.517187 
z
" clip-path="url(#p8909432b1e)" style="fill: #add8e6; stroke: #add8e6; stroke-linejoin: miter"/>
   </g>
   <g id="patch_61">
    <path d="M 615.47962 359.517187 
L 615.47962 26.877187 
L 583.998811 26.877187 
L 583.998811 359.517187 
z
" clip-path="url(#p8909432b1e)" style="fill: #add8e6; stroke: #add8e6; stroke-linejoin: miter"/>
   </g>
   <g id="patch_62">
    <path d="M 587.520249 359.517187 
L 587.520249 26.877187 
L 588.55971 26.877187 
L 588.55971 359.517187 
z
" clip-path="url(#p8909432b1e)" style="fill: #add8e6; stroke: #add8e6; stroke-linejoin: miter"/>
   </g>
   <g id="patch_63">
    <path d="M 596.578407 359.517187 
L 596.578407 26.877187 
L 597.734541 26.877187 
L 597.734541 359.517187 
z
" clip-path="url(#p8909432b1e)" style="fill: #add8e6; stroke: #add8e6; stroke-linejoin: miter"/>
   </g>
   <g id="patch_64">
    <path d="M 613.85891 359.517187 
L 613.85891 26.877187 
L 614.221661 26.877187 
L 614.221661 359.517187 
z
" clip-path="url(#p8909432b1e)" style="fill: #add8e6; stroke: #add8e6; stroke-linejoin: miter"/>
   </g>
   <g id="patch_65">
    <path d="M 623.83349 359.517187 
L 623.83349 26.877187 
L 626.173337 26.877187 
L 626.173337 359.517187 
z
" clip-path="url(#p8909432b1e)" style="fill: #add8e6; stroke: #add8e6; stroke-linejoin: miter"/>
   </g>
   <g id="patch_66">
    <path d="M 684.501932 359.517187 
L 684.501932 26.877187 
L 684.147666 26.877187 
L 684.147666 359.517187 
z
" clip-path="url(#p8909432b1e)" style="fill: #add8e6; stroke: #add8e6; stroke-linejoin: miter"/>
   </g>
   <g id="patch_67">
    <path d="M 685.19137 359.517187 
L 685.19137 26.877187 
L 684.856197 26.877187 
L 684.856197 359.517187 
z
" clip-path="url(#p8909432b1e)" style="fill: #add8e6; stroke: #add8e6; stroke-linejoin: miter"/>
   </g>
   <g id="patch_68">
    <path d="M 735.410049 359.517187 
L 735.410049 26.877187 
L 736.356171 26.877187 
L 736.356171 359.517187 
z
" clip-path="url(#p8909432b1e)" style="fill: #add8e6; stroke: #add8e6; stroke-linejoin: miter"/>
   </g>
   <g id="patch_69">
    <path d="M 804.260531 359.517187 
L 804.260531 26.877187 
L 804.574491 26.877187 
L 804.574491 359.517187 
z
" clip-path="url(#p8909432b1e)" style="fill: #add8e6; stroke: #add8e6; stroke-linejoin: miter"/>
   </g>
   <g id="patch_70">
    <path d="M 843.004838 359.517187 
L 843.004838 26.877187 
L 807.686509 26.877187 
L 807.686509 359.517187 
z
" clip-path="url(#p8909432b1e)" style="fill: #add8e6; stroke: #add8e6; stroke-linejoin: miter"/>
   </g>
   <g id="patch_71">
    <path d="M 897.693198 359.517187 
L 897.693198 26.877187 
L 862.540334 26.877187 
L 862.540334 359.517187 
z
" clip-path="url(#p8909432b1e)" style="fill: #add8e6; stroke: #add8e6; stroke-linejoin: miter"/>
   </g>
   <g id="patch_72">
    <path d="M 864.194986 359.517187 
L 864.194986 26.877187 
L 864.545009 26.877187 
L 864.545009 359.517187 
z
" clip-path="url(#p8909432b1e)" style="fill: #add8e6; stroke: #add8e6; stroke-linejoin: miter"/>
   </g>
   <g id="patch_73">
    <path d="M 965.2539 359.517187 
L 965.2539 26.877187 
L 965.007824 26.877187 
L 965.007824 359.517187 
z
" clip-path="url(#p8909432b1e)" style="fill: #add8e6; stroke: #add8e6; stroke-linejoin: miter"/>
   </g>
   <g id="patch_74">
    <path d="M 966.399428 359.517187 
L 966.399428 26.877187 
L 966.573379 26.877187 
L 966.573379 359.517187 
z
" clip-path="url(#p8909432b1e)" style="fill: #add8e6; stroke: #add8e6; stroke-linejoin: miter"/>
   </g>
   <g id="patch_75">
    <path d="M 1048.745928 359.517187 
L 1048.745928 26.877187 
L 1050.583016 26.877187 
L 1050.583016 359.517187 
z
" clip-path="url(#p8909432b1e)" style="fill: #add8e6; stroke: #add8e6; stroke-linejoin: miter"/>
   </g>
   <g id="patch_76">
    <path d="M 1080.054909 359.517187 
L 1080.054909 26.877187 
L 1080.118549 26.877187 
L 1080.118549 359.517187 
z
" clip-path="url(#p8909432b1e)" style="fill: #add8e6; stroke: #add8e6; stroke-linejoin: miter"/>
   </g>
   <g id="patch_77">
    <path d="M 1103.968869 359.517187 
L 1103.968869 26.877187 
L 1088.304832 26.877187 
L 1088.304832 359.517187 
z
" clip-path="url(#p8909432b1e)" style="fill: #add8e6; stroke: #add8e6; stroke-linejoin: miter"/>
   </g>
   <g id="patch_78">
    <path d="M 1112.785192 359.517187 
L 1112.785192 26.877187 
L 1114.507727 26.877187 
L 1114.507727 359.517187 
z
" clip-path="url(#p8909432b1e)" style="fill: #add8e6; stroke: #add8e6; stroke-linejoin: miter"/>
   </g>
   <g id="patch_79">
    <path d="M 99.962273 359.517187 
L 99.962273 26.877187 
L 329.067894 26.877187 
L 329.067894 359.517187 
z
" clip-path="url(#p8909432b1e)" style="fill: #808080; opacity: 0.4; stroke: #808080; stroke-linejoin: miter"/>
   </g>
   <g id="patch_80">
    <path d="M 787.279138 359.517187 
L 787.279138 26.877187 
L 1114.157705 26.877187 
L 1114.157705 359.517187 
z
" clip-path="url(#p8909432b1e)" style="fill: #808080; opacity: 0.4; stroke: #808080; stroke-linejoin: miter"/>
   </g>
   <g id="matplotlib.axis_1">
    <g id="xtick_1">
     <g id="line2d_1">
      <defs>
       <path id="m3dc23cd677" d="M 0 0 
L 0 3.5 
" style="stroke: #000000; stroke-width: 0.8"/>
      </defs>
      <g>
       <use xlink:href="#m3dc23cd677" x="58.850542" y="359.517187" style="stroke: #000000; stroke-width: 0.8"/>
      </g>
     </g>
     <g id="text_1">
      <!-- 09-06 00 -->
      <g transform="translate(36.370073 374.115625) scale(0.1 -0.1)">
       <defs>
        <path id="DejaVuSans-30" d="M 2034 4250 
Q 1547 4250 1301 3770 
Q 1056 3291 1056 2328 
Q 1056 1369 1301 889 
Q 1547 409 2034 409 
Q 2525 409 2770 889 
Q 3016 1369 3016 2328 
Q 3016 3291 2770 3770 
Q 2525 4250 2034 4250 
z
M 2034 4750 
Q 2819 4750 3233 4129 
Q 3647 3509 3647 2328 
Q 3647 1150 3233 529 
Q 2819 -91 2034 -91 
Q 1250 -91 836 529 
Q 422 1150 422 2328 
Q 422 3509 836 4129 
Q 1250 4750 2034 4750 
z
" transform="scale(0.015625)"/>
        <path id="DejaVuSans-39" d="M 703 97 
L 703 672 
Q 941 559 1184 500 
Q 1428 441 1663 441 
Q 2288 441 2617 861 
Q 2947 1281 2994 2138 
Q 2813 1869 2534 1725 
Q 2256 1581 1919 1581 
Q 1219 1581 811 2004 
Q 403 2428 403 3163 
Q 403 3881 828 4315 
Q 1253 4750 1959 4750 
Q 2769 4750 3195 4129 
Q 3622 3509 3622 2328 
Q 3622 1225 3098 567 
Q 2575 -91 1691 -91 
Q 1453 -91 1209 -44 
Q 966 3 703 97 
z
M 1959 2075 
Q 2384 2075 2632 2365 
Q 2881 2656 2881 3163 
Q 2881 3666 2632 3958 
Q 2384 4250 1959 4250 
Q 1534 4250 1286 3958 
Q 1038 3666 1038 3163 
Q 1038 2656 1286 2365 
Q 1534 2075 1959 2075 
z
" transform="scale(0.015625)"/>
        <path id="DejaVuSans-2d" d="M 313 2009 
L 1997 2009 
L 1997 1497 
L 313 1497 
L 313 2009 
z
" transform="scale(0.015625)"/>
        <path id="DejaVuSans-36" d="M 2113 2584 
Q 1688 2584 1439 2293 
Q 1191 2003 1191 1497 
Q 1191 994 1439 701 
Q 1688 409 2113 409 
Q 2538 409 2786 701 
Q 3034 994 3034 1497 
Q 3034 2003 2786 2293 
Q 2538 2584 2113 2584 
z
M 3366 4563 
L 3366 3988 
Q 3128 4100 2886 4159 
Q 2644 4219 2406 4219 
Q 1781 4219 1451 3797 
Q 1122 3375 1075 2522 
Q 1259 2794 1537 2939 
Q 1816 3084 2150 3084 
Q 2853 3084 3261 2657 
Q 3669 2231 3669 1497 
Q 3669 778 3244 343 
Q 2819 -91 2113 -91 
Q 1303 -91 875 529 
Q 447 1150 447 2328 
Q 447 3434 972 4092 
Q 1497 4750 2381 4750 
Q 2619 4750 2861 4703 
Q 3103 4656 3366 4563 
z
" transform="scale(0.015625)"/>
        <path id="DejaVuSans-20" transform="scale(0.015625)"/>
       </defs>
       <use xlink:href="#DejaVuSans-30"/>
       <use xlink:href="#DejaVuSans-39" x="63.623047"/>
       <use xlink:href="#DejaVuSans-2d" x="127.246094"/>
       <use xlink:href="#DejaVuSans-30" x="163.330078"/>
       <use xlink:href="#DejaVuSans-36" x="226.953125"/>
       <use xlink:href="#DejaVuSans-20" x="290.576172"/>
       <use xlink:href="#DejaVuSans-30" x="322.363281"/>
       <use xlink:href="#DejaVuSans-30" x="385.986328"/>
      </g>
     </g>
    </g>
    <g id="xtick_2">
     <g id="line2d_2">
      <g>
       <use xlink:href="#m3dc23cd677" x="173.403353" y="359.517187" style="stroke: #000000; stroke-width: 0.8"/>
      </g>
     </g>
     <g id="text_2">
      <!-- 09-06 03 -->
      <g transform="translate(150.922884 374.115625) scale(0.1 -0.1)">
       <defs>
        <path id="DejaVuSans-33" d="M 2597 2516 
Q 3050 2419 3304 2112 
Q 3559 1806 3559 1356 
Q 3559 666 3084 287 
Q 2609 -91 1734 -91 
Q 1441 -91 1130 -33 
Q 819 25 488 141 
L 488 750 
Q 750 597 1062 519 
Q 1375 441 1716 441 
Q 2309 441 2620 675 
Q 2931 909 2931 1356 
Q 2931 1769 2642 2001 
Q 2353 2234 1838 2234 
L 1294 2234 
L 1294 2753 
L 1863 2753 
Q 2328 2753 2575 2939 
Q 2822 3125 2822 3475 
Q 2822 3834 2567 4026 
Q 2313 4219 1838 4219 
Q 1578 4219 1281 4162 
Q 984 4106 628 3988 
L 628 4550 
Q 988 4650 1302 4700 
Q 1616 4750 1894 4750 
Q 2613 4750 3031 4423 
Q 3450 4097 3450 3541 
Q 3450 3153 3228 2886 
Q 3006 2619 2597 2516 
z
" transform="scale(0.015625)"/>
       </defs>
       <use xlink:href="#DejaVuSans-30"/>
       <use xlink:href="#DejaVuSans-39" x="63.623047"/>
       <use xlink:href="#DejaVuSans-2d" x="127.246094"/>
       <use xlink:href="#DejaVuSans-30" x="163.330078"/>
       <use xlink:href="#DejaVuSans-36" x="226.953125"/>
       <use xlink:href="#DejaVuSans-20" x="290.576172"/>
       <use xlink:href="#DejaVuSans-30" x="322.363281"/>
       <use xlink:href="#DejaVuSans-33" x="385.986328"/>
      </g>
     </g>
    </g>
    <g id="xtick_3">
     <g id="line2d_3">
      <g>
       <use xlink:href="#m3dc23cd677" x="287.956163" y="359.517187" style="stroke: #000000; stroke-width: 0.8"/>
      </g>
     </g>
     <g id="text_3">
      <!-- 09-06 06 -->
      <g transform="translate(265.475695 374.115625) scale(0.1 -0.1)">
       <use xlink:href="#DejaVuSans-30"/>
       <use xlink:href="#DejaVuSans-39" x="63.623047"/>
       <use xlink:href="#DejaVuSans-2d" x="127.246094"/>
       <use xlink:href="#DejaVuSans-30" x="163.330078"/>
       <use xlink:href="#DejaVuSans-36" x="226.953125"/>
       <use xlink:href="#DejaVuSans-20" x="290.576172"/>
       <use xlink:href="#DejaVuSans-30" x="322.363281"/>
       <use xlink:href="#DejaVuSans-36" x="385.986328"/>
      </g>
     </g>
    </g>
    <g id="xtick_4">
     <g id="line2d_4">
      <g>
       <use xlink:href="#m3dc23cd677" x="402.508974" y="359.517187" style="stroke: #000000; stroke-width: 0.8"/>
      </g>
     </g>
     <g id="text_4">
      <!-- 09-06 09 -->
      <g transform="translate(380.028505 374.115625) scale(0.1 -0.1)">
       <use xlink:href="#DejaVuSans-30"/>
       <use xlink:href="#DejaVuSans-39" x="63.623047"/>
       <use xlink:href="#DejaVuSans-2d" x="127.246094"/>
       <use xlink:href="#DejaVuSans-30" x="163.330078"/>
       <use xlink:href="#DejaVuSans-36" x="226.953125"/>
       <use xlink:href="#DejaVuSans-20" x="290.576172"/>
       <use xlink:href="#DejaVuSans-30" x="322.363281"/>
       <use xlink:href="#DejaVuSans-39" x="385.986328"/>
      </g>
     </g>
    </g>
    <g id="xtick_5">
     <g id="line2d_5">
      <g>
       <use xlink:href="#m3dc23cd677" x="517.061785" y="359.517187" style="stroke: #000000; stroke-width: 0.8"/>
      </g>
     </g>
     <g id="text_5">
      <!-- 09-06 12 -->
      <g transform="translate(494.581316 374.115625) scale(0.1 -0.1)">
       <defs>
        <path id="DejaVuSans-31" d="M 794 531 
L 1825 531 
L 1825 4091 
L 703 3866 
L 703 4441 
L 1819 4666 
L 2450 4666 
L 2450 531 
L 3481 531 
L 3481 0 
L 794 0 
L 794 531 
z
" transform="scale(0.015625)"/>
        <path id="DejaVuSans-32" d="M 1228 531 
L 3431 531 
L 3431 0 
L 469 0 
L 469 531 
Q 828 903 1448 1529 
Q 2069 2156 2228 2338 
Q 2531 2678 2651 2914 
Q 2772 3150 2772 3378 
Q 2772 3750 2511 3984 
Q 2250 4219 1831 4219 
Q 1534 4219 1204 4116 
Q 875 4013 500 3803 
L 500 4441 
Q 881 4594 1212 4672 
Q 1544 4750 1819 4750 
Q 2544 4750 2975 4387 
Q 3406 4025 3406 3419 
Q 3406 3131 3298 2873 
Q 3191 2616 2906 2266 
Q 2828 2175 2409 1742 
Q 1991 1309 1228 531 
z
" transform="scale(0.015625)"/>
       </defs>
       <use xlink:href="#DejaVuSans-30"/>
       <use xlink:href="#DejaVuSans-39" x="63.623047"/>
       <use xlink:href="#DejaVuSans-2d" x="127.246094"/>
       <use xlink:href="#DejaVuSans-30" x="163.330078"/>
       <use xlink:href="#DejaVuSans-36" x="226.953125"/>
       <use xlink:href="#DejaVuSans-20" x="290.576172"/>
       <use xlink:href="#DejaVuSans-31" x="322.363281"/>
       <use xlink:href="#DejaVuSans-32" x="385.986328"/>
      </g>
     </g>
    </g>
    <g id="xtick_6">
     <g id="line2d_6">
      <g>
       <use xlink:href="#m3dc23cd677" x="631.614596" y="359.517187" style="stroke: #000000; stroke-width: 0.8"/>
      </g>
     </g>
     <g id="text_6">
      <!-- 09-06 15 -->
      <g transform="translate(609.134127 374.115625) scale(0.1 -0.1)">
       <defs>
        <path id="DejaVuSans-35" d="M 691 4666 
L 3169 4666 
L 3169 4134 
L 1269 4134 
L 1269 2991 
Q 1406 3038 1543 3061 
Q 1681 3084 1819 3084 
Q 2600 3084 3056 2656 
Q 3513 2228 3513 1497 
Q 3513 744 3044 326 
Q 2575 -91 1722 -91 
Q 1428 -91 1123 -41 
Q 819 9 494 109 
L 494 744 
Q 775 591 1075 516 
Q 1375 441 1709 441 
Q 2250 441 2565 725 
Q 2881 1009 2881 1497 
Q 2881 1984 2565 2268 
Q 2250 2553 1709 2553 
Q 1456 2553 1204 2497 
Q 953 2441 691 2322 
L 691 4666 
z
" transform="scale(0.015625)"/>
       </defs>
       <use xlink:href="#DejaVuSans-30"/>
       <use xlink:href="#DejaVuSans-39" x="63.623047"/>
       <use xlink:href="#DejaVuSans-2d" x="127.246094"/>
       <use xlink:href="#DejaVuSans-30" x="163.330078"/>
       <use xlink:href="#DejaVuSans-36" x="226.953125"/>
       <use xlink:href="#DejaVuSans-20" x="290.576172"/>
       <use xlink:href="#DejaVuSans-31" x="322.363281"/>
       <use xlink:href="#DejaVuSans-35" x="385.986328"/>
      </g>
     </g>
    </g>
    <g id="xtick_7">
     <g id="line2d_7">
      <g>
       <use xlink:href="#m3dc23cd677" x="746.167407" y="359.517187" style="stroke: #000000; stroke-width: 0.8"/>
      </g>
     </g>
     <g id="text_7">
      <!-- 09-06 18 -->
      <g transform="translate(723.686938 374.115625) scale(0.1 -0.1)">
       <defs>
        <path id="DejaVuSans-38" d="M 2034 2216 
Q 1584 2216 1326 1975 
Q 1069 1734 1069 1313 
Q 1069 891 1326 650 
Q 1584 409 2034 409 
Q 2484 409 2743 651 
Q 3003 894 3003 1313 
Q 3003 1734 2745 1975 
Q 2488 2216 2034 2216 
z
M 1403 2484 
Q 997 2584 770 2862 
Q 544 3141 544 3541 
Q 544 4100 942 4425 
Q 1341 4750 2034 4750 
Q 2731 4750 3128 4425 
Q 3525 4100 3525 3541 
Q 3525 3141 3298 2862 
Q 3072 2584 2669 2484 
Q 3125 2378 3379 2068 
Q 3634 1759 3634 1313 
Q 3634 634 3220 271 
Q 2806 -91 2034 -91 
Q 1263 -91 848 271 
Q 434 634 434 1313 
Q 434 1759 690 2068 
Q 947 2378 1403 2484 
z
M 1172 3481 
Q 1172 3119 1398 2916 
Q 1625 2713 2034 2713 
Q 2441 2713 2670 2916 
Q 2900 3119 2900 3481 
Q 2900 3844 2670 4047 
Q 2441 4250 2034 4250 
Q 1625 4250 1398 4047 
Q 1172 3844 1172 3481 
z
" transform="scale(0.015625)"/>
       </defs>
       <use xlink:href="#DejaVuSans-30"/>
       <use xlink:href="#DejaVuSans-39" x="63.623047"/>
       <use xlink:href="#DejaVuSans-2d" x="127.246094"/>
       <use xlink:href="#DejaVuSans-30" x="163.330078"/>
       <use xlink:href="#DejaVuSans-36" x="226.953125"/>
       <use xlink:href="#DejaVuSans-20" x="290.576172"/>
       <use xlink:href="#DejaVuSans-31" x="322.363281"/>
       <use xlink:href="#DejaVuSans-38" x="385.986328"/>
      </g>
     </g>
    </g>
    <g id="xtick_8">
     <g id="line2d_8">
      <g>
       <use xlink:href="#m3dc23cd677" x="860.720218" y="359.517187" style="stroke: #000000; stroke-width: 0.8"/>
      </g>
     </g>
     <g id="text_8">
      <!-- 09-06 21 -->
      <g transform="translate(838.239749 374.115625) scale(0.1 -0.1)">
       <use xlink:href="#DejaVuSans-30"/>
       <use xlink:href="#DejaVuSans-39" x="63.623047"/>
       <use xlink:href="#DejaVuSans-2d" x="127.246094"/>
       <use xlink:href="#DejaVuSans-30" x="163.330078"/>
       <use xlink:href="#DejaVuSans-36" x="226.953125"/>
       <use xlink:href="#DejaVuSans-20" x="290.576172"/>
       <use xlink:href="#DejaVuSans-32" x="322.363281"/>
       <use xlink:href="#DejaVuSans-31" x="385.986328"/>
      </g>
     </g>
    </g>
    <g id="xtick_9">
     <g id="line2d_9">
      <g>
       <use xlink:href="#m3dc23cd677" x="975.273028" y="359.517187" style="stroke: #000000; stroke-width: 0.8"/>
      </g>
     </g>
     <g id="text_9">
      <!-- 09-07 00 -->
      <g transform="translate(952.79256 374.115625) scale(0.1 -0.1)">
       <defs>
        <path id="DejaVuSans-37" d="M 525 4666 
L 3525 4666 
L 3525 4397 
L 1831 0 
L 1172 0 
L 2766 4134 
L 525 4134 
L 525 4666 
z
" transform="scale(0.015625)"/>
       </defs>
       <use xlink:href="#DejaVuSans-30"/>
       <use xlink:href="#DejaVuSans-39" x="63.623047"/>
       <use xlink:href="#DejaVuSans-2d" x="127.246094"/>
       <use xlink:href="#DejaVuSans-30" x="163.330078"/>
       <use xlink:href="#DejaVuSans-37" x="226.953125"/>
       <use xlink:href="#DejaVuSans-20" x="290.576172"/>
       <use xlink:href="#DejaVuSans-30" x="322.363281"/>
       <use xlink:href="#DejaVuSans-30" x="385.986328"/>
      </g>
     </g>
    </g>
    <g id="xtick_10">
     <g id="line2d_10">
      <g>
       <use xlink:href="#m3dc23cd677" x="1089.825839" y="359.517187" style="stroke: #000000; stroke-width: 0.8"/>
      </g>
     </g>
     <g id="text_10">
      <!-- 09-07 03 -->
      <g transform="translate(1067.34537 374.115625) scale(0.1 -0.1)">
       <use xlink:href="#DejaVuSans-30"/>
       <use xlink:href="#DejaVuSans-39" x="63.623047"/>
       <use xlink:href="#DejaVuSans-2d" x="127.246094"/>
       <use xlink:href="#DejaVuSans-30" x="163.330078"/>
       <use xlink:href="#DejaVuSans-37" x="226.953125"/>
       <use xlink:href="#DejaVuSans-20" x="290.576172"/>
       <use xlink:href="#DejaVuSans-30" x="322.363281"/>
       <use xlink:href="#DejaVuSans-33" x="385.986328"/>
      </g>
     </g>
    </g>
    <g id="text_11">
     <!-- Time -->
     <g transform="translate(592.554688 389.313437) scale(0.12 -0.12)">
      <defs>
       <path id="DejaVuSans-54" d="M -19 4666 
L 3928 4666 
L 3928 4134 
L 2272 4134 
L 2272 0 
L 1638 0 
L 1638 4134 
L -19 4134 
L -19 4666 
z
" transform="scale(0.015625)"/>
       <path id="DejaVuSans-69" d="M 603 3500 
L 1178 3500 
L 1178 0 
L 603 0 
L 603 3500 
z
M 603 4863 
L 1178 4863 
L 1178 4134 
L 603 4134 
L 603 4863 
z
" transform="scale(0.015625)"/>
       <path id="DejaVuSans-6d" d="M 3328 2828 
Q 3544 3216 3844 3400 
Q 4144 3584 4550 3584 
Q 5097 3584 5394 3201 
Q 5691 2819 5691 2113 
L 5691 0 
L 5113 0 
L 5113 2094 
Q 5113 2597 4934 2840 
Q 4756 3084 4391 3084 
Q 3944 3084 3684 2787 
Q 3425 2491 3425 1978 
L 3425 0 
L 2847 0 
L 2847 2094 
Q 2847 2600 2669 2842 
Q 2491 3084 2119 3084 
Q 1678 3084 1418 2786 
Q 1159 2488 1159 1978 
L 1159 0 
L 581 0 
L 581 3500 
L 1159 3500 
L 1159 2956 
Q 1356 3278 1631 3431 
Q 1906 3584 2284 3584 
Q 2666 3584 2933 3390 
Q 3200 3197 3328 2828 
z
" transform="scale(0.015625)"/>
       <path id="DejaVuSans-65" d="M 3597 1894 
L 3597 1613 
L 953 1613 
Q 991 1019 1311 708 
Q 1631 397 2203 397 
Q 2534 397 2845 478 
Q 3156 559 3463 722 
L 3463 178 
Q 3153 47 2828 -22 
Q 2503 -91 2169 -91 
Q 1331 -91 842 396 
Q 353 884 353 1716 
Q 353 2575 817 3079 
Q 1281 3584 2069 3584 
Q 2775 3584 3186 3129 
Q 3597 2675 3597 1894 
z
M 3022 2063 
Q 3016 2534 2758 2815 
Q 2500 3097 2075 3097 
Q 1594 3097 1305 2825 
Q 1016 2553 972 2059 
L 3022 2063 
z
" transform="scale(0.015625)"/>
      </defs>
      <use xlink:href="#DejaVuSans-54"/>
      <use xlink:href="#DejaVuSans-69" x="57.958984"/>
      <use xlink:href="#DejaVuSans-6d" x="85.742188"/>
      <use xlink:href="#DejaVuSans-65" x="183.154297"/>
     </g>
    </g>
   </g>
   <g id="matplotlib.axis_2">
    <g id="ytick_1">
     <g id="line2d_11">
      <defs>
       <path id="m8d62536ca4" d="M 0 0 
L -3.5 0 
" style="stroke: #000000; stroke-width: 0.8"/>
      </defs>
      <g>
       <use xlink:href="#m8d62536ca4" x="49.235" y="344.397187" style="stroke: #000000; stroke-width: 0.8"/>
      </g>
     </g>
     <g id="text_12">
      <!-- 0 -->
      <g transform="translate(35.8725 348.196406) scale(0.1 -0.1)">
       <use xlink:href="#DejaVuSans-30"/>
      </g>
     </g>
    </g>
    <g id="ytick_2">
     <g id="line2d_12">
      <g>
       <use xlink:href="#m8d62536ca4" x="49.235" y="289.81235" style="stroke: #000000; stroke-width: 0.8"/>
      </g>
     </g>
     <g id="text_13">
      <!-- 50 -->
      <g transform="translate(29.51 293.611569) scale(0.1 -0.1)">
       <use xlink:href="#DejaVuSans-35"/>
       <use xlink:href="#DejaVuSans-30" x="63.623047"/>
      </g>
     </g>
    </g>
    <g id="ytick_3">
     <g id="line2d_13">
      <g>
       <use xlink:href="#m8d62536ca4" x="49.235" y="235.227512" style="stroke: #000000; stroke-width: 0.8"/>
      </g>
     </g>
     <g id="text_14">
      <!-- 100 -->
      <g transform="translate(23.1475 239.026731) scale(0.1 -0.1)">
       <use xlink:href="#DejaVuSans-31"/>
       <use xlink:href="#DejaVuSans-30" x="63.623047"/>
       <use xlink:href="#DejaVuSans-30" x="127.246094"/>
      </g>
     </g>
    </g>
    <g id="ytick_4">
     <g id="line2d_14">
      <g>
       <use xlink:href="#m8d62536ca4" x="49.235" y="180.642675" style="stroke: #000000; stroke-width: 0.8"/>
      </g>
     </g>
     <g id="text_15">
      <!-- 150 -->
      <g transform="translate(23.1475 184.441894) scale(0.1 -0.1)">
       <use xlink:href="#DejaVuSans-31"/>
       <use xlink:href="#DejaVuSans-35" x="63.623047"/>
       <use xlink:href="#DejaVuSans-30" x="127.246094"/>
      </g>
     </g>
    </g>
    <g id="ytick_5">
     <g id="line2d_15">
      <g>
       <use xlink:href="#m8d62536ca4" x="49.235" y="126.057837" style="stroke: #000000; stroke-width: 0.8"/>
      </g>
     </g>
     <g id="text_16">
      <!-- 200 -->
      <g transform="translate(23.1475 129.857056) scale(0.1 -0.1)">
       <use xlink:href="#DejaVuSans-32"/>
       <use xlink:href="#DejaVuSans-30" x="63.623047"/>
       <use xlink:href="#DejaVuSans-30" x="127.246094"/>
      </g>
     </g>
    </g>
    <g id="ytick_6">
     <g id="line2d_16">
      <g>
       <use xlink:href="#m8d62536ca4" x="49.235" y="71.473" style="stroke: #000000; stroke-width: 0.8"/>
      </g>
     </g>
     <g id="text_17">
      <!-- 250 -->
      <g transform="translate(23.1475 75.272219) scale(0.1 -0.1)">
       <use xlink:href="#DejaVuSans-32"/>
       <use xlink:href="#DejaVuSans-35" x="63.623047"/>
       <use xlink:href="#DejaVuSans-30" x="127.246094"/>
      </g>
     </g>
    </g>
    <g id="text_18">
     <!-- Pellet_Count -->
     <g transform="translate(16.318125 230.485312) rotate(-90) scale(0.12 -0.12)">
      <defs>
       <path id="DejaVuSans-50" d="M 1259 4147 
L 1259 2394 
L 2053 2394 
Q 2494 2394 2734 2622 
Q 2975 2850 2975 3272 
Q 2975 3691 2734 3919 
Q 2494 4147 2053 4147 
L 1259 4147 
z
M 628 4666 
L 2053 4666 
Q 2838 4666 3239 4311 
Q 3641 3956 3641 3272 
Q 3641 2581 3239 2228 
Q 2838 1875 2053 1875 
L 1259 1875 
L 1259 0 
L 628 0 
L 628 4666 
z
" transform="scale(0.015625)"/>
       <path id="DejaVuSans-6c" d="M 603 4863 
L 1178 4863 
L 1178 0 
L 603 0 
L 603 4863 
z
" transform="scale(0.015625)"/>
       <path id="DejaVuSans-74" d="M 1172 4494 
L 1172 3500 
L 2356 3500 
L 2356 3053 
L 1172 3053 
L 1172 1153 
Q 1172 725 1289 603 
Q 1406 481 1766 481 
L 2356 481 
L 2356 0 
L 1766 0 
Q 1100 0 847 248 
Q 594 497 594 1153 
L 594 3053 
L 172 3053 
L 172 3500 
L 594 3500 
L 594 4494 
L 1172 4494 
z
" transform="scale(0.015625)"/>
       <path id="DejaVuSans-5f" d="M 3263 -1063 
L 3263 -1509 
L -63 -1509 
L -63 -1063 
L 3263 -1063 
z
" transform="scale(0.015625)"/>
       <path id="DejaVuSans-43" d="M 4122 4306 
L 4122 3641 
Q 3803 3938 3442 4084 
Q 3081 4231 2675 4231 
Q 1875 4231 1450 3742 
Q 1025 3253 1025 2328 
Q 1025 1406 1450 917 
Q 1875 428 2675 428 
Q 3081 428 3442 575 
Q 3803 722 4122 1019 
L 4122 359 
Q 3791 134 3420 21 
Q 3050 -91 2638 -91 
Q 1578 -91 968 557 
Q 359 1206 359 2328 
Q 359 3453 968 4101 
Q 1578 4750 2638 4750 
Q 3056 4750 3426 4639 
Q 3797 4528 4122 4306 
z
" transform="scale(0.015625)"/>
       <path id="DejaVuSans-6f" d="M 1959 3097 
Q 1497 3097 1228 2736 
Q 959 2375 959 1747 
Q 959 1119 1226 758 
Q 1494 397 1959 397 
Q 2419 397 2687 759 
Q 2956 1122 2956 1747 
Q 2956 2369 2687 2733 
Q 2419 3097 1959 3097 
z
M 1959 3584 
Q 2709 3584 3137 3096 
Q 3566 2609 3566 1747 
Q 3566 888 3137 398 
Q 2709 -91 1959 -91 
Q 1206 -91 779 398 
Q 353 888 353 1747 
Q 353 2609 779 3096 
Q 1206 3584 1959 3584 
z
" transform="scale(0.015625)"/>
       <path id="DejaVuSans-75" d="M 544 1381 
L 544 3500 
L 1119 3500 
L 1119 1403 
Q 1119 906 1312 657 
Q 1506 409 1894 409 
Q 2359 409 2629 706 
Q 2900 1003 2900 1516 
L 2900 3500 
L 3475 3500 
L 3475 0 
L 2900 0 
L 2900 538 
Q 2691 219 2414 64 
Q 2138 -91 1772 -91 
Q 1169 -91 856 284 
Q 544 659 544 1381 
z
M 1991 3584 
L 1991 3584 
z
" transform="scale(0.015625)"/>
       <path id="DejaVuSans-6e" d="M 3513 2113 
L 3513 0 
L 2938 0 
L 2938 2094 
Q 2938 2591 2744 2837 
Q 2550 3084 2163 3084 
Q 1697 3084 1428 2787 
Q 1159 2491 1159 1978 
L 1159 0 
L 581 0 
L 581 3500 
L 1159 3500 
L 1159 2956 
Q 1366 3272 1645 3428 
Q 1925 3584 2291 3584 
Q 2894 3584 3203 3211 
Q 3513 2838 3513 2113 
z
" transform="scale(0.015625)"/>
      </defs>
      <use xlink:href="#DejaVuSans-50"/>
      <use xlink:href="#DejaVuSans-65" x="56.677734"/>
      <use xlink:href="#DejaVuSans-6c" x="118.201172"/>
      <use xlink:href="#DejaVuSans-6c" x="145.984375"/>
      <use xlink:href="#DejaVuSans-65" x="173.767578"/>
      <use xlink:href="#DejaVuSans-74" x="235.291016"/>
      <use xlink:href="#DejaVuSans-5f" x="274.5"/>
      <use xlink:href="#DejaVuSans-43" x="324.5"/>
      <use xlink:href="#DejaVuSans-6f" x="394.324219"/>
      <use xlink:href="#DejaVuSans-75" x="455.505859"/>
      <use xlink:href="#DejaVuSans-6e" x="518.884766"/>
      <use xlink:href="#DejaVuSans-74" x="582.263672"/>
     </g>
    </g>
   </g>
   <g id="line2d_17">
    <path d="M 99.962273 344.397187 
L 113.655576 344.397187 
L 116.455756 343.305491 
L 122.278857 343.305491 
L 123.509239 342.213794 
L 130.202093 342.213794 
L 130.255127 341.122097 
L 132.896206 341.122097 
L 132.970453 340.0304 
L 146.759217 340.0304 
L 146.939532 338.938704 
L 150.142768 338.938704 
L 150.185195 337.847007 
L 150.704925 337.847007 
L 151.532251 336.75531 
L 151.79742 336.75531 
L 152.232296 335.663613 
L 153.420251 335.663613 
L 153.579352 334.571917 
L 153.961195 334.571917 
L 156.15679 333.48022 
L 161.629869 333.48022 
L 161.704116 332.388523 
L 164.472476 332.388523 
L 164.748251 331.296826 
L 167.410543 331.296826 
L 167.516611 330.20513 
L 167.87724 330.20513 
L 167.940881 329.113433 
L 169.256117 329.113433 
L 169.425824 328.021736 
L 171.844162 328.021736 
L 172.003263 326.930039 
L 174.771622 326.930039 
L 174.845869 325.838343 
L 175.079218 325.838343 
L 175.132251 324.746646 
L 175.938364 324.746646 
L 176.023218 323.654949 
L 176.256566 323.654949 
L 176.362634 322.563252 
L 176.638409 322.563252 
L 176.659622 321.471556 
L 177.105105 321.471556 
L 177.232386 320.379859 
L 182.175128 320.379859 
L 182.217555 319.288162 
L 183.458544 319.288162 
L 183.490364 318.196465 
L 184.328297 318.196465 
L 184.540431 317.104769 
L 187.330004 317.104769 
L 187.351218 316.013072 
L 189.642274 316.013072 
L 189.674094 314.921375 
L 189.918049 314.921375 
L 189.94987 313.829678 
L 190.151398 313.829678 
L 190.193825 312.737982 
L 197.59733 312.737982 
L 197.618544 311.646285 
L 202.571892 311.646285 
L 202.603713 310.554588 
L 202.826454 310.554588 
L 202.847668 309.462891 
L 203.16587 309.462891 
L 203.187083 308.371195 
L 203.452252 308.371195 
L 203.462859 307.279498 
L 203.706814 307.279498 
L 203.759847 306.187801 
L 204.120477 306.187801 
L 204.184117 305.096104 
L 204.406859 305.096104 
L 204.428072 304.004408 
L 207.079758 304.004408 
L 207.143398 302.912711 
L 210.304207 302.912711 
L 210.346634 301.821014 
L 214.939353 301.821014 
L 214.971173 300.729317 
L 216.763713 300.729317 
L 216.933421 299.637621 
L 222.374679 299.637621 
L 224.930904 298.545924 
L 225.249106 298.545924 
L 225.27032 297.454227 
L 225.577915 297.454227 
L 225.620342 296.36253 
L 231.666185 296.36253 
L 231.899533 295.270834 
L 232.684432 295.270834 
L 232.716252 294.179137 
L 235.293691 294.179137 
L 235.346724 293.08744 
L 235.633106 293.08744 
L 235.664927 291.995743 
L 236.067983 291.995743 
L 236.11041 290.904047 
L 236.418005 290.904047 
L 236.428612 289.81235 
L 236.714994 289.81235 
L 236.746814 288.720653 
L 237.001376 288.720653 
L 237.065017 287.628956 
L 237.330185 287.628956 
L 237.340792 286.53726 
L 242.378994 286.53726 
L 242.410814 285.445563 
L 245.815578 285.445563 
L 245.847399 284.353866 
L 254.364612 284.353866 
L 254.396433 283.262169 
L 254.778275 283.262169 
L 254.810095 282.170473 
L 255.085871 282.170473 
L 255.128298 281.078776 
L 255.41468 281.078776 
L 255.435893 279.987079 
L 255.754095 279.987079 
L 255.807129 278.895382 
L 263.104567 278.895382 
L 267.538186 277.803686 
L 268.832208 277.803686 
L 269.447399 276.711989 
L 272.247579 276.711989 
L 272.247579 275.620292 
L 272.608208 275.620292 
L 272.650635 274.528595 
L 279.332882 274.528595 
L 279.375309 273.436899 
L 279.661691 273.436899 
L 279.693512 272.345202 
L 279.9905 272.345202 
L 280.011714 271.253505 
L 280.372343 271.253505 
L 280.44659 270.161808 
L 280.722366 270.161808 
L 280.754186 269.070112 
L 287.956163 269.070112 
L 288.009197 267.978415 
L 288.263759 267.978415 
L 288.295579 266.886718 
L 288.465287 266.886718 
L 288.4865 265.795021 
L 288.688029 265.795021 
L 288.709242 264.703325 
L 288.857736 264.703325 
L 288.87895 263.611628 
L 289.727489 263.611628 
L 289.759309 262.519931 
L 290.045692 262.519931 
L 290.077512 261.428234 
L 291.827624 261.428234 
L 291.859444 260.336538 
L 296.473377 260.336538 
L 299.464478 259.244841 
L 299.867534 259.244841 
L 299.899355 258.153144 
L 300.153916 258.153144 
L 300.164523 257.061447 
L 300.397871 257.061447 
L 300.419085 255.969751 
L 302.391939 255.969751 
L 302.476793 254.878054 
L 302.731355 254.878054 
L 302.784388 253.786357 
L 311.619804 253.786357 
L 311.641018 252.69466 
L 311.99104 252.69466 
L 312.02286 251.602964 
L 313.030501 251.602964 
L 313.062321 250.511267 
L 313.295669 250.511267 
L 313.306276 249.41957 
L 314.197242 249.41957 
L 314.239669 248.327873 
L 322.396254 248.327873 
L 322.417467 247.236177 
L 326.267715 247.236177 
L 326.299535 246.14448 
L 326.585917 246.14448 
L 326.617737 245.052783 
L 333.416659 245.052783 
L 333.448479 243.961086 
L 335.272838 243.961086 
L 335.283445 242.86939 
L 335.601647 242.86939 
L 335.644074 241.777693 
L 335.888029 241.777693 
L 335.909243 240.685996 
L 336.248659 240.685996 
L 336.280479 239.594299 
L 336.662321 239.594299 
L 336.672928 238.502603 
L 337.022951 238.502603 
L 337.033557 237.410906 
L 337.171445 237.410906 
L 337.182052 236.319209 
L 342.453602 236.319209 
L 342.506636 235.227512 
L 343.376389 235.227512 
L 343.397602 234.135816 
L 346.622052 234.135816 
L 346.929647 233.044119 
L 347.21603 233.044119 
L 347.237243 231.952422 
L 357.939445 231.952422 
L 358.045513 230.860725 
L 360.018367 230.860725 
L 360.028974 229.769029 
L 360.52749 229.769029 
L 360.569917 228.677332 
L 365.968749 228.677332 
L 365.989962 227.585635 
L 368.344659 227.585635 
L 368.365873 226.493938 
L 371.441828 226.493938 
L 371.473648 225.402242 
L 372.046412 225.402242 
L 372.088839 224.310545 
L 372.31158 224.310545 
L 372.31158 223.218848 
L 372.513109 223.218848 
L 372.619176 221.035455 
L 372.852524 221.035455 
L 372.884345 219.943758 
L 373.054052 219.943758 
L 373.064659 218.852061 
L 373.22376 218.852061 
L 373.382861 216.668668 
L 373.605603 216.668668 
L 373.669243 215.576971 
L 373.891985 215.576971 
L 373.923805 214.485274 
L 385.686682 214.485274 
L 385.824569 213.393577 
L 385.866996 213.393577 
L 386.80039 212.301881 
L 387.076165 212.301881 
L 387.107985 211.210184 
L 387.309513 211.210184 
L 387.330727 210.118487 
L 387.500435 210.118487 
L 387.521648 209.02679 
L 387.670143 209.02679 
L 387.691356 207.935094 
L 388.073199 207.935094 
L 388.094412 206.843397 
L 388.412614 206.843397 
L 388.423221 205.7517 
L 388.635356 205.7517 
L 388.645963 204.660003 
L 388.942952 204.660003 
L 388.953558 203.568307 
L 391.764345 203.568307 
L 396.282817 202.47661 
L 397.799581 202.47661 
L 402.243806 201.384913 
L 402.36048 199.20152 
L 403.463581 199.20152 
L 403.474188 198.109823 
L 408.926053 198.109823 
L 410.156435 197.018126 
L 410.750413 197.018126 
L 410.782233 195.926429 
L 410.983761 195.926429 
L 411.004974 194.834733 
L 411.174682 194.834733 
L 411.227716 193.743036 
L 411.354997 193.743036 
L 411.397424 192.651339 
L 420.635896 192.651339 
L 420.667716 191.559642 
L 425.419536 191.559642 
L 425.461963 190.467946 
L 429.365244 190.467946 
L 429.386458 189.376249 
L 429.715267 189.376249 
L 429.73648 188.284552 
L 430.012256 188.284552 
L 430.033469 187.192855 
L 430.383492 187.192855 
L 430.404705 186.101159 
L 450.313559 186.101159 
L 451.374233 185.009462 
L 452.212166 185.009462 
L 452.23338 183.917765 
L 452.890998 183.917765 
L 452.997065 181.734372 
L 455.468436 181.734372 
L 455.521469 180.642675 
L 458.162548 179.550978 
L 462.320391 179.550978 
L 462.341604 178.459281 
L 464.940256 178.459281 
L 465.035717 176.275888 
L 470.031492 176.275888 
L 470.943672 175.184191 
L 470.964885 174.092494 
L 471.622503 174.092494 
L 471.739178 171.909101 
L 482.971717 171.909101 
L 483.215672 170.817404 
L 483.565695 170.817404 
L 483.650549 169.725707 
L 486.906818 169.725707 
L 486.917425 168.634011 
L 488.699358 168.634011 
L 489.696391 167.542314 
L 497.534774 167.542314 
L 497.555987 166.450617 
L 500.780436 166.450617 
L 500.812257 165.35892 
L 501.331987 165.35892 
L 501.353201 164.267224 
L 501.703223 164.267224 
L 501.724437 163.175527 
L 501.968392 163.175527 
L 501.978998 162.08383 
L 502.275987 162.08383 
L 502.297201 160.992133 
L 502.488122 160.992133 
L 502.519942 159.900437 
L 502.75329 159.900437 
L 502.763897 158.80874 
L 532.080931 158.80874 
L 532.123358 157.717043 
L 532.579448 157.717043 
L 532.611268 156.625346 
L 532.929471 156.625346 
L 532.950684 155.53365 
L 533.32192 155.53365 
L 533.343134 154.441953 
L 533.565875 154.441953 
L 533.587089 153.350256 
L 533.873471 153.350256 
L 533.905291 152.258559 
L 534.276527 152.258559 
L 534.287134 151.166863 
L 534.456842 151.166863 
L 534.69019 148.983469 
L 534.891718 148.983469 
L 534.912931 147.891772 
L 542.804347 147.891772 
L 542.825561 146.800076 
L 543.15437 146.800076 
L 543.164976 145.708379 
L 543.408932 145.708379 
L 543.419538 144.616682 
L 543.621066 144.616682 
L 543.631673 143.524985 
L 544.809021 143.524985 
L 544.830235 142.433289 
L 550.345741 142.433289 
L 550.388168 141.341592 
L 550.759404 141.341592 
L 550.77001 140.249895 
L 557.134055 140.249895 
L 557.144662 139.158198 
L 557.452258 139.158198 
L 557.473471 138.066502 
L 557.865921 138.066502 
L 557.865921 138.066502 
L 557.897741 136.974805 
L 558.162909 136.974805 
L 558.173516 135.883108 
L 559.032662 135.883108 
L 559.043269 134.791411 
L 559.403898 134.791411 
L 559.425112 133.699715 
L 559.891808 133.699715 
L 559.902415 132.608018 
L 563.46628 132.608018 
L 563.487494 131.516321 
L 573.012348 131.516321 
L 576.544393 130.424624 
L 578.602101 130.424624 
L 579.185471 129.332928 
L 582.80237 129.332928 
L 582.834191 128.241231 
L 584.62673 128.241231 
L 584.647943 127.149534 
L 586.854146 127.149534 
L 586.864752 126.057837 
L 587.278415 126.057837 
L 587.289022 124.966141 
L 587.586011 124.966141 
L 587.596618 123.874444 
L 588.052708 123.874444 
L 588.095135 122.782747 
L 595.201651 122.782747 
L 595.201651 122.782747 
L 595.254685 121.69105 
L 595.615314 121.69105 
L 595.625921 120.599354 
L 595.901696 120.599354 
L 595.912303 119.507657 
L 596.177472 119.507657 
L 596.198685 118.41596 
L 596.506281 118.41596 
L 596.516887 117.324263 
L 596.771449 117.324263 
L 596.792663 116.232567 
L 597.174505 116.232567 
L 597.185112 115.14087 
L 597.418461 115.14087 
L 597.429067 114.049173 
L 612.787629 114.049173 
L 612.808843 112.957476 
L 613.275539 112.957476 
L 613.296753 111.86578 
L 613.583135 111.86578 
L 613.604348 110.774083 
L 623.320124 110.774083 
L 623.330731 109.682386 
L 623.617113 109.682386 
L 623.617113 109.682386 
L 623.65954 108.590689 
L 624.073203 108.590689 
L 624.083809 107.498993 
L 624.370191 107.498993 
L 624.380798 106.407296 
L 624.730821 106.407296 
L 624.741427 105.315599 
L 625.080843 105.315599 
L 625.09145 104.223902 
L 625.420259 104.223902 
L 625.441472 103.132206 
L 625.812708 103.132206 
L 625.823315 102.040509 
L 683.502777 102.040509 
L 683.534597 100.948812 
L 683.831586 100.948812 
L 683.842192 99.857115 
L 684.181608 99.857115 
L 684.224035 98.765419 
L 684.457383 98.765419 
L 684.46799 97.673722 
L 684.743765 97.673722 
L 684.764979 96.582025 
L 733.184755 96.582025 
L 733.205968 95.490328 
L 734.574238 95.490328 
L 734.595451 94.398632 
L 734.934867 94.398632 
L 734.945474 93.306935 
L 735.465204 93.306935 
L 735.475811 92.215238 
L 735.794013 92.215238 
L 735.815227 91.123541 
L 803.54988 91.123541 
L 803.560486 90.031845 
L 803.878689 90.031845 
L 803.899902 88.940148 
L 804.13325 88.940148 
L 804.143857 87.848451 
L 804.334778 87.848451 
L 804.345385 86.756754 
L 805.947003 86.756754 
L 806.710689 85.665058 
L 807.124352 85.665058 
L 807.145565 84.573361 
L 809.30934 84.573361 
L 862.141521 83.481664 
L 862.152128 82.389967 
L 862.799139 82.389967 
L 862.820352 81.298271 
L 863.594645 81.298271 
L 863.615858 80.206574 
L 863.827993 80.206574 
L 863.8386 79.114877 
L 864.082555 79.114877 
L 864.093161 78.02318 
L 864.29469 78.02318 
L 864.315903 76.931484 
L 964.019275 76.931484 
L 964.051096 75.839787 
L 964.454152 75.839787 
L 964.464759 74.74809 
L 964.729927 74.74809 
L 964.740534 73.656393 
L 964.984489 73.656393 
L 964.984489 73.656393 
L 965.037523 72.564697 
L 965.281478 72.564697 
L 965.292084 71.473 
L 965.440579 71.473 
L 965.451186 70.381303 
L 965.673927 70.381303 
L 965.684534 69.289606 
L 965.907275 69.289606 
L 965.917882 68.19791 
L 966.098197 68.19791 
L 966.108804 67.106213 
L 1048.385299 67.106213 
L 1048.395906 66.014516 
L 1048.618648 66.014516 
L 1048.629254 64.922819 
L 1048.915636 64.922819 
L 1048.93685 63.831123 
L 1049.244445 63.831123 
L 1049.255052 62.739426 
L 1049.42476 62.739426 
L 1049.435367 61.647729 
L 1049.700535 61.647729 
L 1049.700535 61.647729 
L 1049.732355 60.556032 
L 1049.94449 60.556032 
L 1049.965704 59.464336 
L 1079.219097 59.464336 
L 1079.240311 58.372639 
L 1079.56912 58.372639 
L 1079.611547 57.280942 
L 1079.802468 57.280942 
L 1079.813075 56.189245 
L 1079.99339 56.189245 
L 1080.682828 55.097549 
L 1086.187727 55.097549 
L 1086.516536 54.005852 
L 1099.371907 54.005852 
L 1099.435547 52.914155 
L 1099.668896 52.914155 
L 1100.050738 51.822458 
L 1100.718963 51.822458 
L 1100.909884 50.730762 
L 1112.343952 50.730762 
L 1112.396986 49.639065 
L 1112.630334 49.639065 
L 1112.672761 48.547368 
L 1112.906109 48.547368 
L 1112.916716 47.455671 
L 1113.097031 47.455671 
L 1113.107637 46.363975 
L 1113.351592 46.363975 
L 1113.362199 45.272278 
L 1113.553121 45.272278 
L 1113.563727 44.180581 
L 1113.850109 44.180581 
L 1113.860716 43.088884 
L 1114.147098 43.088884 
L 1114.157705 41.997187 
L 1114.157705 41.997187 
" clip-path="url(#p8909432b1e)" style="fill: none; stroke: #0000ff; stroke-width: 1.5; stroke-linecap: square"/>
   </g>
   <g id="patch_81">
    <path d="M 49.235 359.517187 
L 49.235 26.877187 
" style="fill: none; stroke: #000000; stroke-width: 0.8; stroke-linejoin: miter; stroke-linecap: square"/>
   </g>
   <g id="patch_82">
    <path d="M 1165.235 359.517187 
L 1165.235 26.877187 
" style="fill: none; stroke: #000000; stroke-width: 0.8; stroke-linejoin: miter; stroke-linecap: square"/>
   </g>
   <g id="patch_83">
    <path d="M 49.235 359.517187 
L 1165.235 359.517187 
" style="fill: none; stroke: #000000; stroke-width: 0.8; stroke-linejoin: miter; stroke-linecap: square"/>
   </g>
   <g id="patch_84">
    <path d="M 49.235 26.877187 
L 1165.235 26.877187 
" style="fill: none; stroke: #000000; stroke-width: 0.8; stroke-linejoin: miter; stroke-linecap: square"/>
   </g>
   <g id="text_19">
    <!-- Pellet Count and Cumulative Sum Over Time of Group ctrl Mouse M47 -->
    <g transform="translate(293.018281 20.877187) scale(0.18 -0.18)">
     <defs>
      <path id="DejaVuSans-61" d="M 2194 1759 
Q 1497 1759 1228 1600 
Q 959 1441 959 1056 
Q 959 750 1161 570 
Q 1363 391 1709 391 
Q 2188 391 2477 730 
Q 2766 1069 2766 1631 
L 2766 1759 
L 2194 1759 
z
M 3341 1997 
L 3341 0 
L 2766 0 
L 2766 531 
Q 2569 213 2275 61 
Q 1981 -91 1556 -91 
Q 1019 -91 701 211 
Q 384 513 384 1019 
Q 384 1609 779 1909 
Q 1175 2209 1959 2209 
L 2766 2209 
L 2766 2266 
Q 2766 2663 2505 2880 
Q 2244 3097 1772 3097 
Q 1472 3097 1187 3025 
Q 903 2953 641 2809 
L 641 3341 
Q 956 3463 1253 3523 
Q 1550 3584 1831 3584 
Q 2591 3584 2966 3190 
Q 3341 2797 3341 1997 
z
" transform="scale(0.015625)"/>
      <path id="DejaVuSans-64" d="M 2906 2969 
L 2906 4863 
L 3481 4863 
L 3481 0 
L 2906 0 
L 2906 525 
Q 2725 213 2448 61 
Q 2172 -91 1784 -91 
Q 1150 -91 751 415 
Q 353 922 353 1747 
Q 353 2572 751 3078 
Q 1150 3584 1784 3584 
Q 2172 3584 2448 3432 
Q 2725 3281 2906 2969 
z
M 947 1747 
Q 947 1113 1208 752 
Q 1469 391 1925 391 
Q 2381 391 2643 752 
Q 2906 1113 2906 1747 
Q 2906 2381 2643 2742 
Q 2381 3103 1925 3103 
Q 1469 3103 1208 2742 
Q 947 2381 947 1747 
z
" transform="scale(0.015625)"/>
      <path id="DejaVuSans-76" d="M 191 3500 
L 800 3500 
L 1894 563 
L 2988 3500 
L 3597 3500 
L 2284 0 
L 1503 0 
L 191 3500 
z
" transform="scale(0.015625)"/>
      <path id="DejaVuSans-53" d="M 3425 4513 
L 3425 3897 
Q 3066 4069 2747 4153 
Q 2428 4238 2131 4238 
Q 1616 4238 1336 4038 
Q 1056 3838 1056 3469 
Q 1056 3159 1242 3001 
Q 1428 2844 1947 2747 
L 2328 2669 
Q 3034 2534 3370 2195 
Q 3706 1856 3706 1288 
Q 3706 609 3251 259 
Q 2797 -91 1919 -91 
Q 1588 -91 1214 -16 
Q 841 59 441 206 
L 441 856 
Q 825 641 1194 531 
Q 1563 422 1919 422 
Q 2459 422 2753 634 
Q 3047 847 3047 1241 
Q 3047 1584 2836 1778 
Q 2625 1972 2144 2069 
L 1759 2144 
Q 1053 2284 737 2584 
Q 422 2884 422 3419 
Q 422 4038 858 4394 
Q 1294 4750 2059 4750 
Q 2388 4750 2728 4690 
Q 3069 4631 3425 4513 
z
" transform="scale(0.015625)"/>
      <path id="DejaVuSans-4f" d="M 2522 4238 
Q 1834 4238 1429 3725 
Q 1025 3213 1025 2328 
Q 1025 1447 1429 934 
Q 1834 422 2522 422 
Q 3209 422 3611 934 
Q 4013 1447 4013 2328 
Q 4013 3213 3611 3725 
Q 3209 4238 2522 4238 
z
M 2522 4750 
Q 3503 4750 4090 4092 
Q 4678 3434 4678 2328 
Q 4678 1225 4090 567 
Q 3503 -91 2522 -91 
Q 1538 -91 948 565 
Q 359 1222 359 2328 
Q 359 3434 948 4092 
Q 1538 4750 2522 4750 
z
" transform="scale(0.015625)"/>
      <path id="DejaVuSans-72" d="M 2631 2963 
Q 2534 3019 2420 3045 
Q 2306 3072 2169 3072 
Q 1681 3072 1420 2755 
Q 1159 2438 1159 1844 
L 1159 0 
L 581 0 
L 581 3500 
L 1159 3500 
L 1159 2956 
Q 1341 3275 1631 3429 
Q 1922 3584 2338 3584 
Q 2397 3584 2469 3576 
Q 2541 3569 2628 3553 
L 2631 2963 
z
" transform="scale(0.015625)"/>
      <path id="DejaVuSans-66" d="M 2375 4863 
L 2375 4384 
L 1825 4384 
Q 1516 4384 1395 4259 
Q 1275 4134 1275 3809 
L 1275 3500 
L 2222 3500 
L 2222 3053 
L 1275 3053 
L 1275 0 
L 697 0 
L 697 3053 
L 147 3053 
L 147 3500 
L 697 3500 
L 697 3744 
Q 697 4328 969 4595 
Q 1241 4863 1831 4863 
L 2375 4863 
z
" transform="scale(0.015625)"/>
      <path id="DejaVuSans-47" d="M 3809 666 
L 3809 1919 
L 2778 1919 
L 2778 2438 
L 4434 2438 
L 4434 434 
Q 4069 175 3628 42 
Q 3188 -91 2688 -91 
Q 1594 -91 976 548 
Q 359 1188 359 2328 
Q 359 3472 976 4111 
Q 1594 4750 2688 4750 
Q 3144 4750 3555 4637 
Q 3966 4525 4313 4306 
L 4313 3634 
Q 3963 3931 3569 4081 
Q 3175 4231 2741 4231 
Q 1884 4231 1454 3753 
Q 1025 3275 1025 2328 
Q 1025 1384 1454 906 
Q 1884 428 2741 428 
Q 3075 428 3337 486 
Q 3600 544 3809 666 
z
" transform="scale(0.015625)"/>
      <path id="DejaVuSans-70" d="M 1159 525 
L 1159 -1331 
L 581 -1331 
L 581 3500 
L 1159 3500 
L 1159 2969 
Q 1341 3281 1617 3432 
Q 1894 3584 2278 3584 
Q 2916 3584 3314 3078 
Q 3713 2572 3713 1747 
Q 3713 922 3314 415 
Q 2916 -91 2278 -91 
Q 1894 -91 1617 61 
Q 1341 213 1159 525 
z
M 3116 1747 
Q 3116 2381 2855 2742 
Q 2594 3103 2138 3103 
Q 1681 3103 1420 2742 
Q 1159 2381 1159 1747 
Q 1159 1113 1420 752 
Q 1681 391 2138 391 
Q 2594 391 2855 752 
Q 3116 1113 3116 1747 
z
" transform="scale(0.015625)"/>
      <path id="DejaVuSans-63" d="M 3122 3366 
L 3122 2828 
Q 2878 2963 2633 3030 
Q 2388 3097 2138 3097 
Q 1578 3097 1268 2742 
Q 959 2388 959 1747 
Q 959 1106 1268 751 
Q 1578 397 2138 397 
Q 2388 397 2633 464 
Q 2878 531 3122 666 
L 3122 134 
Q 2881 22 2623 -34 
Q 2366 -91 2075 -91 
Q 1284 -91 818 406 
Q 353 903 353 1747 
Q 353 2603 823 3093 
Q 1294 3584 2113 3584 
Q 2378 3584 2631 3529 
Q 2884 3475 3122 3366 
z
" transform="scale(0.015625)"/>
      <path id="DejaVuSans-4d" d="M 628 4666 
L 1569 4666 
L 2759 1491 
L 3956 4666 
L 4897 4666 
L 4897 0 
L 4281 0 
L 4281 4097 
L 3078 897 
L 2444 897 
L 1241 4097 
L 1241 0 
L 628 0 
L 628 4666 
z
" transform="scale(0.015625)"/>
      <path id="DejaVuSans-73" d="M 2834 3397 
L 2834 2853 
Q 2591 2978 2328 3040 
Q 2066 3103 1784 3103 
Q 1356 3103 1142 2972 
Q 928 2841 928 2578 
Q 928 2378 1081 2264 
Q 1234 2150 1697 2047 
L 1894 2003 
Q 2506 1872 2764 1633 
Q 3022 1394 3022 966 
Q 3022 478 2636 193 
Q 2250 -91 1575 -91 
Q 1294 -91 989 -36 
Q 684 19 347 128 
L 347 722 
Q 666 556 975 473 
Q 1284 391 1588 391 
Q 1994 391 2212 530 
Q 2431 669 2431 922 
Q 2431 1156 2273 1281 
Q 2116 1406 1581 1522 
L 1381 1569 
Q 847 1681 609 1914 
Q 372 2147 372 2553 
Q 372 3047 722 3315 
Q 1072 3584 1716 3584 
Q 2034 3584 2315 3537 
Q 2597 3491 2834 3397 
z
" transform="scale(0.015625)"/>
      <path id="DejaVuSans-34" d="M 2419 4116 
L 825 1625 
L 2419 1625 
L 2419 4116 
z
M 2253 4666 
L 3047 4666 
L 3047 1625 
L 3713 1625 
L 3713 1100 
L 3047 1100 
L 3047 0 
L 2419 0 
L 2419 1100 
L 313 1100 
L 313 1709 
L 2253 4666 
z
" transform="scale(0.015625)"/>
     </defs>
     <use xlink:href="#DejaVuSans-50"/>
     <use xlink:href="#DejaVuSans-65" x="56.677734"/>
     <use xlink:href="#DejaVuSans-6c" x="118.201172"/>
     <use xlink:href="#DejaVuSans-6c" x="145.984375"/>
     <use xlink:href="#DejaVuSans-65" x="173.767578"/>
     <use xlink:href="#DejaVuSans-74" x="235.291016"/>
     <use xlink:href="#DejaVuSans-20" x="274.5"/>
     <use xlink:href="#DejaVuSans-43" x="306.287109"/>
     <use xlink:href="#DejaVuSans-6f" x="376.111328"/>
     <use xlink:href="#DejaVuSans-75" x="437.292969"/>
     <use xlink:href="#DejaVuSans-6e" x="500.671875"/>
     <use xlink:href="#DejaVuSans-74" x="564.050781"/>
     <use xlink:href="#DejaVuSans-20" x="603.259766"/>
     <use xlink:href="#DejaVuSans-61" x="635.046875"/>
     <use xlink:href="#DejaVuSans-6e" x="696.326172"/>
     <use xlink:href="#DejaVuSans-64" x="759.705078"/>
     <use xlink:href="#DejaVuSans-20" x="823.181641"/>
     <use xlink:href="#DejaVuSans-43" x="854.96875"/>
     <use xlink:href="#DejaVuSans-75" x="924.792969"/>
     <use xlink:href="#DejaVuSans-6d" x="988.171875"/>
     <use xlink:href="#DejaVuSans-75" x="1085.583984"/>
     <use xlink:href="#DejaVuSans-6c" x="1148.962891"/>
     <use xlink:href="#DejaVuSans-61" x="1176.746094"/>
     <use xlink:href="#DejaVuSans-74" x="1238.025391"/>
     <use xlink:href="#DejaVuSans-69" x="1277.234375"/>
     <use xlink:href="#DejaVuSans-76" x="1305.017578"/>
     <use xlink:href="#DejaVuSans-65" x="1364.197266"/>
     <use xlink:href="#DejaVuSans-20" x="1425.720703"/>
     <use xlink:href="#DejaVuSans-53" x="1457.507812"/>
     <use xlink:href="#DejaVuSans-75" x="1520.984375"/>
     <use xlink:href="#DejaVuSans-6d" x="1584.363281"/>
     <use xlink:href="#DejaVuSans-20" x="1681.775391"/>
     <use xlink:href="#DejaVuSans-4f" x="1713.5625"/>
     <use xlink:href="#DejaVuSans-76" x="1792.273438"/>
     <use xlink:href="#DejaVuSans-65" x="1851.453125"/>
     <use xlink:href="#DejaVuSans-72" x="1912.976562"/>
     <use xlink:href="#DejaVuSans-20" x="1954.089844"/>
     <use xlink:href="#DejaVuSans-54" x="1985.876953"/>
     <use xlink:href="#DejaVuSans-69" x="2043.835938"/>
     <use xlink:href="#DejaVuSans-6d" x="2071.619141"/>
     <use xlink:href="#DejaVuSans-65" x="2169.03125"/>
     <use xlink:href="#DejaVuSans-20" x="2230.554688"/>
     <use xlink:href="#DejaVuSans-6f" x="2262.341797"/>
     <use xlink:href="#DejaVuSans-66" x="2323.523438"/>
     <use xlink:href="#DejaVuSans-20" x="2358.728516"/>
     <use xlink:href="#DejaVuSans-47" x="2390.515625"/>
     <use xlink:href="#DejaVuSans-72" x="2468.005859"/>
     <use xlink:href="#DejaVuSans-6f" x="2506.869141"/>
     <use xlink:href="#DejaVuSans-75" x="2568.050781"/>
     <use xlink:href="#DejaVuSans-70" x="2631.429688"/>
     <use xlink:href="#DejaVuSans-20" x="2694.90625"/>
     <use xlink:href="#DejaVuSans-63" x="2726.693359"/>
     <use xlink:href="#DejaVuSans-74" x="2781.673828"/>
     <use xlink:href="#DejaVuSans-72" x="2820.882812"/>
     <use xlink:href="#DejaVuSans-6c" x="2861.996094"/>
     <use xlink:href="#DejaVuSans-20" x="2889.779297"/>
     <use xlink:href="#DejaVuSans-4d" x="2921.566406"/>
     <use xlink:href="#DejaVuSans-6f" x="3007.845703"/>
     <use xlink:href="#DejaVuSans-75" x="3069.027344"/>
     <use xlink:href="#DejaVuSans-73" x="3132.40625"/>
     <use xlink:href="#DejaVuSans-65" x="3184.505859"/>
     <use xlink:href="#DejaVuSans-20" x="3246.029297"/>
     <use xlink:href="#DejaVuSans-4d" x="3277.816406"/>
     <use xlink:href="#DejaVuSans-34" x="3364.095703"/>
     <use xlink:href="#DejaVuSans-37" x="3427.71875"/>
    </g>
   </g>
   <g id="legend_1">
    <g id="patch_85">
     <path d="M 1086.550625 64.233437 
L 1158.235 64.233437 
Q 1160.235 64.233437 1160.235 62.233437 
L 1160.235 33.877187 
Q 1160.235 31.877187 1158.235 31.877187 
L 1086.550625 31.877187 
Q 1084.550625 31.877187 1084.550625 33.877187 
L 1084.550625 62.233437 
Q 1084.550625 64.233437 1086.550625 64.233437 
z
" style="fill: #ffffff; opacity: 0.8; stroke: #cccccc; stroke-linejoin: miter"/>
    </g>
    <g id="patch_86">
     <path d="M 1088.550625 43.475625 
L 1108.550625 43.475625 
L 1108.550625 36.475625 
L 1088.550625 36.475625 
z
" style="fill: #add8e6; opacity: 0.9; stroke: #add8e6; stroke-linejoin: miter"/>
    </g>
    <g id="text_20">
     <!-- Meal -->
     <g transform="translate(1116.550625 43.475625) scale(0.1 -0.1)">
      <use xlink:href="#DejaVuSans-4d"/>
      <use xlink:href="#DejaVuSans-65" x="86.279297"/>
      <use xlink:href="#DejaVuSans-61" x="147.802734"/>
      <use xlink:href="#DejaVuSans-6c" x="209.082031"/>
     </g>
    </g>
    <g id="patch_87">
     <path d="M 1088.550625 58.15375 
L 1108.550625 58.15375 
L 1108.550625 51.15375 
L 1088.550625 51.15375 
z
" style="fill: #808080; opacity: 0.5; stroke: #808080; stroke-linejoin: miter"/>
    </g>
    <g id="text_21">
     <!-- Inactive -->
     <g transform="translate(1116.550625 58.15375) scale(0.1 -0.1)">
      <defs>
       <path id="DejaVuSans-49" d="M 628 4666 
L 1259 4666 
L 1259 0 
L 628 0 
L 628 4666 
z
" transform="scale(0.015625)"/>
      </defs>
      <use xlink:href="#DejaVuSans-49"/>
      <use xlink:href="#DejaVuSans-6e" x="29.492188"/>
      <use xlink:href="#DejaVuSans-61" x="92.871094"/>
      <use xlink:href="#DejaVuSans-63" x="154.150391"/>
      <use xlink:href="#DejaVuSans-74" x="209.130859"/>
      <use xlink:href="#DejaVuSans-69" x="248.339844"/>
      <use xlink:href="#DejaVuSans-76" x="276.123047"/>
      <use xlink:href="#DejaVuSans-65" x="335.302734"/>
     </g>
    </g>
   </g>
  </g>
 </g>
 <defs>
  <clipPath id="p8909432b1e">
   <rect x="49.235" y="26.877187" width="1116" height="332.64"/>
  </clipPath>
 </defs>
</svg>
