<?xml version="1.0" encoding="utf-8" standalone="no"?>
<!DOCTYPE svg PUBLIC "-//W3C//DTD SVG 1.1//EN"
  "http://www.w3.org/Graphics/SVG/1.1/DTD/svg11.dtd">
<svg xmlns:xlink="http://www.w3.org/1999/xlink" width="1193.462322pt" height="399.009062pt" viewBox="0 0 1193.462322 399.009062" xmlns="http://www.w3.org/2000/svg" version="1.1">
 <metadata>
  <rdf:RDF xmlns:dc="http://purl.org/dc/elements/1.1/" xmlns:cc="http://creativecommons.org/ns#" xmlns:rdf="http://www.w3.org/1999/02/22-rdf-syntax-ns#">
   <cc:Work>
    <dc:type rdf:resource="http://purl.org/dc/dcmitype/StillImage"/>
    <dc:date>2025-10-01T20:30:00.711681</dc:date>
    <dc:format>image/svg+xml</dc:format>
    <dc:creator>
     <cc:Agent>
      <dc:title>Matplotlib v3.8.4, https://matplotlib.org/</dc:title>
     </cc:Agent>
    </dc:creator>
   </cc:Work>
  </rdf:RDF>
 </metadata>
 <defs>
  <style type="text/css">*{stroke-linejoin: round; stroke-linecap: butt}</style>
 </defs>
 <g id="figure_1">
  <g id="patch_1">
   <path d="M 0 399.009062 
L 1193.462322 399.009062 
L 1193.462322 0 
L 0 0 
z
" style="fill: #ffffff"/>
  </g>
  <g id="axes_1">
   <g id="patch_2">
    <path d="M 49.235 359.517187 
L 1165.235 359.517187 
L 1165.235 26.877187 
L 49.235 26.877187 
z
" style="fill: #ffffff"/>
   </g>
   <g id="patch_3">
    <path d="M 228.584329 359.517187 
L 228.584329 26.877187 
L 206.579006 26.877187 
L 206.579006 359.517187 
z
" clip-path="url(#pd9bc4b8ca0)" style="fill: #add8e6; stroke: #add8e6; stroke-linejoin: miter"/>
   </g>
   <g id="patch_4">
    <path d="M 239.359392 359.517187 
L 239.359392 26.877187 
L 212.832848 26.877187 
L 212.832848 359.517187 
z
" clip-path="url(#pd9bc4b8ca0)" style="fill: #add8e6; stroke: #add8e6; stroke-linejoin: miter"/>
   </g>
   <g id="patch_5">
    <path d="M 251.180179 359.517187 
L 251.180179 26.877187 
L 220.288249 26.877187 
L 220.288249 359.517187 
z
" clip-path="url(#pd9bc4b8ca0)" style="fill: #add8e6; stroke: #add8e6; stroke-linejoin: miter"/>
   </g>
   <g id="patch_6">
    <path d="M 225.096531 359.517187 
L 225.096531 26.877187 
L 225.705511 26.877187 
L 225.705511 359.517187 
z
" clip-path="url(#pd9bc4b8ca0)" style="fill: #add8e6; stroke: #add8e6; stroke-linejoin: miter"/>
   </g>
   <g id="patch_7">
    <path d="M 239.039523 359.517187 
L 239.039523 26.877187 
L 237.446331 26.877187 
L 237.446331 359.517187 
z
" clip-path="url(#pd9bc4b8ca0)" style="fill: #add8e6; stroke: #add8e6; stroke-linejoin: miter"/>
   </g>
   <g id="patch_8">
    <path d="M 245.393837 359.517187 
L 245.393837 26.877187 
L 245.707554 26.877187 
L 245.707554 359.517187 
z
" clip-path="url(#pd9bc4b8ca0)" style="fill: #add8e6; stroke: #add8e6; stroke-linejoin: miter"/>
   </g>
   <g id="patch_9">
    <path d="M 261.208882 359.517187 
L 261.208882 26.877187 
L 252.72416 26.877187 
L 252.72416 359.517187 
z
" clip-path="url(#pd9bc4b8ca0)" style="fill: #add8e6; stroke: #add8e6; stroke-linejoin: miter"/>
   </g>
   <g id="patch_10">
    <path d="M 261.38932 359.517187 
L 261.38932 26.877187 
L 261.682533 26.877187 
L 261.682533 359.517187 
z
" clip-path="url(#pd9bc4b8ca0)" style="fill: #add8e6; stroke: #add8e6; stroke-linejoin: miter"/>
   </g>
   <g id="patch_11">
    <path d="M 266.69791 359.517187 
L 266.69791 26.877187 
L 265.81622 26.877187 
L 265.81622 359.517187 
z
" clip-path="url(#pd9bc4b8ca0)" style="fill: #add8e6; stroke: #add8e6; stroke-linejoin: miter"/>
   </g>
   <g id="patch_12">
    <path d="M 274.204571 359.517187 
L 274.204571 26.877187 
L 268.764753 26.877187 
L 268.764753 359.517187 
z
" clip-path="url(#pd9bc4b8ca0)" style="fill: #add8e6; stroke: #add8e6; stroke-linejoin: miter"/>
   </g>
   <g id="patch_13">
    <path d="M 277.165406 359.517187 
L 277.165406 26.877187 
L 276.06227 26.877187 
L 276.06227 359.517187 
z
" clip-path="url(#pd9bc4b8ca0)" style="fill: #add8e6; stroke: #add8e6; stroke-linejoin: miter"/>
   </g>
   <g id="patch_14">
    <path d="M 284.694622 359.517187 
L 284.694622 26.877187 
L 284.633109 26.877187 
L 284.633109 359.517187 
z
" clip-path="url(#pd9bc4b8ca0)" style="fill: #add8e6; stroke: #add8e6; stroke-linejoin: miter"/>
   </g>
   <g id="patch_15">
    <path d="M 287.48117 359.517187 
L 287.48117 26.877187 
L 285.867474 26.877187 
L 285.867474 359.517187 
z
" clip-path="url(#pd9bc4b8ca0)" style="fill: #add8e6; stroke: #add8e6; stroke-linejoin: miter"/>
   </g>
   <g id="patch_16">
    <path d="M 313.247001 359.517187 
L 313.247001 26.877187 
L 295.3077 26.877187 
L 295.3077 359.517187 
z
" clip-path="url(#pd9bc4b8ca0)" style="fill: #add8e6; stroke: #add8e6; stroke-linejoin: miter"/>
   </g>
   <g id="patch_17">
    <path d="M 298.766793 359.517187 
L 298.766793 26.877187 
L 298.84676 26.877187 
L 298.84676 359.517187 
z
" clip-path="url(#pd9bc4b8ca0)" style="fill: #add8e6; stroke: #add8e6; stroke-linejoin: miter"/>
   </g>
   <g id="patch_18">
    <path d="M 306.749156 359.517187 
L 306.749156 26.877187 
L 307.075176 26.877187 
L 307.075176 359.517187 
z
" clip-path="url(#pd9bc4b8ca0)" style="fill: #add8e6; stroke: #add8e6; stroke-linejoin: miter"/>
   </g>
   <g id="patch_19">
    <path d="M 312.832812 359.517187 
L 312.832812 26.877187 
L 313.216244 26.877187 
L 313.216244 359.517187 
z
" clip-path="url(#pd9bc4b8ca0)" style="fill: #add8e6; stroke: #add8e6; stroke-linejoin: miter"/>
   </g>
   <g id="patch_20">
    <path d="M 314.73562 359.517187 
L 314.73562 26.877187 
L 314.110236 26.877187 
L 314.110236 359.517187 
z
" clip-path="url(#pd9bc4b8ca0)" style="fill: #add8e6; stroke: #add8e6; stroke-linejoin: miter"/>
   </g>
   <g id="patch_21">
    <path d="M 323.406931 359.517187 
L 323.406931 26.877187 
L 324.440353 26.877187 
L 324.440353 359.517187 
z
" clip-path="url(#pd9bc4b8ca0)" style="fill: #add8e6; stroke: #add8e6; stroke-linejoin: miter"/>
   </g>
   <g id="patch_22">
    <path d="M 364.938595 359.517187 
L 364.938595 26.877187 
L 338.428455 26.877187 
L 338.428455 359.517187 
z
" clip-path="url(#pd9bc4b8ca0)" style="fill: #add8e6; stroke: #add8e6; stroke-linejoin: miter"/>
   </g>
   <g id="patch_23">
    <path d="M 353.384365 359.517187 
L 353.384365 26.877187 
L 355.153895 26.877187 
L 355.153895 359.517187 
z
" clip-path="url(#pd9bc4b8ca0)" style="fill: #add8e6; stroke: #add8e6; stroke-linejoin: miter"/>
   </g>
   <g id="patch_24">
    <path d="M 398.986153 359.517187 
L 398.986153 26.877187 
L 366.710176 26.877187 
L 366.710176 359.517187 
z
" clip-path="url(#pd9bc4b8ca0)" style="fill: #add8e6; stroke: #add8e6; stroke-linejoin: miter"/>
   </g>
   <g id="patch_25">
    <path d="M 427.446261 359.517187 
L 427.446261 26.877187 
L 394.104055 26.877187 
L 394.104055 359.517187 
z
" clip-path="url(#pd9bc4b8ca0)" style="fill: #add8e6; stroke: #add8e6; stroke-linejoin: miter"/>
   </g>
   <g id="patch_26">
    <path d="M 423.954362 359.517187 
L 423.954362 26.877187 
L 396.950066 26.877187 
L 396.950066 359.517187 
z
" clip-path="url(#pd9bc4b8ca0)" style="fill: #add8e6; stroke: #add8e6; stroke-linejoin: miter"/>
   </g>
   <g id="patch_27">
    <path d="M 432.726145 359.517187 
L 432.726145 26.877187 
L 402.264807 26.877187 
L 402.264807 359.517187 
z
" clip-path="url(#pd9bc4b8ca0)" style="fill: #add8e6; stroke: #add8e6; stroke-linejoin: miter"/>
   </g>
   <g id="patch_28">
    <path d="M 419.504907 359.517187 
L 419.504907 26.877187 
L 419.187089 26.877187 
L 419.187089 359.517187 
z
" clip-path="url(#pd9bc4b8ca0)" style="fill: #add8e6; stroke: #add8e6; stroke-linejoin: miter"/>
   </g>
   <g id="patch_29">
    <path d="M 421.272386 359.517187 
L 421.272386 26.877187 
L 420.513724 26.877187 
L 420.513724 359.517187 
z
" clip-path="url(#pd9bc4b8ca0)" style="fill: #add8e6; stroke: #add8e6; stroke-linejoin: miter"/>
   </g>
   <g id="patch_30">
    <path d="M 461.842394 359.517187 
L 461.842394 26.877187 
L 432.33041 26.877187 
L 432.33041 359.517187 
z
" clip-path="url(#pd9bc4b8ca0)" style="fill: #add8e6; stroke: #add8e6; stroke-linejoin: miter"/>
   </g>
   <g id="patch_31">
    <path d="M 467.399087 359.517187 
L 467.399087 26.877187 
L 434.651508 26.877187 
L 434.651508 359.517187 
z
" clip-path="url(#pd9bc4b8ca0)" style="fill: #add8e6; stroke: #add8e6; stroke-linejoin: miter"/>
   </g>
   <g id="patch_32">
    <path d="M 439.640229 359.517187 
L 439.640229 26.877187 
L 439.736599 26.877187 
L 439.736599 359.517187 
z
" clip-path="url(#pd9bc4b8ca0)" style="fill: #add8e6; stroke: #add8e6; stroke-linejoin: miter"/>
   </g>
   <g id="patch_33">
    <path d="M 441.204714 359.517187 
L 441.204714 26.877187 
L 440.847938 26.877187 
L 440.847938 359.517187 
z
" clip-path="url(#pd9bc4b8ca0)" style="fill: #add8e6; stroke: #add8e6; stroke-linejoin: miter"/>
   </g>
   <g id="patch_34">
    <path d="M 452.115106 359.517187 
L 452.115106 26.877187 
L 451.797288 26.877187 
L 451.797288 359.517187 
z
" clip-path="url(#pd9bc4b8ca0)" style="fill: #add8e6; stroke: #add8e6; stroke-linejoin: miter"/>
   </g>
   <g id="patch_35">
    <path d="M 454.384943 359.517187 
L 454.384943 26.877187 
L 453.185436 26.877187 
L 453.185436 359.517187 
z
" clip-path="url(#pd9bc4b8ca0)" style="fill: #add8e6; stroke: #add8e6; stroke-linejoin: miter"/>
   </g>
   <g id="patch_36">
    <path d="M 463.54836 359.517187 
L 463.54836 26.877187 
L 464.512067 26.877187 
L 464.512067 359.517187 
z
" clip-path="url(#pd9bc4b8ca0)" style="fill: #add8e6; stroke: #add8e6; stroke-linejoin: miter"/>
   </g>
   <g id="patch_37">
    <path d="M 503.98919 359.517187 
L 503.98919 26.877187 
L 470.700295 26.877187 
L 470.700295 359.517187 
z
" clip-path="url(#pd9bc4b8ca0)" style="fill: #add8e6; stroke: #add8e6; stroke-linejoin: miter"/>
   </g>
   <g id="patch_38">
    <path d="M 482.049481 359.517187 
L 482.049481 26.877187 
L 478.604742 26.877187 
L 478.604742 359.517187 
z
" clip-path="url(#pd9bc4b8ca0)" style="fill: #add8e6; stroke: #add8e6; stroke-linejoin: miter"/>
   </g>
   <g id="patch_39">
    <path d="M 492.092537 359.517187 
L 492.092537 26.877187 
L 492.322186 26.877187 
L 492.322186 359.517187 
z
" clip-path="url(#pd9bc4b8ca0)" style="fill: #add8e6; stroke: #add8e6; stroke-linejoin: miter"/>
   </g>
   <g id="patch_40">
    <path d="M 529.24036 359.517187 
L 529.24036 26.877187 
L 495.606991 26.877187 
L 495.606991 359.517187 
z
" clip-path="url(#pd9bc4b8ca0)" style="fill: #add8e6; stroke: #add8e6; stroke-linejoin: miter"/>
   </g>
   <g id="patch_41">
    <path d="M 535.330167 359.517187 
L 535.330167 26.877187 
L 501.901842 26.877187 
L 501.901842 359.517187 
z
" clip-path="url(#pd9bc4b8ca0)" style="fill: #add8e6; stroke: #add8e6; stroke-linejoin: miter"/>
   </g>
   <g id="patch_42">
    <path d="M 506.956177 359.517187 
L 506.956177 26.877187 
L 506.677317 26.877187 
L 506.677317 359.517187 
z
" clip-path="url(#pd9bc4b8ca0)" style="fill: #add8e6; stroke: #add8e6; stroke-linejoin: miter"/>
   </g>
   <g id="patch_43">
    <path d="M 546.320526 359.517187 
L 546.320526 26.877187 
L 512.611291 26.877187 
L 512.611291 359.517187 
z
" clip-path="url(#pd9bc4b8ca0)" style="fill: #add8e6; stroke: #add8e6; stroke-linejoin: miter"/>
   </g>
   <g id="patch_44">
    <path d="M 525.619283 359.517187 
L 525.619283 26.877187 
L 525.362978 26.877187 
L 525.362978 359.517187 
z
" clip-path="url(#pd9bc4b8ca0)" style="fill: #add8e6; stroke: #add8e6; stroke-linejoin: miter"/>
   </g>
   <g id="patch_45">
    <path d="M 540.419359 359.517187 
L 540.419359 26.877187 
L 540.874557 26.877187 
L 540.874557 359.517187 
z
" clip-path="url(#pd9bc4b8ca0)" style="fill: #add8e6; stroke: #add8e6; stroke-linejoin: miter"/>
   </g>
   <g id="patch_46">
    <path d="M 555.580313 359.517187 
L 555.580313 26.877187 
L 555.699239 26.877187 
L 555.699239 359.517187 
z
" clip-path="url(#pd9bc4b8ca0)" style="fill: #add8e6; stroke: #add8e6; stroke-linejoin: miter"/>
   </g>
   <g id="patch_47">
    <path d="M 561.376907 359.517187 
L 561.376907 26.877187 
L 556.995117 26.877187 
L 556.995117 359.517187 
z
" clip-path="url(#pd9bc4b8ca0)" style="fill: #add8e6; stroke: #add8e6; stroke-linejoin: miter"/>
   </g>
   <g id="patch_48">
    <path d="M 617.368275 359.517187 
L 617.368275 26.877187 
L 584.694512 26.877187 
L 584.694512 359.517187 
z
" clip-path="url(#pd9bc4b8ca0)" style="fill: #add8e6; stroke: #add8e6; stroke-linejoin: miter"/>
   </g>
   <g id="patch_49">
    <path d="M 606.377916 359.517187 
L 606.377916 26.877187 
L 607.7025 26.877187 
L 607.7025 359.517187 
z
" clip-path="url(#pd9bc4b8ca0)" style="fill: #add8e6; stroke: #add8e6; stroke-linejoin: miter"/>
   </g>
   <g id="patch_50">
    <path d="M 741.194352 359.517187 
L 741.194352 26.877187 
L 709.861577 26.877187 
L 709.861577 359.517187 
z
" clip-path="url(#pd9bc4b8ca0)" style="fill: #add8e6; stroke: #add8e6; stroke-linejoin: miter"/>
   </g>
   <g id="patch_51">
    <path d="M 717.56508 359.517187 
L 717.56508 26.877187 
L 716.548062 26.877187 
L 716.548062 359.517187 
z
" clip-path="url(#pd9bc4b8ca0)" style="fill: #add8e6; stroke: #add8e6; stroke-linejoin: miter"/>
   </g>
   <g id="patch_52">
    <path d="M 746.174871 359.517187 
L 746.174871 26.877187 
L 747.825475 26.877187 
L 747.825475 359.517187 
z
" clip-path="url(#pd9bc4b8ca0)" style="fill: #add8e6; stroke: #add8e6; stroke-linejoin: miter"/>
   </g>
   <g id="patch_53">
    <path d="M 818.518498 359.517187 
L 818.518498 26.877187 
L 818.793257 26.877187 
L 818.793257 359.517187 
z
" clip-path="url(#pd9bc4b8ca0)" style="fill: #add8e6; stroke: #add8e6; stroke-linejoin: miter"/>
   </g>
   <g id="patch_54">
    <path d="M 849.752852 359.517187 
L 849.752852 26.877187 
L 822.654236 26.877187 
L 822.654236 359.517187 
z
" clip-path="url(#pd9bc4b8ca0)" style="fill: #add8e6; stroke: #add8e6; stroke-linejoin: miter"/>
   </g>
   <g id="patch_55">
    <path d="M 838.436473 359.517187 
L 838.436473 26.877187 
L 838.649719 26.877187 
L 838.649719 359.517187 
z
" clip-path="url(#pd9bc4b8ca0)" style="fill: #add8e6; stroke: #add8e6; stroke-linejoin: miter"/>
   </g>
   <g id="patch_56">
    <path d="M 847.468662 359.517187 
L 847.468662 26.877187 
L 839.330465 26.877187 
L 839.330465 359.517187 
z
" clip-path="url(#pd9bc4b8ca0)" style="fill: #add8e6; stroke: #add8e6; stroke-linejoin: miter"/>
   </g>
   <g id="patch_57">
    <path d="M 918.471301 359.517187 
L 918.471301 26.877187 
L 918.469251 26.877187 
L 918.469251 359.517187 
z
" clip-path="url(#pd9bc4b8ca0)" style="fill: #add8e6; stroke: #add8e6; stroke-linejoin: miter"/>
   </g>
   <g id="patch_58">
    <path d="M 960.294128 359.517187 
L 960.294128 26.877187 
L 926.416757 26.877187 
L 926.416757 359.517187 
z
" clip-path="url(#pd9bc4b8ca0)" style="fill: #add8e6; stroke: #add8e6; stroke-linejoin: miter"/>
   </g>
   <g id="patch_59">
    <path d="M 961.138909 359.517187 
L 961.138909 26.877187 
L 961.333701 26.877187 
L 961.333701 359.517187 
z
" clip-path="url(#pd9bc4b8ca0)" style="fill: #add8e6; stroke: #add8e6; stroke-linejoin: miter"/>
   </g>
   <g id="patch_60">
    <path d="M 961.989842 359.517187 
L 961.989842 26.877187 
L 962.412233 26.877187 
L 962.412233 359.517187 
z
" clip-path="url(#pd9bc4b8ca0)" style="fill: #add8e6; stroke: #add8e6; stroke-linejoin: miter"/>
   </g>
   <g id="patch_61">
    <path d="M 1017.552668 359.517187 
L 1017.552668 26.877187 
L 985.951285 26.877187 
L 985.951285 359.517187 
z
" clip-path="url(#pd9bc4b8ca0)" style="fill: #add8e6; stroke: #add8e6; stroke-linejoin: miter"/>
   </g>
   <g id="patch_62">
    <path d="M 1007.811027 359.517187 
L 1007.811027 26.877187 
L 1008.350292 26.877187 
L 1008.350292 359.517187 
z
" clip-path="url(#pd9bc4b8ca0)" style="fill: #add8e6; stroke: #add8e6; stroke-linejoin: miter"/>
   </g>
   <g id="patch_63">
    <path d="M 1019.492384 359.517187 
L 1019.492384 26.877187 
L 1019.775345 26.877187 
L 1019.775345 359.517187 
z
" clip-path="url(#pd9bc4b8ca0)" style="fill: #add8e6; stroke: #add8e6; stroke-linejoin: miter"/>
   </g>
   <g id="patch_64">
    <path d="M 1022.432715 359.517187 
L 1022.432715 26.877187 
L 1023.749098 26.877187 
L 1023.749098 359.517187 
z
" clip-path="url(#pd9bc4b8ca0)" style="fill: #add8e6; stroke: #add8e6; stroke-linejoin: miter"/>
   </g>
   <g id="patch_65">
    <path d="M 1070.197717 359.517187 
L 1070.197717 26.877187 
L 1038.942859 26.877187 
L 1038.942859 359.517187 
z
" clip-path="url(#pd9bc4b8ca0)" style="fill: #add8e6; stroke: #add8e6; stroke-linejoin: miter"/>
   </g>
   <g id="patch_66">
    <path d="M 1039.664613 359.517187 
L 1039.664613 26.877187 
L 1040.01934 26.877187 
L 1040.01934 359.517187 
z
" clip-path="url(#pd9bc4b8ca0)" style="fill: #add8e6; stroke: #add8e6; stroke-linejoin: miter"/>
   </g>
   <g id="patch_67">
    <path d="M 1086.211654 359.517187 
L 1086.211654 26.877187 
L 1052.920709 26.877187 
L 1052.920709 359.517187 
z
" clip-path="url(#pd9bc4b8ca0)" style="fill: #add8e6; stroke: #add8e6; stroke-linejoin: miter"/>
   </g>
   <g id="patch_68">
    <path d="M 1093.449708 359.517187 
L 1093.449708 26.877187 
L 1060.378159 26.877187 
L 1060.378159 359.517187 
z
" clip-path="url(#pd9bc4b8ca0)" style="fill: #add8e6; stroke: #add8e6; stroke-linejoin: miter"/>
   </g>
   <g id="patch_69">
    <path d="M 1100.03162 359.517187 
L 1100.03162 26.877187 
L 1073.736776 26.877187 
L 1073.736776 359.517187 
z
" clip-path="url(#pd9bc4b8ca0)" style="fill: #add8e6; stroke: #add8e6; stroke-linejoin: miter"/>
   </g>
   <g id="patch_70">
    <path d="M 1114.507727 359.517187 
L 1114.507727 26.877187 
L 1080.447867 26.877187 
L 1080.447867 359.517187 
z
" clip-path="url(#pd9bc4b8ca0)" style="fill: #add8e6; stroke: #add8e6; stroke-linejoin: miter"/>
   </g>
   <g id="patch_71">
    <path d="M 1083.496871 359.517187 
L 1083.496871 26.877187 
L 1083.935666 26.877187 
L 1083.935666 359.517187 
z
" clip-path="url(#pd9bc4b8ca0)" style="fill: #add8e6; stroke: #add8e6; stroke-linejoin: miter"/>
   </g>
   <g id="patch_72">
    <path d="M 1091.706833 359.517187 
L 1091.706833 26.877187 
L 1093.142142 26.877187 
L 1093.142142 359.517187 
z
" clip-path="url(#pd9bc4b8ca0)" style="fill: #add8e6; stroke: #add8e6; stroke-linejoin: miter"/>
   </g>
   <g id="patch_73">
    <path d="M 1104.22477 359.517187 
L 1104.22477 26.877187 
L 1104.573345 26.877187 
L 1104.573345 359.517187 
z
" clip-path="url(#pd9bc4b8ca0)" style="fill: #add8e6; stroke: #add8e6; stroke-linejoin: miter"/>
   </g>
   <g id="patch_74">
    <path d="M 542.857332 359.517187 
L 542.857332 26.877187 
L 985.752392 26.877187 
L 985.752392 359.517187 
z
" clip-path="url(#pd9bc4b8ca0)" style="fill: #808080; opacity: 0.4; stroke: #808080; stroke-linejoin: miter"/>
   </g>
   <g id="matplotlib.axis_1">
    <g id="xtick_1">
     <g id="line2d_1">
      <defs>
       <path id="m3ef0e3f53d" d="M 0 0 
L 0 3.5 
" style="stroke: #000000; stroke-width: 0.8"/>
      </defs>
      <g>
       <use xlink:href="#m3ef0e3f53d" x="56.544204" y="359.517187" style="stroke: #000000; stroke-width: 0.8"/>
      </g>
     </g>
     <g id="text_1">
      <!-- 09-06 06 -->
      <g transform="translate(34.063735 374.115625) scale(0.1 -0.1)">
       <defs>
        <path id="DejaVuSans-30" d="M 2034 4250 
Q 1547 4250 1301 3770 
Q 1056 3291 1056 2328 
Q 1056 1369 1301 889 
Q 1547 409 2034 409 
Q 2525 409 2770 889 
Q 3016 1369 3016 2328 
Q 3016 3291 2770 3770 
Q 2525 4250 2034 4250 
z
M 2034 4750 
Q 2819 4750 3233 4129 
Q 3647 3509 3647 2328 
Q 3647 1150 3233 529 
Q 2819 -91 2034 -91 
Q 1250 -91 836 529 
Q 422 1150 422 2328 
Q 422 3509 836 4129 
Q 1250 4750 2034 4750 
z
" transform="scale(0.015625)"/>
        <path id="DejaVuSans-39" d="M 703 97 
L 703 672 
Q 941 559 1184 500 
Q 1428 441 1663 441 
Q 2288 441 2617 861 
Q 2947 1281 2994 2138 
Q 2813 1869 2534 1725 
Q 2256 1581 1919 1581 
Q 1219 1581 811 2004 
Q 403 2428 403 3163 
Q 403 3881 828 4315 
Q 1253 4750 1959 4750 
Q 2769 4750 3195 4129 
Q 3622 3509 3622 2328 
Q 3622 1225 3098 567 
Q 2575 -91 1691 -91 
Q 1453 -91 1209 -44 
Q 966 3 703 97 
z
M 1959 2075 
Q 2384 2075 2632 2365 
Q 2881 2656 2881 3163 
Q 2881 3666 2632 3958 
Q 2384 4250 1959 4250 
Q 1534 4250 1286 3958 
Q 1038 3666 1038 3163 
Q 1038 2656 1286 2365 
Q 1534 2075 1959 2075 
z
" transform="scale(0.015625)"/>
        <path id="DejaVuSans-2d" d="M 313 2009 
L 1997 2009 
L 1997 1497 
L 313 1497 
L 313 2009 
z
" transform="scale(0.015625)"/>
        <path id="DejaVuSans-36" d="M 2113 2584 
Q 1688 2584 1439 2293 
Q 1191 2003 1191 1497 
Q 1191 994 1439 701 
Q 1688 409 2113 409 
Q 2538 409 2786 701 
Q 3034 994 3034 1497 
Q 3034 2003 2786 2293 
Q 2538 2584 2113 2584 
z
M 3366 4563 
L 3366 3988 
Q 3128 4100 2886 4159 
Q 2644 4219 2406 4219 
Q 1781 4219 1451 3797 
Q 1122 3375 1075 2522 
Q 1259 2794 1537 2939 
Q 1816 3084 2150 3084 
Q 2853 3084 3261 2657 
Q 3669 2231 3669 1497 
Q 3669 778 3244 343 
Q 2819 -91 2113 -91 
Q 1303 -91 875 529 
Q 447 1150 447 2328 
Q 447 3434 972 4092 
Q 1497 4750 2381 4750 
Q 2619 4750 2861 4703 
Q 3103 4656 3366 4563 
z
" transform="scale(0.015625)"/>
        <path id="DejaVuSans-20" transform="scale(0.015625)"/>
       </defs>
       <use xlink:href="#DejaVuSans-30"/>
       <use xlink:href="#DejaVuSans-39" x="63.623047"/>
       <use xlink:href="#DejaVuSans-2d" x="127.246094"/>
       <use xlink:href="#DejaVuSans-30" x="163.330078"/>
       <use xlink:href="#DejaVuSans-36" x="226.953125"/>
       <use xlink:href="#DejaVuSans-20" x="290.576172"/>
       <use xlink:href="#DejaVuSans-30" x="322.363281"/>
       <use xlink:href="#DejaVuSans-36" x="385.986328"/>
      </g>
     </g>
    </g>
    <g id="xtick_2">
     <g id="line2d_2">
      <g>
       <use xlink:href="#m3ef0e3f53d" x="167.267969" y="359.517187" style="stroke: #000000; stroke-width: 0.8"/>
      </g>
     </g>
     <g id="text_2">
      <!-- 09-06 09 -->
      <g transform="translate(144.7875 374.115625) scale(0.1 -0.1)">
       <use xlink:href="#DejaVuSans-30"/>
       <use xlink:href="#DejaVuSans-39" x="63.623047"/>
       <use xlink:href="#DejaVuSans-2d" x="127.246094"/>
       <use xlink:href="#DejaVuSans-30" x="163.330078"/>
       <use xlink:href="#DejaVuSans-36" x="226.953125"/>
       <use xlink:href="#DejaVuSans-20" x="290.576172"/>
       <use xlink:href="#DejaVuSans-30" x="322.363281"/>
       <use xlink:href="#DejaVuSans-39" x="385.986328"/>
      </g>
     </g>
    </g>
    <g id="xtick_3">
     <g id="line2d_3">
      <g>
       <use xlink:href="#m3ef0e3f53d" x="277.991734" y="359.517187" style="stroke: #000000; stroke-width: 0.8"/>
      </g>
     </g>
     <g id="text_3">
      <!-- 09-06 12 -->
      <g transform="translate(255.511265 374.115625) scale(0.1 -0.1)">
       <defs>
        <path id="DejaVuSans-31" d="M 794 531 
L 1825 531 
L 1825 4091 
L 703 3866 
L 703 4441 
L 1819 4666 
L 2450 4666 
L 2450 531 
L 3481 531 
L 3481 0 
L 794 0 
L 794 531 
z
" transform="scale(0.015625)"/>
        <path id="DejaVuSans-32" d="M 1228 531 
L 3431 531 
L 3431 0 
L 469 0 
L 469 531 
Q 828 903 1448 1529 
Q 2069 2156 2228 2338 
Q 2531 2678 2651 2914 
Q 2772 3150 2772 3378 
Q 2772 3750 2511 3984 
Q 2250 4219 1831 4219 
Q 1534 4219 1204 4116 
Q 875 4013 500 3803 
L 500 4441 
Q 881 4594 1212 4672 
Q 1544 4750 1819 4750 
Q 2544 4750 2975 4387 
Q 3406 4025 3406 3419 
Q 3406 3131 3298 2873 
Q 3191 2616 2906 2266 
Q 2828 2175 2409 1742 
Q 1991 1309 1228 531 
z
" transform="scale(0.015625)"/>
       </defs>
       <use xlink:href="#DejaVuSans-30"/>
       <use xlink:href="#DejaVuSans-39" x="63.623047"/>
       <use xlink:href="#DejaVuSans-2d" x="127.246094"/>
       <use xlink:href="#DejaVuSans-30" x="163.330078"/>
       <use xlink:href="#DejaVuSans-36" x="226.953125"/>
       <use xlink:href="#DejaVuSans-20" x="290.576172"/>
       <use xlink:href="#DejaVuSans-31" x="322.363281"/>
       <use xlink:href="#DejaVuSans-32" x="385.986328"/>
      </g>
     </g>
    </g>
    <g id="xtick_4">
     <g id="line2d_4">
      <g>
       <use xlink:href="#m3ef0e3f53d" x="388.715499" y="359.517187" style="stroke: #000000; stroke-width: 0.8"/>
      </g>
     </g>
     <g id="text_4">
      <!-- 09-06 15 -->
      <g transform="translate(366.23503 374.115625) scale(0.1 -0.1)">
       <defs>
        <path id="DejaVuSans-35" d="M 691 4666 
L 3169 4666 
L 3169 4134 
L 1269 4134 
L 1269 2991 
Q 1406 3038 1543 3061 
Q 1681 3084 1819 3084 
Q 2600 3084 3056 2656 
Q 3513 2228 3513 1497 
Q 3513 744 3044 326 
Q 2575 -91 1722 -91 
Q 1428 -91 1123 -41 
Q 819 9 494 109 
L 494 744 
Q 775 591 1075 516 
Q 1375 441 1709 441 
Q 2250 441 2565 725 
Q 2881 1009 2881 1497 
Q 2881 1984 2565 2268 
Q 2250 2553 1709 2553 
Q 1456 2553 1204 2497 
Q 953 2441 691 2322 
L 691 4666 
z
" transform="scale(0.015625)"/>
       </defs>
       <use xlink:href="#DejaVuSans-30"/>
       <use xlink:href="#DejaVuSans-39" x="63.623047"/>
       <use xlink:href="#DejaVuSans-2d" x="127.246094"/>
       <use xlink:href="#DejaVuSans-30" x="163.330078"/>
       <use xlink:href="#DejaVuSans-36" x="226.953125"/>
       <use xlink:href="#DejaVuSans-20" x="290.576172"/>
       <use xlink:href="#DejaVuSans-31" x="322.363281"/>
       <use xlink:href="#DejaVuSans-35" x="385.986328"/>
      </g>
     </g>
    </g>
    <g id="xtick_5">
     <g id="line2d_5">
      <g>
       <use xlink:href="#m3ef0e3f53d" x="499.439264" y="359.517187" style="stroke: #000000; stroke-width: 0.8"/>
      </g>
     </g>
     <g id="text_5">
      <!-- 09-06 18 -->
      <g transform="translate(476.958795 374.115625) scale(0.1 -0.1)">
       <defs>
        <path id="DejaVuSans-38" d="M 2034 2216 
Q 1584 2216 1326 1975 
Q 1069 1734 1069 1313 
Q 1069 891 1326 650 
Q 1584 409 2034 409 
Q 2484 409 2743 651 
Q 3003 894 3003 1313 
Q 3003 1734 2745 1975 
Q 2488 2216 2034 2216 
z
M 1403 2484 
Q 997 2584 770 2862 
Q 544 3141 544 3541 
Q 544 4100 942 4425 
Q 1341 4750 2034 4750 
Q 2731 4750 3128 4425 
Q 3525 4100 3525 3541 
Q 3525 3141 3298 2862 
Q 3072 2584 2669 2484 
Q 3125 2378 3379 2068 
Q 3634 1759 3634 1313 
Q 3634 634 3220 271 
Q 2806 -91 2034 -91 
Q 1263 -91 848 271 
Q 434 634 434 1313 
Q 434 1759 690 2068 
Q 947 2378 1403 2484 
z
M 1172 3481 
Q 1172 3119 1398 2916 
Q 1625 2713 2034 2713 
Q 2441 2713 2670 2916 
Q 2900 3119 2900 3481 
Q 2900 3844 2670 4047 
Q 2441 4250 2034 4250 
Q 1625 4250 1398 4047 
Q 1172 3844 1172 3481 
z
" transform="scale(0.015625)"/>
       </defs>
       <use xlink:href="#DejaVuSans-30"/>
       <use xlink:href="#DejaVuSans-39" x="63.623047"/>
       <use xlink:href="#DejaVuSans-2d" x="127.246094"/>
       <use xlink:href="#DejaVuSans-30" x="163.330078"/>
       <use xlink:href="#DejaVuSans-36" x="226.953125"/>
       <use xlink:href="#DejaVuSans-20" x="290.576172"/>
       <use xlink:href="#DejaVuSans-31" x="322.363281"/>
       <use xlink:href="#DejaVuSans-38" x="385.986328"/>
      </g>
     </g>
    </g>
    <g id="xtick_6">
     <g id="line2d_6">
      <g>
       <use xlink:href="#m3ef0e3f53d" x="610.163028" y="359.517187" style="stroke: #000000; stroke-width: 0.8"/>
      </g>
     </g>
     <g id="text_6">
      <!-- 09-06 21 -->
      <g transform="translate(587.68256 374.115625) scale(0.1 -0.1)">
       <use xlink:href="#DejaVuSans-30"/>
       <use xlink:href="#DejaVuSans-39" x="63.623047"/>
       <use xlink:href="#DejaVuSans-2d" x="127.246094"/>
       <use xlink:href="#DejaVuSans-30" x="163.330078"/>
       <use xlink:href="#DejaVuSans-36" x="226.953125"/>
       <use xlink:href="#DejaVuSans-20" x="290.576172"/>
       <use xlink:href="#DejaVuSans-32" x="322.363281"/>
       <use xlink:href="#DejaVuSans-31" x="385.986328"/>
      </g>
     </g>
    </g>
    <g id="xtick_7">
     <g id="line2d_7">
      <g>
       <use xlink:href="#m3ef0e3f53d" x="720.886793" y="359.517187" style="stroke: #000000; stroke-width: 0.8"/>
      </g>
     </g>
     <g id="text_7">
      <!-- 09-07 00 -->
      <g transform="translate(698.406325 374.115625) scale(0.1 -0.1)">
       <defs>
        <path id="DejaVuSans-37" d="M 525 4666 
L 3525 4666 
L 3525 4397 
L 1831 0 
L 1172 0 
L 2766 4134 
L 525 4134 
L 525 4666 
z
" transform="scale(0.015625)"/>
       </defs>
       <use xlink:href="#DejaVuSans-30"/>
       <use xlink:href="#DejaVuSans-39" x="63.623047"/>
       <use xlink:href="#DejaVuSans-2d" x="127.246094"/>
       <use xlink:href="#DejaVuSans-30" x="163.330078"/>
       <use xlink:href="#DejaVuSans-37" x="226.953125"/>
       <use xlink:href="#DejaVuSans-20" x="290.576172"/>
       <use xlink:href="#DejaVuSans-30" x="322.363281"/>
       <use xlink:href="#DejaVuSans-30" x="385.986328"/>
      </g>
     </g>
    </g>
    <g id="xtick_8">
     <g id="line2d_8">
      <g>
       <use xlink:href="#m3ef0e3f53d" x="831.610558" y="359.517187" style="stroke: #000000; stroke-width: 0.8"/>
      </g>
     </g>
     <g id="text_8">
      <!-- 09-07 03 -->
      <g transform="translate(809.13009 374.115625) scale(0.1 -0.1)">
       <defs>
        <path id="DejaVuSans-33" d="M 2597 2516 
Q 3050 2419 3304 2112 
Q 3559 1806 3559 1356 
Q 3559 666 3084 287 
Q 2609 -91 1734 -91 
Q 1441 -91 1130 -33 
Q 819 25 488 141 
L 488 750 
Q 750 597 1062 519 
Q 1375 441 1716 441 
Q 2309 441 2620 675 
Q 2931 909 2931 1356 
Q 2931 1769 2642 2001 
Q 2353 2234 1838 2234 
L 1294 2234 
L 1294 2753 
L 1863 2753 
Q 2328 2753 2575 2939 
Q 2822 3125 2822 3475 
Q 2822 3834 2567 4026 
Q 2313 4219 1838 4219 
Q 1578 4219 1281 4162 
Q 984 4106 628 3988 
L 628 4550 
Q 988 4650 1302 4700 
Q 1616 4750 1894 4750 
Q 2613 4750 3031 4423 
Q 3450 4097 3450 3541 
Q 3450 3153 3228 2886 
Q 3006 2619 2597 2516 
z
" transform="scale(0.015625)"/>
       </defs>
       <use xlink:href="#DejaVuSans-30"/>
       <use xlink:href="#DejaVuSans-39" x="63.623047"/>
       <use xlink:href="#DejaVuSans-2d" x="127.246094"/>
       <use xlink:href="#DejaVuSans-30" x="163.330078"/>
       <use xlink:href="#DejaVuSans-37" x="226.953125"/>
       <use xlink:href="#DejaVuSans-20" x="290.576172"/>
       <use xlink:href="#DejaVuSans-30" x="322.363281"/>
       <use xlink:href="#DejaVuSans-33" x="385.986328"/>
      </g>
     </g>
    </g>
    <g id="xtick_9">
     <g id="line2d_9">
      <g>
       <use xlink:href="#m3ef0e3f53d" x="942.334323" y="359.517187" style="stroke: #000000; stroke-width: 0.8"/>
      </g>
     </g>
     <g id="text_9">
      <!-- 09-07 06 -->
      <g transform="translate(919.853854 374.115625) scale(0.1 -0.1)">
       <use xlink:href="#DejaVuSans-30"/>
       <use xlink:href="#DejaVuSans-39" x="63.623047"/>
       <use xlink:href="#DejaVuSans-2d" x="127.246094"/>
       <use xlink:href="#DejaVuSans-30" x="163.330078"/>
       <use xlink:href="#DejaVuSans-37" x="226.953125"/>
       <use xlink:href="#DejaVuSans-20" x="290.576172"/>
       <use xlink:href="#DejaVuSans-30" x="322.363281"/>
       <use xlink:href="#DejaVuSans-36" x="385.986328"/>
      </g>
     </g>
    </g>
    <g id="xtick_10">
     <g id="line2d_10">
      <g>
       <use xlink:href="#m3ef0e3f53d" x="1053.058088" y="359.517187" style="stroke: #000000; stroke-width: 0.8"/>
      </g>
     </g>
     <g id="text_10">
      <!-- 09-07 09 -->
      <g transform="translate(1030.577619 374.115625) scale(0.1 -0.1)">
       <use xlink:href="#DejaVuSans-30"/>
       <use xlink:href="#DejaVuSans-39" x="63.623047"/>
       <use xlink:href="#DejaVuSans-2d" x="127.246094"/>
       <use xlink:href="#DejaVuSans-30" x="163.330078"/>
       <use xlink:href="#DejaVuSans-37" x="226.953125"/>
       <use xlink:href="#DejaVuSans-20" x="290.576172"/>
       <use xlink:href="#DejaVuSans-30" x="322.363281"/>
       <use xlink:href="#DejaVuSans-39" x="385.986328"/>
      </g>
     </g>
    </g>
    <g id="xtick_11">
     <g id="line2d_11">
      <g>
       <use xlink:href="#m3ef0e3f53d" x="1163.781853" y="359.517187" style="stroke: #000000; stroke-width: 0.8"/>
      </g>
     </g>
     <g id="text_11">
      <!-- 09-07 12 -->
      <g transform="translate(1141.301384 374.115625) scale(0.1 -0.1)">
       <use xlink:href="#DejaVuSans-30"/>
       <use xlink:href="#DejaVuSans-39" x="63.623047"/>
       <use xlink:href="#DejaVuSans-2d" x="127.246094"/>
       <use xlink:href="#DejaVuSans-30" x="163.330078"/>
       <use xlink:href="#DejaVuSans-37" x="226.953125"/>
       <use xlink:href="#DejaVuSans-20" x="290.576172"/>
       <use xlink:href="#DejaVuSans-31" x="322.363281"/>
       <use xlink:href="#DejaVuSans-32" x="385.986328"/>
      </g>
     </g>
    </g>
    <g id="text_12">
     <!-- Time -->
     <g transform="translate(592.554688 389.313437) scale(0.12 -0.12)">
      <defs>
       <path id="DejaVuSans-54" d="M -19 4666 
L 3928 4666 
L 3928 4134 
L 2272 4134 
L 2272 0 
L 1638 0 
L 1638 4134 
L -19 4134 
L -19 4666 
z
" transform="scale(0.015625)"/>
       <path id="DejaVuSans-69" d="M 603 3500 
L 1178 3500 
L 1178 0 
L 603 0 
L 603 3500 
z
M 603 4863 
L 1178 4863 
L 1178 4134 
L 603 4134 
L 603 4863 
z
" transform="scale(0.015625)"/>
       <path id="DejaVuSans-6d" d="M 3328 2828 
Q 3544 3216 3844 3400 
Q 4144 3584 4550 3584 
Q 5097 3584 5394 3201 
Q 5691 2819 5691 2113 
L 5691 0 
L 5113 0 
L 5113 2094 
Q 5113 2597 4934 2840 
Q 4756 3084 4391 3084 
Q 3944 3084 3684 2787 
Q 3425 2491 3425 1978 
L 3425 0 
L 2847 0 
L 2847 2094 
Q 2847 2600 2669 2842 
Q 2491 3084 2119 3084 
Q 1678 3084 1418 2786 
Q 1159 2488 1159 1978 
L 1159 0 
L 581 0 
L 581 3500 
L 1159 3500 
L 1159 2956 
Q 1356 3278 1631 3431 
Q 1906 3584 2284 3584 
Q 2666 3584 2933 3390 
Q 3200 3197 3328 2828 
z
" transform="scale(0.015625)"/>
       <path id="DejaVuSans-65" d="M 3597 1894 
L 3597 1613 
L 953 1613 
Q 991 1019 1311 708 
Q 1631 397 2203 397 
Q 2534 397 2845 478 
Q 3156 559 3463 722 
L 3463 178 
Q 3153 47 2828 -22 
Q 2503 -91 2169 -91 
Q 1331 -91 842 396 
Q 353 884 353 1716 
Q 353 2575 817 3079 
Q 1281 3584 2069 3584 
Q 2775 3584 3186 3129 
Q 3597 2675 3597 1894 
z
M 3022 2063 
Q 3016 2534 2758 2815 
Q 2500 3097 2075 3097 
Q 1594 3097 1305 2825 
Q 1016 2553 972 2059 
L 3022 2063 
z
" transform="scale(0.015625)"/>
      </defs>
      <use xlink:href="#DejaVuSans-54"/>
      <use xlink:href="#DejaVuSans-69" x="57.958984"/>
      <use xlink:href="#DejaVuSans-6d" x="85.742188"/>
      <use xlink:href="#DejaVuSans-65" x="183.154297"/>
     </g>
    </g>
   </g>
   <g id="matplotlib.axis_2">
    <g id="ytick_1">
     <g id="line2d_12">
      <defs>
       <path id="mdea07720df" d="M 0 0 
L -3.5 0 
" style="stroke: #000000; stroke-width: 0.8"/>
      </defs>
      <g>
       <use xlink:href="#mdea07720df" x="49.235" y="344.397187" style="stroke: #000000; stroke-width: 0.8"/>
      </g>
     </g>
     <g id="text_13">
      <!-- 0 -->
      <g transform="translate(35.8725 348.196406) scale(0.1 -0.1)">
       <use xlink:href="#DejaVuSans-30"/>
      </g>
     </g>
    </g>
    <g id="ytick_2">
     <g id="line2d_13">
      <g>
       <use xlink:href="#mdea07720df" x="49.235" y="289.614579" style="stroke: #000000; stroke-width: 0.8"/>
      </g>
     </g>
     <g id="text_14">
      <!-- 50 -->
      <g transform="translate(29.51 293.413798) scale(0.1 -0.1)">
       <use xlink:href="#DejaVuSans-35"/>
       <use xlink:href="#DejaVuSans-30" x="63.623047"/>
      </g>
     </g>
    </g>
    <g id="ytick_3">
     <g id="line2d_14">
      <g>
       <use xlink:href="#mdea07720df" x="49.235" y="234.83197" style="stroke: #000000; stroke-width: 0.8"/>
      </g>
     </g>
     <g id="text_15">
      <!-- 100 -->
      <g transform="translate(23.1475 238.631189) scale(0.1 -0.1)">
       <use xlink:href="#DejaVuSans-31"/>
       <use xlink:href="#DejaVuSans-30" x="63.623047"/>
       <use xlink:href="#DejaVuSans-30" x="127.246094"/>
      </g>
     </g>
    </g>
    <g id="ytick_4">
     <g id="line2d_15">
      <g>
       <use xlink:href="#mdea07720df" x="49.235" y="180.049361" style="stroke: #000000; stroke-width: 0.8"/>
      </g>
     </g>
     <g id="text_16">
      <!-- 150 -->
      <g transform="translate(23.1475 183.84858) scale(0.1 -0.1)">
       <use xlink:href="#DejaVuSans-31"/>
       <use xlink:href="#DejaVuSans-35" x="63.623047"/>
       <use xlink:href="#DejaVuSans-30" x="127.246094"/>
      </g>
     </g>
    </g>
    <g id="ytick_5">
     <g id="line2d_16">
      <g>
       <use xlink:href="#mdea07720df" x="49.235" y="125.266753" style="stroke: #000000; stroke-width: 0.8"/>
      </g>
     </g>
     <g id="text_17">
      <!-- 200 -->
      <g transform="translate(23.1475 129.065971) scale(0.1 -0.1)">
       <use xlink:href="#DejaVuSans-32"/>
       <use xlink:href="#DejaVuSans-30" x="63.623047"/>
       <use xlink:href="#DejaVuSans-30" x="127.246094"/>
      </g>
     </g>
    </g>
    <g id="ytick_6">
     <g id="line2d_17">
      <g>
       <use xlink:href="#mdea07720df" x="49.235" y="70.484144" style="stroke: #000000; stroke-width: 0.8"/>
      </g>
     </g>
     <g id="text_18">
      <!-- 250 -->
      <g transform="translate(23.1475 74.283363) scale(0.1 -0.1)">
       <use xlink:href="#DejaVuSans-32"/>
       <use xlink:href="#DejaVuSans-35" x="63.623047"/>
       <use xlink:href="#DejaVuSans-30" x="127.246094"/>
      </g>
     </g>
    </g>
    <g id="text_19">
     <!-- Pellet_Count -->
     <g transform="translate(16.318125 230.485312) rotate(-90) scale(0.12 -0.12)">
      <defs>
       <path id="DejaVuSans-50" d="M 1259 4147 
L 1259 2394 
L 2053 2394 
Q 2494 2394 2734 2622 
Q 2975 2850 2975 3272 
Q 2975 3691 2734 3919 
Q 2494 4147 2053 4147 
L 1259 4147 
z
M 628 4666 
L 2053 4666 
Q 2838 4666 3239 4311 
Q 3641 3956 3641 3272 
Q 3641 2581 3239 2228 
Q 2838 1875 2053 1875 
L 1259 1875 
L 1259 0 
L 628 0 
L 628 4666 
z
" transform="scale(0.015625)"/>
       <path id="DejaVuSans-6c" d="M 603 4863 
L 1178 4863 
L 1178 0 
L 603 0 
L 603 4863 
z
" transform="scale(0.015625)"/>
       <path id="DejaVuSans-74" d="M 1172 4494 
L 1172 3500 
L 2356 3500 
L 2356 3053 
L 1172 3053 
L 1172 1153 
Q 1172 725 1289 603 
Q 1406 481 1766 481 
L 2356 481 
L 2356 0 
L 1766 0 
Q 1100 0 847 248 
Q 594 497 594 1153 
L 594 3053 
L 172 3053 
L 172 3500 
L 594 3500 
L 594 4494 
L 1172 4494 
z
" transform="scale(0.015625)"/>
       <path id="DejaVuSans-5f" d="M 3263 -1063 
L 3263 -1509 
L -63 -1509 
L -63 -1063 
L 3263 -1063 
z
" transform="scale(0.015625)"/>
       <path id="DejaVuSans-43" d="M 4122 4306 
L 4122 3641 
Q 3803 3938 3442 4084 
Q 3081 4231 2675 4231 
Q 1875 4231 1450 3742 
Q 1025 3253 1025 2328 
Q 1025 1406 1450 917 
Q 1875 428 2675 428 
Q 3081 428 3442 575 
Q 3803 722 4122 1019 
L 4122 359 
Q 3791 134 3420 21 
Q 3050 -91 2638 -91 
Q 1578 -91 968 557 
Q 359 1206 359 2328 
Q 359 3453 968 4101 
Q 1578 4750 2638 4750 
Q 3056 4750 3426 4639 
Q 3797 4528 4122 4306 
z
" transform="scale(0.015625)"/>
       <path id="DejaVuSans-6f" d="M 1959 3097 
Q 1497 3097 1228 2736 
Q 959 2375 959 1747 
Q 959 1119 1226 758 
Q 1494 397 1959 397 
Q 2419 397 2687 759 
Q 2956 1122 2956 1747 
Q 2956 2369 2687 2733 
Q 2419 3097 1959 3097 
z
M 1959 3584 
Q 2709 3584 3137 3096 
Q 3566 2609 3566 1747 
Q 3566 888 3137 398 
Q 2709 -91 1959 -91 
Q 1206 -91 779 398 
Q 353 888 353 1747 
Q 353 2609 779 3096 
Q 1206 3584 1959 3584 
z
" transform="scale(0.015625)"/>
       <path id="DejaVuSans-75" d="M 544 1381 
L 544 3500 
L 1119 3500 
L 1119 1403 
Q 1119 906 1312 657 
Q 1506 409 1894 409 
Q 2359 409 2629 706 
Q 2900 1003 2900 1516 
L 2900 3500 
L 3475 3500 
L 3475 0 
L 2900 0 
L 2900 538 
Q 2691 219 2414 64 
Q 2138 -91 1772 -91 
Q 1169 -91 856 284 
Q 544 659 544 1381 
z
M 1991 3584 
L 1991 3584 
z
" transform="scale(0.015625)"/>
       <path id="DejaVuSans-6e" d="M 3513 2113 
L 3513 0 
L 2938 0 
L 2938 2094 
Q 2938 2591 2744 2837 
Q 2550 3084 2163 3084 
Q 1697 3084 1428 2787 
Q 1159 2491 1159 1978 
L 1159 0 
L 581 0 
L 581 3500 
L 1159 3500 
L 1159 2956 
Q 1366 3272 1645 3428 
Q 1925 3584 2291 3584 
Q 2894 3584 3203 3211 
Q 3513 2838 3513 2113 
z
" transform="scale(0.015625)"/>
      </defs>
      <use xlink:href="#DejaVuSans-50"/>
      <use xlink:href="#DejaVuSans-65" x="56.677734"/>
      <use xlink:href="#DejaVuSans-6c" x="118.201172"/>
      <use xlink:href="#DejaVuSans-6c" x="145.984375"/>
      <use xlink:href="#DejaVuSans-65" x="173.767578"/>
      <use xlink:href="#DejaVuSans-74" x="235.291016"/>
      <use xlink:href="#DejaVuSans-5f" x="274.5"/>
      <use xlink:href="#DejaVuSans-43" x="324.5"/>
      <use xlink:href="#DejaVuSans-6f" x="394.324219"/>
      <use xlink:href="#DejaVuSans-75" x="455.505859"/>
      <use xlink:href="#DejaVuSans-6e" x="518.884766"/>
      <use xlink:href="#DejaVuSans-74" x="582.263672"/>
     </g>
    </g>
   </g>
   <g id="line2d_18">
    <path d="M 99.962273 344.397187 
L 106.318637 344.397187 
L 116.376046 343.301535 
L 129.078522 343.301535 
L 134.686476 342.205883 
L 139.966359 342.205883 
L 141.545198 341.110231 
L 158.440824 340.014579 
L 160.819335 340.014579 
L 161.352449 338.918927 
L 168.139406 338.918927 
L 173.357776 337.823274 
L 176.064357 337.823274 
L 177.47916 336.727622 
L 190.632734 336.727622 
L 193.964699 335.63197 
L 198.239866 335.63197 
L 198.701215 334.536318 
L 200.07501 334.536318 
L 200.177532 333.440666 
L 202.515034 333.440666 
L 202.586799 332.345014 
L 204.104125 332.345014 
L 204.739761 331.249361 
L 206.103304 331.249361 
L 206.369861 330.153709 
L 210.296454 330.153709 
L 210.347715 329.058057 
L 211.393439 329.058057 
L 211.526718 327.962405 
L 212.849252 327.962405 
L 213.228583 326.866753 
L 215.91466 326.866753 
L 216.560549 325.771101 
L 220.241088 325.771101 
L 220.251341 324.675448 
L 220.62042 324.675448 
L 220.722942 323.579796 
L 224.321464 323.579796 
L 224.352221 322.484144 
L 227.88923 322.484144 
L 228.084022 321.388492 
L 229.304034 321.388492 
L 229.447564 320.29284 
L 234.799213 320.29284 
L 234.850474 319.197187 
L 236.337043 319.197187 
L 236.398556 318.101535 
L 242.416598 318.101535 
L 242.457607 317.005883 
L 244.05695 317.005883 
L 244.077455 315.910231 
L 244.47729 315.910231 
L 244.508047 314.814579 
L 245.953607 314.814579 
L 246.025373 313.718927 
L 248.055308 313.718927 
L 248.291109 312.623274 
L 250.003226 312.623274 
L 250.054487 311.527622 
L 250.30054 311.527622 
L 250.423567 310.43197 
L 256.175051 310.43197 
L 256.195555 309.336318 
L 257.917925 309.336318 
L 257.928177 308.240666 
L 260.470723 308.240666 
L 260.491227 307.145014 
L 260.82955 307.145014 
L 260.850054 306.049361 
L 261.24989 306.049361 
L 261.270395 304.953709 
L 263.279826 304.953709 
L 263.310583 303.858057 
L 263.638653 303.858057 
L 263.720671 302.762405 
L 265.309762 302.762405 
L 265.330266 301.666753 
L 266.375991 301.666753 
L 266.509269 300.571101 
L 266.775826 300.571101 
L 266.796331 299.475448 
L 275.13137 299.475448 
L 275.172379 298.379796 
L 275.418431 298.379796 
L 275.428684 297.284144 
L 282.964051 297.284144 
L 282.984555 296.188492 
L 283.394643 296.188492 
L 283.415148 295.09284 
L 283.661201 295.09284 
L 283.691957 293.997187 
L 284.050784 293.997187 
L 284.071289 292.901535 
L 284.327594 292.901535 
L 284.337846 291.805883 
L 284.522385 291.805883 
L 284.583899 290.710231 
L 284.747934 290.710231 
L 284.77869 289.614579 
L 287.956873 289.614579 
L 287.977377 288.518927 
L 292.92919 288.518927 
L 293.267512 287.423274 
L 294.764334 287.423274 
L 294.784838 286.327622 
L 297.265871 286.327622 
L 297.286375 285.23197 
L 297.583689 285.23197 
L 297.604193 284.136318 
L 298.014281 284.136318 
L 298.034786 283.040666 
L 298.424369 283.040666 
L 298.434621 281.945014 
L 306.205789 281.945014 
L 306.226294 280.849361 
L 306.421086 280.849361 
L 306.44159 279.753709 
L 306.9542 279.753709 
L 306.995209 278.658057 
L 312.326353 278.658057 
L 312.346857 277.562405 
L 312.562154 277.562405 
L 312.582658 276.466753 
L 312.849215 276.466753 
L 312.859467 275.371101 
L 313.577121 275.371101 
L 313.587374 274.275448 
L 313.761661 274.275448 
L 313.771913 273.179796 
L 316.211937 273.179796 
L 316.242694 272.084144 
L 322.250483 272.084144 
L 322.28124 270.988492 
L 322.968137 270.988492 
L 323.091163 269.89284 
L 323.398729 269.89284 
L 323.419234 268.797187 
L 323.706295 268.797187 
L 323.7268 267.701535 
L 326.115563 267.701535 
L 326.146319 266.605883 
L 329.529545 266.605883 
L 330.318965 265.510231 
L 337.300713 265.510231 
L 337.33147 264.414579 
L 337.598027 264.414579 
L 337.618532 263.318927 
L 337.885089 263.318927 
L 337.905593 262.223274 
L 343.072702 262.223274 
L 343.093207 261.127622 
L 346.681477 261.127622 
L 346.712233 260.03197 
L 352.904562 260.03197 
L 352.935319 258.936318 
L 353.273642 258.936318 
L 353.294146 257.840666 
L 353.529947 257.840666 
L 353.550451 256.745014 
L 353.796504 256.745014 
L 353.817008 255.649361 
L 354.073313 255.649361 
L 354.093818 254.553709 
L 354.278357 254.553709 
L 354.288609 253.458057 
L 354.462897 253.458057 
L 354.483401 252.362405 
L 361.178088 252.362405 
L 364.366523 251.266753 
L 365.258464 251.266753 
L 365.360986 249.075448 
L 365.812083 249.075448 
L 365.832587 247.979796 
L 366.099144 247.979796 
L 366.109397 246.884144 
L 366.324693 246.884144 
L 366.334945 245.788492 
L 366.601502 245.788492 
L 366.622007 244.69284 
L 385.065715 244.69284 
L 385.075967 243.597187 
L 389.853493 243.597187 
L 392.826631 242.501535 
L 393.164954 242.501535 
L 393.185458 241.405883 
L 393.369998 241.405883 
L 393.390502 240.310231 
L 396.250866 240.310231 
L 396.322631 239.214579 
L 396.527675 239.214579 
L 396.609693 238.118927 
L 398.106514 237.023274 
L 401.592262 237.023274 
L 401.602515 235.927622 
L 401.879324 235.927622 
L 401.889576 234.83197 
L 418.385367 234.83197 
L 418.416123 233.736318 
L 418.692933 233.736318 
L 418.77495 231.545014 
L 419.902692 231.545014 
L 419.912945 230.449361 
L 420.128241 230.449361 
L 420.138493 229.353709 
L 427.212511 229.353709 
L 427.222764 228.258057 
L 431.559444 228.258057 
L 431.579949 227.162405 
L 432.697439 227.162405 
L 432.779456 226.066753 
L 432.943491 226.066753 
L 432.974248 224.971101 
L 433.353579 224.971101 
L 433.374084 223.875448 
L 433.568876 223.875448 
L 433.58938 222.779796 
L 433.91745 222.779796 
L 433.937955 221.684144 
L 438.869263 221.684144 
L 438.889768 220.588492 
L 439.166577 220.588492 
L 439.176829 219.49284 
L 439.894483 219.49284 
L 439.92524 218.397187 
L 440.25331 218.397187 
L 440.263562 217.301535 
L 440.489111 217.301535 
L 440.509615 216.205883 
L 450.884842 216.205883 
L 450.915599 215.110231 
L 451.448713 215.110231 
L 451.458965 214.014579 
L 451.858801 214.014579 
L 451.879306 212.918927 
L 452.176619 212.918927 
L 452.238133 211.823274 
L 452.443177 211.823274 
L 452.463681 210.727622 
L 452.678977 210.727622 
L 452.699482 209.63197 
L 456.328761 209.63197 
L 456.359517 208.536318 
L 459.107107 208.536318 
L 459.117359 207.440666 
L 459.896526 207.440666 
L 459.906779 206.345014 
L 463.12597 206.345014 
L 463.136222 205.249361 
L 463.402779 205.249361 
L 463.423283 204.153709 
L 463.63858 204.153709 
L 463.648832 203.058057 
L 463.843624 203.058057 
L 463.853876 201.962405 
L 464.079424 201.962405 
L 464.15119 200.866753 
L 469.359307 200.866753 
L 469.431073 198.675448 
L 469.636117 198.675448 
L 469.646369 197.579796 
L 469.88217 197.579796 
L 469.902674 196.484144 
L 470.11797 196.484144 
L 470.138475 195.388492 
L 470.384527 195.388492 
L 470.405032 194.29284 
L 478.247965 194.29284 
L 478.309478 192.101535 
L 478.340235 192.101535 
L 478.381244 191.005883 
L 486.172916 191.005883 
L 486.193421 189.910231 
L 491.586078 189.910231 
L 491.606582 188.814579 
L 491.852635 188.814579 
L 491.975662 187.718927 
L 491.996166 187.718927 
L 494.712999 186.623274 
L 494.733504 185.527622 
L 494.989809 185.527622 
L 495.010313 184.43197 
L 500.085152 184.43197 
L 500.710536 183.336318 
L 500.987346 183.336318 
L 501.00785 182.240666 
L 501.294912 182.240666 
L 501.305164 181.145014 
L 505.447053 181.145014 
L 505.467557 180.049361 
L 505.846889 180.049361 
L 505.867393 178.953709 
L 506.072437 178.953709 
L 506.154455 176.762405 
L 511.013998 176.762405 
L 511.700895 175.666753 
L 511.987957 175.666753 
L 511.998209 174.571101 
L 512.305775 174.571101 
L 512.316027 173.475448 
L 512.592837 173.475448 
L 512.603089 172.379796 
L 515.30967 172.379796 
L 515.330174 171.284144 
L 524.147067 171.284144 
L 524.157319 170.188492 
L 524.690433 170.188492 
L 524.72119 169.09284 
L 524.977495 169.09284 
L 524.987747 167.997187 
L 539.453602 167.997187 
L 539.484359 166.901535 
L 540.140499 166.901535 
L 540.161004 165.805883 
L 541.514294 165.805883 
L 541.534799 164.710231 
L 549.18294 164.710231 
L 549.213697 163.614579 
L 555.047199 163.614579 
L 555.057451 162.518927 
L 555.303504 162.518927 
L 555.324008 161.423274 
L 555.652079 161.423274 
L 555.754601 160.327622 
L 555.928888 160.327622 
L 555.949392 159.23197 
L 556.133932 159.23197 
L 556.154436 158.136318 
L 556.379985 158.136318 
L 556.390237 157.040666 
L 556.646542 157.040666 
L 556.656794 155.945014 
L 567.862449 155.945014 
L 567.872702 154.849361 
L 568.354555 154.849361 
L 583.374029 153.753709 
L 583.486803 151.562405 
L 583.825125 151.562405 
L 583.907143 149.371101 
L 594.969267 149.371101 
L 595.010276 148.275448 
L 605.918617 148.275448 
L 605.92887 147.179796 
L 606.25694 147.179796 
L 606.277444 146.084144 
L 606.626019 146.084144 
L 606.636271 144.988492 
L 606.872072 144.988492 
L 606.892577 143.89284 
L 607.159134 143.89284 
L 607.179638 142.797187 
L 608.91226 142.797187 
L 703.663097 141.701535 
L 706.574722 140.605883 
L 708.102299 140.605883 
L 708.133056 139.510231 
L 715.832459 139.510231 
L 715.873467 138.414579 
L 716.181033 138.414579 
L 716.252799 136.223274 
L 716.734652 136.223274 
L 716.744904 135.127622 
L 745.440813 135.127622 
L 745.461318 134.03197 
L 745.994432 134.03197 
L 746.014937 132.936318 
L 746.384016 132.936318 
L 746.414773 131.840666 
L 746.671078 131.840666 
L 746.68133 130.745014 
L 746.865869 130.745014 
L 746.886374 129.649361 
L 747.152931 129.649361 
L 747.173435 128.553709 
L 747.439993 128.553709 
L 747.450245 127.458057 
L 817.821349 127.458057 
L 817.841853 126.362405 
L 818.10841 126.362405 
L 818.128915 125.266753 
L 818.333959 125.266753 
L 818.344211 124.171101 
L 821.409619 124.171101 
L 821.88122 123.075448 
L 822.147777 123.075448 
L 822.168282 121.979796 
L 838.130958 121.979796 
L 838.14121 120.884144 
L 838.397515 120.884144 
L 838.428272 119.788492 
L 838.592307 119.788492 
L 838.74609 118.69284 
L 838.971638 118.69284 
L 838.992143 117.597187 
L 917.944338 117.597187 
L 917.985347 116.501535 
L 918.200643 116.501535 
L 918.210896 115.405883 
L 918.682497 115.405883 
L 925.910298 114.310231 
L 925.930803 113.214579 
L 960.870302 113.214579 
L 960.880554 112.118927 
L 961.054841 112.118927 
L 961.075346 111.023274 
L 961.721234 111.023274 
L 961.731487 109.927622 
L 961.916026 109.927622 
L 961.926278 108.83197 
L 967.688015 108.83197 
L 982.933037 107.736318 
L 985.444826 107.736318 
L 985.465331 106.640666 
L 988.787044 106.640666 
L 988.807548 105.545014 
L 1007.415292 105.545014 
L 1007.435796 104.449361 
L 1007.610084 104.449361 
L 1007.620336 103.353709 
L 1007.774119 103.353709 
L 1007.784371 102.258057 
L 1007.999667 102.258057 
L 1008.091937 100.066753 
L 1018.949017 100.066753 
L 1018.969522 98.971101 
L 1019.205322 98.971101 
L 1019.215574 97.875448 
L 1022.116947 97.875448 
L 1022.137452 96.779796 
L 1022.363 96.779796 
L 1022.373252 95.684144 
L 1022.588548 95.684144 
L 1022.598801 94.588492 
L 1022.814097 94.588492 
L 1022.834601 93.49284 
L 1023.06015 93.49284 
L 1023.070402 92.397187 
L 1023.326707 92.397187 
L 1023.336959 91.301535 
L 1033.558403 91.301535 
L 1033.568655 90.205883 
L 1033.753195 90.205883 
L 1035.578086 89.110231 
L 1038.602486 89.110231 
L 1038.684503 86.918927 
L 1038.930556 86.918927 
L 1038.95106 85.823274 
L 1039.125348 85.823274 
L 1039.145852 84.727622 
L 1039.309887 84.727622 
L 1039.330392 83.63197 
L 1039.525184 83.63197 
L 1039.535436 82.536318 
L 1039.750732 82.536318 
L 1039.760984 81.440666 
L 1046.681219 81.440666 
L 1051.704798 80.345014 
L 1051.725302 79.249361 
L 1051.909842 79.249361 
L 1051.930346 78.153709 
L 1052.073877 78.153709 
L 1052.094381 77.058057 
L 1052.309678 77.058057 
L 1052.31993 75.962405 
L 1052.483965 75.962405 
L 1052.545478 73.771101 
L 1057.804857 73.771101 
L 1058.830077 72.675448 
L 1059.1684 72.675448 
L 1059.178652 71.579796 
L 1059.363191 71.579796 
L 1059.373444 70.484144 
L 1059.578488 70.484144 
L 1059.598992 69.388492 
L 1059.814288 69.388492 
L 1059.834793 68.29284 
L 1059.998828 68.29284 
L 1060.039837 67.197187 
L 1064.827614 67.197187 
L 1065.41199 66.101535 
L 1072.762817 66.101535 
L 1072.77307 65.005883 
L 1072.957609 65.005883 
L 1072.978114 63.910231 
L 1073.172905 63.910231 
L 1073.183158 62.814579 
L 1073.388202 62.814579 
L 1073.398454 61.718927 
L 1079.693305 61.718927 
L 1079.888097 60.623274 
L 1080.062384 60.623274 
L 1080.072636 59.527622 
L 1083.148297 59.527622 
L 1083.158549 58.43197 
L 1083.414854 58.43197 
L 1083.435358 57.336318 
L 1083.63015 57.336318 
L 1083.640402 56.240666 
L 1083.896707 56.240666 
L 1083.906959 55.145014 
L 1091.391066 55.145014 
L 1091.41157 54.049361 
L 1091.698632 54.049361 
L 1091.719136 52.953709 
L 1092.006198 52.953709 
L 1092.026702 51.858057 
L 1092.231746 51.858057 
L 1092.241998 50.762405 
L 1092.508556 50.762405 
L 1092.539312 49.666753 
L 1092.703347 49.666753 
L 1092.7136 48.571101 
L 1093.021166 48.571101 
L 1093.031418 47.475448 
L 1103.57068 47.475448 
L 1103.66295 45.284144 
L 1103.847489 45.284144 
L 1103.857741 44.188492 
L 1104.062785 44.188492 
L 1104.093542 43.09284 
L 1104.267829 43.09284 
L 1104.278082 41.997187 
L 1104.278082 41.997187 
" clip-path="url(#pd9bc4b8ca0)" style="fill: none; stroke: #0000ff; stroke-width: 1.5; stroke-linecap: square"/>
   </g>
   <g id="patch_75">
    <path d="M 49.235 359.517187 
L 49.235 26.877187 
" style="fill: none; stroke: #000000; stroke-width: 0.8; stroke-linejoin: miter; stroke-linecap: square"/>
   </g>
   <g id="patch_76">
    <path d="M 1165.235 359.517187 
L 1165.235 26.877187 
" style="fill: none; stroke: #000000; stroke-width: 0.8; stroke-linejoin: miter; stroke-linecap: square"/>
   </g>
   <g id="patch_77">
    <path d="M 49.235 359.517187 
L 1165.235 359.517187 
" style="fill: none; stroke: #000000; stroke-width: 0.8; stroke-linejoin: miter; stroke-linecap: square"/>
   </g>
   <g id="patch_78">
    <path d="M 49.235 26.877187 
L 1165.235 26.877187 
" style="fill: none; stroke: #000000; stroke-width: 0.8; stroke-linejoin: miter; stroke-linecap: square"/>
   </g>
   <g id="text_20">
    <!-- Pellet Count and Cumulative Sum Over Time of Group ctrl Mouse M57 -->
    <g transform="translate(293.018281 20.877187) scale(0.18 -0.18)">
     <defs>
      <path id="DejaVuSans-61" d="M 2194 1759 
Q 1497 1759 1228 1600 
Q 959 1441 959 1056 
Q 959 750 1161 570 
Q 1363 391 1709 391 
Q 2188 391 2477 730 
Q 2766 1069 2766 1631 
L 2766 1759 
L 2194 1759 
z
M 3341 1997 
L 3341 0 
L 2766 0 
L 2766 531 
Q 2569 213 2275 61 
Q 1981 -91 1556 -91 
Q 1019 -91 701 211 
Q 384 513 384 1019 
Q 384 1609 779 1909 
Q 1175 2209 1959 2209 
L 2766 2209 
L 2766 2266 
Q 2766 2663 2505 2880 
Q 2244 3097 1772 3097 
Q 1472 3097 1187 3025 
Q 903 2953 641 2809 
L 641 3341 
Q 956 3463 1253 3523 
Q 1550 3584 1831 3584 
Q 2591 3584 2966 3190 
Q 3341 2797 3341 1997 
z
" transform="scale(0.015625)"/>
      <path id="DejaVuSans-64" d="M 2906 2969 
L 2906 4863 
L 3481 4863 
L 3481 0 
L 2906 0 
L 2906 525 
Q 2725 213 2448 61 
Q 2172 -91 1784 -91 
Q 1150 -91 751 415 
Q 353 922 353 1747 
Q 353 2572 751 3078 
Q 1150 3584 1784 3584 
Q 2172 3584 2448 3432 
Q 2725 3281 2906 2969 
z
M 947 1747 
Q 947 1113 1208 752 
Q 1469 391 1925 391 
Q 2381 391 2643 752 
Q 2906 1113 2906 1747 
Q 2906 2381 2643 2742 
Q 2381 3103 1925 3103 
Q 1469 3103 1208 2742 
Q 947 2381 947 1747 
z
" transform="scale(0.015625)"/>
      <path id="DejaVuSans-76" d="M 191 3500 
L 800 3500 
L 1894 563 
L 2988 3500 
L 3597 3500 
L 2284 0 
L 1503 0 
L 191 3500 
z
" transform="scale(0.015625)"/>
      <path id="DejaVuSans-53" d="M 3425 4513 
L 3425 3897 
Q 3066 4069 2747 4153 
Q 2428 4238 2131 4238 
Q 1616 4238 1336 4038 
Q 1056 3838 1056 3469 
Q 1056 3159 1242 3001 
Q 1428 2844 1947 2747 
L 2328 2669 
Q 3034 2534 3370 2195 
Q 3706 1856 3706 1288 
Q 3706 609 3251 259 
Q 2797 -91 1919 -91 
Q 1588 -91 1214 -16 
Q 841 59 441 206 
L 441 856 
Q 825 641 1194 531 
Q 1563 422 1919 422 
Q 2459 422 2753 634 
Q 3047 847 3047 1241 
Q 3047 1584 2836 1778 
Q 2625 1972 2144 2069 
L 1759 2144 
Q 1053 2284 737 2584 
Q 422 2884 422 3419 
Q 422 4038 858 4394 
Q 1294 4750 2059 4750 
Q 2388 4750 2728 4690 
Q 3069 4631 3425 4513 
z
" transform="scale(0.015625)"/>
      <path id="DejaVuSans-4f" d="M 2522 4238 
Q 1834 4238 1429 3725 
Q 1025 3213 1025 2328 
Q 1025 1447 1429 934 
Q 1834 422 2522 422 
Q 3209 422 3611 934 
Q 4013 1447 4013 2328 
Q 4013 3213 3611 3725 
Q 3209 4238 2522 4238 
z
M 2522 4750 
Q 3503 4750 4090 4092 
Q 4678 3434 4678 2328 
Q 4678 1225 4090 567 
Q 3503 -91 2522 -91 
Q 1538 -91 948 565 
Q 359 1222 359 2328 
Q 359 3434 948 4092 
Q 1538 4750 2522 4750 
z
" transform="scale(0.015625)"/>
      <path id="DejaVuSans-72" d="M 2631 2963 
Q 2534 3019 2420 3045 
Q 2306 3072 2169 3072 
Q 1681 3072 1420 2755 
Q 1159 2438 1159 1844 
L 1159 0 
L 581 0 
L 581 3500 
L 1159 3500 
L 1159 2956 
Q 1341 3275 1631 3429 
Q 1922 3584 2338 3584 
Q 2397 3584 2469 3576 
Q 2541 3569 2628 3553 
L 2631 2963 
z
" transform="scale(0.015625)"/>
      <path id="DejaVuSans-66" d="M 2375 4863 
L 2375 4384 
L 1825 4384 
Q 1516 4384 1395 4259 
Q 1275 4134 1275 3809 
L 1275 3500 
L 2222 3500 
L 2222 3053 
L 1275 3053 
L 1275 0 
L 697 0 
L 697 3053 
L 147 3053 
L 147 3500 
L 697 3500 
L 697 3744 
Q 697 4328 969 4595 
Q 1241 4863 1831 4863 
L 2375 4863 
z
" transform="scale(0.015625)"/>
      <path id="DejaVuSans-47" d="M 3809 666 
L 3809 1919 
L 2778 1919 
L 2778 2438 
L 4434 2438 
L 4434 434 
Q 4069 175 3628 42 
Q 3188 -91 2688 -91 
Q 1594 -91 976 548 
Q 359 1188 359 2328 
Q 359 3472 976 4111 
Q 1594 4750 2688 4750 
Q 3144 4750 3555 4637 
Q 3966 4525 4313 4306 
L 4313 3634 
Q 3963 3931 3569 4081 
Q 3175 4231 2741 4231 
Q 1884 4231 1454 3753 
Q 1025 3275 1025 2328 
Q 1025 1384 1454 906 
Q 1884 428 2741 428 
Q 3075 428 3337 486 
Q 3600 544 3809 666 
z
" transform="scale(0.015625)"/>
      <path id="DejaVuSans-70" d="M 1159 525 
L 1159 -1331 
L 581 -1331 
L 581 3500 
L 1159 3500 
L 1159 2969 
Q 1341 3281 1617 3432 
Q 1894 3584 2278 3584 
Q 2916 3584 3314 3078 
Q 3713 2572 3713 1747 
Q 3713 922 3314 415 
Q 2916 -91 2278 -91 
Q 1894 -91 1617 61 
Q 1341 213 1159 525 
z
M 3116 1747 
Q 3116 2381 2855 2742 
Q 2594 3103 2138 3103 
Q 1681 3103 1420 2742 
Q 1159 2381 1159 1747 
Q 1159 1113 1420 752 
Q 1681 391 2138 391 
Q 2594 391 2855 752 
Q 3116 1113 3116 1747 
z
" transform="scale(0.015625)"/>
      <path id="DejaVuSans-63" d="M 3122 3366 
L 3122 2828 
Q 2878 2963 2633 3030 
Q 2388 3097 2138 3097 
Q 1578 3097 1268 2742 
Q 959 2388 959 1747 
Q 959 1106 1268 751 
Q 1578 397 2138 397 
Q 2388 397 2633 464 
Q 2878 531 3122 666 
L 3122 134 
Q 2881 22 2623 -34 
Q 2366 -91 2075 -91 
Q 1284 -91 818 406 
Q 353 903 353 1747 
Q 353 2603 823 3093 
Q 1294 3584 2113 3584 
Q 2378 3584 2631 3529 
Q 2884 3475 3122 3366 
z
" transform="scale(0.015625)"/>
      <path id="DejaVuSans-4d" d="M 628 4666 
L 1569 4666 
L 2759 1491 
L 3956 4666 
L 4897 4666 
L 4897 0 
L 4281 0 
L 4281 4097 
L 3078 897 
L 2444 897 
L 1241 4097 
L 1241 0 
L 628 0 
L 628 4666 
z
" transform="scale(0.015625)"/>
      <path id="DejaVuSans-73" d="M 2834 3397 
L 2834 2853 
Q 2591 2978 2328 3040 
Q 2066 3103 1784 3103 
Q 1356 3103 1142 2972 
Q 928 2841 928 2578 
Q 928 2378 1081 2264 
Q 1234 2150 1697 2047 
L 1894 2003 
Q 2506 1872 2764 1633 
Q 3022 1394 3022 966 
Q 3022 478 2636 193 
Q 2250 -91 1575 -91 
Q 1294 -91 989 -36 
Q 684 19 347 128 
L 347 722 
Q 666 556 975 473 
Q 1284 391 1588 391 
Q 1994 391 2212 530 
Q 2431 669 2431 922 
Q 2431 1156 2273 1281 
Q 2116 1406 1581 1522 
L 1381 1569 
Q 847 1681 609 1914 
Q 372 2147 372 2553 
Q 372 3047 722 3315 
Q 1072 3584 1716 3584 
Q 2034 3584 2315 3537 
Q 2597 3491 2834 3397 
z
" transform="scale(0.015625)"/>
     </defs>
     <use xlink:href="#DejaVuSans-50"/>
     <use xlink:href="#DejaVuSans-65" x="56.677734"/>
     <use xlink:href="#DejaVuSans-6c" x="118.201172"/>
     <use xlink:href="#DejaVuSans-6c" x="145.984375"/>
     <use xlink:href="#DejaVuSans-65" x="173.767578"/>
     <use xlink:href="#DejaVuSans-74" x="235.291016"/>
     <use xlink:href="#DejaVuSans-20" x="274.5"/>
     <use xlink:href="#DejaVuSans-43" x="306.287109"/>
     <use xlink:href="#DejaVuSans-6f" x="376.111328"/>
     <use xlink:href="#DejaVuSans-75" x="437.292969"/>
     <use xlink:href="#DejaVuSans-6e" x="500.671875"/>
     <use xlink:href="#DejaVuSans-74" x="564.050781"/>
     <use xlink:href="#DejaVuSans-20" x="603.259766"/>
     <use xlink:href="#DejaVuSans-61" x="635.046875"/>
     <use xlink:href="#DejaVuSans-6e" x="696.326172"/>
     <use xlink:href="#DejaVuSans-64" x="759.705078"/>
     <use xlink:href="#DejaVuSans-20" x="823.181641"/>
     <use xlink:href="#DejaVuSans-43" x="854.96875"/>
     <use xlink:href="#DejaVuSans-75" x="924.792969"/>
     <use xlink:href="#DejaVuSans-6d" x="988.171875"/>
     <use xlink:href="#DejaVuSans-75" x="1085.583984"/>
     <use xlink:href="#DejaVuSans-6c" x="1148.962891"/>
     <use xlink:href="#DejaVuSans-61" x="1176.746094"/>
     <use xlink:href="#DejaVuSans-74" x="1238.025391"/>
     <use xlink:href="#DejaVuSans-69" x="1277.234375"/>
     <use xlink:href="#DejaVuSans-76" x="1305.017578"/>
     <use xlink:href="#DejaVuSans-65" x="1364.197266"/>
     <use xlink:href="#DejaVuSans-20" x="1425.720703"/>
     <use xlink:href="#DejaVuSans-53" x="1457.507812"/>
     <use xlink:href="#DejaVuSans-75" x="1520.984375"/>
     <use xlink:href="#DejaVuSans-6d" x="1584.363281"/>
     <use xlink:href="#DejaVuSans-20" x="1681.775391"/>
     <use xlink:href="#DejaVuSans-4f" x="1713.5625"/>
     <use xlink:href="#DejaVuSans-76" x="1792.273438"/>
     <use xlink:href="#DejaVuSans-65" x="1851.453125"/>
     <use xlink:href="#DejaVuSans-72" x="1912.976562"/>
     <use xlink:href="#DejaVuSans-20" x="1954.089844"/>
     <use xlink:href="#DejaVuSans-54" x="1985.876953"/>
     <use xlink:href="#DejaVuSans-69" x="2043.835938"/>
     <use xlink:href="#DejaVuSans-6d" x="2071.619141"/>
     <use xlink:href="#DejaVuSans-65" x="2169.03125"/>
     <use xlink:href="#DejaVuSans-20" x="2230.554688"/>
     <use xlink:href="#DejaVuSans-6f" x="2262.341797"/>
     <use xlink:href="#DejaVuSans-66" x="2323.523438"/>
     <use xlink:href="#DejaVuSans-20" x="2358.728516"/>
     <use xlink:href="#DejaVuSans-47" x="2390.515625"/>
     <use xlink:href="#DejaVuSans-72" x="2468.005859"/>
     <use xlink:href="#DejaVuSans-6f" x="2506.869141"/>
     <use xlink:href="#DejaVuSans-75" x="2568.050781"/>
     <use xlink:href="#DejaVuSans-70" x="2631.429688"/>
     <use xlink:href="#DejaVuSans-20" x="2694.90625"/>
     <use xlink:href="#DejaVuSans-63" x="2726.693359"/>
     <use xlink:href="#DejaVuSans-74" x="2781.673828"/>
     <use xlink:href="#DejaVuSans-72" x="2820.882812"/>
     <use xlink:href="#DejaVuSans-6c" x="2861.996094"/>
     <use xlink:href="#DejaVuSans-20" x="2889.779297"/>
     <use xlink:href="#DejaVuSans-4d" x="2921.566406"/>
     <use xlink:href="#DejaVuSans-6f" x="3007.845703"/>
     <use xlink:href="#DejaVuSans-75" x="3069.027344"/>
     <use xlink:href="#DejaVuSans-73" x="3132.40625"/>
     <use xlink:href="#DejaVuSans-65" x="3184.505859"/>
     <use xlink:href="#DejaVuSans-20" x="3246.029297"/>
     <use xlink:href="#DejaVuSans-4d" x="3277.816406"/>
     <use xlink:href="#DejaVuSans-35" x="3364.095703"/>
     <use xlink:href="#DejaVuSans-37" x="3427.71875"/>
    </g>
   </g>
   <g id="legend_1">
    <g id="patch_79">
     <path d="M 1086.550625 64.233437 
L 1158.235 64.233437 
Q 1160.235 64.233437 1160.235 62.233437 
L 1160.235 33.877187 
Q 1160.235 31.877187 1158.235 31.877187 
L 1086.550625 31.877187 
Q 1084.550625 31.877187 1084.550625 33.877187 
L 1084.550625 62.233437 
Q 1084.550625 64.233437 1086.550625 64.233437 
z
" style="fill: #ffffff; opacity: 0.8; stroke: #cccccc; stroke-linejoin: miter"/>
    </g>
    <g id="patch_80">
     <path d="M 1088.550625 43.475625 
L 1108.550625 43.475625 
L 1108.550625 36.475625 
L 1088.550625 36.475625 
z
" style="fill: #add8e6; opacity: 0.9; stroke: #add8e6; stroke-linejoin: miter"/>
    </g>
    <g id="text_21">
     <!-- Meal -->
     <g transform="translate(1116.550625 43.475625) scale(0.1 -0.1)">
      <use xlink:href="#DejaVuSans-4d"/>
      <use xlink:href="#DejaVuSans-65" x="86.279297"/>
      <use xlink:href="#DejaVuSans-61" x="147.802734"/>
      <use xlink:href="#DejaVuSans-6c" x="209.082031"/>
     </g>
    </g>
    <g id="patch_81">
     <path d="M 1088.550625 58.15375 
L 1108.550625 58.15375 
L 1108.550625 51.15375 
L 1088.550625 51.15375 
z
" style="fill: #808080; opacity: 0.5; stroke: #808080; stroke-linejoin: miter"/>
    </g>
    <g id="text_22">
     <!-- Inactive -->
     <g transform="translate(1116.550625 58.15375) scale(0.1 -0.1)">
      <defs>
       <path id="DejaVuSans-49" d="M 628 4666 
L 1259 4666 
L 1259 0 
L 628 0 
L 628 4666 
z
" transform="scale(0.015625)"/>
      </defs>
      <use xlink:href="#DejaVuSans-49"/>
      <use xlink:href="#DejaVuSans-6e" x="29.492188"/>
      <use xlink:href="#DejaVuSans-61" x="92.871094"/>
      <use xlink:href="#DejaVuSans-63" x="154.150391"/>
      <use xlink:href="#DejaVuSans-74" x="209.130859"/>
      <use xlink:href="#DejaVuSans-69" x="248.339844"/>
      <use xlink:href="#DejaVuSans-76" x="276.123047"/>
      <use xlink:href="#DejaVuSans-65" x="335.302734"/>
     </g>
    </g>
   </g>
  </g>
 </g>
 <defs>
  <clipPath id="pd9bc4b8ca0">
   <rect x="49.235" y="26.877187" width="1116" height="332.64"/>
  </clipPath>
 </defs>
</svg>
