<?xml version="1.0" encoding="utf-8" standalone="no"?>
<!DOCTYPE svg PUBLIC "-//W3C//DTD SVG 1.1//EN"
  "http://www.w3.org/Graphics/SVG/1.1/DTD/svg11.dtd">
<svg xmlns:xlink="http://www.w3.org/1999/xlink" width="1191.846284pt" height="399.009062pt" viewBox="0 0 1191.846284 399.009062" xmlns="http://www.w3.org/2000/svg" version="1.1">
 <metadata>
  <rdf:RDF xmlns:dc="http://purl.org/dc/elements/1.1/" xmlns:cc="http://creativecommons.org/ns#" xmlns:rdf="http://www.w3.org/1999/02/22-rdf-syntax-ns#">
   <cc:Work>
    <dc:type rdf:resource="http://purl.org/dc/dcmitype/StillImage"/>
    <dc:date>2025-10-01T20:29:58.016896</dc:date>
    <dc:format>image/svg+xml</dc:format>
    <dc:creator>
     <cc:Agent>
      <dc:title>Matplotlib v3.8.4, https://matplotlib.org/</dc:title>
     </cc:Agent>
    </dc:creator>
   </cc:Work>
  </rdf:RDF>
 </metadata>
 <defs>
  <style type="text/css">*{stroke-linejoin: round; stroke-linecap: butt}</style>
 </defs>
 <g id="figure_1">
  <g id="patch_1">
   <path d="M 0 399.009062 
L 1191.846284 399.009062 
L 1191.846284 0 
L 0 0 
z
" style="fill: #ffffff"/>
  </g>
  <g id="axes_1">
   <g id="patch_2">
    <path d="M 49.235 359.517187 
L 1165.235 359.517187 
L 1165.235 26.877187 
L 49.235 26.877187 
z
" style="fill: #ffffff"/>
   </g>
   <g id="patch_3">
    <path d="M 224.264008 359.517187 
L 224.264008 26.877187 
L 213.373056 26.877187 
L 213.373056 359.517187 
z
" clip-path="url(#pbbbe636ceb)" style="fill: #add8e6; stroke: #add8e6; stroke-linejoin: miter"/>
   </g>
   <g id="patch_4">
    <path d="M 253.054214 359.517187 
L 253.054214 26.877187 
L 253.194624 26.877187 
L 253.194624 359.517187 
z
" clip-path="url(#pbbbe636ceb)" style="fill: #add8e6; stroke: #add8e6; stroke-linejoin: miter"/>
   </g>
   <g id="patch_5">
    <path d="M 295.712476 359.517187 
L 295.712476 26.877187 
L 262.720137 26.877187 
L 262.720137 359.517187 
z
" clip-path="url(#pbbbe636ceb)" style="fill: #add8e6; stroke: #add8e6; stroke-linejoin: miter"/>
   </g>
   <g id="patch_6">
    <path d="M 320.040078 359.517187 
L 320.040078 26.877187 
L 289.455062 26.877187 
L 289.455062 359.517187 
z
" clip-path="url(#pbbbe636ceb)" style="fill: #add8e6; stroke: #add8e6; stroke-linejoin: miter"/>
   </g>
   <g id="patch_7">
    <path d="M 354.26762 359.517187 
L 354.26762 26.877187 
L 318.957494 26.877187 
L 318.957494 359.517187 
z
" clip-path="url(#pbbbe636ceb)" style="fill: #add8e6; stroke: #add8e6; stroke-linejoin: miter"/>
   </g>
   <g id="patch_8">
    <path d="M 331.510985 359.517187 
L 331.510985 26.877187 
L 325.585265 26.877187 
L 325.585265 359.517187 
z
" clip-path="url(#pbbbe636ceb)" style="fill: #add8e6; stroke: #add8e6; stroke-linejoin: miter"/>
   </g>
   <g id="patch_9">
    <path d="M 377.17077 359.517187 
L 377.17077 26.877187 
L 346.050568 26.877187 
L 346.050568 359.517187 
z
" clip-path="url(#pbbbe636ceb)" style="fill: #add8e6; stroke: #add8e6; stroke-linejoin: miter"/>
   </g>
   <g id="patch_10">
    <path d="M 414.135295 359.517187 
L 414.135295 26.877187 
L 382.313041 26.877187 
L 382.313041 359.517187 
z
" clip-path="url(#pbbbe636ceb)" style="fill: #add8e6; stroke: #add8e6; stroke-linejoin: miter"/>
   </g>
   <g id="patch_11">
    <path d="M 428.125446 359.517187 
L 428.125446 26.877187 
L 396.378485 26.877187 
L 396.378485 359.517187 
z
" clip-path="url(#pbbbe636ceb)" style="fill: #add8e6; stroke: #add8e6; stroke-linejoin: miter"/>
   </g>
   <g id="patch_12">
    <path d="M 454.701647 359.517187 
L 454.701647 26.877187 
L 424.955024 26.877187 
L 424.955024 359.517187 
z
" clip-path="url(#pbbbe636ceb)" style="fill: #add8e6; stroke: #add8e6; stroke-linejoin: miter"/>
   </g>
   <g id="patch_13">
    <path d="M 523.533194 359.517187 
L 523.533194 26.877187 
L 491.702801 26.877187 
L 491.702801 359.517187 
z
" clip-path="url(#pbbbe636ceb)" style="fill: #add8e6; stroke: #add8e6; stroke-linejoin: miter"/>
   </g>
   <g id="patch_14">
    <path d="M 503.045507 359.517187 
L 503.045507 26.877187 
L 503.517611 26.877187 
L 503.517611 359.517187 
z
" clip-path="url(#pbbbe636ceb)" style="fill: #add8e6; stroke: #add8e6; stroke-linejoin: miter"/>
   </g>
   <g id="patch_15">
    <path d="M 505.707197 359.517187 
L 505.707197 26.877187 
L 505.973773 26.877187 
L 505.973773 359.517187 
z
" clip-path="url(#pbbbe636ceb)" style="fill: #add8e6; stroke: #add8e6; stroke-linejoin: miter"/>
   </g>
   <g id="patch_16">
    <path d="M 516.944087 359.517187 
L 516.944087 26.877187 
L 510.617486 26.877187 
L 510.617486 359.517187 
z
" clip-path="url(#pbbbe636ceb)" style="fill: #add8e6; stroke: #add8e6; stroke-linejoin: miter"/>
   </g>
   <g id="patch_17">
    <path d="M 549.315772 359.517187 
L 549.315772 26.877187 
L 528.53709 26.877187 
L 528.53709 359.517187 
z
" clip-path="url(#pbbbe636ceb)" style="fill: #add8e6; stroke: #add8e6; stroke-linejoin: miter"/>
   </g>
   <g id="patch_18">
    <path d="M 529.462983 359.517187 
L 529.462983 26.877187 
L 529.57287 26.877187 
L 529.57287 359.517187 
z
" clip-path="url(#pbbbe636ceb)" style="fill: #add8e6; stroke: #add8e6; stroke-linejoin: miter"/>
   </g>
   <g id="patch_19">
    <path d="M 531.257793 359.517187 
L 531.257793 26.877187 
L 531.33512 26.877187 
L 531.33512 359.517187 
z
" clip-path="url(#pbbbe636ceb)" style="fill: #add8e6; stroke: #add8e6; stroke-linejoin: miter"/>
   </g>
   <g id="patch_20">
    <path d="M 546.202327 359.517187 
L 546.202327 26.877187 
L 538.823667 26.877187 
L 538.823667 359.517187 
z
" clip-path="url(#pbbbe636ceb)" style="fill: #add8e6; stroke: #add8e6; stroke-linejoin: miter"/>
   </g>
   <g id="patch_21">
    <path d="M 565.733596 359.517187 
L 565.733596 26.877187 
L 546.973566 26.877187 
L 546.973566 359.517187 
z
" clip-path="url(#pbbbe636ceb)" style="fill: #add8e6; stroke: #add8e6; stroke-linejoin: miter"/>
   </g>
   <g id="patch_22">
    <path d="M 584.296238 359.517187 
L 584.296238 26.877187 
L 556.395297 26.877187 
L 556.395297 359.517187 
z
" clip-path="url(#pbbbe636ceb)" style="fill: #add8e6; stroke: #add8e6; stroke-linejoin: miter"/>
   </g>
   <g id="patch_23">
    <path d="M 739.815853 359.517187 
L 739.815853 26.877187 
L 739.417006 26.877187 
L 739.417006 359.517187 
z
" clip-path="url(#pbbbe636ceb)" style="fill: #add8e6; stroke: #add8e6; stroke-linejoin: miter"/>
   </g>
   <g id="patch_24">
    <path d="M 759.878239 359.517187 
L 759.878239 26.877187 
L 759.575034 26.877187 
L 759.575034 359.517187 
z
" clip-path="url(#pbbbe636ceb)" style="fill: #add8e6; stroke: #add8e6; stroke-linejoin: miter"/>
   </g>
   <g id="patch_25">
    <path d="M 861.185252 359.517187 
L 861.185252 26.877187 
L 861.561714 26.877187 
L 861.561714 359.517187 
z
" clip-path="url(#pbbbe636ceb)" style="fill: #add8e6; stroke: #add8e6; stroke-linejoin: miter"/>
   </g>
   <g id="patch_26">
    <path d="M 862.188473 359.517187 
L 862.188473 26.877187 
L 862.524236 26.877187 
L 862.524236 359.517187 
z
" clip-path="url(#pbbbe636ceb)" style="fill: #add8e6; stroke: #add8e6; stroke-linejoin: miter"/>
   </g>
   <g id="patch_27">
    <path d="M 946.328806 359.517187 
L 946.328806 26.877187 
L 947.531451 26.877187 
L 947.531451 359.517187 
z
" clip-path="url(#pbbbe636ceb)" style="fill: #add8e6; stroke: #add8e6; stroke-linejoin: miter"/>
   </g>
   <g id="patch_28">
    <path d="M 985.643677 359.517187 
L 985.643677 26.877187 
L 987.76611 26.877187 
L 987.76611 359.517187 
z
" clip-path="url(#pbbbe636ceb)" style="fill: #add8e6; stroke: #add8e6; stroke-linejoin: miter"/>
   </g>
   <g id="patch_29">
    <path d="M 1029.940058 359.517187 
L 1029.940058 26.877187 
L 1031.66975 26.877187 
L 1031.66975 359.517187 
z
" clip-path="url(#pbbbe636ceb)" style="fill: #add8e6; stroke: #add8e6; stroke-linejoin: miter"/>
   </g>
   <g id="patch_30">
    <path d="M 1042.029584 359.517187 
L 1042.029584 26.877187 
L 1042.430466 26.877187 
L 1042.430466 359.517187 
z
" clip-path="url(#pbbbe636ceb)" style="fill: #add8e6; stroke: #add8e6; stroke-linejoin: miter"/>
   </g>
   <g id="patch_31">
    <path d="M 1058.11368 359.517187 
L 1058.11368 26.877187 
L 1058.10147 26.877187 
L 1058.10147 359.517187 
z
" clip-path="url(#pbbbe636ceb)" style="fill: #add8e6; stroke: #add8e6; stroke-linejoin: miter"/>
   </g>
   <g id="patch_32">
    <path d="M 1072.976817 359.517187 
L 1072.976817 26.877187 
L 1068.656658 26.877187 
L 1068.656658 359.517187 
z
" clip-path="url(#pbbbe636ceb)" style="fill: #add8e6; stroke: #add8e6; stroke-linejoin: miter"/>
   </g>
   <g id="patch_33">
    <path d="M 1114.507727 359.517187 
L 1114.507727 26.877187 
L 1080.160124 26.877187 
L 1080.160124 359.517187 
z
" clip-path="url(#pbbbe636ceb)" style="fill: #add8e6; stroke: #add8e6; stroke-linejoin: miter"/>
   </g>
   <g id="patch_34">
    <path d="M 539.507404 359.517187 
L 539.507404 26.877187 
L 979.052535 26.877187 
L 979.052535 359.517187 
z
" clip-path="url(#pbbbe636ceb)" style="fill: #808080; opacity: 0.4; stroke: #808080; stroke-linejoin: miter"/>
   </g>
   <g id="matplotlib.axis_1">
    <g id="xtick_1">
     <g id="line2d_1">
      <defs>
       <path id="mc7bf4e0b79" d="M 0 0 
L 0 3.5 
" style="stroke: #000000; stroke-width: 0.8"/>
      </defs>
      <g>
       <use xlink:href="#mc7bf4e0b79" x="63.302988" y="359.517187" style="stroke: #000000; stroke-width: 0.8"/>
      </g>
     </g>
     <g id="text_1">
      <!-- 09-06 06 -->
      <g transform="translate(40.822519 374.115625) scale(0.1 -0.1)">
       <defs>
        <path id="DejaVuSans-30" d="M 2034 4250 
Q 1547 4250 1301 3770 
Q 1056 3291 1056 2328 
Q 1056 1369 1301 889 
Q 1547 409 2034 409 
Q 2525 409 2770 889 
Q 3016 1369 3016 2328 
Q 3016 3291 2770 3770 
Q 2525 4250 2034 4250 
z
M 2034 4750 
Q 2819 4750 3233 4129 
Q 3647 3509 3647 2328 
Q 3647 1150 3233 529 
Q 2819 -91 2034 -91 
Q 1250 -91 836 529 
Q 422 1150 422 2328 
Q 422 3509 836 4129 
Q 1250 4750 2034 4750 
z
" transform="scale(0.015625)"/>
        <path id="DejaVuSans-39" d="M 703 97 
L 703 672 
Q 941 559 1184 500 
Q 1428 441 1663 441 
Q 2288 441 2617 861 
Q 2947 1281 2994 2138 
Q 2813 1869 2534 1725 
Q 2256 1581 1919 1581 
Q 1219 1581 811 2004 
Q 403 2428 403 3163 
Q 403 3881 828 4315 
Q 1253 4750 1959 4750 
Q 2769 4750 3195 4129 
Q 3622 3509 3622 2328 
Q 3622 1225 3098 567 
Q 2575 -91 1691 -91 
Q 1453 -91 1209 -44 
Q 966 3 703 97 
z
M 1959 2075 
Q 2384 2075 2632 2365 
Q 2881 2656 2881 3163 
Q 2881 3666 2632 3958 
Q 2384 4250 1959 4250 
Q 1534 4250 1286 3958 
Q 1038 3666 1038 3163 
Q 1038 2656 1286 2365 
Q 1534 2075 1959 2075 
z
" transform="scale(0.015625)"/>
        <path id="DejaVuSans-2d" d="M 313 2009 
L 1997 2009 
L 1997 1497 
L 313 1497 
L 313 2009 
z
" transform="scale(0.015625)"/>
        <path id="DejaVuSans-36" d="M 2113 2584 
Q 1688 2584 1439 2293 
Q 1191 2003 1191 1497 
Q 1191 994 1439 701 
Q 1688 409 2113 409 
Q 2538 409 2786 701 
Q 3034 994 3034 1497 
Q 3034 2003 2786 2293 
Q 2538 2584 2113 2584 
z
M 3366 4563 
L 3366 3988 
Q 3128 4100 2886 4159 
Q 2644 4219 2406 4219 
Q 1781 4219 1451 3797 
Q 1122 3375 1075 2522 
Q 1259 2794 1537 2939 
Q 1816 3084 2150 3084 
Q 2853 3084 3261 2657 
Q 3669 2231 3669 1497 
Q 3669 778 3244 343 
Q 2819 -91 2113 -91 
Q 1303 -91 875 529 
Q 447 1150 447 2328 
Q 447 3434 972 4092 
Q 1497 4750 2381 4750 
Q 2619 4750 2861 4703 
Q 3103 4656 3366 4563 
z
" transform="scale(0.015625)"/>
        <path id="DejaVuSans-20" transform="scale(0.015625)"/>
       </defs>
       <use xlink:href="#DejaVuSans-30"/>
       <use xlink:href="#DejaVuSans-39" x="63.623047"/>
       <use xlink:href="#DejaVuSans-2d" x="127.246094"/>
       <use xlink:href="#DejaVuSans-30" x="163.330078"/>
       <use xlink:href="#DejaVuSans-36" x="226.953125"/>
       <use xlink:href="#DejaVuSans-20" x="290.576172"/>
       <use xlink:href="#DejaVuSans-30" x="322.363281"/>
       <use xlink:href="#DejaVuSans-36" x="385.986328"/>
      </g>
     </g>
    </g>
    <g id="xtick_2">
     <g id="line2d_2">
      <g>
       <use xlink:href="#mc7bf4e0b79" x="173.189271" y="359.517187" style="stroke: #000000; stroke-width: 0.8"/>
      </g>
     </g>
     <g id="text_2">
      <!-- 09-06 09 -->
      <g transform="translate(150.708802 374.115625) scale(0.1 -0.1)">
       <use xlink:href="#DejaVuSans-30"/>
       <use xlink:href="#DejaVuSans-39" x="63.623047"/>
       <use xlink:href="#DejaVuSans-2d" x="127.246094"/>
       <use xlink:href="#DejaVuSans-30" x="163.330078"/>
       <use xlink:href="#DejaVuSans-36" x="226.953125"/>
       <use xlink:href="#DejaVuSans-20" x="290.576172"/>
       <use xlink:href="#DejaVuSans-30" x="322.363281"/>
       <use xlink:href="#DejaVuSans-39" x="385.986328"/>
      </g>
     </g>
    </g>
    <g id="xtick_3">
     <g id="line2d_3">
      <g>
       <use xlink:href="#mc7bf4e0b79" x="283.075553" y="359.517187" style="stroke: #000000; stroke-width: 0.8"/>
      </g>
     </g>
     <g id="text_3">
      <!-- 09-06 12 -->
      <g transform="translate(260.595085 374.115625) scale(0.1 -0.1)">
       <defs>
        <path id="DejaVuSans-31" d="M 794 531 
L 1825 531 
L 1825 4091 
L 703 3866 
L 703 4441 
L 1819 4666 
L 2450 4666 
L 2450 531 
L 3481 531 
L 3481 0 
L 794 0 
L 794 531 
z
" transform="scale(0.015625)"/>
        <path id="DejaVuSans-32" d="M 1228 531 
L 3431 531 
L 3431 0 
L 469 0 
L 469 531 
Q 828 903 1448 1529 
Q 2069 2156 2228 2338 
Q 2531 2678 2651 2914 
Q 2772 3150 2772 3378 
Q 2772 3750 2511 3984 
Q 2250 4219 1831 4219 
Q 1534 4219 1204 4116 
Q 875 4013 500 3803 
L 500 4441 
Q 881 4594 1212 4672 
Q 1544 4750 1819 4750 
Q 2544 4750 2975 4387 
Q 3406 4025 3406 3419 
Q 3406 3131 3298 2873 
Q 3191 2616 2906 2266 
Q 2828 2175 2409 1742 
Q 1991 1309 1228 531 
z
" transform="scale(0.015625)"/>
       </defs>
       <use xlink:href="#DejaVuSans-30"/>
       <use xlink:href="#DejaVuSans-39" x="63.623047"/>
       <use xlink:href="#DejaVuSans-2d" x="127.246094"/>
       <use xlink:href="#DejaVuSans-30" x="163.330078"/>
       <use xlink:href="#DejaVuSans-36" x="226.953125"/>
       <use xlink:href="#DejaVuSans-20" x="290.576172"/>
       <use xlink:href="#DejaVuSans-31" x="322.363281"/>
       <use xlink:href="#DejaVuSans-32" x="385.986328"/>
      </g>
     </g>
    </g>
    <g id="xtick_4">
     <g id="line2d_4">
      <g>
       <use xlink:href="#mc7bf4e0b79" x="392.961836" y="359.517187" style="stroke: #000000; stroke-width: 0.8"/>
      </g>
     </g>
     <g id="text_4">
      <!-- 09-06 15 -->
      <g transform="translate(370.481367 374.115625) scale(0.1 -0.1)">
       <defs>
        <path id="DejaVuSans-35" d="M 691 4666 
L 3169 4666 
L 3169 4134 
L 1269 4134 
L 1269 2991 
Q 1406 3038 1543 3061 
Q 1681 3084 1819 3084 
Q 2600 3084 3056 2656 
Q 3513 2228 3513 1497 
Q 3513 744 3044 326 
Q 2575 -91 1722 -91 
Q 1428 -91 1123 -41 
Q 819 9 494 109 
L 494 744 
Q 775 591 1075 516 
Q 1375 441 1709 441 
Q 2250 441 2565 725 
Q 2881 1009 2881 1497 
Q 2881 1984 2565 2268 
Q 2250 2553 1709 2553 
Q 1456 2553 1204 2497 
Q 953 2441 691 2322 
L 691 4666 
z
" transform="scale(0.015625)"/>
       </defs>
       <use xlink:href="#DejaVuSans-30"/>
       <use xlink:href="#DejaVuSans-39" x="63.623047"/>
       <use xlink:href="#DejaVuSans-2d" x="127.246094"/>
       <use xlink:href="#DejaVuSans-30" x="163.330078"/>
       <use xlink:href="#DejaVuSans-36" x="226.953125"/>
       <use xlink:href="#DejaVuSans-20" x="290.576172"/>
       <use xlink:href="#DejaVuSans-31" x="322.363281"/>
       <use xlink:href="#DejaVuSans-35" x="385.986328"/>
      </g>
     </g>
    </g>
    <g id="xtick_5">
     <g id="line2d_5">
      <g>
       <use xlink:href="#mc7bf4e0b79" x="502.848119" y="359.517187" style="stroke: #000000; stroke-width: 0.8"/>
      </g>
     </g>
     <g id="text_5">
      <!-- 09-06 18 -->
      <g transform="translate(480.36765 374.115625) scale(0.1 -0.1)">
       <defs>
        <path id="DejaVuSans-38" d="M 2034 2216 
Q 1584 2216 1326 1975 
Q 1069 1734 1069 1313 
Q 1069 891 1326 650 
Q 1584 409 2034 409 
Q 2484 409 2743 651 
Q 3003 894 3003 1313 
Q 3003 1734 2745 1975 
Q 2488 2216 2034 2216 
z
M 1403 2484 
Q 997 2584 770 2862 
Q 544 3141 544 3541 
Q 544 4100 942 4425 
Q 1341 4750 2034 4750 
Q 2731 4750 3128 4425 
Q 3525 4100 3525 3541 
Q 3525 3141 3298 2862 
Q 3072 2584 2669 2484 
Q 3125 2378 3379 2068 
Q 3634 1759 3634 1313 
Q 3634 634 3220 271 
Q 2806 -91 2034 -91 
Q 1263 -91 848 271 
Q 434 634 434 1313 
Q 434 1759 690 2068 
Q 947 2378 1403 2484 
z
M 1172 3481 
Q 1172 3119 1398 2916 
Q 1625 2713 2034 2713 
Q 2441 2713 2670 2916 
Q 2900 3119 2900 3481 
Q 2900 3844 2670 4047 
Q 2441 4250 2034 4250 
Q 1625 4250 1398 4047 
Q 1172 3844 1172 3481 
z
" transform="scale(0.015625)"/>
       </defs>
       <use xlink:href="#DejaVuSans-30"/>
       <use xlink:href="#DejaVuSans-39" x="63.623047"/>
       <use xlink:href="#DejaVuSans-2d" x="127.246094"/>
       <use xlink:href="#DejaVuSans-30" x="163.330078"/>
       <use xlink:href="#DejaVuSans-36" x="226.953125"/>
       <use xlink:href="#DejaVuSans-20" x="290.576172"/>
       <use xlink:href="#DejaVuSans-31" x="322.363281"/>
       <use xlink:href="#DejaVuSans-38" x="385.986328"/>
      </g>
     </g>
    </g>
    <g id="xtick_6">
     <g id="line2d_6">
      <g>
       <use xlink:href="#mc7bf4e0b79" x="612.734401" y="359.517187" style="stroke: #000000; stroke-width: 0.8"/>
      </g>
     </g>
     <g id="text_6">
      <!-- 09-06 21 -->
      <g transform="translate(590.253933 374.115625) scale(0.1 -0.1)">
       <use xlink:href="#DejaVuSans-30"/>
       <use xlink:href="#DejaVuSans-39" x="63.623047"/>
       <use xlink:href="#DejaVuSans-2d" x="127.246094"/>
       <use xlink:href="#DejaVuSans-30" x="163.330078"/>
       <use xlink:href="#DejaVuSans-36" x="226.953125"/>
       <use xlink:href="#DejaVuSans-20" x="290.576172"/>
       <use xlink:href="#DejaVuSans-32" x="322.363281"/>
       <use xlink:href="#DejaVuSans-31" x="385.986328"/>
      </g>
     </g>
    </g>
    <g id="xtick_7">
     <g id="line2d_7">
      <g>
       <use xlink:href="#mc7bf4e0b79" x="722.620684" y="359.517187" style="stroke: #000000; stroke-width: 0.8"/>
      </g>
     </g>
     <g id="text_7">
      <!-- 09-07 00 -->
      <g transform="translate(700.140215 374.115625) scale(0.1 -0.1)">
       <defs>
        <path id="DejaVuSans-37" d="M 525 4666 
L 3525 4666 
L 3525 4397 
L 1831 0 
L 1172 0 
L 2766 4134 
L 525 4134 
L 525 4666 
z
" transform="scale(0.015625)"/>
       </defs>
       <use xlink:href="#DejaVuSans-30"/>
       <use xlink:href="#DejaVuSans-39" x="63.623047"/>
       <use xlink:href="#DejaVuSans-2d" x="127.246094"/>
       <use xlink:href="#DejaVuSans-30" x="163.330078"/>
       <use xlink:href="#DejaVuSans-37" x="226.953125"/>
       <use xlink:href="#DejaVuSans-20" x="290.576172"/>
       <use xlink:href="#DejaVuSans-30" x="322.363281"/>
       <use xlink:href="#DejaVuSans-30" x="385.986328"/>
      </g>
     </g>
    </g>
    <g id="xtick_8">
     <g id="line2d_8">
      <g>
       <use xlink:href="#mc7bf4e0b79" x="832.506967" y="359.517187" style="stroke: #000000; stroke-width: 0.8"/>
      </g>
     </g>
     <g id="text_8">
      <!-- 09-07 03 -->
      <g transform="translate(810.026498 374.115625) scale(0.1 -0.1)">
       <defs>
        <path id="DejaVuSans-33" d="M 2597 2516 
Q 3050 2419 3304 2112 
Q 3559 1806 3559 1356 
Q 3559 666 3084 287 
Q 2609 -91 1734 -91 
Q 1441 -91 1130 -33 
Q 819 25 488 141 
L 488 750 
Q 750 597 1062 519 
Q 1375 441 1716 441 
Q 2309 441 2620 675 
Q 2931 909 2931 1356 
Q 2931 1769 2642 2001 
Q 2353 2234 1838 2234 
L 1294 2234 
L 1294 2753 
L 1863 2753 
Q 2328 2753 2575 2939 
Q 2822 3125 2822 3475 
Q 2822 3834 2567 4026 
Q 2313 4219 1838 4219 
Q 1578 4219 1281 4162 
Q 984 4106 628 3988 
L 628 4550 
Q 988 4650 1302 4700 
Q 1616 4750 1894 4750 
Q 2613 4750 3031 4423 
Q 3450 4097 3450 3541 
Q 3450 3153 3228 2886 
Q 3006 2619 2597 2516 
z
" transform="scale(0.015625)"/>
       </defs>
       <use xlink:href="#DejaVuSans-30"/>
       <use xlink:href="#DejaVuSans-39" x="63.623047"/>
       <use xlink:href="#DejaVuSans-2d" x="127.246094"/>
       <use xlink:href="#DejaVuSans-30" x="163.330078"/>
       <use xlink:href="#DejaVuSans-37" x="226.953125"/>
       <use xlink:href="#DejaVuSans-20" x="290.576172"/>
       <use xlink:href="#DejaVuSans-30" x="322.363281"/>
       <use xlink:href="#DejaVuSans-33" x="385.986328"/>
      </g>
     </g>
    </g>
    <g id="xtick_9">
     <g id="line2d_9">
      <g>
       <use xlink:href="#mc7bf4e0b79" x="942.39325" y="359.517187" style="stroke: #000000; stroke-width: 0.8"/>
      </g>
     </g>
     <g id="text_9">
      <!-- 09-07 06 -->
      <g transform="translate(919.912781 374.115625) scale(0.1 -0.1)">
       <use xlink:href="#DejaVuSans-30"/>
       <use xlink:href="#DejaVuSans-39" x="63.623047"/>
       <use xlink:href="#DejaVuSans-2d" x="127.246094"/>
       <use xlink:href="#DejaVuSans-30" x="163.330078"/>
       <use xlink:href="#DejaVuSans-37" x="226.953125"/>
       <use xlink:href="#DejaVuSans-20" x="290.576172"/>
       <use xlink:href="#DejaVuSans-30" x="322.363281"/>
       <use xlink:href="#DejaVuSans-36" x="385.986328"/>
      </g>
     </g>
    </g>
    <g id="xtick_10">
     <g id="line2d_10">
      <g>
       <use xlink:href="#mc7bf4e0b79" x="1052.279532" y="359.517187" style="stroke: #000000; stroke-width: 0.8"/>
      </g>
     </g>
     <g id="text_10">
      <!-- 09-07 09 -->
      <g transform="translate(1029.799064 374.115625) scale(0.1 -0.1)">
       <use xlink:href="#DejaVuSans-30"/>
       <use xlink:href="#DejaVuSans-39" x="63.623047"/>
       <use xlink:href="#DejaVuSans-2d" x="127.246094"/>
       <use xlink:href="#DejaVuSans-30" x="163.330078"/>
       <use xlink:href="#DejaVuSans-37" x="226.953125"/>
       <use xlink:href="#DejaVuSans-20" x="290.576172"/>
       <use xlink:href="#DejaVuSans-30" x="322.363281"/>
       <use xlink:href="#DejaVuSans-39" x="385.986328"/>
      </g>
     </g>
    </g>
    <g id="xtick_11">
     <g id="line2d_11">
      <g>
       <use xlink:href="#mc7bf4e0b79" x="1162.165815" y="359.517187" style="stroke: #000000; stroke-width: 0.8"/>
      </g>
     </g>
     <g id="text_11">
      <!-- 09-07 12 -->
      <g transform="translate(1139.685346 374.115625) scale(0.1 -0.1)">
       <use xlink:href="#DejaVuSans-30"/>
       <use xlink:href="#DejaVuSans-39" x="63.623047"/>
       <use xlink:href="#DejaVuSans-2d" x="127.246094"/>
       <use xlink:href="#DejaVuSans-30" x="163.330078"/>
       <use xlink:href="#DejaVuSans-37" x="226.953125"/>
       <use xlink:href="#DejaVuSans-20" x="290.576172"/>
       <use xlink:href="#DejaVuSans-31" x="322.363281"/>
       <use xlink:href="#DejaVuSans-32" x="385.986328"/>
      </g>
     </g>
    </g>
    <g id="text_12">
     <!-- Time -->
     <g transform="translate(592.554688 389.313437) scale(0.12 -0.12)">
      <defs>
       <path id="DejaVuSans-54" d="M -19 4666 
L 3928 4666 
L 3928 4134 
L 2272 4134 
L 2272 0 
L 1638 0 
L 1638 4134 
L -19 4134 
L -19 4666 
z
" transform="scale(0.015625)"/>
       <path id="DejaVuSans-69" d="M 603 3500 
L 1178 3500 
L 1178 0 
L 603 0 
L 603 3500 
z
M 603 4863 
L 1178 4863 
L 1178 4134 
L 603 4134 
L 603 4863 
z
" transform="scale(0.015625)"/>
       <path id="DejaVuSans-6d" d="M 3328 2828 
Q 3544 3216 3844 3400 
Q 4144 3584 4550 3584 
Q 5097 3584 5394 3201 
Q 5691 2819 5691 2113 
L 5691 0 
L 5113 0 
L 5113 2094 
Q 5113 2597 4934 2840 
Q 4756 3084 4391 3084 
Q 3944 3084 3684 2787 
Q 3425 2491 3425 1978 
L 3425 0 
L 2847 0 
L 2847 2094 
Q 2847 2600 2669 2842 
Q 2491 3084 2119 3084 
Q 1678 3084 1418 2786 
Q 1159 2488 1159 1978 
L 1159 0 
L 581 0 
L 581 3500 
L 1159 3500 
L 1159 2956 
Q 1356 3278 1631 3431 
Q 1906 3584 2284 3584 
Q 2666 3584 2933 3390 
Q 3200 3197 3328 2828 
z
" transform="scale(0.015625)"/>
       <path id="DejaVuSans-65" d="M 3597 1894 
L 3597 1613 
L 953 1613 
Q 991 1019 1311 708 
Q 1631 397 2203 397 
Q 2534 397 2845 478 
Q 3156 559 3463 722 
L 3463 178 
Q 3153 47 2828 -22 
Q 2503 -91 2169 -91 
Q 1331 -91 842 396 
Q 353 884 353 1716 
Q 353 2575 817 3079 
Q 1281 3584 2069 3584 
Q 2775 3584 3186 3129 
Q 3597 2675 3597 1894 
z
M 3022 2063 
Q 3016 2534 2758 2815 
Q 2500 3097 2075 3097 
Q 1594 3097 1305 2825 
Q 1016 2553 972 2059 
L 3022 2063 
z
" transform="scale(0.015625)"/>
      </defs>
      <use xlink:href="#DejaVuSans-54"/>
      <use xlink:href="#DejaVuSans-69" x="57.958984"/>
      <use xlink:href="#DejaVuSans-6d" x="85.742188"/>
      <use xlink:href="#DejaVuSans-65" x="183.154297"/>
     </g>
    </g>
   </g>
   <g id="matplotlib.axis_2">
    <g id="ytick_1">
     <g id="line2d_12">
      <defs>
       <path id="m645bf77054" d="M 0 0 
L -3.5 0 
" style="stroke: #000000; stroke-width: 0.8"/>
      </defs>
      <g>
       <use xlink:href="#m645bf77054" x="49.235" y="344.397187" style="stroke: #000000; stroke-width: 0.8"/>
      </g>
     </g>
     <g id="text_13">
      <!-- 0 -->
      <g transform="translate(35.8725 348.196406) scale(0.1 -0.1)">
       <use xlink:href="#DejaVuSans-30"/>
      </g>
     </g>
    </g>
    <g id="ytick_2">
     <g id="line2d_13">
      <g>
       <use xlink:href="#m645bf77054" x="49.235" y="274.397187" style="stroke: #000000; stroke-width: 0.8"/>
      </g>
     </g>
     <g id="text_14">
      <!-- 50 -->
      <g transform="translate(29.51 278.196406) scale(0.1 -0.1)">
       <use xlink:href="#DejaVuSans-35"/>
       <use xlink:href="#DejaVuSans-30" x="63.623047"/>
      </g>
     </g>
    </g>
    <g id="ytick_3">
     <g id="line2d_14">
      <g>
       <use xlink:href="#m645bf77054" x="49.235" y="204.397187" style="stroke: #000000; stroke-width: 0.8"/>
      </g>
     </g>
     <g id="text_15">
      <!-- 100 -->
      <g transform="translate(23.1475 208.196406) scale(0.1 -0.1)">
       <use xlink:href="#DejaVuSans-31"/>
       <use xlink:href="#DejaVuSans-30" x="63.623047"/>
       <use xlink:href="#DejaVuSans-30" x="127.246094"/>
      </g>
     </g>
    </g>
    <g id="ytick_4">
     <g id="line2d_15">
      <g>
       <use xlink:href="#m645bf77054" x="49.235" y="134.397187" style="stroke: #000000; stroke-width: 0.8"/>
      </g>
     </g>
     <g id="text_16">
      <!-- 150 -->
      <g transform="translate(23.1475 138.196406) scale(0.1 -0.1)">
       <use xlink:href="#DejaVuSans-31"/>
       <use xlink:href="#DejaVuSans-35" x="63.623047"/>
       <use xlink:href="#DejaVuSans-30" x="127.246094"/>
      </g>
     </g>
    </g>
    <g id="ytick_5">
     <g id="line2d_16">
      <g>
       <use xlink:href="#m645bf77054" x="49.235" y="64.397187" style="stroke: #000000; stroke-width: 0.8"/>
      </g>
     </g>
     <g id="text_17">
      <!-- 200 -->
      <g transform="translate(23.1475 68.196406) scale(0.1 -0.1)">
       <use xlink:href="#DejaVuSans-32"/>
       <use xlink:href="#DejaVuSans-30" x="63.623047"/>
       <use xlink:href="#DejaVuSans-30" x="127.246094"/>
      </g>
     </g>
    </g>
    <g id="text_18">
     <!-- Pellet_Count -->
     <g transform="translate(16.318125 230.485312) rotate(-90) scale(0.12 -0.12)">
      <defs>
       <path id="DejaVuSans-50" d="M 1259 4147 
L 1259 2394 
L 2053 2394 
Q 2494 2394 2734 2622 
Q 2975 2850 2975 3272 
Q 2975 3691 2734 3919 
Q 2494 4147 2053 4147 
L 1259 4147 
z
M 628 4666 
L 2053 4666 
Q 2838 4666 3239 4311 
Q 3641 3956 3641 3272 
Q 3641 2581 3239 2228 
Q 2838 1875 2053 1875 
L 1259 1875 
L 1259 0 
L 628 0 
L 628 4666 
z
" transform="scale(0.015625)"/>
       <path id="DejaVuSans-6c" d="M 603 4863 
L 1178 4863 
L 1178 0 
L 603 0 
L 603 4863 
z
" transform="scale(0.015625)"/>
       <path id="DejaVuSans-74" d="M 1172 4494 
L 1172 3500 
L 2356 3500 
L 2356 3053 
L 1172 3053 
L 1172 1153 
Q 1172 725 1289 603 
Q 1406 481 1766 481 
L 2356 481 
L 2356 0 
L 1766 0 
Q 1100 0 847 248 
Q 594 497 594 1153 
L 594 3053 
L 172 3053 
L 172 3500 
L 594 3500 
L 594 4494 
L 1172 4494 
z
" transform="scale(0.015625)"/>
       <path id="DejaVuSans-5f" d="M 3263 -1063 
L 3263 -1509 
L -63 -1509 
L -63 -1063 
L 3263 -1063 
z
" transform="scale(0.015625)"/>
       <path id="DejaVuSans-43" d="M 4122 4306 
L 4122 3641 
Q 3803 3938 3442 4084 
Q 3081 4231 2675 4231 
Q 1875 4231 1450 3742 
Q 1025 3253 1025 2328 
Q 1025 1406 1450 917 
Q 1875 428 2675 428 
Q 3081 428 3442 575 
Q 3803 722 4122 1019 
L 4122 359 
Q 3791 134 3420 21 
Q 3050 -91 2638 -91 
Q 1578 -91 968 557 
Q 359 1206 359 2328 
Q 359 3453 968 4101 
Q 1578 4750 2638 4750 
Q 3056 4750 3426 4639 
Q 3797 4528 4122 4306 
z
" transform="scale(0.015625)"/>
       <path id="DejaVuSans-6f" d="M 1959 3097 
Q 1497 3097 1228 2736 
Q 959 2375 959 1747 
Q 959 1119 1226 758 
Q 1494 397 1959 397 
Q 2419 397 2687 759 
Q 2956 1122 2956 1747 
Q 2956 2369 2687 2733 
Q 2419 3097 1959 3097 
z
M 1959 3584 
Q 2709 3584 3137 3096 
Q 3566 2609 3566 1747 
Q 3566 888 3137 398 
Q 2709 -91 1959 -91 
Q 1206 -91 779 398 
Q 353 888 353 1747 
Q 353 2609 779 3096 
Q 1206 3584 1959 3584 
z
" transform="scale(0.015625)"/>
       <path id="DejaVuSans-75" d="M 544 1381 
L 544 3500 
L 1119 3500 
L 1119 1403 
Q 1119 906 1312 657 
Q 1506 409 1894 409 
Q 2359 409 2629 706 
Q 2900 1003 2900 1516 
L 2900 3500 
L 3475 3500 
L 3475 0 
L 2900 0 
L 2900 538 
Q 2691 219 2414 64 
Q 2138 -91 1772 -91 
Q 1169 -91 856 284 
Q 544 659 544 1381 
z
M 1991 3584 
L 1991 3584 
z
" transform="scale(0.015625)"/>
       <path id="DejaVuSans-6e" d="M 3513 2113 
L 3513 0 
L 2938 0 
L 2938 2094 
Q 2938 2591 2744 2837 
Q 2550 3084 2163 3084 
Q 1697 3084 1428 2787 
Q 1159 2491 1159 1978 
L 1159 0 
L 581 0 
L 581 3500 
L 1159 3500 
L 1159 2956 
Q 1366 3272 1645 3428 
Q 1925 3584 2291 3584 
Q 2894 3584 3203 3211 
Q 3513 2838 3513 2113 
z
" transform="scale(0.015625)"/>
      </defs>
      <use xlink:href="#DejaVuSans-50"/>
      <use xlink:href="#DejaVuSans-65" x="56.677734"/>
      <use xlink:href="#DejaVuSans-6c" x="118.201172"/>
      <use xlink:href="#DejaVuSans-6c" x="145.984375"/>
      <use xlink:href="#DejaVuSans-65" x="173.767578"/>
      <use xlink:href="#DejaVuSans-74" x="235.291016"/>
      <use xlink:href="#DejaVuSans-5f" x="274.5"/>
      <use xlink:href="#DejaVuSans-43" x="324.5"/>
      <use xlink:href="#DejaVuSans-6f" x="394.324219"/>
      <use xlink:href="#DejaVuSans-75" x="455.505859"/>
      <use xlink:href="#DejaVuSans-6e" x="518.884766"/>
      <use xlink:href="#DejaVuSans-74" x="582.263672"/>
     </g>
    </g>
   </g>
   <g id="line2d_17">
    <path d="M 99.962273 344.397187 
L 102.017553 344.397187 
L 103.157115 342.997187 
L 109.394179 342.997187 
L 109.974134 341.597187 
L 114.674825 341.597187 
L 114.857969 340.197187 
L 127.962926 340.197187 
L 128.013799 338.797187 
L 144.97495 338.797187 
L 145.514207 337.397187 
L 146.806388 337.397187 
L 147.152326 335.997187 
L 152.789086 335.997187 
L 153.837075 334.597187 
L 156.421438 334.597187 
L 157.316808 333.197187 
L 161.447718 333.197187 
L 161.590163 331.797187 
L 165.97544 331.797187 
L 166.494347 330.397187 
L 168.90574 330.397187 
L 169.597617 328.997187 
L 174.064291 328.997187 
L 174.176212 327.597187 
L 175.712585 327.597187 
L 176.933544 326.197187 
L 177.951009 326.197187 
L 178.581838 324.797187 
L 182.417683 324.797187 
L 182.549954 323.397187 
L 185.785494 323.397187 
L 185.938114 321.997187 
L 189.46872 321.997187 
L 189.509418 320.597187 
L 193.426661 320.597187 
L 193.457185 319.197187 
L 196.468883 319.197187 
L 196.499407 317.797187 
L 199.6739 317.797187 
L 199.694249 316.397187 
L 200.905033 316.397187 
L 200.935557 314.997187 
L 204.221971 314.997187 
L 204.252495 313.597187 
L 205.910964 313.597187 
L 205.931313 312.197187 
L 208.159563 312.197187 
L 208.434278 310.797187 
L 210.845672 310.797187 
L 210.998292 309.397187 
L 211.466326 309.397187 
L 211.507024 307.997187 
L 212.880603 307.997187 
L 212.890778 306.597187 
L 213.11462 306.597187 
L 213.216367 305.197187 
L 213.55213 305.197187 
L 213.755623 303.797187 
L 214.773089 303.797187 
L 214.793438 302.397187 
L 218.100201 302.397187 
L 218.130725 300.997187 
L 221.152598 300.997187 
L 221.162773 299.597187 
L 222.404081 299.597187 
L 222.414255 298.197187 
L 222.851766 298.197187 
L 222.88229 296.797187 
L 228.315556 296.797187 
L 228.468176 295.397187 
L 230.523456 295.397187 
L 230.543805 293.997187 
L 234.53227 293.997187 
L 234.55262 292.597187 
L 235.000305 292.597187 
L 235.264846 291.197187 
L 235.458164 291.197187 
L 235.478513 289.797187 
L 242.326057 289.797187 
L 242.336231 288.397187 
L 243.384221 288.397187 
L 243.394396 286.997187 
L 243.943827 286.997187 
L 243.954002 285.597187 
L 244.330464 285.597187 
L 244.350813 284.197187 
L 245.907536 284.197187 
L 245.948234 282.797187 
L 246.22295 282.797187 
L 246.233125 281.397187 
L 248.939583 281.397187 
L 248.949758 279.997187 
L 249.621285 279.997187 
L 249.641634 278.597187 
L 249.855302 278.597187 
L 249.875651 277.197187 
L 250.852418 277.197187 
L 250.893117 275.797187 
L 252.775428 275.797187 
L 252.785603 274.397187 
L 258.859872 274.397187 
L 259.297383 272.997187 
L 261.535807 272.997187 
L 261.566331 271.597187 
L 266.704532 271.597187 
L 266.714707 270.197187 
L 269.645008 270.197187 
L 269.675532 268.797187 
L 271.985178 268.797187 
L 272.188672 267.397187 
L 274.518668 267.397187 
L 274.539017 265.997187 
L 276.350106 265.997187 
L 276.66552 264.597187 
L 283.46219 264.597187 
L 283.706382 263.197187 
L 284.215115 261.797187 
L 287.89834 261.797187 
L 287.928864 260.397187 
L 291.317025 260.397187 
L 291.337374 258.997187 
L 298.490157 258.997187 
L 298.815746 257.597187 
L 301.898667 257.597187 
L 301.908841 256.197187 
L 302.519321 256.197187 
L 302.560019 254.797187 
L 304.350759 254.797187 
L 306.874073 253.397187 
L 308.023809 253.397187 
L 308.369748 251.997187 
L 314.433842 251.997187 
L 314.535589 250.597187 
L 316.87576 250.597187 
L 317.852527 249.197187 
L 318.198465 249.197187 
L 318.218814 247.797187 
L 318.574927 247.797187 
L 318.585102 246.397187 
L 319.633092 246.397187 
L 319.633092 246.397187 
L 319.67379 244.997187 
L 319.989205 244.997187 
L 319.999379 243.597187 
L 322.247978 243.597187 
L 322.247978 243.597187 
L 322.319201 242.197187 
L 323.448588 242.197187 
L 323.448588 242.197187 
L 323.611382 240.797187 
L 324.343957 240.797187 
L 324.394831 239.397187 
L 327.355655 239.397187 
L 327.376005 237.997187 
L 337.967821 237.997187 
L 337.988171 236.597187 
L 339.93153 236.597187 
L 340.755677 235.197187 
L 342.017334 235.197187 
L 342.088557 233.797187 
L 345.954926 233.797187 
L 346.626453 232.397187 
L 349.892518 232.397187 
L 349.943391 230.997187 
L 354.206572 230.997187 
L 354.257445 229.597187 
L 356.648489 229.597187 
L 357.360715 228.197187 
L 362.09193 228.197187 
L 362.427694 226.797187 
L 366.863844 226.797187 
L 367.291179 225.397187 
L 371.035453 225.397187 
L 371.534011 223.997187 
L 374.209945 223.997187 
L 374.250644 222.597187 
L 375.278284 222.597187 
L 377.720202 221.197187 
L 378.96151 221.197187 
L 379.022558 219.797187 
L 380.385961 219.797187 
L 381.037139 218.397187 
L 382.492115 218.397187 
L 382.777006 216.997187 
L 388.739354 216.997187 
L 391.710353 215.597187 
L 393.480743 215.597187 
L 393.521442 214.197187 
L 397.916893 214.197187 
L 397.998291 212.797187 
L 399.239599 212.797187 
L 399.677109 211.397187 
L 400.999814 211.397187 
L 401.111735 209.997187 
L 406.45343 209.997187 
L 406.483954 208.597187 
L 408.345916 208.597187 
L 408.457837 207.197187 
L 415.681842 207.197187 
L 415.692017 205.797187 
L 417.655726 205.797187 
L 418.286554 204.397187 
L 418.897034 204.397187 
L 418.917383 202.997187 
L 423.058468 202.997187 
L 423.363708 201.597187 
L 424.889906 201.597187 
L 424.910255 200.197187 
L 426.84344 200.197187 
L 426.853615 198.797187 
L 429.600772 198.797187 
L 429.64147 197.397187 
L 434.962815 197.397187 
L 435.023863 195.997187 
L 439.175123 195.997187 
L 439.225996 194.597187 
L 444.374372 194.597187 
L 444.425245 193.197187 
L 446.694193 193.197187 
L 450.011131 191.797187 
L 455.678414 191.797187 
L 456.461863 190.397187 
L 461.376222 190.397187 
L 461.376222 190.397187 
L 461.41692 188.997187 
L 470.014504 188.997187 
L 470.034854 187.597187 
L 472.771836 187.597187 
L 472.822709 186.197187 
L 475.3155 186.197187 
L 475.346024 184.797187 
L 484.869502 184.797187 
L 487.118101 183.397187 
L 491.126915 183.397187 
L 491.147265 181.997187 
L 493.233069 181.997187 
L 493.263593 180.597187 
L 502.553054 180.597187 
L 502.563228 179.197187 
L 503.051612 179.197187 
L 503.071961 177.797187 
L 503.743488 177.797187 
L 503.753663 176.397187 
L 504.526937 176.397187 
L 504.557461 174.997187 
L 504.933923 174.997187 
L 505.137416 173.597187 
L 508.586625 173.597187 
L 508.596799 172.197187 
L 511.201511 172.197187 
L 511.201511 172.197187 
L 511.24221 170.797187 
L 512.717535 170.797187 
L 513.032949 169.397187 
L 520.613068 169.397187 
L 520.623242 167.997187 
L 523.146557 167.997187 
L 523.584067 166.597187 
L 527.552183 166.597187 
L 527.572532 165.197187 
L 528.24406 165.197187 
L 528.254234 163.797187 
L 529.007159 163.797187 
L 529.017333 162.397187 
L 529.312398 162.397187 
L 529.353097 160.997187 
L 530.533357 160.997187 
L 530.553707 159.597187 
L 535.47824 159.597187 
L 535.702082 158.197187 
L 538.357668 158.197187 
L 538.378017 156.797187 
L 541.114999 156.797187 
L 541.114999 156.797187 
L 541.552509 155.397187 
L 546.171803 155.397187 
L 546.192152 153.997187 
L 546.40582 153.997187 
L 547.881145 152.597187 
L 548.695118 152.597187 
L 548.868087 151.197187 
L 558.483137 151.197187 
L 558.493311 149.797187 
L 558.798551 149.797187 
L 562.023917 148.397187 
L 733.924727 148.397187 
L 733.945076 146.997187 
L 736.895726 146.997187 
L 737.017822 145.597187 
L 737.434983 145.597187 
L 737.475682 144.197187 
L 738.10651 144.197187 
L 738.137034 142.797187 
L 738.615243 142.797187 
L 738.635592 141.397187 
L 741.616767 141.397187 
L 741.901657 139.997187 
L 748.454135 139.997187 
L 748.484659 138.597187 
L 748.973043 138.597187 
L 749.003567 137.197187 
L 757.906391 137.197187 
L 757.92674 135.797187 
L 758.415123 135.797187 
L 758.425298 134.397187 
L 758.720363 134.397187 
L 758.740712 132.997187 
L 759.035777 132.997187 
L 759.056127 131.597187 
L 859.775044 131.597187 
L 859.805568 130.197187 
L 860.283777 130.197187 
L 860.324476 128.797187 
L 860.578842 128.797187 
L 860.589017 127.397187 
L 860.782335 127.397187 
L 860.802685 125.997187 
L 860.996003 125.997187 
L 861.006178 124.597187 
L 861.423339 124.597187 
L 861.443688 123.197187 
L 862.094866 123.197187 
L 862.115215 121.797187 
L 862.674821 121.797187 
L 862.695171 120.397187 
L 945.3439 120.397187 
L 945.364249 118.997187 
L 945.588092 118.997187 
L 945.608441 117.597187 
L 945.801759 117.597187 
L 945.822109 116.197187 
L 946.117174 116.197187 
L 946.137523 114.797187 
L 946.442763 114.797187 
L 946.483461 113.397187 
L 946.839574 113.397187 
L 946.859924 111.997187 
L 984.994533 111.997187 
L 985.014883 110.597187 
L 985.391345 110.597187 
L 985.411694 109.197187 
L 985.666061 109.197187 
L 985.727109 107.797187 
L 985.981475 107.797187 
L 986.001824 106.397187 
L 986.296889 106.397187 
L 986.317239 104.997187 
L 986.490208 104.997187 
L 986.500383 103.597187 
L 986.663177 103.597187 
L 986.683526 102.197187 
L 986.907369 102.197187 
L 986.927718 100.797187 
L 987.070163 100.797187 
L 987.090513 99.397187 
L 987.263482 99.397187 
L 987.283831 97.997187 
L 1015.610073 97.997187 
L 1015.630422 96.597187 
L 1016.179854 96.597187 
L 1016.190028 95.197187 
L 1021.246832 95.197187 
L 1021.399452 93.797187 
L 1029.763019 93.797187 
L 1029.773194 92.397187 
L 1030.139481 92.397187 
L 1030.149656 90.997187 
L 1030.353149 90.997187 
L 1030.373498 89.597187 
L 1030.597341 89.597187 
L 1030.607515 88.197187 
L 1030.831358 88.197187 
L 1030.851707 86.797187 
L 1041.647017 86.797187 
L 1041.657192 85.397187 
L 1041.881034 85.397187 
L 1041.901383 83.997187 
L 1042.084527 83.997187 
L 1042.094702 82.597187 
L 1042.257496 82.597187 
L 1042.318544 81.197187 
L 1042.450815 81.197187 
L 1042.491513 79.797187 
L 1042.654308 79.797187 
L 1042.664483 78.397187 
L 1057.427908 78.397187 
L 1057.448257 76.997187 
L 1057.6721 76.997187 
L 1057.692449 75.597187 
L 1057.987514 75.597187 
L 1058.048562 74.197187 
L 1058.486072 74.197187 
L 1058.506422 72.797187 
L 1058.618343 72.797187 
L 1058.638692 71.397187 
L 1065.659205 71.397187 
L 1065.669379 69.997187 
L 1065.923746 69.997187 
L 1065.944095 68.597187 
L 1067.643263 68.597187 
L 1067.714485 67.197187 
L 1067.907804 67.197187 
L 1067.948502 65.797187 
L 1068.111297 65.797187 
L 1068.274091 64.397187 
L 1078.06211 64.397187 
L 1078.092634 62.997187 
L 1078.438572 62.997187 
L 1078.448747 61.597187 
L 1078.601367 61.597187 
L 1078.611542 60.197187 
L 1078.815035 60.197187 
L 1078.835384 58.797187 
L 1079.049052 58.797187 
L 1079.08975 57.397187 
L 1079.283069 57.397187 
L 1079.293244 55.997187 
L 1079.54761 55.997187 
L 1079.567959 54.597187 
L 1081.501144 54.597187 
L 1086.578297 53.197187 
L 1092.184532 53.197187 
L 1092.194707 51.797187 
L 1092.428724 51.797187 
L 1092.449073 50.397187 
L 1092.611868 50.397187 
L 1092.632217 48.997187 
L 1092.744138 48.997187 
L 1092.764488 47.597187 
L 1092.98833 47.597187 
L 1092.998505 46.197187 
L 1093.171474 46.197187 
L 1093.181649 44.797187 
L 1093.405491 44.797187 
L 1093.415666 43.397187 
L 1093.59881 43.397187 
L 1093.619159 41.997187 
L 1102.572856 41.997187 
L 1102.572856 41.997187 
" clip-path="url(#pbbbe636ceb)" style="fill: none; stroke: #0000ff; stroke-width: 1.5; stroke-linecap: square"/>
   </g>
   <g id="patch_35">
    <path d="M 49.235 359.517187 
L 49.235 26.877187 
" style="fill: none; stroke: #000000; stroke-width: 0.8; stroke-linejoin: miter; stroke-linecap: square"/>
   </g>
   <g id="patch_36">
    <path d="M 1165.235 359.517187 
L 1165.235 26.877187 
" style="fill: none; stroke: #000000; stroke-width: 0.8; stroke-linejoin: miter; stroke-linecap: square"/>
   </g>
   <g id="patch_37">
    <path d="M 49.235 359.517187 
L 1165.235 359.517187 
" style="fill: none; stroke: #000000; stroke-width: 0.8; stroke-linejoin: miter; stroke-linecap: square"/>
   </g>
   <g id="patch_38">
    <path d="M 49.235 26.877187 
L 1165.235 26.877187 
" style="fill: none; stroke: #000000; stroke-width: 0.8; stroke-linejoin: miter; stroke-linecap: square"/>
   </g>
   <g id="text_19">
    <!-- Pellet Count and Cumulative Sum Over Time of Group ctrl Mouse M53 -->
    <g transform="translate(293.018281 20.877187) scale(0.18 -0.18)">
     <defs>
      <path id="DejaVuSans-61" d="M 2194 1759 
Q 1497 1759 1228 1600 
Q 959 1441 959 1056 
Q 959 750 1161 570 
Q 1363 391 1709 391 
Q 2188 391 2477 730 
Q 2766 1069 2766 1631 
L 2766 1759 
L 2194 1759 
z
M 3341 1997 
L 3341 0 
L 2766 0 
L 2766 531 
Q 2569 213 2275 61 
Q 1981 -91 1556 -91 
Q 1019 -91 701 211 
Q 384 513 384 1019 
Q 384 1609 779 1909 
Q 1175 2209 1959 2209 
L 2766 2209 
L 2766 2266 
Q 2766 2663 2505 2880 
Q 2244 3097 1772 3097 
Q 1472 3097 1187 3025 
Q 903 2953 641 2809 
L 641 3341 
Q 956 3463 1253 3523 
Q 1550 3584 1831 3584 
Q 2591 3584 2966 3190 
Q 3341 2797 3341 1997 
z
" transform="scale(0.015625)"/>
      <path id="DejaVuSans-64" d="M 2906 2969 
L 2906 4863 
L 3481 4863 
L 3481 0 
L 2906 0 
L 2906 525 
Q 2725 213 2448 61 
Q 2172 -91 1784 -91 
Q 1150 -91 751 415 
Q 353 922 353 1747 
Q 353 2572 751 3078 
Q 1150 3584 1784 3584 
Q 2172 3584 2448 3432 
Q 2725 3281 2906 2969 
z
M 947 1747 
Q 947 1113 1208 752 
Q 1469 391 1925 391 
Q 2381 391 2643 752 
Q 2906 1113 2906 1747 
Q 2906 2381 2643 2742 
Q 2381 3103 1925 3103 
Q 1469 3103 1208 2742 
Q 947 2381 947 1747 
z
" transform="scale(0.015625)"/>
      <path id="DejaVuSans-76" d="M 191 3500 
L 800 3500 
L 1894 563 
L 2988 3500 
L 3597 3500 
L 2284 0 
L 1503 0 
L 191 3500 
z
" transform="scale(0.015625)"/>
      <path id="DejaVuSans-53" d="M 3425 4513 
L 3425 3897 
Q 3066 4069 2747 4153 
Q 2428 4238 2131 4238 
Q 1616 4238 1336 4038 
Q 1056 3838 1056 3469 
Q 1056 3159 1242 3001 
Q 1428 2844 1947 2747 
L 2328 2669 
Q 3034 2534 3370 2195 
Q 3706 1856 3706 1288 
Q 3706 609 3251 259 
Q 2797 -91 1919 -91 
Q 1588 -91 1214 -16 
Q 841 59 441 206 
L 441 856 
Q 825 641 1194 531 
Q 1563 422 1919 422 
Q 2459 422 2753 634 
Q 3047 847 3047 1241 
Q 3047 1584 2836 1778 
Q 2625 1972 2144 2069 
L 1759 2144 
Q 1053 2284 737 2584 
Q 422 2884 422 3419 
Q 422 4038 858 4394 
Q 1294 4750 2059 4750 
Q 2388 4750 2728 4690 
Q 3069 4631 3425 4513 
z
" transform="scale(0.015625)"/>
      <path id="DejaVuSans-4f" d="M 2522 4238 
Q 1834 4238 1429 3725 
Q 1025 3213 1025 2328 
Q 1025 1447 1429 934 
Q 1834 422 2522 422 
Q 3209 422 3611 934 
Q 4013 1447 4013 2328 
Q 4013 3213 3611 3725 
Q 3209 4238 2522 4238 
z
M 2522 4750 
Q 3503 4750 4090 4092 
Q 4678 3434 4678 2328 
Q 4678 1225 4090 567 
Q 3503 -91 2522 -91 
Q 1538 -91 948 565 
Q 359 1222 359 2328 
Q 359 3434 948 4092 
Q 1538 4750 2522 4750 
z
" transform="scale(0.015625)"/>
      <path id="DejaVuSans-72" d="M 2631 2963 
Q 2534 3019 2420 3045 
Q 2306 3072 2169 3072 
Q 1681 3072 1420 2755 
Q 1159 2438 1159 1844 
L 1159 0 
L 581 0 
L 581 3500 
L 1159 3500 
L 1159 2956 
Q 1341 3275 1631 3429 
Q 1922 3584 2338 3584 
Q 2397 3584 2469 3576 
Q 2541 3569 2628 3553 
L 2631 2963 
z
" transform="scale(0.015625)"/>
      <path id="DejaVuSans-66" d="M 2375 4863 
L 2375 4384 
L 1825 4384 
Q 1516 4384 1395 4259 
Q 1275 4134 1275 3809 
L 1275 3500 
L 2222 3500 
L 2222 3053 
L 1275 3053 
L 1275 0 
L 697 0 
L 697 3053 
L 147 3053 
L 147 3500 
L 697 3500 
L 697 3744 
Q 697 4328 969 4595 
Q 1241 4863 1831 4863 
L 2375 4863 
z
" transform="scale(0.015625)"/>
      <path id="DejaVuSans-47" d="M 3809 666 
L 3809 1919 
L 2778 1919 
L 2778 2438 
L 4434 2438 
L 4434 434 
Q 4069 175 3628 42 
Q 3188 -91 2688 -91 
Q 1594 -91 976 548 
Q 359 1188 359 2328 
Q 359 3472 976 4111 
Q 1594 4750 2688 4750 
Q 3144 4750 3555 4637 
Q 3966 4525 4313 4306 
L 4313 3634 
Q 3963 3931 3569 4081 
Q 3175 4231 2741 4231 
Q 1884 4231 1454 3753 
Q 1025 3275 1025 2328 
Q 1025 1384 1454 906 
Q 1884 428 2741 428 
Q 3075 428 3337 486 
Q 3600 544 3809 666 
z
" transform="scale(0.015625)"/>
      <path id="DejaVuSans-70" d="M 1159 525 
L 1159 -1331 
L 581 -1331 
L 581 3500 
L 1159 3500 
L 1159 2969 
Q 1341 3281 1617 3432 
Q 1894 3584 2278 3584 
Q 2916 3584 3314 3078 
Q 3713 2572 3713 1747 
Q 3713 922 3314 415 
Q 2916 -91 2278 -91 
Q 1894 -91 1617 61 
Q 1341 213 1159 525 
z
M 3116 1747 
Q 3116 2381 2855 2742 
Q 2594 3103 2138 3103 
Q 1681 3103 1420 2742 
Q 1159 2381 1159 1747 
Q 1159 1113 1420 752 
Q 1681 391 2138 391 
Q 2594 391 2855 752 
Q 3116 1113 3116 1747 
z
" transform="scale(0.015625)"/>
      <path id="DejaVuSans-63" d="M 3122 3366 
L 3122 2828 
Q 2878 2963 2633 3030 
Q 2388 3097 2138 3097 
Q 1578 3097 1268 2742 
Q 959 2388 959 1747 
Q 959 1106 1268 751 
Q 1578 397 2138 397 
Q 2388 397 2633 464 
Q 2878 531 3122 666 
L 3122 134 
Q 2881 22 2623 -34 
Q 2366 -91 2075 -91 
Q 1284 -91 818 406 
Q 353 903 353 1747 
Q 353 2603 823 3093 
Q 1294 3584 2113 3584 
Q 2378 3584 2631 3529 
Q 2884 3475 3122 3366 
z
" transform="scale(0.015625)"/>
      <path id="DejaVuSans-4d" d="M 628 4666 
L 1569 4666 
L 2759 1491 
L 3956 4666 
L 4897 4666 
L 4897 0 
L 4281 0 
L 4281 4097 
L 3078 897 
L 2444 897 
L 1241 4097 
L 1241 0 
L 628 0 
L 628 4666 
z
" transform="scale(0.015625)"/>
      <path id="DejaVuSans-73" d="M 2834 3397 
L 2834 2853 
Q 2591 2978 2328 3040 
Q 2066 3103 1784 3103 
Q 1356 3103 1142 2972 
Q 928 2841 928 2578 
Q 928 2378 1081 2264 
Q 1234 2150 1697 2047 
L 1894 2003 
Q 2506 1872 2764 1633 
Q 3022 1394 3022 966 
Q 3022 478 2636 193 
Q 2250 -91 1575 -91 
Q 1294 -91 989 -36 
Q 684 19 347 128 
L 347 722 
Q 666 556 975 473 
Q 1284 391 1588 391 
Q 1994 391 2212 530 
Q 2431 669 2431 922 
Q 2431 1156 2273 1281 
Q 2116 1406 1581 1522 
L 1381 1569 
Q 847 1681 609 1914 
Q 372 2147 372 2553 
Q 372 3047 722 3315 
Q 1072 3584 1716 3584 
Q 2034 3584 2315 3537 
Q 2597 3491 2834 3397 
z
" transform="scale(0.015625)"/>
     </defs>
     <use xlink:href="#DejaVuSans-50"/>
     <use xlink:href="#DejaVuSans-65" x="56.677734"/>
     <use xlink:href="#DejaVuSans-6c" x="118.201172"/>
     <use xlink:href="#DejaVuSans-6c" x="145.984375"/>
     <use xlink:href="#DejaVuSans-65" x="173.767578"/>
     <use xlink:href="#DejaVuSans-74" x="235.291016"/>
     <use xlink:href="#DejaVuSans-20" x="274.5"/>
     <use xlink:href="#DejaVuSans-43" x="306.287109"/>
     <use xlink:href="#DejaVuSans-6f" x="376.111328"/>
     <use xlink:href="#DejaVuSans-75" x="437.292969"/>
     <use xlink:href="#DejaVuSans-6e" x="500.671875"/>
     <use xlink:href="#DejaVuSans-74" x="564.050781"/>
     <use xlink:href="#DejaVuSans-20" x="603.259766"/>
     <use xlink:href="#DejaVuSans-61" x="635.046875"/>
     <use xlink:href="#DejaVuSans-6e" x="696.326172"/>
     <use xlink:href="#DejaVuSans-64" x="759.705078"/>
     <use xlink:href="#DejaVuSans-20" x="823.181641"/>
     <use xlink:href="#DejaVuSans-43" x="854.96875"/>
     <use xlink:href="#DejaVuSans-75" x="924.792969"/>
     <use xlink:href="#DejaVuSans-6d" x="988.171875"/>
     <use xlink:href="#DejaVuSans-75" x="1085.583984"/>
     <use xlink:href="#DejaVuSans-6c" x="1148.962891"/>
     <use xlink:href="#DejaVuSans-61" x="1176.746094"/>
     <use xlink:href="#DejaVuSans-74" x="1238.025391"/>
     <use xlink:href="#DejaVuSans-69" x="1277.234375"/>
     <use xlink:href="#DejaVuSans-76" x="1305.017578"/>
     <use xlink:href="#DejaVuSans-65" x="1364.197266"/>
     <use xlink:href="#DejaVuSans-20" x="1425.720703"/>
     <use xlink:href="#DejaVuSans-53" x="1457.507812"/>
     <use xlink:href="#DejaVuSans-75" x="1520.984375"/>
     <use xlink:href="#DejaVuSans-6d" x="1584.363281"/>
     <use xlink:href="#DejaVuSans-20" x="1681.775391"/>
     <use xlink:href="#DejaVuSans-4f" x="1713.5625"/>
     <use xlink:href="#DejaVuSans-76" x="1792.273438"/>
     <use xlink:href="#DejaVuSans-65" x="1851.453125"/>
     <use xlink:href="#DejaVuSans-72" x="1912.976562"/>
     <use xlink:href="#DejaVuSans-20" x="1954.089844"/>
     <use xlink:href="#DejaVuSans-54" x="1985.876953"/>
     <use xlink:href="#DejaVuSans-69" x="2043.835938"/>
     <use xlink:href="#DejaVuSans-6d" x="2071.619141"/>
     <use xlink:href="#DejaVuSans-65" x="2169.03125"/>
     <use xlink:href="#DejaVuSans-20" x="2230.554688"/>
     <use xlink:href="#DejaVuSans-6f" x="2262.341797"/>
     <use xlink:href="#DejaVuSans-66" x="2323.523438"/>
     <use xlink:href="#DejaVuSans-20" x="2358.728516"/>
     <use xlink:href="#DejaVuSans-47" x="2390.515625"/>
     <use xlink:href="#DejaVuSans-72" x="2468.005859"/>
     <use xlink:href="#DejaVuSans-6f" x="2506.869141"/>
     <use xlink:href="#DejaVuSans-75" x="2568.050781"/>
     <use xlink:href="#DejaVuSans-70" x="2631.429688"/>
     <use xlink:href="#DejaVuSans-20" x="2694.90625"/>
     <use xlink:href="#DejaVuSans-63" x="2726.693359"/>
     <use xlink:href="#DejaVuSans-74" x="2781.673828"/>
     <use xlink:href="#DejaVuSans-72" x="2820.882812"/>
     <use xlink:href="#DejaVuSans-6c" x="2861.996094"/>
     <use xlink:href="#DejaVuSans-20" x="2889.779297"/>
     <use xlink:href="#DejaVuSans-4d" x="2921.566406"/>
     <use xlink:href="#DejaVuSans-6f" x="3007.845703"/>
     <use xlink:href="#DejaVuSans-75" x="3069.027344"/>
     <use xlink:href="#DejaVuSans-73" x="3132.40625"/>
     <use xlink:href="#DejaVuSans-65" x="3184.505859"/>
     <use xlink:href="#DejaVuSans-20" x="3246.029297"/>
     <use xlink:href="#DejaVuSans-4d" x="3277.816406"/>
     <use xlink:href="#DejaVuSans-35" x="3364.095703"/>
     <use xlink:href="#DejaVuSans-33" x="3427.71875"/>
    </g>
   </g>
   <g id="legend_1">
    <g id="patch_39">
     <path d="M 1086.550625 64.233437 
L 1158.235 64.233437 
Q 1160.235 64.233437 1160.235 62.233437 
L 1160.235 33.877187 
Q 1160.235 31.877187 1158.235 31.877187 
L 1086.550625 31.877187 
Q 1084.550625 31.877187 1084.550625 33.877187 
L 1084.550625 62.233437 
Q 1084.550625 64.233437 1086.550625 64.233437 
z
" style="fill: #ffffff; opacity: 0.8; stroke: #cccccc; stroke-linejoin: miter"/>
    </g>
    <g id="patch_40">
     <path d="M 1088.550625 43.475625 
L 1108.550625 43.475625 
L 1108.550625 36.475625 
L 1088.550625 36.475625 
z
" style="fill: #add8e6; opacity: 0.9; stroke: #add8e6; stroke-linejoin: miter"/>
    </g>
    <g id="text_20">
     <!-- Meal -->
     <g transform="translate(1116.550625 43.475625) scale(0.1 -0.1)">
      <use xlink:href="#DejaVuSans-4d"/>
      <use xlink:href="#DejaVuSans-65" x="86.279297"/>
      <use xlink:href="#DejaVuSans-61" x="147.802734"/>
      <use xlink:href="#DejaVuSans-6c" x="209.082031"/>
     </g>
    </g>
    <g id="patch_41">
     <path d="M 1088.550625 58.15375 
L 1108.550625 58.15375 
L 1108.550625 51.15375 
L 1088.550625 51.15375 
z
" style="fill: #808080; opacity: 0.5; stroke: #808080; stroke-linejoin: miter"/>
    </g>
    <g id="text_21">
     <!-- Inactive -->
     <g transform="translate(1116.550625 58.15375) scale(0.1 -0.1)">
      <defs>
       <path id="DejaVuSans-49" d="M 628 4666 
L 1259 4666 
L 1259 0 
L 628 0 
L 628 4666 
z
" transform="scale(0.015625)"/>
      </defs>
      <use xlink:href="#DejaVuSans-49"/>
      <use xlink:href="#DejaVuSans-6e" x="29.492188"/>
      <use xlink:href="#DejaVuSans-61" x="92.871094"/>
      <use xlink:href="#DejaVuSans-63" x="154.150391"/>
      <use xlink:href="#DejaVuSans-74" x="209.130859"/>
      <use xlink:href="#DejaVuSans-69" x="248.339844"/>
      <use xlink:href="#DejaVuSans-76" x="276.123047"/>
      <use xlink:href="#DejaVuSans-65" x="335.302734"/>
     </g>
    </g>
   </g>
  </g>
 </g>
 <defs>
  <clipPath id="pbbbe636ceb">
   <rect x="49.235" y="26.877187" width="1116" height="332.64"/>
  </clipPath>
 </defs>
</svg>
