<?xml version="1.0" encoding="utf-8" standalone="no"?>
<!DOCTYPE svg PUBLIC "-//W3C//DTD SVG 1.1//EN"
  "http://www.w3.org/Graphics/SVG/1.1/DTD/svg11.dtd">
<svg xmlns:xlink="http://www.w3.org/1999/xlink" width="1172.435pt" height="399.009062pt" viewBox="0 0 1172.435 399.009062" xmlns="http://www.w3.org/2000/svg" version="1.1">
 <metadata>
  <rdf:RDF xmlns:dc="http://purl.org/dc/elements/1.1/" xmlns:cc="http://creativecommons.org/ns#" xmlns:rdf="http://www.w3.org/1999/02/22-rdf-syntax-ns#">
   <cc:Work>
    <dc:type rdf:resource="http://purl.org/dc/dcmitype/StillImage"/>
    <dc:date>2025-10-02T16:54:51.240421</dc:date>
    <dc:format>image/svg+xml</dc:format>
    <dc:creator>
     <cc:Agent>
      <dc:title>Matplotlib v3.8.4, https://matplotlib.org/</dc:title>
     </cc:Agent>
    </dc:creator>
   </cc:Work>
  </rdf:RDF>
 </metadata>
 <defs>
  <style type="text/css">*{stroke-linejoin: round; stroke-linecap: butt}</style>
 </defs>
 <g id="figure_1">
  <g id="patch_1">
   <path d="M 0 399.009062 
L 1172.435 399.009062 
L 1172.435 0 
L 0 0 
z
" style="fill: #ffffff"/>
  </g>
  <g id="axes_1">
   <g id="patch_2">
    <path d="M 49.235 359.517187 
L 1165.235 359.517187 
L 1165.235 26.877187 
L 49.235 26.877187 
z
" style="fill: #ffffff"/>
   </g>
   <g id="patch_3">
    <path d="M 194.893362 359.517187 
L 194.893362 26.877187 
L 178.505447 26.877187 
L 178.505447 359.517187 
z
" clip-path="url(#p130c29076f)" style="fill: #add8e6; stroke: #add8e6; stroke-linejoin: miter"/>
   </g>
   <g id="patch_4">
    <path d="M 220.864931 359.517187 
L 220.864931 26.877187 
L 221.059775 26.877187 
L 221.059775 359.517187 
z
" clip-path="url(#p130c29076f)" style="fill: #add8e6; stroke: #add8e6; stroke-linejoin: miter"/>
   </g>
   <g id="patch_5">
    <path d="M 222.672014 359.517187 
L 222.672014 26.877187 
L 222.062649 26.877187 
L 222.062649 359.517187 
z
" clip-path="url(#p130c29076f)" style="fill: #add8e6; stroke: #add8e6; stroke-linejoin: miter"/>
   </g>
   <g id="patch_6">
    <path d="M 224.800017 359.517187 
L 224.800017 26.877187 
L 224.523033 26.877187 
L 224.523033 359.517187 
z
" clip-path="url(#p130c29076f)" style="fill: #add8e6; stroke: #add8e6; stroke-linejoin: miter"/>
   </g>
   <g id="patch_7">
    <path d="M 225.854468 359.517187 
L 225.854468 26.877187 
L 225.814353 26.877187 
L 225.814353 359.517187 
z
" clip-path="url(#p130c29076f)" style="fill: #add8e6; stroke: #add8e6; stroke-linejoin: miter"/>
   </g>
   <g id="patch_8">
    <path d="M 231.62147 359.517187 
L 231.62147 26.877187 
L 231.474382 26.877187 
L 231.474382 359.517187 
z
" clip-path="url(#p130c29076f)" style="fill: #add8e6; stroke: #add8e6; stroke-linejoin: miter"/>
   </g>
   <g id="patch_9">
    <path d="M 251.210941 359.517187 
L 251.210941 26.877187 
L 251.459271 26.877187 
L 251.459271 359.517187 
z
" clip-path="url(#p130c29076f)" style="fill: #add8e6; stroke: #add8e6; stroke-linejoin: miter"/>
   </g>
   <g id="patch_10">
    <path d="M 253.558621 359.517187 
L 253.558621 26.877187 
L 252.830821 26.877187 
L 252.830821 359.517187 
z
" clip-path="url(#p130c29076f)" style="fill: #add8e6; stroke: #add8e6; stroke-linejoin: miter"/>
   </g>
   <g id="patch_11">
    <path d="M 254.387663 359.517187 
L 254.387663 26.877187 
L 253.459288 26.877187 
L 253.459288 359.517187 
z
" clip-path="url(#p130c29076f)" style="fill: #add8e6; stroke: #add8e6; stroke-linejoin: miter"/>
   </g>
   <g id="patch_12">
    <path d="M 259.174715 359.517187 
L 259.174715 26.877187 
L 259.182356 26.877187 
L 259.182356 359.517187 
z
" clip-path="url(#p130c29076f)" style="fill: #add8e6; stroke: #add8e6; stroke-linejoin: miter"/>
   </g>
   <g id="patch_13">
    <path d="M 281.369747 359.517187 
L 281.369747 26.877187 
L 281.493912 26.877187 
L 281.493912 359.517187 
z
" clip-path="url(#p130c29076f)" style="fill: #add8e6; stroke: #add8e6; stroke-linejoin: miter"/>
   </g>
   <g id="patch_14">
    <path d="M 299.507438 359.517187 
L 299.507438 26.877187 
L 299.667898 26.877187 
L 299.667898 359.517187 
z
" clip-path="url(#p130c29076f)" style="fill: #add8e6; stroke: #add8e6; stroke-linejoin: miter"/>
   </g>
   <g id="patch_15">
    <path d="M 301.068101 359.517187 
L 301.068101 26.877187 
L 300.963038 26.877187 
L 300.963038 359.517187 
z
" clip-path="url(#p130c29076f)" style="fill: #add8e6; stroke: #add8e6; stroke-linejoin: miter"/>
   </g>
   <g id="patch_16">
    <path d="M 320.804659 359.517187 
L 320.804659 26.877187 
L 320.267883 26.877187 
L 320.267883 359.517187 
z
" clip-path="url(#p130c29076f)" style="fill: #add8e6; stroke: #add8e6; stroke-linejoin: miter"/>
   </g>
   <g id="patch_17">
    <path d="M 322.619384 359.517187 
L 322.619384 26.877187 
L 320.986132 26.877187 
L 320.986132 359.517187 
z
" clip-path="url(#p130c29076f)" style="fill: #add8e6; stroke: #add8e6; stroke-linejoin: miter"/>
   </g>
   <g id="patch_18">
    <path d="M 380.201538 359.517187 
L 380.201538 26.877187 
L 356.474497 26.877187 
L 356.474497 359.517187 
z
" clip-path="url(#p130c29076f)" style="fill: #add8e6; stroke: #add8e6; stroke-linejoin: miter"/>
   </g>
   <g id="patch_19">
    <path d="M 361.572917 359.517187 
L 361.572917 26.877187 
L 360.887142 26.877187 
L 360.887142 359.517187 
z
" clip-path="url(#p130c29076f)" style="fill: #add8e6; stroke: #add8e6; stroke-linejoin: miter"/>
   </g>
   <g id="patch_20">
    <path d="M 406.423348 359.517187 
L 406.423348 26.877187 
L 405.886572 26.877187 
L 405.886572 359.517187 
z
" clip-path="url(#p130c29076f)" style="fill: #add8e6; stroke: #add8e6; stroke-linejoin: miter"/>
   </g>
   <g id="patch_21">
    <path d="M 427.842825 359.517187 
L 427.842825 26.877187 
L 428.412075 26.877187 
L 428.412075 359.517187 
z
" clip-path="url(#p130c29076f)" style="fill: #add8e6; stroke: #add8e6; stroke-linejoin: miter"/>
   </g>
   <g id="patch_22">
    <path d="M 429.489448 359.517187 
L 429.489448 26.877187 
L 429.487538 26.877187 
L 429.487538 359.517187 
z
" clip-path="url(#p130c29076f)" style="fill: #add8e6; stroke: #add8e6; stroke-linejoin: miter"/>
   </g>
   <g id="patch_23">
    <path d="M 445.472393 359.517187 
L 445.472393 26.877187 
L 445.921299 26.877187 
L 445.921299 359.517187 
z
" clip-path="url(#p130c29076f)" style="fill: #add8e6; stroke: #add8e6; stroke-linejoin: miter"/>
   </g>
   <g id="patch_24">
    <path d="M 466.945356 359.517187 
L 466.945356 26.877187 
L 467.308301 26.877187 
L 467.308301 359.517187 
z
" clip-path="url(#p130c29076f)" style="fill: #add8e6; stroke: #add8e6; stroke-linejoin: miter"/>
   </g>
   <g id="patch_25">
    <path d="M 468.043742 359.517187 
L 468.043742 26.877187 
L 468.689402 26.877187 
L 468.689402 359.517187 
z
" clip-path="url(#p130c29076f)" style="fill: #add8e6; stroke: #add8e6; stroke-linejoin: miter"/>
   </g>
   <g id="patch_26">
    <path d="M 534.223869 359.517187 
L 534.223869 26.877187 
L 534.518045 26.877187 
L 534.518045 359.517187 
z
" clip-path="url(#p130c29076f)" style="fill: #add8e6; stroke: #add8e6; stroke-linejoin: miter"/>
   </g>
   <g id="patch_27">
    <path d="M 535.946902 359.517187 
L 535.946902 26.877187 
L 536.111182 26.877187 
L 536.111182 359.517187 
z
" clip-path="url(#p130c29076f)" style="fill: #add8e6; stroke: #add8e6; stroke-linejoin: miter"/>
   </g>
   <g id="patch_28">
    <path d="M 536.913481 359.517187 
L 536.913481 26.877187 
L 537.698588 26.877187 
L 537.698588 359.517187 
z
" clip-path="url(#p130c29076f)" style="fill: #add8e6; stroke: #add8e6; stroke-linejoin: miter"/>
   </g>
   <g id="patch_29">
    <path d="M 618.268523 359.517187 
L 618.268523 26.877187 
L 618.222678 26.877187 
L 618.222678 359.517187 
z
" clip-path="url(#p130c29076f)" style="fill: #add8e6; stroke: #add8e6; stroke-linejoin: miter"/>
   </g>
   <g id="patch_30">
    <path d="M 618.839684 359.517187 
L 618.839684 26.877187 
L 618.828222 26.877187 
L 618.828222 359.517187 
z
" clip-path="url(#p130c29076f)" style="fill: #add8e6; stroke: #add8e6; stroke-linejoin: miter"/>
   </g>
   <g id="patch_31">
    <path d="M 621.095673 359.517187 
L 621.095673 26.877187 
L 622.239904 26.877187 
L 622.239904 359.517187 
z
" clip-path="url(#p130c29076f)" style="fill: #add8e6; stroke: #add8e6; stroke-linejoin: miter"/>
   </g>
   <g id="patch_32">
    <path d="M 666.016783 359.517187 
L 666.016783 26.877187 
L 667.075054 26.877187 
L 667.075054 359.517187 
z
" clip-path="url(#p130c29076f)" style="fill: #add8e6; stroke: #add8e6; stroke-linejoin: miter"/>
   </g>
   <g id="patch_33">
    <path d="M 670.807655 359.517187 
L 670.807655 26.877187 
L 670.207841 26.877187 
L 670.207841 359.517187 
z
" clip-path="url(#p130c29076f)" style="fill: #add8e6; stroke: #add8e6; stroke-linejoin: miter"/>
   </g>
   <g id="patch_34">
    <path d="M 713.575929 359.517187 
L 713.575929 26.877187 
L 714.376318 26.877187 
L 714.376318 359.517187 
z
" clip-path="url(#p130c29076f)" style="fill: #add8e6; stroke: #add8e6; stroke-linejoin: miter"/>
   </g>
   <g id="patch_35">
    <path d="M 715.010516 359.517187 
L 715.010516 26.877187 
L 714.668584 26.877187 
L 714.668584 359.517187 
z
" clip-path="url(#p130c29076f)" style="fill: #add8e6; stroke: #add8e6; stroke-linejoin: miter"/>
   </g>
   <g id="patch_36">
    <path d="M 766.478006 359.517187 
L 766.478006 26.877187 
L 766.951744 26.877187 
L 766.951744 359.517187 
z
" clip-path="url(#p130c29076f)" style="fill: #add8e6; stroke: #add8e6; stroke-linejoin: miter"/>
   </g>
   <g id="patch_37">
    <path d="M 767.786517 359.517187 
L 767.786517 26.877187 
L 767.299407 26.877187 
L 767.299407 359.517187 
z
" clip-path="url(#p130c29076f)" style="fill: #add8e6; stroke: #add8e6; stroke-linejoin: miter"/>
   </g>
   <g id="patch_38">
    <path d="M 768.745456 359.517187 
L 768.745456 26.877187 
L 768.867711 26.877187 
L 768.867711 359.517187 
z
" clip-path="url(#p130c29076f)" style="fill: #add8e6; stroke: #add8e6; stroke-linejoin: miter"/>
   </g>
   <g id="patch_39">
    <path d="M 818.344734 359.517187 
L 818.344734 26.877187 
L 819.248276 26.877187 
L 819.248276 359.517187 
z
" clip-path="url(#p130c29076f)" style="fill: #add8e6; stroke: #add8e6; stroke-linejoin: miter"/>
   </g>
   <g id="patch_40">
    <path d="M 845.500649 359.517187 
L 845.500649 26.877187 
L 846.47296 26.877187 
L 846.47296 359.517187 
z
" clip-path="url(#p130c29076f)" style="fill: #add8e6; stroke: #add8e6; stroke-linejoin: miter"/>
   </g>
   <g id="patch_41">
    <path d="M 848.035533 359.517187 
L 848.035533 26.877187 
L 848.089019 26.877187 
L 848.089019 359.517187 
z
" clip-path="url(#p130c29076f)" style="fill: #add8e6; stroke: #add8e6; stroke-linejoin: miter"/>
   </g>
   <g id="patch_42">
    <path d="M 886.660505 359.517187 
L 886.660505 26.877187 
L 887.713045 26.877187 
L 887.713045 359.517187 
z
" clip-path="url(#p130c29076f)" style="fill: #add8e6; stroke: #add8e6; stroke-linejoin: miter"/>
   </g>
   <g id="patch_43">
    <path d="M 915.894757 359.517187 
L 915.894757 26.877187 
L 917.298781 26.877187 
L 917.298781 359.517187 
z
" clip-path="url(#p130c29076f)" style="fill: #add8e6; stroke: #add8e6; stroke-linejoin: miter"/>
   </g>
   <g id="patch_44">
    <path d="M 978.930636 359.517187 
L 978.930636 26.877187 
L 951.874053 26.877187 
L 951.874053 359.517187 
z
" clip-path="url(#p130c29076f)" style="fill: #add8e6; stroke: #add8e6; stroke-linejoin: miter"/>
   </g>
   <g id="patch_45">
    <path d="M 959.102386 359.517187 
L 959.102386 26.877187 
L 959.201718 26.877187 
L 959.201718 359.517187 
z
" clip-path="url(#p130c29076f)" style="fill: #add8e6; stroke: #add8e6; stroke-linejoin: miter"/>
   </g>
   <g id="patch_46">
    <path d="M 970.321202 359.517187 
L 970.321202 26.877187 
L 970.972592 26.877187 
L 970.972592 359.517187 
z
" clip-path="url(#p130c29076f)" style="fill: #add8e6; stroke: #add8e6; stroke-linejoin: miter"/>
   </g>
   <g id="patch_47">
    <path d="M 980.456914 359.517187 
L 980.456914 26.877187 
L 980.689963 26.877187 
L 980.689963 359.517187 
z
" clip-path="url(#p130c29076f)" style="fill: #add8e6; stroke: #add8e6; stroke-linejoin: miter"/>
   </g>
   <g id="patch_48">
    <path d="M 985.345208 359.517187 
L 985.345208 26.877187 
L 985.165646 26.877187 
L 985.165646 359.517187 
z
" clip-path="url(#p130c29076f)" style="fill: #add8e6; stroke: #add8e6; stroke-linejoin: miter"/>
   </g>
   <g id="patch_49">
    <path d="M 993.137061 359.517187 
L 993.137061 26.877187 
L 994.036782 26.877187 
L 994.036782 359.517187 
z
" clip-path="url(#p130c29076f)" style="fill: #add8e6; stroke: #add8e6; stroke-linejoin: miter"/>
   </g>
   <g id="patch_50">
    <path d="M 1000.680583 359.517187 
L 1000.680583 26.877187 
L 997.305196 26.877187 
L 997.305196 359.517187 
z
" clip-path="url(#p130c29076f)" style="fill: #add8e6; stroke: #add8e6; stroke-linejoin: miter"/>
   </g>
   <g id="patch_51">
    <path d="M 1003.805729 359.517187 
L 1003.805729 26.877187 
L 1004.776129 26.877187 
L 1004.776129 359.517187 
z
" clip-path="url(#p130c29076f)" style="fill: #add8e6; stroke: #add8e6; stroke-linejoin: miter"/>
   </g>
   <g id="patch_52">
    <path d="M 1016.417107 359.517187 
L 1016.417107 26.877187 
L 1016.430479 26.877187 
L 1016.430479 359.517187 
z
" clip-path="url(#p130c29076f)" style="fill: #add8e6; stroke: #add8e6; stroke-linejoin: miter"/>
   </g>
   <g id="patch_53">
    <path d="M 1020.610076 359.517187 
L 1020.610076 26.877187 
L 1020.583332 26.877187 
L 1020.583332 359.517187 
z
" clip-path="url(#p130c29076f)" style="fill: #add8e6; stroke: #add8e6; stroke-linejoin: miter"/>
   </g>
   <g id="patch_54">
    <path d="M 1035.399123 359.517187 
L 1035.399123 26.877187 
L 1033.385734 26.877187 
L 1033.385734 359.517187 
z
" clip-path="url(#p130c29076f)" style="fill: #add8e6; stroke: #add8e6; stroke-linejoin: miter"/>
   </g>
   <g id="patch_55">
    <path d="M 1039.842332 359.517187 
L 1039.842332 26.877187 
L 1040.486081 26.877187 
L 1040.486081 359.517187 
z
" clip-path="url(#p130c29076f)" style="fill: #add8e6; stroke: #add8e6; stroke-linejoin: miter"/>
   </g>
   <g id="patch_56">
    <path d="M 1053.880656 359.517187 
L 1053.880656 26.877187 
L 1053.733568 26.877187 
L 1053.733568 359.517187 
z
" clip-path="url(#p130c29076f)" style="fill: #add8e6; stroke: #add8e6; stroke-linejoin: miter"/>
   </g>
   <g id="patch_57">
    <path d="M 1054.434625 359.517187 
L 1054.434625 26.877187 
L 1054.102244 26.877187 
L 1054.102244 359.517187 
z
" clip-path="url(#p130c29076f)" style="fill: #add8e6; stroke: #add8e6; stroke-linejoin: miter"/>
   </g>
   <g id="patch_58">
    <path d="M 1066.379331 359.517187 
L 1066.379331 26.877187 
L 1067.319167 26.877187 
L 1067.319167 359.517187 
z
" clip-path="url(#p130c29076f)" style="fill: #add8e6; stroke: #add8e6; stroke-linejoin: miter"/>
   </g>
   <g id="patch_59">
    <path d="M 1078.879915 359.517187 
L 1078.879915 26.877187 
L 1078.660238 26.877187 
L 1078.660238 359.517187 
z
" clip-path="url(#p130c29076f)" style="fill: #add8e6; stroke: #add8e6; stroke-linejoin: miter"/>
   </g>
   <g id="patch_60">
    <path d="M 1113.873529 359.517187 
L 1113.873529 26.877187 
L 1114.507727 26.877187 
L 1114.507727 359.517187 
z
" clip-path="url(#p130c29076f)" style="fill: #add8e6; stroke: #add8e6; stroke-linejoin: miter"/>
   </g>
   <g id="patch_61">
    <path d="M 420.881925 359.517187 
L 420.881925 26.877187 
L 833.492906 26.877187 
L 833.492906 359.517187 
z
" clip-path="url(#p130c29076f)" style="fill: #808080; opacity: 0.4; stroke: #808080; stroke-linejoin: miter"/>
   </g>
   <g id="matplotlib.axis_1">
    <g id="xtick_1">
     <g id="line2d_1">
      <defs>
       <path id="m1eb96505d2" d="M 0 0 
L 0 3.5 
" style="stroke: #000000; stroke-width: 0.8"/>
      </defs>
      <g>
       <use xlink:href="#m1eb96505d2" x="70.439575" y="359.517187" style="stroke: #000000; stroke-width: 0.8"/>
      </g>
     </g>
     <g id="text_1">
      <!-- 03-26 09 -->
      <g transform="translate(47.959106 374.115625) scale(0.1 -0.1)">
       <defs>
        <path id="DejaVuSans-30" d="M 2034 4250 
Q 1547 4250 1301 3770 
Q 1056 3291 1056 2328 
Q 1056 1369 1301 889 
Q 1547 409 2034 409 
Q 2525 409 2770 889 
Q 3016 1369 3016 2328 
Q 3016 3291 2770 3770 
Q 2525 4250 2034 4250 
z
M 2034 4750 
Q 2819 4750 3233 4129 
Q 3647 3509 3647 2328 
Q 3647 1150 3233 529 
Q 2819 -91 2034 -91 
Q 1250 -91 836 529 
Q 422 1150 422 2328 
Q 422 3509 836 4129 
Q 1250 4750 2034 4750 
z
" transform="scale(0.015625)"/>
        <path id="DejaVuSans-33" d="M 2597 2516 
Q 3050 2419 3304 2112 
Q 3559 1806 3559 1356 
Q 3559 666 3084 287 
Q 2609 -91 1734 -91 
Q 1441 -91 1130 -33 
Q 819 25 488 141 
L 488 750 
Q 750 597 1062 519 
Q 1375 441 1716 441 
Q 2309 441 2620 675 
Q 2931 909 2931 1356 
Q 2931 1769 2642 2001 
Q 2353 2234 1838 2234 
L 1294 2234 
L 1294 2753 
L 1863 2753 
Q 2328 2753 2575 2939 
Q 2822 3125 2822 3475 
Q 2822 3834 2567 4026 
Q 2313 4219 1838 4219 
Q 1578 4219 1281 4162 
Q 984 4106 628 3988 
L 628 4550 
Q 988 4650 1302 4700 
Q 1616 4750 1894 4750 
Q 2613 4750 3031 4423 
Q 3450 4097 3450 3541 
Q 3450 3153 3228 2886 
Q 3006 2619 2597 2516 
z
" transform="scale(0.015625)"/>
        <path id="DejaVuSans-2d" d="M 313 2009 
L 1997 2009 
L 1997 1497 
L 313 1497 
L 313 2009 
z
" transform="scale(0.015625)"/>
        <path id="DejaVuSans-32" d="M 1228 531 
L 3431 531 
L 3431 0 
L 469 0 
L 469 531 
Q 828 903 1448 1529 
Q 2069 2156 2228 2338 
Q 2531 2678 2651 2914 
Q 2772 3150 2772 3378 
Q 2772 3750 2511 3984 
Q 2250 4219 1831 4219 
Q 1534 4219 1204 4116 
Q 875 4013 500 3803 
L 500 4441 
Q 881 4594 1212 4672 
Q 1544 4750 1819 4750 
Q 2544 4750 2975 4387 
Q 3406 4025 3406 3419 
Q 3406 3131 3298 2873 
Q 3191 2616 2906 2266 
Q 2828 2175 2409 1742 
Q 1991 1309 1228 531 
z
" transform="scale(0.015625)"/>
        <path id="DejaVuSans-36" d="M 2113 2584 
Q 1688 2584 1439 2293 
Q 1191 2003 1191 1497 
Q 1191 994 1439 701 
Q 1688 409 2113 409 
Q 2538 409 2786 701 
Q 3034 994 3034 1497 
Q 3034 2003 2786 2293 
Q 2538 2584 2113 2584 
z
M 3366 4563 
L 3366 3988 
Q 3128 4100 2886 4159 
Q 2644 4219 2406 4219 
Q 1781 4219 1451 3797 
Q 1122 3375 1075 2522 
Q 1259 2794 1537 2939 
Q 1816 3084 2150 3084 
Q 2853 3084 3261 2657 
Q 3669 2231 3669 1497 
Q 3669 778 3244 343 
Q 2819 -91 2113 -91 
Q 1303 -91 875 529 
Q 447 1150 447 2328 
Q 447 3434 972 4092 
Q 1497 4750 2381 4750 
Q 2619 4750 2861 4703 
Q 3103 4656 3366 4563 
z
" transform="scale(0.015625)"/>
        <path id="DejaVuSans-20" transform="scale(0.015625)"/>
        <path id="DejaVuSans-39" d="M 703 97 
L 703 672 
Q 941 559 1184 500 
Q 1428 441 1663 441 
Q 2288 441 2617 861 
Q 2947 1281 2994 2138 
Q 2813 1869 2534 1725 
Q 2256 1581 1919 1581 
Q 1219 1581 811 2004 
Q 403 2428 403 3163 
Q 403 3881 828 4315 
Q 1253 4750 1959 4750 
Q 2769 4750 3195 4129 
Q 3622 3509 3622 2328 
Q 3622 1225 3098 567 
Q 2575 -91 1691 -91 
Q 1453 -91 1209 -44 
Q 966 3 703 97 
z
M 1959 2075 
Q 2384 2075 2632 2365 
Q 2881 2656 2881 3163 
Q 2881 3666 2632 3958 
Q 2384 4250 1959 4250 
Q 1534 4250 1286 3958 
Q 1038 3666 1038 3163 
Q 1038 2656 1286 2365 
Q 1534 2075 1959 2075 
z
" transform="scale(0.015625)"/>
       </defs>
       <use xlink:href="#DejaVuSans-30"/>
       <use xlink:href="#DejaVuSans-33" x="63.623047"/>
       <use xlink:href="#DejaVuSans-2d" x="127.246094"/>
       <use xlink:href="#DejaVuSans-32" x="163.330078"/>
       <use xlink:href="#DejaVuSans-36" x="226.953125"/>
       <use xlink:href="#DejaVuSans-20" x="290.576172"/>
       <use xlink:href="#DejaVuSans-30" x="322.363281"/>
       <use xlink:href="#DejaVuSans-39" x="385.986328"/>
      </g>
     </g>
    </g>
    <g id="xtick_2">
     <g id="line2d_2">
      <g>
       <use xlink:href="#m1eb96505d2" x="173.59232" y="359.517187" style="stroke: #000000; stroke-width: 0.8"/>
      </g>
     </g>
     <g id="text_2">
      <!-- 03-26 12 -->
      <g transform="translate(151.111852 374.115625) scale(0.1 -0.1)">
       <defs>
        <path id="DejaVuSans-31" d="M 794 531 
L 1825 531 
L 1825 4091 
L 703 3866 
L 703 4441 
L 1819 4666 
L 2450 4666 
L 2450 531 
L 3481 531 
L 3481 0 
L 794 0 
L 794 531 
z
" transform="scale(0.015625)"/>
       </defs>
       <use xlink:href="#DejaVuSans-30"/>
       <use xlink:href="#DejaVuSans-33" x="63.623047"/>
       <use xlink:href="#DejaVuSans-2d" x="127.246094"/>
       <use xlink:href="#DejaVuSans-32" x="163.330078"/>
       <use xlink:href="#DejaVuSans-36" x="226.953125"/>
       <use xlink:href="#DejaVuSans-20" x="290.576172"/>
       <use xlink:href="#DejaVuSans-31" x="322.363281"/>
       <use xlink:href="#DejaVuSans-32" x="385.986328"/>
      </g>
     </g>
    </g>
    <g id="xtick_3">
     <g id="line2d_3">
      <g>
       <use xlink:href="#m1eb96505d2" x="276.745066" y="359.517187" style="stroke: #000000; stroke-width: 0.8"/>
      </g>
     </g>
     <g id="text_3">
      <!-- 03-26 15 -->
      <g transform="translate(254.264597 374.115625) scale(0.1 -0.1)">
       <defs>
        <path id="DejaVuSans-35" d="M 691 4666 
L 3169 4666 
L 3169 4134 
L 1269 4134 
L 1269 2991 
Q 1406 3038 1543 3061 
Q 1681 3084 1819 3084 
Q 2600 3084 3056 2656 
Q 3513 2228 3513 1497 
Q 3513 744 3044 326 
Q 2575 -91 1722 -91 
Q 1428 -91 1123 -41 
Q 819 9 494 109 
L 494 744 
Q 775 591 1075 516 
Q 1375 441 1709 441 
Q 2250 441 2565 725 
Q 2881 1009 2881 1497 
Q 2881 1984 2565 2268 
Q 2250 2553 1709 2553 
Q 1456 2553 1204 2497 
Q 953 2441 691 2322 
L 691 4666 
z
" transform="scale(0.015625)"/>
       </defs>
       <use xlink:href="#DejaVuSans-30"/>
       <use xlink:href="#DejaVuSans-33" x="63.623047"/>
       <use xlink:href="#DejaVuSans-2d" x="127.246094"/>
       <use xlink:href="#DejaVuSans-32" x="163.330078"/>
       <use xlink:href="#DejaVuSans-36" x="226.953125"/>
       <use xlink:href="#DejaVuSans-20" x="290.576172"/>
       <use xlink:href="#DejaVuSans-31" x="322.363281"/>
       <use xlink:href="#DejaVuSans-35" x="385.986328"/>
      </g>
     </g>
    </g>
    <g id="xtick_4">
     <g id="line2d_4">
      <g>
       <use xlink:href="#m1eb96505d2" x="379.897811" y="359.517187" style="stroke: #000000; stroke-width: 0.8"/>
      </g>
     </g>
     <g id="text_4">
      <!-- 03-26 18 -->
      <g transform="translate(357.417342 374.115625) scale(0.1 -0.1)">
       <defs>
        <path id="DejaVuSans-38" d="M 2034 2216 
Q 1584 2216 1326 1975 
Q 1069 1734 1069 1313 
Q 1069 891 1326 650 
Q 1584 409 2034 409 
Q 2484 409 2743 651 
Q 3003 894 3003 1313 
Q 3003 1734 2745 1975 
Q 2488 2216 2034 2216 
z
M 1403 2484 
Q 997 2584 770 2862 
Q 544 3141 544 3541 
Q 544 4100 942 4425 
Q 1341 4750 2034 4750 
Q 2731 4750 3128 4425 
Q 3525 4100 3525 3541 
Q 3525 3141 3298 2862 
Q 3072 2584 2669 2484 
Q 3125 2378 3379 2068 
Q 3634 1759 3634 1313 
Q 3634 634 3220 271 
Q 2806 -91 2034 -91 
Q 1263 -91 848 271 
Q 434 634 434 1313 
Q 434 1759 690 2068 
Q 947 2378 1403 2484 
z
M 1172 3481 
Q 1172 3119 1398 2916 
Q 1625 2713 2034 2713 
Q 2441 2713 2670 2916 
Q 2900 3119 2900 3481 
Q 2900 3844 2670 4047 
Q 2441 4250 2034 4250 
Q 1625 4250 1398 4047 
Q 1172 3844 1172 3481 
z
" transform="scale(0.015625)"/>
       </defs>
       <use xlink:href="#DejaVuSans-30"/>
       <use xlink:href="#DejaVuSans-33" x="63.623047"/>
       <use xlink:href="#DejaVuSans-2d" x="127.246094"/>
       <use xlink:href="#DejaVuSans-32" x="163.330078"/>
       <use xlink:href="#DejaVuSans-36" x="226.953125"/>
       <use xlink:href="#DejaVuSans-20" x="290.576172"/>
       <use xlink:href="#DejaVuSans-31" x="322.363281"/>
       <use xlink:href="#DejaVuSans-38" x="385.986328"/>
      </g>
     </g>
    </g>
    <g id="xtick_5">
     <g id="line2d_5">
      <g>
       <use xlink:href="#m1eb96505d2" x="483.050556" y="359.517187" style="stroke: #000000; stroke-width: 0.8"/>
      </g>
     </g>
     <g id="text_5">
      <!-- 03-26 21 -->
      <g transform="translate(460.570087 374.115625) scale(0.1 -0.1)">
       <use xlink:href="#DejaVuSans-30"/>
       <use xlink:href="#DejaVuSans-33" x="63.623047"/>
       <use xlink:href="#DejaVuSans-2d" x="127.246094"/>
       <use xlink:href="#DejaVuSans-32" x="163.330078"/>
       <use xlink:href="#DejaVuSans-36" x="226.953125"/>
       <use xlink:href="#DejaVuSans-20" x="290.576172"/>
       <use xlink:href="#DejaVuSans-32" x="322.363281"/>
       <use xlink:href="#DejaVuSans-31" x="385.986328"/>
      </g>
     </g>
    </g>
    <g id="xtick_6">
     <g id="line2d_6">
      <g>
       <use xlink:href="#m1eb96505d2" x="586.203301" y="359.517187" style="stroke: #000000; stroke-width: 0.8"/>
      </g>
     </g>
     <g id="text_6">
      <!-- 03-27 00 -->
      <g transform="translate(563.722833 374.115625) scale(0.1 -0.1)">
       <defs>
        <path id="DejaVuSans-37" d="M 525 4666 
L 3525 4666 
L 3525 4397 
L 1831 0 
L 1172 0 
L 2766 4134 
L 525 4134 
L 525 4666 
z
" transform="scale(0.015625)"/>
       </defs>
       <use xlink:href="#DejaVuSans-30"/>
       <use xlink:href="#DejaVuSans-33" x="63.623047"/>
       <use xlink:href="#DejaVuSans-2d" x="127.246094"/>
       <use xlink:href="#DejaVuSans-32" x="163.330078"/>
       <use xlink:href="#DejaVuSans-37" x="226.953125"/>
       <use xlink:href="#DejaVuSans-20" x="290.576172"/>
       <use xlink:href="#DejaVuSans-30" x="322.363281"/>
       <use xlink:href="#DejaVuSans-30" x="385.986328"/>
      </g>
     </g>
    </g>
    <g id="xtick_7">
     <g id="line2d_7">
      <g>
       <use xlink:href="#m1eb96505d2" x="689.356047" y="359.517187" style="stroke: #000000; stroke-width: 0.8"/>
      </g>
     </g>
     <g id="text_7">
      <!-- 03-27 03 -->
      <g transform="translate(666.875578 374.115625) scale(0.1 -0.1)">
       <use xlink:href="#DejaVuSans-30"/>
       <use xlink:href="#DejaVuSans-33" x="63.623047"/>
       <use xlink:href="#DejaVuSans-2d" x="127.246094"/>
       <use xlink:href="#DejaVuSans-32" x="163.330078"/>
       <use xlink:href="#DejaVuSans-37" x="226.953125"/>
       <use xlink:href="#DejaVuSans-20" x="290.576172"/>
       <use xlink:href="#DejaVuSans-30" x="322.363281"/>
       <use xlink:href="#DejaVuSans-33" x="385.986328"/>
      </g>
     </g>
    </g>
    <g id="xtick_8">
     <g id="line2d_8">
      <g>
       <use xlink:href="#m1eb96505d2" x="792.508792" y="359.517187" style="stroke: #000000; stroke-width: 0.8"/>
      </g>
     </g>
     <g id="text_8">
      <!-- 03-27 06 -->
      <g transform="translate(770.028323 374.115625) scale(0.1 -0.1)">
       <use xlink:href="#DejaVuSans-30"/>
       <use xlink:href="#DejaVuSans-33" x="63.623047"/>
       <use xlink:href="#DejaVuSans-2d" x="127.246094"/>
       <use xlink:href="#DejaVuSans-32" x="163.330078"/>
       <use xlink:href="#DejaVuSans-37" x="226.953125"/>
       <use xlink:href="#DejaVuSans-20" x="290.576172"/>
       <use xlink:href="#DejaVuSans-30" x="322.363281"/>
       <use xlink:href="#DejaVuSans-36" x="385.986328"/>
      </g>
     </g>
    </g>
    <g id="xtick_9">
     <g id="line2d_9">
      <g>
       <use xlink:href="#m1eb96505d2" x="895.661537" y="359.517187" style="stroke: #000000; stroke-width: 0.8"/>
      </g>
     </g>
     <g id="text_9">
      <!-- 03-27 09 -->
      <g transform="translate(873.181068 374.115625) scale(0.1 -0.1)">
       <use xlink:href="#DejaVuSans-30"/>
       <use xlink:href="#DejaVuSans-33" x="63.623047"/>
       <use xlink:href="#DejaVuSans-2d" x="127.246094"/>
       <use xlink:href="#DejaVuSans-32" x="163.330078"/>
       <use xlink:href="#DejaVuSans-37" x="226.953125"/>
       <use xlink:href="#DejaVuSans-20" x="290.576172"/>
       <use xlink:href="#DejaVuSans-30" x="322.363281"/>
       <use xlink:href="#DejaVuSans-39" x="385.986328"/>
      </g>
     </g>
    </g>
    <g id="xtick_10">
     <g id="line2d_10">
      <g>
       <use xlink:href="#m1eb96505d2" x="998.814282" y="359.517187" style="stroke: #000000; stroke-width: 0.8"/>
      </g>
     </g>
     <g id="text_10">
      <!-- 03-27 12 -->
      <g transform="translate(976.333814 374.115625) scale(0.1 -0.1)">
       <use xlink:href="#DejaVuSans-30"/>
       <use xlink:href="#DejaVuSans-33" x="63.623047"/>
       <use xlink:href="#DejaVuSans-2d" x="127.246094"/>
       <use xlink:href="#DejaVuSans-32" x="163.330078"/>
       <use xlink:href="#DejaVuSans-37" x="226.953125"/>
       <use xlink:href="#DejaVuSans-20" x="290.576172"/>
       <use xlink:href="#DejaVuSans-31" x="322.363281"/>
       <use xlink:href="#DejaVuSans-32" x="385.986328"/>
      </g>
     </g>
    </g>
    <g id="xtick_11">
     <g id="line2d_11">
      <g>
       <use xlink:href="#m1eb96505d2" x="1101.967028" y="359.517187" style="stroke: #000000; stroke-width: 0.8"/>
      </g>
     </g>
     <g id="text_11">
      <!-- 03-27 15 -->
      <g transform="translate(1079.486559 374.115625) scale(0.1 -0.1)">
       <use xlink:href="#DejaVuSans-30"/>
       <use xlink:href="#DejaVuSans-33" x="63.623047"/>
       <use xlink:href="#DejaVuSans-2d" x="127.246094"/>
       <use xlink:href="#DejaVuSans-32" x="163.330078"/>
       <use xlink:href="#DejaVuSans-37" x="226.953125"/>
       <use xlink:href="#DejaVuSans-20" x="290.576172"/>
       <use xlink:href="#DejaVuSans-31" x="322.363281"/>
       <use xlink:href="#DejaVuSans-35" x="385.986328"/>
      </g>
     </g>
    </g>
    <g id="text_12">
     <!-- Time -->
     <g transform="translate(592.554688 389.313437) scale(0.12 -0.12)">
      <defs>
       <path id="DejaVuSans-54" d="M -19 4666 
L 3928 4666 
L 3928 4134 
L 2272 4134 
L 2272 0 
L 1638 0 
L 1638 4134 
L -19 4134 
L -19 4666 
z
" transform="scale(0.015625)"/>
       <path id="DejaVuSans-69" d="M 603 3500 
L 1178 3500 
L 1178 0 
L 603 0 
L 603 3500 
z
M 603 4863 
L 1178 4863 
L 1178 4134 
L 603 4134 
L 603 4863 
z
" transform="scale(0.015625)"/>
       <path id="DejaVuSans-6d" d="M 3328 2828 
Q 3544 3216 3844 3400 
Q 4144 3584 4550 3584 
Q 5097 3584 5394 3201 
Q 5691 2819 5691 2113 
L 5691 0 
L 5113 0 
L 5113 2094 
Q 5113 2597 4934 2840 
Q 4756 3084 4391 3084 
Q 3944 3084 3684 2787 
Q 3425 2491 3425 1978 
L 3425 0 
L 2847 0 
L 2847 2094 
Q 2847 2600 2669 2842 
Q 2491 3084 2119 3084 
Q 1678 3084 1418 2786 
Q 1159 2488 1159 1978 
L 1159 0 
L 581 0 
L 581 3500 
L 1159 3500 
L 1159 2956 
Q 1356 3278 1631 3431 
Q 1906 3584 2284 3584 
Q 2666 3584 2933 3390 
Q 3200 3197 3328 2828 
z
" transform="scale(0.015625)"/>
       <path id="DejaVuSans-65" d="M 3597 1894 
L 3597 1613 
L 953 1613 
Q 991 1019 1311 708 
Q 1631 397 2203 397 
Q 2534 397 2845 478 
Q 3156 559 3463 722 
L 3463 178 
Q 3153 47 2828 -22 
Q 2503 -91 2169 -91 
Q 1331 -91 842 396 
Q 353 884 353 1716 
Q 353 2575 817 3079 
Q 1281 3584 2069 3584 
Q 2775 3584 3186 3129 
Q 3597 2675 3597 1894 
z
M 3022 2063 
Q 3016 2534 2758 2815 
Q 2500 3097 2075 3097 
Q 1594 3097 1305 2825 
Q 1016 2553 972 2059 
L 3022 2063 
z
" transform="scale(0.015625)"/>
      </defs>
      <use xlink:href="#DejaVuSans-54"/>
      <use xlink:href="#DejaVuSans-69" x="57.958984"/>
      <use xlink:href="#DejaVuSans-6d" x="85.742188"/>
      <use xlink:href="#DejaVuSans-65" x="183.154297"/>
     </g>
    </g>
   </g>
   <g id="matplotlib.axis_2">
    <g id="ytick_1">
     <g id="line2d_12">
      <defs>
       <path id="m5d5757d06a" d="M 0 0 
L -3.5 0 
" style="stroke: #000000; stroke-width: 0.8"/>
      </defs>
      <g>
       <use xlink:href="#m5d5757d06a" x="49.235" y="345.391924" style="stroke: #000000; stroke-width: 0.8"/>
      </g>
     </g>
     <g id="text_13">
      <!-- 0 -->
      <g transform="translate(35.8725 349.191143) scale(0.1 -0.1)">
       <use xlink:href="#DejaVuSans-30"/>
      </g>
     </g>
    </g>
    <g id="ytick_2">
     <g id="line2d_13">
      <g>
       <use xlink:href="#m5d5757d06a" x="49.235" y="295.655082" style="stroke: #000000; stroke-width: 0.8"/>
      </g>
     </g>
     <g id="text_14">
      <!-- 50 -->
      <g transform="translate(29.51 299.454301) scale(0.1 -0.1)">
       <use xlink:href="#DejaVuSans-35"/>
       <use xlink:href="#DejaVuSans-30" x="63.623047"/>
      </g>
     </g>
    </g>
    <g id="ytick_3">
     <g id="line2d_14">
      <g>
       <use xlink:href="#m5d5757d06a" x="49.235" y="245.91824" style="stroke: #000000; stroke-width: 0.8"/>
      </g>
     </g>
     <g id="text_15">
      <!-- 100 -->
      <g transform="translate(23.1475 249.717459) scale(0.1 -0.1)">
       <use xlink:href="#DejaVuSans-31"/>
       <use xlink:href="#DejaVuSans-30" x="63.623047"/>
       <use xlink:href="#DejaVuSans-30" x="127.246094"/>
      </g>
     </g>
    </g>
    <g id="ytick_4">
     <g id="line2d_15">
      <g>
       <use xlink:href="#m5d5757d06a" x="49.235" y="196.181398" style="stroke: #000000; stroke-width: 0.8"/>
      </g>
     </g>
     <g id="text_16">
      <!-- 150 -->
      <g transform="translate(23.1475 199.980617) scale(0.1 -0.1)">
       <use xlink:href="#DejaVuSans-31"/>
       <use xlink:href="#DejaVuSans-35" x="63.623047"/>
       <use xlink:href="#DejaVuSans-30" x="127.246094"/>
      </g>
     </g>
    </g>
    <g id="ytick_5">
     <g id="line2d_16">
      <g>
       <use xlink:href="#m5d5757d06a" x="49.235" y="146.444556" style="stroke: #000000; stroke-width: 0.8"/>
      </g>
     </g>
     <g id="text_17">
      <!-- 200 -->
      <g transform="translate(23.1475 150.243775) scale(0.1 -0.1)">
       <use xlink:href="#DejaVuSans-32"/>
       <use xlink:href="#DejaVuSans-30" x="63.623047"/>
       <use xlink:href="#DejaVuSans-30" x="127.246094"/>
      </g>
     </g>
    </g>
    <g id="ytick_6">
     <g id="line2d_17">
      <g>
       <use xlink:href="#m5d5757d06a" x="49.235" y="96.707714" style="stroke: #000000; stroke-width: 0.8"/>
      </g>
     </g>
     <g id="text_18">
      <!-- 250 -->
      <g transform="translate(23.1475 100.506933) scale(0.1 -0.1)">
       <use xlink:href="#DejaVuSans-32"/>
       <use xlink:href="#DejaVuSans-35" x="63.623047"/>
       <use xlink:href="#DejaVuSans-30" x="127.246094"/>
      </g>
     </g>
    </g>
    <g id="ytick_7">
     <g id="line2d_18">
      <g>
       <use xlink:href="#m5d5757d06a" x="49.235" y="46.970872" style="stroke: #000000; stroke-width: 0.8"/>
      </g>
     </g>
     <g id="text_19">
      <!-- 300 -->
      <g transform="translate(23.1475 50.77009) scale(0.1 -0.1)">
       <use xlink:href="#DejaVuSans-33"/>
       <use xlink:href="#DejaVuSans-30" x="63.623047"/>
       <use xlink:href="#DejaVuSans-30" x="127.246094"/>
      </g>
     </g>
    </g>
    <g id="text_20">
     <!-- Pellet_Count -->
     <g transform="translate(16.318125 230.485312) rotate(-90) scale(0.12 -0.12)">
      <defs>
       <path id="DejaVuSans-50" d="M 1259 4147 
L 1259 2394 
L 2053 2394 
Q 2494 2394 2734 2622 
Q 2975 2850 2975 3272 
Q 2975 3691 2734 3919 
Q 2494 4147 2053 4147 
L 1259 4147 
z
M 628 4666 
L 2053 4666 
Q 2838 4666 3239 4311 
Q 3641 3956 3641 3272 
Q 3641 2581 3239 2228 
Q 2838 1875 2053 1875 
L 1259 1875 
L 1259 0 
L 628 0 
L 628 4666 
z
" transform="scale(0.015625)"/>
       <path id="DejaVuSans-6c" d="M 603 4863 
L 1178 4863 
L 1178 0 
L 603 0 
L 603 4863 
z
" transform="scale(0.015625)"/>
       <path id="DejaVuSans-74" d="M 1172 4494 
L 1172 3500 
L 2356 3500 
L 2356 3053 
L 1172 3053 
L 1172 1153 
Q 1172 725 1289 603 
Q 1406 481 1766 481 
L 2356 481 
L 2356 0 
L 1766 0 
Q 1100 0 847 248 
Q 594 497 594 1153 
L 594 3053 
L 172 3053 
L 172 3500 
L 594 3500 
L 594 4494 
L 1172 4494 
z
" transform="scale(0.015625)"/>
       <path id="DejaVuSans-5f" d="M 3263 -1063 
L 3263 -1509 
L -63 -1509 
L -63 -1063 
L 3263 -1063 
z
" transform="scale(0.015625)"/>
       <path id="DejaVuSans-43" d="M 4122 4306 
L 4122 3641 
Q 3803 3938 3442 4084 
Q 3081 4231 2675 4231 
Q 1875 4231 1450 3742 
Q 1025 3253 1025 2328 
Q 1025 1406 1450 917 
Q 1875 428 2675 428 
Q 3081 428 3442 575 
Q 3803 722 4122 1019 
L 4122 359 
Q 3791 134 3420 21 
Q 3050 -91 2638 -91 
Q 1578 -91 968 557 
Q 359 1206 359 2328 
Q 359 3453 968 4101 
Q 1578 4750 2638 4750 
Q 3056 4750 3426 4639 
Q 3797 4528 4122 4306 
z
" transform="scale(0.015625)"/>
       <path id="DejaVuSans-6f" d="M 1959 3097 
Q 1497 3097 1228 2736 
Q 959 2375 959 1747 
Q 959 1119 1226 758 
Q 1494 397 1959 397 
Q 2419 397 2687 759 
Q 2956 1122 2956 1747 
Q 2956 2369 2687 2733 
Q 2419 3097 1959 3097 
z
M 1959 3584 
Q 2709 3584 3137 3096 
Q 3566 2609 3566 1747 
Q 3566 888 3137 398 
Q 2709 -91 1959 -91 
Q 1206 -91 779 398 
Q 353 888 353 1747 
Q 353 2609 779 3096 
Q 1206 3584 1959 3584 
z
" transform="scale(0.015625)"/>
       <path id="DejaVuSans-75" d="M 544 1381 
L 544 3500 
L 1119 3500 
L 1119 1403 
Q 1119 906 1312 657 
Q 1506 409 1894 409 
Q 2359 409 2629 706 
Q 2900 1003 2900 1516 
L 2900 3500 
L 3475 3500 
L 3475 0 
L 2900 0 
L 2900 538 
Q 2691 219 2414 64 
Q 2138 -91 1772 -91 
Q 1169 -91 856 284 
Q 544 659 544 1381 
z
M 1991 3584 
L 1991 3584 
z
" transform="scale(0.015625)"/>
       <path id="DejaVuSans-6e" d="M 3513 2113 
L 3513 0 
L 2938 0 
L 2938 2094 
Q 2938 2591 2744 2837 
Q 2550 3084 2163 3084 
Q 1697 3084 1428 2787 
Q 1159 2491 1159 1978 
L 1159 0 
L 581 0 
L 581 3500 
L 1159 3500 
L 1159 2956 
Q 1366 3272 1645 3428 
Q 1925 3584 2291 3584 
Q 2894 3584 3203 3211 
Q 3513 2838 3513 2113 
z
" transform="scale(0.015625)"/>
      </defs>
      <use xlink:href="#DejaVuSans-50"/>
      <use xlink:href="#DejaVuSans-65" x="56.677734"/>
      <use xlink:href="#DejaVuSans-6c" x="118.201172"/>
      <use xlink:href="#DejaVuSans-6c" x="145.984375"/>
      <use xlink:href="#DejaVuSans-65" x="173.767578"/>
      <use xlink:href="#DejaVuSans-74" x="235.291016"/>
      <use xlink:href="#DejaVuSans-5f" x="274.5"/>
      <use xlink:href="#DejaVuSans-43" x="324.5"/>
      <use xlink:href="#DejaVuSans-6f" x="394.324219"/>
      <use xlink:href="#DejaVuSans-75" x="455.505859"/>
      <use xlink:href="#DejaVuSans-6e" x="518.884766"/>
      <use xlink:href="#DejaVuSans-74" x="582.263672"/>
     </g>
    </g>
   </g>
   <g id="line2d_19">
    <path d="M 99.962273 344.397187 
L 147.679969 344.397187 
L 148.329449 343.402451 
L 151.366724 343.402451 
L 151.605504 342.407714 
L 152.799401 342.407714 
L 152.875811 341.412977 
L 155.187196 341.412977 
L 155.827125 340.41824 
L 158.071653 340.41824 
L 158.807093 339.423503 
L 161.596038 339.423503 
L 164.423187 338.428766 
L 168.100392 338.428766 
L 168.281864 337.43403 
L 172.532139 337.43403 
L 173.630525 336.439293 
L 179.876997 336.439293 
L 179.915201 335.444556 
L 184.509319 335.444556 
L 184.547524 334.449819 
L 186.495965 334.449819 
L 186.524618 333.455082 
L 187.718516 333.455082 
L 187.83313 332.460345 
L 190.058555 332.460345 
L 190.077657 331.465609 
L 193.754861 331.465609 
L 193.812169 330.470872 
L 199.189483 330.470872 
L 199.237239 329.476135 
L 202.532396 329.476135 
L 202.608805 328.481398 
L 204.824679 328.481398 
L 204.862884 327.486661 
L 206.12364 327.486661 
L 206.142742 326.491924 
L 211.405442 326.491924 
L 211.443647 325.497187 
L 212.713954 325.497187 
L 212.733056 324.502451 
L 216.209686 324.502451 
L 216.219237 323.507714 
L 217.565954 323.507714 
L 217.575505 322.512977 
L 218.549725 322.512977 
L 218.568827 321.51824 
L 220.106567 321.51824 
L 220.12567 320.523503 
L 220.650985 320.523503 
L 220.670087 319.528766 
L 221.310016 319.528766 
L 221.348221 318.53403 
L 221.66341 318.53403 
L 221.672961 317.539293 
L 222.790449 317.539293 
L 222.809551 316.544556 
L 223.277559 316.544556 
L 223.315764 315.549819 
L 223.993898 315.549819 
L 224.003449 314.555082 
L 224.194473 314.555082 
L 224.213575 313.560345 
L 224.891709 313.560345 
L 224.920362 312.565609 
L 225.455228 312.565609 
L 225.464779 311.570872 
L 226.553614 311.570872 
L 226.563165 310.576135 
L 227.470527 310.576135 
L 227.480078 309.581398 
L 228.578464 309.581398 
L 228.588015 308.586661 
L 229.791464 308.586661 
L 229.801015 307.591924 
L 230.383637 307.591924 
L 230.412291 306.597187 
L 230.698826 306.597187 
L 230.717929 305.602451 
L 230.947157 305.602451 
L 230.956708 304.607714 
L 231.195488 304.607714 
L 231.205039 303.612977 
L 234.395133 303.612977 
L 234.414235 302.61824 
L 235.035062 302.61824 
L 235.092369 301.623503 
L 239.762896 301.623503 
L 239.781998 300.628766 
L 247.059998 300.628766 
L 247.098202 299.63403 
L 249.571958 299.63403 
L 249.59106 298.639293 
L 250.842265 298.639293 
L 250.861367 297.644556 
L 251.100147 297.644556 
L 251.109698 296.649819 
L 251.443989 296.649819 
L 251.463092 295.655082 
L 251.711422 295.655082 
L 251.759178 294.660345 
L 251.997958 294.660345 
L 252.01706 293.665609 
L 252.313147 293.665609 
L 252.322698 292.670872 
L 252.551926 292.670872 
L 252.561477 291.676135 
L 252.914871 291.676135 
L 252.943525 290.681398 
L 253.220509 290.681398 
L 253.23006 289.686661 
L 253.421084 289.686661 
L 253.440186 288.691924 
L 256.315091 288.691924 
L 256.334194 287.697187 
L 257.795524 287.697187 
L 257.805075 286.702451 
L 257.976997 286.702451 
L 258.00565 285.707714 
L 258.158469 285.707714 
L 258.187123 284.712977 
L 258.387697 284.712977 
L 258.397249 283.71824 
L 258.578721 283.71824 
L 258.597823 282.723503 
L 261.663752 282.723503 
L 261.692406 281.728766 
L 269.724948 281.728766 
L 269.744051 280.73403 
L 272.284664 280.73403 
L 272.370625 279.739293 
L 277.938963 279.739293 
L 278.005821 278.744556 
L 279.247475 278.744556 
L 279.276128 277.749819 
L 280.202593 277.749819 
L 280.221695 276.755082 
L 280.450923 276.755082 
L 280.479577 275.760345 
L 293.545591 275.760345 
L 293.564694 274.765609 
L 293.870331 274.765609 
L 293.898985 273.770872 
L 297.767213 273.770872 
L 297.786315 272.776135 
L 298.015544 272.776135 
L 298.0633 271.781398 
L 298.416693 271.781398 
L 298.435796 270.786661 
L 298.665024 270.786661 
L 298.684126 269.791924 
L 298.999315 269.791924 
L 299.018418 268.797187 
L 299.218992 268.797187 
L 299.238095 267.802451 
L 300.269622 267.802451 
L 300.288725 266.807714 
L 300.489299 266.807714 
L 300.49885 265.812977 
L 300.699425 265.812977 
L 300.73763 264.81824 
L 309.219078 264.81824 
L 309.247731 263.823503 
L 309.486511 263.823503 
L 309.496062 262.828766 
L 317.452195 262.828766 
L 317.471298 261.83403 
L 319.371982 261.83403 
L 319.400636 260.839293 
L 319.658518 260.839293 
L 319.67762 259.844556 
L 319.868644 259.844556 
L 319.878195 258.849819 
L 320.097872 258.849819 
L 320.155179 257.855082 
L 320.355754 257.855082 
L 320.374856 256.860345 
L 320.537226 256.860345 
L 320.556329 255.865609 
L 320.852415 255.865609 
L 320.871518 254.870872 
L 327.719714 254.870872 
L 327.738816 253.876135 
L 327.939391 253.876135 
L 327.948942 252.881398 
L 328.149517 252.881398 
L 328.168619 251.886661 
L 328.388296 251.886661 
L 328.397848 250.891924 
L 328.674832 250.891924 
L 328.684383 249.897187 
L 337.519225 249.897187 
L 337.557429 248.902451 
L 337.738902 248.902451 
L 337.758004 247.907714 
L 342.122893 247.907714 
L 342.141996 246.912977 
L 342.361673 246.912977 
L 342.371224 245.91824 
L 342.610004 245.91824 
L 342.629106 244.923503 
L 355.093396 244.923503 
L 355.513648 243.928766 
L 355.819286 243.928766 
L 355.828837 242.93403 
L 356.115372 242.93403 
L 356.124924 241.939293 
L 359.935844 241.939293 
L 359.974049 240.944556 
L 360.289238 240.944556 
L 360.298789 239.949819 
L 360.528018 239.949819 
L 360.537569 238.955082 
L 365.446875 238.955082 
L 365.475529 237.960345 
L 365.704757 237.960345 
L 365.72386 236.965609 
L 404.129155 236.965609 
L 404.157808 235.970872 
L 404.511202 235.970872 
L 404.549407 234.976135 
L 404.855044 234.976135 
L 404.874147 233.981398 
L 405.189336 233.981398 
L 405.22754 232.986661 
L 405.409013 232.986661 
L 405.418564 231.991924 
L 405.666895 231.991924 
L 405.685997 230.997187 
L 406.020288 230.997187 
L 406.02984 230.002451 
L 406.239966 230.002451 
L 406.259068 229.007714 
L 412.008878 229.007714 
L 412.01843 228.012977 
L 424.740601 228.012977 
L 424.759704 227.01824 
L 426.43116 227.01824 
L 426.478916 226.023503 
L 427.090192 226.023503 
L 427.109294 225.028766 
L 427.31942 225.028766 
L 427.328971 224.03403 
L 427.529546 224.03403 
L 427.539097 223.039293 
L 427.777877 223.039293 
L 427.787428 222.044556 
L 427.9689 222.044556 
L 427.978452 221.049819 
L 428.20768 221.049819 
L 428.217231 220.055082 
L 428.456011 220.055082 
L 428.475113 219.060345 
L 428.809404 219.060345 
L 428.828507 218.065609 
L 430.366247 218.065609 
L 430.375798 217.070872 
L 430.652782 217.070872 
L 430.681436 216.076135 
L 437.491427 216.076135 
L 437.510529 215.081398 
L 438.819041 215.081398 
L 438.838143 214.086661 
L 444.998655 214.086661 
L 445.008206 213.091924 
L 445.227883 213.091924 
L 445.237434 212.097187 
L 445.44756 212.097187 
L 445.457111 211.102451 
L 447.185875 211.102451 
L 447.214528 210.107714 
L 450.509685 210.107714 
L 450.538339 209.112977 
L 451.579418 209.112977 
L 451.588969 208.11824 
L 459.172606 208.11824 
L 459.191708 207.123503 
L 460.309196 207.123503 
L 460.328299 206.128766 
L 466.421952 206.128766 
L 466.441054 205.13403 
L 466.909062 205.13403 
L 466.918613 204.139293 
L 467.205148 204.139293 
L 467.224251 203.144556 
L 467.434377 203.144556 
L 467.453479 202.149819 
L 467.988345 202.149819 
L 467.997896 201.155082 
L 468.370392 201.155082 
L 468.379943 200.160345 
L 473.088675 200.160345 
L 473.098226 199.165609 
L 473.413415 199.165609 
L 473.432518 198.170872 
L 475.887171 198.170872 
L 475.896722 197.176135 
L 481.359997 197.176135 
L 481.369548 196.181398 
L 481.646533 196.181398 
L 481.665635 195.186661 
L 493.795634 195.186661 
L 493.814736 194.191924 
L 494.082169 194.191924 
L 494.101271 193.197187 
L 533.82463 193.197187 
L 533.834181 192.202451 
L 534.139819 192.202451 
L 534.168472 191.207714 
L 535.314614 191.207714 
L 535.324165 190.212977 
L 535.658456 190.212977 
L 535.677559 189.21824 
L 535.906787 189.21824 
L 535.916338 188.223503 
L 536.584921 188.223503 
L 536.604023 187.228766 
L 536.861905 187.228766 
L 536.871456 186.23403 
L 537.081582 186.23403 
L 537.091133 185.239293 
L 537.329913 185.239293 
L 537.349015 184.244556 
L 545.142778 184.244556 
L 545.305148 183.249819 
L 589.097309 183.249819 
L 589.173718 182.255082 
L 617.225534 182.255082 
L 617.254188 181.260345 
L 617.550275 181.260345 
L 617.569377 180.265609 
L 617.894117 180.265609 
L 617.913219 179.270872 
L 618.16155 179.270872 
L 618.180652 178.276135 
L 618.428983 178.276135 
L 618.438534 177.281398 
L 618.600904 177.281398 
L 618.629558 176.286661 
L 620.816778 176.286661 
L 620.826329 175.291924 
L 621.351644 175.291924 
L 621.361195 174.297187 
L 621.533117 174.297187 
L 621.542668 173.302451 
L 621.762345 173.302451 
L 621.771896 172.307714 
L 622.001124 172.307714 
L 622.010676 171.312977 
L 665.573608 171.312977 
L 665.592711 170.31824 
L 665.917451 170.31824 
L 665.927002 169.323503 
L 666.15623 169.323503 
L 666.165781 168.328766 
L 666.337703 168.328766 
L 666.356805 167.33403 
L 666.605136 167.33403 
L 666.614687 166.339293 
L 666.796159 166.339293 
L 666.80571 165.344556 
L 668.935624 165.344556 
L 668.973828 164.349819 
L 669.489592 164.349819 
L 669.508694 163.355082 
L 712.93791 163.355082 
L 712.957013 162.360345 
L 713.272202 162.360345 
L 713.281753 161.365609 
L 713.558737 161.365609 
L 713.587391 160.370872 
L 713.893028 160.370872 
L 713.912131 159.376135 
L 714.112706 159.376135 
L 714.15091 158.381398 
L 714.38969 158.381398 
L 714.399241 157.386661 
L 716.557808 157.386661 
L 716.57691 156.391924 
L 766.43407 156.391924 
L 766.443621 155.397187 
L 766.663299 155.397187 
L 766.682401 154.402451 
L 766.863873 154.402451 
L 766.892527 153.407714 
L 767.054897 153.407714 
L 767.064448 152.412977 
L 768.067322 152.412977 
L 768.086424 151.41824 
L 768.229692 151.41824 
L 768.248794 150.423503 
L 768.439818 150.423503 
L 768.516227 149.428766 
L 817.781215 149.428766 
L 817.800317 148.43403 
L 818.048648 148.43403 
L 818.058199 147.439293 
L 818.258774 147.439293 
L 818.268325 146.444556 
L 818.468899 146.444556 
L 818.488002 145.449819 
L 818.726781 145.449819 
L 818.736333 144.455082 
L 819.003766 144.455082 
L 819.013317 143.460345 
L 845.212204 143.460345 
L 845.231306 142.465609 
L 845.460535 142.465609 
L 845.470086 141.470872 
L 845.756621 141.470872 
L 845.775723 140.476135 
L 846.024054 140.476135 
L 846.043157 139.481398 
L 847.561794 139.481398 
L 847.571345 138.486661 
L 847.791022 138.486661 
L 847.819676 137.491924 
L 886.415995 137.491924 
L 886.425546 136.497187 
L 886.587916 136.497187 
L 886.607018 135.502451 
L 886.845798 135.502451 
L 886.855349 134.507714 
L 887.075026 134.507714 
L 887.084577 133.512977 
L 887.275601 133.512977 
L 887.323357 132.51824 
L 915.690362 132.51824 
L 915.699913 131.523503 
L 915.910039 131.523503 
L 915.929141 130.528766 
L 916.072409 130.528766 
L 916.110614 129.53403 
L 916.301637 129.53403 
L 916.311189 128.539293 
L 916.511763 128.539293 
L 916.521315 127.544556 
L 916.655031 127.544556 
L 916.674133 126.549819 
L 916.979771 126.549819 
L 916.989322 125.555082 
L 939.109856 125.555082 
L 939.128958 124.560345 
L 943.723076 124.560345 
L 943.732627 123.565609 
L 947.304768 123.565609 
L 948.460461 122.570872 
L 951.230303 122.570872 
L 951.249406 121.576135 
L 958.498751 121.576135 
L 958.517854 120.581398 
L 958.81394 120.581398 
L 958.852145 119.586661 
L 960.456743 119.586661 
L 960.475845 118.591924 
L 961.153979 118.591924 
L 961.16353 117.597187 
L 969.797797 117.597187 
L 969.8169 116.602451 
L 970.017474 116.602451 
L 970.027026 115.607714 
L 970.246703 115.607714 
L 970.256254 114.612977 
L 970.409073 114.612977 
L 970.428175 113.61824 
L 979.177056 113.61824 
L 979.186607 112.623503 
L 980.01756 112.623503 
L 980.027111 111.628766 
L 980.227686 111.628766 
L 980.246788 110.63403 
L 980.485568 110.63403 
L 980.495119 109.639293 
L 984.506615 109.639293 
L 984.525717 108.644556 
L 984.764497 108.644556 
L 984.774048 107.649819 
L 984.926867 107.649819 
L 984.936418 106.655082 
L 993.093126 106.655082 
L 993.179086 104.665609 
L 993.351007 104.665609 
L 993.37011 103.670872 
L 993.503826 103.670872 
L 993.53248 102.676135 
L 994.936503 102.676135 
L 995.041566 101.681398 
L 997.066417 101.681398 
L 997.075968 100.686661 
L 998.394031 100.686661 
L 998.403582 99.691924 
L 1002.988148 99.691924 
L 1002.997699 98.697187 
L 1003.437054 98.697187 
L 1003.456156 97.702451 
L 1003.714038 97.702451 
L 1003.723589 96.707714 
L 1003.97192 96.707714 
L 1003.981471 95.712977 
L 1004.124739 95.712977 
L 1004.13429 94.71824 
L 1004.287109 94.71824 
L 1004.306211 93.723503 
L 1004.497235 93.723503 
L 1004.506786 92.728766 
L 1007.964313 92.728766 
L 1007.983415 91.73403 
L 1008.34636 91.73403 
L 1008.365463 90.739293 
L 1008.661549 90.739293 
L 1008.6711 89.744556 
L 1008.881226 89.744556 
L 1008.890778 88.749819 
L 1009.062699 88.749819 
L 1009.07225 87.755082 
L 1009.272825 87.755082 
L 1009.282376 86.760345 
L 1015.738974 86.760345 
L 1015.758076 85.765609 
L 1015.996856 85.765609 
L 1016.006407 84.770872 
L 1016.226084 84.770872 
L 1016.235635 83.776135 
L 1019.931942 83.776135 
L 1019.951044 82.781398 
L 1020.294887 82.781398 
L 1020.313989 81.786661 
L 1027.066673 81.786661 
L 1027.085776 80.791924 
L 1032.042838 80.791924 
L 1032.109696 79.797187 
L 1032.272066 79.797187 
L 1032.30072 78.802451 
L 1032.62546 78.802451 
L 1032.663665 77.807714 
L 1032.797381 77.807714 
L 1032.826035 76.812977 
L 1033.02661 76.812977 
L 1033.036161 75.81824 
L 1039.779294 75.81824 
L 1039.807948 74.823503 
L 1040.123137 74.823503 
L 1040.142239 73.828766 
L 1040.342814 73.828766 
L 1040.371467 72.83403 
L 1040.782168 72.83403 
L 1040.791719 71.839293 
L 1053.236907 71.839293 
L 1053.256009 70.844556 
L 1053.437482 70.844556 
L 1053.447033 69.849819 
L 1053.609403 69.849819 
L 1053.618954 68.855082 
L 1053.790875 68.855082 
L 1053.809978 67.860345 
L 1054.039206 67.860345 
L 1054.067859 66.865609 
L 1054.373497 66.865609 
L 1054.3926 65.870872 
L 1066.255165 65.870872 
L 1066.264716 64.876135 
L 1066.474842 64.876135 
L 1066.484394 63.881398 
L 1066.665866 63.881398 
L 1066.675417 62.886661 
L 1066.933299 62.886661 
L 1066.94285 61.891924 
L 1067.114772 61.891924 
L 1067.124323 60.897187 
L 1077.926707 60.897187 
L 1077.94581 59.902451 
L 1078.260999 59.902451 
L 1078.27055 58.907714 
L 1080.113928 58.907714 
L 1080.13303 57.912977 
L 1080.438668 57.912977 
L 1080.467321 56.91824 
L 1085.835085 56.91824 
L 1085.835085 55.923503 
L 1086.866612 55.923503 
L 1086.885714 54.928766 
L 1087.325069 54.928766 
L 1087.33462 53.93403 
L 1099.96128 53.93403 
L 1099.970831 52.939293 
L 1101.776004 52.939293 
L 1101.795107 51.944556 
L 1102.024335 51.944556 
L 1102.033886 50.949819 
L 1103.533421 50.949819 
L 1103.542972 49.955082 
L 1103.733996 49.955082 
L 1103.743547 48.960345 
L 1104.33572 48.960345 
L 1104.345272 47.965609 
L 1104.498091 47.965609 
L 1104.507642 46.970872 
L 1104.708216 46.970872 
L 1104.727319 45.976135 
L 1113.514405 45.976135 
L 1113.523956 44.981398 
L 1113.762735 44.981398 
L 1113.791389 43.986661 
L 1114.039719 43.986661 
L 1114.049271 42.991924 
L 1114.383562 42.991924 
L 1114.393113 41.997187 
L 1114.393113 41.997187 
" clip-path="url(#p130c29076f)" style="fill: none; stroke: #0000ff; stroke-width: 1.5; stroke-linecap: square"/>
   </g>
   <g id="patch_62">
    <path d="M 49.235 359.517187 
L 49.235 26.877187 
" style="fill: none; stroke: #000000; stroke-width: 0.8; stroke-linejoin: miter; stroke-linecap: square"/>
   </g>
   <g id="patch_63">
    <path d="M 1165.235 359.517187 
L 1165.235 26.877187 
" style="fill: none; stroke: #000000; stroke-width: 0.8; stroke-linejoin: miter; stroke-linecap: square"/>
   </g>
   <g id="patch_64">
    <path d="M 49.235 359.517187 
L 1165.235 359.517187 
" style="fill: none; stroke: #000000; stroke-width: 0.8; stroke-linejoin: miter; stroke-linecap: square"/>
   </g>
   <g id="patch_65">
    <path d="M 49.235 26.877187 
L 1165.235 26.877187 
" style="fill: none; stroke: #000000; stroke-width: 0.8; stroke-linejoin: miter; stroke-linecap: square"/>
   </g>
   <g id="text_21">
    <!-- Pellet Count and Cumulative Sum Over Time of Group ctrl Mouse M33 -->
    <g transform="translate(293.018281 20.877187) scale(0.18 -0.18)">
     <defs>
      <path id="DejaVuSans-61" d="M 2194 1759 
Q 1497 1759 1228 1600 
Q 959 1441 959 1056 
Q 959 750 1161 570 
Q 1363 391 1709 391 
Q 2188 391 2477 730 
Q 2766 1069 2766 1631 
L 2766 1759 
L 2194 1759 
z
M 3341 1997 
L 3341 0 
L 2766 0 
L 2766 531 
Q 2569 213 2275 61 
Q 1981 -91 1556 -91 
Q 1019 -91 701 211 
Q 384 513 384 1019 
Q 384 1609 779 1909 
Q 1175 2209 1959 2209 
L 2766 2209 
L 2766 2266 
Q 2766 2663 2505 2880 
Q 2244 3097 1772 3097 
Q 1472 3097 1187 3025 
Q 903 2953 641 2809 
L 641 3341 
Q 956 3463 1253 3523 
Q 1550 3584 1831 3584 
Q 2591 3584 2966 3190 
Q 3341 2797 3341 1997 
z
" transform="scale(0.015625)"/>
      <path id="DejaVuSans-64" d="M 2906 2969 
L 2906 4863 
L 3481 4863 
L 3481 0 
L 2906 0 
L 2906 525 
Q 2725 213 2448 61 
Q 2172 -91 1784 -91 
Q 1150 -91 751 415 
Q 353 922 353 1747 
Q 353 2572 751 3078 
Q 1150 3584 1784 3584 
Q 2172 3584 2448 3432 
Q 2725 3281 2906 2969 
z
M 947 1747 
Q 947 1113 1208 752 
Q 1469 391 1925 391 
Q 2381 391 2643 752 
Q 2906 1113 2906 1747 
Q 2906 2381 2643 2742 
Q 2381 3103 1925 3103 
Q 1469 3103 1208 2742 
Q 947 2381 947 1747 
z
" transform="scale(0.015625)"/>
      <path id="DejaVuSans-76" d="M 191 3500 
L 800 3500 
L 1894 563 
L 2988 3500 
L 3597 3500 
L 2284 0 
L 1503 0 
L 191 3500 
z
" transform="scale(0.015625)"/>
      <path id="DejaVuSans-53" d="M 3425 4513 
L 3425 3897 
Q 3066 4069 2747 4153 
Q 2428 4238 2131 4238 
Q 1616 4238 1336 4038 
Q 1056 3838 1056 3469 
Q 1056 3159 1242 3001 
Q 1428 2844 1947 2747 
L 2328 2669 
Q 3034 2534 3370 2195 
Q 3706 1856 3706 1288 
Q 3706 609 3251 259 
Q 2797 -91 1919 -91 
Q 1588 -91 1214 -16 
Q 841 59 441 206 
L 441 856 
Q 825 641 1194 531 
Q 1563 422 1919 422 
Q 2459 422 2753 634 
Q 3047 847 3047 1241 
Q 3047 1584 2836 1778 
Q 2625 1972 2144 2069 
L 1759 2144 
Q 1053 2284 737 2584 
Q 422 2884 422 3419 
Q 422 4038 858 4394 
Q 1294 4750 2059 4750 
Q 2388 4750 2728 4690 
Q 3069 4631 3425 4513 
z
" transform="scale(0.015625)"/>
      <path id="DejaVuSans-4f" d="M 2522 4238 
Q 1834 4238 1429 3725 
Q 1025 3213 1025 2328 
Q 1025 1447 1429 934 
Q 1834 422 2522 422 
Q 3209 422 3611 934 
Q 4013 1447 4013 2328 
Q 4013 3213 3611 3725 
Q 3209 4238 2522 4238 
z
M 2522 4750 
Q 3503 4750 4090 4092 
Q 4678 3434 4678 2328 
Q 4678 1225 4090 567 
Q 3503 -91 2522 -91 
Q 1538 -91 948 565 
Q 359 1222 359 2328 
Q 359 3434 948 4092 
Q 1538 4750 2522 4750 
z
" transform="scale(0.015625)"/>
      <path id="DejaVuSans-72" d="M 2631 2963 
Q 2534 3019 2420 3045 
Q 2306 3072 2169 3072 
Q 1681 3072 1420 2755 
Q 1159 2438 1159 1844 
L 1159 0 
L 581 0 
L 581 3500 
L 1159 3500 
L 1159 2956 
Q 1341 3275 1631 3429 
Q 1922 3584 2338 3584 
Q 2397 3584 2469 3576 
Q 2541 3569 2628 3553 
L 2631 2963 
z
" transform="scale(0.015625)"/>
      <path id="DejaVuSans-66" d="M 2375 4863 
L 2375 4384 
L 1825 4384 
Q 1516 4384 1395 4259 
Q 1275 4134 1275 3809 
L 1275 3500 
L 2222 3500 
L 2222 3053 
L 1275 3053 
L 1275 0 
L 697 0 
L 697 3053 
L 147 3053 
L 147 3500 
L 697 3500 
L 697 3744 
Q 697 4328 969 4595 
Q 1241 4863 1831 4863 
L 2375 4863 
z
" transform="scale(0.015625)"/>
      <path id="DejaVuSans-47" d="M 3809 666 
L 3809 1919 
L 2778 1919 
L 2778 2438 
L 4434 2438 
L 4434 434 
Q 4069 175 3628 42 
Q 3188 -91 2688 -91 
Q 1594 -91 976 548 
Q 359 1188 359 2328 
Q 359 3472 976 4111 
Q 1594 4750 2688 4750 
Q 3144 4750 3555 4637 
Q 3966 4525 4313 4306 
L 4313 3634 
Q 3963 3931 3569 4081 
Q 3175 4231 2741 4231 
Q 1884 4231 1454 3753 
Q 1025 3275 1025 2328 
Q 1025 1384 1454 906 
Q 1884 428 2741 428 
Q 3075 428 3337 486 
Q 3600 544 3809 666 
z
" transform="scale(0.015625)"/>
      <path id="DejaVuSans-70" d="M 1159 525 
L 1159 -1331 
L 581 -1331 
L 581 3500 
L 1159 3500 
L 1159 2969 
Q 1341 3281 1617 3432 
Q 1894 3584 2278 3584 
Q 2916 3584 3314 3078 
Q 3713 2572 3713 1747 
Q 3713 922 3314 415 
Q 2916 -91 2278 -91 
Q 1894 -91 1617 61 
Q 1341 213 1159 525 
z
M 3116 1747 
Q 3116 2381 2855 2742 
Q 2594 3103 2138 3103 
Q 1681 3103 1420 2742 
Q 1159 2381 1159 1747 
Q 1159 1113 1420 752 
Q 1681 391 2138 391 
Q 2594 391 2855 752 
Q 3116 1113 3116 1747 
z
" transform="scale(0.015625)"/>
      <path id="DejaVuSans-63" d="M 3122 3366 
L 3122 2828 
Q 2878 2963 2633 3030 
Q 2388 3097 2138 3097 
Q 1578 3097 1268 2742 
Q 959 2388 959 1747 
Q 959 1106 1268 751 
Q 1578 397 2138 397 
Q 2388 397 2633 464 
Q 2878 531 3122 666 
L 3122 134 
Q 2881 22 2623 -34 
Q 2366 -91 2075 -91 
Q 1284 -91 818 406 
Q 353 903 353 1747 
Q 353 2603 823 3093 
Q 1294 3584 2113 3584 
Q 2378 3584 2631 3529 
Q 2884 3475 3122 3366 
z
" transform="scale(0.015625)"/>
      <path id="DejaVuSans-4d" d="M 628 4666 
L 1569 4666 
L 2759 1491 
L 3956 4666 
L 4897 4666 
L 4897 0 
L 4281 0 
L 4281 4097 
L 3078 897 
L 2444 897 
L 1241 4097 
L 1241 0 
L 628 0 
L 628 4666 
z
" transform="scale(0.015625)"/>
      <path id="DejaVuSans-73" d="M 2834 3397 
L 2834 2853 
Q 2591 2978 2328 3040 
Q 2066 3103 1784 3103 
Q 1356 3103 1142 2972 
Q 928 2841 928 2578 
Q 928 2378 1081 2264 
Q 1234 2150 1697 2047 
L 1894 2003 
Q 2506 1872 2764 1633 
Q 3022 1394 3022 966 
Q 3022 478 2636 193 
Q 2250 -91 1575 -91 
Q 1294 -91 989 -36 
Q 684 19 347 128 
L 347 722 
Q 666 556 975 473 
Q 1284 391 1588 391 
Q 1994 391 2212 530 
Q 2431 669 2431 922 
Q 2431 1156 2273 1281 
Q 2116 1406 1581 1522 
L 1381 1569 
Q 847 1681 609 1914 
Q 372 2147 372 2553 
Q 372 3047 722 3315 
Q 1072 3584 1716 3584 
Q 2034 3584 2315 3537 
Q 2597 3491 2834 3397 
z
" transform="scale(0.015625)"/>
     </defs>
     <use xlink:href="#DejaVuSans-50"/>
     <use xlink:href="#DejaVuSans-65" x="56.677734"/>
     <use xlink:href="#DejaVuSans-6c" x="118.201172"/>
     <use xlink:href="#DejaVuSans-6c" x="145.984375"/>
     <use xlink:href="#DejaVuSans-65" x="173.767578"/>
     <use xlink:href="#DejaVuSans-74" x="235.291016"/>
     <use xlink:href="#DejaVuSans-20" x="274.5"/>
     <use xlink:href="#DejaVuSans-43" x="306.287109"/>
     <use xlink:href="#DejaVuSans-6f" x="376.111328"/>
     <use xlink:href="#DejaVuSans-75" x="437.292969"/>
     <use xlink:href="#DejaVuSans-6e" x="500.671875"/>
     <use xlink:href="#DejaVuSans-74" x="564.050781"/>
     <use xlink:href="#DejaVuSans-20" x="603.259766"/>
     <use xlink:href="#DejaVuSans-61" x="635.046875"/>
     <use xlink:href="#DejaVuSans-6e" x="696.326172"/>
     <use xlink:href="#DejaVuSans-64" x="759.705078"/>
     <use xlink:href="#DejaVuSans-20" x="823.181641"/>
     <use xlink:href="#DejaVuSans-43" x="854.96875"/>
     <use xlink:href="#DejaVuSans-75" x="924.792969"/>
     <use xlink:href="#DejaVuSans-6d" x="988.171875"/>
     <use xlink:href="#DejaVuSans-75" x="1085.583984"/>
     <use xlink:href="#DejaVuSans-6c" x="1148.962891"/>
     <use xlink:href="#DejaVuSans-61" x="1176.746094"/>
     <use xlink:href="#DejaVuSans-74" x="1238.025391"/>
     <use xlink:href="#DejaVuSans-69" x="1277.234375"/>
     <use xlink:href="#DejaVuSans-76" x="1305.017578"/>
     <use xlink:href="#DejaVuSans-65" x="1364.197266"/>
     <use xlink:href="#DejaVuSans-20" x="1425.720703"/>
     <use xlink:href="#DejaVuSans-53" x="1457.507812"/>
     <use xlink:href="#DejaVuSans-75" x="1520.984375"/>
     <use xlink:href="#DejaVuSans-6d" x="1584.363281"/>
     <use xlink:href="#DejaVuSans-20" x="1681.775391"/>
     <use xlink:href="#DejaVuSans-4f" x="1713.5625"/>
     <use xlink:href="#DejaVuSans-76" x="1792.273438"/>
     <use xlink:href="#DejaVuSans-65" x="1851.453125"/>
     <use xlink:href="#DejaVuSans-72" x="1912.976562"/>
     <use xlink:href="#DejaVuSans-20" x="1954.089844"/>
     <use xlink:href="#DejaVuSans-54" x="1985.876953"/>
     <use xlink:href="#DejaVuSans-69" x="2043.835938"/>
     <use xlink:href="#DejaVuSans-6d" x="2071.619141"/>
     <use xlink:href="#DejaVuSans-65" x="2169.03125"/>
     <use xlink:href="#DejaVuSans-20" x="2230.554688"/>
     <use xlink:href="#DejaVuSans-6f" x="2262.341797"/>
     <use xlink:href="#DejaVuSans-66" x="2323.523438"/>
     <use xlink:href="#DejaVuSans-20" x="2358.728516"/>
     <use xlink:href="#DejaVuSans-47" x="2390.515625"/>
     <use xlink:href="#DejaVuSans-72" x="2468.005859"/>
     <use xlink:href="#DejaVuSans-6f" x="2506.869141"/>
     <use xlink:href="#DejaVuSans-75" x="2568.050781"/>
     <use xlink:href="#DejaVuSans-70" x="2631.429688"/>
     <use xlink:href="#DejaVuSans-20" x="2694.90625"/>
     <use xlink:href="#DejaVuSans-63" x="2726.693359"/>
     <use xlink:href="#DejaVuSans-74" x="2781.673828"/>
     <use xlink:href="#DejaVuSans-72" x="2820.882812"/>
     <use xlink:href="#DejaVuSans-6c" x="2861.996094"/>
     <use xlink:href="#DejaVuSans-20" x="2889.779297"/>
     <use xlink:href="#DejaVuSans-4d" x="2921.566406"/>
     <use xlink:href="#DejaVuSans-6f" x="3007.845703"/>
     <use xlink:href="#DejaVuSans-75" x="3069.027344"/>
     <use xlink:href="#DejaVuSans-73" x="3132.40625"/>
     <use xlink:href="#DejaVuSans-65" x="3184.505859"/>
     <use xlink:href="#DejaVuSans-20" x="3246.029297"/>
     <use xlink:href="#DejaVuSans-4d" x="3277.816406"/>
     <use xlink:href="#DejaVuSans-33" x="3364.095703"/>
     <use xlink:href="#DejaVuSans-33" x="3427.71875"/>
    </g>
   </g>
   <g id="legend_1">
    <g id="patch_66">
     <path d="M 1086.550625 64.233437 
L 1158.235 64.233437 
Q 1160.235 64.233437 1160.235 62.233437 
L 1160.235 33.877187 
Q 1160.235 31.877187 1158.235 31.877187 
L 1086.550625 31.877187 
Q 1084.550625 31.877187 1084.550625 33.877187 
L 1084.550625 62.233437 
Q 1084.550625 64.233437 1086.550625 64.233437 
z
" style="fill: #ffffff; opacity: 0.8; stroke: #cccccc; stroke-linejoin: miter"/>
    </g>
    <g id="patch_67">
     <path d="M 1088.550625 43.475625 
L 1108.550625 43.475625 
L 1108.550625 36.475625 
L 1088.550625 36.475625 
z
" style="fill: #add8e6; opacity: 0.9; stroke: #add8e6; stroke-linejoin: miter"/>
    </g>
    <g id="text_22">
     <!-- Meal -->
     <g transform="translate(1116.550625 43.475625) scale(0.1 -0.1)">
      <use xlink:href="#DejaVuSans-4d"/>
      <use xlink:href="#DejaVuSans-65" x="86.279297"/>
      <use xlink:href="#DejaVuSans-61" x="147.802734"/>
      <use xlink:href="#DejaVuSans-6c" x="209.082031"/>
     </g>
    </g>
    <g id="patch_68">
     <path d="M 1088.550625 58.15375 
L 1108.550625 58.15375 
L 1108.550625 51.15375 
L 1088.550625 51.15375 
z
" style="fill: #808080; opacity: 0.5; stroke: #808080; stroke-linejoin: miter"/>
    </g>
    <g id="text_23">
     <!-- Inactive -->
     <g transform="translate(1116.550625 58.15375) scale(0.1 -0.1)">
      <defs>
       <path id="DejaVuSans-49" d="M 628 4666 
L 1259 4666 
L 1259 0 
L 628 0 
L 628 4666 
z
" transform="scale(0.015625)"/>
      </defs>
      <use xlink:href="#DejaVuSans-49"/>
      <use xlink:href="#DejaVuSans-6e" x="29.492188"/>
      <use xlink:href="#DejaVuSans-61" x="92.871094"/>
      <use xlink:href="#DejaVuSans-63" x="154.150391"/>
      <use xlink:href="#DejaVuSans-74" x="209.130859"/>
      <use xlink:href="#DejaVuSans-69" x="248.339844"/>
      <use xlink:href="#DejaVuSans-76" x="276.123047"/>
      <use xlink:href="#DejaVuSans-65" x="335.302734"/>
     </g>
    </g>
   </g>
  </g>
 </g>
 <defs>
  <clipPath id="p130c29076f">
   <rect x="49.235" y="26.877187" width="1116" height="332.64"/>
  </clipPath>
 </defs>
</svg>
