<?xml version="1.0" encoding="utf-8" standalone="no"?>
<!DOCTYPE svg PUBLIC "-//W3C//DTD SVG 1.1//EN"
  "http://www.w3.org/Graphics/SVG/1.1/DTD/svg11.dtd">
<svg xmlns:xlink="http://www.w3.org/1999/xlink" width="1172.435pt" height="399.009062pt" viewBox="0 0 1172.435 399.009062" xmlns="http://www.w3.org/2000/svg" version="1.1">
 <metadata>
  <rdf:RDF xmlns:dc="http://purl.org/dc/elements/1.1/" xmlns:cc="http://creativecommons.org/ns#" xmlns:rdf="http://www.w3.org/1999/02/22-rdf-syntax-ns#">
   <cc:Work>
    <dc:type rdf:resource="http://purl.org/dc/dcmitype/StillImage"/>
    <dc:date>2025-10-02T16:55:13.362182</dc:date>
    <dc:format>image/svg+xml</dc:format>
    <dc:creator>
     <cc:Agent>
      <dc:title>Matplotlib v3.8.4, https://matplotlib.org/</dc:title>
     </cc:Agent>
    </dc:creator>
   </cc:Work>
  </rdf:RDF>
 </metadata>
 <defs>
  <style type="text/css">*{stroke-linejoin: round; stroke-linecap: butt}</style>
 </defs>
 <g id="figure_1">
  <g id="patch_1">
   <path d="M 0 399.009062 
L 1172.435 399.009062 
L 1172.435 0 
L 0 0 
z
" style="fill: #ffffff"/>
  </g>
  <g id="axes_1">
   <g id="patch_2">
    <path d="M 49.235 359.517187 
L 1165.235 359.517187 
L 1165.235 26.877187 
L 49.235 26.877187 
z
" style="fill: #ffffff"/>
   </g>
   <g id="patch_3">
    <path d="M 146.933096 359.517187 
L 146.933096 26.877187 
L 135.233975 26.877187 
L 135.233975 359.517187 
z
" clip-path="url(#p47e74efac3)" style="fill: #add8e6; stroke: #add8e6; stroke-linejoin: miter"/>
   </g>
   <g id="patch_4">
    <path d="M 154.656826 359.517187 
L 154.656826 26.877187 
L 131.414682 26.877187 
L 131.414682 359.517187 
z
" clip-path="url(#p47e74efac3)" style="fill: #add8e6; stroke: #add8e6; stroke-linejoin: miter"/>
   </g>
   <g id="patch_5">
    <path d="M 146.276275 359.517187 
L 146.276275 26.877187 
L 139.60062 26.877187 
L 139.60062 359.517187 
z
" clip-path="url(#p47e74efac3)" style="fill: #add8e6; stroke: #add8e6; stroke-linejoin: miter"/>
   </g>
   <g id="patch_6">
    <path d="M 173.145126 359.517187 
L 173.145126 26.877187 
L 145.00115 26.877187 
L 145.00115 359.517187 
z
" clip-path="url(#p47e74efac3)" style="fill: #add8e6; stroke: #add8e6; stroke-linejoin: miter"/>
   </g>
   <g id="patch_7">
    <path d="M 192.413908 359.517187 
L 192.413908 26.877187 
L 163.384034 26.877187 
L 163.384034 359.517187 
z
" clip-path="url(#p47e74efac3)" style="fill: #add8e6; stroke: #add8e6; stroke-linejoin: miter"/>
   </g>
   <g id="patch_8">
    <path d="M 180.477602 359.517187 
L 180.477602 26.877187 
L 176.721153 26.877187 
L 176.721153 359.517187 
z
" clip-path="url(#p47e74efac3)" style="fill: #add8e6; stroke: #add8e6; stroke-linejoin: miter"/>
   </g>
   <g id="patch_9">
    <path d="M 183.952267 359.517187 
L 183.952267 26.877187 
L 183.727245 26.877187 
L 183.727245 359.517187 
z
" clip-path="url(#p47e74efac3)" style="fill: #add8e6; stroke: #add8e6; stroke-linejoin: miter"/>
   </g>
   <g id="patch_10">
    <path d="M 200.352525 359.517187 
L 200.352525 26.877187 
L 200.449831 26.877187 
L 200.449831 359.517187 
z
" clip-path="url(#p47e74efac3)" style="fill: #add8e6; stroke: #add8e6; stroke-linejoin: miter"/>
   </g>
   <g id="patch_11">
    <path d="M 204.08262 359.517187 
L 204.08262 26.877187 
L 202.854121 26.877187 
L 202.854121 359.517187 
z
" clip-path="url(#p47e74efac3)" style="fill: #add8e6; stroke: #add8e6; stroke-linejoin: miter"/>
   </g>
   <g id="patch_12">
    <path d="M 253.220548 359.517187 
L 253.220548 26.877187 
L 222.114794 26.877187 
L 222.114794 359.517187 
z
" clip-path="url(#p47e74efac3)" style="fill: #add8e6; stroke: #add8e6; stroke-linejoin: miter"/>
   </g>
   <g id="patch_13">
    <path d="M 223.396001 359.517187 
L 223.396001 26.877187 
L 223.353429 26.877187 
L 223.353429 359.517187 
z
" clip-path="url(#p47e74efac3)" style="fill: #add8e6; stroke: #add8e6; stroke-linejoin: miter"/>
   </g>
   <g id="patch_14">
    <path d="M 263.640489 359.517187 
L 263.640489 26.877187 
L 232.548926 26.877187 
L 232.548926 359.517187 
z
" clip-path="url(#p47e74efac3)" style="fill: #add8e6; stroke: #add8e6; stroke-linejoin: miter"/>
   </g>
   <g id="patch_15">
    <path d="M 270.350606 359.517187 
L 270.350606 26.877187 
L 254.065901 26.877187 
L 254.065901 359.517187 
z
" clip-path="url(#p47e74efac3)" style="fill: #add8e6; stroke: #add8e6; stroke-linejoin: miter"/>
   </g>
   <g id="patch_16">
    <path d="M 272.023068 359.517187 
L 272.023068 26.877187 
L 248.312634 26.877187 
L 248.312634 359.517187 
z
" clip-path="url(#p47e74efac3)" style="fill: #add8e6; stroke: #add8e6; stroke-linejoin: miter"/>
   </g>
   <g id="patch_17">
    <path d="M 249.575596 359.517187 
L 249.575596 26.877187 
L 248.428186 26.877187 
L 248.428186 359.517187 
z
" clip-path="url(#p47e74efac3)" style="fill: #add8e6; stroke: #add8e6; stroke-linejoin: miter"/>
   </g>
   <g id="patch_18">
    <path d="M 282.017291 359.517187 
L 282.017291 26.877187 
L 253.003635 26.877187 
L 253.003635 359.517187 
z
" clip-path="url(#p47e74efac3)" style="fill: #add8e6; stroke: #add8e6; stroke-linejoin: miter"/>
   </g>
   <g id="patch_19">
    <path d="M 263.153955 359.517187 
L 263.153955 26.877187 
L 262.886361 26.877187 
L 262.886361 359.517187 
z
" clip-path="url(#p47e74efac3)" style="fill: #add8e6; stroke: #add8e6; stroke-linejoin: miter"/>
   </g>
   <g id="patch_20">
    <path d="M 263.711442 359.517187 
L 263.711442 26.877187 
L 263.340459 26.877187 
L 263.340459 359.517187 
z
" clip-path="url(#p47e74efac3)" style="fill: #add8e6; stroke: #add8e6; stroke-linejoin: miter"/>
   </g>
   <g id="patch_21">
    <path d="M 282.846427 359.517187 
L 282.846427 26.877187 
L 278.167589 26.877187 
L 278.167589 359.517187 
z
" clip-path="url(#p47e74efac3)" style="fill: #add8e6; stroke: #add8e6; stroke-linejoin: miter"/>
   </g>
   <g id="patch_22">
    <path d="M 321.031253 359.517187 
L 321.031253 26.877187 
L 318.201246 26.877187 
L 318.201246 359.517187 
z
" clip-path="url(#p47e74efac3)" style="fill: #add8e6; stroke: #add8e6; stroke-linejoin: miter"/>
   </g>
   <g id="patch_23">
    <path d="M 302.285495 359.517187 
L 302.285495 26.877187 
L 301.819233 26.877187 
L 301.819233 359.517187 
z
" clip-path="url(#p47e74efac3)" style="fill: #add8e6; stroke: #add8e6; stroke-linejoin: miter"/>
   </g>
   <g id="patch_24">
    <path d="M 319.200668 359.517187 
L 319.200668 26.877187 
L 304.947243 26.877187 
L 304.947243 359.517187 
z
" clip-path="url(#p47e74efac3)" style="fill: #add8e6; stroke: #add8e6; stroke-linejoin: miter"/>
   </g>
   <g id="patch_25">
    <path d="M 358.159895 359.517187 
L 358.159895 26.877187 
L 328.185333 26.877187 
L 328.185333 359.517187 
z
" clip-path="url(#p47e74efac3)" style="fill: #add8e6; stroke: #add8e6; stroke-linejoin: miter"/>
   </g>
   <g id="patch_26">
    <path d="M 329.900366 359.517187 
L 329.900366 26.877187 
L 329.034741 26.877187 
L 329.034741 359.517187 
z
" clip-path="url(#p47e74efac3)" style="fill: #add8e6; stroke: #add8e6; stroke-linejoin: miter"/>
   </g>
   <g id="patch_27">
    <path d="M 334.185922 359.517187 
L 334.185922 26.877187 
L 332.947287 26.877187 
L 332.947287 359.517187 
z
" clip-path="url(#p47e74efac3)" style="fill: #add8e6; stroke: #add8e6; stroke-linejoin: miter"/>
   </g>
   <g id="patch_28">
    <path d="M 344.522746 359.517187 
L 344.522746 26.877187 
L 344.048375 26.877187 
L 344.048375 359.517187 
z
" clip-path="url(#p47e74efac3)" style="fill: #add8e6; stroke: #add8e6; stroke-linejoin: miter"/>
   </g>
   <g id="patch_29">
    <path d="M 345.289038 359.517187 
L 345.289038 26.877187 
L 344.567345 26.877187 
L 344.567345 359.517187 
z
" clip-path="url(#p47e74efac3)" style="fill: #add8e6; stroke: #add8e6; stroke-linejoin: miter"/>
   </g>
   <g id="patch_30">
    <path d="M 353.957455 359.517187 
L 353.957455 26.877187 
L 354.25343 26.877187 
L 354.25343 359.517187 
z
" clip-path="url(#p47e74efac3)" style="fill: #add8e6; stroke: #add8e6; stroke-linejoin: miter"/>
   </g>
   <g id="patch_31">
    <path d="M 372.182216 359.517187 
L 372.182216 26.877187 
L 364.107775 26.877187 
L 364.107775 359.517187 
z
" clip-path="url(#p47e74efac3)" style="fill: #add8e6; stroke: #add8e6; stroke-linejoin: miter"/>
   </g>
   <g id="patch_32">
    <path d="M 426.842307 359.517187 
L 426.842307 26.877187 
L 421.123503 26.877187 
L 421.123503 359.517187 
z
" clip-path="url(#p47e74efac3)" style="fill: #add8e6; stroke: #add8e6; stroke-linejoin: miter"/>
   </g>
   <g id="patch_33">
    <path d="M 429.366203 359.517187 
L 429.366203 26.877187 
L 397.956365 26.877187 
L 397.956365 359.517187 
z
" clip-path="url(#p47e74efac3)" style="fill: #add8e6; stroke: #add8e6; stroke-linejoin: miter"/>
   </g>
   <g id="patch_34">
    <path d="M 415.163459 359.517187 
L 415.163459 26.877187 
L 398.728738 26.877187 
L 398.728738 359.517187 
z
" clip-path="url(#p47e74efac3)" style="fill: #add8e6; stroke: #add8e6; stroke-linejoin: miter"/>
   </g>
   <g id="patch_35">
    <path d="M 400.336329 359.517187 
L 400.336329 26.877187 
L 400.808672 26.877187 
L 400.808672 359.517187 
z
" clip-path="url(#p47e74efac3)" style="fill: #add8e6; stroke: #add8e6; stroke-linejoin: miter"/>
   </g>
   <g id="patch_36">
    <path d="M 428.729654 359.517187 
L 428.729654 26.877187 
L 404.901641 26.877187 
L 404.901641 359.517187 
z
" clip-path="url(#p47e74efac3)" style="fill: #add8e6; stroke: #add8e6; stroke-linejoin: miter"/>
   </g>
   <g id="patch_37">
    <path d="M 441.762689 359.517187 
L 441.762689 26.877187 
L 412.23209 26.877187 
L 412.23209 359.517187 
z
" clip-path="url(#p47e74efac3)" style="fill: #add8e6; stroke: #add8e6; stroke-linejoin: miter"/>
   </g>
   <g id="patch_38">
    <path d="M 445.310334 359.517187 
L 445.310334 26.877187 
L 415.802035 26.877187 
L 415.802035 359.517187 
z
" clip-path="url(#p47e74efac3)" style="fill: #add8e6; stroke: #add8e6; stroke-linejoin: miter"/>
   </g>
   <g id="patch_39">
    <path d="M 421.624227 359.517187 
L 421.624227 26.877187 
L 421.362715 26.877187 
L 421.362715 359.517187 
z
" clip-path="url(#p47e74efac3)" style="fill: #add8e6; stroke: #add8e6; stroke-linejoin: miter"/>
   </g>
   <g id="patch_40">
    <path d="M 430.104113 359.517187 
L 430.104113 26.877187 
L 427.46872 26.877187 
L 427.46872 359.517187 
z
" clip-path="url(#p47e74efac3)" style="fill: #add8e6; stroke: #add8e6; stroke-linejoin: miter"/>
   </g>
   <g id="patch_41">
    <path d="M 462.339032 359.517187 
L 462.339032 26.877187 
L 438.699551 26.877187 
L 438.699551 359.517187 
z
" clip-path="url(#p47e74efac3)" style="fill: #add8e6; stroke: #add8e6; stroke-linejoin: miter"/>
   </g>
   <g id="patch_42">
    <path d="M 457.098653 359.517187 
L 457.098653 26.877187 
L 437.773109 26.877187 
L 437.773109 359.517187 
z
" clip-path="url(#p47e74efac3)" style="fill: #add8e6; stroke: #add8e6; stroke-linejoin: miter"/>
   </g>
   <g id="patch_43">
    <path d="M 438.57589 359.517187 
L 438.57589 26.877187 
L 438.476556 26.877187 
L 438.476556 359.517187 
z
" clip-path="url(#p47e74efac3)" style="fill: #add8e6; stroke: #add8e6; stroke-linejoin: miter"/>
   </g>
   <g id="patch_44">
    <path d="M 446.473962 359.517187 
L 446.473962 26.877187 
L 445.480621 26.877187 
L 445.480621 359.517187 
z
" clip-path="url(#p47e74efac3)" style="fill: #add8e6; stroke: #add8e6; stroke-linejoin: miter"/>
   </g>
   <g id="patch_45">
    <path d="M 492.453472 359.517187 
L 492.453472 26.877187 
L 463.10735 26.877187 
L 463.10735 359.517187 
z
" clip-path="url(#p47e74efac3)" style="fill: #add8e6; stroke: #add8e6; stroke-linejoin: miter"/>
   </g>
   <g id="patch_46">
    <path d="M 496.974185 359.517187 
L 496.974185 26.877187 
L 468.538288 26.877187 
L 468.538288 359.517187 
z
" clip-path="url(#p47e74efac3)" style="fill: #add8e6; stroke: #add8e6; stroke-linejoin: miter"/>
   </g>
   <g id="patch_47">
    <path d="M 473.419848 359.517187 
L 473.419848 26.877187 
L 473.119819 26.877187 
L 473.119819 359.517187 
z
" clip-path="url(#p47e74efac3)" style="fill: #add8e6; stroke: #add8e6; stroke-linejoin: miter"/>
   </g>
   <g id="patch_48">
    <path d="M 473.989499 359.517187 
L 473.989499 26.877187 
L 473.823266 26.877187 
L 473.823266 359.517187 
z
" clip-path="url(#p47e74efac3)" style="fill: #add8e6; stroke: #add8e6; stroke-linejoin: miter"/>
   </g>
   <g id="patch_49">
    <path d="M 509.705164 359.517187 
L 509.705164 26.877187 
L 478.396688 26.877187 
L 478.396688 359.517187 
z
" clip-path="url(#p47e74efac3)" style="fill: #add8e6; stroke: #add8e6; stroke-linejoin: miter"/>
   </g>
   <g id="patch_50">
    <path d="M 489.218019 359.517187 
L 489.218019 26.877187 
L 485.483869 26.877187 
L 485.483869 359.517187 
z
" clip-path="url(#p47e74efac3)" style="fill: #add8e6; stroke: #add8e6; stroke-linejoin: miter"/>
   </g>
   <g id="patch_51">
    <path d="M 515.951047 359.517187 
L 515.951047 26.877187 
L 486.604925 26.877187 
L 486.604925 359.517187 
z
" clip-path="url(#p47e74efac3)" style="fill: #add8e6; stroke: #add8e6; stroke-linejoin: miter"/>
   </g>
   <g id="patch_52">
    <path d="M 527.433254 359.517187 
L 527.433254 26.877187 
L 515.087448 26.877187 
L 515.087448 359.517187 
z
" clip-path="url(#p47e74efac3)" style="fill: #add8e6; stroke: #add8e6; stroke-linejoin: miter"/>
   </g>
   <g id="patch_53">
    <path d="M 517.380241 359.517187 
L 517.380241 26.877187 
L 516.421363 26.877187 
L 516.421363 359.517187 
z
" clip-path="url(#p47e74efac3)" style="fill: #add8e6; stroke: #add8e6; stroke-linejoin: miter"/>
   </g>
   <g id="patch_54">
    <path d="M 517.728924 359.517187 
L 517.728924 26.877187 
L 517.357941 26.877187 
L 517.357941 359.517187 
z
" clip-path="url(#p47e74efac3)" style="fill: #add8e6; stroke: #add8e6; stroke-linejoin: miter"/>
   </g>
   <g id="patch_55">
    <path d="M 561.875821 359.517187 
L 561.875821 26.877187 
L 531.28701 26.877187 
L 531.28701 359.517187 
z
" clip-path="url(#p47e74efac3)" style="fill: #add8e6; stroke: #add8e6; stroke-linejoin: miter"/>
   </g>
   <g id="patch_56">
    <path d="M 553.270248 359.517187 
L 553.270248 26.877187 
L 553.831789 26.877187 
L 553.831789 359.517187 
z
" clip-path="url(#p47e74efac3)" style="fill: #add8e6; stroke: #add8e6; stroke-linejoin: miter"/>
   </g>
   <g id="patch_57">
    <path d="M 564.399718 359.517187 
L 564.399718 26.877187 
L 564.659202 26.877187 
L 564.659202 359.517187 
z
" clip-path="url(#p47e74efac3)" style="fill: #add8e6; stroke: #add8e6; stroke-linejoin: miter"/>
   </g>
   <g id="patch_58">
    <path d="M 565.391031 359.517187 
L 565.391031 26.877187 
L 565.571454 26.877187 
L 565.571454 359.517187 
z
" clip-path="url(#p47e74efac3)" style="fill: #add8e6; stroke: #add8e6; stroke-linejoin: miter"/>
   </g>
   <g id="patch_59">
    <path d="M 568.393352 359.517187 
L 568.393352 26.877187 
L 569.473864 26.877187 
L 569.473864 359.517187 
z
" clip-path="url(#p47e74efac3)" style="fill: #add8e6; stroke: #add8e6; stroke-linejoin: miter"/>
   </g>
   <g id="patch_60">
    <path d="M 597.842863 359.517187 
L 597.842863 26.877187 
L 577.207731 26.877187 
L 577.207731 359.517187 
z
" clip-path="url(#p47e74efac3)" style="fill: #add8e6; stroke: #add8e6; stroke-linejoin: miter"/>
   </g>
   <g id="patch_61">
    <path d="M 578.042948 359.517187 
L 578.042948 26.877187 
L 578.857892 26.877187 
L 578.857892 359.517187 
z
" clip-path="url(#p47e74efac3)" style="fill: #add8e6; stroke: #add8e6; stroke-linejoin: miter"/>
   </g>
   <g id="patch_62">
    <path d="M 587.982436 359.517187 
L 587.982436 26.877187 
L 589.144036 26.877187 
L 589.144036 359.517187 
z
" clip-path="url(#p47e74efac3)" style="fill: #add8e6; stroke: #add8e6; stroke-linejoin: miter"/>
   </g>
   <g id="patch_63">
    <path d="M 600.644489 359.517187 
L 600.644489 26.877187 
L 602.278433 26.877187 
L 602.278433 359.517187 
z
" clip-path="url(#p47e74efac3)" style="fill: #add8e6; stroke: #add8e6; stroke-linejoin: miter"/>
   </g>
   <g id="patch_64">
    <path d="M 649.076942 359.517187 
L 649.076942 26.877187 
L 618.820596 26.877187 
L 618.820596 359.517187 
z
" clip-path="url(#p47e74efac3)" style="fill: #add8e6; stroke: #add8e6; stroke-linejoin: miter"/>
   </g>
   <g id="patch_65">
    <path d="M 620.977564 359.517187 
L 620.977564 26.877187 
L 620.630908 26.877187 
L 620.630908 359.517187 
z
" clip-path="url(#p47e74efac3)" style="fill: #add8e6; stroke: #add8e6; stroke-linejoin: miter"/>
   </g>
   <g id="patch_66">
    <path d="M 654.104462 359.517187 
L 654.104462 26.877187 
L 655.089694 26.877187 
L 655.089694 359.517187 
z
" clip-path="url(#p47e74efac3)" style="fill: #add8e6; stroke: #add8e6; stroke-linejoin: miter"/>
   </g>
   <g id="patch_67">
    <path d="M 655.738406 359.517187 
L 655.738406 26.877187 
L 656.715529 26.877187 
L 656.715529 359.517187 
z
" clip-path="url(#p47e74efac3)" style="fill: #add8e6; stroke: #add8e6; stroke-linejoin: miter"/>
   </g>
   <g id="patch_68">
    <path d="M 681.863266 359.517187 
L 681.863266 26.877187 
L 681.792313 26.877187 
L 681.792313 359.517187 
z
" clip-path="url(#p47e74efac3)" style="fill: #add8e6; stroke: #add8e6; stroke-linejoin: miter"/>
   </g>
   <g id="patch_69">
    <path d="M 703.100484 359.517187 
L 703.100484 26.877187 
L 703.92151 26.877187 
L 703.92151 359.517187 
z
" clip-path="url(#p47e74efac3)" style="fill: #add8e6; stroke: #add8e6; stroke-linejoin: miter"/>
   </g>
   <g id="patch_70">
    <path d="M 704.997967 359.517187 
L 704.997967 26.877187 
L 704.314792 26.877187 
L 704.314792 359.517187 
z
" clip-path="url(#p47e74efac3)" style="fill: #add8e6; stroke: #add8e6; stroke-linejoin: miter"/>
   </g>
   <g id="patch_71">
    <path d="M 735.029291 359.517187 
L 735.029291 26.877187 
L 735.627323 26.877187 
L 735.627323 359.517187 
z
" clip-path="url(#p47e74efac3)" style="fill: #add8e6; stroke: #add8e6; stroke-linejoin: miter"/>
   </g>
   <g id="patch_72">
    <path d="M 736.669317 359.517187 
L 736.669317 26.877187 
L 736.756488 26.877187 
L 736.756488 359.517187 
z
" clip-path="url(#p47e74efac3)" style="fill: #add8e6; stroke: #add8e6; stroke-linejoin: miter"/>
   </g>
   <g id="patch_73">
    <path d="M 790.451619 359.517187 
L 790.451619 26.877187 
L 790.81652 26.877187 
L 790.81652 359.517187 
z
" clip-path="url(#p47e74efac3)" style="fill: #add8e6; stroke: #add8e6; stroke-linejoin: miter"/>
   </g>
   <g id="patch_74">
    <path d="M 842.308056 359.517187 
L 842.308056 26.877187 
L 842.364819 26.877187 
L 842.364819 359.517187 
z
" clip-path="url(#p47e74efac3)" style="fill: #add8e6; stroke: #add8e6; stroke-linejoin: miter"/>
   </g>
   <g id="patch_75">
    <path d="M 843.139219 359.517187 
L 843.139219 26.877187 
L 845.146173 26.877187 
L 845.146173 359.517187 
z
" clip-path="url(#p47e74efac3)" style="fill: #add8e6; stroke: #add8e6; stroke-linejoin: miter"/>
   </g>
   <g id="patch_76">
    <path d="M 919.701458 359.517187 
L 919.701458 26.877187 
L 888.727474 26.877187 
L 888.727474 359.517187 
z
" clip-path="url(#p47e74efac3)" style="fill: #add8e6; stroke: #add8e6; stroke-linejoin: miter"/>
   </g>
   <g id="patch_77">
    <path d="M 908.213169 359.517187 
L 908.213169 26.877187 
L 909.086904 26.877187 
L 909.086904 359.517187 
z
" clip-path="url(#p47e74efac3)" style="fill: #add8e6; stroke: #add8e6; stroke-linejoin: miter"/>
   </g>
   <g id="patch_78">
    <path d="M 929.886241 359.517187 
L 929.886241 26.877187 
L 930.0768 26.877187 
L 930.0768 359.517187 
z
" clip-path="url(#p47e74efac3)" style="fill: #add8e6; stroke: #add8e6; stroke-linejoin: miter"/>
   </g>
   <g id="patch_79">
    <path d="M 930.774166 359.517187 
L 930.774166 26.877187 
L 930.593743 26.877187 
L 930.593743 359.517187 
z
" clip-path="url(#p47e74efac3)" style="fill: #add8e6; stroke: #add8e6; stroke-linejoin: miter"/>
   </g>
   <g id="patch_80">
    <path d="M 970.144919 359.517187 
L 970.144919 26.877187 
L 970.921347 26.877187 
L 970.921347 359.517187 
z
" clip-path="url(#p47e74efac3)" style="fill: #add8e6; stroke: #add8e6; stroke-linejoin: miter"/>
   </g>
   <g id="patch_81">
    <path d="M 991.396328 359.517187 
L 991.396328 26.877187 
L 991.670003 26.877187 
L 991.670003 359.517187 
z
" clip-path="url(#p47e74efac3)" style="fill: #add8e6; stroke: #add8e6; stroke-linejoin: miter"/>
   </g>
   <g id="patch_82">
    <path d="M 1004.802373 359.517187 
L 1004.802373 26.877187 
L 1006.26603 26.877187 
L 1006.26603 359.517187 
z
" clip-path="url(#p47e74efac3)" style="fill: #add8e6; stroke: #add8e6; stroke-linejoin: miter"/>
   </g>
   <g id="patch_83">
    <path d="M 1024.744193 359.517187 
L 1024.744193 26.877187 
L 1025.439532 26.877187 
L 1025.439532 359.517187 
z
" clip-path="url(#p47e74efac3)" style="fill: #add8e6; stroke: #add8e6; stroke-linejoin: miter"/>
   </g>
   <g id="patch_84">
    <path d="M 1055.549918 359.517187 
L 1055.549918 26.877187 
L 1057.867037 26.877187 
L 1057.867037 359.517187 
z
" clip-path="url(#p47e74efac3)" style="fill: #add8e6; stroke: #add8e6; stroke-linejoin: miter"/>
   </g>
   <g id="patch_85">
    <path d="M 1076.924987 359.517187 
L 1076.924987 26.877187 
L 1076.738482 26.877187 
L 1076.738482 359.517187 
z
" clip-path="url(#p47e74efac3)" style="fill: #add8e6; stroke: #add8e6; stroke-linejoin: miter"/>
   </g>
   <g id="patch_86">
    <path d="M 1098.330465 359.517187 
L 1098.330465 26.877187 
L 1099.723169 26.877187 
L 1099.723169 359.517187 
z
" clip-path="url(#p47e74efac3)" style="fill: #add8e6; stroke: #add8e6; stroke-linejoin: miter"/>
   </g>
   <g id="patch_87">
    <path d="M 99.962273 359.517187 
L 99.962273 26.877187 
L 160.779049 26.877187 
L 160.779049 359.517187 
z
" clip-path="url(#p47e74efac3)" style="fill: #808080; opacity: 0.4; stroke: #808080; stroke-linejoin: miter"/>
   </g>
   <g id="patch_88">
    <path d="M 598.659835 359.517187 
L 598.659835 26.877187 
L 1036.540621 26.877187 
L 1036.540621 359.517187 
z
" clip-path="url(#p47e74efac3)" style="fill: #808080; opacity: 0.4; stroke: #808080; stroke-linejoin: miter"/>
   </g>
   <g id="matplotlib.axis_1">
    <g id="xtick_1">
     <g id="line2d_1">
      <defs>
       <path id="m2516c2c7ac" d="M 0 0 
L 0 3.5 
" style="stroke: #000000; stroke-width: 0.8"/>
      </defs>
      <g>
       <use xlink:href="#m2516c2c7ac" x="116.068582" y="359.517187" style="stroke: #000000; stroke-width: 0.8"/>
      </g>
     </g>
     <g id="text_1">
      <!-- 11-12 06 -->
      <g transform="translate(93.588113 374.115625) scale(0.1 -0.1)">
       <defs>
        <path id="DejaVuSans-31" d="M 794 531 
L 1825 531 
L 1825 4091 
L 703 3866 
L 703 4441 
L 1819 4666 
L 2450 4666 
L 2450 531 
L 3481 531 
L 3481 0 
L 794 0 
L 794 531 
z
" transform="scale(0.015625)"/>
        <path id="DejaVuSans-2d" d="M 313 2009 
L 1997 2009 
L 1997 1497 
L 313 1497 
L 313 2009 
z
" transform="scale(0.015625)"/>
        <path id="DejaVuSans-32" d="M 1228 531 
L 3431 531 
L 3431 0 
L 469 0 
L 469 531 
Q 828 903 1448 1529 
Q 2069 2156 2228 2338 
Q 2531 2678 2651 2914 
Q 2772 3150 2772 3378 
Q 2772 3750 2511 3984 
Q 2250 4219 1831 4219 
Q 1534 4219 1204 4116 
Q 875 4013 500 3803 
L 500 4441 
Q 881 4594 1212 4672 
Q 1544 4750 1819 4750 
Q 2544 4750 2975 4387 
Q 3406 4025 3406 3419 
Q 3406 3131 3298 2873 
Q 3191 2616 2906 2266 
Q 2828 2175 2409 1742 
Q 1991 1309 1228 531 
z
" transform="scale(0.015625)"/>
        <path id="DejaVuSans-20" transform="scale(0.015625)"/>
        <path id="DejaVuSans-30" d="M 2034 4250 
Q 1547 4250 1301 3770 
Q 1056 3291 1056 2328 
Q 1056 1369 1301 889 
Q 1547 409 2034 409 
Q 2525 409 2770 889 
Q 3016 1369 3016 2328 
Q 3016 3291 2770 3770 
Q 2525 4250 2034 4250 
z
M 2034 4750 
Q 2819 4750 3233 4129 
Q 3647 3509 3647 2328 
Q 3647 1150 3233 529 
Q 2819 -91 2034 -91 
Q 1250 -91 836 529 
Q 422 1150 422 2328 
Q 422 3509 836 4129 
Q 1250 4750 2034 4750 
z
" transform="scale(0.015625)"/>
        <path id="DejaVuSans-36" d="M 2113 2584 
Q 1688 2584 1439 2293 
Q 1191 2003 1191 1497 
Q 1191 994 1439 701 
Q 1688 409 2113 409 
Q 2538 409 2786 701 
Q 3034 994 3034 1497 
Q 3034 2003 2786 2293 
Q 2538 2584 2113 2584 
z
M 3366 4563 
L 3366 3988 
Q 3128 4100 2886 4159 
Q 2644 4219 2406 4219 
Q 1781 4219 1451 3797 
Q 1122 3375 1075 2522 
Q 1259 2794 1537 2939 
Q 1816 3084 2150 3084 
Q 2853 3084 3261 2657 
Q 3669 2231 3669 1497 
Q 3669 778 3244 343 
Q 2819 -91 2113 -91 
Q 1303 -91 875 529 
Q 447 1150 447 2328 
Q 447 3434 972 4092 
Q 1497 4750 2381 4750 
Q 2619 4750 2861 4703 
Q 3103 4656 3366 4563 
z
" transform="scale(0.015625)"/>
       </defs>
       <use xlink:href="#DejaVuSans-31"/>
       <use xlink:href="#DejaVuSans-31" x="63.623047"/>
       <use xlink:href="#DejaVuSans-2d" x="127.246094"/>
       <use xlink:href="#DejaVuSans-31" x="163.330078"/>
       <use xlink:href="#DejaVuSans-32" x="226.953125"/>
       <use xlink:href="#DejaVuSans-20" x="290.576172"/>
       <use xlink:href="#DejaVuSans-30" x="322.363281"/>
       <use xlink:href="#DejaVuSans-36" x="385.986328"/>
      </g>
     </g>
    </g>
    <g id="xtick_2">
     <g id="line2d_2">
      <g>
       <use xlink:href="#m2516c2c7ac" x="225.538779" y="359.517187" style="stroke: #000000; stroke-width: 0.8"/>
      </g>
     </g>
     <g id="text_2">
      <!-- 11-12 09 -->
      <g transform="translate(203.05831 374.115625) scale(0.1 -0.1)">
       <defs>
        <path id="DejaVuSans-39" d="M 703 97 
L 703 672 
Q 941 559 1184 500 
Q 1428 441 1663 441 
Q 2288 441 2617 861 
Q 2947 1281 2994 2138 
Q 2813 1869 2534 1725 
Q 2256 1581 1919 1581 
Q 1219 1581 811 2004 
Q 403 2428 403 3163 
Q 403 3881 828 4315 
Q 1253 4750 1959 4750 
Q 2769 4750 3195 4129 
Q 3622 3509 3622 2328 
Q 3622 1225 3098 567 
Q 2575 -91 1691 -91 
Q 1453 -91 1209 -44 
Q 966 3 703 97 
z
M 1959 2075 
Q 2384 2075 2632 2365 
Q 2881 2656 2881 3163 
Q 2881 3666 2632 3958 
Q 2384 4250 1959 4250 
Q 1534 4250 1286 3958 
Q 1038 3666 1038 3163 
Q 1038 2656 1286 2365 
Q 1534 2075 1959 2075 
z
" transform="scale(0.015625)"/>
       </defs>
       <use xlink:href="#DejaVuSans-31"/>
       <use xlink:href="#DejaVuSans-31" x="63.623047"/>
       <use xlink:href="#DejaVuSans-2d" x="127.246094"/>
       <use xlink:href="#DejaVuSans-31" x="163.330078"/>
       <use xlink:href="#DejaVuSans-32" x="226.953125"/>
       <use xlink:href="#DejaVuSans-20" x="290.576172"/>
       <use xlink:href="#DejaVuSans-30" x="322.363281"/>
       <use xlink:href="#DejaVuSans-39" x="385.986328"/>
      </g>
     </g>
    </g>
    <g id="xtick_3">
     <g id="line2d_3">
      <g>
       <use xlink:href="#m2516c2c7ac" x="335.008975" y="359.517187" style="stroke: #000000; stroke-width: 0.8"/>
      </g>
     </g>
     <g id="text_3">
      <!-- 11-12 12 -->
      <g transform="translate(312.528506 374.115625) scale(0.1 -0.1)">
       <use xlink:href="#DejaVuSans-31"/>
       <use xlink:href="#DejaVuSans-31" x="63.623047"/>
       <use xlink:href="#DejaVuSans-2d" x="127.246094"/>
       <use xlink:href="#DejaVuSans-31" x="163.330078"/>
       <use xlink:href="#DejaVuSans-32" x="226.953125"/>
       <use xlink:href="#DejaVuSans-20" x="290.576172"/>
       <use xlink:href="#DejaVuSans-31" x="322.363281"/>
       <use xlink:href="#DejaVuSans-32" x="385.986328"/>
      </g>
     </g>
    </g>
    <g id="xtick_4">
     <g id="line2d_4">
      <g>
       <use xlink:href="#m2516c2c7ac" x="444.479172" y="359.517187" style="stroke: #000000; stroke-width: 0.8"/>
      </g>
     </g>
     <g id="text_4">
      <!-- 11-12 15 -->
      <g transform="translate(421.998703 374.115625) scale(0.1 -0.1)">
       <defs>
        <path id="DejaVuSans-35" d="M 691 4666 
L 3169 4666 
L 3169 4134 
L 1269 4134 
L 1269 2991 
Q 1406 3038 1543 3061 
Q 1681 3084 1819 3084 
Q 2600 3084 3056 2656 
Q 3513 2228 3513 1497 
Q 3513 744 3044 326 
Q 2575 -91 1722 -91 
Q 1428 -91 1123 -41 
Q 819 9 494 109 
L 494 744 
Q 775 591 1075 516 
Q 1375 441 1709 441 
Q 2250 441 2565 725 
Q 2881 1009 2881 1497 
Q 2881 1984 2565 2268 
Q 2250 2553 1709 2553 
Q 1456 2553 1204 2497 
Q 953 2441 691 2322 
L 691 4666 
z
" transform="scale(0.015625)"/>
       </defs>
       <use xlink:href="#DejaVuSans-31"/>
       <use xlink:href="#DejaVuSans-31" x="63.623047"/>
       <use xlink:href="#DejaVuSans-2d" x="127.246094"/>
       <use xlink:href="#DejaVuSans-31" x="163.330078"/>
       <use xlink:href="#DejaVuSans-32" x="226.953125"/>
       <use xlink:href="#DejaVuSans-20" x="290.576172"/>
       <use xlink:href="#DejaVuSans-31" x="322.363281"/>
       <use xlink:href="#DejaVuSans-35" x="385.986328"/>
      </g>
     </g>
    </g>
    <g id="xtick_5">
     <g id="line2d_5">
      <g>
       <use xlink:href="#m2516c2c7ac" x="553.949368" y="359.517187" style="stroke: #000000; stroke-width: 0.8"/>
      </g>
     </g>
     <g id="text_5">
      <!-- 11-12 18 -->
      <g transform="translate(531.468899 374.115625) scale(0.1 -0.1)">
       <defs>
        <path id="DejaVuSans-38" d="M 2034 2216 
Q 1584 2216 1326 1975 
Q 1069 1734 1069 1313 
Q 1069 891 1326 650 
Q 1584 409 2034 409 
Q 2484 409 2743 651 
Q 3003 894 3003 1313 
Q 3003 1734 2745 1975 
Q 2488 2216 2034 2216 
z
M 1403 2484 
Q 997 2584 770 2862 
Q 544 3141 544 3541 
Q 544 4100 942 4425 
Q 1341 4750 2034 4750 
Q 2731 4750 3128 4425 
Q 3525 4100 3525 3541 
Q 3525 3141 3298 2862 
Q 3072 2584 2669 2484 
Q 3125 2378 3379 2068 
Q 3634 1759 3634 1313 
Q 3634 634 3220 271 
Q 2806 -91 2034 -91 
Q 1263 -91 848 271 
Q 434 634 434 1313 
Q 434 1759 690 2068 
Q 947 2378 1403 2484 
z
M 1172 3481 
Q 1172 3119 1398 2916 
Q 1625 2713 2034 2713 
Q 2441 2713 2670 2916 
Q 2900 3119 2900 3481 
Q 2900 3844 2670 4047 
Q 2441 4250 2034 4250 
Q 1625 4250 1398 4047 
Q 1172 3844 1172 3481 
z
" transform="scale(0.015625)"/>
       </defs>
       <use xlink:href="#DejaVuSans-31"/>
       <use xlink:href="#DejaVuSans-31" x="63.623047"/>
       <use xlink:href="#DejaVuSans-2d" x="127.246094"/>
       <use xlink:href="#DejaVuSans-31" x="163.330078"/>
       <use xlink:href="#DejaVuSans-32" x="226.953125"/>
       <use xlink:href="#DejaVuSans-20" x="290.576172"/>
       <use xlink:href="#DejaVuSans-31" x="322.363281"/>
       <use xlink:href="#DejaVuSans-38" x="385.986328"/>
      </g>
     </g>
    </g>
    <g id="xtick_6">
     <g id="line2d_6">
      <g>
       <use xlink:href="#m2516c2c7ac" x="663.419565" y="359.517187" style="stroke: #000000; stroke-width: 0.8"/>
      </g>
     </g>
     <g id="text_6">
      <!-- 11-12 21 -->
      <g transform="translate(640.939096 374.115625) scale(0.1 -0.1)">
       <use xlink:href="#DejaVuSans-31"/>
       <use xlink:href="#DejaVuSans-31" x="63.623047"/>
       <use xlink:href="#DejaVuSans-2d" x="127.246094"/>
       <use xlink:href="#DejaVuSans-31" x="163.330078"/>
       <use xlink:href="#DejaVuSans-32" x="226.953125"/>
       <use xlink:href="#DejaVuSans-20" x="290.576172"/>
       <use xlink:href="#DejaVuSans-32" x="322.363281"/>
       <use xlink:href="#DejaVuSans-31" x="385.986328"/>
      </g>
     </g>
    </g>
    <g id="xtick_7">
     <g id="line2d_7">
      <g>
       <use xlink:href="#m2516c2c7ac" x="772.889761" y="359.517187" style="stroke: #000000; stroke-width: 0.8"/>
      </g>
     </g>
     <g id="text_7">
      <!-- 11-13 00 -->
      <g transform="translate(750.409293 374.115625) scale(0.1 -0.1)">
       <defs>
        <path id="DejaVuSans-33" d="M 2597 2516 
Q 3050 2419 3304 2112 
Q 3559 1806 3559 1356 
Q 3559 666 3084 287 
Q 2609 -91 1734 -91 
Q 1441 -91 1130 -33 
Q 819 25 488 141 
L 488 750 
Q 750 597 1062 519 
Q 1375 441 1716 441 
Q 2309 441 2620 675 
Q 2931 909 2931 1356 
Q 2931 1769 2642 2001 
Q 2353 2234 1838 2234 
L 1294 2234 
L 1294 2753 
L 1863 2753 
Q 2328 2753 2575 2939 
Q 2822 3125 2822 3475 
Q 2822 3834 2567 4026 
Q 2313 4219 1838 4219 
Q 1578 4219 1281 4162 
Q 984 4106 628 3988 
L 628 4550 
Q 988 4650 1302 4700 
Q 1616 4750 1894 4750 
Q 2613 4750 3031 4423 
Q 3450 4097 3450 3541 
Q 3450 3153 3228 2886 
Q 3006 2619 2597 2516 
z
" transform="scale(0.015625)"/>
       </defs>
       <use xlink:href="#DejaVuSans-31"/>
       <use xlink:href="#DejaVuSans-31" x="63.623047"/>
       <use xlink:href="#DejaVuSans-2d" x="127.246094"/>
       <use xlink:href="#DejaVuSans-31" x="163.330078"/>
       <use xlink:href="#DejaVuSans-33" x="226.953125"/>
       <use xlink:href="#DejaVuSans-20" x="290.576172"/>
       <use xlink:href="#DejaVuSans-30" x="322.363281"/>
       <use xlink:href="#DejaVuSans-30" x="385.986328"/>
      </g>
     </g>
    </g>
    <g id="xtick_8">
     <g id="line2d_8">
      <g>
       <use xlink:href="#m2516c2c7ac" x="882.359958" y="359.517187" style="stroke: #000000; stroke-width: 0.8"/>
      </g>
     </g>
     <g id="text_8">
      <!-- 11-13 03 -->
      <g transform="translate(859.879489 374.115625) scale(0.1 -0.1)">
       <use xlink:href="#DejaVuSans-31"/>
       <use xlink:href="#DejaVuSans-31" x="63.623047"/>
       <use xlink:href="#DejaVuSans-2d" x="127.246094"/>
       <use xlink:href="#DejaVuSans-31" x="163.330078"/>
       <use xlink:href="#DejaVuSans-33" x="226.953125"/>
       <use xlink:href="#DejaVuSans-20" x="290.576172"/>
       <use xlink:href="#DejaVuSans-30" x="322.363281"/>
       <use xlink:href="#DejaVuSans-33" x="385.986328"/>
      </g>
     </g>
    </g>
    <g id="xtick_9">
     <g id="line2d_9">
      <g>
       <use xlink:href="#m2516c2c7ac" x="991.830154" y="359.517187" style="stroke: #000000; stroke-width: 0.8"/>
      </g>
     </g>
     <g id="text_9">
      <!-- 11-13 06 -->
      <g transform="translate(969.349686 374.115625) scale(0.1 -0.1)">
       <use xlink:href="#DejaVuSans-31"/>
       <use xlink:href="#DejaVuSans-31" x="63.623047"/>
       <use xlink:href="#DejaVuSans-2d" x="127.246094"/>
       <use xlink:href="#DejaVuSans-31" x="163.330078"/>
       <use xlink:href="#DejaVuSans-33" x="226.953125"/>
       <use xlink:href="#DejaVuSans-20" x="290.576172"/>
       <use xlink:href="#DejaVuSans-30" x="322.363281"/>
       <use xlink:href="#DejaVuSans-36" x="385.986328"/>
      </g>
     </g>
    </g>
    <g id="xtick_10">
     <g id="line2d_10">
      <g>
       <use xlink:href="#m2516c2c7ac" x="1101.300351" y="359.517187" style="stroke: #000000; stroke-width: 0.8"/>
      </g>
     </g>
     <g id="text_10">
      <!-- 11-13 09 -->
      <g transform="translate(1078.819882 374.115625) scale(0.1 -0.1)">
       <use xlink:href="#DejaVuSans-31"/>
       <use xlink:href="#DejaVuSans-31" x="63.623047"/>
       <use xlink:href="#DejaVuSans-2d" x="127.246094"/>
       <use xlink:href="#DejaVuSans-31" x="163.330078"/>
       <use xlink:href="#DejaVuSans-33" x="226.953125"/>
       <use xlink:href="#DejaVuSans-20" x="290.576172"/>
       <use xlink:href="#DejaVuSans-30" x="322.363281"/>
       <use xlink:href="#DejaVuSans-39" x="385.986328"/>
      </g>
     </g>
    </g>
    <g id="text_11">
     <!-- Time -->
     <g transform="translate(592.554688 389.313437) scale(0.12 -0.12)">
      <defs>
       <path id="DejaVuSans-54" d="M -19 4666 
L 3928 4666 
L 3928 4134 
L 2272 4134 
L 2272 0 
L 1638 0 
L 1638 4134 
L -19 4134 
L -19 4666 
z
" transform="scale(0.015625)"/>
       <path id="DejaVuSans-69" d="M 603 3500 
L 1178 3500 
L 1178 0 
L 603 0 
L 603 3500 
z
M 603 4863 
L 1178 4863 
L 1178 4134 
L 603 4134 
L 603 4863 
z
" transform="scale(0.015625)"/>
       <path id="DejaVuSans-6d" d="M 3328 2828 
Q 3544 3216 3844 3400 
Q 4144 3584 4550 3584 
Q 5097 3584 5394 3201 
Q 5691 2819 5691 2113 
L 5691 0 
L 5113 0 
L 5113 2094 
Q 5113 2597 4934 2840 
Q 4756 3084 4391 3084 
Q 3944 3084 3684 2787 
Q 3425 2491 3425 1978 
L 3425 0 
L 2847 0 
L 2847 2094 
Q 2847 2600 2669 2842 
Q 2491 3084 2119 3084 
Q 1678 3084 1418 2786 
Q 1159 2488 1159 1978 
L 1159 0 
L 581 0 
L 581 3500 
L 1159 3500 
L 1159 2956 
Q 1356 3278 1631 3431 
Q 1906 3584 2284 3584 
Q 2666 3584 2933 3390 
Q 3200 3197 3328 2828 
z
" transform="scale(0.015625)"/>
       <path id="DejaVuSans-65" d="M 3597 1894 
L 3597 1613 
L 953 1613 
Q 991 1019 1311 708 
Q 1631 397 2203 397 
Q 2534 397 2845 478 
Q 3156 559 3463 722 
L 3463 178 
Q 3153 47 2828 -22 
Q 2503 -91 2169 -91 
Q 1331 -91 842 396 
Q 353 884 353 1716 
Q 353 2575 817 3079 
Q 1281 3584 2069 3584 
Q 2775 3584 3186 3129 
Q 3597 2675 3597 1894 
z
M 3022 2063 
Q 3016 2534 2758 2815 
Q 2500 3097 2075 3097 
Q 1594 3097 1305 2825 
Q 1016 2553 972 2059 
L 3022 2063 
z
" transform="scale(0.015625)"/>
      </defs>
      <use xlink:href="#DejaVuSans-54"/>
      <use xlink:href="#DejaVuSans-69" x="57.958984"/>
      <use xlink:href="#DejaVuSans-6d" x="85.742188"/>
      <use xlink:href="#DejaVuSans-65" x="183.154297"/>
     </g>
    </g>
   </g>
   <g id="matplotlib.axis_2">
    <g id="ytick_1">
     <g id="line2d_11">
      <defs>
       <path id="ma2b3165cd4" d="M 0 0 
L -3.5 0 
" style="stroke: #000000; stroke-width: 0.8"/>
      </defs>
      <g>
       <use xlink:href="#ma2b3165cd4" x="49.235" y="344.397187" style="stroke: #000000; stroke-width: 0.8"/>
      </g>
     </g>
     <g id="text_12">
      <!-- 0 -->
      <g transform="translate(35.8725 348.196406) scale(0.1 -0.1)">
       <use xlink:href="#DejaVuSans-30"/>
      </g>
     </g>
    </g>
    <g id="ytick_2">
     <g id="line2d_12">
      <g>
       <use xlink:href="#ma2b3165cd4" x="49.235" y="305.428115" style="stroke: #000000; stroke-width: 0.8"/>
      </g>
     </g>
     <g id="text_13">
      <!-- 50 -->
      <g transform="translate(29.51 309.227334) scale(0.1 -0.1)">
       <use xlink:href="#DejaVuSans-35"/>
       <use xlink:href="#DejaVuSans-30" x="63.623047"/>
      </g>
     </g>
    </g>
    <g id="ytick_3">
     <g id="line2d_13">
      <g>
       <use xlink:href="#ma2b3165cd4" x="49.235" y="266.459043" style="stroke: #000000; stroke-width: 0.8"/>
      </g>
     </g>
     <g id="text_14">
      <!-- 100 -->
      <g transform="translate(23.1475 270.258262) scale(0.1 -0.1)">
       <use xlink:href="#DejaVuSans-31"/>
       <use xlink:href="#DejaVuSans-30" x="63.623047"/>
       <use xlink:href="#DejaVuSans-30" x="127.246094"/>
      </g>
     </g>
    </g>
    <g id="ytick_4">
     <g id="line2d_14">
      <g>
       <use xlink:href="#ma2b3165cd4" x="49.235" y="227.489971" style="stroke: #000000; stroke-width: 0.8"/>
      </g>
     </g>
     <g id="text_15">
      <!-- 150 -->
      <g transform="translate(23.1475 231.28919) scale(0.1 -0.1)">
       <use xlink:href="#DejaVuSans-31"/>
       <use xlink:href="#DejaVuSans-35" x="63.623047"/>
       <use xlink:href="#DejaVuSans-30" x="127.246094"/>
      </g>
     </g>
    </g>
    <g id="ytick_5">
     <g id="line2d_15">
      <g>
       <use xlink:href="#ma2b3165cd4" x="49.235" y="188.520899" style="stroke: #000000; stroke-width: 0.8"/>
      </g>
     </g>
     <g id="text_16">
      <!-- 200 -->
      <g transform="translate(23.1475 192.320118) scale(0.1 -0.1)">
       <use xlink:href="#DejaVuSans-32"/>
       <use xlink:href="#DejaVuSans-30" x="63.623047"/>
       <use xlink:href="#DejaVuSans-30" x="127.246094"/>
      </g>
     </g>
    </g>
    <g id="ytick_6">
     <g id="line2d_16">
      <g>
       <use xlink:href="#ma2b3165cd4" x="49.235" y="149.551827" style="stroke: #000000; stroke-width: 0.8"/>
      </g>
     </g>
     <g id="text_17">
      <!-- 250 -->
      <g transform="translate(23.1475 153.351045) scale(0.1 -0.1)">
       <use xlink:href="#DejaVuSans-32"/>
       <use xlink:href="#DejaVuSans-35" x="63.623047"/>
       <use xlink:href="#DejaVuSans-30" x="127.246094"/>
      </g>
     </g>
    </g>
    <g id="ytick_7">
     <g id="line2d_17">
      <g>
       <use xlink:href="#ma2b3165cd4" x="49.235" y="110.582755" style="stroke: #000000; stroke-width: 0.8"/>
      </g>
     </g>
     <g id="text_18">
      <!-- 300 -->
      <g transform="translate(23.1475 114.381973) scale(0.1 -0.1)">
       <use xlink:href="#DejaVuSans-33"/>
       <use xlink:href="#DejaVuSans-30" x="63.623047"/>
       <use xlink:href="#DejaVuSans-30" x="127.246094"/>
      </g>
     </g>
    </g>
    <g id="ytick_8">
     <g id="line2d_18">
      <g>
       <use xlink:href="#ma2b3165cd4" x="49.235" y="71.613682" style="stroke: #000000; stroke-width: 0.8"/>
      </g>
     </g>
     <g id="text_19">
      <!-- 350 -->
      <g transform="translate(23.1475 75.412901) scale(0.1 -0.1)">
       <use xlink:href="#DejaVuSans-33"/>
       <use xlink:href="#DejaVuSans-35" x="63.623047"/>
       <use xlink:href="#DejaVuSans-30" x="127.246094"/>
      </g>
     </g>
    </g>
    <g id="ytick_9">
     <g id="line2d_19">
      <g>
       <use xlink:href="#ma2b3165cd4" x="49.235" y="32.64461" style="stroke: #000000; stroke-width: 0.8"/>
      </g>
     </g>
     <g id="text_20">
      <!-- 400 -->
      <g transform="translate(23.1475 36.443829) scale(0.1 -0.1)">
       <defs>
        <path id="DejaVuSans-34" d="M 2419 4116 
L 825 1625 
L 2419 1625 
L 2419 4116 
z
M 2253 4666 
L 3047 4666 
L 3047 1625 
L 3713 1625 
L 3713 1100 
L 3047 1100 
L 3047 0 
L 2419 0 
L 2419 1100 
L 313 1100 
L 313 1709 
L 2253 4666 
z
" transform="scale(0.015625)"/>
       </defs>
       <use xlink:href="#DejaVuSans-34"/>
       <use xlink:href="#DejaVuSans-30" x="63.623047"/>
       <use xlink:href="#DejaVuSans-30" x="127.246094"/>
      </g>
     </g>
    </g>
    <g id="text_21">
     <!-- Pellet_Count -->
     <g transform="translate(16.318125 230.485312) rotate(-90) scale(0.12 -0.12)">
      <defs>
       <path id="DejaVuSans-50" d="M 1259 4147 
L 1259 2394 
L 2053 2394 
Q 2494 2394 2734 2622 
Q 2975 2850 2975 3272 
Q 2975 3691 2734 3919 
Q 2494 4147 2053 4147 
L 1259 4147 
z
M 628 4666 
L 2053 4666 
Q 2838 4666 3239 4311 
Q 3641 3956 3641 3272 
Q 3641 2581 3239 2228 
Q 2838 1875 2053 1875 
L 1259 1875 
L 1259 0 
L 628 0 
L 628 4666 
z
" transform="scale(0.015625)"/>
       <path id="DejaVuSans-6c" d="M 603 4863 
L 1178 4863 
L 1178 0 
L 603 0 
L 603 4863 
z
" transform="scale(0.015625)"/>
       <path id="DejaVuSans-74" d="M 1172 4494 
L 1172 3500 
L 2356 3500 
L 2356 3053 
L 1172 3053 
L 1172 1153 
Q 1172 725 1289 603 
Q 1406 481 1766 481 
L 2356 481 
L 2356 0 
L 1766 0 
Q 1100 0 847 248 
Q 594 497 594 1153 
L 594 3053 
L 172 3053 
L 172 3500 
L 594 3500 
L 594 4494 
L 1172 4494 
z
" transform="scale(0.015625)"/>
       <path id="DejaVuSans-5f" d="M 3263 -1063 
L 3263 -1509 
L -63 -1509 
L -63 -1063 
L 3263 -1063 
z
" transform="scale(0.015625)"/>
       <path id="DejaVuSans-43" d="M 4122 4306 
L 4122 3641 
Q 3803 3938 3442 4084 
Q 3081 4231 2675 4231 
Q 1875 4231 1450 3742 
Q 1025 3253 1025 2328 
Q 1025 1406 1450 917 
Q 1875 428 2675 428 
Q 3081 428 3442 575 
Q 3803 722 4122 1019 
L 4122 359 
Q 3791 134 3420 21 
Q 3050 -91 2638 -91 
Q 1578 -91 968 557 
Q 359 1206 359 2328 
Q 359 3453 968 4101 
Q 1578 4750 2638 4750 
Q 3056 4750 3426 4639 
Q 3797 4528 4122 4306 
z
" transform="scale(0.015625)"/>
       <path id="DejaVuSans-6f" d="M 1959 3097 
Q 1497 3097 1228 2736 
Q 959 2375 959 1747 
Q 959 1119 1226 758 
Q 1494 397 1959 397 
Q 2419 397 2687 759 
Q 2956 1122 2956 1747 
Q 2956 2369 2687 2733 
Q 2419 3097 1959 3097 
z
M 1959 3584 
Q 2709 3584 3137 3096 
Q 3566 2609 3566 1747 
Q 3566 888 3137 398 
Q 2709 -91 1959 -91 
Q 1206 -91 779 398 
Q 353 888 353 1747 
Q 353 2609 779 3096 
Q 1206 3584 1959 3584 
z
" transform="scale(0.015625)"/>
       <path id="DejaVuSans-75" d="M 544 1381 
L 544 3500 
L 1119 3500 
L 1119 1403 
Q 1119 906 1312 657 
Q 1506 409 1894 409 
Q 2359 409 2629 706 
Q 2900 1003 2900 1516 
L 2900 3500 
L 3475 3500 
L 3475 0 
L 2900 0 
L 2900 538 
Q 2691 219 2414 64 
Q 2138 -91 1772 -91 
Q 1169 -91 856 284 
Q 544 659 544 1381 
z
M 1991 3584 
L 1991 3584 
z
" transform="scale(0.015625)"/>
       <path id="DejaVuSans-6e" d="M 3513 2113 
L 3513 0 
L 2938 0 
L 2938 2094 
Q 2938 2591 2744 2837 
Q 2550 3084 2163 3084 
Q 1697 3084 1428 2787 
Q 1159 2491 1159 1978 
L 1159 0 
L 581 0 
L 581 3500 
L 1159 3500 
L 1159 2956 
Q 1366 3272 1645 3428 
Q 1925 3584 2291 3584 
Q 2894 3584 3203 3211 
Q 3513 2838 3513 2113 
z
" transform="scale(0.015625)"/>
      </defs>
      <use xlink:href="#DejaVuSans-50"/>
      <use xlink:href="#DejaVuSans-65" x="56.677734"/>
      <use xlink:href="#DejaVuSans-6c" x="118.201172"/>
      <use xlink:href="#DejaVuSans-6c" x="145.984375"/>
      <use xlink:href="#DejaVuSans-65" x="173.767578"/>
      <use xlink:href="#DejaVuSans-74" x="235.291016"/>
      <use xlink:href="#DejaVuSans-5f" x="274.5"/>
      <use xlink:href="#DejaVuSans-43" x="324.5"/>
      <use xlink:href="#DejaVuSans-6f" x="394.324219"/>
      <use xlink:href="#DejaVuSans-75" x="455.505859"/>
      <use xlink:href="#DejaVuSans-6e" x="518.884766"/>
      <use xlink:href="#DejaVuSans-74" x="582.263672"/>
     </g>
    </g>
   </g>
   <g id="line2d_20">
    <path d="M 99.962273 344.397187 
L 108.101585 344.397187 
L 108.304307 343.617806 
L 112.520937 343.617806 
L 112.520937 343.617806 
L 113.189921 342.838425 
L 113.727136 342.838425 
L 114.97388 342.059043 
L 116.200352 342.059043 
L 116.514572 341.279662 
L 122.079307 341.279662 
L 122.697611 340.50028 
L 123.376731 340.50028 
L 123.508501 339.720899 
L 133.208777 339.720899 
L 133.431772 338.941517 
L 134.85083 338.941517 
L 134.931919 338.162136 
L 135.692129 338.162136 
L 135.763081 337.382755 
L 136.776694 337.382755 
L 137.67881 336.603373 
L 139.330999 336.603373 
L 141.44945 335.823992 
L 141.44945 335.823992 
L 141.540675 335.04461 
L 146.324928 335.04461 
L 146.426289 334.265229 
L 146.720237 334.265229 
L 146.720237 334.265229 
L 147.571672 333.485847 
L 148.037934 333.485847 
L 148.960322 332.706466 
L 149.842165 332.706466 
L 150.186793 331.927084 
L 155.427172 331.927084 
L 155.518397 331.147703 
L 156.84623 331.147703 
L 157.089497 330.368322 
L 159.846525 330.368322 
L 160.454692 329.58894 
L 161.914295 329.58894 
L 161.924431 328.809559 
L 173.08431 328.809559 
L 173.124854 328.030177 
L 173.499891 328.030177 
L 173.499891 328.030177 
L 173.58098 327.250796 
L 173.915472 327.250796 
L 173.966153 326.471414 
L 175.446028 326.471414 
L 175.516981 325.692033 
L 180.737087 325.692033 
L 180.737087 325.692033 
L 180.777632 324.912651 
L 182.338596 324.912651 
L 182.369004 324.13327 
L 182.855538 324.13327 
L 182.87581 323.353889 
L 185.115895 323.353889 
L 185.136167 322.574507 
L 195.089846 322.574507 
L 195.110119 321.795126 
L 197.035983 321.795126 
L 197.066391 321.015744 
L 198.414497 321.015744 
L 198.444905 320.236363 
L 199.073345 320.236363 
L 199.083481 319.456981 
L 199.722057 319.456981 
L 199.722057 319.456981 
L 199.762602 318.6776 
L 199.995733 318.6776 
L 200.005869 317.898218 
L 200.299817 317.898218 
L 200.391042 317.118837 
L 200.583628 317.118837 
L 200.624173 316.339456 
L 200.806623 316.339456 
L 200.826895 315.560074 
L 201.029618 315.560074 
L 201.04989 314.780693 
L 201.283021 314.780693 
L 201.303294 314.001311 
L 201.516152 314.001311 
L 201.536425 313.22193 
L 201.830372 313.22193 
L 201.850645 312.442548 
L 202.033095 312.442548 
L 202.195273 311.663167 
L 207.41538 311.663167 
L 208.510081 310.883785 
L 210.233223 310.883785 
L 210.253496 310.104404 
L 219.153017 310.104404 
L 219.264515 309.325023 
L 220.409897 309.325023 
L 221.261332 308.545641 
L 221.453919 308.545641 
L 221.474191 307.76626 
L 221.697186 307.76626 
L 221.707322 306.986878 
L 221.991133 306.986878 
L 222.021542 306.207497 
L 222.173584 306.207497 
L 222.203992 305.428115 
L 226.684161 305.428115 
L 226.71457 304.648734 
L 226.998381 304.648734 
L 227.799136 303.869352 
L 230.921063 303.869352 
L 231.681273 303.089971 
L 231.87386 303.089971 
L 231.894132 302.31059 
L 232.5023 302.31059 
L 232.512436 301.531208 
L 234.722112 301.531208 
L 238.665066 300.751827 
L 238.928606 299.972445 
L 239.171873 299.972445 
L 240.063852 299.193064 
L 241.401821 299.193064 
L 241.655224 298.413682 
L 246.490158 298.413682 
L 246.530703 297.634301 
L 247.108462 297.634301 
L 247.118598 296.854919 
L 247.331457 296.854919 
L 247.351729 296.075538 
L 249.389091 296.075538 
L 250.058075 295.296157 
L 251.619039 295.296157 
L 251.639312 294.516775 
L 252.277888 294.516775 
L 252.29816 293.737394 
L 254.426747 293.737394 
L 254.751103 292.958012 
L 258.734602 292.958012 
L 258.775147 292.178631 
L 258.947461 292.178631 
L 258.967733 291.399249 
L 259.515084 291.399249 
L 259.545493 290.619868 
L 259.961074 290.619868 
L 259.981346 289.840486 
L 261.055776 289.840486 
L 261.086184 289.061105 
L 261.937619 289.061105 
L 261.968027 288.281724 
L 262.150478 288.281724 
L 262.180886 287.502342 
L 262.322792 287.502342 
L 262.332928 286.722961 
L 262.495106 286.722961 
L 262.525515 285.943579 
L 262.66742 285.943579 
L 262.677556 285.164198 
L 264.228384 285.164198 
L 264.704782 284.384816 
L 267.117181 284.384816 
L 267.299631 283.605435 
L 271.648031 283.605435 
L 271.668303 282.826053 
L 273.837435 282.826053 
L 274.334105 282.046672 
L 276.75664 282.046672 
L 276.787048 281.267291 
L 277.192494 281.267291 
L 277.293855 280.487909 
L 277.51685 280.487909 
L 277.537122 279.708528 
L 277.749981 279.708528 
L 277.760117 278.929146 
L 278.074337 278.929146 
L 278.175698 278.149765 
L 281.743616 278.149765 
L 282.503825 277.370383 
L 286.487324 277.370383 
L 289.072037 276.591002 
L 290.197148 276.591002 
L 290.66341 275.81162 
L 291.737839 275.81162 
L 293.511662 275.032239 
L 300.353549 275.032239 
L 300.373821 274.252858 
L 300.880628 274.252858 
L 300.911036 273.473476 
L 301.255665 273.473476 
L 301.265801 272.694095 
L 301.52934 272.694095 
L 301.549612 271.914713 
L 303.769425 271.914713 
L 304.032964 271.135332 
L 304.185006 271.135332 
L 304.205278 270.35595 
L 305.898012 270.35595 
L 306.992714 269.576569 
L 308.209049 269.576569 
L 309.577427 268.797187 
L 314.392088 268.797187 
L 320.412949 268.017806 
L 325.521558 268.017806 
L 326.200679 267.238425 
L 327.721098 267.238425 
L 327.741371 266.459043 
L 328.035318 266.459043 
L 328.075863 265.679662 
L 328.18736 265.679662 
L 328.217769 264.90028 
L 328.471172 264.90028 
L 328.481308 264.120899 
L 328.775256 264.120899 
L 328.8158 263.341517 
L 329.940911 263.341517 
L 329.981455 262.562136 
L 331.866775 262.562136 
L 331.917456 261.782755 
L 332.22154 261.782755 
L 332.241812 261.003373 
L 333.427739 261.003373 
L 333.448011 260.223992 
L 333.863593 260.223992 
L 333.924409 259.44461 
L 335.657687 259.44461 
L 335.688096 258.665229 
L 336.965248 258.665229 
L 336.995657 257.885847 
L 339.397919 257.885847 
L 339.418191 257.106466 
L 342.935428 257.106466 
L 342.965837 256.327084 
L 343.249648 256.327084 
L 343.269921 255.547703 
L 343.503052 255.547703 
L 343.543596 254.768322 
L 343.84768 254.768322 
L 343.867952 253.98894 
L 347.141922 253.98894 
L 347.141922 253.98894 
L 347.202739 253.209559 
L 351.176101 253.209559 
L 351.196374 252.430177 
L 352.432981 252.430177 
L 352.473526 251.650796 
L 353.345233 251.650796 
L 353.365505 250.871414 
L 356.446889 250.871414 
L 356.710428 250.092033 
L 363.46109 250.092033 
L 363.481362 249.312651 
L 366.248526 249.312651 
L 366.268798 248.53327 
L 368.083165 248.53327 
L 368.113574 247.753889 
L 370.485428 247.753889 
L 370.5057 246.974507 
L 371.610538 246.974507 
L 371.651083 246.195126 
L 372.968779 246.195126 
L 373.009324 245.415744 
L 375.107503 245.415744 
L 376.019754 244.636363 
L 377.661807 244.636363 
L 378.817326 243.856981 
L 380.226248 243.856981 
L 381.898709 243.0776 
L 382.973139 243.0776 
L 383.854982 242.298218 
L 384.503695 242.298218 
L 385.983569 241.518837 
L 389.135906 241.518837 
L 389.460262 240.739456 
L 389.784618 240.739456 
L 390.321833 239.960074 
L 394.842547 239.960074 
L 394.883091 239.180693 
L 395.481123 239.180693 
L 395.501395 238.401311 
L 397.396851 238.401311 
L 397.406987 237.62193 
L 397.528621 237.62193 
L 397.548893 236.842548 
L 397.670527 236.842548 
L 398.045563 236.063167 
L 398.065836 235.283785 
L 398.947679 235.283785 
L 398.967951 234.504404 
L 399.119993 234.504404 
L 399.251763 232.945641 
L 399.748433 232.945641 
L 399.768705 232.16626 
L 400.843135 232.16626 
L 400.863407 231.386878 
L 401.87702 231.386878 
L 402.252057 230.607497 
L 402.50546 230.607497 
L 402.961586 229.828115 
L 403.985335 229.828115 
L 404.005607 229.048734 
L 404.218466 229.048734 
L 404.238738 228.269352 
L 409.793337 228.269352 
L 409.803473 227.489971 
L 411.658385 227.489971 
L 411.74961 226.71059 
L 413.351119 225.931208 
L 415.3378 225.931208 
L 415.358072 225.151827 
L 416.533863 225.151827 
L 416.554135 224.372445 
L 420.67954 224.372445 
L 420.699812 223.593064 
L 420.872127 223.593064 
L 420.882263 222.813682 
L 421.824923 222.813682 
L 421.966829 222.034301 
L 423.294661 222.034301 
L 423.375751 221.254919 
L 426.132778 221.254919 
L 426.173322 220.475538 
L 426.822034 220.475538 
L 426.842307 219.696157 
L 427.501155 219.696157 
L 430.572402 218.916775 
L 430.714308 218.137394 
L 433.288885 218.137394 
L 433.684194 217.358012 
L 437.018981 217.358012 
L 437.029117 216.578631 
L 437.28252 216.578631 
L 437.292656 215.799249 
L 437.505515 215.799249 
L 437.535923 215.019868 
L 437.840007 215.019868 
L 437.850143 214.240486 
L 439.127295 214.240486 
L 439.137432 213.461105 
L 439.279337 213.461105 
L 439.29961 212.681724 
L 439.542877 212.681724 
L 439.563149 211.902342 
L 441.843778 211.902342 
L 441.86405 211.122961 
L 443.759507 211.122961 
L 443.779779 210.343579 
L 444.002774 210.343579 
L 444.053454 209.564198 
L 444.246041 209.564198 
L 444.266313 208.784816 
L 444.539989 208.784816 
L 444.560261 208.005435 
L 445.016387 208.005435 
L 445.036659 207.226053 
L 445.624554 207.226053 
L 445.644827 206.446672 
L 447.02334 206.446672 
L 447.033476 205.667291 
L 448.878252 205.667291 
L 449.192472 204.887909 
L 450.104723 204.887909 
L 461.021335 204.108528 
L 461.041607 203.329146 
L 461.345691 203.329146 
L 461.365963 202.549765 
L 461.568686 202.549765 
L 461.588958 201.770383 
L 461.751136 201.770383 
L 461.771408 200.991002 
L 461.984267 200.991002 
L 462.004539 200.21162 
L 462.176853 200.21162 
L 462.197126 199.432239 
L 462.460665 199.432239 
L 462.480937 198.652858 
L 464.163535 198.652858 
L 465.01497 197.873476 
L 467.376688 197.873476 
L 467.549002 197.094095 
L 467.812541 197.094095 
L 467.832814 196.314713 
L 472.465025 196.314713 
L 472.495433 195.535332 
L 472.718428 195.535332 
L 472.748836 194.75595 
L 473.00224 194.75595 
L 473.022512 193.976569 
L 473.296187 193.976569 
L 473.306323 193.197187 
L 474.299664 193.197187 
L 474.319936 192.417806 
L 474.542931 192.417806 
L 477.968943 191.638425 
L 477.989215 190.859043 
L 481.090871 190.859043 
L 481.232777 190.079662 
L 483.178913 190.079662 
L 483.209322 189.30028 
L 483.462725 189.30028 
L 483.482997 188.520899 
L 483.736401 188.520899 
L 483.746537 187.741517 
L 484.040484 187.741517 
L 484.050621 186.962136 
L 484.31416 186.962136 
L 484.334432 186.182755 
L 484.638516 186.182755 
L 484.648652 185.403373 
L 484.993281 185.403373 
L 485.003417 184.623992 
L 485.297364 184.623992 
L 485.804171 183.84461 
L 486.06771 183.84461 
L 486.087983 183.065229 
L 489.351816 183.065229 
L 495.474038 182.285847 
L 513.850841 182.285847 
L 513.881249 181.506466 
L 514.337375 181.506466 
L 514.357647 180.727084 
L 514.550234 180.727084 
L 514.570506 179.947703 
L 514.894862 179.947703 
L 514.915134 179.168322 
L 515.229354 179.168322 
L 515.23949 178.38894 
L 515.452349 178.38894 
L 515.472621 177.609559 
L 515.675344 177.609559 
L 515.695616 176.830177 
L 516.040245 176.830177 
L 516.050381 176.050796 
L 516.324056 176.050796 
L 516.354465 175.271414 
L 516.607868 175.271414 
L 516.618004 174.492033 
L 516.830863 174.492033 
L 516.840999 173.712651 
L 529.896333 173.712651 
L 529.916606 172.93327 
L 530.159873 172.93327 
L 530.180145 172.153889 
L 530.443684 172.153889 
L 530.463957 171.374507 
L 530.636271 171.374507 
L 530.656543 170.595126 
L 530.859266 170.595126 
L 530.879538 169.815744 
L 551.800509 169.815744 
L 551.820781 169.036363 
L 552.064048 169.036363 
L 552.08432 168.256981 
L 552.297179 168.256981 
L 552.317451 167.4776 
L 552.580991 167.4776 
L 552.601263 166.698218 
L 553.087797 166.698218 
L 553.097933 165.918837 
L 553.331064 165.918837 
L 553.351337 165.139456 
L 561.835277 165.139456 
L 561.855549 164.360074 
L 562.037999 164.360074 
L 562.08868 163.580693 
L 564.278084 163.580693 
L 564.28822 162.801311 
L 564.744346 162.801311 
L 564.764618 162.02193 
L 565.007885 162.02193 
L 565.018021 161.242548 
L 567.714232 161.242548 
L 567.724368 160.463167 
L 567.957499 160.463167 
L 567.967635 159.683785 
L 568.231174 159.683785 
L 568.241311 158.904404 
L 568.444033 158.904404 
L 568.464305 158.125023 
L 568.626483 158.125023 
L 568.63662 157.345641 
L 568.910295 157.345641 
L 568.920431 156.56626 
L 576.258989 156.56626 
L 576.623889 155.786878 
L 576.826612 155.786878 
L 576.846884 155.007497 
L 577.009062 155.007497 
L 577.019199 154.228115 
L 577.17124 154.228115 
L 577.17124 153.448734 
L 577.363827 153.448734 
L 577.373963 152.669352 
L 577.515869 152.669352 
L 577.526005 151.889971 
L 577.759136 151.889971 
L 577.789544 151.11059 
L 578.012539 151.11059 
L 578.022675 150.331208 
L 578.164581 150.331208 
L 578.174717 149.551827 
L 578.367304 149.551827 
L 578.37744 148.772445 
L 587.408731 148.772445 
L 587.429003 147.993064 
L 587.611454 147.993064 
L 587.631726 147.213682 
L 587.814176 147.213682 
L 587.824312 146.434301 
L 588.006763 146.434301 
L 588.016899 145.654919 
L 588.219621 145.654919 
L 588.229758 144.875538 
L 588.493297 144.875538 
L 588.513569 144.096157 
L 588.726428 144.096157 
L 588.736564 143.316775 
L 600.19039 143.316775 
L 600.200526 142.537394 
L 600.393113 142.537394 
L 600.413385 141.758012 
L 600.565427 141.758012 
L 600.595835 140.978631 
L 600.808694 140.978631 
L 600.828966 140.199249 
L 601.102642 140.199249 
L 601.112778 139.419868 
L 601.295228 139.419868 
L 601.3155 138.640486 
L 601.497951 138.640486 
L 601.518223 137.861105 
L 601.741218 137.861105 
L 601.76149 137.081724 
L 617.10759 137.081724 
L 617.117726 136.302342 
L 618.131339 136.302342 
L 618.151611 135.522961 
L 618.475967 135.522961 
L 618.486104 134.743579 
L 619.073999 134.743579 
L 619.114544 133.964198 
L 619.499716 133.964198 
L 619.530125 133.184816 
L 619.702439 133.184816 
L 619.722711 132.405435 
L 619.976115 132.405435 
L 619.996387 131.626053 
L 620.239654 131.626053 
L 620.259926 130.846672 
L 653.567247 130.846672 
L 653.587519 130.067291 
L 653.810514 130.067291 
L 653.830786 129.287909 
L 654.053781 129.287909 
L 654.074054 128.508528 
L 654.327457 128.508528 
L 654.337593 127.729146 
L 654.58086 127.729146 
L 654.590996 126.949765 
L 654.824127 126.949765 
L 654.834263 126.170383 
L 655.128211 126.170383 
L 655.148483 125.391002 
L 655.422159 125.391002 
L 655.432295 124.61162 
L 655.736379 124.61162 
L 655.746515 123.832239 
L 656.050599 123.832239 
L 656.070871 123.052858 
L 656.33441 123.052858 
L 656.344546 122.273476 
L 680.640848 122.273476 
L 680.671257 121.494095 
L 680.873979 121.494095 
L 680.884116 120.714713 
L 681.137519 120.714713 
L 681.147655 119.935332 
L 681.411194 119.935332 
L 681.42133 119.15595 
L 681.978818 119.15595 
L 681.99909 118.376569 
L 682.252493 118.376569 
L 682.272765 117.597187 
L 702.646385 117.597187 
L 702.656521 116.817806 
L 702.838972 116.817806 
L 702.859244 116.038425 
L 703.072103 116.038425 
L 703.082239 115.259043 
L 703.274825 115.259043 
L 703.295097 114.479662 
L 703.477548 114.479662 
L 703.507956 113.70028 
L 703.862721 113.70028 
L 703.872857 112.920899 
L 704.085716 112.920899 
L 704.095852 112.141517 
L 704.30871 112.141517 
L 704.328983 111.362136 
L 704.521569 111.362136 
L 704.531705 110.582755 
L 704.764836 110.582755 
L 704.774972 109.803373 
L 734.230564 109.803373 
L 734.250836 109.023992 
L 734.727234 109.023992 
L 734.747507 108.24461 
L 734.960365 108.24461 
L 734.970502 107.465229 
L 735.173224 107.465229 
L 735.18336 106.685847 
L 735.76112 106.685847 
L 735.781392 105.906466 
L 736.024659 105.906466 
L 736.034795 105.127084 
L 736.328743 105.127084 
L 736.349015 104.347703 
L 789.543422 104.347703 
L 789.563694 103.568322 
L 789.786689 103.568322 
L 789.806961 102.78894 
L 790.100909 102.78894 
L 790.141453 102.009559 
L 790.435401 102.009559 
L 790.445537 101.230177 
L 790.840846 101.230177 
L 790.861119 100.450796 
L 792.047046 100.450796 
L 792.067318 99.671414 
L 841.58231 99.671414 
L 841.602582 98.892033 
L 842.099252 98.892033 
L 842.109388 98.112651 
L 842.423608 98.112651 
L 842.433744 97.33327 
L 842.910143 97.33327 
L 842.950687 96.553889 
L 843.183818 96.553889 
L 843.20409 95.774507 
L 843.508174 95.774507 
L 843.528446 94.995126 
L 843.791986 94.995126 
L 843.812258 94.215744 
L 844.055525 94.215744 
L 844.065661 93.436363 
L 844.329201 93.436363 
L 844.349473 92.656981 
L 844.531923 92.656981 
L 844.552195 91.8776 
L 844.765054 91.8776 
L 844.77519 91.098218 
L 887.681426 91.098218 
L 887.681426 91.098218 
L 887.742242 90.318837 
L 888.127415 90.318837 
L 888.137551 89.539456 
L 907.821915 89.539456 
L 907.842187 88.760074 
L 908.125998 88.760074 
L 908.146271 87.980693 
L 908.430082 87.980693 
L 908.450355 87.201311 
L 908.632805 87.201311 
L 908.642941 86.42193 
L 909.028114 86.42193 
L 909.058522 85.642548 
L 928.753022 85.642548 
L 928.773294 84.863167 
L 928.955744 84.863167 
L 928.986153 84.083785 
L 929.2801 84.083785 
L 929.300373 83.304404 
L 929.472687 83.304404 
L 929.482823 82.525023 
L 929.685546 82.525023 
L 929.705818 81.745641 
L 929.938949 81.745641 
L 929.959221 80.96626 
L 930.212624 80.96626 
L 930.22276 80.186878 
L 930.516708 80.186878 
L 930.53698 79.407497 
L 969.125225 79.407497 
L 969.145497 78.628115 
L 969.419172 78.628115 
L 969.439445 77.848734 
L 969.632031 77.848734 
L 969.652303 77.069352 
L 969.855026 77.069352 
L 969.875298 76.289971 
L 970.057749 76.289971 
L 970.067885 75.51059 
L 970.311152 75.51059 
L 970.331424 74.731208 
L 970.635508 74.731208 
L 970.665916 73.951827 
L 990.786133 73.951827 
L 990.806405 73.172445 
L 991.069945 73.172445 
L 991.090217 72.393064 
L 991.252395 72.393064 
L 991.262531 71.613682 
L 1003.800923 71.613682 
L 1003.811059 70.834301 
L 1004.003646 70.834301 
L 1004.023918 70.054919 
L 1004.277321 70.054919 
L 1004.297593 69.275538 
L 1004.500316 69.275538 
L 1004.530724 68.496157 
L 1004.692902 68.496157 
L 1004.713175 67.716775 
L 1004.915897 67.716775 
L 1004.926033 66.937394 
L 1005.209845 66.937394 
L 1005.230117 66.158012 
L 1005.524065 66.158012 
L 1005.534201 65.378631 
L 1005.848421 65.378631 
L 1005.858557 64.599249 
L 1024.316449 64.599249 
L 1024.336721 63.819868 
L 1024.792847 63.819868 
L 1024.813119 63.040486 
L 1025.137475 63.040486 
L 1025.147611 62.261105 
L 1055.059329 62.261105 
L 1055.069465 61.481724 
L 1055.393821 61.481724 
L 1055.42423 60.702342 
L 1055.647224 60.702342 
L 1055.657361 59.922961 
L 1055.860083 59.922961 
L 1055.870219 59.143579 
L 1056.072942 59.143579 
L 1056.093214 58.364198 
L 1056.306073 58.364198 
L 1056.326345 57.584816 
L 1056.488523 57.584816 
L 1056.508795 56.805435 
L 1056.721654 56.805435 
L 1056.741926 56.026053 
L 1056.99533 56.026053 
L 1057.005466 55.246672 
L 1057.30955 55.246672 
L 1057.350094 54.467291 
L 1075.655944 54.467291 
L 1075.66608 53.687909 
L 1076.16275 53.687909 
L 1076.183022 52.908528 
L 1076.436426 52.908528 
L 1076.446562 52.129146 
L 1076.699965 52.129146 
L 1076.730373 51.349765 
L 1076.983777 51.349765 
L 1076.993913 50.570383 
L 1077.186499 50.570383 
L 1077.196635 49.791002 
L 1077.450039 49.791002 
L 1077.460175 49.01162 
L 1097.79325 49.01162 
L 1097.813522 48.232239 
L 1098.026381 48.232239 
L 1098.046653 47.452858 
L 1098.229104 47.452858 
L 1098.249376 46.673476 
L 1098.431826 46.673476 
L 1098.452098 45.894095 
L 1098.664957 45.894095 
L 1098.685229 45.114713 
L 1098.898088 45.114713 
L 1098.91836 44.335332 
L 1099.121083 44.335332 
L 1099.141355 43.55595 
L 1099.384622 43.55595 
L 1099.425167 42.776569 
L 1113.271119 42.776569 
L 1113.311664 41.997187 
L 1114.507727 41.997187 
L 1114.507727 41.997187 
" clip-path="url(#p47e74efac3)" style="fill: none; stroke: #0000ff; stroke-width: 1.5; stroke-linecap: square"/>
   </g>
   <g id="patch_89">
    <path d="M 49.235 359.517187 
L 49.235 26.877187 
" style="fill: none; stroke: #000000; stroke-width: 0.8; stroke-linejoin: miter; stroke-linecap: square"/>
   </g>
   <g id="patch_90">
    <path d="M 1165.235 359.517187 
L 1165.235 26.877187 
" style="fill: none; stroke: #000000; stroke-width: 0.8; stroke-linejoin: miter; stroke-linecap: square"/>
   </g>
   <g id="patch_91">
    <path d="M 49.235 359.517187 
L 1165.235 359.517187 
" style="fill: none; stroke: #000000; stroke-width: 0.8; stroke-linejoin: miter; stroke-linecap: square"/>
   </g>
   <g id="patch_92">
    <path d="M 49.235 26.877187 
L 1165.235 26.877187 
" style="fill: none; stroke: #000000; stroke-width: 0.8; stroke-linejoin: miter; stroke-linecap: square"/>
   </g>
   <g id="text_22">
    <!-- Pellet Count and Cumulative Sum Over Time of Group ctrl Mouse M67 -->
    <g transform="translate(293.018281 20.877187) scale(0.18 -0.18)">
     <defs>
      <path id="DejaVuSans-61" d="M 2194 1759 
Q 1497 1759 1228 1600 
Q 959 1441 959 1056 
Q 959 750 1161 570 
Q 1363 391 1709 391 
Q 2188 391 2477 730 
Q 2766 1069 2766 1631 
L 2766 1759 
L 2194 1759 
z
M 3341 1997 
L 3341 0 
L 2766 0 
L 2766 531 
Q 2569 213 2275 61 
Q 1981 -91 1556 -91 
Q 1019 -91 701 211 
Q 384 513 384 1019 
Q 384 1609 779 1909 
Q 1175 2209 1959 2209 
L 2766 2209 
L 2766 2266 
Q 2766 2663 2505 2880 
Q 2244 3097 1772 3097 
Q 1472 3097 1187 3025 
Q 903 2953 641 2809 
L 641 3341 
Q 956 3463 1253 3523 
Q 1550 3584 1831 3584 
Q 2591 3584 2966 3190 
Q 3341 2797 3341 1997 
z
" transform="scale(0.015625)"/>
      <path id="DejaVuSans-64" d="M 2906 2969 
L 2906 4863 
L 3481 4863 
L 3481 0 
L 2906 0 
L 2906 525 
Q 2725 213 2448 61 
Q 2172 -91 1784 -91 
Q 1150 -91 751 415 
Q 353 922 353 1747 
Q 353 2572 751 3078 
Q 1150 3584 1784 3584 
Q 2172 3584 2448 3432 
Q 2725 3281 2906 2969 
z
M 947 1747 
Q 947 1113 1208 752 
Q 1469 391 1925 391 
Q 2381 391 2643 752 
Q 2906 1113 2906 1747 
Q 2906 2381 2643 2742 
Q 2381 3103 1925 3103 
Q 1469 3103 1208 2742 
Q 947 2381 947 1747 
z
" transform="scale(0.015625)"/>
      <path id="DejaVuSans-76" d="M 191 3500 
L 800 3500 
L 1894 563 
L 2988 3500 
L 3597 3500 
L 2284 0 
L 1503 0 
L 191 3500 
z
" transform="scale(0.015625)"/>
      <path id="DejaVuSans-53" d="M 3425 4513 
L 3425 3897 
Q 3066 4069 2747 4153 
Q 2428 4238 2131 4238 
Q 1616 4238 1336 4038 
Q 1056 3838 1056 3469 
Q 1056 3159 1242 3001 
Q 1428 2844 1947 2747 
L 2328 2669 
Q 3034 2534 3370 2195 
Q 3706 1856 3706 1288 
Q 3706 609 3251 259 
Q 2797 -91 1919 -91 
Q 1588 -91 1214 -16 
Q 841 59 441 206 
L 441 856 
Q 825 641 1194 531 
Q 1563 422 1919 422 
Q 2459 422 2753 634 
Q 3047 847 3047 1241 
Q 3047 1584 2836 1778 
Q 2625 1972 2144 2069 
L 1759 2144 
Q 1053 2284 737 2584 
Q 422 2884 422 3419 
Q 422 4038 858 4394 
Q 1294 4750 2059 4750 
Q 2388 4750 2728 4690 
Q 3069 4631 3425 4513 
z
" transform="scale(0.015625)"/>
      <path id="DejaVuSans-4f" d="M 2522 4238 
Q 1834 4238 1429 3725 
Q 1025 3213 1025 2328 
Q 1025 1447 1429 934 
Q 1834 422 2522 422 
Q 3209 422 3611 934 
Q 4013 1447 4013 2328 
Q 4013 3213 3611 3725 
Q 3209 4238 2522 4238 
z
M 2522 4750 
Q 3503 4750 4090 4092 
Q 4678 3434 4678 2328 
Q 4678 1225 4090 567 
Q 3503 -91 2522 -91 
Q 1538 -91 948 565 
Q 359 1222 359 2328 
Q 359 3434 948 4092 
Q 1538 4750 2522 4750 
z
" transform="scale(0.015625)"/>
      <path id="DejaVuSans-72" d="M 2631 2963 
Q 2534 3019 2420 3045 
Q 2306 3072 2169 3072 
Q 1681 3072 1420 2755 
Q 1159 2438 1159 1844 
L 1159 0 
L 581 0 
L 581 3500 
L 1159 3500 
L 1159 2956 
Q 1341 3275 1631 3429 
Q 1922 3584 2338 3584 
Q 2397 3584 2469 3576 
Q 2541 3569 2628 3553 
L 2631 2963 
z
" transform="scale(0.015625)"/>
      <path id="DejaVuSans-66" d="M 2375 4863 
L 2375 4384 
L 1825 4384 
Q 1516 4384 1395 4259 
Q 1275 4134 1275 3809 
L 1275 3500 
L 2222 3500 
L 2222 3053 
L 1275 3053 
L 1275 0 
L 697 0 
L 697 3053 
L 147 3053 
L 147 3500 
L 697 3500 
L 697 3744 
Q 697 4328 969 4595 
Q 1241 4863 1831 4863 
L 2375 4863 
z
" transform="scale(0.015625)"/>
      <path id="DejaVuSans-47" d="M 3809 666 
L 3809 1919 
L 2778 1919 
L 2778 2438 
L 4434 2438 
L 4434 434 
Q 4069 175 3628 42 
Q 3188 -91 2688 -91 
Q 1594 -91 976 548 
Q 359 1188 359 2328 
Q 359 3472 976 4111 
Q 1594 4750 2688 4750 
Q 3144 4750 3555 4637 
Q 3966 4525 4313 4306 
L 4313 3634 
Q 3963 3931 3569 4081 
Q 3175 4231 2741 4231 
Q 1884 4231 1454 3753 
Q 1025 3275 1025 2328 
Q 1025 1384 1454 906 
Q 1884 428 2741 428 
Q 3075 428 3337 486 
Q 3600 544 3809 666 
z
" transform="scale(0.015625)"/>
      <path id="DejaVuSans-70" d="M 1159 525 
L 1159 -1331 
L 581 -1331 
L 581 3500 
L 1159 3500 
L 1159 2969 
Q 1341 3281 1617 3432 
Q 1894 3584 2278 3584 
Q 2916 3584 3314 3078 
Q 3713 2572 3713 1747 
Q 3713 922 3314 415 
Q 2916 -91 2278 -91 
Q 1894 -91 1617 61 
Q 1341 213 1159 525 
z
M 3116 1747 
Q 3116 2381 2855 2742 
Q 2594 3103 2138 3103 
Q 1681 3103 1420 2742 
Q 1159 2381 1159 1747 
Q 1159 1113 1420 752 
Q 1681 391 2138 391 
Q 2594 391 2855 752 
Q 3116 1113 3116 1747 
z
" transform="scale(0.015625)"/>
      <path id="DejaVuSans-63" d="M 3122 3366 
L 3122 2828 
Q 2878 2963 2633 3030 
Q 2388 3097 2138 3097 
Q 1578 3097 1268 2742 
Q 959 2388 959 1747 
Q 959 1106 1268 751 
Q 1578 397 2138 397 
Q 2388 397 2633 464 
Q 2878 531 3122 666 
L 3122 134 
Q 2881 22 2623 -34 
Q 2366 -91 2075 -91 
Q 1284 -91 818 406 
Q 353 903 353 1747 
Q 353 2603 823 3093 
Q 1294 3584 2113 3584 
Q 2378 3584 2631 3529 
Q 2884 3475 3122 3366 
z
" transform="scale(0.015625)"/>
      <path id="DejaVuSans-4d" d="M 628 4666 
L 1569 4666 
L 2759 1491 
L 3956 4666 
L 4897 4666 
L 4897 0 
L 4281 0 
L 4281 4097 
L 3078 897 
L 2444 897 
L 1241 4097 
L 1241 0 
L 628 0 
L 628 4666 
z
" transform="scale(0.015625)"/>
      <path id="DejaVuSans-73" d="M 2834 3397 
L 2834 2853 
Q 2591 2978 2328 3040 
Q 2066 3103 1784 3103 
Q 1356 3103 1142 2972 
Q 928 2841 928 2578 
Q 928 2378 1081 2264 
Q 1234 2150 1697 2047 
L 1894 2003 
Q 2506 1872 2764 1633 
Q 3022 1394 3022 966 
Q 3022 478 2636 193 
Q 2250 -91 1575 -91 
Q 1294 -91 989 -36 
Q 684 19 347 128 
L 347 722 
Q 666 556 975 473 
Q 1284 391 1588 391 
Q 1994 391 2212 530 
Q 2431 669 2431 922 
Q 2431 1156 2273 1281 
Q 2116 1406 1581 1522 
L 1381 1569 
Q 847 1681 609 1914 
Q 372 2147 372 2553 
Q 372 3047 722 3315 
Q 1072 3584 1716 3584 
Q 2034 3584 2315 3537 
Q 2597 3491 2834 3397 
z
" transform="scale(0.015625)"/>
      <path id="DejaVuSans-37" d="M 525 4666 
L 3525 4666 
L 3525 4397 
L 1831 0 
L 1172 0 
L 2766 4134 
L 525 4134 
L 525 4666 
z
" transform="scale(0.015625)"/>
     </defs>
     <use xlink:href="#DejaVuSans-50"/>
     <use xlink:href="#DejaVuSans-65" x="56.677734"/>
     <use xlink:href="#DejaVuSans-6c" x="118.201172"/>
     <use xlink:href="#DejaVuSans-6c" x="145.984375"/>
     <use xlink:href="#DejaVuSans-65" x="173.767578"/>
     <use xlink:href="#DejaVuSans-74" x="235.291016"/>
     <use xlink:href="#DejaVuSans-20" x="274.5"/>
     <use xlink:href="#DejaVuSans-43" x="306.287109"/>
     <use xlink:href="#DejaVuSans-6f" x="376.111328"/>
     <use xlink:href="#DejaVuSans-75" x="437.292969"/>
     <use xlink:href="#DejaVuSans-6e" x="500.671875"/>
     <use xlink:href="#DejaVuSans-74" x="564.050781"/>
     <use xlink:href="#DejaVuSans-20" x="603.259766"/>
     <use xlink:href="#DejaVuSans-61" x="635.046875"/>
     <use xlink:href="#DejaVuSans-6e" x="696.326172"/>
     <use xlink:href="#DejaVuSans-64" x="759.705078"/>
     <use xlink:href="#DejaVuSans-20" x="823.181641"/>
     <use xlink:href="#DejaVuSans-43" x="854.96875"/>
     <use xlink:href="#DejaVuSans-75" x="924.792969"/>
     <use xlink:href="#DejaVuSans-6d" x="988.171875"/>
     <use xlink:href="#DejaVuSans-75" x="1085.583984"/>
     <use xlink:href="#DejaVuSans-6c" x="1148.962891"/>
     <use xlink:href="#DejaVuSans-61" x="1176.746094"/>
     <use xlink:href="#DejaVuSans-74" x="1238.025391"/>
     <use xlink:href="#DejaVuSans-69" x="1277.234375"/>
     <use xlink:href="#DejaVuSans-76" x="1305.017578"/>
     <use xlink:href="#DejaVuSans-65" x="1364.197266"/>
     <use xlink:href="#DejaVuSans-20" x="1425.720703"/>
     <use xlink:href="#DejaVuSans-53" x="1457.507812"/>
     <use xlink:href="#DejaVuSans-75" x="1520.984375"/>
     <use xlink:href="#DejaVuSans-6d" x="1584.363281"/>
     <use xlink:href="#DejaVuSans-20" x="1681.775391"/>
     <use xlink:href="#DejaVuSans-4f" x="1713.5625"/>
     <use xlink:href="#DejaVuSans-76" x="1792.273438"/>
     <use xlink:href="#DejaVuSans-65" x="1851.453125"/>
     <use xlink:href="#DejaVuSans-72" x="1912.976562"/>
     <use xlink:href="#DejaVuSans-20" x="1954.089844"/>
     <use xlink:href="#DejaVuSans-54" x="1985.876953"/>
     <use xlink:href="#DejaVuSans-69" x="2043.835938"/>
     <use xlink:href="#DejaVuSans-6d" x="2071.619141"/>
     <use xlink:href="#DejaVuSans-65" x="2169.03125"/>
     <use xlink:href="#DejaVuSans-20" x="2230.554688"/>
     <use xlink:href="#DejaVuSans-6f" x="2262.341797"/>
     <use xlink:href="#DejaVuSans-66" x="2323.523438"/>
     <use xlink:href="#DejaVuSans-20" x="2358.728516"/>
     <use xlink:href="#DejaVuSans-47" x="2390.515625"/>
     <use xlink:href="#DejaVuSans-72" x="2468.005859"/>
     <use xlink:href="#DejaVuSans-6f" x="2506.869141"/>
     <use xlink:href="#DejaVuSans-75" x="2568.050781"/>
     <use xlink:href="#DejaVuSans-70" x="2631.429688"/>
     <use xlink:href="#DejaVuSans-20" x="2694.90625"/>
     <use xlink:href="#DejaVuSans-63" x="2726.693359"/>
     <use xlink:href="#DejaVuSans-74" x="2781.673828"/>
     <use xlink:href="#DejaVuSans-72" x="2820.882812"/>
     <use xlink:href="#DejaVuSans-6c" x="2861.996094"/>
     <use xlink:href="#DejaVuSans-20" x="2889.779297"/>
     <use xlink:href="#DejaVuSans-4d" x="2921.566406"/>
     <use xlink:href="#DejaVuSans-6f" x="3007.845703"/>
     <use xlink:href="#DejaVuSans-75" x="3069.027344"/>
     <use xlink:href="#DejaVuSans-73" x="3132.40625"/>
     <use xlink:href="#DejaVuSans-65" x="3184.505859"/>
     <use xlink:href="#DejaVuSans-20" x="3246.029297"/>
     <use xlink:href="#DejaVuSans-4d" x="3277.816406"/>
     <use xlink:href="#DejaVuSans-36" x="3364.095703"/>
     <use xlink:href="#DejaVuSans-37" x="3427.71875"/>
    </g>
   </g>
   <g id="legend_1">
    <g id="patch_93">
     <path d="M 1086.550625 64.233437 
L 1158.235 64.233437 
Q 1160.235 64.233437 1160.235 62.233437 
L 1160.235 33.877187 
Q 1160.235 31.877187 1158.235 31.877187 
L 1086.550625 31.877187 
Q 1084.550625 31.877187 1084.550625 33.877187 
L 1084.550625 62.233437 
Q 1084.550625 64.233437 1086.550625 64.233437 
z
" style="fill: #ffffff; opacity: 0.8; stroke: #cccccc; stroke-linejoin: miter"/>
    </g>
    <g id="patch_94">
     <path d="M 1088.550625 43.475625 
L 1108.550625 43.475625 
L 1108.550625 36.475625 
L 1088.550625 36.475625 
z
" style="fill: #add8e6; opacity: 0.9; stroke: #add8e6; stroke-linejoin: miter"/>
    </g>
    <g id="text_23">
     <!-- Meal -->
     <g transform="translate(1116.550625 43.475625) scale(0.1 -0.1)">
      <use xlink:href="#DejaVuSans-4d"/>
      <use xlink:href="#DejaVuSans-65" x="86.279297"/>
      <use xlink:href="#DejaVuSans-61" x="147.802734"/>
      <use xlink:href="#DejaVuSans-6c" x="209.082031"/>
     </g>
    </g>
    <g id="patch_95">
     <path d="M 1088.550625 58.15375 
L 1108.550625 58.15375 
L 1108.550625 51.15375 
L 1088.550625 51.15375 
z
" style="fill: #808080; opacity: 0.5; stroke: #808080; stroke-linejoin: miter"/>
    </g>
    <g id="text_24">
     <!-- Inactive -->
     <g transform="translate(1116.550625 58.15375) scale(0.1 -0.1)">
      <defs>
       <path id="DejaVuSans-49" d="M 628 4666 
L 1259 4666 
L 1259 0 
L 628 0 
L 628 4666 
z
" transform="scale(0.015625)"/>
      </defs>
      <use xlink:href="#DejaVuSans-49"/>
      <use xlink:href="#DejaVuSans-6e" x="29.492188"/>
      <use xlink:href="#DejaVuSans-61" x="92.871094"/>
      <use xlink:href="#DejaVuSans-63" x="154.150391"/>
      <use xlink:href="#DejaVuSans-74" x="209.130859"/>
      <use xlink:href="#DejaVuSans-69" x="248.339844"/>
      <use xlink:href="#DejaVuSans-76" x="276.123047"/>
      <use xlink:href="#DejaVuSans-65" x="335.302734"/>
     </g>
    </g>
   </g>
  </g>
 </g>
 <defs>
  <clipPath id="p47e74efac3">
   <rect x="49.235" y="26.877187" width="1116" height="332.64"/>
  </clipPath>
 </defs>
</svg>
