<?xml version="1.0" encoding="utf-8" standalone="no"?>
<!DOCTYPE svg PUBLIC "-//W3C//DTD SVG 1.1//EN"
  "http://www.w3.org/Graphics/SVG/1.1/DTD/svg11.dtd">
<svg xmlns:xlink="http://www.w3.org/1999/xlink" width="1172.435pt" height="399.009062pt" viewBox="0 0 1172.435 399.009062" xmlns="http://www.w3.org/2000/svg" version="1.1">
 <metadata>
  <rdf:RDF xmlns:dc="http://purl.org/dc/elements/1.1/" xmlns:cc="http://creativecommons.org/ns#" xmlns:rdf="http://www.w3.org/1999/02/22-rdf-syntax-ns#">
   <cc:Work>
    <dc:type rdf:resource="http://purl.org/dc/dcmitype/StillImage"/>
    <dc:date>2025-10-01T20:30:08.188515</dc:date>
    <dc:format>image/svg+xml</dc:format>
    <dc:creator>
     <cc:Agent>
      <dc:title>Matplotlib v3.8.4, https://matplotlib.org/</dc:title>
     </cc:Agent>
    </dc:creator>
   </cc:Work>
  </rdf:RDF>
 </metadata>
 <defs>
  <style type="text/css">*{stroke-linejoin: round; stroke-linecap: butt}</style>
 </defs>
 <g id="figure_1">
  <g id="patch_1">
   <path d="M 0 399.009062 
L 1172.435 399.009062 
L 1172.435 0 
L 0 0 
z
" style="fill: #ffffff"/>
  </g>
  <g id="axes_1">
   <g id="patch_2">
    <path d="M 49.235 359.517187 
L 1165.235 359.517187 
L 1165.235 26.877187 
L 49.235 26.877187 
z
" style="fill: #ffffff"/>
   </g>
   <g id="patch_3">
    <path d="M 191.802936 359.517187 
L 191.802936 26.877187 
L 181.906172 26.877187 
L 181.906172 359.517187 
z
" clip-path="url(#pc1540ff8e8)" style="fill: #add8e6; stroke: #add8e6; stroke-linejoin: miter"/>
   </g>
   <g id="patch_4">
    <path d="M 194.501498 359.517187 
L 194.501498 26.877187 
L 194.792519 26.877187 
L 194.792519 359.517187 
z
" clip-path="url(#pc1540ff8e8)" style="fill: #add8e6; stroke: #add8e6; stroke-linejoin: miter"/>
   </g>
   <g id="patch_5">
    <path d="M 209.901212 359.517187 
L 209.901212 26.877187 
L 206.276672 26.877187 
L 206.276672 359.517187 
z
" clip-path="url(#pc1540ff8e8)" style="fill: #add8e6; stroke: #add8e6; stroke-linejoin: miter"/>
   </g>
   <g id="patch_6">
    <path d="M 259.967072 359.517187 
L 259.967072 26.877187 
L 234.886317 26.877187 
L 234.886317 359.517187 
z
" clip-path="url(#pc1540ff8e8)" style="fill: #add8e6; stroke: #add8e6; stroke-linejoin: miter"/>
   </g>
   <g id="patch_7">
    <path d="M 250.674738 359.517187 
L 250.674738 26.877187 
L 249.154507 26.877187 
L 249.154507 359.517187 
z
" clip-path="url(#pc1540ff8e8)" style="fill: #add8e6; stroke: #add8e6; stroke-linejoin: miter"/>
   </g>
   <g id="patch_8">
    <path d="M 250.383717 359.517187 
L 250.383717 26.877187 
L 250.89453 26.877187 
L 250.89453 359.517187 
z
" clip-path="url(#pc1540ff8e8)" style="fill: #add8e6; stroke: #add8e6; stroke-linejoin: miter"/>
   </g>
   <g id="patch_9">
    <path d="M 258.037784 359.517187 
L 258.037784 26.877187 
L 256.979524 26.877187 
L 256.979524 359.517187 
z
" clip-path="url(#pc1540ff8e8)" style="fill: #add8e6; stroke: #add8e6; stroke-linejoin: miter"/>
   </g>
   <g id="patch_10">
    <path d="M 263.072658 359.517187 
L 263.072658 26.877187 
L 262.171102 26.877187 
L 262.171102 359.517187 
z
" clip-path="url(#pc1540ff8e8)" style="fill: #add8e6; stroke: #add8e6; stroke-linejoin: miter"/>
   </g>
   <g id="patch_11">
    <path d="M 264.049513 359.517187 
L 264.049513 26.877187 
L 265.036543 26.877187 
L 265.036543 359.517187 
z
" clip-path="url(#pc1540ff8e8)" style="fill: #add8e6; stroke: #add8e6; stroke-linejoin: miter"/>
   </g>
   <g id="patch_12">
    <path d="M 277.497552 359.517187 
L 277.497552 26.877187 
L 277.375445 26.877187 
L 277.375445 359.517187 
z
" clip-path="url(#pc1540ff8e8)" style="fill: #add8e6; stroke: #add8e6; stroke-linejoin: miter"/>
   </g>
   <g id="patch_13">
    <path d="M 278.887535 359.517187 
L 278.887535 26.877187 
L 279.091047 26.877187 
L 279.091047 359.517187 
z
" clip-path="url(#pc1540ff8e8)" style="fill: #add8e6; stroke: #add8e6; stroke-linejoin: miter"/>
   </g>
   <g id="patch_14">
    <path d="M 282.147789 359.517187 
L 282.147789 26.877187 
L 282.377757 26.877187 
L 282.377757 359.517187 
z
" clip-path="url(#pc1540ff8e8)" style="fill: #add8e6; stroke: #add8e6; stroke-linejoin: miter"/>
   </g>
   <g id="patch_15">
    <path d="M 297.559714 359.517187 
L 297.559714 26.877187 
L 298.402251 26.877187 
L 298.402251 359.517187 
z
" clip-path="url(#pc1540ff8e8)" style="fill: #add8e6; stroke: #add8e6; stroke-linejoin: miter"/>
   </g>
   <g id="patch_16">
    <path d="M 355.647997 359.517187 
L 355.647997 26.877187 
L 355.188061 26.877187 
L 355.188061 359.517187 
z
" clip-path="url(#pc1540ff8e8)" style="fill: #add8e6; stroke: #add8e6; stroke-linejoin: miter"/>
   </g>
   <g id="patch_17">
    <path d="M 357.103104 359.517187 
L 357.103104 26.877187 
L 356.661484 26.877187 
L 356.661484 359.517187 
z
" clip-path="url(#pc1540ff8e8)" style="fill: #add8e6; stroke: #add8e6; stroke-linejoin: miter"/>
   </g>
   <g id="patch_18">
    <path d="M 365.679078 359.517187 
L 365.679078 26.877187 
L 364.624889 26.877187 
L 364.624889 359.517187 
z
" clip-path="url(#pc1540ff8e8)" style="fill: #add8e6; stroke: #add8e6; stroke-linejoin: miter"/>
   </g>
   <g id="patch_19">
    <path d="M 371.38554 359.517187 
L 371.38554 26.877187 
L 371.841406 26.877187 
L 371.841406 359.517187 
z
" clip-path="url(#pc1540ff8e8)" style="fill: #add8e6; stroke: #add8e6; stroke-linejoin: miter"/>
   </g>
   <g id="patch_20">
    <path d="M 377.785976 359.517187 
L 377.785976 26.877187 
L 377.057405 26.877187 
L 377.057405 359.517187 
z
" clip-path="url(#pc1540ff8e8)" style="fill: #add8e6; stroke: #add8e6; stroke-linejoin: miter"/>
   </g>
   <g id="patch_21">
    <path d="M 413.559225 359.517187 
L 413.559225 26.877187 
L 383.881145 26.877187 
L 383.881145 359.517187 
z
" clip-path="url(#pc1540ff8e8)" style="fill: #add8e6; stroke: #add8e6; stroke-linejoin: miter"/>
   </g>
   <g id="patch_22">
    <path d="M 419.786677 359.517187 
L 419.786677 26.877187 
L 390.578708 26.877187 
L 390.578708 359.517187 
z
" clip-path="url(#pc1540ff8e8)" style="fill: #add8e6; stroke: #add8e6; stroke-linejoin: miter"/>
   </g>
   <g id="patch_23">
    <path d="M 391.66546 359.517187 
L 391.66546 26.877187 
L 391.720408 26.877187 
L 391.720408 359.517187 
z
" clip-path="url(#pc1540ff8e8)" style="fill: #add8e6; stroke: #add8e6; stroke-linejoin: miter"/>
   </g>
   <g id="patch_24">
    <path d="M 393.511309 359.517187 
L 393.511309 26.877187 
L 394.86466 26.877187 
L 394.86466 359.517187 
z
" clip-path="url(#pc1540ff8e8)" style="fill: #add8e6; stroke: #add8e6; stroke-linejoin: miter"/>
   </g>
   <g id="patch_25">
    <path d="M 433.676335 359.517187 
L 433.676335 26.877187 
L 405.420801 26.877187 
L 405.420801 359.517187 
z
" clip-path="url(#pc1540ff8e8)" style="fill: #add8e6; stroke: #add8e6; stroke-linejoin: miter"/>
   </g>
   <g id="patch_26">
    <path d="M 406.409867 359.517187 
L 406.409867 26.877187 
L 406.102564 26.877187 
L 406.102564 359.517187 
z
" clip-path="url(#pc1540ff8e8)" style="fill: #add8e6; stroke: #add8e6; stroke-linejoin: miter"/>
   </g>
   <g id="patch_27">
    <path d="M 449.916552 359.517187 
L 449.916552 26.877187 
L 421.597929 26.877187 
L 421.597929 359.517187 
z
" clip-path="url(#pc1540ff8e8)" style="fill: #add8e6; stroke: #add8e6; stroke-linejoin: miter"/>
   </g>
   <g id="patch_28">
    <path d="M 425.375102 359.517187 
L 425.375102 26.877187 
L 425.576578 26.877187 
L 425.576578 359.517187 
z
" clip-path="url(#pc1540ff8e8)" style="fill: #add8e6; stroke: #add8e6; stroke-linejoin: miter"/>
   </g>
   <g id="patch_29">
    <path d="M 443.636188 359.517187 
L 443.636188 26.877187 
L 436.32402 26.877187 
L 436.32402 359.517187 
z
" clip-path="url(#pc1540ff8e8)" style="fill: #add8e6; stroke: #add8e6; stroke-linejoin: miter"/>
   </g>
   <g id="patch_30">
    <path d="M 437.13196 359.517187 
L 437.13196 26.877187 
L 437.066837 26.877187 
L 437.066837 359.517187 
z
" clip-path="url(#pc1540ff8e8)" style="fill: #add8e6; stroke: #add8e6; stroke-linejoin: miter"/>
   </g>
   <g id="patch_31">
    <path d="M 461.071016 359.517187 
L 461.071016 26.877187 
L 446.988022 26.877187 
L 446.988022 359.517187 
z
" clip-path="url(#pc1540ff8e8)" style="fill: #add8e6; stroke: #add8e6; stroke-linejoin: miter"/>
   </g>
   <g id="patch_32">
    <path d="M 448.650711 359.517187 
L 448.650711 26.877187 
L 449.26735 26.877187 
L 449.26735 359.517187 
z
" clip-path="url(#pc1540ff8e8)" style="fill: #add8e6; stroke: #add8e6; stroke-linejoin: miter"/>
   </g>
   <g id="patch_33">
    <path d="M 485.297024 359.517187 
L 485.297024 26.877187 
L 457.664234 26.877187 
L 457.664234 359.517187 
z
" clip-path="url(#pc1540ff8e8)" style="fill: #add8e6; stroke: #add8e6; stroke-linejoin: miter"/>
   </g>
   <g id="patch_34">
    <path d="M 458.596317 359.517187 
L 458.596317 26.877187 
L 457.790411 26.877187 
L 457.790411 359.517187 
z
" clip-path="url(#pc1540ff8e8)" style="fill: #add8e6; stroke: #add8e6; stroke-linejoin: miter"/>
   </g>
   <g id="patch_35">
    <path d="M 463.513154 359.517187 
L 463.513154 26.877187 
L 463.604734 26.877187 
L 463.604734 359.517187 
z
" clip-path="url(#pc1540ff8e8)" style="fill: #add8e6; stroke: #add8e6; stroke-linejoin: miter"/>
   </g>
   <g id="patch_36">
    <path d="M 468.900103 359.517187 
L 468.900103 26.877187 
L 468.686416 26.877187 
L 468.686416 359.517187 
z
" clip-path="url(#pc1540ff8e8)" style="fill: #add8e6; stroke: #add8e6; stroke-linejoin: miter"/>
   </g>
   <g id="patch_37">
    <path d="M 513.269677 359.517187 
L 513.269677 26.877187 
L 496.899213 26.877187 
L 496.899213 359.517187 
z
" clip-path="url(#pc1540ff8e8)" style="fill: #add8e6; stroke: #add8e6; stroke-linejoin: miter"/>
   </g>
   <g id="patch_38">
    <path d="M 500.326347 359.517187 
L 500.326347 26.877187 
L 500.772037 26.877187 
L 500.772037 359.517187 
z
" clip-path="url(#pc1540ff8e8)" style="fill: #add8e6; stroke: #add8e6; stroke-linejoin: miter"/>
   </g>
   <g id="patch_39">
    <path d="M 554.25689 359.517187 
L 554.25689 26.877187 
L 550.671018 26.877187 
L 550.671018 359.517187 
z
" clip-path="url(#pc1540ff8e8)" style="fill: #add8e6; stroke: #add8e6; stroke-linejoin: miter"/>
   </g>
   <g id="patch_40">
    <path d="M 557.207807 359.517187 
L 557.207807 26.877187 
L 536.44353 26.877187 
L 536.44353 359.517187 
z
" clip-path="url(#pc1540ff8e8)" style="fill: #add8e6; stroke: #add8e6; stroke-linejoin: miter"/>
   </g>
   <g id="patch_41">
    <path d="M 568.309358 359.517187 
L 568.309358 26.877187 
L 539.514518 26.877187 
L 539.514518 359.517187 
z
" clip-path="url(#pc1540ff8e8)" style="fill: #add8e6; stroke: #add8e6; stroke-linejoin: miter"/>
   </g>
   <g id="patch_42">
    <path d="M 548.279758 359.517187 
L 548.279758 26.877187 
L 549.124331 26.877187 
L 549.124331 359.517187 
z
" clip-path="url(#pc1540ff8e8)" style="fill: #add8e6; stroke: #add8e6; stroke-linejoin: miter"/>
   </g>
   <g id="patch_43">
    <path d="M 559.098428 359.517187 
L 559.098428 26.877187 
L 559.900264 26.877187 
L 559.900264 359.517187 
z
" clip-path="url(#pc1540ff8e8)" style="fill: #add8e6; stroke: #add8e6; stroke-linejoin: miter"/>
   </g>
   <g id="patch_44">
    <path d="M 577.913065 359.517187 
L 577.913065 26.877187 
L 573.991399 26.877187 
L 573.991399 359.517187 
z
" clip-path="url(#pc1540ff8e8)" style="fill: #add8e6; stroke: #add8e6; stroke-linejoin: miter"/>
   </g>
   <g id="patch_45">
    <path d="M 584.073358 359.517187 
L 584.073358 26.877187 
L 575.928828 26.877187 
L 575.928828 359.517187 
z
" clip-path="url(#pc1540ff8e8)" style="fill: #add8e6; stroke: #add8e6; stroke-linejoin: miter"/>
   </g>
   <g id="patch_46">
    <path d="M 590.190913 359.517187 
L 590.190913 26.877187 
L 587.765056 26.877187 
L 587.765056 359.517187 
z
" clip-path="url(#pc1540ff8e8)" style="fill: #add8e6; stroke: #add8e6; stroke-linejoin: miter"/>
   </g>
   <g id="patch_47">
    <path d="M 588.601488 359.517187 
L 588.601488 26.877187 
L 588.290116 26.877187 
L 588.290116 359.517187 
z
" clip-path="url(#pc1540ff8e8)" style="fill: #add8e6; stroke: #add8e6; stroke-linejoin: miter"/>
   </g>
   <g id="patch_48">
    <path d="M 614.0506 359.517187 
L 614.0506 26.877187 
L 614.140145 26.877187 
L 614.140145 359.517187 
z
" clip-path="url(#pc1540ff8e8)" style="fill: #add8e6; stroke: #add8e6; stroke-linejoin: miter"/>
   </g>
   <g id="patch_49">
    <path d="M 624.154945 359.517187 
L 624.154945 26.877187 
L 624.468353 26.877187 
L 624.468353 359.517187 
z
" clip-path="url(#pc1540ff8e8)" style="fill: #add8e6; stroke: #add8e6; stroke-linejoin: miter"/>
   </g>
   <g id="patch_50">
    <path d="M 673.596025 359.517187 
L 673.596025 26.877187 
L 674.133295 26.877187 
L 674.133295 359.517187 
z
" clip-path="url(#pc1540ff8e8)" style="fill: #add8e6; stroke: #add8e6; stroke-linejoin: miter"/>
   </g>
   <g id="patch_51">
    <path d="M 695.135681 359.517187 
L 695.135681 26.877187 
L 696.171554 26.877187 
L 696.171554 359.517187 
z
" clip-path="url(#pc1540ff8e8)" style="fill: #add8e6; stroke: #add8e6; stroke-linejoin: miter"/>
   </g>
   <g id="patch_52">
    <path d="M 709.247167 359.517187 
L 709.247167 26.877187 
L 709.882123 26.877187 
L 709.882123 359.517187 
z
" clip-path="url(#pc1540ff8e8)" style="fill: #add8e6; stroke: #add8e6; stroke-linejoin: miter"/>
   </g>
   <g id="patch_53">
    <path d="M 725.145484 359.517187 
L 725.145484 26.877187 
L 725.794686 26.877187 
L 725.794686 359.517187 
z
" clip-path="url(#pc1540ff8e8)" style="fill: #add8e6; stroke: #add8e6; stroke-linejoin: miter"/>
   </g>
   <g id="patch_54">
    <path d="M 776.778383 359.517187 
L 776.778383 26.877187 
L 776.969684 26.877187 
L 776.969684 359.517187 
z
" clip-path="url(#pc1540ff8e8)" style="fill: #add8e6; stroke: #add8e6; stroke-linejoin: miter"/>
   </g>
   <g id="patch_55">
    <path d="M 777.785765 359.517187 
L 777.785765 26.877187 
L 778.314895 26.877187 
L 778.314895 359.517187 
z
" clip-path="url(#pc1540ff8e8)" style="fill: #add8e6; stroke: #add8e6; stroke-linejoin: miter"/>
   </g>
   <g id="patch_56">
    <path d="M 783.685563 359.517187 
L 783.685563 26.877187 
L 783.852442 26.877187 
L 783.852442 359.517187 
z
" clip-path="url(#pc1540ff8e8)" style="fill: #add8e6; stroke: #add8e6; stroke-linejoin: miter"/>
   </g>
   <g id="patch_57">
    <path d="M 813.955861 359.517187 
L 813.955861 26.877187 
L 814.493131 26.877187 
L 814.493131 359.517187 
z
" clip-path="url(#pc1540ff8e8)" style="fill: #add8e6; stroke: #add8e6; stroke-linejoin: miter"/>
   </g>
   <g id="patch_58">
    <path d="M 845.068697 359.517187 
L 845.068697 26.877187 
L 845.73825 26.877187 
L 845.73825 359.517187 
z
" clip-path="url(#pc1540ff8e8)" style="fill: #add8e6; stroke: #add8e6; stroke-linejoin: miter"/>
   </g>
   <g id="patch_59">
    <path d="M 890.824184 359.517187 
L 890.824184 26.877187 
L 891.162013 26.877187 
L 891.162013 359.517187 
z
" clip-path="url(#pc1540ff8e8)" style="fill: #add8e6; stroke: #add8e6; stroke-linejoin: miter"/>
   </g>
   <g id="patch_60">
    <path d="M 915.697358 359.517187 
L 915.697358 26.877187 
L 915.963958 26.877187 
L 915.963958 359.517187 
z
" clip-path="url(#pc1540ff8e8)" style="fill: #add8e6; stroke: #add8e6; stroke-linejoin: miter"/>
   </g>
   <g id="patch_61">
    <path d="M 916.651827 359.517187 
L 916.651827 26.877187 
L 917.048674 26.877187 
L 917.048674 359.517187 
z
" clip-path="url(#pc1540ff8e8)" style="fill: #add8e6; stroke: #add8e6; stroke-linejoin: miter"/>
   </g>
   <g id="patch_62">
    <path d="M 931.308724 359.517187 
L 931.308724 26.877187 
L 931.223249 26.877187 
L 931.223249 359.517187 
z
" clip-path="url(#pc1540ff8e8)" style="fill: #add8e6; stroke: #add8e6; stroke-linejoin: miter"/>
   </g>
   <g id="patch_63">
    <path d="M 975.938792 359.517187 
L 975.938792 26.877187 
L 976.217603 26.877187 
L 976.217603 359.517187 
z
" clip-path="url(#pc1540ff8e8)" style="fill: #add8e6; stroke: #add8e6; stroke-linejoin: miter"/>
   </g>
   <g id="patch_64">
    <path d="M 1017.988335 359.517187 
L 1017.988335 26.877187 
L 1018.236619 26.877187 
L 1018.236619 359.517187 
z
" clip-path="url(#pc1540ff8e8)" style="fill: #add8e6; stroke: #add8e6; stroke-linejoin: miter"/>
   </g>
   <g id="patch_65">
    <path d="M 1024.396912 359.517187 
L 1024.396912 26.877187 
L 1025.320854 26.877187 
L 1025.320854 359.517187 
z
" clip-path="url(#pc1540ff8e8)" style="fill: #add8e6; stroke: #add8e6; stroke-linejoin: miter"/>
   </g>
   <g id="patch_66">
    <path d="M 1053.755479 359.517187 
L 1053.755479 26.877187 
L 1032.77955 26.877187 
L 1032.77955 359.517187 
z
" clip-path="url(#pc1540ff8e8)" style="fill: #add8e6; stroke: #add8e6; stroke-linejoin: miter"/>
   </g>
   <g id="patch_67">
    <path d="M 1042.52775 359.517187 
L 1042.52775 26.877187 
L 1043.156601 26.877187 
L 1043.156601 359.517187 
z
" clip-path="url(#pc1540ff8e8)" style="fill: #add8e6; stroke: #add8e6; stroke-linejoin: miter"/>
   </g>
   <g id="patch_68">
    <path d="M 1050.993828 359.517187 
L 1050.993828 26.877187 
L 1051.925911 26.877187 
L 1051.925911 359.517187 
z
" clip-path="url(#pc1540ff8e8)" style="fill: #add8e6; stroke: #add8e6; stroke-linejoin: miter"/>
   </g>
   <g id="patch_69">
    <path d="M 1085.894012 359.517187 
L 1085.894012 26.877187 
L 1059.518924 26.877187 
L 1059.518924 359.517187 
z
" clip-path="url(#pc1540ff8e8)" style="fill: #add8e6; stroke: #add8e6; stroke-linejoin: miter"/>
   </g>
   <g id="patch_70">
    <path d="M 1084.019672 359.517187 
L 1084.019672 26.877187 
L 1084.493853 26.877187 
L 1084.493853 359.517187 
z
" clip-path="url(#pc1540ff8e8)" style="fill: #add8e6; stroke: #add8e6; stroke-linejoin: miter"/>
   </g>
   <g id="patch_71">
    <path d="M 99.962273 359.517187 
L 99.962273 26.877187 
L 124.383651 26.877187 
L 124.383651 359.517187 
z
" clip-path="url(#pc1540ff8e8)" style="fill: #808080; opacity: 0.4; stroke: #808080; stroke-linejoin: miter"/>
   </g>
   <g id="patch_72">
    <path d="M 563.968458 359.517187 
L 563.968458 26.877187 
L 1003.553266 26.877187 
L 1003.553266 359.517187 
z
" clip-path="url(#pc1540ff8e8)" style="fill: #808080; opacity: 0.4; stroke: #808080; stroke-linejoin: miter"/>
   </g>
   <g id="matplotlib.axis_1">
    <g id="xtick_1">
     <g id="line2d_1">
      <defs>
       <path id="m61791bc00e" d="M 0 0 
L 0 3.5 
" style="stroke: #000000; stroke-width: 0.8"/>
      </defs>
      <g>
       <use xlink:href="#m61791bc00e" x="84.129079" y="359.517187" style="stroke: #000000; stroke-width: 0.8"/>
      </g>
     </g>
     <g id="text_1">
      <!-- 12-12 06 -->
      <g transform="translate(61.64861 374.115625) scale(0.1 -0.1)">
       <defs>
        <path id="DejaVuSans-31" d="M 794 531 
L 1825 531 
L 1825 4091 
L 703 3866 
L 703 4441 
L 1819 4666 
L 2450 4666 
L 2450 531 
L 3481 531 
L 3481 0 
L 794 0 
L 794 531 
z
" transform="scale(0.015625)"/>
        <path id="DejaVuSans-32" d="M 1228 531 
L 3431 531 
L 3431 0 
L 469 0 
L 469 531 
Q 828 903 1448 1529 
Q 2069 2156 2228 2338 
Q 2531 2678 2651 2914 
Q 2772 3150 2772 3378 
Q 2772 3750 2511 3984 
Q 2250 4219 1831 4219 
Q 1534 4219 1204 4116 
Q 875 4013 500 3803 
L 500 4441 
Q 881 4594 1212 4672 
Q 1544 4750 1819 4750 
Q 2544 4750 2975 4387 
Q 3406 4025 3406 3419 
Q 3406 3131 3298 2873 
Q 3191 2616 2906 2266 
Q 2828 2175 2409 1742 
Q 1991 1309 1228 531 
z
" transform="scale(0.015625)"/>
        <path id="DejaVuSans-2d" d="M 313 2009 
L 1997 2009 
L 1997 1497 
L 313 1497 
L 313 2009 
z
" transform="scale(0.015625)"/>
        <path id="DejaVuSans-20" transform="scale(0.015625)"/>
        <path id="DejaVuSans-30" d="M 2034 4250 
Q 1547 4250 1301 3770 
Q 1056 3291 1056 2328 
Q 1056 1369 1301 889 
Q 1547 409 2034 409 
Q 2525 409 2770 889 
Q 3016 1369 3016 2328 
Q 3016 3291 2770 3770 
Q 2525 4250 2034 4250 
z
M 2034 4750 
Q 2819 4750 3233 4129 
Q 3647 3509 3647 2328 
Q 3647 1150 3233 529 
Q 2819 -91 2034 -91 
Q 1250 -91 836 529 
Q 422 1150 422 2328 
Q 422 3509 836 4129 
Q 1250 4750 2034 4750 
z
" transform="scale(0.015625)"/>
        <path id="DejaVuSans-36" d="M 2113 2584 
Q 1688 2584 1439 2293 
Q 1191 2003 1191 1497 
Q 1191 994 1439 701 
Q 1688 409 2113 409 
Q 2538 409 2786 701 
Q 3034 994 3034 1497 
Q 3034 2003 2786 2293 
Q 2538 2584 2113 2584 
z
M 3366 4563 
L 3366 3988 
Q 3128 4100 2886 4159 
Q 2644 4219 2406 4219 
Q 1781 4219 1451 3797 
Q 1122 3375 1075 2522 
Q 1259 2794 1537 2939 
Q 1816 3084 2150 3084 
Q 2853 3084 3261 2657 
Q 3669 2231 3669 1497 
Q 3669 778 3244 343 
Q 2819 -91 2113 -91 
Q 1303 -91 875 529 
Q 447 1150 447 2328 
Q 447 3434 972 4092 
Q 1497 4750 2381 4750 
Q 2619 4750 2861 4703 
Q 3103 4656 3366 4563 
z
" transform="scale(0.015625)"/>
       </defs>
       <use xlink:href="#DejaVuSans-31"/>
       <use xlink:href="#DejaVuSans-32" x="63.623047"/>
       <use xlink:href="#DejaVuSans-2d" x="127.246094"/>
       <use xlink:href="#DejaVuSans-31" x="163.330078"/>
       <use xlink:href="#DejaVuSans-32" x="226.953125"/>
       <use xlink:href="#DejaVuSans-20" x="290.576172"/>
       <use xlink:href="#DejaVuSans-30" x="322.363281"/>
       <use xlink:href="#DejaVuSans-36" x="385.986328"/>
      </g>
     </g>
    </g>
    <g id="xtick_2">
     <g id="line2d_2">
      <g>
       <use xlink:href="#m61791bc00e" x="194.025281" y="359.517187" style="stroke: #000000; stroke-width: 0.8"/>
      </g>
     </g>
     <g id="text_2">
      <!-- 12-12 09 -->
      <g transform="translate(171.544812 374.115625) scale(0.1 -0.1)">
       <defs>
        <path id="DejaVuSans-39" d="M 703 97 
L 703 672 
Q 941 559 1184 500 
Q 1428 441 1663 441 
Q 2288 441 2617 861 
Q 2947 1281 2994 2138 
Q 2813 1869 2534 1725 
Q 2256 1581 1919 1581 
Q 1219 1581 811 2004 
Q 403 2428 403 3163 
Q 403 3881 828 4315 
Q 1253 4750 1959 4750 
Q 2769 4750 3195 4129 
Q 3622 3509 3622 2328 
Q 3622 1225 3098 567 
Q 2575 -91 1691 -91 
Q 1453 -91 1209 -44 
Q 966 3 703 97 
z
M 1959 2075 
Q 2384 2075 2632 2365 
Q 2881 2656 2881 3163 
Q 2881 3666 2632 3958 
Q 2384 4250 1959 4250 
Q 1534 4250 1286 3958 
Q 1038 3666 1038 3163 
Q 1038 2656 1286 2365 
Q 1534 2075 1959 2075 
z
" transform="scale(0.015625)"/>
       </defs>
       <use xlink:href="#DejaVuSans-31"/>
       <use xlink:href="#DejaVuSans-32" x="63.623047"/>
       <use xlink:href="#DejaVuSans-2d" x="127.246094"/>
       <use xlink:href="#DejaVuSans-31" x="163.330078"/>
       <use xlink:href="#DejaVuSans-32" x="226.953125"/>
       <use xlink:href="#DejaVuSans-20" x="290.576172"/>
       <use xlink:href="#DejaVuSans-30" x="322.363281"/>
       <use xlink:href="#DejaVuSans-39" x="385.986328"/>
      </g>
     </g>
    </g>
    <g id="xtick_3">
     <g id="line2d_3">
      <g>
       <use xlink:href="#m61791bc00e" x="303.921483" y="359.517187" style="stroke: #000000; stroke-width: 0.8"/>
      </g>
     </g>
     <g id="text_3">
      <!-- 12-12 12 -->
      <g transform="translate(281.441014 374.115625) scale(0.1 -0.1)">
       <use xlink:href="#DejaVuSans-31"/>
       <use xlink:href="#DejaVuSans-32" x="63.623047"/>
       <use xlink:href="#DejaVuSans-2d" x="127.246094"/>
       <use xlink:href="#DejaVuSans-31" x="163.330078"/>
       <use xlink:href="#DejaVuSans-32" x="226.953125"/>
       <use xlink:href="#DejaVuSans-20" x="290.576172"/>
       <use xlink:href="#DejaVuSans-31" x="322.363281"/>
       <use xlink:href="#DejaVuSans-32" x="385.986328"/>
      </g>
     </g>
    </g>
    <g id="xtick_4">
     <g id="line2d_4">
      <g>
       <use xlink:href="#m61791bc00e" x="413.817685" y="359.517187" style="stroke: #000000; stroke-width: 0.8"/>
      </g>
     </g>
     <g id="text_4">
      <!-- 12-12 15 -->
      <g transform="translate(391.337216 374.115625) scale(0.1 -0.1)">
       <defs>
        <path id="DejaVuSans-35" d="M 691 4666 
L 3169 4666 
L 3169 4134 
L 1269 4134 
L 1269 2991 
Q 1406 3038 1543 3061 
Q 1681 3084 1819 3084 
Q 2600 3084 3056 2656 
Q 3513 2228 3513 1497 
Q 3513 744 3044 326 
Q 2575 -91 1722 -91 
Q 1428 -91 1123 -41 
Q 819 9 494 109 
L 494 744 
Q 775 591 1075 516 
Q 1375 441 1709 441 
Q 2250 441 2565 725 
Q 2881 1009 2881 1497 
Q 2881 1984 2565 2268 
Q 2250 2553 1709 2553 
Q 1456 2553 1204 2497 
Q 953 2441 691 2322 
L 691 4666 
z
" transform="scale(0.015625)"/>
       </defs>
       <use xlink:href="#DejaVuSans-31"/>
       <use xlink:href="#DejaVuSans-32" x="63.623047"/>
       <use xlink:href="#DejaVuSans-2d" x="127.246094"/>
       <use xlink:href="#DejaVuSans-31" x="163.330078"/>
       <use xlink:href="#DejaVuSans-32" x="226.953125"/>
       <use xlink:href="#DejaVuSans-20" x="290.576172"/>
       <use xlink:href="#DejaVuSans-31" x="322.363281"/>
       <use xlink:href="#DejaVuSans-35" x="385.986328"/>
      </g>
     </g>
    </g>
    <g id="xtick_5">
     <g id="line2d_5">
      <g>
       <use xlink:href="#m61791bc00e" x="523.713887" y="359.517187" style="stroke: #000000; stroke-width: 0.8"/>
      </g>
     </g>
     <g id="text_5">
      <!-- 12-12 18 -->
      <g transform="translate(501.233418 374.115625) scale(0.1 -0.1)">
       <defs>
        <path id="DejaVuSans-38" d="M 2034 2216 
Q 1584 2216 1326 1975 
Q 1069 1734 1069 1313 
Q 1069 891 1326 650 
Q 1584 409 2034 409 
Q 2484 409 2743 651 
Q 3003 894 3003 1313 
Q 3003 1734 2745 1975 
Q 2488 2216 2034 2216 
z
M 1403 2484 
Q 997 2584 770 2862 
Q 544 3141 544 3541 
Q 544 4100 942 4425 
Q 1341 4750 2034 4750 
Q 2731 4750 3128 4425 
Q 3525 4100 3525 3541 
Q 3525 3141 3298 2862 
Q 3072 2584 2669 2484 
Q 3125 2378 3379 2068 
Q 3634 1759 3634 1313 
Q 3634 634 3220 271 
Q 2806 -91 2034 -91 
Q 1263 -91 848 271 
Q 434 634 434 1313 
Q 434 1759 690 2068 
Q 947 2378 1403 2484 
z
M 1172 3481 
Q 1172 3119 1398 2916 
Q 1625 2713 2034 2713 
Q 2441 2713 2670 2916 
Q 2900 3119 2900 3481 
Q 2900 3844 2670 4047 
Q 2441 4250 2034 4250 
Q 1625 4250 1398 4047 
Q 1172 3844 1172 3481 
z
" transform="scale(0.015625)"/>
       </defs>
       <use xlink:href="#DejaVuSans-31"/>
       <use xlink:href="#DejaVuSans-32" x="63.623047"/>
       <use xlink:href="#DejaVuSans-2d" x="127.246094"/>
       <use xlink:href="#DejaVuSans-31" x="163.330078"/>
       <use xlink:href="#DejaVuSans-32" x="226.953125"/>
       <use xlink:href="#DejaVuSans-20" x="290.576172"/>
       <use xlink:href="#DejaVuSans-31" x="322.363281"/>
       <use xlink:href="#DejaVuSans-38" x="385.986328"/>
      </g>
     </g>
    </g>
    <g id="xtick_6">
     <g id="line2d_6">
      <g>
       <use xlink:href="#m61791bc00e" x="633.610088" y="359.517187" style="stroke: #000000; stroke-width: 0.8"/>
      </g>
     </g>
     <g id="text_6">
      <!-- 12-12 21 -->
      <g transform="translate(611.12962 374.115625) scale(0.1 -0.1)">
       <use xlink:href="#DejaVuSans-31"/>
       <use xlink:href="#DejaVuSans-32" x="63.623047"/>
       <use xlink:href="#DejaVuSans-2d" x="127.246094"/>
       <use xlink:href="#DejaVuSans-31" x="163.330078"/>
       <use xlink:href="#DejaVuSans-32" x="226.953125"/>
       <use xlink:href="#DejaVuSans-20" x="290.576172"/>
       <use xlink:href="#DejaVuSans-32" x="322.363281"/>
       <use xlink:href="#DejaVuSans-31" x="385.986328"/>
      </g>
     </g>
    </g>
    <g id="xtick_7">
     <g id="line2d_7">
      <g>
       <use xlink:href="#m61791bc00e" x="743.50629" y="359.517187" style="stroke: #000000; stroke-width: 0.8"/>
      </g>
     </g>
     <g id="text_7">
      <!-- 12-13 00 -->
      <g transform="translate(721.025822 374.115625) scale(0.1 -0.1)">
       <defs>
        <path id="DejaVuSans-33" d="M 2597 2516 
Q 3050 2419 3304 2112 
Q 3559 1806 3559 1356 
Q 3559 666 3084 287 
Q 2609 -91 1734 -91 
Q 1441 -91 1130 -33 
Q 819 25 488 141 
L 488 750 
Q 750 597 1062 519 
Q 1375 441 1716 441 
Q 2309 441 2620 675 
Q 2931 909 2931 1356 
Q 2931 1769 2642 2001 
Q 2353 2234 1838 2234 
L 1294 2234 
L 1294 2753 
L 1863 2753 
Q 2328 2753 2575 2939 
Q 2822 3125 2822 3475 
Q 2822 3834 2567 4026 
Q 2313 4219 1838 4219 
Q 1578 4219 1281 4162 
Q 984 4106 628 3988 
L 628 4550 
Q 988 4650 1302 4700 
Q 1616 4750 1894 4750 
Q 2613 4750 3031 4423 
Q 3450 4097 3450 3541 
Q 3450 3153 3228 2886 
Q 3006 2619 2597 2516 
z
" transform="scale(0.015625)"/>
       </defs>
       <use xlink:href="#DejaVuSans-31"/>
       <use xlink:href="#DejaVuSans-32" x="63.623047"/>
       <use xlink:href="#DejaVuSans-2d" x="127.246094"/>
       <use xlink:href="#DejaVuSans-31" x="163.330078"/>
       <use xlink:href="#DejaVuSans-33" x="226.953125"/>
       <use xlink:href="#DejaVuSans-20" x="290.576172"/>
       <use xlink:href="#DejaVuSans-30" x="322.363281"/>
       <use xlink:href="#DejaVuSans-30" x="385.986328"/>
      </g>
     </g>
    </g>
    <g id="xtick_8">
     <g id="line2d_8">
      <g>
       <use xlink:href="#m61791bc00e" x="853.402492" y="359.517187" style="stroke: #000000; stroke-width: 0.8"/>
      </g>
     </g>
     <g id="text_8">
      <!-- 12-13 03 -->
      <g transform="translate(830.922023 374.115625) scale(0.1 -0.1)">
       <use xlink:href="#DejaVuSans-31"/>
       <use xlink:href="#DejaVuSans-32" x="63.623047"/>
       <use xlink:href="#DejaVuSans-2d" x="127.246094"/>
       <use xlink:href="#DejaVuSans-31" x="163.330078"/>
       <use xlink:href="#DejaVuSans-33" x="226.953125"/>
       <use xlink:href="#DejaVuSans-20" x="290.576172"/>
       <use xlink:href="#DejaVuSans-30" x="322.363281"/>
       <use xlink:href="#DejaVuSans-33" x="385.986328"/>
      </g>
     </g>
    </g>
    <g id="xtick_9">
     <g id="line2d_9">
      <g>
       <use xlink:href="#m61791bc00e" x="963.298694" y="359.517187" style="stroke: #000000; stroke-width: 0.8"/>
      </g>
     </g>
     <g id="text_9">
      <!-- 12-13 06 -->
      <g transform="translate(940.818225 374.115625) scale(0.1 -0.1)">
       <use xlink:href="#DejaVuSans-31"/>
       <use xlink:href="#DejaVuSans-32" x="63.623047"/>
       <use xlink:href="#DejaVuSans-2d" x="127.246094"/>
       <use xlink:href="#DejaVuSans-31" x="163.330078"/>
       <use xlink:href="#DejaVuSans-33" x="226.953125"/>
       <use xlink:href="#DejaVuSans-20" x="290.576172"/>
       <use xlink:href="#DejaVuSans-30" x="322.363281"/>
       <use xlink:href="#DejaVuSans-36" x="385.986328"/>
      </g>
     </g>
    </g>
    <g id="xtick_10">
     <g id="line2d_10">
      <g>
       <use xlink:href="#m61791bc00e" x="1073.194896" y="359.517187" style="stroke: #000000; stroke-width: 0.8"/>
      </g>
     </g>
     <g id="text_10">
      <!-- 12-13 09 -->
      <g transform="translate(1050.714427 374.115625) scale(0.1 -0.1)">
       <use xlink:href="#DejaVuSans-31"/>
       <use xlink:href="#DejaVuSans-32" x="63.623047"/>
       <use xlink:href="#DejaVuSans-2d" x="127.246094"/>
       <use xlink:href="#DejaVuSans-31" x="163.330078"/>
       <use xlink:href="#DejaVuSans-33" x="226.953125"/>
       <use xlink:href="#DejaVuSans-20" x="290.576172"/>
       <use xlink:href="#DejaVuSans-30" x="322.363281"/>
       <use xlink:href="#DejaVuSans-39" x="385.986328"/>
      </g>
     </g>
    </g>
    <g id="text_11">
     <!-- Time -->
     <g transform="translate(592.554688 389.313437) scale(0.12 -0.12)">
      <defs>
       <path id="DejaVuSans-54" d="M -19 4666 
L 3928 4666 
L 3928 4134 
L 2272 4134 
L 2272 0 
L 1638 0 
L 1638 4134 
L -19 4134 
L -19 4666 
z
" transform="scale(0.015625)"/>
       <path id="DejaVuSans-69" d="M 603 3500 
L 1178 3500 
L 1178 0 
L 603 0 
L 603 3500 
z
M 603 4863 
L 1178 4863 
L 1178 4134 
L 603 4134 
L 603 4863 
z
" transform="scale(0.015625)"/>
       <path id="DejaVuSans-6d" d="M 3328 2828 
Q 3544 3216 3844 3400 
Q 4144 3584 4550 3584 
Q 5097 3584 5394 3201 
Q 5691 2819 5691 2113 
L 5691 0 
L 5113 0 
L 5113 2094 
Q 5113 2597 4934 2840 
Q 4756 3084 4391 3084 
Q 3944 3084 3684 2787 
Q 3425 2491 3425 1978 
L 3425 0 
L 2847 0 
L 2847 2094 
Q 2847 2600 2669 2842 
Q 2491 3084 2119 3084 
Q 1678 3084 1418 2786 
Q 1159 2488 1159 1978 
L 1159 0 
L 581 0 
L 581 3500 
L 1159 3500 
L 1159 2956 
Q 1356 3278 1631 3431 
Q 1906 3584 2284 3584 
Q 2666 3584 2933 3390 
Q 3200 3197 3328 2828 
z
" transform="scale(0.015625)"/>
       <path id="DejaVuSans-65" d="M 3597 1894 
L 3597 1613 
L 953 1613 
Q 991 1019 1311 708 
Q 1631 397 2203 397 
Q 2534 397 2845 478 
Q 3156 559 3463 722 
L 3463 178 
Q 3153 47 2828 -22 
Q 2503 -91 2169 -91 
Q 1331 -91 842 396 
Q 353 884 353 1716 
Q 353 2575 817 3079 
Q 1281 3584 2069 3584 
Q 2775 3584 3186 3129 
Q 3597 2675 3597 1894 
z
M 3022 2063 
Q 3016 2534 2758 2815 
Q 2500 3097 2075 3097 
Q 1594 3097 1305 2825 
Q 1016 2553 972 2059 
L 3022 2063 
z
" transform="scale(0.015625)"/>
      </defs>
      <use xlink:href="#DejaVuSans-54"/>
      <use xlink:href="#DejaVuSans-69" x="57.958984"/>
      <use xlink:href="#DejaVuSans-6d" x="85.742188"/>
      <use xlink:href="#DejaVuSans-65" x="183.154297"/>
     </g>
    </g>
   </g>
   <g id="matplotlib.axis_2">
    <g id="ytick_1">
     <g id="line2d_11">
      <defs>
       <path id="md0cec8c206" d="M 0 0 
L -3.5 0 
" style="stroke: #000000; stroke-width: 0.8"/>
      </defs>
      <g>
       <use xlink:href="#md0cec8c206" x="49.235" y="344.397187" style="stroke: #000000; stroke-width: 0.8"/>
      </g>
     </g>
     <g id="text_12">
      <!-- 0 -->
      <g transform="translate(35.8725 348.196406) scale(0.1 -0.1)">
       <use xlink:href="#DejaVuSans-30"/>
      </g>
     </g>
    </g>
    <g id="ytick_2">
     <g id="line2d_12">
      <g>
       <use xlink:href="#md0cec8c206" x="49.235" y="289.012572" style="stroke: #000000; stroke-width: 0.8"/>
      </g>
     </g>
     <g id="text_13">
      <!-- 50 -->
      <g transform="translate(29.51 292.811791) scale(0.1 -0.1)">
       <use xlink:href="#DejaVuSans-35"/>
       <use xlink:href="#DejaVuSans-30" x="63.623047"/>
      </g>
     </g>
    </g>
    <g id="ytick_3">
     <g id="line2d_13">
      <g>
       <use xlink:href="#md0cec8c206" x="49.235" y="233.627957" style="stroke: #000000; stroke-width: 0.8"/>
      </g>
     </g>
     <g id="text_14">
      <!-- 100 -->
      <g transform="translate(23.1475 237.427175) scale(0.1 -0.1)">
       <use xlink:href="#DejaVuSans-31"/>
       <use xlink:href="#DejaVuSans-30" x="63.623047"/>
       <use xlink:href="#DejaVuSans-30" x="127.246094"/>
      </g>
     </g>
    </g>
    <g id="ytick_4">
     <g id="line2d_14">
      <g>
       <use xlink:href="#md0cec8c206" x="49.235" y="178.243341" style="stroke: #000000; stroke-width: 0.8"/>
      </g>
     </g>
     <g id="text_15">
      <!-- 150 -->
      <g transform="translate(23.1475 182.04256) scale(0.1 -0.1)">
       <use xlink:href="#DejaVuSans-31"/>
       <use xlink:href="#DejaVuSans-35" x="63.623047"/>
       <use xlink:href="#DejaVuSans-30" x="127.246094"/>
      </g>
     </g>
    </g>
    <g id="ytick_5">
     <g id="line2d_15">
      <g>
       <use xlink:href="#md0cec8c206" x="49.235" y="122.858726" style="stroke: #000000; stroke-width: 0.8"/>
      </g>
     </g>
     <g id="text_16">
      <!-- 200 -->
      <g transform="translate(23.1475 126.657945) scale(0.1 -0.1)">
       <use xlink:href="#DejaVuSans-32"/>
       <use xlink:href="#DejaVuSans-30" x="63.623047"/>
       <use xlink:href="#DejaVuSans-30" x="127.246094"/>
      </g>
     </g>
    </g>
    <g id="ytick_6">
     <g id="line2d_16">
      <g>
       <use xlink:href="#md0cec8c206" x="49.235" y="67.474111" style="stroke: #000000; stroke-width: 0.8"/>
      </g>
     </g>
     <g id="text_17">
      <!-- 250 -->
      <g transform="translate(23.1475 71.273329) scale(0.1 -0.1)">
       <use xlink:href="#DejaVuSans-32"/>
       <use xlink:href="#DejaVuSans-35" x="63.623047"/>
       <use xlink:href="#DejaVuSans-30" x="127.246094"/>
      </g>
     </g>
    </g>
    <g id="text_18">
     <!-- Pellet_Count -->
     <g transform="translate(16.318125 230.485312) rotate(-90) scale(0.12 -0.12)">
      <defs>
       <path id="DejaVuSans-50" d="M 1259 4147 
L 1259 2394 
L 2053 2394 
Q 2494 2394 2734 2622 
Q 2975 2850 2975 3272 
Q 2975 3691 2734 3919 
Q 2494 4147 2053 4147 
L 1259 4147 
z
M 628 4666 
L 2053 4666 
Q 2838 4666 3239 4311 
Q 3641 3956 3641 3272 
Q 3641 2581 3239 2228 
Q 2838 1875 2053 1875 
L 1259 1875 
L 1259 0 
L 628 0 
L 628 4666 
z
" transform="scale(0.015625)"/>
       <path id="DejaVuSans-6c" d="M 603 4863 
L 1178 4863 
L 1178 0 
L 603 0 
L 603 4863 
z
" transform="scale(0.015625)"/>
       <path id="DejaVuSans-74" d="M 1172 4494 
L 1172 3500 
L 2356 3500 
L 2356 3053 
L 1172 3053 
L 1172 1153 
Q 1172 725 1289 603 
Q 1406 481 1766 481 
L 2356 481 
L 2356 0 
L 1766 0 
Q 1100 0 847 248 
Q 594 497 594 1153 
L 594 3053 
L 172 3053 
L 172 3500 
L 594 3500 
L 594 4494 
L 1172 4494 
z
" transform="scale(0.015625)"/>
       <path id="DejaVuSans-5f" d="M 3263 -1063 
L 3263 -1509 
L -63 -1509 
L -63 -1063 
L 3263 -1063 
z
" transform="scale(0.015625)"/>
       <path id="DejaVuSans-43" d="M 4122 4306 
L 4122 3641 
Q 3803 3938 3442 4084 
Q 3081 4231 2675 4231 
Q 1875 4231 1450 3742 
Q 1025 3253 1025 2328 
Q 1025 1406 1450 917 
Q 1875 428 2675 428 
Q 3081 428 3442 575 
Q 3803 722 4122 1019 
L 4122 359 
Q 3791 134 3420 21 
Q 3050 -91 2638 -91 
Q 1578 -91 968 557 
Q 359 1206 359 2328 
Q 359 3453 968 4101 
Q 1578 4750 2638 4750 
Q 3056 4750 3426 4639 
Q 3797 4528 4122 4306 
z
" transform="scale(0.015625)"/>
       <path id="DejaVuSans-6f" d="M 1959 3097 
Q 1497 3097 1228 2736 
Q 959 2375 959 1747 
Q 959 1119 1226 758 
Q 1494 397 1959 397 
Q 2419 397 2687 759 
Q 2956 1122 2956 1747 
Q 2956 2369 2687 2733 
Q 2419 3097 1959 3097 
z
M 1959 3584 
Q 2709 3584 3137 3096 
Q 3566 2609 3566 1747 
Q 3566 888 3137 398 
Q 2709 -91 1959 -91 
Q 1206 -91 779 398 
Q 353 888 353 1747 
Q 353 2609 779 3096 
Q 1206 3584 1959 3584 
z
" transform="scale(0.015625)"/>
       <path id="DejaVuSans-75" d="M 544 1381 
L 544 3500 
L 1119 3500 
L 1119 1403 
Q 1119 906 1312 657 
Q 1506 409 1894 409 
Q 2359 409 2629 706 
Q 2900 1003 2900 1516 
L 2900 3500 
L 3475 3500 
L 3475 0 
L 2900 0 
L 2900 538 
Q 2691 219 2414 64 
Q 2138 -91 1772 -91 
Q 1169 -91 856 284 
Q 544 659 544 1381 
z
M 1991 3584 
L 1991 3584 
z
" transform="scale(0.015625)"/>
       <path id="DejaVuSans-6e" d="M 3513 2113 
L 3513 0 
L 2938 0 
L 2938 2094 
Q 2938 2591 2744 2837 
Q 2550 3084 2163 3084 
Q 1697 3084 1428 2787 
Q 1159 2491 1159 1978 
L 1159 0 
L 581 0 
L 581 3500 
L 1159 3500 
L 1159 2956 
Q 1366 3272 1645 3428 
Q 1925 3584 2291 3584 
Q 2894 3584 3203 3211 
Q 3513 2838 3513 2113 
z
" transform="scale(0.015625)"/>
      </defs>
      <use xlink:href="#DejaVuSans-50"/>
      <use xlink:href="#DejaVuSans-65" x="56.677734"/>
      <use xlink:href="#DejaVuSans-6c" x="118.201172"/>
      <use xlink:href="#DejaVuSans-6c" x="145.984375"/>
      <use xlink:href="#DejaVuSans-65" x="173.767578"/>
      <use xlink:href="#DejaVuSans-74" x="235.291016"/>
      <use xlink:href="#DejaVuSans-5f" x="274.5"/>
      <use xlink:href="#DejaVuSans-43" x="324.5"/>
      <use xlink:href="#DejaVuSans-6f" x="394.324219"/>
      <use xlink:href="#DejaVuSans-75" x="455.505859"/>
      <use xlink:href="#DejaVuSans-6e" x="518.884766"/>
      <use xlink:href="#DejaVuSans-74" x="582.263672"/>
     </g>
    </g>
   </g>
   <g id="line2d_17">
    <path d="M 99.962273 344.397187 
L 146.983601 344.397187 
L 151.348923 343.289495 
L 155.978809 343.289495 
L 158.227611 342.181803 
L 158.726214 342.181803 
L 158.726214 342.181803 
L 161.270108 341.074111 
L 175.444682 341.074111 
L 175.587141 339.966418 
L 176.146797 339.966418 
L 176.472415 338.858726 
L 181.916348 338.858726 
L 182.130035 337.751034 
L 186.505532 337.751034 
L 186.668341 336.643341 
L 197.332343 336.643341 
L 197.362869 335.535649 
L 202.206443 335.535649 
L 202.348901 334.427957 
L 204.048222 334.427957 
L 204.088924 333.320264 
L 204.872443 333.320264 
L 204.90297 332.212572 
L 206.317375 332.212572 
L 206.358077 331.10488 
L 207.141596 331.10488 
L 207.192474 329.997187 
L 212.88062 329.997187 
L 213.023078 328.889495 
L 219.382812 328.889495 
L 219.454041 327.781803 
L 220.135805 327.781803 
L 220.23756 326.674111 
L 221.896179 326.674111 
L 222.09969 325.566418 
L 223.636202 325.566418 
L 223.737958 324.458726 
L 226.861859 324.458726 
L 226.892386 323.351034 
L 228.296615 323.351034 
L 228.316966 322.243341 
L 230.362257 322.243341 
L 230.850684 321.135649 
L 231.929295 321.135649 
L 232.020875 320.027957 
L 232.448249 320.027957 
L 232.499127 318.920264 
L 233.007906 318.920264 
L 233.089311 317.812572 
L 233.903357 317.812572 
L 234.005112 316.70488 
L 239.744136 316.70488 
L 239.754312 315.597187 
L 244.24174 315.597187 
L 244.251916 314.489495 
L 245.381404 314.489495 
L 245.472984 313.381803 
L 247.284237 313.381803 
L 247.324939 312.274111 
L 248.515481 312.274111 
L 248.525657 311.166418 
L 250.001115 311.166418 
L 250.011291 310.058726 
L 250.438665 310.058726 
L 250.44884 308.951034 
L 251.761489 308.951034 
L 251.853069 307.843341 
L 252.524657 307.843341 
L 252.616238 306.735649 
L 253.033436 306.735649 
L 253.053787 305.627957 
L 253.969589 305.627957 
L 254.030642 304.520264 
L 255.027849 304.520264 
L 255.088902 303.412572 
L 256.493131 303.412572 
L 256.533834 302.30488 
L 260.45143 302.30488 
L 260.492132 301.197187 
L 261.418109 301.197187 
L 261.458812 300.089495 
L 261.825132 300.089495 
L 261.835308 298.981803 
L 262.303384 298.981803 
L 262.333911 297.874111 
L 263.188659 297.874111 
L 263.229361 296.766418 
L 263.789018 296.766418 
L 263.819545 295.658726 
L 264.460606 295.658726 
L 264.480957 294.551034 
L 267.849072 294.551034 
L 267.879599 293.443341 
L 269.731553 293.443341 
L 269.751905 292.335649 
L 276.386379 292.335649 
L 276.416906 291.227957 
L 276.956211 291.227957 
L 276.966387 290.120264 
L 277.403936 290.120264 
L 277.434463 289.012572 
L 277.760082 289.012572 
L 277.790608 287.90488 
L 281.545395 287.90488 
L 281.555571 286.797187 
L 281.911716 286.797187 
L 281.932067 285.689495 
L 286.083701 285.689495 
L 286.521251 284.581803 
L 287.172488 284.581803 
L 287.192839 283.474111 
L 292.728351 283.474111 
L 292.748702 282.366418 
L 296.757879 282.366418 
L 296.77823 281.258726 
L 297.266657 281.258726 
L 297.276833 280.151034 
L 297.5821 280.151034 
L 297.592276 279.043341 
L 298.090879 279.043341 
L 298.11123 277.935649 
L 298.335093 277.935649 
L 298.365619 276.827957 
L 298.64036 276.827957 
L 298.650535 275.720264 
L 302.150933 275.720264 
L 302.150933 275.720264 
L 312.886164 274.612572 
L 314.392149 274.612572 
L 314.422676 273.50488 
L 315.023034 273.50488 
L 315.043386 272.397187 
L 317.689035 272.397187 
L 323.601043 271.289495 
L 326.785998 270.181803 
L 327.223548 270.181803 
L 328.485319 269.074111 
L 328.749884 269.074111 
L 331.019037 267.966418 
L 340.879169 267.966418 
L 345.305543 266.858726 
L 345.325895 266.858726 
L 345.33607 265.751034 
L 354.107415 265.751034 
L 354.127766 264.643341 
L 354.46356 264.643341 
L 354.494087 263.535649 
L 354.758652 263.535649 
L 354.779003 262.427957 
L 355.08427 262.427957 
L 355.124972 261.320264 
L 355.43024 261.320264 
L 355.450591 260.212572 
L 355.623576 260.212572 
L 355.654102 259.10488 
L 355.949194 259.10488 
L 355.95937 257.997187 
L 364.079478 257.997187 
L 364.110005 256.889495 
L 364.354218 256.889495 
L 364.374569 255.781803 
L 364.578081 255.781803 
L 364.588257 254.674111 
L 364.710363 254.674111 
L 364.730715 253.566418 
L 365.076684 253.566418 
L 365.097035 252.458726 
L 370.825884 252.458726 
L 370.866586 251.351034 
L 371.141326 251.351034 
L 371.161678 250.243341 
L 371.375365 250.243341 
L 371.395716 249.135649 
L 371.63993 249.135649 
L 371.700983 248.027957 
L 376.218938 248.027957 
L 376.25964 246.920264 
L 376.554732 246.920264 
L 376.575083 245.812572 
L 376.748068 245.812572 
L 376.798946 244.70488 
L 380.228114 244.70488 
L 383.026397 243.597187 
L 383.34184 243.597187 
L 383.362191 242.489495 
L 385.488886 242.489495 
L 386.323283 241.381803 
L 386.79136 241.381803 
L 389.498062 240.274111 
L 389.650696 240.274111 
L 389.681223 239.166418 
L 390.312108 239.166418 
L 390.322284 238.058726 
L 390.627551 238.058726 
L 390.658078 236.951034 
L 391.034574 236.951034 
L 391.054925 235.843341 
L 392.825475 235.843341 
L 392.845826 234.735649 
L 393.059513 234.735649 
L 393.069689 233.627957 
L 393.374956 233.627957 
L 393.385132 232.520264 
L 393.680223 232.520264 
L 393.700574 231.412572 
L 394.117773 231.412572 
L 394.127949 230.30488 
L 394.361987 230.30488 
L 394.382338 229.197187 
L 401.32208 229.197187 
L 403.143507 228.089495 
L 404.486683 228.089495 
L 404.486683 228.089495 
L 404.537561 226.981803 
L 404.761424 226.981803 
L 404.781775 225.874111 
L 404.964935 225.874111 
L 404.975111 224.766418 
L 405.534767 224.766418 
L 405.555118 223.658726 
L 405.799332 223.658726 
L 405.809508 222.551034 
L 406.074073 222.551034 
L 406.094424 221.443341 
L 413.166448 221.443341 
L 415.954555 220.335649 
L 416.47351 220.335649 
L 419.383724 219.227957 
L 420.340228 219.227957 
L 420.370755 218.120264 
L 424.379931 218.120264 
L 424.410458 217.012572 
L 424.695374 217.012572 
L 424.715725 215.90488 
L 425.183801 215.90488 
L 425.204152 214.797187 
L 433.426016 214.797187 
L 433.599001 213.689495 
L 435.491658 213.689495 
L 435.501833 212.581803 
L 435.857979 212.581803 
L 435.87833 211.474111 
L 436.173421 211.474111 
L 436.203948 210.366418 
L 436.600795 210.366418 
L 436.621147 209.258726 
L 436.906063 209.258726 
L 436.936589 208.151034 
L 441.37314 208.151034 
L 441.698758 207.043341 
L 446.003026 207.043341 
L 446.023377 205.935649 
L 447.376729 205.935649 
L 447.386904 204.827957 
L 447.743049 204.827957 
L 447.753225 203.720264 
L 448.160248 203.720264 
L 448.180599 202.612572 
L 448.445164 202.612572 
L 448.455339 201.50488 
L 448.618149 201.50488 
L 448.6385 200.397187 
L 453.665233 200.397187 
L 454.764196 199.289495 
L 456.789135 199.289495 
L 456.880715 197.074111 
L 457.104578 197.074111 
L 457.124929 195.966418 
L 461.876922 195.966418 
L 461.907449 194.858726 
L 462.080433 194.858726 
L 462.212716 192.643341 
L 467.95174 192.643341 
L 467.972091 191.535649 
L 468.257007 191.535649 
L 468.277358 190.427957 
L 475.563069 190.427957 
L 482.736849 189.320264 
L 495.761584 189.320264 
L 495.781935 188.212572 
L 499.730058 188.212572 
L 499.730058 188.212572 
L 499.77076 187.10488 
L 500.065852 187.10488 
L 500.187959 185.997187 
L 500.951127 185.997187 
L 500.971478 184.889495 
L 520.467878 184.889495 
L 520.48823 183.781803 
L 521.393856 183.781803 
L 521.56684 182.674111 
L 522.177375 182.674111 
L 523.724062 181.566418 
L 525.82023 181.566418 
L 525.840582 180.458726 
L 526.156024 180.458726 
L 526.674979 179.351034 
L 534.39824 179.351034 
L 534.418591 178.243341 
L 534.774736 178.243341 
L 534.784911 177.135649 
L 535.069827 177.135649 
L 535.080003 176.027957 
L 535.395446 176.027957 
L 535.405621 174.920264 
L 535.660011 174.920264 
L 535.680362 173.812572 
L 535.9144 173.812572 
L 535.924576 172.70488 
L 536.901431 172.70488 
L 537.77653 171.597187 
L 538.865317 171.597187 
L 538.885668 170.489495 
L 539.048477 170.489495 
L 539.068828 169.381803 
L 547.677364 169.381803 
L 547.68754 168.274111 
L 548.023333 168.274111 
L 548.033509 167.166418 
L 548.267547 167.166418 
L 548.277723 166.058726 
L 548.481234 166.058726 
L 548.49141 164.951034 
L 548.857731 164.951034 
L 548.867906 163.843341 
L 558.595755 163.843341 
L 558.616106 162.735649 
L 558.962076 162.735649 
L 558.982427 161.627957 
L 559.48103 161.627957 
L 559.491206 160.520264 
L 560.203496 160.520264 
L 560.213671 159.412572 
L 560.81403 159.412572 
L 560.81403 159.412572 
L 560.864908 158.30488 
L 568.211673 158.30488 
L 568.394833 157.197187 
L 573.645429 157.197187 
L 573.655605 156.089495 
L 574.082979 156.089495 
L 574.255964 154.981803 
L 574.571407 154.981803 
L 574.622285 153.874111 
L 578.987606 153.874111 
L 579.018133 152.766418 
L 583.922759 152.766418 
L 583.922759 152.766418 
L 584.055042 151.658726 
L 586.721042 151.658726 
L 586.731218 150.551034 
L 587.005958 150.551034 
L 587.02631 149.443341 
L 587.382455 149.443341 
L 587.39263 148.335649 
L 587.616493 148.335649 
L 587.636844 147.227957 
L 587.870882 147.227957 
L 587.881058 146.120264 
L 598.188914 146.120264 
L 598.209266 145.012572 
L 613.401398 145.012572 
L 613.421749 143.90488 
L 613.747368 143.90488 
L 613.767719 142.797187 
L 616.718635 142.797187 
L 616.789864 141.689495 
L 623.485392 141.689495 
L 623.485392 141.689495 
L 623.526094 140.581803 
L 623.790659 140.581803 
L 623.81101 139.474111 
L 624.075575 139.474111 
L 624.095927 138.366418 
L 624.991377 138.366418 
L 625.011728 137.258726 
L 672.867454 137.258726 
L 672.887805 136.151034 
L 673.223599 136.151034 
L 673.24395 135.043341 
L 673.640798 135.043341 
L 673.650973 133.935649 
L 694.276862 133.935649 
L 694.317564 132.827957 
L 694.582129 132.827957 
L 694.60248 131.720264 
L 695.009503 131.720264 
L 695.029855 130.612572 
L 695.396175 130.612572 
L 695.436878 129.50488 
L 695.75232 129.50488 
L 695.762496 128.397187 
L 703.607864 128.397187 
L 703.618039 127.289495 
L 704.065765 127.289495 
L 704.096291 126.181803 
L 704.289627 126.181803 
L 704.309978 125.074111 
L 704.554192 125.074111 
L 704.564368 123.966418 
L 708.634597 123.966418 
L 708.654949 122.858726 
L 709.061971 122.858726 
L 709.072147 121.751034 
L 709.489346 121.751034 
L 709.509697 120.643341 
L 717.395767 120.643341 
L 717.405942 119.535649 
L 724.427089 119.535649 
L 724.437264 118.427957 
L 724.915516 118.427957 
L 724.935867 117.320264 
L 725.292012 117.320264 
L 725.312364 116.212572 
L 734.775648 116.212572 
L 734.795999 115.10488 
L 775.793387 115.10488 
L 775.813739 113.997187 
L 776.220761 113.997187 
L 776.230937 112.889495 
L 776.566731 112.889495 
L 776.597258 111.781803 
L 776.963578 111.781803 
L 777.004281 110.674111 
L 777.533411 110.674111 
L 777.553762 109.566418 
L 777.859029 109.566418 
L 777.869205 108.458726 
L 782.93664 108.458726 
L 782.977343 107.351034 
L 783.506473 107.351034 
L 783.516648 106.243341 
L 783.984725 106.243341 
L 784.025427 105.135649 
L 813.270027 105.135649 
L 813.290378 104.027957 
L 813.707577 104.027957 
L 813.717753 102.920264 
L 814.043371 102.920264 
L 814.084073 101.812572 
L 843.847628 101.812572 
L 843.878155 100.70488 
L 844.346231 100.70488 
L 844.366582 99.597187 
L 844.661674 99.597187 
L 844.671849 98.489495 
L 844.956766 98.489495 
L 844.987292 97.381803 
L 845.435018 97.381803 
L 845.445193 96.274111 
L 890.248246 96.274111 
L 890.268598 95.166418 
L 890.695972 95.166418 
L 890.716323 94.058726 
L 915.158052 94.058726 
L 915.178403 92.951034 
L 915.544724 92.951034 
L 915.5549 91.843341 
L 915.849991 91.843341 
L 915.870342 90.735649 
L 916.206136 90.735649 
L 916.226488 89.627957 
L 916.592808 89.627957 
L 916.602984 88.520264 
L 930.340009 88.520264 
L 930.380711 87.412572 
L 930.675803 87.412572 
L 930.685979 86.30488 
L 930.920017 86.30488 
L 930.930192 85.197187 
L 938.042919 85.197187 
L 938.06327 84.089495 
L 975.173589 84.089495 
L 975.19394 82.981803 
L 975.560261 82.981803 
L 975.580612 81.874111 
L 975.987635 81.874111 
L 975.997811 80.766418 
L 976.720276 80.766418 
L 976.740628 79.658726 
L 977.40204 79.658726 
L 977.422391 78.551034 
L 985.084598 78.551034 
L 985.115125 77.443341 
L 985.634079 77.443341 
L 985.705308 76.335649 
L 1005.120304 76.335649 
L 1005.171182 75.227957 
L 1016.92397 75.227957 
L 1016.944321 74.120264 
L 1017.392047 74.120264 
L 1017.412398 73.012572 
L 1017.697314 73.012572 
L 1017.717665 71.90488 
L 1018.267146 71.90488 
L 1018.267146 71.90488 
L 1018.307848 70.797187 
L 1023.711078 70.797187 
L 1023.731429 69.689495 
L 1024.44372 69.689495 
L 1024.453895 68.581803 
L 1024.90162 68.581803 
L 1024.911796 67.474111 
L 1028.727636 67.474111 
L 1029.144835 66.366418 
L 1032.502774 66.366418 
L 1032.523126 65.258726 
L 1041.894829 65.258726 
L 1041.935532 64.151034 
L 1042.240799 64.151034 
L 1042.281501 63.043341 
L 1042.586769 63.043341 
L 1042.60712 61.935649 
L 1042.810631 61.935649 
L 1042.820807 60.827957 
L 1050.564419 60.827957 
L 1050.58477 59.720264 
L 1050.879862 59.720264 
L 1050.900213 58.612572 
L 1051.276709 58.612572 
L 1051.286884 57.50488 
L 1051.612503 57.50488 
L 1051.632854 56.397187 
L 1057.921359 56.397187 
L 1058.389435 55.289495 
L 1058.837161 55.289495 
L 1058.857512 54.181803 
L 1059.172955 54.181803 
L 1059.18313 53.074111 
L 1073.469636 53.074111 
L 1073.500163 51.966418 
L 1073.815606 51.966418 
L 1073.866484 50.858726 
L 1082.902394 50.858726 
L 1082.912569 49.751034 
L 1083.360295 49.751034 
L 1083.390821 48.643341 
L 1083.635035 48.643341 
L 1083.675737 47.535649 
L 1084.530486 47.535649 
L 1084.571188 46.427957 
L 1092.111288 46.427957 
L 1092.13164 45.320264 
L 1108.08694 45.320264 
L 1108.107291 44.212572 
L 1109.959246 44.212572 
L 1112.452261 43.10488 
L 1112.950864 43.10488 
L 1113.58175 41.997187 
L 1114.507727 41.997187 
L 1114.507727 41.997187 
" clip-path="url(#pc1540ff8e8)" style="fill: none; stroke: #0000ff; stroke-width: 1.5; stroke-linecap: square"/>
   </g>
   <g id="patch_73">
    <path d="M 49.235 359.517187 
L 49.235 26.877187 
" style="fill: none; stroke: #000000; stroke-width: 0.8; stroke-linejoin: miter; stroke-linecap: square"/>
   </g>
   <g id="patch_74">
    <path d="M 1165.235 359.517187 
L 1165.235 26.877187 
" style="fill: none; stroke: #000000; stroke-width: 0.8; stroke-linejoin: miter; stroke-linecap: square"/>
   </g>
   <g id="patch_75">
    <path d="M 49.235 359.517187 
L 1165.235 359.517187 
" style="fill: none; stroke: #000000; stroke-width: 0.8; stroke-linejoin: miter; stroke-linecap: square"/>
   </g>
   <g id="patch_76">
    <path d="M 49.235 26.877187 
L 1165.235 26.877187 
" style="fill: none; stroke: #000000; stroke-width: 0.8; stroke-linejoin: miter; stroke-linecap: square"/>
   </g>
   <g id="text_19">
    <!-- Pellet Count and Cumulative Sum Over Time of Group female Mouse M69 -->
    <g transform="translate(276.669219 20.877187) scale(0.18 -0.18)">
     <defs>
      <path id="DejaVuSans-61" d="M 2194 1759 
Q 1497 1759 1228 1600 
Q 959 1441 959 1056 
Q 959 750 1161 570 
Q 1363 391 1709 391 
Q 2188 391 2477 730 
Q 2766 1069 2766 1631 
L 2766 1759 
L 2194 1759 
z
M 3341 1997 
L 3341 0 
L 2766 0 
L 2766 531 
Q 2569 213 2275 61 
Q 1981 -91 1556 -91 
Q 1019 -91 701 211 
Q 384 513 384 1019 
Q 384 1609 779 1909 
Q 1175 2209 1959 2209 
L 2766 2209 
L 2766 2266 
Q 2766 2663 2505 2880 
Q 2244 3097 1772 3097 
Q 1472 3097 1187 3025 
Q 903 2953 641 2809 
L 641 3341 
Q 956 3463 1253 3523 
Q 1550 3584 1831 3584 
Q 2591 3584 2966 3190 
Q 3341 2797 3341 1997 
z
" transform="scale(0.015625)"/>
      <path id="DejaVuSans-64" d="M 2906 2969 
L 2906 4863 
L 3481 4863 
L 3481 0 
L 2906 0 
L 2906 525 
Q 2725 213 2448 61 
Q 2172 -91 1784 -91 
Q 1150 -91 751 415 
Q 353 922 353 1747 
Q 353 2572 751 3078 
Q 1150 3584 1784 3584 
Q 2172 3584 2448 3432 
Q 2725 3281 2906 2969 
z
M 947 1747 
Q 947 1113 1208 752 
Q 1469 391 1925 391 
Q 2381 391 2643 752 
Q 2906 1113 2906 1747 
Q 2906 2381 2643 2742 
Q 2381 3103 1925 3103 
Q 1469 3103 1208 2742 
Q 947 2381 947 1747 
z
" transform="scale(0.015625)"/>
      <path id="DejaVuSans-76" d="M 191 3500 
L 800 3500 
L 1894 563 
L 2988 3500 
L 3597 3500 
L 2284 0 
L 1503 0 
L 191 3500 
z
" transform="scale(0.015625)"/>
      <path id="DejaVuSans-53" d="M 3425 4513 
L 3425 3897 
Q 3066 4069 2747 4153 
Q 2428 4238 2131 4238 
Q 1616 4238 1336 4038 
Q 1056 3838 1056 3469 
Q 1056 3159 1242 3001 
Q 1428 2844 1947 2747 
L 2328 2669 
Q 3034 2534 3370 2195 
Q 3706 1856 3706 1288 
Q 3706 609 3251 259 
Q 2797 -91 1919 -91 
Q 1588 -91 1214 -16 
Q 841 59 441 206 
L 441 856 
Q 825 641 1194 531 
Q 1563 422 1919 422 
Q 2459 422 2753 634 
Q 3047 847 3047 1241 
Q 3047 1584 2836 1778 
Q 2625 1972 2144 2069 
L 1759 2144 
Q 1053 2284 737 2584 
Q 422 2884 422 3419 
Q 422 4038 858 4394 
Q 1294 4750 2059 4750 
Q 2388 4750 2728 4690 
Q 3069 4631 3425 4513 
z
" transform="scale(0.015625)"/>
      <path id="DejaVuSans-4f" d="M 2522 4238 
Q 1834 4238 1429 3725 
Q 1025 3213 1025 2328 
Q 1025 1447 1429 934 
Q 1834 422 2522 422 
Q 3209 422 3611 934 
Q 4013 1447 4013 2328 
Q 4013 3213 3611 3725 
Q 3209 4238 2522 4238 
z
M 2522 4750 
Q 3503 4750 4090 4092 
Q 4678 3434 4678 2328 
Q 4678 1225 4090 567 
Q 3503 -91 2522 -91 
Q 1538 -91 948 565 
Q 359 1222 359 2328 
Q 359 3434 948 4092 
Q 1538 4750 2522 4750 
z
" transform="scale(0.015625)"/>
      <path id="DejaVuSans-72" d="M 2631 2963 
Q 2534 3019 2420 3045 
Q 2306 3072 2169 3072 
Q 1681 3072 1420 2755 
Q 1159 2438 1159 1844 
L 1159 0 
L 581 0 
L 581 3500 
L 1159 3500 
L 1159 2956 
Q 1341 3275 1631 3429 
Q 1922 3584 2338 3584 
Q 2397 3584 2469 3576 
Q 2541 3569 2628 3553 
L 2631 2963 
z
" transform="scale(0.015625)"/>
      <path id="DejaVuSans-66" d="M 2375 4863 
L 2375 4384 
L 1825 4384 
Q 1516 4384 1395 4259 
Q 1275 4134 1275 3809 
L 1275 3500 
L 2222 3500 
L 2222 3053 
L 1275 3053 
L 1275 0 
L 697 0 
L 697 3053 
L 147 3053 
L 147 3500 
L 697 3500 
L 697 3744 
Q 697 4328 969 4595 
Q 1241 4863 1831 4863 
L 2375 4863 
z
" transform="scale(0.015625)"/>
      <path id="DejaVuSans-47" d="M 3809 666 
L 3809 1919 
L 2778 1919 
L 2778 2438 
L 4434 2438 
L 4434 434 
Q 4069 175 3628 42 
Q 3188 -91 2688 -91 
Q 1594 -91 976 548 
Q 359 1188 359 2328 
Q 359 3472 976 4111 
Q 1594 4750 2688 4750 
Q 3144 4750 3555 4637 
Q 3966 4525 4313 4306 
L 4313 3634 
Q 3963 3931 3569 4081 
Q 3175 4231 2741 4231 
Q 1884 4231 1454 3753 
Q 1025 3275 1025 2328 
Q 1025 1384 1454 906 
Q 1884 428 2741 428 
Q 3075 428 3337 486 
Q 3600 544 3809 666 
z
" transform="scale(0.015625)"/>
      <path id="DejaVuSans-70" d="M 1159 525 
L 1159 -1331 
L 581 -1331 
L 581 3500 
L 1159 3500 
L 1159 2969 
Q 1341 3281 1617 3432 
Q 1894 3584 2278 3584 
Q 2916 3584 3314 3078 
Q 3713 2572 3713 1747 
Q 3713 922 3314 415 
Q 2916 -91 2278 -91 
Q 1894 -91 1617 61 
Q 1341 213 1159 525 
z
M 3116 1747 
Q 3116 2381 2855 2742 
Q 2594 3103 2138 3103 
Q 1681 3103 1420 2742 
Q 1159 2381 1159 1747 
Q 1159 1113 1420 752 
Q 1681 391 2138 391 
Q 2594 391 2855 752 
Q 3116 1113 3116 1747 
z
" transform="scale(0.015625)"/>
      <path id="DejaVuSans-4d" d="M 628 4666 
L 1569 4666 
L 2759 1491 
L 3956 4666 
L 4897 4666 
L 4897 0 
L 4281 0 
L 4281 4097 
L 3078 897 
L 2444 897 
L 1241 4097 
L 1241 0 
L 628 0 
L 628 4666 
z
" transform="scale(0.015625)"/>
      <path id="DejaVuSans-73" d="M 2834 3397 
L 2834 2853 
Q 2591 2978 2328 3040 
Q 2066 3103 1784 3103 
Q 1356 3103 1142 2972 
Q 928 2841 928 2578 
Q 928 2378 1081 2264 
Q 1234 2150 1697 2047 
L 1894 2003 
Q 2506 1872 2764 1633 
Q 3022 1394 3022 966 
Q 3022 478 2636 193 
Q 2250 -91 1575 -91 
Q 1294 -91 989 -36 
Q 684 19 347 128 
L 347 722 
Q 666 556 975 473 
Q 1284 391 1588 391 
Q 1994 391 2212 530 
Q 2431 669 2431 922 
Q 2431 1156 2273 1281 
Q 2116 1406 1581 1522 
L 1381 1569 
Q 847 1681 609 1914 
Q 372 2147 372 2553 
Q 372 3047 722 3315 
Q 1072 3584 1716 3584 
Q 2034 3584 2315 3537 
Q 2597 3491 2834 3397 
z
" transform="scale(0.015625)"/>
     </defs>
     <use xlink:href="#DejaVuSans-50"/>
     <use xlink:href="#DejaVuSans-65" x="56.677734"/>
     <use xlink:href="#DejaVuSans-6c" x="118.201172"/>
     <use xlink:href="#DejaVuSans-6c" x="145.984375"/>
     <use xlink:href="#DejaVuSans-65" x="173.767578"/>
     <use xlink:href="#DejaVuSans-74" x="235.291016"/>
     <use xlink:href="#DejaVuSans-20" x="274.5"/>
     <use xlink:href="#DejaVuSans-43" x="306.287109"/>
     <use xlink:href="#DejaVuSans-6f" x="376.111328"/>
     <use xlink:href="#DejaVuSans-75" x="437.292969"/>
     <use xlink:href="#DejaVuSans-6e" x="500.671875"/>
     <use xlink:href="#DejaVuSans-74" x="564.050781"/>
     <use xlink:href="#DejaVuSans-20" x="603.259766"/>
     <use xlink:href="#DejaVuSans-61" x="635.046875"/>
     <use xlink:href="#DejaVuSans-6e" x="696.326172"/>
     <use xlink:href="#DejaVuSans-64" x="759.705078"/>
     <use xlink:href="#DejaVuSans-20" x="823.181641"/>
     <use xlink:href="#DejaVuSans-43" x="854.96875"/>
     <use xlink:href="#DejaVuSans-75" x="924.792969"/>
     <use xlink:href="#DejaVuSans-6d" x="988.171875"/>
     <use xlink:href="#DejaVuSans-75" x="1085.583984"/>
     <use xlink:href="#DejaVuSans-6c" x="1148.962891"/>
     <use xlink:href="#DejaVuSans-61" x="1176.746094"/>
     <use xlink:href="#DejaVuSans-74" x="1238.025391"/>
     <use xlink:href="#DejaVuSans-69" x="1277.234375"/>
     <use xlink:href="#DejaVuSans-76" x="1305.017578"/>
     <use xlink:href="#DejaVuSans-65" x="1364.197266"/>
     <use xlink:href="#DejaVuSans-20" x="1425.720703"/>
     <use xlink:href="#DejaVuSans-53" x="1457.507812"/>
     <use xlink:href="#DejaVuSans-75" x="1520.984375"/>
     <use xlink:href="#DejaVuSans-6d" x="1584.363281"/>
     <use xlink:href="#DejaVuSans-20" x="1681.775391"/>
     <use xlink:href="#DejaVuSans-4f" x="1713.5625"/>
     <use xlink:href="#DejaVuSans-76" x="1792.273438"/>
     <use xlink:href="#DejaVuSans-65" x="1851.453125"/>
     <use xlink:href="#DejaVuSans-72" x="1912.976562"/>
     <use xlink:href="#DejaVuSans-20" x="1954.089844"/>
     <use xlink:href="#DejaVuSans-54" x="1985.876953"/>
     <use xlink:href="#DejaVuSans-69" x="2043.835938"/>
     <use xlink:href="#DejaVuSans-6d" x="2071.619141"/>
     <use xlink:href="#DejaVuSans-65" x="2169.03125"/>
     <use xlink:href="#DejaVuSans-20" x="2230.554688"/>
     <use xlink:href="#DejaVuSans-6f" x="2262.341797"/>
     <use xlink:href="#DejaVuSans-66" x="2323.523438"/>
     <use xlink:href="#DejaVuSans-20" x="2358.728516"/>
     <use xlink:href="#DejaVuSans-47" x="2390.515625"/>
     <use xlink:href="#DejaVuSans-72" x="2468.005859"/>
     <use xlink:href="#DejaVuSans-6f" x="2506.869141"/>
     <use xlink:href="#DejaVuSans-75" x="2568.050781"/>
     <use xlink:href="#DejaVuSans-70" x="2631.429688"/>
     <use xlink:href="#DejaVuSans-20" x="2694.90625"/>
     <use xlink:href="#DejaVuSans-66" x="2726.693359"/>
     <use xlink:href="#DejaVuSans-65" x="2761.898438"/>
     <use xlink:href="#DejaVuSans-6d" x="2823.421875"/>
     <use xlink:href="#DejaVuSans-61" x="2920.833984"/>
     <use xlink:href="#DejaVuSans-6c" x="2982.113281"/>
     <use xlink:href="#DejaVuSans-65" x="3009.896484"/>
     <use xlink:href="#DejaVuSans-20" x="3071.419922"/>
     <use xlink:href="#DejaVuSans-4d" x="3103.207031"/>
     <use xlink:href="#DejaVuSans-6f" x="3189.486328"/>
     <use xlink:href="#DejaVuSans-75" x="3250.667969"/>
     <use xlink:href="#DejaVuSans-73" x="3314.046875"/>
     <use xlink:href="#DejaVuSans-65" x="3366.146484"/>
     <use xlink:href="#DejaVuSans-20" x="3427.669922"/>
     <use xlink:href="#DejaVuSans-4d" x="3459.457031"/>
     <use xlink:href="#DejaVuSans-36" x="3545.736328"/>
     <use xlink:href="#DejaVuSans-39" x="3609.359375"/>
    </g>
   </g>
   <g id="legend_1">
    <g id="patch_77">
     <path d="M 1086.550625 64.233437 
L 1158.235 64.233437 
Q 1160.235 64.233437 1160.235 62.233437 
L 1160.235 33.877187 
Q 1160.235 31.877187 1158.235 31.877187 
L 1086.550625 31.877187 
Q 1084.550625 31.877187 1084.550625 33.877187 
L 1084.550625 62.233437 
Q 1084.550625 64.233437 1086.550625 64.233437 
z
" style="fill: #ffffff; opacity: 0.8; stroke: #cccccc; stroke-linejoin: miter"/>
    </g>
    <g id="patch_78">
     <path d="M 1088.550625 43.475625 
L 1108.550625 43.475625 
L 1108.550625 36.475625 
L 1088.550625 36.475625 
z
" style="fill: #add8e6; opacity: 0.9; stroke: #add8e6; stroke-linejoin: miter"/>
    </g>
    <g id="text_20">
     <!-- Meal -->
     <g transform="translate(1116.550625 43.475625) scale(0.1 -0.1)">
      <use xlink:href="#DejaVuSans-4d"/>
      <use xlink:href="#DejaVuSans-65" x="86.279297"/>
      <use xlink:href="#DejaVuSans-61" x="147.802734"/>
      <use xlink:href="#DejaVuSans-6c" x="209.082031"/>
     </g>
    </g>
    <g id="patch_79">
     <path d="M 1088.550625 58.15375 
L 1108.550625 58.15375 
L 1108.550625 51.15375 
L 1088.550625 51.15375 
z
" style="fill: #808080; opacity: 0.5; stroke: #808080; stroke-linejoin: miter"/>
    </g>
    <g id="text_21">
     <!-- Inactive -->
     <g transform="translate(1116.550625 58.15375) scale(0.1 -0.1)">
      <defs>
       <path id="DejaVuSans-49" d="M 628 4666 
L 1259 4666 
L 1259 0 
L 628 0 
L 628 4666 
z
" transform="scale(0.015625)"/>
       <path id="DejaVuSans-63" d="M 3122 3366 
L 3122 2828 
Q 2878 2963 2633 3030 
Q 2388 3097 2138 3097 
Q 1578 3097 1268 2742 
Q 959 2388 959 1747 
Q 959 1106 1268 751 
Q 1578 397 2138 397 
Q 2388 397 2633 464 
Q 2878 531 3122 666 
L 3122 134 
Q 2881 22 2623 -34 
Q 2366 -91 2075 -91 
Q 1284 -91 818 406 
Q 353 903 353 1747 
Q 353 2603 823 3093 
Q 1294 3584 2113 3584 
Q 2378 3584 2631 3529 
Q 2884 3475 3122 3366 
z
" transform="scale(0.015625)"/>
      </defs>
      <use xlink:href="#DejaVuSans-49"/>
      <use xlink:href="#DejaVuSans-6e" x="29.492188"/>
      <use xlink:href="#DejaVuSans-61" x="92.871094"/>
      <use xlink:href="#DejaVuSans-63" x="154.150391"/>
      <use xlink:href="#DejaVuSans-74" x="209.130859"/>
      <use xlink:href="#DejaVuSans-69" x="248.339844"/>
      <use xlink:href="#DejaVuSans-76" x="276.123047"/>
      <use xlink:href="#DejaVuSans-65" x="335.302734"/>
     </g>
    </g>
   </g>
  </g>
 </g>
 <defs>
  <clipPath id="pc1540ff8e8">
   <rect x="49.235" y="26.877187" width="1116" height="332.64"/>
  </clipPath>
 </defs>
</svg>
