<?xml version="1.0" encoding="utf-8" standalone="no"?>
<!DOCTYPE svg PUBLIC "-//W3C//DTD SVG 1.1//EN"
  "http://www.w3.org/Graphics/SVG/1.1/DTD/svg11.dtd">
<svg xmlns:xlink="http://www.w3.org/1999/xlink" width="1172.435pt" height="399.009062pt" viewBox="0 0 1172.435 399.009062" xmlns="http://www.w3.org/2000/svg" version="1.1">
 <metadata>
  <rdf:RDF xmlns:dc="http://purl.org/dc/elements/1.1/" xmlns:cc="http://creativecommons.org/ns#" xmlns:rdf="http://www.w3.org/1999/02/22-rdf-syntax-ns#">
   <cc:Work>
    <dc:type rdf:resource="http://purl.org/dc/dcmitype/StillImage"/>
    <dc:date>2025-10-01T20:30:14.696106</dc:date>
    <dc:format>image/svg+xml</dc:format>
    <dc:creator>
     <cc:Agent>
      <dc:title>Matplotlib v3.8.4, https://matplotlib.org/</dc:title>
     </cc:Agent>
    </dc:creator>
   </cc:Work>
  </rdf:RDF>
 </metadata>
 <defs>
  <style type="text/css">*{stroke-linejoin: round; stroke-linecap: butt}</style>
 </defs>
 <g id="figure_1">
  <g id="patch_1">
   <path d="M 0 399.009062 
L 1172.435 399.009062 
L 1172.435 0 
L 0 0 
z
" style="fill: #ffffff"/>
  </g>
  <g id="axes_1">
   <g id="patch_2">
    <path d="M 49.235 359.517187 
L 1165.235 359.517187 
L 1165.235 26.877187 
L 49.235 26.877187 
z
" style="fill: #ffffff"/>
   </g>
   <g id="patch_3">
    <path d="M 131.769146 359.517187 
L 131.769146 26.877187 
L 118.884766 26.877187 
L 118.884766 359.517187 
z
" clip-path="url(#p6eb5a6b2e9)" style="fill: #add8e6; stroke: #add8e6; stroke-linejoin: miter"/>
   </g>
   <g id="patch_4">
    <path d="M 176.271969 359.517187 
L 176.271969 26.877187 
L 163.733043 26.877187 
L 163.733043 359.517187 
z
" clip-path="url(#p6eb5a6b2e9)" style="fill: #add8e6; stroke: #add8e6; stroke-linejoin: miter"/>
   </g>
   <g id="patch_5">
    <path d="M 184.039445 359.517187 
L 184.039445 26.877187 
L 179.029319 26.877187 
L 179.029319 359.517187 
z
" clip-path="url(#p6eb5a6b2e9)" style="fill: #add8e6; stroke: #add8e6; stroke-linejoin: miter"/>
   </g>
   <g id="patch_6">
    <path d="M 186.748641 359.517187 
L 186.748641 26.877187 
L 185.50082 26.877187 
L 185.50082 359.517187 
z
" clip-path="url(#p6eb5a6b2e9)" style="fill: #add8e6; stroke: #add8e6; stroke-linejoin: miter"/>
   </g>
   <g id="patch_7">
    <path d="M 200.319741 359.517187 
L 200.319741 26.877187 
L 195.617382 26.877187 
L 195.617382 359.517187 
z
" clip-path="url(#p6eb5a6b2e9)" style="fill: #add8e6; stroke: #add8e6; stroke-linejoin: miter"/>
   </g>
   <g id="patch_8">
    <path d="M 235.838672 359.517187 
L 235.838672 26.877187 
L 235.491124 26.877187 
L 235.491124 359.517187 
z
" clip-path="url(#p6eb5a6b2e9)" style="fill: #add8e6; stroke: #add8e6; stroke-linejoin: miter"/>
   </g>
   <g id="patch_9">
    <path d="M 247.53804 359.517187 
L 247.53804 26.877187 
L 246.861788 26.877187 
L 246.861788 359.517187 
z
" clip-path="url(#p6eb5a6b2e9)" style="fill: #add8e6; stroke: #add8e6; stroke-linejoin: miter"/>
   </g>
   <g id="patch_10">
    <path d="M 253.396099 359.517187 
L 253.396099 26.877187 
L 252.858029 26.877187 
L 252.858029 359.517187 
z
" clip-path="url(#p6eb5a6b2e9)" style="fill: #add8e6; stroke: #add8e6; stroke-linejoin: miter"/>
   </g>
   <g id="patch_11">
    <path d="M 256.147168 359.517187 
L 256.147168 26.877187 
L 256.681051 26.877187 
L 256.681051 359.517187 
z
" clip-path="url(#p6eb5a6b2e9)" style="fill: #add8e6; stroke: #add8e6; stroke-linejoin: miter"/>
   </g>
   <g id="patch_12">
    <path d="M 274.238478 359.517187 
L 274.238478 26.877187 
L 274.401784 26.877187 
L 274.401784 359.517187 
z
" clip-path="url(#p6eb5a6b2e9)" style="fill: #add8e6; stroke: #add8e6; stroke-linejoin: miter"/>
   </g>
   <g id="patch_13">
    <path d="M 324.917597 359.517187 
L 324.917597 26.877187 
L 291.779156 26.877187 
L 291.779156 359.517187 
z
" clip-path="url(#p6eb5a6b2e9)" style="fill: #add8e6; stroke: #add8e6; stroke-linejoin: miter"/>
   </g>
   <g id="patch_14">
    <path d="M 336.631621 359.517187 
L 336.631621 26.877187 
L 304.418578 26.877187 
L 304.418578 359.517187 
z
" clip-path="url(#p6eb5a6b2e9)" style="fill: #add8e6; stroke: #add8e6; stroke-linejoin: miter"/>
   </g>
   <g id="patch_15">
    <path d="M 370.38141 359.517187 
L 370.38141 26.877187 
L 338.800652 26.877187 
L 338.800652 359.517187 
z
" clip-path="url(#p6eb5a6b2e9)" style="fill: #add8e6; stroke: #add8e6; stroke-linejoin: miter"/>
   </g>
   <g id="patch_16">
    <path d="M 364.491946 359.517187 
L 364.491946 26.877187 
L 351.297705 26.877187 
L 351.297705 359.517187 
z
" clip-path="url(#p6eb5a6b2e9)" style="fill: #add8e6; stroke: #add8e6; stroke-linejoin: miter"/>
   </g>
   <g id="patch_17">
    <path d="M 368.746262 359.517187 
L 368.746262 26.877187 
L 368.698108 26.877187 
L 368.698108 359.517187 
z
" clip-path="url(#p6eb5a6b2e9)" style="fill: #add8e6; stroke: #add8e6; stroke-linejoin: miter"/>
   </g>
   <g id="patch_18">
    <path d="M 369.874744 359.517187 
L 369.874744 26.877187 
L 369.74075 26.877187 
L 369.74075 359.517187 
z
" clip-path="url(#p6eb5a6b2e9)" style="fill: #add8e6; stroke: #add8e6; stroke-linejoin: miter"/>
   </g>
   <g id="patch_19">
    <path d="M 370.858764 359.517187 
L 370.858764 26.877187 
L 370.337443 26.877187 
L 370.337443 359.517187 
z
" clip-path="url(#p6eb5a6b2e9)" style="fill: #add8e6; stroke: #add8e6; stroke-linejoin: miter"/>
   </g>
   <g id="patch_20">
    <path d="M 371.767412 359.517187 
L 371.767412 26.877187 
L 371.849065 26.877187 
L 371.849065 359.517187 
z
" clip-path="url(#p6eb5a6b2e9)" style="fill: #add8e6; stroke: #add8e6; stroke-linejoin: miter"/>
   </g>
   <g id="patch_21">
    <path d="M 397.134189 359.517187 
L 397.134189 26.877187 
L 380.648715 26.877187 
L 380.648715 359.517187 
z
" clip-path="url(#p6eb5a6b2e9)" style="fill: #add8e6; stroke: #add8e6; stroke-linejoin: miter"/>
   </g>
   <g id="patch_22">
    <path d="M 416.452384 359.517187 
L 416.452384 26.877187 
L 382.865901 26.877187 
L 382.865901 359.517187 
z
" clip-path="url(#p6eb5a6b2e9)" style="fill: #add8e6; stroke: #add8e6; stroke-linejoin: miter"/>
   </g>
   <g id="patch_23">
    <path d="M 398.331762 359.517187 
L 398.331762 26.877187 
L 395.720969 26.877187 
L 395.720969 359.517187 
z
" clip-path="url(#p6eb5a6b2e9)" style="fill: #add8e6; stroke: #add8e6; stroke-linejoin: miter"/>
   </g>
   <g id="patch_24">
    <path d="M 436.834158 359.517187 
L 436.834158 26.877187 
L 415.365775 26.877187 
L 415.365775 359.517187 
z
" clip-path="url(#p6eb5a6b2e9)" style="fill: #add8e6; stroke: #add8e6; stroke-linejoin: miter"/>
   </g>
   <g id="patch_25">
    <path d="M 447.501352 359.517187 
L 447.501352 26.877187 
L 416.132054 26.877187 
L 416.132054 359.517187 
z
" clip-path="url(#p6eb5a6b2e9)" style="fill: #add8e6; stroke: #add8e6; stroke-linejoin: miter"/>
   </g>
   <g id="patch_26">
    <path d="M 452.00272 359.517187 
L 452.00272 26.877187 
L 417.677175 26.877187 
L 417.677175 359.517187 
z
" clip-path="url(#p6eb5a6b2e9)" style="fill: #add8e6; stroke: #add8e6; stroke-linejoin: miter"/>
   </g>
   <g id="patch_27">
    <path d="M 418.491608 359.517187 
L 418.491608 26.877187 
L 419.500752 26.877187 
L 419.500752 359.517187 
z
" clip-path="url(#p6eb5a6b2e9)" style="fill: #add8e6; stroke: #add8e6; stroke-linejoin: miter"/>
   </g>
   <g id="patch_28">
    <path d="M 487.333222 359.517187 
L 487.333222 26.877187 
L 453.194012 26.877187 
L 453.194012 359.517187 
z
" clip-path="url(#p6eb5a6b2e9)" style="fill: #add8e6; stroke: #add8e6; stroke-linejoin: miter"/>
   </g>
   <g id="patch_29">
    <path d="M 460.507164 359.517187 
L 460.507164 26.877187 
L 459.460335 26.877187 
L 459.460335 359.517187 
z
" clip-path="url(#p6eb5a6b2e9)" style="fill: #add8e6; stroke: #add8e6; stroke-linejoin: miter"/>
   </g>
   <g id="patch_30">
    <path d="M 462.12975 359.517187 
L 462.12975 26.877187 
L 462.36424 26.877187 
L 462.36424 359.517187 
z
" clip-path="url(#p6eb5a6b2e9)" style="fill: #add8e6; stroke: #add8e6; stroke-linejoin: miter"/>
   </g>
   <g id="patch_31">
    <path d="M 472.63992 359.517187 
L 472.63992 26.877187 
L 472.755072 26.877187 
L 472.755072 359.517187 
z
" clip-path="url(#p6eb5a6b2e9)" style="fill: #add8e6; stroke: #add8e6; stroke-linejoin: miter"/>
   </g>
   <g id="patch_32">
    <path d="M 488.361209 359.517187 
L 488.361209 26.877187 
L 475.495672 26.877187 
L 475.495672 359.517187 
z
" clip-path="url(#p6eb5a6b2e9)" style="fill: #add8e6; stroke: #add8e6; stroke-linejoin: miter"/>
   </g>
   <g id="patch_33">
    <path d="M 515.18936 359.517187 
L 515.18936 26.877187 
L 496.0575 26.877187 
L 496.0575 359.517187 
z
" clip-path="url(#p6eb5a6b2e9)" style="fill: #add8e6; stroke: #add8e6; stroke-linejoin: miter"/>
   </g>
   <g id="patch_34">
    <path d="M 503.573738 359.517187 
L 503.573738 26.877187 
L 493.23106 26.877187 
L 493.23106 359.517187 
z
" clip-path="url(#p6eb5a6b2e9)" style="fill: #add8e6; stroke: #add8e6; stroke-linejoin: miter"/>
   </g>
   <g id="patch_35">
    <path d="M 502.933078 359.517187 
L 502.933078 26.877187 
L 500.59446 26.877187 
L 500.59446 359.517187 
z
" clip-path="url(#p6eb5a6b2e9)" style="fill: #add8e6; stroke: #add8e6; stroke-linejoin: miter"/>
   </g>
   <g id="patch_36">
    <path d="M 533.385353 359.517187 
L 533.385353 26.877187 
L 519.188249 26.877187 
L 519.188249 359.517187 
z
" clip-path="url(#p6eb5a6b2e9)" style="fill: #add8e6; stroke: #add8e6; stroke-linejoin: miter"/>
   </g>
   <g id="patch_37">
    <path d="M 520.789899 359.517187 
L 520.789899 26.877187 
L 520.873645 26.877187 
L 520.873645 359.517187 
z
" clip-path="url(#p6eb5a6b2e9)" style="fill: #add8e6; stroke: #add8e6; stroke-linejoin: miter"/>
   </g>
   <g id="patch_38">
    <path d="M 559.323699 359.517187 
L 559.323699 26.877187 
L 542.492771 26.877187 
L 542.492771 359.517187 
z
" clip-path="url(#p6eb5a6b2e9)" style="fill: #add8e6; stroke: #add8e6; stroke-linejoin: miter"/>
   </g>
   <g id="patch_39">
    <path d="M 565.573272 359.517187 
L 565.573272 26.877187 
L 534.501274 26.877187 
L 534.501274 359.517187 
z
" clip-path="url(#p6eb5a6b2e9)" style="fill: #add8e6; stroke: #add8e6; stroke-linejoin: miter"/>
   </g>
   <g id="patch_40">
    <path d="M 566.906933 359.517187 
L 566.906933 26.877187 
L 562.378348 26.877187 
L 562.378348 359.517187 
z
" clip-path="url(#p6eb5a6b2e9)" style="fill: #add8e6; stroke: #add8e6; stroke-linejoin: miter"/>
   </g>
   <g id="patch_41">
    <path d="M 601.291101 359.517187 
L 601.291101 26.877187 
L 569.308361 26.877187 
L 569.308361 359.517187 
z
" clip-path="url(#p6eb5a6b2e9)" style="fill: #add8e6; stroke: #add8e6; stroke-linejoin: miter"/>
   </g>
   <g id="patch_42">
    <path d="M 616.815585 359.517187 
L 616.815585 26.877187 
L 585.042211 26.877187 
L 585.042211 359.517187 
z
" clip-path="url(#p6eb5a6b2e9)" style="fill: #add8e6; stroke: #add8e6; stroke-linejoin: miter"/>
   </g>
   <g id="patch_43">
    <path d="M 619.943512 359.517187 
L 619.943512 26.877187 
L 619.778113 26.877187 
L 619.778113 359.517187 
z
" clip-path="url(#p6eb5a6b2e9)" style="fill: #add8e6; stroke: #add8e6; stroke-linejoin: miter"/>
   </g>
   <g id="patch_44">
    <path d="M 661.527775 359.517187 
L 661.527775 26.877187 
L 662.469921 26.877187 
L 662.469921 359.517187 
z
" clip-path="url(#p6eb5a6b2e9)" style="fill: #add8e6; stroke: #add8e6; stroke-linejoin: miter"/>
   </g>
   <g id="patch_45">
    <path d="M 713.105073 359.517187 
L 713.105073 26.877187 
L 709.581444 26.877187 
L 709.581444 359.517187 
z
" clip-path="url(#p6eb5a6b2e9)" style="fill: #add8e6; stroke: #add8e6; stroke-linejoin: miter"/>
   </g>
   <g id="patch_46">
    <path d="M 759.649214 359.517187 
L 759.649214 26.877187 
L 759.312135 26.877187 
L 759.312135 359.517187 
z
" clip-path="url(#p6eb5a6b2e9)" style="fill: #add8e6; stroke: #add8e6; stroke-linejoin: miter"/>
   </g>
   <g id="patch_47">
    <path d="M 761.361828 359.517187 
L 761.361828 26.877187 
L 761.767998 26.877187 
L 761.767998 359.517187 
z
" clip-path="url(#p6eb5a6b2e9)" style="fill: #add8e6; stroke: #add8e6; stroke-linejoin: miter"/>
   </g>
   <g id="patch_48">
    <path d="M 776.926091 359.517187 
L 776.926091 26.877187 
L 777.585594 26.877187 
L 777.585594 359.517187 
z
" clip-path="url(#p6eb5a6b2e9)" style="fill: #add8e6; stroke: #add8e6; stroke-linejoin: miter"/>
   </g>
   <g id="patch_49">
    <path d="M 779.101404 359.517187 
L 779.101404 26.877187 
L 778.724545 26.877187 
L 778.724545 359.517187 
z
" clip-path="url(#p6eb5a6b2e9)" style="fill: #add8e6; stroke: #add8e6; stroke-linejoin: miter"/>
   </g>
   <g id="patch_50">
    <path d="M 911.267838 359.517187 
L 911.267838 26.877187 
L 877.827911 26.877187 
L 877.827911 359.517187 
z
" clip-path="url(#p6eb5a6b2e9)" style="fill: #add8e6; stroke: #add8e6; stroke-linejoin: miter"/>
   </g>
   <g id="patch_51">
    <path d="M 878.820305 359.517187 
L 878.820305 26.877187 
L 878.816118 26.877187 
L 878.816118 359.517187 
z
" clip-path="url(#p6eb5a6b2e9)" style="fill: #add8e6; stroke: #add8e6; stroke-linejoin: miter"/>
   </g>
   <g id="patch_52">
    <path d="M 899.514035 359.517187 
L 899.514035 26.877187 
L 884.345472 26.877187 
L 884.345472 359.517187 
z
" clip-path="url(#p6eb5a6b2e9)" style="fill: #add8e6; stroke: #add8e6; stroke-linejoin: miter"/>
   </g>
   <g id="patch_53">
    <path d="M 886.673622 359.517187 
L 886.673622 26.877187 
L 887.115384 26.877187 
L 887.115384 359.517187 
z
" clip-path="url(#p6eb5a6b2e9)" style="fill: #add8e6; stroke: #add8e6; stroke-linejoin: miter"/>
   </g>
   <g id="patch_54">
    <path d="M 938.454005 359.517187 
L 938.454005 26.877187 
L 939.316593 26.877187 
L 939.316593 359.517187 
z
" clip-path="url(#p6eb5a6b2e9)" style="fill: #add8e6; stroke: #add8e6; stroke-linejoin: miter"/>
   </g>
   <g id="patch_55">
    <path d="M 982.806085 359.517187 
L 982.806085 26.877187 
L 983.034294 26.877187 
L 983.034294 359.517187 
z
" clip-path="url(#p6eb5a6b2e9)" style="fill: #add8e6; stroke: #add8e6; stroke-linejoin: miter"/>
   </g>
   <g id="patch_56">
    <path d="M 985.132141 359.517187 
L 985.132141 26.877187 
L 985.506906 26.877187 
L 985.506906 359.517187 
z
" clip-path="url(#p6eb5a6b2e9)" style="fill: #add8e6; stroke: #add8e6; stroke-linejoin: miter"/>
   </g>
   <g id="patch_57">
    <path d="M 986.170596 359.517187 
L 986.170596 26.877187 
L 986.687729 26.877187 
L 986.687729 359.517187 
z
" clip-path="url(#p6eb5a6b2e9)" style="fill: #add8e6; stroke: #add8e6; stroke-linejoin: miter"/>
   </g>
   <g id="patch_58">
    <path d="M 991.655983 359.517187 
L 991.655983 26.877187 
L 990.881329 26.877187 
L 990.881329 359.517187 
z
" clip-path="url(#p6eb5a6b2e9)" style="fill: #add8e6; stroke: #add8e6; stroke-linejoin: miter"/>
   </g>
   <g id="patch_59">
    <path d="M 1058.200852 359.517187 
L 1058.200852 26.877187 
L 1028.611165 26.877187 
L 1028.611165 359.517187 
z
" clip-path="url(#p6eb5a6b2e9)" style="fill: #add8e6; stroke: #add8e6; stroke-linejoin: miter"/>
   </g>
   <g id="patch_60">
    <path d="M 1052.893426 359.517187 
L 1052.893426 26.877187 
L 1053.940256 26.877187 
L 1053.940256 359.517187 
z
" clip-path="url(#p6eb5a6b2e9)" style="fill: #add8e6; stroke: #add8e6; stroke-linejoin: miter"/>
   </g>
   <g id="patch_61">
    <path d="M 1086.833738 359.517187 
L 1086.833738 26.877187 
L 1086.609716 26.877187 
L 1086.609716 359.517187 
z
" clip-path="url(#p6eb5a6b2e9)" style="fill: #add8e6; stroke: #add8e6; stroke-linejoin: miter"/>
   </g>
   <g id="patch_62">
    <path d="M 1092.484524 359.517187 
L 1092.484524 26.877187 
L 1091.927611 26.877187 
L 1091.927611 359.517187 
z
" clip-path="url(#p6eb5a6b2e9)" style="fill: #add8e6; stroke: #add8e6; stroke-linejoin: miter"/>
   </g>
   <g id="patch_63">
    <path d="M 99.962273 359.517187 
L 99.962273 26.877187 
L 125.086185 26.877187 
L 125.086185 359.517187 
z
" clip-path="url(#p6eb5a6b2e9)" style="fill: #808080; opacity: 0.4; stroke: #808080; stroke-linejoin: miter"/>
   </g>
   <g id="patch_64">
    <path d="M 577.316608 359.517187 
L 577.316608 26.877187 
L 1029.54703 26.877187 
L 1029.54703 359.517187 
z
" clip-path="url(#p6eb5a6b2e9)" style="fill: #808080; opacity: 0.4; stroke: #808080; stroke-linejoin: miter"/>
   </g>
   <g id="matplotlib.axis_1">
    <g id="xtick_1">
     <g id="line2d_1">
      <defs>
       <path id="m708e0a528c" d="M 0 0 
L 0 3.5 
" style="stroke: #000000; stroke-width: 0.8"/>
      </defs>
      <g>
       <use xlink:href="#m708e0a528c" x="80.072509" y="359.517187" style="stroke: #000000; stroke-width: 0.8"/>
      </g>
     </g>
     <g id="text_1">
      <!-- 12-19 06 -->
      <g transform="translate(57.59204 374.115625) scale(0.1 -0.1)">
       <defs>
        <path id="DejaVuSans-31" d="M 794 531 
L 1825 531 
L 1825 4091 
L 703 3866 
L 703 4441 
L 1819 4666 
L 2450 4666 
L 2450 531 
L 3481 531 
L 3481 0 
L 794 0 
L 794 531 
z
" transform="scale(0.015625)"/>
        <path id="DejaVuSans-32" d="M 1228 531 
L 3431 531 
L 3431 0 
L 469 0 
L 469 531 
Q 828 903 1448 1529 
Q 2069 2156 2228 2338 
Q 2531 2678 2651 2914 
Q 2772 3150 2772 3378 
Q 2772 3750 2511 3984 
Q 2250 4219 1831 4219 
Q 1534 4219 1204 4116 
Q 875 4013 500 3803 
L 500 4441 
Q 881 4594 1212 4672 
Q 1544 4750 1819 4750 
Q 2544 4750 2975 4387 
Q 3406 4025 3406 3419 
Q 3406 3131 3298 2873 
Q 3191 2616 2906 2266 
Q 2828 2175 2409 1742 
Q 1991 1309 1228 531 
z
" transform="scale(0.015625)"/>
        <path id="DejaVuSans-2d" d="M 313 2009 
L 1997 2009 
L 1997 1497 
L 313 1497 
L 313 2009 
z
" transform="scale(0.015625)"/>
        <path id="DejaVuSans-39" d="M 703 97 
L 703 672 
Q 941 559 1184 500 
Q 1428 441 1663 441 
Q 2288 441 2617 861 
Q 2947 1281 2994 2138 
Q 2813 1869 2534 1725 
Q 2256 1581 1919 1581 
Q 1219 1581 811 2004 
Q 403 2428 403 3163 
Q 403 3881 828 4315 
Q 1253 4750 1959 4750 
Q 2769 4750 3195 4129 
Q 3622 3509 3622 2328 
Q 3622 1225 3098 567 
Q 2575 -91 1691 -91 
Q 1453 -91 1209 -44 
Q 966 3 703 97 
z
M 1959 2075 
Q 2384 2075 2632 2365 
Q 2881 2656 2881 3163 
Q 2881 3666 2632 3958 
Q 2384 4250 1959 4250 
Q 1534 4250 1286 3958 
Q 1038 3666 1038 3163 
Q 1038 2656 1286 2365 
Q 1534 2075 1959 2075 
z
" transform="scale(0.015625)"/>
        <path id="DejaVuSans-20" transform="scale(0.015625)"/>
        <path id="DejaVuSans-30" d="M 2034 4250 
Q 1547 4250 1301 3770 
Q 1056 3291 1056 2328 
Q 1056 1369 1301 889 
Q 1547 409 2034 409 
Q 2525 409 2770 889 
Q 3016 1369 3016 2328 
Q 3016 3291 2770 3770 
Q 2525 4250 2034 4250 
z
M 2034 4750 
Q 2819 4750 3233 4129 
Q 3647 3509 3647 2328 
Q 3647 1150 3233 529 
Q 2819 -91 2034 -91 
Q 1250 -91 836 529 
Q 422 1150 422 2328 
Q 422 3509 836 4129 
Q 1250 4750 2034 4750 
z
" transform="scale(0.015625)"/>
        <path id="DejaVuSans-36" d="M 2113 2584 
Q 1688 2584 1439 2293 
Q 1191 2003 1191 1497 
Q 1191 994 1439 701 
Q 1688 409 2113 409 
Q 2538 409 2786 701 
Q 3034 994 3034 1497 
Q 3034 2003 2786 2293 
Q 2538 2584 2113 2584 
z
M 3366 4563 
L 3366 3988 
Q 3128 4100 2886 4159 
Q 2644 4219 2406 4219 
Q 1781 4219 1451 3797 
Q 1122 3375 1075 2522 
Q 1259 2794 1537 2939 
Q 1816 3084 2150 3084 
Q 2853 3084 3261 2657 
Q 3669 2231 3669 1497 
Q 3669 778 3244 343 
Q 2819 -91 2113 -91 
Q 1303 -91 875 529 
Q 447 1150 447 2328 
Q 447 3434 972 4092 
Q 1497 4750 2381 4750 
Q 2619 4750 2861 4703 
Q 3103 4656 3366 4563 
z
" transform="scale(0.015625)"/>
       </defs>
       <use xlink:href="#DejaVuSans-31"/>
       <use xlink:href="#DejaVuSans-32" x="63.623047"/>
       <use xlink:href="#DejaVuSans-2d" x="127.246094"/>
       <use xlink:href="#DejaVuSans-31" x="163.330078"/>
       <use xlink:href="#DejaVuSans-39" x="226.953125"/>
       <use xlink:href="#DejaVuSans-20" x="290.576172"/>
       <use xlink:href="#DejaVuSans-30" x="322.363281"/>
       <use xlink:href="#DejaVuSans-36" x="385.986328"/>
      </g>
     </g>
    </g>
    <g id="xtick_2">
     <g id="line2d_2">
      <g>
       <use xlink:href="#m708e0a528c" x="193.130114" y="359.517187" style="stroke: #000000; stroke-width: 0.8"/>
      </g>
     </g>
     <g id="text_2">
      <!-- 12-19 09 -->
      <g transform="translate(170.649646 374.115625) scale(0.1 -0.1)">
       <use xlink:href="#DejaVuSans-31"/>
       <use xlink:href="#DejaVuSans-32" x="63.623047"/>
       <use xlink:href="#DejaVuSans-2d" x="127.246094"/>
       <use xlink:href="#DejaVuSans-31" x="163.330078"/>
       <use xlink:href="#DejaVuSans-39" x="226.953125"/>
       <use xlink:href="#DejaVuSans-20" x="290.576172"/>
       <use xlink:href="#DejaVuSans-30" x="322.363281"/>
       <use xlink:href="#DejaVuSans-39" x="385.986328"/>
      </g>
     </g>
    </g>
    <g id="xtick_3">
     <g id="line2d_3">
      <g>
       <use xlink:href="#m708e0a528c" x="306.18772" y="359.517187" style="stroke: #000000; stroke-width: 0.8"/>
      </g>
     </g>
     <g id="text_3">
      <!-- 12-19 12 -->
      <g transform="translate(283.707251 374.115625) scale(0.1 -0.1)">
       <use xlink:href="#DejaVuSans-31"/>
       <use xlink:href="#DejaVuSans-32" x="63.623047"/>
       <use xlink:href="#DejaVuSans-2d" x="127.246094"/>
       <use xlink:href="#DejaVuSans-31" x="163.330078"/>
       <use xlink:href="#DejaVuSans-39" x="226.953125"/>
       <use xlink:href="#DejaVuSans-20" x="290.576172"/>
       <use xlink:href="#DejaVuSans-31" x="322.363281"/>
       <use xlink:href="#DejaVuSans-32" x="385.986328"/>
      </g>
     </g>
    </g>
    <g id="xtick_4">
     <g id="line2d_4">
      <g>
       <use xlink:href="#m708e0a528c" x="419.245326" y="359.517187" style="stroke: #000000; stroke-width: 0.8"/>
      </g>
     </g>
     <g id="text_4">
      <!-- 12-19 15 -->
      <g transform="translate(396.764857 374.115625) scale(0.1 -0.1)">
       <defs>
        <path id="DejaVuSans-35" d="M 691 4666 
L 3169 4666 
L 3169 4134 
L 1269 4134 
L 1269 2991 
Q 1406 3038 1543 3061 
Q 1681 3084 1819 3084 
Q 2600 3084 3056 2656 
Q 3513 2228 3513 1497 
Q 3513 744 3044 326 
Q 2575 -91 1722 -91 
Q 1428 -91 1123 -41 
Q 819 9 494 109 
L 494 744 
Q 775 591 1075 516 
Q 1375 441 1709 441 
Q 2250 441 2565 725 
Q 2881 1009 2881 1497 
Q 2881 1984 2565 2268 
Q 2250 2553 1709 2553 
Q 1456 2553 1204 2497 
Q 953 2441 691 2322 
L 691 4666 
z
" transform="scale(0.015625)"/>
       </defs>
       <use xlink:href="#DejaVuSans-31"/>
       <use xlink:href="#DejaVuSans-32" x="63.623047"/>
       <use xlink:href="#DejaVuSans-2d" x="127.246094"/>
       <use xlink:href="#DejaVuSans-31" x="163.330078"/>
       <use xlink:href="#DejaVuSans-39" x="226.953125"/>
       <use xlink:href="#DejaVuSans-20" x="290.576172"/>
       <use xlink:href="#DejaVuSans-31" x="322.363281"/>
       <use xlink:href="#DejaVuSans-35" x="385.986328"/>
      </g>
     </g>
    </g>
    <g id="xtick_5">
     <g id="line2d_5">
      <g>
       <use xlink:href="#m708e0a528c" x="532.302931" y="359.517187" style="stroke: #000000; stroke-width: 0.8"/>
      </g>
     </g>
     <g id="text_5">
      <!-- 12-19 18 -->
      <g transform="translate(509.822463 374.115625) scale(0.1 -0.1)">
       <defs>
        <path id="DejaVuSans-38" d="M 2034 2216 
Q 1584 2216 1326 1975 
Q 1069 1734 1069 1313 
Q 1069 891 1326 650 
Q 1584 409 2034 409 
Q 2484 409 2743 651 
Q 3003 894 3003 1313 
Q 3003 1734 2745 1975 
Q 2488 2216 2034 2216 
z
M 1403 2484 
Q 997 2584 770 2862 
Q 544 3141 544 3541 
Q 544 4100 942 4425 
Q 1341 4750 2034 4750 
Q 2731 4750 3128 4425 
Q 3525 4100 3525 3541 
Q 3525 3141 3298 2862 
Q 3072 2584 2669 2484 
Q 3125 2378 3379 2068 
Q 3634 1759 3634 1313 
Q 3634 634 3220 271 
Q 2806 -91 2034 -91 
Q 1263 -91 848 271 
Q 434 634 434 1313 
Q 434 1759 690 2068 
Q 947 2378 1403 2484 
z
M 1172 3481 
Q 1172 3119 1398 2916 
Q 1625 2713 2034 2713 
Q 2441 2713 2670 2916 
Q 2900 3119 2900 3481 
Q 2900 3844 2670 4047 
Q 2441 4250 2034 4250 
Q 1625 4250 1398 4047 
Q 1172 3844 1172 3481 
z
" transform="scale(0.015625)"/>
       </defs>
       <use xlink:href="#DejaVuSans-31"/>
       <use xlink:href="#DejaVuSans-32" x="63.623047"/>
       <use xlink:href="#DejaVuSans-2d" x="127.246094"/>
       <use xlink:href="#DejaVuSans-31" x="163.330078"/>
       <use xlink:href="#DejaVuSans-39" x="226.953125"/>
       <use xlink:href="#DejaVuSans-20" x="290.576172"/>
       <use xlink:href="#DejaVuSans-31" x="322.363281"/>
       <use xlink:href="#DejaVuSans-38" x="385.986328"/>
      </g>
     </g>
    </g>
    <g id="xtick_6">
     <g id="line2d_6">
      <g>
       <use xlink:href="#m708e0a528c" x="645.360537" y="359.517187" style="stroke: #000000; stroke-width: 0.8"/>
      </g>
     </g>
     <g id="text_6">
      <!-- 12-19 21 -->
      <g transform="translate(622.880068 374.115625) scale(0.1 -0.1)">
       <use xlink:href="#DejaVuSans-31"/>
       <use xlink:href="#DejaVuSans-32" x="63.623047"/>
       <use xlink:href="#DejaVuSans-2d" x="127.246094"/>
       <use xlink:href="#DejaVuSans-31" x="163.330078"/>
       <use xlink:href="#DejaVuSans-39" x="226.953125"/>
       <use xlink:href="#DejaVuSans-20" x="290.576172"/>
       <use xlink:href="#DejaVuSans-32" x="322.363281"/>
       <use xlink:href="#DejaVuSans-31" x="385.986328"/>
      </g>
     </g>
    </g>
    <g id="xtick_7">
     <g id="line2d_7">
      <g>
       <use xlink:href="#m708e0a528c" x="758.418143" y="359.517187" style="stroke: #000000; stroke-width: 0.8"/>
      </g>
     </g>
     <g id="text_7">
      <!-- 12-20 00 -->
      <g transform="translate(735.937674 374.115625) scale(0.1 -0.1)">
       <use xlink:href="#DejaVuSans-31"/>
       <use xlink:href="#DejaVuSans-32" x="63.623047"/>
       <use xlink:href="#DejaVuSans-2d" x="127.246094"/>
       <use xlink:href="#DejaVuSans-32" x="163.330078"/>
       <use xlink:href="#DejaVuSans-30" x="226.953125"/>
       <use xlink:href="#DejaVuSans-20" x="290.576172"/>
       <use xlink:href="#DejaVuSans-30" x="322.363281"/>
       <use xlink:href="#DejaVuSans-30" x="385.986328"/>
      </g>
     </g>
    </g>
    <g id="xtick_8">
     <g id="line2d_8">
      <g>
       <use xlink:href="#m708e0a528c" x="871.475748" y="359.517187" style="stroke: #000000; stroke-width: 0.8"/>
      </g>
     </g>
     <g id="text_8">
      <!-- 12-20 03 -->
      <g transform="translate(848.99528 374.115625) scale(0.1 -0.1)">
       <defs>
        <path id="DejaVuSans-33" d="M 2597 2516 
Q 3050 2419 3304 2112 
Q 3559 1806 3559 1356 
Q 3559 666 3084 287 
Q 2609 -91 1734 -91 
Q 1441 -91 1130 -33 
Q 819 25 488 141 
L 488 750 
Q 750 597 1062 519 
Q 1375 441 1716 441 
Q 2309 441 2620 675 
Q 2931 909 2931 1356 
Q 2931 1769 2642 2001 
Q 2353 2234 1838 2234 
L 1294 2234 
L 1294 2753 
L 1863 2753 
Q 2328 2753 2575 2939 
Q 2822 3125 2822 3475 
Q 2822 3834 2567 4026 
Q 2313 4219 1838 4219 
Q 1578 4219 1281 4162 
Q 984 4106 628 3988 
L 628 4550 
Q 988 4650 1302 4700 
Q 1616 4750 1894 4750 
Q 2613 4750 3031 4423 
Q 3450 4097 3450 3541 
Q 3450 3153 3228 2886 
Q 3006 2619 2597 2516 
z
" transform="scale(0.015625)"/>
       </defs>
       <use xlink:href="#DejaVuSans-31"/>
       <use xlink:href="#DejaVuSans-32" x="63.623047"/>
       <use xlink:href="#DejaVuSans-2d" x="127.246094"/>
       <use xlink:href="#DejaVuSans-32" x="163.330078"/>
       <use xlink:href="#DejaVuSans-30" x="226.953125"/>
       <use xlink:href="#DejaVuSans-20" x="290.576172"/>
       <use xlink:href="#DejaVuSans-30" x="322.363281"/>
       <use xlink:href="#DejaVuSans-33" x="385.986328"/>
      </g>
     </g>
    </g>
    <g id="xtick_9">
     <g id="line2d_9">
      <g>
       <use xlink:href="#m708e0a528c" x="984.533354" y="359.517187" style="stroke: #000000; stroke-width: 0.8"/>
      </g>
     </g>
     <g id="text_9">
      <!-- 12-20 06 -->
      <g transform="translate(962.052885 374.115625) scale(0.1 -0.1)">
       <use xlink:href="#DejaVuSans-31"/>
       <use xlink:href="#DejaVuSans-32" x="63.623047"/>
       <use xlink:href="#DejaVuSans-2d" x="127.246094"/>
       <use xlink:href="#DejaVuSans-32" x="163.330078"/>
       <use xlink:href="#DejaVuSans-30" x="226.953125"/>
       <use xlink:href="#DejaVuSans-20" x="290.576172"/>
       <use xlink:href="#DejaVuSans-30" x="322.363281"/>
       <use xlink:href="#DejaVuSans-36" x="385.986328"/>
      </g>
     </g>
    </g>
    <g id="xtick_10">
     <g id="line2d_10">
      <g>
       <use xlink:href="#m708e0a528c" x="1097.59096" y="359.517187" style="stroke: #000000; stroke-width: 0.8"/>
      </g>
     </g>
     <g id="text_10">
      <!-- 12-20 09 -->
      <g transform="translate(1075.110491 374.115625) scale(0.1 -0.1)">
       <use xlink:href="#DejaVuSans-31"/>
       <use xlink:href="#DejaVuSans-32" x="63.623047"/>
       <use xlink:href="#DejaVuSans-2d" x="127.246094"/>
       <use xlink:href="#DejaVuSans-32" x="163.330078"/>
       <use xlink:href="#DejaVuSans-30" x="226.953125"/>
       <use xlink:href="#DejaVuSans-20" x="290.576172"/>
       <use xlink:href="#DejaVuSans-30" x="322.363281"/>
       <use xlink:href="#DejaVuSans-39" x="385.986328"/>
      </g>
     </g>
    </g>
    <g id="text_11">
     <!-- Time -->
     <g transform="translate(592.554688 389.313437) scale(0.12 -0.12)">
      <defs>
       <path id="DejaVuSans-54" d="M -19 4666 
L 3928 4666 
L 3928 4134 
L 2272 4134 
L 2272 0 
L 1638 0 
L 1638 4134 
L -19 4134 
L -19 4666 
z
" transform="scale(0.015625)"/>
       <path id="DejaVuSans-69" d="M 603 3500 
L 1178 3500 
L 1178 0 
L 603 0 
L 603 3500 
z
M 603 4863 
L 1178 4863 
L 1178 4134 
L 603 4134 
L 603 4863 
z
" transform="scale(0.015625)"/>
       <path id="DejaVuSans-6d" d="M 3328 2828 
Q 3544 3216 3844 3400 
Q 4144 3584 4550 3584 
Q 5097 3584 5394 3201 
Q 5691 2819 5691 2113 
L 5691 0 
L 5113 0 
L 5113 2094 
Q 5113 2597 4934 2840 
Q 4756 3084 4391 3084 
Q 3944 3084 3684 2787 
Q 3425 2491 3425 1978 
L 3425 0 
L 2847 0 
L 2847 2094 
Q 2847 2600 2669 2842 
Q 2491 3084 2119 3084 
Q 1678 3084 1418 2786 
Q 1159 2488 1159 1978 
L 1159 0 
L 581 0 
L 581 3500 
L 1159 3500 
L 1159 2956 
Q 1356 3278 1631 3431 
Q 1906 3584 2284 3584 
Q 2666 3584 2933 3390 
Q 3200 3197 3328 2828 
z
" transform="scale(0.015625)"/>
       <path id="DejaVuSans-65" d="M 3597 1894 
L 3597 1613 
L 953 1613 
Q 991 1019 1311 708 
Q 1631 397 2203 397 
Q 2534 397 2845 478 
Q 3156 559 3463 722 
L 3463 178 
Q 3153 47 2828 -22 
Q 2503 -91 2169 -91 
Q 1331 -91 842 396 
Q 353 884 353 1716 
Q 353 2575 817 3079 
Q 1281 3584 2069 3584 
Q 2775 3584 3186 3129 
Q 3597 2675 3597 1894 
z
M 3022 2063 
Q 3016 2534 2758 2815 
Q 2500 3097 2075 3097 
Q 1594 3097 1305 2825 
Q 1016 2553 972 2059 
L 3022 2063 
z
" transform="scale(0.015625)"/>
      </defs>
      <use xlink:href="#DejaVuSans-54"/>
      <use xlink:href="#DejaVuSans-69" x="57.958984"/>
      <use xlink:href="#DejaVuSans-6d" x="85.742188"/>
      <use xlink:href="#DejaVuSans-65" x="183.154297"/>
     </g>
    </g>
   </g>
   <g id="matplotlib.axis_2">
    <g id="ytick_1">
     <g id="line2d_11">
      <defs>
       <path id="ma66b0f8b16" d="M 0 0 
L -3.5 0 
" style="stroke: #000000; stroke-width: 0.8"/>
      </defs>
      <g>
       <use xlink:href="#ma66b0f8b16" x="49.235" y="344.397187" style="stroke: #000000; stroke-width: 0.8"/>
      </g>
     </g>
     <g id="text_12">
      <!-- 0 -->
      <g transform="translate(35.8725 348.196406) scale(0.1 -0.1)">
       <use xlink:href="#DejaVuSans-30"/>
      </g>
     </g>
    </g>
    <g id="ytick_2">
     <g id="line2d_12">
      <g>
       <use xlink:href="#ma66b0f8b16" x="49.235" y="288.397187" style="stroke: #000000; stroke-width: 0.8"/>
      </g>
     </g>
     <g id="text_13">
      <!-- 50 -->
      <g transform="translate(29.51 292.196406) scale(0.1 -0.1)">
       <use xlink:href="#DejaVuSans-35"/>
       <use xlink:href="#DejaVuSans-30" x="63.623047"/>
      </g>
     </g>
    </g>
    <g id="ytick_3">
     <g id="line2d_13">
      <g>
       <use xlink:href="#ma66b0f8b16" x="49.235" y="232.397187" style="stroke: #000000; stroke-width: 0.8"/>
      </g>
     </g>
     <g id="text_14">
      <!-- 100 -->
      <g transform="translate(23.1475 236.196406) scale(0.1 -0.1)">
       <use xlink:href="#DejaVuSans-31"/>
       <use xlink:href="#DejaVuSans-30" x="63.623047"/>
       <use xlink:href="#DejaVuSans-30" x="127.246094"/>
      </g>
     </g>
    </g>
    <g id="ytick_4">
     <g id="line2d_14">
      <g>
       <use xlink:href="#ma66b0f8b16" x="49.235" y="176.397187" style="stroke: #000000; stroke-width: 0.8"/>
      </g>
     </g>
     <g id="text_15">
      <!-- 150 -->
      <g transform="translate(23.1475 180.196406) scale(0.1 -0.1)">
       <use xlink:href="#DejaVuSans-31"/>
       <use xlink:href="#DejaVuSans-35" x="63.623047"/>
       <use xlink:href="#DejaVuSans-30" x="127.246094"/>
      </g>
     </g>
    </g>
    <g id="ytick_5">
     <g id="line2d_15">
      <g>
       <use xlink:href="#ma66b0f8b16" x="49.235" y="120.397187" style="stroke: #000000; stroke-width: 0.8"/>
      </g>
     </g>
     <g id="text_16">
      <!-- 200 -->
      <g transform="translate(23.1475 124.196406) scale(0.1 -0.1)">
       <use xlink:href="#DejaVuSans-32"/>
       <use xlink:href="#DejaVuSans-30" x="63.623047"/>
       <use xlink:href="#DejaVuSans-30" x="127.246094"/>
      </g>
     </g>
    </g>
    <g id="ytick_6">
     <g id="line2d_16">
      <g>
       <use xlink:href="#ma66b0f8b16" x="49.235" y="64.397187" style="stroke: #000000; stroke-width: 0.8"/>
      </g>
     </g>
     <g id="text_17">
      <!-- 250 -->
      <g transform="translate(23.1475 68.196406) scale(0.1 -0.1)">
       <use xlink:href="#DejaVuSans-32"/>
       <use xlink:href="#DejaVuSans-35" x="63.623047"/>
       <use xlink:href="#DejaVuSans-30" x="127.246094"/>
      </g>
     </g>
    </g>
    <g id="text_18">
     <!-- Pellet_Count -->
     <g transform="translate(16.318125 230.485312) rotate(-90) scale(0.12 -0.12)">
      <defs>
       <path id="DejaVuSans-50" d="M 1259 4147 
L 1259 2394 
L 2053 2394 
Q 2494 2394 2734 2622 
Q 2975 2850 2975 3272 
Q 2975 3691 2734 3919 
Q 2494 4147 2053 4147 
L 1259 4147 
z
M 628 4666 
L 2053 4666 
Q 2838 4666 3239 4311 
Q 3641 3956 3641 3272 
Q 3641 2581 3239 2228 
Q 2838 1875 2053 1875 
L 1259 1875 
L 1259 0 
L 628 0 
L 628 4666 
z
" transform="scale(0.015625)"/>
       <path id="DejaVuSans-6c" d="M 603 4863 
L 1178 4863 
L 1178 0 
L 603 0 
L 603 4863 
z
" transform="scale(0.015625)"/>
       <path id="DejaVuSans-74" d="M 1172 4494 
L 1172 3500 
L 2356 3500 
L 2356 3053 
L 1172 3053 
L 1172 1153 
Q 1172 725 1289 603 
Q 1406 481 1766 481 
L 2356 481 
L 2356 0 
L 1766 0 
Q 1100 0 847 248 
Q 594 497 594 1153 
L 594 3053 
L 172 3053 
L 172 3500 
L 594 3500 
L 594 4494 
L 1172 4494 
z
" transform="scale(0.015625)"/>
       <path id="DejaVuSans-5f" d="M 3263 -1063 
L 3263 -1509 
L -63 -1509 
L -63 -1063 
L 3263 -1063 
z
" transform="scale(0.015625)"/>
       <path id="DejaVuSans-43" d="M 4122 4306 
L 4122 3641 
Q 3803 3938 3442 4084 
Q 3081 4231 2675 4231 
Q 1875 4231 1450 3742 
Q 1025 3253 1025 2328 
Q 1025 1406 1450 917 
Q 1875 428 2675 428 
Q 3081 428 3442 575 
Q 3803 722 4122 1019 
L 4122 359 
Q 3791 134 3420 21 
Q 3050 -91 2638 -91 
Q 1578 -91 968 557 
Q 359 1206 359 2328 
Q 359 3453 968 4101 
Q 1578 4750 2638 4750 
Q 3056 4750 3426 4639 
Q 3797 4528 4122 4306 
z
" transform="scale(0.015625)"/>
       <path id="DejaVuSans-6f" d="M 1959 3097 
Q 1497 3097 1228 2736 
Q 959 2375 959 1747 
Q 959 1119 1226 758 
Q 1494 397 1959 397 
Q 2419 397 2687 759 
Q 2956 1122 2956 1747 
Q 2956 2369 2687 2733 
Q 2419 3097 1959 3097 
z
M 1959 3584 
Q 2709 3584 3137 3096 
Q 3566 2609 3566 1747 
Q 3566 888 3137 398 
Q 2709 -91 1959 -91 
Q 1206 -91 779 398 
Q 353 888 353 1747 
Q 353 2609 779 3096 
Q 1206 3584 1959 3584 
z
" transform="scale(0.015625)"/>
       <path id="DejaVuSans-75" d="M 544 1381 
L 544 3500 
L 1119 3500 
L 1119 1403 
Q 1119 906 1312 657 
Q 1506 409 1894 409 
Q 2359 409 2629 706 
Q 2900 1003 2900 1516 
L 2900 3500 
L 3475 3500 
L 3475 0 
L 2900 0 
L 2900 538 
Q 2691 219 2414 64 
Q 2138 -91 1772 -91 
Q 1169 -91 856 284 
Q 544 659 544 1381 
z
M 1991 3584 
L 1991 3584 
z
" transform="scale(0.015625)"/>
       <path id="DejaVuSans-6e" d="M 3513 2113 
L 3513 0 
L 2938 0 
L 2938 2094 
Q 2938 2591 2744 2837 
Q 2550 3084 2163 3084 
Q 1697 3084 1428 2787 
Q 1159 2491 1159 1978 
L 1159 0 
L 581 0 
L 581 3500 
L 1159 3500 
L 1159 2956 
Q 1366 3272 1645 3428 
Q 1925 3584 2291 3584 
Q 2894 3584 3203 3211 
Q 3513 2838 3513 2113 
z
" transform="scale(0.015625)"/>
      </defs>
      <use xlink:href="#DejaVuSans-50"/>
      <use xlink:href="#DejaVuSans-65" x="56.677734"/>
      <use xlink:href="#DejaVuSans-6c" x="118.201172"/>
      <use xlink:href="#DejaVuSans-6c" x="145.984375"/>
      <use xlink:href="#DejaVuSans-65" x="173.767578"/>
      <use xlink:href="#DejaVuSans-74" x="235.291016"/>
      <use xlink:href="#DejaVuSans-5f" x="274.5"/>
      <use xlink:href="#DejaVuSans-43" x="324.5"/>
      <use xlink:href="#DejaVuSans-6f" x="394.324219"/>
      <use xlink:href="#DejaVuSans-75" x="455.505859"/>
      <use xlink:href="#DejaVuSans-6e" x="518.884766"/>
      <use xlink:href="#DejaVuSans-74" x="582.263672"/>
     </g>
    </g>
   </g>
   <g id="line2d_17">
    <path d="M 99.962273 344.397187 
L 113.372161 344.397187 
L 113.717615 343.277187 
L 114.146815 343.277187 
L 114.439927 342.157187 
L 114.73304 342.157187 
L 114.795849 341.037187 
L 117.06747 341.037187 
L 117.119811 339.917187 
L 119.757822 339.917187 
L 119.810163 338.797187 
L 125.557258 338.797187 
L 125.557258 338.797187 
L 125.777093 337.677187 
L 138.527478 337.677187 
L 138.642629 336.557187 
L 143.070719 336.557187 
L 143.342895 335.437187 
L 150.168224 335.437187 
L 151.005688 334.317187 
L 152.136264 334.317187 
L 152.136264 334.317187 
L 154.229923 333.197187 
L 154.31367 332.077187 
L 162.656902 332.077187 
L 162.887205 330.957187 
L 163.232659 330.957187 
L 163.274532 329.837187 
L 167.734026 329.837187 
L 168.173695 328.717187 
L 174.119687 328.717187 
L 174.234839 327.597187 
L 174.894341 327.597187 
L 175.051366 326.477187 
L 175.867893 326.477187 
L 175.951639 325.357187 
L 177.218303 325.357187 
L 177.385796 324.237187 
L 183.792394 324.237187 
L 183.865672 323.117188 
L 184.200657 323.117188 
L 184.232062 321.997187 
L 189.016074 321.997187 
L 189.016074 321.997187 
L 189.068415 320.877187 
L 193.297607 320.877187 
L 193.423227 319.757187 
L 195.024876 319.757187 
L 195.045813 318.637187 
L 198.615502 318.637187 
L 198.741122 317.517187 
L 205.074441 317.517187 
L 205.158187 316.397187 
L 210.497019 316.397187 
L 210.528424 315.277187 
L 210.947156 315.277187 
L 210.989029 314.157187 
L 219.269452 314.157187 
L 219.290388 313.037187 
L 224.220956 313.037187 
L 224.252361 311.917187 
L 229.067777 311.917187 
L 229.161992 310.797187 
L 234.375204 310.797187 
L 234.417077 309.677187 
L 239.117342 309.677187 
L 239.138279 308.557187 
L 243.576837 308.557187 
L 243.650115 307.437187 
L 246.38234 307.437187 
L 246.403277 306.317187 
L 249.355337 306.317187 
L 249.386742 305.197187 
L 250.674342 305.197187 
L 250.726684 304.077187 
L 251.626957 304.077187 
L 251.66883 302.957187 
L 252.118967 302.957187 
L 252.129435 301.837187 
L 254.610422 301.837187 
L 254.652295 300.717187 
L 255.133836 300.717187 
L 255.186178 299.597187 
L 256.89251 299.597187 
L 256.934384 298.477187 
L 260.76578 298.477187 
L 260.786717 297.357187 
L 262.336025 297.357187 
L 262.356961 296.237187 
L 263.058337 296.237187 
L 263.079274 295.117188 
L 264.356406 295.117188 
L 264.377343 293.997187 
L 267.842349 293.997187 
L 267.873754 292.877187 
L 269.098544 292.877187 
L 269.150886 291.757187 
L 271.370165 291.757187 
L 271.391101 290.637187 
L 273.338205 290.637187 
L 273.359141 289.517187 
L 273.652254 289.517187 
L 273.67319 288.397187 
L 274.468781 288.397187 
L 274.500186 287.277187 
L 275.013132 287.277187 
L 275.034069 286.157187 
L 280.8021 286.157187 
L 280.833505 285.037187 
L 286.716688 285.037187 
L 286.758561 283.917187 
L 287.700708 283.917187 
L 287.753049 282.797187 
L 288.391615 282.797187 
L 289.543128 281.677187 
L 289.815304 281.677187 
L 289.857177 280.557187 
L 290.160758 280.557187 
L 290.254972 279.437187 
L 292.065988 279.437187 
L 296.033472 278.317187 
L 297.865424 278.317187 
L 298.608673 277.197187 
L 300.461562 277.197187 
L 301.257152 276.077187 
L 302.356323 276.077187 
L 302.37726 274.957187 
L 304.491856 274.957187 
L 305.454939 273.837187 
L 305.748052 273.837187 
L 305.789925 272.717187 
L 307.935926 272.717187 
L 308.187165 271.597187 
L 310.730961 271.597187 
L 310.950795 270.477187 
L 316.027919 270.477187 
L 316.164007 269.357187 
L 316.457119 269.357187 
L 316.478056 268.237187 
L 316.708358 268.237187 
L 316.739763 267.117188 
L 317.179432 267.117188 
L 317.200368 265.997187 
L 320.665375 265.997187 
L 320.686311 264.877187 
L 322.340302 264.877187 
L 322.371707 263.757187 
L 327.836158 263.757187 
L 328.014119 262.637187 
L 334.075263 262.637187 
L 335.006941 261.517187 
L 336.85983 261.517187 
L 336.901703 260.397187 
L 337.058727 260.397187 
L 337.111069 259.277187 
L 341.612437 259.277187 
L 341.905549 258.157187 
L 345.286809 258.157187 
L 345.412428 257.037187 
L 350.060352 257.037187 
L 350.081289 255.917187 
L 350.322059 255.917187 
L 350.342996 254.797187 
L 355.713232 254.797187 
L 355.755106 253.677187 
L 357.827828 253.677187 
L 357.848765 252.557187 
L 359.439946 252.557187 
L 359.481819 251.437187 
L 361.659225 251.437187 
L 361.701098 250.317187 
L 366.286212 250.317187 
L 366.286212 250.317187 
L 366.35949 249.197187 
L 367.887862 249.197187 
L 367.908798 248.077187 
L 368.191442 248.077187 
L 368.20191 246.957187 
L 368.69392 246.957187 
L 368.725325 245.837187 
L 369.028906 245.837187 
L 369.049842 244.717187 
L 369.31155 244.717187 
L 369.31155 244.717187 
L 369.363891 243.597187 
L 369.625599 243.597187 
L 369.646535 242.477187 
L 369.960584 242.477187 
L 370.002457 241.357187 
L 370.473531 241.357187 
L 370.504936 240.237187 
L 373.697766 240.237187 
L 373.875727 239.117187 
L 376.576548 239.117187 
L 376.922002 237.997187 
L 377.110431 237.997187 
L 377.131368 236.877187 
L 379.402988 236.877187 
L 381.077916 235.757187 
L 381.339623 235.757187 
L 381.371028 234.637187 
L 381.716482 234.637187 
L 385.286171 233.517187 
L 389.358338 233.517187 
L 391.766047 232.397187 
L 394.466867 232.397187 
L 394.487804 231.277187 
L 394.739043 231.277187 
L 394.739043 231.277187 
L 394.833258 230.157187 
L 395.053092 230.157187 
L 395.074028 229.037187 
L 395.367141 229.037187 
L 395.367141 229.037187 
L 395.419482 227.917187 
L 398.308732 227.917187 
L 398.528566 226.797187 
L 400.056938 226.797187 
L 400.255835 225.677187 
L 400.433796 225.677187 
L 401.459689 224.557187 
L 406.777584 224.557187 
L 406.92414 223.437187 
L 412.074542 223.437187 
L 412.126884 222.317187 
L 413.634319 222.317187 
L 413.707597 221.197187 
L 416.031559 221.197187 
L 416.628252 220.077187 
L 417.046983 220.077187 
L 417.06792 218.957187 
L 417.936789 218.957187 
L 417.957725 217.837187 
L 418.198496 217.837187 
L 418.219433 216.717187 
L 418.575355 216.717187 
L 418.60676 215.597187 
L 418.962682 215.597187 
L 419.004555 214.477187 
L 422.35441 214.477187 
L 422.815015 213.357187 
L 423.087191 213.357187 
L 423.108127 212.237187 
L 424.175894 212.237187 
L 424.291045 211.117187 
L 429.786901 211.117187 
L 429.818306 209.997187 
L 431.346677 209.997187 
L 431.493233 208.877187 
L 449.142781 208.877187 
L 451.958753 207.757187 
L 452.618256 207.757187 
L 452.743876 205.517187 
L 456.659019 205.517187 
L 456.732297 204.397187 
L 457.894278 204.397187 
L 457.894278 204.397187 
L 457.946619 203.277187 
L 458.365351 203.277187 
L 458.386288 202.157187 
L 459.904191 202.157187 
L 459.935595 201.037187 
L 460.322922 201.037187 
L 460.364796 199.917187 
L 460.699781 199.917187 
L 460.720718 198.797187 
L 460.992893 198.797187 
L 461.01383 197.677187 
L 461.254601 197.677187 
L 461.275537 196.557187 
L 461.652396 196.557187 
L 461.673333 195.437187 
L 462.437518 195.437187 
L 462.573606 194.317187 
L 471.534468 194.317187 
L 471.565873 193.197187 
L 472.005542 193.197187 
L 472.026478 192.077187 
L 473.00003 192.077187 
L 473.020966 190.957187 
L 473.827025 190.957187 
L 474.078264 189.837187 
L 474.277162 189.837187 
L 474.308567 188.717187 
L 478.71572 188.717187 
L 479.814891 187.597187 
L 486.368045 187.597187 
L 486.535538 186.477187 
L 489.2887 186.477187 
L 489.529471 185.357187 
L 492.638555 185.357187 
L 492.659491 184.237187 
L 494.125053 184.237187 
L 494.365824 183.117187 
L 498.427523 183.117187 
L 498.574079 181.997187 
L 499.36967 181.997187 
L 499.463884 179.757187 
L 499.526694 179.757187 
L 499.558099 178.637187 
L 508.916756 178.637187 
L 511.240718 177.517187 
L 512.360826 177.517187 
L 512.392231 176.397187 
L 517.710126 176.397187 
L 518.045111 175.277187 
L 518.076516 174.157187 
L 519.489736 174.157187 
L 519.521141 173.037187 
L 520.065492 173.037187 
L 520.107366 171.917187 
L 521.049512 171.917187 
L 521.227473 170.797187 
L 522.326644 170.797187 
L 523.949231 169.677187 
L 527.989993 169.677187 
L 528.293574 168.557187 
L 530.167399 168.557187 
L 530.198804 167.437187 
L 530.565194 167.437187 
L 530.575662 166.317187 
L 538.405948 166.317187 
L 538.426885 165.197187 
L 547.230723 165.197187 
L 547.262128 164.077187 
L 548.130996 164.077187 
L 548.340362 162.957187 
L 550.727134 162.957187 
L 550.74807 161.837187 
L 553.155779 161.837187 
L 553.176715 160.717187 
L 553.564042 160.717187 
L 553.584979 159.597187 
L 556.076433 159.597187 
L 556.254394 158.477187 
L 556.547507 158.477187 
L 556.662658 157.357187 
L 560.912787 157.357187 
L 560.944191 156.237187 
L 561.394328 156.237187 
L 561.499011 153.997187 
L 565.058232 153.997187 
L 565.916632 152.877187 
L 567.895141 152.877187 
L 567.926545 151.757187 
L 568.586048 151.757187 
L 568.805882 150.637187 
L 581.284092 150.637187 
L 581.441117 149.517187 
L 583.963976 149.517187 
L 584.131469 147.277187 
L 589.187656 147.277187 
L 589.208593 146.157187 
L 590.004183 146.157187 
L 590.64275 145.037187 
L 593.155141 145.037187 
L 593.176077 143.917187 
L 598.054304 143.917187 
L 598.07524 142.797187 
L 607.580454 142.797187 
L 609.171635 141.677187 
L 609.192572 140.557187 
L 619.043239 140.557187 
L 619.064175 139.437187 
L 619.336351 139.437187 
L 619.357288 138.317187 
L 622.120918 138.317187 
L 622.351221 137.197187 
L 629.846521 137.197187 
L 638.221159 136.077187 
L 639.540164 136.077187 
L 639.550632 134.957187 
L 661.000172 134.957187 
L 661.031577 133.837187 
L 661.513119 133.837187 
L 661.523587 132.717187 
L 661.963256 132.717187 
L 661.973724 131.597187 
L 708.107508 131.597187 
L 708.212191 130.477187 
L 708.599518 130.477187 
L 708.620455 129.357187 
L 710.515216 129.357187 
L 710.536153 128.237187 
L 711.164251 128.237187 
L 711.185187 127.117187 
L 756.994454 127.117187 
L 757.036327 125.997187 
L 757.63302 125.997187 
L 757.664425 124.877187 
L 758.198308 124.877187 
L 758.229713 123.757187 
L 758.80547 123.757187 
L 758.815938 122.637187 
L 759.161392 122.637187 
L 759.192797 121.517187 
L 760.58508 121.517187 
L 760.595548 120.397187 
L 761.056153 120.397187 
L 761.07709 119.277187 
L 762.239071 119.277187 
L 762.260008 118.157187 
L 764.447882 118.157187 
L 764.468818 117.037187 
L 765.285345 117.037187 
L 765.306282 115.917187 
L 765.955316 115.917187 
L 765.99719 114.797187 
L 774.591661 114.797187 
L 774.623066 113.677187 
L 775.512871 113.677187 
L 775.544276 112.557187 
L 776.423613 112.557187 
L 776.44455 111.437187 
L 776.831877 111.437187 
L 776.842345 110.317187 
L 777.229672 110.317187 
L 777.24014 109.197187 
L 777.899643 109.197187 
L 777.951985 108.077187 
L 778.245097 108.077187 
L 778.266033 106.957187 
L 778.548677 106.957187 
L 778.580082 105.837187 
L 875.715409 105.837187 
L 875.89337 104.717187 
L 876.395848 104.717187 
L 876.416784 103.597187 
L 876.845985 103.597187 
L 876.866921 102.477187 
L 877.149565 102.477187 
L 877.170502 101.357187 
L 877.505487 101.357187 
L 877.526424 100.237187 
L 878.070775 100.237187 
L 878.091712 99.117187 
L 878.384824 99.117187 
L 878.395293 97.997187 
L 879.609615 97.997187 
L 879.630552 96.877187 
L 882.812914 96.877187 
L 883.095558 95.757187 
L 883.828339 95.757187 
L 883.849275 94.637187 
L 886.005744 94.637187 
L 886.026681 93.517187 
L 886.748993 93.517187 
L 886.76993 92.397187 
L 937.321335 92.397187 
L 937.342272 91.277187 
L 937.90756 91.277187 
L 937.938965 90.157187 
L 938.713619 90.157187 
L 938.745024 89.037187 
L 981.905811 89.037187 
L 981.926748 87.917187 
L 982.533909 87.917187 
L 982.575782 86.797187 
L 984.501949 86.797187 
L 984.522886 85.677187 
L 985.140515 85.677187 
L 985.161452 84.557187 
L 985.653462 84.557187 
L 985.674398 83.437187 
L 986.019852 83.437187 
L 986.040789 82.317187 
L 989.558136 82.317187 
L 989.579073 81.197187 
L 990.280449 81.197187 
L 990.385132 78.957187 
L 992.101933 78.957187 
L 992.112401 77.837187 
L 992.646284 77.837187 
L 992.667221 76.717187 
L 997.754813 76.717187 
L 997.775749 75.597187 
L 1000.246267 75.597187 
L 1000.267204 74.477187 
L 1022.805447 74.477187 
L 1022.826384 73.357187 
L 1025.663292 73.357187 
L 1025.872658 72.237187 
L 1026.825273 72.237187 
L 1026.877615 71.117187 
L 1028.217557 71.117187 
L 1028.228025 69.997187 
L 1028.845654 69.997187 
L 1028.866591 68.877187 
L 1030.845099 68.877187 
L 1030.876504 67.757187 
L 1031.870992 67.757187 
L 1031.88146 66.637187 
L 1036.340955 66.637187 
L 1037.900731 65.517187 
L 1051.226873 65.517187 
L 1051.237341 64.397187 
L 1051.73982 64.397187 
L 1051.771224 63.277187 
L 1052.263234 63.277187 
L 1052.284171 62.157187 
L 1052.671498 62.157187 
L 1052.681966 61.037187 
L 1053.079762 61.037187 
L 1053.121635 59.917187 
L 1053.488025 59.917187 
L 1053.51943 58.797187 
L 1082.537549 58.797187 
L 1082.558485 57.677187 
L 1083.500632 57.677187 
L 1083.5111 56.557187 
L 1085.594291 56.557187 
L 1085.594291 56.557187 
L 1085.646633 55.437187 
L 1086.243326 55.437187 
L 1086.264262 54.317187 
L 1090.817972 54.317187 
L 1090.870313 53.197187 
L 1091.19483 53.197187 
L 1091.268108 52.077187 
L 1091.571689 52.077187 
L 1091.582157 50.957187 
L 1091.81246 50.957187 
L 1092.157914 49.837187 
L 1103.725382 49.837187 
L 1104.008026 48.717187 
L 1104.793148 48.717187 
L 1104.814084 47.597187 
L 1105.285158 47.597187 
L 1105.295626 46.477187 
L 1109.231706 46.477187 
L 1109.252642 45.357187 
L 1109.933082 45.357187 
L 1109.954018 44.237187 
L 1112.686244 44.237187 
L 1112.70718 43.117187 
L 1114.486791 43.117187 
L 1114.507727 41.997187 
L 1114.507727 41.997187 
" clip-path="url(#p6eb5a6b2e9)" style="fill: none; stroke: #0000ff; stroke-width: 1.5; stroke-linecap: square"/>
   </g>
   <g id="patch_65">
    <path d="M 49.235 359.517187 
L 49.235 26.877187 
" style="fill: none; stroke: #000000; stroke-width: 0.8; stroke-linejoin: miter; stroke-linecap: square"/>
   </g>
   <g id="patch_66">
    <path d="M 1165.235 359.517187 
L 1165.235 26.877187 
" style="fill: none; stroke: #000000; stroke-width: 0.8; stroke-linejoin: miter; stroke-linecap: square"/>
   </g>
   <g id="patch_67">
    <path d="M 49.235 359.517187 
L 1165.235 359.517187 
" style="fill: none; stroke: #000000; stroke-width: 0.8; stroke-linejoin: miter; stroke-linecap: square"/>
   </g>
   <g id="patch_68">
    <path d="M 49.235 26.877187 
L 1165.235 26.877187 
" style="fill: none; stroke: #000000; stroke-width: 0.8; stroke-linejoin: miter; stroke-linecap: square"/>
   </g>
   <g id="text_19">
    <!-- Pellet Count and Cumulative Sum Over Time of Group female Mouse M81 -->
    <g transform="translate(276.669219 20.877187) scale(0.18 -0.18)">
     <defs>
      <path id="DejaVuSans-61" d="M 2194 1759 
Q 1497 1759 1228 1600 
Q 959 1441 959 1056 
Q 959 750 1161 570 
Q 1363 391 1709 391 
Q 2188 391 2477 730 
Q 2766 1069 2766 1631 
L 2766 1759 
L 2194 1759 
z
M 3341 1997 
L 3341 0 
L 2766 0 
L 2766 531 
Q 2569 213 2275 61 
Q 1981 -91 1556 -91 
Q 1019 -91 701 211 
Q 384 513 384 1019 
Q 384 1609 779 1909 
Q 1175 2209 1959 2209 
L 2766 2209 
L 2766 2266 
Q 2766 2663 2505 2880 
Q 2244 3097 1772 3097 
Q 1472 3097 1187 3025 
Q 903 2953 641 2809 
L 641 3341 
Q 956 3463 1253 3523 
Q 1550 3584 1831 3584 
Q 2591 3584 2966 3190 
Q 3341 2797 3341 1997 
z
" transform="scale(0.015625)"/>
      <path id="DejaVuSans-64" d="M 2906 2969 
L 2906 4863 
L 3481 4863 
L 3481 0 
L 2906 0 
L 2906 525 
Q 2725 213 2448 61 
Q 2172 -91 1784 -91 
Q 1150 -91 751 415 
Q 353 922 353 1747 
Q 353 2572 751 3078 
Q 1150 3584 1784 3584 
Q 2172 3584 2448 3432 
Q 2725 3281 2906 2969 
z
M 947 1747 
Q 947 1113 1208 752 
Q 1469 391 1925 391 
Q 2381 391 2643 752 
Q 2906 1113 2906 1747 
Q 2906 2381 2643 2742 
Q 2381 3103 1925 3103 
Q 1469 3103 1208 2742 
Q 947 2381 947 1747 
z
" transform="scale(0.015625)"/>
      <path id="DejaVuSans-76" d="M 191 3500 
L 800 3500 
L 1894 563 
L 2988 3500 
L 3597 3500 
L 2284 0 
L 1503 0 
L 191 3500 
z
" transform="scale(0.015625)"/>
      <path id="DejaVuSans-53" d="M 3425 4513 
L 3425 3897 
Q 3066 4069 2747 4153 
Q 2428 4238 2131 4238 
Q 1616 4238 1336 4038 
Q 1056 3838 1056 3469 
Q 1056 3159 1242 3001 
Q 1428 2844 1947 2747 
L 2328 2669 
Q 3034 2534 3370 2195 
Q 3706 1856 3706 1288 
Q 3706 609 3251 259 
Q 2797 -91 1919 -91 
Q 1588 -91 1214 -16 
Q 841 59 441 206 
L 441 856 
Q 825 641 1194 531 
Q 1563 422 1919 422 
Q 2459 422 2753 634 
Q 3047 847 3047 1241 
Q 3047 1584 2836 1778 
Q 2625 1972 2144 2069 
L 1759 2144 
Q 1053 2284 737 2584 
Q 422 2884 422 3419 
Q 422 4038 858 4394 
Q 1294 4750 2059 4750 
Q 2388 4750 2728 4690 
Q 3069 4631 3425 4513 
z
" transform="scale(0.015625)"/>
      <path id="DejaVuSans-4f" d="M 2522 4238 
Q 1834 4238 1429 3725 
Q 1025 3213 1025 2328 
Q 1025 1447 1429 934 
Q 1834 422 2522 422 
Q 3209 422 3611 934 
Q 4013 1447 4013 2328 
Q 4013 3213 3611 3725 
Q 3209 4238 2522 4238 
z
M 2522 4750 
Q 3503 4750 4090 4092 
Q 4678 3434 4678 2328 
Q 4678 1225 4090 567 
Q 3503 -91 2522 -91 
Q 1538 -91 948 565 
Q 359 1222 359 2328 
Q 359 3434 948 4092 
Q 1538 4750 2522 4750 
z
" transform="scale(0.015625)"/>
      <path id="DejaVuSans-72" d="M 2631 2963 
Q 2534 3019 2420 3045 
Q 2306 3072 2169 3072 
Q 1681 3072 1420 2755 
Q 1159 2438 1159 1844 
L 1159 0 
L 581 0 
L 581 3500 
L 1159 3500 
L 1159 2956 
Q 1341 3275 1631 3429 
Q 1922 3584 2338 3584 
Q 2397 3584 2469 3576 
Q 2541 3569 2628 3553 
L 2631 2963 
z
" transform="scale(0.015625)"/>
      <path id="DejaVuSans-66" d="M 2375 4863 
L 2375 4384 
L 1825 4384 
Q 1516 4384 1395 4259 
Q 1275 4134 1275 3809 
L 1275 3500 
L 2222 3500 
L 2222 3053 
L 1275 3053 
L 1275 0 
L 697 0 
L 697 3053 
L 147 3053 
L 147 3500 
L 697 3500 
L 697 3744 
Q 697 4328 969 4595 
Q 1241 4863 1831 4863 
L 2375 4863 
z
" transform="scale(0.015625)"/>
      <path id="DejaVuSans-47" d="M 3809 666 
L 3809 1919 
L 2778 1919 
L 2778 2438 
L 4434 2438 
L 4434 434 
Q 4069 175 3628 42 
Q 3188 -91 2688 -91 
Q 1594 -91 976 548 
Q 359 1188 359 2328 
Q 359 3472 976 4111 
Q 1594 4750 2688 4750 
Q 3144 4750 3555 4637 
Q 3966 4525 4313 4306 
L 4313 3634 
Q 3963 3931 3569 4081 
Q 3175 4231 2741 4231 
Q 1884 4231 1454 3753 
Q 1025 3275 1025 2328 
Q 1025 1384 1454 906 
Q 1884 428 2741 428 
Q 3075 428 3337 486 
Q 3600 544 3809 666 
z
" transform="scale(0.015625)"/>
      <path id="DejaVuSans-70" d="M 1159 525 
L 1159 -1331 
L 581 -1331 
L 581 3500 
L 1159 3500 
L 1159 2969 
Q 1341 3281 1617 3432 
Q 1894 3584 2278 3584 
Q 2916 3584 3314 3078 
Q 3713 2572 3713 1747 
Q 3713 922 3314 415 
Q 2916 -91 2278 -91 
Q 1894 -91 1617 61 
Q 1341 213 1159 525 
z
M 3116 1747 
Q 3116 2381 2855 2742 
Q 2594 3103 2138 3103 
Q 1681 3103 1420 2742 
Q 1159 2381 1159 1747 
Q 1159 1113 1420 752 
Q 1681 391 2138 391 
Q 2594 391 2855 752 
Q 3116 1113 3116 1747 
z
" transform="scale(0.015625)"/>
      <path id="DejaVuSans-4d" d="M 628 4666 
L 1569 4666 
L 2759 1491 
L 3956 4666 
L 4897 4666 
L 4897 0 
L 4281 0 
L 4281 4097 
L 3078 897 
L 2444 897 
L 1241 4097 
L 1241 0 
L 628 0 
L 628 4666 
z
" transform="scale(0.015625)"/>
      <path id="DejaVuSans-73" d="M 2834 3397 
L 2834 2853 
Q 2591 2978 2328 3040 
Q 2066 3103 1784 3103 
Q 1356 3103 1142 2972 
Q 928 2841 928 2578 
Q 928 2378 1081 2264 
Q 1234 2150 1697 2047 
L 1894 2003 
Q 2506 1872 2764 1633 
Q 3022 1394 3022 966 
Q 3022 478 2636 193 
Q 2250 -91 1575 -91 
Q 1294 -91 989 -36 
Q 684 19 347 128 
L 347 722 
Q 666 556 975 473 
Q 1284 391 1588 391 
Q 1994 391 2212 530 
Q 2431 669 2431 922 
Q 2431 1156 2273 1281 
Q 2116 1406 1581 1522 
L 1381 1569 
Q 847 1681 609 1914 
Q 372 2147 372 2553 
Q 372 3047 722 3315 
Q 1072 3584 1716 3584 
Q 2034 3584 2315 3537 
Q 2597 3491 2834 3397 
z
" transform="scale(0.015625)"/>
     </defs>
     <use xlink:href="#DejaVuSans-50"/>
     <use xlink:href="#DejaVuSans-65" x="56.677734"/>
     <use xlink:href="#DejaVuSans-6c" x="118.201172"/>
     <use xlink:href="#DejaVuSans-6c" x="145.984375"/>
     <use xlink:href="#DejaVuSans-65" x="173.767578"/>
     <use xlink:href="#DejaVuSans-74" x="235.291016"/>
     <use xlink:href="#DejaVuSans-20" x="274.5"/>
     <use xlink:href="#DejaVuSans-43" x="306.287109"/>
     <use xlink:href="#DejaVuSans-6f" x="376.111328"/>
     <use xlink:href="#DejaVuSans-75" x="437.292969"/>
     <use xlink:href="#DejaVuSans-6e" x="500.671875"/>
     <use xlink:href="#DejaVuSans-74" x="564.050781"/>
     <use xlink:href="#DejaVuSans-20" x="603.259766"/>
     <use xlink:href="#DejaVuSans-61" x="635.046875"/>
     <use xlink:href="#DejaVuSans-6e" x="696.326172"/>
     <use xlink:href="#DejaVuSans-64" x="759.705078"/>
     <use xlink:href="#DejaVuSans-20" x="823.181641"/>
     <use xlink:href="#DejaVuSans-43" x="854.96875"/>
     <use xlink:href="#DejaVuSans-75" x="924.792969"/>
     <use xlink:href="#DejaVuSans-6d" x="988.171875"/>
     <use xlink:href="#DejaVuSans-75" x="1085.583984"/>
     <use xlink:href="#DejaVuSans-6c" x="1148.962891"/>
     <use xlink:href="#DejaVuSans-61" x="1176.746094"/>
     <use xlink:href="#DejaVuSans-74" x="1238.025391"/>
     <use xlink:href="#DejaVuSans-69" x="1277.234375"/>
     <use xlink:href="#DejaVuSans-76" x="1305.017578"/>
     <use xlink:href="#DejaVuSans-65" x="1364.197266"/>
     <use xlink:href="#DejaVuSans-20" x="1425.720703"/>
     <use xlink:href="#DejaVuSans-53" x="1457.507812"/>
     <use xlink:href="#DejaVuSans-75" x="1520.984375"/>
     <use xlink:href="#DejaVuSans-6d" x="1584.363281"/>
     <use xlink:href="#DejaVuSans-20" x="1681.775391"/>
     <use xlink:href="#DejaVuSans-4f" x="1713.5625"/>
     <use xlink:href="#DejaVuSans-76" x="1792.273438"/>
     <use xlink:href="#DejaVuSans-65" x="1851.453125"/>
     <use xlink:href="#DejaVuSans-72" x="1912.976562"/>
     <use xlink:href="#DejaVuSans-20" x="1954.089844"/>
     <use xlink:href="#DejaVuSans-54" x="1985.876953"/>
     <use xlink:href="#DejaVuSans-69" x="2043.835938"/>
     <use xlink:href="#DejaVuSans-6d" x="2071.619141"/>
     <use xlink:href="#DejaVuSans-65" x="2169.03125"/>
     <use xlink:href="#DejaVuSans-20" x="2230.554688"/>
     <use xlink:href="#DejaVuSans-6f" x="2262.341797"/>
     <use xlink:href="#DejaVuSans-66" x="2323.523438"/>
     <use xlink:href="#DejaVuSans-20" x="2358.728516"/>
     <use xlink:href="#DejaVuSans-47" x="2390.515625"/>
     <use xlink:href="#DejaVuSans-72" x="2468.005859"/>
     <use xlink:href="#DejaVuSans-6f" x="2506.869141"/>
     <use xlink:href="#DejaVuSans-75" x="2568.050781"/>
     <use xlink:href="#DejaVuSans-70" x="2631.429688"/>
     <use xlink:href="#DejaVuSans-20" x="2694.90625"/>
     <use xlink:href="#DejaVuSans-66" x="2726.693359"/>
     <use xlink:href="#DejaVuSans-65" x="2761.898438"/>
     <use xlink:href="#DejaVuSans-6d" x="2823.421875"/>
     <use xlink:href="#DejaVuSans-61" x="2920.833984"/>
     <use xlink:href="#DejaVuSans-6c" x="2982.113281"/>
     <use xlink:href="#DejaVuSans-65" x="3009.896484"/>
     <use xlink:href="#DejaVuSans-20" x="3071.419922"/>
     <use xlink:href="#DejaVuSans-4d" x="3103.207031"/>
     <use xlink:href="#DejaVuSans-6f" x="3189.486328"/>
     <use xlink:href="#DejaVuSans-75" x="3250.667969"/>
     <use xlink:href="#DejaVuSans-73" x="3314.046875"/>
     <use xlink:href="#DejaVuSans-65" x="3366.146484"/>
     <use xlink:href="#DejaVuSans-20" x="3427.669922"/>
     <use xlink:href="#DejaVuSans-4d" x="3459.457031"/>
     <use xlink:href="#DejaVuSans-38" x="3545.736328"/>
     <use xlink:href="#DejaVuSans-31" x="3609.359375"/>
    </g>
   </g>
   <g id="legend_1">
    <g id="patch_69">
     <path d="M 1086.550625 64.233437 
L 1158.235 64.233437 
Q 1160.235 64.233437 1160.235 62.233437 
L 1160.235 33.877187 
Q 1160.235 31.877187 1158.235 31.877187 
L 1086.550625 31.877187 
Q 1084.550625 31.877187 1084.550625 33.877187 
L 1084.550625 62.233437 
Q 1084.550625 64.233437 1086.550625 64.233437 
z
" style="fill: #ffffff; opacity: 0.8; stroke: #cccccc; stroke-linejoin: miter"/>
    </g>
    <g id="patch_70">
     <path d="M 1088.550625 43.475625 
L 1108.550625 43.475625 
L 1108.550625 36.475625 
L 1088.550625 36.475625 
z
" style="fill: #add8e6; opacity: 0.9; stroke: #add8e6; stroke-linejoin: miter"/>
    </g>
    <g id="text_20">
     <!-- Meal -->
     <g transform="translate(1116.550625 43.475625) scale(0.1 -0.1)">
      <use xlink:href="#DejaVuSans-4d"/>
      <use xlink:href="#DejaVuSans-65" x="86.279297"/>
      <use xlink:href="#DejaVuSans-61" x="147.802734"/>
      <use xlink:href="#DejaVuSans-6c" x="209.082031"/>
     </g>
    </g>
    <g id="patch_71">
     <path d="M 1088.550625 58.15375 
L 1108.550625 58.15375 
L 1108.550625 51.15375 
L 1088.550625 51.15375 
z
" style="fill: #808080; opacity: 0.5; stroke: #808080; stroke-linejoin: miter"/>
    </g>
    <g id="text_21">
     <!-- Inactive -->
     <g transform="translate(1116.550625 58.15375) scale(0.1 -0.1)">
      <defs>
       <path id="DejaVuSans-49" d="M 628 4666 
L 1259 4666 
L 1259 0 
L 628 0 
L 628 4666 
z
" transform="scale(0.015625)"/>
       <path id="DejaVuSans-63" d="M 3122 3366 
L 3122 2828 
Q 2878 2963 2633 3030 
Q 2388 3097 2138 3097 
Q 1578 3097 1268 2742 
Q 959 2388 959 1747 
Q 959 1106 1268 751 
Q 1578 397 2138 397 
Q 2388 397 2633 464 
Q 2878 531 3122 666 
L 3122 134 
Q 2881 22 2623 -34 
Q 2366 -91 2075 -91 
Q 1284 -91 818 406 
Q 353 903 353 1747 
Q 353 2603 823 3093 
Q 1294 3584 2113 3584 
Q 2378 3584 2631 3529 
Q 2884 3475 3122 3366 
z
" transform="scale(0.015625)"/>
      </defs>
      <use xlink:href="#DejaVuSans-49"/>
      <use xlink:href="#DejaVuSans-6e" x="29.492188"/>
      <use xlink:href="#DejaVuSans-61" x="92.871094"/>
      <use xlink:href="#DejaVuSans-63" x="154.150391"/>
      <use xlink:href="#DejaVuSans-74" x="209.130859"/>
      <use xlink:href="#DejaVuSans-69" x="248.339844"/>
      <use xlink:href="#DejaVuSans-76" x="276.123047"/>
      <use xlink:href="#DejaVuSans-65" x="335.302734"/>
     </g>
    </g>
   </g>
  </g>
 </g>
 <defs>
  <clipPath id="p6eb5a6b2e9">
   <rect x="49.235" y="26.877187" width="1116" height="332.64"/>
  </clipPath>
 </defs>
</svg>
