<?xml version="1.0" encoding="utf-8" standalone="no"?>
<!DOCTYPE svg PUBLIC "-//W3C//DTD SVG 1.1//EN"
  "http://www.w3.org/Graphics/SVG/1.1/DTD/svg11.dtd">
<svg xmlns:xlink="http://www.w3.org/1999/xlink" width="1189.813983pt" height="399.009062pt" viewBox="0 0 1189.813983 399.009062" xmlns="http://www.w3.org/2000/svg" version="1.1">
 <metadata>
  <rdf:RDF xmlns:dc="http://purl.org/dc/elements/1.1/" xmlns:cc="http://creativecommons.org/ns#" xmlns:rdf="http://www.w3.org/1999/02/22-rdf-syntax-ns#">
   <cc:Work>
    <dc:type rdf:resource="http://purl.org/dc/dcmitype/StillImage"/>
    <dc:date>2025-10-02T16:55:17.406486</dc:date>
    <dc:format>image/svg+xml</dc:format>
    <dc:creator>
     <cc:Agent>
      <dc:title>Matplotlib v3.8.4, https://matplotlib.org/</dc:title>
     </cc:Agent>
    </dc:creator>
   </cc:Work>
  </rdf:RDF>
 </metadata>
 <defs>
  <style type="text/css">*{stroke-linejoin: round; stroke-linecap: butt}</style>
 </defs>
 <g id="figure_1">
  <g id="patch_1">
   <path d="M 0 399.009062 
L 1189.813983 399.009062 
L 1189.813983 0 
L 0 0 
z
" style="fill: #ffffff"/>
  </g>
  <g id="axes_1">
   <g id="patch_2">
    <path d="M 49.235 359.517187 
L 1165.235 359.517187 
L 1165.235 26.877187 
L 49.235 26.877187 
z
" style="fill: #ffffff"/>
   </g>
   <g id="patch_3">
    <path d="M 155.958912 359.517187 
L 155.958912 26.877187 
L 126.050329 26.877187 
L 126.050329 359.517187 
z
" clip-path="url(#pa9dd214cb8)" style="fill: #add8e6; stroke: #add8e6; stroke-linejoin: miter"/>
   </g>
   <g id="patch_4">
    <path d="M 165.445658 359.517187 
L 165.445658 26.877187 
L 139.54237 26.877187 
L 139.54237 359.517187 
z
" clip-path="url(#pa9dd214cb8)" style="fill: #add8e6; stroke: #add8e6; stroke-linejoin: miter"/>
   </g>
   <g id="patch_5">
    <path d="M 173.472141 359.517187 
L 173.472141 26.877187 
L 150.264877 26.877187 
L 150.264877 359.517187 
z
" clip-path="url(#pa9dd214cb8)" style="fill: #add8e6; stroke: #add8e6; stroke-linejoin: miter"/>
   </g>
   <g id="patch_6">
    <path d="M 177.399952 359.517187 
L 177.399952 26.877187 
L 174.960219 26.877187 
L 174.960219 359.517187 
z
" clip-path="url(#pa9dd214cb8)" style="fill: #add8e6; stroke: #add8e6; stroke-linejoin: miter"/>
   </g>
   <g id="patch_7">
    <path d="M 175.611874 359.517187 
L 175.611874 26.877187 
L 176.150284 26.877187 
L 176.150284 359.517187 
z
" clip-path="url(#pa9dd214cb8)" style="fill: #add8e6; stroke: #add8e6; stroke-linejoin: miter"/>
   </g>
   <g id="patch_8">
    <path d="M 181.319816 359.517187 
L 181.319816 26.877187 
L 179.65293 26.877187 
L 179.65293 359.517187 
z
" clip-path="url(#pa9dd214cb8)" style="fill: #add8e6; stroke: #add8e6; stroke-linejoin: miter"/>
   </g>
   <g id="patch_9">
    <path d="M 186.556898 359.517187 
L 186.556898 26.877187 
L 186.856897 26.877187 
L 186.856897 359.517187 
z
" clip-path="url(#pa9dd214cb8)" style="fill: #add8e6; stroke: #add8e6; stroke-linejoin: miter"/>
   </g>
   <g id="patch_10">
    <path d="M 199.888012 359.517187 
L 199.888012 26.877187 
L 199.939667 26.877187 
L 199.939667 359.517187 
z
" clip-path="url(#pa9dd214cb8)" style="fill: #add8e6; stroke: #add8e6; stroke-linejoin: miter"/>
   </g>
   <g id="patch_11">
    <path d="M 203.788008 359.517187 
L 203.788008 26.877187 
L 203.921121 26.877187 
L 203.921121 359.517187 
z
" clip-path="url(#pa9dd214cb8)" style="fill: #add8e6; stroke: #add8e6; stroke-linejoin: miter"/>
   </g>
   <g id="patch_12">
    <path d="M 205.270126 359.517187 
L 205.270126 26.877187 
L 204.817146 26.877187 
L 204.817146 359.517187 
z
" clip-path="url(#pa9dd214cb8)" style="fill: #add8e6; stroke: #add8e6; stroke-linejoin: miter"/>
   </g>
   <g id="patch_13">
    <path d="M 220.291967 359.517187 
L 220.291967 26.877187 
L 218.952895 26.877187 
L 218.952895 359.517187 
z
" clip-path="url(#pa9dd214cb8)" style="fill: #add8e6; stroke: #add8e6; stroke-linejoin: miter"/>
   </g>
   <g id="patch_14">
    <path d="M 269.440268 359.517187 
L 269.440268 26.877187 
L 268.927685 26.877187 
L 268.927685 359.517187 
z
" clip-path="url(#pa9dd214cb8)" style="fill: #add8e6; stroke: #add8e6; stroke-linejoin: miter"/>
   </g>
   <g id="patch_15">
    <path d="M 271.456822 359.517187 
L 271.456822 26.877187 
L 271.876027 26.877187 
L 271.876027 359.517187 
z
" clip-path="url(#pa9dd214cb8)" style="fill: #add8e6; stroke: #add8e6; stroke-linejoin: miter"/>
   </g>
   <g id="patch_16">
    <path d="M 274.756819 359.517187 
L 274.756819 26.877187 
L 273.656158 26.877187 
L 273.656158 359.517187 
z
" clip-path="url(#pa9dd214cb8)" style="fill: #add8e6; stroke: #add8e6; stroke-linejoin: miter"/>
   </g>
   <g id="patch_17">
    <path d="M 286.33959 359.517187 
L 286.33959 26.877187 
L 286.929656 26.877187 
L 286.929656 359.517187 
z
" clip-path="url(#pa9dd214cb8)" style="fill: #add8e6; stroke: #add8e6; stroke-linejoin: miter"/>
   </g>
   <g id="patch_18">
    <path d="M 287.87535 359.517187 
L 287.87535 26.877187 
L 288.461443 26.877187 
L 288.461443 359.517187 
z
" clip-path="url(#pa9dd214cb8)" style="fill: #add8e6; stroke: #add8e6; stroke-linejoin: miter"/>
   </g>
   <g id="patch_19">
    <path d="M 305.893215 359.517187 
L 305.893215 26.877187 
L 304.333614 26.877187 
L 304.333614 359.517187 
z
" clip-path="url(#pa9dd214cb8)" style="fill: #add8e6; stroke: #add8e6; stroke-linejoin: miter"/>
   </g>
   <g id="patch_20">
    <path d="M 310.925661 359.517187 
L 310.925661 26.877187 
L 310.138907 26.877187 
L 310.138907 359.517187 
z
" clip-path="url(#pa9dd214cb8)" style="fill: #add8e6; stroke: #add8e6; stroke-linejoin: miter"/>
   </g>
   <g id="patch_21">
    <path d="M 310.82831 359.517187 
L 310.82831 26.877187 
L 311.003144 26.877187 
L 311.003144 359.517187 
z
" clip-path="url(#pa9dd214cb8)" style="fill: #add8e6; stroke: #add8e6; stroke-linejoin: miter"/>
   </g>
   <g id="patch_22">
    <path d="M 327.586573 359.517187 
L 327.586573 26.877187 
L 326.934918 26.877187 
L 326.934918 359.517187 
z
" clip-path="url(#pa9dd214cb8)" style="fill: #add8e6; stroke: #add8e6; stroke-linejoin: miter"/>
   </g>
   <g id="patch_23">
    <path d="M 349.6296 359.517187 
L 349.6296 26.877187 
L 350.104434 26.877187 
L 350.104434 359.517187 
z
" clip-path="url(#pa9dd214cb8)" style="fill: #add8e6; stroke: #add8e6; stroke-linejoin: miter"/>
   </g>
   <g id="patch_24">
    <path d="M 352.977279 359.517187 
L 352.977279 26.877187 
L 352.29781 26.877187 
L 352.29781 359.517187 
z
" clip-path="url(#pa9dd214cb8)" style="fill: #add8e6; stroke: #add8e6; stroke-linejoin: miter"/>
   </g>
   <g id="patch_25">
    <path d="M 353.436219 359.517187 
L 353.436219 26.877187 
L 352.858074 26.877187 
L 352.858074 359.517187 
z
" clip-path="url(#pa9dd214cb8)" style="fill: #add8e6; stroke: #add8e6; stroke-linejoin: miter"/>
   </g>
   <g id="patch_26">
    <path d="M 355.053436 359.517187 
L 355.053436 26.877187 
L 353.746153 26.877187 
L 353.746153 359.517187 
z
" clip-path="url(#pa9dd214cb8)" style="fill: #add8e6; stroke: #add8e6; stroke-linejoin: miter"/>
   </g>
   <g id="patch_27">
    <path d="M 357.228931 359.517187 
L 357.228931 26.877187 
L 357.423633 26.877187 
L 357.423633 359.517187 
z
" clip-path="url(#pa9dd214cb8)" style="fill: #add8e6; stroke: #add8e6; stroke-linejoin: miter"/>
   </g>
   <g id="patch_28">
    <path d="M 363.882568 359.517187 
L 363.882568 26.877187 
L 363.276608 26.877187 
L 363.276608 359.517187 
z
" clip-path="url(#pa9dd214cb8)" style="fill: #add8e6; stroke: #add8e6; stroke-linejoin: miter"/>
   </g>
   <g id="patch_29">
    <path d="M 366.22495 359.517187 
L 366.22495 26.877187 
L 366.61038 26.877187 
L 366.61038 359.517187 
z
" clip-path="url(#pa9dd214cb8)" style="fill: #add8e6; stroke: #add8e6; stroke-linejoin: miter"/>
   </g>
   <g id="patch_30">
    <path d="M 399.463331 359.517187 
L 399.463331 26.877187 
L 381.417651 26.877187 
L 381.417651 359.517187 
z
" clip-path="url(#pa9dd214cb8)" style="fill: #add8e6; stroke: #add8e6; stroke-linejoin: miter"/>
   </g>
   <g id="patch_31">
    <path d="M 385.45076 359.517187 
L 385.45076 26.877187 
L 385.808376 26.877187 
L 385.808376 359.517187 
z
" clip-path="url(#pa9dd214cb8)" style="fill: #add8e6; stroke: #add8e6; stroke-linejoin: miter"/>
   </g>
   <g id="patch_32">
    <path d="M 409.379216 359.517187 
L 409.379216 26.877187 
L 402.218957 26.877187 
L 402.218957 359.517187 
z
" clip-path="url(#pa9dd214cb8)" style="fill: #add8e6; stroke: #add8e6; stroke-linejoin: miter"/>
   </g>
   <g id="patch_33">
    <path d="M 406.707033 359.517187 
L 406.707033 26.877187 
L 405.586504 26.877187 
L 405.586504 359.517187 
z
" clip-path="url(#pa9dd214cb8)" style="fill: #add8e6; stroke: #add8e6; stroke-linejoin: miter"/>
   </g>
   <g id="patch_34">
    <path d="M 417.358017 359.517187 
L 417.358017 26.877187 
L 418.840135 26.877187 
L 418.840135 359.517187 
z
" clip-path="url(#pa9dd214cb8)" style="fill: #add8e6; stroke: #add8e6; stroke-linejoin: miter"/>
   </g>
   <g id="patch_35">
    <path d="M 432.67191 359.517187 
L 432.67191 26.877187 
L 432.612308 26.877187 
L 432.612308 359.517187 
z
" clip-path="url(#pa9dd214cb8)" style="fill: #add8e6; stroke: #add8e6; stroke-linejoin: miter"/>
   </g>
   <g id="patch_36">
    <path d="M 459.129503 359.517187 
L 459.129503 26.877187 
L 460.077184 26.877187 
L 460.077184 359.517187 
z
" clip-path="url(#pa9dd214cb8)" style="fill: #add8e6; stroke: #add8e6; stroke-linejoin: miter"/>
   </g>
   <g id="patch_37">
    <path d="M 546.256577 359.517187 
L 546.256577 26.877187 
L 546.40161 26.877187 
L 546.40161 359.517187 
z
" clip-path="url(#pa9dd214cb8)" style="fill: #add8e6; stroke: #add8e6; stroke-linejoin: miter"/>
   </g>
   <g id="patch_38">
    <path d="M 553.553922 359.517187 
L 553.553922 26.877187 
L 554.205577 26.877187 
L 554.205577 359.517187 
z
" clip-path="url(#pa9dd214cb8)" style="fill: #add8e6; stroke: #add8e6; stroke-linejoin: miter"/>
   </g>
   <g id="patch_39">
    <path d="M 561.018154 359.517187 
L 561.018154 26.877187 
L 561.179081 26.877187 
L 561.179081 359.517187 
z
" clip-path="url(#pa9dd214cb8)" style="fill: #add8e6; stroke: #add8e6; stroke-linejoin: miter"/>
   </g>
   <g id="patch_40">
    <path d="M 562.102921 359.517187 
L 562.102921 26.877187 
L 562.202259 26.877187 
L 562.202259 359.517187 
z
" clip-path="url(#pa9dd214cb8)" style="fill: #add8e6; stroke: #add8e6; stroke-linejoin: miter"/>
   </g>
   <g id="patch_41">
    <path d="M 584.261179 359.517187 
L 584.261179 26.877187 
L 584.716146 26.877187 
L 584.716146 359.517187 
z
" clip-path="url(#pa9dd214cb8)" style="fill: #add8e6; stroke: #add8e6; stroke-linejoin: miter"/>
   </g>
   <g id="patch_42">
    <path d="M 593.277065 359.517187 
L 593.277065 26.877187 
L 592.667132 26.877187 
L 592.667132 359.517187 
z
" clip-path="url(#pa9dd214cb8)" style="fill: #add8e6; stroke: #add8e6; stroke-linejoin: miter"/>
   </g>
   <g id="patch_43">
    <path d="M 654.361779 359.517187 
L 654.361779 26.877187 
L 655.092904 26.877187 
L 655.092904 359.517187 
z
" clip-path="url(#pa9dd214cb8)" style="fill: #add8e6; stroke: #add8e6; stroke-linejoin: miter"/>
   </g>
   <g id="patch_44">
    <path d="M 912.844331 359.517187 
L 912.844331 26.877187 
L 894.643685 26.877187 
L 894.643685 359.517187 
z
" clip-path="url(#pa9dd214cb8)" style="fill: #add8e6; stroke: #add8e6; stroke-linejoin: miter"/>
   </g>
   <g id="patch_45">
    <path d="M 908.739699 359.517187 
L 908.739699 26.877187 
L 898.321165 26.877187 
L 898.321165 359.517187 
z
" clip-path="url(#pa9dd214cb8)" style="fill: #add8e6; stroke: #add8e6; stroke-linejoin: miter"/>
   </g>
   <g id="patch_46">
    <path d="M 998.050215 359.517187 
L 998.050215 26.877187 
L 999.039618 26.877187 
L 999.039618 359.517187 
z
" clip-path="url(#pa9dd214cb8)" style="fill: #add8e6; stroke: #add8e6; stroke-linejoin: miter"/>
   </g>
   <g id="patch_47">
    <path d="M 1001.872728 359.517187 
L 1001.872728 26.877187 
L 1001.747563 26.877187 
L 1001.747563 359.517187 
z
" clip-path="url(#pa9dd214cb8)" style="fill: #add8e6; stroke: #add8e6; stroke-linejoin: miter"/>
   </g>
   <g id="patch_48">
    <path d="M 1003.118422 359.517187 
L 1003.118422 26.877187 
L 1003.05882 26.877187 
L 1003.05882 359.517187 
z
" clip-path="url(#pa9dd214cb8)" style="fill: #add8e6; stroke: #add8e6; stroke-linejoin: miter"/>
   </g>
   <g id="patch_49">
    <path d="M 1104.200452 359.517187 
L 1104.200452 26.877187 
L 1082.036233 26.877187 
L 1082.036233 359.517187 
z
" clip-path="url(#pa9dd214cb8)" style="fill: #add8e6; stroke: #add8e6; stroke-linejoin: miter"/>
   </g>
   <g id="patch_50">
    <path d="M 1114.507727 359.517187 
L 1114.507727 26.877187 
L 1086.0157 26.877187 
L 1086.0157 359.517187 
z
" clip-path="url(#pa9dd214cb8)" style="fill: #add8e6; stroke: #add8e6; stroke-linejoin: miter"/>
   </g>
   <g id="patch_51">
    <path d="M 99.962273 359.517187 
L 99.962273 26.877187 
L 123.803311 26.877187 
L 123.803311 359.517187 
z
" clip-path="url(#pa9dd214cb8)" style="fill: #808080; opacity: 0.4; stroke: #808080; stroke-linejoin: miter"/>
   </g>
   <g id="patch_52">
    <path d="M 552.942002 359.517187 
L 552.942002 26.877187 
L 982.080693 26.877187 
L 982.080693 359.517187 
z
" clip-path="url(#pa9dd214cb8)" style="fill: #808080; opacity: 0.4; stroke: #808080; stroke-linejoin: miter"/>
   </g>
   <g id="matplotlib.axis_1">
    <g id="xtick_1">
     <g id="line2d_1">
      <defs>
       <path id="m4df8bc1c54" d="M 0 0 
L 0 3.5 
" style="stroke: #000000; stroke-width: 0.8"/>
      </defs>
      <g>
       <use xlink:href="#m4df8bc1c54" x="87.286787" y="359.517187" style="stroke: #000000; stroke-width: 0.8"/>
      </g>
     </g>
     <g id="text_1">
      <!-- 12-12 06 -->
      <g transform="translate(64.806319 374.115625) scale(0.1 -0.1)">
       <defs>
        <path id="DejaVuSans-31" d="M 794 531 
L 1825 531 
L 1825 4091 
L 703 3866 
L 703 4441 
L 1819 4666 
L 2450 4666 
L 2450 531 
L 3481 531 
L 3481 0 
L 794 0 
L 794 531 
z
" transform="scale(0.015625)"/>
        <path id="DejaVuSans-32" d="M 1228 531 
L 3431 531 
L 3431 0 
L 469 0 
L 469 531 
Q 828 903 1448 1529 
Q 2069 2156 2228 2338 
Q 2531 2678 2651 2914 
Q 2772 3150 2772 3378 
Q 2772 3750 2511 3984 
Q 2250 4219 1831 4219 
Q 1534 4219 1204 4116 
Q 875 4013 500 3803 
L 500 4441 
Q 881 4594 1212 4672 
Q 1544 4750 1819 4750 
Q 2544 4750 2975 4387 
Q 3406 4025 3406 3419 
Q 3406 3131 3298 2873 
Q 3191 2616 2906 2266 
Q 2828 2175 2409 1742 
Q 1991 1309 1228 531 
z
" transform="scale(0.015625)"/>
        <path id="DejaVuSans-2d" d="M 313 2009 
L 1997 2009 
L 1997 1497 
L 313 1497 
L 313 2009 
z
" transform="scale(0.015625)"/>
        <path id="DejaVuSans-20" transform="scale(0.015625)"/>
        <path id="DejaVuSans-30" d="M 2034 4250 
Q 1547 4250 1301 3770 
Q 1056 3291 1056 2328 
Q 1056 1369 1301 889 
Q 1547 409 2034 409 
Q 2525 409 2770 889 
Q 3016 1369 3016 2328 
Q 3016 3291 2770 3770 
Q 2525 4250 2034 4250 
z
M 2034 4750 
Q 2819 4750 3233 4129 
Q 3647 3509 3647 2328 
Q 3647 1150 3233 529 
Q 2819 -91 2034 -91 
Q 1250 -91 836 529 
Q 422 1150 422 2328 
Q 422 3509 836 4129 
Q 1250 4750 2034 4750 
z
" transform="scale(0.015625)"/>
        <path id="DejaVuSans-36" d="M 2113 2584 
Q 1688 2584 1439 2293 
Q 1191 2003 1191 1497 
Q 1191 994 1439 701 
Q 1688 409 2113 409 
Q 2538 409 2786 701 
Q 3034 994 3034 1497 
Q 3034 2003 2786 2293 
Q 2538 2584 2113 2584 
z
M 3366 4563 
L 3366 3988 
Q 3128 4100 2886 4159 
Q 2644 4219 2406 4219 
Q 1781 4219 1451 3797 
Q 1122 3375 1075 2522 
Q 1259 2794 1537 2939 
Q 1816 3084 2150 3084 
Q 2853 3084 3261 2657 
Q 3669 2231 3669 1497 
Q 3669 778 3244 343 
Q 2819 -91 2113 -91 
Q 1303 -91 875 529 
Q 447 1150 447 2328 
Q 447 3434 972 4092 
Q 1497 4750 2381 4750 
Q 2619 4750 2861 4703 
Q 3103 4656 3366 4563 
z
" transform="scale(0.015625)"/>
       </defs>
       <use xlink:href="#DejaVuSans-31"/>
       <use xlink:href="#DejaVuSans-32" x="63.623047"/>
       <use xlink:href="#DejaVuSans-2d" x="127.246094"/>
       <use xlink:href="#DejaVuSans-31" x="163.330078"/>
       <use xlink:href="#DejaVuSans-32" x="226.953125"/>
       <use xlink:href="#DejaVuSans-20" x="290.576172"/>
       <use xlink:href="#DejaVuSans-30" x="322.363281"/>
       <use xlink:href="#DejaVuSans-36" x="385.986328"/>
      </g>
     </g>
    </g>
    <g id="xtick_2">
     <g id="line2d_2">
      <g>
       <use xlink:href="#m4df8bc1c54" x="194.57146" y="359.517187" style="stroke: #000000; stroke-width: 0.8"/>
      </g>
     </g>
     <g id="text_2">
      <!-- 12-12 09 -->
      <g transform="translate(172.090991 374.115625) scale(0.1 -0.1)">
       <defs>
        <path id="DejaVuSans-39" d="M 703 97 
L 703 672 
Q 941 559 1184 500 
Q 1428 441 1663 441 
Q 2288 441 2617 861 
Q 2947 1281 2994 2138 
Q 2813 1869 2534 1725 
Q 2256 1581 1919 1581 
Q 1219 1581 811 2004 
Q 403 2428 403 3163 
Q 403 3881 828 4315 
Q 1253 4750 1959 4750 
Q 2769 4750 3195 4129 
Q 3622 3509 3622 2328 
Q 3622 1225 3098 567 
Q 2575 -91 1691 -91 
Q 1453 -91 1209 -44 
Q 966 3 703 97 
z
M 1959 2075 
Q 2384 2075 2632 2365 
Q 2881 2656 2881 3163 
Q 2881 3666 2632 3958 
Q 2384 4250 1959 4250 
Q 1534 4250 1286 3958 
Q 1038 3666 1038 3163 
Q 1038 2656 1286 2365 
Q 1534 2075 1959 2075 
z
" transform="scale(0.015625)"/>
       </defs>
       <use xlink:href="#DejaVuSans-31"/>
       <use xlink:href="#DejaVuSans-32" x="63.623047"/>
       <use xlink:href="#DejaVuSans-2d" x="127.246094"/>
       <use xlink:href="#DejaVuSans-31" x="163.330078"/>
       <use xlink:href="#DejaVuSans-32" x="226.953125"/>
       <use xlink:href="#DejaVuSans-20" x="290.576172"/>
       <use xlink:href="#DejaVuSans-30" x="322.363281"/>
       <use xlink:href="#DejaVuSans-39" x="385.986328"/>
      </g>
     </g>
    </g>
    <g id="xtick_3">
     <g id="line2d_3">
      <g>
       <use xlink:href="#m4df8bc1c54" x="301.856133" y="359.517187" style="stroke: #000000; stroke-width: 0.8"/>
      </g>
     </g>
     <g id="text_3">
      <!-- 12-12 12 -->
      <g transform="translate(279.375664 374.115625) scale(0.1 -0.1)">
       <use xlink:href="#DejaVuSans-31"/>
       <use xlink:href="#DejaVuSans-32" x="63.623047"/>
       <use xlink:href="#DejaVuSans-2d" x="127.246094"/>
       <use xlink:href="#DejaVuSans-31" x="163.330078"/>
       <use xlink:href="#DejaVuSans-32" x="226.953125"/>
       <use xlink:href="#DejaVuSans-20" x="290.576172"/>
       <use xlink:href="#DejaVuSans-31" x="322.363281"/>
       <use xlink:href="#DejaVuSans-32" x="385.986328"/>
      </g>
     </g>
    </g>
    <g id="xtick_4">
     <g id="line2d_4">
      <g>
       <use xlink:href="#m4df8bc1c54" x="409.140805" y="359.517187" style="stroke: #000000; stroke-width: 0.8"/>
      </g>
     </g>
     <g id="text_4">
      <!-- 12-12 15 -->
      <g transform="translate(386.660337 374.115625) scale(0.1 -0.1)">
       <defs>
        <path id="DejaVuSans-35" d="M 691 4666 
L 3169 4666 
L 3169 4134 
L 1269 4134 
L 1269 2991 
Q 1406 3038 1543 3061 
Q 1681 3084 1819 3084 
Q 2600 3084 3056 2656 
Q 3513 2228 3513 1497 
Q 3513 744 3044 326 
Q 2575 -91 1722 -91 
Q 1428 -91 1123 -41 
Q 819 9 494 109 
L 494 744 
Q 775 591 1075 516 
Q 1375 441 1709 441 
Q 2250 441 2565 725 
Q 2881 1009 2881 1497 
Q 2881 1984 2565 2268 
Q 2250 2553 1709 2553 
Q 1456 2553 1204 2497 
Q 953 2441 691 2322 
L 691 4666 
z
" transform="scale(0.015625)"/>
       </defs>
       <use xlink:href="#DejaVuSans-31"/>
       <use xlink:href="#DejaVuSans-32" x="63.623047"/>
       <use xlink:href="#DejaVuSans-2d" x="127.246094"/>
       <use xlink:href="#DejaVuSans-31" x="163.330078"/>
       <use xlink:href="#DejaVuSans-32" x="226.953125"/>
       <use xlink:href="#DejaVuSans-20" x="290.576172"/>
       <use xlink:href="#DejaVuSans-31" x="322.363281"/>
       <use xlink:href="#DejaVuSans-35" x="385.986328"/>
      </g>
     </g>
    </g>
    <g id="xtick_5">
     <g id="line2d_5">
      <g>
       <use xlink:href="#m4df8bc1c54" x="516.425478" y="359.517187" style="stroke: #000000; stroke-width: 0.8"/>
      </g>
     </g>
     <g id="text_5">
      <!-- 12-12 18 -->
      <g transform="translate(493.945009 374.115625) scale(0.1 -0.1)">
       <defs>
        <path id="DejaVuSans-38" d="M 2034 2216 
Q 1584 2216 1326 1975 
Q 1069 1734 1069 1313 
Q 1069 891 1326 650 
Q 1584 409 2034 409 
Q 2484 409 2743 651 
Q 3003 894 3003 1313 
Q 3003 1734 2745 1975 
Q 2488 2216 2034 2216 
z
M 1403 2484 
Q 997 2584 770 2862 
Q 544 3141 544 3541 
Q 544 4100 942 4425 
Q 1341 4750 2034 4750 
Q 2731 4750 3128 4425 
Q 3525 4100 3525 3541 
Q 3525 3141 3298 2862 
Q 3072 2584 2669 2484 
Q 3125 2378 3379 2068 
Q 3634 1759 3634 1313 
Q 3634 634 3220 271 
Q 2806 -91 2034 -91 
Q 1263 -91 848 271 
Q 434 634 434 1313 
Q 434 1759 690 2068 
Q 947 2378 1403 2484 
z
M 1172 3481 
Q 1172 3119 1398 2916 
Q 1625 2713 2034 2713 
Q 2441 2713 2670 2916 
Q 2900 3119 2900 3481 
Q 2900 3844 2670 4047 
Q 2441 4250 2034 4250 
Q 1625 4250 1398 4047 
Q 1172 3844 1172 3481 
z
" transform="scale(0.015625)"/>
       </defs>
       <use xlink:href="#DejaVuSans-31"/>
       <use xlink:href="#DejaVuSans-32" x="63.623047"/>
       <use xlink:href="#DejaVuSans-2d" x="127.246094"/>
       <use xlink:href="#DejaVuSans-31" x="163.330078"/>
       <use xlink:href="#DejaVuSans-32" x="226.953125"/>
       <use xlink:href="#DejaVuSans-20" x="290.576172"/>
       <use xlink:href="#DejaVuSans-31" x="322.363281"/>
       <use xlink:href="#DejaVuSans-38" x="385.986328"/>
      </g>
     </g>
    </g>
    <g id="xtick_6">
     <g id="line2d_6">
      <g>
       <use xlink:href="#m4df8bc1c54" x="623.710151" y="359.517187" style="stroke: #000000; stroke-width: 0.8"/>
      </g>
     </g>
     <g id="text_6">
      <!-- 12-12 21 -->
      <g transform="translate(601.229682 374.115625) scale(0.1 -0.1)">
       <use xlink:href="#DejaVuSans-31"/>
       <use xlink:href="#DejaVuSans-32" x="63.623047"/>
       <use xlink:href="#DejaVuSans-2d" x="127.246094"/>
       <use xlink:href="#DejaVuSans-31" x="163.330078"/>
       <use xlink:href="#DejaVuSans-32" x="226.953125"/>
       <use xlink:href="#DejaVuSans-20" x="290.576172"/>
       <use xlink:href="#DejaVuSans-32" x="322.363281"/>
       <use xlink:href="#DejaVuSans-31" x="385.986328"/>
      </g>
     </g>
    </g>
    <g id="xtick_7">
     <g id="line2d_7">
      <g>
       <use xlink:href="#m4df8bc1c54" x="730.994824" y="359.517187" style="stroke: #000000; stroke-width: 0.8"/>
      </g>
     </g>
     <g id="text_7">
      <!-- 12-13 00 -->
      <g transform="translate(708.514355 374.115625) scale(0.1 -0.1)">
       <defs>
        <path id="DejaVuSans-33" d="M 2597 2516 
Q 3050 2419 3304 2112 
Q 3559 1806 3559 1356 
Q 3559 666 3084 287 
Q 2609 -91 1734 -91 
Q 1441 -91 1130 -33 
Q 819 25 488 141 
L 488 750 
Q 750 597 1062 519 
Q 1375 441 1716 441 
Q 2309 441 2620 675 
Q 2931 909 2931 1356 
Q 2931 1769 2642 2001 
Q 2353 2234 1838 2234 
L 1294 2234 
L 1294 2753 
L 1863 2753 
Q 2328 2753 2575 2939 
Q 2822 3125 2822 3475 
Q 2822 3834 2567 4026 
Q 2313 4219 1838 4219 
Q 1578 4219 1281 4162 
Q 984 4106 628 3988 
L 628 4550 
Q 988 4650 1302 4700 
Q 1616 4750 1894 4750 
Q 2613 4750 3031 4423 
Q 3450 4097 3450 3541 
Q 3450 3153 3228 2886 
Q 3006 2619 2597 2516 
z
" transform="scale(0.015625)"/>
       </defs>
       <use xlink:href="#DejaVuSans-31"/>
       <use xlink:href="#DejaVuSans-32" x="63.623047"/>
       <use xlink:href="#DejaVuSans-2d" x="127.246094"/>
       <use xlink:href="#DejaVuSans-31" x="163.330078"/>
       <use xlink:href="#DejaVuSans-33" x="226.953125"/>
       <use xlink:href="#DejaVuSans-20" x="290.576172"/>
       <use xlink:href="#DejaVuSans-30" x="322.363281"/>
       <use xlink:href="#DejaVuSans-30" x="385.986328"/>
      </g>
     </g>
    </g>
    <g id="xtick_8">
     <g id="line2d_8">
      <g>
       <use xlink:href="#m4df8bc1c54" x="838.279496" y="359.517187" style="stroke: #000000; stroke-width: 0.8"/>
      </g>
     </g>
     <g id="text_8">
      <!-- 12-13 03 -->
      <g transform="translate(815.799028 374.115625) scale(0.1 -0.1)">
       <use xlink:href="#DejaVuSans-31"/>
       <use xlink:href="#DejaVuSans-32" x="63.623047"/>
       <use xlink:href="#DejaVuSans-2d" x="127.246094"/>
       <use xlink:href="#DejaVuSans-31" x="163.330078"/>
       <use xlink:href="#DejaVuSans-33" x="226.953125"/>
       <use xlink:href="#DejaVuSans-20" x="290.576172"/>
       <use xlink:href="#DejaVuSans-30" x="322.363281"/>
       <use xlink:href="#DejaVuSans-33" x="385.986328"/>
      </g>
     </g>
    </g>
    <g id="xtick_9">
     <g id="line2d_9">
      <g>
       <use xlink:href="#m4df8bc1c54" x="945.564169" y="359.517187" style="stroke: #000000; stroke-width: 0.8"/>
      </g>
     </g>
     <g id="text_9">
      <!-- 12-13 06 -->
      <g transform="translate(923.0837 374.115625) scale(0.1 -0.1)">
       <use xlink:href="#DejaVuSans-31"/>
       <use xlink:href="#DejaVuSans-32" x="63.623047"/>
       <use xlink:href="#DejaVuSans-2d" x="127.246094"/>
       <use xlink:href="#DejaVuSans-31" x="163.330078"/>
       <use xlink:href="#DejaVuSans-33" x="226.953125"/>
       <use xlink:href="#DejaVuSans-20" x="290.576172"/>
       <use xlink:href="#DejaVuSans-30" x="322.363281"/>
       <use xlink:href="#DejaVuSans-36" x="385.986328"/>
      </g>
     </g>
    </g>
    <g id="xtick_10">
     <g id="line2d_10">
      <g>
       <use xlink:href="#m4df8bc1c54" x="1052.848842" y="359.517187" style="stroke: #000000; stroke-width: 0.8"/>
      </g>
     </g>
     <g id="text_10">
      <!-- 12-13 09 -->
      <g transform="translate(1030.368373 374.115625) scale(0.1 -0.1)">
       <use xlink:href="#DejaVuSans-31"/>
       <use xlink:href="#DejaVuSans-32" x="63.623047"/>
       <use xlink:href="#DejaVuSans-2d" x="127.246094"/>
       <use xlink:href="#DejaVuSans-31" x="163.330078"/>
       <use xlink:href="#DejaVuSans-33" x="226.953125"/>
       <use xlink:href="#DejaVuSans-20" x="290.576172"/>
       <use xlink:href="#DejaVuSans-30" x="322.363281"/>
       <use xlink:href="#DejaVuSans-39" x="385.986328"/>
      </g>
     </g>
    </g>
    <g id="xtick_11">
     <g id="line2d_11">
      <g>
       <use xlink:href="#m4df8bc1c54" x="1160.133514" y="359.517187" style="stroke: #000000; stroke-width: 0.8"/>
      </g>
     </g>
     <g id="text_11">
      <!-- 12-13 12 -->
      <g transform="translate(1137.653046 374.115625) scale(0.1 -0.1)">
       <use xlink:href="#DejaVuSans-31"/>
       <use xlink:href="#DejaVuSans-32" x="63.623047"/>
       <use xlink:href="#DejaVuSans-2d" x="127.246094"/>
       <use xlink:href="#DejaVuSans-31" x="163.330078"/>
       <use xlink:href="#DejaVuSans-33" x="226.953125"/>
       <use xlink:href="#DejaVuSans-20" x="290.576172"/>
       <use xlink:href="#DejaVuSans-31" x="322.363281"/>
       <use xlink:href="#DejaVuSans-32" x="385.986328"/>
      </g>
     </g>
    </g>
    <g id="text_12">
     <!-- Time -->
     <g transform="translate(592.554688 389.313437) scale(0.12 -0.12)">
      <defs>
       <path id="DejaVuSans-54" d="M -19 4666 
L 3928 4666 
L 3928 4134 
L 2272 4134 
L 2272 0 
L 1638 0 
L 1638 4134 
L -19 4134 
L -19 4666 
z
" transform="scale(0.015625)"/>
       <path id="DejaVuSans-69" d="M 603 3500 
L 1178 3500 
L 1178 0 
L 603 0 
L 603 3500 
z
M 603 4863 
L 1178 4863 
L 1178 4134 
L 603 4134 
L 603 4863 
z
" transform="scale(0.015625)"/>
       <path id="DejaVuSans-6d" d="M 3328 2828 
Q 3544 3216 3844 3400 
Q 4144 3584 4550 3584 
Q 5097 3584 5394 3201 
Q 5691 2819 5691 2113 
L 5691 0 
L 5113 0 
L 5113 2094 
Q 5113 2597 4934 2840 
Q 4756 3084 4391 3084 
Q 3944 3084 3684 2787 
Q 3425 2491 3425 1978 
L 3425 0 
L 2847 0 
L 2847 2094 
Q 2847 2600 2669 2842 
Q 2491 3084 2119 3084 
Q 1678 3084 1418 2786 
Q 1159 2488 1159 1978 
L 1159 0 
L 581 0 
L 581 3500 
L 1159 3500 
L 1159 2956 
Q 1356 3278 1631 3431 
Q 1906 3584 2284 3584 
Q 2666 3584 2933 3390 
Q 3200 3197 3328 2828 
z
" transform="scale(0.015625)"/>
       <path id="DejaVuSans-65" d="M 3597 1894 
L 3597 1613 
L 953 1613 
Q 991 1019 1311 708 
Q 1631 397 2203 397 
Q 2534 397 2845 478 
Q 3156 559 3463 722 
L 3463 178 
Q 3153 47 2828 -22 
Q 2503 -91 2169 -91 
Q 1331 -91 842 396 
Q 353 884 353 1716 
Q 353 2575 817 3079 
Q 1281 3584 2069 3584 
Q 2775 3584 3186 3129 
Q 3597 2675 3597 1894 
z
M 3022 2063 
Q 3016 2534 2758 2815 
Q 2500 3097 2075 3097 
Q 1594 3097 1305 2825 
Q 1016 2553 972 2059 
L 3022 2063 
z
" transform="scale(0.015625)"/>
      </defs>
      <use xlink:href="#DejaVuSans-54"/>
      <use xlink:href="#DejaVuSans-69" x="57.958984"/>
      <use xlink:href="#DejaVuSans-6d" x="85.742188"/>
      <use xlink:href="#DejaVuSans-65" x="183.154297"/>
     </g>
    </g>
   </g>
   <g id="matplotlib.axis_2">
    <g id="ytick_1">
     <g id="line2d_12">
      <defs>
       <path id="m4b3e22bf04" d="M 0 0 
L -3.5 0 
" style="stroke: #000000; stroke-width: 0.8"/>
      </defs>
      <g>
       <use xlink:href="#m4b3e22bf04" x="49.235" y="344.397187" style="stroke: #000000; stroke-width: 0.8"/>
      </g>
     </g>
     <g id="text_13">
      <!-- 0 -->
      <g transform="translate(35.8725 348.196406) scale(0.1 -0.1)">
       <use xlink:href="#DejaVuSans-30"/>
      </g>
     </g>
    </g>
    <g id="ytick_2">
     <g id="line2d_13">
      <g>
       <use xlink:href="#m4b3e22bf04" x="49.235" y="277.789258" style="stroke: #000000; stroke-width: 0.8"/>
      </g>
     </g>
     <g id="text_14">
      <!-- 50 -->
      <g transform="translate(29.51 281.588477) scale(0.1 -0.1)">
       <use xlink:href="#DejaVuSans-35"/>
       <use xlink:href="#DejaVuSans-30" x="63.623047"/>
      </g>
     </g>
    </g>
    <g id="ytick_3">
     <g id="line2d_14">
      <g>
       <use xlink:href="#m4b3e22bf04" x="49.235" y="211.181328" style="stroke: #000000; stroke-width: 0.8"/>
      </g>
     </g>
     <g id="text_15">
      <!-- 100 -->
      <g transform="translate(23.1475 214.980547) scale(0.1 -0.1)">
       <use xlink:href="#DejaVuSans-31"/>
       <use xlink:href="#DejaVuSans-30" x="63.623047"/>
       <use xlink:href="#DejaVuSans-30" x="127.246094"/>
      </g>
     </g>
    </g>
    <g id="ytick_4">
     <g id="line2d_15">
      <g>
       <use xlink:href="#m4b3e22bf04" x="49.235" y="144.573399" style="stroke: #000000; stroke-width: 0.8"/>
      </g>
     </g>
     <g id="text_16">
      <!-- 150 -->
      <g transform="translate(23.1475 148.372618) scale(0.1 -0.1)">
       <use xlink:href="#DejaVuSans-31"/>
       <use xlink:href="#DejaVuSans-35" x="63.623047"/>
       <use xlink:href="#DejaVuSans-30" x="127.246094"/>
      </g>
     </g>
    </g>
    <g id="ytick_5">
     <g id="line2d_16">
      <g>
       <use xlink:href="#m4b3e22bf04" x="49.235" y="77.965469" style="stroke: #000000; stroke-width: 0.8"/>
      </g>
     </g>
     <g id="text_17">
      <!-- 200 -->
      <g transform="translate(23.1475 81.764688) scale(0.1 -0.1)">
       <use xlink:href="#DejaVuSans-32"/>
       <use xlink:href="#DejaVuSans-30" x="63.623047"/>
       <use xlink:href="#DejaVuSans-30" x="127.246094"/>
      </g>
     </g>
    </g>
    <g id="text_18">
     <!-- Pellet_Count -->
     <g transform="translate(16.318125 230.485312) rotate(-90) scale(0.12 -0.12)">
      <defs>
       <path id="DejaVuSans-50" d="M 1259 4147 
L 1259 2394 
L 2053 2394 
Q 2494 2394 2734 2622 
Q 2975 2850 2975 3272 
Q 2975 3691 2734 3919 
Q 2494 4147 2053 4147 
L 1259 4147 
z
M 628 4666 
L 2053 4666 
Q 2838 4666 3239 4311 
Q 3641 3956 3641 3272 
Q 3641 2581 3239 2228 
Q 2838 1875 2053 1875 
L 1259 1875 
L 1259 0 
L 628 0 
L 628 4666 
z
" transform="scale(0.015625)"/>
       <path id="DejaVuSans-6c" d="M 603 4863 
L 1178 4863 
L 1178 0 
L 603 0 
L 603 4863 
z
" transform="scale(0.015625)"/>
       <path id="DejaVuSans-74" d="M 1172 4494 
L 1172 3500 
L 2356 3500 
L 2356 3053 
L 1172 3053 
L 1172 1153 
Q 1172 725 1289 603 
Q 1406 481 1766 481 
L 2356 481 
L 2356 0 
L 1766 0 
Q 1100 0 847 248 
Q 594 497 594 1153 
L 594 3053 
L 172 3053 
L 172 3500 
L 594 3500 
L 594 4494 
L 1172 4494 
z
" transform="scale(0.015625)"/>
       <path id="DejaVuSans-5f" d="M 3263 -1063 
L 3263 -1509 
L -63 -1509 
L -63 -1063 
L 3263 -1063 
z
" transform="scale(0.015625)"/>
       <path id="DejaVuSans-43" d="M 4122 4306 
L 4122 3641 
Q 3803 3938 3442 4084 
Q 3081 4231 2675 4231 
Q 1875 4231 1450 3742 
Q 1025 3253 1025 2328 
Q 1025 1406 1450 917 
Q 1875 428 2675 428 
Q 3081 428 3442 575 
Q 3803 722 4122 1019 
L 4122 359 
Q 3791 134 3420 21 
Q 3050 -91 2638 -91 
Q 1578 -91 968 557 
Q 359 1206 359 2328 
Q 359 3453 968 4101 
Q 1578 4750 2638 4750 
Q 3056 4750 3426 4639 
Q 3797 4528 4122 4306 
z
" transform="scale(0.015625)"/>
       <path id="DejaVuSans-6f" d="M 1959 3097 
Q 1497 3097 1228 2736 
Q 959 2375 959 1747 
Q 959 1119 1226 758 
Q 1494 397 1959 397 
Q 2419 397 2687 759 
Q 2956 1122 2956 1747 
Q 2956 2369 2687 2733 
Q 2419 3097 1959 3097 
z
M 1959 3584 
Q 2709 3584 3137 3096 
Q 3566 2609 3566 1747 
Q 3566 888 3137 398 
Q 2709 -91 1959 -91 
Q 1206 -91 779 398 
Q 353 888 353 1747 
Q 353 2609 779 3096 
Q 1206 3584 1959 3584 
z
" transform="scale(0.015625)"/>
       <path id="DejaVuSans-75" d="M 544 1381 
L 544 3500 
L 1119 3500 
L 1119 1403 
Q 1119 906 1312 657 
Q 1506 409 1894 409 
Q 2359 409 2629 706 
Q 2900 1003 2900 1516 
L 2900 3500 
L 3475 3500 
L 3475 0 
L 2900 0 
L 2900 538 
Q 2691 219 2414 64 
Q 2138 -91 1772 -91 
Q 1169 -91 856 284 
Q 544 659 544 1381 
z
M 1991 3584 
L 1991 3584 
z
" transform="scale(0.015625)"/>
       <path id="DejaVuSans-6e" d="M 3513 2113 
L 3513 0 
L 2938 0 
L 2938 2094 
Q 2938 2591 2744 2837 
Q 2550 3084 2163 3084 
Q 1697 3084 1428 2787 
Q 1159 2491 1159 1978 
L 1159 0 
L 581 0 
L 581 3500 
L 1159 3500 
L 1159 2956 
Q 1366 3272 1645 3428 
Q 1925 3584 2291 3584 
Q 2894 3584 3203 3211 
Q 3513 2838 3513 2113 
z
" transform="scale(0.015625)"/>
      </defs>
      <use xlink:href="#DejaVuSans-50"/>
      <use xlink:href="#DejaVuSans-65" x="56.677734"/>
      <use xlink:href="#DejaVuSans-6c" x="118.201172"/>
      <use xlink:href="#DejaVuSans-6c" x="145.984375"/>
      <use xlink:href="#DejaVuSans-65" x="173.767578"/>
      <use xlink:href="#DejaVuSans-74" x="235.291016"/>
      <use xlink:href="#DejaVuSans-5f" x="274.5"/>
      <use xlink:href="#DejaVuSans-43" x="324.5"/>
      <use xlink:href="#DejaVuSans-6f" x="394.324219"/>
      <use xlink:href="#DejaVuSans-75" x="455.505859"/>
      <use xlink:href="#DejaVuSans-6e" x="518.884766"/>
      <use xlink:href="#DejaVuSans-74" x="582.263672"/>
     </g>
    </g>
   </g>
   <g id="line2d_17">
    <path d="M 99.962273 344.397187 
L 121.309936 344.397187 
L 124.160927 343.065029 
L 125.094701 343.065029 
L 125.14437 341.73287 
L 126.405958 341.73287 
L 126.425825 340.400712 
L 127.727149 340.400712 
L 128.432446 339.068553 
L 133.627806 339.068553 
L 133.647673 337.736395 
L 135.217208 337.736395 
L 135.237076 336.404236 
L 139.061576 336.404236 
L 139.071509 335.072077 
L 140.859587 335.072077 
L 141.674156 333.739919 
L 149.144348 333.739919 
L 149.174149 332.40776 
L 150.912558 332.40776 
L 151.836399 331.075602 
L 157.419175 331.075602 
L 157.448977 329.743443 
L 159.117849 329.743443 
L 159.147651 328.411284 
L 162.376124 328.411284 
L 162.405926 327.079126 
L 167.442345 327.079126 
L 167.442345 327.079126 
L 167.472146 325.746967 
L 168.674132 325.746967 
L 168.684066 324.414809 
L 170.422475 324.414809 
L 170.482078 323.08265 
L 171.515189 323.08265 
L 171.624461 321.750491 
L 172.339692 321.750491 
L 172.339692 321.750491 
L 172.409228 320.418333 
L 172.985387 320.418333 
L 173.054923 319.086174 
L 173.740353 319.086174 
L 173.76022 317.754016 
L 173.948962 317.754016 
L 174.078101 316.421857 
L 176.452271 316.421857 
L 176.511873 315.089699 
L 184.846303 315.089699 
L 184.866171 313.75754 
L 186.147626 313.75754 
L 186.15756 312.425381 
L 186.366169 312.425381 
L 186.386037 311.093223 
L 186.634381 311.093223 
L 186.634381 311.093223 
L 186.68405 309.761064 
L 188.621134 309.761064 
L 188.631068 308.428906 
L 191.780072 308.428906 
L 191.799939 307.096747 
L 193.011859 307.096747 
L 193.061528 305.764588 
L 197.899272 305.764588 
L 197.909205 304.43243 
L 199.121125 304.43243 
L 199.121125 304.43243 
L 199.16086 303.100271 
L 199.448939 303.100271 
L 199.468807 301.768113 
L 201.823109 301.768113 
L 201.823109 301.768113 
L 201.862844 300.435954 
L 202.697281 300.435954 
L 202.707214 299.103795 
L 203.005227 299.103795 
L 203.025095 297.771637 
L 203.263505 297.771637 
L 203.283373 296.439478 
L 203.511849 296.439478 
L 203.521783 295.10732 
L 204.078074 295.10732 
L 204.107875 293.775161 
L 204.336352 293.775161 
L 204.346286 292.443002 
L 216.207202 292.443002 
L 216.207202 292.443002 
L 216.217136 291.110844 
L 217.478724 291.110844 
L 217.508526 289.778685 
L 217.796605 289.778685 
L 217.826406 288.446527 
L 220.200576 288.446527 
L 220.200576 288.446527 
L 220.240311 287.114368 
L 223.081368 287.114368 
L 223.091302 285.78221 
L 267.972057 285.78221 
L 267.991924 284.450051 
L 268.240269 284.450051 
L 268.260136 283.117892 
L 268.518414 283.117892 
L 268.528348 281.785734 
L 268.776692 281.785734 
L 268.816427 280.453575 
L 271.011789 280.453575 
L 271.021723 279.121417 
L 271.349537 279.121417 
L 271.369405 277.789258 
L 271.597882 277.789258 
L 271.657484 276.457099 
L 272.630993 276.457099 
L 272.660795 275.124941 
L 272.889271 275.124941 
L 272.899205 273.792782 
L 273.246887 273.792782 
L 273.25682 272.460624 
L 282.236945 272.460624 
L 282.256812 271.128465 
L 285.813101 271.128465 
L 285.832968 269.796306 
L 286.438928 269.796306 
L 286.458795 268.464148 
L 287.164093 268.464148 
L 287.18396 267.131989 
L 287.541576 267.131989 
L 287.561443 265.799831 
L 287.750185 265.799831 
L 287.770053 264.467672 
L 288.266741 264.467672 
L 288.31641 263.135513 
L 291.117732 263.135513 
L 291.127665 261.803355 
L 302.352821 261.803355 
L 302.372689 260.471196 
L 302.621033 260.471196 
L 302.680635 259.139038 
L 302.978648 259.139038 
L 302.998516 257.806879 
L 303.366065 257.806879 
L 303.385933 256.474721 
L 303.664078 256.474721 
L 303.683946 255.142562 
L 309.246855 255.142562 
L 309.266722 253.810403 
L 309.584603 253.810403 
L 309.614404 252.478245 
L 309.832947 252.478245 
L 309.852814 251.146086 
L 310.409105 251.146086 
L 310.428973 249.813928 
L 310.707118 249.813928 
L 310.717052 248.481769 
L 317.511748 248.481769 
L 317.521682 247.14961 
L 317.988569 247.14961 
L 318.008436 245.817452 
L 323.412405 245.817452 
L 323.442206 244.485293 
L 325.468695 244.485293 
L 325.488562 243.153135 
L 325.836244 243.153135 
L 325.875979 241.820976 
L 326.243528 241.820976 
L 326.263396 240.488817 
L 326.551475 240.488817 
L 326.571343 239.156659 
L 326.869356 239.156659 
L 326.909091 237.8245 
L 329.154122 237.8245 
L 329.173989 236.492342 
L 336.604446 236.492342 
L 336.624314 235.160183 
L 337.230273 235.160183 
L 337.270009 233.828025 
L 345.276624 233.828025 
L 345.306425 232.495866 
L 345.594504 232.495866 
L 345.604438 231.163707 
L 346.210398 231.163707 
L 346.240199 229.831549 
L 349.031587 229.831549 
L 349.051455 228.49939 
L 349.587878 228.49939 
L 349.597812 227.167232 
L 351.534896 227.167232 
L 351.594499 225.835073 
L 351.842843 225.835073 
L 351.862711 224.502914 
L 352.260061 224.502914 
L 352.30973 223.170756 
L 352.587876 223.170756 
L 352.607743 221.838597 
L 352.796485 221.838597 
L 352.796485 221.838597 
L 352.866021 220.506439 
L 353.1541 220.506439 
L 353.164034 219.17428 
L 353.372643 219.17428 
L 353.382577 217.842121 
L 356.303104 217.842121 
L 356.303104 217.842121 
L 356.322972 216.509963 
L 356.571316 216.509963 
L 356.58125 215.177804 
L 356.889196 215.177804 
L 356.89913 213.845646 
L 357.127607 213.845646 
L 357.13754 212.513487 
L 362.541509 212.513487 
L 362.57131 211.181328 
L 362.93886 211.181328 
L 362.948794 209.84917 
L 363.842833 209.84917 
L 363.8627 208.517011 
L 365.769983 208.517011 
L 365.789851 207.184853 
L 366.048129 207.184853 
L 366.067996 205.852694 
L 371.283223 205.852694 
L 371.303091 204.520536 
L 371.531567 204.520536 
L 371.998454 203.188377 
L 380.839506 203.188377 
L 380.859374 201.856218 
L 381.147453 201.856218 
L 381.16732 200.52406 
L 381.395797 200.52406 
L 381.425598 199.191901 
L 381.862684 199.191901 
L 381.872618 197.859743 
L 382.081227 197.859743 
L 382.091161 196.527584 
L 384.286523 196.527584 
L 384.30639 195.195425 
L 384.515 195.195425 
L 384.544801 193.863267 
L 384.713675 193.863267 
L 384.733542 192.531108 
L 384.952085 192.531108 
L 384.971953 191.19895 
L 385.220297 191.19895 
L 385.230231 189.866791 
L 385.548111 189.866791 
L 385.558045 188.534632 
L 385.796455 188.534632 
L 385.796455 188.534632 
L 385.846124 187.202474 
L 389.799763 187.202474 
L 389.809697 185.870315 
L 390.067975 185.870315 
L 390.395789 184.538157 
L 401.412336 184.538157 
L 401.422269 183.205998 
L 401.809686 183.205998 
L 401.81962 181.873839 
L 402.256706 181.873839 
L 402.266639 180.541681 
L 404.402399 180.541681 
L 404.422267 179.209522 
L 404.710346 179.209522 
L 404.72028 177.877364 
L 405.097763 177.877364 
L 405.107696 176.545205 
L 405.326239 176.545205 
L 405.336173 175.213047 
L 417.087818 175.213047 
L 417.107686 173.880888 
L 417.415633 173.880888 
L 417.415633 173.880888 
L 417.455368 172.548729 
L 417.733513 172.548729 
L 417.753381 171.216571 
L 418.04146 171.216571 
L 418.061327 169.884412 
L 418.35934 169.884412 
L 418.369274 168.552254 
L 431.372574 168.552254 
L 431.392441 167.220095 
L 431.88913 167.220095 
L 431.908997 165.887936 
L 432.167275 165.887936 
L 432.177209 164.555778 
L 432.415619 164.555778 
L 432.465288 163.223619 
L 432.673897 163.223619 
L 432.703698 161.891461 
L 441.415611 161.891461 
L 441.445412 160.559302 
L 441.783161 160.559302 
L 441.803028 159.227143 
L 457.52818 159.227143 
L 457.538113 157.894985 
L 458.710298 157.894985 
L 458.730165 156.562826 
L 458.988443 156.562826 
L 459.028178 155.230668 
L 459.206986 155.230668 
L 459.21692 153.898509 
L 459.524867 153.898509 
L 459.5348 152.56635 
L 461.004998 152.56635 
L 461.769898 151.234192 
L 466.538105 151.234192 
L 466.548039 149.902033 
L 500.521519 149.902033 
L 500.561254 148.569875 
L 514.55793 148.569875 
L 514.567864 147.237716 
L 544.617506 147.237716 
L 544.637374 145.905558 
L 545.253267 145.905558 
L 545.273135 144.573399 
L 545.690353 144.573399 
L 545.71022 143.24124 
L 552.107566 143.24124 
L 552.117499 141.909082 
L 553.180412 141.909082 
L 553.190346 140.576923 
L 553.637366 140.576923 
L 553.647299 139.244765 
L 553.935379 139.244765 
L 553.955246 137.912606 
L 556.230079 137.912606 
L 556.249946 136.580447 
L 560.670472 136.580447 
L 560.690339 135.248289 
L 560.918816 135.248289 
L 560.92875 133.91613 
L 561.177094 133.91613 
L 561.196962 132.583972 
L 561.445306 132.583972 
L 561.465173 131.251813 
L 561.703584 131.251813 
L 561.713517 129.919654 
L 561.93206 129.919654 
L 561.951928 128.587496 
L 565.468481 128.587496 
L 565.557885 127.255337 
L 565.83603 127.255337 
L 565.855898 125.923179 
L 566.640665 125.923179 
L 567.177089 124.59102 
L 578.809529 124.59102 
L 578.83933 123.258862 
L 579.187012 123.258862 
L 579.196945 121.926703 
L 579.912177 121.926703 
L 579.92211 120.594544 
L 583.478399 120.594544 
L 583.498266 119.262386 
L 583.806213 119.262386 
L 583.845948 117.930227 
L 591.773093 117.930227 
L 591.822762 116.598069 
L 592.150576 116.598069 
L 592.16051 115.26591 
L 592.518126 115.26591 
L 592.637331 113.933751 
L 610.359169 113.933751 
L 610.379037 112.601593 
L 654.127342 112.601593 
L 654.14721 111.269434 
L 654.564428 111.269434 
L 654.574362 109.937276 
L 654.83264 109.937276 
L 654.842574 108.605117 
L 655.130653 108.605117 
L 655.22999 107.272958 
L 655.975023 107.272958 
L 656.183632 105.9408 
L 728.938534 105.9408 
L 729.335885 104.608641 
L 811.239785 104.608641 
L 811.537798 103.276483 
L 892.170177 103.276483 
L 892.170177 103.276483 
L 892.537726 101.944324 
L 893.91852 101.944324 
L 893.958255 100.612165 
L 894.454943 100.612165 
L 894.464877 99.280007 
L 895.875472 99.280007 
L 895.905273 97.947848 
L 896.501299 97.947848 
L 896.729775 96.61569 
L 898.0609 96.61569 
L 898.070834 95.283531 
L 899.680104 95.283531 
L 899.699971 93.951373 
L 901.80593 93.951373 
L 901.865532 92.619214 
L 997.338957 92.619214 
L 997.358825 91.287055 
L 997.726374 91.287055 
L 997.736308 89.954897 
L 998.014453 89.954897 
L 998.024387 88.622738 
L 998.262798 88.622738 
L 998.272731 87.29058 
L 998.521076 87.29058 
L 998.531009 85.958421 
L 998.779353 85.958421 
L 998.789287 84.626262 
L 999.77273 84.626262 
L 999.792598 83.294104 
L 1001.054186 83.294104 
L 1001.074053 81.961945 
L 1001.451537 81.961945 
L 1001.46147 80.629787 
L 1001.650212 80.629787 
L 1001.699881 79.297628 
L 1001.898556 79.297628 
L 1001.90849 77.965469 
L 1002.107165 77.965469 
L 1002.117099 76.633311 
L 1002.285973 76.633311 
L 1002.295907 75.301152 
L 1002.474714 75.301152 
L 1002.494582 73.968994 
L 1002.693257 73.968994 
L 1002.772727 72.636835 
L 1005.305838 72.636835 
L 1005.723056 71.304676 
L 1016.829006 71.304676 
L 1016.848874 69.972518 
L 1017.087284 69.972518 
L 1017.097218 68.640359 
L 1017.305827 68.640359 
L 1017.315761 67.308201 
L 1017.534304 67.308201 
L 1017.544237 65.976042 
L 1017.723045 65.976042 
L 1017.732979 64.643884 
L 1032.007801 64.643884 
L 1032.027668 63.311725 
L 1032.285946 63.311725 
L 1032.305814 61.979566 
L 1034.67005 61.979566 
L 1034.689918 60.647408 
L 1034.948195 60.647408 
L 1034.958129 59.315249 
L 1037.610445 59.315249 
L 1037.819054 57.983091 
L 1041.146865 57.983091 
L 1041.325673 56.650932 
L 1076.61041 56.650932 
L 1077.087231 55.318773 
L 1079.898487 55.318773 
L 1079.918354 53.986615 
L 1080.633585 53.986615 
L 1080.643519 52.654456 
L 1080.881929 52.654456 
L 1080.901797 51.322298 
L 1081.12034 51.322298 
L 1081.130274 49.990139 
L 1081.378618 49.990139 
L 1081.388551 48.65798 
L 1081.617028 48.65798 
L 1081.636896 47.325822 
L 1084.319012 47.325822 
L 1084.855436 45.993663 
L 1085.719673 45.993663 
L 1085.729607 44.661505 
L 1086.017686 44.661505 
L 1086.335567 43.329346 
L 1086.802454 43.329346 
L 1088.113711 41.997187 
L 1088.113711 41.997187 
" clip-path="url(#pa9dd214cb8)" style="fill: none; stroke: #0000ff; stroke-width: 1.5; stroke-linecap: square"/>
   </g>
   <g id="patch_53">
    <path d="M 49.235 359.517187 
L 49.235 26.877187 
" style="fill: none; stroke: #000000; stroke-width: 0.8; stroke-linejoin: miter; stroke-linecap: square"/>
   </g>
   <g id="patch_54">
    <path d="M 1165.235 359.517187 
L 1165.235 26.877187 
" style="fill: none; stroke: #000000; stroke-width: 0.8; stroke-linejoin: miter; stroke-linecap: square"/>
   </g>
   <g id="patch_55">
    <path d="M 49.235 359.517187 
L 1165.235 359.517187 
" style="fill: none; stroke: #000000; stroke-width: 0.8; stroke-linejoin: miter; stroke-linecap: square"/>
   </g>
   <g id="patch_56">
    <path d="M 49.235 26.877187 
L 1165.235 26.877187 
" style="fill: none; stroke: #000000; stroke-width: 0.8; stroke-linejoin: miter; stroke-linecap: square"/>
   </g>
   <g id="text_19">
    <!-- Pellet Count and Cumulative Sum Over Time of Group female Mouse M75 -->
    <g transform="translate(276.669219 20.877187) scale(0.18 -0.18)">
     <defs>
      <path id="DejaVuSans-61" d="M 2194 1759 
Q 1497 1759 1228 1600 
Q 959 1441 959 1056 
Q 959 750 1161 570 
Q 1363 391 1709 391 
Q 2188 391 2477 730 
Q 2766 1069 2766 1631 
L 2766 1759 
L 2194 1759 
z
M 3341 1997 
L 3341 0 
L 2766 0 
L 2766 531 
Q 2569 213 2275 61 
Q 1981 -91 1556 -91 
Q 1019 -91 701 211 
Q 384 513 384 1019 
Q 384 1609 779 1909 
Q 1175 2209 1959 2209 
L 2766 2209 
L 2766 2266 
Q 2766 2663 2505 2880 
Q 2244 3097 1772 3097 
Q 1472 3097 1187 3025 
Q 903 2953 641 2809 
L 641 3341 
Q 956 3463 1253 3523 
Q 1550 3584 1831 3584 
Q 2591 3584 2966 3190 
Q 3341 2797 3341 1997 
z
" transform="scale(0.015625)"/>
      <path id="DejaVuSans-64" d="M 2906 2969 
L 2906 4863 
L 3481 4863 
L 3481 0 
L 2906 0 
L 2906 525 
Q 2725 213 2448 61 
Q 2172 -91 1784 -91 
Q 1150 -91 751 415 
Q 353 922 353 1747 
Q 353 2572 751 3078 
Q 1150 3584 1784 3584 
Q 2172 3584 2448 3432 
Q 2725 3281 2906 2969 
z
M 947 1747 
Q 947 1113 1208 752 
Q 1469 391 1925 391 
Q 2381 391 2643 752 
Q 2906 1113 2906 1747 
Q 2906 2381 2643 2742 
Q 2381 3103 1925 3103 
Q 1469 3103 1208 2742 
Q 947 2381 947 1747 
z
" transform="scale(0.015625)"/>
      <path id="DejaVuSans-76" d="M 191 3500 
L 800 3500 
L 1894 563 
L 2988 3500 
L 3597 3500 
L 2284 0 
L 1503 0 
L 191 3500 
z
" transform="scale(0.015625)"/>
      <path id="DejaVuSans-53" d="M 3425 4513 
L 3425 3897 
Q 3066 4069 2747 4153 
Q 2428 4238 2131 4238 
Q 1616 4238 1336 4038 
Q 1056 3838 1056 3469 
Q 1056 3159 1242 3001 
Q 1428 2844 1947 2747 
L 2328 2669 
Q 3034 2534 3370 2195 
Q 3706 1856 3706 1288 
Q 3706 609 3251 259 
Q 2797 -91 1919 -91 
Q 1588 -91 1214 -16 
Q 841 59 441 206 
L 441 856 
Q 825 641 1194 531 
Q 1563 422 1919 422 
Q 2459 422 2753 634 
Q 3047 847 3047 1241 
Q 3047 1584 2836 1778 
Q 2625 1972 2144 2069 
L 1759 2144 
Q 1053 2284 737 2584 
Q 422 2884 422 3419 
Q 422 4038 858 4394 
Q 1294 4750 2059 4750 
Q 2388 4750 2728 4690 
Q 3069 4631 3425 4513 
z
" transform="scale(0.015625)"/>
      <path id="DejaVuSans-4f" d="M 2522 4238 
Q 1834 4238 1429 3725 
Q 1025 3213 1025 2328 
Q 1025 1447 1429 934 
Q 1834 422 2522 422 
Q 3209 422 3611 934 
Q 4013 1447 4013 2328 
Q 4013 3213 3611 3725 
Q 3209 4238 2522 4238 
z
M 2522 4750 
Q 3503 4750 4090 4092 
Q 4678 3434 4678 2328 
Q 4678 1225 4090 567 
Q 3503 -91 2522 -91 
Q 1538 -91 948 565 
Q 359 1222 359 2328 
Q 359 3434 948 4092 
Q 1538 4750 2522 4750 
z
" transform="scale(0.015625)"/>
      <path id="DejaVuSans-72" d="M 2631 2963 
Q 2534 3019 2420 3045 
Q 2306 3072 2169 3072 
Q 1681 3072 1420 2755 
Q 1159 2438 1159 1844 
L 1159 0 
L 581 0 
L 581 3500 
L 1159 3500 
L 1159 2956 
Q 1341 3275 1631 3429 
Q 1922 3584 2338 3584 
Q 2397 3584 2469 3576 
Q 2541 3569 2628 3553 
L 2631 2963 
z
" transform="scale(0.015625)"/>
      <path id="DejaVuSans-66" d="M 2375 4863 
L 2375 4384 
L 1825 4384 
Q 1516 4384 1395 4259 
Q 1275 4134 1275 3809 
L 1275 3500 
L 2222 3500 
L 2222 3053 
L 1275 3053 
L 1275 0 
L 697 0 
L 697 3053 
L 147 3053 
L 147 3500 
L 697 3500 
L 697 3744 
Q 697 4328 969 4595 
Q 1241 4863 1831 4863 
L 2375 4863 
z
" transform="scale(0.015625)"/>
      <path id="DejaVuSans-47" d="M 3809 666 
L 3809 1919 
L 2778 1919 
L 2778 2438 
L 4434 2438 
L 4434 434 
Q 4069 175 3628 42 
Q 3188 -91 2688 -91 
Q 1594 -91 976 548 
Q 359 1188 359 2328 
Q 359 3472 976 4111 
Q 1594 4750 2688 4750 
Q 3144 4750 3555 4637 
Q 3966 4525 4313 4306 
L 4313 3634 
Q 3963 3931 3569 4081 
Q 3175 4231 2741 4231 
Q 1884 4231 1454 3753 
Q 1025 3275 1025 2328 
Q 1025 1384 1454 906 
Q 1884 428 2741 428 
Q 3075 428 3337 486 
Q 3600 544 3809 666 
z
" transform="scale(0.015625)"/>
      <path id="DejaVuSans-70" d="M 1159 525 
L 1159 -1331 
L 581 -1331 
L 581 3500 
L 1159 3500 
L 1159 2969 
Q 1341 3281 1617 3432 
Q 1894 3584 2278 3584 
Q 2916 3584 3314 3078 
Q 3713 2572 3713 1747 
Q 3713 922 3314 415 
Q 2916 -91 2278 -91 
Q 1894 -91 1617 61 
Q 1341 213 1159 525 
z
M 3116 1747 
Q 3116 2381 2855 2742 
Q 2594 3103 2138 3103 
Q 1681 3103 1420 2742 
Q 1159 2381 1159 1747 
Q 1159 1113 1420 752 
Q 1681 391 2138 391 
Q 2594 391 2855 752 
Q 3116 1113 3116 1747 
z
" transform="scale(0.015625)"/>
      <path id="DejaVuSans-4d" d="M 628 4666 
L 1569 4666 
L 2759 1491 
L 3956 4666 
L 4897 4666 
L 4897 0 
L 4281 0 
L 4281 4097 
L 3078 897 
L 2444 897 
L 1241 4097 
L 1241 0 
L 628 0 
L 628 4666 
z
" transform="scale(0.015625)"/>
      <path id="DejaVuSans-73" d="M 2834 3397 
L 2834 2853 
Q 2591 2978 2328 3040 
Q 2066 3103 1784 3103 
Q 1356 3103 1142 2972 
Q 928 2841 928 2578 
Q 928 2378 1081 2264 
Q 1234 2150 1697 2047 
L 1894 2003 
Q 2506 1872 2764 1633 
Q 3022 1394 3022 966 
Q 3022 478 2636 193 
Q 2250 -91 1575 -91 
Q 1294 -91 989 -36 
Q 684 19 347 128 
L 347 722 
Q 666 556 975 473 
Q 1284 391 1588 391 
Q 1994 391 2212 530 
Q 2431 669 2431 922 
Q 2431 1156 2273 1281 
Q 2116 1406 1581 1522 
L 1381 1569 
Q 847 1681 609 1914 
Q 372 2147 372 2553 
Q 372 3047 722 3315 
Q 1072 3584 1716 3584 
Q 2034 3584 2315 3537 
Q 2597 3491 2834 3397 
z
" transform="scale(0.015625)"/>
      <path id="DejaVuSans-37" d="M 525 4666 
L 3525 4666 
L 3525 4397 
L 1831 0 
L 1172 0 
L 2766 4134 
L 525 4134 
L 525 4666 
z
" transform="scale(0.015625)"/>
     </defs>
     <use xlink:href="#DejaVuSans-50"/>
     <use xlink:href="#DejaVuSans-65" x="56.677734"/>
     <use xlink:href="#DejaVuSans-6c" x="118.201172"/>
     <use xlink:href="#DejaVuSans-6c" x="145.984375"/>
     <use xlink:href="#DejaVuSans-65" x="173.767578"/>
     <use xlink:href="#DejaVuSans-74" x="235.291016"/>
     <use xlink:href="#DejaVuSans-20" x="274.5"/>
     <use xlink:href="#DejaVuSans-43" x="306.287109"/>
     <use xlink:href="#DejaVuSans-6f" x="376.111328"/>
     <use xlink:href="#DejaVuSans-75" x="437.292969"/>
     <use xlink:href="#DejaVuSans-6e" x="500.671875"/>
     <use xlink:href="#DejaVuSans-74" x="564.050781"/>
     <use xlink:href="#DejaVuSans-20" x="603.259766"/>
     <use xlink:href="#DejaVuSans-61" x="635.046875"/>
     <use xlink:href="#DejaVuSans-6e" x="696.326172"/>
     <use xlink:href="#DejaVuSans-64" x="759.705078"/>
     <use xlink:href="#DejaVuSans-20" x="823.181641"/>
     <use xlink:href="#DejaVuSans-43" x="854.96875"/>
     <use xlink:href="#DejaVuSans-75" x="924.792969"/>
     <use xlink:href="#DejaVuSans-6d" x="988.171875"/>
     <use xlink:href="#DejaVuSans-75" x="1085.583984"/>
     <use xlink:href="#DejaVuSans-6c" x="1148.962891"/>
     <use xlink:href="#DejaVuSans-61" x="1176.746094"/>
     <use xlink:href="#DejaVuSans-74" x="1238.025391"/>
     <use xlink:href="#DejaVuSans-69" x="1277.234375"/>
     <use xlink:href="#DejaVuSans-76" x="1305.017578"/>
     <use xlink:href="#DejaVuSans-65" x="1364.197266"/>
     <use xlink:href="#DejaVuSans-20" x="1425.720703"/>
     <use xlink:href="#DejaVuSans-53" x="1457.507812"/>
     <use xlink:href="#DejaVuSans-75" x="1520.984375"/>
     <use xlink:href="#DejaVuSans-6d" x="1584.363281"/>
     <use xlink:href="#DejaVuSans-20" x="1681.775391"/>
     <use xlink:href="#DejaVuSans-4f" x="1713.5625"/>
     <use xlink:href="#DejaVuSans-76" x="1792.273438"/>
     <use xlink:href="#DejaVuSans-65" x="1851.453125"/>
     <use xlink:href="#DejaVuSans-72" x="1912.976562"/>
     <use xlink:href="#DejaVuSans-20" x="1954.089844"/>
     <use xlink:href="#DejaVuSans-54" x="1985.876953"/>
     <use xlink:href="#DejaVuSans-69" x="2043.835938"/>
     <use xlink:href="#DejaVuSans-6d" x="2071.619141"/>
     <use xlink:href="#DejaVuSans-65" x="2169.03125"/>
     <use xlink:href="#DejaVuSans-20" x="2230.554688"/>
     <use xlink:href="#DejaVuSans-6f" x="2262.341797"/>
     <use xlink:href="#DejaVuSans-66" x="2323.523438"/>
     <use xlink:href="#DejaVuSans-20" x="2358.728516"/>
     <use xlink:href="#DejaVuSans-47" x="2390.515625"/>
     <use xlink:href="#DejaVuSans-72" x="2468.005859"/>
     <use xlink:href="#DejaVuSans-6f" x="2506.869141"/>
     <use xlink:href="#DejaVuSans-75" x="2568.050781"/>
     <use xlink:href="#DejaVuSans-70" x="2631.429688"/>
     <use xlink:href="#DejaVuSans-20" x="2694.90625"/>
     <use xlink:href="#DejaVuSans-66" x="2726.693359"/>
     <use xlink:href="#DejaVuSans-65" x="2761.898438"/>
     <use xlink:href="#DejaVuSans-6d" x="2823.421875"/>
     <use xlink:href="#DejaVuSans-61" x="2920.833984"/>
     <use xlink:href="#DejaVuSans-6c" x="2982.113281"/>
     <use xlink:href="#DejaVuSans-65" x="3009.896484"/>
     <use xlink:href="#DejaVuSans-20" x="3071.419922"/>
     <use xlink:href="#DejaVuSans-4d" x="3103.207031"/>
     <use xlink:href="#DejaVuSans-6f" x="3189.486328"/>
     <use xlink:href="#DejaVuSans-75" x="3250.667969"/>
     <use xlink:href="#DejaVuSans-73" x="3314.046875"/>
     <use xlink:href="#DejaVuSans-65" x="3366.146484"/>
     <use xlink:href="#DejaVuSans-20" x="3427.669922"/>
     <use xlink:href="#DejaVuSans-4d" x="3459.457031"/>
     <use xlink:href="#DejaVuSans-37" x="3545.736328"/>
     <use xlink:href="#DejaVuSans-35" x="3609.359375"/>
    </g>
   </g>
   <g id="legend_1">
    <g id="patch_57">
     <path d="M 1086.550625 64.233437 
L 1158.235 64.233437 
Q 1160.235 64.233437 1160.235 62.233437 
L 1160.235 33.877187 
Q 1160.235 31.877187 1158.235 31.877187 
L 1086.550625 31.877187 
Q 1084.550625 31.877187 1084.550625 33.877187 
L 1084.550625 62.233437 
Q 1084.550625 64.233437 1086.550625 64.233437 
z
" style="fill: #ffffff; opacity: 0.8; stroke: #cccccc; stroke-linejoin: miter"/>
    </g>
    <g id="patch_58">
     <path d="M 1088.550625 43.475625 
L 1108.550625 43.475625 
L 1108.550625 36.475625 
L 1088.550625 36.475625 
z
" style="fill: #add8e6; opacity: 0.9; stroke: #add8e6; stroke-linejoin: miter"/>
    </g>
    <g id="text_20">
     <!-- Meal -->
     <g transform="translate(1116.550625 43.475625) scale(0.1 -0.1)">
      <use xlink:href="#DejaVuSans-4d"/>
      <use xlink:href="#DejaVuSans-65" x="86.279297"/>
      <use xlink:href="#DejaVuSans-61" x="147.802734"/>
      <use xlink:href="#DejaVuSans-6c" x="209.082031"/>
     </g>
    </g>
    <g id="patch_59">
     <path d="M 1088.550625 58.15375 
L 1108.550625 58.15375 
L 1108.550625 51.15375 
L 1088.550625 51.15375 
z
" style="fill: #808080; opacity: 0.5; stroke: #808080; stroke-linejoin: miter"/>
    </g>
    <g id="text_21">
     <!-- Inactive -->
     <g transform="translate(1116.550625 58.15375) scale(0.1 -0.1)">
      <defs>
       <path id="DejaVuSans-49" d="M 628 4666 
L 1259 4666 
L 1259 0 
L 628 0 
L 628 4666 
z
" transform="scale(0.015625)"/>
       <path id="DejaVuSans-63" d="M 3122 3366 
L 3122 2828 
Q 2878 2963 2633 3030 
Q 2388 3097 2138 3097 
Q 1578 3097 1268 2742 
Q 959 2388 959 1747 
Q 959 1106 1268 751 
Q 1578 397 2138 397 
Q 2388 397 2633 464 
Q 2878 531 3122 666 
L 3122 134 
Q 2881 22 2623 -34 
Q 2366 -91 2075 -91 
Q 1284 -91 818 406 
Q 353 903 353 1747 
Q 353 2603 823 3093 
Q 1294 3584 2113 3584 
Q 2378 3584 2631 3529 
Q 2884 3475 3122 3366 
z
" transform="scale(0.015625)"/>
      </defs>
      <use xlink:href="#DejaVuSans-49"/>
      <use xlink:href="#DejaVuSans-6e" x="29.492188"/>
      <use xlink:href="#DejaVuSans-61" x="92.871094"/>
      <use xlink:href="#DejaVuSans-63" x="154.150391"/>
      <use xlink:href="#DejaVuSans-74" x="209.130859"/>
      <use xlink:href="#DejaVuSans-69" x="248.339844"/>
      <use xlink:href="#DejaVuSans-76" x="276.123047"/>
      <use xlink:href="#DejaVuSans-65" x="335.302734"/>
     </g>
    </g>
   </g>
  </g>
 </g>
 <defs>
  <clipPath id="pa9dd214cb8">
   <rect x="49.235" y="26.877187" width="1116" height="332.64"/>
  </clipPath>
 </defs>
</svg>
