<?xml version="1.0" encoding="utf-8" standalone="no"?>
<!DOCTYPE svg PUBLIC "-//W3C//DTD SVG 1.1//EN"
  "http://www.w3.org/Graphics/SVG/1.1/DTD/svg11.dtd">
<svg xmlns:xlink="http://www.w3.org/1999/xlink" width="1172.435pt" height="399.009062pt" viewBox="0 0 1172.435 399.009062" xmlns="http://www.w3.org/2000/svg" version="1.1">
 <metadata>
  <rdf:RDF xmlns:dc="http://purl.org/dc/elements/1.1/" xmlns:cc="http://creativecommons.org/ns#" xmlns:rdf="http://www.w3.org/1999/02/22-rdf-syntax-ns#">
   <cc:Work>
    <dc:type rdf:resource="http://purl.org/dc/dcmitype/StillImage"/>
    <dc:date>2025-10-01T20:30:09.303714</dc:date>
    <dc:format>image/svg+xml</dc:format>
    <dc:creator>
     <cc:Agent>
      <dc:title>Matplotlib v3.8.4, https://matplotlib.org/</dc:title>
     </cc:Agent>
    </dc:creator>
   </cc:Work>
  </rdf:RDF>
 </metadata>
 <defs>
  <style type="text/css">*{stroke-linejoin: round; stroke-linecap: butt}</style>
 </defs>
 <g id="figure_1">
  <g id="patch_1">
   <path d="M 0 399.009062 
L 1172.435 399.009062 
L 1172.435 0 
L 0 0 
z
" style="fill: #ffffff"/>
  </g>
  <g id="axes_1">
   <g id="patch_2">
    <path d="M 49.235 359.517187 
L 1165.235 359.517187 
L 1165.235 26.877187 
L 49.235 26.877187 
z
" style="fill: #ffffff"/>
   </g>
   <g id="patch_3">
    <path d="M 160.628687 359.517187 
L 160.628687 26.877187 
L 146.722229 26.877187 
L 146.722229 359.517187 
z
" clip-path="url(#pe810513e6f)" style="fill: #add8e6; stroke: #add8e6; stroke-linejoin: miter"/>
   </g>
   <g id="patch_4">
    <path d="M 200.930908 359.517187 
L 200.930908 26.877187 
L 173.279078 26.877187 
L 173.279078 359.517187 
z
" clip-path="url(#pe810513e6f)" style="fill: #add8e6; stroke: #add8e6; stroke-linejoin: miter"/>
   </g>
   <g id="patch_5">
    <path d="M 232.469205 359.517187 
L 232.469205 26.877187 
L 231.347717 26.877187 
L 231.347717 359.517187 
z
" clip-path="url(#pe810513e6f)" style="fill: #add8e6; stroke: #add8e6; stroke-linejoin: miter"/>
   </g>
   <g id="patch_6">
    <path d="M 244.197937 359.517187 
L 244.197937 26.877187 
L 234.65101 26.877187 
L 234.65101 359.517187 
z
" clip-path="url(#pe810513e6f)" style="fill: #add8e6; stroke: #add8e6; stroke-linejoin: miter"/>
   </g>
   <g id="patch_7">
    <path d="M 238.492618 359.517187 
L 238.492618 26.877187 
L 236.164 26.877187 
L 236.164 359.517187 
z
" clip-path="url(#pe810513e6f)" style="fill: #add8e6; stroke: #add8e6; stroke-linejoin: miter"/>
   </g>
   <g id="patch_8">
    <path d="M 257.313236 359.517187 
L 257.313236 26.877187 
L 250.83511 26.877187 
L 250.83511 359.517187 
z
" clip-path="url(#pe810513e6f)" style="fill: #add8e6; stroke: #add8e6; stroke-linejoin: miter"/>
   </g>
   <g id="patch_9">
    <path d="M 292.719649 359.517187 
L 292.719649 26.877187 
L 270.024799 26.877187 
L 270.024799 359.517187 
z
" clip-path="url(#pe810513e6f)" style="fill: #add8e6; stroke: #add8e6; stroke-linejoin: miter"/>
   </g>
   <g id="patch_10">
    <path d="M 381.969748 359.517187 
L 381.969748 26.877187 
L 361.899181 26.877187 
L 361.899181 359.517187 
z
" clip-path="url(#pe810513e6f)" style="fill: #add8e6; stroke: #add8e6; stroke-linejoin: miter"/>
   </g>
   <g id="patch_11">
    <path d="M 370.194118 359.517187 
L 370.194118 26.877187 
L 370.086048 26.877187 
L 370.086048 359.517187 
z
" clip-path="url(#pe810513e6f)" style="fill: #add8e6; stroke: #add8e6; stroke-linejoin: miter"/>
   </g>
   <g id="patch_12">
    <path d="M 401.836408 359.517187 
L 401.836408 26.877187 
L 402.735638 26.877187 
L 402.735638 359.517187 
z
" clip-path="url(#pe810513e6f)" style="fill: #add8e6; stroke: #add8e6; stroke-linejoin: miter"/>
   </g>
   <g id="patch_13">
    <path d="M 408.865083 359.517187 
L 408.865083 26.877187 
L 407.319468 26.877187 
L 407.319468 359.517187 
z
" clip-path="url(#pe810513e6f)" style="fill: #add8e6; stroke: #add8e6; stroke-linejoin: miter"/>
   </g>
   <g id="patch_14">
    <path d="M 458.740738 359.517187 
L 458.740738 26.877187 
L 429.508629 26.877187 
L 429.508629 359.517187 
z
" clip-path="url(#pe810513e6f)" style="fill: #add8e6; stroke: #add8e6; stroke-linejoin: miter"/>
   </g>
   <g id="patch_15">
    <path d="M 440.988594 359.517187 
L 440.988594 26.877187 
L 439.122845 26.877187 
L 439.122845 359.517187 
z
" clip-path="url(#pe810513e6f)" style="fill: #add8e6; stroke: #add8e6; stroke-linejoin: miter"/>
   </g>
   <g id="patch_16">
    <path d="M 465.771452 359.517187 
L 465.771452 26.877187 
L 466.063039 26.877187 
L 466.063039 359.517187 
z
" clip-path="url(#pe810513e6f)" style="fill: #add8e6; stroke: #add8e6; stroke-linejoin: miter"/>
   </g>
   <g id="patch_17">
    <path d="M 472.74915 359.517187 
L 472.74915 26.877187 
L 472.783814 26.877187 
L 472.783814 359.517187 
z
" clip-path="url(#pe810513e6f)" style="fill: #add8e6; stroke: #add8e6; stroke-linejoin: miter"/>
   </g>
   <g id="patch_18">
    <path d="M 528.589085 359.517187 
L 528.589085 26.877187 
L 498.773802 26.877187 
L 498.773802 359.517187 
z
" clip-path="url(#pe810513e6f)" style="fill: #add8e6; stroke: #add8e6; stroke-linejoin: miter"/>
   </g>
   <g id="patch_19">
    <path d="M 523.652496 359.517187 
L 523.652496 26.877187 
L 525.59573 26.877187 
L 525.59573 359.517187 
z
" clip-path="url(#pe810513e6f)" style="fill: #add8e6; stroke: #add8e6; stroke-linejoin: miter"/>
   </g>
   <g id="patch_20">
    <path d="M 571.468691 359.517187 
L 571.468691 26.877187 
L 572.029435 26.877187 
L 572.029435 359.517187 
z
" clip-path="url(#pe810513e6f)" style="fill: #add8e6; stroke: #add8e6; stroke-linejoin: miter"/>
   </g>
   <g id="patch_21">
    <path d="M 572.832828 359.517187 
L 572.832828 26.877187 
L 572.734953 26.877187 
L 572.734953 359.517187 
z
" clip-path="url(#pe810513e6f)" style="fill: #add8e6; stroke: #add8e6; stroke-linejoin: miter"/>
   </g>
   <g id="patch_22">
    <path d="M 588.919053 359.517187 
L 588.919053 26.877187 
L 588.380738 26.877187 
L 588.380738 359.517187 
z
" clip-path="url(#pe810513e6f)" style="fill: #add8e6; stroke: #add8e6; stroke-linejoin: miter"/>
   </g>
   <g id="patch_23">
    <path d="M 679.196843 359.517187 
L 679.196843 26.877187 
L 679.643399 26.877187 
L 679.643399 359.517187 
z
" clip-path="url(#pe810513e6f)" style="fill: #add8e6; stroke: #add8e6; stroke-linejoin: miter"/>
   </g>
   <g id="patch_24">
    <path d="M 680.479418 359.517187 
L 680.479418 26.877187 
L 681.68043 26.877187 
L 681.68043 359.517187 
z
" clip-path="url(#pe810513e6f)" style="fill: #add8e6; stroke: #add8e6; stroke-linejoin: miter"/>
   </g>
   <g id="patch_25">
    <path d="M 727.092561 359.517187 
L 727.092561 26.877187 
L 708.086389 26.877187 
L 708.086389 359.517187 
z
" clip-path="url(#pe810513e6f)" style="fill: #add8e6; stroke: #add8e6; stroke-linejoin: miter"/>
   </g>
   <g id="patch_26">
    <path d="M 736.492674 359.517187 
L 736.492674 26.877187 
L 736.274494 26.877187 
L 736.274494 359.517187 
z
" clip-path="url(#pe810513e6f)" style="fill: #add8e6; stroke: #add8e6; stroke-linejoin: miter"/>
   </g>
   <g id="patch_27">
    <path d="M 737.787484 359.517187 
L 737.787484 26.877187 
L 736.723089 26.877187 
L 736.723089 359.517187 
z
" clip-path="url(#pe810513e6f)" style="fill: #add8e6; stroke: #add8e6; stroke-linejoin: miter"/>
   </g>
   <g id="patch_28">
    <path d="M 747.972639 359.517187 
L 747.972639 26.877187 
L 747.988952 26.877187 
L 747.988952 359.517187 
z
" clip-path="url(#pe810513e6f)" style="fill: #add8e6; stroke: #add8e6; stroke-linejoin: miter"/>
   </g>
   <g id="patch_29">
    <path d="M 804.61189 359.517187 
L 804.61189 26.877187 
L 806.408311 26.877187 
L 806.408311 359.517187 
z
" clip-path="url(#pe810513e6f)" style="fill: #add8e6; stroke: #add8e6; stroke-linejoin: miter"/>
   </g>
   <g id="patch_30">
    <path d="M 836.545767 359.517187 
L 836.545767 26.877187 
L 836.074742 26.877187 
L 836.074742 359.517187 
z
" clip-path="url(#pe810513e6f)" style="fill: #add8e6; stroke: #add8e6; stroke-linejoin: miter"/>
   </g>
   <g id="patch_31">
    <path d="M 874.635597 359.517187 
L 874.635597 26.877187 
L 864.786888 26.877187 
L 864.786888 359.517187 
z
" clip-path="url(#pe810513e6f)" style="fill: #add8e6; stroke: #add8e6; stroke-linejoin: miter"/>
   </g>
   <g id="patch_32">
    <path d="M 899.814035 359.517187 
L 899.814035 26.877187 
L 899.330775 26.877187 
L 899.330775 359.517187 
z
" clip-path="url(#pe810513e6f)" style="fill: #add8e6; stroke: #add8e6; stroke-linejoin: miter"/>
   </g>
   <g id="patch_33">
    <path d="M 908.041682 359.517187 
L 908.041682 26.877187 
L 907.307617 26.877187 
L 907.307617 359.517187 
z
" clip-path="url(#pe810513e6f)" style="fill: #add8e6; stroke: #add8e6; stroke-linejoin: miter"/>
   </g>
   <g id="patch_34">
    <path d="M 1023.132917 359.517187 
L 1023.132917 26.877187 
L 1023.19205 26.877187 
L 1023.19205 359.517187 
z
" clip-path="url(#pe810513e6f)" style="fill: #add8e6; stroke: #add8e6; stroke-linejoin: miter"/>
   </g>
   <g id="patch_35">
    <path d="M 1029.627355 359.517187 
L 1029.627355 26.877187 
L 1028.671032 26.877187 
L 1028.671032 359.517187 
z
" clip-path="url(#pe810513e6f)" style="fill: #add8e6; stroke: #add8e6; stroke-linejoin: miter"/>
   </g>
   <g id="patch_36">
    <path d="M 1030.312483 359.517187 
L 1030.312483 26.877187 
L 1030.379772 26.877187 
L 1030.379772 359.517187 
z
" clip-path="url(#pe810513e6f)" style="fill: #add8e6; stroke: #add8e6; stroke-linejoin: miter"/>
   </g>
   <g id="patch_37">
    <path d="M 1063.10277 359.517187 
L 1063.10277 26.877187 
L 1064.326212 26.877187 
L 1064.326212 359.517187 
z
" clip-path="url(#pe810513e6f)" style="fill: #add8e6; stroke: #add8e6; stroke-linejoin: miter"/>
   </g>
   <g id="patch_38">
    <path d="M 1084.203067 359.517187 
L 1084.203067 26.877187 
L 1084.741382 26.877187 
L 1084.741382 359.517187 
z
" clip-path="url(#pe810513e6f)" style="fill: #add8e6; stroke: #add8e6; stroke-linejoin: miter"/>
   </g>
   <g id="patch_39">
    <path d="M 1098.847669 359.517187 
L 1098.847669 26.877187 
L 1098.9537 26.877187 
L 1098.9537 359.517187 
z
" clip-path="url(#pe810513e6f)" style="fill: #add8e6; stroke: #add8e6; stroke-linejoin: miter"/>
   </g>
   <g id="patch_40">
    <path d="M 1114.507727 359.517187 
L 1114.507727 26.877187 
L 1110.743604 26.877187 
L 1110.743604 359.517187 
z
" clip-path="url(#pe810513e6f)" style="fill: #add8e6; stroke: #add8e6; stroke-linejoin: miter"/>
   </g>
   <g id="patch_41">
    <path d="M 99.962273 359.517187 
L 99.962273 26.877187 
L 124.431114 26.877187 
L 124.431114 359.517187 
z
" clip-path="url(#pe810513e6f)" style="fill: #808080; opacity: 0.4; stroke: #808080; stroke-linejoin: miter"/>
   </g>
   <g id="patch_42">
    <path d="M 564.87026 359.517187 
L 564.87026 26.877187 
L 1005.309405 26.877187 
L 1005.309405 359.517187 
z
" clip-path="url(#pe810513e6f)" style="fill: #808080; opacity: 0.4; stroke: #808080; stroke-linejoin: miter"/>
   </g>
   <g id="matplotlib.axis_1">
    <g id="xtick_1">
     <g id="line2d_1">
      <defs>
       <path id="m46d7bf30cb" d="M 0 0 
L 0 3.5 
" style="stroke: #000000; stroke-width: 0.8"/>
      </defs>
      <g>
       <use xlink:href="#m46d7bf30cb" x="86.269917" y="359.517187" style="stroke: #000000; stroke-width: 0.8"/>
      </g>
     </g>
     <g id="text_1">
      <!-- 12-12 06 -->
      <g transform="translate(63.789448 374.115625) scale(0.1 -0.1)">
       <defs>
        <path id="DejaVuSans-31" d="M 794 531 
L 1825 531 
L 1825 4091 
L 703 3866 
L 703 4441 
L 1819 4666 
L 2450 4666 
L 2450 531 
L 3481 531 
L 3481 0 
L 794 0 
L 794 531 
z
" transform="scale(0.015625)"/>
        <path id="DejaVuSans-32" d="M 1228 531 
L 3431 531 
L 3431 0 
L 469 0 
L 469 531 
Q 828 903 1448 1529 
Q 2069 2156 2228 2338 
Q 2531 2678 2651 2914 
Q 2772 3150 2772 3378 
Q 2772 3750 2511 3984 
Q 2250 4219 1831 4219 
Q 1534 4219 1204 4116 
Q 875 4013 500 3803 
L 500 4441 
Q 881 4594 1212 4672 
Q 1544 4750 1819 4750 
Q 2544 4750 2975 4387 
Q 3406 4025 3406 3419 
Q 3406 3131 3298 2873 
Q 3191 2616 2906 2266 
Q 2828 2175 2409 1742 
Q 1991 1309 1228 531 
z
" transform="scale(0.015625)"/>
        <path id="DejaVuSans-2d" d="M 313 2009 
L 1997 2009 
L 1997 1497 
L 313 1497 
L 313 2009 
z
" transform="scale(0.015625)"/>
        <path id="DejaVuSans-20" transform="scale(0.015625)"/>
        <path id="DejaVuSans-30" d="M 2034 4250 
Q 1547 4250 1301 3770 
Q 1056 3291 1056 2328 
Q 1056 1369 1301 889 
Q 1547 409 2034 409 
Q 2525 409 2770 889 
Q 3016 1369 3016 2328 
Q 3016 3291 2770 3770 
Q 2525 4250 2034 4250 
z
M 2034 4750 
Q 2819 4750 3233 4129 
Q 3647 3509 3647 2328 
Q 3647 1150 3233 529 
Q 2819 -91 2034 -91 
Q 1250 -91 836 529 
Q 422 1150 422 2328 
Q 422 3509 836 4129 
Q 1250 4750 2034 4750 
z
" transform="scale(0.015625)"/>
        <path id="DejaVuSans-36" d="M 2113 2584 
Q 1688 2584 1439 2293 
Q 1191 2003 1191 1497 
Q 1191 994 1439 701 
Q 1688 409 2113 409 
Q 2538 409 2786 701 
Q 3034 994 3034 1497 
Q 3034 2003 2786 2293 
Q 2538 2584 2113 2584 
z
M 3366 4563 
L 3366 3988 
Q 3128 4100 2886 4159 
Q 2644 4219 2406 4219 
Q 1781 4219 1451 3797 
Q 1122 3375 1075 2522 
Q 1259 2794 1537 2939 
Q 1816 3084 2150 3084 
Q 2853 3084 3261 2657 
Q 3669 2231 3669 1497 
Q 3669 778 3244 343 
Q 2819 -91 2113 -91 
Q 1303 -91 875 529 
Q 447 1150 447 2328 
Q 447 3434 972 4092 
Q 1497 4750 2381 4750 
Q 2619 4750 2861 4703 
Q 3103 4656 3366 4563 
z
" transform="scale(0.015625)"/>
       </defs>
       <use xlink:href="#DejaVuSans-31"/>
       <use xlink:href="#DejaVuSans-32" x="63.623047"/>
       <use xlink:href="#DejaVuSans-2d" x="127.246094"/>
       <use xlink:href="#DejaVuSans-31" x="163.330078"/>
       <use xlink:href="#DejaVuSans-32" x="226.953125"/>
       <use xlink:href="#DejaVuSans-20" x="290.576172"/>
       <use xlink:href="#DejaVuSans-30" x="322.363281"/>
       <use xlink:href="#DejaVuSans-36" x="385.986328"/>
      </g>
     </g>
    </g>
    <g id="xtick_2">
     <g id="line2d_2">
      <g>
       <use xlink:href="#m46d7bf30cb" x="196.379703" y="359.517187" style="stroke: #000000; stroke-width: 0.8"/>
      </g>
     </g>
     <g id="text_2">
      <!-- 12-12 09 -->
      <g transform="translate(173.899235 374.115625) scale(0.1 -0.1)">
       <defs>
        <path id="DejaVuSans-39" d="M 703 97 
L 703 672 
Q 941 559 1184 500 
Q 1428 441 1663 441 
Q 2288 441 2617 861 
Q 2947 1281 2994 2138 
Q 2813 1869 2534 1725 
Q 2256 1581 1919 1581 
Q 1219 1581 811 2004 
Q 403 2428 403 3163 
Q 403 3881 828 4315 
Q 1253 4750 1959 4750 
Q 2769 4750 3195 4129 
Q 3622 3509 3622 2328 
Q 3622 1225 3098 567 
Q 2575 -91 1691 -91 
Q 1453 -91 1209 -44 
Q 966 3 703 97 
z
M 1959 2075 
Q 2384 2075 2632 2365 
Q 2881 2656 2881 3163 
Q 2881 3666 2632 3958 
Q 2384 4250 1959 4250 
Q 1534 4250 1286 3958 
Q 1038 3666 1038 3163 
Q 1038 2656 1286 2365 
Q 1534 2075 1959 2075 
z
" transform="scale(0.015625)"/>
       </defs>
       <use xlink:href="#DejaVuSans-31"/>
       <use xlink:href="#DejaVuSans-32" x="63.623047"/>
       <use xlink:href="#DejaVuSans-2d" x="127.246094"/>
       <use xlink:href="#DejaVuSans-31" x="163.330078"/>
       <use xlink:href="#DejaVuSans-32" x="226.953125"/>
       <use xlink:href="#DejaVuSans-20" x="290.576172"/>
       <use xlink:href="#DejaVuSans-30" x="322.363281"/>
       <use xlink:href="#DejaVuSans-39" x="385.986328"/>
      </g>
     </g>
    </g>
    <g id="xtick_3">
     <g id="line2d_3">
      <g>
       <use xlink:href="#m46d7bf30cb" x="306.48949" y="359.517187" style="stroke: #000000; stroke-width: 0.8"/>
      </g>
     </g>
     <g id="text_3">
      <!-- 12-12 12 -->
      <g transform="translate(284.009021 374.115625) scale(0.1 -0.1)">
       <use xlink:href="#DejaVuSans-31"/>
       <use xlink:href="#DejaVuSans-32" x="63.623047"/>
       <use xlink:href="#DejaVuSans-2d" x="127.246094"/>
       <use xlink:href="#DejaVuSans-31" x="163.330078"/>
       <use xlink:href="#DejaVuSans-32" x="226.953125"/>
       <use xlink:href="#DejaVuSans-20" x="290.576172"/>
       <use xlink:href="#DejaVuSans-31" x="322.363281"/>
       <use xlink:href="#DejaVuSans-32" x="385.986328"/>
      </g>
     </g>
    </g>
    <g id="xtick_4">
     <g id="line2d_4">
      <g>
       <use xlink:href="#m46d7bf30cb" x="416.599276" y="359.517187" style="stroke: #000000; stroke-width: 0.8"/>
      </g>
     </g>
     <g id="text_4">
      <!-- 12-12 15 -->
      <g transform="translate(394.118807 374.115625) scale(0.1 -0.1)">
       <defs>
        <path id="DejaVuSans-35" d="M 691 4666 
L 3169 4666 
L 3169 4134 
L 1269 4134 
L 1269 2991 
Q 1406 3038 1543 3061 
Q 1681 3084 1819 3084 
Q 2600 3084 3056 2656 
Q 3513 2228 3513 1497 
Q 3513 744 3044 326 
Q 2575 -91 1722 -91 
Q 1428 -91 1123 -41 
Q 819 9 494 109 
L 494 744 
Q 775 591 1075 516 
Q 1375 441 1709 441 
Q 2250 441 2565 725 
Q 2881 1009 2881 1497 
Q 2881 1984 2565 2268 
Q 2250 2553 1709 2553 
Q 1456 2553 1204 2497 
Q 953 2441 691 2322 
L 691 4666 
z
" transform="scale(0.015625)"/>
       </defs>
       <use xlink:href="#DejaVuSans-31"/>
       <use xlink:href="#DejaVuSans-32" x="63.623047"/>
       <use xlink:href="#DejaVuSans-2d" x="127.246094"/>
       <use xlink:href="#DejaVuSans-31" x="163.330078"/>
       <use xlink:href="#DejaVuSans-32" x="226.953125"/>
       <use xlink:href="#DejaVuSans-20" x="290.576172"/>
       <use xlink:href="#DejaVuSans-31" x="322.363281"/>
       <use xlink:href="#DejaVuSans-35" x="385.986328"/>
      </g>
     </g>
    </g>
    <g id="xtick_5">
     <g id="line2d_5">
      <g>
       <use xlink:href="#m46d7bf30cb" x="526.709062" y="359.517187" style="stroke: #000000; stroke-width: 0.8"/>
      </g>
     </g>
     <g id="text_5">
      <!-- 12-12 18 -->
      <g transform="translate(504.228594 374.115625) scale(0.1 -0.1)">
       <defs>
        <path id="DejaVuSans-38" d="M 2034 2216 
Q 1584 2216 1326 1975 
Q 1069 1734 1069 1313 
Q 1069 891 1326 650 
Q 1584 409 2034 409 
Q 2484 409 2743 651 
Q 3003 894 3003 1313 
Q 3003 1734 2745 1975 
Q 2488 2216 2034 2216 
z
M 1403 2484 
Q 997 2584 770 2862 
Q 544 3141 544 3541 
Q 544 4100 942 4425 
Q 1341 4750 2034 4750 
Q 2731 4750 3128 4425 
Q 3525 4100 3525 3541 
Q 3525 3141 3298 2862 
Q 3072 2584 2669 2484 
Q 3125 2378 3379 2068 
Q 3634 1759 3634 1313 
Q 3634 634 3220 271 
Q 2806 -91 2034 -91 
Q 1263 -91 848 271 
Q 434 634 434 1313 
Q 434 1759 690 2068 
Q 947 2378 1403 2484 
z
M 1172 3481 
Q 1172 3119 1398 2916 
Q 1625 2713 2034 2713 
Q 2441 2713 2670 2916 
Q 2900 3119 2900 3481 
Q 2900 3844 2670 4047 
Q 2441 4250 2034 4250 
Q 1625 4250 1398 4047 
Q 1172 3844 1172 3481 
z
" transform="scale(0.015625)"/>
       </defs>
       <use xlink:href="#DejaVuSans-31"/>
       <use xlink:href="#DejaVuSans-32" x="63.623047"/>
       <use xlink:href="#DejaVuSans-2d" x="127.246094"/>
       <use xlink:href="#DejaVuSans-31" x="163.330078"/>
       <use xlink:href="#DejaVuSans-32" x="226.953125"/>
       <use xlink:href="#DejaVuSans-20" x="290.576172"/>
       <use xlink:href="#DejaVuSans-31" x="322.363281"/>
       <use xlink:href="#DejaVuSans-38" x="385.986328"/>
      </g>
     </g>
    </g>
    <g id="xtick_6">
     <g id="line2d_6">
      <g>
       <use xlink:href="#m46d7bf30cb" x="636.818849" y="359.517187" style="stroke: #000000; stroke-width: 0.8"/>
      </g>
     </g>
     <g id="text_6">
      <!-- 12-12 21 -->
      <g transform="translate(614.33838 374.115625) scale(0.1 -0.1)">
       <use xlink:href="#DejaVuSans-31"/>
       <use xlink:href="#DejaVuSans-32" x="63.623047"/>
       <use xlink:href="#DejaVuSans-2d" x="127.246094"/>
       <use xlink:href="#DejaVuSans-31" x="163.330078"/>
       <use xlink:href="#DejaVuSans-32" x="226.953125"/>
       <use xlink:href="#DejaVuSans-20" x="290.576172"/>
       <use xlink:href="#DejaVuSans-32" x="322.363281"/>
       <use xlink:href="#DejaVuSans-31" x="385.986328"/>
      </g>
     </g>
    </g>
    <g id="xtick_7">
     <g id="line2d_7">
      <g>
       <use xlink:href="#m46d7bf30cb" x="746.928635" y="359.517187" style="stroke: #000000; stroke-width: 0.8"/>
      </g>
     </g>
     <g id="text_7">
      <!-- 12-13 00 -->
      <g transform="translate(724.448166 374.115625) scale(0.1 -0.1)">
       <defs>
        <path id="DejaVuSans-33" d="M 2597 2516 
Q 3050 2419 3304 2112 
Q 3559 1806 3559 1356 
Q 3559 666 3084 287 
Q 2609 -91 1734 -91 
Q 1441 -91 1130 -33 
Q 819 25 488 141 
L 488 750 
Q 750 597 1062 519 
Q 1375 441 1716 441 
Q 2309 441 2620 675 
Q 2931 909 2931 1356 
Q 2931 1769 2642 2001 
Q 2353 2234 1838 2234 
L 1294 2234 
L 1294 2753 
L 1863 2753 
Q 2328 2753 2575 2939 
Q 2822 3125 2822 3475 
Q 2822 3834 2567 4026 
Q 2313 4219 1838 4219 
Q 1578 4219 1281 4162 
Q 984 4106 628 3988 
L 628 4550 
Q 988 4650 1302 4700 
Q 1616 4750 1894 4750 
Q 2613 4750 3031 4423 
Q 3450 4097 3450 3541 
Q 3450 3153 3228 2886 
Q 3006 2619 2597 2516 
z
" transform="scale(0.015625)"/>
       </defs>
       <use xlink:href="#DejaVuSans-31"/>
       <use xlink:href="#DejaVuSans-32" x="63.623047"/>
       <use xlink:href="#DejaVuSans-2d" x="127.246094"/>
       <use xlink:href="#DejaVuSans-31" x="163.330078"/>
       <use xlink:href="#DejaVuSans-33" x="226.953125"/>
       <use xlink:href="#DejaVuSans-20" x="290.576172"/>
       <use xlink:href="#DejaVuSans-30" x="322.363281"/>
       <use xlink:href="#DejaVuSans-30" x="385.986328"/>
      </g>
     </g>
    </g>
    <g id="xtick_8">
     <g id="line2d_8">
      <g>
       <use xlink:href="#m46d7bf30cb" x="857.038422" y="359.517187" style="stroke: #000000; stroke-width: 0.8"/>
      </g>
     </g>
     <g id="text_8">
      <!-- 12-13 03 -->
      <g transform="translate(834.557953 374.115625) scale(0.1 -0.1)">
       <use xlink:href="#DejaVuSans-31"/>
       <use xlink:href="#DejaVuSans-32" x="63.623047"/>
       <use xlink:href="#DejaVuSans-2d" x="127.246094"/>
       <use xlink:href="#DejaVuSans-31" x="163.330078"/>
       <use xlink:href="#DejaVuSans-33" x="226.953125"/>
       <use xlink:href="#DejaVuSans-20" x="290.576172"/>
       <use xlink:href="#DejaVuSans-30" x="322.363281"/>
       <use xlink:href="#DejaVuSans-33" x="385.986328"/>
      </g>
     </g>
    </g>
    <g id="xtick_9">
     <g id="line2d_9">
      <g>
       <use xlink:href="#m46d7bf30cb" x="967.148208" y="359.517187" style="stroke: #000000; stroke-width: 0.8"/>
      </g>
     </g>
     <g id="text_9">
      <!-- 12-13 06 -->
      <g transform="translate(944.667739 374.115625) scale(0.1 -0.1)">
       <use xlink:href="#DejaVuSans-31"/>
       <use xlink:href="#DejaVuSans-32" x="63.623047"/>
       <use xlink:href="#DejaVuSans-2d" x="127.246094"/>
       <use xlink:href="#DejaVuSans-31" x="163.330078"/>
       <use xlink:href="#DejaVuSans-33" x="226.953125"/>
       <use xlink:href="#DejaVuSans-20" x="290.576172"/>
       <use xlink:href="#DejaVuSans-30" x="322.363281"/>
       <use xlink:href="#DejaVuSans-36" x="385.986328"/>
      </g>
     </g>
    </g>
    <g id="xtick_10">
     <g id="line2d_10">
      <g>
       <use xlink:href="#m46d7bf30cb" x="1077.257994" y="359.517187" style="stroke: #000000; stroke-width: 0.8"/>
      </g>
     </g>
     <g id="text_10">
      <!-- 12-13 09 -->
      <g transform="translate(1054.777526 374.115625) scale(0.1 -0.1)">
       <use xlink:href="#DejaVuSans-31"/>
       <use xlink:href="#DejaVuSans-32" x="63.623047"/>
       <use xlink:href="#DejaVuSans-2d" x="127.246094"/>
       <use xlink:href="#DejaVuSans-31" x="163.330078"/>
       <use xlink:href="#DejaVuSans-33" x="226.953125"/>
       <use xlink:href="#DejaVuSans-20" x="290.576172"/>
       <use xlink:href="#DejaVuSans-30" x="322.363281"/>
       <use xlink:href="#DejaVuSans-39" x="385.986328"/>
      </g>
     </g>
    </g>
    <g id="text_11">
     <!-- Time -->
     <g transform="translate(592.554688 389.313437) scale(0.12 -0.12)">
      <defs>
       <path id="DejaVuSans-54" d="M -19 4666 
L 3928 4666 
L 3928 4134 
L 2272 4134 
L 2272 0 
L 1638 0 
L 1638 4134 
L -19 4134 
L -19 4666 
z
" transform="scale(0.015625)"/>
       <path id="DejaVuSans-69" d="M 603 3500 
L 1178 3500 
L 1178 0 
L 603 0 
L 603 3500 
z
M 603 4863 
L 1178 4863 
L 1178 4134 
L 603 4134 
L 603 4863 
z
" transform="scale(0.015625)"/>
       <path id="DejaVuSans-6d" d="M 3328 2828 
Q 3544 3216 3844 3400 
Q 4144 3584 4550 3584 
Q 5097 3584 5394 3201 
Q 5691 2819 5691 2113 
L 5691 0 
L 5113 0 
L 5113 2094 
Q 5113 2597 4934 2840 
Q 4756 3084 4391 3084 
Q 3944 3084 3684 2787 
Q 3425 2491 3425 1978 
L 3425 0 
L 2847 0 
L 2847 2094 
Q 2847 2600 2669 2842 
Q 2491 3084 2119 3084 
Q 1678 3084 1418 2786 
Q 1159 2488 1159 1978 
L 1159 0 
L 581 0 
L 581 3500 
L 1159 3500 
L 1159 2956 
Q 1356 3278 1631 3431 
Q 1906 3584 2284 3584 
Q 2666 3584 2933 3390 
Q 3200 3197 3328 2828 
z
" transform="scale(0.015625)"/>
       <path id="DejaVuSans-65" d="M 3597 1894 
L 3597 1613 
L 953 1613 
Q 991 1019 1311 708 
Q 1631 397 2203 397 
Q 2534 397 2845 478 
Q 3156 559 3463 722 
L 3463 178 
Q 3153 47 2828 -22 
Q 2503 -91 2169 -91 
Q 1331 -91 842 396 
Q 353 884 353 1716 
Q 353 2575 817 3079 
Q 1281 3584 2069 3584 
Q 2775 3584 3186 3129 
Q 3597 2675 3597 1894 
z
M 3022 2063 
Q 3016 2534 2758 2815 
Q 2500 3097 2075 3097 
Q 1594 3097 1305 2825 
Q 1016 2553 972 2059 
L 3022 2063 
z
" transform="scale(0.015625)"/>
      </defs>
      <use xlink:href="#DejaVuSans-54"/>
      <use xlink:href="#DejaVuSans-69" x="57.958984"/>
      <use xlink:href="#DejaVuSans-6d" x="85.742188"/>
      <use xlink:href="#DejaVuSans-65" x="183.154297"/>
     </g>
    </g>
   </g>
   <g id="matplotlib.axis_2">
    <g id="ytick_1">
     <g id="line2d_11">
      <defs>
       <path id="m4405e2ce0e" d="M 0 0 
L -3.5 0 
" style="stroke: #000000; stroke-width: 0.8"/>
      </defs>
      <g>
       <use xlink:href="#m4405e2ce0e" x="49.235" y="344.397187" style="stroke: #000000; stroke-width: 0.8"/>
      </g>
     </g>
     <g id="text_12">
      <!-- 0 -->
      <g transform="translate(35.8725 348.196406) scale(0.1 -0.1)">
       <use xlink:href="#DejaVuSans-30"/>
      </g>
     </g>
    </g>
    <g id="ytick_2">
     <g id="line2d_12">
      <g>
       <use xlink:href="#m4405e2ce0e" x="49.235" y="283.429446" style="stroke: #000000; stroke-width: 0.8"/>
      </g>
     </g>
     <g id="text_13">
      <!-- 50 -->
      <g transform="translate(29.51 287.228664) scale(0.1 -0.1)">
       <use xlink:href="#DejaVuSans-35"/>
       <use xlink:href="#DejaVuSans-30" x="63.623047"/>
      </g>
     </g>
    </g>
    <g id="ytick_3">
     <g id="line2d_13">
      <g>
       <use xlink:href="#m4405e2ce0e" x="49.235" y="222.461704" style="stroke: #000000; stroke-width: 0.8"/>
      </g>
     </g>
     <g id="text_14">
      <!-- 100 -->
      <g transform="translate(23.1475 226.260922) scale(0.1 -0.1)">
       <use xlink:href="#DejaVuSans-31"/>
       <use xlink:href="#DejaVuSans-30" x="63.623047"/>
       <use xlink:href="#DejaVuSans-30" x="127.246094"/>
      </g>
     </g>
    </g>
    <g id="ytick_4">
     <g id="line2d_14">
      <g>
       <use xlink:href="#m4405e2ce0e" x="49.235" y="161.493962" style="stroke: #000000; stroke-width: 0.8"/>
      </g>
     </g>
     <g id="text_15">
      <!-- 150 -->
      <g transform="translate(23.1475 165.29318) scale(0.1 -0.1)">
       <use xlink:href="#DejaVuSans-31"/>
       <use xlink:href="#DejaVuSans-35" x="63.623047"/>
       <use xlink:href="#DejaVuSans-30" x="127.246094"/>
      </g>
     </g>
    </g>
    <g id="ytick_5">
     <g id="line2d_15">
      <g>
       <use xlink:href="#m4405e2ce0e" x="49.235" y="100.52622" style="stroke: #000000; stroke-width: 0.8"/>
      </g>
     </g>
     <g id="text_16">
      <!-- 200 -->
      <g transform="translate(23.1475 104.325439) scale(0.1 -0.1)">
       <use xlink:href="#DejaVuSans-32"/>
       <use xlink:href="#DejaVuSans-30" x="63.623047"/>
       <use xlink:href="#DejaVuSans-30" x="127.246094"/>
      </g>
     </g>
    </g>
    <g id="ytick_6">
     <g id="line2d_16">
      <g>
       <use xlink:href="#m4405e2ce0e" x="49.235" y="39.558478" style="stroke: #000000; stroke-width: 0.8"/>
      </g>
     </g>
     <g id="text_17">
      <!-- 250 -->
      <g transform="translate(23.1475 43.357697) scale(0.1 -0.1)">
       <use xlink:href="#DejaVuSans-32"/>
       <use xlink:href="#DejaVuSans-35" x="63.623047"/>
       <use xlink:href="#DejaVuSans-30" x="127.246094"/>
      </g>
     </g>
    </g>
    <g id="text_18">
     <!-- Pellet_Count -->
     <g transform="translate(16.318125 230.485312) rotate(-90) scale(0.12 -0.12)">
      <defs>
       <path id="DejaVuSans-50" d="M 1259 4147 
L 1259 2394 
L 2053 2394 
Q 2494 2394 2734 2622 
Q 2975 2850 2975 3272 
Q 2975 3691 2734 3919 
Q 2494 4147 2053 4147 
L 1259 4147 
z
M 628 4666 
L 2053 4666 
Q 2838 4666 3239 4311 
Q 3641 3956 3641 3272 
Q 3641 2581 3239 2228 
Q 2838 1875 2053 1875 
L 1259 1875 
L 1259 0 
L 628 0 
L 628 4666 
z
" transform="scale(0.015625)"/>
       <path id="DejaVuSans-6c" d="M 603 4863 
L 1178 4863 
L 1178 0 
L 603 0 
L 603 4863 
z
" transform="scale(0.015625)"/>
       <path id="DejaVuSans-74" d="M 1172 4494 
L 1172 3500 
L 2356 3500 
L 2356 3053 
L 1172 3053 
L 1172 1153 
Q 1172 725 1289 603 
Q 1406 481 1766 481 
L 2356 481 
L 2356 0 
L 1766 0 
Q 1100 0 847 248 
Q 594 497 594 1153 
L 594 3053 
L 172 3053 
L 172 3500 
L 594 3500 
L 594 4494 
L 1172 4494 
z
" transform="scale(0.015625)"/>
       <path id="DejaVuSans-5f" d="M 3263 -1063 
L 3263 -1509 
L -63 -1509 
L -63 -1063 
L 3263 -1063 
z
" transform="scale(0.015625)"/>
       <path id="DejaVuSans-43" d="M 4122 4306 
L 4122 3641 
Q 3803 3938 3442 4084 
Q 3081 4231 2675 4231 
Q 1875 4231 1450 3742 
Q 1025 3253 1025 2328 
Q 1025 1406 1450 917 
Q 1875 428 2675 428 
Q 3081 428 3442 575 
Q 3803 722 4122 1019 
L 4122 359 
Q 3791 134 3420 21 
Q 3050 -91 2638 -91 
Q 1578 -91 968 557 
Q 359 1206 359 2328 
Q 359 3453 968 4101 
Q 1578 4750 2638 4750 
Q 3056 4750 3426 4639 
Q 3797 4528 4122 4306 
z
" transform="scale(0.015625)"/>
       <path id="DejaVuSans-6f" d="M 1959 3097 
Q 1497 3097 1228 2736 
Q 959 2375 959 1747 
Q 959 1119 1226 758 
Q 1494 397 1959 397 
Q 2419 397 2687 759 
Q 2956 1122 2956 1747 
Q 2956 2369 2687 2733 
Q 2419 3097 1959 3097 
z
M 1959 3584 
Q 2709 3584 3137 3096 
Q 3566 2609 3566 1747 
Q 3566 888 3137 398 
Q 2709 -91 1959 -91 
Q 1206 -91 779 398 
Q 353 888 353 1747 
Q 353 2609 779 3096 
Q 1206 3584 1959 3584 
z
" transform="scale(0.015625)"/>
       <path id="DejaVuSans-75" d="M 544 1381 
L 544 3500 
L 1119 3500 
L 1119 1403 
Q 1119 906 1312 657 
Q 1506 409 1894 409 
Q 2359 409 2629 706 
Q 2900 1003 2900 1516 
L 2900 3500 
L 3475 3500 
L 3475 0 
L 2900 0 
L 2900 538 
Q 2691 219 2414 64 
Q 2138 -91 1772 -91 
Q 1169 -91 856 284 
Q 544 659 544 1381 
z
M 1991 3584 
L 1991 3584 
z
" transform="scale(0.015625)"/>
       <path id="DejaVuSans-6e" d="M 3513 2113 
L 3513 0 
L 2938 0 
L 2938 2094 
Q 2938 2591 2744 2837 
Q 2550 3084 2163 3084 
Q 1697 3084 1428 2787 
Q 1159 2491 1159 1978 
L 1159 0 
L 581 0 
L 581 3500 
L 1159 3500 
L 1159 2956 
Q 1366 3272 1645 3428 
Q 1925 3584 2291 3584 
Q 2894 3584 3203 3211 
Q 3513 2838 3513 2113 
z
" transform="scale(0.015625)"/>
      </defs>
      <use xlink:href="#DejaVuSans-50"/>
      <use xlink:href="#DejaVuSans-65" x="56.677734"/>
      <use xlink:href="#DejaVuSans-6c" x="118.201172"/>
      <use xlink:href="#DejaVuSans-6c" x="145.984375"/>
      <use xlink:href="#DejaVuSans-65" x="173.767578"/>
      <use xlink:href="#DejaVuSans-74" x="235.291016"/>
      <use xlink:href="#DejaVuSans-5f" x="274.5"/>
      <use xlink:href="#DejaVuSans-43" x="324.5"/>
      <use xlink:href="#DejaVuSans-6f" x="394.324219"/>
      <use xlink:href="#DejaVuSans-75" x="455.505859"/>
      <use xlink:href="#DejaVuSans-6e" x="518.884766"/>
      <use xlink:href="#DejaVuSans-74" x="582.263672"/>
     </g>
    </g>
   </g>
   <g id="line2d_17">
    <path d="M 99.962273 344.397187 
L 105.426981 344.397187 
L 105.457567 343.177833 
L 107.211167 343.177833 
L 108.179725 341.958478 
L 112.839001 341.958478 
L 113.093884 340.739123 
L 117.33515 340.739123 
L 117.916285 339.519768 
L 123.493142 339.519768 
L 123.523728 338.300413 
L 128.254371 338.300413 
L 128.855896 337.081058 
L 137.001981 337.081058 
L 137.185498 335.861704 
L 145.994281 335.861704 
L 146.014671 334.642349 
L 148.359602 334.642349 
L 148.441165 333.422994 
L 154.690915 333.422994 
L 155.588106 332.203639 
L 155.842989 332.203639 
L 155.904161 330.984284 
L 159.156478 330.984284 
L 159.19726 329.764929 
L 169.147922 329.764929 
L 169.158117 328.545575 
L 169.474173 328.545575 
L 169.565931 327.32622 
L 174.61263 327.32622 
L 174.63302 326.106865 
L 179.292296 326.106865 
L 179.669524 324.88751 
L 180.271049 324.88751 
L 180.301635 323.668155 
L 180.933747 323.668155 
L 181.035701 322.4488 
L 186.745097 322.4488 
L 186.908223 321.229446 
L 191.027144 321.229446 
L 191.067926 320.010091 
L 192.189414 320.010091 
L 192.189414 320.010091 
L 192.434103 318.790736 
L 193.280317 318.790736 
L 193.290512 317.571381 
L 194.503759 317.571381 
L 194.564931 316.352026 
L 195.737396 316.352026 
L 195.767982 315.132671 
L 204.332077 315.132671 
L 204.403444 313.913317 
L 205.035556 313.913317 
L 205.066142 312.693962 
L 205.5963 312.693962 
L 205.626886 311.474607 
L 206.513882 311.474607 
L 206.748375 310.255252 
L 209.113696 310.255252 
L 209.144282 309.035897 
L 210.275966 309.035897 
L 210.541045 307.816542 
L 213.905511 307.816542 
L 213.946292 306.597187 
L 219.676079 306.597187 
L 219.69647 305.377833 
L 219.910572 305.377833 
L 219.910572 305.377833 
L 219.971745 304.158478 
L 220.55288 304.158478 
L 220.57327 302.939123 
L 223.866368 302.939123 
L 223.90715 301.719768 
L 229.463616 301.719768 
L 229.545179 300.500413 
L 230.381197 300.500413 
L 230.432174 299.281058 
L 231.043895 299.281058 
L 231.054091 298.061704 
L 231.359951 298.061704 
L 231.380342 296.842349 
L 231.553663 296.842349 
L 231.553663 296.842349 
L 231.798351 295.622994 
L 232.012454 295.622994 
L 232.06343 294.403639 
L 234.561291 294.403639 
L 234.642854 293.184284 
L 235.060863 293.184284 
L 235.122036 291.964929 
L 235.570631 291.964929 
L 235.591022 290.745575 
L 235.743952 290.745575 
L 235.754147 289.52622 
L 236.060008 289.52622 
L 236.090594 288.306865 
L 239.18998 288.306865 
L 239.200176 287.08751 
L 240.841627 287.08751 
L 240.984362 285.868155 
L 241.20866 285.868155 
L 241.524716 284.6488 
L 243.706521 284.6488 
L 243.706521 284.6488 
L 243.81867 283.429446 
L 249.731973 283.429446 
L 249.966466 282.210091 
L 250.272326 282.210091 
L 250.292717 280.990736 
L 252.291006 280.990736 
L 255.716644 279.771381 
L 256.33856 279.771381 
L 256.980867 278.552026 
L 258.041184 278.552026 
L 260.946859 277.332671 
L 262.313036 277.332671 
L 262.445575 276.113317 
L 263.679213 276.113317 
L 265.514376 274.893962 
L 272.712293 274.893962 
L 272.987568 273.674607 
L 274.618824 273.674607 
L 274.639214 272.455252 
L 277.147271 272.455252 
L 277.208443 271.235897 
L 277.575475 271.235897 
L 277.595866 270.016542 
L 278.187196 270.016542 
L 278.217782 268.797187 
L 278.421689 268.797187 
L 278.452276 267.577833 
L 282.306118 267.577833 
L 282.336704 266.358478 
L 282.815886 266.358478 
L 282.856667 265.139123 
L 286.547384 265.139123 
L 286.567775 263.919768 
L 287.118324 263.919768 
L 287.138714 262.700413 
L 287.30184 262.700413 
L 287.322231 261.481058 
L 287.515942 261.481058 
L 287.536333 260.261704 
L 287.719849 260.261704 
L 287.74024 259.042349 
L 291.624668 259.042349 
L 291.910138 257.822994 
L 293.877841 257.822994 
L 295.733395 256.603639 
L 295.998474 256.603639 
L 296.018865 255.384284 
L 301.106345 255.384284 
L 301.126735 254.164929 
L 307.182773 254.164929 
L 312.127519 252.945575 
L 313.758775 252.945575 
L 313.779165 251.72622 
L 314.034049 251.72622 
L 314.05444 250.506865 
L 314.350105 250.506865 
L 314.3603 249.28751 
L 323.056934 249.28751 
L 323.06713 248.068155 
L 323.403576 248.068155 
L 323.423967 246.8488 
L 332.028843 246.8488 
L 332.049234 245.629446 
L 332.395876 245.629446 
L 332.589587 244.410091 
L 333.221699 244.410091 
L 333.558145 243.190736 
L 336.790072 243.190736 
L 337.646481 241.971381 
L 345.089087 241.971381 
L 345.109478 240.752026 
L 345.741589 240.752026 
L 347.332064 239.532671 
L 349.768753 239.532671 
L 350.196958 238.313317 
L 350.553795 238.313317 
L 350.747507 237.093962 
L 354.601349 237.093962 
L 354.886819 235.874607 
L 357.343898 235.874607 
L 357.53761 234.655252 
L 362.594504 234.655252 
L 363.032904 233.435897 
L 366.519714 233.435897 
L 366.540105 232.216542 
L 369.343826 232.216542 
L 369.374412 230.997187 
L 369.619101 230.997187 
L 369.639491 229.777833 
L 376.327641 229.777833 
L 376.348032 228.558478 
L 377.357372 228.558478 
L 377.377762 227.339123 
L 377.846748 227.339123 
L 377.867139 226.119768 
L 379.406637 226.119768 
L 379.427028 224.900413 
L 385.727754 224.900413 
L 385.788927 223.681058 
L 386.257913 223.681058 
L 386.298694 222.461704 
L 386.675922 222.461704 
L 386.716703 221.242349 
L 388.511085 221.242349 
L 388.531476 220.022994 
L 389.163588 220.022994 
L 389.183978 218.803639 
L 389.438862 218.803639 
L 389.459253 217.584284 
L 400.123589 217.584284 
L 400.14398 216.364929 
L 400.929022 216.364929 
L 400.979999 215.145575 
L 401.520353 215.145575 
L 401.540743 213.92622 
L 402.060706 213.92622 
L 402.081097 212.706865 
L 402.31559 212.706865 
L 402.325785 211.48751 
L 406.189823 211.48751 
L 406.2408 210.268155 
L 406.454902 210.268155 
L 406.495684 209.0488 
L 406.648614 209.0488 
L 406.689395 207.829446 
L 406.913693 207.829446 
L 407.005451 206.610091 
L 407.321507 206.610091 
L 407.352093 205.390736 
L 412.898364 205.390736 
L 412.939145 204.171381 
L 419.280653 204.171381 
L 419.321435 202.952026 
L 421.411482 202.952026 
L 421.431872 201.732671 
L 425.826068 201.732671 
L 426.967948 200.513317 
L 427.742794 200.513317 
L 427.75299 199.293962 
L 428.232171 199.293962 
L 428.242366 198.074607 
L 428.466664 198.074607 
L 428.49725 196.855252 
L 435.715558 196.855252 
L 435.725754 195.635897 
L 437.683261 195.635897 
L 437.683261 195.635897 
L 437.764824 194.416542 
L 438.692601 194.416542 
L 438.712991 193.197187 
L 438.988266 193.197187 
L 439.029047 191.977833 
L 442.526053 191.977833 
L 443.147969 190.758478 
L 445.187039 190.758478 
L 445.319579 189.539123 
L 450.743505 189.539123 
L 453.812306 188.319768 
L 454.872622 188.319768 
L 454.882818 187.100413 
L 455.239655 187.100413 
L 455.24985 185.881058 
L 464.527619 185.881058 
L 464.578596 184.661704 
L 464.83348 184.661704 
L 464.85387 183.442349 
L 465.363638 183.442349 
L 465.394224 182.222994 
L 465.669498 182.222994 
L 465.689889 181.003639 
L 472.061983 181.003639 
L 472.082374 179.784284 
L 472.316867 179.784284 
L 472.337258 178.564929 
L 481.808738 178.564929 
L 481.818934 177.345575 
L 482.920032 177.345575 
L 482.930227 176.12622 
L 483.633706 176.12622 
L 483.654097 174.906865 
L 483.949762 174.906865 
L 483.980348 173.68751 
L 492.289559 173.68751 
L 492.33034 172.468155 
L 492.595419 172.468155 
L 496.816294 171.2488 
L 497.784853 171.2488 
L 497.825634 170.029446 
L 498.080518 170.029446 
L 498.100909 168.810091 
L 498.365988 168.810091 
L 498.406769 167.590736 
L 504.554566 167.590736 
L 505.737226 166.371381 
L 507.501022 166.371381 
L 507.582585 165.152026 
L 510.386306 165.152026 
L 510.406697 163.932671 
L 523.222253 163.932671 
L 523.242643 162.713317 
L 523.711629 162.713317 
L 523.73202 161.493962 
L 524.30296 161.493962 
L 524.30296 161.493962 
L 524.343741 160.274607 
L 524.578234 160.274607 
L 524.58843 159.055252 
L 524.792337 159.055252 
L 524.812727 157.835897 
L 526.168709 157.835897 
L 526.1891 156.616542 
L 535.731948 156.616542 
L 535.752338 155.397187 
L 570.865126 155.397187 
L 570.875321 154.177833 
L 571.201572 154.177833 
L 571.221963 152.958478 
L 571.415675 152.958478 
L 571.436065 151.739123 
L 571.945833 151.739123 
L 571.976419 150.519768 
L 572.241498 150.519768 
L 572.251694 149.300413 
L 573.352791 149.300413 
L 573.362987 148.081058 
L 586.932998 148.081058 
L 586.97378 146.861704 
L 587.310226 146.861704 
L 587.391789 145.642349 
L 587.687454 145.642349 
L 587.707845 144.422994 
L 588.472496 144.422994 
L 588.482692 143.203639 
L 593.458023 143.203639 
L 593.478413 141.984284 
L 599.544647 141.984284 
L 599.575233 140.764929 
L 602.766378 140.764929 
L 602.858136 139.545575 
L 678.130409 139.545575 
L 678.1508 138.32622 
L 678.405684 138.32622 
L 678.426075 137.106865 
L 678.782912 137.106865 
L 678.803303 135.88751 
L 679.149944 135.88751 
L 679.16014 134.668155 
L 679.455805 134.668155 
L 679.506782 133.4488 
L 679.843228 133.4488 
L 679.88401 132.229446 
L 680.057331 132.229446 
L 680.087917 131.010091 
L 680.281628 131.010091 
L 680.312214 129.790736 
L 680.516121 129.790736 
L 680.536512 128.571381 
L 680.730224 128.571381 
L 680.750615 127.352026 
L 682.820271 127.352026 
L 695.319771 126.132671 
L 706.78954 126.132671 
L 706.891493 124.913317 
L 707.319698 124.913317 
L 707.340089 123.693962 
L 734.653433 123.693962 
L 734.663628 122.474607 
L 735.051052 122.474607 
L 735.081638 121.255252 
L 735.785117 121.255252 
L 735.805508 120.035897 
L 736.182736 120.035897 
L 736.203126 118.816542 
L 741.953304 118.816542 
L 741.973695 117.597187 
L 746.63297 117.597187 
L 746.663556 116.377833 
L 746.928635 116.377833 
L 746.979612 115.158478 
L 748.305008 115.158478 
L 751.394199 113.939123 
L 803.808496 113.939123 
L 803.828887 112.719768 
L 804.144943 112.719768 
L 804.155138 111.500413 
L 804.491585 111.500413 
L 804.511975 110.281058 
L 805.021743 110.281058 
L 805.042134 109.061704 
L 805.297017 109.061704 
L 805.307213 107.842349 
L 805.53151 107.842349 
L 805.551901 106.622994 
L 816.58327 106.622994 
L 816.624052 105.403639 
L 834.639236 105.403639 
L 834.659627 104.184284 
L 835.169395 104.184284 
L 835.199981 102.964929 
L 835.424278 102.964929 
L 835.444669 101.745575 
L 840.277265 101.745575 
L 840.307851 100.52622 
L 863.125046 100.52622 
L 863.318758 99.306865 
L 863.726572 99.306865 
L 863.736767 98.08751 
L 864.093604 98.08751 
L 864.113995 96.868155 
L 885.534426 96.868155 
L 885.575208 95.6488 
L 895.107861 95.6488 
L 895.128251 94.429446 
L 897.401815 94.429446 
L 897.452791 93.210091 
L 898.166466 93.210091 
L 898.207247 91.990736 
L 898.492717 91.990736 
L 898.492717 91.990736 
L 898.584475 90.771381 
L 905.537704 90.771381 
L 905.558095 89.552026 
L 906.037277 89.552026 
L 906.067863 88.332671 
L 906.445091 88.332671 
L 906.445091 88.332671 
L 906.506263 87.113317 
L 906.740756 87.113317 
L 906.750951 85.893962 
L 927.202824 85.893962 
L 949.734549 84.674607 
L 992.595803 84.674607 
L 992.656975 83.455252 
L 992.95264 83.455252 
L 992.983226 82.235897 
L 993.197329 82.235897 
L 993.207524 81.016542 
L 993.482799 81.016542 
L 993.503189 79.797187 
L 993.727487 79.797187 
L 993.768268 78.577833 
L 993.951785 78.577833 
L 993.972175 77.358478 
L 994.145496 77.358478 
L 994.165887 76.139123 
L 1021.346692 76.139123 
L 1021.367082 74.919768 
L 1022.009389 74.919768 
L 1022.050171 73.700413 
L 1022.498766 73.700413 
L 1022.519157 72.481058 
L 1026.943939 72.481058 
L 1026.974525 71.261704 
L 1027.331363 71.261704 
L 1027.382339 70.042349 
L 1028.177577 70.042349 
L 1028.187772 68.822994 
L 1029.28887 68.822994 
L 1029.339847 67.603639 
L 1029.849614 67.603639 
L 1029.859809 66.384284 
L 1062.189266 66.384284 
L 1062.209657 65.164929 
L 1062.474736 65.164929 
L 1062.495127 63.945575 
L 1062.72962 63.945575 
L 1062.75001 62.72622 
L 1063.076262 62.72622 
L 1063.117043 61.506865 
L 1063.300559 61.506865 
L 1063.341341 60.28751 
L 1063.555443 60.28751 
L 1063.616615 59.068155 
L 1070.182421 59.068155 
L 1070.253788 57.8488 
L 1083.436377 57.8488 
L 1083.456768 56.629446 
L 1083.67087 56.629446 
L 1083.691261 55.410091 
L 1083.895168 55.410091 
L 1083.905363 54.190736 
L 1084.119465 54.190736 
L 1084.139856 52.971381 
L 1084.384544 52.971381 
L 1084.404935 51.752026 
L 1084.649624 51.752026 
L 1084.710796 50.532671 
L 1098.117682 50.532671 
L 1098.138072 49.313317 
L 1098.423542 49.313317 
L 1098.433738 48.093962 
L 1100.809254 48.093962 
L 1101.043747 46.874607 
L 1104.887394 46.874607 
L 1104.999543 45.655252 
L 1107.018223 45.655252 
L 1107.018223 45.655252 
L 1107.344474 44.435897 
L 1110.148195 44.435897 
L 1110.168586 43.216542 
L 1112.605275 43.216542 
L 1113.145628 41.997187 
L 1114.471024 41.997187 
L 1114.471024 41.997187 
" clip-path="url(#pe810513e6f)" style="fill: none; stroke: #0000ff; stroke-width: 1.5; stroke-linecap: square"/>
   </g>
   <g id="patch_43">
    <path d="M 49.235 359.517187 
L 49.235 26.877187 
" style="fill: none; stroke: #000000; stroke-width: 0.8; stroke-linejoin: miter; stroke-linecap: square"/>
   </g>
   <g id="patch_44">
    <path d="M 1165.235 359.517187 
L 1165.235 26.877187 
" style="fill: none; stroke: #000000; stroke-width: 0.8; stroke-linejoin: miter; stroke-linecap: square"/>
   </g>
   <g id="patch_45">
    <path d="M 49.235 359.517187 
L 1165.235 359.517187 
" style="fill: none; stroke: #000000; stroke-width: 0.8; stroke-linejoin: miter; stroke-linecap: square"/>
   </g>
   <g id="patch_46">
    <path d="M 49.235 26.877187 
L 1165.235 26.877187 
" style="fill: none; stroke: #000000; stroke-width: 0.8; stroke-linejoin: miter; stroke-linecap: square"/>
   </g>
   <g id="text_19">
    <!-- Pellet Count and Cumulative Sum Over Time of Group female Mouse M71 -->
    <g transform="translate(276.669219 20.877187) scale(0.18 -0.18)">
     <defs>
      <path id="DejaVuSans-61" d="M 2194 1759 
Q 1497 1759 1228 1600 
Q 959 1441 959 1056 
Q 959 750 1161 570 
Q 1363 391 1709 391 
Q 2188 391 2477 730 
Q 2766 1069 2766 1631 
L 2766 1759 
L 2194 1759 
z
M 3341 1997 
L 3341 0 
L 2766 0 
L 2766 531 
Q 2569 213 2275 61 
Q 1981 -91 1556 -91 
Q 1019 -91 701 211 
Q 384 513 384 1019 
Q 384 1609 779 1909 
Q 1175 2209 1959 2209 
L 2766 2209 
L 2766 2266 
Q 2766 2663 2505 2880 
Q 2244 3097 1772 3097 
Q 1472 3097 1187 3025 
Q 903 2953 641 2809 
L 641 3341 
Q 956 3463 1253 3523 
Q 1550 3584 1831 3584 
Q 2591 3584 2966 3190 
Q 3341 2797 3341 1997 
z
" transform="scale(0.015625)"/>
      <path id="DejaVuSans-64" d="M 2906 2969 
L 2906 4863 
L 3481 4863 
L 3481 0 
L 2906 0 
L 2906 525 
Q 2725 213 2448 61 
Q 2172 -91 1784 -91 
Q 1150 -91 751 415 
Q 353 922 353 1747 
Q 353 2572 751 3078 
Q 1150 3584 1784 3584 
Q 2172 3584 2448 3432 
Q 2725 3281 2906 2969 
z
M 947 1747 
Q 947 1113 1208 752 
Q 1469 391 1925 391 
Q 2381 391 2643 752 
Q 2906 1113 2906 1747 
Q 2906 2381 2643 2742 
Q 2381 3103 1925 3103 
Q 1469 3103 1208 2742 
Q 947 2381 947 1747 
z
" transform="scale(0.015625)"/>
      <path id="DejaVuSans-76" d="M 191 3500 
L 800 3500 
L 1894 563 
L 2988 3500 
L 3597 3500 
L 2284 0 
L 1503 0 
L 191 3500 
z
" transform="scale(0.015625)"/>
      <path id="DejaVuSans-53" d="M 3425 4513 
L 3425 3897 
Q 3066 4069 2747 4153 
Q 2428 4238 2131 4238 
Q 1616 4238 1336 4038 
Q 1056 3838 1056 3469 
Q 1056 3159 1242 3001 
Q 1428 2844 1947 2747 
L 2328 2669 
Q 3034 2534 3370 2195 
Q 3706 1856 3706 1288 
Q 3706 609 3251 259 
Q 2797 -91 1919 -91 
Q 1588 -91 1214 -16 
Q 841 59 441 206 
L 441 856 
Q 825 641 1194 531 
Q 1563 422 1919 422 
Q 2459 422 2753 634 
Q 3047 847 3047 1241 
Q 3047 1584 2836 1778 
Q 2625 1972 2144 2069 
L 1759 2144 
Q 1053 2284 737 2584 
Q 422 2884 422 3419 
Q 422 4038 858 4394 
Q 1294 4750 2059 4750 
Q 2388 4750 2728 4690 
Q 3069 4631 3425 4513 
z
" transform="scale(0.015625)"/>
      <path id="DejaVuSans-4f" d="M 2522 4238 
Q 1834 4238 1429 3725 
Q 1025 3213 1025 2328 
Q 1025 1447 1429 934 
Q 1834 422 2522 422 
Q 3209 422 3611 934 
Q 4013 1447 4013 2328 
Q 4013 3213 3611 3725 
Q 3209 4238 2522 4238 
z
M 2522 4750 
Q 3503 4750 4090 4092 
Q 4678 3434 4678 2328 
Q 4678 1225 4090 567 
Q 3503 -91 2522 -91 
Q 1538 -91 948 565 
Q 359 1222 359 2328 
Q 359 3434 948 4092 
Q 1538 4750 2522 4750 
z
" transform="scale(0.015625)"/>
      <path id="DejaVuSans-72" d="M 2631 2963 
Q 2534 3019 2420 3045 
Q 2306 3072 2169 3072 
Q 1681 3072 1420 2755 
Q 1159 2438 1159 1844 
L 1159 0 
L 581 0 
L 581 3500 
L 1159 3500 
L 1159 2956 
Q 1341 3275 1631 3429 
Q 1922 3584 2338 3584 
Q 2397 3584 2469 3576 
Q 2541 3569 2628 3553 
L 2631 2963 
z
" transform="scale(0.015625)"/>
      <path id="DejaVuSans-66" d="M 2375 4863 
L 2375 4384 
L 1825 4384 
Q 1516 4384 1395 4259 
Q 1275 4134 1275 3809 
L 1275 3500 
L 2222 3500 
L 2222 3053 
L 1275 3053 
L 1275 0 
L 697 0 
L 697 3053 
L 147 3053 
L 147 3500 
L 697 3500 
L 697 3744 
Q 697 4328 969 4595 
Q 1241 4863 1831 4863 
L 2375 4863 
z
" transform="scale(0.015625)"/>
      <path id="DejaVuSans-47" d="M 3809 666 
L 3809 1919 
L 2778 1919 
L 2778 2438 
L 4434 2438 
L 4434 434 
Q 4069 175 3628 42 
Q 3188 -91 2688 -91 
Q 1594 -91 976 548 
Q 359 1188 359 2328 
Q 359 3472 976 4111 
Q 1594 4750 2688 4750 
Q 3144 4750 3555 4637 
Q 3966 4525 4313 4306 
L 4313 3634 
Q 3963 3931 3569 4081 
Q 3175 4231 2741 4231 
Q 1884 4231 1454 3753 
Q 1025 3275 1025 2328 
Q 1025 1384 1454 906 
Q 1884 428 2741 428 
Q 3075 428 3337 486 
Q 3600 544 3809 666 
z
" transform="scale(0.015625)"/>
      <path id="DejaVuSans-70" d="M 1159 525 
L 1159 -1331 
L 581 -1331 
L 581 3500 
L 1159 3500 
L 1159 2969 
Q 1341 3281 1617 3432 
Q 1894 3584 2278 3584 
Q 2916 3584 3314 3078 
Q 3713 2572 3713 1747 
Q 3713 922 3314 415 
Q 2916 -91 2278 -91 
Q 1894 -91 1617 61 
Q 1341 213 1159 525 
z
M 3116 1747 
Q 3116 2381 2855 2742 
Q 2594 3103 2138 3103 
Q 1681 3103 1420 2742 
Q 1159 2381 1159 1747 
Q 1159 1113 1420 752 
Q 1681 391 2138 391 
Q 2594 391 2855 752 
Q 3116 1113 3116 1747 
z
" transform="scale(0.015625)"/>
      <path id="DejaVuSans-4d" d="M 628 4666 
L 1569 4666 
L 2759 1491 
L 3956 4666 
L 4897 4666 
L 4897 0 
L 4281 0 
L 4281 4097 
L 3078 897 
L 2444 897 
L 1241 4097 
L 1241 0 
L 628 0 
L 628 4666 
z
" transform="scale(0.015625)"/>
      <path id="DejaVuSans-73" d="M 2834 3397 
L 2834 2853 
Q 2591 2978 2328 3040 
Q 2066 3103 1784 3103 
Q 1356 3103 1142 2972 
Q 928 2841 928 2578 
Q 928 2378 1081 2264 
Q 1234 2150 1697 2047 
L 1894 2003 
Q 2506 1872 2764 1633 
Q 3022 1394 3022 966 
Q 3022 478 2636 193 
Q 2250 -91 1575 -91 
Q 1294 -91 989 -36 
Q 684 19 347 128 
L 347 722 
Q 666 556 975 473 
Q 1284 391 1588 391 
Q 1994 391 2212 530 
Q 2431 669 2431 922 
Q 2431 1156 2273 1281 
Q 2116 1406 1581 1522 
L 1381 1569 
Q 847 1681 609 1914 
Q 372 2147 372 2553 
Q 372 3047 722 3315 
Q 1072 3584 1716 3584 
Q 2034 3584 2315 3537 
Q 2597 3491 2834 3397 
z
" transform="scale(0.015625)"/>
      <path id="DejaVuSans-37" d="M 525 4666 
L 3525 4666 
L 3525 4397 
L 1831 0 
L 1172 0 
L 2766 4134 
L 525 4134 
L 525 4666 
z
" transform="scale(0.015625)"/>
     </defs>
     <use xlink:href="#DejaVuSans-50"/>
     <use xlink:href="#DejaVuSans-65" x="56.677734"/>
     <use xlink:href="#DejaVuSans-6c" x="118.201172"/>
     <use xlink:href="#DejaVuSans-6c" x="145.984375"/>
     <use xlink:href="#DejaVuSans-65" x="173.767578"/>
     <use xlink:href="#DejaVuSans-74" x="235.291016"/>
     <use xlink:href="#DejaVuSans-20" x="274.5"/>
     <use xlink:href="#DejaVuSans-43" x="306.287109"/>
     <use xlink:href="#DejaVuSans-6f" x="376.111328"/>
     <use xlink:href="#DejaVuSans-75" x="437.292969"/>
     <use xlink:href="#DejaVuSans-6e" x="500.671875"/>
     <use xlink:href="#DejaVuSans-74" x="564.050781"/>
     <use xlink:href="#DejaVuSans-20" x="603.259766"/>
     <use xlink:href="#DejaVuSans-61" x="635.046875"/>
     <use xlink:href="#DejaVuSans-6e" x="696.326172"/>
     <use xlink:href="#DejaVuSans-64" x="759.705078"/>
     <use xlink:href="#DejaVuSans-20" x="823.181641"/>
     <use xlink:href="#DejaVuSans-43" x="854.96875"/>
     <use xlink:href="#DejaVuSans-75" x="924.792969"/>
     <use xlink:href="#DejaVuSans-6d" x="988.171875"/>
     <use xlink:href="#DejaVuSans-75" x="1085.583984"/>
     <use xlink:href="#DejaVuSans-6c" x="1148.962891"/>
     <use xlink:href="#DejaVuSans-61" x="1176.746094"/>
     <use xlink:href="#DejaVuSans-74" x="1238.025391"/>
     <use xlink:href="#DejaVuSans-69" x="1277.234375"/>
     <use xlink:href="#DejaVuSans-76" x="1305.017578"/>
     <use xlink:href="#DejaVuSans-65" x="1364.197266"/>
     <use xlink:href="#DejaVuSans-20" x="1425.720703"/>
     <use xlink:href="#DejaVuSans-53" x="1457.507812"/>
     <use xlink:href="#DejaVuSans-75" x="1520.984375"/>
     <use xlink:href="#DejaVuSans-6d" x="1584.363281"/>
     <use xlink:href="#DejaVuSans-20" x="1681.775391"/>
     <use xlink:href="#DejaVuSans-4f" x="1713.5625"/>
     <use xlink:href="#DejaVuSans-76" x="1792.273438"/>
     <use xlink:href="#DejaVuSans-65" x="1851.453125"/>
     <use xlink:href="#DejaVuSans-72" x="1912.976562"/>
     <use xlink:href="#DejaVuSans-20" x="1954.089844"/>
     <use xlink:href="#DejaVuSans-54" x="1985.876953"/>
     <use xlink:href="#DejaVuSans-69" x="2043.835938"/>
     <use xlink:href="#DejaVuSans-6d" x="2071.619141"/>
     <use xlink:href="#DejaVuSans-65" x="2169.03125"/>
     <use xlink:href="#DejaVuSans-20" x="2230.554688"/>
     <use xlink:href="#DejaVuSans-6f" x="2262.341797"/>
     <use xlink:href="#DejaVuSans-66" x="2323.523438"/>
     <use xlink:href="#DejaVuSans-20" x="2358.728516"/>
     <use xlink:href="#DejaVuSans-47" x="2390.515625"/>
     <use xlink:href="#DejaVuSans-72" x="2468.005859"/>
     <use xlink:href="#DejaVuSans-6f" x="2506.869141"/>
     <use xlink:href="#DejaVuSans-75" x="2568.050781"/>
     <use xlink:href="#DejaVuSans-70" x="2631.429688"/>
     <use xlink:href="#DejaVuSans-20" x="2694.90625"/>
     <use xlink:href="#DejaVuSans-66" x="2726.693359"/>
     <use xlink:href="#DejaVuSans-65" x="2761.898438"/>
     <use xlink:href="#DejaVuSans-6d" x="2823.421875"/>
     <use xlink:href="#DejaVuSans-61" x="2920.833984"/>
     <use xlink:href="#DejaVuSans-6c" x="2982.113281"/>
     <use xlink:href="#DejaVuSans-65" x="3009.896484"/>
     <use xlink:href="#DejaVuSans-20" x="3071.419922"/>
     <use xlink:href="#DejaVuSans-4d" x="3103.207031"/>
     <use xlink:href="#DejaVuSans-6f" x="3189.486328"/>
     <use xlink:href="#DejaVuSans-75" x="3250.667969"/>
     <use xlink:href="#DejaVuSans-73" x="3314.046875"/>
     <use xlink:href="#DejaVuSans-65" x="3366.146484"/>
     <use xlink:href="#DejaVuSans-20" x="3427.669922"/>
     <use xlink:href="#DejaVuSans-4d" x="3459.457031"/>
     <use xlink:href="#DejaVuSans-37" x="3545.736328"/>
     <use xlink:href="#DejaVuSans-31" x="3609.359375"/>
    </g>
   </g>
   <g id="legend_1">
    <g id="patch_47">
     <path d="M 1086.550625 64.233437 
L 1158.235 64.233437 
Q 1160.235 64.233437 1160.235 62.233437 
L 1160.235 33.877187 
Q 1160.235 31.877187 1158.235 31.877187 
L 1086.550625 31.877187 
Q 1084.550625 31.877187 1084.550625 33.877187 
L 1084.550625 62.233437 
Q 1084.550625 64.233437 1086.550625 64.233437 
z
" style="fill: #ffffff; opacity: 0.8; stroke: #cccccc; stroke-linejoin: miter"/>
    </g>
    <g id="patch_48">
     <path d="M 1088.550625 43.475625 
L 1108.550625 43.475625 
L 1108.550625 36.475625 
L 1088.550625 36.475625 
z
" style="fill: #add8e6; opacity: 0.9; stroke: #add8e6; stroke-linejoin: miter"/>
    </g>
    <g id="text_20">
     <!-- Meal -->
     <g transform="translate(1116.550625 43.475625) scale(0.1 -0.1)">
      <use xlink:href="#DejaVuSans-4d"/>
      <use xlink:href="#DejaVuSans-65" x="86.279297"/>
      <use xlink:href="#DejaVuSans-61" x="147.802734"/>
      <use xlink:href="#DejaVuSans-6c" x="209.082031"/>
     </g>
    </g>
    <g id="patch_49">
     <path d="M 1088.550625 58.15375 
L 1108.550625 58.15375 
L 1108.550625 51.15375 
L 1088.550625 51.15375 
z
" style="fill: #808080; opacity: 0.5; stroke: #808080; stroke-linejoin: miter"/>
    </g>
    <g id="text_21">
     <!-- Inactive -->
     <g transform="translate(1116.550625 58.15375) scale(0.1 -0.1)">
      <defs>
       <path id="DejaVuSans-49" d="M 628 4666 
L 1259 4666 
L 1259 0 
L 628 0 
L 628 4666 
z
" transform="scale(0.015625)"/>
       <path id="DejaVuSans-63" d="M 3122 3366 
L 3122 2828 
Q 2878 2963 2633 3030 
Q 2388 3097 2138 3097 
Q 1578 3097 1268 2742 
Q 959 2388 959 1747 
Q 959 1106 1268 751 
Q 1578 397 2138 397 
Q 2388 397 2633 464 
Q 2878 531 3122 666 
L 3122 134 
Q 2881 22 2623 -34 
Q 2366 -91 2075 -91 
Q 1284 -91 818 406 
Q 353 903 353 1747 
Q 353 2603 823 3093 
Q 1294 3584 2113 3584 
Q 2378 3584 2631 3529 
Q 2884 3475 3122 3366 
z
" transform="scale(0.015625)"/>
      </defs>
      <use xlink:href="#DejaVuSans-49"/>
      <use xlink:href="#DejaVuSans-6e" x="29.492188"/>
      <use xlink:href="#DejaVuSans-61" x="92.871094"/>
      <use xlink:href="#DejaVuSans-63" x="154.150391"/>
      <use xlink:href="#DejaVuSans-74" x="209.130859"/>
      <use xlink:href="#DejaVuSans-69" x="248.339844"/>
      <use xlink:href="#DejaVuSans-76" x="276.123047"/>
      <use xlink:href="#DejaVuSans-65" x="335.302734"/>
     </g>
    </g>
   </g>
  </g>
 </g>
 <defs>
  <clipPath id="pe810513e6f">
   <rect x="49.235" y="26.877187" width="1116" height="332.64"/>
  </clipPath>
 </defs>
</svg>
