<?xml version="1.0" encoding="utf-8" standalone="no"?>
<!DOCTYPE svg PUBLIC "-//W3C//DTD SVG 1.1//EN"
  "http://www.w3.org/Graphics/SVG/1.1/DTD/svg11.dtd">
<svg xmlns:xlink="http://www.w3.org/1999/xlink" width="424.751875pt" height="402.464375pt" viewBox="0 0 424.751875 402.464375" xmlns="http://www.w3.org/2000/svg" version="1.1">
 <metadata>
  <rdf:RDF xmlns:dc="http://purl.org/dc/elements/1.1/" xmlns:cc="http://creativecommons.org/ns#" xmlns:rdf="http://www.w3.org/1999/02/22-rdf-syntax-ns#">
   <cc:Work>
    <dc:type rdf:resource="http://purl.org/dc/dcmitype/StillImage"/>
    <dc:date>2025-10-02T16:55:37.593850</dc:date>
    <dc:format>image/svg+xml</dc:format>
    <dc:creator>
     <cc:Agent>
      <dc:title>Matplotlib v3.8.4, https://matplotlib.org/</dc:title>
     </cc:Agent>
    </dc:creator>
   </cc:Work>
  </rdf:RDF>
 </metadata>
 <defs>
  <style type="text/css">*{stroke-linejoin: round; stroke-linecap: butt}</style>
 </defs>
 <g id="figure_1">
  <g id="patch_1">
   <path d="M 0 402.464375 
L 424.751875 402.464375 
L 424.751875 0 
L 0 0 
z
" style="fill: #ffffff"/>
  </g>
  <g id="axes_1">
   <g id="patch_2">
    <path d="M 38.111875 361.036875 
L 417.551875 361.036875 
L 417.551875 28.396875 
L 38.111875 28.396875 
z
" style="fill: #ffffff"/>
   </g>
   <g id="PolyCollection_1">
    <defs>
     <path id="mf0ef23f5ed" d="M 106.923809 -56.5475 
L 95.779941 -56.5475 
L 95.349559 -59.602045 
L 94.904922 -62.656591 
L 94.447174 -65.711136 
L 93.97762 -68.765682 
L 93.497745 -71.820227 
L 93.009223 -74.874773 
L 92.513933 -77.929318 
L 92.013965 -80.983864 
L 91.511634 -84.038409 
L 91.009473 -87.092955 
L 90.510237 -90.1475 
L 90.016888 -93.202045 
L 89.532577 -96.256591 
L 89.060614 -99.311136 
L 88.604437 -102.365682 
L 88.167564 -105.420227 
L 87.753537 -108.474773 
L 87.365871 -111.529318 
L 87.007982 -114.583864 
L 86.683123 -117.638409 
L 86.394314 -120.692955 
L 86.144272 -123.7475 
L 85.935348 -126.802045 
L 85.769465 -129.856591 
L 85.648068 -132.911136 
L 85.57208 -135.965682 
L 85.541875 -139.020227 
L 85.557255 -142.074773 
L 85.617449 -145.129318 
L 85.721123 -148.183864 
L 85.866405 -151.238409 
L 86.05092 -154.292955 
L 86.271842 -157.3475 
L 86.525955 -160.402045 
L 86.809723 -163.456591 
L 87.119369 -166.511136 
L 87.450956 -169.565682 
L 87.800469 -172.620227 
L 88.163904 -175.674773 
L 88.537344 -178.729318 
L 88.917034 -181.783864 
L 89.29945 -184.838409 
L 89.681359 -187.892955 
L 90.059859 -190.9475 
L 90.432421 -194.002045 
L 90.796907 -197.056591 
L 91.151581 -200.111136 
L 91.495108 -203.165682 
L 91.826541 -206.220227 
L 92.145295 -209.274773 
L 92.451121 -212.329318 
L 92.744064 -215.383864 
L 93.024422 -218.438409 
L 93.292702 -221.492955 
L 93.549575 -224.5475 
L 93.795826 -227.602045 
L 94.032317 -230.656591 
L 94.259942 -233.711136 
L 94.479594 -236.765682 
L 94.692134 -239.820227 
L 94.898362 -242.874773 
L 95.098997 -245.929318 
L 95.294664 -248.983864 
L 95.485874 -252.038409 
L 95.673024 -255.092955 
L 95.856389 -258.1475 
L 96.036123 -261.202045 
L 96.212261 -264.256591 
L 96.384726 -267.311136 
L 96.55334 -270.365682 
L 96.717831 -273.420227 
L 96.877851 -276.474773 
L 97.03299 -279.529318 
L 97.1828 -282.583864 
L 97.32681 -285.638409 
L 97.464553 -288.692955 
L 97.595589 -291.7475 
L 97.719528 -294.802045 
L 97.836054 -297.856591 
L 97.944947 -300.911136 
L 98.046104 -303.965682 
L 98.139555 -307.020227 
L 98.225475 -310.074773 
L 98.304191 -313.129318 
L 98.376183 -316.183864 
L 98.442082 -319.238409 
L 98.502654 -322.292955 
L 98.558787 -325.3475 
L 98.611469 -328.402045 
L 98.661754 -331.456591 
L 98.71074 -334.511136 
L 98.759528 -337.565682 
L 98.80919 -340.620227 
L 98.860735 -343.674773 
L 98.915073 -346.729318 
L 98.972993 -349.783864 
L 99.03513 -352.838409 
L 99.101951 -355.892955 
L 99.173743 -358.9475 
L 103.530007 -358.9475 
L 103.530007 -358.9475 
L 103.601799 -355.892955 
L 103.66862 -352.838409 
L 103.730757 -349.783864 
L 103.788677 -346.729318 
L 103.843015 -343.674773 
L 103.89456 -340.620227 
L 103.944222 -337.565682 
L 103.99301 -334.511136 
L 104.041996 -331.456591 
L 104.092281 -328.402045 
L 104.144963 -325.3475 
L 104.201096 -322.292955 
L 104.261668 -319.238409 
L 104.327567 -316.183864 
L 104.399559 -313.129318 
L 104.478275 -310.074773 
L 104.564195 -307.020227 
L 104.657646 -303.965682 
L 104.758803 -300.911136 
L 104.867696 -297.856591 
L 104.984222 -294.802045 
L 105.108161 -291.7475 
L 105.239197 -288.692955 
L 105.37694 -285.638409 
L 105.52095 -282.583864 
L 105.67076 -279.529318 
L 105.825899 -276.474773 
L 105.985919 -273.420227 
L 106.15041 -270.365682 
L 106.319024 -267.311136 
L 106.491489 -264.256591 
L 106.667627 -261.202045 
L 106.847361 -258.1475 
L 107.030726 -255.092955 
L 107.217876 -252.038409 
L 107.409086 -248.983864 
L 107.604753 -245.929318 
L 107.805388 -242.874773 
L 108.011616 -239.820227 
L 108.224156 -236.765682 
L 108.443808 -233.711136 
L 108.671433 -230.656591 
L 108.907924 -227.602045 
L 109.154175 -224.5475 
L 109.411048 -221.492955 
L 109.679328 -218.438409 
L 109.959686 -215.383864 
L 110.252629 -212.329318 
L 110.558455 -209.274773 
L 110.877209 -206.220227 
L 111.208642 -203.165682 
L 111.552169 -200.111136 
L 111.906843 -197.056591 
L 112.271329 -194.002045 
L 112.643891 -190.9475 
L 113.022391 -187.892955 
L 113.4043 -184.838409 
L 113.786716 -181.783864 
L 114.166406 -178.729318 
L 114.539846 -175.674773 
L 114.903281 -172.620227 
L 115.252794 -169.565682 
L 115.584381 -166.511136 
L 115.894027 -163.456591 
L 116.177795 -160.402045 
L 116.431908 -157.3475 
L 116.65283 -154.292955 
L 116.837345 -151.238409 
L 116.982627 -148.183864 
L 117.086301 -145.129318 
L 117.146495 -142.074773 
L 117.161875 -139.020227 
L 117.13167 -135.965682 
L 117.055682 -132.911136 
L 116.934285 -129.856591 
L 116.768402 -126.802045 
L 116.559478 -123.7475 
L 116.309436 -120.692955 
L 116.020627 -117.638409 
L 115.695768 -114.583864 
L 115.337879 -111.529318 
L 114.950213 -108.474773 
L 114.536186 -105.420227 
L 114.099313 -102.365682 
L 113.643136 -99.311136 
L 113.171173 -96.256591 
L 112.686862 -93.202045 
L 112.193513 -90.1475 
L 111.694277 -87.092955 
L 111.192116 -84.038409 
L 110.689785 -80.983864 
L 110.189817 -77.929318 
L 109.694527 -74.874773 
L 109.206005 -71.820227 
L 108.72613 -68.765682 
L 108.256576 -65.711136 
L 107.798828 -62.656591 
L 107.354191 -59.602045 
L 106.923809 -56.5475 
z
" style="stroke: #000000; stroke-opacity: 0.65"/>
    </defs>
    <g clip-path="url(#p091bbf22e8)">
     <use xlink:href="#mf0ef23f5ed" x="0" y="402.464375" style="fill: #425df5; fill-opacity: 0.65; stroke: #000000; stroke-opacity: 0.65"/>
    </g>
   </g>
   <g id="PolyCollection_2">
    <defs>
     <path id="m0a493f43ae" d="M 239.298149 -89.796545 
L 216.365601 -89.796545 
L 215.860024 -92.076047 
L 215.374569 -94.355549 
L 214.912667 -96.635052 
L 214.477516 -98.914554 
L 214.072035 -101.194056 
L 213.698815 -103.473559 
L 213.360084 -105.753061 
L 213.057671 -108.032563 
L 212.79299 -110.312066 
L 212.567022 -112.591568 
L 212.380307 -114.87107 
L 212.232952 -117.150573 
L 212.124639 -119.430075 
L 212.054647 -121.709578 
L 212.021875 -123.98908 
L 212.024879 -126.268582 
L 212.061905 -128.548085 
L 212.130935 -130.827587 
L 212.229728 -133.107089 
L 212.355868 -135.386592 
L 212.506807 -137.666094 
L 212.679912 -139.945596 
L 212.872504 -142.225099 
L 213.081902 -144.504601 
L 213.305455 -146.784103 
L 213.540576 -149.063606 
L 213.784766 -151.343108 
L 214.035638 -153.62261 
L 214.290934 -155.902113 
L 214.548537 -158.181615 
L 214.806484 -160.461117 
L 215.062965 -162.74062 
L 215.31633 -165.020122 
L 215.565087 -167.299625 
L 215.807901 -169.579127 
L 216.043591 -171.858629 
L 216.271125 -174.138132 
L 216.489618 -176.417634 
L 216.698325 -178.697136 
L 216.896642 -180.976639 
L 217.084097 -183.256141 
L 217.260352 -185.535643 
L 217.4252 -187.815146 
L 217.578563 -190.094648 
L 217.720487 -192.37415 
L 217.851144 -194.653653 
L 217.970828 -196.933155 
L 218.079951 -199.212657 
L 218.179038 -201.49216 
L 218.268724 -203.771662 
L 218.349743 -206.051164 
L 218.422922 -208.330667 
L 218.489168 -210.610169 
L 218.54946 -212.889671 
L 218.604833 -215.169174 
L 218.656363 -217.448676 
L 218.705155 -219.728179 
L 218.752326 -222.007681 
L 218.798986 -224.287183 
L 218.846227 -226.566686 
L 218.895104 -228.846188 
L 218.946624 -231.12569 
L 219.001727 -233.405193 
L 219.061282 -235.684695 
L 219.126069 -237.964197 
L 219.196778 -240.2437 
L 219.273995 -242.523202 
L 219.358207 -244.802704 
L 219.44979 -247.082207 
L 219.549017 -249.361709 
L 219.656057 -251.641211 
L 219.770979 -253.920714 
L 219.893754 -256.200216 
L 220.024269 -258.479718 
L 220.162328 -260.759221 
L 220.307663 -263.038723 
L 220.459944 -265.318226 
L 220.618789 -267.597728 
L 220.78377 -269.87723 
L 220.954427 -272.156733 
L 221.130272 -274.436235 
L 221.3108 -276.715737 
L 221.495498 -278.99524 
L 221.683846 -281.274742 
L 221.875327 -283.554244 
L 222.06943 -285.833747 
L 222.265652 -288.113249 
L 222.463502 -290.392751 
L 222.662502 -292.672254 
L 222.862185 -294.951756 
L 223.062099 -297.231258 
L 223.261803 -299.510761 
L 223.460866 -301.790263 
L 223.658868 -304.069765 
L 223.855398 -306.349268 
L 224.05005 -308.62877 
L 224.242425 -310.908272 
L 224.432131 -313.187775 
L 224.618781 -315.467277 
L 231.044969 -315.467277 
L 231.044969 -315.467277 
L 231.231619 -313.187775 
L 231.421325 -310.908272 
L 231.6137 -308.62877 
L 231.808352 -306.349268 
L 232.004882 -304.069765 
L 232.202884 -301.790263 
L 232.401947 -299.510761 
L 232.601651 -297.231258 
L 232.801565 -294.951756 
L 233.001248 -292.672254 
L 233.200248 -290.392751 
L 233.398098 -288.113249 
L 233.59432 -285.833747 
L 233.788423 -283.554244 
L 233.979904 -281.274742 
L 234.168252 -278.99524 
L 234.35295 -276.715737 
L 234.533478 -274.436235 
L 234.709323 -272.156733 
L 234.87998 -269.87723 
L 235.044961 -267.597728 
L 235.203806 -265.318226 
L 235.356087 -263.038723 
L 235.501422 -260.759221 
L 235.639481 -258.479718 
L 235.769996 -256.200216 
L 235.892771 -253.920714 
L 236.007693 -251.641211 
L 236.114733 -249.361709 
L 236.21396 -247.082207 
L 236.305543 -244.802704 
L 236.389755 -242.523202 
L 236.466972 -240.2437 
L 236.537681 -237.964197 
L 236.602468 -235.684695 
L 236.662023 -233.405193 
L 236.717126 -231.12569 
L 236.768646 -228.846188 
L 236.817523 -226.566686 
L 236.864764 -224.287183 
L 236.911424 -222.007681 
L 236.958595 -219.728179 
L 237.007387 -217.448676 
L 237.058917 -215.169174 
L 237.11429 -212.889671 
L 237.174582 -210.610169 
L 237.240828 -208.330667 
L 237.314007 -206.051164 
L 237.395026 -203.771662 
L 237.484712 -201.49216 
L 237.583799 -199.212657 
L 237.692922 -196.933155 
L 237.812606 -194.653653 
L 237.943263 -192.37415 
L 238.085187 -190.094648 
L 238.23855 -187.815146 
L 238.403398 -185.535643 
L 238.579653 -183.256141 
L 238.767108 -180.976639 
L 238.965425 -178.697136 
L 239.174132 -176.417634 
L 239.392625 -174.138132 
L 239.620159 -171.858629 
L 239.855849 -169.579127 
L 240.098663 -167.299625 
L 240.34742 -165.020122 
L 240.600785 -162.74062 
L 240.857266 -160.461117 
L 241.115213 -158.181615 
L 241.372816 -155.902113 
L 241.628112 -153.62261 
L 241.878984 -151.343108 
L 242.123174 -149.063606 
L 242.358295 -146.784103 
L 242.581848 -144.504601 
L 242.791246 -142.225099 
L 242.983838 -139.945596 
L 243.156943 -137.666094 
L 243.307882 -135.386592 
L 243.434022 -133.107089 
L 243.532815 -130.827587 
L 243.601845 -128.548085 
L 243.638871 -126.268582 
L 243.641875 -123.98908 
L 243.609103 -121.709578 
L 243.539111 -119.430075 
L 243.430798 -117.150573 
L 243.283443 -114.87107 
L 243.096728 -112.591568 
L 242.87076 -110.312066 
L 242.606079 -108.032563 
L 242.303666 -105.753061 
L 241.964935 -103.473559 
L 241.591715 -101.194056 
L 241.186234 -98.914554 
L 240.751083 -96.635052 
L 240.289181 -94.355549 
L 239.803726 -92.076047 
L 239.298149 -89.796545 
z
" style="stroke: #000000; stroke-opacity: 0.65"/>
    </defs>
    <g clip-path="url(#p091bbf22e8)">
     <use xlink:href="#m0a493f43ae" x="0" y="402.464375" style="fill: #f55442; fill-opacity: 0.65; stroke: #000000; stroke-opacity: 0.65"/>
    </g>
   </g>
   <g id="PolyCollection_3">
    <defs>
     <path id="m6eb6fff061" d="M 361.587734 -66.577649 
L 347.036016 -66.577649 
L 346.701884 -68.64523 
L 346.366216 -70.712812 
L 346.030051 -72.780393 
L 345.694462 -74.847975 
L 345.360557 -76.915557 
L 345.029465 -78.983138 
L 344.702335 -81.05072 
L 344.380322 -83.118301 
L 344.064582 -85.185883 
L 343.756263 -87.253464 
L 343.456493 -89.321046 
L 343.166373 -91.388627 
L 342.886967 -93.456209 
L 342.619293 -95.52379 
L 342.36431 -97.591372 
L 342.122916 -99.658954 
L 341.895929 -101.726535 
L 341.684088 -103.794117 
L 341.488039 -105.861698 
L 341.308329 -107.92928 
L 341.145399 -109.996861 
L 340.999579 -112.064443 
L 340.871082 -114.132024 
L 340.759998 -116.199606 
L 340.666293 -118.267187 
L 340.589806 -120.334769 
L 340.530248 -122.402351 
L 340.487198 -124.469932 
L 340.460112 -126.537514 
L 340.448317 -128.605095 
L 340.451019 -130.672677 
L 340.467307 -132.740258 
L 340.496157 -134.80784 
L 340.536442 -136.875421 
L 340.586936 -138.943003 
L 340.646329 -141.010584 
L 340.713233 -143.078166 
L 340.786193 -145.145748 
L 340.863705 -147.213329 
L 340.944223 -149.280911 
L 341.026179 -151.348492 
L 341.107992 -153.416074 
L 341.188091 -155.483655 
L 341.264925 -157.551237 
L 341.33698 -159.618818 
L 341.402799 -161.6864 
L 341.460997 -163.753982 
L 341.510276 -165.821563 
L 341.549441 -167.889145 
L 341.577417 -169.956726 
L 341.593262 -172.024308 
L 341.596179 -174.091889 
L 341.585532 -176.159471 
L 341.560853 -178.227052 
L 341.52185 -180.294634 
L 341.468419 -182.362215 
L 341.400645 -184.429797 
L 341.318804 -186.497379 
L 341.223369 -188.56496 
L 341.115003 -190.632542 
L 340.994557 -192.700123 
L 340.863066 -194.767705 
L 340.721738 -196.835286 
L 340.571942 -198.902868 
L 340.415199 -200.970449 
L 340.253165 -203.038031 
L 340.087613 -205.105612 
L 339.920418 -207.173194 
L 339.753535 -209.240776 
L 339.588976 -211.308357 
L 339.428794 -213.375939 
L 339.275058 -215.44352 
L 339.129827 -217.511102 
L 338.995132 -219.578683 
L 338.872954 -221.646265 
L 338.765198 -223.713846 
L 338.673679 -225.781428 
L 338.600094 -227.849009 
L 338.546012 -229.916591 
L 338.512853 -231.984173 
L 338.501875 -234.051754 
L 338.514162 -236.119336 
L 338.55061 -238.186917 
L 338.611925 -240.254499 
L 338.698611 -242.32208 
L 338.81097 -244.389662 
L 338.9491 -246.457243 
L 339.112896 -248.524825 
L 339.302053 -250.592407 
L 339.516071 -252.659988 
L 339.754265 -254.72757 
L 340.01577 -256.795151 
L 340.299558 -258.862733 
L 340.604443 -260.930314 
L 340.929102 -262.997896 
L 341.272085 -265.065477 
L 341.631835 -267.133059 
L 342.006701 -269.20064 
L 342.394957 -271.268222 
L 366.228793 -271.268222 
L 366.228793 -271.268222 
L 366.617049 -269.20064 
L 366.991915 -267.133059 
L 367.351665 -265.065477 
L 367.694648 -262.997896 
L 368.019307 -260.930314 
L 368.324192 -258.862733 
L 368.60798 -256.795151 
L 368.869485 -254.72757 
L 369.107679 -252.659988 
L 369.321697 -250.592407 
L 369.510854 -248.524825 
L 369.67465 -246.457243 
L 369.81278 -244.389662 
L 369.925139 -242.32208 
L 370.011825 -240.254499 
L 370.07314 -238.186917 
L 370.109588 -236.119336 
L 370.121875 -234.051754 
L 370.110897 -231.984173 
L 370.077738 -229.916591 
L 370.023656 -227.849009 
L 369.950071 -225.781428 
L 369.858552 -223.713846 
L 369.750796 -221.646265 
L 369.628618 -219.578683 
L 369.493923 -217.511102 
L 369.348692 -215.44352 
L 369.194956 -213.375939 
L 369.034774 -211.308357 
L 368.870215 -209.240776 
L 368.703332 -207.173194 
L 368.536137 -205.105612 
L 368.370585 -203.038031 
L 368.208551 -200.970449 
L 368.051808 -198.902868 
L 367.902012 -196.835286 
L 367.760684 -194.767705 
L 367.629193 -192.700123 
L 367.508747 -190.632542 
L 367.400381 -188.56496 
L 367.304946 -186.497379 
L 367.223105 -184.429797 
L 367.155331 -182.362215 
L 367.1019 -180.294634 
L 367.062897 -178.227052 
L 367.038218 -176.159471 
L 367.027571 -174.091889 
L 367.030488 -172.024308 
L 367.046333 -169.956726 
L 367.074309 -167.889145 
L 367.113474 -165.821563 
L 367.162753 -163.753982 
L 367.220951 -161.6864 
L 367.28677 -159.618818 
L 367.358825 -157.551237 
L 367.435659 -155.483655 
L 367.515758 -153.416074 
L 367.597571 -151.348492 
L 367.679527 -149.280911 
L 367.760045 -147.213329 
L 367.837557 -145.145748 
L 367.910517 -143.078166 
L 367.977421 -141.010584 
L 368.036814 -138.943003 
L 368.087308 -136.875421 
L 368.127593 -134.80784 
L 368.156443 -132.740258 
L 368.172731 -130.672677 
L 368.175433 -128.605095 
L 368.163638 -126.537514 
L 368.136552 -124.469932 
L 368.093502 -122.402351 
L 368.033944 -120.334769 
L 367.957457 -118.267187 
L 367.863752 -116.199606 
L 367.752668 -114.132024 
L 367.624171 -112.064443 
L 367.478351 -109.996861 
L 367.315421 -107.92928 
L 367.135711 -105.861698 
L 366.939662 -103.794117 
L 366.727821 -101.726535 
L 366.500834 -99.658954 
L 366.25944 -97.591372 
L 366.004457 -95.52379 
L 365.736783 -93.456209 
L 365.457377 -91.388627 
L 365.167257 -89.321046 
L 364.867487 -87.253464 
L 364.559168 -85.185883 
L 364.243428 -83.118301 
L 363.921415 -81.05072 
L 363.594285 -78.983138 
L 363.263193 -76.915557 
L 362.929288 -74.847975 
L 362.593699 -72.780393 
L 362.257534 -70.712812 
L 361.921866 -68.64523 
L 361.587734 -66.577649 
z
" style="stroke: #000000; stroke-opacity: 0.65"/>
    </defs>
    <g clip-path="url(#p091bbf22e8)">
     <use xlink:href="#m6eb6fff061" x="0" y="402.464375" style="fill: #0ec72a; fill-opacity: 0.65; stroke: #000000; stroke-opacity: 0.65"/>
    </g>
   </g>
   <g id="matplotlib.axis_1">
    <g id="xtick_1">
     <g id="line2d_1">
      <defs>
       <path id="md671d2fe34" d="M 0 0 
L 0 3.5 
" style="stroke: #000000; stroke-width: 0.8"/>
      </defs>
      <g>
       <use xlink:href="#md671d2fe34" x="101.351875" y="361.036875" style="stroke: #000000; stroke-width: 0.8"/>
      </g>
     </g>
     <g id="text_1">
      <!-- cask -->
      <g transform="translate(90.038594 375.635312) scale(0.1 -0.1)">
       <defs>
        <path id="DejaVuSans-63" d="M 3122 3366 
L 3122 2828 
Q 2878 2963 2633 3030 
Q 2388 3097 2138 3097 
Q 1578 3097 1268 2742 
Q 959 2388 959 1747 
Q 959 1106 1268 751 
Q 1578 397 2138 397 
Q 2388 397 2633 464 
Q 2878 531 3122 666 
L 3122 134 
Q 2881 22 2623 -34 
Q 2366 -91 2075 -91 
Q 1284 -91 818 406 
Q 353 903 353 1747 
Q 353 2603 823 3093 
Q 1294 3584 2113 3584 
Q 2378 3584 2631 3529 
Q 2884 3475 3122 3366 
z
" transform="scale(0.015625)"/>
        <path id="DejaVuSans-61" d="M 2194 1759 
Q 1497 1759 1228 1600 
Q 959 1441 959 1056 
Q 959 750 1161 570 
Q 1363 391 1709 391 
Q 2188 391 2477 730 
Q 2766 1069 2766 1631 
L 2766 1759 
L 2194 1759 
z
M 3341 1997 
L 3341 0 
L 2766 0 
L 2766 531 
Q 2569 213 2275 61 
Q 1981 -91 1556 -91 
Q 1019 -91 701 211 
Q 384 513 384 1019 
Q 384 1609 779 1909 
Q 1175 2209 1959 2209 
L 2766 2209 
L 2766 2266 
Q 2766 2663 2505 2880 
Q 2244 3097 1772 3097 
Q 1472 3097 1187 3025 
Q 903 2953 641 2809 
L 641 3341 
Q 956 3463 1253 3523 
Q 1550 3584 1831 3584 
Q 2591 3584 2966 3190 
Q 3341 2797 3341 1997 
z
" transform="scale(0.015625)"/>
        <path id="DejaVuSans-73" d="M 2834 3397 
L 2834 2853 
Q 2591 2978 2328 3040 
Q 2066 3103 1784 3103 
Q 1356 3103 1142 2972 
Q 928 2841 928 2578 
Q 928 2378 1081 2264 
Q 1234 2150 1697 2047 
L 1894 2003 
Q 2506 1872 2764 1633 
Q 3022 1394 3022 966 
Q 3022 478 2636 193 
Q 2250 -91 1575 -91 
Q 1294 -91 989 -36 
Q 684 19 347 128 
L 347 722 
Q 666 556 975 473 
Q 1284 391 1588 391 
Q 1994 391 2212 530 
Q 2431 669 2431 922 
Q 2431 1156 2273 1281 
Q 2116 1406 1581 1522 
L 1381 1569 
Q 847 1681 609 1914 
Q 372 2147 372 2553 
Q 372 3047 722 3315 
Q 1072 3584 1716 3584 
Q 2034 3584 2315 3537 
Q 2597 3491 2834 3397 
z
" transform="scale(0.015625)"/>
        <path id="DejaVuSans-6b" d="M 581 4863 
L 1159 4863 
L 1159 1991 
L 2875 3500 
L 3609 3500 
L 1753 1863 
L 3688 0 
L 2938 0 
L 1159 1709 
L 1159 0 
L 581 0 
L 581 4863 
z
" transform="scale(0.015625)"/>
       </defs>
       <use xlink:href="#DejaVuSans-63"/>
       <use xlink:href="#DejaVuSans-61" x="54.980469"/>
       <use xlink:href="#DejaVuSans-73" x="116.259766"/>
       <use xlink:href="#DejaVuSans-6b" x="168.359375"/>
      </g>
     </g>
    </g>
    <g id="xtick_2">
     <g id="line2d_2">
      <g>
       <use xlink:href="#md671d2fe34" x="227.831875" y="361.036875" style="stroke: #000000; stroke-width: 0.8"/>
      </g>
     </g>
     <g id="text_2">
      <!-- ctrl -->
      <g transform="translate(219.677969 375.635312) scale(0.1 -0.1)">
       <defs>
        <path id="DejaVuSans-74" d="M 1172 4494 
L 1172 3500 
L 2356 3500 
L 2356 3053 
L 1172 3053 
L 1172 1153 
Q 1172 725 1289 603 
Q 1406 481 1766 481 
L 2356 481 
L 2356 0 
L 1766 0 
Q 1100 0 847 248 
Q 594 497 594 1153 
L 594 3053 
L 172 3053 
L 172 3500 
L 594 3500 
L 594 4494 
L 1172 4494 
z
" transform="scale(0.015625)"/>
        <path id="DejaVuSans-72" d="M 2631 2963 
Q 2534 3019 2420 3045 
Q 2306 3072 2169 3072 
Q 1681 3072 1420 2755 
Q 1159 2438 1159 1844 
L 1159 0 
L 581 0 
L 581 3500 
L 1159 3500 
L 1159 2956 
Q 1341 3275 1631 3429 
Q 1922 3584 2338 3584 
Q 2397 3584 2469 3576 
Q 2541 3569 2628 3553 
L 2631 2963 
z
" transform="scale(0.015625)"/>
        <path id="DejaVuSans-6c" d="M 603 4863 
L 1178 4863 
L 1178 0 
L 603 0 
L 603 4863 
z
" transform="scale(0.015625)"/>
       </defs>
       <use xlink:href="#DejaVuSans-63"/>
       <use xlink:href="#DejaVuSans-74" x="54.980469"/>
       <use xlink:href="#DejaVuSans-72" x="94.189453"/>
       <use xlink:href="#DejaVuSans-6c" x="135.302734"/>
      </g>
     </g>
    </g>
    <g id="xtick_3">
     <g id="line2d_3">
      <g>
       <use xlink:href="#md671d2fe34" x="354.311875" y="361.036875" style="stroke: #000000; stroke-width: 0.8"/>
      </g>
     </g>
     <g id="text_3">
      <!-- female -->
      <g transform="translate(337.075156 375.635312) scale(0.1 -0.1)">
       <defs>
        <path id="DejaVuSans-66" d="M 2375 4863 
L 2375 4384 
L 1825 4384 
Q 1516 4384 1395 4259 
Q 1275 4134 1275 3809 
L 1275 3500 
L 2222 3500 
L 2222 3053 
L 1275 3053 
L 1275 0 
L 697 0 
L 697 3053 
L 147 3053 
L 147 3500 
L 697 3500 
L 697 3744 
Q 697 4328 969 4595 
Q 1241 4863 1831 4863 
L 2375 4863 
z
" transform="scale(0.015625)"/>
        <path id="DejaVuSans-65" d="M 3597 1894 
L 3597 1613 
L 953 1613 
Q 991 1019 1311 708 
Q 1631 397 2203 397 
Q 2534 397 2845 478 
Q 3156 559 3463 722 
L 3463 178 
Q 3153 47 2828 -22 
Q 2503 -91 2169 -91 
Q 1331 -91 842 396 
Q 353 884 353 1716 
Q 353 2575 817 3079 
Q 1281 3584 2069 3584 
Q 2775 3584 3186 3129 
Q 3597 2675 3597 1894 
z
M 3022 2063 
Q 3016 2534 2758 2815 
Q 2500 3097 2075 3097 
Q 1594 3097 1305 2825 
Q 1016 2553 972 2059 
L 3022 2063 
z
" transform="scale(0.015625)"/>
        <path id="DejaVuSans-6d" d="M 3328 2828 
Q 3544 3216 3844 3400 
Q 4144 3584 4550 3584 
Q 5097 3584 5394 3201 
Q 5691 2819 5691 2113 
L 5691 0 
L 5113 0 
L 5113 2094 
Q 5113 2597 4934 2840 
Q 4756 3084 4391 3084 
Q 3944 3084 3684 2787 
Q 3425 2491 3425 1978 
L 3425 0 
L 2847 0 
L 2847 2094 
Q 2847 2600 2669 2842 
Q 2491 3084 2119 3084 
Q 1678 3084 1418 2786 
Q 1159 2488 1159 1978 
L 1159 0 
L 581 0 
L 581 3500 
L 1159 3500 
L 1159 2956 
Q 1356 3278 1631 3431 
Q 1906 3584 2284 3584 
Q 2666 3584 2933 3390 
Q 3200 3197 3328 2828 
z
" transform="scale(0.015625)"/>
       </defs>
       <use xlink:href="#DejaVuSans-66"/>
       <use xlink:href="#DejaVuSans-65" x="35.205078"/>
       <use xlink:href="#DejaVuSans-6d" x="96.728516"/>
       <use xlink:href="#DejaVuSans-61" x="194.140625"/>
       <use xlink:href="#DejaVuSans-6c" x="255.419922"/>
       <use xlink:href="#DejaVuSans-65" x="283.203125"/>
      </g>
     </g>
    </g>
    <g id="text_4">
     <!-- Groups -->
     <g transform="translate(202.877969 392.352812) scale(0.14 -0.14)">
      <defs>
       <path id="DejaVuSans-47" d="M 3809 666 
L 3809 1919 
L 2778 1919 
L 2778 2438 
L 4434 2438 
L 4434 434 
Q 4069 175 3628 42 
Q 3188 -91 2688 -91 
Q 1594 -91 976 548 
Q 359 1188 359 2328 
Q 359 3472 976 4111 
Q 1594 4750 2688 4750 
Q 3144 4750 3555 4637 
Q 3966 4525 4313 4306 
L 4313 3634 
Q 3963 3931 3569 4081 
Q 3175 4231 2741 4231 
Q 1884 4231 1454 3753 
Q 1025 3275 1025 2328 
Q 1025 1384 1454 906 
Q 1884 428 2741 428 
Q 3075 428 3337 486 
Q 3600 544 3809 666 
z
" transform="scale(0.015625)"/>
       <path id="DejaVuSans-6f" d="M 1959 3097 
Q 1497 3097 1228 2736 
Q 959 2375 959 1747 
Q 959 1119 1226 758 
Q 1494 397 1959 397 
Q 2419 397 2687 759 
Q 2956 1122 2956 1747 
Q 2956 2369 2687 2733 
Q 2419 3097 1959 3097 
z
M 1959 3584 
Q 2709 3584 3137 3096 
Q 3566 2609 3566 1747 
Q 3566 888 3137 398 
Q 2709 -91 1959 -91 
Q 1206 -91 779 398 
Q 353 888 353 1747 
Q 353 2609 779 3096 
Q 1206 3584 1959 3584 
z
" transform="scale(0.015625)"/>
       <path id="DejaVuSans-75" d="M 544 1381 
L 544 3500 
L 1119 3500 
L 1119 1403 
Q 1119 906 1312 657 
Q 1506 409 1894 409 
Q 2359 409 2629 706 
Q 2900 1003 2900 1516 
L 2900 3500 
L 3475 3500 
L 3475 0 
L 2900 0 
L 2900 538 
Q 2691 219 2414 64 
Q 2138 -91 1772 -91 
Q 1169 -91 856 284 
Q 544 659 544 1381 
z
M 1991 3584 
L 1991 3584 
z
" transform="scale(0.015625)"/>
       <path id="DejaVuSans-70" d="M 1159 525 
L 1159 -1331 
L 581 -1331 
L 581 3500 
L 1159 3500 
L 1159 2969 
Q 1341 3281 1617 3432 
Q 1894 3584 2278 3584 
Q 2916 3584 3314 3078 
Q 3713 2572 3713 1747 
Q 3713 922 3314 415 
Q 2916 -91 2278 -91 
Q 1894 -91 1617 61 
Q 1341 213 1159 525 
z
M 3116 1747 
Q 3116 2381 2855 2742 
Q 2594 3103 2138 3103 
Q 1681 3103 1420 2742 
Q 1159 2381 1159 1747 
Q 1159 1113 1420 752 
Q 1681 391 2138 391 
Q 2594 391 2855 752 
Q 3116 1113 3116 1747 
z
" transform="scale(0.015625)"/>
      </defs>
      <use xlink:href="#DejaVuSans-47"/>
      <use xlink:href="#DejaVuSans-72" x="77.490234"/>
      <use xlink:href="#DejaVuSans-6f" x="116.353516"/>
      <use xlink:href="#DejaVuSans-75" x="177.535156"/>
      <use xlink:href="#DejaVuSans-70" x="240.914062"/>
      <use xlink:href="#DejaVuSans-73" x="304.390625"/>
     </g>
    </g>
   </g>
   <g id="matplotlib.axis_2">
    <g id="ytick_1">
     <g id="line2d_4">
      <path d="M 38.111875 328.415133 
L 417.551875 328.415133 
" clip-path="url(#p091bbf22e8)" style="fill: none; stroke-dasharray: 2.96,1.28; stroke-dashoffset: 0; stroke: #b0b0b0; stroke-opacity: 0.3; stroke-width: 0.8"/>
     </g>
     <g id="line2d_5">
      <defs>
       <path id="mc6daadfdef" d="M 0 0 
L -3.5 0 
" style="stroke: #000000; stroke-width: 0.8"/>
      </defs>
      <g>
       <use xlink:href="#mc6daadfdef" x="38.111875" y="328.415133" style="stroke: #000000; stroke-width: 0.8"/>
      </g>
     </g>
     <g id="text_5">
      <!-- 1 -->
      <g transform="translate(24.749375 332.214352) scale(0.1 -0.1)">
       <defs>
        <path id="DejaVuSans-31" d="M 794 531 
L 1825 531 
L 1825 4091 
L 703 3866 
L 703 4441 
L 1819 4666 
L 2450 4666 
L 2450 531 
L 3481 531 
L 3481 0 
L 794 0 
L 794 531 
z
" transform="scale(0.015625)"/>
       </defs>
       <use xlink:href="#DejaVuSans-31"/>
      </g>
     </g>
    </g>
    <g id="ytick_2">
     <g id="line2d_6">
      <path d="M 38.111875 273.588933 
L 417.551875 273.588933 
" clip-path="url(#p091bbf22e8)" style="fill: none; stroke-dasharray: 2.96,1.28; stroke-dashoffset: 0; stroke: #b0b0b0; stroke-opacity: 0.3; stroke-width: 0.8"/>
     </g>
     <g id="line2d_7">
      <g>
       <use xlink:href="#mc6daadfdef" x="38.111875" y="273.588933" style="stroke: #000000; stroke-width: 0.8"/>
      </g>
     </g>
     <g id="text_6">
      <!-- 2 -->
      <g transform="translate(24.749375 277.388152) scale(0.1 -0.1)">
       <defs>
        <path id="DejaVuSans-32" d="M 1228 531 
L 3431 531 
L 3431 0 
L 469 0 
L 469 531 
Q 828 903 1448 1529 
Q 2069 2156 2228 2338 
Q 2531 2678 2651 2914 
Q 2772 3150 2772 3378 
Q 2772 3750 2511 3984 
Q 2250 4219 1831 4219 
Q 1534 4219 1204 4116 
Q 875 4013 500 3803 
L 500 4441 
Q 881 4594 1212 4672 
Q 1544 4750 1819 4750 
Q 2544 4750 2975 4387 
Q 3406 4025 3406 3419 
Q 3406 3131 3298 2873 
Q 3191 2616 2906 2266 
Q 2828 2175 2409 1742 
Q 1991 1309 1228 531 
z
" transform="scale(0.015625)"/>
       </defs>
       <use xlink:href="#DejaVuSans-32"/>
      </g>
     </g>
    </g>
    <g id="ytick_3">
     <g id="line2d_8">
      <path d="M 38.111875 218.762733 
L 417.551875 218.762733 
" clip-path="url(#p091bbf22e8)" style="fill: none; stroke-dasharray: 2.96,1.28; stroke-dashoffset: 0; stroke: #b0b0b0; stroke-opacity: 0.3; stroke-width: 0.8"/>
     </g>
     <g id="line2d_9">
      <g>
       <use xlink:href="#mc6daadfdef" x="38.111875" y="218.762733" style="stroke: #000000; stroke-width: 0.8"/>
      </g>
     </g>
     <g id="text_7">
      <!-- 3 -->
      <g transform="translate(24.749375 222.561951) scale(0.1 -0.1)">
       <defs>
        <path id="DejaVuSans-33" d="M 2597 2516 
Q 3050 2419 3304 2112 
Q 3559 1806 3559 1356 
Q 3559 666 3084 287 
Q 2609 -91 1734 -91 
Q 1441 -91 1130 -33 
Q 819 25 488 141 
L 488 750 
Q 750 597 1062 519 
Q 1375 441 1716 441 
Q 2309 441 2620 675 
Q 2931 909 2931 1356 
Q 2931 1769 2642 2001 
Q 2353 2234 1838 2234 
L 1294 2234 
L 1294 2753 
L 1863 2753 
Q 2328 2753 2575 2939 
Q 2822 3125 2822 3475 
Q 2822 3834 2567 4026 
Q 2313 4219 1838 4219 
Q 1578 4219 1281 4162 
Q 984 4106 628 3988 
L 628 4550 
Q 988 4650 1302 4700 
Q 1616 4750 1894 4750 
Q 2613 4750 3031 4423 
Q 3450 4097 3450 3541 
Q 3450 3153 3228 2886 
Q 3006 2619 2597 2516 
z
" transform="scale(0.015625)"/>
       </defs>
       <use xlink:href="#DejaVuSans-33"/>
      </g>
     </g>
    </g>
    <g id="ytick_4">
     <g id="line2d_10">
      <path d="M 38.111875 163.936532 
L 417.551875 163.936532 
" clip-path="url(#p091bbf22e8)" style="fill: none; stroke-dasharray: 2.96,1.28; stroke-dashoffset: 0; stroke: #b0b0b0; stroke-opacity: 0.3; stroke-width: 0.8"/>
     </g>
     <g id="line2d_11">
      <g>
       <use xlink:href="#mc6daadfdef" x="38.111875" y="163.936532" style="stroke: #000000; stroke-width: 0.8"/>
      </g>
     </g>
     <g id="text_8">
      <!-- 4 -->
      <g transform="translate(24.749375 167.735751) scale(0.1 -0.1)">
       <defs>
        <path id="DejaVuSans-34" d="M 2419 4116 
L 825 1625 
L 2419 1625 
L 2419 4116 
z
M 2253 4666 
L 3047 4666 
L 3047 1625 
L 3713 1625 
L 3713 1100 
L 3047 1100 
L 3047 0 
L 2419 0 
L 2419 1100 
L 313 1100 
L 313 1709 
L 2253 4666 
z
" transform="scale(0.015625)"/>
       </defs>
       <use xlink:href="#DejaVuSans-34"/>
      </g>
     </g>
    </g>
    <g id="ytick_5">
     <g id="line2d_12">
      <path d="M 38.111875 109.110332 
L 417.551875 109.110332 
" clip-path="url(#p091bbf22e8)" style="fill: none; stroke-dasharray: 2.96,1.28; stroke-dashoffset: 0; stroke: #b0b0b0; stroke-opacity: 0.3; stroke-width: 0.8"/>
     </g>
     <g id="line2d_13">
      <g>
       <use xlink:href="#mc6daadfdef" x="38.111875" y="109.110332" style="stroke: #000000; stroke-width: 0.8"/>
      </g>
     </g>
     <g id="text_9">
      <!-- 5 -->
      <g transform="translate(24.749375 112.909551) scale(0.1 -0.1)">
       <defs>
        <path id="DejaVuSans-35" d="M 691 4666 
L 3169 4666 
L 3169 4134 
L 1269 4134 
L 1269 2991 
Q 1406 3038 1543 3061 
Q 1681 3084 1819 3084 
Q 2600 3084 3056 2656 
Q 3513 2228 3513 1497 
Q 3513 744 3044 326 
Q 2575 -91 1722 -91 
Q 1428 -91 1123 -41 
Q 819 9 494 109 
L 494 744 
Q 775 591 1075 516 
Q 1375 441 1709 441 
Q 2250 441 2565 725 
Q 2881 1009 2881 1497 
Q 2881 1984 2565 2268 
Q 2250 2553 1709 2553 
Q 1456 2553 1204 2497 
Q 953 2441 691 2322 
L 691 4666 
z
" transform="scale(0.015625)"/>
       </defs>
       <use xlink:href="#DejaVuSans-35"/>
      </g>
     </g>
    </g>
    <g id="ytick_6">
     <g id="line2d_14">
      <path d="M 38.111875 54.284132 
L 417.551875 54.284132 
" clip-path="url(#p091bbf22e8)" style="fill: none; stroke-dasharray: 2.96,1.28; stroke-dashoffset: 0; stroke: #b0b0b0; stroke-opacity: 0.3; stroke-width: 0.8"/>
     </g>
     <g id="line2d_15">
      <g>
       <use xlink:href="#mc6daadfdef" x="38.111875" y="54.284132" style="stroke: #000000; stroke-width: 0.8"/>
      </g>
     </g>
     <g id="text_10">
      <!-- 6 -->
      <g transform="translate(24.749375 58.08335) scale(0.1 -0.1)">
       <defs>
        <path id="DejaVuSans-36" d="M 2113 2584 
Q 1688 2584 1439 2293 
Q 1191 2003 1191 1497 
Q 1191 994 1439 701 
Q 1688 409 2113 409 
Q 2538 409 2786 701 
Q 3034 994 3034 1497 
Q 3034 2003 2786 2293 
Q 2538 2584 2113 2584 
z
M 3366 4563 
L 3366 3988 
Q 3128 4100 2886 4159 
Q 2644 4219 2406 4219 
Q 1781 4219 1451 3797 
Q 1122 3375 1075 2522 
Q 1259 2794 1537 2939 
Q 1816 3084 2150 3084 
Q 2853 3084 3261 2657 
Q 3669 2231 3669 1497 
Q 3669 778 3244 343 
Q 2819 -91 2113 -91 
Q 1303 -91 875 529 
Q 447 1150 447 2328 
Q 447 3434 972 4092 
Q 1497 4750 2381 4750 
Q 2619 4750 2861 4703 
Q 3103 4656 3366 4563 
z
" transform="scale(0.015625)"/>
       </defs>
       <use xlink:href="#DejaVuSans-36"/>
      </g>
     </g>
    </g>
    <g id="text_11">
     <!-- First Good Meal Time (hours) -->
     <g transform="translate(17.837812 295.631719) rotate(-90) scale(0.14 -0.14)">
      <defs>
       <path id="DejaVuSans-46" d="M 628 4666 
L 3309 4666 
L 3309 4134 
L 1259 4134 
L 1259 2759 
L 3109 2759 
L 3109 2228 
L 1259 2228 
L 1259 0 
L 628 0 
L 628 4666 
z
" transform="scale(0.015625)"/>
       <path id="DejaVuSans-69" d="M 603 3500 
L 1178 3500 
L 1178 0 
L 603 0 
L 603 3500 
z
M 603 4863 
L 1178 4863 
L 1178 4134 
L 603 4134 
L 603 4863 
z
" transform="scale(0.015625)"/>
       <path id="DejaVuSans-20" transform="scale(0.015625)"/>
       <path id="DejaVuSans-64" d="M 2906 2969 
L 2906 4863 
L 3481 4863 
L 3481 0 
L 2906 0 
L 2906 525 
Q 2725 213 2448 61 
Q 2172 -91 1784 -91 
Q 1150 -91 751 415 
Q 353 922 353 1747 
Q 353 2572 751 3078 
Q 1150 3584 1784 3584 
Q 2172 3584 2448 3432 
Q 2725 3281 2906 2969 
z
M 947 1747 
Q 947 1113 1208 752 
Q 1469 391 1925 391 
Q 2381 391 2643 752 
Q 2906 1113 2906 1747 
Q 2906 2381 2643 2742 
Q 2381 3103 1925 3103 
Q 1469 3103 1208 2742 
Q 947 2381 947 1747 
z
" transform="scale(0.015625)"/>
       <path id="DejaVuSans-4d" d="M 628 4666 
L 1569 4666 
L 2759 1491 
L 3956 4666 
L 4897 4666 
L 4897 0 
L 4281 0 
L 4281 4097 
L 3078 897 
L 2444 897 
L 1241 4097 
L 1241 0 
L 628 0 
L 628 4666 
z
" transform="scale(0.015625)"/>
       <path id="DejaVuSans-54" d="M -19 4666 
L 3928 4666 
L 3928 4134 
L 2272 4134 
L 2272 0 
L 1638 0 
L 1638 4134 
L -19 4134 
L -19 4666 
z
" transform="scale(0.015625)"/>
       <path id="DejaVuSans-28" d="M 1984 4856 
Q 1566 4138 1362 3434 
Q 1159 2731 1159 2009 
Q 1159 1288 1364 580 
Q 1569 -128 1984 -844 
L 1484 -844 
Q 1016 -109 783 600 
Q 550 1309 550 2009 
Q 550 2706 781 3412 
Q 1013 4119 1484 4856 
L 1984 4856 
z
" transform="scale(0.015625)"/>
       <path id="DejaVuSans-68" d="M 3513 2113 
L 3513 0 
L 2938 0 
L 2938 2094 
Q 2938 2591 2744 2837 
Q 2550 3084 2163 3084 
Q 1697 3084 1428 2787 
Q 1159 2491 1159 1978 
L 1159 0 
L 581 0 
L 581 4863 
L 1159 4863 
L 1159 2956 
Q 1366 3272 1645 3428 
Q 1925 3584 2291 3584 
Q 2894 3584 3203 3211 
Q 3513 2838 3513 2113 
z
" transform="scale(0.015625)"/>
       <path id="DejaVuSans-29" d="M 513 4856 
L 1013 4856 
Q 1481 4119 1714 3412 
Q 1947 2706 1947 2009 
Q 1947 1309 1714 600 
Q 1481 -109 1013 -844 
L 513 -844 
Q 928 -128 1133 580 
Q 1338 1288 1338 2009 
Q 1338 2731 1133 3434 
Q 928 4138 513 4856 
z
" transform="scale(0.015625)"/>
      </defs>
      <use xlink:href="#DejaVuSans-46"/>
      <use xlink:href="#DejaVuSans-69" x="50.269531"/>
      <use xlink:href="#DejaVuSans-72" x="78.052734"/>
      <use xlink:href="#DejaVuSans-73" x="119.166016"/>
      <use xlink:href="#DejaVuSans-74" x="171.265625"/>
      <use xlink:href="#DejaVuSans-20" x="210.474609"/>
      <use xlink:href="#DejaVuSans-47" x="242.261719"/>
      <use xlink:href="#DejaVuSans-6f" x="319.751953"/>
      <use xlink:href="#DejaVuSans-6f" x="380.933594"/>
      <use xlink:href="#DejaVuSans-64" x="442.115234"/>
      <use xlink:href="#DejaVuSans-20" x="505.591797"/>
      <use xlink:href="#DejaVuSans-4d" x="537.378906"/>
      <use xlink:href="#DejaVuSans-65" x="623.658203"/>
      <use xlink:href="#DejaVuSans-61" x="685.181641"/>
      <use xlink:href="#DejaVuSans-6c" x="746.460938"/>
      <use xlink:href="#DejaVuSans-20" x="774.244141"/>
      <use xlink:href="#DejaVuSans-54" x="806.03125"/>
      <use xlink:href="#DejaVuSans-69" x="863.990234"/>
      <use xlink:href="#DejaVuSans-6d" x="891.773438"/>
      <use xlink:href="#DejaVuSans-65" x="989.185547"/>
      <use xlink:href="#DejaVuSans-20" x="1050.708984"/>
      <use xlink:href="#DejaVuSans-28" x="1082.496094"/>
      <use xlink:href="#DejaVuSans-68" x="1121.509766"/>
      <use xlink:href="#DejaVuSans-6f" x="1184.888672"/>
      <use xlink:href="#DejaVuSans-75" x="1246.070312"/>
      <use xlink:href="#DejaVuSans-72" x="1309.449219"/>
      <use xlink:href="#DejaVuSans-73" x="1350.5625"/>
      <use xlink:href="#DejaVuSans-29" x="1402.662109"/>
     </g>
    </g>
   </g>
   <g id="patch_3">
    <path d="M 91.865875 278.729651 
L 110.837875 278.729651 
L 110.837875 189.638598 
L 91.865875 189.638598 
L 91.865875 278.729651 
z
" clip-path="url(#p091bbf22e8)" style="fill: #ffffff; stroke: #000000; stroke-linejoin: miter"/>
   </g>
   <g id="line2d_16">
    <path d="M 101.351875 278.729651 
L 101.351875 345.916875 
" clip-path="url(#p091bbf22e8)" style="fill: none; stroke: #000000; stroke-linecap: square"/>
   </g>
   <g id="line2d_17">
    <path d="M 101.351875 189.638598 
L 101.351875 57.91789 
" clip-path="url(#p091bbf22e8)" style="fill: none; stroke: #000000; stroke-linecap: square"/>
   </g>
   <g id="line2d_18">
    <path d="M 96.608875 345.916875 
L 106.094875 345.916875 
" clip-path="url(#p091bbf22e8)" style="fill: none; stroke: #000000; stroke-linecap: square"/>
   </g>
   <g id="line2d_19">
    <path d="M 96.608875 57.91789 
L 106.094875 57.91789 
" clip-path="url(#p091bbf22e8)" style="fill: none; stroke: #000000; stroke-linecap: square"/>
   </g>
   <g id="patch_4">
    <path d="M 218.345875 284.847341 
L 237.317875 284.847341 
L 237.317875 175.209408 
L 218.345875 175.209408 
L 218.345875 284.847341 
z
" clip-path="url(#p091bbf22e8)" style="fill: #ffffff; stroke: #000000; stroke-linejoin: miter"/>
   </g>
   <g id="line2d_20">
    <path d="M 227.831875 284.847341 
L 227.831875 312.66783 
" clip-path="url(#p091bbf22e8)" style="fill: none; stroke: #000000; stroke-linecap: square"/>
   </g>
   <g id="line2d_21">
    <path d="M 227.831875 175.209408 
L 227.831875 86.997098 
" clip-path="url(#p091bbf22e8)" style="fill: none; stroke: #000000; stroke-linecap: square"/>
   </g>
   <g id="line2d_22">
    <path d="M 223.088875 312.66783 
L 232.574875 312.66783 
" clip-path="url(#p091bbf22e8)" style="fill: none; stroke: #000000; stroke-linecap: square"/>
   </g>
   <g id="line2d_23">
    <path d="M 223.088875 86.997098 
L 232.574875 86.997098 
" clip-path="url(#p091bbf22e8)" style="fill: none; stroke: #000000; stroke-linecap: square"/>
   </g>
   <g id="patch_5">
    <path d="M 344.825875 281.861598 
L 363.797875 281.861598 
L 363.797875 168.544979 
L 344.825875 168.544979 
L 344.825875 281.861598 
z
" clip-path="url(#p091bbf22e8)" style="fill: #ffffff; stroke: #000000; stroke-linejoin: miter"/>
   </g>
   <g id="line2d_24">
    <path d="M 354.311875 281.861598 
L 354.311875 335.886726 
" clip-path="url(#p091bbf22e8)" style="fill: none; stroke: #000000; stroke-linecap: square"/>
   </g>
   <g id="line2d_25">
    <path d="M 354.311875 168.544979 
L 354.311875 131.196153 
" clip-path="url(#p091bbf22e8)" style="fill: none; stroke: #000000; stroke-linecap: square"/>
   </g>
   <g id="line2d_26">
    <path d="M 349.568875 335.886726 
L 359.054875 335.886726 
" clip-path="url(#p091bbf22e8)" style="fill: none; stroke: #000000; stroke-linecap: square"/>
   </g>
   <g id="line2d_27">
    <path d="M 349.568875 131.196153 
L 359.054875 131.196153 
" clip-path="url(#p091bbf22e8)" style="fill: none; stroke: #000000; stroke-linecap: square"/>
   </g>
   <g id="line2d_28">
    <path d="M 91.865875 246.600736 
L 110.837875 246.600736 
" clip-path="url(#p091bbf22e8)" style="fill: none; stroke: #000000"/>
   </g>
   <g id="line2d_29">
    <path d="M 218.345875 242.851233 
L 237.317875 242.851233 
" clip-path="url(#p091bbf22e8)" style="fill: none; stroke: #000000"/>
   </g>
   <g id="line2d_30">
    <path d="M 344.825875 214.994954 
L 363.797875 214.994954 
" clip-path="url(#p091bbf22e8)" style="fill: none; stroke: #000000"/>
   </g>
   <g id="patch_6">
    <path d="M 38.111875 361.036875 
L 38.111875 28.396875 
" style="fill: none; stroke: #000000; stroke-width: 0.8; stroke-linejoin: miter; stroke-linecap: square"/>
   </g>
   <g id="patch_7">
    <path d="M 417.551875 361.036875 
L 417.551875 28.396875 
" style="fill: none; stroke: #000000; stroke-width: 0.8; stroke-linejoin: miter; stroke-linecap: square"/>
   </g>
   <g id="patch_8">
    <path d="M 38.111875 361.036875 
L 417.551875 361.036875 
" style="fill: none; stroke: #000000; stroke-width: 0.8; stroke-linejoin: miter; stroke-linecap: square"/>
   </g>
   <g id="patch_9">
    <path d="M 38.111875 28.396875 
L 417.551875 28.396875 
" style="fill: none; stroke: #000000; stroke-width: 0.8; stroke-linejoin: miter; stroke-linecap: square"/>
   </g>
   <g id="PathCollection_1">
    <defs>
     <path id="mccdcd2e42e" d="M 0 3 
C 0.795609 3 1.55874 2.683901 2.12132 2.12132 
C 2.683901 1.55874 3 0.795609 3 0 
C 3 -0.795609 2.683901 -1.55874 2.12132 -2.12132 
C 1.55874 -2.683901 0.795609 -3 0 -3 
C -0.795609 -3 -1.55874 -2.683901 -2.12132 -2.12132 
C -2.683901 -1.55874 -3 -0.795609 -3 0 
C -3 0.795609 -2.683901 1.55874 -2.12132 2.12132 
C -1.55874 2.683901 -0.795609 3 0 3 
z
" style="stroke: #000000; stroke-opacity: 0.85; stroke-width: 0.4"/>
    </defs>
    <g clip-path="url(#p091bbf22e8)">
     <use xlink:href="#mccdcd2e42e" x="102.413518" y="267.664658" style="fill: #425df5; fill-opacity: 0.85; stroke: #000000; stroke-opacity: 0.85; stroke-width: 0.4"/>
     <use xlink:href="#mccdcd2e42e" x="99.069646" y="226.347024" style="fill: #425df5; fill-opacity: 0.85; stroke: #000000; stroke-opacity: 0.85; stroke-width: 0.4"/>
     <use xlink:href="#mccdcd2e42e" x="100.652274" y="274.447877" style="fill: #425df5; fill-opacity: 0.85; stroke: #000000; stroke-opacity: 0.85; stroke-width: 0.4"/>
     <use xlink:href="#mccdcd2e42e" x="105.419859" y="330.528988" style="fill: #425df5; fill-opacity: 0.85; stroke: #000000; stroke-opacity: 0.85; stroke-width: 0.4"/>
     <use xlink:href="#mccdcd2e42e" x="99.230839" y="239.407843" style="fill: #425df5; fill-opacity: 0.85; stroke: #000000; stroke-opacity: 0.85; stroke-width: 0.4"/>
     <use xlink:href="#mccdcd2e42e" x="97.912226" y="194.438175" style="fill: #425df5; fill-opacity: 0.85; stroke: #000000; stroke-opacity: 0.85; stroke-width: 0.4"/>
     <use xlink:href="#mccdcd2e42e" x="97.730463" y="249.383166" style="fill: #425df5; fill-opacity: 0.85; stroke: #000000; stroke-opacity: 0.85; stroke-width: 0.4"/>
     <use xlink:href="#mccdcd2e42e" x="102.814178" y="279.744697" style="fill: #425df5; fill-opacity: 0.85; stroke: #000000; stroke-opacity: 0.85; stroke-width: 0.4"/>
     <use xlink:href="#mccdcd2e42e" x="101.610224" y="253.952016" style="fill: #425df5; fill-opacity: 0.85; stroke: #000000; stroke-opacity: 0.85; stroke-width: 0.4"/>
     <use xlink:href="#mccdcd2e42e" x="101.260479" y="243.818306" style="fill: #425df5; fill-opacity: 0.85; stroke: #000000; stroke-opacity: 0.85; stroke-width: 0.4"/>
     <use xlink:href="#mccdcd2e42e" x="98.882671" y="57.91789" style="fill: #425df5; fill-opacity: 0.85; stroke: #000000; stroke-opacity: 0.85; stroke-width: 0.4"/>
     <use xlink:href="#mccdcd2e42e" x="98.80224" y="345.916875" style="fill: #425df5; fill-opacity: 0.85; stroke: #000000; stroke-opacity: 0.85; stroke-width: 0.4"/>
     <use xlink:href="#mccdcd2e42e" x="97.576822" y="188.038739" style="fill: #425df5; fill-opacity: 0.85; stroke: #000000; stroke-opacity: 0.85; stroke-width: 0.4"/>
     <use xlink:href="#mccdcd2e42e" x="101.454832" y="280.710247" style="fill: #425df5; fill-opacity: 0.85; stroke: #000000; stroke-opacity: 0.85; stroke-width: 0.4"/>
     <use xlink:href="#mccdcd2e42e" x="103.184582" y="171.69444" style="fill: #425df5; fill-opacity: 0.85; stroke: #000000; stroke-opacity: 0.85; stroke-width: 0.4"/>
     <use xlink:href="#mccdcd2e42e" x="103.34805" y="113.761421" style="fill: #425df5; fill-opacity: 0.85; stroke: #000000; stroke-opacity: 0.85; stroke-width: 0.4"/>
     <use xlink:href="#mccdcd2e42e" x="96.869869" y="287.450824" style="fill: #425df5; fill-opacity: 0.85; stroke: #000000; stroke-opacity: 0.85; stroke-width: 0.4"/>
     <use xlink:href="#mccdcd2e42e" x="103.811465" y="148.658298" style="fill: #425df5; fill-opacity: 0.85; stroke: #000000; stroke-opacity: 0.85; stroke-width: 0.4"/>
     <use xlink:href="#mccdcd2e42e" x="100.268012" y="178.821846" style="fill: #425df5; fill-opacity: 0.85; stroke: #000000; stroke-opacity: 0.85; stroke-width: 0.4"/>
     <use xlink:href="#mccdcd2e42e" x="99.227745" y="300.408083" style="fill: #425df5; fill-opacity: 0.85; stroke: #000000; stroke-opacity: 0.85; stroke-width: 0.4"/>
     <use xlink:href="#mccdcd2e42e" x="102.505093" y="223.212793" style="fill: #425df5; fill-opacity: 0.85; stroke: #000000; stroke-opacity: 0.85; stroke-width: 0.4"/>
     <use xlink:href="#mccdcd2e42e" x="99.402391" y="270.704466" style="fill: #425df5; fill-opacity: 0.85; stroke: #000000; stroke-opacity: 0.85; stroke-width: 0.4"/>
     <use xlink:href="#mccdcd2e42e" x="104.509106" y="321.089744" style="fill: #425df5; fill-opacity: 0.85; stroke: #000000; stroke-opacity: 0.85; stroke-width: 0.4"/>
     <use xlink:href="#mccdcd2e42e" x="99.279279" y="238.813893" style="fill: #425df5; fill-opacity: 0.85; stroke: #000000; stroke-opacity: 0.85; stroke-width: 0.4"/>
     <use xlink:href="#mccdcd2e42e" x="101.009746" y="275.684512" style="fill: #425df5; fill-opacity: 0.85; stroke: #000000; stroke-opacity: 0.85; stroke-width: 0.4"/>
     <use xlink:href="#mccdcd2e42e" x="103.841193" y="240.272879" style="fill: #425df5; fill-opacity: 0.85; stroke: #000000; stroke-opacity: 0.85; stroke-width: 0.4"/>
     <use xlink:href="#mccdcd2e42e" x="103.734155" y="43.516875" style="fill: #425df5; fill-opacity: 0.85; stroke: #000000; stroke-opacity: 0.85; stroke-width: 0.4"/>
     <use xlink:href="#mccdcd2e42e" x="99.866359" y="130.49255" style="fill: #425df5; fill-opacity: 0.85; stroke: #000000; stroke-opacity: 0.85; stroke-width: 0.4"/>
     <use xlink:href="#mccdcd2e42e" x="104.895419" y="274.286444" style="fill: #425df5; fill-opacity: 0.85; stroke: #000000; stroke-opacity: 0.85; stroke-width: 0.4"/>
     <use xlink:href="#mccdcd2e42e" x="105.90033" y="312.381516" style="fill: #425df5; fill-opacity: 0.85; stroke: #000000; stroke-opacity: 0.85; stroke-width: 0.4"/>
    </g>
   </g>
   <g id="PathCollection_2">
    <defs>
     <path id="m666c31f90a" d="M 0 3 
C 0.795609 3 1.55874 2.683901 2.12132 2.12132 
C 2.683901 1.55874 3 0.795609 3 0 
C 3 -0.795609 2.683901 -1.55874 2.12132 -2.12132 
C 1.55874 -2.683901 0.795609 -3 0 -3 
C -0.795609 -3 -1.55874 -2.683901 -2.12132 -2.12132 
C -2.683901 -1.55874 -3 -0.795609 -3 0 
C -3 0.795609 -2.683901 1.55874 -2.12132 2.12132 
C -1.55874 2.683901 -0.795609 3 0 3 
z
" style="stroke: #000000; stroke-opacity: 0.85; stroke-width: 0.4"/>
    </defs>
    <g clip-path="url(#p091bbf22e8)">
     <use xlink:href="#m666c31f90a" x="226.811394" y="231.872286" style="fill: #f55442; fill-opacity: 0.85; stroke: #000000; stroke-opacity: 0.85; stroke-width: 0.4"/>
     <use xlink:href="#m666c31f90a" x="224.389836" y="269.897302" style="fill: #f55442; fill-opacity: 0.85; stroke: #000000; stroke-opacity: 0.85; stroke-width: 0.4"/>
     <use xlink:href="#m666c31f90a" x="228.219284" y="86.997098" style="fill: #f55442; fill-opacity: 0.85; stroke: #000000; stroke-opacity: 0.85; stroke-width: 0.4"/>
     <use xlink:href="#m666c31f90a" x="224.532911" y="303.971786" style="fill: #f55442; fill-opacity: 0.85; stroke: #000000; stroke-opacity: 0.85; stroke-width: 0.4"/>
     <use xlink:href="#m666c31f90a" x="224.795817" y="285.014104" style="fill: #f55442; fill-opacity: 0.85; stroke: #000000; stroke-opacity: 0.85; stroke-width: 0.4"/>
     <use xlink:href="#m666c31f90a" x="223.632839" y="140.534882" style="fill: #f55442; fill-opacity: 0.85; stroke: #000000; stroke-opacity: 0.85; stroke-width: 0.4"/>
     <use xlink:href="#m666c31f90a" x="231.744153" y="190.758728" style="fill: #f55442; fill-opacity: 0.85; stroke: #000000; stroke-opacity: 0.85; stroke-width: 0.4"/>
     <use xlink:href="#m666c31f90a" x="227.293885" y="276.857184" style="fill: #f55442; fill-opacity: 0.85; stroke: #000000; stroke-opacity: 0.85; stroke-width: 0.4"/>
     <use xlink:href="#m666c31f90a" x="229.568206" y="297.474881" style="fill: #f55442; fill-opacity: 0.85; stroke: #000000; stroke-opacity: 0.85; stroke-width: 0.4"/>
     <use xlink:href="#m666c31f90a" x="224.573823" y="234.153666" style="fill: #f55442; fill-opacity: 0.85; stroke: #000000; stroke-opacity: 0.85; stroke-width: 0.4"/>
     <use xlink:href="#m666c31f90a" x="224.016076" y="291.702901" style="fill: #f55442; fill-opacity: 0.85; stroke: #000000; stroke-opacity: 0.85; stroke-width: 0.4"/>
     <use xlink:href="#m666c31f90a" x="225.447869" y="284.730835" style="fill: #f55442; fill-opacity: 0.85; stroke: #000000; stroke-opacity: 0.85; stroke-width: 0.4"/>
     <use xlink:href="#m666c31f90a" x="232.117337" y="236.364989" style="fill: #f55442; fill-opacity: 0.85; stroke: #000000; stroke-opacity: 0.85; stroke-width: 0.4"/>
     <use xlink:href="#m666c31f90a" x="227.228924" y="280.043195" style="fill: #f55442; fill-opacity: 0.85; stroke: #000000; stroke-opacity: 0.85; stroke-width: 0.4"/>
     <use xlink:href="#m666c31f90a" x="232.089935" y="257.083201" style="fill: #f55442; fill-opacity: 0.85; stroke: #000000; stroke-opacity: 0.85; stroke-width: 0.4"/>
     <use xlink:href="#m666c31f90a" x="223.503911" y="230.525999" style="fill: #f55442; fill-opacity: 0.85; stroke: #000000; stroke-opacity: 0.85; stroke-width: 0.4"/>
     <use xlink:href="#m666c31f90a" x="226.376206" y="312.159165" style="fill: #f55442; fill-opacity: 0.85; stroke: #000000; stroke-opacity: 0.85; stroke-width: 0.4"/>
     <use xlink:href="#m666c31f90a" x="225.182144" y="164.344683" style="fill: #f55442; fill-opacity: 0.85; stroke: #000000; stroke-opacity: 0.85; stroke-width: 0.4"/>
     <use xlink:href="#m666c31f90a" x="230.372632" y="249.337477" style="fill: #f55442; fill-opacity: 0.85; stroke: #000000; stroke-opacity: 0.85; stroke-width: 0.4"/>
     <use xlink:href="#m666c31f90a" x="224.632842" y="304.791133" style="fill: #f55442; fill-opacity: 0.85; stroke: #000000; stroke-opacity: 0.85; stroke-width: 0.4"/>
     <use xlink:href="#m666c31f90a" x="227.520865" y="284.886176" style="fill: #f55442; fill-opacity: 0.85; stroke: #000000; stroke-opacity: 0.85; stroke-width: 0.4"/>
     <use xlink:href="#m666c31f90a" x="223.364662" y="170.402978" style="fill: #f55442; fill-opacity: 0.85; stroke: #000000; stroke-opacity: 0.85; stroke-width: 0.4"/>
     <use xlink:href="#m666c31f90a" x="231.578734" y="122.490971" style="fill: #f55442; fill-opacity: 0.85; stroke: #000000; stroke-opacity: 0.85; stroke-width: 0.4"/>
     <use xlink:href="#m666c31f90a" x="231.218351" y="135.557882" style="fill: #f55442; fill-opacity: 0.85; stroke: #000000; stroke-opacity: 0.85; stroke-width: 0.4"/>
     <use xlink:href="#m666c31f90a" x="229.173497" y="106.332471" style="fill: #f55442; fill-opacity: 0.85; stroke: #000000; stroke-opacity: 0.85; stroke-width: 0.4"/>
     <use xlink:href="#m666c31f90a" x="224.233343" y="152.834227" style="fill: #f55442; fill-opacity: 0.85; stroke: #000000; stroke-opacity: 0.85; stroke-width: 0.4"/>
     <use xlink:href="#m666c31f90a" x="226.532351" y="189.628699" style="fill: #f55442; fill-opacity: 0.85; stroke: #000000; stroke-opacity: 0.85; stroke-width: 0.4"/>
     <use xlink:href="#m666c31f90a" x="230.034825" y="276.86023" style="fill: #f55442; fill-opacity: 0.85; stroke: #000000; stroke-opacity: 0.85; stroke-width: 0.4"/>
     <use xlink:href="#m666c31f90a" x="226.673321" y="262.562775" style="fill: #f55442; fill-opacity: 0.85; stroke: #000000; stroke-opacity: 0.85; stroke-width: 0.4"/>
     <use xlink:href="#m666c31f90a" x="228.748303" y="165.078745" style="fill: #f55442; fill-opacity: 0.85; stroke: #000000; stroke-opacity: 0.85; stroke-width: 0.4"/>
     <use xlink:href="#m666c31f90a" x="223.302853" y="304.054025" style="fill: #f55442; fill-opacity: 0.85; stroke: #000000; stroke-opacity: 0.85; stroke-width: 0.4"/>
     <use xlink:href="#m666c31f90a" x="225.023025" y="216.740255" style="fill: #f55442; fill-opacity: 0.85; stroke: #000000; stroke-opacity: 0.85; stroke-width: 0.4"/>
     <use xlink:href="#m666c31f90a" x="230.88036" y="197.99274" style="fill: #f55442; fill-opacity: 0.85; stroke: #000000; stroke-opacity: 0.85; stroke-width: 0.4"/>
     <use xlink:href="#m666c31f90a" x="229.138782" y="312.66783" style="fill: #f55442; fill-opacity: 0.85; stroke: #000000; stroke-opacity: 0.85; stroke-width: 0.4"/>
    </g>
   </g>
   <g id="PathCollection_3">
    <defs>
     <path id="m092ed62dee" d="M 0 3 
C 0.795609 3 1.55874 2.683901 2.12132 2.12132 
C 2.683901 1.55874 3 0.795609 3 0 
C 3 -0.795609 2.683901 -1.55874 2.12132 -2.12132 
C 1.55874 -2.683901 0.795609 -3 0 -3 
C -0.795609 -3 -1.55874 -2.683901 -2.12132 -2.12132 
C -2.683901 -1.55874 -3 -0.795609 -3 0 
C -3 0.795609 -2.683901 1.55874 -2.12132 2.12132 
C -1.55874 2.683901 -0.795609 3 0 3 
z
" style="stroke: #000000; stroke-opacity: 0.85; stroke-width: 0.4"/>
    </defs>
    <g clip-path="url(#p091bbf22e8)">
     <use xlink:href="#m092ed62dee" x="359.336974" y="245.785958" style="fill: #0ec72a; fill-opacity: 0.85; stroke: #000000; stroke-opacity: 0.85; stroke-width: 0.4"/>
     <use xlink:href="#m092ed62dee" x="349.354716" y="131.196153" style="fill: #0ec72a; fill-opacity: 0.85; stroke: #000000; stroke-opacity: 0.85; stroke-width: 0.4"/>
     <use xlink:href="#m092ed62dee" x="349.253465" y="185.306567" style="fill: #0ec72a; fill-opacity: 0.85; stroke: #000000; stroke-opacity: 0.85; stroke-width: 0.4"/>
     <use xlink:href="#m092ed62dee" x="352.354557" y="335.886726" style="fill: #0ec72a; fill-opacity: 0.85; stroke: #000000; stroke-opacity: 0.85; stroke-width: 0.4"/>
     <use xlink:href="#m092ed62dee" x="358.678788" y="291.964848" style="fill: #0ec72a; fill-opacity: 0.85; stroke: #000000; stroke-opacity: 0.85; stroke-width: 0.4"/>
     <use xlink:href="#m092ed62dee" x="355.960175" y="297.392642" style="fill: #0ec72a; fill-opacity: 0.85; stroke: #000000; stroke-opacity: 0.85; stroke-width: 0.4"/>
     <use xlink:href="#m092ed62dee" x="349.530743" y="214.994954" style="fill: #0ec72a; fill-opacity: 0.85; stroke: #000000; stroke-opacity: 0.85; stroke-width: 0.4"/>
     <use xlink:href="#m092ed62dee" x="356.699111" y="261.225625" style="fill: #0ec72a; fill-opacity: 0.85; stroke: #000000; stroke-opacity: 0.85; stroke-width: 0.4"/>
     <use xlink:href="#m092ed62dee" x="352.459967" y="150.49193" style="fill: #0ec72a; fill-opacity: 0.85; stroke: #000000; stroke-opacity: 0.85; stroke-width: 0.4"/>
     <use xlink:href="#m092ed62dee" x="352.84849" y="281.861598" style="fill: #0ec72a; fill-opacity: 0.85; stroke: #000000; stroke-opacity: 0.85; stroke-width: 0.4"/>
     <use xlink:href="#m092ed62dee" x="351.276879" y="178.264446" style="fill: #0ec72a; fill-opacity: 0.85; stroke: #000000; stroke-opacity: 0.85; stroke-width: 0.4"/>
     <use xlink:href="#m092ed62dee" x="350.501782" y="168.544979" style="fill: #0ec72a; fill-opacity: 0.85; stroke: #000000; stroke-opacity: 0.85; stroke-width: 0.4"/>
     <use xlink:href="#m092ed62dee" x="359.499912" y="306.018631" style="fill: #0ec72a; fill-opacity: 0.85; stroke: #000000; stroke-opacity: 0.85; stroke-width: 0.4"/>
     <use xlink:href="#m092ed62dee" x="357.021468" y="156.215176" style="fill: #0ec72a; fill-opacity: 0.85; stroke: #000000; stroke-opacity: 0.85; stroke-width: 0.4"/>
     <use xlink:href="#m092ed62dee" x="354.892442" y="256.474021" style="fill: #0ec72a; fill-opacity: 0.85; stroke: #000000; stroke-opacity: 0.85; stroke-width: 0.4"/>
     <use xlink:href="#m092ed62dee" x="355.857709" y="172.126957" style="fill: #0ec72a; fill-opacity: 0.85; stroke: #000000; stroke-opacity: 0.85; stroke-width: 0.4"/>
     <use xlink:href="#m092ed62dee" x="351.13461" y="131.299714" style="fill: #0ec72a; fill-opacity: 0.85; stroke: #000000; stroke-opacity: 0.85; stroke-width: 0.4"/>
    </g>
   </g>
   <g id="text_12">
    <!-- First Good Meal Time Distribution -->
    <g transform="translate(61.2475 22.396875) scale(0.2 -0.2)">
     <defs>
      <path id="DejaVuSans-44" d="M 1259 4147 
L 1259 519 
L 2022 519 
Q 2988 519 3436 956 
Q 3884 1394 3884 2338 
Q 3884 3275 3436 3711 
Q 2988 4147 2022 4147 
L 1259 4147 
z
M 628 4666 
L 1925 4666 
Q 3281 4666 3915 4102 
Q 4550 3538 4550 2338 
Q 4550 1131 3912 565 
Q 3275 0 1925 0 
L 628 0 
L 628 4666 
z
" transform="scale(0.015625)"/>
      <path id="DejaVuSans-62" d="M 3116 1747 
Q 3116 2381 2855 2742 
Q 2594 3103 2138 3103 
Q 1681 3103 1420 2742 
Q 1159 2381 1159 1747 
Q 1159 1113 1420 752 
Q 1681 391 2138 391 
Q 2594 391 2855 752 
Q 3116 1113 3116 1747 
z
M 1159 2969 
Q 1341 3281 1617 3432 
Q 1894 3584 2278 3584 
Q 2916 3584 3314 3078 
Q 3713 2572 3713 1747 
Q 3713 922 3314 415 
Q 2916 -91 2278 -91 
Q 1894 -91 1617 61 
Q 1341 213 1159 525 
L 1159 0 
L 581 0 
L 581 4863 
L 1159 4863 
L 1159 2969 
z
" transform="scale(0.015625)"/>
      <path id="DejaVuSans-6e" d="M 3513 2113 
L 3513 0 
L 2938 0 
L 2938 2094 
Q 2938 2591 2744 2837 
Q 2550 3084 2163 3084 
Q 1697 3084 1428 2787 
Q 1159 2491 1159 1978 
L 1159 0 
L 581 0 
L 581 3500 
L 1159 3500 
L 1159 2956 
Q 1366 3272 1645 3428 
Q 1925 3584 2291 3584 
Q 2894 3584 3203 3211 
Q 3513 2838 3513 2113 
z
" transform="scale(0.015625)"/>
     </defs>
     <use xlink:href="#DejaVuSans-46"/>
     <use xlink:href="#DejaVuSans-69" x="50.269531"/>
     <use xlink:href="#DejaVuSans-72" x="78.052734"/>
     <use xlink:href="#DejaVuSans-73" x="119.166016"/>
     <use xlink:href="#DejaVuSans-74" x="171.265625"/>
     <use xlink:href="#DejaVuSans-20" x="210.474609"/>
     <use xlink:href="#DejaVuSans-47" x="242.261719"/>
     <use xlink:href="#DejaVuSans-6f" x="319.751953"/>
     <use xlink:href="#DejaVuSans-6f" x="380.933594"/>
     <use xlink:href="#DejaVuSans-64" x="442.115234"/>
     <use xlink:href="#DejaVuSans-20" x="505.591797"/>
     <use xlink:href="#DejaVuSans-4d" x="537.378906"/>
     <use xlink:href="#DejaVuSans-65" x="623.658203"/>
     <use xlink:href="#DejaVuSans-61" x="685.181641"/>
     <use xlink:href="#DejaVuSans-6c" x="746.460938"/>
     <use xlink:href="#DejaVuSans-20" x="774.244141"/>
     <use xlink:href="#DejaVuSans-54" x="806.03125"/>
     <use xlink:href="#DejaVuSans-69" x="863.990234"/>
     <use xlink:href="#DejaVuSans-6d" x="891.773438"/>
     <use xlink:href="#DejaVuSans-65" x="989.185547"/>
     <use xlink:href="#DejaVuSans-20" x="1050.708984"/>
     <use xlink:href="#DejaVuSans-44" x="1082.496094"/>
     <use xlink:href="#DejaVuSans-69" x="1159.498047"/>
     <use xlink:href="#DejaVuSans-73" x="1187.28125"/>
     <use xlink:href="#DejaVuSans-74" x="1239.380859"/>
     <use xlink:href="#DejaVuSans-72" x="1278.589844"/>
     <use xlink:href="#DejaVuSans-69" x="1319.703125"/>
     <use xlink:href="#DejaVuSans-62" x="1347.486328"/>
     <use xlink:href="#DejaVuSans-75" x="1410.962891"/>
     <use xlink:href="#DejaVuSans-74" x="1474.341797"/>
     <use xlink:href="#DejaVuSans-69" x="1513.550781"/>
     <use xlink:href="#DejaVuSans-6f" x="1541.333984"/>
     <use xlink:href="#DejaVuSans-6e" x="1602.515625"/>
    </g>
   </g>
   <g id="legend_1">
    <g id="patch_10">
     <path d="M 283.275625 90.838125 
L 409.151875 90.838125 
Q 411.551875 90.838125 411.551875 88.438125 
L 411.551875 36.796875 
Q 411.551875 34.396875 409.151875 34.396875 
L 283.275625 34.396875 
Q 280.875625 34.396875 280.875625 36.796875 
L 280.875625 88.438125 
Q 280.875625 90.838125 283.275625 90.838125 
z
" style="fill: #ffffff; opacity: 0.8; stroke: #cccccc; stroke-linejoin: miter"/>
    </g>
    <g id="patch_11">
     <path d="M 285.675625 48.315 
L 309.675625 48.315 
L 309.675625 39.915 
L 285.675625 39.915 
z
" style="fill: #425df5; opacity: 0.65; stroke: #425df5; stroke-linejoin: miter"/>
    </g>
    <g id="text_13">
     <!-- cask (n=30) -->
     <g transform="translate(319.275625 48.315) scale(0.12 -0.12)">
      <defs>
       <path id="DejaVuSans-3d" d="M 678 2906 
L 4684 2906 
L 4684 2381 
L 678 2381 
L 678 2906 
z
M 678 1631 
L 4684 1631 
L 4684 1100 
L 678 1100 
L 678 1631 
z
" transform="scale(0.015625)"/>
       <path id="DejaVuSans-30" d="M 2034 4250 
Q 1547 4250 1301 3770 
Q 1056 3291 1056 2328 
Q 1056 1369 1301 889 
Q 1547 409 2034 409 
Q 2525 409 2770 889 
Q 3016 1369 3016 2328 
Q 3016 3291 2770 3770 
Q 2525 4250 2034 4250 
z
M 2034 4750 
Q 2819 4750 3233 4129 
Q 3647 3509 3647 2328 
Q 3647 1150 3233 529 
Q 2819 -91 2034 -91 
Q 1250 -91 836 529 
Q 422 1150 422 2328 
Q 422 3509 836 4129 
Q 1250 4750 2034 4750 
z
" transform="scale(0.015625)"/>
      </defs>
      <use xlink:href="#DejaVuSans-63"/>
      <use xlink:href="#DejaVuSans-61" x="54.980469"/>
      <use xlink:href="#DejaVuSans-73" x="116.259766"/>
      <use xlink:href="#DejaVuSans-6b" x="168.359375"/>
      <use xlink:href="#DejaVuSans-20" x="226.269531"/>
      <use xlink:href="#DejaVuSans-28" x="258.056641"/>
      <use xlink:href="#DejaVuSans-6e" x="297.070312"/>
      <use xlink:href="#DejaVuSans-3d" x="360.449219"/>
      <use xlink:href="#DejaVuSans-33" x="444.238281"/>
      <use xlink:href="#DejaVuSans-30" x="507.861328"/>
      <use xlink:href="#DejaVuSans-29" x="571.484375"/>
     </g>
    </g>
    <g id="patch_12">
     <path d="M 285.675625 65.92875 
L 309.675625 65.92875 
L 309.675625 57.52875 
L 285.675625 57.52875 
z
" style="fill: #f55442; opacity: 0.65; stroke: #f55442; stroke-linejoin: miter"/>
    </g>
    <g id="text_14">
     <!-- ctrl (n=34) -->
     <g transform="translate(319.275625 65.92875) scale(0.12 -0.12)">
      <use xlink:href="#DejaVuSans-63"/>
      <use xlink:href="#DejaVuSans-74" x="54.980469"/>
      <use xlink:href="#DejaVuSans-72" x="94.189453"/>
      <use xlink:href="#DejaVuSans-6c" x="135.302734"/>
      <use xlink:href="#DejaVuSans-20" x="163.085938"/>
      <use xlink:href="#DejaVuSans-28" x="194.873047"/>
      <use xlink:href="#DejaVuSans-6e" x="233.886719"/>
      <use xlink:href="#DejaVuSans-3d" x="297.265625"/>
      <use xlink:href="#DejaVuSans-33" x="381.054688"/>
      <use xlink:href="#DejaVuSans-34" x="444.677734"/>
      <use xlink:href="#DejaVuSans-29" x="508.300781"/>
     </g>
    </g>
    <g id="patch_13">
     <path d="M 285.675625 83.5425 
L 309.675625 83.5425 
L 309.675625 75.1425 
L 285.675625 75.1425 
z
" style="fill: #0ec72a; opacity: 0.65; stroke: #0ec72a; stroke-linejoin: miter"/>
    </g>
    <g id="text_15">
     <!-- female (n=17) -->
     <g transform="translate(319.275625 83.5425) scale(0.12 -0.12)">
      <defs>
       <path id="DejaVuSans-37" d="M 525 4666 
L 3525 4666 
L 3525 4397 
L 1831 0 
L 1172 0 
L 2766 4134 
L 525 4134 
L 525 4666 
z
" transform="scale(0.015625)"/>
      </defs>
      <use xlink:href="#DejaVuSans-66"/>
      <use xlink:href="#DejaVuSans-65" x="35.205078"/>
      <use xlink:href="#DejaVuSans-6d" x="96.728516"/>
      <use xlink:href="#DejaVuSans-61" x="194.140625"/>
      <use xlink:href="#DejaVuSans-6c" x="255.419922"/>
      <use xlink:href="#DejaVuSans-65" x="283.203125"/>
      <use xlink:href="#DejaVuSans-20" x="344.726562"/>
      <use xlink:href="#DejaVuSans-28" x="376.513672"/>
      <use xlink:href="#DejaVuSans-6e" x="415.527344"/>
      <use xlink:href="#DejaVuSans-3d" x="478.90625"/>
      <use xlink:href="#DejaVuSans-31" x="562.695312"/>
      <use xlink:href="#DejaVuSans-37" x="626.318359"/>
      <use xlink:href="#DejaVuSans-29" x="689.941406"/>
     </g>
    </g>
   </g>
  </g>
 </g>
 <defs>
  <clipPath id="p091bbf22e8">
   <rect x="38.111875" y="28.396875" width="379.44" height="332.64"/>
  </clipPath>
 </defs>
</svg>
