<?xml version="1.0" encoding="utf-8" standalone="no"?>
<!DOCTYPE svg PUBLIC "-//W3C//DTD SVG 1.1//EN"
  "http://www.w3.org/Graphics/SVG/1.1/DTD/svg11.dtd">
<svg xmlns:xlink="http://www.w3.org/1999/xlink" width="434.2925pt" height="402.464375pt" viewBox="0 0 434.2925 402.464375" xmlns="http://www.w3.org/2000/svg" version="1.1">
 <metadata>
  <rdf:RDF xmlns:dc="http://purl.org/dc/elements/1.1/" xmlns:cc="http://creativecommons.org/ns#" xmlns:rdf="http://www.w3.org/1999/02/22-rdf-syntax-ns#">
   <cc:Work>
    <dc:type rdf:resource="http://purl.org/dc/dcmitype/StillImage"/>
    <dc:date>2025-10-01T22:38:42.920817</dc:date>
    <dc:format>image/svg+xml</dc:format>
    <dc:creator>
     <cc:Agent>
      <dc:title>Matplotlib v3.8.4, https://matplotlib.org/</dc:title>
     </cc:Agent>
    </dc:creator>
   </cc:Work>
  </rdf:RDF>
 </metadata>
 <defs>
  <style type="text/css">*{stroke-linejoin: round; stroke-linecap: butt}</style>
 </defs>
 <g id="figure_1">
  <g id="patch_1">
   <path d="M 0 402.464375 
L 434.2925 402.464375 
L 434.2925 0 
L 0 0 
z
" style="fill: #ffffff"/>
  </g>
  <g id="axes_1">
   <g id="patch_2">
    <path d="M 47.6525 361.036875 
L 427.0925 361.036875 
L 427.0925 28.396875 
L 47.6525 28.396875 
z
" style="fill: #ffffff"/>
   </g>
   <g id="PolyCollection_1">
    <defs>
     <path id="m149f234df2" d="M 112.862868 -56.5475 
L 108.922132 -56.5475 
L 108.812952 -59.216955 
L 108.696324 -61.886411 
L 108.570791 -64.555866 
L 108.434791 -67.225321 
L 108.286698 -69.894777 
L 108.124861 -72.564232 
L 107.947646 -75.233687 
L 107.75349 -77.903143 
L 107.540954 -80.572598 
L 107.308766 -83.242053 
L 107.055882 -85.911509 
L 106.781526 -88.580964 
L 106.485234 -91.250419 
L 106.166888 -93.919875 
L 105.826746 -96.58933 
L 105.465455 -99.258785 
L 105.08406 -101.928241 
L 104.683997 -104.597696 
L 104.267076 -107.267151 
L 103.835454 -109.936607 
L 103.391595 -112.606062 
L 102.93822 -115.275517 
L 102.47825 -117.944973 
L 102.01474 -120.614428 
L 101.550814 -123.283883 
L 101.089596 -125.953339 
L 100.634135 -128.622794 
L 100.187348 -131.292249 
L 99.751952 -133.961705 
L 99.330423 -136.63116 
L 98.924946 -139.300615 
L 98.53739 -141.970071 
L 98.169289 -144.639526 
L 97.821841 -147.308981 
L 97.495908 -149.978437 
L 97.192041 -152.647892 
L 96.910502 -155.317347 
L 96.651303 -157.986803 
L 96.414243 -160.656258 
L 96.198948 -163.325714 
L 96.004916 -165.995169 
L 95.831554 -168.664624 
L 95.67821 -171.33408 
L 95.5442 -174.003535 
L 95.428827 -176.67299 
L 95.331391 -179.342446 
L 95.251189 -182.011901 
L 95.187507 -184.681356 
L 95.139608 -187.350812 
L 95.106716 -190.020267 
L 95.087988 -192.689722 
L 95.0825 -195.359178 
L 95.089224 -198.028633 
L 95.107014 -200.698088 
L 95.134599 -203.367544 
L 95.170579 -206.036999 
L 95.21344 -208.706454 
L 95.261569 -211.37591 
L 95.313283 -214.045365 
L 95.366863 -216.71482 
L 95.420604 -219.384276 
L 95.472856 -222.053731 
L 95.522082 -224.723186 
L 95.566908 -227.392642 
L 95.606174 -230.062097 
L 95.638978 -232.731552 
L 95.664718 -235.401008 
L 95.68312 -238.070463 
L 95.694263 -240.739918 
L 95.698584 -243.409374 
L 95.696881 -246.078829 
L 95.690302 -248.748284 
L 95.680318 -251.41774 
L 95.668699 -254.087195 
L 95.657471 -256.75665 
L 95.648875 -259.426106 
L 95.645317 -262.095561 
L 95.649313 -264.765016 
L 95.663444 -267.434472 
L 95.690299 -270.103927 
L 95.732425 -272.773382 
L 95.792279 -275.442838 
L 95.872183 -278.112293 
L 95.974281 -280.781748 
L 96.100502 -283.451204 
L 96.252523 -286.120659 
L 96.43174 -288.790114 
L 96.639239 -291.45957 
L 96.875774 -294.129025 
L 97.141744 -296.79848 
L 97.437181 -299.467936 
L 97.761739 -302.137391 
L 98.114685 -304.806846 
L 98.494903 -307.476302 
L 98.900899 -310.145757 
L 99.330813 -312.815212 
L 99.78244 -315.484668 
L 100.253259 -318.154123 
L 100.740467 -320.823578 
L 121.044533 -320.823578 
L 121.044533 -320.823578 
L 121.531741 -318.154123 
L 122.00256 -315.484668 
L 122.454187 -312.815212 
L 122.884101 -310.145757 
L 123.290097 -307.476302 
L 123.670315 -304.806846 
L 124.023261 -302.137391 
L 124.347819 -299.467936 
L 124.643256 -296.79848 
L 124.909226 -294.129025 
L 125.145761 -291.45957 
L 125.35326 -288.790114 
L 125.532477 -286.120659 
L 125.684498 -283.451204 
L 125.810719 -280.781748 
L 125.912817 -278.112293 
L 125.992721 -275.442838 
L 126.052575 -272.773382 
L 126.094701 -270.103927 
L 126.121556 -267.434472 
L 126.135687 -264.765016 
L 126.139683 -262.095561 
L 126.136125 -259.426106 
L 126.127529 -256.75665 
L 126.116301 -254.087195 
L 126.104682 -251.41774 
L 126.094698 -248.748284 
L 126.088119 -246.078829 
L 126.086416 -243.409374 
L 126.090737 -240.739918 
L 126.10188 -238.070463 
L 126.120282 -235.401008 
L 126.146022 -232.731552 
L 126.178826 -230.062097 
L 126.218092 -227.392642 
L 126.262918 -224.723186 
L 126.312144 -222.053731 
L 126.364396 -219.384276 
L 126.418137 -216.71482 
L 126.471717 -214.045365 
L 126.523431 -211.37591 
L 126.57156 -208.706454 
L 126.614421 -206.036999 
L 126.650401 -203.367544 
L 126.677986 -200.698088 
L 126.695776 -198.028633 
L 126.7025 -195.359178 
L 126.697012 -192.689722 
L 126.678284 -190.020267 
L 126.645392 -187.350812 
L 126.597493 -184.681356 
L 126.533811 -182.011901 
L 126.453609 -179.342446 
L 126.356173 -176.67299 
L 126.2408 -174.003535 
L 126.10679 -171.33408 
L 125.953446 -168.664624 
L 125.780084 -165.995169 
L 125.586052 -163.325714 
L 125.370757 -160.656258 
L 125.133697 -157.986803 
L 124.874498 -155.317347 
L 124.592959 -152.647892 
L 124.289092 -149.978437 
L 123.963159 -147.308981 
L 123.615711 -144.639526 
L 123.24761 -141.970071 
L 122.860054 -139.300615 
L 122.454577 -136.63116 
L 122.033048 -133.961705 
L 121.597652 -131.292249 
L 121.150865 -128.622794 
L 120.695404 -125.953339 
L 120.234186 -123.283883 
L 119.77026 -120.614428 
L 119.30675 -117.944973 
L 118.84678 -115.275517 
L 118.393405 -112.606062 
L 117.949546 -109.936607 
L 117.517924 -107.267151 
L 117.101003 -104.597696 
L 116.70094 -101.928241 
L 116.319545 -99.258785 
L 115.958254 -96.58933 
L 115.618112 -93.919875 
L 115.299766 -91.250419 
L 115.003474 -88.580964 
L 114.729118 -85.911509 
L 114.476234 -83.242053 
L 114.244046 -80.572598 
L 114.03151 -77.903143 
L 113.837354 -75.233687 
L 113.660139 -72.564232 
L 113.498302 -69.894777 
L 113.350209 -67.225321 
L 113.214209 -64.555866 
L 113.088676 -61.886411 
L 112.972048 -59.216955 
L 112.862868 -56.5475 
z
" style="stroke: #000000; stroke-opacity: 0.65"/>
    </defs>
    <g clip-path="url(#pdf82a7d4a0)">
     <use xlink:href="#m149f234df2" x="0" y="402.464375" style="fill: #425df5; fill-opacity: 0.65; stroke: #000000; stroke-opacity: 0.65"/>
    </g>
   </g>
   <g id="PolyCollection_2">
    <defs>
     <path id="m8a3a10d1df" d="M 240.616306 -122.133382 
L 234.128694 -122.133382 
L 233.87854 -124.525444 
L 233.622313 -126.917506 
L 233.361458 -129.309568 
L 233.097574 -131.70163 
L 232.832388 -134.093691 
L 232.567713 -136.485753 
L 232.305407 -138.877815 
L 232.047312 -141.269877 
L 231.795195 -143.661939 
L 231.550677 -146.054 
L 231.315162 -148.446062 
L 231.089769 -150.838124 
L 230.875263 -153.230186 
L 230.671997 -155.622247 
L 230.479862 -158.014309 
L 230.298259 -160.406371 
L 230.126082 -162.798433 
L 229.961723 -165.190495 
L 229.803103 -167.582556 
L 229.647722 -169.974618 
L 229.492731 -172.36668 
L 229.335029 -174.758742 
L 229.171369 -177.150804 
L 228.998488 -179.542865 
L 228.813234 -181.934927 
L 228.61271 -184.326989 
L 228.394397 -186.719051 
L 228.156287 -189.111113 
L 227.896983 -191.503174 
L 227.615794 -193.895236 
L 227.312795 -196.287298 
L 226.988858 -198.67936 
L 226.645662 -201.071422 
L 226.285661 -203.463483 
L 225.912024 -205.855545 
L 225.528554 -208.247607 
L 225.139571 -210.639669 
L 224.749782 -213.031731 
L 224.364135 -215.423792 
L 223.987667 -217.815854 
L 223.625344 -220.207916 
L 223.281915 -222.599978 
L 222.961772 -224.99204 
L 222.66883 -227.384101 
L 222.406426 -229.776163 
L 222.177249 -232.168225 
L 221.983287 -234.560287 
L 221.825816 -236.952348 
L 221.705403 -239.34441 
L 221.621947 -241.736472 
L 221.574731 -244.128534 
L 221.5625 -246.520596 
L 221.583551 -248.912657 
L 221.635828 -251.304719 
L 221.717028 -253.696781 
L 221.824695 -256.088843 
L 221.956317 -258.480905 
L 222.109406 -260.872966 
L 222.281573 -263.265028 
L 222.470576 -265.65709 
L 222.674367 -268.049152 
L 222.89111 -270.441214 
L 223.119189 -272.833275 
L 223.357209 -275.225337 
L 223.603972 -277.617399 
L 223.858459 -280.009461 
L 224.119801 -282.401523 
L 224.387243 -284.793584 
L 224.660116 -287.185646 
L 224.93781 -289.577708 
L 225.219745 -291.96977 
L 225.505361 -294.361832 
L 225.794096 -296.753893 
L 226.08539 -299.145955 
L 226.378684 -301.538017 
L 226.673421 -303.930079 
L 226.969066 -306.322141 
L 227.26511 -308.714202 
L 227.56109 -311.106264 
L 227.856601 -313.498326 
L 228.151307 -315.890388 
L 228.44495 -318.282449 
L 228.737353 -320.674511 
L 229.028423 -323.066573 
L 229.318141 -325.458635 
L 229.606555 -327.850697 
L 229.893761 -330.242758 
L 230.179892 -332.63482 
L 230.465088 -335.026882 
L 230.749479 -337.418944 
L 231.033161 -339.811006 
L 231.31617 -342.203067 
L 231.598469 -344.595129 
L 231.879926 -346.987191 
L 232.160304 -349.379253 
L 232.439251 -351.771315 
L 232.716304 -354.163376 
L 232.990885 -356.555438 
L 233.262315 -358.9475 
L 241.482685 -358.9475 
L 241.482685 -358.9475 
L 241.754115 -356.555438 
L 242.028696 -354.163376 
L 242.305749 -351.771315 
L 242.584696 -349.379253 
L 242.865074 -346.987191 
L 243.146531 -344.595129 
L 243.42883 -342.203067 
L 243.711839 -339.811006 
L 243.995521 -337.418944 
L 244.279912 -335.026882 
L 244.565108 -332.63482 
L 244.851239 -330.242758 
L 245.138445 -327.850697 
L 245.426859 -325.458635 
L 245.716577 -323.066573 
L 246.007647 -320.674511 
L 246.30005 -318.282449 
L 246.593693 -315.890388 
L 246.888399 -313.498326 
L 247.18391 -311.106264 
L 247.47989 -308.714202 
L 247.775934 -306.322141 
L 248.071579 -303.930079 
L 248.366316 -301.538017 
L 248.65961 -299.145955 
L 248.950904 -296.753893 
L 249.239639 -294.361832 
L 249.525255 -291.96977 
L 249.80719 -289.577708 
L 250.084884 -287.185646 
L 250.357757 -284.793584 
L 250.625199 -282.401523 
L 250.886541 -280.009461 
L 251.141028 -277.617399 
L 251.387791 -275.225337 
L 251.625811 -272.833275 
L 251.85389 -270.441214 
L 252.070633 -268.049152 
L 252.274424 -265.65709 
L 252.463427 -263.265028 
L 252.635594 -260.872966 
L 252.788683 -258.480905 
L 252.920305 -256.088843 
L 253.027972 -253.696781 
L 253.109172 -251.304719 
L 253.161449 -248.912657 
L 253.1825 -246.520596 
L 253.170269 -244.128534 
L 253.123053 -241.736472 
L 253.039597 -239.34441 
L 252.919184 -236.952348 
L 252.761713 -234.560287 
L 252.567751 -232.168225 
L 252.338574 -229.776163 
L 252.07617 -227.384101 
L 251.783228 -224.99204 
L 251.463085 -222.599978 
L 251.119656 -220.207916 
L 250.757333 -217.815854 
L 250.380865 -215.423792 
L 249.995218 -213.031731 
L 249.605429 -210.639669 
L 249.216446 -208.247607 
L 248.832976 -205.855545 
L 248.459339 -203.463483 
L 248.099338 -201.071422 
L 247.756142 -198.67936 
L 247.432205 -196.287298 
L 247.129206 -193.895236 
L 246.848017 -191.503174 
L 246.588713 -189.111113 
L 246.350603 -186.719051 
L 246.13229 -184.326989 
L 245.931766 -181.934927 
L 245.746512 -179.542865 
L 245.573631 -177.150804 
L 245.409971 -174.758742 
L 245.252269 -172.36668 
L 245.097278 -169.974618 
L 244.941897 -167.582556 
L 244.783277 -165.190495 
L 244.618918 -162.798433 
L 244.446741 -160.406371 
L 244.265138 -158.014309 
L 244.073003 -155.622247 
L 243.869737 -153.230186 
L 243.655231 -150.838124 
L 243.429838 -148.446062 
L 243.194323 -146.054 
L 242.949805 -143.661939 
L 242.697688 -141.269877 
L 242.439593 -138.877815 
L 242.177287 -136.485753 
L 241.912612 -134.093691 
L 241.647426 -131.70163 
L 241.383542 -129.309568 
L 241.122687 -126.917506 
L 240.86646 -124.525444 
L 240.616306 -122.133382 
z
" style="stroke: #000000; stroke-opacity: 0.65"/>
    </defs>
    <g clip-path="url(#pdf82a7d4a0)">
     <use xlink:href="#m8a3a10d1df" x="0" y="402.464375" style="fill: #f55442; fill-opacity: 0.65; stroke: #000000; stroke-opacity: 0.65"/>
    </g>
   </g>
   <g id="PolyCollection_3">
    <defs>
     <path id="maa2ea511d4" d="M 369.894941 -116.44819 
L 357.810059 -116.44819 
L 357.412874 -118.674243 
L 357.003488 -120.900297 
L 356.582908 -123.126351 
L 356.152319 -125.352404 
L 355.713086 -127.578458 
L 355.266759 -129.804511 
L 354.815072 -132.030565 
L 354.359931 -134.256619 
L 353.903407 -136.482672 
L 353.447723 -138.708726 
L 352.995232 -140.93478 
L 352.548392 -143.160833 
L 352.109743 -145.386887 
L 351.681871 -147.612941 
L 351.267376 -149.838994 
L 350.868834 -152.065048 
L 350.488762 -154.291102 
L 350.129574 -156.517155 
L 349.793546 -158.743209 
L 349.482777 -160.969262 
L 349.199156 -163.195316 
L 348.944328 -165.42137 
L 348.719669 -167.647423 
L 348.52626 -169.873477 
L 348.364871 -172.099531 
L 348.235951 -174.325584 
L 348.139619 -176.551638 
L 348.075669 -178.777692 
L 348.043574 -181.003745 
L 348.0425 -183.229799 
L 348.071325 -185.455852 
L 348.12866 -187.681906 
L 348.212881 -189.90796 
L 348.322157 -192.134013 
L 348.454484 -194.360067 
L 348.607724 -196.586121 
L 348.779638 -198.812174 
L 348.96793 -201.038228 
L 349.170274 -203.264282 
L 349.38436 -205.490335 
L 349.607921 -207.716389 
L 349.838768 -209.942443 
L 350.074817 -212.168496 
L 350.314113 -214.39455 
L 350.554858 -216.620603 
L 350.795419 -218.846657 
L 351.034352 -221.072711 
L 351.270407 -223.298764 
L 351.502533 -225.524818 
L 351.729886 -227.750872 
L 351.951823 -229.976925 
L 352.167897 -232.202979 
L 352.377852 -234.429033 
L 352.581608 -236.655086 
L 352.779249 -238.88114 
L 352.971006 -241.107193 
L 353.157235 -243.333247 
L 353.3384 -245.559301 
L 353.51505 -247.785354 
L 353.687796 -250.011408 
L 353.857287 -252.237462 
L 354.024192 -254.463515 
L 354.18917 -256.689569 
L 354.352862 -258.915623 
L 354.51586 -261.141676 
L 354.6787 -263.36773 
L 354.841847 -265.593784 
L 355.005681 -267.819837 
L 355.170497 -270.045891 
L 355.336496 -272.271944 
L 355.503789 -274.497998 
L 355.672395 -276.724052 
L 355.842256 -278.950105 
L 356.013239 -281.176159 
L 356.185147 -283.402213 
L 356.35774 -285.628266 
L 356.530739 -287.85432 
L 356.70385 -290.080374 
L 356.876772 -292.306427 
L 357.049216 -294.532481 
L 357.220913 -296.758534 
L 357.391631 -298.984588 
L 357.561182 -301.210642 
L 357.729425 -303.436695 
L 357.896276 -305.662749 
L 358.061706 -307.888803 
L 358.225738 -310.114856 
L 358.388448 -312.34091 
L 358.549956 -314.566964 
L 358.710414 -316.793017 
L 358.870003 -319.019071 
L 359.028917 -321.245125 
L 359.187354 -323.471178 
L 359.345501 -325.697232 
L 359.503526 -327.923285 
L 359.661564 -330.149339 
L 359.819711 -332.375393 
L 359.978012 -334.601446 
L 360.136459 -336.8275 
L 367.568541 -336.8275 
L 367.568541 -336.8275 
L 367.726988 -334.601446 
L 367.885289 -332.375393 
L 368.043436 -330.149339 
L 368.201474 -327.923285 
L 368.359499 -325.697232 
L 368.517646 -323.471178 
L 368.676083 -321.245125 
L 368.834997 -319.019071 
L 368.994586 -316.793017 
L 369.155044 -314.566964 
L 369.316552 -312.34091 
L 369.479262 -310.114856 
L 369.643294 -307.888803 
L 369.808724 -305.662749 
L 369.975575 -303.436695 
L 370.143818 -301.210642 
L 370.313369 -298.984588 
L 370.484087 -296.758534 
L 370.655784 -294.532481 
L 370.828228 -292.306427 
L 371.00115 -290.080374 
L 371.174261 -287.85432 
L 371.34726 -285.628266 
L 371.519853 -283.402213 
L 371.691761 -281.176159 
L 371.862744 -278.950105 
L 372.032605 -276.724052 
L 372.201211 -274.497998 
L 372.368504 -272.271944 
L 372.534503 -270.045891 
L 372.699319 -267.819837 
L 372.863153 -265.593784 
L 373.0263 -263.36773 
L 373.18914 -261.141676 
L 373.352138 -258.915623 
L 373.51583 -256.689569 
L 373.680808 -254.463515 
L 373.847713 -252.237462 
L 374.017204 -250.011408 
L 374.18995 -247.785354 
L 374.3666 -245.559301 
L 374.547765 -243.333247 
L 374.733994 -241.107193 
L 374.925751 -238.88114 
L 375.123392 -236.655086 
L 375.327148 -234.429033 
L 375.537103 -232.202979 
L 375.753177 -229.976925 
L 375.975114 -227.750872 
L 376.202467 -225.524818 
L 376.434593 -223.298764 
L 376.670648 -221.072711 
L 376.909581 -218.846657 
L 377.150142 -216.620603 
L 377.390887 -214.39455 
L 377.630183 -212.168496 
L 377.866232 -209.942443 
L 378.097079 -207.716389 
L 378.32064 -205.490335 
L 378.534726 -203.264282 
L 378.73707 -201.038228 
L 378.925362 -198.812174 
L 379.097276 -196.586121 
L 379.250516 -194.360067 
L 379.382843 -192.134013 
L 379.492119 -189.90796 
L 379.57634 -187.681906 
L 379.633675 -185.455852 
L 379.6625 -183.229799 
L 379.661426 -181.003745 
L 379.629331 -178.777692 
L 379.565381 -176.551638 
L 379.469049 -174.325584 
L 379.340129 -172.099531 
L 379.17874 -169.873477 
L 378.985331 -167.647423 
L 378.760672 -165.42137 
L 378.505844 -163.195316 
L 378.222223 -160.969262 
L 377.911454 -158.743209 
L 377.575426 -156.517155 
L 377.216238 -154.291102 
L 376.836166 -152.065048 
L 376.437624 -149.838994 
L 376.023129 -147.612941 
L 375.595257 -145.386887 
L 375.156608 -143.160833 
L 374.709768 -140.93478 
L 374.257277 -138.708726 
L 373.801593 -136.482672 
L 373.345069 -134.256619 
L 372.889928 -132.030565 
L 372.438241 -129.804511 
L 371.991914 -127.578458 
L 371.552681 -125.352404 
L 371.122092 -123.126351 
L 370.701512 -120.900297 
L 370.292126 -118.674243 
L 369.894941 -116.44819 
z
" style="stroke: #000000; stroke-opacity: 0.65"/>
    </defs>
    <g clip-path="url(#pdf82a7d4a0)">
     <use xlink:href="#maa2ea511d4" x="0" y="402.464375" style="fill: #0ec72a; fill-opacity: 0.65; stroke: #000000; stroke-opacity: 0.65"/>
    </g>
   </g>
   <g id="matplotlib.axis_1">
    <g id="xtick_1">
     <g id="line2d_1">
      <defs>
       <path id="mf55b69b6d4" d="M 0 0 
L 0 3.5 
" style="stroke: #000000; stroke-width: 0.8"/>
      </defs>
      <g>
       <use xlink:href="#mf55b69b6d4" x="110.8925" y="361.036875" style="stroke: #000000; stroke-width: 0.8"/>
      </g>
     </g>
     <g id="text_1">
      <!-- cask -->
      <g transform="translate(99.579219 375.635312) scale(0.1 -0.1)">
       <defs>
        <path id="DejaVuSans-63" d="M 3122 3366 
L 3122 2828 
Q 2878 2963 2633 3030 
Q 2388 3097 2138 3097 
Q 1578 3097 1268 2742 
Q 959 2388 959 1747 
Q 959 1106 1268 751 
Q 1578 397 2138 397 
Q 2388 397 2633 464 
Q 2878 531 3122 666 
L 3122 134 
Q 2881 22 2623 -34 
Q 2366 -91 2075 -91 
Q 1284 -91 818 406 
Q 353 903 353 1747 
Q 353 2603 823 3093 
Q 1294 3584 2113 3584 
Q 2378 3584 2631 3529 
Q 2884 3475 3122 3366 
z
" transform="scale(0.015625)"/>
        <path id="DejaVuSans-61" d="M 2194 1759 
Q 1497 1759 1228 1600 
Q 959 1441 959 1056 
Q 959 750 1161 570 
Q 1363 391 1709 391 
Q 2188 391 2477 730 
Q 2766 1069 2766 1631 
L 2766 1759 
L 2194 1759 
z
M 3341 1997 
L 3341 0 
L 2766 0 
L 2766 531 
Q 2569 213 2275 61 
Q 1981 -91 1556 -91 
Q 1019 -91 701 211 
Q 384 513 384 1019 
Q 384 1609 779 1909 
Q 1175 2209 1959 2209 
L 2766 2209 
L 2766 2266 
Q 2766 2663 2505 2880 
Q 2244 3097 1772 3097 
Q 1472 3097 1187 3025 
Q 903 2953 641 2809 
L 641 3341 
Q 956 3463 1253 3523 
Q 1550 3584 1831 3584 
Q 2591 3584 2966 3190 
Q 3341 2797 3341 1997 
z
" transform="scale(0.015625)"/>
        <path id="DejaVuSans-73" d="M 2834 3397 
L 2834 2853 
Q 2591 2978 2328 3040 
Q 2066 3103 1784 3103 
Q 1356 3103 1142 2972 
Q 928 2841 928 2578 
Q 928 2378 1081 2264 
Q 1234 2150 1697 2047 
L 1894 2003 
Q 2506 1872 2764 1633 
Q 3022 1394 3022 966 
Q 3022 478 2636 193 
Q 2250 -91 1575 -91 
Q 1294 -91 989 -36 
Q 684 19 347 128 
L 347 722 
Q 666 556 975 473 
Q 1284 391 1588 391 
Q 1994 391 2212 530 
Q 2431 669 2431 922 
Q 2431 1156 2273 1281 
Q 2116 1406 1581 1522 
L 1381 1569 
Q 847 1681 609 1914 
Q 372 2147 372 2553 
Q 372 3047 722 3315 
Q 1072 3584 1716 3584 
Q 2034 3584 2315 3537 
Q 2597 3491 2834 3397 
z
" transform="scale(0.015625)"/>
        <path id="DejaVuSans-6b" d="M 581 4863 
L 1159 4863 
L 1159 1991 
L 2875 3500 
L 3609 3500 
L 1753 1863 
L 3688 0 
L 2938 0 
L 1159 1709 
L 1159 0 
L 581 0 
L 581 4863 
z
" transform="scale(0.015625)"/>
       </defs>
       <use xlink:href="#DejaVuSans-63"/>
       <use xlink:href="#DejaVuSans-61" x="54.980469"/>
       <use xlink:href="#DejaVuSans-73" x="116.259766"/>
       <use xlink:href="#DejaVuSans-6b" x="168.359375"/>
      </g>
     </g>
    </g>
    <g id="xtick_2">
     <g id="line2d_2">
      <g>
       <use xlink:href="#mf55b69b6d4" x="237.3725" y="361.036875" style="stroke: #000000; stroke-width: 0.8"/>
      </g>
     </g>
     <g id="text_2">
      <!-- ctrl -->
      <g transform="translate(229.218594 375.635312) scale(0.1 -0.1)">
       <defs>
        <path id="DejaVuSans-74" d="M 1172 4494 
L 1172 3500 
L 2356 3500 
L 2356 3053 
L 1172 3053 
L 1172 1153 
Q 1172 725 1289 603 
Q 1406 481 1766 481 
L 2356 481 
L 2356 0 
L 1766 0 
Q 1100 0 847 248 
Q 594 497 594 1153 
L 594 3053 
L 172 3053 
L 172 3500 
L 594 3500 
L 594 4494 
L 1172 4494 
z
" transform="scale(0.015625)"/>
        <path id="DejaVuSans-72" d="M 2631 2963 
Q 2534 3019 2420 3045 
Q 2306 3072 2169 3072 
Q 1681 3072 1420 2755 
Q 1159 2438 1159 1844 
L 1159 0 
L 581 0 
L 581 3500 
L 1159 3500 
L 1159 2956 
Q 1341 3275 1631 3429 
Q 1922 3584 2338 3584 
Q 2397 3584 2469 3576 
Q 2541 3569 2628 3553 
L 2631 2963 
z
" transform="scale(0.015625)"/>
        <path id="DejaVuSans-6c" d="M 603 4863 
L 1178 4863 
L 1178 0 
L 603 0 
L 603 4863 
z
" transform="scale(0.015625)"/>
       </defs>
       <use xlink:href="#DejaVuSans-63"/>
       <use xlink:href="#DejaVuSans-74" x="54.980469"/>
       <use xlink:href="#DejaVuSans-72" x="94.189453"/>
       <use xlink:href="#DejaVuSans-6c" x="135.302734"/>
      </g>
     </g>
    </g>
    <g id="xtick_3">
     <g id="line2d_3">
      <g>
       <use xlink:href="#mf55b69b6d4" x="363.8525" y="361.036875" style="stroke: #000000; stroke-width: 0.8"/>
      </g>
     </g>
     <g id="text_3">
      <!-- female -->
      <g transform="translate(346.615781 375.635312) scale(0.1 -0.1)">
       <defs>
        <path id="DejaVuSans-66" d="M 2375 4863 
L 2375 4384 
L 1825 4384 
Q 1516 4384 1395 4259 
Q 1275 4134 1275 3809 
L 1275 3500 
L 2222 3500 
L 2222 3053 
L 1275 3053 
L 1275 0 
L 697 0 
L 697 3053 
L 147 3053 
L 147 3500 
L 697 3500 
L 697 3744 
Q 697 4328 969 4595 
Q 1241 4863 1831 4863 
L 2375 4863 
z
" transform="scale(0.015625)"/>
        <path id="DejaVuSans-65" d="M 3597 1894 
L 3597 1613 
L 953 1613 
Q 991 1019 1311 708 
Q 1631 397 2203 397 
Q 2534 397 2845 478 
Q 3156 559 3463 722 
L 3463 178 
Q 3153 47 2828 -22 
Q 2503 -91 2169 -91 
Q 1331 -91 842 396 
Q 353 884 353 1716 
Q 353 2575 817 3079 
Q 1281 3584 2069 3584 
Q 2775 3584 3186 3129 
Q 3597 2675 3597 1894 
z
M 3022 2063 
Q 3016 2534 2758 2815 
Q 2500 3097 2075 3097 
Q 1594 3097 1305 2825 
Q 1016 2553 972 2059 
L 3022 2063 
z
" transform="scale(0.015625)"/>
        <path id="DejaVuSans-6d" d="M 3328 2828 
Q 3544 3216 3844 3400 
Q 4144 3584 4550 3584 
Q 5097 3584 5394 3201 
Q 5691 2819 5691 2113 
L 5691 0 
L 5113 0 
L 5113 2094 
Q 5113 2597 4934 2840 
Q 4756 3084 4391 3084 
Q 3944 3084 3684 2787 
Q 3425 2491 3425 1978 
L 3425 0 
L 2847 0 
L 2847 2094 
Q 2847 2600 2669 2842 
Q 2491 3084 2119 3084 
Q 1678 3084 1418 2786 
Q 1159 2488 1159 1978 
L 1159 0 
L 581 0 
L 581 3500 
L 1159 3500 
L 1159 2956 
Q 1356 3278 1631 3431 
Q 1906 3584 2284 3584 
Q 2666 3584 2933 3390 
Q 3200 3197 3328 2828 
z
" transform="scale(0.015625)"/>
       </defs>
       <use xlink:href="#DejaVuSans-66"/>
       <use xlink:href="#DejaVuSans-65" x="35.205078"/>
       <use xlink:href="#DejaVuSans-6d" x="96.728516"/>
       <use xlink:href="#DejaVuSans-61" x="194.140625"/>
       <use xlink:href="#DejaVuSans-6c" x="255.419922"/>
       <use xlink:href="#DejaVuSans-65" x="283.203125"/>
      </g>
     </g>
    </g>
    <g id="text_4">
     <!-- Groups -->
     <g transform="translate(212.418594 392.352812) scale(0.14 -0.14)">
      <defs>
       <path id="DejaVuSans-47" d="M 3809 666 
L 3809 1919 
L 2778 1919 
L 2778 2438 
L 4434 2438 
L 4434 434 
Q 4069 175 3628 42 
Q 3188 -91 2688 -91 
Q 1594 -91 976 548 
Q 359 1188 359 2328 
Q 359 3472 976 4111 
Q 1594 4750 2688 4750 
Q 3144 4750 3555 4637 
Q 3966 4525 4313 4306 
L 4313 3634 
Q 3963 3931 3569 4081 
Q 3175 4231 2741 4231 
Q 1884 4231 1454 3753 
Q 1025 3275 1025 2328 
Q 1025 1384 1454 906 
Q 1884 428 2741 428 
Q 3075 428 3337 486 
Q 3600 544 3809 666 
z
" transform="scale(0.015625)"/>
       <path id="DejaVuSans-6f" d="M 1959 3097 
Q 1497 3097 1228 2736 
Q 959 2375 959 1747 
Q 959 1119 1226 758 
Q 1494 397 1959 397 
Q 2419 397 2687 759 
Q 2956 1122 2956 1747 
Q 2956 2369 2687 2733 
Q 2419 3097 1959 3097 
z
M 1959 3584 
Q 2709 3584 3137 3096 
Q 3566 2609 3566 1747 
Q 3566 888 3137 398 
Q 2709 -91 1959 -91 
Q 1206 -91 779 398 
Q 353 888 353 1747 
Q 353 2609 779 3096 
Q 1206 3584 1959 3584 
z
" transform="scale(0.015625)"/>
       <path id="DejaVuSans-75" d="M 544 1381 
L 544 3500 
L 1119 3500 
L 1119 1403 
Q 1119 906 1312 657 
Q 1506 409 1894 409 
Q 2359 409 2629 706 
Q 2900 1003 2900 1516 
L 2900 3500 
L 3475 3500 
L 3475 0 
L 2900 0 
L 2900 538 
Q 2691 219 2414 64 
Q 2138 -91 1772 -91 
Q 1169 -91 856 284 
Q 544 659 544 1381 
z
M 1991 3584 
L 1991 3584 
z
" transform="scale(0.015625)"/>
       <path id="DejaVuSans-70" d="M 1159 525 
L 1159 -1331 
L 581 -1331 
L 581 3500 
L 1159 3500 
L 1159 2969 
Q 1341 3281 1617 3432 
Q 1894 3584 2278 3584 
Q 2916 3584 3314 3078 
Q 3713 2572 3713 1747 
Q 3713 922 3314 415 
Q 2916 -91 2278 -91 
Q 1894 -91 1617 61 
Q 1341 213 1159 525 
z
M 3116 1747 
Q 3116 2381 2855 2742 
Q 2594 3103 2138 3103 
Q 1681 3103 1420 2742 
Q 1159 2381 1159 1747 
Q 1159 1113 1420 752 
Q 1681 391 2138 391 
Q 2594 391 2855 752 
Q 3116 1113 3116 1747 
z
" transform="scale(0.015625)"/>
      </defs>
      <use xlink:href="#DejaVuSans-47"/>
      <use xlink:href="#DejaVuSans-72" x="77.490234"/>
      <use xlink:href="#DejaVuSans-6f" x="116.353516"/>
      <use xlink:href="#DejaVuSans-75" x="177.535156"/>
      <use xlink:href="#DejaVuSans-70" x="240.914062"/>
      <use xlink:href="#DejaVuSans-73" x="304.390625"/>
     </g>
    </g>
   </g>
   <g id="matplotlib.axis_2">
    <g id="ytick_1">
     <g id="line2d_4">
      <path d="M 47.6525 333.596875 
L 427.0925 333.596875 
" clip-path="url(#pdf82a7d4a0)" style="fill: none; stroke-dasharray: 2.96,1.28; stroke-dashoffset: 0; stroke: #b0b0b0; stroke-opacity: 0.3; stroke-width: 0.8"/>
     </g>
     <g id="line2d_5">
      <defs>
       <path id="m77918115a8" d="M 0 0 
L -3.5 0 
" style="stroke: #000000; stroke-width: 0.8"/>
      </defs>
      <g>
       <use xlink:href="#m77918115a8" x="47.6525" y="333.596875" style="stroke: #000000; stroke-width: 0.8"/>
      </g>
     </g>
     <g id="text_5">
      <!-- 0.2 -->
      <g transform="translate(24.749375 337.396094) scale(0.1 -0.1)">
       <defs>
        <path id="DejaVuSans-30" d="M 2034 4250 
Q 1547 4250 1301 3770 
Q 1056 3291 1056 2328 
Q 1056 1369 1301 889 
Q 1547 409 2034 409 
Q 2525 409 2770 889 
Q 3016 1369 3016 2328 
Q 3016 3291 2770 3770 
Q 2525 4250 2034 4250 
z
M 2034 4750 
Q 2819 4750 3233 4129 
Q 3647 3509 3647 2328 
Q 3647 1150 3233 529 
Q 2819 -91 2034 -91 
Q 1250 -91 836 529 
Q 422 1150 422 2328 
Q 422 3509 836 4129 
Q 1250 4750 2034 4750 
z
" transform="scale(0.015625)"/>
        <path id="DejaVuSans-2e" d="M 684 794 
L 1344 794 
L 1344 0 
L 684 0 
L 684 794 
z
" transform="scale(0.015625)"/>
        <path id="DejaVuSans-32" d="M 1228 531 
L 3431 531 
L 3431 0 
L 469 0 
L 469 531 
Q 828 903 1448 1529 
Q 2069 2156 2228 2338 
Q 2531 2678 2651 2914 
Q 2772 3150 2772 3378 
Q 2772 3750 2511 3984 
Q 2250 4219 1831 4219 
Q 1534 4219 1204 4116 
Q 875 4013 500 3803 
L 500 4441 
Q 881 4594 1212 4672 
Q 1544 4750 1819 4750 
Q 2544 4750 2975 4387 
Q 3406 4025 3406 3419 
Q 3406 3131 3298 2873 
Q 3191 2616 2906 2266 
Q 2828 2175 2409 1742 
Q 1991 1309 1228 531 
z
" transform="scale(0.015625)"/>
       </defs>
       <use xlink:href="#DejaVuSans-30"/>
       <use xlink:href="#DejaVuSans-2e" x="63.623047"/>
       <use xlink:href="#DejaVuSans-32" x="95.410156"/>
      </g>
     </g>
    </g>
    <g id="ytick_2">
     <g id="line2d_6">
      <path d="M 47.6525 290.476875 
L 427.0925 290.476875 
" clip-path="url(#pdf82a7d4a0)" style="fill: none; stroke-dasharray: 2.96,1.28; stroke-dashoffset: 0; stroke: #b0b0b0; stroke-opacity: 0.3; stroke-width: 0.8"/>
     </g>
     <g id="line2d_7">
      <g>
       <use xlink:href="#m77918115a8" x="47.6525" y="290.476875" style="stroke: #000000; stroke-width: 0.8"/>
      </g>
     </g>
     <g id="text_6">
      <!-- 0.3 -->
      <g transform="translate(24.749375 294.276094) scale(0.1 -0.1)">
       <defs>
        <path id="DejaVuSans-33" d="M 2597 2516 
Q 3050 2419 3304 2112 
Q 3559 1806 3559 1356 
Q 3559 666 3084 287 
Q 2609 -91 1734 -91 
Q 1441 -91 1130 -33 
Q 819 25 488 141 
L 488 750 
Q 750 597 1062 519 
Q 1375 441 1716 441 
Q 2309 441 2620 675 
Q 2931 909 2931 1356 
Q 2931 1769 2642 2001 
Q 2353 2234 1838 2234 
L 1294 2234 
L 1294 2753 
L 1863 2753 
Q 2328 2753 2575 2939 
Q 2822 3125 2822 3475 
Q 2822 3834 2567 4026 
Q 2313 4219 1838 4219 
Q 1578 4219 1281 4162 
Q 984 4106 628 3988 
L 628 4550 
Q 988 4650 1302 4700 
Q 1616 4750 1894 4750 
Q 2613 4750 3031 4423 
Q 3450 4097 3450 3541 
Q 3450 3153 3228 2886 
Q 3006 2619 2597 2516 
z
" transform="scale(0.015625)"/>
       </defs>
       <use xlink:href="#DejaVuSans-30"/>
       <use xlink:href="#DejaVuSans-2e" x="63.623047"/>
       <use xlink:href="#DejaVuSans-33" x="95.410156"/>
      </g>
     </g>
    </g>
    <g id="ytick_3">
     <g id="line2d_8">
      <path d="M 47.6525 247.356875 
L 427.0925 247.356875 
" clip-path="url(#pdf82a7d4a0)" style="fill: none; stroke-dasharray: 2.96,1.28; stroke-dashoffset: 0; stroke: #b0b0b0; stroke-opacity: 0.3; stroke-width: 0.8"/>
     </g>
     <g id="line2d_9">
      <g>
       <use xlink:href="#m77918115a8" x="47.6525" y="247.356875" style="stroke: #000000; stroke-width: 0.8"/>
      </g>
     </g>
     <g id="text_7">
      <!-- 0.4 -->
      <g transform="translate(24.749375 251.156094) scale(0.1 -0.1)">
       <defs>
        <path id="DejaVuSans-34" d="M 2419 4116 
L 825 1625 
L 2419 1625 
L 2419 4116 
z
M 2253 4666 
L 3047 4666 
L 3047 1625 
L 3713 1625 
L 3713 1100 
L 3047 1100 
L 3047 0 
L 2419 0 
L 2419 1100 
L 313 1100 
L 313 1709 
L 2253 4666 
z
" transform="scale(0.015625)"/>
       </defs>
       <use xlink:href="#DejaVuSans-30"/>
       <use xlink:href="#DejaVuSans-2e" x="63.623047"/>
       <use xlink:href="#DejaVuSans-34" x="95.410156"/>
      </g>
     </g>
    </g>
    <g id="ytick_4">
     <g id="line2d_10">
      <path d="M 47.6525 204.236875 
L 427.0925 204.236875 
" clip-path="url(#pdf82a7d4a0)" style="fill: none; stroke-dasharray: 2.96,1.28; stroke-dashoffset: 0; stroke: #b0b0b0; stroke-opacity: 0.3; stroke-width: 0.8"/>
     </g>
     <g id="line2d_11">
      <g>
       <use xlink:href="#m77918115a8" x="47.6525" y="204.236875" style="stroke: #000000; stroke-width: 0.8"/>
      </g>
     </g>
     <g id="text_8">
      <!-- 0.5 -->
      <g transform="translate(24.749375 208.036094) scale(0.1 -0.1)">
       <defs>
        <path id="DejaVuSans-35" d="M 691 4666 
L 3169 4666 
L 3169 4134 
L 1269 4134 
L 1269 2991 
Q 1406 3038 1543 3061 
Q 1681 3084 1819 3084 
Q 2600 3084 3056 2656 
Q 3513 2228 3513 1497 
Q 3513 744 3044 326 
Q 2575 -91 1722 -91 
Q 1428 -91 1123 -41 
Q 819 9 494 109 
L 494 744 
Q 775 591 1075 516 
Q 1375 441 1709 441 
Q 2250 441 2565 725 
Q 2881 1009 2881 1497 
Q 2881 1984 2565 2268 
Q 2250 2553 1709 2553 
Q 1456 2553 1204 2497 
Q 953 2441 691 2322 
L 691 4666 
z
" transform="scale(0.015625)"/>
       </defs>
       <use xlink:href="#DejaVuSans-30"/>
       <use xlink:href="#DejaVuSans-2e" x="63.623047"/>
       <use xlink:href="#DejaVuSans-35" x="95.410156"/>
      </g>
     </g>
    </g>
    <g id="ytick_5">
     <g id="line2d_12">
      <path d="M 47.6525 161.116875 
L 427.0925 161.116875 
" clip-path="url(#pdf82a7d4a0)" style="fill: none; stroke-dasharray: 2.96,1.28; stroke-dashoffset: 0; stroke: #b0b0b0; stroke-opacity: 0.3; stroke-width: 0.8"/>
     </g>
     <g id="line2d_13">
      <g>
       <use xlink:href="#m77918115a8" x="47.6525" y="161.116875" style="stroke: #000000; stroke-width: 0.8"/>
      </g>
     </g>
     <g id="text_9">
      <!-- 0.6 -->
      <g transform="translate(24.749375 164.916094) scale(0.1 -0.1)">
       <defs>
        <path id="DejaVuSans-36" d="M 2113 2584 
Q 1688 2584 1439 2293 
Q 1191 2003 1191 1497 
Q 1191 994 1439 701 
Q 1688 409 2113 409 
Q 2538 409 2786 701 
Q 3034 994 3034 1497 
Q 3034 2003 2786 2293 
Q 2538 2584 2113 2584 
z
M 3366 4563 
L 3366 3988 
Q 3128 4100 2886 4159 
Q 2644 4219 2406 4219 
Q 1781 4219 1451 3797 
Q 1122 3375 1075 2522 
Q 1259 2794 1537 2939 
Q 1816 3084 2150 3084 
Q 2853 3084 3261 2657 
Q 3669 2231 3669 1497 
Q 3669 778 3244 343 
Q 2819 -91 2113 -91 
Q 1303 -91 875 529 
Q 447 1150 447 2328 
Q 447 3434 972 4092 
Q 1497 4750 2381 4750 
Q 2619 4750 2861 4703 
Q 3103 4656 3366 4563 
z
" transform="scale(0.015625)"/>
       </defs>
       <use xlink:href="#DejaVuSans-30"/>
       <use xlink:href="#DejaVuSans-2e" x="63.623047"/>
       <use xlink:href="#DejaVuSans-36" x="95.410156"/>
      </g>
     </g>
    </g>
    <g id="ytick_6">
     <g id="line2d_14">
      <path d="M 47.6525 117.996875 
L 427.0925 117.996875 
" clip-path="url(#pdf82a7d4a0)" style="fill: none; stroke-dasharray: 2.96,1.28; stroke-dashoffset: 0; stroke: #b0b0b0; stroke-opacity: 0.3; stroke-width: 0.8"/>
     </g>
     <g id="line2d_15">
      <g>
       <use xlink:href="#m77918115a8" x="47.6525" y="117.996875" style="stroke: #000000; stroke-width: 0.8"/>
      </g>
     </g>
     <g id="text_10">
      <!-- 0.7 -->
      <g transform="translate(24.749375 121.796094) scale(0.1 -0.1)">
       <defs>
        <path id="DejaVuSans-37" d="M 525 4666 
L 3525 4666 
L 3525 4397 
L 1831 0 
L 1172 0 
L 2766 4134 
L 525 4134 
L 525 4666 
z
" transform="scale(0.015625)"/>
       </defs>
       <use xlink:href="#DejaVuSans-30"/>
       <use xlink:href="#DejaVuSans-2e" x="63.623047"/>
       <use xlink:href="#DejaVuSans-37" x="95.410156"/>
      </g>
     </g>
    </g>
    <g id="ytick_7">
     <g id="line2d_16">
      <path d="M 47.6525 74.876875 
L 427.0925 74.876875 
" clip-path="url(#pdf82a7d4a0)" style="fill: none; stroke-dasharray: 2.96,1.28; stroke-dashoffset: 0; stroke: #b0b0b0; stroke-opacity: 0.3; stroke-width: 0.8"/>
     </g>
     <g id="line2d_17">
      <g>
       <use xlink:href="#m77918115a8" x="47.6525" y="74.876875" style="stroke: #000000; stroke-width: 0.8"/>
      </g>
     </g>
     <g id="text_11">
      <!-- 0.8 -->
      <g transform="translate(24.749375 78.676094) scale(0.1 -0.1)">
       <defs>
        <path id="DejaVuSans-38" d="M 2034 2216 
Q 1584 2216 1326 1975 
Q 1069 1734 1069 1313 
Q 1069 891 1326 650 
Q 1584 409 2034 409 
Q 2484 409 2743 651 
Q 3003 894 3003 1313 
Q 3003 1734 2745 1975 
Q 2488 2216 2034 2216 
z
M 1403 2484 
Q 997 2584 770 2862 
Q 544 3141 544 3541 
Q 544 4100 942 4425 
Q 1341 4750 2034 4750 
Q 2731 4750 3128 4425 
Q 3525 4100 3525 3541 
Q 3525 3141 3298 2862 
Q 3072 2584 2669 2484 
Q 3125 2378 3379 2068 
Q 3634 1759 3634 1313 
Q 3634 634 3220 271 
Q 2806 -91 2034 -91 
Q 1263 -91 848 271 
Q 434 634 434 1313 
Q 434 1759 690 2068 
Q 947 2378 1403 2484 
z
M 1172 3481 
Q 1172 3119 1398 2916 
Q 1625 2713 2034 2713 
Q 2441 2713 2670 2916 
Q 2900 3119 2900 3481 
Q 2900 3844 2670 4047 
Q 2441 4250 2034 4250 
Q 1625 4250 1398 4047 
Q 1172 3844 1172 3481 
z
" transform="scale(0.015625)"/>
       </defs>
       <use xlink:href="#DejaVuSans-30"/>
       <use xlink:href="#DejaVuSans-2e" x="63.623047"/>
       <use xlink:href="#DejaVuSans-38" x="95.410156"/>
      </g>
     </g>
    </g>
    <g id="ytick_8">
     <g id="line2d_18">
      <path d="M 47.6525 31.756875 
L 427.0925 31.756875 
" clip-path="url(#pdf82a7d4a0)" style="fill: none; stroke-dasharray: 2.96,1.28; stroke-dashoffset: 0; stroke: #b0b0b0; stroke-opacity: 0.3; stroke-width: 0.8"/>
     </g>
     <g id="line2d_19">
      <g>
       <use xlink:href="#m77918115a8" x="47.6525" y="31.756875" style="stroke: #000000; stroke-width: 0.8"/>
      </g>
     </g>
     <g id="text_12">
      <!-- 0.9 -->
      <g transform="translate(24.749375 35.556094) scale(0.1 -0.1)">
       <defs>
        <path id="DejaVuSans-39" d="M 703 97 
L 703 672 
Q 941 559 1184 500 
Q 1428 441 1663 441 
Q 2288 441 2617 861 
Q 2947 1281 2994 2138 
Q 2813 1869 2534 1725 
Q 2256 1581 1919 1581 
Q 1219 1581 811 2004 
Q 403 2428 403 3163 
Q 403 3881 828 4315 
Q 1253 4750 1959 4750 
Q 2769 4750 3195 4129 
Q 3622 3509 3622 2328 
Q 3622 1225 3098 567 
Q 2575 -91 1691 -91 
Q 1453 -91 1209 -44 
Q 966 3 703 97 
z
M 1959 2075 
Q 2384 2075 2632 2365 
Q 2881 2656 2881 3163 
Q 2881 3666 2632 3958 
Q 2384 4250 1959 4250 
Q 1534 4250 1286 3958 
Q 1038 3666 1038 3163 
Q 1038 2656 1286 2365 
Q 1534 2075 1959 2075 
z
" transform="scale(0.015625)"/>
       </defs>
       <use xlink:href="#DejaVuSans-30"/>
       <use xlink:href="#DejaVuSans-2e" x="63.623047"/>
       <use xlink:href="#DejaVuSans-39" x="95.410156"/>
      </g>
     </g>
    </g>
    <g id="text_13">
     <!-- Good Meal Proportion (ratio) -->
     <g transform="translate(17.837813 294.122344) rotate(-90) scale(0.14 -0.14)">
      <defs>
       <path id="DejaVuSans-64" d="M 2906 2969 
L 2906 4863 
L 3481 4863 
L 3481 0 
L 2906 0 
L 2906 525 
Q 2725 213 2448 61 
Q 2172 -91 1784 -91 
Q 1150 -91 751 415 
Q 353 922 353 1747 
Q 353 2572 751 3078 
Q 1150 3584 1784 3584 
Q 2172 3584 2448 3432 
Q 2725 3281 2906 2969 
z
M 947 1747 
Q 947 1113 1208 752 
Q 1469 391 1925 391 
Q 2381 391 2643 752 
Q 2906 1113 2906 1747 
Q 2906 2381 2643 2742 
Q 2381 3103 1925 3103 
Q 1469 3103 1208 2742 
Q 947 2381 947 1747 
z
" transform="scale(0.015625)"/>
       <path id="DejaVuSans-20" transform="scale(0.015625)"/>
       <path id="DejaVuSans-4d" d="M 628 4666 
L 1569 4666 
L 2759 1491 
L 3956 4666 
L 4897 4666 
L 4897 0 
L 4281 0 
L 4281 4097 
L 3078 897 
L 2444 897 
L 1241 4097 
L 1241 0 
L 628 0 
L 628 4666 
z
" transform="scale(0.015625)"/>
       <path id="DejaVuSans-50" d="M 1259 4147 
L 1259 2394 
L 2053 2394 
Q 2494 2394 2734 2622 
Q 2975 2850 2975 3272 
Q 2975 3691 2734 3919 
Q 2494 4147 2053 4147 
L 1259 4147 
z
M 628 4666 
L 2053 4666 
Q 2838 4666 3239 4311 
Q 3641 3956 3641 3272 
Q 3641 2581 3239 2228 
Q 2838 1875 2053 1875 
L 1259 1875 
L 1259 0 
L 628 0 
L 628 4666 
z
" transform="scale(0.015625)"/>
       <path id="DejaVuSans-69" d="M 603 3500 
L 1178 3500 
L 1178 0 
L 603 0 
L 603 3500 
z
M 603 4863 
L 1178 4863 
L 1178 4134 
L 603 4134 
L 603 4863 
z
" transform="scale(0.015625)"/>
       <path id="DejaVuSans-6e" d="M 3513 2113 
L 3513 0 
L 2938 0 
L 2938 2094 
Q 2938 2591 2744 2837 
Q 2550 3084 2163 3084 
Q 1697 3084 1428 2787 
Q 1159 2491 1159 1978 
L 1159 0 
L 581 0 
L 581 3500 
L 1159 3500 
L 1159 2956 
Q 1366 3272 1645 3428 
Q 1925 3584 2291 3584 
Q 2894 3584 3203 3211 
Q 3513 2838 3513 2113 
z
" transform="scale(0.015625)"/>
       <path id="DejaVuSans-28" d="M 1984 4856 
Q 1566 4138 1362 3434 
Q 1159 2731 1159 2009 
Q 1159 1288 1364 580 
Q 1569 -128 1984 -844 
L 1484 -844 
Q 1016 -109 783 600 
Q 550 1309 550 2009 
Q 550 2706 781 3412 
Q 1013 4119 1484 4856 
L 1984 4856 
z
" transform="scale(0.015625)"/>
       <path id="DejaVuSans-29" d="M 513 4856 
L 1013 4856 
Q 1481 4119 1714 3412 
Q 1947 2706 1947 2009 
Q 1947 1309 1714 600 
Q 1481 -109 1013 -844 
L 513 -844 
Q 928 -128 1133 580 
Q 1338 1288 1338 2009 
Q 1338 2731 1133 3434 
Q 928 4138 513 4856 
z
" transform="scale(0.015625)"/>
      </defs>
      <use xlink:href="#DejaVuSans-47"/>
      <use xlink:href="#DejaVuSans-6f" x="77.490234"/>
      <use xlink:href="#DejaVuSans-6f" x="138.671875"/>
      <use xlink:href="#DejaVuSans-64" x="199.853516"/>
      <use xlink:href="#DejaVuSans-20" x="263.330078"/>
      <use xlink:href="#DejaVuSans-4d" x="295.117188"/>
      <use xlink:href="#DejaVuSans-65" x="381.396484"/>
      <use xlink:href="#DejaVuSans-61" x="442.919922"/>
      <use xlink:href="#DejaVuSans-6c" x="504.199219"/>
      <use xlink:href="#DejaVuSans-20" x="531.982422"/>
      <use xlink:href="#DejaVuSans-50" x="563.769531"/>
      <use xlink:href="#DejaVuSans-72" x="622.322266"/>
      <use xlink:href="#DejaVuSans-6f" x="661.185547"/>
      <use xlink:href="#DejaVuSans-70" x="722.367188"/>
      <use xlink:href="#DejaVuSans-6f" x="785.84375"/>
      <use xlink:href="#DejaVuSans-72" x="847.025391"/>
      <use xlink:href="#DejaVuSans-74" x="888.138672"/>
      <use xlink:href="#DejaVuSans-69" x="927.347656"/>
      <use xlink:href="#DejaVuSans-6f" x="955.130859"/>
      <use xlink:href="#DejaVuSans-6e" x="1016.3125"/>
      <use xlink:href="#DejaVuSans-20" x="1079.691406"/>
      <use xlink:href="#DejaVuSans-28" x="1111.478516"/>
      <use xlink:href="#DejaVuSans-72" x="1150.492188"/>
      <use xlink:href="#DejaVuSans-61" x="1191.605469"/>
      <use xlink:href="#DejaVuSans-74" x="1252.884766"/>
      <use xlink:href="#DejaVuSans-69" x="1292.09375"/>
      <use xlink:href="#DejaVuSans-6f" x="1319.876953"/>
      <use xlink:href="#DejaVuSans-29" x="1381.058594"/>
     </g>
    </g>
   </g>
   <g id="patch_3">
    <path d="M 101.4065 239.17206 
L 120.3785 239.17206 
L 120.3785 133.427071 
L 101.4065 133.427071 
L 101.4065 239.17206 
z
" clip-path="url(#pdf82a7d4a0)" style="fill: #ffffff; stroke: #000000; stroke-linejoin: miter"/>
   </g>
   <g id="line2d_20">
    <path d="M 110.8925 239.17206 
L 110.8925 345.916875 
" clip-path="url(#pdf82a7d4a0)" style="fill: none; stroke: #000000; stroke-linecap: square"/>
   </g>
   <g id="line2d_21">
    <path d="M 110.8925 133.427071 
L 110.8925 81.640797 
" clip-path="url(#pdf82a7d4a0)" style="fill: none; stroke: #000000; stroke-linecap: square"/>
   </g>
   <g id="line2d_22">
    <path d="M 106.1495 345.916875 
L 115.6355 345.916875 
" clip-path="url(#pdf82a7d4a0)" style="fill: none; stroke: #000000; stroke-linecap: square"/>
   </g>
   <g id="line2d_23">
    <path d="M 106.1495 81.640797 
L 115.6355 81.640797 
" clip-path="url(#pdf82a7d4a0)" style="fill: none; stroke: #000000; stroke-linecap: square"/>
   </g>
   <g id="patch_4">
    <path d="M 227.8865 185.062962 
L 246.8585 185.062962 
L 246.8585 118.518356 
L 227.8865 118.518356 
L 227.8865 185.062962 
z
" clip-path="url(#pdf82a7d4a0)" style="fill: #ffffff; stroke: #000000; stroke-linejoin: miter"/>
   </g>
   <g id="line2d_24">
    <path d="M 237.3725 185.062962 
L 237.3725 280.330993 
" clip-path="url(#pdf82a7d4a0)" style="fill: none; stroke: #000000; stroke-linecap: square"/>
   </g>
   <g id="line2d_25">
    <path d="M 237.3725 118.518356 
L 237.3725 43.516875 
" clip-path="url(#pdf82a7d4a0)" style="fill: none; stroke: #000000; stroke-linecap: square"/>
   </g>
   <g id="line2d_26">
    <path d="M 232.6295 280.330993 
L 242.1155 280.330993 
" clip-path="url(#pdf82a7d4a0)" style="fill: none; stroke: #000000; stroke-linecap: square"/>
   </g>
   <g id="line2d_27">
    <path d="M 232.6295 43.516875 
L 242.1155 43.516875 
" clip-path="url(#pdf82a7d4a0)" style="fill: none; stroke: #000000; stroke-linecap: square"/>
   </g>
   <g id="patch_5">
    <path d="M 354.3665 232.358614 
L 373.3385 232.358614 
L 373.3385 144.826534 
L 354.3665 144.826534 
L 354.3665 232.358614 
z
" clip-path="url(#pdf82a7d4a0)" style="fill: #ffffff; stroke: #000000; stroke-linejoin: miter"/>
   </g>
   <g id="line2d_28">
    <path d="M 363.8525 232.358614 
L 363.8525 286.016185 
" clip-path="url(#pdf82a7d4a0)" style="fill: none; stroke: #000000; stroke-linecap: square"/>
   </g>
   <g id="line2d_29">
    <path d="M 363.8525 144.826534 
L 363.8525 65.636875 
" clip-path="url(#pdf82a7d4a0)" style="fill: none; stroke: #000000; stroke-linecap: square"/>
   </g>
   <g id="line2d_30">
    <path d="M 359.1095 286.016185 
L 368.5955 286.016185 
" clip-path="url(#pdf82a7d4a0)" style="fill: none; stroke: #000000; stroke-linecap: square"/>
   </g>
   <g id="line2d_31">
    <path d="M 359.1095 65.636875 
L 368.5955 65.636875 
" clip-path="url(#pdf82a7d4a0)" style="fill: none; stroke: #000000; stroke-linecap: square"/>
   </g>
   <g id="line2d_32">
    <path d="M 101.4065 192.476875 
L 120.3785 192.476875 
" clip-path="url(#pdf82a7d4a0)" style="fill: none; stroke: #000000"/>
   </g>
   <g id="line2d_33">
    <path d="M 227.8865 161.116875 
L 246.8585 161.116875 
" clip-path="url(#pdf82a7d4a0)" style="fill: none; stroke: #000000"/>
   </g>
   <g id="line2d_34">
    <path d="M 354.3665 202.370208 
L 373.3385 202.370208 
" clip-path="url(#pdf82a7d4a0)" style="fill: none; stroke: #000000"/>
   </g>
   <g id="patch_6">
    <path d="M 47.6525 361.036875 
L 47.6525 28.396875 
" style="fill: none; stroke: #000000; stroke-width: 0.8; stroke-linejoin: miter; stroke-linecap: square"/>
   </g>
   <g id="patch_7">
    <path d="M 427.0925 361.036875 
L 427.0925 28.396875 
" style="fill: none; stroke: #000000; stroke-width: 0.8; stroke-linejoin: miter; stroke-linecap: square"/>
   </g>
   <g id="patch_8">
    <path d="M 47.6525 361.036875 
L 427.0925 361.036875 
" style="fill: none; stroke: #000000; stroke-width: 0.8; stroke-linejoin: miter; stroke-linecap: square"/>
   </g>
   <g id="patch_9">
    <path d="M 47.6525 28.396875 
L 427.0925 28.396875 
" style="fill: none; stroke: #000000; stroke-width: 0.8; stroke-linejoin: miter; stroke-linecap: square"/>
   </g>
   <g id="PathCollection_1">
    <defs>
     <path id="m0088746dd6" d="M 0 3 
C 0.795609 3 1.55874 2.683901 2.12132 2.12132 
C 2.683901 1.55874 3 0.795609 3 0 
C 3 -0.795609 2.683901 -1.55874 2.12132 -2.12132 
C 1.55874 -2.683901 0.795609 -3 0 -3 
C -0.795609 -3 -1.55874 -2.683901 -2.12132 -2.12132 
C -2.683901 -1.55874 -3 -0.795609 -3 0 
C -3 0.795609 -2.683901 1.55874 -2.12132 2.12132 
C -1.55874 2.683901 -0.795609 3 0 3 
z
" style="stroke: #000000; stroke-opacity: 0.85; stroke-width: 0.4"/>
    </defs>
    <g clip-path="url(#pdf82a7d4a0)">
     <use xlink:href="#m0088746dd6" x="114.80717" y="81.640797" style="fill: #425df5; fill-opacity: 0.85; stroke: #000000; stroke-opacity: 0.85; stroke-width: 0.4"/>
     <use xlink:href="#m0088746dd6" x="110.501355" y="132.370208" style="fill: #425df5; fill-opacity: 0.85; stroke: #000000; stroke-opacity: 0.85; stroke-width: 0.4"/>
     <use xlink:href="#m0088746dd6" x="108.310498" y="111.836875" style="fill: #425df5; fill-opacity: 0.85; stroke: #000000; stroke-opacity: 0.85; stroke-width: 0.4"/>
     <use xlink:href="#m0088746dd6" x="115.5523" y="200.16895" style="fill: #425df5; fill-opacity: 0.85; stroke: #000000; stroke-opacity: 0.85; stroke-width: 0.4"/>
     <use xlink:href="#m0088746dd6" x="109.975967" y="261.436875" style="fill: #425df5; fill-opacity: 0.85; stroke: #000000; stroke-opacity: 0.85; stroke-width: 0.4"/>
     <use xlink:href="#m0088746dd6" x="108.910162" y="208.3048" style="fill: #425df5; fill-opacity: 0.85; stroke: #000000; stroke-opacity: 0.85; stroke-width: 0.4"/>
     <use xlink:href="#m0088746dd6" x="116.045123" y="234.181319" style="fill: #425df5; fill-opacity: 0.85; stroke: #000000; stroke-opacity: 0.85; stroke-width: 0.4"/>
     <use xlink:href="#m0088746dd6" x="112.918553" y="85.436875" style="fill: #425df5; fill-opacity: 0.85; stroke: #000000; stroke-opacity: 0.85; stroke-width: 0.4"/>
     <use xlink:href="#m0088746dd6" x="115.644929" y="256.278254" style="fill: #425df5; fill-opacity: 0.85; stroke: #000000; stroke-opacity: 0.85; stroke-width: 0.4"/>
     <use xlink:href="#m0088746dd6" x="106.696584" y="135.428364" style="fill: #425df5; fill-opacity: 0.85; stroke: #000000; stroke-opacity: 0.85; stroke-width: 0.4"/>
     <use xlink:href="#m0088746dd6" x="111.13973" y="98.730492" style="fill: #425df5; fill-opacity: 0.85; stroke: #000000; stroke-opacity: 0.85; stroke-width: 0.4"/>
     <use xlink:href="#m0088746dd6" x="106.667242" y="90.095699" style="fill: #425df5; fill-opacity: 0.85; stroke: #000000; stroke-opacity: 0.85; stroke-width: 0.4"/>
     <use xlink:href="#m0088746dd6" x="110.874061" y="263.036875" style="fill: #425df5; fill-opacity: 0.85; stroke: #000000; stroke-opacity: 0.85; stroke-width: 0.4"/>
     <use xlink:href="#m0088746dd6" x="114.320186" y="114.076875" style="fill: #425df5; fill-opacity: 0.85; stroke: #000000; stroke-opacity: 0.85; stroke-width: 0.4"/>
     <use xlink:href="#m0088746dd6" x="107.868409" y="289.170208" style="fill: #425df5; fill-opacity: 0.85; stroke: #000000; stroke-opacity: 0.85; stroke-width: 0.4"/>
     <use xlink:href="#m0088746dd6" x="114.156313" y="199.649641" style="fill: #425df5; fill-opacity: 0.85; stroke: #000000; stroke-opacity: 0.85; stroke-width: 0.4"/>
     <use xlink:href="#m0088746dd6" x="109.304221" y="220.82149" style="fill: #425df5; fill-opacity: 0.85; stroke: #000000; stroke-opacity: 0.85; stroke-width: 0.4"/>
     <use xlink:href="#m0088746dd6" x="108.633742" y="244.162801" style="fill: #425df5; fill-opacity: 0.85; stroke: #000000; stroke-opacity: 0.85; stroke-width: 0.4"/>
     <use xlink:href="#m0088746dd6" x="113.571644" y="90.556875" style="fill: #425df5; fill-opacity: 0.85; stroke: #000000; stroke-opacity: 0.85; stroke-width: 0.4"/>
     <use xlink:href="#m0088746dd6" x="114.925485" y="254.696449" style="fill: #425df5; fill-opacity: 0.85; stroke: #000000; stroke-opacity: 0.85; stroke-width: 0.4"/>
     <use xlink:href="#m0088746dd6" x="107.322916" y="345.916875" style="fill: #425df5; fill-opacity: 0.85; stroke: #000000; stroke-opacity: 0.85; stroke-width: 0.4"/>
     <use xlink:href="#m0088746dd6" x="110.270351" y="199.445764" style="fill: #425df5; fill-opacity: 0.85; stroke: #000000; stroke-opacity: 0.85; stroke-width: 0.4"/>
     <use xlink:href="#m0088746dd6" x="109.12251" y="260.480353" style="fill: #425df5; fill-opacity: 0.85; stroke: #000000; stroke-opacity: 0.85; stroke-width: 0.4"/>
     <use xlink:href="#m0088746dd6" x="113.067696" y="140.82511" style="fill: #425df5; fill-opacity: 0.85; stroke: #000000; stroke-opacity: 0.85; stroke-width: 0.4"/>
     <use xlink:href="#m0088746dd6" x="115.468696" y="165.736875" style="fill: #425df5; fill-opacity: 0.85; stroke: #000000; stroke-opacity: 0.85; stroke-width: 0.4"/>
     <use xlink:href="#m0088746dd6" x="115.24138" y="208.464326" style="fill: #425df5; fill-opacity: 0.85; stroke: #000000; stroke-opacity: 0.85; stroke-width: 0.4"/>
     <use xlink:href="#m0088746dd6" x="115.331161" y="192.476875" style="fill: #425df5; fill-opacity: 0.85; stroke: #000000; stroke-opacity: 0.85; stroke-width: 0.4"/>
     <use xlink:href="#m0088746dd6" x="114.174228" y="137.596875" style="fill: #425df5; fill-opacity: 0.85; stroke: #000000; stroke-opacity: 0.85; stroke-width: 0.4"/>
     <use xlink:href="#m0088746dd6" x="108.843939" y="161.116875" style="fill: #425df5; fill-opacity: 0.85; stroke: #000000; stroke-opacity: 0.85; stroke-width: 0.4"/>
     <use xlink:href="#m0088746dd6" x="109.42244" y="134.483934" style="fill: #425df5; fill-opacity: 0.85; stroke: #000000; stroke-opacity: 0.85; stroke-width: 0.4"/>
     <use xlink:href="#m0088746dd6" x="112.874685" y="180.281319" style="fill: #425df5; fill-opacity: 0.85; stroke: #000000; stroke-opacity: 0.85; stroke-width: 0.4"/>
    </g>
   </g>
   <g id="PathCollection_2">
    <defs>
     <path id="mfdecc3f146" d="M 0 3 
C 0.795609 3 1.55874 2.683901 2.12132 2.12132 
C 2.683901 1.55874 3 0.795609 3 0 
C 3 -0.795609 2.683901 -1.55874 2.12132 -2.12132 
C 1.55874 -2.683901 0.795609 -3 0 -3 
C -0.795609 -3 -1.55874 -2.683901 -2.12132 -2.12132 
C -2.683901 -1.55874 -3 -0.795609 -3 0 
C -3 0.795609 -2.683901 1.55874 -2.12132 2.12132 
C -1.55874 2.683901 -0.795609 3 0 3 
z
" style="stroke: #000000; stroke-opacity: 0.85; stroke-width: 0.4"/>
    </defs>
    <g clip-path="url(#pdf82a7d4a0)">
     <use xlink:href="#mfdecc3f146" x="234.51781" y="73.463105" style="fill: #f55442; fill-opacity: 0.85; stroke: #000000; stroke-opacity: 0.85; stroke-width: 0.4"/>
     <use xlink:href="#mfdecc3f146" x="232.467316" y="96.436875" style="fill: #f55442; fill-opacity: 0.85; stroke: #000000; stroke-opacity: 0.85; stroke-width: 0.4"/>
     <use xlink:href="#mfdecc3f146" x="233.390687" y="235.036875" style="fill: #f55442; fill-opacity: 0.85; stroke: #000000; stroke-opacity: 0.85; stroke-width: 0.4"/>
     <use xlink:href="#mfdecc3f146" x="232.554782" y="244.433485" style="fill: #f55442; fill-opacity: 0.85; stroke: #000000; stroke-opacity: 0.85; stroke-width: 0.4"/>
     <use xlink:href="#mfdecc3f146" x="237.177303" y="155.553004" style="fill: #f55442; fill-opacity: 0.85; stroke: #000000; stroke-opacity: 0.85; stroke-width: 0.4"/>
     <use xlink:href="#mfdecc3f146" x="239.061015" y="192.476875" style="fill: #f55442; fill-opacity: 0.85; stroke: #000000; stroke-opacity: 0.85; stroke-width: 0.4"/>
     <use xlink:href="#mfdecc3f146" x="234.821326" y="165.736875" style="fill: #f55442; fill-opacity: 0.85; stroke: #000000; stroke-opacity: 0.85; stroke-width: 0.4"/>
     <use xlink:href="#mfdecc3f146" x="242.25591" y="185.489049" style="fill: #f55442; fill-opacity: 0.85; stroke: #000000; stroke-opacity: 0.85; stroke-width: 0.4"/>
     <use xlink:href="#mfdecc3f146" x="241.944281" y="120.636875" style="fill: #f55442; fill-opacity: 0.85; stroke: #000000; stroke-opacity: 0.85; stroke-width: 0.4"/>
     <use xlink:href="#mfdecc3f146" x="238.772194" y="55.54722" style="fill: #f55442; fill-opacity: 0.85; stroke: #000000; stroke-opacity: 0.85; stroke-width: 0.4"/>
     <use xlink:href="#mfdecc3f146" x="232.204146" y="67.036875" style="fill: #f55442; fill-opacity: 0.85; stroke: #000000; stroke-opacity: 0.85; stroke-width: 0.4"/>
     <use xlink:href="#mfdecc3f146" x="235.115057" y="43.516875" style="fill: #f55442; fill-opacity: 0.85; stroke: #000000; stroke-opacity: 0.85; stroke-width: 0.4"/>
     <use xlink:href="#mfdecc3f146" x="235.50418" y="126.620875" style="fill: #f55442; fill-opacity: 0.85; stroke: #000000; stroke-opacity: 0.85; stroke-width: 0.4"/>
     <use xlink:href="#mfdecc3f146" x="241.521473" y="94.402913" style="fill: #f55442; fill-opacity: 0.85; stroke: #000000; stroke-opacity: 0.85; stroke-width: 0.4"/>
     <use xlink:href="#mfdecc3f146" x="239.328687" y="173.436875" style="fill: #f55442; fill-opacity: 0.85; stroke: #000000; stroke-opacity: 0.85; stroke-width: 0.4"/>
     <use xlink:href="#mfdecc3f146" x="235.759201" y="165.036875" style="fill: #f55442; fill-opacity: 0.85; stroke: #000000; stroke-opacity: 0.85; stroke-width: 0.4"/>
     <use xlink:href="#mfdecc3f146" x="238.510552" y="166.189816" style="fill: #f55442; fill-opacity: 0.85; stroke: #000000; stroke-opacity: 0.85; stroke-width: 0.4"/>
     <use xlink:href="#mfdecc3f146" x="239.911987" y="229.601581" style="fill: #f55442; fill-opacity: 0.85; stroke: #000000; stroke-opacity: 0.85; stroke-width: 0.4"/>
     <use xlink:href="#mfdecc3f146" x="237.824024" y="164.310949" style="fill: #f55442; fill-opacity: 0.85; stroke: #000000; stroke-opacity: 0.85; stroke-width: 0.4"/>
     <use xlink:href="#mfdecc3f146" x="233.909687" y="132.370208" style="fill: #f55442; fill-opacity: 0.85; stroke: #000000; stroke-opacity: 0.85; stroke-width: 0.4"/>
     <use xlink:href="#mfdecc3f146" x="237.898662" y="228.192431" style="fill: #f55442; fill-opacity: 0.85; stroke: #000000; stroke-opacity: 0.85; stroke-width: 0.4"/>
     <use xlink:href="#mfdecc3f146" x="235.725707" y="120.636875" style="fill: #f55442; fill-opacity: 0.85; stroke: #000000; stroke-opacity: 0.85; stroke-width: 0.4"/>
     <use xlink:href="#mfdecc3f146" x="236.204712" y="280.330993" style="fill: #f55442; fill-opacity: 0.85; stroke: #000000; stroke-opacity: 0.85; stroke-width: 0.4"/>
     <use xlink:href="#mfdecc3f146" x="241.808483" y="179.167108" style="fill: #f55442; fill-opacity: 0.85; stroke: #000000; stroke-opacity: 0.85; stroke-width: 0.4"/>
     <use xlink:href="#mfdecc3f146" x="234.496582" y="239.334549" style="fill: #f55442; fill-opacity: 0.85; stroke: #000000; stroke-opacity: 0.85; stroke-width: 0.4"/>
     <use xlink:href="#mfdecc3f146" x="240.197842" y="184.636875" style="fill: #f55442; fill-opacity: 0.85; stroke: #000000; stroke-opacity: 0.85; stroke-width: 0.4"/>
     <use xlink:href="#mfdecc3f146" x="232.606411" y="253.990721" style="fill: #f55442; fill-opacity: 0.85; stroke: #000000; stroke-opacity: 0.85; stroke-width: 0.4"/>
     <use xlink:href="#mfdecc3f146" x="232.145445" y="153.930208" style="fill: #f55442; fill-opacity: 0.85; stroke: #000000; stroke-opacity: 0.85; stroke-width: 0.4"/>
     <use xlink:href="#mfdecc3f146" x="241.39069" y="110.810208" style="fill: #f55442; fill-opacity: 0.85; stroke: #000000; stroke-opacity: 0.85; stroke-width: 0.4"/>
     <use xlink:href="#mfdecc3f146" x="232.122296" y="132.370208" style="fill: #f55442; fill-opacity: 0.85; stroke: #000000; stroke-opacity: 0.85; stroke-width: 0.4"/>
     <use xlink:href="#mfdecc3f146" x="235.82034" y="161.116875" style="fill: #f55442; fill-opacity: 0.85; stroke: #000000; stroke-opacity: 0.85; stroke-width: 0.4"/>
     <use xlink:href="#mfdecc3f146" x="237.429885" y="91.046875" style="fill: #f55442; fill-opacity: 0.85; stroke: #000000; stroke-opacity: 0.85; stroke-width: 0.4"/>
     <use xlink:href="#mfdecc3f146" x="232.537681" y="143.218007" style="fill: #f55442; fill-opacity: 0.85; stroke: #000000; stroke-opacity: 0.85; stroke-width: 0.4"/>
     <use xlink:href="#mfdecc3f146" x="237.658473" y="116.399838" style="fill: #f55442; fill-opacity: 0.85; stroke: #000000; stroke-opacity: 0.85; stroke-width: 0.4"/>
     <use xlink:href="#mfdecc3f146" x="237.386771" y="180.281319" style="fill: #f55442; fill-opacity: 0.85; stroke: #000000; stroke-opacity: 0.85; stroke-width: 0.4"/>
    </g>
   </g>
   <g id="PathCollection_3">
    <defs>
     <path id="m74b665e5eb" d="M 0 3 
C 0.795609 3 1.55874 2.683901 2.12132 2.12132 
C 2.683901 1.55874 3 0.795609 3 0 
C 3 -0.795609 2.683901 -1.55874 2.12132 -2.12132 
C 1.55874 -2.683901 0.795609 -3 0 -3 
C -0.795609 -3 -1.55874 -2.683901 -2.12132 -2.12132 
C -2.683901 -1.55874 -3 -0.795609 -3 0 
C -3 0.795609 -2.683901 1.55874 -2.12132 2.12132 
C -1.55874 2.683901 -0.795609 3 0 3 
z
" style="stroke: #000000; stroke-opacity: 0.85; stroke-width: 0.4"/>
    </defs>
    <g clip-path="url(#pdf82a7d4a0)">
     <use xlink:href="#m74b665e5eb" x="361.160783" y="191.036875" style="fill: #0ec72a; fill-opacity: 0.85; stroke: #000000; stroke-opacity: 0.85; stroke-width: 0.4"/>
     <use xlink:href="#m74b665e5eb" x="368.100381" y="260.973717" style="fill: #0ec72a; fill-opacity: 0.85; stroke: #000000; stroke-opacity: 0.85; stroke-width: 0.4"/>
     <use xlink:href="#m74b665e5eb" x="364.538018" y="128.485524" style="fill: #0ec72a; fill-opacity: 0.85; stroke: #000000; stroke-opacity: 0.85; stroke-width: 0.4"/>
     <use xlink:href="#m74b665e5eb" x="368.20971" y="232.358614" style="fill: #0ec72a; fill-opacity: 0.85; stroke: #000000; stroke-opacity: 0.85; stroke-width: 0.4"/>
     <use xlink:href="#m74b665e5eb" x="364.132416" y="242.934311" style="fill: #0ec72a; fill-opacity: 0.85; stroke: #000000; stroke-opacity: 0.85; stroke-width: 0.4"/>
     <use xlink:href="#m74b665e5eb" x="361.471917" y="132.370208" style="fill: #0ec72a; fill-opacity: 0.85; stroke: #000000; stroke-opacity: 0.85; stroke-width: 0.4"/>
     <use xlink:href="#m74b665e5eb" x="358.794361" y="179.167108" style="fill: #0ec72a; fill-opacity: 0.85; stroke: #000000; stroke-opacity: 0.85; stroke-width: 0.4"/>
     <use xlink:href="#m74b665e5eb" x="363.395704" y="138.619484" style="fill: #0ec72a; fill-opacity: 0.85; stroke: #000000; stroke-opacity: 0.85; stroke-width: 0.4"/>
     <use xlink:href="#m74b665e5eb" x="365.68471" y="193.970208" style="fill: #0ec72a; fill-opacity: 0.85; stroke: #000000; stroke-opacity: 0.85; stroke-width: 0.4"/>
     <use xlink:href="#m74b665e5eb" x="368.878515" y="224.770208" style="fill: #0ec72a; fill-opacity: 0.85; stroke: #000000; stroke-opacity: 0.85; stroke-width: 0.4"/>
     <use xlink:href="#m74b665e5eb" x="359.74206" y="286.016185" style="fill: #0ec72a; fill-opacity: 0.85; stroke: #000000; stroke-opacity: 0.85; stroke-width: 0.4"/>
     <use xlink:href="#m74b665e5eb" x="367.169387" y="223.836875" style="fill: #0ec72a; fill-opacity: 0.85; stroke: #000000; stroke-opacity: 0.85; stroke-width: 0.4"/>
     <use xlink:href="#m74b665e5eb" x="364.260164" y="232.358614" style="fill: #0ec72a; fill-opacity: 0.85; stroke: #000000; stroke-opacity: 0.85; stroke-width: 0.4"/>
     <use xlink:href="#m74b665e5eb" x="368.848336" y="235.036875" style="fill: #0ec72a; fill-opacity: 0.85; stroke: #000000; stroke-opacity: 0.85; stroke-width: 0.4"/>
     <use xlink:href="#m74b665e5eb" x="362.935482" y="210.770208" style="fill: #0ec72a; fill-opacity: 0.85; stroke: #000000; stroke-opacity: 0.85; stroke-width: 0.4"/>
     <use xlink:href="#m74b665e5eb" x="366.419533" y="89.556024" style="fill: #0ec72a; fill-opacity: 0.85; stroke: #000000; stroke-opacity: 0.85; stroke-width: 0.4"/>
     <use xlink:href="#m74b665e5eb" x="361.629048" y="65.636875" style="fill: #0ec72a; fill-opacity: 0.85; stroke: #000000; stroke-opacity: 0.85; stroke-width: 0.4"/>
     <use xlink:href="#m74b665e5eb" x="366.344082" y="163.447686" style="fill: #0ec72a; fill-opacity: 0.85; stroke: #000000; stroke-opacity: 0.85; stroke-width: 0.4"/>
    </g>
   </g>
   <g id="text_14">
    <!-- Good Meal Proportion Distribution -->
    <g transform="translate(67.886562 22.396875) scale(0.2 -0.2)">
     <defs>
      <path id="DejaVuSans-44" d="M 1259 4147 
L 1259 519 
L 2022 519 
Q 2988 519 3436 956 
Q 3884 1394 3884 2338 
Q 3884 3275 3436 3711 
Q 2988 4147 2022 4147 
L 1259 4147 
z
M 628 4666 
L 1925 4666 
Q 3281 4666 3915 4102 
Q 4550 3538 4550 2338 
Q 4550 1131 3912 565 
Q 3275 0 1925 0 
L 628 0 
L 628 4666 
z
" transform="scale(0.015625)"/>
      <path id="DejaVuSans-62" d="M 3116 1747 
Q 3116 2381 2855 2742 
Q 2594 3103 2138 3103 
Q 1681 3103 1420 2742 
Q 1159 2381 1159 1747 
Q 1159 1113 1420 752 
Q 1681 391 2138 391 
Q 2594 391 2855 752 
Q 3116 1113 3116 1747 
z
M 1159 2969 
Q 1341 3281 1617 3432 
Q 1894 3584 2278 3584 
Q 2916 3584 3314 3078 
Q 3713 2572 3713 1747 
Q 3713 922 3314 415 
Q 2916 -91 2278 -91 
Q 1894 -91 1617 61 
Q 1341 213 1159 525 
L 1159 0 
L 581 0 
L 581 4863 
L 1159 4863 
L 1159 2969 
z
" transform="scale(0.015625)"/>
     </defs>
     <use xlink:href="#DejaVuSans-47"/>
     <use xlink:href="#DejaVuSans-6f" x="77.490234"/>
     <use xlink:href="#DejaVuSans-6f" x="138.671875"/>
     <use xlink:href="#DejaVuSans-64" x="199.853516"/>
     <use xlink:href="#DejaVuSans-20" x="263.330078"/>
     <use xlink:href="#DejaVuSans-4d" x="295.117188"/>
     <use xlink:href="#DejaVuSans-65" x="381.396484"/>
     <use xlink:href="#DejaVuSans-61" x="442.919922"/>
     <use xlink:href="#DejaVuSans-6c" x="504.199219"/>
     <use xlink:href="#DejaVuSans-20" x="531.982422"/>
     <use xlink:href="#DejaVuSans-50" x="563.769531"/>
     <use xlink:href="#DejaVuSans-72" x="622.322266"/>
     <use xlink:href="#DejaVuSans-6f" x="661.185547"/>
     <use xlink:href="#DejaVuSans-70" x="722.367188"/>
     <use xlink:href="#DejaVuSans-6f" x="785.84375"/>
     <use xlink:href="#DejaVuSans-72" x="847.025391"/>
     <use xlink:href="#DejaVuSans-74" x="888.138672"/>
     <use xlink:href="#DejaVuSans-69" x="927.347656"/>
     <use xlink:href="#DejaVuSans-6f" x="955.130859"/>
     <use xlink:href="#DejaVuSans-6e" x="1016.3125"/>
     <use xlink:href="#DejaVuSans-20" x="1079.691406"/>
     <use xlink:href="#DejaVuSans-44" x="1111.478516"/>
     <use xlink:href="#DejaVuSans-69" x="1188.480469"/>
     <use xlink:href="#DejaVuSans-73" x="1216.263672"/>
     <use xlink:href="#DejaVuSans-74" x="1268.363281"/>
     <use xlink:href="#DejaVuSans-72" x="1307.572266"/>
     <use xlink:href="#DejaVuSans-69" x="1348.685547"/>
     <use xlink:href="#DejaVuSans-62" x="1376.46875"/>
     <use xlink:href="#DejaVuSans-75" x="1439.945312"/>
     <use xlink:href="#DejaVuSans-74" x="1503.324219"/>
     <use xlink:href="#DejaVuSans-69" x="1542.533203"/>
     <use xlink:href="#DejaVuSans-6f" x="1570.316406"/>
     <use xlink:href="#DejaVuSans-6e" x="1631.498047"/>
    </g>
   </g>
   <g id="legend_1">
    <g id="patch_10">
     <path d="M 292.81625 355.036875 
L 418.6925 355.036875 
Q 421.0925 355.036875 421.0925 352.636875 
L 421.0925 300.995625 
Q 421.0925 298.595625 418.6925 298.595625 
L 292.81625 298.595625 
Q 290.41625 298.595625 290.41625 300.995625 
L 290.41625 352.636875 
Q 290.41625 355.036875 292.81625 355.036875 
z
" style="fill: #ffffff; opacity: 0.8; stroke: #cccccc; stroke-linejoin: miter"/>
    </g>
    <g id="patch_11">
     <path d="M 295.21625 312.51375 
L 319.21625 312.51375 
L 319.21625 304.11375 
L 295.21625 304.11375 
z
" style="fill: #425df5; opacity: 0.65; stroke: #425df5; stroke-linejoin: miter"/>
    </g>
    <g id="text_15">
     <!-- cask (n=31) -->
     <g transform="translate(328.81625 312.51375) scale(0.12 -0.12)">
      <defs>
       <path id="DejaVuSans-3d" d="M 678 2906 
L 4684 2906 
L 4684 2381 
L 678 2381 
L 678 2906 
z
M 678 1631 
L 4684 1631 
L 4684 1100 
L 678 1100 
L 678 1631 
z
" transform="scale(0.015625)"/>
       <path id="DejaVuSans-31" d="M 794 531 
L 1825 531 
L 1825 4091 
L 703 3866 
L 703 4441 
L 1819 4666 
L 2450 4666 
L 2450 531 
L 3481 531 
L 3481 0 
L 794 0 
L 794 531 
z
" transform="scale(0.015625)"/>
      </defs>
      <use xlink:href="#DejaVuSans-63"/>
      <use xlink:href="#DejaVuSans-61" x="54.980469"/>
      <use xlink:href="#DejaVuSans-73" x="116.259766"/>
      <use xlink:href="#DejaVuSans-6b" x="168.359375"/>
      <use xlink:href="#DejaVuSans-20" x="226.269531"/>
      <use xlink:href="#DejaVuSans-28" x="258.056641"/>
      <use xlink:href="#DejaVuSans-6e" x="297.070312"/>
      <use xlink:href="#DejaVuSans-3d" x="360.449219"/>
      <use xlink:href="#DejaVuSans-33" x="444.238281"/>
      <use xlink:href="#DejaVuSans-31" x="507.861328"/>
      <use xlink:href="#DejaVuSans-29" x="571.484375"/>
     </g>
    </g>
    <g id="patch_12">
     <path d="M 295.21625 330.1275 
L 319.21625 330.1275 
L 319.21625 321.7275 
L 295.21625 321.7275 
z
" style="fill: #f55442; opacity: 0.65; stroke: #f55442; stroke-linejoin: miter"/>
    </g>
    <g id="text_16">
     <!-- ctrl (n=35) -->
     <g transform="translate(328.81625 330.1275) scale(0.12 -0.12)">
      <use xlink:href="#DejaVuSans-63"/>
      <use xlink:href="#DejaVuSans-74" x="54.980469"/>
      <use xlink:href="#DejaVuSans-72" x="94.189453"/>
      <use xlink:href="#DejaVuSans-6c" x="135.302734"/>
      <use xlink:href="#DejaVuSans-20" x="163.085938"/>
      <use xlink:href="#DejaVuSans-28" x="194.873047"/>
      <use xlink:href="#DejaVuSans-6e" x="233.886719"/>
      <use xlink:href="#DejaVuSans-3d" x="297.265625"/>
      <use xlink:href="#DejaVuSans-33" x="381.054688"/>
      <use xlink:href="#DejaVuSans-35" x="444.677734"/>
      <use xlink:href="#DejaVuSans-29" x="508.300781"/>
     </g>
    </g>
    <g id="patch_13">
     <path d="M 295.21625 347.74125 
L 319.21625 347.74125 
L 319.21625 339.34125 
L 295.21625 339.34125 
z
" style="fill: #0ec72a; opacity: 0.65; stroke: #0ec72a; stroke-linejoin: miter"/>
    </g>
    <g id="text_17">
     <!-- female (n=18) -->
     <g transform="translate(328.81625 347.74125) scale(0.12 -0.12)">
      <use xlink:href="#DejaVuSans-66"/>
      <use xlink:href="#DejaVuSans-65" x="35.205078"/>
      <use xlink:href="#DejaVuSans-6d" x="96.728516"/>
      <use xlink:href="#DejaVuSans-61" x="194.140625"/>
      <use xlink:href="#DejaVuSans-6c" x="255.419922"/>
      <use xlink:href="#DejaVuSans-65" x="283.203125"/>
      <use xlink:href="#DejaVuSans-20" x="344.726562"/>
      <use xlink:href="#DejaVuSans-28" x="376.513672"/>
      <use xlink:href="#DejaVuSans-6e" x="415.527344"/>
      <use xlink:href="#DejaVuSans-3d" x="478.90625"/>
      <use xlink:href="#DejaVuSans-31" x="562.695312"/>
      <use xlink:href="#DejaVuSans-38" x="626.318359"/>
      <use xlink:href="#DejaVuSans-29" x="689.941406"/>
     </g>
    </g>
   </g>
  </g>
 </g>
 <defs>
  <clipPath id="pdf82a7d4a0">
   <rect x="47.6525" y="28.396875" width="379.44" height="332.64"/>
  </clipPath>
 </defs>
</svg>
