<?xml version="1.0" encoding="utf-8" standalone="no"?>
<!DOCTYPE svg PUBLIC "-//W3C//DTD SVG 1.1//EN"
  "http://www.w3.org/Graphics/SVG/1.1/DTD/svg11.dtd">
<svg xmlns:xlink="http://www.w3.org/1999/xlink" width="1172.435pt" height="399.009062pt" viewBox="0 0 1172.435 399.009062" xmlns="http://www.w3.org/2000/svg" version="1.1">
 <metadata>
  <rdf:RDF xmlns:dc="http://purl.org/dc/elements/1.1/" xmlns:cc="http://creativecommons.org/ns#" xmlns:rdf="http://www.w3.org/1999/02/22-rdf-syntax-ns#">
   <cc:Work>
    <dc:type rdf:resource="http://purl.org/dc/dcmitype/StillImage"/>
    <dc:date>2025-10-01T22:40:24.469161</dc:date>
    <dc:format>image/svg+xml</dc:format>
    <dc:creator>
     <cc:Agent>
      <dc:title>Matplotlib v3.8.4, https://matplotlib.org/</dc:title>
     </cc:Agent>
    </dc:creator>
   </cc:Work>
  </rdf:RDF>
 </metadata>
 <defs>
  <style type="text/css">*{stroke-linejoin: round; stroke-linecap: butt}</style>
 </defs>
 <g id="figure_1">
  <g id="patch_1">
   <path d="M 0 399.009062 
L 1172.435 399.009062 
L 1172.435 0 
L 0 0 
z
" style="fill: #ffffff"/>
  </g>
  <g id="axes_1">
   <g id="patch_2">
    <path d="M 49.235 359.517187 
L 1165.235 359.517187 
L 1165.235 26.877187 
L 49.235 26.877187 
z
" style="fill: #ffffff"/>
   </g>
   <g id="patch_3">
    <path d="M 106.131515 359.517187 
L 106.131515 26.877187 
L 102.769597 26.877187 
L 102.769597 359.517187 
z
" clip-path="url(#p6d7f0466f9)" style="fill: #add8e6; stroke: #add8e6; stroke-linejoin: miter"/>
   </g>
   <g id="patch_4">
    <path d="M 110.927243 359.517187 
L 110.927243 26.877187 
L 108.124126 26.877187 
L 108.124126 359.517187 
z
" clip-path="url(#p6d7f0466f9)" style="fill: #add8e6; stroke: #add8e6; stroke-linejoin: miter"/>
   </g>
   <g id="patch_5">
    <path d="M 115.985895 359.517187 
L 115.985895 26.877187 
L 111.519698 26.877187 
L 111.519698 359.517187 
z
" clip-path="url(#p6d7f0466f9)" style="fill: #add8e6; stroke: #add8e6; stroke-linejoin: miter"/>
   </g>
   <g id="patch_6">
    <path d="M 113.268316 359.517187 
L 113.268316 26.877187 
L 113.435185 26.877187 
L 113.435185 359.517187 
z
" clip-path="url(#p6d7f0466f9)" style="fill: #add8e6; stroke: #add8e6; stroke-linejoin: miter"/>
   </g>
   <g id="patch_7">
    <path d="M 117.003936 359.517187 
L 117.003936 26.877187 
L 117.266158 26.877187 
L 117.266158 359.517187 
z
" clip-path="url(#p6d7f0466f9)" style="fill: #add8e6; stroke: #add8e6; stroke-linejoin: miter"/>
   </g>
   <g id="patch_8">
    <path d="M 131.717146 359.517187 
L 131.717146 26.877187 
L 131.755007 26.877187 
L 131.755007 359.517187 
z
" clip-path="url(#p6d7f0466f9)" style="fill: #add8e6; stroke: #add8e6; stroke-linejoin: miter"/>
   </g>
   <g id="patch_9">
    <path d="M 136.445566 359.517187 
L 136.445566 26.877187 
L 136.352316 26.877187 
L 136.352316 359.517187 
z
" clip-path="url(#p6d7f0466f9)" style="fill: #add8e6; stroke: #add8e6; stroke-linejoin: miter"/>
   </g>
   <g id="patch_10">
    <path d="M 137.16773 359.517187 
L 137.16773 26.877187 
L 136.880968 26.877187 
L 136.880968 359.517187 
z
" clip-path="url(#p6d7f0466f9)" style="fill: #add8e6; stroke: #add8e6; stroke-linejoin: miter"/>
   </g>
   <g id="patch_11">
    <path d="M 147.962326 359.517187 
L 147.962326 26.877187 
L 148.254697 26.877187 
L 148.254697 359.517187 
z
" clip-path="url(#p6d7f0466f9)" style="fill: #add8e6; stroke: #add8e6; stroke-linejoin: miter"/>
   </g>
   <g id="patch_12">
    <path d="M 153.236224 359.517187 
L 153.236224 26.877187 
L 153.482321 26.877187 
L 153.482321 359.517187 
z
" clip-path="url(#p6d7f0466f9)" style="fill: #add8e6; stroke: #add8e6; stroke-linejoin: miter"/>
   </g>
   <g id="patch_13">
    <path d="M 160.856805 359.517187 
L 160.856805 26.877187 
L 160.569342 26.877187 
L 160.569342 359.517187 
z
" clip-path="url(#p6d7f0466f9)" style="fill: #add8e6; stroke: #add8e6; stroke-linejoin: miter"/>
   </g>
   <g id="patch_14">
    <path d="M 172.187064 359.517187 
L 172.187064 26.877187 
L 172.298544 26.877187 
L 172.298544 359.517187 
z
" clip-path="url(#p6d7f0466f9)" style="fill: #add8e6; stroke: #add8e6; stroke-linejoin: miter"/>
   </g>
   <g id="patch_15">
    <path d="M 179.194156 359.517187 
L 179.194156 26.877187 
L 179.007655 26.877187 
L 179.007655 359.517187 
z
" clip-path="url(#p6d7f0466f9)" style="fill: #add8e6; stroke: #add8e6; stroke-linejoin: miter"/>
   </g>
   <g id="patch_16">
    <path d="M 179.222902 359.517187 
L 179.222902 26.877187 
L 179.598708 26.877187 
L 179.598708 359.517187 
z
" clip-path="url(#p6d7f0466f9)" style="fill: #add8e6; stroke: #add8e6; stroke-linejoin: miter"/>
   </g>
   <g id="patch_17">
    <path d="M 204.380845 359.517187 
L 204.380845 26.877187 
L 204.577862 26.877187 
L 204.577862 359.517187 
z
" clip-path="url(#p6d7f0466f9)" style="fill: #add8e6; stroke: #add8e6; stroke-linejoin: miter"/>
   </g>
   <g id="patch_18">
    <path d="M 208.438283 359.517187 
L 208.438283 26.877187 
L 207.92716 26.877187 
L 207.92716 359.517187 
z
" clip-path="url(#p6d7f0466f9)" style="fill: #add8e6; stroke: #add8e6; stroke-linejoin: miter"/>
   </g>
   <g id="patch_19">
    <path d="M 214.664317 359.517187 
L 214.664317 26.877187 
L 212.004931 26.877187 
L 212.004931 359.517187 
z
" clip-path="url(#p6d7f0466f9)" style="fill: #add8e6; stroke: #add8e6; stroke-linejoin: miter"/>
   </g>
   <g id="patch_20">
    <path d="M 221.396566 359.517187 
L 221.396566 26.877187 
L 221.580262 26.877187 
L 221.580262 359.517187 
z
" clip-path="url(#p6d7f0466f9)" style="fill: #add8e6; stroke: #add8e6; stroke-linejoin: miter"/>
   </g>
   <g id="patch_21">
    <path d="M 222.147476 359.517187 
L 222.147476 26.877187 
L 222.227405 26.877187 
L 222.227405 359.517187 
z
" clip-path="url(#p6d7f0466f9)" style="fill: #add8e6; stroke: #add8e6; stroke-linejoin: miter"/>
   </g>
   <g id="patch_22">
    <path d="M 242.119161 359.517187 
L 242.119161 26.877187 
L 242.042737 26.877187 
L 242.042737 359.517187 
z
" clip-path="url(#p6d7f0466f9)" style="fill: #add8e6; stroke: #add8e6; stroke-linejoin: miter"/>
   </g>
   <g id="patch_23">
    <path d="M 243.405033 359.517187 
L 243.405033 26.877187 
L 242.550355 26.877187 
L 242.550355 359.517187 
z
" clip-path="url(#p6d7f0466f9)" style="fill: #add8e6; stroke: #add8e6; stroke-linejoin: miter"/>
   </g>
   <g id="patch_24">
    <path d="M 305.928991 359.517187 
L 305.928991 26.877187 
L 306.462551 26.877187 
L 306.462551 359.517187 
z
" clip-path="url(#p6d7f0466f9)" style="fill: #add8e6; stroke: #add8e6; stroke-linejoin: miter"/>
   </g>
   <g id="patch_25">
    <path d="M 343.17301 359.517187 
L 343.17301 26.877187 
L 343.268364 26.877187 
L 343.268364 359.517187 
z
" clip-path="url(#p6d7f0466f9)" style="fill: #add8e6; stroke: #add8e6; stroke-linejoin: miter"/>
   </g>
   <g id="patch_26">
    <path d="M 343.553023 359.517187 
L 343.553023 26.877187 
L 343.194044 26.877187 
L 343.194044 359.517187 
z
" clip-path="url(#p6d7f0466f9)" style="fill: #add8e6; stroke: #add8e6; stroke-linejoin: miter"/>
   </g>
   <g id="patch_27">
    <path d="M 343.721294 359.517187 
L 343.721294 26.877187 
L 343.588079 26.877187 
L 343.588079 359.517187 
z
" clip-path="url(#p6d7f0466f9)" style="fill: #add8e6; stroke: #add8e6; stroke-linejoin: miter"/>
   </g>
   <g id="patch_28">
    <path d="M 350.424797 359.517187 
L 350.424797 26.877187 
L 350.614803 26.877187 
L 350.614803 359.517187 
z
" clip-path="url(#p6d7f0466f9)" style="fill: #add8e6; stroke: #add8e6; stroke-linejoin: miter"/>
   </g>
   <g id="patch_29">
    <path d="M 361.672322 359.517187 
L 361.672322 26.877187 
L 361.615531 26.877187 
L 361.615531 359.517187 
z
" clip-path="url(#p6d7f0466f9)" style="fill: #add8e6; stroke: #add8e6; stroke-linejoin: miter"/>
   </g>
   <g id="patch_30">
    <path d="M 370.728116 359.517187 
L 370.728116 26.877187 
L 370.801734 26.877187 
L 370.801734 359.517187 
z
" clip-path="url(#p6d7f0466f9)" style="fill: #add8e6; stroke: #add8e6; stroke-linejoin: miter"/>
   </g>
   <g id="patch_31">
    <path d="M 371.3388 359.517187 
L 371.3388 26.877187 
L 371.009269 26.877187 
L 371.009269 359.517187 
z
" clip-path="url(#p6d7f0466f9)" style="fill: #add8e6; stroke: #add8e6; stroke-linejoin: miter"/>
   </g>
   <g id="patch_32">
    <path d="M 381.964423 359.517187 
L 381.964423 26.877187 
L 381.897816 26.877187 
L 381.897816 359.517187 
z
" clip-path="url(#p6d7f0466f9)" style="fill: #add8e6; stroke: #add8e6; stroke-linejoin: miter"/>
   </g>
   <g id="patch_33">
    <path d="M 388.029898 359.517187 
L 388.029898 26.877187 
L 388.592204 26.877187 
L 388.592204 359.517187 
z
" clip-path="url(#p6d7f0466f9)" style="fill: #add8e6; stroke: #add8e6; stroke-linejoin: miter"/>
   </g>
   <g id="patch_34">
    <path d="M 425.401523 359.517187 
L 425.401523 26.877187 
L 421.121826 26.877187 
L 421.121826 359.517187 
z
" clip-path="url(#p6d7f0466f9)" style="fill: #add8e6; stroke: #add8e6; stroke-linejoin: miter"/>
   </g>
   <g id="patch_35">
    <path d="M 422.357918 359.517187 
L 422.357918 26.877187 
L 422.531097 26.877187 
L 422.531097 359.517187 
z
" clip-path="url(#p6d7f0466f9)" style="fill: #add8e6; stroke: #add8e6; stroke-linejoin: miter"/>
   </g>
   <g id="patch_36">
    <path d="M 431.178132 359.517187 
L 431.178132 26.877187 
L 431.557443 26.877187 
L 431.557443 359.517187 
z
" clip-path="url(#p6d7f0466f9)" style="fill: #add8e6; stroke: #add8e6; stroke-linejoin: miter"/>
   </g>
   <g id="patch_37">
    <path d="M 436.663772 359.517187 
L 436.663772 26.877187 
L 436.775953 26.877187 
L 436.775953 359.517187 
z
" clip-path="url(#p6d7f0466f9)" style="fill: #add8e6; stroke: #add8e6; stroke-linejoin: miter"/>
   </g>
   <g id="patch_38">
    <path d="M 437.385936 359.517187 
L 437.385936 26.877187 
L 437.064117 26.877187 
L 437.064117 359.517187 
z
" clip-path="url(#p6d7f0466f9)" style="fill: #add8e6; stroke: #add8e6; stroke-linejoin: miter"/>
   </g>
   <g id="patch_39">
    <path d="M 448.938453 359.517187 
L 448.938453 26.877187 
L 449.545631 26.877187 
L 449.545631 359.517187 
z
" clip-path="url(#p6d7f0466f9)" style="fill: #add8e6; stroke: #add8e6; stroke-linejoin: miter"/>
   </g>
   <g id="patch_40">
    <path d="M 458.316065 359.517187 
L 458.316065 26.877187 
L 456.756752 26.877187 
L 456.756752 359.517187 
z
" clip-path="url(#p6d7f0466f9)" style="fill: #add8e6; stroke: #add8e6; stroke-linejoin: miter"/>
   </g>
   <g id="patch_41">
    <path d="M 461.845553 359.517187 
L 461.845553 26.877187 
L 462.102867 26.877187 
L 462.102867 359.517187 
z
" clip-path="url(#p6d7f0466f9)" style="fill: #add8e6; stroke: #add8e6; stroke-linejoin: miter"/>
   </g>
   <g id="patch_42">
    <path d="M 464.817642 359.517187 
L 464.817642 26.877187 
L 465.054624 26.877187 
L 465.054624 359.517187 
z
" clip-path="url(#p6d7f0466f9)" style="fill: #add8e6; stroke: #add8e6; stroke-linejoin: miter"/>
   </g>
   <g id="patch_43">
    <path d="M 480.495608 359.517187 
L 480.495608 26.877187 
L 480.661775 26.877187 
L 480.661775 359.517187 
z
" clip-path="url(#p6d7f0466f9)" style="fill: #add8e6; stroke: #add8e6; stroke-linejoin: miter"/>
   </g>
   <g id="patch_44">
    <path d="M 486.721641 359.517187 
L 486.721641 26.877187 
L 486.716733 26.877187 
L 486.716733 359.517187 
z
" clip-path="url(#p6d7f0466f9)" style="fill: #add8e6; stroke: #add8e6; stroke-linejoin: miter"/>
   </g>
   <g id="patch_45">
    <path d="M 493.561864 359.517187 
L 493.561864 26.877187 
L 490.246922 26.877187 
L 490.246922 359.517187 
z
" clip-path="url(#p6d7f0466f9)" style="fill: #add8e6; stroke: #add8e6; stroke-linejoin: miter"/>
   </g>
   <g id="patch_46">
    <path d="M 490.528075 359.517187 
L 490.528075 26.877187 
L 490.50003 26.877187 
L 490.50003 359.517187 
z
" clip-path="url(#p6d7f0466f9)" style="fill: #add8e6; stroke: #add8e6; stroke-linejoin: miter"/>
   </g>
   <g id="patch_47">
    <path d="M 494.401117 359.517187 
L 494.401117 26.877187 
L 494.565181 26.877187 
L 494.565181 359.517187 
z
" clip-path="url(#p6d7f0466f9)" style="fill: #add8e6; stroke: #add8e6; stroke-linejoin: miter"/>
   </g>
   <g id="patch_48">
    <path d="M 497.237187 359.517187 
L 497.237187 26.877187 
L 497.689416 26.877187 
L 497.689416 359.517187 
z
" clip-path="url(#p6d7f0466f9)" style="fill: #add8e6; stroke: #add8e6; stroke-linejoin: miter"/>
   </g>
   <g id="patch_49">
    <path d="M 530.835331 359.517187 
L 530.835331 26.877187 
L 532.115594 26.877187 
L 532.115594 359.517187 
z
" clip-path="url(#p6d7f0466f9)" style="fill: #add8e6; stroke: #add8e6; stroke-linejoin: miter"/>
   </g>
   <g id="patch_50">
    <path d="M 538.683779 359.517187 
L 538.683779 26.877187 
L 538.943197 26.877187 
L 538.943197 359.517187 
z
" clip-path="url(#p6d7f0466f9)" style="fill: #add8e6; stroke: #add8e6; stroke-linejoin: miter"/>
   </g>
   <g id="patch_51">
    <path d="M 552.259055 359.517187 
L 552.259055 26.877187 
L 552.458176 26.877187 
L 552.458176 359.517187 
z
" clip-path="url(#p6d7f0466f9)" style="fill: #add8e6; stroke: #add8e6; stroke-linejoin: miter"/>
   </g>
   <g id="patch_52">
    <path d="M 595.864426 359.517187 
L 595.864426 26.877187 
L 595.898782 26.877187 
L 595.898782 359.517187 
z
" clip-path="url(#p6d7f0466f9)" style="fill: #add8e6; stroke: #add8e6; stroke-linejoin: miter"/>
   </g>
   <g id="patch_53">
    <path d="M 655.773871 359.517187 
L 655.773871 26.877187 
L 656.318649 26.877187 
L 656.318649 359.517187 
z
" clip-path="url(#p6d7f0466f9)" style="fill: #add8e6; stroke: #add8e6; stroke-linejoin: miter"/>
   </g>
   <g id="patch_54">
    <path d="M 672.528071 359.517187 
L 672.528071 26.877187 
L 672.433418 26.877187 
L 672.433418 359.517187 
z
" clip-path="url(#p6d7f0466f9)" style="fill: #add8e6; stroke: #add8e6; stroke-linejoin: miter"/>
   </g>
   <g id="patch_55">
    <path d="M 677.26841 359.517187 
L 677.26841 26.877187 
L 672.85059 26.877187 
L 672.85059 359.517187 
z
" clip-path="url(#p6d7f0466f9)" style="fill: #add8e6; stroke: #add8e6; stroke-linejoin: miter"/>
   </g>
   <g id="patch_56">
    <path d="M 687.476861 359.517187 
L 687.476861 26.877187 
L 687.376599 26.877187 
L 687.376599 359.517187 
z
" clip-path="url(#p6d7f0466f9)" style="fill: #add8e6; stroke: #add8e6; stroke-linejoin: miter"/>
   </g>
   <g id="patch_57">
    <path d="M 700.874051 359.517187 
L 700.874051 26.877187 
L 701.136273 26.877187 
L 701.136273 359.517187 
z
" clip-path="url(#p6d7f0466f9)" style="fill: #add8e6; stroke: #add8e6; stroke-linejoin: miter"/>
   </g>
   <g id="patch_58">
    <path d="M 723.765941 359.517187 
L 723.765941 26.877187 
L 723.937718 26.877187 
L 723.937718 359.517187 
z
" clip-path="url(#p6d7f0466f9)" style="fill: #add8e6; stroke: #add8e6; stroke-linejoin: miter"/>
   </g>
   <g id="patch_59">
    <path d="M 730.116776 359.517187 
L 730.116776 26.877187 
L 730.16305 26.877187 
L 730.16305 359.517187 
z
" clip-path="url(#p6d7f0466f9)" style="fill: #add8e6; stroke: #add8e6; stroke-linejoin: miter"/>
   </g>
   <g id="patch_60">
    <path d="M 738.475646 359.517187 
L 738.475646 26.877187 
L 738.605355 26.877187 
L 738.605355 359.517187 
z
" clip-path="url(#p6d7f0466f9)" style="fill: #add8e6; stroke: #add8e6; stroke-linejoin: miter"/>
   </g>
   <g id="patch_61">
    <path d="M 742.059822 359.517187 
L 742.059822 26.877187 
L 742.121522 26.877187 
L 742.121522 359.517187 
z
" clip-path="url(#p6d7f0466f9)" style="fill: #add8e6; stroke: #add8e6; stroke-linejoin: miter"/>
   </g>
   <g id="patch_62">
    <path d="M 748.58664 359.517187 
L 748.58664 26.877187 
L 749.123005 26.877187 
L 749.123005 359.517187 
z
" clip-path="url(#p6d7f0466f9)" style="fill: #add8e6; stroke: #add8e6; stroke-linejoin: miter"/>
   </g>
   <g id="patch_63">
    <path d="M 754.061763 359.517187 
L 754.061763 26.877187 
L 754.201989 26.877187 
L 754.201989 359.517187 
z
" clip-path="url(#p6d7f0466f9)" style="fill: #add8e6; stroke: #add8e6; stroke-linejoin: miter"/>
   </g>
   <g id="patch_64">
    <path d="M 771.765293 359.517187 
L 771.765293 26.877187 
L 771.924449 26.877187 
L 771.924449 359.517187 
z
" clip-path="url(#p6d7f0466f9)" style="fill: #add8e6; stroke: #add8e6; stroke-linejoin: miter"/>
   </g>
   <g id="patch_65">
    <path d="M 781.740969 359.517187 
L 781.740969 26.877187 
L 782.019317 26.877187 
L 782.019317 359.517187 
z
" clip-path="url(#p6d7f0466f9)" style="fill: #add8e6; stroke: #add8e6; stroke-linejoin: miter"/>
   </g>
   <g id="patch_66">
    <path d="M 792.674388 359.517187 
L 792.674388 26.877187 
L 793.391644 26.877187 
L 793.391644 359.517187 
z
" clip-path="url(#p6d7f0466f9)" style="fill: #add8e6; stroke: #add8e6; stroke-linejoin: miter"/>
   </g>
   <g id="patch_67">
    <path d="M 805.578684 359.517187 
L 805.578684 26.877187 
L 801.58645 26.877187 
L 801.58645 359.517187 
z
" clip-path="url(#p6d7f0466f9)" style="fill: #add8e6; stroke: #add8e6; stroke-linejoin: miter"/>
   </g>
   <g id="patch_68">
    <path d="M 812.744231 359.517187 
L 812.744231 26.877187 
L 808.374089 26.877187 
L 808.374089 359.517187 
z
" clip-path="url(#p6d7f0466f9)" style="fill: #add8e6; stroke: #add8e6; stroke-linejoin: miter"/>
   </g>
   <g id="patch_69">
    <path d="M 817.017618 359.517187 
L 817.017618 26.877187 
L 817.405343 26.877187 
L 817.405343 359.517187 
z
" clip-path="url(#p6d7f0466f9)" style="fill: #add8e6; stroke: #add8e6; stroke-linejoin: miter"/>
   </g>
   <g id="patch_70">
    <path d="M 835.036656 359.517187 
L 835.036656 26.877187 
L 835.1264 26.877187 
L 835.1264 359.517187 
z
" clip-path="url(#p6d7f0466f9)" style="fill: #add8e6; stroke: #add8e6; stroke-linejoin: miter"/>
   </g>
   <g id="patch_71">
    <path d="M 856.295615 359.517187 
L 856.295615 26.877187 
L 857.340298 26.877187 
L 857.340298 359.517187 
z
" clip-path="url(#p6d7f0466f9)" style="fill: #add8e6; stroke: #add8e6; stroke-linejoin: miter"/>
   </g>
   <g id="patch_72">
    <path d="M 878.927386 359.517187 
L 878.927386 26.877187 
L 874.478016 26.877187 
L 874.478016 359.517187 
z
" clip-path="url(#p6d7f0466f9)" style="fill: #add8e6; stroke: #add8e6; stroke-linejoin: miter"/>
   </g>
   <g id="patch_73">
    <path d="M 882.07616 359.517187 
L 882.07616 26.877187 
L 881.904384 26.877187 
L 881.904384 359.517187 
z
" clip-path="url(#p6d7f0466f9)" style="fill: #add8e6; stroke: #add8e6; stroke-linejoin: miter"/>
   </g>
   <g id="patch_74">
    <path d="M 902.368963 359.517187 
L 902.368963 26.877187 
L 902.612255 26.877187 
L 902.612255 359.517187 
z
" clip-path="url(#p6d7f0466f9)" style="fill: #add8e6; stroke: #add8e6; stroke-linejoin: miter"/>
   </g>
   <g id="patch_75">
    <path d="M 903.407336 359.517187 
L 903.407336 26.877187 
L 902.833111 26.877187 
L 902.833111 359.517187 
z
" clip-path="url(#p6d7f0466f9)" style="fill: #add8e6; stroke: #add8e6; stroke-linejoin: miter"/>
   </g>
   <g id="patch_76">
    <path d="M 983.976274 359.517187 
L 983.976274 26.877187 
L 984.265139 26.877187 
L 984.265139 359.517187 
z
" clip-path="url(#p6d7f0466f9)" style="fill: #add8e6; stroke: #add8e6; stroke-linejoin: miter"/>
   </g>
   <g id="patch_77">
    <path d="M 989.981451 359.517187 
L 989.981451 26.877187 
L 990.100643 26.877187 
L 990.100643 359.517187 
z
" clip-path="url(#p6d7f0466f9)" style="fill: #add8e6; stroke: #add8e6; stroke-linejoin: miter"/>
   </g>
   <g id="patch_78">
    <path d="M 1010.858996 359.517187 
L 1010.858996 26.877187 
L 1006.692882 26.877187 
L 1006.692882 359.517187 
z
" clip-path="url(#p6d7f0466f9)" style="fill: #add8e6; stroke: #add8e6; stroke-linejoin: miter"/>
   </g>
   <g id="patch_79">
    <path d="M 1033.144409 359.517187 
L 1033.144409 26.877187 
L 1028.703452 26.877187 
L 1028.703452 359.517187 
z
" clip-path="url(#p6d7f0466f9)" style="fill: #add8e6; stroke: #add8e6; stroke-linejoin: miter"/>
   </g>
   <g id="patch_80">
    <path d="M 1031.918834 359.517187 
L 1031.918834 26.877187 
L 1032.023302 26.877187 
L 1032.023302 359.517187 
z
" clip-path="url(#p6d7f0466f9)" style="fill: #add8e6; stroke: #add8e6; stroke-linejoin: miter"/>
   </g>
   <g id="patch_81">
    <path d="M 1050.372573 359.517187 
L 1050.372573 26.877187 
L 1050.95451 26.877187 
L 1050.95451 359.517187 
z
" clip-path="url(#p6d7f0466f9)" style="fill: #add8e6; stroke: #add8e6; stroke-linejoin: miter"/>
   </g>
   <g id="patch_82">
    <path d="M 1061.498803 359.517187 
L 1061.498803 26.877187 
L 1061.57803 26.877187 
L 1061.57803 359.517187 
z
" clip-path="url(#p6d7f0466f9)" style="fill: #add8e6; stroke: #add8e6; stroke-linejoin: miter"/>
   </g>
   <g id="patch_83">
    <path d="M 1061.857781 359.517187 
L 1061.857781 26.877187 
L 1061.781358 26.877187 
L 1061.781358 359.517187 
z
" clip-path="url(#p6d7f0466f9)" style="fill: #add8e6; stroke: #add8e6; stroke-linejoin: miter"/>
   </g>
   <g id="patch_84">
    <path d="M 1074.942968 359.517187 
L 1074.942968 26.877187 
L 1074.028695 26.877187 
L 1074.028695 359.517187 
z
" clip-path="url(#p6d7f0466f9)" style="fill: #add8e6; stroke: #add8e6; stroke-linejoin: miter"/>
   </g>
   <g id="patch_85">
    <path d="M 1080.042987 359.517187 
L 1080.042987 26.877187 
L 1080.35499 26.877187 
L 1080.35499 359.517187 
z
" clip-path="url(#p6d7f0466f9)" style="fill: #add8e6; stroke: #add8e6; stroke-linejoin: miter"/>
   </g>
   <g id="patch_86">
    <path d="M 1088.442523 359.517187 
L 1088.442523 26.877187 
L 1084.169837 26.877187 
L 1084.169837 359.517187 
z
" clip-path="url(#p6d7f0466f9)" style="fill: #add8e6; stroke: #add8e6; stroke-linejoin: miter"/>
   </g>
   <g id="patch_87">
    <path d="M 1086.195402 359.517187 
L 1086.195402 26.877187 
L 1086.6287 26.877187 
L 1086.6287 359.517187 
z
" clip-path="url(#p6d7f0466f9)" style="fill: #add8e6; stroke: #add8e6; stroke-linejoin: miter"/>
   </g>
   <g id="patch_88">
    <path d="M 1088.652161 359.517187 
L 1088.652161 26.877187 
L 1086.89583 26.877187 
L 1086.89583 359.517187 
z
" clip-path="url(#p6d7f0466f9)" style="fill: #add8e6; stroke: #add8e6; stroke-linejoin: miter"/>
   </g>
   <g id="patch_89">
    <path d="M 226.165651 359.517187 
L 226.165651 26.877187 
L 377.609706 26.877187 
L 377.609706 359.517187 
z
" clip-path="url(#p6d7f0466f9)" style="fill: #808080; opacity: 0.4; stroke: #808080; stroke-linejoin: miter"/>
   </g>
   <g id="patch_90">
    <path d="M 529.05376 359.517187 
L 529.05376 26.877187 
L 680.497814 26.877187 
L 680.497814 359.517187 
z
" clip-path="url(#p6d7f0466f9)" style="fill: #808080; opacity: 0.4; stroke: #808080; stroke-linejoin: miter"/>
   </g>
   <g id="patch_91">
    <path d="M 831.941868 359.517187 
L 831.941868 26.877187 
L 983.385923 26.877187 
L 983.385923 359.517187 
z
" clip-path="url(#p6d7f0466f9)" style="fill: #808080; opacity: 0.4; stroke: #808080; stroke-linejoin: miter"/>
   </g>
   <g id="matplotlib.axis_1">
    <g id="xtick_1">
     <g id="line2d_1">
      <defs>
       <path id="m3f9af1fa9e" d="M 0 0 
L 0 3.5 
" style="stroke: #000000; stroke-width: 0.8"/>
      </defs>
      <g>
       <use xlink:href="#m3f9af1fa9e" x="137.812769" y="359.517187" style="stroke: #000000; stroke-width: 0.8"/>
      </g>
     </g>
     <g id="text_1">
      <!-- 07-11 12 -->
      <g transform="translate(115.332301 374.115625) scale(0.1 -0.1)">
       <defs>
        <path id="DejaVuSans-30" d="M 2034 4250 
Q 1547 4250 1301 3770 
Q 1056 3291 1056 2328 
Q 1056 1369 1301 889 
Q 1547 409 2034 409 
Q 2525 409 2770 889 
Q 3016 1369 3016 2328 
Q 3016 3291 2770 3770 
Q 2525 4250 2034 4250 
z
M 2034 4750 
Q 2819 4750 3233 4129 
Q 3647 3509 3647 2328 
Q 3647 1150 3233 529 
Q 2819 -91 2034 -91 
Q 1250 -91 836 529 
Q 422 1150 422 2328 
Q 422 3509 836 4129 
Q 1250 4750 2034 4750 
z
" transform="scale(0.015625)"/>
        <path id="DejaVuSans-37" d="M 525 4666 
L 3525 4666 
L 3525 4397 
L 1831 0 
L 1172 0 
L 2766 4134 
L 525 4134 
L 525 4666 
z
" transform="scale(0.015625)"/>
        <path id="DejaVuSans-2d" d="M 313 2009 
L 1997 2009 
L 1997 1497 
L 313 1497 
L 313 2009 
z
" transform="scale(0.015625)"/>
        <path id="DejaVuSans-31" d="M 794 531 
L 1825 531 
L 1825 4091 
L 703 3866 
L 703 4441 
L 1819 4666 
L 2450 4666 
L 2450 531 
L 3481 531 
L 3481 0 
L 794 0 
L 794 531 
z
" transform="scale(0.015625)"/>
        <path id="DejaVuSans-20" transform="scale(0.015625)"/>
        <path id="DejaVuSans-32" d="M 1228 531 
L 3431 531 
L 3431 0 
L 469 0 
L 469 531 
Q 828 903 1448 1529 
Q 2069 2156 2228 2338 
Q 2531 2678 2651 2914 
Q 2772 3150 2772 3378 
Q 2772 3750 2511 3984 
Q 2250 4219 1831 4219 
Q 1534 4219 1204 4116 
Q 875 4013 500 3803 
L 500 4441 
Q 881 4594 1212 4672 
Q 1544 4750 1819 4750 
Q 2544 4750 2975 4387 
Q 3406 4025 3406 3419 
Q 3406 3131 3298 2873 
Q 3191 2616 2906 2266 
Q 2828 2175 2409 1742 
Q 1991 1309 1228 531 
z
" transform="scale(0.015625)"/>
       </defs>
       <use xlink:href="#DejaVuSans-30"/>
       <use xlink:href="#DejaVuSans-37" x="63.623047"/>
       <use xlink:href="#DejaVuSans-2d" x="127.246094"/>
       <use xlink:href="#DejaVuSans-31" x="163.330078"/>
       <use xlink:href="#DejaVuSans-31" x="226.953125"/>
       <use xlink:href="#DejaVuSans-20" x="290.576172"/>
       <use xlink:href="#DejaVuSans-31" x="322.363281"/>
       <use xlink:href="#DejaVuSans-32" x="385.986328"/>
      </g>
     </g>
    </g>
    <g id="xtick_2">
     <g id="line2d_2">
      <g>
       <use xlink:href="#m3f9af1fa9e" x="289.256824" y="359.517187" style="stroke: #000000; stroke-width: 0.8"/>
      </g>
     </g>
     <g id="text_2">
      <!-- 07-12 00 -->
      <g transform="translate(266.776355 374.115625) scale(0.1 -0.1)">
       <use xlink:href="#DejaVuSans-30"/>
       <use xlink:href="#DejaVuSans-37" x="63.623047"/>
       <use xlink:href="#DejaVuSans-2d" x="127.246094"/>
       <use xlink:href="#DejaVuSans-31" x="163.330078"/>
       <use xlink:href="#DejaVuSans-32" x="226.953125"/>
       <use xlink:href="#DejaVuSans-20" x="290.576172"/>
       <use xlink:href="#DejaVuSans-30" x="322.363281"/>
       <use xlink:href="#DejaVuSans-30" x="385.986328"/>
      </g>
     </g>
    </g>
    <g id="xtick_3">
     <g id="line2d_3">
      <g>
       <use xlink:href="#m3f9af1fa9e" x="440.700878" y="359.517187" style="stroke: #000000; stroke-width: 0.8"/>
      </g>
     </g>
     <g id="text_3">
      <!-- 07-12 12 -->
      <g transform="translate(418.220409 374.115625) scale(0.1 -0.1)">
       <use xlink:href="#DejaVuSans-30"/>
       <use xlink:href="#DejaVuSans-37" x="63.623047"/>
       <use xlink:href="#DejaVuSans-2d" x="127.246094"/>
       <use xlink:href="#DejaVuSans-31" x="163.330078"/>
       <use xlink:href="#DejaVuSans-32" x="226.953125"/>
       <use xlink:href="#DejaVuSans-20" x="290.576172"/>
       <use xlink:href="#DejaVuSans-31" x="322.363281"/>
       <use xlink:href="#DejaVuSans-32" x="385.986328"/>
      </g>
     </g>
    </g>
    <g id="xtick_4">
     <g id="line2d_4">
      <g>
       <use xlink:href="#m3f9af1fa9e" x="592.144932" y="359.517187" style="stroke: #000000; stroke-width: 0.8"/>
      </g>
     </g>
     <g id="text_4">
      <!-- 07-13 00 -->
      <g transform="translate(569.664463 374.115625) scale(0.1 -0.1)">
       <defs>
        <path id="DejaVuSans-33" d="M 2597 2516 
Q 3050 2419 3304 2112 
Q 3559 1806 3559 1356 
Q 3559 666 3084 287 
Q 2609 -91 1734 -91 
Q 1441 -91 1130 -33 
Q 819 25 488 141 
L 488 750 
Q 750 597 1062 519 
Q 1375 441 1716 441 
Q 2309 441 2620 675 
Q 2931 909 2931 1356 
Q 2931 1769 2642 2001 
Q 2353 2234 1838 2234 
L 1294 2234 
L 1294 2753 
L 1863 2753 
Q 2328 2753 2575 2939 
Q 2822 3125 2822 3475 
Q 2822 3834 2567 4026 
Q 2313 4219 1838 4219 
Q 1578 4219 1281 4162 
Q 984 4106 628 3988 
L 628 4550 
Q 988 4650 1302 4700 
Q 1616 4750 1894 4750 
Q 2613 4750 3031 4423 
Q 3450 4097 3450 3541 
Q 3450 3153 3228 2886 
Q 3006 2619 2597 2516 
z
" transform="scale(0.015625)"/>
       </defs>
       <use xlink:href="#DejaVuSans-30"/>
       <use xlink:href="#DejaVuSans-37" x="63.623047"/>
       <use xlink:href="#DejaVuSans-2d" x="127.246094"/>
       <use xlink:href="#DejaVuSans-31" x="163.330078"/>
       <use xlink:href="#DejaVuSans-33" x="226.953125"/>
       <use xlink:href="#DejaVuSans-20" x="290.576172"/>
       <use xlink:href="#DejaVuSans-30" x="322.363281"/>
       <use xlink:href="#DejaVuSans-30" x="385.986328"/>
      </g>
     </g>
    </g>
    <g id="xtick_5">
     <g id="line2d_5">
      <g>
       <use xlink:href="#m3f9af1fa9e" x="743.588986" y="359.517187" style="stroke: #000000; stroke-width: 0.8"/>
      </g>
     </g>
     <g id="text_5">
      <!-- 07-13 12 -->
      <g transform="translate(721.108518 374.115625) scale(0.1 -0.1)">
       <use xlink:href="#DejaVuSans-30"/>
       <use xlink:href="#DejaVuSans-37" x="63.623047"/>
       <use xlink:href="#DejaVuSans-2d" x="127.246094"/>
       <use xlink:href="#DejaVuSans-31" x="163.330078"/>
       <use xlink:href="#DejaVuSans-33" x="226.953125"/>
       <use xlink:href="#DejaVuSans-20" x="290.576172"/>
       <use xlink:href="#DejaVuSans-31" x="322.363281"/>
       <use xlink:href="#DejaVuSans-32" x="385.986328"/>
      </g>
     </g>
    </g>
    <g id="xtick_6">
     <g id="line2d_6">
      <g>
       <use xlink:href="#m3f9af1fa9e" x="895.033041" y="359.517187" style="stroke: #000000; stroke-width: 0.8"/>
      </g>
     </g>
     <g id="text_6">
      <!-- 07-14 00 -->
      <g transform="translate(872.552572 374.115625) scale(0.1 -0.1)">
       <defs>
        <path id="DejaVuSans-34" d="M 2419 4116 
L 825 1625 
L 2419 1625 
L 2419 4116 
z
M 2253 4666 
L 3047 4666 
L 3047 1625 
L 3713 1625 
L 3713 1100 
L 3047 1100 
L 3047 0 
L 2419 0 
L 2419 1100 
L 313 1100 
L 313 1709 
L 2253 4666 
z
" transform="scale(0.015625)"/>
       </defs>
       <use xlink:href="#DejaVuSans-30"/>
       <use xlink:href="#DejaVuSans-37" x="63.623047"/>
       <use xlink:href="#DejaVuSans-2d" x="127.246094"/>
       <use xlink:href="#DejaVuSans-31" x="163.330078"/>
       <use xlink:href="#DejaVuSans-34" x="226.953125"/>
       <use xlink:href="#DejaVuSans-20" x="290.576172"/>
       <use xlink:href="#DejaVuSans-30" x="322.363281"/>
       <use xlink:href="#DejaVuSans-30" x="385.986328"/>
      </g>
     </g>
    </g>
    <g id="xtick_7">
     <g id="line2d_7">
      <g>
       <use xlink:href="#m3f9af1fa9e" x="1046.477095" y="359.517187" style="stroke: #000000; stroke-width: 0.8"/>
      </g>
     </g>
     <g id="text_7">
      <!-- 07-14 12 -->
      <g transform="translate(1023.996626 374.115625) scale(0.1 -0.1)">
       <use xlink:href="#DejaVuSans-30"/>
       <use xlink:href="#DejaVuSans-37" x="63.623047"/>
       <use xlink:href="#DejaVuSans-2d" x="127.246094"/>
       <use xlink:href="#DejaVuSans-31" x="163.330078"/>
       <use xlink:href="#DejaVuSans-34" x="226.953125"/>
       <use xlink:href="#DejaVuSans-20" x="290.576172"/>
       <use xlink:href="#DejaVuSans-31" x="322.363281"/>
       <use xlink:href="#DejaVuSans-32" x="385.986328"/>
      </g>
     </g>
    </g>
    <g id="text_8">
     <!-- Time -->
     <g transform="translate(592.554688 389.313437) scale(0.12 -0.12)">
      <defs>
       <path id="DejaVuSans-54" d="M -19 4666 
L 3928 4666 
L 3928 4134 
L 2272 4134 
L 2272 0 
L 1638 0 
L 1638 4134 
L -19 4134 
L -19 4666 
z
" transform="scale(0.015625)"/>
       <path id="DejaVuSans-69" d="M 603 3500 
L 1178 3500 
L 1178 0 
L 603 0 
L 603 3500 
z
M 603 4863 
L 1178 4863 
L 1178 4134 
L 603 4134 
L 603 4863 
z
" transform="scale(0.015625)"/>
       <path id="DejaVuSans-6d" d="M 3328 2828 
Q 3544 3216 3844 3400 
Q 4144 3584 4550 3584 
Q 5097 3584 5394 3201 
Q 5691 2819 5691 2113 
L 5691 0 
L 5113 0 
L 5113 2094 
Q 5113 2597 4934 2840 
Q 4756 3084 4391 3084 
Q 3944 3084 3684 2787 
Q 3425 2491 3425 1978 
L 3425 0 
L 2847 0 
L 2847 2094 
Q 2847 2600 2669 2842 
Q 2491 3084 2119 3084 
Q 1678 3084 1418 2786 
Q 1159 2488 1159 1978 
L 1159 0 
L 581 0 
L 581 3500 
L 1159 3500 
L 1159 2956 
Q 1356 3278 1631 3431 
Q 1906 3584 2284 3584 
Q 2666 3584 2933 3390 
Q 3200 3197 3328 2828 
z
" transform="scale(0.015625)"/>
       <path id="DejaVuSans-65" d="M 3597 1894 
L 3597 1613 
L 953 1613 
Q 991 1019 1311 708 
Q 1631 397 2203 397 
Q 2534 397 2845 478 
Q 3156 559 3463 722 
L 3463 178 
Q 3153 47 2828 -22 
Q 2503 -91 2169 -91 
Q 1331 -91 842 396 
Q 353 884 353 1716 
Q 353 2575 817 3079 
Q 1281 3584 2069 3584 
Q 2775 3584 3186 3129 
Q 3597 2675 3597 1894 
z
M 3022 2063 
Q 3016 2534 2758 2815 
Q 2500 3097 2075 3097 
Q 1594 3097 1305 2825 
Q 1016 2553 972 2059 
L 3022 2063 
z
" transform="scale(0.015625)"/>
      </defs>
      <use xlink:href="#DejaVuSans-54"/>
      <use xlink:href="#DejaVuSans-69" x="57.958984"/>
      <use xlink:href="#DejaVuSans-6d" x="85.742188"/>
      <use xlink:href="#DejaVuSans-65" x="183.154297"/>
     </g>
    </g>
   </g>
   <g id="matplotlib.axis_2">
    <g id="ytick_1">
     <g id="line2d_8">
      <defs>
       <path id="m8c99a78df6" d="M 0 0 
L -3.5 0 
" style="stroke: #000000; stroke-width: 0.8"/>
      </defs>
      <g>
       <use xlink:href="#m8c99a78df6" x="49.235" y="344.397187" style="stroke: #000000; stroke-width: 0.8"/>
      </g>
     </g>
     <g id="text_9">
      <!-- 0 -->
      <g transform="translate(35.8725 348.196406) scale(0.1 -0.1)">
       <use xlink:href="#DejaVuSans-30"/>
      </g>
     </g>
    </g>
    <g id="ytick_2">
     <g id="line2d_9">
      <g>
       <use xlink:href="#m8c99a78df6" x="49.235" y="298.509479" style="stroke: #000000; stroke-width: 0.8"/>
      </g>
     </g>
     <g id="text_10">
      <!-- 100 -->
      <g transform="translate(23.1475 302.308698) scale(0.1 -0.1)">
       <use xlink:href="#DejaVuSans-31"/>
       <use xlink:href="#DejaVuSans-30" x="63.623047"/>
       <use xlink:href="#DejaVuSans-30" x="127.246094"/>
      </g>
     </g>
    </g>
    <g id="ytick_3">
     <g id="line2d_10">
      <g>
       <use xlink:href="#m8c99a78df6" x="49.235" y="252.62177" style="stroke: #000000; stroke-width: 0.8"/>
      </g>
     </g>
     <g id="text_11">
      <!-- 200 -->
      <g transform="translate(23.1475 256.420989) scale(0.1 -0.1)">
       <use xlink:href="#DejaVuSans-32"/>
       <use xlink:href="#DejaVuSans-30" x="63.623047"/>
       <use xlink:href="#DejaVuSans-30" x="127.246094"/>
      </g>
     </g>
    </g>
    <g id="ytick_4">
     <g id="line2d_11">
      <g>
       <use xlink:href="#m8c99a78df6" x="49.235" y="206.734062" style="stroke: #000000; stroke-width: 0.8"/>
      </g>
     </g>
     <g id="text_12">
      <!-- 300 -->
      <g transform="translate(23.1475 210.53328) scale(0.1 -0.1)">
       <use xlink:href="#DejaVuSans-33"/>
       <use xlink:href="#DejaVuSans-30" x="63.623047"/>
       <use xlink:href="#DejaVuSans-30" x="127.246094"/>
      </g>
     </g>
    </g>
    <g id="ytick_5">
     <g id="line2d_12">
      <g>
       <use xlink:href="#m8c99a78df6" x="49.235" y="160.846353" style="stroke: #000000; stroke-width: 0.8"/>
      </g>
     </g>
     <g id="text_13">
      <!-- 400 -->
      <g transform="translate(23.1475 164.645572) scale(0.1 -0.1)">
       <use xlink:href="#DejaVuSans-34"/>
       <use xlink:href="#DejaVuSans-30" x="63.623047"/>
       <use xlink:href="#DejaVuSans-30" x="127.246094"/>
      </g>
     </g>
    </g>
    <g id="ytick_6">
     <g id="line2d_13">
      <g>
       <use xlink:href="#m8c99a78df6" x="49.235" y="114.958644" style="stroke: #000000; stroke-width: 0.8"/>
      </g>
     </g>
     <g id="text_14">
      <!-- 500 -->
      <g transform="translate(23.1475 118.757863) scale(0.1 -0.1)">
       <defs>
        <path id="DejaVuSans-35" d="M 691 4666 
L 3169 4666 
L 3169 4134 
L 1269 4134 
L 1269 2991 
Q 1406 3038 1543 3061 
Q 1681 3084 1819 3084 
Q 2600 3084 3056 2656 
Q 3513 2228 3513 1497 
Q 3513 744 3044 326 
Q 2575 -91 1722 -91 
Q 1428 -91 1123 -41 
Q 819 9 494 109 
L 494 744 
Q 775 591 1075 516 
Q 1375 441 1709 441 
Q 2250 441 2565 725 
Q 2881 1009 2881 1497 
Q 2881 1984 2565 2268 
Q 2250 2553 1709 2553 
Q 1456 2553 1204 2497 
Q 953 2441 691 2322 
L 691 4666 
z
" transform="scale(0.015625)"/>
       </defs>
       <use xlink:href="#DejaVuSans-35"/>
       <use xlink:href="#DejaVuSans-30" x="63.623047"/>
       <use xlink:href="#DejaVuSans-30" x="127.246094"/>
      </g>
     </g>
    </g>
    <g id="ytick_7">
     <g id="line2d_14">
      <g>
       <use xlink:href="#m8c99a78df6" x="49.235" y="69.070936" style="stroke: #000000; stroke-width: 0.8"/>
      </g>
     </g>
     <g id="text_15">
      <!-- 600 -->
      <g transform="translate(23.1475 72.870154) scale(0.1 -0.1)">
       <defs>
        <path id="DejaVuSans-36" d="M 2113 2584 
Q 1688 2584 1439 2293 
Q 1191 2003 1191 1497 
Q 1191 994 1439 701 
Q 1688 409 2113 409 
Q 2538 409 2786 701 
Q 3034 994 3034 1497 
Q 3034 2003 2786 2293 
Q 2538 2584 2113 2584 
z
M 3366 4563 
L 3366 3988 
Q 3128 4100 2886 4159 
Q 2644 4219 2406 4219 
Q 1781 4219 1451 3797 
Q 1122 3375 1075 2522 
Q 1259 2794 1537 2939 
Q 1816 3084 2150 3084 
Q 2853 3084 3261 2657 
Q 3669 2231 3669 1497 
Q 3669 778 3244 343 
Q 2819 -91 2113 -91 
Q 1303 -91 875 529 
Q 447 1150 447 2328 
Q 447 3434 972 4092 
Q 1497 4750 2381 4750 
Q 2619 4750 2861 4703 
Q 3103 4656 3366 4563 
z
" transform="scale(0.015625)"/>
       </defs>
       <use xlink:href="#DejaVuSans-36"/>
       <use xlink:href="#DejaVuSans-30" x="63.623047"/>
       <use xlink:href="#DejaVuSans-30" x="127.246094"/>
      </g>
     </g>
    </g>
    <g id="text_16">
     <!-- Pellet_Count -->
     <g transform="translate(16.318125 230.485312) rotate(-90) scale(0.12 -0.12)">
      <defs>
       <path id="DejaVuSans-50" d="M 1259 4147 
L 1259 2394 
L 2053 2394 
Q 2494 2394 2734 2622 
Q 2975 2850 2975 3272 
Q 2975 3691 2734 3919 
Q 2494 4147 2053 4147 
L 1259 4147 
z
M 628 4666 
L 2053 4666 
Q 2838 4666 3239 4311 
Q 3641 3956 3641 3272 
Q 3641 2581 3239 2228 
Q 2838 1875 2053 1875 
L 1259 1875 
L 1259 0 
L 628 0 
L 628 4666 
z
" transform="scale(0.015625)"/>
       <path id="DejaVuSans-6c" d="M 603 4863 
L 1178 4863 
L 1178 0 
L 603 0 
L 603 4863 
z
" transform="scale(0.015625)"/>
       <path id="DejaVuSans-74" d="M 1172 4494 
L 1172 3500 
L 2356 3500 
L 2356 3053 
L 1172 3053 
L 1172 1153 
Q 1172 725 1289 603 
Q 1406 481 1766 481 
L 2356 481 
L 2356 0 
L 1766 0 
Q 1100 0 847 248 
Q 594 497 594 1153 
L 594 3053 
L 172 3053 
L 172 3500 
L 594 3500 
L 594 4494 
L 1172 4494 
z
" transform="scale(0.015625)"/>
       <path id="DejaVuSans-5f" d="M 3263 -1063 
L 3263 -1509 
L -63 -1509 
L -63 -1063 
L 3263 -1063 
z
" transform="scale(0.015625)"/>
       <path id="DejaVuSans-43" d="M 4122 4306 
L 4122 3641 
Q 3803 3938 3442 4084 
Q 3081 4231 2675 4231 
Q 1875 4231 1450 3742 
Q 1025 3253 1025 2328 
Q 1025 1406 1450 917 
Q 1875 428 2675 428 
Q 3081 428 3442 575 
Q 3803 722 4122 1019 
L 4122 359 
Q 3791 134 3420 21 
Q 3050 -91 2638 -91 
Q 1578 -91 968 557 
Q 359 1206 359 2328 
Q 359 3453 968 4101 
Q 1578 4750 2638 4750 
Q 3056 4750 3426 4639 
Q 3797 4528 4122 4306 
z
" transform="scale(0.015625)"/>
       <path id="DejaVuSans-6f" d="M 1959 3097 
Q 1497 3097 1228 2736 
Q 959 2375 959 1747 
Q 959 1119 1226 758 
Q 1494 397 1959 397 
Q 2419 397 2687 759 
Q 2956 1122 2956 1747 
Q 2956 2369 2687 2733 
Q 2419 3097 1959 3097 
z
M 1959 3584 
Q 2709 3584 3137 3096 
Q 3566 2609 3566 1747 
Q 3566 888 3137 398 
Q 2709 -91 1959 -91 
Q 1206 -91 779 398 
Q 353 888 353 1747 
Q 353 2609 779 3096 
Q 1206 3584 1959 3584 
z
" transform="scale(0.015625)"/>
       <path id="DejaVuSans-75" d="M 544 1381 
L 544 3500 
L 1119 3500 
L 1119 1403 
Q 1119 906 1312 657 
Q 1506 409 1894 409 
Q 2359 409 2629 706 
Q 2900 1003 2900 1516 
L 2900 3500 
L 3475 3500 
L 3475 0 
L 2900 0 
L 2900 538 
Q 2691 219 2414 64 
Q 2138 -91 1772 -91 
Q 1169 -91 856 284 
Q 544 659 544 1381 
z
M 1991 3584 
L 1991 3584 
z
" transform="scale(0.015625)"/>
       <path id="DejaVuSans-6e" d="M 3513 2113 
L 3513 0 
L 2938 0 
L 2938 2094 
Q 2938 2591 2744 2837 
Q 2550 3084 2163 3084 
Q 1697 3084 1428 2787 
Q 1159 2491 1159 1978 
L 1159 0 
L 581 0 
L 581 3500 
L 1159 3500 
L 1159 2956 
Q 1366 3272 1645 3428 
Q 1925 3584 2291 3584 
Q 2894 3584 3203 3211 
Q 3513 2838 3513 2113 
z
" transform="scale(0.015625)"/>
      </defs>
      <use xlink:href="#DejaVuSans-50"/>
      <use xlink:href="#DejaVuSans-65" x="56.677734"/>
      <use xlink:href="#DejaVuSans-6c" x="118.201172"/>
      <use xlink:href="#DejaVuSans-6c" x="145.984375"/>
      <use xlink:href="#DejaVuSans-65" x="173.767578"/>
      <use xlink:href="#DejaVuSans-74" x="235.291016"/>
      <use xlink:href="#DejaVuSans-5f" x="274.5"/>
      <use xlink:href="#DejaVuSans-43" x="324.5"/>
      <use xlink:href="#DejaVuSans-6f" x="394.324219"/>
      <use xlink:href="#DejaVuSans-75" x="455.505859"/>
      <use xlink:href="#DejaVuSans-6e" x="518.884766"/>
      <use xlink:href="#DejaVuSans-74" x="582.263672"/>
     </g>
    </g>
   </g>
   <g id="line2d_15">
    <path d="M 99.962273 344.397187 
L 101.389072 344.397187 
L 101.392578 343.93831 
L 102.240945 343.93831 
L 102.286518 343.479433 
L 102.528408 343.479433 
L 102.602027 342.561679 
L 102.661623 342.561679 
L 102.668634 342.102802 
L 104.943801 342.102802 
L 106.188306 341.643925 
L 107.821939 341.643925 
L 107.892052 340.726171 
L 107.958659 340.726171 
L 108.035783 339.808417 
L 109.543213 339.808417 
L 111.324082 339.34954 
L 111.418735 338.431785 
L 113.069896 338.431785 
L 113.164548 337.514031 
L 113.213627 337.514031 
L 113.294257 336.596277 
L 116.859503 336.596277 
L 116.943638 335.678523 
L 116.999729 335.678523 
L 117.055819 334.760769 
L 117.146966 334.760769 
L 117.22409 333.843015 
L 119.267884 333.843015 
L 119.411616 333.384137 
L 121.858559 333.384137 
L 121.858559 333.384137 
L 121.977751 332.92526 
L 122.997895 332.92526 
L 123.011918 332.466383 
L 123.155649 332.466383 
L 123.278347 332.007506 
L 123.327426 332.007506 
L 123.450124 331.548629 
L 124.785776 331.548629 
L 124.883934 330.630875 
L 127.159101 330.630875 
L 127.26427 330.171998 
L 127.351912 330.171998 
L 127.488632 328.795367 
L 127.607824 328.795367 
L 127.698971 327.877612 
L 127.842702 327.877612 
L 127.951378 326.959858 
L 130.685784 326.959858 
L 130.696301 326.500981 
L 131.334329 326.500981 
L 131.460533 325.583227 
L 132.911871 325.583227 
L 132.925894 325.12435 
L 134.657685 325.12435 
L 134.671707 324.665473 
L 136.024888 324.665473 
L 136.123046 323.747719 
L 136.235227 323.747719 
L 136.319363 323.288842 
L 136.733029 323.288842 
L 136.740041 322.829964 
L 139.193995 322.829964 
L 139.201007 322.371087 
L 139.386806 322.371087 
L 139.393817 321.91221 
L 139.530538 321.91221 
L 139.537549 321.453333 
L 139.758405 321.453333 
L 139.860069 320.994456 
L 147.232449 320.994456 
L 147.372675 320.076702 
L 147.435777 320.076702 
L 147.544452 319.617825 
L 147.639105 318.700071 
L 147.705712 318.700071 
L 147.821398 317.782316 
L 147.902028 317.782316 
L 148.010703 316.864562 
L 148.119379 316.864562 
L 148.12639 316.405685 
L 152.98522 316.405685 
L 153.100906 315.946808 
L 153.167514 315.029054 
L 153.255155 315.029054 
L 153.381358 313.652423 
L 153.458483 313.652423 
L 153.465494 313.193546 
L 160.1087 313.193546 
L 160.217375 312.275791 
L 160.294499 312.275791 
L 160.294499 312.275791 
L 160.403174 310.89916 
L 162.538115 310.89916 
L 162.625756 309.981406 
L 171.337295 309.981406 
L 171.347812 309.522529 
L 171.509071 309.522529 
L 171.624758 309.063652 
L 171.666826 309.063652 
L 171.782512 308.604775 
L 171.870153 308.604775 
L 171.873659 308.145898 
L 172.010379 308.145898 
L 172.094515 307.228143 
L 178.148771 307.228143 
L 178.52037 306.310389 
L 178.558932 306.310389 
L 178.671113 305.851512 
L 178.76226 305.851512 
L 178.821856 304.933758 
L 178.888463 304.933758 
L 179.00415 304.016004 
L 179.112825 304.016004 
L 179.189949 303.09825 
L 179.340692 303.09825 
L 179.340692 303.09825 
L 179.372243 302.639373 
L 183.077714 302.639373 
L 183.193401 302.180496 
L 183.24248 302.180496 
L 183.302076 301.262741 
L 183.372189 301.262741 
L 183.3792 300.803864 
L 183.614079 300.803864 
L 183.62109 300.344987 
L 184.132915 300.344987 
L 184.139926 299.88611 
L 184.315209 299.88611 
L 184.32222 299.427233 
L 184.451929 299.427233 
L 184.546582 298.509479 
L 189.436962 298.509479 
L 189.436962 298.509479 
L 189.556155 298.050602 
L 189.580694 298.050602 
L 189.5842 297.591725 
L 189.738448 297.591725 
L 189.843618 297.132848 
L 189.85764 297.132848 
L 189.864652 296.673971 
L 193.117894 296.673971 
L 193.226569 295.756216 
L 193.36329 295.756216 
L 193.457942 294.838462 
L 193.559606 294.838462 
L 193.66127 294.379585 
L 193.780462 294.379585 
L 193.885632 293.920708 
L 198.646303 293.920708 
L 198.660326 293.461831 
L 200.875896 293.461831 
L 200.886413 293.002954 
L 201.990693 293.002954 
L 202.113391 292.0852 
L 204.276376 292.0852 
L 204.357006 291.167445 
L 204.455165 291.167445 
L 204.462176 290.708568 
L 206.222012 290.708568 
L 207.34382 290.249691 
L 207.456 289.790814 
L 207.466517 289.790814 
L 207.533125 288.87306 
L 207.596226 288.87306 
L 207.708407 288.414183 
L 207.824094 287.037552 
L 210.604074 287.037552 
L 211.280664 286.578675 
L 211.378822 286.578675 
L 211.466463 285.66092 
L 211.536576 285.66092 
L 211.697836 284.743166 
L 215.28061 284.743166 
L 215.312161 284.284289 
L 221.191135 284.284289 
L 221.191135 284.284289 
L 221.303316 283.366535 
L 221.369923 283.366535 
L 221.464575 282.448781 
L 221.583768 282.448781 
L 221.699454 281.531027 
L 221.89577 281.531027 
L 221.906287 281.07215 
L 224.710807 281.07215 
L 224.724829 280.613272 
L 241.499362 280.613272 
L 241.590509 279.695518 
L 241.685161 279.695518 
L 241.793836 278.777764 
L 241.856938 278.318887 
L 242.025209 278.318887 
L 242.105839 277.401133 
L 242.19348 277.401133 
L 242.281122 276.483379 
L 249.499254 276.483379 
L 249.628963 275.565625 
L 249.793728 275.565625 
L 249.909415 275.106747 
L 249.923437 275.106747 
L 250.028607 274.188993 
L 250.091708 274.188993 
L 250.182855 273.271239 
L 250.25998 273.271239 
L 250.263485 272.812362 
L 277.179861 272.812362 
L 277.186873 272.353485 
L 277.369166 272.353485 
L 277.456808 271.435731 
L 277.526921 271.435731 
L 277.611056 270.976854 
L 293.775606 270.976854 
L 293.807157 270.517977 
L 305.473958 270.517977 
L 305.600161 269.600222 
L 305.652746 269.600222 
L 305.761421 268.682468 
L 305.838545 268.682468 
L 305.919175 267.764714 
L 305.992794 267.764714 
L 306.101469 266.84696 
L 306.164571 266.84696 
L 306.259223 265.929206 
L 306.343359 265.929206 
L 306.346864 265.470329 
L 330.15373 265.470329 
L 330.262405 264.552574 
L 330.339529 264.552574 
L 330.45171 264.093697 
L 330.493778 264.093697 
L 330.591936 263.63482 
L 342.777573 263.63482 
L 342.78809 263.175943 
L 342.910788 263.175943 
L 343.012452 262.258189 
L 343.072048 262.258189 
L 343.180723 261.340435 
L 343.254341 261.340435 
L 343.363017 260.422681 
L 343.496231 260.422681 
L 343.499737 259.963804 
L 350.251618 259.963804 
L 350.328742 259.046049 
L 350.416383 259.046049 
L 350.525058 258.128295 
L 350.553103 258.128295 
L 350.640745 257.210541 
L 361.2243 257.210541 
L 361.308436 256.292787 
L 361.389066 256.292787 
L 361.487224 255.375033 
L 370.37054 255.375033 
L 370.493237 254.457279 
L 370.612429 254.457279 
L 370.682542 253.539524 
L 370.745644 253.539524 
L 370.843802 252.62177 
L 381.693787 252.62177 
L 381.693787 252.62177 
L 381.756889 251.704016 
L 381.837519 251.704016 
L 381.907632 250.786262 
L 381.991767 250.786262 
L 382.075903 249.868508 
L 382.153027 249.868508 
L 382.156533 249.409631 
L 387.975911 249.409631 
L 388.053035 248.491876 
L 388.109126 248.491876 
L 388.200272 247.574122 
L 388.277397 247.574122 
L 388.361532 246.656368 
L 388.42814 246.656368 
L 388.438657 246.197491 
L 399.583116 246.197491 
L 399.782938 245.738614 
L 420.65908 245.738614 
L 420.771261 244.82086 
L 420.848385 244.82086 
L 420.936027 243.903106 
L 421.002634 243.903106 
L 421.00614 243.444228 
L 422.27869 243.444228 
L 422.341792 242.526474 
L 422.401388 242.526474 
L 422.467995 241.60872 
L 425.044648 241.60872 
L 425.156828 241.149843 
L 427.572221 241.149843 
L 427.67739 240.690966 
L 427.691413 240.690966 
L 427.789571 239.773212 
L 427.828133 239.773212 
L 427.933303 239.314335 
L 428.013933 239.314335 
L 428.038472 238.855458 
L 431.098904 238.855458 
L 431.190051 237.937703 
L 431.249647 237.937703 
L 431.298726 237.019949 
L 431.382862 237.019949 
L 431.45648 236.102195 
L 433.219822 236.102195 
L 433.31798 235.184441 
L 436.5572 235.184441 
L 436.672887 234.266687 
L 436.753517 234.266687 
L 436.851675 233.348933 
L 436.932305 233.348933 
L 436.93581 232.890055 
L 443.764815 232.890055 
L 445.545685 232.431178 
L 445.552697 231.972301 
L 446.797202 231.972301 
L 446.804213 231.513424 
L 448.830479 231.513424 
L 448.932143 230.59567 
L 449.02329 230.59567 
L 449.124953 229.677916 
L 449.205583 229.677916 
L 449.293225 228.760162 
L 449.342304 228.760162 
L 449.429945 227.842408 
L 453.030247 227.842408 
L 453.577128 227.38353 
L 456.409693 227.38353 
L 456.518368 226.006899 
L 456.588481 226.006899 
L 456.69365 224.630268 
L 461.766325 224.630268 
L 461.832932 223.712514 
L 461.89954 223.712514 
L 461.969653 222.79476 
L 462.03626 222.79476 
L 462.039766 222.335882 
L 464.711071 222.335882 
L 464.802218 221.418128 
L 464.851297 221.418128 
L 464.928421 220.500374 
L 464.988017 220.500374 
L 464.991523 220.041497 
L 466.477918 220.041497 
L 466.481424 219.58262 
L 475.091299 219.58262 
L 476.630279 219.123743 
L 478.197304 219.123743 
L 478.288451 218.664866 
L 478.33753 218.664866 
L 478.435688 217.747112 
L 480.41638 217.747112 
L 480.500516 216.829357 
L 480.542583 216.829357 
L 480.546089 216.37048 
L 482.810739 216.37048 
L 482.81775 215.911603 
L 483.108719 215.911603 
L 483.112224 215.452726 
L 486.523221 215.452726 
L 486.628391 214.534972 
L 486.687987 214.534972 
L 486.740572 214.076095 
L 487.49078 214.076095 
L 488.822927 213.617218 
L 490.155074 213.617218 
L 490.246221 212.699464 
L 490.316334 212.699464 
L 490.396964 211.78171 
L 494.309269 211.78171 
L 494.393404 210.863955 
L 494.498574 210.863955 
L 494.502079 210.405078 
L 497.145339 210.405078 
L 497.243497 209.487324 
L 497.317116 209.487324 
L 497.390734 208.56957 
L 497.436308 208.56957 
L 497.548489 207.651816 
L 500.188243 207.651816 
L 500.307435 206.734062 
L 504.286347 206.734062 
L 504.391516 205.816307 
L 504.472146 205.816307 
L 504.584327 204.898553 
L 507.034776 204.898553 
L 507.157474 203.980799 
L 507.227587 203.980799 
L 507.336262 202.604168 
L 510.607033 202.604168 
L 510.610538 202.145291 
L 514.301987 202.145291 
L 514.379111 201.227537 
L 514.515832 201.227537 
L 514.592956 200.768659 
L 517.001337 200.768659 
L 517.117024 199.850905 
L 517.194148 199.850905 
L 517.264261 198.933151 
L 519.788328 198.933151 
L 519.882981 198.015397 
L 519.925049 198.015397 
L 520.016196 197.097643 
L 520.107343 197.097643 
L 520.110848 196.638766 
L 530.690898 196.638766 
L 530.761011 196.179889 
L 530.806585 196.179889 
L 530.911754 195.262134 
L 531.087036 195.262134 
L 531.199217 194.34438 
L 531.311398 194.34438 
L 531.420073 193.426626 
L 531.48668 193.426626 
L 531.602367 192.508872 
L 531.623401 192.508872 
L 531.679491 191.591118 
L 531.777649 191.591118 
L 531.837245 190.673364 
L 531.935404 190.673364 
L 531.949426 190.214486 
L 538.564587 190.214486 
L 538.568092 189.755609 
L 538.802971 189.755609 
L 538.880095 188.837855 
L 540.997507 188.837855 
L 541.004519 188.378978 
L 541.498815 188.378978 
L 541.509332 187.920101 
L 552.089382 187.920101 
L 552.205068 187.002347 
L 552.313744 187.002347 
L 552.317249 186.54347 
L 553.610834 186.54347 
L 553.617845 186.084593 
L 553.789622 186.084593 
L 553.796633 185.625716 
L 580.320377 185.625716 
L 580.330894 185.166838 
L 580.464108 185.166838 
L 580.534221 184.249084 
L 580.611346 184.249084 
L 580.709504 183.790207 
L 580.790134 183.790207 
L 580.90582 182.872453 
L 581.035529 182.872453 
L 581.158227 181.954699 
L 595.738223 181.954699 
L 595.860921 181.036945 
L 595.987124 181.036945 
L 596.078271 180.119191 
L 596.200969 180.119191 
L 596.313149 179.201436 
L 596.383262 179.201436 
L 596.44987 178.742559 
L 619.331243 178.742559 
L 619.334749 178.283682 
L 619.481986 178.283682 
L 619.485492 177.824805 
L 619.692325 177.824805 
L 619.804506 177.365928 
L 619.815023 177.365928 
L 619.923698 176.448174 
L 634.167152 176.448174 
L 634.286344 175.53042 
L 634.573807 175.53042 
L 634.752595 175.071543 
L 634.784146 175.071543 
L 634.899832 174.612665 
L 647.779588 174.612665 
L 647.783094 174.153788 
L 647.895275 174.153788 
L 647.989927 173.236034 
L 648.088085 173.236034 
L 648.179232 172.777157 
L 655.719884 172.777157 
L 655.825054 172.31828 
L 655.870627 172.31828 
L 655.96528 171.400526 
L 656.070449 171.400526 
L 656.073955 170.941649 
L 656.214181 170.941649 
L 656.217686 170.482772 
L 657.546327 170.482772 
L 657.553339 170.023895 
L 663.730293 170.023895 
L 671.870411 169.565018 
L 671.986097 168.647263 
L 672.00012 168.647263 
L 672.063222 167.729509 
L 672.185919 167.729509 
L 672.249021 166.811755 
L 672.354191 166.811755 
L 672.448843 166.352878 
L 672.529473 165.894001 
L 672.645159 165.894001 
L 672.722284 164.976247 
L 678.348851 164.976247 
L 678.348851 164.976247 
L 686.850051 164.51737 
L 686.972749 163.599615 
L 686.990277 163.599615 
L 687.063895 162.681861 
L 687.119986 162.681861 
L 687.207627 161.764107 
L 687.284751 161.764107 
L 687.288257 161.30523 
L 692.497652 161.30523 
L 692.613338 160.846353 
L 693.952496 160.846353 
L 694.061172 159.928599 
L 694.120768 159.928599 
L 694.124273 159.469722 
L 694.253982 159.469722 
L 694.257488 159.010845 
L 697.321426 159.010845 
L 697.409067 158.09309 
L 697.503719 158.09309 
L 697.570327 157.175336 
L 697.661474 157.175336 
L 697.72107 156.716459 
L 700.820064 156.716459 
L 700.897188 155.798705 
L 700.988335 155.798705 
L 701.047931 154.880951 
L 713.145927 154.880951 
L 713.21604 154.422074 
L 718.260669 154.422074 
L 718.341299 153.50432 
L 718.386873 153.50432 
L 718.439458 153.045442 
L 723.711954 153.045442 
L 723.824135 152.127688 
L 723.834652 152.127688 
L 723.887237 151.209934 
L 729.752188 151.209934 
L 729.752188 151.209934 
L 729.769716 150.751057 
L 729.899425 150.751057 
L 729.906437 150.29218 
L 732.416482 150.29218 
L 732.500617 149.374426 
L 732.581247 149.374426 
L 732.717968 148.456672 
L 732.952846 148.456672 
L 732.956352 147.997794 
L 738.421659 147.997794 
L 738.47775 147.08004 
L 738.544357 147.08004 
L 738.544357 147.08004 
L 738.621481 146.621163 
L 741.730992 146.621163 
L 741.843173 145.703409 
L 741.899263 145.703409 
L 741.955354 144.785655 
L 748.559997 144.785655 
L 748.689706 143.409024 
L 748.717751 143.409024 
L 748.833438 142.032392 
L 748.89654 142.032392 
L 748.959641 141.114638 
L 749.040271 141.114638 
L 749.047283 140.655761 
L 753.888584 140.655761 
L 753.895596 140.196884 
L 754.091912 140.196884 
L 754.098923 139.738007 
L 754.610748 139.738007 
L 754.614254 139.27913 
L 755.420553 139.27913 
L 755.490666 138.361376 
L 755.539745 138.361376 
L 755.637903 137.902499 
L 763.076891 137.902499 
L 763.157521 136.984744 
L 763.227634 136.984744 
L 763.322287 136.06699 
L 763.409928 136.06699 
L 763.501075 135.149236 
L 763.571188 135.149236 
L 763.651818 134.231482 
L 766.182897 134.231482 
L 766.182897 134.231482 
L 766.274044 133.772605 
L 771.406314 133.772605 
L 771.51499 132.854851 
L 771.655216 132.854851 
L 771.739351 131.937096 
L 771.798947 131.937096 
L 771.886588 131.019342 
L 771.977735 131.019342 
L 772.023309 130.560465 
L 772.146006 130.560465 
L 772.212614 130.101588 
L 772.955811 130.101588 
L 773.600851 129.642711 
L 781.670856 129.642711 
L 781.762003 128.724957 
L 781.860161 128.724957 
L 781.968836 127.807203 
L 782.20722 127.807203 
L 782.210726 127.348326 
L 790.515609 127.348326 
L 790.522621 126.889449 
L 792.633022 126.889449 
L 792.738191 126.430571 
L 792.755719 126.430571 
L 792.857383 125.512817 
L 792.916979 125.512817 
L 793.008126 124.595063 
L 793.127318 124.595063 
L 793.218465 123.677309 
L 793.306106 123.677309 
L 793.428804 122.759555 
L 793.505928 122.300678 
L 793.656671 122.300678 
L 793.663682 121.841801 
L 798.83101 121.841801 
L 800.937905 121.382923 
L 801.008018 120.465169 
L 801.109682 120.465169 
L 801.197323 119.547415 
L 801.26393 119.547415 
L 801.348066 118.629661 
L 801.397145 118.629661 
L 801.400651 118.170784 
L 801.519843 118.170784 
L 801.523348 117.711907 
L 804.208676 117.711907 
L 808.156037 117.25303 
L 808.17006 116.794153 
L 808.282241 116.794153 
L 808.285746 116.335276 
L 811.24802 116.335276 
L 811.356695 115.417521 
L 811.46537 115.417521 
L 811.574045 114.958644 
L 815.142796 114.958644 
L 815.146302 114.499767 
L 816.857059 114.499767 
L 816.96924 113.582013 
L 817.109466 113.582013 
L 817.112971 113.123136 
L 817.225152 113.123136 
L 817.333827 112.664259 
L 817.351356 112.664259 
L 817.449514 112.205382 
L 818.084036 111.746505 
L 819.570432 111.746505 
L 819.623016 111.287628 
L 823.356533 111.287628 
L 823.465208 110.369873 
L 823.556355 110.369873 
L 823.647502 109.452119 
L 823.738649 109.452119 
L 823.931459 108.993242 
L 834.995289 108.993242 
L 835.075919 108.075488 
L 835.205628 108.075488 
L 835.310797 107.157734 
L 835.356371 107.157734 
L 835.46154 106.23998 
L 835.524642 106.23998 
L 835.531653 105.781103 
L 846.805822 105.781103 
L 846.809327 105.322225 
L 846.963576 105.322225 
L 847.06524 104.404471 
L 847.149375 104.404471 
L 847.240522 103.486717 
L 856.229007 103.486717 
L 856.232513 103.02784 
L 856.344694 103.02784 
L 856.442852 102.110086 
L 856.548022 102.110086 
L 856.632157 101.192332 
L 856.719798 101.192332 
L 856.835485 100.274577 
L 856.947666 100.274577 
L 857.049329 99.356823 
L 857.119442 99.356823 
L 857.129959 98.897946 
L 857.273691 98.897946 
L 857.277197 98.439069 
L 866.297233 98.439069 
L 866.304244 97.980192 
L 871.822136 97.980192 
L 874.335687 97.521315 
L 874.349709 97.062438 
L 878.693209 97.062438 
L 878.752805 96.603561 
L 880.866711 96.603561 
L 880.88424 96.144684 
L 896.508919 96.144684 
L 896.51593 95.685807 
L 902.170543 95.685807 
L 902.177554 95.22693 
L 902.324791 95.22693 
L 902.405421 94.309175 
L 902.493063 94.309175 
L 902.570187 93.391421 
L 902.643806 93.391421 
L 902.654322 92.932544 
L 903.015404 92.932544 
L 903.022416 92.473667 
L 916.610313 92.473667 
L 916.722494 92.01479 
L 927.358634 92.01479 
L 927.470815 91.097036 
L 927.572478 91.097036 
L 927.66012 90.179282 
L 927.74075 90.179282 
L 927.744255 89.720404 
L 945.202389 89.720404 
L 945.297042 88.80265 
L 945.377672 88.80265 
L 945.426751 88.343773 
L 966.380017 88.343773 
L 966.460647 86.967142 
L 966.541277 86.967142 
L 966.628918 86.508265 
L 966.709548 86.049388 
L 966.849774 86.049388 
L 966.940921 85.131634 
L 967.042585 85.131634 
L 967.112698 84.672757 
L 983.922287 84.672757 
L 983.925793 84.213879 
L 984.076536 84.213879 
L 984.12912 83.296125 
L 984.223773 83.296125 
L 984.227278 82.837248 
L 989.87488 82.837248 
L 989.976543 81.919494 
L 990.046656 81.919494 
L 990.050162 81.460617 
L 993.419091 81.460617 
L 993.524261 80.542863 
L 993.615408 80.542863 
L 993.727588 79.625109 
L 993.836263 79.625109 
L 993.906376 78.248477 
L 994.00804 78.248477 
L 994.015052 77.7896 
L 1004.542517 77.7896 
L 1006.120059 77.330723 
L 1006.579299 77.330723 
L 1006.589816 76.871846 
L 1007.60996 76.871846 
L 1007.616971 76.412969 
L 1008.728262 76.412969 
L 1008.735273 75.954092 
L 1011.318937 75.954092 
L 1011.325948 75.495215 
L 1013.057739 75.495215 
L 1016.524826 75.036338 
L 1023.26619 75.036338 
L 1023.374865 74.118584 
L 1023.434461 74.118584 
L 1023.525608 73.659706 
L 1023.939275 73.200829 
L 1025.327512 73.200829 
L 1028.514147 72.741952 
L 1028.587766 71.824198 
L 1031.826986 71.824198 
L 1031.914627 70.906444 
L 1031.956695 70.906444 
L 1032.016291 69.98869 
L 1032.117955 69.98869 
L 1032.191574 69.070936 
L 1037.053909 69.070936 
L 1037.169596 68.612059 
L 1043.125694 68.612059 
L 1043.223852 67.694304 
L 1043.314999 67.694304 
L 1043.367584 66.77655 
L 1050.224634 66.77655 
L 1050.347332 65.399919 
L 1050.406928 65.399919 
L 1050.466524 64.482165 
L 1050.561176 64.482165 
L 1050.620773 63.564411 
L 1050.683874 63.564411 
L 1050.753987 62.646656 
L 1050.841628 62.646656 
L 1050.92927 61.728902 
L 1056.30343 61.728902 
L 1056.4086 61.270025 
L 1061.379611 61.270025 
L 1061.453229 60.352271 
L 1061.498803 60.352271 
L 1061.502308 59.893394 
L 1061.635523 59.893394 
L 1061.705636 58.97564 
L 1064.534695 58.97564 
L 1064.622336 58.057886 
L 1064.660898 58.057886 
L 1064.759057 57.599008 
L 1073.484618 57.599008 
L 1073.673923 56.222377 
L 1073.74053 56.222377 
L 1073.831677 55.304623 
L 1073.922824 55.304623 
L 1074.003454 54.386869 
L 1078.911363 54.386869 
L 1078.914869 53.927992 
L 1080.00162 53.927992 
L 1080.057711 53.010238 
L 1080.131329 53.010238 
L 1080.201442 52.092483 
L 1083.423134 52.092483 
L 1083.703586 51.633606 
L 1084.050645 51.633606 
L 1084.054151 51.174729 
L 1086.038348 51.174729 
L 1086.108461 50.256975 
L 1086.18208 50.256975 
L 1086.255699 49.339221 
L 1086.315295 49.339221 
L 1086.3188 48.880344 
L 1086.459026 48.880344 
L 1086.578218 47.503713 
L 1086.672871 47.503713 
L 1086.714939 47.044835 
L 1086.879704 47.044835 
L 1086.88321 46.585958 
L 1092.807757 46.585958 
L 1092.884882 46.127081 
L 1093.60354 46.127081 
L 1093.691181 45.668204 
L 1094.946204 45.668204 
L 1095.03735 44.75045 
L 1105.582344 44.75045 
L 1105.662974 43.832696 
L 1105.757626 43.832696 
L 1105.855785 42.914942 
L 1113.974869 42.914942 
L 1113.999408 42.456065 
L 1114.237792 42.456065 
L 1114.507727 41.997187 
L 1114.507727 41.997187 
" clip-path="url(#p6d7f0466f9)" style="fill: none; stroke: #0000ff; stroke-width: 1.5; stroke-linecap: square"/>
   </g>
   <g id="patch_92">
    <path d="M 49.235 359.517187 
L 49.235 26.877187 
" style="fill: none; stroke: #000000; stroke-width: 0.8; stroke-linejoin: miter; stroke-linecap: square"/>
   </g>
   <g id="patch_93">
    <path d="M 1165.235 359.517187 
L 1165.235 26.877187 
" style="fill: none; stroke: #000000; stroke-width: 0.8; stroke-linejoin: miter; stroke-linecap: square"/>
   </g>
   <g id="patch_94">
    <path d="M 49.235 359.517187 
L 1165.235 359.517187 
" style="fill: none; stroke: #000000; stroke-width: 0.8; stroke-linejoin: miter; stroke-linecap: square"/>
   </g>
   <g id="patch_95">
    <path d="M 49.235 26.877187 
L 1165.235 26.877187 
" style="fill: none; stroke: #000000; stroke-width: 0.8; stroke-linejoin: miter; stroke-linecap: square"/>
   </g>
   <g id="text_17">
    <!-- Pellet Count and Cumulative Sum Over Time of Group cask Mouse M8 -->
    <g transform="translate(293.057656 20.877187) scale(0.18 -0.18)">
     <defs>
      <path id="DejaVuSans-61" d="M 2194 1759 
Q 1497 1759 1228 1600 
Q 959 1441 959 1056 
Q 959 750 1161 570 
Q 1363 391 1709 391 
Q 2188 391 2477 730 
Q 2766 1069 2766 1631 
L 2766 1759 
L 2194 1759 
z
M 3341 1997 
L 3341 0 
L 2766 0 
L 2766 531 
Q 2569 213 2275 61 
Q 1981 -91 1556 -91 
Q 1019 -91 701 211 
Q 384 513 384 1019 
Q 384 1609 779 1909 
Q 1175 2209 1959 2209 
L 2766 2209 
L 2766 2266 
Q 2766 2663 2505 2880 
Q 2244 3097 1772 3097 
Q 1472 3097 1187 3025 
Q 903 2953 641 2809 
L 641 3341 
Q 956 3463 1253 3523 
Q 1550 3584 1831 3584 
Q 2591 3584 2966 3190 
Q 3341 2797 3341 1997 
z
" transform="scale(0.015625)"/>
      <path id="DejaVuSans-64" d="M 2906 2969 
L 2906 4863 
L 3481 4863 
L 3481 0 
L 2906 0 
L 2906 525 
Q 2725 213 2448 61 
Q 2172 -91 1784 -91 
Q 1150 -91 751 415 
Q 353 922 353 1747 
Q 353 2572 751 3078 
Q 1150 3584 1784 3584 
Q 2172 3584 2448 3432 
Q 2725 3281 2906 2969 
z
M 947 1747 
Q 947 1113 1208 752 
Q 1469 391 1925 391 
Q 2381 391 2643 752 
Q 2906 1113 2906 1747 
Q 2906 2381 2643 2742 
Q 2381 3103 1925 3103 
Q 1469 3103 1208 2742 
Q 947 2381 947 1747 
z
" transform="scale(0.015625)"/>
      <path id="DejaVuSans-76" d="M 191 3500 
L 800 3500 
L 1894 563 
L 2988 3500 
L 3597 3500 
L 2284 0 
L 1503 0 
L 191 3500 
z
" transform="scale(0.015625)"/>
      <path id="DejaVuSans-53" d="M 3425 4513 
L 3425 3897 
Q 3066 4069 2747 4153 
Q 2428 4238 2131 4238 
Q 1616 4238 1336 4038 
Q 1056 3838 1056 3469 
Q 1056 3159 1242 3001 
Q 1428 2844 1947 2747 
L 2328 2669 
Q 3034 2534 3370 2195 
Q 3706 1856 3706 1288 
Q 3706 609 3251 259 
Q 2797 -91 1919 -91 
Q 1588 -91 1214 -16 
Q 841 59 441 206 
L 441 856 
Q 825 641 1194 531 
Q 1563 422 1919 422 
Q 2459 422 2753 634 
Q 3047 847 3047 1241 
Q 3047 1584 2836 1778 
Q 2625 1972 2144 2069 
L 1759 2144 
Q 1053 2284 737 2584 
Q 422 2884 422 3419 
Q 422 4038 858 4394 
Q 1294 4750 2059 4750 
Q 2388 4750 2728 4690 
Q 3069 4631 3425 4513 
z
" transform="scale(0.015625)"/>
      <path id="DejaVuSans-4f" d="M 2522 4238 
Q 1834 4238 1429 3725 
Q 1025 3213 1025 2328 
Q 1025 1447 1429 934 
Q 1834 422 2522 422 
Q 3209 422 3611 934 
Q 4013 1447 4013 2328 
Q 4013 3213 3611 3725 
Q 3209 4238 2522 4238 
z
M 2522 4750 
Q 3503 4750 4090 4092 
Q 4678 3434 4678 2328 
Q 4678 1225 4090 567 
Q 3503 -91 2522 -91 
Q 1538 -91 948 565 
Q 359 1222 359 2328 
Q 359 3434 948 4092 
Q 1538 4750 2522 4750 
z
" transform="scale(0.015625)"/>
      <path id="DejaVuSans-72" d="M 2631 2963 
Q 2534 3019 2420 3045 
Q 2306 3072 2169 3072 
Q 1681 3072 1420 2755 
Q 1159 2438 1159 1844 
L 1159 0 
L 581 0 
L 581 3500 
L 1159 3500 
L 1159 2956 
Q 1341 3275 1631 3429 
Q 1922 3584 2338 3584 
Q 2397 3584 2469 3576 
Q 2541 3569 2628 3553 
L 2631 2963 
z
" transform="scale(0.015625)"/>
      <path id="DejaVuSans-66" d="M 2375 4863 
L 2375 4384 
L 1825 4384 
Q 1516 4384 1395 4259 
Q 1275 4134 1275 3809 
L 1275 3500 
L 2222 3500 
L 2222 3053 
L 1275 3053 
L 1275 0 
L 697 0 
L 697 3053 
L 147 3053 
L 147 3500 
L 697 3500 
L 697 3744 
Q 697 4328 969 4595 
Q 1241 4863 1831 4863 
L 2375 4863 
z
" transform="scale(0.015625)"/>
      <path id="DejaVuSans-47" d="M 3809 666 
L 3809 1919 
L 2778 1919 
L 2778 2438 
L 4434 2438 
L 4434 434 
Q 4069 175 3628 42 
Q 3188 -91 2688 -91 
Q 1594 -91 976 548 
Q 359 1188 359 2328 
Q 359 3472 976 4111 
Q 1594 4750 2688 4750 
Q 3144 4750 3555 4637 
Q 3966 4525 4313 4306 
L 4313 3634 
Q 3963 3931 3569 4081 
Q 3175 4231 2741 4231 
Q 1884 4231 1454 3753 
Q 1025 3275 1025 2328 
Q 1025 1384 1454 906 
Q 1884 428 2741 428 
Q 3075 428 3337 486 
Q 3600 544 3809 666 
z
" transform="scale(0.015625)"/>
      <path id="DejaVuSans-70" d="M 1159 525 
L 1159 -1331 
L 581 -1331 
L 581 3500 
L 1159 3500 
L 1159 2969 
Q 1341 3281 1617 3432 
Q 1894 3584 2278 3584 
Q 2916 3584 3314 3078 
Q 3713 2572 3713 1747 
Q 3713 922 3314 415 
Q 2916 -91 2278 -91 
Q 1894 -91 1617 61 
Q 1341 213 1159 525 
z
M 3116 1747 
Q 3116 2381 2855 2742 
Q 2594 3103 2138 3103 
Q 1681 3103 1420 2742 
Q 1159 2381 1159 1747 
Q 1159 1113 1420 752 
Q 1681 391 2138 391 
Q 2594 391 2855 752 
Q 3116 1113 3116 1747 
z
" transform="scale(0.015625)"/>
      <path id="DejaVuSans-63" d="M 3122 3366 
L 3122 2828 
Q 2878 2963 2633 3030 
Q 2388 3097 2138 3097 
Q 1578 3097 1268 2742 
Q 959 2388 959 1747 
Q 959 1106 1268 751 
Q 1578 397 2138 397 
Q 2388 397 2633 464 
Q 2878 531 3122 666 
L 3122 134 
Q 2881 22 2623 -34 
Q 2366 -91 2075 -91 
Q 1284 -91 818 406 
Q 353 903 353 1747 
Q 353 2603 823 3093 
Q 1294 3584 2113 3584 
Q 2378 3584 2631 3529 
Q 2884 3475 3122 3366 
z
" transform="scale(0.015625)"/>
      <path id="DejaVuSans-73" d="M 2834 3397 
L 2834 2853 
Q 2591 2978 2328 3040 
Q 2066 3103 1784 3103 
Q 1356 3103 1142 2972 
Q 928 2841 928 2578 
Q 928 2378 1081 2264 
Q 1234 2150 1697 2047 
L 1894 2003 
Q 2506 1872 2764 1633 
Q 3022 1394 3022 966 
Q 3022 478 2636 193 
Q 2250 -91 1575 -91 
Q 1294 -91 989 -36 
Q 684 19 347 128 
L 347 722 
Q 666 556 975 473 
Q 1284 391 1588 391 
Q 1994 391 2212 530 
Q 2431 669 2431 922 
Q 2431 1156 2273 1281 
Q 2116 1406 1581 1522 
L 1381 1569 
Q 847 1681 609 1914 
Q 372 2147 372 2553 
Q 372 3047 722 3315 
Q 1072 3584 1716 3584 
Q 2034 3584 2315 3537 
Q 2597 3491 2834 3397 
z
" transform="scale(0.015625)"/>
      <path id="DejaVuSans-6b" d="M 581 4863 
L 1159 4863 
L 1159 1991 
L 2875 3500 
L 3609 3500 
L 1753 1863 
L 3688 0 
L 2938 0 
L 1159 1709 
L 1159 0 
L 581 0 
L 581 4863 
z
" transform="scale(0.015625)"/>
      <path id="DejaVuSans-4d" d="M 628 4666 
L 1569 4666 
L 2759 1491 
L 3956 4666 
L 4897 4666 
L 4897 0 
L 4281 0 
L 4281 4097 
L 3078 897 
L 2444 897 
L 1241 4097 
L 1241 0 
L 628 0 
L 628 4666 
z
" transform="scale(0.015625)"/>
      <path id="DejaVuSans-38" d="M 2034 2216 
Q 1584 2216 1326 1975 
Q 1069 1734 1069 1313 
Q 1069 891 1326 650 
Q 1584 409 2034 409 
Q 2484 409 2743 651 
Q 3003 894 3003 1313 
Q 3003 1734 2745 1975 
Q 2488 2216 2034 2216 
z
M 1403 2484 
Q 997 2584 770 2862 
Q 544 3141 544 3541 
Q 544 4100 942 4425 
Q 1341 4750 2034 4750 
Q 2731 4750 3128 4425 
Q 3525 4100 3525 3541 
Q 3525 3141 3298 2862 
Q 3072 2584 2669 2484 
Q 3125 2378 3379 2068 
Q 3634 1759 3634 1313 
Q 3634 634 3220 271 
Q 2806 -91 2034 -91 
Q 1263 -91 848 271 
Q 434 634 434 1313 
Q 434 1759 690 2068 
Q 947 2378 1403 2484 
z
M 1172 3481 
Q 1172 3119 1398 2916 
Q 1625 2713 2034 2713 
Q 2441 2713 2670 2916 
Q 2900 3119 2900 3481 
Q 2900 3844 2670 4047 
Q 2441 4250 2034 4250 
Q 1625 4250 1398 4047 
Q 1172 3844 1172 3481 
z
" transform="scale(0.015625)"/>
     </defs>
     <use xlink:href="#DejaVuSans-50"/>
     <use xlink:href="#DejaVuSans-65" x="56.677734"/>
     <use xlink:href="#DejaVuSans-6c" x="118.201172"/>
     <use xlink:href="#DejaVuSans-6c" x="145.984375"/>
     <use xlink:href="#DejaVuSans-65" x="173.767578"/>
     <use xlink:href="#DejaVuSans-74" x="235.291016"/>
     <use xlink:href="#DejaVuSans-20" x="274.5"/>
     <use xlink:href="#DejaVuSans-43" x="306.287109"/>
     <use xlink:href="#DejaVuSans-6f" x="376.111328"/>
     <use xlink:href="#DejaVuSans-75" x="437.292969"/>
     <use xlink:href="#DejaVuSans-6e" x="500.671875"/>
     <use xlink:href="#DejaVuSans-74" x="564.050781"/>
     <use xlink:href="#DejaVuSans-20" x="603.259766"/>
     <use xlink:href="#DejaVuSans-61" x="635.046875"/>
     <use xlink:href="#DejaVuSans-6e" x="696.326172"/>
     <use xlink:href="#DejaVuSans-64" x="759.705078"/>
     <use xlink:href="#DejaVuSans-20" x="823.181641"/>
     <use xlink:href="#DejaVuSans-43" x="854.96875"/>
     <use xlink:href="#DejaVuSans-75" x="924.792969"/>
     <use xlink:href="#DejaVuSans-6d" x="988.171875"/>
     <use xlink:href="#DejaVuSans-75" x="1085.583984"/>
     <use xlink:href="#DejaVuSans-6c" x="1148.962891"/>
     <use xlink:href="#DejaVuSans-61" x="1176.746094"/>
     <use xlink:href="#DejaVuSans-74" x="1238.025391"/>
     <use xlink:href="#DejaVuSans-69" x="1277.234375"/>
     <use xlink:href="#DejaVuSans-76" x="1305.017578"/>
     <use xlink:href="#DejaVuSans-65" x="1364.197266"/>
     <use xlink:href="#DejaVuSans-20" x="1425.720703"/>
     <use xlink:href="#DejaVuSans-53" x="1457.507812"/>
     <use xlink:href="#DejaVuSans-75" x="1520.984375"/>
     <use xlink:href="#DejaVuSans-6d" x="1584.363281"/>
     <use xlink:href="#DejaVuSans-20" x="1681.775391"/>
     <use xlink:href="#DejaVuSans-4f" x="1713.5625"/>
     <use xlink:href="#DejaVuSans-76" x="1792.273438"/>
     <use xlink:href="#DejaVuSans-65" x="1851.453125"/>
     <use xlink:href="#DejaVuSans-72" x="1912.976562"/>
     <use xlink:href="#DejaVuSans-20" x="1954.089844"/>
     <use xlink:href="#DejaVuSans-54" x="1985.876953"/>
     <use xlink:href="#DejaVuSans-69" x="2043.835938"/>
     <use xlink:href="#DejaVuSans-6d" x="2071.619141"/>
     <use xlink:href="#DejaVuSans-65" x="2169.03125"/>
     <use xlink:href="#DejaVuSans-20" x="2230.554688"/>
     <use xlink:href="#DejaVuSans-6f" x="2262.341797"/>
     <use xlink:href="#DejaVuSans-66" x="2323.523438"/>
     <use xlink:href="#DejaVuSans-20" x="2358.728516"/>
     <use xlink:href="#DejaVuSans-47" x="2390.515625"/>
     <use xlink:href="#DejaVuSans-72" x="2468.005859"/>
     <use xlink:href="#DejaVuSans-6f" x="2506.869141"/>
     <use xlink:href="#DejaVuSans-75" x="2568.050781"/>
     <use xlink:href="#DejaVuSans-70" x="2631.429688"/>
     <use xlink:href="#DejaVuSans-20" x="2694.90625"/>
     <use xlink:href="#DejaVuSans-63" x="2726.693359"/>
     <use xlink:href="#DejaVuSans-61" x="2781.673828"/>
     <use xlink:href="#DejaVuSans-73" x="2842.953125"/>
     <use xlink:href="#DejaVuSans-6b" x="2895.052734"/>
     <use xlink:href="#DejaVuSans-20" x="2952.962891"/>
     <use xlink:href="#DejaVuSans-4d" x="2984.75"/>
     <use xlink:href="#DejaVuSans-6f" x="3071.029297"/>
     <use xlink:href="#DejaVuSans-75" x="3132.210938"/>
     <use xlink:href="#DejaVuSans-73" x="3195.589844"/>
     <use xlink:href="#DejaVuSans-65" x="3247.689453"/>
     <use xlink:href="#DejaVuSans-20" x="3309.212891"/>
     <use xlink:href="#DejaVuSans-4d" x="3341"/>
     <use xlink:href="#DejaVuSans-38" x="3427.279297"/>
    </g>
   </g>
   <g id="legend_1">
    <g id="patch_96">
     <path d="M 1086.550625 64.233437 
L 1158.235 64.233437 
Q 1160.235 64.233437 1160.235 62.233437 
L 1160.235 33.877187 
Q 1160.235 31.877187 1158.235 31.877187 
L 1086.550625 31.877187 
Q 1084.550625 31.877187 1084.550625 33.877187 
L 1084.550625 62.233437 
Q 1084.550625 64.233437 1086.550625 64.233437 
z
" style="fill: #ffffff; opacity: 0.8; stroke: #cccccc; stroke-linejoin: miter"/>
    </g>
    <g id="patch_97">
     <path d="M 1088.550625 43.475625 
L 1108.550625 43.475625 
L 1108.550625 36.475625 
L 1088.550625 36.475625 
z
" style="fill: #add8e6; opacity: 0.9; stroke: #add8e6; stroke-linejoin: miter"/>
    </g>
    <g id="text_18">
     <!-- Meal -->
     <g transform="translate(1116.550625 43.475625) scale(0.1 -0.1)">
      <use xlink:href="#DejaVuSans-4d"/>
      <use xlink:href="#DejaVuSans-65" x="86.279297"/>
      <use xlink:href="#DejaVuSans-61" x="147.802734"/>
      <use xlink:href="#DejaVuSans-6c" x="209.082031"/>
     </g>
    </g>
    <g id="patch_98">
     <path d="M 1088.550625 58.15375 
L 1108.550625 58.15375 
L 1108.550625 51.15375 
L 1088.550625 51.15375 
z
" style="fill: #808080; opacity: 0.5; stroke: #808080; stroke-linejoin: miter"/>
    </g>
    <g id="text_19">
     <!-- Inactive -->
     <g transform="translate(1116.550625 58.15375) scale(0.1 -0.1)">
      <defs>
       <path id="DejaVuSans-49" d="M 628 4666 
L 1259 4666 
L 1259 0 
L 628 0 
L 628 4666 
z
" transform="scale(0.015625)"/>
      </defs>
      <use xlink:href="#DejaVuSans-49"/>
      <use xlink:href="#DejaVuSans-6e" x="29.492188"/>
      <use xlink:href="#DejaVuSans-61" x="92.871094"/>
      <use xlink:href="#DejaVuSans-63" x="154.150391"/>
      <use xlink:href="#DejaVuSans-74" x="209.130859"/>
      <use xlink:href="#DejaVuSans-69" x="248.339844"/>
      <use xlink:href="#DejaVuSans-76" x="276.123047"/>
      <use xlink:href="#DejaVuSans-65" x="335.302734"/>
     </g>
    </g>
   </g>
  </g>
 </g>
 <defs>
  <clipPath id="p6d7f0466f9">
   <rect x="49.235" y="26.877187" width="1116" height="332.64"/>
  </clipPath>
 </defs>
</svg>
