<?xml version="1.0" encoding="utf-8" standalone="no"?>
<!DOCTYPE svg PUBLIC "-//W3C//DTD SVG 1.1//EN"
  "http://www.w3.org/Graphics/SVG/1.1/DTD/svg11.dtd">
<svg xmlns:xlink="http://www.w3.org/1999/xlink" width="1172.435pt" height="399.009062pt" viewBox="0 0 1172.435 399.009062" xmlns="http://www.w3.org/2000/svg" version="1.1">
 <metadata>
  <rdf:RDF xmlns:dc="http://purl.org/dc/elements/1.1/" xmlns:cc="http://creativecommons.org/ns#" xmlns:rdf="http://www.w3.org/1999/02/22-rdf-syntax-ns#">
   <cc:Work>
    <dc:type rdf:resource="http://purl.org/dc/dcmitype/StillImage"/>
    <dc:date>2025-10-01T20:35:54.187287</dc:date>
    <dc:format>image/svg+xml</dc:format>
    <dc:creator>
     <cc:Agent>
      <dc:title>Matplotlib v3.8.4, https://matplotlib.org/</dc:title>
     </cc:Agent>
    </dc:creator>
   </cc:Work>
  </rdf:RDF>
 </metadata>
 <defs>
  <style type="text/css">*{stroke-linejoin: round; stroke-linecap: butt}</style>
 </defs>
 <g id="figure_1">
  <g id="patch_1">
   <path d="M 0 399.009062 
L 1172.435 399.009062 
L 1172.435 0 
L 0 0 
z
" style="fill: #ffffff"/>
  </g>
  <g id="axes_1">
   <g id="patch_2">
    <path d="M 49.235 359.517187 
L 1165.235 359.517187 
L 1165.235 26.877187 
L 49.235 26.877187 
z
" style="fill: #ffffff"/>
   </g>
   <g id="patch_3">
    <path d="M 110.669156 359.517187 
L 110.669156 26.877187 
L 110.311906 26.877187 
L 110.311906 359.517187 
z
" clip-path="url(#pd8ccd8962f)" style="fill: #add8e6; stroke: #add8e6; stroke-linejoin: miter"/>
   </g>
   <g id="patch_4">
    <path d="M 113.797938 359.517187 
L 113.797938 26.877187 
L 113.784286 26.877187 
L 113.784286 359.517187 
z
" clip-path="url(#pd8ccd8962f)" style="fill: #add8e6; stroke: #add8e6; stroke-linejoin: miter"/>
   </g>
   <g id="patch_5">
    <path d="M 117.220258 359.517187 
L 117.220258 26.877187 
L 117.29459 26.877187 
L 117.29459 359.517187 
z
" clip-path="url(#pd8ccd8962f)" style="fill: #add8e6; stroke: #add8e6; stroke-linejoin: miter"/>
   </g>
   <g id="patch_6">
    <path d="M 118.885149 359.517187 
L 118.885149 26.877187 
L 119.004991 26.877187 
L 119.004991 359.517187 
z
" clip-path="url(#pd8ccd8962f)" style="fill: #add8e6; stroke: #add8e6; stroke-linejoin: miter"/>
   </g>
   <g id="patch_7">
    <path d="M 132.475063 359.517187 
L 132.475063 26.877187 
L 132.117813 26.877187 
L 132.117813 359.517187 
z
" clip-path="url(#pd8ccd8962f)" style="fill: #add8e6; stroke: #add8e6; stroke-linejoin: miter"/>
   </g>
   <g id="patch_8">
    <path d="M 135.984609 359.517187 
L 135.984609 26.877187 
L 132.764808 26.877187 
L 132.764808 359.517187 
z
" clip-path="url(#pd8ccd8962f)" style="fill: #add8e6; stroke: #add8e6; stroke-linejoin: miter"/>
   </g>
   <g id="patch_9">
    <path d="M 133.506613 359.517187 
L 133.506613 26.877187 
L 133.872965 26.877187 
L 133.872965 359.517187 
z
" clip-path="url(#pd8ccd8962f)" style="fill: #add8e6; stroke: #add8e6; stroke-linejoin: miter"/>
   </g>
   <g id="patch_10">
    <path d="M 144.781608 359.517187 
L 144.781608 26.877187 
L 139.225649 26.877187 
L 139.225649 359.517187 
z
" clip-path="url(#pd8ccd8962f)" style="fill: #add8e6; stroke: #add8e6; stroke-linejoin: miter"/>
   </g>
   <g id="patch_11">
    <path d="M 155.600748 359.517187 
L 155.600748 26.877187 
L 155.609091 26.877187 
L 155.609091 359.517187 
z
" clip-path="url(#pd8ccd8962f)" style="fill: #add8e6; stroke: #add8e6; stroke-linejoin: miter"/>
   </g>
   <g id="patch_12">
    <path d="M 155.862428 359.517187 
L 155.862428 26.877187 
L 155.851051 26.877187 
L 155.851051 359.517187 
z
" clip-path="url(#pd8ccd8962f)" style="fill: #add8e6; stroke: #add8e6; stroke-linejoin: miter"/>
   </g>
   <g id="patch_13">
    <path d="M 158.373039 359.517187 
L 158.373039 26.877187 
L 158.49819 26.877187 
L 158.49819 359.517187 
z
" clip-path="url(#pd8ccd8962f)" style="fill: #add8e6; stroke: #add8e6; stroke-linejoin: miter"/>
   </g>
   <g id="patch_14">
    <path d="M 161.131677 359.517187 
L 161.131677 26.877187 
L 161.219662 26.877187 
L 161.219662 359.517187 
z
" clip-path="url(#pd8ccd8962f)" style="fill: #add8e6; stroke: #add8e6; stroke-linejoin: miter"/>
   </g>
   <g id="patch_15">
    <path d="M 169.013175 359.517187 
L 169.013175 26.877187 
L 169.273338 26.877187 
L 169.273338 359.517187 
z
" clip-path="url(#pd8ccd8962f)" style="fill: #add8e6; stroke: #add8e6; stroke-linejoin: miter"/>
   </g>
   <g id="patch_16">
    <path d="M 177.393002 359.517187 
L 177.393002 26.877187 
L 177.813207 26.877187 
L 177.813207 359.517187 
z
" clip-path="url(#pd8ccd8962f)" style="fill: #add8e6; stroke: #add8e6; stroke-linejoin: miter"/>
   </g>
   <g id="patch_17">
    <path d="M 196.554804 359.517187 
L 196.554804 26.877187 
L 197.992148 26.877187 
L 197.992148 359.517187 
z
" clip-path="url(#pd8ccd8962f)" style="fill: #add8e6; stroke: #add8e6; stroke-linejoin: miter"/>
   </g>
   <g id="patch_18">
    <path d="M 204.73894 359.517187 
L 204.73894 26.877187 
L 204.969522 26.877187 
L 204.969522 359.517187 
z
" clip-path="url(#pd8ccd8962f)" style="fill: #add8e6; stroke: #add8e6; stroke-linejoin: miter"/>
   </g>
   <g id="patch_19">
    <path d="M 208.554917 359.517187 
L 208.554917 26.877187 
L 208.686895 26.877187 
L 208.686895 359.517187 
z
" clip-path="url(#pd8ccd8962f)" style="fill: #add8e6; stroke: #add8e6; stroke-linejoin: miter"/>
   </g>
   <g id="patch_20">
    <path d="M 210.934309 359.517187 
L 210.934309 26.877187 
L 210.981336 26.877187 
L 210.981336 359.517187 
z
" clip-path="url(#pd8ccd8962f)" style="fill: #add8e6; stroke: #add8e6; stroke-linejoin: miter"/>
   </g>
   <g id="patch_21">
    <path d="M 244.357291 359.517187 
L 244.357291 26.877187 
L 244.521884 26.877187 
L 244.521884 359.517187 
z
" clip-path="url(#pd8ccd8962f)" style="fill: #add8e6; stroke: #add8e6; stroke-linejoin: miter"/>
   </g>
   <g id="patch_22">
    <path d="M 247.827395 359.517187 
L 247.827395 26.877187 
L 244.857896 26.877187 
L 244.857896 359.517187 
z
" clip-path="url(#pd8ccd8962f)" style="fill: #add8e6; stroke: #add8e6; stroke-linejoin: miter"/>
   </g>
   <g id="patch_23">
    <path d="M 249.473324 359.517187 
L 249.473324 26.877187 
L 245.174188 26.877187 
L 245.174188 359.517187 
z
" clip-path="url(#pd8ccd8962f)" style="fill: #add8e6; stroke: #add8e6; stroke-linejoin: miter"/>
   </g>
   <g id="patch_24">
    <path d="M 297.334974 359.517187 
L 297.334974 26.877187 
L 298.000172 26.877187 
L 298.000172 359.517187 
z
" clip-path="url(#pd8ccd8962f)" style="fill: #add8e6; stroke: #add8e6; stroke-linejoin: miter"/>
   </g>
   <g id="patch_25">
    <path d="M 315.553969 359.517187 
L 315.553969 26.877187 
L 315.535006 26.877187 
L 315.535006 359.517187 
z
" clip-path="url(#pd8ccd8962f)" style="fill: #add8e6; stroke: #add8e6; stroke-linejoin: miter"/>
   </g>
   <g id="patch_26">
    <path d="M 315.849022 359.517187 
L 315.849022 26.877187 
L 316.276812 26.877187 
L 316.276812 359.517187 
z
" clip-path="url(#pd8ccd8962f)" style="fill: #add8e6; stroke: #add8e6; stroke-linejoin: miter"/>
   </g>
   <g id="patch_27">
    <path d="M 333.847296 359.517187 
L 333.847296 26.877187 
L 334.492774 26.877187 
L 334.492774 359.517187 
z
" clip-path="url(#pd8ccd8962f)" style="fill: #add8e6; stroke: #add8e6; stroke-linejoin: miter"/>
   </g>
   <g id="patch_28">
    <path d="M 351.542173 359.517187 
L 351.542173 26.877187 
L 352.093597 26.877187 
L 352.093597 359.517187 
z
" clip-path="url(#pd8ccd8962f)" style="fill: #add8e6; stroke: #add8e6; stroke-linejoin: miter"/>
   </g>
   <g id="patch_29">
    <path d="M 355.678234 359.517187 
L 355.678234 26.877187 
L 352.514561 26.877187 
L 352.514561 359.517187 
z
" clip-path="url(#pd8ccd8962f)" style="fill: #add8e6; stroke: #add8e6; stroke-linejoin: miter"/>
   </g>
   <g id="patch_30">
    <path d="M 380.626576 359.517187 
L 380.626576 26.877187 
L 373.945773 26.877187 
L 373.945773 359.517187 
z
" clip-path="url(#pd8ccd8962f)" style="fill: #add8e6; stroke: #add8e6; stroke-linejoin: miter"/>
   </g>
   <g id="patch_31">
    <path d="M 394.736058 359.517187 
L 394.736058 26.877187 
L 387.833016 26.877187 
L 387.833016 359.517187 
z
" clip-path="url(#pd8ccd8962f)" style="fill: #add8e6; stroke: #add8e6; stroke-linejoin: miter"/>
   </g>
   <g id="patch_32">
    <path d="M 417.35962 359.517187 
L 417.35962 26.877187 
L 415.318517 26.877187 
L 415.318517 359.517187 
z
" clip-path="url(#pd8ccd8962f)" style="fill: #add8e6; stroke: #add8e6; stroke-linejoin: miter"/>
   </g>
   <g id="patch_33">
    <path d="M 416.374338 359.517187 
L 416.374338 26.877187 
L 416.299248 26.877187 
L 416.299248 359.517187 
z
" clip-path="url(#pd8ccd8962f)" style="fill: #add8e6; stroke: #add8e6; stroke-linejoin: miter"/>
   </g>
   <g id="patch_34">
    <path d="M 424.6366 359.517187 
L 424.6366 26.877187 
L 424.876283 26.877187 
L 424.876283 359.517187 
z
" clip-path="url(#pd8ccd8962f)" style="fill: #add8e6; stroke: #add8e6; stroke-linejoin: miter"/>
   </g>
   <g id="patch_35">
    <path d="M 429.692712 359.517187 
L 429.692712 26.877187 
L 425.630984 26.877187 
L 425.630984 359.517187 
z
" clip-path="url(#pd8ccd8962f)" style="fill: #add8e6; stroke: #add8e6; stroke-linejoin: miter"/>
   </g>
   <g id="patch_36">
    <path d="M 430.026449 359.517187 
L 430.026449 26.877187 
L 430.30785 26.877187 
L 430.30785 359.517187 
z
" clip-path="url(#pd8ccd8962f)" style="fill: #add8e6; stroke: #add8e6; stroke-linejoin: miter"/>
   </g>
   <g id="patch_37">
    <path d="M 439.854239 359.517187 
L 439.854239 26.877187 
L 440.822834 26.877187 
L 440.822834 359.517187 
z
" clip-path="url(#pd8ccd8962f)" style="fill: #add8e6; stroke: #add8e6; stroke-linejoin: miter"/>
   </g>
   <g id="patch_38">
    <path d="M 466.968079 359.517187 
L 466.968079 26.877187 
L 467.297264 26.877187 
L 467.297264 359.517187 
z
" clip-path="url(#pd8ccd8962f)" style="fill: #add8e6; stroke: #add8e6; stroke-linejoin: miter"/>
   </g>
   <g id="patch_39">
    <path d="M 470.143129 359.517187 
L 470.143129 26.877187 
L 468.161188 26.877187 
L 468.161188 359.517187 
z
" clip-path="url(#pd8ccd8962f)" style="fill: #add8e6; stroke: #add8e6; stroke-linejoin: miter"/>
   </g>
   <g id="patch_40">
    <path d="M 477.7766 359.517187 
L 477.7766 26.877187 
L 478.35533 26.877187 
L 478.35533 359.517187 
z
" clip-path="url(#pd8ccd8962f)" style="fill: #add8e6; stroke: #add8e6; stroke-linejoin: miter"/>
   </g>
   <g id="patch_41">
    <path d="M 509.186542 359.517187 
L 509.186542 26.877187 
L 510.011782 26.877187 
L 510.011782 359.517187 
z
" clip-path="url(#pd8ccd8962f)" style="fill: #add8e6; stroke: #add8e6; stroke-linejoin: miter"/>
   </g>
   <g id="patch_42">
    <path d="M 524.035554 359.517187 
L 524.035554 26.877187 
L 524.140984 26.877187 
L 524.140984 359.517187 
z
" clip-path="url(#pd8ccd8962f)" style="fill: #add8e6; stroke: #add8e6; stroke-linejoin: miter"/>
   </g>
   <g id="patch_43">
    <path d="M 529.450434 359.517187 
L 529.450434 26.877187 
L 529.886567 26.877187 
L 529.886567 359.517187 
z
" clip-path="url(#pd8ccd8962f)" style="fill: #add8e6; stroke: #add8e6; stroke-linejoin: miter"/>
   </g>
   <g id="patch_44">
    <path d="M 567.190756 359.517187 
L 567.190756 26.877187 
L 567.855196 26.877187 
L 567.855196 359.517187 
z
" clip-path="url(#pd8ccd8962f)" style="fill: #add8e6; stroke: #add8e6; stroke-linejoin: miter"/>
   </g>
   <g id="patch_45">
    <path d="M 604.036057 359.517187 
L 604.036057 26.877187 
L 605.014513 26.877187 
L 605.014513 359.517187 
z
" clip-path="url(#pd8ccd8962f)" style="fill: #add8e6; stroke: #add8e6; stroke-linejoin: miter"/>
   </g>
   <g id="patch_46">
    <path d="M 638.138648 359.517187 
L 638.138648 26.877187 
L 639.016983 26.877187 
L 639.016983 359.517187 
z
" clip-path="url(#pd8ccd8962f)" style="fill: #add8e6; stroke: #add8e6; stroke-linejoin: miter"/>
   </g>
   <g id="patch_47">
    <path d="M 665.556643 359.517187 
L 665.556643 26.877187 
L 665.802395 26.877187 
L 665.802395 359.517187 
z
" clip-path="url(#pd8ccd8962f)" style="fill: #add8e6; stroke: #add8e6; stroke-linejoin: miter"/>
   </g>
   <g id="patch_48">
    <path d="M 686.481182 359.517187 
L 686.481182 26.877187 
L 687.131969 26.877187 
L 687.131969 359.517187 
z
" clip-path="url(#pd8ccd8962f)" style="fill: #add8e6; stroke: #add8e6; stroke-linejoin: miter"/>
   </g>
   <g id="patch_49">
    <path d="M 716.103357 359.517187 
L 716.103357 26.877187 
L 716.259606 26.877187 
L 716.259606 359.517187 
z
" clip-path="url(#pd8ccd8962f)" style="fill: #add8e6; stroke: #add8e6; stroke-linejoin: miter"/>
   </g>
   <g id="patch_50">
    <path d="M 716.494739 359.517187 
L 716.494739 26.877187 
L 716.877019 26.877187 
L 716.877019 359.517187 
z
" clip-path="url(#pd8ccd8962f)" style="fill: #add8e6; stroke: #add8e6; stroke-linejoin: miter"/>
   </g>
   <g id="patch_51">
    <path d="M 725.736973 359.517187 
L 725.736973 26.877187 
L 726.365763 26.877187 
L 726.365763 359.517187 
z
" clip-path="url(#pd8ccd8962f)" style="fill: #add8e6; stroke: #add8e6; stroke-linejoin: miter"/>
   </g>
   <g id="patch_52">
    <path d="M 735.35011 359.517187 
L 735.35011 26.877187 
L 735.970557 26.877187 
L 735.970557 359.517187 
z
" clip-path="url(#pd8ccd8962f)" style="fill: #add8e6; stroke: #add8e6; stroke-linejoin: miter"/>
   </g>
   <g id="patch_53">
    <path d="M 759.639322 359.517187 
L 759.639322 26.877187 
L 760.24915 26.877187 
L 760.24915 359.517187 
z
" clip-path="url(#pd8ccd8962f)" style="fill: #add8e6; stroke: #add8e6; stroke-linejoin: miter"/>
   </g>
   <g id="patch_54">
    <path d="M 772.262916 359.517187 
L 772.262916 26.877187 
L 772.870469 26.877187 
L 772.870469 359.517187 
z
" clip-path="url(#pd8ccd8962f)" style="fill: #add8e6; stroke: #add8e6; stroke-linejoin: miter"/>
   </g>
   <g id="patch_55">
    <path d="M 782.906086 359.517187 
L 782.906086 26.877187 
L 782.945528 26.877187 
L 782.945528 359.517187 
z
" clip-path="url(#pd8ccd8962f)" style="fill: #add8e6; stroke: #add8e6; stroke-linejoin: miter"/>
   </g>
   <g id="patch_56">
    <path d="M 784.219796 359.517187 
L 784.219796 26.877187 
L 784.354807 26.877187 
L 784.354807 359.517187 
z
" clip-path="url(#pd8ccd8962f)" style="fill: #add8e6; stroke: #add8e6; stroke-linejoin: miter"/>
   </g>
   <g id="patch_57">
    <path d="M 789.241018 359.517187 
L 789.241018 26.877187 
L 787.339476 26.877187 
L 787.339476 359.517187 
z
" clip-path="url(#pd8ccd8962f)" style="fill: #add8e6; stroke: #add8e6; stroke-linejoin: miter"/>
   </g>
   <g id="patch_58">
    <path d="M 798.67515 359.517187 
L 798.67515 26.877187 
L 791.301084 26.877187 
L 791.301084 359.517187 
z
" clip-path="url(#pd8ccd8962f)" style="fill: #add8e6; stroke: #add8e6; stroke-linejoin: miter"/>
   </g>
   <g id="patch_59">
    <path d="M 811.833482 359.517187 
L 811.833482 26.877187 
L 812.052686 26.877187 
L 812.052686 359.517187 
z
" clip-path="url(#pd8ccd8962f)" style="fill: #add8e6; stroke: #add8e6; stroke-linejoin: miter"/>
   </g>
   <g id="patch_60">
    <path d="M 812.887787 359.517187 
L 812.887787 26.877187 
L 813.002319 26.877187 
L 813.002319 359.517187 
z
" clip-path="url(#pd8ccd8962f)" style="fill: #add8e6; stroke: #add8e6; stroke-linejoin: miter"/>
   </g>
   <g id="patch_61">
    <path d="M 828.165347 359.517187 
L 828.165347 26.877187 
L 828.655333 26.877187 
L 828.655333 359.517187 
z
" clip-path="url(#pd8ccd8962f)" style="fill: #add8e6; stroke: #add8e6; stroke-linejoin: miter"/>
   </g>
   <g id="patch_62">
    <path d="M 833.775918 359.517187 
L 833.775918 26.877187 
L 829.119531 26.877187 
L 829.119531 359.517187 
z
" clip-path="url(#pd8ccd8962f)" style="fill: #add8e6; stroke: #add8e6; stroke-linejoin: miter"/>
   </g>
   <g id="patch_63">
    <path d="M 831.104506 359.517187 
L 831.104506 26.877187 
L 831.445828 26.877187 
L 831.445828 359.517187 
z
" clip-path="url(#pd8ccd8962f)" style="fill: #add8e6; stroke: #add8e6; stroke-linejoin: miter"/>
   </g>
   <g id="patch_64">
    <path d="M 841.367671 359.517187 
L 841.367671 26.877187 
L 841.348709 26.877187 
L 841.348709 359.517187 
z
" clip-path="url(#pd8ccd8962f)" style="fill: #add8e6; stroke: #add8e6; stroke-linejoin: miter"/>
   </g>
   <g id="patch_65">
    <path d="M 842.857351 359.517187 
L 842.857351 26.877187 
L 843.383745 26.877187 
L 843.383745 359.517187 
z
" clip-path="url(#pd8ccd8962f)" style="fill: #add8e6; stroke: #add8e6; stroke-linejoin: miter"/>
   </g>
   <g id="patch_66">
    <path d="M 845.923179 359.517187 
L 845.923179 26.877187 
L 846.296357 26.877187 
L 846.296357 359.517187 
z
" clip-path="url(#pd8ccd8962f)" style="fill: #add8e6; stroke: #add8e6; stroke-linejoin: miter"/>
   </g>
   <g id="patch_67">
    <path d="M 860.097132 359.517187 
L 860.097132 26.877187 
L 860.398254 26.877187 
L 860.398254 359.517187 
z
" clip-path="url(#pd8ccd8962f)" style="fill: #add8e6; stroke: #add8e6; stroke-linejoin: miter"/>
   </g>
   <g id="patch_68">
    <path d="M 945.094585 359.517187 
L 945.094585 26.877187 
L 938.380408 26.877187 
L 938.380408 359.517187 
z
" clip-path="url(#pd8ccd8962f)" style="fill: #add8e6; stroke: #add8e6; stroke-linejoin: miter"/>
   </g>
   <g id="patch_69">
    <path d="M 961.356669 359.517187 
L 961.356669 26.877187 
L 961.671444 26.877187 
L 961.671444 359.517187 
z
" clip-path="url(#pd8ccd8962f)" style="fill: #add8e6; stroke: #add8e6; stroke-linejoin: miter"/>
   </g>
   <g id="patch_70">
    <path d="M 989.449723 359.517187 
L 989.449723 26.877187 
L 986.054709 26.877187 
L 986.054709 359.517187 
z
" clip-path="url(#pd8ccd8962f)" style="fill: #add8e6; stroke: #add8e6; stroke-linejoin: miter"/>
   </g>
   <g id="patch_71">
    <path d="M 1006.446786 359.517187 
L 1006.446786 26.877187 
L 1007.042203 26.877187 
L 1007.042203 359.517187 
z
" clip-path="url(#pd8ccd8962f)" style="fill: #add8e6; stroke: #add8e6; stroke-linejoin: miter"/>
   </g>
   <g id="patch_72">
    <path d="M 1032.580653 359.517187 
L 1032.580653 26.877187 
L 1033.116149 26.877187 
L 1033.116149 359.517187 
z
" clip-path="url(#pd8ccd8962f)" style="fill: #add8e6; stroke: #add8e6; stroke-linejoin: miter"/>
   </g>
   <g id="patch_73">
    <path d="M 1067.265008 359.517187 
L 1067.265008 26.877187 
L 1060.358173 26.877187 
L 1060.358173 359.517187 
z
" clip-path="url(#pd8ccd8962f)" style="fill: #add8e6; stroke: #add8e6; stroke-linejoin: miter"/>
   </g>
   <g id="patch_74">
    <path d="M 1075.051694 359.517187 
L 1075.051694 26.877187 
L 1075.459005 26.877187 
L 1075.459005 359.517187 
z
" clip-path="url(#pd8ccd8962f)" style="fill: #add8e6; stroke: #add8e6; stroke-linejoin: miter"/>
   </g>
   <g id="patch_75">
    <path d="M 1077.063217 359.517187 
L 1077.063217 26.877187 
L 1076.825809 26.877187 
L 1076.825809 359.517187 
z
" clip-path="url(#pd8ccd8962f)" style="fill: #add8e6; stroke: #add8e6; stroke-linejoin: miter"/>
   </g>
   <g id="patch_76">
    <path d="M 1081.573973 359.517187 
L 1081.573973 26.877187 
L 1082.126914 26.877187 
L 1082.126914 359.517187 
z
" clip-path="url(#pd8ccd8962f)" style="fill: #add8e6; stroke: #add8e6; stroke-linejoin: miter"/>
   </g>
   <g id="patch_77">
    <path d="M 1085.43546 359.517187 
L 1085.43546 26.877187 
L 1085.660732 26.877187 
L 1085.660732 359.517187 
z
" clip-path="url(#pd8ccd8962f)" style="fill: #add8e6; stroke: #add8e6; stroke-linejoin: miter"/>
   </g>
   <g id="patch_78">
    <path d="M 1089.383414 359.517187 
L 1089.383414 26.877187 
L 1089.701981 26.877187 
L 1089.701981 359.517187 
z
" clip-path="url(#pd8ccd8962f)" style="fill: #add8e6; stroke: #add8e6; stroke-linejoin: miter"/>
   </g>
   <g id="patch_79">
    <path d="M 1114.507727 359.517187 
L 1114.507727 26.877187 
L 1107.446919 26.877187 
L 1107.446919 359.517187 
z
" clip-path="url(#pd8ccd8962f)" style="fill: #add8e6; stroke: #add8e6; stroke-linejoin: miter"/>
   </g>
   <g id="patch_80">
    <path d="M 222.838094 359.517187 
L 222.838094 26.877187 
L 386.672522 26.877187 
L 386.672522 359.517187 
z
" clip-path="url(#pd8ccd8962f)" style="fill: #808080; opacity: 0.4; stroke: #808080; stroke-linejoin: miter"/>
   </g>
   <g id="patch_81">
    <path d="M 550.50695 359.517187 
L 550.50695 26.877187 
L 714.341378 26.877187 
L 714.341378 359.517187 
z
" clip-path="url(#pd8ccd8962f)" style="fill: #808080; opacity: 0.4; stroke: #808080; stroke-linejoin: miter"/>
   </g>
   <g id="patch_82">
    <path d="M 878.175806 359.517187 
L 878.175806 26.877187 
L 1042.010234 26.877187 
L 1042.010234 359.517187 
z
" clip-path="url(#pd8ccd8962f)" style="fill: #808080; opacity: 0.4; stroke: #808080; stroke-linejoin: miter"/>
   </g>
   <g id="matplotlib.axis_1">
    <g id="xtick_1">
     <g id="line2d_1">
      <defs>
       <path id="m8c845cef55" d="M 0 0 
L 0 3.5 
" style="stroke: #000000; stroke-width: 0.8"/>
      </defs>
      <g>
       <use xlink:href="#m8c845cef55" x="125.5121" y="359.517187" style="stroke: #000000; stroke-width: 0.8"/>
      </g>
     </g>
     <g id="text_1">
      <!-- 09-02 12 -->
      <g transform="translate(103.031631 374.115625) scale(0.1 -0.1)">
       <defs>
        <path id="DejaVuSans-30" d="M 2034 4250 
Q 1547 4250 1301 3770 
Q 1056 3291 1056 2328 
Q 1056 1369 1301 889 
Q 1547 409 2034 409 
Q 2525 409 2770 889 
Q 3016 1369 3016 2328 
Q 3016 3291 2770 3770 
Q 2525 4250 2034 4250 
z
M 2034 4750 
Q 2819 4750 3233 4129 
Q 3647 3509 3647 2328 
Q 3647 1150 3233 529 
Q 2819 -91 2034 -91 
Q 1250 -91 836 529 
Q 422 1150 422 2328 
Q 422 3509 836 4129 
Q 1250 4750 2034 4750 
z
" transform="scale(0.015625)"/>
        <path id="DejaVuSans-39" d="M 703 97 
L 703 672 
Q 941 559 1184 500 
Q 1428 441 1663 441 
Q 2288 441 2617 861 
Q 2947 1281 2994 2138 
Q 2813 1869 2534 1725 
Q 2256 1581 1919 1581 
Q 1219 1581 811 2004 
Q 403 2428 403 3163 
Q 403 3881 828 4315 
Q 1253 4750 1959 4750 
Q 2769 4750 3195 4129 
Q 3622 3509 3622 2328 
Q 3622 1225 3098 567 
Q 2575 -91 1691 -91 
Q 1453 -91 1209 -44 
Q 966 3 703 97 
z
M 1959 2075 
Q 2384 2075 2632 2365 
Q 2881 2656 2881 3163 
Q 2881 3666 2632 3958 
Q 2384 4250 1959 4250 
Q 1534 4250 1286 3958 
Q 1038 3666 1038 3163 
Q 1038 2656 1286 2365 
Q 1534 2075 1959 2075 
z
" transform="scale(0.015625)"/>
        <path id="DejaVuSans-2d" d="M 313 2009 
L 1997 2009 
L 1997 1497 
L 313 1497 
L 313 2009 
z
" transform="scale(0.015625)"/>
        <path id="DejaVuSans-32" d="M 1228 531 
L 3431 531 
L 3431 0 
L 469 0 
L 469 531 
Q 828 903 1448 1529 
Q 2069 2156 2228 2338 
Q 2531 2678 2651 2914 
Q 2772 3150 2772 3378 
Q 2772 3750 2511 3984 
Q 2250 4219 1831 4219 
Q 1534 4219 1204 4116 
Q 875 4013 500 3803 
L 500 4441 
Q 881 4594 1212 4672 
Q 1544 4750 1819 4750 
Q 2544 4750 2975 4387 
Q 3406 4025 3406 3419 
Q 3406 3131 3298 2873 
Q 3191 2616 2906 2266 
Q 2828 2175 2409 1742 
Q 1991 1309 1228 531 
z
" transform="scale(0.015625)"/>
        <path id="DejaVuSans-20" transform="scale(0.015625)"/>
        <path id="DejaVuSans-31" d="M 794 531 
L 1825 531 
L 1825 4091 
L 703 3866 
L 703 4441 
L 1819 4666 
L 2450 4666 
L 2450 531 
L 3481 531 
L 3481 0 
L 794 0 
L 794 531 
z
" transform="scale(0.015625)"/>
       </defs>
       <use xlink:href="#DejaVuSans-30"/>
       <use xlink:href="#DejaVuSans-39" x="63.623047"/>
       <use xlink:href="#DejaVuSans-2d" x="127.246094"/>
       <use xlink:href="#DejaVuSans-30" x="163.330078"/>
       <use xlink:href="#DejaVuSans-32" x="226.953125"/>
       <use xlink:href="#DejaVuSans-20" x="290.576172"/>
       <use xlink:href="#DejaVuSans-31" x="322.363281"/>
       <use xlink:href="#DejaVuSans-32" x="385.986328"/>
      </g>
     </g>
    </g>
    <g id="xtick_2">
     <g id="line2d_2">
      <g>
       <use xlink:href="#m8c845cef55" x="289.346528" y="359.517187" style="stroke: #000000; stroke-width: 0.8"/>
      </g>
     </g>
     <g id="text_2">
      <!-- 09-03 00 -->
      <g transform="translate(266.866059 374.115625) scale(0.1 -0.1)">
       <defs>
        <path id="DejaVuSans-33" d="M 2597 2516 
Q 3050 2419 3304 2112 
Q 3559 1806 3559 1356 
Q 3559 666 3084 287 
Q 2609 -91 1734 -91 
Q 1441 -91 1130 -33 
Q 819 25 488 141 
L 488 750 
Q 750 597 1062 519 
Q 1375 441 1716 441 
Q 2309 441 2620 675 
Q 2931 909 2931 1356 
Q 2931 1769 2642 2001 
Q 2353 2234 1838 2234 
L 1294 2234 
L 1294 2753 
L 1863 2753 
Q 2328 2753 2575 2939 
Q 2822 3125 2822 3475 
Q 2822 3834 2567 4026 
Q 2313 4219 1838 4219 
Q 1578 4219 1281 4162 
Q 984 4106 628 3988 
L 628 4550 
Q 988 4650 1302 4700 
Q 1616 4750 1894 4750 
Q 2613 4750 3031 4423 
Q 3450 4097 3450 3541 
Q 3450 3153 3228 2886 
Q 3006 2619 2597 2516 
z
" transform="scale(0.015625)"/>
       </defs>
       <use xlink:href="#DejaVuSans-30"/>
       <use xlink:href="#DejaVuSans-39" x="63.623047"/>
       <use xlink:href="#DejaVuSans-2d" x="127.246094"/>
       <use xlink:href="#DejaVuSans-30" x="163.330078"/>
       <use xlink:href="#DejaVuSans-33" x="226.953125"/>
       <use xlink:href="#DejaVuSans-20" x="290.576172"/>
       <use xlink:href="#DejaVuSans-30" x="322.363281"/>
       <use xlink:href="#DejaVuSans-30" x="385.986328"/>
      </g>
     </g>
    </g>
    <g id="xtick_3">
     <g id="line2d_3">
      <g>
       <use xlink:href="#m8c845cef55" x="453.180956" y="359.517187" style="stroke: #000000; stroke-width: 0.8"/>
      </g>
     </g>
     <g id="text_3">
      <!-- 09-03 12 -->
      <g transform="translate(430.700488 374.115625) scale(0.1 -0.1)">
       <use xlink:href="#DejaVuSans-30"/>
       <use xlink:href="#DejaVuSans-39" x="63.623047"/>
       <use xlink:href="#DejaVuSans-2d" x="127.246094"/>
       <use xlink:href="#DejaVuSans-30" x="163.330078"/>
       <use xlink:href="#DejaVuSans-33" x="226.953125"/>
       <use xlink:href="#DejaVuSans-20" x="290.576172"/>
       <use xlink:href="#DejaVuSans-31" x="322.363281"/>
       <use xlink:href="#DejaVuSans-32" x="385.986328"/>
      </g>
     </g>
    </g>
    <g id="xtick_4">
     <g id="line2d_4">
      <g>
       <use xlink:href="#m8c845cef55" x="617.015384" y="359.517187" style="stroke: #000000; stroke-width: 0.8"/>
      </g>
     </g>
     <g id="text_4">
      <!-- 09-04 00 -->
      <g transform="translate(594.534916 374.115625) scale(0.1 -0.1)">
       <defs>
        <path id="DejaVuSans-34" d="M 2419 4116 
L 825 1625 
L 2419 1625 
L 2419 4116 
z
M 2253 4666 
L 3047 4666 
L 3047 1625 
L 3713 1625 
L 3713 1100 
L 3047 1100 
L 3047 0 
L 2419 0 
L 2419 1100 
L 313 1100 
L 313 1709 
L 2253 4666 
z
" transform="scale(0.015625)"/>
       </defs>
       <use xlink:href="#DejaVuSans-30"/>
       <use xlink:href="#DejaVuSans-39" x="63.623047"/>
       <use xlink:href="#DejaVuSans-2d" x="127.246094"/>
       <use xlink:href="#DejaVuSans-30" x="163.330078"/>
       <use xlink:href="#DejaVuSans-34" x="226.953125"/>
       <use xlink:href="#DejaVuSans-20" x="290.576172"/>
       <use xlink:href="#DejaVuSans-30" x="322.363281"/>
       <use xlink:href="#DejaVuSans-30" x="385.986328"/>
      </g>
     </g>
    </g>
    <g id="xtick_5">
     <g id="line2d_5">
      <g>
       <use xlink:href="#m8c845cef55" x="780.849813" y="359.517187" style="stroke: #000000; stroke-width: 0.8"/>
      </g>
     </g>
     <g id="text_5">
      <!-- 09-04 12 -->
      <g transform="translate(758.369344 374.115625) scale(0.1 -0.1)">
       <use xlink:href="#DejaVuSans-30"/>
       <use xlink:href="#DejaVuSans-39" x="63.623047"/>
       <use xlink:href="#DejaVuSans-2d" x="127.246094"/>
       <use xlink:href="#DejaVuSans-30" x="163.330078"/>
       <use xlink:href="#DejaVuSans-34" x="226.953125"/>
       <use xlink:href="#DejaVuSans-20" x="290.576172"/>
       <use xlink:href="#DejaVuSans-31" x="322.363281"/>
       <use xlink:href="#DejaVuSans-32" x="385.986328"/>
      </g>
     </g>
    </g>
    <g id="xtick_6">
     <g id="line2d_6">
      <g>
       <use xlink:href="#m8c845cef55" x="944.684241" y="359.517187" style="stroke: #000000; stroke-width: 0.8"/>
      </g>
     </g>
     <g id="text_6">
      <!-- 09-05 00 -->
      <g transform="translate(922.203772 374.115625) scale(0.1 -0.1)">
       <defs>
        <path id="DejaVuSans-35" d="M 691 4666 
L 3169 4666 
L 3169 4134 
L 1269 4134 
L 1269 2991 
Q 1406 3038 1543 3061 
Q 1681 3084 1819 3084 
Q 2600 3084 3056 2656 
Q 3513 2228 3513 1497 
Q 3513 744 3044 326 
Q 2575 -91 1722 -91 
Q 1428 -91 1123 -41 
Q 819 9 494 109 
L 494 744 
Q 775 591 1075 516 
Q 1375 441 1709 441 
Q 2250 441 2565 725 
Q 2881 1009 2881 1497 
Q 2881 1984 2565 2268 
Q 2250 2553 1709 2553 
Q 1456 2553 1204 2497 
Q 953 2441 691 2322 
L 691 4666 
z
" transform="scale(0.015625)"/>
       </defs>
       <use xlink:href="#DejaVuSans-30"/>
       <use xlink:href="#DejaVuSans-39" x="63.623047"/>
       <use xlink:href="#DejaVuSans-2d" x="127.246094"/>
       <use xlink:href="#DejaVuSans-30" x="163.330078"/>
       <use xlink:href="#DejaVuSans-35" x="226.953125"/>
       <use xlink:href="#DejaVuSans-20" x="290.576172"/>
       <use xlink:href="#DejaVuSans-30" x="322.363281"/>
       <use xlink:href="#DejaVuSans-30" x="385.986328"/>
      </g>
     </g>
    </g>
    <g id="xtick_7">
     <g id="line2d_7">
      <g>
       <use xlink:href="#m8c845cef55" x="1108.518669" y="359.517187" style="stroke: #000000; stroke-width: 0.8"/>
      </g>
     </g>
     <g id="text_7">
      <!-- 09-05 12 -->
      <g transform="translate(1086.0382 374.115625) scale(0.1 -0.1)">
       <use xlink:href="#DejaVuSans-30"/>
       <use xlink:href="#DejaVuSans-39" x="63.623047"/>
       <use xlink:href="#DejaVuSans-2d" x="127.246094"/>
       <use xlink:href="#DejaVuSans-30" x="163.330078"/>
       <use xlink:href="#DejaVuSans-35" x="226.953125"/>
       <use xlink:href="#DejaVuSans-20" x="290.576172"/>
       <use xlink:href="#DejaVuSans-31" x="322.363281"/>
       <use xlink:href="#DejaVuSans-32" x="385.986328"/>
      </g>
     </g>
    </g>
    <g id="text_8">
     <!-- Time -->
     <g transform="translate(592.554688 389.313437) scale(0.12 -0.12)">
      <defs>
       <path id="DejaVuSans-54" d="M -19 4666 
L 3928 4666 
L 3928 4134 
L 2272 4134 
L 2272 0 
L 1638 0 
L 1638 4134 
L -19 4134 
L -19 4666 
z
" transform="scale(0.015625)"/>
       <path id="DejaVuSans-69" d="M 603 3500 
L 1178 3500 
L 1178 0 
L 603 0 
L 603 3500 
z
M 603 4863 
L 1178 4863 
L 1178 4134 
L 603 4134 
L 603 4863 
z
" transform="scale(0.015625)"/>
       <path id="DejaVuSans-6d" d="M 3328 2828 
Q 3544 3216 3844 3400 
Q 4144 3584 4550 3584 
Q 5097 3584 5394 3201 
Q 5691 2819 5691 2113 
L 5691 0 
L 5113 0 
L 5113 2094 
Q 5113 2597 4934 2840 
Q 4756 3084 4391 3084 
Q 3944 3084 3684 2787 
Q 3425 2491 3425 1978 
L 3425 0 
L 2847 0 
L 2847 2094 
Q 2847 2600 2669 2842 
Q 2491 3084 2119 3084 
Q 1678 3084 1418 2786 
Q 1159 2488 1159 1978 
L 1159 0 
L 581 0 
L 581 3500 
L 1159 3500 
L 1159 2956 
Q 1356 3278 1631 3431 
Q 1906 3584 2284 3584 
Q 2666 3584 2933 3390 
Q 3200 3197 3328 2828 
z
" transform="scale(0.015625)"/>
       <path id="DejaVuSans-65" d="M 3597 1894 
L 3597 1613 
L 953 1613 
Q 991 1019 1311 708 
Q 1631 397 2203 397 
Q 2534 397 2845 478 
Q 3156 559 3463 722 
L 3463 178 
Q 3153 47 2828 -22 
Q 2503 -91 2169 -91 
Q 1331 -91 842 396 
Q 353 884 353 1716 
Q 353 2575 817 3079 
Q 1281 3584 2069 3584 
Q 2775 3584 3186 3129 
Q 3597 2675 3597 1894 
z
M 3022 2063 
Q 3016 2534 2758 2815 
Q 2500 3097 2075 3097 
Q 1594 3097 1305 2825 
Q 1016 2553 972 2059 
L 3022 2063 
z
" transform="scale(0.015625)"/>
      </defs>
      <use xlink:href="#DejaVuSans-54"/>
      <use xlink:href="#DejaVuSans-69" x="57.958984"/>
      <use xlink:href="#DejaVuSans-6d" x="85.742188"/>
      <use xlink:href="#DejaVuSans-65" x="183.154297"/>
     </g>
    </g>
   </g>
   <g id="matplotlib.axis_2">
    <g id="ytick_1">
     <g id="line2d_8">
      <defs>
       <path id="mdb77f15512" d="M 0 0 
L -3.5 0 
" style="stroke: #000000; stroke-width: 0.8"/>
      </defs>
      <g>
       <use xlink:href="#mdb77f15512" x="49.235" y="344.397187" style="stroke: #000000; stroke-width: 0.8"/>
      </g>
     </g>
     <g id="text_9">
      <!-- 0 -->
      <g transform="translate(35.8725 348.196406) scale(0.1 -0.1)">
       <use xlink:href="#DejaVuSans-30"/>
      </g>
     </g>
    </g>
    <g id="ytick_2">
     <g id="line2d_9">
      <g>
       <use xlink:href="#mdb77f15512" x="49.235" y="294.081048" style="stroke: #000000; stroke-width: 0.8"/>
      </g>
     </g>
     <g id="text_10">
      <!-- 100 -->
      <g transform="translate(23.1475 297.880266) scale(0.1 -0.1)">
       <use xlink:href="#DejaVuSans-31"/>
       <use xlink:href="#DejaVuSans-30" x="63.623047"/>
       <use xlink:href="#DejaVuSans-30" x="127.246094"/>
      </g>
     </g>
    </g>
    <g id="ytick_3">
     <g id="line2d_10">
      <g>
       <use xlink:href="#mdb77f15512" x="49.235" y="243.764908" style="stroke: #000000; stroke-width: 0.8"/>
      </g>
     </g>
     <g id="text_11">
      <!-- 200 -->
      <g transform="translate(23.1475 247.564127) scale(0.1 -0.1)">
       <use xlink:href="#DejaVuSans-32"/>
       <use xlink:href="#DejaVuSans-30" x="63.623047"/>
       <use xlink:href="#DejaVuSans-30" x="127.246094"/>
      </g>
     </g>
    </g>
    <g id="ytick_4">
     <g id="line2d_11">
      <g>
       <use xlink:href="#mdb77f15512" x="49.235" y="193.448768" style="stroke: #000000; stroke-width: 0.8"/>
      </g>
     </g>
     <g id="text_12">
      <!-- 300 -->
      <g transform="translate(23.1475 197.247987) scale(0.1 -0.1)">
       <use xlink:href="#DejaVuSans-33"/>
       <use xlink:href="#DejaVuSans-30" x="63.623047"/>
       <use xlink:href="#DejaVuSans-30" x="127.246094"/>
      </g>
     </g>
    </g>
    <g id="ytick_5">
     <g id="line2d_12">
      <g>
       <use xlink:href="#mdb77f15512" x="49.235" y="143.132628" style="stroke: #000000; stroke-width: 0.8"/>
      </g>
     </g>
     <g id="text_13">
      <!-- 400 -->
      <g transform="translate(23.1475 146.931847) scale(0.1 -0.1)">
       <use xlink:href="#DejaVuSans-34"/>
       <use xlink:href="#DejaVuSans-30" x="63.623047"/>
       <use xlink:href="#DejaVuSans-30" x="127.246094"/>
      </g>
     </g>
    </g>
    <g id="ytick_6">
     <g id="line2d_13">
      <g>
       <use xlink:href="#mdb77f15512" x="49.235" y="92.816489" style="stroke: #000000; stroke-width: 0.8"/>
      </g>
     </g>
     <g id="text_14">
      <!-- 500 -->
      <g transform="translate(23.1475 96.615707) scale(0.1 -0.1)">
       <use xlink:href="#DejaVuSans-35"/>
       <use xlink:href="#DejaVuSans-30" x="63.623047"/>
       <use xlink:href="#DejaVuSans-30" x="127.246094"/>
      </g>
     </g>
    </g>
    <g id="ytick_7">
     <g id="line2d_14">
      <g>
       <use xlink:href="#mdb77f15512" x="49.235" y="42.500349" style="stroke: #000000; stroke-width: 0.8"/>
      </g>
     </g>
     <g id="text_15">
      <!-- 600 -->
      <g transform="translate(23.1475 46.299568) scale(0.1 -0.1)">
       <defs>
        <path id="DejaVuSans-36" d="M 2113 2584 
Q 1688 2584 1439 2293 
Q 1191 2003 1191 1497 
Q 1191 994 1439 701 
Q 1688 409 2113 409 
Q 2538 409 2786 701 
Q 3034 994 3034 1497 
Q 3034 2003 2786 2293 
Q 2538 2584 2113 2584 
z
M 3366 4563 
L 3366 3988 
Q 3128 4100 2886 4159 
Q 2644 4219 2406 4219 
Q 1781 4219 1451 3797 
Q 1122 3375 1075 2522 
Q 1259 2794 1537 2939 
Q 1816 3084 2150 3084 
Q 2853 3084 3261 2657 
Q 3669 2231 3669 1497 
Q 3669 778 3244 343 
Q 2819 -91 2113 -91 
Q 1303 -91 875 529 
Q 447 1150 447 2328 
Q 447 3434 972 4092 
Q 1497 4750 2381 4750 
Q 2619 4750 2861 4703 
Q 3103 4656 3366 4563 
z
" transform="scale(0.015625)"/>
       </defs>
       <use xlink:href="#DejaVuSans-36"/>
       <use xlink:href="#DejaVuSans-30" x="63.623047"/>
       <use xlink:href="#DejaVuSans-30" x="127.246094"/>
      </g>
     </g>
    </g>
    <g id="text_16">
     <!-- Pellet_Count -->
     <g transform="translate(16.318125 230.485312) rotate(-90) scale(0.12 -0.12)">
      <defs>
       <path id="DejaVuSans-50" d="M 1259 4147 
L 1259 2394 
L 2053 2394 
Q 2494 2394 2734 2622 
Q 2975 2850 2975 3272 
Q 2975 3691 2734 3919 
Q 2494 4147 2053 4147 
L 1259 4147 
z
M 628 4666 
L 2053 4666 
Q 2838 4666 3239 4311 
Q 3641 3956 3641 3272 
Q 3641 2581 3239 2228 
Q 2838 1875 2053 1875 
L 1259 1875 
L 1259 0 
L 628 0 
L 628 4666 
z
" transform="scale(0.015625)"/>
       <path id="DejaVuSans-6c" d="M 603 4863 
L 1178 4863 
L 1178 0 
L 603 0 
L 603 4863 
z
" transform="scale(0.015625)"/>
       <path id="DejaVuSans-74" d="M 1172 4494 
L 1172 3500 
L 2356 3500 
L 2356 3053 
L 1172 3053 
L 1172 1153 
Q 1172 725 1289 603 
Q 1406 481 1766 481 
L 2356 481 
L 2356 0 
L 1766 0 
Q 1100 0 847 248 
Q 594 497 594 1153 
L 594 3053 
L 172 3053 
L 172 3500 
L 594 3500 
L 594 4494 
L 1172 4494 
z
" transform="scale(0.015625)"/>
       <path id="DejaVuSans-5f" d="M 3263 -1063 
L 3263 -1509 
L -63 -1509 
L -63 -1063 
L 3263 -1063 
z
" transform="scale(0.015625)"/>
       <path id="DejaVuSans-43" d="M 4122 4306 
L 4122 3641 
Q 3803 3938 3442 4084 
Q 3081 4231 2675 4231 
Q 1875 4231 1450 3742 
Q 1025 3253 1025 2328 
Q 1025 1406 1450 917 
Q 1875 428 2675 428 
Q 3081 428 3442 575 
Q 3803 722 4122 1019 
L 4122 359 
Q 3791 134 3420 21 
Q 3050 -91 2638 -91 
Q 1578 -91 968 557 
Q 359 1206 359 2328 
Q 359 3453 968 4101 
Q 1578 4750 2638 4750 
Q 3056 4750 3426 4639 
Q 3797 4528 4122 4306 
z
" transform="scale(0.015625)"/>
       <path id="DejaVuSans-6f" d="M 1959 3097 
Q 1497 3097 1228 2736 
Q 959 2375 959 1747 
Q 959 1119 1226 758 
Q 1494 397 1959 397 
Q 2419 397 2687 759 
Q 2956 1122 2956 1747 
Q 2956 2369 2687 2733 
Q 2419 3097 1959 3097 
z
M 1959 3584 
Q 2709 3584 3137 3096 
Q 3566 2609 3566 1747 
Q 3566 888 3137 398 
Q 2709 -91 1959 -91 
Q 1206 -91 779 398 
Q 353 888 353 1747 
Q 353 2609 779 3096 
Q 1206 3584 1959 3584 
z
" transform="scale(0.015625)"/>
       <path id="DejaVuSans-75" d="M 544 1381 
L 544 3500 
L 1119 3500 
L 1119 1403 
Q 1119 906 1312 657 
Q 1506 409 1894 409 
Q 2359 409 2629 706 
Q 2900 1003 2900 1516 
L 2900 3500 
L 3475 3500 
L 3475 0 
L 2900 0 
L 2900 538 
Q 2691 219 2414 64 
Q 2138 -91 1772 -91 
Q 1169 -91 856 284 
Q 544 659 544 1381 
z
M 1991 3584 
L 1991 3584 
z
" transform="scale(0.015625)"/>
       <path id="DejaVuSans-6e" d="M 3513 2113 
L 3513 0 
L 2938 0 
L 2938 2094 
Q 2938 2591 2744 2837 
Q 2550 3084 2163 3084 
Q 1697 3084 1428 2787 
Q 1159 2491 1159 1978 
L 1159 0 
L 581 0 
L 581 3500 
L 1159 3500 
L 1159 2956 
Q 1366 3272 1645 3428 
Q 1925 3584 2291 3584 
Q 2894 3584 3203 3211 
Q 3513 2838 3513 2113 
z
" transform="scale(0.015625)"/>
      </defs>
      <use xlink:href="#DejaVuSans-50"/>
      <use xlink:href="#DejaVuSans-65" x="56.677734"/>
      <use xlink:href="#DejaVuSans-6c" x="118.201172"/>
      <use xlink:href="#DejaVuSans-6c" x="145.984375"/>
      <use xlink:href="#DejaVuSans-65" x="173.767578"/>
      <use xlink:href="#DejaVuSans-74" x="235.291016"/>
      <use xlink:href="#DejaVuSans-5f" x="274.5"/>
      <use xlink:href="#DejaVuSans-43" x="324.5"/>
      <use xlink:href="#DejaVuSans-6f" x="394.324219"/>
      <use xlink:href="#DejaVuSans-75" x="455.505859"/>
      <use xlink:href="#DejaVuSans-6e" x="518.884766"/>
      <use xlink:href="#DejaVuSans-74" x="582.263672"/>
     </g>
    </g>
   </g>
   <g id="line2d_15">
    <path d="M 99.962273 344.397187 
L 100.053292 343.894026 
L 105.806459 343.894026 
L 105.810252 343.390865 
L 105.927818 343.390865 
L 106.113649 342.384542 
L 106.295687 342.384542 
L 106.409461 341.881381 
L 109.572376 341.881381 
L 109.587545 341.378219 
L 109.758206 341.378219 
L 109.765791 340.875058 
L 109.974377 340.875058 
L 110.091943 340.371896 
L 110.114698 340.371896 
L 110.11849 339.868735 
L 110.236057 339.868735 
L 110.243642 339.365574 
L 110.357415 339.365574 
L 110.361208 338.862412 
L 110.524284 338.862412 
L 110.535661 338.359251 
L 111.002134 338.359251 
L 111.002134 338.359251 
L 111.024889 337.856089 
L 113.076612 337.856089 
L 113.087989 337.352928 
L 113.30416 337.352928 
L 113.315537 336.849767 
L 113.440688 336.849767 
L 113.448273 336.346605 
L 113.641689 336.346605 
L 113.645481 335.843444 
L 115.560676 335.843444 
L 115.564468 335.340282 
L 116.823566 335.340282 
L 116.831151 334.837121 
L 117.001812 334.837121 
L 117.009397 334.33396 
L 117.191435 334.33396 
L 117.19902 333.830798 
L 118.503627 333.830798 
L 118.50742 333.327637 
L 118.670496 333.327637 
L 118.678081 332.824475 
L 118.848742 332.824475 
L 118.852534 332.321314 
L 119.008025 332.321314 
L 119.133176 331.818153 
L 131.769665 331.818153 
L 131.773458 331.314991 
L 131.906194 331.314991 
L 132.00859 330.308668 
L 132.202006 330.308668 
L 132.365082 329.302346 
L 132.490233 329.302346 
L 132.585045 328.296023 
L 133.305613 328.296023 
L 133.313198 327.792861 
L 133.445934 327.792861 
L 133.567293 326.786539 
L 133.665897 326.786539 
L 133.768293 325.780216 
L 133.787256 325.780216 
L 133.893445 325.277054 
L 138.671949 325.277054 
L 138.713666 324.270732 
L 138.884327 324.270732 
L 139.100497 323.264409 
L 140.90571 323.264409 
L 140.909502 322.761247 
L 141.023276 322.761247 
L 141.129465 321.754925 
L 141.300126 321.754925 
L 141.307711 321.251763 
L 141.520089 321.251763 
L 141.618693 320.24544 
L 141.69075 320.24544 
L 141.755222 319.239118 
L 144.550267 319.239118 
L 144.550267 319.239118 
L 144.55406 318.735956 
L 150.030377 318.735956 
L 150.117604 317.226472 
L 154.676145 317.226472 
L 154.679938 316.723311 
L 154.877146 316.723311 
L 155.009882 315.716988 
L 155.210883 315.716988 
L 155.309487 314.710665 
L 155.408091 314.710665 
L 155.48394 313.704342 
L 155.612884 313.704342 
L 155.741828 312.698019 
L 158.13108 312.698019 
L 158.138665 312.194858 
L 158.252438 312.194858 
L 158.256231 311.691697 
L 158.385175 311.691697 
L 158.388967 311.188535 
L 160.630313 311.188535 
L 160.637898 310.685374 
L 160.819936 310.685374 
L 160.823729 310.182212 
L 161.695995 310.182212 
L 161.707373 309.679051 
L 161.836317 309.679051 
L 161.843902 309.17589 
L 161.969053 309.17589 
L 161.972845 308.672728 
L 165.750139 308.672728 
L 165.753931 308.169567 
L 165.901838 308.169567 
L 166.000442 307.163244 
L 166.083876 307.163244 
L 166.19765 306.660083 
L 166.216612 306.660083 
L 166.284876 305.65376 
L 168.825827 305.65376 
L 168.833412 305.150598 
L 168.954771 305.150598 
L 168.958563 304.647437 
L 169.098884 304.647437 
L 169.205073 303.641114 
L 169.303677 303.641114 
L 169.413659 303.137953 
L 169.436414 303.137953 
L 169.55398 302.13163 
L 177.264059 302.13163 
L 177.301983 301.125307 
L 177.40438 301.125307 
L 177.499191 300.118985 
L 177.578833 300.118985 
L 177.677437 299.615823 
L 177.700192 299.615823 
L 177.753286 299.112662 
L 196.408415 299.112662 
L 196.416 298.6095 
L 196.560113 298.6095 
L 196.66251 297.603178 
L 196.726982 297.603178 
L 196.810416 296.596855 
L 196.897643 296.596855 
L 197.007624 295.590532 
L 197.091058 295.590532 
L 197.094851 295.087371 
L 197.21621 295.087371 
L 197.307229 294.081048 
L 197.458927 294.081048 
L 197.534777 293.074725 
L 197.622003 293.074725 
L 197.728192 292.571564 
L 197.73957 292.571564 
L 197.823004 291.565241 
L 197.906438 291.565241 
L 197.91023 291.062079 
L 200.940409 291.062079 
L 200.947994 290.558918 
L 202.817678 290.558918 
L 202.825263 290.055757 
L 203.257604 290.055757 
L 203.261397 289.552595 
L 204.524287 289.552595 
L 204.531872 289.049434 
L 204.657023 289.049434 
L 204.660816 288.546272 
L 204.797344 288.546272 
L 204.914911 287.53995 
L 205.040062 287.53995 
L 205.043855 287.036788 
L 208.385015 287.036788 
L 208.388807 286.533627 
L 208.544298 286.533627 
L 208.548091 286.030465 
L 208.692205 286.030465 
L 208.699789 285.527304 
L 210.774267 285.527304 
L 210.781852 285.024143 
L 210.895626 285.024143 
L 210.899418 284.520981 
L 212.636367 284.520981 
L 212.643952 284.01782 
L 219.936859 284.01782 
L 220.06201 283.011497 
L 220.073388 283.011497 
L 220.145445 282.005174 
L 220.225086 282.005174 
L 220.327483 280.998851 
L 220.524691 280.998851 
L 220.638465 279.992529 
L 220.710522 279.992529 
L 220.714314 279.489367 
L 221.992374 279.489367 
L 225.060477 278.986206 
L 225.068062 278.483044 
L 225.181836 278.483044 
L 225.265271 277.476722 
L 244.201041 277.476722 
L 244.204834 276.97356 
L 244.348947 276.97356 
L 244.421004 275.967237 
L 244.489269 275.464076 
L 244.622005 275.464076 
L 244.735779 274.457753 
L 244.773703 274.457753 
L 244.925402 272.948269 
L 244.986081 272.948269 
L 245.09227 271.941946 
L 245.175704 271.941946 
L 245.274309 271.438785 
L 245.274309 271.438785 
L 245.297063 270.935623 
L 278.390101 270.935623 
L 278.397686 270.432462 
L 278.51146 270.432462 
L 278.515252 269.929301 
L 278.924838 269.929301 
L 279.03482 269.426139 
L 279.129631 268.922978 
L 296.965588 268.922978 
L 296.99972 267.916655 
L 297.174173 267.916655 
L 297.280362 266.910332 
L 297.409306 266.910332 
L 297.526872 266.407171 
L 297.617891 265.400848 
L 297.712703 265.400848 
L 297.834062 264.394525 
L 315.203545 264.394525 
L 315.305942 263.891364 
L 315.370414 263.891364 
L 315.480395 262.885041 
L 315.563829 262.885041 
L 315.666226 261.878718 
L 315.783792 261.878718 
L 315.787585 261.375557 
L 315.905151 261.375557 
L 315.908943 260.872395 
L 316.04168 260.872395 
L 316.151661 259.866073 
L 333.517352 259.866073 
L 333.608371 258.85975 
L 333.703183 258.85975 
L 333.801787 257.853427 
L 333.881428 257.853427 
L 333.980032 256.847104 
L 334.059674 256.847104 
L 334.173448 256.343943 
L 334.181033 256.343943 
L 334.287222 255.33762 
L 334.393411 255.33762 
L 334.397203 254.834459 
L 351.429158 254.834459 
L 351.535347 253.828136 
L 351.812196 253.828136 
L 351.92597 252.821813 
L 351.994235 252.821813 
L 352.085254 252.318652 
L 352.153518 251.81549 
L 352.271084 251.81549 
L 352.362104 250.809168 
L 373.304088 250.809168 
L 373.319258 250.306006 
L 373.444409 250.306006 
L 373.558183 249.802845 
L 373.565768 249.802845 
L 373.690919 249.299683 
L 373.84641 249.299683 
L 373.850202 248.796522 
L 387.112448 248.796522 
L 387.173127 247.790199 
L 387.279316 247.790199 
L 387.370335 246.783876 
L 387.446184 246.783876 
L 387.525826 245.777554 
L 387.760959 245.777554 
L 387.87094 245.274392 
L 399.502426 245.274392 
L 399.506219 244.771231 
L 399.657917 244.771231 
L 399.771691 243.764908 
L 399.866503 243.764908 
L 399.957522 243.261747 
L 400.010616 243.261747 
L 400.018201 242.758585 
L 405.577953 242.758585 
L 405.695519 242.255424 
L 405.722067 242.255424 
L 405.832048 241.752262 
L 405.843425 241.752262 
L 405.938237 240.74594 
L 406.052011 240.74594 
L 406.154407 239.739617 
L 412.317161 239.739617 
L 412.320953 239.236455 
L 412.446105 239.236455 
L 412.544709 238.733294 
L 415.150131 238.733294 
L 415.263905 237.726971 
L 415.415604 237.726971 
L 415.419396 237.22381 
L 416.124794 237.22381 
L 416.230983 236.217487 
L 416.458531 236.217487 
L 416.481286 235.714326 
L 419.594899 235.714326 
L 419.602483 235.211164 
L 419.871748 235.211164 
L 419.875541 234.708003 
L 420.019654 234.708003 
L 420.023447 234.204841 
L 424.521309 234.204841 
L 424.635083 233.70168 
L 424.642668 233.70168 
L 424.737479 232.695357 
L 424.809536 232.695357 
L 425.010537 232.192196 
L 425.018122 232.192196 
L 425.116726 231.185873 
L 425.211537 231.185873 
L 425.321519 230.682712 
L 425.336688 230.682712 
L 425.44667 229.676389 
L 425.545274 229.676389 
L 425.549066 229.173227 
L 429.88006 229.173227 
L 429.887645 228.670066 
L 430.005211 228.670066 
L 430.012796 228.166905 
L 430.137947 228.166905 
L 430.14174 227.663743 
L 432.640973 227.663743 
L 432.648558 227.160582 
L 432.830597 227.160582 
L 433.039182 226.154259 
L 433.160541 226.154259 
L 433.232598 225.651098 
L 437.021269 225.651098 
L 437.032646 225.147936 
L 439.782182 225.147936 
L 439.888371 224.141613 
L 439.964221 224.141613 
L 440.051447 223.135291 
L 440.138674 223.135291 
L 440.233486 222.128968 
L 440.343467 222.128968 
L 440.442071 221.122645 
L 440.544468 221.122645 
L 440.643072 220.116322 
L 455.581586 220.116322 
L 455.702945 219.109999 
L 455.782586 219.109999 
L 455.89636 218.103677 
L 455.991172 218.103677 
L 456.104946 217.600515 
L 466.909675 217.600515 
L 467.015864 216.594192 
L 467.114468 216.594192 
L 467.205487 215.58787 
L 467.262374 215.58787 
L 467.372355 214.581547 
L 467.436827 214.581547 
L 467.436827 214.581547 
L 467.501299 214.078386 
L 467.622658 214.078386 
L 467.62645 213.575224 
L 467.755394 213.575224 
L 467.838828 212.568901 
L 467.922262 212.568901 
L 468.013281 211.562579 
L 468.089131 211.562579 
L 468.092923 211.059417 
L 477.718196 211.059417 
L 477.809215 210.053094 
L 477.907819 210.053094 
L 478.017801 209.046772 
L 478.09365 209.046772 
L 478.188461 208.040449 
L 478.283273 208.040449 
L 478.287065 207.537287 
L 481.138998 207.537287 
L 481.146583 207.034126 
L 492.664295 207.034126 
L 492.831163 206.027803 
L 495.197661 206.027803 
L 495.201453 205.524642 
L 495.447963 205.524642 
L 495.546567 205.02148 
L 495.667926 205.02148 
L 495.755153 204.015158 
L 495.861342 204.015158 
L 495.963738 203.008835 
L 496.039588 203.008835 
L 496.141984 202.002512 
L 500.950828 202.002512 
L 501.064602 200.996189 
L 501.170791 200.996189 
L 501.269395 199.989866 
L 501.405924 199.989866 
L 501.496943 199.486705 
L 501.53866 199.486705 
L 501.644849 198.983544 
L 501.644849 198.983544 
L 501.747245 197.977221 
L 509.043945 197.977221 
L 509.153927 197.474059 
L 509.176682 197.474059 
L 509.263908 196.467737 
L 509.34355 196.467737 
L 509.419399 195.461414 
L 509.499041 195.461414 
L 509.57489 194.455091 
L 509.662117 194.455091 
L 509.768306 193.95193 
L 509.791061 193.448768 
L 518.790577 193.448768 
L 518.900558 192.945607 
L 521.475641 192.945607 
L 521.585623 192.442445 
L 521.61217 192.442445 
L 521.615962 191.939284 
L 521.756283 191.939284 
L 521.854887 190.932961 
L 521.961076 190.932961 
L 521.961076 190.4298 
L 522.071058 190.4298 
L 522.162077 189.423477 
L 522.253096 189.423477 
L 522.256889 188.920316 
L 523.902818 188.920316 
L 523.910403 188.417154 
L 524.027969 188.417154 
L 524.031762 187.913993 
L 529.280531 187.913993 
L 529.382928 186.90767 
L 529.462569 186.90767 
L 529.572551 185.901347 
L 529.659778 185.901347 
L 529.735627 184.895024 
L 529.841816 184.895024 
L 529.845608 184.391863 
L 541.977699 184.391863 
L 542.087681 183.38554 
L 542.171115 183.38554 
L 542.273512 182.379217 
L 542.364531 182.379217 
L 542.478305 181.876056 
L 542.478305 181.876056 
L 542.584494 180.869733 
L 550.601762 180.869733 
L 550.613139 180.366572 
L 567.030714 180.366572 
L 567.121733 179.360249 
L 567.220337 179.360249 
L 567.330319 178.353926 
L 567.40996 178.353926 
L 567.523734 177.347603 
L 567.618546 177.347603 
L 567.709565 176.341281 
L 567.796792 176.341281 
L 567.800584 175.838119 
L 585.154898 175.838119 
L 585.162483 175.334958 
L 603.89346 175.334958 
L 604.007234 174.328635 
L 604.109631 174.328635 
L 604.227197 173.322312 
L 604.322009 173.322312 
L 604.43199 172.315989 
L 604.541972 172.315989 
L 604.617821 171.309667 
L 604.70884 171.309667 
L 604.830199 170.303344 
L 620.30345 170.303344 
L 620.417224 169.800183 
L 638.02184 169.800183 
L 638.131822 168.79386 
L 638.230426 168.79386 
L 638.3442 168.290698 
L 638.347992 168.290698 
L 638.435219 167.284376 
L 638.518653 167.284376 
L 638.613465 166.278053 
L 638.685522 166.278053 
L 638.818258 165.27173 
L 638.901692 165.27173 
L 638.905484 164.768569 
L 664.978672 164.768569 
L 665.088653 164.265407 
L 665.096238 164.265407 
L 665.217597 163.762246 
L 665.236559 163.762246 
L 665.346541 162.755923 
L 665.460315 162.755923 
L 665.577881 161.7496 
L 665.642353 161.7496 
L 665.649938 161.246439 
L 686.364374 161.246439 
L 686.48194 160.240116 
L 686.553997 160.240116 
L 686.652601 159.233793 
L 686.732243 159.233793 
L 686.81947 158.22747 
L 686.906696 158.22747 
L 686.993923 157.221148 
L 687.073565 157.221148 
L 687.077357 156.717986 
L 703.237045 156.717986 
L 703.320479 156.214825 
L 703.498725 156.214825 
L 703.612499 155.711663 
L 715.956968 155.711663 
L 716.063157 154.705341 
L 716.123836 154.705341 
L 716.260365 153.699018 
L 716.355176 153.699018 
L 716.457573 152.692695 
L 716.582724 152.692695 
L 716.669951 151.686372 
L 725.623957 151.686372 
L 725.722561 150.680049 
L 725.798411 150.680049 
L 725.88943 149.673727 
L 725.969072 149.673727 
L 726.082845 148.667404 
L 726.280054 148.667404 
L 726.283846 148.164242 
L 735.196136 148.164242 
L 735.313702 147.15792 
L 735.454023 147.15792 
L 735.548835 146.151597 
L 735.620891 146.151597 
L 735.72708 145.145274 
L 735.80293 145.145274 
L 735.8181 144.642113 
L 740.410773 144.642113 
L 740.516962 143.63579 
L 744.404237 143.63579 
L 744.525596 142.629467 
L 744.665917 142.629467 
L 744.85554 141.623144 
L 748.697306 141.623144 
L 748.81108 140.616821 
L 748.902099 140.616821 
L 749.004496 140.11366 
L 751.856428 140.11366 
L 751.973995 139.610499 
L 752.148448 139.610499 
L 752.284977 139.107337 
L 752.284977 139.107337 
L 752.326694 139.107337 
L 752.372203 138.101014 
L 752.482185 138.101014 
L 752.595959 137.094692 
L 752.683185 137.094692 
L 752.796959 136.59153 
L 752.815921 136.59153 
L 752.929695 135.585207 
L 753.001752 135.585207 
L 753.100356 135.082046 
L 759.539959 135.082046 
L 759.653733 134.075723 
L 759.744753 134.075723 
L 759.862319 133.0694 
L 759.945753 133.0694 
L 759.949546 132.566239 
L 760.070904 132.566239 
L 760.180886 131.559916 
L 766.734263 131.559916 
L 766.829075 130.553593 
L 766.931471 130.553593 
L 767.00732 130.050432 
L 769.294176 130.050432 
L 769.297968 129.547271 
L 772.142316 129.547271 
L 772.24092 128.540948 
L 772.309184 128.540948 
L 772.388826 127.534625 
L 772.449506 127.534625 
L 772.536732 126.528302 
L 772.601204 126.528302 
L 772.677053 125.52198 
L 777.633803 125.52198 
L 777.804464 125.018818 
L 780.227848 125.018818 
L 780.231641 124.515657 
L 782.613308 124.515657 
L 782.738459 123.509334 
L 782.802931 123.509334 
L 782.806724 123.006173 
L 784.077199 123.006173 
L 784.080992 122.503011 
L 784.198558 122.503011 
L 784.221313 121.99985 
L 786.720546 121.99985 
L 786.781226 121.496688 
L 787.236321 121.496688 
L 787.243906 120.993527 
L 788.074456 120.993527 
L 788.267871 120.490366 
L 790.75952 120.490366 
L 791.184276 119.987204 
L 791.301842 119.484043 
L 796.273762 119.484043 
L 796.349611 117.974559 
L 796.539234 117.974559 
L 796.641631 116.968236 
L 811.720466 116.968236 
L 811.800108 115.961913 
L 811.966976 115.961913 
L 812.069373 115.458752 
L 812.149015 115.458752 
L 812.179354 114.452429 
L 812.277958 114.452429 
L 812.3576 113.949267 
L 812.64962 113.949267 
L 812.759601 113.446106 
L 812.770979 113.446106 
L 812.858205 112.439783 
L 812.930262 112.439783 
L 813.006111 111.936622 
L 813.15781 111.936622 
L 813.226074 111.43346 
L 828.119079 111.43346 
L 828.24423 110.427138 
L 828.316287 110.427138 
L 828.395929 109.420815 
L 828.460401 109.420815 
L 828.555212 108.917653 
L 828.650024 108.917653 
L 828.741043 107.911331 
L 828.820685 107.911331 
L 828.923081 106.905008 
L 829.002723 106.905008 
L 829.010308 106.401846 
L 830.997559 106.401846 
L 831.024106 105.395524 
L 831.198559 105.395524 
L 831.228899 104.389201 
L 831.342673 104.389201 
L 831.410937 103.886039 
L 840.782115 103.886039 
L 840.892096 102.879717 
L 840.994493 102.879717 
L 841.085512 101.873394 
L 841.149984 101.873394 
L 841.263758 100.867071 
L 842.701102 100.867071 
L 842.704894 100.36391 
L 842.818668 100.36391 
L 842.924857 99.357587 
L 842.996914 99.357587 
L 843.095518 98.351264 
L 843.156197 98.351264 
L 843.239631 97.344941 
L 843.304103 97.344941 
L 843.304103 97.344941 
L 843.315481 96.84178 
L 845.833677 96.84178 
L 845.928488 95.835457 
L 846.011922 95.835457 
L 846.076394 94.829134 
L 846.163621 94.829134 
L 846.171206 94.325973 
L 852.79664 94.325973 
L 852.902829 93.31965 
L 852.974886 93.31965 
L 853.092452 92.816489 
L 853.100037 92.816489 
L 853.198641 92.313327 
L 859.767188 92.313327 
L 859.880962 91.810166 
L 859.888547 91.810166 
L 859.990943 90.803843 
L 860.055415 90.803843 
L 860.150227 89.79752 
L 860.237453 89.79752 
L 860.343642 88.791197 
L 860.400529 88.791197 
L 860.400529 88.791197 
L 860.491548 87.784875 
L 860.58636 87.784875 
L 860.666002 86.778552 
L 937.474767 86.778552 
L 937.554409 86.27539 
L 937.645428 86.27539 
L 937.649221 85.772229 
L 937.762995 85.772229 
L 937.766787 85.269068 
L 937.914693 85.269068 
L 937.998127 84.262745 
L 938.077769 84.262745 
L 938.153618 83.256422 
L 938.271185 83.256422 
L 938.339449 82.250099 
L 961.20042 82.250099 
L 961.204212 81.746938 
L 961.317986 81.746938 
L 961.397628 80.740615 
L 961.465892 80.740615 
L 961.575874 79.734292 
L 985.172582 79.734292 
L 985.286356 79.231131 
L 985.411507 79.231131 
L 985.513904 77.721647 
L 985.582168 77.721647 
L 985.66181 76.715324 
L 985.741452 76.715324 
L 985.828678 75.709001 
L 985.90832 75.709001 
L 985.915905 75.20584 
L 1006.232133 75.20584 
L 1006.239718 74.702678 
L 1006.406586 74.702678 
L 1006.50519 73.696356 
L 1006.588624 73.696356 
L 1006.675851 72.690033 
L 1006.763078 72.690033 
L 1006.835134 71.68371 
L 1032.438056 71.68371 
L 1032.544245 70.677387 
L 1032.654227 70.677387 
L 1032.726283 69.671064 
L 1032.81351 69.671064 
L 1032.927284 68.664742 
L 1033.003133 68.664742 
L 1033.07519 67.658419 
L 1054.093023 67.658419 
L 1054.187835 67.155257 
L 1054.221967 67.155257 
L 1054.328156 66.652096 
L 1059.652775 66.652096 
L 1059.781719 65.142612 
L 1059.914455 65.142612 
L 1060.020644 64.136289 
L 1060.104078 64.136289 
L 1060.191305 63.129966 
L 1060.286116 63.129966 
L 1060.289909 62.626805 
L 1061.50729 62.626805 
L 1061.712083 62.123643 
L 1067.48042 62.123643 
L 1067.590401 61.620482 
L 1067.601779 61.620482 
L 1067.692798 60.614159 
L 1067.795194 60.614159 
L 1067.905176 60.110998 
L 1067.912761 60.110998 
L 1068.011365 59.104675 
L 1068.087214 59.104675 
L 1068.197196 58.601514 
L 1074.936403 58.601514 
L 1074.940196 58.098352 
L 1075.080517 58.098352 
L 1075.182914 57.092029 
L 1075.262555 57.092029 
L 1075.338405 56.085707 
L 1075.418046 56.085707 
L 1075.418046 55.582545 
L 1076.343407 55.582545 
L 1076.453389 54.576222 
L 1076.582333 54.576222 
L 1076.665767 53.5699 
L 1076.722654 53.5699 
L 1076.730239 53.066738 
L 1081.474611 53.066738 
L 1081.56563 52.060415 
L 1081.633894 52.060415 
L 1081.702159 51.054093 
L 1081.76663 51.054093 
L 1081.846272 50.04777 
L 1081.914536 50.04777 
L 1082.001763 49.041447 
L 1082.085197 49.041447 
L 1082.092782 48.538286 
L 1085.377056 48.538286 
L 1085.46049 47.531963 
L 1085.521169 47.531963 
L 1085.619773 46.52564 
L 1089.268123 46.52564 
L 1089.351558 45.519317 
L 1089.41603 45.519317 
L 1089.499464 44.512994 
L 1089.571521 44.512994 
L 1089.590483 44.009833 
L 1106.592097 44.009833 
L 1106.903079 43.506672 
L 1107.233024 43.506672 
L 1107.33542 42.500349 
L 1107.600893 42.500349 
L 1107.961177 41.997187 
L 1107.961177 41.997187 
" clip-path="url(#pd8ccd8962f)" style="fill: none; stroke: #0000ff; stroke-width: 1.5; stroke-linecap: square"/>
   </g>
   <g id="patch_83">
    <path d="M 49.235 359.517187 
L 49.235 26.877187 
" style="fill: none; stroke: #000000; stroke-width: 0.8; stroke-linejoin: miter; stroke-linecap: square"/>
   </g>
   <g id="patch_84">
    <path d="M 1165.235 359.517187 
L 1165.235 26.877187 
" style="fill: none; stroke: #000000; stroke-width: 0.8; stroke-linejoin: miter; stroke-linecap: square"/>
   </g>
   <g id="patch_85">
    <path d="M 49.235 359.517187 
L 1165.235 359.517187 
" style="fill: none; stroke: #000000; stroke-width: 0.8; stroke-linejoin: miter; stroke-linecap: square"/>
   </g>
   <g id="patch_86">
    <path d="M 49.235 26.877187 
L 1165.235 26.877187 
" style="fill: none; stroke: #000000; stroke-width: 0.8; stroke-linejoin: miter; stroke-linecap: square"/>
   </g>
   <g id="text_17">
    <!-- Pellet Count and Cumulative Sum Over Time of Group cask Mouse M19 -->
    <g transform="translate(287.331406 20.877187) scale(0.18 -0.18)">
     <defs>
      <path id="DejaVuSans-61" d="M 2194 1759 
Q 1497 1759 1228 1600 
Q 959 1441 959 1056 
Q 959 750 1161 570 
Q 1363 391 1709 391 
Q 2188 391 2477 730 
Q 2766 1069 2766 1631 
L 2766 1759 
L 2194 1759 
z
M 3341 1997 
L 3341 0 
L 2766 0 
L 2766 531 
Q 2569 213 2275 61 
Q 1981 -91 1556 -91 
Q 1019 -91 701 211 
Q 384 513 384 1019 
Q 384 1609 779 1909 
Q 1175 2209 1959 2209 
L 2766 2209 
L 2766 2266 
Q 2766 2663 2505 2880 
Q 2244 3097 1772 3097 
Q 1472 3097 1187 3025 
Q 903 2953 641 2809 
L 641 3341 
Q 956 3463 1253 3523 
Q 1550 3584 1831 3584 
Q 2591 3584 2966 3190 
Q 3341 2797 3341 1997 
z
" transform="scale(0.015625)"/>
      <path id="DejaVuSans-64" d="M 2906 2969 
L 2906 4863 
L 3481 4863 
L 3481 0 
L 2906 0 
L 2906 525 
Q 2725 213 2448 61 
Q 2172 -91 1784 -91 
Q 1150 -91 751 415 
Q 353 922 353 1747 
Q 353 2572 751 3078 
Q 1150 3584 1784 3584 
Q 2172 3584 2448 3432 
Q 2725 3281 2906 2969 
z
M 947 1747 
Q 947 1113 1208 752 
Q 1469 391 1925 391 
Q 2381 391 2643 752 
Q 2906 1113 2906 1747 
Q 2906 2381 2643 2742 
Q 2381 3103 1925 3103 
Q 1469 3103 1208 2742 
Q 947 2381 947 1747 
z
" transform="scale(0.015625)"/>
      <path id="DejaVuSans-76" d="M 191 3500 
L 800 3500 
L 1894 563 
L 2988 3500 
L 3597 3500 
L 2284 0 
L 1503 0 
L 191 3500 
z
" transform="scale(0.015625)"/>
      <path id="DejaVuSans-53" d="M 3425 4513 
L 3425 3897 
Q 3066 4069 2747 4153 
Q 2428 4238 2131 4238 
Q 1616 4238 1336 4038 
Q 1056 3838 1056 3469 
Q 1056 3159 1242 3001 
Q 1428 2844 1947 2747 
L 2328 2669 
Q 3034 2534 3370 2195 
Q 3706 1856 3706 1288 
Q 3706 609 3251 259 
Q 2797 -91 1919 -91 
Q 1588 -91 1214 -16 
Q 841 59 441 206 
L 441 856 
Q 825 641 1194 531 
Q 1563 422 1919 422 
Q 2459 422 2753 634 
Q 3047 847 3047 1241 
Q 3047 1584 2836 1778 
Q 2625 1972 2144 2069 
L 1759 2144 
Q 1053 2284 737 2584 
Q 422 2884 422 3419 
Q 422 4038 858 4394 
Q 1294 4750 2059 4750 
Q 2388 4750 2728 4690 
Q 3069 4631 3425 4513 
z
" transform="scale(0.015625)"/>
      <path id="DejaVuSans-4f" d="M 2522 4238 
Q 1834 4238 1429 3725 
Q 1025 3213 1025 2328 
Q 1025 1447 1429 934 
Q 1834 422 2522 422 
Q 3209 422 3611 934 
Q 4013 1447 4013 2328 
Q 4013 3213 3611 3725 
Q 3209 4238 2522 4238 
z
M 2522 4750 
Q 3503 4750 4090 4092 
Q 4678 3434 4678 2328 
Q 4678 1225 4090 567 
Q 3503 -91 2522 -91 
Q 1538 -91 948 565 
Q 359 1222 359 2328 
Q 359 3434 948 4092 
Q 1538 4750 2522 4750 
z
" transform="scale(0.015625)"/>
      <path id="DejaVuSans-72" d="M 2631 2963 
Q 2534 3019 2420 3045 
Q 2306 3072 2169 3072 
Q 1681 3072 1420 2755 
Q 1159 2438 1159 1844 
L 1159 0 
L 581 0 
L 581 3500 
L 1159 3500 
L 1159 2956 
Q 1341 3275 1631 3429 
Q 1922 3584 2338 3584 
Q 2397 3584 2469 3576 
Q 2541 3569 2628 3553 
L 2631 2963 
z
" transform="scale(0.015625)"/>
      <path id="DejaVuSans-66" d="M 2375 4863 
L 2375 4384 
L 1825 4384 
Q 1516 4384 1395 4259 
Q 1275 4134 1275 3809 
L 1275 3500 
L 2222 3500 
L 2222 3053 
L 1275 3053 
L 1275 0 
L 697 0 
L 697 3053 
L 147 3053 
L 147 3500 
L 697 3500 
L 697 3744 
Q 697 4328 969 4595 
Q 1241 4863 1831 4863 
L 2375 4863 
z
" transform="scale(0.015625)"/>
      <path id="DejaVuSans-47" d="M 3809 666 
L 3809 1919 
L 2778 1919 
L 2778 2438 
L 4434 2438 
L 4434 434 
Q 4069 175 3628 42 
Q 3188 -91 2688 -91 
Q 1594 -91 976 548 
Q 359 1188 359 2328 
Q 359 3472 976 4111 
Q 1594 4750 2688 4750 
Q 3144 4750 3555 4637 
Q 3966 4525 4313 4306 
L 4313 3634 
Q 3963 3931 3569 4081 
Q 3175 4231 2741 4231 
Q 1884 4231 1454 3753 
Q 1025 3275 1025 2328 
Q 1025 1384 1454 906 
Q 1884 428 2741 428 
Q 3075 428 3337 486 
Q 3600 544 3809 666 
z
" transform="scale(0.015625)"/>
      <path id="DejaVuSans-70" d="M 1159 525 
L 1159 -1331 
L 581 -1331 
L 581 3500 
L 1159 3500 
L 1159 2969 
Q 1341 3281 1617 3432 
Q 1894 3584 2278 3584 
Q 2916 3584 3314 3078 
Q 3713 2572 3713 1747 
Q 3713 922 3314 415 
Q 2916 -91 2278 -91 
Q 1894 -91 1617 61 
Q 1341 213 1159 525 
z
M 3116 1747 
Q 3116 2381 2855 2742 
Q 2594 3103 2138 3103 
Q 1681 3103 1420 2742 
Q 1159 2381 1159 1747 
Q 1159 1113 1420 752 
Q 1681 391 2138 391 
Q 2594 391 2855 752 
Q 3116 1113 3116 1747 
z
" transform="scale(0.015625)"/>
      <path id="DejaVuSans-63" d="M 3122 3366 
L 3122 2828 
Q 2878 2963 2633 3030 
Q 2388 3097 2138 3097 
Q 1578 3097 1268 2742 
Q 959 2388 959 1747 
Q 959 1106 1268 751 
Q 1578 397 2138 397 
Q 2388 397 2633 464 
Q 2878 531 3122 666 
L 3122 134 
Q 2881 22 2623 -34 
Q 2366 -91 2075 -91 
Q 1284 -91 818 406 
Q 353 903 353 1747 
Q 353 2603 823 3093 
Q 1294 3584 2113 3584 
Q 2378 3584 2631 3529 
Q 2884 3475 3122 3366 
z
" transform="scale(0.015625)"/>
      <path id="DejaVuSans-73" d="M 2834 3397 
L 2834 2853 
Q 2591 2978 2328 3040 
Q 2066 3103 1784 3103 
Q 1356 3103 1142 2972 
Q 928 2841 928 2578 
Q 928 2378 1081 2264 
Q 1234 2150 1697 2047 
L 1894 2003 
Q 2506 1872 2764 1633 
Q 3022 1394 3022 966 
Q 3022 478 2636 193 
Q 2250 -91 1575 -91 
Q 1294 -91 989 -36 
Q 684 19 347 128 
L 347 722 
Q 666 556 975 473 
Q 1284 391 1588 391 
Q 1994 391 2212 530 
Q 2431 669 2431 922 
Q 2431 1156 2273 1281 
Q 2116 1406 1581 1522 
L 1381 1569 
Q 847 1681 609 1914 
Q 372 2147 372 2553 
Q 372 3047 722 3315 
Q 1072 3584 1716 3584 
Q 2034 3584 2315 3537 
Q 2597 3491 2834 3397 
z
" transform="scale(0.015625)"/>
      <path id="DejaVuSans-6b" d="M 581 4863 
L 1159 4863 
L 1159 1991 
L 2875 3500 
L 3609 3500 
L 1753 1863 
L 3688 0 
L 2938 0 
L 1159 1709 
L 1159 0 
L 581 0 
L 581 4863 
z
" transform="scale(0.015625)"/>
      <path id="DejaVuSans-4d" d="M 628 4666 
L 1569 4666 
L 2759 1491 
L 3956 4666 
L 4897 4666 
L 4897 0 
L 4281 0 
L 4281 4097 
L 3078 897 
L 2444 897 
L 1241 4097 
L 1241 0 
L 628 0 
L 628 4666 
z
" transform="scale(0.015625)"/>
     </defs>
     <use xlink:href="#DejaVuSans-50"/>
     <use xlink:href="#DejaVuSans-65" x="56.677734"/>
     <use xlink:href="#DejaVuSans-6c" x="118.201172"/>
     <use xlink:href="#DejaVuSans-6c" x="145.984375"/>
     <use xlink:href="#DejaVuSans-65" x="173.767578"/>
     <use xlink:href="#DejaVuSans-74" x="235.291016"/>
     <use xlink:href="#DejaVuSans-20" x="274.5"/>
     <use xlink:href="#DejaVuSans-43" x="306.287109"/>
     <use xlink:href="#DejaVuSans-6f" x="376.111328"/>
     <use xlink:href="#DejaVuSans-75" x="437.292969"/>
     <use xlink:href="#DejaVuSans-6e" x="500.671875"/>
     <use xlink:href="#DejaVuSans-74" x="564.050781"/>
     <use xlink:href="#DejaVuSans-20" x="603.259766"/>
     <use xlink:href="#DejaVuSans-61" x="635.046875"/>
     <use xlink:href="#DejaVuSans-6e" x="696.326172"/>
     <use xlink:href="#DejaVuSans-64" x="759.705078"/>
     <use xlink:href="#DejaVuSans-20" x="823.181641"/>
     <use xlink:href="#DejaVuSans-43" x="854.96875"/>
     <use xlink:href="#DejaVuSans-75" x="924.792969"/>
     <use xlink:href="#DejaVuSans-6d" x="988.171875"/>
     <use xlink:href="#DejaVuSans-75" x="1085.583984"/>
     <use xlink:href="#DejaVuSans-6c" x="1148.962891"/>
     <use xlink:href="#DejaVuSans-61" x="1176.746094"/>
     <use xlink:href="#DejaVuSans-74" x="1238.025391"/>
     <use xlink:href="#DejaVuSans-69" x="1277.234375"/>
     <use xlink:href="#DejaVuSans-76" x="1305.017578"/>
     <use xlink:href="#DejaVuSans-65" x="1364.197266"/>
     <use xlink:href="#DejaVuSans-20" x="1425.720703"/>
     <use xlink:href="#DejaVuSans-53" x="1457.507812"/>
     <use xlink:href="#DejaVuSans-75" x="1520.984375"/>
     <use xlink:href="#DejaVuSans-6d" x="1584.363281"/>
     <use xlink:href="#DejaVuSans-20" x="1681.775391"/>
     <use xlink:href="#DejaVuSans-4f" x="1713.5625"/>
     <use xlink:href="#DejaVuSans-76" x="1792.273438"/>
     <use xlink:href="#DejaVuSans-65" x="1851.453125"/>
     <use xlink:href="#DejaVuSans-72" x="1912.976562"/>
     <use xlink:href="#DejaVuSans-20" x="1954.089844"/>
     <use xlink:href="#DejaVuSans-54" x="1985.876953"/>
     <use xlink:href="#DejaVuSans-69" x="2043.835938"/>
     <use xlink:href="#DejaVuSans-6d" x="2071.619141"/>
     <use xlink:href="#DejaVuSans-65" x="2169.03125"/>
     <use xlink:href="#DejaVuSans-20" x="2230.554688"/>
     <use xlink:href="#DejaVuSans-6f" x="2262.341797"/>
     <use xlink:href="#DejaVuSans-66" x="2323.523438"/>
     <use xlink:href="#DejaVuSans-20" x="2358.728516"/>
     <use xlink:href="#DejaVuSans-47" x="2390.515625"/>
     <use xlink:href="#DejaVuSans-72" x="2468.005859"/>
     <use xlink:href="#DejaVuSans-6f" x="2506.869141"/>
     <use xlink:href="#DejaVuSans-75" x="2568.050781"/>
     <use xlink:href="#DejaVuSans-70" x="2631.429688"/>
     <use xlink:href="#DejaVuSans-20" x="2694.90625"/>
     <use xlink:href="#DejaVuSans-63" x="2726.693359"/>
     <use xlink:href="#DejaVuSans-61" x="2781.673828"/>
     <use xlink:href="#DejaVuSans-73" x="2842.953125"/>
     <use xlink:href="#DejaVuSans-6b" x="2895.052734"/>
     <use xlink:href="#DejaVuSans-20" x="2952.962891"/>
     <use xlink:href="#DejaVuSans-4d" x="2984.75"/>
     <use xlink:href="#DejaVuSans-6f" x="3071.029297"/>
     <use xlink:href="#DejaVuSans-75" x="3132.210938"/>
     <use xlink:href="#DejaVuSans-73" x="3195.589844"/>
     <use xlink:href="#DejaVuSans-65" x="3247.689453"/>
     <use xlink:href="#DejaVuSans-20" x="3309.212891"/>
     <use xlink:href="#DejaVuSans-4d" x="3341"/>
     <use xlink:href="#DejaVuSans-31" x="3427.279297"/>
     <use xlink:href="#DejaVuSans-39" x="3490.902344"/>
    </g>
   </g>
   <g id="legend_1">
    <g id="patch_87">
     <path d="M 1086.550625 64.233437 
L 1158.235 64.233437 
Q 1160.235 64.233437 1160.235 62.233437 
L 1160.235 33.877187 
Q 1160.235 31.877187 1158.235 31.877187 
L 1086.550625 31.877187 
Q 1084.550625 31.877187 1084.550625 33.877187 
L 1084.550625 62.233437 
Q 1084.550625 64.233437 1086.550625 64.233437 
z
" style="fill: #ffffff; opacity: 0.8; stroke: #cccccc; stroke-linejoin: miter"/>
    </g>
    <g id="patch_88">
     <path d="M 1088.550625 43.475625 
L 1108.550625 43.475625 
L 1108.550625 36.475625 
L 1088.550625 36.475625 
z
" style="fill: #add8e6; opacity: 0.9; stroke: #add8e6; stroke-linejoin: miter"/>
    </g>
    <g id="text_18">
     <!-- Meal -->
     <g transform="translate(1116.550625 43.475625) scale(0.1 -0.1)">
      <use xlink:href="#DejaVuSans-4d"/>
      <use xlink:href="#DejaVuSans-65" x="86.279297"/>
      <use xlink:href="#DejaVuSans-61" x="147.802734"/>
      <use xlink:href="#DejaVuSans-6c" x="209.082031"/>
     </g>
    </g>
    <g id="patch_89">
     <path d="M 1088.550625 58.15375 
L 1108.550625 58.15375 
L 1108.550625 51.15375 
L 1088.550625 51.15375 
z
" style="fill: #808080; opacity: 0.5; stroke: #808080; stroke-linejoin: miter"/>
    </g>
    <g id="text_19">
     <!-- Inactive -->
     <g transform="translate(1116.550625 58.15375) scale(0.1 -0.1)">
      <defs>
       <path id="DejaVuSans-49" d="M 628 4666 
L 1259 4666 
L 1259 0 
L 628 0 
L 628 4666 
z
" transform="scale(0.015625)"/>
      </defs>
      <use xlink:href="#DejaVuSans-49"/>
      <use xlink:href="#DejaVuSans-6e" x="29.492188"/>
      <use xlink:href="#DejaVuSans-61" x="92.871094"/>
      <use xlink:href="#DejaVuSans-63" x="154.150391"/>
      <use xlink:href="#DejaVuSans-74" x="209.130859"/>
      <use xlink:href="#DejaVuSans-69" x="248.339844"/>
      <use xlink:href="#DejaVuSans-76" x="276.123047"/>
      <use xlink:href="#DejaVuSans-65" x="335.302734"/>
     </g>
    </g>
   </g>
  </g>
 </g>
 <defs>
  <clipPath id="pd8ccd8962f">
   <rect x="49.235" y="26.877187" width="1116" height="332.64"/>
  </clipPath>
 </defs>
</svg>
