<?xml version="1.0" encoding="utf-8" standalone="no"?>
<!DOCTYPE svg PUBLIC "-//W3C//DTD SVG 1.1//EN"
  "http://www.w3.org/Graphics/SVG/1.1/DTD/svg11.dtd">
<svg xmlns:xlink="http://www.w3.org/1999/xlink" width="1172.435pt" height="399.009062pt" viewBox="0 0 1172.435 399.009062" xmlns="http://www.w3.org/2000/svg" version="1.1">
 <metadata>
  <rdf:RDF xmlns:dc="http://purl.org/dc/elements/1.1/" xmlns:cc="http://creativecommons.org/ns#" xmlns:rdf="http://www.w3.org/1999/02/22-rdf-syntax-ns#">
   <cc:Work>
    <dc:type rdf:resource="http://purl.org/dc/dcmitype/StillImage"/>
    <dc:date>2025-10-02T16:57:24.582922</dc:date>
    <dc:format>image/svg+xml</dc:format>
    <dc:creator>
     <cc:Agent>
      <dc:title>Matplotlib v3.8.4, https://matplotlib.org/</dc:title>
     </cc:Agent>
    </dc:creator>
   </cc:Work>
  </rdf:RDF>
 </metadata>
 <defs>
  <style type="text/css">*{stroke-linejoin: round; stroke-linecap: butt}</style>
 </defs>
 <g id="figure_1">
  <g id="patch_1">
   <path d="M 0 399.009062 
L 1172.435 399.009062 
L 1172.435 0 
L 0 0 
z
" style="fill: #ffffff"/>
  </g>
  <g id="axes_1">
   <g id="patch_2">
    <path d="M 49.235 359.517187 
L 1165.235 359.517187 
L 1165.235 26.877187 
L 49.235 26.877187 
z
" style="fill: #ffffff"/>
   </g>
   <g id="patch_3">
    <path d="M 100.297277 359.517187 
L 100.297277 26.877187 
L 100.308009 26.877187 
L 100.308009 359.517187 
z
" clip-path="url(#pf92b2104f9)" style="fill: #add8e6; stroke: #add8e6; stroke-linejoin: miter"/>
   </g>
   <g id="patch_4">
    <path d="M 103.819035 359.517187 
L 103.819035 26.877187 
L 100.60085 26.877187 
L 100.60085 359.517187 
z
" clip-path="url(#pf92b2104f9)" style="fill: #add8e6; stroke: #add8e6; stroke-linejoin: miter"/>
   </g>
   <g id="patch_5">
    <path d="M 119.128028 359.517187 
L 119.128028 26.877187 
L 105.697971 26.877187 
L 105.697971 359.517187 
z
" clip-path="url(#pf92b2104f9)" style="fill: #add8e6; stroke: #add8e6; stroke-linejoin: miter"/>
   </g>
   <g id="patch_6">
    <path d="M 106.642421 359.517187 
L 106.642421 26.877187 
L 106.335015 26.877187 
L 106.335015 359.517187 
z
" clip-path="url(#pf92b2104f9)" style="fill: #add8e6; stroke: #add8e6; stroke-linejoin: miter"/>
   </g>
   <g id="patch_7">
    <path d="M 120.672726 359.517187 
L 120.672726 26.877187 
L 107.228103 26.877187 
L 107.228103 359.517187 
z
" clip-path="url(#pf92b2104f9)" style="fill: #add8e6; stroke: #add8e6; stroke-linejoin: miter"/>
   </g>
   <g id="patch_8">
    <path d="M 122.248089 359.517187 
L 122.248089 26.877187 
L 111.892095 26.877187 
L 111.892095 359.517187 
z
" clip-path="url(#pf92b2104f9)" style="fill: #add8e6; stroke: #add8e6; stroke-linejoin: miter"/>
   </g>
   <g id="patch_9">
    <path d="M 124.537921 359.517187 
L 124.537921 26.877187 
L 124.729571 26.877187 
L 124.729571 359.517187 
z
" clip-path="url(#pf92b2104f9)" style="fill: #add8e6; stroke: #add8e6; stroke-linejoin: miter"/>
   </g>
   <g id="patch_10">
    <path d="M 125.216362 359.517187 
L 125.216362 26.877187 
L 125.450941 26.877187 
L 125.450941 359.517187 
z
" clip-path="url(#pf92b2104f9)" style="fill: #add8e6; stroke: #add8e6; stroke-linejoin: miter"/>
   </g>
   <g id="patch_11">
    <path d="M 125.817376 359.517187 
L 125.817376 26.877187 
L 125.702386 26.877187 
L 125.702386 359.517187 
z
" clip-path="url(#pf92b2104f9)" style="fill: #add8e6; stroke: #add8e6; stroke-linejoin: miter"/>
   </g>
   <g id="patch_12">
    <path d="M 129.862722 359.517187 
L 129.862722 26.877187 
L 129.618943 26.877187 
L 129.618943 359.517187 
z
" clip-path="url(#pf92b2104f9)" style="fill: #add8e6; stroke: #add8e6; stroke-linejoin: miter"/>
   </g>
   <g id="patch_13">
    <path d="M 138.353579 359.517187 
L 138.353579 26.877187 
L 130.068171 26.877187 
L 130.068171 359.517187 
z
" clip-path="url(#pf92b2104f9)" style="fill: #add8e6; stroke: #add8e6; stroke-linejoin: miter"/>
   </g>
   <g id="patch_14">
    <path d="M 136.559736 359.517187 
L 136.559736 26.877187 
L 137.04346 26.877187 
L 137.04346 359.517187 
z
" clip-path="url(#pf92b2104f9)" style="fill: #add8e6; stroke: #add8e6; stroke-linejoin: miter"/>
   </g>
   <g id="patch_15">
    <path d="M 138.244722 359.517187 
L 138.244722 26.877187 
L 138.106734 26.877187 
L 138.106734 359.517187 
z
" clip-path="url(#pf92b2104f9)" style="fill: #add8e6; stroke: #add8e6; stroke-linejoin: miter"/>
   </g>
   <g id="patch_16">
    <path d="M 143.979653 359.517187 
L 143.979653 26.877187 
L 138.427939 26.877187 
L 138.427939 359.517187 
z
" clip-path="url(#pf92b2104f9)" style="fill: #add8e6; stroke: #add8e6; stroke-linejoin: miter"/>
   </g>
   <g id="patch_17">
    <path d="M 146.504832 359.517187 
L 146.504832 26.877187 
L 146.661218 26.877187 
L 146.661218 359.517187 
z
" clip-path="url(#pf92b2104f9)" style="fill: #add8e6; stroke: #add8e6; stroke-linejoin: miter"/>
   </g>
   <g id="patch_18">
    <path d="M 149.562797 359.517187 
L 149.562797 26.877187 
L 147.068282 26.877187 
L 147.068282 359.517187 
z
" clip-path="url(#pf92b2104f9)" style="fill: #add8e6; stroke: #add8e6; stroke-linejoin: miter"/>
   </g>
   <g id="patch_19">
    <path d="M 169.52045 359.517187 
L 169.52045 26.877187 
L 156.147888 26.877187 
L 156.147888 359.517187 
z
" clip-path="url(#pf92b2104f9)" style="fill: #add8e6; stroke: #add8e6; stroke-linejoin: miter"/>
   </g>
   <g id="patch_20">
    <path d="M 158.543511 359.517187 
L 158.543511 26.877187 
L 156.355636 26.877187 
L 156.355636 359.517187 
z
" clip-path="url(#pf92b2104f9)" style="fill: #add8e6; stroke: #add8e6; stroke-linejoin: miter"/>
   </g>
   <g id="patch_21">
    <path d="M 156.862358 359.517187 
L 156.862358 26.877187 
L 156.821729 26.877187 
L 156.821729 359.517187 
z
" clip-path="url(#pf92b2104f9)" style="fill: #add8e6; stroke: #add8e6; stroke-linejoin: miter"/>
   </g>
   <g id="patch_22">
    <path d="M 168.080776 359.517187 
L 168.080776 26.877187 
L 168.410414 26.877187 
L 168.410414 359.517187 
z
" clip-path="url(#pf92b2104f9)" style="fill: #add8e6; stroke: #add8e6; stroke-linejoin: miter"/>
   </g>
   <g id="patch_23">
    <path d="M 168.741585 359.517187 
L 168.741585 26.877187 
L 168.881873 26.877187 
L 168.881873 359.517187 
z
" clip-path="url(#pf92b2104f9)" style="fill: #add8e6; stroke: #add8e6; stroke-linejoin: miter"/>
   </g>
   <g id="patch_24">
    <path d="M 169.215344 359.517187 
L 169.215344 26.877187 
L 169.475221 26.877187 
L 169.475221 359.517187 
z
" clip-path="url(#pf92b2104f9)" style="fill: #add8e6; stroke: #add8e6; stroke-linejoin: miter"/>
   </g>
   <g id="patch_25">
    <path d="M 188.348136 359.517187 
L 188.348136 26.877187 
L 175.217818 26.877187 
L 175.217818 359.517187 
z
" clip-path="url(#pf92b2104f9)" style="fill: #add8e6; stroke: #add8e6; stroke-linejoin: miter"/>
   </g>
   <g id="patch_26">
    <path d="M 179.017852 359.517187 
L 179.017852 26.877187 
L 175.887826 26.877187 
L 175.887826 359.517187 
z
" clip-path="url(#pf92b2104f9)" style="fill: #add8e6; stroke: #add8e6; stroke-linejoin: miter"/>
   </g>
   <g id="patch_27">
    <path d="M 194.036304 359.517187 
L 194.036304 26.877187 
L 180.933585 26.877187 
L 180.933585 359.517187 
z
" clip-path="url(#pf92b2104f9)" style="fill: #add8e6; stroke: #add8e6; stroke-linejoin: miter"/>
   </g>
   <g id="patch_28">
    <path d="M 186.226188 359.517187 
L 186.226188 26.877187 
L 186.408639 26.877187 
L 186.408639 359.517187 
z
" clip-path="url(#pf92b2104f9)" style="fill: #add8e6; stroke: #add8e6; stroke-linejoin: miter"/>
   </g>
   <g id="patch_29">
    <path d="M 208.858507 359.517187 
L 208.858507 26.877187 
L 196.211147 26.877187 
L 196.211147 359.517187 
z
" clip-path="url(#pf92b2104f9)" style="fill: #add8e6; stroke: #add8e6; stroke-linejoin: miter"/>
   </g>
   <g id="patch_30">
    <path d="M 217.394593 359.517187 
L 217.394593 26.877187 
L 209.776126 26.877187 
L 209.776126 359.517187 
z
" clip-path="url(#pf92b2104f9)" style="fill: #add8e6; stroke: #add8e6; stroke-linejoin: miter"/>
   </g>
   <g id="patch_31">
    <path d="M 272.405777 359.517187 
L 272.405777 26.877187 
L 259.441812 26.877187 
L 259.441812 359.517187 
z
" clip-path="url(#pf92b2104f9)" style="fill: #add8e6; stroke: #add8e6; stroke-linejoin: miter"/>
   </g>
   <g id="patch_32">
    <path d="M 262.103446 359.517187 
L 262.103446 26.877187 
L 259.797514 26.877187 
L 259.797514 359.517187 
z
" clip-path="url(#pf92b2104f9)" style="fill: #add8e6; stroke: #add8e6; stroke-linejoin: miter"/>
   </g>
   <g id="patch_33">
    <path d="M 276.230342 359.517187 
L 276.230342 26.877187 
L 277.200091 26.877187 
L 277.200091 359.517187 
z
" clip-path="url(#pf92b2104f9)" style="fill: #add8e6; stroke: #add8e6; stroke-linejoin: miter"/>
   </g>
   <g id="patch_34">
    <path d="M 296.948462 359.517187 
L 296.948462 26.877187 
L 283.488507 26.877187 
L 283.488507 359.517187 
z
" clip-path="url(#pf92b2104f9)" style="fill: #add8e6; stroke: #add8e6; stroke-linejoin: miter"/>
   </g>
   <g id="patch_35">
    <path d="M 313.392023 359.517187 
L 313.392023 26.877187 
L 299.920569 26.877187 
L 299.920569 359.517187 
z
" clip-path="url(#pf92b2104f9)" style="fill: #add8e6; stroke: #add8e6; stroke-linejoin: miter"/>
   </g>
   <g id="patch_36">
    <path d="M 300.371329 359.517187 
L 300.371329 26.877187 
L 300.641172 26.877187 
L 300.641172 359.517187 
z
" clip-path="url(#pf92b2104f9)" style="fill: #add8e6; stroke: #add8e6; stroke-linejoin: miter"/>
   </g>
   <g id="patch_37">
    <path d="M 300.991508 359.517187 
L 300.991508 26.877187 
L 300.721665 26.877187 
L 300.721665 359.517187 
z
" clip-path="url(#pf92b2104f9)" style="fill: #add8e6; stroke: #add8e6; stroke-linejoin: miter"/>
   </g>
   <g id="patch_38">
    <path d="M 329.978171 359.517187 
L 329.978171 26.877187 
L 325.340243 26.877187 
L 325.340243 359.517187 
z
" clip-path="url(#pf92b2104f9)" style="fill: #add8e6; stroke: #add8e6; stroke-linejoin: miter"/>
   </g>
   <g id="patch_39">
    <path d="M 325.620052 359.517187 
L 325.620052 26.877187 
L 325.462899 26.877187 
L 325.462899 359.517187 
z
" clip-path="url(#pf92b2104f9)" style="fill: #add8e6; stroke: #add8e6; stroke-linejoin: miter"/>
   </g>
   <g id="patch_40">
    <path d="M 342.931403 359.517187 
L 342.931403 26.877187 
L 343.271007 26.877187 
L 343.271007 359.517187 
z
" clip-path="url(#pf92b2104f9)" style="fill: #add8e6; stroke: #add8e6; stroke-linejoin: miter"/>
   </g>
   <g id="patch_41">
    <path d="M 366.701356 359.517187 
L 366.701356 26.877187 
L 354.356037 26.877187 
L 354.356037 359.517187 
z
" clip-path="url(#pf92b2104f9)" style="fill: #add8e6; stroke: #add8e6; stroke-linejoin: miter"/>
   </g>
   <g id="patch_42">
    <path d="M 381.650047 359.517187 
L 381.650047 26.877187 
L 368.505931 26.877187 
L 368.505931 359.517187 
z
" clip-path="url(#pf92b2104f9)" style="fill: #add8e6; stroke: #add8e6; stroke-linejoin: miter"/>
   </g>
   <g id="patch_43">
    <path d="M 373.156124 359.517187 
L 373.156124 26.877187 
L 373.527925 26.877187 
L 373.527925 359.517187 
z
" clip-path="url(#pf92b2104f9)" style="fill: #add8e6; stroke: #add8e6; stroke-linejoin: miter"/>
   </g>
   <g id="patch_44">
    <path d="M 397.242682 359.517187 
L 397.242682 26.877187 
L 384.010407 26.877187 
L 384.010407 359.517187 
z
" clip-path="url(#pf92b2104f9)" style="fill: #add8e6; stroke: #add8e6; stroke-linejoin: miter"/>
   </g>
   <g id="patch_45">
    <path d="M 394.019131 359.517187 
L 394.019131 26.877187 
L 394.134121 26.877187 
L 394.134121 359.517187 
z
" clip-path="url(#pf92b2104f9)" style="fill: #add8e6; stroke: #add8e6; stroke-linejoin: miter"/>
   </g>
   <g id="patch_46">
    <path d="M 394.404731 359.517187 
L 394.404731 26.877187 
L 394.505155 26.877187 
L 394.505155 359.517187 
z
" clip-path="url(#pf92b2104f9)" style="fill: #add8e6; stroke: #add8e6; stroke-linejoin: miter"/>
   </g>
   <g id="patch_47">
    <path d="M 401.265797 359.517187 
L 401.265797 26.877187 
L 400.187191 26.877187 
L 400.187191 359.517187 
z
" clip-path="url(#pf92b2104f9)" style="fill: #add8e6; stroke: #add8e6; stroke-linejoin: miter"/>
   </g>
   <g id="patch_48">
    <path d="M 401.810849 359.517187 
L 401.810849 26.877187 
L 400.772107 26.877187 
L 400.772107 359.517187 
z
" clip-path="url(#pf92b2104f9)" style="fill: #add8e6; stroke: #add8e6; stroke-linejoin: miter"/>
   </g>
   <g id="patch_49">
    <path d="M 414.609996 359.517187 
L 414.609996 26.877187 
L 401.892109 26.877187 
L 401.892109 359.517187 
z
" clip-path="url(#pf92b2104f9)" style="fill: #add8e6; stroke: #add8e6; stroke-linejoin: miter"/>
   </g>
   <g id="patch_50">
    <path d="M 402.148153 359.517187 
L 402.148153 26.877187 
L 402.322171 26.877187 
L 402.322171 359.517187 
z
" clip-path="url(#pf92b2104f9)" style="fill: #add8e6; stroke: #add8e6; stroke-linejoin: miter"/>
   </g>
   <g id="patch_51">
    <path d="M 426.434794 359.517187 
L 426.434794 26.877187 
L 412.988637 26.877187 
L 412.988637 359.517187 
z
" clip-path="url(#pf92b2104f9)" style="fill: #add8e6; stroke: #add8e6; stroke-linejoin: miter"/>
   </g>
   <g id="patch_52">
    <path d="M 413.464696 359.517187 
L 413.464696 26.877187 
L 413.319808 26.877187 
L 413.319808 359.517187 
z
" clip-path="url(#pf92b2104f9)" style="fill: #add8e6; stroke: #add8e6; stroke-linejoin: miter"/>
   </g>
   <g id="patch_53">
    <path d="M 413.817332 359.517187 
L 413.817332 26.877187 
L 413.980617 26.877187 
L 413.980617 359.517187 
z
" clip-path="url(#pf92b2104f9)" style="fill: #add8e6; stroke: #add8e6; stroke-linejoin: miter"/>
   </g>
   <g id="patch_54">
    <path d="M 418.492056 359.517187 
L 418.492056 26.877187 
L 418.723569 26.877187 
L 418.723569 359.517187 
z
" clip-path="url(#pf92b2104f9)" style="fill: #add8e6; stroke: #add8e6; stroke-linejoin: miter"/>
   </g>
   <g id="patch_55">
    <path d="M 421.369104 359.517187 
L 421.369104 26.877187 
L 421.797633 26.877187 
L 421.797633 359.517187 
z
" clip-path="url(#pf92b2104f9)" style="fill: #add8e6; stroke: #add8e6; stroke-linejoin: miter"/>
   </g>
   <g id="patch_56">
    <path d="M 435.321216 359.517187 
L 435.321216 26.877187 
L 435.883133 26.877187 
L 435.883133 359.517187 
z
" clip-path="url(#pf92b2104f9)" style="fill: #add8e6; stroke: #add8e6; stroke-linejoin: miter"/>
   </g>
   <g id="patch_57">
    <path d="M 441.618831 359.517187 
L 441.618831 26.877187 
L 442.548716 26.877187 
L 442.548716 359.517187 
z
" clip-path="url(#pf92b2104f9)" style="fill: #add8e6; stroke: #add8e6; stroke-linejoin: miter"/>
   </g>
   <g id="patch_58">
    <path d="M 463.327398 359.517187 
L 463.327398 26.877187 
L 449.993931 26.877187 
L 449.993931 359.517187 
z
" clip-path="url(#pf92b2104f9)" style="fill: #add8e6; stroke: #add8e6; stroke-linejoin: miter"/>
   </g>
   <g id="patch_59">
    <path d="M 450.599545 359.517187 
L 450.599545 26.877187 
L 450.639408 26.877187 
L 450.639408 359.517187 
z
" clip-path="url(#pf92b2104f9)" style="fill: #add8e6; stroke: #add8e6; stroke-linejoin: miter"/>
   </g>
   <g id="patch_60">
    <path d="M 454.476239 359.517187 
L 454.476239 26.877187 
L 454.50537 26.877187 
L 454.50537 359.517187 
z
" clip-path="url(#pf92b2104f9)" style="fill: #add8e6; stroke: #add8e6; stroke-linejoin: miter"/>
   </g>
   <g id="patch_61">
    <path d="M 456.930124 359.517187 
L 456.930124 26.877187 
L 456.873396 26.877187 
L 456.873396 359.517187 
z
" clip-path="url(#pf92b2104f9)" style="fill: #add8e6; stroke: #add8e6; stroke-linejoin: miter"/>
   </g>
   <g id="patch_62">
    <path d="M 467.896331 359.517187 
L 467.896331 26.877187 
L 467.944627 26.877187 
L 467.944627 359.517187 
z
" clip-path="url(#pf92b2104f9)" style="fill: #add8e6; stroke: #add8e6; stroke-linejoin: miter"/>
   </g>
   <g id="patch_63">
    <path d="M 476.899276 359.517187 
L 476.899276 26.877187 
L 477.012733 26.877187 
L 477.012733 359.517187 
z
" clip-path="url(#pf92b2104f9)" style="fill: #add8e6; stroke: #add8e6; stroke-linejoin: miter"/>
   </g>
   <g id="patch_64">
    <path d="M 480.348974 359.517187 
L 480.348974 26.877187 
L 479.762525 26.877187 
L 479.762525 359.517187 
z
" clip-path="url(#pf92b2104f9)" style="fill: #add8e6; stroke: #add8e6; stroke-linejoin: miter"/>
   </g>
   <g id="patch_65">
    <path d="M 489.706855 359.517187 
L 489.706855 26.877187 
L 490.051825 26.877187 
L 490.051825 359.517187 
z
" clip-path="url(#pf92b2104f9)" style="fill: #add8e6; stroke: #add8e6; stroke-linejoin: miter"/>
   </g>
   <g id="patch_66">
    <path d="M 498.552647 359.517187 
L 498.552647 26.877187 
L 498.466022 26.877187 
L 498.466022 359.517187 
z
" clip-path="url(#pf92b2104f9)" style="fill: #add8e6; stroke: #add8e6; stroke-linejoin: miter"/>
   </g>
   <g id="patch_67">
    <path d="M 513.800312 359.517187 
L 513.800312 26.877187 
L 500.488311 26.877187 
L 500.488311 359.517187 
z
" clip-path="url(#pf92b2104f9)" style="fill: #add8e6; stroke: #add8e6; stroke-linejoin: miter"/>
   </g>
   <g id="patch_68">
    <path d="M 504.759804 359.517187 
L 504.759804 26.877187 
L 505.396082 26.877187 
L 505.396082 359.517187 
z
" clip-path="url(#pf92b2104f9)" style="fill: #add8e6; stroke: #add8e6; stroke-linejoin: miter"/>
   </g>
   <g id="patch_69">
    <path d="M 519.129713 359.517187 
L 519.129713 26.877187 
L 518.217459 26.877187 
L 518.217459 359.517187 
z
" clip-path="url(#pf92b2104f9)" style="fill: #add8e6; stroke: #add8e6; stroke-linejoin: miter"/>
   </g>
   <g id="patch_70">
    <path d="M 522.183079 359.517187 
L 522.183079 26.877187 
L 521.5606 26.877187 
L 521.5606 359.517187 
z
" clip-path="url(#pf92b2104f9)" style="fill: #add8e6; stroke: #add8e6; stroke-linejoin: miter"/>
   </g>
   <g id="patch_71">
    <path d="M 526.078171 359.517187 
L 526.078171 26.877187 
L 526.323483 26.877187 
L 526.323483 359.517187 
z
" clip-path="url(#pf92b2104f9)" style="fill: #add8e6; stroke: #add8e6; stroke-linejoin: miter"/>
   </g>
   <g id="patch_72">
    <path d="M 551.478681 359.517187 
L 551.478681 26.877187 
L 538.593675 26.877187 
L 538.593675 359.517187 
z
" clip-path="url(#pf92b2104f9)" style="fill: #add8e6; stroke: #add8e6; stroke-linejoin: miter"/>
   </g>
   <g id="patch_73">
    <path d="M 597.63564 359.517187 
L 597.63564 26.877187 
L 597.94918 26.877187 
L 597.94918 359.517187 
z
" clip-path="url(#pf92b2104f9)" style="fill: #add8e6; stroke: #add8e6; stroke-linejoin: miter"/>
   </g>
   <g id="patch_74">
    <path d="M 625.363546 359.517187 
L 625.363546 26.877187 
L 612.151203 26.877187 
L 612.151203 359.517187 
z
" clip-path="url(#pf92b2104f9)" style="fill: #add8e6; stroke: #add8e6; stroke-linejoin: miter"/>
   </g>
   <g id="patch_75">
    <path d="M 646.676547 359.517187 
L 646.676547 26.877187 
L 646.837533 26.877187 
L 646.837533 359.517187 
z
" clip-path="url(#pf92b2104f9)" style="fill: #add8e6; stroke: #add8e6; stroke-linejoin: miter"/>
   </g>
   <g id="patch_76">
    <path d="M 647.166404 359.517187 
L 647.166404 26.877187 
L 647.269895 26.877187 
L 647.269895 359.517187 
z
" clip-path="url(#pf92b2104f9)" style="fill: #add8e6; stroke: #add8e6; stroke-linejoin: miter"/>
   </g>
   <g id="patch_77">
    <path d="M 647.577302 359.517187 
L 647.577302 26.877187 
L 647.388718 26.877187 
L 647.388718 359.517187 
z
" clip-path="url(#pf92b2104f9)" style="fill: #add8e6; stroke: #add8e6; stroke-linejoin: miter"/>
   </g>
   <g id="patch_78">
    <path d="M 663.705023 359.517187 
L 663.705023 26.877187 
L 652.528002 26.877187 
L 652.528002 359.517187 
z
" clip-path="url(#pf92b2104f9)" style="fill: #add8e6; stroke: #add8e6; stroke-linejoin: miter"/>
   </g>
   <g id="patch_79">
    <path d="M 674.261099 359.517187 
L 674.261099 26.877187 
L 674.235801 26.877187 
L 674.235801 359.517187 
z
" clip-path="url(#pf92b2104f9)" style="fill: #add8e6; stroke: #add8e6; stroke-linejoin: miter"/>
   </g>
   <g id="patch_80">
    <path d="M 674.548574 359.517187 
L 674.548574 26.877187 
L 674.492612 26.877187 
L 674.492612 359.517187 
z
" clip-path="url(#pf92b2104f9)" style="fill: #add8e6; stroke: #add8e6; stroke-linejoin: miter"/>
   </g>
   <g id="patch_81">
    <path d="M 701.871716 359.517187 
L 701.871716 26.877187 
L 697.620154 26.877187 
L 697.620154 359.517187 
z
" clip-path="url(#pf92b2104f9)" style="fill: #add8e6; stroke: #add8e6; stroke-linejoin: miter"/>
   </g>
   <g id="patch_82">
    <path d="M 712.28827 359.517187 
L 712.28827 26.877187 
L 712.148749 26.877187 
L 712.148749 359.517187 
z
" clip-path="url(#pf92b2104f9)" style="fill: #add8e6; stroke: #add8e6; stroke-linejoin: miter"/>
   </g>
   <g id="patch_83">
    <path d="M 741.146911 359.517187 
L 741.146911 26.877187 
L 728.356197 26.877187 
L 728.356197 359.517187 
z
" clip-path="url(#pf92b2104f9)" style="fill: #add8e6; stroke: #add8e6; stroke-linejoin: miter"/>
   </g>
   <g id="patch_84">
    <path d="M 747.7389 359.517187 
L 747.7389 26.877187 
L 737.558458 26.877187 
L 737.558458 359.517187 
z
" clip-path="url(#pf92b2104f9)" style="fill: #add8e6; stroke: #add8e6; stroke-linejoin: miter"/>
   </g>
   <g id="patch_85">
    <path d="M 761.350642 359.517187 
L 761.350642 26.877187 
L 752.235773 26.877187 
L 752.235773 359.517187 
z
" clip-path="url(#pf92b2104f9)" style="fill: #add8e6; stroke: #add8e6; stroke-linejoin: miter"/>
   </g>
   <g id="patch_86">
    <path d="M 784.406124 359.517187 
L 784.406124 26.877187 
L 773.039752 26.877187 
L 773.039752 359.517187 
z
" clip-path="url(#pf92b2104f9)" style="fill: #add8e6; stroke: #add8e6; stroke-linejoin: miter"/>
   </g>
   <g id="patch_87">
    <path d="M 774.040931 359.517187 
L 774.040931 26.877187 
L 774.247913 26.877187 
L 774.247913 359.517187 
z
" clip-path="url(#pf92b2104f9)" style="fill: #add8e6; stroke: #add8e6; stroke-linejoin: miter"/>
   </g>
   <g id="patch_88">
    <path d="M 788.093468 359.517187 
L 788.093468 26.877187 
L 774.747736 26.877187 
L 774.747736 359.517187 
z
" clip-path="url(#pf92b2104f9)" style="fill: #add8e6; stroke: #add8e6; stroke-linejoin: miter"/>
   </g>
   <g id="patch_89">
    <path d="M 790.251446 359.517187 
L 790.251446 26.877187 
L 777.104263 26.877187 
L 777.104263 359.517187 
z
" clip-path="url(#pf92b2104f9)" style="fill: #add8e6; stroke: #add8e6; stroke-linejoin: miter"/>
   </g>
   <g id="patch_90">
    <path d="M 779.051426 359.517187 
L 779.051426 26.877187 
L 779.347333 26.877187 
L 779.347333 359.517187 
z
" clip-path="url(#pf92b2104f9)" style="fill: #add8e6; stroke: #add8e6; stroke-linejoin: miter"/>
   </g>
   <g id="patch_91">
    <path d="M 786.88454 359.517187 
L 786.88454 26.877187 
L 787.223377 26.877187 
L 787.223377 359.517187 
z
" clip-path="url(#pf92b2104f9)" style="fill: #add8e6; stroke: #add8e6; stroke-linejoin: miter"/>
   </g>
   <g id="patch_92">
    <path d="M 812.762642 359.517187 
L 812.762642 26.877187 
L 805.151075 26.877187 
L 805.151075 359.517187 
z
" clip-path="url(#pf92b2104f9)" style="fill: #add8e6; stroke: #add8e6; stroke-linejoin: miter"/>
   </g>
   <g id="patch_93">
    <path d="M 817.805334 359.517187 
L 817.805334 26.877187 
L 818.216998 26.877187 
L 818.216998 359.517187 
z
" clip-path="url(#pf92b2104f9)" style="fill: #add8e6; stroke: #add8e6; stroke-linejoin: miter"/>
   </g>
   <g id="patch_94">
    <path d="M 843.944079 359.517187 
L 843.944079 26.877187 
L 830.52322 26.877187 
L 830.52322 359.517187 
z
" clip-path="url(#pf92b2104f9)" style="fill: #add8e6; stroke: #add8e6; stroke-linejoin: miter"/>
   </g>
   <g id="patch_95">
    <path d="M 837.493143 359.517187 
L 837.493143 26.877187 
L 830.800729 26.877187 
L 830.800729 359.517187 
z
" clip-path="url(#pf92b2104f9)" style="fill: #add8e6; stroke: #add8e6; stroke-linejoin: miter"/>
   </g>
   <g id="patch_96">
    <path d="M 831.822607 359.517187 
L 831.822607 26.877187 
L 831.476104 26.877187 
L 831.476104 359.517187 
z
" clip-path="url(#pf92b2104f9)" style="fill: #add8e6; stroke: #add8e6; stroke-linejoin: miter"/>
   </g>
   <g id="patch_97">
    <path d="M 834.658258 359.517187 
L 834.658258 26.877187 
L 831.883168 26.877187 
L 831.883168 359.517187 
z
" clip-path="url(#pf92b2104f9)" style="fill: #add8e6; stroke: #add8e6; stroke-linejoin: miter"/>
   </g>
   <g id="patch_98">
    <path d="M 839.418842 359.517187 
L 839.418842 26.877187 
L 839.872669 26.877187 
L 839.872669 359.517187 
z
" clip-path="url(#pf92b2104f9)" style="fill: #add8e6; stroke: #add8e6; stroke-linejoin: miter"/>
   </g>
   <g id="patch_99">
    <path d="M 856.271 359.517187 
L 856.271 26.877187 
L 843.315467 26.877187 
L 843.315467 359.517187 
z
" clip-path="url(#pf92b2104f9)" style="fill: #add8e6; stroke: #add8e6; stroke-linejoin: miter"/>
   </g>
   <g id="patch_100">
    <path d="M 863.588192 359.517187 
L 863.588192 26.877187 
L 851.353264 26.877187 
L 851.353264 359.517187 
z
" clip-path="url(#pf92b2104f9)" style="fill: #add8e6; stroke: #add8e6; stroke-linejoin: miter"/>
   </g>
   <g id="patch_101">
    <path d="M 892.518127 359.517187 
L 892.518127 26.877187 
L 892.653048 26.877187 
L 892.653048 359.517187 
z
" clip-path="url(#pf92b2104f9)" style="fill: #add8e6; stroke: #add8e6; stroke-linejoin: miter"/>
   </g>
   <g id="patch_102">
    <path d="M 906.766913 359.517187 
L 906.766913 26.877187 
L 893.290092 26.877187 
L 893.290092 359.517187 
z
" clip-path="url(#pf92b2104f9)" style="fill: #add8e6; stroke: #add8e6; stroke-linejoin: miter"/>
   </g>
   <g id="patch_103">
    <path d="M 908.532391 359.517187 
L 908.532391 26.877187 
L 908.572255 26.877187 
L 908.572255 359.517187 
z
" clip-path="url(#pf92b2104f9)" style="fill: #add8e6; stroke: #add8e6; stroke-linejoin: miter"/>
   </g>
   <g id="patch_104">
    <path d="M 908.928723 359.517187 
L 908.928723 26.877187 
L 909.029148 26.877187 
L 909.029148 359.517187 
z
" clip-path="url(#pf92b2104f9)" style="fill: #add8e6; stroke: #add8e6; stroke-linejoin: miter"/>
   </g>
   <g id="patch_105">
    <path d="M 915.349761 359.517187 
L 915.349761 26.877187 
L 909.221564 26.877187 
L 909.221564 359.517187 
z
" clip-path="url(#pf92b2104f9)" style="fill: #add8e6; stroke: #add8e6; stroke-linejoin: miter"/>
   </g>
   <g id="patch_106">
    <path d="M 909.522071 359.517187 
L 909.522071 26.877187 
L 909.421647 26.877187 
L 909.421647 359.517187 
z
" clip-path="url(#pf92b2104f9)" style="fill: #add8e6; stroke: #add8e6; stroke-linejoin: miter"/>
   </g>
   <g id="patch_107">
    <path d="M 914.191429 359.517187 
L 914.191429 26.877187 
L 909.77045 26.877187 
L 909.77045 359.517187 
z
" clip-path="url(#pf92b2104f9)" style="fill: #add8e6; stroke: #add8e6; stroke-linejoin: miter"/>
   </g>
   <g id="patch_108">
    <path d="M 938.540165 359.517187 
L 938.540165 26.877187 
L 938.55703 26.877187 
L 938.55703 359.517187 
z
" clip-path="url(#pf92b2104f9)" style="fill: #add8e6; stroke: #add8e6; stroke-linejoin: miter"/>
   </g>
   <g id="patch_109">
    <path d="M 938.815374 359.517187 
L 938.815374 26.877187 
L 939.210173 26.877187 
L 939.210173 359.517187 
z
" clip-path="url(#pf92b2104f9)" style="fill: #add8e6; stroke: #add8e6; stroke-linejoin: miter"/>
   </g>
   <g id="patch_110">
    <path d="M 961.151019 359.517187 
L 961.151019 26.877187 
L 961.696837 26.877187 
L 961.696837 359.517187 
z
" clip-path="url(#pf92b2104f9)" style="fill: #add8e6; stroke: #add8e6; stroke-linejoin: miter"/>
   </g>
   <g id="patch_111">
    <path d="M 992.984832 359.517187 
L 992.984832 26.877187 
L 993.167283 26.877187 
L 993.167283 359.517187 
z
" clip-path="url(#pf92b2104f9)" style="fill: #add8e6; stroke: #add8e6; stroke-linejoin: miter"/>
   </g>
   <g id="patch_112">
    <path d="M 1012.899555 359.517187 
L 1012.899555 26.877187 
L 1012.814463 26.877187 
L 1012.814463 359.517187 
z
" clip-path="url(#pf92b2104f9)" style="fill: #add8e6; stroke: #add8e6; stroke-linejoin: miter"/>
   </g>
   <g id="patch_113">
    <path d="M 1045.654821 359.517187 
L 1045.654821 26.877187 
L 1046.388457 26.877187 
L 1046.388457 359.517187 
z
" clip-path="url(#pf92b2104f9)" style="fill: #add8e6; stroke: #add8e6; stroke-linejoin: miter"/>
   </g>
   <g id="patch_114">
    <path d="M 1061.671386 359.517187 
L 1061.671386 26.877187 
L 1062.730826 26.877187 
L 1062.730826 359.517187 
z
" clip-path="url(#pf92b2104f9)" style="fill: #add8e6; stroke: #add8e6; stroke-linejoin: miter"/>
   </g>
   <g id="patch_115">
    <path d="M 1071.664778 359.517187 
L 1071.664778 26.877187 
L 1071.694675 26.877187 
L 1071.694675 359.517187 
z
" clip-path="url(#pf92b2104f9)" style="fill: #add8e6; stroke: #add8e6; stroke-linejoin: miter"/>
   </g>
   <g id="patch_116">
    <path d="M 1072.290323 359.517187 
L 1072.290323 26.877187 
L 1072.018947 26.877187 
L 1072.018947 359.517187 
z
" clip-path="url(#pf92b2104f9)" style="fill: #add8e6; stroke: #add8e6; stroke-linejoin: miter"/>
   </g>
   <g id="patch_117">
    <path d="M 1072.62686 359.517187 
L 1072.62686 26.877187 
L 1072.228228 26.877187 
L 1072.228228 359.517187 
z
" clip-path="url(#pf92b2104f9)" style="fill: #add8e6; stroke: #add8e6; stroke-linejoin: miter"/>
   </g>
   <g id="patch_118">
    <path d="M 1072.971063 359.517187 
L 1072.971063 26.877187 
L 1073.069188 26.877187 
L 1073.069188 359.517187 
z
" clip-path="url(#pf92b2104f9)" style="fill: #add8e6; stroke: #add8e6; stroke-linejoin: miter"/>
   </g>
   <g id="patch_119">
    <path d="M 1073.342864 359.517187 
L 1073.342864 26.877187 
L 1073.497717 26.877187 
L 1073.497717 359.517187 
z
" clip-path="url(#pf92b2104f9)" style="fill: #add8e6; stroke: #add8e6; stroke-linejoin: miter"/>
   </g>
   <g id="patch_120">
    <path d="M 1074.14856 359.517187 
L 1074.14856 26.877187 
L 1073.626506 26.877187 
L 1073.626506 359.517187 
z
" clip-path="url(#pf92b2104f9)" style="fill: #add8e6; stroke: #add8e6; stroke-linejoin: miter"/>
   </g>
   <g id="patch_121">
    <path d="M 1083.676626 359.517187 
L 1083.676626 26.877187 
L 1083.863676 26.877187 
L 1083.863676 359.517187 
z
" clip-path="url(#pf92b2104f9)" style="fill: #add8e6; stroke: #add8e6; stroke-linejoin: miter"/>
   </g>
   <g id="patch_122">
    <path d="M 1084.112055 359.517187 
L 1084.112055 26.877187 
L 1084.168017 26.877187 
L 1084.168017 359.517187 
z
" clip-path="url(#pf92b2104f9)" style="fill: #add8e6; stroke: #add8e6; stroke-linejoin: miter"/>
   </g>
   <g id="patch_123">
    <path d="M 1093.765843 359.517187 
L 1093.765843 26.877187 
L 1094.011921 26.877187 
L 1094.011921 359.517187 
z
" clip-path="url(#pf92b2104f9)" style="fill: #add8e6; stroke: #add8e6; stroke-linejoin: miter"/>
   </g>
   <g id="patch_124">
    <path d="M 1114.507727 359.517187 
L 1114.507727 26.877187 
L 1101.018641 26.877187 
L 1101.018641 359.517187 
z
" clip-path="url(#pf92b2104f9)" style="fill: #add8e6; stroke: #add8e6; stroke-linejoin: miter"/>
   </g>
   <g id="patch_125">
    <path d="M 210.352609 359.517187 
L 210.352609 26.877187 
L 375.938114 26.877187 
L 375.938114 359.517187 
z
" clip-path="url(#pf92b2104f9)" style="fill: #808080; opacity: 0.4; stroke: #808080; stroke-linejoin: miter"/>
   </g>
   <g id="patch_126">
    <path d="M 541.523619 359.517187 
L 541.523619 26.877187 
L 707.109124 26.877187 
L 707.109124 359.517187 
z
" clip-path="url(#pf92b2104f9)" style="fill: #808080; opacity: 0.4; stroke: #808080; stroke-linejoin: miter"/>
   </g>
   <g id="patch_127">
    <path d="M 872.694629 359.517187 
L 872.694629 26.877187 
L 1038.280133 26.877187 
L 1038.280133 359.517187 
z
" clip-path="url(#pf92b2104f9)" style="fill: #808080; opacity: 0.4; stroke: #808080; stroke-linejoin: miter"/>
   </g>
   <g id="matplotlib.axis_1">
    <g id="xtick_1">
     <g id="line2d_1">
      <defs>
       <path id="mcc6656c4a0" d="M 0 0 
L 0 3.5 
" style="stroke: #000000; stroke-width: 0.8"/>
      </defs>
      <g>
       <use xlink:href="#mcc6656c4a0" x="111.14696" y="359.517187" style="stroke: #000000; stroke-width: 0.8"/>
      </g>
     </g>
     <g id="text_1">
      <!-- 09-02 12 -->
      <g transform="translate(88.666492 374.115625) scale(0.1 -0.1)">
       <defs>
        <path id="DejaVuSans-30" d="M 2034 4250 
Q 1547 4250 1301 3770 
Q 1056 3291 1056 2328 
Q 1056 1369 1301 889 
Q 1547 409 2034 409 
Q 2525 409 2770 889 
Q 3016 1369 3016 2328 
Q 3016 3291 2770 3770 
Q 2525 4250 2034 4250 
z
M 2034 4750 
Q 2819 4750 3233 4129 
Q 3647 3509 3647 2328 
Q 3647 1150 3233 529 
Q 2819 -91 2034 -91 
Q 1250 -91 836 529 
Q 422 1150 422 2328 
Q 422 3509 836 4129 
Q 1250 4750 2034 4750 
z
" transform="scale(0.015625)"/>
        <path id="DejaVuSans-39" d="M 703 97 
L 703 672 
Q 941 559 1184 500 
Q 1428 441 1663 441 
Q 2288 441 2617 861 
Q 2947 1281 2994 2138 
Q 2813 1869 2534 1725 
Q 2256 1581 1919 1581 
Q 1219 1581 811 2004 
Q 403 2428 403 3163 
Q 403 3881 828 4315 
Q 1253 4750 1959 4750 
Q 2769 4750 3195 4129 
Q 3622 3509 3622 2328 
Q 3622 1225 3098 567 
Q 2575 -91 1691 -91 
Q 1453 -91 1209 -44 
Q 966 3 703 97 
z
M 1959 2075 
Q 2384 2075 2632 2365 
Q 2881 2656 2881 3163 
Q 2881 3666 2632 3958 
Q 2384 4250 1959 4250 
Q 1534 4250 1286 3958 
Q 1038 3666 1038 3163 
Q 1038 2656 1286 2365 
Q 1534 2075 1959 2075 
z
" transform="scale(0.015625)"/>
        <path id="DejaVuSans-2d" d="M 313 2009 
L 1997 2009 
L 1997 1497 
L 313 1497 
L 313 2009 
z
" transform="scale(0.015625)"/>
        <path id="DejaVuSans-32" d="M 1228 531 
L 3431 531 
L 3431 0 
L 469 0 
L 469 531 
Q 828 903 1448 1529 
Q 2069 2156 2228 2338 
Q 2531 2678 2651 2914 
Q 2772 3150 2772 3378 
Q 2772 3750 2511 3984 
Q 2250 4219 1831 4219 
Q 1534 4219 1204 4116 
Q 875 4013 500 3803 
L 500 4441 
Q 881 4594 1212 4672 
Q 1544 4750 1819 4750 
Q 2544 4750 2975 4387 
Q 3406 4025 3406 3419 
Q 3406 3131 3298 2873 
Q 3191 2616 2906 2266 
Q 2828 2175 2409 1742 
Q 1991 1309 1228 531 
z
" transform="scale(0.015625)"/>
        <path id="DejaVuSans-20" transform="scale(0.015625)"/>
        <path id="DejaVuSans-31" d="M 794 531 
L 1825 531 
L 1825 4091 
L 703 3866 
L 703 4441 
L 1819 4666 
L 2450 4666 
L 2450 531 
L 3481 531 
L 3481 0 
L 794 0 
L 794 531 
z
" transform="scale(0.015625)"/>
       </defs>
       <use xlink:href="#DejaVuSans-30"/>
       <use xlink:href="#DejaVuSans-39" x="63.623047"/>
       <use xlink:href="#DejaVuSans-2d" x="127.246094"/>
       <use xlink:href="#DejaVuSans-30" x="163.330078"/>
       <use xlink:href="#DejaVuSans-32" x="226.953125"/>
       <use xlink:href="#DejaVuSans-20" x="290.576172"/>
       <use xlink:href="#DejaVuSans-31" x="322.363281"/>
       <use xlink:href="#DejaVuSans-32" x="385.986328"/>
      </g>
     </g>
    </g>
    <g id="xtick_2">
     <g id="line2d_2">
      <g>
       <use xlink:href="#mcc6656c4a0" x="276.732465" y="359.517187" style="stroke: #000000; stroke-width: 0.8"/>
      </g>
     </g>
     <g id="text_2">
      <!-- 09-03 00 -->
      <g transform="translate(254.251996 374.115625) scale(0.1 -0.1)">
       <defs>
        <path id="DejaVuSans-33" d="M 2597 2516 
Q 3050 2419 3304 2112 
Q 3559 1806 3559 1356 
Q 3559 666 3084 287 
Q 2609 -91 1734 -91 
Q 1441 -91 1130 -33 
Q 819 25 488 141 
L 488 750 
Q 750 597 1062 519 
Q 1375 441 1716 441 
Q 2309 441 2620 675 
Q 2931 909 2931 1356 
Q 2931 1769 2642 2001 
Q 2353 2234 1838 2234 
L 1294 2234 
L 1294 2753 
L 1863 2753 
Q 2328 2753 2575 2939 
Q 2822 3125 2822 3475 
Q 2822 3834 2567 4026 
Q 2313 4219 1838 4219 
Q 1578 4219 1281 4162 
Q 984 4106 628 3988 
L 628 4550 
Q 988 4650 1302 4700 
Q 1616 4750 1894 4750 
Q 2613 4750 3031 4423 
Q 3450 4097 3450 3541 
Q 3450 3153 3228 2886 
Q 3006 2619 2597 2516 
z
" transform="scale(0.015625)"/>
       </defs>
       <use xlink:href="#DejaVuSans-30"/>
       <use xlink:href="#DejaVuSans-39" x="63.623047"/>
       <use xlink:href="#DejaVuSans-2d" x="127.246094"/>
       <use xlink:href="#DejaVuSans-30" x="163.330078"/>
       <use xlink:href="#DejaVuSans-33" x="226.953125"/>
       <use xlink:href="#DejaVuSans-20" x="290.576172"/>
       <use xlink:href="#DejaVuSans-30" x="322.363281"/>
       <use xlink:href="#DejaVuSans-30" x="385.986328"/>
      </g>
     </g>
    </g>
    <g id="xtick_3">
     <g id="line2d_3">
      <g>
       <use xlink:href="#mcc6656c4a0" x="442.31797" y="359.517187" style="stroke: #000000; stroke-width: 0.8"/>
      </g>
     </g>
     <g id="text_3">
      <!-- 09-03 12 -->
      <g transform="translate(419.837501 374.115625) scale(0.1 -0.1)">
       <use xlink:href="#DejaVuSans-30"/>
       <use xlink:href="#DejaVuSans-39" x="63.623047"/>
       <use xlink:href="#DejaVuSans-2d" x="127.246094"/>
       <use xlink:href="#DejaVuSans-30" x="163.330078"/>
       <use xlink:href="#DejaVuSans-33" x="226.953125"/>
       <use xlink:href="#DejaVuSans-20" x="290.576172"/>
       <use xlink:href="#DejaVuSans-31" x="322.363281"/>
       <use xlink:href="#DejaVuSans-32" x="385.986328"/>
      </g>
     </g>
    </g>
    <g id="xtick_4">
     <g id="line2d_4">
      <g>
       <use xlink:href="#mcc6656c4a0" x="607.903475" y="359.517187" style="stroke: #000000; stroke-width: 0.8"/>
      </g>
     </g>
     <g id="text_4">
      <!-- 09-04 00 -->
      <g transform="translate(585.423006 374.115625) scale(0.1 -0.1)">
       <defs>
        <path id="DejaVuSans-34" d="M 2419 4116 
L 825 1625 
L 2419 1625 
L 2419 4116 
z
M 2253 4666 
L 3047 4666 
L 3047 1625 
L 3713 1625 
L 3713 1100 
L 3047 1100 
L 3047 0 
L 2419 0 
L 2419 1100 
L 313 1100 
L 313 1709 
L 2253 4666 
z
" transform="scale(0.015625)"/>
       </defs>
       <use xlink:href="#DejaVuSans-30"/>
       <use xlink:href="#DejaVuSans-39" x="63.623047"/>
       <use xlink:href="#DejaVuSans-2d" x="127.246094"/>
       <use xlink:href="#DejaVuSans-30" x="163.330078"/>
       <use xlink:href="#DejaVuSans-34" x="226.953125"/>
       <use xlink:href="#DejaVuSans-20" x="290.576172"/>
       <use xlink:href="#DejaVuSans-30" x="322.363281"/>
       <use xlink:href="#DejaVuSans-30" x="385.986328"/>
      </g>
     </g>
    </g>
    <g id="xtick_5">
     <g id="line2d_5">
      <g>
       <use xlink:href="#mcc6656c4a0" x="773.48898" y="359.517187" style="stroke: #000000; stroke-width: 0.8"/>
      </g>
     </g>
     <g id="text_5">
      <!-- 09-04 12 -->
      <g transform="translate(751.008511 374.115625) scale(0.1 -0.1)">
       <use xlink:href="#DejaVuSans-30"/>
       <use xlink:href="#DejaVuSans-39" x="63.623047"/>
       <use xlink:href="#DejaVuSans-2d" x="127.246094"/>
       <use xlink:href="#DejaVuSans-30" x="163.330078"/>
       <use xlink:href="#DejaVuSans-34" x="226.953125"/>
       <use xlink:href="#DejaVuSans-20" x="290.576172"/>
       <use xlink:href="#DejaVuSans-31" x="322.363281"/>
       <use xlink:href="#DejaVuSans-32" x="385.986328"/>
      </g>
     </g>
    </g>
    <g id="xtick_6">
     <g id="line2d_6">
      <g>
       <use xlink:href="#mcc6656c4a0" x="939.074484" y="359.517187" style="stroke: #000000; stroke-width: 0.8"/>
      </g>
     </g>
     <g id="text_6">
      <!-- 09-05 00 -->
      <g transform="translate(916.594016 374.115625) scale(0.1 -0.1)">
       <defs>
        <path id="DejaVuSans-35" d="M 691 4666 
L 3169 4666 
L 3169 4134 
L 1269 4134 
L 1269 2991 
Q 1406 3038 1543 3061 
Q 1681 3084 1819 3084 
Q 2600 3084 3056 2656 
Q 3513 2228 3513 1497 
Q 3513 744 3044 326 
Q 2575 -91 1722 -91 
Q 1428 -91 1123 -41 
Q 819 9 494 109 
L 494 744 
Q 775 591 1075 516 
Q 1375 441 1709 441 
Q 2250 441 2565 725 
Q 2881 1009 2881 1497 
Q 2881 1984 2565 2268 
Q 2250 2553 1709 2553 
Q 1456 2553 1204 2497 
Q 953 2441 691 2322 
L 691 4666 
z
" transform="scale(0.015625)"/>
       </defs>
       <use xlink:href="#DejaVuSans-30"/>
       <use xlink:href="#DejaVuSans-39" x="63.623047"/>
       <use xlink:href="#DejaVuSans-2d" x="127.246094"/>
       <use xlink:href="#DejaVuSans-30" x="163.330078"/>
       <use xlink:href="#DejaVuSans-35" x="226.953125"/>
       <use xlink:href="#DejaVuSans-20" x="290.576172"/>
       <use xlink:href="#DejaVuSans-30" x="322.363281"/>
       <use xlink:href="#DejaVuSans-30" x="385.986328"/>
      </g>
     </g>
    </g>
    <g id="xtick_7">
     <g id="line2d_7">
      <g>
       <use xlink:href="#mcc6656c4a0" x="1104.659989" y="359.517187" style="stroke: #000000; stroke-width: 0.8"/>
      </g>
     </g>
     <g id="text_7">
      <!-- 09-05 12 -->
      <g transform="translate(1082.179521 374.115625) scale(0.1 -0.1)">
       <use xlink:href="#DejaVuSans-30"/>
       <use xlink:href="#DejaVuSans-39" x="63.623047"/>
       <use xlink:href="#DejaVuSans-2d" x="127.246094"/>
       <use xlink:href="#DejaVuSans-30" x="163.330078"/>
       <use xlink:href="#DejaVuSans-35" x="226.953125"/>
       <use xlink:href="#DejaVuSans-20" x="290.576172"/>
       <use xlink:href="#DejaVuSans-31" x="322.363281"/>
       <use xlink:href="#DejaVuSans-32" x="385.986328"/>
      </g>
     </g>
    </g>
    <g id="text_8">
     <!-- Time -->
     <g transform="translate(592.554688 389.313437) scale(0.12 -0.12)">
      <defs>
       <path id="DejaVuSans-54" d="M -19 4666 
L 3928 4666 
L 3928 4134 
L 2272 4134 
L 2272 0 
L 1638 0 
L 1638 4134 
L -19 4134 
L -19 4666 
z
" transform="scale(0.015625)"/>
       <path id="DejaVuSans-69" d="M 603 3500 
L 1178 3500 
L 1178 0 
L 603 0 
L 603 3500 
z
M 603 4863 
L 1178 4863 
L 1178 4134 
L 603 4134 
L 603 4863 
z
" transform="scale(0.015625)"/>
       <path id="DejaVuSans-6d" d="M 3328 2828 
Q 3544 3216 3844 3400 
Q 4144 3584 4550 3584 
Q 5097 3584 5394 3201 
Q 5691 2819 5691 2113 
L 5691 0 
L 5113 0 
L 5113 2094 
Q 5113 2597 4934 2840 
Q 4756 3084 4391 3084 
Q 3944 3084 3684 2787 
Q 3425 2491 3425 1978 
L 3425 0 
L 2847 0 
L 2847 2094 
Q 2847 2600 2669 2842 
Q 2491 3084 2119 3084 
Q 1678 3084 1418 2786 
Q 1159 2488 1159 1978 
L 1159 0 
L 581 0 
L 581 3500 
L 1159 3500 
L 1159 2956 
Q 1356 3278 1631 3431 
Q 1906 3584 2284 3584 
Q 2666 3584 2933 3390 
Q 3200 3197 3328 2828 
z
" transform="scale(0.015625)"/>
       <path id="DejaVuSans-65" d="M 3597 1894 
L 3597 1613 
L 953 1613 
Q 991 1019 1311 708 
Q 1631 397 2203 397 
Q 2534 397 2845 478 
Q 3156 559 3463 722 
L 3463 178 
Q 3153 47 2828 -22 
Q 2503 -91 2169 -91 
Q 1331 -91 842 396 
Q 353 884 353 1716 
Q 353 2575 817 3079 
Q 1281 3584 2069 3584 
Q 2775 3584 3186 3129 
Q 3597 2675 3597 1894 
z
M 3022 2063 
Q 3016 2534 2758 2815 
Q 2500 3097 2075 3097 
Q 1594 3097 1305 2825 
Q 1016 2553 972 2059 
L 3022 2063 
z
" transform="scale(0.015625)"/>
      </defs>
      <use xlink:href="#DejaVuSans-54"/>
      <use xlink:href="#DejaVuSans-69" x="57.958984"/>
      <use xlink:href="#DejaVuSans-6d" x="85.742188"/>
      <use xlink:href="#DejaVuSans-65" x="183.154297"/>
     </g>
    </g>
   </g>
   <g id="matplotlib.axis_2">
    <g id="ytick_1">
     <g id="line2d_8">
      <defs>
       <path id="m3af8579d9f" d="M 0 0 
L -3.5 0 
" style="stroke: #000000; stroke-width: 0.8"/>
      </defs>
      <g>
       <use xlink:href="#m3af8579d9f" x="49.235" y="344.397187" style="stroke: #000000; stroke-width: 0.8"/>
      </g>
     </g>
     <g id="text_9">
      <!-- 0 -->
      <g transform="translate(35.8725 348.196406) scale(0.1 -0.1)">
       <use xlink:href="#DejaVuSans-30"/>
      </g>
     </g>
    </g>
    <g id="ytick_2">
     <g id="line2d_9">
      <g>
       <use xlink:href="#m3af8579d9f" x="49.235" y="305.972791" style="stroke: #000000; stroke-width: 0.8"/>
      </g>
     </g>
     <g id="text_10">
      <!-- 100 -->
      <g transform="translate(23.1475 309.77201) scale(0.1 -0.1)">
       <use xlink:href="#DejaVuSans-31"/>
       <use xlink:href="#DejaVuSans-30" x="63.623047"/>
       <use xlink:href="#DejaVuSans-30" x="127.246094"/>
      </g>
     </g>
    </g>
    <g id="ytick_3">
     <g id="line2d_10">
      <g>
       <use xlink:href="#m3af8579d9f" x="49.235" y="267.548395" style="stroke: #000000; stroke-width: 0.8"/>
      </g>
     </g>
     <g id="text_11">
      <!-- 200 -->
      <g transform="translate(23.1475 271.347613) scale(0.1 -0.1)">
       <use xlink:href="#DejaVuSans-32"/>
       <use xlink:href="#DejaVuSans-30" x="63.623047"/>
       <use xlink:href="#DejaVuSans-30" x="127.246094"/>
      </g>
     </g>
    </g>
    <g id="ytick_4">
     <g id="line2d_11">
      <g>
       <use xlink:href="#m3af8579d9f" x="49.235" y="229.123998" style="stroke: #000000; stroke-width: 0.8"/>
      </g>
     </g>
     <g id="text_12">
      <!-- 300 -->
      <g transform="translate(23.1475 232.923217) scale(0.1 -0.1)">
       <use xlink:href="#DejaVuSans-33"/>
       <use xlink:href="#DejaVuSans-30" x="63.623047"/>
       <use xlink:href="#DejaVuSans-30" x="127.246094"/>
      </g>
     </g>
    </g>
    <g id="ytick_5">
     <g id="line2d_12">
      <g>
       <use xlink:href="#m3af8579d9f" x="49.235" y="190.699602" style="stroke: #000000; stroke-width: 0.8"/>
      </g>
     </g>
     <g id="text_13">
      <!-- 400 -->
      <g transform="translate(23.1475 194.49882) scale(0.1 -0.1)">
       <use xlink:href="#DejaVuSans-34"/>
       <use xlink:href="#DejaVuSans-30" x="63.623047"/>
       <use xlink:href="#DejaVuSans-30" x="127.246094"/>
      </g>
     </g>
    </g>
    <g id="ytick_6">
     <g id="line2d_13">
      <g>
       <use xlink:href="#m3af8579d9f" x="49.235" y="152.275205" style="stroke: #000000; stroke-width: 0.8"/>
      </g>
     </g>
     <g id="text_14">
      <!-- 500 -->
      <g transform="translate(23.1475 156.074424) scale(0.1 -0.1)">
       <use xlink:href="#DejaVuSans-35"/>
       <use xlink:href="#DejaVuSans-30" x="63.623047"/>
       <use xlink:href="#DejaVuSans-30" x="127.246094"/>
      </g>
     </g>
    </g>
    <g id="ytick_7">
     <g id="line2d_14">
      <g>
       <use xlink:href="#m3af8579d9f" x="49.235" y="113.850809" style="stroke: #000000; stroke-width: 0.8"/>
      </g>
     </g>
     <g id="text_15">
      <!-- 600 -->
      <g transform="translate(23.1475 117.650028) scale(0.1 -0.1)">
       <defs>
        <path id="DejaVuSans-36" d="M 2113 2584 
Q 1688 2584 1439 2293 
Q 1191 2003 1191 1497 
Q 1191 994 1439 701 
Q 1688 409 2113 409 
Q 2538 409 2786 701 
Q 3034 994 3034 1497 
Q 3034 2003 2786 2293 
Q 2538 2584 2113 2584 
z
M 3366 4563 
L 3366 3988 
Q 3128 4100 2886 4159 
Q 2644 4219 2406 4219 
Q 1781 4219 1451 3797 
Q 1122 3375 1075 2522 
Q 1259 2794 1537 2939 
Q 1816 3084 2150 3084 
Q 2853 3084 3261 2657 
Q 3669 2231 3669 1497 
Q 3669 778 3244 343 
Q 2819 -91 2113 -91 
Q 1303 -91 875 529 
Q 447 1150 447 2328 
Q 447 3434 972 4092 
Q 1497 4750 2381 4750 
Q 2619 4750 2861 4703 
Q 3103 4656 3366 4563 
z
" transform="scale(0.015625)"/>
       </defs>
       <use xlink:href="#DejaVuSans-36"/>
       <use xlink:href="#DejaVuSans-30" x="63.623047"/>
       <use xlink:href="#DejaVuSans-30" x="127.246094"/>
      </g>
     </g>
    </g>
    <g id="ytick_8">
     <g id="line2d_15">
      <g>
       <use xlink:href="#m3af8579d9f" x="49.235" y="75.426412" style="stroke: #000000; stroke-width: 0.8"/>
      </g>
     </g>
     <g id="text_16">
      <!-- 700 -->
      <g transform="translate(23.1475 79.225631) scale(0.1 -0.1)">
       <defs>
        <path id="DejaVuSans-37" d="M 525 4666 
L 3525 4666 
L 3525 4397 
L 1831 0 
L 1172 0 
L 2766 4134 
L 525 4134 
L 525 4666 
z
" transform="scale(0.015625)"/>
       </defs>
       <use xlink:href="#DejaVuSans-37"/>
       <use xlink:href="#DejaVuSans-30" x="63.623047"/>
       <use xlink:href="#DejaVuSans-30" x="127.246094"/>
      </g>
     </g>
    </g>
    <g id="ytick_9">
     <g id="line2d_16">
      <g>
       <use xlink:href="#m3af8579d9f" x="49.235" y="37.002016" style="stroke: #000000; stroke-width: 0.8"/>
      </g>
     </g>
     <g id="text_17">
      <!-- 800 -->
      <g transform="translate(23.1475 40.801235) scale(0.1 -0.1)">
       <defs>
        <path id="DejaVuSans-38" d="M 2034 2216 
Q 1584 2216 1326 1975 
Q 1069 1734 1069 1313 
Q 1069 891 1326 650 
Q 1584 409 2034 409 
Q 2484 409 2743 651 
Q 3003 894 3003 1313 
Q 3003 1734 2745 1975 
Q 2488 2216 2034 2216 
z
M 1403 2484 
Q 997 2584 770 2862 
Q 544 3141 544 3541 
Q 544 4100 942 4425 
Q 1341 4750 2034 4750 
Q 2731 4750 3128 4425 
Q 3525 4100 3525 3541 
Q 3525 3141 3298 2862 
Q 3072 2584 2669 2484 
Q 3125 2378 3379 2068 
Q 3634 1759 3634 1313 
Q 3634 634 3220 271 
Q 2806 -91 2034 -91 
Q 1263 -91 848 271 
Q 434 634 434 1313 
Q 434 1759 690 2068 
Q 947 2378 1403 2484 
z
M 1172 3481 
Q 1172 3119 1398 2916 
Q 1625 2713 2034 2713 
Q 2441 2713 2670 2916 
Q 2900 3119 2900 3481 
Q 2900 3844 2670 4047 
Q 2441 4250 2034 4250 
Q 1625 4250 1398 4047 
Q 1172 3844 1172 3481 
z
" transform="scale(0.015625)"/>
       </defs>
       <use xlink:href="#DejaVuSans-38"/>
       <use xlink:href="#DejaVuSans-30" x="63.623047"/>
       <use xlink:href="#DejaVuSans-30" x="127.246094"/>
      </g>
     </g>
    </g>
    <g id="text_18">
     <!-- Pellet_Count -->
     <g transform="translate(16.318125 230.485312) rotate(-90) scale(0.12 -0.12)">
      <defs>
       <path id="DejaVuSans-50" d="M 1259 4147 
L 1259 2394 
L 2053 2394 
Q 2494 2394 2734 2622 
Q 2975 2850 2975 3272 
Q 2975 3691 2734 3919 
Q 2494 4147 2053 4147 
L 1259 4147 
z
M 628 4666 
L 2053 4666 
Q 2838 4666 3239 4311 
Q 3641 3956 3641 3272 
Q 3641 2581 3239 2228 
Q 2838 1875 2053 1875 
L 1259 1875 
L 1259 0 
L 628 0 
L 628 4666 
z
" transform="scale(0.015625)"/>
       <path id="DejaVuSans-6c" d="M 603 4863 
L 1178 4863 
L 1178 0 
L 603 0 
L 603 4863 
z
" transform="scale(0.015625)"/>
       <path id="DejaVuSans-74" d="M 1172 4494 
L 1172 3500 
L 2356 3500 
L 2356 3053 
L 1172 3053 
L 1172 1153 
Q 1172 725 1289 603 
Q 1406 481 1766 481 
L 2356 481 
L 2356 0 
L 1766 0 
Q 1100 0 847 248 
Q 594 497 594 1153 
L 594 3053 
L 172 3053 
L 172 3500 
L 594 3500 
L 594 4494 
L 1172 4494 
z
" transform="scale(0.015625)"/>
       <path id="DejaVuSans-5f" d="M 3263 -1063 
L 3263 -1509 
L -63 -1509 
L -63 -1063 
L 3263 -1063 
z
" transform="scale(0.015625)"/>
       <path id="DejaVuSans-43" d="M 4122 4306 
L 4122 3641 
Q 3803 3938 3442 4084 
Q 3081 4231 2675 4231 
Q 1875 4231 1450 3742 
Q 1025 3253 1025 2328 
Q 1025 1406 1450 917 
Q 1875 428 2675 428 
Q 3081 428 3442 575 
Q 3803 722 4122 1019 
L 4122 359 
Q 3791 134 3420 21 
Q 3050 -91 2638 -91 
Q 1578 -91 968 557 
Q 359 1206 359 2328 
Q 359 3453 968 4101 
Q 1578 4750 2638 4750 
Q 3056 4750 3426 4639 
Q 3797 4528 4122 4306 
z
" transform="scale(0.015625)"/>
       <path id="DejaVuSans-6f" d="M 1959 3097 
Q 1497 3097 1228 2736 
Q 959 2375 959 1747 
Q 959 1119 1226 758 
Q 1494 397 1959 397 
Q 2419 397 2687 759 
Q 2956 1122 2956 1747 
Q 2956 2369 2687 2733 
Q 2419 3097 1959 3097 
z
M 1959 3584 
Q 2709 3584 3137 3096 
Q 3566 2609 3566 1747 
Q 3566 888 3137 398 
Q 2709 -91 1959 -91 
Q 1206 -91 779 398 
Q 353 888 353 1747 
Q 353 2609 779 3096 
Q 1206 3584 1959 3584 
z
" transform="scale(0.015625)"/>
       <path id="DejaVuSans-75" d="M 544 1381 
L 544 3500 
L 1119 3500 
L 1119 1403 
Q 1119 906 1312 657 
Q 1506 409 1894 409 
Q 2359 409 2629 706 
Q 2900 1003 2900 1516 
L 2900 3500 
L 3475 3500 
L 3475 0 
L 2900 0 
L 2900 538 
Q 2691 219 2414 64 
Q 2138 -91 1772 -91 
Q 1169 -91 856 284 
Q 544 659 544 1381 
z
M 1991 3584 
L 1991 3584 
z
" transform="scale(0.015625)"/>
       <path id="DejaVuSans-6e" d="M 3513 2113 
L 3513 0 
L 2938 0 
L 2938 2094 
Q 2938 2591 2744 2837 
Q 2550 3084 2163 3084 
Q 1697 3084 1428 2787 
Q 1159 2491 1159 1978 
L 1159 0 
L 581 0 
L 581 3500 
L 1159 3500 
L 1159 2956 
Q 1366 3272 1645 3428 
Q 1925 3584 2291 3584 
Q 2894 3584 3203 3211 
Q 3513 2838 3513 2113 
z
" transform="scale(0.015625)"/>
      </defs>
      <use xlink:href="#DejaVuSans-50"/>
      <use xlink:href="#DejaVuSans-65" x="56.677734"/>
      <use xlink:href="#DejaVuSans-6c" x="118.201172"/>
      <use xlink:href="#DejaVuSans-6c" x="145.984375"/>
      <use xlink:href="#DejaVuSans-65" x="173.767578"/>
      <use xlink:href="#DejaVuSans-74" x="235.291016"/>
      <use xlink:href="#DejaVuSans-5f" x="274.5"/>
      <use xlink:href="#DejaVuSans-43" x="324.5"/>
      <use xlink:href="#DejaVuSans-6f" x="394.324219"/>
      <use xlink:href="#DejaVuSans-75" x="455.505859"/>
      <use xlink:href="#DejaVuSans-6e" x="518.884766"/>
      <use xlink:href="#DejaVuSans-74" x="582.263672"/>
     </g>
    </g>
   </g>
   <g id="line2d_17">
    <path d="M 99.962273 344.397187 
L 99.989104 344.012944 
L 100.104094 344.012944 
L 100.211418 343.244456 
L 100.288078 343.244456 
L 100.364737 342.860212 
L 100.48356 342.860212 
L 100.587051 342.091724 
L 105.48179 342.091724 
L 105.516287 341.323236 
L 105.711769 341.323236 
L 105.834425 340.170504 
L 105.911085 340.170504 
L 106.010743 339.402016 
L 106.110401 339.402016 
L 106.194727 338.633528 
L 106.286719 338.633528 
L 106.417041 338.249284 
L 107.129979 337.86504 
L 107.214305 337.096552 
L 107.344626 337.096552 
L 108.605683 336.712308 
L 111.656749 336.712308 
L 111.764073 335.94382 
L 111.8369 335.94382 
L 111.928892 335.175332 
L 112.005552 335.175332 
L 112.116709 334.791088 
L 112.752986 334.791088 
L 112.756819 334.406844 
L 113.048127 334.406844 
L 113.12862 334.0226 
L 113.362433 334.0226 
L 113.362433 334.0226 
L 113.485089 333.638356 
L 123.343559 333.638356 
L 123.355058 333.254113 
L 123.749857 333.254113 
L 123.861014 332.869869 
L 123.991336 332.869869 
L 123.999002 332.485625 
L 124.194485 332.485625 
L 124.202151 332.101381 
L 124.455129 332.101381 
L 124.570119 331.332893 
L 124.662111 331.332893 
L 124.746436 330.564405 
L 124.823096 330.564405 
L 124.834595 330.180161 
L 124.984082 330.180161 
L 124.984082 330.180161 
L 125.091406 329.411673 
L 125.145068 329.411673 
L 125.152734 329.027429 
L 125.279223 329.027429 
L 125.382714 328.258941 
L 125.459374 328.258941 
L 125.578197 327.106209 
L 126.570943 327.106209 
L 126.582442 326.721965 
L 129.100722 326.721965 
L 129.108388 326.337721 
L 129.372865 326.337721 
L 129.464857 325.569233 
L 129.679505 325.569233 
L 129.759998 324.800745 
L 136.356587 324.800745 
L 136.448579 324.032257 
L 136.609565 324.032257 
L 136.709223 323.263769 
L 136.801215 323.263769 
L 136.805048 322.879525 
L 136.927703 322.879525 
L 137.015862 322.111038 
L 137.096355 322.111038 
L 137.11552 321.726794 
L 137.905118 321.726794 
L 137.908951 321.34255 
L 138.020108 321.34255 
L 138.104434 320.958306 
L 138.372744 319.805574 
L 146.291717 319.805574 
L 146.376043 319.037086 
L 146.517864 319.037086 
L 146.606023 318.268598 
L 146.724846 318.268598 
L 146.8705 317.50011 
L 146.981657 317.50011 
L 147.081315 317.115866 
L 155.847381 317.115866 
L 155.878045 316.731622 
L 156.088859 316.731622 
L 156.19235 316.347378 
L 156.219181 316.347378 
L 156.272843 315.57889 
L 156.429996 315.57889 
L 156.541153 314.810402 
L 156.633145 314.810402 
L 156.7673 314.041914 
L 156.863125 314.041914 
L 156.866958 313.65767 
L 157.062441 313.65767 
L 157.070107 313.273426 
L 167.936656 313.273426 
L 167.940489 312.889182 
L 168.078477 312.889182 
L 168.151304 312.120694 
L 168.227963 312.120694 
L 168.327621 310.967963 
L 168.404281 310.967963 
L 168.484774 310.199475 
L 168.5691 310.199475 
L 168.5691 310.199475 
L 168.672591 309.430987 
L 168.733919 309.430987 
L 168.822078 308.662499 
L 168.917903 308.662499 
L 169.013728 307.894011 
L 169.071223 307.894011 
L 169.14405 307.125523 
L 169.205378 307.125523 
L 169.293537 306.357035 
L 171.325026 306.357035 
L 171.420851 305.972791 
L 172.497923 305.972791 
L 172.743235 305.204303 
L 172.911887 305.204303 
L 173.019211 304.435815 
L 174.694231 304.435815 
L 174.801555 303.667327 
L 174.878215 303.667327 
L 174.966374 302.898839 
L 175.054533 302.898839 
L 175.161857 302.130351 
L 175.433999 300.97762 
L 175.510659 300.97762 
L 175.583486 300.209132 
L 175.671645 300.209132 
L 175.759804 299.440644 
L 175.828798 299.440644 
L 175.832631 299.0564 
L 180.240579 299.0564 
L 180.393899 298.672156 
L 180.597047 298.672156 
L 180.712037 297.903668 
L 180.811695 297.903668 
L 180.823194 297.519424 
L 185.622107 297.519424 
L 185.652771 296.750936 
L 185.763928 296.750936 
L 185.767761 296.366692 
L 186.139562 296.366692 
L 186.231554 295.598204 
L 186.308214 295.598204 
L 186.411705 294.829716 
L 194.108365 294.829716 
L 195.235266 294.445472 
L 195.273596 293.676984 
L 195.377087 293.676984 
L 195.484411 292.908496 
L 195.564904 292.908496 
L 195.6109 292.140008 
L 195.695226 292.140008 
L 195.702892 291.755764 
L 195.852379 291.755764 
L 195.944371 290.987276 
L 209.129883 290.987276 
L 209.152881 290.603032 
L 209.375195 290.603032 
L 209.697167 288.681813 
L 209.835155 288.681813 
L 209.842821 288.297569 
L 215.28951 288.297569 
L 215.385335 287.529081 
L 215.465828 287.529081 
L 215.569319 286.760593 
L 224.810677 286.760593 
L 224.944832 285.607861 
L 225.155647 285.607861 
L 225.262971 284.839373 
L 225.262971 284.839373 
L 225.27447 284.839373 
L 225.358796 284.070885 
L 225.46612 284.070885 
L 225.546613 283.302397 
L 235.815214 283.302397 
L 235.895707 282.533909 
L 236.029862 282.533909 
L 236.033695 282.149665 
L 236.144851 282.149665 
L 236.217678 281.381177 
L 236.305837 281.381177 
L 236.390163 280.996933 
L 258.759538 280.996933 
L 258.859196 280.612689 
L 258.901359 280.612689 
L 258.985685 279.844201 
L 259.04318 279.844201 
L 259.108341 279.075714 
L 259.1965 279.075714 
L 259.303824 278.307226 
L 259.368985 278.307226 
L 259.457144 277.922982 
L 259.629629 277.154494 
L 276.031027 277.154494 
L 276.03486 276.77025 
L 276.203511 276.77025 
L 276.310835 276.386006 
L 276.360664 276.386006 
L 276.464155 275.617518 
L 276.529316 275.617518 
L 276.590644 274.84903 
L 276.663471 274.84903 
L 276.743964 274.080542 
L 276.820624 274.080542 
L 276.897284 273.312054 
L 276.985443 273.312054 
L 277.065936 272.543566 
L 277.127264 272.543566 
L 277.131097 272.159322 
L 283.302223 272.159322 
L 283.405714 271.390834 
L 299.738118 271.390834 
L 299.780281 270.622346 
L 300.209577 270.622346 
L 300.301569 269.853858 
L 300.382062 269.853858 
L 300.477886 269.08537 
L 300.54688 269.08537 
L 300.669536 268.316883 
L 300.7002 268.316883 
L 300.792192 267.548395 
L 316.568811 267.548395 
L 316.58031 267.164151 
L 316.825622 267.164151 
L 316.940612 266.395663 
L 317.032604 266.395663 
L 317.036437 266.011419 
L 317.162926 266.011419 
L 317.166759 265.627175 
L 317.469566 265.627175 
L 318.243831 265.242931 
L 324.947744 265.242931 
L 325.055068 264.858687 
L 325.200722 264.858687 
L 325.311879 263.705955 
L 325.403871 263.705955 
L 325.511195 263.321711 
L 325.53036 262.937467 
L 329.880813 262.937467 
L 330.018801 262.168979 
L 330.114625 262.168979 
L 330.214283 261.400491 
L 342.813347 261.400491 
L 342.821013 261.016247 
L 342.93217 261.016247 
L 343.020329 260.247759 
L 343.089323 260.247759 
L 343.093156 259.863515 
L 343.204313 259.863515 
L 343.326969 259.479271 
L 353.047451 259.479271 
L 353.196938 257.942296 
L 353.346425 257.942296 
L 353.357924 257.558052 
L 353.484413 257.558052 
L 353.584071 257.173808 
L 353.614735 257.173808 
L 353.622401 256.789564 
L 353.794886 256.789564 
L 353.883045 256.021076 
L 353.955872 256.021076 
L 354.047864 255.252588 
L 354.139856 255.252588 
L 354.220349 254.4841 
L 354.289343 254.4841 
L 354.385168 254.099856 
L 368.003809 254.099856 
L 368.072803 253.715612 
L 368.176294 253.715612 
L 368.180127 253.331368 
L 368.310449 253.331368 
L 368.314282 252.947124 
L 368.433104 252.947124 
L 368.436937 252.56288 
L 373.0557 252.56288 
L 373.059533 252.178636 
L 373.235851 252.178636 
L 373.239684 251.794392 
L 373.354674 251.794392 
L 373.431334 251.025904 
L 383.596444 251.025904 
L 383.707601 250.257416 
L 383.780428 250.257416 
L 383.864754 249.488928 
L 383.937581 249.488928 
L 383.941414 249.104684 
L 384.248053 249.104684 
L 384.363043 248.336196 
L 387.586594 248.336196 
L 387.590427 247.951952 
L 391.112952 247.951952 
L 391.124451 247.567708 
L 391.350598 247.567708 
L 391.454089 246.799221 
L 391.580578 246.799221 
L 391.676403 246.414977 
L 391.741564 246.414977 
L 391.845055 245.646489 
L 393.918707 245.646489 
L 393.92254 245.262245 
L 394.033697 245.262245 
L 394.133355 244.878001 
L 394.15252 244.878001 
L 394.259844 244.109513 
L 394.328838 244.109513 
L 394.436161 243.341025 
L 399.480387 243.341025 
L 399.56088 242.572537 
L 399.63754 242.572537 
L 399.748696 241.804049 
L 399.852187 241.804049 
L 399.994008 241.035561 
L 400.082167 241.035561 
L 400.243153 240.267073 
L 400.266151 240.267073 
L 400.384974 239.114341 
L 400.476966 239.114341 
L 400.595789 238.730097 
L 400.641785 238.730097 
L 400.726111 238.345853 
L 400.726111 238.345853 
L 400.963757 238.345853 
L 400.96759 237.961609 
L 401.473545 237.961609 
L 401.596201 237.193121 
L 401.688193 237.193121 
L 401.795517 236.424633 
L 402.013998 236.424633 
L 402.109823 235.656146 
L 402.205648 235.656146 
L 402.289974 235.271902 
L 412.788555 235.271902 
L 412.892046 234.11917 
L 412.96104 234.11917 
L 413.083696 233.350682 
L 413.160356 233.350682 
L 413.179521 232.966438 
L 413.30601 232.966438 
L 413.401835 232.19795 
L 413.45933 232.19795 
L 413.562821 231.045218 
L 413.620315 231.045218 
L 413.727639 230.27673 
L 413.777468 230.27673 
L 413.854128 229.508242 
L 415.713132 229.508242 
L 415.820456 229.123998 
L 415.981442 229.123998 
L 416.096432 228.739754 
L 416.395406 228.739754 
L 416.403072 228.35551 
L 418.350235 228.35551 
L 418.465225 227.587022 
L 418.587881 227.587022 
L 418.668374 226.818534 
L 418.737368 226.818534 
L 418.840858 226.43429 
L 421.155989 226.43429 
L 421.159822 226.050046 
L 421.339973 226.050046 
L 421.447297 225.281559 
L 421.523957 225.281559 
L 421.546955 224.513071 
L 421.661945 224.513071 
L 421.742438 223.744583 
L 434.816793 223.744583 
L 434.824459 223.360339 
L 434.96628 223.360339 
L 434.973946 222.976095 
L 435.173262 222.976095 
L 435.27292 222.207607 
L 435.341914 222.207607 
L 435.449238 221.823363 
L 435.556562 221.054875 
L 435.633222 221.054875 
L 435.652387 220.670631 
L 435.782709 220.670631 
L 435.8862 220.286387 
L 436.648966 220.286387 
L 436.786954 219.902143 
L 441.110576 219.902143 
L 441.221733 219.517899 
L 441.394218 219.517899 
L 441.490042 218.749411 
L 441.5897 218.749411 
L 441.593533 218.365167 
L 441.720022 218.365167 
L 441.720022 218.365167 
L 441.842678 217.596679 
L 441.919338 217.596679 
L 442.022829 216.443947 
L 442.103322 216.443947 
L 442.195314 215.675459 
L 442.256642 215.675459 
L 442.333302 214.906971 
L 442.390797 214.906971 
L 442.39463 214.522728 
L 449.677326 214.522728 
L 449.711823 213.75424 
L 449.82298 213.75424 
L 449.911139 212.985752 
L 450.003131 212.985752 
L 450.106622 212.217264 
L 450.175615 212.217264 
L 450.248442 211.448776 
L 450.325102 211.448776 
L 450.42476 210.296044 
L 450.497587 210.296044 
L 450.589579 209.9118 
L 454.338251 209.9118 
L 454.422577 209.143312 
L 454.529901 209.143312 
L 454.606561 208.374824 
L 456.699378 208.374824 
L 456.818201 207.606336 
L 461.149488 207.606336 
L 461.218482 206.837848 
L 461.295142 206.837848 
L 461.406299 206.453604 
L 461.498291 206.453604 
L 461.502124 206.06936 
L 467.738411 206.06936 
L 467.834236 205.300872 
L 467.90323 205.300872 
L 468.037385 204.532384 
L 468.140876 204.532384 
L 468.367023 203.763897 
L 468.420685 203.763897 
L 468.508844 202.995409 
L 468.585504 202.995409 
L 468.681329 202.226921 
L 468.765655 202.226921 
L 468.86148 201.458433 
L 476.412485 201.458433 
L 476.496811 200.689945 
L 476.577304 200.689945 
L 476.665463 200.305701 
L 476.765121 200.305701 
L 476.849447 199.537213 
L 476.926107 199.537213 
L 477.041097 198.768725 
L 477.148421 198.768725 
L 477.182918 198.384481 
L 479.199075 198.384481 
L 479.310232 197.615993 
L 479.394558 197.615993 
L 479.478884 196.847505 
L 479.551711 196.847505 
L 479.636037 196.079017 
L 489.023048 196.079017 
L 489.157203 195.310529 
L 489.222364 195.310529 
L 489.333521 194.542041 
L 489.440845 194.542041 
L 489.521338 193.773553 
L 489.594165 193.773553 
L 489.682324 193.005066 
L 489.755151 193.005066 
L 489.84331 192.236578 
L 489.935302 192.236578 
L 489.939135 191.852334 
L 495.006358 191.852334 
L 495.014024 191.46809 
L 498.126418 191.46809 
L 498.260573 190.699602 
L 498.379396 190.699602 
L 498.475221 189.931114 
L 499.617454 189.931114 
L 500.257565 189.54687 
L 500.265231 189.162626 
L 503.193641 189.162626 
L 503.304798 188.778382 
L 503.32013 188.394138 
L 504.604184 188.394138 
L 504.703842 187.62565 
L 504.776669 187.62565 
L 504.88016 186.857162 
L 504.95682 186.857162 
L 505.060311 186.088674 
L 505.144637 186.088674 
L 505.255794 185.320186 
L 513.163268 185.320186 
L 513.170934 184.935942 
L 517.210914 184.935942 
L 517.314405 184.551698 
L 517.314405 184.551698 
L 517.348902 184.551698 
L 517.356568 184.167454 
L 517.48689 184.167454 
L 517.586548 183.78321 
L 517.709204 183.014722 
L 517.79353 183.014722 
L 517.889355 182.246235 
L 517.985179 182.246235 
L 518.008177 181.861991 
L 519.733026 181.861991 
L 519.736859 181.477747 
L 521.289224 181.477747 
L 521.392715 180.709259 
L 525.881155 180.709259 
L 525.999978 180.325015 
L 526.022976 180.325015 
L 526.080471 179.556527 
L 526.176296 179.556527 
L 526.268288 178.788039 
L 537.828609 178.788039 
L 537.951265 177.635307 
L 538.031758 177.635307 
L 538.12375 176.866819 
L 538.20041 176.866819 
L 538.307734 176.098331 
L 538.403559 175.329843 
L 538.487885 175.329843 
L 538.602875 174.561355 
L 542.248056 174.561355 
L 542.251889 174.177111 
L 567.741324 174.177111 
L 567.745157 173.792867 
L 567.886978 173.792867 
L 568.009634 173.024379 
L 568.109292 173.024379 
L 568.254946 172.255891 
L 568.335439 172.255891 
L 568.454261 171.487404 
L 583.606102 171.487404 
L 583.609935 171.10316 
L 597.466222 171.10316 
L 597.481554 170.718916 
L 597.638707 170.718916 
L 597.746031 169.950428 
L 597.841856 169.950428 
L 597.841856 169.950428 
L 597.880186 169.566184 
L 611.671312 169.566184 
L 611.801634 168.797696 
L 624.703504 168.797696 
L 624.7495 168.029208 
L 624.921985 168.029208 
L 624.937317 167.644964 
L 646.275616 167.644964 
L 646.283282 167.26072 
L 646.394439 167.26072 
L 646.49793 166.492232 
L 646.616753 166.492232 
L 646.712578 165.723744 
L 646.808402 165.723744 
L 646.823734 165.3395 
L 647.092044 165.3395 
L 647.2147 164.571012 
L 647.302859 164.571012 
L 647.333523 163.802524 
L 648.257276 163.802524 
L 650.062618 163.41828 
L 652.205263 163.41828 
L 652.304921 162.649792 
L 652.389247 162.649792 
L 652.389247 162.649792 
L 652.473573 162.265548 
L 673.171761 162.265548 
L 673.328914 161.881304 
L 673.386409 161.881304 
L 673.390242 161.49706 
L 673.693049 161.49706 
L 673.781208 160.344329 
L 673.888532 160.344329 
L 673.995856 159.575841 
L 674.107013 159.575841 
L 674.222003 158.807353 
L 674.321661 158.807353 
L 674.40982 158.038865 
L 674.48648 158.038865 
L 674.528643 157.654621 
L 675.490725 157.654621 
L 675.801198 157.270377 
L 684.551932 157.270377 
L 684.594095 156.501889 
L 684.762747 156.501889 
L 684.778079 156.117645 
L 686.798068 156.117645 
L 686.874728 155.733401 
L 697.189326 155.733401 
L 697.311981 155.349157 
L 697.419305 155.349157 
L 697.564959 154.580669 
L 697.74511 154.580669 
L 698.645865 154.196425 
L 711.869707 154.196425 
L 711.980864 153.427937 
L 712.095854 153.427937 
L 712.226176 152.275205 
L 712.398661 152.275205 
L 712.548148 151.890961 
L 712.770462 151.506717 
L 720.451789 151.506717 
L 720.470954 151.122473 
L 722.314626 151.122473 
L 722.349123 150.738229 
L 722.529274 150.738229 
L 722.640431 150.353985 
L 724.165964 150.353985 
L 724.599093 149.969742 
L 727.136537 149.969742 
L 727.653992 149.585498 
L 727.684656 149.585498 
L 728.190612 148.432766 
L 728.301769 148.048522 
L 730.670561 148.048522 
L 730.751054 147.664278 
L 730.877543 147.664278 
L 730.9887 147.280034 
L 731.452493 147.280034 
L 731.897121 146.89579 
L 736.837855 146.89579 
L 737.293981 146.511546 
L 737.397472 146.127302 
L 737.600621 145.743058 
L 738.900008 145.743058 
L 739.045661 145.358814 
L 739.225812 145.358814 
L 739.336969 144.97457 
L 739.413629 144.97457 
L 739.67044 144.590326 
L 745.097965 144.590326 
L 745.473599 144.206082 
L 746.558337 144.206082 
L 748.030208 143.821838 
L 751.200097 143.821838 
L 751.276757 143.437594 
L 751.464574 143.437594 
L 752.139182 143.05335 
L 769.828467 143.05335 
L 770.763718 142.669106 
L 772.737712 142.669106 
L 772.745378 142.284862 
L 773.128678 142.284862 
L 773.140177 141.900618 
L 773.285831 141.900618 
L 773.393155 141.516374 
L 773.454483 141.516374 
L 773.557974 140.747886 
L 773.711294 140.747886 
L 773.818617 139.979398 
L 773.876112 139.979398 
L 773.956605 139.21091 
L 774.0141 139.21091 
L 774.16742 138.058179 
L 774.194251 138.058179 
L 774.451062 137.673935 
L 774.677209 137.673935 
L 774.769201 137.289691 
L 775.075841 137.289691 
L 776.693366 136.905447 
L 776.812189 136.136959 
L 776.865851 136.136959 
L 776.942511 135.368471 
L 777.003839 135.368471 
L 777.007672 134.984227 
L 777.187823 134.984227 
L 777.252983 134.215739 
L 777.306645 134.215739 
L 777.482963 132.678763 
L 778.893507 132.678763 
L 778.977833 131.910275 
L 779.054492 131.910275 
L 779.146484 131.141787 
L 779.207812 131.141787 
L 779.292138 130.373299 
L 786.701323 130.373299 
L 786.793315 129.604811 
L 786.885307 129.604811 
L 786.958134 128.836323 
L 787.030961 128.836323 
L 787.11912 128.067836 
L 787.191947 128.067836 
L 787.295438 127.683592 
L 797.709693 127.683592 
L 797.801685 127.299348 
L 798.227147 127.299348 
L 798.342137 126.915104 
L 798.353636 126.915104 
L 798.457127 126.146616 
L 798.480125 126.146616 
L 798.591282 125.762372 
L 798.610447 125.762372 
L 798.725437 125.378128 
L 799.116403 125.378128 
L 799.120236 124.993884 
L 803.903817 124.993884 
L 803.98431 124.60964 
L 804.072469 124.60964 
L 804.152962 123.841152 
L 804.244954 123.841152 
L 804.371443 123.072664 
L 804.463435 123.072664 
L 804.540095 122.304176 
L 804.612922 122.304176 
L 804.724079 121.535688 
L 804.796906 121.535688 
L 804.8659 120.7672 
L 804.94256 120.7672 
L 805.038385 119.614468 
L 805.628666 119.614468 
L 805.636332 119.230224 
L 817.629782 119.230224 
L 817.72944 118.461736 
L 817.802267 118.461736 
L 817.88276 117.693248 
L 818.005416 117.693248 
L 818.097408 116.924761 
L 818.185567 116.924761 
L 818.1894 116.540517 
L 830.29784 116.540517 
L 830.416663 115.387785 
L 830.477991 115.387785 
L 830.581482 115.003541 
L 830.665808 115.003541 
L 830.773132 113.850809 
L 830.914953 113.850809 
L 830.918786 113.466565 
L 831.049108 113.466565 
L 831.133434 112.698077 
L 831.210093 112.698077 
L 831.298252 111.929589 
L 831.35958 111.929589 
L 831.432407 111.545345 
L 831.788876 109.624125 
L 831.865536 109.624125 
L 831.869369 109.239881 
L 839.205727 109.239881 
L 839.313051 108.471393 
L 839.374379 108.471393 
L 839.466371 107.702905 
L 839.535365 107.702905 
L 839.646522 106.934417 
L 839.723182 106.934417 
L 839.803675 106.16593 
L 842.624761 106.16593 
L 842.739751 105.397442 
L 842.896904 105.397442 
L 843.027226 104.24471 
L 843.054057 104.24471 
L 843.130717 103.476222 
L 843.215043 103.476222 
L 843.318534 103.091978 
L 849.941954 103.091978 
L 849.945787 102.707734 
L 850.244761 102.707734 
L 850.348251 102.32349 
L 850.390414 102.32349 
L 850.520736 101.170758 
L 850.582064 101.170758 
L 850.66639 100.40227 
L 850.739217 100.40227 
L 850.850374 99.249538 
L 850.923201 99.249538 
L 851.01136 98.48105 
L 851.091853 98.48105 
L 851.168513 97.712562 
L 851.24134 97.712562 
L 851.325666 96.944074 
L 851.360163 96.944074 
L 851.528815 96.55983 
L 868.401671 96.55983 
L 868.52816 95.791343 
L 868.627818 95.791343 
L 868.715977 95.022855 
L 868.815635 95.022855 
L 868.888462 94.254367 
L 868.957456 94.254367 
L 868.957456 94.254367 
L 869.045615 93.485879 
L 870.383331 93.485879 
L 870.467657 93.101635 
L 892.346408 93.101635 
L 892.453732 92.717391 
L 892.469064 92.717391 
L 892.584054 91.948903 
L 892.879195 91.948903 
L 893.132173 91.564659 
L 893.136006 91.180415 
L 908.406669 91.180415 
L 908.406669 91.180415 
L 908.544657 90.411927 
L 908.820633 90.411927 
L 908.916458 89.643439 
L 909.131106 89.643439 
L 909.131106 89.643439 
L 909.207766 88.490707 
L 909.318923 88.490707 
L 909.445412 87.337975 
L 909.53357 87.337975 
L 909.640894 86.185243 
L 909.72522 86.185243 
L 909.824878 85.800999 
L 938.32705 85.800999 
L 938.44204 85.032512 
L 938.541698 84.264024 
L 938.629857 84.264024 
L 938.721849 83.495536 
L 938.802342 83.495536 
L 938.879002 82.727048 
L 938.963328 82.727048 
L 939.062986 81.95856 
L 939.143478 81.95856 
L 939.154977 81.574316 
L 961.003065 81.574316 
L 961.010731 81.190072 
L 961.17555 81.190072 
L 961.286707 80.421584 
L 961.363367 80.421584 
L 961.428528 79.653096 
L 961.486023 79.653096 
L 961.501355 79.268852 
L 992.441313 79.268852 
L 992.51414 78.500364 
L 992.579301 78.500364 
L 992.659794 77.731876 
L 992.721122 77.731876 
L 992.828446 76.579144 
L 992.885941 76.579144 
L 992.970267 75.810656 
L 993.03926 75.810656 
L 993.15425 75.426412 
L 1012.453394 75.426412 
L 1012.553052 74.657924 
L 1012.622046 74.657924 
L 1012.717871 73.889437 
L 1012.80603 73.889437 
L 1012.974682 73.505193 
L 1045.394177 73.505193 
L 1045.516833 72.736705 
L 1045.593493 72.736705 
L 1045.700817 72.352461 
L 1045.831139 71.583973 
L 1045.911632 71.583973 
L 1046.091783 70.431241 
L 1046.099449 70.431241 
L 1046.191441 69.662753 
L 1046.256602 69.662753 
L 1046.333262 68.894265 
L 1047.061531 68.894265 
L 1047.069197 68.510021 
L 1054.666199 68.510021 
L 1054.777356 68.125777 
L 1054.796521 68.125777 
L 1054.903845 67.357289 
L 1054.992004 67.357289 
L 1055.060998 66.588801 
L 1055.145324 66.588801 
L 1055.252648 65.820313 
L 1061.577094 65.820313 
L 1061.680585 65.051825 
L 1061.784076 65.051825 
L 1061.872235 64.667581 
L 1061.918231 64.667581 
L 1062.017889 63.899093 
L 1062.129046 63.899093 
L 1062.221038 63.130606 
L 1062.343694 63.130606 
L 1062.454851 61.977874 
L 1062.531511 61.977874 
L 1062.604338 61.209386 
L 1064.635826 61.209386 
L 1064.654991 60.825142 
L 1065.007627 60.825142 
L 1065.111118 60.056654 
L 1065.252939 60.056654 
L 1065.348764 59.67241 
L 1071.362737 59.67241 
L 1071.454729 58.903922 
L 1071.546721 58.903922 
L 1071.657878 58.135434 
L 1071.734538 58.135434 
L 1071.738371 57.75119 
L 1071.872526 57.75119 
L 1071.97985 57.366946 
L 1072.079508 56.598458 
L 1072.175333 56.598458 
L 1072.186832 56.214214 
L 1072.826943 56.214214 
L 1072.930434 55.061482 
L 1072.995595 55.061482 
L 1073.11825 54.292994 
L 1073.133582 53.90875 
L 1073.352063 53.90875 
L 1073.428723 53.140262 
L 1073.513049 53.140262 
L 1073.674035 52.371775 
L 1073.892516 52.371775 
L 1079.86816 51.987531 
L 1083.156872 51.987531 
L 1083.17987 51.603287 
L 1083.402184 51.603287 
L 1083.429015 50.834799 
L 1083.544004 50.834799 
L 1083.616831 50.066311 
L 1083.701157 50.066311 
L 1083.808481 49.297823 
L 1083.873642 49.297823 
L 1083.954135 48.529335 
L 1084.034628 48.529335 
L 1084.122787 47.760847 
L 1084.184115 47.760847 
L 1084.276107 46.992359 
L 1093.168662 46.992359 
L 1093.295151 46.608115 
L 1093.321982 46.608115 
L 1093.440805 45.455383 
L 1093.594125 45.455383 
L 1093.682284 44.686895 
L 1093.747445 44.686895 
L 1093.835604 43.918407 
L 1093.927596 43.918407 
L 1093.942927 43.534163 
L 1096.246559 43.534163 
L 1096.342384 42.765675 
L 1096.42671 42.765675 
L 1100.88832 42.381431 
L 1100.892152 41.997187 
L 1100.892152 41.997187 
" clip-path="url(#pf92b2104f9)" style="fill: none; stroke: #0000ff; stroke-width: 1.5; stroke-linecap: square"/>
   </g>
   <g id="patch_128">
    <path d="M 49.235 359.517187 
L 49.235 26.877187 
" style="fill: none; stroke: #000000; stroke-width: 0.8; stroke-linejoin: miter; stroke-linecap: square"/>
   </g>
   <g id="patch_129">
    <path d="M 1165.235 359.517187 
L 1165.235 26.877187 
" style="fill: none; stroke: #000000; stroke-width: 0.8; stroke-linejoin: miter; stroke-linecap: square"/>
   </g>
   <g id="patch_130">
    <path d="M 49.235 359.517187 
L 1165.235 359.517187 
" style="fill: none; stroke: #000000; stroke-width: 0.8; stroke-linejoin: miter; stroke-linecap: square"/>
   </g>
   <g id="patch_131">
    <path d="M 49.235 26.877187 
L 1165.235 26.877187 
" style="fill: none; stroke: #000000; stroke-width: 0.8; stroke-linejoin: miter; stroke-linecap: square"/>
   </g>
   <g id="text_19">
    <!-- Pellet Count and Cumulative Sum Over Time of Group cask Mouse M23 -->
    <g transform="translate(287.331406 20.877187) scale(0.18 -0.18)">
     <defs>
      <path id="DejaVuSans-61" d="M 2194 1759 
Q 1497 1759 1228 1600 
Q 959 1441 959 1056 
Q 959 750 1161 570 
Q 1363 391 1709 391 
Q 2188 391 2477 730 
Q 2766 1069 2766 1631 
L 2766 1759 
L 2194 1759 
z
M 3341 1997 
L 3341 0 
L 2766 0 
L 2766 531 
Q 2569 213 2275 61 
Q 1981 -91 1556 -91 
Q 1019 -91 701 211 
Q 384 513 384 1019 
Q 384 1609 779 1909 
Q 1175 2209 1959 2209 
L 2766 2209 
L 2766 2266 
Q 2766 2663 2505 2880 
Q 2244 3097 1772 3097 
Q 1472 3097 1187 3025 
Q 903 2953 641 2809 
L 641 3341 
Q 956 3463 1253 3523 
Q 1550 3584 1831 3584 
Q 2591 3584 2966 3190 
Q 3341 2797 3341 1997 
z
" transform="scale(0.015625)"/>
      <path id="DejaVuSans-64" d="M 2906 2969 
L 2906 4863 
L 3481 4863 
L 3481 0 
L 2906 0 
L 2906 525 
Q 2725 213 2448 61 
Q 2172 -91 1784 -91 
Q 1150 -91 751 415 
Q 353 922 353 1747 
Q 353 2572 751 3078 
Q 1150 3584 1784 3584 
Q 2172 3584 2448 3432 
Q 2725 3281 2906 2969 
z
M 947 1747 
Q 947 1113 1208 752 
Q 1469 391 1925 391 
Q 2381 391 2643 752 
Q 2906 1113 2906 1747 
Q 2906 2381 2643 2742 
Q 2381 3103 1925 3103 
Q 1469 3103 1208 2742 
Q 947 2381 947 1747 
z
" transform="scale(0.015625)"/>
      <path id="DejaVuSans-76" d="M 191 3500 
L 800 3500 
L 1894 563 
L 2988 3500 
L 3597 3500 
L 2284 0 
L 1503 0 
L 191 3500 
z
" transform="scale(0.015625)"/>
      <path id="DejaVuSans-53" d="M 3425 4513 
L 3425 3897 
Q 3066 4069 2747 4153 
Q 2428 4238 2131 4238 
Q 1616 4238 1336 4038 
Q 1056 3838 1056 3469 
Q 1056 3159 1242 3001 
Q 1428 2844 1947 2747 
L 2328 2669 
Q 3034 2534 3370 2195 
Q 3706 1856 3706 1288 
Q 3706 609 3251 259 
Q 2797 -91 1919 -91 
Q 1588 -91 1214 -16 
Q 841 59 441 206 
L 441 856 
Q 825 641 1194 531 
Q 1563 422 1919 422 
Q 2459 422 2753 634 
Q 3047 847 3047 1241 
Q 3047 1584 2836 1778 
Q 2625 1972 2144 2069 
L 1759 2144 
Q 1053 2284 737 2584 
Q 422 2884 422 3419 
Q 422 4038 858 4394 
Q 1294 4750 2059 4750 
Q 2388 4750 2728 4690 
Q 3069 4631 3425 4513 
z
" transform="scale(0.015625)"/>
      <path id="DejaVuSans-4f" d="M 2522 4238 
Q 1834 4238 1429 3725 
Q 1025 3213 1025 2328 
Q 1025 1447 1429 934 
Q 1834 422 2522 422 
Q 3209 422 3611 934 
Q 4013 1447 4013 2328 
Q 4013 3213 3611 3725 
Q 3209 4238 2522 4238 
z
M 2522 4750 
Q 3503 4750 4090 4092 
Q 4678 3434 4678 2328 
Q 4678 1225 4090 567 
Q 3503 -91 2522 -91 
Q 1538 -91 948 565 
Q 359 1222 359 2328 
Q 359 3434 948 4092 
Q 1538 4750 2522 4750 
z
" transform="scale(0.015625)"/>
      <path id="DejaVuSans-72" d="M 2631 2963 
Q 2534 3019 2420 3045 
Q 2306 3072 2169 3072 
Q 1681 3072 1420 2755 
Q 1159 2438 1159 1844 
L 1159 0 
L 581 0 
L 581 3500 
L 1159 3500 
L 1159 2956 
Q 1341 3275 1631 3429 
Q 1922 3584 2338 3584 
Q 2397 3584 2469 3576 
Q 2541 3569 2628 3553 
L 2631 2963 
z
" transform="scale(0.015625)"/>
      <path id="DejaVuSans-66" d="M 2375 4863 
L 2375 4384 
L 1825 4384 
Q 1516 4384 1395 4259 
Q 1275 4134 1275 3809 
L 1275 3500 
L 2222 3500 
L 2222 3053 
L 1275 3053 
L 1275 0 
L 697 0 
L 697 3053 
L 147 3053 
L 147 3500 
L 697 3500 
L 697 3744 
Q 697 4328 969 4595 
Q 1241 4863 1831 4863 
L 2375 4863 
z
" transform="scale(0.015625)"/>
      <path id="DejaVuSans-47" d="M 3809 666 
L 3809 1919 
L 2778 1919 
L 2778 2438 
L 4434 2438 
L 4434 434 
Q 4069 175 3628 42 
Q 3188 -91 2688 -91 
Q 1594 -91 976 548 
Q 359 1188 359 2328 
Q 359 3472 976 4111 
Q 1594 4750 2688 4750 
Q 3144 4750 3555 4637 
Q 3966 4525 4313 4306 
L 4313 3634 
Q 3963 3931 3569 4081 
Q 3175 4231 2741 4231 
Q 1884 4231 1454 3753 
Q 1025 3275 1025 2328 
Q 1025 1384 1454 906 
Q 1884 428 2741 428 
Q 3075 428 3337 486 
Q 3600 544 3809 666 
z
" transform="scale(0.015625)"/>
      <path id="DejaVuSans-70" d="M 1159 525 
L 1159 -1331 
L 581 -1331 
L 581 3500 
L 1159 3500 
L 1159 2969 
Q 1341 3281 1617 3432 
Q 1894 3584 2278 3584 
Q 2916 3584 3314 3078 
Q 3713 2572 3713 1747 
Q 3713 922 3314 415 
Q 2916 -91 2278 -91 
Q 1894 -91 1617 61 
Q 1341 213 1159 525 
z
M 3116 1747 
Q 3116 2381 2855 2742 
Q 2594 3103 2138 3103 
Q 1681 3103 1420 2742 
Q 1159 2381 1159 1747 
Q 1159 1113 1420 752 
Q 1681 391 2138 391 
Q 2594 391 2855 752 
Q 3116 1113 3116 1747 
z
" transform="scale(0.015625)"/>
      <path id="DejaVuSans-63" d="M 3122 3366 
L 3122 2828 
Q 2878 2963 2633 3030 
Q 2388 3097 2138 3097 
Q 1578 3097 1268 2742 
Q 959 2388 959 1747 
Q 959 1106 1268 751 
Q 1578 397 2138 397 
Q 2388 397 2633 464 
Q 2878 531 3122 666 
L 3122 134 
Q 2881 22 2623 -34 
Q 2366 -91 2075 -91 
Q 1284 -91 818 406 
Q 353 903 353 1747 
Q 353 2603 823 3093 
Q 1294 3584 2113 3584 
Q 2378 3584 2631 3529 
Q 2884 3475 3122 3366 
z
" transform="scale(0.015625)"/>
      <path id="DejaVuSans-73" d="M 2834 3397 
L 2834 2853 
Q 2591 2978 2328 3040 
Q 2066 3103 1784 3103 
Q 1356 3103 1142 2972 
Q 928 2841 928 2578 
Q 928 2378 1081 2264 
Q 1234 2150 1697 2047 
L 1894 2003 
Q 2506 1872 2764 1633 
Q 3022 1394 3022 966 
Q 3022 478 2636 193 
Q 2250 -91 1575 -91 
Q 1294 -91 989 -36 
Q 684 19 347 128 
L 347 722 
Q 666 556 975 473 
Q 1284 391 1588 391 
Q 1994 391 2212 530 
Q 2431 669 2431 922 
Q 2431 1156 2273 1281 
Q 2116 1406 1581 1522 
L 1381 1569 
Q 847 1681 609 1914 
Q 372 2147 372 2553 
Q 372 3047 722 3315 
Q 1072 3584 1716 3584 
Q 2034 3584 2315 3537 
Q 2597 3491 2834 3397 
z
" transform="scale(0.015625)"/>
      <path id="DejaVuSans-6b" d="M 581 4863 
L 1159 4863 
L 1159 1991 
L 2875 3500 
L 3609 3500 
L 1753 1863 
L 3688 0 
L 2938 0 
L 1159 1709 
L 1159 0 
L 581 0 
L 581 4863 
z
" transform="scale(0.015625)"/>
      <path id="DejaVuSans-4d" d="M 628 4666 
L 1569 4666 
L 2759 1491 
L 3956 4666 
L 4897 4666 
L 4897 0 
L 4281 0 
L 4281 4097 
L 3078 897 
L 2444 897 
L 1241 4097 
L 1241 0 
L 628 0 
L 628 4666 
z
" transform="scale(0.015625)"/>
     </defs>
     <use xlink:href="#DejaVuSans-50"/>
     <use xlink:href="#DejaVuSans-65" x="56.677734"/>
     <use xlink:href="#DejaVuSans-6c" x="118.201172"/>
     <use xlink:href="#DejaVuSans-6c" x="145.984375"/>
     <use xlink:href="#DejaVuSans-65" x="173.767578"/>
     <use xlink:href="#DejaVuSans-74" x="235.291016"/>
     <use xlink:href="#DejaVuSans-20" x="274.5"/>
     <use xlink:href="#DejaVuSans-43" x="306.287109"/>
     <use xlink:href="#DejaVuSans-6f" x="376.111328"/>
     <use xlink:href="#DejaVuSans-75" x="437.292969"/>
     <use xlink:href="#DejaVuSans-6e" x="500.671875"/>
     <use xlink:href="#DejaVuSans-74" x="564.050781"/>
     <use xlink:href="#DejaVuSans-20" x="603.259766"/>
     <use xlink:href="#DejaVuSans-61" x="635.046875"/>
     <use xlink:href="#DejaVuSans-6e" x="696.326172"/>
     <use xlink:href="#DejaVuSans-64" x="759.705078"/>
     <use xlink:href="#DejaVuSans-20" x="823.181641"/>
     <use xlink:href="#DejaVuSans-43" x="854.96875"/>
     <use xlink:href="#DejaVuSans-75" x="924.792969"/>
     <use xlink:href="#DejaVuSans-6d" x="988.171875"/>
     <use xlink:href="#DejaVuSans-75" x="1085.583984"/>
     <use xlink:href="#DejaVuSans-6c" x="1148.962891"/>
     <use xlink:href="#DejaVuSans-61" x="1176.746094"/>
     <use xlink:href="#DejaVuSans-74" x="1238.025391"/>
     <use xlink:href="#DejaVuSans-69" x="1277.234375"/>
     <use xlink:href="#DejaVuSans-76" x="1305.017578"/>
     <use xlink:href="#DejaVuSans-65" x="1364.197266"/>
     <use xlink:href="#DejaVuSans-20" x="1425.720703"/>
     <use xlink:href="#DejaVuSans-53" x="1457.507812"/>
     <use xlink:href="#DejaVuSans-75" x="1520.984375"/>
     <use xlink:href="#DejaVuSans-6d" x="1584.363281"/>
     <use xlink:href="#DejaVuSans-20" x="1681.775391"/>
     <use xlink:href="#DejaVuSans-4f" x="1713.5625"/>
     <use xlink:href="#DejaVuSans-76" x="1792.273438"/>
     <use xlink:href="#DejaVuSans-65" x="1851.453125"/>
     <use xlink:href="#DejaVuSans-72" x="1912.976562"/>
     <use xlink:href="#DejaVuSans-20" x="1954.089844"/>
     <use xlink:href="#DejaVuSans-54" x="1985.876953"/>
     <use xlink:href="#DejaVuSans-69" x="2043.835938"/>
     <use xlink:href="#DejaVuSans-6d" x="2071.619141"/>
     <use xlink:href="#DejaVuSans-65" x="2169.03125"/>
     <use xlink:href="#DejaVuSans-20" x="2230.554688"/>
     <use xlink:href="#DejaVuSans-6f" x="2262.341797"/>
     <use xlink:href="#DejaVuSans-66" x="2323.523438"/>
     <use xlink:href="#DejaVuSans-20" x="2358.728516"/>
     <use xlink:href="#DejaVuSans-47" x="2390.515625"/>
     <use xlink:href="#DejaVuSans-72" x="2468.005859"/>
     <use xlink:href="#DejaVuSans-6f" x="2506.869141"/>
     <use xlink:href="#DejaVuSans-75" x="2568.050781"/>
     <use xlink:href="#DejaVuSans-70" x="2631.429688"/>
     <use xlink:href="#DejaVuSans-20" x="2694.90625"/>
     <use xlink:href="#DejaVuSans-63" x="2726.693359"/>
     <use xlink:href="#DejaVuSans-61" x="2781.673828"/>
     <use xlink:href="#DejaVuSans-73" x="2842.953125"/>
     <use xlink:href="#DejaVuSans-6b" x="2895.052734"/>
     <use xlink:href="#DejaVuSans-20" x="2952.962891"/>
     <use xlink:href="#DejaVuSans-4d" x="2984.75"/>
     <use xlink:href="#DejaVuSans-6f" x="3071.029297"/>
     <use xlink:href="#DejaVuSans-75" x="3132.210938"/>
     <use xlink:href="#DejaVuSans-73" x="3195.589844"/>
     <use xlink:href="#DejaVuSans-65" x="3247.689453"/>
     <use xlink:href="#DejaVuSans-20" x="3309.212891"/>
     <use xlink:href="#DejaVuSans-4d" x="3341"/>
     <use xlink:href="#DejaVuSans-32" x="3427.279297"/>
     <use xlink:href="#DejaVuSans-33" x="3490.902344"/>
    </g>
   </g>
   <g id="legend_1">
    <g id="patch_132">
     <path d="M 1086.550625 64.233437 
L 1158.235 64.233437 
Q 1160.235 64.233437 1160.235 62.233437 
L 1160.235 33.877187 
Q 1160.235 31.877187 1158.235 31.877187 
L 1086.550625 31.877187 
Q 1084.550625 31.877187 1084.550625 33.877187 
L 1084.550625 62.233437 
Q 1084.550625 64.233437 1086.550625 64.233437 
z
" style="fill: #ffffff; opacity: 0.8; stroke: #cccccc; stroke-linejoin: miter"/>
    </g>
    <g id="patch_133">
     <path d="M 1088.550625 43.475625 
L 1108.550625 43.475625 
L 1108.550625 36.475625 
L 1088.550625 36.475625 
z
" style="fill: #add8e6; opacity: 0.9; stroke: #add8e6; stroke-linejoin: miter"/>
    </g>
    <g id="text_20">
     <!-- Meal -->
     <g transform="translate(1116.550625 43.475625) scale(0.1 -0.1)">
      <use xlink:href="#DejaVuSans-4d"/>
      <use xlink:href="#DejaVuSans-65" x="86.279297"/>
      <use xlink:href="#DejaVuSans-61" x="147.802734"/>
      <use xlink:href="#DejaVuSans-6c" x="209.082031"/>
     </g>
    </g>
    <g id="patch_134">
     <path d="M 1088.550625 58.15375 
L 1108.550625 58.15375 
L 1108.550625 51.15375 
L 1088.550625 51.15375 
z
" style="fill: #808080; opacity: 0.5; stroke: #808080; stroke-linejoin: miter"/>
    </g>
    <g id="text_21">
     <!-- Inactive -->
     <g transform="translate(1116.550625 58.15375) scale(0.1 -0.1)">
      <defs>
       <path id="DejaVuSans-49" d="M 628 4666 
L 1259 4666 
L 1259 0 
L 628 0 
L 628 4666 
z
" transform="scale(0.015625)"/>
      </defs>
      <use xlink:href="#DejaVuSans-49"/>
      <use xlink:href="#DejaVuSans-6e" x="29.492188"/>
      <use xlink:href="#DejaVuSans-61" x="92.871094"/>
      <use xlink:href="#DejaVuSans-63" x="154.150391"/>
      <use xlink:href="#DejaVuSans-74" x="209.130859"/>
      <use xlink:href="#DejaVuSans-69" x="248.339844"/>
      <use xlink:href="#DejaVuSans-76" x="276.123047"/>
      <use xlink:href="#DejaVuSans-65" x="335.302734"/>
     </g>
    </g>
   </g>
  </g>
 </g>
 <defs>
  <clipPath id="pf92b2104f9">
   <rect x="49.235" y="26.877187" width="1116" height="332.64"/>
  </clipPath>
 </defs>
</svg>
