<?xml version="1.0" encoding="utf-8" standalone="no"?>
<!DOCTYPE svg PUBLIC "-//W3C//DTD SVG 1.1//EN"
  "http://www.w3.org/Graphics/SVG/1.1/DTD/svg11.dtd">
<svg xmlns:xlink="http://www.w3.org/1999/xlink" width="1178.7975pt" height="399.009062pt" viewBox="0 0 1178.7975 399.009062" xmlns="http://www.w3.org/2000/svg" version="1.1">
 <metadata>
  <rdf:RDF xmlns:dc="http://purl.org/dc/elements/1.1/" xmlns:cc="http://creativecommons.org/ns#" xmlns:rdf="http://www.w3.org/1999/02/22-rdf-syntax-ns#">
   <cc:Work>
    <dc:type rdf:resource="http://purl.org/dc/dcmitype/StillImage"/>
    <dc:date>2025-10-01T20:37:08.066505</dc:date>
    <dc:format>image/svg+xml</dc:format>
    <dc:creator>
     <cc:Agent>
      <dc:title>Matplotlib v3.8.4, https://matplotlib.org/</dc:title>
     </cc:Agent>
    </dc:creator>
   </cc:Work>
  </rdf:RDF>
 </metadata>
 <defs>
  <style type="text/css">*{stroke-linejoin: round; stroke-linecap: butt}</style>
 </defs>
 <g id="figure_1">
  <g id="patch_1">
   <path d="M 0 399.009062 
L 1178.7975 399.009062 
L 1178.7975 0 
L 0 0 
z
" style="fill: #ffffff"/>
  </g>
  <g id="axes_1">
   <g id="patch_2">
    <path d="M 55.5975 359.517187 
L 1171.5975 359.517187 
L 1171.5975 26.877187 
L 55.5975 26.877187 
z
" style="fill: #ffffff"/>
   </g>
   <g id="patch_3">
    <path d="M 115.796013 359.517187 
L 115.796013 26.877187 
L 109.313539 26.877187 
L 109.313539 359.517187 
z
" clip-path="url(#p9853cf9e6b)" style="fill: #add8e6; stroke: #add8e6; stroke-linejoin: miter"/>
   </g>
   <g id="patch_4">
    <path d="M 125.704837 359.517187 
L 125.704837 26.877187 
L 125.689508 26.877187 
L 125.689508 359.517187 
z
" clip-path="url(#p9853cf9e6b)" style="fill: #add8e6; stroke: #add8e6; stroke-linejoin: miter"/>
   </g>
   <g id="patch_5">
    <path d="M 128.910538 359.517187 
L 128.910538 26.877187 
L 129.332328 26.877187 
L 129.332328 359.517187 
z
" clip-path="url(#p9853cf9e6b)" style="fill: #add8e6; stroke: #add8e6; stroke-linejoin: miter"/>
   </g>
   <g id="patch_6">
    <path d="M 134.382665 359.517187 
L 134.382665 26.877187 
L 134.421221 26.877187 
L 134.421221 359.517187 
z
" clip-path="url(#p9853cf9e6b)" style="fill: #add8e6; stroke: #add8e6; stroke-linejoin: miter"/>
   </g>
   <g id="patch_7">
    <path d="M 176.492499 359.517187 
L 176.492499 26.877187 
L 176.596553 26.877187 
L 176.596553 359.517187 
z
" clip-path="url(#p9853cf9e6b)" style="fill: #add8e6; stroke: #add8e6; stroke-linejoin: miter"/>
   </g>
   <g id="patch_8">
    <path d="M 178.298115 359.517187 
L 178.298115 26.877187 
L 178.326916 26.877187 
L 178.326916 359.517187 
z
" clip-path="url(#p9853cf9e6b)" style="fill: #add8e6; stroke: #add8e6; stroke-linejoin: miter"/>
   </g>
   <g id="patch_9">
    <path d="M 178.763571 359.517187 
L 178.763571 26.877187 
L 178.794694 26.877187 
L 178.794694 359.517187 
z
" clip-path="url(#p9853cf9e6b)" style="fill: #add8e6; stroke: #add8e6; stroke-linejoin: miter"/>
   </g>
   <g id="patch_10">
    <path d="M 180.167836 359.517187 
L 180.167836 26.877187 
L 180.236121 26.877187 
L 180.236121 359.517187 
z
" clip-path="url(#p9853cf9e6b)" style="fill: #add8e6; stroke: #add8e6; stroke-linejoin: miter"/>
   </g>
   <g id="patch_11">
    <path d="M 184.079153 359.517187 
L 184.079153 26.877187 
L 183.938401 26.877187 
L 183.938401 359.517187 
z
" clip-path="url(#p9853cf9e6b)" style="fill: #add8e6; stroke: #add8e6; stroke-linejoin: miter"/>
   </g>
   <g id="patch_12">
    <path d="M 242.153848 359.517187 
L 242.153848 26.877187 
L 242.135267 26.877187 
L 242.135267 359.517187 
z
" clip-path="url(#p9853cf9e6b)" style="fill: #add8e6; stroke: #add8e6; stroke-linejoin: miter"/>
   </g>
   <g id="patch_13">
    <path d="M 244.908493 359.517187 
L 244.908493 26.877187 
L 245.047387 26.877187 
L 245.047387 359.517187 
z
" clip-path="url(#p9853cf9e6b)" style="fill: #add8e6; stroke: #add8e6; stroke-linejoin: miter"/>
   </g>
   <g id="patch_14">
    <path d="M 247.290123 359.517187 
L 247.290123 26.877187 
L 247.226947 26.877187 
L 247.226947 359.517187 
z
" clip-path="url(#p9853cf9e6b)" style="fill: #add8e6; stroke: #add8e6; stroke-linejoin: miter"/>
   </g>
   <g id="patch_15">
    <path d="M 259.721329 359.517187 
L 259.721329 26.877187 
L 259.746878 26.877187 
L 259.746878 359.517187 
z
" clip-path="url(#p9853cf9e6b)" style="fill: #add8e6; stroke: #add8e6; stroke-linejoin: miter"/>
   </g>
   <g id="patch_16">
    <path d="M 259.893204 359.517187 
L 259.893204 26.877187 
L 259.878804 26.877187 
L 259.878804 359.517187 
z
" clip-path="url(#p9853cf9e6b)" style="fill: #add8e6; stroke: #add8e6; stroke-linejoin: miter"/>
   </g>
   <g id="patch_17">
    <path d="M 269.594849 359.517187 
L 269.594849 26.877187 
L 269.77137 26.877187 
L 269.77137 359.517187 
z
" clip-path="url(#p9853cf9e6b)" style="fill: #add8e6; stroke: #add8e6; stroke-linejoin: miter"/>
   </g>
   <g id="patch_18">
    <path d="M 287.959458 359.517187 
L 287.959458 26.877187 
L 288.267439 26.877187 
L 288.267439 359.517187 
z
" clip-path="url(#p9853cf9e6b)" style="fill: #add8e6; stroke: #add8e6; stroke-linejoin: miter"/>
   </g>
   <g id="patch_19">
    <path d="M 299.168029 359.517187 
L 299.168029 26.877187 
L 299.384499 26.877187 
L 299.384499 359.517187 
z
" clip-path="url(#p9853cf9e6b)" style="fill: #add8e6; stroke: #add8e6; stroke-linejoin: miter"/>
   </g>
   <g id="patch_20">
    <path d="M 306.298518 359.517187 
L 306.298518 26.877187 
L 306.359371 26.877187 
L 306.359371 359.517187 
z
" clip-path="url(#p9853cf9e6b)" style="fill: #add8e6; stroke: #add8e6; stroke-linejoin: miter"/>
   </g>
   <g id="patch_21">
    <path d="M 306.622293 359.517187 
L 306.622293 26.877187 
L 306.795097 26.877187 
L 306.795097 359.517187 
z
" clip-path="url(#p9853cf9e6b)" style="fill: #add8e6; stroke: #add8e6; stroke-linejoin: miter"/>
   </g>
   <g id="patch_22">
    <path d="M 309.69932 359.517187 
L 309.69932 26.877187 
L 309.856794 26.877187 
L 309.856794 359.517187 
z
" clip-path="url(#p9853cf9e6b)" style="fill: #add8e6; stroke: #add8e6; stroke-linejoin: miter"/>
   </g>
   <g id="patch_23">
    <path d="M 327.977526 359.517187 
L 327.977526 26.877187 
L 328.171234 26.877187 
L 328.171234 359.517187 
z
" clip-path="url(#p9853cf9e6b)" style="fill: #add8e6; stroke: #add8e6; stroke-linejoin: miter"/>
   </g>
   <g id="patch_24">
    <path d="M 331.59712 359.517187 
L 331.59712 26.877187 
L 331.939941 26.877187 
L 331.939941 359.517187 
z
" clip-path="url(#p9853cf9e6b)" style="fill: #add8e6; stroke: #add8e6; stroke-linejoin: miter"/>
   </g>
   <g id="patch_25">
    <path d="M 332.295769 359.517187 
L 332.295769 26.877187 
L 332.317602 26.877187 
L 332.317602 359.517187 
z
" clip-path="url(#p9853cf9e6b)" style="fill: #add8e6; stroke: #add8e6; stroke-linejoin: miter"/>
   </g>
   <g id="patch_26">
    <path d="M 341.356367 359.517187 
L 341.356367 26.877187 
L 334.939392 26.877187 
L 334.939392 359.517187 
z
" clip-path="url(#p9853cf9e6b)" style="fill: #add8e6; stroke: #add8e6; stroke-linejoin: miter"/>
   </g>
   <g id="patch_27">
    <path d="M 347.922456 359.517187 
L 347.922456 26.877187 
L 343.692009 26.877187 
L 343.692009 359.517187 
z
" clip-path="url(#p9853cf9e6b)" style="fill: #add8e6; stroke: #add8e6; stroke-linejoin: miter"/>
   </g>
   <g id="patch_28">
    <path d="M 350.183773 359.517187 
L 350.183773 26.877187 
L 350.30966 26.877187 
L 350.30966 359.517187 
z
" clip-path="url(#p9853cf9e6b)" style="fill: #add8e6; stroke: #add8e6; stroke-linejoin: miter"/>
   </g>
   <g id="patch_29">
    <path d="M 356.995132 359.517187 
L 356.995132 26.877187 
L 356.936601 26.877187 
L 356.936601 359.517187 
z
" clip-path="url(#p9853cf9e6b)" style="fill: #add8e6; stroke: #add8e6; stroke-linejoin: miter"/>
   </g>
   <g id="patch_30">
    <path d="M 363.69454 359.517187 
L 363.69454 26.877187 
L 363.844117 26.877187 
L 363.844117 359.517187 
z
" clip-path="url(#p9853cf9e6b)" style="fill: #add8e6; stroke: #add8e6; stroke-linejoin: miter"/>
   </g>
   <g id="patch_31">
    <path d="M 364.3472 359.517187 
L 364.3472 26.877187 
L 364.445215 26.877187 
L 364.445215 359.517187 
z
" clip-path="url(#p9853cf9e6b)" style="fill: #add8e6; stroke: #add8e6; stroke-linejoin: miter"/>
   </g>
   <g id="patch_32">
    <path d="M 365.991625 359.517187 
L 365.991625 26.877187 
L 366.144919 26.877187 
L 366.144919 359.517187 
z
" clip-path="url(#p9853cf9e6b)" style="fill: #add8e6; stroke: #add8e6; stroke-linejoin: miter"/>
   </g>
   <g id="patch_33">
    <path d="M 371.794961 359.517187 
L 371.794961 26.877187 
L 370.353998 26.877187 
L 370.353998 359.517187 
z
" clip-path="url(#p9853cf9e6b)" style="fill: #add8e6; stroke: #add8e6; stroke-linejoin: miter"/>
   </g>
   <g id="patch_34">
    <path d="M 372.166582 359.517187 
L 372.166582 26.877187 
L 372.253913 26.877187 
L 372.253913 359.517187 
z
" clip-path="url(#p9853cf9e6b)" style="fill: #add8e6; stroke: #add8e6; stroke-linejoin: miter"/>
   </g>
   <g id="patch_35">
    <path d="M 388.299603 359.517187 
L 388.299603 26.877187 
L 388.344662 26.877187 
L 388.344662 359.517187 
z
" clip-path="url(#p9853cf9e6b)" style="fill: #add8e6; stroke: #add8e6; stroke-linejoin: miter"/>
   </g>
   <g id="patch_36">
    <path d="M 388.490059 359.517187 
L 388.490059 26.877187 
L 388.655431 26.877187 
L 388.655431 359.517187 
z
" clip-path="url(#p9853cf9e6b)" style="fill: #add8e6; stroke: #add8e6; stroke-linejoin: miter"/>
   </g>
   <g id="patch_37">
    <path d="M 396.277854 359.517187 
L 396.277854 26.877187 
L 396.077643 26.877187 
L 396.077643 359.517187 
z
" clip-path="url(#p9853cf9e6b)" style="fill: #add8e6; stroke: #add8e6; stroke-linejoin: miter"/>
   </g>
   <g id="patch_38">
    <path d="M 396.450193 359.517187 
L 396.450193 26.877187 
L 396.417676 26.877187 
L 396.417676 359.517187 
z
" clip-path="url(#p9853cf9e6b)" style="fill: #add8e6; stroke: #add8e6; stroke-linejoin: miter"/>
   </g>
   <g id="patch_39">
    <path d="M 399.724644 359.517187 
L 399.724644 26.877187 
L 399.821265 26.877187 
L 399.821265 359.517187 
z
" clip-path="url(#p9853cf9e6b)" style="fill: #add8e6; stroke: #add8e6; stroke-linejoin: miter"/>
   </g>
   <g id="patch_40">
    <path d="M 400.139002 359.517187 
L 400.139002 26.877187 
L 399.886299 26.877187 
L 399.886299 359.517187 
z
" clip-path="url(#p9853cf9e6b)" style="fill: #add8e6; stroke: #add8e6; stroke-linejoin: miter"/>
   </g>
   <g id="patch_41">
    <path d="M 411.618857 359.517187 
L 411.618857 26.877187 
L 411.760537 26.877187 
L 411.760537 359.517187 
z
" clip-path="url(#p9853cf9e6b)" style="fill: #add8e6; stroke: #add8e6; stroke-linejoin: miter"/>
   </g>
   <g id="patch_42">
    <path d="M 419.024345 359.517187 
L 419.024345 26.877187 
L 418.960241 26.877187 
L 418.960241 359.517187 
z
" clip-path="url(#p9853cf9e6b)" style="fill: #add8e6; stroke: #add8e6; stroke-linejoin: miter"/>
   </g>
   <g id="patch_43">
    <path d="M 419.128864 359.517187 
L 419.128864 26.877187 
L 419.253357 26.877187 
L 419.253357 359.517187 
z
" clip-path="url(#p9853cf9e6b)" style="fill: #add8e6; stroke: #add8e6; stroke-linejoin: miter"/>
   </g>
   <g id="patch_44">
    <path d="M 431.210281 359.517187 
L 431.210281 26.877187 
L 430.895332 26.877187 
L 430.895332 359.517187 
z
" clip-path="url(#p9853cf9e6b)" style="fill: #add8e6; stroke: #add8e6; stroke-linejoin: miter"/>
   </g>
   <g id="patch_45">
    <path d="M 435.647442 359.517187 
L 435.647442 26.877187 
L 431.413279 26.877187 
L 431.413279 359.517187 
z
" clip-path="url(#p9853cf9e6b)" style="fill: #add8e6; stroke: #add8e6; stroke-linejoin: miter"/>
   </g>
   <g id="patch_46">
    <path d="M 458.281054 359.517187 
L 458.281054 26.877187 
L 458.3145 26.877187 
L 458.3145 359.517187 
z
" clip-path="url(#p9853cf9e6b)" style="fill: #add8e6; stroke: #add8e6; stroke-linejoin: miter"/>
   </g>
   <g id="patch_47">
    <path d="M 464.256264 359.517187 
L 464.256264 26.877187 
L 464.233967 26.877187 
L 464.233967 359.517187 
z
" clip-path="url(#p9853cf9e6b)" style="fill: #add8e6; stroke: #add8e6; stroke-linejoin: miter"/>
   </g>
   <g id="patch_48">
    <path d="M 470.777294 359.517187 
L 470.777294 26.877187 
L 470.866483 26.877187 
L 470.866483 359.517187 
z
" clip-path="url(#p9853cf9e6b)" style="fill: #add8e6; stroke: #add8e6; stroke-linejoin: miter"/>
   </g>
   <g id="patch_49">
    <path d="M 482.475011 359.517187 
L 482.475011 26.877187 
L 482.640383 26.877187 
L 482.640383 359.517187 
z
" clip-path="url(#p9853cf9e6b)" style="fill: #add8e6; stroke: #add8e6; stroke-linejoin: miter"/>
   </g>
   <g id="patch_50">
    <path d="M 493.873109 359.517187 
L 493.873109 26.877187 
L 493.907484 26.877187 
L 493.907484 359.517187 
z
" clip-path="url(#p9853cf9e6b)" style="fill: #add8e6; stroke: #add8e6; stroke-linejoin: miter"/>
   </g>
   <g id="patch_51">
    <path d="M 496.896715 359.517187 
L 496.896715 26.877187 
L 496.843295 26.877187 
L 496.843295 359.517187 
z
" clip-path="url(#p9853cf9e6b)" style="fill: #add8e6; stroke: #add8e6; stroke-linejoin: miter"/>
   </g>
   <g id="patch_52">
    <path d="M 497.063016 359.517187 
L 497.063016 26.877187 
L 497.011918 26.877187 
L 497.011918 359.517187 
z
" clip-path="url(#p9853cf9e6b)" style="fill: #add8e6; stroke: #add8e6; stroke-linejoin: miter"/>
   </g>
   <g id="patch_53">
    <path d="M 500.080119 359.517187 
L 500.080119 26.877187 
L 500.350009 26.877187 
L 500.350009 359.517187 
z
" clip-path="url(#p9853cf9e6b)" style="fill: #add8e6; stroke: #add8e6; stroke-linejoin: miter"/>
   </g>
   <g id="patch_54">
    <path d="M 502.53886 359.517187 
L 502.53886 26.877187 
L 502.701444 26.877187 
L 502.701444 359.517187 
z
" clip-path="url(#p9853cf9e6b)" style="fill: #add8e6; stroke: #add8e6; stroke-linejoin: miter"/>
   </g>
   <g id="patch_55">
    <path d="M 516.369221 359.517187 
L 516.369221 26.877187 
L 508.830877 26.877187 
L 508.830877 359.517187 
z
" clip-path="url(#p9853cf9e6b)" style="fill: #add8e6; stroke: #add8e6; stroke-linejoin: miter"/>
   </g>
   <g id="patch_56">
    <path d="M 515.934424 359.517187 
L 515.934424 26.877187 
L 512.096037 26.877187 
L 512.096037 359.517187 
z
" clip-path="url(#p9853cf9e6b)" style="fill: #add8e6; stroke: #add8e6; stroke-linejoin: miter"/>
   </g>
   <g id="patch_57">
    <path d="M 522.197176 359.517187 
L 522.197176 26.877187 
L 522.335605 26.877187 
L 522.335605 359.517187 
z
" clip-path="url(#p9853cf9e6b)" style="fill: #add8e6; stroke: #add8e6; stroke-linejoin: miter"/>
   </g>
   <g id="patch_58">
    <path d="M 526.717952 359.517187 
L 526.717952 26.877187 
L 526.333789 26.877187 
L 526.333789 359.517187 
z
" clip-path="url(#p9853cf9e6b)" style="fill: #add8e6; stroke: #add8e6; stroke-linejoin: miter"/>
   </g>
   <g id="patch_59">
    <path d="M 529.524624 359.517187 
L 529.524624 26.877187 
L 529.596161 26.877187 
L 529.596161 359.517187 
z
" clip-path="url(#p9853cf9e6b)" style="fill: #add8e6; stroke: #add8e6; stroke-linejoin: miter"/>
   </g>
   <g id="patch_60">
    <path d="M 531.676778 359.517187 
L 531.676778 26.877187 
L 531.333492 26.877187 
L 531.333492 359.517187 
z
" clip-path="url(#p9853cf9e6b)" style="fill: #add8e6; stroke: #add8e6; stroke-linejoin: miter"/>
   </g>
   <g id="patch_61">
    <path d="M 534.975848 359.517187 
L 534.975848 26.877187 
L 534.825806 26.877187 
L 534.825806 359.517187 
z
" clip-path="url(#p9853cf9e6b)" style="fill: #add8e6; stroke: #add8e6; stroke-linejoin: miter"/>
   </g>
   <g id="patch_62">
    <path d="M 535.341431 359.517187 
L 535.341431 26.877187 
L 535.255029 26.877187 
L 535.255029 359.517187 
z
" clip-path="url(#p9853cf9e6b)" style="fill: #add8e6; stroke: #add8e6; stroke-linejoin: miter"/>
   </g>
   <g id="patch_63">
    <path d="M 537.72399 359.517187 
L 537.72399 26.877187 
L 537.887968 26.877187 
L 537.887968 359.517187 
z
" clip-path="url(#p9853cf9e6b)" style="fill: #add8e6; stroke: #add8e6; stroke-linejoin: miter"/>
   </g>
   <g id="patch_64">
    <path d="M 539.769302 359.517187 
L 539.769302 26.877187 
L 539.865923 26.877187 
L 539.865923 359.517187 
z
" clip-path="url(#p9853cf9e6b)" style="fill: #add8e6; stroke: #add8e6; stroke-linejoin: miter"/>
   </g>
   <g id="patch_65">
    <path d="M 542.115163 359.517187 
L 542.115163 26.877187 
L 542.183448 26.877187 
L 542.183448 359.517187 
z
" clip-path="url(#p9853cf9e6b)" style="fill: #add8e6; stroke: #add8e6; stroke-linejoin: miter"/>
   </g>
   <g id="patch_66">
    <path d="M 542.331168 359.517187 
L 542.331168 26.877187 
L 542.43708 26.877187 
L 542.43708 359.517187 
z
" clip-path="url(#p9853cf9e6b)" style="fill: #add8e6; stroke: #add8e6; stroke-linejoin: miter"/>
   </g>
   <g id="patch_67">
    <path d="M 543.734504 359.517187 
L 543.734504 26.877187 
L 543.826016 26.877187 
L 543.826016 359.517187 
z
" clip-path="url(#p9853cf9e6b)" style="fill: #add8e6; stroke: #add8e6; stroke-linejoin: miter"/>
   </g>
   <g id="patch_68">
    <path d="M 544.728592 359.517187 
L 544.728592 26.877187 
L 544.108913 26.877187 
L 544.108913 359.517187 
z
" clip-path="url(#p9853cf9e6b)" style="fill: #add8e6; stroke: #add8e6; stroke-linejoin: miter"/>
   </g>
   <g id="patch_69">
    <path d="M 557.913725 359.517187 
L 557.913725 26.877187 
L 557.927196 26.877187 
L 557.927196 359.517187 
z
" clip-path="url(#p9853cf9e6b)" style="fill: #add8e6; stroke: #add8e6; stroke-linejoin: miter"/>
   </g>
   <g id="patch_70">
    <path d="M 563.676646 359.517187 
L 563.676646 26.877187 
L 563.961401 26.877187 
L 563.961401 359.517187 
z
" clip-path="url(#p9853cf9e6b)" style="fill: #add8e6; stroke: #add8e6; stroke-linejoin: miter"/>
   </g>
   <g id="patch_71">
    <path d="M 567.922422 359.517187 
L 567.922422 26.877187 
L 567.987921 26.877187 
L 567.987921 359.517187 
z
" clip-path="url(#p9853cf9e6b)" style="fill: #add8e6; stroke: #add8e6; stroke-linejoin: miter"/>
   </g>
   <g id="patch_72">
    <path d="M 569.248647 359.517187 
L 569.248647 26.877187 
L 568.149576 26.877187 
L 568.149576 359.517187 
z
" clip-path="url(#p9853cf9e6b)" style="fill: #add8e6; stroke: #add8e6; stroke-linejoin: miter"/>
   </g>
   <g id="patch_73">
    <path d="M 575.637751 359.517187 
L 575.637751 26.877187 
L 575.759457 26.877187 
L 575.759457 359.517187 
z
" clip-path="url(#p9853cf9e6b)" style="fill: #add8e6; stroke: #add8e6; stroke-linejoin: miter"/>
   </g>
   <g id="patch_74">
    <path d="M 577.299364 359.517187 
L 577.299364 26.877187 
L 577.457303 26.877187 
L 577.457303 359.517187 
z
" clip-path="url(#p9853cf9e6b)" style="fill: #add8e6; stroke: #add8e6; stroke-linejoin: miter"/>
   </g>
   <g id="patch_75">
    <path d="M 585.485722 359.517187 
L 585.485722 26.877187 
L 578.544296 26.877187 
L 578.544296 359.517187 
z
" clip-path="url(#p9853cf9e6b)" style="fill: #add8e6; stroke: #add8e6; stroke-linejoin: miter"/>
   </g>
   <g id="patch_76">
    <path d="M 583.257386 359.517187 
L 583.257386 26.877187 
L 580.823265 26.877187 
L 580.823265 359.517187 
z
" clip-path="url(#p9853cf9e6b)" style="fill: #add8e6; stroke: #add8e6; stroke-linejoin: miter"/>
   </g>
   <g id="patch_77">
    <path d="M 586.809159 359.517187 
L 586.809159 26.877187 
L 582.216846 26.877187 
L 582.216846 359.517187 
z
" clip-path="url(#p9853cf9e6b)" style="fill: #add8e6; stroke: #add8e6; stroke-linejoin: miter"/>
   </g>
   <g id="patch_78">
    <path d="M 600.315281 359.517187 
L 600.315281 26.877187 
L 600.582848 26.877187 
L 600.582848 359.517187 
z
" clip-path="url(#p9853cf9e6b)" style="fill: #add8e6; stroke: #add8e6; stroke-linejoin: miter"/>
   </g>
   <g id="patch_79">
    <path d="M 600.751936 359.517187 
L 600.751936 26.877187 
L 600.685509 26.877187 
L 600.685509 359.517187 
z
" clip-path="url(#p9853cf9e6b)" style="fill: #add8e6; stroke: #add8e6; stroke-linejoin: miter"/>
   </g>
   <g id="patch_80">
    <path d="M 623.078495 359.517187 
L 623.078495 26.877187 
L 623.155607 26.877187 
L 623.155607 359.517187 
z
" clip-path="url(#p9853cf9e6b)" style="fill: #add8e6; stroke: #add8e6; stroke-linejoin: miter"/>
   </g>
   <g id="patch_81">
    <path d="M 640.889852 359.517187 
L 640.889852 26.877187 
L 641.002268 26.877187 
L 641.002268 359.517187 
z
" clip-path="url(#p9853cf9e6b)" style="fill: #add8e6; stroke: #add8e6; stroke-linejoin: miter"/>
   </g>
   <g id="patch_82">
    <path d="M 646.201718 359.517187 
L 646.201718 26.877187 
L 646.465569 26.877187 
L 646.465569 359.517187 
z
" clip-path="url(#p9853cf9e6b)" style="fill: #add8e6; stroke: #add8e6; stroke-linejoin: miter"/>
   </g>
   <g id="patch_83">
    <path d="M 649.011177 359.517187 
L 649.011177 26.877187 
L 649.031616 26.877187 
L 649.031616 359.517187 
z
" clip-path="url(#p9853cf9e6b)" style="fill: #add8e6; stroke: #add8e6; stroke-linejoin: miter"/>
   </g>
   <g id="patch_84">
    <path d="M 660.272704 359.517187 
L 660.272704 26.877187 
L 657.274647 26.877187 
L 657.274647 359.517187 
z
" clip-path="url(#p9853cf9e6b)" style="fill: #add8e6; stroke: #add8e6; stroke-linejoin: miter"/>
   </g>
   <g id="patch_85">
    <path d="M 675.961638 359.517187 
L 675.961638 26.877187 
L 675.804627 26.877187 
L 675.804627 359.517187 
z
" clip-path="url(#p9853cf9e6b)" style="fill: #add8e6; stroke: #add8e6; stroke-linejoin: miter"/>
   </g>
   <g id="patch_86">
    <path d="M 698.118644 359.517187 
L 698.118644 26.877187 
L 698.425697 26.877187 
L 698.425697 359.517187 
z
" clip-path="url(#p9853cf9e6b)" style="fill: #add8e6; stroke: #add8e6; stroke-linejoin: miter"/>
   </g>
   <g id="patch_87">
    <path d="M 703.681819 359.517187 
L 703.681819 26.877187 
L 703.70551 26.877187 
L 703.70551 359.517187 
z
" clip-path="url(#p9853cf9e6b)" style="fill: #add8e6; stroke: #add8e6; stroke-linejoin: miter"/>
   </g>
   <g id="patch_88">
    <path d="M 707.376202 359.517187 
L 707.376202 26.877187 
L 707.430552 26.877187 
L 707.430552 359.517187 
z
" clip-path="url(#p9853cf9e6b)" style="fill: #add8e6; stroke: #add8e6; stroke-linejoin: miter"/>
   </g>
   <g id="patch_89">
    <path d="M 718.179705 359.517187 
L 718.179705 26.877187 
L 712.094867 26.877187 
L 712.094867 359.517187 
z
" clip-path="url(#p9853cf9e6b)" style="fill: #add8e6; stroke: #add8e6; stroke-linejoin: miter"/>
   </g>
   <g id="patch_90">
    <path d="M 717.096893 359.517187 
L 717.096893 26.877187 
L 716.880888 26.877187 
L 716.880888 359.517187 
z
" clip-path="url(#p9853cf9e6b)" style="fill: #add8e6; stroke: #add8e6; stroke-linejoin: miter"/>
   </g>
   <g id="patch_91">
    <path d="M 717.593937 359.517187 
L 717.593937 26.877187 
L 717.675229 26.877187 
L 717.675229 359.517187 
z
" clip-path="url(#p9853cf9e6b)" style="fill: #add8e6; stroke: #add8e6; stroke-linejoin: miter"/>
   </g>
   <g id="patch_92">
    <path d="M 719.562602 359.517187 
L 719.562602 26.877187 
L 719.656901 26.877187 
L 719.656901 359.517187 
z
" clip-path="url(#p9853cf9e6b)" style="fill: #add8e6; stroke: #add8e6; stroke-linejoin: miter"/>
   </g>
   <g id="patch_93">
    <path d="M 723.740093 359.517187 
L 723.740093 26.877187 
L 724.004873 26.877187 
L 724.004873 359.517187 
z
" clip-path="url(#p9853cf9e6b)" style="fill: #add8e6; stroke: #add8e6; stroke-linejoin: miter"/>
   </g>
   <g id="patch_94">
    <path d="M 730.736334 359.517187 
L 730.736334 26.877187 
L 730.790219 26.877187 
L 730.790219 359.517187 
z
" clip-path="url(#p9853cf9e6b)" style="fill: #add8e6; stroke: #add8e6; stroke-linejoin: miter"/>
   </g>
   <g id="patch_95">
    <path d="M 732.466697 359.517187 
L 732.466697 26.877187 
L 732.667372 26.877187 
L 732.667372 359.517187 
z
" clip-path="url(#p9853cf9e6b)" style="fill: #add8e6; stroke: #add8e6; stroke-linejoin: miter"/>
   </g>
   <g id="patch_96">
    <path d="M 740.527168 359.517187 
L 740.527168 26.877187 
L 740.583841 26.877187 
L 740.583841 359.517187 
z
" clip-path="url(#p9853cf9e6b)" style="fill: #add8e6; stroke: #add8e6; stroke-linejoin: miter"/>
   </g>
   <g id="patch_97">
    <path d="M 745.733122 359.517187 
L 745.733122 26.877187 
L 745.756348 26.877187 
L 745.756348 359.517187 
z
" clip-path="url(#p9853cf9e6b)" style="fill: #add8e6; stroke: #add8e6; stroke-linejoin: miter"/>
   </g>
   <g id="patch_98">
    <path d="M 755.154658 359.517187 
L 755.154658 26.877187 
L 748.46965 26.877187 
L 748.46965 359.517187 
z
" clip-path="url(#p9853cf9e6b)" style="fill: #add8e6; stroke: #add8e6; stroke-linejoin: miter"/>
   </g>
   <g id="patch_99">
    <path d="M 751.011542 359.517187 
L 751.011542 26.877187 
L 750.125689 26.877187 
L 750.125689 359.517187 
z
" clip-path="url(#p9853cf9e6b)" style="fill: #add8e6; stroke: #add8e6; stroke-linejoin: miter"/>
   </g>
   <g id="patch_100">
    <path d="M 752.838991 359.517187 
L 752.838991 26.877187 
L 753.077758 26.877187 
L 753.077758 359.517187 
z
" clip-path="url(#p9853cf9e6b)" style="fill: #add8e6; stroke: #add8e6; stroke-linejoin: miter"/>
   </g>
   <g id="patch_101">
    <path d="M 762.81192 359.517187 
L 762.81192 26.877187 
L 763.124547 26.877187 
L 763.124547 359.517187 
z
" clip-path="url(#p9853cf9e6b)" style="fill: #add8e6; stroke: #add8e6; stroke-linejoin: miter"/>
   </g>
   <g id="patch_102">
    <path d="M 774.367493 359.517187 
L 774.367493 26.877187 
L 771.197561 26.877187 
L 771.197561 359.517187 
z
" clip-path="url(#p9853cf9e6b)" style="fill: #add8e6; stroke: #add8e6; stroke-linejoin: miter"/>
   </g>
   <g id="patch_103">
    <path d="M 771.342958 359.517187 
L 771.342958 26.877187 
L 771.447012 26.877187 
L 771.447012 359.517187 
z
" clip-path="url(#p9853cf9e6b)" style="fill: #add8e6; stroke: #add8e6; stroke-linejoin: miter"/>
   </g>
   <g id="patch_104">
    <path d="M 771.6593 359.517187 
L 771.6593 26.877187 
L 771.685314 26.877187 
L 771.685314 359.517187 
z
" clip-path="url(#p9853cf9e6b)" style="fill: #add8e6; stroke: #add8e6; stroke-linejoin: miter"/>
   </g>
   <g id="patch_105">
    <path d="M 782.02011 359.517187 
L 782.02011 26.877187 
L 782.187339 26.877187 
L 782.187339 359.517187 
z
" clip-path="url(#p9853cf9e6b)" style="fill: #add8e6; stroke: #add8e6; stroke-linejoin: miter"/>
   </g>
   <g id="patch_106">
    <path d="M 782.365253 359.517187 
L 782.365253 26.877187 
L 782.610059 26.877187 
L 782.610059 359.517187 
z
" clip-path="url(#p9853cf9e6b)" style="fill: #add8e6; stroke: #add8e6; stroke-linejoin: miter"/>
   </g>
   <g id="patch_107">
    <path d="M 785.085059 359.517187 
L 785.085059 26.877187 
L 785.129653 26.877187 
L 785.129653 359.517187 
z
" clip-path="url(#p9853cf9e6b)" style="fill: #add8e6; stroke: #add8e6; stroke-linejoin: miter"/>
   </g>
   <g id="patch_108">
    <path d="M 785.662466 359.517187 
L 785.662466 26.877187 
L 785.759552 26.877187 
L 785.759552 359.517187 
z
" clip-path="url(#p9853cf9e6b)" style="fill: #add8e6; stroke: #add8e6; stroke-linejoin: miter"/>
   </g>
   <g id="patch_109">
    <path d="M 792.078047 359.517187 
L 792.078047 26.877187 
L 789.752625 26.877187 
L 789.752625 359.517187 
z
" clip-path="url(#p9853cf9e6b)" style="fill: #add8e6; stroke: #add8e6; stroke-linejoin: miter"/>
   </g>
   <g id="patch_110">
    <path d="M 798.720318 359.517187 
L 798.720318 26.877187 
L 792.464534 26.877187 
L 792.464534 359.517187 
z
" clip-path="url(#p9853cf9e6b)" style="fill: #add8e6; stroke: #add8e6; stroke-linejoin: miter"/>
   </g>
   <g id="patch_111">
    <path d="M 808.292361 359.517187 
L 808.292361 26.877187 
L 807.20769 26.877187 
L 807.20769 359.517187 
z
" clip-path="url(#p9853cf9e6b)" style="fill: #add8e6; stroke: #add8e6; stroke-linejoin: miter"/>
   </g>
   <g id="patch_112">
    <path d="M 829.020947 359.517187 
L 829.020947 26.877187 
L 829.288979 26.877187 
L 829.288979 359.517187 
z
" clip-path="url(#p9853cf9e6b)" style="fill: #add8e6; stroke: #add8e6; stroke-linejoin: miter"/>
   </g>
   <g id="patch_113">
    <path d="M 835.134122 359.517187 
L 835.134122 26.877187 
L 835.262796 26.877187 
L 835.262796 359.517187 
z
" clip-path="url(#p9853cf9e6b)" style="fill: #add8e6; stroke: #add8e6; stroke-linejoin: miter"/>
   </g>
   <g id="patch_114">
    <path d="M 865.071026 359.517187 
L 865.071026 26.877187 
L 865.168577 26.877187 
L 865.168577 359.517187 
z
" clip-path="url(#p9853cf9e6b)" style="fill: #add8e6; stroke: #add8e6; stroke-linejoin: miter"/>
   </g>
   <g id="patch_115">
    <path d="M 890.073725 359.517187 
L 890.073725 26.877187 
L 886.189815 26.877187 
L 886.189815 359.517187 
z
" clip-path="url(#p9853cf9e6b)" style="fill: #add8e6; stroke: #add8e6; stroke-linejoin: miter"/>
   </g>
   <g id="patch_116">
    <path d="M 916.941035 359.517187 
L 916.941035 26.877187 
L 916.992133 26.877187 
L 916.992133 359.517187 
z
" clip-path="url(#p9853cf9e6b)" style="fill: #add8e6; stroke: #add8e6; stroke-linejoin: miter"/>
   </g>
   <g id="patch_117">
    <path d="M 917.452479 359.517187 
L 917.452479 26.877187 
L 917.529126 26.877187 
L 917.529126 359.517187 
z
" clip-path="url(#p9853cf9e6b)" style="fill: #add8e6; stroke: #add8e6; stroke-linejoin: miter"/>
   </g>
   <g id="patch_118">
    <path d="M 921.072538 359.517187 
L 921.072538 26.877187 
L 921.349396 26.877187 
L 921.349396 359.517187 
z
" clip-path="url(#p9853cf9e6b)" style="fill: #add8e6; stroke: #add8e6; stroke-linejoin: miter"/>
   </g>
   <g id="patch_119">
    <path d="M 925.804674 359.517187 
L 925.804674 26.877187 
L 921.612318 26.877187 
L 921.612318 359.517187 
z
" clip-path="url(#p9853cf9e6b)" style="fill: #add8e6; stroke: #add8e6; stroke-linejoin: miter"/>
   </g>
   <g id="patch_120">
    <path d="M 928.497537 359.517187 
L 928.497537 26.877187 
L 922.92182 26.877187 
L 922.92182 359.517187 
z
" clip-path="url(#p9853cf9e6b)" style="fill: #add8e6; stroke: #add8e6; stroke-linejoin: miter"/>
   </g>
   <g id="patch_121">
    <path d="M 924.76785 359.517187 
L 924.76785 26.877187 
L 924.896524 26.877187 
L 924.896524 359.517187 
z
" clip-path="url(#p9853cf9e6b)" style="fill: #add8e6; stroke: #add8e6; stroke-linejoin: miter"/>
   </g>
   <g id="patch_122">
    <path d="M 929.45632 359.517187 
L 929.45632 26.877187 
L 929.497663 26.877187 
L 929.497663 359.517187 
z
" clip-path="url(#p9853cf9e6b)" style="fill: #add8e6; stroke: #add8e6; stroke-linejoin: miter"/>
   </g>
   <g id="patch_123">
    <path d="M 929.655138 359.517187 
L 929.655138 26.877187 
L 929.924099 26.877187 
L 929.924099 359.517187 
z
" clip-path="url(#p9853cf9e6b)" style="fill: #add8e6; stroke: #add8e6; stroke-linejoin: miter"/>
   </g>
   <g id="patch_124">
    <path d="M 931.365526 359.517187 
L 931.365526 26.877187 
L 931.560163 26.877187 
L 931.560163 359.517187 
z
" clip-path="url(#p9853cf9e6b)" style="fill: #add8e6; stroke: #add8e6; stroke-linejoin: miter"/>
   </g>
   <g id="patch_125">
    <path d="M 947.465566 359.517187 
L 947.465566 26.877187 
L 947.399603 26.877187 
L 947.399603 359.517187 
z
" clip-path="url(#p9853cf9e6b)" style="fill: #add8e6; stroke: #add8e6; stroke-linejoin: miter"/>
   </g>
   <g id="patch_126">
    <path d="M 952.620886 359.517187 
L 952.620886 26.877187 
L 947.833936 26.877187 
L 947.833936 359.517187 
z
" clip-path="url(#p9853cf9e6b)" style="fill: #add8e6; stroke: #add8e6; stroke-linejoin: miter"/>
   </g>
   <g id="patch_127">
    <path d="M 958.998377 359.517187 
L 958.998377 26.877187 
L 950.819451 26.877187 
L 950.819451 359.517187 
z
" clip-path="url(#p9853cf9e6b)" style="fill: #add8e6; stroke: #add8e6; stroke-linejoin: miter"/>
   </g>
   <g id="patch_128">
    <path d="M 952.282246 359.517187 
L 952.282246 26.877187 
L 952.939087 26.877187 
L 952.939087 359.517187 
z
" clip-path="url(#p9853cf9e6b)" style="fill: #add8e6; stroke: #add8e6; stroke-linejoin: miter"/>
   </g>
   <g id="patch_129">
    <path d="M 962.108385 359.517187 
L 962.108385 26.877187 
L 953.950362 26.877187 
L 953.950362 359.517187 
z
" clip-path="url(#p9853cf9e6b)" style="fill: #add8e6; stroke: #add8e6; stroke-linejoin: miter"/>
   </g>
   <g id="patch_130">
    <path d="M 960.795632 359.517187 
L 960.795632 26.877187 
L 961.082245 26.877187 
L 961.082245 359.517187 
z
" clip-path="url(#p9853cf9e6b)" style="fill: #add8e6; stroke: #add8e6; stroke-linejoin: miter"/>
   </g>
   <g id="patch_131">
    <path d="M 970.604583 359.517187 
L 970.604583 26.877187 
L 970.666365 26.877187 
L 970.666365 359.517187 
z
" clip-path="url(#p9853cf9e6b)" style="fill: #add8e6; stroke: #add8e6; stroke-linejoin: miter"/>
   </g>
   <g id="patch_132">
    <path d="M 983.660113 359.517187 
L 983.660113 26.877187 
L 975.516491 26.877187 
L 975.516491 359.517187 
z
" clip-path="url(#p9853cf9e6b)" style="fill: #add8e6; stroke: #add8e6; stroke-linejoin: miter"/>
   </g>
   <g id="patch_133">
    <path d="M 987.584437 359.517187 
L 987.584437 26.877187 
L 987.768389 26.877187 
L 987.768389 359.517187 
z
" clip-path="url(#p9853cf9e6b)" style="fill: #add8e6; stroke: #add8e6; stroke-linejoin: miter"/>
   </g>
   <g id="patch_134">
    <path d="M 990.045965 359.517187 
L 990.045965 26.877187 
L 990.192291 26.877187 
L 990.192291 359.517187 
z
" clip-path="url(#p9853cf9e6b)" style="fill: #add8e6; stroke: #add8e6; stroke-linejoin: miter"/>
   </g>
   <g id="patch_135">
    <path d="M 1002.252804 359.517187 
L 1002.252804 26.877187 
L 996.724005 26.877187 
L 996.724005 359.517187 
z
" clip-path="url(#p9853cf9e6b)" style="fill: #add8e6; stroke: #add8e6; stroke-linejoin: miter"/>
   </g>
   <g id="patch_136">
    <path d="M 1002.627213 359.517187 
L 1002.627213 26.877187 
L 1002.699679 26.877187 
L 1002.699679 359.517187 
z
" clip-path="url(#p9853cf9e6b)" style="fill: #add8e6; stroke: #add8e6; stroke-linejoin: miter"/>
   </g>
   <g id="patch_137">
    <path d="M 1009.663867 359.517187 
L 1009.663867 26.877187 
L 1009.793935 26.877187 
L 1009.793935 359.517187 
z
" clip-path="url(#p9853cf9e6b)" style="fill: #add8e6; stroke: #add8e6; stroke-linejoin: miter"/>
   </g>
   <g id="patch_138">
    <path d="M 1034.266609 359.517187 
L 1034.266609 26.877187 
L 1034.448703 26.877187 
L 1034.448703 359.517187 
z
" clip-path="url(#p9853cf9e6b)" style="fill: #add8e6; stroke: #add8e6; stroke-linejoin: miter"/>
   </g>
   <g id="patch_139">
    <path d="M 1034.60432 359.517187 
L 1034.60432 26.877187 
L 1034.897901 26.877187 
L 1034.897901 359.517187 
z
" clip-path="url(#p9853cf9e6b)" style="fill: #add8e6; stroke: #add8e6; stroke-linejoin: miter"/>
   </g>
   <g id="patch_140">
    <path d="M 1039.952883 359.517187 
L 1039.952883 26.877187 
L 1040.049969 26.877187 
L 1040.049969 359.517187 
z
" clip-path="url(#p9853cf9e6b)" style="fill: #add8e6; stroke: #add8e6; stroke-linejoin: miter"/>
   </g>
   <g id="patch_141">
    <path d="M 1059.736622 359.517187 
L 1059.736622 26.877187 
L 1059.75799 26.877187 
L 1059.75799 359.517187 
z
" clip-path="url(#p9853cf9e6b)" style="fill: #add8e6; stroke: #add8e6; stroke-linejoin: miter"/>
   </g>
   <g id="patch_142">
    <path d="M 1059.912677 359.517187 
L 1059.912677 26.877187 
L 1059.922432 26.877187 
L 1059.922432 359.517187 
z
" clip-path="url(#p9853cf9e6b)" style="fill: #add8e6; stroke: #add8e6; stroke-linejoin: miter"/>
   </g>
   <g id="patch_143">
    <path d="M 1060.110566 359.517187 
L 1060.110566 26.877187 
L 1060.236917 26.877187 
L 1060.236917 359.517187 
z
" clip-path="url(#p9853cf9e6b)" style="fill: #add8e6; stroke: #add8e6; stroke-linejoin: miter"/>
   </g>
   <g id="patch_144">
    <path d="M 1069.586916 359.517187 
L 1069.586916 26.877187 
L 1069.579019 26.877187 
L 1069.579019 359.517187 
z
" clip-path="url(#p9853cf9e6b)" style="fill: #add8e6; stroke: #add8e6; stroke-linejoin: miter"/>
   </g>
   <g id="patch_145">
    <path d="M 1069.772262 359.517187 
L 1069.772262 26.877187 
L 1069.908368 26.877187 
L 1069.908368 359.517187 
z
" clip-path="url(#p9853cf9e6b)" style="fill: #add8e6; stroke: #add8e6; stroke-linejoin: miter"/>
   </g>
   <g id="patch_146">
    <path d="M 1079.766095 359.517187 
L 1079.766095 26.877187 
L 1076.710901 26.877187 
L 1076.710901 359.517187 
z
" clip-path="url(#p9853cf9e6b)" style="fill: #add8e6; stroke: #add8e6; stroke-linejoin: miter"/>
   </g>
   <g id="patch_147">
    <path d="M 1096.60241 359.517187 
L 1096.60241 26.877187 
L 1097.031168 26.877187 
L 1097.031168 359.517187 
z
" clip-path="url(#p9853cf9e6b)" style="fill: #add8e6; stroke: #add8e6; stroke-linejoin: miter"/>
   </g>
   <g id="patch_148">
    <path d="M 1104.173735 359.517187 
L 1104.173735 26.877187 
L 1104.536066 26.877187 
L 1104.536066 359.517187 
z
" clip-path="url(#p9853cf9e6b)" style="fill: #add8e6; stroke: #add8e6; stroke-linejoin: miter"/>
   </g>
   <g id="patch_149">
    <path d="M 1110.560516 359.517187 
L 1110.560516 26.877187 
L 1110.429984 26.877187 
L 1110.429984 359.517187 
z
" clip-path="url(#p9853cf9e6b)" style="fill: #add8e6; stroke: #add8e6; stroke-linejoin: miter"/>
   </g>
   <g id="patch_150">
    <path d="M 1116.578927 359.517187 
L 1116.578927 26.877187 
L 1116.940794 26.877187 
L 1116.940794 359.517187 
z
" clip-path="url(#p9853cf9e6b)" style="fill: #add8e6; stroke: #add8e6; stroke-linejoin: miter"/>
   </g>
   <g id="patch_151">
    <path d="M 184.365301 359.517187 
L 184.365301 26.877187 
L 284.703124 26.877187 
L 284.703124 359.517187 
z
" clip-path="url(#p9853cf9e6b)" style="fill: #808080; opacity: 0.4; stroke: #808080; stroke-linejoin: miter"/>
   </g>
   <g id="patch_152">
    <path d="M 385.040947 359.517187 
L 385.040947 26.877187 
L 485.378769 26.877187 
L 485.378769 359.517187 
z
" clip-path="url(#p9853cf9e6b)" style="fill: #808080; opacity: 0.4; stroke: #808080; stroke-linejoin: miter"/>
   </g>
   <g id="patch_153">
    <path d="M 585.716592 359.517187 
L 585.716592 26.877187 
L 686.054415 26.877187 
L 686.054415 359.517187 
z
" clip-path="url(#p9853cf9e6b)" style="fill: #808080; opacity: 0.4; stroke: #808080; stroke-linejoin: miter"/>
   </g>
   <g id="patch_154">
    <path d="M 786.392237 359.517187 
L 786.392237 26.877187 
L 886.73006 26.877187 
L 886.73006 359.517187 
z
" clip-path="url(#p9853cf9e6b)" style="fill: #808080; opacity: 0.4; stroke: #808080; stroke-linejoin: miter"/>
   </g>
   <g id="patch_155">
    <path d="M 987.067883 359.517187 
L 987.067883 26.877187 
L 1087.405705 26.877187 
L 1087.405705 359.517187 
z
" clip-path="url(#p9853cf9e6b)" style="fill: #808080; opacity: 0.4; stroke: #808080; stroke-linejoin: miter"/>
   </g>
   <g id="matplotlib.axis_1">
    <g id="xtick_1">
     <g id="line2d_1">
      <defs>
       <path id="m2d99fda363" d="M 0 0 
L 0 3.5 
" style="stroke: #000000; stroke-width: 0.8"/>
      </defs>
      <g>
       <use xlink:href="#m2d99fda363" x="226.017111" y="359.517187" style="stroke: #000000; stroke-width: 0.8"/>
      </g>
     </g>
     <g id="text_1">
      <!-- 2024-11-14 -->
      <g transform="translate(196.959299 374.115625) scale(0.1 -0.1)">
       <defs>
        <path id="DejaVuSans-32" d="M 1228 531 
L 3431 531 
L 3431 0 
L 469 0 
L 469 531 
Q 828 903 1448 1529 
Q 2069 2156 2228 2338 
Q 2531 2678 2651 2914 
Q 2772 3150 2772 3378 
Q 2772 3750 2511 3984 
Q 2250 4219 1831 4219 
Q 1534 4219 1204 4116 
Q 875 4013 500 3803 
L 500 4441 
Q 881 4594 1212 4672 
Q 1544 4750 1819 4750 
Q 2544 4750 2975 4387 
Q 3406 4025 3406 3419 
Q 3406 3131 3298 2873 
Q 3191 2616 2906 2266 
Q 2828 2175 2409 1742 
Q 1991 1309 1228 531 
z
" transform="scale(0.015625)"/>
        <path id="DejaVuSans-30" d="M 2034 4250 
Q 1547 4250 1301 3770 
Q 1056 3291 1056 2328 
Q 1056 1369 1301 889 
Q 1547 409 2034 409 
Q 2525 409 2770 889 
Q 3016 1369 3016 2328 
Q 3016 3291 2770 3770 
Q 2525 4250 2034 4250 
z
M 2034 4750 
Q 2819 4750 3233 4129 
Q 3647 3509 3647 2328 
Q 3647 1150 3233 529 
Q 2819 -91 2034 -91 
Q 1250 -91 836 529 
Q 422 1150 422 2328 
Q 422 3509 836 4129 
Q 1250 4750 2034 4750 
z
" transform="scale(0.015625)"/>
        <path id="DejaVuSans-34" d="M 2419 4116 
L 825 1625 
L 2419 1625 
L 2419 4116 
z
M 2253 4666 
L 3047 4666 
L 3047 1625 
L 3713 1625 
L 3713 1100 
L 3047 1100 
L 3047 0 
L 2419 0 
L 2419 1100 
L 313 1100 
L 313 1709 
L 2253 4666 
z
" transform="scale(0.015625)"/>
        <path id="DejaVuSans-2d" d="M 313 2009 
L 1997 2009 
L 1997 1497 
L 313 1497 
L 313 2009 
z
" transform="scale(0.015625)"/>
        <path id="DejaVuSans-31" d="M 794 531 
L 1825 531 
L 1825 4091 
L 703 3866 
L 703 4441 
L 1819 4666 
L 2450 4666 
L 2450 531 
L 3481 531 
L 3481 0 
L 794 0 
L 794 531 
z
" transform="scale(0.015625)"/>
       </defs>
       <use xlink:href="#DejaVuSans-32"/>
       <use xlink:href="#DejaVuSans-30" x="63.623047"/>
       <use xlink:href="#DejaVuSans-32" x="127.246094"/>
       <use xlink:href="#DejaVuSans-34" x="190.869141"/>
       <use xlink:href="#DejaVuSans-2d" x="254.492188"/>
       <use xlink:href="#DejaVuSans-31" x="290.576172"/>
       <use xlink:href="#DejaVuSans-31" x="354.199219"/>
       <use xlink:href="#DejaVuSans-2d" x="417.822266"/>
       <use xlink:href="#DejaVuSans-31" x="453.90625"/>
       <use xlink:href="#DejaVuSans-34" x="517.529297"/>
      </g>
     </g>
    </g>
    <g id="xtick_2">
     <g id="line2d_2">
      <g>
       <use xlink:href="#m2d99fda363" x="426.692756" y="359.517187" style="stroke: #000000; stroke-width: 0.8"/>
      </g>
     </g>
     <g id="text_2">
      <!-- 2024-11-15 -->
      <g transform="translate(397.634944 374.115625) scale(0.1 -0.1)">
       <defs>
        <path id="DejaVuSans-35" d="M 691 4666 
L 3169 4666 
L 3169 4134 
L 1269 4134 
L 1269 2991 
Q 1406 3038 1543 3061 
Q 1681 3084 1819 3084 
Q 2600 3084 3056 2656 
Q 3513 2228 3513 1497 
Q 3513 744 3044 326 
Q 2575 -91 1722 -91 
Q 1428 -91 1123 -41 
Q 819 9 494 109 
L 494 744 
Q 775 591 1075 516 
Q 1375 441 1709 441 
Q 2250 441 2565 725 
Q 2881 1009 2881 1497 
Q 2881 1984 2565 2268 
Q 2250 2553 1709 2553 
Q 1456 2553 1204 2497 
Q 953 2441 691 2322 
L 691 4666 
z
" transform="scale(0.015625)"/>
       </defs>
       <use xlink:href="#DejaVuSans-32"/>
       <use xlink:href="#DejaVuSans-30" x="63.623047"/>
       <use xlink:href="#DejaVuSans-32" x="127.246094"/>
       <use xlink:href="#DejaVuSans-34" x="190.869141"/>
       <use xlink:href="#DejaVuSans-2d" x="254.492188"/>
       <use xlink:href="#DejaVuSans-31" x="290.576172"/>
       <use xlink:href="#DejaVuSans-31" x="354.199219"/>
       <use xlink:href="#DejaVuSans-2d" x="417.822266"/>
       <use xlink:href="#DejaVuSans-31" x="453.90625"/>
       <use xlink:href="#DejaVuSans-35" x="517.529297"/>
      </g>
     </g>
    </g>
    <g id="xtick_3">
     <g id="line2d_3">
      <g>
       <use xlink:href="#m2d99fda363" x="627.368402" y="359.517187" style="stroke: #000000; stroke-width: 0.8"/>
      </g>
     </g>
     <g id="text_3">
      <!-- 2024-11-16 -->
      <g transform="translate(598.310589 374.115625) scale(0.1 -0.1)">
       <defs>
        <path id="DejaVuSans-36" d="M 2113 2584 
Q 1688 2584 1439 2293 
Q 1191 2003 1191 1497 
Q 1191 994 1439 701 
Q 1688 409 2113 409 
Q 2538 409 2786 701 
Q 3034 994 3034 1497 
Q 3034 2003 2786 2293 
Q 2538 2584 2113 2584 
z
M 3366 4563 
L 3366 3988 
Q 3128 4100 2886 4159 
Q 2644 4219 2406 4219 
Q 1781 4219 1451 3797 
Q 1122 3375 1075 2522 
Q 1259 2794 1537 2939 
Q 1816 3084 2150 3084 
Q 2853 3084 3261 2657 
Q 3669 2231 3669 1497 
Q 3669 778 3244 343 
Q 2819 -91 2113 -91 
Q 1303 -91 875 529 
Q 447 1150 447 2328 
Q 447 3434 972 4092 
Q 1497 4750 2381 4750 
Q 2619 4750 2861 4703 
Q 3103 4656 3366 4563 
z
" transform="scale(0.015625)"/>
       </defs>
       <use xlink:href="#DejaVuSans-32"/>
       <use xlink:href="#DejaVuSans-30" x="63.623047"/>
       <use xlink:href="#DejaVuSans-32" x="127.246094"/>
       <use xlink:href="#DejaVuSans-34" x="190.869141"/>
       <use xlink:href="#DejaVuSans-2d" x="254.492188"/>
       <use xlink:href="#DejaVuSans-31" x="290.576172"/>
       <use xlink:href="#DejaVuSans-31" x="354.199219"/>
       <use xlink:href="#DejaVuSans-2d" x="417.822266"/>
       <use xlink:href="#DejaVuSans-31" x="453.90625"/>
       <use xlink:href="#DejaVuSans-36" x="517.529297"/>
      </g>
     </g>
    </g>
    <g id="xtick_4">
     <g id="line2d_4">
      <g>
       <use xlink:href="#m2d99fda363" x="828.044047" y="359.517187" style="stroke: #000000; stroke-width: 0.8"/>
      </g>
     </g>
     <g id="text_4">
      <!-- 2024-11-17 -->
      <g transform="translate(798.986234 374.115625) scale(0.1 -0.1)">
       <defs>
        <path id="DejaVuSans-37" d="M 525 4666 
L 3525 4666 
L 3525 4397 
L 1831 0 
L 1172 0 
L 2766 4134 
L 525 4134 
L 525 4666 
z
" transform="scale(0.015625)"/>
       </defs>
       <use xlink:href="#DejaVuSans-32"/>
       <use xlink:href="#DejaVuSans-30" x="63.623047"/>
       <use xlink:href="#DejaVuSans-32" x="127.246094"/>
       <use xlink:href="#DejaVuSans-34" x="190.869141"/>
       <use xlink:href="#DejaVuSans-2d" x="254.492188"/>
       <use xlink:href="#DejaVuSans-31" x="290.576172"/>
       <use xlink:href="#DejaVuSans-31" x="354.199219"/>
       <use xlink:href="#DejaVuSans-2d" x="417.822266"/>
       <use xlink:href="#DejaVuSans-31" x="453.90625"/>
       <use xlink:href="#DejaVuSans-37" x="517.529297"/>
      </g>
     </g>
    </g>
    <g id="xtick_5">
     <g id="line2d_5">
      <g>
       <use xlink:href="#m2d99fda363" x="1028.719692" y="359.517187" style="stroke: #000000; stroke-width: 0.8"/>
      </g>
     </g>
     <g id="text_5">
      <!-- 2024-11-18 -->
      <g transform="translate(999.66188 374.115625) scale(0.1 -0.1)">
       <defs>
        <path id="DejaVuSans-38" d="M 2034 2216 
Q 1584 2216 1326 1975 
Q 1069 1734 1069 1313 
Q 1069 891 1326 650 
Q 1584 409 2034 409 
Q 2484 409 2743 651 
Q 3003 894 3003 1313 
Q 3003 1734 2745 1975 
Q 2488 2216 2034 2216 
z
M 1403 2484 
Q 997 2584 770 2862 
Q 544 3141 544 3541 
Q 544 4100 942 4425 
Q 1341 4750 2034 4750 
Q 2731 4750 3128 4425 
Q 3525 4100 3525 3541 
Q 3525 3141 3298 2862 
Q 3072 2584 2669 2484 
Q 3125 2378 3379 2068 
Q 3634 1759 3634 1313 
Q 3634 634 3220 271 
Q 2806 -91 2034 -91 
Q 1263 -91 848 271 
Q 434 634 434 1313 
Q 434 1759 690 2068 
Q 947 2378 1403 2484 
z
M 1172 3481 
Q 1172 3119 1398 2916 
Q 1625 2713 2034 2713 
Q 2441 2713 2670 2916 
Q 2900 3119 2900 3481 
Q 2900 3844 2670 4047 
Q 2441 4250 2034 4250 
Q 1625 4250 1398 4047 
Q 1172 3844 1172 3481 
z
" transform="scale(0.015625)"/>
       </defs>
       <use xlink:href="#DejaVuSans-32"/>
       <use xlink:href="#DejaVuSans-30" x="63.623047"/>
       <use xlink:href="#DejaVuSans-32" x="127.246094"/>
       <use xlink:href="#DejaVuSans-34" x="190.869141"/>
       <use xlink:href="#DejaVuSans-2d" x="254.492188"/>
       <use xlink:href="#DejaVuSans-31" x="290.576172"/>
       <use xlink:href="#DejaVuSans-31" x="354.199219"/>
       <use xlink:href="#DejaVuSans-2d" x="417.822266"/>
       <use xlink:href="#DejaVuSans-31" x="453.90625"/>
       <use xlink:href="#DejaVuSans-38" x="517.529297"/>
      </g>
     </g>
    </g>
    <g id="text_6">
     <!-- Time -->
     <g transform="translate(598.917187 389.313437) scale(0.12 -0.12)">
      <defs>
       <path id="DejaVuSans-54" d="M -19 4666 
L 3928 4666 
L 3928 4134 
L 2272 4134 
L 2272 0 
L 1638 0 
L 1638 4134 
L -19 4134 
L -19 4666 
z
" transform="scale(0.015625)"/>
       <path id="DejaVuSans-69" d="M 603 3500 
L 1178 3500 
L 1178 0 
L 603 0 
L 603 3500 
z
M 603 4863 
L 1178 4863 
L 1178 4134 
L 603 4134 
L 603 4863 
z
" transform="scale(0.015625)"/>
       <path id="DejaVuSans-6d" d="M 3328 2828 
Q 3544 3216 3844 3400 
Q 4144 3584 4550 3584 
Q 5097 3584 5394 3201 
Q 5691 2819 5691 2113 
L 5691 0 
L 5113 0 
L 5113 2094 
Q 5113 2597 4934 2840 
Q 4756 3084 4391 3084 
Q 3944 3084 3684 2787 
Q 3425 2491 3425 1978 
L 3425 0 
L 2847 0 
L 2847 2094 
Q 2847 2600 2669 2842 
Q 2491 3084 2119 3084 
Q 1678 3084 1418 2786 
Q 1159 2488 1159 1978 
L 1159 0 
L 581 0 
L 581 3500 
L 1159 3500 
L 1159 2956 
Q 1356 3278 1631 3431 
Q 1906 3584 2284 3584 
Q 2666 3584 2933 3390 
Q 3200 3197 3328 2828 
z
" transform="scale(0.015625)"/>
       <path id="DejaVuSans-65" d="M 3597 1894 
L 3597 1613 
L 953 1613 
Q 991 1019 1311 708 
Q 1631 397 2203 397 
Q 2534 397 2845 478 
Q 3156 559 3463 722 
L 3463 178 
Q 3153 47 2828 -22 
Q 2503 -91 2169 -91 
Q 1331 -91 842 396 
Q 353 884 353 1716 
Q 353 2575 817 3079 
Q 1281 3584 2069 3584 
Q 2775 3584 3186 3129 
Q 3597 2675 3597 1894 
z
M 3022 2063 
Q 3016 2534 2758 2815 
Q 2500 3097 2075 3097 
Q 1594 3097 1305 2825 
Q 1016 2553 972 2059 
L 3022 2063 
z
" transform="scale(0.015625)"/>
      </defs>
      <use xlink:href="#DejaVuSans-54"/>
      <use xlink:href="#DejaVuSans-69" x="57.958984"/>
      <use xlink:href="#DejaVuSans-6d" x="85.742188"/>
      <use xlink:href="#DejaVuSans-65" x="183.154297"/>
     </g>
    </g>
   </g>
   <g id="matplotlib.axis_2">
    <g id="ytick_1">
     <g id="line2d_6">
      <defs>
       <path id="m6f51996195" d="M 0 0 
L -3.5 0 
" style="stroke: #000000; stroke-width: 0.8"/>
      </defs>
      <g>
       <use xlink:href="#m6f51996195" x="55.5975" y="344.397187" style="stroke: #000000; stroke-width: 0.8"/>
      </g>
     </g>
     <g id="text_7">
      <!-- 0 -->
      <g transform="translate(42.235 348.196406) scale(0.1 -0.1)">
       <use xlink:href="#DejaVuSans-30"/>
      </g>
     </g>
    </g>
    <g id="ytick_2">
     <g id="line2d_7">
      <g>
       <use xlink:href="#m6f51996195" x="55.5975" y="282.366418" style="stroke: #000000; stroke-width: 0.8"/>
      </g>
     </g>
     <g id="text_8">
      <!-- 200 -->
      <g transform="translate(29.51 286.165637) scale(0.1 -0.1)">
       <use xlink:href="#DejaVuSans-32"/>
       <use xlink:href="#DejaVuSans-30" x="63.623047"/>
       <use xlink:href="#DejaVuSans-30" x="127.246094"/>
      </g>
     </g>
    </g>
    <g id="ytick_3">
     <g id="line2d_8">
      <g>
       <use xlink:href="#m6f51996195" x="55.5975" y="220.335649" style="stroke: #000000; stroke-width: 0.8"/>
      </g>
     </g>
     <g id="text_9">
      <!-- 400 -->
      <g transform="translate(29.51 224.134868) scale(0.1 -0.1)">
       <use xlink:href="#DejaVuSans-34"/>
       <use xlink:href="#DejaVuSans-30" x="63.623047"/>
       <use xlink:href="#DejaVuSans-30" x="127.246094"/>
      </g>
     </g>
    </g>
    <g id="ytick_4">
     <g id="line2d_9">
      <g>
       <use xlink:href="#m6f51996195" x="55.5975" y="158.30488" style="stroke: #000000; stroke-width: 0.8"/>
      </g>
     </g>
     <g id="text_10">
      <!-- 600 -->
      <g transform="translate(29.51 162.104099) scale(0.1 -0.1)">
       <use xlink:href="#DejaVuSans-36"/>
       <use xlink:href="#DejaVuSans-30" x="63.623047"/>
       <use xlink:href="#DejaVuSans-30" x="127.246094"/>
      </g>
     </g>
    </g>
    <g id="ytick_5">
     <g id="line2d_10">
      <g>
       <use xlink:href="#m6f51996195" x="55.5975" y="96.274111" style="stroke: #000000; stroke-width: 0.8"/>
      </g>
     </g>
     <g id="text_11">
      <!-- 800 -->
      <g transform="translate(29.51 100.073329) scale(0.1 -0.1)">
       <use xlink:href="#DejaVuSans-38"/>
       <use xlink:href="#DejaVuSans-30" x="63.623047"/>
       <use xlink:href="#DejaVuSans-30" x="127.246094"/>
      </g>
     </g>
    </g>
    <g id="ytick_6">
     <g id="line2d_11">
      <g>
       <use xlink:href="#m6f51996195" x="55.5975" y="34.243341" style="stroke: #000000; stroke-width: 0.8"/>
      </g>
     </g>
     <g id="text_12">
      <!-- 1000 -->
      <g transform="translate(23.1475 38.04256) scale(0.1 -0.1)">
       <use xlink:href="#DejaVuSans-31"/>
       <use xlink:href="#DejaVuSans-30" x="63.623047"/>
       <use xlink:href="#DejaVuSans-30" x="127.246094"/>
       <use xlink:href="#DejaVuSans-30" x="190.869141"/>
      </g>
     </g>
    </g>
    <g id="text_13">
     <!-- Pellet_Count -->
     <g transform="translate(16.318125 230.485312) rotate(-90) scale(0.12 -0.12)">
      <defs>
       <path id="DejaVuSans-50" d="M 1259 4147 
L 1259 2394 
L 2053 2394 
Q 2494 2394 2734 2622 
Q 2975 2850 2975 3272 
Q 2975 3691 2734 3919 
Q 2494 4147 2053 4147 
L 1259 4147 
z
M 628 4666 
L 2053 4666 
Q 2838 4666 3239 4311 
Q 3641 3956 3641 3272 
Q 3641 2581 3239 2228 
Q 2838 1875 2053 1875 
L 1259 1875 
L 1259 0 
L 628 0 
L 628 4666 
z
" transform="scale(0.015625)"/>
       <path id="DejaVuSans-6c" d="M 603 4863 
L 1178 4863 
L 1178 0 
L 603 0 
L 603 4863 
z
" transform="scale(0.015625)"/>
       <path id="DejaVuSans-74" d="M 1172 4494 
L 1172 3500 
L 2356 3500 
L 2356 3053 
L 1172 3053 
L 1172 1153 
Q 1172 725 1289 603 
Q 1406 481 1766 481 
L 2356 481 
L 2356 0 
L 1766 0 
Q 1100 0 847 248 
Q 594 497 594 1153 
L 594 3053 
L 172 3053 
L 172 3500 
L 594 3500 
L 594 4494 
L 1172 4494 
z
" transform="scale(0.015625)"/>
       <path id="DejaVuSans-5f" d="M 3263 -1063 
L 3263 -1509 
L -63 -1509 
L -63 -1063 
L 3263 -1063 
z
" transform="scale(0.015625)"/>
       <path id="DejaVuSans-43" d="M 4122 4306 
L 4122 3641 
Q 3803 3938 3442 4084 
Q 3081 4231 2675 4231 
Q 1875 4231 1450 3742 
Q 1025 3253 1025 2328 
Q 1025 1406 1450 917 
Q 1875 428 2675 428 
Q 3081 428 3442 575 
Q 3803 722 4122 1019 
L 4122 359 
Q 3791 134 3420 21 
Q 3050 -91 2638 -91 
Q 1578 -91 968 557 
Q 359 1206 359 2328 
Q 359 3453 968 4101 
Q 1578 4750 2638 4750 
Q 3056 4750 3426 4639 
Q 3797 4528 4122 4306 
z
" transform="scale(0.015625)"/>
       <path id="DejaVuSans-6f" d="M 1959 3097 
Q 1497 3097 1228 2736 
Q 959 2375 959 1747 
Q 959 1119 1226 758 
Q 1494 397 1959 397 
Q 2419 397 2687 759 
Q 2956 1122 2956 1747 
Q 2956 2369 2687 2733 
Q 2419 3097 1959 3097 
z
M 1959 3584 
Q 2709 3584 3137 3096 
Q 3566 2609 3566 1747 
Q 3566 888 3137 398 
Q 2709 -91 1959 -91 
Q 1206 -91 779 398 
Q 353 888 353 1747 
Q 353 2609 779 3096 
Q 1206 3584 1959 3584 
z
" transform="scale(0.015625)"/>
       <path id="DejaVuSans-75" d="M 544 1381 
L 544 3500 
L 1119 3500 
L 1119 1403 
Q 1119 906 1312 657 
Q 1506 409 1894 409 
Q 2359 409 2629 706 
Q 2900 1003 2900 1516 
L 2900 3500 
L 3475 3500 
L 3475 0 
L 2900 0 
L 2900 538 
Q 2691 219 2414 64 
Q 2138 -91 1772 -91 
Q 1169 -91 856 284 
Q 544 659 544 1381 
z
M 1991 3584 
L 1991 3584 
z
" transform="scale(0.015625)"/>
       <path id="DejaVuSans-6e" d="M 3513 2113 
L 3513 0 
L 2938 0 
L 2938 2094 
Q 2938 2591 2744 2837 
Q 2550 3084 2163 3084 
Q 1697 3084 1428 2787 
Q 1159 2491 1159 1978 
L 1159 0 
L 581 0 
L 581 3500 
L 1159 3500 
L 1159 2956 
Q 1366 3272 1645 3428 
Q 1925 3584 2291 3584 
Q 2894 3584 3203 3211 
Q 3513 2838 3513 2113 
z
" transform="scale(0.015625)"/>
      </defs>
      <use xlink:href="#DejaVuSans-50"/>
      <use xlink:href="#DejaVuSans-65" x="56.677734"/>
      <use xlink:href="#DejaVuSans-6c" x="118.201172"/>
      <use xlink:href="#DejaVuSans-6c" x="145.984375"/>
      <use xlink:href="#DejaVuSans-65" x="173.767578"/>
      <use xlink:href="#DejaVuSans-74" x="235.291016"/>
      <use xlink:href="#DejaVuSans-5f" x="274.5"/>
      <use xlink:href="#DejaVuSans-43" x="324.5"/>
      <use xlink:href="#DejaVuSans-6f" x="394.324219"/>
      <use xlink:href="#DejaVuSans-75" x="455.505859"/>
      <use xlink:href="#DejaVuSans-6e" x="518.884766"/>
      <use xlink:href="#DejaVuSans-74" x="582.263672"/>
     </g>
    </g>
   </g>
   <g id="line2d_12">
    <path d="M 106.324773 344.397187 
L 107.30957 344.397187 
L 107.444283 344.087034 
L 108.937737 344.087034 
L 108.947027 343.77688 
L 112.512272 343.77688 
L 112.61679 343.466726 
L 112.749181 343.466726 
L 112.823505 343.156572 
L 112.937314 343.156572 
L 113.065059 342.846418 
L 114.089341 342.846418 
L 114.089341 342.846418 
L 114.198505 342.536264 
L 114.303023 342.536264 
L 114.351799 342.226111 
L 115.575827 342.226111 
L 115.689636 341.605803 
L 115.712863 341.605803 
L 115.712863 341.605803 
L 115.71983 341.295649 
L 118.044788 341.295649 
L 118.151629 340.675341 
L 118.165565 340.675341 
L 118.270083 340.055034 
L 118.34673 340.055034 
L 118.358344 339.74488 
L 120.151418 339.74488 
L 120.174644 339.434726 
L 121.240733 339.434726 
L 121.298799 339.124572 
L 121.384737 339.124572 
L 121.491578 338.504264 
L 123.117422 338.504264 
L 123.21265 337.883957 
L 123.275361 337.883957 
L 123.286975 337.573803 
L 123.995378 337.573803 
L 124.006991 337.263649 
L 125.052177 337.263649 
L 125.170631 336.643341 
L 125.581738 336.643341 
L 125.656062 336.023034 
L 125.742 336.023034 
L 125.746645 335.71288 
L 127.033384 335.71288 
L 127.03803 335.402726 
L 127.288874 335.402726 
L 127.291197 335.092572 
L 128.849685 335.092572 
L 128.947236 334.162111 
L 129.012269 334.162111 
L 129.114465 333.231649 
L 129.160918 333.231649 
L 129.230597 332.611341 
L 130.101585 332.611341 
L 130.10623 332.301187 
L 130.247911 332.301187 
L 130.250234 331.991034 
L 132.668096 331.991034 
L 132.672742 331.68088 
L 133.109397 331.68088 
L 133.11172 331.370726 
L 133.655216 331.370726 
L 133.741154 331.060572 
L 133.889802 331.060572 
L 133.894448 330.750418 
L 134.31949 330.750418 
L 134.354329 330.130111 
L 135.076669 330.130111 
L 135.178865 329.199649 
L 135.218349 329.199649 
L 135.220672 328.889495 
L 143.24073 328.889495 
L 143.349894 328.269187 
L 143.477639 328.269187 
L 143.561254 327.64888 
L 143.633255 327.64888 
L 143.670417 327.338726 
L 145.756143 327.338726 
L 145.77937 327.028572 
L 146.041828 327.028572 
L 146.048795 326.718418 
L 149.906692 326.718418 
L 150.013533 326.098111 
L 150.106438 326.098111 
L 150.215602 325.477803 
L 150.294572 325.477803 
L 150.350315 325.167649 
L 160.019444 325.167649 
L 160.149511 324.237187 
L 160.193641 324.237187 
L 160.270288 323.61688 
L 160.328354 323.61688 
L 160.437518 322.996572 
L 160.477003 322.996572 
L 160.586167 322.376264 
L 160.662813 322.376264 
L 160.667459 322.066111 
L 169.635152 322.066111 
L 169.679282 321.445803 
L 169.809349 321.445803 
L 169.860447 321.135649 
L 171.962432 321.135649 
L 172.020498 320.515341 
L 172.696384 320.515341 
L 172.698707 320.205187 
L 174.062094 320.205187 
L 174.066739 319.895034 
L 175.627549 319.895034 
L 175.629872 319.58488 
L 175.797102 319.58488 
L 175.799424 319.274726 
L 176.37776 319.274726 
L 176.445117 318.654418 
L 176.498537 318.654418 
L 176.584475 318.034111 
L 177.251071 318.034111 
L 177.253394 317.723957 
L 178.194061 317.723957 
L 178.268385 317.103649 
L 178.623748 317.103649 
L 178.744525 316.173187 
L 179.197439 316.173187 
L 179.202084 315.863034 
L 180.096299 315.863034 
L 180.177591 315.242726 
L 181.529364 315.242726 
L 181.53401 314.932572 
L 183.661543 314.932572 
L 183.670834 314.622418 
L 183.796256 314.622418 
L 183.879871 314.002111 
L 184.130715 314.002111 
L 184.167877 313.381803 
L 186.016695 313.381803 
L 186.095664 313.071649 
L 188.469397 313.071649 
L 188.583206 312.761495 
L 188.638949 312.761495 
L 188.745791 312.451341 
L 188.773662 312.451341 
L 188.778308 312.141188 
L 190.689836 312.141188 
L 190.782741 311.52088 
L 190.88726 311.52088 
L 190.891905 311.210726 
L 198.131558 311.210726 
L 198.250012 310.590418 
L 198.328982 310.590418 
L 198.4335 310.280264 
L 198.445114 310.280264 
L 198.519438 309.659957 
L 198.59144 309.659957 
L 198.684345 309.039649 
L 199.919987 309.039649 
L 200.015215 308.729495 
L 201.808289 308.729495 
L 201.810611 308.419341 
L 201.970873 308.419341 
L 201.975518 308.109187 
L 205.09714 308.109187 
L 205.192368 307.48888 
L 219.485862 307.48888 
L 219.488185 307.178726 
L 224.978893 307.178726 
L 224.983539 306.868572 
L 241.032945 306.868572 
L 241.118882 306.248264 
L 241.355791 306.248264 
L 241.360436 305.938111 
L 241.562506 305.938111 
L 241.657734 305.317803 
L 241.987548 305.317803 
L 242.085098 304.697495 
L 244.81884 304.697495 
L 244.91639 304.077187 
L 245.011618 304.077187 
L 245.013941 303.767034 
L 245.585309 303.767034 
L 245.589954 303.45688 
L 247.090376 303.45688 
L 247.160055 302.836572 
L 247.773231 302.836572 
L 247.775554 302.526418 
L 259.393373 302.526418 
L 259.398018 302.216264 
L 259.620991 302.216264 
L 259.688347 301.595957 
L 259.753381 301.595957 
L 259.802157 300.975649 
L 260.169133 300.975649 
L 260.173778 300.665495 
L 269.150762 300.665495 
L 269.160052 300.355341 
L 269.297088 300.355341 
L 269.348186 299.735034 
L 269.438768 299.735034 
L 269.550255 298.804572 
L 269.612966 298.804572 
L 269.678 298.184264 
L 271.345651 298.184264 
L 271.350297 297.874111 
L 281.047297 297.874111 
L 281.161106 297.563957 
L 281.168074 297.563957 
L 281.274915 296.943649 
L 281.637246 296.943649 
L 281.753378 296.323341 
L 281.823057 296.323341 
L 281.827702 296.013187 
L 287.836358 296.013187 
L 287.929264 295.39288 
L 287.98733 295.39288 
L 288.091848 294.462418 
L 288.149914 294.462418 
L 288.266046 293.842111 
L 291.385344 293.842111 
L 291.506121 293.221803 
L 291.517735 293.221803 
L 291.624576 292.291341 
L 291.701223 292.291341 
L 291.703545 291.981187 
L 296.425462 291.981187 
L 296.483528 291.671034 
L 299.098814 291.671034 
L 299.207978 290.740572 
L 299.252108 290.740572 
L 299.340369 290.120264 
L 299.607472 290.120264 
L 299.609794 289.810111 
L 300.369296 289.810111 
L 300.371618 289.499957 
L 300.545816 289.499957 
L 300.548139 289.189803 
L 301.458611 289.189803 
L 301.463257 288.879649 
L 301.971914 288.879649 
L 301.974236 288.569495 
L 303.298138 288.569495 
L 303.302783 288.259341 
L 304.415326 288.259341 
L 304.419971 287.949187 
L 305.678839 287.949187 
L 305.681161 287.639034 
L 306.224658 287.639034 
L 306.282724 287.018726 
L 306.56144 287.018726 
L 306.619506 286.398418 
L 306.68454 286.398418 
L 306.744928 285.778111 
L 307.176938 285.778111 
L 307.179261 285.467957 
L 307.692563 285.467957 
L 307.697208 285.157803 
L 307.968957 285.157803 
L 307.971279 284.847649 
L 309.618027 284.847649 
L 309.703965 284.227341 
L 309.738804 284.227341 
L 309.789902 283.607034 
L 310.725924 283.607034 
L 310.730569 283.29688 
L 311.889564 283.29688 
L 311.89421 282.986726 
L 313.029978 282.986726 
L 313.032301 282.676572 
L 314.456076 282.676572 
L 314.511819 282.366418 
L 315.12964 282.366418 
L 315.180738 282.056264 
L 317.013297 282.056264 
L 317.11317 281.435957 
L 318.855146 281.435957 
L 318.92947 280.815649 
L 318.985214 280.815649 
L 319.087409 279.885187 
L 319.157088 279.885187 
L 319.249994 279.26488 
L 319.289479 279.26488 
L 319.291801 278.954726 
L 321.528499 278.954726 
L 321.63534 278.644572 
L 321.98838 278.644572 
L 322.065027 278.024264 
L 322.143997 278.024264 
L 322.146319 277.714111 
L 322.982468 277.714111 
L 323.080019 277.403957 
L 324.775542 277.403957 
L 324.777865 277.093803 
L 325.737113 277.093803 
L 325.839309 276.783649 
L 325.881116 276.783649 
L 325.99028 276.163341 
L 326.12267 276.163341 
L 326.213253 275.543034 
L 326.891462 275.543034 
L 326.893785 275.23288 
L 327.697417 275.23288 
L 327.76245 274.612572 
L 327.925035 274.612572 
L 328.041167 273.682111 
L 328.127104 273.682111 
L 328.129427 273.371957 
L 329.26055 273.371957 
L 329.262872 273.061803 
L 329.56017 273.061803 
L 329.562492 272.751649 
L 330.626259 272.751649 
L 330.628582 272.441495 
L 331.518151 272.441495 
L 331.576217 271.821187 
L 331.648218 271.821187 
L 331.736478 270.890726 
L 331.79919 270.890726 
L 331.854933 270.270418 
L 332.112745 270.270418 
L 332.182424 269.650111 
L 332.746825 269.650111 
L 333.004637 269.339957 
L 334.825583 269.339957 
L 334.897584 268.719649 
L 337.791587 268.719649 
L 339.570726 268.409495 
L 343.554044 268.409495 
L 343.658563 267.479034 
L 344.009281 267.479034 
L 344.081282 266.858726 
L 345.444669 266.858726 
L 345.446992 266.548572 
L 346.392304 266.548572 
L 346.396949 266.238418 
L 347.256324 266.238418 
L 347.260969 265.928264 
L 350.06439 265.928264 
L 350.166585 264.997803 
L 350.213038 264.997803 
L 350.259491 264.377495 
L 350.605563 264.377495 
L 350.670597 263.757187 
L 352.939811 263.757187 
L 353.051298 262.826726 
L 354.802565 262.826726 
L 354.881534 262.206418 
L 355.861686 262.206418 
L 355.866331 261.896264 
L 356.781449 261.896264 
L 356.841838 261.275957 
L 356.906872 261.275957 
L 357.0021 260.655649 
L 357.863797 260.655649 
L 357.86612 260.345495 
L 362.22106 260.345495 
L 362.223383 260.035341 
L 363.321989 260.035341 
L 363.440443 259.415034 
L 363.503154 259.415034 
L 363.612318 258.484572 
L 363.658771 258.484572 
L 363.777225 257.554111 
L 364.276592 257.554111 
L 364.348593 256.933803 
L 364.392724 256.933803 
L 364.467048 256.623649 
L 365.644624 256.623649 
L 365.646946 256.313495 
L 365.955857 256.313495 
L 366.018568 255.693187 
L 366.109151 255.693187 
L 366.111473 255.383034 
L 368.487529 255.383034 
L 368.582757 254.762726 
L 370.001887 254.762726 
L 370.129631 254.142418 
L 370.220214 254.142418 
L 370.227182 253.832264 
L 371.787993 253.832264 
L 371.790315 253.522111 
L 371.966836 253.522111 
L 372.064386 252.901803 
L 372.201422 252.901803 
L 372.203744 252.591649 
L 372.589302 252.591649 
L 372.591624 252.281495 
L 374.182629 252.281495 
L 374.249986 251.661187 
L 374.317342 251.661187 
L 374.393989 251.351034 
L 380.625618 251.351034 
L 380.627941 251.04088 
L 380.867172 251.04088 
L 380.869495 250.730726 
L 380.990272 250.730726 
L 380.994917 250.420572 
L 385.05256 250.420572 
L 385.14082 249.800264 
L 385.205854 249.800264 
L 385.208176 249.490111 
L 385.391665 249.490111 
L 385.393987 249.179957 
L 388.083598 249.179957 
L 388.181149 248.559649 
L 388.308894 248.559649 
L 388.413412 247.939341 
L 388.490059 247.939341 
L 388.596901 247.319034 
L 395.887651 247.319034 
L 395.894619 247.00888 
L 396.008428 247.00888 
L 396.087398 246.388572 
L 396.159399 246.388572 
L 396.16869 246.078418 
L 396.354501 246.078418 
L 396.359146 245.768264 
L 399.566705 245.768264 
L 399.65961 245.147957 
L 399.713031 245.147957 
L 399.801291 244.527649 
L 399.864002 244.527649 
L 399.864002 244.527649 
L 399.945294 243.907341 
L 400.010328 243.907341 
L 400.075362 243.287034 
L 401.640818 243.287034 
L 401.647785 242.97688 
L 402.625615 242.97688 
L 402.627937 242.666726 
L 403.324728 242.666726 
L 403.32705 242.356572 
L 411.49808 242.356572 
L 411.500402 242.046418 
L 411.653696 242.046418 
L 411.71873 241.426111 
L 418.719151 241.426111 
L 418.802766 240.805803 
L 418.853864 240.805803 
L 418.858509 240.495649 
L 419.014126 240.495649 
L 419.120967 239.565187 
L 419.172065 239.565187 
L 419.17671 239.255034 
L 422.433044 239.255034 
L 422.53524 238.94488 
L 423.366743 238.94488 
L 423.376034 238.634726 
L 430.587815 238.634726 
L 430.734141 237.704264 
L 430.796852 237.704264 
L 430.861886 237.083957 
L 430.978018 237.083957 
L 431.056987 236.773803 
L 431.263702 236.773803 
L 431.268347 236.463649 
L 437.950567 236.463649 
L 437.964503 236.153495 
L 439.457957 236.153495 
L 439.55783 235.843341 
L 446.007787 235.843341 
L 446.012432 235.533187 
L 446.165726 235.533187 
L 446.170372 235.223034 
L 446.409603 235.223034 
L 446.414248 234.91288 
L 453.93494 234.91288 
L 454.030168 234.292572 
L 458.071552 234.292572 
L 458.187684 233.672264 
L 458.262008 233.672264 
L 458.33401 233.051957 
L 458.415302 233.051957 
L 458.526789 232.741803 
L 464.070918 232.741803 
L 464.175436 232.121495 
L 467.989203 232.121495 
L 467.993848 231.811341 
L 468.121593 231.811341 
L 468.123916 231.501187 
L 470.704363 231.501187 
L 470.709008 231.191034 
L 470.839076 231.191034 
L 470.934304 230.570726 
L 477.365679 230.570726 
L 477.370325 230.260572 
L 480.810147 230.260572 
L 480.817115 229.950418 
L 482.291988 229.950418 
L 482.366312 229.330111 
L 482.419733 229.330111 
L 482.494057 228.709803 
L 482.596253 228.709803 
L 482.598576 228.399649 
L 482.710062 228.399649 
L 484.243001 228.089495 
L 491.052966 228.089495 
L 491.155162 227.469187 
L 493.812256 227.469187 
L 493.865677 226.84888 
L 494.100263 226.84888 
L 494.104908 226.538726 
L 496.738776 226.538726 
L 496.859553 225.608264 
L 496.938523 225.608264 
L 497.003556 224.987957 
L 500.027627 224.987957 
L 500.115887 224.367649 
L 500.155372 224.367649 
L 500.213438 223.747341 
L 502.443167 223.747341 
L 502.536073 223.127034 
L 502.605752 223.127034 
L 502.608074 222.81688 
L 507.204568 222.81688 
L 508.091815 222.506726 
L 508.156849 222.196572 
L 508.544729 222.196572 
L 508.549374 221.886418 
L 509.910438 221.886418 
L 509.915083 221.576264 
L 510.293673 221.576264 
L 510.298318 221.266111 
L 510.435353 221.266111 
L 510.525936 220.955957 
L 511.935776 220.955957 
L 512.01939 220.335649 
L 514.246797 220.335649 
L 514.339703 220.025495 
L 514.637 220.025495 
L 514.715969 219.715341 
L 515.998064 219.715341 
L 516.090969 219.405187 
L 517.445065 219.405187 
L 517.445065 219.405187 
L 517.470614 219.095034 
L 519.128975 219.095034 
L 519.133621 218.78488 
L 520.4552 218.78488 
L 520.513266 218.474726 
L 521.453933 218.474726 
L 521.53058 218.164572 
L 522.153046 218.164572 
L 522.229693 217.544264 
L 522.283113 217.544264 
L 522.285436 217.234111 
L 522.531635 217.234111 
L 522.589701 216.923957 
L 524.480326 216.923957 
L 524.591812 216.303649 
L 524.689363 216.303649 
L 524.775301 215.993495 
L 524.828721 215.683341 
L 526.101525 215.683341 
L 526.196753 215.063034 
L 526.254819 215.063034 
L 526.257142 214.75288 
L 527.114194 214.75288 
L 527.118839 214.442726 
L 528.721457 214.442726 
L 528.726102 214.132572 
L 529.450764 214.132572 
L 529.545992 213.512264 
L 529.72019 213.512264 
L 529.824709 212.891957 
L 530.468078 212.891957 
L 530.475046 212.581803 
L 530.614404 212.581803 
L 530.632986 212.271649 
L 531.281001 212.271649 
L 531.283323 211.961495 
L 532.774455 211.961495 
L 532.788391 211.651341 
L 534.679015 211.651341 
L 534.755662 211.031034 
L 534.80676 211.031034 
L 534.809083 210.72088 
L 535.166769 210.72088 
L 535.275932 210.100572 
L 537.642697 210.100572 
L 537.68915 209.480264 
L 537.770442 209.480264 
L 537.837799 208.859957 
L 539.558871 208.859957 
L 539.67268 207.929495 
L 539.730746 207.929495 
L 539.807393 207.309187 
L 542.062671 207.309187 
L 542.169513 206.378726 
L 542.376227 206.378726 
L 542.37855 206.068572 
L 543.623482 206.068572 
L 543.632772 205.758418 
L 543.765163 205.758418 
L 543.874326 205.138111 
L 544.064782 205.138111 
L 544.067105 204.827957 
L 546.347932 204.827957 
L 546.352578 204.517803 
L 547.109757 204.517803 
L 547.207307 203.897495 
L 547.290922 203.897495 
L 547.400086 203.587341 
L 550.05718 203.587341 
L 550.124537 202.967034 
L 553.083573 202.967034 
L 553.19506 202.036572 
L 553.253126 202.036572 
L 553.322805 201.416264 
L 553.385516 201.416264 
L 553.45055 200.795957 
L 555.763894 200.795957 
L 555.766217 200.485803 
L 557.747424 200.485803 
L 557.752069 200.175649 
L 557.891427 200.175649 
L 557.89375 199.865495 
L 563.572592 199.865495 
L 563.651562 199.245187 
L 563.730531 199.245187 
L 563.83505 198.314726 
L 563.925633 198.314726 
L 564.037119 198.004572 
L 567.776561 198.004572 
L 567.89037 197.384264 
L 567.992566 196.763957 
L 568.050632 196.763957 
L 568.159796 196.143649 
L 568.166764 196.143649 
L 568.173732 195.833495 
L 571.741299 195.833495 
L 571.745944 195.523341 
L 572.907261 195.523341 
L 572.909584 195.213187 
L 573.118621 195.213187 
L 573.125589 194.903034 
L 575.55042 194.903034 
L 575.643325 194.282726 
L 575.715327 194.282726 
L 575.717649 193.972572 
L 577.099617 193.972572 
L 577.173941 193.352264 
L 577.252911 193.352264 
L 577.32259 192.731957 
L 577.378333 192.731957 
L 577.380656 192.421803 
L 578.051897 192.421803 
L 578.058865 192.111649 
L 578.300419 192.111649 
L 578.567522 191.181187 
L 580.404726 191.181187 
L 580.453502 190.871034 
L 580.727573 190.871034 
L 580.729895 190.56088 
L 581.403459 190.56088 
L 581.494042 190.250726 
L 582.15367 190.250726 
L 582.158316 189.940572 
L 582.79704 189.940572 
L 582.801685 189.630418 
L 582.992141 189.630418 
L 582.994464 189.320264 
L 586.069633 189.320264 
L 586.176474 188.699957 
L 586.508611 188.699957 
L 586.513256 188.389803 
L 586.991719 188.389803 
L 587.121786 188.079649 
L 588.215747 188.079649 
L 588.220392 187.769495 
L 589.202867 187.769495 
L 589.284159 187.459341 
L 600.123896 187.459341 
L 600.19822 186.839034 
L 600.260931 186.839034 
L 600.377063 185.908572 
L 600.495517 185.908572 
L 600.565196 185.288264 
L 600.658102 185.288264 
L 600.660424 184.978111 
L 601.826387 184.978111 
L 601.82871 184.667957 
L 601.949487 184.667957 
L 601.951809 184.357803 
L 613.992348 184.357803 
L 613.994671 184.047649 
L 614.171191 184.047649 
L 614.247838 183.427341 
L 622.393318 183.427341 
L 622.395641 183.117187 
L 622.920556 183.117187 
L 623.011139 182.49688 
L 623.094754 182.49688 
L 623.097076 182.186726 
L 630.559702 182.186726 
L 630.668866 181.566418 
L 632.211095 181.566418 
L 632.315614 180.946111 
L 640.547031 180.946111 
L 640.551677 180.635957 
L 640.837361 180.635957 
L 640.925621 180.015649 
L 641.03943 180.015649 
L 641.046398 179.705495 
L 646.146904 179.705495 
L 646.232841 179.085187 
L 646.297875 179.085187 
L 646.407039 178.154726 
L 647.772748 178.154726 
L 647.795975 177.844572 
L 648.876 177.844572 
L 648.878322 177.534418 
L 649.458981 177.534418 
L 651.920974 177.224264 
L 653.200746 177.224264 
L 653.27507 176.914111 
L 654.08567 176.914111 
L 654.255222 176.603957 
L 663.027813 176.603957 
L 663.136977 175.983649 
L 663.225237 175.983649 
L 663.304207 175.673495 
L 675.407457 175.673495 
L 675.50733 175.053187 
L 675.579332 175.053187 
L 675.662947 174.43288 
L 675.714045 174.43288 
L 675.76282 173.812572 
L 676.208766 173.812572 
L 676.32722 173.192264 
L 688.822995 173.192264 
L 688.911255 172.571957 
L 688.973967 172.571957 
L 689.080808 171.641495 
L 689.278232 171.641495 
L 689.280554 171.331341 
L 697.943982 171.331341 
L 698.041533 170.711034 
L 698.097276 170.711034 
L 698.201795 169.780572 
L 698.273796 169.780572 
L 698.392251 168.850111 
L 703.569404 168.850111 
L 703.571726 168.539957 
L 703.694826 168.539957 
L 703.764505 167.919649 
L 705.817714 167.919649 
L 705.820037 167.609495 
L 707.332072 167.609495 
L 707.397106 166.989187 
L 708.056734 166.989187 
L 708.068347 166.679034 
L 709.222697 166.679034 
L 709.229665 166.36888 
L 710.240011 166.36888 
L 710.342207 166.058726 
L 710.95306 166.058726 
L 711.073837 165.748572 
L 712.007536 165.748572 
L 712.009858 165.438418 
L 712.562645 165.438418 
L 712.567291 165.128264 
L 713.043431 165.128264 
L 713.048076 164.818111 
L 715.031606 164.818111 
L 715.154706 163.887649 
L 716.097696 163.887649 
L 716.106986 163.577495 
L 716.764292 163.577495 
L 716.822358 162.957187 
L 717.495922 162.957187 
L 717.500567 162.647034 
L 717.614376 162.647034 
L 717.616699 162.33688 
L 718.448202 162.33688 
L 718.452847 162.026726 
L 719.458548 162.026726 
L 719.556099 161.096264 
L 719.621133 161.096264 
L 719.623455 160.786111 
L 720.329536 160.786111 
L 720.380634 160.475957 
L 723.702002 160.475957 
L 723.813488 159.545495 
L 723.862264 159.545495 
L 723.971428 158.615034 
L 724.919063 158.615034 
L 725.100228 158.30488 
L 728.572567 158.30488 
L 728.660827 157.684572 
L 729.894146 157.684572 
L 729.896469 157.374418 
L 730.683842 157.374418 
L 730.765134 156.754111 
L 730.8232 156.754111 
L 730.876621 156.443957 
L 731.972904 156.443957 
L 732.070455 155.823649 
L 732.144779 155.823649 
L 732.147102 155.513495 
L 732.379365 155.513495 
L 732.481561 154.583034 
L 732.558208 154.583034 
L 732.625565 153.962726 
L 734.829745 153.962726 
L 735.203689 153.652572 
L 737.412515 153.652572 
L 737.491485 153.032264 
L 738.034981 153.032264 
L 738.106983 152.722111 
L 738.701577 152.722111 
L 738.775902 152.411957 
L 738.996552 152.411957 
L 738.998875 152.101803 
L 739.909347 152.101803 
L 739.913993 151.791649 
L 740.218258 151.791649 
L 740.222903 151.481495 
L 740.480716 151.481495 
L 740.550395 150.861187 
L 741.637388 150.861187 
L 741.642033 150.551034 
L 742.61754 150.551034 
L 743.298072 150.24088 
L 744.313063 150.24088 
L 744.315386 149.930726 
L 745.390766 149.930726 
L 745.479026 149.310418 
L 745.564963 149.310418 
L 745.653223 148.690111 
L 745.72058 148.690111 
L 745.722902 148.379957 
L 746.605504 148.379957 
L 746.802927 148.069803 
L 747.232615 148.069803 
L 747.255841 147.759649 
L 749.158079 147.759649 
L 749.162724 147.449495 
L 749.861837 147.449495 
L 749.984937 146.519034 
L 750.073197 146.519034 
L 750.07552 146.20888 
L 750.623662 146.20888 
L 750.63063 145.898726 
L 752.690807 145.898726 
L 752.786035 144.968264 
L 752.830165 144.968264 
L 752.909134 144.347957 
L 752.974168 144.347957 
L 753.027589 143.727649 
L 753.965933 143.727649 
L 754.019354 143.417495 
L 754.632529 143.417495 
L 754.811372 143.107341 
L 755.013441 143.107341 
L 755.015764 142.797187 
L 762.587553 142.797187 
L 762.69904 141.866726 
L 762.771042 141.866726 
L 762.863947 140.936264 
L 762.9104 140.936264 
L 763.031177 140.005803 
L 765.853178 140.005803 
L 766.136539 139.695649 
L 771.090719 139.695649 
L 771.206851 139.075341 
L 771.206851 139.075341 
L 771.316015 138.14488 
L 771.376403 138.14488 
L 771.446083 137.524572 
L 771.513439 137.524572 
L 771.518084 137.214418 
L 771.641184 137.214418 
L 771.643506 136.904264 
L 776.70685 136.904264 
L 776.764916 136.283957 
L 777.152796 136.283957 
L 777.155119 135.973803 
L 781.932779 135.973803 
L 782.011748 135.353495 
L 782.060523 135.353495 
L 782.178978 134.423034 
L 782.346208 134.423034 
L 782.399628 133.802726 
L 782.473952 133.802726 
L 782.590084 133.182418 
L 782.599375 133.182418 
L 782.601697 132.872264 
L 784.910396 132.872264 
L 784.982398 132.251957 
L 785.031173 132.251957 
L 785.096207 131.631649 
L 785.265759 131.631649 
L 785.268082 131.321495 
L 785.635058 131.321495 
L 785.709383 130.701187 
L 789.272304 130.701187 
L 789.407017 130.08088 
L 789.490632 130.08088 
L 789.57657 129.460572 
L 789.657862 129.460572 
L 789.727541 128.840264 
L 789.957482 128.840264 
L 789.96445 128.530111 
L 790.215294 128.530111 
L 790.368588 128.219957 
L 792.242954 128.219957 
L 792.245277 127.909803 
L 792.361409 127.909803 
L 792.431088 127.289495 
L 795.422641 127.289495 
L 795.487675 126.979341 
L 796.007945 126.979341 
L 796.026526 126.669187 
L 806.664194 126.669187 
L 806.752454 126.04888 
L 806.954523 126.04888 
L 807.019557 125.428572 
L 807.091559 125.428572 
L 807.165883 124.808264 
L 811.462757 124.808264 
L 811.469725 124.498111 
L 812.257098 124.498111 
L 812.261744 124.187957 
L 813.715713 124.187957 
L 813.813264 123.567649 
L 828.889486 123.567649 
L 828.968456 122.947341 
L 829.059038 122.947341 
L 829.149621 122.327034 
L 829.207687 122.327034 
L 829.212332 122.01688 
L 832.027366 122.01688 
L 832.029688 121.706726 
L 835.044468 121.706726 
L 835.049113 121.396572 
L 835.183826 121.396572 
L 835.186149 121.086418 
L 838.65152 121.086418 
L 838.653843 120.776264 
L 840.309881 120.776264 
L 840.314526 120.466111 
L 847.082684 120.466111 
L 847.08733 120.155957 
L 847.305657 120.155957 
L 847.30798 119.845803 
L 847.454306 119.845803 
L 847.456628 119.535649 
L 865.001812 119.535649 
L 865.066845 118.915341 
L 865.131879 118.915341 
L 865.206203 118.295034 
L 872.427275 118.295034 
L 872.868576 116.744264 
L 872.959158 116.123957 
L 879.469504 116.123957 
L 879.550796 115.503649 
L 879.650669 115.503649 
L 879.650669 115.503649 
L 879.724994 114.883341 
L 879.906159 114.883341 
L 879.910804 114.573187 
L 883.276302 114.573187 
L 883.280947 114.263034 
L 883.420305 114.263034 
L 883.434241 113.95288 
L 885.749908 113.95288 
L 885.752231 113.642726 
L 886.012366 113.642726 
L 886.156369 113.022418 
L 887.42685 113.022418 
L 887.431496 112.712264 
L 888.323387 112.712264 
L 888.346614 112.402111 
L 888.725203 112.402111 
L 888.797205 112.091957 
L 889.052695 112.091957 
L 889.110761 111.781803 
L 898.835633 111.781803 
L 898.95641 111.161495 
L 903.315995 111.161495 
L 903.394965 110.541187 
L 903.448385 110.541187 
L 903.520387 109.92088 
L 903.601679 109.92088 
L 903.604002 109.610726 
L 906.23787 109.610726 
L 906.337743 108.990418 
L 906.419035 108.990418 
L 906.421358 108.680264 
L 908.030944 108.680264 
L 908.035589 108.370111 
L 911.006239 108.370111 
L 911.008561 108.059957 
L 911.196695 108.059957 
L 911.308181 107.749803 
L 913.584363 107.749803 
L 913.691205 107.129495 
L 913.730689 107.129495 
L 914.014051 106.199034 
L 916.694371 106.199034 
L 916.771018 105.578726 
L 916.896441 105.578726 
L 916.898763 105.268572 
L 917.15193 105.268572 
L 917.156576 104.958418 
L 917.416711 104.958418 
L 917.49568 104.338111 
L 918.824227 104.338111 
L 918.82655 104.027957 
L 921.028408 104.027957 
L 921.137572 103.407649 
L 921.228154 103.407649 
L 921.332673 102.787341 
L 921.418611 102.787341 
L 921.669455 102.167034 
L 921.783264 101.85688 
L 922.858644 101.85688 
L 922.958517 101.546726 
L 924.68888 101.546726 
L 924.784108 100.926418 
L 924.860755 100.926418 
L 924.863078 100.616264 
L 925.94078 100.616264 
L 925.945426 100.306111 
L 929.403829 100.306111 
L 929.519961 99.375649 
L 929.603575 99.375649 
L 929.663964 98.755341 
L 929.747579 98.755341 
L 929.828871 98.135034 
L 929.879969 98.135034 
L 929.882292 97.82488 
L 931.313035 97.82488 
L 931.424521 96.894418 
L 931.480264 96.894418 
L 931.584783 96.274111 
L 931.889048 96.274111 
L 931.893693 95.963957 
L 934.892215 95.963957 
L 934.964217 95.343649 
L 935.047831 95.343649 
L 935.191835 94.723341 
L 937.354208 94.723341 
L 937.384402 94.413187 
L 939.714005 94.413187 
L 939.818523 93.79288 
L 939.897493 93.79288 
L 939.899815 93.482726 
L 940.278405 93.482726 
L 940.334148 93.172572 
L 940.810288 93.172572 
L 940.814934 92.862418 
L 941.890313 92.862418 
L 941.955347 92.552264 
L 942.018058 92.552264 
L 942.127222 91.931957 
L 942.73343 91.931957 
L 942.837948 91.621803 
L 943.404671 91.621803 
L 943.406994 91.311649 
L 944.236175 91.311649 
L 944.317467 90.691341 
L 944.447534 90.691341 
L 944.535795 90.071034 
L 945.269747 90.071034 
L 945.297619 89.76088 
L 947.237019 89.76088 
L 947.322956 89.140572 
L 947.534316 89.140572 
L 947.792128 88.210111 
L 948.386723 88.210111 
L 948.402981 87.899957 
L 949.773336 87.899957 
L 950.714003 87.589803 
L 950.786005 86.969495 
L 952.221393 86.969495 
L 952.30733 86.349187 
L 952.381655 86.349187 
L 952.451334 85.72888 
L 952.525658 85.72888 
L 952.611596 85.108572 
L 952.678952 85.108572 
L 952.753276 84.488264 
L 952.825278 84.488264 
L 952.89728 83.867957 
L 953.299096 83.867957 
L 953.835624 83.557803 
L 953.916916 82.937495 
L 954.948166 82.937495 
L 954.980683 82.627341 
L 960.705978 82.627341 
L 960.826755 81.69688 
L 960.882498 81.69688 
L 960.968436 81.076572 
L 961.038115 81.076572 
L 961.149601 80.766418 
L 961.249474 80.146111 
L 965.850614 80.146111 
L 965.941197 79.525803 
L 966.013198 79.525803 
L 966.080555 78.905495 
L 966.331399 78.905495 
L 966.333722 78.595341 
L 970.30775 78.595341 
L 970.426204 77.975034 
L 970.514465 77.975034 
L 970.598079 77.354726 
L 973.682538 77.354726 
L 973.759185 76.734418 
L 973.826542 76.734418 
L 973.914802 76.114111 
L 973.984481 76.114111 
L 973.986804 75.803957 
L 975.101668 75.803957 
L 975.431482 75.183649 
L 977.891153 75.183649 
L 977.893475 74.873495 
L 980.420502 74.873495 
L 980.425147 74.563341 
L 980.898965 74.563341 
L 980.98258 73.943034 
L 982.413323 73.943034 
L 982.510873 73.322726 
L 982.568939 73.322726 
L 982.645586 72.702418 
L 982.771008 72.702418 
L 982.873204 72.082111 
L 987.513829 72.082111 
L 987.581185 71.461803 
L 987.643896 71.461803 
L 987.71822 70.841495 
L 989.908465 70.841495 
L 990.022274 70.221187 
L 990.133761 69.290726 
L 991.469276 69.290726 
L 991.471598 68.980572 
L 992.096387 68.980572 
L 992.09871 68.670418 
L 993.555002 68.670418 
L 993.901074 68.360264 
L 996.184224 68.360264 
L 996.260871 67.739957 
L 996.335195 67.739957 
L 996.442037 67.119649 
L 996.523329 67.119649 
L 996.525651 66.809495 
L 996.653396 66.809495 
L 996.655719 66.499341 
L 1002.583083 66.499341 
L 1002.641149 65.879034 
L 1004.21125 65.879034 
L 1004.215895 65.56888 
L 1009.293175 65.56888 
L 1009.38608 64.948572 
L 1009.609053 64.948572 
L 1009.683378 64.328264 
L 1009.741443 64.328264 
L 1009.85293 63.397803 
L 1009.929577 63.397803 
L 1009.934222 63.087649 
L 1018.367709 63.087649 
L 1018.372354 62.777495 
L 1019.227084 62.777495 
L 1019.231729 62.467341 
L 1020.478984 62.467341 
L 1020.497565 62.157187 
L 1029.599971 62.157187 
L 1029.697521 61.53688 
L 1034.205756 61.53688 
L 1034.282403 60.916572 
L 1034.359049 60.916572 
L 1034.363695 60.606418 
L 1034.551828 60.606418 
L 1034.614539 59.986111 
L 1034.721381 59.986111 
L 1034.779446 59.365803 
L 1039.882275 59.365803 
L 1039.991439 58.745495 
L 1040.086667 58.745495 
L 1040.091312 58.435341 
L 1043.284935 58.435341 
L 1043.394099 58.125187 
L 1043.398744 58.125187 
L 1043.403389 57.815034 
L 1059.459764 57.815034 
L 1059.550346 57.50488 
L 1059.638606 57.50488 
L 1059.724544 56.884572 
L 1059.787255 56.884572 
L 1059.863902 56.264264 
L 1059.935904 56.264264 
L 1060.049713 55.954111 
L 1060.056681 55.643957 
L 1060.184426 55.643957 
L 1060.186748 55.333803 
L 1069.275218 55.333803 
L 1069.375091 54.713495 
L 1069.430835 54.713495 
L 1069.512127 54.093187 
L 1069.570193 54.093187 
L 1069.695615 53.162726 
L 1069.765294 53.162726 
L 1069.82336 52.542418 
L 1071.272684 52.542418 
L 1071.414365 52.232264 
L 1076.315124 52.232264 
L 1076.40803 51.611957 
L 1076.473063 51.611957 
L 1076.477709 51.301803 
L 1076.59384 51.301803 
L 1076.677455 50.681495 
L 1084.646415 50.681495 
L 1084.716094 50.061187 
L 1084.799709 50.061187 
L 1084.883324 49.751034 
L 1096.591726 49.751034 
L 1096.705535 48.820572 
L 1096.75431 48.820572 
L 1096.870442 47.890111 
L 1096.947089 47.890111 
L 1097.014445 47.269803 
L 1104.061319 47.269803 
L 1104.128676 46.649495 
L 1104.184419 46.649495 
L 1104.284292 45.719034 
L 1104.344681 45.719034 
L 1104.419005 45.098726 
L 1104.500297 45.098726 
L 1104.50262 44.788572 
L 1110.309207 44.788572 
L 1110.388176 44.168264 
L 1114.009164 44.168264 
L 1114.016132 43.858111 
L 1116.540836 43.858111 
L 1116.619806 43.237803 
L 1116.705743 43.237803 
L 1116.803294 42.617495 
L 1116.845101 42.617495 
L 1116.847424 42.307341 
L 1119.186317 42.307341 
L 1119.18864 41.997187 
L 1120.870227 41.997187 
L 1120.870227 41.997187 
" clip-path="url(#p9853cf9e6b)" style="fill: none; stroke: #0000ff; stroke-width: 1.5; stroke-linecap: square"/>
   </g>
   <g id="patch_156">
    <path d="M 55.5975 359.517187 
L 55.5975 26.877187 
" style="fill: none; stroke: #000000; stroke-width: 0.8; stroke-linejoin: miter; stroke-linecap: square"/>
   </g>
   <g id="patch_157">
    <path d="M 1171.5975 359.517187 
L 1171.5975 26.877187 
" style="fill: none; stroke: #000000; stroke-width: 0.8; stroke-linejoin: miter; stroke-linecap: square"/>
   </g>
   <g id="patch_158">
    <path d="M 55.5975 359.517187 
L 1171.5975 359.517187 
" style="fill: none; stroke: #000000; stroke-width: 0.8; stroke-linejoin: miter; stroke-linecap: square"/>
   </g>
   <g id="patch_159">
    <path d="M 55.5975 26.877187 
L 1171.5975 26.877187 
" style="fill: none; stroke: #000000; stroke-width: 0.8; stroke-linejoin: miter; stroke-linecap: square"/>
   </g>
   <g id="text_14">
    <!-- Pellet Count and Cumulative Sum Over Time of Group ctrl Mouse M62 -->
    <g transform="translate(299.380781 20.877187) scale(0.18 -0.18)">
     <defs>
      <path id="DejaVuSans-20" transform="scale(0.015625)"/>
      <path id="DejaVuSans-61" d="M 2194 1759 
Q 1497 1759 1228 1600 
Q 959 1441 959 1056 
Q 959 750 1161 570 
Q 1363 391 1709 391 
Q 2188 391 2477 730 
Q 2766 1069 2766 1631 
L 2766 1759 
L 2194 1759 
z
M 3341 1997 
L 3341 0 
L 2766 0 
L 2766 531 
Q 2569 213 2275 61 
Q 1981 -91 1556 -91 
Q 1019 -91 701 211 
Q 384 513 384 1019 
Q 384 1609 779 1909 
Q 1175 2209 1959 2209 
L 2766 2209 
L 2766 2266 
Q 2766 2663 2505 2880 
Q 2244 3097 1772 3097 
Q 1472 3097 1187 3025 
Q 903 2953 641 2809 
L 641 3341 
Q 956 3463 1253 3523 
Q 1550 3584 1831 3584 
Q 2591 3584 2966 3190 
Q 3341 2797 3341 1997 
z
" transform="scale(0.015625)"/>
      <path id="DejaVuSans-64" d="M 2906 2969 
L 2906 4863 
L 3481 4863 
L 3481 0 
L 2906 0 
L 2906 525 
Q 2725 213 2448 61 
Q 2172 -91 1784 -91 
Q 1150 -91 751 415 
Q 353 922 353 1747 
Q 353 2572 751 3078 
Q 1150 3584 1784 3584 
Q 2172 3584 2448 3432 
Q 2725 3281 2906 2969 
z
M 947 1747 
Q 947 1113 1208 752 
Q 1469 391 1925 391 
Q 2381 391 2643 752 
Q 2906 1113 2906 1747 
Q 2906 2381 2643 2742 
Q 2381 3103 1925 3103 
Q 1469 3103 1208 2742 
Q 947 2381 947 1747 
z
" transform="scale(0.015625)"/>
      <path id="DejaVuSans-76" d="M 191 3500 
L 800 3500 
L 1894 563 
L 2988 3500 
L 3597 3500 
L 2284 0 
L 1503 0 
L 191 3500 
z
" transform="scale(0.015625)"/>
      <path id="DejaVuSans-53" d="M 3425 4513 
L 3425 3897 
Q 3066 4069 2747 4153 
Q 2428 4238 2131 4238 
Q 1616 4238 1336 4038 
Q 1056 3838 1056 3469 
Q 1056 3159 1242 3001 
Q 1428 2844 1947 2747 
L 2328 2669 
Q 3034 2534 3370 2195 
Q 3706 1856 3706 1288 
Q 3706 609 3251 259 
Q 2797 -91 1919 -91 
Q 1588 -91 1214 -16 
Q 841 59 441 206 
L 441 856 
Q 825 641 1194 531 
Q 1563 422 1919 422 
Q 2459 422 2753 634 
Q 3047 847 3047 1241 
Q 3047 1584 2836 1778 
Q 2625 1972 2144 2069 
L 1759 2144 
Q 1053 2284 737 2584 
Q 422 2884 422 3419 
Q 422 4038 858 4394 
Q 1294 4750 2059 4750 
Q 2388 4750 2728 4690 
Q 3069 4631 3425 4513 
z
" transform="scale(0.015625)"/>
      <path id="DejaVuSans-4f" d="M 2522 4238 
Q 1834 4238 1429 3725 
Q 1025 3213 1025 2328 
Q 1025 1447 1429 934 
Q 1834 422 2522 422 
Q 3209 422 3611 934 
Q 4013 1447 4013 2328 
Q 4013 3213 3611 3725 
Q 3209 4238 2522 4238 
z
M 2522 4750 
Q 3503 4750 4090 4092 
Q 4678 3434 4678 2328 
Q 4678 1225 4090 567 
Q 3503 -91 2522 -91 
Q 1538 -91 948 565 
Q 359 1222 359 2328 
Q 359 3434 948 4092 
Q 1538 4750 2522 4750 
z
" transform="scale(0.015625)"/>
      <path id="DejaVuSans-72" d="M 2631 2963 
Q 2534 3019 2420 3045 
Q 2306 3072 2169 3072 
Q 1681 3072 1420 2755 
Q 1159 2438 1159 1844 
L 1159 0 
L 581 0 
L 581 3500 
L 1159 3500 
L 1159 2956 
Q 1341 3275 1631 3429 
Q 1922 3584 2338 3584 
Q 2397 3584 2469 3576 
Q 2541 3569 2628 3553 
L 2631 2963 
z
" transform="scale(0.015625)"/>
      <path id="DejaVuSans-66" d="M 2375 4863 
L 2375 4384 
L 1825 4384 
Q 1516 4384 1395 4259 
Q 1275 4134 1275 3809 
L 1275 3500 
L 2222 3500 
L 2222 3053 
L 1275 3053 
L 1275 0 
L 697 0 
L 697 3053 
L 147 3053 
L 147 3500 
L 697 3500 
L 697 3744 
Q 697 4328 969 4595 
Q 1241 4863 1831 4863 
L 2375 4863 
z
" transform="scale(0.015625)"/>
      <path id="DejaVuSans-47" d="M 3809 666 
L 3809 1919 
L 2778 1919 
L 2778 2438 
L 4434 2438 
L 4434 434 
Q 4069 175 3628 42 
Q 3188 -91 2688 -91 
Q 1594 -91 976 548 
Q 359 1188 359 2328 
Q 359 3472 976 4111 
Q 1594 4750 2688 4750 
Q 3144 4750 3555 4637 
Q 3966 4525 4313 4306 
L 4313 3634 
Q 3963 3931 3569 4081 
Q 3175 4231 2741 4231 
Q 1884 4231 1454 3753 
Q 1025 3275 1025 2328 
Q 1025 1384 1454 906 
Q 1884 428 2741 428 
Q 3075 428 3337 486 
Q 3600 544 3809 666 
z
" transform="scale(0.015625)"/>
      <path id="DejaVuSans-70" d="M 1159 525 
L 1159 -1331 
L 581 -1331 
L 581 3500 
L 1159 3500 
L 1159 2969 
Q 1341 3281 1617 3432 
Q 1894 3584 2278 3584 
Q 2916 3584 3314 3078 
Q 3713 2572 3713 1747 
Q 3713 922 3314 415 
Q 2916 -91 2278 -91 
Q 1894 -91 1617 61 
Q 1341 213 1159 525 
z
M 3116 1747 
Q 3116 2381 2855 2742 
Q 2594 3103 2138 3103 
Q 1681 3103 1420 2742 
Q 1159 2381 1159 1747 
Q 1159 1113 1420 752 
Q 1681 391 2138 391 
Q 2594 391 2855 752 
Q 3116 1113 3116 1747 
z
" transform="scale(0.015625)"/>
      <path id="DejaVuSans-63" d="M 3122 3366 
L 3122 2828 
Q 2878 2963 2633 3030 
Q 2388 3097 2138 3097 
Q 1578 3097 1268 2742 
Q 959 2388 959 1747 
Q 959 1106 1268 751 
Q 1578 397 2138 397 
Q 2388 397 2633 464 
Q 2878 531 3122 666 
L 3122 134 
Q 2881 22 2623 -34 
Q 2366 -91 2075 -91 
Q 1284 -91 818 406 
Q 353 903 353 1747 
Q 353 2603 823 3093 
Q 1294 3584 2113 3584 
Q 2378 3584 2631 3529 
Q 2884 3475 3122 3366 
z
" transform="scale(0.015625)"/>
      <path id="DejaVuSans-4d" d="M 628 4666 
L 1569 4666 
L 2759 1491 
L 3956 4666 
L 4897 4666 
L 4897 0 
L 4281 0 
L 4281 4097 
L 3078 897 
L 2444 897 
L 1241 4097 
L 1241 0 
L 628 0 
L 628 4666 
z
" transform="scale(0.015625)"/>
      <path id="DejaVuSans-73" d="M 2834 3397 
L 2834 2853 
Q 2591 2978 2328 3040 
Q 2066 3103 1784 3103 
Q 1356 3103 1142 2972 
Q 928 2841 928 2578 
Q 928 2378 1081 2264 
Q 1234 2150 1697 2047 
L 1894 2003 
Q 2506 1872 2764 1633 
Q 3022 1394 3022 966 
Q 3022 478 2636 193 
Q 2250 -91 1575 -91 
Q 1294 -91 989 -36 
Q 684 19 347 128 
L 347 722 
Q 666 556 975 473 
Q 1284 391 1588 391 
Q 1994 391 2212 530 
Q 2431 669 2431 922 
Q 2431 1156 2273 1281 
Q 2116 1406 1581 1522 
L 1381 1569 
Q 847 1681 609 1914 
Q 372 2147 372 2553 
Q 372 3047 722 3315 
Q 1072 3584 1716 3584 
Q 2034 3584 2315 3537 
Q 2597 3491 2834 3397 
z
" transform="scale(0.015625)"/>
     </defs>
     <use xlink:href="#DejaVuSans-50"/>
     <use xlink:href="#DejaVuSans-65" x="56.677734"/>
     <use xlink:href="#DejaVuSans-6c" x="118.201172"/>
     <use xlink:href="#DejaVuSans-6c" x="145.984375"/>
     <use xlink:href="#DejaVuSans-65" x="173.767578"/>
     <use xlink:href="#DejaVuSans-74" x="235.291016"/>
     <use xlink:href="#DejaVuSans-20" x="274.5"/>
     <use xlink:href="#DejaVuSans-43" x="306.287109"/>
     <use xlink:href="#DejaVuSans-6f" x="376.111328"/>
     <use xlink:href="#DejaVuSans-75" x="437.292969"/>
     <use xlink:href="#DejaVuSans-6e" x="500.671875"/>
     <use xlink:href="#DejaVuSans-74" x="564.050781"/>
     <use xlink:href="#DejaVuSans-20" x="603.259766"/>
     <use xlink:href="#DejaVuSans-61" x="635.046875"/>
     <use xlink:href="#DejaVuSans-6e" x="696.326172"/>
     <use xlink:href="#DejaVuSans-64" x="759.705078"/>
     <use xlink:href="#DejaVuSans-20" x="823.181641"/>
     <use xlink:href="#DejaVuSans-43" x="854.96875"/>
     <use xlink:href="#DejaVuSans-75" x="924.792969"/>
     <use xlink:href="#DejaVuSans-6d" x="988.171875"/>
     <use xlink:href="#DejaVuSans-75" x="1085.583984"/>
     <use xlink:href="#DejaVuSans-6c" x="1148.962891"/>
     <use xlink:href="#DejaVuSans-61" x="1176.746094"/>
     <use xlink:href="#DejaVuSans-74" x="1238.025391"/>
     <use xlink:href="#DejaVuSans-69" x="1277.234375"/>
     <use xlink:href="#DejaVuSans-76" x="1305.017578"/>
     <use xlink:href="#DejaVuSans-65" x="1364.197266"/>
     <use xlink:href="#DejaVuSans-20" x="1425.720703"/>
     <use xlink:href="#DejaVuSans-53" x="1457.507812"/>
     <use xlink:href="#DejaVuSans-75" x="1520.984375"/>
     <use xlink:href="#DejaVuSans-6d" x="1584.363281"/>
     <use xlink:href="#DejaVuSans-20" x="1681.775391"/>
     <use xlink:href="#DejaVuSans-4f" x="1713.5625"/>
     <use xlink:href="#DejaVuSans-76" x="1792.273438"/>
     <use xlink:href="#DejaVuSans-65" x="1851.453125"/>
     <use xlink:href="#DejaVuSans-72" x="1912.976562"/>
     <use xlink:href="#DejaVuSans-20" x="1954.089844"/>
     <use xlink:href="#DejaVuSans-54" x="1985.876953"/>
     <use xlink:href="#DejaVuSans-69" x="2043.835938"/>
     <use xlink:href="#DejaVuSans-6d" x="2071.619141"/>
     <use xlink:href="#DejaVuSans-65" x="2169.03125"/>
     <use xlink:href="#DejaVuSans-20" x="2230.554688"/>
     <use xlink:href="#DejaVuSans-6f" x="2262.341797"/>
     <use xlink:href="#DejaVuSans-66" x="2323.523438"/>
     <use xlink:href="#DejaVuSans-20" x="2358.728516"/>
     <use xlink:href="#DejaVuSans-47" x="2390.515625"/>
     <use xlink:href="#DejaVuSans-72" x="2468.005859"/>
     <use xlink:href="#DejaVuSans-6f" x="2506.869141"/>
     <use xlink:href="#DejaVuSans-75" x="2568.050781"/>
     <use xlink:href="#DejaVuSans-70" x="2631.429688"/>
     <use xlink:href="#DejaVuSans-20" x="2694.90625"/>
     <use xlink:href="#DejaVuSans-63" x="2726.693359"/>
     <use xlink:href="#DejaVuSans-74" x="2781.673828"/>
     <use xlink:href="#DejaVuSans-72" x="2820.882812"/>
     <use xlink:href="#DejaVuSans-6c" x="2861.996094"/>
     <use xlink:href="#DejaVuSans-20" x="2889.779297"/>
     <use xlink:href="#DejaVuSans-4d" x="2921.566406"/>
     <use xlink:href="#DejaVuSans-6f" x="3007.845703"/>
     <use xlink:href="#DejaVuSans-75" x="3069.027344"/>
     <use xlink:href="#DejaVuSans-73" x="3132.40625"/>
     <use xlink:href="#DejaVuSans-65" x="3184.505859"/>
     <use xlink:href="#DejaVuSans-20" x="3246.029297"/>
     <use xlink:href="#DejaVuSans-4d" x="3277.816406"/>
     <use xlink:href="#DejaVuSans-36" x="3364.095703"/>
     <use xlink:href="#DejaVuSans-32" x="3427.71875"/>
    </g>
   </g>
   <g id="legend_1">
    <g id="patch_160">
     <path d="M 1092.913125 64.233437 
L 1164.5975 64.233437 
Q 1166.5975 64.233437 1166.5975 62.233437 
L 1166.5975 33.877187 
Q 1166.5975 31.877187 1164.5975 31.877187 
L 1092.913125 31.877187 
Q 1090.913125 31.877187 1090.913125 33.877187 
L 1090.913125 62.233437 
Q 1090.913125 64.233437 1092.913125 64.233437 
z
" style="fill: #ffffff; opacity: 0.8; stroke: #cccccc; stroke-linejoin: miter"/>
    </g>
    <g id="patch_161">
     <path d="M 1094.913125 43.475625 
L 1114.913125 43.475625 
L 1114.913125 36.475625 
L 1094.913125 36.475625 
z
" style="fill: #add8e6; opacity: 0.9; stroke: #add8e6; stroke-linejoin: miter"/>
    </g>
    <g id="text_15">
     <!-- Meal -->
     <g transform="translate(1122.913125 43.475625) scale(0.1 -0.1)">
      <use xlink:href="#DejaVuSans-4d"/>
      <use xlink:href="#DejaVuSans-65" x="86.279297"/>
      <use xlink:href="#DejaVuSans-61" x="147.802734"/>
      <use xlink:href="#DejaVuSans-6c" x="209.082031"/>
     </g>
    </g>
    <g id="patch_162">
     <path d="M 1094.913125 58.15375 
L 1114.913125 58.15375 
L 1114.913125 51.15375 
L 1094.913125 51.15375 
z
" style="fill: #808080; opacity: 0.5; stroke: #808080; stroke-linejoin: miter"/>
    </g>
    <g id="text_16">
     <!-- Inactive -->
     <g transform="translate(1122.913125 58.15375) scale(0.1 -0.1)">
      <defs>
       <path id="DejaVuSans-49" d="M 628 4666 
L 1259 4666 
L 1259 0 
L 628 0 
L 628 4666 
z
" transform="scale(0.015625)"/>
      </defs>
      <use xlink:href="#DejaVuSans-49"/>
      <use xlink:href="#DejaVuSans-6e" x="29.492188"/>
      <use xlink:href="#DejaVuSans-61" x="92.871094"/>
      <use xlink:href="#DejaVuSans-63" x="154.150391"/>
      <use xlink:href="#DejaVuSans-74" x="209.130859"/>
      <use xlink:href="#DejaVuSans-69" x="248.339844"/>
      <use xlink:href="#DejaVuSans-76" x="276.123047"/>
      <use xlink:href="#DejaVuSans-65" x="335.302734"/>
     </g>
    </g>
   </g>
  </g>
 </g>
 <defs>
  <clipPath id="p9853cf9e6b">
   <rect x="55.5975" y="26.877187" width="1116" height="332.64"/>
  </clipPath>
 </defs>
</svg>
