<?xml version="1.0" encoding="utf-8" standalone="no"?>
<!DOCTYPE svg PUBLIC "-//W3C//DTD SVG 1.1//EN"
  "http://www.w3.org/Graphics/SVG/1.1/DTD/svg11.dtd">
<svg xmlns:xlink="http://www.w3.org/1999/xlink" width="1172.435pt" height="399.009062pt" viewBox="0 0 1172.435 399.009062" xmlns="http://www.w3.org/2000/svg" version="1.1">
 <metadata>
  <rdf:RDF xmlns:dc="http://purl.org/dc/elements/1.1/" xmlns:cc="http://creativecommons.org/ns#" xmlns:rdf="http://www.w3.org/1999/02/22-rdf-syntax-ns#">
   <cc:Work>
    <dc:type rdf:resource="http://purl.org/dc/dcmitype/StillImage"/>
    <dc:date>2025-10-01T22:42:13.087712</dc:date>
    <dc:format>image/svg+xml</dc:format>
    <dc:creator>
     <cc:Agent>
      <dc:title>Matplotlib v3.8.4, https://matplotlib.org/</dc:title>
     </cc:Agent>
    </dc:creator>
   </cc:Work>
  </rdf:RDF>
 </metadata>
 <defs>
  <style type="text/css">*{stroke-linejoin: round; stroke-linecap: butt}</style>
 </defs>
 <g id="figure_1">
  <g id="patch_1">
   <path d="M 0 399.009062 
L 1172.435 399.009062 
L 1172.435 0 
L 0 0 
z
" style="fill: #ffffff"/>
  </g>
  <g id="axes_1">
   <g id="patch_2">
    <path d="M 49.235 359.517187 
L 1165.235 359.517187 
L 1165.235 26.877187 
L 49.235 26.877187 
z
" style="fill: #ffffff"/>
   </g>
   <g id="patch_3">
    <path d="M 190.803996 359.517187 
L 190.803996 26.877187 
L 181.779928 26.877187 
L 181.779928 359.517187 
z
" clip-path="url(#pe302cec4b0)" style="fill: #add8e6; stroke: #add8e6; stroke-linejoin: miter"/>
   </g>
   <g id="patch_4">
    <path d="M 185.08721 359.517187 
L 185.08721 26.877187 
L 182.886403 26.877187 
L 182.886403 359.517187 
z
" clip-path="url(#pe302cec4b0)" style="fill: #add8e6; stroke: #add8e6; stroke-linejoin: miter"/>
   </g>
   <g id="patch_5">
    <path d="M 205.931888 359.517187 
L 205.931888 26.877187 
L 206.070766 26.877187 
L 206.070766 359.517187 
z
" clip-path="url(#pe302cec4b0)" style="fill: #add8e6; stroke: #add8e6; stroke-linejoin: miter"/>
   </g>
   <g id="patch_6">
    <path d="M 211.596309 359.517187 
L 211.596309 26.877187 
L 211.464261 26.877187 
L 211.464261 359.517187 
z
" clip-path="url(#pe302cec4b0)" style="fill: #add8e6; stroke: #add8e6; stroke-linejoin: miter"/>
   </g>
   <g id="patch_7">
    <path d="M 212.239856 359.517187 
L 212.239856 26.877187 
L 211.844469 26.877187 
L 211.844469 359.517187 
z
" clip-path="url(#pe302cec4b0)" style="fill: #add8e6; stroke: #add8e6; stroke-linejoin: miter"/>
   </g>
   <g id="patch_8">
    <path d="M 219.220967 359.517187 
L 219.220967 26.877187 
L 214.455841 26.877187 
L 214.455841 359.517187 
z
" clip-path="url(#pe302cec4b0)" style="fill: #add8e6; stroke: #add8e6; stroke-linejoin: miter"/>
   </g>
   <g id="patch_9">
    <path d="M 230.448877 359.517187 
L 230.448877 26.877187 
L 225.350594 26.877187 
L 225.350594 359.517187 
z
" clip-path="url(#pe302cec4b0)" style="fill: #add8e6; stroke: #add8e6; stroke-linejoin: miter"/>
   </g>
   <g id="patch_10">
    <path d="M 225.861333 359.517187 
L 225.861333 26.877187 
L 225.836289 26.877187 
L 225.836289 359.517187 
z
" clip-path="url(#pe302cec4b0)" style="fill: #add8e6; stroke: #add8e6; stroke-linejoin: miter"/>
   </g>
   <g id="patch_11">
    <path d="M 251.773179 359.517187 
L 251.773179 26.877187 
L 251.710949 26.877187 
L 251.710949 359.517187 
z
" clip-path="url(#pe302cec4b0)" style="fill: #add8e6; stroke: #add8e6; stroke-linejoin: miter"/>
   </g>
   <g id="patch_12">
    <path d="M 306.168021 359.517187 
L 306.168021 26.877187 
L 305.722547 26.877187 
L 305.722547 359.517187 
z
" clip-path="url(#pe302cec4b0)" style="fill: #add8e6; stroke: #add8e6; stroke-linejoin: miter"/>
   </g>
   <g id="patch_13">
    <path d="M 359.736421 359.517187 
L 359.736421 26.877187 
L 359.691646 26.877187 
L 359.691646 359.517187 
z
" clip-path="url(#pe302cec4b0)" style="fill: #add8e6; stroke: #add8e6; stroke-linejoin: miter"/>
   </g>
   <g id="patch_14">
    <path d="M 361.633669 359.517187 
L 361.633669 26.877187 
L 361.565368 26.877187 
L 361.565368 359.517187 
z
" clip-path="url(#pe302cec4b0)" style="fill: #add8e6; stroke: #add8e6; stroke-linejoin: miter"/>
   </g>
   <g id="patch_15">
    <path d="M 379.728856 359.517187 
L 379.728856 26.877187 
L 379.914027 26.877187 
L 379.914027 359.517187 
z
" clip-path="url(#pe302cec4b0)" style="fill: #add8e6; stroke: #add8e6; stroke-linejoin: miter"/>
   </g>
   <g id="patch_16">
    <path d="M 395.041919 359.517187 
L 395.041919 26.877187 
L 394.575196 26.877187 
L 394.575196 359.517187 
z
" clip-path="url(#pe302cec4b0)" style="fill: #add8e6; stroke: #add8e6; stroke-linejoin: miter"/>
   </g>
   <g id="patch_17">
    <path d="M 464.645854 359.517187 
L 464.645854 26.877187 
L 459.623461 26.877187 
L 459.623461 359.517187 
z
" clip-path="url(#pe302cec4b0)" style="fill: #add8e6; stroke: #add8e6; stroke-linejoin: miter"/>
   </g>
   <g id="patch_18">
    <path d="M 467.014378 359.517187 
L 467.014378 26.877187 
L 460.464321 26.877187 
L 460.464321 359.517187 
z
" clip-path="url(#pe302cec4b0)" style="fill: #add8e6; stroke: #add8e6; stroke-linejoin: miter"/>
   </g>
   <g id="patch_19">
    <path d="M 474.152582 359.517187 
L 474.152582 26.877187 
L 474.000043 26.877187 
L 474.000043 359.517187 
z
" clip-path="url(#pe302cec4b0)" style="fill: #add8e6; stroke: #add8e6; stroke-linejoin: miter"/>
   </g>
   <g id="patch_20">
    <path d="M 496.765494 359.517187 
L 496.765494 26.877187 
L 484.619316 26.877187 
L 484.619316 359.517187 
z
" clip-path="url(#pe302cec4b0)" style="fill: #add8e6; stroke: #add8e6; stroke-linejoin: miter"/>
   </g>
   <g id="patch_21">
    <path d="M 490.001427 359.517187 
L 490.001427 26.877187 
L 484.56164 26.877187 
L 484.56164 359.517187 
z
" clip-path="url(#pe302cec4b0)" style="fill: #add8e6; stroke: #add8e6; stroke-linejoin: miter"/>
   </g>
   <g id="patch_22">
    <path d="M 508.904083 359.517187 
L 508.904083 26.877187 
L 497.989598 26.877187 
L 497.989598 359.517187 
z
" clip-path="url(#pe302cec4b0)" style="fill: #add8e6; stroke: #add8e6; stroke-linejoin: miter"/>
   </g>
   <g id="patch_23">
    <path d="M 510.079617 359.517187 
L 510.079617 26.877187 
L 510.273895 26.877187 
L 510.273895 359.517187 
z
" clip-path="url(#pe302cec4b0)" style="fill: #add8e6; stroke: #add8e6; stroke-linejoin: miter"/>
   </g>
   <g id="patch_24">
    <path d="M 517.639769 359.517187 
L 517.639769 26.877187 
L 517.626108 26.877187 
L 517.626108 359.517187 
z
" clip-path="url(#pe302cec4b0)" style="fill: #add8e6; stroke: #add8e6; stroke-linejoin: miter"/>
   </g>
   <g id="patch_25">
    <path d="M 531.240756 359.517187 
L 531.240756 26.877187 
L 519.25167 26.877187 
L 519.25167 359.517187 
z
" clip-path="url(#pe302cec4b0)" style="fill: #add8e6; stroke: #add8e6; stroke-linejoin: miter"/>
   </g>
   <g id="patch_26">
    <path d="M 530.664751 359.517187 
L 530.664751 26.877187 
L 529.386766 26.877187 
L 529.386766 359.517187 
z
" clip-path="url(#pe302cec4b0)" style="fill: #add8e6; stroke: #add8e6; stroke-linejoin: miter"/>
   </g>
   <g id="patch_27">
    <path d="M 542.132473 359.517187 
L 542.132473 26.877187 
L 532.66445 26.877187 
L 532.66445 359.517187 
z
" clip-path="url(#pe302cec4b0)" style="fill: #add8e6; stroke: #add8e6; stroke-linejoin: miter"/>
   </g>
   <g id="patch_28">
    <path d="M 550.15783 359.517187 
L 550.15783 26.877187 
L 537.455379 26.877187 
L 537.455379 359.517187 
z
" clip-path="url(#pe302cec4b0)" style="fill: #add8e6; stroke: #add8e6; stroke-linejoin: miter"/>
   </g>
   <g id="patch_29">
    <path d="M 552.001954 359.517187 
L 552.001954 26.877187 
L 539.528691 26.877187 
L 539.528691 359.517187 
z
" clip-path="url(#pe302cec4b0)" style="fill: #add8e6; stroke: #add8e6; stroke-linejoin: miter"/>
   </g>
   <g id="patch_30">
    <path d="M 554.563238 359.517187 
L 554.563238 26.877187 
L 542.855704 26.877187 
L 542.855704 359.517187 
z
" clip-path="url(#pe302cec4b0)" style="fill: #add8e6; stroke: #add8e6; stroke-linejoin: miter"/>
   </g>
   <g id="patch_31">
    <path d="M 557.883421 359.517187 
L 557.883421 26.877187 
L 547.337003 26.877187 
L 547.337003 359.517187 
z
" clip-path="url(#pe302cec4b0)" style="fill: #add8e6; stroke: #add8e6; stroke-linejoin: miter"/>
   </g>
   <g id="patch_32">
    <path d="M 569.365563 359.517187 
L 569.365563 26.877187 
L 569.826973 26.877187 
L 569.826973 359.517187 
z
" clip-path="url(#pe302cec4b0)" style="fill: #add8e6; stroke: #add8e6; stroke-linejoin: miter"/>
   </g>
   <g id="patch_33">
    <path d="M 570.129015 359.517187 
L 570.129015 26.877187 
L 570.414361 26.877187 
L 570.414361 359.517187 
z
" clip-path="url(#pe302cec4b0)" style="fill: #add8e6; stroke: #add8e6; stroke-linejoin: miter"/>
   </g>
   <g id="patch_34">
    <path d="M 571.015409 359.517187 
L 571.015409 26.877187 
L 570.660244 26.877187 
L 570.660244 359.517187 
z
" clip-path="url(#pe302cec4b0)" style="fill: #add8e6; stroke: #add8e6; stroke-linejoin: miter"/>
   </g>
   <g id="patch_35">
    <path d="M 586.666941 359.517187 
L 586.666941 26.877187 
L 587.447848 26.877187 
L 587.447848 359.517187 
z
" clip-path="url(#pe302cec4b0)" style="fill: #add8e6; stroke: #add8e6; stroke-linejoin: miter"/>
   </g>
   <g id="patch_36">
    <path d="M 600.050124 359.517187 
L 600.050124 26.877187 
L 599.637283 26.877187 
L 599.637283 359.517187 
z
" clip-path="url(#pe302cec4b0)" style="fill: #add8e6; stroke: #add8e6; stroke-linejoin: miter"/>
   </g>
   <g id="patch_37">
    <path d="M 611.264374 359.517187 
L 611.264374 26.877187 
L 611.299283 26.877187 
L 611.299283 359.517187 
z
" clip-path="url(#pe302cec4b0)" style="fill: #add8e6; stroke: #add8e6; stroke-linejoin: miter"/>
   </g>
   <g id="patch_38">
    <path d="M 611.596772 359.517187 
L 611.596772 26.877187 
L 611.764488 26.877187 
L 611.764488 359.517187 
z
" clip-path="url(#pe302cec4b0)" style="fill: #add8e6; stroke: #add8e6; stroke-linejoin: miter"/>
   </g>
   <g id="patch_39">
    <path d="M 626.887827 359.517187 
L 626.887827 26.877187 
L 626.609311 26.877187 
L 626.609311 359.517187 
z
" clip-path="url(#pe302cec4b0)" style="fill: #add8e6; stroke: #add8e6; stroke-linejoin: miter"/>
   </g>
   <g id="patch_40">
    <path d="M 642.355705 359.517187 
L 642.355705 26.877187 
L 643.071347 26.877187 
L 643.071347 359.517187 
z
" clip-path="url(#pe302cec4b0)" style="fill: #add8e6; stroke: #add8e6; stroke-linejoin: miter"/>
   </g>
   <g id="patch_41">
    <path d="M 667.40013 359.517187 
L 667.40013 26.877187 
L 667.628558 26.877187 
L 667.628558 359.517187 
z
" clip-path="url(#pe302cec4b0)" style="fill: #add8e6; stroke: #add8e6; stroke-linejoin: miter"/>
   </g>
   <g id="patch_42">
    <path d="M 667.866853 359.517187 
L 667.866853 26.877187 
L 668.348754 26.877187 
L 668.348754 359.517187 
z
" clip-path="url(#pe302cec4b0)" style="fill: #add8e6; stroke: #add8e6; stroke-linejoin: miter"/>
   </g>
   <g id="patch_43">
    <path d="M 689.546319 359.517187 
L 689.546319 26.877187 
L 689.395298 26.877187 
L 689.395298 359.517187 
z
" clip-path="url(#pe302cec4b0)" style="fill: #add8e6; stroke: #add8e6; stroke-linejoin: miter"/>
   </g>
   <g id="patch_44">
    <path d="M 697.294678 359.517187 
L 697.294678 26.877187 
L 690.00773 26.877187 
L 690.00773 359.517187 
z
" clip-path="url(#pe302cec4b0)" style="fill: #add8e6; stroke: #add8e6; stroke-linejoin: miter"/>
   </g>
   <g id="patch_45">
    <path d="M 705.820907 359.517187 
L 705.820907 26.877187 
L 705.298026 26.877187 
L 705.298026 359.517187 
z
" clip-path="url(#pe302cec4b0)" style="fill: #add8e6; stroke: #add8e6; stroke-linejoin: miter"/>
   </g>
   <g id="patch_46">
    <path d="M 714.866224 359.517187 
L 714.866224 26.877187 
L 714.992201 26.877187 
L 714.992201 359.517187 
z
" clip-path="url(#pe302cec4b0)" style="fill: #add8e6; stroke: #add8e6; stroke-linejoin: miter"/>
   </g>
   <g id="patch_47">
    <path d="M 741.927802 359.517187 
L 741.927802 26.877187 
L 741.792718 26.877187 
L 741.792718 359.517187 
z
" clip-path="url(#pe302cec4b0)" style="fill: #add8e6; stroke: #add8e6; stroke-linejoin: miter"/>
   </g>
   <g id="patch_48">
    <path d="M 758.873257 359.517187 
L 758.873257 26.877187 
L 758.927139 26.877187 
L 758.927139 359.517187 
z
" clip-path="url(#pe302cec4b0)" style="fill: #add8e6; stroke: #add8e6; stroke-linejoin: miter"/>
   </g>
   <g id="patch_49">
    <path d="M 772.439335 359.517187 
L 772.439335 26.877187 
L 772.724681 26.877187 
L 772.724681 359.517187 
z
" clip-path="url(#pe302cec4b0)" style="fill: #add8e6; stroke: #add8e6; stroke-linejoin: miter"/>
   </g>
   <g id="patch_50">
    <path d="M 783.123873 359.517187 
L 783.123873 26.877187 
L 779.535799 26.877187 
L 779.535799 359.517187 
z
" clip-path="url(#pe302cec4b0)" style="fill: #add8e6; stroke: #add8e6; stroke-linejoin: miter"/>
   </g>
   <g id="patch_51">
    <path d="M 781.074087 359.517187 
L 781.074087 26.877187 
L 781.035383 26.877187 
L 781.035383 359.517187 
z
" clip-path="url(#pe302cec4b0)" style="fill: #add8e6; stroke: #add8e6; stroke-linejoin: miter"/>
   </g>
   <g id="patch_52">
    <path d="M 783.58073 359.517187 
L 783.58073 26.877187 
L 781.698661 26.877187 
L 781.698661 359.517187 
z
" clip-path="url(#pe302cec4b0)" style="fill: #add8e6; stroke: #add8e6; stroke-linejoin: miter"/>
   </g>
   <g id="patch_53">
    <path d="M 791.290385 359.517187 
L 791.290385 26.877187 
L 789.202654 26.877187 
L 789.202654 359.517187 
z
" clip-path="url(#pe302cec4b0)" style="fill: #add8e6; stroke: #add8e6; stroke-linejoin: miter"/>
   </g>
   <g id="patch_54">
    <path d="M 791.692601 359.517187 
L 791.692601 26.877187 
L 789.455367 26.877187 
L 789.455367 359.517187 
z
" clip-path="url(#pe302cec4b0)" style="fill: #add8e6; stroke: #add8e6; stroke-linejoin: miter"/>
   </g>
   <g id="patch_55">
    <path d="M 798.608447 359.517187 
L 798.608447 26.877187 
L 793.85774 26.877187 
L 793.85774 359.517187 
z
" clip-path="url(#pe302cec4b0)" style="fill: #add8e6; stroke: #add8e6; stroke-linejoin: miter"/>
   </g>
   <g id="patch_56">
    <path d="M 815.39681 359.517187 
L 815.39681 26.877187 
L 802.023493 26.877187 
L 802.023493 359.517187 
z
" clip-path="url(#pe302cec4b0)" style="fill: #add8e6; stroke: #add8e6; stroke-linejoin: miter"/>
   </g>
   <g id="patch_57">
    <path d="M 819.255811 359.517187 
L 819.255811 26.877187 
L 808.354987 26.877187 
L 808.354987 359.517187 
z
" clip-path="url(#pe302cec4b0)" style="fill: #add8e6; stroke: #add8e6; stroke-linejoin: miter"/>
   </g>
   <g id="patch_58">
    <path d="M 811.632671 359.517187 
L 811.632671 26.877187 
L 811.826949 26.877187 
L 811.826949 359.517187 
z
" clip-path="url(#pe302cec4b0)" style="fill: #add8e6; stroke: #add8e6; stroke-linejoin: miter"/>
   </g>
   <g id="patch_59">
    <path d="M 828.837669 359.517187 
L 828.837669 26.877187 
L 822.922811 26.877187 
L 822.922811 359.517187 
z
" clip-path="url(#pe302cec4b0)" style="fill: #add8e6; stroke: #add8e6; stroke-linejoin: miter"/>
   </g>
   <g id="patch_60">
    <path d="M 847.741084 359.517187 
L 847.741084 26.877187 
L 835.994846 26.877187 
L 835.994846 359.517187 
z
" clip-path="url(#pe302cec4b0)" style="fill: #add8e6; stroke: #add8e6; stroke-linejoin: miter"/>
   </g>
   <g id="patch_61">
    <path d="M 839.160213 359.517187 
L 839.160213 26.877187 
L 839.565465 26.877187 
L 839.565465 359.517187 
z
" clip-path="url(#pe302cec4b0)" style="fill: #add8e6; stroke: #add8e6; stroke-linejoin: miter"/>
   </g>
   <g id="patch_62">
    <path d="M 844.846643 359.517187 
L 844.846643 26.877187 
L 844.162875 26.877187 
L 844.162875 359.517187 
z
" clip-path="url(#pe302cec4b0)" style="fill: #add8e6; stroke: #add8e6; stroke-linejoin: miter"/>
   </g>
   <g id="patch_63">
    <path d="M 850.579366 359.517187 
L 850.579366 26.877187 
L 850.912522 26.877187 
L 850.912522 359.517187 
z
" clip-path="url(#pe302cec4b0)" style="fill: #add8e6; stroke: #add8e6; stroke-linejoin: miter"/>
   </g>
   <g id="patch_64">
    <path d="M 868.449918 359.517187 
L 868.449918 26.877187 
L 857.757791 26.877187 
L 857.757791 359.517187 
z
" clip-path="url(#pe302cec4b0)" style="fill: #add8e6; stroke: #add8e6; stroke-linejoin: miter"/>
   </g>
   <g id="patch_65">
    <path d="M 863.004818 359.517187 
L 863.004818 26.877187 
L 861.082527 26.877187 
L 861.082527 359.517187 
z
" clip-path="url(#pe302cec4b0)" style="fill: #add8e6; stroke: #add8e6; stroke-linejoin: miter"/>
   </g>
   <g id="patch_66">
    <path d="M 866.254424 359.517187 
L 866.254424 26.877187 
L 865.714847 26.877187 
L 865.714847 359.517187 
z
" clip-path="url(#pe302cec4b0)" style="fill: #add8e6; stroke: #add8e6; stroke-linejoin: miter"/>
   </g>
   <g id="patch_67">
    <path d="M 885.606347 359.517187 
L 885.606347 26.877187 
L 872.708859 26.877187 
L 872.708859 359.517187 
z
" clip-path="url(#pe302cec4b0)" style="fill: #add8e6; stroke: #add8e6; stroke-linejoin: miter"/>
   </g>
   <g id="patch_68">
    <path d="M 897.525614 359.517187 
L 897.525614 26.877187 
L 895.450784 26.877187 
L 895.450784 359.517187 
z
" clip-path="url(#pe302cec4b0)" style="fill: #add8e6; stroke: #add8e6; stroke-linejoin: miter"/>
   </g>
   <g id="patch_69">
    <path d="M 916.976194 359.517187 
L 916.976194 26.877187 
L 912.786313 26.877187 
L 912.786313 359.517187 
z
" clip-path="url(#pe302cec4b0)" style="fill: #add8e6; stroke: #add8e6; stroke-linejoin: miter"/>
   </g>
   <g id="patch_70">
    <path d="M 917.414838 359.517187 
L 917.414838 26.877187 
L 913.127059 26.877187 
L 913.127059 359.517187 
z
" clip-path="url(#pe302cec4b0)" style="fill: #add8e6; stroke: #add8e6; stroke-linejoin: miter"/>
   </g>
   <g id="patch_71">
    <path d="M 936.234014 359.517187 
L 936.234014 26.877187 
L 936.788769 26.877187 
L 936.788769 359.517187 
z
" clip-path="url(#pe302cec4b0)" style="fill: #add8e6; stroke: #add8e6; stroke-linejoin: miter"/>
   </g>
   <g id="patch_72">
    <path d="M 940.433002 359.517187 
L 940.433002 26.877187 
L 940.542284 26.877187 
L 940.542284 359.517187 
z
" clip-path="url(#pe302cec4b0)" style="fill: #add8e6; stroke: #add8e6; stroke-linejoin: miter"/>
   </g>
   <g id="patch_73">
    <path d="M 940.791961 359.517187 
L 940.791961 26.877187 
L 940.772989 26.877187 
L 940.772989 359.517187 
z
" clip-path="url(#pe302cec4b0)" style="fill: #add8e6; stroke: #add8e6; stroke-linejoin: miter"/>
   </g>
   <g id="patch_74">
    <path d="M 943.602923 359.517187 
L 943.602923 26.877187 
L 943.819968 26.877187 
L 943.819968 359.517187 
z
" clip-path="url(#pe302cec4b0)" style="fill: #add8e6; stroke: #add8e6; stroke-linejoin: miter"/>
   </g>
   <g id="patch_75">
    <path d="M 964.018823 359.517187 
L 964.018823 26.877187 
L 964.314794 26.877187 
L 964.314794 359.517187 
z
" clip-path="url(#pe302cec4b0)" style="fill: #add8e6; stroke: #add8e6; stroke-linejoin: miter"/>
   </g>
   <g id="patch_76">
    <path d="M 988.541125 359.517187 
L 988.541125 26.877187 
L 989.014678 26.877187 
L 989.014678 359.517187 
z
" clip-path="url(#pe302cec4b0)" style="fill: #add8e6; stroke: #add8e6; stroke-linejoin: miter"/>
   </g>
   <g id="patch_77">
    <path d="M 990.762422 359.517187 
L 990.762422 26.877187 
L 989.417653 26.877187 
L 989.417653 359.517187 
z
" clip-path="url(#pe302cec4b0)" style="fill: #add8e6; stroke: #add8e6; stroke-linejoin: miter"/>
   </g>
   <g id="patch_78">
    <path d="M 991.018171 359.517187 
L 991.018171 26.877187 
L 990.968084 26.877187 
L 990.968084 359.517187 
z
" clip-path="url(#pe302cec4b0)" style="fill: #add8e6; stroke: #add8e6; stroke-linejoin: miter"/>
   </g>
   <g id="patch_79">
    <path d="M 996.527778 359.517187 
L 996.527778 26.877187 
L 991.642745 26.877187 
L 991.642745 359.517187 
z
" clip-path="url(#pe302cec4b0)" style="fill: #add8e6; stroke: #add8e6; stroke-linejoin: miter"/>
   </g>
   <g id="patch_80">
    <path d="M 1013.313105 359.517187 
L 1013.313105 26.877187 
L 1013.857235 26.877187 
L 1013.857235 359.517187 
z
" clip-path="url(#pe302cec4b0)" style="fill: #add8e6; stroke: #add8e6; stroke-linejoin: miter"/>
   </g>
   <g id="patch_81">
    <path d="M 1031.79533 359.517187 
L 1031.79533 26.877187 
L 1031.592704 26.877187 
L 1031.592704 359.517187 
z
" clip-path="url(#pe302cec4b0)" style="fill: #add8e6; stroke: #add8e6; stroke-linejoin: miter"/>
   </g>
   <g id="patch_82">
    <path d="M 1034.459065 359.517187 
L 1034.459065 26.877187 
L 1034.610845 26.877187 
L 1034.610845 359.517187 
z
" clip-path="url(#pe302cec4b0)" style="fill: #add8e6; stroke: #add8e6; stroke-linejoin: miter"/>
   </g>
   <g id="patch_83">
    <path d="M 1038.135931 359.517187 
L 1038.135931 26.877187 
L 1038.351458 26.877187 
L 1038.351458 359.517187 
z
" clip-path="url(#pe302cec4b0)" style="fill: #add8e6; stroke: #add8e6; stroke-linejoin: miter"/>
   </g>
   <g id="patch_84">
    <path d="M 1055.729485 359.517187 
L 1055.729485 26.877187 
L 1056.475483 26.877187 
L 1056.475483 359.517187 
z
" clip-path="url(#pe302cec4b0)" style="fill: #add8e6; stroke: #add8e6; stroke-linejoin: miter"/>
   </g>
   <g id="patch_85">
    <path d="M 1076.166634 359.517187 
L 1076.166634 26.877187 
L 1076.246319 26.877187 
L 1076.246319 359.517187 
z
" clip-path="url(#pe302cec4b0)" style="fill: #add8e6; stroke: #add8e6; stroke-linejoin: miter"/>
   </g>
   <g id="patch_86">
    <path d="M 1076.869375 359.517187 
L 1076.869375 26.877187 
L 1076.442114 26.877187 
L 1076.442114 359.517187 
z
" clip-path="url(#pe302cec4b0)" style="fill: #add8e6; stroke: #add8e6; stroke-linejoin: miter"/>
   </g>
   <g id="patch_87">
    <path d="M 1076.930087 359.517187 
L 1076.930087 26.877187 
L 1076.901248 26.877187 
L 1076.901248 359.517187 
z
" clip-path="url(#pe302cec4b0)" style="fill: #add8e6; stroke: #add8e6; stroke-linejoin: miter"/>
   </g>
   <g id="patch_88">
    <path d="M 1089.955828 359.517187 
L 1089.955828 26.877187 
L 1090.314787 26.877187 
L 1090.314787 359.517187 
z
" clip-path="url(#pe302cec4b0)" style="fill: #add8e6; stroke: #add8e6; stroke-linejoin: miter"/>
   </g>
   <g id="patch_89">
    <path d="M 222.903904 359.517187 
L 222.903904 26.877187 
L 386.826079 26.877187 
L 386.826079 359.517187 
z
" clip-path="url(#pe302cec4b0)" style="fill: #808080; opacity: 0.4; stroke: #808080; stroke-linejoin: miter"/>
   </g>
   <g id="patch_90">
    <path d="M 550.748253 359.517187 
L 550.748253 26.877187 
L 714.670428 26.877187 
L 714.670428 359.517187 
z
" clip-path="url(#pe302cec4b0)" style="fill: #808080; opacity: 0.4; stroke: #808080; stroke-linejoin: miter"/>
   </g>
   <g id="patch_91">
    <path d="M 878.592603 359.517187 
L 878.592603 26.877187 
L 1042.514778 26.877187 
L 1042.514778 359.517187 
z
" clip-path="url(#pe302cec4b0)" style="fill: #808080; opacity: 0.4; stroke: #808080; stroke-linejoin: miter"/>
   </g>
   <g id="matplotlib.axis_1">
    <g id="xtick_1">
     <g id="line2d_1">
      <defs>
       <path id="m0384a4c342" d="M 0 0 
L 0 3.5 
" style="stroke: #000000; stroke-width: 0.8"/>
      </defs>
      <g>
       <use xlink:href="#m0384a4c342" x="126.489586" y="359.517187" style="stroke: #000000; stroke-width: 0.8"/>
      </g>
     </g>
     <g id="text_1">
      <!-- 12-13 12 -->
      <g transform="translate(104.009117 374.115625) scale(0.1 -0.1)">
       <defs>
        <path id="DejaVuSans-31" d="M 794 531 
L 1825 531 
L 1825 4091 
L 703 3866 
L 703 4441 
L 1819 4666 
L 2450 4666 
L 2450 531 
L 3481 531 
L 3481 0 
L 794 0 
L 794 531 
z
" transform="scale(0.015625)"/>
        <path id="DejaVuSans-32" d="M 1228 531 
L 3431 531 
L 3431 0 
L 469 0 
L 469 531 
Q 828 903 1448 1529 
Q 2069 2156 2228 2338 
Q 2531 2678 2651 2914 
Q 2772 3150 2772 3378 
Q 2772 3750 2511 3984 
Q 2250 4219 1831 4219 
Q 1534 4219 1204 4116 
Q 875 4013 500 3803 
L 500 4441 
Q 881 4594 1212 4672 
Q 1544 4750 1819 4750 
Q 2544 4750 2975 4387 
Q 3406 4025 3406 3419 
Q 3406 3131 3298 2873 
Q 3191 2616 2906 2266 
Q 2828 2175 2409 1742 
Q 1991 1309 1228 531 
z
" transform="scale(0.015625)"/>
        <path id="DejaVuSans-2d" d="M 313 2009 
L 1997 2009 
L 1997 1497 
L 313 1497 
L 313 2009 
z
" transform="scale(0.015625)"/>
        <path id="DejaVuSans-33" d="M 2597 2516 
Q 3050 2419 3304 2112 
Q 3559 1806 3559 1356 
Q 3559 666 3084 287 
Q 2609 -91 1734 -91 
Q 1441 -91 1130 -33 
Q 819 25 488 141 
L 488 750 
Q 750 597 1062 519 
Q 1375 441 1716 441 
Q 2309 441 2620 675 
Q 2931 909 2931 1356 
Q 2931 1769 2642 2001 
Q 2353 2234 1838 2234 
L 1294 2234 
L 1294 2753 
L 1863 2753 
Q 2328 2753 2575 2939 
Q 2822 3125 2822 3475 
Q 2822 3834 2567 4026 
Q 2313 4219 1838 4219 
Q 1578 4219 1281 4162 
Q 984 4106 628 3988 
L 628 4550 
Q 988 4650 1302 4700 
Q 1616 4750 1894 4750 
Q 2613 4750 3031 4423 
Q 3450 4097 3450 3541 
Q 3450 3153 3228 2886 
Q 3006 2619 2597 2516 
z
" transform="scale(0.015625)"/>
        <path id="DejaVuSans-20" transform="scale(0.015625)"/>
       </defs>
       <use xlink:href="#DejaVuSans-31"/>
       <use xlink:href="#DejaVuSans-32" x="63.623047"/>
       <use xlink:href="#DejaVuSans-2d" x="127.246094"/>
       <use xlink:href="#DejaVuSans-31" x="163.330078"/>
       <use xlink:href="#DejaVuSans-33" x="226.953125"/>
       <use xlink:href="#DejaVuSans-20" x="290.576172"/>
       <use xlink:href="#DejaVuSans-31" x="322.363281"/>
       <use xlink:href="#DejaVuSans-32" x="385.986328"/>
      </g>
     </g>
    </g>
    <g id="xtick_2">
     <g id="line2d_2">
      <g>
       <use xlink:href="#m0384a4c342" x="290.411761" y="359.517187" style="stroke: #000000; stroke-width: 0.8"/>
      </g>
     </g>
     <g id="text_2">
      <!-- 12-14 00 -->
      <g transform="translate(267.931292 374.115625) scale(0.1 -0.1)">
       <defs>
        <path id="DejaVuSans-34" d="M 2419 4116 
L 825 1625 
L 2419 1625 
L 2419 4116 
z
M 2253 4666 
L 3047 4666 
L 3047 1625 
L 3713 1625 
L 3713 1100 
L 3047 1100 
L 3047 0 
L 2419 0 
L 2419 1100 
L 313 1100 
L 313 1709 
L 2253 4666 
z
" transform="scale(0.015625)"/>
        <path id="DejaVuSans-30" d="M 2034 4250 
Q 1547 4250 1301 3770 
Q 1056 3291 1056 2328 
Q 1056 1369 1301 889 
Q 1547 409 2034 409 
Q 2525 409 2770 889 
Q 3016 1369 3016 2328 
Q 3016 3291 2770 3770 
Q 2525 4250 2034 4250 
z
M 2034 4750 
Q 2819 4750 3233 4129 
Q 3647 3509 3647 2328 
Q 3647 1150 3233 529 
Q 2819 -91 2034 -91 
Q 1250 -91 836 529 
Q 422 1150 422 2328 
Q 422 3509 836 4129 
Q 1250 4750 2034 4750 
z
" transform="scale(0.015625)"/>
       </defs>
       <use xlink:href="#DejaVuSans-31"/>
       <use xlink:href="#DejaVuSans-32" x="63.623047"/>
       <use xlink:href="#DejaVuSans-2d" x="127.246094"/>
       <use xlink:href="#DejaVuSans-31" x="163.330078"/>
       <use xlink:href="#DejaVuSans-34" x="226.953125"/>
       <use xlink:href="#DejaVuSans-20" x="290.576172"/>
       <use xlink:href="#DejaVuSans-30" x="322.363281"/>
       <use xlink:href="#DejaVuSans-30" x="385.986328"/>
      </g>
     </g>
    </g>
    <g id="xtick_3">
     <g id="line2d_3">
      <g>
       <use xlink:href="#m0384a4c342" x="454.333935" y="359.517187" style="stroke: #000000; stroke-width: 0.8"/>
      </g>
     </g>
     <g id="text_3">
      <!-- 12-14 12 -->
      <g transform="translate(431.853467 374.115625) scale(0.1 -0.1)">
       <use xlink:href="#DejaVuSans-31"/>
       <use xlink:href="#DejaVuSans-32" x="63.623047"/>
       <use xlink:href="#DejaVuSans-2d" x="127.246094"/>
       <use xlink:href="#DejaVuSans-31" x="163.330078"/>
       <use xlink:href="#DejaVuSans-34" x="226.953125"/>
       <use xlink:href="#DejaVuSans-20" x="290.576172"/>
       <use xlink:href="#DejaVuSans-31" x="322.363281"/>
       <use xlink:href="#DejaVuSans-32" x="385.986328"/>
      </g>
     </g>
    </g>
    <g id="xtick_4">
     <g id="line2d_4">
      <g>
       <use xlink:href="#m0384a4c342" x="618.25611" y="359.517187" style="stroke: #000000; stroke-width: 0.8"/>
      </g>
     </g>
     <g id="text_4">
      <!-- 12-15 00 -->
      <g transform="translate(595.775641 374.115625) scale(0.1 -0.1)">
       <defs>
        <path id="DejaVuSans-35" d="M 691 4666 
L 3169 4666 
L 3169 4134 
L 1269 4134 
L 1269 2991 
Q 1406 3038 1543 3061 
Q 1681 3084 1819 3084 
Q 2600 3084 3056 2656 
Q 3513 2228 3513 1497 
Q 3513 744 3044 326 
Q 2575 -91 1722 -91 
Q 1428 -91 1123 -41 
Q 819 9 494 109 
L 494 744 
Q 775 591 1075 516 
Q 1375 441 1709 441 
Q 2250 441 2565 725 
Q 2881 1009 2881 1497 
Q 2881 1984 2565 2268 
Q 2250 2553 1709 2553 
Q 1456 2553 1204 2497 
Q 953 2441 691 2322 
L 691 4666 
z
" transform="scale(0.015625)"/>
       </defs>
       <use xlink:href="#DejaVuSans-31"/>
       <use xlink:href="#DejaVuSans-32" x="63.623047"/>
       <use xlink:href="#DejaVuSans-2d" x="127.246094"/>
       <use xlink:href="#DejaVuSans-31" x="163.330078"/>
       <use xlink:href="#DejaVuSans-35" x="226.953125"/>
       <use xlink:href="#DejaVuSans-20" x="290.576172"/>
       <use xlink:href="#DejaVuSans-30" x="322.363281"/>
       <use xlink:href="#DejaVuSans-30" x="385.986328"/>
      </g>
     </g>
    </g>
    <g id="xtick_5">
     <g id="line2d_5">
      <g>
       <use xlink:href="#m0384a4c342" x="782.178285" y="359.517187" style="stroke: #000000; stroke-width: 0.8"/>
      </g>
     </g>
     <g id="text_5">
      <!-- 12-15 12 -->
      <g transform="translate(759.697816 374.115625) scale(0.1 -0.1)">
       <use xlink:href="#DejaVuSans-31"/>
       <use xlink:href="#DejaVuSans-32" x="63.623047"/>
       <use xlink:href="#DejaVuSans-2d" x="127.246094"/>
       <use xlink:href="#DejaVuSans-31" x="163.330078"/>
       <use xlink:href="#DejaVuSans-35" x="226.953125"/>
       <use xlink:href="#DejaVuSans-20" x="290.576172"/>
       <use xlink:href="#DejaVuSans-31" x="322.363281"/>
       <use xlink:href="#DejaVuSans-32" x="385.986328"/>
      </g>
     </g>
    </g>
    <g id="xtick_6">
     <g id="line2d_6">
      <g>
       <use xlink:href="#m0384a4c342" x="946.10046" y="359.517187" style="stroke: #000000; stroke-width: 0.8"/>
      </g>
     </g>
     <g id="text_6">
      <!-- 12-16 00 -->
      <g transform="translate(923.619991 374.115625) scale(0.1 -0.1)">
       <defs>
        <path id="DejaVuSans-36" d="M 2113 2584 
Q 1688 2584 1439 2293 
Q 1191 2003 1191 1497 
Q 1191 994 1439 701 
Q 1688 409 2113 409 
Q 2538 409 2786 701 
Q 3034 994 3034 1497 
Q 3034 2003 2786 2293 
Q 2538 2584 2113 2584 
z
M 3366 4563 
L 3366 3988 
Q 3128 4100 2886 4159 
Q 2644 4219 2406 4219 
Q 1781 4219 1451 3797 
Q 1122 3375 1075 2522 
Q 1259 2794 1537 2939 
Q 1816 3084 2150 3084 
Q 2853 3084 3261 2657 
Q 3669 2231 3669 1497 
Q 3669 778 3244 343 
Q 2819 -91 2113 -91 
Q 1303 -91 875 529 
Q 447 1150 447 2328 
Q 447 3434 972 4092 
Q 1497 4750 2381 4750 
Q 2619 4750 2861 4703 
Q 3103 4656 3366 4563 
z
" transform="scale(0.015625)"/>
       </defs>
       <use xlink:href="#DejaVuSans-31"/>
       <use xlink:href="#DejaVuSans-32" x="63.623047"/>
       <use xlink:href="#DejaVuSans-2d" x="127.246094"/>
       <use xlink:href="#DejaVuSans-31" x="163.330078"/>
       <use xlink:href="#DejaVuSans-36" x="226.953125"/>
       <use xlink:href="#DejaVuSans-20" x="290.576172"/>
       <use xlink:href="#DejaVuSans-30" x="322.363281"/>
       <use xlink:href="#DejaVuSans-30" x="385.986328"/>
      </g>
     </g>
    </g>
    <g id="xtick_7">
     <g id="line2d_7">
      <g>
       <use xlink:href="#m0384a4c342" x="1110.022634" y="359.517187" style="stroke: #000000; stroke-width: 0.8"/>
      </g>
     </g>
     <g id="text_7">
      <!-- 12-16 12 -->
      <g transform="translate(1087.542166 374.115625) scale(0.1 -0.1)">
       <use xlink:href="#DejaVuSans-31"/>
       <use xlink:href="#DejaVuSans-32" x="63.623047"/>
       <use xlink:href="#DejaVuSans-2d" x="127.246094"/>
       <use xlink:href="#DejaVuSans-31" x="163.330078"/>
       <use xlink:href="#DejaVuSans-36" x="226.953125"/>
       <use xlink:href="#DejaVuSans-20" x="290.576172"/>
       <use xlink:href="#DejaVuSans-31" x="322.363281"/>
       <use xlink:href="#DejaVuSans-32" x="385.986328"/>
      </g>
     </g>
    </g>
    <g id="text_8">
     <!-- Time -->
     <g transform="translate(592.554688 389.313437) scale(0.12 -0.12)">
      <defs>
       <path id="DejaVuSans-54" d="M -19 4666 
L 3928 4666 
L 3928 4134 
L 2272 4134 
L 2272 0 
L 1638 0 
L 1638 4134 
L -19 4134 
L -19 4666 
z
" transform="scale(0.015625)"/>
       <path id="DejaVuSans-69" d="M 603 3500 
L 1178 3500 
L 1178 0 
L 603 0 
L 603 3500 
z
M 603 4863 
L 1178 4863 
L 1178 4134 
L 603 4134 
L 603 4863 
z
" transform="scale(0.015625)"/>
       <path id="DejaVuSans-6d" d="M 3328 2828 
Q 3544 3216 3844 3400 
Q 4144 3584 4550 3584 
Q 5097 3584 5394 3201 
Q 5691 2819 5691 2113 
L 5691 0 
L 5113 0 
L 5113 2094 
Q 5113 2597 4934 2840 
Q 4756 3084 4391 3084 
Q 3944 3084 3684 2787 
Q 3425 2491 3425 1978 
L 3425 0 
L 2847 0 
L 2847 2094 
Q 2847 2600 2669 2842 
Q 2491 3084 2119 3084 
Q 1678 3084 1418 2786 
Q 1159 2488 1159 1978 
L 1159 0 
L 581 0 
L 581 3500 
L 1159 3500 
L 1159 2956 
Q 1356 3278 1631 3431 
Q 1906 3584 2284 3584 
Q 2666 3584 2933 3390 
Q 3200 3197 3328 2828 
z
" transform="scale(0.015625)"/>
       <path id="DejaVuSans-65" d="M 3597 1894 
L 3597 1613 
L 953 1613 
Q 991 1019 1311 708 
Q 1631 397 2203 397 
Q 2534 397 2845 478 
Q 3156 559 3463 722 
L 3463 178 
Q 3153 47 2828 -22 
Q 2503 -91 2169 -91 
Q 1331 -91 842 396 
Q 353 884 353 1716 
Q 353 2575 817 3079 
Q 1281 3584 2069 3584 
Q 2775 3584 3186 3129 
Q 3597 2675 3597 1894 
z
M 3022 2063 
Q 3016 2534 2758 2815 
Q 2500 3097 2075 3097 
Q 1594 3097 1305 2825 
Q 1016 2553 972 2059 
L 3022 2063 
z
" transform="scale(0.015625)"/>
      </defs>
      <use xlink:href="#DejaVuSans-54"/>
      <use xlink:href="#DejaVuSans-69" x="57.958984"/>
      <use xlink:href="#DejaVuSans-6d" x="85.742188"/>
      <use xlink:href="#DejaVuSans-65" x="183.154297"/>
     </g>
    </g>
   </g>
   <g id="matplotlib.axis_2">
    <g id="ytick_1">
     <g id="line2d_8">
      <defs>
       <path id="m9c6d869249" d="M 0 0 
L -3.5 0 
" style="stroke: #000000; stroke-width: 0.8"/>
      </defs>
      <g>
       <use xlink:href="#m9c6d869249" x="49.235" y="344.397187" style="stroke: #000000; stroke-width: 0.8"/>
      </g>
     </g>
     <g id="text_9">
      <!-- 0 -->
      <g transform="translate(35.8725 348.196406) scale(0.1 -0.1)">
       <use xlink:href="#DejaVuSans-30"/>
      </g>
     </g>
    </g>
    <g id="ytick_2">
     <g id="line2d_9">
      <g>
       <use xlink:href="#m9c6d869249" x="49.235" y="285.219105" style="stroke: #000000; stroke-width: 0.8"/>
      </g>
     </g>
     <g id="text_10">
      <!-- 100 -->
      <g transform="translate(23.1475 289.018324) scale(0.1 -0.1)">
       <use xlink:href="#DejaVuSans-31"/>
       <use xlink:href="#DejaVuSans-30" x="63.623047"/>
       <use xlink:href="#DejaVuSans-30" x="127.246094"/>
      </g>
     </g>
    </g>
    <g id="ytick_3">
     <g id="line2d_10">
      <g>
       <use xlink:href="#m9c6d869249" x="49.235" y="226.041023" style="stroke: #000000; stroke-width: 0.8"/>
      </g>
     </g>
     <g id="text_11">
      <!-- 200 -->
      <g transform="translate(23.1475 229.840242) scale(0.1 -0.1)">
       <use xlink:href="#DejaVuSans-32"/>
       <use xlink:href="#DejaVuSans-30" x="63.623047"/>
       <use xlink:href="#DejaVuSans-30" x="127.246094"/>
      </g>
     </g>
    </g>
    <g id="ytick_4">
     <g id="line2d_11">
      <g>
       <use xlink:href="#m9c6d869249" x="49.235" y="166.862941" style="stroke: #000000; stroke-width: 0.8"/>
      </g>
     </g>
     <g id="text_12">
      <!-- 300 -->
      <g transform="translate(23.1475 170.66216) scale(0.1 -0.1)">
       <use xlink:href="#DejaVuSans-33"/>
       <use xlink:href="#DejaVuSans-30" x="63.623047"/>
       <use xlink:href="#DejaVuSans-30" x="127.246094"/>
      </g>
     </g>
    </g>
    <g id="ytick_5">
     <g id="line2d_12">
      <g>
       <use xlink:href="#m9c6d869249" x="49.235" y="107.684859" style="stroke: #000000; stroke-width: 0.8"/>
      </g>
     </g>
     <g id="text_13">
      <!-- 400 -->
      <g transform="translate(23.1475 111.484077) scale(0.1 -0.1)">
       <use xlink:href="#DejaVuSans-34"/>
       <use xlink:href="#DejaVuSans-30" x="63.623047"/>
       <use xlink:href="#DejaVuSans-30" x="127.246094"/>
      </g>
     </g>
    </g>
    <g id="ytick_6">
     <g id="line2d_13">
      <g>
       <use xlink:href="#m9c6d869249" x="49.235" y="48.506777" style="stroke: #000000; stroke-width: 0.8"/>
      </g>
     </g>
     <g id="text_14">
      <!-- 500 -->
      <g transform="translate(23.1475 52.305995) scale(0.1 -0.1)">
       <use xlink:href="#DejaVuSans-35"/>
       <use xlink:href="#DejaVuSans-30" x="63.623047"/>
       <use xlink:href="#DejaVuSans-30" x="127.246094"/>
      </g>
     </g>
    </g>
    <g id="text_15">
     <!-- Pellet_Count -->
     <g transform="translate(16.318125 230.485312) rotate(-90) scale(0.12 -0.12)">
      <defs>
       <path id="DejaVuSans-50" d="M 1259 4147 
L 1259 2394 
L 2053 2394 
Q 2494 2394 2734 2622 
Q 2975 2850 2975 3272 
Q 2975 3691 2734 3919 
Q 2494 4147 2053 4147 
L 1259 4147 
z
M 628 4666 
L 2053 4666 
Q 2838 4666 3239 4311 
Q 3641 3956 3641 3272 
Q 3641 2581 3239 2228 
Q 2838 1875 2053 1875 
L 1259 1875 
L 1259 0 
L 628 0 
L 628 4666 
z
" transform="scale(0.015625)"/>
       <path id="DejaVuSans-6c" d="M 603 4863 
L 1178 4863 
L 1178 0 
L 603 0 
L 603 4863 
z
" transform="scale(0.015625)"/>
       <path id="DejaVuSans-74" d="M 1172 4494 
L 1172 3500 
L 2356 3500 
L 2356 3053 
L 1172 3053 
L 1172 1153 
Q 1172 725 1289 603 
Q 1406 481 1766 481 
L 2356 481 
L 2356 0 
L 1766 0 
Q 1100 0 847 248 
Q 594 497 594 1153 
L 594 3053 
L 172 3053 
L 172 3500 
L 594 3500 
L 594 4494 
L 1172 4494 
z
" transform="scale(0.015625)"/>
       <path id="DejaVuSans-5f" d="M 3263 -1063 
L 3263 -1509 
L -63 -1509 
L -63 -1063 
L 3263 -1063 
z
" transform="scale(0.015625)"/>
       <path id="DejaVuSans-43" d="M 4122 4306 
L 4122 3641 
Q 3803 3938 3442 4084 
Q 3081 4231 2675 4231 
Q 1875 4231 1450 3742 
Q 1025 3253 1025 2328 
Q 1025 1406 1450 917 
Q 1875 428 2675 428 
Q 3081 428 3442 575 
Q 3803 722 4122 1019 
L 4122 359 
Q 3791 134 3420 21 
Q 3050 -91 2638 -91 
Q 1578 -91 968 557 
Q 359 1206 359 2328 
Q 359 3453 968 4101 
Q 1578 4750 2638 4750 
Q 3056 4750 3426 4639 
Q 3797 4528 4122 4306 
z
" transform="scale(0.015625)"/>
       <path id="DejaVuSans-6f" d="M 1959 3097 
Q 1497 3097 1228 2736 
Q 959 2375 959 1747 
Q 959 1119 1226 758 
Q 1494 397 1959 397 
Q 2419 397 2687 759 
Q 2956 1122 2956 1747 
Q 2956 2369 2687 2733 
Q 2419 3097 1959 3097 
z
M 1959 3584 
Q 2709 3584 3137 3096 
Q 3566 2609 3566 1747 
Q 3566 888 3137 398 
Q 2709 -91 1959 -91 
Q 1206 -91 779 398 
Q 353 888 353 1747 
Q 353 2609 779 3096 
Q 1206 3584 1959 3584 
z
" transform="scale(0.015625)"/>
       <path id="DejaVuSans-75" d="M 544 1381 
L 544 3500 
L 1119 3500 
L 1119 1403 
Q 1119 906 1312 657 
Q 1506 409 1894 409 
Q 2359 409 2629 706 
Q 2900 1003 2900 1516 
L 2900 3500 
L 3475 3500 
L 3475 0 
L 2900 0 
L 2900 538 
Q 2691 219 2414 64 
Q 2138 -91 1772 -91 
Q 1169 -91 856 284 
Q 544 659 544 1381 
z
M 1991 3584 
L 1991 3584 
z
" transform="scale(0.015625)"/>
       <path id="DejaVuSans-6e" d="M 3513 2113 
L 3513 0 
L 2938 0 
L 2938 2094 
Q 2938 2591 2744 2837 
Q 2550 3084 2163 3084 
Q 1697 3084 1428 2787 
Q 1159 2491 1159 1978 
L 1159 0 
L 581 0 
L 581 3500 
L 1159 3500 
L 1159 2956 
Q 1366 3272 1645 3428 
Q 1925 3584 2291 3584 
Q 2894 3584 3203 3211 
Q 3513 2838 3513 2113 
z
" transform="scale(0.015625)"/>
      </defs>
      <use xlink:href="#DejaVuSans-50"/>
      <use xlink:href="#DejaVuSans-65" x="56.677734"/>
      <use xlink:href="#DejaVuSans-6c" x="118.201172"/>
      <use xlink:href="#DejaVuSans-6c" x="145.984375"/>
      <use xlink:href="#DejaVuSans-65" x="173.767578"/>
      <use xlink:href="#DejaVuSans-74" x="235.291016"/>
      <use xlink:href="#DejaVuSans-5f" x="274.5"/>
      <use xlink:href="#DejaVuSans-43" x="324.5"/>
      <use xlink:href="#DejaVuSans-6f" x="394.324219"/>
      <use xlink:href="#DejaVuSans-75" x="455.505859"/>
      <use xlink:href="#DejaVuSans-6e" x="518.884766"/>
      <use xlink:href="#DejaVuSans-74" x="582.263672"/>
     </g>
    </g>
   </g>
   <g id="line2d_14">
    <path d="M 99.962273 344.397187 
L 108.776884 344.397187 
L 109.353647 343.805407 
L 116.119232 343.805407 
L 116.752912 343.213626 
L 120.353888 343.213626 
L 121.625043 342.621845 
L 148.573545 342.621845 
L 153.453266 342.030064 
L 156.025933 342.030064 
L 156.640641 341.438283 
L 159.327144 341.438283 
L 161.315459 340.846503 
L 168.638834 340.846503 
L 171.33672 340.254722 
L 172.34985 344.397187 
L 172.683765 343.805407 
L 173.712073 343.805407 
L 173.712073 343.805407 
L 173.738635 343.213626 
L 173.882826 343.213626 
L 174.004249 342.621845 
L 174.247097 342.621845 
L 174.269864 342.030064 
L 175.112242 342.030064 
L 175.252638 341.438283 
L 175.80284 341.438283 
L 175.924264 340.846503 
L 177.028462 340.846503 
L 177.328227 340.254722 
L 180.872285 340.254722 
L 180.887463 339.662941 
L 181.065804 339.662941 
L 181.092366 339.07116 
L 181.722252 339.07116 
L 181.790553 338.479379 
L 182.139646 338.479379 
L 182.268659 337.887598 
L 184.264563 337.887598 
L 184.450494 337.295818 
L 199.981361 337.295818 
L 200.004128 336.704037 
L 201.897581 336.704037 
L 201.912759 336.112256 
L 202.182168 336.112256 
L 202.185962 335.520475 
L 202.512289 335.520475 
L 202.523672 334.928694 
L 202.728575 334.928694 
L 202.751342 334.336914 
L 202.967628 334.336914 
L 202.986601 333.745133 
L 203.468502 333.745133 
L 203.498857 333.153352 
L 203.969375 333.153352 
L 203.992142 332.561571 
L 204.2274 332.561571 
L 204.238784 331.96979 
L 204.405742 331.96979 
L 204.428509 331.378009 
L 204.565111 331.378009 
L 204.572699 330.786229 
L 205.157052 330.786229 
L 205.164641 330.194448 
L 205.517529 330.194448 
L 205.528912 329.602667 
L 205.878006 329.602667 
L 205.893184 329.010886 
L 206.044963 329.010886 
L 206.071525 328.419105 
L 206.265044 328.419105 
L 206.280222 327.827324 
L 206.682439 327.827324 
L 206.800068 327.235544 
L 206.875958 327.235544 
L 206.891136 326.643763 
L 207.077066 326.643763 
L 207.092244 326.051982 
L 207.209873 326.051982 
L 207.236435 325.460201 
L 207.429954 325.460201 
L 207.452721 324.86842 
L 207.72213 324.86842 
L 207.741103 324.27664 
L 208.96293 324.27664 
L 208.974313 323.684859 
L 209.122299 323.684859 
L 209.137477 323.093078 
L 209.535899 323.093078 
L 209.547282 322.501297 
L 209.903965 322.501297 
L 209.926732 321.909516 
L 210.715987 321.909516 
L 210.731165 321.317735 
L 211.049902 321.317735 
L 211.061286 320.725955 
L 211.190298 320.725955 
L 211.209271 320.134174 
L 211.455913 320.134174 
L 211.463502 319.542393 
L 211.660816 319.542393 
L 211.66461 318.950612 
L 211.835363 318.950612 
L 211.846746 318.358831 
L 212.214812 318.358831 
L 212.347619 317.767051 
L 213.520118 317.767051 
L 213.539091 317.17527 
L 213.823678 317.17527 
L 213.88439 315.991708 
L 215.504639 315.991708 
L 216.233182 315.399927 
L 216.438085 315.399927 
L 216.973108 314.808146 
L 224.922575 314.808146 
L 224.933959 314.216366 
L 225.423448 314.216366 
L 225.431037 313.624585 
L 225.594201 313.624585 
L 225.60179 313.032804 
L 225.742186 313.032804 
L 225.761158 312.441023 
L 227.650817 312.441023 
L 227.658406 311.849242 
L 227.772241 311.849242 
L 227.783624 311.257461 
L 228.269319 311.257461 
L 228.424894 310.665681 
L 245.287629 310.665681 
L 245.299012 310.0739 
L 245.538065 310.0739 
L 245.545654 309.482119 
L 245.754351 309.482119 
L 245.769529 308.890338 
L 245.95546 308.890338 
L 245.95546 308.890338 
L 245.970638 308.298557 
L 246.148979 308.298557 
L 246.160362 307.706777 
L 246.308348 307.706777 
L 246.418388 307.114996 
L 246.55499 307.114996 
L 246.558784 306.523215 
L 250.569565 306.523215 
L 250.577154 305.931434 
L 250.990754 305.931434 
L 251.119767 304.747872 
L 251.328464 304.747872 
L 251.336053 304.156092 
L 251.472655 304.156092 
L 251.47645 303.564311 
L 251.66238 303.564311 
L 251.791393 302.97253 
L 252.197404 302.97253 
L 252.611003 302.380749 
L 255.509998 302.380749 
L 255.525175 301.788968 
L 255.730078 301.788968 
L 255.745256 301.197187 
L 256.090555 301.197187 
L 256.17024 300.605407 
L 276.208967 300.605407 
L 276.216556 300.013626 
L 279.730258 300.013626 
L 279.734052 299.421845 
L 305.354481 299.421845 
L 305.373453 298.830064 
L 305.510055 298.830064 
L 305.529028 298.238283 
L 305.733931 298.238283 
L 305.733931 298.238283 
L 305.752903 297.646503 
L 354.314847 297.646503 
L 354.33382 297.054722 
L 354.500777 297.054722 
L 354.500777 297.054722 
L 354.515955 296.462941 
L 354.67153 296.462941 
L 354.686708 295.87116 
L 354.842282 295.87116 
L 354.853666 295.279379 
L 358.46223 295.279379 
L 358.503969 294.687598 
L 358.682311 294.687598 
L 358.701283 294.095818 
L 358.872035 294.095818 
L 358.98587 292.912256 
L 360.310149 292.912256 
L 360.317738 292.320475 
L 361.012131 292.320475 
L 361.023514 291.728694 
L 361.148732 291.728694 
L 361.273951 290.545133 
L 379.328157 290.545133 
L 379.445786 289.361571 
L 379.597566 289.361571 
L 379.60895 288.76979 
L 394.054591 288.76979 
L 394.081153 288.178009 
L 394.418863 288.178009 
L 394.422657 287.586229 
L 394.760367 287.586229 
L 394.764162 286.994448 
L 397.226789 286.994448 
L 397.245761 286.402667 
L 397.374774 286.402667 
L 397.378569 285.810886 
L 397.507581 285.810886 
L 397.522759 285.219105 
L 402.633944 285.219105 
L 402.770546 284.627324 
L 403.882333 284.627324 
L 403.897511 284.035544 
L 404.341467 284.035544 
L 404.349056 283.443763 
L 422.065552 283.443763 
L 422.103497 282.851982 
L 422.555041 282.851982 
L 422.56263 282.260201 
L 422.721999 282.260201 
L 422.733383 281.66842 
L 434.078922 281.66842 
L 434.226907 281.07664 
L 435.092052 281.07664 
L 435.202093 280.484859 
L 435.48668 279.893078 
L 435.919252 279.893078 
L 436.154511 279.301297 
L 436.431509 279.301297 
L 436.875465 278.709516 
L 444.673152 278.709516 
L 444.684535 278.117735 
L 444.904616 278.117735 
L 445.003273 277.525955 
L 445.13608 277.525955 
L 445.147463 276.934174 
L 445.697665 276.934174 
L 445.762172 276.342393 
L 446.232689 275.750612 
L 458.872151 275.750612 
L 458.87974 275.158831 
L 459.039109 275.158831 
L 459.133971 274.567051 
L 459.323696 274.567051 
L 459.414764 273.97527 
L 459.490654 273.97527 
L 459.498243 273.383489 
L 459.63105 273.383489 
L 459.756268 272.791708 
L 459.987733 272.791708 
L 460.006705 272.199927 
L 460.192635 272.199927 
L 460.200224 271.608146 
L 460.754221 271.608146 
L 461.027424 271.016366 
L 468.60503 271.016366 
L 468.741632 269.832804 
L 473.454395 269.832804 
L 473.469573 269.241023 
L 473.63653 269.241023 
L 473.644119 268.649242 
L 473.757954 268.649242 
L 473.765543 268.057461 
L 473.947679 268.057461 
L 474.072897 266.8739 
L 474.292978 266.8739 
L 474.304361 266.282119 
L 482.090665 266.282119 
L 483.289725 265.690338 
L 483.866488 265.690338 
L 483.881666 265.098557 
L 484.006885 265.098557 
L 484.207993 263.914996 
L 484.337006 263.914996 
L 484.439457 262.731434 
L 486.021761 262.731434 
L 486.465717 262.139653 
L 491.576902 262.139653 
L 492.172637 261.547872 
L 492.961892 261.547872 
L 493.413437 260.956092 
L 493.46656 260.364311 
L 495.166494 260.364311 
L 495.428314 259.77253 
L 495.728079 259.77253 
L 495.769818 259.180749 
L 495.932982 259.180749 
L 496.084761 258.588968 
L 496.221363 258.588968 
L 496.236541 257.997187 
L 496.354171 257.997187 
L 496.357965 257.405407 
L 502.072474 257.405407 
L 502.372239 256.813626 
L 502.717538 256.813626 
L 503.002125 256.221845 
L 504.914551 256.221845 
L 504.914551 256.221845 
L 505.529259 255.630064 
L 508.853236 255.630064 
L 508.970866 254.446503 
L 509.255453 254.446503 
L 509.357904 253.262941 
L 509.513479 253.262941 
L 509.517273 252.67116 
L 509.669053 252.67116 
L 509.672847 252.079379 
L 509.851189 252.079379 
L 509.858778 251.487598 
L 510.086447 251.487598 
L 510.094036 250.895818 
L 510.458308 250.895818 
L 510.655621 250.304037 
L 516.829264 250.304037 
L 516.855826 249.712256 
L 517.056934 249.712256 
L 517.098674 248.528694 
L 517.493301 248.528694 
L 517.591958 247.345133 
L 518.563349 247.345133 
L 518.77584 246.753352 
L 519.064222 246.753352 
L 519.071811 246.161571 
L 523.727656 246.161571 
L 523.856669 245.56979 
L 524.027421 245.56979 
L 524.03501 244.978009 
L 524.289241 244.978009 
L 524.387898 244.386229 
L 526.899854 244.386229 
L 526.941593 243.794448 
L 528.011641 243.794448 
L 528.656705 243.202667 
L 532.124873 243.202667 
L 532.136256 242.610886 
L 532.621952 242.610886 
L 532.811677 241.427324 
L 532.929306 241.427324 
L 533.043141 240.835544 
L 533.069702 240.835544 
L 533.073497 240.243763 
L 533.225276 240.243763 
L 533.335317 239.651982 
L 534.13975 239.651982 
L 534.13975 239.651982 
L 534.158722 239.060201 
L 534.485049 239.060201 
L 534.568528 238.46842 
L 535.30466 238.46842 
L 535.52474 237.87664 
L 535.896601 237.87664 
L 536.682061 236.693078 
L 536.788307 236.693078 
L 536.799691 236.101297 
L 537.543412 236.101297 
L 537.934244 235.509516 
L 538.120175 235.509516 
L 538.617254 234.917735 
L 538.658993 234.325955 
L 540.169202 234.325955 
L 541.193715 233.734174 
L 541.38344 233.142393 
L 541.755301 233.142393 
L 541.876725 232.550612 
L 541.914669 232.550612 
L 541.998148 231.958831 
L 542.388981 231.958831 
L 542.404159 231.367051 
L 542.525583 231.367051 
L 542.536967 230.77527 
L 542.662185 230.77527 
L 542.783609 230.183489 
L 544.142038 230.183489 
L 544.407653 229.591708 
L 545.189318 229.591708 
L 545.371454 228.999927 
L 545.81541 228.999927 
L 545.834383 228.408146 
L 546.210038 228.408146 
L 546.331461 227.816366 
L 547.272496 227.816366 
L 547.788547 227.224585 
L 569.178115 227.224585 
L 569.185704 226.632804 
L 569.322305 226.632804 
L 569.3261 226.041023 
L 569.493058 226.041023 
L 569.500647 225.449242 
L 569.629659 225.449242 
L 569.633454 224.857461 
L 569.789028 224.857461 
L 569.899069 224.265681 
L 569.963575 224.265681 
L 570.069821 223.082119 
L 570.191245 223.082119 
L 570.248162 221.898557 
L 570.358202 221.898557 
L 570.460654 221.306777 
L 570.487215 221.306777 
L 570.578283 220.123215 
L 570.71109 220.123215 
L 570.832514 218.939653 
L 570.942555 218.939653 
L 570.946349 218.347872 
L 574.293094 218.347872 
L 574.410723 217.756092 
L 574.486613 217.164311 
L 574.968514 216.57253 
L 574.972308 215.980749 
L 586.408915 215.980749 
L 586.52275 214.797187 
L 586.663147 214.797187 
L 586.769392 213.613626 
L 586.86046 213.613626 
L 586.868049 213.021845 
L 587.035007 213.021845 
L 587.152636 211.838283 
L 587.334772 211.838283 
L 587.441018 210.654722 
L 599.21913 210.654722 
L 599.21913 210.654722 
L 599.355732 209.47116 
L 599.469566 209.47116 
L 599.59099 208.879379 
L 599.606168 208.879379 
L 599.613757 208.287598 
L 599.811071 208.287598 
L 599.81866 207.695818 
L 600.285383 207.695818 
L 600.292972 207.104037 
L 608.261411 207.104037 
L 608.269 206.512256 
L 608.401807 206.512256 
L 608.515642 205.328694 
L 610.74301 205.328694 
L 610.750599 204.736914 
L 610.89479 204.736914 
L 610.902379 204.145133 
L 611.027598 204.145133 
L 611.035187 203.553352 
L 611.171788 203.553352 
L 611.289418 202.36979 
L 611.410842 202.36979 
L 611.517087 200.594448 
L 614.139083 200.594448 
L 614.249124 200.002667 
L 614.317425 199.410886 
L 626.273878 199.410886 
L 626.399096 198.227324 
L 626.421863 198.227324 
L 626.429452 197.635544 
L 626.547081 197.635544 
L 626.562259 197.043763 
L 626.824079 197.043763 
L 626.922736 196.451982 
L 626.953092 196.451982 
L 627.070721 195.860201 
L 627.207323 195.860201 
L 627.313569 195.26842 
L 627.954839 195.26842 
L 627.958633 194.67664 
L 642.127277 194.67664 
L 642.134866 194.084859 
L 642.263879 194.084859 
L 642.354946 192.901297 
L 642.434631 192.901297 
L 642.44222 192.309516 
L 642.578822 192.309516 
L 642.66989 191.125955 
L 642.798902 191.125955 
L 642.802697 190.534174 
L 642.954477 190.534174 
L 642.962066 189.942393 
L 647.420597 189.942393 
L 647.595144 189.350612 
L 648.278153 189.350612 
L 648.464083 188.758831 
L 648.52859 188.758831 
L 648.634835 188.167051 
L 667.155764 188.167051 
L 667.269599 187.57527 
L 667.277188 187.57527 
L 667.37964 186.391708 
L 667.432763 186.391708 
L 667.546597 185.208146 
L 667.683199 185.208146 
L 667.686994 184.616366 
L 667.82739 184.616366 
L 667.941225 183.432804 
L 668.074032 183.432804 
L 668.161306 182.249242 
L 668.290318 182.249242 
L 668.294113 181.657461 
L 688.818535 181.657461 
L 688.818535 181.657461 
L 688.924781 180.4739 
L 689.080355 180.4739 
L 689.201779 179.290338 
L 689.311819 179.290338 
L 689.319408 178.698557 
L 689.57364 178.698557 
L 689.622968 177.514996 
L 704.899604 177.514996 
L 704.907193 176.923215 
L 705.024822 176.923215 
L 705.165219 175.739653 
L 705.169013 175.739653 
L 705.172808 175.147872 
L 705.286643 175.147872 
L 705.294232 174.556092 
L 705.552257 174.556092 
L 705.635736 173.37253 
L 710.227075 173.37253 
L 710.447155 172.780749 
L 711.585504 172.780749 
L 711.589298 172.188968 
L 714.594538 172.188968 
L 714.602127 171.597187 
L 714.750113 171.597187 
L 714.757702 171.005407 
L 741.554424 171.005407 
L 741.683437 169.230064 
L 741.80486 169.230064 
L 741.92249 168.046503 
L 742.078064 168.046503 
L 742.081858 167.454722 
L 742.195693 167.454722 
L 742.203282 166.862941 
L 758.770047 166.862941 
L 758.872498 165.679379 
L 758.963566 165.679379 
L 759.066017 165.087598 
L 759.088784 165.087598 
L 759.202619 163.904037 
L 759.22918 163.904037 
L 759.335426 162.720475 
L 759.604835 162.720475 
L 759.60863 162.128694 
L 772.251887 162.128694 
L 772.369516 161.536914 
L 772.399872 161.536914 
L 772.49094 160.353352 
L 772.638925 160.353352 
L 772.642719 159.761571 
L 773.24225 159.761571 
L 773.382646 158.578009 
L 773.743123 158.578009 
L 773.754506 157.986229 
L 775.951519 157.986229 
L 776.072943 157.394448 
L 776.304407 157.394448 
L 776.311996 156.802667 
L 777.886711 156.802667 
L 777.973985 156.210886 
L 779.138895 156.210886 
L 779.146484 155.619105 
L 780.74776 155.619105 
L 780.869184 154.435544 
L 780.964047 154.435544 
L 780.971636 153.843763 
L 781.320729 153.843763 
L 781.457331 152.660201 
L 781.555988 152.660201 
L 781.559782 152.06842 
L 782.390777 152.06842 
L 782.538762 151.47664 
L 785.016567 151.47664 
L 785.088662 150.884859 
L 785.452934 150.884859 
L 785.733726 149.701297 
L 788.044574 149.701297 
L 788.071135 149.109516 
L 788.90213 149.109516 
L 788.981814 148.517735 
L 793.212676 148.517735 
L 793.607303 146.150612 
L 796.358312 146.150612 
L 796.677049 145.558831 
L 800.422216 145.558831 
L 801.932425 144.967051 
L 801.955192 144.37527 
L 802.137327 144.37527 
L 802.152505 143.783489 
L 802.292902 143.783489 
L 803.139074 143.191708 
L 803.150458 142.599927 
L 805.282964 142.599927 
L 805.780042 142.008146 
L 807.836659 142.008146 
L 807.840453 141.416366 
L 807.999822 141.416366 
L 808.09089 140.824585 
L 808.204725 140.824585 
L 808.212314 140.232804 
L 811.320005 140.232804 
L 811.418662 139.049242 
L 811.555264 139.049242 
L 811.562853 138.457461 
L 811.99163 138.457461 
L 811.99163 138.457461 
L 812.139616 137.865681 
L 817.421552 137.865681 
L 817.542976 136.682119 
L 819.516114 136.682119 
L 819.671688 136.090338 
L 822.669339 136.090338 
L 822.756612 134.906777 
L 824.061918 134.906777 
L 824.171959 134.314996 
L 824.183342 134.314996 
L 824.297177 133.723215 
L 828.32693 133.723215 
L 828.330725 133.131434 
L 830.755407 133.131434 
L 830.755407 132.539653 
L 830.842681 132.539653 
L 831.764743 132.539653 
L 834.265315 131.947872 
L 835.699634 131.947872 
L 835.703428 131.356092 
L 835.874181 131.356092 
L 835.953865 130.17253 
L 838.902187 130.17253 
L 839.027406 128.988968 
L 839.122268 128.988968 
L 839.236103 127.805407 
L 839.315787 127.805407 
L 839.422033 126.621845 
L 839.52069 126.621845 
L 839.524485 126.030064 
L 841.968139 126.030064 
L 841.975728 125.438283 
L 844.077878 125.438283 
L 844.108234 124.254722 
L 844.597724 124.254722 
L 844.620491 123.662941 
L 846.09655 123.662941 
L 846.157261 123.07116 
L 849.0942 123.07116 
L 849.101789 122.479379 
L 850.152864 122.479379 
L 850.274288 121.295818 
L 850.353973 121.295818 
L 850.45263 120.112256 
L 850.543697 120.112256 
L 850.642354 118.928694 
L 850.756189 118.928694 
L 850.759984 118.336914 
L 853.495814 118.336914 
L 853.613444 117.745133 
L 857.233392 117.745133 
L 857.601458 116.561571 
L 857.605252 115.96979 
L 860.572547 115.96979 
L 860.720532 114.786229 
L 861.79058 114.786229 
L 862.025839 114.194448 
L 862.401494 114.194448 
L 862.416672 113.602667 
L 865.383967 113.602667 
L 865.554719 111.235544 
L 865.611636 111.235544 
L 865.619225 110.643763 
L 866.044209 110.643763 
L 866.139071 109.460201 
L 866.996627 109.460201 
L 866.996627 109.460201 
L 867.000421 108.86842 
L 870.009456 108.86842 
L 870.134674 107.684859 
L 870.271276 107.684859 
L 870.377522 107.093078 
L 870.430645 107.093078 
L 870.434439 106.501297 
L 871.493103 106.501297 
L 871.51587 105.909516 
L 871.89532 105.909516 
L 872.130578 105.317735 
L 872.293742 105.317735 
L 872.293742 105.317735 
L 872.403782 104.134174 
L 894.392879 104.134174 
L 894.548453 103.542393 
L 894.578809 103.542393 
L 894.677466 102.358831 
L 894.779918 102.358831 
L 894.882369 101.17527 
L 894.958259 101.17527 
L 895.053121 99.991708 
L 895.129011 99.991708 
L 895.223874 98.808146 
L 895.333914 98.808146 
L 895.341503 98.216366 
L 911.931034 98.216366 
L 911.96139 97.624585 
L 912.196649 97.624585 
L 912.200443 97.032804 
L 912.337045 97.032804 
L 912.424318 96.441023 
L 912.60266 95.257461 
L 912.727878 95.257461 
L 912.826535 94.665681 
L 912.860685 94.665681 
L 913.031438 93.482119 
L 916.704509 93.482119 
L 916.708303 92.890338 
L 916.95874 92.890338 
L 916.966329 92.298557 
L 936.064021 92.298557 
L 936.170267 91.114996 
L 936.284102 91.114996 
L 936.397936 89.931434 
L 936.5611 89.931434 
L 936.663551 88.747872 
L 940.249349 88.747872 
L 940.253143 88.156092 
L 940.385951 88.156092 
L 940.499785 87.564311 
L 940.499785 87.564311 
L 940.647771 85.788968 
L 943.478464 85.788968 
L 943.588504 84.605407 
L 943.653011 84.605407 
L 943.751667 83.421845 
L 946.157377 83.421845 
L 946.259828 82.238283 
L 963.733477 82.238283 
L 963.839723 81.054722 
L 963.915613 81.054722 
L 963.923202 80.462941 
L 964.08257 80.462941 
L 964.090159 79.87116 
L 964.215378 79.87116 
L 964.219172 79.279379 
L 964.610005 79.279379 
L 964.617594 78.687598 
L 965.050167 78.687598 
L 965.050167 78.687598 
L 965.17159 78.095818 
L 988.120695 78.095818 
L 988.23453 77.504037 
L 988.302831 77.504037 
L 988.42046 76.320475 
L 988.515322 76.320475 
L 988.625363 75.136914 
L 988.780937 75.136914 
L 988.784732 74.545133 
L 988.928922 74.545133 
L 989.042757 73.953352 
L 989.073113 73.361571 
L 989.198331 73.361571 
L 989.308372 72.178009 
L 989.418412 72.178009 
L 989.429796 71.586229 
L 990.795814 71.586229 
L 990.913443 70.402667 
L 991.243564 70.402667 
L 991.368782 69.810886 
L 991.395344 69.810886 
L 991.547124 68.627324 
L 1013.213689 68.627324 
L 1013.217483 68.035544 
L 1013.331318 68.035544 
L 1013.335113 67.443763 
L 1013.452742 67.443763 
L 1013.551399 66.260201 
L 1013.657645 66.260201 
L 1013.775274 65.07664 
L 1031.412086 65.07664 
L 1031.510743 63.893078 
L 1032.899528 63.893078 
L 1032.910911 63.301297 
L 1034.20104 63.301297 
L 1034.208629 62.709516 
L 1034.470449 62.709516 
L 1034.485627 62.117735 
L 1034.633612 62.117735 
L 1034.751241 61.525955 
L 1037.870316 61.525955 
L 1037.885494 60.934174 
L 1038.044863 60.934174 
L 1038.060041 60.342393 
L 1039.691674 60.342393 
L 1039.873809 59.750612 
L 1055.514717 59.750612 
L 1055.639935 58.567051 
L 1055.765153 58.567051 
L 1055.848632 57.383489 
L 1055.920728 57.383489 
L 1056.011796 56.199927 
L 1056.087686 56.199927 
L 1056.197726 55.016366 
L 1056.266027 55.016366 
L 1056.266027 55.016366 
L 1056.379862 53.832804 
L 1076.080879 53.832804 
L 1076.164357 52.649242 
L 1076.251631 52.649242 
L 1076.346493 51.465681 
L 1076.574163 51.465681 
L 1076.638669 50.282119 
L 1076.733532 50.282119 
L 1076.805627 49.098557 
L 1087.475746 49.098557 
L 1087.559225 48.506777 
L 1089.870073 48.506777 
L 1089.976318 47.323215 
L 1090.03703 47.323215 
L 1090.044619 46.731434 
L 1090.173632 46.731434 
L 1090.287467 45.547872 
L 1109.586268 45.547872 
L 1109.669746 44.956092 
L 1109.844293 43.77253 
L 1110.311016 43.77253 
L 1110.3224 43.180749 
L 1114.029621 43.180749 
L 1114.03721 42.588968 
L 1114.230729 42.588968 
L 1114.507727 41.997187 
L 1114.507727 41.997187 
" clip-path="url(#pe302cec4b0)" style="fill: none; stroke: #0000ff; stroke-width: 1.5; stroke-linecap: square"/>
   </g>
   <g id="patch_92">
    <path d="M 49.235 359.517187 
L 49.235 26.877187 
" style="fill: none; stroke: #000000; stroke-width: 0.8; stroke-linejoin: miter; stroke-linecap: square"/>
   </g>
   <g id="patch_93">
    <path d="M 1165.235 359.517187 
L 1165.235 26.877187 
" style="fill: none; stroke: #000000; stroke-width: 0.8; stroke-linejoin: miter; stroke-linecap: square"/>
   </g>
   <g id="patch_94">
    <path d="M 49.235 359.517187 
L 1165.235 359.517187 
" style="fill: none; stroke: #000000; stroke-width: 0.8; stroke-linejoin: miter; stroke-linecap: square"/>
   </g>
   <g id="patch_95">
    <path d="M 49.235 26.877187 
L 1165.235 26.877187 
" style="fill: none; stroke: #000000; stroke-width: 0.8; stroke-linejoin: miter; stroke-linecap: square"/>
   </g>
   <g id="text_16">
    <!-- Pellet Count and Cumulative Sum Over Time of Group female Mouse M74 -->
    <g transform="translate(276.669219 20.877187) scale(0.18 -0.18)">
     <defs>
      <path id="DejaVuSans-61" d="M 2194 1759 
Q 1497 1759 1228 1600 
Q 959 1441 959 1056 
Q 959 750 1161 570 
Q 1363 391 1709 391 
Q 2188 391 2477 730 
Q 2766 1069 2766 1631 
L 2766 1759 
L 2194 1759 
z
M 3341 1997 
L 3341 0 
L 2766 0 
L 2766 531 
Q 2569 213 2275 61 
Q 1981 -91 1556 -91 
Q 1019 -91 701 211 
Q 384 513 384 1019 
Q 384 1609 779 1909 
Q 1175 2209 1959 2209 
L 2766 2209 
L 2766 2266 
Q 2766 2663 2505 2880 
Q 2244 3097 1772 3097 
Q 1472 3097 1187 3025 
Q 903 2953 641 2809 
L 641 3341 
Q 956 3463 1253 3523 
Q 1550 3584 1831 3584 
Q 2591 3584 2966 3190 
Q 3341 2797 3341 1997 
z
" transform="scale(0.015625)"/>
      <path id="DejaVuSans-64" d="M 2906 2969 
L 2906 4863 
L 3481 4863 
L 3481 0 
L 2906 0 
L 2906 525 
Q 2725 213 2448 61 
Q 2172 -91 1784 -91 
Q 1150 -91 751 415 
Q 353 922 353 1747 
Q 353 2572 751 3078 
Q 1150 3584 1784 3584 
Q 2172 3584 2448 3432 
Q 2725 3281 2906 2969 
z
M 947 1747 
Q 947 1113 1208 752 
Q 1469 391 1925 391 
Q 2381 391 2643 752 
Q 2906 1113 2906 1747 
Q 2906 2381 2643 2742 
Q 2381 3103 1925 3103 
Q 1469 3103 1208 2742 
Q 947 2381 947 1747 
z
" transform="scale(0.015625)"/>
      <path id="DejaVuSans-76" d="M 191 3500 
L 800 3500 
L 1894 563 
L 2988 3500 
L 3597 3500 
L 2284 0 
L 1503 0 
L 191 3500 
z
" transform="scale(0.015625)"/>
      <path id="DejaVuSans-53" d="M 3425 4513 
L 3425 3897 
Q 3066 4069 2747 4153 
Q 2428 4238 2131 4238 
Q 1616 4238 1336 4038 
Q 1056 3838 1056 3469 
Q 1056 3159 1242 3001 
Q 1428 2844 1947 2747 
L 2328 2669 
Q 3034 2534 3370 2195 
Q 3706 1856 3706 1288 
Q 3706 609 3251 259 
Q 2797 -91 1919 -91 
Q 1588 -91 1214 -16 
Q 841 59 441 206 
L 441 856 
Q 825 641 1194 531 
Q 1563 422 1919 422 
Q 2459 422 2753 634 
Q 3047 847 3047 1241 
Q 3047 1584 2836 1778 
Q 2625 1972 2144 2069 
L 1759 2144 
Q 1053 2284 737 2584 
Q 422 2884 422 3419 
Q 422 4038 858 4394 
Q 1294 4750 2059 4750 
Q 2388 4750 2728 4690 
Q 3069 4631 3425 4513 
z
" transform="scale(0.015625)"/>
      <path id="DejaVuSans-4f" d="M 2522 4238 
Q 1834 4238 1429 3725 
Q 1025 3213 1025 2328 
Q 1025 1447 1429 934 
Q 1834 422 2522 422 
Q 3209 422 3611 934 
Q 4013 1447 4013 2328 
Q 4013 3213 3611 3725 
Q 3209 4238 2522 4238 
z
M 2522 4750 
Q 3503 4750 4090 4092 
Q 4678 3434 4678 2328 
Q 4678 1225 4090 567 
Q 3503 -91 2522 -91 
Q 1538 -91 948 565 
Q 359 1222 359 2328 
Q 359 3434 948 4092 
Q 1538 4750 2522 4750 
z
" transform="scale(0.015625)"/>
      <path id="DejaVuSans-72" d="M 2631 2963 
Q 2534 3019 2420 3045 
Q 2306 3072 2169 3072 
Q 1681 3072 1420 2755 
Q 1159 2438 1159 1844 
L 1159 0 
L 581 0 
L 581 3500 
L 1159 3500 
L 1159 2956 
Q 1341 3275 1631 3429 
Q 1922 3584 2338 3584 
Q 2397 3584 2469 3576 
Q 2541 3569 2628 3553 
L 2631 2963 
z
" transform="scale(0.015625)"/>
      <path id="DejaVuSans-66" d="M 2375 4863 
L 2375 4384 
L 1825 4384 
Q 1516 4384 1395 4259 
Q 1275 4134 1275 3809 
L 1275 3500 
L 2222 3500 
L 2222 3053 
L 1275 3053 
L 1275 0 
L 697 0 
L 697 3053 
L 147 3053 
L 147 3500 
L 697 3500 
L 697 3744 
Q 697 4328 969 4595 
Q 1241 4863 1831 4863 
L 2375 4863 
z
" transform="scale(0.015625)"/>
      <path id="DejaVuSans-47" d="M 3809 666 
L 3809 1919 
L 2778 1919 
L 2778 2438 
L 4434 2438 
L 4434 434 
Q 4069 175 3628 42 
Q 3188 -91 2688 -91 
Q 1594 -91 976 548 
Q 359 1188 359 2328 
Q 359 3472 976 4111 
Q 1594 4750 2688 4750 
Q 3144 4750 3555 4637 
Q 3966 4525 4313 4306 
L 4313 3634 
Q 3963 3931 3569 4081 
Q 3175 4231 2741 4231 
Q 1884 4231 1454 3753 
Q 1025 3275 1025 2328 
Q 1025 1384 1454 906 
Q 1884 428 2741 428 
Q 3075 428 3337 486 
Q 3600 544 3809 666 
z
" transform="scale(0.015625)"/>
      <path id="DejaVuSans-70" d="M 1159 525 
L 1159 -1331 
L 581 -1331 
L 581 3500 
L 1159 3500 
L 1159 2969 
Q 1341 3281 1617 3432 
Q 1894 3584 2278 3584 
Q 2916 3584 3314 3078 
Q 3713 2572 3713 1747 
Q 3713 922 3314 415 
Q 2916 -91 2278 -91 
Q 1894 -91 1617 61 
Q 1341 213 1159 525 
z
M 3116 1747 
Q 3116 2381 2855 2742 
Q 2594 3103 2138 3103 
Q 1681 3103 1420 2742 
Q 1159 2381 1159 1747 
Q 1159 1113 1420 752 
Q 1681 391 2138 391 
Q 2594 391 2855 752 
Q 3116 1113 3116 1747 
z
" transform="scale(0.015625)"/>
      <path id="DejaVuSans-4d" d="M 628 4666 
L 1569 4666 
L 2759 1491 
L 3956 4666 
L 4897 4666 
L 4897 0 
L 4281 0 
L 4281 4097 
L 3078 897 
L 2444 897 
L 1241 4097 
L 1241 0 
L 628 0 
L 628 4666 
z
" transform="scale(0.015625)"/>
      <path id="DejaVuSans-73" d="M 2834 3397 
L 2834 2853 
Q 2591 2978 2328 3040 
Q 2066 3103 1784 3103 
Q 1356 3103 1142 2972 
Q 928 2841 928 2578 
Q 928 2378 1081 2264 
Q 1234 2150 1697 2047 
L 1894 2003 
Q 2506 1872 2764 1633 
Q 3022 1394 3022 966 
Q 3022 478 2636 193 
Q 2250 -91 1575 -91 
Q 1294 -91 989 -36 
Q 684 19 347 128 
L 347 722 
Q 666 556 975 473 
Q 1284 391 1588 391 
Q 1994 391 2212 530 
Q 2431 669 2431 922 
Q 2431 1156 2273 1281 
Q 2116 1406 1581 1522 
L 1381 1569 
Q 847 1681 609 1914 
Q 372 2147 372 2553 
Q 372 3047 722 3315 
Q 1072 3584 1716 3584 
Q 2034 3584 2315 3537 
Q 2597 3491 2834 3397 
z
" transform="scale(0.015625)"/>
      <path id="DejaVuSans-37" d="M 525 4666 
L 3525 4666 
L 3525 4397 
L 1831 0 
L 1172 0 
L 2766 4134 
L 525 4134 
L 525 4666 
z
" transform="scale(0.015625)"/>
     </defs>
     <use xlink:href="#DejaVuSans-50"/>
     <use xlink:href="#DejaVuSans-65" x="56.677734"/>
     <use xlink:href="#DejaVuSans-6c" x="118.201172"/>
     <use xlink:href="#DejaVuSans-6c" x="145.984375"/>
     <use xlink:href="#DejaVuSans-65" x="173.767578"/>
     <use xlink:href="#DejaVuSans-74" x="235.291016"/>
     <use xlink:href="#DejaVuSans-20" x="274.5"/>
     <use xlink:href="#DejaVuSans-43" x="306.287109"/>
     <use xlink:href="#DejaVuSans-6f" x="376.111328"/>
     <use xlink:href="#DejaVuSans-75" x="437.292969"/>
     <use xlink:href="#DejaVuSans-6e" x="500.671875"/>
     <use xlink:href="#DejaVuSans-74" x="564.050781"/>
     <use xlink:href="#DejaVuSans-20" x="603.259766"/>
     <use xlink:href="#DejaVuSans-61" x="635.046875"/>
     <use xlink:href="#DejaVuSans-6e" x="696.326172"/>
     <use xlink:href="#DejaVuSans-64" x="759.705078"/>
     <use xlink:href="#DejaVuSans-20" x="823.181641"/>
     <use xlink:href="#DejaVuSans-43" x="854.96875"/>
     <use xlink:href="#DejaVuSans-75" x="924.792969"/>
     <use xlink:href="#DejaVuSans-6d" x="988.171875"/>
     <use xlink:href="#DejaVuSans-75" x="1085.583984"/>
     <use xlink:href="#DejaVuSans-6c" x="1148.962891"/>
     <use xlink:href="#DejaVuSans-61" x="1176.746094"/>
     <use xlink:href="#DejaVuSans-74" x="1238.025391"/>
     <use xlink:href="#DejaVuSans-69" x="1277.234375"/>
     <use xlink:href="#DejaVuSans-76" x="1305.017578"/>
     <use xlink:href="#DejaVuSans-65" x="1364.197266"/>
     <use xlink:href="#DejaVuSans-20" x="1425.720703"/>
     <use xlink:href="#DejaVuSans-53" x="1457.507812"/>
     <use xlink:href="#DejaVuSans-75" x="1520.984375"/>
     <use xlink:href="#DejaVuSans-6d" x="1584.363281"/>
     <use xlink:href="#DejaVuSans-20" x="1681.775391"/>
     <use xlink:href="#DejaVuSans-4f" x="1713.5625"/>
     <use xlink:href="#DejaVuSans-76" x="1792.273438"/>
     <use xlink:href="#DejaVuSans-65" x="1851.453125"/>
     <use xlink:href="#DejaVuSans-72" x="1912.976562"/>
     <use xlink:href="#DejaVuSans-20" x="1954.089844"/>
     <use xlink:href="#DejaVuSans-54" x="1985.876953"/>
     <use xlink:href="#DejaVuSans-69" x="2043.835938"/>
     <use xlink:href="#DejaVuSans-6d" x="2071.619141"/>
     <use xlink:href="#DejaVuSans-65" x="2169.03125"/>
     <use xlink:href="#DejaVuSans-20" x="2230.554688"/>
     <use xlink:href="#DejaVuSans-6f" x="2262.341797"/>
     <use xlink:href="#DejaVuSans-66" x="2323.523438"/>
     <use xlink:href="#DejaVuSans-20" x="2358.728516"/>
     <use xlink:href="#DejaVuSans-47" x="2390.515625"/>
     <use xlink:href="#DejaVuSans-72" x="2468.005859"/>
     <use xlink:href="#DejaVuSans-6f" x="2506.869141"/>
     <use xlink:href="#DejaVuSans-75" x="2568.050781"/>
     <use xlink:href="#DejaVuSans-70" x="2631.429688"/>
     <use xlink:href="#DejaVuSans-20" x="2694.90625"/>
     <use xlink:href="#DejaVuSans-66" x="2726.693359"/>
     <use xlink:href="#DejaVuSans-65" x="2761.898438"/>
     <use xlink:href="#DejaVuSans-6d" x="2823.421875"/>
     <use xlink:href="#DejaVuSans-61" x="2920.833984"/>
     <use xlink:href="#DejaVuSans-6c" x="2982.113281"/>
     <use xlink:href="#DejaVuSans-65" x="3009.896484"/>
     <use xlink:href="#DejaVuSans-20" x="3071.419922"/>
     <use xlink:href="#DejaVuSans-4d" x="3103.207031"/>
     <use xlink:href="#DejaVuSans-6f" x="3189.486328"/>
     <use xlink:href="#DejaVuSans-75" x="3250.667969"/>
     <use xlink:href="#DejaVuSans-73" x="3314.046875"/>
     <use xlink:href="#DejaVuSans-65" x="3366.146484"/>
     <use xlink:href="#DejaVuSans-20" x="3427.669922"/>
     <use xlink:href="#DejaVuSans-4d" x="3459.457031"/>
     <use xlink:href="#DejaVuSans-37" x="3545.736328"/>
     <use xlink:href="#DejaVuSans-34" x="3609.359375"/>
    </g>
   </g>
   <g id="legend_1">
    <g id="patch_96">
     <path d="M 1086.550625 64.233437 
L 1158.235 64.233437 
Q 1160.235 64.233437 1160.235 62.233437 
L 1160.235 33.877187 
Q 1160.235 31.877187 1158.235 31.877187 
L 1086.550625 31.877187 
Q 1084.550625 31.877187 1084.550625 33.877187 
L 1084.550625 62.233437 
Q 1084.550625 64.233437 1086.550625 64.233437 
z
" style="fill: #ffffff; opacity: 0.8; stroke: #cccccc; stroke-linejoin: miter"/>
    </g>
    <g id="patch_97">
     <path d="M 1088.550625 43.475625 
L 1108.550625 43.475625 
L 1108.550625 36.475625 
L 1088.550625 36.475625 
z
" style="fill: #add8e6; opacity: 0.9; stroke: #add8e6; stroke-linejoin: miter"/>
    </g>
    <g id="text_17">
     <!-- Meal -->
     <g transform="translate(1116.550625 43.475625) scale(0.1 -0.1)">
      <use xlink:href="#DejaVuSans-4d"/>
      <use xlink:href="#DejaVuSans-65" x="86.279297"/>
      <use xlink:href="#DejaVuSans-61" x="147.802734"/>
      <use xlink:href="#DejaVuSans-6c" x="209.082031"/>
     </g>
    </g>
    <g id="patch_98">
     <path d="M 1088.550625 58.15375 
L 1108.550625 58.15375 
L 1108.550625 51.15375 
L 1088.550625 51.15375 
z
" style="fill: #808080; opacity: 0.5; stroke: #808080; stroke-linejoin: miter"/>
    </g>
    <g id="text_18">
     <!-- Inactive -->
     <g transform="translate(1116.550625 58.15375) scale(0.1 -0.1)">
      <defs>
       <path id="DejaVuSans-49" d="M 628 4666 
L 1259 4666 
L 1259 0 
L 628 0 
L 628 4666 
z
" transform="scale(0.015625)"/>
       <path id="DejaVuSans-63" d="M 3122 3366 
L 3122 2828 
Q 2878 2963 2633 3030 
Q 2388 3097 2138 3097 
Q 1578 3097 1268 2742 
Q 959 2388 959 1747 
Q 959 1106 1268 751 
Q 1578 397 2138 397 
Q 2388 397 2633 464 
Q 2878 531 3122 666 
L 3122 134 
Q 2881 22 2623 -34 
Q 2366 -91 2075 -91 
Q 1284 -91 818 406 
Q 353 903 353 1747 
Q 353 2603 823 3093 
Q 1294 3584 2113 3584 
Q 2378 3584 2631 3529 
Q 2884 3475 3122 3366 
z
" transform="scale(0.015625)"/>
      </defs>
      <use xlink:href="#DejaVuSans-49"/>
      <use xlink:href="#DejaVuSans-6e" x="29.492188"/>
      <use xlink:href="#DejaVuSans-61" x="92.871094"/>
      <use xlink:href="#DejaVuSans-63" x="154.150391"/>
      <use xlink:href="#DejaVuSans-74" x="209.130859"/>
      <use xlink:href="#DejaVuSans-69" x="248.339844"/>
      <use xlink:href="#DejaVuSans-76" x="276.123047"/>
      <use xlink:href="#DejaVuSans-65" x="335.302734"/>
     </g>
    </g>
   </g>
  </g>
 </g>
 <defs>
  <clipPath id="pe302cec4b0">
   <rect x="49.235" y="26.877187" width="1116" height="332.64"/>
  </clipPath>
 </defs>
</svg>
