<?xml version="1.0" encoding="utf-8" standalone="no"?>
<!DOCTYPE svg PUBLIC "-//W3C//DTD SVG 1.1//EN"
  "http://www.w3.org/Graphics/SVG/1.1/DTD/svg11.dtd">
<svg xmlns:xlink="http://www.w3.org/1999/xlink" width="1172.435pt" height="399.009062pt" viewBox="0 0 1172.435 399.009062" xmlns="http://www.w3.org/2000/svg" version="1.1">
 <metadata>
  <rdf:RDF xmlns:dc="http://purl.org/dc/elements/1.1/" xmlns:cc="http://creativecommons.org/ns#" xmlns:rdf="http://www.w3.org/1999/02/22-rdf-syntax-ns#">
   <cc:Work>
    <dc:type rdf:resource="http://purl.org/dc/dcmitype/StillImage"/>
    <dc:date>2025-10-01T20:37:26.931548</dc:date>
    <dc:format>image/svg+xml</dc:format>
    <dc:creator>
     <cc:Agent>
      <dc:title>Matplotlib v3.8.4, https://matplotlib.org/</dc:title>
     </cc:Agent>
    </dc:creator>
   </cc:Work>
  </rdf:RDF>
 </metadata>
 <defs>
  <style type="text/css">*{stroke-linejoin: round; stroke-linecap: butt}</style>
 </defs>
 <g id="figure_1">
  <g id="patch_1">
   <path d="M 0 399.009062 
L 1172.435 399.009062 
L 1172.435 0 
L 0 0 
z
" style="fill: #ffffff"/>
  </g>
  <g id="axes_1">
   <g id="patch_2">
    <path d="M 49.235 359.517187 
L 1165.235 359.517187 
L 1165.235 26.877187 
L 49.235 26.877187 
z
" style="fill: #ffffff"/>
   </g>
   <g id="patch_3">
    <path d="M 127.0703 359.517187 
L 127.0703 26.877187 
L 127.133187 26.877187 
L 127.133187 359.517187 
z
" clip-path="url(#p48be8d9c9d)" style="fill: #add8e6; stroke: #add8e6; stroke-linejoin: miter"/>
   </g>
   <g id="patch_4">
    <path d="M 131.663314 359.517187 
L 131.663314 26.877187 
L 131.400401 26.877187 
L 131.400401 359.517187 
z
" clip-path="url(#p48be8d9c9d)" style="fill: #add8e6; stroke: #add8e6; stroke-linejoin: miter"/>
   </g>
   <g id="patch_5">
    <path d="M 132.578583 359.517187 
L 132.578583 26.877187 
L 132.602829 26.877187 
L 132.602829 359.517187 
z
" clip-path="url(#p48be8d9c9d)" style="fill: #add8e6; stroke: #add8e6; stroke-linejoin: miter"/>
   </g>
   <g id="patch_6">
    <path d="M 147.156213 359.517187 
L 147.156213 26.877187 
L 135.306206 26.877187 
L 135.306206 359.517187 
z
" clip-path="url(#p48be8d9c9d)" style="fill: #add8e6; stroke: #add8e6; stroke-linejoin: miter"/>
   </g>
   <g id="patch_7">
    <path d="M 139.468104 359.517187 
L 139.468104 26.877187 
L 139.590847 26.877187 
L 139.590847 359.517187 
z
" clip-path="url(#p48be8d9c9d)" style="fill: #add8e6; stroke: #add8e6; stroke-linejoin: miter"/>
   </g>
   <g id="patch_8">
    <path d="M 139.901493 359.517187 
L 139.901493 26.877187 
L 140.023479 26.877187 
L 140.023479 359.517187 
z
" clip-path="url(#p48be8d9c9d)" style="fill: #add8e6; stroke: #add8e6; stroke-linejoin: miter"/>
   </g>
   <g id="patch_9">
    <path d="M 154.357895 359.517187 
L 154.357895 26.877187 
L 143.80654 26.877187 
L 143.80654 359.517187 
z
" clip-path="url(#p48be8d9c9d)" style="fill: #add8e6; stroke: #add8e6; stroke-linejoin: miter"/>
   </g>
   <g id="patch_10">
    <path d="M 155.761106 359.517187 
L 155.761106 26.877187 
L 149.124647 26.877187 
L 149.124647 359.517187 
z
" clip-path="url(#p48be8d9c9d)" style="fill: #add8e6; stroke: #add8e6; stroke-linejoin: miter"/>
   </g>
   <g id="patch_11">
    <path d="M 151.687855 359.517187 
L 151.687855 26.877187 
L 151.70907 26.877187 
L 151.70907 359.517187 
z
" clip-path="url(#p48be8d9c9d)" style="fill: #add8e6; stroke: #add8e6; stroke-linejoin: miter"/>
   </g>
   <g id="patch_12">
    <path d="M 155.161029 359.517187 
L 155.161029 26.877187 
L 154.982976 26.877187 
L 154.982976 359.517187 
z
" clip-path="url(#p48be8d9c9d)" style="fill: #add8e6; stroke: #add8e6; stroke-linejoin: miter"/>
   </g>
   <g id="patch_13">
    <path d="M 169.090848 359.517187 
L 169.090848 26.877187 
L 157.73636 26.877187 
L 157.73636 359.517187 
z
" clip-path="url(#p48be8d9c9d)" style="fill: #add8e6; stroke: #add8e6; stroke-linejoin: miter"/>
   </g>
   <g id="patch_14">
    <path d="M 172.51553 359.517187 
L 172.51553 26.877187 
L 160.353362 26.877187 
L 160.353362 359.517187 
z
" clip-path="url(#p48be8d9c9d)" style="fill: #add8e6; stroke: #add8e6; stroke-linejoin: miter"/>
   </g>
   <g id="patch_15">
    <path d="M 160.634459 359.517187 
L 160.634459 26.877187 
L 160.861761 26.877187 
L 160.861761 359.517187 
z
" clip-path="url(#p48be8d9c9d)" style="fill: #add8e6; stroke: #add8e6; stroke-linejoin: miter"/>
   </g>
   <g id="patch_16">
    <path d="M 178.198079 359.517187 
L 178.198079 26.877187 
L 166.001057 26.877187 
L 166.001057 359.517187 
z
" clip-path="url(#p48be8d9c9d)" style="fill: #add8e6; stroke: #add8e6; stroke-linejoin: miter"/>
   </g>
   <g id="patch_17">
    <path d="M 166.263212 359.517187 
L 166.263212 26.877187 
L 166.151077 26.877187 
L 166.151077 359.517187 
z
" clip-path="url(#p48be8d9c9d)" style="fill: #add8e6; stroke: #add8e6; stroke-linejoin: miter"/>
   </g>
   <g id="patch_18">
    <path d="M 166.542794 359.517187 
L 166.542794 26.877187 
L 166.646595 26.877187 
L 166.646595 359.517187 
z
" clip-path="url(#p48be8d9c9d)" style="fill: #add8e6; stroke: #add8e6; stroke-linejoin: miter"/>
   </g>
   <g id="patch_19">
    <path d="M 188.536528 359.517187 
L 188.536528 26.877187 
L 176.531955 26.877187 
L 176.531955 359.517187 
z
" clip-path="url(#p48be8d9c9d)" style="fill: #add8e6; stroke: #add8e6; stroke-linejoin: miter"/>
   </g>
   <g id="patch_20">
    <path d="M 191.188383 359.517187 
L 191.188383 26.877187 
L 179.15805 26.877187 
L 179.15805 359.517187 
z
" clip-path="url(#p48be8d9c9d)" style="fill: #add8e6; stroke: #add8e6; stroke-linejoin: miter"/>
   </g>
   <g id="patch_21">
    <path d="M 193.855392 359.517187 
L 193.855392 26.877187 
L 181.359091 26.877187 
L 181.359091 359.517187 
z
" clip-path="url(#p48be8d9c9d)" style="fill: #add8e6; stroke: #add8e6; stroke-linejoin: miter"/>
   </g>
   <g id="patch_22">
    <path d="M 198.121092 359.517187 
L 198.121092 26.877187 
L 185.784659 26.877187 
L 185.784659 359.517187 
z
" clip-path="url(#p48be8d9c9d)" style="fill: #add8e6; stroke: #add8e6; stroke-linejoin: miter"/>
   </g>
   <g id="patch_23">
    <path d="M 201.41697 359.517187 
L 201.41697 26.877187 
L 188.772164 26.877187 
L 188.772164 359.517187 
z
" clip-path="url(#p48be8d9c9d)" style="fill: #add8e6; stroke: #add8e6; stroke-linejoin: miter"/>
   </g>
   <g id="patch_24">
    <path d="M 212.35398 359.517187 
L 212.35398 26.877187 
L 200.096346 26.877187 
L 200.096346 359.517187 
z
" clip-path="url(#p48be8d9c9d)" style="fill: #add8e6; stroke: #add8e6; stroke-linejoin: miter"/>
   </g>
   <g id="patch_25">
    <path d="M 217.703152 359.517187 
L 217.703152 26.877187 
L 217.906966 26.877187 
L 217.906966 359.517187 
z
" clip-path="url(#p48be8d9c9d)" style="fill: #add8e6; stroke: #add8e6; stroke-linejoin: miter"/>
   </g>
   <g id="patch_26">
    <path d="M 233.762033 359.517187 
L 233.762033 26.877187 
L 222.362084 26.877187 
L 222.362084 359.517187 
z
" clip-path="url(#p48be8d9c9d)" style="fill: #add8e6; stroke: #add8e6; stroke-linejoin: miter"/>
   </g>
   <g id="patch_27">
    <path d="M 222.758347 359.517187 
L 222.758347 26.877187 
L 222.675761 26.877187 
L 222.675761 359.517187 
z
" clip-path="url(#p48be8d9c9d)" style="fill: #add8e6; stroke: #add8e6; stroke-linejoin: miter"/>
   </g>
   <g id="patch_28">
    <path d="M 235.43346 359.517187 
L 235.43346 26.877187 
L 232.99451 26.877187 
L 232.99451 359.517187 
z
" clip-path="url(#p48be8d9c9d)" style="fill: #add8e6; stroke: #add8e6; stroke-linejoin: miter"/>
   </g>
   <g id="patch_29">
    <path d="M 263.543888 359.517187 
L 263.543888 26.877187 
L 263.508278 26.877187 
L 263.508278 359.517187 
z
" clip-path="url(#p48be8d9c9d)" style="fill: #add8e6; stroke: #add8e6; stroke-linejoin: miter"/>
   </g>
   <g id="patch_30">
    <path d="M 265.388822 359.517187 
L 265.388822 26.877187 
L 265.813877 26.877187 
L 265.813877 359.517187 
z
" clip-path="url(#p48be8d9c9d)" style="fill: #add8e6; stroke: #add8e6; stroke-linejoin: miter"/>
   </g>
   <g id="patch_31">
    <path d="M 283.423714 359.517187 
L 283.423714 26.877187 
L 270.966811 26.877187 
L 270.966811 359.517187 
z
" clip-path="url(#p48be8d9c9d)" style="fill: #add8e6; stroke: #add8e6; stroke-linejoin: miter"/>
   </g>
   <g id="patch_32">
    <path d="M 312.954022 359.517187 
L 312.954022 26.877187 
L 300.256179 26.877187 
L 300.256179 359.517187 
z
" clip-path="url(#p48be8d9c9d)" style="fill: #add8e6; stroke: #add8e6; stroke-linejoin: miter"/>
   </g>
   <g id="patch_33">
    <path d="M 301.270704 359.517187 
L 301.270704 26.877187 
L 300.666838 26.877187 
L 300.666838 359.517187 
z
" clip-path="url(#p48be8d9c9d)" style="fill: #add8e6; stroke: #add8e6; stroke-linejoin: miter"/>
   </g>
   <g id="patch_34">
    <path d="M 325.626862 359.517187 
L 325.626862 26.877187 
L 325.97918 26.877187 
L 325.97918 359.517187 
z
" clip-path="url(#p48be8d9c9d)" style="fill: #add8e6; stroke: #add8e6; stroke-linejoin: miter"/>
   </g>
   <g id="patch_35">
    <path d="M 359.645625 359.517187 
L 359.645625 26.877187 
L 359.563796 26.877187 
L 359.563796 359.517187 
z
" clip-path="url(#p48be8d9c9d)" style="fill: #add8e6; stroke: #add8e6; stroke-linejoin: miter"/>
   </g>
   <g id="patch_36">
    <path d="M 359.81989 359.517187 
L 359.81989 26.877187 
L 359.752457 26.877187 
L 359.752457 359.517187 
z
" clip-path="url(#p48be8d9c9d)" style="fill: #add8e6; stroke: #add8e6; stroke-linejoin: miter"/>
   </g>
   <g id="patch_37">
    <path d="M 389.435815 359.517187 
L 389.435815 26.877187 
L 389.40172 26.877187 
L 389.40172 359.517187 
z
" clip-path="url(#p48be8d9c9d)" style="fill: #add8e6; stroke: #add8e6; stroke-linejoin: miter"/>
   </g>
   <g id="patch_38">
    <path d="M 392.757454 359.517187 
L 392.757454 26.877187 
L 392.861255 26.877187 
L 392.861255 359.517187 
z
" clip-path="url(#p48be8d9c9d)" style="fill: #add8e6; stroke: #add8e6; stroke-linejoin: miter"/>
   </g>
   <g id="patch_39">
    <path d="M 393.694695 359.517187 
L 393.694695 26.877187 
L 393.059007 26.877187 
L 393.059007 359.517187 
z
" clip-path="url(#p48be8d9c9d)" style="fill: #add8e6; stroke: #add8e6; stroke-linejoin: miter"/>
   </g>
   <g id="patch_40">
    <path d="M 407.451007 359.517187 
L 407.451007 26.877187 
L 407.434339 26.877187 
L 407.434339 359.517187 
z
" clip-path="url(#p48be8d9c9d)" style="fill: #add8e6; stroke: #add8e6; stroke-linejoin: miter"/>
   </g>
   <g id="patch_41">
    <path d="M 424.930525 359.517187 
L 424.930525 26.877187 
L 412.413766 26.877187 
L 412.413766 359.517187 
z
" clip-path="url(#p48be8d9c9d)" style="fill: #add8e6; stroke: #add8e6; stroke-linejoin: miter"/>
   </g>
   <g id="patch_42">
    <path d="M 437.208617 359.517187 
L 437.208617 26.877187 
L 428.472647 26.877187 
L 428.472647 359.517187 
z
" clip-path="url(#p48be8d9c9d)" style="fill: #add8e6; stroke: #add8e6; stroke-linejoin: miter"/>
   </g>
   <g id="patch_43">
    <path d="M 437.429858 359.517187 
L 437.429858 26.877187 
L 432.806537 26.877187 
L 432.806537 359.517187 
z
" clip-path="url(#p48be8d9c9d)" style="fill: #add8e6; stroke: #add8e6; stroke-linejoin: miter"/>
   </g>
   <g id="patch_44">
    <path d="M 448.857841 359.517187 
L 448.857841 26.877187 
L 436.675215 26.877187 
L 436.675215 359.517187 
z
" clip-path="url(#p48be8d9c9d)" style="fill: #add8e6; stroke: #add8e6; stroke-linejoin: miter"/>
   </g>
   <g id="patch_45">
    <path d="M 447.869835 359.517187 
L 447.869835 26.877187 
L 448.185027 26.877187 
L 448.185027 359.517187 
z
" clip-path="url(#p48be8d9c9d)" style="fill: #add8e6; stroke: #add8e6; stroke-linejoin: miter"/>
   </g>
   <g id="patch_46">
    <path d="M 448.464608 359.517187 
L 448.464608 26.877187 
L 448.587351 26.877187 
L 448.587351 359.517187 
z
" clip-path="url(#p48be8d9c9d)" style="fill: #add8e6; stroke: #add8e6; stroke-linejoin: miter"/>
   </g>
   <g id="patch_47">
    <path d="M 454.479775 359.517187 
L 454.479775 26.877187 
L 454.473713 26.877187 
L 454.473713 359.517187 
z
" clip-path="url(#p48be8d9c9d)" style="fill: #add8e6; stroke: #add8e6; stroke-linejoin: miter"/>
   </g>
   <g id="patch_48">
    <path d="M 476.285606 359.517187 
L 476.285606 26.877187 
L 465.142508 26.877187 
L 465.142508 359.517187 
z
" clip-path="url(#p48be8d9c9d)" style="fill: #add8e6; stroke: #add8e6; stroke-linejoin: miter"/>
   </g>
   <g id="patch_49">
    <path d="M 480.180045 359.517187 
L 480.180045 26.877187 
L 467.419316 26.877187 
L 467.419316 359.517187 
z
" clip-path="url(#p48be8d9c9d)" style="fill: #add8e6; stroke: #add8e6; stroke-linejoin: miter"/>
   </g>
   <g id="patch_50">
    <path d="M 487.912099 359.517187 
L 487.912099 26.877187 
L 478.932158 26.877187 
L 478.932158 359.517187 
z
" clip-path="url(#p48be8d9c9d)" style="fill: #add8e6; stroke: #add8e6; stroke-linejoin: miter"/>
   </g>
   <g id="patch_51">
    <path d="M 490.125262 359.517187 
L 490.125262 26.877187 
L 490.029795 26.877187 
L 490.029795 359.517187 
z
" clip-path="url(#p48be8d9c9d)" style="fill: #add8e6; stroke: #add8e6; stroke-linejoin: miter"/>
   </g>
   <g id="patch_52">
    <path d="M 492.280842 359.517187 
L 492.280842 26.877187 
L 492.486171 26.877187 
L 492.486171 359.517187 
z
" clip-path="url(#p48be8d9c9d)" style="fill: #add8e6; stroke: #add8e6; stroke-linejoin: miter"/>
   </g>
   <g id="patch_53">
    <path d="M 510.236936 359.517187 
L 510.236936 26.877187 
L 499.358266 26.877187 
L 499.358266 359.517187 
z
" clip-path="url(#p48be8d9c9d)" style="fill: #add8e6; stroke: #add8e6; stroke-linejoin: miter"/>
   </g>
   <g id="patch_54">
    <path d="M 505.096124 359.517187 
L 505.096124 26.877187 
L 501.818431 26.877187 
L 501.818431 359.517187 
z
" clip-path="url(#p48be8d9c9d)" style="fill: #add8e6; stroke: #add8e6; stroke-linejoin: miter"/>
   </g>
   <g id="patch_55">
    <path d="M 521.431556 359.517187 
L 521.431556 26.877187 
L 509.993723 26.877187 
L 509.993723 359.517187 
z
" clip-path="url(#p48be8d9c9d)" style="fill: #add8e6; stroke: #add8e6; stroke-linejoin: miter"/>
   </g>
   <g id="patch_56">
    <path d="M 525.496472 359.517187 
L 525.496472 26.877187 
L 515.111047 26.877187 
L 515.111047 359.517187 
z
" clip-path="url(#p48be8d9c9d)" style="fill: #add8e6; stroke: #add8e6; stroke-linejoin: miter"/>
   </g>
   <g id="patch_57">
    <path d="M 542.019806 359.517187 
L 542.019806 26.877187 
L 542.079662 26.877187 
L 542.079662 359.517187 
z
" clip-path="url(#p48be8d9c9d)" style="fill: #add8e6; stroke: #add8e6; stroke-linejoin: miter"/>
   </g>
   <g id="patch_58">
    <path d="M 599.653723 359.517187 
L 599.653723 26.877187 
L 588.998567 26.877187 
L 588.998567 359.517187 
z
" clip-path="url(#p48be8d9c9d)" style="fill: #add8e6; stroke: #add8e6; stroke-linejoin: miter"/>
   </g>
   <g id="patch_59">
    <path d="M 628.984005 359.517187 
L 628.984005 26.877187 
L 629.247676 26.877187 
L 629.247676 359.517187 
z
" clip-path="url(#p48be8d9c9d)" style="fill: #add8e6; stroke: #add8e6; stroke-linejoin: miter"/>
   </g>
   <g id="patch_60">
    <path d="M 629.56211 359.517187 
L 629.56211 26.877187 
L 629.476493 26.877187 
L 629.476493 359.517187 
z
" clip-path="url(#p48be8d9c9d)" style="fill: #add8e6; stroke: #add8e6; stroke-linejoin: miter"/>
   </g>
   <g id="patch_61">
    <path d="M 643.689682 359.517187 
L 643.689682 26.877187 
L 634.330147 26.877187 
L 634.330147 359.517187 
z
" clip-path="url(#p48be8d9c9d)" style="fill: #add8e6; stroke: #add8e6; stroke-linejoin: miter"/>
   </g>
   <g id="patch_62">
    <path d="M 634.561237 359.517187 
L 634.561237 26.877187 
L 635.099942 26.877187 
L 635.099942 359.517187 
z
" clip-path="url(#p48be8d9c9d)" style="fill: #add8e6; stroke: #add8e6; stroke-linejoin: miter"/>
   </g>
   <g id="patch_63">
    <path d="M 668.133731 359.517187 
L 668.133731 26.877187 
L 658.524921 26.877187 
L 658.524921 359.517187 
z
" clip-path="url(#p48be8d9c9d)" style="fill: #add8e6; stroke: #add8e6; stroke-linejoin: miter"/>
   </g>
   <g id="patch_64">
    <path d="M 684.391122 359.517187 
L 684.391122 26.877187 
L 684.738894 26.877187 
L 684.738894 359.517187 
z
" clip-path="url(#p48be8d9c9d)" style="fill: #add8e6; stroke: #add8e6; stroke-linejoin: miter"/>
   </g>
   <g id="patch_65">
    <path d="M 724.624319 359.517187 
L 724.624319 26.877187 
L 712.040885 26.877187 
L 712.040885 359.517187 
z
" clip-path="url(#p48be8d9c9d)" style="fill: #add8e6; stroke: #add8e6; stroke-linejoin: miter"/>
   </g>
   <g id="patch_66">
    <path d="M 712.783405 359.517187 
L 712.783405 26.877187 
L 712.878871 26.877187 
L 712.878871 359.517187 
z
" clip-path="url(#p48be8d9c9d)" style="fill: #add8e6; stroke: #add8e6; stroke-linejoin: miter"/>
   </g>
   <g id="patch_67">
    <path d="M 714.41619 359.517187 
L 714.41619 26.877187 
L 714.67986 26.877187 
L 714.67986 359.517187 
z
" clip-path="url(#p48be8d9c9d)" style="fill: #add8e6; stroke: #add8e6; stroke-linejoin: miter"/>
   </g>
   <g id="patch_68">
    <path d="M 738.616268 359.517187 
L 738.616268 26.877187 
L 738.987528 26.877187 
L 738.987528 359.517187 
z
" clip-path="url(#p48be8d9c9d)" style="fill: #add8e6; stroke: #add8e6; stroke-linejoin: miter"/>
   </g>
   <g id="patch_69">
    <path d="M 752.866583 359.517187 
L 752.866583 26.877187 
L 750.990584 26.877187 
L 750.990584 359.517187 
z
" clip-path="url(#p48be8d9c9d)" style="fill: #add8e6; stroke: #add8e6; stroke-linejoin: miter"/>
   </g>
   <g id="patch_70">
    <path d="M 759.709128 359.517187 
L 759.709128 26.877187 
L 760.191766 26.877187 
L 760.191766 359.517187 
z
" clip-path="url(#p48be8d9c9d)" style="fill: #add8e6; stroke: #add8e6; stroke-linejoin: miter"/>
   </g>
   <g id="patch_71">
    <path d="M 769.930138 359.517187 
L 769.930138 26.877187 
L 770.043789 26.877187 
L 770.043789 359.517187 
z
" clip-path="url(#p48be8d9c9d)" style="fill: #add8e6; stroke: #add8e6; stroke-linejoin: miter"/>
   </g>
   <g id="patch_72">
    <path d="M 771.744007 359.517187 
L 771.744007 26.877187 
L 770.590829 26.877187 
L 770.590829 359.517187 
z
" clip-path="url(#p48be8d9c9d)" style="fill: #add8e6; stroke: #add8e6; stroke-linejoin: miter"/>
   </g>
   <g id="patch_73">
    <path d="M 787.920328 359.517187 
L 787.920328 26.877187 
L 775.333105 26.877187 
L 775.333105 359.517187 
z
" clip-path="url(#p48be8d9c9d)" style="fill: #add8e6; stroke: #add8e6; stroke-linejoin: miter"/>
   </g>
   <g id="patch_74">
    <path d="M 790.757813 359.517187 
L 790.757813 26.877187 
L 779.820045 26.877187 
L 779.820045 359.517187 
z
" clip-path="url(#p48be8d9c9d)" style="fill: #add8e6; stroke: #add8e6; stroke-linejoin: miter"/>
   </g>
   <g id="patch_75">
    <path d="M 780.652727 359.517187 
L 780.652727 26.877187 
L 780.836842 26.877187 
L 780.836842 359.517187 
z
" clip-path="url(#p48be8d9c9d)" style="fill: #add8e6; stroke: #add8e6; stroke-linejoin: miter"/>
   </g>
   <g id="patch_76">
    <path d="M 796.580531 359.517187 
L 796.580531 26.877187 
L 785.285898 26.877187 
L 785.285898 359.517187 
z
" clip-path="url(#p48be8d9c9d)" style="fill: #add8e6; stroke: #add8e6; stroke-linejoin: miter"/>
   </g>
   <g id="patch_77">
    <path d="M 792.485308 359.517187 
L 792.485308 26.877187 
L 793.115692 26.877187 
L 793.115692 359.517187 
z
" clip-path="url(#p48be8d9c9d)" style="fill: #add8e6; stroke: #add8e6; stroke-linejoin: miter"/>
   </g>
   <g id="patch_78">
    <path d="M 839.798203 359.517187 
L 839.798203 26.877187 
L 827.777719 26.877187 
L 827.777719 359.517187 
z
" clip-path="url(#p48be8d9c9d)" style="fill: #add8e6; stroke: #add8e6; stroke-linejoin: miter"/>
   </g>
   <g id="patch_79">
    <path d="M 832.67153 359.517187 
L 832.67153 26.877187 
L 832.175254 26.877187 
L 832.175254 359.517187 
z
" clip-path="url(#p48be8d9c9d)" style="fill: #add8e6; stroke: #add8e6; stroke-linejoin: miter"/>
   </g>
   <g id="patch_80">
    <path d="M 832.538179 359.517187 
L 832.538179 26.877187 
L 832.271478 26.877187 
L 832.271478 359.517187 
z
" clip-path="url(#p48be8d9c9d)" style="fill: #add8e6; stroke: #add8e6; stroke-linejoin: miter"/>
   </g>
   <g id="patch_81">
    <path d="M 888.399142 359.517187 
L 888.399142 26.877187 
L 875.805858 26.877187 
L 875.805858 359.517187 
z
" clip-path="url(#p48be8d9c9d)" style="fill: #add8e6; stroke: #add8e6; stroke-linejoin: miter"/>
   </g>
   <g id="patch_82">
    <path d="M 903.612459 359.517187 
L 903.612459 26.877187 
L 904.37089 26.877187 
L 904.37089 359.517187 
z
" clip-path="url(#p48be8d9c9d)" style="fill: #add8e6; stroke: #add8e6; stroke-linejoin: miter"/>
   </g>
   <g id="patch_83">
    <path d="M 906.511316 359.517187 
L 906.511316 26.877187 
L 905.161143 26.877187 
L 905.161143 359.517187 
z
" clip-path="url(#p48be8d9c9d)" style="fill: #add8e6; stroke: #add8e6; stroke-linejoin: miter"/>
   </g>
   <g id="patch_84">
    <path d="M 911.90216 359.517187 
L 911.90216 26.877187 
L 911.809724 26.877187 
L 911.809724 359.517187 
z
" clip-path="url(#p48be8d9c9d)" style="fill: #add8e6; stroke: #add8e6; stroke-linejoin: miter"/>
   </g>
   <g id="patch_85">
    <path d="M 930.116621 359.517187 
L 930.116621 26.877187 
L 930.137078 26.877187 
L 930.137078 359.517187 
z
" clip-path="url(#p48be8d9c9d)" style="fill: #add8e6; stroke: #add8e6; stroke-linejoin: miter"/>
   </g>
   <g id="patch_86">
    <path d="M 946.469479 359.517187 
L 946.469479 26.877187 
L 946.999092 26.877187 
L 946.999092 359.517187 
z
" clip-path="url(#p48be8d9c9d)" style="fill: #add8e6; stroke: #add8e6; stroke-linejoin: miter"/>
   </g>
   <g id="patch_87">
    <path d="M 947.490064 359.517187 
L 947.490064 26.877187 
L 947.192299 26.877187 
L 947.192299 359.517187 
z
" clip-path="url(#p48be8d9c9d)" style="fill: #add8e6; stroke: #add8e6; stroke-linejoin: miter"/>
   </g>
   <g id="patch_88">
    <path d="M 1003.420733 359.517187 
L 1003.420733 26.877187 
L 1003.40861 26.877187 
L 1003.40861 359.517187 
z
" clip-path="url(#p48be8d9c9d)" style="fill: #add8e6; stroke: #add8e6; stroke-linejoin: miter"/>
   </g>
   <g id="patch_89">
    <path d="M 1031.888783 359.517187 
L 1031.888783 26.877187 
L 1030.953057 26.877187 
L 1030.953057 359.517187 
z
" clip-path="url(#p48be8d9c9d)" style="fill: #add8e6; stroke: #add8e6; stroke-linejoin: miter"/>
   </g>
   <g id="patch_90">
    <path d="M 1031.269764 359.517187 
L 1031.269764 26.877187 
L 1030.992456 26.877187 
L 1030.992456 359.517187 
z
" clip-path="url(#p48be8d9c9d)" style="fill: #add8e6; stroke: #add8e6; stroke-linejoin: miter"/>
   </g>
   <g id="patch_91">
    <path d="M 1058.082298 359.517187 
L 1058.082298 26.877187 
L 1057.737557 26.877187 
L 1057.737557 359.517187 
z
" clip-path="url(#p48be8d9c9d)" style="fill: #add8e6; stroke: #add8e6; stroke-linejoin: miter"/>
   </g>
   <g id="patch_92">
    <path d="M 1058.028504 359.517187 
L 1058.028504 26.877187 
L 1057.936068 26.877187 
L 1057.936068 359.517187 
z
" clip-path="url(#p48be8d9c9d)" style="fill: #add8e6; stroke: #add8e6; stroke-linejoin: miter"/>
   </g>
   <g id="patch_93">
    <path d="M 1058.191403 359.517187 
L 1058.191403 26.877187 
L 1058.253533 26.877187 
L 1058.253533 359.517187 
z
" clip-path="url(#p48be8d9c9d)" style="fill: #add8e6; stroke: #add8e6; stroke-linejoin: miter"/>
   </g>
   <g id="patch_94">
    <path d="M 1094.448333 359.517187 
L 1094.448333 26.877187 
L 1082.280861 26.877187 
L 1082.280861 359.517187 
z
" clip-path="url(#p48be8d9c9d)" style="fill: #add8e6; stroke: #add8e6; stroke-linejoin: miter"/>
   </g>
   <g id="patch_95">
    <path d="M 1114.507727 359.517187 
L 1114.507727 26.877187 
L 1101.604555 26.877187 
L 1101.604555 359.517187 
z
" clip-path="url(#p48be8d9c9d)" style="fill: #add8e6; stroke: #add8e6; stroke-linejoin: miter"/>
   </g>
   <g id="patch_96">
    <path d="M 222.70531 359.517187 
L 222.70531 26.877187 
L 386.362693 26.877187 
L 386.362693 359.517187 
z
" clip-path="url(#p48be8d9c9d)" style="fill: #808080; opacity: 0.4; stroke: #808080; stroke-linejoin: miter"/>
   </g>
   <g id="patch_97">
    <path d="M 550.020076 359.517187 
L 550.020076 26.877187 
L 713.677459 26.877187 
L 713.677459 359.517187 
z
" clip-path="url(#p48be8d9c9d)" style="fill: #808080; opacity: 0.4; stroke: #808080; stroke-linejoin: miter"/>
   </g>
   <g id="patch_98">
    <path d="M 877.334842 359.517187 
L 877.334842 26.877187 
L 1040.992225 26.877187 
L 1040.992225 359.517187 
z
" clip-path="url(#p48be8d9c9d)" style="fill: #808080; opacity: 0.4; stroke: #808080; stroke-linejoin: miter"/>
   </g>
   <g id="matplotlib.axis_1">
    <g id="xtick_1">
     <g id="line2d_1">
      <defs>
       <path id="m83e22c44de" d="M 0 0 
L 0 3.5 
" style="stroke: #000000; stroke-width: 0.8"/>
      </defs>
      <g>
       <use xlink:href="#m83e22c44de" x="125.912575" y="359.517187" style="stroke: #000000; stroke-width: 0.8"/>
      </g>
     </g>
     <g id="text_1">
      <!-- 12-13 12 -->
      <g transform="translate(103.432107 374.115625) scale(0.1 -0.1)">
       <defs>
        <path id="DejaVuSans-31" d="M 794 531 
L 1825 531 
L 1825 4091 
L 703 3866 
L 703 4441 
L 1819 4666 
L 2450 4666 
L 2450 531 
L 3481 531 
L 3481 0 
L 794 0 
L 794 531 
z
" transform="scale(0.015625)"/>
        <path id="DejaVuSans-32" d="M 1228 531 
L 3431 531 
L 3431 0 
L 469 0 
L 469 531 
Q 828 903 1448 1529 
Q 2069 2156 2228 2338 
Q 2531 2678 2651 2914 
Q 2772 3150 2772 3378 
Q 2772 3750 2511 3984 
Q 2250 4219 1831 4219 
Q 1534 4219 1204 4116 
Q 875 4013 500 3803 
L 500 4441 
Q 881 4594 1212 4672 
Q 1544 4750 1819 4750 
Q 2544 4750 2975 4387 
Q 3406 4025 3406 3419 
Q 3406 3131 3298 2873 
Q 3191 2616 2906 2266 
Q 2828 2175 2409 1742 
Q 1991 1309 1228 531 
z
" transform="scale(0.015625)"/>
        <path id="DejaVuSans-2d" d="M 313 2009 
L 1997 2009 
L 1997 1497 
L 313 1497 
L 313 2009 
z
" transform="scale(0.015625)"/>
        <path id="DejaVuSans-33" d="M 2597 2516 
Q 3050 2419 3304 2112 
Q 3559 1806 3559 1356 
Q 3559 666 3084 287 
Q 2609 -91 1734 -91 
Q 1441 -91 1130 -33 
Q 819 25 488 141 
L 488 750 
Q 750 597 1062 519 
Q 1375 441 1716 441 
Q 2309 441 2620 675 
Q 2931 909 2931 1356 
Q 2931 1769 2642 2001 
Q 2353 2234 1838 2234 
L 1294 2234 
L 1294 2753 
L 1863 2753 
Q 2328 2753 2575 2939 
Q 2822 3125 2822 3475 
Q 2822 3834 2567 4026 
Q 2313 4219 1838 4219 
Q 1578 4219 1281 4162 
Q 984 4106 628 3988 
L 628 4550 
Q 988 4650 1302 4700 
Q 1616 4750 1894 4750 
Q 2613 4750 3031 4423 
Q 3450 4097 3450 3541 
Q 3450 3153 3228 2886 
Q 3006 2619 2597 2516 
z
" transform="scale(0.015625)"/>
        <path id="DejaVuSans-20" transform="scale(0.015625)"/>
       </defs>
       <use xlink:href="#DejaVuSans-31"/>
       <use xlink:href="#DejaVuSans-32" x="63.623047"/>
       <use xlink:href="#DejaVuSans-2d" x="127.246094"/>
       <use xlink:href="#DejaVuSans-31" x="163.330078"/>
       <use xlink:href="#DejaVuSans-33" x="226.953125"/>
       <use xlink:href="#DejaVuSans-20" x="290.576172"/>
       <use xlink:href="#DejaVuSans-31" x="322.363281"/>
       <use xlink:href="#DejaVuSans-32" x="385.986328"/>
      </g>
     </g>
    </g>
    <g id="xtick_2">
     <g id="line2d_2">
      <g>
       <use xlink:href="#m83e22c44de" x="289.569958" y="359.517187" style="stroke: #000000; stroke-width: 0.8"/>
      </g>
     </g>
     <g id="text_2">
      <!-- 12-14 00 -->
      <g transform="translate(267.08949 374.115625) scale(0.1 -0.1)">
       <defs>
        <path id="DejaVuSans-34" d="M 2419 4116 
L 825 1625 
L 2419 1625 
L 2419 4116 
z
M 2253 4666 
L 3047 4666 
L 3047 1625 
L 3713 1625 
L 3713 1100 
L 3047 1100 
L 3047 0 
L 2419 0 
L 2419 1100 
L 313 1100 
L 313 1709 
L 2253 4666 
z
" transform="scale(0.015625)"/>
        <path id="DejaVuSans-30" d="M 2034 4250 
Q 1547 4250 1301 3770 
Q 1056 3291 1056 2328 
Q 1056 1369 1301 889 
Q 1547 409 2034 409 
Q 2525 409 2770 889 
Q 3016 1369 3016 2328 
Q 3016 3291 2770 3770 
Q 2525 4250 2034 4250 
z
M 2034 4750 
Q 2819 4750 3233 4129 
Q 3647 3509 3647 2328 
Q 3647 1150 3233 529 
Q 2819 -91 2034 -91 
Q 1250 -91 836 529 
Q 422 1150 422 2328 
Q 422 3509 836 4129 
Q 1250 4750 2034 4750 
z
" transform="scale(0.015625)"/>
       </defs>
       <use xlink:href="#DejaVuSans-31"/>
       <use xlink:href="#DejaVuSans-32" x="63.623047"/>
       <use xlink:href="#DejaVuSans-2d" x="127.246094"/>
       <use xlink:href="#DejaVuSans-31" x="163.330078"/>
       <use xlink:href="#DejaVuSans-34" x="226.953125"/>
       <use xlink:href="#DejaVuSans-20" x="290.576172"/>
       <use xlink:href="#DejaVuSans-30" x="322.363281"/>
       <use xlink:href="#DejaVuSans-30" x="385.986328"/>
      </g>
     </g>
    </g>
    <g id="xtick_3">
     <g id="line2d_3">
      <g>
       <use xlink:href="#m83e22c44de" x="453.227341" y="359.517187" style="stroke: #000000; stroke-width: 0.8"/>
      </g>
     </g>
     <g id="text_3">
      <!-- 12-14 12 -->
      <g transform="translate(430.746873 374.115625) scale(0.1 -0.1)">
       <use xlink:href="#DejaVuSans-31"/>
       <use xlink:href="#DejaVuSans-32" x="63.623047"/>
       <use xlink:href="#DejaVuSans-2d" x="127.246094"/>
       <use xlink:href="#DejaVuSans-31" x="163.330078"/>
       <use xlink:href="#DejaVuSans-34" x="226.953125"/>
       <use xlink:href="#DejaVuSans-20" x="290.576172"/>
       <use xlink:href="#DejaVuSans-31" x="322.363281"/>
       <use xlink:href="#DejaVuSans-32" x="385.986328"/>
      </g>
     </g>
    </g>
    <g id="xtick_4">
     <g id="line2d_4">
      <g>
       <use xlink:href="#m83e22c44de" x="616.884724" y="359.517187" style="stroke: #000000; stroke-width: 0.8"/>
      </g>
     </g>
     <g id="text_4">
      <!-- 12-15 00 -->
      <g transform="translate(594.404255 374.115625) scale(0.1 -0.1)">
       <defs>
        <path id="DejaVuSans-35" d="M 691 4666 
L 3169 4666 
L 3169 4134 
L 1269 4134 
L 1269 2991 
Q 1406 3038 1543 3061 
Q 1681 3084 1819 3084 
Q 2600 3084 3056 2656 
Q 3513 2228 3513 1497 
Q 3513 744 3044 326 
Q 2575 -91 1722 -91 
Q 1428 -91 1123 -41 
Q 819 9 494 109 
L 494 744 
Q 775 591 1075 516 
Q 1375 441 1709 441 
Q 2250 441 2565 725 
Q 2881 1009 2881 1497 
Q 2881 1984 2565 2268 
Q 2250 2553 1709 2553 
Q 1456 2553 1204 2497 
Q 953 2441 691 2322 
L 691 4666 
z
" transform="scale(0.015625)"/>
       </defs>
       <use xlink:href="#DejaVuSans-31"/>
       <use xlink:href="#DejaVuSans-32" x="63.623047"/>
       <use xlink:href="#DejaVuSans-2d" x="127.246094"/>
       <use xlink:href="#DejaVuSans-31" x="163.330078"/>
       <use xlink:href="#DejaVuSans-35" x="226.953125"/>
       <use xlink:href="#DejaVuSans-20" x="290.576172"/>
       <use xlink:href="#DejaVuSans-30" x="322.363281"/>
       <use xlink:href="#DejaVuSans-30" x="385.986328"/>
      </g>
     </g>
    </g>
    <g id="xtick_5">
     <g id="line2d_5">
      <g>
       <use xlink:href="#m83e22c44de" x="780.542107" y="359.517187" style="stroke: #000000; stroke-width: 0.8"/>
      </g>
     </g>
     <g id="text_5">
      <!-- 12-15 12 -->
      <g transform="translate(758.061638 374.115625) scale(0.1 -0.1)">
       <use xlink:href="#DejaVuSans-31"/>
       <use xlink:href="#DejaVuSans-32" x="63.623047"/>
       <use xlink:href="#DejaVuSans-2d" x="127.246094"/>
       <use xlink:href="#DejaVuSans-31" x="163.330078"/>
       <use xlink:href="#DejaVuSans-35" x="226.953125"/>
       <use xlink:href="#DejaVuSans-20" x="290.576172"/>
       <use xlink:href="#DejaVuSans-31" x="322.363281"/>
       <use xlink:href="#DejaVuSans-32" x="385.986328"/>
      </g>
     </g>
    </g>
    <g id="xtick_6">
     <g id="line2d_6">
      <g>
       <use xlink:href="#m83e22c44de" x="944.19949" y="359.517187" style="stroke: #000000; stroke-width: 0.8"/>
      </g>
     </g>
     <g id="text_6">
      <!-- 12-16 00 -->
      <g transform="translate(921.719021 374.115625) scale(0.1 -0.1)">
       <defs>
        <path id="DejaVuSans-36" d="M 2113 2584 
Q 1688 2584 1439 2293 
Q 1191 2003 1191 1497 
Q 1191 994 1439 701 
Q 1688 409 2113 409 
Q 2538 409 2786 701 
Q 3034 994 3034 1497 
Q 3034 2003 2786 2293 
Q 2538 2584 2113 2584 
z
M 3366 4563 
L 3366 3988 
Q 3128 4100 2886 4159 
Q 2644 4219 2406 4219 
Q 1781 4219 1451 3797 
Q 1122 3375 1075 2522 
Q 1259 2794 1537 2939 
Q 1816 3084 2150 3084 
Q 2853 3084 3261 2657 
Q 3669 2231 3669 1497 
Q 3669 778 3244 343 
Q 2819 -91 2113 -91 
Q 1303 -91 875 529 
Q 447 1150 447 2328 
Q 447 3434 972 4092 
Q 1497 4750 2381 4750 
Q 2619 4750 2861 4703 
Q 3103 4656 3366 4563 
z
" transform="scale(0.015625)"/>
       </defs>
       <use xlink:href="#DejaVuSans-31"/>
       <use xlink:href="#DejaVuSans-32" x="63.623047"/>
       <use xlink:href="#DejaVuSans-2d" x="127.246094"/>
       <use xlink:href="#DejaVuSans-31" x="163.330078"/>
       <use xlink:href="#DejaVuSans-36" x="226.953125"/>
       <use xlink:href="#DejaVuSans-20" x="290.576172"/>
       <use xlink:href="#DejaVuSans-30" x="322.363281"/>
       <use xlink:href="#DejaVuSans-30" x="385.986328"/>
      </g>
     </g>
    </g>
    <g id="xtick_7">
     <g id="line2d_7">
      <g>
       <use xlink:href="#m83e22c44de" x="1107.856873" y="359.517187" style="stroke: #000000; stroke-width: 0.8"/>
      </g>
     </g>
     <g id="text_7">
      <!-- 12-16 12 -->
      <g transform="translate(1085.376404 374.115625) scale(0.1 -0.1)">
       <use xlink:href="#DejaVuSans-31"/>
       <use xlink:href="#DejaVuSans-32" x="63.623047"/>
       <use xlink:href="#DejaVuSans-2d" x="127.246094"/>
       <use xlink:href="#DejaVuSans-31" x="163.330078"/>
       <use xlink:href="#DejaVuSans-36" x="226.953125"/>
       <use xlink:href="#DejaVuSans-20" x="290.576172"/>
       <use xlink:href="#DejaVuSans-31" x="322.363281"/>
       <use xlink:href="#DejaVuSans-32" x="385.986328"/>
      </g>
     </g>
    </g>
    <g id="text_8">
     <!-- Time -->
     <g transform="translate(592.554688 389.313437) scale(0.12 -0.12)">
      <defs>
       <path id="DejaVuSans-54" d="M -19 4666 
L 3928 4666 
L 3928 4134 
L 2272 4134 
L 2272 0 
L 1638 0 
L 1638 4134 
L -19 4134 
L -19 4666 
z
" transform="scale(0.015625)"/>
       <path id="DejaVuSans-69" d="M 603 3500 
L 1178 3500 
L 1178 0 
L 603 0 
L 603 3500 
z
M 603 4863 
L 1178 4863 
L 1178 4134 
L 603 4134 
L 603 4863 
z
" transform="scale(0.015625)"/>
       <path id="DejaVuSans-6d" d="M 3328 2828 
Q 3544 3216 3844 3400 
Q 4144 3584 4550 3584 
Q 5097 3584 5394 3201 
Q 5691 2819 5691 2113 
L 5691 0 
L 5113 0 
L 5113 2094 
Q 5113 2597 4934 2840 
Q 4756 3084 4391 3084 
Q 3944 3084 3684 2787 
Q 3425 2491 3425 1978 
L 3425 0 
L 2847 0 
L 2847 2094 
Q 2847 2600 2669 2842 
Q 2491 3084 2119 3084 
Q 1678 3084 1418 2786 
Q 1159 2488 1159 1978 
L 1159 0 
L 581 0 
L 581 3500 
L 1159 3500 
L 1159 2956 
Q 1356 3278 1631 3431 
Q 1906 3584 2284 3584 
Q 2666 3584 2933 3390 
Q 3200 3197 3328 2828 
z
" transform="scale(0.015625)"/>
       <path id="DejaVuSans-65" d="M 3597 1894 
L 3597 1613 
L 953 1613 
Q 991 1019 1311 708 
Q 1631 397 2203 397 
Q 2534 397 2845 478 
Q 3156 559 3463 722 
L 3463 178 
Q 3153 47 2828 -22 
Q 2503 -91 2169 -91 
Q 1331 -91 842 396 
Q 353 884 353 1716 
Q 353 2575 817 3079 
Q 1281 3584 2069 3584 
Q 2775 3584 3186 3129 
Q 3597 2675 3597 1894 
z
M 3022 2063 
Q 3016 2534 2758 2815 
Q 2500 3097 2075 3097 
Q 1594 3097 1305 2825 
Q 1016 2553 972 2059 
L 3022 2063 
z
" transform="scale(0.015625)"/>
      </defs>
      <use xlink:href="#DejaVuSans-54"/>
      <use xlink:href="#DejaVuSans-69" x="57.958984"/>
      <use xlink:href="#DejaVuSans-6d" x="85.742188"/>
      <use xlink:href="#DejaVuSans-65" x="183.154297"/>
     </g>
    </g>
   </g>
   <g id="matplotlib.axis_2">
    <g id="ytick_1">
     <g id="line2d_8">
      <defs>
       <path id="md452603ee7" d="M 0 0 
L -3.5 0 
" style="stroke: #000000; stroke-width: 0.8"/>
      </defs>
      <g>
       <use xlink:href="#md452603ee7" x="49.235" y="344.397187" style="stroke: #000000; stroke-width: 0.8"/>
      </g>
     </g>
     <g id="text_9">
      <!-- 0 -->
      <g transform="translate(35.8725 348.196406) scale(0.1 -0.1)">
       <use xlink:href="#DejaVuSans-30"/>
      </g>
     </g>
    </g>
    <g id="ytick_2">
     <g id="line2d_9">
      <g>
       <use xlink:href="#md452603ee7" x="49.235" y="290.008698" style="stroke: #000000; stroke-width: 0.8"/>
      </g>
     </g>
     <g id="text_10">
      <!-- 100 -->
      <g transform="translate(23.1475 293.807917) scale(0.1 -0.1)">
       <use xlink:href="#DejaVuSans-31"/>
       <use xlink:href="#DejaVuSans-30" x="63.623047"/>
       <use xlink:href="#DejaVuSans-30" x="127.246094"/>
      </g>
     </g>
    </g>
    <g id="ytick_3">
     <g id="line2d_10">
      <g>
       <use xlink:href="#md452603ee7" x="49.235" y="235.620209" style="stroke: #000000; stroke-width: 0.8"/>
      </g>
     </g>
     <g id="text_11">
      <!-- 200 -->
      <g transform="translate(23.1475 239.419428) scale(0.1 -0.1)">
       <use xlink:href="#DejaVuSans-32"/>
       <use xlink:href="#DejaVuSans-30" x="63.623047"/>
       <use xlink:href="#DejaVuSans-30" x="127.246094"/>
      </g>
     </g>
    </g>
    <g id="ytick_4">
     <g id="line2d_11">
      <g>
       <use xlink:href="#md452603ee7" x="49.235" y="181.23172" style="stroke: #000000; stroke-width: 0.8"/>
      </g>
     </g>
     <g id="text_12">
      <!-- 300 -->
      <g transform="translate(23.1475 185.030939) scale(0.1 -0.1)">
       <use xlink:href="#DejaVuSans-33"/>
       <use xlink:href="#DejaVuSans-30" x="63.623047"/>
       <use xlink:href="#DejaVuSans-30" x="127.246094"/>
      </g>
     </g>
    </g>
    <g id="ytick_5">
     <g id="line2d_12">
      <g>
       <use xlink:href="#md452603ee7" x="49.235" y="126.843231" style="stroke: #000000; stroke-width: 0.8"/>
      </g>
     </g>
     <g id="text_13">
      <!-- 400 -->
      <g transform="translate(23.1475 130.642449) scale(0.1 -0.1)">
       <use xlink:href="#DejaVuSans-34"/>
       <use xlink:href="#DejaVuSans-30" x="63.623047"/>
       <use xlink:href="#DejaVuSans-30" x="127.246094"/>
      </g>
     </g>
    </g>
    <g id="ytick_6">
     <g id="line2d_13">
      <g>
       <use xlink:href="#md452603ee7" x="49.235" y="72.454741" style="stroke: #000000; stroke-width: 0.8"/>
      </g>
     </g>
     <g id="text_14">
      <!-- 500 -->
      <g transform="translate(23.1475 76.25396) scale(0.1 -0.1)">
       <use xlink:href="#DejaVuSans-35"/>
       <use xlink:href="#DejaVuSans-30" x="63.623047"/>
       <use xlink:href="#DejaVuSans-30" x="127.246094"/>
      </g>
     </g>
    </g>
    <g id="text_15">
     <!-- Pellet_Count -->
     <g transform="translate(16.318125 230.485312) rotate(-90) scale(0.12 -0.12)">
      <defs>
       <path id="DejaVuSans-50" d="M 1259 4147 
L 1259 2394 
L 2053 2394 
Q 2494 2394 2734 2622 
Q 2975 2850 2975 3272 
Q 2975 3691 2734 3919 
Q 2494 4147 2053 4147 
L 1259 4147 
z
M 628 4666 
L 2053 4666 
Q 2838 4666 3239 4311 
Q 3641 3956 3641 3272 
Q 3641 2581 3239 2228 
Q 2838 1875 2053 1875 
L 1259 1875 
L 1259 0 
L 628 0 
L 628 4666 
z
" transform="scale(0.015625)"/>
       <path id="DejaVuSans-6c" d="M 603 4863 
L 1178 4863 
L 1178 0 
L 603 0 
L 603 4863 
z
" transform="scale(0.015625)"/>
       <path id="DejaVuSans-74" d="M 1172 4494 
L 1172 3500 
L 2356 3500 
L 2356 3053 
L 1172 3053 
L 1172 1153 
Q 1172 725 1289 603 
Q 1406 481 1766 481 
L 2356 481 
L 2356 0 
L 1766 0 
Q 1100 0 847 248 
Q 594 497 594 1153 
L 594 3053 
L 172 3053 
L 172 3500 
L 594 3500 
L 594 4494 
L 1172 4494 
z
" transform="scale(0.015625)"/>
       <path id="DejaVuSans-5f" d="M 3263 -1063 
L 3263 -1509 
L -63 -1509 
L -63 -1063 
L 3263 -1063 
z
" transform="scale(0.015625)"/>
       <path id="DejaVuSans-43" d="M 4122 4306 
L 4122 3641 
Q 3803 3938 3442 4084 
Q 3081 4231 2675 4231 
Q 1875 4231 1450 3742 
Q 1025 3253 1025 2328 
Q 1025 1406 1450 917 
Q 1875 428 2675 428 
Q 3081 428 3442 575 
Q 3803 722 4122 1019 
L 4122 359 
Q 3791 134 3420 21 
Q 3050 -91 2638 -91 
Q 1578 -91 968 557 
Q 359 1206 359 2328 
Q 359 3453 968 4101 
Q 1578 4750 2638 4750 
Q 3056 4750 3426 4639 
Q 3797 4528 4122 4306 
z
" transform="scale(0.015625)"/>
       <path id="DejaVuSans-6f" d="M 1959 3097 
Q 1497 3097 1228 2736 
Q 959 2375 959 1747 
Q 959 1119 1226 758 
Q 1494 397 1959 397 
Q 2419 397 2687 759 
Q 2956 1122 2956 1747 
Q 2956 2369 2687 2733 
Q 2419 3097 1959 3097 
z
M 1959 3584 
Q 2709 3584 3137 3096 
Q 3566 2609 3566 1747 
Q 3566 888 3137 398 
Q 2709 -91 1959 -91 
Q 1206 -91 779 398 
Q 353 888 353 1747 
Q 353 2609 779 3096 
Q 1206 3584 1959 3584 
z
" transform="scale(0.015625)"/>
       <path id="DejaVuSans-75" d="M 544 1381 
L 544 3500 
L 1119 3500 
L 1119 1403 
Q 1119 906 1312 657 
Q 1506 409 1894 409 
Q 2359 409 2629 706 
Q 2900 1003 2900 1516 
L 2900 3500 
L 3475 3500 
L 3475 0 
L 2900 0 
L 2900 538 
Q 2691 219 2414 64 
Q 2138 -91 1772 -91 
Q 1169 -91 856 284 
Q 544 659 544 1381 
z
M 1991 3584 
L 1991 3584 
z
" transform="scale(0.015625)"/>
       <path id="DejaVuSans-6e" d="M 3513 2113 
L 3513 0 
L 2938 0 
L 2938 2094 
Q 2938 2591 2744 2837 
Q 2550 3084 2163 3084 
Q 1697 3084 1428 2787 
Q 1159 2491 1159 1978 
L 1159 0 
L 581 0 
L 581 3500 
L 1159 3500 
L 1159 2956 
Q 1366 3272 1645 3428 
Q 1925 3584 2291 3584 
Q 2894 3584 3203 3211 
Q 3513 2838 3513 2113 
z
" transform="scale(0.015625)"/>
      </defs>
      <use xlink:href="#DejaVuSans-50"/>
      <use xlink:href="#DejaVuSans-65" x="56.677734"/>
      <use xlink:href="#DejaVuSans-6c" x="118.201172"/>
      <use xlink:href="#DejaVuSans-6c" x="145.984375"/>
      <use xlink:href="#DejaVuSans-65" x="173.767578"/>
      <use xlink:href="#DejaVuSans-74" x="235.291016"/>
      <use xlink:href="#DejaVuSans-5f" x="274.5"/>
      <use xlink:href="#DejaVuSans-43" x="324.5"/>
      <use xlink:href="#DejaVuSans-6f" x="394.324219"/>
      <use xlink:href="#DejaVuSans-75" x="455.505859"/>
      <use xlink:href="#DejaVuSans-6e" x="518.884766"/>
      <use xlink:href="#DejaVuSans-74" x="582.263672"/>
     </g>
    </g>
   </g>
   <g id="line2d_14">
    <path d="M 99.962273 344.397187 
L 99.985003 343.853303 
L 103.242997 343.853303 
L 103.277092 343.309418 
L 116.547736 343.309418 
L 116.555313 342.765533 
L 116.843229 342.765533 
L 116.854594 342.221648 
L 123.359217 342.221648 
L 123.465291 341.677763 
L 123.965356 341.677763 
L 123.999451 341.133878 
L 124.272213 341.133878 
L 124.291155 340.589993 
L 125.708004 340.589993 
L 125.730734 340.046108 
L 126.011073 340.046108 
L 126.026226 339.502223 
L 126.22701 339.502223 
L 126.24974 338.958339 
L 126.594481 338.958339 
L 126.68919 337.870569 
L 126.780111 337.870569 
L 126.791476 337.326684 
L 131.011715 337.326684 
L 131.019292 336.782799 
L 131.144308 336.782799 
L 131.261747 335.695029 
L 131.329938 335.695029 
L 131.345091 335.151144 
L 131.807272 335.151144 
L 131.818637 334.607259 
L 132.364162 334.607259 
L 132.477812 333.51949 
L 133.383232 333.51949 
L 134.193942 332.975605 
L 134.212884 332.43172 
L 134.652334 332.43172 
L 134.667488 331.887835 
L 135.000864 331.887835 
L 135.220589 331.34395 
L 135.838093 331.34395 
L 135.845669 330.800065 
L 136.645014 330.800065 
L 137.307978 330.25618 
L 138.175514 330.25618 
L 138.179302 329.712295 
L 139.312024 329.712295 
L 139.315812 329.168411 
L 139.448405 329.168411 
L 139.452193 328.624526 
L 139.687072 328.624526 
L 139.808299 327.536756 
L 140.372766 327.536756 
L 140.387919 326.992871 
L 141.134227 326.992871 
L 141.342587 326.448986 
L 143.354209 326.448986 
L 143.357998 325.905101 
L 143.505744 325.905101 
L 143.626972 324.817331 
L 144.490719 324.817331 
L 144.699079 324.273446 
L 145.191567 324.273446 
L 145.64617 323.729562 
L 146.794045 323.729562 
L 146.801622 323.185677 
L 146.941791 323.185677 
L 147.059231 322.641792 
L 147.40776 322.641792 
L 147.411549 322.097907 
L 148.642767 322.097907 
L 148.786725 321.010137 
L 149.025392 321.010137 
L 149.029181 320.466252 
L 149.949753 320.466252 
L 149.95733 319.922367 
L 150.881691 319.922367 
L 150.896845 319.378482 
L 151.453735 319.378482 
L 151.461311 318.834598 
L 151.65073 318.834598 
L 151.756804 318.290713 
L 152.347789 318.290713 
L 152.90089 317.746828 
L 154.0374 317.746828 
L 154.151051 317.202943 
L 154.423813 317.202943 
L 154.435178 316.659058 
L 154.598078 316.659058 
L 154.711729 316.115173 
L 154.829168 315.571288 
L 154.923877 315.027403 
L 155.26483 315.027403 
L 155.276195 314.483518 
L 155.61336 314.483518 
L 156.07554 313.939634 
L 157.174166 313.939634 
L 157.306759 312.851864 
L 159.500223 312.851864 
L 159.500223 312.307979 
L 159.875271 312.307979 
L 159.99271 311.220209 
L 160.068477 311.220209 
L 160.148033 310.132439 
L 160.295779 310.132439 
L 160.307144 309.588554 
L 165.175194 309.588554 
L 165.182771 309.04467 
L 165.349459 309.04467 
L 165.447956 307.9569 
L 165.618433 307.9569 
L 165.735872 306.86913 
L 165.819216 306.86913 
L 165.944232 305.78136 
L 166.023788 305.78136 
L 166.118497 304.69359 
L 166.205629 304.69359 
L 166.311703 304.149705 
L 168.046775 304.149705 
L 168.054351 303.605821 
L 175.441664 303.605821 
L 175.52122 303.061936 
L 176.059167 303.061936 
L 176.066744 302.518051 
L 176.19176 302.518051 
L 176.297834 301.430281 
L 177.798027 301.430281 
L 178.173075 300.886396 
L 178.873923 300.886396 
L 178.964844 299.798626 
L 179.294431 299.798626 
L 179.294431 299.798626 
L 179.404294 299.254741 
L 179.904358 299.254741 
L 180.313502 298.710857 
L 180.389269 298.710857 
L 180.89691 298.166972 
L 180.923429 297.623087 
L 181.158307 297.623087 
L 181.165884 297.079202 
L 185.094419 297.079202 
L 185.219435 295.447547 
L 185.340663 295.447547 
L 185.431583 294.359777 
L 185.556599 294.359777 
L 185.651308 293.815893 
L 188.394085 293.815893 
L 188.477429 292.184238 
L 188.598657 292.184238 
L 188.606233 291.640353 
L 188.82217 291.640353 
L 188.829747 291.096468 
L 188.96234 291.096468 
L 189.068414 290.552583 
L 191.042152 290.552583 
L 191.451296 290.008698 
L 199.331096 290.008698 
L 199.361403 288.920929 
L 199.467477 288.920929 
L 199.588705 288.377044 
L 199.641742 288.377044 
L 199.653107 287.833159 
L 199.781911 287.833159 
L 199.834948 287.289274 
L 200.096346 287.289274 
L 200.103922 286.745389 
L 200.278187 286.745389 
L 200.285764 286.201504 
L 201.482887 286.201504 
L 201.494252 285.657619 
L 201.664729 285.657619 
L 201.797322 284.569849 
L 217.011397 284.569849 
L 217.018974 284.025964 
L 217.231122 284.025964 
L 217.238699 283.48208 
L 217.431905 283.48208 
L 217.553133 282.39431 
L 217.644054 281.850425 
L 220.655804 281.850425 
L 220.746725 281.30654 
L 221.599107 281.30654 
L 221.705181 280.762655 
L 221.75443 280.762655 
L 221.87187 279.674885 
L 221.887023 279.674885 
L 222.004462 279.131 
L 222.034769 279.131 
L 222.042346 278.587116 
L 222.174939 278.587116 
L 222.258283 277.499346 
L 222.322685 277.499346 
L 222.330262 276.955461 
L 224.065333 276.955461 
L 224.254751 276.411576 
L 225.588256 276.411576 
L 225.588256 276.411576 
L 225.698119 275.867691 
L 226.122415 275.867691 
L 226.334564 275.323806 
L 226.516405 275.323806 
L 227.315751 274.779921 
L 228.096154 274.779921 
L 229.209933 274.236036 
L 232.892224 274.236036 
L 232.899801 273.692152 
L 263.218089 273.692152 
L 263.225666 273.148267 
L 263.365835 273.148267 
L 263.369624 272.604382 
L 263.68027 272.604382 
L 263.695423 272.060497 
L 264.331868 272.060497 
L 264.335657 271.516612 
L 265.191827 271.516612 
L 265.195616 270.972727 
L 265.316843 270.972727 
L 265.320632 270.428842 
L 265.434283 270.428842 
L 265.441859 269.884957 
L 265.654008 269.884957 
L 265.661585 269.341072 
L 267.756551 269.341072 
L 267.775492 268.797187 
L 268.302075 268.797187 
L 268.305864 268.253303 
L 268.889272 268.253303 
L 268.900637 267.709418 
L 269.851517 267.709418 
L 270.408406 267.165533 
L 270.635708 267.165533 
L 270.639497 266.621648 
L 272.026038 266.621648 
L 273.136029 266.077763 
L 299.915984 266.077763 
L 299.938714 265.533878 
L 300.082672 265.533878 
L 300.090249 264.989993 
L 300.256937 264.989993 
L 300.381953 263.902223 
L 300.506969 263.902223 
L 300.514546 263.358339 
L 301.010822 263.358339 
L 301.01461 262.814454 
L 301.241912 262.814454 
L 301.249489 262.270569 
L 325.385164 262.270569 
L 325.392741 261.726684 
L 325.612466 261.726684 
L 325.616255 261.182799 
L 325.737482 261.182799 
L 325.745059 260.638914 
L 325.873863 260.638914 
L 325.930689 259.551144 
L 348.081261 259.551144 
L 348.088838 259.007259 
L 348.372965 259.007259 
L 348.38433 258.463375 
L 348.649516 258.463375 
L 348.660881 257.91949 
L 348.823781 257.91949 
L 348.937432 257.375605 
L 348.990469 257.375605 
L 349.304903 256.83172 
L 350.467931 256.83172 
L 350.475508 256.287835 
L 352.248463 256.287835 
L 352.282558 255.74395 
L 357.146819 255.74395 
L 357.154396 255.200065 
L 359.196325 255.200065 
L 359.313764 254.112295 
L 359.423627 254.112295 
L 359.541066 253.024526 
L 359.635775 253.024526 
L 359.643352 252.480641 
L 359.768368 252.480641 
L 359.775945 251.936756 
L 377.316076 251.936756 
L 377.323653 251.392871 
L 384.203325 251.392871 
L 384.210901 250.848986 
L 384.40032 250.848986 
L 384.407896 250.305101 
L 384.559431 250.305101 
L 384.570796 249.761216 
L 387.692409 249.761216 
L 387.699986 249.217331 
L 388.916051 249.217331 
L 389.025914 248.673446 
L 389.131988 247.585677 
L 389.238062 247.585677 
L 389.249427 247.041792 
L 392.052818 247.041792 
L 392.075548 246.497907 
L 392.443019 246.497907 
L 392.450596 245.954022 
L 392.602131 245.954022 
L 392.681686 244.866252 
L 392.802914 244.866252 
L 392.920353 243.778482 
L 393.450724 243.778482 
L 393.624989 243.234598 
L 406.656966 243.234598 
L 406.664543 242.690713 
L 406.929728 242.690713 
L 406.929728 242.690713 
L 407.035803 241.602943 
L 407.130512 241.602943 
L 407.138088 241.059058 
L 407.27447 241.059058 
L 407.282046 240.515173 
L 407.592692 240.515173 
L 409.664928 239.971288 
L 409.672505 239.427403 
L 410.161204 239.427403 
L 410.619596 238.883518 
L 411.589418 238.883518 
L 412.032656 238.339634 
L 412.142519 237.795749 
L 412.157673 237.251864 
L 412.271324 237.251864 
L 412.275112 236.707979 
L 420.257198 236.707979 
L 420.264774 236.164094 
L 420.776204 236.164094 
L 420.78378 235.620209 
L 420.980775 235.620209 
L 421.102003 235.076324 
L 421.151252 235.076324 
L 421.158829 234.532439 
L 424.178156 234.532439 
L 424.193309 233.988554 
L 427.826352 233.988554 
L 427.83014 233.44467 
L 427.958944 233.44467 
L 427.962733 232.900785 
L 428.076384 232.900785 
L 428.080172 232.3569 
L 428.2014 232.3569 
L 428.315051 231.813015 
L 428.326416 231.813015 
L 428.333993 231.26913 
L 432.228432 231.26913 
L 432.232221 230.725245 
L 432.398909 230.725245 
L 432.542866 229.637475 
L 433.179312 229.637475 
L 433.743778 229.09359 
L 434.281726 229.09359 
L 435.842533 228.549705 
L 436.437306 228.549705 
L 436.550957 228.005821 
L 438.399679 228.005821 
L 439.346771 227.461936 
L 439.422538 227.461936 
L 439.430115 226.918051 
L 447.696328 226.918051 
L 447.791037 225.830281 
L 447.851651 225.830281 
L 447.961513 225.286396 
L 447.995609 225.286396 
L 448.116836 224.198626 
L 448.226699 224.198626 
L 448.306255 223.110857 
L 448.389599 223.110857 
L 448.491885 222.023087 
L 448.817684 222.023087 
L 448.825261 221.479202 
L 453.765289 221.479202 
L 453.890305 220.391432 
L 454.072147 220.391432 
L 454.147914 219.303662 
L 454.242623 219.303662 
L 454.348697 218.215893 
L 458.337846 218.215893 
L 458.462862 217.128123 
L 460.71694 217.128123 
L 460.781342 216.584238 
L 462.736138 216.584238 
L 463.270298 216.040353 
L 464.418172 216.040353 
L 464.433326 215.496468 
L 465.869116 215.496468 
L 465.922154 214.952583 
L 466.751806 214.952583 
L 467.263235 214.408698 
L 467.267023 213.864813 
L 468.138347 213.864813 
L 468.153501 213.320929 
L 471.233442 213.320929 
L 471.350881 212.233159 
L 473.53298 212.233159 
L 474.025467 211.689274 
L 474.41188 211.689274 
L 474.896791 211.145389 
L 478.484373 211.145389 
L 478.590447 210.057619 
L 478.707887 210.057619 
L 478.821538 209.513734 
L 478.832903 209.513734 
L 478.836691 208.969849 
L 480.424016 208.969849 
L 480.431593 208.425964 
L 481.871172 208.425964 
L 481.878748 207.88208 
L 484.129037 207.88208 
L 484.28436 207.338195 
L 486.993042 207.338195 
L 487.004407 206.79431 
L 487.224132 206.79431 
L 487.315053 205.70654 
L 487.387032 205.70654 
L 487.508259 204.61877 
L 489.641109 204.61877 
L 489.766125 203.531 
L 489.849469 203.531 
L 489.868411 202.987116 
L 491.683038 202.987116 
L 491.690615 202.443231 
L 491.925493 202.443231 
L 492.020202 201.355461 
L 492.133853 201.355461 
L 492.145218 200.811576 
L 492.285388 200.811576 
L 492.292965 200.267691 
L 493.630258 200.267691 
L 493.808311 199.723806 
L 494.755402 199.723806 
L 494.827381 199.179921 
L 496.225288 199.179921 
L 497.221628 198.636036 
L 498.168719 198.636036 
L 498.342984 198.092152 
L 498.729397 198.092152 
L 498.733186 197.548267 
L 498.846837 197.548267 
L 498.956699 196.460497 
L 499.040043 196.460497 
L 499.149906 195.372727 
L 499.225673 195.372727 
L 499.23325 194.828842 
L 499.362054 194.828842 
L 499.37342 194.284957 
L 500.805422 194.284957 
L 500.877401 193.741072 
L 501.009993 193.741072 
L 501.025147 193.197187 
L 502.94206 193.197187 
L 502.945848 192.653303 
L 503.067076 192.653303 
L 503.165573 192.109418 
L 503.233764 192.109418 
L 503.241341 191.565533 
L 503.7755 191.565533 
L 503.79823 191.021648 
L 507.76086 191.021648 
L 508.416248 190.477763 
L 508.954195 190.477763 
L 508.957984 189.933878 
L 509.211804 189.933878 
L 509.329244 188.846108 
L 509.439106 188.846108 
L 509.537604 187.758339 
L 509.628525 187.758339 
L 509.70808 186.670569 
L 509.806578 186.670569 
L 509.814154 186.126684 
L 511.374961 186.126684 
L 512.481164 185.582799 
L 514.564765 185.582799 
L 514.572341 185.038914 
L 514.708722 185.038914 
L 514.80722 183.951144 
L 514.886776 183.951144 
L 515.000427 183.407259 
L 522.31576 183.407259 
L 522.391527 182.863375 
L 522.505178 182.863375 
L 522.508967 182.31949 
L 522.789306 182.31949 
L 522.800671 181.775605 
L 523.804588 181.775605 
L 523.842471 181.23172 
L 532.597384 181.23172 
L 532.60496 180.687835 
L 540.958306 180.687835 
L 540.962094 180.14395 
L 541.174243 180.14395 
L 541.181819 179.600065 
L 541.4811 179.600065 
L 541.492465 179.05618 
L 541.651577 179.05618 
L 541.742498 177.968411 
L 541.814477 177.968411 
L 541.814477 177.968411 
L 541.905397 176.880641 
L 542.007683 176.880641 
L 542.106181 175.792871 
L 542.151641 175.792871 
L 542.598668 175.248986 
L 546.235499 175.248986 
L 546.333996 174.161216 
L 548.985852 174.161216 
L 549.088138 173.617331 
L 549.273768 173.617331 
L 549.38363 173.073446 
L 585.357948 173.073446 
L 586.638415 172.529562 
L 588.396217 172.529562 
L 588.41137 171.985677 
L 588.589423 171.985677 
L 588.699286 170.897907 
L 588.80536 170.897907 
L 588.812937 170.354022 
L 588.930376 170.354022 
L 588.930376 169.810137 
L 589.032662 169.810137 
L 589.044027 169.266252 
L 589.169043 169.266252 
L 589.252387 168.178482 
L 589.33952 168.178482 
L 589.343308 167.634598 
L 594.586406 167.634598 
L 594.597771 167.090713 
L 611.346134 167.090713 
L 611.353711 166.546828 
L 626.260928 166.546828 
L 626.264717 166.002943 
L 626.393521 166.002943 
L 626.39731 165.459058 
L 628.810498 165.459058 
L 628.818075 164.915173 
L 628.999917 164.915173 
L 629.01507 164.371288 
L 629.132509 164.371288 
L 629.238584 163.827403 
L 629.238584 163.827403 
L 629.367388 162.739634 
L 629.462097 162.739634 
L 629.488616 162.195749 
L 629.488616 162.195749 
L 630.234924 162.195749 
L 630.674374 161.651864 
L 634.023289 161.651864 
L 634.13694 160.564094 
L 634.360454 160.564094 
L 634.474105 159.476324 
L 634.572602 159.476324 
L 634.690041 158.388554 
L 634.773385 158.388554 
L 634.87946 157.300785 
L 637.444183 157.300785 
L 637.482067 156.7569 
L 638.770111 156.7569 
L 638.823148 156.213015 
L 658.158965 156.213015 
L 658.177906 155.66913 
L 658.302923 155.66913 
L 658.427939 155.125245 
L 658.431727 155.125245 
L 658.439304 154.58136 
L 658.624934 154.58136 
L 658.742373 154.037475 
L 684.207765 154.037475 
L 684.313839 152.949705 
L 684.400971 152.949705 
L 684.507046 151.861936 
L 684.582813 151.861936 
L 684.673734 151.318051 
L 684.673734 151.318051 
L 711.537032 151.318051 
L 711.609011 150.774166 
L 711.84389 150.774166 
L 711.847678 150.230281 
L 712.389415 150.230281 
L 712.389415 150.230281 
L 712.408356 149.686396 
L 712.533372 149.686396 
L 712.650812 148.598626 
L 712.779616 148.598626 
L 712.889479 148.054741 
L 712.904632 147.510857 
L 714.211618 147.510857 
L 714.222983 146.966972 
L 714.336634 146.966972 
L 714.446497 145.879202 
L 714.537418 145.879202 
L 714.541206 145.335317 
L 735.187797 145.335317 
L 735.195374 144.791432 
L 735.585576 144.791432 
L 735.608306 144.247547 
L 735.740899 144.247547 
L 735.748475 143.703662 
L 738.483675 143.703662 
L 738.604903 142.615893 
L 738.745072 142.615893 
L 738.862512 141.528123 
L 741.563616 141.528123 
L 741.66969 140.440353 
L 750.223819 140.440353 
L 750.250338 139.896468 
L 750.466275 139.896468 
L 750.576137 138.808698 
L 750.667058 138.808698 
L 750.670846 138.264813 
L 750.795862 138.264813 
L 750.795862 138.264813 
L 750.811016 137.720929 
L 759.346203 137.720929 
L 759.361357 137.177044 
L 759.550775 137.177044 
L 759.656849 136.089274 
L 759.743981 136.089274 
L 759.751558 135.545389 
L 759.918246 135.545389 
L 760.039474 134.457619 
L 760.179643 134.457619 
L 760.18722 133.913734 
L 769.760419 133.913734 
L 769.847552 132.825964 
L 769.930896 132.825964 
L 770.048335 131.738195 
L 770.071065 131.738195 
L 770.165774 130.650425 
L 770.230177 130.650425 
L 770.328674 129.562655 
L 770.434748 129.562655 
L 770.438537 129.01877 
L 773.957928 129.01877 
L 774.90502 128.474885 
L 775.13611 128.474885 
L 775.139898 127.931 
L 776.121085 127.931 
L 777.886463 127.387116 
L 777.924347 126.843231 
L 780.042043 126.843231 
L 780.045831 126.299346 
L 780.231461 126.299346 
L 780.333747 125.211576 
L 780.492858 125.211576 
L 780.568626 124.123806 
L 780.667123 124.123806 
L 780.670912 123.579921 
L 781.072478 123.579921 
L 781.807421 123.036036 
L 782.004416 123.036036 
L 783.565223 122.492152 
L 785.05405 122.492152 
L 785.057839 121.948267 
L 785.186643 121.948267 
L 785.190431 121.404382 
L 787.035365 121.404382 
L 787.042942 120.860497 
L 788.281738 120.860497 
L 788.296891 120.316612 
L 791.248028 120.316612 
L 791.2897 119.772727 
L 791.755669 119.772727 
L 791.759457 119.228842 
L 791.93751 119.228842 
L 792.024643 118.141072 
L 792.10041 118.141072 
L 792.206484 117.597187 
L 792.316347 116.509418 
L 792.441363 116.509418 
L 792.445151 115.965533 
L 792.573956 115.965533 
L 792.577744 115.421648 
L 792.695183 115.421648 
L 792.808834 114.333878 
L 792.918697 114.333878 
L 792.922485 113.789993 
L 797.794323 113.789993 
L 800.264337 113.246108 
L 826.729857 113.246108 
L 826.892757 112.702223 
L 827.021562 112.702223 
L 827.02535 112.158339 
L 827.142789 112.158339 
L 827.248864 111.070569 
L 827.328419 111.070569 
L 827.404186 109.982799 
L 827.498896 109.982799 
L 827.570875 108.895029 
L 828.120188 108.895029 
L 828.237627 108.351144 
L 828.961205 108.351144 
L 829.025607 107.807259 
L 831.650944 107.807259 
L 831.760807 106.71949 
L 831.832786 106.71949 
L 831.923706 105.63172 
L 831.969167 105.63172 
L 832.063876 104.54395 
L 832.128278 104.54395 
L 832.162373 103.45618 
L 874.482203 103.45618 
L 875.561887 102.912295 
L 875.660384 101.824526 
L 875.747517 101.824526 
L 875.857379 100.736756 
L 875.952088 100.736756 
L 876.046798 99.648986 
L 876.933275 99.648986 
L 877.054503 99.105101 
L 877.08481 99.105101 
L 877.187096 98.017331 
L 879.509363 98.017331 
L 879.607861 97.473446 
L 882.343061 97.473446 
L 882.346849 96.929562 
L 884.672905 96.929562 
L 884.691847 96.385677 
L 885.847299 96.385677 
L 885.854875 95.841792 
L 886.067024 95.841792 
L 886.074601 95.297907 
L 903.493504 95.297907 
L 903.501081 94.754022 
L 903.637462 94.754022 
L 903.743537 93.666252 
L 903.823092 93.666252 
L 903.826881 93.122367 
L 903.98978 93.122367 
L 904.099643 92.034598 
L 904.190564 92.034598 
L 904.289061 90.946828 
L 904.463326 90.946828 
L 904.474691 90.402943 
L 904.641379 90.402943 
L 904.645168 89.859058 
L 907.880432 89.859058 
L 907.888008 89.315173 
L 910.373176 89.315173 
L 910.392118 88.771288 
L 911.418765 88.771288 
L 911.422553 88.227403 
L 911.547569 88.227403 
L 911.555146 87.683518 
L 911.668797 87.683518 
L 911.782448 86.595749 
L 911.888522 86.595749 
L 911.89231 86.051864 
L 929.178622 86.051864 
L 929.296061 84.964094 
L 929.311214 84.964094 
L 929.417289 83.876324 
L 929.493056 83.876324 
L 929.580188 82.788554 
L 929.659744 82.788554 
L 929.758241 81.700785 
L 929.841585 81.700785 
L 929.936295 80.613015 
L 930.065099 80.613015 
L 930.171173 80.06913 
L 930.190115 79.525245 
L 946.313398 79.525245 
L 946.317186 78.98136 
L 946.461144 78.98136 
L 946.559642 77.89359 
L 946.642986 77.89359 
L 946.77179 76.261936 
L 946.870288 76.261936 
L 946.976362 75.174166 
L 947.063494 75.174166 
L 947.16578 74.630281 
L 947.16578 74.630281 
L 970.183888 74.630281 
L 970.240714 73.542511 
L 970.346788 73.542511 
L 970.350576 72.998626 
L 970.513476 72.998626 
L 970.521053 72.454741 
L 991.993507 72.454741 
L 992.001084 71.910857 
L 992.440534 71.910857 
L 992.440534 71.910857 
L 992.463265 71.366972 
L 992.592069 71.366972 
L 992.70572 70.279202 
L 992.804218 70.279202 
L 992.826948 69.735317 
L 1003.108571 69.735317 
L 1003.222222 69.191432 
L 1003.252529 69.191432 
L 1003.362392 68.647547 
L 1003.476043 67.559777 
L 1003.585905 67.559777 
L 1003.593482 67.015893 
L 1007.631879 67.015893 
L 1007.897065 66.472008 
L 1010.514826 66.472008 
L 1010.552709 65.928123 
L 1012.992416 65.928123 
L 1013.109856 65.384238 
L 1030.509818 65.384238 
L 1030.555278 64.296468 
L 1030.695448 64.296468 
L 1030.756062 63.208698 
L 1030.934115 63.208698 
L 1031.025035 62.120929 
L 1031.10838 62.120929 
L 1031.1993 61.033159 
L 1031.301586 61.033159 
L 1031.415237 59.945389 
L 1031.498581 59.945389 
L 1031.509946 59.401504 
L 1031.623597 59.401504 
L 1031.627386 58.857619 
L 1057.407212 58.857619 
L 1057.498133 57.769849 
L 1057.581477 57.769849 
L 1057.585265 57.225964 
L 1057.770895 57.225964 
L 1057.854239 56.138195 
L 1057.933795 56.138195 
L 1058.051234 55.050425 
L 1058.138366 55.050425 
L 1058.24444 54.50654 
L 1081.425448 54.50654 
L 1081.554252 52.874885 
L 1081.648962 52.874885 
L 1081.758824 51.787116 
L 1081.819438 51.787116 
L 1081.933089 50.699346 
L 1082.012645 50.699346 
L 1082.114931 49.611576 
L 1101.484843 49.611576 
L 1101.522726 48.523806 
L 1101.617435 48.523806 
L 1101.625012 47.979921 
L 1101.799277 47.979921 
L 1101.890198 46.892152 
L 1101.962177 46.892152 
L 1102.053097 45.804382 
L 1102.128865 45.804382 
L 1102.238727 45.260497 
L 1102.344801 45.260497 
L 1102.454664 44.716612 
L 1106.337739 44.716612 
L 1106.345315 44.172727 
L 1106.477908 44.172727 
L 1106.481696 43.628842 
L 1106.671115 43.628842 
L 1106.773401 43.084957 
L 1109.372219 43.084957 
L 1109.478293 41.997187 
L 1111.183058 41.997187 
L 1111.183058 41.997187 
" clip-path="url(#p48be8d9c9d)" style="fill: none; stroke: #0000ff; stroke-width: 1.5; stroke-linecap: square"/>
   </g>
   <g id="patch_99">
    <path d="M 49.235 359.517187 
L 49.235 26.877187 
" style="fill: none; stroke: #000000; stroke-width: 0.8; stroke-linejoin: miter; stroke-linecap: square"/>
   </g>
   <g id="patch_100">
    <path d="M 1165.235 359.517187 
L 1165.235 26.877187 
" style="fill: none; stroke: #000000; stroke-width: 0.8; stroke-linejoin: miter; stroke-linecap: square"/>
   </g>
   <g id="patch_101">
    <path d="M 49.235 359.517187 
L 1165.235 359.517187 
" style="fill: none; stroke: #000000; stroke-width: 0.8; stroke-linejoin: miter; stroke-linecap: square"/>
   </g>
   <g id="patch_102">
    <path d="M 49.235 26.877187 
L 1165.235 26.877187 
" style="fill: none; stroke: #000000; stroke-width: 0.8; stroke-linejoin: miter; stroke-linecap: square"/>
   </g>
   <g id="text_16">
    <!-- Pellet Count and Cumulative Sum Over Time of Group female Mouse M73 -->
    <g transform="translate(276.669219 20.877187) scale(0.18 -0.18)">
     <defs>
      <path id="DejaVuSans-61" d="M 2194 1759 
Q 1497 1759 1228 1600 
Q 959 1441 959 1056 
Q 959 750 1161 570 
Q 1363 391 1709 391 
Q 2188 391 2477 730 
Q 2766 1069 2766 1631 
L 2766 1759 
L 2194 1759 
z
M 3341 1997 
L 3341 0 
L 2766 0 
L 2766 531 
Q 2569 213 2275 61 
Q 1981 -91 1556 -91 
Q 1019 -91 701 211 
Q 384 513 384 1019 
Q 384 1609 779 1909 
Q 1175 2209 1959 2209 
L 2766 2209 
L 2766 2266 
Q 2766 2663 2505 2880 
Q 2244 3097 1772 3097 
Q 1472 3097 1187 3025 
Q 903 2953 641 2809 
L 641 3341 
Q 956 3463 1253 3523 
Q 1550 3584 1831 3584 
Q 2591 3584 2966 3190 
Q 3341 2797 3341 1997 
z
" transform="scale(0.015625)"/>
      <path id="DejaVuSans-64" d="M 2906 2969 
L 2906 4863 
L 3481 4863 
L 3481 0 
L 2906 0 
L 2906 525 
Q 2725 213 2448 61 
Q 2172 -91 1784 -91 
Q 1150 -91 751 415 
Q 353 922 353 1747 
Q 353 2572 751 3078 
Q 1150 3584 1784 3584 
Q 2172 3584 2448 3432 
Q 2725 3281 2906 2969 
z
M 947 1747 
Q 947 1113 1208 752 
Q 1469 391 1925 391 
Q 2381 391 2643 752 
Q 2906 1113 2906 1747 
Q 2906 2381 2643 2742 
Q 2381 3103 1925 3103 
Q 1469 3103 1208 2742 
Q 947 2381 947 1747 
z
" transform="scale(0.015625)"/>
      <path id="DejaVuSans-76" d="M 191 3500 
L 800 3500 
L 1894 563 
L 2988 3500 
L 3597 3500 
L 2284 0 
L 1503 0 
L 191 3500 
z
" transform="scale(0.015625)"/>
      <path id="DejaVuSans-53" d="M 3425 4513 
L 3425 3897 
Q 3066 4069 2747 4153 
Q 2428 4238 2131 4238 
Q 1616 4238 1336 4038 
Q 1056 3838 1056 3469 
Q 1056 3159 1242 3001 
Q 1428 2844 1947 2747 
L 2328 2669 
Q 3034 2534 3370 2195 
Q 3706 1856 3706 1288 
Q 3706 609 3251 259 
Q 2797 -91 1919 -91 
Q 1588 -91 1214 -16 
Q 841 59 441 206 
L 441 856 
Q 825 641 1194 531 
Q 1563 422 1919 422 
Q 2459 422 2753 634 
Q 3047 847 3047 1241 
Q 3047 1584 2836 1778 
Q 2625 1972 2144 2069 
L 1759 2144 
Q 1053 2284 737 2584 
Q 422 2884 422 3419 
Q 422 4038 858 4394 
Q 1294 4750 2059 4750 
Q 2388 4750 2728 4690 
Q 3069 4631 3425 4513 
z
" transform="scale(0.015625)"/>
      <path id="DejaVuSans-4f" d="M 2522 4238 
Q 1834 4238 1429 3725 
Q 1025 3213 1025 2328 
Q 1025 1447 1429 934 
Q 1834 422 2522 422 
Q 3209 422 3611 934 
Q 4013 1447 4013 2328 
Q 4013 3213 3611 3725 
Q 3209 4238 2522 4238 
z
M 2522 4750 
Q 3503 4750 4090 4092 
Q 4678 3434 4678 2328 
Q 4678 1225 4090 567 
Q 3503 -91 2522 -91 
Q 1538 -91 948 565 
Q 359 1222 359 2328 
Q 359 3434 948 4092 
Q 1538 4750 2522 4750 
z
" transform="scale(0.015625)"/>
      <path id="DejaVuSans-72" d="M 2631 2963 
Q 2534 3019 2420 3045 
Q 2306 3072 2169 3072 
Q 1681 3072 1420 2755 
Q 1159 2438 1159 1844 
L 1159 0 
L 581 0 
L 581 3500 
L 1159 3500 
L 1159 2956 
Q 1341 3275 1631 3429 
Q 1922 3584 2338 3584 
Q 2397 3584 2469 3576 
Q 2541 3569 2628 3553 
L 2631 2963 
z
" transform="scale(0.015625)"/>
      <path id="DejaVuSans-66" d="M 2375 4863 
L 2375 4384 
L 1825 4384 
Q 1516 4384 1395 4259 
Q 1275 4134 1275 3809 
L 1275 3500 
L 2222 3500 
L 2222 3053 
L 1275 3053 
L 1275 0 
L 697 0 
L 697 3053 
L 147 3053 
L 147 3500 
L 697 3500 
L 697 3744 
Q 697 4328 969 4595 
Q 1241 4863 1831 4863 
L 2375 4863 
z
" transform="scale(0.015625)"/>
      <path id="DejaVuSans-47" d="M 3809 666 
L 3809 1919 
L 2778 1919 
L 2778 2438 
L 4434 2438 
L 4434 434 
Q 4069 175 3628 42 
Q 3188 -91 2688 -91 
Q 1594 -91 976 548 
Q 359 1188 359 2328 
Q 359 3472 976 4111 
Q 1594 4750 2688 4750 
Q 3144 4750 3555 4637 
Q 3966 4525 4313 4306 
L 4313 3634 
Q 3963 3931 3569 4081 
Q 3175 4231 2741 4231 
Q 1884 4231 1454 3753 
Q 1025 3275 1025 2328 
Q 1025 1384 1454 906 
Q 1884 428 2741 428 
Q 3075 428 3337 486 
Q 3600 544 3809 666 
z
" transform="scale(0.015625)"/>
      <path id="DejaVuSans-70" d="M 1159 525 
L 1159 -1331 
L 581 -1331 
L 581 3500 
L 1159 3500 
L 1159 2969 
Q 1341 3281 1617 3432 
Q 1894 3584 2278 3584 
Q 2916 3584 3314 3078 
Q 3713 2572 3713 1747 
Q 3713 922 3314 415 
Q 2916 -91 2278 -91 
Q 1894 -91 1617 61 
Q 1341 213 1159 525 
z
M 3116 1747 
Q 3116 2381 2855 2742 
Q 2594 3103 2138 3103 
Q 1681 3103 1420 2742 
Q 1159 2381 1159 1747 
Q 1159 1113 1420 752 
Q 1681 391 2138 391 
Q 2594 391 2855 752 
Q 3116 1113 3116 1747 
z
" transform="scale(0.015625)"/>
      <path id="DejaVuSans-4d" d="M 628 4666 
L 1569 4666 
L 2759 1491 
L 3956 4666 
L 4897 4666 
L 4897 0 
L 4281 0 
L 4281 4097 
L 3078 897 
L 2444 897 
L 1241 4097 
L 1241 0 
L 628 0 
L 628 4666 
z
" transform="scale(0.015625)"/>
      <path id="DejaVuSans-73" d="M 2834 3397 
L 2834 2853 
Q 2591 2978 2328 3040 
Q 2066 3103 1784 3103 
Q 1356 3103 1142 2972 
Q 928 2841 928 2578 
Q 928 2378 1081 2264 
Q 1234 2150 1697 2047 
L 1894 2003 
Q 2506 1872 2764 1633 
Q 3022 1394 3022 966 
Q 3022 478 2636 193 
Q 2250 -91 1575 -91 
Q 1294 -91 989 -36 
Q 684 19 347 128 
L 347 722 
Q 666 556 975 473 
Q 1284 391 1588 391 
Q 1994 391 2212 530 
Q 2431 669 2431 922 
Q 2431 1156 2273 1281 
Q 2116 1406 1581 1522 
L 1381 1569 
Q 847 1681 609 1914 
Q 372 2147 372 2553 
Q 372 3047 722 3315 
Q 1072 3584 1716 3584 
Q 2034 3584 2315 3537 
Q 2597 3491 2834 3397 
z
" transform="scale(0.015625)"/>
      <path id="DejaVuSans-37" d="M 525 4666 
L 3525 4666 
L 3525 4397 
L 1831 0 
L 1172 0 
L 2766 4134 
L 525 4134 
L 525 4666 
z
" transform="scale(0.015625)"/>
     </defs>
     <use xlink:href="#DejaVuSans-50"/>
     <use xlink:href="#DejaVuSans-65" x="56.677734"/>
     <use xlink:href="#DejaVuSans-6c" x="118.201172"/>
     <use xlink:href="#DejaVuSans-6c" x="145.984375"/>
     <use xlink:href="#DejaVuSans-65" x="173.767578"/>
     <use xlink:href="#DejaVuSans-74" x="235.291016"/>
     <use xlink:href="#DejaVuSans-20" x="274.5"/>
     <use xlink:href="#DejaVuSans-43" x="306.287109"/>
     <use xlink:href="#DejaVuSans-6f" x="376.111328"/>
     <use xlink:href="#DejaVuSans-75" x="437.292969"/>
     <use xlink:href="#DejaVuSans-6e" x="500.671875"/>
     <use xlink:href="#DejaVuSans-74" x="564.050781"/>
     <use xlink:href="#DejaVuSans-20" x="603.259766"/>
     <use xlink:href="#DejaVuSans-61" x="635.046875"/>
     <use xlink:href="#DejaVuSans-6e" x="696.326172"/>
     <use xlink:href="#DejaVuSans-64" x="759.705078"/>
     <use xlink:href="#DejaVuSans-20" x="823.181641"/>
     <use xlink:href="#DejaVuSans-43" x="854.96875"/>
     <use xlink:href="#DejaVuSans-75" x="924.792969"/>
     <use xlink:href="#DejaVuSans-6d" x="988.171875"/>
     <use xlink:href="#DejaVuSans-75" x="1085.583984"/>
     <use xlink:href="#DejaVuSans-6c" x="1148.962891"/>
     <use xlink:href="#DejaVuSans-61" x="1176.746094"/>
     <use xlink:href="#DejaVuSans-74" x="1238.025391"/>
     <use xlink:href="#DejaVuSans-69" x="1277.234375"/>
     <use xlink:href="#DejaVuSans-76" x="1305.017578"/>
     <use xlink:href="#DejaVuSans-65" x="1364.197266"/>
     <use xlink:href="#DejaVuSans-20" x="1425.720703"/>
     <use xlink:href="#DejaVuSans-53" x="1457.507812"/>
     <use xlink:href="#DejaVuSans-75" x="1520.984375"/>
     <use xlink:href="#DejaVuSans-6d" x="1584.363281"/>
     <use xlink:href="#DejaVuSans-20" x="1681.775391"/>
     <use xlink:href="#DejaVuSans-4f" x="1713.5625"/>
     <use xlink:href="#DejaVuSans-76" x="1792.273438"/>
     <use xlink:href="#DejaVuSans-65" x="1851.453125"/>
     <use xlink:href="#DejaVuSans-72" x="1912.976562"/>
     <use xlink:href="#DejaVuSans-20" x="1954.089844"/>
     <use xlink:href="#DejaVuSans-54" x="1985.876953"/>
     <use xlink:href="#DejaVuSans-69" x="2043.835938"/>
     <use xlink:href="#DejaVuSans-6d" x="2071.619141"/>
     <use xlink:href="#DejaVuSans-65" x="2169.03125"/>
     <use xlink:href="#DejaVuSans-20" x="2230.554688"/>
     <use xlink:href="#DejaVuSans-6f" x="2262.341797"/>
     <use xlink:href="#DejaVuSans-66" x="2323.523438"/>
     <use xlink:href="#DejaVuSans-20" x="2358.728516"/>
     <use xlink:href="#DejaVuSans-47" x="2390.515625"/>
     <use xlink:href="#DejaVuSans-72" x="2468.005859"/>
     <use xlink:href="#DejaVuSans-6f" x="2506.869141"/>
     <use xlink:href="#DejaVuSans-75" x="2568.050781"/>
     <use xlink:href="#DejaVuSans-70" x="2631.429688"/>
     <use xlink:href="#DejaVuSans-20" x="2694.90625"/>
     <use xlink:href="#DejaVuSans-66" x="2726.693359"/>
     <use xlink:href="#DejaVuSans-65" x="2761.898438"/>
     <use xlink:href="#DejaVuSans-6d" x="2823.421875"/>
     <use xlink:href="#DejaVuSans-61" x="2920.833984"/>
     <use xlink:href="#DejaVuSans-6c" x="2982.113281"/>
     <use xlink:href="#DejaVuSans-65" x="3009.896484"/>
     <use xlink:href="#DejaVuSans-20" x="3071.419922"/>
     <use xlink:href="#DejaVuSans-4d" x="3103.207031"/>
     <use xlink:href="#DejaVuSans-6f" x="3189.486328"/>
     <use xlink:href="#DejaVuSans-75" x="3250.667969"/>
     <use xlink:href="#DejaVuSans-73" x="3314.046875"/>
     <use xlink:href="#DejaVuSans-65" x="3366.146484"/>
     <use xlink:href="#DejaVuSans-20" x="3427.669922"/>
     <use xlink:href="#DejaVuSans-4d" x="3459.457031"/>
     <use xlink:href="#DejaVuSans-37" x="3545.736328"/>
     <use xlink:href="#DejaVuSans-33" x="3609.359375"/>
    </g>
   </g>
   <g id="legend_1">
    <g id="patch_103">
     <path d="M 1086.550625 64.233437 
L 1158.235 64.233437 
Q 1160.235 64.233437 1160.235 62.233437 
L 1160.235 33.877187 
Q 1160.235 31.877187 1158.235 31.877187 
L 1086.550625 31.877187 
Q 1084.550625 31.877187 1084.550625 33.877187 
L 1084.550625 62.233437 
Q 1084.550625 64.233437 1086.550625 64.233437 
z
" style="fill: #ffffff; opacity: 0.8; stroke: #cccccc; stroke-linejoin: miter"/>
    </g>
    <g id="patch_104">
     <path d="M 1088.550625 43.475625 
L 1108.550625 43.475625 
L 1108.550625 36.475625 
L 1088.550625 36.475625 
z
" style="fill: #add8e6; opacity: 0.9; stroke: #add8e6; stroke-linejoin: miter"/>
    </g>
    <g id="text_17">
     <!-- Meal -->
     <g transform="translate(1116.550625 43.475625) scale(0.1 -0.1)">
      <use xlink:href="#DejaVuSans-4d"/>
      <use xlink:href="#DejaVuSans-65" x="86.279297"/>
      <use xlink:href="#DejaVuSans-61" x="147.802734"/>
      <use xlink:href="#DejaVuSans-6c" x="209.082031"/>
     </g>
    </g>
    <g id="patch_105">
     <path d="M 1088.550625 58.15375 
L 1108.550625 58.15375 
L 1108.550625 51.15375 
L 1088.550625 51.15375 
z
" style="fill: #808080; opacity: 0.5; stroke: #808080; stroke-linejoin: miter"/>
    </g>
    <g id="text_18">
     <!-- Inactive -->
     <g transform="translate(1116.550625 58.15375) scale(0.1 -0.1)">
      <defs>
       <path id="DejaVuSans-49" d="M 628 4666 
L 1259 4666 
L 1259 0 
L 628 0 
L 628 4666 
z
" transform="scale(0.015625)"/>
       <path id="DejaVuSans-63" d="M 3122 3366 
L 3122 2828 
Q 2878 2963 2633 3030 
Q 2388 3097 2138 3097 
Q 1578 3097 1268 2742 
Q 959 2388 959 1747 
Q 959 1106 1268 751 
Q 1578 397 2138 397 
Q 2388 397 2633 464 
Q 2878 531 3122 666 
L 3122 134 
Q 2881 22 2623 -34 
Q 2366 -91 2075 -91 
Q 1284 -91 818 406 
Q 353 903 353 1747 
Q 353 2603 823 3093 
Q 1294 3584 2113 3584 
Q 2378 3584 2631 3529 
Q 2884 3475 3122 3366 
z
" transform="scale(0.015625)"/>
      </defs>
      <use xlink:href="#DejaVuSans-49"/>
      <use xlink:href="#DejaVuSans-6e" x="29.492188"/>
      <use xlink:href="#DejaVuSans-61" x="92.871094"/>
      <use xlink:href="#DejaVuSans-63" x="154.150391"/>
      <use xlink:href="#DejaVuSans-74" x="209.130859"/>
      <use xlink:href="#DejaVuSans-69" x="248.339844"/>
      <use xlink:href="#DejaVuSans-76" x="276.123047"/>
      <use xlink:href="#DejaVuSans-65" x="335.302734"/>
     </g>
    </g>
   </g>
  </g>
 </g>
 <defs>
  <clipPath id="p48be8d9c9d">
   <rect x="49.235" y="26.877187" width="1116" height="332.64"/>
  </clipPath>
 </defs>
</svg>
