<?xml version="1.0" encoding="utf-8" standalone="no"?>
<!DOCTYPE svg PUBLIC "-//W3C//DTD SVG 1.1//EN"
  "http://www.w3.org/Graphics/SVG/1.1/DTD/svg11.dtd">
<svg xmlns:xlink="http://www.w3.org/1999/xlink" width="437.476875pt" height="402.464375pt" viewBox="0 0 437.476875 402.464375" xmlns="http://www.w3.org/2000/svg" version="1.1">
 <metadata>
  <rdf:RDF xmlns:dc="http://purl.org/dc/elements/1.1/" xmlns:cc="http://creativecommons.org/ns#" xmlns:rdf="http://www.w3.org/1999/02/22-rdf-syntax-ns#">
   <cc:Work>
    <dc:type rdf:resource="http://purl.org/dc/dcmitype/StillImage"/>
    <dc:date>2025-10-02T16:59:11.126775</dc:date>
    <dc:format>image/svg+xml</dc:format>
    <dc:creator>
     <cc:Agent>
      <dc:title>Matplotlib v3.8.4, https://matplotlib.org/</dc:title>
     </cc:Agent>
    </dc:creator>
   </cc:Work>
  </rdf:RDF>
 </metadata>
 <defs>
  <style type="text/css">*{stroke-linejoin: round; stroke-linecap: butt}</style>
 </defs>
 <g id="figure_1">
  <g id="patch_1">
   <path d="M 0 402.464375 
L 437.476875 402.464375 
L 437.476875 0 
L 0 0 
z
" style="fill: #ffffff"/>
  </g>
  <g id="axes_1">
   <g id="patch_2">
    <path d="M 50.836875 361.036875 
L 430.276875 361.036875 
L 430.276875 28.396875 
L 50.836875 28.396875 
z
" style="fill: #ffffff"/>
   </g>
   <g id="PolyCollection_1">
    <defs>
     <path id="maa802f6235" d="M 120.74896 -193.695455 
L 107.40479 -193.695455 
L 107.028631 -195.364668 
L 106.646408 -197.033881 
L 106.259148 -198.703093 
L 105.867939 -200.372306 
L 105.47393 -202.041518 
L 105.078325 -203.710731 
L 104.682376 -205.379943 
L 104.287378 -207.049156 
L 103.894661 -208.718369 
L 103.50558 -210.387581 
L 103.121511 -212.056794 
L 102.743837 -213.726006 
L 102.373938 -215.395219 
L 102.013181 -217.064431 
L 101.662909 -218.733644 
L 101.32443 -220.402857 
L 100.999005 -222.072069 
L 100.687833 -223.741282 
L 100.392048 -225.410494 
L 100.112701 -227.079707 
L 99.850757 -228.748919 
L 99.60708 -230.418132 
L 99.382431 -232.087345 
L 99.17746 -233.756557 
L 98.992701 -235.42577 
L 98.828568 -237.094982 
L 98.685356 -238.764195 
L 98.563239 -240.433407 
L 98.462269 -242.10262 
L 98.382381 -243.771833 
L 98.323396 -245.441045 
L 98.285026 -247.110258 
L 98.266875 -248.77947 
L 98.268451 -250.448683 
L 98.289168 -252.117895 
L 98.328354 -253.787108 
L 98.385256 -255.456321 
L 98.45905 -257.125533 
L 98.548844 -258.794746 
L 98.653683 -260.463958 
L 98.772558 -262.133171 
L 98.904409 -263.802383 
L 99.048129 -265.471596 
L 99.202569 -267.140809 
L 99.366542 -268.810021 
L 99.538824 -270.479234 
L 99.718164 -272.148446 
L 99.903281 -273.817659 
L 100.092874 -275.486871 
L 100.285622 -277.156084 
L 100.480194 -278.825297 
L 100.675255 -280.494509 
L 100.869471 -282.163722 
L 101.061524 -283.832934 
L 101.250118 -285.502147 
L 101.433992 -287.171359 
L 101.611936 -288.840572 
L 101.782804 -290.509785 
L 101.945528 -292.178997 
L 102.099139 -293.84821 
L 102.242779 -295.517422 
L 102.37572 -297.186635 
L 102.497384 -298.855847 
L 102.60735 -300.52506 
L 102.705378 -302.194273 
L 102.791412 -303.863485 
L 102.8656 -305.532698 
L 102.92829 -307.20191 
L 102.980041 -308.871123 
L 103.021622 -310.540335 
L 103.054004 -312.209548 
L 103.078358 -313.878761 
L 103.096037 -315.547973 
L 103.108562 -317.217186 
L 103.117605 -318.886398 
L 103.124957 -320.555611 
L 103.13251 -322.224823 
L 103.142221 -323.894036 
L 103.156079 -325.563249 
L 103.176076 -327.232461 
L 103.204171 -328.901674 
L 103.242253 -330.570886 
L 103.292108 -332.240099 
L 103.355388 -333.909311 
L 103.433582 -335.578524 
L 103.527984 -337.247737 
L 103.639676 -338.916949 
L 103.769502 -340.586162 
L 103.918057 -342.255374 
L 104.085677 -343.924587 
L 104.272431 -345.593799 
L 104.478121 -347.263012 
L 104.70229 -348.932225 
L 104.94423 -350.601437 
L 105.202993 -352.27065 
L 105.477414 -353.939862 
L 105.76613 -355.609075 
L 106.067606 -357.278287 
L 106.380161 -358.9475 
L 121.773589 -358.9475 
L 121.773589 -358.9475 
L 122.086144 -357.278287 
L 122.38762 -355.609075 
L 122.676336 -353.939862 
L 122.950757 -352.27065 
L 123.20952 -350.601437 
L 123.45146 -348.932225 
L 123.675629 -347.263012 
L 123.881319 -345.593799 
L 124.068073 -343.924587 
L 124.235693 -342.255374 
L 124.384248 -340.586162 
L 124.514074 -338.916949 
L 124.625766 -337.247737 
L 124.720168 -335.578524 
L 124.798362 -333.909311 
L 124.861642 -332.240099 
L 124.911497 -330.570886 
L 124.949579 -328.901674 
L 124.977674 -327.232461 
L 124.997671 -325.563249 
L 125.011529 -323.894036 
L 125.02124 -322.224823 
L 125.028793 -320.555611 
L 125.036145 -318.886398 
L 125.045188 -317.217186 
L 125.057713 -315.547973 
L 125.075392 -313.878761 
L 125.099746 -312.209548 
L 125.132128 -310.540335 
L 125.173709 -308.871123 
L 125.22546 -307.20191 
L 125.28815 -305.532698 
L 125.362338 -303.863485 
L 125.448372 -302.194273 
L 125.5464 -300.52506 
L 125.656366 -298.855847 
L 125.77803 -297.186635 
L 125.910971 -295.517422 
L 126.054611 -293.84821 
L 126.208222 -292.178997 
L 126.370946 -290.509785 
L 126.541814 -288.840572 
L 126.719758 -287.171359 
L 126.903632 -285.502147 
L 127.092226 -283.832934 
L 127.284279 -282.163722 
L 127.478495 -280.494509 
L 127.673556 -278.825297 
L 127.868128 -277.156084 
L 128.060876 -275.486871 
L 128.250469 -273.817659 
L 128.435586 -272.148446 
L 128.614926 -270.479234 
L 128.787208 -268.810021 
L 128.951181 -267.140809 
L 129.105621 -265.471596 
L 129.249341 -263.802383 
L 129.381192 -262.133171 
L 129.500067 -260.463958 
L 129.604906 -258.794746 
L 129.6947 -257.125533 
L 129.768494 -255.456321 
L 129.825396 -253.787108 
L 129.864582 -252.117895 
L 129.885299 -250.448683 
L 129.886875 -248.77947 
L 129.868724 -247.110258 
L 129.830354 -245.441045 
L 129.771369 -243.771833 
L 129.691481 -242.10262 
L 129.590511 -240.433407 
L 129.468394 -238.764195 
L 129.325182 -237.094982 
L 129.161049 -235.42577 
L 128.97629 -233.756557 
L 128.771319 -232.087345 
L 128.54667 -230.418132 
L 128.302993 -228.748919 
L 128.041049 -227.079707 
L 127.761702 -225.410494 
L 127.465917 -223.741282 
L 127.154745 -222.072069 
L 126.82932 -220.402857 
L 126.490841 -218.733644 
L 126.140569 -217.064431 
L 125.779812 -215.395219 
L 125.409913 -213.726006 
L 125.032239 -212.056794 
L 124.64817 -210.387581 
L 124.259089 -208.718369 
L 123.866372 -207.049156 
L 123.471374 -205.379943 
L 123.075425 -203.710731 
L 122.67982 -202.041518 
L 122.285811 -200.372306 
L 121.894602 -198.703093 
L 121.507342 -197.033881 
L 121.125119 -195.364668 
L 120.74896 -193.695455 
z
" style="stroke: #000000; stroke-opacity: 0.65"/>
    </defs>
    <g clip-path="url(#pd1b5716d99)">
     <use xlink:href="#maa802f6235" x="0" y="402.464375" style="fill: #425df5; fill-opacity: 0.65; stroke: #000000; stroke-opacity: 0.65"/>
    </g>
   </g>
   <g id="PolyCollection_2">
    <defs>
     <path id="mabcbb0b2b1" d="M 250.088075 -156.598058 
L 231.025675 -156.598058 
L 230.581655 -157.809583 
L 230.141352 -159.021108 
L 229.7068 -160.232633 
L 229.280045 -161.444159 
L 228.863119 -162.655684 
L 228.458023 -163.867209 
L 228.066703 -165.078734 
L 227.691028 -166.29026 
L 227.332767 -167.501785 
L 226.993574 -168.71331 
L 226.674961 -169.924835 
L 226.37828 -171.136361 
L 226.104709 -172.347886 
L 225.855234 -173.559411 
L 225.630638 -174.770936 
L 225.431484 -175.982462 
L 225.258114 -177.193987 
L 225.110639 -178.405512 
L 224.988938 -179.617037 
L 224.892656 -180.828563 
L 224.821215 -182.040088 
L 224.773811 -183.251613 
L 224.749434 -184.463138 
L 224.746875 -185.674664 
L 224.764744 -186.886189 
L 224.801491 -188.097714 
L 224.855424 -189.309239 
L 224.924736 -190.520765 
L 225.007529 -191.73229 
L 225.101839 -192.943815 
L 225.205665 -194.15534 
L 225.316998 -195.366866 
L 225.433845 -196.578391 
L 225.554261 -197.789916 
L 225.676369 -199.001442 
L 225.798392 -200.212967 
L 225.918666 -201.424492 
L 226.03567 -202.636017 
L 226.148035 -203.847543 
L 226.254561 -205.059068 
L 226.354232 -206.270593 
L 226.446215 -207.482118 
L 226.529872 -208.693644 
L 226.604756 -209.905169 
L 226.670607 -211.116694 
L 226.72735 -212.328219 
L 226.775082 -213.539745 
L 226.814062 -214.75127 
L 226.844693 -215.962795 
L 226.867511 -217.17432 
L 226.88316 -218.385846 
L 226.892377 -219.597371 
L 226.895973 -220.808896 
L 226.894806 -222.020421 
L 226.88977 -223.231947 
L 226.881768 -224.443472 
L 226.871697 -225.654997 
L 226.860433 -226.866522 
L 226.848814 -228.078048 
L 226.837628 -229.289573 
L 226.827603 -230.501098 
L 226.8194 -231.712623 
L 226.813608 -232.924149 
L 226.81074 -234.135674 
L 226.811236 -235.347199 
L 226.815464 -236.558724 
L 226.823728 -237.77025 
L 226.83627 -238.981775 
L 226.853285 -240.1933 
L 226.874926 -241.404825 
L 226.901321 -242.616351 
L 226.93258 -243.827876 
L 226.968811 -245.039401 
L 227.01013 -246.250926 
L 227.056672 -247.462452 
L 227.108605 -248.673977 
L 227.166133 -249.885502 
L 227.229509 -251.097027 
L 227.299036 -252.308553 
L 227.375071 -253.520078 
L 227.458027 -254.731603 
L 227.548367 -255.943128 
L 227.646603 -257.154654 
L 227.753285 -258.366179 
L 227.868994 -259.577704 
L 227.99433 -260.789229 
L 228.129896 -262.000755 
L 228.276284 -263.21228 
L 228.434061 -264.423805 
L 228.603748 -265.63533 
L 228.785805 -266.846856 
L 228.980614 -268.058381 
L 229.188463 -269.269906 
L 229.409532 -270.481431 
L 229.643879 -271.692957 
L 229.891429 -272.904482 
L 230.151967 -274.116007 
L 230.425133 -275.327532 
L 230.710417 -276.539058 
L 250.403333 -276.539058 
L 250.403333 -276.539058 
L 250.688617 -275.327532 
L 250.961783 -274.116007 
L 251.222321 -272.904482 
L 251.469871 -271.692957 
L 251.704218 -270.481431 
L 251.925287 -269.269906 
L 252.133136 -268.058381 
L 252.327945 -266.846856 
L 252.510002 -265.63533 
L 252.679689 -264.423805 
L 252.837466 -263.21228 
L 252.983854 -262.000755 
L 253.11942 -260.789229 
L 253.244756 -259.577704 
L 253.360465 -258.366179 
L 253.467147 -257.154654 
L 253.565383 -255.943128 
L 253.655723 -254.731603 
L 253.738679 -253.520078 
L 253.814714 -252.308553 
L 253.884241 -251.097027 
L 253.947617 -249.885502 
L 254.005145 -248.673977 
L 254.057078 -247.462452 
L 254.10362 -246.250926 
L 254.144939 -245.039401 
L 254.18117 -243.827876 
L 254.212429 -242.616351 
L 254.238824 -241.404825 
L 254.260465 -240.1933 
L 254.27748 -238.981775 
L 254.290022 -237.77025 
L 254.298286 -236.558724 
L 254.302514 -235.347199 
L 254.30301 -234.135674 
L 254.300142 -232.924149 
L 254.29435 -231.712623 
L 254.286147 -230.501098 
L 254.276122 -229.289573 
L 254.264936 -228.078048 
L 254.253317 -226.866522 
L 254.242053 -225.654997 
L 254.231982 -224.443472 
L 254.22398 -223.231947 
L 254.218944 -222.020421 
L 254.217777 -220.808896 
L 254.221373 -219.597371 
L 254.23059 -218.385846 
L 254.246239 -217.17432 
L 254.269057 -215.962795 
L 254.299688 -214.75127 
L 254.338668 -213.539745 
L 254.3864 -212.328219 
L 254.443143 -211.116694 
L 254.508994 -209.905169 
L 254.583878 -208.693644 
L 254.667535 -207.482118 
L 254.759518 -206.270593 
L 254.859189 -205.059068 
L 254.965715 -203.847543 
L 255.07808 -202.636017 
L 255.195084 -201.424492 
L 255.315358 -200.212967 
L 255.437381 -199.001442 
L 255.559489 -197.789916 
L 255.679905 -196.578391 
L 255.796752 -195.366866 
L 255.908085 -194.15534 
L 256.011911 -192.943815 
L 256.106221 -191.73229 
L 256.189014 -190.520765 
L 256.258326 -189.309239 
L 256.312259 -188.097714 
L 256.349006 -186.886189 
L 256.366875 -185.674664 
L 256.364316 -184.463138 
L 256.339939 -183.251613 
L 256.292535 -182.040088 
L 256.221094 -180.828563 
L 256.124812 -179.617037 
L 256.003111 -178.405512 
L 255.855636 -177.193987 
L 255.682266 -175.982462 
L 255.483112 -174.770936 
L 255.258516 -173.559411 
L 255.009041 -172.347886 
L 254.73547 -171.136361 
L 254.438789 -169.924835 
L 254.120176 -168.71331 
L 253.780983 -167.501785 
L 253.422722 -166.29026 
L 253.047047 -165.078734 
L 252.655727 -163.867209 
L 252.250631 -162.655684 
L 251.833705 -161.444159 
L 251.40695 -160.232633 
L 250.972398 -159.021108 
L 250.532095 -157.809583 
L 250.088075 -156.598058 
z
" style="stroke: #000000; stroke-opacity: 0.65"/>
    </defs>
    <g clip-path="url(#pd1b5716d99)">
     <use xlink:href="#mabcbb0b2b1" x="0" y="402.464375" style="fill: #f55442; fill-opacity: 0.65; stroke: #000000; stroke-opacity: 0.65"/>
    </g>
   </g>
   <g id="PolyCollection_3">
    <defs>
     <path id="mbca8a68b37" d="M 368.631287 -56.5475 
L 365.442463 -56.5475 
L 365.443823 -58.797842 
L 365.453744 -61.048184 
L 365.471782 -63.298525 
L 365.497296 -65.548867 
L 365.529459 -67.799209 
L 365.567269 -70.049551 
L 365.609565 -72.299892 
L 365.655048 -74.550234 
L 365.702299 -76.800576 
L 365.749802 -79.050918 
L 365.795967 -81.301259 
L 365.839152 -83.551601 
L 365.877686 -85.801943 
L 365.909887 -88.052285 
L 365.934082 -90.302627 
L 365.948624 -92.552968 
L 365.951906 -94.80331 
L 365.942371 -97.053652 
L 365.918529 -99.303994 
L 365.878956 -101.554335 
L 365.822313 -103.804677 
L 365.747343 -106.055019 
L 365.652884 -108.305361 
L 365.537871 -110.555702 
L 365.401346 -112.806044 
L 365.242462 -115.056386 
L 365.060494 -117.306728 
L 364.854846 -119.557069 
L 364.62506 -121.807411 
L 364.370833 -124.057753 
L 364.092022 -126.308095 
L 363.788663 -128.558437 
L 363.46098 -130.808778 
L 363.1094 -133.05912 
L 362.734566 -135.309462 
L 362.337349 -137.559804 
L 361.918858 -139.810145 
L 361.480448 -142.060487 
L 361.023724 -144.310829 
L 360.550544 -146.561171 
L 360.063016 -148.811512 
L 359.563491 -151.061854 
L 359.054548 -153.312196 
L 358.53898 -155.562538 
L 358.019766 -157.81288 
L 357.500039 -160.063221 
L 356.983058 -162.313563 
L 356.472155 -164.563905 
L 355.970697 -166.814247 
L 355.482028 -169.064588 
L 355.009416 -171.31493 
L 354.555999 -173.565272 
L 354.124719 -175.815614 
L 353.718276 -178.065955 
L 353.339062 -180.316297 
L 352.989123 -182.566639 
L 352.670107 -184.816981 
L 352.383234 -187.067323 
L 352.129272 -189.317664 
L 351.908524 -191.568006 
L 351.720823 -193.818348 
L 351.565555 -196.06869 
L 351.441675 -198.319031 
L 351.347757 -200.569373 
L 351.282037 -202.819715 
L 351.242486 -205.070057 
L 351.226875 -207.320398 
L 351.23286 -209.57074 
L 351.258065 -211.821082 
L 351.300164 -214.071424 
L 351.356966 -216.321765 
L 351.426495 -218.572107 
L 351.507053 -220.822449 
L 351.597286 -223.072791 
L 351.696221 -225.323133 
L 351.803296 -227.573474 
L 351.918378 -229.823816 
L 352.041749 -232.074158 
L 352.174086 -234.3245 
L 352.316424 -236.574841 
L 352.470098 -238.825183 
L 352.636676 -241.075525 
L 352.817882 -243.325867 
L 353.015511 -245.576208 
L 353.231342 -247.82655 
L 353.467045 -250.076892 
L 353.724104 -252.327234 
L 354.003731 -254.577576 
L 354.306801 -256.827917 
L 354.633795 -259.078259 
L 354.984757 -261.328601 
L 355.359267 -263.578943 
L 355.756432 -265.829284 
L 356.174888 -268.079626 
L 356.612823 -270.329968 
L 357.068013 -272.58031 
L 357.53787 -274.830651 
L 358.019498 -277.080993 
L 358.509766 -279.331335 
L 375.563984 -279.331335 
L 375.563984 -279.331335 
L 376.054252 -277.080993 
L 376.53588 -274.830651 
L 377.005737 -272.58031 
L 377.460927 -270.329968 
L 377.898862 -268.079626 
L 378.317318 -265.829284 
L 378.714483 -263.578943 
L 379.088993 -261.328601 
L 379.439955 -259.078259 
L 379.766949 -256.827917 
L 380.070019 -254.577576 
L 380.349646 -252.327234 
L 380.606705 -250.076892 
L 380.842408 -247.82655 
L 381.058239 -245.576208 
L 381.255868 -243.325867 
L 381.437074 -241.075525 
L 381.603652 -238.825183 
L 381.757326 -236.574841 
L 381.899664 -234.3245 
L 382.032001 -232.074158 
L 382.155372 -229.823816 
L 382.270454 -227.573474 
L 382.377529 -225.323133 
L 382.476464 -223.072791 
L 382.566697 -220.822449 
L 382.647255 -218.572107 
L 382.716784 -216.321765 
L 382.773586 -214.071424 
L 382.815685 -211.821082 
L 382.84089 -209.57074 
L 382.846875 -207.320398 
L 382.831264 -205.070057 
L 382.791713 -202.819715 
L 382.725993 -200.569373 
L 382.632075 -198.319031 
L 382.508195 -196.06869 
L 382.352927 -193.818348 
L 382.165226 -191.568006 
L 381.944478 -189.317664 
L 381.690516 -187.067323 
L 381.403643 -184.816981 
L 381.084627 -182.566639 
L 380.734688 -180.316297 
L 380.355474 -178.065955 
L 379.949031 -175.815614 
L 379.517751 -173.565272 
L 379.064334 -171.31493 
L 378.591722 -169.064588 
L 378.103053 -166.814247 
L 377.601595 -164.563905 
L 377.090692 -162.313563 
L 376.573711 -160.063221 
L 376.053984 -157.81288 
L 375.53477 -155.562538 
L 375.019202 -153.312196 
L 374.510259 -151.061854 
L 374.010734 -148.811512 
L 373.523206 -146.561171 
L 373.050026 -144.310829 
L 372.593302 -142.060487 
L 372.154892 -139.810145 
L 371.736401 -137.559804 
L 371.339184 -135.309462 
L 370.96435 -133.05912 
L 370.61277 -130.808778 
L 370.285087 -128.558437 
L 369.981728 -126.308095 
L 369.702917 -124.057753 
L 369.44869 -121.807411 
L 369.218904 -119.557069 
L 369.013256 -117.306728 
L 368.831288 -115.056386 
L 368.672404 -112.806044 
L 368.535879 -110.555702 
L 368.420866 -108.305361 
L 368.326407 -106.055019 
L 368.251437 -103.804677 
L 368.194794 -101.554335 
L 368.155221 -99.303994 
L 368.131379 -97.053652 
L 368.121844 -94.80331 
L 368.125126 -92.552968 
L 368.139668 -90.302627 
L 368.163863 -88.052285 
L 368.196064 -85.801943 
L 368.234598 -83.551601 
L 368.277783 -81.301259 
L 368.323948 -79.050918 
L 368.371451 -76.800576 
L 368.418702 -74.550234 
L 368.464185 -72.299892 
L 368.506481 -70.049551 
L 368.544291 -67.799209 
L 368.576454 -65.548867 
L 368.601968 -63.298525 
L 368.620006 -61.048184 
L 368.629927 -58.797842 
L 368.631287 -56.5475 
z
" style="stroke: #000000; stroke-opacity: 0.65"/>
    </defs>
    <g clip-path="url(#pd1b5716d99)">
     <use xlink:href="#mbca8a68b37" x="0" y="402.464375" style="fill: #0ec72a; fill-opacity: 0.65; stroke: #000000; stroke-opacity: 0.65"/>
    </g>
   </g>
   <g id="matplotlib.axis_1">
    <g id="xtick_1">
     <g id="line2d_1">
      <defs>
       <path id="mb94f9df325" d="M 0 0 
L 0 3.5 
" style="stroke: #000000; stroke-width: 0.8"/>
      </defs>
      <g>
       <use xlink:href="#mb94f9df325" x="114.076875" y="361.036875" style="stroke: #000000; stroke-width: 0.8"/>
      </g>
     </g>
     <g id="text_1">
      <!-- cask -->
      <g transform="translate(102.763594 375.635312) scale(0.1 -0.1)">
       <defs>
        <path id="DejaVuSans-63" d="M 3122 3366 
L 3122 2828 
Q 2878 2963 2633 3030 
Q 2388 3097 2138 3097 
Q 1578 3097 1268 2742 
Q 959 2388 959 1747 
Q 959 1106 1268 751 
Q 1578 397 2138 397 
Q 2388 397 2633 464 
Q 2878 531 3122 666 
L 3122 134 
Q 2881 22 2623 -34 
Q 2366 -91 2075 -91 
Q 1284 -91 818 406 
Q 353 903 353 1747 
Q 353 2603 823 3093 
Q 1294 3584 2113 3584 
Q 2378 3584 2631 3529 
Q 2884 3475 3122 3366 
z
" transform="scale(0.015625)"/>
        <path id="DejaVuSans-61" d="M 2194 1759 
Q 1497 1759 1228 1600 
Q 959 1441 959 1056 
Q 959 750 1161 570 
Q 1363 391 1709 391 
Q 2188 391 2477 730 
Q 2766 1069 2766 1631 
L 2766 1759 
L 2194 1759 
z
M 3341 1997 
L 3341 0 
L 2766 0 
L 2766 531 
Q 2569 213 2275 61 
Q 1981 -91 1556 -91 
Q 1019 -91 701 211 
Q 384 513 384 1019 
Q 384 1609 779 1909 
Q 1175 2209 1959 2209 
L 2766 2209 
L 2766 2266 
Q 2766 2663 2505 2880 
Q 2244 3097 1772 3097 
Q 1472 3097 1187 3025 
Q 903 2953 641 2809 
L 641 3341 
Q 956 3463 1253 3523 
Q 1550 3584 1831 3584 
Q 2591 3584 2966 3190 
Q 3341 2797 3341 1997 
z
" transform="scale(0.015625)"/>
        <path id="DejaVuSans-73" d="M 2834 3397 
L 2834 2853 
Q 2591 2978 2328 3040 
Q 2066 3103 1784 3103 
Q 1356 3103 1142 2972 
Q 928 2841 928 2578 
Q 928 2378 1081 2264 
Q 1234 2150 1697 2047 
L 1894 2003 
Q 2506 1872 2764 1633 
Q 3022 1394 3022 966 
Q 3022 478 2636 193 
Q 2250 -91 1575 -91 
Q 1294 -91 989 -36 
Q 684 19 347 128 
L 347 722 
Q 666 556 975 473 
Q 1284 391 1588 391 
Q 1994 391 2212 530 
Q 2431 669 2431 922 
Q 2431 1156 2273 1281 
Q 2116 1406 1581 1522 
L 1381 1569 
Q 847 1681 609 1914 
Q 372 2147 372 2553 
Q 372 3047 722 3315 
Q 1072 3584 1716 3584 
Q 2034 3584 2315 3537 
Q 2597 3491 2834 3397 
z
" transform="scale(0.015625)"/>
        <path id="DejaVuSans-6b" d="M 581 4863 
L 1159 4863 
L 1159 1991 
L 2875 3500 
L 3609 3500 
L 1753 1863 
L 3688 0 
L 2938 0 
L 1159 1709 
L 1159 0 
L 581 0 
L 581 4863 
z
" transform="scale(0.015625)"/>
       </defs>
       <use xlink:href="#DejaVuSans-63"/>
       <use xlink:href="#DejaVuSans-61" x="54.980469"/>
       <use xlink:href="#DejaVuSans-73" x="116.259766"/>
       <use xlink:href="#DejaVuSans-6b" x="168.359375"/>
      </g>
     </g>
    </g>
    <g id="xtick_2">
     <g id="line2d_2">
      <g>
       <use xlink:href="#mb94f9df325" x="240.556875" y="361.036875" style="stroke: #000000; stroke-width: 0.8"/>
      </g>
     </g>
     <g id="text_2">
      <!-- ctrl -->
      <g transform="translate(232.402969 375.635312) scale(0.1 -0.1)">
       <defs>
        <path id="DejaVuSans-74" d="M 1172 4494 
L 1172 3500 
L 2356 3500 
L 2356 3053 
L 1172 3053 
L 1172 1153 
Q 1172 725 1289 603 
Q 1406 481 1766 481 
L 2356 481 
L 2356 0 
L 1766 0 
Q 1100 0 847 248 
Q 594 497 594 1153 
L 594 3053 
L 172 3053 
L 172 3500 
L 594 3500 
L 594 4494 
L 1172 4494 
z
" transform="scale(0.015625)"/>
        <path id="DejaVuSans-72" d="M 2631 2963 
Q 2534 3019 2420 3045 
Q 2306 3072 2169 3072 
Q 1681 3072 1420 2755 
Q 1159 2438 1159 1844 
L 1159 0 
L 581 0 
L 581 3500 
L 1159 3500 
L 1159 2956 
Q 1341 3275 1631 3429 
Q 1922 3584 2338 3584 
Q 2397 3584 2469 3576 
Q 2541 3569 2628 3553 
L 2631 2963 
z
" transform="scale(0.015625)"/>
        <path id="DejaVuSans-6c" d="M 603 4863 
L 1178 4863 
L 1178 0 
L 603 0 
L 603 4863 
z
" transform="scale(0.015625)"/>
       </defs>
       <use xlink:href="#DejaVuSans-63"/>
       <use xlink:href="#DejaVuSans-74" x="54.980469"/>
       <use xlink:href="#DejaVuSans-72" x="94.189453"/>
       <use xlink:href="#DejaVuSans-6c" x="135.302734"/>
      </g>
     </g>
    </g>
    <g id="xtick_3">
     <g id="line2d_3">
      <g>
       <use xlink:href="#mb94f9df325" x="367.036875" y="361.036875" style="stroke: #000000; stroke-width: 0.8"/>
      </g>
     </g>
     <g id="text_3">
      <!-- female -->
      <g transform="translate(349.800156 375.635312) scale(0.1 -0.1)">
       <defs>
        <path id="DejaVuSans-66" d="M 2375 4863 
L 2375 4384 
L 1825 4384 
Q 1516 4384 1395 4259 
Q 1275 4134 1275 3809 
L 1275 3500 
L 2222 3500 
L 2222 3053 
L 1275 3053 
L 1275 0 
L 697 0 
L 697 3053 
L 147 3053 
L 147 3500 
L 697 3500 
L 697 3744 
Q 697 4328 969 4595 
Q 1241 4863 1831 4863 
L 2375 4863 
z
" transform="scale(0.015625)"/>
        <path id="DejaVuSans-65" d="M 3597 1894 
L 3597 1613 
L 953 1613 
Q 991 1019 1311 708 
Q 1631 397 2203 397 
Q 2534 397 2845 478 
Q 3156 559 3463 722 
L 3463 178 
Q 3153 47 2828 -22 
Q 2503 -91 2169 -91 
Q 1331 -91 842 396 
Q 353 884 353 1716 
Q 353 2575 817 3079 
Q 1281 3584 2069 3584 
Q 2775 3584 3186 3129 
Q 3597 2675 3597 1894 
z
M 3022 2063 
Q 3016 2534 2758 2815 
Q 2500 3097 2075 3097 
Q 1594 3097 1305 2825 
Q 1016 2553 972 2059 
L 3022 2063 
z
" transform="scale(0.015625)"/>
        <path id="DejaVuSans-6d" d="M 3328 2828 
Q 3544 3216 3844 3400 
Q 4144 3584 4550 3584 
Q 5097 3584 5394 3201 
Q 5691 2819 5691 2113 
L 5691 0 
L 5113 0 
L 5113 2094 
Q 5113 2597 4934 2840 
Q 4756 3084 4391 3084 
Q 3944 3084 3684 2787 
Q 3425 2491 3425 1978 
L 3425 0 
L 2847 0 
L 2847 2094 
Q 2847 2600 2669 2842 
Q 2491 3084 2119 3084 
Q 1678 3084 1418 2786 
Q 1159 2488 1159 1978 
L 1159 0 
L 581 0 
L 581 3500 
L 1159 3500 
L 1159 2956 
Q 1356 3278 1631 3431 
Q 1906 3584 2284 3584 
Q 2666 3584 2933 3390 
Q 3200 3197 3328 2828 
z
" transform="scale(0.015625)"/>
       </defs>
       <use xlink:href="#DejaVuSans-66"/>
       <use xlink:href="#DejaVuSans-65" x="35.205078"/>
       <use xlink:href="#DejaVuSans-6d" x="96.728516"/>
       <use xlink:href="#DejaVuSans-61" x="194.140625"/>
       <use xlink:href="#DejaVuSans-6c" x="255.419922"/>
       <use xlink:href="#DejaVuSans-65" x="283.203125"/>
      </g>
     </g>
    </g>
    <g id="text_4">
     <!-- Groups -->
     <g transform="translate(215.602969 392.352812) scale(0.14 -0.14)">
      <defs>
       <path id="DejaVuSans-47" d="M 3809 666 
L 3809 1919 
L 2778 1919 
L 2778 2438 
L 4434 2438 
L 4434 434 
Q 4069 175 3628 42 
Q 3188 -91 2688 -91 
Q 1594 -91 976 548 
Q 359 1188 359 2328 
Q 359 3472 976 4111 
Q 1594 4750 2688 4750 
Q 3144 4750 3555 4637 
Q 3966 4525 4313 4306 
L 4313 3634 
Q 3963 3931 3569 4081 
Q 3175 4231 2741 4231 
Q 1884 4231 1454 3753 
Q 1025 3275 1025 2328 
Q 1025 1384 1454 906 
Q 1884 428 2741 428 
Q 3075 428 3337 486 
Q 3600 544 3809 666 
z
" transform="scale(0.015625)"/>
       <path id="DejaVuSans-6f" d="M 1959 3097 
Q 1497 3097 1228 2736 
Q 959 2375 959 1747 
Q 959 1119 1226 758 
Q 1494 397 1959 397 
Q 2419 397 2687 759 
Q 2956 1122 2956 1747 
Q 2956 2369 2687 2733 
Q 2419 3097 1959 3097 
z
M 1959 3584 
Q 2709 3584 3137 3096 
Q 3566 2609 3566 1747 
Q 3566 888 3137 398 
Q 2709 -91 1959 -91 
Q 1206 -91 779 398 
Q 353 888 353 1747 
Q 353 2609 779 3096 
Q 1206 3584 1959 3584 
z
" transform="scale(0.015625)"/>
       <path id="DejaVuSans-75" d="M 544 1381 
L 544 3500 
L 1119 3500 
L 1119 1403 
Q 1119 906 1312 657 
Q 1506 409 1894 409 
Q 2359 409 2629 706 
Q 2900 1003 2900 1516 
L 2900 3500 
L 3475 3500 
L 3475 0 
L 2900 0 
L 2900 538 
Q 2691 219 2414 64 
Q 2138 -91 1772 -91 
Q 1169 -91 856 284 
Q 544 659 544 1381 
z
M 1991 3584 
L 1991 3584 
z
" transform="scale(0.015625)"/>
       <path id="DejaVuSans-70" d="M 1159 525 
L 1159 -1331 
L 581 -1331 
L 581 3500 
L 1159 3500 
L 1159 2969 
Q 1341 3281 1617 3432 
Q 1894 3584 2278 3584 
Q 2916 3584 3314 3078 
Q 3713 2572 3713 1747 
Q 3713 922 3314 415 
Q 2916 -91 2278 -91 
Q 1894 -91 1617 61 
Q 1341 213 1159 525 
z
M 3116 1747 
Q 3116 2381 2855 2742 
Q 2594 3103 2138 3103 
Q 1681 3103 1420 2742 
Q 1159 2381 1159 1747 
Q 1159 1113 1420 752 
Q 1681 391 2138 391 
Q 2594 391 2855 752 
Q 3116 1113 3116 1747 
z
" transform="scale(0.015625)"/>
      </defs>
      <use xlink:href="#DejaVuSans-47"/>
      <use xlink:href="#DejaVuSans-72" x="77.490234"/>
      <use xlink:href="#DejaVuSans-6f" x="116.353516"/>
      <use xlink:href="#DejaVuSans-75" x="177.535156"/>
      <use xlink:href="#DejaVuSans-70" x="240.914062"/>
      <use xlink:href="#DejaVuSans-73" x="304.390625"/>
     </g>
    </g>
   </g>
   <g id="matplotlib.axis_2">
    <g id="ytick_1">
     <g id="line2d_4">
      <path d="M 50.836875 354.710735 
L 430.276875 354.710735 
" clip-path="url(#pd1b5716d99)" style="fill: none; stroke-dasharray: 2.96,1.28; stroke-dashoffset: 0; stroke: #b0b0b0; stroke-opacity: 0.3; stroke-width: 0.8"/>
     </g>
     <g id="line2d_5">
      <defs>
       <path id="m6f9f6252fb" d="M 0 0 
L -3.5 0 
" style="stroke: #000000; stroke-width: 0.8"/>
      </defs>
      <g>
       <use xlink:href="#m6f9f6252fb" x="50.836875" y="354.710735" style="stroke: #000000; stroke-width: 0.8"/>
      </g>
     </g>
     <g id="text_5">
      <!-- 100 -->
      <g transform="translate(24.749375 358.509954) scale(0.1 -0.1)">
       <defs>
        <path id="DejaVuSans-31" d="M 794 531 
L 1825 531 
L 1825 4091 
L 703 3866 
L 703 4441 
L 1819 4666 
L 2450 4666 
L 2450 531 
L 3481 531 
L 3481 0 
L 794 0 
L 794 531 
z
" transform="scale(0.015625)"/>
        <path id="DejaVuSans-30" d="M 2034 4250 
Q 1547 4250 1301 3770 
Q 1056 3291 1056 2328 
Q 1056 1369 1301 889 
Q 1547 409 2034 409 
Q 2525 409 2770 889 
Q 3016 1369 3016 2328 
Q 3016 3291 2770 3770 
Q 2525 4250 2034 4250 
z
M 2034 4750 
Q 2819 4750 3233 4129 
Q 3647 3509 3647 2328 
Q 3647 1150 3233 529 
Q 2819 -91 2034 -91 
Q 1250 -91 836 529 
Q 422 1150 422 2328 
Q 422 3509 836 4129 
Q 1250 4750 2034 4750 
z
" transform="scale(0.015625)"/>
       </defs>
       <use xlink:href="#DejaVuSans-31"/>
       <use xlink:href="#DejaVuSans-30" x="63.623047"/>
       <use xlink:href="#DejaVuSans-30" x="127.246094"/>
      </g>
     </g>
    </g>
    <g id="ytick_2">
     <g id="line2d_6">
      <path d="M 50.836875 309.381559 
L 430.276875 309.381559 
" clip-path="url(#pd1b5716d99)" style="fill: none; stroke-dasharray: 2.96,1.28; stroke-dashoffset: 0; stroke: #b0b0b0; stroke-opacity: 0.3; stroke-width: 0.8"/>
     </g>
     <g id="line2d_7">
      <g>
       <use xlink:href="#m6f9f6252fb" x="50.836875" y="309.381559" style="stroke: #000000; stroke-width: 0.8"/>
      </g>
     </g>
     <g id="text_6">
      <!-- 125 -->
      <g transform="translate(24.749375 313.180778) scale(0.1 -0.1)">
       <defs>
        <path id="DejaVuSans-32" d="M 1228 531 
L 3431 531 
L 3431 0 
L 469 0 
L 469 531 
Q 828 903 1448 1529 
Q 2069 2156 2228 2338 
Q 2531 2678 2651 2914 
Q 2772 3150 2772 3378 
Q 2772 3750 2511 3984 
Q 2250 4219 1831 4219 
Q 1534 4219 1204 4116 
Q 875 4013 500 3803 
L 500 4441 
Q 881 4594 1212 4672 
Q 1544 4750 1819 4750 
Q 2544 4750 2975 4387 
Q 3406 4025 3406 3419 
Q 3406 3131 3298 2873 
Q 3191 2616 2906 2266 
Q 2828 2175 2409 1742 
Q 1991 1309 1228 531 
z
" transform="scale(0.015625)"/>
        <path id="DejaVuSans-35" d="M 691 4666 
L 3169 4666 
L 3169 4134 
L 1269 4134 
L 1269 2991 
Q 1406 3038 1543 3061 
Q 1681 3084 1819 3084 
Q 2600 3084 3056 2656 
Q 3513 2228 3513 1497 
Q 3513 744 3044 326 
Q 2575 -91 1722 -91 
Q 1428 -91 1123 -41 
Q 819 9 494 109 
L 494 744 
Q 775 591 1075 516 
Q 1375 441 1709 441 
Q 2250 441 2565 725 
Q 2881 1009 2881 1497 
Q 2881 1984 2565 2268 
Q 2250 2553 1709 2553 
Q 1456 2553 1204 2497 
Q 953 2441 691 2322 
L 691 4666 
z
" transform="scale(0.015625)"/>
       </defs>
       <use xlink:href="#DejaVuSans-31"/>
       <use xlink:href="#DejaVuSans-32" x="63.623047"/>
       <use xlink:href="#DejaVuSans-35" x="127.246094"/>
      </g>
     </g>
    </g>
    <g id="ytick_3">
     <g id="line2d_8">
      <path d="M 50.836875 264.052383 
L 430.276875 264.052383 
" clip-path="url(#pd1b5716d99)" style="fill: none; stroke-dasharray: 2.96,1.28; stroke-dashoffset: 0; stroke: #b0b0b0; stroke-opacity: 0.3; stroke-width: 0.8"/>
     </g>
     <g id="line2d_9">
      <g>
       <use xlink:href="#m6f9f6252fb" x="50.836875" y="264.052383" style="stroke: #000000; stroke-width: 0.8"/>
      </g>
     </g>
     <g id="text_7">
      <!-- 150 -->
      <g transform="translate(24.749375 267.851602) scale(0.1 -0.1)">
       <use xlink:href="#DejaVuSans-31"/>
       <use xlink:href="#DejaVuSans-35" x="63.623047"/>
       <use xlink:href="#DejaVuSans-30" x="127.246094"/>
      </g>
     </g>
    </g>
    <g id="ytick_4">
     <g id="line2d_10">
      <path d="M 50.836875 218.723207 
L 430.276875 218.723207 
" clip-path="url(#pd1b5716d99)" style="fill: none; stroke-dasharray: 2.96,1.28; stroke-dashoffset: 0; stroke: #b0b0b0; stroke-opacity: 0.3; stroke-width: 0.8"/>
     </g>
     <g id="line2d_11">
      <g>
       <use xlink:href="#m6f9f6252fb" x="50.836875" y="218.723207" style="stroke: #000000; stroke-width: 0.8"/>
      </g>
     </g>
     <g id="text_8">
      <!-- 175 -->
      <g transform="translate(24.749375 222.522425) scale(0.1 -0.1)">
       <defs>
        <path id="DejaVuSans-37" d="M 525 4666 
L 3525 4666 
L 3525 4397 
L 1831 0 
L 1172 0 
L 2766 4134 
L 525 4134 
L 525 4666 
z
" transform="scale(0.015625)"/>
       </defs>
       <use xlink:href="#DejaVuSans-31"/>
       <use xlink:href="#DejaVuSans-37" x="63.623047"/>
       <use xlink:href="#DejaVuSans-35" x="127.246094"/>
      </g>
     </g>
    </g>
    <g id="ytick_5">
     <g id="line2d_12">
      <path d="M 50.836875 173.394031 
L 430.276875 173.394031 
" clip-path="url(#pd1b5716d99)" style="fill: none; stroke-dasharray: 2.96,1.28; stroke-dashoffset: 0; stroke: #b0b0b0; stroke-opacity: 0.3; stroke-width: 0.8"/>
     </g>
     <g id="line2d_13">
      <g>
       <use xlink:href="#m6f9f6252fb" x="50.836875" y="173.394031" style="stroke: #000000; stroke-width: 0.8"/>
      </g>
     </g>
     <g id="text_9">
      <!-- 200 -->
      <g transform="translate(24.749375 177.193249) scale(0.1 -0.1)">
       <use xlink:href="#DejaVuSans-32"/>
       <use xlink:href="#DejaVuSans-30" x="63.623047"/>
       <use xlink:href="#DejaVuSans-30" x="127.246094"/>
      </g>
     </g>
    </g>
    <g id="ytick_6">
     <g id="line2d_14">
      <path d="M 50.836875 128.064854 
L 430.276875 128.064854 
" clip-path="url(#pd1b5716d99)" style="fill: none; stroke-dasharray: 2.96,1.28; stroke-dashoffset: 0; stroke: #b0b0b0; stroke-opacity: 0.3; stroke-width: 0.8"/>
     </g>
     <g id="line2d_15">
      <g>
       <use xlink:href="#m6f9f6252fb" x="50.836875" y="128.064854" style="stroke: #000000; stroke-width: 0.8"/>
      </g>
     </g>
     <g id="text_10">
      <!-- 225 -->
      <g transform="translate(24.749375 131.864073) scale(0.1 -0.1)">
       <use xlink:href="#DejaVuSans-32"/>
       <use xlink:href="#DejaVuSans-32" x="63.623047"/>
       <use xlink:href="#DejaVuSans-35" x="127.246094"/>
      </g>
     </g>
    </g>
    <g id="ytick_7">
     <g id="line2d_16">
      <path d="M 50.836875 82.735678 
L 430.276875 82.735678 
" clip-path="url(#pd1b5716d99)" style="fill: none; stroke-dasharray: 2.96,1.28; stroke-dashoffset: 0; stroke: #b0b0b0; stroke-opacity: 0.3; stroke-width: 0.8"/>
     </g>
     <g id="line2d_17">
      <g>
       <use xlink:href="#m6f9f6252fb" x="50.836875" y="82.735678" style="stroke: #000000; stroke-width: 0.8"/>
      </g>
     </g>
     <g id="text_11">
      <!-- 250 -->
      <g transform="translate(24.749375 86.534897) scale(0.1 -0.1)">
       <use xlink:href="#DejaVuSans-32"/>
       <use xlink:href="#DejaVuSans-35" x="63.623047"/>
       <use xlink:href="#DejaVuSans-30" x="127.246094"/>
      </g>
     </g>
    </g>
    <g id="ytick_8">
     <g id="line2d_18">
      <path d="M 50.836875 37.406502 
L 430.276875 37.406502 
" clip-path="url(#pd1b5716d99)" style="fill: none; stroke-dasharray: 2.96,1.28; stroke-dashoffset: 0; stroke: #b0b0b0; stroke-opacity: 0.3; stroke-width: 0.8"/>
     </g>
     <g id="line2d_19">
      <g>
       <use xlink:href="#m6f9f6252fb" x="50.836875" y="37.406502" style="stroke: #000000; stroke-width: 0.8"/>
      </g>
     </g>
     <g id="text_12">
      <!-- 275 -->
      <g transform="translate(24.749375 41.205721) scale(0.1 -0.1)">
       <use xlink:href="#DejaVuSans-32"/>
       <use xlink:href="#DejaVuSans-37" x="63.623047"/>
       <use xlink:href="#DejaVuSans-35" x="127.246094"/>
      </g>
     </g>
    </g>
    <g id="text_13">
     <!-- Reversal Average Pellets (pellets/hour) -->
     <g transform="translate(17.837813 330.255469) rotate(-90) scale(0.14 -0.14)">
      <defs>
       <path id="DejaVuSans-52" d="M 2841 2188 
Q 3044 2119 3236 1894 
Q 3428 1669 3622 1275 
L 4263 0 
L 3584 0 
L 2988 1197 
Q 2756 1666 2539 1819 
Q 2322 1972 1947 1972 
L 1259 1972 
L 1259 0 
L 628 0 
L 628 4666 
L 2053 4666 
Q 2853 4666 3247 4331 
Q 3641 3997 3641 3322 
Q 3641 2881 3436 2590 
Q 3231 2300 2841 2188 
z
M 1259 4147 
L 1259 2491 
L 2053 2491 
Q 2509 2491 2742 2702 
Q 2975 2913 2975 3322 
Q 2975 3731 2742 3939 
Q 2509 4147 2053 4147 
L 1259 4147 
z
" transform="scale(0.015625)"/>
       <path id="DejaVuSans-76" d="M 191 3500 
L 800 3500 
L 1894 563 
L 2988 3500 
L 3597 3500 
L 2284 0 
L 1503 0 
L 191 3500 
z
" transform="scale(0.015625)"/>
       <path id="DejaVuSans-20" transform="scale(0.015625)"/>
       <path id="DejaVuSans-41" d="M 2188 4044 
L 1331 1722 
L 3047 1722 
L 2188 4044 
z
M 1831 4666 
L 2547 4666 
L 4325 0 
L 3669 0 
L 3244 1197 
L 1141 1197 
L 716 0 
L 50 0 
L 1831 4666 
z
" transform="scale(0.015625)"/>
       <path id="DejaVuSans-67" d="M 2906 1791 
Q 2906 2416 2648 2759 
Q 2391 3103 1925 3103 
Q 1463 3103 1205 2759 
Q 947 2416 947 1791 
Q 947 1169 1205 825 
Q 1463 481 1925 481 
Q 2391 481 2648 825 
Q 2906 1169 2906 1791 
z
M 3481 434 
Q 3481 -459 3084 -895 
Q 2688 -1331 1869 -1331 
Q 1566 -1331 1297 -1286 
Q 1028 -1241 775 -1147 
L 775 -588 
Q 1028 -725 1275 -790 
Q 1522 -856 1778 -856 
Q 2344 -856 2625 -561 
Q 2906 -266 2906 331 
L 2906 616 
Q 2728 306 2450 153 
Q 2172 0 1784 0 
Q 1141 0 747 490 
Q 353 981 353 1791 
Q 353 2603 747 3093 
Q 1141 3584 1784 3584 
Q 2172 3584 2450 3431 
Q 2728 3278 2906 2969 
L 2906 3500 
L 3481 3500 
L 3481 434 
z
" transform="scale(0.015625)"/>
       <path id="DejaVuSans-50" d="M 1259 4147 
L 1259 2394 
L 2053 2394 
Q 2494 2394 2734 2622 
Q 2975 2850 2975 3272 
Q 2975 3691 2734 3919 
Q 2494 4147 2053 4147 
L 1259 4147 
z
M 628 4666 
L 2053 4666 
Q 2838 4666 3239 4311 
Q 3641 3956 3641 3272 
Q 3641 2581 3239 2228 
Q 2838 1875 2053 1875 
L 1259 1875 
L 1259 0 
L 628 0 
L 628 4666 
z
" transform="scale(0.015625)"/>
       <path id="DejaVuSans-28" d="M 1984 4856 
Q 1566 4138 1362 3434 
Q 1159 2731 1159 2009 
Q 1159 1288 1364 580 
Q 1569 -128 1984 -844 
L 1484 -844 
Q 1016 -109 783 600 
Q 550 1309 550 2009 
Q 550 2706 781 3412 
Q 1013 4119 1484 4856 
L 1984 4856 
z
" transform="scale(0.015625)"/>
       <path id="DejaVuSans-2f" d="M 1625 4666 
L 2156 4666 
L 531 -594 
L 0 -594 
L 1625 4666 
z
" transform="scale(0.015625)"/>
       <path id="DejaVuSans-68" d="M 3513 2113 
L 3513 0 
L 2938 0 
L 2938 2094 
Q 2938 2591 2744 2837 
Q 2550 3084 2163 3084 
Q 1697 3084 1428 2787 
Q 1159 2491 1159 1978 
L 1159 0 
L 581 0 
L 581 4863 
L 1159 4863 
L 1159 2956 
Q 1366 3272 1645 3428 
Q 1925 3584 2291 3584 
Q 2894 3584 3203 3211 
Q 3513 2838 3513 2113 
z
" transform="scale(0.015625)"/>
       <path id="DejaVuSans-29" d="M 513 4856 
L 1013 4856 
Q 1481 4119 1714 3412 
Q 1947 2706 1947 2009 
Q 1947 1309 1714 600 
Q 1481 -109 1013 -844 
L 513 -844 
Q 928 -128 1133 580 
Q 1338 1288 1338 2009 
Q 1338 2731 1133 3434 
Q 928 4138 513 4856 
z
" transform="scale(0.015625)"/>
      </defs>
      <use xlink:href="#DejaVuSans-52"/>
      <use xlink:href="#DejaVuSans-65" x="64.982422"/>
      <use xlink:href="#DejaVuSans-76" x="126.505859"/>
      <use xlink:href="#DejaVuSans-65" x="185.685547"/>
      <use xlink:href="#DejaVuSans-72" x="247.208984"/>
      <use xlink:href="#DejaVuSans-73" x="288.322266"/>
      <use xlink:href="#DejaVuSans-61" x="340.421875"/>
      <use xlink:href="#DejaVuSans-6c" x="401.701172"/>
      <use xlink:href="#DejaVuSans-20" x="429.484375"/>
      <use xlink:href="#DejaVuSans-41" x="461.271484"/>
      <use xlink:href="#DejaVuSans-76" x="523.804688"/>
      <use xlink:href="#DejaVuSans-65" x="582.984375"/>
      <use xlink:href="#DejaVuSans-72" x="644.507812"/>
      <use xlink:href="#DejaVuSans-61" x="685.621094"/>
      <use xlink:href="#DejaVuSans-67" x="746.900391"/>
      <use xlink:href="#DejaVuSans-65" x="810.376953"/>
      <use xlink:href="#DejaVuSans-20" x="871.900391"/>
      <use xlink:href="#DejaVuSans-50" x="903.6875"/>
      <use xlink:href="#DejaVuSans-65" x="960.365234"/>
      <use xlink:href="#DejaVuSans-6c" x="1021.888672"/>
      <use xlink:href="#DejaVuSans-6c" x="1049.671875"/>
      <use xlink:href="#DejaVuSans-65" x="1077.455078"/>
      <use xlink:href="#DejaVuSans-74" x="1138.978516"/>
      <use xlink:href="#DejaVuSans-73" x="1178.1875"/>
      <use xlink:href="#DejaVuSans-20" x="1230.287109"/>
      <use xlink:href="#DejaVuSans-28" x="1262.074219"/>
      <use xlink:href="#DejaVuSans-70" x="1301.087891"/>
      <use xlink:href="#DejaVuSans-65" x="1364.564453"/>
      <use xlink:href="#DejaVuSans-6c" x="1426.087891"/>
      <use xlink:href="#DejaVuSans-6c" x="1453.871094"/>
      <use xlink:href="#DejaVuSans-65" x="1481.654297"/>
      <use xlink:href="#DejaVuSans-74" x="1543.177734"/>
      <use xlink:href="#DejaVuSans-73" x="1582.386719"/>
      <use xlink:href="#DejaVuSans-2f" x="1634.486328"/>
      <use xlink:href="#DejaVuSans-68" x="1668.177734"/>
      <use xlink:href="#DejaVuSans-6f" x="1731.556641"/>
      <use xlink:href="#DejaVuSans-75" x="1792.738281"/>
      <use xlink:href="#DejaVuSans-72" x="1856.117188"/>
      <use xlink:href="#DejaVuSans-29" x="1897.230469"/>
     </g>
    </g>
   </g>
   <g id="patch_3">
    <path d="M 104.590875 166.576522 
L 123.562875 166.576522 
L 123.562875 79.25893 
L 104.590875 79.25893 
L 104.590875 166.576522 
z
" clip-path="url(#pd1b5716d99)" style="fill: #ffffff; stroke: #000000; stroke-linejoin: miter"/>
   </g>
   <g id="line2d_20">
    <path d="M 114.076875 166.576522 
L 114.076875 208.76892 
" clip-path="url(#pd1b5716d99)" style="fill: none; stroke: #000000; stroke-linecap: square"/>
   </g>
   <g id="line2d_21">
    <path d="M 114.076875 79.25893 
L 114.076875 43.516875 
" clip-path="url(#pd1b5716d99)" style="fill: none; stroke: #000000; stroke-linecap: square"/>
   </g>
   <g id="line2d_22">
    <path d="M 109.333875 208.76892 
L 118.819875 208.76892 
" clip-path="url(#pd1b5716d99)" style="fill: none; stroke: #000000; stroke-linecap: square"/>
   </g>
   <g id="line2d_23">
    <path d="M 109.333875 43.516875 
L 118.819875 43.516875 
" clip-path="url(#pd1b5716d99)" style="fill: none; stroke: #000000; stroke-linecap: square"/>
   </g>
   <g id="patch_4">
    <path d="M 231.070875 219.802041 
L 250.042875 219.802041 
L 250.042875 156.300398 
L 231.070875 156.300398 
L 231.070875 219.802041 
z
" clip-path="url(#pd1b5716d99)" style="fill: #ffffff; stroke: #000000; stroke-linejoin: miter"/>
   </g>
   <g id="line2d_24">
    <path d="M 240.556875 219.802041 
L 240.556875 245.866317 
" clip-path="url(#pd1b5716d99)" style="fill: none; stroke: #000000; stroke-linecap: square"/>
   </g>
   <g id="line2d_25">
    <path d="M 240.556875 156.300398 
L 240.556875 125.925317 
" clip-path="url(#pd1b5716d99)" style="fill: none; stroke: #000000; stroke-linecap: square"/>
   </g>
   <g id="line2d_26">
    <path d="M 235.813875 245.866317 
L 245.299875 245.866317 
" clip-path="url(#pd1b5716d99)" style="fill: none; stroke: #000000; stroke-linecap: square"/>
   </g>
   <g id="line2d_27">
    <path d="M 235.813875 125.925317 
L 245.299875 125.925317 
" clip-path="url(#pd1b5716d99)" style="fill: none; stroke: #000000; stroke-linecap: square"/>
   </g>
   <g id="patch_5">
    <path d="M 357.550875 217.816623 
L 376.522875 217.816623 
L 376.522875 155.343953 
L 357.550875 155.343953 
L 357.550875 217.816623 
z
" clip-path="url(#pd1b5716d99)" style="fill: #ffffff; stroke: #000000; stroke-linejoin: miter"/>
   </g>
   <g id="line2d_28">
    <path d="M 367.036875 217.816623 
L 367.036875 253.880516 
" clip-path="url(#pd1b5716d99)" style="fill: none; stroke: #000000; stroke-linecap: square"/>
   </g>
   <g id="line2d_29">
    <path d="M 367.036875 155.343953 
L 367.036875 123.13304 
" clip-path="url(#pd1b5716d99)" style="fill: none; stroke: #000000; stroke-linecap: square"/>
   </g>
   <g id="line2d_30">
    <path d="M 362.293875 253.880516 
L 371.779875 253.880516 
" clip-path="url(#pd1b5716d99)" style="fill: none; stroke: #000000; stroke-linecap: square"/>
   </g>
   <g id="line2d_31">
    <path d="M 362.293875 123.13304 
L 371.779875 123.13304 
" clip-path="url(#pd1b5716d99)" style="fill: none; stroke: #000000; stroke-linecap: square"/>
   </g>
   <g id="line2d_32">
    <path d="M 104.590875 136.033724 
L 123.562875 136.033724 
" clip-path="url(#pd1b5716d99)" style="fill: none; stroke: #000000"/>
   </g>
   <g id="line2d_33">
    <path d="M 231.070875 182.215088 
L 250.042875 182.215088 
" clip-path="url(#pd1b5716d99)" style="fill: none; stroke: #000000"/>
   </g>
   <g id="line2d_34">
    <path d="M 357.550875 197.200914 
L 376.522875 197.200914 
" clip-path="url(#pd1b5716d99)" style="fill: none; stroke: #000000"/>
   </g>
   <g id="patch_6">
    <path d="M 50.836875 361.036875 
L 50.836875 28.396875 
" style="fill: none; stroke: #000000; stroke-width: 0.8; stroke-linejoin: miter; stroke-linecap: square"/>
   </g>
   <g id="patch_7">
    <path d="M 430.276875 361.036875 
L 430.276875 28.396875 
" style="fill: none; stroke: #000000; stroke-width: 0.8; stroke-linejoin: miter; stroke-linecap: square"/>
   </g>
   <g id="patch_8">
    <path d="M 50.836875 361.036875 
L 430.276875 361.036875 
" style="fill: none; stroke: #000000; stroke-width: 0.8; stroke-linejoin: miter; stroke-linecap: square"/>
   </g>
   <g id="patch_9">
    <path d="M 50.836875 28.396875 
L 430.276875 28.396875 
" style="fill: none; stroke: #000000; stroke-width: 0.8; stroke-linejoin: miter; stroke-linecap: square"/>
   </g>
   <g id="PathCollection_1">
    <defs>
     <path id="m15cc17a93f" d="M 0 3 
C 0.795609 3 1.55874 2.683901 2.12132 2.12132 
C 2.683901 1.55874 3 0.795609 3 0 
C 3 -0.795609 2.683901 -1.55874 2.12132 -2.12132 
C 1.55874 -2.683901 0.795609 -3 0 -3 
C -0.795609 -3 -1.55874 -2.683901 -2.12132 -2.12132 
C -2.683901 -1.55874 -3 -0.795609 -3 0 
C -3 0.795609 -2.683901 1.55874 -2.12132 2.12132 
C -1.55874 2.683901 -0.795609 3 0 3 
z
" style="stroke: #000000; stroke-opacity: 0.85; stroke-width: 0.4"/>
    </defs>
    <g clip-path="url(#pd1b5716d99)">
     <use xlink:href="#m15cc17a93f" x="109.998091" y="179.051112" style="fill: #425df5; fill-opacity: 0.85; stroke: #000000; stroke-opacity: 0.85; stroke-width: 0.4"/>
     <use xlink:href="#m15cc17a93f" x="110.853521" y="176.004991" style="fill: #425df5; fill-opacity: 0.85; stroke: #000000; stroke-opacity: 0.85; stroke-width: 0.4"/>
     <use xlink:href="#m15cc17a93f" x="113.953669" y="199.249793" style="fill: #425df5; fill-opacity: 0.85; stroke: #000000; stroke-opacity: 0.85; stroke-width: 0.4"/>
     <use xlink:href="#m15cc17a93f" x="116.014573" y="67.12431" style="fill: #425df5; fill-opacity: 0.85; stroke: #000000; stroke-opacity: 0.85; stroke-width: 0.4"/>
     <use xlink:href="#m15cc17a93f" x="113.154117" y="43.516875" style="fill: #425df5; fill-opacity: 0.85; stroke: #000000; stroke-opacity: 0.85; stroke-width: 0.4"/>
     <use xlink:href="#m15cc17a93f" x="115.058024" y="115.408948" style="fill: #425df5; fill-opacity: 0.85; stroke: #000000; stroke-opacity: 0.85; stroke-width: 0.4"/>
     <use xlink:href="#m15cc17a93f" x="117.977882" y="165.597412" style="fill: #425df5; fill-opacity: 0.85; stroke: #000000; stroke-opacity: 0.85; stroke-width: 0.4"/>
     <use xlink:href="#m15cc17a93f" x="118.013795" y="133.794462" style="fill: #425df5; fill-opacity: 0.85; stroke: #000000; stroke-opacity: 0.85; stroke-width: 0.4"/>
     <use xlink:href="#m15cc17a93f" x="111.707126" y="111.184269" style="fill: #425df5; fill-opacity: 0.85; stroke: #000000; stroke-opacity: 0.85; stroke-width: 0.4"/>
     <use xlink:href="#m15cc17a93f" x="114.497002" y="208.76892" style="fill: #425df5; fill-opacity: 0.85; stroke: #000000; stroke-opacity: 0.85; stroke-width: 0.4"/>
     <use xlink:href="#m15cc17a93f" x="118.20636" y="181.807126" style="fill: #425df5; fill-opacity: 0.85; stroke: #000000; stroke-opacity: 0.85; stroke-width: 0.4"/>
     <use xlink:href="#m15cc17a93f" x="114.669552" y="80.886248" style="fill: #425df5; fill-opacity: 0.85; stroke: #000000; stroke-opacity: 0.85; stroke-width: 0.4"/>
     <use xlink:href="#m15cc17a93f" x="112.309078" y="53.7794" style="fill: #425df5; fill-opacity: 0.85; stroke: #000000; stroke-opacity: 0.85; stroke-width: 0.4"/>
     <use xlink:href="#m15cc17a93f" x="115.527827" y="154.790937" style="fill: #425df5; fill-opacity: 0.85; stroke: #000000; stroke-opacity: 0.85; stroke-width: 0.4"/>
     <use xlink:href="#m15cc17a93f" x="109.698038" y="63.661161" style="fill: #425df5; fill-opacity: 0.85; stroke: #000000; stroke-opacity: 0.85; stroke-width: 0.4"/>
     <use xlink:href="#m15cc17a93f" x="113.625258" y="149.387699" style="fill: #425df5; fill-opacity: 0.85; stroke: #000000; stroke-opacity: 0.85; stroke-width: 0.4"/>
     <use xlink:href="#m15cc17a93f" x="114.783202" y="169.513853" style="fill: #425df5; fill-opacity: 0.85; stroke: #000000; stroke-opacity: 0.85; stroke-width: 0.4"/>
     <use xlink:href="#m15cc17a93f" x="117.923206" y="55.501909" style="fill: #425df5; fill-opacity: 0.85; stroke: #000000; stroke-opacity: 0.85; stroke-width: 0.4"/>
     <use xlink:href="#m15cc17a93f" x="114.106559" y="123.495673" style="fill: #425df5; fill-opacity: 0.85; stroke: #000000; stroke-opacity: 0.85; stroke-width: 0.4"/>
     <use xlink:href="#m15cc17a93f" x="114.319135" y="104.820053" style="fill: #425df5; fill-opacity: 0.85; stroke: #000000; stroke-opacity: 0.85; stroke-width: 0.4"/>
     <use xlink:href="#m15cc17a93f" x="111.837751" y="138.272985" style="fill: #425df5; fill-opacity: 0.85; stroke: #000000; stroke-opacity: 0.85; stroke-width: 0.4"/>
     <use xlink:href="#m15cc17a93f" x="112.792223" y="157.909584" style="fill: #425df5; fill-opacity: 0.85; stroke: #000000; stroke-opacity: 0.85; stroke-width: 0.4"/>
     <use xlink:href="#m15cc17a93f" x="113.832857" y="141.844924" style="fill: #425df5; fill-opacity: 0.85; stroke: #000000; stroke-opacity: 0.85; stroke-width: 0.4"/>
     <use xlink:href="#m15cc17a93f" x="114.937678" y="74.376978" style="fill: #425df5; fill-opacity: 0.85; stroke: #000000; stroke-opacity: 0.85; stroke-width: 0.4"/>
    </g>
   </g>
   <g id="PathCollection_2">
    <defs>
     <path id="m761fffca57" d="M 0 3 
C 0.795609 3 1.55874 2.683901 2.12132 2.12132 
C 2.683901 1.55874 3 0.795609 3 0 
C 3 -0.795609 2.683901 -1.55874 2.12132 -2.12132 
C 1.55874 -2.683901 0.795609 -3 0 -3 
C -0.795609 -3 -1.55874 -2.683901 -2.12132 -2.12132 
C -2.683901 -1.55874 -3 -0.795609 -3 0 
C -3 0.795609 -2.683901 1.55874 -2.12132 2.12132 
C -1.55874 2.683901 -0.795609 3 0 3 
z
" style="stroke: #000000; stroke-opacity: 0.85; stroke-width: 0.4"/>
    </defs>
    <g clip-path="url(#pd1b5716d99)">
     <use xlink:href="#m761fffca57" x="243.140103" y="155.570598" style="fill: #f55442; fill-opacity: 0.85; stroke: #000000; stroke-opacity: 0.85; stroke-width: 0.4"/>
     <use xlink:href="#m761fffca57" x="241.216321" y="168.335294" style="fill: #f55442; fill-opacity: 0.85; stroke: #000000; stroke-opacity: 0.85; stroke-width: 0.4"/>
     <use xlink:href="#m761fffca57" x="243.216834" y="225.250608" style="fill: #f55442; fill-opacity: 0.85; stroke: #000000; stroke-opacity: 0.85; stroke-width: 0.4"/>
     <use xlink:href="#m761fffca57" x="240.186951" y="179.051112" style="fill: #f55442; fill-opacity: 0.85; stroke: #000000; stroke-opacity: 0.85; stroke-width: 0.4"/>
     <use xlink:href="#m761fffca57" x="245.10902" y="225.722031" style="fill: #f55442; fill-opacity: 0.85; stroke: #000000; stroke-opacity: 0.85; stroke-width: 0.4"/>
     <use xlink:href="#m761fffca57" x="237.868157" y="176.875311" style="fill: #f55442; fill-opacity: 0.85; stroke: #000000; stroke-opacity: 0.85; stroke-width: 0.4"/>
     <use xlink:href="#m761fffca57" x="244.563867" y="125.925317" style="fill: #f55442; fill-opacity: 0.85; stroke: #000000; stroke-opacity: 0.85; stroke-width: 0.4"/>
     <use xlink:href="#m761fffca57" x="235.867759" y="209.657371" style="fill: #f55442; fill-opacity: 0.85; stroke: #000000; stroke-opacity: 0.85; stroke-width: 0.4"/>
     <use xlink:href="#m761fffca57" x="238.970375" y="240.227368" style="fill: #f55442; fill-opacity: 0.85; stroke: #000000; stroke-opacity: 0.85; stroke-width: 0.4"/>
     <use xlink:href="#m761fffca57" x="242.970374" y="132.670299" style="fill: #f55442; fill-opacity: 0.85; stroke: #000000; stroke-opacity: 0.85; stroke-width: 0.4"/>
     <use xlink:href="#m761fffca57" x="241.747673" y="245.866317" style="fill: #f55442; fill-opacity: 0.85; stroke: #000000; stroke-opacity: 0.85; stroke-width: 0.4"/>
     <use xlink:href="#m761fffca57" x="242.116475" y="213.682602" style="fill: #f55442; fill-opacity: 0.85; stroke: #000000; stroke-opacity: 0.85; stroke-width: 0.4"/>
     <use xlink:href="#m761fffca57" x="243.779694" y="220.50011" style="fill: #f55442; fill-opacity: 0.85; stroke: #000000; stroke-opacity: 0.85; stroke-width: 0.4"/>
     <use xlink:href="#m761fffca57" x="236.815103" y="208.66013" style="fill: #f55442; fill-opacity: 0.85; stroke: #000000; stroke-opacity: 0.85; stroke-width: 0.4"/>
     <use xlink:href="#m761fffca57" x="237.276068" y="217.707833" style="fill: #f55442; fill-opacity: 0.85; stroke: #000000; stroke-opacity: 0.85; stroke-width: 0.4"/>
     <use xlink:href="#m761fffca57" x="239.575977" y="158.489797" style="fill: #f55442; fill-opacity: 0.85; stroke: #000000; stroke-opacity: 0.85; stroke-width: 0.4"/>
     <use xlink:href="#m761fffca57" x="235.913523" y="147.520137" style="fill: #f55442; fill-opacity: 0.85; stroke: #000000; stroke-opacity: 0.85; stroke-width: 0.4"/>
     <use xlink:href="#m761fffca57" x="239.018672" y="159.233196" style="fill: #f55442; fill-opacity: 0.85; stroke: #000000; stroke-opacity: 0.85; stroke-width: 0.4"/>
     <use xlink:href="#m761fffca57" x="238.633753" y="130.929658" style="fill: #f55442; fill-opacity: 0.85; stroke: #000000; stroke-opacity: 0.85; stroke-width: 0.4"/>
     <use xlink:href="#m761fffca57" x="235.446895" y="177.419261" style="fill: #f55442; fill-opacity: 0.85; stroke: #000000; stroke-opacity: 0.85; stroke-width: 0.4"/>
     <use xlink:href="#m761fffca57" x="237.144739" y="185.379065" style="fill: #f55442; fill-opacity: 0.85; stroke: #000000; stroke-opacity: 0.85; stroke-width: 0.4"/>
     <use xlink:href="#m761fffca57" x="240.410479" y="232.738988" style="fill: #f55442; fill-opacity: 0.85; stroke: #000000; stroke-opacity: 0.85; stroke-width: 0.4"/>
     <use xlink:href="#m761fffca57" x="241.711602" y="128.445619" style="fill: #f55442; fill-opacity: 0.85; stroke: #000000; stroke-opacity: 0.85; stroke-width: 0.4"/>
     <use xlink:href="#m761fffca57" x="239.835997" y="231.469771" style="fill: #f55442; fill-opacity: 0.85; stroke: #000000; stroke-opacity: 0.85; stroke-width: 0.4"/>
     <use xlink:href="#m761fffca57" x="239.843876" y="126.976954" style="fill: #f55442; fill-opacity: 0.85; stroke: #000000; stroke-opacity: 0.85; stroke-width: 0.4"/>
     <use xlink:href="#m761fffca57" x="241.472925" y="199.086608" style="fill: #f55442; fill-opacity: 0.85; stroke: #000000; stroke-opacity: 0.85; stroke-width: 0.4"/>
    </g>
   </g>
   <g id="PathCollection_3">
    <defs>
     <path id="m2a4255e6fc" d="M 0 3 
C 0.795609 3 1.55874 2.683901 2.12132 2.12132 
C 2.683901 1.55874 3 0.795609 3 0 
C 3 -0.795609 2.683901 -1.55874 2.12132 -2.12132 
C 1.55874 -2.683901 0.795609 -3 0 -3 
C -0.795609 -3 -1.55874 -2.683901 -2.12132 -2.12132 
C -2.683901 -1.55874 -3 -0.795609 -3 0 
C -3 0.795609 -2.683901 1.55874 -2.12132 2.12132 
C -1.55874 2.683901 -0.795609 3 0 3 
z
" style="stroke: #000000; stroke-opacity: 0.85; stroke-width: 0.4"/>
    </defs>
    <g clip-path="url(#pd1b5716d99)">
     <use xlink:href="#m2a4255e6fc" x="368.153371" y="345.916875" style="fill: #0ec72a; fill-opacity: 0.85; stroke: #000000; stroke-opacity: 0.85; stroke-width: 0.4"/>
     <use xlink:href="#m2a4255e6fc" x="364.687636" y="161.952946" style="fill: #0ec72a; fill-opacity: 0.85; stroke: #000000; stroke-opacity: 0.85; stroke-width: 0.4"/>
     <use xlink:href="#m2a4255e6fc" x="365.376446" y="232.503276" style="fill: #0ec72a; fill-opacity: 0.85; stroke: #000000; stroke-opacity: 0.85; stroke-width: 0.4"/>
     <use xlink:href="#m2a4255e6fc" x="366.477629" y="204.417319" style="fill: #0ec72a; fill-opacity: 0.85; stroke: #000000; stroke-opacity: 0.85; stroke-width: 0.4"/>
     <use xlink:href="#m2a4255e6fc" x="362.647473" y="209.077158" style="fill: #0ec72a; fill-opacity: 0.85; stroke: #000000; stroke-opacity: 0.85; stroke-width: 0.4"/>
     <use xlink:href="#m2a4255e6fc" x="362.246629" y="229.348366" style="fill: #0ec72a; fill-opacity: 0.85; stroke: #000000; stroke-opacity: 0.85; stroke-width: 0.4"/>
     <use xlink:href="#m2a4255e6fc" x="370.495035" y="144.383358" style="fill: #0ec72a; fill-opacity: 0.85; stroke: #000000; stroke-opacity: 0.85; stroke-width: 0.4"/>
     <use xlink:href="#m2a4255e6fc" x="370.449694" y="156.042022" style="fill: #0ec72a; fill-opacity: 0.85; stroke: #000000; stroke-opacity: 0.85; stroke-width: 0.4"/>
     <use xlink:href="#m2a4255e6fc" x="369.304667" y="211.434275" style="fill: #0ec72a; fill-opacity: 0.85; stroke: #000000; stroke-opacity: 0.85; stroke-width: 0.4"/>
     <use xlink:href="#m2a4255e6fc" x="364.137333" y="139.451543" style="fill: #0ec72a; fill-opacity: 0.85; stroke: #000000; stroke-opacity: 0.85; stroke-width: 0.4"/>
     <use xlink:href="#m2a4255e6fc" x="362.457867" y="197.200914" style="fill: #0ec72a; fill-opacity: 0.85; stroke: #000000; stroke-opacity: 0.85; stroke-width: 0.4"/>
     <use xlink:href="#m2a4255e6fc" x="372.06269" y="135.933999" style="fill: #0ec72a; fill-opacity: 0.85; stroke: #000000; stroke-opacity: 0.85; stroke-width: 0.4"/>
     <use xlink:href="#m2a4255e6fc" x="367.386391" y="154.645883" style="fill: #0ec72a; fill-opacity: 0.85; stroke: #000000; stroke-opacity: 0.85; stroke-width: 0.4"/>
     <use xlink:href="#m2a4255e6fc" x="362.85288" y="123.13304" style="fill: #0ec72a; fill-opacity: 0.85; stroke: #000000; stroke-opacity: 0.85; stroke-width: 0.4"/>
     <use xlink:href="#m2a4255e6fc" x="365.834928" y="177.364866" style="fill: #0ec72a; fill-opacity: 0.85; stroke: #000000; stroke-opacity: 0.85; stroke-width: 0.4"/>
     <use xlink:href="#m2a4255e6fc" x="366.856656" y="224.198971" style="fill: #0ec72a; fill-opacity: 0.85; stroke: #000000; stroke-opacity: 0.85; stroke-width: 0.4"/>
     <use xlink:href="#m2a4255e6fc" x="365.272957" y="199.267924" style="fill: #0ec72a; fill-opacity: 0.85; stroke: #000000; stroke-opacity: 0.85; stroke-width: 0.4"/>
     <use xlink:href="#m2a4255e6fc" x="369.790037" y="187.518602" style="fill: #0ec72a; fill-opacity: 0.85; stroke: #000000; stroke-opacity: 0.85; stroke-width: 0.4"/>
     <use xlink:href="#m2a4255e6fc" x="372.227453" y="253.880516" style="fill: #0ec72a; fill-opacity: 0.85; stroke: #000000; stroke-opacity: 0.85; stroke-width: 0.4"/>
    </g>
   </g>
   <g id="text_14">
    <!-- Reversal Average Pellets Distribution -->
    <g transform="translate(56.01 22.396875) scale(0.2 -0.2)">
     <defs>
      <path id="DejaVuSans-44" d="M 1259 4147 
L 1259 519 
L 2022 519 
Q 2988 519 3436 956 
Q 3884 1394 3884 2338 
Q 3884 3275 3436 3711 
Q 2988 4147 2022 4147 
L 1259 4147 
z
M 628 4666 
L 1925 4666 
Q 3281 4666 3915 4102 
Q 4550 3538 4550 2338 
Q 4550 1131 3912 565 
Q 3275 0 1925 0 
L 628 0 
L 628 4666 
z
" transform="scale(0.015625)"/>
      <path id="DejaVuSans-69" d="M 603 3500 
L 1178 3500 
L 1178 0 
L 603 0 
L 603 3500 
z
M 603 4863 
L 1178 4863 
L 1178 4134 
L 603 4134 
L 603 4863 
z
" transform="scale(0.015625)"/>
      <path id="DejaVuSans-62" d="M 3116 1747 
Q 3116 2381 2855 2742 
Q 2594 3103 2138 3103 
Q 1681 3103 1420 2742 
Q 1159 2381 1159 1747 
Q 1159 1113 1420 752 
Q 1681 391 2138 391 
Q 2594 391 2855 752 
Q 3116 1113 3116 1747 
z
M 1159 2969 
Q 1341 3281 1617 3432 
Q 1894 3584 2278 3584 
Q 2916 3584 3314 3078 
Q 3713 2572 3713 1747 
Q 3713 922 3314 415 
Q 2916 -91 2278 -91 
Q 1894 -91 1617 61 
Q 1341 213 1159 525 
L 1159 0 
L 581 0 
L 581 4863 
L 1159 4863 
L 1159 2969 
z
" transform="scale(0.015625)"/>
      <path id="DejaVuSans-6e" d="M 3513 2113 
L 3513 0 
L 2938 0 
L 2938 2094 
Q 2938 2591 2744 2837 
Q 2550 3084 2163 3084 
Q 1697 3084 1428 2787 
Q 1159 2491 1159 1978 
L 1159 0 
L 581 0 
L 581 3500 
L 1159 3500 
L 1159 2956 
Q 1366 3272 1645 3428 
Q 1925 3584 2291 3584 
Q 2894 3584 3203 3211 
Q 3513 2838 3513 2113 
z
" transform="scale(0.015625)"/>
     </defs>
     <use xlink:href="#DejaVuSans-52"/>
     <use xlink:href="#DejaVuSans-65" x="64.982422"/>
     <use xlink:href="#DejaVuSans-76" x="126.505859"/>
     <use xlink:href="#DejaVuSans-65" x="185.685547"/>
     <use xlink:href="#DejaVuSans-72" x="247.208984"/>
     <use xlink:href="#DejaVuSans-73" x="288.322266"/>
     <use xlink:href="#DejaVuSans-61" x="340.421875"/>
     <use xlink:href="#DejaVuSans-6c" x="401.701172"/>
     <use xlink:href="#DejaVuSans-20" x="429.484375"/>
     <use xlink:href="#DejaVuSans-41" x="461.271484"/>
     <use xlink:href="#DejaVuSans-76" x="523.804688"/>
     <use xlink:href="#DejaVuSans-65" x="582.984375"/>
     <use xlink:href="#DejaVuSans-72" x="644.507812"/>
     <use xlink:href="#DejaVuSans-61" x="685.621094"/>
     <use xlink:href="#DejaVuSans-67" x="746.900391"/>
     <use xlink:href="#DejaVuSans-65" x="810.376953"/>
     <use xlink:href="#DejaVuSans-20" x="871.900391"/>
     <use xlink:href="#DejaVuSans-50" x="903.6875"/>
     <use xlink:href="#DejaVuSans-65" x="960.365234"/>
     <use xlink:href="#DejaVuSans-6c" x="1021.888672"/>
     <use xlink:href="#DejaVuSans-6c" x="1049.671875"/>
     <use xlink:href="#DejaVuSans-65" x="1077.455078"/>
     <use xlink:href="#DejaVuSans-74" x="1138.978516"/>
     <use xlink:href="#DejaVuSans-73" x="1178.1875"/>
     <use xlink:href="#DejaVuSans-20" x="1230.287109"/>
     <use xlink:href="#DejaVuSans-44" x="1262.074219"/>
     <use xlink:href="#DejaVuSans-69" x="1339.076172"/>
     <use xlink:href="#DejaVuSans-73" x="1366.859375"/>
     <use xlink:href="#DejaVuSans-74" x="1418.958984"/>
     <use xlink:href="#DejaVuSans-72" x="1458.167969"/>
     <use xlink:href="#DejaVuSans-69" x="1499.28125"/>
     <use xlink:href="#DejaVuSans-62" x="1527.064453"/>
     <use xlink:href="#DejaVuSans-75" x="1590.541016"/>
     <use xlink:href="#DejaVuSans-74" x="1653.919922"/>
     <use xlink:href="#DejaVuSans-69" x="1693.128906"/>
     <use xlink:href="#DejaVuSans-6f" x="1720.912109"/>
     <use xlink:href="#DejaVuSans-6e" x="1782.09375"/>
    </g>
   </g>
   <g id="legend_1">
    <g id="patch_10">
     <path d="M 296.000625 90.838125 
L 421.876875 90.838125 
Q 424.276875 90.838125 424.276875 88.438125 
L 424.276875 36.796875 
Q 424.276875 34.396875 421.876875 34.396875 
L 296.000625 34.396875 
Q 293.600625 34.396875 293.600625 36.796875 
L 293.600625 88.438125 
Q 293.600625 90.838125 296.000625 90.838125 
z
" style="fill: #ffffff; opacity: 0.8; stroke: #cccccc; stroke-linejoin: miter"/>
    </g>
    <g id="patch_11">
     <path d="M 298.400625 48.315 
L 322.400625 48.315 
L 322.400625 39.915 
L 298.400625 39.915 
z
" style="fill: #425df5; opacity: 0.65; stroke: #425df5; stroke-linejoin: miter"/>
    </g>
    <g id="text_15">
     <!-- cask (n=24) -->
     <g transform="translate(332.000625 48.315) scale(0.12 -0.12)">
      <defs>
       <path id="DejaVuSans-3d" d="M 678 2906 
L 4684 2906 
L 4684 2381 
L 678 2381 
L 678 2906 
z
M 678 1631 
L 4684 1631 
L 4684 1100 
L 678 1100 
L 678 1631 
z
" transform="scale(0.015625)"/>
       <path id="DejaVuSans-34" d="M 2419 4116 
L 825 1625 
L 2419 1625 
L 2419 4116 
z
M 2253 4666 
L 3047 4666 
L 3047 1625 
L 3713 1625 
L 3713 1100 
L 3047 1100 
L 3047 0 
L 2419 0 
L 2419 1100 
L 313 1100 
L 313 1709 
L 2253 4666 
z
" transform="scale(0.015625)"/>
      </defs>
      <use xlink:href="#DejaVuSans-63"/>
      <use xlink:href="#DejaVuSans-61" x="54.980469"/>
      <use xlink:href="#DejaVuSans-73" x="116.259766"/>
      <use xlink:href="#DejaVuSans-6b" x="168.359375"/>
      <use xlink:href="#DejaVuSans-20" x="226.269531"/>
      <use xlink:href="#DejaVuSans-28" x="258.056641"/>
      <use xlink:href="#DejaVuSans-6e" x="297.070312"/>
      <use xlink:href="#DejaVuSans-3d" x="360.449219"/>
      <use xlink:href="#DejaVuSans-32" x="444.238281"/>
      <use xlink:href="#DejaVuSans-34" x="507.861328"/>
      <use xlink:href="#DejaVuSans-29" x="571.484375"/>
     </g>
    </g>
    <g id="patch_12">
     <path d="M 298.400625 65.92875 
L 322.400625 65.92875 
L 322.400625 57.52875 
L 298.400625 57.52875 
z
" style="fill: #f55442; opacity: 0.65; stroke: #f55442; stroke-linejoin: miter"/>
    </g>
    <g id="text_16">
     <!-- ctrl (n=26) -->
     <g transform="translate(332.000625 65.92875) scale(0.12 -0.12)">
      <defs>
       <path id="DejaVuSans-36" d="M 2113 2584 
Q 1688 2584 1439 2293 
Q 1191 2003 1191 1497 
Q 1191 994 1439 701 
Q 1688 409 2113 409 
Q 2538 409 2786 701 
Q 3034 994 3034 1497 
Q 3034 2003 2786 2293 
Q 2538 2584 2113 2584 
z
M 3366 4563 
L 3366 3988 
Q 3128 4100 2886 4159 
Q 2644 4219 2406 4219 
Q 1781 4219 1451 3797 
Q 1122 3375 1075 2522 
Q 1259 2794 1537 2939 
Q 1816 3084 2150 3084 
Q 2853 3084 3261 2657 
Q 3669 2231 3669 1497 
Q 3669 778 3244 343 
Q 2819 -91 2113 -91 
Q 1303 -91 875 529 
Q 447 1150 447 2328 
Q 447 3434 972 4092 
Q 1497 4750 2381 4750 
Q 2619 4750 2861 4703 
Q 3103 4656 3366 4563 
z
" transform="scale(0.015625)"/>
      </defs>
      <use xlink:href="#DejaVuSans-63"/>
      <use xlink:href="#DejaVuSans-74" x="54.980469"/>
      <use xlink:href="#DejaVuSans-72" x="94.189453"/>
      <use xlink:href="#DejaVuSans-6c" x="135.302734"/>
      <use xlink:href="#DejaVuSans-20" x="163.085938"/>
      <use xlink:href="#DejaVuSans-28" x="194.873047"/>
      <use xlink:href="#DejaVuSans-6e" x="233.886719"/>
      <use xlink:href="#DejaVuSans-3d" x="297.265625"/>
      <use xlink:href="#DejaVuSans-32" x="381.054688"/>
      <use xlink:href="#DejaVuSans-36" x="444.677734"/>
      <use xlink:href="#DejaVuSans-29" x="508.300781"/>
     </g>
    </g>
    <g id="patch_13">
     <path d="M 298.400625 83.5425 
L 322.400625 83.5425 
L 322.400625 75.1425 
L 298.400625 75.1425 
z
" style="fill: #0ec72a; opacity: 0.65; stroke: #0ec72a; stroke-linejoin: miter"/>
    </g>
    <g id="text_17">
     <!-- female (n=19) -->
     <g transform="translate(332.000625 83.5425) scale(0.12 -0.12)">
      <defs>
       <path id="DejaVuSans-39" d="M 703 97 
L 703 672 
Q 941 559 1184 500 
Q 1428 441 1663 441 
Q 2288 441 2617 861 
Q 2947 1281 2994 2138 
Q 2813 1869 2534 1725 
Q 2256 1581 1919 1581 
Q 1219 1581 811 2004 
Q 403 2428 403 3163 
Q 403 3881 828 4315 
Q 1253 4750 1959 4750 
Q 2769 4750 3195 4129 
Q 3622 3509 3622 2328 
Q 3622 1225 3098 567 
Q 2575 -91 1691 -91 
Q 1453 -91 1209 -44 
Q 966 3 703 97 
z
M 1959 2075 
Q 2384 2075 2632 2365 
Q 2881 2656 2881 3163 
Q 2881 3666 2632 3958 
Q 2384 4250 1959 4250 
Q 1534 4250 1286 3958 
Q 1038 3666 1038 3163 
Q 1038 2656 1286 2365 
Q 1534 2075 1959 2075 
z
" transform="scale(0.015625)"/>
      </defs>
      <use xlink:href="#DejaVuSans-66"/>
      <use xlink:href="#DejaVuSans-65" x="35.205078"/>
      <use xlink:href="#DejaVuSans-6d" x="96.728516"/>
      <use xlink:href="#DejaVuSans-61" x="194.140625"/>
      <use xlink:href="#DejaVuSans-6c" x="255.419922"/>
      <use xlink:href="#DejaVuSans-65" x="283.203125"/>
      <use xlink:href="#DejaVuSans-20" x="344.726562"/>
      <use xlink:href="#DejaVuSans-28" x="376.513672"/>
      <use xlink:href="#DejaVuSans-6e" x="415.527344"/>
      <use xlink:href="#DejaVuSans-3d" x="478.90625"/>
      <use xlink:href="#DejaVuSans-31" x="562.695312"/>
      <use xlink:href="#DejaVuSans-39" x="626.318359"/>
      <use xlink:href="#DejaVuSans-29" x="689.941406"/>
     </g>
    </g>
   </g>
  </g>
 </g>
 <defs>
  <clipPath id="pd1b5716d99">
   <rect x="50.836875" y="28.396875" width="379.44" height="332.64"/>
  </clipPath>
 </defs>
</svg>
