<?xml version="1.0" encoding="utf-8" standalone="no"?>
<!DOCTYPE svg PUBLIC "-//W3C//DTD SVG 1.1//EN"
  "http://www.w3.org/Graphics/SVG/1.1/DTD/svg11.dtd">
<svg xmlns:xlink="http://www.w3.org/1999/xlink" width="447.744375pt" height="402.464375pt" viewBox="0 0 447.744375 402.464375" xmlns="http://www.w3.org/2000/svg" version="1.1">
 <metadata>
  <rdf:RDF xmlns:dc="http://purl.org/dc/elements/1.1/" xmlns:cc="http://creativecommons.org/ns#" xmlns:rdf="http://www.w3.org/1999/02/22-rdf-syntax-ns#">
   <cc:Work>
    <dc:type rdf:resource="http://purl.org/dc/dcmitype/StillImage"/>
    <dc:date>2025-10-01T20:37:48.711013</dc:date>
    <dc:format>image/svg+xml</dc:format>
    <dc:creator>
     <cc:Agent>
      <dc:title>Matplotlib v3.8.4, https://matplotlib.org/</dc:title>
     </cc:Agent>
    </dc:creator>
   </cc:Work>
  </rdf:RDF>
 </metadata>
 <defs>
  <style type="text/css">*{stroke-linejoin: round; stroke-linecap: butt}</style>
 </defs>
 <g id="figure_1">
  <g id="patch_1">
   <path d="M 0 402.464375 
L 447.744375 402.464375 
L 447.744375 0 
L 0 0 
z
" style="fill: #ffffff"/>
  </g>
  <g id="axes_1">
   <g id="patch_2">
    <path d="M 38.111875 361.036875 
L 417.551875 361.036875 
L 417.551875 28.396875 
L 38.111875 28.396875 
z
" style="fill: #ffffff"/>
   </g>
   <g id="PolyCollection_1">
    <defs>
     <path id="mcb8cc545fb" d="M 109.800607 -56.705964 
L 92.903143 -56.705964 
L 92.522578 -58.166788 
L 92.145098 -59.627612 
L 91.770898 -61.088436 
L 91.400072 -62.54926 
L 91.032656 -64.010083 
L 90.668678 -65.470907 
L 90.308211 -66.931731 
L 89.951421 -68.392555 
L 89.598615 -69.853379 
L 89.25029 -71.314202 
L 88.907167 -72.775026 
L 88.570213 -74.23585 
L 88.240666 -75.696674 
L 87.920029 -77.157498 
L 87.610067 -78.618321 
L 87.312782 -80.079145 
L 87.030377 -81.539969 
L 86.765212 -83.000793 
L 86.51975 -84.461617 
L 86.29649 -85.922441 
L 86.097904 -87.383264 
L 85.926364 -88.844088 
L 85.784072 -90.304912 
L 85.672993 -91.765736 
L 85.594793 -93.22656 
L 85.550783 -94.687383 
L 85.541875 -96.148207 
L 85.568542 -97.609031 
L 85.6308 -99.069855 
L 85.728189 -100.530679 
L 85.85978 -101.991502 
L 86.024184 -103.452326 
L 86.219576 -104.91315 
L 86.443733 -106.373974 
L 86.694074 -107.834798 
L 86.967716 -109.295621 
L 87.261532 -110.756445 
L 87.572215 -112.217269 
L 87.89635 -113.678093 
L 88.23048 -115.138917 
L 88.571179 -116.59974 
L 88.91512 -118.060564 
L 89.259143 -119.521388 
L 89.600318 -120.982212 
L 89.935999 -122.443036 
L 90.263873 -123.903859 
L 90.582006 -125.364683 
L 90.888868 -126.825507 
L 91.183359 -128.286331 
L 91.464817 -129.747155 
L 91.733017 -131.207978 
L 91.988159 -132.668802 
L 92.230839 -134.129626 
L 92.462019 -135.59045 
L 92.682978 -137.051274 
L 92.895256 -138.512097 
L 93.100593 -139.972921 
L 93.300859 -141.433745 
L 93.497984 -142.894569 
L 93.693886 -144.355393 
L 93.890394 -145.816217 
L 94.08919 -147.27704 
L 94.291738 -148.737864 
L 94.499235 -150.198688 
L 94.712571 -151.659512 
L 94.932292 -153.120336 
L 95.158585 -154.581159 
L 95.391272 -156.041983 
L 95.629817 -157.502807 
L 95.87335 -158.963631 
L 96.120695 -160.424455 
L 96.370416 -161.885278 
L 96.620867 -163.346102 
L 96.870253 -164.806926 
L 97.116687 -166.26775 
L 97.358253 -167.728574 
L 97.593078 -169.189397 
L 97.819378 -170.650221 
L 98.035526 -172.111045 
L 98.240091 -173.571869 
L 98.431881 -175.032693 
L 98.609976 -176.493516 
L 98.773743 -177.95434 
L 98.922853 -179.415164 
L 99.057277 -180.875988 
L 99.177275 -182.336812 
L 99.283384 -183.797635 
L 99.376387 -185.258459 
L 99.457284 -186.719283 
L 99.52725 -188.180107 
L 99.587599 -189.640931 
L 99.639739 -191.101754 
L 99.685126 -192.562578 
L 99.725226 -194.023402 
L 99.761471 -195.484226 
L 99.795225 -196.94505 
L 99.827747 -198.405873 
L 99.860171 -199.866697 
L 99.893477 -201.327521 
L 102.810273 -201.327521 
L 102.810273 -201.327521 
L 102.843579 -199.866697 
L 102.876003 -198.405873 
L 102.908525 -196.94505 
L 102.942279 -195.484226 
L 102.978524 -194.023402 
L 103.018624 -192.562578 
L 103.064011 -191.101754 
L 103.116151 -189.640931 
L 103.1765 -188.180107 
L 103.246466 -186.719283 
L 103.327363 -185.258459 
L 103.420366 -183.797635 
L 103.526475 -182.336812 
L 103.646473 -180.875988 
L 103.780897 -179.415164 
L 103.930007 -177.95434 
L 104.093774 -176.493516 
L 104.271869 -175.032693 
L 104.463659 -173.571869 
L 104.668224 -172.111045 
L 104.884372 -170.650221 
L 105.110672 -169.189397 
L 105.345497 -167.728574 
L 105.587063 -166.26775 
L 105.833497 -164.806926 
L 106.082883 -163.346102 
L 106.333334 -161.885278 
L 106.583055 -160.424455 
L 106.8304 -158.963631 
L 107.073933 -157.502807 
L 107.312478 -156.041983 
L 107.545165 -154.581159 
L 107.771458 -153.120336 
L 107.991179 -151.659512 
L 108.204515 -150.198688 
L 108.412012 -148.737864 
L 108.61456 -147.27704 
L 108.813356 -145.816217 
L 109.009864 -144.355393 
L 109.205766 -142.894569 
L 109.402891 -141.433745 
L 109.603157 -139.972921 
L 109.808494 -138.512097 
L 110.020772 -137.051274 
L 110.241731 -135.59045 
L 110.472911 -134.129626 
L 110.715591 -132.668802 
L 110.970733 -131.207978 
L 111.238933 -129.747155 
L 111.520391 -128.286331 
L 111.814882 -126.825507 
L 112.121744 -125.364683 
L 112.439877 -123.903859 
L 112.767751 -122.443036 
L 113.103432 -120.982212 
L 113.444607 -119.521388 
L 113.78863 -118.060564 
L 114.132571 -116.59974 
L 114.47327 -115.138917 
L 114.8074 -113.678093 
L 115.131535 -112.217269 
L 115.442218 -110.756445 
L 115.736034 -109.295621 
L 116.009676 -107.834798 
L 116.260017 -106.373974 
L 116.484174 -104.91315 
L 116.679566 -103.452326 
L 116.84397 -101.991502 
L 116.975561 -100.530679 
L 117.07295 -99.069855 
L 117.135208 -97.609031 
L 117.161875 -96.148207 
L 117.152967 -94.687383 
L 117.108957 -93.22656 
L 117.030757 -91.765736 
L 116.919678 -90.304912 
L 116.777386 -88.844088 
L 116.605846 -87.383264 
L 116.40726 -85.922441 
L 116.184 -84.461617 
L 115.938538 -83.000793 
L 115.673373 -81.539969 
L 115.390968 -80.079145 
L 115.093683 -78.618321 
L 114.783721 -77.157498 
L 114.463084 -75.696674 
L 114.133537 -74.23585 
L 113.796583 -72.775026 
L 113.45346 -71.314202 
L 113.105135 -69.853379 
L 112.752329 -68.392555 
L 112.395539 -66.931731 
L 112.035072 -65.470907 
L 111.671094 -64.010083 
L 111.303678 -62.54926 
L 110.932852 -61.088436 
L 110.558652 -59.627612 
L 110.181172 -58.166788 
L 109.800607 -56.705964 
z
" style="stroke: #000000; stroke-opacity: 0.65"/>
    </defs>
    <g clip-path="url(#pb7fb59ad46)">
     <use xlink:href="#mcb8cc545fb" x="0" y="402.464375" style="fill: #425df5; fill-opacity: 0.65; stroke: #000000; stroke-opacity: 0.65"/>
    </g>
   </g>
   <g id="PolyCollection_2">
    <defs>
     <path id="m1ca9d08c41" d="M 236.907189 -56.5475 
L 218.756561 -56.5475 
L 218.121369 -58.432408 
L 217.493418 -60.317317 
L 216.878134 -62.202225 
L 216.280823 -64.087134 
L 215.706587 -65.972042 
L 215.160265 -67.856951 
L 214.646374 -69.741859 
L 214.169081 -71.626768 
L 213.73218 -73.511676 
L 213.339085 -75.396585 
L 212.99283 -77.281493 
L 212.696075 -79.166402 
L 212.451108 -81.05131 
L 212.259853 -82.936219 
L 212.123857 -84.821127 
L 212.044282 -86.706036 
L 212.021875 -88.590944 
L 212.056937 -90.475853 
L 212.14928 -92.360761 
L 212.298184 -94.24567 
L 212.502352 -96.130578 
L 212.759869 -98.015487 
L 213.068181 -99.900395 
L 213.424079 -101.785303 
L 213.823713 -103.670212 
L 214.262628 -105.55512 
L 214.73582 -107.440029 
L 215.237823 -109.324937 
L 215.762818 -111.209846 
L 216.304755 -113.094754 
L 216.857498 -114.979663 
L 217.414967 -116.864571 
L 217.971288 -118.74948 
L 218.520931 -120.634388 
L 219.058837 -122.519297 
L 219.58052 -124.404205 
L 220.082154 -126.289114 
L 220.560623 -128.174022 
L 221.013548 -130.058931 
L 221.439284 -131.943839 
L 221.836893 -133.828748 
L 222.206087 -135.713656 
L 222.547163 -137.598565 
L 222.860916 -139.483473 
L 223.148547 -141.368382 
L 223.411571 -143.25329 
L 223.651718 -145.138199 
L 223.870855 -147.023107 
L 224.070902 -148.908015 
L 224.253772 -150.792924 
L 224.421318 -152.677832 
L 224.575296 -154.562741 
L 224.71734 -156.447649 
L 224.848946 -158.332558 
L 224.971473 -160.217466 
L 225.086144 -162.102375 
L 225.194051 -163.987283 
L 225.296176 -165.872192 
L 225.393392 -167.7571 
L 225.486481 -169.642009 
L 225.57614 -171.526917 
L 225.662986 -173.411826 
L 225.747558 -175.296734 
L 225.830317 -177.181643 
L 225.911637 -179.066551 
L 225.991804 -180.95146 
L 226.071008 -182.836368 
L 226.149331 -184.721277 
L 226.226748 -186.606185 
L 226.30312 -188.491094 
L 226.3782 -190.376002 
L 226.451633 -192.26091 
L 226.522969 -194.145819 
L 226.591679 -196.030727 
L 226.657171 -197.915636 
L 226.71882 -199.800544 
L 226.775989 -201.685453 
L 226.82806 -203.570361 
L 226.874466 -205.45527 
L 226.914718 -207.340178 
L 226.948435 -209.225087 
L 226.975366 -211.109995 
L 226.995414 -212.994904 
L 227.008646 -214.879812 
L 227.015306 -216.764721 
L 227.015811 -218.649629 
L 227.010753 -220.534538 
L 227.00088 -222.419446 
L 226.987077 -224.304355 
L 226.970346 -226.189263 
L 226.951767 -228.074172 
L 226.932471 -229.95908 
L 226.913601 -231.843989 
L 226.896273 -233.728897 
L 226.881538 -235.613805 
L 226.870354 -237.498714 
L 226.863547 -239.383622 
L 226.861792 -241.268531 
L 226.865591 -243.153439 
L 228.798159 -243.153439 
L 228.798159 -243.153439 
L 228.801958 -241.268531 
L 228.800203 -239.383622 
L 228.793396 -237.498714 
L 228.782212 -235.613805 
L 228.767477 -233.728897 
L 228.750149 -231.843989 
L 228.731279 -229.95908 
L 228.711983 -228.074172 
L 228.693404 -226.189263 
L 228.676673 -224.304355 
L 228.66287 -222.419446 
L 228.652997 -220.534538 
L 228.647939 -218.649629 
L 228.648444 -216.764721 
L 228.655104 -214.879812 
L 228.668336 -212.994904 
L 228.688384 -211.109995 
L 228.715315 -209.225087 
L 228.749032 -207.340178 
L 228.789284 -205.45527 
L 228.83569 -203.570361 
L 228.887761 -201.685453 
L 228.94493 -199.800544 
L 229.006579 -197.915636 
L 229.072071 -196.030727 
L 229.140781 -194.145819 
L 229.212117 -192.26091 
L 229.28555 -190.376002 
L 229.36063 -188.491094 
L 229.437002 -186.606185 
L 229.514419 -184.721277 
L 229.592742 -182.836368 
L 229.671946 -180.95146 
L 229.752113 -179.066551 
L 229.833433 -177.181643 
L 229.916192 -175.296734 
L 230.000764 -173.411826 
L 230.08761 -171.526917 
L 230.177269 -169.642009 
L 230.270358 -167.7571 
L 230.367574 -165.872192 
L 230.469699 -163.987283 
L 230.577606 -162.102375 
L 230.692277 -160.217466 
L 230.814804 -158.332558 
L 230.94641 -156.447649 
L 231.088454 -154.562741 
L 231.242432 -152.677832 
L 231.409978 -150.792924 
L 231.592848 -148.908015 
L 231.792895 -147.023107 
L 232.012032 -145.138199 
L 232.252179 -143.25329 
L 232.515203 -141.368382 
L 232.802834 -139.483473 
L 233.116587 -137.598565 
L 233.457663 -135.713656 
L 233.826857 -133.828748 
L 234.224466 -131.943839 
L 234.650202 -130.058931 
L 235.103127 -128.174022 
L 235.581596 -126.289114 
L 236.08323 -124.404205 
L 236.604913 -122.519297 
L 237.142819 -120.634388 
L 237.692462 -118.74948 
L 238.248783 -116.864571 
L 238.806252 -114.979663 
L 239.358995 -113.094754 
L 239.900932 -111.209846 
L 240.425927 -109.324937 
L 240.92793 -107.440029 
L 241.401122 -105.55512 
L 241.840037 -103.670212 
L 242.239671 -101.785303 
L 242.595569 -99.900395 
L 242.903881 -98.015487 
L 243.161398 -96.130578 
L 243.365566 -94.24567 
L 243.51447 -92.360761 
L 243.606813 -90.475853 
L 243.641875 -88.590944 
L 243.619468 -86.706036 
L 243.539893 -84.821127 
L 243.403897 -82.936219 
L 243.212642 -81.05131 
L 242.967675 -79.166402 
L 242.67092 -77.281493 
L 242.324665 -75.396585 
L 241.93157 -73.511676 
L 241.494669 -71.626768 
L 241.017376 -69.741859 
L 240.503485 -67.856951 
L 239.957163 -65.972042 
L 239.382927 -64.087134 
L 238.785616 -62.202225 
L 238.170332 -60.317317 
L 237.542381 -58.432408 
L 236.907189 -56.5475 
z
" style="stroke: #000000; stroke-opacity: 0.65"/>
    </defs>
    <g clip-path="url(#pb7fb59ad46)">
     <use xlink:href="#m1ca9d08c41" x="0" y="402.464375" style="fill: #f55442; fill-opacity: 0.65; stroke: #000000; stroke-opacity: 0.65"/>
    </g>
   </g>
   <g id="PolyCollection_3">
    <defs>
     <path id="me5d912f6dc" d="M 363.117124 -79.001688 
L 345.506626 -79.001688 
L 344.889127 -81.829424 
L 344.272955 -84.657159 
L 343.663299 -87.484895 
L 343.065488 -90.31263 
L 342.484899 -93.140366 
L 341.926871 -95.968101 
L 341.396605 -98.795837 
L 340.899079 -101.623572 
L 340.438953 -104.451307 
L 340.020489 -107.279043 
L 339.647471 -110.106778 
L 339.323145 -112.934514 
L 339.05016 -115.762249 
L 338.83053 -118.589985 
L 338.665604 -121.41772 
L 338.556053 -124.245456 
L 338.501875 -127.073191 
L 338.502404 -129.900927 
L 338.556342 -132.728662 
L 338.6618 -135.556398 
L 338.816345 -138.384133 
L 339.017064 -141.211869 
L 339.260626 -144.039604 
L 339.54336 -146.86734 
L 339.861327 -149.695075 
L 340.2104 -152.522811 
L 340.586342 -155.350546 
L 340.98488 -158.178281 
L 341.401783 -161.006017 
L 341.832927 -163.833752 
L 342.274362 -166.661488 
L 342.722363 -169.489223 
L 343.173485 -172.316959 
L 343.624601 -175.144694 
L 344.072929 -177.97243 
L 344.516058 -180.800165 
L 344.951956 -183.627901 
L 345.378971 -186.455636 
L 345.795824 -189.283372 
L 346.201587 -192.111107 
L 346.595662 -194.938843 
L 346.977741 -197.766578 
L 347.347773 -200.594314 
L 347.705914 -203.422049 
L 348.052483 -206.249784 
L 348.387914 -209.07752 
L 348.712712 -211.905255 
L 349.027401 -214.732991 
L 349.332494 -217.560726 
L 349.628451 -220.388462 
L 349.915654 -223.216197 
L 350.194384 -226.043933 
L 350.464812 -228.871668 
L 350.726987 -231.699404 
L 350.980842 -234.527139 
L 351.226199 -237.354875 
L 351.462785 -240.18261 
L 351.690245 -243.010346 
L 351.908166 -245.838081 
L 352.1161 -248.665817 
L 352.313584 -251.493552 
L 352.500161 -254.321288 
L 352.675404 -257.149023 
L 352.83893 -259.976758 
L 352.990417 -262.804494 
L 353.129613 -265.632229 
L 353.25634 -268.459965 
L 353.370506 -271.2877 
L 353.472095 -274.115436 
L 353.561174 -276.943171 
L 353.637884 -279.770907 
L 353.702436 -282.598642 
L 353.755106 -285.426378 
L 353.796229 -288.254113 
L 353.826197 -291.081849 
L 353.845451 -293.909584 
L 353.854483 -296.73732 
L 353.853833 -299.565055 
L 353.844094 -302.392791 
L 353.825907 -305.220526 
L 353.799972 -308.048261 
L 353.767044 -310.875997 
L 353.727939 -313.703732 
L 353.683535 -316.531468 
L 353.634766 -319.359203 
L 353.582628 -322.186939 
L 353.528164 -325.014674 
L 353.472457 -327.84241 
L 353.416619 -330.670145 
L 353.361775 -333.497881 
L 353.309041 -336.325616 
L 353.259503 -339.153352 
L 353.214199 -341.981087 
L 353.174089 -344.808823 
L 353.140038 -347.636558 
L 353.112788 -350.464294 
L 353.092945 -353.292029 
L 353.080959 -356.119765 
L 353.077113 -358.9475 
L 355.546637 -358.9475 
L 355.546637 -358.9475 
L 355.542791 -356.119765 
L 355.530805 -353.292029 
L 355.510962 -350.464294 
L 355.483712 -347.636558 
L 355.449661 -344.808823 
L 355.409551 -341.981087 
L 355.364247 -339.153352 
L 355.314709 -336.325616 
L 355.261975 -333.497881 
L 355.207131 -330.670145 
L 355.151293 -327.84241 
L 355.095586 -325.014674 
L 355.041122 -322.186939 
L 354.988984 -319.359203 
L 354.940215 -316.531468 
L 354.895811 -313.703732 
L 354.856706 -310.875997 
L 354.823778 -308.048261 
L 354.797843 -305.220526 
L 354.779656 -302.392791 
L 354.769917 -299.565055 
L 354.769267 -296.73732 
L 354.778299 -293.909584 
L 354.797553 -291.081849 
L 354.827521 -288.254113 
L 354.868644 -285.426378 
L 354.921314 -282.598642 
L 354.985866 -279.770907 
L 355.062576 -276.943171 
L 355.151655 -274.115436 
L 355.253244 -271.2877 
L 355.36741 -268.459965 
L 355.494137 -265.632229 
L 355.633333 -262.804494 
L 355.78482 -259.976758 
L 355.948346 -257.149023 
L 356.123589 -254.321288 
L 356.310166 -251.493552 
L 356.50765 -248.665817 
L 356.715584 -245.838081 
L 356.933505 -243.010346 
L 357.160965 -240.18261 
L 357.397551 -237.354875 
L 357.642908 -234.527139 
L 357.896763 -231.699404 
L 358.158938 -228.871668 
L 358.429366 -226.043933 
L 358.708096 -223.216197 
L 358.995299 -220.388462 
L 359.291256 -217.560726 
L 359.596349 -214.732991 
L 359.911038 -211.905255 
L 360.235836 -209.07752 
L 360.571267 -206.249784 
L 360.917836 -203.422049 
L 361.275977 -200.594314 
L 361.646009 -197.766578 
L 362.028088 -194.938843 
L 362.422163 -192.111107 
L 362.827926 -189.283372 
L 363.244779 -186.455636 
L 363.671794 -183.627901 
L 364.107692 -180.800165 
L 364.550821 -177.97243 
L 364.999149 -175.144694 
L 365.450265 -172.316959 
L 365.901387 -169.489223 
L 366.349388 -166.661488 
L 366.790823 -163.833752 
L 367.221967 -161.006017 
L 367.63887 -158.178281 
L 368.037408 -155.350546 
L 368.41335 -152.522811 
L 368.762423 -149.695075 
L 369.08039 -146.86734 
L 369.363124 -144.039604 
L 369.606686 -141.211869 
L 369.807405 -138.384133 
L 369.96195 -135.556398 
L 370.067408 -132.728662 
L 370.121346 -129.900927 
L 370.121875 -127.073191 
L 370.067697 -124.245456 
L 369.958146 -121.41772 
L 369.79322 -118.589985 
L 369.57359 -115.762249 
L 369.300605 -112.934514 
L 368.976279 -110.106778 
L 368.603261 -107.279043 
L 368.184797 -104.451307 
L 367.724671 -101.623572 
L 367.227145 -98.795837 
L 366.696879 -95.968101 
L 366.138851 -93.140366 
L 365.558262 -90.31263 
L 364.960451 -87.484895 
L 364.350795 -84.657159 
L 363.734623 -81.829424 
L 363.117124 -79.001688 
z
" style="stroke: #000000; stroke-opacity: 0.65"/>
    </defs>
    <g clip-path="url(#pb7fb59ad46)">
     <use xlink:href="#me5d912f6dc" x="0" y="402.464375" style="fill: #0ec72a; fill-opacity: 0.65; stroke: #000000; stroke-opacity: 0.65"/>
    </g>
   </g>
   <g id="matplotlib.axis_1">
    <g id="xtick_1">
     <g id="line2d_1">
      <defs>
       <path id="m32db7fcbd4" d="M 0 0 
L 0 3.5 
" style="stroke: #000000; stroke-width: 0.8"/>
      </defs>
      <g>
       <use xlink:href="#m32db7fcbd4" x="101.351875" y="361.036875" style="stroke: #000000; stroke-width: 0.8"/>
      </g>
     </g>
     <g id="text_1">
      <!-- cask -->
      <g transform="translate(90.038594 375.635312) scale(0.1 -0.1)">
       <defs>
        <path id="DejaVuSans-63" d="M 3122 3366 
L 3122 2828 
Q 2878 2963 2633 3030 
Q 2388 3097 2138 3097 
Q 1578 3097 1268 2742 
Q 959 2388 959 1747 
Q 959 1106 1268 751 
Q 1578 397 2138 397 
Q 2388 397 2633 464 
Q 2878 531 3122 666 
L 3122 134 
Q 2881 22 2623 -34 
Q 2366 -91 2075 -91 
Q 1284 -91 818 406 
Q 353 903 353 1747 
Q 353 2603 823 3093 
Q 1294 3584 2113 3584 
Q 2378 3584 2631 3529 
Q 2884 3475 3122 3366 
z
" transform="scale(0.015625)"/>
        <path id="DejaVuSans-61" d="M 2194 1759 
Q 1497 1759 1228 1600 
Q 959 1441 959 1056 
Q 959 750 1161 570 
Q 1363 391 1709 391 
Q 2188 391 2477 730 
Q 2766 1069 2766 1631 
L 2766 1759 
L 2194 1759 
z
M 3341 1997 
L 3341 0 
L 2766 0 
L 2766 531 
Q 2569 213 2275 61 
Q 1981 -91 1556 -91 
Q 1019 -91 701 211 
Q 384 513 384 1019 
Q 384 1609 779 1909 
Q 1175 2209 1959 2209 
L 2766 2209 
L 2766 2266 
Q 2766 2663 2505 2880 
Q 2244 3097 1772 3097 
Q 1472 3097 1187 3025 
Q 903 2953 641 2809 
L 641 3341 
Q 956 3463 1253 3523 
Q 1550 3584 1831 3584 
Q 2591 3584 2966 3190 
Q 3341 2797 3341 1997 
z
" transform="scale(0.015625)"/>
        <path id="DejaVuSans-73" d="M 2834 3397 
L 2834 2853 
Q 2591 2978 2328 3040 
Q 2066 3103 1784 3103 
Q 1356 3103 1142 2972 
Q 928 2841 928 2578 
Q 928 2378 1081 2264 
Q 1234 2150 1697 2047 
L 1894 2003 
Q 2506 1872 2764 1633 
Q 3022 1394 3022 966 
Q 3022 478 2636 193 
Q 2250 -91 1575 -91 
Q 1294 -91 989 -36 
Q 684 19 347 128 
L 347 722 
Q 666 556 975 473 
Q 1284 391 1588 391 
Q 1994 391 2212 530 
Q 2431 669 2431 922 
Q 2431 1156 2273 1281 
Q 2116 1406 1581 1522 
L 1381 1569 
Q 847 1681 609 1914 
Q 372 2147 372 2553 
Q 372 3047 722 3315 
Q 1072 3584 1716 3584 
Q 2034 3584 2315 3537 
Q 2597 3491 2834 3397 
z
" transform="scale(0.015625)"/>
        <path id="DejaVuSans-6b" d="M 581 4863 
L 1159 4863 
L 1159 1991 
L 2875 3500 
L 3609 3500 
L 1753 1863 
L 3688 0 
L 2938 0 
L 1159 1709 
L 1159 0 
L 581 0 
L 581 4863 
z
" transform="scale(0.015625)"/>
       </defs>
       <use xlink:href="#DejaVuSans-63"/>
       <use xlink:href="#DejaVuSans-61" x="54.980469"/>
       <use xlink:href="#DejaVuSans-73" x="116.259766"/>
       <use xlink:href="#DejaVuSans-6b" x="168.359375"/>
      </g>
     </g>
    </g>
    <g id="xtick_2">
     <g id="line2d_2">
      <g>
       <use xlink:href="#m32db7fcbd4" x="227.831875" y="361.036875" style="stroke: #000000; stroke-width: 0.8"/>
      </g>
     </g>
     <g id="text_2">
      <!-- ctrl -->
      <g transform="translate(219.677969 375.635312) scale(0.1 -0.1)">
       <defs>
        <path id="DejaVuSans-74" d="M 1172 4494 
L 1172 3500 
L 2356 3500 
L 2356 3053 
L 1172 3053 
L 1172 1153 
Q 1172 725 1289 603 
Q 1406 481 1766 481 
L 2356 481 
L 2356 0 
L 1766 0 
Q 1100 0 847 248 
Q 594 497 594 1153 
L 594 3053 
L 172 3053 
L 172 3500 
L 594 3500 
L 594 4494 
L 1172 4494 
z
" transform="scale(0.015625)"/>
        <path id="DejaVuSans-72" d="M 2631 2963 
Q 2534 3019 2420 3045 
Q 2306 3072 2169 3072 
Q 1681 3072 1420 2755 
Q 1159 2438 1159 1844 
L 1159 0 
L 581 0 
L 581 3500 
L 1159 3500 
L 1159 2956 
Q 1341 3275 1631 3429 
Q 1922 3584 2338 3584 
Q 2397 3584 2469 3576 
Q 2541 3569 2628 3553 
L 2631 2963 
z
" transform="scale(0.015625)"/>
        <path id="DejaVuSans-6c" d="M 603 4863 
L 1178 4863 
L 1178 0 
L 603 0 
L 603 4863 
z
" transform="scale(0.015625)"/>
       </defs>
       <use xlink:href="#DejaVuSans-63"/>
       <use xlink:href="#DejaVuSans-74" x="54.980469"/>
       <use xlink:href="#DejaVuSans-72" x="94.189453"/>
       <use xlink:href="#DejaVuSans-6c" x="135.302734"/>
      </g>
     </g>
    </g>
    <g id="xtick_3">
     <g id="line2d_3">
      <g>
       <use xlink:href="#m32db7fcbd4" x="354.311875" y="361.036875" style="stroke: #000000; stroke-width: 0.8"/>
      </g>
     </g>
     <g id="text_3">
      <!-- female -->
      <g transform="translate(337.075156 375.635312) scale(0.1 -0.1)">
       <defs>
        <path id="DejaVuSans-66" d="M 2375 4863 
L 2375 4384 
L 1825 4384 
Q 1516 4384 1395 4259 
Q 1275 4134 1275 3809 
L 1275 3500 
L 2222 3500 
L 2222 3053 
L 1275 3053 
L 1275 0 
L 697 0 
L 697 3053 
L 147 3053 
L 147 3500 
L 697 3500 
L 697 3744 
Q 697 4328 969 4595 
Q 1241 4863 1831 4863 
L 2375 4863 
z
" transform="scale(0.015625)"/>
        <path id="DejaVuSans-65" d="M 3597 1894 
L 3597 1613 
L 953 1613 
Q 991 1019 1311 708 
Q 1631 397 2203 397 
Q 2534 397 2845 478 
Q 3156 559 3463 722 
L 3463 178 
Q 3153 47 2828 -22 
Q 2503 -91 2169 -91 
Q 1331 -91 842 396 
Q 353 884 353 1716 
Q 353 2575 817 3079 
Q 1281 3584 2069 3584 
Q 2775 3584 3186 3129 
Q 3597 2675 3597 1894 
z
M 3022 2063 
Q 3016 2534 2758 2815 
Q 2500 3097 2075 3097 
Q 1594 3097 1305 2825 
Q 1016 2553 972 2059 
L 3022 2063 
z
" transform="scale(0.015625)"/>
        <path id="DejaVuSans-6d" d="M 3328 2828 
Q 3544 3216 3844 3400 
Q 4144 3584 4550 3584 
Q 5097 3584 5394 3201 
Q 5691 2819 5691 2113 
L 5691 0 
L 5113 0 
L 5113 2094 
Q 5113 2597 4934 2840 
Q 4756 3084 4391 3084 
Q 3944 3084 3684 2787 
Q 3425 2491 3425 1978 
L 3425 0 
L 2847 0 
L 2847 2094 
Q 2847 2600 2669 2842 
Q 2491 3084 2119 3084 
Q 1678 3084 1418 2786 
Q 1159 2488 1159 1978 
L 1159 0 
L 581 0 
L 581 3500 
L 1159 3500 
L 1159 2956 
Q 1356 3278 1631 3431 
Q 1906 3584 2284 3584 
Q 2666 3584 2933 3390 
Q 3200 3197 3328 2828 
z
" transform="scale(0.015625)"/>
       </defs>
       <use xlink:href="#DejaVuSans-66"/>
       <use xlink:href="#DejaVuSans-65" x="35.205078"/>
       <use xlink:href="#DejaVuSans-6d" x="96.728516"/>
       <use xlink:href="#DejaVuSans-61" x="194.140625"/>
       <use xlink:href="#DejaVuSans-6c" x="255.419922"/>
       <use xlink:href="#DejaVuSans-65" x="283.203125"/>
      </g>
     </g>
    </g>
    <g id="text_4">
     <!-- Groups -->
     <g transform="translate(202.877969 392.352812) scale(0.14 -0.14)">
      <defs>
       <path id="DejaVuSans-47" d="M 3809 666 
L 3809 1919 
L 2778 1919 
L 2778 2438 
L 4434 2438 
L 4434 434 
Q 4069 175 3628 42 
Q 3188 -91 2688 -91 
Q 1594 -91 976 548 
Q 359 1188 359 2328 
Q 359 3472 976 4111 
Q 1594 4750 2688 4750 
Q 3144 4750 3555 4637 
Q 3966 4525 4313 4306 
L 4313 3634 
Q 3963 3931 3569 4081 
Q 3175 4231 2741 4231 
Q 1884 4231 1454 3753 
Q 1025 3275 1025 2328 
Q 1025 1384 1454 906 
Q 1884 428 2741 428 
Q 3075 428 3337 486 
Q 3600 544 3809 666 
z
" transform="scale(0.015625)"/>
       <path id="DejaVuSans-6f" d="M 1959 3097 
Q 1497 3097 1228 2736 
Q 959 2375 959 1747 
Q 959 1119 1226 758 
Q 1494 397 1959 397 
Q 2419 397 2687 759 
Q 2956 1122 2956 1747 
Q 2956 2369 2687 2733 
Q 2419 3097 1959 3097 
z
M 1959 3584 
Q 2709 3584 3137 3096 
Q 3566 2609 3566 1747 
Q 3566 888 3137 398 
Q 2709 -91 1959 -91 
Q 1206 -91 779 398 
Q 353 888 353 1747 
Q 353 2609 779 3096 
Q 1206 3584 1959 3584 
z
" transform="scale(0.015625)"/>
       <path id="DejaVuSans-75" d="M 544 1381 
L 544 3500 
L 1119 3500 
L 1119 1403 
Q 1119 906 1312 657 
Q 1506 409 1894 409 
Q 2359 409 2629 706 
Q 2900 1003 2900 1516 
L 2900 3500 
L 3475 3500 
L 3475 0 
L 2900 0 
L 2900 538 
Q 2691 219 2414 64 
Q 2138 -91 1772 -91 
Q 1169 -91 856 284 
Q 544 659 544 1381 
z
M 1991 3584 
L 1991 3584 
z
" transform="scale(0.015625)"/>
       <path id="DejaVuSans-70" d="M 1159 525 
L 1159 -1331 
L 581 -1331 
L 581 3500 
L 1159 3500 
L 1159 2969 
Q 1341 3281 1617 3432 
Q 1894 3584 2278 3584 
Q 2916 3584 3314 3078 
Q 3713 2572 3713 1747 
Q 3713 922 3314 415 
Q 2916 -91 2278 -91 
Q 1894 -91 1617 61 
Q 1341 213 1159 525 
z
M 3116 1747 
Q 3116 2381 2855 2742 
Q 2594 3103 2138 3103 
Q 1681 3103 1420 2742 
Q 1159 2381 1159 1747 
Q 1159 1113 1420 752 
Q 1681 391 2138 391 
Q 2594 391 2855 752 
Q 3116 1113 3116 1747 
z
" transform="scale(0.015625)"/>
      </defs>
      <use xlink:href="#DejaVuSans-47"/>
      <use xlink:href="#DejaVuSans-72" x="77.490234"/>
      <use xlink:href="#DejaVuSans-6f" x="116.353516"/>
      <use xlink:href="#DejaVuSans-75" x="177.535156"/>
      <use xlink:href="#DejaVuSans-70" x="240.914062"/>
      <use xlink:href="#DejaVuSans-73" x="304.390625"/>
     </g>
    </g>
   </g>
   <g id="matplotlib.axis_2">
    <g id="ytick_1">
     <g id="line2d_4">
      <path d="M 38.111875 346.63105 
L 417.551875 346.63105 
" clip-path="url(#pb7fb59ad46)" style="fill: none; stroke-dasharray: 2.96,1.28; stroke-dashoffset: 0; stroke: #b0b0b0; stroke-opacity: 0.3; stroke-width: 0.8"/>
     </g>
     <g id="line2d_5">
      <defs>
       <path id="m9d950776fd" d="M 0 0 
L -3.5 0 
" style="stroke: #000000; stroke-width: 0.8"/>
      </defs>
      <g>
       <use xlink:href="#m9d950776fd" x="38.111875" y="346.63105" style="stroke: #000000; stroke-width: 0.8"/>
      </g>
     </g>
     <g id="text_5">
      <!-- 0 -->
      <g transform="translate(24.749375 350.430269) scale(0.1 -0.1)">
       <defs>
        <path id="DejaVuSans-30" d="M 2034 4250 
Q 1547 4250 1301 3770 
Q 1056 3291 1056 2328 
Q 1056 1369 1301 889 
Q 1547 409 2034 409 
Q 2525 409 2770 889 
Q 3016 1369 3016 2328 
Q 3016 3291 2770 3770 
Q 2525 4250 2034 4250 
z
M 2034 4750 
Q 2819 4750 3233 4129 
Q 3647 3509 3647 2328 
Q 3647 1150 3233 529 
Q 2819 -91 2034 -91 
Q 1250 -91 836 529 
Q 422 1150 422 2328 
Q 422 3509 836 4129 
Q 1250 4750 2034 4750 
z
" transform="scale(0.015625)"/>
       </defs>
       <use xlink:href="#DejaVuSans-30"/>
      </g>
     </g>
    </g>
    <g id="ytick_2">
     <g id="line2d_6">
      <path d="M 38.111875 307.557637 
L 417.551875 307.557637 
" clip-path="url(#pb7fb59ad46)" style="fill: none; stroke-dasharray: 2.96,1.28; stroke-dashoffset: 0; stroke: #b0b0b0; stroke-opacity: 0.3; stroke-width: 0.8"/>
     </g>
     <g id="line2d_7">
      <g>
       <use xlink:href="#m9d950776fd" x="38.111875" y="307.557637" style="stroke: #000000; stroke-width: 0.8"/>
      </g>
     </g>
     <g id="text_6">
      <!-- 1 -->
      <g transform="translate(24.749375 311.356856) scale(0.1 -0.1)">
       <defs>
        <path id="DejaVuSans-31" d="M 794 531 
L 1825 531 
L 1825 4091 
L 703 3866 
L 703 4441 
L 1819 4666 
L 2450 4666 
L 2450 531 
L 3481 531 
L 3481 0 
L 794 0 
L 794 531 
z
" transform="scale(0.015625)"/>
       </defs>
       <use xlink:href="#DejaVuSans-31"/>
      </g>
     </g>
    </g>
    <g id="ytick_3">
     <g id="line2d_8">
      <path d="M 38.111875 268.484223 
L 417.551875 268.484223 
" clip-path="url(#pb7fb59ad46)" style="fill: none; stroke-dasharray: 2.96,1.28; stroke-dashoffset: 0; stroke: #b0b0b0; stroke-opacity: 0.3; stroke-width: 0.8"/>
     </g>
     <g id="line2d_9">
      <g>
       <use xlink:href="#m9d950776fd" x="38.111875" y="268.484223" style="stroke: #000000; stroke-width: 0.8"/>
      </g>
     </g>
     <g id="text_7">
      <!-- 2 -->
      <g transform="translate(24.749375 272.283442) scale(0.1 -0.1)">
       <defs>
        <path id="DejaVuSans-32" d="M 1228 531 
L 3431 531 
L 3431 0 
L 469 0 
L 469 531 
Q 828 903 1448 1529 
Q 2069 2156 2228 2338 
Q 2531 2678 2651 2914 
Q 2772 3150 2772 3378 
Q 2772 3750 2511 3984 
Q 2250 4219 1831 4219 
Q 1534 4219 1204 4116 
Q 875 4013 500 3803 
L 500 4441 
Q 881 4594 1212 4672 
Q 1544 4750 1819 4750 
Q 2544 4750 2975 4387 
Q 3406 4025 3406 3419 
Q 3406 3131 3298 2873 
Q 3191 2616 2906 2266 
Q 2828 2175 2409 1742 
Q 1991 1309 1228 531 
z
" transform="scale(0.015625)"/>
       </defs>
       <use xlink:href="#DejaVuSans-32"/>
      </g>
     </g>
    </g>
    <g id="ytick_4">
     <g id="line2d_10">
      <path d="M 38.111875 229.41081 
L 417.551875 229.41081 
" clip-path="url(#pb7fb59ad46)" style="fill: none; stroke-dasharray: 2.96,1.28; stroke-dashoffset: 0; stroke: #b0b0b0; stroke-opacity: 0.3; stroke-width: 0.8"/>
     </g>
     <g id="line2d_11">
      <g>
       <use xlink:href="#m9d950776fd" x="38.111875" y="229.41081" style="stroke: #000000; stroke-width: 0.8"/>
      </g>
     </g>
     <g id="text_8">
      <!-- 3 -->
      <g transform="translate(24.749375 233.210029) scale(0.1 -0.1)">
       <defs>
        <path id="DejaVuSans-33" d="M 2597 2516 
Q 3050 2419 3304 2112 
Q 3559 1806 3559 1356 
Q 3559 666 3084 287 
Q 2609 -91 1734 -91 
Q 1441 -91 1130 -33 
Q 819 25 488 141 
L 488 750 
Q 750 597 1062 519 
Q 1375 441 1716 441 
Q 2309 441 2620 675 
Q 2931 909 2931 1356 
Q 2931 1769 2642 2001 
Q 2353 2234 1838 2234 
L 1294 2234 
L 1294 2753 
L 1863 2753 
Q 2328 2753 2575 2939 
Q 2822 3125 2822 3475 
Q 2822 3834 2567 4026 
Q 2313 4219 1838 4219 
Q 1578 4219 1281 4162 
Q 984 4106 628 3988 
L 628 4550 
Q 988 4650 1302 4700 
Q 1616 4750 1894 4750 
Q 2613 4750 3031 4423 
Q 3450 4097 3450 3541 
Q 3450 3153 3228 2886 
Q 3006 2619 2597 2516 
z
" transform="scale(0.015625)"/>
       </defs>
       <use xlink:href="#DejaVuSans-33"/>
      </g>
     </g>
    </g>
    <g id="ytick_5">
     <g id="line2d_12">
      <path d="M 38.111875 190.337397 
L 417.551875 190.337397 
" clip-path="url(#pb7fb59ad46)" style="fill: none; stroke-dasharray: 2.96,1.28; stroke-dashoffset: 0; stroke: #b0b0b0; stroke-opacity: 0.3; stroke-width: 0.8"/>
     </g>
     <g id="line2d_13">
      <g>
       <use xlink:href="#m9d950776fd" x="38.111875" y="190.337397" style="stroke: #000000; stroke-width: 0.8"/>
      </g>
     </g>
     <g id="text_9">
      <!-- 4 -->
      <g transform="translate(24.749375 194.136615) scale(0.1 -0.1)">
       <defs>
        <path id="DejaVuSans-34" d="M 2419 4116 
L 825 1625 
L 2419 1625 
L 2419 4116 
z
M 2253 4666 
L 3047 4666 
L 3047 1625 
L 3713 1625 
L 3713 1100 
L 3047 1100 
L 3047 0 
L 2419 0 
L 2419 1100 
L 313 1100 
L 313 1709 
L 2253 4666 
z
" transform="scale(0.015625)"/>
       </defs>
       <use xlink:href="#DejaVuSans-34"/>
      </g>
     </g>
    </g>
    <g id="ytick_6">
     <g id="line2d_14">
      <path d="M 38.111875 151.263983 
L 417.551875 151.263983 
" clip-path="url(#pb7fb59ad46)" style="fill: none; stroke-dasharray: 2.96,1.28; stroke-dashoffset: 0; stroke: #b0b0b0; stroke-opacity: 0.3; stroke-width: 0.8"/>
     </g>
     <g id="line2d_15">
      <g>
       <use xlink:href="#m9d950776fd" x="38.111875" y="151.263983" style="stroke: #000000; stroke-width: 0.8"/>
      </g>
     </g>
     <g id="text_10">
      <!-- 5 -->
      <g transform="translate(24.749375 155.063202) scale(0.1 -0.1)">
       <defs>
        <path id="DejaVuSans-35" d="M 691 4666 
L 3169 4666 
L 3169 4134 
L 1269 4134 
L 1269 2991 
Q 1406 3038 1543 3061 
Q 1681 3084 1819 3084 
Q 2600 3084 3056 2656 
Q 3513 2228 3513 1497 
Q 3513 744 3044 326 
Q 2575 -91 1722 -91 
Q 1428 -91 1123 -41 
Q 819 9 494 109 
L 494 744 
Q 775 591 1075 516 
Q 1375 441 1709 441 
Q 2250 441 2565 725 
Q 2881 1009 2881 1497 
Q 2881 1984 2565 2268 
Q 2250 2553 1709 2553 
Q 1456 2553 1204 2497 
Q 953 2441 691 2322 
L 691 4666 
z
" transform="scale(0.015625)"/>
       </defs>
       <use xlink:href="#DejaVuSans-35"/>
      </g>
     </g>
    </g>
    <g id="ytick_7">
     <g id="line2d_16">
      <path d="M 38.111875 112.19057 
L 417.551875 112.19057 
" clip-path="url(#pb7fb59ad46)" style="fill: none; stroke-dasharray: 2.96,1.28; stroke-dashoffset: 0; stroke: #b0b0b0; stroke-opacity: 0.3; stroke-width: 0.8"/>
     </g>
     <g id="line2d_17">
      <g>
       <use xlink:href="#m9d950776fd" x="38.111875" y="112.19057" style="stroke: #000000; stroke-width: 0.8"/>
      </g>
     </g>
     <g id="text_11">
      <!-- 6 -->
      <g transform="translate(24.749375 115.989789) scale(0.1 -0.1)">
       <defs>
        <path id="DejaVuSans-36" d="M 2113 2584 
Q 1688 2584 1439 2293 
Q 1191 2003 1191 1497 
Q 1191 994 1439 701 
Q 1688 409 2113 409 
Q 2538 409 2786 701 
Q 3034 994 3034 1497 
Q 3034 2003 2786 2293 
Q 2538 2584 2113 2584 
z
M 3366 4563 
L 3366 3988 
Q 3128 4100 2886 4159 
Q 2644 4219 2406 4219 
Q 1781 4219 1451 3797 
Q 1122 3375 1075 2522 
Q 1259 2794 1537 2939 
Q 1816 3084 2150 3084 
Q 2853 3084 3261 2657 
Q 3669 2231 3669 1497 
Q 3669 778 3244 343 
Q 2819 -91 2113 -91 
Q 1303 -91 875 529 
Q 447 1150 447 2328 
Q 447 3434 972 4092 
Q 1497 4750 2381 4750 
Q 2619 4750 2861 4703 
Q 3103 4656 3366 4563 
z
" transform="scale(0.015625)"/>
       </defs>
       <use xlink:href="#DejaVuSans-36"/>
      </g>
     </g>
    </g>
    <g id="ytick_8">
     <g id="line2d_18">
      <path d="M 38.111875 73.117156 
L 417.551875 73.117156 
" clip-path="url(#pb7fb59ad46)" style="fill: none; stroke-dasharray: 2.96,1.28; stroke-dashoffset: 0; stroke: #b0b0b0; stroke-opacity: 0.3; stroke-width: 0.8"/>
     </g>
     <g id="line2d_19">
      <g>
       <use xlink:href="#m9d950776fd" x="38.111875" y="73.117156" style="stroke: #000000; stroke-width: 0.8"/>
      </g>
     </g>
     <g id="text_12">
      <!-- 7 -->
      <g transform="translate(24.749375 76.916375) scale(0.1 -0.1)">
       <defs>
        <path id="DejaVuSans-37" d="M 525 4666 
L 3525 4666 
L 3525 4397 
L 1831 0 
L 1172 0 
L 2766 4134 
L 525 4134 
L 525 4666 
z
" transform="scale(0.015625)"/>
       </defs>
       <use xlink:href="#DejaVuSans-37"/>
      </g>
     </g>
    </g>
    <g id="ytick_9">
     <g id="line2d_20">
      <path d="M 38.111875 34.043743 
L 417.551875 34.043743 
" clip-path="url(#pb7fb59ad46)" style="fill: none; stroke-dasharray: 2.96,1.28; stroke-dashoffset: 0; stroke: #b0b0b0; stroke-opacity: 0.3; stroke-width: 0.8"/>
     </g>
     <g id="line2d_21">
      <g>
       <use xlink:href="#m9d950776fd" x="38.111875" y="34.043743" style="stroke: #000000; stroke-width: 0.8"/>
      </g>
     </g>
     <g id="text_13">
      <!-- 8 -->
      <g transform="translate(24.749375 37.842962) scale(0.1 -0.1)">
       <defs>
        <path id="DejaVuSans-38" d="M 2034 2216 
Q 1584 2216 1326 1975 
Q 1069 1734 1069 1313 
Q 1069 891 1326 650 
Q 1584 409 2034 409 
Q 2484 409 2743 651 
Q 3003 894 3003 1313 
Q 3003 1734 2745 1975 
Q 2488 2216 2034 2216 
z
M 1403 2484 
Q 997 2584 770 2862 
Q 544 3141 544 3541 
Q 544 4100 942 4425 
Q 1341 4750 2034 4750 
Q 2731 4750 3128 4425 
Q 3525 4100 3525 3541 
Q 3525 3141 3298 2862 
Q 3072 2584 2669 2484 
Q 3125 2378 3379 2068 
Q 3634 1759 3634 1313 
Q 3634 634 3220 271 
Q 2806 -91 2034 -91 
Q 1263 -91 848 271 
Q 434 634 434 1313 
Q 434 1759 690 2068 
Q 947 2378 1403 2484 
z
M 1172 3481 
Q 1172 3119 1398 2916 
Q 1625 2713 2034 2713 
Q 2441 2713 2670 2916 
Q 2900 3119 2900 3481 
Q 2900 3844 2670 4047 
Q 2441 4250 2034 4250 
Q 1625 4250 1398 4047 
Q 1172 3844 1172 3481 
z
" transform="scale(0.015625)"/>
       </defs>
       <use xlink:href="#DejaVuSans-38"/>
      </g>
     </g>
    </g>
    <g id="text_14">
     <!-- Reversal First Good Meal Time (hours) -->
     <g transform="translate(17.837813 327.921406) rotate(-90) scale(0.14 -0.14)">
      <defs>
       <path id="DejaVuSans-52" d="M 2841 2188 
Q 3044 2119 3236 1894 
Q 3428 1669 3622 1275 
L 4263 0 
L 3584 0 
L 2988 1197 
Q 2756 1666 2539 1819 
Q 2322 1972 1947 1972 
L 1259 1972 
L 1259 0 
L 628 0 
L 628 4666 
L 2053 4666 
Q 2853 4666 3247 4331 
Q 3641 3997 3641 3322 
Q 3641 2881 3436 2590 
Q 3231 2300 2841 2188 
z
M 1259 4147 
L 1259 2491 
L 2053 2491 
Q 2509 2491 2742 2702 
Q 2975 2913 2975 3322 
Q 2975 3731 2742 3939 
Q 2509 4147 2053 4147 
L 1259 4147 
z
" transform="scale(0.015625)"/>
       <path id="DejaVuSans-76" d="M 191 3500 
L 800 3500 
L 1894 563 
L 2988 3500 
L 3597 3500 
L 2284 0 
L 1503 0 
L 191 3500 
z
" transform="scale(0.015625)"/>
       <path id="DejaVuSans-20" transform="scale(0.015625)"/>
       <path id="DejaVuSans-46" d="M 628 4666 
L 3309 4666 
L 3309 4134 
L 1259 4134 
L 1259 2759 
L 3109 2759 
L 3109 2228 
L 1259 2228 
L 1259 0 
L 628 0 
L 628 4666 
z
" transform="scale(0.015625)"/>
       <path id="DejaVuSans-69" d="M 603 3500 
L 1178 3500 
L 1178 0 
L 603 0 
L 603 3500 
z
M 603 4863 
L 1178 4863 
L 1178 4134 
L 603 4134 
L 603 4863 
z
" transform="scale(0.015625)"/>
       <path id="DejaVuSans-64" d="M 2906 2969 
L 2906 4863 
L 3481 4863 
L 3481 0 
L 2906 0 
L 2906 525 
Q 2725 213 2448 61 
Q 2172 -91 1784 -91 
Q 1150 -91 751 415 
Q 353 922 353 1747 
Q 353 2572 751 3078 
Q 1150 3584 1784 3584 
Q 2172 3584 2448 3432 
Q 2725 3281 2906 2969 
z
M 947 1747 
Q 947 1113 1208 752 
Q 1469 391 1925 391 
Q 2381 391 2643 752 
Q 2906 1113 2906 1747 
Q 2906 2381 2643 2742 
Q 2381 3103 1925 3103 
Q 1469 3103 1208 2742 
Q 947 2381 947 1747 
z
" transform="scale(0.015625)"/>
       <path id="DejaVuSans-4d" d="M 628 4666 
L 1569 4666 
L 2759 1491 
L 3956 4666 
L 4897 4666 
L 4897 0 
L 4281 0 
L 4281 4097 
L 3078 897 
L 2444 897 
L 1241 4097 
L 1241 0 
L 628 0 
L 628 4666 
z
" transform="scale(0.015625)"/>
       <path id="DejaVuSans-54" d="M -19 4666 
L 3928 4666 
L 3928 4134 
L 2272 4134 
L 2272 0 
L 1638 0 
L 1638 4134 
L -19 4134 
L -19 4666 
z
" transform="scale(0.015625)"/>
       <path id="DejaVuSans-28" d="M 1984 4856 
Q 1566 4138 1362 3434 
Q 1159 2731 1159 2009 
Q 1159 1288 1364 580 
Q 1569 -128 1984 -844 
L 1484 -844 
Q 1016 -109 783 600 
Q 550 1309 550 2009 
Q 550 2706 781 3412 
Q 1013 4119 1484 4856 
L 1984 4856 
z
" transform="scale(0.015625)"/>
       <path id="DejaVuSans-68" d="M 3513 2113 
L 3513 0 
L 2938 0 
L 2938 2094 
Q 2938 2591 2744 2837 
Q 2550 3084 2163 3084 
Q 1697 3084 1428 2787 
Q 1159 2491 1159 1978 
L 1159 0 
L 581 0 
L 581 4863 
L 1159 4863 
L 1159 2956 
Q 1366 3272 1645 3428 
Q 1925 3584 2291 3584 
Q 2894 3584 3203 3211 
Q 3513 2838 3513 2113 
z
" transform="scale(0.015625)"/>
       <path id="DejaVuSans-29" d="M 513 4856 
L 1013 4856 
Q 1481 4119 1714 3412 
Q 1947 2706 1947 2009 
Q 1947 1309 1714 600 
Q 1481 -109 1013 -844 
L 513 -844 
Q 928 -128 1133 580 
Q 1338 1288 1338 2009 
Q 1338 2731 1133 3434 
Q 928 4138 513 4856 
z
" transform="scale(0.015625)"/>
      </defs>
      <use xlink:href="#DejaVuSans-52"/>
      <use xlink:href="#DejaVuSans-65" x="64.982422"/>
      <use xlink:href="#DejaVuSans-76" x="126.505859"/>
      <use xlink:href="#DejaVuSans-65" x="185.685547"/>
      <use xlink:href="#DejaVuSans-72" x="247.208984"/>
      <use xlink:href="#DejaVuSans-73" x="288.322266"/>
      <use xlink:href="#DejaVuSans-61" x="340.421875"/>
      <use xlink:href="#DejaVuSans-6c" x="401.701172"/>
      <use xlink:href="#DejaVuSans-20" x="429.484375"/>
      <use xlink:href="#DejaVuSans-46" x="461.271484"/>
      <use xlink:href="#DejaVuSans-69" x="511.541016"/>
      <use xlink:href="#DejaVuSans-72" x="539.324219"/>
      <use xlink:href="#DejaVuSans-73" x="580.4375"/>
      <use xlink:href="#DejaVuSans-74" x="632.537109"/>
      <use xlink:href="#DejaVuSans-20" x="671.746094"/>
      <use xlink:href="#DejaVuSans-47" x="703.533203"/>
      <use xlink:href="#DejaVuSans-6f" x="781.023438"/>
      <use xlink:href="#DejaVuSans-6f" x="842.205078"/>
      <use xlink:href="#DejaVuSans-64" x="903.386719"/>
      <use xlink:href="#DejaVuSans-20" x="966.863281"/>
      <use xlink:href="#DejaVuSans-4d" x="998.650391"/>
      <use xlink:href="#DejaVuSans-65" x="1084.929688"/>
      <use xlink:href="#DejaVuSans-61" x="1146.453125"/>
      <use xlink:href="#DejaVuSans-6c" x="1207.732422"/>
      <use xlink:href="#DejaVuSans-20" x="1235.515625"/>
      <use xlink:href="#DejaVuSans-54" x="1267.302734"/>
      <use xlink:href="#DejaVuSans-69" x="1325.261719"/>
      <use xlink:href="#DejaVuSans-6d" x="1353.044922"/>
      <use xlink:href="#DejaVuSans-65" x="1450.457031"/>
      <use xlink:href="#DejaVuSans-20" x="1511.980469"/>
      <use xlink:href="#DejaVuSans-28" x="1543.767578"/>
      <use xlink:href="#DejaVuSans-68" x="1582.78125"/>
      <use xlink:href="#DejaVuSans-6f" x="1646.160156"/>
      <use xlink:href="#DejaVuSans-75" x="1707.341797"/>
      <use xlink:href="#DejaVuSans-72" x="1770.720703"/>
      <use xlink:href="#DejaVuSans-73" x="1811.833984"/>
      <use xlink:href="#DejaVuSans-29" x="1863.933594"/>
     </g>
    </g>
   </g>
   <g id="patch_3">
    <path d="M 91.865875 318.853652 
L 110.837875 318.853652 
L 110.837875 280.137326 
L 91.865875 280.137326 
L 91.865875 318.853652 
z
" clip-path="url(#pb7fb59ad46)" style="fill: #ffffff; stroke: #000000; stroke-linejoin: miter"/>
   </g>
   <g id="line2d_22">
    <path d="M 101.351875 318.853652 
L 101.351875 345.758411 
" clip-path="url(#pb7fb59ad46)" style="fill: none; stroke: #000000; stroke-linecap: square"/>
   </g>
   <g id="line2d_23">
    <path d="M 101.351875 280.137326 
L 101.351875 247.467068 
" clip-path="url(#pb7fb59ad46)" style="fill: none; stroke: #000000; stroke-linecap: square"/>
   </g>
   <g id="line2d_24">
    <path d="M 96.608875 345.758411 
L 106.094875 345.758411 
" clip-path="url(#pb7fb59ad46)" style="fill: none; stroke: #000000; stroke-linecap: square"/>
   </g>
   <g id="line2d_25">
    <path d="M 96.608875 247.467068 
L 106.094875 247.467068 
" clip-path="url(#pb7fb59ad46)" style="fill: none; stroke: #000000; stroke-linecap: square"/>
   </g>
   <g id="patch_4">
    <path d="M 218.345875 327.230015 
L 237.317875 327.230015 
L 237.317875 294.880485 
L 218.345875 294.880485 
L 218.345875 327.230015 
z
" clip-path="url(#pb7fb59ad46)" style="fill: #ffffff; stroke: #000000; stroke-linejoin: miter"/>
   </g>
   <g id="line2d_26">
    <path d="M 227.831875 327.230015 
L 227.831875 345.916875 
" clip-path="url(#pb7fb59ad46)" style="fill: none; stroke: #000000; stroke-linecap: square"/>
   </g>
   <g id="line2d_27">
    <path d="M 227.831875 294.880485 
L 227.831875 262.545065 
" clip-path="url(#pb7fb59ad46)" style="fill: none; stroke: #000000; stroke-linecap: square"/>
   </g>
   <g id="line2d_28">
    <path d="M 223.088875 345.916875 
L 232.574875 345.916875 
" clip-path="url(#pb7fb59ad46)" style="fill: none; stroke: #000000; stroke-linecap: square"/>
   </g>
   <g id="line2d_29">
    <path d="M 223.088875 262.545065 
L 232.574875 262.545065 
" clip-path="url(#pb7fb59ad46)" style="fill: none; stroke: #000000; stroke-linecap: square"/>
   </g>
   <g id="patch_5">
    <path d="M 344.825875 284.864667 
L 363.797875 284.864667 
L 363.797875 235.625111 
L 344.825875 235.625111 
L 344.825875 284.864667 
z
" clip-path="url(#pb7fb59ad46)" style="fill: #ffffff; stroke: #000000; stroke-linejoin: miter"/>
   </g>
   <g id="line2d_30">
    <path d="M 354.311875 284.864667 
L 354.311875 323.462687 
" clip-path="url(#pb7fb59ad46)" style="fill: none; stroke: #000000; stroke-linecap: square"/>
   </g>
   <g id="line2d_31">
    <path d="M 354.311875 235.625111 
L 354.311875 175.78255 
" clip-path="url(#pb7fb59ad46)" style="fill: none; stroke: #000000; stroke-linecap: square"/>
   </g>
   <g id="line2d_32">
    <path d="M 349.568875 323.462687 
L 359.054875 323.462687 
" clip-path="url(#pb7fb59ad46)" style="fill: none; stroke: #000000; stroke-linecap: square"/>
   </g>
   <g id="line2d_33">
    <path d="M 349.568875 175.78255 
L 359.054875 175.78255 
" clip-path="url(#pb7fb59ad46)" style="fill: none; stroke: #000000; stroke-linecap: square"/>
   </g>
   <g id="line2d_34">
    <path d="M 91.865875 301.731357 
L 110.837875 301.731357 
" clip-path="url(#pb7fb59ad46)" style="fill: none; stroke: #000000"/>
   </g>
   <g id="line2d_35">
    <path d="M 218.345875 307.017121 
L 237.317875 307.017121 
" clip-path="url(#pb7fb59ad46)" style="fill: none; stroke: #000000"/>
   </g>
   <g id="line2d_36">
    <path d="M 344.825875 268.928141 
L 363.797875 268.928141 
" clip-path="url(#pb7fb59ad46)" style="fill: none; stroke: #000000"/>
   </g>
   <g id="patch_6">
    <path d="M 38.111875 361.036875 
L 38.111875 28.396875 
" style="fill: none; stroke: #000000; stroke-width: 0.8; stroke-linejoin: miter; stroke-linecap: square"/>
   </g>
   <g id="patch_7">
    <path d="M 417.551875 361.036875 
L 417.551875 28.396875 
" style="fill: none; stroke: #000000; stroke-width: 0.8; stroke-linejoin: miter; stroke-linecap: square"/>
   </g>
   <g id="patch_8">
    <path d="M 38.111875 361.036875 
L 417.551875 361.036875 
" style="fill: none; stroke: #000000; stroke-width: 0.8; stroke-linejoin: miter; stroke-linecap: square"/>
   </g>
   <g id="patch_9">
    <path d="M 38.111875 28.396875 
L 417.551875 28.396875 
" style="fill: none; stroke: #000000; stroke-width: 0.8; stroke-linejoin: miter; stroke-linecap: square"/>
   </g>
   <g id="PathCollection_1">
    <defs>
     <path id="mc8cd96195c" d="M 0 3 
C 0.795609 3 1.55874 2.683901 2.12132 2.12132 
C 2.683901 1.55874 3 0.795609 3 0 
C 3 -0.795609 2.683901 -1.55874 2.12132 -2.12132 
C 1.55874 -2.683901 0.795609 -3 0 -3 
C -0.795609 -3 -1.55874 -2.683901 -2.12132 -2.12132 
C -2.683901 -1.55874 -3 -0.795609 -3 0 
C -3 0.795609 -2.683901 1.55874 -2.12132 2.12132 
C -1.55874 2.683901 -0.795609 3 0 3 
z
" style="stroke: #000000; stroke-opacity: 0.85; stroke-width: 0.4"/>
    </defs>
    <g clip-path="url(#pb7fb59ad46)">
     <use xlink:href="#mc8cd96195c" x="99.344171" y="327.530663" style="fill: #425df5; fill-opacity: 0.85; stroke: #000000; stroke-opacity: 0.85; stroke-width: 0.4"/>
     <use xlink:href="#mc8cd96195c" x="105.161452" y="317.18055" style="fill: #425df5; fill-opacity: 0.85; stroke: #000000; stroke-opacity: 0.85; stroke-width: 0.4"/>
     <use xlink:href="#mc8cd96195c" x="103.496931" y="278.510895" style="fill: #425df5; fill-opacity: 0.85; stroke: #000000; stroke-opacity: 0.85; stroke-width: 0.4"/>
     <use xlink:href="#mc8cd96195c" x="101.189696" y="312.524302" style="fill: #425df5; fill-opacity: 0.85; stroke: #000000; stroke-opacity: 0.85; stroke-width: 0.4"/>
     <use xlink:href="#mc8cd96195c" x="104.955434" y="343.848155" style="fill: #425df5; fill-opacity: 0.85; stroke: #000000; stroke-opacity: 0.85; stroke-width: 0.4"/>
     <use xlink:href="#mc8cd96195c" x="97.430799" y="311.553979" style="fill: #425df5; fill-opacity: 0.85; stroke: #000000; stroke-opacity: 0.85; stroke-width: 0.4"/>
     <use xlink:href="#mc8cd96195c" x="103.941405" y="247.467068" style="fill: #425df5; fill-opacity: 0.85; stroke: #000000; stroke-opacity: 0.85; stroke-width: 0.4"/>
     <use xlink:href="#mc8cd96195c" x="100.545797" y="251.953999" style="fill: #425df5; fill-opacity: 0.85; stroke: #000000; stroke-opacity: 0.85; stroke-width: 0.4"/>
     <use xlink:href="#mc8cd96195c" x="96.350141" y="301.870284" style="fill: #425df5; fill-opacity: 0.85; stroke: #000000; stroke-opacity: 0.85; stroke-width: 0.4"/>
     <use xlink:href="#mc8cd96195c" x="104.657443" y="301.592429" style="fill: #425df5; fill-opacity: 0.85; stroke: #000000; stroke-opacity: 0.85; stroke-width: 0.4"/>
     <use xlink:href="#mc8cd96195c" x="104.062049" y="297.240085" style="fill: #425df5; fill-opacity: 0.85; stroke: #000000; stroke-opacity: 0.85; stroke-width: 0.4"/>
     <use xlink:href="#mc8cd96195c" x="101.047384" y="345.758411" style="fill: #425df5; fill-opacity: 0.85; stroke: #000000; stroke-opacity: 0.85; stroke-width: 0.4"/>
     <use xlink:href="#mc8cd96195c" x="96.945176" y="294.415945" style="fill: #425df5; fill-opacity: 0.85; stroke: #000000; stroke-opacity: 0.85; stroke-width: 0.4"/>
     <use xlink:href="#mc8cd96195c" x="103.97386" y="345.526141" style="fill: #425df5; fill-opacity: 0.85; stroke: #000000; stroke-opacity: 0.85; stroke-width: 0.4"/>
     <use xlink:href="#mc8cd96195c" x="101.071104" y="345.682435" style="fill: #425df5; fill-opacity: 0.85; stroke: #000000; stroke-opacity: 0.85; stroke-width: 0.4"/>
     <use xlink:href="#mc8cd96195c" x="101.855632" y="309.593796" style="fill: #425df5; fill-opacity: 0.85; stroke: #000000; stroke-opacity: 0.85; stroke-width: 0.4"/>
     <use xlink:href="#mc8cd96195c" x="104.217242" y="256.621101" style="fill: #425df5; fill-opacity: 0.85; stroke: #000000; stroke-opacity: 0.85; stroke-width: 0.4"/>
     <use xlink:href="#mc8cd96195c" x="105.262338" y="282.296675" style="fill: #425df5; fill-opacity: 0.85; stroke: #000000; stroke-opacity: 0.85; stroke-width: 0.4"/>
     <use xlink:href="#mc8cd96195c" x="103.447244" y="297.589575" style="fill: #425df5; fill-opacity: 0.85; stroke: #000000; stroke-opacity: 0.85; stroke-width: 0.4"/>
     <use xlink:href="#mc8cd96195c" x="106.189978" y="201.136854" style="fill: #425df5; fill-opacity: 0.85; stroke: #000000; stroke-opacity: 0.85; stroke-width: 0.4"/>
     <use xlink:href="#mc8cd96195c" x="103.346508" y="280.67947" style="fill: #425df5; fill-opacity: 0.85; stroke: #000000; stroke-opacity: 0.85; stroke-width: 0.4"/>
     <use xlink:href="#mc8cd96195c" x="103.742942" y="251.443874" style="fill: #425df5; fill-opacity: 0.85; stroke: #000000; stroke-opacity: 0.85; stroke-width: 0.4"/>
     <use xlink:href="#mc8cd96195c" x="98.051944" y="311.868737" style="fill: #425df5; fill-opacity: 0.85; stroke: #000000; stroke-opacity: 0.85; stroke-width: 0.4"/>
     <use xlink:href="#mc8cd96195c" x="101.123932" y="323.872958" style="fill: #425df5; fill-opacity: 0.85; stroke: #000000; stroke-opacity: 0.85; stroke-width: 0.4"/>
    </g>
   </g>
   <g id="PathCollection_2">
    <defs>
     <path id="m4112e37c36" d="M 0 3 
C 0.795609 3 1.55874 2.683901 2.12132 2.12132 
C 2.683901 1.55874 3 0.795609 3 0 
C 3 -0.795609 2.683901 -1.55874 2.12132 -2.12132 
C 1.55874 -2.683901 0.795609 -3 0 -3 
C -0.795609 -3 -1.55874 -2.683901 -2.12132 -2.12132 
C -2.683901 -1.55874 -3 -0.795609 -3 0 
C -3 0.795609 -2.683901 1.55874 -2.12132 2.12132 
C -1.55874 2.683901 -0.795609 3 0 3 
z
" style="stroke: #000000; stroke-opacity: 0.85; stroke-width: 0.4"/>
    </defs>
    <g clip-path="url(#pb7fb59ad46)">
     <use xlink:href="#m4112e37c36" x="232.592138" y="335.408298" style="fill: #f55442; fill-opacity: 0.85; stroke: #000000; stroke-opacity: 0.85; stroke-width: 0.4"/>
     <use xlink:href="#m4112e37c36" x="225.168308" y="298.260335" style="fill: #f55442; fill-opacity: 0.85; stroke: #000000; stroke-opacity: 0.85; stroke-width: 0.4"/>
     <use xlink:href="#m4112e37c36" x="229.599351" y="293.621453" style="fill: #f55442; fill-opacity: 0.85; stroke: #000000; stroke-opacity: 0.85; stroke-width: 0.4"/>
     <use xlink:href="#m4112e37c36" x="223.922459" y="326.951074" style="fill: #f55442; fill-opacity: 0.85; stroke: #000000; stroke-opacity: 0.85; stroke-width: 0.4"/>
     <use xlink:href="#m4112e37c36" x="222.948103" y="339.209272" style="fill: #f55442; fill-opacity: 0.85; stroke: #000000; stroke-opacity: 0.85; stroke-width: 0.4"/>
     <use xlink:href="#m4112e37c36" x="232.161332" y="296.139517" style="fill: #f55442; fill-opacity: 0.85; stroke: #000000; stroke-opacity: 0.85; stroke-width: 0.4"/>
     <use xlink:href="#m4112e37c36" x="227.233229" y="310.067018" style="fill: #f55442; fill-opacity: 0.85; stroke: #000000; stroke-opacity: 0.85; stroke-width: 0.4"/>
     <use xlink:href="#m4112e37c36" x="229.668695" y="262.545065" style="fill: #f55442; fill-opacity: 0.85; stroke: #000000; stroke-opacity: 0.85; stroke-width: 0.4"/>
     <use xlink:href="#m4112e37c36" x="225.590027" y="216.18446" style="fill: #f55442; fill-opacity: 0.85; stroke: #000000; stroke-opacity: 0.85; stroke-width: 0.4"/>
     <use xlink:href="#m4112e37c36" x="231.109866" y="159.310936" style="fill: #f55442; fill-opacity: 0.85; stroke: #000000; stroke-opacity: 0.85; stroke-width: 0.4"/>
     <use xlink:href="#m4112e37c36" x="222.685249" y="296.486836" style="fill: #f55442; fill-opacity: 0.85; stroke: #000000; stroke-opacity: 0.85; stroke-width: 0.4"/>
     <use xlink:href="#m4112e37c36" x="232.926114" y="326.883781" style="fill: #f55442; fill-opacity: 0.85; stroke: #000000; stroke-opacity: 0.85; stroke-width: 0.4"/>
     <use xlink:href="#m4112e37c36" x="233.049129" y="331.427151" style="fill: #f55442; fill-opacity: 0.85; stroke: #000000; stroke-opacity: 0.85; stroke-width: 0.4"/>
     <use xlink:href="#m4112e37c36" x="225.913774" y="303.020779" style="fill: #f55442; fill-opacity: 0.85; stroke: #000000; stroke-opacity: 0.85; stroke-width: 0.4"/>
     <use xlink:href="#m4112e37c36" x="226.208392" y="345.916875" style="fill: #f55442; fill-opacity: 0.85; stroke: #000000; stroke-opacity: 0.85; stroke-width: 0.4"/>
     <use xlink:href="#m4112e37c36" x="231.550904" y="307.620588" style="fill: #f55442; fill-opacity: 0.85; stroke: #000000; stroke-opacity: 0.85; stroke-width: 0.4"/>
     <use xlink:href="#m4112e37c36" x="224.876176" y="327.508956" style="fill: #f55442; fill-opacity: 0.85; stroke: #000000; stroke-opacity: 0.85; stroke-width: 0.4"/>
     <use xlink:href="#m4112e37c36" x="228.769219" y="337.084113" style="fill: #f55442; fill-opacity: 0.85; stroke: #000000; stroke-opacity: 0.85; stroke-width: 0.4"/>
     <use xlink:href="#m4112e37c36" x="228.89383" y="332.147838" style="fill: #f55442; fill-opacity: 0.85; stroke: #000000; stroke-opacity: 0.85; stroke-width: 0.4"/>
     <use xlink:href="#m4112e37c36" x="225.885797" y="306.040286" style="fill: #f55442; fill-opacity: 0.85; stroke: #000000; stroke-opacity: 0.85; stroke-width: 0.4"/>
     <use xlink:href="#m4112e37c36" x="232.565499" y="309.146622" style="fill: #f55442; fill-opacity: 0.85; stroke: #000000; stroke-opacity: 0.85; stroke-width: 0.4"/>
     <use xlink:href="#m4112e37c36" x="223.155742" y="241.087248" style="fill: #f55442; fill-opacity: 0.85; stroke: #000000; stroke-opacity: 0.85; stroke-width: 0.4"/>
     <use xlink:href="#m4112e37c36" x="225.574449" y="289.718453" style="fill: #f55442; fill-opacity: 0.85; stroke: #000000; stroke-opacity: 0.85; stroke-width: 0.4"/>
     <use xlink:href="#m4112e37c36" x="230.84676" y="307.017121" style="fill: #f55442; fill-opacity: 0.85; stroke: #000000; stroke-opacity: 0.85; stroke-width: 0.4"/>
     <use xlink:href="#m4112e37c36" x="229.469195" y="324.624035" style="fill: #f55442; fill-opacity: 0.85; stroke: #000000; stroke-opacity: 0.85; stroke-width: 0.4"/>
     <use xlink:href="#m4112e37c36" x="230.797334" y="305.397745" style="fill: #f55442; fill-opacity: 0.85; stroke: #000000; stroke-opacity: 0.85; stroke-width: 0.4"/>
     <use xlink:href="#m4112e37c36" x="232.816111" y="264.027684" style="fill: #f55442; fill-opacity: 0.85; stroke: #000000; stroke-opacity: 0.85; stroke-width: 0.4"/>
    </g>
   </g>
   <g id="PathCollection_3">
    <defs>
     <path id="m745359cf93" d="M 0 3 
C 0.795609 3 1.55874 2.683901 2.12132 2.12132 
C 2.683901 1.55874 3 0.795609 3 0 
C 3 -0.795609 2.683901 -1.55874 2.12132 -2.12132 
C 1.55874 -2.683901 0.795609 -3 0 -3 
C -0.795609 -3 -1.55874 -2.683901 -2.12132 -2.12132 
C -2.683901 -1.55874 -3 -0.795609 -3 0 
C -3 0.795609 -2.683901 1.55874 -2.12132 2.12132 
C -1.55874 2.683901 -0.795609 3 0 3 
z
" style="stroke: #000000; stroke-opacity: 0.85; stroke-width: 0.4"/>
    </defs>
    <g clip-path="url(#pb7fb59ad46)">
     <use xlink:href="#m745359cf93" x="354.643565" y="256.382319" style="fill: #0ec72a; fill-opacity: 0.85; stroke: #000000; stroke-opacity: 0.85; stroke-width: 0.4"/>
     <use xlink:href="#m745359cf93" x="352.228895" y="295.188731" style="fill: #0ec72a; fill-opacity: 0.85; stroke: #000000; stroke-opacity: 0.85; stroke-width: 0.4"/>
     <use xlink:href="#m745359cf93" x="357.113336" y="233.669812" style="fill: #0ec72a; fill-opacity: 0.85; stroke: #000000; stroke-opacity: 0.85; stroke-width: 0.4"/>
     <use xlink:href="#m745359cf93" x="349.639649" y="277.254034" style="fill: #0ec72a; fill-opacity: 0.85; stroke: #000000; stroke-opacity: 0.85; stroke-width: 0.4"/>
     <use xlink:href="#m745359cf93" x="354.497302" y="281.52389" style="fill: #0ec72a; fill-opacity: 0.85; stroke: #000000; stroke-opacity: 0.85; stroke-width: 0.4"/>
     <use xlink:href="#m745359cf93" x="351.090621" y="253.184811" style="fill: #0ec72a; fill-opacity: 0.85; stroke: #000000; stroke-opacity: 0.85; stroke-width: 0.4"/>
     <use xlink:href="#m745359cf93" x="351.659716" y="43.516875" style="fill: #0ec72a; fill-opacity: 0.85; stroke: #000000; stroke-opacity: 0.85; stroke-width: 0.4"/>
     <use xlink:href="#m745359cf93" x="349.256891" y="307.731296" style="fill: #0ec72a; fill-opacity: 0.85; stroke: #000000; stroke-opacity: 0.85; stroke-width: 0.4"/>
     <use xlink:href="#m745359cf93" x="358.268355" y="247.204408" style="fill: #0ec72a; fill-opacity: 0.85; stroke: #000000; stroke-opacity: 0.85; stroke-width: 0.4"/>
     <use xlink:href="#m745359cf93" x="359.078296" y="211.20477" style="fill: #0ec72a; fill-opacity: 0.85; stroke: #000000; stroke-opacity: 0.85; stroke-width: 0.4"/>
     <use xlink:href="#m745359cf93" x="355.057834" y="292.516543" style="fill: #0ec72a; fill-opacity: 0.85; stroke: #000000; stroke-opacity: 0.85; stroke-width: 0.4"/>
     <use xlink:href="#m745359cf93" x="356.391327" y="282.314041" style="fill: #0ec72a; fill-opacity: 0.85; stroke: #000000; stroke-opacity: 0.85; stroke-width: 0.4"/>
     <use xlink:href="#m745359cf93" x="358.731708" y="323.462687" style="fill: #0ec72a; fill-opacity: 0.85; stroke: #000000; stroke-opacity: 0.85; stroke-width: 0.4"/>
     <use xlink:href="#m745359cf93" x="351.546878" y="279.361828" style="fill: #0ec72a; fill-opacity: 0.85; stroke: #000000; stroke-opacity: 0.85; stroke-width: 0.4"/>
     <use xlink:href="#m745359cf93" x="353.904887" y="282.103479" style="fill: #0ec72a; fill-opacity: 0.85; stroke: #000000; stroke-opacity: 0.85; stroke-width: 0.4"/>
     <use xlink:href="#m745359cf93" x="350.894489" y="311.169757" style="fill: #0ec72a; fill-opacity: 0.85; stroke: #000000; stroke-opacity: 0.85; stroke-width: 0.4"/>
     <use xlink:href="#m745359cf93" x="357.548537" y="175.78255" style="fill: #0ec72a; fill-opacity: 0.85; stroke: #000000; stroke-opacity: 0.85; stroke-width: 0.4"/>
     <use xlink:href="#m745359cf93" x="352.753211" y="193.05517" style="fill: #0ec72a; fill-opacity: 0.85; stroke: #000000; stroke-opacity: 0.85; stroke-width: 0.4"/>
     <use xlink:href="#m745359cf93" x="354.129878" y="236.276877" style="fill: #0ec72a; fill-opacity: 0.85; stroke: #000000; stroke-opacity: 0.85; stroke-width: 0.4"/>
     <use xlink:href="#m745359cf93" x="352.199862" y="260.602248" style="fill: #0ec72a; fill-opacity: 0.85; stroke: #000000; stroke-opacity: 0.85; stroke-width: 0.4"/>
    </g>
   </g>
   <g id="text_15">
    <!-- Reversal First Good Meal Time Distribution -->
    <g transform="translate(15.119375 22.396875) scale(0.2 -0.2)">
     <defs>
      <path id="DejaVuSans-44" d="M 1259 4147 
L 1259 519 
L 2022 519 
Q 2988 519 3436 956 
Q 3884 1394 3884 2338 
Q 3884 3275 3436 3711 
Q 2988 4147 2022 4147 
L 1259 4147 
z
M 628 4666 
L 1925 4666 
Q 3281 4666 3915 4102 
Q 4550 3538 4550 2338 
Q 4550 1131 3912 565 
Q 3275 0 1925 0 
L 628 0 
L 628 4666 
z
" transform="scale(0.015625)"/>
      <path id="DejaVuSans-62" d="M 3116 1747 
Q 3116 2381 2855 2742 
Q 2594 3103 2138 3103 
Q 1681 3103 1420 2742 
Q 1159 2381 1159 1747 
Q 1159 1113 1420 752 
Q 1681 391 2138 391 
Q 2594 391 2855 752 
Q 3116 1113 3116 1747 
z
M 1159 2969 
Q 1341 3281 1617 3432 
Q 1894 3584 2278 3584 
Q 2916 3584 3314 3078 
Q 3713 2572 3713 1747 
Q 3713 922 3314 415 
Q 2916 -91 2278 -91 
Q 1894 -91 1617 61 
Q 1341 213 1159 525 
L 1159 0 
L 581 0 
L 581 4863 
L 1159 4863 
L 1159 2969 
z
" transform="scale(0.015625)"/>
      <path id="DejaVuSans-6e" d="M 3513 2113 
L 3513 0 
L 2938 0 
L 2938 2094 
Q 2938 2591 2744 2837 
Q 2550 3084 2163 3084 
Q 1697 3084 1428 2787 
Q 1159 2491 1159 1978 
L 1159 0 
L 581 0 
L 581 3500 
L 1159 3500 
L 1159 2956 
Q 1366 3272 1645 3428 
Q 1925 3584 2291 3584 
Q 2894 3584 3203 3211 
Q 3513 2838 3513 2113 
z
" transform="scale(0.015625)"/>
     </defs>
     <use xlink:href="#DejaVuSans-52"/>
     <use xlink:href="#DejaVuSans-65" x="64.982422"/>
     <use xlink:href="#DejaVuSans-76" x="126.505859"/>
     <use xlink:href="#DejaVuSans-65" x="185.685547"/>
     <use xlink:href="#DejaVuSans-72" x="247.208984"/>
     <use xlink:href="#DejaVuSans-73" x="288.322266"/>
     <use xlink:href="#DejaVuSans-61" x="340.421875"/>
     <use xlink:href="#DejaVuSans-6c" x="401.701172"/>
     <use xlink:href="#DejaVuSans-20" x="429.484375"/>
     <use xlink:href="#DejaVuSans-46" x="461.271484"/>
     <use xlink:href="#DejaVuSans-69" x="511.541016"/>
     <use xlink:href="#DejaVuSans-72" x="539.324219"/>
     <use xlink:href="#DejaVuSans-73" x="580.4375"/>
     <use xlink:href="#DejaVuSans-74" x="632.537109"/>
     <use xlink:href="#DejaVuSans-20" x="671.746094"/>
     <use xlink:href="#DejaVuSans-47" x="703.533203"/>
     <use xlink:href="#DejaVuSans-6f" x="781.023438"/>
     <use xlink:href="#DejaVuSans-6f" x="842.205078"/>
     <use xlink:href="#DejaVuSans-64" x="903.386719"/>
     <use xlink:href="#DejaVuSans-20" x="966.863281"/>
     <use xlink:href="#DejaVuSans-4d" x="998.650391"/>
     <use xlink:href="#DejaVuSans-65" x="1084.929688"/>
     <use xlink:href="#DejaVuSans-61" x="1146.453125"/>
     <use xlink:href="#DejaVuSans-6c" x="1207.732422"/>
     <use xlink:href="#DejaVuSans-20" x="1235.515625"/>
     <use xlink:href="#DejaVuSans-54" x="1267.302734"/>
     <use xlink:href="#DejaVuSans-69" x="1325.261719"/>
     <use xlink:href="#DejaVuSans-6d" x="1353.044922"/>
     <use xlink:href="#DejaVuSans-65" x="1450.457031"/>
     <use xlink:href="#DejaVuSans-20" x="1511.980469"/>
     <use xlink:href="#DejaVuSans-44" x="1543.767578"/>
     <use xlink:href="#DejaVuSans-69" x="1620.769531"/>
     <use xlink:href="#DejaVuSans-73" x="1648.552734"/>
     <use xlink:href="#DejaVuSans-74" x="1700.652344"/>
     <use xlink:href="#DejaVuSans-72" x="1739.861328"/>
     <use xlink:href="#DejaVuSans-69" x="1780.974609"/>
     <use xlink:href="#DejaVuSans-62" x="1808.757812"/>
     <use xlink:href="#DejaVuSans-75" x="1872.234375"/>
     <use xlink:href="#DejaVuSans-74" x="1935.613281"/>
     <use xlink:href="#DejaVuSans-69" x="1974.822266"/>
     <use xlink:href="#DejaVuSans-6f" x="2002.605469"/>
     <use xlink:href="#DejaVuSans-6e" x="2063.787109"/>
    </g>
   </g>
   <g id="legend_1">
    <g id="patch_10">
     <path d="M 46.511875 90.838125 
L 172.388125 90.838125 
Q 174.788125 90.838125 174.788125 88.438125 
L 174.788125 36.796875 
Q 174.788125 34.396875 172.388125 34.396875 
L 46.511875 34.396875 
Q 44.111875 34.396875 44.111875 36.796875 
L 44.111875 88.438125 
Q 44.111875 90.838125 46.511875 90.838125 
z
" style="fill: #ffffff; opacity: 0.8; stroke: #cccccc; stroke-linejoin: miter"/>
    </g>
    <g id="patch_11">
     <path d="M 48.911875 48.315 
L 72.911875 48.315 
L 72.911875 39.915 
L 48.911875 39.915 
z
" style="fill: #425df5; opacity: 0.65; stroke: #425df5; stroke-linejoin: miter"/>
    </g>
    <g id="text_16">
     <!-- cask (n=24) -->
     <g transform="translate(82.511875 48.315) scale(0.12 -0.12)">
      <defs>
       <path id="DejaVuSans-3d" d="M 678 2906 
L 4684 2906 
L 4684 2381 
L 678 2381 
L 678 2906 
z
M 678 1631 
L 4684 1631 
L 4684 1100 
L 678 1100 
L 678 1631 
z
" transform="scale(0.015625)"/>
      </defs>
      <use xlink:href="#DejaVuSans-63"/>
      <use xlink:href="#DejaVuSans-61" x="54.980469"/>
      <use xlink:href="#DejaVuSans-73" x="116.259766"/>
      <use xlink:href="#DejaVuSans-6b" x="168.359375"/>
      <use xlink:href="#DejaVuSans-20" x="226.269531"/>
      <use xlink:href="#DejaVuSans-28" x="258.056641"/>
      <use xlink:href="#DejaVuSans-6e" x="297.070312"/>
      <use xlink:href="#DejaVuSans-3d" x="360.449219"/>
      <use xlink:href="#DejaVuSans-32" x="444.238281"/>
      <use xlink:href="#DejaVuSans-34" x="507.861328"/>
      <use xlink:href="#DejaVuSans-29" x="571.484375"/>
     </g>
    </g>
    <g id="patch_12">
     <path d="M 48.911875 65.92875 
L 72.911875 65.92875 
L 72.911875 57.52875 
L 48.911875 57.52875 
z
" style="fill: #f55442; opacity: 0.65; stroke: #f55442; stroke-linejoin: miter"/>
    </g>
    <g id="text_17">
     <!-- ctrl (n=27) -->
     <g transform="translate(82.511875 65.92875) scale(0.12 -0.12)">
      <use xlink:href="#DejaVuSans-63"/>
      <use xlink:href="#DejaVuSans-74" x="54.980469"/>
      <use xlink:href="#DejaVuSans-72" x="94.189453"/>
      <use xlink:href="#DejaVuSans-6c" x="135.302734"/>
      <use xlink:href="#DejaVuSans-20" x="163.085938"/>
      <use xlink:href="#DejaVuSans-28" x="194.873047"/>
      <use xlink:href="#DejaVuSans-6e" x="233.886719"/>
      <use xlink:href="#DejaVuSans-3d" x="297.265625"/>
      <use xlink:href="#DejaVuSans-32" x="381.054688"/>
      <use xlink:href="#DejaVuSans-37" x="444.677734"/>
      <use xlink:href="#DejaVuSans-29" x="508.300781"/>
     </g>
    </g>
    <g id="patch_13">
     <path d="M 48.911875 83.5425 
L 72.911875 83.5425 
L 72.911875 75.1425 
L 48.911875 75.1425 
z
" style="fill: #0ec72a; opacity: 0.65; stroke: #0ec72a; stroke-linejoin: miter"/>
    </g>
    <g id="text_18">
     <!-- female (n=20) -->
     <g transform="translate(82.511875 83.5425) scale(0.12 -0.12)">
      <use xlink:href="#DejaVuSans-66"/>
      <use xlink:href="#DejaVuSans-65" x="35.205078"/>
      <use xlink:href="#DejaVuSans-6d" x="96.728516"/>
      <use xlink:href="#DejaVuSans-61" x="194.140625"/>
      <use xlink:href="#DejaVuSans-6c" x="255.419922"/>
      <use xlink:href="#DejaVuSans-65" x="283.203125"/>
      <use xlink:href="#DejaVuSans-20" x="344.726562"/>
      <use xlink:href="#DejaVuSans-28" x="376.513672"/>
      <use xlink:href="#DejaVuSans-6e" x="415.527344"/>
      <use xlink:href="#DejaVuSans-3d" x="478.90625"/>
      <use xlink:href="#DejaVuSans-32" x="562.695312"/>
      <use xlink:href="#DejaVuSans-30" x="626.318359"/>
      <use xlink:href="#DejaVuSans-29" x="689.941406"/>
     </g>
    </g>
   </g>
  </g>
 </g>
 <defs>
  <clipPath id="pb7fb59ad46">
   <rect x="38.111875" y="28.396875" width="379.44" height="332.64"/>
  </clipPath>
 </defs>
</svg>
