<?xml version="1.0" encoding="utf-8" standalone="no"?>
<!DOCTYPE svg PUBLIC "-//W3C//DTD SVG 1.1//EN"
  "http://www.w3.org/Graphics/SVG/1.1/DTD/svg11.dtd">
<svg xmlns:xlink="http://www.w3.org/1999/xlink" width="434.2925pt" height="402.464375pt" viewBox="0 0 434.2925 402.464375" xmlns="http://www.w3.org/2000/svg" version="1.1">
 <metadata>
  <rdf:RDF xmlns:dc="http://purl.org/dc/elements/1.1/" xmlns:cc="http://creativecommons.org/ns#" xmlns:rdf="http://www.w3.org/1999/02/22-rdf-syntax-ns#">
   <cc:Work>
    <dc:type rdf:resource="http://purl.org/dc/dcmitype/StillImage"/>
    <dc:date>2025-10-01T20:37:49.115376</dc:date>
    <dc:format>image/svg+xml</dc:format>
    <dc:creator>
     <cc:Agent>
      <dc:title>Matplotlib v3.8.4, https://matplotlib.org/</dc:title>
     </cc:Agent>
    </dc:creator>
   </cc:Work>
  </rdf:RDF>
 </metadata>
 <defs>
  <style type="text/css">*{stroke-linejoin: round; stroke-linecap: butt}</style>
 </defs>
 <g id="figure_1">
  <g id="patch_1">
   <path d="M 0 402.464375 
L 434.2925 402.464375 
L 434.2925 0 
L 0 0 
z
" style="fill: #ffffff"/>
  </g>
  <g id="axes_1">
   <g id="patch_2">
    <path d="M 47.6525 361.036875 
L 427.0925 361.036875 
L 427.0925 28.396875 
L 47.6525 28.396875 
z
" style="fill: #ffffff"/>
   </g>
   <g id="PolyCollection_1">
    <defs>
     <path id="m4a5e9f7d52" d="M 112.676887 -121.267079 
L 109.108113 -121.267079 
L 109.031712 -122.164344 
L 108.955054 -123.06161 
L 108.877118 -123.958875 
L 108.796682 -124.85614 
L 108.712352 -125.753406 
L 108.622588 -126.650671 
L 108.525735 -127.547937 
L 108.420065 -128.445202 
L 108.303806 -129.342467 
L 108.175192 -130.239733 
L 108.032494 -131.136998 
L 107.874062 -132.034263 
L 107.698361 -132.931529 
L 107.504005 -133.828794 
L 107.289792 -134.72606 
L 107.05473 -135.623325 
L 106.798063 -136.52059 
L 106.519297 -137.417856 
L 106.218213 -138.315121 
L 105.894886 -139.212386 
L 105.549691 -140.109652 
L 105.183308 -141.006917 
L 104.796722 -141.904183 
L 104.391212 -142.801448 
L 103.968342 -143.698713 
L 103.529941 -144.595979 
L 103.078081 -145.493244 
L 102.615048 -146.390509 
L 102.143313 -147.287775 
L 101.665502 -148.18504 
L 101.18436 -149.082305 
L 100.702725 -149.979571 
L 100.223494 -150.876836 
L 99.749595 -151.774102 
L 99.283971 -152.671367 
L 98.82955 -153.568632 
L 98.389233 -154.465898 
L 97.965873 -155.363163 
L 97.562264 -156.260428 
L 97.181114 -157.157694 
L 96.825035 -158.054959 
L 96.496511 -158.952225 
L 96.197869 -159.84949 
L 95.93125 -160.746755 
L 95.698563 -161.644021 
L 95.501449 -162.541286 
L 95.341229 -163.438551 
L 95.218871 -164.335817 
L 95.134943 -165.233082 
L 95.089587 -166.130348 
L 95.0825 -167.027613 
L 95.112925 -167.924878 
L 95.179664 -168.822144 
L 95.281107 -169.719409 
L 95.415278 -170.616674 
L 95.579894 -171.51394 
L 95.772446 -172.411205 
L 95.99028 -173.308471 
L 96.230693 -174.205736 
L 96.491021 -175.103001 
L 96.768728 -176.000267 
L 97.06148 -176.897532 
L 97.367209 -177.794797 
L 97.684148 -178.692063 
L 98.010855 -179.589328 
L 98.346212 -180.486594 
L 98.689396 -181.383859 
L 99.039837 -182.281124 
L 99.397162 -183.17839 
L 99.761116 -184.075655 
L 100.131489 -184.97292 
L 100.508039 -185.870186 
L 100.890413 -186.767451 
L 101.278088 -187.664717 
L 101.670323 -188.561982 
L 102.066122 -189.459247 
L 102.464228 -190.356513 
L 102.863127 -191.253778 
L 103.261076 -192.151043 
L 103.656148 -193.048309 
L 104.04629 -193.945574 
L 104.429391 -194.84284 
L 104.803358 -195.740105 
L 105.166192 -196.63737 
L 105.51606 -197.534636 
L 105.851362 -198.431901 
L 106.170788 -199.329166 
L 106.473356 -200.226432 
L 106.758441 -201.123697 
L 107.025783 -202.020963 
L 107.275482 -202.918228 
L 107.507976 -203.815493 
L 107.724003 -204.712759 
L 107.924554 -205.610024 
L 108.110817 -206.507289 
L 108.28412 -207.404555 
L 108.44586 -208.30182 
L 108.597451 -209.199086 
L 108.740259 -210.096351 
L 113.044741 -210.096351 
L 113.044741 -210.096351 
L 113.187549 -209.199086 
L 113.33914 -208.30182 
L 113.50088 -207.404555 
L 113.674183 -206.507289 
L 113.860446 -205.610024 
L 114.060997 -204.712759 
L 114.277024 -203.815493 
L 114.509518 -202.918228 
L 114.759217 -202.020963 
L 115.026559 -201.123697 
L 115.311644 -200.226432 
L 115.614212 -199.329166 
L 115.933638 -198.431901 
L 116.26894 -197.534636 
L 116.618808 -196.63737 
L 116.981642 -195.740105 
L 117.355609 -194.84284 
L 117.73871 -193.945574 
L 118.128852 -193.048309 
L 118.523924 -192.151043 
L 118.921873 -191.253778 
L 119.320772 -190.356513 
L 119.718878 -189.459247 
L 120.114677 -188.561982 
L 120.506912 -187.664717 
L 120.894587 -186.767451 
L 121.276961 -185.870186 
L 121.653511 -184.97292 
L 122.023884 -184.075655 
L 122.387838 -183.17839 
L 122.745163 -182.281124 
L 123.095604 -181.383859 
L 123.438788 -180.486594 
L 123.774145 -179.589328 
L 124.100852 -178.692063 
L 124.417791 -177.794797 
L 124.72352 -176.897532 
L 125.016272 -176.000267 
L 125.293979 -175.103001 
L 125.554307 -174.205736 
L 125.79472 -173.308471 
L 126.012554 -172.411205 
L 126.205106 -171.51394 
L 126.369722 -170.616674 
L 126.503893 -169.719409 
L 126.605336 -168.822144 
L 126.672075 -167.924878 
L 126.7025 -167.027613 
L 126.695413 -166.130348 
L 126.650057 -165.233082 
L 126.566129 -164.335817 
L 126.443771 -163.438551 
L 126.283551 -162.541286 
L 126.086437 -161.644021 
L 125.85375 -160.746755 
L 125.587131 -159.84949 
L 125.288489 -158.952225 
L 124.959965 -158.054959 
L 124.603886 -157.157694 
L 124.222736 -156.260428 
L 123.819127 -155.363163 
L 123.395767 -154.465898 
L 122.95545 -153.568632 
L 122.501029 -152.671367 
L 122.035405 -151.774102 
L 121.561506 -150.876836 
L 121.082275 -149.979571 
L 120.60064 -149.082305 
L 120.119498 -148.18504 
L 119.641687 -147.287775 
L 119.169952 -146.390509 
L 118.706919 -145.493244 
L 118.255059 -144.595979 
L 117.816658 -143.698713 
L 117.393788 -142.801448 
L 116.988278 -141.904183 
L 116.601692 -141.006917 
L 116.235309 -140.109652 
L 115.890114 -139.212386 
L 115.566787 -138.315121 
L 115.265703 -137.417856 
L 114.986937 -136.52059 
L 114.73027 -135.623325 
L 114.495208 -134.72606 
L 114.280995 -133.828794 
L 114.086639 -132.931529 
L 113.910938 -132.034263 
L 113.752506 -131.136998 
L 113.609808 -130.239733 
L 113.481194 -129.342467 
L 113.364935 -128.445202 
L 113.259265 -127.547937 
L 113.162412 -126.650671 
L 113.072648 -125.753406 
L 112.988318 -124.85614 
L 112.907882 -123.958875 
L 112.829946 -123.06161 
L 112.753288 -122.164344 
L 112.676887 -121.267079 
z
" style="stroke: #000000; stroke-opacity: 0.65"/>
    </defs>
    <g clip-path="url(#pb4a05c1543)">
     <use xlink:href="#m4a5e9f7d52" x="0" y="402.464375" style="fill: #425df5; fill-opacity: 0.65; stroke: #000000; stroke-opacity: 0.65"/>
    </g>
   </g>
   <g id="PolyCollection_2">
    <defs>
     <path id="mce8cb2cbeb" d="M 248.610502 -137.340208 
L 226.134498 -137.340208 
L 225.438586 -139.578665 
L 224.775813 -141.817123 
L 224.155298 -144.05558 
L 223.585687 -146.294038 
L 223.074945 -148.532495 
L 222.630152 -150.770953 
L 222.257333 -153.00941 
L 221.961315 -155.247868 
L 221.745627 -157.486325 
L 221.612431 -159.724783 
L 221.5625 -161.96324 
L 221.595237 -164.201698 
L 221.708726 -166.440155 
L 221.899822 -168.678613 
L 222.164265 -170.91707 
L 222.496825 -173.155528 
L 222.891454 -175.393985 
L 223.341458 -177.632443 
L 223.839664 -179.8709 
L 224.378593 -182.109358 
L 224.950624 -184.347815 
L 225.548147 -186.586273 
L 226.163698 -188.82473 
L 226.79009 -191.063188 
L 227.420512 -193.301645 
L 228.048618 -195.540103 
L 228.668601 -197.77856 
L 229.275239 -200.017018 
L 229.863937 -202.255475 
L 230.430746 -204.493933 
L 230.972368 -206.73239 
L 231.486157 -208.970848 
L 231.970098 -211.209305 
L 232.422785 -213.447763 
L 232.843388 -215.68622 
L 233.231607 -217.924678 
L 233.587628 -220.163135 
L 233.912071 -222.401593 
L 234.205929 -224.64005 
L 234.470507 -226.878508 
L 234.707368 -229.116965 
L 234.91826 -231.355423 
L 235.105066 -233.59388 
L 235.269736 -235.832338 
L 235.414246 -238.070795 
L 235.54054 -240.309253 
L 235.650501 -242.54771 
L 235.74591 -244.786168 
L 235.828433 -247.024625 
L 235.899601 -249.263083 
L 235.960808 -251.50154 
L 236.013315 -253.739998 
L 236.058253 -255.978455 
L 236.096648 -258.216913 
L 236.129425 -260.45537 
L 236.157439 -262.693828 
L 236.181482 -264.932285 
L 236.202305 -267.170743 
L 236.220629 -269.4092 
L 236.237147 -271.647658 
L 236.25253 -273.886115 
L 236.267421 -276.124573 
L 236.282428 -278.36303 
L 236.298109 -280.601488 
L 236.314953 -282.839945 
L 236.333371 -285.078403 
L 236.353671 -287.31686 
L 236.376045 -289.555318 
L 236.400559 -291.793775 
L 236.427141 -294.032233 
L 236.455584 -296.27069 
L 236.485548 -298.509148 
L 236.516569 -300.747605 
L 236.548078 -302.986063 
L 236.579423 -305.22452 
L 236.609895 -307.462978 
L 236.638759 -309.701435 
L 236.665285 -311.939893 
L 236.688784 -314.17835 
L 236.708637 -316.416808 
L 236.724326 -318.655265 
L 236.735459 -320.893723 
L 236.74179 -323.13218 
L 236.743239 -325.370638 
L 236.739892 -327.609095 
L 236.732009 -329.847553 
L 236.720019 -332.08601 
L 236.7045 -334.324468 
L 236.686171 -336.562925 
L 236.665857 -338.801383 
L 236.64447 -341.03984 
L 236.622969 -343.278298 
L 236.602329 -345.516755 
L 236.583506 -347.755213 
L 236.567401 -349.99367 
L 236.554832 -352.232128 
L 236.546502 -354.470585 
L 236.542977 -356.709043 
L 236.54467 -358.9475 
L 238.20033 -358.9475 
L 238.20033 -358.9475 
L 238.202023 -356.709043 
L 238.198498 -354.470585 
L 238.190168 -352.232128 
L 238.177599 -349.99367 
L 238.161494 -347.755213 
L 238.142671 -345.516755 
L 238.122031 -343.278298 
L 238.10053 -341.03984 
L 238.079143 -338.801383 
L 238.058829 -336.562925 
L 238.0405 -334.324468 
L 238.024981 -332.08601 
L 238.012991 -329.847553 
L 238.005108 -327.609095 
L 238.001761 -325.370638 
L 238.00321 -323.13218 
L 238.009541 -320.893723 
L 238.020674 -318.655265 
L 238.036363 -316.416808 
L 238.056216 -314.17835 
L 238.079715 -311.939893 
L 238.106241 -309.701435 
L 238.135105 -307.462978 
L 238.165577 -305.22452 
L 238.196922 -302.986063 
L 238.228431 -300.747605 
L 238.259452 -298.509148 
L 238.289416 -296.27069 
L 238.317859 -294.032233 
L 238.344441 -291.793775 
L 238.368955 -289.555318 
L 238.391329 -287.31686 
L 238.411629 -285.078403 
L 238.430047 -282.839945 
L 238.446891 -280.601488 
L 238.462572 -278.36303 
L 238.477579 -276.124573 
L 238.49247 -273.886115 
L 238.507853 -271.647658 
L 238.524371 -269.4092 
L 238.542695 -267.170743 
L 238.563518 -264.932285 
L 238.587561 -262.693828 
L 238.615575 -260.45537 
L 238.648352 -258.216913 
L 238.686747 -255.978455 
L 238.731685 -253.739998 
L 238.784192 -251.50154 
L 238.845399 -249.263083 
L 238.916567 -247.024625 
L 238.99909 -244.786168 
L 239.094499 -242.54771 
L 239.20446 -240.309253 
L 239.330754 -238.070795 
L 239.475264 -235.832338 
L 239.639934 -233.59388 
L 239.82674 -231.355423 
L 240.037632 -229.116965 
L 240.274493 -226.878508 
L 240.539071 -224.64005 
L 240.832929 -222.401593 
L 241.157372 -220.163135 
L 241.513393 -217.924678 
L 241.901612 -215.68622 
L 242.322215 -213.447763 
L 242.774902 -211.209305 
L 243.258843 -208.970848 
L 243.772632 -206.73239 
L 244.314254 -204.493933 
L 244.881063 -202.255475 
L 245.469761 -200.017018 
L 246.076399 -197.77856 
L 246.696382 -195.540103 
L 247.324488 -193.301645 
L 247.95491 -191.063188 
L 248.581302 -188.82473 
L 249.196853 -186.586273 
L 249.794376 -184.347815 
L 250.366407 -182.109358 
L 250.905336 -179.8709 
L 251.403542 -177.632443 
L 251.853546 -175.393985 
L 252.248175 -173.155528 
L 252.580735 -170.91707 
L 252.845178 -168.678613 
L 253.036274 -166.440155 
L 253.149763 -164.201698 
L 253.1825 -161.96324 
L 253.132569 -159.724783 
L 252.999373 -157.486325 
L 252.783685 -155.247868 
L 252.487667 -153.00941 
L 252.114848 -150.770953 
L 251.670055 -148.532495 
L 251.159313 -146.294038 
L 250.589702 -144.05558 
L 249.969187 -141.817123 
L 249.306414 -139.578665 
L 248.610502 -137.340208 
z
" style="stroke: #000000; stroke-opacity: 0.65"/>
    </defs>
    <g clip-path="url(#pb4a05c1543)">
     <use xlink:href="#mce8cb2cbeb" x="0" y="402.464375" style="fill: #f55442; fill-opacity: 0.65; stroke: #000000; stroke-opacity: 0.65"/>
    </g>
   </g>
   <g id="PolyCollection_3">
    <defs>
     <path id="m3d97645b0c" d="M 365.182059 -56.5475 
L 362.522941 -56.5475 
L 362.524001 -58.566739 
L 362.533689 -60.585979 
L 362.551393 -62.605218 
L 362.576238 -64.624457 
L 362.607099 -66.643696 
L 362.642619 -68.662936 
L 362.681233 -70.682175 
L 362.721193 -72.701414 
L 362.760605 -74.720653 
L 362.797454 -76.739893 
L 362.829639 -78.759132 
L 362.855005 -80.778371 
L 362.871372 -82.79761 
L 362.876565 -84.81685 
L 362.868435 -86.836089 
L 362.844885 -88.855328 
L 362.803888 -90.874567 
L 362.743507 -92.893807 
L 362.661913 -94.913046 
L 362.557394 -96.932285 
L 362.428376 -98.951524 
L 362.273434 -100.970764 
L 362.091307 -102.990003 
L 361.880912 -105.009242 
L 361.64136 -107.028481 
L 361.371973 -109.047721 
L 361.072301 -111.06696 
L 360.742137 -113.086199 
L 360.381539 -115.105438 
L 359.990848 -117.124678 
L 359.570707 -119.143917 
L 359.122081 -121.163156 
L 358.646275 -123.182395 
L 358.144954 -125.201635 
L 357.620154 -127.220874 
L 357.0743 -129.240113 
L 356.510211 -131.259352 
L 355.931104 -133.278592 
L 355.340586 -135.297831 
L 354.742645 -137.31707 
L 354.141623 -139.336309 
L 353.54218 -141.355549 
L 352.949245 -143.374788 
L 352.367959 -145.394027 
L 351.803597 -147.413266 
L 351.261481 -149.432506 
L 350.746891 -151.451745 
L 350.264958 -153.470984 
L 349.820559 -155.490223 
L 349.418211 -157.509463 
L 349.061975 -159.528702 
L 348.755358 -161.547941 
L 348.50124 -163.56718 
L 348.301811 -165.58642 
L 348.158528 -167.605659 
L 348.072103 -169.624898 
L 348.0425 -171.644137 
L 348.068962 -173.663377 
L 348.150059 -175.682616 
L 348.283749 -177.701855 
L 348.46745 -179.721094 
L 348.698131 -181.740334 
L 348.972392 -183.759573 
L 349.286553 -185.778812 
L 349.636733 -187.798051 
L 350.018924 -189.817291 
L 350.429049 -191.83653 
L 350.863013 -193.855769 
L 351.316737 -195.875008 
L 351.786187 -197.894248 
L 352.26739 -199.913487 
L 352.756448 -201.932726 
L 353.249547 -203.951966 
L 353.742974 -205.971205 
L 354.23313 -207.990444 
L 354.716555 -210.009683 
L 355.18996 -212.028923 
L 355.650265 -214.048162 
L 356.094646 -216.067401 
L 356.520586 -218.08664 
L 356.925929 -220.10588 
L 357.30893 -222.125119 
L 357.6683 -224.144358 
L 358.003241 -226.163597 
L 358.313473 -228.182837 
L 358.599233 -230.202076 
L 358.86127 -232.221315 
L 359.100808 -234.240554 
L 359.319503 -236.259794 
L 359.519372 -238.279033 
L 359.702716 -240.298272 
L 359.872028 -242.317511 
L 360.029897 -244.336751 
L 360.178908 -246.35599 
L 360.321552 -248.375229 
L 360.460132 -250.394468 
L 360.596691 -252.413708 
L 360.732955 -254.432947 
L 360.870281 -256.452186 
L 366.834719 -256.452186 
L 366.834719 -256.452186 
L 366.972045 -254.432947 
L 367.108309 -252.413708 
L 367.244868 -250.394468 
L 367.383448 -248.375229 
L 367.526092 -246.35599 
L 367.675103 -244.336751 
L 367.832972 -242.317511 
L 368.002284 -240.298272 
L 368.185628 -238.279033 
L 368.385497 -236.259794 
L 368.604192 -234.240554 
L 368.84373 -232.221315 
L 369.105767 -230.202076 
L 369.391527 -228.182837 
L 369.701759 -226.163597 
L 370.0367 -224.144358 
L 370.39607 -222.125119 
L 370.779071 -220.10588 
L 371.184414 -218.08664 
L 371.610354 -216.067401 
L 372.054735 -214.048162 
L 372.51504 -212.028923 
L 372.988445 -210.009683 
L 373.47187 -207.990444 
L 373.962026 -205.971205 
L 374.455453 -203.951966 
L 374.948552 -201.932726 
L 375.43761 -199.913487 
L 375.918813 -197.894248 
L 376.388263 -195.875008 
L 376.841987 -193.855769 
L 377.275951 -191.83653 
L 377.686076 -189.817291 
L 378.068267 -187.798051 
L 378.418447 -185.778812 
L 378.732608 -183.759573 
L 379.006869 -181.740334 
L 379.23755 -179.721094 
L 379.421251 -177.701855 
L 379.554941 -175.682616 
L 379.636038 -173.663377 
L 379.6625 -171.644137 
L 379.632897 -169.624898 
L 379.546472 -167.605659 
L 379.403189 -165.58642 
L 379.20376 -163.56718 
L 378.949642 -161.547941 
L 378.643025 -159.528702 
L 378.286789 -157.509463 
L 377.884441 -155.490223 
L 377.440042 -153.470984 
L 376.958109 -151.451745 
L 376.443519 -149.432506 
L 375.901403 -147.413266 
L 375.337041 -145.394027 
L 374.755755 -143.374788 
L 374.16282 -141.355549 
L 373.563377 -139.336309 
L 372.962355 -137.31707 
L 372.364414 -135.297831 
L 371.773896 -133.278592 
L 371.194789 -131.259352 
L 370.6307 -129.240113 
L 370.084846 -127.220874 
L 369.560046 -125.201635 
L 369.058725 -123.182395 
L 368.582919 -121.163156 
L 368.134293 -119.143917 
L 367.714152 -117.124678 
L 367.323461 -115.105438 
L 366.962863 -113.086199 
L 366.632699 -111.06696 
L 366.333027 -109.047721 
L 366.06364 -107.028481 
L 365.824088 -105.009242 
L 365.613693 -102.990003 
L 365.431566 -100.970764 
L 365.276624 -98.951524 
L 365.147606 -96.932285 
L 365.043087 -94.913046 
L 364.961493 -92.893807 
L 364.901112 -90.874567 
L 364.860115 -88.855328 
L 364.836565 -86.836089 
L 364.828435 -84.81685 
L 364.833628 -82.79761 
L 364.849995 -80.778371 
L 364.875361 -78.759132 
L 364.907546 -76.739893 
L 364.944395 -74.720653 
L 364.983807 -72.701414 
L 365.023767 -70.682175 
L 365.062381 -68.662936 
L 365.097901 -66.643696 
L 365.128762 -64.624457 
L 365.153607 -62.605218 
L 365.171311 -60.585979 
L 365.180999 -58.566739 
L 365.182059 -56.5475 
z
" style="stroke: #000000; stroke-opacity: 0.65"/>
    </defs>
    <g clip-path="url(#pb4a05c1543)">
     <use xlink:href="#m3d97645b0c" x="0" y="402.464375" style="fill: #0ec72a; fill-opacity: 0.65; stroke: #000000; stroke-opacity: 0.65"/>
    </g>
   </g>
   <g id="matplotlib.axis_1">
    <g id="xtick_1">
     <g id="line2d_1">
      <defs>
       <path id="m74a40d3ecb" d="M 0 0 
L 0 3.5 
" style="stroke: #000000; stroke-width: 0.8"/>
      </defs>
      <g>
       <use xlink:href="#m74a40d3ecb" x="110.8925" y="361.036875" style="stroke: #000000; stroke-width: 0.8"/>
      </g>
     </g>
     <g id="text_1">
      <!-- cask -->
      <g transform="translate(99.579219 375.635312) scale(0.1 -0.1)">
       <defs>
        <path id="DejaVuSans-63" d="M 3122 3366 
L 3122 2828 
Q 2878 2963 2633 3030 
Q 2388 3097 2138 3097 
Q 1578 3097 1268 2742 
Q 959 2388 959 1747 
Q 959 1106 1268 751 
Q 1578 397 2138 397 
Q 2388 397 2633 464 
Q 2878 531 3122 666 
L 3122 134 
Q 2881 22 2623 -34 
Q 2366 -91 2075 -91 
Q 1284 -91 818 406 
Q 353 903 353 1747 
Q 353 2603 823 3093 
Q 1294 3584 2113 3584 
Q 2378 3584 2631 3529 
Q 2884 3475 3122 3366 
z
" transform="scale(0.015625)"/>
        <path id="DejaVuSans-61" d="M 2194 1759 
Q 1497 1759 1228 1600 
Q 959 1441 959 1056 
Q 959 750 1161 570 
Q 1363 391 1709 391 
Q 2188 391 2477 730 
Q 2766 1069 2766 1631 
L 2766 1759 
L 2194 1759 
z
M 3341 1997 
L 3341 0 
L 2766 0 
L 2766 531 
Q 2569 213 2275 61 
Q 1981 -91 1556 -91 
Q 1019 -91 701 211 
Q 384 513 384 1019 
Q 384 1609 779 1909 
Q 1175 2209 1959 2209 
L 2766 2209 
L 2766 2266 
Q 2766 2663 2505 2880 
Q 2244 3097 1772 3097 
Q 1472 3097 1187 3025 
Q 903 2953 641 2809 
L 641 3341 
Q 956 3463 1253 3523 
Q 1550 3584 1831 3584 
Q 2591 3584 2966 3190 
Q 3341 2797 3341 1997 
z
" transform="scale(0.015625)"/>
        <path id="DejaVuSans-73" d="M 2834 3397 
L 2834 2853 
Q 2591 2978 2328 3040 
Q 2066 3103 1784 3103 
Q 1356 3103 1142 2972 
Q 928 2841 928 2578 
Q 928 2378 1081 2264 
Q 1234 2150 1697 2047 
L 1894 2003 
Q 2506 1872 2764 1633 
Q 3022 1394 3022 966 
Q 3022 478 2636 193 
Q 2250 -91 1575 -91 
Q 1294 -91 989 -36 
Q 684 19 347 128 
L 347 722 
Q 666 556 975 473 
Q 1284 391 1588 391 
Q 1994 391 2212 530 
Q 2431 669 2431 922 
Q 2431 1156 2273 1281 
Q 2116 1406 1581 1522 
L 1381 1569 
Q 847 1681 609 1914 
Q 372 2147 372 2553 
Q 372 3047 722 3315 
Q 1072 3584 1716 3584 
Q 2034 3584 2315 3537 
Q 2597 3491 2834 3397 
z
" transform="scale(0.015625)"/>
        <path id="DejaVuSans-6b" d="M 581 4863 
L 1159 4863 
L 1159 1991 
L 2875 3500 
L 3609 3500 
L 1753 1863 
L 3688 0 
L 2938 0 
L 1159 1709 
L 1159 0 
L 581 0 
L 581 4863 
z
" transform="scale(0.015625)"/>
       </defs>
       <use xlink:href="#DejaVuSans-63"/>
       <use xlink:href="#DejaVuSans-61" x="54.980469"/>
       <use xlink:href="#DejaVuSans-73" x="116.259766"/>
       <use xlink:href="#DejaVuSans-6b" x="168.359375"/>
      </g>
     </g>
    </g>
    <g id="xtick_2">
     <g id="line2d_2">
      <g>
       <use xlink:href="#m74a40d3ecb" x="237.3725" y="361.036875" style="stroke: #000000; stroke-width: 0.8"/>
      </g>
     </g>
     <g id="text_2">
      <!-- ctrl -->
      <g transform="translate(229.218594 375.635312) scale(0.1 -0.1)">
       <defs>
        <path id="DejaVuSans-74" d="M 1172 4494 
L 1172 3500 
L 2356 3500 
L 2356 3053 
L 1172 3053 
L 1172 1153 
Q 1172 725 1289 603 
Q 1406 481 1766 481 
L 2356 481 
L 2356 0 
L 1766 0 
Q 1100 0 847 248 
Q 594 497 594 1153 
L 594 3053 
L 172 3053 
L 172 3500 
L 594 3500 
L 594 4494 
L 1172 4494 
z
" transform="scale(0.015625)"/>
        <path id="DejaVuSans-72" d="M 2631 2963 
Q 2534 3019 2420 3045 
Q 2306 3072 2169 3072 
Q 1681 3072 1420 2755 
Q 1159 2438 1159 1844 
L 1159 0 
L 581 0 
L 581 3500 
L 1159 3500 
L 1159 2956 
Q 1341 3275 1631 3429 
Q 1922 3584 2338 3584 
Q 2397 3584 2469 3576 
Q 2541 3569 2628 3553 
L 2631 2963 
z
" transform="scale(0.015625)"/>
        <path id="DejaVuSans-6c" d="M 603 4863 
L 1178 4863 
L 1178 0 
L 603 0 
L 603 4863 
z
" transform="scale(0.015625)"/>
       </defs>
       <use xlink:href="#DejaVuSans-63"/>
       <use xlink:href="#DejaVuSans-74" x="54.980469"/>
       <use xlink:href="#DejaVuSans-72" x="94.189453"/>
       <use xlink:href="#DejaVuSans-6c" x="135.302734"/>
      </g>
     </g>
    </g>
    <g id="xtick_3">
     <g id="line2d_3">
      <g>
       <use xlink:href="#m74a40d3ecb" x="363.8525" y="361.036875" style="stroke: #000000; stroke-width: 0.8"/>
      </g>
     </g>
     <g id="text_3">
      <!-- female -->
      <g transform="translate(346.615781 375.635312) scale(0.1 -0.1)">
       <defs>
        <path id="DejaVuSans-66" d="M 2375 4863 
L 2375 4384 
L 1825 4384 
Q 1516 4384 1395 4259 
Q 1275 4134 1275 3809 
L 1275 3500 
L 2222 3500 
L 2222 3053 
L 1275 3053 
L 1275 0 
L 697 0 
L 697 3053 
L 147 3053 
L 147 3500 
L 697 3500 
L 697 3744 
Q 697 4328 969 4595 
Q 1241 4863 1831 4863 
L 2375 4863 
z
" transform="scale(0.015625)"/>
        <path id="DejaVuSans-65" d="M 3597 1894 
L 3597 1613 
L 953 1613 
Q 991 1019 1311 708 
Q 1631 397 2203 397 
Q 2534 397 2845 478 
Q 3156 559 3463 722 
L 3463 178 
Q 3153 47 2828 -22 
Q 2503 -91 2169 -91 
Q 1331 -91 842 396 
Q 353 884 353 1716 
Q 353 2575 817 3079 
Q 1281 3584 2069 3584 
Q 2775 3584 3186 3129 
Q 3597 2675 3597 1894 
z
M 3022 2063 
Q 3016 2534 2758 2815 
Q 2500 3097 2075 3097 
Q 1594 3097 1305 2825 
Q 1016 2553 972 2059 
L 3022 2063 
z
" transform="scale(0.015625)"/>
        <path id="DejaVuSans-6d" d="M 3328 2828 
Q 3544 3216 3844 3400 
Q 4144 3584 4550 3584 
Q 5097 3584 5394 3201 
Q 5691 2819 5691 2113 
L 5691 0 
L 5113 0 
L 5113 2094 
Q 5113 2597 4934 2840 
Q 4756 3084 4391 3084 
Q 3944 3084 3684 2787 
Q 3425 2491 3425 1978 
L 3425 0 
L 2847 0 
L 2847 2094 
Q 2847 2600 2669 2842 
Q 2491 3084 2119 3084 
Q 1678 3084 1418 2786 
Q 1159 2488 1159 1978 
L 1159 0 
L 581 0 
L 581 3500 
L 1159 3500 
L 1159 2956 
Q 1356 3278 1631 3431 
Q 1906 3584 2284 3584 
Q 2666 3584 2933 3390 
Q 3200 3197 3328 2828 
z
" transform="scale(0.015625)"/>
       </defs>
       <use xlink:href="#DejaVuSans-66"/>
       <use xlink:href="#DejaVuSans-65" x="35.205078"/>
       <use xlink:href="#DejaVuSans-6d" x="96.728516"/>
       <use xlink:href="#DejaVuSans-61" x="194.140625"/>
       <use xlink:href="#DejaVuSans-6c" x="255.419922"/>
       <use xlink:href="#DejaVuSans-65" x="283.203125"/>
      </g>
     </g>
    </g>
    <g id="text_4">
     <!-- Groups -->
     <g transform="translate(212.418594 392.352812) scale(0.14 -0.14)">
      <defs>
       <path id="DejaVuSans-47" d="M 3809 666 
L 3809 1919 
L 2778 1919 
L 2778 2438 
L 4434 2438 
L 4434 434 
Q 4069 175 3628 42 
Q 3188 -91 2688 -91 
Q 1594 -91 976 548 
Q 359 1188 359 2328 
Q 359 3472 976 4111 
Q 1594 4750 2688 4750 
Q 3144 4750 3555 4637 
Q 3966 4525 4313 4306 
L 4313 3634 
Q 3963 3931 3569 4081 
Q 3175 4231 2741 4231 
Q 1884 4231 1454 3753 
Q 1025 3275 1025 2328 
Q 1025 1384 1454 906 
Q 1884 428 2741 428 
Q 3075 428 3337 486 
Q 3600 544 3809 666 
z
" transform="scale(0.015625)"/>
       <path id="DejaVuSans-6f" d="M 1959 3097 
Q 1497 3097 1228 2736 
Q 959 2375 959 1747 
Q 959 1119 1226 758 
Q 1494 397 1959 397 
Q 2419 397 2687 759 
Q 2956 1122 2956 1747 
Q 2956 2369 2687 2733 
Q 2419 3097 1959 3097 
z
M 1959 3584 
Q 2709 3584 3137 3096 
Q 3566 2609 3566 1747 
Q 3566 888 3137 398 
Q 2709 -91 1959 -91 
Q 1206 -91 779 398 
Q 353 888 353 1747 
Q 353 2609 779 3096 
Q 1206 3584 1959 3584 
z
" transform="scale(0.015625)"/>
       <path id="DejaVuSans-75" d="M 544 1381 
L 544 3500 
L 1119 3500 
L 1119 1403 
Q 1119 906 1312 657 
Q 1506 409 1894 409 
Q 2359 409 2629 706 
Q 2900 1003 2900 1516 
L 2900 3500 
L 3475 3500 
L 3475 0 
L 2900 0 
L 2900 538 
Q 2691 219 2414 64 
Q 2138 -91 1772 -91 
Q 1169 -91 856 284 
Q 544 659 544 1381 
z
M 1991 3584 
L 1991 3584 
z
" transform="scale(0.015625)"/>
       <path id="DejaVuSans-70" d="M 1159 525 
L 1159 -1331 
L 581 -1331 
L 581 3500 
L 1159 3500 
L 1159 2969 
Q 1341 3281 1617 3432 
Q 1894 3584 2278 3584 
Q 2916 3584 3314 3078 
Q 3713 2572 3713 1747 
Q 3713 922 3314 415 
Q 2916 -91 2278 -91 
Q 1894 -91 1617 61 
Q 1341 213 1159 525 
z
M 3116 1747 
Q 3116 2381 2855 2742 
Q 2594 3103 2138 3103 
Q 1681 3103 1420 2742 
Q 1159 2381 1159 1747 
Q 1159 1113 1420 752 
Q 1681 391 2138 391 
Q 2594 391 2855 752 
Q 3116 1113 3116 1747 
z
" transform="scale(0.015625)"/>
      </defs>
      <use xlink:href="#DejaVuSans-47"/>
      <use xlink:href="#DejaVuSans-72" x="77.490234"/>
      <use xlink:href="#DejaVuSans-6f" x="116.353516"/>
      <use xlink:href="#DejaVuSans-75" x="177.535156"/>
      <use xlink:href="#DejaVuSans-70" x="240.914062"/>
      <use xlink:href="#DejaVuSans-73" x="304.390625"/>
     </g>
    </g>
   </g>
   <g id="matplotlib.axis_2">
    <g id="ytick_1">
     <g id="line2d_4">
      <path d="M 47.6525 345.916875 
L 427.0925 345.916875 
" clip-path="url(#pb4a05c1543)" style="fill: none; stroke-dasharray: 2.96,1.28; stroke-dashoffset: 0; stroke: #b0b0b0; stroke-opacity: 0.3; stroke-width: 0.8"/>
     </g>
     <g id="line2d_5">
      <defs>
       <path id="m7f11c881e9" d="M 0 0 
L -3.5 0 
" style="stroke: #000000; stroke-width: 0.8"/>
      </defs>
      <g>
       <use xlink:href="#m7f11c881e9" x="47.6525" y="345.916875" style="stroke: #000000; stroke-width: 0.8"/>
      </g>
     </g>
     <g id="text_5">
      <!-- 0.0 -->
      <g transform="translate(24.749375 349.716094) scale(0.1 -0.1)">
       <defs>
        <path id="DejaVuSans-30" d="M 2034 4250 
Q 1547 4250 1301 3770 
Q 1056 3291 1056 2328 
Q 1056 1369 1301 889 
Q 1547 409 2034 409 
Q 2525 409 2770 889 
Q 3016 1369 3016 2328 
Q 3016 3291 2770 3770 
Q 2525 4250 2034 4250 
z
M 2034 4750 
Q 2819 4750 3233 4129 
Q 3647 3509 3647 2328 
Q 3647 1150 3233 529 
Q 2819 -91 2034 -91 
Q 1250 -91 836 529 
Q 422 1150 422 2328 
Q 422 3509 836 4129 
Q 1250 4750 2034 4750 
z
" transform="scale(0.015625)"/>
        <path id="DejaVuSans-2e" d="M 684 794 
L 1344 794 
L 1344 0 
L 684 0 
L 684 794 
z
" transform="scale(0.015625)"/>
       </defs>
       <use xlink:href="#DejaVuSans-30"/>
       <use xlink:href="#DejaVuSans-2e" x="63.623047"/>
       <use xlink:href="#DejaVuSans-30" x="95.410156"/>
      </g>
     </g>
    </g>
    <g id="ytick_2">
     <g id="line2d_6">
      <path d="M 47.6525 307.092892 
L 427.0925 307.092892 
" clip-path="url(#pb4a05c1543)" style="fill: none; stroke-dasharray: 2.96,1.28; stroke-dashoffset: 0; stroke: #b0b0b0; stroke-opacity: 0.3; stroke-width: 0.8"/>
     </g>
     <g id="line2d_7">
      <g>
       <use xlink:href="#m7f11c881e9" x="47.6525" y="307.092892" style="stroke: #000000; stroke-width: 0.8"/>
      </g>
     </g>
     <g id="text_6">
      <!-- 0.1 -->
      <g transform="translate(24.749375 310.892111) scale(0.1 -0.1)">
       <defs>
        <path id="DejaVuSans-31" d="M 794 531 
L 1825 531 
L 1825 4091 
L 703 3866 
L 703 4441 
L 1819 4666 
L 2450 4666 
L 2450 531 
L 3481 531 
L 3481 0 
L 794 0 
L 794 531 
z
" transform="scale(0.015625)"/>
       </defs>
       <use xlink:href="#DejaVuSans-30"/>
       <use xlink:href="#DejaVuSans-2e" x="63.623047"/>
       <use xlink:href="#DejaVuSans-31" x="95.410156"/>
      </g>
     </g>
    </g>
    <g id="ytick_3">
     <g id="line2d_8">
      <path d="M 47.6525 268.26891 
L 427.0925 268.26891 
" clip-path="url(#pb4a05c1543)" style="fill: none; stroke-dasharray: 2.96,1.28; stroke-dashoffset: 0; stroke: #b0b0b0; stroke-opacity: 0.3; stroke-width: 0.8"/>
     </g>
     <g id="line2d_9">
      <g>
       <use xlink:href="#m7f11c881e9" x="47.6525" y="268.26891" style="stroke: #000000; stroke-width: 0.8"/>
      </g>
     </g>
     <g id="text_7">
      <!-- 0.2 -->
      <g transform="translate(24.749375 272.068129) scale(0.1 -0.1)">
       <defs>
        <path id="DejaVuSans-32" d="M 1228 531 
L 3431 531 
L 3431 0 
L 469 0 
L 469 531 
Q 828 903 1448 1529 
Q 2069 2156 2228 2338 
Q 2531 2678 2651 2914 
Q 2772 3150 2772 3378 
Q 2772 3750 2511 3984 
Q 2250 4219 1831 4219 
Q 1534 4219 1204 4116 
Q 875 4013 500 3803 
L 500 4441 
Q 881 4594 1212 4672 
Q 1544 4750 1819 4750 
Q 2544 4750 2975 4387 
Q 3406 4025 3406 3419 
Q 3406 3131 3298 2873 
Q 3191 2616 2906 2266 
Q 2828 2175 2409 1742 
Q 1991 1309 1228 531 
z
" transform="scale(0.015625)"/>
       </defs>
       <use xlink:href="#DejaVuSans-30"/>
       <use xlink:href="#DejaVuSans-2e" x="63.623047"/>
       <use xlink:href="#DejaVuSans-32" x="95.410156"/>
      </g>
     </g>
    </g>
    <g id="ytick_4">
     <g id="line2d_10">
      <path d="M 47.6525 229.444927 
L 427.0925 229.444927 
" clip-path="url(#pb4a05c1543)" style="fill: none; stroke-dasharray: 2.96,1.28; stroke-dashoffset: 0; stroke: #b0b0b0; stroke-opacity: 0.3; stroke-width: 0.8"/>
     </g>
     <g id="line2d_11">
      <g>
       <use xlink:href="#m7f11c881e9" x="47.6525" y="229.444927" style="stroke: #000000; stroke-width: 0.8"/>
      </g>
     </g>
     <g id="text_8">
      <!-- 0.3 -->
      <g transform="translate(24.749375 233.244146) scale(0.1 -0.1)">
       <defs>
        <path id="DejaVuSans-33" d="M 2597 2516 
Q 3050 2419 3304 2112 
Q 3559 1806 3559 1356 
Q 3559 666 3084 287 
Q 2609 -91 1734 -91 
Q 1441 -91 1130 -33 
Q 819 25 488 141 
L 488 750 
Q 750 597 1062 519 
Q 1375 441 1716 441 
Q 2309 441 2620 675 
Q 2931 909 2931 1356 
Q 2931 1769 2642 2001 
Q 2353 2234 1838 2234 
L 1294 2234 
L 1294 2753 
L 1863 2753 
Q 2328 2753 2575 2939 
Q 2822 3125 2822 3475 
Q 2822 3834 2567 4026 
Q 2313 4219 1838 4219 
Q 1578 4219 1281 4162 
Q 984 4106 628 3988 
L 628 4550 
Q 988 4650 1302 4700 
Q 1616 4750 1894 4750 
Q 2613 4750 3031 4423 
Q 3450 4097 3450 3541 
Q 3450 3153 3228 2886 
Q 3006 2619 2597 2516 
z
" transform="scale(0.015625)"/>
       </defs>
       <use xlink:href="#DejaVuSans-30"/>
       <use xlink:href="#DejaVuSans-2e" x="63.623047"/>
       <use xlink:href="#DejaVuSans-33" x="95.410156"/>
      </g>
     </g>
    </g>
    <g id="ytick_5">
     <g id="line2d_12">
      <path d="M 47.6525 190.620945 
L 427.0925 190.620945 
" clip-path="url(#pb4a05c1543)" style="fill: none; stroke-dasharray: 2.96,1.28; stroke-dashoffset: 0; stroke: #b0b0b0; stroke-opacity: 0.3; stroke-width: 0.8"/>
     </g>
     <g id="line2d_13">
      <g>
       <use xlink:href="#m7f11c881e9" x="47.6525" y="190.620945" style="stroke: #000000; stroke-width: 0.8"/>
      </g>
     </g>
     <g id="text_9">
      <!-- 0.4 -->
      <g transform="translate(24.749375 194.420164) scale(0.1 -0.1)">
       <defs>
        <path id="DejaVuSans-34" d="M 2419 4116 
L 825 1625 
L 2419 1625 
L 2419 4116 
z
M 2253 4666 
L 3047 4666 
L 3047 1625 
L 3713 1625 
L 3713 1100 
L 3047 1100 
L 3047 0 
L 2419 0 
L 2419 1100 
L 313 1100 
L 313 1709 
L 2253 4666 
z
" transform="scale(0.015625)"/>
       </defs>
       <use xlink:href="#DejaVuSans-30"/>
       <use xlink:href="#DejaVuSans-2e" x="63.623047"/>
       <use xlink:href="#DejaVuSans-34" x="95.410156"/>
      </g>
     </g>
    </g>
    <g id="ytick_6">
     <g id="line2d_14">
      <path d="M 47.6525 151.796962 
L 427.0925 151.796962 
" clip-path="url(#pb4a05c1543)" style="fill: none; stroke-dasharray: 2.96,1.28; stroke-dashoffset: 0; stroke: #b0b0b0; stroke-opacity: 0.3; stroke-width: 0.8"/>
     </g>
     <g id="line2d_15">
      <g>
       <use xlink:href="#m7f11c881e9" x="47.6525" y="151.796962" style="stroke: #000000; stroke-width: 0.8"/>
      </g>
     </g>
     <g id="text_10">
      <!-- 0.5 -->
      <g transform="translate(24.749375 155.596181) scale(0.1 -0.1)">
       <defs>
        <path id="DejaVuSans-35" d="M 691 4666 
L 3169 4666 
L 3169 4134 
L 1269 4134 
L 1269 2991 
Q 1406 3038 1543 3061 
Q 1681 3084 1819 3084 
Q 2600 3084 3056 2656 
Q 3513 2228 3513 1497 
Q 3513 744 3044 326 
Q 2575 -91 1722 -91 
Q 1428 -91 1123 -41 
Q 819 9 494 109 
L 494 744 
Q 775 591 1075 516 
Q 1375 441 1709 441 
Q 2250 441 2565 725 
Q 2881 1009 2881 1497 
Q 2881 1984 2565 2268 
Q 2250 2553 1709 2553 
Q 1456 2553 1204 2497 
Q 953 2441 691 2322 
L 691 4666 
z
" transform="scale(0.015625)"/>
       </defs>
       <use xlink:href="#DejaVuSans-30"/>
       <use xlink:href="#DejaVuSans-2e" x="63.623047"/>
       <use xlink:href="#DejaVuSans-35" x="95.410156"/>
      </g>
     </g>
    </g>
    <g id="ytick_7">
     <g id="line2d_16">
      <path d="M 47.6525 112.97298 
L 427.0925 112.97298 
" clip-path="url(#pb4a05c1543)" style="fill: none; stroke-dasharray: 2.96,1.28; stroke-dashoffset: 0; stroke: #b0b0b0; stroke-opacity: 0.3; stroke-width: 0.8"/>
     </g>
     <g id="line2d_17">
      <g>
       <use xlink:href="#m7f11c881e9" x="47.6525" y="112.97298" style="stroke: #000000; stroke-width: 0.8"/>
      </g>
     </g>
     <g id="text_11">
      <!-- 0.6 -->
      <g transform="translate(24.749375 116.772199) scale(0.1 -0.1)">
       <defs>
        <path id="DejaVuSans-36" d="M 2113 2584 
Q 1688 2584 1439 2293 
Q 1191 2003 1191 1497 
Q 1191 994 1439 701 
Q 1688 409 2113 409 
Q 2538 409 2786 701 
Q 3034 994 3034 1497 
Q 3034 2003 2786 2293 
Q 2538 2584 2113 2584 
z
M 3366 4563 
L 3366 3988 
Q 3128 4100 2886 4159 
Q 2644 4219 2406 4219 
Q 1781 4219 1451 3797 
Q 1122 3375 1075 2522 
Q 1259 2794 1537 2939 
Q 1816 3084 2150 3084 
Q 2853 3084 3261 2657 
Q 3669 2231 3669 1497 
Q 3669 778 3244 343 
Q 2819 -91 2113 -91 
Q 1303 -91 875 529 
Q 447 1150 447 2328 
Q 447 3434 972 4092 
Q 1497 4750 2381 4750 
Q 2619 4750 2861 4703 
Q 3103 4656 3366 4563 
z
" transform="scale(0.015625)"/>
       </defs>
       <use xlink:href="#DejaVuSans-30"/>
       <use xlink:href="#DejaVuSans-2e" x="63.623047"/>
       <use xlink:href="#DejaVuSans-36" x="95.410156"/>
      </g>
     </g>
    </g>
    <g id="ytick_8">
     <g id="line2d_18">
      <path d="M 47.6525 74.148997 
L 427.0925 74.148997 
" clip-path="url(#pb4a05c1543)" style="fill: none; stroke-dasharray: 2.96,1.28; stroke-dashoffset: 0; stroke: #b0b0b0; stroke-opacity: 0.3; stroke-width: 0.8"/>
     </g>
     <g id="line2d_19">
      <g>
       <use xlink:href="#m7f11c881e9" x="47.6525" y="74.148997" style="stroke: #000000; stroke-width: 0.8"/>
      </g>
     </g>
     <g id="text_12">
      <!-- 0.7 -->
      <g transform="translate(24.749375 77.948216) scale(0.1 -0.1)">
       <defs>
        <path id="DejaVuSans-37" d="M 525 4666 
L 3525 4666 
L 3525 4397 
L 1831 0 
L 1172 0 
L 2766 4134 
L 525 4134 
L 525 4666 
z
" transform="scale(0.015625)"/>
       </defs>
       <use xlink:href="#DejaVuSans-30"/>
       <use xlink:href="#DejaVuSans-2e" x="63.623047"/>
       <use xlink:href="#DejaVuSans-37" x="95.410156"/>
      </g>
     </g>
    </g>
    <g id="ytick_9">
     <g id="line2d_20">
      <path d="M 47.6525 35.325015 
L 427.0925 35.325015 
" clip-path="url(#pb4a05c1543)" style="fill: none; stroke-dasharray: 2.96,1.28; stroke-dashoffset: 0; stroke: #b0b0b0; stroke-opacity: 0.3; stroke-width: 0.8"/>
     </g>
     <g id="line2d_21">
      <g>
       <use xlink:href="#m7f11c881e9" x="47.6525" y="35.325015" style="stroke: #000000; stroke-width: 0.8"/>
      </g>
     </g>
     <g id="text_13">
      <!-- 0.8 -->
      <g transform="translate(24.749375 39.124233) scale(0.1 -0.1)">
       <defs>
        <path id="DejaVuSans-38" d="M 2034 2216 
Q 1584 2216 1326 1975 
Q 1069 1734 1069 1313 
Q 1069 891 1326 650 
Q 1584 409 2034 409 
Q 2484 409 2743 651 
Q 3003 894 3003 1313 
Q 3003 1734 2745 1975 
Q 2488 2216 2034 2216 
z
M 1403 2484 
Q 997 2584 770 2862 
Q 544 3141 544 3541 
Q 544 4100 942 4425 
Q 1341 4750 2034 4750 
Q 2731 4750 3128 4425 
Q 3525 4100 3525 3541 
Q 3525 3141 3298 2862 
Q 3072 2584 2669 2484 
Q 3125 2378 3379 2068 
Q 3634 1759 3634 1313 
Q 3634 634 3220 271 
Q 2806 -91 2034 -91 
Q 1263 -91 848 271 
Q 434 634 434 1313 
Q 434 1759 690 2068 
Q 947 2378 1403 2484 
z
M 1172 3481 
Q 1172 3119 1398 2916 
Q 1625 2713 2034 2713 
Q 2441 2713 2670 2916 
Q 2900 3119 2900 3481 
Q 2900 3844 2670 4047 
Q 2441 4250 2034 4250 
Q 1625 4250 1398 4047 
Q 1172 3844 1172 3481 
z
" transform="scale(0.015625)"/>
       </defs>
       <use xlink:href="#DejaVuSans-30"/>
       <use xlink:href="#DejaVuSans-2e" x="63.623047"/>
       <use xlink:href="#DejaVuSans-38" x="95.410156"/>
      </g>
     </g>
    </g>
    <g id="text_14">
     <!-- Inactive Meal Fraction (ratio) -->
     <g transform="translate(17.837813 295.295937) rotate(-90) scale(0.14 -0.14)">
      <defs>
       <path id="DejaVuSans-49" d="M 628 4666 
L 1259 4666 
L 1259 0 
L 628 0 
L 628 4666 
z
" transform="scale(0.015625)"/>
       <path id="DejaVuSans-6e" d="M 3513 2113 
L 3513 0 
L 2938 0 
L 2938 2094 
Q 2938 2591 2744 2837 
Q 2550 3084 2163 3084 
Q 1697 3084 1428 2787 
Q 1159 2491 1159 1978 
L 1159 0 
L 581 0 
L 581 3500 
L 1159 3500 
L 1159 2956 
Q 1366 3272 1645 3428 
Q 1925 3584 2291 3584 
Q 2894 3584 3203 3211 
Q 3513 2838 3513 2113 
z
" transform="scale(0.015625)"/>
       <path id="DejaVuSans-69" d="M 603 3500 
L 1178 3500 
L 1178 0 
L 603 0 
L 603 3500 
z
M 603 4863 
L 1178 4863 
L 1178 4134 
L 603 4134 
L 603 4863 
z
" transform="scale(0.015625)"/>
       <path id="DejaVuSans-76" d="M 191 3500 
L 800 3500 
L 1894 563 
L 2988 3500 
L 3597 3500 
L 2284 0 
L 1503 0 
L 191 3500 
z
" transform="scale(0.015625)"/>
       <path id="DejaVuSans-20" transform="scale(0.015625)"/>
       <path id="DejaVuSans-4d" d="M 628 4666 
L 1569 4666 
L 2759 1491 
L 3956 4666 
L 4897 4666 
L 4897 0 
L 4281 0 
L 4281 4097 
L 3078 897 
L 2444 897 
L 1241 4097 
L 1241 0 
L 628 0 
L 628 4666 
z
" transform="scale(0.015625)"/>
       <path id="DejaVuSans-46" d="M 628 4666 
L 3309 4666 
L 3309 4134 
L 1259 4134 
L 1259 2759 
L 3109 2759 
L 3109 2228 
L 1259 2228 
L 1259 0 
L 628 0 
L 628 4666 
z
" transform="scale(0.015625)"/>
       <path id="DejaVuSans-28" d="M 1984 4856 
Q 1566 4138 1362 3434 
Q 1159 2731 1159 2009 
Q 1159 1288 1364 580 
Q 1569 -128 1984 -844 
L 1484 -844 
Q 1016 -109 783 600 
Q 550 1309 550 2009 
Q 550 2706 781 3412 
Q 1013 4119 1484 4856 
L 1984 4856 
z
" transform="scale(0.015625)"/>
       <path id="DejaVuSans-29" d="M 513 4856 
L 1013 4856 
Q 1481 4119 1714 3412 
Q 1947 2706 1947 2009 
Q 1947 1309 1714 600 
Q 1481 -109 1013 -844 
L 513 -844 
Q 928 -128 1133 580 
Q 1338 1288 1338 2009 
Q 1338 2731 1133 3434 
Q 928 4138 513 4856 
z
" transform="scale(0.015625)"/>
      </defs>
      <use xlink:href="#DejaVuSans-49"/>
      <use xlink:href="#DejaVuSans-6e" x="29.492188"/>
      <use xlink:href="#DejaVuSans-61" x="92.871094"/>
      <use xlink:href="#DejaVuSans-63" x="154.150391"/>
      <use xlink:href="#DejaVuSans-74" x="209.130859"/>
      <use xlink:href="#DejaVuSans-69" x="248.339844"/>
      <use xlink:href="#DejaVuSans-76" x="276.123047"/>
      <use xlink:href="#DejaVuSans-65" x="335.302734"/>
      <use xlink:href="#DejaVuSans-20" x="396.826172"/>
      <use xlink:href="#DejaVuSans-4d" x="428.613281"/>
      <use xlink:href="#DejaVuSans-65" x="514.892578"/>
      <use xlink:href="#DejaVuSans-61" x="576.416016"/>
      <use xlink:href="#DejaVuSans-6c" x="637.695312"/>
      <use xlink:href="#DejaVuSans-20" x="665.478516"/>
      <use xlink:href="#DejaVuSans-46" x="697.265625"/>
      <use xlink:href="#DejaVuSans-72" x="747.535156"/>
      <use xlink:href="#DejaVuSans-61" x="788.648438"/>
      <use xlink:href="#DejaVuSans-63" x="849.927734"/>
      <use xlink:href="#DejaVuSans-74" x="904.908203"/>
      <use xlink:href="#DejaVuSans-69" x="944.117188"/>
      <use xlink:href="#DejaVuSans-6f" x="971.900391"/>
      <use xlink:href="#DejaVuSans-6e" x="1033.082031"/>
      <use xlink:href="#DejaVuSans-20" x="1096.460938"/>
      <use xlink:href="#DejaVuSans-28" x="1128.248047"/>
      <use xlink:href="#DejaVuSans-72" x="1167.261719"/>
      <use xlink:href="#DejaVuSans-61" x="1208.375"/>
      <use xlink:href="#DejaVuSans-74" x="1269.654297"/>
      <use xlink:href="#DejaVuSans-69" x="1308.863281"/>
      <use xlink:href="#DejaVuSans-6f" x="1336.646484"/>
      <use xlink:href="#DejaVuSans-29" x="1397.828125"/>
     </g>
    </g>
   </g>
   <g id="patch_3">
    <path d="M 101.4065 245.634528 
L 120.3785 245.634528 
L 120.3785 219.923346 
L 101.4065 219.923346 
L 101.4065 245.634528 
z
" clip-path="url(#pb4a05c1543)" style="fill: #ffffff; stroke: #000000; stroke-linejoin: miter"/>
   </g>
   <g id="line2d_22">
    <path d="M 110.8925 245.634528 
L 110.8925 281.197296 
" clip-path="url(#pb4a05c1543)" style="fill: none; stroke: #000000; stroke-linecap: square"/>
   </g>
   <g id="line2d_23">
    <path d="M 110.8925 219.923346 
L 110.8925 192.368024 
" clip-path="url(#pb4a05c1543)" style="fill: none; stroke: #000000; stroke-linecap: square"/>
   </g>
   <g id="line2d_24">
    <path d="M 106.1495 281.197296 
L 115.6355 281.197296 
" clip-path="url(#pb4a05c1543)" style="fill: none; stroke: #000000; stroke-linecap: square"/>
   </g>
   <g id="line2d_25">
    <path d="M 106.1495 192.368024 
L 115.6355 192.368024 
" clip-path="url(#pb4a05c1543)" style="fill: none; stroke: #000000; stroke-linecap: square"/>
   </g>
   <g id="patch_4">
    <path d="M 227.8865 249.303394 
L 246.8585 249.303394 
L 246.8585 220.495999 
L 227.8865 220.495999 
L 227.8865 249.303394 
z
" clip-path="url(#pb4a05c1543)" style="fill: #ffffff; stroke: #000000; stroke-linejoin: miter"/>
   </g>
   <g id="line2d_26">
    <path d="M 237.3725 249.303394 
L 237.3725 265.124167 
" clip-path="url(#pb4a05c1543)" style="fill: none; stroke: #000000; stroke-linecap: square"/>
   </g>
   <g id="line2d_27">
    <path d="M 237.3725 220.495999 
L 237.3725 194.658639 
" clip-path="url(#pb4a05c1543)" style="fill: none; stroke: #000000; stroke-linecap: square"/>
   </g>
   <g id="line2d_28">
    <path d="M 232.6295 265.124167 
L 242.1155 265.124167 
" clip-path="url(#pb4a05c1543)" style="fill: none; stroke: #000000; stroke-linecap: square"/>
   </g>
   <g id="line2d_29">
    <path d="M 232.6295 194.658639 
L 242.1155 194.658639 
" clip-path="url(#pb4a05c1543)" style="fill: none; stroke: #000000; stroke-linecap: square"/>
   </g>
   <g id="patch_5">
    <path d="M 354.3665 244.013627 
L 373.3385 244.013627 
L 373.3385 203.413447 
L 354.3665 203.413447 
L 354.3665 244.013627 
z
" clip-path="url(#pb4a05c1543)" style="fill: #ffffff; stroke: #000000; stroke-linejoin: miter"/>
   </g>
   <g id="line2d_30">
    <path d="M 363.8525 244.013627 
L 363.8525 271.957188 
" clip-path="url(#pb4a05c1543)" style="fill: none; stroke: #000000; stroke-linecap: square"/>
   </g>
   <g id="line2d_31">
    <path d="M 363.8525 203.413447 
L 363.8525 146.012189 
" clip-path="url(#pb4a05c1543)" style="fill: none; stroke: #000000; stroke-linecap: square"/>
   </g>
   <g id="line2d_32">
    <path d="M 359.1095 271.957188 
L 368.5955 271.957188 
" clip-path="url(#pb4a05c1543)" style="fill: none; stroke: #000000; stroke-linecap: square"/>
   </g>
   <g id="line2d_33">
    <path d="M 359.1095 146.012189 
L 368.5955 146.012189 
" clip-path="url(#pb4a05c1543)" style="fill: none; stroke: #000000; stroke-linecap: square"/>
   </g>
   <g id="line2d_34">
    <path d="M 101.4065 234.103805 
L 120.3785 234.103805 
" clip-path="url(#pb4a05c1543)" style="fill: none; stroke: #000000"/>
   </g>
   <g id="line2d_35">
    <path d="M 227.8865 239.073275 
L 246.8585 239.073275 
" clip-path="url(#pb4a05c1543)" style="fill: none; stroke: #000000"/>
   </g>
   <g id="line2d_36">
    <path d="M 354.3665 230.454351 
L 373.3385 230.454351 
" clip-path="url(#pb4a05c1543)" style="fill: none; stroke: #000000"/>
   </g>
   <g id="patch_6">
    <path d="M 47.6525 361.036875 
L 47.6525 28.396875 
" style="fill: none; stroke: #000000; stroke-width: 0.8; stroke-linejoin: miter; stroke-linecap: square"/>
   </g>
   <g id="patch_7">
    <path d="M 427.0925 361.036875 
L 427.0925 28.396875 
" style="fill: none; stroke: #000000; stroke-width: 0.8; stroke-linejoin: miter; stroke-linecap: square"/>
   </g>
   <g id="patch_8">
    <path d="M 47.6525 361.036875 
L 427.0925 361.036875 
" style="fill: none; stroke: #000000; stroke-width: 0.8; stroke-linejoin: miter; stroke-linecap: square"/>
   </g>
   <g id="patch_9">
    <path d="M 47.6525 28.396875 
L 427.0925 28.396875 
" style="fill: none; stroke: #000000; stroke-width: 0.8; stroke-linejoin: miter; stroke-linecap: square"/>
   </g>
   <g id="PathCollection_1">
    <defs>
     <path id="m584a11328a" d="M 0 3 
C 0.795609 3 1.55874 2.683901 2.12132 2.12132 
C 2.683901 1.55874 3 0.795609 3 0 
C 3 -0.795609 2.683901 -1.55874 2.12132 -2.12132 
C 1.55874 -2.683901 0.795609 -3 0 -3 
C -0.795609 -3 -1.55874 -2.683901 -2.12132 -2.12132 
C -2.683901 -1.55874 -3 -0.795609 -3 0 
C -3 0.795609 -2.683901 1.55874 -2.12132 2.12132 
C -1.55874 2.683901 -0.795609 3 0 3 
z
" style="stroke: #000000; stroke-opacity: 0.85; stroke-width: 0.4"/>
    </defs>
    <g clip-path="url(#pb4a05c1543)">
     <use xlink:href="#m584a11328a" x="115.919667" y="242.101546" style="fill: #425df5; fill-opacity: 0.85; stroke: #000000; stroke-opacity: 0.85; stroke-width: 0.4"/>
     <use xlink:href="#m584a11328a" x="108.28692" y="265.240639" style="fill: #425df5; fill-opacity: 0.85; stroke: #000000; stroke-opacity: 0.85; stroke-width: 0.4"/>
     <use xlink:href="#m584a11328a" x="115.301677" y="234.996757" style="fill: #425df5; fill-opacity: 0.85; stroke: #000000; stroke-opacity: 0.85; stroke-width: 0.4"/>
     <use xlink:href="#m584a11328a" x="110.779067" y="216.516541" style="fill: #425df5; fill-opacity: 0.85; stroke: #000000; stroke-opacity: 0.85; stroke-width: 0.4"/>
     <use xlink:href="#m584a11328a" x="109.127926" y="254.214628" style="fill: #425df5; fill-opacity: 0.85; stroke: #000000; stroke-opacity: 0.85; stroke-width: 0.4"/>
     <use xlink:href="#m584a11328a" x="112.189267" y="220.321291" style="fill: #425df5; fill-opacity: 0.85; stroke: #000000; stroke-opacity: 0.85; stroke-width: 0.4"/>
     <use xlink:href="#m584a11328a" x="114.640378" y="227.542552" style="fill: #425df5; fill-opacity: 0.85; stroke: #000000; stroke-opacity: 0.85; stroke-width: 0.4"/>
     <use xlink:href="#m584a11328a" x="106.328992" y="207.587025" style="fill: #425df5; fill-opacity: 0.85; stroke: #000000; stroke-opacity: 0.85; stroke-width: 0.4"/>
     <use xlink:href="#m584a11328a" x="109.366535" y="247.265135" style="fill: #425df5; fill-opacity: 0.85; stroke: #000000; stroke-opacity: 0.85; stroke-width: 0.4"/>
     <use xlink:href="#m584a11328a" x="113.596958" y="281.197296" style="fill: #425df5; fill-opacity: 0.85; stroke: #000000; stroke-opacity: 0.85; stroke-width: 0.4"/>
     <use xlink:href="#m584a11328a" x="106.526088" y="245.090992" style="fill: #425df5; fill-opacity: 0.85; stroke: #000000; stroke-opacity: 0.85; stroke-width: 0.4"/>
     <use xlink:href="#m584a11328a" x="115.68044" y="238.296795" style="fill: #425df5; fill-opacity: 0.85; stroke: #000000; stroke-opacity: 0.85; stroke-width: 0.4"/>
     <use xlink:href="#m584a11328a" x="109.376947" y="249.74987" style="fill: #425df5; fill-opacity: 0.85; stroke: #000000; stroke-opacity: 0.85; stroke-width: 0.4"/>
     <use xlink:href="#m584a11328a" x="113.286448" y="253.476973" style="fill: #425df5; fill-opacity: 0.85; stroke: #000000; stroke-opacity: 0.85; stroke-width: 0.4"/>
     <use xlink:href="#m584a11328a" x="109.874388" y="231.347303" style="fill: #425df5; fill-opacity: 0.85; stroke: #000000; stroke-opacity: 0.85; stroke-width: 0.4"/>
     <use xlink:href="#m584a11328a" x="109.083931" y="234.453221" style="fill: #425df5; fill-opacity: 0.85; stroke: #000000; stroke-opacity: 0.85; stroke-width: 0.4"/>
     <use xlink:href="#m584a11328a" x="109.67834" y="231.42495" style="fill: #425df5; fill-opacity: 0.85; stroke: #000000; stroke-opacity: 0.85; stroke-width: 0.4"/>
     <use xlink:href="#m584a11328a" x="114.676389" y="233.210854" style="fill: #425df5; fill-opacity: 0.85; stroke: #000000; stroke-opacity: 0.85; stroke-width: 0.4"/>
     <use xlink:href="#m584a11328a" x="106.102399" y="218.729508" style="fill: #425df5; fill-opacity: 0.85; stroke: #000000; stroke-opacity: 0.85; stroke-width: 0.4"/>
     <use xlink:href="#m584a11328a" x="110.440901" y="212.207079" style="fill: #425df5; fill-opacity: 0.85; stroke: #000000; stroke-opacity: 0.85; stroke-width: 0.4"/>
     <use xlink:href="#m584a11328a" x="108.295442" y="243.149793" style="fill: #425df5; fill-opacity: 0.85; stroke: #000000; stroke-opacity: 0.85; stroke-width: 0.4"/>
     <use xlink:href="#m584a11328a" x="108.999715" y="233.754389" style="fill: #425df5; fill-opacity: 0.85; stroke: #000000; stroke-opacity: 0.85; stroke-width: 0.4"/>
     <use xlink:href="#m584a11328a" x="108.465332" y="192.368024" style="fill: #425df5; fill-opacity: 0.85; stroke: #000000; stroke-opacity: 0.85; stroke-width: 0.4"/>
     <use xlink:href="#m584a11328a" x="109.700866" y="218.380092" style="fill: #425df5; fill-opacity: 0.85; stroke: #000000; stroke-opacity: 0.85; stroke-width: 0.4"/>
    </g>
   </g>
   <g id="PathCollection_2">
    <defs>
     <path id="m162d451a2f" d="M 0 3 
C 0.795609 3 1.55874 2.683901 2.12132 2.12132 
C 2.683901 1.55874 3 0.795609 3 0 
C 3 -0.795609 2.683901 -1.55874 2.12132 -2.12132 
C 1.55874 -2.683901 0.795609 -3 0 -3 
C -0.795609 -3 -1.55874 -2.683901 -2.12132 -2.12132 
C -2.683901 -1.55874 -3 -0.795609 -3 0 
C -3 0.795609 -2.683901 1.55874 -2.12132 2.12132 
C -1.55874 2.683901 -0.795609 3 0 3 
z
" style="stroke: #000000; stroke-opacity: 0.85; stroke-width: 0.4"/>
    </defs>
    <g clip-path="url(#pb4a05c1543)">
     <use xlink:href="#m162d451a2f" x="240.706192" y="249.74987" style="fill: #f55442; fill-opacity: 0.85; stroke: #000000; stroke-opacity: 0.85; stroke-width: 0.4"/>
     <use xlink:href="#m162d451a2f" x="237.071649" y="245.983944" style="fill: #f55442; fill-opacity: 0.85; stroke: #000000; stroke-opacity: 0.85; stroke-width: 0.4"/>
     <use xlink:href="#m162d451a2f" x="237.188649" y="243.149793" style="fill: #f55442; fill-opacity: 0.85; stroke: #000000; stroke-opacity: 0.85; stroke-width: 0.4"/>
     <use xlink:href="#m162d451a2f" x="238.698192" y="239.073275" style="fill: #f55442; fill-opacity: 0.85; stroke: #000000; stroke-opacity: 0.85; stroke-width: 0.4"/>
     <use xlink:href="#m162d451a2f" x="236.234207" y="208.596449" style="fill: #f55442; fill-opacity: 0.85; stroke: #000000; stroke-opacity: 0.85; stroke-width: 0.4"/>
     <use xlink:href="#m162d451a2f" x="233.53822" y="194.658639" style="fill: #f55442; fill-opacity: 0.85; stroke: #000000; stroke-opacity: 0.85; stroke-width: 0.4"/>
     <use xlink:href="#m162d451a2f" x="236.081547" y="112.97298" style="fill: #f55442; fill-opacity: 0.85; stroke: #000000; stroke-opacity: 0.85; stroke-width: 0.4"/>
     <use xlink:href="#m162d451a2f" x="239.44909" y="248.196911" style="fill: #f55442; fill-opacity: 0.85; stroke: #000000; stroke-opacity: 0.85; stroke-width: 0.4"/>
     <use xlink:href="#m162d451a2f" x="238.81626" y="157.931152" style="fill: #f55442; fill-opacity: 0.85; stroke: #000000; stroke-opacity: 0.85; stroke-width: 0.4"/>
     <use xlink:href="#m162d451a2f" x="236.025464" y="228.280208" style="fill: #f55442; fill-opacity: 0.85; stroke: #000000; stroke-opacity: 0.85; stroke-width: 0.4"/>
     <use xlink:href="#m162d451a2f" x="239.463876" y="43.516875" style="fill: #f55442; fill-opacity: 0.85; stroke: #000000; stroke-opacity: 0.85; stroke-width: 0.4"/>
     <use xlink:href="#m162d451a2f" x="236.504918" y="255.068756" style="fill: #f55442; fill-opacity: 0.85; stroke: #000000; stroke-opacity: 0.85; stroke-width: 0.4"/>
     <use xlink:href="#m162d451a2f" x="233.544612" y="262.988848" style="fill: #f55442; fill-opacity: 0.85; stroke: #000000; stroke-opacity: 0.85; stroke-width: 0.4"/>
     <use xlink:href="#m162d451a2f" x="232.118605" y="226.455481" style="fill: #f55442; fill-opacity: 0.85; stroke: #000000; stroke-opacity: 0.85; stroke-width: 0.4"/>
     <use xlink:href="#m162d451a2f" x="240.316936" y="233.094382" style="fill: #f55442; fill-opacity: 0.85; stroke: #000000; stroke-opacity: 0.85; stroke-width: 0.4"/>
     <use xlink:href="#m162d451a2f" x="232.517976" y="254.369924" style="fill: #f55442; fill-opacity: 0.85; stroke: #000000; stroke-opacity: 0.85; stroke-width: 0.4"/>
     <use xlink:href="#m162d451a2f" x="235.531562" y="240.432114" style="fill: #f55442; fill-opacity: 0.85; stroke: #000000; stroke-opacity: 0.85; stroke-width: 0.4"/>
     <use xlink:href="#m162d451a2f" x="233.165241" y="226.222537" style="fill: #f55442; fill-opacity: 0.85; stroke: #000000; stroke-opacity: 0.85; stroke-width: 0.4"/>
     <use xlink:href="#m162d451a2f" x="233.041875" y="228.862568" style="fill: #f55442; fill-opacity: 0.85; stroke: #000000; stroke-opacity: 0.85; stroke-width: 0.4"/>
     <use xlink:href="#m162d451a2f" x="242.505205" y="253.282853" style="fill: #f55442; fill-opacity: 0.85; stroke: #000000; stroke-opacity: 0.85; stroke-width: 0.4"/>
     <use xlink:href="#m162d451a2f" x="241.897629" y="246.294536" style="fill: #f55442; fill-opacity: 0.85; stroke: #000000; stroke-opacity: 0.85; stroke-width: 0.4"/>
     <use xlink:href="#m162d451a2f" x="234.075648" y="214.769462" style="fill: #f55442; fill-opacity: 0.85; stroke: #000000; stroke-opacity: 0.85; stroke-width: 0.4"/>
     <use xlink:href="#m162d451a2f" x="237.946801" y="255.418172" style="fill: #f55442; fill-opacity: 0.85; stroke: #000000; stroke-opacity: 0.85; stroke-width: 0.4"/>
     <use xlink:href="#m162d451a2f" x="242.030633" y="227.270784" style="fill: #f55442; fill-opacity: 0.85; stroke: #000000; stroke-opacity: 0.85; stroke-width: 0.4"/>
     <use xlink:href="#m162d451a2f" x="240.753195" y="265.124167" style="fill: #f55442; fill-opacity: 0.85; stroke: #000000; stroke-opacity: 0.85; stroke-width: 0.4"/>
     <use xlink:href="#m162d451a2f" x="240.27825" y="248.856919" style="fill: #f55442; fill-opacity: 0.85; stroke: #000000; stroke-opacity: 0.85; stroke-width: 0.4"/>
     <use xlink:href="#m162d451a2f" x="233.257868" y="209.799992" style="fill: #f55442; fill-opacity: 0.85; stroke: #000000; stroke-opacity: 0.85; stroke-width: 0.4"/>
    </g>
   </g>
   <g id="PathCollection_3">
    <defs>
     <path id="m9231d05660" d="M 0 3 
C 0.795609 3 1.55874 2.683901 2.12132 2.12132 
C 2.683901 1.55874 3 0.795609 3 0 
C 3 -0.795609 2.683901 -1.55874 2.12132 -2.12132 
C 1.55874 -2.683901 0.795609 -3 0 -3 
C -0.795609 -3 -1.55874 -2.683901 -2.12132 -2.12132 
C -2.683901 -1.55874 -3 -0.795609 -3 0 
C -3 0.795609 -2.683901 1.55874 -2.12132 2.12132 
C -1.55874 2.683901 -0.795609 3 0 3 
z
" style="stroke: #000000; stroke-opacity: 0.85; stroke-width: 0.4"/>
    </defs>
    <g clip-path="url(#pb4a05c1543)">
     <use xlink:href="#m9231d05660" x="362.782265" y="193.649215" style="fill: #0ec72a; fill-opacity: 0.85; stroke: #000000; stroke-opacity: 0.85; stroke-width: 0.4"/>
     <use xlink:href="#m9231d05660" x="364.424995" y="234.996757" style="fill: #0ec72a; fill-opacity: 0.85; stroke: #000000; stroke-opacity: 0.85; stroke-width: 0.4"/>
     <use xlink:href="#m9231d05660" x="365.528572" y="345.916875" style="fill: #0ec72a; fill-opacity: 0.85; stroke: #000000; stroke-opacity: 0.85; stroke-width: 0.4"/>
     <use xlink:href="#m9231d05660" x="363.584169" y="197.337494" style="fill: #0ec72a; fill-opacity: 0.85; stroke: #000000; stroke-opacity: 0.85; stroke-width: 0.4"/>
     <use xlink:href="#m9231d05660" x="362.25062" y="227.154312" style="fill: #0ec72a; fill-opacity: 0.85; stroke: #000000; stroke-opacity: 0.85; stroke-width: 0.4"/>
     <use xlink:href="#m9231d05660" x="367.501049" y="229.017864" style="fill: #0ec72a; fill-opacity: 0.85; stroke: #000000; stroke-opacity: 0.85; stroke-width: 0.4"/>
     <use xlink:href="#m9231d05660" x="360.735739" y="156.300544" style="fill: #0ec72a; fill-opacity: 0.85; stroke: #000000; stroke-opacity: 0.85; stroke-width: 0.4"/>
     <use xlink:href="#m9231d05660" x="360.653588" y="255.340524" style="fill: #0ec72a; fill-opacity: 0.85; stroke: #000000; stroke-opacity: 0.85; stroke-width: 0.4"/>
     <use xlink:href="#m9231d05660" x="364.397009" y="211.935311" style="fill: #0ec72a; fill-opacity: 0.85; stroke: #000000; stroke-opacity: 0.85; stroke-width: 0.4"/>
     <use xlink:href="#m9231d05660" x="361.125509" y="224.00957" style="fill: #0ec72a; fill-opacity: 0.85; stroke: #000000; stroke-opacity: 0.85; stroke-width: 0.4"/>
     <use xlink:href="#m9231d05660" x="362.099727" y="235.850885" style="fill: #0ec72a; fill-opacity: 0.85; stroke: #000000; stroke-opacity: 0.85; stroke-width: 0.4"/>
     <use xlink:href="#m9231d05660" x="368.707659" y="242.722729" style="fill: #0ec72a; fill-opacity: 0.85; stroke: #000000; stroke-opacity: 0.85; stroke-width: 0.4"/>
     <use xlink:href="#m9231d05660" x="361.311307" y="262.484137" style="fill: #0ec72a; fill-opacity: 0.85; stroke: #000000; stroke-opacity: 0.85; stroke-width: 0.4"/>
     <use xlink:href="#m9231d05660" x="366.189413" y="231.890838" style="fill: #0ec72a; fill-opacity: 0.85; stroke: #000000; stroke-opacity: 0.85; stroke-width: 0.4"/>
     <use xlink:href="#m9231d05660" x="364.915637" y="271.957188" style="fill: #0ec72a; fill-opacity: 0.85; stroke: #000000; stroke-opacity: 0.85; stroke-width: 0.4"/>
     <use xlink:href="#m9231d05660" x="358.850074" y="146.012189" style="fill: #0ec72a; fill-opacity: 0.85; stroke: #000000; stroke-opacity: 0.85; stroke-width: 0.4"/>
     <use xlink:href="#m9231d05660" x="362.01525" y="247.886319" style="fill: #0ec72a; fill-opacity: 0.85; stroke: #000000; stroke-opacity: 0.85; stroke-width: 0.4"/>
     <use xlink:href="#m9231d05660" x="362.212107" y="199.395165" style="fill: #0ec72a; fill-opacity: 0.85; stroke: #000000; stroke-opacity: 0.85; stroke-width: 0.4"/>
     <use xlink:href="#m9231d05660" x="365.524815" y="204.752874" style="fill: #0ec72a; fill-opacity: 0.85; stroke: #000000; stroke-opacity: 0.85; stroke-width: 0.4"/>
     <use xlink:href="#m9231d05660" x="363.664857" y="236.860308" style="fill: #0ec72a; fill-opacity: 0.85; stroke: #000000; stroke-opacity: 0.85; stroke-width: 0.4"/>
    </g>
   </g>
   <g id="text_15">
    <!-- Inactive Meal Fraction Distribution -->
    <g transform="translate(66.21 22.396875) scale(0.2 -0.2)">
     <defs>
      <path id="DejaVuSans-44" d="M 1259 4147 
L 1259 519 
L 2022 519 
Q 2988 519 3436 956 
Q 3884 1394 3884 2338 
Q 3884 3275 3436 3711 
Q 2988 4147 2022 4147 
L 1259 4147 
z
M 628 4666 
L 1925 4666 
Q 3281 4666 3915 4102 
Q 4550 3538 4550 2338 
Q 4550 1131 3912 565 
Q 3275 0 1925 0 
L 628 0 
L 628 4666 
z
" transform="scale(0.015625)"/>
      <path id="DejaVuSans-62" d="M 3116 1747 
Q 3116 2381 2855 2742 
Q 2594 3103 2138 3103 
Q 1681 3103 1420 2742 
Q 1159 2381 1159 1747 
Q 1159 1113 1420 752 
Q 1681 391 2138 391 
Q 2594 391 2855 752 
Q 3116 1113 3116 1747 
z
M 1159 2969 
Q 1341 3281 1617 3432 
Q 1894 3584 2278 3584 
Q 2916 3584 3314 3078 
Q 3713 2572 3713 1747 
Q 3713 922 3314 415 
Q 2916 -91 2278 -91 
Q 1894 -91 1617 61 
Q 1341 213 1159 525 
L 1159 0 
L 581 0 
L 581 4863 
L 1159 4863 
L 1159 2969 
z
" transform="scale(0.015625)"/>
     </defs>
     <use xlink:href="#DejaVuSans-49"/>
     <use xlink:href="#DejaVuSans-6e" x="29.492188"/>
     <use xlink:href="#DejaVuSans-61" x="92.871094"/>
     <use xlink:href="#DejaVuSans-63" x="154.150391"/>
     <use xlink:href="#DejaVuSans-74" x="209.130859"/>
     <use xlink:href="#DejaVuSans-69" x="248.339844"/>
     <use xlink:href="#DejaVuSans-76" x="276.123047"/>
     <use xlink:href="#DejaVuSans-65" x="335.302734"/>
     <use xlink:href="#DejaVuSans-20" x="396.826172"/>
     <use xlink:href="#DejaVuSans-4d" x="428.613281"/>
     <use xlink:href="#DejaVuSans-65" x="514.892578"/>
     <use xlink:href="#DejaVuSans-61" x="576.416016"/>
     <use xlink:href="#DejaVuSans-6c" x="637.695312"/>
     <use xlink:href="#DejaVuSans-20" x="665.478516"/>
     <use xlink:href="#DejaVuSans-46" x="697.265625"/>
     <use xlink:href="#DejaVuSans-72" x="747.535156"/>
     <use xlink:href="#DejaVuSans-61" x="788.648438"/>
     <use xlink:href="#DejaVuSans-63" x="849.927734"/>
     <use xlink:href="#DejaVuSans-74" x="904.908203"/>
     <use xlink:href="#DejaVuSans-69" x="944.117188"/>
     <use xlink:href="#DejaVuSans-6f" x="971.900391"/>
     <use xlink:href="#DejaVuSans-6e" x="1033.082031"/>
     <use xlink:href="#DejaVuSans-20" x="1096.460938"/>
     <use xlink:href="#DejaVuSans-44" x="1128.248047"/>
     <use xlink:href="#DejaVuSans-69" x="1205.25"/>
     <use xlink:href="#DejaVuSans-73" x="1233.033203"/>
     <use xlink:href="#DejaVuSans-74" x="1285.132812"/>
     <use xlink:href="#DejaVuSans-72" x="1324.341797"/>
     <use xlink:href="#DejaVuSans-69" x="1365.455078"/>
     <use xlink:href="#DejaVuSans-62" x="1393.238281"/>
     <use xlink:href="#DejaVuSans-75" x="1456.714844"/>
     <use xlink:href="#DejaVuSans-74" x="1520.09375"/>
     <use xlink:href="#DejaVuSans-69" x="1559.302734"/>
     <use xlink:href="#DejaVuSans-6f" x="1587.085938"/>
     <use xlink:href="#DejaVuSans-6e" x="1648.267578"/>
    </g>
   </g>
   <g id="legend_1">
    <g id="patch_10">
     <path d="M 292.81625 90.838125 
L 418.6925 90.838125 
Q 421.0925 90.838125 421.0925 88.438125 
L 421.0925 36.796875 
Q 421.0925 34.396875 418.6925 34.396875 
L 292.81625 34.396875 
Q 290.41625 34.396875 290.41625 36.796875 
L 290.41625 88.438125 
Q 290.41625 90.838125 292.81625 90.838125 
z
" style="fill: #ffffff; opacity: 0.8; stroke: #cccccc; stroke-linejoin: miter"/>
    </g>
    <g id="patch_11">
     <path d="M 295.21625 48.315 
L 319.21625 48.315 
L 319.21625 39.915 
L 295.21625 39.915 
z
" style="fill: #425df5; opacity: 0.65; stroke: #425df5; stroke-linejoin: miter"/>
    </g>
    <g id="text_16">
     <!-- cask (n=24) -->
     <g transform="translate(328.81625 48.315) scale(0.12 -0.12)">
      <defs>
       <path id="DejaVuSans-3d" d="M 678 2906 
L 4684 2906 
L 4684 2381 
L 678 2381 
L 678 2906 
z
M 678 1631 
L 4684 1631 
L 4684 1100 
L 678 1100 
L 678 1631 
z
" transform="scale(0.015625)"/>
      </defs>
      <use xlink:href="#DejaVuSans-63"/>
      <use xlink:href="#DejaVuSans-61" x="54.980469"/>
      <use xlink:href="#DejaVuSans-73" x="116.259766"/>
      <use xlink:href="#DejaVuSans-6b" x="168.359375"/>
      <use xlink:href="#DejaVuSans-20" x="226.269531"/>
      <use xlink:href="#DejaVuSans-28" x="258.056641"/>
      <use xlink:href="#DejaVuSans-6e" x="297.070312"/>
      <use xlink:href="#DejaVuSans-3d" x="360.449219"/>
      <use xlink:href="#DejaVuSans-32" x="444.238281"/>
      <use xlink:href="#DejaVuSans-34" x="507.861328"/>
      <use xlink:href="#DejaVuSans-29" x="571.484375"/>
     </g>
    </g>
    <g id="patch_12">
     <path d="M 295.21625 65.92875 
L 319.21625 65.92875 
L 319.21625 57.52875 
L 295.21625 57.52875 
z
" style="fill: #f55442; opacity: 0.65; stroke: #f55442; stroke-linejoin: miter"/>
    </g>
    <g id="text_17">
     <!-- ctrl (n=27) -->
     <g transform="translate(328.81625 65.92875) scale(0.12 -0.12)">
      <use xlink:href="#DejaVuSans-63"/>
      <use xlink:href="#DejaVuSans-74" x="54.980469"/>
      <use xlink:href="#DejaVuSans-72" x="94.189453"/>
      <use xlink:href="#DejaVuSans-6c" x="135.302734"/>
      <use xlink:href="#DejaVuSans-20" x="163.085938"/>
      <use xlink:href="#DejaVuSans-28" x="194.873047"/>
      <use xlink:href="#DejaVuSans-6e" x="233.886719"/>
      <use xlink:href="#DejaVuSans-3d" x="297.265625"/>
      <use xlink:href="#DejaVuSans-32" x="381.054688"/>
      <use xlink:href="#DejaVuSans-37" x="444.677734"/>
      <use xlink:href="#DejaVuSans-29" x="508.300781"/>
     </g>
    </g>
    <g id="patch_13">
     <path d="M 295.21625 83.5425 
L 319.21625 83.5425 
L 319.21625 75.1425 
L 295.21625 75.1425 
z
" style="fill: #0ec72a; opacity: 0.65; stroke: #0ec72a; stroke-linejoin: miter"/>
    </g>
    <g id="text_18">
     <!-- female (n=20) -->
     <g transform="translate(328.81625 83.5425) scale(0.12 -0.12)">
      <use xlink:href="#DejaVuSans-66"/>
      <use xlink:href="#DejaVuSans-65" x="35.205078"/>
      <use xlink:href="#DejaVuSans-6d" x="96.728516"/>
      <use xlink:href="#DejaVuSans-61" x="194.140625"/>
      <use xlink:href="#DejaVuSans-6c" x="255.419922"/>
      <use xlink:href="#DejaVuSans-65" x="283.203125"/>
      <use xlink:href="#DejaVuSans-20" x="344.726562"/>
      <use xlink:href="#DejaVuSans-28" x="376.513672"/>
      <use xlink:href="#DejaVuSans-6e" x="415.527344"/>
      <use xlink:href="#DejaVuSans-3d" x="478.90625"/>
      <use xlink:href="#DejaVuSans-32" x="562.695312"/>
      <use xlink:href="#DejaVuSans-30" x="626.318359"/>
      <use xlink:href="#DejaVuSans-29" x="689.941406"/>
     </g>
    </g>
   </g>
  </g>
 </g>
 <defs>
  <clipPath id="pb4a05c1543">
   <rect x="47.6525" y="28.396875" width="379.44" height="332.64"/>
  </clipPath>
 </defs>
</svg>
