<?xml version="1.0" encoding="utf-8" standalone="no"?>
<!DOCTYPE svg PUBLIC "-//W3C//DTD SVG 1.1//EN"
  "http://www.w3.org/Graphics/SVG/1.1/DTD/svg11.dtd">
<svg xmlns:xlink="http://www.w3.org/1999/xlink" width="440.655pt" height="402.464375pt" viewBox="0 0 440.655 402.464375" xmlns="http://www.w3.org/2000/svg" version="1.1">
 <metadata>
  <rdf:RDF xmlns:dc="http://purl.org/dc/elements/1.1/" xmlns:cc="http://creativecommons.org/ns#" xmlns:rdf="http://www.w3.org/1999/02/22-rdf-syntax-ns#">
   <cc:Work>
    <dc:type rdf:resource="http://purl.org/dc/dcmitype/StillImage"/>
    <dc:date>2025-10-02T16:56:32.024284</dc:date>
    <dc:format>image/svg+xml</dc:format>
    <dc:creator>
     <cc:Agent>
      <dc:title>Matplotlib v3.8.4, https://matplotlib.org/</dc:title>
     </cc:Agent>
    </dc:creator>
   </cc:Work>
  </rdf:RDF>
 </metadata>
 <defs>
  <style type="text/css">*{stroke-linejoin: round; stroke-linecap: butt}</style>
 </defs>
 <g id="figure_1">
  <g id="patch_1">
   <path d="M 0 402.464375 
L 440.655 402.464375 
L 440.655 0 
L 0 0 
z
" style="fill: #ffffff"/>
  </g>
  <g id="axes_1">
   <g id="patch_2">
    <path d="M 54.015 361.036875 
L 433.455 361.036875 
L 433.455 28.396875 
L 54.015 28.396875 
z
" style="fill: #ffffff"/>
   </g>
   <g id="PolyCollection_1">
    <defs>
     <path id="mf098066fec" d="M 118.835783 -56.5475 
L 115.674217 -56.5475 
L 115.630102 -59.602045 
L 115.586432 -62.656591 
L 115.540943 -65.711136 
L 115.490946 -68.765682 
L 115.433376 -71.820227 
L 115.364858 -74.874773 
L 115.281789 -77.929318 
L 115.180438 -80.983864 
L 115.057047 -84.038409 
L 114.907952 -87.092955 
L 114.729698 -90.1475 
L 114.519156 -93.202045 
L 114.273644 -96.256591 
L 113.991024 -99.311136 
L 113.6698 -102.365682 
L 113.309196 -105.420227 
L 112.909214 -108.474773 
L 112.470674 -111.529318 
L 111.995232 -114.583864 
L 111.485369 -117.638409 
L 110.944366 -120.692955 
L 110.376248 -123.7475 
L 109.78571 -126.802045 
L 109.178024 -129.856591 
L 108.558928 -132.911136 
L 107.934504 -135.965682 
L 107.311045 -139.020227 
L 106.694914 -142.074773 
L 106.092407 -145.129318 
L 105.509613 -148.183864 
L 104.952281 -151.238409 
L 104.425699 -154.292955 
L 103.934581 -157.3475 
L 103.482968 -160.402045 
L 103.074152 -163.456591 
L 102.71061 -166.511136 
L 102.39396 -169.565682 
L 102.124941 -172.620227 
L 101.903405 -175.674773 
L 101.728338 -178.729318 
L 101.597901 -181.783864 
L 101.509488 -184.838409 
L 101.45981 -187.892955 
L 101.445 -190.9475 
L 101.460733 -194.002045 
L 101.502367 -197.056591 
L 101.5651 -200.111136 
L 101.644139 -203.165682 
L 101.734868 -206.220227 
L 101.833025 -209.274773 
L 101.934875 -212.329318 
L 102.037358 -215.383864 
L 102.138229 -218.438409 
L 102.236164 -221.492955 
L 102.330831 -224.5475 
L 102.422919 -227.602045 
L 102.514128 -230.656591 
L 102.607104 -233.711136 
L 102.705332 -236.765682 
L 102.812982 -239.820227 
L 102.934721 -242.874773 
L 103.075487 -245.929318 
L 103.240248 -248.983864 
L 103.433748 -252.038409 
L 103.660261 -255.092955 
L 103.923352 -258.1475 
L 104.225677 -261.202045 
L 104.568809 -264.256591 
L 104.953125 -267.311136 
L 105.377734 -270.365682 
L 105.84047 -273.420227 
L 106.337937 -276.474773 
L 106.865615 -279.529318 
L 107.418006 -282.583864 
L 107.988829 -285.638409 
L 108.571237 -288.692955 
L 109.158062 -291.7475 
L 109.742063 -294.802045 
L 110.316171 -297.856591 
L 110.873717 -300.911136 
L 111.40864 -303.965682 
L 111.915664 -307.020227 
L 112.390427 -310.074773 
L 112.829578 -313.129318 
L 113.23083 -316.183864 
L 113.592966 -319.238409 
L 113.915806 -322.292955 
L 114.20014 -325.3475 
L 114.447629 -328.402045 
L 114.660681 -331.456591 
L 114.842309 -334.511136 
L 114.995979 -337.565682 
L 115.125451 -340.620227 
L 115.234628 -343.674773 
L 115.32741 -346.729318 
L 115.407558 -349.783864 
L 115.478584 -352.838409 
L 115.543654 -355.892955 
L 115.605517 -358.9475 
L 118.904483 -358.9475 
L 118.904483 -358.9475 
L 118.966346 -355.892955 
L 119.031416 -352.838409 
L 119.102442 -349.783864 
L 119.18259 -346.729318 
L 119.275372 -343.674773 
L 119.384549 -340.620227 
L 119.514021 -337.565682 
L 119.667691 -334.511136 
L 119.849319 -331.456591 
L 120.062371 -328.402045 
L 120.30986 -325.3475 
L 120.594194 -322.292955 
L 120.917034 -319.238409 
L 121.27917 -316.183864 
L 121.680422 -313.129318 
L 122.119573 -310.074773 
L 122.594336 -307.020227 
L 123.10136 -303.965682 
L 123.636283 -300.911136 
L 124.193829 -297.856591 
L 124.767937 -294.802045 
L 125.351938 -291.7475 
L 125.938763 -288.692955 
L 126.521171 -285.638409 
L 127.091994 -282.583864 
L 127.644385 -279.529318 
L 128.172063 -276.474773 
L 128.66953 -273.420227 
L 129.132266 -270.365682 
L 129.556875 -267.311136 
L 129.941191 -264.256591 
L 130.284323 -261.202045 
L 130.586648 -258.1475 
L 130.849739 -255.092955 
L 131.076252 -252.038409 
L 131.269752 -248.983864 
L 131.434513 -245.929318 
L 131.575279 -242.874773 
L 131.697018 -239.820227 
L 131.804668 -236.765682 
L 131.902896 -233.711136 
L 131.995872 -230.656591 
L 132.087081 -227.602045 
L 132.179169 -224.5475 
L 132.273836 -221.492955 
L 132.371771 -218.438409 
L 132.472642 -215.383864 
L 132.575125 -212.329318 
L 132.676975 -209.274773 
L 132.775132 -206.220227 
L 132.865861 -203.165682 
L 132.9449 -200.111136 
L 133.007633 -197.056591 
L 133.049267 -194.002045 
L 133.065 -190.9475 
L 133.05019 -187.892955 
L 133.000512 -184.838409 
L 132.912099 -181.783864 
L 132.781662 -178.729318 
L 132.606595 -175.674773 
L 132.385059 -172.620227 
L 132.11604 -169.565682 
L 131.79939 -166.511136 
L 131.435848 -163.456591 
L 131.027032 -160.402045 
L 130.575419 -157.3475 
L 130.084301 -154.292955 
L 129.557719 -151.238409 
L 129.000387 -148.183864 
L 128.417593 -145.129318 
L 127.815086 -142.074773 
L 127.198955 -139.020227 
L 126.575496 -135.965682 
L 125.951072 -132.911136 
L 125.331976 -129.856591 
L 124.72429 -126.802045 
L 124.133752 -123.7475 
L 123.565634 -120.692955 
L 123.024631 -117.638409 
L 122.514768 -114.583864 
L 122.039326 -111.529318 
L 121.600786 -108.474773 
L 121.200804 -105.420227 
L 120.8402 -102.365682 
L 120.518976 -99.311136 
L 120.236356 -96.256591 
L 119.990844 -93.202045 
L 119.780302 -90.1475 
L 119.602048 -87.092955 
L 119.452953 -84.038409 
L 119.329562 -80.983864 
L 119.228211 -77.929318 
L 119.145142 -74.874773 
L 119.076624 -71.820227 
L 119.019054 -68.765682 
L 118.969057 -65.711136 
L 118.923568 -62.656591 
L 118.879898 -59.602045 
L 118.835783 -56.5475 
z
" style="stroke: #000000; stroke-opacity: 0.65"/>
    </defs>
    <g clip-path="url(#p58ad391d7e)">
     <use xlink:href="#mf098066fec" x="0" y="402.464375" style="fill: #425df5; fill-opacity: 0.65; stroke: #000000; stroke-opacity: 0.65"/>
    </g>
   </g>
   <g id="PolyCollection_2">
    <defs>
     <path id="m4ec42014bc" d="M 248.438297 -163.48541 
L 239.031703 -163.48541 
L 238.74832 -165.048714 
L 238.46176 -166.612018 
L 238.17256 -168.175322 
L 237.881154 -169.738626 
L 237.587862 -171.30193 
L 237.292891 -172.865234 
L 236.996338 -174.428539 
L 236.698194 -175.991843 
L 236.398364 -177.555147 
L 236.096685 -179.118451 
L 235.79295 -180.681755 
L 235.486935 -182.245059 
L 235.178433 -183.808363 
L 234.86728 -185.371667 
L 234.553393 -186.934971 
L 234.236793 -188.498275 
L 233.917635 -190.061579 
L 233.596224 -191.624883 
L 233.273036 -193.188188 
L 232.948719 -194.751492 
L 232.624099 -196.314796 
L 232.300172 -197.8781 
L 231.978089 -199.441404 
L 231.659134 -201.004708 
L 231.344702 -202.568012 
L 231.036266 -204.131316 
L 230.735342 -205.69462 
L 230.443459 -207.257924 
L 230.162122 -208.821228 
L 229.892782 -210.384532 
L 229.636808 -211.947836 
L 229.395461 -213.511141 
L 229.169881 -215.074445 
L 228.961073 -216.637749 
L 228.769902 -218.201053 
L 228.597095 -219.764357 
L 228.443246 -221.327661 
L 228.308825 -222.890965 
L 228.194197 -224.454269 
L 228.099631 -226.017573 
L 228.025321 -227.580877 
L 227.971397 -229.144181 
L 227.937943 -230.707485 
L 227.925 -232.27079 
L 227.932578 -233.834094 
L 227.960656 -235.397398 
L 228.009177 -236.960702 
L 228.078044 -238.524006 
L 228.167111 -240.08731 
L 228.276165 -241.650614 
L 228.404921 -243.213918 
L 228.552997 -244.777222 
L 228.719906 -246.340526 
L 228.905045 -247.90383 
L 229.10768 -249.467134 
L 229.326944 -251.030438 
L 229.561832 -252.593743 
L 229.811207 -254.157047 
L 230.073803 -255.720351 
L 230.34824 -257.283655 
L 230.633037 -258.846959 
L 230.92663 -260.410263 
L 231.227395 -261.973567 
L 231.53367 -263.536871 
L 231.84378 -265.100175 
L 232.156064 -266.663479 
L 232.468895 -268.226783 
L 232.780706 -269.790087 
L 233.090013 -271.353392 
L 233.395434 -272.916696 
L 233.695706 -274.48 
L 233.989703 -276.043304 
L 234.276446 -277.606608 
L 234.555119 -279.169912 
L 234.825068 -280.733216 
L 235.085817 -282.29652 
L 235.337062 -283.859824 
L 235.578677 -285.423128 
L 235.810707 -286.986432 
L 236.033369 -288.549736 
L 236.247037 -290.11304 
L 236.452238 -291.676345 
L 236.649632 -293.239649 
L 236.840001 -294.802953 
L 237.024227 -296.366257 
L 237.203274 -297.929561 
L 237.378157 -299.492865 
L 237.549924 -301.056169 
L 237.719629 -302.619473 
L 237.888298 -304.182777 
L 238.05691 -305.746081 
L 238.226366 -307.309385 
L 238.397466 -308.872689 
L 238.570888 -310.435994 
L 238.74717 -311.999298 
L 238.92669 -313.562602 
L 239.109665 -315.125906 
L 239.296137 -316.68921 
L 239.485979 -318.252514 
L 247.984021 -318.252514 
L 247.984021 -318.252514 
L 248.173863 -316.68921 
L 248.360335 -315.125906 
L 248.54331 -313.562602 
L 248.72283 -311.999298 
L 248.899112 -310.435994 
L 249.072534 -308.872689 
L 249.243634 -307.309385 
L 249.41309 -305.746081 
L 249.581702 -304.182777 
L 249.750371 -302.619473 
L 249.920076 -301.056169 
L 250.091843 -299.492865 
L 250.266726 -297.929561 
L 250.445773 -296.366257 
L 250.629999 -294.802953 
L 250.820368 -293.239649 
L 251.017762 -291.676345 
L 251.222963 -290.11304 
L 251.436631 -288.549736 
L 251.659293 -286.986432 
L 251.891323 -285.423128 
L 252.132938 -283.859824 
L 252.384183 -282.29652 
L 252.644932 -280.733216 
L 252.914881 -279.169912 
L 253.193554 -277.606608 
L 253.480297 -276.043304 
L 253.774294 -274.48 
L 254.074566 -272.916696 
L 254.379987 -271.353392 
L 254.689294 -269.790087 
L 255.001105 -268.226783 
L 255.313936 -266.663479 
L 255.62622 -265.100175 
L 255.93633 -263.536871 
L 256.242605 -261.973567 
L 256.54337 -260.410263 
L 256.836963 -258.846959 
L 257.12176 -257.283655 
L 257.396197 -255.720351 
L 257.658793 -254.157047 
L 257.908168 -252.593743 
L 258.143056 -251.030438 
L 258.36232 -249.467134 
L 258.564955 -247.90383 
L 258.750094 -246.340526 
L 258.917003 -244.777222 
L 259.065079 -243.213918 
L 259.193835 -241.650614 
L 259.302889 -240.08731 
L 259.391956 -238.524006 
L 259.460823 -236.960702 
L 259.509344 -235.397398 
L 259.537422 -233.834094 
L 259.545 -232.27079 
L 259.532057 -230.707485 
L 259.498603 -229.144181 
L 259.444679 -227.580877 
L 259.370369 -226.017573 
L 259.275803 -224.454269 
L 259.161175 -222.890965 
L 259.026754 -221.327661 
L 258.872905 -219.764357 
L 258.700098 -218.201053 
L 258.508927 -216.637749 
L 258.300119 -215.074445 
L 258.074539 -213.511141 
L 257.833192 -211.947836 
L 257.577218 -210.384532 
L 257.307878 -208.821228 
L 257.026541 -207.257924 
L 256.734658 -205.69462 
L 256.433734 -204.131316 
L 256.125298 -202.568012 
L 255.810866 -201.004708 
L 255.491911 -199.441404 
L 255.169828 -197.8781 
L 254.845901 -196.314796 
L 254.521281 -194.751492 
L 254.196964 -193.188188 
L 253.873776 -191.624883 
L 253.552365 -190.061579 
L 253.233207 -188.498275 
L 252.916607 -186.934971 
L 252.60272 -185.371667 
L 252.291567 -183.808363 
L 251.983065 -182.245059 
L 251.67705 -180.681755 
L 251.373315 -179.118451 
L 251.071636 -177.555147 
L 250.771806 -175.991843 
L 250.473662 -174.428539 
L 250.177109 -172.865234 
L 249.882138 -171.30193 
L 249.588846 -169.738626 
L 249.29744 -168.175322 
L 249.00824 -166.612018 
L 248.72168 -165.048714 
L 248.438297 -163.48541 
z
" style="stroke: #000000; stroke-opacity: 0.65"/>
    </defs>
    <g clip-path="url(#p58ad391d7e)">
     <use xlink:href="#m4ec42014bc" x="0" y="402.464375" style="fill: #f55442; fill-opacity: 0.65; stroke: #000000; stroke-opacity: 0.65"/>
    </g>
   </g>
   <g id="PolyCollection_3">
    <defs>
     <path id="m10fcbf8580" d="M 375.688609 -145.550879 
L 364.741391 -145.550879 
L 364.421718 -147.078399 
L 364.094237 -148.605919 
L 363.759395 -150.133439 
L 363.417663 -151.660959 
L 363.069549 -153.188479 
L 362.715592 -154.715999 
L 362.356369 -156.243519 
L 361.992502 -157.771039 
L 361.624657 -159.298559 
L 361.253557 -160.826079 
L 360.879981 -162.353598 
L 360.504776 -163.881118 
L 360.128858 -165.408638 
L 359.753223 -166.936158 
L 359.378946 -168.463678 
L 359.00719 -169.991198 
L 358.639203 -171.518718 
L 358.27632 -173.046238 
L 357.919962 -174.573758 
L 357.57163 -176.101278 
L 357.232898 -177.628798 
L 356.9054 -179.156318 
L 356.590821 -180.683838 
L 356.290878 -182.211357 
L 356.007301 -183.738877 
L 355.741813 -185.266397 
L 355.496105 -186.793917 
L 355.271812 -188.321437 
L 355.070486 -189.848957 
L 354.893568 -191.376477 
L 354.742363 -192.903997 
L 354.618013 -194.431517 
L 354.521473 -195.959037 
L 354.453488 -197.486557 
L 354.414573 -199.014077 
L 354.405 -200.541597 
L 354.424781 -202.069116 
L 354.473663 -203.596636 
L 354.551126 -205.124156 
L 354.656382 -206.651676 
L 354.788382 -208.179196 
L 354.945828 -209.706716 
L 355.127188 -211.234236 
L 355.330717 -212.761756 
L 355.554478 -214.289276 
L 355.796371 -215.816796 
L 356.054163 -217.344316 
L 356.325517 -218.871836 
L 356.608025 -220.399356 
L 356.899244 -221.926875 
L 357.196725 -223.454395 
L 357.498049 -224.981915 
L 357.800853 -226.509435 
L 358.102865 -228.036955 
L 358.401926 -229.564475 
L 358.696014 -231.091995 
L 358.983268 -232.619515 
L 359.262001 -234.147035 
L 359.530716 -235.674555 
L 359.788119 -237.202075 
L 360.03312 -238.729595 
L 360.264843 -240.257115 
L 360.482625 -241.784634 
L 360.68601 -243.312154 
L 360.874752 -244.839674 
L 361.0488 -246.367194 
L 361.208297 -247.894714 
L 361.353564 -249.422234 
L 361.485088 -250.949754 
L 361.603515 -252.477274 
L 361.709628 -254.004794 
L 361.804339 -255.532314 
L 361.888672 -257.059834 
L 361.963745 -258.587354 
L 362.030761 -260.114874 
L 362.090986 -261.642394 
L 362.145737 -263.169913 
L 362.196367 -264.697433 
L 362.244249 -266.224953 
L 362.29076 -267.752473 
L 362.337269 -269.279993 
L 362.385116 -270.807513 
L 362.435608 -272.335033 
L 362.489993 -273.862553 
L 362.549455 -275.390073 
L 362.615097 -276.917593 
L 362.68793 -278.445113 
L 362.768859 -279.972633 
L 362.858674 -281.500153 
L 362.95804 -283.027672 
L 363.067488 -284.555192 
L 363.187411 -286.082712 
L 363.318053 -287.610232 
L 363.459513 -289.137752 
L 363.611739 -290.665272 
L 363.77453 -292.192792 
L 363.947541 -293.720312 
L 364.130287 -295.247832 
L 364.32215 -296.775352 
L 376.10785 -296.775352 
L 376.10785 -296.775352 
L 376.299713 -295.247832 
L 376.482459 -293.720312 
L 376.65547 -292.192792 
L 376.818261 -290.665272 
L 376.970487 -289.137752 
L 377.111947 -287.610232 
L 377.242589 -286.082712 
L 377.362512 -284.555192 
L 377.47196 -283.027672 
L 377.571326 -281.500153 
L 377.661141 -279.972633 
L 377.74207 -278.445113 
L 377.814903 -276.917593 
L 377.880545 -275.390073 
L 377.940007 -273.862553 
L 377.994392 -272.335033 
L 378.044884 -270.807513 
L 378.092731 -269.279993 
L 378.13924 -267.752473 
L 378.185751 -266.224953 
L 378.233633 -264.697433 
L 378.284263 -263.169913 
L 378.339014 -261.642394 
L 378.399239 -260.114874 
L 378.466255 -258.587354 
L 378.541328 -257.059834 
L 378.625661 -255.532314 
L 378.720372 -254.004794 
L 378.826485 -252.477274 
L 378.944912 -250.949754 
L 379.076436 -249.422234 
L 379.221703 -247.894714 
L 379.3812 -246.367194 
L 379.555248 -244.839674 
L 379.74399 -243.312154 
L 379.947375 -241.784634 
L 380.165157 -240.257115 
L 380.39688 -238.729595 
L 380.641881 -237.202075 
L 380.899284 -235.674555 
L 381.167999 -234.147035 
L 381.446732 -232.619515 
L 381.733986 -231.091995 
L 382.028074 -229.564475 
L 382.327135 -228.036955 
L 382.629147 -226.509435 
L 382.931951 -224.981915 
L 383.233275 -223.454395 
L 383.530756 -221.926875 
L 383.821975 -220.399356 
L 384.104483 -218.871836 
L 384.375837 -217.344316 
L 384.633629 -215.816796 
L 384.875522 -214.289276 
L 385.099283 -212.761756 
L 385.302812 -211.234236 
L 385.484172 -209.706716 
L 385.641618 -208.179196 
L 385.773618 -206.651676 
L 385.878874 -205.124156 
L 385.956337 -203.596636 
L 386.005219 -202.069116 
L 386.025 -200.541597 
L 386.015427 -199.014077 
L 385.976512 -197.486557 
L 385.908527 -195.959037 
L 385.811987 -194.431517 
L 385.687637 -192.903997 
L 385.536432 -191.376477 
L 385.359514 -189.848957 
L 385.158188 -188.321437 
L 384.933895 -186.793917 
L 384.688187 -185.266397 
L 384.422699 -183.738877 
L 384.139122 -182.211357 
L 383.839179 -180.683838 
L 383.5246 -179.156318 
L 383.197102 -177.628798 
L 382.85837 -176.101278 
L 382.510038 -174.573758 
L 382.15368 -173.046238 
L 381.790797 -171.518718 
L 381.42281 -169.991198 
L 381.051054 -168.463678 
L 380.676777 -166.936158 
L 380.301142 -165.408638 
L 379.925224 -163.881118 
L 379.550019 -162.353598 
L 379.176443 -160.826079 
L 378.805343 -159.298559 
L 378.437498 -157.771039 
L 378.073631 -156.243519 
L 377.714408 -154.715999 
L 377.360451 -153.188479 
L 377.012337 -151.660959 
L 376.670605 -150.133439 
L 376.335763 -148.605919 
L 376.008282 -147.078399 
L 375.688609 -145.550879 
z
" style="stroke: #000000; stroke-opacity: 0.65"/>
    </defs>
    <g clip-path="url(#p58ad391d7e)">
     <use xlink:href="#m10fcbf8580" x="0" y="402.464375" style="fill: #0ec72a; fill-opacity: 0.65; stroke: #000000; stroke-opacity: 0.65"/>
    </g>
   </g>
   <g id="matplotlib.axis_1">
    <g id="xtick_1">
     <g id="line2d_1">
      <defs>
       <path id="md0b80c9ea7" d="M 0 0 
L 0 3.5 
" style="stroke: #000000; stroke-width: 0.8"/>
      </defs>
      <g>
       <use xlink:href="#md0b80c9ea7" x="117.255" y="361.036875" style="stroke: #000000; stroke-width: 0.8"/>
      </g>
     </g>
     <g id="text_1">
      <!-- cask -->
      <g transform="translate(105.941719 375.635312) scale(0.1 -0.1)">
       <defs>
        <path id="DejaVuSans-63" d="M 3122 3366 
L 3122 2828 
Q 2878 2963 2633 3030 
Q 2388 3097 2138 3097 
Q 1578 3097 1268 2742 
Q 959 2388 959 1747 
Q 959 1106 1268 751 
Q 1578 397 2138 397 
Q 2388 397 2633 464 
Q 2878 531 3122 666 
L 3122 134 
Q 2881 22 2623 -34 
Q 2366 -91 2075 -91 
Q 1284 -91 818 406 
Q 353 903 353 1747 
Q 353 2603 823 3093 
Q 1294 3584 2113 3584 
Q 2378 3584 2631 3529 
Q 2884 3475 3122 3366 
z
" transform="scale(0.015625)"/>
        <path id="DejaVuSans-61" d="M 2194 1759 
Q 1497 1759 1228 1600 
Q 959 1441 959 1056 
Q 959 750 1161 570 
Q 1363 391 1709 391 
Q 2188 391 2477 730 
Q 2766 1069 2766 1631 
L 2766 1759 
L 2194 1759 
z
M 3341 1997 
L 3341 0 
L 2766 0 
L 2766 531 
Q 2569 213 2275 61 
Q 1981 -91 1556 -91 
Q 1019 -91 701 211 
Q 384 513 384 1019 
Q 384 1609 779 1909 
Q 1175 2209 1959 2209 
L 2766 2209 
L 2766 2266 
Q 2766 2663 2505 2880 
Q 2244 3097 1772 3097 
Q 1472 3097 1187 3025 
Q 903 2953 641 2809 
L 641 3341 
Q 956 3463 1253 3523 
Q 1550 3584 1831 3584 
Q 2591 3584 2966 3190 
Q 3341 2797 3341 1997 
z
" transform="scale(0.015625)"/>
        <path id="DejaVuSans-73" d="M 2834 3397 
L 2834 2853 
Q 2591 2978 2328 3040 
Q 2066 3103 1784 3103 
Q 1356 3103 1142 2972 
Q 928 2841 928 2578 
Q 928 2378 1081 2264 
Q 1234 2150 1697 2047 
L 1894 2003 
Q 2506 1872 2764 1633 
Q 3022 1394 3022 966 
Q 3022 478 2636 193 
Q 2250 -91 1575 -91 
Q 1294 -91 989 -36 
Q 684 19 347 128 
L 347 722 
Q 666 556 975 473 
Q 1284 391 1588 391 
Q 1994 391 2212 530 
Q 2431 669 2431 922 
Q 2431 1156 2273 1281 
Q 2116 1406 1581 1522 
L 1381 1569 
Q 847 1681 609 1914 
Q 372 2147 372 2553 
Q 372 3047 722 3315 
Q 1072 3584 1716 3584 
Q 2034 3584 2315 3537 
Q 2597 3491 2834 3397 
z
" transform="scale(0.015625)"/>
        <path id="DejaVuSans-6b" d="M 581 4863 
L 1159 4863 
L 1159 1991 
L 2875 3500 
L 3609 3500 
L 1753 1863 
L 3688 0 
L 2938 0 
L 1159 1709 
L 1159 0 
L 581 0 
L 581 4863 
z
" transform="scale(0.015625)"/>
       </defs>
       <use xlink:href="#DejaVuSans-63"/>
       <use xlink:href="#DejaVuSans-61" x="54.980469"/>
       <use xlink:href="#DejaVuSans-73" x="116.259766"/>
       <use xlink:href="#DejaVuSans-6b" x="168.359375"/>
      </g>
     </g>
    </g>
    <g id="xtick_2">
     <g id="line2d_2">
      <g>
       <use xlink:href="#md0b80c9ea7" x="243.735" y="361.036875" style="stroke: #000000; stroke-width: 0.8"/>
      </g>
     </g>
     <g id="text_2">
      <!-- ctrl -->
      <g transform="translate(235.581094 375.635312) scale(0.1 -0.1)">
       <defs>
        <path id="DejaVuSans-74" d="M 1172 4494 
L 1172 3500 
L 2356 3500 
L 2356 3053 
L 1172 3053 
L 1172 1153 
Q 1172 725 1289 603 
Q 1406 481 1766 481 
L 2356 481 
L 2356 0 
L 1766 0 
Q 1100 0 847 248 
Q 594 497 594 1153 
L 594 3053 
L 172 3053 
L 172 3500 
L 594 3500 
L 594 4494 
L 1172 4494 
z
" transform="scale(0.015625)"/>
        <path id="DejaVuSans-72" d="M 2631 2963 
Q 2534 3019 2420 3045 
Q 2306 3072 2169 3072 
Q 1681 3072 1420 2755 
Q 1159 2438 1159 1844 
L 1159 0 
L 581 0 
L 581 3500 
L 1159 3500 
L 1159 2956 
Q 1341 3275 1631 3429 
Q 1922 3584 2338 3584 
Q 2397 3584 2469 3576 
Q 2541 3569 2628 3553 
L 2631 2963 
z
" transform="scale(0.015625)"/>
        <path id="DejaVuSans-6c" d="M 603 4863 
L 1178 4863 
L 1178 0 
L 603 0 
L 603 4863 
z
" transform="scale(0.015625)"/>
       </defs>
       <use xlink:href="#DejaVuSans-63"/>
       <use xlink:href="#DejaVuSans-74" x="54.980469"/>
       <use xlink:href="#DejaVuSans-72" x="94.189453"/>
       <use xlink:href="#DejaVuSans-6c" x="135.302734"/>
      </g>
     </g>
    </g>
    <g id="xtick_3">
     <g id="line2d_3">
      <g>
       <use xlink:href="#md0b80c9ea7" x="370.215" y="361.036875" style="stroke: #000000; stroke-width: 0.8"/>
      </g>
     </g>
     <g id="text_3">
      <!-- female -->
      <g transform="translate(352.978281 375.635312) scale(0.1 -0.1)">
       <defs>
        <path id="DejaVuSans-66" d="M 2375 4863 
L 2375 4384 
L 1825 4384 
Q 1516 4384 1395 4259 
Q 1275 4134 1275 3809 
L 1275 3500 
L 2222 3500 
L 2222 3053 
L 1275 3053 
L 1275 0 
L 697 0 
L 697 3053 
L 147 3053 
L 147 3500 
L 697 3500 
L 697 3744 
Q 697 4328 969 4595 
Q 1241 4863 1831 4863 
L 2375 4863 
z
" transform="scale(0.015625)"/>
        <path id="DejaVuSans-65" d="M 3597 1894 
L 3597 1613 
L 953 1613 
Q 991 1019 1311 708 
Q 1631 397 2203 397 
Q 2534 397 2845 478 
Q 3156 559 3463 722 
L 3463 178 
Q 3153 47 2828 -22 
Q 2503 -91 2169 -91 
Q 1331 -91 842 396 
Q 353 884 353 1716 
Q 353 2575 817 3079 
Q 1281 3584 2069 3584 
Q 2775 3584 3186 3129 
Q 3597 2675 3597 1894 
z
M 3022 2063 
Q 3016 2534 2758 2815 
Q 2500 3097 2075 3097 
Q 1594 3097 1305 2825 
Q 1016 2553 972 2059 
L 3022 2063 
z
" transform="scale(0.015625)"/>
        <path id="DejaVuSans-6d" d="M 3328 2828 
Q 3544 3216 3844 3400 
Q 4144 3584 4550 3584 
Q 5097 3584 5394 3201 
Q 5691 2819 5691 2113 
L 5691 0 
L 5113 0 
L 5113 2094 
Q 5113 2597 4934 2840 
Q 4756 3084 4391 3084 
Q 3944 3084 3684 2787 
Q 3425 2491 3425 1978 
L 3425 0 
L 2847 0 
L 2847 2094 
Q 2847 2600 2669 2842 
Q 2491 3084 2119 3084 
Q 1678 3084 1418 2786 
Q 1159 2488 1159 1978 
L 1159 0 
L 581 0 
L 581 3500 
L 1159 3500 
L 1159 2956 
Q 1356 3278 1631 3431 
Q 1906 3584 2284 3584 
Q 2666 3584 2933 3390 
Q 3200 3197 3328 2828 
z
" transform="scale(0.015625)"/>
       </defs>
       <use xlink:href="#DejaVuSans-66"/>
       <use xlink:href="#DejaVuSans-65" x="35.205078"/>
       <use xlink:href="#DejaVuSans-6d" x="96.728516"/>
       <use xlink:href="#DejaVuSans-61" x="194.140625"/>
       <use xlink:href="#DejaVuSans-6c" x="255.419922"/>
       <use xlink:href="#DejaVuSans-65" x="283.203125"/>
      </g>
     </g>
    </g>
    <g id="text_4">
     <!-- Groups -->
     <g transform="translate(218.781094 392.352812) scale(0.14 -0.14)">
      <defs>
       <path id="DejaVuSans-47" d="M 3809 666 
L 3809 1919 
L 2778 1919 
L 2778 2438 
L 4434 2438 
L 4434 434 
Q 4069 175 3628 42 
Q 3188 -91 2688 -91 
Q 1594 -91 976 548 
Q 359 1188 359 2328 
Q 359 3472 976 4111 
Q 1594 4750 2688 4750 
Q 3144 4750 3555 4637 
Q 3966 4525 4313 4306 
L 4313 3634 
Q 3963 3931 3569 4081 
Q 3175 4231 2741 4231 
Q 1884 4231 1454 3753 
Q 1025 3275 1025 2328 
Q 1025 1384 1454 906 
Q 1884 428 2741 428 
Q 3075 428 3337 486 
Q 3600 544 3809 666 
z
" transform="scale(0.015625)"/>
       <path id="DejaVuSans-6f" d="M 1959 3097 
Q 1497 3097 1228 2736 
Q 959 2375 959 1747 
Q 959 1119 1226 758 
Q 1494 397 1959 397 
Q 2419 397 2687 759 
Q 2956 1122 2956 1747 
Q 2956 2369 2687 2733 
Q 2419 3097 1959 3097 
z
M 1959 3584 
Q 2709 3584 3137 3096 
Q 3566 2609 3566 1747 
Q 3566 888 3137 398 
Q 2709 -91 1959 -91 
Q 1206 -91 779 398 
Q 353 888 353 1747 
Q 353 2609 779 3096 
Q 1206 3584 1959 3584 
z
" transform="scale(0.015625)"/>
       <path id="DejaVuSans-75" d="M 544 1381 
L 544 3500 
L 1119 3500 
L 1119 1403 
Q 1119 906 1312 657 
Q 1506 409 1894 409 
Q 2359 409 2629 706 
Q 2900 1003 2900 1516 
L 2900 3500 
L 3475 3500 
L 3475 0 
L 2900 0 
L 2900 538 
Q 2691 219 2414 64 
Q 2138 -91 1772 -91 
Q 1169 -91 856 284 
Q 544 659 544 1381 
z
M 1991 3584 
L 1991 3584 
z
" transform="scale(0.015625)"/>
       <path id="DejaVuSans-70" d="M 1159 525 
L 1159 -1331 
L 581 -1331 
L 581 3500 
L 1159 3500 
L 1159 2969 
Q 1341 3281 1617 3432 
Q 1894 3584 2278 3584 
Q 2916 3584 3314 3078 
Q 3713 2572 3713 1747 
Q 3713 922 3314 415 
Q 2916 -91 2278 -91 
Q 1894 -91 1617 61 
Q 1341 213 1159 525 
z
M 3116 1747 
Q 3116 2381 2855 2742 
Q 2594 3103 2138 3103 
Q 1681 3103 1420 2742 
Q 1159 2381 1159 1747 
Q 1159 1113 1420 752 
Q 1681 391 2138 391 
Q 2594 391 2855 752 
Q 3116 1113 3116 1747 
z
" transform="scale(0.015625)"/>
      </defs>
      <use xlink:href="#DejaVuSans-47"/>
      <use xlink:href="#DejaVuSans-72" x="77.490234"/>
      <use xlink:href="#DejaVuSans-6f" x="116.353516"/>
      <use xlink:href="#DejaVuSans-75" x="177.535156"/>
      <use xlink:href="#DejaVuSans-70" x="240.914062"/>
      <use xlink:href="#DejaVuSans-73" x="304.390625"/>
     </g>
    </g>
   </g>
   <g id="matplotlib.axis_2">
    <g id="ytick_1">
     <g id="line2d_4">
      <path d="M 54.015 347.395907 
L 433.455 347.395907 
" clip-path="url(#p58ad391d7e)" style="fill: none; stroke-dasharray: 2.96,1.28; stroke-dashoffset: 0; stroke: #b0b0b0; stroke-opacity: 0.3; stroke-width: 0.8"/>
     </g>
     <g id="line2d_5">
      <defs>
       <path id="m90f4204232" d="M 0 0 
L -3.5 0 
" style="stroke: #000000; stroke-width: 0.8"/>
      </defs>
      <g>
       <use xlink:href="#m90f4204232" x="54.015" y="347.395907" style="stroke: #000000; stroke-width: 0.8"/>
      </g>
     </g>
     <g id="text_5">
      <!-- 75.0 -->
      <g transform="translate(24.749375 351.195126) scale(0.1 -0.1)">
       <defs>
        <path id="DejaVuSans-37" d="M 525 4666 
L 3525 4666 
L 3525 4397 
L 1831 0 
L 1172 0 
L 2766 4134 
L 525 4134 
L 525 4666 
z
" transform="scale(0.015625)"/>
        <path id="DejaVuSans-35" d="M 691 4666 
L 3169 4666 
L 3169 4134 
L 1269 4134 
L 1269 2991 
Q 1406 3038 1543 3061 
Q 1681 3084 1819 3084 
Q 2600 3084 3056 2656 
Q 3513 2228 3513 1497 
Q 3513 744 3044 326 
Q 2575 -91 1722 -91 
Q 1428 -91 1123 -41 
Q 819 9 494 109 
L 494 744 
Q 775 591 1075 516 
Q 1375 441 1709 441 
Q 2250 441 2565 725 
Q 2881 1009 2881 1497 
Q 2881 1984 2565 2268 
Q 2250 2553 1709 2553 
Q 1456 2553 1204 2497 
Q 953 2441 691 2322 
L 691 4666 
z
" transform="scale(0.015625)"/>
        <path id="DejaVuSans-2e" d="M 684 794 
L 1344 794 
L 1344 0 
L 684 0 
L 684 794 
z
" transform="scale(0.015625)"/>
        <path id="DejaVuSans-30" d="M 2034 4250 
Q 1547 4250 1301 3770 
Q 1056 3291 1056 2328 
Q 1056 1369 1301 889 
Q 1547 409 2034 409 
Q 2525 409 2770 889 
Q 3016 1369 3016 2328 
Q 3016 3291 2770 3770 
Q 2525 4250 2034 4250 
z
M 2034 4750 
Q 2819 4750 3233 4129 
Q 3647 3509 3647 2328 
Q 3647 1150 3233 529 
Q 2819 -91 2034 -91 
Q 1250 -91 836 529 
Q 422 1150 422 2328 
Q 422 3509 836 4129 
Q 1250 4750 2034 4750 
z
" transform="scale(0.015625)"/>
       </defs>
       <use xlink:href="#DejaVuSans-37"/>
       <use xlink:href="#DejaVuSans-35" x="63.623047"/>
       <use xlink:href="#DejaVuSans-2e" x="127.246094"/>
       <use xlink:href="#DejaVuSans-30" x="159.033203"/>
      </g>
     </g>
    </g>
    <g id="ytick_2">
     <g id="line2d_6">
      <path d="M 54.015 309.741007 
L 433.455 309.741007 
" clip-path="url(#p58ad391d7e)" style="fill: none; stroke-dasharray: 2.96,1.28; stroke-dashoffset: 0; stroke: #b0b0b0; stroke-opacity: 0.3; stroke-width: 0.8"/>
     </g>
     <g id="line2d_7">
      <g>
       <use xlink:href="#m90f4204232" x="54.015" y="309.741007" style="stroke: #000000; stroke-width: 0.8"/>
      </g>
     </g>
     <g id="text_6">
      <!-- 77.5 -->
      <g transform="translate(24.749375 313.540225) scale(0.1 -0.1)">
       <use xlink:href="#DejaVuSans-37"/>
       <use xlink:href="#DejaVuSans-37" x="63.623047"/>
       <use xlink:href="#DejaVuSans-2e" x="127.246094"/>
       <use xlink:href="#DejaVuSans-35" x="159.033203"/>
      </g>
     </g>
    </g>
    <g id="ytick_3">
     <g id="line2d_8">
      <path d="M 54.015 272.086106 
L 433.455 272.086106 
" clip-path="url(#p58ad391d7e)" style="fill: none; stroke-dasharray: 2.96,1.28; stroke-dashoffset: 0; stroke: #b0b0b0; stroke-opacity: 0.3; stroke-width: 0.8"/>
     </g>
     <g id="line2d_9">
      <g>
       <use xlink:href="#m90f4204232" x="54.015" y="272.086106" style="stroke: #000000; stroke-width: 0.8"/>
      </g>
     </g>
     <g id="text_7">
      <!-- 80.0 -->
      <g transform="translate(24.749375 275.885325) scale(0.1 -0.1)">
       <defs>
        <path id="DejaVuSans-38" d="M 2034 2216 
Q 1584 2216 1326 1975 
Q 1069 1734 1069 1313 
Q 1069 891 1326 650 
Q 1584 409 2034 409 
Q 2484 409 2743 651 
Q 3003 894 3003 1313 
Q 3003 1734 2745 1975 
Q 2488 2216 2034 2216 
z
M 1403 2484 
Q 997 2584 770 2862 
Q 544 3141 544 3541 
Q 544 4100 942 4425 
Q 1341 4750 2034 4750 
Q 2731 4750 3128 4425 
Q 3525 4100 3525 3541 
Q 3525 3141 3298 2862 
Q 3072 2584 2669 2484 
Q 3125 2378 3379 2068 
Q 3634 1759 3634 1313 
Q 3634 634 3220 271 
Q 2806 -91 2034 -91 
Q 1263 -91 848 271 
Q 434 634 434 1313 
Q 434 1759 690 2068 
Q 947 2378 1403 2484 
z
M 1172 3481 
Q 1172 3119 1398 2916 
Q 1625 2713 2034 2713 
Q 2441 2713 2670 2916 
Q 2900 3119 2900 3481 
Q 2900 3844 2670 4047 
Q 2441 4250 2034 4250 
Q 1625 4250 1398 4047 
Q 1172 3844 1172 3481 
z
" transform="scale(0.015625)"/>
       </defs>
       <use xlink:href="#DejaVuSans-38"/>
       <use xlink:href="#DejaVuSans-30" x="63.623047"/>
       <use xlink:href="#DejaVuSans-2e" x="127.246094"/>
       <use xlink:href="#DejaVuSans-30" x="159.033203"/>
      </g>
     </g>
    </g>
    <g id="ytick_4">
     <g id="line2d_10">
      <path d="M 54.015 234.431205 
L 433.455 234.431205 
" clip-path="url(#p58ad391d7e)" style="fill: none; stroke-dasharray: 2.96,1.28; stroke-dashoffset: 0; stroke: #b0b0b0; stroke-opacity: 0.3; stroke-width: 0.8"/>
     </g>
     <g id="line2d_11">
      <g>
       <use xlink:href="#m90f4204232" x="54.015" y="234.431205" style="stroke: #000000; stroke-width: 0.8"/>
      </g>
     </g>
     <g id="text_8">
      <!-- 82.5 -->
      <g transform="translate(24.749375 238.230424) scale(0.1 -0.1)">
       <defs>
        <path id="DejaVuSans-32" d="M 1228 531 
L 3431 531 
L 3431 0 
L 469 0 
L 469 531 
Q 828 903 1448 1529 
Q 2069 2156 2228 2338 
Q 2531 2678 2651 2914 
Q 2772 3150 2772 3378 
Q 2772 3750 2511 3984 
Q 2250 4219 1831 4219 
Q 1534 4219 1204 4116 
Q 875 4013 500 3803 
L 500 4441 
Q 881 4594 1212 4672 
Q 1544 4750 1819 4750 
Q 2544 4750 2975 4387 
Q 3406 4025 3406 3419 
Q 3406 3131 3298 2873 
Q 3191 2616 2906 2266 
Q 2828 2175 2409 1742 
Q 1991 1309 1228 531 
z
" transform="scale(0.015625)"/>
       </defs>
       <use xlink:href="#DejaVuSans-38"/>
       <use xlink:href="#DejaVuSans-32" x="63.623047"/>
       <use xlink:href="#DejaVuSans-2e" x="127.246094"/>
       <use xlink:href="#DejaVuSans-35" x="159.033203"/>
      </g>
     </g>
    </g>
    <g id="ytick_5">
     <g id="line2d_12">
      <path d="M 54.015 196.776305 
L 433.455 196.776305 
" clip-path="url(#p58ad391d7e)" style="fill: none; stroke-dasharray: 2.96,1.28; stroke-dashoffset: 0; stroke: #b0b0b0; stroke-opacity: 0.3; stroke-width: 0.8"/>
     </g>
     <g id="line2d_13">
      <g>
       <use xlink:href="#m90f4204232" x="54.015" y="196.776305" style="stroke: #000000; stroke-width: 0.8"/>
      </g>
     </g>
     <g id="text_9">
      <!-- 85.0 -->
      <g transform="translate(24.749375 200.575524) scale(0.1 -0.1)">
       <use xlink:href="#DejaVuSans-38"/>
       <use xlink:href="#DejaVuSans-35" x="63.623047"/>
       <use xlink:href="#DejaVuSans-2e" x="127.246094"/>
       <use xlink:href="#DejaVuSans-30" x="159.033203"/>
      </g>
     </g>
    </g>
    <g id="ytick_6">
     <g id="line2d_14">
      <path d="M 54.015 159.121404 
L 433.455 159.121404 
" clip-path="url(#p58ad391d7e)" style="fill: none; stroke-dasharray: 2.96,1.28; stroke-dashoffset: 0; stroke: #b0b0b0; stroke-opacity: 0.3; stroke-width: 0.8"/>
     </g>
     <g id="line2d_15">
      <g>
       <use xlink:href="#m90f4204232" x="54.015" y="159.121404" style="stroke: #000000; stroke-width: 0.8"/>
      </g>
     </g>
     <g id="text_10">
      <!-- 87.5 -->
      <g transform="translate(24.749375 162.920623) scale(0.1 -0.1)">
       <use xlink:href="#DejaVuSans-38"/>
       <use xlink:href="#DejaVuSans-37" x="63.623047"/>
       <use xlink:href="#DejaVuSans-2e" x="127.246094"/>
       <use xlink:href="#DejaVuSans-35" x="159.033203"/>
      </g>
     </g>
    </g>
    <g id="ytick_7">
     <g id="line2d_16">
      <path d="M 54.015 121.466504 
L 433.455 121.466504 
" clip-path="url(#p58ad391d7e)" style="fill: none; stroke-dasharray: 2.96,1.28; stroke-dashoffset: 0; stroke: #b0b0b0; stroke-opacity: 0.3; stroke-width: 0.8"/>
     </g>
     <g id="line2d_17">
      <g>
       <use xlink:href="#m90f4204232" x="54.015" y="121.466504" style="stroke: #000000; stroke-width: 0.8"/>
      </g>
     </g>
     <g id="text_11">
      <!-- 90.0 -->
      <g transform="translate(24.749375 125.265723) scale(0.1 -0.1)">
       <defs>
        <path id="DejaVuSans-39" d="M 703 97 
L 703 672 
Q 941 559 1184 500 
Q 1428 441 1663 441 
Q 2288 441 2617 861 
Q 2947 1281 2994 2138 
Q 2813 1869 2534 1725 
Q 2256 1581 1919 1581 
Q 1219 1581 811 2004 
Q 403 2428 403 3163 
Q 403 3881 828 4315 
Q 1253 4750 1959 4750 
Q 2769 4750 3195 4129 
Q 3622 3509 3622 2328 
Q 3622 1225 3098 567 
Q 2575 -91 1691 -91 
Q 1453 -91 1209 -44 
Q 966 3 703 97 
z
M 1959 2075 
Q 2384 2075 2632 2365 
Q 2881 2656 2881 3163 
Q 2881 3666 2632 3958 
Q 2384 4250 1959 4250 
Q 1534 4250 1286 3958 
Q 1038 3666 1038 3163 
Q 1038 2656 1286 2365 
Q 1534 2075 1959 2075 
z
" transform="scale(0.015625)"/>
       </defs>
       <use xlink:href="#DejaVuSans-39"/>
       <use xlink:href="#DejaVuSans-30" x="63.623047"/>
       <use xlink:href="#DejaVuSans-2e" x="127.246094"/>
       <use xlink:href="#DejaVuSans-30" x="159.033203"/>
      </g>
     </g>
    </g>
    <g id="ytick_8">
     <g id="line2d_18">
      <path d="M 54.015 83.811603 
L 433.455 83.811603 
" clip-path="url(#p58ad391d7e)" style="fill: none; stroke-dasharray: 2.96,1.28; stroke-dashoffset: 0; stroke: #b0b0b0; stroke-opacity: 0.3; stroke-width: 0.8"/>
     </g>
     <g id="line2d_19">
      <g>
       <use xlink:href="#m90f4204232" x="54.015" y="83.811603" style="stroke: #000000; stroke-width: 0.8"/>
      </g>
     </g>
     <g id="text_12">
      <!-- 92.5 -->
      <g transform="translate(24.749375 87.610822) scale(0.1 -0.1)">
       <use xlink:href="#DejaVuSans-39"/>
       <use xlink:href="#DejaVuSans-32" x="63.623047"/>
       <use xlink:href="#DejaVuSans-2e" x="127.246094"/>
       <use xlink:href="#DejaVuSans-35" x="159.033203"/>
      </g>
     </g>
    </g>
    <g id="ytick_9">
     <g id="line2d_20">
      <path d="M 54.015 46.156703 
L 433.455 46.156703 
" clip-path="url(#p58ad391d7e)" style="fill: none; stroke-dasharray: 2.96,1.28; stroke-dashoffset: 0; stroke: #b0b0b0; stroke-opacity: 0.3; stroke-width: 0.8"/>
     </g>
     <g id="line2d_21">
      <g>
       <use xlink:href="#m90f4204232" x="54.015" y="46.156703" style="stroke: #000000; stroke-width: 0.8"/>
      </g>
     </g>
     <g id="text_13">
      <!-- 95.0 -->
      <g transform="translate(24.749375 49.955921) scale(0.1 -0.1)">
       <use xlink:href="#DejaVuSans-39"/>
       <use xlink:href="#DejaVuSans-35" x="63.623047"/>
       <use xlink:href="#DejaVuSans-2e" x="127.246094"/>
       <use xlink:href="#DejaVuSans-30" x="159.033203"/>
      </g>
     </g>
    </g>
    <g id="text_14">
     <!-- Meal Accuracy (%) -->
     <g transform="translate(17.837813 259.820156) rotate(-90) scale(0.14 -0.14)">
      <defs>
       <path id="DejaVuSans-4d" d="M 628 4666 
L 1569 4666 
L 2759 1491 
L 3956 4666 
L 4897 4666 
L 4897 0 
L 4281 0 
L 4281 4097 
L 3078 897 
L 2444 897 
L 1241 4097 
L 1241 0 
L 628 0 
L 628 4666 
z
" transform="scale(0.015625)"/>
       <path id="DejaVuSans-20" transform="scale(0.015625)"/>
       <path id="DejaVuSans-41" d="M 2188 4044 
L 1331 1722 
L 3047 1722 
L 2188 4044 
z
M 1831 4666 
L 2547 4666 
L 4325 0 
L 3669 0 
L 3244 1197 
L 1141 1197 
L 716 0 
L 50 0 
L 1831 4666 
z
" transform="scale(0.015625)"/>
       <path id="DejaVuSans-79" d="M 2059 -325 
Q 1816 -950 1584 -1140 
Q 1353 -1331 966 -1331 
L 506 -1331 
L 506 -850 
L 844 -850 
Q 1081 -850 1212 -737 
Q 1344 -625 1503 -206 
L 1606 56 
L 191 3500 
L 800 3500 
L 1894 763 
L 2988 3500 
L 3597 3500 
L 2059 -325 
z
" transform="scale(0.015625)"/>
       <path id="DejaVuSans-28" d="M 1984 4856 
Q 1566 4138 1362 3434 
Q 1159 2731 1159 2009 
Q 1159 1288 1364 580 
Q 1569 -128 1984 -844 
L 1484 -844 
Q 1016 -109 783 600 
Q 550 1309 550 2009 
Q 550 2706 781 3412 
Q 1013 4119 1484 4856 
L 1984 4856 
z
" transform="scale(0.015625)"/>
       <path id="DejaVuSans-25" d="M 4653 2053 
Q 4381 2053 4226 1822 
Q 4072 1591 4072 1178 
Q 4072 772 4226 539 
Q 4381 306 4653 306 
Q 4919 306 5073 539 
Q 5228 772 5228 1178 
Q 5228 1588 5073 1820 
Q 4919 2053 4653 2053 
z
M 4653 2450 
Q 5147 2450 5437 2106 
Q 5728 1763 5728 1178 
Q 5728 594 5436 251 
Q 5144 -91 4653 -91 
Q 4153 -91 3862 251 
Q 3572 594 3572 1178 
Q 3572 1766 3864 2108 
Q 4156 2450 4653 2450 
z
M 1428 4353 
Q 1159 4353 1004 4120 
Q 850 3888 850 3481 
Q 850 3069 1003 2837 
Q 1156 2606 1428 2606 
Q 1700 2606 1854 2837 
Q 2009 3069 2009 3481 
Q 2009 3884 1853 4118 
Q 1697 4353 1428 4353 
z
M 4250 4750 
L 4750 4750 
L 1831 -91 
L 1331 -91 
L 4250 4750 
z
M 1428 4750 
Q 1922 4750 2215 4408 
Q 2509 4066 2509 3481 
Q 2509 2891 2217 2550 
Q 1925 2209 1428 2209 
Q 931 2209 642 2551 
Q 353 2894 353 3481 
Q 353 4063 643 4406 
Q 934 4750 1428 4750 
z
" transform="scale(0.015625)"/>
       <path id="DejaVuSans-29" d="M 513 4856 
L 1013 4856 
Q 1481 4119 1714 3412 
Q 1947 2706 1947 2009 
Q 1947 1309 1714 600 
Q 1481 -109 1013 -844 
L 513 -844 
Q 928 -128 1133 580 
Q 1338 1288 1338 2009 
Q 1338 2731 1133 3434 
Q 928 4138 513 4856 
z
" transform="scale(0.015625)"/>
      </defs>
      <use xlink:href="#DejaVuSans-4d"/>
      <use xlink:href="#DejaVuSans-65" x="86.279297"/>
      <use xlink:href="#DejaVuSans-61" x="147.802734"/>
      <use xlink:href="#DejaVuSans-6c" x="209.082031"/>
      <use xlink:href="#DejaVuSans-20" x="236.865234"/>
      <use xlink:href="#DejaVuSans-41" x="268.652344"/>
      <use xlink:href="#DejaVuSans-63" x="335.310547"/>
      <use xlink:href="#DejaVuSans-63" x="390.291016"/>
      <use xlink:href="#DejaVuSans-75" x="445.271484"/>
      <use xlink:href="#DejaVuSans-72" x="508.650391"/>
      <use xlink:href="#DejaVuSans-61" x="549.763672"/>
      <use xlink:href="#DejaVuSans-63" x="611.042969"/>
      <use xlink:href="#DejaVuSans-79" x="666.023438"/>
      <use xlink:href="#DejaVuSans-20" x="725.203125"/>
      <use xlink:href="#DejaVuSans-28" x="756.990234"/>
      <use xlink:href="#DejaVuSans-25" x="796.003906"/>
      <use xlink:href="#DejaVuSans-29" x="891.023438"/>
     </g>
    </g>
   </g>
   <g id="patch_3">
    <path d="M 107.769 234.612965 
L 126.741 234.612965 
L 126.741 147.36144 
L 107.769 147.36144 
L 107.769 234.612965 
z
" clip-path="url(#p58ad391d7e)" style="fill: #ffffff; stroke: #000000; stroke-linejoin: miter"/>
   </g>
   <g id="line2d_22">
    <path d="M 117.255 234.612965 
L 117.255 345.916875 
" clip-path="url(#p58ad391d7e)" style="fill: none; stroke: #000000; stroke-linecap: square"/>
   </g>
   <g id="line2d_23">
    <path d="M 117.255 147.36144 
L 117.255 43.516875 
" clip-path="url(#p58ad391d7e)" style="fill: none; stroke: #000000; stroke-linecap: square"/>
   </g>
   <g id="line2d_24">
    <path d="M 112.512 345.916875 
L 121.998 345.916875 
" clip-path="url(#p58ad391d7e)" style="fill: none; stroke: #000000; stroke-linecap: square"/>
   </g>
   <g id="line2d_25">
    <path d="M 112.512 43.516875 
L 121.998 43.516875 
" clip-path="url(#p58ad391d7e)" style="fill: none; stroke: #000000; stroke-linecap: square"/>
   </g>
   <g id="patch_4">
    <path d="M 234.249 189.94476 
L 253.221 189.94476 
L 253.221 140.468242 
L 234.249 140.468242 
L 234.249 189.94476 
z
" clip-path="url(#p58ad391d7e)" style="fill: #ffffff; stroke: #000000; stroke-linejoin: miter"/>
   </g>
   <g id="line2d_26">
    <path d="M 243.735 189.94476 
L 243.735 238.978965 
" clip-path="url(#p58ad391d7e)" style="fill: none; stroke: #000000; stroke-linecap: square"/>
   </g>
   <g id="line2d_27">
    <path d="M 243.735 140.468242 
L 243.735 84.211861 
" clip-path="url(#p58ad391d7e)" style="fill: none; stroke: #000000; stroke-linecap: square"/>
   </g>
   <g id="line2d_28">
    <path d="M 238.992 238.978965 
L 248.478 238.978965 
" clip-path="url(#p58ad391d7e)" style="fill: none; stroke: #000000; stroke-linecap: square"/>
   </g>
   <g id="line2d_29">
    <path d="M 238.992 84.211861 
L 248.478 84.211861 
" clip-path="url(#p58ad391d7e)" style="fill: none; stroke: #000000; stroke-linecap: square"/>
   </g>
   <g id="patch_5">
    <path d="M 360.729 210.862441 
L 379.701 210.862441 
L 379.701 152.393428 
L 360.729 152.393428 
L 360.729 210.862441 
z
" clip-path="url(#p58ad391d7e)" style="fill: #ffffff; stroke: #000000; stroke-linejoin: miter"/>
   </g>
   <g id="line2d_30">
    <path d="M 370.215 210.862441 
L 370.215 256.913496 
" clip-path="url(#p58ad391d7e)" style="fill: none; stroke: #000000; stroke-linecap: square"/>
   </g>
   <g id="line2d_31">
    <path d="M 370.215 152.393428 
L 370.215 105.689023 
" clip-path="url(#p58ad391d7e)" style="fill: none; stroke: #000000; stroke-linecap: square"/>
   </g>
   <g id="line2d_32">
    <path d="M 365.472 256.913496 
L 374.958 256.913496 
" clip-path="url(#p58ad391d7e)" style="fill: none; stroke: #000000; stroke-linecap: square"/>
   </g>
   <g id="line2d_33">
    <path d="M 365.472 105.689023 
L 374.958 105.689023 
" clip-path="url(#p58ad391d7e)" style="fill: none; stroke: #000000; stroke-linecap: square"/>
   </g>
   <g id="line2d_34">
    <path d="M 107.769 197.403099 
L 126.741 197.403099 
" clip-path="url(#p58ad391d7e)" style="fill: none; stroke: #000000"/>
   </g>
   <g id="line2d_35">
    <path d="M 234.249 162.430416 
L 253.221 162.430416 
" clip-path="url(#p58ad391d7e)" style="fill: none; stroke: #000000"/>
   </g>
   <g id="line2d_36">
    <path d="M 360.729 198.193452 
L 379.701 198.193452 
" clip-path="url(#p58ad391d7e)" style="fill: none; stroke: #000000"/>
   </g>
   <g id="patch_6">
    <path d="M 54.015 361.036875 
L 54.015 28.396875 
" style="fill: none; stroke: #000000; stroke-width: 0.8; stroke-linejoin: miter; stroke-linecap: square"/>
   </g>
   <g id="patch_7">
    <path d="M 433.455 361.036875 
L 433.455 28.396875 
" style="fill: none; stroke: #000000; stroke-width: 0.8; stroke-linejoin: miter; stroke-linecap: square"/>
   </g>
   <g id="patch_8">
    <path d="M 54.015 361.036875 
L 433.455 361.036875 
" style="fill: none; stroke: #000000; stroke-width: 0.8; stroke-linejoin: miter; stroke-linecap: square"/>
   </g>
   <g id="patch_9">
    <path d="M 54.015 28.396875 
L 433.455 28.396875 
" style="fill: none; stroke: #000000; stroke-width: 0.8; stroke-linejoin: miter; stroke-linecap: square"/>
   </g>
   <g id="PathCollection_1">
    <defs>
     <path id="mc508561874" d="M 0 3 
C 0.795609 3 1.55874 2.683901 2.12132 2.12132 
C 2.683901 1.55874 3 0.795609 3 0 
C 3 -0.795609 2.683901 -1.55874 2.12132 -2.12132 
C 1.55874 -2.683901 0.795609 -3 0 -3 
C -0.795609 -3 -1.55874 -2.683901 -2.12132 -2.12132 
C -2.683901 -1.55874 -3 -0.795609 -3 0 
C -3 0.795609 -2.683901 1.55874 -2.12132 2.12132 
C -1.55874 2.683901 -0.795609 3 0 3 
z
" style="stroke: #000000; stroke-opacity: 0.85; stroke-width: 0.4"/>
    </defs>
    <g clip-path="url(#p58ad391d7e)">
     <use xlink:href="#mc508561874" x="113.804433" y="149.926404" style="fill: #425df5; fill-opacity: 0.85; stroke: #000000; stroke-opacity: 0.85; stroke-width: 0.4"/>
     <use xlink:href="#mc508561874" x="118.892072" y="211.251408" style="fill: #425df5; fill-opacity: 0.85; stroke: #000000; stroke-opacity: 0.85; stroke-width: 0.4"/>
     <use xlink:href="#mc508561874" x="113.737084" y="43.516875" style="fill: #425df5; fill-opacity: 0.85; stroke: #000000; stroke-opacity: 0.85; stroke-width: 0.4"/>
     <use xlink:href="#mc508561874" x="117.28044" y="138.387029" style="fill: #425df5; fill-opacity: 0.85; stroke: #000000; stroke-opacity: 0.85; stroke-width: 0.4"/>
     <use xlink:href="#mc508561874" x="119.772009" y="229.887952" style="fill: #425df5; fill-opacity: 0.85; stroke: #000000; stroke-opacity: 0.85; stroke-width: 0.4"/>
     <use xlink:href="#mc508561874" x="117.246027" y="267.6484" style="fill: #425df5; fill-opacity: 0.85; stroke: #000000; stroke-opacity: 0.85; stroke-width: 0.4"/>
     <use xlink:href="#mc508561874" x="119.556149" y="213.791787" style="fill: #425df5; fill-opacity: 0.85; stroke: #000000; stroke-opacity: 0.85; stroke-width: 0.4"/>
     <use xlink:href="#mc508561874" x="121.205497" y="243.943822" style="fill: #425df5; fill-opacity: 0.85; stroke: #000000; stroke-opacity: 0.85; stroke-width: 0.4"/>
     <use xlink:href="#mc508561874" x="113.867979" y="235.170929" style="fill: #425df5; fill-opacity: 0.85; stroke: #000000; stroke-opacity: 0.85; stroke-width: 0.4"/>
     <use xlink:href="#mc508561874" x="122.071751" y="345.916875" style="fill: #425df5; fill-opacity: 0.85; stroke: #000000; stroke-opacity: 0.85; stroke-width: 0.4"/>
     <use xlink:href="#mc508561874" x="117.072995" y="234.426977" style="fill: #425df5; fill-opacity: 0.85; stroke: #000000; stroke-opacity: 0.85; stroke-width: 0.4"/>
     <use xlink:href="#mc508561874" x="114.089971" y="259.314743" style="fill: #425df5; fill-opacity: 0.85; stroke: #000000; stroke-opacity: 0.85; stroke-width: 0.4"/>
     <use xlink:href="#mc508561874" x="115.05903" y="189.244977" style="fill: #425df5; fill-opacity: 0.85; stroke: #000000; stroke-opacity: 0.85; stroke-width: 0.4"/>
     <use xlink:href="#mc508561874" x="116.181997" y="202.871522" style="fill: #425df5; fill-opacity: 0.85; stroke: #000000; stroke-opacity: 0.85; stroke-width: 0.4"/>
     <use xlink:href="#mc508561874" x="114.346788" y="177.209505" style="fill: #425df5; fill-opacity: 0.85; stroke: #000000; stroke-opacity: 0.85; stroke-width: 0.4"/>
     <use xlink:href="#mc508561874" x="122.031525" y="191.934676" style="fill: #425df5; fill-opacity: 0.85; stroke: #000000; stroke-opacity: 0.85; stroke-width: 0.4"/>
     <use xlink:href="#mc508561874" x="117.477504" y="141.188331" style="fill: #425df5; fill-opacity: 0.85; stroke: #000000; stroke-opacity: 0.85; stroke-width: 0.4"/>
     <use xlink:href="#mc508561874" x="116.180203" y="134.266307" style="fill: #425df5; fill-opacity: 0.85; stroke: #000000; stroke-opacity: 0.85; stroke-width: 0.4"/>
     <use xlink:href="#mc508561874" x="122.211684" y="149.419143" style="fill: #425df5; fill-opacity: 0.85; stroke: #000000; stroke-opacity: 0.85; stroke-width: 0.4"/>
     <use xlink:href="#mc508561874" x="118.262427" y="249.45073" style="fill: #425df5; fill-opacity: 0.85; stroke: #000000; stroke-opacity: 0.85; stroke-width: 0.4"/>
     <use xlink:href="#mc508561874" x="120.017675" y="211.95968" style="fill: #425df5; fill-opacity: 0.85; stroke: #000000; stroke-opacity: 0.85; stroke-width: 0.4"/>
     <use xlink:href="#mc508561874" x="112.401099" y="122.565095" style="fill: #425df5; fill-opacity: 0.85; stroke: #000000; stroke-opacity: 0.85; stroke-width: 0.4"/>
     <use xlink:href="#mc508561874" x="117.669855" y="158.514572" style="fill: #425df5; fill-opacity: 0.85; stroke: #000000; stroke-opacity: 0.85; stroke-width: 0.4"/>
     <use xlink:href="#mc508561874" x="121.70769" y="124.917303" style="fill: #425df5; fill-opacity: 0.85; stroke: #000000; stroke-opacity: 0.85; stroke-width: 0.4"/>
    </g>
   </g>
   <g id="PathCollection_2">
    <defs>
     <path id="mf44ca79163" d="M 0 3 
C 0.795609 3 1.55874 2.683901 2.12132 2.12132 
C 2.683901 1.55874 3 0.795609 3 0 
C 3 -0.795609 2.683901 -1.55874 2.12132 -2.12132 
C 1.55874 -2.683901 0.795609 -3 0 -3 
C -0.795609 -3 -1.55874 -2.683901 -2.12132 -2.12132 
C -2.683901 -1.55874 -3 -0.795609 -3 0 
C -3 0.795609 -2.683901 1.55874 -2.12132 2.12132 
C -1.55874 2.683901 -0.795609 3 0 3 
z
" style="stroke: #000000; stroke-opacity: 0.85; stroke-width: 0.4"/>
    </defs>
    <g clip-path="url(#p58ad391d7e)">
     <use xlink:href="#mf44ca79163" x="246.02556" y="194.256261" style="fill: #f55442; fill-opacity: 0.85; stroke: #000000; stroke-opacity: 0.85; stroke-width: 0.4"/>
     <use xlink:href="#mf44ca79163" x="243.530125" y="188.080099" style="fill: #f55442; fill-opacity: 0.85; stroke: #000000; stroke-opacity: 0.85; stroke-width: 0.4"/>
     <use xlink:href="#mf44ca79163" x="248.239945" y="146.97614" style="fill: #f55442; fill-opacity: 0.85; stroke: #000000; stroke-opacity: 0.85; stroke-width: 0.4"/>
     <use xlink:href="#mf44ca79163" x="247.495658" y="84.211861" style="fill: #f55442; fill-opacity: 0.85; stroke: #000000; stroke-opacity: 0.85; stroke-width: 0.4"/>
     <use xlink:href="#mf44ca79163" x="246.606714" y="154.747496" style="fill: #f55442; fill-opacity: 0.85; stroke: #000000; stroke-opacity: 0.85; stroke-width: 0.4"/>
     <use xlink:href="#mf44ca79163" x="243.487483" y="222.971973" style="fill: #f55442; fill-opacity: 0.85; stroke: #000000; stroke-opacity: 0.85; stroke-width: 0.4"/>
     <use xlink:href="#mf44ca79163" x="244.986303" y="129.634367" style="fill: #f55442; fill-opacity: 0.85; stroke: #000000; stroke-opacity: 0.85; stroke-width: 0.4"/>
     <use xlink:href="#mf44ca79163" x="243.692163" y="153.144436" style="fill: #f55442; fill-opacity: 0.85; stroke: #000000; stroke-opacity: 0.85; stroke-width: 0.4"/>
     <use xlink:href="#mf44ca79163" x="240.534314" y="101.029091" style="fill: #f55442; fill-opacity: 0.85; stroke: #000000; stroke-opacity: 0.85; stroke-width: 0.4"/>
     <use xlink:href="#mf44ca79163" x="245.415004" y="171.44429" style="fill: #f55442; fill-opacity: 0.85; stroke: #000000; stroke-opacity: 0.85; stroke-width: 0.4"/>
     <use xlink:href="#mf44ca79163" x="247.018625" y="157.250151" style="fill: #f55442; fill-opacity: 0.85; stroke: #000000; stroke-opacity: 0.85; stroke-width: 0.4"/>
     <use xlink:href="#mf44ca79163" x="245.567856" y="175.043582" style="fill: #f55442; fill-opacity: 0.85; stroke: #000000; stroke-opacity: 0.85; stroke-width: 0.4"/>
     <use xlink:href="#mf44ca79163" x="245.900401" y="219.090756" style="fill: #f55442; fill-opacity: 0.85; stroke: #000000; stroke-opacity: 0.85; stroke-width: 0.4"/>
     <use xlink:href="#mf44ca79163" x="248.098401" y="188.893612" style="fill: #f55442; fill-opacity: 0.85; stroke: #000000; stroke-opacity: 0.85; stroke-width: 0.4"/>
     <use xlink:href="#mf44ca79163" x="241.257318" y="223.075103" style="fill: #f55442; fill-opacity: 0.85; stroke: #000000; stroke-opacity: 0.85; stroke-width: 0.4"/>
     <use xlink:href="#mf44ca79163" x="240.051588" y="181.147017" style="fill: #f55442; fill-opacity: 0.85; stroke: #000000; stroke-opacity: 0.85; stroke-width: 0.4"/>
     <use xlink:href="#mf44ca79163" x="238.858026" y="238.978965" style="fill: #f55442; fill-opacity: 0.85; stroke: #000000; stroke-opacity: 0.85; stroke-width: 0.4"/>
     <use xlink:href="#mf44ca79163" x="239.916589" y="200.204775" style="fill: #f55442; fill-opacity: 0.85; stroke: #000000; stroke-opacity: 0.85; stroke-width: 0.4"/>
     <use xlink:href="#mf44ca79163" x="244.574096" y="187.852778" style="fill: #f55442; fill-opacity: 0.85; stroke: #000000; stroke-opacity: 0.85; stroke-width: 0.4"/>
     <use xlink:href="#mf44ca79163" x="242.820038" y="126.915631" style="fill: #f55442; fill-opacity: 0.85; stroke: #000000; stroke-opacity: 0.85; stroke-width: 0.4"/>
     <use xlink:href="#mf44ca79163" x="241.17593" y="133.960344" style="fill: #f55442; fill-opacity: 0.85; stroke: #000000; stroke-opacity: 0.85; stroke-width: 0.4"/>
     <use xlink:href="#mf44ca79163" x="247.575566" y="162.430416" style="fill: #f55442; fill-opacity: 0.85; stroke: #000000; stroke-opacity: 0.85; stroke-width: 0.4"/>
     <use xlink:href="#mf44ca79163" x="248.128327" y="151.562792" style="fill: #f55442; fill-opacity: 0.85; stroke: #000000; stroke-opacity: 0.85; stroke-width: 0.4"/>
     <use xlink:href="#mf44ca79163" x="245.134649" y="115.122649" style="fill: #f55442; fill-opacity: 0.85; stroke: #000000; stroke-opacity: 0.85; stroke-width: 0.4"/>
     <use xlink:href="#mf44ca79163" x="239.709499" y="160.576069" style="fill: #f55442; fill-opacity: 0.85; stroke: #000000; stroke-opacity: 0.85; stroke-width: 0.4"/>
     <use xlink:href="#mf44ca79163" x="247.47842" y="89.447986" style="fill: #f55442; fill-opacity: 0.85; stroke: #000000; stroke-opacity: 0.85; stroke-width: 0.4"/>
     <use xlink:href="#mf44ca79163" x="243.629194" y="190.995909" style="fill: #f55442; fill-opacity: 0.85; stroke: #000000; stroke-opacity: 0.85; stroke-width: 0.4"/>
    </g>
   </g>
   <g id="PathCollection_3">
    <defs>
     <path id="mcafb7f2677" d="M 0 3 
C 0.795609 3 1.55874 2.683901 2.12132 2.12132 
C 2.683901 1.55874 3 0.795609 3 0 
C 3 -0.795609 2.683901 -1.55874 2.12132 -2.12132 
C 1.55874 -2.683901 0.795609 -3 0 -3 
C -0.795609 -3 -1.55874 -2.683901 -2.12132 -2.12132 
C -2.683901 -1.55874 -3 -0.795609 -3 0 
C -3 0.795609 -2.683901 1.55874 -2.12132 2.12132 
C -1.55874 2.683901 -0.795609 3 0 3 
z
" style="stroke: #000000; stroke-opacity: 0.85; stroke-width: 0.4"/>
    </defs>
    <g clip-path="url(#p58ad391d7e)">
     <use xlink:href="#mcafb7f2677" x="372.234178" y="118.038391" style="fill: #0ec72a; fill-opacity: 0.85; stroke: #000000; stroke-opacity: 0.85; stroke-width: 0.4"/>
     <use xlink:href="#mcafb7f2677" x="373.424899" y="256.913496" style="fill: #0ec72a; fill-opacity: 0.85; stroke: #000000; stroke-opacity: 0.85; stroke-width: 0.4"/>
     <use xlink:href="#mcafb7f2677" x="368.31146" y="109.751646" style="fill: #0ec72a; fill-opacity: 0.85; stroke: #000000; stroke-opacity: 0.85; stroke-width: 0.4"/>
     <use xlink:href="#mcafb7f2677" x="367.844995" y="142.860457" style="fill: #0ec72a; fill-opacity: 0.85; stroke: #000000; stroke-opacity: 0.85; stroke-width: 0.4"/>
     <use xlink:href="#mcafb7f2677" x="369.117193" y="229.903441" style="fill: #0ec72a; fill-opacity: 0.85; stroke: #000000; stroke-opacity: 0.85; stroke-width: 0.4"/>
     <use xlink:href="#mcafb7f2677" x="371.653477" y="175.594038" style="fill: #0ec72a; fill-opacity: 0.85; stroke: #000000; stroke-opacity: 0.85; stroke-width: 0.4"/>
     <use xlink:href="#mcafb7f2677" x="372.894988" y="236.587371" style="fill: #0ec72a; fill-opacity: 0.85; stroke: #000000; stroke-opacity: 0.85; stroke-width: 0.4"/>
     <use xlink:href="#mcafb7f2677" x="368.469938" y="200.858288" style="fill: #0ec72a; fill-opacity: 0.85; stroke: #000000; stroke-opacity: 0.85; stroke-width: 0.4"/>
     <use xlink:href="#mcafb7f2677" x="375.463145" y="175.954784" style="fill: #0ec72a; fill-opacity: 0.85; stroke: #000000; stroke-opacity: 0.85; stroke-width: 0.4"/>
     <use xlink:href="#mcafb7f2677" x="367.850608" y="202.884956" style="fill: #0ec72a; fill-opacity: 0.85; stroke: #000000; stroke-opacity: 0.85; stroke-width: 0.4"/>
     <use xlink:href="#mcafb7f2677" x="374.860437" y="188.250878" style="fill: #0ec72a; fill-opacity: 0.85; stroke: #000000; stroke-opacity: 0.85; stroke-width: 0.4"/>
     <use xlink:href="#mcafb7f2677" x="365.627909" y="234.481119" style="fill: #0ec72a; fill-opacity: 0.85; stroke: #000000; stroke-opacity: 0.85; stroke-width: 0.4"/>
     <use xlink:href="#mcafb7f2677" x="375.320843" y="197.283924" style="fill: #0ec72a; fill-opacity: 0.85; stroke: #000000; stroke-opacity: 0.85; stroke-width: 0.4"/>
     <use xlink:href="#mcafb7f2677" x="372.157944" y="201.652179" style="fill: #0ec72a; fill-opacity: 0.85; stroke: #000000; stroke-opacity: 0.85; stroke-width: 0.4"/>
     <use xlink:href="#mcafb7f2677" x="373.846833" y="212.696684" style="fill: #0ec72a; fill-opacity: 0.85; stroke: #000000; stroke-opacity: 0.85; stroke-width: 0.4"/>
     <use xlink:href="#mcafb7f2677" x="367.164663" y="105.689023" style="fill: #0ec72a; fill-opacity: 0.85; stroke: #000000; stroke-opacity: 0.85; stroke-width: 0.4"/>
     <use xlink:href="#mcafb7f2677" x="370.452822" y="132.595619" style="fill: #0ec72a; fill-opacity: 0.85; stroke: #000000; stroke-opacity: 0.85; stroke-width: 0.4"/>
     <use xlink:href="#mcafb7f2677" x="368.433518" y="155.571085" style="fill: #0ec72a; fill-opacity: 0.85; stroke: #000000; stroke-opacity: 0.85; stroke-width: 0.4"/>
     <use xlink:href="#mcafb7f2677" x="366.220528" y="210.251027" style="fill: #0ec72a; fill-opacity: 0.85; stroke: #000000; stroke-opacity: 0.85; stroke-width: 0.4"/>
     <use xlink:href="#mcafb7f2677" x="367.550479" y="199.10298" style="fill: #0ec72a; fill-opacity: 0.85; stroke: #000000; stroke-opacity: 0.85; stroke-width: 0.4"/>
    </g>
   </g>
   <g id="text_15">
    <!-- Meal Accuracy Distribution -->
    <g transform="translate(109.6975 22.396875) scale(0.2 -0.2)">
     <defs>
      <path id="DejaVuSans-44" d="M 1259 4147 
L 1259 519 
L 2022 519 
Q 2988 519 3436 956 
Q 3884 1394 3884 2338 
Q 3884 3275 3436 3711 
Q 2988 4147 2022 4147 
L 1259 4147 
z
M 628 4666 
L 1925 4666 
Q 3281 4666 3915 4102 
Q 4550 3538 4550 2338 
Q 4550 1131 3912 565 
Q 3275 0 1925 0 
L 628 0 
L 628 4666 
z
" transform="scale(0.015625)"/>
      <path id="DejaVuSans-69" d="M 603 3500 
L 1178 3500 
L 1178 0 
L 603 0 
L 603 3500 
z
M 603 4863 
L 1178 4863 
L 1178 4134 
L 603 4134 
L 603 4863 
z
" transform="scale(0.015625)"/>
      <path id="DejaVuSans-62" d="M 3116 1747 
Q 3116 2381 2855 2742 
Q 2594 3103 2138 3103 
Q 1681 3103 1420 2742 
Q 1159 2381 1159 1747 
Q 1159 1113 1420 752 
Q 1681 391 2138 391 
Q 2594 391 2855 752 
Q 3116 1113 3116 1747 
z
M 1159 2969 
Q 1341 3281 1617 3432 
Q 1894 3584 2278 3584 
Q 2916 3584 3314 3078 
Q 3713 2572 3713 1747 
Q 3713 922 3314 415 
Q 2916 -91 2278 -91 
Q 1894 -91 1617 61 
Q 1341 213 1159 525 
L 1159 0 
L 581 0 
L 581 4863 
L 1159 4863 
L 1159 2969 
z
" transform="scale(0.015625)"/>
      <path id="DejaVuSans-6e" d="M 3513 2113 
L 3513 0 
L 2938 0 
L 2938 2094 
Q 2938 2591 2744 2837 
Q 2550 3084 2163 3084 
Q 1697 3084 1428 2787 
Q 1159 2491 1159 1978 
L 1159 0 
L 581 0 
L 581 3500 
L 1159 3500 
L 1159 2956 
Q 1366 3272 1645 3428 
Q 1925 3584 2291 3584 
Q 2894 3584 3203 3211 
Q 3513 2838 3513 2113 
z
" transform="scale(0.015625)"/>
     </defs>
     <use xlink:href="#DejaVuSans-4d"/>
     <use xlink:href="#DejaVuSans-65" x="86.279297"/>
     <use xlink:href="#DejaVuSans-61" x="147.802734"/>
     <use xlink:href="#DejaVuSans-6c" x="209.082031"/>
     <use xlink:href="#DejaVuSans-20" x="236.865234"/>
     <use xlink:href="#DejaVuSans-41" x="268.652344"/>
     <use xlink:href="#DejaVuSans-63" x="335.310547"/>
     <use xlink:href="#DejaVuSans-63" x="390.291016"/>
     <use xlink:href="#DejaVuSans-75" x="445.271484"/>
     <use xlink:href="#DejaVuSans-72" x="508.650391"/>
     <use xlink:href="#DejaVuSans-61" x="549.763672"/>
     <use xlink:href="#DejaVuSans-63" x="611.042969"/>
     <use xlink:href="#DejaVuSans-79" x="666.023438"/>
     <use xlink:href="#DejaVuSans-20" x="725.203125"/>
     <use xlink:href="#DejaVuSans-44" x="756.990234"/>
     <use xlink:href="#DejaVuSans-69" x="833.992188"/>
     <use xlink:href="#DejaVuSans-73" x="861.775391"/>
     <use xlink:href="#DejaVuSans-74" x="913.875"/>
     <use xlink:href="#DejaVuSans-72" x="953.083984"/>
     <use xlink:href="#DejaVuSans-69" x="994.197266"/>
     <use xlink:href="#DejaVuSans-62" x="1021.980469"/>
     <use xlink:href="#DejaVuSans-75" x="1085.457031"/>
     <use xlink:href="#DejaVuSans-74" x="1148.835938"/>
     <use xlink:href="#DejaVuSans-69" x="1188.044922"/>
     <use xlink:href="#DejaVuSans-6f" x="1215.828125"/>
     <use xlink:href="#DejaVuSans-6e" x="1277.009766"/>
    </g>
   </g>
   <g id="legend_1">
    <g id="patch_10">
     <path d="M 299.17875 90.838125 
L 425.055 90.838125 
Q 427.455 90.838125 427.455 88.438125 
L 427.455 36.796875 
Q 427.455 34.396875 425.055 34.396875 
L 299.17875 34.396875 
Q 296.77875 34.396875 296.77875 36.796875 
L 296.77875 88.438125 
Q 296.77875 90.838125 299.17875 90.838125 
z
" style="fill: #ffffff; opacity: 0.8; stroke: #cccccc; stroke-linejoin: miter"/>
    </g>
    <g id="patch_11">
     <path d="M 301.57875 48.315 
L 325.57875 48.315 
L 325.57875 39.915 
L 301.57875 39.915 
z
" style="fill: #425df5; opacity: 0.65; stroke: #425df5; stroke-linejoin: miter"/>
    </g>
    <g id="text_16">
     <!-- cask (n=24) -->
     <g transform="translate(335.17875 48.315) scale(0.12 -0.12)">
      <defs>
       <path id="DejaVuSans-3d" d="M 678 2906 
L 4684 2906 
L 4684 2381 
L 678 2381 
L 678 2906 
z
M 678 1631 
L 4684 1631 
L 4684 1100 
L 678 1100 
L 678 1631 
z
" transform="scale(0.015625)"/>
       <path id="DejaVuSans-34" d="M 2419 4116 
L 825 1625 
L 2419 1625 
L 2419 4116 
z
M 2253 4666 
L 3047 4666 
L 3047 1625 
L 3713 1625 
L 3713 1100 
L 3047 1100 
L 3047 0 
L 2419 0 
L 2419 1100 
L 313 1100 
L 313 1709 
L 2253 4666 
z
" transform="scale(0.015625)"/>
      </defs>
      <use xlink:href="#DejaVuSans-63"/>
      <use xlink:href="#DejaVuSans-61" x="54.980469"/>
      <use xlink:href="#DejaVuSans-73" x="116.259766"/>
      <use xlink:href="#DejaVuSans-6b" x="168.359375"/>
      <use xlink:href="#DejaVuSans-20" x="226.269531"/>
      <use xlink:href="#DejaVuSans-28" x="258.056641"/>
      <use xlink:href="#DejaVuSans-6e" x="297.070312"/>
      <use xlink:href="#DejaVuSans-3d" x="360.449219"/>
      <use xlink:href="#DejaVuSans-32" x="444.238281"/>
      <use xlink:href="#DejaVuSans-34" x="507.861328"/>
      <use xlink:href="#DejaVuSans-29" x="571.484375"/>
     </g>
    </g>
    <g id="patch_12">
     <path d="M 301.57875 65.92875 
L 325.57875 65.92875 
L 325.57875 57.52875 
L 301.57875 57.52875 
z
" style="fill: #f55442; opacity: 0.65; stroke: #f55442; stroke-linejoin: miter"/>
    </g>
    <g id="text_17">
     <!-- ctrl (n=27) -->
     <g transform="translate(335.17875 65.92875) scale(0.12 -0.12)">
      <use xlink:href="#DejaVuSans-63"/>
      <use xlink:href="#DejaVuSans-74" x="54.980469"/>
      <use xlink:href="#DejaVuSans-72" x="94.189453"/>
      <use xlink:href="#DejaVuSans-6c" x="135.302734"/>
      <use xlink:href="#DejaVuSans-20" x="163.085938"/>
      <use xlink:href="#DejaVuSans-28" x="194.873047"/>
      <use xlink:href="#DejaVuSans-6e" x="233.886719"/>
      <use xlink:href="#DejaVuSans-3d" x="297.265625"/>
      <use xlink:href="#DejaVuSans-32" x="381.054688"/>
      <use xlink:href="#DejaVuSans-37" x="444.677734"/>
      <use xlink:href="#DejaVuSans-29" x="508.300781"/>
     </g>
    </g>
    <g id="patch_13">
     <path d="M 301.57875 83.5425 
L 325.57875 83.5425 
L 325.57875 75.1425 
L 301.57875 75.1425 
z
" style="fill: #0ec72a; opacity: 0.65; stroke: #0ec72a; stroke-linejoin: miter"/>
    </g>
    <g id="text_18">
     <!-- female (n=20) -->
     <g transform="translate(335.17875 83.5425) scale(0.12 -0.12)">
      <use xlink:href="#DejaVuSans-66"/>
      <use xlink:href="#DejaVuSans-65" x="35.205078"/>
      <use xlink:href="#DejaVuSans-6d" x="96.728516"/>
      <use xlink:href="#DejaVuSans-61" x="194.140625"/>
      <use xlink:href="#DejaVuSans-6c" x="255.419922"/>
      <use xlink:href="#DejaVuSans-65" x="283.203125"/>
      <use xlink:href="#DejaVuSans-20" x="344.726562"/>
      <use xlink:href="#DejaVuSans-28" x="376.513672"/>
      <use xlink:href="#DejaVuSans-6e" x="415.527344"/>
      <use xlink:href="#DejaVuSans-3d" x="478.90625"/>
      <use xlink:href="#DejaVuSans-32" x="562.695312"/>
      <use xlink:href="#DejaVuSans-30" x="626.318359"/>
      <use xlink:href="#DejaVuSans-29" x="689.941406"/>
     </g>
    </g>
   </g>
  </g>
 </g>
 <defs>
  <clipPath id="p58ad391d7e">
   <rect x="54.015" y="28.396875" width="379.44" height="332.64"/>
  </clipPath>
 </defs>
</svg>
