<?xml version="1.0" encoding="utf-8" standalone="no"?>
<!DOCTYPE svg PUBLIC "-//W3C//DTD SVG 1.1//EN"
  "http://www.w3.org/Graphics/SVG/1.1/DTD/svg11.dtd">
<svg xmlns:xlink="http://www.w3.org/1999/xlink" width="447.470937pt" height="402.464375pt" viewBox="0 0 447.470937 402.464375" xmlns="http://www.w3.org/2000/svg" version="1.1">
 <metadata>
  <rdf:RDF xmlns:dc="http://purl.org/dc/elements/1.1/" xmlns:cc="http://creativecommons.org/ns#" xmlns:rdf="http://www.w3.org/1999/02/22-rdf-syntax-ns#">
   <cc:Work>
    <dc:type rdf:resource="http://purl.org/dc/dcmitype/StillImage"/>
    <dc:date>2025-10-01T20:35:26.485132</dc:date>
    <dc:format>image/svg+xml</dc:format>
    <dc:creator>
     <cc:Agent>
      <dc:title>Matplotlib v3.8.4, https://matplotlib.org/</dc:title>
     </cc:Agent>
    </dc:creator>
   </cc:Work>
  </rdf:RDF>
 </metadata>
 <defs>
  <style type="text/css">*{stroke-linejoin: round; stroke-linecap: butt}</style>
 </defs>
 <g id="figure_1">
  <g id="patch_1">
   <path d="M 0 402.464375 
L 447.470937 402.464375 
L 447.470937 0 
L 0 0 
z
" style="fill: #ffffff"/>
  </g>
  <g id="axes_1">
   <g id="patch_2">
    <path d="M 56.032188 361.036875 
L 435.472188 361.036875 
L 435.472188 28.396875 
L 56.032188 28.396875 
z
" style="fill: #ffffff"/>
   </g>
   <g id="PolyCollection_1">
    <defs>
     <path id="mc7cf37e38c" d="M 121.273227 -56.5475 
L 117.271148 -56.5475 
L 117.158726 -58.162581 
L 117.039379 -59.777662 
L 116.911602 -61.392744 
L 116.773766 -63.007825 
L 116.624156 -64.622906 
L 116.461018 -66.237987 
L 116.282605 -67.853069 
L 116.087234 -69.46815 
L 115.873337 -71.083231 
L 115.639515 -72.698312 
L 115.384588 -74.313393 
L 115.107645 -75.928475 
L 114.808083 -77.543556 
L 114.485642 -79.158637 
L 114.140432 -80.773718 
L 113.772952 -82.3888 
L 113.384093 -84.003881 
L 112.97514 -85.618962 
L 112.54776 -87.234043 
L 112.103976 -88.849125 
L 111.64614 -90.464206 
L 111.176895 -92.079287 
L 110.699124 -93.694368 
L 110.215901 -95.309449 
L 109.730436 -96.924531 
L 109.246012 -98.539612 
L 108.765928 -100.154693 
L 108.293433 -101.769774 
L 107.831677 -103.384856 
L 107.383648 -104.999937 
L 106.952129 -106.615018 
L 106.539652 -108.230099 
L 106.148469 -109.84518 
L 105.780526 -111.460262 
L 105.437446 -113.075343 
L 105.120526 -114.690424 
L 104.830744 -116.305505 
L 104.568772 -117.920587 
L 104.334999 -119.535668 
L 104.129565 -121.150749 
L 103.952396 -122.76583 
L 103.803241 -124.380912 
L 103.681723 -125.995993 
L 103.587376 -127.611074 
L 103.519684 -129.226155 
L 103.478123 -130.841236 
L 103.462188 -132.456318 
L 103.471416 -134.071399 
L 103.505402 -135.68648 
L 103.563804 -137.301561 
L 103.646341 -138.916643 
L 103.752777 -140.531724 
L 103.882904 -142.146805 
L 104.036514 -143.761886 
L 104.213365 -145.376967 
L 104.413146 -146.992049 
L 104.635438 -148.60713 
L 104.879681 -150.222211 
L 105.145135 -151.837292 
L 105.430856 -153.452374 
L 105.73567 -155.067455 
L 106.058163 -156.682536 
L 106.396672 -158.297617 
L 106.749296 -159.912699 
L 107.113908 -161.52778 
L 107.488181 -163.142861 
L 107.869629 -164.757942 
L 108.255645 -166.373023 
L 108.643554 -167.988105 
L 109.030671 -169.603186 
L 109.414358 -171.218267 
L 109.792083 -172.833348 
L 110.161481 -174.44843 
L 110.520407 -176.063511 
L 110.866988 -177.678592 
L 111.19966 -179.293673 
L 111.517204 -180.908754 
L 111.81877 -182.523836 
L 112.103884 -184.138917 
L 112.372452 -185.753998 
L 112.624746 -187.369079 
L 112.861384 -188.984161 
L 113.083296 -190.599242 
L 113.291685 -192.214323 
L 113.487977 -193.829404 
L 113.673769 -195.444485 
L 113.850772 -197.059567 
L 114.020752 -198.674648 
L 114.185473 -200.289729 
L 114.34664 -201.90481 
L 114.505851 -203.519892 
L 114.664549 -205.134973 
L 114.823983 -206.750054 
L 114.985183 -208.365135 
L 115.148932 -209.980217 
L 115.315757 -211.595298 
L 115.485928 -213.210379 
L 115.659458 -214.82546 
L 115.83612 -216.440541 
L 122.708255 -216.440541 
L 122.708255 -216.440541 
L 122.884917 -214.82546 
L 123.058447 -213.210379 
L 123.228618 -211.595298 
L 123.395443 -209.980217 
L 123.559192 -208.365135 
L 123.720392 -206.750054 
L 123.879826 -205.134973 
L 124.038524 -203.519892 
L 124.197735 -201.90481 
L 124.358902 -200.289729 
L 124.523623 -198.674648 
L 124.693603 -197.059567 
L 124.870606 -195.444485 
L 125.056398 -193.829404 
L 125.25269 -192.214323 
L 125.461079 -190.599242 
L 125.682991 -188.984161 
L 125.919629 -187.369079 
L 126.171923 -185.753998 
L 126.440491 -184.138917 
L 126.725605 -182.523836 
L 127.027171 -180.908754 
L 127.344715 -179.293673 
L 127.677387 -177.678592 
L 128.023968 -176.063511 
L 128.382894 -174.44843 
L 128.752292 -172.833348 
L 129.130017 -171.218267 
L 129.513704 -169.603186 
L 129.900821 -167.988105 
L 130.28873 -166.373023 
L 130.674746 -164.757942 
L 131.056194 -163.142861 
L 131.430467 -161.52778 
L 131.795079 -159.912699 
L 132.147703 -158.297617 
L 132.486212 -156.682536 
L 132.808705 -155.067455 
L 133.113519 -153.452374 
L 133.39924 -151.837292 
L 133.664694 -150.222211 
L 133.908937 -148.60713 
L 134.131229 -146.992049 
L 134.33101 -145.376967 
L 134.507861 -143.761886 
L 134.661471 -142.146805 
L 134.791598 -140.531724 
L 134.898034 -138.916643 
L 134.980571 -137.301561 
L 135.038973 -135.68648 
L 135.072959 -134.071399 
L 135.082188 -132.456318 
L 135.066252 -130.841236 
L 135.024691 -129.226155 
L 134.956999 -127.611074 
L 134.862652 -125.995993 
L 134.741134 -124.380912 
L 134.591979 -122.76583 
L 134.41481 -121.150749 
L 134.209376 -119.535668 
L 133.975603 -117.920587 
L 133.713631 -116.305505 
L 133.423849 -114.690424 
L 133.106929 -113.075343 
L 132.763849 -111.460262 
L 132.395906 -109.84518 
L 132.004723 -108.230099 
L 131.592246 -106.615018 
L 131.160727 -104.999937 
L 130.712698 -103.384856 
L 130.250942 -101.769774 
L 129.778447 -100.154693 
L 129.298363 -98.539612 
L 128.813939 -96.924531 
L 128.328474 -95.309449 
L 127.845251 -93.694368 
L 127.36748 -92.079287 
L 126.898235 -90.464206 
L 126.440399 -88.849125 
L 125.996615 -87.234043 
L 125.569235 -85.618962 
L 125.160282 -84.003881 
L 124.771423 -82.3888 
L 124.403943 -80.773718 
L 124.058733 -79.158637 
L 123.736292 -77.543556 
L 123.43673 -75.928475 
L 123.159787 -74.313393 
L 122.90486 -72.698312 
L 122.671038 -71.083231 
L 122.457141 -69.46815 
L 122.26177 -67.853069 
L 122.083357 -66.237987 
L 121.920219 -64.622906 
L 121.770609 -63.007825 
L 121.632773 -61.392744 
L 121.504996 -59.777662 
L 121.385649 -58.162581 
L 121.273227 -56.5475 
z
" style="stroke: #000000; stroke-opacity: 0.65"/>
    </defs>
    <g clip-path="url(#p34ffe49064)">
     <use xlink:href="#mc7cf37e38c" x="0" y="402.464375" style="fill: #425df5; fill-opacity: 0.65; stroke: #000000; stroke-opacity: 0.65"/>
    </g>
   </g>
   <g id="PolyCollection_2">
    <defs>
     <path id="m6518e63da9" d="M 252.419806 -81.052514 
L 239.084569 -81.052514 
L 238.512133 -82.758809 
L 237.922685 -84.465104 
L 237.319776 -86.1714 
L 236.707427 -87.877695 
L 236.090117 -89.583991 
L 235.472737 -91.290286 
L 234.860549 -92.996582 
L 234.259124 -94.702877 
L 233.674267 -96.409173 
L 233.111937 -98.115468 
L 232.578151 -99.821763 
L 232.07888 -101.528059 
L 231.619943 -103.234354 
L 231.206892 -104.94065 
L 230.844903 -106.646945 
L 230.538662 -108.353241 
L 230.292261 -110.059536 
L 230.109103 -111.765832 
L 229.991817 -113.472127 
L 229.942188 -115.178423 
L 229.961101 -116.884718 
L 230.048513 -118.591013 
L 230.203431 -120.297309 
L 230.423924 -122.003604 
L 230.707147 -123.7099 
L 231.049389 -125.416195 
L 231.446141 -127.122491 
L 231.892176 -128.828786 
L 232.381654 -130.535082 
L 232.90823 -132.241377 
L 233.465178 -133.947673 
L 234.045517 -135.653968 
L 234.642147 -137.360263 
L 235.247977 -139.066559 
L 235.856058 -140.772854 
L 236.459702 -142.47915 
L 237.052597 -144.185445 
L 237.62891 -145.891741 
L 238.183376 -147.598036 
L 238.711369 -149.304332 
L 239.208958 -151.010627 
L 239.672951 -152.716923 
L 240.10091 -154.423218 
L 240.491159 -156.129513 
L 240.842772 -157.835809 
L 241.155539 -159.542104 
L 241.42993 -161.2484 
L 241.667037 -162.954695 
L 241.868509 -164.660991 
L 242.03648 -166.367286 
L 242.173487 -168.073582 
L 242.282394 -169.779877 
L 242.366304 -171.486172 
L 242.428481 -173.192468 
L 242.472268 -174.898763 
L 242.50102 -176.605059 
L 242.518029 -178.311354 
L 242.526471 -180.01765 
L 242.529347 -181.723945 
L 242.529446 -183.430241 
L 242.529305 -185.136536 
L 242.531181 -186.842832 
L 242.537035 -188.549127 
L 242.548511 -190.255422 
L 242.566937 -191.961718 
L 242.593322 -193.668013 
L 242.628357 -195.374309 
L 242.672428 -197.080604 
L 242.725627 -198.7869 
L 242.787771 -200.493195 
L 242.858424 -202.199491 
L 242.936918 -203.905786 
L 243.022387 -205.612082 
L 243.113793 -207.318377 
L 243.209963 -209.024672 
L 243.309624 -210.730968 
L 243.411444 -212.437263 
L 243.514068 -214.143559 
L 243.616158 -215.849854 
L 243.716433 -217.55615 
L 243.813706 -219.262445 
L 243.906913 -220.968741 
L 243.995149 -222.675036 
L 244.077687 -224.381332 
L 244.153995 -226.087627 
L 244.22375 -227.793922 
L 244.286841 -229.500218 
L 244.343362 -231.206513 
L 244.393603 -232.912809 
L 244.438028 -234.619104 
L 244.477259 -236.3254 
L 244.512034 -238.031695 
L 244.543187 -239.737991 
L 244.571602 -241.444286 
L 244.598185 -243.150581 
L 244.623823 -244.856877 
L 244.649355 -246.563172 
L 244.675542 -248.269468 
L 244.703039 -249.975763 
L 246.801336 -249.975763 
L 246.801336 -249.975763 
L 246.828833 -248.269468 
L 246.85502 -246.563172 
L 246.880552 -244.856877 
L 246.90619 -243.150581 
L 246.932773 -241.444286 
L 246.961188 -239.737991 
L 246.992341 -238.031695 
L 247.027116 -236.3254 
L 247.066347 -234.619104 
L 247.110772 -232.912809 
L 247.161013 -231.206513 
L 247.217534 -229.500218 
L 247.280625 -227.793922 
L 247.35038 -226.087627 
L 247.426688 -224.381332 
L 247.509226 -222.675036 
L 247.597462 -220.968741 
L 247.690669 -219.262445 
L 247.787942 -217.55615 
L 247.888217 -215.849854 
L 247.990307 -214.143559 
L 248.092931 -212.437263 
L 248.194751 -210.730968 
L 248.294412 -209.024672 
L 248.390582 -207.318377 
L 248.481988 -205.612082 
L 248.567457 -203.905786 
L 248.645951 -202.199491 
L 248.716604 -200.493195 
L 248.778748 -198.7869 
L 248.831947 -197.080604 
L 248.876018 -195.374309 
L 248.911053 -193.668013 
L 248.937438 -191.961718 
L 248.955864 -190.255422 
L 248.96734 -188.549127 
L 248.973194 -186.842832 
L 248.97507 -185.136536 
L 248.974929 -183.430241 
L 248.975028 -181.723945 
L 248.977904 -180.01765 
L 248.986346 -178.311354 
L 249.003355 -176.605059 
L 249.032107 -174.898763 
L 249.075894 -173.192468 
L 249.138071 -171.486172 
L 249.221981 -169.779877 
L 249.330888 -168.073582 
L 249.467895 -166.367286 
L 249.635866 -164.660991 
L 249.837338 -162.954695 
L 250.074445 -161.2484 
L 250.348836 -159.542104 
L 250.661603 -157.835809 
L 251.013216 -156.129513 
L 251.403465 -154.423218 
L 251.831424 -152.716923 
L 252.295417 -151.010627 
L 252.793006 -149.304332 
L 253.320999 -147.598036 
L 253.875465 -145.891741 
L 254.451778 -144.185445 
L 255.044673 -142.47915 
L 255.648317 -140.772854 
L 256.256398 -139.066559 
L 256.862228 -137.360263 
L 257.458858 -135.653968 
L 258.039197 -133.947673 
L 258.596145 -132.241377 
L 259.122721 -130.535082 
L 259.612199 -128.828786 
L 260.058234 -127.122491 
L 260.454986 -125.416195 
L 260.797228 -123.7099 
L 261.080451 -122.003604 
L 261.300944 -120.297309 
L 261.455862 -118.591013 
L 261.543274 -116.884718 
L 261.562188 -115.178423 
L 261.512558 -113.472127 
L 261.395272 -111.765832 
L 261.212114 -110.059536 
L 260.965713 -108.353241 
L 260.659472 -106.646945 
L 260.297483 -104.94065 
L 259.884432 -103.234354 
L 259.425495 -101.528059 
L 258.926224 -99.821763 
L 258.392438 -98.115468 
L 257.830108 -96.409173 
L 257.245251 -94.702877 
L 256.643826 -92.996582 
L 256.031638 -91.290286 
L 255.414258 -89.583991 
L 254.796948 -87.877695 
L 254.184599 -86.1714 
L 253.58169 -84.465104 
L 252.992242 -82.758809 
L 252.419806 -81.052514 
z
" style="stroke: #000000; stroke-opacity: 0.65"/>
    </defs>
    <g clip-path="url(#p34ffe49064)">
     <use xlink:href="#m6518e63da9" x="0" y="402.464375" style="fill: #f55442; fill-opacity: 0.65; stroke: #000000; stroke-opacity: 0.65"/>
    </g>
   </g>
   <g id="PolyCollection_3">
    <defs>
     <path id="m3547fa02ac" d="M 379.721731 -70.599194 
L 364.742644 -70.599194 
L 364.226558 -73.511803 
L 363.703847 -76.424413 
L 363.177424 -79.337022 
L 362.650361 -82.249631 
L 362.125852 -85.16224 
L 361.607176 -88.074849 
L 361.097648 -90.987458 
L 360.600584 -93.900068 
L 360.119247 -96.812677 
L 359.656806 -99.725286 
L 359.216296 -102.637895 
L 358.800572 -105.550504 
L 358.412277 -108.463113 
L 358.05381 -111.375722 
L 357.727299 -114.288332 
L 357.434582 -117.200941 
L 357.177195 -120.11355 
L 356.956361 -123.026159 
L 356.772997 -125.938768 
L 356.627714 -128.851377 
L 356.520832 -131.763986 
L 356.452394 -134.676596 
L 356.422188 -137.589205 
L 356.429768 -140.501814 
L 356.474479 -143.414423 
L 356.555484 -146.327032 
L 356.671782 -149.239641 
L 356.822236 -152.15225 
L 357.005592 -155.06486 
L 357.220495 -157.977469 
L 357.465503 -160.890078 
L 357.739099 -163.802687 
L 358.039697 -166.715296 
L 358.365649 -169.627905 
L 358.715242 -172.540515 
L 359.086702 -175.453124 
L 359.478192 -178.365733 
L 359.887807 -181.278342 
L 360.313577 -184.190951 
L 360.753463 -187.10356 
L 361.205361 -190.016169 
L 361.667104 -192.928779 
L 362.136466 -195.841388 
L 362.611176 -198.753997 
L 363.088926 -201.666606 
L 363.567387 -204.579215 
L 364.044223 -207.491824 
L 364.517117 -210.404433 
L 364.983783 -213.317043 
L 365.441995 -216.229652 
L 365.889607 -219.142261 
L 366.324572 -222.05487 
L 366.744966 -224.967479 
L 367.149009 -227.880088 
L 367.53508 -230.792697 
L 367.901731 -233.705307 
L 368.247706 -236.617916 
L 368.571946 -239.530525 
L 368.873596 -242.443134 
L 369.152011 -245.355743 
L 369.406758 -248.268352 
L 369.637612 -251.180962 
L 369.844551 -254.093571 
L 370.027754 -257.00618 
L 370.187589 -259.918789 
L 370.324605 -262.831398 
L 370.439518 -265.744007 
L 370.533201 -268.656616 
L 370.606668 -271.569226 
L 370.661062 -274.481835 
L 370.697637 -277.394444 
L 370.717748 -280.307053 
L 370.722831 -283.219662 
L 370.714387 -286.132271 
L 370.69397 -289.04488 
L 370.663172 -291.95749 
L 370.623601 -294.870099 
L 370.576874 -297.782708 
L 370.524596 -300.695317 
L 370.468348 -303.607926 
L 370.409673 -306.520535 
L 370.35006 -309.433144 
L 370.290931 -312.345754 
L 370.233634 -315.258363 
L 370.179422 -318.170972 
L 370.12945 -321.083581 
L 370.084762 -323.99619 
L 370.046283 -326.908799 
L 370.014815 -329.821409 
L 369.991026 -332.734018 
L 369.975452 -335.646627 
L 369.968489 -338.559236 
L 369.970398 -341.471845 
L 369.981304 -344.384454 
L 370.001198 -347.297063 
L 370.029941 -350.209673 
L 370.067275 -353.122282 
L 370.112827 -356.034891 
L 370.166118 -358.9475 
L 374.298257 -358.9475 
L 374.298257 -358.9475 
L 374.351548 -356.034891 
L 374.3971 -353.122282 
L 374.434434 -350.209673 
L 374.463177 -347.297063 
L 374.483071 -344.384454 
L 374.493977 -341.471845 
L 374.495886 -338.559236 
L 374.488923 -335.646627 
L 374.473349 -332.734018 
L 374.44956 -329.821409 
L 374.418092 -326.908799 
L 374.379613 -323.99619 
L 374.334925 -321.083581 
L 374.284953 -318.170972 
L 374.230741 -315.258363 
L 374.173444 -312.345754 
L 374.114315 -309.433144 
L 374.054702 -306.520535 
L 373.996027 -303.607926 
L 373.939779 -300.695317 
L 373.887501 -297.782708 
L 373.840774 -294.870099 
L 373.801203 -291.95749 
L 373.770405 -289.04488 
L 373.749988 -286.132271 
L 373.741544 -283.219662 
L 373.746627 -280.307053 
L 373.766738 -277.394444 
L 373.803313 -274.481835 
L 373.857707 -271.569226 
L 373.931174 -268.656616 
L 374.024857 -265.744007 
L 374.13977 -262.831398 
L 374.276786 -259.918789 
L 374.436621 -257.00618 
L 374.619824 -254.093571 
L 374.826763 -251.180962 
L 375.057617 -248.268352 
L 375.312364 -245.355743 
L 375.590779 -242.443134 
L 375.892429 -239.530525 
L 376.216669 -236.617916 
L 376.562644 -233.705307 
L 376.929295 -230.792697 
L 377.315366 -227.880088 
L 377.719409 -224.967479 
L 378.139803 -222.05487 
L 378.574768 -219.142261 
L 379.02238 -216.229652 
L 379.480592 -213.317043 
L 379.947258 -210.404433 
L 380.420152 -207.491824 
L 380.896988 -204.579215 
L 381.375449 -201.666606 
L 381.853199 -198.753997 
L 382.327909 -195.841388 
L 382.797271 -192.928779 
L 383.259014 -190.016169 
L 383.710912 -187.10356 
L 384.150798 -184.190951 
L 384.576568 -181.278342 
L 384.986183 -178.365733 
L 385.377673 -175.453124 
L 385.749133 -172.540515 
L 386.098726 -169.627905 
L 386.424678 -166.715296 
L 386.725276 -163.802687 
L 386.998872 -160.890078 
L 387.24388 -157.977469 
L 387.458783 -155.06486 
L 387.642139 -152.15225 
L 387.792593 -149.239641 
L 387.908891 -146.327032 
L 387.989896 -143.414423 
L 388.034607 -140.501814 
L 388.042188 -137.589205 
L 388.011981 -134.676596 
L 387.943543 -131.763986 
L 387.836661 -128.851377 
L 387.691378 -125.938768 
L 387.508014 -123.026159 
L 387.28718 -120.11355 
L 387.029793 -117.200941 
L 386.737076 -114.288332 
L 386.410565 -111.375722 
L 386.052098 -108.463113 
L 385.663803 -105.550504 
L 385.248079 -102.637895 
L 384.807569 -99.725286 
L 384.345128 -96.812677 
L 383.863791 -93.900068 
L 383.366727 -90.987458 
L 382.857199 -88.074849 
L 382.338523 -85.16224 
L 381.814014 -82.249631 
L 381.286951 -79.337022 
L 380.760528 -76.424413 
L 380.237817 -73.511803 
L 379.721731 -70.599194 
z
" style="stroke: #000000; stroke-opacity: 0.65"/>
    </defs>
    <g clip-path="url(#p34ffe49064)">
     <use xlink:href="#m3547fa02ac" x="0" y="402.464375" style="fill: #0ec72a; fill-opacity: 0.65; stroke: #000000; stroke-opacity: 0.65"/>
    </g>
   </g>
   <g id="matplotlib.axis_1">
    <g id="xtick_1">
     <g id="line2d_1">
      <defs>
       <path id="m82458a0dec" d="M 0 0 
L 0 3.5 
" style="stroke: #000000; stroke-width: 0.8"/>
      </defs>
      <g>
       <use xlink:href="#m82458a0dec" x="119.272188" y="361.036875" style="stroke: #000000; stroke-width: 0.8"/>
      </g>
     </g>
     <g id="text_1">
      <!-- cask -->
      <g transform="translate(107.958906 375.635312) scale(0.1 -0.1)">
       <defs>
        <path id="DejaVuSans-63" d="M 3122 3366 
L 3122 2828 
Q 2878 2963 2633 3030 
Q 2388 3097 2138 3097 
Q 1578 3097 1268 2742 
Q 959 2388 959 1747 
Q 959 1106 1268 751 
Q 1578 397 2138 397 
Q 2388 397 2633 464 
Q 2878 531 3122 666 
L 3122 134 
Q 2881 22 2623 -34 
Q 2366 -91 2075 -91 
Q 1284 -91 818 406 
Q 353 903 353 1747 
Q 353 2603 823 3093 
Q 1294 3584 2113 3584 
Q 2378 3584 2631 3529 
Q 2884 3475 3122 3366 
z
" transform="scale(0.015625)"/>
        <path id="DejaVuSans-61" d="M 2194 1759 
Q 1497 1759 1228 1600 
Q 959 1441 959 1056 
Q 959 750 1161 570 
Q 1363 391 1709 391 
Q 2188 391 2477 730 
Q 2766 1069 2766 1631 
L 2766 1759 
L 2194 1759 
z
M 3341 1997 
L 3341 0 
L 2766 0 
L 2766 531 
Q 2569 213 2275 61 
Q 1981 -91 1556 -91 
Q 1019 -91 701 211 
Q 384 513 384 1019 
Q 384 1609 779 1909 
Q 1175 2209 1959 2209 
L 2766 2209 
L 2766 2266 
Q 2766 2663 2505 2880 
Q 2244 3097 1772 3097 
Q 1472 3097 1187 3025 
Q 903 2953 641 2809 
L 641 3341 
Q 956 3463 1253 3523 
Q 1550 3584 1831 3584 
Q 2591 3584 2966 3190 
Q 3341 2797 3341 1997 
z
" transform="scale(0.015625)"/>
        <path id="DejaVuSans-73" d="M 2834 3397 
L 2834 2853 
Q 2591 2978 2328 3040 
Q 2066 3103 1784 3103 
Q 1356 3103 1142 2972 
Q 928 2841 928 2578 
Q 928 2378 1081 2264 
Q 1234 2150 1697 2047 
L 1894 2003 
Q 2506 1872 2764 1633 
Q 3022 1394 3022 966 
Q 3022 478 2636 193 
Q 2250 -91 1575 -91 
Q 1294 -91 989 -36 
Q 684 19 347 128 
L 347 722 
Q 666 556 975 473 
Q 1284 391 1588 391 
Q 1994 391 2212 530 
Q 2431 669 2431 922 
Q 2431 1156 2273 1281 
Q 2116 1406 1581 1522 
L 1381 1569 
Q 847 1681 609 1914 
Q 372 2147 372 2553 
Q 372 3047 722 3315 
Q 1072 3584 1716 3584 
Q 2034 3584 2315 3537 
Q 2597 3491 2834 3397 
z
" transform="scale(0.015625)"/>
        <path id="DejaVuSans-6b" d="M 581 4863 
L 1159 4863 
L 1159 1991 
L 2875 3500 
L 3609 3500 
L 1753 1863 
L 3688 0 
L 2938 0 
L 1159 1709 
L 1159 0 
L 581 0 
L 581 4863 
z
" transform="scale(0.015625)"/>
       </defs>
       <use xlink:href="#DejaVuSans-63"/>
       <use xlink:href="#DejaVuSans-61" x="54.980469"/>
       <use xlink:href="#DejaVuSans-73" x="116.259766"/>
       <use xlink:href="#DejaVuSans-6b" x="168.359375"/>
      </g>
     </g>
    </g>
    <g id="xtick_2">
     <g id="line2d_2">
      <g>
       <use xlink:href="#m82458a0dec" x="245.752188" y="361.036875" style="stroke: #000000; stroke-width: 0.8"/>
      </g>
     </g>
     <g id="text_2">
      <!-- ctrl -->
      <g transform="translate(237.598281 375.635312) scale(0.1 -0.1)">
       <defs>
        <path id="DejaVuSans-74" d="M 1172 4494 
L 1172 3500 
L 2356 3500 
L 2356 3053 
L 1172 3053 
L 1172 1153 
Q 1172 725 1289 603 
Q 1406 481 1766 481 
L 2356 481 
L 2356 0 
L 1766 0 
Q 1100 0 847 248 
Q 594 497 594 1153 
L 594 3053 
L 172 3053 
L 172 3500 
L 594 3500 
L 594 4494 
L 1172 4494 
z
" transform="scale(0.015625)"/>
        <path id="DejaVuSans-72" d="M 2631 2963 
Q 2534 3019 2420 3045 
Q 2306 3072 2169 3072 
Q 1681 3072 1420 2755 
Q 1159 2438 1159 1844 
L 1159 0 
L 581 0 
L 581 3500 
L 1159 3500 
L 1159 2956 
Q 1341 3275 1631 3429 
Q 1922 3584 2338 3584 
Q 2397 3584 2469 3576 
Q 2541 3569 2628 3553 
L 2631 2963 
z
" transform="scale(0.015625)"/>
        <path id="DejaVuSans-6c" d="M 603 4863 
L 1178 4863 
L 1178 0 
L 603 0 
L 603 4863 
z
" transform="scale(0.015625)"/>
       </defs>
       <use xlink:href="#DejaVuSans-63"/>
       <use xlink:href="#DejaVuSans-74" x="54.980469"/>
       <use xlink:href="#DejaVuSans-72" x="94.189453"/>
       <use xlink:href="#DejaVuSans-6c" x="135.302734"/>
      </g>
     </g>
    </g>
    <g id="xtick_3">
     <g id="line2d_3">
      <g>
       <use xlink:href="#m82458a0dec" x="372.232188" y="361.036875" style="stroke: #000000; stroke-width: 0.8"/>
      </g>
     </g>
     <g id="text_3">
      <!-- female -->
      <g transform="translate(354.995469 375.635312) scale(0.1 -0.1)">
       <defs>
        <path id="DejaVuSans-66" d="M 2375 4863 
L 2375 4384 
L 1825 4384 
Q 1516 4384 1395 4259 
Q 1275 4134 1275 3809 
L 1275 3500 
L 2222 3500 
L 2222 3053 
L 1275 3053 
L 1275 0 
L 697 0 
L 697 3053 
L 147 3053 
L 147 3500 
L 697 3500 
L 697 3744 
Q 697 4328 969 4595 
Q 1241 4863 1831 4863 
L 2375 4863 
z
" transform="scale(0.015625)"/>
        <path id="DejaVuSans-65" d="M 3597 1894 
L 3597 1613 
L 953 1613 
Q 991 1019 1311 708 
Q 1631 397 2203 397 
Q 2534 397 2845 478 
Q 3156 559 3463 722 
L 3463 178 
Q 3153 47 2828 -22 
Q 2503 -91 2169 -91 
Q 1331 -91 842 396 
Q 353 884 353 1716 
Q 353 2575 817 3079 
Q 1281 3584 2069 3584 
Q 2775 3584 3186 3129 
Q 3597 2675 3597 1894 
z
M 3022 2063 
Q 3016 2534 2758 2815 
Q 2500 3097 2075 3097 
Q 1594 3097 1305 2825 
Q 1016 2553 972 2059 
L 3022 2063 
z
" transform="scale(0.015625)"/>
        <path id="DejaVuSans-6d" d="M 3328 2828 
Q 3544 3216 3844 3400 
Q 4144 3584 4550 3584 
Q 5097 3584 5394 3201 
Q 5691 2819 5691 2113 
L 5691 0 
L 5113 0 
L 5113 2094 
Q 5113 2597 4934 2840 
Q 4756 3084 4391 3084 
Q 3944 3084 3684 2787 
Q 3425 2491 3425 1978 
L 3425 0 
L 2847 0 
L 2847 2094 
Q 2847 2600 2669 2842 
Q 2491 3084 2119 3084 
Q 1678 3084 1418 2786 
Q 1159 2488 1159 1978 
L 1159 0 
L 581 0 
L 581 3500 
L 1159 3500 
L 1159 2956 
Q 1356 3278 1631 3431 
Q 1906 3584 2284 3584 
Q 2666 3584 2933 3390 
Q 3200 3197 3328 2828 
z
" transform="scale(0.015625)"/>
       </defs>
       <use xlink:href="#DejaVuSans-66"/>
       <use xlink:href="#DejaVuSans-65" x="35.205078"/>
       <use xlink:href="#DejaVuSans-6d" x="96.728516"/>
       <use xlink:href="#DejaVuSans-61" x="194.140625"/>
       <use xlink:href="#DejaVuSans-6c" x="255.419922"/>
       <use xlink:href="#DejaVuSans-65" x="283.203125"/>
      </g>
     </g>
    </g>
    <g id="text_4">
     <!-- Groups -->
     <g transform="translate(220.798281 392.352812) scale(0.14 -0.14)">
      <defs>
       <path id="DejaVuSans-47" d="M 3809 666 
L 3809 1919 
L 2778 1919 
L 2778 2438 
L 4434 2438 
L 4434 434 
Q 4069 175 3628 42 
Q 3188 -91 2688 -91 
Q 1594 -91 976 548 
Q 359 1188 359 2328 
Q 359 3472 976 4111 
Q 1594 4750 2688 4750 
Q 3144 4750 3555 4637 
Q 3966 4525 4313 4306 
L 4313 3634 
Q 3963 3931 3569 4081 
Q 3175 4231 2741 4231 
Q 1884 4231 1454 3753 
Q 1025 3275 1025 2328 
Q 1025 1384 1454 906 
Q 1884 428 2741 428 
Q 3075 428 3337 486 
Q 3600 544 3809 666 
z
" transform="scale(0.015625)"/>
       <path id="DejaVuSans-6f" d="M 1959 3097 
Q 1497 3097 1228 2736 
Q 959 2375 959 1747 
Q 959 1119 1226 758 
Q 1494 397 1959 397 
Q 2419 397 2687 759 
Q 2956 1122 2956 1747 
Q 2956 2369 2687 2733 
Q 2419 3097 1959 3097 
z
M 1959 3584 
Q 2709 3584 3137 3096 
Q 3566 2609 3566 1747 
Q 3566 888 3137 398 
Q 2709 -91 1959 -91 
Q 1206 -91 779 398 
Q 353 888 353 1747 
Q 353 2609 779 3096 
Q 1206 3584 1959 3584 
z
" transform="scale(0.015625)"/>
       <path id="DejaVuSans-75" d="M 544 1381 
L 544 3500 
L 1119 3500 
L 1119 1403 
Q 1119 906 1312 657 
Q 1506 409 1894 409 
Q 2359 409 2629 706 
Q 2900 1003 2900 1516 
L 2900 3500 
L 3475 3500 
L 3475 0 
L 2900 0 
L 2900 538 
Q 2691 219 2414 64 
Q 2138 -91 1772 -91 
Q 1169 -91 856 284 
Q 544 659 544 1381 
z
M 1991 3584 
L 1991 3584 
z
" transform="scale(0.015625)"/>
       <path id="DejaVuSans-70" d="M 1159 525 
L 1159 -1331 
L 581 -1331 
L 581 3500 
L 1159 3500 
L 1159 2969 
Q 1341 3281 1617 3432 
Q 1894 3584 2278 3584 
Q 2916 3584 3314 3078 
Q 3713 2572 3713 1747 
Q 3713 922 3314 415 
Q 2916 -91 2278 -91 
Q 1894 -91 1617 61 
Q 1341 213 1159 525 
z
M 3116 1747 
Q 3116 2381 2855 2742 
Q 2594 3103 2138 3103 
Q 1681 3103 1420 2742 
Q 1159 2381 1159 1747 
Q 1159 1113 1420 752 
Q 1681 391 2138 391 
Q 2594 391 2855 752 
Q 3116 1113 3116 1747 
z
" transform="scale(0.015625)"/>
      </defs>
      <use xlink:href="#DejaVuSans-47"/>
      <use xlink:href="#DejaVuSans-72" x="77.490234"/>
      <use xlink:href="#DejaVuSans-6f" x="116.353516"/>
      <use xlink:href="#DejaVuSans-75" x="177.535156"/>
      <use xlink:href="#DejaVuSans-70" x="240.914062"/>
      <use xlink:href="#DejaVuSans-73" x="304.390625"/>
     </g>
    </g>
   </g>
   <g id="matplotlib.axis_2">
    <g id="ytick_1">
     <g id="line2d_4">
      <path d="M 56.032188 350.127057 
L 435.472188 350.127057 
" clip-path="url(#p34ffe49064)" style="fill: none; stroke-dasharray: 2.96,1.28; stroke-dashoffset: 0; stroke: #b0b0b0; stroke-opacity: 0.3; stroke-width: 0.8"/>
     </g>
     <g id="line2d_5">
      <defs>
       <path id="mb8d87da5c9" d="M 0 0 
L -3.5 0 
" style="stroke: #000000; stroke-width: 0.8"/>
      </defs>
      <g>
       <use xlink:href="#mb8d87da5c9" x="56.032188" y="350.127057" style="stroke: #000000; stroke-width: 0.8"/>
      </g>
     </g>
     <g id="text_5">
      <!-- −2.5 -->
      <g transform="translate(24.749375 353.926275) scale(0.1 -0.1)">
       <defs>
        <path id="DejaVuSans-2212" d="M 678 2272 
L 4684 2272 
L 4684 1741 
L 678 1741 
L 678 2272 
z
" transform="scale(0.015625)"/>
        <path id="DejaVuSans-32" d="M 1228 531 
L 3431 531 
L 3431 0 
L 469 0 
L 469 531 
Q 828 903 1448 1529 
Q 2069 2156 2228 2338 
Q 2531 2678 2651 2914 
Q 2772 3150 2772 3378 
Q 2772 3750 2511 3984 
Q 2250 4219 1831 4219 
Q 1534 4219 1204 4116 
Q 875 4013 500 3803 
L 500 4441 
Q 881 4594 1212 4672 
Q 1544 4750 1819 4750 
Q 2544 4750 2975 4387 
Q 3406 4025 3406 3419 
Q 3406 3131 3298 2873 
Q 3191 2616 2906 2266 
Q 2828 2175 2409 1742 
Q 1991 1309 1228 531 
z
" transform="scale(0.015625)"/>
        <path id="DejaVuSans-2e" d="M 684 794 
L 1344 794 
L 1344 0 
L 684 0 
L 684 794 
z
" transform="scale(0.015625)"/>
        <path id="DejaVuSans-35" d="M 691 4666 
L 3169 4666 
L 3169 4134 
L 1269 4134 
L 1269 2991 
Q 1406 3038 1543 3061 
Q 1681 3084 1819 3084 
Q 2600 3084 3056 2656 
Q 3513 2228 3513 1497 
Q 3513 744 3044 326 
Q 2575 -91 1722 -91 
Q 1428 -91 1123 -41 
Q 819 9 494 109 
L 494 744 
Q 775 591 1075 516 
Q 1375 441 1709 441 
Q 2250 441 2565 725 
Q 2881 1009 2881 1497 
Q 2881 1984 2565 2268 
Q 2250 2553 1709 2553 
Q 1456 2553 1204 2497 
Q 953 2441 691 2322 
L 691 4666 
z
" transform="scale(0.015625)"/>
       </defs>
       <use xlink:href="#DejaVuSans-2212"/>
       <use xlink:href="#DejaVuSans-32" x="83.789062"/>
       <use xlink:href="#DejaVuSans-2e" x="147.412109"/>
       <use xlink:href="#DejaVuSans-35" x="179.199219"/>
      </g>
     </g>
    </g>
    <g id="ytick_2">
     <g id="line2d_6">
      <path d="M 56.032188 304.165495 
L 435.472188 304.165495 
" clip-path="url(#p34ffe49064)" style="fill: none; stroke-dasharray: 2.96,1.28; stroke-dashoffset: 0; stroke: #b0b0b0; stroke-opacity: 0.3; stroke-width: 0.8"/>
     </g>
     <g id="line2d_7">
      <g>
       <use xlink:href="#mb8d87da5c9" x="56.032188" y="304.165495" style="stroke: #000000; stroke-width: 0.8"/>
      </g>
     </g>
     <g id="text_6">
      <!-- 0.0 -->
      <g transform="translate(33.129063 307.964714) scale(0.1 -0.1)">
       <defs>
        <path id="DejaVuSans-30" d="M 2034 4250 
Q 1547 4250 1301 3770 
Q 1056 3291 1056 2328 
Q 1056 1369 1301 889 
Q 1547 409 2034 409 
Q 2525 409 2770 889 
Q 3016 1369 3016 2328 
Q 3016 3291 2770 3770 
Q 2525 4250 2034 4250 
z
M 2034 4750 
Q 2819 4750 3233 4129 
Q 3647 3509 3647 2328 
Q 3647 1150 3233 529 
Q 2819 -91 2034 -91 
Q 1250 -91 836 529 
Q 422 1150 422 2328 
Q 422 3509 836 4129 
Q 1250 4750 2034 4750 
z
" transform="scale(0.015625)"/>
       </defs>
       <use xlink:href="#DejaVuSans-30"/>
       <use xlink:href="#DejaVuSans-2e" x="63.623047"/>
       <use xlink:href="#DejaVuSans-30" x="95.410156"/>
      </g>
     </g>
    </g>
    <g id="ytick_3">
     <g id="line2d_8">
      <path d="M 56.032188 258.203933 
L 435.472188 258.203933 
" clip-path="url(#p34ffe49064)" style="fill: none; stroke-dasharray: 2.96,1.28; stroke-dashoffset: 0; stroke: #b0b0b0; stroke-opacity: 0.3; stroke-width: 0.8"/>
     </g>
     <g id="line2d_9">
      <g>
       <use xlink:href="#mb8d87da5c9" x="56.032188" y="258.203933" style="stroke: #000000; stroke-width: 0.8"/>
      </g>
     </g>
     <g id="text_7">
      <!-- 2.5 -->
      <g transform="translate(33.129063 262.003152) scale(0.1 -0.1)">
       <use xlink:href="#DejaVuSans-32"/>
       <use xlink:href="#DejaVuSans-2e" x="63.623047"/>
       <use xlink:href="#DejaVuSans-35" x="95.410156"/>
      </g>
     </g>
    </g>
    <g id="ytick_4">
     <g id="line2d_10">
      <path d="M 56.032188 212.242371 
L 435.472188 212.242371 
" clip-path="url(#p34ffe49064)" style="fill: none; stroke-dasharray: 2.96,1.28; stroke-dashoffset: 0; stroke: #b0b0b0; stroke-opacity: 0.3; stroke-width: 0.8"/>
     </g>
     <g id="line2d_11">
      <g>
       <use xlink:href="#mb8d87da5c9" x="56.032188" y="212.242371" style="stroke: #000000; stroke-width: 0.8"/>
      </g>
     </g>
     <g id="text_8">
      <!-- 5.0 -->
      <g transform="translate(33.129063 216.04159) scale(0.1 -0.1)">
       <use xlink:href="#DejaVuSans-35"/>
       <use xlink:href="#DejaVuSans-2e" x="63.623047"/>
       <use xlink:href="#DejaVuSans-30" x="95.410156"/>
      </g>
     </g>
    </g>
    <g id="ytick_5">
     <g id="line2d_12">
      <path d="M 56.032188 166.280809 
L 435.472188 166.280809 
" clip-path="url(#p34ffe49064)" style="fill: none; stroke-dasharray: 2.96,1.28; stroke-dashoffset: 0; stroke: #b0b0b0; stroke-opacity: 0.3; stroke-width: 0.8"/>
     </g>
     <g id="line2d_13">
      <g>
       <use xlink:href="#mb8d87da5c9" x="56.032188" y="166.280809" style="stroke: #000000; stroke-width: 0.8"/>
      </g>
     </g>
     <g id="text_9">
      <!-- 7.5 -->
      <g transform="translate(33.129063 170.080028) scale(0.1 -0.1)">
       <defs>
        <path id="DejaVuSans-37" d="M 525 4666 
L 3525 4666 
L 3525 4397 
L 1831 0 
L 1172 0 
L 2766 4134 
L 525 4134 
L 525 4666 
z
" transform="scale(0.015625)"/>
       </defs>
       <use xlink:href="#DejaVuSans-37"/>
       <use xlink:href="#DejaVuSans-2e" x="63.623047"/>
       <use xlink:href="#DejaVuSans-35" x="95.410156"/>
      </g>
     </g>
    </g>
    <g id="ytick_6">
     <g id="line2d_14">
      <path d="M 56.032188 120.319247 
L 435.472188 120.319247 
" clip-path="url(#p34ffe49064)" style="fill: none; stroke-dasharray: 2.96,1.28; stroke-dashoffset: 0; stroke: #b0b0b0; stroke-opacity: 0.3; stroke-width: 0.8"/>
     </g>
     <g id="line2d_15">
      <g>
       <use xlink:href="#mb8d87da5c9" x="56.032188" y="120.319247" style="stroke: #000000; stroke-width: 0.8"/>
      </g>
     </g>
     <g id="text_10">
      <!-- 10.0 -->
      <g transform="translate(26.766563 124.118466) scale(0.1 -0.1)">
       <defs>
        <path id="DejaVuSans-31" d="M 794 531 
L 1825 531 
L 1825 4091 
L 703 3866 
L 703 4441 
L 1819 4666 
L 2450 4666 
L 2450 531 
L 3481 531 
L 3481 0 
L 794 0 
L 794 531 
z
" transform="scale(0.015625)"/>
       </defs>
       <use xlink:href="#DejaVuSans-31"/>
       <use xlink:href="#DejaVuSans-30" x="63.623047"/>
       <use xlink:href="#DejaVuSans-2e" x="127.246094"/>
       <use xlink:href="#DejaVuSans-30" x="159.033203"/>
      </g>
     </g>
    </g>
    <g id="ytick_7">
     <g id="line2d_16">
      <path d="M 56.032188 74.357685 
L 435.472188 74.357685 
" clip-path="url(#p34ffe49064)" style="fill: none; stroke-dasharray: 2.96,1.28; stroke-dashoffset: 0; stroke: #b0b0b0; stroke-opacity: 0.3; stroke-width: 0.8"/>
     </g>
     <g id="line2d_17">
      <g>
       <use xlink:href="#mb8d87da5c9" x="56.032188" y="74.357685" style="stroke: #000000; stroke-width: 0.8"/>
      </g>
     </g>
     <g id="text_11">
      <!-- 12.5 -->
      <g transform="translate(26.766563 78.156904) scale(0.1 -0.1)">
       <use xlink:href="#DejaVuSans-31"/>
       <use xlink:href="#DejaVuSans-32" x="63.623047"/>
       <use xlink:href="#DejaVuSans-2e" x="127.246094"/>
       <use xlink:href="#DejaVuSans-35" x="159.033203"/>
      </g>
     </g>
    </g>
    <g id="text_12">
     <!-- Retrieval Time (projection) (minutes) -->
     <g transform="translate(17.837813 323.839531) rotate(-90) scale(0.14 -0.14)">
      <defs>
       <path id="DejaVuSans-52" d="M 2841 2188 
Q 3044 2119 3236 1894 
Q 3428 1669 3622 1275 
L 4263 0 
L 3584 0 
L 2988 1197 
Q 2756 1666 2539 1819 
Q 2322 1972 1947 1972 
L 1259 1972 
L 1259 0 
L 628 0 
L 628 4666 
L 2053 4666 
Q 2853 4666 3247 4331 
Q 3641 3997 3641 3322 
Q 3641 2881 3436 2590 
Q 3231 2300 2841 2188 
z
M 1259 4147 
L 1259 2491 
L 2053 2491 
Q 2509 2491 2742 2702 
Q 2975 2913 2975 3322 
Q 2975 3731 2742 3939 
Q 2509 4147 2053 4147 
L 1259 4147 
z
" transform="scale(0.015625)"/>
       <path id="DejaVuSans-69" d="M 603 3500 
L 1178 3500 
L 1178 0 
L 603 0 
L 603 3500 
z
M 603 4863 
L 1178 4863 
L 1178 4134 
L 603 4134 
L 603 4863 
z
" transform="scale(0.015625)"/>
       <path id="DejaVuSans-76" d="M 191 3500 
L 800 3500 
L 1894 563 
L 2988 3500 
L 3597 3500 
L 2284 0 
L 1503 0 
L 191 3500 
z
" transform="scale(0.015625)"/>
       <path id="DejaVuSans-20" transform="scale(0.015625)"/>
       <path id="DejaVuSans-54" d="M -19 4666 
L 3928 4666 
L 3928 4134 
L 2272 4134 
L 2272 0 
L 1638 0 
L 1638 4134 
L -19 4134 
L -19 4666 
z
" transform="scale(0.015625)"/>
       <path id="DejaVuSans-28" d="M 1984 4856 
Q 1566 4138 1362 3434 
Q 1159 2731 1159 2009 
Q 1159 1288 1364 580 
Q 1569 -128 1984 -844 
L 1484 -844 
Q 1016 -109 783 600 
Q 550 1309 550 2009 
Q 550 2706 781 3412 
Q 1013 4119 1484 4856 
L 1984 4856 
z
" transform="scale(0.015625)"/>
       <path id="DejaVuSans-6a" d="M 603 3500 
L 1178 3500 
L 1178 -63 
Q 1178 -731 923 -1031 
Q 669 -1331 103 -1331 
L -116 -1331 
L -116 -844 
L 38 -844 
Q 366 -844 484 -692 
Q 603 -541 603 -63 
L 603 3500 
z
M 603 4863 
L 1178 4863 
L 1178 4134 
L 603 4134 
L 603 4863 
z
" transform="scale(0.015625)"/>
       <path id="DejaVuSans-6e" d="M 3513 2113 
L 3513 0 
L 2938 0 
L 2938 2094 
Q 2938 2591 2744 2837 
Q 2550 3084 2163 3084 
Q 1697 3084 1428 2787 
Q 1159 2491 1159 1978 
L 1159 0 
L 581 0 
L 581 3500 
L 1159 3500 
L 1159 2956 
Q 1366 3272 1645 3428 
Q 1925 3584 2291 3584 
Q 2894 3584 3203 3211 
Q 3513 2838 3513 2113 
z
" transform="scale(0.015625)"/>
       <path id="DejaVuSans-29" d="M 513 4856 
L 1013 4856 
Q 1481 4119 1714 3412 
Q 1947 2706 1947 2009 
Q 1947 1309 1714 600 
Q 1481 -109 1013 -844 
L 513 -844 
Q 928 -128 1133 580 
Q 1338 1288 1338 2009 
Q 1338 2731 1133 3434 
Q 928 4138 513 4856 
z
" transform="scale(0.015625)"/>
      </defs>
      <use xlink:href="#DejaVuSans-52"/>
      <use xlink:href="#DejaVuSans-65" x="64.982422"/>
      <use xlink:href="#DejaVuSans-74" x="126.505859"/>
      <use xlink:href="#DejaVuSans-72" x="165.714844"/>
      <use xlink:href="#DejaVuSans-69" x="206.828125"/>
      <use xlink:href="#DejaVuSans-65" x="234.611328"/>
      <use xlink:href="#DejaVuSans-76" x="296.134766"/>
      <use xlink:href="#DejaVuSans-61" x="355.314453"/>
      <use xlink:href="#DejaVuSans-6c" x="416.59375"/>
      <use xlink:href="#DejaVuSans-20" x="444.376953"/>
      <use xlink:href="#DejaVuSans-54" x="476.164062"/>
      <use xlink:href="#DejaVuSans-69" x="534.123047"/>
      <use xlink:href="#DejaVuSans-6d" x="561.90625"/>
      <use xlink:href="#DejaVuSans-65" x="659.318359"/>
      <use xlink:href="#DejaVuSans-20" x="720.841797"/>
      <use xlink:href="#DejaVuSans-28" x="752.628906"/>
      <use xlink:href="#DejaVuSans-70" x="791.642578"/>
      <use xlink:href="#DejaVuSans-72" x="855.119141"/>
      <use xlink:href="#DejaVuSans-6f" x="893.982422"/>
      <use xlink:href="#DejaVuSans-6a" x="955.164062"/>
      <use xlink:href="#DejaVuSans-65" x="982.947266"/>
      <use xlink:href="#DejaVuSans-63" x="1044.470703"/>
      <use xlink:href="#DejaVuSans-74" x="1099.451172"/>
      <use xlink:href="#DejaVuSans-69" x="1138.660156"/>
      <use xlink:href="#DejaVuSans-6f" x="1166.443359"/>
      <use xlink:href="#DejaVuSans-6e" x="1227.625"/>
      <use xlink:href="#DejaVuSans-29" x="1291.003906"/>
      <use xlink:href="#DejaVuSans-20" x="1330.017578"/>
      <use xlink:href="#DejaVuSans-28" x="1361.804688"/>
      <use xlink:href="#DejaVuSans-6d" x="1400.818359"/>
      <use xlink:href="#DejaVuSans-69" x="1498.230469"/>
      <use xlink:href="#DejaVuSans-6e" x="1526.013672"/>
      <use xlink:href="#DejaVuSans-75" x="1589.392578"/>
      <use xlink:href="#DejaVuSans-74" x="1652.771484"/>
      <use xlink:href="#DejaVuSans-65" x="1691.980469"/>
      <use xlink:href="#DejaVuSans-73" x="1753.503906"/>
      <use xlink:href="#DejaVuSans-29" x="1805.603516"/>
     </g>
    </g>
   </g>
   <g id="patch_3">
    <path d="M 109.786188 286.246614 
L 128.758188 286.246614 
L 128.758188 243.49211 
L 109.786188 243.49211 
L 109.786188 286.246614 
z
" clip-path="url(#p34ffe49064)" style="fill: #ffffff; stroke: #000000; stroke-linejoin: miter"/>
   </g>
   <g id="line2d_18">
    <path d="M 119.272188 286.246614 
L 119.272188 345.916875 
" clip-path="url(#p34ffe49064)" style="fill: none; stroke: #000000; stroke-linecap: square"/>
   </g>
   <g id="line2d_19">
    <path d="M 119.272188 243.49211 
L 119.272188 186.023834 
" clip-path="url(#p34ffe49064)" style="fill: none; stroke: #000000; stroke-linecap: square"/>
   </g>
   <g id="line2d_20">
    <path d="M 114.529188 345.916875 
L 124.015188 345.916875 
" clip-path="url(#p34ffe49064)" style="fill: none; stroke: #000000; stroke-linecap: square"/>
   </g>
   <g id="line2d_21">
    <path d="M 114.529188 186.023834 
L 124.015188 186.023834 
" clip-path="url(#p34ffe49064)" style="fill: none; stroke: #000000; stroke-linecap: square"/>
   </g>
   <g id="patch_4">
    <path d="M 236.266188 294.829322 
L 255.238188 294.829322 
L 255.238188 266.440985 
L 236.266188 266.440985 
L 236.266188 294.829322 
z
" clip-path="url(#p34ffe49064)" style="fill: #ffffff; stroke: #000000; stroke-linejoin: miter"/>
   </g>
   <g id="line2d_22">
    <path d="M 245.752188 294.829322 
L 245.752188 321.411861 
" clip-path="url(#p34ffe49064)" style="fill: none; stroke: #000000; stroke-linecap: square"/>
   </g>
   <g id="line2d_23">
    <path d="M 245.752188 266.440985 
L 245.752188 224.793454 
" clip-path="url(#p34ffe49064)" style="fill: none; stroke: #000000; stroke-linecap: square"/>
   </g>
   <g id="line2d_24">
    <path d="M 241.009188 321.411861 
L 250.495188 321.411861 
" clip-path="url(#p34ffe49064)" style="fill: none; stroke: #000000; stroke-linecap: square"/>
   </g>
   <g id="line2d_25">
    <path d="M 241.009188 224.793454 
L 250.495188 224.793454 
" clip-path="url(#p34ffe49064)" style="fill: none; stroke: #000000; stroke-linecap: square"/>
   </g>
   <g id="patch_5">
    <path d="M 362.746188 282.650466 
L 381.718188 282.650466 
L 381.718188 224.66191 
L 362.746188 224.66191 
L 362.746188 282.650466 
z
" clip-path="url(#p34ffe49064)" style="fill: #ffffff; stroke: #000000; stroke-linejoin: miter"/>
   </g>
   <g id="line2d_26">
    <path d="M 372.232188 282.650466 
L 372.232188 331.865181 
" clip-path="url(#p34ffe49064)" style="fill: none; stroke: #000000; stroke-linecap: square"/>
   </g>
   <g id="line2d_27">
    <path d="M 372.232188 224.66191 
L 372.232188 190.818874 
" clip-path="url(#p34ffe49064)" style="fill: none; stroke: #000000; stroke-linecap: square"/>
   </g>
   <g id="line2d_28">
    <path d="M 367.489188 331.865181 
L 376.975188 331.865181 
" clip-path="url(#p34ffe49064)" style="fill: none; stroke: #000000; stroke-linecap: square"/>
   </g>
   <g id="line2d_29">
    <path d="M 367.489188 190.818874 
L 376.975188 190.818874 
" clip-path="url(#p34ffe49064)" style="fill: none; stroke: #000000; stroke-linecap: square"/>
   </g>
   <g id="line2d_30">
    <path d="M 109.786188 266.04045 
L 128.758188 266.04045 
" clip-path="url(#p34ffe49064)" style="fill: none; stroke: #000000"/>
   </g>
   <g id="line2d_31">
    <path d="M 236.266188 279.498121 
L 255.238188 279.498121 
" clip-path="url(#p34ffe49064)" style="fill: none; stroke: #000000"/>
   </g>
   <g id="line2d_32">
    <path d="M 362.746188 257.435127 
L 381.718188 257.435127 
" clip-path="url(#p34ffe49064)" style="fill: none; stroke: #000000"/>
   </g>
   <g id="patch_6">
    <path d="M 56.032188 361.036875 
L 56.032188 28.396875 
" style="fill: none; stroke: #000000; stroke-width: 0.8; stroke-linejoin: miter; stroke-linecap: square"/>
   </g>
   <g id="patch_7">
    <path d="M 435.472188 361.036875 
L 435.472188 28.396875 
" style="fill: none; stroke: #000000; stroke-width: 0.8; stroke-linejoin: miter; stroke-linecap: square"/>
   </g>
   <g id="patch_8">
    <path d="M 56.032188 361.036875 
L 435.472188 361.036875 
" style="fill: none; stroke: #000000; stroke-width: 0.8; stroke-linejoin: miter; stroke-linecap: square"/>
   </g>
   <g id="patch_9">
    <path d="M 56.032188 28.396875 
L 435.472188 28.396875 
" style="fill: none; stroke: #000000; stroke-width: 0.8; stroke-linejoin: miter; stroke-linecap: square"/>
   </g>
   <g id="PathCollection_1">
    <defs>
     <path id="maa8ceae64f" d="M 0 3 
C 0.795609 3 1.55874 2.683901 2.12132 2.12132 
C 2.683901 1.55874 3 0.795609 3 0 
C 3 -0.795609 2.683901 -1.55874 2.12132 -2.12132 
C 1.55874 -2.683901 0.795609 -3 0 -3 
C -0.795609 -3 -1.55874 -2.683901 -2.12132 -2.12132 
C -2.683901 -1.55874 -3 -0.795609 -3 0 
C -3 0.795609 -2.683901 1.55874 -2.12132 2.12132 
C -1.55874 2.683901 -0.795609 3 0 3 
z
" style="stroke: #000000; stroke-opacity: 0.85; stroke-width: 0.4"/>
    </defs>
    <g clip-path="url(#p34ffe49064)">
     <use xlink:href="#maa8ceae64f" x="122.916696" y="268.343516" style="fill: #425df5; fill-opacity: 0.85; stroke: #000000; stroke-opacity: 0.85; stroke-width: 0.4"/>
     <use xlink:href="#maa8ceae64f" x="116.413986" y="297.676123" style="fill: #425df5; fill-opacity: 0.85; stroke: #000000; stroke-opacity: 0.85; stroke-width: 0.4"/>
     <use xlink:href="#maa8ceae64f" x="116.997283" y="285.804176" style="fill: #425df5; fill-opacity: 0.85; stroke: #000000; stroke-opacity: 0.85; stroke-width: 0.4"/>
     <use xlink:href="#maa8ceae64f" x="124.385602" y="278.156689" style="fill: #425df5; fill-opacity: 0.85; stroke: #000000; stroke-opacity: 0.85; stroke-width: 0.4"/>
     <use xlink:href="#maa8ceae64f" x="121.158797" y="242.614636" style="fill: #425df5; fill-opacity: 0.85; stroke: #000000; stroke-opacity: 0.85; stroke-width: 0.4"/>
     <use xlink:href="#maa8ceae64f" x="116.057491" y="263.737383" style="fill: #425df5; fill-opacity: 0.85; stroke: #000000; stroke-opacity: 0.85; stroke-width: 0.4"/>
     <use xlink:href="#maa8ceae64f" x="123.860745" y="259.920419" style="fill: #425df5; fill-opacity: 0.85; stroke: #000000; stroke-opacity: 0.85; stroke-width: 0.4"/>
     <use xlink:href="#maa8ceae64f" x="124.038399" y="198.211693" style="fill: #425df5; fill-opacity: 0.85; stroke: #000000; stroke-opacity: 0.85; stroke-width: 0.4"/>
     <use xlink:href="#maa8ceae64f" x="121.356216" y="256.405581" style="fill: #425df5; fill-opacity: 0.85; stroke: #000000; stroke-opacity: 0.85; stroke-width: 0.4"/>
     <use xlink:href="#maa8ceae64f" x="123.06108" y="186.023834" style="fill: #425df5; fill-opacity: 0.85; stroke: #000000; stroke-opacity: 0.85; stroke-width: 0.4"/>
     <use xlink:href="#maa8ceae64f" x="115.391598" y="285.555859" style="fill: #425df5; fill-opacity: 0.85; stroke: #000000; stroke-opacity: 0.85; stroke-width: 0.4"/>
     <use xlink:href="#maa8ceae64f" x="116.454279" y="208.511563" style="fill: #425df5; fill-opacity: 0.85; stroke: #000000; stroke-opacity: 0.85; stroke-width: 0.4"/>
     <use xlink:href="#maa8ceae64f" x="122.908968" y="226.571495" style="fill: #425df5; fill-opacity: 0.85; stroke: #000000; stroke-opacity: 0.85; stroke-width: 0.4"/>
     <use xlink:href="#maa8ceae64f" x="114.430572" y="303.73055" style="fill: #425df5; fill-opacity: 0.85; stroke: #000000; stroke-opacity: 0.85; stroke-width: 0.4"/>
     <use xlink:href="#maa8ceae64f" x="122.27887" y="268.430321" style="fill: #425df5; fill-opacity: 0.85; stroke: #000000; stroke-opacity: 0.85; stroke-width: 0.4"/>
     <use xlink:href="#maa8ceae64f" x="116.771849" y="313.756514" style="fill: #425df5; fill-opacity: 0.85; stroke: #000000; stroke-opacity: 0.85; stroke-width: 0.4"/>
     <use xlink:href="#maa8ceae64f" x="119.460371" y="248.133249" style="fill: #425df5; fill-opacity: 0.85; stroke: #000000; stroke-opacity: 0.85; stroke-width: 0.4"/>
     <use xlink:href="#maa8ceae64f" x="114.377168" y="233.283934" style="fill: #425df5; fill-opacity: 0.85; stroke: #000000; stroke-opacity: 0.85; stroke-width: 0.4"/>
     <use xlink:href="#maa8ceae64f" x="124.403443" y="295.673606" style="fill: #425df5; fill-opacity: 0.85; stroke: #000000; stroke-opacity: 0.85; stroke-width: 0.4"/>
     <use xlink:href="#maa8ceae64f" x="119.251423" y="287.573927" style="fill: #425df5; fill-opacity: 0.85; stroke: #000000; stroke-opacity: 0.85; stroke-width: 0.4"/>
     <use xlink:href="#maa8ceae64f" x="116.757263" y="280.440058" style="fill: #425df5; fill-opacity: 0.85; stroke: #000000; stroke-opacity: 0.85; stroke-width: 0.4"/>
     <use xlink:href="#maa8ceae64f" x="120.845038" y="345.916875" style="fill: #425df5; fill-opacity: 0.85; stroke: #000000; stroke-opacity: 0.85; stroke-width: 0.4"/>
     <use xlink:href="#maa8ceae64f" x="114.918179" y="243.784602" style="fill: #425df5; fill-opacity: 0.85; stroke: #000000; stroke-opacity: 0.85; stroke-width: 0.4"/>
     <use xlink:href="#maa8ceae64f" x="115.338901" y="249.442704" style="fill: #425df5; fill-opacity: 0.85; stroke: #000000; stroke-opacity: 0.85; stroke-width: 0.4"/>
    </g>
   </g>
   <g id="PathCollection_2">
    <defs>
     <path id="mcfadbe0dc6" d="M 0 3 
C 0.795609 3 1.55874 2.683901 2.12132 2.12132 
C 2.683901 1.55874 3 0.795609 3 0 
C 3 -0.795609 2.683901 -1.55874 2.12132 -2.12132 
C 1.55874 -2.683901 0.795609 -3 0 -3 
C -0.795609 -3 -1.55874 -2.683901 -2.12132 -2.12132 
C -2.683901 -1.55874 -3 -0.795609 -3 0 
C -3 0.795609 -2.683901 1.55874 -2.12132 2.12132 
C -1.55874 2.683901 -0.795609 3 0 3 
z
" style="stroke: #000000; stroke-opacity: 0.85; stroke-width: 0.4"/>
    </defs>
    <g clip-path="url(#p34ffe49064)">
     <use xlink:href="#mcfadbe0dc6" x="240.616218" y="196.030364" style="fill: #f55442; fill-opacity: 0.85; stroke: #000000; stroke-opacity: 0.85; stroke-width: 0.4"/>
     <use xlink:href="#mcfadbe0dc6" x="250.175729" y="201.729668" style="fill: #f55442; fill-opacity: 0.85; stroke: #000000; stroke-opacity: 0.85; stroke-width: 0.4"/>
     <use xlink:href="#mcfadbe0dc6" x="241.314475" y="286.255995" style="fill: #f55442; fill-opacity: 0.85; stroke: #000000; stroke-opacity: 0.85; stroke-width: 0.4"/>
     <use xlink:href="#mcfadbe0dc6" x="244.070755" y="311.358915" style="fill: #f55442; fill-opacity: 0.85; stroke: #000000; stroke-opacity: 0.85; stroke-width: 0.4"/>
     <use xlink:href="#mcfadbe0dc6" x="245.708534" y="298.411608" style="fill: #f55442; fill-opacity: 0.85; stroke: #000000; stroke-opacity: 0.85; stroke-width: 0.4"/>
     <use xlink:href="#mcfadbe0dc6" x="247.398724" y="292.42385" style="fill: #f55442; fill-opacity: 0.85; stroke: #000000; stroke-opacity: 0.85; stroke-width: 0.4"/>
     <use xlink:href="#mcfadbe0dc6" x="243.62663" y="260.554606" style="fill: #f55442; fill-opacity: 0.85; stroke: #000000; stroke-opacity: 0.85; stroke-width: 0.4"/>
     <use xlink:href="#mcfadbe0dc6" x="247.203151" y="152.488612" style="fill: #f55442; fill-opacity: 0.85; stroke: #000000; stroke-opacity: 0.85; stroke-width: 0.4"/>
     <use xlink:href="#mcfadbe0dc6" x="247.832518" y="218.972571" style="fill: #f55442; fill-opacity: 0.85; stroke: #000000; stroke-opacity: 0.85; stroke-width: 0.4"/>
     <use xlink:href="#mcfadbe0dc6" x="249.89528" y="321.411861" style="fill: #f55442; fill-opacity: 0.85; stroke: #000000; stroke-opacity: 0.85; stroke-width: 0.4"/>
     <use xlink:href="#mcfadbe0dc6" x="246.845264" y="277.751759" style="fill: #f55442; fill-opacity: 0.85; stroke: #000000; stroke-opacity: 0.85; stroke-width: 0.4"/>
     <use xlink:href="#mcfadbe0dc6" x="248.662495" y="266.430693" style="fill: #f55442; fill-opacity: 0.85; stroke: #000000; stroke-opacity: 0.85; stroke-width: 0.4"/>
     <use xlink:href="#mcfadbe0dc6" x="240.980018" y="274.719524" style="fill: #f55442; fill-opacity: 0.85; stroke: #000000; stroke-opacity: 0.85; stroke-width: 0.4"/>
     <use xlink:href="#mcfadbe0dc6" x="249.948815" y="224.793454" style="fill: #f55442; fill-opacity: 0.85; stroke: #000000; stroke-opacity: 0.85; stroke-width: 0.4"/>
     <use xlink:href="#mcfadbe0dc6" x="245.159629" y="266.451278" style="fill: #f55442; fill-opacity: 0.85; stroke: #000000; stroke-opacity: 0.85; stroke-width: 0.4"/>
     <use xlink:href="#mcfadbe0dc6" x="250.250745" y="311.487284" style="fill: #f55442; fill-opacity: 0.85; stroke: #000000; stroke-opacity: 0.85; stroke-width: 0.4"/>
     <use xlink:href="#mcfadbe0dc6" x="247.867043" y="293.876344" style="fill: #f55442; fill-opacity: 0.85; stroke: #000000; stroke-opacity: 0.85; stroke-width: 0.4"/>
     <use xlink:href="#mcfadbe0dc6" x="240.777853" y="301.669856" style="fill: #f55442; fill-opacity: 0.85; stroke: #000000; stroke-opacity: 0.85; stroke-width: 0.4"/>
     <use xlink:href="#mcfadbe0dc6" x="250.875331" y="295.7823" style="fill: #f55442; fill-opacity: 0.85; stroke: #000000; stroke-opacity: 0.85; stroke-width: 0.4"/>
     <use xlink:href="#mcfadbe0dc6" x="249.665625" y="279.498121" style="fill: #f55442; fill-opacity: 0.85; stroke: #000000; stroke-opacity: 0.85; stroke-width: 0.4"/>
     <use xlink:href="#mcfadbe0dc6" x="243.554295" y="278.411914" style="fill: #f55442; fill-opacity: 0.85; stroke: #000000; stroke-opacity: 0.85; stroke-width: 0.4"/>
     <use xlink:href="#mcfadbe0dc6" x="246.791588" y="279.358055" style="fill: #f55442; fill-opacity: 0.85; stroke: #000000; stroke-opacity: 0.85; stroke-width: 0.4"/>
     <use xlink:href="#mcfadbe0dc6" x="246.601637" y="276.511949" style="fill: #f55442; fill-opacity: 0.85; stroke: #000000; stroke-opacity: 0.85; stroke-width: 0.4"/>
     <use xlink:href="#mcfadbe0dc6" x="250.812311" y="285.050625" style="fill: #f55442; fill-opacity: 0.85; stroke: #000000; stroke-opacity: 0.85; stroke-width: 0.4"/>
     <use xlink:href="#mcfadbe0dc6" x="250.719106" y="297.356537" style="fill: #f55442; fill-opacity: 0.85; stroke: #000000; stroke-opacity: 0.85; stroke-width: 0.4"/>
     <use xlink:href="#mcfadbe0dc6" x="242.962501" y="289.278929" style="fill: #f55442; fill-opacity: 0.85; stroke: #000000; stroke-opacity: 0.85; stroke-width: 0.4"/>
     <use xlink:href="#mcfadbe0dc6" x="250.368513" y="291.139502" style="fill: #f55442; fill-opacity: 0.85; stroke: #000000; stroke-opacity: 0.85; stroke-width: 0.4"/>
    </g>
   </g>
   <g id="PathCollection_3">
    <defs>
     <path id="m0444c146c9" d="M 0 3 
C 0.795609 3 1.55874 2.683901 2.12132 2.12132 
C 2.683901 1.55874 3 0.795609 3 0 
C 3 -0.795609 2.683901 -1.55874 2.12132 -2.12132 
C 1.55874 -2.683901 0.795609 -3 0 -3 
C -0.795609 -3 -1.55874 -2.683901 -2.12132 -2.12132 
C -2.683901 -1.55874 -3 -0.795609 -3 0 
C -3 0.795609 -2.683901 1.55874 -2.12132 2.12132 
C -1.55874 2.683901 -0.795609 3 0 3 
z
" style="stroke: #000000; stroke-opacity: 0.85; stroke-width: 0.4"/>
    </defs>
    <g clip-path="url(#p34ffe49064)">
     <use xlink:href="#m0444c146c9" x="372.677056" y="222.330678" style="fill: #0ec72a; fill-opacity: 0.85; stroke: #000000; stroke-opacity: 0.85; stroke-width: 0.4"/>
     <use xlink:href="#m0444c146c9" x="372.547213" y="247.407392" style="fill: #0ec72a; fill-opacity: 0.85; stroke: #000000; stroke-opacity: 0.85; stroke-width: 0.4"/>
     <use xlink:href="#m0444c146c9" x="376.751752" y="275.901177" style="fill: #0ec72a; fill-opacity: 0.85; stroke: #000000; stroke-opacity: 0.85; stroke-width: 0.4"/>
     <use xlink:href="#m0444c146c9" x="371.000735" y="251.585383" style="fill: #0ec72a; fill-opacity: 0.85; stroke: #000000; stroke-opacity: 0.85; stroke-width: 0.4"/>
     <use xlink:href="#m0444c146c9" x="377.330885" y="226.764358" style="fill: #0ec72a; fill-opacity: 0.85; stroke: #000000; stroke-opacity: 0.85; stroke-width: 0.4"/>
     <use xlink:href="#m0444c146c9" x="375.289384" y="296.516374" style="fill: #0ec72a; fill-opacity: 0.85; stroke: #000000; stroke-opacity: 0.85; stroke-width: 0.4"/>
     <use xlink:href="#m0444c146c9" x="372.118775" y="280.138817" style="fill: #0ec72a; fill-opacity: 0.85; stroke: #000000; stroke-opacity: 0.85; stroke-width: 0.4"/>
     <use xlink:href="#m0444c146c9" x="375.145895" y="202.226052" style="fill: #0ec72a; fill-opacity: 0.85; stroke: #000000; stroke-opacity: 0.85; stroke-width: 0.4"/>
     <use xlink:href="#m0444c146c9" x="375.994221" y="263.284871" style="fill: #0ec72a; fill-opacity: 0.85; stroke: #000000; stroke-opacity: 0.85; stroke-width: 0.4"/>
     <use xlink:href="#m0444c146c9" x="367.459488" y="43.516875" style="fill: #0ec72a; fill-opacity: 0.85; stroke: #000000; stroke-opacity: 0.85; stroke-width: 0.4"/>
     <use xlink:href="#m0444c146c9" x="374.259218" y="272.095193" style="fill: #0ec72a; fill-opacity: 0.85; stroke: #000000; stroke-opacity: 0.85; stroke-width: 0.4"/>
     <use xlink:href="#m0444c146c9" x="369.997594" y="190.818874" style="fill: #0ec72a; fill-opacity: 0.85; stroke: #000000; stroke-opacity: 0.85; stroke-width: 0.4"/>
     <use xlink:href="#m0444c146c9" x="369.431091" y="309.39136" style="fill: #0ec72a; fill-opacity: 0.85; stroke: #000000; stroke-opacity: 0.85; stroke-width: 0.4"/>
     <use xlink:href="#m0444c146c9" x="370.539449" y="231.576074" style="fill: #0ec72a; fill-opacity: 0.85; stroke: #000000; stroke-opacity: 0.85; stroke-width: 0.4"/>
     <use xlink:href="#m0444c146c9" x="367.316632" y="225.438987" style="fill: #0ec72a; fill-opacity: 0.85; stroke: #000000; stroke-opacity: 0.85; stroke-width: 0.4"/>
     <use xlink:href="#m0444c146c9" x="376.242135" y="306.893831" style="fill: #0ec72a; fill-opacity: 0.85; stroke: #000000; stroke-opacity: 0.85; stroke-width: 0.4"/>
     <use xlink:href="#m0444c146c9" x="369.313982" y="331.865181" style="fill: #0ec72a; fill-opacity: 0.85; stroke: #000000; stroke-opacity: 0.85; stroke-width: 0.4"/>
     <use xlink:href="#m0444c146c9" x="376.000794" y="282.348075" style="fill: #0ec72a; fill-opacity: 0.85; stroke: #000000; stroke-opacity: 0.85; stroke-width: 0.4"/>
     <use xlink:href="#m0444c146c9" x="370.877392" y="283.557642" style="fill: #0ec72a; fill-opacity: 0.85; stroke: #000000; stroke-opacity: 0.85; stroke-width: 0.4"/>
     <use xlink:href="#m0444c146c9" x="367.471877" y="81.072564" style="fill: #0ec72a; fill-opacity: 0.85; stroke: #000000; stroke-opacity: 0.85; stroke-width: 0.4"/>
    </g>
   </g>
   <g id="text_13">
    <!-- Retrieval Time (projection) Distribution -->
    <g transform="translate(51.233438 22.396875) scale(0.2 -0.2)">
     <defs>
      <path id="DejaVuSans-44" d="M 1259 4147 
L 1259 519 
L 2022 519 
Q 2988 519 3436 956 
Q 3884 1394 3884 2338 
Q 3884 3275 3436 3711 
Q 2988 4147 2022 4147 
L 1259 4147 
z
M 628 4666 
L 1925 4666 
Q 3281 4666 3915 4102 
Q 4550 3538 4550 2338 
Q 4550 1131 3912 565 
Q 3275 0 1925 0 
L 628 0 
L 628 4666 
z
" transform="scale(0.015625)"/>
      <path id="DejaVuSans-62" d="M 3116 1747 
Q 3116 2381 2855 2742 
Q 2594 3103 2138 3103 
Q 1681 3103 1420 2742 
Q 1159 2381 1159 1747 
Q 1159 1113 1420 752 
Q 1681 391 2138 391 
Q 2594 391 2855 752 
Q 3116 1113 3116 1747 
z
M 1159 2969 
Q 1341 3281 1617 3432 
Q 1894 3584 2278 3584 
Q 2916 3584 3314 3078 
Q 3713 2572 3713 1747 
Q 3713 922 3314 415 
Q 2916 -91 2278 -91 
Q 1894 -91 1617 61 
Q 1341 213 1159 525 
L 1159 0 
L 581 0 
L 581 4863 
L 1159 4863 
L 1159 2969 
z
" transform="scale(0.015625)"/>
     </defs>
     <use xlink:href="#DejaVuSans-52"/>
     <use xlink:href="#DejaVuSans-65" x="64.982422"/>
     <use xlink:href="#DejaVuSans-74" x="126.505859"/>
     <use xlink:href="#DejaVuSans-72" x="165.714844"/>
     <use xlink:href="#DejaVuSans-69" x="206.828125"/>
     <use xlink:href="#DejaVuSans-65" x="234.611328"/>
     <use xlink:href="#DejaVuSans-76" x="296.134766"/>
     <use xlink:href="#DejaVuSans-61" x="355.314453"/>
     <use xlink:href="#DejaVuSans-6c" x="416.59375"/>
     <use xlink:href="#DejaVuSans-20" x="444.376953"/>
     <use xlink:href="#DejaVuSans-54" x="476.164062"/>
     <use xlink:href="#DejaVuSans-69" x="534.123047"/>
     <use xlink:href="#DejaVuSans-6d" x="561.90625"/>
     <use xlink:href="#DejaVuSans-65" x="659.318359"/>
     <use xlink:href="#DejaVuSans-20" x="720.841797"/>
     <use xlink:href="#DejaVuSans-28" x="752.628906"/>
     <use xlink:href="#DejaVuSans-70" x="791.642578"/>
     <use xlink:href="#DejaVuSans-72" x="855.119141"/>
     <use xlink:href="#DejaVuSans-6f" x="893.982422"/>
     <use xlink:href="#DejaVuSans-6a" x="955.164062"/>
     <use xlink:href="#DejaVuSans-65" x="982.947266"/>
     <use xlink:href="#DejaVuSans-63" x="1044.470703"/>
     <use xlink:href="#DejaVuSans-74" x="1099.451172"/>
     <use xlink:href="#DejaVuSans-69" x="1138.660156"/>
     <use xlink:href="#DejaVuSans-6f" x="1166.443359"/>
     <use xlink:href="#DejaVuSans-6e" x="1227.625"/>
     <use xlink:href="#DejaVuSans-29" x="1291.003906"/>
     <use xlink:href="#DejaVuSans-20" x="1330.017578"/>
     <use xlink:href="#DejaVuSans-44" x="1361.804688"/>
     <use xlink:href="#DejaVuSans-69" x="1438.806641"/>
     <use xlink:href="#DejaVuSans-73" x="1466.589844"/>
     <use xlink:href="#DejaVuSans-74" x="1518.689453"/>
     <use xlink:href="#DejaVuSans-72" x="1557.898438"/>
     <use xlink:href="#DejaVuSans-69" x="1599.011719"/>
     <use xlink:href="#DejaVuSans-62" x="1626.794922"/>
     <use xlink:href="#DejaVuSans-75" x="1690.271484"/>
     <use xlink:href="#DejaVuSans-74" x="1753.650391"/>
     <use xlink:href="#DejaVuSans-69" x="1792.859375"/>
     <use xlink:href="#DejaVuSans-6f" x="1820.642578"/>
     <use xlink:href="#DejaVuSans-6e" x="1881.824219"/>
    </g>
   </g>
   <g id="legend_1">
    <g id="patch_10">
     <path d="M 64.432188 90.838125 
L 190.308437 90.838125 
Q 192.708438 90.838125 192.708438 88.438125 
L 192.708438 36.796875 
Q 192.708438 34.396875 190.308437 34.396875 
L 64.432188 34.396875 
Q 62.032188 34.396875 62.032188 36.796875 
L 62.032188 88.438125 
Q 62.032188 90.838125 64.432188 90.838125 
z
" style="fill: #ffffff; opacity: 0.8; stroke: #cccccc; stroke-linejoin: miter"/>
    </g>
    <g id="patch_11">
     <path d="M 66.832188 48.315 
L 90.832188 48.315 
L 90.832188 39.915 
L 66.832188 39.915 
z
" style="fill: #425df5; opacity: 0.65; stroke: #425df5; stroke-linejoin: miter"/>
    </g>
    <g id="text_14">
     <!-- cask (n=24) -->
     <g transform="translate(100.432188 48.315) scale(0.12 -0.12)">
      <defs>
       <path id="DejaVuSans-3d" d="M 678 2906 
L 4684 2906 
L 4684 2381 
L 678 2381 
L 678 2906 
z
M 678 1631 
L 4684 1631 
L 4684 1100 
L 678 1100 
L 678 1631 
z
" transform="scale(0.015625)"/>
       <path id="DejaVuSans-34" d="M 2419 4116 
L 825 1625 
L 2419 1625 
L 2419 4116 
z
M 2253 4666 
L 3047 4666 
L 3047 1625 
L 3713 1625 
L 3713 1100 
L 3047 1100 
L 3047 0 
L 2419 0 
L 2419 1100 
L 313 1100 
L 313 1709 
L 2253 4666 
z
" transform="scale(0.015625)"/>
      </defs>
      <use xlink:href="#DejaVuSans-63"/>
      <use xlink:href="#DejaVuSans-61" x="54.980469"/>
      <use xlink:href="#DejaVuSans-73" x="116.259766"/>
      <use xlink:href="#DejaVuSans-6b" x="168.359375"/>
      <use xlink:href="#DejaVuSans-20" x="226.269531"/>
      <use xlink:href="#DejaVuSans-28" x="258.056641"/>
      <use xlink:href="#DejaVuSans-6e" x="297.070312"/>
      <use xlink:href="#DejaVuSans-3d" x="360.449219"/>
      <use xlink:href="#DejaVuSans-32" x="444.238281"/>
      <use xlink:href="#DejaVuSans-34" x="507.861328"/>
      <use xlink:href="#DejaVuSans-29" x="571.484375"/>
     </g>
    </g>
    <g id="patch_12">
     <path d="M 66.832188 65.92875 
L 90.832188 65.92875 
L 90.832188 57.52875 
L 66.832188 57.52875 
z
" style="fill: #f55442; opacity: 0.65; stroke: #f55442; stroke-linejoin: miter"/>
    </g>
    <g id="text_15">
     <!-- ctrl (n=27) -->
     <g transform="translate(100.432188 65.92875) scale(0.12 -0.12)">
      <use xlink:href="#DejaVuSans-63"/>
      <use xlink:href="#DejaVuSans-74" x="54.980469"/>
      <use xlink:href="#DejaVuSans-72" x="94.189453"/>
      <use xlink:href="#DejaVuSans-6c" x="135.302734"/>
      <use xlink:href="#DejaVuSans-20" x="163.085938"/>
      <use xlink:href="#DejaVuSans-28" x="194.873047"/>
      <use xlink:href="#DejaVuSans-6e" x="233.886719"/>
      <use xlink:href="#DejaVuSans-3d" x="297.265625"/>
      <use xlink:href="#DejaVuSans-32" x="381.054688"/>
      <use xlink:href="#DejaVuSans-37" x="444.677734"/>
      <use xlink:href="#DejaVuSans-29" x="508.300781"/>
     </g>
    </g>
    <g id="patch_13">
     <path d="M 66.832188 83.5425 
L 90.832188 83.5425 
L 90.832188 75.1425 
L 66.832188 75.1425 
z
" style="fill: #0ec72a; opacity: 0.65; stroke: #0ec72a; stroke-linejoin: miter"/>
    </g>
    <g id="text_16">
     <!-- female (n=20) -->
     <g transform="translate(100.432188 83.5425) scale(0.12 -0.12)">
      <use xlink:href="#DejaVuSans-66"/>
      <use xlink:href="#DejaVuSans-65" x="35.205078"/>
      <use xlink:href="#DejaVuSans-6d" x="96.728516"/>
      <use xlink:href="#DejaVuSans-61" x="194.140625"/>
      <use xlink:href="#DejaVuSans-6c" x="255.419922"/>
      <use xlink:href="#DejaVuSans-65" x="283.203125"/>
      <use xlink:href="#DejaVuSans-20" x="344.726562"/>
      <use xlink:href="#DejaVuSans-28" x="376.513672"/>
      <use xlink:href="#DejaVuSans-6e" x="415.527344"/>
      <use xlink:href="#DejaVuSans-3d" x="478.90625"/>
      <use xlink:href="#DejaVuSans-32" x="562.695312"/>
      <use xlink:href="#DejaVuSans-30" x="626.318359"/>
      <use xlink:href="#DejaVuSans-29" x="689.941406"/>
     </g>
    </g>
   </g>
  </g>
 </g>
 <defs>
  <clipPath id="p34ffe49064">
   <rect x="56.032188" y="28.396875" width="379.44" height="332.64"/>
  </clipPath>
 </defs>
</svg>
