<?xml version="1.0" encoding="utf-8" standalone="no"?>
<!DOCTYPE svg PUBLIC "-//W3C//DTD SVG 1.1//EN"
  "http://www.w3.org/Graphics/SVG/1.1/DTD/svg11.dtd">
<svg xmlns:xlink="http://www.w3.org/1999/xlink" width="424.751875pt" height="402.464375pt" viewBox="0 0 424.751875 402.464375" xmlns="http://www.w3.org/2000/svg" version="1.1">
 <metadata>
  <rdf:RDF xmlns:dc="http://purl.org/dc/elements/1.1/" xmlns:cc="http://creativecommons.org/ns#" xmlns:rdf="http://www.w3.org/1999/02/22-rdf-syntax-ns#">
   <cc:Work>
    <dc:type rdf:resource="http://purl.org/dc/dcmitype/StillImage"/>
    <dc:date>2025-10-02T16:57:00.045249</dc:date>
    <dc:format>image/svg+xml</dc:format>
    <dc:creator>
     <cc:Agent>
      <dc:title>Matplotlib v3.8.4, https://matplotlib.org/</dc:title>
     </cc:Agent>
    </dc:creator>
   </cc:Work>
  </rdf:RDF>
 </metadata>
 <defs>
  <style type="text/css">*{stroke-linejoin: round; stroke-linecap: butt}</style>
 </defs>
 <g id="figure_1">
  <g id="patch_1">
   <path d="M 0 402.464375 
L 424.751875 402.464375 
L 424.751875 0 
L 0 0 
z
" style="fill: #ffffff"/>
  </g>
  <g id="axes_1">
   <g id="patch_2">
    <path d="M 38.111875 361.036875 
L 417.551875 361.036875 
L 417.551875 28.396875 
L 38.111875 28.396875 
z
" style="fill: #ffffff"/>
   </g>
   <g id="PolyCollection_1">
    <defs>
     <path id="m4c3be3966c" d="M 112.332573 -71.925663 
L 90.371177 -71.925663 
L 89.87768 -73.970216 
L 89.397632 -76.01477 
L 88.934186 -78.059324 
L 88.490416 -80.103877 
L 88.069278 -82.148431 
L 87.673568 -84.192985 
L 87.305885 -86.237538 
L 86.968595 -88.282092 
L 86.663799 -90.326645 
L 86.393303 -92.371199 
L 86.158598 -94.415753 
L 85.960836 -96.460306 
L 85.800823 -98.50486 
L 85.679006 -100.549414 
L 85.595476 -102.593967 
L 85.549969 -104.638521 
L 85.541875 -106.683074 
L 85.570259 -108.727628 
L 85.633876 -110.772182 
L 85.731197 -112.816735 
L 85.86044 -114.861289 
L 86.019602 -116.905843 
L 86.206493 -118.950396 
L 86.418773 -120.99495 
L 86.65399 -123.039503 
L 86.909621 -125.084057 
L 87.183104 -127.128611 
L 87.471881 -129.173164 
L 87.773429 -131.217718 
L 88.085292 -133.262272 
L 88.40511 -135.306825 
L 88.730646 -137.351379 
L 89.059808 -139.395932 
L 89.390663 -141.440486 
L 89.72145 -143.48504 
L 90.050595 -145.529593 
L 90.376708 -147.574147 
L 90.698585 -149.618701 
L 91.01521 -151.663254 
L 91.325738 -153.707808 
L 91.629495 -155.752361 
L 91.925959 -157.796915 
L 92.214744 -159.841469 
L 92.495589 -161.886022 
L 92.768335 -163.930576 
L 93.032911 -165.97513 
L 93.28931 -168.019683 
L 93.537579 -170.064237 
L 93.777794 -172.10879 
L 94.010051 -174.153344 
L 94.234448 -176.197898 
L 94.451076 -178.242451 
L 94.660006 -180.287005 
L 94.861288 -182.331559 
L 95.054938 -184.376112 
L 95.240942 -186.420666 
L 95.419253 -188.465219 
L 95.589793 -190.509773 
L 95.752458 -192.554327 
L 95.907124 -194.59888 
L 96.053652 -196.643434 
L 96.1919 -198.687988 
L 96.321728 -200.732541 
L 96.443011 -202.777095 
L 96.555647 -204.821648 
L 96.659568 -206.866202 
L 96.754747 -208.910756 
L 96.841208 -210.955309 
L 96.919034 -212.999863 
L 96.98837 -215.044417 
L 97.049431 -217.08897 
L 97.102506 -219.133524 
L 97.147956 -221.178077 
L 97.186217 -223.222631 
L 97.217798 -225.267185 
L 97.243277 -227.311738 
L 97.2633 -229.356292 
L 97.278571 -231.400846 
L 97.289846 -233.445399 
L 97.297927 -235.489953 
L 97.30365 -237.534506 
L 97.307876 -239.57906 
L 97.311481 -241.623614 
L 97.315345 -243.668167 
L 97.320338 -245.712721 
L 97.32731 -247.757275 
L 97.337083 -249.801828 
L 97.350432 -251.846382 
L 97.368084 -253.890935 
L 97.3907 -255.935489 
L 97.418869 -257.980043 
L 97.453101 -260.024596 
L 97.49382 -262.06915 
L 97.541357 -264.113704 
L 97.595943 -266.158257 
L 97.657715 -268.202811 
L 97.726704 -270.247364 
L 97.802844 -272.291918 
L 97.885971 -274.336472 
L 104.817779 -274.336472 
L 104.817779 -274.336472 
L 104.900906 -272.291918 
L 104.977046 -270.247364 
L 105.046035 -268.202811 
L 105.107807 -266.158257 
L 105.162393 -264.113704 
L 105.20993 -262.06915 
L 105.250649 -260.024596 
L 105.284881 -257.980043 
L 105.31305 -255.935489 
L 105.335666 -253.890935 
L 105.353318 -251.846382 
L 105.366667 -249.801828 
L 105.37644 -247.757275 
L 105.383412 -245.712721 
L 105.388405 -243.668167 
L 105.392269 -241.623614 
L 105.395874 -239.57906 
L 105.4001 -237.534506 
L 105.405823 -235.489953 
L 105.413904 -233.445399 
L 105.425179 -231.400846 
L 105.44045 -229.356292 
L 105.460473 -227.311738 
L 105.485952 -225.267185 
L 105.517533 -223.222631 
L 105.555794 -221.178077 
L 105.601244 -219.133524 
L 105.654319 -217.08897 
L 105.71538 -215.044417 
L 105.784716 -212.999863 
L 105.862542 -210.955309 
L 105.949003 -208.910756 
L 106.044182 -206.866202 
L 106.148103 -204.821648 
L 106.260739 -202.777095 
L 106.382022 -200.732541 
L 106.51185 -198.687988 
L 106.650098 -196.643434 
L 106.796626 -194.59888 
L 106.951292 -192.554327 
L 107.113957 -190.509773 
L 107.284497 -188.465219 
L 107.462808 -186.420666 
L 107.648812 -184.376112 
L 107.842462 -182.331559 
L 108.043744 -180.287005 
L 108.252674 -178.242451 
L 108.469302 -176.197898 
L 108.693699 -174.153344 
L 108.925956 -172.10879 
L 109.166171 -170.064237 
L 109.41444 -168.019683 
L 109.670839 -165.97513 
L 109.935415 -163.930576 
L 110.208161 -161.886022 
L 110.489006 -159.841469 
L 110.777791 -157.796915 
L 111.074255 -155.752361 
L 111.378012 -153.707808 
L 111.68854 -151.663254 
L 112.005165 -149.618701 
L 112.327042 -147.574147 
L 112.653155 -145.529593 
L 112.9823 -143.48504 
L 113.313087 -141.440486 
L 113.643942 -139.395932 
L 113.973104 -137.351379 
L 114.29864 -135.306825 
L 114.618458 -133.262272 
L 114.930321 -131.217718 
L 115.231869 -129.173164 
L 115.520646 -127.128611 
L 115.794129 -125.084057 
L 116.04976 -123.039503 
L 116.284977 -120.99495 
L 116.497257 -118.950396 
L 116.684148 -116.905843 
L 116.84331 -114.861289 
L 116.972553 -112.816735 
L 117.069874 -110.772182 
L 117.133491 -108.727628 
L 117.161875 -106.683074 
L 117.153781 -104.638521 
L 117.108274 -102.593967 
L 117.024744 -100.549414 
L 116.902927 -98.50486 
L 116.742914 -96.460306 
L 116.545152 -94.415753 
L 116.310447 -92.371199 
L 116.039951 -90.326645 
L 115.735155 -88.282092 
L 115.397865 -86.237538 
L 115.030182 -84.192985 
L 114.634472 -82.148431 
L 114.213334 -80.103877 
L 113.769564 -78.059324 
L 113.306118 -76.01477 
L 112.82607 -73.970216 
L 112.332573 -71.925663 
z
" style="stroke: #000000; stroke-opacity: 0.65"/>
    </defs>
    <g clip-path="url(#p6f480a4949)">
     <use xlink:href="#m4c3be3966c" x="0" y="402.464375" style="fill: #425df5; fill-opacity: 0.65; stroke: #000000; stroke-opacity: 0.65"/>
    </g>
   </g>
   <g id="PolyCollection_2">
    <defs>
     <path id="m05a35d01b6" d="M 236.654578 -56.5475 
L 219.009172 -56.5475 
L 218.559696 -57.775861 
L 218.111228 -59.004222 
L 217.665705 -60.232584 
L 217.225084 -61.460945 
L 216.79133 -62.689306 
L 216.366393 -63.917667 
L 215.952203 -65.146029 
L 215.550643 -66.37439 
L 215.163544 -67.602751 
L 214.792662 -68.831112 
L 214.439675 -70.059473 
L 214.106159 -71.287835 
L 213.793586 -72.516196 
L 213.503309 -73.744557 
L 213.23655 -74.972918 
L 212.994395 -76.201279 
L 212.777785 -77.429641 
L 212.587505 -78.658002 
L 212.42418 -79.886363 
L 212.28827 -81.114724 
L 212.180063 -82.343086 
L 212.09967 -83.571447 
L 212.047024 -84.799808 
L 212.021875 -86.028169 
L 212.023792 -87.25653 
L 212.052159 -88.484892 
L 212.10618 -89.713253 
L 212.184879 -90.941614 
L 212.287109 -92.169975 
L 212.411554 -93.398336 
L 212.556738 -94.626698 
L 212.721042 -95.855059 
L 212.902708 -97.08342 
L 213.099862 -98.311781 
L 213.310526 -99.540143 
L 213.532643 -100.768504 
L 213.764094 -101.996865 
L 214.002722 -103.225226 
L 214.246361 -104.453587 
L 214.492858 -105.681949 
L 214.740099 -106.91031 
L 214.98604 -108.138671 
L 215.228731 -109.367032 
L 215.466341 -110.595393 
L 215.697184 -111.823755 
L 215.919741 -113.052116 
L 216.132679 -114.280477 
L 216.334869 -115.508838 
L 216.525399 -116.7372 
L 216.703584 -117.965561 
L 216.86897 -119.193922 
L 217.021339 -120.422283 
L 217.1607 -121.650644 
L 217.287288 -122.879006 
L 217.401548 -124.107367 
L 217.504119 -125.335728 
L 217.595818 -126.564089 
L 217.677616 -127.79245 
L 217.750612 -129.020812 
L 217.816009 -130.249173 
L 217.875081 -131.477534 
L 217.929152 -132.705895 
L 217.97956 -133.934257 
L 218.027633 -135.162618 
L 218.074666 -136.390979 
L 218.121893 -137.61934 
L 218.170468 -138.847701 
L 218.221448 -140.076063 
L 218.27578 -141.304424 
L 218.334289 -142.532785 
L 218.397673 -143.761146 
L 218.466503 -144.989507 
L 218.541219 -146.217869 
L 218.622142 -147.44623 
L 218.709479 -148.674591 
L 218.803331 -149.902952 
L 218.90371 -151.131314 
L 219.010553 -152.359675 
L 219.123734 -153.588036 
L 219.243082 -154.816397 
L 219.368395 -156.044758 
L 219.499454 -157.27312 
L 219.636036 -158.501481 
L 219.77792 -159.729842 
L 219.924905 -160.958203 
L 220.076805 -162.186564 
L 220.233459 -163.414926 
L 220.394729 -164.643287 
L 220.5605 -165.871648 
L 220.730673 -167.100009 
L 220.905162 -168.328371 
L 221.083886 -169.556732 
L 221.266759 -170.785093 
L 221.453681 -172.013454 
L 221.644531 -173.241815 
L 221.839154 -174.470177 
L 222.037356 -175.698538 
L 222.238894 -176.926899 
L 222.443472 -178.15526 
L 233.220278 -178.15526 
L 233.220278 -178.15526 
L 233.424856 -176.926899 
L 233.626394 -175.698538 
L 233.824596 -174.470177 
L 234.019219 -173.241815 
L 234.210069 -172.013454 
L 234.396991 -170.785093 
L 234.579864 -169.556732 
L 234.758588 -168.328371 
L 234.933077 -167.100009 
L 235.10325 -165.871648 
L 235.269021 -164.643287 
L 235.430291 -163.414926 
L 235.586945 -162.186564 
L 235.738845 -160.958203 
L 235.88583 -159.729842 
L 236.027714 -158.501481 
L 236.164296 -157.27312 
L 236.295355 -156.044758 
L 236.420668 -154.816397 
L 236.540016 -153.588036 
L 236.653197 -152.359675 
L 236.76004 -151.131314 
L 236.860419 -149.902952 
L 236.954271 -148.674591 
L 237.041608 -147.44623 
L 237.122531 -146.217869 
L 237.197247 -144.989507 
L 237.266077 -143.761146 
L 237.329461 -142.532785 
L 237.38797 -141.304424 
L 237.442302 -140.076063 
L 237.493282 -138.847701 
L 237.541857 -137.61934 
L 237.589084 -136.390979 
L 237.636117 -135.162618 
L 237.68419 -133.934257 
L 237.734598 -132.705895 
L 237.788669 -131.477534 
L 237.847741 -130.249173 
L 237.913138 -129.020812 
L 237.986134 -127.79245 
L 238.067932 -126.564089 
L 238.159631 -125.335728 
L 238.262202 -124.107367 
L 238.376462 -122.879006 
L 238.50305 -121.650644 
L 238.642411 -120.422283 
L 238.79478 -119.193922 
L 238.960166 -117.965561 
L 239.138351 -116.7372 
L 239.328881 -115.508838 
L 239.531071 -114.280477 
L 239.744009 -113.052116 
L 239.966566 -111.823755 
L 240.197409 -110.595393 
L 240.435019 -109.367032 
L 240.67771 -108.138671 
L 240.923651 -106.91031 
L 241.170892 -105.681949 
L 241.417389 -104.453587 
L 241.661028 -103.225226 
L 241.899656 -101.996865 
L 242.131107 -100.768504 
L 242.353224 -99.540143 
L 242.563888 -98.311781 
L 242.761042 -97.08342 
L 242.942708 -95.855059 
L 243.107012 -94.626698 
L 243.252196 -93.398336 
L 243.376641 -92.169975 
L 243.478871 -90.941614 
L 243.55757 -89.713253 
L 243.611591 -88.484892 
L 243.639958 -87.25653 
L 243.641875 -86.028169 
L 243.616726 -84.799808 
L 243.56408 -83.571447 
L 243.483687 -82.343086 
L 243.37548 -81.114724 
L 243.23957 -79.886363 
L 243.076245 -78.658002 
L 242.885965 -77.429641 
L 242.669355 -76.201279 
L 242.4272 -74.972918 
L 242.160441 -73.744557 
L 241.870164 -72.516196 
L 241.557591 -71.287835 
L 241.224075 -70.059473 
L 240.871088 -68.831112 
L 240.500206 -67.602751 
L 240.113107 -66.37439 
L 239.711547 -65.146029 
L 239.297357 -63.917667 
L 238.87242 -62.689306 
L 238.438666 -61.460945 
L 237.998045 -60.232584 
L 237.552522 -59.004222 
L 237.104054 -57.775861 
L 236.654578 -56.5475 
z
" style="stroke: #000000; stroke-opacity: 0.65"/>
    </defs>
    <g clip-path="url(#p6f480a4949)">
     <use xlink:href="#m05a35d01b6" x="0" y="402.464375" style="fill: #f55442; fill-opacity: 0.65; stroke: #000000; stroke-opacity: 0.65"/>
    </g>
   </g>
   <g id="PolyCollection_3">
    <defs>
     <path id="m9466c9e960" d="M 364.552066 -98.090007 
L 344.071684 -98.090007 
L 343.6765 -100.724931 
L 343.289564 -103.359855 
L 342.912272 -105.99478 
L 342.545937 -108.629704 
L 342.191779 -111.264628 
L 341.850915 -113.899552 
L 341.524353 -116.534476 
L 341.212982 -119.1694 
L 340.917571 -121.804325 
L 340.638767 -124.439249 
L 340.377088 -127.074173 
L 340.132931 -129.709097 
L 339.906566 -132.344021 
L 339.698145 -134.978945 
L 339.507701 -137.61387 
L 339.335158 -140.248794 
L 339.18033 -142.883718 
L 339.042932 -145.518642 
L 338.922583 -148.153566 
L 338.818815 -150.78849 
L 338.731076 -153.423415 
L 338.658742 -156.058339 
L 338.60112 -158.693263 
L 338.557455 -161.328187 
L 338.526936 -163.963111 
L 338.508709 -166.598035 
L 338.501875 -169.23296 
L 338.505503 -171.867884 
L 338.518637 -174.502808 
L 338.540301 -177.137732 
L 338.569509 -179.772656 
L 338.605272 -182.407581 
L 338.646611 -185.042505 
L 338.692558 -187.677429 
L 338.742175 -190.312353 
L 338.794555 -192.947277 
L 338.84884 -195.582201 
L 338.904223 -198.217126 
L 338.959965 -200.85205 
L 339.015401 -203.486974 
L 339.069949 -206.121898 
L 339.12312 -208.756822 
L 339.174525 -211.391746 
L 339.22388 -214.026671 
L 339.271013 -216.661595 
L 339.315864 -219.296519 
L 339.358492 -221.931443 
L 339.39907 -224.566367 
L 339.437884 -227.201291 
L 339.475331 -229.836216 
L 339.511909 -232.47114 
L 339.548214 -235.106064 
L 339.584923 -237.740988 
L 339.622791 -240.375912 
L 339.662628 -243.010836 
L 339.705294 -245.645761 
L 339.751679 -248.280685 
L 339.802685 -250.915609 
L 339.859216 -253.550533 
L 339.922155 -256.185457 
L 339.992353 -258.820381 
L 340.070613 -261.455306 
L 340.157675 -264.09023 
L 340.254202 -266.725154 
L 340.360772 -269.360078 
L 340.477868 -271.995002 
L 340.605869 -274.629927 
L 340.745047 -277.264851 
L 340.895563 -279.899775 
L 341.057467 -282.534699 
L 341.230698 -285.169623 
L 341.415089 -287.804547 
L 341.610375 -290.439472 
L 341.816194 -293.074396 
L 342.032099 -295.70932 
L 342.257572 -298.344244 
L 342.492026 -300.979168 
L 342.734824 -303.614092 
L 342.985287 -306.249017 
L 343.242706 -308.883941 
L 343.506355 -311.518865 
L 343.775498 -314.153789 
L 344.049404 -316.788713 
L 344.327351 -319.423637 
L 344.608636 -322.058562 
L 344.892581 -324.693486 
L 345.178536 -327.32841 
L 345.465886 -329.963334 
L 345.754049 -332.598258 
L 346.04248 -335.233182 
L 346.330666 -337.868107 
L 346.618129 -340.503031 
L 346.904422 -343.137955 
L 347.189124 -345.772879 
L 347.471838 -348.407803 
L 347.752187 -351.042727 
L 348.029808 -353.677652 
L 348.304353 -356.312576 
L 348.575481 -358.9475 
L 360.048269 -358.9475 
L 360.048269 -358.9475 
L 360.319397 -356.312576 
L 360.593942 -353.677652 
L 360.871563 -351.042727 
L 361.151912 -348.407803 
L 361.434626 -345.772879 
L 361.719328 -343.137955 
L 362.005621 -340.503031 
L 362.293084 -337.868107 
L 362.58127 -335.233182 
L 362.869701 -332.598258 
L 363.157864 -329.963334 
L 363.445214 -327.32841 
L 363.731169 -324.693486 
L 364.015114 -322.058562 
L 364.296399 -319.423637 
L 364.574346 -316.788713 
L 364.848252 -314.153789 
L 365.117395 -311.518865 
L 365.381044 -308.883941 
L 365.638463 -306.249017 
L 365.888926 -303.614092 
L 366.131724 -300.979168 
L 366.366178 -298.344244 
L 366.591651 -295.70932 
L 366.807556 -293.074396 
L 367.013375 -290.439472 
L 367.208661 -287.804547 
L 367.393052 -285.169623 
L 367.566283 -282.534699 
L 367.728187 -279.899775 
L 367.878703 -277.264851 
L 368.017881 -274.629927 
L 368.145882 -271.995002 
L 368.262978 -269.360078 
L 368.369548 -266.725154 
L 368.466075 -264.09023 
L 368.553137 -261.455306 
L 368.631397 -258.820381 
L 368.701595 -256.185457 
L 368.764534 -253.550533 
L 368.821065 -250.915609 
L 368.872071 -248.280685 
L 368.918456 -245.645761 
L 368.961122 -243.010836 
L 369.000959 -240.375912 
L 369.038827 -237.740988 
L 369.075536 -235.106064 
L 369.111841 -232.47114 
L 369.148419 -229.836216 
L 369.185866 -227.201291 
L 369.22468 -224.566367 
L 369.265258 -221.931443 
L 369.307886 -219.296519 
L 369.352737 -216.661595 
L 369.39987 -214.026671 
L 369.449225 -211.391746 
L 369.50063 -208.756822 
L 369.553801 -206.121898 
L 369.608349 -203.486974 
L 369.663785 -200.85205 
L 369.719527 -198.217126 
L 369.77491 -195.582201 
L 369.829195 -192.947277 
L 369.881575 -190.312353 
L 369.931192 -187.677429 
L 369.977139 -185.042505 
L 370.018478 -182.407581 
L 370.054241 -179.772656 
L 370.083449 -177.137732 
L 370.105113 -174.502808 
L 370.118247 -171.867884 
L 370.121875 -169.23296 
L 370.115041 -166.598035 
L 370.096814 -163.963111 
L 370.066295 -161.328187 
L 370.02263 -158.693263 
L 369.965008 -156.058339 
L 369.892674 -153.423415 
L 369.804935 -150.78849 
L 369.701167 -148.153566 
L 369.580818 -145.518642 
L 369.44342 -142.883718 
L 369.288592 -140.248794 
L 369.116049 -137.61387 
L 368.925605 -134.978945 
L 368.717184 -132.344021 
L 368.490819 -129.709097 
L 368.246662 -127.074173 
L 367.984983 -124.439249 
L 367.706179 -121.804325 
L 367.410768 -119.1694 
L 367.099397 -116.534476 
L 366.772835 -113.899552 
L 366.431971 -111.264628 
L 366.077813 -108.629704 
L 365.711478 -105.99478 
L 365.334186 -103.359855 
L 364.94725 -100.724931 
L 364.552066 -98.090007 
z
" style="stroke: #000000; stroke-opacity: 0.65"/>
    </defs>
    <g clip-path="url(#p6f480a4949)">
     <use xlink:href="#m9466c9e960" x="0" y="402.464375" style="fill: #0ec72a; fill-opacity: 0.65; stroke: #000000; stroke-opacity: 0.65"/>
    </g>
   </g>
   <g id="matplotlib.axis_1">
    <g id="xtick_1">
     <g id="line2d_1">
      <defs>
       <path id="ma09dcc43c4" d="M 0 0 
L 0 3.5 
" style="stroke: #000000; stroke-width: 0.8"/>
      </defs>
      <g>
       <use xlink:href="#ma09dcc43c4" x="101.351875" y="361.036875" style="stroke: #000000; stroke-width: 0.8"/>
      </g>
     </g>
     <g id="text_1">
      <!-- cask -->
      <g transform="translate(90.038594 375.635312) scale(0.1 -0.1)">
       <defs>
        <path id="DejaVuSans-63" d="M 3122 3366 
L 3122 2828 
Q 2878 2963 2633 3030 
Q 2388 3097 2138 3097 
Q 1578 3097 1268 2742 
Q 959 2388 959 1747 
Q 959 1106 1268 751 
Q 1578 397 2138 397 
Q 2388 397 2633 464 
Q 2878 531 3122 666 
L 3122 134 
Q 2881 22 2623 -34 
Q 2366 -91 2075 -91 
Q 1284 -91 818 406 
Q 353 903 353 1747 
Q 353 2603 823 3093 
Q 1294 3584 2113 3584 
Q 2378 3584 2631 3529 
Q 2884 3475 3122 3366 
z
" transform="scale(0.015625)"/>
        <path id="DejaVuSans-61" d="M 2194 1759 
Q 1497 1759 1228 1600 
Q 959 1441 959 1056 
Q 959 750 1161 570 
Q 1363 391 1709 391 
Q 2188 391 2477 730 
Q 2766 1069 2766 1631 
L 2766 1759 
L 2194 1759 
z
M 3341 1997 
L 3341 0 
L 2766 0 
L 2766 531 
Q 2569 213 2275 61 
Q 1981 -91 1556 -91 
Q 1019 -91 701 211 
Q 384 513 384 1019 
Q 384 1609 779 1909 
Q 1175 2209 1959 2209 
L 2766 2209 
L 2766 2266 
Q 2766 2663 2505 2880 
Q 2244 3097 1772 3097 
Q 1472 3097 1187 3025 
Q 903 2953 641 2809 
L 641 3341 
Q 956 3463 1253 3523 
Q 1550 3584 1831 3584 
Q 2591 3584 2966 3190 
Q 3341 2797 3341 1997 
z
" transform="scale(0.015625)"/>
        <path id="DejaVuSans-73" d="M 2834 3397 
L 2834 2853 
Q 2591 2978 2328 3040 
Q 2066 3103 1784 3103 
Q 1356 3103 1142 2972 
Q 928 2841 928 2578 
Q 928 2378 1081 2264 
Q 1234 2150 1697 2047 
L 1894 2003 
Q 2506 1872 2764 1633 
Q 3022 1394 3022 966 
Q 3022 478 2636 193 
Q 2250 -91 1575 -91 
Q 1294 -91 989 -36 
Q 684 19 347 128 
L 347 722 
Q 666 556 975 473 
Q 1284 391 1588 391 
Q 1994 391 2212 530 
Q 2431 669 2431 922 
Q 2431 1156 2273 1281 
Q 2116 1406 1581 1522 
L 1381 1569 
Q 847 1681 609 1914 
Q 372 2147 372 2553 
Q 372 3047 722 3315 
Q 1072 3584 1716 3584 
Q 2034 3584 2315 3537 
Q 2597 3491 2834 3397 
z
" transform="scale(0.015625)"/>
        <path id="DejaVuSans-6b" d="M 581 4863 
L 1159 4863 
L 1159 1991 
L 2875 3500 
L 3609 3500 
L 1753 1863 
L 3688 0 
L 2938 0 
L 1159 1709 
L 1159 0 
L 581 0 
L 581 4863 
z
" transform="scale(0.015625)"/>
       </defs>
       <use xlink:href="#DejaVuSans-63"/>
       <use xlink:href="#DejaVuSans-61" x="54.980469"/>
       <use xlink:href="#DejaVuSans-73" x="116.259766"/>
       <use xlink:href="#DejaVuSans-6b" x="168.359375"/>
      </g>
     </g>
    </g>
    <g id="xtick_2">
     <g id="line2d_2">
      <g>
       <use xlink:href="#ma09dcc43c4" x="227.831875" y="361.036875" style="stroke: #000000; stroke-width: 0.8"/>
      </g>
     </g>
     <g id="text_2">
      <!-- ctrl -->
      <g transform="translate(219.677969 375.635312) scale(0.1 -0.1)">
       <defs>
        <path id="DejaVuSans-74" d="M 1172 4494 
L 1172 3500 
L 2356 3500 
L 2356 3053 
L 1172 3053 
L 1172 1153 
Q 1172 725 1289 603 
Q 1406 481 1766 481 
L 2356 481 
L 2356 0 
L 1766 0 
Q 1100 0 847 248 
Q 594 497 594 1153 
L 594 3053 
L 172 3053 
L 172 3500 
L 594 3500 
L 594 4494 
L 1172 4494 
z
" transform="scale(0.015625)"/>
        <path id="DejaVuSans-72" d="M 2631 2963 
Q 2534 3019 2420 3045 
Q 2306 3072 2169 3072 
Q 1681 3072 1420 2755 
Q 1159 2438 1159 1844 
L 1159 0 
L 581 0 
L 581 3500 
L 1159 3500 
L 1159 2956 
Q 1341 3275 1631 3429 
Q 1922 3584 2338 3584 
Q 2397 3584 2469 3576 
Q 2541 3569 2628 3553 
L 2631 2963 
z
" transform="scale(0.015625)"/>
        <path id="DejaVuSans-6c" d="M 603 4863 
L 1178 4863 
L 1178 0 
L 603 0 
L 603 4863 
z
" transform="scale(0.015625)"/>
       </defs>
       <use xlink:href="#DejaVuSans-63"/>
       <use xlink:href="#DejaVuSans-74" x="54.980469"/>
       <use xlink:href="#DejaVuSans-72" x="94.189453"/>
       <use xlink:href="#DejaVuSans-6c" x="135.302734"/>
      </g>
     </g>
    </g>
    <g id="xtick_3">
     <g id="line2d_3">
      <g>
       <use xlink:href="#ma09dcc43c4" x="354.311875" y="361.036875" style="stroke: #000000; stroke-width: 0.8"/>
      </g>
     </g>
     <g id="text_3">
      <!-- female -->
      <g transform="translate(337.075156 375.635312) scale(0.1 -0.1)">
       <defs>
        <path id="DejaVuSans-66" d="M 2375 4863 
L 2375 4384 
L 1825 4384 
Q 1516 4384 1395 4259 
Q 1275 4134 1275 3809 
L 1275 3500 
L 2222 3500 
L 2222 3053 
L 1275 3053 
L 1275 0 
L 697 0 
L 697 3053 
L 147 3053 
L 147 3500 
L 697 3500 
L 697 3744 
Q 697 4328 969 4595 
Q 1241 4863 1831 4863 
L 2375 4863 
z
" transform="scale(0.015625)"/>
        <path id="DejaVuSans-65" d="M 3597 1894 
L 3597 1613 
L 953 1613 
Q 991 1019 1311 708 
Q 1631 397 2203 397 
Q 2534 397 2845 478 
Q 3156 559 3463 722 
L 3463 178 
Q 3153 47 2828 -22 
Q 2503 -91 2169 -91 
Q 1331 -91 842 396 
Q 353 884 353 1716 
Q 353 2575 817 3079 
Q 1281 3584 2069 3584 
Q 2775 3584 3186 3129 
Q 3597 2675 3597 1894 
z
M 3022 2063 
Q 3016 2534 2758 2815 
Q 2500 3097 2075 3097 
Q 1594 3097 1305 2825 
Q 1016 2553 972 2059 
L 3022 2063 
z
" transform="scale(0.015625)"/>
        <path id="DejaVuSans-6d" d="M 3328 2828 
Q 3544 3216 3844 3400 
Q 4144 3584 4550 3584 
Q 5097 3584 5394 3201 
Q 5691 2819 5691 2113 
L 5691 0 
L 5113 0 
L 5113 2094 
Q 5113 2597 4934 2840 
Q 4756 3084 4391 3084 
Q 3944 3084 3684 2787 
Q 3425 2491 3425 1978 
L 3425 0 
L 2847 0 
L 2847 2094 
Q 2847 2600 2669 2842 
Q 2491 3084 2119 3084 
Q 1678 3084 1418 2786 
Q 1159 2488 1159 1978 
L 1159 0 
L 581 0 
L 581 3500 
L 1159 3500 
L 1159 2956 
Q 1356 3278 1631 3431 
Q 1906 3584 2284 3584 
Q 2666 3584 2933 3390 
Q 3200 3197 3328 2828 
z
" transform="scale(0.015625)"/>
       </defs>
       <use xlink:href="#DejaVuSans-66"/>
       <use xlink:href="#DejaVuSans-65" x="35.205078"/>
       <use xlink:href="#DejaVuSans-6d" x="96.728516"/>
       <use xlink:href="#DejaVuSans-61" x="194.140625"/>
       <use xlink:href="#DejaVuSans-6c" x="255.419922"/>
       <use xlink:href="#DejaVuSans-65" x="283.203125"/>
      </g>
     </g>
    </g>
    <g id="text_4">
     <!-- Groups -->
     <g transform="translate(202.877969 392.352812) scale(0.14 -0.14)">
      <defs>
       <path id="DejaVuSans-47" d="M 3809 666 
L 3809 1919 
L 2778 1919 
L 2778 2438 
L 4434 2438 
L 4434 434 
Q 4069 175 3628 42 
Q 3188 -91 2688 -91 
Q 1594 -91 976 548 
Q 359 1188 359 2328 
Q 359 3472 976 4111 
Q 1594 4750 2688 4750 
Q 3144 4750 3555 4637 
Q 3966 4525 4313 4306 
L 4313 3634 
Q 3963 3931 3569 4081 
Q 3175 4231 2741 4231 
Q 1884 4231 1454 3753 
Q 1025 3275 1025 2328 
Q 1025 1384 1454 906 
Q 1884 428 2741 428 
Q 3075 428 3337 486 
Q 3600 544 3809 666 
z
" transform="scale(0.015625)"/>
       <path id="DejaVuSans-6f" d="M 1959 3097 
Q 1497 3097 1228 2736 
Q 959 2375 959 1747 
Q 959 1119 1226 758 
Q 1494 397 1959 397 
Q 2419 397 2687 759 
Q 2956 1122 2956 1747 
Q 2956 2369 2687 2733 
Q 2419 3097 1959 3097 
z
M 1959 3584 
Q 2709 3584 3137 3096 
Q 3566 2609 3566 1747 
Q 3566 888 3137 398 
Q 2709 -91 1959 -91 
Q 1206 -91 779 398 
Q 353 888 353 1747 
Q 353 2609 779 3096 
Q 1206 3584 1959 3584 
z
" transform="scale(0.015625)"/>
       <path id="DejaVuSans-75" d="M 544 1381 
L 544 3500 
L 1119 3500 
L 1119 1403 
Q 1119 906 1312 657 
Q 1506 409 1894 409 
Q 2359 409 2629 706 
Q 2900 1003 2900 1516 
L 2900 3500 
L 3475 3500 
L 3475 0 
L 2900 0 
L 2900 538 
Q 2691 219 2414 64 
Q 2138 -91 1772 -91 
Q 1169 -91 856 284 
Q 544 659 544 1381 
z
M 1991 3584 
L 1991 3584 
z
" transform="scale(0.015625)"/>
       <path id="DejaVuSans-70" d="M 1159 525 
L 1159 -1331 
L 581 -1331 
L 581 3500 
L 1159 3500 
L 1159 2969 
Q 1341 3281 1617 3432 
Q 1894 3584 2278 3584 
Q 2916 3584 3314 3078 
Q 3713 2572 3713 1747 
Q 3713 922 3314 415 
Q 2916 -91 2278 -91 
Q 1894 -91 1617 61 
Q 1341 213 1159 525 
z
M 3116 1747 
Q 3116 2381 2855 2742 
Q 2594 3103 2138 3103 
Q 1681 3103 1420 2742 
Q 1159 2381 1159 1747 
Q 1159 1113 1420 752 
Q 1681 391 2138 391 
Q 2594 391 2855 752 
Q 3116 1113 3116 1747 
z
" transform="scale(0.015625)"/>
      </defs>
      <use xlink:href="#DejaVuSans-47"/>
      <use xlink:href="#DejaVuSans-72" x="77.490234"/>
      <use xlink:href="#DejaVuSans-6f" x="116.353516"/>
      <use xlink:href="#DejaVuSans-75" x="177.535156"/>
      <use xlink:href="#DejaVuSans-70" x="240.914062"/>
      <use xlink:href="#DejaVuSans-73" x="304.390625"/>
     </g>
    </g>
   </g>
   <g id="matplotlib.axis_2">
    <g id="ytick_1">
     <g id="line2d_4">
      <path d="M 38.111875 331.057365 
L 417.551875 331.057365 
" clip-path="url(#p6f480a4949)" style="fill: none; stroke-dasharray: 2.96,1.28; stroke-dashoffset: 0; stroke: #b0b0b0; stroke-opacity: 0.3; stroke-width: 0.8"/>
     </g>
     <g id="line2d_5">
      <defs>
       <path id="m0db42b8805" d="M 0 0 
L -3.5 0 
" style="stroke: #000000; stroke-width: 0.8"/>
      </defs>
      <g>
       <use xlink:href="#m0db42b8805" x="38.111875" y="331.057365" style="stroke: #000000; stroke-width: 0.8"/>
      </g>
     </g>
     <g id="text_5">
      <!-- 1 -->
      <g transform="translate(24.749375 334.856584) scale(0.1 -0.1)">
       <defs>
        <path id="DejaVuSans-31" d="M 794 531 
L 1825 531 
L 1825 4091 
L 703 3866 
L 703 4441 
L 1819 4666 
L 2450 4666 
L 2450 531 
L 3481 531 
L 3481 0 
L 794 0 
L 794 531 
z
" transform="scale(0.015625)"/>
       </defs>
       <use xlink:href="#DejaVuSans-31"/>
      </g>
     </g>
    </g>
    <g id="ytick_2">
     <g id="line2d_6">
      <path d="M 38.111875 286.532203 
L 417.551875 286.532203 
" clip-path="url(#p6f480a4949)" style="fill: none; stroke-dasharray: 2.96,1.28; stroke-dashoffset: 0; stroke: #b0b0b0; stroke-opacity: 0.3; stroke-width: 0.8"/>
     </g>
     <g id="line2d_7">
      <g>
       <use xlink:href="#m0db42b8805" x="38.111875" y="286.532203" style="stroke: #000000; stroke-width: 0.8"/>
      </g>
     </g>
     <g id="text_6">
      <!-- 2 -->
      <g transform="translate(24.749375 290.331422) scale(0.1 -0.1)">
       <defs>
        <path id="DejaVuSans-32" d="M 1228 531 
L 3431 531 
L 3431 0 
L 469 0 
L 469 531 
Q 828 903 1448 1529 
Q 2069 2156 2228 2338 
Q 2531 2678 2651 2914 
Q 2772 3150 2772 3378 
Q 2772 3750 2511 3984 
Q 2250 4219 1831 4219 
Q 1534 4219 1204 4116 
Q 875 4013 500 3803 
L 500 4441 
Q 881 4594 1212 4672 
Q 1544 4750 1819 4750 
Q 2544 4750 2975 4387 
Q 3406 4025 3406 3419 
Q 3406 3131 3298 2873 
Q 3191 2616 2906 2266 
Q 2828 2175 2409 1742 
Q 1991 1309 1228 531 
z
" transform="scale(0.015625)"/>
       </defs>
       <use xlink:href="#DejaVuSans-32"/>
      </g>
     </g>
    </g>
    <g id="ytick_3">
     <g id="line2d_8">
      <path d="M 38.111875 242.007041 
L 417.551875 242.007041 
" clip-path="url(#p6f480a4949)" style="fill: none; stroke-dasharray: 2.96,1.28; stroke-dashoffset: 0; stroke: #b0b0b0; stroke-opacity: 0.3; stroke-width: 0.8"/>
     </g>
     <g id="line2d_9">
      <g>
       <use xlink:href="#m0db42b8805" x="38.111875" y="242.007041" style="stroke: #000000; stroke-width: 0.8"/>
      </g>
     </g>
     <g id="text_7">
      <!-- 3 -->
      <g transform="translate(24.749375 245.80626) scale(0.1 -0.1)">
       <defs>
        <path id="DejaVuSans-33" d="M 2597 2516 
Q 3050 2419 3304 2112 
Q 3559 1806 3559 1356 
Q 3559 666 3084 287 
Q 2609 -91 1734 -91 
Q 1441 -91 1130 -33 
Q 819 25 488 141 
L 488 750 
Q 750 597 1062 519 
Q 1375 441 1716 441 
Q 2309 441 2620 675 
Q 2931 909 2931 1356 
Q 2931 1769 2642 2001 
Q 2353 2234 1838 2234 
L 1294 2234 
L 1294 2753 
L 1863 2753 
Q 2328 2753 2575 2939 
Q 2822 3125 2822 3475 
Q 2822 3834 2567 4026 
Q 2313 4219 1838 4219 
Q 1578 4219 1281 4162 
Q 984 4106 628 3988 
L 628 4550 
Q 988 4650 1302 4700 
Q 1616 4750 1894 4750 
Q 2613 4750 3031 4423 
Q 3450 4097 3450 3541 
Q 3450 3153 3228 2886 
Q 3006 2619 2597 2516 
z
" transform="scale(0.015625)"/>
       </defs>
       <use xlink:href="#DejaVuSans-33"/>
      </g>
     </g>
    </g>
    <g id="ytick_4">
     <g id="line2d_10">
      <path d="M 38.111875 197.481879 
L 417.551875 197.481879 
" clip-path="url(#p6f480a4949)" style="fill: none; stroke-dasharray: 2.96,1.28; stroke-dashoffset: 0; stroke: #b0b0b0; stroke-opacity: 0.3; stroke-width: 0.8"/>
     </g>
     <g id="line2d_11">
      <g>
       <use xlink:href="#m0db42b8805" x="38.111875" y="197.481879" style="stroke: #000000; stroke-width: 0.8"/>
      </g>
     </g>
     <g id="text_8">
      <!-- 4 -->
      <g transform="translate(24.749375 201.281097) scale(0.1 -0.1)">
       <defs>
        <path id="DejaVuSans-34" d="M 2419 4116 
L 825 1625 
L 2419 1625 
L 2419 4116 
z
M 2253 4666 
L 3047 4666 
L 3047 1625 
L 3713 1625 
L 3713 1100 
L 3047 1100 
L 3047 0 
L 2419 0 
L 2419 1100 
L 313 1100 
L 313 1709 
L 2253 4666 
z
" transform="scale(0.015625)"/>
       </defs>
       <use xlink:href="#DejaVuSans-34"/>
      </g>
     </g>
    </g>
    <g id="ytick_5">
     <g id="line2d_12">
      <path d="M 38.111875 152.956717 
L 417.551875 152.956717 
" clip-path="url(#p6f480a4949)" style="fill: none; stroke-dasharray: 2.96,1.28; stroke-dashoffset: 0; stroke: #b0b0b0; stroke-opacity: 0.3; stroke-width: 0.8"/>
     </g>
     <g id="line2d_13">
      <g>
       <use xlink:href="#m0db42b8805" x="38.111875" y="152.956717" style="stroke: #000000; stroke-width: 0.8"/>
      </g>
     </g>
     <g id="text_9">
      <!-- 5 -->
      <g transform="translate(24.749375 156.755935) scale(0.1 -0.1)">
       <defs>
        <path id="DejaVuSans-35" d="M 691 4666 
L 3169 4666 
L 3169 4134 
L 1269 4134 
L 1269 2991 
Q 1406 3038 1543 3061 
Q 1681 3084 1819 3084 
Q 2600 3084 3056 2656 
Q 3513 2228 3513 1497 
Q 3513 744 3044 326 
Q 2575 -91 1722 -91 
Q 1428 -91 1123 -41 
Q 819 9 494 109 
L 494 744 
Q 775 591 1075 516 
Q 1375 441 1709 441 
Q 2250 441 2565 725 
Q 2881 1009 2881 1497 
Q 2881 1984 2565 2268 
Q 2250 2553 1709 2553 
Q 1456 2553 1204 2497 
Q 953 2441 691 2322 
L 691 4666 
z
" transform="scale(0.015625)"/>
       </defs>
       <use xlink:href="#DejaVuSans-35"/>
      </g>
     </g>
    </g>
    <g id="ytick_6">
     <g id="line2d_14">
      <path d="M 38.111875 108.431555 
L 417.551875 108.431555 
" clip-path="url(#p6f480a4949)" style="fill: none; stroke-dasharray: 2.96,1.28; stroke-dashoffset: 0; stroke: #b0b0b0; stroke-opacity: 0.3; stroke-width: 0.8"/>
     </g>
     <g id="line2d_15">
      <g>
       <use xlink:href="#m0db42b8805" x="38.111875" y="108.431555" style="stroke: #000000; stroke-width: 0.8"/>
      </g>
     </g>
     <g id="text_10">
      <!-- 6 -->
      <g transform="translate(24.749375 112.230773) scale(0.1 -0.1)">
       <defs>
        <path id="DejaVuSans-36" d="M 2113 2584 
Q 1688 2584 1439 2293 
Q 1191 2003 1191 1497 
Q 1191 994 1439 701 
Q 1688 409 2113 409 
Q 2538 409 2786 701 
Q 3034 994 3034 1497 
Q 3034 2003 2786 2293 
Q 2538 2584 2113 2584 
z
M 3366 4563 
L 3366 3988 
Q 3128 4100 2886 4159 
Q 2644 4219 2406 4219 
Q 1781 4219 1451 3797 
Q 1122 3375 1075 2522 
Q 1259 2794 1537 2939 
Q 1816 3084 2150 3084 
Q 2853 3084 3261 2657 
Q 3669 2231 3669 1497 
Q 3669 778 3244 343 
Q 2819 -91 2113 -91 
Q 1303 -91 875 529 
Q 447 1150 447 2328 
Q 447 3434 972 4092 
Q 1497 4750 2381 4750 
Q 2619 4750 2861 4703 
Q 3103 4656 3366 4563 
z
" transform="scale(0.015625)"/>
       </defs>
       <use xlink:href="#DejaVuSans-36"/>
      </g>
     </g>
    </g>
    <g id="ytick_7">
     <g id="line2d_16">
      <path d="M 38.111875 63.906393 
L 417.551875 63.906393 
" clip-path="url(#p6f480a4949)" style="fill: none; stroke-dasharray: 2.96,1.28; stroke-dashoffset: 0; stroke: #b0b0b0; stroke-opacity: 0.3; stroke-width: 0.8"/>
     </g>
     <g id="line2d_17">
      <g>
       <use xlink:href="#m0db42b8805" x="38.111875" y="63.906393" style="stroke: #000000; stroke-width: 0.8"/>
      </g>
     </g>
     <g id="text_11">
      <!-- 7 -->
      <g transform="translate(24.749375 67.705611) scale(0.1 -0.1)">
       <defs>
        <path id="DejaVuSans-37" d="M 525 4666 
L 3525 4666 
L 3525 4397 
L 1831 0 
L 1172 0 
L 2766 4134 
L 525 4134 
L 525 4666 
z
" transform="scale(0.015625)"/>
       </defs>
       <use xlink:href="#DejaVuSans-37"/>
      </g>
     </g>
    </g>
    <g id="text_12">
     <!-- Retrieval Time (mean) (minutes) -->
     <g transform="translate(17.837812 308.734844) rotate(-90) scale(0.14 -0.14)">
      <defs>
       <path id="DejaVuSans-52" d="M 2841 2188 
Q 3044 2119 3236 1894 
Q 3428 1669 3622 1275 
L 4263 0 
L 3584 0 
L 2988 1197 
Q 2756 1666 2539 1819 
Q 2322 1972 1947 1972 
L 1259 1972 
L 1259 0 
L 628 0 
L 628 4666 
L 2053 4666 
Q 2853 4666 3247 4331 
Q 3641 3997 3641 3322 
Q 3641 2881 3436 2590 
Q 3231 2300 2841 2188 
z
M 1259 4147 
L 1259 2491 
L 2053 2491 
Q 2509 2491 2742 2702 
Q 2975 2913 2975 3322 
Q 2975 3731 2742 3939 
Q 2509 4147 2053 4147 
L 1259 4147 
z
" transform="scale(0.015625)"/>
       <path id="DejaVuSans-69" d="M 603 3500 
L 1178 3500 
L 1178 0 
L 603 0 
L 603 3500 
z
M 603 4863 
L 1178 4863 
L 1178 4134 
L 603 4134 
L 603 4863 
z
" transform="scale(0.015625)"/>
       <path id="DejaVuSans-76" d="M 191 3500 
L 800 3500 
L 1894 563 
L 2988 3500 
L 3597 3500 
L 2284 0 
L 1503 0 
L 191 3500 
z
" transform="scale(0.015625)"/>
       <path id="DejaVuSans-20" transform="scale(0.015625)"/>
       <path id="DejaVuSans-54" d="M -19 4666 
L 3928 4666 
L 3928 4134 
L 2272 4134 
L 2272 0 
L 1638 0 
L 1638 4134 
L -19 4134 
L -19 4666 
z
" transform="scale(0.015625)"/>
       <path id="DejaVuSans-28" d="M 1984 4856 
Q 1566 4138 1362 3434 
Q 1159 2731 1159 2009 
Q 1159 1288 1364 580 
Q 1569 -128 1984 -844 
L 1484 -844 
Q 1016 -109 783 600 
Q 550 1309 550 2009 
Q 550 2706 781 3412 
Q 1013 4119 1484 4856 
L 1984 4856 
z
" transform="scale(0.015625)"/>
       <path id="DejaVuSans-6e" d="M 3513 2113 
L 3513 0 
L 2938 0 
L 2938 2094 
Q 2938 2591 2744 2837 
Q 2550 3084 2163 3084 
Q 1697 3084 1428 2787 
Q 1159 2491 1159 1978 
L 1159 0 
L 581 0 
L 581 3500 
L 1159 3500 
L 1159 2956 
Q 1366 3272 1645 3428 
Q 1925 3584 2291 3584 
Q 2894 3584 3203 3211 
Q 3513 2838 3513 2113 
z
" transform="scale(0.015625)"/>
       <path id="DejaVuSans-29" d="M 513 4856 
L 1013 4856 
Q 1481 4119 1714 3412 
Q 1947 2706 1947 2009 
Q 1947 1309 1714 600 
Q 1481 -109 1013 -844 
L 513 -844 
Q 928 -128 1133 580 
Q 1338 1288 1338 2009 
Q 1338 2731 1133 3434 
Q 928 4138 513 4856 
z
" transform="scale(0.015625)"/>
      </defs>
      <use xlink:href="#DejaVuSans-52"/>
      <use xlink:href="#DejaVuSans-65" x="64.982422"/>
      <use xlink:href="#DejaVuSans-74" x="126.505859"/>
      <use xlink:href="#DejaVuSans-72" x="165.714844"/>
      <use xlink:href="#DejaVuSans-69" x="206.828125"/>
      <use xlink:href="#DejaVuSans-65" x="234.611328"/>
      <use xlink:href="#DejaVuSans-76" x="296.134766"/>
      <use xlink:href="#DejaVuSans-61" x="355.314453"/>
      <use xlink:href="#DejaVuSans-6c" x="416.59375"/>
      <use xlink:href="#DejaVuSans-20" x="444.376953"/>
      <use xlink:href="#DejaVuSans-54" x="476.164062"/>
      <use xlink:href="#DejaVuSans-69" x="534.123047"/>
      <use xlink:href="#DejaVuSans-6d" x="561.90625"/>
      <use xlink:href="#DejaVuSans-65" x="659.318359"/>
      <use xlink:href="#DejaVuSans-20" x="720.841797"/>
      <use xlink:href="#DejaVuSans-28" x="752.628906"/>
      <use xlink:href="#DejaVuSans-6d" x="791.642578"/>
      <use xlink:href="#DejaVuSans-65" x="889.054688"/>
      <use xlink:href="#DejaVuSans-61" x="950.578125"/>
      <use xlink:href="#DejaVuSans-6e" x="1011.857422"/>
      <use xlink:href="#DejaVuSans-29" x="1075.236328"/>
      <use xlink:href="#DejaVuSans-20" x="1114.25"/>
      <use xlink:href="#DejaVuSans-28" x="1146.037109"/>
      <use xlink:href="#DejaVuSans-6d" x="1185.050781"/>
      <use xlink:href="#DejaVuSans-69" x="1282.462891"/>
      <use xlink:href="#DejaVuSans-6e" x="1310.246094"/>
      <use xlink:href="#DejaVuSans-75" x="1373.625"/>
      <use xlink:href="#DejaVuSans-74" x="1437.003906"/>
      <use xlink:href="#DejaVuSans-65" x="1476.212891"/>
      <use xlink:href="#DejaVuSans-73" x="1537.736328"/>
      <use xlink:href="#DejaVuSans-29" x="1589.835938"/>
     </g>
    </g>
   </g>
   <g id="patch_3">
    <path d="M 91.865875 303.676919 
L 110.837875 303.676919 
L 110.837875 228.20609 
L 91.865875 228.20609 
L 91.865875 303.676919 
z
" clip-path="url(#p6f480a4949)" style="fill: #ffffff; stroke: #000000; stroke-linejoin: miter"/>
   </g>
   <g id="line2d_18">
    <path d="M 101.351875 303.676919 
L 101.351875 330.538712 
" clip-path="url(#p6f480a4949)" style="fill: none; stroke: #000000; stroke-linecap: square"/>
   </g>
   <g id="line2d_19">
    <path d="M 101.351875 228.20609 
L 101.351875 128.127903 
" clip-path="url(#p6f480a4949)" style="fill: none; stroke: #000000; stroke-linecap: square"/>
   </g>
   <g id="line2d_20">
    <path d="M 96.608875 330.538712 
L 106.094875 330.538712 
" clip-path="url(#p6f480a4949)" style="fill: none; stroke: #000000; stroke-linecap: square"/>
   </g>
   <g id="line2d_21">
    <path d="M 96.608875 128.127903 
L 106.094875 128.127903 
" clip-path="url(#p6f480a4949)" style="fill: none; stroke: #000000; stroke-linecap: square"/>
   </g>
   <g id="patch_4">
    <path d="M 218.345875 325.064384 
L 237.317875 325.064384 
L 237.317875 264.375576 
L 218.345875 264.375576 
L 218.345875 325.064384 
z
" clip-path="url(#p6f480a4949)" style="fill: #ffffff; stroke: #000000; stroke-linejoin: miter"/>
   </g>
   <g id="line2d_22">
    <path d="M 227.831875 325.064384 
L 227.831875 345.916875 
" clip-path="url(#p6f480a4949)" style="fill: none; stroke: #000000; stroke-linecap: square"/>
   </g>
   <g id="line2d_23">
    <path d="M 227.831875 264.375576 
L 227.831875 224.309115 
" clip-path="url(#p6f480a4949)" style="fill: none; stroke: #000000; stroke-linecap: square"/>
   </g>
   <g id="line2d_24">
    <path d="M 223.088875 345.916875 
L 232.574875 345.916875 
" clip-path="url(#p6f480a4949)" style="fill: none; stroke: #000000; stroke-linecap: square"/>
   </g>
   <g id="line2d_25">
    <path d="M 223.088875 224.309115 
L 232.574875 224.309115 
" clip-path="url(#p6f480a4949)" style="fill: none; stroke: #000000; stroke-linecap: square"/>
   </g>
   <g id="patch_5">
    <path d="M 344.825875 254.766592 
L 363.797875 254.766592 
L 363.797875 129.848909 
L 344.825875 129.848909 
L 344.825875 254.766592 
z
" clip-path="url(#p6f480a4949)" style="fill: #ffffff; stroke: #000000; stroke-linejoin: miter"/>
   </g>
   <g id="line2d_26">
    <path d="M 354.311875 254.766592 
L 354.311875 304.374368 
" clip-path="url(#p6f480a4949)" style="fill: none; stroke: #000000; stroke-linecap: square"/>
   </g>
   <g id="line2d_27">
    <path d="M 354.311875 129.848909 
L 354.311875 43.516875 
" clip-path="url(#p6f480a4949)" style="fill: none; stroke: #000000; stroke-linecap: square"/>
   </g>
   <g id="line2d_28">
    <path d="M 349.568875 304.374368 
L 359.054875 304.374368 
" clip-path="url(#p6f480a4949)" style="fill: none; stroke: #000000; stroke-linecap: square"/>
   </g>
   <g id="line2d_29">
    <path d="M 349.568875 43.516875 
L 359.054875 43.516875 
" clip-path="url(#p6f480a4949)" style="fill: none; stroke: #000000; stroke-linecap: square"/>
   </g>
   <g id="line2d_30">
    <path d="M 91.865875 286.622063 
L 110.837875 286.622063 
" clip-path="url(#p6f480a4949)" style="fill: none; stroke: #000000"/>
   </g>
   <g id="line2d_31">
    <path d="M 218.345875 303.999725 
L 237.317875 303.999725 
" clip-path="url(#p6f480a4949)" style="fill: none; stroke: #000000"/>
   </g>
   <g id="line2d_32">
    <path d="M 344.825875 202.308307 
L 363.797875 202.308307 
" clip-path="url(#p6f480a4949)" style="fill: none; stroke: #000000"/>
   </g>
   <g id="patch_6">
    <path d="M 38.111875 361.036875 
L 38.111875 28.396875 
" style="fill: none; stroke: #000000; stroke-width: 0.8; stroke-linejoin: miter; stroke-linecap: square"/>
   </g>
   <g id="patch_7">
    <path d="M 417.551875 361.036875 
L 417.551875 28.396875 
" style="fill: none; stroke: #000000; stroke-width: 0.8; stroke-linejoin: miter; stroke-linecap: square"/>
   </g>
   <g id="patch_8">
    <path d="M 38.111875 361.036875 
L 417.551875 361.036875 
" style="fill: none; stroke: #000000; stroke-width: 0.8; stroke-linejoin: miter; stroke-linecap: square"/>
   </g>
   <g id="patch_9">
    <path d="M 38.111875 28.396875 
L 417.551875 28.396875 
" style="fill: none; stroke: #000000; stroke-width: 0.8; stroke-linejoin: miter; stroke-linecap: square"/>
   </g>
   <g id="PathCollection_1">
    <defs>
     <path id="maba508ad12" d="M 0 3 
C 0.795609 3 1.55874 2.683901 2.12132 2.12132 
C 2.683901 1.55874 3 0.795609 3 0 
C 3 -0.795609 2.683901 -1.55874 2.12132 -2.12132 
C 1.55874 -2.683901 0.795609 -3 0 -3 
C -0.795609 -3 -1.55874 -2.683901 -2.12132 -2.12132 
C -2.683901 -1.55874 -3 -0.795609 -3 0 
C -3 0.795609 -2.683901 1.55874 -2.12132 2.12132 
C -1.55874 2.683901 -0.795609 3 0 3 
z
" style="stroke: #000000; stroke-opacity: 0.85; stroke-width: 0.4"/>
    </defs>
    <g clip-path="url(#p6f480a4949)">
     <use xlink:href="#maba508ad12" x="106.340047" y="301.63553" style="fill: #425df5; fill-opacity: 0.85; stroke: #000000; stroke-opacity: 0.85; stroke-width: 0.4"/>
     <use xlink:href="#maba508ad12" x="103.363864" y="292.107666" style="fill: #425df5; fill-opacity: 0.85; stroke: #000000; stroke-opacity: 0.85; stroke-width: 0.4"/>
     <use xlink:href="#maba508ad12" x="101.357419" y="313.916518" style="fill: #425df5; fill-opacity: 0.85; stroke: #000000; stroke-opacity: 0.85; stroke-width: 0.4"/>
     <use xlink:href="#maba508ad12" x="97.310046" y="306.235724" style="fill: #425df5; fill-opacity: 0.85; stroke: #000000; stroke-opacity: 0.85; stroke-width: 0.4"/>
     <use xlink:href="#maba508ad12" x="96.831171" y="222.972169" style="fill: #425df5; fill-opacity: 0.85; stroke: #000000; stroke-opacity: 0.85; stroke-width: 0.4"/>
     <use xlink:href="#maba508ad12" x="101.243999" y="297.162754" style="fill: #425df5; fill-opacity: 0.85; stroke: #000000; stroke-opacity: 0.85; stroke-width: 0.4"/>
     <use xlink:href="#maba508ad12" x="102.391195" y="291.818844" style="fill: #425df5; fill-opacity: 0.85; stroke: #000000; stroke-opacity: 0.85; stroke-width: 0.4"/>
     <use xlink:href="#maba508ad12" x="97.830438" y="176.348281" style="fill: #425df5; fill-opacity: 0.85; stroke: #000000; stroke-opacity: 0.85; stroke-width: 0.4"/>
     <use xlink:href="#maba508ad12" x="98.954553" y="129.155941" style="fill: #425df5; fill-opacity: 0.85; stroke: #000000; stroke-opacity: 0.85; stroke-width: 0.4"/>
     <use xlink:href="#maba508ad12" x="105.070423" y="215.972601" style="fill: #425df5; fill-opacity: 0.85; stroke: #000000; stroke-opacity: 0.85; stroke-width: 0.4"/>
     <use xlink:href="#maba508ad12" x="97.229372" y="330.538712" style="fill: #425df5; fill-opacity: 0.85; stroke: #000000; stroke-opacity: 0.85; stroke-width: 0.4"/>
     <use xlink:href="#maba508ad12" x="103.185614" y="128.127903" style="fill: #425df5; fill-opacity: 0.85; stroke: #000000; stroke-opacity: 0.85; stroke-width: 0.4"/>
     <use xlink:href="#maba508ad12" x="97.147147" y="153.369376" style="fill: #425df5; fill-opacity: 0.85; stroke: #000000; stroke-opacity: 0.85; stroke-width: 0.4"/>
     <use xlink:href="#maba508ad12" x="102.063486" y="318.5073" style="fill: #425df5; fill-opacity: 0.85; stroke: #000000; stroke-opacity: 0.85; stroke-width: 0.4"/>
     <use xlink:href="#maba508ad12" x="105.470696" y="254.679397" style="fill: #425df5; fill-opacity: 0.85; stroke: #000000; stroke-opacity: 0.85; stroke-width: 0.4"/>
     <use xlink:href="#maba508ad12" x="104.311244" y="278.09244" style="fill: #425df5; fill-opacity: 0.85; stroke: #000000; stroke-opacity: 0.85; stroke-width: 0.4"/>
     <use xlink:href="#maba508ad12" x="105.650455" y="229.95073" style="fill: #425df5; fill-opacity: 0.85; stroke: #000000; stroke-opacity: 0.85; stroke-width: 0.4"/>
     <use xlink:href="#maba508ad12" x="103.5727" y="281.425283" style="fill: #425df5; fill-opacity: 0.85; stroke: #000000; stroke-opacity: 0.85; stroke-width: 0.4"/>
     <use xlink:href="#maba508ad12" x="96.87299" y="322.50097" style="fill: #425df5; fill-opacity: 0.85; stroke: #000000; stroke-opacity: 0.85; stroke-width: 0.4"/>
     <use xlink:href="#maba508ad12" x="99.800649" y="297.756143" style="fill: #425df5; fill-opacity: 0.85; stroke: #000000; stroke-opacity: 0.85; stroke-width: 0.4"/>
     <use xlink:href="#maba508ad12" x="96.448882" y="315.851461" style="fill: #425df5; fill-opacity: 0.85; stroke: #000000; stroke-opacity: 0.85; stroke-width: 0.4"/>
     <use xlink:href="#maba508ad12" x="101.502463" y="269.189068" style="fill: #425df5; fill-opacity: 0.85; stroke: #000000; stroke-opacity: 0.85; stroke-width: 0.4"/>
     <use xlink:href="#maba508ad12" x="104.049315" y="252.102215" style="fill: #425df5; fill-opacity: 0.85; stroke: #000000; stroke-opacity: 0.85; stroke-width: 0.4"/>
     <use xlink:href="#maba508ad12" x="105.692212" y="302.823984" style="fill: #425df5; fill-opacity: 0.85; stroke: #000000; stroke-opacity: 0.85; stroke-width: 0.4"/>
    </g>
   </g>
   <g id="PathCollection_2">
    <defs>
     <path id="m6695ee461c" d="M 0 3 
C 0.795609 3 1.55874 2.683901 2.12132 2.12132 
C 2.683901 1.55874 3 0.795609 3 0 
C 3 -0.795609 2.683901 -1.55874 2.12132 -2.12132 
C 1.55874 -2.683901 0.795609 -3 0 -3 
C -0.795609 -3 -1.55874 -2.683901 -2.12132 -2.12132 
C -2.683901 -1.55874 -3 -0.795609 -3 0 
C -3 0.795609 -2.683901 1.55874 -2.12132 2.12132 
C -1.55874 2.683901 -0.795609 3 0 3 
z
" style="stroke: #000000; stroke-opacity: 0.85; stroke-width: 0.4"/>
    </defs>
    <g clip-path="url(#p6f480a4949)">
     <use xlink:href="#m6695ee461c" x="223.775213" y="227.584453" style="fill: #f55442; fill-opacity: 0.85; stroke: #000000; stroke-opacity: 0.85; stroke-width: 0.4"/>
     <use xlink:href="#m6695ee461c" x="226.333116" y="249.799868" style="fill: #f55442; fill-opacity: 0.85; stroke: #000000; stroke-opacity: 0.85; stroke-width: 0.4"/>
     <use xlink:href="#m6695ee461c" x="229.628147" y="296.964458" style="fill: #f55442; fill-opacity: 0.85; stroke: #000000; stroke-opacity: 0.85; stroke-width: 0.4"/>
     <use xlink:href="#m6695ee461c" x="228.950986" y="254.989684" style="fill: #f55442; fill-opacity: 0.85; stroke: #000000; stroke-opacity: 0.85; stroke-width: 0.4"/>
     <use xlink:href="#m6695ee461c" x="225.401495" y="341.214865" style="fill: #f55442; fill-opacity: 0.85; stroke: #000000; stroke-opacity: 0.85; stroke-width: 0.4"/>
     <use xlink:href="#m6695ee461c" x="223.207452" y="345.916875" style="fill: #f55442; fill-opacity: 0.85; stroke: #000000; stroke-opacity: 0.85; stroke-width: 0.4"/>
     <use xlink:href="#m6695ee461c" x="226.132139" y="265.873813" style="fill: #f55442; fill-opacity: 0.85; stroke: #000000; stroke-opacity: 0.85; stroke-width: 0.4"/>
     <use xlink:href="#m6695ee461c" x="223.987419" y="264.375576" style="fill: #f55442; fill-opacity: 0.85; stroke: #000000; stroke-opacity: 0.85; stroke-width: 0.4"/>
     <use xlink:href="#m6695ee461c" x="228.758484" y="224.309115" style="fill: #f55442; fill-opacity: 0.85; stroke: #000000; stroke-opacity: 0.85; stroke-width: 0.4"/>
     <use xlink:href="#m6695ee461c" x="231.982939" y="313.019101" style="fill: #f55442; fill-opacity: 0.85; stroke: #000000; stroke-opacity: 0.85; stroke-width: 0.4"/>
     <use xlink:href="#m6695ee461c" x="225.411107" y="304.666895" style="fill: #f55442; fill-opacity: 0.85; stroke: #000000; stroke-opacity: 0.85; stroke-width: 0.4"/>
     <use xlink:href="#m6695ee461c" x="226.65038" y="325.064384" style="fill: #f55442; fill-opacity: 0.85; stroke: #000000; stroke-opacity: 0.85; stroke-width: 0.4"/>
     <use xlink:href="#m6695ee461c" x="232.526919" y="311.675601" style="fill: #f55442; fill-opacity: 0.85; stroke: #000000; stroke-opacity: 0.85; stroke-width: 0.4"/>
     <use xlink:href="#m6695ee461c" x="232.473327" y="316.954064" style="fill: #f55442; fill-opacity: 0.85; stroke: #000000; stroke-opacity: 0.85; stroke-width: 0.4"/>
     <use xlink:href="#m6695ee461c" x="231.706135" y="303.999725" style="fill: #f55442; fill-opacity: 0.85; stroke: #000000; stroke-opacity: 0.85; stroke-width: 0.4"/>
     <use xlink:href="#m6695ee461c" x="229.308725" y="298.276125" style="fill: #f55442; fill-opacity: 0.85; stroke: #000000; stroke-opacity: 0.85; stroke-width: 0.4"/>
     <use xlink:href="#m6695ee461c" x="223.85268" y="258.515338" style="fill: #f55442; fill-opacity: 0.85; stroke: #000000; stroke-opacity: 0.85; stroke-width: 0.4"/>
     <use xlink:href="#m6695ee461c" x="223.147663" y="272.648726" style="fill: #f55442; fill-opacity: 0.85; stroke: #000000; stroke-opacity: 0.85; stroke-width: 0.4"/>
     <use xlink:href="#m6695ee461c" x="231.378413" y="326.462882" style="fill: #f55442; fill-opacity: 0.85; stroke: #000000; stroke-opacity: 0.85; stroke-width: 0.4"/>
     <use xlink:href="#m6695ee461c" x="230.859221" y="313.131373" style="fill: #f55442; fill-opacity: 0.85; stroke: #000000; stroke-opacity: 0.85; stroke-width: 0.4"/>
     <use xlink:href="#m6695ee461c" x="231.76511" y="288.10054" style="fill: #f55442; fill-opacity: 0.85; stroke: #000000; stroke-opacity: 0.85; stroke-width: 0.4"/>
     <use xlink:href="#m6695ee461c" x="230.672757" y="335.200665" style="fill: #f55442; fill-opacity: 0.85; stroke: #000000; stroke-opacity: 0.85; stroke-width: 0.4"/>
     <use xlink:href="#m6695ee461c" x="231.010917" y="327.162157" style="fill: #f55442; fill-opacity: 0.85; stroke: #000000; stroke-opacity: 0.85; stroke-width: 0.4"/>
     <use xlink:href="#m6695ee461c" x="231.051848" y="332.304675" style="fill: #f55442; fill-opacity: 0.85; stroke: #000000; stroke-opacity: 0.85; stroke-width: 0.4"/>
     <use xlink:href="#m6695ee461c" x="230.559213" y="231.461354" style="fill: #f55442; fill-opacity: 0.85; stroke: #000000; stroke-opacity: 0.85; stroke-width: 0.4"/>
    </g>
   </g>
   <g id="PathCollection_3">
    <defs>
     <path id="mf9cccdb580" d="M 0 3 
C 0.795609 3 1.55874 2.683901 2.12132 2.12132 
C 2.683901 1.55874 3 0.795609 3 0 
C 3 -0.795609 2.683901 -1.55874 2.12132 -2.12132 
C 1.55874 -2.683901 0.795609 -3 0 -3 
C -0.795609 -3 -1.55874 -2.683901 -2.12132 -2.12132 
C -2.683901 -1.55874 -3 -0.795609 -3 0 
C -3 0.795609 -2.683901 1.55874 -2.12132 2.12132 
C -1.55874 2.683901 -0.795609 3 0 3 
z
" style="stroke: #000000; stroke-opacity: 0.85; stroke-width: 0.4"/>
    </defs>
    <g clip-path="url(#p6f480a4949)">
     <use xlink:href="#mf9cccdb580" x="355.229522" y="213.598199" style="fill: #0ec72a; fill-opacity: 0.85; stroke: #000000; stroke-opacity: 0.85; stroke-width: 0.4"/>
     <use xlink:href="#mf9cccdb580" x="350.100869" y="177.047778" style="fill: #0ec72a; fill-opacity: 0.85; stroke: #000000; stroke-opacity: 0.85; stroke-width: 0.4"/>
     <use xlink:href="#mf9cccdb580" x="353.393759" y="301.764755" style="fill: #0ec72a; fill-opacity: 0.85; stroke: #000000; stroke-opacity: 0.85; stroke-width: 0.4"/>
     <use xlink:href="#mf9cccdb580" x="350.66479" y="276.817458" style="fill: #0ec72a; fill-opacity: 0.85; stroke: #000000; stroke-opacity: 0.85; stroke-width: 0.4"/>
     <use xlink:href="#mf9cccdb580" x="358.046588" y="111.808439" style="fill: #0ec72a; fill-opacity: 0.85; stroke: #000000; stroke-opacity: 0.85; stroke-width: 0.4"/>
     <use xlink:href="#mf9cccdb580" x="356.216241" y="67.26633" style="fill: #0ec72a; fill-opacity: 0.85; stroke: #000000; stroke-opacity: 0.85; stroke-width: 0.4"/>
     <use xlink:href="#mf9cccdb580" x="356.658192" y="43.516875" style="fill: #0ec72a; fill-opacity: 0.85; stroke: #000000; stroke-opacity: 0.85; stroke-width: 0.4"/>
     <use xlink:href="#mf9cccdb580" x="356.254848" y="202.308307" style="fill: #0ec72a; fill-opacity: 0.85; stroke: #000000; stroke-opacity: 0.85; stroke-width: 0.4"/>
     <use xlink:href="#mf9cccdb580" x="354.486937" y="229.114794" style="fill: #0ec72a; fill-opacity: 0.85; stroke: #000000; stroke-opacity: 0.85; stroke-width: 0.4"/>
     <use xlink:href="#mf9cccdb580" x="358.03257" y="254.050843" style="fill: #0ec72a; fill-opacity: 0.85; stroke: #000000; stroke-opacity: 0.85; stroke-width: 0.4"/>
     <use xlink:href="#mf9cccdb580" x="357.298679" y="144.318887" style="fill: #0ec72a; fill-opacity: 0.85; stroke: #000000; stroke-opacity: 0.85; stroke-width: 0.4"/>
     <use xlink:href="#mf9cccdb580" x="356.837194" y="159.354295" style="fill: #0ec72a; fill-opacity: 0.85; stroke: #000000; stroke-opacity: 0.85; stroke-width: 0.4"/>
     <use xlink:href="#mf9cccdb580" x="357.444412" y="143.540589" style="fill: #0ec72a; fill-opacity: 0.85; stroke: #000000; stroke-opacity: 0.85; stroke-width: 0.4"/>
     <use xlink:href="#mf9cccdb580" x="354.964905" y="220.756391" style="fill: #0ec72a; fill-opacity: 0.85; stroke: #000000; stroke-opacity: 0.85; stroke-width: 0.4"/>
     <use xlink:href="#mf9cccdb580" x="349.882261" y="116.157229" style="fill: #0ec72a; fill-opacity: 0.85; stroke: #000000; stroke-opacity: 0.85; stroke-width: 0.4"/>
     <use xlink:href="#mf9cccdb580" x="353.921991" y="255.482341" style="fill: #0ec72a; fill-opacity: 0.85; stroke: #000000; stroke-opacity: 0.85; stroke-width: 0.4"/>
     <use xlink:href="#mf9cccdb580" x="352.797029" y="277.612531" style="fill: #0ec72a; fill-opacity: 0.85; stroke: #000000; stroke-opacity: 0.85; stroke-width: 0.4"/>
     <use xlink:href="#mf9cccdb580" x="358.318774" y="304.374368" style="fill: #0ec72a; fill-opacity: 0.85; stroke: #000000; stroke-opacity: 0.85; stroke-width: 0.4"/>
     <use xlink:href="#mf9cccdb580" x="354.616738" y="105.805433" style="fill: #0ec72a; fill-opacity: 0.85; stroke: #000000; stroke-opacity: 0.85; stroke-width: 0.4"/>
    </g>
   </g>
   <g id="text_13">
    <!-- Retrieval Time (mean) Distribution -->
    <g transform="translate(54.89125 22.396875) scale(0.2 -0.2)">
     <defs>
      <path id="DejaVuSans-44" d="M 1259 4147 
L 1259 519 
L 2022 519 
Q 2988 519 3436 956 
Q 3884 1394 3884 2338 
Q 3884 3275 3436 3711 
Q 2988 4147 2022 4147 
L 1259 4147 
z
M 628 4666 
L 1925 4666 
Q 3281 4666 3915 4102 
Q 4550 3538 4550 2338 
Q 4550 1131 3912 565 
Q 3275 0 1925 0 
L 628 0 
L 628 4666 
z
" transform="scale(0.015625)"/>
      <path id="DejaVuSans-62" d="M 3116 1747 
Q 3116 2381 2855 2742 
Q 2594 3103 2138 3103 
Q 1681 3103 1420 2742 
Q 1159 2381 1159 1747 
Q 1159 1113 1420 752 
Q 1681 391 2138 391 
Q 2594 391 2855 752 
Q 3116 1113 3116 1747 
z
M 1159 2969 
Q 1341 3281 1617 3432 
Q 1894 3584 2278 3584 
Q 2916 3584 3314 3078 
Q 3713 2572 3713 1747 
Q 3713 922 3314 415 
Q 2916 -91 2278 -91 
Q 1894 -91 1617 61 
Q 1341 213 1159 525 
L 1159 0 
L 581 0 
L 581 4863 
L 1159 4863 
L 1159 2969 
z
" transform="scale(0.015625)"/>
     </defs>
     <use xlink:href="#DejaVuSans-52"/>
     <use xlink:href="#DejaVuSans-65" x="64.982422"/>
     <use xlink:href="#DejaVuSans-74" x="126.505859"/>
     <use xlink:href="#DejaVuSans-72" x="165.714844"/>
     <use xlink:href="#DejaVuSans-69" x="206.828125"/>
     <use xlink:href="#DejaVuSans-65" x="234.611328"/>
     <use xlink:href="#DejaVuSans-76" x="296.134766"/>
     <use xlink:href="#DejaVuSans-61" x="355.314453"/>
     <use xlink:href="#DejaVuSans-6c" x="416.59375"/>
     <use xlink:href="#DejaVuSans-20" x="444.376953"/>
     <use xlink:href="#DejaVuSans-54" x="476.164062"/>
     <use xlink:href="#DejaVuSans-69" x="534.123047"/>
     <use xlink:href="#DejaVuSans-6d" x="561.90625"/>
     <use xlink:href="#DejaVuSans-65" x="659.318359"/>
     <use xlink:href="#DejaVuSans-20" x="720.841797"/>
     <use xlink:href="#DejaVuSans-28" x="752.628906"/>
     <use xlink:href="#DejaVuSans-6d" x="791.642578"/>
     <use xlink:href="#DejaVuSans-65" x="889.054688"/>
     <use xlink:href="#DejaVuSans-61" x="950.578125"/>
     <use xlink:href="#DejaVuSans-6e" x="1011.857422"/>
     <use xlink:href="#DejaVuSans-29" x="1075.236328"/>
     <use xlink:href="#DejaVuSans-20" x="1114.25"/>
     <use xlink:href="#DejaVuSans-44" x="1146.037109"/>
     <use xlink:href="#DejaVuSans-69" x="1223.039062"/>
     <use xlink:href="#DejaVuSans-73" x="1250.822266"/>
     <use xlink:href="#DejaVuSans-74" x="1302.921875"/>
     <use xlink:href="#DejaVuSans-72" x="1342.130859"/>
     <use xlink:href="#DejaVuSans-69" x="1383.244141"/>
     <use xlink:href="#DejaVuSans-62" x="1411.027344"/>
     <use xlink:href="#DejaVuSans-75" x="1474.503906"/>
     <use xlink:href="#DejaVuSans-74" x="1537.882812"/>
     <use xlink:href="#DejaVuSans-69" x="1577.091797"/>
     <use xlink:href="#DejaVuSans-6f" x="1604.875"/>
     <use xlink:href="#DejaVuSans-6e" x="1666.056641"/>
    </g>
   </g>
   <g id="legend_1">
    <g id="patch_10">
     <path d="M 46.511875 90.838125 
L 172.388125 90.838125 
Q 174.788125 90.838125 174.788125 88.438125 
L 174.788125 36.796875 
Q 174.788125 34.396875 172.388125 34.396875 
L 46.511875 34.396875 
Q 44.111875 34.396875 44.111875 36.796875 
L 44.111875 88.438125 
Q 44.111875 90.838125 46.511875 90.838125 
z
" style="fill: #ffffff; opacity: 0.8; stroke: #cccccc; stroke-linejoin: miter"/>
    </g>
    <g id="patch_11">
     <path d="M 48.911875 48.315 
L 72.911875 48.315 
L 72.911875 39.915 
L 48.911875 39.915 
z
" style="fill: #425df5; opacity: 0.65; stroke: #425df5; stroke-linejoin: miter"/>
    </g>
    <g id="text_14">
     <!-- cask (n=24) -->
     <g transform="translate(82.511875 48.315) scale(0.12 -0.12)">
      <defs>
       <path id="DejaVuSans-3d" d="M 678 2906 
L 4684 2906 
L 4684 2381 
L 678 2381 
L 678 2906 
z
M 678 1631 
L 4684 1631 
L 4684 1100 
L 678 1100 
L 678 1631 
z
" transform="scale(0.015625)"/>
      </defs>
      <use xlink:href="#DejaVuSans-63"/>
      <use xlink:href="#DejaVuSans-61" x="54.980469"/>
      <use xlink:href="#DejaVuSans-73" x="116.259766"/>
      <use xlink:href="#DejaVuSans-6b" x="168.359375"/>
      <use xlink:href="#DejaVuSans-20" x="226.269531"/>
      <use xlink:href="#DejaVuSans-28" x="258.056641"/>
      <use xlink:href="#DejaVuSans-6e" x="297.070312"/>
      <use xlink:href="#DejaVuSans-3d" x="360.449219"/>
      <use xlink:href="#DejaVuSans-32" x="444.238281"/>
      <use xlink:href="#DejaVuSans-34" x="507.861328"/>
      <use xlink:href="#DejaVuSans-29" x="571.484375"/>
     </g>
    </g>
    <g id="patch_12">
     <path d="M 48.911875 65.92875 
L 72.911875 65.92875 
L 72.911875 57.52875 
L 48.911875 57.52875 
z
" style="fill: #f55442; opacity: 0.65; stroke: #f55442; stroke-linejoin: miter"/>
    </g>
    <g id="text_15">
     <!-- ctrl (n=25) -->
     <g transform="translate(82.511875 65.92875) scale(0.12 -0.12)">
      <use xlink:href="#DejaVuSans-63"/>
      <use xlink:href="#DejaVuSans-74" x="54.980469"/>
      <use xlink:href="#DejaVuSans-72" x="94.189453"/>
      <use xlink:href="#DejaVuSans-6c" x="135.302734"/>
      <use xlink:href="#DejaVuSans-20" x="163.085938"/>
      <use xlink:href="#DejaVuSans-28" x="194.873047"/>
      <use xlink:href="#DejaVuSans-6e" x="233.886719"/>
      <use xlink:href="#DejaVuSans-3d" x="297.265625"/>
      <use xlink:href="#DejaVuSans-32" x="381.054688"/>
      <use xlink:href="#DejaVuSans-35" x="444.677734"/>
      <use xlink:href="#DejaVuSans-29" x="508.300781"/>
     </g>
    </g>
    <g id="patch_13">
     <path d="M 48.911875 83.5425 
L 72.911875 83.5425 
L 72.911875 75.1425 
L 48.911875 75.1425 
z
" style="fill: #0ec72a; opacity: 0.65; stroke: #0ec72a; stroke-linejoin: miter"/>
    </g>
    <g id="text_16">
     <!-- female (n=19) -->
     <g transform="translate(82.511875 83.5425) scale(0.12 -0.12)">
      <defs>
       <path id="DejaVuSans-39" d="M 703 97 
L 703 672 
Q 941 559 1184 500 
Q 1428 441 1663 441 
Q 2288 441 2617 861 
Q 2947 1281 2994 2138 
Q 2813 1869 2534 1725 
Q 2256 1581 1919 1581 
Q 1219 1581 811 2004 
Q 403 2428 403 3163 
Q 403 3881 828 4315 
Q 1253 4750 1959 4750 
Q 2769 4750 3195 4129 
Q 3622 3509 3622 2328 
Q 3622 1225 3098 567 
Q 2575 -91 1691 -91 
Q 1453 -91 1209 -44 
Q 966 3 703 97 
z
M 1959 2075 
Q 2384 2075 2632 2365 
Q 2881 2656 2881 3163 
Q 2881 3666 2632 3958 
Q 2384 4250 1959 4250 
Q 1534 4250 1286 3958 
Q 1038 3666 1038 3163 
Q 1038 2656 1286 2365 
Q 1534 2075 1959 2075 
z
" transform="scale(0.015625)"/>
      </defs>
      <use xlink:href="#DejaVuSans-66"/>
      <use xlink:href="#DejaVuSans-65" x="35.205078"/>
      <use xlink:href="#DejaVuSans-6d" x="96.728516"/>
      <use xlink:href="#DejaVuSans-61" x="194.140625"/>
      <use xlink:href="#DejaVuSans-6c" x="255.419922"/>
      <use xlink:href="#DejaVuSans-65" x="283.203125"/>
      <use xlink:href="#DejaVuSans-20" x="344.726562"/>
      <use xlink:href="#DejaVuSans-28" x="376.513672"/>
      <use xlink:href="#DejaVuSans-6e" x="415.527344"/>
      <use xlink:href="#DejaVuSans-3d" x="478.90625"/>
      <use xlink:href="#DejaVuSans-31" x="562.695312"/>
      <use xlink:href="#DejaVuSans-39" x="626.318359"/>
      <use xlink:href="#DejaVuSans-29" x="689.941406"/>
     </g>
    </g>
   </g>
  </g>
 </g>
 <defs>
  <clipPath id="p6f480a4949">
   <rect x="38.111875" y="28.396875" width="379.44" height="332.64"/>
  </clipPath>
 </defs>
</svg>
