<?xml version="1.0" encoding="utf-8" standalone="no"?>
<!DOCTYPE svg PUBLIC "-//W3C//DTD SVG 1.1//EN"
  "http://www.w3.org/Graphics/SVG/1.1/DTD/svg11.dtd">
<svg xmlns:xlink="http://www.w3.org/1999/xlink" width="434.2925pt" height="402.464375pt" viewBox="0 0 434.2925 402.464375" xmlns="http://www.w3.org/2000/svg" version="1.1">
 <metadata>
  <rdf:RDF xmlns:dc="http://purl.org/dc/elements/1.1/" xmlns:cc="http://creativecommons.org/ns#" xmlns:rdf="http://www.w3.org/1999/02/22-rdf-syntax-ns#">
   <cc:Work>
    <dc:type rdf:resource="http://purl.org/dc/dcmitype/StillImage"/>
    <dc:date>2025-10-01T22:42:30.068446</dc:date>
    <dc:format>image/svg+xml</dc:format>
    <dc:creator>
     <cc:Agent>
      <dc:title>Matplotlib v3.8.4, https://matplotlib.org/</dc:title>
     </cc:Agent>
    </dc:creator>
   </cc:Work>
  </rdf:RDF>
 </metadata>
 <defs>
  <style type="text/css">*{stroke-linejoin: round; stroke-linecap: butt}</style>
 </defs>
 <g id="figure_1">
  <g id="patch_1">
   <path d="M 0 402.464375 
L 434.2925 402.464375 
L 434.2925 0 
L 0 0 
z
" style="fill: #ffffff"/>
  </g>
  <g id="axes_1">
   <g id="patch_2">
    <path d="M 47.6525 361.036875 
L 427.0925 361.036875 
L 427.0925 28.396875 
L 47.6525 28.396875 
z
" style="fill: #ffffff"/>
   </g>
   <g id="PolyCollection_1">
    <defs>
     <path id="m3855142c0d" d="M 118.828748 -56.860984 
L 102.956252 -56.860984 
L 102.664007 -58.951872 
L 102.374552 -61.04276 
L 102.087412 -63.133648 
L 101.801977 -65.224536 
L 101.517539 -67.315424 
L 101.233332 -69.406313 
L 100.948574 -71.497201 
L 100.662517 -73.588089 
L 100.374492 -75.678977 
L 100.083959 -77.769865 
L 99.790555 -79.860754 
L 99.494136 -81.951642 
L 99.194814 -84.04253 
L 98.892993 -86.133418 
L 98.589384 -88.224306 
L 98.285025 -90.315194 
L 97.981282 -92.406083 
L 97.679841 -94.496971 
L 97.38269 -96.587859 
L 97.09209 -98.678747 
L 96.810534 -100.769635 
L 96.540701 -102.860523 
L 96.285397 -104.951412 
L 96.047491 -107.0423 
L 95.829852 -109.133188 
L 95.635275 -111.224076 
L 95.466414 -113.314964 
L 95.325708 -115.405853 
L 95.215327 -117.496741 
L 95.137102 -119.587629 
L 95.092484 -121.678517 
L 95.0825 -123.769405 
L 95.107724 -125.860293 
L 95.168256 -127.951182 
L 95.263724 -130.04207 
L 95.39328 -132.132958 
L 95.555628 -134.223846 
L 95.74905 -136.314734 
L 95.971443 -138.405622 
L 96.220375 -140.496511 
L 96.493135 -142.587399 
L 96.786799 -144.678287 
L 97.09829 -146.769175 
L 97.424448 -148.860063 
L 97.762092 -150.950952 
L 98.108086 -153.04184 
L 98.459392 -155.132728 
L 98.813128 -157.223616 
L 99.166609 -159.314504 
L 99.517384 -161.405392 
L 99.863267 -163.496281 
L 100.202352 -165.587169 
L 100.533026 -167.678057 
L 100.853972 -169.768945 
L 101.164159 -171.859833 
L 101.462832 -173.950721 
L 101.749493 -176.04161 
L 102.023874 -178.132498 
L 102.285915 -180.223386 
L 102.535729 -182.314274 
L 102.773578 -184.405162 
L 102.999837 -186.496051 
L 103.214971 -188.586939 
L 103.419504 -190.677827 
L 103.614001 -192.768715 
L 103.799043 -194.859603 
L 103.975213 -196.950491 
L 104.143086 -199.04138 
L 104.303217 -201.132268 
L 104.456139 -203.223156 
L 104.602359 -205.314044 
L 104.742364 -207.404932 
L 104.876615 -209.495821 
L 105.005563 -211.586709 
L 105.129646 -213.677597 
L 105.249298 -215.768485 
L 105.364955 -217.859373 
L 105.477058 -219.950261 
L 105.58606 -222.04115 
L 105.692425 -224.132038 
L 105.796628 -226.222926 
L 105.899157 -228.313814 
L 106.000508 -230.404702 
L 106.101181 -232.49559 
L 106.201673 -234.586479 
L 106.30247 -236.677367 
L 106.404041 -238.768255 
L 106.506829 -240.859143 
L 106.61124 -242.950031 
L 106.717636 -245.04092 
L 106.826326 -247.131808 
L 106.937558 -249.222696 
L 107.051514 -251.313584 
L 107.168306 -253.404472 
L 107.287968 -255.49536 
L 107.410459 -257.586249 
L 107.535662 -259.677137 
L 107.663385 -261.768025 
L 107.793364 -263.858913 
L 113.991636 -263.858913 
L 113.991636 -263.858913 
L 114.121615 -261.768025 
L 114.249338 -259.677137 
L 114.374541 -257.586249 
L 114.497032 -255.49536 
L 114.616694 -253.404472 
L 114.733486 -251.313584 
L 114.847442 -249.222696 
L 114.958674 -247.131808 
L 115.067364 -245.04092 
L 115.17376 -242.950031 
L 115.278171 -240.859143 
L 115.380959 -238.768255 
L 115.48253 -236.677367 
L 115.583327 -234.586479 
L 115.683819 -232.49559 
L 115.784492 -230.404702 
L 115.885843 -228.313814 
L 115.988372 -226.222926 
L 116.092575 -224.132038 
L 116.19894 -222.04115 
L 116.307942 -219.950261 
L 116.420045 -217.859373 
L 116.535702 -215.768485 
L 116.655354 -213.677597 
L 116.779437 -211.586709 
L 116.908385 -209.495821 
L 117.042636 -207.404932 
L 117.182641 -205.314044 
L 117.328861 -203.223156 
L 117.481783 -201.132268 
L 117.641914 -199.04138 
L 117.809787 -196.950491 
L 117.985957 -194.859603 
L 118.170999 -192.768715 
L 118.365496 -190.677827 
L 118.570029 -188.586939 
L 118.785163 -186.496051 
L 119.011422 -184.405162 
L 119.249271 -182.314274 
L 119.499085 -180.223386 
L 119.761126 -178.132498 
L 120.035507 -176.04161 
L 120.322168 -173.950721 
L 120.620841 -171.859833 
L 120.931028 -169.768945 
L 121.251974 -167.678057 
L 121.582648 -165.587169 
L 121.921733 -163.496281 
L 122.267616 -161.405392 
L 122.618391 -159.314504 
L 122.971872 -157.223616 
L 123.325608 -155.132728 
L 123.676914 -153.04184 
L 124.022908 -150.950952 
L 124.360552 -148.860063 
L 124.68671 -146.769175 
L 124.998201 -144.678287 
L 125.291865 -142.587399 
L 125.564625 -140.496511 
L 125.813557 -138.405622 
L 126.03595 -136.314734 
L 126.229372 -134.223846 
L 126.39172 -132.132958 
L 126.521276 -130.04207 
L 126.616744 -127.951182 
L 126.677276 -125.860293 
L 126.7025 -123.769405 
L 126.692516 -121.678517 
L 126.647898 -119.587629 
L 126.569673 -117.496741 
L 126.459292 -115.405853 
L 126.318586 -113.314964 
L 126.149725 -111.224076 
L 125.955148 -109.133188 
L 125.737509 -107.0423 
L 125.499603 -104.951412 
L 125.244299 -102.860523 
L 124.974466 -100.769635 
L 124.69291 -98.678747 
L 124.40231 -96.587859 
L 124.105159 -94.496971 
L 123.803718 -92.406083 
L 123.499975 -90.315194 
L 123.195616 -88.224306 
L 122.892007 -86.133418 
L 122.590186 -84.04253 
L 122.290864 -81.951642 
L 121.994445 -79.860754 
L 121.701041 -77.769865 
L 121.410508 -75.678977 
L 121.122483 -73.588089 
L 120.836426 -71.497201 
L 120.551668 -69.406313 
L 120.267461 -67.315424 
L 119.983023 -65.224536 
L 119.697588 -63.133648 
L 119.410448 -61.04276 
L 119.120993 -58.951872 
L 118.828748 -56.860984 
z
" style="stroke: #000000; stroke-opacity: 0.65"/>
    </defs>
    <g clip-path="url(#p99192476b7)">
     <use xlink:href="#m3855142c0d" x="0" y="402.464375" style="fill: #425df5; fill-opacity: 0.65; stroke: #000000; stroke-opacity: 0.65"/>
    </g>
   </g>
   <g id="PolyCollection_2">
    <defs>
     <path id="m09125c6d76" d="M 247.289184 -56.5475 
L 227.455816 -56.5475 
L 226.943306 -58.21347 
L 226.439136 -59.87944 
L 225.946572 -61.545409 
L 225.468832 -63.211379 
L 225.009034 -64.877349 
L 224.570148 -66.543319 
L 224.154943 -68.209289 
L 223.765937 -69.875258 
L 223.405355 -71.541228 
L 223.075082 -73.207198 
L 222.776632 -74.873168 
L 222.511113 -76.539138 
L 222.279209 -78.205107 
L 222.08116 -79.871077 
L 221.916764 -81.537047 
L 221.785372 -83.203017 
L 221.68591 -84.868987 
L 221.6169 -86.534956 
L 221.57649 -88.200926 
L 221.5625 -89.866896 
L 221.572473 -91.532866 
L 221.60373 -93.198836 
L 221.653435 -94.864805 
L 221.718663 -96.530775 
L 221.796473 -98.196745 
L 221.883976 -99.862715 
L 221.978405 -101.528685 
L 222.077189 -103.194654 
L 222.178006 -104.860624 
L 222.278846 -106.526594 
L 222.378054 -108.192564 
L 222.474371 -109.858534 
L 222.566954 -111.524503 
L 222.655399 -113.190473 
L 222.739734 -114.856443 
L 222.820416 -116.522413 
L 222.898307 -118.188383 
L 222.974638 -119.854352 
L 223.050969 -121.520322 
L 223.129133 -123.186292 
L 223.211179 -124.852262 
L 223.299303 -126.518232 
L 223.395781 -128.184201 
L 223.502898 -129.850171 
L 223.622875 -131.516141 
L 223.757805 -133.182111 
L 223.909585 -134.848081 
L 224.079862 -136.51405 
L 224.269979 -138.18002 
L 224.480936 -139.84599 
L 224.713356 -141.51196 
L 224.967464 -143.17793 
L 225.243072 -144.843899 
L 225.539581 -146.509869 
L 225.855986 -148.175839 
L 226.190894 -149.841809 
L 226.542554 -151.507779 
L 226.908884 -153.173748 
L 227.287515 -154.839718 
L 227.67584 -156.505688 
L 228.071054 -158.171658 
L 228.470217 -159.837628 
L 228.870301 -161.503597 
L 229.268246 -163.169567 
L 229.661016 -164.835537 
L 230.045646 -166.501507 
L 230.419297 -168.167477 
L 230.779298 -169.833446 
L 231.123187 -171.499416 
L 231.448753 -173.165386 
L 231.754061 -174.831356 
L 232.037487 -176.497326 
L 232.297731 -178.163295 
L 232.533837 -179.829265 
L 232.745202 -181.495235 
L 232.931578 -183.161205 
L 233.093073 -184.827175 
L 233.230139 -186.493144 
L 233.343562 -188.159114 
L 233.434442 -189.825084 
L 233.504172 -191.491054 
L 233.554405 -193.157024 
L 233.58703 -194.822993 
L 233.604129 -196.488963 
L 233.607945 -198.154933 
L 233.600837 -199.820903 
L 233.585238 -201.486873 
L 233.563615 -203.152842 
L 233.538424 -204.818812 
L 233.512068 -206.484782 
L 233.486854 -208.150752 
L 233.464958 -209.816722 
L 233.44839 -211.482691 
L 233.438961 -213.148661 
L 233.438255 -214.814631 
L 233.447611 -216.480601 
L 233.468108 -218.14657 
L 233.500547 -219.81254 
L 233.545459 -221.47851 
L 241.199541 -221.47851 
L 241.199541 -221.47851 
L 241.244453 -219.81254 
L 241.276892 -218.14657 
L 241.297389 -216.480601 
L 241.306745 -214.814631 
L 241.306039 -213.148661 
L 241.29661 -211.482691 
L 241.280042 -209.816722 
L 241.258146 -208.150752 
L 241.232932 -206.484782 
L 241.206576 -204.818812 
L 241.181385 -203.152842 
L 241.159762 -201.486873 
L 241.144163 -199.820903 
L 241.137055 -198.154933 
L 241.140871 -196.488963 
L 241.15797 -194.822993 
L 241.190595 -193.157024 
L 241.240828 -191.491054 
L 241.310558 -189.825084 
L 241.401438 -188.159114 
L 241.514861 -186.493144 
L 241.651927 -184.827175 
L 241.813422 -183.161205 
L 241.999798 -181.495235 
L 242.211163 -179.829265 
L 242.447269 -178.163295 
L 242.707513 -176.497326 
L 242.990939 -174.831356 
L 243.296247 -173.165386 
L 243.621813 -171.499416 
L 243.965702 -169.833446 
L 244.325703 -168.167477 
L 244.699354 -166.501507 
L 245.083984 -164.835537 
L 245.476754 -163.169567 
L 245.874699 -161.503597 
L 246.274783 -159.837628 
L 246.673946 -158.171658 
L 247.06916 -156.505688 
L 247.457485 -154.839718 
L 247.836116 -153.173748 
L 248.202446 -151.507779 
L 248.554106 -149.841809 
L 248.889014 -148.175839 
L 249.205419 -146.509869 
L 249.501928 -144.843899 
L 249.777536 -143.17793 
L 250.031644 -141.51196 
L 250.264064 -139.84599 
L 250.475021 -138.18002 
L 250.665138 -136.51405 
L 250.835415 -134.848081 
L 250.987195 -133.182111 
L 251.122125 -131.516141 
L 251.242102 -129.850171 
L 251.349219 -128.184201 
L 251.445697 -126.518232 
L 251.533821 -124.852262 
L 251.615867 -123.186292 
L 251.694031 -121.520322 
L 251.770362 -119.854352 
L 251.846693 -118.188383 
L 251.924584 -116.522413 
L 252.005266 -114.856443 
L 252.089601 -113.190473 
L 252.178046 -111.524503 
L 252.270629 -109.858534 
L 252.366946 -108.192564 
L 252.466154 -106.526594 
L 252.566994 -104.860624 
L 252.667811 -103.194654 
L 252.766595 -101.528685 
L 252.861024 -99.862715 
L 252.948527 -98.196745 
L 253.026337 -96.530775 
L 253.091565 -94.864805 
L 253.14127 -93.198836 
L 253.172527 -91.532866 
L 253.1825 -89.866896 
L 253.16851 -88.200926 
L 253.1281 -86.534956 
L 253.05909 -84.868987 
L 252.959628 -83.203017 
L 252.828236 -81.537047 
L 252.66384 -79.871077 
L 252.465791 -78.205107 
L 252.233887 -76.539138 
L 251.968368 -74.873168 
L 251.669918 -73.207198 
L 251.339645 -71.541228 
L 250.979063 -69.875258 
L 250.590057 -68.209289 
L 250.174852 -66.543319 
L 249.735966 -64.877349 
L 249.276168 -63.211379 
L 248.798428 -61.545409 
L 248.305864 -59.87944 
L 247.801694 -58.21347 
L 247.289184 -56.5475 
z
" style="stroke: #000000; stroke-opacity: 0.65"/>
    </defs>
    <g clip-path="url(#p99192476b7)">
     <use xlink:href="#m09125c6d76" x="0" y="402.464375" style="fill: #f55442; fill-opacity: 0.65; stroke: #000000; stroke-opacity: 0.65"/>
    </g>
   </g>
   <g id="PolyCollection_3">
    <defs>
     <path id="mfc15660310" d="M 372.906225 -87.200182 
L 354.798775 -87.200182 
L 354.338131 -89.945104 
L 353.883059 -92.690027 
L 353.435813 -95.434949 
L 352.998548 -98.179871 
L 352.573288 -100.924794 
L 352.161898 -103.669716 
L 351.766059 -106.414639 
L 351.387251 -109.159561 
L 351.026739 -111.904483 
L 350.685566 -114.649406 
L 350.364551 -117.394328 
L 350.0643 -120.139251 
L 349.78521 -122.884173 
L 349.527493 -125.629095 
L 349.291195 -128.374018 
L 349.076226 -131.11894 
L 348.882386 -133.863863 
L 348.7094 -136.608785 
L 348.55695 -139.353708 
L 348.424705 -142.09863 
L 348.312356 -144.843552 
L 348.219637 -147.588475 
L 348.146351 -150.333397 
L 348.092391 -153.07832 
L 348.057743 -155.823242 
L 348.0425 -158.568164 
L 348.046854 -161.313087 
L 348.071093 -164.058009 
L 348.115579 -166.802932 
L 348.180735 -169.547854 
L 348.267014 -172.292776 
L 348.37487 -175.037699 
L 348.504726 -177.782621 
L 348.656936 -180.527544 
L 348.831755 -183.272466 
L 349.029301 -186.017388 
L 349.249525 -188.762311 
L 349.492182 -191.507233 
L 349.75681 -194.252156 
L 350.042712 -196.997078 
L 350.348943 -199.742 
L 350.67431 -202.486923 
L 351.017375 -205.231845 
L 351.37646 -207.976768 
L 351.749674 -210.72169 
L 352.134926 -213.466612 
L 352.529965 -216.211535 
L 352.932406 -218.956457 
L 353.33977 -221.70138 
L 353.749527 -224.446302 
L 354.159133 -227.191225 
L 354.566075 -229.936147 
L 354.967907 -232.681069 
L 355.362294 -235.425992 
L 355.747043 -238.170914 
L 356.120133 -240.915837 
L 356.479746 -243.660759 
L 356.824284 -246.405681 
L 357.152388 -249.150604 
L 357.462946 -251.895526 
L 357.755099 -254.640449 
L 358.028241 -257.385371 
L 358.282015 -260.130293 
L 358.516302 -262.875216 
L 358.731207 -265.620138 
L 358.927045 -268.365061 
L 359.104321 -271.109983 
L 359.263711 -273.854905 
L 359.406038 -276.599828 
L 359.532252 -279.34475 
L 359.643406 -282.089673 
L 359.740636 -284.834595 
L 359.825141 -287.579517 
L 359.898163 -290.32444 
L 359.960967 -293.069362 
L 360.014832 -295.814285 
L 360.061026 -298.559207 
L 360.100804 -301.304129 
L 360.13539 -304.049052 
L 360.16597 -306.793974 
L 360.193682 -309.538897 
L 360.219613 -312.283819 
L 360.244788 -315.028742 
L 360.270166 -317.773664 
L 360.29664 -320.518586 
L 360.325025 -323.263509 
L 360.356061 -326.008431 
L 360.390408 -328.753354 
L 360.428641 -331.498276 
L 360.47125 -334.243198 
L 360.518639 -336.988121 
L 360.571122 -339.733043 
L 360.628924 -342.477966 
L 360.692179 -345.222888 
L 360.760934 -347.96781 
L 360.835147 -350.712733 
L 360.914692 -353.457655 
L 360.999361 -356.202578 
L 361.088871 -358.9475 
L 366.616129 -358.9475 
L 366.616129 -358.9475 
L 366.705639 -356.202578 
L 366.790308 -353.457655 
L 366.869853 -350.712733 
L 366.944066 -347.96781 
L 367.012821 -345.222888 
L 367.076076 -342.477966 
L 367.133878 -339.733043 
L 367.186361 -336.988121 
L 367.23375 -334.243198 
L 367.276359 -331.498276 
L 367.314592 -328.753354 
L 367.348939 -326.008431 
L 367.379975 -323.263509 
L 367.40836 -320.518586 
L 367.434834 -317.773664 
L 367.460212 -315.028742 
L 367.485387 -312.283819 
L 367.511318 -309.538897 
L 367.53903 -306.793974 
L 367.56961 -304.049052 
L 367.604196 -301.304129 
L 367.643974 -298.559207 
L 367.690168 -295.814285 
L 367.744033 -293.069362 
L 367.806837 -290.32444 
L 367.879859 -287.579517 
L 367.964364 -284.834595 
L 368.061594 -282.089673 
L 368.172748 -279.34475 
L 368.298962 -276.599828 
L 368.441289 -273.854905 
L 368.600679 -271.109983 
L 368.777955 -268.365061 
L 368.973793 -265.620138 
L 369.188698 -262.875216 
L 369.422985 -260.130293 
L 369.676759 -257.385371 
L 369.949901 -254.640449 
L 370.242054 -251.895526 
L 370.552612 -249.150604 
L 370.880716 -246.405681 
L 371.225254 -243.660759 
L 371.584867 -240.915837 
L 371.957957 -238.170914 
L 372.342706 -235.425992 
L 372.737093 -232.681069 
L 373.138925 -229.936147 
L 373.545867 -227.191225 
L 373.955473 -224.446302 
L 374.36523 -221.70138 
L 374.772594 -218.956457 
L 375.175035 -216.211535 
L 375.570074 -213.466612 
L 375.955326 -210.72169 
L 376.32854 -207.976768 
L 376.687625 -205.231845 
L 377.03069 -202.486923 
L 377.356057 -199.742 
L 377.662288 -196.997078 
L 377.94819 -194.252156 
L 378.212818 -191.507233 
L 378.455475 -188.762311 
L 378.675699 -186.017388 
L 378.873245 -183.272466 
L 379.048064 -180.527544 
L 379.200274 -177.782621 
L 379.33013 -175.037699 
L 379.437986 -172.292776 
L 379.524265 -169.547854 
L 379.589421 -166.802932 
L 379.633907 -164.058009 
L 379.658146 -161.313087 
L 379.6625 -158.568164 
L 379.647257 -155.823242 
L 379.612609 -153.07832 
L 379.558649 -150.333397 
L 379.485363 -147.588475 
L 379.392644 -144.843552 
L 379.280295 -142.09863 
L 379.14805 -139.353708 
L 378.9956 -136.608785 
L 378.822614 -133.863863 
L 378.628774 -131.11894 
L 378.413805 -128.374018 
L 378.177507 -125.629095 
L 377.91979 -122.884173 
L 377.6407 -120.139251 
L 377.340449 -117.394328 
L 377.019434 -114.649406 
L 376.678261 -111.904483 
L 376.317749 -109.159561 
L 375.938941 -106.414639 
L 375.543102 -103.669716 
L 375.131712 -100.924794 
L 374.706452 -98.179871 
L 374.269187 -95.434949 
L 373.821941 -92.690027 
L 373.366869 -89.945104 
L 372.906225 -87.200182 
z
" style="stroke: #000000; stroke-opacity: 0.65"/>
    </defs>
    <g clip-path="url(#p99192476b7)">
     <use xlink:href="#mfc15660310" x="0" y="402.464375" style="fill: #0ec72a; fill-opacity: 0.65; stroke: #000000; stroke-opacity: 0.65"/>
    </g>
   </g>
   <g id="matplotlib.axis_1">
    <g id="xtick_1">
     <g id="line2d_1">
      <defs>
       <path id="ma5e6cfd7fb" d="M 0 0 
L 0 3.5 
" style="stroke: #000000; stroke-width: 0.8"/>
      </defs>
      <g>
       <use xlink:href="#ma5e6cfd7fb" x="110.8925" y="361.036875" style="stroke: #000000; stroke-width: 0.8"/>
      </g>
     </g>
     <g id="text_1">
      <!-- cask -->
      <g transform="translate(99.579219 375.635312) scale(0.1 -0.1)">
       <defs>
        <path id="DejaVuSans-63" d="M 3122 3366 
L 3122 2828 
Q 2878 2963 2633 3030 
Q 2388 3097 2138 3097 
Q 1578 3097 1268 2742 
Q 959 2388 959 1747 
Q 959 1106 1268 751 
Q 1578 397 2138 397 
Q 2388 397 2633 464 
Q 2878 531 3122 666 
L 3122 134 
Q 2881 22 2623 -34 
Q 2366 -91 2075 -91 
Q 1284 -91 818 406 
Q 353 903 353 1747 
Q 353 2603 823 3093 
Q 1294 3584 2113 3584 
Q 2378 3584 2631 3529 
Q 2884 3475 3122 3366 
z
" transform="scale(0.015625)"/>
        <path id="DejaVuSans-61" d="M 2194 1759 
Q 1497 1759 1228 1600 
Q 959 1441 959 1056 
Q 959 750 1161 570 
Q 1363 391 1709 391 
Q 2188 391 2477 730 
Q 2766 1069 2766 1631 
L 2766 1759 
L 2194 1759 
z
M 3341 1997 
L 3341 0 
L 2766 0 
L 2766 531 
Q 2569 213 2275 61 
Q 1981 -91 1556 -91 
Q 1019 -91 701 211 
Q 384 513 384 1019 
Q 384 1609 779 1909 
Q 1175 2209 1959 2209 
L 2766 2209 
L 2766 2266 
Q 2766 2663 2505 2880 
Q 2244 3097 1772 3097 
Q 1472 3097 1187 3025 
Q 903 2953 641 2809 
L 641 3341 
Q 956 3463 1253 3523 
Q 1550 3584 1831 3584 
Q 2591 3584 2966 3190 
Q 3341 2797 3341 1997 
z
" transform="scale(0.015625)"/>
        <path id="DejaVuSans-73" d="M 2834 3397 
L 2834 2853 
Q 2591 2978 2328 3040 
Q 2066 3103 1784 3103 
Q 1356 3103 1142 2972 
Q 928 2841 928 2578 
Q 928 2378 1081 2264 
Q 1234 2150 1697 2047 
L 1894 2003 
Q 2506 1872 2764 1633 
Q 3022 1394 3022 966 
Q 3022 478 2636 193 
Q 2250 -91 1575 -91 
Q 1294 -91 989 -36 
Q 684 19 347 128 
L 347 722 
Q 666 556 975 473 
Q 1284 391 1588 391 
Q 1994 391 2212 530 
Q 2431 669 2431 922 
Q 2431 1156 2273 1281 
Q 2116 1406 1581 1522 
L 1381 1569 
Q 847 1681 609 1914 
Q 372 2147 372 2553 
Q 372 3047 722 3315 
Q 1072 3584 1716 3584 
Q 2034 3584 2315 3537 
Q 2597 3491 2834 3397 
z
" transform="scale(0.015625)"/>
        <path id="DejaVuSans-6b" d="M 581 4863 
L 1159 4863 
L 1159 1991 
L 2875 3500 
L 3609 3500 
L 1753 1863 
L 3688 0 
L 2938 0 
L 1159 1709 
L 1159 0 
L 581 0 
L 581 4863 
z
" transform="scale(0.015625)"/>
       </defs>
       <use xlink:href="#DejaVuSans-63"/>
       <use xlink:href="#DejaVuSans-61" x="54.980469"/>
       <use xlink:href="#DejaVuSans-73" x="116.259766"/>
       <use xlink:href="#DejaVuSans-6b" x="168.359375"/>
      </g>
     </g>
    </g>
    <g id="xtick_2">
     <g id="line2d_2">
      <g>
       <use xlink:href="#ma5e6cfd7fb" x="237.3725" y="361.036875" style="stroke: #000000; stroke-width: 0.8"/>
      </g>
     </g>
     <g id="text_2">
      <!-- ctrl -->
      <g transform="translate(229.218594 375.635312) scale(0.1 -0.1)">
       <defs>
        <path id="DejaVuSans-74" d="M 1172 4494 
L 1172 3500 
L 2356 3500 
L 2356 3053 
L 1172 3053 
L 1172 1153 
Q 1172 725 1289 603 
Q 1406 481 1766 481 
L 2356 481 
L 2356 0 
L 1766 0 
Q 1100 0 847 248 
Q 594 497 594 1153 
L 594 3053 
L 172 3053 
L 172 3500 
L 594 3500 
L 594 4494 
L 1172 4494 
z
" transform="scale(0.015625)"/>
        <path id="DejaVuSans-72" d="M 2631 2963 
Q 2534 3019 2420 3045 
Q 2306 3072 2169 3072 
Q 1681 3072 1420 2755 
Q 1159 2438 1159 1844 
L 1159 0 
L 581 0 
L 581 3500 
L 1159 3500 
L 1159 2956 
Q 1341 3275 1631 3429 
Q 1922 3584 2338 3584 
Q 2397 3584 2469 3576 
Q 2541 3569 2628 3553 
L 2631 2963 
z
" transform="scale(0.015625)"/>
        <path id="DejaVuSans-6c" d="M 603 4863 
L 1178 4863 
L 1178 0 
L 603 0 
L 603 4863 
z
" transform="scale(0.015625)"/>
       </defs>
       <use xlink:href="#DejaVuSans-63"/>
       <use xlink:href="#DejaVuSans-74" x="54.980469"/>
       <use xlink:href="#DejaVuSans-72" x="94.189453"/>
       <use xlink:href="#DejaVuSans-6c" x="135.302734"/>
      </g>
     </g>
    </g>
    <g id="xtick_3">
     <g id="line2d_3">
      <g>
       <use xlink:href="#ma5e6cfd7fb" x="363.8525" y="361.036875" style="stroke: #000000; stroke-width: 0.8"/>
      </g>
     </g>
     <g id="text_3">
      <!-- female -->
      <g transform="translate(346.615781 375.635312) scale(0.1 -0.1)">
       <defs>
        <path id="DejaVuSans-66" d="M 2375 4863 
L 2375 4384 
L 1825 4384 
Q 1516 4384 1395 4259 
Q 1275 4134 1275 3809 
L 1275 3500 
L 2222 3500 
L 2222 3053 
L 1275 3053 
L 1275 0 
L 697 0 
L 697 3053 
L 147 3053 
L 147 3500 
L 697 3500 
L 697 3744 
Q 697 4328 969 4595 
Q 1241 4863 1831 4863 
L 2375 4863 
z
" transform="scale(0.015625)"/>
        <path id="DejaVuSans-65" d="M 3597 1894 
L 3597 1613 
L 953 1613 
Q 991 1019 1311 708 
Q 1631 397 2203 397 
Q 2534 397 2845 478 
Q 3156 559 3463 722 
L 3463 178 
Q 3153 47 2828 -22 
Q 2503 -91 2169 -91 
Q 1331 -91 842 396 
Q 353 884 353 1716 
Q 353 2575 817 3079 
Q 1281 3584 2069 3584 
Q 2775 3584 3186 3129 
Q 3597 2675 3597 1894 
z
M 3022 2063 
Q 3016 2534 2758 2815 
Q 2500 3097 2075 3097 
Q 1594 3097 1305 2825 
Q 1016 2553 972 2059 
L 3022 2063 
z
" transform="scale(0.015625)"/>
        <path id="DejaVuSans-6d" d="M 3328 2828 
Q 3544 3216 3844 3400 
Q 4144 3584 4550 3584 
Q 5097 3584 5394 3201 
Q 5691 2819 5691 2113 
L 5691 0 
L 5113 0 
L 5113 2094 
Q 5113 2597 4934 2840 
Q 4756 3084 4391 3084 
Q 3944 3084 3684 2787 
Q 3425 2491 3425 1978 
L 3425 0 
L 2847 0 
L 2847 2094 
Q 2847 2600 2669 2842 
Q 2491 3084 2119 3084 
Q 1678 3084 1418 2786 
Q 1159 2488 1159 1978 
L 1159 0 
L 581 0 
L 581 3500 
L 1159 3500 
L 1159 2956 
Q 1356 3278 1631 3431 
Q 1906 3584 2284 3584 
Q 2666 3584 2933 3390 
Q 3200 3197 3328 2828 
z
" transform="scale(0.015625)"/>
       </defs>
       <use xlink:href="#DejaVuSans-66"/>
       <use xlink:href="#DejaVuSans-65" x="35.205078"/>
       <use xlink:href="#DejaVuSans-6d" x="96.728516"/>
       <use xlink:href="#DejaVuSans-61" x="194.140625"/>
       <use xlink:href="#DejaVuSans-6c" x="255.419922"/>
       <use xlink:href="#DejaVuSans-65" x="283.203125"/>
      </g>
     </g>
    </g>
    <g id="text_4">
     <!-- Groups -->
     <g transform="translate(212.418594 392.352812) scale(0.14 -0.14)">
      <defs>
       <path id="DejaVuSans-47" d="M 3809 666 
L 3809 1919 
L 2778 1919 
L 2778 2438 
L 4434 2438 
L 4434 434 
Q 4069 175 3628 42 
Q 3188 -91 2688 -91 
Q 1594 -91 976 548 
Q 359 1188 359 2328 
Q 359 3472 976 4111 
Q 1594 4750 2688 4750 
Q 3144 4750 3555 4637 
Q 3966 4525 4313 4306 
L 4313 3634 
Q 3963 3931 3569 4081 
Q 3175 4231 2741 4231 
Q 1884 4231 1454 3753 
Q 1025 3275 1025 2328 
Q 1025 1384 1454 906 
Q 1884 428 2741 428 
Q 3075 428 3337 486 
Q 3600 544 3809 666 
z
" transform="scale(0.015625)"/>
       <path id="DejaVuSans-6f" d="M 1959 3097 
Q 1497 3097 1228 2736 
Q 959 2375 959 1747 
Q 959 1119 1226 758 
Q 1494 397 1959 397 
Q 2419 397 2687 759 
Q 2956 1122 2956 1747 
Q 2956 2369 2687 2733 
Q 2419 3097 1959 3097 
z
M 1959 3584 
Q 2709 3584 3137 3096 
Q 3566 2609 3566 1747 
Q 3566 888 3137 398 
Q 2709 -91 1959 -91 
Q 1206 -91 779 398 
Q 353 888 353 1747 
Q 353 2609 779 3096 
Q 1206 3584 1959 3584 
z
" transform="scale(0.015625)"/>
       <path id="DejaVuSans-75" d="M 544 1381 
L 544 3500 
L 1119 3500 
L 1119 1403 
Q 1119 906 1312 657 
Q 1506 409 1894 409 
Q 2359 409 2629 706 
Q 2900 1003 2900 1516 
L 2900 3500 
L 3475 3500 
L 3475 0 
L 2900 0 
L 2900 538 
Q 2691 219 2414 64 
Q 2138 -91 1772 -91 
Q 1169 -91 856 284 
Q 544 659 544 1381 
z
M 1991 3584 
L 1991 3584 
z
" transform="scale(0.015625)"/>
       <path id="DejaVuSans-70" d="M 1159 525 
L 1159 -1331 
L 581 -1331 
L 581 3500 
L 1159 3500 
L 1159 2969 
Q 1341 3281 1617 3432 
Q 1894 3584 2278 3584 
Q 2916 3584 3314 3078 
Q 3713 2572 3713 1747 
Q 3713 922 3314 415 
Q 2916 -91 2278 -91 
Q 1894 -91 1617 61 
Q 1341 213 1159 525 
z
M 3116 1747 
Q 3116 2381 2855 2742 
Q 2594 3103 2138 3103 
Q 1681 3103 1420 2742 
Q 1159 2381 1159 1747 
Q 1159 1113 1420 752 
Q 1681 391 2138 391 
Q 2594 391 2855 752 
Q 3116 1113 3116 1747 
z
" transform="scale(0.015625)"/>
      </defs>
      <use xlink:href="#DejaVuSans-47"/>
      <use xlink:href="#DejaVuSans-72" x="77.490234"/>
      <use xlink:href="#DejaVuSans-6f" x="116.353516"/>
      <use xlink:href="#DejaVuSans-75" x="177.535156"/>
      <use xlink:href="#DejaVuSans-70" x="240.914062"/>
      <use xlink:href="#DejaVuSans-73" x="304.390625"/>
     </g>
    </g>
   </g>
   <g id="matplotlib.axis_2">
    <g id="ytick_1">
     <g id="line2d_4">
      <path d="M 47.6525 347.329698 
L 427.0925 347.329698 
" clip-path="url(#p99192476b7)" style="fill: none; stroke-dasharray: 2.96,1.28; stroke-dashoffset: 0; stroke: #b0b0b0; stroke-opacity: 0.3; stroke-width: 0.8"/>
     </g>
     <g id="line2d_5">
      <defs>
       <path id="md33e2d9179" d="M 0 0 
L -3.5 0 
" style="stroke: #000000; stroke-width: 0.8"/>
      </defs>
      <g>
       <use xlink:href="#md33e2d9179" x="47.6525" y="347.329698" style="stroke: #000000; stroke-width: 0.8"/>
      </g>
     </g>
     <g id="text_5">
      <!-- 0.0 -->
      <g transform="translate(24.749375 351.128917) scale(0.1 -0.1)">
       <defs>
        <path id="DejaVuSans-30" d="M 2034 4250 
Q 1547 4250 1301 3770 
Q 1056 3291 1056 2328 
Q 1056 1369 1301 889 
Q 1547 409 2034 409 
Q 2525 409 2770 889 
Q 3016 1369 3016 2328 
Q 3016 3291 2770 3770 
Q 2525 4250 2034 4250 
z
M 2034 4750 
Q 2819 4750 3233 4129 
Q 3647 3509 3647 2328 
Q 3647 1150 3233 529 
Q 2819 -91 2034 -91 
Q 1250 -91 836 529 
Q 422 1150 422 2328 
Q 422 3509 836 4129 
Q 1250 4750 2034 4750 
z
" transform="scale(0.015625)"/>
        <path id="DejaVuSans-2e" d="M 684 794 
L 1344 794 
L 1344 0 
L 684 0 
L 684 794 
z
" transform="scale(0.015625)"/>
       </defs>
       <use xlink:href="#DejaVuSans-30"/>
       <use xlink:href="#DejaVuSans-2e" x="63.623047"/>
       <use xlink:href="#DejaVuSans-30" x="95.410156"/>
      </g>
     </g>
    </g>
    <g id="ytick_2">
     <g id="line2d_6">
      <path d="M 47.6525 308.681038 
L 427.0925 308.681038 
" clip-path="url(#p99192476b7)" style="fill: none; stroke-dasharray: 2.96,1.28; stroke-dashoffset: 0; stroke: #b0b0b0; stroke-opacity: 0.3; stroke-width: 0.8"/>
     </g>
     <g id="line2d_7">
      <g>
       <use xlink:href="#md33e2d9179" x="47.6525" y="308.681038" style="stroke: #000000; stroke-width: 0.8"/>
      </g>
     </g>
     <g id="text_6">
      <!-- 0.5 -->
      <g transform="translate(24.749375 312.480257) scale(0.1 -0.1)">
       <defs>
        <path id="DejaVuSans-35" d="M 691 4666 
L 3169 4666 
L 3169 4134 
L 1269 4134 
L 1269 2991 
Q 1406 3038 1543 3061 
Q 1681 3084 1819 3084 
Q 2600 3084 3056 2656 
Q 3513 2228 3513 1497 
Q 3513 744 3044 326 
Q 2575 -91 1722 -91 
Q 1428 -91 1123 -41 
Q 819 9 494 109 
L 494 744 
Q 775 591 1075 516 
Q 1375 441 1709 441 
Q 2250 441 2565 725 
Q 2881 1009 2881 1497 
Q 2881 1984 2565 2268 
Q 2250 2553 1709 2553 
Q 1456 2553 1204 2497 
Q 953 2441 691 2322 
L 691 4666 
z
" transform="scale(0.015625)"/>
       </defs>
       <use xlink:href="#DejaVuSans-30"/>
       <use xlink:href="#DejaVuSans-2e" x="63.623047"/>
       <use xlink:href="#DejaVuSans-35" x="95.410156"/>
      </g>
     </g>
    </g>
    <g id="ytick_3">
     <g id="line2d_8">
      <path d="M 47.6525 270.032378 
L 427.0925 270.032378 
" clip-path="url(#p99192476b7)" style="fill: none; stroke-dasharray: 2.96,1.28; stroke-dashoffset: 0; stroke: #b0b0b0; stroke-opacity: 0.3; stroke-width: 0.8"/>
     </g>
     <g id="line2d_9">
      <g>
       <use xlink:href="#md33e2d9179" x="47.6525" y="270.032378" style="stroke: #000000; stroke-width: 0.8"/>
      </g>
     </g>
     <g id="text_7">
      <!-- 1.0 -->
      <g transform="translate(24.749375 273.831597) scale(0.1 -0.1)">
       <defs>
        <path id="DejaVuSans-31" d="M 794 531 
L 1825 531 
L 1825 4091 
L 703 3866 
L 703 4441 
L 1819 4666 
L 2450 4666 
L 2450 531 
L 3481 531 
L 3481 0 
L 794 0 
L 794 531 
z
" transform="scale(0.015625)"/>
       </defs>
       <use xlink:href="#DejaVuSans-31"/>
       <use xlink:href="#DejaVuSans-2e" x="63.623047"/>
       <use xlink:href="#DejaVuSans-30" x="95.410156"/>
      </g>
     </g>
    </g>
    <g id="ytick_4">
     <g id="line2d_10">
      <path d="M 47.6525 231.383718 
L 427.0925 231.383718 
" clip-path="url(#p99192476b7)" style="fill: none; stroke-dasharray: 2.96,1.28; stroke-dashoffset: 0; stroke: #b0b0b0; stroke-opacity: 0.3; stroke-width: 0.8"/>
     </g>
     <g id="line2d_11">
      <g>
       <use xlink:href="#md33e2d9179" x="47.6525" y="231.383718" style="stroke: #000000; stroke-width: 0.8"/>
      </g>
     </g>
     <g id="text_8">
      <!-- 1.5 -->
      <g transform="translate(24.749375 235.182937) scale(0.1 -0.1)">
       <use xlink:href="#DejaVuSans-31"/>
       <use xlink:href="#DejaVuSans-2e" x="63.623047"/>
       <use xlink:href="#DejaVuSans-35" x="95.410156"/>
      </g>
     </g>
    </g>
    <g id="ytick_5">
     <g id="line2d_12">
      <path d="M 47.6525 192.735058 
L 427.0925 192.735058 
" clip-path="url(#p99192476b7)" style="fill: none; stroke-dasharray: 2.96,1.28; stroke-dashoffset: 0; stroke: #b0b0b0; stroke-opacity: 0.3; stroke-width: 0.8"/>
     </g>
     <g id="line2d_13">
      <g>
       <use xlink:href="#md33e2d9179" x="47.6525" y="192.735058" style="stroke: #000000; stroke-width: 0.8"/>
      </g>
     </g>
     <g id="text_9">
      <!-- 2.0 -->
      <g transform="translate(24.749375 196.534276) scale(0.1 -0.1)">
       <defs>
        <path id="DejaVuSans-32" d="M 1228 531 
L 3431 531 
L 3431 0 
L 469 0 
L 469 531 
Q 828 903 1448 1529 
Q 2069 2156 2228 2338 
Q 2531 2678 2651 2914 
Q 2772 3150 2772 3378 
Q 2772 3750 2511 3984 
Q 2250 4219 1831 4219 
Q 1534 4219 1204 4116 
Q 875 4013 500 3803 
L 500 4441 
Q 881 4594 1212 4672 
Q 1544 4750 1819 4750 
Q 2544 4750 2975 4387 
Q 3406 4025 3406 3419 
Q 3406 3131 3298 2873 
Q 3191 2616 2906 2266 
Q 2828 2175 2409 1742 
Q 1991 1309 1228 531 
z
" transform="scale(0.015625)"/>
       </defs>
       <use xlink:href="#DejaVuSans-32"/>
       <use xlink:href="#DejaVuSans-2e" x="63.623047"/>
       <use xlink:href="#DejaVuSans-30" x="95.410156"/>
      </g>
     </g>
    </g>
    <g id="ytick_6">
     <g id="line2d_14">
      <path d="M 47.6525 154.086397 
L 427.0925 154.086397 
" clip-path="url(#p99192476b7)" style="fill: none; stroke-dasharray: 2.96,1.28; stroke-dashoffset: 0; stroke: #b0b0b0; stroke-opacity: 0.3; stroke-width: 0.8"/>
     </g>
     <g id="line2d_15">
      <g>
       <use xlink:href="#md33e2d9179" x="47.6525" y="154.086397" style="stroke: #000000; stroke-width: 0.8"/>
      </g>
     </g>
     <g id="text_10">
      <!-- 2.5 -->
      <g transform="translate(24.749375 157.885616) scale(0.1 -0.1)">
       <use xlink:href="#DejaVuSans-32"/>
       <use xlink:href="#DejaVuSans-2e" x="63.623047"/>
       <use xlink:href="#DejaVuSans-35" x="95.410156"/>
      </g>
     </g>
    </g>
    <g id="ytick_7">
     <g id="line2d_16">
      <path d="M 47.6525 115.437737 
L 427.0925 115.437737 
" clip-path="url(#p99192476b7)" style="fill: none; stroke-dasharray: 2.96,1.28; stroke-dashoffset: 0; stroke: #b0b0b0; stroke-opacity: 0.3; stroke-width: 0.8"/>
     </g>
     <g id="line2d_17">
      <g>
       <use xlink:href="#md33e2d9179" x="47.6525" y="115.437737" style="stroke: #000000; stroke-width: 0.8"/>
      </g>
     </g>
     <g id="text_11">
      <!-- 3.0 -->
      <g transform="translate(24.749375 119.236956) scale(0.1 -0.1)">
       <defs>
        <path id="DejaVuSans-33" d="M 2597 2516 
Q 3050 2419 3304 2112 
Q 3559 1806 3559 1356 
Q 3559 666 3084 287 
Q 2609 -91 1734 -91 
Q 1441 -91 1130 -33 
Q 819 25 488 141 
L 488 750 
Q 750 597 1062 519 
Q 1375 441 1716 441 
Q 2309 441 2620 675 
Q 2931 909 2931 1356 
Q 2931 1769 2642 2001 
Q 2353 2234 1838 2234 
L 1294 2234 
L 1294 2753 
L 1863 2753 
Q 2328 2753 2575 2939 
Q 2822 3125 2822 3475 
Q 2822 3834 2567 4026 
Q 2313 4219 1838 4219 
Q 1578 4219 1281 4162 
Q 984 4106 628 3988 
L 628 4550 
Q 988 4650 1302 4700 
Q 1616 4750 1894 4750 
Q 2613 4750 3031 4423 
Q 3450 4097 3450 3541 
Q 3450 3153 3228 2886 
Q 3006 2619 2597 2516 
z
" transform="scale(0.015625)"/>
       </defs>
       <use xlink:href="#DejaVuSans-33"/>
       <use xlink:href="#DejaVuSans-2e" x="63.623047"/>
       <use xlink:href="#DejaVuSans-30" x="95.410156"/>
      </g>
     </g>
    </g>
    <g id="ytick_8">
     <g id="line2d_18">
      <path d="M 47.6525 76.789077 
L 427.0925 76.789077 
" clip-path="url(#p99192476b7)" style="fill: none; stroke-dasharray: 2.96,1.28; stroke-dashoffset: 0; stroke: #b0b0b0; stroke-opacity: 0.3; stroke-width: 0.8"/>
     </g>
     <g id="line2d_19">
      <g>
       <use xlink:href="#md33e2d9179" x="47.6525" y="76.789077" style="stroke: #000000; stroke-width: 0.8"/>
      </g>
     </g>
     <g id="text_12">
      <!-- 3.5 -->
      <g transform="translate(24.749375 80.588296) scale(0.1 -0.1)">
       <use xlink:href="#DejaVuSans-33"/>
       <use xlink:href="#DejaVuSans-2e" x="63.623047"/>
       <use xlink:href="#DejaVuSans-35" x="95.410156"/>
      </g>
     </g>
    </g>
    <g id="ytick_9">
     <g id="line2d_20">
      <path d="M 47.6525 38.140417 
L 427.0925 38.140417 
" clip-path="url(#p99192476b7)" style="fill: none; stroke-dasharray: 2.96,1.28; stroke-dashoffset: 0; stroke: #b0b0b0; stroke-opacity: 0.3; stroke-width: 0.8"/>
     </g>
     <g id="line2d_21">
      <g>
       <use xlink:href="#md33e2d9179" x="47.6525" y="38.140417" style="stroke: #000000; stroke-width: 0.8"/>
      </g>
     </g>
     <g id="text_13">
      <!-- 4.0 -->
      <g transform="translate(24.749375 41.939636) scale(0.1 -0.1)">
       <defs>
        <path id="DejaVuSans-34" d="M 2419 4116 
L 825 1625 
L 2419 1625 
L 2419 4116 
z
M 2253 4666 
L 3047 4666 
L 3047 1625 
L 3713 1625 
L 3713 1100 
L 3047 1100 
L 3047 0 
L 2419 0 
L 2419 1100 
L 313 1100 
L 313 1709 
L 2253 4666 
z
" transform="scale(0.015625)"/>
       </defs>
       <use xlink:href="#DejaVuSans-34"/>
       <use xlink:href="#DejaVuSans-2e" x="63.623047"/>
       <use xlink:href="#DejaVuSans-30" x="95.410156"/>
      </g>
     </g>
    </g>
    <g id="text_14">
     <!-- Reversal First Meal Time (hours) -->
     <g transform="translate(17.837813 307.262656) rotate(-90) scale(0.14 -0.14)">
      <defs>
       <path id="DejaVuSans-52" d="M 2841 2188 
Q 3044 2119 3236 1894 
Q 3428 1669 3622 1275 
L 4263 0 
L 3584 0 
L 2988 1197 
Q 2756 1666 2539 1819 
Q 2322 1972 1947 1972 
L 1259 1972 
L 1259 0 
L 628 0 
L 628 4666 
L 2053 4666 
Q 2853 4666 3247 4331 
Q 3641 3997 3641 3322 
Q 3641 2881 3436 2590 
Q 3231 2300 2841 2188 
z
M 1259 4147 
L 1259 2491 
L 2053 2491 
Q 2509 2491 2742 2702 
Q 2975 2913 2975 3322 
Q 2975 3731 2742 3939 
Q 2509 4147 2053 4147 
L 1259 4147 
z
" transform="scale(0.015625)"/>
       <path id="DejaVuSans-76" d="M 191 3500 
L 800 3500 
L 1894 563 
L 2988 3500 
L 3597 3500 
L 2284 0 
L 1503 0 
L 191 3500 
z
" transform="scale(0.015625)"/>
       <path id="DejaVuSans-20" transform="scale(0.015625)"/>
       <path id="DejaVuSans-46" d="M 628 4666 
L 3309 4666 
L 3309 4134 
L 1259 4134 
L 1259 2759 
L 3109 2759 
L 3109 2228 
L 1259 2228 
L 1259 0 
L 628 0 
L 628 4666 
z
" transform="scale(0.015625)"/>
       <path id="DejaVuSans-69" d="M 603 3500 
L 1178 3500 
L 1178 0 
L 603 0 
L 603 3500 
z
M 603 4863 
L 1178 4863 
L 1178 4134 
L 603 4134 
L 603 4863 
z
" transform="scale(0.015625)"/>
       <path id="DejaVuSans-4d" d="M 628 4666 
L 1569 4666 
L 2759 1491 
L 3956 4666 
L 4897 4666 
L 4897 0 
L 4281 0 
L 4281 4097 
L 3078 897 
L 2444 897 
L 1241 4097 
L 1241 0 
L 628 0 
L 628 4666 
z
" transform="scale(0.015625)"/>
       <path id="DejaVuSans-54" d="M -19 4666 
L 3928 4666 
L 3928 4134 
L 2272 4134 
L 2272 0 
L 1638 0 
L 1638 4134 
L -19 4134 
L -19 4666 
z
" transform="scale(0.015625)"/>
       <path id="DejaVuSans-28" d="M 1984 4856 
Q 1566 4138 1362 3434 
Q 1159 2731 1159 2009 
Q 1159 1288 1364 580 
Q 1569 -128 1984 -844 
L 1484 -844 
Q 1016 -109 783 600 
Q 550 1309 550 2009 
Q 550 2706 781 3412 
Q 1013 4119 1484 4856 
L 1984 4856 
z
" transform="scale(0.015625)"/>
       <path id="DejaVuSans-68" d="M 3513 2113 
L 3513 0 
L 2938 0 
L 2938 2094 
Q 2938 2591 2744 2837 
Q 2550 3084 2163 3084 
Q 1697 3084 1428 2787 
Q 1159 2491 1159 1978 
L 1159 0 
L 581 0 
L 581 4863 
L 1159 4863 
L 1159 2956 
Q 1366 3272 1645 3428 
Q 1925 3584 2291 3584 
Q 2894 3584 3203 3211 
Q 3513 2838 3513 2113 
z
" transform="scale(0.015625)"/>
       <path id="DejaVuSans-29" d="M 513 4856 
L 1013 4856 
Q 1481 4119 1714 3412 
Q 1947 2706 1947 2009 
Q 1947 1309 1714 600 
Q 1481 -109 1013 -844 
L 513 -844 
Q 928 -128 1133 580 
Q 1338 1288 1338 2009 
Q 1338 2731 1133 3434 
Q 928 4138 513 4856 
z
" transform="scale(0.015625)"/>
      </defs>
      <use xlink:href="#DejaVuSans-52"/>
      <use xlink:href="#DejaVuSans-65" x="64.982422"/>
      <use xlink:href="#DejaVuSans-76" x="126.505859"/>
      <use xlink:href="#DejaVuSans-65" x="185.685547"/>
      <use xlink:href="#DejaVuSans-72" x="247.208984"/>
      <use xlink:href="#DejaVuSans-73" x="288.322266"/>
      <use xlink:href="#DejaVuSans-61" x="340.421875"/>
      <use xlink:href="#DejaVuSans-6c" x="401.701172"/>
      <use xlink:href="#DejaVuSans-20" x="429.484375"/>
      <use xlink:href="#DejaVuSans-46" x="461.271484"/>
      <use xlink:href="#DejaVuSans-69" x="511.541016"/>
      <use xlink:href="#DejaVuSans-72" x="539.324219"/>
      <use xlink:href="#DejaVuSans-73" x="580.4375"/>
      <use xlink:href="#DejaVuSans-74" x="632.537109"/>
      <use xlink:href="#DejaVuSans-20" x="671.746094"/>
      <use xlink:href="#DejaVuSans-4d" x="703.533203"/>
      <use xlink:href="#DejaVuSans-65" x="789.8125"/>
      <use xlink:href="#DejaVuSans-61" x="851.335938"/>
      <use xlink:href="#DejaVuSans-6c" x="912.615234"/>
      <use xlink:href="#DejaVuSans-20" x="940.398438"/>
      <use xlink:href="#DejaVuSans-54" x="972.185547"/>
      <use xlink:href="#DejaVuSans-69" x="1030.144531"/>
      <use xlink:href="#DejaVuSans-6d" x="1057.927734"/>
      <use xlink:href="#DejaVuSans-65" x="1155.339844"/>
      <use xlink:href="#DejaVuSans-20" x="1216.863281"/>
      <use xlink:href="#DejaVuSans-28" x="1248.650391"/>
      <use xlink:href="#DejaVuSans-68" x="1287.664062"/>
      <use xlink:href="#DejaVuSans-6f" x="1351.042969"/>
      <use xlink:href="#DejaVuSans-75" x="1412.224609"/>
      <use xlink:href="#DejaVuSans-72" x="1475.603516"/>
      <use xlink:href="#DejaVuSans-73" x="1516.716797"/>
      <use xlink:href="#DejaVuSans-29" x="1568.816406"/>
     </g>
    </g>
   </g>
   <g id="patch_3">
    <path d="M 101.4065 299.306591 
L 120.3785 299.306591 
L 120.3785 232.047186 
L 101.4065 232.047186 
L 101.4065 299.306591 
z
" clip-path="url(#p99192476b7)" style="fill: #ffffff; stroke: #000000; stroke-linejoin: miter"/>
   </g>
   <g id="line2d_22">
    <path d="M 110.8925 299.306591 
L 110.8925 345.603391 
" clip-path="url(#p99192476b7)" style="fill: none; stroke: #000000; stroke-linecap: square"/>
   </g>
   <g id="line2d_23">
    <path d="M 110.8925 232.047186 
L 110.8925 138.605462 
" clip-path="url(#p99192476b7)" style="fill: none; stroke: #000000; stroke-linecap: square"/>
   </g>
   <g id="line2d_24">
    <path d="M 106.1495 345.603391 
L 115.6355 345.603391 
" clip-path="url(#p99192476b7)" style="fill: none; stroke: #000000; stroke-linecap: square"/>
   </g>
   <g id="line2d_25">
    <path d="M 106.1495 138.605462 
L 115.6355 138.605462 
" clip-path="url(#p99192476b7)" style="fill: none; stroke: #000000; stroke-linecap: square"/>
   </g>
   <g id="patch_4">
    <path d="M 227.8865 318.321732 
L 246.8585 318.321732 
L 246.8585 260.094304 
L 227.8865 260.094304 
L 227.8865 318.321732 
z
" clip-path="url(#p99192476b7)" style="fill: #ffffff; stroke: #000000; stroke-linejoin: miter"/>
   </g>
   <g id="line2d_26">
    <path d="M 237.3725 318.321732 
L 237.3725 345.916875 
" clip-path="url(#p99192476b7)" style="fill: none; stroke: #000000; stroke-linecap: square"/>
   </g>
   <g id="line2d_27">
    <path d="M 237.3725 260.094304 
L 237.3725 180.985865 
" clip-path="url(#p99192476b7)" style="fill: none; stroke: #000000; stroke-linecap: square"/>
   </g>
   <g id="line2d_28">
    <path d="M 232.6295 345.916875 
L 242.1155 345.916875 
" clip-path="url(#p99192476b7)" style="fill: none; stroke: #000000; stroke-linecap: square"/>
   </g>
   <g id="line2d_29">
    <path d="M 232.6295 180.985865 
L 242.1155 180.985865 
" clip-path="url(#p99192476b7)" style="fill: none; stroke: #000000; stroke-linecap: square"/>
   </g>
   <g id="patch_5">
    <path d="M 354.3665 274.964376 
L 373.3385 274.964376 
L 373.3385 197.692822 
L 354.3665 197.692822 
L 354.3665 274.964376 
z
" clip-path="url(#p99192476b7)" style="fill: #ffffff; stroke: #000000; stroke-linejoin: miter"/>
   </g>
   <g id="line2d_30">
    <path d="M 363.8525 274.964376 
L 363.8525 315.264193 
" clip-path="url(#p99192476b7)" style="fill: none; stroke: #000000; stroke-linecap: square"/>
   </g>
   <g id="line2d_31">
    <path d="M 363.8525 197.692822 
L 363.8525 123.863145 
" clip-path="url(#p99192476b7)" style="fill: none; stroke: #000000; stroke-linecap: square"/>
   </g>
   <g id="line2d_32">
    <path d="M 359.1095 315.264193 
L 368.5955 315.264193 
" clip-path="url(#p99192476b7)" style="fill: none; stroke: #000000; stroke-linecap: square"/>
   </g>
   <g id="line2d_33">
    <path d="M 359.1095 123.863145 
L 368.5955 123.863145 
" clip-path="url(#p99192476b7)" style="fill: none; stroke: #000000; stroke-linecap: square"/>
   </g>
   <g id="line2d_34">
    <path d="M 101.4065 277.15232 
L 120.3785 277.15232 
" clip-path="url(#p99192476b7)" style="fill: none; stroke: #000000"/>
   </g>
   <g id="line2d_35">
    <path d="M 227.8865 290.19839 
L 246.8585 290.19839 
" clip-path="url(#p99192476b7)" style="fill: none; stroke: #000000"/>
   </g>
   <g id="line2d_36">
    <path d="M 354.3665 220.094015 
L 373.3385 220.094015 
" clip-path="url(#p99192476b7)" style="fill: none; stroke: #000000"/>
   </g>
   <g id="patch_6">
    <path d="M 47.6525 361.036875 
L 47.6525 28.396875 
" style="fill: none; stroke: #000000; stroke-width: 0.8; stroke-linejoin: miter; stroke-linecap: square"/>
   </g>
   <g id="patch_7">
    <path d="M 427.0925 361.036875 
L 427.0925 28.396875 
" style="fill: none; stroke: #000000; stroke-width: 0.8; stroke-linejoin: miter; stroke-linecap: square"/>
   </g>
   <g id="patch_8">
    <path d="M 47.6525 361.036875 
L 427.0925 361.036875 
" style="fill: none; stroke: #000000; stroke-width: 0.8; stroke-linejoin: miter; stroke-linecap: square"/>
   </g>
   <g id="patch_9">
    <path d="M 47.6525 28.396875 
L 427.0925 28.396875 
" style="fill: none; stroke: #000000; stroke-width: 0.8; stroke-linejoin: miter; stroke-linecap: square"/>
   </g>
   <g id="PathCollection_1">
    <defs>
     <path id="m9456c70aad" d="M 0 3 
C 0.795609 3 1.55874 2.683901 2.12132 2.12132 
C 2.683901 1.55874 3 0.795609 3 0 
C 3 -0.795609 2.683901 -1.55874 2.12132 -2.12132 
C 1.55874 -2.683901 0.795609 -3 0 -3 
C -0.795609 -3 -1.55874 -2.683901 -2.12132 -2.12132 
C -2.683901 -1.55874 -3 -0.795609 -3 0 
C -3 0.795609 -2.683901 1.55874 -2.12132 2.12132 
C -1.55874 2.683901 -0.795609 3 0 3 
z
" style="stroke: #000000; stroke-opacity: 0.85; stroke-width: 0.4"/>
    </defs>
    <g clip-path="url(#p99192476b7)">
     <use xlink:href="#m9456c70aad" x="112.1403" y="309.544191" style="fill: #425df5; fill-opacity: 0.85; stroke: #000000; stroke-opacity: 0.85; stroke-width: 0.4"/>
     <use xlink:href="#m9456c70aad" x="109.960777" y="289.06899" style="fill: #425df5; fill-opacity: 0.85; stroke: #000000; stroke-opacity: 0.85; stroke-width: 0.4"/>
     <use xlink:href="#m9456c70aad" x="112.763904" y="275.331539" style="fill: #425df5; fill-opacity: 0.85; stroke: #000000; stroke-opacity: 0.85; stroke-width: 0.4"/>
     <use xlink:href="#m9456c70aad" x="106.999711" y="279.857726" style="fill: #425df5; fill-opacity: 0.85; stroke: #000000; stroke-opacity: 0.85; stroke-width: 0.4"/>
     <use xlink:href="#m9456c70aad" x="110.546022" y="341.824411" style="fill: #425df5; fill-opacity: 0.85; stroke: #000000; stroke-opacity: 0.85; stroke-width: 0.4"/>
     <use xlink:href="#m9456c70aad" x="110.51774" y="277.938176" style="fill: #425df5; fill-opacity: 0.85; stroke: #000000; stroke-opacity: 0.85; stroke-width: 0.4"/>
     <use xlink:href="#m9456c70aad" x="109.649312" y="266.674239" style="fill: #425df5; fill-opacity: 0.85; stroke: #000000; stroke-opacity: 0.85; stroke-width: 0.4"/>
     <use xlink:href="#m9456c70aad" x="111.358227" y="160.180003" style="fill: #425df5; fill-opacity: 0.85; stroke: #000000; stroke-opacity: 0.85; stroke-width: 0.4"/>
     <use xlink:href="#m9456c70aad" x="108.562425" y="277.15232" style="fill: #425df5; fill-opacity: 0.85; stroke: #000000; stroke-opacity: 0.85; stroke-width: 0.4"/>
     <use xlink:href="#m9456c70aad" x="111.267254" y="258.231654" style="fill: #425df5; fill-opacity: 0.85; stroke: #000000; stroke-opacity: 0.85; stroke-width: 0.4"/>
     <use xlink:href="#m9456c70aad" x="111.909383" y="286.711422" style="fill: #425df5; fill-opacity: 0.85; stroke: #000000; stroke-opacity: 0.85; stroke-width: 0.4"/>
     <use xlink:href="#m9456c70aad" x="106.420903" y="345.603391" style="fill: #425df5; fill-opacity: 0.85; stroke: #000000; stroke-opacity: 0.85; stroke-width: 0.4"/>
     <use xlink:href="#m9456c70aad" x="113.586813" y="244.034713" style="fill: #425df5; fill-opacity: 0.85; stroke: #000000; stroke-opacity: 0.85; stroke-width: 0.4"/>
     <use xlink:href="#m9456c70aad" x="115.448897" y="345.143902" style="fill: #425df5; fill-opacity: 0.85; stroke: #000000; stroke-opacity: 0.85; stroke-width: 0.4"/>
     <use xlink:href="#m9456c70aad" x="111.34513" y="345.453091" style="fill: #425df5; fill-opacity: 0.85; stroke: #000000; stroke-opacity: 0.85; stroke-width: 0.4"/>
     <use xlink:href="#m9456c70aad" x="112.003018" y="274.060427" style="fill: #425df5; fill-opacity: 0.85; stroke: #000000; stroke-opacity: 0.85; stroke-width: 0.4"/>
     <use xlink:href="#m9456c70aad" x="115.035911" y="179.057726" style="fill: #425df5; fill-opacity: 0.85; stroke: #000000; stroke-opacity: 0.85; stroke-width: 0.4"/>
     <use xlink:href="#m9456c70aad" x="110.620173" y="220.05966" style="fill: #425df5; fill-opacity: 0.85; stroke: #000000; stroke-opacity: 0.85; stroke-width: 0.4"/>
     <use xlink:href="#m9456c70aad" x="115.90774" y="208.435002" style="fill: #425df5; fill-opacity: 0.85; stroke: #000000; stroke-opacity: 0.85; stroke-width: 0.4"/>
     <use xlink:href="#m9456c70aad" x="112.343719" y="216.86041" style="fill: #425df5; fill-opacity: 0.85; stroke: #000000; stroke-opacity: 0.85; stroke-width: 0.4"/>
     <use xlink:href="#m9456c70aad" x="112.806315" y="138.605462" style="fill: #425df5; fill-opacity: 0.85; stroke: #000000; stroke-opacity: 0.85; stroke-width: 0.4"/>
     <use xlink:href="#m9456c70aad" x="112.335877" y="278.560849" style="fill: #425df5; fill-opacity: 0.85; stroke: #000000; stroke-opacity: 0.85; stroke-width: 0.4"/>
     <use xlink:href="#m9456c70aad" x="107.464316" y="315.186896" style="fill: #425df5; fill-opacity: 0.85; stroke: #000000; stroke-opacity: 0.85; stroke-width: 0.4"/>
    </g>
   </g>
   <g id="PathCollection_2">
    <defs>
     <path id="m6e96ba5168" d="M 0 3 
C 0.795609 3 1.55874 2.683901 2.12132 2.12132 
C 2.683901 1.55874 3 0.795609 3 0 
C 3 -0.795609 2.683901 -1.55874 2.12132 -2.12132 
C 1.55874 -2.683901 0.795609 -3 0 -3 
C -0.795609 -3 -1.55874 -2.683901 -2.12132 -2.12132 
C -2.683901 -1.55874 -3 -0.795609 -3 0 
C -3 0.795609 -2.683901 1.55874 -2.12132 2.12132 
C -1.55874 2.683901 -0.795609 3 0 3 
z
" style="stroke: #000000; stroke-opacity: 0.85; stroke-width: 0.4"/>
    </defs>
    <g clip-path="url(#p99192476b7)">
     <use xlink:href="#m6e96ba5168" x="238.218284" y="325.12819" style="fill: #f55442; fill-opacity: 0.85; stroke: #000000; stroke-opacity: 0.85; stroke-width: 0.4"/>
     <use xlink:href="#m6e96ba5168" x="241.652338" y="276.60265" style="fill: #f55442; fill-opacity: 0.85; stroke: #000000; stroke-opacity: 0.85; stroke-width: 0.4"/>
     <use xlink:href="#m6e96ba5168" x="236.62032" y="242.463" style="fill: #f55442; fill-opacity: 0.85; stroke: #000000; stroke-opacity: 0.85; stroke-width: 0.4"/>
     <use xlink:href="#m6e96ba5168" x="234.696726" y="308.397615" style="fill: #f55442; fill-opacity: 0.85; stroke: #000000; stroke-opacity: 0.85; stroke-width: 0.4"/>
     <use xlink:href="#m6e96ba5168" x="242.263951" y="332.647502" style="fill: #f55442; fill-opacity: 0.85; stroke: #000000; stroke-opacity: 0.85; stroke-width: 0.4"/>
     <use xlink:href="#m6e96ba5168" x="239.245102" y="247.444383" style="fill: #f55442; fill-opacity: 0.85; stroke: #000000; stroke-opacity: 0.85; stroke-width: 0.4"/>
     <use xlink:href="#m6e96ba5168" x="236.347685" y="275.683671" style="fill: #f55442; fill-opacity: 0.85; stroke: #000000; stroke-opacity: 0.85; stroke-width: 0.4"/>
     <use xlink:href="#m6e96ba5168" x="240.350036" y="180.985865" style="fill: #f55442; fill-opacity: 0.85; stroke: #000000; stroke-opacity: 0.85; stroke-width: 0.4"/>
     <use xlink:href="#m6e96ba5168" x="235.265924" y="186.688689" style="fill: #f55442; fill-opacity: 0.85; stroke: #000000; stroke-opacity: 0.85; stroke-width: 0.4"/>
     <use xlink:href="#m6e96ba5168" x="242.257541" y="259.382525" style="fill: #f55442; fill-opacity: 0.85; stroke: #000000; stroke-opacity: 0.85; stroke-width: 0.4"/>
     <use xlink:href="#m6e96ba5168" x="234.782615" y="308.264491" style="fill: #f55442; fill-opacity: 0.85; stroke: #000000; stroke-opacity: 0.85; stroke-width: 0.4"/>
     <use xlink:href="#m6e96ba5168" x="240.974602" y="317.252452" style="fill: #f55442; fill-opacity: 0.85; stroke: #000000; stroke-opacity: 0.85; stroke-width: 0.4"/>
     <use xlink:href="#m6e96ba5168" x="237.4413" y="261.0573" style="fill: #f55442; fill-opacity: 0.85; stroke: #000000; stroke-opacity: 0.85; stroke-width: 0.4"/>
     <use xlink:href="#m6e96ba5168" x="240.559466" y="345.916875" style="fill: #f55442; fill-opacity: 0.85; stroke: #000000; stroke-opacity: 0.85; stroke-width: 0.4"/>
     <use xlink:href="#m6e96ba5168" x="240.36062" y="270.156912" style="fill: #f55442; fill-opacity: 0.85; stroke: #000000; stroke-opacity: 0.85; stroke-width: 0.4"/>
     <use xlink:href="#m6e96ba5168" x="241.889931" y="312.816445" style="fill: #f55442; fill-opacity: 0.85; stroke: #000000; stroke-opacity: 0.85; stroke-width: 0.4"/>
     <use xlink:href="#m6e96ba5168" x="236.203831" y="328.443386" style="fill: #f55442; fill-opacity: 0.85; stroke: #000000; stroke-opacity: 0.85; stroke-width: 0.4"/>
     <use xlink:href="#m6e96ba5168" x="237.878129" y="318.678158" style="fill: #f55442; fill-opacity: 0.85; stroke: #000000; stroke-opacity: 0.85; stroke-width: 0.4"/>
     <use xlink:href="#m6e96ba5168" x="239.319106" y="267.030665" style="fill: #f55442; fill-opacity: 0.85; stroke: #000000; stroke-opacity: 0.85; stroke-width: 0.4"/>
     <use xlink:href="#m6e96ba5168" x="235.839906" y="310.239867" style="fill: #f55442; fill-opacity: 0.85; stroke: #000000; stroke-opacity: 0.85; stroke-width: 0.4"/>
     <use xlink:href="#m6e96ba5168" x="235.435244" y="259.773306" style="fill: #f55442; fill-opacity: 0.85; stroke: #000000; stroke-opacity: 0.85; stroke-width: 0.4"/>
     <use xlink:href="#m6e96ba5168" x="236.507703" y="332.437081" style="fill: #f55442; fill-opacity: 0.85; stroke: #000000; stroke-opacity: 0.85; stroke-width: 0.4"/>
     <use xlink:href="#m6e96ba5168" x="232.773599" y="272.007754" style="fill: #f55442; fill-opacity: 0.85; stroke: #000000; stroke-opacity: 0.85; stroke-width: 0.4"/>
     <use xlink:href="#m6e96ba5168" x="236.191295" y="303.79413" style="fill: #f55442; fill-opacity: 0.85; stroke: #000000; stroke-opacity: 0.85; stroke-width: 0.4"/>
     <use xlink:href="#m6e96ba5168" x="239.469976" y="339.969276" style="fill: #f55442; fill-opacity: 0.85; stroke: #000000; stroke-opacity: 0.85; stroke-width: 0.4"/>
     <use xlink:href="#m6e96ba5168" x="233.430799" y="183.918869" style="fill: #f55442; fill-opacity: 0.85; stroke: #000000; stroke-opacity: 0.85; stroke-width: 0.4"/>
    </g>
   </g>
   <g id="PathCollection_3">
    <defs>
     <path id="ma657f3669a" d="M 0 3 
C 0.795609 3 1.55874 2.683901 2.12132 2.12132 
C 2.683901 1.55874 3 0.795609 3 0 
C 3 -0.795609 2.683901 -1.55874 2.12132 -2.12132 
C 1.55874 -2.683901 0.795609 -3 0 -3 
C -0.795609 -3 -1.55874 -2.683901 -2.12132 -2.12132 
C -2.683901 -1.55874 -3 -0.795609 -3 0 
C -3 0.795609 -2.683901 1.55874 -2.12132 2.12132 
C -1.55874 2.683901 -0.795609 3 0 3 
z
" style="stroke: #000000; stroke-opacity: 0.85; stroke-width: 0.4"/>
    </defs>
    <g clip-path="url(#p99192476b7)">
     <use xlink:href="#ma657f3669a" x="364.908888" y="289.335237" style="fill: #0ec72a; fill-opacity: 0.85; stroke: #000000; stroke-opacity: 0.85; stroke-width: 0.4"/>
     <use xlink:href="#ma657f3669a" x="358.795622" y="250.441802" style="fill: #0ec72a; fill-opacity: 0.85; stroke: #000000; stroke-opacity: 0.85; stroke-width: 0.4"/>
     <use xlink:href="#ma657f3669a" x="367.77018" y="123.863145" style="fill: #0ec72a; fill-opacity: 0.85; stroke: #000000; stroke-opacity: 0.85; stroke-width: 0.4"/>
     <use xlink:href="#ma657f3669a" x="367.170188" y="210.084012" style="fill: #0ec72a; fill-opacity: 0.85; stroke: #000000; stroke-opacity: 0.85; stroke-width: 0.4"/>
     <use xlink:href="#ma657f3669a" x="364.144283" y="218.530891" style="fill: #0ec72a; fill-opacity: 0.85; stroke: #000000; stroke-opacity: 0.85; stroke-width: 0.4"/>
     <use xlink:href="#ma657f3669a" x="366.538138" y="193.688391" style="fill: #0ec72a; fill-opacity: 0.85; stroke: #000000; stroke-opacity: 0.85; stroke-width: 0.4"/>
     <use xlink:href="#ma657f3669a" x="368.307537" y="270.375922" style="fill: #0ec72a; fill-opacity: 0.85; stroke: #000000; stroke-opacity: 0.85; stroke-width: 0.4"/>
     <use xlink:href="#ma657f3669a" x="359.636104" y="272.750667" style="fill: #0ec72a; fill-opacity: 0.85; stroke: #000000; stroke-opacity: 0.85; stroke-width: 0.4"/>
     <use xlink:href="#ma657f3669a" x="359.151725" y="79.42148" style="fill: #0ec72a; fill-opacity: 0.85; stroke: #000000; stroke-opacity: 0.85; stroke-width: 0.4"/>
     <use xlink:href="#ma657f3669a" x="365.30531" y="315.264193" style="fill: #0ec72a; fill-opacity: 0.85; stroke: #000000; stroke-opacity: 0.85; stroke-width: 0.4"/>
     <use xlink:href="#ma657f3669a" x="365.125175" y="220.094015" style="fill: #0ec72a; fill-opacity: 0.85; stroke: #000000; stroke-opacity: 0.85; stroke-width: 0.4"/>
     <use xlink:href="#ma657f3669a" x="363.388577" y="301.496682" style="fill: #0ec72a; fill-opacity: 0.85; stroke: #000000; stroke-opacity: 0.85; stroke-width: 0.4"/>
     <use xlink:href="#ma657f3669a" x="359.957797" y="214.253773" style="fill: #0ec72a; fill-opacity: 0.85; stroke: #000000; stroke-opacity: 0.85; stroke-width: 0.4"/>
     <use xlink:href="#ma657f3669a" x="365.566296" y="236.532578" style="fill: #0ec72a; fill-opacity: 0.85; stroke: #000000; stroke-opacity: 0.85; stroke-width: 0.4"/>
     <use xlink:href="#ma657f3669a" x="359.548408" y="277.178086" style="fill: #0ec72a; fill-opacity: 0.85; stroke: #000000; stroke-opacity: 0.85; stroke-width: 0.4"/>
     <use xlink:href="#ma657f3669a" x="361.07049" y="285.865446" style="fill: #0ec72a; fill-opacity: 0.85; stroke: #000000; stroke-opacity: 0.85; stroke-width: 0.4"/>
     <use xlink:href="#ma657f3669a" x="362.558042" y="43.516875" style="fill: #0ec72a; fill-opacity: 0.85; stroke: #000000; stroke-opacity: 0.85; stroke-width: 0.4"/>
     <use xlink:href="#ma657f3669a" x="368.732313" y="201.697252" style="fill: #0ec72a; fill-opacity: 0.85; stroke: #000000; stroke-opacity: 0.85; stroke-width: 0.4"/>
     <use xlink:href="#ma657f3669a" x="365.537485" y="177.14247" style="fill: #0ec72a; fill-opacity: 0.85; stroke: #000000; stroke-opacity: 0.85; stroke-width: 0.4"/>
    </g>
   </g>
   <g id="text_15">
    <!-- Reversal First Meal Time Distribution -->
    <g transform="translate(54.1725 22.396875) scale(0.2 -0.2)">
     <defs>
      <path id="DejaVuSans-44" d="M 1259 4147 
L 1259 519 
L 2022 519 
Q 2988 519 3436 956 
Q 3884 1394 3884 2338 
Q 3884 3275 3436 3711 
Q 2988 4147 2022 4147 
L 1259 4147 
z
M 628 4666 
L 1925 4666 
Q 3281 4666 3915 4102 
Q 4550 3538 4550 2338 
Q 4550 1131 3912 565 
Q 3275 0 1925 0 
L 628 0 
L 628 4666 
z
" transform="scale(0.015625)"/>
      <path id="DejaVuSans-62" d="M 3116 1747 
Q 3116 2381 2855 2742 
Q 2594 3103 2138 3103 
Q 1681 3103 1420 2742 
Q 1159 2381 1159 1747 
Q 1159 1113 1420 752 
Q 1681 391 2138 391 
Q 2594 391 2855 752 
Q 3116 1113 3116 1747 
z
M 1159 2969 
Q 1341 3281 1617 3432 
Q 1894 3584 2278 3584 
Q 2916 3584 3314 3078 
Q 3713 2572 3713 1747 
Q 3713 922 3314 415 
Q 2916 -91 2278 -91 
Q 1894 -91 1617 61 
Q 1341 213 1159 525 
L 1159 0 
L 581 0 
L 581 4863 
L 1159 4863 
L 1159 2969 
z
" transform="scale(0.015625)"/>
      <path id="DejaVuSans-6e" d="M 3513 2113 
L 3513 0 
L 2938 0 
L 2938 2094 
Q 2938 2591 2744 2837 
Q 2550 3084 2163 3084 
Q 1697 3084 1428 2787 
Q 1159 2491 1159 1978 
L 1159 0 
L 581 0 
L 581 3500 
L 1159 3500 
L 1159 2956 
Q 1366 3272 1645 3428 
Q 1925 3584 2291 3584 
Q 2894 3584 3203 3211 
Q 3513 2838 3513 2113 
z
" transform="scale(0.015625)"/>
     </defs>
     <use xlink:href="#DejaVuSans-52"/>
     <use xlink:href="#DejaVuSans-65" x="64.982422"/>
     <use xlink:href="#DejaVuSans-76" x="126.505859"/>
     <use xlink:href="#DejaVuSans-65" x="185.685547"/>
     <use xlink:href="#DejaVuSans-72" x="247.208984"/>
     <use xlink:href="#DejaVuSans-73" x="288.322266"/>
     <use xlink:href="#DejaVuSans-61" x="340.421875"/>
     <use xlink:href="#DejaVuSans-6c" x="401.701172"/>
     <use xlink:href="#DejaVuSans-20" x="429.484375"/>
     <use xlink:href="#DejaVuSans-46" x="461.271484"/>
     <use xlink:href="#DejaVuSans-69" x="511.541016"/>
     <use xlink:href="#DejaVuSans-72" x="539.324219"/>
     <use xlink:href="#DejaVuSans-73" x="580.4375"/>
     <use xlink:href="#DejaVuSans-74" x="632.537109"/>
     <use xlink:href="#DejaVuSans-20" x="671.746094"/>
     <use xlink:href="#DejaVuSans-4d" x="703.533203"/>
     <use xlink:href="#DejaVuSans-65" x="789.8125"/>
     <use xlink:href="#DejaVuSans-61" x="851.335938"/>
     <use xlink:href="#DejaVuSans-6c" x="912.615234"/>
     <use xlink:href="#DejaVuSans-20" x="940.398438"/>
     <use xlink:href="#DejaVuSans-54" x="972.185547"/>
     <use xlink:href="#DejaVuSans-69" x="1030.144531"/>
     <use xlink:href="#DejaVuSans-6d" x="1057.927734"/>
     <use xlink:href="#DejaVuSans-65" x="1155.339844"/>
     <use xlink:href="#DejaVuSans-20" x="1216.863281"/>
     <use xlink:href="#DejaVuSans-44" x="1248.650391"/>
     <use xlink:href="#DejaVuSans-69" x="1325.652344"/>
     <use xlink:href="#DejaVuSans-73" x="1353.435547"/>
     <use xlink:href="#DejaVuSans-74" x="1405.535156"/>
     <use xlink:href="#DejaVuSans-72" x="1444.744141"/>
     <use xlink:href="#DejaVuSans-69" x="1485.857422"/>
     <use xlink:href="#DejaVuSans-62" x="1513.640625"/>
     <use xlink:href="#DejaVuSans-75" x="1577.117188"/>
     <use xlink:href="#DejaVuSans-74" x="1640.496094"/>
     <use xlink:href="#DejaVuSans-69" x="1679.705078"/>
     <use xlink:href="#DejaVuSans-6f" x="1707.488281"/>
     <use xlink:href="#DejaVuSans-6e" x="1768.669922"/>
    </g>
   </g>
   <g id="legend_1">
    <g id="patch_10">
     <path d="M 56.0525 90.838125 
L 181.92875 90.838125 
Q 184.32875 90.838125 184.32875 88.438125 
L 184.32875 36.796875 
Q 184.32875 34.396875 181.92875 34.396875 
L 56.0525 34.396875 
Q 53.6525 34.396875 53.6525 36.796875 
L 53.6525 88.438125 
Q 53.6525 90.838125 56.0525 90.838125 
z
" style="fill: #ffffff; opacity: 0.8; stroke: #cccccc; stroke-linejoin: miter"/>
    </g>
    <g id="patch_11">
     <path d="M 58.4525 48.315 
L 82.4525 48.315 
L 82.4525 39.915 
L 58.4525 39.915 
z
" style="fill: #425df5; opacity: 0.65; stroke: #425df5; stroke-linejoin: miter"/>
    </g>
    <g id="text_16">
     <!-- cask (n=23) -->
     <g transform="translate(92.0525 48.315) scale(0.12 -0.12)">
      <defs>
       <path id="DejaVuSans-3d" d="M 678 2906 
L 4684 2906 
L 4684 2381 
L 678 2381 
L 678 2906 
z
M 678 1631 
L 4684 1631 
L 4684 1100 
L 678 1100 
L 678 1631 
z
" transform="scale(0.015625)"/>
      </defs>
      <use xlink:href="#DejaVuSans-63"/>
      <use xlink:href="#DejaVuSans-61" x="54.980469"/>
      <use xlink:href="#DejaVuSans-73" x="116.259766"/>
      <use xlink:href="#DejaVuSans-6b" x="168.359375"/>
      <use xlink:href="#DejaVuSans-20" x="226.269531"/>
      <use xlink:href="#DejaVuSans-28" x="258.056641"/>
      <use xlink:href="#DejaVuSans-6e" x="297.070312"/>
      <use xlink:href="#DejaVuSans-3d" x="360.449219"/>
      <use xlink:href="#DejaVuSans-32" x="444.238281"/>
      <use xlink:href="#DejaVuSans-33" x="507.861328"/>
      <use xlink:href="#DejaVuSans-29" x="571.484375"/>
     </g>
    </g>
    <g id="patch_12">
     <path d="M 58.4525 65.92875 
L 82.4525 65.92875 
L 82.4525 57.52875 
L 58.4525 57.52875 
z
" style="fill: #f55442; opacity: 0.65; stroke: #f55442; stroke-linejoin: miter"/>
    </g>
    <g id="text_17">
     <!-- ctrl (n=26) -->
     <g transform="translate(92.0525 65.92875) scale(0.12 -0.12)">
      <defs>
       <path id="DejaVuSans-36" d="M 2113 2584 
Q 1688 2584 1439 2293 
Q 1191 2003 1191 1497 
Q 1191 994 1439 701 
Q 1688 409 2113 409 
Q 2538 409 2786 701 
Q 3034 994 3034 1497 
Q 3034 2003 2786 2293 
Q 2538 2584 2113 2584 
z
M 3366 4563 
L 3366 3988 
Q 3128 4100 2886 4159 
Q 2644 4219 2406 4219 
Q 1781 4219 1451 3797 
Q 1122 3375 1075 2522 
Q 1259 2794 1537 2939 
Q 1816 3084 2150 3084 
Q 2853 3084 3261 2657 
Q 3669 2231 3669 1497 
Q 3669 778 3244 343 
Q 2819 -91 2113 -91 
Q 1303 -91 875 529 
Q 447 1150 447 2328 
Q 447 3434 972 4092 
Q 1497 4750 2381 4750 
Q 2619 4750 2861 4703 
Q 3103 4656 3366 4563 
z
" transform="scale(0.015625)"/>
      </defs>
      <use xlink:href="#DejaVuSans-63"/>
      <use xlink:href="#DejaVuSans-74" x="54.980469"/>
      <use xlink:href="#DejaVuSans-72" x="94.189453"/>
      <use xlink:href="#DejaVuSans-6c" x="135.302734"/>
      <use xlink:href="#DejaVuSans-20" x="163.085938"/>
      <use xlink:href="#DejaVuSans-28" x="194.873047"/>
      <use xlink:href="#DejaVuSans-6e" x="233.886719"/>
      <use xlink:href="#DejaVuSans-3d" x="297.265625"/>
      <use xlink:href="#DejaVuSans-32" x="381.054688"/>
      <use xlink:href="#DejaVuSans-36" x="444.677734"/>
      <use xlink:href="#DejaVuSans-29" x="508.300781"/>
     </g>
    </g>
    <g id="patch_13">
     <path d="M 58.4525 83.5425 
L 82.4525 83.5425 
L 82.4525 75.1425 
L 58.4525 75.1425 
z
" style="fill: #0ec72a; opacity: 0.65; stroke: #0ec72a; stroke-linejoin: miter"/>
    </g>
    <g id="text_18">
     <!-- female (n=19) -->
     <g transform="translate(92.0525 83.5425) scale(0.12 -0.12)">
      <defs>
       <path id="DejaVuSans-39" d="M 703 97 
L 703 672 
Q 941 559 1184 500 
Q 1428 441 1663 441 
Q 2288 441 2617 861 
Q 2947 1281 2994 2138 
Q 2813 1869 2534 1725 
Q 2256 1581 1919 1581 
Q 1219 1581 811 2004 
Q 403 2428 403 3163 
Q 403 3881 828 4315 
Q 1253 4750 1959 4750 
Q 2769 4750 3195 4129 
Q 3622 3509 3622 2328 
Q 3622 1225 3098 567 
Q 2575 -91 1691 -91 
Q 1453 -91 1209 -44 
Q 966 3 703 97 
z
M 1959 2075 
Q 2384 2075 2632 2365 
Q 2881 2656 2881 3163 
Q 2881 3666 2632 3958 
Q 2384 4250 1959 4250 
Q 1534 4250 1286 3958 
Q 1038 3666 1038 3163 
Q 1038 2656 1286 2365 
Q 1534 2075 1959 2075 
z
" transform="scale(0.015625)"/>
      </defs>
      <use xlink:href="#DejaVuSans-66"/>
      <use xlink:href="#DejaVuSans-65" x="35.205078"/>
      <use xlink:href="#DejaVuSans-6d" x="96.728516"/>
      <use xlink:href="#DejaVuSans-61" x="194.140625"/>
      <use xlink:href="#DejaVuSans-6c" x="255.419922"/>
      <use xlink:href="#DejaVuSans-65" x="283.203125"/>
      <use xlink:href="#DejaVuSans-20" x="344.726562"/>
      <use xlink:href="#DejaVuSans-28" x="376.513672"/>
      <use xlink:href="#DejaVuSans-6e" x="415.527344"/>
      <use xlink:href="#DejaVuSans-3d" x="478.90625"/>
      <use xlink:href="#DejaVuSans-31" x="562.695312"/>
      <use xlink:href="#DejaVuSans-39" x="626.318359"/>
      <use xlink:href="#DejaVuSans-29" x="689.941406"/>
     </g>
    </g>
   </g>
  </g>
 </g>
 <defs>
  <clipPath id="p99192476b7">
   <rect x="47.6525" y="28.396875" width="379.44" height="332.64"/>
  </clipPath>
 </defs>
</svg>
