<?xml version="1.0" encoding="utf-8" standalone="no"?>
<!DOCTYPE svg PUBLIC "-//W3C//DTD SVG 1.1//EN"
  "http://www.w3.org/Graphics/SVG/1.1/DTD/svg11.dtd">
<svg xmlns:xlink="http://www.w3.org/1999/xlink" width="440.655pt" height="402.464375pt" viewBox="0 0 440.655 402.464375" xmlns="http://www.w3.org/2000/svg" version="1.1">
 <metadata>
  <rdf:RDF xmlns:dc="http://purl.org/dc/elements/1.1/" xmlns:cc="http://creativecommons.org/ns#" xmlns:rdf="http://www.w3.org/1999/02/22-rdf-syntax-ns#">
   <cc:Work>
    <dc:type rdf:resource="http://purl.org/dc/dcmitype/StillImage"/>
    <dc:date>2025-10-01T22:42:30.689132</dc:date>
    <dc:format>image/svg+xml</dc:format>
    <dc:creator>
     <cc:Agent>
      <dc:title>Matplotlib v3.8.4, https://matplotlib.org/</dc:title>
     </cc:Agent>
    </dc:creator>
   </cc:Work>
  </rdf:RDF>
 </metadata>
 <defs>
  <style type="text/css">*{stroke-linejoin: round; stroke-linecap: butt}</style>
 </defs>
 <g id="figure_1">
  <g id="patch_1">
   <path d="M 0 402.464375 
L 440.655 402.464375 
L 440.655 0 
L 0 0 
z
" style="fill: #ffffff"/>
  </g>
  <g id="axes_1">
   <g id="patch_2">
    <path d="M 54.015 361.036875 
L 433.455 361.036875 
L 433.455 28.396875 
L 54.015 28.396875 
z
" style="fill: #ffffff"/>
   </g>
   <g id="PolyCollection_1">
    <defs>
     <path id="m8c01a0a5f0" d="M 125.286796 -137.452596 
L 109.223204 -137.452596 
L 108.821736 -139.689918 
L 108.426137 -141.927241 
L 108.037851 -144.164563 
L 107.658131 -146.401885 
L 107.288026 -148.639208 
L 106.928375 -150.87653 
L 106.579803 -153.113852 
L 106.242732 -155.351174 
L 105.917395 -157.588497 
L 105.603859 -159.825819 
L 105.302046 -162.063141 
L 105.011769 -164.300463 
L 104.732761 -166.537786 
L 104.464709 -168.775108 
L 104.207293 -171.01243 
L 103.960211 -173.249752 
L 103.723212 -175.487075 
L 103.49612 -177.724397 
L 103.278855 -179.961719 
L 103.071444 -182.199041 
L 102.874031 -184.436364 
L 102.686877 -186.673686 
L 102.510358 -188.911008 
L 102.34495 -191.14833 
L 102.191221 -193.385653 
L 102.04981 -195.622975 
L 101.921405 -197.860297 
L 101.806725 -200.09762 
L 101.706493 -202.334942 
L 101.62142 -204.572264 
L 101.552182 -206.809586 
L 101.499403 -209.046909 
L 101.463641 -211.284231 
L 101.445375 -213.521553 
L 101.445 -215.758875 
L 101.462814 -217.996198 
L 101.499022 -220.23352 
L 101.553726 -222.470842 
L 101.626933 -224.708164 
L 101.718547 -226.945487 
L 101.828376 -229.182809 
L 101.956125 -231.420131 
L 102.101402 -233.657453 
L 102.263712 -235.894776 
L 102.442458 -238.132098 
L 102.63694 -240.36942 
L 102.84635 -242.606742 
L 103.069778 -244.844065 
L 103.306205 -247.081387 
L 103.554515 -249.318709 
L 103.813495 -251.556031 
L 104.081847 -253.793354 
L 104.358203 -256.030676 
L 104.641138 -258.267998 
L 104.929194 -260.505321 
L 105.220903 -262.742643 
L 105.514812 -264.979965 
L 105.809511 -267.217287 
L 106.103664 -269.45461 
L 106.39603 -271.691932 
L 106.685499 -273.929254 
L 106.971104 -276.166576 
L 107.252047 -278.403899 
L 107.527705 -280.641221 
L 107.797644 -282.878543 
L 108.061611 -285.115865 
L 108.319536 -287.353188 
L 108.571511 -289.59051 
L 108.817778 -291.827832 
L 109.058697 -294.065154 
L 109.294727 -296.302477 
L 109.526387 -298.539799 
L 109.75423 -300.777121 
L 109.978808 -303.014443 
L 110.200643 -305.251766 
L 110.4202 -307.489088 
L 110.637867 -309.72641 
L 110.853932 -311.963733 
L 111.068579 -314.201055 
L 111.281877 -316.438377 
L 111.493783 -318.675699 
L 111.70415 -320.913022 
L 111.912736 -323.150344 
L 112.119224 -325.387666 
L 112.323238 -327.624988 
L 112.524364 -329.862311 
L 112.722174 -332.099633 
L 112.916247 -334.336955 
L 113.106188 -336.574277 
L 113.291647 -338.8116 
L 113.472329 -341.048922 
L 113.648009 -343.286244 
L 113.818533 -345.523566 
L 113.983823 -347.760889 
L 114.143873 -349.998211 
L 114.298743 -352.235533 
L 114.448549 -354.472855 
L 114.593454 -356.710178 
L 114.733651 -358.9475 
L 119.776349 -358.9475 
L 119.776349 -358.9475 
L 119.916546 -356.710178 
L 120.061451 -354.472855 
L 120.211257 -352.235533 
L 120.366127 -349.998211 
L 120.526177 -347.760889 
L 120.691467 -345.523566 
L 120.861991 -343.286244 
L 121.037671 -341.048922 
L 121.218353 -338.8116 
L 121.403812 -336.574277 
L 121.593753 -334.336955 
L 121.787826 -332.099633 
L 121.985636 -329.862311 
L 122.186762 -327.624988 
L 122.390776 -325.387666 
L 122.597264 -323.150344 
L 122.80585 -320.913022 
L 123.016217 -318.675699 
L 123.228123 -316.438377 
L 123.441421 -314.201055 
L 123.656068 -311.963733 
L 123.872133 -309.72641 
L 124.0898 -307.489088 
L 124.309357 -305.251766 
L 124.531192 -303.014443 
L 124.75577 -300.777121 
L 124.983613 -298.539799 
L 125.215273 -296.302477 
L 125.451303 -294.065154 
L 125.692222 -291.827832 
L 125.938489 -289.59051 
L 126.190464 -287.353188 
L 126.448389 -285.115865 
L 126.712356 -282.878543 
L 126.982295 -280.641221 
L 127.257953 -278.403899 
L 127.538896 -276.166576 
L 127.824501 -273.929254 
L 128.11397 -271.691932 
L 128.406336 -269.45461 
L 128.700489 -267.217287 
L 128.995188 -264.979965 
L 129.289097 -262.742643 
L 129.580806 -260.505321 
L 129.868862 -258.267998 
L 130.151797 -256.030676 
L 130.428153 -253.793354 
L 130.696505 -251.556031 
L 130.955485 -249.318709 
L 131.203795 -247.081387 
L 131.440222 -244.844065 
L 131.66365 -242.606742 
L 131.87306 -240.36942 
L 132.067542 -238.132098 
L 132.246288 -235.894776 
L 132.408598 -233.657453 
L 132.553875 -231.420131 
L 132.681624 -229.182809 
L 132.791453 -226.945487 
L 132.883067 -224.708164 
L 132.956274 -222.470842 
L 133.010978 -220.23352 
L 133.047186 -217.996198 
L 133.065 -215.758875 
L 133.064625 -213.521553 
L 133.046359 -211.284231 
L 133.010597 -209.046909 
L 132.957818 -206.809586 
L 132.88858 -204.572264 
L 132.803507 -202.334942 
L 132.703275 -200.09762 
L 132.588595 -197.860297 
L 132.46019 -195.622975 
L 132.318779 -193.385653 
L 132.16505 -191.14833 
L 131.999642 -188.911008 
L 131.823123 -186.673686 
L 131.635969 -184.436364 
L 131.438556 -182.199041 
L 131.231145 -179.961719 
L 131.01388 -177.724397 
L 130.786788 -175.487075 
L 130.549789 -173.249752 
L 130.302707 -171.01243 
L 130.045291 -168.775108 
L 129.777239 -166.537786 
L 129.498231 -164.300463 
L 129.207954 -162.063141 
L 128.906141 -159.825819 
L 128.592605 -157.588497 
L 128.267268 -155.351174 
L 127.930197 -153.113852 
L 127.581625 -150.87653 
L 127.221974 -148.639208 
L 126.851869 -146.401885 
L 126.472149 -144.164563 
L 126.083863 -141.927241 
L 125.688264 -139.689918 
L 125.286796 -137.452596 
z
" style="stroke: #000000; stroke-opacity: 0.65"/>
    </defs>
    <g clip-path="url(#p5f693f77ca)">
     <use xlink:href="#m8c01a0a5f0" x="0" y="402.464375" style="fill: #425df5; fill-opacity: 0.65; stroke: #000000; stroke-opacity: 0.65"/>
    </g>
   </g>
   <g id="PolyCollection_2">
    <defs>
     <path id="mc2e4947d61" d="M 247.946422 -105.698871 
L 239.523578 -105.698871 
L 239.346315 -107.633298 
L 239.177123 -109.567725 
L 239.016646 -111.502152 
L 238.865275 -113.436579 
L 238.723127 -115.371005 
L 238.590026 -117.305432 
L 238.465495 -119.239859 
L 238.348747 -121.174286 
L 238.238698 -123.108713 
L 238.133971 -125.043139 
L 238.032923 -126.977566 
L 237.93367 -128.911993 
L 237.834125 -130.84642 
L 237.732038 -132.780847 
L 237.625044 -134.715274 
L 237.510718 -136.6497 
L 237.386625 -138.584127 
L 237.250386 -140.518554 
L 237.099728 -142.452981 
L 236.932549 -144.387408 
L 236.746972 -146.321834 
L 236.541397 -148.256261 
L 236.314555 -150.190688 
L 236.065546 -152.125115 
L 235.793883 -154.059542 
L 235.499515 -155.993968 
L 235.182858 -157.928395 
L 234.844799 -159.862822 
L 234.486706 -161.797249 
L 234.11042 -163.731676 
L 233.718237 -165.666103 
L 233.312883 -167.600529 
L 232.897479 -169.534956 
L 232.47549 -171.469383 
L 232.050674 -173.40381 
L 231.627014 -175.338237 
L 231.20865 -177.272663 
L 230.799802 -179.20709 
L 230.404686 -181.141517 
L 230.027433 -183.075944 
L 229.672005 -185.010371 
L 229.342112 -186.944798 
L 229.041137 -188.879224 
L 228.772061 -190.813651 
L 228.537404 -192.748078 
L 228.339174 -194.682505 
L 228.178824 -196.616932 
L 228.057231 -198.551358 
L 227.974685 -200.485785 
L 227.930893 -202.420212 
L 227.925 -204.354639 
L 227.955627 -206.289066 
L 228.020919 -208.223493 
L 228.118603 -210.157919 
L 228.246067 -212.092346 
L 228.40043 -214.026773 
L 228.578633 -215.9612 
L 228.777518 -217.895627 
L 228.993915 -219.830053 
L 229.22472 -221.76448 
L 229.466969 -223.698907 
L 229.717899 -225.633334 
L 229.975006 -227.567761 
L 230.236078 -229.502188 
L 230.49923 -231.436614 
L 230.762912 -233.371041 
L 231.025914 -235.305468 
L 231.287356 -237.239895 
L 231.546665 -239.174322 
L 231.803546 -241.108748 
L 232.057947 -243.043175 
L 232.310014 -244.977602 
L 232.560054 -246.912029 
L 232.808486 -248.846456 
L 233.055801 -250.780882 
L 233.30252 -252.715309 
L 233.549166 -254.649736 
L 233.796227 -256.584163 
L 234.044139 -258.51859 
L 234.293269 -260.453017 
L 234.543901 -262.387443 
L 234.796233 -264.32187 
L 235.050377 -266.256297 
L 235.306365 -268.190724 
L 235.56415 -270.125151 
L 235.823623 -272.059577 
L 236.084614 -273.994004 
L 236.346909 -275.928431 
L 236.610255 -277.862858 
L 236.874367 -279.797285 
L 237.138937 -281.731712 
L 237.403637 -283.666138 
L 237.668117 -285.600565 
L 237.932014 -287.534992 
L 238.194944 -289.469419 
L 238.4565 -291.403846 
L 238.716258 -293.338272 
L 238.973764 -295.272699 
L 239.228543 -297.207126 
L 248.241457 -297.207126 
L 248.241457 -297.207126 
L 248.496236 -295.272699 
L 248.753742 -293.338272 
L 249.0135 -291.403846 
L 249.275056 -289.469419 
L 249.537986 -287.534992 
L 249.801883 -285.600565 
L 250.066363 -283.666138 
L 250.331063 -281.731712 
L 250.595633 -279.797285 
L 250.859745 -277.862858 
L 251.123091 -275.928431 
L 251.385386 -273.994004 
L 251.646377 -272.059577 
L 251.90585 -270.125151 
L 252.163635 -268.190724 
L 252.419623 -266.256297 
L 252.673767 -264.32187 
L 252.926099 -262.387443 
L 253.176731 -260.453017 
L 253.425861 -258.51859 
L 253.673773 -256.584163 
L 253.920834 -254.649736 
L 254.16748 -252.715309 
L 254.414199 -250.780882 
L 254.661514 -248.846456 
L 254.909946 -246.912029 
L 255.159986 -244.977602 
L 255.412053 -243.043175 
L 255.666454 -241.108748 
L 255.923335 -239.174322 
L 256.182644 -237.239895 
L 256.444086 -235.305468 
L 256.707088 -233.371041 
L 256.97077 -231.436614 
L 257.233922 -229.502188 
L 257.494994 -227.567761 
L 257.752101 -225.633334 
L 258.003031 -223.698907 
L 258.24528 -221.76448 
L 258.476085 -219.830053 
L 258.692482 -217.895627 
L 258.891367 -215.9612 
L 259.06957 -214.026773 
L 259.223933 -212.092346 
L 259.351397 -210.157919 
L 259.449081 -208.223493 
L 259.514373 -206.289066 
L 259.545 -204.354639 
L 259.539107 -202.420212 
L 259.495315 -200.485785 
L 259.412769 -198.551358 
L 259.291176 -196.616932 
L 259.130826 -194.682505 
L 258.932596 -192.748078 
L 258.697939 -190.813651 
L 258.428863 -188.879224 
L 258.127888 -186.944798 
L 257.797995 -185.010371 
L 257.442567 -183.075944 
L 257.065314 -181.141517 
L 256.670198 -179.20709 
L 256.26135 -177.272663 
L 255.842986 -175.338237 
L 255.419326 -173.40381 
L 254.99451 -171.469383 
L 254.572521 -169.534956 
L 254.157117 -167.600529 
L 253.751763 -165.666103 
L 253.35958 -163.731676 
L 252.983294 -161.797249 
L 252.625201 -159.862822 
L 252.287142 -157.928395 
L 251.970485 -155.993968 
L 251.676117 -154.059542 
L 251.404454 -152.125115 
L 251.155445 -150.190688 
L 250.928603 -148.256261 
L 250.723028 -146.321834 
L 250.537451 -144.387408 
L 250.370272 -142.452981 
L 250.219614 -140.518554 
L 250.083375 -138.584127 
L 249.959282 -136.6497 
L 249.844956 -134.715274 
L 249.737962 -132.780847 
L 249.635875 -130.84642 
L 249.53633 -128.911993 
L 249.437077 -126.977566 
L 249.336029 -125.043139 
L 249.231302 -123.108713 
L 249.121253 -121.174286 
L 249.004505 -119.239859 
L 248.879974 -117.305432 
L 248.746873 -115.371005 
L 248.604725 -113.436579 
L 248.453354 -111.502152 
L 248.292877 -109.567725 
L 248.123685 -107.633298 
L 247.946422 -105.698871 
z
" style="stroke: #000000; stroke-opacity: 0.65"/>
    </defs>
    <g clip-path="url(#p5f693f77ca)">
     <use xlink:href="#mc2e4947d61" x="0" y="402.464375" style="fill: #f55442; fill-opacity: 0.65; stroke: #000000; stroke-opacity: 0.65"/>
    </g>
   </g>
   <g id="PolyCollection_3">
    <defs>
     <path id="m6141bcabd4" d="M 379.039535 -56.5475 
L 361.390465 -56.5475 
L 361.009314 -58.089183 
L 360.632888 -59.630865 
L 360.262434 -61.172548 
L 359.899111 -62.71423 
L 359.543989 -64.255913 
L 359.198027 -65.797595 
L 358.862077 -67.339278 
L 358.536872 -68.88096 
L 358.223029 -70.422643 
L 357.921048 -71.964325 
L 357.631315 -73.506008 
L 357.35411 -75.04769 
L 357.089616 -76.589373 
L 356.837926 -78.131056 
L 356.59906 -79.672738 
L 356.372977 -81.214421 
L 356.159587 -82.756103 
L 355.958769 -84.297786 
L 355.770383 -85.839468 
L 355.594285 -87.381151 
L 355.430343 -88.922833 
L 355.278442 -90.464516 
L 355.138498 -92.006198 
L 355.010466 -93.547881 
L 354.894341 -95.089563 
L 354.790166 -96.631246 
L 354.698028 -98.172929 
L 354.618059 -99.714611 
L 354.550428 -101.256294 
L 354.495336 -102.797976 
L 354.453009 -104.339659 
L 354.423685 -105.881341 
L 354.407605 -107.423024 
L 354.405 -108.964706 
L 354.41608 -110.506389 
L 354.441021 -112.048071 
L 354.479955 -113.589754 
L 354.532957 -115.131436 
L 354.60004 -116.673119 
L 354.681143 -118.214802 
L 354.776131 -119.756484 
L 354.884787 -121.298167 
L 355.006811 -122.839849 
L 355.141823 -124.381532 
L 355.289363 -125.923214 
L 355.448897 -127.464897 
L 355.619822 -129.006579 
L 355.801474 -130.548262 
L 355.993137 -132.089944 
L 356.194049 -133.631627 
L 356.403419 -135.173309 
L 356.620428 -136.714992 
L 356.844247 -138.256675 
L 357.07404 -139.798357 
L 357.308979 -141.34004 
L 357.548245 -142.881722 
L 357.79104 -144.423405 
L 358.036591 -145.965087 
L 358.284153 -147.50677 
L 358.533016 -149.048452 
L 358.782502 -150.590135 
L 359.031971 -152.131817 
L 359.280816 -153.6735 
L 359.528468 -155.215182 
L 359.77439 -156.756865 
L 360.018078 -158.298548 
L 360.259059 -159.84023 
L 360.49689 -161.381913 
L 360.731155 -162.923595 
L 360.961467 -164.465278 
L 361.187467 -166.00696 
L 361.408824 -167.548643 
L 361.625239 -169.090325 
L 361.836442 -170.632008 
L 362.042204 -172.17369 
L 362.242331 -173.715373 
L 362.436676 -175.257055 
L 362.625137 -176.798738 
L 362.807666 -178.340421 
L 362.984271 -179.882103 
L 363.155022 -181.423786 
L 363.32005 -182.965468 
L 363.47955 -184.507151 
L 363.633784 -186.048833 
L 363.783077 -187.590516 
L 363.927818 -189.132198 
L 364.06845 -190.673881 
L 364.205471 -192.215563 
L 364.339419 -193.757246 
L 364.470871 -195.298928 
L 364.600426 -196.840611 
L 364.728693 -198.382293 
L 364.856286 -199.923976 
L 364.983802 -201.465659 
L 365.111813 -203.007341 
L 365.240852 -204.549024 
L 365.371398 -206.090706 
L 365.503871 -207.632389 
L 365.638615 -209.174071 
L 374.791385 -209.174071 
L 374.791385 -209.174071 
L 374.926129 -207.632389 
L 375.058602 -206.090706 
L 375.189148 -204.549024 
L 375.318187 -203.007341 
L 375.446198 -201.465659 
L 375.573714 -199.923976 
L 375.701307 -198.382293 
L 375.829574 -196.840611 
L 375.959129 -195.298928 
L 376.090581 -193.757246 
L 376.224529 -192.215563 
L 376.36155 -190.673881 
L 376.502182 -189.132198 
L 376.646923 -187.590516 
L 376.796216 -186.048833 
L 376.95045 -184.507151 
L 377.10995 -182.965468 
L 377.274978 -181.423786 
L 377.445729 -179.882103 
L 377.622334 -178.340421 
L 377.804863 -176.798738 
L 377.993324 -175.257055 
L 378.187669 -173.715373 
L 378.387796 -172.17369 
L 378.593558 -170.632008 
L 378.804761 -169.090325 
L 379.021176 -167.548643 
L 379.242533 -166.00696 
L 379.468533 -164.465278 
L 379.698845 -162.923595 
L 379.93311 -161.381913 
L 380.170941 -159.84023 
L 380.411922 -158.298548 
L 380.65561 -156.756865 
L 380.901532 -155.215182 
L 381.149184 -153.6735 
L 381.398029 -152.131817 
L 381.647498 -150.590135 
L 381.896984 -149.048452 
L 382.145847 -147.50677 
L 382.393409 -145.965087 
L 382.63896 -144.423405 
L 382.881755 -142.881722 
L 383.121021 -141.34004 
L 383.35596 -139.798357 
L 383.585753 -138.256675 
L 383.809572 -136.714992 
L 384.026581 -135.173309 
L 384.235951 -133.631627 
L 384.436863 -132.089944 
L 384.628526 -130.548262 
L 384.810178 -129.006579 
L 384.981103 -127.464897 
L 385.140637 -125.923214 
L 385.288177 -124.381532 
L 385.423189 -122.839849 
L 385.545213 -121.298167 
L 385.653869 -119.756484 
L 385.748857 -118.214802 
L 385.82996 -116.673119 
L 385.897043 -115.131436 
L 385.950045 -113.589754 
L 385.988979 -112.048071 
L 386.01392 -110.506389 
L 386.025 -108.964706 
L 386.022395 -107.423024 
L 386.006315 -105.881341 
L 385.976991 -104.339659 
L 385.934664 -102.797976 
L 385.879572 -101.256294 
L 385.811941 -99.714611 
L 385.731972 -98.172929 
L 385.639834 -96.631246 
L 385.535659 -95.089563 
L 385.419534 -93.547881 
L 385.291502 -92.006198 
L 385.151558 -90.464516 
L 384.999657 -88.922833 
L 384.835715 -87.381151 
L 384.659617 -85.839468 
L 384.471231 -84.297786 
L 384.270413 -82.756103 
L 384.057023 -81.214421 
L 383.83094 -79.672738 
L 383.592074 -78.131056 
L 383.340384 -76.589373 
L 383.07589 -75.04769 
L 382.798685 -73.506008 
L 382.508952 -71.964325 
L 382.206971 -70.422643 
L 381.893128 -68.88096 
L 381.567923 -67.339278 
L 381.231973 -65.797595 
L 380.886011 -64.255913 
L 380.530889 -62.71423 
L 380.167566 -61.172548 
L 379.797112 -59.630865 
L 379.420686 -58.089183 
L 379.039535 -56.5475 
z
" style="stroke: #000000; stroke-opacity: 0.65"/>
    </defs>
    <g clip-path="url(#p5f693f77ca)">
     <use xlink:href="#m6141bcabd4" x="0" y="402.464375" style="fill: #0ec72a; fill-opacity: 0.65; stroke: #000000; stroke-opacity: 0.65"/>
    </g>
   </g>
   <g id="matplotlib.axis_1">
    <g id="xtick_1">
     <g id="line2d_1">
      <defs>
       <path id="m51fe566d78" d="M 0 0 
L 0 3.5 
" style="stroke: #000000; stroke-width: 0.8"/>
      </defs>
      <g>
       <use xlink:href="#m51fe566d78" x="117.255" y="361.036875" style="stroke: #000000; stroke-width: 0.8"/>
      </g>
     </g>
     <g id="text_1">
      <!-- cask -->
      <g transform="translate(105.941719 375.635312) scale(0.1 -0.1)">
       <defs>
        <path id="DejaVuSans-63" d="M 3122 3366 
L 3122 2828 
Q 2878 2963 2633 3030 
Q 2388 3097 2138 3097 
Q 1578 3097 1268 2742 
Q 959 2388 959 1747 
Q 959 1106 1268 751 
Q 1578 397 2138 397 
Q 2388 397 2633 464 
Q 2878 531 3122 666 
L 3122 134 
Q 2881 22 2623 -34 
Q 2366 -91 2075 -91 
Q 1284 -91 818 406 
Q 353 903 353 1747 
Q 353 2603 823 3093 
Q 1294 3584 2113 3584 
Q 2378 3584 2631 3529 
Q 2884 3475 3122 3366 
z
" transform="scale(0.015625)"/>
        <path id="DejaVuSans-61" d="M 2194 1759 
Q 1497 1759 1228 1600 
Q 959 1441 959 1056 
Q 959 750 1161 570 
Q 1363 391 1709 391 
Q 2188 391 2477 730 
Q 2766 1069 2766 1631 
L 2766 1759 
L 2194 1759 
z
M 3341 1997 
L 3341 0 
L 2766 0 
L 2766 531 
Q 2569 213 2275 61 
Q 1981 -91 1556 -91 
Q 1019 -91 701 211 
Q 384 513 384 1019 
Q 384 1609 779 1909 
Q 1175 2209 1959 2209 
L 2766 2209 
L 2766 2266 
Q 2766 2663 2505 2880 
Q 2244 3097 1772 3097 
Q 1472 3097 1187 3025 
Q 903 2953 641 2809 
L 641 3341 
Q 956 3463 1253 3523 
Q 1550 3584 1831 3584 
Q 2591 3584 2966 3190 
Q 3341 2797 3341 1997 
z
" transform="scale(0.015625)"/>
        <path id="DejaVuSans-73" d="M 2834 3397 
L 2834 2853 
Q 2591 2978 2328 3040 
Q 2066 3103 1784 3103 
Q 1356 3103 1142 2972 
Q 928 2841 928 2578 
Q 928 2378 1081 2264 
Q 1234 2150 1697 2047 
L 1894 2003 
Q 2506 1872 2764 1633 
Q 3022 1394 3022 966 
Q 3022 478 2636 193 
Q 2250 -91 1575 -91 
Q 1294 -91 989 -36 
Q 684 19 347 128 
L 347 722 
Q 666 556 975 473 
Q 1284 391 1588 391 
Q 1994 391 2212 530 
Q 2431 669 2431 922 
Q 2431 1156 2273 1281 
Q 2116 1406 1581 1522 
L 1381 1569 
Q 847 1681 609 1914 
Q 372 2147 372 2553 
Q 372 3047 722 3315 
Q 1072 3584 1716 3584 
Q 2034 3584 2315 3537 
Q 2597 3491 2834 3397 
z
" transform="scale(0.015625)"/>
        <path id="DejaVuSans-6b" d="M 581 4863 
L 1159 4863 
L 1159 1991 
L 2875 3500 
L 3609 3500 
L 1753 1863 
L 3688 0 
L 2938 0 
L 1159 1709 
L 1159 0 
L 581 0 
L 581 4863 
z
" transform="scale(0.015625)"/>
       </defs>
       <use xlink:href="#DejaVuSans-63"/>
       <use xlink:href="#DejaVuSans-61" x="54.980469"/>
       <use xlink:href="#DejaVuSans-73" x="116.259766"/>
       <use xlink:href="#DejaVuSans-6b" x="168.359375"/>
      </g>
     </g>
    </g>
    <g id="xtick_2">
     <g id="line2d_2">
      <g>
       <use xlink:href="#m51fe566d78" x="243.735" y="361.036875" style="stroke: #000000; stroke-width: 0.8"/>
      </g>
     </g>
     <g id="text_2">
      <!-- ctrl -->
      <g transform="translate(235.581094 375.635312) scale(0.1 -0.1)">
       <defs>
        <path id="DejaVuSans-74" d="M 1172 4494 
L 1172 3500 
L 2356 3500 
L 2356 3053 
L 1172 3053 
L 1172 1153 
Q 1172 725 1289 603 
Q 1406 481 1766 481 
L 2356 481 
L 2356 0 
L 1766 0 
Q 1100 0 847 248 
Q 594 497 594 1153 
L 594 3053 
L 172 3053 
L 172 3500 
L 594 3500 
L 594 4494 
L 1172 4494 
z
" transform="scale(0.015625)"/>
        <path id="DejaVuSans-72" d="M 2631 2963 
Q 2534 3019 2420 3045 
Q 2306 3072 2169 3072 
Q 1681 3072 1420 2755 
Q 1159 2438 1159 1844 
L 1159 0 
L 581 0 
L 581 3500 
L 1159 3500 
L 1159 2956 
Q 1341 3275 1631 3429 
Q 1922 3584 2338 3584 
Q 2397 3584 2469 3576 
Q 2541 3569 2628 3553 
L 2631 2963 
z
" transform="scale(0.015625)"/>
        <path id="DejaVuSans-6c" d="M 603 4863 
L 1178 4863 
L 1178 0 
L 603 0 
L 603 4863 
z
" transform="scale(0.015625)"/>
       </defs>
       <use xlink:href="#DejaVuSans-63"/>
       <use xlink:href="#DejaVuSans-74" x="54.980469"/>
       <use xlink:href="#DejaVuSans-72" x="94.189453"/>
       <use xlink:href="#DejaVuSans-6c" x="135.302734"/>
      </g>
     </g>
    </g>
    <g id="xtick_3">
     <g id="line2d_3">
      <g>
       <use xlink:href="#m51fe566d78" x="370.215" y="361.036875" style="stroke: #000000; stroke-width: 0.8"/>
      </g>
     </g>
     <g id="text_3">
      <!-- female -->
      <g transform="translate(352.978281 375.635312) scale(0.1 -0.1)">
       <defs>
        <path id="DejaVuSans-66" d="M 2375 4863 
L 2375 4384 
L 1825 4384 
Q 1516 4384 1395 4259 
Q 1275 4134 1275 3809 
L 1275 3500 
L 2222 3500 
L 2222 3053 
L 1275 3053 
L 1275 0 
L 697 0 
L 697 3053 
L 147 3053 
L 147 3500 
L 697 3500 
L 697 3744 
Q 697 4328 969 4595 
Q 1241 4863 1831 4863 
L 2375 4863 
z
" transform="scale(0.015625)"/>
        <path id="DejaVuSans-65" d="M 3597 1894 
L 3597 1613 
L 953 1613 
Q 991 1019 1311 708 
Q 1631 397 2203 397 
Q 2534 397 2845 478 
Q 3156 559 3463 722 
L 3463 178 
Q 3153 47 2828 -22 
Q 2503 -91 2169 -91 
Q 1331 -91 842 396 
Q 353 884 353 1716 
Q 353 2575 817 3079 
Q 1281 3584 2069 3584 
Q 2775 3584 3186 3129 
Q 3597 2675 3597 1894 
z
M 3022 2063 
Q 3016 2534 2758 2815 
Q 2500 3097 2075 3097 
Q 1594 3097 1305 2825 
Q 1016 2553 972 2059 
L 3022 2063 
z
" transform="scale(0.015625)"/>
        <path id="DejaVuSans-6d" d="M 3328 2828 
Q 3544 3216 3844 3400 
Q 4144 3584 4550 3584 
Q 5097 3584 5394 3201 
Q 5691 2819 5691 2113 
L 5691 0 
L 5113 0 
L 5113 2094 
Q 5113 2597 4934 2840 
Q 4756 3084 4391 3084 
Q 3944 3084 3684 2787 
Q 3425 2491 3425 1978 
L 3425 0 
L 2847 0 
L 2847 2094 
Q 2847 2600 2669 2842 
Q 2491 3084 2119 3084 
Q 1678 3084 1418 2786 
Q 1159 2488 1159 1978 
L 1159 0 
L 581 0 
L 581 3500 
L 1159 3500 
L 1159 2956 
Q 1356 3278 1631 3431 
Q 1906 3584 2284 3584 
Q 2666 3584 2933 3390 
Q 3200 3197 3328 2828 
z
" transform="scale(0.015625)"/>
       </defs>
       <use xlink:href="#DejaVuSans-66"/>
       <use xlink:href="#DejaVuSans-65" x="35.205078"/>
       <use xlink:href="#DejaVuSans-6d" x="96.728516"/>
       <use xlink:href="#DejaVuSans-61" x="194.140625"/>
       <use xlink:href="#DejaVuSans-6c" x="255.419922"/>
       <use xlink:href="#DejaVuSans-65" x="283.203125"/>
      </g>
     </g>
    </g>
    <g id="text_4">
     <!-- Groups -->
     <g transform="translate(218.781094 392.352812) scale(0.14 -0.14)">
      <defs>
       <path id="DejaVuSans-47" d="M 3809 666 
L 3809 1919 
L 2778 1919 
L 2778 2438 
L 4434 2438 
L 4434 434 
Q 4069 175 3628 42 
Q 3188 -91 2688 -91 
Q 1594 -91 976 548 
Q 359 1188 359 2328 
Q 359 3472 976 4111 
Q 1594 4750 2688 4750 
Q 3144 4750 3555 4637 
Q 3966 4525 4313 4306 
L 4313 3634 
Q 3963 3931 3569 4081 
Q 3175 4231 2741 4231 
Q 1884 4231 1454 3753 
Q 1025 3275 1025 2328 
Q 1025 1384 1454 906 
Q 1884 428 2741 428 
Q 3075 428 3337 486 
Q 3600 544 3809 666 
z
" transform="scale(0.015625)"/>
       <path id="DejaVuSans-6f" d="M 1959 3097 
Q 1497 3097 1228 2736 
Q 959 2375 959 1747 
Q 959 1119 1226 758 
Q 1494 397 1959 397 
Q 2419 397 2687 759 
Q 2956 1122 2956 1747 
Q 2956 2369 2687 2733 
Q 2419 3097 1959 3097 
z
M 1959 3584 
Q 2709 3584 3137 3096 
Q 3566 2609 3566 1747 
Q 3566 888 3137 398 
Q 2709 -91 1959 -91 
Q 1206 -91 779 398 
Q 353 888 353 1747 
Q 353 2609 779 3096 
Q 1206 3584 1959 3584 
z
" transform="scale(0.015625)"/>
       <path id="DejaVuSans-75" d="M 544 1381 
L 544 3500 
L 1119 3500 
L 1119 1403 
Q 1119 906 1312 657 
Q 1506 409 1894 409 
Q 2359 409 2629 706 
Q 2900 1003 2900 1516 
L 2900 3500 
L 3475 3500 
L 3475 0 
L 2900 0 
L 2900 538 
Q 2691 219 2414 64 
Q 2138 -91 1772 -91 
Q 1169 -91 856 284 
Q 544 659 544 1381 
z
M 1991 3584 
L 1991 3584 
z
" transform="scale(0.015625)"/>
       <path id="DejaVuSans-70" d="M 1159 525 
L 1159 -1331 
L 581 -1331 
L 581 3500 
L 1159 3500 
L 1159 2969 
Q 1341 3281 1617 3432 
Q 1894 3584 2278 3584 
Q 2916 3584 3314 3078 
Q 3713 2572 3713 1747 
Q 3713 922 3314 415 
Q 2916 -91 2278 -91 
Q 1894 -91 1617 61 
Q 1341 213 1159 525 
z
M 3116 1747 
Q 3116 2381 2855 2742 
Q 2594 3103 2138 3103 
Q 1681 3103 1420 2742 
Q 1159 2381 1159 1747 
Q 1159 1113 1420 752 
Q 1681 391 2138 391 
Q 2594 391 2855 752 
Q 3116 1113 3116 1747 
z
" transform="scale(0.015625)"/>
      </defs>
      <use xlink:href="#DejaVuSans-47"/>
      <use xlink:href="#DejaVuSans-72" x="77.490234"/>
      <use xlink:href="#DejaVuSans-6f" x="116.353516"/>
      <use xlink:href="#DejaVuSans-75" x="177.535156"/>
      <use xlink:href="#DejaVuSans-70" x="240.914062"/>
      <use xlink:href="#DejaVuSans-73" x="304.390625"/>
     </g>
    </g>
   </g>
   <g id="matplotlib.axis_2">
    <g id="ytick_1">
     <g id="line2d_4">
      <path d="M 54.015 332.059858 
L 433.455 332.059858 
" clip-path="url(#p5f693f77ca)" style="fill: none; stroke-dasharray: 2.96,1.28; stroke-dashoffset: 0; stroke: #b0b0b0; stroke-opacity: 0.3; stroke-width: 0.8"/>
     </g>
     <g id="line2d_5">
      <defs>
       <path id="me01984be7d" d="M 0 0 
L -3.5 0 
" style="stroke: #000000; stroke-width: 0.8"/>
      </defs>
      <g>
       <use xlink:href="#me01984be7d" x="54.015" y="332.059858" style="stroke: #000000; stroke-width: 0.8"/>
      </g>
     </g>
     <g id="text_5">
      <!-- 0.45 -->
      <g transform="translate(24.749375 335.859077) scale(0.1 -0.1)">
       <defs>
        <path id="DejaVuSans-30" d="M 2034 4250 
Q 1547 4250 1301 3770 
Q 1056 3291 1056 2328 
Q 1056 1369 1301 889 
Q 1547 409 2034 409 
Q 2525 409 2770 889 
Q 3016 1369 3016 2328 
Q 3016 3291 2770 3770 
Q 2525 4250 2034 4250 
z
M 2034 4750 
Q 2819 4750 3233 4129 
Q 3647 3509 3647 2328 
Q 3647 1150 3233 529 
Q 2819 -91 2034 -91 
Q 1250 -91 836 529 
Q 422 1150 422 2328 
Q 422 3509 836 4129 
Q 1250 4750 2034 4750 
z
" transform="scale(0.015625)"/>
        <path id="DejaVuSans-2e" d="M 684 794 
L 1344 794 
L 1344 0 
L 684 0 
L 684 794 
z
" transform="scale(0.015625)"/>
        <path id="DejaVuSans-34" d="M 2419 4116 
L 825 1625 
L 2419 1625 
L 2419 4116 
z
M 2253 4666 
L 3047 4666 
L 3047 1625 
L 3713 1625 
L 3713 1100 
L 3047 1100 
L 3047 0 
L 2419 0 
L 2419 1100 
L 313 1100 
L 313 1709 
L 2253 4666 
z
" transform="scale(0.015625)"/>
        <path id="DejaVuSans-35" d="M 691 4666 
L 3169 4666 
L 3169 4134 
L 1269 4134 
L 1269 2991 
Q 1406 3038 1543 3061 
Q 1681 3084 1819 3084 
Q 2600 3084 3056 2656 
Q 3513 2228 3513 1497 
Q 3513 744 3044 326 
Q 2575 -91 1722 -91 
Q 1428 -91 1123 -41 
Q 819 9 494 109 
L 494 744 
Q 775 591 1075 516 
Q 1375 441 1709 441 
Q 2250 441 2565 725 
Q 2881 1009 2881 1497 
Q 2881 1984 2565 2268 
Q 2250 2553 1709 2553 
Q 1456 2553 1204 2497 
Q 953 2441 691 2322 
L 691 4666 
z
" transform="scale(0.015625)"/>
       </defs>
       <use xlink:href="#DejaVuSans-30"/>
       <use xlink:href="#DejaVuSans-2e" x="63.623047"/>
       <use xlink:href="#DejaVuSans-34" x="95.410156"/>
       <use xlink:href="#DejaVuSans-35" x="159.033203"/>
      </g>
     </g>
    </g>
    <g id="ytick_2">
     <g id="line2d_6">
      <path d="M 54.015 290.488806 
L 433.455 290.488806 
" clip-path="url(#p5f693f77ca)" style="fill: none; stroke-dasharray: 2.96,1.28; stroke-dashoffset: 0; stroke: #b0b0b0; stroke-opacity: 0.3; stroke-width: 0.8"/>
     </g>
     <g id="line2d_7">
      <g>
       <use xlink:href="#me01984be7d" x="54.015" y="290.488806" style="stroke: #000000; stroke-width: 0.8"/>
      </g>
     </g>
     <g id="text_6">
      <!-- 0.50 -->
      <g transform="translate(24.749375 294.288025) scale(0.1 -0.1)">
       <use xlink:href="#DejaVuSans-30"/>
       <use xlink:href="#DejaVuSans-2e" x="63.623047"/>
       <use xlink:href="#DejaVuSans-35" x="95.410156"/>
       <use xlink:href="#DejaVuSans-30" x="159.033203"/>
      </g>
     </g>
    </g>
    <g id="ytick_3">
     <g id="line2d_8">
      <path d="M 54.015 248.917754 
L 433.455 248.917754 
" clip-path="url(#p5f693f77ca)" style="fill: none; stroke-dasharray: 2.96,1.28; stroke-dashoffset: 0; stroke: #b0b0b0; stroke-opacity: 0.3; stroke-width: 0.8"/>
     </g>
     <g id="line2d_9">
      <g>
       <use xlink:href="#me01984be7d" x="54.015" y="248.917754" style="stroke: #000000; stroke-width: 0.8"/>
      </g>
     </g>
     <g id="text_7">
      <!-- 0.55 -->
      <g transform="translate(24.749375 252.716973) scale(0.1 -0.1)">
       <use xlink:href="#DejaVuSans-30"/>
       <use xlink:href="#DejaVuSans-2e" x="63.623047"/>
       <use xlink:href="#DejaVuSans-35" x="95.410156"/>
       <use xlink:href="#DejaVuSans-35" x="159.033203"/>
      </g>
     </g>
    </g>
    <g id="ytick_4">
     <g id="line2d_10">
      <path d="M 54.015 207.346703 
L 433.455 207.346703 
" clip-path="url(#p5f693f77ca)" style="fill: none; stroke-dasharray: 2.96,1.28; stroke-dashoffset: 0; stroke: #b0b0b0; stroke-opacity: 0.3; stroke-width: 0.8"/>
     </g>
     <g id="line2d_11">
      <g>
       <use xlink:href="#me01984be7d" x="54.015" y="207.346703" style="stroke: #000000; stroke-width: 0.8"/>
      </g>
     </g>
     <g id="text_8">
      <!-- 0.60 -->
      <g transform="translate(24.749375 211.145921) scale(0.1 -0.1)">
       <defs>
        <path id="DejaVuSans-36" d="M 2113 2584 
Q 1688 2584 1439 2293 
Q 1191 2003 1191 1497 
Q 1191 994 1439 701 
Q 1688 409 2113 409 
Q 2538 409 2786 701 
Q 3034 994 3034 1497 
Q 3034 2003 2786 2293 
Q 2538 2584 2113 2584 
z
M 3366 4563 
L 3366 3988 
Q 3128 4100 2886 4159 
Q 2644 4219 2406 4219 
Q 1781 4219 1451 3797 
Q 1122 3375 1075 2522 
Q 1259 2794 1537 2939 
Q 1816 3084 2150 3084 
Q 2853 3084 3261 2657 
Q 3669 2231 3669 1497 
Q 3669 778 3244 343 
Q 2819 -91 2113 -91 
Q 1303 -91 875 529 
Q 447 1150 447 2328 
Q 447 3434 972 4092 
Q 1497 4750 2381 4750 
Q 2619 4750 2861 4703 
Q 3103 4656 3366 4563 
z
" transform="scale(0.015625)"/>
       </defs>
       <use xlink:href="#DejaVuSans-30"/>
       <use xlink:href="#DejaVuSans-2e" x="63.623047"/>
       <use xlink:href="#DejaVuSans-36" x="95.410156"/>
       <use xlink:href="#DejaVuSans-30" x="159.033203"/>
      </g>
     </g>
    </g>
    <g id="ytick_5">
     <g id="line2d_12">
      <path d="M 54.015 165.775651 
L 433.455 165.775651 
" clip-path="url(#p5f693f77ca)" style="fill: none; stroke-dasharray: 2.96,1.28; stroke-dashoffset: 0; stroke: #b0b0b0; stroke-opacity: 0.3; stroke-width: 0.8"/>
     </g>
     <g id="line2d_13">
      <g>
       <use xlink:href="#me01984be7d" x="54.015" y="165.775651" style="stroke: #000000; stroke-width: 0.8"/>
      </g>
     </g>
     <g id="text_9">
      <!-- 0.65 -->
      <g transform="translate(24.749375 169.57487) scale(0.1 -0.1)">
       <use xlink:href="#DejaVuSans-30"/>
       <use xlink:href="#DejaVuSans-2e" x="63.623047"/>
       <use xlink:href="#DejaVuSans-36" x="95.410156"/>
       <use xlink:href="#DejaVuSans-35" x="159.033203"/>
      </g>
     </g>
    </g>
    <g id="ytick_6">
     <g id="line2d_14">
      <path d="M 54.015 124.204599 
L 433.455 124.204599 
" clip-path="url(#p5f693f77ca)" style="fill: none; stroke-dasharray: 2.96,1.28; stroke-dashoffset: 0; stroke: #b0b0b0; stroke-opacity: 0.3; stroke-width: 0.8"/>
     </g>
     <g id="line2d_15">
      <g>
       <use xlink:href="#me01984be7d" x="54.015" y="124.204599" style="stroke: #000000; stroke-width: 0.8"/>
      </g>
     </g>
     <g id="text_10">
      <!-- 0.70 -->
      <g transform="translate(24.749375 128.003818) scale(0.1 -0.1)">
       <defs>
        <path id="DejaVuSans-37" d="M 525 4666 
L 3525 4666 
L 3525 4397 
L 1831 0 
L 1172 0 
L 2766 4134 
L 525 4134 
L 525 4666 
z
" transform="scale(0.015625)"/>
       </defs>
       <use xlink:href="#DejaVuSans-30"/>
       <use xlink:href="#DejaVuSans-2e" x="63.623047"/>
       <use xlink:href="#DejaVuSans-37" x="95.410156"/>
       <use xlink:href="#DejaVuSans-30" x="159.033203"/>
      </g>
     </g>
    </g>
    <g id="ytick_7">
     <g id="line2d_16">
      <path d="M 54.015 82.633547 
L 433.455 82.633547 
" clip-path="url(#p5f693f77ca)" style="fill: none; stroke-dasharray: 2.96,1.28; stroke-dashoffset: 0; stroke: #b0b0b0; stroke-opacity: 0.3; stroke-width: 0.8"/>
     </g>
     <g id="line2d_17">
      <g>
       <use xlink:href="#me01984be7d" x="54.015" y="82.633547" style="stroke: #000000; stroke-width: 0.8"/>
      </g>
     </g>
     <g id="text_11">
      <!-- 0.75 -->
      <g transform="translate(24.749375 86.432766) scale(0.1 -0.1)">
       <use xlink:href="#DejaVuSans-30"/>
       <use xlink:href="#DejaVuSans-2e" x="63.623047"/>
       <use xlink:href="#DejaVuSans-37" x="95.410156"/>
       <use xlink:href="#DejaVuSans-35" x="159.033203"/>
      </g>
     </g>
    </g>
    <g id="ytick_8">
     <g id="line2d_18">
      <path d="M 54.015 41.062496 
L 433.455 41.062496 
" clip-path="url(#p5f693f77ca)" style="fill: none; stroke-dasharray: 2.96,1.28; stroke-dashoffset: 0; stroke: #b0b0b0; stroke-opacity: 0.3; stroke-width: 0.8"/>
     </g>
     <g id="line2d_19">
      <g>
       <use xlink:href="#me01984be7d" x="54.015" y="41.062496" style="stroke: #000000; stroke-width: 0.8"/>
      </g>
     </g>
     <g id="text_12">
      <!-- 0.80 -->
      <g transform="translate(24.749375 44.861714) scale(0.1 -0.1)">
       <defs>
        <path id="DejaVuSans-38" d="M 2034 2216 
Q 1584 2216 1326 1975 
Q 1069 1734 1069 1313 
Q 1069 891 1326 650 
Q 1584 409 2034 409 
Q 2484 409 2743 651 
Q 3003 894 3003 1313 
Q 3003 1734 2745 1975 
Q 2488 2216 2034 2216 
z
M 1403 2484 
Q 997 2584 770 2862 
Q 544 3141 544 3541 
Q 544 4100 942 4425 
Q 1341 4750 2034 4750 
Q 2731 4750 3128 4425 
Q 3525 4100 3525 3541 
Q 3525 3141 3298 2862 
Q 3072 2584 2669 2484 
Q 3125 2378 3379 2068 
Q 3634 1759 3634 1313 
Q 3634 634 3220 271 
Q 2806 -91 2034 -91 
Q 1263 -91 848 271 
Q 434 634 434 1313 
Q 434 1759 690 2068 
Q 947 2378 1403 2484 
z
M 1172 3481 
Q 1172 3119 1398 2916 
Q 1625 2713 2034 2713 
Q 2441 2713 2670 2916 
Q 2900 3119 2900 3481 
Q 2900 3844 2670 4047 
Q 2441 4250 2034 4250 
Q 1625 4250 1398 4047 
Q 1172 3844 1172 3481 
z
" transform="scale(0.015625)"/>
       </defs>
       <use xlink:href="#DejaVuSans-30"/>
       <use xlink:href="#DejaVuSans-2e" x="63.623047"/>
       <use xlink:href="#DejaVuSans-38" x="95.410156"/>
       <use xlink:href="#DejaVuSans-30" x="159.033203"/>
      </g>
     </g>
    </g>
    <g id="text_13">
     <!-- In-meal Pellet Ratio (ratio) -->
     <g transform="translate(17.837813 286.562344) rotate(-90) scale(0.14 -0.14)">
      <defs>
       <path id="DejaVuSans-49" d="M 628 4666 
L 1259 4666 
L 1259 0 
L 628 0 
L 628 4666 
z
" transform="scale(0.015625)"/>
       <path id="DejaVuSans-6e" d="M 3513 2113 
L 3513 0 
L 2938 0 
L 2938 2094 
Q 2938 2591 2744 2837 
Q 2550 3084 2163 3084 
Q 1697 3084 1428 2787 
Q 1159 2491 1159 1978 
L 1159 0 
L 581 0 
L 581 3500 
L 1159 3500 
L 1159 2956 
Q 1366 3272 1645 3428 
Q 1925 3584 2291 3584 
Q 2894 3584 3203 3211 
Q 3513 2838 3513 2113 
z
" transform="scale(0.015625)"/>
       <path id="DejaVuSans-2d" d="M 313 2009 
L 1997 2009 
L 1997 1497 
L 313 1497 
L 313 2009 
z
" transform="scale(0.015625)"/>
       <path id="DejaVuSans-20" transform="scale(0.015625)"/>
       <path id="DejaVuSans-50" d="M 1259 4147 
L 1259 2394 
L 2053 2394 
Q 2494 2394 2734 2622 
Q 2975 2850 2975 3272 
Q 2975 3691 2734 3919 
Q 2494 4147 2053 4147 
L 1259 4147 
z
M 628 4666 
L 2053 4666 
Q 2838 4666 3239 4311 
Q 3641 3956 3641 3272 
Q 3641 2581 3239 2228 
Q 2838 1875 2053 1875 
L 1259 1875 
L 1259 0 
L 628 0 
L 628 4666 
z
" transform="scale(0.015625)"/>
       <path id="DejaVuSans-52" d="M 2841 2188 
Q 3044 2119 3236 1894 
Q 3428 1669 3622 1275 
L 4263 0 
L 3584 0 
L 2988 1197 
Q 2756 1666 2539 1819 
Q 2322 1972 1947 1972 
L 1259 1972 
L 1259 0 
L 628 0 
L 628 4666 
L 2053 4666 
Q 2853 4666 3247 4331 
Q 3641 3997 3641 3322 
Q 3641 2881 3436 2590 
Q 3231 2300 2841 2188 
z
M 1259 4147 
L 1259 2491 
L 2053 2491 
Q 2509 2491 2742 2702 
Q 2975 2913 2975 3322 
Q 2975 3731 2742 3939 
Q 2509 4147 2053 4147 
L 1259 4147 
z
" transform="scale(0.015625)"/>
       <path id="DejaVuSans-69" d="M 603 3500 
L 1178 3500 
L 1178 0 
L 603 0 
L 603 3500 
z
M 603 4863 
L 1178 4863 
L 1178 4134 
L 603 4134 
L 603 4863 
z
" transform="scale(0.015625)"/>
       <path id="DejaVuSans-28" d="M 1984 4856 
Q 1566 4138 1362 3434 
Q 1159 2731 1159 2009 
Q 1159 1288 1364 580 
Q 1569 -128 1984 -844 
L 1484 -844 
Q 1016 -109 783 600 
Q 550 1309 550 2009 
Q 550 2706 781 3412 
Q 1013 4119 1484 4856 
L 1984 4856 
z
" transform="scale(0.015625)"/>
       <path id="DejaVuSans-29" d="M 513 4856 
L 1013 4856 
Q 1481 4119 1714 3412 
Q 1947 2706 1947 2009 
Q 1947 1309 1714 600 
Q 1481 -109 1013 -844 
L 513 -844 
Q 928 -128 1133 580 
Q 1338 1288 1338 2009 
Q 1338 2731 1133 3434 
Q 928 4138 513 4856 
z
" transform="scale(0.015625)"/>
      </defs>
      <use xlink:href="#DejaVuSans-49"/>
      <use xlink:href="#DejaVuSans-6e" x="29.492188"/>
      <use xlink:href="#DejaVuSans-2d" x="92.871094"/>
      <use xlink:href="#DejaVuSans-6d" x="128.955078"/>
      <use xlink:href="#DejaVuSans-65" x="226.367188"/>
      <use xlink:href="#DejaVuSans-61" x="287.890625"/>
      <use xlink:href="#DejaVuSans-6c" x="349.169922"/>
      <use xlink:href="#DejaVuSans-20" x="376.953125"/>
      <use xlink:href="#DejaVuSans-50" x="408.740234"/>
      <use xlink:href="#DejaVuSans-65" x="465.417969"/>
      <use xlink:href="#DejaVuSans-6c" x="526.941406"/>
      <use xlink:href="#DejaVuSans-6c" x="554.724609"/>
      <use xlink:href="#DejaVuSans-65" x="582.507812"/>
      <use xlink:href="#DejaVuSans-74" x="644.03125"/>
      <use xlink:href="#DejaVuSans-20" x="683.240234"/>
      <use xlink:href="#DejaVuSans-52" x="715.027344"/>
      <use xlink:href="#DejaVuSans-61" x="782.259766"/>
      <use xlink:href="#DejaVuSans-74" x="843.539062"/>
      <use xlink:href="#DejaVuSans-69" x="882.748047"/>
      <use xlink:href="#DejaVuSans-6f" x="910.53125"/>
      <use xlink:href="#DejaVuSans-20" x="971.712891"/>
      <use xlink:href="#DejaVuSans-28" x="1003.5"/>
      <use xlink:href="#DejaVuSans-72" x="1042.513672"/>
      <use xlink:href="#DejaVuSans-61" x="1083.626953"/>
      <use xlink:href="#DejaVuSans-74" x="1144.90625"/>
      <use xlink:href="#DejaVuSans-69" x="1184.115234"/>
      <use xlink:href="#DejaVuSans-6f" x="1211.898438"/>
      <use xlink:href="#DejaVuSans-29" x="1273.080078"/>
     </g>
    </g>
   </g>
   <g id="patch_3">
    <path d="M 107.769 221.044907 
L 126.741 221.044907 
L 126.741 148.325386 
L 107.769 148.325386 
L 107.769 221.044907 
z
" clip-path="url(#p5f693f77ca)" style="fill: #ffffff; stroke: #000000; stroke-linejoin: miter"/>
   </g>
   <g id="line2d_20">
    <path d="M 117.255 221.044907 
L 117.255 265.011779 
" clip-path="url(#p5f693f77ca)" style="fill: none; stroke: #000000; stroke-linecap: square"/>
   </g>
   <g id="line2d_21">
    <path d="M 117.255 148.325386 
L 117.255 43.516875 
" clip-path="url(#p5f693f77ca)" style="fill: none; stroke: #000000; stroke-linecap: square"/>
   </g>
   <g id="line2d_22">
    <path d="M 112.512 265.011779 
L 121.998 265.011779 
" clip-path="url(#p5f693f77ca)" style="fill: none; stroke: #000000; stroke-linecap: square"/>
   </g>
   <g id="line2d_23">
    <path d="M 112.512 43.516875 
L 121.998 43.516875 
" clip-path="url(#p5f693f77ca)" style="fill: none; stroke: #000000; stroke-linecap: square"/>
   </g>
   <g id="patch_4">
    <path d="M 234.249 219.467234 
L 253.221 219.467234 
L 253.221 159.128617 
L 234.249 159.128617 
L 234.249 219.467234 
z
" clip-path="url(#p5f693f77ca)" style="fill: #ffffff; stroke: #000000; stroke-linejoin: miter"/>
   </g>
   <g id="line2d_24">
    <path d="M 243.735 219.467234 
L 243.735 296.765504 
" clip-path="url(#p5f693f77ca)" style="fill: none; stroke: #000000; stroke-linecap: square"/>
   </g>
   <g id="line2d_25">
    <path d="M 243.735 159.128617 
L 243.735 105.257249 
" clip-path="url(#p5f693f77ca)" style="fill: none; stroke: #000000; stroke-linecap: square"/>
   </g>
   <g id="line2d_26">
    <path d="M 238.992 296.765504 
L 248.478 296.765504 
" clip-path="url(#p5f693f77ca)" style="fill: none; stroke: #000000; stroke-linecap: square"/>
   </g>
   <g id="line2d_27">
    <path d="M 238.992 105.257249 
L 248.478 105.257249 
" clip-path="url(#p5f693f77ca)" style="fill: none; stroke: #000000; stroke-linecap: square"/>
   </g>
   <g id="patch_5">
    <path d="M 360.729 319.56658 
L 379.701 319.56658 
L 379.701 256.910611 
L 360.729 256.910611 
L 360.729 319.56658 
z
" clip-path="url(#p5f693f77ca)" style="fill: #ffffff; stroke: #000000; stroke-linejoin: miter"/>
   </g>
   <g id="line2d_28">
    <path d="M 370.215 319.56658 
L 370.215 345.916875 
" clip-path="url(#p5f693f77ca)" style="fill: none; stroke: #000000; stroke-linecap: square"/>
   </g>
   <g id="line2d_29">
    <path d="M 370.215 256.910611 
L 370.215 193.290304 
" clip-path="url(#p5f693f77ca)" style="fill: none; stroke: #000000; stroke-linecap: square"/>
   </g>
   <g id="line2d_30">
    <path d="M 365.472 345.916875 
L 374.958 345.916875 
" clip-path="url(#p5f693f77ca)" style="fill: none; stroke: #000000; stroke-linecap: square"/>
   </g>
   <g id="line2d_31">
    <path d="M 365.472 193.290304 
L 374.958 193.290304 
" clip-path="url(#p5f693f77ca)" style="fill: none; stroke: #000000; stroke-linecap: square"/>
   </g>
   <g id="line2d_32">
    <path d="M 107.769 188.992614 
L 126.741 188.992614 
" clip-path="url(#p5f693f77ca)" style="fill: none; stroke: #000000"/>
   </g>
   <g id="line2d_33">
    <path d="M 234.249 198.019349 
L 253.221 198.019349 
" clip-path="url(#p5f693f77ca)" style="fill: none; stroke: #000000"/>
   </g>
   <g id="line2d_34">
    <path d="M 360.729 286.762353 
L 379.701 286.762353 
" clip-path="url(#p5f693f77ca)" style="fill: none; stroke: #000000"/>
   </g>
   <g id="patch_6">
    <path d="M 54.015 361.036875 
L 54.015 28.396875 
" style="fill: none; stroke: #000000; stroke-width: 0.8; stroke-linejoin: miter; stroke-linecap: square"/>
   </g>
   <g id="patch_7">
    <path d="M 433.455 361.036875 
L 433.455 28.396875 
" style="fill: none; stroke: #000000; stroke-width: 0.8; stroke-linejoin: miter; stroke-linecap: square"/>
   </g>
   <g id="patch_8">
    <path d="M 54.015 361.036875 
L 433.455 361.036875 
" style="fill: none; stroke: #000000; stroke-width: 0.8; stroke-linejoin: miter; stroke-linecap: square"/>
   </g>
   <g id="patch_9">
    <path d="M 54.015 28.396875 
L 433.455 28.396875 
" style="fill: none; stroke: #000000; stroke-width: 0.8; stroke-linejoin: miter; stroke-linecap: square"/>
   </g>
   <g id="PathCollection_1">
    <defs>
     <path id="m17c12bc140" d="M 0 3 
C 0.795609 3 1.55874 2.683901 2.12132 2.12132 
C 2.683901 1.55874 3 0.795609 3 0 
C 3 -0.795609 2.683901 -1.55874 2.12132 -2.12132 
C 1.55874 -2.683901 0.795609 -3 0 -3 
C -0.795609 -3 -1.55874 -2.683901 -2.12132 -2.12132 
C -2.683901 -1.55874 -3 -0.795609 -3 0 
C -3 0.795609 -2.683901 1.55874 -2.12132 2.12132 
C -1.55874 2.683901 -0.795609 3 0 3 
z
" style="stroke: #000000; stroke-opacity: 0.85; stroke-width: 0.4"/>
    </defs>
    <g clip-path="url(#p5f693f77ca)">
     <use xlink:href="#m17c12bc140" x="113.721413" y="253.270414" style="fill: #425df5; fill-opacity: 0.85; stroke: #000000; stroke-opacity: 0.85; stroke-width: 0.4"/>
     <use xlink:href="#m17c12bc140" x="112.596961" y="230.566569" style="fill: #425df5; fill-opacity: 0.85; stroke: #000000; stroke-opacity: 0.85; stroke-width: 0.4"/>
     <use xlink:href="#m17c12bc140" x="116.098589" y="244.447031" style="fill: #425df5; fill-opacity: 0.85; stroke: #000000; stroke-opacity: 0.85; stroke-width: 0.4"/>
     <use xlink:href="#m17c12bc140" x="113.605448" y="94.915903" style="fill: #425df5; fill-opacity: 0.85; stroke: #000000; stroke-opacity: 0.85; stroke-width: 0.4"/>
     <use xlink:href="#m17c12bc140" x="116.871071" y="43.516875" style="fill: #425df5; fill-opacity: 0.85; stroke: #000000; stroke-opacity: 0.85; stroke-width: 0.4"/>
     <use xlink:href="#m17c12bc140" x="120.300093" y="257.420924" style="fill: #425df5; fill-opacity: 0.85; stroke: #000000; stroke-opacity: 0.85; stroke-width: 0.4"/>
     <use xlink:href="#m17c12bc140" x="120.263368" y="188.572679" style="fill: #425df5; fill-opacity: 0.85; stroke: #000000; stroke-opacity: 0.85; stroke-width: 0.4"/>
     <use xlink:href="#m17c12bc140" x="117.048568" y="197.59852" style="fill: #425df5; fill-opacity: 0.85; stroke: #000000; stroke-opacity: 0.85; stroke-width: 0.4"/>
     <use xlink:href="#m17c12bc140" x="113.618332" y="196.554218" style="fill: #425df5; fill-opacity: 0.85; stroke: #000000; stroke-opacity: 0.85; stroke-width: 0.4"/>
     <use xlink:href="#m17c12bc140" x="119.138815" y="96.890767" style="fill: #425df5; fill-opacity: 0.85; stroke: #000000; stroke-opacity: 0.85; stroke-width: 0.4"/>
     <use xlink:href="#m17c12bc140" x="119.333985" y="155.60769" style="fill: #425df5; fill-opacity: 0.85; stroke: #000000; stroke-opacity: 0.85; stroke-width: 0.4"/>
     <use xlink:href="#m17c12bc140" x="117.637487" y="136.0201" style="fill: #425df5; fill-opacity: 0.85; stroke: #000000; stroke-opacity: 0.85; stroke-width: 0.4"/>
     <use xlink:href="#m17c12bc140" x="113.939057" y="234.478365" style="fill: #425df5; fill-opacity: 0.85; stroke: #000000; stroke-opacity: 0.85; stroke-width: 0.4"/>
     <use xlink:href="#m17c12bc140" x="117.736941" y="160.133402" style="fill: #425df5; fill-opacity: 0.85; stroke: #000000; stroke-opacity: 0.85; stroke-width: 0.4"/>
     <use xlink:href="#m17c12bc140" x="120.629953" y="93.462093" style="fill: #425df5; fill-opacity: 0.85; stroke: #000000; stroke-opacity: 0.85; stroke-width: 0.4"/>
     <use xlink:href="#m17c12bc140" x="116.290288" y="153.608514" style="fill: #425df5; fill-opacity: 0.85; stroke: #000000; stroke-opacity: 0.85; stroke-width: 0.4"/>
     <use xlink:href="#m17c12bc140" x="114.86738" y="189.41255" style="fill: #425df5; fill-opacity: 0.85; stroke: #000000; stroke-opacity: 0.85; stroke-width: 0.4"/>
     <use xlink:href="#m17c12bc140" x="118.453608" y="265.011779" style="fill: #425df5; fill-opacity: 0.85; stroke: #000000; stroke-opacity: 0.85; stroke-width: 0.4"/>
     <use xlink:href="#m17c12bc140" x="113.830165" y="217.871019" style="fill: #425df5; fill-opacity: 0.85; stroke: #000000; stroke-opacity: 0.85; stroke-width: 0.4"/>
     <use xlink:href="#m17c12bc140" x="116.358599" y="132.875037" style="fill: #425df5; fill-opacity: 0.85; stroke: #000000; stroke-opacity: 0.85; stroke-width: 0.4"/>
     <use xlink:href="#m17c12bc140" x="116.190533" y="202.535586" style="fill: #425df5; fill-opacity: 0.85; stroke: #000000; stroke-opacity: 0.85; stroke-width: 0.4"/>
     <use xlink:href="#m17c12bc140" x="122.267636" y="169.175514" style="fill: #425df5; fill-opacity: 0.85; stroke: #000000; stroke-opacity: 0.85; stroke-width: 0.4"/>
     <use xlink:href="#m17c12bc140" x="119.31512" y="152.427148" style="fill: #425df5; fill-opacity: 0.85; stroke: #000000; stroke-opacity: 0.85; stroke-width: 0.4"/>
     <use xlink:href="#m17c12bc140" x="113.218692" y="195.079835" style="fill: #425df5; fill-opacity: 0.85; stroke: #000000; stroke-opacity: 0.85; stroke-width: 0.4"/>
    </g>
   </g>
   <g id="PathCollection_2">
    <defs>
     <path id="me3b2a15b55" d="M 0 3 
C 0.795609 3 1.55874 2.683901 2.12132 2.12132 
C 2.683901 1.55874 3 0.795609 3 0 
C 3 -0.795609 2.683901 -1.55874 2.12132 -2.12132 
C 1.55874 -2.683901 0.795609 -3 0 -3 
C -0.795609 -3 -1.55874 -2.683901 -2.12132 -2.12132 
C -2.683901 -1.55874 -3 -0.795609 -3 0 
C -3 0.795609 -2.683901 1.55874 -2.12132 2.12132 
C -1.55874 2.683901 -0.795609 3 0 3 
z
" style="stroke: #000000; stroke-opacity: 0.85; stroke-width: 0.4"/>
    </defs>
    <g clip-path="url(#p5f693f77ca)">
     <use xlink:href="#me3b2a15b55" x="239.225011" y="277.679798" style="fill: #f55442; fill-opacity: 0.85; stroke: #000000; stroke-opacity: 0.85; stroke-width: 0.4"/>
     <use xlink:href="#me3b2a15b55" x="241.17315" y="233.884006" style="fill: #f55442; fill-opacity: 0.85; stroke: #000000; stroke-opacity: 0.85; stroke-width: 0.4"/>
     <use xlink:href="#me3b2a15b55" x="244.759178" y="105.257249" style="fill: #f55442; fill-opacity: 0.85; stroke: #000000; stroke-opacity: 0.85; stroke-width: 0.4"/>
     <use xlink:href="#me3b2a15b55" x="243.088674" y="212.89792" style="fill: #f55442; fill-opacity: 0.85; stroke: #000000; stroke-opacity: 0.85; stroke-width: 0.4"/>
     <use xlink:href="#me3b2a15b55" x="242.033495" y="198.019349" style="fill: #f55442; fill-opacity: 0.85; stroke: #000000; stroke-opacity: 0.85; stroke-width: 0.4"/>
     <use xlink:href="#me3b2a15b55" x="244.13375" y="216.64549" style="fill: #f55442; fill-opacity: 0.85; stroke: #000000; stroke-opacity: 0.85; stroke-width: 0.4"/>
     <use xlink:href="#me3b2a15b55" x="246.77893" y="132.518809" style="fill: #f55442; fill-opacity: 0.85; stroke: #000000; stroke-opacity: 0.85; stroke-width: 0.4"/>
     <use xlink:href="#me3b2a15b55" x="246.212029" y="286.487314" style="fill: #f55442; fill-opacity: 0.85; stroke: #000000; stroke-opacity: 0.85; stroke-width: 0.4"/>
     <use xlink:href="#me3b2a15b55" x="243.218739" y="222.288977" style="fill: #f55442; fill-opacity: 0.85; stroke: #000000; stroke-opacity: 0.85; stroke-width: 0.4"/>
     <use xlink:href="#me3b2a15b55" x="240.043508" y="296.765504" style="fill: #f55442; fill-opacity: 0.85; stroke: #000000; stroke-opacity: 0.85; stroke-width: 0.4"/>
     <use xlink:href="#me3b2a15b55" x="248.186237" y="163.042115" style="fill: #f55442; fill-opacity: 0.85; stroke: #000000; stroke-opacity: 0.85; stroke-width: 0.4"/>
     <use xlink:href="#me3b2a15b55" x="240.117894" y="243.72938" style="fill: #f55442; fill-opacity: 0.85; stroke: #000000; stroke-opacity: 0.85; stroke-width: 0.4"/>
     <use xlink:href="#me3b2a15b55" x="245.84472" y="211.498042" style="fill: #f55442; fill-opacity: 0.85; stroke: #000000; stroke-opacity: 0.85; stroke-width: 0.4"/>
     <use xlink:href="#me3b2a15b55" x="244.483557" y="194.286512" style="fill: #f55442; fill-opacity: 0.85; stroke: #000000; stroke-opacity: 0.85; stroke-width: 0.4"/>
     <use xlink:href="#me3b2a15b55" x="243.528721" y="165.097862" style="fill: #f55442; fill-opacity: 0.85; stroke: #000000; stroke-opacity: 0.85; stroke-width: 0.4"/>
     <use xlink:href="#me3b2a15b55" x="247.594388" y="199.406165" style="fill: #f55442; fill-opacity: 0.85; stroke: #000000; stroke-opacity: 0.85; stroke-width: 0.4"/>
     <use xlink:href="#me3b2a15b55" x="241.513906" y="195.314275" style="fill: #f55442; fill-opacity: 0.85; stroke: #000000; stroke-opacity: 0.85; stroke-width: 0.4"/>
     <use xlink:href="#me3b2a15b55" x="238.710387" y="112.053797" style="fill: #f55442; fill-opacity: 0.85; stroke: #000000; stroke-opacity: 0.85; stroke-width: 0.4"/>
     <use xlink:href="#me3b2a15b55" x="247.197272" y="135.031946" style="fill: #f55442; fill-opacity: 0.85; stroke: #000000; stroke-opacity: 0.85; stroke-width: 0.4"/>
     <use xlink:href="#me3b2a15b55" x="247.089476" y="202.612122" style="fill: #f55442; fill-opacity: 0.85; stroke: #000000; stroke-opacity: 0.85; stroke-width: 0.4"/>
     <use xlink:href="#me3b2a15b55" x="240.436559" y="153.539337" style="fill: #f55442; fill-opacity: 0.85; stroke: #000000; stroke-opacity: 0.85; stroke-width: 0.4"/>
     <use xlink:href="#me3b2a15b55" x="248.203542" y="271.302167" style="fill: #f55442; fill-opacity: 0.85; stroke: #000000; stroke-opacity: 0.85; stroke-width: 0.4"/>
     <use xlink:href="#me3b2a15b55" x="240.030068" y="191.133498" style="fill: #f55442; fill-opacity: 0.85; stroke: #000000; stroke-opacity: 0.85; stroke-width: 0.4"/>
     <use xlink:href="#me3b2a15b55" x="238.598914" y="155.21512" style="fill: #f55442; fill-opacity: 0.85; stroke: #000000; stroke-opacity: 0.85; stroke-width: 0.4"/>
     <use xlink:href="#me3b2a15b55" x="247.64559" y="187.984843" style="fill: #f55442; fill-opacity: 0.85; stroke: #000000; stroke-opacity: 0.85; stroke-width: 0.4"/>
     <use xlink:href="#me3b2a15b55" x="248.834392" y="205.931518" style="fill: #f55442; fill-opacity: 0.85; stroke: #000000; stroke-opacity: 0.85; stroke-width: 0.4"/>
     <use xlink:href="#me3b2a15b55" x="242.898372" y="152.80976" style="fill: #f55442; fill-opacity: 0.85; stroke: #000000; stroke-opacity: 0.85; stroke-width: 0.4"/>
    </g>
   </g>
   <g id="PathCollection_3">
    <defs>
     <path id="m9c73d9e569" d="M 0 3 
C 0.795609 3 1.55874 2.683901 2.12132 2.12132 
C 2.683901 1.55874 3 0.795609 3 0 
C 3 -0.795609 2.683901 -1.55874 2.12132 -2.12132 
C 1.55874 -2.683901 0.795609 -3 0 -3 
C -0.795609 -3 -1.55874 -2.683901 -2.12132 -2.12132 
C -2.683901 -1.55874 -3 -0.795609 -3 0 
C -3 0.795609 -2.683901 1.55874 -2.12132 2.12132 
C -1.55874 2.683901 -0.795609 3 0 3 
z
" style="stroke: #000000; stroke-opacity: 0.85; stroke-width: 0.4"/>
    </defs>
    <g clip-path="url(#p5f693f77ca)">
     <use xlink:href="#m9c73d9e569" x="367.525442" y="345.916875" style="fill: #0ec72a; fill-opacity: 0.85; stroke: #000000; stroke-opacity: 0.85; stroke-width: 0.4"/>
     <use xlink:href="#m9c73d9e569" x="365.045254" y="232.588593" style="fill: #0ec72a; fill-opacity: 0.85; stroke: #000000; stroke-opacity: 0.85; stroke-width: 0.4"/>
     <use xlink:href="#m9c73d9e569" x="374.288926" y="326.121136" style="fill: #0ec72a; fill-opacity: 0.85; stroke: #000000; stroke-opacity: 0.85; stroke-width: 0.4"/>
     <use xlink:href="#m9c73d9e569" x="369.358888" y="289.681601" style="fill: #0ec72a; fill-opacity: 0.85; stroke: #000000; stroke-opacity: 0.85; stroke-width: 0.4"/>
     <use xlink:href="#m9c73d9e569" x="369.784816" y="286.835814" style="fill: #0ec72a; fill-opacity: 0.85; stroke: #000000; stroke-opacity: 0.85; stroke-width: 0.4"/>
     <use xlink:href="#m9c73d9e569" x="368.18216" y="193.290304" style="fill: #0ec72a; fill-opacity: 0.85; stroke: #000000; stroke-opacity: 0.85; stroke-width: 0.4"/>
     <use xlink:href="#m9c73d9e569" x="367.905038" y="247.152188" style="fill: #0ec72a; fill-opacity: 0.85; stroke: #000000; stroke-opacity: 0.85; stroke-width: 0.4"/>
     <use xlink:href="#m9c73d9e569" x="372.58936" y="282.930433" style="fill: #0ec72a; fill-opacity: 0.85; stroke: #000000; stroke-opacity: 0.85; stroke-width: 0.4"/>
     <use xlink:href="#m9c73d9e569" x="371.747606" y="262.434722" style="fill: #0ec72a; fill-opacity: 0.85; stroke: #000000; stroke-opacity: 0.85; stroke-width: 0.4"/>
     <use xlink:href="#m9c73d9e569" x="375.378294" y="343.066022" style="fill: #0ec72a; fill-opacity: 0.85; stroke: #000000; stroke-opacity: 0.85; stroke-width: 0.4"/>
     <use xlink:href="#m9c73d9e569" x="365.470217" y="193.317191" style="fill: #0ec72a; fill-opacity: 0.85; stroke: #000000; stroke-opacity: 0.85; stroke-width: 0.4"/>
     <use xlink:href="#m9c73d9e569" x="373.071501" y="318.023751" style="fill: #0ec72a; fill-opacity: 0.85; stroke: #000000; stroke-opacity: 0.85; stroke-width: 0.4"/>
     <use xlink:href="#m9c73d9e569" x="372.307866" y="300.683342" style="fill: #0ec72a; fill-opacity: 0.85; stroke: #000000; stroke-opacity: 0.85; stroke-width: 0.4"/>
     <use xlink:href="#m9c73d9e569" x="373.580761" y="271.153433" style="fill: #0ec72a; fill-opacity: 0.85; stroke: #000000; stroke-opacity: 0.85; stroke-width: 0.4"/>
     <use xlink:href="#m9c73d9e569" x="367.437806" y="229.354906" style="fill: #0ec72a; fill-opacity: 0.85; stroke: #000000; stroke-opacity: 0.85; stroke-width: 0.4"/>
     <use xlink:href="#m9c73d9e569" x="366.098314" y="260.163419" style="fill: #0ec72a; fill-opacity: 0.85; stroke: #000000; stroke-opacity: 0.85; stroke-width: 0.4"/>
     <use xlink:href="#m9c73d9e569" x="370.891661" y="286.688893" style="fill: #0ec72a; fill-opacity: 0.85; stroke: #000000; stroke-opacity: 0.85; stroke-width: 0.4"/>
     <use xlink:href="#m9c73d9e569" x="370.309946" y="324.195064" style="fill: #0ec72a; fill-opacity: 0.85; stroke: #000000; stroke-opacity: 0.85; stroke-width: 0.4"/>
     <use xlink:href="#m9c73d9e569" x="365.339204" y="328.652394" style="fill: #0ec72a; fill-opacity: 0.85; stroke: #000000; stroke-opacity: 0.85; stroke-width: 0.4"/>
     <use xlink:href="#m9c73d9e569" x="372.988812" y="302.222571" style="fill: #0ec72a; fill-opacity: 0.85; stroke: #000000; stroke-opacity: 0.85; stroke-width: 0.4"/>
    </g>
   </g>
   <g id="text_14">
    <!-- In-meal Pellet Ratio Distribution -->
    <g transform="translate(85.049063 22.396875) scale(0.2 -0.2)">
     <defs>
      <path id="DejaVuSans-44" d="M 1259 4147 
L 1259 519 
L 2022 519 
Q 2988 519 3436 956 
Q 3884 1394 3884 2338 
Q 3884 3275 3436 3711 
Q 2988 4147 2022 4147 
L 1259 4147 
z
M 628 4666 
L 1925 4666 
Q 3281 4666 3915 4102 
Q 4550 3538 4550 2338 
Q 4550 1131 3912 565 
Q 3275 0 1925 0 
L 628 0 
L 628 4666 
z
" transform="scale(0.015625)"/>
      <path id="DejaVuSans-62" d="M 3116 1747 
Q 3116 2381 2855 2742 
Q 2594 3103 2138 3103 
Q 1681 3103 1420 2742 
Q 1159 2381 1159 1747 
Q 1159 1113 1420 752 
Q 1681 391 2138 391 
Q 2594 391 2855 752 
Q 3116 1113 3116 1747 
z
M 1159 2969 
Q 1341 3281 1617 3432 
Q 1894 3584 2278 3584 
Q 2916 3584 3314 3078 
Q 3713 2572 3713 1747 
Q 3713 922 3314 415 
Q 2916 -91 2278 -91 
Q 1894 -91 1617 61 
Q 1341 213 1159 525 
L 1159 0 
L 581 0 
L 581 4863 
L 1159 4863 
L 1159 2969 
z
" transform="scale(0.015625)"/>
     </defs>
     <use xlink:href="#DejaVuSans-49"/>
     <use xlink:href="#DejaVuSans-6e" x="29.492188"/>
     <use xlink:href="#DejaVuSans-2d" x="92.871094"/>
     <use xlink:href="#DejaVuSans-6d" x="128.955078"/>
     <use xlink:href="#DejaVuSans-65" x="226.367188"/>
     <use xlink:href="#DejaVuSans-61" x="287.890625"/>
     <use xlink:href="#DejaVuSans-6c" x="349.169922"/>
     <use xlink:href="#DejaVuSans-20" x="376.953125"/>
     <use xlink:href="#DejaVuSans-50" x="408.740234"/>
     <use xlink:href="#DejaVuSans-65" x="465.417969"/>
     <use xlink:href="#DejaVuSans-6c" x="526.941406"/>
     <use xlink:href="#DejaVuSans-6c" x="554.724609"/>
     <use xlink:href="#DejaVuSans-65" x="582.507812"/>
     <use xlink:href="#DejaVuSans-74" x="644.03125"/>
     <use xlink:href="#DejaVuSans-20" x="683.240234"/>
     <use xlink:href="#DejaVuSans-52" x="715.027344"/>
     <use xlink:href="#DejaVuSans-61" x="782.259766"/>
     <use xlink:href="#DejaVuSans-74" x="843.539062"/>
     <use xlink:href="#DejaVuSans-69" x="882.748047"/>
     <use xlink:href="#DejaVuSans-6f" x="910.53125"/>
     <use xlink:href="#DejaVuSans-20" x="971.712891"/>
     <use xlink:href="#DejaVuSans-44" x="1003.5"/>
     <use xlink:href="#DejaVuSans-69" x="1080.501953"/>
     <use xlink:href="#DejaVuSans-73" x="1108.285156"/>
     <use xlink:href="#DejaVuSans-74" x="1160.384766"/>
     <use xlink:href="#DejaVuSans-72" x="1199.59375"/>
     <use xlink:href="#DejaVuSans-69" x="1240.707031"/>
     <use xlink:href="#DejaVuSans-62" x="1268.490234"/>
     <use xlink:href="#DejaVuSans-75" x="1331.966797"/>
     <use xlink:href="#DejaVuSans-74" x="1395.345703"/>
     <use xlink:href="#DejaVuSans-69" x="1434.554688"/>
     <use xlink:href="#DejaVuSans-6f" x="1462.337891"/>
     <use xlink:href="#DejaVuSans-6e" x="1523.519531"/>
    </g>
   </g>
   <g id="legend_1">
    <g id="patch_10">
     <path d="M 299.17875 90.838125 
L 425.055 90.838125 
Q 427.455 90.838125 427.455 88.438125 
L 427.455 36.796875 
Q 427.455 34.396875 425.055 34.396875 
L 299.17875 34.396875 
Q 296.77875 34.396875 296.77875 36.796875 
L 296.77875 88.438125 
Q 296.77875 90.838125 299.17875 90.838125 
z
" style="fill: #ffffff; opacity: 0.8; stroke: #cccccc; stroke-linejoin: miter"/>
    </g>
    <g id="patch_11">
     <path d="M 301.57875 48.315 
L 325.57875 48.315 
L 325.57875 39.915 
L 301.57875 39.915 
z
" style="fill: #425df5; opacity: 0.65; stroke: #425df5; stroke-linejoin: miter"/>
    </g>
    <g id="text_15">
     <!-- cask (n=24) -->
     <g transform="translate(335.17875 48.315) scale(0.12 -0.12)">
      <defs>
       <path id="DejaVuSans-3d" d="M 678 2906 
L 4684 2906 
L 4684 2381 
L 678 2381 
L 678 2906 
z
M 678 1631 
L 4684 1631 
L 4684 1100 
L 678 1100 
L 678 1631 
z
" transform="scale(0.015625)"/>
       <path id="DejaVuSans-32" d="M 1228 531 
L 3431 531 
L 3431 0 
L 469 0 
L 469 531 
Q 828 903 1448 1529 
Q 2069 2156 2228 2338 
Q 2531 2678 2651 2914 
Q 2772 3150 2772 3378 
Q 2772 3750 2511 3984 
Q 2250 4219 1831 4219 
Q 1534 4219 1204 4116 
Q 875 4013 500 3803 
L 500 4441 
Q 881 4594 1212 4672 
Q 1544 4750 1819 4750 
Q 2544 4750 2975 4387 
Q 3406 4025 3406 3419 
Q 3406 3131 3298 2873 
Q 3191 2616 2906 2266 
Q 2828 2175 2409 1742 
Q 1991 1309 1228 531 
z
" transform="scale(0.015625)"/>
      </defs>
      <use xlink:href="#DejaVuSans-63"/>
      <use xlink:href="#DejaVuSans-61" x="54.980469"/>
      <use xlink:href="#DejaVuSans-73" x="116.259766"/>
      <use xlink:href="#DejaVuSans-6b" x="168.359375"/>
      <use xlink:href="#DejaVuSans-20" x="226.269531"/>
      <use xlink:href="#DejaVuSans-28" x="258.056641"/>
      <use xlink:href="#DejaVuSans-6e" x="297.070312"/>
      <use xlink:href="#DejaVuSans-3d" x="360.449219"/>
      <use xlink:href="#DejaVuSans-32" x="444.238281"/>
      <use xlink:href="#DejaVuSans-34" x="507.861328"/>
      <use xlink:href="#DejaVuSans-29" x="571.484375"/>
     </g>
    </g>
    <g id="patch_12">
     <path d="M 301.57875 65.92875 
L 325.57875 65.92875 
L 325.57875 57.52875 
L 301.57875 57.52875 
z
" style="fill: #f55442; opacity: 0.65; stroke: #f55442; stroke-linejoin: miter"/>
    </g>
    <g id="text_16">
     <!-- ctrl (n=27) -->
     <g transform="translate(335.17875 65.92875) scale(0.12 -0.12)">
      <use xlink:href="#DejaVuSans-63"/>
      <use xlink:href="#DejaVuSans-74" x="54.980469"/>
      <use xlink:href="#DejaVuSans-72" x="94.189453"/>
      <use xlink:href="#DejaVuSans-6c" x="135.302734"/>
      <use xlink:href="#DejaVuSans-20" x="163.085938"/>
      <use xlink:href="#DejaVuSans-28" x="194.873047"/>
      <use xlink:href="#DejaVuSans-6e" x="233.886719"/>
      <use xlink:href="#DejaVuSans-3d" x="297.265625"/>
      <use xlink:href="#DejaVuSans-32" x="381.054688"/>
      <use xlink:href="#DejaVuSans-37" x="444.677734"/>
      <use xlink:href="#DejaVuSans-29" x="508.300781"/>
     </g>
    </g>
    <g id="patch_13">
     <path d="M 301.57875 83.5425 
L 325.57875 83.5425 
L 325.57875 75.1425 
L 301.57875 75.1425 
z
" style="fill: #0ec72a; opacity: 0.65; stroke: #0ec72a; stroke-linejoin: miter"/>
    </g>
    <g id="text_17">
     <!-- female (n=20) -->
     <g transform="translate(335.17875 83.5425) scale(0.12 -0.12)">
      <use xlink:href="#DejaVuSans-66"/>
      <use xlink:href="#DejaVuSans-65" x="35.205078"/>
      <use xlink:href="#DejaVuSans-6d" x="96.728516"/>
      <use xlink:href="#DejaVuSans-61" x="194.140625"/>
      <use xlink:href="#DejaVuSans-6c" x="255.419922"/>
      <use xlink:href="#DejaVuSans-65" x="283.203125"/>
      <use xlink:href="#DejaVuSans-20" x="344.726562"/>
      <use xlink:href="#DejaVuSans-28" x="376.513672"/>
      <use xlink:href="#DejaVuSans-6e" x="415.527344"/>
      <use xlink:href="#DejaVuSans-3d" x="478.90625"/>
      <use xlink:href="#DejaVuSans-32" x="562.695312"/>
      <use xlink:href="#DejaVuSans-30" x="626.318359"/>
      <use xlink:href="#DejaVuSans-29" x="689.941406"/>
     </g>
    </g>
   </g>
  </g>
 </g>
 <defs>
  <clipPath id="p5f693f77ca">
   <rect x="54.015" y="28.396875" width="379.44" height="332.64"/>
  </clipPath>
 </defs>
</svg>
