<?xml version="1.0" encoding="utf-8" standalone="no"?>
<!DOCTYPE svg PUBLIC "-//W3C//DTD SVG 1.1//EN"
  "http://www.w3.org/Graphics/SVG/1.1/DTD/svg11.dtd">
<svg xmlns:xlink="http://www.w3.org/1999/xlink" width="431.114375pt" height="402.464375pt" viewBox="0 0 431.114375 402.464375" xmlns="http://www.w3.org/2000/svg" version="1.1">
 <metadata>
  <rdf:RDF xmlns:dc="http://purl.org/dc/elements/1.1/" xmlns:cc="http://creativecommons.org/ns#" xmlns:rdf="http://www.w3.org/1999/02/22-rdf-syntax-ns#">
   <cc:Work>
    <dc:type rdf:resource="http://purl.org/dc/dcmitype/StillImage"/>
    <dc:date>2025-10-01T20:33:08.498519</dc:date>
    <dc:format>image/svg+xml</dc:format>
    <dc:creator>
     <cc:Agent>
      <dc:title>Matplotlib v3.8.4, https://matplotlib.org/</dc:title>
     </cc:Agent>
    </dc:creator>
   </cc:Work>
  </rdf:RDF>
 </metadata>
 <defs>
  <style type="text/css">*{stroke-linejoin: round; stroke-linecap: butt}</style>
 </defs>
 <g id="figure_1">
  <g id="patch_1">
   <path d="M 0 402.464375 
L 431.114375 402.464375 
L 431.114375 0 
L 0 0 
z
" style="fill: #ffffff"/>
  </g>
  <g id="axes_1">
   <g id="patch_2">
    <path d="M 44.474375 361.036875 
L 423.914375 361.036875 
L 423.914375 28.396875 
L 44.474375 28.396875 
z
" style="fill: #ffffff"/>
   </g>
   <g id="PolyCollection_1">
    <defs>
     <path id="m82fad102a6" d="M 116.473969 -181.451848 
L 98.954781 -181.451848 
L 98.579005 -182.182283 
L 98.204765 -182.912717 
L 97.833153 -183.643152 
L 97.465249 -184.373587 
L 97.102124 -185.104022 
L 96.744829 -185.834457 
L 96.394392 -186.564891 
L 96.051812 -187.295326 
L 95.718054 -188.025761 
L 95.39405 -188.756196 
L 95.080684 -189.48663 
L 94.778801 -190.217065 
L 94.489192 -190.9475 
L 94.212597 -191.677935 
L 93.9497 -192.40837 
L 93.701125 -193.138804 
L 93.467432 -193.869239 
L 93.249118 -194.599674 
L 93.04661 -195.330109 
L 92.860266 -196.060543 
L 92.69037 -196.790978 
L 92.537132 -197.521413 
L 92.400687 -198.251848 
L 92.281093 -198.982283 
L 92.17833 -199.712717 
L 92.092302 -200.443152 
L 92.022832 -201.173587 
L 91.96967 -201.904022 
L 91.932488 -202.634457 
L 91.910881 -203.364891 
L 91.904375 -204.095326 
L 91.912421 -204.825761 
L 91.934404 -205.556196 
L 91.969639 -206.28663 
L 92.01738 -207.017065 
L 92.07682 -207.7475 
L 92.147093 -208.477935 
L 92.22728 -209.20837 
L 92.316413 -209.938804 
L 92.413475 -210.669239 
L 92.517409 -211.399674 
L 92.627122 -212.130109 
L 92.741488 -212.860543 
L 92.859353 -213.590978 
L 92.979546 -214.321413 
L 93.100881 -215.051848 
L 93.222166 -215.782283 
L 93.342213 -216.512717 
L 93.459845 -217.243152 
L 93.573907 -217.973587 
L 93.683275 -218.704022 
L 93.786869 -219.434457 
L 93.883667 -220.164891 
L 93.972712 -220.895326 
L 94.053132 -221.625761 
L 94.12415 -222.356196 
L 94.185095 -223.08663 
L 94.235423 -223.817065 
L 94.274721 -224.5475 
L 94.302728 -225.277935 
L 94.319338 -226.00837 
L 94.324615 -226.738804 
L 94.318801 -227.469239 
L 94.302319 -228.199674 
L 94.275778 -228.930109 
L 94.239976 -229.660543 
L 94.195897 -230.390978 
L 94.144705 -231.121413 
L 94.087737 -231.851848 
L 94.026494 -232.582283 
L 93.962624 -233.312717 
L 93.897908 -234.043152 
L 93.834237 -234.773587 
L 93.773589 -235.504022 
L 93.71801 -236.234457 
L 93.669578 -236.964891 
L 93.630381 -237.695326 
L 93.602485 -238.425761 
L 93.587905 -239.156196 
L 93.588573 -239.88663 
L 93.60631 -240.617065 
L 93.642796 -241.3475 
L 93.699545 -242.077935 
L 93.777879 -242.80837 
L 93.878909 -243.538804 
L 94.003511 -244.269239 
L 94.152316 -244.999674 
L 94.325696 -245.730109 
L 94.523758 -246.460543 
L 94.746342 -247.190978 
L 94.99302 -247.921413 
L 95.263102 -248.651848 
L 95.555648 -249.382283 
L 95.86948 -250.112717 
L 96.2032 -250.843152 
L 96.555209 -251.573587 
L 96.923732 -252.304022 
L 97.306845 -253.034457 
L 97.702498 -253.764891 
L 117.726252 -253.764891 
L 117.726252 -253.764891 
L 118.121905 -253.034457 
L 118.505018 -252.304022 
L 118.873541 -251.573587 
L 119.22555 -250.843152 
L 119.55927 -250.112717 
L 119.873102 -249.382283 
L 120.165648 -248.651848 
L 120.43573 -247.921413 
L 120.682408 -247.190978 
L 120.904992 -246.460543 
L 121.103054 -245.730109 
L 121.276434 -244.999674 
L 121.425239 -244.269239 
L 121.549841 -243.538804 
L 121.650871 -242.80837 
L 121.729205 -242.077935 
L 121.785954 -241.3475 
L 121.82244 -240.617065 
L 121.840177 -239.88663 
L 121.840845 -239.156196 
L 121.826265 -238.425761 
L 121.798369 -237.695326 
L 121.759172 -236.964891 
L 121.71074 -236.234457 
L 121.655161 -235.504022 
L 121.594513 -234.773587 
L 121.530842 -234.043152 
L 121.466126 -233.312717 
L 121.402256 -232.582283 
L 121.341013 -231.851848 
L 121.284045 -231.121413 
L 121.232853 -230.390978 
L 121.188774 -229.660543 
L 121.152972 -228.930109 
L 121.126431 -228.199674 
L 121.109949 -227.469239 
L 121.104135 -226.738804 
L 121.109412 -226.00837 
L 121.126022 -225.277935 
L 121.154029 -224.5475 
L 121.193327 -223.817065 
L 121.243655 -223.08663 
L 121.3046 -222.356196 
L 121.375618 -221.625761 
L 121.456038 -220.895326 
L 121.545083 -220.164891 
L 121.641881 -219.434457 
L 121.745475 -218.704022 
L 121.854843 -217.973587 
L 121.968905 -217.243152 
L 122.086537 -216.512717 
L 122.206584 -215.782283 
L 122.327869 -215.051848 
L 122.449204 -214.321413 
L 122.569397 -213.590978 
L 122.687262 -212.860543 
L 122.801628 -212.130109 
L 122.911341 -211.399674 
L 123.015275 -210.669239 
L 123.112337 -209.938804 
L 123.20147 -209.20837 
L 123.281657 -208.477935 
L 123.35193 -207.7475 
L 123.41137 -207.017065 
L 123.459111 -206.28663 
L 123.494346 -205.556196 
L 123.516329 -204.825761 
L 123.524375 -204.095326 
L 123.517869 -203.364891 
L 123.496262 -202.634457 
L 123.45908 -201.904022 
L 123.405918 -201.173587 
L 123.336448 -200.443152 
L 123.25042 -199.712717 
L 123.147657 -198.982283 
L 123.028063 -198.251848 
L 122.891618 -197.521413 
L 122.73838 -196.790978 
L 122.568484 -196.060543 
L 122.38214 -195.330109 
L 122.179632 -194.599674 
L 121.961318 -193.869239 
L 121.727625 -193.138804 
L 121.47905 -192.40837 
L 121.216153 -191.677935 
L 120.939558 -190.9475 
L 120.649949 -190.217065 
L 120.348066 -189.48663 
L 120.0347 -188.756196 
L 119.710696 -188.025761 
L 119.376938 -187.295326 
L 119.034358 -186.564891 
L 118.683921 -185.834457 
L 118.326626 -185.104022 
L 117.963501 -184.373587 
L 117.595597 -183.643152 
L 117.223985 -182.912717 
L 116.849745 -182.182283 
L 116.473969 -181.451848 
z
" style="stroke: #000000; stroke-opacity: 0.65"/>
    </defs>
    <g clip-path="url(#p72da5af898)">
     <use xlink:href="#m82fad102a6" x="0" y="402.464375" style="fill: #425df5; fill-opacity: 0.65; stroke: #000000; stroke-opacity: 0.65"/>
    </g>
   </g>
   <g id="PolyCollection_2">
    <defs>
     <path id="mb3c4766c8a" d="M 243.60409 -161.730109 
L 224.78466 -161.730109 
L 224.030693 -163.722204 
L 223.290852 -165.714298 
L 222.574781 -167.706393 
L 221.8919 -169.698488 
L 221.251148 -171.690583 
L 220.660757 -173.682678 
L 220.128048 -175.674773 
L 219.659274 -177.666868 
L 219.259498 -179.658962 
L 218.932521 -181.651057 
L 218.680861 -183.643152 
L 218.505771 -185.635247 
L 218.407298 -187.627342 
L 218.384375 -189.619437 
L 218.43494 -191.611532 
L 218.556072 -193.603626 
L 218.744129 -195.595721 
L 218.9949 -197.587816 
L 219.303737 -199.579911 
L 219.665685 -201.572006 
L 220.075595 -203.564101 
L 220.528218 -205.556196 
L 221.01828 -207.548291 
L 221.540548 -209.540385 
L 222.089867 -211.53248 
L 222.661195 -213.524575 
L 223.249624 -215.51667 
L 223.850395 -217.508765 
L 224.458903 -219.50086 
L 225.070715 -221.492955 
L 225.68157 -223.485049 
L 226.287401 -225.477144 
L 226.884346 -227.469239 
L 227.46877 -229.461334 
L 228.037289 -231.453429 
L 228.586801 -233.445524 
L 229.114507 -235.437619 
L 229.617948 -237.429713 
L 230.095028 -239.421808 
L 230.544038 -241.413903 
L 230.963673 -243.405998 
L 231.353045 -245.398093 
L 231.711683 -247.390188 
L 232.039527 -249.382283 
L 232.33691 -251.374377 
L 232.604535 -253.366472 
L 232.843434 -255.358567 
L 233.054934 -257.350662 
L 233.240601 -259.342757 
L 233.402192 -261.334852 
L 233.541602 -263.326947 
L 233.660807 -265.319042 
L 233.761814 -267.311136 
L 233.846618 -269.303231 
L 233.917156 -271.295326 
L 233.975271 -273.287421 
L 234.022692 -275.279516 
L 234.061006 -277.271611 
L 234.091648 -279.263706 
L 234.115893 -281.2558 
L 234.134856 -283.247895 
L 234.149497 -285.23999 
L 234.160621 -287.232085 
L 234.168896 -289.22418 
L 234.174855 -291.216275 
L 234.178915 -293.20837 
L 234.181382 -295.200464 
L 234.182464 -297.192559 
L 234.182278 -299.184654 
L 234.180861 -301.176749 
L 234.178174 -303.168844 
L 234.174111 -305.160939 
L 234.168503 -307.153034 
L 234.161128 -309.145128 
L 234.151716 -311.137223 
L 234.139959 -313.129318 
L 234.125527 -315.121413 
L 234.108075 -317.113508 
L 234.087269 -319.105603 
L 234.062803 -321.097698 
L 234.03442 -323.089792 
L 234.001942 -325.081887 
L 233.965294 -327.073982 
L 233.924527 -329.066077 
L 233.879844 -331.058172 
L 233.831613 -333.050267 
L 233.780384 -335.042362 
L 233.726886 -337.034457 
L 233.672024 -339.026551 
L 233.616859 -341.018646 
L 233.56258 -343.010741 
L 233.510465 -345.002836 
L 233.461835 -346.994931 
L 233.417994 -348.987026 
L 233.380181 -350.979121 
L 233.349501 -352.971215 
L 233.326882 -354.96331 
L 233.313021 -356.955405 
L 233.308351 -358.9475 
L 235.080399 -358.9475 
L 235.080399 -358.9475 
L 235.075729 -356.955405 
L 235.061868 -354.96331 
L 235.039249 -352.971215 
L 235.008569 -350.979121 
L 234.970756 -348.987026 
L 234.926915 -346.994931 
L 234.878285 -345.002836 
L 234.82617 -343.010741 
L 234.771891 -341.018646 
L 234.716726 -339.026551 
L 234.661864 -337.034457 
L 234.608366 -335.042362 
L 234.557137 -333.050267 
L 234.508906 -331.058172 
L 234.464223 -329.066077 
L 234.423456 -327.073982 
L 234.386808 -325.081887 
L 234.35433 -323.089792 
L 234.325947 -321.097698 
L 234.301481 -319.105603 
L 234.280675 -317.113508 
L 234.263223 -315.121413 
L 234.248791 -313.129318 
L 234.237034 -311.137223 
L 234.227622 -309.145128 
L 234.220247 -307.153034 
L 234.214639 -305.160939 
L 234.210576 -303.168844 
L 234.207889 -301.176749 
L 234.206472 -299.184654 
L 234.206286 -297.192559 
L 234.207368 -295.200464 
L 234.209835 -293.20837 
L 234.213895 -291.216275 
L 234.219854 -289.22418 
L 234.228129 -287.232085 
L 234.239253 -285.23999 
L 234.253894 -283.247895 
L 234.272857 -281.2558 
L 234.297102 -279.263706 
L 234.327744 -277.271611 
L 234.366058 -275.279516 
L 234.413479 -273.287421 
L 234.471594 -271.295326 
L 234.542132 -269.303231 
L 234.626936 -267.311136 
L 234.727943 -265.319042 
L 234.847148 -263.326947 
L 234.986558 -261.334852 
L 235.148149 -259.342757 
L 235.333816 -257.350662 
L 235.545316 -255.358567 
L 235.784215 -253.366472 
L 236.05184 -251.374377 
L 236.349223 -249.382283 
L 236.677067 -247.390188 
L 237.035705 -245.398093 
L 237.425077 -243.405998 
L 237.844712 -241.413903 
L 238.293722 -239.421808 
L 238.770802 -237.429713 
L 239.274243 -235.437619 
L 239.801949 -233.445524 
L 240.351461 -231.453429 
L 240.91998 -229.461334 
L 241.504404 -227.469239 
L 242.101349 -225.477144 
L 242.70718 -223.485049 
L 243.318035 -221.492955 
L 243.929847 -219.50086 
L 244.538355 -217.508765 
L 245.139126 -215.51667 
L 245.727555 -213.524575 
L 246.298883 -211.53248 
L 246.848202 -209.540385 
L 247.37047 -207.548291 
L 247.860532 -205.556196 
L 248.313155 -203.564101 
L 248.723065 -201.572006 
L 249.085013 -199.579911 
L 249.39385 -197.587816 
L 249.644621 -195.595721 
L 249.832678 -193.603626 
L 249.95381 -191.611532 
L 250.004375 -189.619437 
L 249.981452 -187.627342 
L 249.882979 -185.635247 
L 249.707889 -183.643152 
L 249.456229 -181.651057 
L 249.129252 -179.658962 
L 248.729476 -177.666868 
L 248.260702 -175.674773 
L 247.727993 -173.682678 
L 247.137602 -171.690583 
L 246.49685 -169.698488 
L 245.813969 -167.706393 
L 245.097898 -165.714298 
L 244.358057 -163.722204 
L 243.60409 -161.730109 
z
" style="stroke: #000000; stroke-opacity: 0.65"/>
    </defs>
    <g clip-path="url(#p72da5af898)">
     <use xlink:href="#mb3c4766c8a" x="0" y="402.464375" style="fill: #f55442; fill-opacity: 0.65; stroke: #000000; stroke-opacity: 0.65"/>
    </g>
   </g>
   <g id="PolyCollection_3">
    <defs>
     <path id="m9562a6b531" d="M 361.835426 -56.5475 
L 359.513324 -56.5475 
L 359.515834 -58.141176 
L 359.525537 -59.734852 
L 359.542127 -61.328528 
L 359.565147 -62.922204 
L 359.593993 -64.515879 
L 359.627932 -66.109555 
L 359.66612 -67.703231 
L 359.707621 -69.296907 
L 359.751433 -70.890583 
L 359.796511 -72.484259 
L 359.841792 -74.077935 
L 359.886217 -75.671611 
L 359.928759 -77.265287 
L 359.968443 -78.858962 
L 360.004361 -80.452638 
L 360.035698 -82.046314 
L 360.061741 -83.63999 
L 360.081892 -85.233666 
L 360.095677 -86.827342 
L 360.102754 -88.421018 
L 360.102914 -90.014694 
L 360.096084 -91.60837 
L 360.082319 -93.202045 
L 360.061803 -94.795721 
L 360.034835 -96.389397 
L 360.00182 -97.983073 
L 359.96325 -99.576749 
L 359.91969 -101.170425 
L 359.871752 -102.764101 
L 359.82007 -104.357777 
L 359.765274 -105.951453 
L 359.707958 -107.545128 
L 359.648649 -109.138804 
L 359.587772 -110.73248 
L 359.525617 -112.326156 
L 359.462305 -113.919832 
L 359.397761 -115.513508 
L 359.331685 -117.107184 
L 359.26353 -118.70086 
L 359.192487 -120.294536 
L 359.117477 -121.888211 
L 359.03715 -123.481887 
L 358.949898 -125.075563 
L 358.853869 -126.669239 
L 358.747002 -128.262915 
L 358.627062 -129.856591 
L 358.491693 -131.450267 
L 358.338469 -133.043943 
L 358.164966 -134.637619 
L 357.968826 -136.231294 
L 357.747832 -137.82497 
L 357.499984 -139.418646 
L 357.223571 -141.012322 
L 356.917245 -142.605998 
L 356.58008 -144.199674 
L 356.211634 -145.79335 
L 355.811994 -147.387026 
L 355.381812 -148.980702 
L 354.922323 -150.574377 
L 354.435356 -152.168053 
L 353.923324 -153.761729 
L 353.389199 -155.355405 
L 352.836477 -156.949081 
L 352.269126 -158.542757 
L 351.691519 -160.136433 
L 351.108363 -161.730109 
L 350.524617 -163.323785 
L 349.945403 -164.91746 
L 349.375917 -166.511136 
L 348.821342 -168.104812 
L 348.286755 -169.698488 
L 347.777056 -171.292164 
L 347.296884 -172.88584 
L 346.850565 -174.479516 
L 346.44205 -176.073192 
L 346.074879 -177.666868 
L 345.752151 -179.260543 
L 345.476505 -180.854219 
L 345.250113 -182.447895 
L 345.074679 -184.041571 
L 344.951449 -185.635247 
L 344.881225 -187.228923 
L 344.864375 -188.822599 
L 344.900858 -190.416275 
L 344.990236 -192.009951 
L 345.13169 -193.603626 
L 345.324037 -195.197302 
L 345.565736 -196.790978 
L 345.8549 -198.384654 
L 346.189301 -199.97833 
L 346.566378 -201.572006 
L 346.983245 -203.165682 
L 347.4367 -204.759358 
L 347.923244 -206.353034 
L 348.439097 -207.946709 
L 348.980229 -209.540385 
L 349.542394 -211.134061 
L 350.121178 -212.727737 
L 350.712045 -214.321413 
L 370.636705 -214.321413 
L 370.636705 -214.321413 
L 371.227572 -212.727737 
L 371.806356 -211.134061 
L 372.368521 -209.540385 
L 372.909653 -207.946709 
L 373.425506 -206.353034 
L 373.91205 -204.759358 
L 374.365505 -203.165682 
L 374.782372 -201.572006 
L 375.159449 -199.97833 
L 375.49385 -198.384654 
L 375.783014 -196.790978 
L 376.024713 -195.197302 
L 376.21706 -193.603626 
L 376.358514 -192.009951 
L 376.447892 -190.416275 
L 376.484375 -188.822599 
L 376.467525 -187.228923 
L 376.397301 -185.635247 
L 376.274071 -184.041571 
L 376.098637 -182.447895 
L 375.872245 -180.854219 
L 375.596599 -179.260543 
L 375.273871 -177.666868 
L 374.9067 -176.073192 
L 374.498185 -174.479516 
L 374.051866 -172.88584 
L 373.571694 -171.292164 
L 373.061995 -169.698488 
L 372.527408 -168.104812 
L 371.972833 -166.511136 
L 371.403347 -164.91746 
L 370.824133 -163.323785 
L 370.240387 -161.730109 
L 369.657231 -160.136433 
L 369.079624 -158.542757 
L 368.512273 -156.949081 
L 367.959551 -155.355405 
L 367.425426 -153.761729 
L 366.913394 -152.168053 
L 366.426427 -150.574377 
L 365.966938 -148.980702 
L 365.536756 -147.387026 
L 365.137116 -145.79335 
L 364.76867 -144.199674 
L 364.431505 -142.605998 
L 364.125179 -141.012322 
L 363.848766 -139.418646 
L 363.600918 -137.82497 
L 363.379924 -136.231294 
L 363.183784 -134.637619 
L 363.010281 -133.043943 
L 362.857057 -131.450267 
L 362.721688 -129.856591 
L 362.601748 -128.262915 
L 362.494881 -126.669239 
L 362.398852 -125.075563 
L 362.3116 -123.481887 
L 362.231273 -121.888211 
L 362.156263 -120.294536 
L 362.08522 -118.70086 
L 362.017065 -117.107184 
L 361.950989 -115.513508 
L 361.886445 -113.919832 
L 361.823133 -112.326156 
L 361.760978 -110.73248 
L 361.700101 -109.138804 
L 361.640792 -107.545128 
L 361.583476 -105.951453 
L 361.52868 -104.357777 
L 361.476998 -102.764101 
L 361.42906 -101.170425 
L 361.3855 -99.576749 
L 361.34693 -97.983073 
L 361.313915 -96.389397 
L 361.286947 -94.795721 
L 361.266431 -93.202045 
L 361.252666 -91.60837 
L 361.245836 -90.014694 
L 361.245996 -88.421018 
L 361.253073 -86.827342 
L 361.266858 -85.233666 
L 361.287009 -83.63999 
L 361.313052 -82.046314 
L 361.344389 -80.452638 
L 361.380307 -78.858962 
L 361.419991 -77.265287 
L 361.462533 -75.671611 
L 361.506958 -74.077935 
L 361.552239 -72.484259 
L 361.597317 -70.890583 
L 361.641129 -69.296907 
L 361.68263 -67.703231 
L 361.720818 -66.109555 
L 361.754757 -64.515879 
L 361.783603 -62.922204 
L 361.806623 -61.328528 
L 361.823213 -59.734852 
L 361.832916 -58.141176 
L 361.835426 -56.5475 
z
" style="stroke: #000000; stroke-opacity: 0.65"/>
    </defs>
    <g clip-path="url(#p72da5af898)">
     <use xlink:href="#m9562a6b531" x="0" y="402.464375" style="fill: #0ec72a; fill-opacity: 0.65; stroke: #000000; stroke-opacity: 0.65"/>
    </g>
   </g>
   <g id="matplotlib.axis_1">
    <g id="xtick_1">
     <g id="line2d_1">
      <defs>
       <path id="m87920eabae" d="M 0 0 
L 0 3.5 
" style="stroke: #000000; stroke-width: 0.8"/>
      </defs>
      <g>
       <use xlink:href="#m87920eabae" x="107.714375" y="361.036875" style="stroke: #000000; stroke-width: 0.8"/>
      </g>
     </g>
     <g id="text_1">
      <!-- cask -->
      <g transform="translate(96.401094 375.635312) scale(0.1 -0.1)">
       <defs>
        <path id="DejaVuSans-63" d="M 3122 3366 
L 3122 2828 
Q 2878 2963 2633 3030 
Q 2388 3097 2138 3097 
Q 1578 3097 1268 2742 
Q 959 2388 959 1747 
Q 959 1106 1268 751 
Q 1578 397 2138 397 
Q 2388 397 2633 464 
Q 2878 531 3122 666 
L 3122 134 
Q 2881 22 2623 -34 
Q 2366 -91 2075 -91 
Q 1284 -91 818 406 
Q 353 903 353 1747 
Q 353 2603 823 3093 
Q 1294 3584 2113 3584 
Q 2378 3584 2631 3529 
Q 2884 3475 3122 3366 
z
" transform="scale(0.015625)"/>
        <path id="DejaVuSans-61" d="M 2194 1759 
Q 1497 1759 1228 1600 
Q 959 1441 959 1056 
Q 959 750 1161 570 
Q 1363 391 1709 391 
Q 2188 391 2477 730 
Q 2766 1069 2766 1631 
L 2766 1759 
L 2194 1759 
z
M 3341 1997 
L 3341 0 
L 2766 0 
L 2766 531 
Q 2569 213 2275 61 
Q 1981 -91 1556 -91 
Q 1019 -91 701 211 
Q 384 513 384 1019 
Q 384 1609 779 1909 
Q 1175 2209 1959 2209 
L 2766 2209 
L 2766 2266 
Q 2766 2663 2505 2880 
Q 2244 3097 1772 3097 
Q 1472 3097 1187 3025 
Q 903 2953 641 2809 
L 641 3341 
Q 956 3463 1253 3523 
Q 1550 3584 1831 3584 
Q 2591 3584 2966 3190 
Q 3341 2797 3341 1997 
z
" transform="scale(0.015625)"/>
        <path id="DejaVuSans-73" d="M 2834 3397 
L 2834 2853 
Q 2591 2978 2328 3040 
Q 2066 3103 1784 3103 
Q 1356 3103 1142 2972 
Q 928 2841 928 2578 
Q 928 2378 1081 2264 
Q 1234 2150 1697 2047 
L 1894 2003 
Q 2506 1872 2764 1633 
Q 3022 1394 3022 966 
Q 3022 478 2636 193 
Q 2250 -91 1575 -91 
Q 1294 -91 989 -36 
Q 684 19 347 128 
L 347 722 
Q 666 556 975 473 
Q 1284 391 1588 391 
Q 1994 391 2212 530 
Q 2431 669 2431 922 
Q 2431 1156 2273 1281 
Q 2116 1406 1581 1522 
L 1381 1569 
Q 847 1681 609 1914 
Q 372 2147 372 2553 
Q 372 3047 722 3315 
Q 1072 3584 1716 3584 
Q 2034 3584 2315 3537 
Q 2597 3491 2834 3397 
z
" transform="scale(0.015625)"/>
        <path id="DejaVuSans-6b" d="M 581 4863 
L 1159 4863 
L 1159 1991 
L 2875 3500 
L 3609 3500 
L 1753 1863 
L 3688 0 
L 2938 0 
L 1159 1709 
L 1159 0 
L 581 0 
L 581 4863 
z
" transform="scale(0.015625)"/>
       </defs>
       <use xlink:href="#DejaVuSans-63"/>
       <use xlink:href="#DejaVuSans-61" x="54.980469"/>
       <use xlink:href="#DejaVuSans-73" x="116.259766"/>
       <use xlink:href="#DejaVuSans-6b" x="168.359375"/>
      </g>
     </g>
    </g>
    <g id="xtick_2">
     <g id="line2d_2">
      <g>
       <use xlink:href="#m87920eabae" x="234.194375" y="361.036875" style="stroke: #000000; stroke-width: 0.8"/>
      </g>
     </g>
     <g id="text_2">
      <!-- ctrl -->
      <g transform="translate(226.040469 375.635312) scale(0.1 -0.1)">
       <defs>
        <path id="DejaVuSans-74" d="M 1172 4494 
L 1172 3500 
L 2356 3500 
L 2356 3053 
L 1172 3053 
L 1172 1153 
Q 1172 725 1289 603 
Q 1406 481 1766 481 
L 2356 481 
L 2356 0 
L 1766 0 
Q 1100 0 847 248 
Q 594 497 594 1153 
L 594 3053 
L 172 3053 
L 172 3500 
L 594 3500 
L 594 4494 
L 1172 4494 
z
" transform="scale(0.015625)"/>
        <path id="DejaVuSans-72" d="M 2631 2963 
Q 2534 3019 2420 3045 
Q 2306 3072 2169 3072 
Q 1681 3072 1420 2755 
Q 1159 2438 1159 1844 
L 1159 0 
L 581 0 
L 581 3500 
L 1159 3500 
L 1159 2956 
Q 1341 3275 1631 3429 
Q 1922 3584 2338 3584 
Q 2397 3584 2469 3576 
Q 2541 3569 2628 3553 
L 2631 2963 
z
" transform="scale(0.015625)"/>
        <path id="DejaVuSans-6c" d="M 603 4863 
L 1178 4863 
L 1178 0 
L 603 0 
L 603 4863 
z
" transform="scale(0.015625)"/>
       </defs>
       <use xlink:href="#DejaVuSans-63"/>
       <use xlink:href="#DejaVuSans-74" x="54.980469"/>
       <use xlink:href="#DejaVuSans-72" x="94.189453"/>
       <use xlink:href="#DejaVuSans-6c" x="135.302734"/>
      </g>
     </g>
    </g>
    <g id="xtick_3">
     <g id="line2d_3">
      <g>
       <use xlink:href="#m87920eabae" x="360.674375" y="361.036875" style="stroke: #000000; stroke-width: 0.8"/>
      </g>
     </g>
     <g id="text_3">
      <!-- female -->
      <g transform="translate(343.437656 375.635312) scale(0.1 -0.1)">
       <defs>
        <path id="DejaVuSans-66" d="M 2375 4863 
L 2375 4384 
L 1825 4384 
Q 1516 4384 1395 4259 
Q 1275 4134 1275 3809 
L 1275 3500 
L 2222 3500 
L 2222 3053 
L 1275 3053 
L 1275 0 
L 697 0 
L 697 3053 
L 147 3053 
L 147 3500 
L 697 3500 
L 697 3744 
Q 697 4328 969 4595 
Q 1241 4863 1831 4863 
L 2375 4863 
z
" transform="scale(0.015625)"/>
        <path id="DejaVuSans-65" d="M 3597 1894 
L 3597 1613 
L 953 1613 
Q 991 1019 1311 708 
Q 1631 397 2203 397 
Q 2534 397 2845 478 
Q 3156 559 3463 722 
L 3463 178 
Q 3153 47 2828 -22 
Q 2503 -91 2169 -91 
Q 1331 -91 842 396 
Q 353 884 353 1716 
Q 353 2575 817 3079 
Q 1281 3584 2069 3584 
Q 2775 3584 3186 3129 
Q 3597 2675 3597 1894 
z
M 3022 2063 
Q 3016 2534 2758 2815 
Q 2500 3097 2075 3097 
Q 1594 3097 1305 2825 
Q 1016 2553 972 2059 
L 3022 2063 
z
" transform="scale(0.015625)"/>
        <path id="DejaVuSans-6d" d="M 3328 2828 
Q 3544 3216 3844 3400 
Q 4144 3584 4550 3584 
Q 5097 3584 5394 3201 
Q 5691 2819 5691 2113 
L 5691 0 
L 5113 0 
L 5113 2094 
Q 5113 2597 4934 2840 
Q 4756 3084 4391 3084 
Q 3944 3084 3684 2787 
Q 3425 2491 3425 1978 
L 3425 0 
L 2847 0 
L 2847 2094 
Q 2847 2600 2669 2842 
Q 2491 3084 2119 3084 
Q 1678 3084 1418 2786 
Q 1159 2488 1159 1978 
L 1159 0 
L 581 0 
L 581 3500 
L 1159 3500 
L 1159 2956 
Q 1356 3278 1631 3431 
Q 1906 3584 2284 3584 
Q 2666 3584 2933 3390 
Q 3200 3197 3328 2828 
z
" transform="scale(0.015625)"/>
       </defs>
       <use xlink:href="#DejaVuSans-66"/>
       <use xlink:href="#DejaVuSans-65" x="35.205078"/>
       <use xlink:href="#DejaVuSans-6d" x="96.728516"/>
       <use xlink:href="#DejaVuSans-61" x="194.140625"/>
       <use xlink:href="#DejaVuSans-6c" x="255.419922"/>
       <use xlink:href="#DejaVuSans-65" x="283.203125"/>
      </g>
     </g>
    </g>
    <g id="text_4">
     <!-- Groups -->
     <g transform="translate(209.240469 392.352812) scale(0.14 -0.14)">
      <defs>
       <path id="DejaVuSans-47" d="M 3809 666 
L 3809 1919 
L 2778 1919 
L 2778 2438 
L 4434 2438 
L 4434 434 
Q 4069 175 3628 42 
Q 3188 -91 2688 -91 
Q 1594 -91 976 548 
Q 359 1188 359 2328 
Q 359 3472 976 4111 
Q 1594 4750 2688 4750 
Q 3144 4750 3555 4637 
Q 3966 4525 4313 4306 
L 4313 3634 
Q 3963 3931 3569 4081 
Q 3175 4231 2741 4231 
Q 1884 4231 1454 3753 
Q 1025 3275 1025 2328 
Q 1025 1384 1454 906 
Q 1884 428 2741 428 
Q 3075 428 3337 486 
Q 3600 544 3809 666 
z
" transform="scale(0.015625)"/>
       <path id="DejaVuSans-6f" d="M 1959 3097 
Q 1497 3097 1228 2736 
Q 959 2375 959 1747 
Q 959 1119 1226 758 
Q 1494 397 1959 397 
Q 2419 397 2687 759 
Q 2956 1122 2956 1747 
Q 2956 2369 2687 2733 
Q 2419 3097 1959 3097 
z
M 1959 3584 
Q 2709 3584 3137 3096 
Q 3566 2609 3566 1747 
Q 3566 888 3137 398 
Q 2709 -91 1959 -91 
Q 1206 -91 779 398 
Q 353 888 353 1747 
Q 353 2609 779 3096 
Q 1206 3584 1959 3584 
z
" transform="scale(0.015625)"/>
       <path id="DejaVuSans-75" d="M 544 1381 
L 544 3500 
L 1119 3500 
L 1119 1403 
Q 1119 906 1312 657 
Q 1506 409 1894 409 
Q 2359 409 2629 706 
Q 2900 1003 2900 1516 
L 2900 3500 
L 3475 3500 
L 3475 0 
L 2900 0 
L 2900 538 
Q 2691 219 2414 64 
Q 2138 -91 1772 -91 
Q 1169 -91 856 284 
Q 544 659 544 1381 
z
M 1991 3584 
L 1991 3584 
z
" transform="scale(0.015625)"/>
       <path id="DejaVuSans-70" d="M 1159 525 
L 1159 -1331 
L 581 -1331 
L 581 3500 
L 1159 3500 
L 1159 2969 
Q 1341 3281 1617 3432 
Q 1894 3584 2278 3584 
Q 2916 3584 3314 3078 
Q 3713 2572 3713 1747 
Q 3713 922 3314 415 
Q 2916 -91 2278 -91 
Q 1894 -91 1617 61 
Q 1341 213 1159 525 
z
M 3116 1747 
Q 3116 2381 2855 2742 
Q 2594 3103 2138 3103 
Q 1681 3103 1420 2742 
Q 1159 2381 1159 1747 
Q 1159 1113 1420 752 
Q 1681 391 2138 391 
Q 2594 391 2855 752 
Q 3116 1113 3116 1747 
z
" transform="scale(0.015625)"/>
      </defs>
      <use xlink:href="#DejaVuSans-47"/>
      <use xlink:href="#DejaVuSans-72" x="77.490234"/>
      <use xlink:href="#DejaVuSans-6f" x="116.353516"/>
      <use xlink:href="#DejaVuSans-75" x="177.535156"/>
      <use xlink:href="#DejaVuSans-70" x="240.914062"/>
      <use xlink:href="#DejaVuSans-73" x="304.390625"/>
     </g>
    </g>
   </g>
   <g id="matplotlib.axis_2">
    <g id="ytick_1">
     <g id="line2d_4">
      <path d="M 44.474375 299.899484 
L 423.914375 299.899484 
" clip-path="url(#p72da5af898)" style="fill: none; stroke-dasharray: 2.96,1.28; stroke-dashoffset: 0; stroke: #b0b0b0; stroke-opacity: 0.3; stroke-width: 0.8"/>
     </g>
     <g id="line2d_5">
      <defs>
       <path id="m3de6383ef8" d="M 0 0 
L -3.5 0 
" style="stroke: #000000; stroke-width: 0.8"/>
      </defs>
      <g>
       <use xlink:href="#m3de6383ef8" x="44.474375" y="299.899484" style="stroke: #000000; stroke-width: 0.8"/>
      </g>
     </g>
     <g id="text_5">
      <!-- 10 -->
      <g transform="translate(24.749375 303.698702) scale(0.1 -0.1)">
       <defs>
        <path id="DejaVuSans-31" d="M 794 531 
L 1825 531 
L 1825 4091 
L 703 3866 
L 703 4441 
L 1819 4666 
L 2450 4666 
L 2450 531 
L 3481 531 
L 3481 0 
L 794 0 
L 794 531 
z
" transform="scale(0.015625)"/>
        <path id="DejaVuSans-30" d="M 2034 4250 
Q 1547 4250 1301 3770 
Q 1056 3291 1056 2328 
Q 1056 1369 1301 889 
Q 1547 409 2034 409 
Q 2525 409 2770 889 
Q 3016 1369 3016 2328 
Q 3016 3291 2770 3770 
Q 2525 4250 2034 4250 
z
M 2034 4750 
Q 2819 4750 3233 4129 
Q 3647 3509 3647 2328 
Q 3647 1150 3233 529 
Q 2819 -91 2034 -91 
Q 1250 -91 836 529 
Q 422 1150 422 2328 
Q 422 3509 836 4129 
Q 1250 4750 2034 4750 
z
" transform="scale(0.015625)"/>
       </defs>
       <use xlink:href="#DejaVuSans-31"/>
       <use xlink:href="#DejaVuSans-30" x="63.623047"/>
      </g>
     </g>
    </g>
    <g id="ytick_2">
     <g id="line2d_6">
      <path d="M 44.474375 234.160353 
L 423.914375 234.160353 
" clip-path="url(#p72da5af898)" style="fill: none; stroke-dasharray: 2.96,1.28; stroke-dashoffset: 0; stroke: #b0b0b0; stroke-opacity: 0.3; stroke-width: 0.8"/>
     </g>
     <g id="line2d_7">
      <g>
       <use xlink:href="#m3de6383ef8" x="44.474375" y="234.160353" style="stroke: #000000; stroke-width: 0.8"/>
      </g>
     </g>
     <g id="text_6">
      <!-- 20 -->
      <g transform="translate(24.749375 237.959572) scale(0.1 -0.1)">
       <defs>
        <path id="DejaVuSans-32" d="M 1228 531 
L 3431 531 
L 3431 0 
L 469 0 
L 469 531 
Q 828 903 1448 1529 
Q 2069 2156 2228 2338 
Q 2531 2678 2651 2914 
Q 2772 3150 2772 3378 
Q 2772 3750 2511 3984 
Q 2250 4219 1831 4219 
Q 1534 4219 1204 4116 
Q 875 4013 500 3803 
L 500 4441 
Q 881 4594 1212 4672 
Q 1544 4750 1819 4750 
Q 2544 4750 2975 4387 
Q 3406 4025 3406 3419 
Q 3406 3131 3298 2873 
Q 3191 2616 2906 2266 
Q 2828 2175 2409 1742 
Q 1991 1309 1228 531 
z
" transform="scale(0.015625)"/>
       </defs>
       <use xlink:href="#DejaVuSans-32"/>
       <use xlink:href="#DejaVuSans-30" x="63.623047"/>
      </g>
     </g>
    </g>
    <g id="ytick_3">
     <g id="line2d_8">
      <path d="M 44.474375 168.421223 
L 423.914375 168.421223 
" clip-path="url(#p72da5af898)" style="fill: none; stroke-dasharray: 2.96,1.28; stroke-dashoffset: 0; stroke: #b0b0b0; stroke-opacity: 0.3; stroke-width: 0.8"/>
     </g>
     <g id="line2d_9">
      <g>
       <use xlink:href="#m3de6383ef8" x="44.474375" y="168.421223" style="stroke: #000000; stroke-width: 0.8"/>
      </g>
     </g>
     <g id="text_7">
      <!-- 30 -->
      <g transform="translate(24.749375 172.220442) scale(0.1 -0.1)">
       <defs>
        <path id="DejaVuSans-33" d="M 2597 2516 
Q 3050 2419 3304 2112 
Q 3559 1806 3559 1356 
Q 3559 666 3084 287 
Q 2609 -91 1734 -91 
Q 1441 -91 1130 -33 
Q 819 25 488 141 
L 488 750 
Q 750 597 1062 519 
Q 1375 441 1716 441 
Q 2309 441 2620 675 
Q 2931 909 2931 1356 
Q 2931 1769 2642 2001 
Q 2353 2234 1838 2234 
L 1294 2234 
L 1294 2753 
L 1863 2753 
Q 2328 2753 2575 2939 
Q 2822 3125 2822 3475 
Q 2822 3834 2567 4026 
Q 2313 4219 1838 4219 
Q 1578 4219 1281 4162 
Q 984 4106 628 3988 
L 628 4550 
Q 988 4650 1302 4700 
Q 1616 4750 1894 4750 
Q 2613 4750 3031 4423 
Q 3450 4097 3450 3541 
Q 3450 3153 3228 2886 
Q 3006 2619 2597 2516 
z
" transform="scale(0.015625)"/>
       </defs>
       <use xlink:href="#DejaVuSans-33"/>
       <use xlink:href="#DejaVuSans-30" x="63.623047"/>
      </g>
     </g>
    </g>
    <g id="ytick_4">
     <g id="line2d_10">
      <path d="M 44.474375 102.682092 
L 423.914375 102.682092 
" clip-path="url(#p72da5af898)" style="fill: none; stroke-dasharray: 2.96,1.28; stroke-dashoffset: 0; stroke: #b0b0b0; stroke-opacity: 0.3; stroke-width: 0.8"/>
     </g>
     <g id="line2d_11">
      <g>
       <use xlink:href="#m3de6383ef8" x="44.474375" y="102.682092" style="stroke: #000000; stroke-width: 0.8"/>
      </g>
     </g>
     <g id="text_8">
      <!-- 40 -->
      <g transform="translate(24.749375 106.481311) scale(0.1 -0.1)">
       <defs>
        <path id="DejaVuSans-34" d="M 2419 4116 
L 825 1625 
L 2419 1625 
L 2419 4116 
z
M 2253 4666 
L 3047 4666 
L 3047 1625 
L 3713 1625 
L 3713 1100 
L 3047 1100 
L 3047 0 
L 2419 0 
L 2419 1100 
L 313 1100 
L 313 1709 
L 2253 4666 
z
" transform="scale(0.015625)"/>
       </defs>
       <use xlink:href="#DejaVuSans-34"/>
       <use xlink:href="#DejaVuSans-30" x="63.623047"/>
      </g>
     </g>
    </g>
    <g id="ytick_5">
     <g id="line2d_12">
      <path d="M 44.474375 36.942962 
L 423.914375 36.942962 
" clip-path="url(#p72da5af898)" style="fill: none; stroke-dasharray: 2.96,1.28; stroke-dashoffset: 0; stroke: #b0b0b0; stroke-opacity: 0.3; stroke-width: 0.8"/>
     </g>
     <g id="line2d_13">
      <g>
       <use xlink:href="#m3de6383ef8" x="44.474375" y="36.942962" style="stroke: #000000; stroke-width: 0.8"/>
      </g>
     </g>
     <g id="text_9">
      <!-- 50 -->
      <g transform="translate(24.749375 40.742181) scale(0.1 -0.1)">
       <defs>
        <path id="DejaVuSans-35" d="M 691 4666 
L 3169 4666 
L 3169 4134 
L 1269 4134 
L 1269 2991 
Q 1406 3038 1543 3061 
Q 1681 3084 1819 3084 
Q 2600 3084 3056 2656 
Q 3513 2228 3513 1497 
Q 3513 744 3044 326 
Q 2575 -91 1722 -91 
Q 1428 -91 1123 -41 
Q 819 9 494 109 
L 494 744 
Q 775 591 1075 516 
Q 1375 441 1709 441 
Q 2250 441 2565 725 
Q 2881 1009 2881 1497 
Q 2881 1984 2565 2268 
Q 2250 2553 1709 2553 
Q 1456 2553 1204 2497 
Q 953 2441 691 2322 
L 691 4666 
z
" transform="scale(0.015625)"/>
       </defs>
       <use xlink:href="#DejaVuSans-35"/>
       <use xlink:href="#DejaVuSans-30" x="63.623047"/>
      </g>
     </g>
    </g>
    <g id="text_10">
     <!-- Number of Blocks () -->
     <g transform="translate(17.837813 264.300156) rotate(-90) scale(0.14 -0.14)">
      <defs>
       <path id="DejaVuSans-4e" d="M 628 4666 
L 1478 4666 
L 3547 763 
L 3547 4666 
L 4159 4666 
L 4159 0 
L 3309 0 
L 1241 3903 
L 1241 0 
L 628 0 
L 628 4666 
z
" transform="scale(0.015625)"/>
       <path id="DejaVuSans-62" d="M 3116 1747 
Q 3116 2381 2855 2742 
Q 2594 3103 2138 3103 
Q 1681 3103 1420 2742 
Q 1159 2381 1159 1747 
Q 1159 1113 1420 752 
Q 1681 391 2138 391 
Q 2594 391 2855 752 
Q 3116 1113 3116 1747 
z
M 1159 2969 
Q 1341 3281 1617 3432 
Q 1894 3584 2278 3584 
Q 2916 3584 3314 3078 
Q 3713 2572 3713 1747 
Q 3713 922 3314 415 
Q 2916 -91 2278 -91 
Q 1894 -91 1617 61 
Q 1341 213 1159 525 
L 1159 0 
L 581 0 
L 581 4863 
L 1159 4863 
L 1159 2969 
z
" transform="scale(0.015625)"/>
       <path id="DejaVuSans-20" transform="scale(0.015625)"/>
       <path id="DejaVuSans-42" d="M 1259 2228 
L 1259 519 
L 2272 519 
Q 2781 519 3026 730 
Q 3272 941 3272 1375 
Q 3272 1813 3026 2020 
Q 2781 2228 2272 2228 
L 1259 2228 
z
M 1259 4147 
L 1259 2741 
L 2194 2741 
Q 2656 2741 2882 2914 
Q 3109 3088 3109 3444 
Q 3109 3797 2882 3972 
Q 2656 4147 2194 4147 
L 1259 4147 
z
M 628 4666 
L 2241 4666 
Q 2963 4666 3353 4366 
Q 3744 4066 3744 3513 
Q 3744 3084 3544 2831 
Q 3344 2578 2956 2516 
Q 3422 2416 3680 2098 
Q 3938 1781 3938 1306 
Q 3938 681 3513 340 
Q 3088 0 2303 0 
L 628 0 
L 628 4666 
z
" transform="scale(0.015625)"/>
       <path id="DejaVuSans-28" d="M 1984 4856 
Q 1566 4138 1362 3434 
Q 1159 2731 1159 2009 
Q 1159 1288 1364 580 
Q 1569 -128 1984 -844 
L 1484 -844 
Q 1016 -109 783 600 
Q 550 1309 550 2009 
Q 550 2706 781 3412 
Q 1013 4119 1484 4856 
L 1984 4856 
z
" transform="scale(0.015625)"/>
       <path id="DejaVuSans-29" d="M 513 4856 
L 1013 4856 
Q 1481 4119 1714 3412 
Q 1947 2706 1947 2009 
Q 1947 1309 1714 600 
Q 1481 -109 1013 -844 
L 513 -844 
Q 928 -128 1133 580 
Q 1338 1288 1338 2009 
Q 1338 2731 1133 3434 
Q 928 4138 513 4856 
z
" transform="scale(0.015625)"/>
      </defs>
      <use xlink:href="#DejaVuSans-4e"/>
      <use xlink:href="#DejaVuSans-75" x="74.804688"/>
      <use xlink:href="#DejaVuSans-6d" x="138.183594"/>
      <use xlink:href="#DejaVuSans-62" x="235.595703"/>
      <use xlink:href="#DejaVuSans-65" x="299.072266"/>
      <use xlink:href="#DejaVuSans-72" x="360.595703"/>
      <use xlink:href="#DejaVuSans-20" x="401.708984"/>
      <use xlink:href="#DejaVuSans-6f" x="433.496094"/>
      <use xlink:href="#DejaVuSans-66" x="494.677734"/>
      <use xlink:href="#DejaVuSans-20" x="529.882812"/>
      <use xlink:href="#DejaVuSans-42" x="561.669922"/>
      <use xlink:href="#DejaVuSans-6c" x="630.273438"/>
      <use xlink:href="#DejaVuSans-6f" x="658.056641"/>
      <use xlink:href="#DejaVuSans-63" x="719.238281"/>
      <use xlink:href="#DejaVuSans-6b" x="774.21875"/>
      <use xlink:href="#DejaVuSans-73" x="832.128906"/>
      <use xlink:href="#DejaVuSans-20" x="884.228516"/>
      <use xlink:href="#DejaVuSans-28" x="916.015625"/>
      <use xlink:href="#DejaVuSans-29" x="955.029297"/>
     </g>
    </g>
   </g>
   <g id="patch_3">
    <path d="M 98.228375 202.934266 
L 117.200375 202.934266 
L 117.200375 161.84731 
L 98.228375 161.84731 
L 98.228375 202.934266 
z
" clip-path="url(#p72da5af898)" style="fill: #ffffff; stroke: #000000; stroke-linejoin: miter"/>
   </g>
   <g id="line2d_14">
    <path d="M 107.714375 202.934266 
L 107.714375 221.012527 
" clip-path="url(#p72da5af898)" style="fill: none; stroke: #000000; stroke-linecap: square"/>
   </g>
   <g id="line2d_15">
    <path d="M 107.714375 161.84731 
L 107.714375 148.699484 
" clip-path="url(#p72da5af898)" style="fill: none; stroke: #000000; stroke-linecap: square"/>
   </g>
   <g id="line2d_16">
    <path d="M 102.971375 221.012527 
L 112.457375 221.012527 
" clip-path="url(#p72da5af898)" style="fill: none; stroke: #000000; stroke-linecap: square"/>
   </g>
   <g id="line2d_17">
    <path d="M 102.971375 148.699484 
L 112.457375 148.699484 
" clip-path="url(#p72da5af898)" style="fill: none; stroke: #000000; stroke-linecap: square"/>
   </g>
   <g id="patch_4">
    <path d="M 224.708375 227.58644 
L 243.680375 227.58644 
L 243.680375 194.716875 
L 224.708375 194.716875 
L 224.708375 227.58644 
z
" clip-path="url(#p72da5af898)" style="fill: #ffffff; stroke: #000000; stroke-linejoin: miter"/>
   </g>
   <g id="line2d_18">
    <path d="M 234.194375 227.58644 
L 234.194375 240.734266 
" clip-path="url(#p72da5af898)" style="fill: none; stroke: #000000; stroke-linecap: square"/>
   </g>
   <g id="line2d_19">
    <path d="M 234.194375 194.716875 
L 234.194375 168.421223 
" clip-path="url(#p72da5af898)" style="fill: none; stroke: #000000; stroke-linecap: square"/>
   </g>
   <g id="line2d_20">
    <path d="M 229.451375 240.734266 
L 238.937375 240.734266 
" clip-path="url(#p72da5af898)" style="fill: none; stroke: #000000; stroke-linecap: square"/>
   </g>
   <g id="line2d_21">
    <path d="M 229.451375 168.421223 
L 238.937375 168.421223 
" clip-path="url(#p72da5af898)" style="fill: none; stroke: #000000; stroke-linecap: square"/>
   </g>
   <g id="patch_5">
    <path d="M 351.188375 229.229918 
L 370.160375 229.229918 
L 370.160375 201.290788 
L 351.188375 201.290788 
L 351.188375 229.229918 
z
" clip-path="url(#p72da5af898)" style="fill: #ffffff; stroke: #000000; stroke-linejoin: miter"/>
   </g>
   <g id="line2d_22">
    <path d="M 360.674375 229.229918 
L 360.674375 240.734266 
" clip-path="url(#p72da5af898)" style="fill: none; stroke: #000000; stroke-linecap: square"/>
   </g>
   <g id="line2d_23">
    <path d="M 360.674375 201.290788 
L 360.674375 188.142962 
" clip-path="url(#p72da5af898)" style="fill: none; stroke: #000000; stroke-linecap: square"/>
   </g>
   <g id="line2d_24">
    <path d="M 355.931375 240.734266 
L 365.417375 240.734266 
" clip-path="url(#p72da5af898)" style="fill: none; stroke: #000000; stroke-linecap: square"/>
   </g>
   <g id="line2d_25">
    <path d="M 355.931375 188.142962 
L 365.417375 188.142962 
" clip-path="url(#p72da5af898)" style="fill: none; stroke: #000000; stroke-linecap: square"/>
   </g>
   <g id="line2d_26">
    <path d="M 98.228375 184.856005 
L 117.200375 184.856005 
" clip-path="url(#p72da5af898)" style="fill: none; stroke: #000000"/>
   </g>
   <g id="line2d_27">
    <path d="M 224.708375 207.864701 
L 243.680375 207.864701 
" clip-path="url(#p72da5af898)" style="fill: none; stroke: #000000"/>
   </g>
   <g id="line2d_28">
    <path d="M 351.188375 217.725571 
L 370.160375 217.725571 
" clip-path="url(#p72da5af898)" style="fill: none; stroke: #000000"/>
   </g>
   <g id="patch_6">
    <path d="M 44.474375 361.036875 
L 44.474375 28.396875 
" style="fill: none; stroke: #000000; stroke-width: 0.8; stroke-linejoin: miter; stroke-linecap: square"/>
   </g>
   <g id="patch_7">
    <path d="M 423.914375 361.036875 
L 423.914375 28.396875 
" style="fill: none; stroke: #000000; stroke-width: 0.8; stroke-linejoin: miter; stroke-linecap: square"/>
   </g>
   <g id="patch_8">
    <path d="M 44.474375 361.036875 
L 423.914375 361.036875 
" style="fill: none; stroke: #000000; stroke-width: 0.8; stroke-linejoin: miter; stroke-linecap: square"/>
   </g>
   <g id="patch_9">
    <path d="M 44.474375 28.396875 
L 423.914375 28.396875 
" style="fill: none; stroke: #000000; stroke-width: 0.8; stroke-linejoin: miter; stroke-linecap: square"/>
   </g>
   <g id="PathCollection_1">
    <defs>
     <path id="m982f9237a2" d="M 0 3 
C 0.795609 3 1.55874 2.683901 2.12132 2.12132 
C 2.683901 1.55874 3 0.795609 3 0 
C 3 -0.795609 2.683901 -1.55874 2.12132 -2.12132 
C 1.55874 -2.683901 0.795609 -3 0 -3 
C -0.795609 -3 -1.55874 -2.683901 -2.12132 -2.12132 
C -2.683901 -1.55874 -3 -0.795609 -3 0 
C -3 0.795609 -2.683901 1.55874 -2.12132 2.12132 
C -1.55874 2.683901 -0.795609 3 0 3 
z
" style="stroke: #000000; stroke-opacity: 0.85; stroke-width: 0.4"/>
    </defs>
    <g clip-path="url(#p72da5af898)">
     <use xlink:href="#m982f9237a2" x="110.00538" y="207.864701" style="fill: #425df5; fill-opacity: 0.85; stroke: #000000; stroke-opacity: 0.85; stroke-width: 0.4"/>
     <use xlink:href="#m982f9237a2" x="102.98329" y="214.438614" style="fill: #425df5; fill-opacity: 0.85; stroke: #000000; stroke-opacity: 0.85; stroke-width: 0.4"/>
     <use xlink:href="#m982f9237a2" x="112.155718" y="221.012527" style="fill: #425df5; fill-opacity: 0.85; stroke: #000000; stroke-opacity: 0.85; stroke-width: 0.4"/>
     <use xlink:href="#m982f9237a2" x="106.40782" y="155.273397" style="fill: #425df5; fill-opacity: 0.85; stroke: #000000; stroke-opacity: 0.85; stroke-width: 0.4"/>
     <use xlink:href="#m982f9237a2" x="110.653604" y="148.699484" style="fill: #425df5; fill-opacity: 0.85; stroke: #000000; stroke-opacity: 0.85; stroke-width: 0.4"/>
     <use xlink:href="#m982f9237a2" x="107.871244" y="181.569049" style="fill: #425df5; fill-opacity: 0.85; stroke: #000000; stroke-opacity: 0.85; stroke-width: 0.4"/>
     <use xlink:href="#m982f9237a2" x="112.341217" y="207.864701" style="fill: #425df5; fill-opacity: 0.85; stroke: #000000; stroke-opacity: 0.85; stroke-width: 0.4"/>
     <use xlink:href="#m982f9237a2" x="108.561854" y="188.142962" style="fill: #425df5; fill-opacity: 0.85; stroke: #000000; stroke-opacity: 0.85; stroke-width: 0.4"/>
     <use xlink:href="#m982f9237a2" x="102.960325" y="181.569049" style="fill: #425df5; fill-opacity: 0.85; stroke: #000000; stroke-opacity: 0.85; stroke-width: 0.4"/>
     <use xlink:href="#m982f9237a2" x="103.894001" y="221.012527" style="fill: #425df5; fill-opacity: 0.85; stroke: #000000; stroke-opacity: 0.85; stroke-width: 0.4"/>
     <use xlink:href="#m982f9237a2" x="103.392354" y="207.864701" style="fill: #425df5; fill-opacity: 0.85; stroke: #000000; stroke-opacity: 0.85; stroke-width: 0.4"/>
     <use xlink:href="#m982f9237a2" x="105.002176" y="161.84731" style="fill: #425df5; fill-opacity: 0.85; stroke: #000000; stroke-opacity: 0.85; stroke-width: 0.4"/>
     <use xlink:href="#m982f9237a2" x="103.243266" y="155.273397" style="fill: #425df5; fill-opacity: 0.85; stroke: #000000; stroke-opacity: 0.85; stroke-width: 0.4"/>
     <use xlink:href="#m982f9237a2" x="104.634982" y="201.290788" style="fill: #425df5; fill-opacity: 0.85; stroke: #000000; stroke-opacity: 0.85; stroke-width: 0.4"/>
     <use xlink:href="#m982f9237a2" x="107.730426" y="155.273397" style="fill: #425df5; fill-opacity: 0.85; stroke: #000000; stroke-opacity: 0.85; stroke-width: 0.4"/>
     <use xlink:href="#m982f9237a2" x="104.946516" y="194.716875" style="fill: #425df5; fill-opacity: 0.85; stroke: #000000; stroke-opacity: 0.85; stroke-width: 0.4"/>
     <use xlink:href="#m982f9237a2" x="112.728275" y="194.716875" style="fill: #425df5; fill-opacity: 0.85; stroke: #000000; stroke-opacity: 0.85; stroke-width: 0.4"/>
     <use xlink:href="#m982f9237a2" x="108.385348" y="155.273397" style="fill: #425df5; fill-opacity: 0.85; stroke: #000000; stroke-opacity: 0.85; stroke-width: 0.4"/>
     <use xlink:href="#m982f9237a2" x="104.961579" y="181.569049" style="fill: #425df5; fill-opacity: 0.85; stroke: #000000; stroke-opacity: 0.85; stroke-width: 0.4"/>
     <use xlink:href="#m982f9237a2" x="103.577535" y="161.84731" style="fill: #425df5; fill-opacity: 0.85; stroke: #000000; stroke-opacity: 0.85; stroke-width: 0.4"/>
     <use xlink:href="#m982f9237a2" x="111.515606" y="194.716875" style="fill: #425df5; fill-opacity: 0.85; stroke: #000000; stroke-opacity: 0.85; stroke-width: 0.4"/>
     <use xlink:href="#m982f9237a2" x="103.264894" y="201.290788" style="fill: #425df5; fill-opacity: 0.85; stroke: #000000; stroke-opacity: 0.85; stroke-width: 0.4"/>
     <use xlink:href="#m982f9237a2" x="112.28896" y="168.421223" style="fill: #425df5; fill-opacity: 0.85; stroke: #000000; stroke-opacity: 0.85; stroke-width: 0.4"/>
     <use xlink:href="#m982f9237a2" x="112.129128" y="168.421223" style="fill: #425df5; fill-opacity: 0.85; stroke: #000000; stroke-opacity: 0.85; stroke-width: 0.4"/>
    </g>
   </g>
   <g id="PathCollection_2">
    <defs>
     <path id="me844ebeb9a" d="M 0 3 
C 0.795609 3 1.55874 2.683901 2.12132 2.12132 
C 2.683901 1.55874 3 0.795609 3 0 
C 3 -0.795609 2.683901 -1.55874 2.12132 -2.12132 
C 1.55874 -2.683901 0.795609 -3 0 -3 
C -0.795609 -3 -1.55874 -2.683901 -2.12132 -2.12132 
C -2.683901 -1.55874 -3 -0.795609 -3 0 
C -3 0.795609 -2.683901 1.55874 -2.12132 2.12132 
C -1.55874 2.683901 -0.795609 3 0 3 
z
" style="stroke: #000000; stroke-opacity: 0.85; stroke-width: 0.4"/>
    </defs>
    <g clip-path="url(#p72da5af898)">
     <use xlink:href="#me844ebeb9a" x="236.879895" y="207.864701" style="fill: #f55442; fill-opacity: 0.85; stroke: #000000; stroke-opacity: 0.85; stroke-width: 0.4"/>
     <use xlink:href="#me844ebeb9a" x="234.863607" y="214.438614" style="fill: #f55442; fill-opacity: 0.85; stroke: #000000; stroke-opacity: 0.85; stroke-width: 0.4"/>
     <use xlink:href="#me844ebeb9a" x="237.290438" y="227.58644" style="fill: #f55442; fill-opacity: 0.85; stroke: #000000; stroke-opacity: 0.85; stroke-width: 0.4"/>
     <use xlink:href="#me844ebeb9a" x="238.962895" y="207.864701" style="fill: #f55442; fill-opacity: 0.85; stroke: #000000; stroke-opacity: 0.85; stroke-width: 0.4"/>
     <use xlink:href="#me844ebeb9a" x="239.168151" y="227.58644" style="fill: #f55442; fill-opacity: 0.85; stroke: #000000; stroke-opacity: 0.85; stroke-width: 0.4"/>
     <use xlink:href="#me844ebeb9a" x="234.762428" y="207.864701" style="fill: #f55442; fill-opacity: 0.85; stroke: #000000; stroke-opacity: 0.85; stroke-width: 0.4"/>
     <use xlink:href="#me844ebeb9a" x="232.683938" y="194.716875" style="fill: #f55442; fill-opacity: 0.85; stroke: #000000; stroke-opacity: 0.85; stroke-width: 0.4"/>
     <use xlink:href="#me844ebeb9a" x="234.906374" y="221.012527" style="fill: #f55442; fill-opacity: 0.85; stroke: #000000; stroke-opacity: 0.85; stroke-width: 0.4"/>
     <use xlink:href="#me844ebeb9a" x="232.293066" y="43.516875" style="fill: #f55442; fill-opacity: 0.85; stroke: #000000; stroke-opacity: 0.85; stroke-width: 0.4"/>
     <use xlink:href="#me844ebeb9a" x="235.065958" y="240.734266" style="fill: #f55442; fill-opacity: 0.85; stroke: #000000; stroke-opacity: 0.85; stroke-width: 0.4"/>
     <use xlink:href="#me844ebeb9a" x="237.18868" y="188.142962" style="fill: #f55442; fill-opacity: 0.85; stroke: #000000; stroke-opacity: 0.85; stroke-width: 0.4"/>
     <use xlink:href="#me844ebeb9a" x="233.116617" y="240.734266" style="fill: #f55442; fill-opacity: 0.85; stroke: #000000; stroke-opacity: 0.85; stroke-width: 0.4"/>
     <use xlink:href="#me844ebeb9a" x="230.923112" y="227.58644" style="fill: #f55442; fill-opacity: 0.85; stroke: #000000; stroke-opacity: 0.85; stroke-width: 0.4"/>
     <use xlink:href="#me844ebeb9a" x="236.66155" y="221.012527" style="fill: #f55442; fill-opacity: 0.85; stroke: #000000; stroke-opacity: 0.85; stroke-width: 0.4"/>
     <use xlink:href="#me844ebeb9a" x="229.199973" y="214.438614" style="fill: #f55442; fill-opacity: 0.85; stroke: #000000; stroke-opacity: 0.85; stroke-width: 0.4"/>
     <use xlink:href="#me844ebeb9a" x="236.858301" y="227.58644" style="fill: #f55442; fill-opacity: 0.85; stroke: #000000; stroke-opacity: 0.85; stroke-width: 0.4"/>
     <use xlink:href="#me844ebeb9a" x="232.254851" y="201.290788" style="fill: #f55442; fill-opacity: 0.85; stroke: #000000; stroke-opacity: 0.85; stroke-width: 0.4"/>
     <use xlink:href="#me844ebeb9a" x="238.959672" y="188.142962" style="fill: #f55442; fill-opacity: 0.85; stroke: #000000; stroke-opacity: 0.85; stroke-width: 0.4"/>
     <use xlink:href="#me844ebeb9a" x="234.597363" y="194.716875" style="fill: #f55442; fill-opacity: 0.85; stroke: #000000; stroke-opacity: 0.85; stroke-width: 0.4"/>
     <use xlink:href="#me844ebeb9a" x="233.983959" y="168.421223" style="fill: #f55442; fill-opacity: 0.85; stroke: #000000; stroke-opacity: 0.85; stroke-width: 0.4"/>
     <use xlink:href="#me844ebeb9a" x="235.039485" y="194.716875" style="fill: #f55442; fill-opacity: 0.85; stroke: #000000; stroke-opacity: 0.85; stroke-width: 0.4"/>
     <use xlink:href="#me844ebeb9a" x="236.341374" y="214.438614" style="fill: #f55442; fill-opacity: 0.85; stroke: #000000; stroke-opacity: 0.85; stroke-width: 0.4"/>
     <use xlink:href="#me844ebeb9a" x="234.508409" y="234.160353" style="fill: #f55442; fill-opacity: 0.85; stroke: #000000; stroke-opacity: 0.85; stroke-width: 0.4"/>
     <use xlink:href="#me844ebeb9a" x="229.272617" y="181.569049" style="fill: #f55442; fill-opacity: 0.85; stroke: #000000; stroke-opacity: 0.85; stroke-width: 0.4"/>
     <use xlink:href="#me844ebeb9a" x="229.135599" y="227.58644" style="fill: #f55442; fill-opacity: 0.85; stroke: #000000; stroke-opacity: 0.85; stroke-width: 0.4"/>
     <use xlink:href="#me844ebeb9a" x="233.972223" y="174.995136" style="fill: #f55442; fill-opacity: 0.85; stroke: #000000; stroke-opacity: 0.85; stroke-width: 0.4"/>
     <use xlink:href="#me844ebeb9a" x="231.972994" y="207.864701" style="fill: #f55442; fill-opacity: 0.85; stroke: #000000; stroke-opacity: 0.85; stroke-width: 0.4"/>
    </g>
   </g>
   <g id="PathCollection_3">
    <defs>
     <path id="m5159a35dd7" d="M 0 3 
C 0.795609 3 1.55874 2.683901 2.12132 2.12132 
C 2.683901 1.55874 3 0.795609 3 0 
C 3 -0.795609 2.683901 -1.55874 2.12132 -2.12132 
C 1.55874 -2.683901 0.795609 -3 0 -3 
C -0.795609 -3 -1.55874 -2.683901 -2.12132 -2.12132 
C -2.683901 -1.55874 -3 -0.795609 -3 0 
C -3 0.795609 -2.683901 1.55874 -2.12132 2.12132 
C -1.55874 2.683901 -0.795609 3 0 3 
z
" style="stroke: #000000; stroke-opacity: 0.85; stroke-width: 0.4"/>
    </defs>
    <g clip-path="url(#p72da5af898)">
     <use xlink:href="#m5159a35dd7" x="355.736363" y="280.177745" style="fill: #0ec72a; fill-opacity: 0.85; stroke: #000000; stroke-opacity: 0.85; stroke-width: 0.4"/>
     <use xlink:href="#m5159a35dd7" x="360.42985" y="201.290788" style="fill: #0ec72a; fill-opacity: 0.85; stroke: #000000; stroke-opacity: 0.85; stroke-width: 0.4"/>
     <use xlink:href="#m5159a35dd7" x="359.19714" y="345.916875" style="fill: #0ec72a; fill-opacity: 0.85; stroke: #000000; stroke-opacity: 0.85; stroke-width: 0.4"/>
     <use xlink:href="#m5159a35dd7" x="365.077011" y="234.160353" style="fill: #0ec72a; fill-opacity: 0.85; stroke: #000000; stroke-opacity: 0.85; stroke-width: 0.4"/>
     <use xlink:href="#m5159a35dd7" x="357.443892" y="221.012527" style="fill: #0ec72a; fill-opacity: 0.85; stroke: #000000; stroke-opacity: 0.85; stroke-width: 0.4"/>
     <use xlink:href="#m5159a35dd7" x="362.535858" y="221.012527" style="fill: #0ec72a; fill-opacity: 0.85; stroke: #000000; stroke-opacity: 0.85; stroke-width: 0.4"/>
     <use xlink:href="#m5159a35dd7" x="361.002917" y="234.160353" style="fill: #0ec72a; fill-opacity: 0.85; stroke: #000000; stroke-opacity: 0.85; stroke-width: 0.4"/>
     <use xlink:href="#m5159a35dd7" x="362.505566" y="194.716875" style="fill: #0ec72a; fill-opacity: 0.85; stroke: #000000; stroke-opacity: 0.85; stroke-width: 0.4"/>
     <use xlink:href="#m5159a35dd7" x="361.478652" y="194.716875" style="fill: #0ec72a; fill-opacity: 0.85; stroke: #000000; stroke-opacity: 0.85; stroke-width: 0.4"/>
     <use xlink:href="#m5159a35dd7" x="357.1763" y="227.58644" style="fill: #0ec72a; fill-opacity: 0.85; stroke: #000000; stroke-opacity: 0.85; stroke-width: 0.4"/>
     <use xlink:href="#m5159a35dd7" x="356.802754" y="201.290788" style="fill: #0ec72a; fill-opacity: 0.85; stroke: #000000; stroke-opacity: 0.85; stroke-width: 0.4"/>
     <use xlink:href="#m5159a35dd7" x="361.037806" y="221.012527" style="fill: #0ec72a; fill-opacity: 0.85; stroke: #000000; stroke-opacity: 0.85; stroke-width: 0.4"/>
     <use xlink:href="#m5159a35dd7" x="358.6968" y="188.142962" style="fill: #0ec72a; fill-opacity: 0.85; stroke: #000000; stroke-opacity: 0.85; stroke-width: 0.4"/>
     <use xlink:href="#m5159a35dd7" x="357.632503" y="201.290788" style="fill: #0ec72a; fill-opacity: 0.85; stroke: #000000; stroke-opacity: 0.85; stroke-width: 0.4"/>
     <use xlink:href="#m5159a35dd7" x="356.333737" y="194.716875" style="fill: #0ec72a; fill-opacity: 0.85; stroke: #000000; stroke-opacity: 0.85; stroke-width: 0.4"/>
     <use xlink:href="#m5159a35dd7" x="359.473367" y="214.438614" style="fill: #0ec72a; fill-opacity: 0.85; stroke: #000000; stroke-opacity: 0.85; stroke-width: 0.4"/>
     <use xlink:href="#m5159a35dd7" x="364.037128" y="227.58644" style="fill: #0ec72a; fill-opacity: 0.85; stroke: #000000; stroke-opacity: 0.85; stroke-width: 0.4"/>
     <use xlink:href="#m5159a35dd7" x="356.231079" y="214.438614" style="fill: #0ec72a; fill-opacity: 0.85; stroke: #000000; stroke-opacity: 0.85; stroke-width: 0.4"/>
     <use xlink:href="#m5159a35dd7" x="364.438947" y="214.438614" style="fill: #0ec72a; fill-opacity: 0.85; stroke: #000000; stroke-opacity: 0.85; stroke-width: 0.4"/>
     <use xlink:href="#m5159a35dd7" x="362.932911" y="240.734266" style="fill: #0ec72a; fill-opacity: 0.85; stroke: #000000; stroke-opacity: 0.85; stroke-width: 0.4"/>
    </g>
   </g>
   <g id="text_11">
    <!-- Number of Blocks Distribution -->
    <g transform="translate(84.255313 22.396875) scale(0.2 -0.2)">
     <defs>
      <path id="DejaVuSans-44" d="M 1259 4147 
L 1259 519 
L 2022 519 
Q 2988 519 3436 956 
Q 3884 1394 3884 2338 
Q 3884 3275 3436 3711 
Q 2988 4147 2022 4147 
L 1259 4147 
z
M 628 4666 
L 1925 4666 
Q 3281 4666 3915 4102 
Q 4550 3538 4550 2338 
Q 4550 1131 3912 565 
Q 3275 0 1925 0 
L 628 0 
L 628 4666 
z
" transform="scale(0.015625)"/>
      <path id="DejaVuSans-69" d="M 603 3500 
L 1178 3500 
L 1178 0 
L 603 0 
L 603 3500 
z
M 603 4863 
L 1178 4863 
L 1178 4134 
L 603 4134 
L 603 4863 
z
" transform="scale(0.015625)"/>
      <path id="DejaVuSans-6e" d="M 3513 2113 
L 3513 0 
L 2938 0 
L 2938 2094 
Q 2938 2591 2744 2837 
Q 2550 3084 2163 3084 
Q 1697 3084 1428 2787 
Q 1159 2491 1159 1978 
L 1159 0 
L 581 0 
L 581 3500 
L 1159 3500 
L 1159 2956 
Q 1366 3272 1645 3428 
Q 1925 3584 2291 3584 
Q 2894 3584 3203 3211 
Q 3513 2838 3513 2113 
z
" transform="scale(0.015625)"/>
     </defs>
     <use xlink:href="#DejaVuSans-4e"/>
     <use xlink:href="#DejaVuSans-75" x="74.804688"/>
     <use xlink:href="#DejaVuSans-6d" x="138.183594"/>
     <use xlink:href="#DejaVuSans-62" x="235.595703"/>
     <use xlink:href="#DejaVuSans-65" x="299.072266"/>
     <use xlink:href="#DejaVuSans-72" x="360.595703"/>
     <use xlink:href="#DejaVuSans-20" x="401.708984"/>
     <use xlink:href="#DejaVuSans-6f" x="433.496094"/>
     <use xlink:href="#DejaVuSans-66" x="494.677734"/>
     <use xlink:href="#DejaVuSans-20" x="529.882812"/>
     <use xlink:href="#DejaVuSans-42" x="561.669922"/>
     <use xlink:href="#DejaVuSans-6c" x="630.273438"/>
     <use xlink:href="#DejaVuSans-6f" x="658.056641"/>
     <use xlink:href="#DejaVuSans-63" x="719.238281"/>
     <use xlink:href="#DejaVuSans-6b" x="774.21875"/>
     <use xlink:href="#DejaVuSans-73" x="832.128906"/>
     <use xlink:href="#DejaVuSans-20" x="884.228516"/>
     <use xlink:href="#DejaVuSans-44" x="916.015625"/>
     <use xlink:href="#DejaVuSans-69" x="993.017578"/>
     <use xlink:href="#DejaVuSans-73" x="1020.800781"/>
     <use xlink:href="#DejaVuSans-74" x="1072.900391"/>
     <use xlink:href="#DejaVuSans-72" x="1112.109375"/>
     <use xlink:href="#DejaVuSans-69" x="1153.222656"/>
     <use xlink:href="#DejaVuSans-62" x="1181.005859"/>
     <use xlink:href="#DejaVuSans-75" x="1244.482422"/>
     <use xlink:href="#DejaVuSans-74" x="1307.861328"/>
     <use xlink:href="#DejaVuSans-69" x="1347.070312"/>
     <use xlink:href="#DejaVuSans-6f" x="1374.853516"/>
     <use xlink:href="#DejaVuSans-6e" x="1436.035156"/>
    </g>
   </g>
   <g id="legend_1">
    <g id="patch_10">
     <path d="M 289.638125 90.838125 
L 415.514375 90.838125 
Q 417.914375 90.838125 417.914375 88.438125 
L 417.914375 36.796875 
Q 417.914375 34.396875 415.514375 34.396875 
L 289.638125 34.396875 
Q 287.238125 34.396875 287.238125 36.796875 
L 287.238125 88.438125 
Q 287.238125 90.838125 289.638125 90.838125 
z
" style="fill: #ffffff; opacity: 0.8; stroke: #cccccc; stroke-linejoin: miter"/>
    </g>
    <g id="patch_11">
     <path d="M 292.038125 48.315 
L 316.038125 48.315 
L 316.038125 39.915 
L 292.038125 39.915 
z
" style="fill: #425df5; opacity: 0.65; stroke: #425df5; stroke-linejoin: miter"/>
    </g>
    <g id="text_12">
     <!-- cask (n=24) -->
     <g transform="translate(325.638125 48.315) scale(0.12 -0.12)">
      <defs>
       <path id="DejaVuSans-3d" d="M 678 2906 
L 4684 2906 
L 4684 2381 
L 678 2381 
L 678 2906 
z
M 678 1631 
L 4684 1631 
L 4684 1100 
L 678 1100 
L 678 1631 
z
" transform="scale(0.015625)"/>
      </defs>
      <use xlink:href="#DejaVuSans-63"/>
      <use xlink:href="#DejaVuSans-61" x="54.980469"/>
      <use xlink:href="#DejaVuSans-73" x="116.259766"/>
      <use xlink:href="#DejaVuSans-6b" x="168.359375"/>
      <use xlink:href="#DejaVuSans-20" x="226.269531"/>
      <use xlink:href="#DejaVuSans-28" x="258.056641"/>
      <use xlink:href="#DejaVuSans-6e" x="297.070312"/>
      <use xlink:href="#DejaVuSans-3d" x="360.449219"/>
      <use xlink:href="#DejaVuSans-32" x="444.238281"/>
      <use xlink:href="#DejaVuSans-34" x="507.861328"/>
      <use xlink:href="#DejaVuSans-29" x="571.484375"/>
     </g>
    </g>
    <g id="patch_12">
     <path d="M 292.038125 65.92875 
L 316.038125 65.92875 
L 316.038125 57.52875 
L 292.038125 57.52875 
z
" style="fill: #f55442; opacity: 0.65; stroke: #f55442; stroke-linejoin: miter"/>
    </g>
    <g id="text_13">
     <!-- ctrl (n=27) -->
     <g transform="translate(325.638125 65.92875) scale(0.12 -0.12)">
      <defs>
       <path id="DejaVuSans-37" d="M 525 4666 
L 3525 4666 
L 3525 4397 
L 1831 0 
L 1172 0 
L 2766 4134 
L 525 4134 
L 525 4666 
z
" transform="scale(0.015625)"/>
      </defs>
      <use xlink:href="#DejaVuSans-63"/>
      <use xlink:href="#DejaVuSans-74" x="54.980469"/>
      <use xlink:href="#DejaVuSans-72" x="94.189453"/>
      <use xlink:href="#DejaVuSans-6c" x="135.302734"/>
      <use xlink:href="#DejaVuSans-20" x="163.085938"/>
      <use xlink:href="#DejaVuSans-28" x="194.873047"/>
      <use xlink:href="#DejaVuSans-6e" x="233.886719"/>
      <use xlink:href="#DejaVuSans-3d" x="297.265625"/>
      <use xlink:href="#DejaVuSans-32" x="381.054688"/>
      <use xlink:href="#DejaVuSans-37" x="444.677734"/>
      <use xlink:href="#DejaVuSans-29" x="508.300781"/>
     </g>
    </g>
    <g id="patch_13">
     <path d="M 292.038125 83.5425 
L 316.038125 83.5425 
L 316.038125 75.1425 
L 292.038125 75.1425 
z
" style="fill: #0ec72a; opacity: 0.65; stroke: #0ec72a; stroke-linejoin: miter"/>
    </g>
    <g id="text_14">
     <!-- female (n=20) -->
     <g transform="translate(325.638125 83.5425) scale(0.12 -0.12)">
      <use xlink:href="#DejaVuSans-66"/>
      <use xlink:href="#DejaVuSans-65" x="35.205078"/>
      <use xlink:href="#DejaVuSans-6d" x="96.728516"/>
      <use xlink:href="#DejaVuSans-61" x="194.140625"/>
      <use xlink:href="#DejaVuSans-6c" x="255.419922"/>
      <use xlink:href="#DejaVuSans-65" x="283.203125"/>
      <use xlink:href="#DejaVuSans-20" x="344.726562"/>
      <use xlink:href="#DejaVuSans-28" x="376.513672"/>
      <use xlink:href="#DejaVuSans-6e" x="415.527344"/>
      <use xlink:href="#DejaVuSans-3d" x="478.90625"/>
      <use xlink:href="#DejaVuSans-32" x="562.695312"/>
      <use xlink:href="#DejaVuSans-30" x="626.318359"/>
      <use xlink:href="#DejaVuSans-29" x="689.941406"/>
     </g>
    </g>
   </g>
  </g>
 </g>
 <defs>
  <clipPath id="p72da5af898">
   <rect x="44.474375" y="28.396875" width="379.44" height="332.64"/>
  </clipPath>
 </defs>
</svg>
