<?xml version="1.0" encoding="utf-8" standalone="no"?>
<!DOCTYPE svg PUBLIC "-//W3C//DTD SVG 1.1//EN"
  "http://www.w3.org/Graphics/SVG/1.1/DTD/svg11.dtd">
<svg xmlns:xlink="http://www.w3.org/1999/xlink" width="460.186562pt" height="402.464375pt" viewBox="0 0 460.186562 402.464375" xmlns="http://www.w3.org/2000/svg" version="1.1">
 <metadata>
  <rdf:RDF xmlns:dc="http://purl.org/dc/elements/1.1/" xmlns:cc="http://creativecommons.org/ns#" xmlns:rdf="http://www.w3.org/1999/02/22-rdf-syntax-ns#">
   <cc:Work>
    <dc:type rdf:resource="http://purl.org/dc/dcmitype/StillImage"/>
    <dc:date>2025-10-01T22:42:30.898044</dc:date>
    <dc:format>image/svg+xml</dc:format>
    <dc:creator>
     <cc:Agent>
      <dc:title>Matplotlib v3.8.4, https://matplotlib.org/</dc:title>
     </cc:Agent>
    </dc:creator>
   </cc:Work>
  </rdf:RDF>
 </metadata>
 <defs>
  <style type="text/css">*{stroke-linejoin: round; stroke-linecap: butt}</style>
 </defs>
 <g id="figure_1">
  <g id="patch_1">
   <path d="M 0 402.464375 
L 460.186562 402.464375 
L 460.186562 0 
L 0 0 
z
" style="fill: #ffffff"/>
  </g>
  <g id="axes_1">
   <g id="patch_2">
    <path d="M 47.6525 361.036875 
L 427.0925 361.036875 
L 427.0925 28.396875 
L 47.6525 28.396875 
z
" style="fill: #ffffff"/>
   </g>
   <g id="PolyCollection_1">
    <defs>
     <path id="m8559d1a7c4" d="M 118.509961 -56.5475 
L 103.275039 -56.5475 
L 102.958949 -59.551315 
L 102.652561 -62.55513 
L 102.356828 -65.558945 
L 102.072485 -68.562761 
L 101.800036 -71.566576 
L 101.53975 -74.570391 
L 101.291659 -77.574206 
L 101.055568 -80.578021 
L 100.831066 -83.581836 
L 100.617535 -86.585652 
L 100.414181 -89.589467 
L 100.220046 -92.593282 
L 100.034045 -95.597097 
L 99.854986 -98.600912 
L 99.681607 -101.604727 
L 99.512605 -104.608543 
L 99.346669 -107.612358 
L 99.182513 -110.616173 
L 99.018909 -113.619988 
L 98.854716 -116.623803 
L 98.68891 -119.627618 
L 98.520614 -122.631434 
L 98.349122 -125.635249 
L 98.173924 -128.639064 
L 97.994722 -131.642879 
L 97.811451 -134.646694 
L 97.62429 -137.650509 
L 97.433668 -140.654325 
L 97.240272 -143.65814 
L 97.045042 -146.661955 
L 96.849164 -149.66577 
L 96.65406 -152.669585 
L 96.461367 -155.6734 
L 96.272913 -158.677216 
L 96.090689 -161.681031 
L 95.916812 -164.684846 
L 95.753484 -167.688661 
L 95.60295 -170.692476 
L 95.467449 -173.696291 
L 95.349167 -176.700106 
L 95.250183 -179.703922 
L 95.172425 -182.707737 
L 95.117618 -185.711552 
L 95.087243 -188.715367 
L 95.0825 -191.719182 
L 95.104271 -194.722997 
L 95.153103 -197.726813 
L 95.229185 -200.730628 
L 95.332349 -203.734443 
L 95.462067 -206.738258 
L 95.617472 -209.742073 
L 95.797371 -212.745888 
L 96.000287 -215.749704 
L 96.22449 -218.753519 
L 96.468048 -221.757334 
L 96.728874 -224.761149 
L 97.004779 -227.764964 
L 97.293528 -230.768779 
L 97.592894 -233.772595 
L 97.900705 -236.77641 
L 98.214894 -239.780225 
L 98.533534 -242.78404 
L 98.854875 -245.787855 
L 99.177368 -248.79167 
L 99.499677 -251.795486 
L 99.820692 -254.799301 
L 100.139521 -257.803116 
L 100.455486 -260.806931 
L 100.768101 -263.810746 
L 101.077054 -266.814561 
L 101.382177 -269.818377 
L 101.683419 -272.822192 
L 101.98081 -275.826007 
L 102.274435 -278.829822 
L 102.5644 -281.833637 
L 102.85081 -284.837452 
L 103.133742 -287.841267 
L 103.41323 -290.845083 
L 103.68925 -293.848898 
L 103.961718 -296.852713 
L 104.23048 -299.856528 
L 104.495324 -302.860343 
L 104.755981 -305.864158 
L 105.012139 -308.867974 
L 105.263457 -311.871789 
L 105.509581 -314.875604 
L 105.750158 -317.879419 
L 105.984853 -320.883234 
L 106.213364 -323.887049 
L 106.435434 -326.890865 
L 106.65086 -329.89468 
L 106.859501 -332.898495 
L 107.061281 -335.90231 
L 107.256187 -338.906125 
L 107.444272 -341.90994 
L 107.625642 -344.913756 
L 107.800453 -347.917571 
L 107.968896 -350.921386 
L 108.131194 -353.925201 
L 113.653806 -353.925201 
L 113.653806 -353.925201 
L 113.816104 -350.921386 
L 113.984547 -347.917571 
L 114.159358 -344.913756 
L 114.340728 -341.90994 
L 114.528813 -338.906125 
L 114.723719 -335.90231 
L 114.925499 -332.898495 
L 115.13414 -329.89468 
L 115.349566 -326.890865 
L 115.571636 -323.887049 
L 115.800147 -320.883234 
L 116.034842 -317.879419 
L 116.275419 -314.875604 
L 116.521543 -311.871789 
L 116.772861 -308.867974 
L 117.029019 -305.864158 
L 117.289676 -302.860343 
L 117.55452 -299.856528 
L 117.823282 -296.852713 
L 118.09575 -293.848898 
L 118.37177 -290.845083 
L 118.651258 -287.841267 
L 118.93419 -284.837452 
L 119.2206 -281.833637 
L 119.510565 -278.829822 
L 119.80419 -275.826007 
L 120.101581 -272.822192 
L 120.402823 -269.818377 
L 120.707946 -266.814561 
L 121.016899 -263.810746 
L 121.329514 -260.806931 
L 121.645479 -257.803116 
L 121.964308 -254.799301 
L 122.285323 -251.795486 
L 122.607632 -248.79167 
L 122.930125 -245.787855 
L 123.251466 -242.78404 
L 123.570106 -239.780225 
L 123.884295 -236.77641 
L 124.192106 -233.772595 
L 124.491472 -230.768779 
L 124.780221 -227.764964 
L 125.056126 -224.761149 
L 125.316952 -221.757334 
L 125.56051 -218.753519 
L 125.784713 -215.749704 
L 125.987629 -212.745888 
L 126.167528 -209.742073 
L 126.322933 -206.738258 
L 126.452651 -203.734443 
L 126.555815 -200.730628 
L 126.631897 -197.726813 
L 126.680729 -194.722997 
L 126.7025 -191.719182 
L 126.697757 -188.715367 
L 126.667382 -185.711552 
L 126.612575 -182.707737 
L 126.534817 -179.703922 
L 126.435833 -176.700106 
L 126.317551 -173.696291 
L 126.18205 -170.692476 
L 126.031516 -167.688661 
L 125.868188 -164.684846 
L 125.694311 -161.681031 
L 125.512087 -158.677216 
L 125.323633 -155.6734 
L 125.13094 -152.669585 
L 124.935836 -149.66577 
L 124.739958 -146.661955 
L 124.544728 -143.65814 
L 124.351332 -140.654325 
L 124.16071 -137.650509 
L 123.973549 -134.646694 
L 123.790278 -131.642879 
L 123.611076 -128.639064 
L 123.435878 -125.635249 
L 123.264386 -122.631434 
L 123.09609 -119.627618 
L 122.930284 -116.623803 
L 122.766091 -113.619988 
L 122.602487 -110.616173 
L 122.438331 -107.612358 
L 122.272395 -104.608543 
L 122.103393 -101.604727 
L 121.930014 -98.600912 
L 121.750955 -95.597097 
L 121.564954 -92.593282 
L 121.370819 -89.589467 
L 121.167465 -86.585652 
L 120.953934 -83.581836 
L 120.729432 -80.578021 
L 120.493341 -77.574206 
L 120.24525 -74.570391 
L 119.984964 -71.566576 
L 119.712515 -68.562761 
L 119.428172 -65.558945 
L 119.132439 -62.55513 
L 118.826051 -59.551315 
L 118.509961 -56.5475 
z
" style="stroke: #000000; stroke-opacity: 0.65"/>
    </defs>
    <g clip-path="url(#p612516ef5d)">
     <use xlink:href="#m8559d1a7c4" x="0" y="402.464375" style="fill: #425df5; fill-opacity: 0.65; stroke: #000000; stroke-opacity: 0.65"/>
    </g>
   </g>
   <g id="PolyCollection_2">
    <defs>
     <path id="ma0fc95dd34" d="M 243.786808 -176.007589 
L 230.958192 -176.007589 
L 230.567979 -177.855467 
L 230.169712 -179.703345 
L 229.764325 -181.551223 
L 229.35284 -183.399101 
L 228.936377 -185.246979 
L 228.516161 -187.094857 
L 228.093522 -188.942735 
L 227.669901 -190.790613 
L 227.24685 -192.63849 
L 226.826028 -194.486368 
L 226.409194 -196.334246 
L 225.998197 -198.182124 
L 225.594958 -200.030002 
L 225.201452 -201.87788 
L 224.819683 -203.725758 
L 224.451657 -205.573636 
L 224.099346 -207.421513 
L 223.764659 -209.269391 
L 223.449403 -211.117269 
L 223.155247 -212.965147 
L 222.883688 -214.813025 
L 222.636014 -216.660903 
L 222.413279 -218.508781 
L 222.216271 -220.356659 
L 222.045497 -222.204537 
L 221.901166 -224.052414 
L 221.783183 -225.900292 
L 221.691153 -227.74817 
L 221.624383 -229.596048 
L 221.581907 -231.443926 
L 221.5625 -233.291804 
L 221.564715 -235.139682 
L 221.586912 -236.98756 
L 221.627302 -238.835438 
L 221.683981 -240.683315 
L 221.754981 -242.531193 
L 221.838306 -244.379071 
L 221.931973 -246.226949 
L 222.034054 -248.074827 
L 222.142703 -249.922705 
L 222.256189 -251.770583 
L 222.372916 -253.618461 
L 222.491439 -255.466338 
L 222.610478 -257.314216 
L 222.728916 -259.162094 
L 222.845804 -261.009972 
L 222.96035 -262.85785 
L 223.071912 -264.705728 
L 223.179988 -266.553606 
L 223.284196 -268.401484 
L 223.384263 -270.249362 
L 223.480011 -272.097239 
L 223.571344 -273.945117 
L 223.658238 -275.792995 
L 223.740732 -277.640873 
L 223.818924 -279.488751 
L 223.892974 -281.336629 
L 223.9631 -283.184507 
L 224.029587 -285.032385 
L 224.092793 -286.880263 
L 224.153157 -288.72814 
L 224.211206 -290.576018 
L 224.267568 -292.423896 
L 224.322974 -294.271774 
L 224.378264 -296.119652 
L 224.434388 -297.96753 
L 224.492404 -299.815408 
L 224.553471 -301.663286 
L 224.618833 -303.511163 
L 224.689809 -305.359041 
L 224.767765 -307.206919 
L 224.854095 -309.054797 
L 224.95019 -310.902675 
L 225.057405 -312.750553 
L 225.177032 -314.598431 
L 225.310263 -316.446309 
L 225.458161 -318.294187 
L 225.621628 -320.142064 
L 225.801381 -321.989942 
L 225.997929 -323.83782 
L 226.211554 -325.685698 
L 226.442301 -327.533576 
L 226.689967 -329.381454 
L 226.954108 -331.229332 
L 227.234039 -333.07721 
L 227.528849 -334.925088 
L 227.837416 -336.772965 
L 228.15843 -338.620843 
L 228.490416 -340.468721 
L 228.831766 -342.316599 
L 229.180768 -344.164477 
L 229.535636 -346.012355 
L 229.894543 -347.860233 
L 230.255654 -349.708111 
L 230.617151 -351.555988 
L 230.977264 -353.403866 
L 231.334295 -355.251744 
L 231.686635 -357.099622 
L 232.032789 -358.9475 
L 242.712211 -358.9475 
L 242.712211 -358.9475 
L 243.058365 -357.099622 
L 243.410705 -355.251744 
L 243.767736 -353.403866 
L 244.127849 -351.555988 
L 244.489346 -349.708111 
L 244.850457 -347.860233 
L 245.209364 -346.012355 
L 245.564232 -344.164477 
L 245.913234 -342.316599 
L 246.254584 -340.468721 
L 246.58657 -338.620843 
L 246.907584 -336.772965 
L 247.216151 -334.925088 
L 247.510961 -333.07721 
L 247.790892 -331.229332 
L 248.055033 -329.381454 
L 248.302699 -327.533576 
L 248.533446 -325.685698 
L 248.747071 -323.83782 
L 248.943619 -321.989942 
L 249.123372 -320.142064 
L 249.286839 -318.294187 
L 249.434737 -316.446309 
L 249.567968 -314.598431 
L 249.687595 -312.750553 
L 249.79481 -310.902675 
L 249.890905 -309.054797 
L 249.977235 -307.206919 
L 250.055191 -305.359041 
L 250.126167 -303.511163 
L 250.191529 -301.663286 
L 250.252596 -299.815408 
L 250.310612 -297.96753 
L 250.366736 -296.119652 
L 250.422026 -294.271774 
L 250.477432 -292.423896 
L 250.533794 -290.576018 
L 250.591843 -288.72814 
L 250.652207 -286.880263 
L 250.715413 -285.032385 
L 250.7819 -283.184507 
L 250.852026 -281.336629 
L 250.926076 -279.488751 
L 251.004268 -277.640873 
L 251.086762 -275.792995 
L 251.173656 -273.945117 
L 251.264989 -272.097239 
L 251.360737 -270.249362 
L 251.460804 -268.401484 
L 251.565012 -266.553606 
L 251.673088 -264.705728 
L 251.78465 -262.85785 
L 251.899196 -261.009972 
L 252.016084 -259.162094 
L 252.134522 -257.314216 
L 252.253561 -255.466338 
L 252.372084 -253.618461 
L 252.488811 -251.770583 
L 252.602297 -249.922705 
L 252.710946 -248.074827 
L 252.813027 -246.226949 
L 252.906694 -244.379071 
L 252.990019 -242.531193 
L 253.061019 -240.683315 
L 253.117698 -238.835438 
L 253.158088 -236.98756 
L 253.180285 -235.139682 
L 253.1825 -233.291804 
L 253.163093 -231.443926 
L 253.120617 -229.596048 
L 253.053847 -227.74817 
L 252.961817 -225.900292 
L 252.843834 -224.052414 
L 252.699503 -222.204537 
L 252.528729 -220.356659 
L 252.331721 -218.508781 
L 252.108986 -216.660903 
L 251.861312 -214.813025 
L 251.589753 -212.965147 
L 251.295597 -211.117269 
L 250.980341 -209.269391 
L 250.645654 -207.421513 
L 250.293343 -205.573636 
L 249.925317 -203.725758 
L 249.543548 -201.87788 
L 249.150042 -200.030002 
L 248.746803 -198.182124 
L 248.335806 -196.334246 
L 247.918972 -194.486368 
L 247.49815 -192.63849 
L 247.075099 -190.790613 
L 246.651478 -188.942735 
L 246.228839 -187.094857 
L 245.808623 -185.246979 
L 245.39216 -183.399101 
L 244.980675 -181.551223 
L 244.575288 -179.703345 
L 244.177021 -177.855467 
L 243.786808 -176.007589 
z
" style="stroke: #000000; stroke-opacity: 0.65"/>
    </defs>
    <g clip-path="url(#p612516ef5d)">
     <use xlink:href="#ma0fc95dd34" x="0" y="402.464375" style="fill: #f55442; fill-opacity: 0.65; stroke: #000000; stroke-opacity: 0.65"/>
    </g>
   </g>
   <g id="PolyCollection_3">
    <defs>
     <path id="m010c75b298" d="M 372.351356 -126.055116 
L 355.353644 -126.055116 
L 354.925062 -127.845004 
L 354.499562 -129.634893 
L 354.07945 -131.424782 
L 353.667069 -133.214671 
L 353.264773 -135.004559 
L 352.874899 -136.794448 
L 352.499736 -138.584337 
L 352.141493 -140.374225 
L 351.802268 -142.164114 
L 351.484014 -143.954003 
L 351.18851 -145.743892 
L 350.917328 -147.53378 
L 350.671807 -149.323669 
L 350.453027 -151.113558 
L 350.261782 -152.903447 
L 350.098568 -154.693335 
L 349.963563 -156.483224 
L 349.856617 -158.273113 
L 349.777249 -160.063001 
L 349.724648 -161.85289 
L 349.697675 -163.642779 
L 349.694879 -165.432668 
L 349.71451 -167.222556 
L 349.754544 -169.012445 
L 349.812707 -170.802334 
L 349.886511 -172.592223 
L 349.973286 -174.382111 
L 350.070221 -176.172 
L 350.174406 -177.961889 
L 350.282877 -179.751777 
L 350.392656 -181.541666 
L 350.500805 -183.331555 
L 350.604465 -185.121444 
L 350.700903 -186.911332 
L 350.787553 -188.701221 
L 350.862058 -190.49111 
L 350.922305 -192.280999 
L 350.966459 -194.070887 
L 350.992989 -195.860776 
L 351.000695 -197.650665 
L 350.988727 -199.440554 
L 350.956593 -201.230442 
L 350.904174 -203.020331 
L 350.831721 -204.81022 
L 350.739852 -206.600108 
L 350.629545 -208.389997 
L 350.502123 -210.179886 
L 350.359231 -211.969775 
L 350.202814 -213.759663 
L 350.035088 -215.549552 
L 349.858504 -217.339441 
L 349.675714 -219.12933 
L 349.489528 -220.919218 
L 349.302875 -222.709107 
L 349.118757 -224.498996 
L 348.940205 -226.288884 
L 348.770233 -228.078773 
L 348.611796 -229.868662 
L 348.467744 -231.658551 
L 348.340785 -233.448439 
L 348.233442 -235.238328 
L 348.148022 -237.028217 
L 348.086585 -238.818106 
L 348.050915 -240.607994 
L 348.0425 -242.397883 
L 348.062517 -244.187772 
L 348.11182 -245.97766 
L 348.190934 -247.767549 
L 348.300055 -249.557438 
L 348.439057 -251.347327 
L 348.607499 -253.137215 
L 348.804646 -254.927104 
L 349.02948 -256.716993 
L 349.280732 -258.506882 
L 349.556902 -260.29677 
L 349.856289 -262.086659 
L 350.177026 -263.876548 
L 350.517107 -265.666436 
L 350.874421 -267.456325 
L 351.246788 -269.246214 
L 351.631988 -271.036103 
L 352.027792 -272.825991 
L 352.43199 -274.61588 
L 352.842422 -276.405769 
L 353.256997 -278.195658 
L 353.673717 -279.985546 
L 354.090694 -281.775435 
L 354.506168 -283.565324 
L 354.918511 -285.355213 
L 355.326242 -287.145101 
L 355.72803 -288.93499 
L 356.122693 -290.724879 
L 356.509202 -292.514767 
L 356.886673 -294.304656 
L 357.254363 -296.094545 
L 357.611661 -297.884434 
L 357.958083 -299.674322 
L 358.293256 -301.464211 
L 358.616912 -303.2541 
L 369.088088 -303.2541 
L 369.088088 -303.2541 
L 369.411744 -301.464211 
L 369.746917 -299.674322 
L 370.093339 -297.884434 
L 370.450637 -296.094545 
L 370.818327 -294.304656 
L 371.195798 -292.514767 
L 371.582307 -290.724879 
L 371.97697 -288.93499 
L 372.378758 -287.145101 
L 372.786489 -285.355213 
L 373.198832 -283.565324 
L 373.614306 -281.775435 
L 374.031283 -279.985546 
L 374.448003 -278.195658 
L 374.862578 -276.405769 
L 375.27301 -274.61588 
L 375.677208 -272.825991 
L 376.073012 -271.036103 
L 376.458212 -269.246214 
L 376.830579 -267.456325 
L 377.187893 -265.666436 
L 377.527974 -263.876548 
L 377.848711 -262.086659 
L 378.148098 -260.29677 
L 378.424268 -258.506882 
L 378.67552 -256.716993 
L 378.900354 -254.927104 
L 379.097501 -253.137215 
L 379.265943 -251.347327 
L 379.404945 -249.557438 
L 379.514066 -247.767549 
L 379.59318 -245.97766 
L 379.642483 -244.187772 
L 379.6625 -242.397883 
L 379.654085 -240.607994 
L 379.618415 -238.818106 
L 379.556978 -237.028217 
L 379.471558 -235.238328 
L 379.364215 -233.448439 
L 379.237256 -231.658551 
L 379.093204 -229.868662 
L 378.934767 -228.078773 
L 378.764795 -226.288884 
L 378.586243 -224.498996 
L 378.402125 -222.709107 
L 378.215472 -220.919218 
L 378.029286 -219.12933 
L 377.846496 -217.339441 
L 377.669912 -215.549552 
L 377.502186 -213.759663 
L 377.345769 -211.969775 
L 377.202877 -210.179886 
L 377.075455 -208.389997 
L 376.965148 -206.600108 
L 376.873279 -204.81022 
L 376.800826 -203.020331 
L 376.748407 -201.230442 
L 376.716273 -199.440554 
L 376.704305 -197.650665 
L 376.712011 -195.860776 
L 376.738541 -194.070887 
L 376.782695 -192.280999 
L 376.842942 -190.49111 
L 376.917447 -188.701221 
L 377.004097 -186.911332 
L 377.100535 -185.121444 
L 377.204195 -183.331555 
L 377.312344 -181.541666 
L 377.422123 -179.751777 
L 377.530594 -177.961889 
L 377.634779 -176.172 
L 377.731714 -174.382111 
L 377.818489 -172.592223 
L 377.892293 -170.802334 
L 377.950456 -169.012445 
L 377.99049 -167.222556 
L 378.010121 -165.432668 
L 378.007325 -163.642779 
L 377.980352 -161.85289 
L 377.927751 -160.063001 
L 377.848383 -158.273113 
L 377.741437 -156.483224 
L 377.606432 -154.693335 
L 377.443218 -152.903447 
L 377.251973 -151.113558 
L 377.033193 -149.323669 
L 376.787672 -147.53378 
L 376.51649 -145.743892 
L 376.220986 -143.954003 
L 375.902732 -142.164114 
L 375.563507 -140.374225 
L 375.205264 -138.584337 
L 374.830101 -136.794448 
L 374.440227 -135.004559 
L 374.037931 -133.214671 
L 373.62555 -131.424782 
L 373.205438 -129.634893 
L 372.779938 -127.845004 
L 372.351356 -126.055116 
z
" style="stroke: #000000; stroke-opacity: 0.65"/>
    </defs>
    <g clip-path="url(#p612516ef5d)">
     <use xlink:href="#m010c75b298" x="0" y="402.464375" style="fill: #0ec72a; fill-opacity: 0.65; stroke: #000000; stroke-opacity: 0.65"/>
    </g>
   </g>
   <g id="matplotlib.axis_1">
    <g id="xtick_1">
     <g id="line2d_1">
      <defs>
       <path id="m5e01ec349f" d="M 0 0 
L 0 3.5 
" style="stroke: #000000; stroke-width: 0.8"/>
      </defs>
      <g>
       <use xlink:href="#m5e01ec349f" x="110.8925" y="361.036875" style="stroke: #000000; stroke-width: 0.8"/>
      </g>
     </g>
     <g id="text_1">
      <!-- cask -->
      <g transform="translate(99.579219 375.635312) scale(0.1 -0.1)">
       <defs>
        <path id="DejaVuSans-63" d="M 3122 3366 
L 3122 2828 
Q 2878 2963 2633 3030 
Q 2388 3097 2138 3097 
Q 1578 3097 1268 2742 
Q 959 2388 959 1747 
Q 959 1106 1268 751 
Q 1578 397 2138 397 
Q 2388 397 2633 464 
Q 2878 531 3122 666 
L 3122 134 
Q 2881 22 2623 -34 
Q 2366 -91 2075 -91 
Q 1284 -91 818 406 
Q 353 903 353 1747 
Q 353 2603 823 3093 
Q 1294 3584 2113 3584 
Q 2378 3584 2631 3529 
Q 2884 3475 3122 3366 
z
" transform="scale(0.015625)"/>
        <path id="DejaVuSans-61" d="M 2194 1759 
Q 1497 1759 1228 1600 
Q 959 1441 959 1056 
Q 959 750 1161 570 
Q 1363 391 1709 391 
Q 2188 391 2477 730 
Q 2766 1069 2766 1631 
L 2766 1759 
L 2194 1759 
z
M 3341 1997 
L 3341 0 
L 2766 0 
L 2766 531 
Q 2569 213 2275 61 
Q 1981 -91 1556 -91 
Q 1019 -91 701 211 
Q 384 513 384 1019 
Q 384 1609 779 1909 
Q 1175 2209 1959 2209 
L 2766 2209 
L 2766 2266 
Q 2766 2663 2505 2880 
Q 2244 3097 1772 3097 
Q 1472 3097 1187 3025 
Q 903 2953 641 2809 
L 641 3341 
Q 956 3463 1253 3523 
Q 1550 3584 1831 3584 
Q 2591 3584 2966 3190 
Q 3341 2797 3341 1997 
z
" transform="scale(0.015625)"/>
        <path id="DejaVuSans-73" d="M 2834 3397 
L 2834 2853 
Q 2591 2978 2328 3040 
Q 2066 3103 1784 3103 
Q 1356 3103 1142 2972 
Q 928 2841 928 2578 
Q 928 2378 1081 2264 
Q 1234 2150 1697 2047 
L 1894 2003 
Q 2506 1872 2764 1633 
Q 3022 1394 3022 966 
Q 3022 478 2636 193 
Q 2250 -91 1575 -91 
Q 1294 -91 989 -36 
Q 684 19 347 128 
L 347 722 
Q 666 556 975 473 
Q 1284 391 1588 391 
Q 1994 391 2212 530 
Q 2431 669 2431 922 
Q 2431 1156 2273 1281 
Q 2116 1406 1581 1522 
L 1381 1569 
Q 847 1681 609 1914 
Q 372 2147 372 2553 
Q 372 3047 722 3315 
Q 1072 3584 1716 3584 
Q 2034 3584 2315 3537 
Q 2597 3491 2834 3397 
z
" transform="scale(0.015625)"/>
        <path id="DejaVuSans-6b" d="M 581 4863 
L 1159 4863 
L 1159 1991 
L 2875 3500 
L 3609 3500 
L 1753 1863 
L 3688 0 
L 2938 0 
L 1159 1709 
L 1159 0 
L 581 0 
L 581 4863 
z
" transform="scale(0.015625)"/>
       </defs>
       <use xlink:href="#DejaVuSans-63"/>
       <use xlink:href="#DejaVuSans-61" x="54.980469"/>
       <use xlink:href="#DejaVuSans-73" x="116.259766"/>
       <use xlink:href="#DejaVuSans-6b" x="168.359375"/>
      </g>
     </g>
    </g>
    <g id="xtick_2">
     <g id="line2d_2">
      <g>
       <use xlink:href="#m5e01ec349f" x="237.3725" y="361.036875" style="stroke: #000000; stroke-width: 0.8"/>
      </g>
     </g>
     <g id="text_2">
      <!-- ctrl -->
      <g transform="translate(229.218594 375.635312) scale(0.1 -0.1)">
       <defs>
        <path id="DejaVuSans-74" d="M 1172 4494 
L 1172 3500 
L 2356 3500 
L 2356 3053 
L 1172 3053 
L 1172 1153 
Q 1172 725 1289 603 
Q 1406 481 1766 481 
L 2356 481 
L 2356 0 
L 1766 0 
Q 1100 0 847 248 
Q 594 497 594 1153 
L 594 3053 
L 172 3053 
L 172 3500 
L 594 3500 
L 594 4494 
L 1172 4494 
z
" transform="scale(0.015625)"/>
        <path id="DejaVuSans-72" d="M 2631 2963 
Q 2534 3019 2420 3045 
Q 2306 3072 2169 3072 
Q 1681 3072 1420 2755 
Q 1159 2438 1159 1844 
L 1159 0 
L 581 0 
L 581 3500 
L 1159 3500 
L 1159 2956 
Q 1341 3275 1631 3429 
Q 1922 3584 2338 3584 
Q 2397 3584 2469 3576 
Q 2541 3569 2628 3553 
L 2631 2963 
z
" transform="scale(0.015625)"/>
        <path id="DejaVuSans-6c" d="M 603 4863 
L 1178 4863 
L 1178 0 
L 603 0 
L 603 4863 
z
" transform="scale(0.015625)"/>
       </defs>
       <use xlink:href="#DejaVuSans-63"/>
       <use xlink:href="#DejaVuSans-74" x="54.980469"/>
       <use xlink:href="#DejaVuSans-72" x="94.189453"/>
       <use xlink:href="#DejaVuSans-6c" x="135.302734"/>
      </g>
     </g>
    </g>
    <g id="xtick_3">
     <g id="line2d_3">
      <g>
       <use xlink:href="#m5e01ec349f" x="363.8525" y="361.036875" style="stroke: #000000; stroke-width: 0.8"/>
      </g>
     </g>
     <g id="text_3">
      <!-- female -->
      <g transform="translate(346.615781 375.635312) scale(0.1 -0.1)">
       <defs>
        <path id="DejaVuSans-66" d="M 2375 4863 
L 2375 4384 
L 1825 4384 
Q 1516 4384 1395 4259 
Q 1275 4134 1275 3809 
L 1275 3500 
L 2222 3500 
L 2222 3053 
L 1275 3053 
L 1275 0 
L 697 0 
L 697 3053 
L 147 3053 
L 147 3500 
L 697 3500 
L 697 3744 
Q 697 4328 969 4595 
Q 1241 4863 1831 4863 
L 2375 4863 
z
" transform="scale(0.015625)"/>
        <path id="DejaVuSans-65" d="M 3597 1894 
L 3597 1613 
L 953 1613 
Q 991 1019 1311 708 
Q 1631 397 2203 397 
Q 2534 397 2845 478 
Q 3156 559 3463 722 
L 3463 178 
Q 3153 47 2828 -22 
Q 2503 -91 2169 -91 
Q 1331 -91 842 396 
Q 353 884 353 1716 
Q 353 2575 817 3079 
Q 1281 3584 2069 3584 
Q 2775 3584 3186 3129 
Q 3597 2675 3597 1894 
z
M 3022 2063 
Q 3016 2534 2758 2815 
Q 2500 3097 2075 3097 
Q 1594 3097 1305 2825 
Q 1016 2553 972 2059 
L 3022 2063 
z
" transform="scale(0.015625)"/>
        <path id="DejaVuSans-6d" d="M 3328 2828 
Q 3544 3216 3844 3400 
Q 4144 3584 4550 3584 
Q 5097 3584 5394 3201 
Q 5691 2819 5691 2113 
L 5691 0 
L 5113 0 
L 5113 2094 
Q 5113 2597 4934 2840 
Q 4756 3084 4391 3084 
Q 3944 3084 3684 2787 
Q 3425 2491 3425 1978 
L 3425 0 
L 2847 0 
L 2847 2094 
Q 2847 2600 2669 2842 
Q 2491 3084 2119 3084 
Q 1678 3084 1418 2786 
Q 1159 2488 1159 1978 
L 1159 0 
L 581 0 
L 581 3500 
L 1159 3500 
L 1159 2956 
Q 1356 3278 1631 3431 
Q 1906 3584 2284 3584 
Q 2666 3584 2933 3390 
Q 3200 3197 3328 2828 
z
" transform="scale(0.015625)"/>
       </defs>
       <use xlink:href="#DejaVuSans-66"/>
       <use xlink:href="#DejaVuSans-65" x="35.205078"/>
       <use xlink:href="#DejaVuSans-6d" x="96.728516"/>
       <use xlink:href="#DejaVuSans-61" x="194.140625"/>
       <use xlink:href="#DejaVuSans-6c" x="255.419922"/>
       <use xlink:href="#DejaVuSans-65" x="283.203125"/>
      </g>
     </g>
    </g>
    <g id="text_4">
     <!-- Groups -->
     <g transform="translate(212.418594 392.352812) scale(0.14 -0.14)">
      <defs>
       <path id="DejaVuSans-47" d="M 3809 666 
L 3809 1919 
L 2778 1919 
L 2778 2438 
L 4434 2438 
L 4434 434 
Q 4069 175 3628 42 
Q 3188 -91 2688 -91 
Q 1594 -91 976 548 
Q 359 1188 359 2328 
Q 359 3472 976 4111 
Q 1594 4750 2688 4750 
Q 3144 4750 3555 4637 
Q 3966 4525 4313 4306 
L 4313 3634 
Q 3963 3931 3569 4081 
Q 3175 4231 2741 4231 
Q 1884 4231 1454 3753 
Q 1025 3275 1025 2328 
Q 1025 1384 1454 906 
Q 1884 428 2741 428 
Q 3075 428 3337 486 
Q 3600 544 3809 666 
z
" transform="scale(0.015625)"/>
       <path id="DejaVuSans-6f" d="M 1959 3097 
Q 1497 3097 1228 2736 
Q 959 2375 959 1747 
Q 959 1119 1226 758 
Q 1494 397 1959 397 
Q 2419 397 2687 759 
Q 2956 1122 2956 1747 
Q 2956 2369 2687 2733 
Q 2419 3097 1959 3097 
z
M 1959 3584 
Q 2709 3584 3137 3096 
Q 3566 2609 3566 1747 
Q 3566 888 3137 398 
Q 2709 -91 1959 -91 
Q 1206 -91 779 398 
Q 353 888 353 1747 
Q 353 2609 779 3096 
Q 1206 3584 1959 3584 
z
" transform="scale(0.015625)"/>
       <path id="DejaVuSans-75" d="M 544 1381 
L 544 3500 
L 1119 3500 
L 1119 1403 
Q 1119 906 1312 657 
Q 1506 409 1894 409 
Q 2359 409 2629 706 
Q 2900 1003 2900 1516 
L 2900 3500 
L 3475 3500 
L 3475 0 
L 2900 0 
L 2900 538 
Q 2691 219 2414 64 
Q 2138 -91 1772 -91 
Q 1169 -91 856 284 
Q 544 659 544 1381 
z
M 1991 3584 
L 1991 3584 
z
" transform="scale(0.015625)"/>
       <path id="DejaVuSans-70" d="M 1159 525 
L 1159 -1331 
L 581 -1331 
L 581 3500 
L 1159 3500 
L 1159 2969 
Q 1341 3281 1617 3432 
Q 1894 3584 2278 3584 
Q 2916 3584 3314 3078 
Q 3713 2572 3713 1747 
Q 3713 922 3314 415 
Q 2916 -91 2278 -91 
Q 1894 -91 1617 61 
Q 1341 213 1159 525 
z
M 3116 1747 
Q 3116 2381 2855 2742 
Q 2594 3103 2138 3103 
Q 1681 3103 1420 2742 
Q 1159 2381 1159 1747 
Q 1159 1113 1420 752 
Q 1681 391 2138 391 
Q 2594 391 2855 752 
Q 3116 1113 3116 1747 
z
" transform="scale(0.015625)"/>
      </defs>
      <use xlink:href="#DejaVuSans-47"/>
      <use xlink:href="#DejaVuSans-72" x="77.490234"/>
      <use xlink:href="#DejaVuSans-6f" x="116.353516"/>
      <use xlink:href="#DejaVuSans-75" x="177.535156"/>
      <use xlink:href="#DejaVuSans-70" x="240.914062"/>
      <use xlink:href="#DejaVuSans-73" x="304.390625"/>
     </g>
    </g>
   </g>
   <g id="matplotlib.axis_2">
    <g id="ytick_1">
     <g id="line2d_4">
      <path d="M 47.6525 338.212416 
L 427.0925 338.212416 
" clip-path="url(#p612516ef5d)" style="fill: none; stroke-dasharray: 2.96,1.28; stroke-dashoffset: 0; stroke: #b0b0b0; stroke-opacity: 0.3; stroke-width: 0.8"/>
     </g>
     <g id="line2d_5">
      <defs>
       <path id="m24a3effe2b" d="M 0 0 
L -3.5 0 
" style="stroke: #000000; stroke-width: 0.8"/>
      </defs>
      <g>
       <use xlink:href="#m24a3effe2b" x="47.6525" y="338.212416" style="stroke: #000000; stroke-width: 0.8"/>
      </g>
     </g>
     <g id="text_5">
      <!-- 0.2 -->
      <g transform="translate(24.749375 342.011635) scale(0.1 -0.1)">
       <defs>
        <path id="DejaVuSans-30" d="M 2034 4250 
Q 1547 4250 1301 3770 
Q 1056 3291 1056 2328 
Q 1056 1369 1301 889 
Q 1547 409 2034 409 
Q 2525 409 2770 889 
Q 3016 1369 3016 2328 
Q 3016 3291 2770 3770 
Q 2525 4250 2034 4250 
z
M 2034 4750 
Q 2819 4750 3233 4129 
Q 3647 3509 3647 2328 
Q 3647 1150 3233 529 
Q 2819 -91 2034 -91 
Q 1250 -91 836 529 
Q 422 1150 422 2328 
Q 422 3509 836 4129 
Q 1250 4750 2034 4750 
z
" transform="scale(0.015625)"/>
        <path id="DejaVuSans-2e" d="M 684 794 
L 1344 794 
L 1344 0 
L 684 0 
L 684 794 
z
" transform="scale(0.015625)"/>
        <path id="DejaVuSans-32" d="M 1228 531 
L 3431 531 
L 3431 0 
L 469 0 
L 469 531 
Q 828 903 1448 1529 
Q 2069 2156 2228 2338 
Q 2531 2678 2651 2914 
Q 2772 3150 2772 3378 
Q 2772 3750 2511 3984 
Q 2250 4219 1831 4219 
Q 1534 4219 1204 4116 
Q 875 4013 500 3803 
L 500 4441 
Q 881 4594 1212 4672 
Q 1544 4750 1819 4750 
Q 2544 4750 2975 4387 
Q 3406 4025 3406 3419 
Q 3406 3131 3298 2873 
Q 3191 2616 2906 2266 
Q 2828 2175 2409 1742 
Q 1991 1309 1228 531 
z
" transform="scale(0.015625)"/>
       </defs>
       <use xlink:href="#DejaVuSans-30"/>
       <use xlink:href="#DejaVuSans-2e" x="63.623047"/>
       <use xlink:href="#DejaVuSans-32" x="95.410156"/>
      </g>
     </g>
    </g>
    <g id="ytick_2">
     <g id="line2d_6">
      <path d="M 47.6525 286.207321 
L 427.0925 286.207321 
" clip-path="url(#p612516ef5d)" style="fill: none; stroke-dasharray: 2.96,1.28; stroke-dashoffset: 0; stroke: #b0b0b0; stroke-opacity: 0.3; stroke-width: 0.8"/>
     </g>
     <g id="line2d_7">
      <g>
       <use xlink:href="#m24a3effe2b" x="47.6525" y="286.207321" style="stroke: #000000; stroke-width: 0.8"/>
      </g>
     </g>
     <g id="text_6">
      <!-- 0.3 -->
      <g transform="translate(24.749375 290.00654) scale(0.1 -0.1)">
       <defs>
        <path id="DejaVuSans-33" d="M 2597 2516 
Q 3050 2419 3304 2112 
Q 3559 1806 3559 1356 
Q 3559 666 3084 287 
Q 2609 -91 1734 -91 
Q 1441 -91 1130 -33 
Q 819 25 488 141 
L 488 750 
Q 750 597 1062 519 
Q 1375 441 1716 441 
Q 2309 441 2620 675 
Q 2931 909 2931 1356 
Q 2931 1769 2642 2001 
Q 2353 2234 1838 2234 
L 1294 2234 
L 1294 2753 
L 1863 2753 
Q 2328 2753 2575 2939 
Q 2822 3125 2822 3475 
Q 2822 3834 2567 4026 
Q 2313 4219 1838 4219 
Q 1578 4219 1281 4162 
Q 984 4106 628 3988 
L 628 4550 
Q 988 4650 1302 4700 
Q 1616 4750 1894 4750 
Q 2613 4750 3031 4423 
Q 3450 4097 3450 3541 
Q 3450 3153 3228 2886 
Q 3006 2619 2597 2516 
z
" transform="scale(0.015625)"/>
       </defs>
       <use xlink:href="#DejaVuSans-30"/>
       <use xlink:href="#DejaVuSans-2e" x="63.623047"/>
       <use xlink:href="#DejaVuSans-33" x="95.410156"/>
      </g>
     </g>
    </g>
    <g id="ytick_3">
     <g id="line2d_8">
      <path d="M 47.6525 234.202225 
L 427.0925 234.202225 
" clip-path="url(#p612516ef5d)" style="fill: none; stroke-dasharray: 2.96,1.28; stroke-dashoffset: 0; stroke: #b0b0b0; stroke-opacity: 0.3; stroke-width: 0.8"/>
     </g>
     <g id="line2d_9">
      <g>
       <use xlink:href="#m24a3effe2b" x="47.6525" y="234.202225" style="stroke: #000000; stroke-width: 0.8"/>
      </g>
     </g>
     <g id="text_7">
      <!-- 0.4 -->
      <g transform="translate(24.749375 238.001444) scale(0.1 -0.1)">
       <defs>
        <path id="DejaVuSans-34" d="M 2419 4116 
L 825 1625 
L 2419 1625 
L 2419 4116 
z
M 2253 4666 
L 3047 4666 
L 3047 1625 
L 3713 1625 
L 3713 1100 
L 3047 1100 
L 3047 0 
L 2419 0 
L 2419 1100 
L 313 1100 
L 313 1709 
L 2253 4666 
z
" transform="scale(0.015625)"/>
       </defs>
       <use xlink:href="#DejaVuSans-30"/>
       <use xlink:href="#DejaVuSans-2e" x="63.623047"/>
       <use xlink:href="#DejaVuSans-34" x="95.410156"/>
      </g>
     </g>
    </g>
    <g id="ytick_4">
     <g id="line2d_10">
      <path d="M 47.6525 182.19713 
L 427.0925 182.19713 
" clip-path="url(#p612516ef5d)" style="fill: none; stroke-dasharray: 2.96,1.28; stroke-dashoffset: 0; stroke: #b0b0b0; stroke-opacity: 0.3; stroke-width: 0.8"/>
     </g>
     <g id="line2d_11">
      <g>
       <use xlink:href="#m24a3effe2b" x="47.6525" y="182.19713" style="stroke: #000000; stroke-width: 0.8"/>
      </g>
     </g>
     <g id="text_8">
      <!-- 0.5 -->
      <g transform="translate(24.749375 185.996349) scale(0.1 -0.1)">
       <defs>
        <path id="DejaVuSans-35" d="M 691 4666 
L 3169 4666 
L 3169 4134 
L 1269 4134 
L 1269 2991 
Q 1406 3038 1543 3061 
Q 1681 3084 1819 3084 
Q 2600 3084 3056 2656 
Q 3513 2228 3513 1497 
Q 3513 744 3044 326 
Q 2575 -91 1722 -91 
Q 1428 -91 1123 -41 
Q 819 9 494 109 
L 494 744 
Q 775 591 1075 516 
Q 1375 441 1709 441 
Q 2250 441 2565 725 
Q 2881 1009 2881 1497 
Q 2881 1984 2565 2268 
Q 2250 2553 1709 2553 
Q 1456 2553 1204 2497 
Q 953 2441 691 2322 
L 691 4666 
z
" transform="scale(0.015625)"/>
       </defs>
       <use xlink:href="#DejaVuSans-30"/>
       <use xlink:href="#DejaVuSans-2e" x="63.623047"/>
       <use xlink:href="#DejaVuSans-35" x="95.410156"/>
      </g>
     </g>
    </g>
    <g id="ytick_5">
     <g id="line2d_12">
      <path d="M 47.6525 130.192034 
L 427.0925 130.192034 
" clip-path="url(#p612516ef5d)" style="fill: none; stroke-dasharray: 2.96,1.28; stroke-dashoffset: 0; stroke: #b0b0b0; stroke-opacity: 0.3; stroke-width: 0.8"/>
     </g>
     <g id="line2d_13">
      <g>
       <use xlink:href="#m24a3effe2b" x="47.6525" y="130.192034" style="stroke: #000000; stroke-width: 0.8"/>
      </g>
     </g>
     <g id="text_9">
      <!-- 0.6 -->
      <g transform="translate(24.749375 133.991253) scale(0.1 -0.1)">
       <defs>
        <path id="DejaVuSans-36" d="M 2113 2584 
Q 1688 2584 1439 2293 
Q 1191 2003 1191 1497 
Q 1191 994 1439 701 
Q 1688 409 2113 409 
Q 2538 409 2786 701 
Q 3034 994 3034 1497 
Q 3034 2003 2786 2293 
Q 2538 2584 2113 2584 
z
M 3366 4563 
L 3366 3988 
Q 3128 4100 2886 4159 
Q 2644 4219 2406 4219 
Q 1781 4219 1451 3797 
Q 1122 3375 1075 2522 
Q 1259 2794 1537 2939 
Q 1816 3084 2150 3084 
Q 2853 3084 3261 2657 
Q 3669 2231 3669 1497 
Q 3669 778 3244 343 
Q 2819 -91 2113 -91 
Q 1303 -91 875 529 
Q 447 1150 447 2328 
Q 447 3434 972 4092 
Q 1497 4750 2381 4750 
Q 2619 4750 2861 4703 
Q 3103 4656 3366 4563 
z
" transform="scale(0.015625)"/>
       </defs>
       <use xlink:href="#DejaVuSans-30"/>
       <use xlink:href="#DejaVuSans-2e" x="63.623047"/>
       <use xlink:href="#DejaVuSans-36" x="95.410156"/>
      </g>
     </g>
    </g>
    <g id="ytick_6">
     <g id="line2d_14">
      <path d="M 47.6525 78.186939 
L 427.0925 78.186939 
" clip-path="url(#p612516ef5d)" style="fill: none; stroke-dasharray: 2.96,1.28; stroke-dashoffset: 0; stroke: #b0b0b0; stroke-opacity: 0.3; stroke-width: 0.8"/>
     </g>
     <g id="line2d_15">
      <g>
       <use xlink:href="#m24a3effe2b" x="47.6525" y="78.186939" style="stroke: #000000; stroke-width: 0.8"/>
      </g>
     </g>
     <g id="text_10">
      <!-- 0.7 -->
      <g transform="translate(24.749375 81.986157) scale(0.1 -0.1)">
       <defs>
        <path id="DejaVuSans-37" d="M 525 4666 
L 3525 4666 
L 3525 4397 
L 1831 0 
L 1172 0 
L 2766 4134 
L 525 4134 
L 525 4666 
z
" transform="scale(0.015625)"/>
       </defs>
       <use xlink:href="#DejaVuSans-30"/>
       <use xlink:href="#DejaVuSans-2e" x="63.623047"/>
       <use xlink:href="#DejaVuSans-37" x="95.410156"/>
      </g>
     </g>
    </g>
    <g id="text_11">
     <!-- Reversal Good Meal Proportion (ratio) -->
     <g transform="translate(17.837813 326.412031) rotate(-90) scale(0.14 -0.14)">
      <defs>
       <path id="DejaVuSans-52" d="M 2841 2188 
Q 3044 2119 3236 1894 
Q 3428 1669 3622 1275 
L 4263 0 
L 3584 0 
L 2988 1197 
Q 2756 1666 2539 1819 
Q 2322 1972 1947 1972 
L 1259 1972 
L 1259 0 
L 628 0 
L 628 4666 
L 2053 4666 
Q 2853 4666 3247 4331 
Q 3641 3997 3641 3322 
Q 3641 2881 3436 2590 
Q 3231 2300 2841 2188 
z
M 1259 4147 
L 1259 2491 
L 2053 2491 
Q 2509 2491 2742 2702 
Q 2975 2913 2975 3322 
Q 2975 3731 2742 3939 
Q 2509 4147 2053 4147 
L 1259 4147 
z
" transform="scale(0.015625)"/>
       <path id="DejaVuSans-76" d="M 191 3500 
L 800 3500 
L 1894 563 
L 2988 3500 
L 3597 3500 
L 2284 0 
L 1503 0 
L 191 3500 
z
" transform="scale(0.015625)"/>
       <path id="DejaVuSans-20" transform="scale(0.015625)"/>
       <path id="DejaVuSans-64" d="M 2906 2969 
L 2906 4863 
L 3481 4863 
L 3481 0 
L 2906 0 
L 2906 525 
Q 2725 213 2448 61 
Q 2172 -91 1784 -91 
Q 1150 -91 751 415 
Q 353 922 353 1747 
Q 353 2572 751 3078 
Q 1150 3584 1784 3584 
Q 2172 3584 2448 3432 
Q 2725 3281 2906 2969 
z
M 947 1747 
Q 947 1113 1208 752 
Q 1469 391 1925 391 
Q 2381 391 2643 752 
Q 2906 1113 2906 1747 
Q 2906 2381 2643 2742 
Q 2381 3103 1925 3103 
Q 1469 3103 1208 2742 
Q 947 2381 947 1747 
z
" transform="scale(0.015625)"/>
       <path id="DejaVuSans-4d" d="M 628 4666 
L 1569 4666 
L 2759 1491 
L 3956 4666 
L 4897 4666 
L 4897 0 
L 4281 0 
L 4281 4097 
L 3078 897 
L 2444 897 
L 1241 4097 
L 1241 0 
L 628 0 
L 628 4666 
z
" transform="scale(0.015625)"/>
       <path id="DejaVuSans-50" d="M 1259 4147 
L 1259 2394 
L 2053 2394 
Q 2494 2394 2734 2622 
Q 2975 2850 2975 3272 
Q 2975 3691 2734 3919 
Q 2494 4147 2053 4147 
L 1259 4147 
z
M 628 4666 
L 2053 4666 
Q 2838 4666 3239 4311 
Q 3641 3956 3641 3272 
Q 3641 2581 3239 2228 
Q 2838 1875 2053 1875 
L 1259 1875 
L 1259 0 
L 628 0 
L 628 4666 
z
" transform="scale(0.015625)"/>
       <path id="DejaVuSans-69" d="M 603 3500 
L 1178 3500 
L 1178 0 
L 603 0 
L 603 3500 
z
M 603 4863 
L 1178 4863 
L 1178 4134 
L 603 4134 
L 603 4863 
z
" transform="scale(0.015625)"/>
       <path id="DejaVuSans-6e" d="M 3513 2113 
L 3513 0 
L 2938 0 
L 2938 2094 
Q 2938 2591 2744 2837 
Q 2550 3084 2163 3084 
Q 1697 3084 1428 2787 
Q 1159 2491 1159 1978 
L 1159 0 
L 581 0 
L 581 3500 
L 1159 3500 
L 1159 2956 
Q 1366 3272 1645 3428 
Q 1925 3584 2291 3584 
Q 2894 3584 3203 3211 
Q 3513 2838 3513 2113 
z
" transform="scale(0.015625)"/>
       <path id="DejaVuSans-28" d="M 1984 4856 
Q 1566 4138 1362 3434 
Q 1159 2731 1159 2009 
Q 1159 1288 1364 580 
Q 1569 -128 1984 -844 
L 1484 -844 
Q 1016 -109 783 600 
Q 550 1309 550 2009 
Q 550 2706 781 3412 
Q 1013 4119 1484 4856 
L 1984 4856 
z
" transform="scale(0.015625)"/>
       <path id="DejaVuSans-29" d="M 513 4856 
L 1013 4856 
Q 1481 4119 1714 3412 
Q 1947 2706 1947 2009 
Q 1947 1309 1714 600 
Q 1481 -109 1013 -844 
L 513 -844 
Q 928 -128 1133 580 
Q 1338 1288 1338 2009 
Q 1338 2731 1133 3434 
Q 928 4138 513 4856 
z
" transform="scale(0.015625)"/>
      </defs>
      <use xlink:href="#DejaVuSans-52"/>
      <use xlink:href="#DejaVuSans-65" x="64.982422"/>
      <use xlink:href="#DejaVuSans-76" x="126.505859"/>
      <use xlink:href="#DejaVuSans-65" x="185.685547"/>
      <use xlink:href="#DejaVuSans-72" x="247.208984"/>
      <use xlink:href="#DejaVuSans-73" x="288.322266"/>
      <use xlink:href="#DejaVuSans-61" x="340.421875"/>
      <use xlink:href="#DejaVuSans-6c" x="401.701172"/>
      <use xlink:href="#DejaVuSans-20" x="429.484375"/>
      <use xlink:href="#DejaVuSans-47" x="461.271484"/>
      <use xlink:href="#DejaVuSans-6f" x="538.761719"/>
      <use xlink:href="#DejaVuSans-6f" x="599.943359"/>
      <use xlink:href="#DejaVuSans-64" x="661.125"/>
      <use xlink:href="#DejaVuSans-20" x="724.601562"/>
      <use xlink:href="#DejaVuSans-4d" x="756.388672"/>
      <use xlink:href="#DejaVuSans-65" x="842.667969"/>
      <use xlink:href="#DejaVuSans-61" x="904.191406"/>
      <use xlink:href="#DejaVuSans-6c" x="965.470703"/>
      <use xlink:href="#DejaVuSans-20" x="993.253906"/>
      <use xlink:href="#DejaVuSans-50" x="1025.041016"/>
      <use xlink:href="#DejaVuSans-72" x="1083.59375"/>
      <use xlink:href="#DejaVuSans-6f" x="1122.457031"/>
      <use xlink:href="#DejaVuSans-70" x="1183.638672"/>
      <use xlink:href="#DejaVuSans-6f" x="1247.115234"/>
      <use xlink:href="#DejaVuSans-72" x="1308.296875"/>
      <use xlink:href="#DejaVuSans-74" x="1349.410156"/>
      <use xlink:href="#DejaVuSans-69" x="1388.619141"/>
      <use xlink:href="#DejaVuSans-6f" x="1416.402344"/>
      <use xlink:href="#DejaVuSans-6e" x="1477.583984"/>
      <use xlink:href="#DejaVuSans-20" x="1540.962891"/>
      <use xlink:href="#DejaVuSans-28" x="1572.75"/>
      <use xlink:href="#DejaVuSans-72" x="1611.763672"/>
      <use xlink:href="#DejaVuSans-61" x="1652.876953"/>
      <use xlink:href="#DejaVuSans-74" x="1714.15625"/>
      <use xlink:href="#DejaVuSans-69" x="1753.365234"/>
      <use xlink:href="#DejaVuSans-6f" x="1781.148438"/>
      <use xlink:href="#DejaVuSans-29" x="1842.330078"/>
     </g>
    </g>
   </g>
   <g id="patch_3">
    <path d="M 101.4065 280.302801 
L 120.3785 280.302801 
L 120.3785 184.018036 
L 101.4065 184.018036 
L 101.4065 280.302801 
z
" clip-path="url(#p612516ef5d)" style="fill: #ffffff; stroke: #000000; stroke-linejoin: miter"/>
   </g>
   <g id="line2d_16">
    <path d="M 110.8925 280.302801 
L 110.8925 345.916875 
" clip-path="url(#p612516ef5d)" style="fill: none; stroke: #000000; stroke-linecap: square"/>
   </g>
   <g id="line2d_17">
    <path d="M 110.8925 184.018036 
L 110.8925 48.539174 
" clip-path="url(#p612516ef5d)" style="fill: none; stroke: #000000; stroke-linecap: square"/>
   </g>
   <g id="line2d_18">
    <path d="M 106.1495 345.916875 
L 115.6355 345.916875 
" clip-path="url(#p612516ef5d)" style="fill: none; stroke: #000000; stroke-linecap: square"/>
   </g>
   <g id="line2d_19">
    <path d="M 106.1495 48.539174 
L 115.6355 48.539174 
" clip-path="url(#p612516ef5d)" style="fill: none; stroke: #000000; stroke-linecap: square"/>
   </g>
   <g id="patch_4">
    <path d="M 227.8865 179.663052 
L 246.8585 179.663052 
L 246.8585 93.111193 
L 227.8865 93.111193 
L 227.8865 179.663052 
z
" clip-path="url(#p612516ef5d)" style="fill: #ffffff; stroke: #000000; stroke-linejoin: miter"/>
   </g>
   <g id="line2d_20">
    <path d="M 237.3725 179.663052 
L 237.3725 226.456786 
" clip-path="url(#p612516ef5d)" style="fill: none; stroke: #000000; stroke-linecap: square"/>
   </g>
   <g id="line2d_21">
    <path d="M 237.3725 93.111193 
L 237.3725 43.516875 
" clip-path="url(#p612516ef5d)" style="fill: none; stroke: #000000; stroke-linecap: square"/>
   </g>
   <g id="line2d_22">
    <path d="M 232.6295 226.456786 
L 242.1155 226.456786 
" clip-path="url(#p612516ef5d)" style="fill: none; stroke: #000000; stroke-linecap: square"/>
   </g>
   <g id="line2d_23">
    <path d="M 232.6295 43.516875 
L 242.1155 43.516875 
" clip-path="url(#p612516ef5d)" style="fill: none; stroke: #000000; stroke-linecap: square"/>
   </g>
   <g id="patch_5">
    <path d="M 354.3665 237.932642 
L 373.3385 237.932642 
L 373.3385 157.883245 
L 354.3665 157.883245 
L 354.3665 237.932642 
z
" clip-path="url(#p612516ef5d)" style="fill: #ffffff; stroke: #000000; stroke-linejoin: miter"/>
   </g>
   <g id="line2d_24">
    <path d="M 363.8525 237.932642 
L 363.8525 276.409259 
" clip-path="url(#p612516ef5d)" style="fill: none; stroke: #000000; stroke-linecap: square"/>
   </g>
   <g id="line2d_25">
    <path d="M 363.8525 157.883245 
L 363.8525 99.210275 
" clip-path="url(#p612516ef5d)" style="fill: none; stroke: #000000; stroke-linecap: square"/>
   </g>
   <g id="line2d_26">
    <path d="M 359.1095 276.409259 
L 368.5955 276.409259 
" clip-path="url(#p612516ef5d)" style="fill: none; stroke: #000000; stroke-linecap: square"/>
   </g>
   <g id="line2d_27">
    <path d="M 359.1095 99.210275 
L 368.5955 99.210275 
" clip-path="url(#p612516ef5d)" style="fill: none; stroke: #000000; stroke-linecap: square"/>
   </g>
   <g id="line2d_28">
    <path d="M 101.4065 215.621631 
L 120.3785 215.621631 
" clip-path="url(#p612516ef5d)" style="fill: none; stroke: #000000"/>
   </g>
   <g id="line2d_29">
    <path d="M 227.8865 141.224472 
L 246.8585 141.224472 
" clip-path="url(#p612516ef5d)" style="fill: none; stroke: #000000"/>
   </g>
   <g id="line2d_30">
    <path d="M 354.3665 185.569655 
L 373.3385 185.569655 
" clip-path="url(#p612516ef5d)" style="fill: none; stroke: #000000"/>
   </g>
   <g id="patch_6">
    <path d="M 47.6525 361.036875 
L 47.6525 28.396875 
" style="fill: none; stroke: #000000; stroke-width: 0.8; stroke-linejoin: miter; stroke-linecap: square"/>
   </g>
   <g id="patch_7">
    <path d="M 427.0925 361.036875 
L 427.0925 28.396875 
" style="fill: none; stroke: #000000; stroke-width: 0.8; stroke-linejoin: miter; stroke-linecap: square"/>
   </g>
   <g id="patch_8">
    <path d="M 47.6525 361.036875 
L 427.0925 361.036875 
" style="fill: none; stroke: #000000; stroke-width: 0.8; stroke-linejoin: miter; stroke-linecap: square"/>
   </g>
   <g id="patch_9">
    <path d="M 47.6525 28.396875 
L 427.0925 28.396875 
" style="fill: none; stroke: #000000; stroke-width: 0.8; stroke-linejoin: miter; stroke-linecap: square"/>
   </g>
   <g id="PathCollection_1">
    <defs>
     <path id="m7b843d87bb" d="M 0 3 
C 0.795609 3 1.55874 2.683901 2.12132 2.12132 
C 2.683901 1.55874 3 0.795609 3 0 
C 3 -0.795609 2.683901 -1.55874 2.12132 -2.12132 
C 1.55874 -2.683901 0.795609 -3 0 -3 
C -0.795609 -3 -1.55874 -2.683901 -2.12132 -2.12132 
C -2.683901 -1.55874 -3 -0.795609 -3 0 
C -3 0.795609 -2.683901 1.55874 -2.12132 2.12132 
C -1.55874 2.683901 -0.795609 3 0 3 
z
" style="stroke: #000000; stroke-opacity: 0.85; stroke-width: 0.4"/>
    </defs>
    <g clip-path="url(#p612516ef5d)">
     <use xlink:href="#m7b843d87bb" x="112.882347" y="106.356365" style="fill: #425df5; fill-opacity: 0.85; stroke: #000000; stroke-opacity: 0.85; stroke-width: 0.4"/>
     <use xlink:href="#m7b843d87bb" x="115.315357" y="226.591724" style="fill: #425df5; fill-opacity: 0.85; stroke: #000000; stroke-opacity: 0.85; stroke-width: 0.4"/>
     <use xlink:href="#m7b843d87bb" x="115.353496" y="48.539174" style="fill: #425df5; fill-opacity: 0.85; stroke: #000000; stroke-opacity: 0.85; stroke-width: 0.4"/>
     <use xlink:href="#m7b843d87bb" x="114.367887" y="188.752394" style="fill: #425df5; fill-opacity: 0.85; stroke: #000000; stroke-opacity: 0.85; stroke-width: 0.4"/>
     <use xlink:href="#m7b843d87bb" x="114.431013" y="345.916875" style="fill: #425df5; fill-opacity: 0.85; stroke: #000000; stroke-opacity: 0.85; stroke-width: 0.4"/>
     <use xlink:href="#m7b843d87bb" x="105.744187" y="338.212416" style="fill: #425df5; fill-opacity: 0.85; stroke: #000000; stroke-opacity: 0.85; stroke-width: 0.4"/>
     <use xlink:href="#m7b843d87bb" x="110.413949" y="169.814964" style="fill: #425df5; fill-opacity: 0.85; stroke: #000000; stroke-opacity: 0.85; stroke-width: 0.4"/>
     <use xlink:href="#m7b843d87bb" x="106.831656" y="277.602161" style="fill: #425df5; fill-opacity: 0.85; stroke: #000000; stroke-opacity: 0.85; stroke-width: 0.4"/>
     <use xlink:href="#m7b843d87bb" x="107.201174" y="288.404719" style="fill: #425df5; fill-opacity: 0.85; stroke: #000000; stroke-opacity: 0.85; stroke-width: 0.4"/>
     <use xlink:href="#m7b843d87bb" x="108.822869" y="308.270089" style="fill: #425df5; fill-opacity: 0.85; stroke: #000000; stroke-opacity: 0.85; stroke-width: 0.4"/>
     <use xlink:href="#m7b843d87bb" x="108.135449" y="129.27159" style="fill: #425df5; fill-opacity: 0.85; stroke: #000000; stroke-opacity: 0.85; stroke-width: 0.4"/>
     <use xlink:href="#m7b843d87bb" x="112.075352" y="312.209869" style="fill: #425df5; fill-opacity: 0.85; stroke: #000000; stroke-opacity: 0.85; stroke-width: 0.4"/>
     <use xlink:href="#m7b843d87bb" x="106.724051" y="341.567584" style="fill: #425df5; fill-opacity: 0.85; stroke: #000000; stroke-opacity: 0.85; stroke-width: 0.4"/>
     <use xlink:href="#m7b843d87bb" x="113.375311" y="249.874994" style="fill: #425df5; fill-opacity: 0.85; stroke: #000000; stroke-opacity: 0.85; stroke-width: 0.4"/>
     <use xlink:href="#m7b843d87bb" x="107.151651" y="243.551456" style="fill: #425df5; fill-opacity: 0.85; stroke: #000000; stroke-opacity: 0.85; stroke-width: 0.4"/>
     <use xlink:href="#m7b843d87bb" x="113.993532" y="217.335708" style="fill: #425df5; fill-opacity: 0.85; stroke: #000000; stroke-opacity: 0.85; stroke-width: 0.4"/>
     <use xlink:href="#m7b843d87bb" x="106.138401" y="197.492746" style="fill: #425df5; fill-opacity: 0.85; stroke: #000000; stroke-opacity: 0.85; stroke-width: 0.4"/>
     <use xlink:href="#m7b843d87bb" x="111.717955" y="201.654819" style="fill: #425df5; fill-opacity: 0.85; stroke: #000000; stroke-opacity: 0.85; stroke-width: 0.4"/>
     <use xlink:href="#m7b843d87bb" x="106.444568" y="116.180299" style="fill: #425df5; fill-opacity: 0.85; stroke: #000000; stroke-opacity: 0.85; stroke-width: 0.4"/>
     <use xlink:href="#m7b843d87bb" x="107.283257" y="213.907554" style="fill: #425df5; fill-opacity: 0.85; stroke: #000000; stroke-opacity: 0.85; stroke-width: 0.4"/>
     <use xlink:href="#m7b843d87bb" x="115.542112" y="189.626429" style="fill: #425df5; fill-opacity: 0.85; stroke: #000000; stroke-opacity: 0.85; stroke-width: 0.4"/>
     <use xlink:href="#m7b843d87bb" x="106.522159" y="194.433623" style="fill: #425df5; fill-opacity: 0.85; stroke: #000000; stroke-opacity: 0.85; stroke-width: 0.4"/>
     <use xlink:href="#m7b843d87bb" x="109.593357" y="264.7449" style="fill: #425df5; fill-opacity: 0.85; stroke: #000000; stroke-opacity: 0.85; stroke-width: 0.4"/>
     <use xlink:href="#m7b843d87bb" x="107.451296" y="141.40882" style="fill: #425df5; fill-opacity: 0.85; stroke: #000000; stroke-opacity: 0.85; stroke-width: 0.4"/>
    </g>
   </g>
   <g id="PathCollection_2">
    <defs>
     <path id="m236d85b625" d="M 0 3 
C 0.795609 3 1.55874 2.683901 2.12132 2.12132 
C 2.683901 1.55874 3 0.795609 3 0 
C 3 -0.795609 2.683901 -1.55874 2.12132 -2.12132 
C 1.55874 -2.683901 0.795609 -3 0 -3 
C -0.795609 -3 -1.55874 -2.683901 -2.12132 -2.12132 
C -2.683901 -1.55874 -3 -0.795609 -3 0 
C -3 0.795609 -2.683901 1.55874 -2.12132 2.12132 
C -1.55874 2.683901 -0.795609 3 0 3 
z
" style="stroke: #000000; stroke-opacity: 0.85; stroke-width: 0.4"/>
    </defs>
    <g clip-path="url(#p612516ef5d)">
     <use xlink:href="#m236d85b625" x="241.50907" y="217.779564" style="fill: #f55442; fill-opacity: 0.85; stroke: #000000; stroke-opacity: 0.85; stroke-width: 0.4"/>
     <use xlink:href="#m236d85b625" x="241.841496" y="130.192034" style="fill: #f55442; fill-opacity: 0.85; stroke: #000000; stroke-opacity: 0.85; stroke-width: 0.4"/>
     <use xlink:href="#m236d85b625" x="234.528994" y="87.851602" style="fill: #f55442; fill-opacity: 0.85; stroke: #000000; stroke-opacity: 0.85; stroke-width: 0.4"/>
     <use xlink:href="#m236d85b625" x="237.94484" y="88.238344" style="fill: #f55442; fill-opacity: 0.85; stroke: #000000; stroke-opacity: 0.85; stroke-width: 0.4"/>
     <use xlink:href="#m236d85b625" x="233.56055" y="77.589179" style="fill: #f55442; fill-opacity: 0.85; stroke: #000000; stroke-opacity: 0.85; stroke-width: 0.4"/>
     <use xlink:href="#m236d85b625" x="242.560575" y="151.605897" style="fill: #f55442; fill-opacity: 0.85; stroke: #000000; stroke-opacity: 0.85; stroke-width: 0.4"/>
     <use xlink:href="#m236d85b625" x="237.750392" y="180.744473" style="fill: #f55442; fill-opacity: 0.85; stroke: #000000; stroke-opacity: 0.85; stroke-width: 0.4"/>
     <use xlink:href="#m236d85b625" x="237.832882" y="204.03133" style="fill: #f55442; fill-opacity: 0.85; stroke: #000000; stroke-opacity: 0.85; stroke-width: 0.4"/>
     <use xlink:href="#m236d85b625" x="237.640465" y="149.962566" style="fill: #f55442; fill-opacity: 0.85; stroke: #000000; stroke-opacity: 0.85; stroke-width: 0.4"/>
     <use xlink:href="#m236d85b625" x="239.623094" y="170.640442" style="fill: #f55442; fill-opacity: 0.85; stroke: #000000; stroke-opacity: 0.85; stroke-width: 0.4"/>
     <use xlink:href="#m236d85b625" x="238.506513" y="176.418786" style="fill: #f55442; fill-opacity: 0.85; stroke: #000000; stroke-opacity: 0.85; stroke-width: 0.4"/>
     <use xlink:href="#m236d85b625" x="242.173556" y="129.346423" style="fill: #f55442; fill-opacity: 0.85; stroke: #000000; stroke-opacity: 0.85; stroke-width: 0.4"/>
     <use xlink:href="#m236d85b625" x="235.523528" y="226.456786" style="fill: #f55442; fill-opacity: 0.85; stroke: #000000; stroke-opacity: 0.85; stroke-width: 0.4"/>
     <use xlink:href="#m236d85b625" x="232.312252" y="132.486377" style="fill: #f55442; fill-opacity: 0.85; stroke: #000000; stroke-opacity: 0.85; stroke-width: 0.4"/>
     <use xlink:href="#m236d85b625" x="238.745972" y="196.64299" style="fill: #f55442; fill-opacity: 0.85; stroke: #000000; stroke-opacity: 0.85; stroke-width: 0.4"/>
     <use xlink:href="#m236d85b625" x="236.7184" y="182.19713" style="fill: #f55442; fill-opacity: 0.85; stroke: #000000; stroke-opacity: 0.85; stroke-width: 0.4"/>
     <use xlink:href="#m236d85b625" x="238.374817" y="174.31757" style="fill: #f55442; fill-opacity: 0.85; stroke: #000000; stroke-opacity: 0.85; stroke-width: 0.4"/>
     <use xlink:href="#m236d85b625" x="233.451409" y="166.673221" style="fill: #f55442; fill-opacity: 0.85; stroke: #000000; stroke-opacity: 0.85; stroke-width: 0.4"/>
     <use xlink:href="#m236d85b625" x="232.465622" y="109.96783" style="fill: #f55442; fill-opacity: 0.85; stroke: #000000; stroke-opacity: 0.85; stroke-width: 0.4"/>
     <use xlink:href="#m236d85b625" x="238.345212" y="65.904328" style="fill: #f55442; fill-opacity: 0.85; stroke: #000000; stroke-opacity: 0.85; stroke-width: 0.4"/>
     <use xlink:href="#m236d85b625" x="237.712345" y="125.975405" style="fill: #f55442; fill-opacity: 0.85; stroke: #000000; stroke-opacity: 0.85; stroke-width: 0.4"/>
     <use xlink:href="#m236d85b625" x="235.603157" y="80.295253" style="fill: #f55442; fill-opacity: 0.85; stroke: #000000; stroke-opacity: 0.85; stroke-width: 0.4"/>
     <use xlink:href="#m236d85b625" x="242.025162" y="107.729739" style="fill: #f55442; fill-opacity: 0.85; stroke: #000000; stroke-opacity: 0.85; stroke-width: 0.4"/>
     <use xlink:href="#m236d85b625" x="241.733369" y="71.611582" style="fill: #f55442; fill-opacity: 0.85; stroke: #000000; stroke-opacity: 0.85; stroke-width: 0.4"/>
     <use xlink:href="#m236d85b625" x="237.515006" y="43.516875" style="fill: #f55442; fill-opacity: 0.85; stroke: #000000; stroke-opacity: 0.85; stroke-width: 0.4"/>
     <use xlink:href="#m236d85b625" x="240.273989" y="182.19713" style="fill: #f55442; fill-opacity: 0.85; stroke: #000000; stroke-opacity: 0.85; stroke-width: 0.4"/>
    </g>
   </g>
   <g id="PathCollection_3">
    <defs>
     <path id="m4caa8f026a" d="M 0 3 
C 0.795609 3 1.55874 2.683901 2.12132 2.12132 
C 2.683901 1.55874 3 0.795609 3 0 
C 3 -0.795609 2.683901 -1.55874 2.12132 -2.12132 
C 1.55874 -2.683901 0.795609 -3 0 -3 
C -0.795609 -3 -1.55874 -2.683901 -2.12132 -2.12132 
C -2.683901 -1.55874 -3 -0.795609 -3 0 
C -3 0.795609 -2.683901 1.55874 -2.12132 2.12132 
C -1.55874 2.683901 -0.795609 3 0 3 
z
" style="stroke: #000000; stroke-opacity: 0.85; stroke-width: 0.4"/>
    </defs>
    <g clip-path="url(#p612516ef5d)">
     <use xlink:href="#m4caa8f026a" x="364.756167" y="164.055817" style="fill: #0ec72a; fill-opacity: 0.85; stroke: #000000; stroke-opacity: 0.85; stroke-width: 0.4"/>
     <use xlink:href="#m4caa8f026a" x="362.284946" y="240.91256" style="fill: #0ec72a; fill-opacity: 0.85; stroke: #000000; stroke-opacity: 0.85; stroke-width: 0.4"/>
     <use xlink:href="#m4caa8f026a" x="360.043899" y="138.85955" style="fill: #0ec72a; fill-opacity: 0.85; stroke: #000000; stroke-opacity: 0.85; stroke-width: 0.4"/>
     <use xlink:href="#m4caa8f026a" x="368.084972" y="126.24228" style="fill: #0ec72a; fill-opacity: 0.85; stroke: #000000; stroke-opacity: 0.85; stroke-width: 0.4"/>
     <use xlink:href="#m4caa8f026a" x="367.970292" y="236.939336" style="fill: #0ec72a; fill-opacity: 0.85; stroke: #000000; stroke-opacity: 0.85; stroke-width: 0.4"/>
     <use xlink:href="#m4caa8f026a" x="367.921833" y="250.203793" style="fill: #0ec72a; fill-opacity: 0.85; stroke: #000000; stroke-opacity: 0.85; stroke-width: 0.4"/>
     <use xlink:href="#m4caa8f026a" x="369.074654" y="200.007094" style="fill: #0ec72a; fill-opacity: 0.85; stroke: #000000; stroke-opacity: 0.85; stroke-width: 0.4"/>
     <use xlink:href="#m4caa8f026a" x="358.870963" y="250.203793" style="fill: #0ec72a; fill-opacity: 0.85; stroke: #000000; stroke-opacity: 0.85; stroke-width: 0.4"/>
     <use xlink:href="#m4caa8f026a" x="361.217244" y="165.599759" style="fill: #0ec72a; fill-opacity: 0.85; stroke: #000000; stroke-opacity: 0.85; stroke-width: 0.4"/>
     <use xlink:href="#m4caa8f026a" x="367.443436" y="230.951907" style="fill: #0ec72a; fill-opacity: 0.85; stroke: #000000; stroke-opacity: 0.85; stroke-width: 0.4"/>
     <use xlink:href="#m4caa8f026a" x="365.737559" y="161.84731" style="fill: #0ec72a; fill-opacity: 0.85; stroke: #000000; stroke-opacity: 0.85; stroke-width: 0.4"/>
     <use xlink:href="#m4caa8f026a" x="360.513028" y="234.202225" style="fill: #0ec72a; fill-opacity: 0.85; stroke: #000000; stroke-opacity: 0.85; stroke-width: 0.4"/>
     <use xlink:href="#m4caa8f026a" x="367.461914" y="200.961855" style="fill: #0ec72a; fill-opacity: 0.85; stroke: #000000; stroke-opacity: 0.85; stroke-width: 0.4"/>
     <use xlink:href="#m4caa8f026a" x="364.225319" y="276.409259" style="fill: #0ec72a; fill-opacity: 0.85; stroke: #000000; stroke-opacity: 0.85; stroke-width: 0.4"/>
     <use xlink:href="#m4caa8f026a" x="360.556412" y="264.483673" style="fill: #0ec72a; fill-opacity: 0.85; stroke: #000000; stroke-opacity: 0.85; stroke-width: 0.4"/>
     <use xlink:href="#m4caa8f026a" x="360.599834" y="171.132216" style="fill: #0ec72a; fill-opacity: 0.85; stroke: #000000; stroke-opacity: 0.85; stroke-width: 0.4"/>
     <use xlink:href="#m4caa8f026a" x="366.746636" y="142.628035" style="fill: #0ec72a; fill-opacity: 0.85; stroke: #000000; stroke-opacity: 0.85; stroke-width: 0.4"/>
     <use xlink:href="#m4caa8f026a" x="367.076281" y="99.210275" style="fill: #0ec72a; fill-opacity: 0.85; stroke: #000000; stroke-opacity: 0.85; stroke-width: 0.4"/>
     <use xlink:href="#m4caa8f026a" x="359.23785" y="166.277203" style="fill: #0ec72a; fill-opacity: 0.85; stroke: #000000; stroke-opacity: 0.85; stroke-width: 0.4"/>
     <use xlink:href="#m4caa8f026a" x="365.912149" y="145.991051" style="fill: #0ec72a; fill-opacity: 0.85; stroke: #000000; stroke-opacity: 0.85; stroke-width: 0.4"/>
    </g>
   </g>
   <g id="text_12">
    <!-- Reversal Good Meal Proportion Distribution -->
    <g transform="translate(21.758438 22.396875) scale(0.2 -0.2)">
     <defs>
      <path id="DejaVuSans-44" d="M 1259 4147 
L 1259 519 
L 2022 519 
Q 2988 519 3436 956 
Q 3884 1394 3884 2338 
Q 3884 3275 3436 3711 
Q 2988 4147 2022 4147 
L 1259 4147 
z
M 628 4666 
L 1925 4666 
Q 3281 4666 3915 4102 
Q 4550 3538 4550 2338 
Q 4550 1131 3912 565 
Q 3275 0 1925 0 
L 628 0 
L 628 4666 
z
" transform="scale(0.015625)"/>
      <path id="DejaVuSans-62" d="M 3116 1747 
Q 3116 2381 2855 2742 
Q 2594 3103 2138 3103 
Q 1681 3103 1420 2742 
Q 1159 2381 1159 1747 
Q 1159 1113 1420 752 
Q 1681 391 2138 391 
Q 2594 391 2855 752 
Q 3116 1113 3116 1747 
z
M 1159 2969 
Q 1341 3281 1617 3432 
Q 1894 3584 2278 3584 
Q 2916 3584 3314 3078 
Q 3713 2572 3713 1747 
Q 3713 922 3314 415 
Q 2916 -91 2278 -91 
Q 1894 -91 1617 61 
Q 1341 213 1159 525 
L 1159 0 
L 581 0 
L 581 4863 
L 1159 4863 
L 1159 2969 
z
" transform="scale(0.015625)"/>
     </defs>
     <use xlink:href="#DejaVuSans-52"/>
     <use xlink:href="#DejaVuSans-65" x="64.982422"/>
     <use xlink:href="#DejaVuSans-76" x="126.505859"/>
     <use xlink:href="#DejaVuSans-65" x="185.685547"/>
     <use xlink:href="#DejaVuSans-72" x="247.208984"/>
     <use xlink:href="#DejaVuSans-73" x="288.322266"/>
     <use xlink:href="#DejaVuSans-61" x="340.421875"/>
     <use xlink:href="#DejaVuSans-6c" x="401.701172"/>
     <use xlink:href="#DejaVuSans-20" x="429.484375"/>
     <use xlink:href="#DejaVuSans-47" x="461.271484"/>
     <use xlink:href="#DejaVuSans-6f" x="538.761719"/>
     <use xlink:href="#DejaVuSans-6f" x="599.943359"/>
     <use xlink:href="#DejaVuSans-64" x="661.125"/>
     <use xlink:href="#DejaVuSans-20" x="724.601562"/>
     <use xlink:href="#DejaVuSans-4d" x="756.388672"/>
     <use xlink:href="#DejaVuSans-65" x="842.667969"/>
     <use xlink:href="#DejaVuSans-61" x="904.191406"/>
     <use xlink:href="#DejaVuSans-6c" x="965.470703"/>
     <use xlink:href="#DejaVuSans-20" x="993.253906"/>
     <use xlink:href="#DejaVuSans-50" x="1025.041016"/>
     <use xlink:href="#DejaVuSans-72" x="1083.59375"/>
     <use xlink:href="#DejaVuSans-6f" x="1122.457031"/>
     <use xlink:href="#DejaVuSans-70" x="1183.638672"/>
     <use xlink:href="#DejaVuSans-6f" x="1247.115234"/>
     <use xlink:href="#DejaVuSans-72" x="1308.296875"/>
     <use xlink:href="#DejaVuSans-74" x="1349.410156"/>
     <use xlink:href="#DejaVuSans-69" x="1388.619141"/>
     <use xlink:href="#DejaVuSans-6f" x="1416.402344"/>
     <use xlink:href="#DejaVuSans-6e" x="1477.583984"/>
     <use xlink:href="#DejaVuSans-20" x="1540.962891"/>
     <use xlink:href="#DejaVuSans-44" x="1572.75"/>
     <use xlink:href="#DejaVuSans-69" x="1649.751953"/>
     <use xlink:href="#DejaVuSans-73" x="1677.535156"/>
     <use xlink:href="#DejaVuSans-74" x="1729.634766"/>
     <use xlink:href="#DejaVuSans-72" x="1768.84375"/>
     <use xlink:href="#DejaVuSans-69" x="1809.957031"/>
     <use xlink:href="#DejaVuSans-62" x="1837.740234"/>
     <use xlink:href="#DejaVuSans-75" x="1901.216797"/>
     <use xlink:href="#DejaVuSans-74" x="1964.595703"/>
     <use xlink:href="#DejaVuSans-69" x="2003.804688"/>
     <use xlink:href="#DejaVuSans-6f" x="2031.587891"/>
     <use xlink:href="#DejaVuSans-6e" x="2092.769531"/>
    </g>
   </g>
   <g id="legend_1">
    <g id="patch_10">
     <path d="M 292.81625 90.838125 
L 418.6925 90.838125 
Q 421.0925 90.838125 421.0925 88.438125 
L 421.0925 36.796875 
Q 421.0925 34.396875 418.6925 34.396875 
L 292.81625 34.396875 
Q 290.41625 34.396875 290.41625 36.796875 
L 290.41625 88.438125 
Q 290.41625 90.838125 292.81625 90.838125 
z
" style="fill: #ffffff; opacity: 0.8; stroke: #cccccc; stroke-linejoin: miter"/>
    </g>
    <g id="patch_11">
     <path d="M 295.21625 48.315 
L 319.21625 48.315 
L 319.21625 39.915 
L 295.21625 39.915 
z
" style="fill: #425df5; opacity: 0.65; stroke: #425df5; stroke-linejoin: miter"/>
    </g>
    <g id="text_13">
     <!-- cask (n=24) -->
     <g transform="translate(328.81625 48.315) scale(0.12 -0.12)">
      <defs>
       <path id="DejaVuSans-3d" d="M 678 2906 
L 4684 2906 
L 4684 2381 
L 678 2381 
L 678 2906 
z
M 678 1631 
L 4684 1631 
L 4684 1100 
L 678 1100 
L 678 1631 
z
" transform="scale(0.015625)"/>
      </defs>
      <use xlink:href="#DejaVuSans-63"/>
      <use xlink:href="#DejaVuSans-61" x="54.980469"/>
      <use xlink:href="#DejaVuSans-73" x="116.259766"/>
      <use xlink:href="#DejaVuSans-6b" x="168.359375"/>
      <use xlink:href="#DejaVuSans-20" x="226.269531"/>
      <use xlink:href="#DejaVuSans-28" x="258.056641"/>
      <use xlink:href="#DejaVuSans-6e" x="297.070312"/>
      <use xlink:href="#DejaVuSans-3d" x="360.449219"/>
      <use xlink:href="#DejaVuSans-32" x="444.238281"/>
      <use xlink:href="#DejaVuSans-34" x="507.861328"/>
      <use xlink:href="#DejaVuSans-29" x="571.484375"/>
     </g>
    </g>
    <g id="patch_12">
     <path d="M 295.21625 65.92875 
L 319.21625 65.92875 
L 319.21625 57.52875 
L 295.21625 57.52875 
z
" style="fill: #f55442; opacity: 0.65; stroke: #f55442; stroke-linejoin: miter"/>
    </g>
    <g id="text_14">
     <!-- ctrl (n=26) -->
     <g transform="translate(328.81625 65.92875) scale(0.12 -0.12)">
      <use xlink:href="#DejaVuSans-63"/>
      <use xlink:href="#DejaVuSans-74" x="54.980469"/>
      <use xlink:href="#DejaVuSans-72" x="94.189453"/>
      <use xlink:href="#DejaVuSans-6c" x="135.302734"/>
      <use xlink:href="#DejaVuSans-20" x="163.085938"/>
      <use xlink:href="#DejaVuSans-28" x="194.873047"/>
      <use xlink:href="#DejaVuSans-6e" x="233.886719"/>
      <use xlink:href="#DejaVuSans-3d" x="297.265625"/>
      <use xlink:href="#DejaVuSans-32" x="381.054688"/>
      <use xlink:href="#DejaVuSans-36" x="444.677734"/>
      <use xlink:href="#DejaVuSans-29" x="508.300781"/>
     </g>
    </g>
    <g id="patch_13">
     <path d="M 295.21625 83.5425 
L 319.21625 83.5425 
L 319.21625 75.1425 
L 295.21625 75.1425 
z
" style="fill: #0ec72a; opacity: 0.65; stroke: #0ec72a; stroke-linejoin: miter"/>
    </g>
    <g id="text_15">
     <!-- female (n=20) -->
     <g transform="translate(328.81625 83.5425) scale(0.12 -0.12)">
      <use xlink:href="#DejaVuSans-66"/>
      <use xlink:href="#DejaVuSans-65" x="35.205078"/>
      <use xlink:href="#DejaVuSans-6d" x="96.728516"/>
      <use xlink:href="#DejaVuSans-61" x="194.140625"/>
      <use xlink:href="#DejaVuSans-6c" x="255.419922"/>
      <use xlink:href="#DejaVuSans-65" x="283.203125"/>
      <use xlink:href="#DejaVuSans-20" x="344.726562"/>
      <use xlink:href="#DejaVuSans-28" x="376.513672"/>
      <use xlink:href="#DejaVuSans-6e" x="415.527344"/>
      <use xlink:href="#DejaVuSans-3d" x="478.90625"/>
      <use xlink:href="#DejaVuSans-32" x="562.695312"/>
      <use xlink:href="#DejaVuSans-30" x="626.318359"/>
      <use xlink:href="#DejaVuSans-29" x="689.941406"/>
     </g>
    </g>
   </g>
  </g>
 </g>
 <defs>
  <clipPath id="p612516ef5d">
   <rect x="47.6525" y="28.396875" width="379.44" height="332.64"/>
  </clipPath>
 </defs>
</svg>
