<?xml version="1.0" encoding="utf-8" standalone="no"?>
<!DOCTYPE svg PUBLIC "-//W3C//DTD SVG 1.1//EN"
  "http://www.w3.org/Graphics/SVG/1.1/DTD/svg11.dtd">
<svg xmlns:xlink="http://www.w3.org/1999/xlink" width="424.751875pt" height="402.464375pt" viewBox="0 0 424.751875 402.464375" xmlns="http://www.w3.org/2000/svg" version="1.1">
 <metadata>
  <rdf:RDF xmlns:dc="http://purl.org/dc/elements/1.1/" xmlns:cc="http://creativecommons.org/ns#" xmlns:rdf="http://www.w3.org/1999/02/22-rdf-syntax-ns#">
   <cc:Work>
    <dc:type rdf:resource="http://purl.org/dc/dcmitype/StillImage"/>
    <dc:date>2025-10-01T20:37:48.474786</dc:date>
    <dc:format>image/svg+xml</dc:format>
    <dc:creator>
     <cc:Agent>
      <dc:title>Matplotlib v3.8.4, https://matplotlib.org/</dc:title>
     </cc:Agent>
    </dc:creator>
   </cc:Work>
  </rdf:RDF>
 </metadata>
 <defs>
  <style type="text/css">*{stroke-linejoin: round; stroke-linecap: butt}</style>
 </defs>
 <g id="figure_1">
  <g id="patch_1">
   <path d="M 0 402.464375 
L 424.751875 402.464375 
L 424.751875 0 
L 0 0 
z
" style="fill: #ffffff"/>
  </g>
  <g id="axes_1">
   <g id="patch_2">
    <path d="M 38.111875 361.036875 
L 417.551875 361.036875 
L 417.551875 28.396875 
L 38.111875 28.396875 
z
" style="fill: #ffffff"/>
   </g>
   <g id="PolyCollection_1">
    <defs>
     <path id="md01e85efa8" d="M 109.942111 -56.732426 
L 92.761639 -56.732426 
L 92.336592 -58.389751 
L 91.911672 -60.047076 
L 91.487598 -61.704401 
L 91.065116 -63.361726 
L 90.645041 -65.019051 
L 90.228307 -66.676376 
L 89.816007 -68.333701 
L 89.40944 -69.991026 
L 89.010137 -71.648351 
L 88.619889 -73.305676 
L 88.240758 -74.963001 
L 87.875067 -76.620326 
L 87.525389 -78.277651 
L 87.194504 -79.934976 
L 86.885356 -81.592301 
L 86.600985 -83.249626 
L 86.34445 -84.906951 
L 86.118749 -86.564276 
L 85.926724 -88.221601 
L 85.770975 -89.878926 
L 85.653766 -91.536251 
L 85.576945 -93.193576 
L 85.541875 -94.850901 
L 85.54937 -96.508226 
L 85.599658 -98.165551 
L 85.692356 -99.822876 
L 85.826466 -101.480201 
L 86.000392 -103.137526 
L 86.211975 -104.794851 
L 86.458543 -106.452176 
L 86.736985 -108.109501 
L 87.043822 -109.766826 
L 87.375303 -111.42415 
L 87.727496 -113.081475 
L 88.096381 -114.7388 
L 88.477946 -116.396125 
L 88.868272 -118.05345 
L 89.263612 -119.710775 
L 89.660461 -121.3681 
L 90.055609 -123.025425 
L 90.446186 -124.68275 
L 90.82969 -126.340075 
L 91.204005 -127.9974 
L 91.567402 -129.654725 
L 91.918531 -131.31205 
L 92.25641 -132.969375 
L 92.580395 -134.6267 
L 92.890155 -136.284025 
L 93.185633 -137.94135 
L 93.467018 -139.598675 
L 93.734703 -141.256 
L 93.989251 -142.913325 
L 94.231366 -144.57065 
L 94.461853 -146.227975 
L 94.6816 -147.8853 
L 94.891542 -149.542625 
L 95.092643 -151.19995 
L 95.285875 -152.857275 
L 95.472195 -154.5146 
L 95.652532 -156.171925 
L 95.827769 -157.82925 
L 95.998728 -159.486575 
L 96.166158 -161.1439 
L 96.33072 -162.801225 
L 96.49298 -164.45855 
L 96.653393 -166.115875 
L 96.812304 -167.7732 
L 96.969934 -169.430525 
L 97.126383 -171.08785 
L 97.281628 -172.745175 
L 97.435523 -174.4025 
L 97.587815 -176.059825 
L 97.738144 -177.71715 
L 97.886063 -179.374475 
L 98.031054 -181.0318 
L 98.172545 -182.689125 
L 98.309938 -184.34645 
L 98.442625 -186.003774 
L 98.570019 -187.661099 
L 98.691572 -189.318424 
L 98.806803 -190.975749 
L 98.915317 -192.633074 
L 99.016822 -194.290399 
L 99.111146 -195.947724 
L 99.198245 -197.605049 
L 99.278208 -199.262374 
L 99.351264 -200.919699 
L 99.417769 -202.577024 
L 99.478204 -204.234349 
L 99.533158 -205.891674 
L 99.583311 -207.548999 
L 99.629415 -209.206324 
L 99.672269 -210.863649 
L 99.712695 -212.520974 
L 99.751515 -214.178299 
L 99.789523 -215.835624 
L 99.827464 -217.492949 
L 99.866013 -219.150274 
L 99.905756 -220.807599 
L 102.797994 -220.807599 
L 102.797994 -220.807599 
L 102.837737 -219.150274 
L 102.876286 -217.492949 
L 102.914227 -215.835624 
L 102.952235 -214.178299 
L 102.991055 -212.520974 
L 103.031481 -210.863649 
L 103.074335 -209.206324 
L 103.120439 -207.548999 
L 103.170592 -205.891674 
L 103.225546 -204.234349 
L 103.285981 -202.577024 
L 103.352486 -200.919699 
L 103.425542 -199.262374 
L 103.505505 -197.605049 
L 103.592604 -195.947724 
L 103.686928 -194.290399 
L 103.788433 -192.633074 
L 103.896947 -190.975749 
L 104.012178 -189.318424 
L 104.133731 -187.661099 
L 104.261125 -186.003774 
L 104.393812 -184.34645 
L 104.531205 -182.689125 
L 104.672696 -181.0318 
L 104.817687 -179.374475 
L 104.965606 -177.71715 
L 105.115935 -176.059825 
L 105.268227 -174.4025 
L 105.422122 -172.745175 
L 105.577367 -171.08785 
L 105.733816 -169.430525 
L 105.891446 -167.7732 
L 106.050357 -166.115875 
L 106.21077 -164.45855 
L 106.37303 -162.801225 
L 106.537592 -161.1439 
L 106.705022 -159.486575 
L 106.875981 -157.82925 
L 107.051218 -156.171925 
L 107.231555 -154.5146 
L 107.417875 -152.857275 
L 107.611107 -151.19995 
L 107.812208 -149.542625 
L 108.02215 -147.8853 
L 108.241897 -146.227975 
L 108.472384 -144.57065 
L 108.714499 -142.913325 
L 108.969047 -141.256 
L 109.236732 -139.598675 
L 109.518117 -137.94135 
L 109.813595 -136.284025 
L 110.123355 -134.6267 
L 110.44734 -132.969375 
L 110.785219 -131.31205 
L 111.136348 -129.654725 
L 111.499745 -127.9974 
L 111.87406 -126.340075 
L 112.257564 -124.68275 
L 112.648141 -123.025425 
L 113.043289 -121.3681 
L 113.440138 -119.710775 
L 113.835478 -118.05345 
L 114.225804 -116.396125 
L 114.607369 -114.7388 
L 114.976254 -113.081475 
L 115.328447 -111.42415 
L 115.659928 -109.766826 
L 115.966765 -108.109501 
L 116.245207 -106.452176 
L 116.491775 -104.794851 
L 116.703358 -103.137526 
L 116.877284 -101.480201 
L 117.011394 -99.822876 
L 117.104092 -98.165551 
L 117.15438 -96.508226 
L 117.161875 -94.850901 
L 117.126805 -93.193576 
L 117.049984 -91.536251 
L 116.932775 -89.878926 
L 116.777026 -88.221601 
L 116.585001 -86.564276 
L 116.3593 -84.906951 
L 116.102765 -83.249626 
L 115.818394 -81.592301 
L 115.509246 -79.934976 
L 115.178361 -78.277651 
L 114.828683 -76.620326 
L 114.462992 -74.963001 
L 114.083861 -73.305676 
L 113.693613 -71.648351 
L 113.29431 -69.991026 
L 112.887743 -68.333701 
L 112.475443 -66.676376 
L 112.058709 -65.019051 
L 111.638634 -63.361726 
L 111.216152 -61.704401 
L 110.792078 -60.047076 
L 110.367158 -58.389751 
L 109.942111 -56.732426 
z
" style="stroke: #000000; stroke-opacity: 0.65"/>
    </defs>
    <g clip-path="url(#p5404fcd532)">
     <use xlink:href="#md01e85efa8" x="0" y="402.464375" style="fill: #425df5; fill-opacity: 0.65; stroke: #000000; stroke-opacity: 0.65"/>
    </g>
   </g>
   <g id="PolyCollection_2">
    <defs>
     <path id="m53649480c8" d="M 237.955712 -56.5475 
L 217.708038 -56.5475 
L 217.140741 -57.81898 
L 216.587603 -59.09046 
L 216.053085 -60.36194 
L 215.541426 -61.633419 
L 215.056552 -62.904899 
L 214.601985 -64.176379 
L 214.180765 -65.447859 
L 213.795388 -66.719339 
L 213.447749 -67.990819 
L 213.13911 -69.262298 
L 212.870083 -70.533778 
L 212.640634 -71.805258 
L 212.450109 -73.076738 
L 212.297274 -74.348218 
L 212.180381 -75.619698 
L 212.097244 -76.891178 
L 212.045332 -78.162657 
L 212.021875 -79.434137 
L 212.02397 -80.705617 
L 212.048695 -81.977097 
L 212.09322 -83.248577 
L 212.154906 -84.520057 
L 212.231403 -85.791536 
L 212.320726 -87.063016 
L 212.421314 -88.334496 
L 212.532072 -89.605976 
L 212.65239 -90.877456 
L 212.782135 -92.148936 
L 212.921632 -93.420416 
L 213.071608 -94.691895 
L 213.233134 -95.963375 
L 213.407541 -97.234855 
L 213.596325 -98.506335 
L 213.801047 -99.777815 
L 214.023228 -101.049295 
L 214.264248 -102.320774 
L 214.525243 -103.592254 
L 214.807022 -104.863734 
L 215.109985 -106.135214 
L 215.43407 -107.406694 
L 215.778708 -108.678174 
L 216.142803 -109.949654 
L 216.524731 -111.221133 
L 216.922359 -112.492613 
L 217.333084 -113.764093 
L 217.753888 -115.035573 
L 218.181409 -116.307053 
L 218.612025 -117.578533 
L 219.041943 -118.850012 
L 219.467304 -120.121492 
L 219.884276 -121.392972 
L 220.289158 -122.664452 
L 220.678471 -123.935932 
L 221.049051 -125.207412 
L 221.398122 -126.478892 
L 221.723364 -127.750371 
L 222.02296 -129.021851 
L 222.295641 -130.293331 
L 222.540696 -131.564811 
L 222.757982 -132.836291 
L 222.94791 -134.107771 
L 223.111417 -135.37925 
L 223.249926 -136.65073 
L 223.365287 -137.92221 
L 223.459721 -139.19369 
L 223.535739 -140.46517 
L 223.596066 -141.73665 
L 223.643562 -143.00813 
L 223.681135 -144.279609 
L 223.711664 -145.551089 
L 223.737922 -146.822569 
L 223.762507 -148.094049 
L 223.787783 -149.365529 
L 223.815832 -150.637009 
L 223.848412 -151.908488 
L 223.886939 -153.179968 
L 223.932468 -154.451448 
L 223.985699 -155.722928 
L 224.046986 -156.994408 
L 224.116362 -158.265888 
L 224.193572 -159.537368 
L 224.278113 -160.808847 
L 224.369276 -162.080327 
L 224.4662 -163.351807 
L 224.567918 -164.623287 
L 224.673409 -165.894767 
L 224.78164 -167.166247 
L 224.891609 -168.437726 
L 225.00238 -169.709206 
L 225.113113 -170.980686 
L 225.223081 -172.252166 
L 225.331685 -173.523646 
L 225.438459 -174.795126 
L 225.543069 -176.066606 
L 225.645302 -177.338085 
L 225.745056 -178.609565 
L 225.842322 -179.881045 
L 225.937163 -181.152525 
L 226.029696 -182.424005 
L 229.634054 -182.424005 
L 229.634054 -182.424005 
L 229.726587 -181.152525 
L 229.821428 -179.881045 
L 229.918694 -178.609565 
L 230.018448 -177.338085 
L 230.120681 -176.066606 
L 230.225291 -174.795126 
L 230.332065 -173.523646 
L 230.440669 -172.252166 
L 230.550637 -170.980686 
L 230.66137 -169.709206 
L 230.772141 -168.437726 
L 230.88211 -167.166247 
L 230.990341 -165.894767 
L 231.095832 -164.623287 
L 231.19755 -163.351807 
L 231.294474 -162.080327 
L 231.385637 -160.808847 
L 231.470178 -159.537368 
L 231.547388 -158.265888 
L 231.616764 -156.994408 
L 231.678051 -155.722928 
L 231.731282 -154.451448 
L 231.776811 -153.179968 
L 231.815338 -151.908488 
L 231.847918 -150.637009 
L 231.875967 -149.365529 
L 231.901243 -148.094049 
L 231.925828 -146.822569 
L 231.952086 -145.551089 
L 231.982615 -144.279609 
L 232.020188 -143.00813 
L 232.067684 -141.73665 
L 232.128011 -140.46517 
L 232.204029 -139.19369 
L 232.298463 -137.92221 
L 232.413824 -136.65073 
L 232.552333 -135.37925 
L 232.71584 -134.107771 
L 232.905768 -132.836291 
L 233.123054 -131.564811 
L 233.368109 -130.293331 
L 233.64079 -129.021851 
L 233.940386 -127.750371 
L 234.265628 -126.478892 
L 234.614699 -125.207412 
L 234.985279 -123.935932 
L 235.374592 -122.664452 
L 235.779474 -121.392972 
L 236.196446 -120.121492 
L 236.621807 -118.850012 
L 237.051725 -117.578533 
L 237.482341 -116.307053 
L 237.909862 -115.035573 
L 238.330666 -113.764093 
L 238.741391 -112.492613 
L 239.139019 -111.221133 
L 239.520947 -109.949654 
L 239.885042 -108.678174 
L 240.22968 -107.406694 
L 240.553765 -106.135214 
L 240.856728 -104.863734 
L 241.138507 -103.592254 
L 241.399502 -102.320774 
L 241.640522 -101.049295 
L 241.862703 -99.777815 
L 242.067425 -98.506335 
L 242.256209 -97.234855 
L 242.430616 -95.963375 
L 242.592142 -94.691895 
L 242.742118 -93.420416 
L 242.881615 -92.148936 
L 243.01136 -90.877456 
L 243.131678 -89.605976 
L 243.242436 -88.334496 
L 243.343024 -87.063016 
L 243.432347 -85.791536 
L 243.508844 -84.520057 
L 243.57053 -83.248577 
L 243.615055 -81.977097 
L 243.63978 -80.705617 
L 243.641875 -79.434137 
L 243.618418 -78.162657 
L 243.566506 -76.891178 
L 243.483369 -75.619698 
L 243.366476 -74.348218 
L 243.213641 -73.076738 
L 243.023116 -71.805258 
L 242.793667 -70.533778 
L 242.52464 -69.262298 
L 242.216001 -67.990819 
L 241.868362 -66.719339 
L 241.482985 -65.447859 
L 241.061765 -64.176379 
L 240.607198 -62.904899 
L 240.122324 -61.633419 
L 239.610665 -60.36194 
L 239.076147 -59.09046 
L 238.523009 -57.81898 
L 237.955712 -56.5475 
z
" style="stroke: #000000; stroke-opacity: 0.65"/>
    </defs>
    <g clip-path="url(#p5404fcd532)">
     <use xlink:href="#m53649480c8" x="0" y="402.464375" style="fill: #f55442; fill-opacity: 0.65; stroke: #000000; stroke-opacity: 0.65"/>
    </g>
   </g>
   <g id="PolyCollection_3">
    <defs>
     <path id="m6f57ea6348" d="M 364.706801 -74.62974 
L 343.916949 -74.62974 
L 343.319598 -77.501636 
L 342.737233 -80.373533 
L 342.174927 -83.245429 
L 341.63765 -86.117326 
L 341.130193 -88.989223 
L 340.657102 -91.861119 
L 340.222613 -94.733016 
L 339.83059 -97.604912 
L 339.484478 -100.476809 
L 339.187256 -103.348705 
L 338.941396 -106.220602 
L 338.748838 -109.092499 
L 338.61096 -111.964395 
L 338.528567 -114.836292 
L 338.501875 -117.708188 
L 338.530514 -120.580085 
L 338.613528 -123.451981 
L 338.749388 -126.323878 
L 338.936012 -129.195775 
L 339.170789 -132.067671 
L 339.450619 -134.939568 
L 339.771952 -137.811464 
L 340.130843 -140.683361 
L 340.52301 -143.555257 
L 340.943903 -146.427154 
L 341.388776 -149.29905 
L 341.852765 -152.170947 
L 342.330973 -155.042844 
L 342.818552 -157.91474 
L 343.310787 -160.786637 
L 343.803175 -163.658533 
L 344.291503 -166.53043 
L 344.771915 -169.402326 
L 345.240968 -172.274223 
L 345.695683 -175.14612 
L 346.133578 -178.018016 
L 346.55269 -180.889913 
L 346.951582 -183.761809 
L 347.329336 -186.633706 
L 347.685533 -189.505602 
L 348.020223 -192.377499 
L 348.333878 -195.249396 
L 348.627343 -198.121292 
L 348.901777 -200.993189 
L 349.158586 -203.865085 
L 349.39936 -206.736982 
L 349.625804 -209.608878 
L 349.839676 -212.480775 
L 350.042721 -215.352672 
L 350.236622 -218.224568 
L 350.422946 -221.096465 
L 350.603108 -223.968361 
L 350.778335 -226.840258 
L 350.949645 -229.712154 
L 351.117833 -232.584051 
L 351.283467 -235.455948 
L 351.446885 -238.327844 
L 351.608212 -241.199741 
L 351.767372 -244.071637 
L 351.92411 -246.943534 
L 352.078017 -249.81543 
L 352.228555 -252.687327 
L 352.375092 -255.559224 
L 352.516925 -258.43112 
L 352.653312 -261.303017 
L 352.783501 -264.174913 
L 352.906751 -267.04681 
L 353.022355 -269.918706 
L 353.129666 -272.790603 
L 353.228104 -275.6625 
L 353.317177 -278.534396 
L 353.396489 -281.406293 
L 353.465745 -284.278189 
L 353.524763 -287.150086 
L 353.573471 -290.021982 
L 353.61191 -292.893879 
L 353.640236 -295.765775 
L 353.65872 -298.637672 
L 353.667739 -301.509569 
L 353.667781 -304.381465 
L 353.659433 -307.253362 
L 353.643382 -310.125258 
L 353.620404 -312.997155 
L 353.591359 -315.869051 
L 353.557179 -318.740948 
L 353.518858 -321.612845 
L 353.477441 -324.484741 
L 353.434006 -327.356638 
L 353.38965 -330.228534 
L 353.345471 -333.100431 
L 353.302548 -335.972327 
L 353.261924 -338.844224 
L 353.224584 -341.716121 
L 353.191435 -344.588017 
L 353.16329 -347.459914 
L 353.140849 -350.33181 
L 353.124685 -353.203707 
L 353.115234 -356.075603 
L 353.112785 -358.9475 
L 355.510965 -358.9475 
L 355.510965 -358.9475 
L 355.508516 -356.075603 
L 355.499065 -353.203707 
L 355.482901 -350.33181 
L 355.46046 -347.459914 
L 355.432315 -344.588017 
L 355.399166 -341.716121 
L 355.361826 -338.844224 
L 355.321202 -335.972327 
L 355.278279 -333.100431 
L 355.2341 -330.228534 
L 355.189744 -327.356638 
L 355.146309 -324.484741 
L 355.104892 -321.612845 
L 355.066571 -318.740948 
L 355.032391 -315.869051 
L 355.003346 -312.997155 
L 354.980368 -310.125258 
L 354.964317 -307.253362 
L 354.955969 -304.381465 
L 354.956011 -301.509569 
L 354.96503 -298.637672 
L 354.983514 -295.765775 
L 355.01184 -292.893879 
L 355.050279 -290.021982 
L 355.098987 -287.150086 
L 355.158005 -284.278189 
L 355.227261 -281.406293 
L 355.306573 -278.534396 
L 355.395646 -275.6625 
L 355.494084 -272.790603 
L 355.601395 -269.918706 
L 355.716999 -267.04681 
L 355.840249 -264.174913 
L 355.970438 -261.303017 
L 356.106825 -258.43112 
L 356.248658 -255.559224 
L 356.395195 -252.687327 
L 356.545733 -249.81543 
L 356.69964 -246.943534 
L 356.856378 -244.071637 
L 357.015538 -241.199741 
L 357.176865 -238.327844 
L 357.340283 -235.455948 
L 357.505917 -232.584051 
L 357.674105 -229.712154 
L 357.845415 -226.840258 
L 358.020642 -223.968361 
L 358.200804 -221.096465 
L 358.387128 -218.224568 
L 358.581029 -215.352672 
L 358.784074 -212.480775 
L 358.997946 -209.608878 
L 359.22439 -206.736982 
L 359.465164 -203.865085 
L 359.721973 -200.993189 
L 359.996407 -198.121292 
L 360.289872 -195.249396 
L 360.603527 -192.377499 
L 360.938217 -189.505602 
L 361.294414 -186.633706 
L 361.672168 -183.761809 
L 362.07106 -180.889913 
L 362.490172 -178.018016 
L 362.928067 -175.14612 
L 363.382782 -172.274223 
L 363.851835 -169.402326 
L 364.332247 -166.53043 
L 364.820575 -163.658533 
L 365.312963 -160.786637 
L 365.805198 -157.91474 
L 366.292777 -155.042844 
L 366.770985 -152.170947 
L 367.234974 -149.29905 
L 367.679847 -146.427154 
L 368.10074 -143.555257 
L 368.492907 -140.683361 
L 368.851798 -137.811464 
L 369.173131 -134.939568 
L 369.452961 -132.067671 
L 369.687738 -129.195775 
L 369.874362 -126.323878 
L 370.010222 -123.451981 
L 370.093236 -120.580085 
L 370.121875 -117.708188 
L 370.095183 -114.836292 
L 370.01279 -111.964395 
L 369.874912 -109.092499 
L 369.682354 -106.220602 
L 369.436494 -103.348705 
L 369.139272 -100.476809 
L 368.79316 -97.604912 
L 368.401137 -94.733016 
L 367.966648 -91.861119 
L 367.493557 -88.989223 
L 366.9861 -86.117326 
L 366.448823 -83.245429 
L 365.886517 -80.373533 
L 365.304152 -77.501636 
L 364.706801 -74.62974 
z
" style="stroke: #000000; stroke-opacity: 0.65"/>
    </defs>
    <g clip-path="url(#p5404fcd532)">
     <use xlink:href="#m6f57ea6348" x="0" y="402.464375" style="fill: #0ec72a; fill-opacity: 0.65; stroke: #000000; stroke-opacity: 0.65"/>
    </g>
   </g>
   <g id="matplotlib.axis_1">
    <g id="xtick_1">
     <g id="line2d_1">
      <defs>
       <path id="m89b01a9574" d="M 0 0 
L 0 3.5 
" style="stroke: #000000; stroke-width: 0.8"/>
      </defs>
      <g>
       <use xlink:href="#m89b01a9574" x="101.351875" y="361.036875" style="stroke: #000000; stroke-width: 0.8"/>
      </g>
     </g>
     <g id="text_1">
      <!-- cask -->
      <g transform="translate(90.038594 375.635312) scale(0.1 -0.1)">
       <defs>
        <path id="DejaVuSans-63" d="M 3122 3366 
L 3122 2828 
Q 2878 2963 2633 3030 
Q 2388 3097 2138 3097 
Q 1578 3097 1268 2742 
Q 959 2388 959 1747 
Q 959 1106 1268 751 
Q 1578 397 2138 397 
Q 2388 397 2633 464 
Q 2878 531 3122 666 
L 3122 134 
Q 2881 22 2623 -34 
Q 2366 -91 2075 -91 
Q 1284 -91 818 406 
Q 353 903 353 1747 
Q 353 2603 823 3093 
Q 1294 3584 2113 3584 
Q 2378 3584 2631 3529 
Q 2884 3475 3122 3366 
z
" transform="scale(0.015625)"/>
        <path id="DejaVuSans-61" d="M 2194 1759 
Q 1497 1759 1228 1600 
Q 959 1441 959 1056 
Q 959 750 1161 570 
Q 1363 391 1709 391 
Q 2188 391 2477 730 
Q 2766 1069 2766 1631 
L 2766 1759 
L 2194 1759 
z
M 3341 1997 
L 3341 0 
L 2766 0 
L 2766 531 
Q 2569 213 2275 61 
Q 1981 -91 1556 -91 
Q 1019 -91 701 211 
Q 384 513 384 1019 
Q 384 1609 779 1909 
Q 1175 2209 1959 2209 
L 2766 2209 
L 2766 2266 
Q 2766 2663 2505 2880 
Q 2244 3097 1772 3097 
Q 1472 3097 1187 3025 
Q 903 2953 641 2809 
L 641 3341 
Q 956 3463 1253 3523 
Q 1550 3584 1831 3584 
Q 2591 3584 2966 3190 
Q 3341 2797 3341 1997 
z
" transform="scale(0.015625)"/>
        <path id="DejaVuSans-73" d="M 2834 3397 
L 2834 2853 
Q 2591 2978 2328 3040 
Q 2066 3103 1784 3103 
Q 1356 3103 1142 2972 
Q 928 2841 928 2578 
Q 928 2378 1081 2264 
Q 1234 2150 1697 2047 
L 1894 2003 
Q 2506 1872 2764 1633 
Q 3022 1394 3022 966 
Q 3022 478 2636 193 
Q 2250 -91 1575 -91 
Q 1294 -91 989 -36 
Q 684 19 347 128 
L 347 722 
Q 666 556 975 473 
Q 1284 391 1588 391 
Q 1994 391 2212 530 
Q 2431 669 2431 922 
Q 2431 1156 2273 1281 
Q 2116 1406 1581 1522 
L 1381 1569 
Q 847 1681 609 1914 
Q 372 2147 372 2553 
Q 372 3047 722 3315 
Q 1072 3584 1716 3584 
Q 2034 3584 2315 3537 
Q 2597 3491 2834 3397 
z
" transform="scale(0.015625)"/>
        <path id="DejaVuSans-6b" d="M 581 4863 
L 1159 4863 
L 1159 1991 
L 2875 3500 
L 3609 3500 
L 1753 1863 
L 3688 0 
L 2938 0 
L 1159 1709 
L 1159 0 
L 581 0 
L 581 4863 
z
" transform="scale(0.015625)"/>
       </defs>
       <use xlink:href="#DejaVuSans-63"/>
       <use xlink:href="#DejaVuSans-61" x="54.980469"/>
       <use xlink:href="#DejaVuSans-73" x="116.259766"/>
       <use xlink:href="#DejaVuSans-6b" x="168.359375"/>
      </g>
     </g>
    </g>
    <g id="xtick_2">
     <g id="line2d_2">
      <g>
       <use xlink:href="#m89b01a9574" x="227.831875" y="361.036875" style="stroke: #000000; stroke-width: 0.8"/>
      </g>
     </g>
     <g id="text_2">
      <!-- ctrl -->
      <g transform="translate(219.677969 375.635312) scale(0.1 -0.1)">
       <defs>
        <path id="DejaVuSans-74" d="M 1172 4494 
L 1172 3500 
L 2356 3500 
L 2356 3053 
L 1172 3053 
L 1172 1153 
Q 1172 725 1289 603 
Q 1406 481 1766 481 
L 2356 481 
L 2356 0 
L 1766 0 
Q 1100 0 847 248 
Q 594 497 594 1153 
L 594 3053 
L 172 3053 
L 172 3500 
L 594 3500 
L 594 4494 
L 1172 4494 
z
" transform="scale(0.015625)"/>
        <path id="DejaVuSans-72" d="M 2631 2963 
Q 2534 3019 2420 3045 
Q 2306 3072 2169 3072 
Q 1681 3072 1420 2755 
Q 1159 2438 1159 1844 
L 1159 0 
L 581 0 
L 581 3500 
L 1159 3500 
L 1159 2956 
Q 1341 3275 1631 3429 
Q 1922 3584 2338 3584 
Q 2397 3584 2469 3576 
Q 2541 3569 2628 3553 
L 2631 2963 
z
" transform="scale(0.015625)"/>
        <path id="DejaVuSans-6c" d="M 603 4863 
L 1178 4863 
L 1178 0 
L 603 0 
L 603 4863 
z
" transform="scale(0.015625)"/>
       </defs>
       <use xlink:href="#DejaVuSans-63"/>
       <use xlink:href="#DejaVuSans-74" x="54.980469"/>
       <use xlink:href="#DejaVuSans-72" x="94.189453"/>
       <use xlink:href="#DejaVuSans-6c" x="135.302734"/>
      </g>
     </g>
    </g>
    <g id="xtick_3">
     <g id="line2d_3">
      <g>
       <use xlink:href="#m89b01a9574" x="354.311875" y="361.036875" style="stroke: #000000; stroke-width: 0.8"/>
      </g>
     </g>
     <g id="text_3">
      <!-- female -->
      <g transform="translate(337.075156 375.635312) scale(0.1 -0.1)">
       <defs>
        <path id="DejaVuSans-66" d="M 2375 4863 
L 2375 4384 
L 1825 4384 
Q 1516 4384 1395 4259 
Q 1275 4134 1275 3809 
L 1275 3500 
L 2222 3500 
L 2222 3053 
L 1275 3053 
L 1275 0 
L 697 0 
L 697 3053 
L 147 3053 
L 147 3500 
L 697 3500 
L 697 3744 
Q 697 4328 969 4595 
Q 1241 4863 1831 4863 
L 2375 4863 
z
" transform="scale(0.015625)"/>
        <path id="DejaVuSans-65" d="M 3597 1894 
L 3597 1613 
L 953 1613 
Q 991 1019 1311 708 
Q 1631 397 2203 397 
Q 2534 397 2845 478 
Q 3156 559 3463 722 
L 3463 178 
Q 3153 47 2828 -22 
Q 2503 -91 2169 -91 
Q 1331 -91 842 396 
Q 353 884 353 1716 
Q 353 2575 817 3079 
Q 1281 3584 2069 3584 
Q 2775 3584 3186 3129 
Q 3597 2675 3597 1894 
z
M 3022 2063 
Q 3016 2534 2758 2815 
Q 2500 3097 2075 3097 
Q 1594 3097 1305 2825 
Q 1016 2553 972 2059 
L 3022 2063 
z
" transform="scale(0.015625)"/>
        <path id="DejaVuSans-6d" d="M 3328 2828 
Q 3544 3216 3844 3400 
Q 4144 3584 4550 3584 
Q 5097 3584 5394 3201 
Q 5691 2819 5691 2113 
L 5691 0 
L 5113 0 
L 5113 2094 
Q 5113 2597 4934 2840 
Q 4756 3084 4391 3084 
Q 3944 3084 3684 2787 
Q 3425 2491 3425 1978 
L 3425 0 
L 2847 0 
L 2847 2094 
Q 2847 2600 2669 2842 
Q 2491 3084 2119 3084 
Q 1678 3084 1418 2786 
Q 1159 2488 1159 1978 
L 1159 0 
L 581 0 
L 581 3500 
L 1159 3500 
L 1159 2956 
Q 1356 3278 1631 3431 
Q 1906 3584 2284 3584 
Q 2666 3584 2933 3390 
Q 3200 3197 3328 2828 
z
" transform="scale(0.015625)"/>
       </defs>
       <use xlink:href="#DejaVuSans-66"/>
       <use xlink:href="#DejaVuSans-65" x="35.205078"/>
       <use xlink:href="#DejaVuSans-6d" x="96.728516"/>
       <use xlink:href="#DejaVuSans-61" x="194.140625"/>
       <use xlink:href="#DejaVuSans-6c" x="255.419922"/>
       <use xlink:href="#DejaVuSans-65" x="283.203125"/>
      </g>
     </g>
    </g>
    <g id="text_4">
     <!-- Groups -->
     <g transform="translate(202.877969 392.352812) scale(0.14 -0.14)">
      <defs>
       <path id="DejaVuSans-47" d="M 3809 666 
L 3809 1919 
L 2778 1919 
L 2778 2438 
L 4434 2438 
L 4434 434 
Q 4069 175 3628 42 
Q 3188 -91 2688 -91 
Q 1594 -91 976 548 
Q 359 1188 359 2328 
Q 359 3472 976 4111 
Q 1594 4750 2688 4750 
Q 3144 4750 3555 4637 
Q 3966 4525 4313 4306 
L 4313 3634 
Q 3963 3931 3569 4081 
Q 3175 4231 2741 4231 
Q 1884 4231 1454 3753 
Q 1025 3275 1025 2328 
Q 1025 1384 1454 906 
Q 1884 428 2741 428 
Q 3075 428 3337 486 
Q 3600 544 3809 666 
z
" transform="scale(0.015625)"/>
       <path id="DejaVuSans-6f" d="M 1959 3097 
Q 1497 3097 1228 2736 
Q 959 2375 959 1747 
Q 959 1119 1226 758 
Q 1494 397 1959 397 
Q 2419 397 2687 759 
Q 2956 1122 2956 1747 
Q 2956 2369 2687 2733 
Q 2419 3097 1959 3097 
z
M 1959 3584 
Q 2709 3584 3137 3096 
Q 3566 2609 3566 1747 
Q 3566 888 3137 398 
Q 2709 -91 1959 -91 
Q 1206 -91 779 398 
Q 353 888 353 1747 
Q 353 2609 779 3096 
Q 1206 3584 1959 3584 
z
" transform="scale(0.015625)"/>
       <path id="DejaVuSans-75" d="M 544 1381 
L 544 3500 
L 1119 3500 
L 1119 1403 
Q 1119 906 1312 657 
Q 1506 409 1894 409 
Q 2359 409 2629 706 
Q 2900 1003 2900 1516 
L 2900 3500 
L 3475 3500 
L 3475 0 
L 2900 0 
L 2900 538 
Q 2691 219 2414 64 
Q 2138 -91 1772 -91 
Q 1169 -91 856 284 
Q 544 659 544 1381 
z
M 1991 3584 
L 1991 3584 
z
" transform="scale(0.015625)"/>
       <path id="DejaVuSans-70" d="M 1159 525 
L 1159 -1331 
L 581 -1331 
L 581 3500 
L 1159 3500 
L 1159 2969 
Q 1341 3281 1617 3432 
Q 1894 3584 2278 3584 
Q 2916 3584 3314 3078 
Q 3713 2572 3713 1747 
Q 3713 922 3314 415 
Q 2916 -91 2278 -91 
Q 1894 -91 1617 61 
Q 1341 213 1159 525 
z
M 3116 1747 
Q 3116 2381 2855 2742 
Q 2594 3103 2138 3103 
Q 1681 3103 1420 2742 
Q 1159 2381 1159 1747 
Q 1159 1113 1420 752 
Q 1681 391 2138 391 
Q 2594 391 2855 752 
Q 3116 1113 3116 1747 
z
" transform="scale(0.015625)"/>
      </defs>
      <use xlink:href="#DejaVuSans-47"/>
      <use xlink:href="#DejaVuSans-72" x="77.490234"/>
      <use xlink:href="#DejaVuSans-6f" x="116.353516"/>
      <use xlink:href="#DejaVuSans-75" x="177.535156"/>
      <use xlink:href="#DejaVuSans-70" x="240.914062"/>
      <use xlink:href="#DejaVuSans-73" x="304.390625"/>
     </g>
    </g>
   </g>
   <g id="matplotlib.axis_2">
    <g id="ytick_1">
     <g id="line2d_4">
      <path d="M 38.111875 346.75031 
L 417.551875 346.75031 
" clip-path="url(#p5404fcd532)" style="fill: none; stroke-dasharray: 2.96,1.28; stroke-dashoffset: 0; stroke: #b0b0b0; stroke-opacity: 0.3; stroke-width: 0.8"/>
     </g>
     <g id="line2d_5">
      <defs>
       <path id="m73dd3744c9" d="M 0 0 
L -3.5 0 
" style="stroke: #000000; stroke-width: 0.8"/>
      </defs>
      <g>
       <use xlink:href="#m73dd3744c9" x="38.111875" y="346.75031" style="stroke: #000000; stroke-width: 0.8"/>
      </g>
     </g>
     <g id="text_5">
      <!-- 0 -->
      <g transform="translate(24.749375 350.549528) scale(0.1 -0.1)">
       <defs>
        <path id="DejaVuSans-30" d="M 2034 4250 
Q 1547 4250 1301 3770 
Q 1056 3291 1056 2328 
Q 1056 1369 1301 889 
Q 1547 409 2034 409 
Q 2525 409 2770 889 
Q 3016 1369 3016 2328 
Q 3016 3291 2770 3770 
Q 2525 4250 2034 4250 
z
M 2034 4750 
Q 2819 4750 3233 4129 
Q 3647 3509 3647 2328 
Q 3647 1150 3233 529 
Q 2819 -91 2034 -91 
Q 1250 -91 836 529 
Q 422 1150 422 2328 
Q 422 3509 836 4129 
Q 1250 4750 2034 4750 
z
" transform="scale(0.015625)"/>
       </defs>
       <use xlink:href="#DejaVuSans-30"/>
      </g>
     </g>
    </g>
    <g id="ytick_2">
     <g id="line2d_6">
      <path d="M 38.111875 301.152059 
L 417.551875 301.152059 
" clip-path="url(#p5404fcd532)" style="fill: none; stroke-dasharray: 2.96,1.28; stroke-dashoffset: 0; stroke: #b0b0b0; stroke-opacity: 0.3; stroke-width: 0.8"/>
     </g>
     <g id="line2d_7">
      <g>
       <use xlink:href="#m73dd3744c9" x="38.111875" y="301.152059" style="stroke: #000000; stroke-width: 0.8"/>
      </g>
     </g>
     <g id="text_6">
      <!-- 1 -->
      <g transform="translate(24.749375 304.951278) scale(0.1 -0.1)">
       <defs>
        <path id="DejaVuSans-31" d="M 794 531 
L 1825 531 
L 1825 4091 
L 703 3866 
L 703 4441 
L 1819 4666 
L 2450 4666 
L 2450 531 
L 3481 531 
L 3481 0 
L 794 0 
L 794 531 
z
" transform="scale(0.015625)"/>
       </defs>
       <use xlink:href="#DejaVuSans-31"/>
      </g>
     </g>
    </g>
    <g id="ytick_3">
     <g id="line2d_8">
      <path d="M 38.111875 255.553808 
L 417.551875 255.553808 
" clip-path="url(#p5404fcd532)" style="fill: none; stroke-dasharray: 2.96,1.28; stroke-dashoffset: 0; stroke: #b0b0b0; stroke-opacity: 0.3; stroke-width: 0.8"/>
     </g>
     <g id="line2d_9">
      <g>
       <use xlink:href="#m73dd3744c9" x="38.111875" y="255.553808" style="stroke: #000000; stroke-width: 0.8"/>
      </g>
     </g>
     <g id="text_7">
      <!-- 2 -->
      <g transform="translate(24.749375 259.353027) scale(0.1 -0.1)">
       <defs>
        <path id="DejaVuSans-32" d="M 1228 531 
L 3431 531 
L 3431 0 
L 469 0 
L 469 531 
Q 828 903 1448 1529 
Q 2069 2156 2228 2338 
Q 2531 2678 2651 2914 
Q 2772 3150 2772 3378 
Q 2772 3750 2511 3984 
Q 2250 4219 1831 4219 
Q 1534 4219 1204 4116 
Q 875 4013 500 3803 
L 500 4441 
Q 881 4594 1212 4672 
Q 1544 4750 1819 4750 
Q 2544 4750 2975 4387 
Q 3406 4025 3406 3419 
Q 3406 3131 3298 2873 
Q 3191 2616 2906 2266 
Q 2828 2175 2409 1742 
Q 1991 1309 1228 531 
z
" transform="scale(0.015625)"/>
       </defs>
       <use xlink:href="#DejaVuSans-32"/>
      </g>
     </g>
    </g>
    <g id="ytick_4">
     <g id="line2d_10">
      <path d="M 38.111875 209.955557 
L 417.551875 209.955557 
" clip-path="url(#p5404fcd532)" style="fill: none; stroke-dasharray: 2.96,1.28; stroke-dashoffset: 0; stroke: #b0b0b0; stroke-opacity: 0.3; stroke-width: 0.8"/>
     </g>
     <g id="line2d_11">
      <g>
       <use xlink:href="#m73dd3744c9" x="38.111875" y="209.955557" style="stroke: #000000; stroke-width: 0.8"/>
      </g>
     </g>
     <g id="text_8">
      <!-- 3 -->
      <g transform="translate(24.749375 213.754776) scale(0.1 -0.1)">
       <defs>
        <path id="DejaVuSans-33" d="M 2597 2516 
Q 3050 2419 3304 2112 
Q 3559 1806 3559 1356 
Q 3559 666 3084 287 
Q 2609 -91 1734 -91 
Q 1441 -91 1130 -33 
Q 819 25 488 141 
L 488 750 
Q 750 597 1062 519 
Q 1375 441 1716 441 
Q 2309 441 2620 675 
Q 2931 909 2931 1356 
Q 2931 1769 2642 2001 
Q 2353 2234 1838 2234 
L 1294 2234 
L 1294 2753 
L 1863 2753 
Q 2328 2753 2575 2939 
Q 2822 3125 2822 3475 
Q 2822 3834 2567 4026 
Q 2313 4219 1838 4219 
Q 1578 4219 1281 4162 
Q 984 4106 628 3988 
L 628 4550 
Q 988 4650 1302 4700 
Q 1616 4750 1894 4750 
Q 2613 4750 3031 4423 
Q 3450 4097 3450 3541 
Q 3450 3153 3228 2886 
Q 3006 2619 2597 2516 
z
" transform="scale(0.015625)"/>
       </defs>
       <use xlink:href="#DejaVuSans-33"/>
      </g>
     </g>
    </g>
    <g id="ytick_5">
     <g id="line2d_12">
      <path d="M 38.111875 164.357306 
L 417.551875 164.357306 
" clip-path="url(#p5404fcd532)" style="fill: none; stroke-dasharray: 2.96,1.28; stroke-dashoffset: 0; stroke: #b0b0b0; stroke-opacity: 0.3; stroke-width: 0.8"/>
     </g>
     <g id="line2d_13">
      <g>
       <use xlink:href="#m73dd3744c9" x="38.111875" y="164.357306" style="stroke: #000000; stroke-width: 0.8"/>
      </g>
     </g>
     <g id="text_9">
      <!-- 4 -->
      <g transform="translate(24.749375 168.156525) scale(0.1 -0.1)">
       <defs>
        <path id="DejaVuSans-34" d="M 2419 4116 
L 825 1625 
L 2419 1625 
L 2419 4116 
z
M 2253 4666 
L 3047 4666 
L 3047 1625 
L 3713 1625 
L 3713 1100 
L 3047 1100 
L 3047 0 
L 2419 0 
L 2419 1100 
L 313 1100 
L 313 1709 
L 2253 4666 
z
" transform="scale(0.015625)"/>
       </defs>
       <use xlink:href="#DejaVuSans-34"/>
      </g>
     </g>
    </g>
    <g id="ytick_6">
     <g id="line2d_14">
      <path d="M 38.111875 118.759055 
L 417.551875 118.759055 
" clip-path="url(#p5404fcd532)" style="fill: none; stroke-dasharray: 2.96,1.28; stroke-dashoffset: 0; stroke: #b0b0b0; stroke-opacity: 0.3; stroke-width: 0.8"/>
     </g>
     <g id="line2d_15">
      <g>
       <use xlink:href="#m73dd3744c9" x="38.111875" y="118.759055" style="stroke: #000000; stroke-width: 0.8"/>
      </g>
     </g>
     <g id="text_10">
      <!-- 5 -->
      <g transform="translate(24.749375 122.558274) scale(0.1 -0.1)">
       <defs>
        <path id="DejaVuSans-35" d="M 691 4666 
L 3169 4666 
L 3169 4134 
L 1269 4134 
L 1269 2991 
Q 1406 3038 1543 3061 
Q 1681 3084 1819 3084 
Q 2600 3084 3056 2656 
Q 3513 2228 3513 1497 
Q 3513 744 3044 326 
Q 2575 -91 1722 -91 
Q 1428 -91 1123 -41 
Q 819 9 494 109 
L 494 744 
Q 775 591 1075 516 
Q 1375 441 1709 441 
Q 2250 441 2565 725 
Q 2881 1009 2881 1497 
Q 2881 1984 2565 2268 
Q 2250 2553 1709 2553 
Q 1456 2553 1204 2497 
Q 953 2441 691 2322 
L 691 4666 
z
" transform="scale(0.015625)"/>
       </defs>
       <use xlink:href="#DejaVuSans-35"/>
      </g>
     </g>
    </g>
    <g id="ytick_7">
     <g id="line2d_16">
      <path d="M 38.111875 73.160805 
L 417.551875 73.160805 
" clip-path="url(#p5404fcd532)" style="fill: none; stroke-dasharray: 2.96,1.28; stroke-dashoffset: 0; stroke: #b0b0b0; stroke-opacity: 0.3; stroke-width: 0.8"/>
     </g>
     <g id="line2d_17">
      <g>
       <use xlink:href="#m73dd3744c9" x="38.111875" y="73.160805" style="stroke: #000000; stroke-width: 0.8"/>
      </g>
     </g>
     <g id="text_11">
      <!-- 6 -->
      <g transform="translate(24.749375 76.960023) scale(0.1 -0.1)">
       <defs>
        <path id="DejaVuSans-36" d="M 2113 2584 
Q 1688 2584 1439 2293 
Q 1191 2003 1191 1497 
Q 1191 994 1439 701 
Q 1688 409 2113 409 
Q 2538 409 2786 701 
Q 3034 994 3034 1497 
Q 3034 2003 2786 2293 
Q 2538 2584 2113 2584 
z
M 3366 4563 
L 3366 3988 
Q 3128 4100 2886 4159 
Q 2644 4219 2406 4219 
Q 1781 4219 1451 3797 
Q 1122 3375 1075 2522 
Q 1259 2794 1537 2939 
Q 1816 3084 2150 3084 
Q 2853 3084 3261 2657 
Q 3669 2231 3669 1497 
Q 3669 778 3244 343 
Q 2819 -91 2113 -91 
Q 1303 -91 875 529 
Q 447 1150 447 2328 
Q 447 3434 972 4092 
Q 1497 4750 2381 4750 
Q 2619 4750 2861 4703 
Q 3103 4656 3366 4563 
z
" transform="scale(0.015625)"/>
       </defs>
       <use xlink:href="#DejaVuSans-36"/>
      </g>
     </g>
    </g>
    <g id="text_12">
     <!-- Reversal First Meal Time (hours) -->
     <g transform="translate(17.837812 307.262656) rotate(-90) scale(0.14 -0.14)">
      <defs>
       <path id="DejaVuSans-52" d="M 2841 2188 
Q 3044 2119 3236 1894 
Q 3428 1669 3622 1275 
L 4263 0 
L 3584 0 
L 2988 1197 
Q 2756 1666 2539 1819 
Q 2322 1972 1947 1972 
L 1259 1972 
L 1259 0 
L 628 0 
L 628 4666 
L 2053 4666 
Q 2853 4666 3247 4331 
Q 3641 3997 3641 3322 
Q 3641 2881 3436 2590 
Q 3231 2300 2841 2188 
z
M 1259 4147 
L 1259 2491 
L 2053 2491 
Q 2509 2491 2742 2702 
Q 2975 2913 2975 3322 
Q 2975 3731 2742 3939 
Q 2509 4147 2053 4147 
L 1259 4147 
z
" transform="scale(0.015625)"/>
       <path id="DejaVuSans-76" d="M 191 3500 
L 800 3500 
L 1894 563 
L 2988 3500 
L 3597 3500 
L 2284 0 
L 1503 0 
L 191 3500 
z
" transform="scale(0.015625)"/>
       <path id="DejaVuSans-20" transform="scale(0.015625)"/>
       <path id="DejaVuSans-46" d="M 628 4666 
L 3309 4666 
L 3309 4134 
L 1259 4134 
L 1259 2759 
L 3109 2759 
L 3109 2228 
L 1259 2228 
L 1259 0 
L 628 0 
L 628 4666 
z
" transform="scale(0.015625)"/>
       <path id="DejaVuSans-69" d="M 603 3500 
L 1178 3500 
L 1178 0 
L 603 0 
L 603 3500 
z
M 603 4863 
L 1178 4863 
L 1178 4134 
L 603 4134 
L 603 4863 
z
" transform="scale(0.015625)"/>
       <path id="DejaVuSans-4d" d="M 628 4666 
L 1569 4666 
L 2759 1491 
L 3956 4666 
L 4897 4666 
L 4897 0 
L 4281 0 
L 4281 4097 
L 3078 897 
L 2444 897 
L 1241 4097 
L 1241 0 
L 628 0 
L 628 4666 
z
" transform="scale(0.015625)"/>
       <path id="DejaVuSans-54" d="M -19 4666 
L 3928 4666 
L 3928 4134 
L 2272 4134 
L 2272 0 
L 1638 0 
L 1638 4134 
L -19 4134 
L -19 4666 
z
" transform="scale(0.015625)"/>
       <path id="DejaVuSans-28" d="M 1984 4856 
Q 1566 4138 1362 3434 
Q 1159 2731 1159 2009 
Q 1159 1288 1364 580 
Q 1569 -128 1984 -844 
L 1484 -844 
Q 1016 -109 783 600 
Q 550 1309 550 2009 
Q 550 2706 781 3412 
Q 1013 4119 1484 4856 
L 1984 4856 
z
" transform="scale(0.015625)"/>
       <path id="DejaVuSans-68" d="M 3513 2113 
L 3513 0 
L 2938 0 
L 2938 2094 
Q 2938 2591 2744 2837 
Q 2550 3084 2163 3084 
Q 1697 3084 1428 2787 
Q 1159 2491 1159 1978 
L 1159 0 
L 581 0 
L 581 4863 
L 1159 4863 
L 1159 2956 
Q 1366 3272 1645 3428 
Q 1925 3584 2291 3584 
Q 2894 3584 3203 3211 
Q 3513 2838 3513 2113 
z
" transform="scale(0.015625)"/>
       <path id="DejaVuSans-29" d="M 513 4856 
L 1013 4856 
Q 1481 4119 1714 3412 
Q 1947 2706 1947 2009 
Q 1947 1309 1714 600 
Q 1481 -109 1013 -844 
L 513 -844 
Q 928 -128 1133 580 
Q 1338 1288 1338 2009 
Q 1338 2731 1133 3434 
Q 928 4138 513 4856 
z
" transform="scale(0.015625)"/>
      </defs>
      <use xlink:href="#DejaVuSans-52"/>
      <use xlink:href="#DejaVuSans-65" x="64.982422"/>
      <use xlink:href="#DejaVuSans-76" x="126.505859"/>
      <use xlink:href="#DejaVuSans-65" x="185.685547"/>
      <use xlink:href="#DejaVuSans-72" x="247.208984"/>
      <use xlink:href="#DejaVuSans-73" x="288.322266"/>
      <use xlink:href="#DejaVuSans-61" x="340.421875"/>
      <use xlink:href="#DejaVuSans-6c" x="401.701172"/>
      <use xlink:href="#DejaVuSans-20" x="429.484375"/>
      <use xlink:href="#DejaVuSans-46" x="461.271484"/>
      <use xlink:href="#DejaVuSans-69" x="511.541016"/>
      <use xlink:href="#DejaVuSans-72" x="539.324219"/>
      <use xlink:href="#DejaVuSans-73" x="580.4375"/>
      <use xlink:href="#DejaVuSans-74" x="632.537109"/>
      <use xlink:href="#DejaVuSans-20" x="671.746094"/>
      <use xlink:href="#DejaVuSans-4d" x="703.533203"/>
      <use xlink:href="#DejaVuSans-65" x="789.8125"/>
      <use xlink:href="#DejaVuSans-61" x="851.335938"/>
      <use xlink:href="#DejaVuSans-6c" x="912.615234"/>
      <use xlink:href="#DejaVuSans-20" x="940.398438"/>
      <use xlink:href="#DejaVuSans-54" x="972.185547"/>
      <use xlink:href="#DejaVuSans-69" x="1030.144531"/>
      <use xlink:href="#DejaVuSans-6d" x="1057.927734"/>
      <use xlink:href="#DejaVuSans-65" x="1155.339844"/>
      <use xlink:href="#DejaVuSans-20" x="1216.863281"/>
      <use xlink:href="#DejaVuSans-28" x="1248.650391"/>
      <use xlink:href="#DejaVuSans-68" x="1287.664062"/>
      <use xlink:href="#DejaVuSans-6f" x="1351.042969"/>
      <use xlink:href="#DejaVuSans-75" x="1412.224609"/>
      <use xlink:href="#DejaVuSans-72" x="1475.603516"/>
      <use xlink:href="#DejaVuSans-73" x="1516.716797"/>
      <use xlink:href="#DejaVuSans-29" x="1568.816406"/>
     </g>
    </g>
   </g>
   <g id="patch_3">
    <path d="M 91.865875 315.401512 
L 110.837875 315.401512 
L 110.837875 271.200974 
L 91.865875 271.200974 
L 91.865875 315.401512 
z
" clip-path="url(#p5404fcd532)" style="fill: #ffffff; stroke: #000000; stroke-linejoin: miter"/>
   </g>
   <g id="line2d_18">
    <path d="M 101.351875 315.401512 
L 101.351875 345.731949 
" clip-path="url(#p5404fcd532)" style="fill: none; stroke: #000000; stroke-linecap: square"/>
   </g>
   <g id="line2d_19">
    <path d="M 101.351875 271.200974 
L 101.351875 223.622366 
" clip-path="url(#p5404fcd532)" style="fill: none; stroke: #000000; stroke-linecap: square"/>
   </g>
   <g id="line2d_20">
    <path d="M 96.608875 345.731949 
L 106.094875 345.731949 
" clip-path="url(#p5404fcd532)" style="fill: none; stroke: #000000; stroke-linecap: square"/>
   </g>
   <g id="line2d_21">
    <path d="M 96.608875 223.622366 
L 106.094875 223.622366 
" clip-path="url(#p5404fcd532)" style="fill: none; stroke: #000000; stroke-linecap: square"/>
   </g>
   <g id="patch_4">
    <path d="M 218.345875 329.428041 
L 237.317875 329.428041 
L 237.317875 294.984895 
L 218.345875 294.984895 
L 218.345875 329.428041 
z
" clip-path="url(#p5404fcd532)" style="fill: #ffffff; stroke: #000000; stroke-linejoin: miter"/>
   </g>
   <g id="line2d_22">
    <path d="M 227.831875 329.428041 
L 227.831875 345.916875 
" clip-path="url(#p5404fcd532)" style="fill: none; stroke: #000000; stroke-linecap: square"/>
   </g>
   <g id="line2d_23">
    <path d="M 227.831875 294.984895 
L 227.831875 248.622874 
" clip-path="url(#p5404fcd532)" style="fill: none; stroke: #000000; stroke-linecap: square"/>
   </g>
   <g id="line2d_24">
    <path d="M 223.088875 345.916875 
L 232.574875 345.916875 
" clip-path="url(#p5404fcd532)" style="fill: none; stroke: #000000; stroke-linecap: square"/>
   </g>
   <g id="line2d_25">
    <path d="M 223.088875 248.622874 
L 232.574875 248.622874 
" clip-path="url(#p5404fcd532)" style="fill: none; stroke: #000000; stroke-linecap: square"/>
   </g>
   <g id="patch_5">
    <path d="M 344.825875 303.408539 
L 363.797875 303.408539 
L 363.797875 253.676047 
L 344.825875 253.676047 
L 344.825875 303.408539 
z
" clip-path="url(#p5404fcd532)" style="fill: #ffffff; stroke: #000000; stroke-linejoin: miter"/>
   </g>
   <g id="line2d_26">
    <path d="M 354.311875 303.408539 
L 354.311875 327.834635 
" clip-path="url(#p5404fcd532)" style="fill: none; stroke: #000000; stroke-linecap: square"/>
   </g>
   <g id="line2d_27">
    <path d="M 354.311875 253.676047 
L 354.311875 188.709305 
" clip-path="url(#p5404fcd532)" style="fill: none; stroke: #000000; stroke-linecap: square"/>
   </g>
   <g id="line2d_28">
    <path d="M 349.568875 327.834635 
L 359.054875 327.834635 
" clip-path="url(#p5404fcd532)" style="fill: none; stroke: #000000; stroke-linecap: square"/>
   </g>
   <g id="line2d_29">
    <path d="M 349.568875 188.709305 
L 359.054875 188.709305 
" clip-path="url(#p5404fcd532)" style="fill: none; stroke: #000000; stroke-linecap: square"/>
   </g>
   <g id="line2d_30">
    <path d="M 91.865875 304.815118 
L 110.837875 304.815118 
" clip-path="url(#p5404fcd532)" style="fill: none; stroke: #000000"/>
   </g>
   <g id="line2d_31">
    <path d="M 218.345875 305.02791 
L 237.317875 305.02791 
" clip-path="url(#p5404fcd532)" style="fill: none; stroke: #000000"/>
   </g>
   <g id="line2d_32">
    <path d="M 344.825875 271.232007 
L 363.797875 271.232007 
" clip-path="url(#p5404fcd532)" style="fill: none; stroke: #000000"/>
   </g>
   <g id="patch_6">
    <path d="M 38.111875 361.036875 
L 38.111875 28.396875 
" style="fill: none; stroke: #000000; stroke-width: 0.8; stroke-linejoin: miter; stroke-linecap: square"/>
   </g>
   <g id="patch_7">
    <path d="M 417.551875 361.036875 
L 417.551875 28.396875 
" style="fill: none; stroke: #000000; stroke-width: 0.8; stroke-linejoin: miter; stroke-linecap: square"/>
   </g>
   <g id="patch_8">
    <path d="M 38.111875 361.036875 
L 417.551875 361.036875 
" style="fill: none; stroke: #000000; stroke-width: 0.8; stroke-linejoin: miter; stroke-linecap: square"/>
   </g>
   <g id="patch_9">
    <path d="M 38.111875 28.396875 
L 417.551875 28.396875 
" style="fill: none; stroke: #000000; stroke-width: 0.8; stroke-linejoin: miter; stroke-linecap: square"/>
   </g>
   <g id="PathCollection_1">
    <defs>
     <path id="mc5f9f370e5" d="M 0 3 
C 0.795609 3 1.55874 2.683901 2.12132 2.12132 
C 2.683901 1.55874 3 0.795609 3 0 
C 3 -0.795609 2.683901 -1.55874 2.12132 -2.12132 
C 1.55874 -2.683901 0.795609 -3 0 -3 
C -0.795609 -3 -1.55874 -2.683901 -2.12132 -2.12132 
C -2.683901 -1.55874 -3 -0.795609 -3 0 
C -3 0.795609 -2.683901 1.55874 -2.12132 2.12132 
C -1.55874 2.683901 -0.795609 3 0 3 
z
" style="stroke: #000000; stroke-opacity: 0.85; stroke-width: 0.4"/>
    </defs>
    <g clip-path="url(#p5404fcd532)">
     <use xlink:href="#mc5f9f370e5" x="101.422659" y="324.460365" style="fill: #425df5; fill-opacity: 0.85; stroke: #000000; stroke-opacity: 0.85; stroke-width: 0.4"/>
     <use xlink:href="#mc5f9f370e5" x="102.529198" y="312.381895" style="fill: #425df5; fill-opacity: 0.85; stroke: #000000; stroke-opacity: 0.85; stroke-width: 0.4"/>
     <use xlink:href="#mc5f9f370e5" x="103.345049" y="304.278072" style="fill: #425df5; fill-opacity: 0.85; stroke: #000000; stroke-opacity: 0.85; stroke-width: 0.4"/>
     <use xlink:href="#mc5f9f370e5" x="100.204804" y="306.948103" style="fill: #425df5; fill-opacity: 0.85; stroke: #000000; stroke-opacity: 0.85; stroke-width: 0.4"/>
     <use xlink:href="#mc5f9f370e5" x="100.622398" y="343.502701" style="fill: #425df5; fill-opacity: 0.85; stroke: #000000; stroke-opacity: 0.85; stroke-width: 0.4"/>
     <use xlink:href="#mc5f9f370e5" x="106.407189" y="305.815747" style="fill: #425df5; fill-opacity: 0.85; stroke: #000000; stroke-opacity: 0.85; stroke-width: 0.4"/>
     <use xlink:href="#mc5f9f370e5" x="96.356391" y="299.171068" style="fill: #425df5; fill-opacity: 0.85; stroke: #000000; stroke-opacity: 0.85; stroke-width: 0.4"/>
     <use xlink:href="#mc5f9f370e5" x="105.965177" y="236.349345" style="fill: #425df5; fill-opacity: 0.85; stroke: #000000; stroke-opacity: 0.85; stroke-width: 0.4"/>
     <use xlink:href="#mc5f9f370e5" x="102.38715" y="305.352164" style="fill: #425df5; fill-opacity: 0.85; stroke: #000000; stroke-opacity: 0.85; stroke-width: 0.4"/>
     <use xlink:href="#mc5f9f370e5" x="96.968423" y="294.190726" style="fill: #425df5; fill-opacity: 0.85; stroke: #000000; stroke-opacity: 0.85; stroke-width: 0.4"/>
     <use xlink:href="#mc5f9f370e5" x="99.227243" y="310.991148" style="fill: #425df5; fill-opacity: 0.85; stroke: #000000; stroke-opacity: 0.85; stroke-width: 0.4"/>
     <use xlink:href="#mc5f9f370e5" x="99.682336" y="345.731949" style="fill: #425df5; fill-opacity: 0.85; stroke: #000000; stroke-opacity: 0.85; stroke-width: 0.4"/>
     <use xlink:href="#mc5f9f370e5" x="98.290997" y="285.815847" style="fill: #425df5; fill-opacity: 0.85; stroke: #000000; stroke-opacity: 0.85; stroke-width: 0.4"/>
     <use xlink:href="#mc5f9f370e5" x="103.461695" y="345.460892" style="fill: #425df5; fill-opacity: 0.85; stroke: #000000; stroke-opacity: 0.85; stroke-width: 0.4"/>
     <use xlink:href="#mc5f9f370e5" x="105.273593" y="345.643285" style="fill: #425df5; fill-opacity: 0.85; stroke: #000000; stroke-opacity: 0.85; stroke-width: 0.4"/>
     <use xlink:href="#mc5f9f370e5" x="98.133277" y="303.528234" style="fill: #425df5; fill-opacity: 0.85; stroke: #000000; stroke-opacity: 0.85; stroke-width: 0.4"/>
     <use xlink:href="#mc5f9f370e5" x="100.76415" y="247.485451" style="fill: #425df5; fill-opacity: 0.85; stroke: #000000; stroke-opacity: 0.85; stroke-width: 0.4"/>
     <use xlink:href="#mc5f9f370e5" x="100.76103" y="271.67279" style="fill: #425df5; fill-opacity: 0.85; stroke: #000000; stroke-opacity: 0.85; stroke-width: 0.4"/>
     <use xlink:href="#mc5f9f370e5" x="102.599394" y="264.815319" style="fill: #425df5; fill-opacity: 0.85; stroke: #000000; stroke-opacity: 0.85; stroke-width: 0.4"/>
     <use xlink:href="#mc5f9f370e5" x="99.349356" y="181.656776" style="fill: #425df5; fill-opacity: 0.85; stroke: #000000; stroke-opacity: 0.85; stroke-width: 0.4"/>
     <use xlink:href="#mc5f9f370e5" x="103.594035" y="269.785529" style="fill: #425df5; fill-opacity: 0.85; stroke: #000000; stroke-opacity: 0.85; stroke-width: 0.4"/>
     <use xlink:href="#mc5f9f370e5" x="105.788134" y="223.622366" style="fill: #425df5; fill-opacity: 0.85; stroke: #000000; stroke-opacity: 0.85; stroke-width: 0.4"/>
     <use xlink:href="#mc5f9f370e5" x="100.439352" y="306.183066" style="fill: #425df5; fill-opacity: 0.85; stroke: #000000; stroke-opacity: 0.85; stroke-width: 0.4"/>
     <use xlink:href="#mc5f9f370e5" x="102.912377" y="327.789037" style="fill: #425df5; fill-opacity: 0.85; stroke: #000000; stroke-opacity: 0.85; stroke-width: 0.4"/>
    </g>
   </g>
   <g id="PathCollection_2">
    <defs>
     <path id="m178a78e8bc" d="M 0 3 
C 0.795609 3 1.55874 2.683901 2.12132 2.12132 
C 2.683901 1.55874 3 0.795609 3 0 
C 3 -0.795609 2.683901 -1.55874 2.12132 -2.12132 
C 1.55874 -2.683901 0.795609 -3 0 -3 
C -0.795609 -3 -1.55874 -2.683901 -2.12132 -2.12132 
C -2.683901 -1.55874 -3 -0.795609 -3 0 
C -3 0.795609 -2.683901 1.55874 -2.12132 2.12132 
C -1.55874 2.683901 -0.795609 3 0 3 
z
" style="stroke: #000000; stroke-opacity: 0.85; stroke-width: 0.4"/>
    </defs>
    <g clip-path="url(#p5404fcd532)">
     <use xlink:href="#m178a78e8bc" x="223.942584" y="333.653479" style="fill: #f55442; fill-opacity: 0.85; stroke: #000000; stroke-opacity: 0.85; stroke-width: 0.4"/>
     <use xlink:href="#m178a78e8bc" x="230.349995" y="305.02791" style="fill: #f55442; fill-opacity: 0.85; stroke: #000000; stroke-opacity: 0.85; stroke-width: 0.4"/>
     <use xlink:href="#m178a78e8bc" x="228.29532" y="284.888683" style="fill: #f55442; fill-opacity: 0.85; stroke: #000000; stroke-opacity: 0.85; stroke-width: 0.4"/>
     <use xlink:href="#m178a78e8bc" x="222.626788" y="323.783991" style="fill: #f55442; fill-opacity: 0.85; stroke: #000000; stroke-opacity: 0.85; stroke-width: 0.4"/>
     <use xlink:href="#m178a78e8bc" x="231.47893" y="338.089175" style="fill: #f55442; fill-opacity: 0.85; stroke: #000000; stroke-opacity: 0.85; stroke-width: 0.4"/>
     <use xlink:href="#m178a78e8bc" x="227.525934" y="287.827237" style="fill: #f55442; fill-opacity: 0.85; stroke: #000000; stroke-opacity: 0.85; stroke-width: 0.4"/>
     <use xlink:href="#m178a78e8bc" x="227.66219" y="304.485798" style="fill: #f55442; fill-opacity: 0.85; stroke: #000000; stroke-opacity: 0.85; stroke-width: 0.4"/>
     <use xlink:href="#m178a78e8bc" x="228.968475" y="248.622874" style="fill: #f55442; fill-opacity: 0.85; stroke: #000000; stroke-opacity: 0.85; stroke-width: 0.4"/>
     <use xlink:href="#m178a78e8bc" x="231.90491" y="220.04037" style="fill: #f55442; fill-opacity: 0.85; stroke: #000000; stroke-opacity: 0.85; stroke-width: 0.4"/>
     <use xlink:href="#m178a78e8bc" x="228.202533" y="251.987011" style="fill: #f55442; fill-opacity: 0.85; stroke: #000000; stroke-opacity: 0.85; stroke-width: 0.4"/>
     <use xlink:href="#m178a78e8bc" x="228.09755" y="294.869633" style="fill: #f55442; fill-opacity: 0.85; stroke: #000000; stroke-opacity: 0.85; stroke-width: 0.4"/>
     <use xlink:href="#m178a78e8bc" x="225.869704" y="323.70546" style="fill: #f55442; fill-opacity: 0.85; stroke: #000000; stroke-opacity: 0.85; stroke-width: 0.4"/>
     <use xlink:href="#m178a78e8bc" x="229.293545" y="329.007524" style="fill: #f55442; fill-opacity: 0.85; stroke: #000000; stroke-opacity: 0.85; stroke-width: 0.4"/>
     <use xlink:href="#m178a78e8bc" x="223.427681" y="295.857595" style="fill: #f55442; fill-opacity: 0.85; stroke: #000000; stroke-opacity: 0.85; stroke-width: 0.4"/>
     <use xlink:href="#m178a78e8bc" x="227.337133" y="345.916875" style="fill: #f55442; fill-opacity: 0.85; stroke: #000000; stroke-opacity: 0.85; stroke-width: 0.4"/>
     <use xlink:href="#m178a78e8bc" x="224.918049" y="301.225523" style="fill: #f55442; fill-opacity: 0.85; stroke: #000000; stroke-opacity: 0.85; stroke-width: 0.4"/>
     <use xlink:href="#m178a78e8bc" x="232.413786" y="326.390691" style="fill: #f55442; fill-opacity: 0.85; stroke: #000000; stroke-opacity: 0.85; stroke-width: 0.4"/>
     <use xlink:href="#m178a78e8bc" x="223.896105" y="335.609137" style="fill: #f55442; fill-opacity: 0.85; stroke: #000000; stroke-opacity: 0.85; stroke-width: 0.4"/>
     <use xlink:href="#m178a78e8bc" x="225.760349" y="329.848558" style="fill: #f55442; fill-opacity: 0.85; stroke: #000000; stroke-opacity: 0.85; stroke-width: 0.4"/>
     <use xlink:href="#m178a78e8bc" x="223.835722" y="299.381327" style="fill: #f55442; fill-opacity: 0.85; stroke: #000000; stroke-opacity: 0.85; stroke-width: 0.4"/>
     <use xlink:href="#m178a78e8bc" x="230.708492" y="324.870749" style="fill: #f55442; fill-opacity: 0.85; stroke: #000000; stroke-opacity: 0.85; stroke-width: 0.4"/>
     <use xlink:href="#m178a78e8bc" x="229.178838" y="295.100158" style="fill: #f55442; fill-opacity: 0.85; stroke: #000000; stroke-opacity: 0.85; stroke-width: 0.4"/>
     <use xlink:href="#m178a78e8bc" x="229.403648" y="337.965047" style="fill: #f55442; fill-opacity: 0.85; stroke: #000000; stroke-opacity: 0.85; stroke-width: 0.4"/>
     <use xlink:href="#m178a78e8bc" x="230.292054" y="302.317347" style="fill: #f55442; fill-opacity: 0.85; stroke: #000000; stroke-opacity: 0.85; stroke-width: 0.4"/>
     <use xlink:href="#m178a78e8bc" x="226.089056" y="321.068362" style="fill: #f55442; fill-opacity: 0.85; stroke: #000000; stroke-opacity: 0.85; stroke-width: 0.4"/>
     <use xlink:href="#m178a78e8bc" x="225.291236" y="342.408343" style="fill: #f55442; fill-opacity: 0.85; stroke: #000000; stroke-opacity: 0.85; stroke-width: 0.4"/>
     <use xlink:href="#m178a78e8bc" x="229.719835" y="250.353074" style="fill: #f55442; fill-opacity: 0.85; stroke: #000000; stroke-opacity: 0.85; stroke-width: 0.4"/>
    </g>
   </g>
   <g id="PathCollection_3">
    <defs>
     <path id="mb1e27be280" d="M 0 3 
C 0.795609 3 1.55874 2.683901 2.12132 2.12132 
C 2.683901 1.55874 3 0.795609 3 0 
C 3 -0.795609 2.683901 -1.55874 2.12132 -2.12132 
C 1.55874 -2.683901 0.795609 -3 0 -3 
C -0.795609 -3 -1.55874 -2.683901 -2.12132 -2.12132 
C -2.683901 -1.55874 -3 -0.795609 -3 0 
C -3 0.795609 -2.683901 1.55874 -2.12132 2.12132 
C -1.55874 2.683901 -0.795609 3 0 3 
z
" style="stroke: #000000; stroke-opacity: 0.85; stroke-width: 0.4"/>
    </defs>
    <g clip-path="url(#p5404fcd532)">
     <use xlink:href="#mb1e27be280" x="357.504491" y="312.538955" style="fill: #0ec72a; fill-opacity: 0.85; stroke: #000000; stroke-opacity: 0.85; stroke-width: 0.4"/>
     <use xlink:href="#mb1e27be280" x="357.056868" y="289.595435" style="fill: #0ec72a; fill-opacity: 0.85; stroke: #000000; stroke-opacity: 0.85; stroke-width: 0.4"/>
     <use xlink:href="#mb1e27be280" x="349.638281" y="214.925766" style="fill: #0ec72a; fill-opacity: 0.85; stroke: #000000; stroke-opacity: 0.85; stroke-width: 0.4"/>
     <use xlink:href="#mb1e27be280" x="357.384916" y="265.788082" style="fill: #0ec72a; fill-opacity: 0.85; stroke: #000000; stroke-opacity: 0.85; stroke-width: 0.4"/>
     <use xlink:href="#mb1e27be280" x="350.964934" y="270.770958" style="fill: #0ec72a; fill-opacity: 0.85; stroke: #000000; stroke-opacity: 0.85; stroke-width: 0.4"/>
     <use xlink:href="#mb1e27be280" x="354.912134" y="256.116186" style="fill: #0ec72a; fill-opacity: 0.85; stroke: #000000; stroke-opacity: 0.85; stroke-width: 0.4"/>
     <use xlink:href="#mb1e27be280" x="351.353252" y="43.516875" style="fill: #0ec72a; fill-opacity: 0.85; stroke: #000000; stroke-opacity: 0.85; stroke-width: 0.4"/>
     <use xlink:href="#mb1e27be280" x="357.204264" y="301.354718" style="fill: #0ec72a; fill-opacity: 0.85; stroke: #000000; stroke-opacity: 0.85; stroke-width: 0.4"/>
     <use xlink:href="#mb1e27be280" x="349.638724" y="302.755597" style="fill: #0ec72a; fill-opacity: 0.85; stroke: #000000; stroke-opacity: 0.85; stroke-width: 0.4"/>
     <use xlink:href="#mb1e27be280" x="354.638119" y="188.709305" style="fill: #0ec72a; fill-opacity: 0.85; stroke: #000000; stroke-opacity: 0.85; stroke-width: 0.4"/>
     <use xlink:href="#mb1e27be280" x="354.497429" y="327.834635" style="fill: #0ec72a; fill-opacity: 0.85; stroke: #000000; stroke-opacity: 0.85; stroke-width: 0.4"/>
     <use xlink:href="#mb1e27be280" x="354.805601" y="271.693056" style="fill: #0ec72a; fill-opacity: 0.85; stroke: #000000; stroke-opacity: 0.85; stroke-width: 0.4"/>
     <use xlink:href="#mb1e27be280" x="357.407801" y="319.71308" style="fill: #0ec72a; fill-opacity: 0.85; stroke: #000000; stroke-opacity: 0.85; stroke-width: 0.4"/>
     <use xlink:href="#mb1e27be280" x="349.532306" y="268.247854" style="fill: #0ec72a; fill-opacity: 0.85; stroke: #000000; stroke-opacity: 0.85; stroke-width: 0.4"/>
     <use xlink:href="#mb1e27be280" x="351.697109" y="281.390284" style="fill: #0ec72a; fill-opacity: 0.85; stroke: #000000; stroke-opacity: 0.85; stroke-width: 0.4"/>
     <use xlink:href="#mb1e27be280" x="354.145858" y="305.367364" style="fill: #0ec72a; fill-opacity: 0.85; stroke: #000000; stroke-opacity: 0.85; stroke-width: 0.4"/>
     <use xlink:href="#mb1e27be280" x="359.307275" y="310.492101" style="fill: #0ec72a; fill-opacity: 0.85; stroke: #000000; stroke-opacity: 0.85; stroke-width: 0.4"/>
     <use xlink:href="#mb1e27be280" x="353.303954" y="167.528918" style="fill: #0ec72a; fill-opacity: 0.85; stroke: #000000; stroke-opacity: 0.85; stroke-width: 0.4"/>
     <use xlink:href="#mb1e27be280" x="351.458175" y="260.840672" style="fill: #0ec72a; fill-opacity: 0.85; stroke: #000000; stroke-opacity: 0.85; stroke-width: 0.4"/>
     <use xlink:href="#mb1e27be280" x="349.597865" y="246.355627" style="fill: #0ec72a; fill-opacity: 0.85; stroke: #000000; stroke-opacity: 0.85; stroke-width: 0.4"/>
    </g>
   </g>
   <g id="text_13">
    <!-- Reversal First Meal Time Distribution -->
    <g transform="translate(44.631875 22.396875) scale(0.2 -0.2)">
     <defs>
      <path id="DejaVuSans-44" d="M 1259 4147 
L 1259 519 
L 2022 519 
Q 2988 519 3436 956 
Q 3884 1394 3884 2338 
Q 3884 3275 3436 3711 
Q 2988 4147 2022 4147 
L 1259 4147 
z
M 628 4666 
L 1925 4666 
Q 3281 4666 3915 4102 
Q 4550 3538 4550 2338 
Q 4550 1131 3912 565 
Q 3275 0 1925 0 
L 628 0 
L 628 4666 
z
" transform="scale(0.015625)"/>
      <path id="DejaVuSans-62" d="M 3116 1747 
Q 3116 2381 2855 2742 
Q 2594 3103 2138 3103 
Q 1681 3103 1420 2742 
Q 1159 2381 1159 1747 
Q 1159 1113 1420 752 
Q 1681 391 2138 391 
Q 2594 391 2855 752 
Q 3116 1113 3116 1747 
z
M 1159 2969 
Q 1341 3281 1617 3432 
Q 1894 3584 2278 3584 
Q 2916 3584 3314 3078 
Q 3713 2572 3713 1747 
Q 3713 922 3314 415 
Q 2916 -91 2278 -91 
Q 1894 -91 1617 61 
Q 1341 213 1159 525 
L 1159 0 
L 581 0 
L 581 4863 
L 1159 4863 
L 1159 2969 
z
" transform="scale(0.015625)"/>
      <path id="DejaVuSans-6e" d="M 3513 2113 
L 3513 0 
L 2938 0 
L 2938 2094 
Q 2938 2591 2744 2837 
Q 2550 3084 2163 3084 
Q 1697 3084 1428 2787 
Q 1159 2491 1159 1978 
L 1159 0 
L 581 0 
L 581 3500 
L 1159 3500 
L 1159 2956 
Q 1366 3272 1645 3428 
Q 1925 3584 2291 3584 
Q 2894 3584 3203 3211 
Q 3513 2838 3513 2113 
z
" transform="scale(0.015625)"/>
     </defs>
     <use xlink:href="#DejaVuSans-52"/>
     <use xlink:href="#DejaVuSans-65" x="64.982422"/>
     <use xlink:href="#DejaVuSans-76" x="126.505859"/>
     <use xlink:href="#DejaVuSans-65" x="185.685547"/>
     <use xlink:href="#DejaVuSans-72" x="247.208984"/>
     <use xlink:href="#DejaVuSans-73" x="288.322266"/>
     <use xlink:href="#DejaVuSans-61" x="340.421875"/>
     <use xlink:href="#DejaVuSans-6c" x="401.701172"/>
     <use xlink:href="#DejaVuSans-20" x="429.484375"/>
     <use xlink:href="#DejaVuSans-46" x="461.271484"/>
     <use xlink:href="#DejaVuSans-69" x="511.541016"/>
     <use xlink:href="#DejaVuSans-72" x="539.324219"/>
     <use xlink:href="#DejaVuSans-73" x="580.4375"/>
     <use xlink:href="#DejaVuSans-74" x="632.537109"/>
     <use xlink:href="#DejaVuSans-20" x="671.746094"/>
     <use xlink:href="#DejaVuSans-4d" x="703.533203"/>
     <use xlink:href="#DejaVuSans-65" x="789.8125"/>
     <use xlink:href="#DejaVuSans-61" x="851.335938"/>
     <use xlink:href="#DejaVuSans-6c" x="912.615234"/>
     <use xlink:href="#DejaVuSans-20" x="940.398438"/>
     <use xlink:href="#DejaVuSans-54" x="972.185547"/>
     <use xlink:href="#DejaVuSans-69" x="1030.144531"/>
     <use xlink:href="#DejaVuSans-6d" x="1057.927734"/>
     <use xlink:href="#DejaVuSans-65" x="1155.339844"/>
     <use xlink:href="#DejaVuSans-20" x="1216.863281"/>
     <use xlink:href="#DejaVuSans-44" x="1248.650391"/>
     <use xlink:href="#DejaVuSans-69" x="1325.652344"/>
     <use xlink:href="#DejaVuSans-73" x="1353.435547"/>
     <use xlink:href="#DejaVuSans-74" x="1405.535156"/>
     <use xlink:href="#DejaVuSans-72" x="1444.744141"/>
     <use xlink:href="#DejaVuSans-69" x="1485.857422"/>
     <use xlink:href="#DejaVuSans-62" x="1513.640625"/>
     <use xlink:href="#DejaVuSans-75" x="1577.117188"/>
     <use xlink:href="#DejaVuSans-74" x="1640.496094"/>
     <use xlink:href="#DejaVuSans-69" x="1679.705078"/>
     <use xlink:href="#DejaVuSans-6f" x="1707.488281"/>
     <use xlink:href="#DejaVuSans-6e" x="1768.669922"/>
    </g>
   </g>
   <g id="legend_1">
    <g id="patch_10">
     <path d="M 46.511875 90.838125 
L 172.388125 90.838125 
Q 174.788125 90.838125 174.788125 88.438125 
L 174.788125 36.796875 
Q 174.788125 34.396875 172.388125 34.396875 
L 46.511875 34.396875 
Q 44.111875 34.396875 44.111875 36.796875 
L 44.111875 88.438125 
Q 44.111875 90.838125 46.511875 90.838125 
z
" style="fill: #ffffff; opacity: 0.8; stroke: #cccccc; stroke-linejoin: miter"/>
    </g>
    <g id="patch_11">
     <path d="M 48.911875 48.315 
L 72.911875 48.315 
L 72.911875 39.915 
L 48.911875 39.915 
z
" style="fill: #425df5; opacity: 0.65; stroke: #425df5; stroke-linejoin: miter"/>
    </g>
    <g id="text_14">
     <!-- cask (n=24) -->
     <g transform="translate(82.511875 48.315) scale(0.12 -0.12)">
      <defs>
       <path id="DejaVuSans-3d" d="M 678 2906 
L 4684 2906 
L 4684 2381 
L 678 2381 
L 678 2906 
z
M 678 1631 
L 4684 1631 
L 4684 1100 
L 678 1100 
L 678 1631 
z
" transform="scale(0.015625)"/>
      </defs>
      <use xlink:href="#DejaVuSans-63"/>
      <use xlink:href="#DejaVuSans-61" x="54.980469"/>
      <use xlink:href="#DejaVuSans-73" x="116.259766"/>
      <use xlink:href="#DejaVuSans-6b" x="168.359375"/>
      <use xlink:href="#DejaVuSans-20" x="226.269531"/>
      <use xlink:href="#DejaVuSans-28" x="258.056641"/>
      <use xlink:href="#DejaVuSans-6e" x="297.070312"/>
      <use xlink:href="#DejaVuSans-3d" x="360.449219"/>
      <use xlink:href="#DejaVuSans-32" x="444.238281"/>
      <use xlink:href="#DejaVuSans-34" x="507.861328"/>
      <use xlink:href="#DejaVuSans-29" x="571.484375"/>
     </g>
    </g>
    <g id="patch_12">
     <path d="M 48.911875 65.92875 
L 72.911875 65.92875 
L 72.911875 57.52875 
L 48.911875 57.52875 
z
" style="fill: #f55442; opacity: 0.65; stroke: #f55442; stroke-linejoin: miter"/>
    </g>
    <g id="text_15">
     <!-- ctrl (n=27) -->
     <g transform="translate(82.511875 65.92875) scale(0.12 -0.12)">
      <defs>
       <path id="DejaVuSans-37" d="M 525 4666 
L 3525 4666 
L 3525 4397 
L 1831 0 
L 1172 0 
L 2766 4134 
L 525 4134 
L 525 4666 
z
" transform="scale(0.015625)"/>
      </defs>
      <use xlink:href="#DejaVuSans-63"/>
      <use xlink:href="#DejaVuSans-74" x="54.980469"/>
      <use xlink:href="#DejaVuSans-72" x="94.189453"/>
      <use xlink:href="#DejaVuSans-6c" x="135.302734"/>
      <use xlink:href="#DejaVuSans-20" x="163.085938"/>
      <use xlink:href="#DejaVuSans-28" x="194.873047"/>
      <use xlink:href="#DejaVuSans-6e" x="233.886719"/>
      <use xlink:href="#DejaVuSans-3d" x="297.265625"/>
      <use xlink:href="#DejaVuSans-32" x="381.054688"/>
      <use xlink:href="#DejaVuSans-37" x="444.677734"/>
      <use xlink:href="#DejaVuSans-29" x="508.300781"/>
     </g>
    </g>
    <g id="patch_13">
     <path d="M 48.911875 83.5425 
L 72.911875 83.5425 
L 72.911875 75.1425 
L 48.911875 75.1425 
z
" style="fill: #0ec72a; opacity: 0.65; stroke: #0ec72a; stroke-linejoin: miter"/>
    </g>
    <g id="text_16">
     <!-- female (n=20) -->
     <g transform="translate(82.511875 83.5425) scale(0.12 -0.12)">
      <use xlink:href="#DejaVuSans-66"/>
      <use xlink:href="#DejaVuSans-65" x="35.205078"/>
      <use xlink:href="#DejaVuSans-6d" x="96.728516"/>
      <use xlink:href="#DejaVuSans-61" x="194.140625"/>
      <use xlink:href="#DejaVuSans-6c" x="255.419922"/>
      <use xlink:href="#DejaVuSans-65" x="283.203125"/>
      <use xlink:href="#DejaVuSans-20" x="344.726562"/>
      <use xlink:href="#DejaVuSans-28" x="376.513672"/>
      <use xlink:href="#DejaVuSans-6e" x="415.527344"/>
      <use xlink:href="#DejaVuSans-3d" x="478.90625"/>
      <use xlink:href="#DejaVuSans-32" x="562.695312"/>
      <use xlink:href="#DejaVuSans-30" x="626.318359"/>
      <use xlink:href="#DejaVuSans-29" x="689.941406"/>
     </g>
    </g>
   </g>
  </g>
 </g>
 <defs>
  <clipPath id="p5404fcd532">
   <rect x="38.111875" y="28.396875" width="379.44" height="332.64"/>
  </clipPath>
 </defs>
</svg>
