<?xml version="1.0" encoding="utf-8" standalone="no"?>
<!DOCTYPE svg PUBLIC "-//W3C//DTD SVG 1.1//EN"
  "http://www.w3.org/Graphics/SVG/1.1/DTD/svg11.dtd">
<svg xmlns:xlink="http://www.w3.org/1999/xlink" width="1172.435pt" height="399.009062pt" viewBox="0 0 1172.435 399.009062" xmlns="http://www.w3.org/2000/svg" version="1.1">
 <metadata>
  <rdf:RDF xmlns:dc="http://purl.org/dc/elements/1.1/" xmlns:cc="http://creativecommons.org/ns#" xmlns:rdf="http://www.w3.org/1999/02/22-rdf-syntax-ns#">
   <cc:Work>
    <dc:type rdf:resource="http://purl.org/dc/dcmitype/StillImage"/>
    <dc:date>2025-04-09T09:57:39.610242</dc:date>
    <dc:format>image/svg+xml</dc:format>
    <dc:creator>
     <cc:Agent>
      <dc:title>Matplotlib v3.8.3, https://matplotlib.org/</dc:title>
     </cc:Agent>
    </dc:creator>
   </cc:Work>
  </rdf:RDF>
 </metadata>
 <defs>
  <style type="text/css">*{stroke-linejoin: round; stroke-linecap: butt}</style>
 </defs>
 <g id="figure_1">
  <g id="patch_1">
   <path d="M 0 399.009062 
L 1172.435 399.009062 
L 1172.435 0 
L 0 0 
z
" style="fill: #ffffff"/>
  </g>
  <g id="axes_1">
   <g id="patch_2">
    <path d="M 49.235 359.517187 
L 1165.235 359.517187 
L 1165.235 26.877187 
L 49.235 26.877187 
z
" style="fill: #ffffff"/>
   </g>
   <g id="patch_3">
    <path d="M 100.354047 359.517187 
L 100.354047 26.877187 
L 100.544162 26.877187 
L 100.544162 359.517187 
z
" clip-path="url(#pab5a7ff64c)" style="fill: #add8e6; stroke: #add8e6; stroke-linejoin: miter"/>
   </g>
   <g id="patch_4">
    <path d="M 100.614204 359.517187 
L 100.614204 26.877187 
L 100.821251 26.877187 
L 100.821251 359.517187 
z
" clip-path="url(#pab5a7ff64c)" style="fill: #add8e6; stroke: #add8e6; stroke-linejoin: miter"/>
   </g>
   <g id="patch_5">
    <path d="M 100.862815 359.517187 
L 100.862815 26.877187 
L 100.97673 26.877187 
L 100.97673 359.517187 
z
" clip-path="url(#pab5a7ff64c)" style="fill: #add8e6; stroke: #add8e6; stroke-linejoin: miter"/>
   </g>
   <g id="patch_6">
    <path d="M 102.910971 359.517187 
L 102.910971 26.877187 
L 103.027965 26.877187 
L 103.027965 359.517187 
z
" clip-path="url(#pab5a7ff64c)" style="fill: #add8e6; stroke: #add8e6; stroke-linejoin: miter"/>
   </g>
   <g id="patch_7">
    <path d="M 136.368038 359.517187 
L 136.368038 26.877187 
L 136.384202 26.877187 
L 136.384202 359.517187 
z
" clip-path="url(#pab5a7ff64c)" style="fill: #add8e6; stroke: #add8e6; stroke-linejoin: miter"/>
   </g>
   <g id="patch_8">
    <path d="M 161.611698 359.517187 
L 161.611698 26.877187 
L 161.771795 26.877187 
L 161.771795 359.517187 
z
" clip-path="url(#pab5a7ff64c)" style="fill: #add8e6; stroke: #add8e6; stroke-linejoin: miter"/>
   </g>
   <g id="patch_9">
    <path d="M 161.971146 359.517187 
L 161.971146 26.877187 
L 162.079672 26.877187 
L 162.079672 359.517187 
z
" clip-path="url(#pab5a7ff64c)" style="fill: #add8e6; stroke: #add8e6; stroke-linejoin: miter"/>
   </g>
   <g id="patch_10">
    <path d="M 162.506083 359.517187 
L 162.506083 26.877187 
L 162.718519 26.877187 
L 162.718519 359.517187 
z
" clip-path="url(#pab5a7ff64c)" style="fill: #add8e6; stroke: #add8e6; stroke-linejoin: miter"/>
   </g>
   <g id="patch_11">
    <path d="M 162.871688 359.517187 
L 162.871688 26.877187 
L 162.927106 26.877187 
L 162.927106 359.517187 
z
" clip-path="url(#pab5a7ff64c)" style="fill: #add8e6; stroke: #add8e6; stroke-linejoin: miter"/>
   </g>
   <g id="patch_12">
    <path d="M 188.105342 359.517187 
L 188.105342 26.877187 
L 178.658116 26.877187 
L 178.658116 359.517187 
z
" clip-path="url(#pab5a7ff64c)" style="fill: #add8e6; stroke: #add8e6; stroke-linejoin: miter"/>
   </g>
   <g id="patch_13">
    <path d="M 198.869515 359.517187 
L 198.869515 26.877187 
L 197.938955 26.877187 
L 197.938955 359.517187 
z
" clip-path="url(#pab5a7ff64c)" style="fill: #add8e6; stroke: #add8e6; stroke-linejoin: miter"/>
   </g>
   <g id="patch_14">
    <path d="M 211.042229 359.517187 
L 211.042229 26.877187 
L 202.45783 26.877187 
L 202.45783 359.517187 
z
" clip-path="url(#pab5a7ff64c)" style="fill: #add8e6; stroke: #add8e6; stroke-linejoin: miter"/>
   </g>
   <g id="patch_15">
    <path d="M 220.517164 359.517187 
L 220.517164 26.877187 
L 214.670567 26.877187 
L 214.670567 359.517187 
z
" clip-path="url(#pab5a7ff64c)" style="fill: #add8e6; stroke: #add8e6; stroke-linejoin: miter"/>
   </g>
   <g id="patch_16">
    <path d="M 228.572014 359.517187 
L 228.572014 26.877187 
L 218.929285 26.877187 
L 218.929285 359.517187 
z
" clip-path="url(#pab5a7ff64c)" style="fill: #add8e6; stroke: #add8e6; stroke-linejoin: miter"/>
   </g>
   <g id="patch_17">
    <path d="M 235.099021 359.517187 
L 235.099021 26.877187 
L 225.577134 26.877187 
L 225.577134 359.517187 
z
" clip-path="url(#pab5a7ff64c)" style="fill: #add8e6; stroke: #add8e6; stroke-linejoin: miter"/>
   </g>
   <g id="patch_18">
    <path d="M 242.541963 359.517187 
L 242.541963 26.877187 
L 234.096879 26.877187 
L 234.096879 359.517187 
z
" clip-path="url(#pab5a7ff64c)" style="fill: #add8e6; stroke: #add8e6; stroke-linejoin: miter"/>
   </g>
   <g id="patch_19">
    <path d="M 299.48163 359.517187 
L 299.48163 26.877187 
L 299.58323 26.877187 
L 299.58323 359.517187 
z
" clip-path="url(#pab5a7ff64c)" style="fill: #add8e6; stroke: #add8e6; stroke-linejoin: miter"/>
   </g>
   <g id="patch_20">
    <path d="M 327.2953 359.517187 
L 327.2953 26.877187 
L 327.474638 26.877187 
L 327.474638 359.517187 
z
" clip-path="url(#pab5a7ff64c)" style="fill: #add8e6; stroke: #add8e6; stroke-linejoin: miter"/>
   </g>
   <g id="patch_21">
    <path d="M 363.306982 359.517187 
L 363.306982 26.877187 
L 353.94827 26.877187 
L 353.94827 359.517187 
z
" clip-path="url(#pab5a7ff64c)" style="fill: #add8e6; stroke: #add8e6; stroke-linejoin: miter"/>
   </g>
   <g id="patch_22">
    <path d="M 387.07129 359.517187 
L 387.07129 26.877187 
L 377.98428 26.877187 
L 377.98428 359.517187 
z
" clip-path="url(#pab5a7ff64c)" style="fill: #add8e6; stroke: #add8e6; stroke-linejoin: miter"/>
   </g>
   <g id="patch_23">
    <path d="M 389.567408 359.517187 
L 389.567408 26.877187 
L 389.78908 26.877187 
L 389.78908 359.517187 
z
" clip-path="url(#pab5a7ff64c)" style="fill: #add8e6; stroke: #add8e6; stroke-linejoin: miter"/>
   </g>
   <g id="patch_24">
    <path d="M 397.800057 359.517187 
L 397.800057 26.877187 
L 397.920129 26.877187 
L 397.920129 359.517187 
z
" clip-path="url(#pab5a7ff64c)" style="fill: #add8e6; stroke: #add8e6; stroke-linejoin: miter"/>
   </g>
   <g id="patch_25">
    <path d="M 398.918423 359.517187 
L 398.918423 26.877187 
L 398.255716 26.877187 
L 398.255716 359.517187 
z
" clip-path="url(#pab5a7ff64c)" style="fill: #add8e6; stroke: #add8e6; stroke-linejoin: miter"/>
   </g>
   <g id="patch_26">
    <path d="M 416.300426 359.517187 
L 416.300426 26.877187 
L 413.428697 26.877187 
L 413.428697 359.517187 
z
" clip-path="url(#pab5a7ff64c)" style="fill: #add8e6; stroke: #add8e6; stroke-linejoin: miter"/>
   </g>
   <g id="patch_27">
    <path d="M 428.95035 359.517187 
L 428.95035 26.877187 
L 424.680857 26.877187 
L 424.680857 359.517187 
z
" clip-path="url(#pab5a7ff64c)" style="fill: #add8e6; stroke: #add8e6; stroke-linejoin: miter"/>
   </g>
   <g id="patch_28">
    <path d="M 444.877632 359.517187 
L 444.877632 26.877187 
L 445.077753 26.877187 
L 445.077753 359.517187 
z
" clip-path="url(#pab5a7ff64c)" style="fill: #add8e6; stroke: #add8e6; stroke-linejoin: miter"/>
   </g>
   <g id="patch_29">
    <path d="M 445.118547 359.517187 
L 445.118547 26.877187 
L 445.297116 26.877187 
L 445.297116 359.517187 
z
" clip-path="url(#pab5a7ff64c)" style="fill: #add8e6; stroke: #add8e6; stroke-linejoin: miter"/>
   </g>
   <g id="patch_30">
    <path d="M 445.572666 359.517187 
L 445.572666 26.877187 
L 445.671187 26.877187 
L 445.671187 359.517187 
z
" clip-path="url(#pab5a7ff64c)" style="fill: #add8e6; stroke: #add8e6; stroke-linejoin: miter"/>
   </g>
   <g id="patch_31">
    <path d="M 445.872847 359.517187 
L 445.872847 26.877187 
L 445.971368 26.877187 
L 445.971368 359.517187 
z
" clip-path="url(#pab5a7ff64c)" style="fill: #add8e6; stroke: #add8e6; stroke-linejoin: miter"/>
   </g>
   <g id="patch_32">
    <path d="M 490.067917 359.517187 
L 490.067917 26.877187 
L 481.772923 26.877187 
L 481.772923 359.517187 
z
" clip-path="url(#pab5a7ff64c)" style="fill: #add8e6; stroke: #add8e6; stroke-linejoin: miter"/>
   </g>
   <g id="patch_33">
    <path d="M 520.309202 359.517187 
L 520.309202 26.877187 
L 511.910299 26.877187 
L 511.910299 359.517187 
z
" clip-path="url(#pab5a7ff64c)" style="fill: #add8e6; stroke: #add8e6; stroke-linejoin: miter"/>
   </g>
   <g id="patch_34">
    <path d="M 538.820347 359.517187 
L 538.820347 26.877187 
L 530.844776 26.877187 
L 530.844776 359.517187 
z
" clip-path="url(#pab5a7ff64c)" style="fill: #add8e6; stroke: #add8e6; stroke-linejoin: miter"/>
   </g>
   <g id="patch_35">
    <path d="M 546.588871 359.517187 
L 546.588871 26.877187 
L 546.74127 26.877187 
L 546.74127 359.517187 
z
" clip-path="url(#pab5a7ff64c)" style="fill: #add8e6; stroke: #add8e6; stroke-linejoin: miter"/>
   </g>
   <g id="patch_36">
    <path d="M 546.956785 359.517187 
L 546.956785 26.877187 
L 547.089172 26.877187 
L 547.089172 359.517187 
z
" clip-path="url(#pab5a7ff64c)" style="fill: #add8e6; stroke: #add8e6; stroke-linejoin: miter"/>
   </g>
   <g id="patch_37">
    <path d="M 550.903776 359.517187 
L 550.903776 26.877187 
L 551.101588 26.877187 
L 551.101588 359.517187 
z
" clip-path="url(#pab5a7ff64c)" style="fill: #add8e6; stroke: #add8e6; stroke-linejoin: miter"/>
   </g>
   <g id="patch_38">
    <path d="M 555.524251 359.517187 
L 555.524251 26.877187 
L 555.705898 26.877187 
L 555.705898 359.517187 
z
" clip-path="url(#pab5a7ff64c)" style="fill: #add8e6; stroke: #add8e6; stroke-linejoin: miter"/>
   </g>
   <g id="patch_39">
    <path d="M 575.198404 359.517187 
L 575.198404 26.877187 
L 575.344646 26.877187 
L 575.344646 359.517187 
z
" clip-path="url(#pab5a7ff64c)" style="fill: #add8e6; stroke: #add8e6; stroke-linejoin: miter"/>
   </g>
   <g id="patch_40">
    <path d="M 575.471645 359.517187 
L 575.471645 26.877187 
L 575.698705 26.877187 
L 575.698705 359.517187 
z
" clip-path="url(#pab5a7ff64c)" style="fill: #add8e6; stroke: #add8e6; stroke-linejoin: miter"/>
   </g>
   <g id="patch_41">
    <path d="M 576.099716 359.517187 
L 576.099716 26.877187 
L 576.066619 26.877187 
L 576.066619 359.517187 
z
" clip-path="url(#pab5a7ff64c)" style="fill: #add8e6; stroke: #add8e6; stroke-linejoin: miter"/>
   </g>
   <g id="patch_42">
    <path d="M 636.547649 359.517187 
L 636.547649 26.877187 
L 636.727757 26.877187 
L 636.727757 359.517187 
z
" clip-path="url(#pab5a7ff64c)" style="fill: #add8e6; stroke: #add8e6; stroke-linejoin: miter"/>
   </g>
   <g id="patch_43">
    <path d="M 636.780866 359.517187 
L 636.780866 26.877187 
L 637.000998 26.877187 
L 637.000998 359.517187 
z
" clip-path="url(#pab5a7ff64c)" style="fill: #add8e6; stroke: #add8e6; stroke-linejoin: miter"/>
   </g>
   <g id="patch_44">
    <path d="M 637.114144 359.517187 
L 637.114144 26.877187 
L 637.2981 26.877187 
L 637.2981 359.517187 
z
" clip-path="url(#pab5a7ff64c)" style="fill: #add8e6; stroke: #add8e6; stroke-linejoin: miter"/>
   </g>
   <g id="patch_45">
    <path d="M 665.996148 359.517187 
L 665.996148 26.877187 
L 666.147778 26.877187 
L 666.147778 359.517187 
z
" clip-path="url(#pab5a7ff64c)" style="fill: #add8e6; stroke: #add8e6; stroke-linejoin: miter"/>
   </g>
   <g id="patch_46">
    <path d="M 685.842713 359.517187 
L 685.842713 26.877187 
L 686.065154 26.877187 
L 686.065154 359.517187 
z
" clip-path="url(#pab5a7ff64c)" style="fill: #add8e6; stroke: #add8e6; stroke-linejoin: miter"/>
   </g>
   <g id="patch_47">
    <path d="M 713.517837 359.517187 
L 713.517837 26.877187 
L 704.783347 26.877187 
L 704.783347 359.517187 
z
" clip-path="url(#pab5a7ff64c)" style="fill: #add8e6; stroke: #add8e6; stroke-linejoin: miter"/>
   </g>
   <g id="patch_48">
    <path d="M 722.776488 359.517187 
L 722.776488 26.877187 
L 722.888864 26.877187 
L 722.888864 359.517187 
z
" clip-path="url(#pab5a7ff64c)" style="fill: #add8e6; stroke: #add8e6; stroke-linejoin: miter"/>
   </g>
   <g id="patch_49">
    <path d="M 723.570813 359.517187 
L 723.570813 26.877187 
L 723.695503 26.877187 
L 723.695503 359.517187 
z
" clip-path="url(#pab5a7ff64c)" style="fill: #add8e6; stroke: #add8e6; stroke-linejoin: miter"/>
   </g>
   <g id="patch_50">
    <path d="M 752.033334 359.517187 
L 752.033334 26.877187 
L 743.697546 26.877187 
L 743.697546 359.517187 
z
" clip-path="url(#pab5a7ff64c)" style="fill: #add8e6; stroke: #add8e6; stroke-linejoin: miter"/>
   </g>
   <g id="patch_51">
    <path d="M 763.353227 359.517187 
L 763.353227 26.877187 
L 763.578747 26.877187 
L 763.578747 359.517187 
z
" clip-path="url(#pab5a7ff64c)" style="fill: #add8e6; stroke: #add8e6; stroke-linejoin: miter"/>
   </g>
   <g id="patch_52">
    <path d="M 763.966673 359.517187 
L 763.966673 26.877187 
L 764.064424 26.877187 
L 764.064424 359.517187 
z
" clip-path="url(#pab5a7ff64c)" style="fill: #add8e6; stroke: #add8e6; stroke-linejoin: miter"/>
   </g>
   <g id="patch_53">
    <path d="M 765.505292 359.517187 
L 765.505292 26.877187 
L 765.687709 26.877187 
L 765.687709 359.517187 
z
" clip-path="url(#pab5a7ff64c)" style="fill: #add8e6; stroke: #add8e6; stroke-linejoin: miter"/>
   </g>
   <g id="patch_54">
    <path d="M 765.853963 359.517187 
L 765.853963 26.877187 
L 765.890908 26.877187 
L 765.890908 359.517187 
z
" clip-path="url(#pab5a7ff64c)" style="fill: #add8e6; stroke: #add8e6; stroke-linejoin: miter"/>
   </g>
   <g id="patch_55">
    <path d="M 793.067271 359.517187 
L 793.067271 26.877187 
L 792.99415 26.877187 
L 792.99415 359.517187 
z
" clip-path="url(#pab5a7ff64c)" style="fill: #add8e6; stroke: #add8e6; stroke-linejoin: miter"/>
   </g>
   <g id="patch_56">
    <path d="M 801.966475 359.517187 
L 801.966475 26.877187 
L 802.091165 26.877187 
L 802.091165 359.517187 
z
" clip-path="url(#pab5a7ff64c)" style="fill: #add8e6; stroke: #add8e6; stroke-linejoin: miter"/>
   </g>
   <g id="patch_57">
    <path d="M 802.976314 359.517187 
L 802.976314 26.877187 
L 802.596855 26.877187 
L 802.596855 359.517187 
z
" clip-path="url(#pab5a7ff64c)" style="fill: #add8e6; stroke: #add8e6; stroke-linejoin: miter"/>
   </g>
   <g id="patch_58">
    <path d="M 818.84125 359.517187 
L 818.84125 26.877187 
L 819.051377 26.877187 
L 819.051377 359.517187 
z
" clip-path="url(#pab5a7ff64c)" style="fill: #add8e6; stroke: #add8e6; stroke-linejoin: miter"/>
   </g>
   <g id="patch_59">
    <path d="M 819.072928 359.517187 
L 819.072928 26.877187 
L 819.160673 26.877187 
L 819.160673 359.517187 
z
" clip-path="url(#pab5a7ff64c)" style="fill: #add8e6; stroke: #add8e6; stroke-linejoin: miter"/>
   </g>
   <g id="patch_60">
    <path d="M 859.361801 359.517187 
L 859.361801 26.877187 
L 859.552685 26.877187 
L 859.552685 359.517187 
z
" clip-path="url(#pab5a7ff64c)" style="fill: #add8e6; stroke: #add8e6; stroke-linejoin: miter"/>
   </g>
   <g id="patch_61">
    <path d="M 867.210373 359.517187 
L 867.210373 26.877187 
L 866.643108 26.877187 
L 866.643108 359.517187 
z
" clip-path="url(#pab5a7ff64c)" style="fill: #add8e6; stroke: #add8e6; stroke-linejoin: miter"/>
   </g>
   <g id="patch_62">
    <path d="M 867.557505 359.517187 
L 867.557505 26.877187 
L 867.319669 26.877187 
L 867.319669 359.517187 
z
" clip-path="url(#pab5a7ff64c)" style="fill: #add8e6; stroke: #add8e6; stroke-linejoin: miter"/>
   </g>
   <g id="patch_63">
    <path d="M 884.274493 359.517187 
L 884.274493 26.877187 
L 880.274392 26.877187 
L 880.274392 359.517187 
z
" clip-path="url(#pab5a7ff64c)" style="fill: #add8e6; stroke: #add8e6; stroke-linejoin: miter"/>
   </g>
   <g id="patch_64">
    <path d="M 896.13548 359.517187 
L 896.13548 26.877187 
L 894.281287 26.877187 
L 894.281287 359.517187 
z
" clip-path="url(#pab5a7ff64c)" style="fill: #add8e6; stroke: #add8e6; stroke-linejoin: miter"/>
   </g>
   <g id="patch_65">
    <path d="M 905.235575 359.517187 
L 905.235575 26.877187 
L 905.32255 26.877187 
L 905.32255 359.517187 
z
" clip-path="url(#pab5a7ff64c)" style="fill: #add8e6; stroke: #add8e6; stroke-linejoin: miter"/>
   </g>
   <g id="patch_66">
    <path d="M 1057.703527 359.517187 
L 1057.703527 26.877187 
L 1057.912114 26.877187 
L 1057.912114 359.517187 
z
" clip-path="url(#pab5a7ff64c)" style="fill: #add8e6; stroke: #add8e6; stroke-linejoin: miter"/>
   </g>
   <g id="patch_67">
    <path d="M 1084.668223 359.517187 
L 1084.668223 26.877187 
L 1083.926238 26.877187 
L 1083.926238 359.517187 
z
" clip-path="url(#pab5a7ff64c)" style="fill: #add8e6; stroke: #add8e6; stroke-linejoin: miter"/>
   </g>
   <g id="patch_68">
    <path d="M 1086.667119 359.517187 
L 1086.667119 26.877187 
L 1084.19794 26.877187 
L 1084.19794 359.517187 
z
" clip-path="url(#pab5a7ff64c)" style="fill: #add8e6; stroke: #add8e6; stroke-linejoin: miter"/>
   </g>
   <g id="patch_69">
    <path d="M 1095.406227 359.517187 
L 1095.406227 26.877187 
L 1095.570171 26.877187 
L 1095.570171 359.517187 
z
" clip-path="url(#pab5a7ff64c)" style="fill: #add8e6; stroke: #add8e6; stroke-linejoin: miter"/>
   </g>
   <g id="patch_70">
    <path d="M 1095.681007 359.517187 
L 1095.681007 26.877187 
L 1095.835716 26.877187 
L 1095.835716 359.517187 
z
" clip-path="url(#pab5a7ff64c)" style="fill: #add8e6; stroke: #add8e6; stroke-linejoin: miter"/>
   </g>
   <g id="patch_71">
    <path d="M 1095.961946 359.517187 
L 1095.961946 26.877187 
L 1096.185157 26.877187 
L 1096.185157 359.517187 
z
" clip-path="url(#pab5a7ff64c)" style="fill: #add8e6; stroke: #add8e6; stroke-linejoin: miter"/>
   </g>
   <g id="patch_72">
    <path d="M 1100.062876 359.517187 
L 1100.062876 26.877187 
L 1100.042095 26.877187 
L 1100.042095 359.517187 
z
" clip-path="url(#pab5a7ff64c)" style="fill: #add8e6; stroke: #add8e6; stroke-linejoin: miter"/>
   </g>
   <g id="patch_73">
    <path d="M 1107.022451 359.517187 
L 1107.022451 26.877187 
L 1107.25336 26.877187 
L 1107.25336 359.517187 
z
" clip-path="url(#pab5a7ff64c)" style="fill: #add8e6; stroke: #add8e6; stroke-linejoin: miter"/>
   </g>
   <g id="patch_74">
    <path d="M 1108.00766 359.517187 
L 1108.00766 26.877187 
L 1108.195465 26.877187 
L 1108.195465 359.517187 
z
" clip-path="url(#pab5a7ff64c)" style="fill: #add8e6; stroke: #add8e6; stroke-linejoin: miter"/>
   </g>
   <g id="patch_75">
    <path d="M 1114.284516 359.517187 
L 1114.284516 26.877187 
L 1114.404588 26.877187 
L 1114.404588 359.517187 
z
" clip-path="url(#pab5a7ff64c)" style="fill: #add8e6; stroke: #add8e6; stroke-linejoin: miter"/>
   </g>
   <g id="patch_76">
    <path d="M 220.034566 359.517187 
L 220.034566 26.877187 
L 386.288511 26.877187 
L 386.288511 359.517187 
z
" clip-path="url(#pab5a7ff64c)" style="fill: #808080; opacity: 0.4; stroke: #808080; stroke-linejoin: miter"/>
   </g>
   <g id="patch_77">
    <path d="M 390.906676 26.877187 
L 390.906676 26.877187 
L 390.906676 359.517187 
" clip-path="url(#pab5a7ff64c)" style="fill: #808080; opacity: 0.4; stroke: #808080; stroke-linejoin: miter"/>
   </g>
   <g id="patch_78">
    <path d="M 395.524841 26.877187 
L 395.524841 26.877187 
L 395.524841 359.517187 
" clip-path="url(#pab5a7ff64c)" style="fill: #808080; opacity: 0.4; stroke: #808080; stroke-linejoin: miter"/>
   </g>
   <g id="patch_79">
    <path d="M 552.542455 359.517187 
L 552.542455 26.877187 
L 718.7964 26.877187 
L 718.7964 359.517187 
z
" clip-path="url(#pab5a7ff64c)" style="fill: #808080; opacity: 0.4; stroke: #808080; stroke-linejoin: miter"/>
   </g>
   <g id="patch_80">
    <path d="M 723.414565 26.877187 
L 723.414565 26.877187 
L 723.414565 359.517187 
" clip-path="url(#pab5a7ff64c)" style="fill: #808080; opacity: 0.4; stroke: #808080; stroke-linejoin: miter"/>
   </g>
   <g id="patch_81">
    <path d="M 728.03273 26.877187 
L 728.03273 26.877187 
L 728.03273 359.517187 
" clip-path="url(#pab5a7ff64c)" style="fill: #808080; opacity: 0.4; stroke: #808080; stroke-linejoin: miter"/>
   </g>
   <g id="patch_82">
    <path d="M 885.050344 359.517187 
L 885.050344 26.877187 
L 1051.304289 26.877187 
L 1051.304289 359.517187 
z
" clip-path="url(#pab5a7ff64c)" style="fill: #808080; opacity: 0.4; stroke: #808080; stroke-linejoin: miter"/>
   </g>
   <g id="patch_83">
    <path d="M 1055.922454 26.877187 
L 1055.922454 26.877187 
L 1055.922454 359.517187 
" clip-path="url(#pab5a7ff64c)" style="fill: #808080; opacity: 0.4; stroke: #808080; stroke-linejoin: miter"/>
   </g>
   <g id="patch_84">
    <path d="M 1060.540619 26.877187 
L 1060.540619 26.877187 
L 1060.540619 359.517187 
" clip-path="url(#pab5a7ff64c)" style="fill: #808080; opacity: 0.4; stroke: #808080; stroke-linejoin: miter"/>
   </g>
   <g id="matplotlib.axis_1">
    <g id="xtick_1">
     <g id="line2d_1">
      <defs>
       <path id="mccedcdf2e3" d="M 0 0 
L 0 3.5 
" style="stroke: #000000; stroke-width: 0.8"/>
      </defs>
      <g>
       <use xlink:href="#mccedcdf2e3" x="122.418101" y="359.517187" style="stroke: #000000; stroke-width: 0.8"/>
      </g>
     </g>
     <g id="text_1">
      <!-- 09-02 12 -->
      <g transform="translate(99.937632 374.115625) scale(0.1 -0.1)">
       <defs>
        <path id="DejaVuSans-30" d="M 2034 4250 
Q 1547 4250 1301 3770 
Q 1056 3291 1056 2328 
Q 1056 1369 1301 889 
Q 1547 409 2034 409 
Q 2525 409 2770 889 
Q 3016 1369 3016 2328 
Q 3016 3291 2770 3770 
Q 2525 4250 2034 4250 
z
M 2034 4750 
Q 2819 4750 3233 4129 
Q 3647 3509 3647 2328 
Q 3647 1150 3233 529 
Q 2819 -91 2034 -91 
Q 1250 -91 836 529 
Q 422 1150 422 2328 
Q 422 3509 836 4129 
Q 1250 4750 2034 4750 
z
" transform="scale(0.015625)"/>
        <path id="DejaVuSans-39" d="M 703 97 
L 703 672 
Q 941 559 1184 500 
Q 1428 441 1663 441 
Q 2288 441 2617 861 
Q 2947 1281 2994 2138 
Q 2813 1869 2534 1725 
Q 2256 1581 1919 1581 
Q 1219 1581 811 2004 
Q 403 2428 403 3163 
Q 403 3881 828 4315 
Q 1253 4750 1959 4750 
Q 2769 4750 3195 4129 
Q 3622 3509 3622 2328 
Q 3622 1225 3098 567 
Q 2575 -91 1691 -91 
Q 1453 -91 1209 -44 
Q 966 3 703 97 
z
M 1959 2075 
Q 2384 2075 2632 2365 
Q 2881 2656 2881 3163 
Q 2881 3666 2632 3958 
Q 2384 4250 1959 4250 
Q 1534 4250 1286 3958 
Q 1038 3666 1038 3163 
Q 1038 2656 1286 2365 
Q 1534 2075 1959 2075 
z
" transform="scale(0.015625)"/>
        <path id="DejaVuSans-2d" d="M 313 2009 
L 1997 2009 
L 1997 1497 
L 313 1497 
L 313 2009 
z
" transform="scale(0.015625)"/>
        <path id="DejaVuSans-32" d="M 1228 531 
L 3431 531 
L 3431 0 
L 469 0 
L 469 531 
Q 828 903 1448 1529 
Q 2069 2156 2228 2338 
Q 2531 2678 2651 2914 
Q 2772 3150 2772 3378 
Q 2772 3750 2511 3984 
Q 2250 4219 1831 4219 
Q 1534 4219 1204 4116 
Q 875 4013 500 3803 
L 500 4441 
Q 881 4594 1212 4672 
Q 1544 4750 1819 4750 
Q 2544 4750 2975 4387 
Q 3406 4025 3406 3419 
Q 3406 3131 3298 2873 
Q 3191 2616 2906 2266 
Q 2828 2175 2409 1742 
Q 1991 1309 1228 531 
z
" transform="scale(0.015625)"/>
        <path id="DejaVuSans-20" transform="scale(0.015625)"/>
        <path id="DejaVuSans-31" d="M 794 531 
L 1825 531 
L 1825 4091 
L 703 3866 
L 703 4441 
L 1819 4666 
L 2450 4666 
L 2450 531 
L 3481 531 
L 3481 0 
L 794 0 
L 794 531 
z
" transform="scale(0.015625)"/>
       </defs>
       <use xlink:href="#DejaVuSans-30"/>
       <use xlink:href="#DejaVuSans-39" x="63.623047"/>
       <use xlink:href="#DejaVuSans-2d" x="127.246094"/>
       <use xlink:href="#DejaVuSans-30" x="163.330078"/>
       <use xlink:href="#DejaVuSans-32" x="226.953125"/>
       <use xlink:href="#DejaVuSans-20" x="290.576172"/>
       <use xlink:href="#DejaVuSans-31" x="322.363281"/>
       <use xlink:href="#DejaVuSans-32" x="385.986328"/>
      </g>
     </g>
    </g>
    <g id="xtick_2">
     <g id="line2d_2">
      <g>
       <use xlink:href="#mccedcdf2e3" x="288.672045" y="359.517187" style="stroke: #000000; stroke-width: 0.8"/>
      </g>
     </g>
     <g id="text_2">
      <!-- 09-03 00 -->
      <g transform="translate(266.191577 374.115625) scale(0.1 -0.1)">
       <defs>
        <path id="DejaVuSans-33" d="M 2597 2516 
Q 3050 2419 3304 2112 
Q 3559 1806 3559 1356 
Q 3559 666 3084 287 
Q 2609 -91 1734 -91 
Q 1441 -91 1130 -33 
Q 819 25 488 141 
L 488 750 
Q 750 597 1062 519 
Q 1375 441 1716 441 
Q 2309 441 2620 675 
Q 2931 909 2931 1356 
Q 2931 1769 2642 2001 
Q 2353 2234 1838 2234 
L 1294 2234 
L 1294 2753 
L 1863 2753 
Q 2328 2753 2575 2939 
Q 2822 3125 2822 3475 
Q 2822 3834 2567 4026 
Q 2313 4219 1838 4219 
Q 1578 4219 1281 4162 
Q 984 4106 628 3988 
L 628 4550 
Q 988 4650 1302 4700 
Q 1616 4750 1894 4750 
Q 2613 4750 3031 4423 
Q 3450 4097 3450 3541 
Q 3450 3153 3228 2886 
Q 3006 2619 2597 2516 
z
" transform="scale(0.015625)"/>
       </defs>
       <use xlink:href="#DejaVuSans-30"/>
       <use xlink:href="#DejaVuSans-39" x="63.623047"/>
       <use xlink:href="#DejaVuSans-2d" x="127.246094"/>
       <use xlink:href="#DejaVuSans-30" x="163.330078"/>
       <use xlink:href="#DejaVuSans-33" x="226.953125"/>
       <use xlink:href="#DejaVuSans-20" x="290.576172"/>
       <use xlink:href="#DejaVuSans-30" x="322.363281"/>
       <use xlink:href="#DejaVuSans-30" x="385.986328"/>
      </g>
     </g>
    </g>
    <g id="xtick_3">
     <g id="line2d_3">
      <g>
       <use xlink:href="#mccedcdf2e3" x="454.92599" y="359.517187" style="stroke: #000000; stroke-width: 0.8"/>
      </g>
     </g>
     <g id="text_3">
      <!-- 09-03 12 -->
      <g transform="translate(432.445521 374.115625) scale(0.1 -0.1)">
       <use xlink:href="#DejaVuSans-30"/>
       <use xlink:href="#DejaVuSans-39" x="63.623047"/>
       <use xlink:href="#DejaVuSans-2d" x="127.246094"/>
       <use xlink:href="#DejaVuSans-30" x="163.330078"/>
       <use xlink:href="#DejaVuSans-33" x="226.953125"/>
       <use xlink:href="#DejaVuSans-20" x="290.576172"/>
       <use xlink:href="#DejaVuSans-31" x="322.363281"/>
       <use xlink:href="#DejaVuSans-32" x="385.986328"/>
      </g>
     </g>
    </g>
    <g id="xtick_4">
     <g id="line2d_4">
      <g>
       <use xlink:href="#mccedcdf2e3" x="621.179934" y="359.517187" style="stroke: #000000; stroke-width: 0.8"/>
      </g>
     </g>
     <g id="text_4">
      <!-- 09-04 00 -->
      <g transform="translate(598.699466 374.115625) scale(0.1 -0.1)">
       <defs>
        <path id="DejaVuSans-34" d="M 2419 4116 
L 825 1625 
L 2419 1625 
L 2419 4116 
z
M 2253 4666 
L 3047 4666 
L 3047 1625 
L 3713 1625 
L 3713 1100 
L 3047 1100 
L 3047 0 
L 2419 0 
L 2419 1100 
L 313 1100 
L 313 1709 
L 2253 4666 
z
" transform="scale(0.015625)"/>
       </defs>
       <use xlink:href="#DejaVuSans-30"/>
       <use xlink:href="#DejaVuSans-39" x="63.623047"/>
       <use xlink:href="#DejaVuSans-2d" x="127.246094"/>
       <use xlink:href="#DejaVuSans-30" x="163.330078"/>
       <use xlink:href="#DejaVuSans-34" x="226.953125"/>
       <use xlink:href="#DejaVuSans-20" x="290.576172"/>
       <use xlink:href="#DejaVuSans-30" x="322.363281"/>
       <use xlink:href="#DejaVuSans-30" x="385.986328"/>
      </g>
     </g>
    </g>
    <g id="xtick_5">
     <g id="line2d_5">
      <g>
       <use xlink:href="#mccedcdf2e3" x="787.433879" y="359.517187" style="stroke: #000000; stroke-width: 0.8"/>
      </g>
     </g>
     <g id="text_5">
      <!-- 09-04 12 -->
      <g transform="translate(764.95341 374.115625) scale(0.1 -0.1)">
       <use xlink:href="#DejaVuSans-30"/>
       <use xlink:href="#DejaVuSans-39" x="63.623047"/>
       <use xlink:href="#DejaVuSans-2d" x="127.246094"/>
       <use xlink:href="#DejaVuSans-30" x="163.330078"/>
       <use xlink:href="#DejaVuSans-34" x="226.953125"/>
       <use xlink:href="#DejaVuSans-20" x="290.576172"/>
       <use xlink:href="#DejaVuSans-31" x="322.363281"/>
       <use xlink:href="#DejaVuSans-32" x="385.986328"/>
      </g>
     </g>
    </g>
    <g id="xtick_6">
     <g id="line2d_6">
      <g>
       <use xlink:href="#mccedcdf2e3" x="953.687824" y="359.517187" style="stroke: #000000; stroke-width: 0.8"/>
      </g>
     </g>
     <g id="text_6">
      <!-- 09-05 00 -->
      <g transform="translate(931.207355 374.115625) scale(0.1 -0.1)">
       <defs>
        <path id="DejaVuSans-35" d="M 691 4666 
L 3169 4666 
L 3169 4134 
L 1269 4134 
L 1269 2991 
Q 1406 3038 1543 3061 
Q 1681 3084 1819 3084 
Q 2600 3084 3056 2656 
Q 3513 2228 3513 1497 
Q 3513 744 3044 326 
Q 2575 -91 1722 -91 
Q 1428 -91 1123 -41 
Q 819 9 494 109 
L 494 744 
Q 775 591 1075 516 
Q 1375 441 1709 441 
Q 2250 441 2565 725 
Q 2881 1009 2881 1497 
Q 2881 1984 2565 2268 
Q 2250 2553 1709 2553 
Q 1456 2553 1204 2497 
Q 953 2441 691 2322 
L 691 4666 
z
" transform="scale(0.015625)"/>
       </defs>
       <use xlink:href="#DejaVuSans-30"/>
       <use xlink:href="#DejaVuSans-39" x="63.623047"/>
       <use xlink:href="#DejaVuSans-2d" x="127.246094"/>
       <use xlink:href="#DejaVuSans-30" x="163.330078"/>
       <use xlink:href="#DejaVuSans-35" x="226.953125"/>
       <use xlink:href="#DejaVuSans-20" x="290.576172"/>
       <use xlink:href="#DejaVuSans-30" x="322.363281"/>
       <use xlink:href="#DejaVuSans-30" x="385.986328"/>
      </g>
     </g>
    </g>
    <g id="xtick_7">
     <g id="line2d_7">
      <g>
       <use xlink:href="#mccedcdf2e3" x="1119.941768" y="359.517187" style="stroke: #000000; stroke-width: 0.8"/>
      </g>
     </g>
     <g id="text_7">
      <!-- 09-05 12 -->
      <g transform="translate(1097.461299 374.115625) scale(0.1 -0.1)">
       <use xlink:href="#DejaVuSans-30"/>
       <use xlink:href="#DejaVuSans-39" x="63.623047"/>
       <use xlink:href="#DejaVuSans-2d" x="127.246094"/>
       <use xlink:href="#DejaVuSans-30" x="163.330078"/>
       <use xlink:href="#DejaVuSans-35" x="226.953125"/>
       <use xlink:href="#DejaVuSans-20" x="290.576172"/>
       <use xlink:href="#DejaVuSans-31" x="322.363281"/>
       <use xlink:href="#DejaVuSans-32" x="385.986328"/>
      </g>
     </g>
    </g>
    <g id="text_8">
     <!-- Time -->
     <g transform="translate(592.554688 389.313437) scale(0.12 -0.12)">
      <defs>
       <path id="DejaVuSans-54" d="M -19 4666 
L 3928 4666 
L 3928 4134 
L 2272 4134 
L 2272 0 
L 1638 0 
L 1638 4134 
L -19 4134 
L -19 4666 
z
" transform="scale(0.015625)"/>
       <path id="DejaVuSans-69" d="M 603 3500 
L 1178 3500 
L 1178 0 
L 603 0 
L 603 3500 
z
M 603 4863 
L 1178 4863 
L 1178 4134 
L 603 4134 
L 603 4863 
z
" transform="scale(0.015625)"/>
       <path id="DejaVuSans-6d" d="M 3328 2828 
Q 3544 3216 3844 3400 
Q 4144 3584 4550 3584 
Q 5097 3584 5394 3201 
Q 5691 2819 5691 2113 
L 5691 0 
L 5113 0 
L 5113 2094 
Q 5113 2597 4934 2840 
Q 4756 3084 4391 3084 
Q 3944 3084 3684 2787 
Q 3425 2491 3425 1978 
L 3425 0 
L 2847 0 
L 2847 2094 
Q 2847 2600 2669 2842 
Q 2491 3084 2119 3084 
Q 1678 3084 1418 2786 
Q 1159 2488 1159 1978 
L 1159 0 
L 581 0 
L 581 3500 
L 1159 3500 
L 1159 2956 
Q 1356 3278 1631 3431 
Q 1906 3584 2284 3584 
Q 2666 3584 2933 3390 
Q 3200 3197 3328 2828 
z
" transform="scale(0.015625)"/>
       <path id="DejaVuSans-65" d="M 3597 1894 
L 3597 1613 
L 953 1613 
Q 991 1019 1311 708 
Q 1631 397 2203 397 
Q 2534 397 2845 478 
Q 3156 559 3463 722 
L 3463 178 
Q 3153 47 2828 -22 
Q 2503 -91 2169 -91 
Q 1331 -91 842 396 
Q 353 884 353 1716 
Q 353 2575 817 3079 
Q 1281 3584 2069 3584 
Q 2775 3584 3186 3129 
Q 3597 2675 3597 1894 
z
M 3022 2063 
Q 3016 2534 2758 2815 
Q 2500 3097 2075 3097 
Q 1594 3097 1305 2825 
Q 1016 2553 972 2059 
L 3022 2063 
z
" transform="scale(0.015625)"/>
      </defs>
      <use xlink:href="#DejaVuSans-54"/>
      <use xlink:href="#DejaVuSans-69" x="57.958984"/>
      <use xlink:href="#DejaVuSans-6d" x="85.742188"/>
      <use xlink:href="#DejaVuSans-65" x="183.154297"/>
     </g>
    </g>
   </g>
   <g id="matplotlib.axis_2">
    <g id="ytick_1">
     <g id="line2d_8">
      <defs>
       <path id="mf8a93a3f59" d="M 0 0 
L -3.5 0 
" style="stroke: #000000; stroke-width: 0.8"/>
      </defs>
      <g>
       <use xlink:href="#mf8a93a3f59" x="49.235" y="344.397187" style="stroke: #000000; stroke-width: 0.8"/>
      </g>
     </g>
     <g id="text_9">
      <!-- 0 -->
      <g transform="translate(35.8725 348.196406) scale(0.1 -0.1)">
       <use xlink:href="#DejaVuSans-30"/>
      </g>
     </g>
    </g>
    <g id="ytick_2">
     <g id="line2d_9">
      <g>
       <use xlink:href="#mf8a93a3f59" x="49.235" y="297.2209" style="stroke: #000000; stroke-width: 0.8"/>
      </g>
     </g>
     <g id="text_10">
      <!-- 100 -->
      <g transform="translate(23.1475 301.020119) scale(0.1 -0.1)">
       <use xlink:href="#DejaVuSans-31"/>
       <use xlink:href="#DejaVuSans-30" x="63.623047"/>
       <use xlink:href="#DejaVuSans-30" x="127.246094"/>
      </g>
     </g>
    </g>
    <g id="ytick_3">
     <g id="line2d_10">
      <g>
       <use xlink:href="#mf8a93a3f59" x="49.235" y="250.044613" style="stroke: #000000; stroke-width: 0.8"/>
      </g>
     </g>
     <g id="text_11">
      <!-- 200 -->
      <g transform="translate(23.1475 253.843832) scale(0.1 -0.1)">
       <use xlink:href="#DejaVuSans-32"/>
       <use xlink:href="#DejaVuSans-30" x="63.623047"/>
       <use xlink:href="#DejaVuSans-30" x="127.246094"/>
      </g>
     </g>
    </g>
    <g id="ytick_4">
     <g id="line2d_11">
      <g>
       <use xlink:href="#mf8a93a3f59" x="49.235" y="202.868326" style="stroke: #000000; stroke-width: 0.8"/>
      </g>
     </g>
     <g id="text_12">
      <!-- 300 -->
      <g transform="translate(23.1475 206.667545) scale(0.1 -0.1)">
       <use xlink:href="#DejaVuSans-33"/>
       <use xlink:href="#DejaVuSans-30" x="63.623047"/>
       <use xlink:href="#DejaVuSans-30" x="127.246094"/>
      </g>
     </g>
    </g>
    <g id="ytick_5">
     <g id="line2d_12">
      <g>
       <use xlink:href="#mf8a93a3f59" x="49.235" y="155.692039" style="stroke: #000000; stroke-width: 0.8"/>
      </g>
     </g>
     <g id="text_13">
      <!-- 400 -->
      <g transform="translate(23.1475 159.491258) scale(0.1 -0.1)">
       <use xlink:href="#DejaVuSans-34"/>
       <use xlink:href="#DejaVuSans-30" x="63.623047"/>
       <use xlink:href="#DejaVuSans-30" x="127.246094"/>
      </g>
     </g>
    </g>
    <g id="ytick_6">
     <g id="line2d_13">
      <g>
       <use xlink:href="#mf8a93a3f59" x="49.235" y="108.515752" style="stroke: #000000; stroke-width: 0.8"/>
      </g>
     </g>
     <g id="text_14">
      <!-- 500 -->
      <g transform="translate(23.1475 112.314971) scale(0.1 -0.1)">
       <use xlink:href="#DejaVuSans-35"/>
       <use xlink:href="#DejaVuSans-30" x="63.623047"/>
       <use xlink:href="#DejaVuSans-30" x="127.246094"/>
      </g>
     </g>
    </g>
    <g id="ytick_7">
     <g id="line2d_14">
      <g>
       <use xlink:href="#mf8a93a3f59" x="49.235" y="61.339465" style="stroke: #000000; stroke-width: 0.8"/>
      </g>
     </g>
     <g id="text_15">
      <!-- 600 -->
      <g transform="translate(23.1475 65.138684) scale(0.1 -0.1)">
       <defs>
        <path id="DejaVuSans-36" d="M 2113 2584 
Q 1688 2584 1439 2293 
Q 1191 2003 1191 1497 
Q 1191 994 1439 701 
Q 1688 409 2113 409 
Q 2538 409 2786 701 
Q 3034 994 3034 1497 
Q 3034 2003 2786 2293 
Q 2538 2584 2113 2584 
z
M 3366 4563 
L 3366 3988 
Q 3128 4100 2886 4159 
Q 2644 4219 2406 4219 
Q 1781 4219 1451 3797 
Q 1122 3375 1075 2522 
Q 1259 2794 1537 2939 
Q 1816 3084 2150 3084 
Q 2853 3084 3261 2657 
Q 3669 2231 3669 1497 
Q 3669 778 3244 343 
Q 2819 -91 2113 -91 
Q 1303 -91 875 529 
Q 447 1150 447 2328 
Q 447 3434 972 4092 
Q 1497 4750 2381 4750 
Q 2619 4750 2861 4703 
Q 3103 4656 3366 4563 
z
" transform="scale(0.015625)"/>
       </defs>
       <use xlink:href="#DejaVuSans-36"/>
       <use xlink:href="#DejaVuSans-30" x="63.623047"/>
       <use xlink:href="#DejaVuSans-30" x="127.246094"/>
      </g>
     </g>
    </g>
    <g id="text_16">
     <!-- Pellet_Count -->
     <g transform="translate(16.318125 230.485312) rotate(-90) scale(0.12 -0.12)">
      <defs>
       <path id="DejaVuSans-50" d="M 1259 4147 
L 1259 2394 
L 2053 2394 
Q 2494 2394 2734 2622 
Q 2975 2850 2975 3272 
Q 2975 3691 2734 3919 
Q 2494 4147 2053 4147 
L 1259 4147 
z
M 628 4666 
L 2053 4666 
Q 2838 4666 3239 4311 
Q 3641 3956 3641 3272 
Q 3641 2581 3239 2228 
Q 2838 1875 2053 1875 
L 1259 1875 
L 1259 0 
L 628 0 
L 628 4666 
z
" transform="scale(0.015625)"/>
       <path id="DejaVuSans-6c" d="M 603 4863 
L 1178 4863 
L 1178 0 
L 603 0 
L 603 4863 
z
" transform="scale(0.015625)"/>
       <path id="DejaVuSans-74" d="M 1172 4494 
L 1172 3500 
L 2356 3500 
L 2356 3053 
L 1172 3053 
L 1172 1153 
Q 1172 725 1289 603 
Q 1406 481 1766 481 
L 2356 481 
L 2356 0 
L 1766 0 
Q 1100 0 847 248 
Q 594 497 594 1153 
L 594 3053 
L 172 3053 
L 172 3500 
L 594 3500 
L 594 4494 
L 1172 4494 
z
" transform="scale(0.015625)"/>
       <path id="DejaVuSans-5f" d="M 3263 -1063 
L 3263 -1509 
L -63 -1509 
L -63 -1063 
L 3263 -1063 
z
" transform="scale(0.015625)"/>
       <path id="DejaVuSans-43" d="M 4122 4306 
L 4122 3641 
Q 3803 3938 3442 4084 
Q 3081 4231 2675 4231 
Q 1875 4231 1450 3742 
Q 1025 3253 1025 2328 
Q 1025 1406 1450 917 
Q 1875 428 2675 428 
Q 3081 428 3442 575 
Q 3803 722 4122 1019 
L 4122 359 
Q 3791 134 3420 21 
Q 3050 -91 2638 -91 
Q 1578 -91 968 557 
Q 359 1206 359 2328 
Q 359 3453 968 4101 
Q 1578 4750 2638 4750 
Q 3056 4750 3426 4639 
Q 3797 4528 4122 4306 
z
" transform="scale(0.015625)"/>
       <path id="DejaVuSans-6f" d="M 1959 3097 
Q 1497 3097 1228 2736 
Q 959 2375 959 1747 
Q 959 1119 1226 758 
Q 1494 397 1959 397 
Q 2419 397 2687 759 
Q 2956 1122 2956 1747 
Q 2956 2369 2687 2733 
Q 2419 3097 1959 3097 
z
M 1959 3584 
Q 2709 3584 3137 3096 
Q 3566 2609 3566 1747 
Q 3566 888 3137 398 
Q 2709 -91 1959 -91 
Q 1206 -91 779 398 
Q 353 888 353 1747 
Q 353 2609 779 3096 
Q 1206 3584 1959 3584 
z
" transform="scale(0.015625)"/>
       <path id="DejaVuSans-75" d="M 544 1381 
L 544 3500 
L 1119 3500 
L 1119 1403 
Q 1119 906 1312 657 
Q 1506 409 1894 409 
Q 2359 409 2629 706 
Q 2900 1003 2900 1516 
L 2900 3500 
L 3475 3500 
L 3475 0 
L 2900 0 
L 2900 538 
Q 2691 219 2414 64 
Q 2138 -91 1772 -91 
Q 1169 -91 856 284 
Q 544 659 544 1381 
z
M 1991 3584 
L 1991 3584 
z
" transform="scale(0.015625)"/>
       <path id="DejaVuSans-6e" d="M 3513 2113 
L 3513 0 
L 2938 0 
L 2938 2094 
Q 2938 2591 2744 2837 
Q 2550 3084 2163 3084 
Q 1697 3084 1428 2787 
Q 1159 2491 1159 1978 
L 1159 0 
L 581 0 
L 581 3500 
L 1159 3500 
L 1159 2956 
Q 1366 3272 1645 3428 
Q 1925 3584 2291 3584 
Q 2894 3584 3203 3211 
Q 3513 2838 3513 2113 
z
" transform="scale(0.015625)"/>
      </defs>
      <use xlink:href="#DejaVuSans-50"/>
      <use xlink:href="#DejaVuSans-65" x="56.677734"/>
      <use xlink:href="#DejaVuSans-6c" x="118.201172"/>
      <use xlink:href="#DejaVuSans-6c" x="145.984375"/>
      <use xlink:href="#DejaVuSans-65" x="173.767578"/>
      <use xlink:href="#DejaVuSans-74" x="235.291016"/>
      <use xlink:href="#DejaVuSans-5f" x="274.5"/>
      <use xlink:href="#DejaVuSans-43" x="324.5"/>
      <use xlink:href="#DejaVuSans-6f" x="394.324219"/>
      <use xlink:href="#DejaVuSans-75" x="455.505859"/>
      <use xlink:href="#DejaVuSans-6e" x="518.884766"/>
      <use xlink:href="#DejaVuSans-74" x="582.263672"/>
     </g>
    </g>
   </g>
   <g id="line2d_15">
    <path d="M 99.962273 344.397187 
L 99.985364 344.397187 
L 100.081575 343.925425 
L 100.108515 343.453662 
L 100.312484 343.453662 
L 100.431786 342.510136 
L 100.524149 342.510136 
L 100.59727 341.56661 
L 100.662694 341.56661 
L 100.766603 340.151322 
L 100.808936 340.151322 
L 100.816633 339.679559 
L 102.398355 339.679559 
L 102.406052 339.207796 
L 102.552294 339.207796 
L 102.652354 338.26427 
L 102.725475 338.26427 
L 102.817838 337.320744 
L 114.759643 337.320744 
L 115.005946 336.848982 
L 115.140642 336.848982 
L 115.148339 336.377219 
L 115.340763 336.377219 
L 115.34846 335.905456 
L 115.533186 335.905456 
L 115.537035 335.433693 
L 115.660186 335.433693 
L 115.667883 334.96193 
L 115.810276 334.96193 
L 115.914185 334.018404 
L 123.722732 334.018404 
L 123.80355 333.074879 
L 123.88052 333.074879 
L 123.992125 332.603116 
L 125.050455 332.603116 
L 125.065849 332.131353 
L 125.554604 332.131353 
L 125.554604 332.131353 
L 125.681604 331.187827 
L 134.217513 331.187827 
L 134.329118 330.716064 
L 135.22966 330.716064 
L 135.337418 329.772539 
L 135.58372 329.772539 
L 135.687628 328.829013 
L 135.772295 328.829013 
L 135.864658 327.885487 
L 136.168687 327.885487 
L 136.257202 326.941961 
L 136.334172 326.941961 
L 136.341869 326.470198 
L 137.09232 326.470198 
L 138.508558 325.998436 
L 138.881859 325.998436 
L 138.889556 325.526673 
L 139.520706 325.526673 
L 139.528402 325.05491 
L 142.872724 325.05491 
L 142.968935 324.111384 
L 143.030511 324.111384 
L 143.119026 323.167858 
L 143.330692 323.167858 
L 143.415358 322.224333 
L 143.484631 322.224333 
L 143.584691 321.280807 
L 161.206839 321.280807 
L 161.318445 320.809044 
L 161.449293 320.809044 
L 161.533959 319.865518 
L 161.60708 319.865518 
L 161.710989 318.921992 
L 161.822595 318.921992 
L 161.911109 317.978467 
L 161.972685 317.978467 
L 162.0612 317.034941 
L 162.307502 317.034941 
L 162.384471 316.091415 
L 162.542259 316.091415 
L 162.661561 315.14789 
L 162.726985 315.14789 
L 162.730834 314.676127 
L 178.047748 314.676127 
L 178.155505 314.204364 
L 178.174748 313.732601 
L 178.290202 313.732601 
L 178.386414 312.789075 
L 178.482625 312.789075 
L 178.609625 311.373787 
L 179.021411 311.373787 
L 188.923527 310.902024 
L 189.027436 309.958498 
L 189.09286 309.958498 
L 189.165981 309.014972 
L 189.604706 309.014972 
L 189.712464 308.071446 
L 189.789433 308.071446 
L 189.827918 307.599684 
L 189.827918 307.599684 
L 189.931826 307.599684 
L 189.951069 306.656158 
L 190.085765 306.656158 
L 190.212765 305.240869 
L 197.128467 305.240869 
L 197.240073 304.769106 
L 197.255467 304.769106 
L 197.343981 303.825581 
L 197.44789 303.825581 
L 197.54795 303.353818 
L 200.980786 303.353818 
L 201.02312 302.410292 
L 201.134725 302.410292 
L 201.138574 301.938529 
L 201.638875 301.938529 
L 201.642723 301.466766 
L 201.754329 301.466766 
L 201.854389 300.523241 
L 201.946753 300.523241 
L 202.05451 300.051478 
L 202.073752 300.051478 
L 202.169964 299.107952 
L 202.270024 299.107952 
L 202.346994 298.164426 
L 210.455722 298.164426 
L 210.463419 297.692663 
L 213.33053 297.692663 
L 213.438287 297.2209 
L 213.588377 297.2209 
L 213.70768 295.805612 
L 213.788498 295.805612 
L 213.865467 295.333849 
L 214.496616 292.031509 
L 214.515859 291.559746 
L 218.194997 291.559746 
L 218.518268 291.087983 
L 218.756874 291.087983 
L 218.826146 290.61622 
L 222.563011 290.61622 
L 222.686163 289.672695 
L 225.041427 289.672695 
L 225.095305 288.729169 
L 225.187669 288.729169 
L 225.195366 288.257406 
L 225.306971 288.257406 
L 225.399335 287.31388 
L 225.476304 287.31388 
L 225.564819 286.842117 
L 232.03025 286.842117 
L 232.58443 286.370354 
L 232.588278 285.898592 
L 232.753763 285.898592 
L 232.757611 285.426829 
L 232.923095 285.426829 
L 233.027004 284.483303 
L 233.100125 284.483303 
L 233.204034 283.539777 
L 233.423396 283.539777 
L 233.492669 282.596251 
L 233.581184 282.596251 
L 233.696638 281.652726 
L 233.758213 281.652726 
L 233.84288 280.7092 
L 249.744762 280.7092 
L 249.74861 280.237437 
L 250.160397 280.237437 
L 250.272002 279.765674 
L 250.295093 279.765674 
L 250.399002 279.293911 
L 250.445183 279.293911 
L 250.564486 278.350386 
L 267.482364 278.350386 
L 267.59397 277.40686 
L 267.740212 277.40686 
L 267.855666 276.935097 
L 298.905129 276.935097 
L 298.908978 276.463334 
L 299.30537 276.463334 
L 299.393885 275.519808 
L 299.478552 275.519808 
L 299.590157 275.048046 
L 299.620945 275.048046 
L 299.624794 274.576283 
L 299.778732 274.576283 
L 299.898035 274.10452 
L 299.913429 273.632757 
L 326.752665 273.632757 
L 326.856574 273.160994 
L 326.918149 273.160994 
L 327.029755 272.689231 
L 327.052846 272.689231 
L 327.1683 271.745705 
L 327.229876 271.745705 
L 327.31839 270.80218 
L 327.387663 270.80218 
L 327.476178 269.858654 
L 327.895661 269.858654 
L 328.003418 269.386891 
L 332.810158 269.386891 
L 353.372539 268.915128 
L 353.461054 267.971602 
L 353.530326 267.971602 
L 353.611144 267.028077 
L 353.699659 267.028077 
L 353.807416 266.084551 
L 353.988294 266.084551 
L 377.12915 265.612788 
L 377.236907 264.669262 
L 377.340816 264.669262 
L 377.421634 263.725737 
L 377.494755 263.725737 
L 377.579421 262.782211 
L 377.660239 262.782211 
L 377.760299 261.838685 
L 389.432711 261.838685 
L 389.552014 260.895159 
L 389.644377 260.895159 
L 389.648226 260.423397 
L 397.695379 260.423397 
L 397.806984 259.479871 
L 397.891651 259.479871 
L 397.995559 258.536345 
L 398.076377 258.536345 
L 398.172589 257.592819 
L 406.238984 257.592819 
L 406.358287 256.649294 
L 406.439104 256.649294 
L 406.546862 255.705768 
L 409.625638 255.705768 
L 409.729547 254.762242 
L 409.79882 254.762242 
L 409.895031 253.818716 
L 409.972001 253.818716 
L 410.060516 252.875191 
L 410.122091 252.875191 
L 410.12594 252.403428 
L 413.050778 252.403428 
L 413.127747 251.459902 
L 413.189323 251.459902 
L 413.273989 250.516376 
L 413.327867 250.516376 
L 413.439473 250.044613 
L 418.888908 250.044613 
L 418.942787 249.101088 
L 419.123665 249.101088 
L 419.231422 248.629325 
L 419.258361 248.629325 
L 419.26221 248.157562 
L 419.385361 248.157562 
L 419.477724 247.214036 
L 419.558542 247.214036 
L 419.566239 246.742273 
L 419.68939 246.742273 
L 419.770208 245.798748 
L 419.847177 245.798748 
L 419.927995 244.855222 
L 420.004965 244.855222 
L 420.008813 244.383459 
L 423.895769 244.383459 
L 423.907314 243.911696 
L 424.053556 243.911696 
L 424.134374 242.96817 
L 424.230586 242.96817 
L 424.311404 242.024645 
L 424.384524 242.024645 
L 424.469191 241.081119 
L 424.526918 241.081119 
L 424.611584 240.137593 
L 431.773589 240.137593 
L 431.889043 239.194067 
L 431.973709 239.194067 
L 432.104557 238.250542 
L 432.212314 238.250542 
L 432.32392 237.778779 
L 434.486761 237.778779 
L 434.586821 236.835253 
L 434.74076 236.835253 
L 434.821578 235.891727 
L 435.052486 235.891727 
L 435.056334 235.419964 
L 438.862472 235.419964 
L 438.974078 234.948202 
L 439.016411 234.948202 
L 439.108774 234.004676 
L 444.677512 234.004676 
L 444.78142 233.06115 
L 444.885329 233.06115 
L 444.950753 232.117624 
L 445.031571 232.117624 
L 445.100844 231.174099 
L 445.216298 231.174099 
L 445.216298 231.174099 
L 445.316358 230.230573 
L 445.41257 230.230573 
L 445.497236 229.287047 
L 445.566509 229.287047 
L 445.574205 228.815284 
L 445.716599 228.815284 
L 445.808962 227.871758 
L 445.866689 227.871758 
L 445.874386 227.399996 
L 449.357252 227.399996 
L 449.361101 226.928233 
L 460.53706 226.928233 
L 480.168111 226.45647 
L 480.272019 225.984707 
L 480.310504 225.984707 
L 480.310504 225.984707 
L 480.425958 225.512944 
L 480.437504 225.512944 
L 480.518322 224.569418 
L 480.703048 224.569418 
L 480.791563 223.625893 
L 480.856987 223.625893 
L 480.937805 222.682367 
L 481.010926 222.682367 
L 481.014774 222.210604 
L 481.12638 222.210604 
L 481.234137 221.267078 
L 481.295713 221.267078 
L 481.380379 220.323553 
L 481.457349 220.323553 
L 481.461197 219.85179 
L 510.224669 219.85179 
L 510.255457 219.380027 
L 510.39785 219.380027 
L 510.509456 218.436501 
L 510.67494 218.436501 
L 510.763455 217.492975 
L 510.828879 217.492975 
L 510.921242 216.54945 
L 511.032848 216.54945 
L 511.136756 215.605924 
L 528.758905 215.605924 
L 528.874359 215.134161 
L 528.893601 215.134161 
L 529.016752 214.190635 
L 529.463175 214.190635 
L 529.574781 213.247109 
L 529.75181 213.247109 
L 529.759507 212.775347 
L 529.87881 212.775347 
L 529.998112 211.831821 
L 530.086627 211.831821 
L 530.20593 210.888295 
L 530.30599 210.888295 
L 530.402202 209.944769 
L 530.486868 209.944769 
L 530.586929 209.001244 
L 530.667746 209.001244 
L 530.775504 208.057718 
L 541.905282 208.057718 
L 541.947615 207.114192 
L 542.070766 207.114192 
L 542.082311 206.642429 
L 546.257902 206.642429 
L 546.265599 206.170666 
L 546.392599 206.170666 
L 546.400296 205.698904 
L 546.523447 205.698904 
L 546.531144 205.227141 
L 546.669689 205.227141 
L 546.669689 205.227141 
L 546.796688 204.283615 
L 546.946778 204.283615 
L 546.962172 203.811852 
L 547.09302 203.811852 
L 547.16999 203.340089 
L 550.826037 203.340089 
L 550.833734 202.868326 
L 550.99537 202.868326 
L 551.114673 202.396563 
L 551.149309 202.396563 
L 551.153157 201.924801 
L 551.287854 201.924801 
L 551.387914 200.981275 
L 551.476429 200.981275 
L 551.480277 200.509512 
L 555.209446 200.509512 
L 555.347991 199.565986 
L 555.436505 199.565986 
L 555.548111 198.622461 
L 555.632777 198.622461 
L 555.744383 198.150698 
L 556.475593 198.150698 
L 556.58335 197.207172 
L 556.694955 197.207172 
L 556.814258 196.735409 
L 574.982889 196.735409 
L 575.113737 195.791883 
L 575.190707 195.791883 
L 575.275373 194.848358 
L 575.340797 194.848358 
L 575.43316 193.904832 
L 575.502433 193.904832 
L 575.506281 193.433069 
L 575.625584 193.433069 
L 575.725644 192.489543 
L 575.798765 192.489543 
L 575.902674 191.546017 
L 575.979643 191.546017 
L 576.091249 190.602492 
L 593.551762 190.602492 
L 593.571004 190.130729 
L 593.73264 190.130729 
L 593.736488 189.658966 
L 594.140578 189.658966 
L 594.148275 189.187203 
L 594.298365 189.187203 
L 594.417668 188.71544 
L 594.444607 188.71544 
L 594.533122 187.771914 
L 594.652424 187.771914 
L 594.771727 187.300152 
L 605.751414 187.300152 
L 612.116785 186.828389 
L 612.228391 186.356626 
L 612.243785 186.356626 
L 612.336148 185.4131 
L 636.446819 185.4131 
L 636.523788 184.469574 
L 636.581515 184.469574 
L 636.658485 183.526049 
L 636.735454 183.526049 
L 636.804726 182.582523 
L 636.854757 182.582523 
L 636.931726 181.638997 
L 637.054877 181.638997 
L 637.131846 180.695471 
L 637.197271 180.695471 
L 637.262695 179.751946 
L 637.331967 179.751946 
L 637.428179 179.280183 
L 664.151961 179.280183 
L 664.259718 178.80842 
L 665.533562 178.80842 
L 665.652865 178.336657 
L 665.660562 178.336657 
L 665.772167 177.393131 
L 665.914561 177.393131 
L 666.030015 176.921368 
L 685.730338 176.921368 
L 685.730338 176.921368 
L 685.84964 175.977843 
L 685.918913 175.977843 
L 686.045912 175.50608 
L 686.369184 175.50608 
L 703.541061 175.034317 
L 703.633424 174.090791 
L 703.706545 174.090791 
L 703.779666 173.147266 
L 703.841242 173.147266 
L 703.848939 172.675503 
L 704.052908 172.675503 
L 704.129877 171.731977 
L 704.191453 171.731977 
L 704.272271 170.788451 
L 704.337695 170.788451 
L 704.430058 169.844925 
L 722.67181 169.844925 
L 722.756476 168.9014 
L 722.829597 168.9014 
L 722.910415 167.957874 
L 722.979688 167.957874 
L 723.110536 167.014348 
L 723.199051 167.014348 
L 723.314505 166.070822 
L 723.422262 166.070822 
L 723.518474 165.127297 
L 723.560807 165.127297 
L 723.649322 164.655534 
L 741.968043 164.655534 
L 741.979589 164.183771 
L 742.3298 164.183771 
L 742.426011 163.240245 
L 742.556859 163.240245 
L 742.641526 162.296719 
L 742.718495 162.296719 
L 742.803162 161.353194 
L 742.949403 161.353194 
L 743.045615 160.409668 
L 743.114888 160.409668 
L 743.195706 159.466142 
L 743.268827 159.466142 
L 743.357341 158.522617 
L 743.422765 158.522617 
L 743.507432 157.579091 
L 743.576704 157.579091 
L 743.584401 157.107328 
L 755.988023 157.107328 
L 756.080386 156.163802 
L 756.141962 156.163802 
L 756.249719 155.692039 
L 756.676899 155.692039 
L 756.788505 155.220276 
L 756.807747 155.220276 
L 756.884717 154.276751 
L 759.509374 154.276751 
L 759.632525 153.804988 
L 760.313704 153.804988 
L 760.417613 153.333225 
L 760.948702 153.333225 
L 761.056459 152.861462 
L 763.180815 152.861462 
L 763.296269 151.917936 
L 763.377087 151.917936 
L 763.450208 150.974411 
L 763.519481 150.974411 
L 763.631086 150.502648 
L 763.734995 150.502648 
L 763.819661 149.559122 
L 763.885085 149.559122 
L 763.965903 148.615596 
L 764.039024 148.615596 
L 764.135236 148.143833 
L 765.074263 148.143833 
L 765.18202 147.200308 
L 765.247444 147.200308 
L 765.328262 146.256782 
L 765.628443 146.256782 
L 765.713109 145.313256 
L 765.78623 145.313256 
L 765.793927 144.841493 
L 782.453958 144.841493 
L 782.588654 143.897968 
L 782.627139 143.897968 
L 782.627139 143.897968 
L 782.638684 143.426205 
L 783.850953 143.426205 
L 783.95871 142.954442 
L 783.985649 142.954442 
L 783.993346 142.482679 
L 784.178073 142.482679 
L 784.289678 142.010916 
L 784.362799 141.06739 
L 784.520587 141.06739 
L 784.597556 140.595627 
L 785.721309 140.595627 
L 785.829067 139.652102 
L 787.437728 139.652102 
L 787.441576 139.180339 
L 787.572424 139.180339 
L 787.680181 138.708576 
L 787.857211 138.708576 
L 787.945726 137.76505 
L 788.022695 137.76505 
L 788.026544 137.293287 
L 789.323478 137.293287 
L 789.331175 136.821524 
L 789.527447 136.821524 
L 789.608265 135.877999 
L 792.229074 135.877999 
L 792.232922 135.406236 
L 792.371467 135.406236 
L 792.452285 134.46271 
L 792.544648 134.46271 
L 792.648557 133.519184 
L 792.706284 133.519184 
L 792.798648 132.575659 
L 792.875617 132.575659 
L 792.998768 131.632133 
L 799.468048 131.632133 
L 799.568108 131.16037 
L 800.087651 131.16037 
L 800.210803 130.216844 
L 801.488495 130.216844 
L 801.603949 129.745081 
L 801.619343 129.745081 
L 801.730949 128.801556 
L 801.850251 128.801556 
L 801.934918 127.85803 
L 801.988796 127.85803 
L 802.085008 126.914504 
L 802.215856 126.914504 
L 802.312068 125.970978 
L 802.516037 125.970978 
L 802.527582 125.499216 
L 818.768129 125.499216 
L 818.845099 124.55569 
L 818.902826 124.55569 
L 819.025977 123.612164 
L 819.156825 122.668638 
L 819.229946 121.725113 
L 819.310764 121.725113 
L 819.380036 120.781587 
L 819.449309 120.781587 
L 819.557066 119.838061 
L 819.938065 119.838061 
L 819.941913 119.366298 
L 820.611547 119.366298 
L 820.719304 118.894535 
L 820.727001 118.894535 
L 821.004091 117.479247 
L 836.53652 117.479247 
L 836.575004 116.535721 
L 836.698156 116.535721 
L 836.802064 115.592195 
L 836.975245 115.592195 
L 836.982942 115.120432 
L 848.262811 115.120432 
L 848.366719 114.176907 
L 848.443689 114.176907 
L 848.462931 113.705144 
L 848.755415 113.705144 
L 848.863172 113.233381 
L 848.967081 112.289855 
L 849.055596 112.289855 
L 849.144111 111.346329 
L 859.230953 111.346329 
L 859.323316 110.402804 
L 859.407983 110.402804 
L 859.411831 109.931041 
L 859.788981 109.931041 
L 859.900587 109.459278 
L 859.904435 109.459278 
L 859.962162 108.987515 
L 860.09301 108.987515 
L 860.096859 108.515752 
L 860.216161 108.515752 
L 860.323919 107.572227 
L 866.200534 107.572227 
L 866.312139 106.628701 
L 866.339079 106.628701 
L 866.419897 105.685175 
L 866.485321 105.685175 
L 866.573835 104.741649 
L 866.696987 104.741649 
L 866.723926 104.269886 
L 867.120318 104.269886 
L 867.208833 103.326361 
L 874.197656 103.326361 
L 874.347747 101.911072 
L 874.447807 101.911072 
L 874.451655 101.439309 
L 874.586352 101.439309 
L 874.655624 100.495783 
L 874.713351 100.495783 
L 874.840351 99.552258 
L 874.905775 99.552258 
L 875.036623 98.136969 
L 875.117441 98.136969 
L 875.240592 96.72168 
L 878.200066 96.72168 
L 878.203915 96.249918 
L 878.338611 96.249918 
L 878.446368 95.306392 
L 880.051181 95.306392 
L 880.066575 94.834629 
L 880.189726 94.834629 
L 880.20512 94.362866 
L 881.001753 94.362866 
L 881.3866 93.891103 
L 881.405842 93.891103 
L 881.482812 93.41934 
L 881.629054 93.41934 
L 881.640599 92.947578 
L 884.099772 92.947578 
L 884.215226 92.004052 
L 884.523104 92.004052 
L 884.638558 91.060526 
L 884.707831 91.060526 
L 884.804042 90.117 
L 884.850224 90.117 
L 884.93489 89.173475 
L 885.858523 89.173475 
L 886.081735 88.701712 
L 889.741631 88.701712 
L 889.745479 88.229949 
L 893.709404 88.229949 
L 893.817161 87.286423 
L 893.886434 87.286423 
L 893.967252 86.342897 
L 894.028827 86.342897 
L 894.113493 85.399372 
L 894.194311 85.399372 
L 894.275129 84.927609 
L 905.100878 84.927609 
L 905.181696 83.984083 
L 1012.977367 83.984083 
L 1012.981215 83.51232 
L 1013.112063 83.51232 
L 1013.227518 83.040557 
L 1013.273699 83.040557 
L 1013.362214 82.097031 
L 1013.462274 82.097031 
L 1013.546941 81.153506 
L 1013.620062 81.153506 
L 1013.72397 80.20998 
L 1013.808637 80.20998 
L 1013.912545 79.266454 
L 1040.909569 79.266454 
L 1041.017326 78.794691 
L 1041.113538 77.851166 
L 1041.186659 77.851166 
L 1041.282871 76.90764 
L 1041.456052 76.90764 
L 1041.4599 76.435877 
L 1041.933262 76.435877 
L 1041.975595 75.492351 
L 1042.087201 75.492351 
L 1042.094898 75.020588 
L 1057.100086 75.020588 
L 1057.21554 74.548826 
L 1057.223237 74.548826 
L 1057.296358 73.6053 
L 1057.361782 73.6053 
L 1057.465691 72.661774 
L 1057.54266 72.661774 
L 1057.638872 71.718248 
L 1057.71969 71.718248 
L 1057.84669 70.774723 
L 1074.610629 70.774723 
L 1074.714538 69.831197 
L 1074.803053 69.831197 
L 1074.899264 68.887671 
L 1074.964688 68.887671 
L 1075.080142 68.415908 
L 1075.087839 68.415908 
L 1075.195597 67.472383 
L 1075.284111 67.472383 
L 1075.361081 66.528857 
L 1075.453444 66.528857 
L 1075.549656 65.585331 
L 1075.61508 65.585331 
L 1075.699746 64.641805 
L 1083.554476 64.641805 
L 1083.673778 64.170042 
L 1083.69302 64.170042 
L 1083.785384 63.226517 
L 1083.835414 63.226517 
L 1084.043231 61.811228 
L 1087.206674 61.811228 
L 1087.210523 61.339465 
L 1087.533794 61.339465 
L 1087.537643 60.867702 
L 1095.057555 60.867702 
L 1095.165312 60.395939 
L 1095.173009 60.395939 
L 1095.257676 59.452414 
L 1095.319251 59.452414 
L 1095.396221 58.508888 
L 1095.465493 58.508888 
L 1095.542462 57.565362 
L 1095.607886 57.565362 
L 1095.681007 56.621836 
L 1095.75028 56.621836 
L 1095.827249 55.678311 
L 1095.973491 55.678311 
L 1096.115885 54.263022 
L 1099.429418 54.263022 
L 1099.541024 53.319496 
L 1099.637236 53.319496 
L 1099.729599 52.375971 
L 1099.783477 52.375971 
L 1099.887386 51.432445 
L 1106.94933 51.432445 
L 1107.0263 50.488919 
L 1107.110966 50.488919 
L 1107.184087 49.545393 
L 1107.307238 49.545393 
L 1107.407298 48.601868 
L 1107.491965 48.601868 
L 1107.60357 47.658342 
L 1107.688237 47.658342 
L 1107.695934 47.186579 
L 1107.926842 47.186579 
L 1107.938387 46.714816 
L 1108.080781 46.714816 
L 1108.084629 46.243053 
L 1108.38481 46.243053 
L 1108.388658 45.77129 
L 1113.753427 45.77129 
L 1113.757275 45.299528 
L 1113.891972 45.299528 
L 1113.984335 44.356002 
L 1114.07285 44.356002 
L 1114.169062 43.412476 
L 1114.242183 43.412476 
L 1114.307607 42.46895 
L 1114.423061 42.46895 
L 1114.507727 41.997187 
L 1114.507727 41.997187 
" clip-path="url(#pab5a7ff64c)" style="fill: none; stroke: #0000ff; stroke-width: 1.5; stroke-linecap: square"/>
   </g>
   <g id="patch_85">
    <path d="M 49.235 359.517187 
L 49.235 26.877187 
" style="fill: none; stroke: #000000; stroke-width: 0.8; stroke-linejoin: miter; stroke-linecap: square"/>
   </g>
   <g id="patch_86">
    <path d="M 1165.235 359.517187 
L 1165.235 26.877187 
" style="fill: none; stroke: #000000; stroke-width: 0.8; stroke-linejoin: miter; stroke-linecap: square"/>
   </g>
   <g id="patch_87">
    <path d="M 49.235 359.517187 
L 1165.235 359.517187 
" style="fill: none; stroke: #000000; stroke-width: 0.8; stroke-linejoin: miter; stroke-linecap: square"/>
   </g>
   <g id="patch_88">
    <path d="M 49.235 26.877187 
L 1165.235 26.877187 
" style="fill: none; stroke: #000000; stroke-width: 0.8; stroke-linejoin: miter; stroke-linecap: square"/>
   </g>
   <g id="text_17">
    <!-- Pellet Count and Cumulative Sum Over Time of Group 10 Mouse 2 -->
    <g transform="translate(309.734375 20.877187) scale(0.18 -0.18)">
     <defs>
      <path id="DejaVuSans-61" d="M 2194 1759 
Q 1497 1759 1228 1600 
Q 959 1441 959 1056 
Q 959 750 1161 570 
Q 1363 391 1709 391 
Q 2188 391 2477 730 
Q 2766 1069 2766 1631 
L 2766 1759 
L 2194 1759 
z
M 3341 1997 
L 3341 0 
L 2766 0 
L 2766 531 
Q 2569 213 2275 61 
Q 1981 -91 1556 -91 
Q 1019 -91 701 211 
Q 384 513 384 1019 
Q 384 1609 779 1909 
Q 1175 2209 1959 2209 
L 2766 2209 
L 2766 2266 
Q 2766 2663 2505 2880 
Q 2244 3097 1772 3097 
Q 1472 3097 1187 3025 
Q 903 2953 641 2809 
L 641 3341 
Q 956 3463 1253 3523 
Q 1550 3584 1831 3584 
Q 2591 3584 2966 3190 
Q 3341 2797 3341 1997 
z
" transform="scale(0.015625)"/>
      <path id="DejaVuSans-64" d="M 2906 2969 
L 2906 4863 
L 3481 4863 
L 3481 0 
L 2906 0 
L 2906 525 
Q 2725 213 2448 61 
Q 2172 -91 1784 -91 
Q 1150 -91 751 415 
Q 353 922 353 1747 
Q 353 2572 751 3078 
Q 1150 3584 1784 3584 
Q 2172 3584 2448 3432 
Q 2725 3281 2906 2969 
z
M 947 1747 
Q 947 1113 1208 752 
Q 1469 391 1925 391 
Q 2381 391 2643 752 
Q 2906 1113 2906 1747 
Q 2906 2381 2643 2742 
Q 2381 3103 1925 3103 
Q 1469 3103 1208 2742 
Q 947 2381 947 1747 
z
" transform="scale(0.015625)"/>
      <path id="DejaVuSans-76" d="M 191 3500 
L 800 3500 
L 1894 563 
L 2988 3500 
L 3597 3500 
L 2284 0 
L 1503 0 
L 191 3500 
z
" transform="scale(0.015625)"/>
      <path id="DejaVuSans-53" d="M 3425 4513 
L 3425 3897 
Q 3066 4069 2747 4153 
Q 2428 4238 2131 4238 
Q 1616 4238 1336 4038 
Q 1056 3838 1056 3469 
Q 1056 3159 1242 3001 
Q 1428 2844 1947 2747 
L 2328 2669 
Q 3034 2534 3370 2195 
Q 3706 1856 3706 1288 
Q 3706 609 3251 259 
Q 2797 -91 1919 -91 
Q 1588 -91 1214 -16 
Q 841 59 441 206 
L 441 856 
Q 825 641 1194 531 
Q 1563 422 1919 422 
Q 2459 422 2753 634 
Q 3047 847 3047 1241 
Q 3047 1584 2836 1778 
Q 2625 1972 2144 2069 
L 1759 2144 
Q 1053 2284 737 2584 
Q 422 2884 422 3419 
Q 422 4038 858 4394 
Q 1294 4750 2059 4750 
Q 2388 4750 2728 4690 
Q 3069 4631 3425 4513 
z
" transform="scale(0.015625)"/>
      <path id="DejaVuSans-4f" d="M 2522 4238 
Q 1834 4238 1429 3725 
Q 1025 3213 1025 2328 
Q 1025 1447 1429 934 
Q 1834 422 2522 422 
Q 3209 422 3611 934 
Q 4013 1447 4013 2328 
Q 4013 3213 3611 3725 
Q 3209 4238 2522 4238 
z
M 2522 4750 
Q 3503 4750 4090 4092 
Q 4678 3434 4678 2328 
Q 4678 1225 4090 567 
Q 3503 -91 2522 -91 
Q 1538 -91 948 565 
Q 359 1222 359 2328 
Q 359 3434 948 4092 
Q 1538 4750 2522 4750 
z
" transform="scale(0.015625)"/>
      <path id="DejaVuSans-72" d="M 2631 2963 
Q 2534 3019 2420 3045 
Q 2306 3072 2169 3072 
Q 1681 3072 1420 2755 
Q 1159 2438 1159 1844 
L 1159 0 
L 581 0 
L 581 3500 
L 1159 3500 
L 1159 2956 
Q 1341 3275 1631 3429 
Q 1922 3584 2338 3584 
Q 2397 3584 2469 3576 
Q 2541 3569 2628 3553 
L 2631 2963 
z
" transform="scale(0.015625)"/>
      <path id="DejaVuSans-66" d="M 2375 4863 
L 2375 4384 
L 1825 4384 
Q 1516 4384 1395 4259 
Q 1275 4134 1275 3809 
L 1275 3500 
L 2222 3500 
L 2222 3053 
L 1275 3053 
L 1275 0 
L 697 0 
L 697 3053 
L 147 3053 
L 147 3500 
L 697 3500 
L 697 3744 
Q 697 4328 969 4595 
Q 1241 4863 1831 4863 
L 2375 4863 
z
" transform="scale(0.015625)"/>
      <path id="DejaVuSans-47" d="M 3809 666 
L 3809 1919 
L 2778 1919 
L 2778 2438 
L 4434 2438 
L 4434 434 
Q 4069 175 3628 42 
Q 3188 -91 2688 -91 
Q 1594 -91 976 548 
Q 359 1188 359 2328 
Q 359 3472 976 4111 
Q 1594 4750 2688 4750 
Q 3144 4750 3555 4637 
Q 3966 4525 4313 4306 
L 4313 3634 
Q 3963 3931 3569 4081 
Q 3175 4231 2741 4231 
Q 1884 4231 1454 3753 
Q 1025 3275 1025 2328 
Q 1025 1384 1454 906 
Q 1884 428 2741 428 
Q 3075 428 3337 486 
Q 3600 544 3809 666 
z
" transform="scale(0.015625)"/>
      <path id="DejaVuSans-70" d="M 1159 525 
L 1159 -1331 
L 581 -1331 
L 581 3500 
L 1159 3500 
L 1159 2969 
Q 1341 3281 1617 3432 
Q 1894 3584 2278 3584 
Q 2916 3584 3314 3078 
Q 3713 2572 3713 1747 
Q 3713 922 3314 415 
Q 2916 -91 2278 -91 
Q 1894 -91 1617 61 
Q 1341 213 1159 525 
z
M 3116 1747 
Q 3116 2381 2855 2742 
Q 2594 3103 2138 3103 
Q 1681 3103 1420 2742 
Q 1159 2381 1159 1747 
Q 1159 1113 1420 752 
Q 1681 391 2138 391 
Q 2594 391 2855 752 
Q 3116 1113 3116 1747 
z
" transform="scale(0.015625)"/>
      <path id="DejaVuSans-4d" d="M 628 4666 
L 1569 4666 
L 2759 1491 
L 3956 4666 
L 4897 4666 
L 4897 0 
L 4281 0 
L 4281 4097 
L 3078 897 
L 2444 897 
L 1241 4097 
L 1241 0 
L 628 0 
L 628 4666 
z
" transform="scale(0.015625)"/>
      <path id="DejaVuSans-73" d="M 2834 3397 
L 2834 2853 
Q 2591 2978 2328 3040 
Q 2066 3103 1784 3103 
Q 1356 3103 1142 2972 
Q 928 2841 928 2578 
Q 928 2378 1081 2264 
Q 1234 2150 1697 2047 
L 1894 2003 
Q 2506 1872 2764 1633 
Q 3022 1394 3022 966 
Q 3022 478 2636 193 
Q 2250 -91 1575 -91 
Q 1294 -91 989 -36 
Q 684 19 347 128 
L 347 722 
Q 666 556 975 473 
Q 1284 391 1588 391 
Q 1994 391 2212 530 
Q 2431 669 2431 922 
Q 2431 1156 2273 1281 
Q 2116 1406 1581 1522 
L 1381 1569 
Q 847 1681 609 1914 
Q 372 2147 372 2553 
Q 372 3047 722 3315 
Q 1072 3584 1716 3584 
Q 2034 3584 2315 3537 
Q 2597 3491 2834 3397 
z
" transform="scale(0.015625)"/>
     </defs>
     <use xlink:href="#DejaVuSans-50"/>
     <use xlink:href="#DejaVuSans-65" x="56.677734"/>
     <use xlink:href="#DejaVuSans-6c" x="118.201172"/>
     <use xlink:href="#DejaVuSans-6c" x="145.984375"/>
     <use xlink:href="#DejaVuSans-65" x="173.767578"/>
     <use xlink:href="#DejaVuSans-74" x="235.291016"/>
     <use xlink:href="#DejaVuSans-20" x="274.5"/>
     <use xlink:href="#DejaVuSans-43" x="306.287109"/>
     <use xlink:href="#DejaVuSans-6f" x="376.111328"/>
     <use xlink:href="#DejaVuSans-75" x="437.292969"/>
     <use xlink:href="#DejaVuSans-6e" x="500.671875"/>
     <use xlink:href="#DejaVuSans-74" x="564.050781"/>
     <use xlink:href="#DejaVuSans-20" x="603.259766"/>
     <use xlink:href="#DejaVuSans-61" x="635.046875"/>
     <use xlink:href="#DejaVuSans-6e" x="696.326172"/>
     <use xlink:href="#DejaVuSans-64" x="759.705078"/>
     <use xlink:href="#DejaVuSans-20" x="823.181641"/>
     <use xlink:href="#DejaVuSans-43" x="854.96875"/>
     <use xlink:href="#DejaVuSans-75" x="924.792969"/>
     <use xlink:href="#DejaVuSans-6d" x="988.171875"/>
     <use xlink:href="#DejaVuSans-75" x="1085.583984"/>
     <use xlink:href="#DejaVuSans-6c" x="1148.962891"/>
     <use xlink:href="#DejaVuSans-61" x="1176.746094"/>
     <use xlink:href="#DejaVuSans-74" x="1238.025391"/>
     <use xlink:href="#DejaVuSans-69" x="1277.234375"/>
     <use xlink:href="#DejaVuSans-76" x="1305.017578"/>
     <use xlink:href="#DejaVuSans-65" x="1364.197266"/>
     <use xlink:href="#DejaVuSans-20" x="1425.720703"/>
     <use xlink:href="#DejaVuSans-53" x="1457.507812"/>
     <use xlink:href="#DejaVuSans-75" x="1520.984375"/>
     <use xlink:href="#DejaVuSans-6d" x="1584.363281"/>
     <use xlink:href="#DejaVuSans-20" x="1681.775391"/>
     <use xlink:href="#DejaVuSans-4f" x="1713.5625"/>
     <use xlink:href="#DejaVuSans-76" x="1792.273438"/>
     <use xlink:href="#DejaVuSans-65" x="1851.453125"/>
     <use xlink:href="#DejaVuSans-72" x="1912.976562"/>
     <use xlink:href="#DejaVuSans-20" x="1954.089844"/>
     <use xlink:href="#DejaVuSans-54" x="1985.876953"/>
     <use xlink:href="#DejaVuSans-69" x="2043.835938"/>
     <use xlink:href="#DejaVuSans-6d" x="2071.619141"/>
     <use xlink:href="#DejaVuSans-65" x="2169.03125"/>
     <use xlink:href="#DejaVuSans-20" x="2230.554688"/>
     <use xlink:href="#DejaVuSans-6f" x="2262.341797"/>
     <use xlink:href="#DejaVuSans-66" x="2323.523438"/>
     <use xlink:href="#DejaVuSans-20" x="2358.728516"/>
     <use xlink:href="#DejaVuSans-47" x="2390.515625"/>
     <use xlink:href="#DejaVuSans-72" x="2468.005859"/>
     <use xlink:href="#DejaVuSans-6f" x="2506.869141"/>
     <use xlink:href="#DejaVuSans-75" x="2568.050781"/>
     <use xlink:href="#DejaVuSans-70" x="2631.429688"/>
     <use xlink:href="#DejaVuSans-20" x="2694.90625"/>
     <use xlink:href="#DejaVuSans-31" x="2726.693359"/>
     <use xlink:href="#DejaVuSans-30" x="2790.316406"/>
     <use xlink:href="#DejaVuSans-20" x="2853.939453"/>
     <use xlink:href="#DejaVuSans-4d" x="2885.726562"/>
     <use xlink:href="#DejaVuSans-6f" x="2972.005859"/>
     <use xlink:href="#DejaVuSans-75" x="3033.1875"/>
     <use xlink:href="#DejaVuSans-73" x="3096.566406"/>
     <use xlink:href="#DejaVuSans-65" x="3148.666016"/>
     <use xlink:href="#DejaVuSans-20" x="3210.189453"/>
     <use xlink:href="#DejaVuSans-32" x="3241.976562"/>
    </g>
   </g>
   <g id="legend_1">
    <g id="patch_89">
     <path d="M 1086.550625 64.233437 
L 1158.235 64.233437 
Q 1160.235 64.233437 1160.235 62.233437 
L 1160.235 33.877187 
Q 1160.235 31.877187 1158.235 31.877187 
L 1086.550625 31.877187 
Q 1084.550625 31.877187 1084.550625 33.877187 
L 1084.550625 62.233437 
Q 1084.550625 64.233437 1086.550625 64.233437 
z
" style="fill: #ffffff; opacity: 0.8; stroke: #cccccc; stroke-linejoin: miter"/>
    </g>
    <g id="patch_90">
     <path d="M 1088.550625 43.475625 
L 1108.550625 43.475625 
L 1108.550625 36.475625 
L 1088.550625 36.475625 
z
" style="fill: #add8e6; opacity: 0.9; stroke: #add8e6; stroke-linejoin: miter"/>
    </g>
    <g id="text_18">
     <!-- Meal -->
     <g transform="translate(1116.550625 43.475625) scale(0.1 -0.1)">
      <use xlink:href="#DejaVuSans-4d"/>
      <use xlink:href="#DejaVuSans-65" x="86.279297"/>
      <use xlink:href="#DejaVuSans-61" x="147.802734"/>
      <use xlink:href="#DejaVuSans-6c" x="209.082031"/>
     </g>
    </g>
    <g id="patch_91">
     <path d="M 1088.550625 58.15375 
L 1108.550625 58.15375 
L 1108.550625 51.15375 
L 1088.550625 51.15375 
z
" style="fill: #808080; opacity: 0.5; stroke: #808080; stroke-linejoin: miter"/>
    </g>
    <g id="text_19">
     <!-- Inactive -->
     <g transform="translate(1116.550625 58.15375) scale(0.1 -0.1)">
      <defs>
       <path id="DejaVuSans-49" d="M 628 4666 
L 1259 4666 
L 1259 0 
L 628 0 
L 628 4666 
z
" transform="scale(0.015625)"/>
       <path id="DejaVuSans-63" d="M 3122 3366 
L 3122 2828 
Q 2878 2963 2633 3030 
Q 2388 3097 2138 3097 
Q 1578 3097 1268 2742 
Q 959 2388 959 1747 
Q 959 1106 1268 751 
Q 1578 397 2138 397 
Q 2388 397 2633 464 
Q 2878 531 3122 666 
L 3122 134 
Q 2881 22 2623 -34 
Q 2366 -91 2075 -91 
Q 1284 -91 818 406 
Q 353 903 353 1747 
Q 353 2603 823 3093 
Q 1294 3584 2113 3584 
Q 2378 3584 2631 3529 
Q 2884 3475 3122 3366 
z
" transform="scale(0.015625)"/>
      </defs>
      <use xlink:href="#DejaVuSans-49"/>
      <use xlink:href="#DejaVuSans-6e" x="29.492188"/>
      <use xlink:href="#DejaVuSans-61" x="92.871094"/>
      <use xlink:href="#DejaVuSans-63" x="154.150391"/>
      <use xlink:href="#DejaVuSans-74" x="209.130859"/>
      <use xlink:href="#DejaVuSans-69" x="248.339844"/>
      <use xlink:href="#DejaVuSans-76" x="276.123047"/>
      <use xlink:href="#DejaVuSans-65" x="335.302734"/>
     </g>
    </g>
   </g>
  </g>
 </g>
 <defs>
  <clipPath id="pab5a7ff64c">
   <rect x="49.235" y="26.877187" width="1116" height="332.64"/>
  </clipPath>
 </defs>
</svg>
