<?xml version="1.0" encoding="utf-8" standalone="no"?>
<!DOCTYPE svg PUBLIC "-//W3C//DTD SVG 1.1//EN"
  "http://www.w3.org/Graphics/SVG/1.1/DTD/svg11.dtd">
<svg xmlns:xlink="http://www.w3.org/1999/xlink" width="1178.7975pt" height="399.009062pt" viewBox="0 0 1178.7975 399.009062" xmlns="http://www.w3.org/2000/svg" version="1.1">
 <metadata>
  <rdf:RDF xmlns:dc="http://purl.org/dc/elements/1.1/" xmlns:cc="http://creativecommons.org/ns#" xmlns:rdf="http://www.w3.org/1999/02/22-rdf-syntax-ns#">
   <cc:Work>
    <dc:type rdf:resource="http://purl.org/dc/dcmitype/StillImage"/>
    <dc:date>2025-04-10T14:49:44.479667</dc:date>
    <dc:format>image/svg+xml</dc:format>
    <dc:creator>
     <cc:Agent>
      <dc:title>Matplotlib v3.8.3, https://matplotlib.org/</dc:title>
     </cc:Agent>
    </dc:creator>
   </cc:Work>
  </rdf:RDF>
 </metadata>
 <defs>
  <style type="text/css">*{stroke-linejoin: round; stroke-linecap: butt}</style>
 </defs>
 <g id="figure_1">
  <g id="patch_1">
   <path d="M 0 399.009062 
L 1178.7975 399.009062 
L 1178.7975 0 
L 0 0 
z
" style="fill: #ffffff"/>
  </g>
  <g id="axes_1">
   <g id="patch_2">
    <path d="M 55.5975 359.517187 
L 1171.5975 359.517187 
L 1171.5975 26.877187 
L 55.5975 26.877187 
z
" style="fill: #ffffff"/>
   </g>
   <g id="patch_3">
    <path d="M 120.094322 359.517187 
L 120.094322 26.877187 
L 120.226735 26.877187 
L 120.226735 359.517187 
z
" clip-path="url(#p9e4611c89a)" style="fill: #add8e6; stroke: #add8e6; stroke-linejoin: miter"/>
   </g>
   <g id="patch_4">
    <path d="M 120.275054 359.517187 
L 120.275054 26.877187 
L 120.353573 26.877187 
L 120.353573 359.517187 
z
" clip-path="url(#p9e4611c89a)" style="fill: #add8e6; stroke: #add8e6; stroke-linejoin: miter"/>
   </g>
   <g id="patch_5">
    <path d="M 124.84028 359.517187 
L 124.84028 26.877187 
L 123.939872 26.877187 
L 123.939872 359.517187 
z
" clip-path="url(#p9e4611c89a)" style="fill: #add8e6; stroke: #add8e6; stroke-linejoin: miter"/>
   </g>
   <g id="patch_6">
    <path d="M 126.066842 359.517187 
L 126.066842 26.877187 
L 125.976244 26.877187 
L 125.976244 359.517187 
z
" clip-path="url(#p9e4611c89a)" style="fill: #add8e6; stroke: #add8e6; stroke-linejoin: miter"/>
   </g>
   <g id="patch_7">
    <path d="M 134.231376 359.517187 
L 134.231376 26.877187 
L 134.293633 26.877187 
L 134.293633 359.517187 
z
" clip-path="url(#p9e4611c89a)" style="fill: #add8e6; stroke: #add8e6; stroke-linejoin: miter"/>
   </g>
   <g id="patch_8">
    <path d="M 140.215046 359.517187 
L 140.215046 26.877187 
L 140.167192 26.877187 
L 140.167192 359.517187 
z
" clip-path="url(#p9e4611c89a)" style="fill: #add8e6; stroke: #add8e6; stroke-linejoin: miter"/>
   </g>
   <g id="patch_9">
    <path d="M 141.820727 359.517187 
L 141.820727 26.877187 
L 141.888095 26.877187 
L 141.888095 359.517187 
z
" clip-path="url(#p9e4611c89a)" style="fill: #add8e6; stroke: #add8e6; stroke-linejoin: miter"/>
   </g>
   <g id="patch_10">
    <path d="M 143.235919 359.517187 
L 143.235919 26.877187 
L 143.183883 26.877187 
L 143.183883 359.517187 
z
" clip-path="url(#p9e4611c89a)" style="fill: #add8e6; stroke: #add8e6; stroke-linejoin: miter"/>
   </g>
   <g id="patch_11">
    <path d="M 152.233493 359.517187 
L 152.233493 26.877187 
L 151.611384 26.877187 
L 151.611384 359.517187 
z
" clip-path="url(#p9e4611c89a)" style="fill: #add8e6; stroke: #add8e6; stroke-linejoin: miter"/>
   </g>
   <g id="patch_12">
    <path d="M 163.363147 359.517187 
L 163.363147 26.877187 
L 161.32213 26.877187 
L 161.32213 359.517187 
z
" clip-path="url(#p9e4611c89a)" style="fill: #add8e6; stroke: #add8e6; stroke-linejoin: miter"/>
   </g>
   <g id="patch_13">
    <path d="M 168.839002 359.517187 
L 168.839002 26.877187 
L 168.948185 26.877187 
L 168.948185 359.517187 
z
" clip-path="url(#p9e4611c89a)" style="fill: #add8e6; stroke: #add8e6; stroke-linejoin: miter"/>
   </g>
   <g id="patch_14">
    <path d="M 170.423311 359.517187 
L 170.423311 26.877187 
L 170.519949 26.877187 
L 170.519949 359.517187 
z
" clip-path="url(#p9e4611c89a)" style="fill: #add8e6; stroke: #add8e6; stroke-linejoin: miter"/>
   </g>
   <g id="patch_15">
    <path d="M 170.740637 359.517187 
L 170.740637 26.877187 
L 170.676522 26.877187 
L 170.676522 359.517187 
z
" clip-path="url(#p9e4611c89a)" style="fill: #add8e6; stroke: #add8e6; stroke-linejoin: miter"/>
   </g>
   <g id="patch_16">
    <path d="M 174.723246 359.517187 
L 174.723246 26.877187 
L 174.844044 26.877187 
L 174.844044 359.517187 
z
" clip-path="url(#p9e4611c89a)" style="fill: #add8e6; stroke: #add8e6; stroke-linejoin: miter"/>
   </g>
   <g id="patch_17">
    <path d="M 185.987172 359.517187 
L 185.987172 26.877187 
L 179.629029 26.877187 
L 179.629029 359.517187 
z
" clip-path="url(#p9e4611c89a)" style="fill: #add8e6; stroke: #add8e6; stroke-linejoin: miter"/>
   </g>
   <g id="patch_18">
    <path d="M 208.957793 359.517187 
L 208.957793 26.877187 
L 209.018192 26.877187 
L 209.018192 359.517187 
z
" clip-path="url(#p9e4611c89a)" style="fill: #add8e6; stroke: #add8e6; stroke-linejoin: miter"/>
   </g>
   <g id="patch_19">
    <path d="M 218.632764 359.517187 
L 218.632764 26.877187 
L 218.757743 26.877187 
L 218.757743 359.517187 
z
" clip-path="url(#p9e4611c89a)" style="fill: #add8e6; stroke: #add8e6; stroke-linejoin: miter"/>
   </g>
   <g id="patch_20">
    <path d="M 225.107058 359.517187 
L 225.107058 26.877187 
L 225.162347 26.877187 
L 225.162347 359.517187 
z
" clip-path="url(#p9e4611c89a)" style="fill: #add8e6; stroke: #add8e6; stroke-linejoin: miter"/>
   </g>
   <g id="patch_21">
    <path d="M 231.166924 359.517187 
L 231.166924 26.877187 
L 231.282611 26.877187 
L 231.282611 359.517187 
z
" clip-path="url(#p9e4611c89a)" style="fill: #add8e6; stroke: #add8e6; stroke-linejoin: miter"/>
   </g>
   <g id="patch_22">
    <path d="M 234.734639 359.517187 
L 234.734639 26.877187 
L 234.849397 26.877187 
L 234.849397 359.517187 
z
" clip-path="url(#p9e4611c89a)" style="fill: #add8e6; stroke: #add8e6; stroke-linejoin: miter"/>
   </g>
   <g id="patch_23">
    <path d="M 244.335273 359.517187 
L 244.335273 26.877187 
L 244.315294 26.877187 
L 244.315294 359.517187 
z
" clip-path="url(#p9e4611c89a)" style="fill: #add8e6; stroke: #add8e6; stroke-linejoin: miter"/>
   </g>
   <g id="patch_24">
    <path d="M 244.537841 359.517187 
L 244.537841 26.877187 
L 244.359432 26.877187 
L 244.359432 359.517187 
z
" clip-path="url(#p9e4611c89a)" style="fill: #add8e6; stroke: #add8e6; stroke-linejoin: miter"/>
   </g>
   <g id="patch_25">
    <path d="M 245.009882 359.517187 
L 245.009882 26.877187 
L 244.768286 26.877187 
L 244.768286 359.517187 
z
" clip-path="url(#p9e4611c89a)" style="fill: #add8e6; stroke: #add8e6; stroke-linejoin: miter"/>
   </g>
   <g id="patch_26">
    <path d="M 258.553168 359.517187 
L 258.553168 26.877187 
L 258.5685 26.877187 
L 258.5685 359.517187 
z
" clip-path="url(#p9e4611c89a)" style="fill: #add8e6; stroke: #add8e6; stroke-linejoin: miter"/>
   </g>
   <g id="patch_27">
    <path d="M 258.761312 359.517187 
L 258.761312 26.877187 
L 258.719497 26.877187 
L 258.719497 359.517187 
z
" clip-path="url(#p9e4611c89a)" style="fill: #add8e6; stroke: #add8e6; stroke-linejoin: miter"/>
   </g>
   <g id="patch_28">
    <path d="M 263.159279 359.517187 
L 263.159279 26.877187 
L 262.97483 26.877187 
L 262.97483 359.517187 
z
" clip-path="url(#p9e4611c89a)" style="fill: #add8e6; stroke: #add8e6; stroke-linejoin: miter"/>
   </g>
   <g id="patch_29">
    <path d="M 268.012096 359.517187 
L 268.012096 26.877187 
L 267.974928 26.877187 
L 267.974928 359.517187 
z
" clip-path="url(#p9e4611c89a)" style="fill: #add8e6; stroke: #add8e6; stroke-linejoin: miter"/>
   </g>
   <g id="patch_30">
    <path d="M 268.321524 359.517187 
L 268.321524 26.877187 
L 268.192828 26.877187 
L 268.192828 359.517187 
z
" clip-path="url(#p9e4611c89a)" style="fill: #add8e6; stroke: #add8e6; stroke-linejoin: miter"/>
   </g>
   <g id="patch_31">
    <path d="M 276.065125 359.517187 
L 276.065125 26.877187 
L 276.146431 26.877187 
L 276.146431 359.517187 
z
" clip-path="url(#p9e4611c89a)" style="fill: #add8e6; stroke: #add8e6; stroke-linejoin: miter"/>
   </g>
   <g id="patch_32">
    <path d="M 288.455257 359.517187 
L 288.455257 26.877187 
L 288.550501 26.877187 
L 288.550501 359.517187 
z
" clip-path="url(#p9e4611c89a)" style="fill: #add8e6; stroke: #add8e6; stroke-linejoin: miter"/>
   </g>
   <g id="patch_33">
    <path d="M 288.635524 359.517187 
L 288.635524 26.877187 
L 288.66433 26.877187 
L 288.66433 359.517187 
z
" clip-path="url(#p9e4611c89a)" style="fill: #add8e6; stroke: #add8e6; stroke-linejoin: miter"/>
   </g>
   <g id="patch_34">
    <path d="M 291.643388 359.517187 
L 291.643388 26.877187 
L 291.781841 26.877187 
L 291.781841 359.517187 
z
" clip-path="url(#p9e4611c89a)" style="fill: #add8e6; stroke: #add8e6; stroke-linejoin: miter"/>
   </g>
   <g id="patch_35">
    <path d="M 291.882661 359.517187 
L 291.882661 26.877187 
L 291.931444 26.877187 
L 291.931444 359.517187 
z
" clip-path="url(#p9e4611c89a)" style="fill: #add8e6; stroke: #add8e6; stroke-linejoin: miter"/>
   </g>
   <g id="patch_36">
    <path d="M 295.405774 359.517187 
L 295.405774 26.877187 
L 295.383008 26.877187 
L 295.383008 359.517187 
z
" clip-path="url(#p9e4611c89a)" style="fill: #add8e6; stroke: #add8e6; stroke-linejoin: miter"/>
   </g>
   <g id="patch_37">
    <path d="M 298.572998 359.517187 
L 298.572998 26.877187 
L 298.67614 26.877187 
L 298.67614 359.517187 
z
" clip-path="url(#p9e4611c89a)" style="fill: #add8e6; stroke: #add8e6; stroke-linejoin: miter"/>
   </g>
   <g id="patch_38">
    <path d="M 298.757911 359.517187 
L 298.757911 26.877187 
L 298.703552 26.877187 
L 298.703552 359.517187 
z
" clip-path="url(#p9e4611c89a)" style="fill: #add8e6; stroke: #add8e6; stroke-linejoin: miter"/>
   </g>
   <g id="patch_39">
    <path d="M 300.440252 359.517187 
L 300.440252 26.877187 
L 300.540143 26.877187 
L 300.540143 359.517187 
z
" clip-path="url(#p9e4611c89a)" style="fill: #add8e6; stroke: #add8e6; stroke-linejoin: miter"/>
   </g>
   <g id="patch_40">
    <path d="M 302.255006 359.517187 
L 302.255006 26.877187 
L 302.246178 26.877187 
L 302.246178 359.517187 
z
" clip-path="url(#p9e4611c89a)" style="fill: #add8e6; stroke: #add8e6; stroke-linejoin: miter"/>
   </g>
   <g id="patch_41">
    <path d="M 312.260312 359.517187 
L 312.260312 26.877187 
L 311.383599 26.877187 
L 311.383599 359.517187 
z
" clip-path="url(#p9e4611c89a)" style="fill: #add8e6; stroke: #add8e6; stroke-linejoin: miter"/>
   </g>
   <g id="patch_42">
    <path d="M 312.723989 359.517187 
L 312.723989 26.877187 
L 312.781601 26.877187 
L 312.781601 359.517187 
z
" clip-path="url(#p9e4611c89a)" style="fill: #add8e6; stroke: #add8e6; stroke-linejoin: miter"/>
   </g>
   <g id="patch_43">
    <path d="M 314.505756 359.517187 
L 314.505756 26.877187 
L 314.568478 26.877187 
L 314.568478 359.517187 
z
" clip-path="url(#p9e4611c89a)" style="fill: #add8e6; stroke: #add8e6; stroke-linejoin: miter"/>
   </g>
   <g id="patch_44">
    <path d="M 314.667904 359.517187 
L 314.667904 26.877187 
L 314.66047 26.877187 
L 314.66047 359.517187 
z
" clip-path="url(#p9e4611c89a)" style="fill: #add8e6; stroke: #add8e6; stroke-linejoin: miter"/>
   </g>
   <g id="patch_45">
    <path d="M 317.246471 359.517187 
L 317.246471 26.877187 
L 317.258551 26.877187 
L 317.258551 359.517187 
z
" clip-path="url(#p9e4611c89a)" style="fill: #add8e6; stroke: #add8e6; stroke-linejoin: miter"/>
   </g>
   <g id="patch_46">
    <path d="M 320.050373 359.517187 
L 320.050373 26.877187 
L 320.101015 26.877187 
L 320.101015 359.517187 
z
" clip-path="url(#p9e4611c89a)" style="fill: #add8e6; stroke: #add8e6; stroke-linejoin: miter"/>
   </g>
   <g id="patch_47">
    <path d="M 331.983797 359.517187 
L 331.983797 26.877187 
L 332.060921 26.877187 
L 332.060921 359.517187 
z
" clip-path="url(#p9e4611c89a)" style="fill: #add8e6; stroke: #add8e6; stroke-linejoin: miter"/>
   </g>
   <g id="patch_48">
    <path d="M 335.25788 359.517187 
L 335.25788 26.877187 
L 335.303412 26.877187 
L 335.303412 359.517187 
z
" clip-path="url(#p9e4611c89a)" style="fill: #add8e6; stroke: #add8e6; stroke-linejoin: miter"/>
   </g>
   <g id="patch_49">
    <path d="M 336.322759 359.517187 
L 336.322759 26.877187 
L 336.433335 26.877187 
L 336.433335 359.517187 
z
" clip-path="url(#p9e4611c89a)" style="fill: #add8e6; stroke: #add8e6; stroke-linejoin: miter"/>
   </g>
   <g id="patch_50">
    <path d="M 346.5757 359.517187 
L 346.5757 26.877187 
L 345.846268 26.877187 
L 345.846268 359.517187 
z
" clip-path="url(#p9e4611c89a)" style="fill: #add8e6; stroke: #add8e6; stroke-linejoin: miter"/>
   </g>
   <g id="patch_51">
    <path d="M 347.378076 359.517187 
L 347.378076 26.877187 
L 347.431506 26.877187 
L 347.431506 359.517187 
z
" clip-path="url(#p9e4611c89a)" style="fill: #add8e6; stroke: #add8e6; stroke-linejoin: miter"/>
   </g>
   <g id="patch_52">
    <path d="M 357.165482 359.517187 
L 357.165482 26.877187 
L 357.239819 26.877187 
L 357.239819 359.517187 
z
" clip-path="url(#p9e4611c89a)" style="fill: #add8e6; stroke: #add8e6; stroke-linejoin: miter"/>
   </g>
   <g id="patch_53">
    <path d="M 360.740166 359.517187 
L 360.740166 26.877187 
L 358.771627 26.877187 
L 358.771627 359.517187 
z
" clip-path="url(#p9e4611c89a)" style="fill: #add8e6; stroke: #add8e6; stroke-linejoin: miter"/>
   </g>
   <g id="patch_54">
    <path d="M 370.920164 359.517187 
L 370.920164 26.877187 
L 370.968483 26.877187 
L 370.968483 359.517187 
z
" clip-path="url(#p9e4611c89a)" style="fill: #add8e6; stroke: #add8e6; stroke-linejoin: miter"/>
   </g>
   <g id="patch_55">
    <path d="M 375.855216 359.517187 
L 375.855216 26.877187 
L 375.876588 26.877187 
L 375.876588 359.517187 
z
" clip-path="url(#p9e4611c89a)" style="fill: #add8e6; stroke: #add8e6; stroke-linejoin: miter"/>
   </g>
   <g id="patch_56">
    <path d="M 386.211765 359.517187 
L 386.211765 26.877187 
L 384.14473 26.877187 
L 384.14473 359.517187 
z
" clip-path="url(#p9e4611c89a)" style="fill: #add8e6; stroke: #add8e6; stroke-linejoin: miter"/>
   </g>
   <g id="patch_57">
    <path d="M 393.080976 359.517187 
L 393.080976 26.877187 
L 386.610862 26.877187 
L 386.610862 359.517187 
z
" clip-path="url(#p9e4611c89a)" style="fill: #add8e6; stroke: #add8e6; stroke-linejoin: miter"/>
   </g>
   <g id="patch_58">
    <path d="M 420.767355 359.517187 
L 420.767355 26.877187 
L 420.901627 26.877187 
L 420.901627 359.517187 
z
" clip-path="url(#p9e4611c89a)" style="fill: #add8e6; stroke: #add8e6; stroke-linejoin: miter"/>
   </g>
   <g id="patch_59">
    <path d="M 426.695737 359.517187 
L 426.695737 26.877187 
L 426.765428 26.877187 
L 426.765428 359.517187 
z
" clip-path="url(#p9e4611c89a)" style="fill: #add8e6; stroke: #add8e6; stroke-linejoin: miter"/>
   </g>
   <g id="patch_60">
    <path d="M 427.074856 359.517187 
L 427.074856 26.877187 
L 427.027931 26.877187 
L 427.027931 359.517187 
z
" clip-path="url(#p9e4611c89a)" style="fill: #add8e6; stroke: #add8e6; stroke-linejoin: miter"/>
   </g>
   <g id="patch_61">
    <path d="M 431.723246 359.517187 
L 431.723246 26.877187 
L 431.712096 26.877187 
L 431.712096 359.517187 
z
" clip-path="url(#p9e4611c89a)" style="fill: #add8e6; stroke: #add8e6; stroke-linejoin: miter"/>
   </g>
   <g id="patch_62">
    <path d="M 448.464885 359.517187 
L 448.464885 26.877187 
L 448.538293 26.877187 
L 448.538293 359.517187 
z
" clip-path="url(#p9e4611c89a)" style="fill: #add8e6; stroke: #add8e6; stroke-linejoin: miter"/>
   </g>
   <g id="patch_63">
    <path d="M 451.08155 359.517187 
L 451.08155 26.877187 
L 451.209317 26.877187 
L 451.209317 359.517187 
z
" clip-path="url(#p9e4611c89a)" style="fill: #add8e6; stroke: #add8e6; stroke-linejoin: miter"/>
   </g>
   <g id="patch_64">
    <path d="M 469.309002 359.517187 
L 469.309002 26.877187 
L 461.427413 26.877187 
L 461.427413 359.517187 
z
" clip-path="url(#p9e4611c89a)" style="fill: #add8e6; stroke: #add8e6; stroke-linejoin: miter"/>
   </g>
   <g id="patch_65">
    <path d="M 470.69957 359.517187 
L 470.69957 26.877187 
L 470.627091 26.877187 
L 470.627091 359.517187 
z
" clip-path="url(#p9e4611c89a)" style="fill: #add8e6; stroke: #add8e6; stroke-linejoin: miter"/>
   </g>
   <g id="patch_66">
    <path d="M 472.278303 359.517187 
L 472.278303 26.877187 
L 472.330804 26.877187 
L 472.330804 359.517187 
z
" clip-path="url(#p9e4611c89a)" style="fill: #add8e6; stroke: #add8e6; stroke-linejoin: miter"/>
   </g>
   <g id="patch_67">
    <path d="M 484.112301 359.517187 
L 484.112301 26.877187 
L 484.108584 26.877187 
L 484.108584 359.517187 
z
" clip-path="url(#p9e4611c89a)" style="fill: #add8e6; stroke: #add8e6; stroke-linejoin: miter"/>
   </g>
   <g id="patch_68">
    <path d="M 487.152688 359.517187 
L 487.152688 26.877187 
L 487.25583 26.877187 
L 487.25583 359.517187 
z
" clip-path="url(#p9e4611c89a)" style="fill: #add8e6; stroke: #add8e6; stroke-linejoin: miter"/>
   </g>
   <g id="patch_69">
    <path d="M 491.145983 359.517187 
L 491.145983 26.877187 
L 491.158062 26.877187 
L 491.158062 359.517187 
z
" clip-path="url(#p9e4611c89a)" style="fill: #add8e6; stroke: #add8e6; stroke-linejoin: miter"/>
   </g>
   <g id="patch_70">
    <path d="M 493.156801 359.517187 
L 493.156801 26.877187 
L 493.266912 26.877187 
L 493.266912 359.517187 
z
" clip-path="url(#p9e4611c89a)" style="fill: #add8e6; stroke: #add8e6; stroke-linejoin: miter"/>
   </g>
   <g id="patch_71">
    <path d="M 493.309656 359.517187 
L 493.309656 26.877187 
L 493.420697 26.877187 
L 493.420697 359.517187 
z
" clip-path="url(#p9e4611c89a)" style="fill: #add8e6; stroke: #add8e6; stroke-linejoin: miter"/>
   </g>
   <g id="patch_72">
    <path d="M 496.019707 359.517187 
L 496.019707 26.877187 
L 496.082894 26.877187 
L 496.082894 359.517187 
z
" clip-path="url(#p9e4611c89a)" style="fill: #add8e6; stroke: #add8e6; stroke-linejoin: miter"/>
   </g>
   <g id="patch_73">
    <path d="M 529.020723 359.517187 
L 529.020723 26.877187 
L 529.149419 26.877187 
L 529.149419 359.517187 
z
" clip-path="url(#p9e4611c89a)" style="fill: #add8e6; stroke: #add8e6; stroke-linejoin: miter"/>
   </g>
   <g id="patch_74">
    <path d="M 546.31989 359.517187 
L 546.31989 26.877187 
L 538.256176 26.877187 
L 538.256176 359.517187 
z
" clip-path="url(#p9e4611c89a)" style="fill: #add8e6; stroke: #add8e6; stroke-linejoin: miter"/>
   </g>
   <g id="patch_75">
    <path d="M 547.774109 359.517187 
L 547.774109 26.877187 
L 541.744908 26.877187 
L 541.744908 359.517187 
z
" clip-path="url(#p9e4611c89a)" style="fill: #add8e6; stroke: #add8e6; stroke-linejoin: miter"/>
   </g>
   <g id="patch_76">
    <path d="M 569.336972 359.517187 
L 569.336972 26.877187 
L 568.087645 26.877187 
L 568.087645 359.517187 
z
" clip-path="url(#p9e4611c89a)" style="fill: #add8e6; stroke: #add8e6; stroke-linejoin: miter"/>
   </g>
   <g id="patch_77">
    <path d="M 570.294991 359.517187 
L 570.294991 26.877187 
L 570.380479 26.877187 
L 570.380479 359.517187 
z
" clip-path="url(#p9e4611c89a)" style="fill: #add8e6; stroke: #add8e6; stroke-linejoin: miter"/>
   </g>
   <g id="patch_78">
    <path d="M 570.464573 359.517187 
L 570.464573 26.877187 
L 570.52683 26.877187 
L 570.52683 359.517187 
z
" clip-path="url(#p9e4611c89a)" style="fill: #add8e6; stroke: #add8e6; stroke-linejoin: miter"/>
   </g>
   <g id="patch_79">
    <path d="M 581.142165 359.517187 
L 581.142165 26.877187 
L 575.08648 26.877187 
L 575.08648 359.517187 
z
" clip-path="url(#p9e4611c89a)" style="fill: #add8e6; stroke: #add8e6; stroke-linejoin: miter"/>
   </g>
   <g id="patch_80">
    <path d="M 584.045957 359.517187 
L 584.045957 26.877187 
L 576.116514 26.877187 
L 576.116514 359.517187 
z
" clip-path="url(#p9e4611c89a)" style="fill: #add8e6; stroke: #add8e6; stroke-linejoin: miter"/>
   </g>
   <g id="patch_81">
    <path d="M 606.190972 359.517187 
L 606.190972 26.877187 
L 606.266238 26.877187 
L 606.266238 359.517187 
z
" clip-path="url(#p9e4611c89a)" style="fill: #add8e6; stroke: #add8e6; stroke-linejoin: miter"/>
   </g>
   <g id="patch_82">
    <path d="M 620.040898 359.517187 
L 620.040898 26.877187 
L 620.161696 26.877187 
L 620.161696 359.517187 
z
" clip-path="url(#p9e4611c89a)" style="fill: #add8e6; stroke: #add8e6; stroke-linejoin: miter"/>
   </g>
   <g id="patch_83">
    <path d="M 658.120531 359.517187 
L 658.120531 26.877187 
L 650.316996 26.877187 
L 650.316996 359.517187 
z
" clip-path="url(#p9e4611c89a)" style="fill: #add8e6; stroke: #add8e6; stroke-linejoin: miter"/>
   </g>
   <g id="patch_84">
    <path d="M 662.500378 359.517187 
L 662.500378 26.877187 
L 662.571928 26.877187 
L 662.571928 359.517187 
z
" clip-path="url(#p9e4611c89a)" style="fill: #add8e6; stroke: #add8e6; stroke-linejoin: miter"/>
   </g>
   <g id="patch_85">
    <path d="M 669.612578 359.517187 
L 669.612578 26.877187 
L 669.660897 26.877187 
L 669.660897 359.517187 
z
" clip-path="url(#p9e4611c89a)" style="fill: #add8e6; stroke: #add8e6; stroke-linejoin: miter"/>
   </g>
   <g id="patch_86">
    <path d="M 673.947823 359.517187 
L 673.947823 26.877187 
L 673.981275 26.877187 
L 673.981275 359.517187 
z
" clip-path="url(#p9e4611c89a)" style="fill: #add8e6; stroke: #add8e6; stroke-linejoin: miter"/>
   </g>
   <g id="patch_87">
    <path d="M 687.303873 359.517187 
L 687.303873 26.877187 
L 687.326639 26.877187 
L 687.326639 359.517187 
z
" clip-path="url(#p9e4611c89a)" style="fill: #add8e6; stroke: #add8e6; stroke-linejoin: miter"/>
   </g>
   <g id="patch_88">
    <path d="M 692.40572 359.517187 
L 692.40572 26.877187 
L 692.300719 26.877187 
L 692.300719 359.517187 
z
" clip-path="url(#p9e4611c89a)" style="fill: #add8e6; stroke: #add8e6; stroke-linejoin: miter"/>
   </g>
   <g id="patch_89">
    <path d="M 698.133856 359.517187 
L 698.133856 26.877187 
L 698.216556 26.877187 
L 698.216556 359.517187 
z
" clip-path="url(#p9e4611c89a)" style="fill: #add8e6; stroke: #add8e6; stroke-linejoin: miter"/>
   </g>
   <g id="patch_90">
    <path d="M 698.296004 359.517187 
L 698.296004 26.877187 
L 698.393571 26.877187 
L 698.393571 359.517187 
z
" clip-path="url(#p9e4611c89a)" style="fill: #add8e6; stroke: #add8e6; stroke-linejoin: miter"/>
   </g>
   <g id="patch_91">
    <path d="M 698.44189 359.517187 
L 698.44189 26.877187 
L 698.510187 26.877187 
L 698.510187 359.517187 
z
" clip-path="url(#p9e4611c89a)" style="fill: #add8e6; stroke: #add8e6; stroke-linejoin: miter"/>
   </g>
   <g id="patch_92">
    <path d="M 704.767511 359.517187 
L 704.767511 26.877187 
L 704.710364 26.877187 
L 704.710364 359.517187 
z
" clip-path="url(#p9e4611c89a)" style="fill: #add8e6; stroke: #add8e6; stroke-linejoin: miter"/>
   </g>
   <g id="patch_93">
    <path d="M 705.525284 359.517187 
L 705.525284 26.877187 
L 705.551767 26.877187 
L 705.551767 359.517187 
z
" clip-path="url(#p9e4611c89a)" style="fill: #add8e6; stroke: #add8e6; stroke-linejoin: miter"/>
   </g>
   <g id="patch_94">
    <path d="M 707.144904 359.517187 
L 707.144904 26.877187 
L 707.247117 26.877187 
L 707.247117 359.517187 
z
" clip-path="url(#p9e4611c89a)" style="fill: #add8e6; stroke: #add8e6; stroke-linejoin: miter"/>
   </g>
   <g id="patch_95">
    <path d="M 714.002499 359.517187 
L 714.002499 26.877187 
L 714.106106 26.877187 
L 714.106106 359.517187 
z
" clip-path="url(#p9e4611c89a)" style="fill: #add8e6; stroke: #add8e6; stroke-linejoin: miter"/>
   </g>
   <g id="patch_96">
    <path d="M 724.092363 359.517187 
L 724.092363 26.877187 
L 723.804307 26.877187 
L 723.804307 359.517187 
z
" clip-path="url(#p9e4611c89a)" style="fill: #add8e6; stroke: #add8e6; stroke-linejoin: miter"/>
   </g>
   <g id="patch_97">
    <path d="M 733.507619 359.517187 
L 733.507619 26.877187 
L 726.710422 26.877187 
L 726.710422 359.517187 
z
" clip-path="url(#p9e4611c89a)" style="fill: #add8e6; stroke: #add8e6; stroke-linejoin: miter"/>
   </g>
   <g id="patch_98">
    <path d="M 737.703017 359.517187 
L 737.703017 26.877187 
L 729.702954 26.877187 
L 729.702954 359.517187 
z
" clip-path="url(#p9e4611c89a)" style="fill: #add8e6; stroke: #add8e6; stroke-linejoin: miter"/>
   </g>
   <g id="patch_99">
    <path d="M 745.839675 359.517187 
L 745.839675 26.877187 
L 745.797396 26.877187 
L 745.797396 359.517187 
z
" clip-path="url(#p9e4611c89a)" style="fill: #add8e6; stroke: #add8e6; stroke-linejoin: miter"/>
   </g>
   <g id="patch_100">
    <path d="M 749.289845 359.517187 
L 749.289845 26.877187 
L 749.326084 26.877187 
L 749.326084 359.517187 
z
" clip-path="url(#p9e4611c89a)" style="fill: #add8e6; stroke: #add8e6; stroke-linejoin: miter"/>
   </g>
   <g id="patch_101">
    <path d="M 752.376692 359.517187 
L 752.376692 26.877187 
L 752.432909 26.877187 
L 752.432909 359.517187 
z
" clip-path="url(#p9e4611c89a)" style="fill: #add8e6; stroke: #add8e6; stroke-linejoin: miter"/>
   </g>
   <g id="patch_102">
    <path d="M 752.533729 359.517187 
L 752.533729 26.877187 
L 752.557888 26.877187 
L 752.557888 359.517187 
z
" clip-path="url(#p9e4611c89a)" style="fill: #add8e6; stroke: #add8e6; stroke-linejoin: miter"/>
   </g>
   <g id="patch_103">
    <path d="M 762.882379 359.517187 
L 762.882379 26.877187 
L 761.672543 26.877187 
L 761.672543 359.517187 
z
" clip-path="url(#p9e4611c89a)" style="fill: #add8e6; stroke: #add8e6; stroke-linejoin: miter"/>
   </g>
   <g id="patch_104">
    <path d="M 772.121084 359.517187 
L 772.121084 26.877187 
L 764.05133 26.877187 
L 764.05133 359.517187 
z
" clip-path="url(#p9e4611c89a)" style="fill: #add8e6; stroke: #add8e6; stroke-linejoin: miter"/>
   </g>
   <g id="patch_105">
    <path d="M 777.858977 359.517187 
L 777.858977 26.877187 
L 769.830108 26.877187 
L 769.830108 359.517187 
z
" clip-path="url(#p9e4611c89a)" style="fill: #add8e6; stroke: #add8e6; stroke-linejoin: miter"/>
   </g>
   <g id="patch_106">
    <path d="M 780.277255 359.517187 
L 780.277255 26.877187 
L 775.145209 26.877187 
L 775.145209 359.517187 
z
" clip-path="url(#p9e4611c89a)" style="fill: #add8e6; stroke: #add8e6; stroke-linejoin: miter"/>
   </g>
   <g id="patch_107">
    <path d="M 785.569126 359.517187 
L 785.569126 26.877187 
L 779.501826 26.877187 
L 779.501826 359.517187 
z
" clip-path="url(#p9e4611c89a)" style="fill: #add8e6; stroke: #add8e6; stroke-linejoin: miter"/>
   </g>
   <g id="patch_108">
    <path d="M 812.483794 359.517187 
L 812.483794 26.877187 
L 811.948102 26.877187 
L 811.948102 359.517187 
z
" clip-path="url(#p9e4611c89a)" style="fill: #add8e6; stroke: #add8e6; stroke-linejoin: miter"/>
   </g>
   <g id="patch_109">
    <path d="M 822.35204 359.517187 
L 822.35204 26.877187 
L 822.414298 26.877187 
L 822.414298 359.517187 
z
" clip-path="url(#p9e4611c89a)" style="fill: #add8e6; stroke: #add8e6; stroke-linejoin: miter"/>
   </g>
   <g id="patch_110">
    <path d="M 847.845012 359.517187 
L 847.845012 26.877187 
L 847.693085 26.877187 
L 847.693085 359.517187 
z
" clip-path="url(#p9e4611c89a)" style="fill: #add8e6; stroke: #add8e6; stroke-linejoin: miter"/>
   </g>
   <g id="patch_111">
    <path d="M 855.583966 359.517187 
L 855.583966 26.877187 
L 855.675494 26.877187 
L 855.675494 359.517187 
z
" clip-path="url(#p9e4611c89a)" style="fill: #add8e6; stroke: #add8e6; stroke-linejoin: miter"/>
   </g>
   <g id="patch_112">
    <path d="M 855.787928 359.517187 
L 855.787928 26.877187 
L 855.797221 26.877187 
L 855.797221 359.517187 
z
" clip-path="url(#p9e4611c89a)" style="fill: #add8e6; stroke: #add8e6; stroke-linejoin: miter"/>
   </g>
   <g id="patch_113">
    <path d="M 873.678075 359.517187 
L 873.678075 26.877187 
L 873.62511 26.877187 
L 873.62511 359.517187 
z
" clip-path="url(#p9e4611c89a)" style="fill: #add8e6; stroke: #add8e6; stroke-linejoin: miter"/>
   </g>
   <g id="patch_114">
    <path d="M 880.078033 359.517187 
L 880.078033 26.877187 
L 879.789977 26.877187 
L 879.789977 359.517187 
z
" clip-path="url(#p9e4611c89a)" style="fill: #add8e6; stroke: #add8e6; stroke-linejoin: miter"/>
   </g>
   <g id="patch_115">
    <path d="M 884.683679 359.517187 
L 884.683679 26.877187 
L 883.757718 26.877187 
L 883.757718 359.517187 
z
" clip-path="url(#p9e4611c89a)" style="fill: #add8e6; stroke: #add8e6; stroke-linejoin: miter"/>
   </g>
   <g id="patch_116">
    <path d="M 896.222187 359.517187 
L 896.222187 26.877187 
L 892.583852 26.877187 
L 892.583852 359.517187 
z
" clip-path="url(#p9e4611c89a)" style="fill: #add8e6; stroke: #add8e6; stroke-linejoin: miter"/>
   </g>
   <g id="patch_117">
    <path d="M 901.599081 359.517187 
L 901.599081 26.877187 
L 901.705476 26.877187 
L 901.705476 359.517187 
z
" clip-path="url(#p9e4611c89a)" style="fill: #add8e6; stroke: #add8e6; stroke-linejoin: miter"/>
   </g>
   <g id="patch_118">
    <path d="M 907.608305 359.517187 
L 907.608305 26.877187 
L 907.598548 26.877187 
L 907.598548 359.517187 
z
" clip-path="url(#p9e4611c89a)" style="fill: #add8e6; stroke: #add8e6; stroke-linejoin: miter"/>
   </g>
   <g id="patch_119">
    <path d="M 919.064577 359.517187 
L 919.064577 26.877187 
L 918.474062 26.877187 
L 918.474062 359.517187 
z
" clip-path="url(#p9e4611c89a)" style="fill: #add8e6; stroke: #add8e6; stroke-linejoin: miter"/>
   </g>
   <g id="patch_120">
    <path d="M 919.773103 359.517187 
L 919.773103 26.877187 
L 919.890184 26.877187 
L 919.890184 359.517187 
z
" clip-path="url(#p9e4611c89a)" style="fill: #add8e6; stroke: #add8e6; stroke-linejoin: miter"/>
   </g>
   <g id="patch_121">
    <path d="M 929.594889 359.517187 
L 929.594889 26.877187 
L 922.570964 26.877187 
L 922.570964 359.517187 
z
" clip-path="url(#p9e4611c89a)" style="fill: #add8e6; stroke: #add8e6; stroke-linejoin: miter"/>
   </g>
   <g id="patch_122">
    <path d="M 929.969362 359.517187 
L 929.969362 26.877187 
L 924.050737 26.877187 
L 924.050737 359.517187 
z
" clip-path="url(#p9e4611c89a)" style="fill: #add8e6; stroke: #add8e6; stroke-linejoin: miter"/>
   </g>
   <g id="patch_123">
    <path d="M 934.28974 359.517187 
L 934.28974 26.877187 
L 929.031321 26.877187 
L 929.031321 359.517187 
z
" clip-path="url(#p9e4611c89a)" style="fill: #add8e6; stroke: #add8e6; stroke-linejoin: miter"/>
   </g>
   <g id="patch_124">
    <path d="M 948.715779 359.517187 
L 948.715779 26.877187 
L 940.737552 26.877187 
L 940.737552 359.517187 
z
" clip-path="url(#p9e4611c89a)" style="fill: #add8e6; stroke: #add8e6; stroke-linejoin: miter"/>
   </g>
   <g id="patch_125">
    <path d="M 949.672869 359.517187 
L 949.672869 26.877187 
L 942.944434 26.877187 
L 942.944434 359.517187 
z
" clip-path="url(#p9e4611c89a)" style="fill: #add8e6; stroke: #add8e6; stroke-linejoin: miter"/>
   </g>
   <g id="patch_126">
    <path d="M 954.737082 359.517187 
L 954.737082 26.877187 
L 951.281802 26.877187 
L 951.281802 359.517187 
z
" clip-path="url(#p9e4611c89a)" style="fill: #add8e6; stroke: #add8e6; stroke-linejoin: miter"/>
   </g>
   <g id="patch_127">
    <path d="M 971.121438 359.517187 
L 971.121438 26.877187 
L 962.985245 26.877187 
L 962.985245 359.517187 
z
" clip-path="url(#p9e4611c89a)" style="fill: #add8e6; stroke: #add8e6; stroke-linejoin: miter"/>
   </g>
   <g id="patch_128">
    <path d="M 972.394461 359.517187 
L 972.394461 26.877187 
L 967.432926 26.877187 
L 967.432926 359.517187 
z
" clip-path="url(#p9e4611c89a)" style="fill: #add8e6; stroke: #add8e6; stroke-linejoin: miter"/>
   </g>
   <g id="patch_129">
    <path d="M 988.716095 359.517187 
L 988.716095 26.877187 
L 983.230019 26.877187 
L 983.230019 359.517187 
z
" clip-path="url(#p9e4611c89a)" style="fill: #add8e6; stroke: #add8e6; stroke-linejoin: miter"/>
   </g>
   <g id="patch_130">
    <path d="M 1002.073539 359.517187 
L 1002.073539 26.877187 
L 994.164074 26.877187 
L 994.164074 359.517187 
z
" clip-path="url(#p9e4611c89a)" style="fill: #add8e6; stroke: #add8e6; stroke-linejoin: miter"/>
   </g>
   <g id="patch_131">
    <path d="M 1020.699623 359.517187 
L 1020.699623 26.877187 
L 1020.836217 26.877187 
L 1020.836217 359.517187 
z
" clip-path="url(#p9e4611c89a)" style="fill: #add8e6; stroke: #add8e6; stroke-linejoin: miter"/>
   </g>
   <g id="patch_132">
    <path d="M 1035.548454 359.517187 
L 1035.548454 26.877187 
L 1027.78534 26.877187 
L 1027.78534 359.517187 
z
" clip-path="url(#p9e4611c89a)" style="fill: #add8e6; stroke: #add8e6; stroke-linejoin: miter"/>
   </g>
   <g id="patch_133">
    <path d="M 1041.800202 359.517187 
L 1041.800202 26.877187 
L 1041.904738 26.877187 
L 1041.904738 359.517187 
z
" clip-path="url(#p9e4611c89a)" style="fill: #add8e6; stroke: #add8e6; stroke-linejoin: miter"/>
   </g>
   <g id="patch_134">
    <path d="M 1056.305688 359.517187 
L 1056.305688 26.877187 
L 1056.20394 26.877187 
L 1056.20394 359.517187 
z
" clip-path="url(#p9e4611c89a)" style="fill: #add8e6; stroke: #add8e6; stroke-linejoin: miter"/>
   </g>
   <g id="patch_135">
    <path d="M 1066.437367 359.517187 
L 1066.437367 26.877187 
L 1066.551196 26.877187 
L 1066.551196 359.517187 
z
" clip-path="url(#p9e4611c89a)" style="fill: #add8e6; stroke: #add8e6; stroke-linejoin: miter"/>
   </g>
   <g id="patch_136">
    <path d="M 1066.613453 359.517187 
L 1066.613453 26.877187 
L 1066.628785 26.877187 
L 1066.628785 359.517187 
z
" clip-path="url(#p9e4611c89a)" style="fill: #add8e6; stroke: #add8e6; stroke-linejoin: miter"/>
   </g>
   <g id="patch_137">
    <path d="M 1077.039228 359.517187 
L 1077.039228 26.877187 
L 1077.085689 26.877187 
L 1077.085689 359.517187 
z
" clip-path="url(#p9e4611c89a)" style="fill: #add8e6; stroke: #add8e6; stroke-linejoin: miter"/>
   </g>
   <g id="patch_138">
    <path d="M 1077.941495 359.517187 
L 1077.941495 26.877187 
L 1078.021872 26.877187 
L 1078.021872 359.517187 
z
" clip-path="url(#p9e4611c89a)" style="fill: #add8e6; stroke: #add8e6; stroke-linejoin: miter"/>
   </g>
   <g id="patch_139">
    <path d="M 1083.598082 359.517187 
L 1083.598082 26.877187 
L 1083.55255 26.877187 
L 1083.55255 359.517187 
z
" clip-path="url(#p9e4611c89a)" style="fill: #add8e6; stroke: #add8e6; stroke-linejoin: miter"/>
   </g>
   <g id="patch_140">
    <path d="M 1083.874523 359.517187 
L 1083.874523 26.877187 
L 1083.745362 26.877187 
L 1083.745362 359.517187 
z
" clip-path="url(#p9e4611c89a)" style="fill: #add8e6; stroke: #add8e6; stroke-linejoin: miter"/>
   </g>
   <g id="patch_141">
    <path d="M 1090.71818 359.517187 
L 1090.71818 26.877187 
L 1090.772539 26.877187 
L 1090.772539 359.517187 
z
" clip-path="url(#p9e4611c89a)" style="fill: #add8e6; stroke: #add8e6; stroke-linejoin: miter"/>
   </g>
   <g id="patch_142">
    <path d="M 1095.329866 359.517187 
L 1095.329866 26.877187 
L 1095.419535 26.877187 
L 1095.419535 359.517187 
z
" clip-path="url(#p9e4611c89a)" style="fill: #add8e6; stroke: #add8e6; stroke-linejoin: miter"/>
   </g>
   <g id="patch_143">
    <path d="M 1095.524536 359.517187 
L 1095.524536 26.877187 
L 1095.544979 26.877187 
L 1095.544979 359.517187 
z
" clip-path="url(#p9e4611c89a)" style="fill: #add8e6; stroke: #add8e6; stroke-linejoin: miter"/>
   </g>
   <g id="patch_144">
    <path d="M 1095.821885 359.517187 
L 1095.821885 26.877187 
L 1095.623498 26.877187 
L 1095.623498 359.517187 
z
" clip-path="url(#p9e4611c89a)" style="fill: #add8e6; stroke: #add8e6; stroke-linejoin: miter"/>
   </g>
   <g id="patch_145">
    <path d="M 1107.002646 359.517187 
L 1107.002646 26.877187 
L 1106.582177 26.877187 
L 1106.582177 359.517187 
z
" clip-path="url(#p9e4611c89a)" style="fill: #add8e6; stroke: #add8e6; stroke-linejoin: miter"/>
   </g>
   <g id="patch_146">
    <path d="M 1109.503159 359.517187 
L 1109.503159 26.877187 
L 1109.628138 26.877187 
L 1109.628138 359.517187 
z
" clip-path="url(#p9e4611c89a)" style="fill: #add8e6; stroke: #add8e6; stroke-linejoin: miter"/>
   </g>
   <g id="patch_147">
    <path d="M 1113.400745 359.517187 
L 1113.400745 26.877187 
L 1113.47183 26.877187 
L 1113.47183 359.517187 
z
" clip-path="url(#p9e4611c89a)" style="fill: #add8e6; stroke: #add8e6; stroke-linejoin: miter"/>
   </g>
   <g id="patch_148">
    <path d="M 1113.724576 359.517187 
L 1113.724576 26.877187 
L 1113.668823 26.877187 
L 1113.668823 359.517187 
z
" clip-path="url(#p9e4611c89a)" style="fill: #add8e6; stroke: #add8e6; stroke-linejoin: miter"/>
   </g>
   <g id="patch_149">
    <path d="M 1117.674198 359.517187 
L 1117.674198 26.877187 
L 1117.744353 26.877187 
L 1117.744353 359.517187 
z
" clip-path="url(#p9e4611c89a)" style="fill: #add8e6; stroke: #add8e6; stroke-linejoin: miter"/>
   </g>
   <g id="patch_150">
    <path d="M 184.378703 359.517187 
L 184.378703 26.877187 
L 284.733757 26.877187 
L 284.733757 359.517187 
z
" clip-path="url(#p9e4611c89a)" style="fill: #808080; opacity: 0.4; stroke: #808080; stroke-linejoin: miter"/>
   </g>
   <g id="patch_151">
    <path d="M 287.521397 26.877187 
L 287.521397 26.877187 
L 287.521397 359.517187 
" clip-path="url(#p9e4611c89a)" style="fill: #808080; opacity: 0.4; stroke: #808080; stroke-linejoin: miter"/>
   </g>
   <g id="patch_152">
    <path d="M 290.309038 26.877187 
L 290.309038 26.877187 
L 290.309038 359.517187 
" clip-path="url(#p9e4611c89a)" style="fill: #808080; opacity: 0.4; stroke: #808080; stroke-linejoin: miter"/>
   </g>
   <g id="patch_153">
    <path d="M 385.088811 359.517187 
L 385.088811 26.877187 
L 485.443864 26.877187 
L 485.443864 359.517187 
z
" clip-path="url(#p9e4611c89a)" style="fill: #808080; opacity: 0.4; stroke: #808080; stroke-linejoin: miter"/>
   </g>
   <g id="patch_154">
    <path d="M 488.231505 26.877187 
L 488.231505 26.877187 
L 488.231505 359.517187 
" clip-path="url(#p9e4611c89a)" style="fill: #808080; opacity: 0.4; stroke: #808080; stroke-linejoin: miter"/>
   </g>
   <g id="patch_155">
    <path d="M 491.019145 26.877187 
L 491.019145 26.877187 
L 491.019145 359.517187 
" clip-path="url(#p9e4611c89a)" style="fill: #808080; opacity: 0.4; stroke: #808080; stroke-linejoin: miter"/>
   </g>
   <g id="patch_156">
    <path d="M 585.798918 359.517187 
L 585.798918 26.877187 
L 686.153971 26.877187 
L 686.153971 359.517187 
z
" clip-path="url(#p9e4611c89a)" style="fill: #808080; opacity: 0.4; stroke: #808080; stroke-linejoin: miter"/>
   </g>
   <g id="patch_157">
    <path d="M 688.941612 26.877187 
L 688.941612 26.877187 
L 688.941612 359.517187 
" clip-path="url(#p9e4611c89a)" style="fill: #808080; opacity: 0.4; stroke: #808080; stroke-linejoin: miter"/>
   </g>
   <g id="patch_158">
    <path d="M 691.729252 26.877187 
L 691.729252 26.877187 
L 691.729252 359.517187 
" clip-path="url(#p9e4611c89a)" style="fill: #808080; opacity: 0.4; stroke: #808080; stroke-linejoin: miter"/>
   </g>
   <g id="patch_159">
    <path d="M 786.509025 359.517187 
L 786.509025 26.877187 
L 886.864079 26.877187 
L 886.864079 359.517187 
z
" clip-path="url(#p9e4611c89a)" style="fill: #808080; opacity: 0.4; stroke: #808080; stroke-linejoin: miter"/>
   </g>
   <g id="patch_160">
    <path d="M 889.651719 26.877187 
L 889.651719 26.877187 
L 889.651719 359.517187 
" clip-path="url(#p9e4611c89a)" style="fill: #808080; opacity: 0.4; stroke: #808080; stroke-linejoin: miter"/>
   </g>
   <g id="patch_161">
    <path d="M 892.439359 26.877187 
L 892.439359 26.877187 
L 892.439359 359.517187 
" clip-path="url(#p9e4611c89a)" style="fill: #808080; opacity: 0.4; stroke: #808080; stroke-linejoin: miter"/>
   </g>
   <g id="patch_162">
    <path d="M 987.219132 359.517187 
L 987.219132 26.877187 
L 1087.574186 26.877187 
L 1087.574186 359.517187 
z
" clip-path="url(#p9e4611c89a)" style="fill: #808080; opacity: 0.4; stroke: #808080; stroke-linejoin: miter"/>
   </g>
   <g id="patch_163">
    <path d="M 1090.361826 26.877187 
L 1090.361826 26.877187 
L 1090.361826 359.517187 
" clip-path="url(#p9e4611c89a)" style="fill: #808080; opacity: 0.4; stroke: #808080; stroke-linejoin: miter"/>
   </g>
   <g id="patch_164">
    <path d="M 1093.149467 26.877187 
L 1093.149467 26.877187 
L 1093.149467 359.517187 
" clip-path="url(#p9e4611c89a)" style="fill: #808080; opacity: 0.4; stroke: #808080; stroke-linejoin: miter"/>
   </g>
   <g id="matplotlib.axis_1">
    <g id="xtick_1">
     <g id="line2d_1">
      <defs>
       <path id="m2edf68889a" d="M 0 0 
L 0 3.5 
" style="stroke: #000000; stroke-width: 0.8"/>
      </defs>
      <g>
       <use xlink:href="#m2edf68889a" x="226.026051" y="359.517187" style="stroke: #000000; stroke-width: 0.8"/>
      </g>
     </g>
     <g id="text_1">
      <!-- 2024-11-14 -->
      <g transform="translate(196.968238 374.115625) scale(0.1 -0.1)">
       <defs>
        <path id="DejaVuSans-32" d="M 1228 531 
L 3431 531 
L 3431 0 
L 469 0 
L 469 531 
Q 828 903 1448 1529 
Q 2069 2156 2228 2338 
Q 2531 2678 2651 2914 
Q 2772 3150 2772 3378 
Q 2772 3750 2511 3984 
Q 2250 4219 1831 4219 
Q 1534 4219 1204 4116 
Q 875 4013 500 3803 
L 500 4441 
Q 881 4594 1212 4672 
Q 1544 4750 1819 4750 
Q 2544 4750 2975 4387 
Q 3406 4025 3406 3419 
Q 3406 3131 3298 2873 
Q 3191 2616 2906 2266 
Q 2828 2175 2409 1742 
Q 1991 1309 1228 531 
z
" transform="scale(0.015625)"/>
        <path id="DejaVuSans-30" d="M 2034 4250 
Q 1547 4250 1301 3770 
Q 1056 3291 1056 2328 
Q 1056 1369 1301 889 
Q 1547 409 2034 409 
Q 2525 409 2770 889 
Q 3016 1369 3016 2328 
Q 3016 3291 2770 3770 
Q 2525 4250 2034 4250 
z
M 2034 4750 
Q 2819 4750 3233 4129 
Q 3647 3509 3647 2328 
Q 3647 1150 3233 529 
Q 2819 -91 2034 -91 
Q 1250 -91 836 529 
Q 422 1150 422 2328 
Q 422 3509 836 4129 
Q 1250 4750 2034 4750 
z
" transform="scale(0.015625)"/>
        <path id="DejaVuSans-34" d="M 2419 4116 
L 825 1625 
L 2419 1625 
L 2419 4116 
z
M 2253 4666 
L 3047 4666 
L 3047 1625 
L 3713 1625 
L 3713 1100 
L 3047 1100 
L 3047 0 
L 2419 0 
L 2419 1100 
L 313 1100 
L 313 1709 
L 2253 4666 
z
" transform="scale(0.015625)"/>
        <path id="DejaVuSans-2d" d="M 313 2009 
L 1997 2009 
L 1997 1497 
L 313 1497 
L 313 2009 
z
" transform="scale(0.015625)"/>
        <path id="DejaVuSans-31" d="M 794 531 
L 1825 531 
L 1825 4091 
L 703 3866 
L 703 4441 
L 1819 4666 
L 2450 4666 
L 2450 531 
L 3481 531 
L 3481 0 
L 794 0 
L 794 531 
z
" transform="scale(0.015625)"/>
       </defs>
       <use xlink:href="#DejaVuSans-32"/>
       <use xlink:href="#DejaVuSans-30" x="63.623047"/>
       <use xlink:href="#DejaVuSans-32" x="127.246094"/>
       <use xlink:href="#DejaVuSans-34" x="190.869141"/>
       <use xlink:href="#DejaVuSans-2d" x="254.492188"/>
       <use xlink:href="#DejaVuSans-31" x="290.576172"/>
       <use xlink:href="#DejaVuSans-31" x="354.199219"/>
       <use xlink:href="#DejaVuSans-2d" x="417.822266"/>
       <use xlink:href="#DejaVuSans-31" x="453.90625"/>
       <use xlink:href="#DejaVuSans-34" x="517.529297"/>
      </g>
     </g>
    </g>
    <g id="xtick_2">
     <g id="line2d_2">
      <g>
       <use xlink:href="#m2edf68889a" x="426.736158" y="359.517187" style="stroke: #000000; stroke-width: 0.8"/>
      </g>
     </g>
     <g id="text_2">
      <!-- 2024-11-15 -->
      <g transform="translate(397.678345 374.115625) scale(0.1 -0.1)">
       <defs>
        <path id="DejaVuSans-35" d="M 691 4666 
L 3169 4666 
L 3169 4134 
L 1269 4134 
L 1269 2991 
Q 1406 3038 1543 3061 
Q 1681 3084 1819 3084 
Q 2600 3084 3056 2656 
Q 3513 2228 3513 1497 
Q 3513 744 3044 326 
Q 2575 -91 1722 -91 
Q 1428 -91 1123 -41 
Q 819 9 494 109 
L 494 744 
Q 775 591 1075 516 
Q 1375 441 1709 441 
Q 2250 441 2565 725 
Q 2881 1009 2881 1497 
Q 2881 1984 2565 2268 
Q 2250 2553 1709 2553 
Q 1456 2553 1204 2497 
Q 953 2441 691 2322 
L 691 4666 
z
" transform="scale(0.015625)"/>
       </defs>
       <use xlink:href="#DejaVuSans-32"/>
       <use xlink:href="#DejaVuSans-30" x="63.623047"/>
       <use xlink:href="#DejaVuSans-32" x="127.246094"/>
       <use xlink:href="#DejaVuSans-34" x="190.869141"/>
       <use xlink:href="#DejaVuSans-2d" x="254.492188"/>
       <use xlink:href="#DejaVuSans-31" x="290.576172"/>
       <use xlink:href="#DejaVuSans-31" x="354.199219"/>
       <use xlink:href="#DejaVuSans-2d" x="417.822266"/>
       <use xlink:href="#DejaVuSans-31" x="453.90625"/>
       <use xlink:href="#DejaVuSans-35" x="517.529297"/>
      </g>
     </g>
    </g>
    <g id="xtick_3">
     <g id="line2d_3">
      <g>
       <use xlink:href="#m2edf68889a" x="627.446265" y="359.517187" style="stroke: #000000; stroke-width: 0.8"/>
      </g>
     </g>
     <g id="text_3">
      <!-- 2024-11-16 -->
      <g transform="translate(598.388453 374.115625) scale(0.1 -0.1)">
       <defs>
        <path id="DejaVuSans-36" d="M 2113 2584 
Q 1688 2584 1439 2293 
Q 1191 2003 1191 1497 
Q 1191 994 1439 701 
Q 1688 409 2113 409 
Q 2538 409 2786 701 
Q 3034 994 3034 1497 
Q 3034 2003 2786 2293 
Q 2538 2584 2113 2584 
z
M 3366 4563 
L 3366 3988 
Q 3128 4100 2886 4159 
Q 2644 4219 2406 4219 
Q 1781 4219 1451 3797 
Q 1122 3375 1075 2522 
Q 1259 2794 1537 2939 
Q 1816 3084 2150 3084 
Q 2853 3084 3261 2657 
Q 3669 2231 3669 1497 
Q 3669 778 3244 343 
Q 2819 -91 2113 -91 
Q 1303 -91 875 529 
Q 447 1150 447 2328 
Q 447 3434 972 4092 
Q 1497 4750 2381 4750 
Q 2619 4750 2861 4703 
Q 3103 4656 3366 4563 
z
" transform="scale(0.015625)"/>
       </defs>
       <use xlink:href="#DejaVuSans-32"/>
       <use xlink:href="#DejaVuSans-30" x="63.623047"/>
       <use xlink:href="#DejaVuSans-32" x="127.246094"/>
       <use xlink:href="#DejaVuSans-34" x="190.869141"/>
       <use xlink:href="#DejaVuSans-2d" x="254.492188"/>
       <use xlink:href="#DejaVuSans-31" x="290.576172"/>
       <use xlink:href="#DejaVuSans-31" x="354.199219"/>
       <use xlink:href="#DejaVuSans-2d" x="417.822266"/>
       <use xlink:href="#DejaVuSans-31" x="453.90625"/>
       <use xlink:href="#DejaVuSans-36" x="517.529297"/>
      </g>
     </g>
    </g>
    <g id="xtick_4">
     <g id="line2d_4">
      <g>
       <use xlink:href="#m2edf68889a" x="828.156372" y="359.517187" style="stroke: #000000; stroke-width: 0.8"/>
      </g>
     </g>
     <g id="text_4">
      <!-- 2024-11-17 -->
      <g transform="translate(799.09856 374.115625) scale(0.1 -0.1)">
       <defs>
        <path id="DejaVuSans-37" d="M 525 4666 
L 3525 4666 
L 3525 4397 
L 1831 0 
L 1172 0 
L 2766 4134 
L 525 4134 
L 525 4666 
z
" transform="scale(0.015625)"/>
       </defs>
       <use xlink:href="#DejaVuSans-32"/>
       <use xlink:href="#DejaVuSans-30" x="63.623047"/>
       <use xlink:href="#DejaVuSans-32" x="127.246094"/>
       <use xlink:href="#DejaVuSans-34" x="190.869141"/>
       <use xlink:href="#DejaVuSans-2d" x="254.492188"/>
       <use xlink:href="#DejaVuSans-31" x="290.576172"/>
       <use xlink:href="#DejaVuSans-31" x="354.199219"/>
       <use xlink:href="#DejaVuSans-2d" x="417.822266"/>
       <use xlink:href="#DejaVuSans-31" x="453.90625"/>
       <use xlink:href="#DejaVuSans-37" x="517.529297"/>
      </g>
     </g>
    </g>
    <g id="xtick_5">
     <g id="line2d_5">
      <g>
       <use xlink:href="#m2edf68889a" x="1028.86648" y="359.517187" style="stroke: #000000; stroke-width: 0.8"/>
      </g>
     </g>
     <g id="text_5">
      <!-- 2024-11-18 -->
      <g transform="translate(999.808667 374.115625) scale(0.1 -0.1)">
       <defs>
        <path id="DejaVuSans-38" d="M 2034 2216 
Q 1584 2216 1326 1975 
Q 1069 1734 1069 1313 
Q 1069 891 1326 650 
Q 1584 409 2034 409 
Q 2484 409 2743 651 
Q 3003 894 3003 1313 
Q 3003 1734 2745 1975 
Q 2488 2216 2034 2216 
z
M 1403 2484 
Q 997 2584 770 2862 
Q 544 3141 544 3541 
Q 544 4100 942 4425 
Q 1341 4750 2034 4750 
Q 2731 4750 3128 4425 
Q 3525 4100 3525 3541 
Q 3525 3141 3298 2862 
Q 3072 2584 2669 2484 
Q 3125 2378 3379 2068 
Q 3634 1759 3634 1313 
Q 3634 634 3220 271 
Q 2806 -91 2034 -91 
Q 1263 -91 848 271 
Q 434 634 434 1313 
Q 434 1759 690 2068 
Q 947 2378 1403 2484 
z
M 1172 3481 
Q 1172 3119 1398 2916 
Q 1625 2713 2034 2713 
Q 2441 2713 2670 2916 
Q 2900 3119 2900 3481 
Q 2900 3844 2670 4047 
Q 2441 4250 2034 4250 
Q 1625 4250 1398 4047 
Q 1172 3844 1172 3481 
z
" transform="scale(0.015625)"/>
       </defs>
       <use xlink:href="#DejaVuSans-32"/>
       <use xlink:href="#DejaVuSans-30" x="63.623047"/>
       <use xlink:href="#DejaVuSans-32" x="127.246094"/>
       <use xlink:href="#DejaVuSans-34" x="190.869141"/>
       <use xlink:href="#DejaVuSans-2d" x="254.492188"/>
       <use xlink:href="#DejaVuSans-31" x="290.576172"/>
       <use xlink:href="#DejaVuSans-31" x="354.199219"/>
       <use xlink:href="#DejaVuSans-2d" x="417.822266"/>
       <use xlink:href="#DejaVuSans-31" x="453.90625"/>
       <use xlink:href="#DejaVuSans-38" x="517.529297"/>
      </g>
     </g>
    </g>
    <g id="text_6">
     <!-- Time -->
     <g transform="translate(598.917187 389.313437) scale(0.12 -0.12)">
      <defs>
       <path id="DejaVuSans-54" d="M -19 4666 
L 3928 4666 
L 3928 4134 
L 2272 4134 
L 2272 0 
L 1638 0 
L 1638 4134 
L -19 4134 
L -19 4666 
z
" transform="scale(0.015625)"/>
       <path id="DejaVuSans-69" d="M 603 3500 
L 1178 3500 
L 1178 0 
L 603 0 
L 603 3500 
z
M 603 4863 
L 1178 4863 
L 1178 4134 
L 603 4134 
L 603 4863 
z
" transform="scale(0.015625)"/>
       <path id="DejaVuSans-6d" d="M 3328 2828 
Q 3544 3216 3844 3400 
Q 4144 3584 4550 3584 
Q 5097 3584 5394 3201 
Q 5691 2819 5691 2113 
L 5691 0 
L 5113 0 
L 5113 2094 
Q 5113 2597 4934 2840 
Q 4756 3084 4391 3084 
Q 3944 3084 3684 2787 
Q 3425 2491 3425 1978 
L 3425 0 
L 2847 0 
L 2847 2094 
Q 2847 2600 2669 2842 
Q 2491 3084 2119 3084 
Q 1678 3084 1418 2786 
Q 1159 2488 1159 1978 
L 1159 0 
L 581 0 
L 581 3500 
L 1159 3500 
L 1159 2956 
Q 1356 3278 1631 3431 
Q 1906 3584 2284 3584 
Q 2666 3584 2933 3390 
Q 3200 3197 3328 2828 
z
" transform="scale(0.015625)"/>
       <path id="DejaVuSans-65" d="M 3597 1894 
L 3597 1613 
L 953 1613 
Q 991 1019 1311 708 
Q 1631 397 2203 397 
Q 2534 397 2845 478 
Q 3156 559 3463 722 
L 3463 178 
Q 3153 47 2828 -22 
Q 2503 -91 2169 -91 
Q 1331 -91 842 396 
Q 353 884 353 1716 
Q 353 2575 817 3079 
Q 1281 3584 2069 3584 
Q 2775 3584 3186 3129 
Q 3597 2675 3597 1894 
z
M 3022 2063 
Q 3016 2534 2758 2815 
Q 2500 3097 2075 3097 
Q 1594 3097 1305 2825 
Q 1016 2553 972 2059 
L 3022 2063 
z
" transform="scale(0.015625)"/>
      </defs>
      <use xlink:href="#DejaVuSans-54"/>
      <use xlink:href="#DejaVuSans-69" x="57.958984"/>
      <use xlink:href="#DejaVuSans-6d" x="85.742188"/>
      <use xlink:href="#DejaVuSans-65" x="183.154297"/>
     </g>
    </g>
   </g>
   <g id="matplotlib.axis_2">
    <g id="ytick_1">
     <g id="line2d_6">
      <defs>
       <path id="m052a6f7e59" d="M 0 0 
L -3.5 0 
" style="stroke: #000000; stroke-width: 0.8"/>
      </defs>
      <g>
       <use xlink:href="#m052a6f7e59" x="55.5975" y="344.397187" style="stroke: #000000; stroke-width: 0.8"/>
      </g>
     </g>
     <g id="text_7">
      <!-- 0 -->
      <g transform="translate(42.235 348.196406) scale(0.1 -0.1)">
       <use xlink:href="#DejaVuSans-30"/>
      </g>
     </g>
    </g>
    <g id="ytick_2">
     <g id="line2d_7">
      <g>
       <use xlink:href="#m052a6f7e59" x="55.5975" y="299.195394" style="stroke: #000000; stroke-width: 0.8"/>
      </g>
     </g>
     <g id="text_8">
      <!-- 200 -->
      <g transform="translate(29.51 302.994613) scale(0.1 -0.1)">
       <use xlink:href="#DejaVuSans-32"/>
       <use xlink:href="#DejaVuSans-30" x="63.623047"/>
       <use xlink:href="#DejaVuSans-30" x="127.246094"/>
      </g>
     </g>
    </g>
    <g id="ytick_3">
     <g id="line2d_8">
      <g>
       <use xlink:href="#m052a6f7e59" x="55.5975" y="253.9936" style="stroke: #000000; stroke-width: 0.8"/>
      </g>
     </g>
     <g id="text_9">
      <!-- 400 -->
      <g transform="translate(29.51 257.792819) scale(0.1 -0.1)">
       <use xlink:href="#DejaVuSans-34"/>
       <use xlink:href="#DejaVuSans-30" x="63.623047"/>
       <use xlink:href="#DejaVuSans-30" x="127.246094"/>
      </g>
     </g>
    </g>
    <g id="ytick_4">
     <g id="line2d_9">
      <g>
       <use xlink:href="#m052a6f7e59" x="55.5975" y="208.791806" style="stroke: #000000; stroke-width: 0.8"/>
      </g>
     </g>
     <g id="text_10">
      <!-- 600 -->
      <g transform="translate(29.51 212.591025) scale(0.1 -0.1)">
       <use xlink:href="#DejaVuSans-36"/>
       <use xlink:href="#DejaVuSans-30" x="63.623047"/>
       <use xlink:href="#DejaVuSans-30" x="127.246094"/>
      </g>
     </g>
    </g>
    <g id="ytick_5">
     <g id="line2d_10">
      <g>
       <use xlink:href="#m052a6f7e59" x="55.5975" y="163.590013" style="stroke: #000000; stroke-width: 0.8"/>
      </g>
     </g>
     <g id="text_11">
      <!-- 800 -->
      <g transform="translate(29.51 167.389231) scale(0.1 -0.1)">
       <use xlink:href="#DejaVuSans-38"/>
       <use xlink:href="#DejaVuSans-30" x="63.623047"/>
       <use xlink:href="#DejaVuSans-30" x="127.246094"/>
      </g>
     </g>
    </g>
    <g id="ytick_6">
     <g id="line2d_11">
      <g>
       <use xlink:href="#m052a6f7e59" x="55.5975" y="118.388219" style="stroke: #000000; stroke-width: 0.8"/>
      </g>
     </g>
     <g id="text_12">
      <!-- 1000 -->
      <g transform="translate(23.1475 122.187438) scale(0.1 -0.1)">
       <use xlink:href="#DejaVuSans-31"/>
       <use xlink:href="#DejaVuSans-30" x="63.623047"/>
       <use xlink:href="#DejaVuSans-30" x="127.246094"/>
       <use xlink:href="#DejaVuSans-30" x="190.869141"/>
      </g>
     </g>
    </g>
    <g id="ytick_7">
     <g id="line2d_12">
      <g>
       <use xlink:href="#m052a6f7e59" x="55.5975" y="73.186425" style="stroke: #000000; stroke-width: 0.8"/>
      </g>
     </g>
     <g id="text_13">
      <!-- 1200 -->
      <g transform="translate(23.1475 76.985644) scale(0.1 -0.1)">
       <use xlink:href="#DejaVuSans-31"/>
       <use xlink:href="#DejaVuSans-32" x="63.623047"/>
       <use xlink:href="#DejaVuSans-30" x="127.246094"/>
       <use xlink:href="#DejaVuSans-30" x="190.869141"/>
      </g>
     </g>
    </g>
    <g id="ytick_8">
     <g id="line2d_13">
      <g>
       <use xlink:href="#m052a6f7e59" x="55.5975" y="27.984631" style="stroke: #000000; stroke-width: 0.8"/>
      </g>
     </g>
     <g id="text_14">
      <!-- 1400 -->
      <g transform="translate(23.1475 31.78385) scale(0.1 -0.1)">
       <use xlink:href="#DejaVuSans-31"/>
       <use xlink:href="#DejaVuSans-34" x="63.623047"/>
       <use xlink:href="#DejaVuSans-30" x="127.246094"/>
       <use xlink:href="#DejaVuSans-30" x="190.869141"/>
      </g>
     </g>
    </g>
    <g id="text_15">
     <!-- Pellet_Count -->
     <g transform="translate(16.318125 230.485312) rotate(-90) scale(0.12 -0.12)">
      <defs>
       <path id="DejaVuSans-50" d="M 1259 4147 
L 1259 2394 
L 2053 2394 
Q 2494 2394 2734 2622 
Q 2975 2850 2975 3272 
Q 2975 3691 2734 3919 
Q 2494 4147 2053 4147 
L 1259 4147 
z
M 628 4666 
L 2053 4666 
Q 2838 4666 3239 4311 
Q 3641 3956 3641 3272 
Q 3641 2581 3239 2228 
Q 2838 1875 2053 1875 
L 1259 1875 
L 1259 0 
L 628 0 
L 628 4666 
z
" transform="scale(0.015625)"/>
       <path id="DejaVuSans-6c" d="M 603 4863 
L 1178 4863 
L 1178 0 
L 603 0 
L 603 4863 
z
" transform="scale(0.015625)"/>
       <path id="DejaVuSans-74" d="M 1172 4494 
L 1172 3500 
L 2356 3500 
L 2356 3053 
L 1172 3053 
L 1172 1153 
Q 1172 725 1289 603 
Q 1406 481 1766 481 
L 2356 481 
L 2356 0 
L 1766 0 
Q 1100 0 847 248 
Q 594 497 594 1153 
L 594 3053 
L 172 3053 
L 172 3500 
L 594 3500 
L 594 4494 
L 1172 4494 
z
" transform="scale(0.015625)"/>
       <path id="DejaVuSans-5f" d="M 3263 -1063 
L 3263 -1509 
L -63 -1509 
L -63 -1063 
L 3263 -1063 
z
" transform="scale(0.015625)"/>
       <path id="DejaVuSans-43" d="M 4122 4306 
L 4122 3641 
Q 3803 3938 3442 4084 
Q 3081 4231 2675 4231 
Q 1875 4231 1450 3742 
Q 1025 3253 1025 2328 
Q 1025 1406 1450 917 
Q 1875 428 2675 428 
Q 3081 428 3442 575 
Q 3803 722 4122 1019 
L 4122 359 
Q 3791 134 3420 21 
Q 3050 -91 2638 -91 
Q 1578 -91 968 557 
Q 359 1206 359 2328 
Q 359 3453 968 4101 
Q 1578 4750 2638 4750 
Q 3056 4750 3426 4639 
Q 3797 4528 4122 4306 
z
" transform="scale(0.015625)"/>
       <path id="DejaVuSans-6f" d="M 1959 3097 
Q 1497 3097 1228 2736 
Q 959 2375 959 1747 
Q 959 1119 1226 758 
Q 1494 397 1959 397 
Q 2419 397 2687 759 
Q 2956 1122 2956 1747 
Q 2956 2369 2687 2733 
Q 2419 3097 1959 3097 
z
M 1959 3584 
Q 2709 3584 3137 3096 
Q 3566 2609 3566 1747 
Q 3566 888 3137 398 
Q 2709 -91 1959 -91 
Q 1206 -91 779 398 
Q 353 888 353 1747 
Q 353 2609 779 3096 
Q 1206 3584 1959 3584 
z
" transform="scale(0.015625)"/>
       <path id="DejaVuSans-75" d="M 544 1381 
L 544 3500 
L 1119 3500 
L 1119 1403 
Q 1119 906 1312 657 
Q 1506 409 1894 409 
Q 2359 409 2629 706 
Q 2900 1003 2900 1516 
L 2900 3500 
L 3475 3500 
L 3475 0 
L 2900 0 
L 2900 538 
Q 2691 219 2414 64 
Q 2138 -91 1772 -91 
Q 1169 -91 856 284 
Q 544 659 544 1381 
z
M 1991 3584 
L 1991 3584 
z
" transform="scale(0.015625)"/>
       <path id="DejaVuSans-6e" d="M 3513 2113 
L 3513 0 
L 2938 0 
L 2938 2094 
Q 2938 2591 2744 2837 
Q 2550 3084 2163 3084 
Q 1697 3084 1428 2787 
Q 1159 2491 1159 1978 
L 1159 0 
L 581 0 
L 581 3500 
L 1159 3500 
L 1159 2956 
Q 1366 3272 1645 3428 
Q 1925 3584 2291 3584 
Q 2894 3584 3203 3211 
Q 3513 2838 3513 2113 
z
" transform="scale(0.015625)"/>
      </defs>
      <use xlink:href="#DejaVuSans-50"/>
      <use xlink:href="#DejaVuSans-65" x="56.677734"/>
      <use xlink:href="#DejaVuSans-6c" x="118.201172"/>
      <use xlink:href="#DejaVuSans-6c" x="145.984375"/>
      <use xlink:href="#DejaVuSans-65" x="173.767578"/>
      <use xlink:href="#DejaVuSans-74" x="235.291016"/>
      <use xlink:href="#DejaVuSans-5f" x="274.5"/>
      <use xlink:href="#DejaVuSans-43" x="324.5"/>
      <use xlink:href="#DejaVuSans-6f" x="394.324219"/>
      <use xlink:href="#DejaVuSans-75" x="455.505859"/>
      <use xlink:href="#DejaVuSans-6e" x="518.884766"/>
      <use xlink:href="#DejaVuSans-74" x="582.263672"/>
     </g>
    </g>
   </g>
   <g id="line2d_14">
    <path d="M 106.324773 344.397187 
L 106.763826 344.397187 
L 106.773118 344.171179 
L 106.956638 344.171179 
L 107.079759 343.94517 
L 108.689621 343.94517 
L 108.752343 343.719161 
L 111.507461 343.719161 
L 111.609674 343.493152 
L 113.147523 343.493152 
L 113.152169 343.267143 
L 116.501983 343.267143 
L 116.613489 343.041134 
L 116.834177 343.041134 
L 116.924775 342.815125 
L 117.633301 342.815125 
L 117.637947 342.589116 
L 117.807528 342.589116 
L 117.926003 342.137098 
L 118.111845 342.137098 
L 118.155983 341.911089 
L 118.313949 341.911089 
L 118.420809 341.459071 
L 118.532315 341.459071 
L 118.639174 341.233062 
L 118.653112 341.233062 
L 118.746034 340.781044 
L 118.848247 340.781044 
L 118.959753 340.555035 
L 119.024798 340.555035 
L 119.138626 340.103017 
L 119.154888 340.103017 
L 119.26407 339.42499 
L 119.324469 339.42499 
L 119.429006 338.972972 
L 119.473143 338.972972 
L 119.570711 338.520954 
L 119.812306 338.520954 
L 119.921489 338.294945 
L 119.944719 338.294945 
L 120.03764 337.390909 
L 120.084101 337.390909 
L 120.214191 336.260865 
L 120.230452 336.260865 
L 120.290851 336.034856 
L 120.367511 335.808847 
L 121.547612 335.808847 
L 121.554581 335.582838 
L 123.424623 335.582838 
L 123.512899 334.904811 
L 123.543098 334.904811 
L 123.547744 334.678802 
L 123.756817 334.678802 
L 123.761463 334.452793 
L 125.529292 334.452793 
L 125.533938 334.226784 
L 125.719781 334.226784 
L 125.838255 333.322748 
L 125.861486 333.322748 
L 125.866132 333.096739 
L 128.814061 333.096739 
L 128.944151 332.87073 
L 128.997581 332.87073 
L 129.048688 332.644721 
L 130.372817 332.644721 
L 130.486646 332.418712 
L 130.514522 332.418712 
L 130.61209 332.192703 
L 132.177814 332.192703 
L 132.286997 331.740685 
L 132.338104 331.740685 
L 132.377595 331.288667 
L 134.110578 331.288667 
L 134.191884 330.836649 
L 134.238345 330.836649 
L 134.245314 330.61064 
L 136.44755 330.61064 
L 136.563702 330.384631 
L 136.57764 330.384631 
L 136.698438 329.706605 
L 136.73096 329.706605 
L 136.791359 329.254587 
L 139.950685 329.254587 
L 140.073806 328.350551 
L 140.561643 328.350551 
L 140.566289 328.124542 
L 141.739421 328.124542 
L 141.864865 327.220506 
L 141.909002 327.220506 
L 142.004247 326.542479 
L 143.061227 326.542479 
L 143.149502 326.090461 
L 143.925395 326.090461 
L 144.108915 324.960416 
L 144.132145 324.960416 
L 144.176283 324.508398 
L 144.745426 324.508398 
L 144.750072 324.282389 
L 144.949853 324.282389 
L 145.00096 323.830371 
L 145.895328 323.830371 
L 145.902297 323.604362 
L 146.26469 323.604362 
L 146.352966 323.378353 
L 147.100982 323.378353 
L 147.175319 322.700327 
L 147.730524 322.700327 
L 147.735171 322.474318 
L 147.883845 322.474318 
L 147.888491 322.248309 
L 148.51571 322.248309 
L 148.520356 322.0223 
L 150.060527 322.0223 
L 150.179002 321.344273 
L 150.197586 321.344273 
L 150.306769 320.440237 
L 150.34626 320.440237 
L 150.383429 319.988219 
L 151.505454 319.988219 
L 151.526361 319.536201 
L 155.066665 319.536201 
L 155.187462 318.632165 
L 155.222308 318.632165 
L 155.331491 317.728129 
L 155.391889 317.728129 
L 155.431381 317.276111 
L 157.062151 317.276111 
L 157.066797 317.050102 
L 157.76603 317.050102 
L 157.768353 316.824093 
L 157.956519 316.824093 
L 157.958842 316.598084 
L 159.677887 316.598084 
L 159.745255 316.146066 
L 160.927679 316.146066 
L 160.930002 315.920057 
L 161.139075 315.920057 
L 161.143721 315.694048 
L 164.010344 315.694048 
L 164.131142 315.242031 
L 164.161341 315.242031 
L 164.263555 314.564004 
L 164.310016 314.564004 
L 164.421521 314.337995 
L 164.433136 314.337995 
L 164.539996 313.885977 
L 167.901426 313.885977 
L 167.989701 313.433959 
L 168.080299 313.433959 
L 168.119791 313.20795 
L 168.672673 313.20795 
L 168.798117 312.303914 
L 168.825993 312.303914 
L 168.863162 311.851896 
L 169.697131 311.851896 
L 169.699454 311.625887 
L 170.333642 311.625887 
L 170.461409 310.721851 
L 170.486962 310.721851 
L 170.549684 310.269833 
L 171.497482 310.269833 
L 171.502128 310.043824 
L 172.549816 310.043824 
L 172.552139 309.817815 
L 172.703136 309.817815 
L 172.777473 309.365797 
L 173.999389 309.365797 
L 174.080695 309.139788 
L 174.6359 309.139788 
L 174.682361 308.68777 
L 175.402501 308.68777 
L 175.51633 308.235753 
L 175.555822 308.235753 
L 175.66965 307.783735 
L 177.690689 307.783735 
L 177.695336 307.557726 
L 178.238925 307.557726 
L 178.352754 307.105708 
L 178.355077 307.105708 
L 178.461937 306.427681 
L 178.499105 306.427681 
L 178.538597 305.975663 
L 179.472456 305.975663 
L 179.477102 305.749654 
L 179.876664 305.749654 
L 181.563187 305.523645 
L 181.653785 305.071627 
L 181.739737 305.071627 
L 181.744383 304.845618 
L 183.923389 304.845618 
L 184.007018 304.3936 
L 184.044186 304.3936 
L 184.151046 303.715573 
L 208.828632 303.715573 
L 208.891354 303.263555 
L 218.364686 303.263555 
L 218.480837 302.359519 
L 218.527298 302.359519 
L 218.629511 301.455483 
L 221.3312 301.455483 
L 221.393921 301.229474 
L 221.707531 301.229474 
L 221.788837 300.551448 
L 223.786646 300.551448 
L 223.791292 300.325439 
L 224.985332 300.325439 
L 225.068961 299.647412 
L 229.231837 299.647412 
L 229.329404 299.195394 
L 229.426972 299.195394 
L 229.475756 298.969385 
L 230.242357 298.969385 
L 230.24468 298.743376 
L 230.943913 298.743376 
L 231.050772 298.065349 
L 231.087941 298.065349 
L 231.180862 297.161313 
L 231.236615 297.161313 
L 231.241261 296.935304 
L 234.630567 296.935304 
L 234.714196 296.257277 
L 244.08996 296.257277 
L 244.19682 295.57925 
L 244.24328 295.57925 
L 244.366401 294.675214 
L 244.4268 294.675214 
L 244.496491 293.997187 
L 253.939623 293.997187 
L 254.039513 293.54517 
L 258.395201 293.54517 
L 258.522968 292.641134 
L 258.553168 292.641134 
L 258.592659 292.189116 
L 262.75089 292.189116 
L 262.864718 291.28508 
L 267.829041 291.28508 
L 267.938224 290.607053 
L 267.991653 290.607053 
L 268.031145 290.155035 
L 275.95269 290.155035 
L 276.071164 289.250999 
L 276.115302 289.250999 
L 276.150148 288.798981 
L 280.215457 288.798981 
L 280.331608 287.894945 
L 280.39433 287.894945 
L 280.422207 287.668936 
L 283.349229 287.668936 
L 283.470027 286.990909 
L 283.516487 286.990909 
L 283.623347 286.312883 
L 286.174038 286.312883 
L 286.176361 286.086874 
L 288.164878 286.086874 
L 288.271737 285.634856 
L 288.283352 285.634856 
L 288.397181 284.956829 
L 288.548178 284.956829 
L 288.624838 284.278802 
L 291.52863 284.278802 
L 291.61226 283.826784 
L 291.65872 283.826784 
L 291.744673 283.148757 
L 295.247807 283.148757 
L 295.347698 282.47073 
L 295.412743 282.47073 
L 295.512633 281.792703 
L 295.540509 281.792703 
L 295.542833 281.566694 
L 297.368737 281.566694 
L 297.37106 281.340685 
L 298.460563 281.340685 
L 298.562776 280.436649 
L 298.613883 280.436649 
L 298.648729 279.984631 
L 300.300405 279.984631 
L 300.400296 279.080596 
L 300.444434 279.080596 
L 300.479279 278.628578 
L 301.986928 278.628578 
L 302.105403 277.724542 
L 302.128633 277.724542 
L 302.212262 277.046515 
L 303.961506 277.046515 
L 304.073012 276.594497 
L 304.604987 276.594497 
L 304.609633 276.368488 
L 304.830321 276.368488 
L 304.920919 275.690461 
L 305.9477 275.690461 
L 305.950023 275.464452 
L 306.31474 275.464452 
L 306.372815 275.012434 
L 306.995388 275.012434 
L 307.05811 274.560416 
L 308.036107 274.560416 
L 308.152259 273.65638 
L 308.17549 273.65638 
L 308.180136 273.430371 
L 308.619189 273.430371 
L 308.621512 273.204362 
L 309.736568 273.204362 
L 309.796967 272.752344 
L 311.123419 272.752344 
L 311.225633 271.848309 
L 311.260478 271.848309 
L 311.265124 271.6223 
L 312.645006 271.6223 
L 312.679852 271.170282 
L 313.627649 271.170282 
L 313.660172 270.944273 
L 314.42445 270.944273 
L 314.545248 269.814228 
L 314.573124 269.814228 
L 314.575447 269.588219 
L 316.371152 269.588219 
L 316.373475 269.36221 
L 317.098262 269.36221 
L 317.140076 268.910192 
L 318.738324 268.910192 
L 318.833568 268.006156 
L 319.978823 268.006156 
L 320.090329 267.10212 
L 320.122852 267.10212 
L 320.16002 266.650102 
L 322.018447 266.650102 
L 322.545776 266.424093 
L 322.575975 265.972075 
L 324.369357 265.972075 
L 324.469248 265.294048 
L 325.784085 265.294048 
L 325.902559 264.842031 
L 325.921144 264.842031 
L 325.953666 264.616022 
L 328.388205 264.616022 
L 328.492742 263.937995 
L 328.509003 263.937995 
L 328.629801 263.259968 
L 328.653031 263.259968 
L 328.780798 262.355932 
L 331.758927 262.355932 
L 331.870433 261.677905 
L 331.984261 260.999878 
L 334.27245 260.999878 
L 334.274773 260.773869 
L 335.036728 260.773869 
L 335.159848 260.321851 
L 335.203986 260.321851 
L 335.217924 260.095842 
L 336.077447 260.095842 
L 336.151784 259.417815 
L 337.141396 259.417815 
L 337.146042 259.191806 
L 338.370281 259.191806 
L 338.374927 258.965797 
L 339.738548 258.965797 
L 339.740871 258.739788 
L 340.967432 258.739788 
L 341.083584 258.061761 
L 341.099845 258.061761 
L 341.211351 257.157726 
L 341.239227 257.157726 
L 341.243873 256.931717 
L 343.773657 256.931717 
L 343.820118 256.705708 
L 344.895682 256.705708 
L 344.944466 256.25369 
L 345.694806 256.25369 
L 345.752882 255.801672 
L 346.840062 255.801672 
L 346.844708 255.575663 
L 347.246592 255.575663 
L 347.369713 254.445618 
L 349.785668 254.445618 
L 349.850713 253.9936 
L 350.501163 253.9936 
L 350.503486 253.767591 
L 350.844972 253.767591 
L 350.963446 252.863555 
L 351.987904 252.863555 
L 352.055272 252.637546 
L 353.140129 252.637546 
L 353.142452 252.411537 
L 354.127418 252.411537 
L 354.129741 252.185528 
L 354.596671 252.185528 
L 354.705853 251.507501 
L 354.722115 251.507501 
L 354.763929 251.055483 
L 357.017272 251.055483 
L 357.091609 250.377457 
L 358.589966 250.377457 
L 358.678241 249.925439 
L 359.54241 249.925439 
L 359.74219 249.69943 
L 361.52628 249.69943 
L 361.637786 248.795394 
L 361.663339 248.795394 
L 361.746968 248.343376 
L 365.022446 248.343376 
L 365.133952 248.117367 
L 365.17112 248.117367 
L 365.268687 247.43934 
L 365.308179 247.43934 
L 365.403423 246.761313 
L 368.074912 246.761313 
L 368.193387 245.857277 
L 370.084336 245.857277 
L 370.151704 245.405259 
L 370.816092 245.405259 
L 370.918305 244.501223 
L 370.948505 244.501223 
L 370.950828 244.275214 
L 373.057819 244.275214 
L 373.150741 243.597187 
L 375.680524 243.597187 
L 375.803645 242.693152 
L 377.917606 242.693152 
L 377.919929 242.467143 
L 378.352013 242.467143 
L 378.354336 242.241134 
L 379.130229 242.241134 
L 379.241735 242.015125 
L 379.25335 242.015125 
L 379.288196 241.563107 
L 380.630909 241.563107 
L 380.633232 241.337098 
L 381.515985 241.337098 
L 381.520631 241.111089 
L 381.676274 241.111089 
L 381.687889 240.88508 
L 382.080482 240.88508 
L 382.196634 240.207053 
L 382.203603 239.981044 
L 384.013246 239.981044 
L 384.022538 239.755035 
L 384.596327 239.755035 
L 384.789139 239.529026 
L 385.437266 239.529026 
L 385.441912 239.303017 
L 386.261943 239.303017 
L 386.552322 237.494945 
L 390.808119 237.494945 
L 390.859226 237.268936 
L 403.05283 237.268936 
L 403.134136 237.042927 
L 403.224734 237.042927 
L 403.227057 236.816918 
L 411.143956 236.816918 
L 411.143956 236.816918 
L 411.155571 236.590909 
L 411.299599 236.590909 
L 411.304245 236.364901 
L 415.474091 236.364901 
L 415.585596 235.912883 
L 415.625088 235.912883 
L 415.625088 235.912883 
L 415.720332 235.460865 
L 418.514942 235.460865 
L 418.519588 235.234856 
L 420.680009 235.234856 
L 420.791515 234.782838 
L 420.833329 234.782838 
L 420.837975 234.556829 
L 426.566576 234.556829 
L 426.673436 233.878802 
L 426.733835 233.878802 
L 426.84534 233.200775 
L 431.349703 233.200775 
L 431.391517 232.748757 
L 431.486762 232.748757 
L 431.558776 232.296739 
L 442.337652 232.296739 
L 442.339975 232.07073 
L 442.576924 232.07073 
L 442.662877 231.392703 
L 448.170789 231.392703 
L 448.286941 230.714676 
L 448.333402 230.714676 
L 448.368247 230.262658 
L 450.88177 230.262658 
L 450.886416 230.036649 
L 451.009536 230.036649 
L 451.095489 229.358622 
L 451.130334 229.358622 
L 451.132657 229.132614 
L 461.014842 229.132614 
L 461.11241 228.454587 
L 461.156547 228.454587 
L 461.193716 228.002569 
L 461.272699 228.002569 
L 461.34239 227.324542 
L 470.464943 227.324542 
L 470.525342 226.872524 
L 472.01673 226.872524 
L 472.102682 226.194497 
L 472.232772 226.194497 
L 472.274586 225.742479 
L 477.445659 225.742479 
L 477.561811 225.290461 
L 480.749013 225.290461 
L 480.867488 224.612434 
L 480.941825 224.612434 
L 480.988286 224.160416 
L 484.005906 224.160416 
L 484.13135 223.25638 
L 484.18478 223.25638 
L 484.189426 223.030371 
L 487.063019 223.030371 
L 487.17917 222.352344 
L 490.436064 222.352344 
L 490.44071 222.126335 
L 490.937839 222.126335 
L 491.014499 221.448309 
L 493.061092 221.448309 
L 493.147044 220.996291 
L 493.177243 220.996291 
L 493.286426 220.318264 
L 493.316625 220.318264 
L 493.318948 220.092255 
L 494.705799 220.092255 
L 494.745291 219.640237 
L 495.888223 219.640237 
L 496.01599 218.736201 
L 498.778077 218.736201 
L 498.7804 218.510192 
L 499.154409 218.510192 
L 499.159055 218.284183 
L 500.56449 218.284183 
L 501.407751 218.058174 
L 501.433305 217.832165 
L 502.174353 217.832165 
L 502.297473 217.154138 
L 504.000257 216.928129 
L 504.009549 216.70212 
L 504.548493 216.70212 
L 504.664645 216.250102 
L 505.798285 216.250102 
L 505.907468 215.346066 
L 507.136352 215.346066 
L 507.178167 214.894048 
L 508.040013 214.894048 
L 508.353622 214.66804 
L 508.427959 214.442031 
L 509.589476 214.442031 
L 509.705628 213.537995 
L 509.733504 213.537995 
L 509.772996 213.085977 
L 511.584962 213.085977 
L 511.708083 212.181941 
L 511.745251 212.181941 
L 511.749897 211.955932 
L 513.750029 211.955932 
L 513.835981 211.277905 
L 514.444616 211.277905 
L 515.201925 211.051896 
L 515.24374 210.599878 
L 516.639883 210.599878 
L 516.644529 210.373869 
L 516.828049 210.373869 
L 516.858248 210.14786 
L 517.933813 210.14786 
L 518.036026 209.243824 
L 519.841023 209.243824 
L 519.850316 209.017815 
L 521.26272 209.017815 
L 521.309181 208.791806 
L 522.117596 208.791806 
L 522.119919 208.565797 
L 523.058425 208.565797 
L 523.065394 208.339788 
L 524.668287 208.339788 
L 524.782116 207.661761 
L 524.786762 207.661761 
L 524.882006 206.757726 
L 527.065658 206.757726 
L 527.146964 206.079699 
L 528.933377 206.079699 
L 528.996099 205.401672 
L 530.143678 205.401672 
L 530.146001 205.175663 
L 530.782512 205.175663 
L 530.884725 204.271627 
L 532.689723 204.271627 
L 532.692046 204.045618 
L 533.316942 204.045618 
L 533.326234 203.819609 
L 534.346046 203.819609 
L 534.513304 202.915573 
L 536.236995 202.915573 
L 536.313655 202.237546 
L 537.287006 202.237546 
L 538.051284 202.011537 
L 538.120975 201.33351 
L 539.382383 201.33351 
L 539.491565 201.107501 
L 539.691346 201.107501 
L 539.807498 200.203466 
L 539.830728 200.203466 
L 539.86325 199.977457 
L 541.452205 199.977457 
L 542.42788 199.751448 
L 542.458079 199.29943 
L 544.05168 199.29943 
L 544.153894 198.395394 
L 544.174801 198.395394 
L 544.177124 198.169385 
L 546.007674 198.169385 
L 546.012321 197.943376 
L 548.075174 197.943376 
L 548.149511 197.491358 
L 551.680523 197.491358 
L 551.706076 197.265349 
L 551.819905 197.265349 
L 551.852427 196.813331 
L 553.123127 196.813331 
L 553.223017 196.135304 
L 554.477455 196.135304 
L 554.554115 195.683286 
L 556.712214 195.683286 
L 556.76332 195.457277 
L 558.219862 195.457277 
L 558.349952 194.553241 
L 558.39409 194.553241 
L 558.463781 194.101223 
L 561.818241 194.101223 
L 561.911163 193.649205 
L 561.957624 193.649205 
L 562.071452 192.74517 
L 564.264396 192.74517 
L 564.266719 192.519161 
L 565.044935 192.519161 
L 565.149472 191.841134 
L 566.324927 191.841134 
L 566.438755 190.937098 
L 567.87439 190.937098 
L 567.985896 190.259071 
L 569.716556 190.259071 
L 569.721202 190.033062 
L 570.216008 190.033062 
L 570.313576 189.129026 
L 570.341452 189.129026 
L 570.383267 188.677008 
L 572.618025 188.677008 
L 572.850328 188.450999 
L 573.203429 188.450999 
L 573.208075 188.22499 
L 573.43341 188.22499 
L 573.551884 187.320954 
L 573.556531 187.094945 
L 575.03398 187.094945 
L 575.036303 186.868936 
L 575.189623 186.868936 
L 575.995716 186.642927 
L 576.086314 186.416918 
L 577.389536 186.416918 
L 577.768191 186.190909 
L 578.479039 186.190909 
L 578.815879 185.964901 
L 579.882151 185.964901 
L 579.921643 185.512883 
L 580.881056 185.512883 
L 580.95307 184.834856 
L 582.548994 184.834856 
L 582.634946 184.156829 
L 584.051997 184.156829 
L 584.05432 183.93082 
L 584.607202 183.93082 
L 584.651339 183.478802 
L 585.622367 183.478802 
L 585.822148 183.026784 
L 585.896485 182.574766 
L 592.024648 182.574766 
L 593.279086 182.348757 
L 605.837406 182.348757 
L 605.895482 182.122748 
L 606.09294 182.122748 
L 606.181215 181.444721 
L 619.866206 181.444721 
L 619.952159 180.766694 
L 620.003265 180.766694 
L 620.09851 180.088667 
L 623.731734 180.088667 
L 623.768903 179.862658 
L 649.807787 179.862658 
L 649.991307 178.732614 
L 650.026152 178.732614 
L 650.142304 178.054587 
L 650.14695 177.828578 
L 662.317323 177.828578 
L 662.440444 176.924542 
L 662.482259 176.924542 
L 662.486905 176.698533 
L 669.490851 176.698533 
L 669.525697 176.246515 
L 673.781494 176.246515 
L 673.904615 175.342479 
L 673.927845 175.342479 
L 673.965014 174.890461 
L 676.610949 174.890461 
L 676.615595 174.664452 
L 682.074724 174.664452 
L 682.165323 173.986425 
L 682.216429 173.986425 
L 682.332581 173.308398 
L 682.348842 173.308398 
L 682.388334 172.85638 
L 687.015817 172.85638 
L 687.138938 172.178353 
L 687.22489 172.178353 
L 687.259735 171.726335 
L 689.159977 171.726335 
L 689.1623 171.500327 
L 690.820946 171.500327 
L 690.823269 171.274318 
L 692.052154 171.274318 
L 692.154367 170.596291 
L 692.189213 170.596291 
L 692.224058 170.144273 
L 695.376415 170.144273 
L 695.492567 169.240237 
L 698.054873 169.240237 
L 698.159409 168.336201 
L 698.208193 168.336201 
L 698.326668 167.432165 
L 698.354544 167.432165 
L 698.391713 166.980147 
L 703.6046 166.980147 
L 703.606923 166.754138 
L 704.108699 166.754138 
L 704.113345 166.528129 
L 704.559367 166.528129 
L 704.59189 166.076111 
L 705.41889 166.076111 
L 705.521103 165.398084 
L 707.063597 165.398084 
L 707.170457 164.494048 
L 707.193687 164.494048 
L 707.233179 164.042031 
L 707.927766 164.042031 
L 707.932412 163.816022 
L 708.406311 163.816022 
L 708.473679 163.590013 
L 709.05676 163.590013 
L 709.061406 163.364004 
L 710.176462 163.364004 
L 710.246153 162.685977 
L 711.30778 162.685977 
L 711.328687 162.459968 
L 711.730572 162.459968 
L 711.807232 161.781941 
L 713.923516 161.781941 
L 714.04199 160.877905 
L 714.046636 160.877905 
L 714.051283 160.651896 
L 715.503179 160.651896 
L 715.828403 160.425887 
L 715.925971 159.521851 
L 715.960816 159.521851 
L 715.970108 159.295842 
L 717.721676 159.295842 
L 717.800659 158.843824 
L 718.188605 158.843824 
L 718.279204 158.165797 
L 719.844928 158.165797 
L 719.963403 157.035753 
L 721.714971 157.035753 
L 721.803246 156.131717 
L 721.835768 156.131717 
L 721.863645 155.679699 
L 723.533906 155.679699 
L 723.540875 155.45369 
L 724.588563 155.45369 
L 724.646639 155.001672 
L 725.0764 155.001672 
L 725.215782 154.775663 
L 725.859263 154.775663 
L 725.863909 154.549654 
L 726.535265 154.549654 
L 726.60031 153.871627 
L 729.239277 153.871627 
L 729.425119 153.645618 
L 729.536625 152.741582 
L 729.57147 152.741582 
L 729.617931 152.515573 
L 731.10235 152.289564 
L 733.197726 152.289564 
L 733.299939 151.385528 
L 734.721636 151.385528 
L 734.726282 151.159519 
L 735.367439 151.159519 
L 735.411577 150.93351 
L 736.401189 150.93351 
L 736.50108 150.029474 
L 736.531279 150.029474 
L 736.661369 148.89943 
L 739.179538 148.89943 
L 739.274782 147.995394 
L 740.900905 147.995394 
L 741.000796 147.317367 
L 741.028672 147.317367 
L 741.061195 146.865349 
L 743.537549 146.865349 
L 743.660669 146.63934 
L 745.481928 146.63934 
L 745.59808 145.961313 
L 745.605049 145.961313 
L 745.695647 145.057277 
L 749.115152 145.057277 
L 749.18252 144.37925 
L 750.436959 144.37925 
L 750.511296 143.701223 
L 752.255894 143.701223 
L 752.372046 142.797187 
L 752.397599 142.797187 
L 752.476582 142.119161 
L 754.167751 142.119161 
L 754.625388 141.893152 
L 754.630034 141.667143 
L 755.826397 141.667143 
L 755.98204 141.215125 
L 756.019208 140.763107 
L 758.144784 140.763107 
L 758.260936 139.859071 
L 759.615265 139.859071 
L 759.724447 138.955035 
L 761.592166 138.955035 
L 761.622366 138.503017 
L 761.910422 138.503017 
L 762.23797 138.277008 
L 762.296045 137.598981 
L 763.659666 137.598981 
L 763.659666 137.598981 
L 763.905908 137.146963 
L 763.966307 136.468936 
L 765.483248 136.468936 
L 765.578492 136.242927 
L 766.368323 136.242927 
L 766.714455 136.016918 
L 767.213908 136.016918 
L 767.332382 135.338892 
L 767.383489 135.338892 
L 767.388135 135.112883 
L 769.255854 135.112883 
L 769.595017 134.886874 
L 769.7042 133.982838 
L 769.743691 133.982838 
L 769.771568 133.53082 
L 771.980773 133.53082 
L 772.038848 132.852793 
L 773.263087 132.852793 
L 773.26541 132.626784 
L 774.905472 132.626784 
L 775.005362 131.722748 
L 775.035562 131.722748 
L 775.086669 131.27073 
L 776.120419 131.27073 
L 777.302843 131.044721 
L 777.405056 130.140685 
L 779.296006 130.140685 
L 779.495787 129.236649 
L 779.742028 129.236649 
L 782.088292 129.01064 
L 782.144045 128.558622 
L 782.327565 128.558622 
L 783.623817 128.332614 
L 785.342862 128.332614 
L 785.465983 127.202569 
L 804.187311 127.202569 
L 804.191957 126.97656 
L 804.570612 126.97656 
L 804.682117 126.072524 
L 804.721609 126.072524 
L 804.723932 125.846515 
L 811.697679 125.846515 
L 811.788277 125.168488 
L 811.841707 125.168488 
L 811.846353 124.942479 
L 817.542432 124.942479 
L 817.691106 124.038443 
L 822.237283 124.038443 
L 822.279097 123.586425 
L 825.517406 123.586425 
L 825.614974 123.360416 
L 826.620847 123.360416 
L 826.62317 123.134407 
L 827.424617 123.134407 
L 834.505223 122.908398 
L 834.628344 122.230371 
L 834.639959 122.230371 
L 834.677128 121.778353 
L 843.465164 121.778353 
L 843.583639 121.326335 
L 847.460782 121.326335 
L 847.583903 120.648309 
L 847.614102 120.648309 
L 847.616425 120.4223 
L 849.161243 120.4223 
L 849.251841 120.196291 
L 855.477571 120.196291 
L 855.582108 119.518264 
L 855.651799 119.518264 
L 855.747043 118.840237 
L 864.546694 118.840237 
L 864.665169 118.16221 
L 864.751121 118.16221 
L 864.848689 117.936201 
L 870.286911 117.936201 
L 870.391447 117.484183 
L 873.411391 117.484183 
L 873.499666 117.032165 
L 873.543804 117.032165 
L 873.604203 116.580147 
L 879.511677 116.580147 
L 879.609245 116.128129 
L 879.653382 116.128129 
L 879.77418 115.450102 
L 883.439927 115.450102 
L 883.565371 114.546066 
L 883.611832 114.546066 
L 883.655969 114.094048 
L 885.407537 114.094048 
L 885.412183 113.86804 
L 887.779354 113.86804 
L 888.216084 113.190013 
L 889.767871 113.190013 
L 889.886346 112.285977 
L 889.911899 112.285977 
L 889.914222 112.059968 
L 892.276747 112.059968 
L 892.351084 111.381941 
L 892.406837 111.381941 
L 892.490466 110.703914 
L 898.363095 110.703914 
L 898.45834 110.025887 
L 898.495508 110.025887 
L 898.532677 109.799878 
L 901.517775 109.799878 
L 901.63625 108.895842 
L 901.836031 108.895842 
L 901.870876 108.443824 
L 903.659612 108.443824 
L 903.661935 108.217815 
L 904.100988 108.217815 
L 904.103311 107.991806 
L 904.711946 107.991806 
L 904.716592 107.765797 
L 905.536623 107.765797 
L 905.650452 107.08777 
L 905.745696 107.08777 
L 905.852556 106.409744 
L 907.504233 106.409744 
L 907.54837 105.957726 
L 907.680783 105.957726 
L 907.752797 105.279699 
L 909.418412 105.279699 
L 909.536887 104.375663 
L 910.531146 104.375663 
L 910.805264 104.149654 
L 910.807587 103.923645 
L 911.827398 103.923645 
L 911.971426 103.019609 
L 911.976072 103.019609 
L 911.978396 102.7936 
L 914.412935 102.7936 
L 914.415258 102.567591 
L 914.698668 102.567591 
L 914.81482 101.663555 
L 914.854311 101.437546 
L 916.49205 101.437546 
L 916.573356 100.759519 
L 918.285432 100.759519 
L 918.380676 99.855483 
L 919.658345 99.855483 
L 919.788435 98.725439 
L 920.745524 98.725439 
L 921.303053 98.49943 
L 922.355387 98.49943 
L 922.392555 98.047412 
L 923.298538 98.047412 
L 923.410044 97.821403 
L 923.860713 97.821403 
L 923.946665 96.917367 
L 923.98151 96.917367 
L 923.983833 96.691358 
L 925.544912 96.691358 
L 926.023457 96.465349 
L 926.097794 95.787322 
L 928.741406 95.787322 
L 928.850589 94.883286 
L 928.899373 94.883286 
L 928.964418 94.205259 
L 930.630033 94.205259 
L 930.632356 93.97925 
L 931.963454 93.97925 
L 931.9681 93.753241 
L 932.811361 93.753241 
L 932.811361 93.753241 
L 932.92519 92.849205 
L 932.946097 92.849205 
L 932.980943 92.623196 
L 934.83937 92.623196 
L 934.99269 92.397187 
L 935.208732 92.397187 
L 935.243577 92.171179 
L 935.833628 92.171179 
L 936.065931 91.94517 
L 936.793041 91.94517 
L 936.867378 91.267143 
L 937.91042 91.267143 
L 938.059094 90.363107 
L 938.080002 90.363107 
L 938.082325 90.137098 
L 939.675926 90.137098 
L 940.495957 89.911089 
L 940.59817 89.007053 
L 940.616754 89.007053 
L 940.660892 88.555035 
L 941.183575 88.555035 
L 941.381032 88.329026 
L 942.368322 88.329026 
L 942.465889 88.103017 
L 942.658701 88.103017 
L 942.756268 87.198981 
L 942.788791 87.198981 
L 942.825959 86.746963 
L 946.442923 86.746963 
L 946.542813 85.842927 
L 946.575336 85.842927 
L 946.645027 85.164901 
L 948.691619 85.164901 
L 948.756664 84.486874 
L 950.417633 84.486874 
L 950.419956 84.260865 
L 951.016976 84.260865 
L 951.237664 83.356829 
L 952.701175 83.356829 
L 952.752282 83.13082 
L 953.465453 83.13082 
L 953.54676 82.452793 
L 953.597866 82.452793 
L 953.602512 82.226784 
L 954.410928 82.226784 
L 955.302973 82.000775 
L 955.372664 81.548757 
L 956.952327 81.548757 
L 956.95465 81.322748 
L 957.544701 81.322748 
L 957.653883 80.418712 
L 957.672467 80.418712 
L 957.751451 80.192703 
L 959.491403 80.192703 
L 959.686538 79.288667 
L 961.519411 79.288667 
L 961.591425 78.61064 
L 962.594976 78.61064 
L 962.885355 78.384631 
L 962.908585 77.932614 
L 963.951627 77.932614 
L 964.158377 77.480596 
L 964.232714 76.802569 
L 966.221231 76.802569 
L 966.223554 76.57656 
L 967.094692 76.57656 
L 967.208521 75.446515 
L 967.236397 75.446515 
L 967.306088 74.994497 
L 969.784765 74.994497 
L 969.928793 73.864452 
L 971.617638 73.864452 
L 971.647838 73.412434 
L 972.999843 73.412434 
L 973.067211 72.734407 
L 974.558599 72.734407 
L 974.584152 72.508398 
L 975.288032 72.508398 
L 975.362369 71.830371 
L 977.450776 71.830371 
L 977.543697 71.152344 
L 979.179113 71.152344 
L 980.461427 70.926335 
L 980.563641 70.0223 
L 980.584548 70.0223 
L 980.675147 69.796291 
L 983.079486 69.796291 
L 983.20493 68.666246 
L 985.028512 68.666246 
L 985.551194 68.440237 
L 985.558163 68.214228 
L 986.64302 68.214228 
L 986.875323 67.988219 
L 987.298115 67.988219 
L 987.365483 67.310192 
L 990.840742 67.310192 
L 994.030267 67.084183 
L 994.079051 66.406156 
L 1020.424575 66.406156 
L 1020.501235 65.728129 
L 1020.580219 65.728129 
L 1020.605772 65.276111 
L 1020.738185 65.276111 
L 1020.742831 65.050102 
L 1023.795297 65.050102 
L 1027.270555 64.824093 
L 1027.386707 64.146066 
L 1027.512151 63.242031 
L 1037.635932 63.242031 
L 1037.714915 62.790013 
L 1041.740732 62.790013 
L 1041.819715 62.111986 
L 1043.627035 62.111986 
L 1043.631681 61.885977 
L 1055.927499 61.885977 
L 1056.034358 61.20795 
L 1056.080819 61.20795 
L 1056.162125 60.529923 
L 1066.376504 60.529923 
L 1066.492656 59.625887 
L 1066.532147 59.625887 
L 1066.622746 58.94786 
L 1076.839447 58.94786 
L 1076.855709 58.495842 
L 1077.868551 58.495842 
L 1077.945212 57.817815 
L 1083.406664 57.817815 
L 1083.485647 57.139788 
L 1083.53443 57.139788 
L 1083.608768 56.461761 
L 1088.048085 56.461761 
L 1088.171206 55.783735 
L 1088.182821 55.783735 
L 1088.217666 55.331717 
L 1089.502304 55.331717 
L 1089.50695 55.105708 
L 1090.568576 55.105708 
L 1090.67079 54.201672 
L 1095.24252 54.201672 
L 1095.360995 53.297636 
L 1095.409778 53.297636 
L 1095.488762 52.619609 
L 1095.542191 52.619609 
L 1095.546837 52.3936 
L 1098.696871 52.3936 
L 1098.794439 51.715573 
L 1100.599436 51.715573 
L 1100.703972 50.811537 
L 1100.757402 50.811537 
L 1100.868908 50.13351 
L 1100.910722 50.13351 
L 1100.915368 49.907501 
L 1103.366169 49.907501 
L 1103.470705 49.229474 
L 1103.51252 49.229474 
L 1103.514843 49.003466 
L 1104.757666 49.003466 
L 1104.808773 48.551448 
L 1106.216531 48.551448 
L 1106.293191 47.873421 
L 1106.337329 47.873421 
L 1106.458127 47.195394 
L 1106.472065 46.969385 
L 1108.06102 46.969385 
L 1108.065666 46.743376 
L 1109.320104 46.743376 
L 1109.43161 45.83934 
L 1109.468778 45.83934 
L 1109.501301 45.387322 
L 1111.557185 45.387322 
L 1111.559508 45.161313 
L 1112.226219 45.161313 
L 1112.228542 44.935304 
L 1113.348244 44.935304 
L 1113.452781 44.031268 
L 1113.480657 44.031268 
L 1113.554994 43.353241 
L 1115.592295 43.353241 
L 1115.622494 42.901223 
L 1117.613334 42.901223 
L 1117.634241 42.449205 
L 1118.695868 42.449205 
L 1118.700514 42.223196 
L 1120.463696 42.223196 
L 1120.468342 41.997187 
L 1120.870227 41.997187 
L 1120.870227 41.997187 
" clip-path="url(#p9e4611c89a)" style="fill: none; stroke: #0000ff; stroke-width: 1.5; stroke-linecap: square"/>
   </g>
   <g id="patch_165">
    <path d="M 55.5975 359.517187 
L 55.5975 26.877187 
" style="fill: none; stroke: #000000; stroke-width: 0.8; stroke-linejoin: miter; stroke-linecap: square"/>
   </g>
   <g id="patch_166">
    <path d="M 1171.5975 359.517187 
L 1171.5975 26.877187 
" style="fill: none; stroke: #000000; stroke-width: 0.8; stroke-linejoin: miter; stroke-linecap: square"/>
   </g>
   <g id="patch_167">
    <path d="M 55.5975 359.517187 
L 1171.5975 359.517187 
" style="fill: none; stroke: #000000; stroke-width: 0.8; stroke-linejoin: miter; stroke-linecap: square"/>
   </g>
   <g id="patch_168">
    <path d="M 55.5975 26.877187 
L 1171.5975 26.877187 
" style="fill: none; stroke: #000000; stroke-width: 0.8; stroke-linejoin: miter; stroke-linecap: square"/>
   </g>
   <g id="text_16">
    <!-- Pellet Count and Cumulative Sum Over Time of Group 6 Mouse 2 -->
    <g transform="translate(321.823125 20.877187) scale(0.18 -0.18)">
     <defs>
      <path id="DejaVuSans-20" transform="scale(0.015625)"/>
      <path id="DejaVuSans-61" d="M 2194 1759 
Q 1497 1759 1228 1600 
Q 959 1441 959 1056 
Q 959 750 1161 570 
Q 1363 391 1709 391 
Q 2188 391 2477 730 
Q 2766 1069 2766 1631 
L 2766 1759 
L 2194 1759 
z
M 3341 1997 
L 3341 0 
L 2766 0 
L 2766 531 
Q 2569 213 2275 61 
Q 1981 -91 1556 -91 
Q 1019 -91 701 211 
Q 384 513 384 1019 
Q 384 1609 779 1909 
Q 1175 2209 1959 2209 
L 2766 2209 
L 2766 2266 
Q 2766 2663 2505 2880 
Q 2244 3097 1772 3097 
Q 1472 3097 1187 3025 
Q 903 2953 641 2809 
L 641 3341 
Q 956 3463 1253 3523 
Q 1550 3584 1831 3584 
Q 2591 3584 2966 3190 
Q 3341 2797 3341 1997 
z
" transform="scale(0.015625)"/>
      <path id="DejaVuSans-64" d="M 2906 2969 
L 2906 4863 
L 3481 4863 
L 3481 0 
L 2906 0 
L 2906 525 
Q 2725 213 2448 61 
Q 2172 -91 1784 -91 
Q 1150 -91 751 415 
Q 353 922 353 1747 
Q 353 2572 751 3078 
Q 1150 3584 1784 3584 
Q 2172 3584 2448 3432 
Q 2725 3281 2906 2969 
z
M 947 1747 
Q 947 1113 1208 752 
Q 1469 391 1925 391 
Q 2381 391 2643 752 
Q 2906 1113 2906 1747 
Q 2906 2381 2643 2742 
Q 2381 3103 1925 3103 
Q 1469 3103 1208 2742 
Q 947 2381 947 1747 
z
" transform="scale(0.015625)"/>
      <path id="DejaVuSans-76" d="M 191 3500 
L 800 3500 
L 1894 563 
L 2988 3500 
L 3597 3500 
L 2284 0 
L 1503 0 
L 191 3500 
z
" transform="scale(0.015625)"/>
      <path id="DejaVuSans-53" d="M 3425 4513 
L 3425 3897 
Q 3066 4069 2747 4153 
Q 2428 4238 2131 4238 
Q 1616 4238 1336 4038 
Q 1056 3838 1056 3469 
Q 1056 3159 1242 3001 
Q 1428 2844 1947 2747 
L 2328 2669 
Q 3034 2534 3370 2195 
Q 3706 1856 3706 1288 
Q 3706 609 3251 259 
Q 2797 -91 1919 -91 
Q 1588 -91 1214 -16 
Q 841 59 441 206 
L 441 856 
Q 825 641 1194 531 
Q 1563 422 1919 422 
Q 2459 422 2753 634 
Q 3047 847 3047 1241 
Q 3047 1584 2836 1778 
Q 2625 1972 2144 2069 
L 1759 2144 
Q 1053 2284 737 2584 
Q 422 2884 422 3419 
Q 422 4038 858 4394 
Q 1294 4750 2059 4750 
Q 2388 4750 2728 4690 
Q 3069 4631 3425 4513 
z
" transform="scale(0.015625)"/>
      <path id="DejaVuSans-4f" d="M 2522 4238 
Q 1834 4238 1429 3725 
Q 1025 3213 1025 2328 
Q 1025 1447 1429 934 
Q 1834 422 2522 422 
Q 3209 422 3611 934 
Q 4013 1447 4013 2328 
Q 4013 3213 3611 3725 
Q 3209 4238 2522 4238 
z
M 2522 4750 
Q 3503 4750 4090 4092 
Q 4678 3434 4678 2328 
Q 4678 1225 4090 567 
Q 3503 -91 2522 -91 
Q 1538 -91 948 565 
Q 359 1222 359 2328 
Q 359 3434 948 4092 
Q 1538 4750 2522 4750 
z
" transform="scale(0.015625)"/>
      <path id="DejaVuSans-72" d="M 2631 2963 
Q 2534 3019 2420 3045 
Q 2306 3072 2169 3072 
Q 1681 3072 1420 2755 
Q 1159 2438 1159 1844 
L 1159 0 
L 581 0 
L 581 3500 
L 1159 3500 
L 1159 2956 
Q 1341 3275 1631 3429 
Q 1922 3584 2338 3584 
Q 2397 3584 2469 3576 
Q 2541 3569 2628 3553 
L 2631 2963 
z
" transform="scale(0.015625)"/>
      <path id="DejaVuSans-66" d="M 2375 4863 
L 2375 4384 
L 1825 4384 
Q 1516 4384 1395 4259 
Q 1275 4134 1275 3809 
L 1275 3500 
L 2222 3500 
L 2222 3053 
L 1275 3053 
L 1275 0 
L 697 0 
L 697 3053 
L 147 3053 
L 147 3500 
L 697 3500 
L 697 3744 
Q 697 4328 969 4595 
Q 1241 4863 1831 4863 
L 2375 4863 
z
" transform="scale(0.015625)"/>
      <path id="DejaVuSans-47" d="M 3809 666 
L 3809 1919 
L 2778 1919 
L 2778 2438 
L 4434 2438 
L 4434 434 
Q 4069 175 3628 42 
Q 3188 -91 2688 -91 
Q 1594 -91 976 548 
Q 359 1188 359 2328 
Q 359 3472 976 4111 
Q 1594 4750 2688 4750 
Q 3144 4750 3555 4637 
Q 3966 4525 4313 4306 
L 4313 3634 
Q 3963 3931 3569 4081 
Q 3175 4231 2741 4231 
Q 1884 4231 1454 3753 
Q 1025 3275 1025 2328 
Q 1025 1384 1454 906 
Q 1884 428 2741 428 
Q 3075 428 3337 486 
Q 3600 544 3809 666 
z
" transform="scale(0.015625)"/>
      <path id="DejaVuSans-70" d="M 1159 525 
L 1159 -1331 
L 581 -1331 
L 581 3500 
L 1159 3500 
L 1159 2969 
Q 1341 3281 1617 3432 
Q 1894 3584 2278 3584 
Q 2916 3584 3314 3078 
Q 3713 2572 3713 1747 
Q 3713 922 3314 415 
Q 2916 -91 2278 -91 
Q 1894 -91 1617 61 
Q 1341 213 1159 525 
z
M 3116 1747 
Q 3116 2381 2855 2742 
Q 2594 3103 2138 3103 
Q 1681 3103 1420 2742 
Q 1159 2381 1159 1747 
Q 1159 1113 1420 752 
Q 1681 391 2138 391 
Q 2594 391 2855 752 
Q 3116 1113 3116 1747 
z
" transform="scale(0.015625)"/>
      <path id="DejaVuSans-4d" d="M 628 4666 
L 1569 4666 
L 2759 1491 
L 3956 4666 
L 4897 4666 
L 4897 0 
L 4281 0 
L 4281 4097 
L 3078 897 
L 2444 897 
L 1241 4097 
L 1241 0 
L 628 0 
L 628 4666 
z
" transform="scale(0.015625)"/>
      <path id="DejaVuSans-73" d="M 2834 3397 
L 2834 2853 
Q 2591 2978 2328 3040 
Q 2066 3103 1784 3103 
Q 1356 3103 1142 2972 
Q 928 2841 928 2578 
Q 928 2378 1081 2264 
Q 1234 2150 1697 2047 
L 1894 2003 
Q 2506 1872 2764 1633 
Q 3022 1394 3022 966 
Q 3022 478 2636 193 
Q 2250 -91 1575 -91 
Q 1294 -91 989 -36 
Q 684 19 347 128 
L 347 722 
Q 666 556 975 473 
Q 1284 391 1588 391 
Q 1994 391 2212 530 
Q 2431 669 2431 922 
Q 2431 1156 2273 1281 
Q 2116 1406 1581 1522 
L 1381 1569 
Q 847 1681 609 1914 
Q 372 2147 372 2553 
Q 372 3047 722 3315 
Q 1072 3584 1716 3584 
Q 2034 3584 2315 3537 
Q 2597 3491 2834 3397 
z
" transform="scale(0.015625)"/>
     </defs>
     <use xlink:href="#DejaVuSans-50"/>
     <use xlink:href="#DejaVuSans-65" x="56.677734"/>
     <use xlink:href="#DejaVuSans-6c" x="118.201172"/>
     <use xlink:href="#DejaVuSans-6c" x="145.984375"/>
     <use xlink:href="#DejaVuSans-65" x="173.767578"/>
     <use xlink:href="#DejaVuSans-74" x="235.291016"/>
     <use xlink:href="#DejaVuSans-20" x="274.5"/>
     <use xlink:href="#DejaVuSans-43" x="306.287109"/>
     <use xlink:href="#DejaVuSans-6f" x="376.111328"/>
     <use xlink:href="#DejaVuSans-75" x="437.292969"/>
     <use xlink:href="#DejaVuSans-6e" x="500.671875"/>
     <use xlink:href="#DejaVuSans-74" x="564.050781"/>
     <use xlink:href="#DejaVuSans-20" x="603.259766"/>
     <use xlink:href="#DejaVuSans-61" x="635.046875"/>
     <use xlink:href="#DejaVuSans-6e" x="696.326172"/>
     <use xlink:href="#DejaVuSans-64" x="759.705078"/>
     <use xlink:href="#DejaVuSans-20" x="823.181641"/>
     <use xlink:href="#DejaVuSans-43" x="854.96875"/>
     <use xlink:href="#DejaVuSans-75" x="924.792969"/>
     <use xlink:href="#DejaVuSans-6d" x="988.171875"/>
     <use xlink:href="#DejaVuSans-75" x="1085.583984"/>
     <use xlink:href="#DejaVuSans-6c" x="1148.962891"/>
     <use xlink:href="#DejaVuSans-61" x="1176.746094"/>
     <use xlink:href="#DejaVuSans-74" x="1238.025391"/>
     <use xlink:href="#DejaVuSans-69" x="1277.234375"/>
     <use xlink:href="#DejaVuSans-76" x="1305.017578"/>
     <use xlink:href="#DejaVuSans-65" x="1364.197266"/>
     <use xlink:href="#DejaVuSans-20" x="1425.720703"/>
     <use xlink:href="#DejaVuSans-53" x="1457.507812"/>
     <use xlink:href="#DejaVuSans-75" x="1520.984375"/>
     <use xlink:href="#DejaVuSans-6d" x="1584.363281"/>
     <use xlink:href="#DejaVuSans-20" x="1681.775391"/>
     <use xlink:href="#DejaVuSans-4f" x="1713.5625"/>
     <use xlink:href="#DejaVuSans-76" x="1792.273438"/>
     <use xlink:href="#DejaVuSans-65" x="1851.453125"/>
     <use xlink:href="#DejaVuSans-72" x="1912.976562"/>
     <use xlink:href="#DejaVuSans-20" x="1954.089844"/>
     <use xlink:href="#DejaVuSans-54" x="1985.876953"/>
     <use xlink:href="#DejaVuSans-69" x="2043.835938"/>
     <use xlink:href="#DejaVuSans-6d" x="2071.619141"/>
     <use xlink:href="#DejaVuSans-65" x="2169.03125"/>
     <use xlink:href="#DejaVuSans-20" x="2230.554688"/>
     <use xlink:href="#DejaVuSans-6f" x="2262.341797"/>
     <use xlink:href="#DejaVuSans-66" x="2323.523438"/>
     <use xlink:href="#DejaVuSans-20" x="2358.728516"/>
     <use xlink:href="#DejaVuSans-47" x="2390.515625"/>
     <use xlink:href="#DejaVuSans-72" x="2468.005859"/>
     <use xlink:href="#DejaVuSans-6f" x="2506.869141"/>
     <use xlink:href="#DejaVuSans-75" x="2568.050781"/>
     <use xlink:href="#DejaVuSans-70" x="2631.429688"/>
     <use xlink:href="#DejaVuSans-20" x="2694.90625"/>
     <use xlink:href="#DejaVuSans-36" x="2726.693359"/>
     <use xlink:href="#DejaVuSans-20" x="2790.316406"/>
     <use xlink:href="#DejaVuSans-4d" x="2822.103516"/>
     <use xlink:href="#DejaVuSans-6f" x="2908.382812"/>
     <use xlink:href="#DejaVuSans-75" x="2969.564453"/>
     <use xlink:href="#DejaVuSans-73" x="3032.943359"/>
     <use xlink:href="#DejaVuSans-65" x="3085.042969"/>
     <use xlink:href="#DejaVuSans-20" x="3146.566406"/>
     <use xlink:href="#DejaVuSans-32" x="3178.353516"/>
    </g>
   </g>
   <g id="legend_1">
    <g id="patch_169">
     <path d="M 1092.913125 64.233437 
L 1164.5975 64.233437 
Q 1166.5975 64.233437 1166.5975 62.233437 
L 1166.5975 33.877187 
Q 1166.5975 31.877187 1164.5975 31.877187 
L 1092.913125 31.877187 
Q 1090.913125 31.877187 1090.913125 33.877187 
L 1090.913125 62.233437 
Q 1090.913125 64.233437 1092.913125 64.233437 
z
" style="fill: #ffffff; opacity: 0.8; stroke: #cccccc; stroke-linejoin: miter"/>
    </g>
    <g id="patch_170">
     <path d="M 1094.913125 43.475625 
L 1114.913125 43.475625 
L 1114.913125 36.475625 
L 1094.913125 36.475625 
z
" style="fill: #add8e6; opacity: 0.9; stroke: #add8e6; stroke-linejoin: miter"/>
    </g>
    <g id="text_17">
     <!-- Meal -->
     <g transform="translate(1122.913125 43.475625) scale(0.1 -0.1)">
      <use xlink:href="#DejaVuSans-4d"/>
      <use xlink:href="#DejaVuSans-65" x="86.279297"/>
      <use xlink:href="#DejaVuSans-61" x="147.802734"/>
      <use xlink:href="#DejaVuSans-6c" x="209.082031"/>
     </g>
    </g>
    <g id="patch_171">
     <path d="M 1094.913125 58.15375 
L 1114.913125 58.15375 
L 1114.913125 51.15375 
L 1094.913125 51.15375 
z
" style="fill: #808080; opacity: 0.5; stroke: #808080; stroke-linejoin: miter"/>
    </g>
    <g id="text_18">
     <!-- Inactive -->
     <g transform="translate(1122.913125 58.15375) scale(0.1 -0.1)">
      <defs>
       <path id="DejaVuSans-49" d="M 628 4666 
L 1259 4666 
L 1259 0 
L 628 0 
L 628 4666 
z
" transform="scale(0.015625)"/>
       <path id="DejaVuSans-63" d="M 3122 3366 
L 3122 2828 
Q 2878 2963 2633 3030 
Q 2388 3097 2138 3097 
Q 1578 3097 1268 2742 
Q 959 2388 959 1747 
Q 959 1106 1268 751 
Q 1578 397 2138 397 
Q 2388 397 2633 464 
Q 2878 531 3122 666 
L 3122 134 
Q 2881 22 2623 -34 
Q 2366 -91 2075 -91 
Q 1284 -91 818 406 
Q 353 903 353 1747 
Q 353 2603 823 3093 
Q 1294 3584 2113 3584 
Q 2378 3584 2631 3529 
Q 2884 3475 3122 3366 
z
" transform="scale(0.015625)"/>
      </defs>
      <use xlink:href="#DejaVuSans-49"/>
      <use xlink:href="#DejaVuSans-6e" x="29.492188"/>
      <use xlink:href="#DejaVuSans-61" x="92.871094"/>
      <use xlink:href="#DejaVuSans-63" x="154.150391"/>
      <use xlink:href="#DejaVuSans-74" x="209.130859"/>
      <use xlink:href="#DejaVuSans-69" x="248.339844"/>
      <use xlink:href="#DejaVuSans-76" x="276.123047"/>
      <use xlink:href="#DejaVuSans-65" x="335.302734"/>
     </g>
    </g>
   </g>
  </g>
 </g>
 <defs>
  <clipPath id="p9e4611c89a">
   <rect x="55.5975" y="26.877187" width="1116" height="332.64"/>
  </clipPath>
 </defs>
</svg>
