<?xml version="1.0" encoding="utf-8" standalone="no"?>
<!DOCTYPE svg PUBLIC "-//W3C//DTD SVG 1.1//EN"
  "http://www.w3.org/Graphics/SVG/1.1/DTD/svg11.dtd">
<svg xmlns:xlink="http://www.w3.org/1999/xlink" width="1178.7975pt" height="399.009062pt" viewBox="0 0 1178.7975 399.009062" xmlns="http://www.w3.org/2000/svg" version="1.1">
 <metadata>
  <rdf:RDF xmlns:dc="http://purl.org/dc/elements/1.1/" xmlns:cc="http://creativecommons.org/ns#" xmlns:rdf="http://www.w3.org/1999/02/22-rdf-syntax-ns#">
   <cc:Work>
    <dc:type rdf:resource="http://purl.org/dc/dcmitype/StillImage"/>
    <dc:date>2025-04-10T14:50:01.579858</dc:date>
    <dc:format>image/svg+xml</dc:format>
    <dc:creator>
     <cc:Agent>
      <dc:title>Matplotlib v3.8.3, https://matplotlib.org/</dc:title>
     </cc:Agent>
    </dc:creator>
   </cc:Work>
  </rdf:RDF>
 </metadata>
 <defs>
  <style type="text/css">*{stroke-linejoin: round; stroke-linecap: butt}</style>
 </defs>
 <g id="figure_1">
  <g id="patch_1">
   <path d="M 0 399.009062 
L 1178.7975 399.009062 
L 1178.7975 0 
L 0 0 
z
" style="fill: #ffffff"/>
  </g>
  <g id="axes_1">
   <g id="patch_2">
    <path d="M 55.5975 359.517187 
L 1171.5975 359.517187 
L 1171.5975 26.877187 
L 55.5975 26.877187 
z
" style="fill: #ffffff"/>
   </g>
   <g id="patch_3">
    <path d="M 126.240842 359.517187 
L 126.240842 26.877187 
L 123.563414 26.877187 
L 123.563414 359.517187 
z
" clip-path="url(#p02093009c0)" style="fill: #add8e6; stroke: #add8e6; stroke-linejoin: miter"/>
   </g>
   <g id="patch_4">
    <path d="M 128.400498 359.517187 
L 128.400498 26.877187 
L 122.719536 26.877187 
L 122.719536 359.517187 
z
" clip-path="url(#p02093009c0)" style="fill: #add8e6; stroke: #add8e6; stroke-linejoin: miter"/>
   </g>
   <g id="patch_5">
    <path d="M 136.668959 359.517187 
L 136.668959 26.877187 
L 136.502273 26.877187 
L 136.502273 359.517187 
z
" clip-path="url(#p02093009c0)" style="fill: #add8e6; stroke: #add8e6; stroke-linejoin: miter"/>
   </g>
   <g id="patch_6">
    <path d="M 143.91096 359.517187 
L 143.91096 26.877187 
L 140.099428 26.877187 
L 140.099428 359.517187 
z
" clip-path="url(#p02093009c0)" style="fill: #add8e6; stroke: #add8e6; stroke-linejoin: miter"/>
   </g>
   <g id="patch_7">
    <path d="M 146.551599 359.517187 
L 146.551599 26.877187 
L 146.613822 26.877187 
L 146.613822 359.517187 
z
" clip-path="url(#p02093009c0)" style="fill: #add8e6; stroke: #add8e6; stroke-linejoin: miter"/>
   </g>
   <g id="patch_8">
    <path d="M 147.159754 359.517187 
L 147.159754 26.877187 
L 146.781871 26.877187 
L 146.781871 359.517187 
z
" clip-path="url(#p02093009c0)" style="fill: #add8e6; stroke: #add8e6; stroke-linejoin: miter"/>
   </g>
   <g id="patch_9">
    <path d="M 153.461135 359.517187 
L 153.461135 26.877187 
L 153.462952 26.877187 
L 153.462952 359.517187 
z
" clip-path="url(#p02093009c0)" style="fill: #add8e6; stroke: #add8e6; stroke-linejoin: miter"/>
   </g>
   <g id="patch_10">
    <path d="M 155.897845 359.517187 
L 155.897845 26.877187 
L 155.705724 26.877187 
L 155.705724 359.517187 
z
" clip-path="url(#p02093009c0)" style="fill: #add8e6; stroke: #add8e6; stroke-linejoin: miter"/>
   </g>
   <g id="patch_11">
    <path d="M 162.940911 359.517187 
L 162.940911 26.877187 
L 163.040832 26.877187 
L 163.040832 359.517187 
z
" clip-path="url(#p02093009c0)" style="fill: #add8e6; stroke: #add8e6; stroke-linejoin: miter"/>
   </g>
   <g id="patch_12">
    <path d="M 163.118498 359.517187 
L 163.118498 26.877187 
L 163.174363 26.877187 
L 163.174363 359.517187 
z
" clip-path="url(#p02093009c0)" style="fill: #add8e6; stroke: #add8e6; stroke-linejoin: miter"/>
   </g>
   <g id="patch_13">
    <path d="M 163.287001 359.517187 
L 163.287001 26.877187 
L 163.298356 26.877187 
L 163.298356 359.517187 
z
" clip-path="url(#p02093009c0)" style="fill: #add8e6; stroke: #add8e6; stroke-linejoin: miter"/>
   </g>
   <g id="patch_14">
    <path d="M 166.861448 359.517187 
L 166.861448 26.877187 
L 165.938995 26.877187 
L 165.938995 359.517187 
z
" clip-path="url(#p02093009c0)" style="fill: #add8e6; stroke: #add8e6; stroke-linejoin: miter"/>
   </g>
   <g id="patch_15">
    <path d="M 169.458485 359.517187 
L 169.458485 26.877187 
L 167.858386 26.877187 
L 167.858386 359.517187 
z
" clip-path="url(#p02093009c0)" style="fill: #add8e6; stroke: #add8e6; stroke-linejoin: miter"/>
   </g>
   <g id="patch_16">
    <path d="M 180.433897 359.517187 
L 180.433897 26.877187 
L 180.391203 26.877187 
L 180.391203 359.517187 
z
" clip-path="url(#p02093009c0)" style="fill: #add8e6; stroke: #add8e6; stroke-linejoin: miter"/>
   </g>
   <g id="patch_17">
    <path d="M 181.677913 359.517187 
L 181.677913 26.877187 
L 180.571969 26.877187 
L 180.571969 359.517187 
z
" clip-path="url(#p02093009c0)" style="fill: #add8e6; stroke: #add8e6; stroke-linejoin: miter"/>
   </g>
   <g id="patch_18">
    <path d="M 195.201764 359.517187 
L 195.201764 26.877187 
L 194.271591 26.877187 
L 194.271591 359.517187 
z
" clip-path="url(#p02093009c0)" style="fill: #add8e6; stroke: #add8e6; stroke-linejoin: miter"/>
   </g>
   <g id="patch_19">
    <path d="M 208.827807 359.517187 
L 208.827807 26.877187 
L 208.896389 26.877187 
L 208.896389 359.517187 
z
" clip-path="url(#p02093009c0)" style="fill: #add8e6; stroke: #add8e6; stroke-linejoin: miter"/>
   </g>
   <g id="patch_20">
    <path d="M 209.039004 359.517187 
L 209.039004 26.877187 
L 209.037187 26.877187 
L 209.037187 359.517187 
z
" clip-path="url(#p02093009c0)" style="fill: #add8e6; stroke: #add8e6; stroke-linejoin: miter"/>
   </g>
   <g id="patch_21">
    <path d="M 222.561947 359.517187 
L 222.561947 26.877187 
L 222.678218 26.877187 
L 222.678218 359.517187 
z
" clip-path="url(#p02093009c0)" style="fill: #add8e6; stroke: #add8e6; stroke-linejoin: miter"/>
   </g>
   <g id="patch_22">
    <path d="M 222.700474 359.517187 
L 222.700474 26.877187 
L 222.687302 26.877187 
L 222.687302 359.517187 
z
" clip-path="url(#p02093009c0)" style="fill: #add8e6; stroke: #add8e6; stroke-linejoin: miter"/>
   </g>
   <g id="patch_23">
    <path d="M 227.12879 359.517187 
L 227.12879 26.877187 
L 227.222806 26.877187 
L 227.222806 359.517187 
z
" clip-path="url(#p02093009c0)" style="fill: #add8e6; stroke: #add8e6; stroke-linejoin: miter"/>
   </g>
   <g id="patch_24">
    <path d="M 241.553293 359.517187 
L 241.553293 26.877187 
L 241.626871 26.877187 
L 241.626871 359.517187 
z
" clip-path="url(#p02093009c0)" style="fill: #add8e6; stroke: #add8e6; stroke-linejoin: miter"/>
   </g>
   <g id="patch_25">
    <path d="M 241.762218 359.517187 
L 241.762218 26.877187 
L 241.834888 26.877187 
L 241.834888 359.517187 
z
" clip-path="url(#p02093009c0)" style="fill: #add8e6; stroke: #add8e6; stroke-linejoin: miter"/>
   </g>
   <g id="patch_26">
    <path d="M 241.922546 359.517187 
L 241.922546 26.877187 
L 242.02928 26.877187 
L 242.02928 359.517187 
z
" clip-path="url(#p02093009c0)" style="fill: #add8e6; stroke: #add8e6; stroke-linejoin: miter"/>
   </g>
   <g id="patch_27">
    <path d="M 251.023077 359.517187 
L 251.023077 26.877187 
L 251.094384 26.877187 
L 251.094384 359.517187 
z
" clip-path="url(#p02093009c0)" style="fill: #add8e6; stroke: #add8e6; stroke-linejoin: miter"/>
   </g>
   <g id="patch_28">
    <path d="M 251.311485 359.517187 
L 251.311485 26.877187 
L 251.282871 26.877187 
L 251.282871 359.517187 
z
" clip-path="url(#p02093009c0)" style="fill: #add8e6; stroke: #add8e6; stroke-linejoin: miter"/>
   </g>
   <g id="patch_29">
    <path d="M 258.499437 359.517187 
L 258.499437 26.877187 
L 258.590729 26.877187 
L 258.590729 359.517187 
z
" clip-path="url(#p02093009c0)" style="fill: #add8e6; stroke: #add8e6; stroke-linejoin: miter"/>
   </g>
   <g id="patch_30">
    <path d="M 258.656132 359.517187 
L 258.656132 26.877187 
L 258.701096 26.877187 
L 258.701096 359.517187 
z
" clip-path="url(#p02093009c0)" style="fill: #add8e6; stroke: #add8e6; stroke-linejoin: miter"/>
   </g>
   <g id="patch_31">
    <path d="M 260.022778 359.517187 
L 260.022778 26.877187 
L 260.078189 26.877187 
L 260.078189 359.517187 
z
" clip-path="url(#p02093009c0)" style="fill: #add8e6; stroke: #add8e6; stroke-linejoin: miter"/>
   </g>
   <g id="patch_32">
    <path d="M 263.220704 359.517187 
L 263.220704 26.877187 
L 263.23978 26.877187 
L 263.23978 359.517187 
z
" clip-path="url(#p02093009c0)" style="fill: #add8e6; stroke: #add8e6; stroke-linejoin: miter"/>
   </g>
   <g id="patch_33">
    <path d="M 263.594954 359.517187 
L 263.594954 26.877187 
L 263.63901 26.877187 
L 263.63901 359.517187 
z
" clip-path="url(#p02093009c0)" style="fill: #add8e6; stroke: #add8e6; stroke-linejoin: miter"/>
   </g>
   <g id="patch_34">
    <path d="M 267.090825 359.517187 
L 267.090825 26.877187 
L 267.224356 26.877187 
L 267.224356 359.517187 
z
" clip-path="url(#p02093009c0)" style="fill: #add8e6; stroke: #add8e6; stroke-linejoin: miter"/>
   </g>
   <g id="patch_35">
    <path d="M 275.769871 359.517187 
L 275.769871 26.877187 
L 275.788493 26.877187 
L 275.788493 359.517187 
z
" clip-path="url(#p02093009c0)" style="fill: #add8e6; stroke: #add8e6; stroke-linejoin: miter"/>
   </g>
   <g id="patch_36">
    <path d="M 275.922932 359.517187 
L 275.922932 26.877187 
L 276.013315 26.877187 
L 276.013315 359.517187 
z
" clip-path="url(#p02093009c0)" style="fill: #add8e6; stroke: #add8e6; stroke-linejoin: miter"/>
   </g>
   <g id="patch_37">
    <path d="M 282.910134 359.517187 
L 282.910134 26.877187 
L 282.917401 26.877187 
L 282.917401 359.517187 
z
" clip-path="url(#p02093009c0)" style="fill: #add8e6; stroke: #add8e6; stroke-linejoin: miter"/>
   </g>
   <g id="patch_38">
    <path d="M 293.750653 359.517187 
L 293.750653 26.877187 
L 292.858177 26.877187 
L 292.858177 359.517187 
z
" clip-path="url(#p02093009c0)" style="fill: #add8e6; stroke: #add8e6; stroke-linejoin: miter"/>
   </g>
   <g id="patch_39">
    <path d="M 300.621129 359.517187 
L 300.621129 26.877187 
L 298.3125 26.877187 
L 298.3125 359.517187 
z
" clip-path="url(#p02093009c0)" style="fill: #add8e6; stroke: #add8e6; stroke-linejoin: miter"/>
   </g>
   <g id="patch_40">
    <path d="M 301.259261 359.517187 
L 301.259261 26.877187 
L 301.287874 26.877187 
L 301.287874 359.517187 
z
" clip-path="url(#p02093009c0)" style="fill: #add8e6; stroke: #add8e6; stroke-linejoin: miter"/>
   </g>
   <g id="patch_41">
    <path d="M 305.113031 359.517187 
L 305.113031 26.877187 
L 305.113031 26.877187 
z
" clip-path="url(#p02093009c0)" style="fill: #add8e6; stroke: #add8e6; stroke-linejoin: miter"/>
   </g>
   <g id="patch_42">
    <path d="M 308.0498 359.517187 
L 308.0498 26.877187 
L 307.948516 26.877187 
L 307.948516 359.517187 
z
" clip-path="url(#p02093009c0)" style="fill: #add8e6; stroke: #add8e6; stroke-linejoin: miter"/>
   </g>
   <g id="patch_43">
    <path d="M 313.490498 359.517187 
L 313.490498 26.877187 
L 313.572251 26.877187 
L 313.572251 359.517187 
z
" clip-path="url(#p02093009c0)" style="fill: #add8e6; stroke: #add8e6; stroke-linejoin: miter"/>
   </g>
   <g id="patch_44">
    <path d="M 315.650153 359.517187 
L 315.650153 26.877187 
L 315.728728 26.877187 
L 315.728728 359.517187 
z
" clip-path="url(#p02093009c0)" style="fill: #add8e6; stroke: #add8e6; stroke-linejoin: miter"/>
   </g>
   <g id="patch_45">
    <path d="M 315.858625 359.517187 
L 315.858625 26.877187 
L 315.820928 26.877187 
L 315.820928 359.517187 
z
" clip-path="url(#p02093009c0)" style="fill: #add8e6; stroke: #add8e6; stroke-linejoin: miter"/>
   </g>
   <g id="patch_46">
    <path d="M 316.758822 359.517187 
L 316.758822 26.877187 
L 316.851476 26.877187 
L 316.851476 359.517187 
z
" clip-path="url(#p02093009c0)" style="fill: #add8e6; stroke: #add8e6; stroke-linejoin: miter"/>
   </g>
   <g id="patch_47">
    <path d="M 318.066425 359.517187 
L 318.066425 26.877187 
L 318.154991 26.877187 
L 318.154991 359.517187 
z
" clip-path="url(#p02093009c0)" style="fill: #add8e6; stroke: #add8e6; stroke-linejoin: miter"/>
   </g>
   <g id="patch_48">
    <path d="M 324.074855 359.517187 
L 324.074855 26.877187 
L 324.190218 26.877187 
L 324.190218 359.517187 
z
" clip-path="url(#p02093009c0)" style="fill: #add8e6; stroke: #add8e6; stroke-linejoin: miter"/>
   </g>
   <g id="patch_49">
    <path d="M 331.240098 359.517187 
L 331.240098 26.877187 
L 331.335931 26.877187 
L 331.335931 359.517187 
z
" clip-path="url(#p02093009c0)" style="fill: #add8e6; stroke: #add8e6; stroke-linejoin: miter"/>
   </g>
   <g id="patch_50">
    <path d="M 331.403605 359.517187 
L 331.403605 26.877187 
L 331.448115 26.877187 
L 331.448115 359.517187 
z
" clip-path="url(#p02093009c0)" style="fill: #add8e6; stroke: #add8e6; stroke-linejoin: miter"/>
   </g>
   <g id="patch_51">
    <path d="M 333.134963 359.517187 
L 333.134963 26.877187 
L 333.217171 26.877187 
L 333.217171 359.517187 
z
" clip-path="url(#p02093009c0)" style="fill: #add8e6; stroke: #add8e6; stroke-linejoin: miter"/>
   </g>
   <g id="patch_52">
    <path d="M 345.437508 359.517187 
L 345.437508 26.877187 
L 345.526982 26.877187 
L 345.526982 359.517187 
z
" clip-path="url(#p02093009c0)" style="fill: #add8e6; stroke: #add8e6; stroke-linejoin: miter"/>
   </g>
   <g id="patch_53">
    <path d="M 345.60374 359.517187 
L 345.60374 26.877187 
L 345.725916 26.877187 
L 345.725916 359.517187 
z
" clip-path="url(#p02093009c0)" style="fill: #add8e6; stroke: #add8e6; stroke-linejoin: miter"/>
   </g>
   <g id="patch_54">
    <path d="M 345.757255 359.517187 
L 345.757255 26.877187 
L 345.873072 26.877187 
L 345.873072 359.517187 
z
" clip-path="url(#p02093009c0)" style="fill: #add8e6; stroke: #add8e6; stroke-linejoin: miter"/>
   </g>
   <g id="patch_55">
    <path d="M 353.155495 359.517187 
L 353.155495 26.877187 
L 353.25042 26.877187 
L 353.25042 359.517187 
z
" clip-path="url(#p02093009c0)" style="fill: #add8e6; stroke: #add8e6; stroke-linejoin: miter"/>
   </g>
   <g id="patch_56">
    <path d="M 366.048482 359.517187 
L 366.048482 26.877187 
L 364.056421 26.877187 
L 364.056421 359.517187 
z
" clip-path="url(#p02093009c0)" style="fill: #add8e6; stroke: #add8e6; stroke-linejoin: miter"/>
   </g>
   <g id="patch_57">
    <path d="M 393.985027 359.517187 
L 393.985027 26.877187 
L 393.888739 26.877187 
L 393.888739 359.517187 
z
" clip-path="url(#p02093009c0)" style="fill: #add8e6; stroke: #add8e6; stroke-linejoin: miter"/>
   </g>
   <g id="patch_58">
    <path d="M 394.310224 359.517187 
L 394.310224 26.877187 
L 394.035896 26.877187 
L 394.035896 359.517187 
z
" clip-path="url(#p02093009c0)" style="fill: #add8e6; stroke: #add8e6; stroke-linejoin: miter"/>
   </g>
   <g id="patch_59">
    <path d="M 405.825209 359.517187 
L 405.825209 26.877187 
L 405.896971 26.877187 
L 405.896971 359.517187 
z
" clip-path="url(#p02093009c0)" style="fill: #add8e6; stroke: #add8e6; stroke-linejoin: miter"/>
   </g>
   <g id="patch_60">
    <path d="M 416.067565 359.517187 
L 416.067565 26.877187 
L 416.115254 26.877187 
L 416.115254 359.517187 
z
" clip-path="url(#p02093009c0)" style="fill: #add8e6; stroke: #add8e6; stroke-linejoin: miter"/>
   </g>
   <g id="patch_61">
    <path d="M 429.470602 359.517187 
L 429.470602 26.877187 
L 429.580515 26.877187 
L 429.580515 359.517187 
z
" clip-path="url(#p02093009c0)" style="fill: #add8e6; stroke: #add8e6; stroke-linejoin: miter"/>
   </g>
   <g id="patch_62">
    <path d="M 454.094312 359.517187 
L 454.094312 26.877187 
L 454.183787 26.877187 
L 454.183787 359.517187 
z
" clip-path="url(#p02093009c0)" style="fill: #add8e6; stroke: #add8e6; stroke-linejoin: miter"/>
   </g>
   <g id="patch_63">
    <path d="M 463.0545 359.517187 
L 463.0545 26.877187 
L 463.166684 26.877187 
L 463.166684 359.517187 
z
" clip-path="url(#p02093009c0)" style="fill: #add8e6; stroke: #add8e6; stroke-linejoin: miter"/>
   </g>
   <g id="patch_64">
    <path d="M 471.445137 359.517187 
L 471.445137 26.877187 
L 471.56368 26.877187 
L 471.56368 359.517187 
z
" clip-path="url(#p02093009c0)" style="fill: #add8e6; stroke: #add8e6; stroke-linejoin: miter"/>
   </g>
   <g id="patch_65">
    <path d="M 481.043456 359.517187 
L 481.043456 26.877187 
L 481.081154 26.877187 
L 481.081154 359.517187 
z
" clip-path="url(#p02093009c0)" style="fill: #add8e6; stroke: #add8e6; stroke-linejoin: miter"/>
   </g>
   <g id="patch_66">
    <path d="M 487.196772 359.517187 
L 487.196772 26.877187 
L 487.15317 26.877187 
L 487.15317 359.517187 
z
" clip-path="url(#p02093009c0)" style="fill: #add8e6; stroke: #add8e6; stroke-linejoin: miter"/>
   </g>
   <g id="patch_67">
    <path d="M 490.065867 359.517187 
L 490.065867 26.877187 
L 488.083344 26.877187 
L 488.083344 359.517187 
z
" clip-path="url(#p02093009c0)" style="fill: #add8e6; stroke: #add8e6; stroke-linejoin: miter"/>
   </g>
   <g id="patch_68">
    <path d="M 506.262605 359.517187 
L 506.262605 26.877187 
L 506.381601 26.877187 
L 506.381601 359.517187 
z
" clip-path="url(#p02093009c0)" style="fill: #add8e6; stroke: #add8e6; stroke-linejoin: miter"/>
   </g>
   <g id="patch_69">
    <path d="M 506.448821 359.517187 
L 506.448821 26.877187 
L 506.445642 26.877187 
L 506.445642 359.517187 
z
" clip-path="url(#p02093009c0)" style="fill: #add8e6; stroke: #add8e6; stroke-linejoin: miter"/>
   </g>
   <g id="patch_70">
    <path d="M 510.388887 359.517187 
L 510.388887 26.877187 
L 510.41523 26.877187 
L 510.41523 359.517187 
z
" clip-path="url(#p02093009c0)" style="fill: #add8e6; stroke: #add8e6; stroke-linejoin: miter"/>
   </g>
   <g id="patch_71">
    <path d="M 512.108891 359.517187 
L 512.108891 26.877187 
L 512.154763 26.877187 
L 512.154763 359.517187 
z
" clip-path="url(#p02093009c0)" style="fill: #add8e6; stroke: #add8e6; stroke-linejoin: miter"/>
   </g>
   <g id="patch_72">
    <path d="M 516.273325 359.517187 
L 516.273325 26.877187 
L 516.241986 26.877187 
L 516.241986 359.517187 
z
" clip-path="url(#p02093009c0)" style="fill: #add8e6; stroke: #add8e6; stroke-linejoin: miter"/>
   </g>
   <g id="patch_73">
    <path d="M 523.509421 359.517187 
L 523.509421 26.877187 
L 523.638864 26.877187 
L 523.638864 359.517187 
z
" clip-path="url(#p02093009c0)" style="fill: #add8e6; stroke: #add8e6; stroke-linejoin: miter"/>
   </g>
   <g id="patch_74">
    <path d="M 523.743327 359.517187 
L 523.743327 26.877187 
L 523.722888 26.877187 
L 523.722888 359.517187 
z
" clip-path="url(#p02093009c0)" style="fill: #add8e6; stroke: #add8e6; stroke-linejoin: miter"/>
   </g>
   <g id="patch_75">
    <path d="M 530.546129 359.517187 
L 530.546129 26.877187 
L 529.136789 26.877187 
L 529.136789 359.517187 
z
" clip-path="url(#p02093009c0)" style="fill: #add8e6; stroke: #add8e6; stroke-linejoin: miter"/>
   </g>
   <g id="patch_76">
    <path d="M 530.988961 359.517187 
L 530.988961 26.877187 
L 529.961137 26.877187 
L 529.961137 359.517187 
z
" clip-path="url(#p02093009c0)" style="fill: #add8e6; stroke: #add8e6; stroke-linejoin: miter"/>
   </g>
   <g id="patch_77">
    <path d="M 539.121166 359.517187 
L 539.121166 26.877187 
L 539.25288 26.877187 
L 539.25288 359.517187 
z
" clip-path="url(#p02093009c0)" style="fill: #add8e6; stroke: #add8e6; stroke-linejoin: miter"/>
   </g>
   <g id="patch_78">
    <path d="M 539.275136 359.517187 
L 539.275136 26.877187 
L 539.402762 26.877187 
L 539.402762 359.517187 
z
" clip-path="url(#p02093009c0)" style="fill: #add8e6; stroke: #add8e6; stroke-linejoin: miter"/>
   </g>
   <g id="patch_79">
    <path d="M 539.456356 359.517187 
L 539.456356 26.877187 
L 539.538109 26.877187 
L 539.538109 359.517187 
z
" clip-path="url(#p02093009c0)" style="fill: #add8e6; stroke: #add8e6; stroke-linejoin: miter"/>
   </g>
   <g id="patch_80">
    <path d="M 547.891958 359.517187 
L 547.891958 26.877187 
L 547.964628 26.877187 
L 547.964628 359.517187 
z
" clip-path="url(#p02093009c0)" style="fill: #add8e6; stroke: #add8e6; stroke-linejoin: miter"/>
   </g>
   <g id="patch_81">
    <path d="M 550.534414 359.517187 
L 550.534414 26.877187 
L 550.602088 26.877187 
L 550.602088 359.517187 
z
" clip-path="url(#p02093009c0)" style="fill: #add8e6; stroke: #add8e6; stroke-linejoin: miter"/>
   </g>
   <g id="patch_82">
    <path d="M 557.666956 359.517187 
L 557.666956 26.877187 
L 557.795036 26.877187 
L 557.795036 359.517187 
z
" clip-path="url(#p02093009c0)" style="fill: #add8e6; stroke: #add8e6; stroke-linejoin: miter"/>
   </g>
   <g id="patch_83">
    <path d="M 585.850124 359.517187 
L 585.850124 26.877187 
L 585.968212 26.877187 
L 585.968212 359.517187 
z
" clip-path="url(#p02093009c0)" style="fill: #add8e6; stroke: #add8e6; stroke-linejoin: miter"/>
   </g>
   <g id="patch_84">
    <path d="M 601.008137 359.517187 
L 601.008137 26.877187 
L 601.14076 26.877187 
L 601.14076 359.517187 
z
" clip-path="url(#p02093009c0)" style="fill: #add8e6; stroke: #add8e6; stroke-linejoin: miter"/>
   </g>
   <g id="patch_85">
    <path d="M 601.2048 359.517187 
L 601.2048 26.877187 
L 601.296091 26.877187 
L 601.296091 359.517187 
z
" clip-path="url(#p02093009c0)" style="fill: #add8e6; stroke: #add8e6; stroke-linejoin: miter"/>
   </g>
   <g id="patch_86">
    <path d="M 615.772371 359.517187 
L 615.772371 26.877187 
L 615.846403 26.877187 
L 615.846403 359.517187 
z
" clip-path="url(#p02093009c0)" style="fill: #add8e6; stroke: #add8e6; stroke-linejoin: miter"/>
   </g>
   <g id="patch_87">
    <path d="M 616.404144 359.517187 
L 616.404144 26.877187 
L 616.041249 26.877187 
L 616.041249 359.517187 
z
" clip-path="url(#p02093009c0)" style="fill: #add8e6; stroke: #add8e6; stroke-linejoin: miter"/>
   </g>
   <g id="patch_88">
    <path d="M 637.007397 359.517187 
L 637.007397 26.877187 
L 637.095055 26.877187 
L 637.095055 359.517187 
z
" clip-path="url(#p02093009c0)" style="fill: #add8e6; stroke: #add8e6; stroke-linejoin: miter"/>
   </g>
   <g id="patch_89">
    <path d="M 637.174992 359.517187 
L 637.174992 26.877187 
L 637.299439 26.877187 
L 637.299439 359.517187 
z
" clip-path="url(#p02093009c0)" style="fill: #add8e6; stroke: #add8e6; stroke-linejoin: miter"/>
   </g>
   <g id="patch_90">
    <path d="M 657.120129 359.517187 
L 657.120129 26.877187 
L 657.216417 26.877187 
L 657.216417 359.517187 
z
" clip-path="url(#p02093009c0)" style="fill: #add8e6; stroke: #add8e6; stroke-linejoin: miter"/>
   </g>
   <g id="patch_91">
    <path d="M 657.260927 359.517187 
L 657.260927 26.877187 
L 657.386736 26.877187 
L 657.386736 359.517187 
z
" clip-path="url(#p02093009c0)" style="fill: #add8e6; stroke: #add8e6; stroke-linejoin: miter"/>
   </g>
   <g id="patch_92">
    <path d="M 657.458044 359.517187 
L 657.458044 26.877187 
L 657.519813 26.877187 
L 657.519813 359.517187 
z
" clip-path="url(#p02093009c0)" style="fill: #add8e6; stroke: #add8e6; stroke-linejoin: miter"/>
   </g>
   <g id="patch_93">
    <path d="M 667.356126 359.517187 
L 667.356126 26.877187 
L 667.457409 26.877187 
L 667.457409 359.517187 
z
" clip-path="url(#p02093009c0)" style="fill: #add8e6; stroke: #add8e6; stroke-linejoin: miter"/>
   </g>
   <g id="patch_94">
    <path d="M 667.513274 359.517187 
L 667.513274 26.877187 
L 667.520541 26.877187 
L 667.520541 359.517187 
z
" clip-path="url(#p02093009c0)" style="fill: #add8e6; stroke: #add8e6; stroke-linejoin: miter"/>
   </g>
   <g id="patch_95">
    <path d="M 667.68314 359.517187 
L 667.68314 26.877187 
L 667.745817 26.877187 
L 667.745817 359.517187 
z
" clip-path="url(#p02093009c0)" style="fill: #add8e6; stroke: #add8e6; stroke-linejoin: miter"/>
   </g>
   <g id="patch_96">
    <path d="M 686.829363 359.517187 
L 686.829363 26.877187 
L 685.905548 26.877187 
L 685.905548 359.517187 
z
" clip-path="url(#p02093009c0)" style="fill: #add8e6; stroke: #add8e6; stroke-linejoin: miter"/>
   </g>
   <g id="patch_97">
    <path d="M 687.506555 359.517187 
L 687.506555 26.877187 
L 687.583312 26.877187 
L 687.583312 359.517187 
z
" clip-path="url(#p02093009c0)" style="fill: #add8e6; stroke: #add8e6; stroke-linejoin: miter"/>
   </g>
   <g id="patch_98">
    <path d="M 692.176498 359.517187 
L 692.176498 26.877187 
L 692.16696 26.877187 
L 692.16696 359.517187 
z
" clip-path="url(#p02093009c0)" style="fill: #add8e6; stroke: #add8e6; stroke-linejoin: miter"/>
   </g>
   <g id="patch_99">
    <path d="M 692.986767 359.517187 
L 692.986767 26.877187 
L 693.021739 26.877187 
L 693.021739 359.517187 
z
" clip-path="url(#p02093009c0)" style="fill: #add8e6; stroke: #add8e6; stroke-linejoin: miter"/>
   </g>
   <g id="patch_100">
    <path d="M 698.354795 359.517187 
L 698.354795 26.877187 
L 697.064906 26.877187 
L 697.064906 359.517187 
z
" clip-path="url(#p02093009c0)" style="fill: #add8e6; stroke: #add8e6; stroke-linejoin: miter"/>
   </g>
   <g id="patch_101">
    <path d="M 700.56759 359.517187 
L 700.56759 26.877187 
L 700.631631 26.877187 
L 700.631631 359.517187 
z
" clip-path="url(#p02093009c0)" style="fill: #add8e6; stroke: #add8e6; stroke-linejoin: miter"/>
   </g>
   <g id="patch_102">
    <path d="M 702.035975 359.517187 
L 702.035975 26.877187 
L 700.942294 26.877187 
L 700.942294 359.517187 
z
" clip-path="url(#p02093009c0)" style="fill: #add8e6; stroke: #add8e6; stroke-linejoin: miter"/>
   </g>
   <g id="patch_103">
    <path d="M 706.570116 359.517187 
L 706.570116 26.877187 
L 706.636882 26.877187 
L 706.636882 359.517187 
z
" clip-path="url(#p02093009c0)" style="fill: #add8e6; stroke: #add8e6; stroke-linejoin: miter"/>
   </g>
   <g id="patch_104">
    <path d="M 706.706826 359.517187 
L 706.706826 26.877187 
L 706.721815 26.877187 
L 706.721815 359.517187 
z
" clip-path="url(#p02093009c0)" style="fill: #add8e6; stroke: #add8e6; stroke-linejoin: miter"/>
   </g>
   <g id="patch_105">
    <path d="M 710.759531 359.517187 
L 710.759531 26.877187 
L 710.87989 26.877187 
L 710.87989 359.517187 
z
" clip-path="url(#p02093009c0)" style="fill: #add8e6; stroke: #add8e6; stroke-linejoin: miter"/>
   </g>
   <g id="patch_106">
    <path d="M 720.985535 359.517187 
L 720.985535 26.877187 
L 721.065472 26.877187 
L 721.065472 359.517187 
z
" clip-path="url(#p02093009c0)" style="fill: #add8e6; stroke: #add8e6; stroke-linejoin: miter"/>
   </g>
   <g id="patch_107">
    <path d="M 721.221258 359.517187 
L 721.221258 26.877187 
L 721.346613 26.877187 
L 721.346613 359.517187 
z
" clip-path="url(#p02093009c0)" style="fill: #add8e6; stroke: #add8e6; stroke-linejoin: miter"/>
   </g>
   <g id="patch_108">
    <path d="M 730.018392 359.517187 
L 730.018392 26.877187 
L 730.152377 26.877187 
L 730.152377 359.517187 
z
" clip-path="url(#p02093009c0)" style="fill: #add8e6; stroke: #add8e6; stroke-linejoin: miter"/>
   </g>
   <g id="patch_109">
    <path d="M 730.205063 359.517187 
L 730.205063 26.877187 
L 730.279095 26.877187 
L 730.279095 359.517187 
z
" clip-path="url(#p02093009c0)" style="fill: #add8e6; stroke: #add8e6; stroke-linejoin: miter"/>
   </g>
   <g id="patch_110">
    <path d="M 741.10508 359.517187 
L 741.10508 26.877187 
L 741.099175 26.877187 
L 741.099175 359.517187 
z
" clip-path="url(#p02093009c0)" style="fill: #add8e6; stroke: #add8e6; stroke-linejoin: miter"/>
   </g>
   <g id="patch_111">
    <path d="M 744.64637 359.517187 
L 744.64637 26.877187 
L 744.744929 26.877187 
L 744.744929 359.517187 
z
" clip-path="url(#p02093009c0)" style="fill: #add8e6; stroke: #add8e6; stroke-linejoin: miter"/>
   </g>
   <g id="patch_112">
    <path d="M 752.716807 359.517187 
L 752.716807 26.877187 
L 752.842162 26.877187 
L 752.842162 359.517187 
z
" clip-path="url(#p02093009c0)" style="fill: #add8e6; stroke: #add8e6; stroke-linejoin: miter"/>
   </g>
   <g id="patch_113">
    <path d="M 788.121991 359.517187 
L 788.121991 26.877187 
L 788.25098 26.877187 
L 788.25098 359.517187 
z
" clip-path="url(#p02093009c0)" style="fill: #add8e6; stroke: #add8e6; stroke-linejoin: miter"/>
   </g>
   <g id="patch_114">
    <path d="M 788.325012 359.517187 
L 788.325012 26.877187 
L 788.333188 26.877187 
L 788.333188 359.517187 
z
" clip-path="url(#p02093009c0)" style="fill: #add8e6; stroke: #add8e6; stroke-linejoin: miter"/>
   </g>
   <g id="patch_115">
    <path d="M 788.525309 359.517187 
L 788.525309 26.877187 
L 788.566185 26.877187 
L 788.566185 359.517187 
z
" clip-path="url(#p02093009c0)" style="fill: #add8e6; stroke: #add8e6; stroke-linejoin: miter"/>
   </g>
   <g id="patch_116">
    <path d="M 801.66946 359.517187 
L 801.66946 26.877187 
L 801.750759 26.877187 
L 801.750759 359.517187 
z
" clip-path="url(#p02093009c0)" style="fill: #add8e6; stroke: #add8e6; stroke-linejoin: miter"/>
   </g>
   <g id="patch_117">
    <path d="M 801.837963 359.517187 
L 801.837963 26.877187 
L 801.944243 26.877187 
L 801.944243 359.517187 
z
" clip-path="url(#p02093009c0)" style="fill: #add8e6; stroke: #add8e6; stroke-linejoin: miter"/>
   </g>
   <g id="patch_118">
    <path d="M 802.013733 359.517187 
L 802.013733 26.877187 
L 802.012371 26.877187 
L 802.012371 359.517187 
z
" clip-path="url(#p02093009c0)" style="fill: #add8e6; stroke: #add8e6; stroke-linejoin: miter"/>
   </g>
   <g id="patch_119">
    <path d="M 811.248703 359.517187 
L 811.248703 26.877187 
L 811.369971 26.877187 
L 811.369971 359.517187 
z
" clip-path="url(#p02093009c0)" style="fill: #add8e6; stroke: #add8e6; stroke-linejoin: miter"/>
   </g>
   <g id="patch_120">
    <path d="M 811.444912 359.517187 
L 811.444912 26.877187 
L 811.540745 26.877187 
L 811.540745 359.517187 
z
" clip-path="url(#p02093009c0)" style="fill: #add8e6; stroke: #add8e6; stroke-linejoin: miter"/>
   </g>
   <g id="patch_121">
    <path d="M 817.685886 359.517187 
L 817.685886 26.877187 
L 817.702236 26.877187 
L 817.702236 359.517187 
z
" clip-path="url(#p02093009c0)" style="fill: #add8e6; stroke: #add8e6; stroke-linejoin: miter"/>
   </g>
   <g id="patch_122">
    <path d="M 817.827138 359.517187 
L 817.827138 26.877187 
L 817.892995 26.877187 
L 817.892995 359.517187 
z
" clip-path="url(#p02093009c0)" style="fill: #add8e6; stroke: #add8e6; stroke-linejoin: miter"/>
   </g>
   <g id="patch_123">
    <path d="M 818.007904 359.517187 
L 818.007904 26.877187 
L 818.001999 26.877187 
L 818.001999 359.517187 
z
" clip-path="url(#p02093009c0)" style="fill: #add8e6; stroke: #add8e6; stroke-linejoin: miter"/>
   </g>
   <g id="patch_124">
    <path d="M 841.409399 359.517187 
L 841.409399 26.877187 
L 841.457088 26.877187 
L 841.457088 359.517187 
z
" clip-path="url(#p02093009c0)" style="fill: #add8e6; stroke: #add8e6; stroke-linejoin: miter"/>
   </g>
   <g id="patch_125">
    <path d="M 841.809537 359.517187 
L 841.809537 26.877187 
L 841.689631 26.877187 
L 841.689631 359.517187 
z
" clip-path="url(#p02093009c0)" style="fill: #add8e6; stroke: #add8e6; stroke-linejoin: miter"/>
   </g>
   <g id="patch_126">
    <path d="M 851.079025 359.517187 
L 851.079025 26.877187 
L 851.169862 26.877187 
L 851.169862 359.517187 
z
" clip-path="url(#p02093009c0)" style="fill: #add8e6; stroke: #add8e6; stroke-linejoin: miter"/>
   </g>
   <g id="patch_127">
    <path d="M 870.580876 359.517187 
L 870.580876 26.877187 
L 870.698964 26.877187 
L 870.698964 359.517187 
z
" clip-path="url(#p02093009c0)" style="fill: #add8e6; stroke: #add8e6; stroke-linejoin: miter"/>
   </g>
   <g id="patch_128">
    <path d="M 870.717586 359.517187 
L 870.717586 26.877187 
L 870.848392 26.877187 
L 870.848392 359.517187 
z
" clip-path="url(#p02093009c0)" style="fill: #add8e6; stroke: #add8e6; stroke-linejoin: miter"/>
   </g>
   <g id="patch_129">
    <path d="M 877.951411 359.517187 
L 877.951411 26.877187 
L 878.082671 26.877187 
L 878.082671 359.517187 
z
" clip-path="url(#p02093009c0)" style="fill: #add8e6; stroke: #add8e6; stroke-linejoin: miter"/>
   </g>
   <g id="patch_130">
    <path d="M 878.198943 359.517187 
L 878.198943 26.877187 
L 878.236186 26.877187 
L 878.236186 359.517187 
z
" clip-path="url(#p02093009c0)" style="fill: #add8e6; stroke: #add8e6; stroke-linejoin: miter"/>
   </g>
   <g id="patch_131">
    <path d="M 885.33103 359.517187 
L 885.33103 26.877187 
L 884.857768 26.877187 
L 884.857768 359.517187 
z
" clip-path="url(#p02093009c0)" style="fill: #add8e6; stroke: #add8e6; stroke-linejoin: miter"/>
   </g>
   <g id="patch_132">
    <path d="M 890.383399 359.517187 
L 890.383399 26.877187 
L 890.448801 26.877187 
L 890.448801 359.517187 
z
" clip-path="url(#p02093009c0)" style="fill: #add8e6; stroke: #add8e6; stroke-linejoin: miter"/>
   </g>
   <g id="patch_133">
    <path d="M 890.921609 359.517187 
L 890.921609 26.877187 
L 890.643647 26.877187 
L 890.643647 359.517187 
z
" clip-path="url(#p02093009c0)" style="fill: #add8e6; stroke: #add8e6; stroke-linejoin: miter"/>
   </g>
   <g id="patch_134">
    <path d="M 894.556008 359.517187 
L 894.556008 26.877187 
L 894.385688 26.877187 
L 894.385688 359.517187 
z
" clip-path="url(#p02093009c0)" style="fill: #add8e6; stroke: #add8e6; stroke-linejoin: miter"/>
   </g>
   <g id="patch_135">
    <path d="M 896.865545 359.517187 
L 896.865545 26.877187 
L 896.942757 26.877187 
L 896.942757 359.517187 
z
" clip-path="url(#p02093009c0)" style="fill: #add8e6; stroke: #add8e6; stroke-linejoin: miter"/>
   </g>
   <g id="patch_136">
    <path d="M 897.801623 359.517187 
L 897.801623 26.877187 
L 897.877018 26.877187 
L 897.877018 359.517187 
z
" clip-path="url(#p02093009c0)" style="fill: #add8e6; stroke: #add8e6; stroke-linejoin: miter"/>
   </g>
   <g id="patch_137">
    <path d="M 900.474056 359.517187 
L 900.474056 26.877187 
L 900.469059 26.877187 
L 900.469059 359.517187 
z
" clip-path="url(#p02093009c0)" style="fill: #add8e6; stroke: #add8e6; stroke-linejoin: miter"/>
   </g>
   <g id="patch_138">
    <path d="M 901.556381 359.517187 
L 901.556381 26.877187 
L 901.618605 26.877187 
L 901.618605 359.517187 
z
" clip-path="url(#p02093009c0)" style="fill: #add8e6; stroke: #add8e6; stroke-linejoin: miter"/>
   </g>
   <g id="patch_139">
    <path d="M 908.689377 359.517187 
L 908.689377 26.877187 
L 908.739338 26.877187 
L 908.739338 359.517187 
z
" clip-path="url(#p02093009c0)" style="fill: #add8e6; stroke: #add8e6; stroke-linejoin: miter"/>
   </g>
   <g id="patch_140">
    <path d="M 908.855609 359.517187 
L 908.855609 26.877187 
L 908.926917 26.877187 
L 908.926917 359.517187 
z
" clip-path="url(#p02093009c0)" style="fill: #add8e6; stroke: #add8e6; stroke-linejoin: miter"/>
   </g>
   <g id="patch_141">
    <path d="M 908.995499 359.517187 
L 908.995499 26.877187 
L 909.061356 26.877187 
L 909.061356 359.517187 
z
" clip-path="url(#p02093009c0)" style="fill: #add8e6; stroke: #add8e6; stroke-linejoin: miter"/>
   </g>
   <g id="patch_142">
    <path d="M 913.034578 359.517187 
L 913.034578 26.877187 
L 912.993247 26.877187 
L 912.993247 359.517187 
z
" clip-path="url(#p02093009c0)" style="fill: #add8e6; stroke: #add8e6; stroke-linejoin: miter"/>
   </g>
   <g id="patch_143">
    <path d="M 921.702723 359.517187 
L 921.702723 26.877187 
L 920.150314 26.877187 
L 920.150314 359.517187 
z
" clip-path="url(#p02093009c0)" style="fill: #add8e6; stroke: #add8e6; stroke-linejoin: miter"/>
   </g>
   <g id="patch_144">
    <path d="M 928.860245 359.517187 
L 928.860245 26.877187 
L 928.875233 26.877187 
L 928.875233 359.517187 
z
" clip-path="url(#p02093009c0)" style="fill: #add8e6; stroke: #add8e6; stroke-linejoin: miter"/>
   </g>
   <g id="patch_145">
    <path d="M 929.012397 359.517187 
L 929.012397 26.877187 
L 929.041011 26.877187 
L 929.041011 359.517187 
z
" clip-path="url(#p02093009c0)" style="fill: #add8e6; stroke: #add8e6; stroke-linejoin: miter"/>
   </g>
   <g id="patch_146">
    <path d="M 942.157003 359.517187 
L 942.157003 26.877187 
L 940.183564 26.877187 
L 940.183564 359.517187 
z
" clip-path="url(#p02093009c0)" style="fill: #add8e6; stroke: #add8e6; stroke-linejoin: miter"/>
   </g>
   <g id="patch_147">
    <path d="M 944.282595 359.517187 
L 944.282595 26.877187 
L 944.320292 26.877187 
L 944.320292 359.517187 
z
" clip-path="url(#p02093009c0)" style="fill: #add8e6; stroke: #add8e6; stroke-linejoin: miter"/>
   </g>
   <g id="patch_148">
    <path d="M 944.526493 359.517187 
L 944.526493 26.877187 
L 944.526493 26.877187 
z
" clip-path="url(#p02093009c0)" style="fill: #add8e6; stroke: #add8e6; stroke-linejoin: miter"/>
   </g>
   <g id="patch_149">
    <path d="M 946.477677 359.517187 
L 946.477677 26.877187 
L 944.728152 26.877187 
L 944.728152 359.517187 
z
" clip-path="url(#p02093009c0)" style="fill: #add8e6; stroke: #add8e6; stroke-linejoin: miter"/>
   </g>
   <g id="patch_150">
    <path d="M 952.612826 359.517187 
L 952.612826 26.877187 
L 952.744994 26.877187 
L 952.744994 359.517187 
z
" clip-path="url(#p02093009c0)" style="fill: #add8e6; stroke: #add8e6; stroke-linejoin: miter"/>
   </g>
   <g id="patch_151">
    <path d="M 952.790413 359.517187 
L 952.790413 26.877187 
L 952.848094 26.877187 
L 952.848094 359.517187 
z
" clip-path="url(#p02093009c0)" style="fill: #add8e6; stroke: #add8e6; stroke-linejoin: miter"/>
   </g>
   <g id="patch_152">
    <path d="M 968.164165 359.517187 
L 968.164165 26.877187 
L 968.119654 26.877187 
L 968.119654 359.517187 
z
" clip-path="url(#p02093009c0)" style="fill: #add8e6; stroke: #add8e6; stroke-linejoin: miter"/>
   </g>
   <g id="patch_153">
    <path d="M 968.413513 359.517187 
L 968.413513 26.877187 
L 968.439401 26.877187 
L 968.439401 359.517187 
z
" clip-path="url(#p02093009c0)" style="fill: #add8e6; stroke: #add8e6; stroke-linejoin: miter"/>
   </g>
   <g id="patch_154">
    <path d="M 968.550677 359.517187 
L 968.550677 26.877187 
L 968.595187 26.877187 
L 968.595187 359.517187 
z
" clip-path="url(#p02093009c0)" style="fill: #add8e6; stroke: #add8e6; stroke-linejoin: miter"/>
   </g>
   <g id="patch_155">
    <path d="M 1019.234234 359.517187 
L 1019.234234 26.877187 
L 1019.205166 26.877187 
L 1019.205166 359.517187 
z
" clip-path="url(#p02093009c0)" style="fill: #add8e6; stroke: #add8e6; stroke-linejoin: miter"/>
   </g>
   <g id="patch_156">
    <path d="M 1035.359211 359.517187 
L 1035.359211 26.877187 
L 1035.458223 26.877187 
L 1035.458223 359.517187 
z
" clip-path="url(#p02093009c0)" style="fill: #add8e6; stroke: #add8e6; stroke-linejoin: miter"/>
   </g>
   <g id="patch_157">
    <path d="M 1035.782966 359.517187 
L 1035.782966 26.877187 
L 1035.911501 26.877187 
L 1035.911501 359.517187 
z
" clip-path="url(#p02093009c0)" style="fill: #add8e6; stroke: #add8e6; stroke-linejoin: miter"/>
   </g>
   <g id="patch_158">
    <path d="M 1035.936481 359.517187 
L 1035.936481 26.877187 
L 1036.019143 26.877187 
L 1036.019143 359.517187 
z
" clip-path="url(#p02093009c0)" style="fill: #add8e6; stroke: #add8e6; stroke-linejoin: miter"/>
   </g>
   <g id="patch_159">
    <path d="M 1067.215383 359.517187 
L 1067.215383 26.877187 
L 1067.237638 26.877187 
L 1067.237638 359.517187 
z
" clip-path="url(#p02093009c0)" style="fill: #add8e6; stroke: #add8e6; stroke-linejoin: miter"/>
   </g>
   <g id="patch_160">
    <path d="M 1067.353456 359.517187 
L 1067.353456 26.877187 
L 1067.433847 26.877187 
L 1067.433847 359.517187 
z
" clip-path="url(#p02093009c0)" style="fill: #add8e6; stroke: #add8e6; stroke-linejoin: miter"/>
   </g>
   <g id="patch_161">
    <path d="M 1076.478967 359.517187 
L 1076.478967 26.877187 
L 1076.255507 26.877187 
L 1076.255507 359.517187 
z
" clip-path="url(#p02093009c0)" style="fill: #add8e6; stroke: #add8e6; stroke-linejoin: miter"/>
   </g>
   <g id="patch_162">
    <path d="M 1080.089748 359.517187 
L 1080.089748 26.877187 
L 1080.120178 26.877187 
L 1080.120178 359.517187 
z
" clip-path="url(#p02093009c0)" style="fill: #add8e6; stroke: #add8e6; stroke-linejoin: miter"/>
   </g>
   <g id="patch_163">
    <path d="M 1081.262003 359.517187 
L 1081.262003 26.877187 
L 1081.371008 26.877187 
L 1081.371008 359.517187 
z
" clip-path="url(#p02093009c0)" style="fill: #add8e6; stroke: #add8e6; stroke-linejoin: miter"/>
   </g>
   <g id="patch_164">
    <path d="M 1082.757184 359.517187 
L 1082.757184 26.877187 
L 1082.844842 26.877187 
L 1082.844842 359.517187 
z
" clip-path="url(#p02093009c0)" style="fill: #add8e6; stroke: #add8e6; stroke-linejoin: miter"/>
   </g>
   <g id="patch_165">
    <path d="M 1086.75902 359.517187 
L 1086.75902 26.877187 
L 1086.865753 26.877187 
L 1086.865753 359.517187 
z
" clip-path="url(#p02093009c0)" style="fill: #add8e6; stroke: #add8e6; stroke-linejoin: miter"/>
   </g>
   <g id="patch_166">
    <path d="M 1088.26601 359.517187 
L 1088.26601 26.877187 
L 1088.358664 26.877187 
L 1088.358664 359.517187 
z
" clip-path="url(#p02093009c0)" style="fill: #add8e6; stroke: #add8e6; stroke-linejoin: miter"/>
   </g>
   <g id="patch_167">
    <path d="M 1090.248533 359.517187 
L 1090.248533 26.877187 
L 1090.363896 26.877187 
L 1090.363896 359.517187 
z
" clip-path="url(#p02093009c0)" style="fill: #add8e6; stroke: #add8e6; stroke-linejoin: miter"/>
   </g>
   <g id="patch_168">
    <path d="M 1098.118219 359.517187 
L 1098.118219 26.877187 
L 1098.20406 26.877187 
L 1098.20406 359.517187 
z
" clip-path="url(#p02093009c0)" style="fill: #add8e6; stroke: #add8e6; stroke-linejoin: miter"/>
   </g>
   <g id="patch_169">
    <path d="M 1100.617152 359.517187 
L 1100.617152 26.877187 
L 1100.599439 26.877187 
L 1100.599439 359.517187 
z
" clip-path="url(#p02093009c0)" style="fill: #add8e6; stroke: #add8e6; stroke-linejoin: miter"/>
   </g>
   <g id="patch_170">
    <path d="M 1100.993218 359.517187 
L 1100.993218 26.877187 
L 1100.723886 26.877187 
L 1100.723886 359.517187 
z
" clip-path="url(#p02093009c0)" style="fill: #add8e6; stroke: #add8e6; stroke-linejoin: miter"/>
   </g>
   <g id="patch_171">
    <path d="M 1102.909884 359.517187 
L 1102.909884 26.877187 
L 1102.681883 26.877187 
L 1102.681883 359.517187 
z
" clip-path="url(#p02093009c0)" style="fill: #add8e6; stroke: #add8e6; stroke-linejoin: miter"/>
   </g>
   <g id="patch_172">
    <path d="M 1104.856073 359.517187 
L 1104.856073 26.877187 
L 1104.925109 26.877187 
L 1104.925109 359.517187 
z
" clip-path="url(#p02093009c0)" style="fill: #add8e6; stroke: #add8e6; stroke-linejoin: miter"/>
   </g>
   <g id="patch_173">
    <path d="M 169.002482 359.517187 
L 169.002482 26.877187 
L 267.106722 26.877187 
L 267.106722 359.517187 
z
" clip-path="url(#p02093009c0)" style="fill: #808080; opacity: 0.4; stroke: #808080; stroke-linejoin: miter"/>
   </g>
   <g id="patch_174">
    <path d="M 269.83184 26.877187 
L 269.83184 26.877187 
L 269.83184 359.517187 
" clip-path="url(#p02093009c0)" style="fill: #808080; opacity: 0.4; stroke: #808080; stroke-linejoin: miter"/>
   </g>
   <g id="patch_175">
    <path d="M 272.556958 26.877187 
L 272.556958 26.877187 
L 272.556958 359.517187 
" clip-path="url(#p02093009c0)" style="fill: #808080; opacity: 0.4; stroke: #808080; stroke-linejoin: miter"/>
   </g>
   <g id="patch_176">
    <path d="M 365.210962 359.517187 
L 365.210962 26.877187 
L 463.315202 26.877187 
L 463.315202 359.517187 
z
" clip-path="url(#p02093009c0)" style="fill: #808080; opacity: 0.4; stroke: #808080; stroke-linejoin: miter"/>
   </g>
   <g id="patch_177">
    <path d="M 466.04032 26.877187 
L 466.04032 26.877187 
L 466.04032 359.517187 
" clip-path="url(#p02093009c0)" style="fill: #808080; opacity: 0.4; stroke: #808080; stroke-linejoin: miter"/>
   </g>
   <g id="patch_178">
    <path d="M 468.765438 26.877187 
L 468.765438 26.877187 
L 468.765438 359.517187 
" clip-path="url(#p02093009c0)" style="fill: #808080; opacity: 0.4; stroke: #808080; stroke-linejoin: miter"/>
   </g>
   <g id="patch_179">
    <path d="M 561.419443 359.517187 
L 561.419443 26.877187 
L 659.523683 26.877187 
L 659.523683 359.517187 
z
" clip-path="url(#p02093009c0)" style="fill: #808080; opacity: 0.4; stroke: #808080; stroke-linejoin: miter"/>
   </g>
   <g id="patch_180">
    <path d="M 662.248801 26.877187 
L 662.248801 26.877187 
L 662.248801 359.517187 
" clip-path="url(#p02093009c0)" style="fill: #808080; opacity: 0.4; stroke: #808080; stroke-linejoin: miter"/>
   </g>
   <g id="patch_181">
    <path d="M 664.973918 26.877187 
L 664.973918 26.877187 
L 664.973918 359.517187 
" clip-path="url(#p02093009c0)" style="fill: #808080; opacity: 0.4; stroke: #808080; stroke-linejoin: miter"/>
   </g>
   <g id="patch_182">
    <path d="M 757.627923 359.517187 
L 757.627923 26.877187 
L 855.732163 26.877187 
L 855.732163 359.517187 
z
" clip-path="url(#p02093009c0)" style="fill: #808080; opacity: 0.4; stroke: #808080; stroke-linejoin: miter"/>
   </g>
   <g id="patch_183">
    <path d="M 858.457281 26.877187 
L 858.457281 26.877187 
L 858.457281 359.517187 
" clip-path="url(#p02093009c0)" style="fill: #808080; opacity: 0.4; stroke: #808080; stroke-linejoin: miter"/>
   </g>
   <g id="patch_184">
    <path d="M 861.182399 26.877187 
L 861.182399 26.877187 
L 861.182399 359.517187 
" clip-path="url(#p02093009c0)" style="fill: #808080; opacity: 0.4; stroke: #808080; stroke-linejoin: miter"/>
   </g>
   <g id="patch_185">
    <path d="M 953.836404 359.517187 
L 953.836404 26.877187 
L 1051.940644 26.877187 
L 1051.940644 359.517187 
z
" clip-path="url(#p02093009c0)" style="fill: #808080; opacity: 0.4; stroke: #808080; stroke-linejoin: miter"/>
   </g>
   <g id="patch_186">
    <path d="M 1054.665762 26.877187 
L 1054.665762 26.877187 
L 1054.665762 359.517187 
" clip-path="url(#p02093009c0)" style="fill: #808080; opacity: 0.4; stroke: #808080; stroke-linejoin: miter"/>
   </g>
   <g id="patch_187">
    <path d="M 1057.390879 26.877187 
L 1057.390879 26.877187 
L 1057.390879 359.517187 
" clip-path="url(#p02093009c0)" style="fill: #808080; opacity: 0.4; stroke: #808080; stroke-linejoin: miter"/>
   </g>
   <g id="matplotlib.axis_1">
    <g id="xtick_1">
     <g id="line2d_1">
      <defs>
       <path id="m1772843a1b" d="M 0 0 
L 0 3.5 
" style="stroke: #000000; stroke-width: 0.8"/>
      </defs>
      <g>
       <use xlink:href="#m1772843a1b" x="208.93227" y="359.517187" style="stroke: #000000; stroke-width: 0.8"/>
      </g>
     </g>
     <g id="text_1">
      <!-- 2024-11-21 -->
      <g transform="translate(179.874458 374.115625) scale(0.1 -0.1)">
       <defs>
        <path id="DejaVuSans-32" d="M 1228 531 
L 3431 531 
L 3431 0 
L 469 0 
L 469 531 
Q 828 903 1448 1529 
Q 2069 2156 2228 2338 
Q 2531 2678 2651 2914 
Q 2772 3150 2772 3378 
Q 2772 3750 2511 3984 
Q 2250 4219 1831 4219 
Q 1534 4219 1204 4116 
Q 875 4013 500 3803 
L 500 4441 
Q 881 4594 1212 4672 
Q 1544 4750 1819 4750 
Q 2544 4750 2975 4387 
Q 3406 4025 3406 3419 
Q 3406 3131 3298 2873 
Q 3191 2616 2906 2266 
Q 2828 2175 2409 1742 
Q 1991 1309 1228 531 
z
" transform="scale(0.015625)"/>
        <path id="DejaVuSans-30" d="M 2034 4250 
Q 1547 4250 1301 3770 
Q 1056 3291 1056 2328 
Q 1056 1369 1301 889 
Q 1547 409 2034 409 
Q 2525 409 2770 889 
Q 3016 1369 3016 2328 
Q 3016 3291 2770 3770 
Q 2525 4250 2034 4250 
z
M 2034 4750 
Q 2819 4750 3233 4129 
Q 3647 3509 3647 2328 
Q 3647 1150 3233 529 
Q 2819 -91 2034 -91 
Q 1250 -91 836 529 
Q 422 1150 422 2328 
Q 422 3509 836 4129 
Q 1250 4750 2034 4750 
z
" transform="scale(0.015625)"/>
        <path id="DejaVuSans-34" d="M 2419 4116 
L 825 1625 
L 2419 1625 
L 2419 4116 
z
M 2253 4666 
L 3047 4666 
L 3047 1625 
L 3713 1625 
L 3713 1100 
L 3047 1100 
L 3047 0 
L 2419 0 
L 2419 1100 
L 313 1100 
L 313 1709 
L 2253 4666 
z
" transform="scale(0.015625)"/>
        <path id="DejaVuSans-2d" d="M 313 2009 
L 1997 2009 
L 1997 1497 
L 313 1497 
L 313 2009 
z
" transform="scale(0.015625)"/>
        <path id="DejaVuSans-31" d="M 794 531 
L 1825 531 
L 1825 4091 
L 703 3866 
L 703 4441 
L 1819 4666 
L 2450 4666 
L 2450 531 
L 3481 531 
L 3481 0 
L 794 0 
L 794 531 
z
" transform="scale(0.015625)"/>
       </defs>
       <use xlink:href="#DejaVuSans-32"/>
       <use xlink:href="#DejaVuSans-30" x="63.623047"/>
       <use xlink:href="#DejaVuSans-32" x="127.246094"/>
       <use xlink:href="#DejaVuSans-34" x="190.869141"/>
       <use xlink:href="#DejaVuSans-2d" x="254.492188"/>
       <use xlink:href="#DejaVuSans-31" x="290.576172"/>
       <use xlink:href="#DejaVuSans-31" x="354.199219"/>
       <use xlink:href="#DejaVuSans-2d" x="417.822266"/>
       <use xlink:href="#DejaVuSans-32" x="453.90625"/>
       <use xlink:href="#DejaVuSans-31" x="517.529297"/>
      </g>
     </g>
    </g>
    <g id="xtick_2">
     <g id="line2d_2">
      <g>
       <use xlink:href="#m1772843a1b" x="405.140751" y="359.517187" style="stroke: #000000; stroke-width: 0.8"/>
      </g>
     </g>
     <g id="text_2">
      <!-- 2024-11-22 -->
      <g transform="translate(376.082938 374.115625) scale(0.1 -0.1)">
       <use xlink:href="#DejaVuSans-32"/>
       <use xlink:href="#DejaVuSans-30" x="63.623047"/>
       <use xlink:href="#DejaVuSans-32" x="127.246094"/>
       <use xlink:href="#DejaVuSans-34" x="190.869141"/>
       <use xlink:href="#DejaVuSans-2d" x="254.492188"/>
       <use xlink:href="#DejaVuSans-31" x="290.576172"/>
       <use xlink:href="#DejaVuSans-31" x="354.199219"/>
       <use xlink:href="#DejaVuSans-2d" x="417.822266"/>
       <use xlink:href="#DejaVuSans-32" x="453.90625"/>
       <use xlink:href="#DejaVuSans-32" x="517.529297"/>
      </g>
     </g>
    </g>
    <g id="xtick_3">
     <g id="line2d_3">
      <g>
       <use xlink:href="#m1772843a1b" x="601.349231" y="359.517187" style="stroke: #000000; stroke-width: 0.8"/>
      </g>
     </g>
     <g id="text_3">
      <!-- 2024-11-23 -->
      <g transform="translate(572.291419 374.115625) scale(0.1 -0.1)">
       <defs>
        <path id="DejaVuSans-33" d="M 2597 2516 
Q 3050 2419 3304 2112 
Q 3559 1806 3559 1356 
Q 3559 666 3084 287 
Q 2609 -91 1734 -91 
Q 1441 -91 1130 -33 
Q 819 25 488 141 
L 488 750 
Q 750 597 1062 519 
Q 1375 441 1716 441 
Q 2309 441 2620 675 
Q 2931 909 2931 1356 
Q 2931 1769 2642 2001 
Q 2353 2234 1838 2234 
L 1294 2234 
L 1294 2753 
L 1863 2753 
Q 2328 2753 2575 2939 
Q 2822 3125 2822 3475 
Q 2822 3834 2567 4026 
Q 2313 4219 1838 4219 
Q 1578 4219 1281 4162 
Q 984 4106 628 3988 
L 628 4550 
Q 988 4650 1302 4700 
Q 1616 4750 1894 4750 
Q 2613 4750 3031 4423 
Q 3450 4097 3450 3541 
Q 3450 3153 3228 2886 
Q 3006 2619 2597 2516 
z
" transform="scale(0.015625)"/>
       </defs>
       <use xlink:href="#DejaVuSans-32"/>
       <use xlink:href="#DejaVuSans-30" x="63.623047"/>
       <use xlink:href="#DejaVuSans-32" x="127.246094"/>
       <use xlink:href="#DejaVuSans-34" x="190.869141"/>
       <use xlink:href="#DejaVuSans-2d" x="254.492188"/>
       <use xlink:href="#DejaVuSans-31" x="290.576172"/>
       <use xlink:href="#DejaVuSans-31" x="354.199219"/>
       <use xlink:href="#DejaVuSans-2d" x="417.822266"/>
       <use xlink:href="#DejaVuSans-32" x="453.90625"/>
       <use xlink:href="#DejaVuSans-33" x="517.529297"/>
      </g>
     </g>
    </g>
    <g id="xtick_4">
     <g id="line2d_4">
      <g>
       <use xlink:href="#m1772843a1b" x="797.557711" y="359.517187" style="stroke: #000000; stroke-width: 0.8"/>
      </g>
     </g>
     <g id="text_4">
      <!-- 2024-11-24 -->
      <g transform="translate(768.499899 374.115625) scale(0.1 -0.1)">
       <use xlink:href="#DejaVuSans-32"/>
       <use xlink:href="#DejaVuSans-30" x="63.623047"/>
       <use xlink:href="#DejaVuSans-32" x="127.246094"/>
       <use xlink:href="#DejaVuSans-34" x="190.869141"/>
       <use xlink:href="#DejaVuSans-2d" x="254.492188"/>
       <use xlink:href="#DejaVuSans-31" x="290.576172"/>
       <use xlink:href="#DejaVuSans-31" x="354.199219"/>
       <use xlink:href="#DejaVuSans-2d" x="417.822266"/>
       <use xlink:href="#DejaVuSans-32" x="453.90625"/>
       <use xlink:href="#DejaVuSans-34" x="517.529297"/>
      </g>
     </g>
    </g>
    <g id="xtick_5">
     <g id="line2d_5">
      <g>
       <use xlink:href="#m1772843a1b" x="993.766192" y="359.517187" style="stroke: #000000; stroke-width: 0.8"/>
      </g>
     </g>
     <g id="text_5">
      <!-- 2024-11-25 -->
      <g transform="translate(964.708379 374.115625) scale(0.1 -0.1)">
       <defs>
        <path id="DejaVuSans-35" d="M 691 4666 
L 3169 4666 
L 3169 4134 
L 1269 4134 
L 1269 2991 
Q 1406 3038 1543 3061 
Q 1681 3084 1819 3084 
Q 2600 3084 3056 2656 
Q 3513 2228 3513 1497 
Q 3513 744 3044 326 
Q 2575 -91 1722 -91 
Q 1428 -91 1123 -41 
Q 819 9 494 109 
L 494 744 
Q 775 591 1075 516 
Q 1375 441 1709 441 
Q 2250 441 2565 725 
Q 2881 1009 2881 1497 
Q 2881 1984 2565 2268 
Q 2250 2553 1709 2553 
Q 1456 2553 1204 2497 
Q 953 2441 691 2322 
L 691 4666 
z
" transform="scale(0.015625)"/>
       </defs>
       <use xlink:href="#DejaVuSans-32"/>
       <use xlink:href="#DejaVuSans-30" x="63.623047"/>
       <use xlink:href="#DejaVuSans-32" x="127.246094"/>
       <use xlink:href="#DejaVuSans-34" x="190.869141"/>
       <use xlink:href="#DejaVuSans-2d" x="254.492188"/>
       <use xlink:href="#DejaVuSans-31" x="290.576172"/>
       <use xlink:href="#DejaVuSans-31" x="354.199219"/>
       <use xlink:href="#DejaVuSans-2d" x="417.822266"/>
       <use xlink:href="#DejaVuSans-32" x="453.90625"/>
       <use xlink:href="#DejaVuSans-35" x="517.529297"/>
      </g>
     </g>
    </g>
    <g id="text_6">
     <!-- Time -->
     <g transform="translate(598.917187 389.313437) scale(0.12 -0.12)">
      <defs>
       <path id="DejaVuSans-54" d="M -19 4666 
L 3928 4666 
L 3928 4134 
L 2272 4134 
L 2272 0 
L 1638 0 
L 1638 4134 
L -19 4134 
L -19 4666 
z
" transform="scale(0.015625)"/>
       <path id="DejaVuSans-69" d="M 603 3500 
L 1178 3500 
L 1178 0 
L 603 0 
L 603 3500 
z
M 603 4863 
L 1178 4863 
L 1178 4134 
L 603 4134 
L 603 4863 
z
" transform="scale(0.015625)"/>
       <path id="DejaVuSans-6d" d="M 3328 2828 
Q 3544 3216 3844 3400 
Q 4144 3584 4550 3584 
Q 5097 3584 5394 3201 
Q 5691 2819 5691 2113 
L 5691 0 
L 5113 0 
L 5113 2094 
Q 5113 2597 4934 2840 
Q 4756 3084 4391 3084 
Q 3944 3084 3684 2787 
Q 3425 2491 3425 1978 
L 3425 0 
L 2847 0 
L 2847 2094 
Q 2847 2600 2669 2842 
Q 2491 3084 2119 3084 
Q 1678 3084 1418 2786 
Q 1159 2488 1159 1978 
L 1159 0 
L 581 0 
L 581 3500 
L 1159 3500 
L 1159 2956 
Q 1356 3278 1631 3431 
Q 1906 3584 2284 3584 
Q 2666 3584 2933 3390 
Q 3200 3197 3328 2828 
z
" transform="scale(0.015625)"/>
       <path id="DejaVuSans-65" d="M 3597 1894 
L 3597 1613 
L 953 1613 
Q 991 1019 1311 708 
Q 1631 397 2203 397 
Q 2534 397 2845 478 
Q 3156 559 3463 722 
L 3463 178 
Q 3153 47 2828 -22 
Q 2503 -91 2169 -91 
Q 1331 -91 842 396 
Q 353 884 353 1716 
Q 353 2575 817 3079 
Q 1281 3584 2069 3584 
Q 2775 3584 3186 3129 
Q 3597 2675 3597 1894 
z
M 3022 2063 
Q 3016 2534 2758 2815 
Q 2500 3097 2075 3097 
Q 1594 3097 1305 2825 
Q 1016 2553 972 2059 
L 3022 2063 
z
" transform="scale(0.015625)"/>
      </defs>
      <use xlink:href="#DejaVuSans-54"/>
      <use xlink:href="#DejaVuSans-69" x="57.958984"/>
      <use xlink:href="#DejaVuSans-6d" x="85.742188"/>
      <use xlink:href="#DejaVuSans-65" x="183.154297"/>
     </g>
    </g>
   </g>
   <g id="matplotlib.axis_2">
    <g id="ytick_1">
     <g id="line2d_6">
      <defs>
       <path id="m5060eb4a55" d="M 0 0 
L -3.5 0 
" style="stroke: #000000; stroke-width: 0.8"/>
      </defs>
      <g>
       <use xlink:href="#m5060eb4a55" x="55.5975" y="344.397187" style="stroke: #000000; stroke-width: 0.8"/>
      </g>
     </g>
     <g id="text_7">
      <!-- 0 -->
      <g transform="translate(42.235 348.196406) scale(0.1 -0.1)">
       <use xlink:href="#DejaVuSans-30"/>
      </g>
     </g>
    </g>
    <g id="ytick_2">
     <g id="line2d_7">
      <g>
       <use xlink:href="#m5060eb4a55" x="55.5975" y="288.189009" style="stroke: #000000; stroke-width: 0.8"/>
      </g>
     </g>
     <g id="text_8">
      <!-- 200 -->
      <g transform="translate(29.51 291.988228) scale(0.1 -0.1)">
       <use xlink:href="#DejaVuSans-32"/>
       <use xlink:href="#DejaVuSans-30" x="63.623047"/>
       <use xlink:href="#DejaVuSans-30" x="127.246094"/>
      </g>
     </g>
    </g>
    <g id="ytick_3">
     <g id="line2d_8">
      <g>
       <use xlink:href="#m5060eb4a55" x="55.5975" y="231.980831" style="stroke: #000000; stroke-width: 0.8"/>
      </g>
     </g>
     <g id="text_9">
      <!-- 400 -->
      <g transform="translate(29.51 235.780049) scale(0.1 -0.1)">
       <use xlink:href="#DejaVuSans-34"/>
       <use xlink:href="#DejaVuSans-30" x="63.623047"/>
       <use xlink:href="#DejaVuSans-30" x="127.246094"/>
      </g>
     </g>
    </g>
    <g id="ytick_4">
     <g id="line2d_9">
      <g>
       <use xlink:href="#m5060eb4a55" x="55.5975" y="175.772652" style="stroke: #000000; stroke-width: 0.8"/>
      </g>
     </g>
     <g id="text_10">
      <!-- 600 -->
      <g transform="translate(29.51 179.571871) scale(0.1 -0.1)">
       <defs>
        <path id="DejaVuSans-36" d="M 2113 2584 
Q 1688 2584 1439 2293 
Q 1191 2003 1191 1497 
Q 1191 994 1439 701 
Q 1688 409 2113 409 
Q 2538 409 2786 701 
Q 3034 994 3034 1497 
Q 3034 2003 2786 2293 
Q 2538 2584 2113 2584 
z
M 3366 4563 
L 3366 3988 
Q 3128 4100 2886 4159 
Q 2644 4219 2406 4219 
Q 1781 4219 1451 3797 
Q 1122 3375 1075 2522 
Q 1259 2794 1537 2939 
Q 1816 3084 2150 3084 
Q 2853 3084 3261 2657 
Q 3669 2231 3669 1497 
Q 3669 778 3244 343 
Q 2819 -91 2113 -91 
Q 1303 -91 875 529 
Q 447 1150 447 2328 
Q 447 3434 972 4092 
Q 1497 4750 2381 4750 
Q 2619 4750 2861 4703 
Q 3103 4656 3366 4563 
z
" transform="scale(0.015625)"/>
       </defs>
       <use xlink:href="#DejaVuSans-36"/>
       <use xlink:href="#DejaVuSans-30" x="63.623047"/>
       <use xlink:href="#DejaVuSans-30" x="127.246094"/>
      </g>
     </g>
    </g>
    <g id="ytick_5">
     <g id="line2d_10">
      <g>
       <use xlink:href="#m5060eb4a55" x="55.5975" y="119.564474" style="stroke: #000000; stroke-width: 0.8"/>
      </g>
     </g>
     <g id="text_11">
      <!-- 800 -->
      <g transform="translate(29.51 123.363692) scale(0.1 -0.1)">
       <defs>
        <path id="DejaVuSans-38" d="M 2034 2216 
Q 1584 2216 1326 1975 
Q 1069 1734 1069 1313 
Q 1069 891 1326 650 
Q 1584 409 2034 409 
Q 2484 409 2743 651 
Q 3003 894 3003 1313 
Q 3003 1734 2745 1975 
Q 2488 2216 2034 2216 
z
M 1403 2484 
Q 997 2584 770 2862 
Q 544 3141 544 3541 
Q 544 4100 942 4425 
Q 1341 4750 2034 4750 
Q 2731 4750 3128 4425 
Q 3525 4100 3525 3541 
Q 3525 3141 3298 2862 
Q 3072 2584 2669 2484 
Q 3125 2378 3379 2068 
Q 3634 1759 3634 1313 
Q 3634 634 3220 271 
Q 2806 -91 2034 -91 
Q 1263 -91 848 271 
Q 434 634 434 1313 
Q 434 1759 690 2068 
Q 947 2378 1403 2484 
z
M 1172 3481 
Q 1172 3119 1398 2916 
Q 1625 2713 2034 2713 
Q 2441 2713 2670 2916 
Q 2900 3119 2900 3481 
Q 2900 3844 2670 4047 
Q 2441 4250 2034 4250 
Q 1625 4250 1398 4047 
Q 1172 3844 1172 3481 
z
" transform="scale(0.015625)"/>
       </defs>
       <use xlink:href="#DejaVuSans-38"/>
       <use xlink:href="#DejaVuSans-30" x="63.623047"/>
       <use xlink:href="#DejaVuSans-30" x="127.246094"/>
      </g>
     </g>
    </g>
    <g id="ytick_6">
     <g id="line2d_11">
      <g>
       <use xlink:href="#m5060eb4a55" x="55.5975" y="63.356295" style="stroke: #000000; stroke-width: 0.8"/>
      </g>
     </g>
     <g id="text_12">
      <!-- 1000 -->
      <g transform="translate(23.1475 67.155514) scale(0.1 -0.1)">
       <use xlink:href="#DejaVuSans-31"/>
       <use xlink:href="#DejaVuSans-30" x="63.623047"/>
       <use xlink:href="#DejaVuSans-30" x="127.246094"/>
       <use xlink:href="#DejaVuSans-30" x="190.869141"/>
      </g>
     </g>
    </g>
    <g id="text_13">
     <!-- Pellet_Count -->
     <g transform="translate(16.318125 230.485312) rotate(-90) scale(0.12 -0.12)">
      <defs>
       <path id="DejaVuSans-50" d="M 1259 4147 
L 1259 2394 
L 2053 2394 
Q 2494 2394 2734 2622 
Q 2975 2850 2975 3272 
Q 2975 3691 2734 3919 
Q 2494 4147 2053 4147 
L 1259 4147 
z
M 628 4666 
L 2053 4666 
Q 2838 4666 3239 4311 
Q 3641 3956 3641 3272 
Q 3641 2581 3239 2228 
Q 2838 1875 2053 1875 
L 1259 1875 
L 1259 0 
L 628 0 
L 628 4666 
z
" transform="scale(0.015625)"/>
       <path id="DejaVuSans-6c" d="M 603 4863 
L 1178 4863 
L 1178 0 
L 603 0 
L 603 4863 
z
" transform="scale(0.015625)"/>
       <path id="DejaVuSans-74" d="M 1172 4494 
L 1172 3500 
L 2356 3500 
L 2356 3053 
L 1172 3053 
L 1172 1153 
Q 1172 725 1289 603 
Q 1406 481 1766 481 
L 2356 481 
L 2356 0 
L 1766 0 
Q 1100 0 847 248 
Q 594 497 594 1153 
L 594 3053 
L 172 3053 
L 172 3500 
L 594 3500 
L 594 4494 
L 1172 4494 
z
" transform="scale(0.015625)"/>
       <path id="DejaVuSans-5f" d="M 3263 -1063 
L 3263 -1509 
L -63 -1509 
L -63 -1063 
L 3263 -1063 
z
" transform="scale(0.015625)"/>
       <path id="DejaVuSans-43" d="M 4122 4306 
L 4122 3641 
Q 3803 3938 3442 4084 
Q 3081 4231 2675 4231 
Q 1875 4231 1450 3742 
Q 1025 3253 1025 2328 
Q 1025 1406 1450 917 
Q 1875 428 2675 428 
Q 3081 428 3442 575 
Q 3803 722 4122 1019 
L 4122 359 
Q 3791 134 3420 21 
Q 3050 -91 2638 -91 
Q 1578 -91 968 557 
Q 359 1206 359 2328 
Q 359 3453 968 4101 
Q 1578 4750 2638 4750 
Q 3056 4750 3426 4639 
Q 3797 4528 4122 4306 
z
" transform="scale(0.015625)"/>
       <path id="DejaVuSans-6f" d="M 1959 3097 
Q 1497 3097 1228 2736 
Q 959 2375 959 1747 
Q 959 1119 1226 758 
Q 1494 397 1959 397 
Q 2419 397 2687 759 
Q 2956 1122 2956 1747 
Q 2956 2369 2687 2733 
Q 2419 3097 1959 3097 
z
M 1959 3584 
Q 2709 3584 3137 3096 
Q 3566 2609 3566 1747 
Q 3566 888 3137 398 
Q 2709 -91 1959 -91 
Q 1206 -91 779 398 
Q 353 888 353 1747 
Q 353 2609 779 3096 
Q 1206 3584 1959 3584 
z
" transform="scale(0.015625)"/>
       <path id="DejaVuSans-75" d="M 544 1381 
L 544 3500 
L 1119 3500 
L 1119 1403 
Q 1119 906 1312 657 
Q 1506 409 1894 409 
Q 2359 409 2629 706 
Q 2900 1003 2900 1516 
L 2900 3500 
L 3475 3500 
L 3475 0 
L 2900 0 
L 2900 538 
Q 2691 219 2414 64 
Q 2138 -91 1772 -91 
Q 1169 -91 856 284 
Q 544 659 544 1381 
z
M 1991 3584 
L 1991 3584 
z
" transform="scale(0.015625)"/>
       <path id="DejaVuSans-6e" d="M 3513 2113 
L 3513 0 
L 2938 0 
L 2938 2094 
Q 2938 2591 2744 2837 
Q 2550 3084 2163 3084 
Q 1697 3084 1428 2787 
Q 1159 2491 1159 1978 
L 1159 0 
L 581 0 
L 581 3500 
L 1159 3500 
L 1159 2956 
Q 1366 3272 1645 3428 
Q 1925 3584 2291 3584 
Q 2894 3584 3203 3211 
Q 3513 2838 3513 2113 
z
" transform="scale(0.015625)"/>
      </defs>
      <use xlink:href="#DejaVuSans-50"/>
      <use xlink:href="#DejaVuSans-65" x="56.677734"/>
      <use xlink:href="#DejaVuSans-6c" x="118.201172"/>
      <use xlink:href="#DejaVuSans-6c" x="145.984375"/>
      <use xlink:href="#DejaVuSans-65" x="173.767578"/>
      <use xlink:href="#DejaVuSans-74" x="235.291016"/>
      <use xlink:href="#DejaVuSans-5f" x="274.5"/>
      <use xlink:href="#DejaVuSans-43" x="324.5"/>
      <use xlink:href="#DejaVuSans-6f" x="394.324219"/>
      <use xlink:href="#DejaVuSans-75" x="455.505859"/>
      <use xlink:href="#DejaVuSans-6e" x="518.884766"/>
      <use xlink:href="#DejaVuSans-74" x="582.263672"/>
     </g>
    </g>
   </g>
   <g id="line2d_12">
    <path d="M 106.324773 344.397187 
L 108.493512 344.397187 
L 108.566182 344.116147 
L 114.640924 344.116147 
L 114.661362 343.835106 
L 117.138948 343.835106 
L 117.177554 343.554065 
L 118.451547 343.554065 
L 118.562823 343.273024 
L 118.562823 343.273024 
L 118.633221 343.273024 
L 118.633221 343.273024 
L 118.753581 342.710942 
L 118.889837 342.710942 
L 118.944339 342.429901 
L 119.875421 342.429901 
L 119.934465 342.14886 
L 120.656621 342.14886 
L 120.776981 341.586779 
L 120.797419 341.586779 
L 120.924591 341.305738 
L 120.981365 341.305738 
L 121.103995 341.024697 
L 122.071412 341.024697 
L 122.155436 340.462615 
L 122.21448 340.462615 
L 122.223564 340.181574 
L 122.405239 340.181574 
L 122.427948 339.619492 
L 123.781423 339.619492 
L 123.790507 339.338451 
L 126.940289 339.338451 
L 127.051564 339.057411 
L 127.051564 339.057411 
L 128.638946 339.057411 
L 128.673009 338.77637 
L 129.370185 338.77637 
L 129.481461 338.495329 
L 129.508712 338.495329 
L 129.613175 338.214288 
L 129.681303 338.214288 
L 129.788037 337.652206 
L 129.81983 337.652206 
L 129.924293 337.371165 
L 130.414814 337.371165 
L 130.541986 336.247002 
L 130.573779 336.247002 
L 130.57605 335.965961 
L 132.174786 335.965961 
L 132.267894 335.122838 
L 136.251108 335.122838 
L 136.3533 334.279715 
L 136.382822 334.279715 
L 136.464575 333.717634 
L 136.530432 333.717634 
L 136.614457 333.436593 
L 139.609816 333.436593 
L 139.750613 332.031388 
L 139.782406 332.031388 
L 139.877785 331.188266 
L 139.902766 331.188266 
L 139.941372 330.626184 
L 146.066074 330.626184 
L 146.17962 330.345143 
L 146.234123 330.345143 
L 146.347669 329.783061 
L 146.363566 329.783061 
L 146.481654 328.658898 
L 146.504364 328.658898 
L 146.615639 327.815775 
L 153.121858 327.815775 
L 153.169547 327.253693 
L 153.289907 327.253693 
L 153.405724 326.12953 
L 153.437517 326.12953 
L 153.555606 325.567448 
L 154.032501 325.567448 
L 154.037043 325.286407 
L 155.238366 325.286407 
L 155.336016 324.443284 
L 155.367809 324.443284 
L 155.456375 323.881202 
L 155.56538 323.319121 
L 162.836903 323.319121 
L 162.841445 323.03808 
L 162.970888 323.03808 
L 163.091247 321.913916 
L 163.116227 321.913916 
L 163.211606 321.351834 
L 163.238858 321.351834 
L 163.277463 320.789753 
L 165.832261 320.789753 
L 165.954892 320.227671 
L 166.011665 320.227671 
L 166.093419 319.384548 
L 166.136566 319.384548 
L 166.172901 319.103507 
L 180.254947 319.103507 
L 180.35941 318.541425 
L 180.561523 317.417262 
L 180.568336 317.417262 
L 180.631922 317.136221 
L 191.655023 317.136221 
L 191.8912 316.574139 
L 191.961599 316.574139 
L 192.072875 316.293098 
L 192.111481 316.293098 
L 192.111481 316.293098 
L 192.127377 316.012057 
L 199.501092 316.012057 
L 199.519259 315.731016 
L 199.739539 315.731016 
L 199.859899 314.887894 
L 199.896234 314.887894 
L 199.896234 314.887894 
L 200.002967 314.044771 
L 200.043844 314.044771 
L 200.125598 313.201648 
L 200.168745 313.201648 
L 200.261854 312.358526 
L 200.323169 312.358526 
L 200.354962 311.796444 
L 208.632507 311.796444 
L 208.637049 311.515403 
L 208.782389 311.515403 
L 208.889122 310.67228 
L 208.943625 310.67228 
L 208.97996 310.110199 
L 215.268169 310.110199 
L 215.272711 309.829158 
L 215.413509 309.829158 
L 215.483907 309.267076 
L 222.494273 309.267076 
L 222.601007 308.423953 
L 222.644154 308.423953 
L 222.759972 307.580831 
L 227.061116 307.580831 
L 227.165579 307.018749 
L 227.208727 307.018749 
L 227.326815 306.456667 
L 227.333628 306.456667 
L 227.335899 306.175626 
L 241.501969 306.175626 
L 241.604161 305.332503 
L 241.67456 305.332503 
L 241.785836 304.20834 
L 241.828984 304.20834 
L 241.922092 303.365217 
L 241.969781 303.365217 
L 241.972052 303.084176 
L 246.252758 303.084176 
L 246.368576 302.241054 
L 246.409452 302.241054 
L 246.413994 301.960013 
L 250.971754 301.960013 
L 251.053507 301.397931 
L 251.148886 301.397931 
L 251.241995 300.835849 
L 251.332832 300.835849 
L 251.341916 300.554808 
L 258.320488 300.554808 
L 258.32503 300.273767 
L 258.449931 300.273767 
L 258.549852 299.430645 
L 258.588458 299.430645 
L 258.652044 298.868563 
L 259.937391 298.868563 
L 260.003248 298.02544 
L 263.118966 298.02544 
L 263.182552 297.463359 
L 263.54363 297.463359 
L 263.598133 296.901277 
L 264.765392 296.901277 
L 264.767663 296.620236 
L 266.970466 296.620236 
L 267.063574 296.058154 
L 267.108993 296.058154 
L 267.158953 295.496072 
L 267.529115 295.496072 
L 267.531386 295.215031 
L 271.396512 295.215031 
L 271.457827 294.65295 
L 271.564561 294.65295 
L 271.666752 294.090868 
L 275.590922 294.090868 
L 275.656779 293.528786 
L 275.738533 293.528786 
L 275.738533 293.528786 
L 275.870247 292.404622 
L 275.924749 292.404622 
L 276.020128 291.5615 
L 280.50976 291.5615 
L 280.575617 291.280459 
L 282.633081 291.280459 
L 282.748898 290.156295 
L 282.805671 290.156295 
L 282.860174 289.594214 
L 288.601089 289.594214 
L 288.603359 289.313173 
L 291.21266 289.313173 
L 291.410231 288.189009 
L 292.025653 288.189009 
L 292.039279 287.907968 
L 293.297375 287.907968 
L 293.324626 287.626927 
L 297.902824 287.626927 
L 297.984577 287.064845 
L 298.032267 287.064845 
L 298.129917 286.221723 
L 301.002645 286.221723 
L 301.109379 285.3786 
L 301.161611 285.3786 
L 301.163882 285.097559 
L 303.757285 285.097559 
L 303.859477 284.535477 
L 303.895812 284.535477 
L 303.984378 283.692355 
L 305.033549 283.692355 
L 305.108489 282.849232 
L 307.71779 282.849232 
L 307.808627 282.006109 
L 307.849504 282.006109 
L 307.965321 281.162987 
L 313.413286 281.162987 
L 313.49731 280.319864 
L 314.405683 280.319864 
L 314.482895 280.038823 
L 315.532065 280.038823 
L 315.645612 279.195701 
L 315.679676 279.195701 
L 315.7637 278.352578 
L 316.699324 278.352578 
L 316.810599 277.228414 
L 317.946065 277.228414 
L 318.045986 276.666332 
L 318.077779 276.666332 
L 318.077779 276.666332 
L 318.130011 276.104251 
L 319.083802 276.104251 
L 319.086073 275.82321 
L 323.92997 275.82321 
L 323.966305 275.261128 
L 324.082122 275.261128 
L 324.143437 274.418005 
L 324.204752 274.418005 
L 324.266068 274.136964 
L 325.701296 274.136964 
L 325.792133 273.293842 
L 325.821656 273.293842 
L 325.826197 273.012801 
L 330.922168 273.012801 
L 331.010734 272.169678 
L 331.062965 272.169678 
L 331.165157 271.045515 
L 331.201492 271.045515 
L 331.301413 270.202392 
L 331.340019 270.202392 
L 331.399063 269.359269 
L 333.065927 269.359269 
L 333.168119 268.516147 
L 339.524456 268.516147 
L 339.524456 268.516147 
L 339.633461 267.673024 
L 339.708402 267.673024 
L 339.821948 266.54886 
L 339.862825 266.54886 
L 339.958204 265.986779 
L 345.183617 265.986779 
L 345.260829 265.143656 
L 345.308519 265.143656 
L 345.397085 264.300533 
L 345.43342 264.300533 
L 345.517444 263.457411 
L 345.594656 263.457411 
L 345.70139 262.333247 
L 345.744538 262.333247 
L 345.749079 262.052206 
L 353.04104 262.052206 
L 353.159129 260.928043 
L 353.195464 260.928043 
L 353.318094 260.08492 
L 353.329449 260.08492 
L 353.365784 259.803879 
L 356.440625 259.803879 
L 356.447438 259.522838 
L 359.6222 259.522838 
L 359.765269 258.679715 
L 359.76981 258.679715 
L 359.812958 258.117634 
L 363.673542 258.117634 
L 363.784817 257.274511 
L 363.830236 257.274511 
L 363.973305 256.431388 
L 371.86025 256.431388 
L 371.971525 255.588266 
L 372.005589 255.588266 
L 372.116865 254.745143 
L 372.135032 254.745143 
L 372.184993 254.183061 
L 372.259934 254.183061 
L 372.357584 253.339938 
L 372.382564 253.339938 
L 372.384835 253.058898 
L 393.46135 253.058898 
L 393.568084 252.215775 
L 393.602148 252.215775 
L 393.715694 251.091611 
L 393.752029 251.091611 
L 393.842866 250.248489 
L 393.886014 250.248489 
L 393.960955 249.405366 
L 405.756173 249.405366 
L 405.856094 248.281202 
L 415.802774 248.281202 
L 415.918591 247.157039 
L 415.950384 247.157039 
L 416.066202 246.032875 
L 418.214503 246.032875 
L 418.221316 245.751834 
L 420.467267 245.751834 
L 420.471809 245.470793 
L 429.235334 245.470793 
L 429.342067 244.627671 
L 429.382944 244.627671 
L 429.487407 243.784548 
L 429.537368 243.784548 
L 429.539638 243.503507 
L 438.29635 243.503507 
L 438.41671 242.379344 
L 453.715975 242.379344 
L 453.829522 241.536221 
L 453.838605 241.536221 
L 453.924901 240.693098 
L 453.986216 240.693098 
L 454.04526 240.131016 
L 454.102033 240.131016 
L 454.14291 239.568935 
L 462.731573 239.568935 
L 462.847391 238.725812 
L 462.908706 238.725812 
L 462.908706 238.725812 
L 463.010898 237.882689 
L 463.038149 237.882689 
L 463.042691 237.601648 
L 471.174896 237.601648 
L 471.288443 236.758526 
L 471.336132 236.758526 
L 471.420157 235.915403 
L 471.470117 235.915403 
L 471.472388 235.634362 
L 480.755956 235.634362 
L 480.844523 235.07228 
L 480.878587 235.07228 
L 480.989862 233.948117 
L 487.025998 233.948117 
L 487.07823 233.386035 
L 487.866243 233.386035 
L 488.000228 232.261872 
L 490.866143 232.261872 
L 492.953129 231.980831 
L 495.085534 231.980831 
L 495.199081 231.418749 
L 495.205893 231.418749 
L 495.301272 230.575626 
L 495.355775 230.575626 
L 495.823587 230.294585 
L 497.326943 230.294585 
L 497.336027 230.013544 
L 501.909683 230.013544 
L 502.030042 229.170422 
L 502.066377 229.170422 
L 502.173111 228.60834 
L 502.772637 228.60834 
L 502.777179 228.327299 
L 505.976921 228.327299 
L 506.07003 227.484176 
L 506.113177 227.484176 
L 506.113177 227.484176 
L 506.240349 226.360013 
L 506.322103 226.360013 
L 506.41294 225.51689 
L 506.764935 225.51689 
L 506.767206 225.235849 
L 510.085036 225.235849 
L 510.16679 224.673767 
L 510.241731 224.673767 
L 510.353006 223.549604 
L 510.380258 223.549604 
L 510.382528 223.268563 
L 511.860905 223.268563 
L 511.965368 222.144399 
L 511.999432 222.144399 
L 512.094811 221.020236 
L 512.119791 221.020236 
L 512.122062 220.739195 
L 512.269673 220.739195 
L 512.274214 220.458154 
L 515.96902 220.458154 
L 515.971291 220.177113 
L 516.155236 220.177113 
L 516.184758 219.615031 
L 518.789517 219.615031 
L 518.866728 219.33399 
L 518.932586 219.33399 
L 519.050674 218.209827 
L 519.123344 218.209827 
L 519.205097 217.647745 
L 523.399508 217.647745 
L 523.517596 216.523582 
L 523.549389 216.523582 
L 523.635685 215.399418 
L 523.687916 215.399418 
L 523.690187 215.118377 
L 524.044452 215.118377 
L 524.048994 214.837336 
L 528.679423 214.837336 
L 529.190383 211.464845 
L 529.233531 211.464845 
L 529.235802 211.183805 
L 529.69453 211.183805 
L 529.696801 210.902764 
L 539.078019 210.902764 
L 539.17794 210.059641 
L 539.205191 210.059641 
L 539.316467 208.935477 
L 539.359614 208.935477 
L 539.454993 208.092355 
L 539.484515 208.092355 
L 539.56854 207.249232 
L 547.721184 207.249232 
L 547.843814 206.125069 
L 547.871065 206.125069 
L 547.9074 205.562987 
L 547.998238 205.562987 
L 548.032302 205.000905 
L 550.432676 205.000905 
L 550.521242 204.157782 
L 550.550765 204.157782 
L 550.632518 203.595701 
L 557.418061 203.595701 
L 557.540692 202.471537 
L 557.604278 202.471537 
L 557.720095 201.347373 
L 557.754159 201.347373 
L 557.879061 200.22321 
L 557.910854 200.22321 
L 557.960814 199.661128 
L 585.588967 199.661128 
L 585.591237 199.380087 
L 585.806976 199.380087 
L 585.922793 198.536964 
L 586.027256 197.693842 
L 586.056778 197.693842 
L 586.127177 196.850719 
L 600.870064 196.850719 
L 600.976798 195.726556 
L 601.010862 195.726556 
L 601.128951 194.602392 
L 601.163015 194.602392 
L 601.247039 193.759269 
L 601.287916 193.759269 
L 601.292458 193.478228 
L 615.710602 193.478228 
L 615.819606 192.354065 
L 615.849129 192.354065 
L 615.944508 191.229901 
L 615.989926 191.229901 
L 615.992197 190.94886 
L 636.930186 190.94886 
L 637.046003 189.824697 
L 637.107318 189.824697 
L 637.216323 188.700533 
L 637.277638 188.700533 
L 637.316244 188.419492 
L 657.066535 188.419492 
L 657.177811 187.295329 
L 657.218687 187.295329 
L 657.311796 186.452206 
L 657.34586 186.452206 
L 657.39582 185.890124 
L 667.312978 185.890124 
L 667.408357 185.047002 
L 667.453776 185.047002 
L 667.533258 184.203879 
L 667.578677 184.203879 
L 667.696765 183.079715 
L 677.000772 183.079715 
L 677.098422 182.236593 
L 678.847039 182.236593 
L 679.53286 181.955552 
L 681.381398 181.955552 
L 681.460881 181.674511 
L 683.500178 181.674511 
L 683.625079 180.550347 
L 683.670497 180.550347 
L 683.795399 179.426184 
L 683.834004 179.426184 
L 683.836275 179.145143 
L 685.714336 179.145143 
L 685.802902 178.30202 
L 685.84605 178.30202 
L 685.848321 178.020979 
L 687.447056 178.020979 
L 687.508372 177.177857 
L 688.205548 177.177857 
L 688.207819 176.896816 
L 688.514394 176.896816 
L 688.516665 176.615775 
L 690.049544 176.615775 
L 690.154007 175.772652 
L 692.084299 175.772652 
L 692.134259 175.21057 
L 692.91773 175.21057 
L 692.997213 174.367448 
L 695.776833 174.367448 
L 696.196956 172.119121 
L 696.925925 172.119121 
L 697.007678 171.275998 
L 700.516267 171.275998 
L 700.629814 170.432875 
L 700.704755 170.432875 
L 700.800134 169.589753 
L 700.854636 169.589753 
L 700.970453 168.74663 
L 706.35029 168.74663 
L 706.432044 167.903507 
L 706.468379 167.903507 
L 706.586467 166.779344 
L 706.61826 166.779344 
L 706.713639 165.936221 
L 710.483385 165.936221 
L 710.590119 165.093098 
L 710.624183 165.093098 
L 710.710479 164.249976 
L 710.744543 164.249976 
L 710.862631 163.125812 
L 720.632178 163.125812 
L 720.761621 162.001648 
L 720.813853 162.001648 
L 720.90469 161.158526 
L 720.945567 161.158526 
L 721.040946 160.315403 
L 721.07501 160.315403 
L 721.193098 159.19124 
L 721.218079 159.19124 
L 721.263497 158.629158 
L 729.697737 158.629158 
L 729.813554 157.786035 
L 729.927101 156.661872 
L 729.963436 156.661872 
L 730.045189 155.818749 
L 730.09515 155.818749 
L 730.204155 154.694585 
L 740.012308 154.694585 
L 740.155376 153.851463 
L 740.187169 153.851463 
L 740.302987 152.727299 
L 741.011517 152.727299 
L 741.084187 152.165217 
L 741.885826 152.165217 
L 741.965309 151.603135 
L 744.595047 151.603135 
L 744.704052 150.478972 
L 744.754013 150.478972 
L 744.824411 149.91689 
L 752.64777 149.91689 
L 752.749962 148.792727 
L 752.790839 148.792727 
L 752.893031 147.668563 
L 752.954346 147.668563 
L 752.981597 147.387522 
L 756.57194 147.387522 
L 756.692299 146.544399 
L 756.719551 146.544399 
L 756.764969 145.982318 
L 788.044779 145.982318 
L 788.156055 144.858154 
L 788.183306 144.858154 
L 788.292311 143.73399 
L 788.312749 143.73399 
L 788.360439 143.45295 
L 788.453547 143.45295 
L 788.517133 142.609827 
L 801.584073 142.609827 
L 801.679452 141.766704 
L 801.715787 141.766704 
L 801.822521 140.923582 
L 801.847501 140.923582 
L 801.963319 139.799418 
L 811.103818 139.799418 
L 811.20601 138.956295 
L 811.249157 138.956295 
L 811.35362 138.113173 
L 811.385413 138.113173 
L 811.47398 137.27005 
L 817.616849 137.27005 
L 817.694061 136.426927 
L 817.73948 136.426927 
L 817.81442 135.583805 
L 817.882548 135.583805 
L 817.952947 134.740682 
L 826.539339 134.740682 
L 826.655157 133.897559 
L 826.707388 133.897559 
L 826.795954 133.054437 
L 826.836831 133.054437 
L 826.875437 132.492355 
L 841.332187 132.492355 
L 841.425295 131.649232 
L 841.48661 131.649232 
L 841.579718 130.806109 
L 841.625137 130.806109 
L 841.697807 129.962987 
L 851.035877 129.962987 
L 851.128985 129.119864 
L 851.16532 129.119864 
L 851.251616 128.276741 
L 851.290221 128.276741 
L 851.374246 127.71466 
L 865.172426 127.71466 
L 865.267805 126.871537 
L 865.295056 126.871537 
L 865.410873 126.028414 
L 870.529553 126.028414 
L 870.615848 125.185292 
L 870.647641 125.185292 
L 870.738479 124.342169 
L 870.779355 124.342169 
L 870.781626 124.061128 
L 877.857849 124.061128 
L 877.964583 122.936964 
L 878.037252 122.936964 
L 878.159883 121.812801 
L 878.184863 121.812801 
L 878.22574 121.250719 
L 883.814502 121.250719 
L 883.841753 120.969678 
L 884.527575 120.969678 
L 884.532117 120.688637 
L 884.747855 120.688637 
L 884.750126 120.407596 
L 885.983242 120.407596 
L 886.087705 119.564474 
L 890.298012 119.564474 
L 890.4161 118.44031 
L 890.450164 118.44031 
L 890.550085 117.597187 
L 890.584149 117.597187 
L 890.58642 117.316147 
L 891.742324 117.316147 
L 891.746866 117.035106 
L 892.809662 117.035106 
L 892.870977 116.473024 
L 893.245681 116.473024 
L 893.286557 116.191983 
L 894.192659 116.191983 
L 894.308477 115.067819 
L 894.34027 115.067819 
L 894.344811 114.786779 
L 895.303145 114.786779 
L 895.334938 114.224697 
L 896.822398 114.224697 
L 896.90188 113.381574 
L 896.990447 113.381574 
L 897.106264 112.538451 
L 897.708061 112.538451 
L 897.810253 111.695329 
L 897.842046 111.695329 
L 897.844317 111.414288 
L 900.355967 111.414288 
L 900.444533 110.571165 
L 901.012266 110.571165 
L 901.06904 110.290124 
L 901.505058 110.290124 
L 901.543664 109.728043 
L 906.09234 109.728043 
L 906.158197 109.447002 
L 906.339872 109.447002 
L 906.423896 108.88492 
L 908.106656 108.88492 
L 908.167971 108.603879 
L 908.560843 108.603879 
L 908.658493 107.760756 
L 908.697098 107.760756 
L 908.731162 107.198674 
L 908.828812 107.198674 
L 908.910566 106.355552 
L 908.960527 106.355552 
L 909.064989 105.512429 
L 912.65079 105.512429 
L 912.757524 104.950347 
L 912.798401 104.950347 
L 912.900593 104.107225 
L 912.932386 104.107225 
L 913.011868 103.545143 
L 913.154937 103.545143 
L 913.159479 103.264102 
L 914.233629 103.264102 
L 914.40622 102.983061 
L 919.715658 102.983061 
L 919.822392 101.858898 
L 919.874623 101.858898 
L 919.979086 100.734734 
L 920.01315 100.734734 
L 920.117613 99.891611 
L 928.71536 99.891611 
L 928.801655 99.048489 
L 928.840261 99.048489 
L 928.944724 97.924325 
L 928.971975 97.924325 
L 929.021935 97.643284 
L 932.342037 97.643284 
L 932.4465 96.800161 
L 932.485106 96.800161 
L 932.600923 95.675998 
L 934.858229 95.675998 
L 934.964963 94.832875 
L 934.999027 94.832875 
L 935.10349 93.708712 
L 935.130741 93.708712 
L 935.133012 93.427671 
L 939.695313 93.427671 
L 939.838382 92.022466 
L 939.876988 92.022466 
L 939.974638 91.179344 
L 939.999618 91.179344 
L 940.106352 90.05518 
L 940.140416 90.05518 
L 940.181293 89.774139 
L 944.203112 89.774139 
L 944.309846 88.931016 
L 944.337097 88.931016 
L 944.423393 88.087894 
L 944.457457 88.087894 
L 944.568732 87.244771 
L 944.605067 87.244771 
L 944.63686 86.682689 
L 952.553327 86.682689 
L 952.641894 85.839567 
L 952.680499 85.839567 
L 952.789504 84.715403 
L 952.821297 84.715403 
L 952.903051 83.87228 
L 952.941657 83.87228 
L 952.943928 83.59124 
L 967.882115 83.59124 
L 968.000203 82.467076 
L 968.027454 82.467076 
L 968.154627 81.342912 
L 968.179607 81.342912 
L 968.28407 80.218749 
L 968.322676 80.218749 
L 968.438493 79.375626 
L 968.520247 78.532503 
L 993.059932 78.532503 
L 993.139415 77.689381 
L 993.191646 77.689381 
L 993.293838 76.846258 
L 993.321089 76.846258 
L 993.366508 76.284176 
L 1000.254243 76.284176 
L 1000.258785 76.003135 
L 1018.980344 76.003135 
L 1019.084807 75.160013 
L 1019.118871 75.160013 
L 1019.16429 74.597931 
L 1035.172086 74.597931 
L 1035.28109 73.754808 
L 1035.321967 73.754808 
L 1035.417346 72.911686 
L 1035.739819 72.911686 
L 1035.814759 72.068563 
L 1035.860178 72.068563 
L 1035.978266 70.944399 
L 1036.019143 70.944399 
L 1036.021414 70.663359 
L 1043.345168 70.663359 
L 1043.426922 70.382318 
L 1047.514598 70.382318 
L 1047.562288 69.820236 
L 1047.705357 69.820236 
L 1047.818903 69.258154 
L 1047.825716 69.258154 
L 1047.896115 68.696072 
L 1047.961972 68.696072 
L 1047.996036 68.415031 
L 1053.182843 68.415031 
L 1053.253242 68.13399 
L 1053.310016 68.13399 
L 1053.312286 67.85295 
L 1054.361457 67.85295 
L 1054.415959 67.290868 
L 1064.149172 67.290868 
L 1064.205945 67.009827 
L 1067.040067 67.009827 
L 1067.124092 66.166704 
L 1067.158156 66.166704 
L 1067.273973 65.042541 
L 1067.312579 65.042541 
L 1067.401145 64.199418 
L 1067.455648 64.199418 
L 1067.487441 63.918377 
L 1074.184418 63.918377 
L 1074.268442 63.356295 
L 1075.810405 63.356295 
L 1075.92168 62.513173 
L 1075.964828 62.513173 
L 1076.051123 61.67005 
L 1076.103355 61.67005 
L 1076.214631 60.826927 
L 1080.054776 60.826927 
L 1080.095652 60.264845 
L 1081.21068 60.264845 
L 1081.247015 59.702764 
L 1082.714036 59.702764 
L 1082.804874 59.140682 
L 1082.857105 59.140682 
L 1082.859376 58.859641 
L 1086.204458 58.859641 
L 1086.272586 58.297559 
L 1086.740398 58.297559 
L 1086.824422 57.735477 
L 1087.133269 57.735477 
L 1087.140082 57.454437 
L 1087.887218 57.454437 
L 1087.996223 56.611314 
L 1088.0371 56.611314 
L 1088.162001 55.48715 
L 1088.180169 55.48715 
L 1088.234671 54.644028 
L 1090.103647 54.644028 
L 1090.210381 53.519864 
L 1090.237632 53.519864 
L 1090.314844 52.676741 
L 1091.395808 52.676741 
L 1091.488916 51.833619 
L 1093.562276 51.833619 
L 1093.564547 51.552578 
L 1097.98378 51.552578 
L 1098.097326 50.428414 
L 1098.122307 50.428414 
L 1098.199518 49.585292 
L 1099.34861 49.585292 
L 1099.355422 49.304251 
L 1100.488617 49.304251 
L 1100.608977 48.180087 
L 1100.649853 48.180087 
L 1100.742962 47.336964 
L 1100.822444 46.493842 
L 1101.115394 46.493842 
L 1101.138104 46.212801 
L 1101.735359 46.212801 
L 1101.737629 45.93176 
L 1102.577874 45.93176 
L 1102.582416 45.650719 
L 1103.072937 45.650719 
L 1103.075208 45.369678 
L 1103.994935 45.369678 
L 1103.997206 45.088637 
L 1104.619442 45.088637 
L 1104.621712 44.807596 
L 1104.796574 44.807596 
L 1104.841993 44.245515 
L 1106.143237 44.245515 
L 1106.197739 43.964474 
L 1114.795486 43.964474 
L 1114.897677 43.683433 
L 1117.563751 43.683433 
L 1117.652317 43.402392 
L 1117.920287 43.402392 
L 1118.027021 43.121351 
L 1118.213237 43.121351 
L 1118.442602 42.84031 
L 1120.304765 42.84031 
L 1120.418312 42.278228 
L 1120.565922 42.278228 
L 1120.870227 41.997187 
L 1120.870227 41.997187 
" clip-path="url(#p02093009c0)" style="fill: none; stroke: #0000ff; stroke-width: 1.5; stroke-linecap: square"/>
   </g>
   <g id="patch_188">
    <path d="M 55.5975 359.517187 
L 55.5975 26.877187 
" style="fill: none; stroke: #000000; stroke-width: 0.8; stroke-linejoin: miter; stroke-linecap: square"/>
   </g>
   <g id="patch_189">
    <path d="M 1171.5975 359.517187 
L 1171.5975 26.877187 
" style="fill: none; stroke: #000000; stroke-width: 0.8; stroke-linejoin: miter; stroke-linecap: square"/>
   </g>
   <g id="patch_190">
    <path d="M 55.5975 359.517187 
L 1171.5975 359.517187 
" style="fill: none; stroke: #000000; stroke-width: 0.8; stroke-linejoin: miter; stroke-linecap: square"/>
   </g>
   <g id="patch_191">
    <path d="M 55.5975 26.877187 
L 1171.5975 26.877187 
" style="fill: none; stroke: #000000; stroke-width: 0.8; stroke-linejoin: miter; stroke-linecap: square"/>
   </g>
   <g id="text_14">
    <!-- Pellet Count and Cumulative Sum Over Time of Group 9 Mouse 2 -->
    <g transform="translate(321.823125 20.877187) scale(0.18 -0.18)">
     <defs>
      <path id="DejaVuSans-20" transform="scale(0.015625)"/>
      <path id="DejaVuSans-61" d="M 2194 1759 
Q 1497 1759 1228 1600 
Q 959 1441 959 1056 
Q 959 750 1161 570 
Q 1363 391 1709 391 
Q 2188 391 2477 730 
Q 2766 1069 2766 1631 
L 2766 1759 
L 2194 1759 
z
M 3341 1997 
L 3341 0 
L 2766 0 
L 2766 531 
Q 2569 213 2275 61 
Q 1981 -91 1556 -91 
Q 1019 -91 701 211 
Q 384 513 384 1019 
Q 384 1609 779 1909 
Q 1175 2209 1959 2209 
L 2766 2209 
L 2766 2266 
Q 2766 2663 2505 2880 
Q 2244 3097 1772 3097 
Q 1472 3097 1187 3025 
Q 903 2953 641 2809 
L 641 3341 
Q 956 3463 1253 3523 
Q 1550 3584 1831 3584 
Q 2591 3584 2966 3190 
Q 3341 2797 3341 1997 
z
" transform="scale(0.015625)"/>
      <path id="DejaVuSans-64" d="M 2906 2969 
L 2906 4863 
L 3481 4863 
L 3481 0 
L 2906 0 
L 2906 525 
Q 2725 213 2448 61 
Q 2172 -91 1784 -91 
Q 1150 -91 751 415 
Q 353 922 353 1747 
Q 353 2572 751 3078 
Q 1150 3584 1784 3584 
Q 2172 3584 2448 3432 
Q 2725 3281 2906 2969 
z
M 947 1747 
Q 947 1113 1208 752 
Q 1469 391 1925 391 
Q 2381 391 2643 752 
Q 2906 1113 2906 1747 
Q 2906 2381 2643 2742 
Q 2381 3103 1925 3103 
Q 1469 3103 1208 2742 
Q 947 2381 947 1747 
z
" transform="scale(0.015625)"/>
      <path id="DejaVuSans-76" d="M 191 3500 
L 800 3500 
L 1894 563 
L 2988 3500 
L 3597 3500 
L 2284 0 
L 1503 0 
L 191 3500 
z
" transform="scale(0.015625)"/>
      <path id="DejaVuSans-53" d="M 3425 4513 
L 3425 3897 
Q 3066 4069 2747 4153 
Q 2428 4238 2131 4238 
Q 1616 4238 1336 4038 
Q 1056 3838 1056 3469 
Q 1056 3159 1242 3001 
Q 1428 2844 1947 2747 
L 2328 2669 
Q 3034 2534 3370 2195 
Q 3706 1856 3706 1288 
Q 3706 609 3251 259 
Q 2797 -91 1919 -91 
Q 1588 -91 1214 -16 
Q 841 59 441 206 
L 441 856 
Q 825 641 1194 531 
Q 1563 422 1919 422 
Q 2459 422 2753 634 
Q 3047 847 3047 1241 
Q 3047 1584 2836 1778 
Q 2625 1972 2144 2069 
L 1759 2144 
Q 1053 2284 737 2584 
Q 422 2884 422 3419 
Q 422 4038 858 4394 
Q 1294 4750 2059 4750 
Q 2388 4750 2728 4690 
Q 3069 4631 3425 4513 
z
" transform="scale(0.015625)"/>
      <path id="DejaVuSans-4f" d="M 2522 4238 
Q 1834 4238 1429 3725 
Q 1025 3213 1025 2328 
Q 1025 1447 1429 934 
Q 1834 422 2522 422 
Q 3209 422 3611 934 
Q 4013 1447 4013 2328 
Q 4013 3213 3611 3725 
Q 3209 4238 2522 4238 
z
M 2522 4750 
Q 3503 4750 4090 4092 
Q 4678 3434 4678 2328 
Q 4678 1225 4090 567 
Q 3503 -91 2522 -91 
Q 1538 -91 948 565 
Q 359 1222 359 2328 
Q 359 3434 948 4092 
Q 1538 4750 2522 4750 
z
" transform="scale(0.015625)"/>
      <path id="DejaVuSans-72" d="M 2631 2963 
Q 2534 3019 2420 3045 
Q 2306 3072 2169 3072 
Q 1681 3072 1420 2755 
Q 1159 2438 1159 1844 
L 1159 0 
L 581 0 
L 581 3500 
L 1159 3500 
L 1159 2956 
Q 1341 3275 1631 3429 
Q 1922 3584 2338 3584 
Q 2397 3584 2469 3576 
Q 2541 3569 2628 3553 
L 2631 2963 
z
" transform="scale(0.015625)"/>
      <path id="DejaVuSans-66" d="M 2375 4863 
L 2375 4384 
L 1825 4384 
Q 1516 4384 1395 4259 
Q 1275 4134 1275 3809 
L 1275 3500 
L 2222 3500 
L 2222 3053 
L 1275 3053 
L 1275 0 
L 697 0 
L 697 3053 
L 147 3053 
L 147 3500 
L 697 3500 
L 697 3744 
Q 697 4328 969 4595 
Q 1241 4863 1831 4863 
L 2375 4863 
z
" transform="scale(0.015625)"/>
      <path id="DejaVuSans-47" d="M 3809 666 
L 3809 1919 
L 2778 1919 
L 2778 2438 
L 4434 2438 
L 4434 434 
Q 4069 175 3628 42 
Q 3188 -91 2688 -91 
Q 1594 -91 976 548 
Q 359 1188 359 2328 
Q 359 3472 976 4111 
Q 1594 4750 2688 4750 
Q 3144 4750 3555 4637 
Q 3966 4525 4313 4306 
L 4313 3634 
Q 3963 3931 3569 4081 
Q 3175 4231 2741 4231 
Q 1884 4231 1454 3753 
Q 1025 3275 1025 2328 
Q 1025 1384 1454 906 
Q 1884 428 2741 428 
Q 3075 428 3337 486 
Q 3600 544 3809 666 
z
" transform="scale(0.015625)"/>
      <path id="DejaVuSans-70" d="M 1159 525 
L 1159 -1331 
L 581 -1331 
L 581 3500 
L 1159 3500 
L 1159 2969 
Q 1341 3281 1617 3432 
Q 1894 3584 2278 3584 
Q 2916 3584 3314 3078 
Q 3713 2572 3713 1747 
Q 3713 922 3314 415 
Q 2916 -91 2278 -91 
Q 1894 -91 1617 61 
Q 1341 213 1159 525 
z
M 3116 1747 
Q 3116 2381 2855 2742 
Q 2594 3103 2138 3103 
Q 1681 3103 1420 2742 
Q 1159 2381 1159 1747 
Q 1159 1113 1420 752 
Q 1681 391 2138 391 
Q 2594 391 2855 752 
Q 3116 1113 3116 1747 
z
" transform="scale(0.015625)"/>
      <path id="DejaVuSans-39" d="M 703 97 
L 703 672 
Q 941 559 1184 500 
Q 1428 441 1663 441 
Q 2288 441 2617 861 
Q 2947 1281 2994 2138 
Q 2813 1869 2534 1725 
Q 2256 1581 1919 1581 
Q 1219 1581 811 2004 
Q 403 2428 403 3163 
Q 403 3881 828 4315 
Q 1253 4750 1959 4750 
Q 2769 4750 3195 4129 
Q 3622 3509 3622 2328 
Q 3622 1225 3098 567 
Q 2575 -91 1691 -91 
Q 1453 -91 1209 -44 
Q 966 3 703 97 
z
M 1959 2075 
Q 2384 2075 2632 2365 
Q 2881 2656 2881 3163 
Q 2881 3666 2632 3958 
Q 2384 4250 1959 4250 
Q 1534 4250 1286 3958 
Q 1038 3666 1038 3163 
Q 1038 2656 1286 2365 
Q 1534 2075 1959 2075 
z
" transform="scale(0.015625)"/>
      <path id="DejaVuSans-4d" d="M 628 4666 
L 1569 4666 
L 2759 1491 
L 3956 4666 
L 4897 4666 
L 4897 0 
L 4281 0 
L 4281 4097 
L 3078 897 
L 2444 897 
L 1241 4097 
L 1241 0 
L 628 0 
L 628 4666 
z
" transform="scale(0.015625)"/>
      <path id="DejaVuSans-73" d="M 2834 3397 
L 2834 2853 
Q 2591 2978 2328 3040 
Q 2066 3103 1784 3103 
Q 1356 3103 1142 2972 
Q 928 2841 928 2578 
Q 928 2378 1081 2264 
Q 1234 2150 1697 2047 
L 1894 2003 
Q 2506 1872 2764 1633 
Q 3022 1394 3022 966 
Q 3022 478 2636 193 
Q 2250 -91 1575 -91 
Q 1294 -91 989 -36 
Q 684 19 347 128 
L 347 722 
Q 666 556 975 473 
Q 1284 391 1588 391 
Q 1994 391 2212 530 
Q 2431 669 2431 922 
Q 2431 1156 2273 1281 
Q 2116 1406 1581 1522 
L 1381 1569 
Q 847 1681 609 1914 
Q 372 2147 372 2553 
Q 372 3047 722 3315 
Q 1072 3584 1716 3584 
Q 2034 3584 2315 3537 
Q 2597 3491 2834 3397 
z
" transform="scale(0.015625)"/>
     </defs>
     <use xlink:href="#DejaVuSans-50"/>
     <use xlink:href="#DejaVuSans-65" x="56.677734"/>
     <use xlink:href="#DejaVuSans-6c" x="118.201172"/>
     <use xlink:href="#DejaVuSans-6c" x="145.984375"/>
     <use xlink:href="#DejaVuSans-65" x="173.767578"/>
     <use xlink:href="#DejaVuSans-74" x="235.291016"/>
     <use xlink:href="#DejaVuSans-20" x="274.5"/>
     <use xlink:href="#DejaVuSans-43" x="306.287109"/>
     <use xlink:href="#DejaVuSans-6f" x="376.111328"/>
     <use xlink:href="#DejaVuSans-75" x="437.292969"/>
     <use xlink:href="#DejaVuSans-6e" x="500.671875"/>
     <use xlink:href="#DejaVuSans-74" x="564.050781"/>
     <use xlink:href="#DejaVuSans-20" x="603.259766"/>
     <use xlink:href="#DejaVuSans-61" x="635.046875"/>
     <use xlink:href="#DejaVuSans-6e" x="696.326172"/>
     <use xlink:href="#DejaVuSans-64" x="759.705078"/>
     <use xlink:href="#DejaVuSans-20" x="823.181641"/>
     <use xlink:href="#DejaVuSans-43" x="854.96875"/>
     <use xlink:href="#DejaVuSans-75" x="924.792969"/>
     <use xlink:href="#DejaVuSans-6d" x="988.171875"/>
     <use xlink:href="#DejaVuSans-75" x="1085.583984"/>
     <use xlink:href="#DejaVuSans-6c" x="1148.962891"/>
     <use xlink:href="#DejaVuSans-61" x="1176.746094"/>
     <use xlink:href="#DejaVuSans-74" x="1238.025391"/>
     <use xlink:href="#DejaVuSans-69" x="1277.234375"/>
     <use xlink:href="#DejaVuSans-76" x="1305.017578"/>
     <use xlink:href="#DejaVuSans-65" x="1364.197266"/>
     <use xlink:href="#DejaVuSans-20" x="1425.720703"/>
     <use xlink:href="#DejaVuSans-53" x="1457.507812"/>
     <use xlink:href="#DejaVuSans-75" x="1520.984375"/>
     <use xlink:href="#DejaVuSans-6d" x="1584.363281"/>
     <use xlink:href="#DejaVuSans-20" x="1681.775391"/>
     <use xlink:href="#DejaVuSans-4f" x="1713.5625"/>
     <use xlink:href="#DejaVuSans-76" x="1792.273438"/>
     <use xlink:href="#DejaVuSans-65" x="1851.453125"/>
     <use xlink:href="#DejaVuSans-72" x="1912.976562"/>
     <use xlink:href="#DejaVuSans-20" x="1954.089844"/>
     <use xlink:href="#DejaVuSans-54" x="1985.876953"/>
     <use xlink:href="#DejaVuSans-69" x="2043.835938"/>
     <use xlink:href="#DejaVuSans-6d" x="2071.619141"/>
     <use xlink:href="#DejaVuSans-65" x="2169.03125"/>
     <use xlink:href="#DejaVuSans-20" x="2230.554688"/>
     <use xlink:href="#DejaVuSans-6f" x="2262.341797"/>
     <use xlink:href="#DejaVuSans-66" x="2323.523438"/>
     <use xlink:href="#DejaVuSans-20" x="2358.728516"/>
     <use xlink:href="#DejaVuSans-47" x="2390.515625"/>
     <use xlink:href="#DejaVuSans-72" x="2468.005859"/>
     <use xlink:href="#DejaVuSans-6f" x="2506.869141"/>
     <use xlink:href="#DejaVuSans-75" x="2568.050781"/>
     <use xlink:href="#DejaVuSans-70" x="2631.429688"/>
     <use xlink:href="#DejaVuSans-20" x="2694.90625"/>
     <use xlink:href="#DejaVuSans-39" x="2726.693359"/>
     <use xlink:href="#DejaVuSans-20" x="2790.316406"/>
     <use xlink:href="#DejaVuSans-4d" x="2822.103516"/>
     <use xlink:href="#DejaVuSans-6f" x="2908.382812"/>
     <use xlink:href="#DejaVuSans-75" x="2969.564453"/>
     <use xlink:href="#DejaVuSans-73" x="3032.943359"/>
     <use xlink:href="#DejaVuSans-65" x="3085.042969"/>
     <use xlink:href="#DejaVuSans-20" x="3146.566406"/>
     <use xlink:href="#DejaVuSans-32" x="3178.353516"/>
    </g>
   </g>
   <g id="legend_1">
    <g id="patch_192">
     <path d="M 1092.913125 64.233437 
L 1164.5975 64.233437 
Q 1166.5975 64.233437 1166.5975 62.233437 
L 1166.5975 33.877187 
Q 1166.5975 31.877187 1164.5975 31.877187 
L 1092.913125 31.877187 
Q 1090.913125 31.877187 1090.913125 33.877187 
L 1090.913125 62.233437 
Q 1090.913125 64.233437 1092.913125 64.233437 
z
" style="fill: #ffffff; opacity: 0.8; stroke: #cccccc; stroke-linejoin: miter"/>
    </g>
    <g id="patch_193">
     <path d="M 1094.913125 43.475625 
L 1114.913125 43.475625 
L 1114.913125 36.475625 
L 1094.913125 36.475625 
z
" style="fill: #add8e6; opacity: 0.9; stroke: #add8e6; stroke-linejoin: miter"/>
    </g>
    <g id="text_15">
     <!-- Meal -->
     <g transform="translate(1122.913125 43.475625) scale(0.1 -0.1)">
      <use xlink:href="#DejaVuSans-4d"/>
      <use xlink:href="#DejaVuSans-65" x="86.279297"/>
      <use xlink:href="#DejaVuSans-61" x="147.802734"/>
      <use xlink:href="#DejaVuSans-6c" x="209.082031"/>
     </g>
    </g>
    <g id="patch_194">
     <path d="M 1094.913125 58.15375 
L 1114.913125 58.15375 
L 1114.913125 51.15375 
L 1094.913125 51.15375 
z
" style="fill: #808080; opacity: 0.5; stroke: #808080; stroke-linejoin: miter"/>
    </g>
    <g id="text_16">
     <!-- Inactive -->
     <g transform="translate(1122.913125 58.15375) scale(0.1 -0.1)">
      <defs>
       <path id="DejaVuSans-49" d="M 628 4666 
L 1259 4666 
L 1259 0 
L 628 0 
L 628 4666 
z
" transform="scale(0.015625)"/>
       <path id="DejaVuSans-63" d="M 3122 3366 
L 3122 2828 
Q 2878 2963 2633 3030 
Q 2388 3097 2138 3097 
Q 1578 3097 1268 2742 
Q 959 2388 959 1747 
Q 959 1106 1268 751 
Q 1578 397 2138 397 
Q 2388 397 2633 464 
Q 2878 531 3122 666 
L 3122 134 
Q 2881 22 2623 -34 
Q 2366 -91 2075 -91 
Q 1284 -91 818 406 
Q 353 903 353 1747 
Q 353 2603 823 3093 
Q 1294 3584 2113 3584 
Q 2378 3584 2631 3529 
Q 2884 3475 3122 3366 
z
" transform="scale(0.015625)"/>
      </defs>
      <use xlink:href="#DejaVuSans-49"/>
      <use xlink:href="#DejaVuSans-6e" x="29.492188"/>
      <use xlink:href="#DejaVuSans-61" x="92.871094"/>
      <use xlink:href="#DejaVuSans-63" x="154.150391"/>
      <use xlink:href="#DejaVuSans-74" x="209.130859"/>
      <use xlink:href="#DejaVuSans-69" x="248.339844"/>
      <use xlink:href="#DejaVuSans-76" x="276.123047"/>
      <use xlink:href="#DejaVuSans-65" x="335.302734"/>
     </g>
    </g>
   </g>
  </g>
 </g>
 <defs>
  <clipPath id="p02093009c0">
   <rect x="55.5975" y="26.877187" width="1116" height="332.64"/>
  </clipPath>
 </defs>
</svg>
