<?xml version="1.0" encoding="utf-8" standalone="no"?>
<!DOCTYPE svg PUBLIC "-//W3C//DTD SVG 1.1//EN"
  "http://www.w3.org/Graphics/SVG/1.1/DTD/svg11.dtd">
<svg xmlns:xlink="http://www.w3.org/1999/xlink" width="1178.7975pt" height="399.009062pt" viewBox="0 0 1178.7975 399.009062" xmlns="http://www.w3.org/2000/svg" version="1.1">
 <metadata>
  <rdf:RDF xmlns:dc="http://purl.org/dc/elements/1.1/" xmlns:cc="http://creativecommons.org/ns#" xmlns:rdf="http://www.w3.org/1999/02/22-rdf-syntax-ns#">
   <cc:Work>
    <dc:type rdf:resource="http://purl.org/dc/dcmitype/StillImage"/>
    <dc:date>2025-04-10T14:49:41.040155</dc:date>
    <dc:format>image/svg+xml</dc:format>
    <dc:creator>
     <cc:Agent>
      <dc:title>Matplotlib v3.8.3, https://matplotlib.org/</dc:title>
     </cc:Agent>
    </dc:creator>
   </cc:Work>
  </rdf:RDF>
 </metadata>
 <defs>
  <style type="text/css">*{stroke-linejoin: round; stroke-linecap: butt}</style>
 </defs>
 <g id="figure_1">
  <g id="patch_1">
   <path d="M 0 399.009062 
L 1178.7975 399.009062 
L 1178.7975 0 
L 0 0 
z
" style="fill: #ffffff"/>
  </g>
  <g id="axes_1">
   <g id="patch_2">
    <path d="M 55.5975 359.517187 
L 1171.5975 359.517187 
L 1171.5975 26.877187 
L 55.5975 26.877187 
z
" style="fill: #ffffff"/>
   </g>
   <g id="patch_3">
    <path d="M 120.447504 359.517187 
L 120.447504 26.877187 
L 120.493058 26.877187 
L 120.493058 359.517187 
z
" clip-path="url(#pd3aa9ec1c1)" style="fill: #add8e6; stroke: #add8e6; stroke-linejoin: miter"/>
   </g>
   <g id="patch_4">
    <path d="M 120.642736 359.517187 
L 120.642736 26.877187 
L 120.711997 26.877187 
L 120.711997 359.517187 
z
" clip-path="url(#pd3aa9ec1c1)" style="fill: #add8e6; stroke: #add8e6; stroke-linejoin: miter"/>
   </g>
   <g id="patch_5">
    <path d="M 122.126502 359.517187 
L 122.126502 26.877187 
L 122.152997 26.877187 
L 122.152997 359.517187 
z
" clip-path="url(#pd3aa9ec1c1)" style="fill: #add8e6; stroke: #add8e6; stroke-linejoin: miter"/>
   </g>
   <g id="patch_6">
    <path d="M 123.899397 359.517187 
L 123.899397 26.877187 
L 123.944021 26.877187 
L 123.944021 359.517187 
z
" clip-path="url(#pd3aa9ec1c1)" style="fill: #add8e6; stroke: #add8e6; stroke-linejoin: miter"/>
   </g>
   <g id="patch_7">
    <path d="M 126.449037 359.517187 
L 126.449037 26.877187 
L 126.525736 26.877187 
L 126.525736 359.517187 
z
" clip-path="url(#pd3aa9ec1c1)" style="fill: #add8e6; stroke: #add8e6; stroke-linejoin: miter"/>
   </g>
   <g id="patch_8">
    <path d="M 128.091312 359.517187 
L 128.091312 26.877187 
L 128.017868 26.877187 
L 128.017868 359.517187 
z
" clip-path="url(#pd3aa9ec1c1)" style="fill: #add8e6; stroke: #add8e6; stroke-linejoin: miter"/>
   </g>
   <g id="patch_9">
    <path d="M 135.137338 359.517187 
L 135.137338 26.877187 
L 135.173131 26.877187 
L 135.173131 359.517187 
z
" clip-path="url(#pd3aa9ec1c1)" style="fill: #add8e6; stroke: #add8e6; stroke-linejoin: miter"/>
   </g>
   <g id="patch_10">
    <path d="M 137.902664 359.517187 
L 137.902664 26.877187 
L 137.969136 26.877187 
L 137.969136 359.517187 
z
" clip-path="url(#pd3aa9ec1c1)" style="fill: #add8e6; stroke: #add8e6; stroke-linejoin: miter"/>
   </g>
   <g id="patch_11">
    <path d="M 143.229251 359.517187 
L 143.229251 26.877187 
L 143.295259 26.877187 
L 143.295259 359.517187 
z
" clip-path="url(#pd3aa9ec1c1)" style="fill: #add8e6; stroke: #add8e6; stroke-linejoin: miter"/>
   </g>
   <g id="patch_12">
    <path d="M 147.89019 359.517187 
L 147.89019 26.877187 
L 147.969212 26.877187 
L 147.969212 359.517187 
z
" clip-path="url(#pd3aa9ec1c1)" style="fill: #add8e6; stroke: #add8e6; stroke-linejoin: miter"/>
   </g>
   <g id="patch_13">
    <path d="M 153.861973 359.517187 
L 153.861973 26.877187 
L 153.914965 26.877187 
L 153.914965 359.517187 
z
" clip-path="url(#pd3aa9ec1c1)" style="fill: #add8e6; stroke: #add8e6; stroke-linejoin: miter"/>
   </g>
   <g id="patch_14">
    <path d="M 154.057206 359.517187 
L 154.057206 26.877187 
L 154.004679 26.877187 
L 154.004679 359.517187 
z
" clip-path="url(#pd3aa9ec1c1)" style="fill: #add8e6; stroke: #add8e6; stroke-linejoin: miter"/>
   </g>
   <g id="patch_15">
    <path d="M 163.341895 359.517187 
L 163.341895 26.877187 
L 162.950966 26.877187 
L 162.950966 359.517187 
z
" clip-path="url(#pd3aa9ec1c1)" style="fill: #add8e6; stroke: #add8e6; stroke-linejoin: miter"/>
   </g>
   <g id="patch_16">
    <path d="M 167.572857 359.517187 
L 167.572857 26.877187 
L 167.652345 26.877187 
L 167.652345 359.517187 
z
" clip-path="url(#pd3aa9ec1c1)" style="fill: #add8e6; stroke: #add8e6; stroke-linejoin: miter"/>
   </g>
   <g id="patch_17">
    <path d="M 169.089161 359.517187 
L 169.089161 26.877187 
L 169.20723 26.877187 
L 169.20723 359.517187 
z
" clip-path="url(#pd3aa9ec1c1)" style="fill: #add8e6; stroke: #add8e6; stroke-linejoin: miter"/>
   </g>
   <g id="patch_18">
    <path d="M 172.818098 359.517187 
L 172.818098 26.877187 
L 172.879921 26.877187 
L 172.879921 359.517187 
z
" clip-path="url(#pd3aa9ec1c1)" style="fill: #add8e6; stroke: #add8e6; stroke-linejoin: miter"/>
   </g>
   <g id="patch_19">
    <path d="M 179.369535 359.517187 
L 179.369535 26.877187 
L 178.528177 26.877187 
L 178.528177 359.517187 
z
" clip-path="url(#pd3aa9ec1c1)" style="fill: #add8e6; stroke: #add8e6; stroke-linejoin: miter"/>
   </g>
   <g id="patch_20">
    <path d="M 182.497435 359.517187 
L 182.497435 26.877187 
L 182.622477 26.877187 
L 182.622477 359.517187 
z
" clip-path="url(#pd3aa9ec1c1)" style="fill: #add8e6; stroke: #add8e6; stroke-linejoin: miter"/>
   </g>
   <g id="patch_21">
    <path d="M 182.781452 359.517187 
L 182.781452 26.877187 
L 182.734038 26.877187 
L 182.734038 359.517187 
z
" clip-path="url(#pd3aa9ec1c1)" style="fill: #add8e6; stroke: #add8e6; stroke-linejoin: miter"/>
   </g>
   <g id="patch_22">
    <path d="M 213.822454 359.517187 
L 213.822454 26.877187 
L 213.838724 26.877187 
L 213.838724 359.517187 
z
" clip-path="url(#pd3aa9ec1c1)" style="fill: #add8e6; stroke: #add8e6; stroke-linejoin: miter"/>
   </g>
   <g id="patch_23">
    <path d="M 223.032305 359.517187 
L 223.032305 26.877187 
L 222.038944 26.877187 
L 222.038944 359.517187 
z
" clip-path="url(#pd3aa9ec1c1)" style="fill: #add8e6; stroke: #add8e6; stroke-linejoin: miter"/>
   </g>
   <g id="patch_24">
    <path d="M 229.111466 359.517187 
L 229.111466 26.877187 
L 229.200715 26.877187 
L 229.200715 359.517187 
z
" clip-path="url(#pd3aa9ec1c1)" style="fill: #add8e6; stroke: #add8e6; stroke-linejoin: miter"/>
   </g>
   <g id="patch_25">
    <path d="M 229.30298 359.517187 
L 229.30298 26.877187 
L 229.409893 26.877187 
L 229.409893 359.517187 
z
" clip-path="url(#pd3aa9ec1c1)" style="fill: #add8e6; stroke: #add8e6; stroke-linejoin: miter"/>
   </g>
   <g id="patch_26">
    <path d="M 248.253061 359.517187 
L 248.253061 26.877187 
L 248.063407 26.877187 
L 248.063407 359.517187 
z
" clip-path="url(#pd3aa9ec1c1)" style="fill: #add8e6; stroke: #add8e6; stroke-linejoin: miter"/>
   </g>
   <g id="patch_27">
    <path d="M 250.388995 359.517187 
L 250.388995 26.877187 
L 250.369472 26.877187 
L 250.369472 359.517187 
z
" clip-path="url(#pd3aa9ec1c1)" style="fill: #add8e6; stroke: #add8e6; stroke-linejoin: miter"/>
   </g>
   <g id="patch_28">
    <path d="M 258.816057 359.517187 
L 258.816057 26.877187 
L 258.954579 26.877187 
L 258.954579 359.517187 
z
" clip-path="url(#pd3aa9ec1c1)" style="fill: #add8e6; stroke: #add8e6; stroke-linejoin: miter"/>
   </g>
   <g id="patch_29">
    <path d="M 268.777552 359.517187 
L 268.777552 26.877187 
L 268.901199 26.877187 
L 268.901199 359.517187 
z
" clip-path="url(#pd3aa9ec1c1)" style="fill: #add8e6; stroke: #add8e6; stroke-linejoin: miter"/>
   </g>
   <g id="patch_30">
    <path d="M 277.650394 359.517187 
L 277.650394 26.877187 
L 277.70571 26.877187 
L 277.70571 359.517187 
z
" clip-path="url(#pd3aa9ec1c1)" style="fill: #add8e6; stroke: #add8e6; stroke-linejoin: miter"/>
   </g>
   <g id="patch_31">
    <path d="M 277.814947 359.517187 
L 277.814947 26.877187 
L 277.945567 26.877187 
L 277.945567 359.517187 
z
" clip-path="url(#pd3aa9ec1c1)" style="fill: #add8e6; stroke: #add8e6; stroke-linejoin: miter"/>
   </g>
   <g id="patch_32">
    <path d="M 291.706653 359.517187 
L 291.706653 26.877187 
L 291.732684 26.877187 
L 291.732684 359.517187 
z
" clip-path="url(#pd3aa9ec1c1)" style="fill: #add8e6; stroke: #add8e6; stroke-linejoin: miter"/>
   </g>
   <g id="patch_33">
    <path d="M 293.636664 359.517187 
L 293.636664 26.877187 
L 293.506044 26.877187 
L 293.506044 359.517187 
z
" clip-path="url(#pd3aa9ec1c1)" style="fill: #add8e6; stroke: #add8e6; stroke-linejoin: miter"/>
   </g>
   <g id="patch_34">
    <path d="M 298.792655 359.517187 
L 298.792655 26.877187 
L 298.908865 26.877187 
L 298.908865 359.517187 
z
" clip-path="url(#pd3aa9ec1c1)" style="fill: #add8e6; stroke: #add8e6; stroke-linejoin: miter"/>
   </g>
   <g id="patch_35">
    <path d="M 306.500612 359.517187 
L 306.500612 26.877187 
L 306.583818 26.877187 
L 306.583818 359.517187 
z
" clip-path="url(#pd3aa9ec1c1)" style="fill: #add8e6; stroke: #add8e6; stroke-linejoin: miter"/>
   </g>
   <g id="patch_36">
    <path d="M 306.652149 359.517187 
L 306.652149 26.877187 
L 306.713508 26.877187 
L 306.713508 359.517187 
z
" clip-path="url(#pd3aa9ec1c1)" style="fill: #add8e6; stroke: #add8e6; stroke-linejoin: miter"/>
   </g>
   <g id="patch_37">
    <path d="M 310.556795 359.517187 
L 310.556795 26.877187 
L 310.666497 26.877187 
L 310.666497 359.517187 
z
" clip-path="url(#pd3aa9ec1c1)" style="fill: #add8e6; stroke: #add8e6; stroke-linejoin: miter"/>
   </g>
   <g id="patch_38">
    <path d="M 312.703885 359.517187 
L 312.703885 26.877187 
L 312.795458 26.877187 
L 312.795458 359.517187 
z
" clip-path="url(#pd3aa9ec1c1)" style="fill: #add8e6; stroke: #add8e6; stroke-linejoin: miter"/>
   </g>
   <g id="patch_39">
    <path d="M 319.960948 359.517187 
L 319.960948 26.877187 
L 319.00431 26.877187 
L 319.00431 359.517187 
z
" clip-path="url(#pd3aa9ec1c1)" style="fill: #add8e6; stroke: #add8e6; stroke-linejoin: miter"/>
   </g>
   <g id="patch_40">
    <path d="M 323.128824 359.517187 
L 323.128824 26.877187 
L 323.179491 26.877187 
L 323.179491 359.517187 
z
" clip-path="url(#pd3aa9ec1c1)" style="fill: #add8e6; stroke: #add8e6; stroke-linejoin: miter"/>
   </g>
   <g id="patch_41">
    <path d="M 327.293314 359.517187 
L 327.293314 26.877187 
L 327.403481 26.877187 
L 327.403481 359.517187 
z
" clip-path="url(#pd3aa9ec1c1)" style="fill: #add8e6; stroke: #add8e6; stroke-linejoin: miter"/>
   </g>
   <g id="patch_42">
    <path d="M 330.503491 359.517187 
L 330.503491 26.877187 
L 330.375195 26.877187 
L 330.375195 359.517187 
z
" clip-path="url(#pd3aa9ec1c1)" style="fill: #add8e6; stroke: #add8e6; stroke-linejoin: miter"/>
   </g>
   <g id="patch_43">
    <path d="M 333.748995 359.517187 
L 333.748995 26.877187 
L 332.995026 26.877187 
L 332.995026 359.517187 
z
" clip-path="url(#pd3aa9ec1c1)" style="fill: #add8e6; stroke: #add8e6; stroke-linejoin: miter"/>
   </g>
   <g id="patch_44">
    <path d="M 340.66719 359.517187 
L 340.66719 26.877187 
L 337.33755 26.877187 
L 337.33755 359.517187 
z
" clip-path="url(#pd3aa9ec1c1)" style="fill: #add8e6; stroke: #add8e6; stroke-linejoin: miter"/>
   </g>
   <g id="patch_45">
    <path d="M 343.649131 359.517187 
L 343.649131 26.877187 
L 343.095043 26.877187 
L 343.095043 359.517187 
z
" clip-path="url(#pd3aa9ec1c1)" style="fill: #add8e6; stroke: #add8e6; stroke-linejoin: miter"/>
   </g>
   <g id="patch_46">
    <path d="M 347.876375 359.517187 
L 347.876375 26.877187 
L 347.777364 26.877187 
L 347.777364 359.517187 
z
" clip-path="url(#pd3aa9ec1c1)" style="fill: #add8e6; stroke: #add8e6; stroke-linejoin: miter"/>
   </g>
   <g id="patch_47">
    <path d="M 349.644621 359.517187 
L 349.644621 26.877187 
L 349.645086 26.877187 
L 349.645086 359.517187 
z
" clip-path="url(#pd3aa9ec1c1)" style="fill: #add8e6; stroke: #add8e6; stroke-linejoin: miter"/>
   </g>
   <g id="patch_48">
    <path d="M 351.410079 359.517187 
L 351.410079 26.877187 
L 351.288291 26.877187 
L 351.288291 359.517187 
z
" clip-path="url(#pd3aa9ec1c1)" style="fill: #add8e6; stroke: #add8e6; stroke-linejoin: miter"/>
   </g>
   <g id="patch_49">
    <path d="M 356.992327 359.517187 
L 356.992327 26.877187 
L 357.075534 26.877187 
L 357.075534 359.517187 
z
" clip-path="url(#pd3aa9ec1c1)" style="fill: #add8e6; stroke: #add8e6; stroke-linejoin: miter"/>
   </g>
   <g id="patch_50">
    <path d="M 359.049239 359.517187 
L 359.049239 26.877187 
L 359.149179 26.877187 
L 359.149179 359.517187 
z
" clip-path="url(#pd3aa9ec1c1)" style="fill: #add8e6; stroke: #add8e6; stroke-linejoin: miter"/>
   </g>
   <g id="patch_51">
    <path d="M 363.014314 359.517187 
L 363.014314 26.877187 
L 363.005482 26.877187 
L 363.005482 359.517187 
z
" clip-path="url(#pd3aa9ec1c1)" style="fill: #add8e6; stroke: #add8e6; stroke-linejoin: miter"/>
   </g>
   <g id="patch_52">
    <path d="M 369.344023 359.517187 
L 369.344023 26.877187 
L 369.430948 26.877187 
L 369.430948 359.517187 
z
" clip-path="url(#pd3aa9ec1c1)" style="fill: #add8e6; stroke: #add8e6; stroke-linejoin: miter"/>
   </g>
   <g id="patch_53">
    <path d="M 371.699826 359.517187 
L 371.699826 26.877187 
L 371.741196 26.877187 
L 371.741196 359.517187 
z
" clip-path="url(#pd3aa9ec1c1)" style="fill: #add8e6; stroke: #add8e6; stroke-linejoin: miter"/>
   </g>
   <g id="patch_54">
    <path d="M 373.96638 359.517187 
L 373.96638 26.877187 
L 374.099323 26.877187 
L 374.099323 359.517187 
z
" clip-path="url(#pd3aa9ec1c1)" style="fill: #add8e6; stroke: #add8e6; stroke-linejoin: miter"/>
   </g>
   <g id="patch_55">
    <path d="M 375.95403 359.517187 
L 375.95403 26.877187 
L 376.052111 26.877187 
L 376.052111 359.517187 
z
" clip-path="url(#pd3aa9ec1c1)" style="fill: #add8e6; stroke: #add8e6; stroke-linejoin: miter"/>
   </g>
   <g id="patch_56">
    <path d="M 384.701366 359.517187 
L 384.701366 26.877187 
L 383.37704 26.877187 
L 383.37704 359.517187 
z
" clip-path="url(#pd3aa9ec1c1)" style="fill: #add8e6; stroke: #add8e6; stroke-linejoin: miter"/>
   </g>
   <g id="patch_57">
    <path d="M 393.075436 359.517187 
L 393.075436 26.877187 
L 390.353805 26.877187 
L 390.353805 359.517187 
z
" clip-path="url(#pd3aa9ec1c1)" style="fill: #add8e6; stroke: #add8e6; stroke-linejoin: miter"/>
   </g>
   <g id="patch_58">
    <path d="M 399.511129 359.517187 
L 399.511129 26.877187 
L 399.602237 26.877187 
L 399.602237 359.517187 
z
" clip-path="url(#pd3aa9ec1c1)" style="fill: #add8e6; stroke: #add8e6; stroke-linejoin: miter"/>
   </g>
   <g id="patch_59">
    <path d="M 399.700783 359.517187 
L 399.700783 26.877187 
L 399.787243 26.877187 
L 399.787243 359.517187 
z
" clip-path="url(#pd3aa9ec1c1)" style="fill: #add8e6; stroke: #add8e6; stroke-linejoin: miter"/>
   </g>
   <g id="patch_60">
    <path d="M 399.841629 359.517187 
L 399.841629 26.877187 
L 399.942499 26.877187 
L 399.942499 359.517187 
z
" clip-path="url(#pd3aa9ec1c1)" style="fill: #add8e6; stroke: #add8e6; stroke-linejoin: miter"/>
   </g>
   <g id="patch_61">
    <path d="M 416.61766 359.517187 
L 416.61766 26.877187 
L 416.711092 26.877187 
L 416.711092 359.517187 
z
" clip-path="url(#pd3aa9ec1c1)" style="fill: #add8e6; stroke: #add8e6; stroke-linejoin: miter"/>
   </g>
   <g id="patch_62">
    <path d="M 416.801736 359.517187 
L 416.801736 26.877187 
L 416.915622 26.877187 
L 416.915622 359.517187 
z
" clip-path="url(#pd3aa9ec1c1)" style="fill: #add8e6; stroke: #add8e6; stroke-linejoin: miter"/>
   </g>
   <g id="patch_63">
    <path d="M 426.983099 359.517187 
L 426.983099 26.877187 
L 427.120692 26.877187 
L 427.120692 359.517187 
z
" clip-path="url(#pd3aa9ec1c1)" style="fill: #add8e6; stroke: #add8e6; stroke-linejoin: miter"/>
   </g>
   <g id="patch_64">
    <path d="M 427.322897 359.517187 
L 427.322897 26.877187 
L 427.37031 26.877187 
L 427.37031 359.517187 
z
" clip-path="url(#pd3aa9ec1c1)" style="fill: #add8e6; stroke: #add8e6; stroke-linejoin: miter"/>
   </g>
   <g id="patch_65">
    <path d="M 439.716427 359.517187 
L 439.716427 26.877187 
L 439.835426 26.877187 
L 439.835426 359.517187 
z
" clip-path="url(#pd3aa9ec1c1)" style="fill: #add8e6; stroke: #add8e6; stroke-linejoin: miter"/>
   </g>
   <g id="patch_66">
    <path d="M 439.869824 359.517187 
L 439.869824 26.877187 
L 439.936761 26.877187 
L 439.936761 359.517187 
z
" clip-path="url(#pd3aa9ec1c1)" style="fill: #add8e6; stroke: #add8e6; stroke-linejoin: miter"/>
   </g>
   <g id="patch_67">
    <path d="M 455.266679 359.517187 
L 455.266679 26.877187 
L 455.341053 26.877187 
L 455.341053 359.517187 
z
" clip-path="url(#pd3aa9ec1c1)" style="fill: #add8e6; stroke: #add8e6; stroke-linejoin: miter"/>
   </g>
   <g id="patch_68">
    <path d="M 455.430302 359.517187 
L 455.430302 26.877187 
L 455.481899 26.877187 
L 455.481899 359.517187 
z
" clip-path="url(#pd3aa9ec1c1)" style="fill: #add8e6; stroke: #add8e6; stroke-linejoin: miter"/>
   </g>
   <g id="patch_69">
    <path d="M 481.478936 359.517187 
L 481.478936 26.877187 
L 481.576087 26.877187 
L 481.576087 359.517187 
z
" clip-path="url(#pd3aa9ec1c1)" style="fill: #add8e6; stroke: #add8e6; stroke-linejoin: miter"/>
   </g>
   <g id="patch_70">
    <path d="M 485.456561 359.517187 
L 485.456561 26.877187 
L 485.53326 26.877187 
L 485.53326 359.517187 
z
" clip-path="url(#pd3aa9ec1c1)" style="fill: #add8e6; stroke: #add8e6; stroke-linejoin: miter"/>
   </g>
   <g id="patch_71">
    <path d="M 494.330333 359.517187 
L 494.330333 26.877187 
L 494.459558 26.877187 
L 494.459558 359.517187 
z
" clip-path="url(#pd3aa9ec1c1)" style="fill: #add8e6; stroke: #add8e6; stroke-linejoin: miter"/>
   </g>
   <g id="patch_72">
    <path d="M 497.546088 359.517187 
L 497.546088 26.877187 
L 497.551201 26.877187 
L 497.551201 359.517187 
z
" clip-path="url(#pd3aa9ec1c1)" style="fill: #add8e6; stroke: #add8e6; stroke-linejoin: miter"/>
   </g>
   <g id="patch_73">
    <path d="M 499.945586 359.517187 
L 499.945586 26.877187 
L 500.013452 26.877187 
L 500.013452 359.517187 
z
" clip-path="url(#pd3aa9ec1c1)" style="fill: #add8e6; stroke: #add8e6; stroke-linejoin: miter"/>
   </g>
   <g id="patch_74">
    <path d="M 516.43853 359.517187 
L 516.43853 26.877187 
L 516.519411 26.877187 
L 516.519411 359.517187 
z
" clip-path="url(#pd3aa9ec1c1)" style="fill: #add8e6; stroke: #add8e6; stroke-linejoin: miter"/>
   </g>
   <g id="patch_75">
    <path d="M 517.792605 359.517187 
L 517.792605 26.877187 
L 517.815847 26.877187 
L 517.815847 359.517187 
z
" clip-path="url(#pd3aa9ec1c1)" style="fill: #add8e6; stroke: #add8e6; stroke-linejoin: miter"/>
   </g>
   <g id="patch_76">
    <path d="M 522.024032 359.517187 
L 522.024032 26.877187 
L 522.126761 26.877187 
L 522.126761 359.517187 
z
" clip-path="url(#pd3aa9ec1c1)" style="fill: #add8e6; stroke: #add8e6; stroke-linejoin: miter"/>
   </g>
   <g id="patch_77">
    <path d="M 527.545852 359.517187 
L 527.545852 26.877187 
L 527.542598 26.877187 
L 527.542598 359.517187 
z
" clip-path="url(#pd3aa9ec1c1)" style="fill: #add8e6; stroke: #add8e6; stroke-linejoin: miter"/>
   </g>
   <g id="patch_78">
    <path d="M 531.991105 359.517187 
L 531.991105 26.877187 
L 530.275385 26.877187 
L 530.275385 359.517187 
z
" clip-path="url(#pd3aa9ec1c1)" style="fill: #add8e6; stroke: #add8e6; stroke-linejoin: miter"/>
   </g>
   <g id="patch_79">
    <path d="M 536.236942 359.517187 
L 536.236942 26.877187 
L 536.254141 26.877187 
L 536.254141 359.517187 
z
" clip-path="url(#pd3aa9ec1c1)" style="fill: #add8e6; stroke: #add8e6; stroke-linejoin: miter"/>
   </g>
   <g id="patch_80">
    <path d="M 540.656164 359.517187 
L 540.656164 26.877187 
L 540.751456 26.877187 
L 540.751456 359.517187 
z
" clip-path="url(#pd3aa9ec1c1)" style="fill: #add8e6; stroke: #add8e6; stroke-linejoin: miter"/>
   </g>
   <g id="patch_81">
    <path d="M 540.986664 359.517187 
L 540.986664 26.877187 
L 540.862088 26.877187 
L 540.862088 359.517187 
z
" clip-path="url(#pd3aa9ec1c1)" style="fill: #add8e6; stroke: #add8e6; stroke-linejoin: miter"/>
   </g>
   <g id="patch_82">
    <path d="M 544.965684 359.517187 
L 544.965684 26.877187 
L 544.958247 26.877187 
L 544.958247 359.517187 
z
" clip-path="url(#pd3aa9ec1c1)" style="fill: #add8e6; stroke: #add8e6; stroke-linejoin: miter"/>
   </g>
   <g id="patch_83">
    <path d="M 547.156004 359.517187 
L 547.156004 26.877187 
L 547.247113 26.877187 
L 547.247113 359.517187 
z
" clip-path="url(#pd3aa9ec1c1)" style="fill: #add8e6; stroke: #add8e6; stroke-linejoin: miter"/>
   </g>
   <g id="patch_84">
    <path d="M 548.886134 359.517187 
L 548.886134 26.877187 
L 548.969805 26.877187 
L 548.969805 359.517187 
z
" clip-path="url(#pd3aa9ec1c1)" style="fill: #add8e6; stroke: #add8e6; stroke-linejoin: miter"/>
   </g>
   <g id="patch_85">
    <path d="M 550.389423 359.517187 
L 550.389423 26.877187 
L 550.49773 26.877187 
L 550.49773 359.517187 
z
" clip-path="url(#pd3aa9ec1c1)" style="fill: #add8e6; stroke: #add8e6; stroke-linejoin: miter"/>
   </g>
   <g id="patch_86">
    <path d="M 557.427546 359.517187 
L 557.427546 26.877187 
L 557.566068 26.877187 
L 557.566068 359.517187 
z
" clip-path="url(#pd3aa9ec1c1)" style="fill: #add8e6; stroke: #add8e6; stroke-linejoin: miter"/>
   </g>
   <g id="patch_87">
    <path d="M 559.297593 359.517187 
L 559.297593 26.877187 
L 557.742707 26.877187 
L 557.742707 359.517187 
z
" clip-path="url(#pd3aa9ec1c1)" style="fill: #add8e6; stroke: #add8e6; stroke-linejoin: miter"/>
   </g>
   <g id="patch_88">
    <path d="M 559.831228 359.517187 
L 559.831228 26.877187 
L 559.797294 26.877187 
L 559.797294 359.517187 
z
" clip-path="url(#pd3aa9ec1c1)" style="fill: #add8e6; stroke: #add8e6; stroke-linejoin: miter"/>
   </g>
   <g id="patch_89">
    <path d="M 560.0418 359.517187 
L 560.0418 26.877187 
L 559.884219 26.877187 
L 559.884219 359.517187 
z
" clip-path="url(#pd3aa9ec1c1)" style="fill: #add8e6; stroke: #add8e6; stroke-linejoin: miter"/>
   </g>
   <g id="patch_90">
    <path d="M 569.311149 359.517187 
L 569.311149 26.877187 
L 569.441304 26.877187 
L 569.441304 359.517187 
z
" clip-path="url(#pd3aa9ec1c1)" style="fill: #add8e6; stroke: #add8e6; stroke-linejoin: miter"/>
   </g>
   <g id="patch_91">
    <path d="M 569.676513 359.517187 
L 569.676513 26.877187 
L 569.773199 26.877187 
L 569.773199 359.517187 
z
" clip-path="url(#pd3aa9ec1c1)" style="fill: #add8e6; stroke: #add8e6; stroke-linejoin: miter"/>
   </g>
   <g id="patch_92">
    <path d="M 578.702287 359.517187 
L 578.702287 26.877187 
L 578.757603 26.877187 
L 578.757603 359.517187 
z
" clip-path="url(#pd3aa9ec1c1)" style="fill: #add8e6; stroke: #add8e6; stroke-linejoin: miter"/>
   </g>
   <g id="patch_93">
    <path d="M 578.882179 359.517187 
L 578.882179 26.877187 
L 578.8092 26.877187 
L 578.8092 359.517187 
z
" clip-path="url(#pd3aa9ec1c1)" style="fill: #add8e6; stroke: #add8e6; stroke-linejoin: miter"/>
   </g>
   <g id="patch_94">
    <path d="M 608.591419 359.517187 
L 608.591419 26.877187 
L 608.564458 26.877187 
L 608.564458 359.517187 
z
" clip-path="url(#pd3aa9ec1c1)" style="fill: #add8e6; stroke: #add8e6; stroke-linejoin: miter"/>
   </g>
   <g id="patch_95">
    <path d="M 623.49415 359.517187 
L 623.49415 26.877187 
L 623.584328 26.877187 
L 623.584328 359.517187 
z
" clip-path="url(#pd3aa9ec1c1)" style="fill: #add8e6; stroke: #add8e6; stroke-linejoin: miter"/>
   </g>
   <g id="patch_96">
    <path d="M 634.818087 359.517187 
L 634.818087 26.877187 
L 634.874332 26.877187 
L 634.874332 359.517187 
z
" clip-path="url(#pd3aa9ec1c1)" style="fill: #add8e6; stroke: #add8e6; stroke-linejoin: miter"/>
   </g>
   <g id="patch_97">
    <path d="M 646.101583 359.517187 
L 646.101583 26.877187 
L 646.157363 26.877187 
L 646.157363 359.517187 
z
" clip-path="url(#pd3aa9ec1c1)" style="fill: #add8e6; stroke: #add8e6; stroke-linejoin: miter"/>
   </g>
   <g id="patch_98">
    <path d="M 646.247542 359.517187 
L 646.247542 26.877187 
L 646.31169 26.877187 
L 646.31169 359.517187 
z
" clip-path="url(#pd3aa9ec1c1)" style="fill: #add8e6; stroke: #add8e6; stroke-linejoin: miter"/>
   </g>
   <g id="patch_99">
    <path d="M 670.226249 359.517187 
L 670.226249 26.877187 
L 670.325725 26.877187 
L 670.325725 359.517187 
z
" clip-path="url(#pd3aa9ec1c1)" style="fill: #add8e6; stroke: #add8e6; stroke-linejoin: miter"/>
   </g>
   <g id="patch_100">
    <path d="M 670.390802 359.517187 
L 670.390802 26.877187 
L 670.520027 26.877187 
L 670.520027 359.517187 
z
" clip-path="url(#pd3aa9ec1c1)" style="fill: #add8e6; stroke: #add8e6; stroke-linejoin: miter"/>
   </g>
   <g id="patch_101">
    <path d="M 676.894826 359.517187 
L 676.894826 26.877187 
L 676.988724 26.877187 
L 676.988724 359.517187 
z
" clip-path="url(#pd3aa9ec1c1)" style="fill: #add8e6; stroke: #add8e6; stroke-linejoin: miter"/>
   </g>
   <g id="patch_102">
    <path d="M 677.045899 359.517187 
L 677.045899 26.877187 
L 677.061239 26.877187 
L 677.061239 359.517187 
z
" clip-path="url(#pd3aa9ec1c1)" style="fill: #add8e6; stroke: #add8e6; stroke-linejoin: miter"/>
   </g>
   <g id="patch_103">
    <path d="M 681.58319 359.517187 
L 681.58319 26.877187 
L 681.700329 26.877187 
L 681.700329 359.517187 
z
" clip-path="url(#pd3aa9ec1c1)" style="fill: #add8e6; stroke: #add8e6; stroke-linejoin: miter"/>
   </g>
   <g id="patch_104">
    <path d="M 692.40882 359.517187 
L 692.40882 26.877187 
L 692.532932 26.877187 
L 692.532932 359.517187 
z
" clip-path="url(#pd3aa9ec1c1)" style="fill: #add8e6; stroke: #add8e6; stroke-linejoin: miter"/>
   </g>
   <g id="patch_105">
    <path d="M 705.442899 359.517187 
L 705.442899 26.877187 
L 704.560635 26.877187 
L 704.560635 359.517187 
z
" clip-path="url(#pd3aa9ec1c1)" style="fill: #add8e6; stroke: #add8e6; stroke-linejoin: miter"/>
   </g>
   <g id="patch_106">
    <path d="M 705.797571 359.517187 
L 705.797571 26.877187 
L 705.760848 26.877187 
L 705.760848 359.517187 
z
" clip-path="url(#pd3aa9ec1c1)" style="fill: #add8e6; stroke: #add8e6; stroke-linejoin: miter"/>
   </g>
   <g id="patch_107">
    <path d="M 707.500275 359.517187 
L 707.500275 26.877187 
L 707.224626 26.877187 
L 707.224626 359.517187 
z
" clip-path="url(#pd3aa9ec1c1)" style="fill: #add8e6; stroke: #add8e6; stroke-linejoin: miter"/>
   </g>
   <g id="patch_108">
    <path d="M 715.362093 359.517187 
L 715.362093 26.877187 
L 714.952105 26.877187 
L 714.952105 359.517187 
z
" clip-path="url(#pd3aa9ec1c1)" style="fill: #add8e6; stroke: #add8e6; stroke-linejoin: miter"/>
   </g>
   <g id="patch_109">
    <path d="M 717.858742 359.517187 
L 717.858742 26.877187 
L 717.977276 26.877187 
L 717.977276 359.517187 
z
" clip-path="url(#pd3aa9ec1c1)" style="fill: #add8e6; stroke: #add8e6; stroke-linejoin: miter"/>
   </g>
   <g id="patch_110">
    <path d="M 722.278894 359.517187 
L 722.278894 26.877187 
L 722.415091 26.877187 
L 722.415091 359.517187 
z
" clip-path="url(#pd3aa9ec1c1)" style="fill: #add8e6; stroke: #add8e6; stroke-linejoin: miter"/>
   </g>
   <g id="patch_111">
    <path d="M 724.414828 359.517187 
L 724.414828 26.877187 
L 724.529178 26.877187 
L 724.529178 359.517187 
z
" clip-path="url(#pd3aa9ec1c1)" style="fill: #add8e6; stroke: #add8e6; stroke-linejoin: miter"/>
   </g>
   <g id="patch_112">
    <path d="M 733.567503 359.517187 
L 733.567503 26.877187 
L 733.683248 26.877187 
L 733.683248 359.517187 
z
" clip-path="url(#pd3aa9ec1c1)" style="fill: #add8e6; stroke: #add8e6; stroke-linejoin: miter"/>
   </g>
   <g id="patch_113">
    <path d="M 739.421217 359.517187 
L 739.421217 26.877187 
L 739.421217 26.877187 
z
" clip-path="url(#pd3aa9ec1c1)" style="fill: #add8e6; stroke: #add8e6; stroke-linejoin: miter"/>
   </g>
   <g id="patch_114">
    <path d="M 742.204207 359.517187 
L 742.204207 26.877187 
L 741.394923 26.877187 
L 741.394923 359.517187 
z
" clip-path="url(#pd3aa9ec1c1)" style="fill: #add8e6; stroke: #add8e6; stroke-linejoin: miter"/>
   </g>
   <g id="patch_115">
    <path d="M 745.787184 359.517187 
L 745.787184 26.877187 
L 745.922452 26.877187 
L 745.922452 359.517187 
z
" clip-path="url(#pd3aa9ec1c1)" style="fill: #add8e6; stroke: #add8e6; stroke-linejoin: miter"/>
   </g>
   <g id="patch_116">
    <path d="M 747.330449 359.517187 
L 747.330449 26.877187 
L 747.409471 26.877187 
L 747.409471 359.517187 
z
" clip-path="url(#pd3aa9ec1c1)" style="fill: #add8e6; stroke: #add8e6; stroke-linejoin: miter"/>
   </g>
   <g id="patch_117">
    <path d="M 750.45463 359.517187 
L 750.45463 26.877187 
L 750.531329 26.877187 
L 750.531329 359.517187 
z
" clip-path="url(#pd3aa9ec1c1)" style="fill: #add8e6; stroke: #add8e6; stroke-linejoin: miter"/>
   </g>
   <g id="patch_118">
    <path d="M 752.981029 359.517187 
L 752.981029 26.877187 
L 753.109324 26.877187 
L 753.109324 359.517187 
z
" clip-path="url(#pd3aa9ec1c1)" style="fill: #add8e6; stroke: #add8e6; stroke-linejoin: miter"/>
   </g>
   <g id="patch_119">
    <path d="M 760.177663 359.517187 
L 760.177663 26.877187 
L 760.176268 26.877187 
L 760.176268 359.517187 
z
" clip-path="url(#pd3aa9ec1c1)" style="fill: #add8e6; stroke: #add8e6; stroke-linejoin: miter"/>
   </g>
   <g id="patch_120">
    <path d="M 764.124144 359.517187 
L 764.124144 26.877187 
L 764.165979 26.877187 
L 764.165979 359.517187 
z
" clip-path="url(#pd3aa9ec1c1)" style="fill: #add8e6; stroke: #add8e6; stroke-linejoin: miter"/>
   </g>
   <g id="patch_121">
    <path d="M 770.953555 359.517187 
L 770.953555 26.877187 
L 770.957738 26.877187 
L 770.957738 359.517187 
z
" clip-path="url(#pd3aa9ec1c1)" style="fill: #add8e6; stroke: #add8e6; stroke-linejoin: miter"/>
   </g>
   <g id="patch_122">
    <path d="M 772.139358 359.517187 
L 772.139358 26.877187 
L 772.248131 26.877187 
L 772.248131 359.517187 
z
" clip-path="url(#pd3aa9ec1c1)" style="fill: #add8e6; stroke: #add8e6; stroke-linejoin: miter"/>
   </g>
   <g id="patch_123">
    <path d="M 774.38267 359.517187 
L 774.38267 26.877187 
L 774.42497 26.877187 
L 774.42497 359.517187 
z
" clip-path="url(#pd3aa9ec1c1)" style="fill: #add8e6; stroke: #add8e6; stroke-linejoin: miter"/>
   </g>
   <g id="patch_124">
    <path d="M 775.79671 359.517187 
L 775.79671 26.877187 
L 775.865971 26.877187 
L 775.865971 359.517187 
z
" clip-path="url(#pd3aa9ec1c1)" style="fill: #add8e6; stroke: #add8e6; stroke-linejoin: miter"/>
   </g>
   <g id="patch_125">
    <path d="M 782.935703 359.517187 
L 782.935703 26.877187 
L 782.374178 26.877187 
L 782.374178 359.517187 
z
" clip-path="url(#pd3aa9ec1c1)" style="fill: #add8e6; stroke: #add8e6; stroke-linejoin: miter"/>
   </g>
   <g id="patch_126">
    <path d="M 783.961138 359.517187 
L 783.961138 26.877187 
L 784.046668 26.877187 
L 784.046668 359.517187 
z
" clip-path="url(#pd3aa9ec1c1)" style="fill: #add8e6; stroke: #add8e6; stroke-linejoin: miter"/>
   </g>
   <g id="patch_127">
    <path d="M 793.30858 359.517187 
L 793.30858 26.877187 
L 790.159762 26.877187 
L 790.159762 359.517187 
z
" clip-path="url(#pd3aa9ec1c1)" style="fill: #add8e6; stroke: #add8e6; stroke-linejoin: miter"/>
   </g>
   <g id="patch_128">
    <path d="M 824.337032 359.517187 
L 824.337032 26.877187 
L 824.383516 26.877187 
L 824.383516 359.517187 
z
" clip-path="url(#pd3aa9ec1c1)" style="fill: #add8e6; stroke: #add8e6; stroke-linejoin: miter"/>
   </g>
   <g id="patch_129">
    <path d="M 824.580608 359.517187 
L 824.580608 26.877187 
L 824.679154 26.877187 
L 824.679154 359.517187 
z
" clip-path="url(#pd3aa9ec1c1)" style="fill: #add8e6; stroke: #add8e6; stroke-linejoin: miter"/>
   </g>
   <g id="patch_130">
    <path d="M 842.499212 359.517187 
L 842.499212 26.877187 
L 842.467138 26.877187 
L 842.467138 359.517187 
z
" clip-path="url(#pd3aa9ec1c1)" style="fill: #add8e6; stroke: #add8e6; stroke-linejoin: miter"/>
   </g>
   <g id="patch_131">
    <path d="M 854.565962 359.517187 
L 854.565962 26.877187 
L 854.684031 26.877187 
L 854.684031 359.517187 
z
" clip-path="url(#pd3aa9ec1c1)" style="fill: #add8e6; stroke: #add8e6; stroke-linejoin: miter"/>
   </g>
   <g id="patch_132">
    <path d="M 854.748178 359.517187 
L 854.748178 26.877187 
L 854.851837 26.877187 
L 854.851837 359.517187 
z
" clip-path="url(#pd3aa9ec1c1)" style="fill: #add8e6; stroke: #add8e6; stroke-linejoin: miter"/>
   </g>
   <g id="patch_133">
    <path d="M 854.890884 359.517187 
L 854.890884 26.877187 
L 855.005234 26.877187 
L 855.005234 359.517187 
z
" clip-path="url(#pd3aa9ec1c1)" style="fill: #add8e6; stroke: #add8e6; stroke-linejoin: miter"/>
   </g>
   <g id="patch_134">
    <path d="M 870.370944 359.517187 
L 870.370944 26.877187 
L 870.320277 26.877187 
L 870.320277 359.517187 
z
" clip-path="url(#pd3aa9ec1c1)" style="fill: #add8e6; stroke: #add8e6; stroke-linejoin: miter"/>
   </g>
   <g id="patch_135">
    <path d="M 878.029163 359.517187 
L 878.029163 26.877187 
L 878.155599 26.877187 
L 878.155599 359.517187 
z
" clip-path="url(#pd3aa9ec1c1)" style="fill: #add8e6; stroke: #add8e6; stroke-linejoin: miter"/>
   </g>
   <g id="patch_136">
    <path d="M 878.331308 359.517187 
L 878.331308 26.877187 
L 878.39871 26.877187 
L 878.39871 359.517187 
z
" clip-path="url(#pd3aa9ec1c1)" style="fill: #add8e6; stroke: #add8e6; stroke-linejoin: miter"/>
   </g>
   <g id="patch_137">
    <path d="M 884.772114 359.517187 
L 884.772114 26.877187 
L 884.860433 26.877187 
L 884.860433 359.517187 
z
" clip-path="url(#pd3aa9ec1c1)" style="fill: #add8e6; stroke: #add8e6; stroke-linejoin: miter"/>
   </g>
   <g id="patch_138">
    <path d="M 890.828498 359.517187 
L 890.828498 26.877187 
L 890.9382 26.877187 
L 890.9382 359.517187 
z
" clip-path="url(#pd3aa9ec1c1)" style="fill: #add8e6; stroke: #add8e6; stroke-linejoin: miter"/>
   </g>
   <g id="patch_139">
    <path d="M 894.737327 359.517187 
L 894.737327 26.877187 
L 894.80101 26.877187 
L 894.80101 359.517187 
z
" clip-path="url(#pd3aa9ec1c1)" style="fill: #add8e6; stroke: #add8e6; stroke-linejoin: miter"/>
   </g>
   <g id="patch_140">
    <path d="M 894.969282 359.517187 
L 894.969282 26.877187 
L 894.962309 26.877187 
L 894.962309 359.517187 
z
" clip-path="url(#pd3aa9ec1c1)" style="fill: #add8e6; stroke: #add8e6; stroke-linejoin: miter"/>
   </g>
   <g id="patch_141">
    <path d="M 898.157146 359.517187 
L 898.157146 26.877187 
L 898.078123 26.877187 
L 898.078123 359.517187 
z
" clip-path="url(#pd3aa9ec1c1)" style="fill: #add8e6; stroke: #add8e6; stroke-linejoin: miter"/>
   </g>
   <g id="patch_142">
    <path d="M 905.19527 359.517187 
L 905.19527 26.877187 
L 904.677904 26.877187 
L 904.677904 359.517187 
z
" clip-path="url(#pd3aa9ec1c1)" style="fill: #add8e6; stroke: #add8e6; stroke-linejoin: miter"/>
   </g>
   <g id="patch_143">
    <path d="M 908.015911 359.517187 
L 908.015911 26.877187 
L 908.14932 26.877187 
L 908.14932 359.517187 
z
" clip-path="url(#pd3aa9ec1c1)" style="fill: #add8e6; stroke: #add8e6; stroke-linejoin: miter"/>
   </g>
   <g id="patch_144">
    <path d="M 908.174421 359.517187 
L 908.174421 26.877187 
L 908.256698 26.877187 
L 908.256698 359.517187 
z
" clip-path="url(#pd3aa9ec1c1)" style="fill: #add8e6; stroke: #add8e6; stroke-linejoin: miter"/>
   </g>
   <g id="patch_145">
    <path d="M 910.659449 359.517187 
L 910.659449 26.877187 
L 910.69989 26.877187 
L 910.69989 359.517187 
z
" clip-path="url(#pd3aa9ec1c1)" style="fill: #add8e6; stroke: #add8e6; stroke-linejoin: miter"/>
   </g>
   <g id="patch_146">
    <path d="M 913.403857 359.517187 
L 913.403857 26.877187 
L 913.294155 26.877187 
L 913.294155 359.517187 
z
" clip-path="url(#pd3aa9ec1c1)" style="fill: #add8e6; stroke: #add8e6; stroke-linejoin: miter"/>
   </g>
   <g id="patch_147">
    <path d="M 915.317134 359.517187 
L 915.317134 26.877187 
L 915.454726 26.877187 
L 915.454726 359.517187 
z
" clip-path="url(#pd3aa9ec1c1)" style="fill: #add8e6; stroke: #add8e6; stroke-linejoin: miter"/>
   </g>
   <g id="patch_148">
    <path d="M 934.331828 359.517187 
L 934.331828 26.877187 
L 934.409456 26.877187 
L 934.409456 359.517187 
z
" clip-path="url(#pd3aa9ec1c1)" style="fill: #add8e6; stroke: #add8e6; stroke-linejoin: miter"/>
   </g>
   <g id="patch_149">
    <path d="M 934.823162 359.517187 
L 934.823162 26.877187 
L 934.567966 26.877187 
L 934.567966 359.517187 
z
" clip-path="url(#pd3aa9ec1c1)" style="fill: #add8e6; stroke: #add8e6; stroke-linejoin: miter"/>
   </g>
   <g id="patch_150">
    <path d="M 937.989179 359.517187 
L 937.989179 26.877187 
L 938.112826 26.877187 
L 938.112826 359.517187 
z
" clip-path="url(#pd3aa9ec1c1)" style="fill: #add8e6; stroke: #add8e6; stroke-linejoin: miter"/>
   </g>
   <g id="patch_151">
    <path d="M 941.123122 359.517187 
L 941.123122 26.877187 
L 941.238402 26.877187 
L 941.238402 359.517187 
z
" clip-path="url(#pd3aa9ec1c1)" style="fill: #add8e6; stroke: #add8e6; stroke-linejoin: miter"/>
   </g>
   <g id="patch_152">
    <path d="M 950.473819 359.517187 
L 950.473819 26.877187 
L 950.35389 26.877187 
L 950.35389 359.517187 
z
" clip-path="url(#pd3aa9ec1c1)" style="fill: #add8e6; stroke: #add8e6; stroke-linejoin: miter"/>
   </g>
   <g id="patch_153">
    <path d="M 954.882349 359.517187 
L 954.882349 26.877187 
L 954.937665 26.877187 
L 954.937665 359.517187 
z
" clip-path="url(#pd3aa9ec1c1)" style="fill: #add8e6; stroke: #add8e6; stroke-linejoin: miter"/>
   </g>
   <g id="patch_154">
    <path d="M 957.30137 359.517187 
L 957.30137 26.877187 
L 957.290679 26.877187 
L 957.290679 359.517187 
z
" clip-path="url(#pd3aa9ec1c1)" style="fill: #add8e6; stroke: #add8e6; stroke-linejoin: miter"/>
   </g>
   <g id="patch_155">
    <path d="M 960.378603 359.517187 
L 960.378603 26.877187 
L 960.491559 26.877187 
L 960.491559 359.517187 
z
" clip-path="url(#pd3aa9ec1c1)" style="fill: #add8e6; stroke: #add8e6; stroke-linejoin: miter"/>
   </g>
   <g id="patch_156">
    <path d="M 962.578685 359.517187 
L 962.578685 26.877187 
L 962.531271 26.877187 
L 962.531271 359.517187 
z
" clip-path="url(#pd3aa9ec1c1)" style="fill: #add8e6; stroke: #add8e6; stroke-linejoin: miter"/>
   </g>
   <g id="patch_157">
    <path d="M 966.404772 359.517187 
L 966.404772 26.877187 
L 966.527955 26.877187 
L 966.527955 359.517187 
z
" clip-path="url(#pd3aa9ec1c1)" style="fill: #add8e6; stroke: #add8e6; stroke-linejoin: miter"/>
   </g>
   <g id="patch_158">
    <path d="M 966.573974 359.517187 
L 966.573974 26.877187 
L 966.680887 26.877187 
L 966.680887 359.517187 
z
" clip-path="url(#pd3aa9ec1c1)" style="fill: #add8e6; stroke: #add8e6; stroke-linejoin: miter"/>
   </g>
   <g id="patch_159">
    <path d="M 968.68806 359.517187 
L 968.68806 26.877187 
L 968.817286 26.877187 
L 968.817286 359.517187 
z
" clip-path="url(#pd3aa9ec1c1)" style="fill: #add8e6; stroke: #add8e6; stroke-linejoin: miter"/>
   </g>
   <g id="patch_160">
    <path d="M 971.670931 359.517187 
L 971.670931 26.877187 
L 971.739262 26.877187 
L 971.739262 359.517187 
z
" clip-path="url(#pd3aa9ec1c1)" style="fill: #add8e6; stroke: #add8e6; stroke-linejoin: miter"/>
   </g>
   <g id="patch_161">
    <path d="M 976.930116 359.517187 
L 976.930116 26.877187 
L 976.931976 26.877187 
L 976.931976 359.517187 
z
" clip-path="url(#pd3aa9ec1c1)" style="fill: #add8e6; stroke: #add8e6; stroke-linejoin: miter"/>
   </g>
   <g id="patch_162">
    <path d="M 985.087107 359.517187 
L 985.087107 26.877187 
L 984.231804 26.877187 
L 984.231804 359.517187 
z
" clip-path="url(#pd3aa9ec1c1)" style="fill: #add8e6; stroke: #add8e6; stroke-linejoin: miter"/>
   </g>
   <g id="patch_163">
    <path d="M 1006.660739 359.517187 
L 1006.660739 26.877187 
L 1006.323266 26.877187 
L 1006.323266 359.517187 
z
" clip-path="url(#pd3aa9ec1c1)" style="fill: #add8e6; stroke: #add8e6; stroke-linejoin: miter"/>
   </g>
   <g id="patch_164">
    <path d="M 1023.920202 359.517187 
L 1023.920202 26.877187 
L 1024.02572 26.877187 
L 1024.02572 359.517187 
z
" clip-path="url(#pd3aa9ec1c1)" style="fill: #add8e6; stroke: #add8e6; stroke-linejoin: miter"/>
   </g>
   <g id="patch_165">
    <path d="M 1024.107067 359.517187 
L 1024.107067 26.877187 
L 1024.120082 26.877187 
L 1024.120082 359.517187 
z
" clip-path="url(#pd3aa9ec1c1)" style="fill: #add8e6; stroke: #add8e6; stroke-linejoin: miter"/>
   </g>
   <g id="patch_166">
    <path d="M 1027.458554 359.517187 
L 1027.458554 26.877187 
L 1027.526421 26.877187 
L 1027.526421 359.517187 
z
" clip-path="url(#pd3aa9ec1c1)" style="fill: #add8e6; stroke: #add8e6; stroke-linejoin: miter"/>
   </g>
   <g id="patch_167">
    <path d="M 1042.220904 359.517187 
L 1042.220904 26.877187 
L 1042.343621 26.877187 
L 1042.343621 359.517187 
z
" clip-path="url(#pd3aa9ec1c1)" style="fill: #add8e6; stroke: #add8e6; stroke-linejoin: miter"/>
   </g>
   <g id="patch_168">
    <path d="M 1057.897126 359.517187 
L 1057.897126 26.877187 
L 1057.347222 26.877187 
L 1057.347222 359.517187 
z
" clip-path="url(#pd3aa9ec1c1)" style="fill: #add8e6; stroke: #add8e6; stroke-linejoin: miter"/>
   </g>
   <g id="patch_169">
    <path d="M 1071.140847 359.517187 
L 1071.140847 26.877187 
L 1071.221729 26.877187 
L 1071.221729 359.517187 
z
" clip-path="url(#pd3aa9ec1c1)" style="fill: #add8e6; stroke: #add8e6; stroke-linejoin: miter"/>
   </g>
   <g id="patch_170">
    <path d="M 1079.295978 359.517187 
L 1079.295978 26.877187 
L 1079.37779 26.877187 
L 1079.37779 359.517187 
z
" clip-path="url(#pd3aa9ec1c1)" style="fill: #add8e6; stroke: #add8e6; stroke-linejoin: miter"/>
   </g>
   <g id="patch_171">
    <path d="M 1091.019677 359.517187 
L 1091.019677 26.877187 
L 1091.144253 26.877187 
L 1091.144253 359.517187 
z
" clip-path="url(#pd3aa9ec1c1)" style="fill: #add8e6; stroke: #add8e6; stroke-linejoin: miter"/>
   </g>
   <g id="patch_172">
    <path d="M 1096.432259 359.517187 
L 1096.432259 26.877187 
L 1095.126062 26.877187 
L 1095.126062 359.517187 
z
" clip-path="url(#pd3aa9ec1c1)" style="fill: #add8e6; stroke: #add8e6; stroke-linejoin: miter"/>
   </g>
   <g id="patch_173">
    <path d="M 1099.47277 359.517187 
L 1099.47277 26.877187 
L 1099.511816 26.877187 
L 1099.511816 359.517187 
z
" clip-path="url(#pd3aa9ec1c1)" style="fill: #add8e6; stroke: #add8e6; stroke-linejoin: miter"/>
   </g>
   <g id="patch_174">
    <path d="M 1099.670326 359.517187 
L 1099.670326 26.877187 
L 1099.668002 26.877187 
L 1099.668002 359.517187 
z
" clip-path="url(#pd3aa9ec1c1)" style="fill: #add8e6; stroke: #add8e6; stroke-linejoin: miter"/>
   </g>
   <g id="patch_175">
    <path d="M 1102.704793 359.517187 
L 1102.704793 26.877187 
L 1102.717344 26.877187 
L 1102.717344 359.517187 
z
" clip-path="url(#pd3aa9ec1c1)" style="fill: #add8e6; stroke: #add8e6; stroke-linejoin: miter"/>
   </g>
   <g id="patch_176">
    <path d="M 1118.530694 359.517187 
L 1118.530694 26.877187 
L 1118.619943 26.877187 
L 1118.619943 359.517187 
z
" clip-path="url(#pd3aa9ec1c1)" style="fill: #add8e6; stroke: #add8e6; stroke-linejoin: miter"/>
   </g>
   <g id="patch_177">
    <path d="M 1120.783302 359.517187 
L 1120.783302 26.877187 
L 1120.870227 26.877187 
L 1120.870227 359.517187 
z
" clip-path="url(#pd3aa9ec1c1)" style="fill: #add8e6; stroke: #add8e6; stroke-linejoin: miter"/>
   </g>
   <g id="patch_178">
    <path d="M 187.206717 359.517187 
L 187.206717 26.877187 
L 287.611889 26.877187 
L 287.611889 359.517187 
z
" clip-path="url(#pd3aa9ec1c1)" style="fill: #808080; opacity: 0.4; stroke: #808080; stroke-linejoin: miter"/>
   </g>
   <g id="patch_179">
    <path d="M 290.400921 26.877187 
L 290.400921 26.877187 
L 290.400921 359.517187 
" clip-path="url(#pd3aa9ec1c1)" style="fill: #808080; opacity: 0.4; stroke: #808080; stroke-linejoin: miter"/>
   </g>
   <g id="patch_180">
    <path d="M 293.189954 26.877187 
L 293.189954 26.877187 
L 293.189954 359.517187 
" clip-path="url(#pd3aa9ec1c1)" style="fill: #808080; opacity: 0.4; stroke: #808080; stroke-linejoin: miter"/>
   </g>
   <g id="patch_181">
    <path d="M 388.017061 359.517187 
L 388.017061 26.877187 
L 488.422233 26.877187 
L 488.422233 359.517187 
z
" clip-path="url(#pd3aa9ec1c1)" style="fill: #808080; opacity: 0.4; stroke: #808080; stroke-linejoin: miter"/>
   </g>
   <g id="patch_182">
    <path d="M 491.211265 26.877187 
L 491.211265 26.877187 
L 491.211265 359.517187 
" clip-path="url(#pd3aa9ec1c1)" style="fill: #808080; opacity: 0.4; stroke: #808080; stroke-linejoin: miter"/>
   </g>
   <g id="patch_183">
    <path d="M 494.000298 26.877187 
L 494.000298 26.877187 
L 494.000298 359.517187 
" clip-path="url(#pd3aa9ec1c1)" style="fill: #808080; opacity: 0.4; stroke: #808080; stroke-linejoin: miter"/>
   </g>
   <g id="patch_184">
    <path d="M 588.827405 359.517187 
L 588.827405 26.877187 
L 689.232577 26.877187 
L 689.232577 359.517187 
z
" clip-path="url(#pd3aa9ec1c1)" style="fill: #808080; opacity: 0.4; stroke: #808080; stroke-linejoin: miter"/>
   </g>
   <g id="patch_185">
    <path d="M 692.021609 26.877187 
L 692.021609 26.877187 
L 692.021609 359.517187 
" clip-path="url(#pd3aa9ec1c1)" style="fill: #808080; opacity: 0.4; stroke: #808080; stroke-linejoin: miter"/>
   </g>
   <g id="patch_186">
    <path d="M 694.810642 26.877187 
L 694.810642 26.877187 
L 694.810642 359.517187 
" clip-path="url(#pd3aa9ec1c1)" style="fill: #808080; opacity: 0.4; stroke: #808080; stroke-linejoin: miter"/>
   </g>
   <g id="patch_187">
    <path d="M 789.637749 359.517187 
L 789.637749 26.877187 
L 890.04292 26.877187 
L 890.04292 359.517187 
z
" clip-path="url(#pd3aa9ec1c1)" style="fill: #808080; opacity: 0.4; stroke: #808080; stroke-linejoin: miter"/>
   </g>
   <g id="patch_188">
    <path d="M 892.831953 26.877187 
L 892.831953 26.877187 
L 892.831953 359.517187 
" clip-path="url(#pd3aa9ec1c1)" style="fill: #808080; opacity: 0.4; stroke: #808080; stroke-linejoin: miter"/>
   </g>
   <g id="patch_189">
    <path d="M 895.620986 26.877187 
L 895.620986 26.877187 
L 895.620986 359.517187 
" clip-path="url(#pd3aa9ec1c1)" style="fill: #808080; opacity: 0.4; stroke: #808080; stroke-linejoin: miter"/>
   </g>
   <g id="patch_190">
    <path d="M 990.448092 359.517187 
L 990.448092 26.877187 
L 1090.853264 26.877187 
L 1090.853264 359.517187 
z
" clip-path="url(#pd3aa9ec1c1)" style="fill: #808080; opacity: 0.4; stroke: #808080; stroke-linejoin: miter"/>
   </g>
   <g id="patch_191">
    <path d="M 1093.642297 26.877187 
L 1093.642297 26.877187 
L 1093.642297 359.517187 
" clip-path="url(#pd3aa9ec1c1)" style="fill: #808080; opacity: 0.4; stroke: #808080; stroke-linejoin: miter"/>
   </g>
   <g id="patch_192">
    <path d="M 1096.43133 26.877187 
L 1096.43133 26.877187 
L 1096.43133 359.517187 
" clip-path="url(#pd3aa9ec1c1)" style="fill: #808080; opacity: 0.4; stroke: #808080; stroke-linejoin: miter"/>
   </g>
   <g id="matplotlib.axis_1">
    <g id="xtick_1">
     <g id="line2d_1">
      <defs>
       <path id="m5fef26b3f6" d="M 0 0 
L 0 3.5 
" style="stroke: #000000; stroke-width: 0.8"/>
      </defs>
      <g>
       <use xlink:href="#m5fef26b3f6" x="227.224686" y="359.517187" style="stroke: #000000; stroke-width: 0.8"/>
      </g>
     </g>
     <g id="text_1">
      <!-- 2024-11-14 -->
      <g transform="translate(198.166873 374.115625) scale(0.1 -0.1)">
       <defs>
        <path id="DejaVuSans-32" d="M 1228 531 
L 3431 531 
L 3431 0 
L 469 0 
L 469 531 
Q 828 903 1448 1529 
Q 2069 2156 2228 2338 
Q 2531 2678 2651 2914 
Q 2772 3150 2772 3378 
Q 2772 3750 2511 3984 
Q 2250 4219 1831 4219 
Q 1534 4219 1204 4116 
Q 875 4013 500 3803 
L 500 4441 
Q 881 4594 1212 4672 
Q 1544 4750 1819 4750 
Q 2544 4750 2975 4387 
Q 3406 4025 3406 3419 
Q 3406 3131 3298 2873 
Q 3191 2616 2906 2266 
Q 2828 2175 2409 1742 
Q 1991 1309 1228 531 
z
" transform="scale(0.015625)"/>
        <path id="DejaVuSans-30" d="M 2034 4250 
Q 1547 4250 1301 3770 
Q 1056 3291 1056 2328 
Q 1056 1369 1301 889 
Q 1547 409 2034 409 
Q 2525 409 2770 889 
Q 3016 1369 3016 2328 
Q 3016 3291 2770 3770 
Q 2525 4250 2034 4250 
z
M 2034 4750 
Q 2819 4750 3233 4129 
Q 3647 3509 3647 2328 
Q 3647 1150 3233 529 
Q 2819 -91 2034 -91 
Q 1250 -91 836 529 
Q 422 1150 422 2328 
Q 422 3509 836 4129 
Q 1250 4750 2034 4750 
z
" transform="scale(0.015625)"/>
        <path id="DejaVuSans-34" d="M 2419 4116 
L 825 1625 
L 2419 1625 
L 2419 4116 
z
M 2253 4666 
L 3047 4666 
L 3047 1625 
L 3713 1625 
L 3713 1100 
L 3047 1100 
L 3047 0 
L 2419 0 
L 2419 1100 
L 313 1100 
L 313 1709 
L 2253 4666 
z
" transform="scale(0.015625)"/>
        <path id="DejaVuSans-2d" d="M 313 2009 
L 1997 2009 
L 1997 1497 
L 313 1497 
L 313 2009 
z
" transform="scale(0.015625)"/>
        <path id="DejaVuSans-31" d="M 794 531 
L 1825 531 
L 1825 4091 
L 703 3866 
L 703 4441 
L 1819 4666 
L 2450 4666 
L 2450 531 
L 3481 531 
L 3481 0 
L 794 0 
L 794 531 
z
" transform="scale(0.015625)"/>
       </defs>
       <use xlink:href="#DejaVuSans-32"/>
       <use xlink:href="#DejaVuSans-30" x="63.623047"/>
       <use xlink:href="#DejaVuSans-32" x="127.246094"/>
       <use xlink:href="#DejaVuSans-34" x="190.869141"/>
       <use xlink:href="#DejaVuSans-2d" x="254.492188"/>
       <use xlink:href="#DejaVuSans-31" x="290.576172"/>
       <use xlink:href="#DejaVuSans-31" x="354.199219"/>
       <use xlink:href="#DejaVuSans-2d" x="417.822266"/>
       <use xlink:href="#DejaVuSans-31" x="453.90625"/>
       <use xlink:href="#DejaVuSans-34" x="517.529297"/>
      </g>
     </g>
    </g>
    <g id="xtick_2">
     <g id="line2d_2">
      <g>
       <use xlink:href="#m5fef26b3f6" x="428.035029" y="359.517187" style="stroke: #000000; stroke-width: 0.8"/>
      </g>
     </g>
     <g id="text_2">
      <!-- 2024-11-15 -->
      <g transform="translate(398.977217 374.115625) scale(0.1 -0.1)">
       <defs>
        <path id="DejaVuSans-35" d="M 691 4666 
L 3169 4666 
L 3169 4134 
L 1269 4134 
L 1269 2991 
Q 1406 3038 1543 3061 
Q 1681 3084 1819 3084 
Q 2600 3084 3056 2656 
Q 3513 2228 3513 1497 
Q 3513 744 3044 326 
Q 2575 -91 1722 -91 
Q 1428 -91 1123 -41 
Q 819 9 494 109 
L 494 744 
Q 775 591 1075 516 
Q 1375 441 1709 441 
Q 2250 441 2565 725 
Q 2881 1009 2881 1497 
Q 2881 1984 2565 2268 
Q 2250 2553 1709 2553 
Q 1456 2553 1204 2497 
Q 953 2441 691 2322 
L 691 4666 
z
" transform="scale(0.015625)"/>
       </defs>
       <use xlink:href="#DejaVuSans-32"/>
       <use xlink:href="#DejaVuSans-30" x="63.623047"/>
       <use xlink:href="#DejaVuSans-32" x="127.246094"/>
       <use xlink:href="#DejaVuSans-34" x="190.869141"/>
       <use xlink:href="#DejaVuSans-2d" x="254.492188"/>
       <use xlink:href="#DejaVuSans-31" x="290.576172"/>
       <use xlink:href="#DejaVuSans-31" x="354.199219"/>
       <use xlink:href="#DejaVuSans-2d" x="417.822266"/>
       <use xlink:href="#DejaVuSans-31" x="453.90625"/>
       <use xlink:href="#DejaVuSans-35" x="517.529297"/>
      </g>
     </g>
    </g>
    <g id="xtick_3">
     <g id="line2d_3">
      <g>
       <use xlink:href="#m5fef26b3f6" x="628.845373" y="359.517187" style="stroke: #000000; stroke-width: 0.8"/>
      </g>
     </g>
     <g id="text_3">
      <!-- 2024-11-16 -->
      <g transform="translate(599.787561 374.115625) scale(0.1 -0.1)">
       <defs>
        <path id="DejaVuSans-36" d="M 2113 2584 
Q 1688 2584 1439 2293 
Q 1191 2003 1191 1497 
Q 1191 994 1439 701 
Q 1688 409 2113 409 
Q 2538 409 2786 701 
Q 3034 994 3034 1497 
Q 3034 2003 2786 2293 
Q 2538 2584 2113 2584 
z
M 3366 4563 
L 3366 3988 
Q 3128 4100 2886 4159 
Q 2644 4219 2406 4219 
Q 1781 4219 1451 3797 
Q 1122 3375 1075 2522 
Q 1259 2794 1537 2939 
Q 1816 3084 2150 3084 
Q 2853 3084 3261 2657 
Q 3669 2231 3669 1497 
Q 3669 778 3244 343 
Q 2819 -91 2113 -91 
Q 1303 -91 875 529 
Q 447 1150 447 2328 
Q 447 3434 972 4092 
Q 1497 4750 2381 4750 
Q 2619 4750 2861 4703 
Q 3103 4656 3366 4563 
z
" transform="scale(0.015625)"/>
       </defs>
       <use xlink:href="#DejaVuSans-32"/>
       <use xlink:href="#DejaVuSans-30" x="63.623047"/>
       <use xlink:href="#DejaVuSans-32" x="127.246094"/>
       <use xlink:href="#DejaVuSans-34" x="190.869141"/>
       <use xlink:href="#DejaVuSans-2d" x="254.492188"/>
       <use xlink:href="#DejaVuSans-31" x="290.576172"/>
       <use xlink:href="#DejaVuSans-31" x="354.199219"/>
       <use xlink:href="#DejaVuSans-2d" x="417.822266"/>
       <use xlink:href="#DejaVuSans-31" x="453.90625"/>
       <use xlink:href="#DejaVuSans-36" x="517.529297"/>
      </g>
     </g>
    </g>
    <g id="xtick_4">
     <g id="line2d_4">
      <g>
       <use xlink:href="#m5fef26b3f6" x="829.655717" y="359.517187" style="stroke: #000000; stroke-width: 0.8"/>
      </g>
     </g>
     <g id="text_4">
      <!-- 2024-11-17 -->
      <g transform="translate(800.597905 374.115625) scale(0.1 -0.1)">
       <defs>
        <path id="DejaVuSans-37" d="M 525 4666 
L 3525 4666 
L 3525 4397 
L 1831 0 
L 1172 0 
L 2766 4134 
L 525 4134 
L 525 4666 
z
" transform="scale(0.015625)"/>
       </defs>
       <use xlink:href="#DejaVuSans-32"/>
       <use xlink:href="#DejaVuSans-30" x="63.623047"/>
       <use xlink:href="#DejaVuSans-32" x="127.246094"/>
       <use xlink:href="#DejaVuSans-34" x="190.869141"/>
       <use xlink:href="#DejaVuSans-2d" x="254.492188"/>
       <use xlink:href="#DejaVuSans-31" x="290.576172"/>
       <use xlink:href="#DejaVuSans-31" x="354.199219"/>
       <use xlink:href="#DejaVuSans-2d" x="417.822266"/>
       <use xlink:href="#DejaVuSans-31" x="453.90625"/>
       <use xlink:href="#DejaVuSans-37" x="517.529297"/>
      </g>
     </g>
    </g>
    <g id="xtick_5">
     <g id="line2d_5">
      <g>
       <use xlink:href="#m5fef26b3f6" x="1030.466061" y="359.517187" style="stroke: #000000; stroke-width: 0.8"/>
      </g>
     </g>
     <g id="text_5">
      <!-- 2024-11-18 -->
      <g transform="translate(1001.408249 374.115625) scale(0.1 -0.1)">
       <defs>
        <path id="DejaVuSans-38" d="M 2034 2216 
Q 1584 2216 1326 1975 
Q 1069 1734 1069 1313 
Q 1069 891 1326 650 
Q 1584 409 2034 409 
Q 2484 409 2743 651 
Q 3003 894 3003 1313 
Q 3003 1734 2745 1975 
Q 2488 2216 2034 2216 
z
M 1403 2484 
Q 997 2584 770 2862 
Q 544 3141 544 3541 
Q 544 4100 942 4425 
Q 1341 4750 2034 4750 
Q 2731 4750 3128 4425 
Q 3525 4100 3525 3541 
Q 3525 3141 3298 2862 
Q 3072 2584 2669 2484 
Q 3125 2378 3379 2068 
Q 3634 1759 3634 1313 
Q 3634 634 3220 271 
Q 2806 -91 2034 -91 
Q 1263 -91 848 271 
Q 434 634 434 1313 
Q 434 1759 690 2068 
Q 947 2378 1403 2484 
z
M 1172 3481 
Q 1172 3119 1398 2916 
Q 1625 2713 2034 2713 
Q 2441 2713 2670 2916 
Q 2900 3119 2900 3481 
Q 2900 3844 2670 4047 
Q 2441 4250 2034 4250 
Q 1625 4250 1398 4047 
Q 1172 3844 1172 3481 
z
" transform="scale(0.015625)"/>
       </defs>
       <use xlink:href="#DejaVuSans-32"/>
       <use xlink:href="#DejaVuSans-30" x="63.623047"/>
       <use xlink:href="#DejaVuSans-32" x="127.246094"/>
       <use xlink:href="#DejaVuSans-34" x="190.869141"/>
       <use xlink:href="#DejaVuSans-2d" x="254.492188"/>
       <use xlink:href="#DejaVuSans-31" x="290.576172"/>
       <use xlink:href="#DejaVuSans-31" x="354.199219"/>
       <use xlink:href="#DejaVuSans-2d" x="417.822266"/>
       <use xlink:href="#DejaVuSans-31" x="453.90625"/>
       <use xlink:href="#DejaVuSans-38" x="517.529297"/>
      </g>
     </g>
    </g>
    <g id="text_6">
     <!-- Time -->
     <g transform="translate(598.917187 389.313437) scale(0.12 -0.12)">
      <defs>
       <path id="DejaVuSans-54" d="M -19 4666 
L 3928 4666 
L 3928 4134 
L 2272 4134 
L 2272 0 
L 1638 0 
L 1638 4134 
L -19 4134 
L -19 4666 
z
" transform="scale(0.015625)"/>
       <path id="DejaVuSans-69" d="M 603 3500 
L 1178 3500 
L 1178 0 
L 603 0 
L 603 3500 
z
M 603 4863 
L 1178 4863 
L 1178 4134 
L 603 4134 
L 603 4863 
z
" transform="scale(0.015625)"/>
       <path id="DejaVuSans-6d" d="M 3328 2828 
Q 3544 3216 3844 3400 
Q 4144 3584 4550 3584 
Q 5097 3584 5394 3201 
Q 5691 2819 5691 2113 
L 5691 0 
L 5113 0 
L 5113 2094 
Q 5113 2597 4934 2840 
Q 4756 3084 4391 3084 
Q 3944 3084 3684 2787 
Q 3425 2491 3425 1978 
L 3425 0 
L 2847 0 
L 2847 2094 
Q 2847 2600 2669 2842 
Q 2491 3084 2119 3084 
Q 1678 3084 1418 2786 
Q 1159 2488 1159 1978 
L 1159 0 
L 581 0 
L 581 3500 
L 1159 3500 
L 1159 2956 
Q 1356 3278 1631 3431 
Q 1906 3584 2284 3584 
Q 2666 3584 2933 3390 
Q 3200 3197 3328 2828 
z
" transform="scale(0.015625)"/>
       <path id="DejaVuSans-65" d="M 3597 1894 
L 3597 1613 
L 953 1613 
Q 991 1019 1311 708 
Q 1631 397 2203 397 
Q 2534 397 2845 478 
Q 3156 559 3463 722 
L 3463 178 
Q 3153 47 2828 -22 
Q 2503 -91 2169 -91 
Q 1331 -91 842 396 
Q 353 884 353 1716 
Q 353 2575 817 3079 
Q 1281 3584 2069 3584 
Q 2775 3584 3186 3129 
Q 3597 2675 3597 1894 
z
M 3022 2063 
Q 3016 2534 2758 2815 
Q 2500 3097 2075 3097 
Q 1594 3097 1305 2825 
Q 1016 2553 972 2059 
L 3022 2063 
z
" transform="scale(0.015625)"/>
      </defs>
      <use xlink:href="#DejaVuSans-54"/>
      <use xlink:href="#DejaVuSans-69" x="57.958984"/>
      <use xlink:href="#DejaVuSans-6d" x="85.742188"/>
      <use xlink:href="#DejaVuSans-65" x="183.154297"/>
     </g>
    </g>
   </g>
   <g id="matplotlib.axis_2">
    <g id="ytick_1">
     <g id="line2d_6">
      <defs>
       <path id="mbd4f740ee5" d="M 0 0 
L -3.5 0 
" style="stroke: #000000; stroke-width: 0.8"/>
      </defs>
      <g>
       <use xlink:href="#mbd4f740ee5" x="55.5975" y="344.397187" style="stroke: #000000; stroke-width: 0.8"/>
      </g>
     </g>
     <g id="text_7">
      <!-- 0 -->
      <g transform="translate(42.235 348.196406) scale(0.1 -0.1)">
       <use xlink:href="#DejaVuSans-30"/>
      </g>
     </g>
    </g>
    <g id="ytick_2">
     <g id="line2d_7">
      <g>
       <use xlink:href="#mbd4f740ee5" x="55.5975" y="289.713643" style="stroke: #000000; stroke-width: 0.8"/>
      </g>
     </g>
     <g id="text_8">
      <!-- 200 -->
      <g transform="translate(29.51 293.512862) scale(0.1 -0.1)">
       <use xlink:href="#DejaVuSans-32"/>
       <use xlink:href="#DejaVuSans-30" x="63.623047"/>
       <use xlink:href="#DejaVuSans-30" x="127.246094"/>
      </g>
     </g>
    </g>
    <g id="ytick_3">
     <g id="line2d_8">
      <g>
       <use xlink:href="#mbd4f740ee5" x="55.5975" y="235.030099" style="stroke: #000000; stroke-width: 0.8"/>
      </g>
     </g>
     <g id="text_9">
      <!-- 400 -->
      <g transform="translate(29.51 238.829318) scale(0.1 -0.1)">
       <use xlink:href="#DejaVuSans-34"/>
       <use xlink:href="#DejaVuSans-30" x="63.623047"/>
       <use xlink:href="#DejaVuSans-30" x="127.246094"/>
      </g>
     </g>
    </g>
    <g id="ytick_4">
     <g id="line2d_9">
      <g>
       <use xlink:href="#mbd4f740ee5" x="55.5975" y="180.346555" style="stroke: #000000; stroke-width: 0.8"/>
      </g>
     </g>
     <g id="text_10">
      <!-- 600 -->
      <g transform="translate(29.51 184.145773) scale(0.1 -0.1)">
       <use xlink:href="#DejaVuSans-36"/>
       <use xlink:href="#DejaVuSans-30" x="63.623047"/>
       <use xlink:href="#DejaVuSans-30" x="127.246094"/>
      </g>
     </g>
    </g>
    <g id="ytick_5">
     <g id="line2d_10">
      <g>
       <use xlink:href="#mbd4f740ee5" x="55.5975" y="125.66301" style="stroke: #000000; stroke-width: 0.8"/>
      </g>
     </g>
     <g id="text_11">
      <!-- 800 -->
      <g transform="translate(29.51 129.462229) scale(0.1 -0.1)">
       <use xlink:href="#DejaVuSans-38"/>
       <use xlink:href="#DejaVuSans-30" x="63.623047"/>
       <use xlink:href="#DejaVuSans-30" x="127.246094"/>
      </g>
     </g>
    </g>
    <g id="ytick_6">
     <g id="line2d_11">
      <g>
       <use xlink:href="#mbd4f740ee5" x="55.5975" y="70.979466" style="stroke: #000000; stroke-width: 0.8"/>
      </g>
     </g>
     <g id="text_12">
      <!-- 1000 -->
      <g transform="translate(23.1475 74.778685) scale(0.1 -0.1)">
       <use xlink:href="#DejaVuSans-31"/>
       <use xlink:href="#DejaVuSans-30" x="63.623047"/>
       <use xlink:href="#DejaVuSans-30" x="127.246094"/>
       <use xlink:href="#DejaVuSans-30" x="190.869141"/>
      </g>
     </g>
    </g>
    <g id="text_13">
     <!-- Pellet_Count -->
     <g transform="translate(16.318125 230.485312) rotate(-90) scale(0.12 -0.12)">
      <defs>
       <path id="DejaVuSans-50" d="M 1259 4147 
L 1259 2394 
L 2053 2394 
Q 2494 2394 2734 2622 
Q 2975 2850 2975 3272 
Q 2975 3691 2734 3919 
Q 2494 4147 2053 4147 
L 1259 4147 
z
M 628 4666 
L 2053 4666 
Q 2838 4666 3239 4311 
Q 3641 3956 3641 3272 
Q 3641 2581 3239 2228 
Q 2838 1875 2053 1875 
L 1259 1875 
L 1259 0 
L 628 0 
L 628 4666 
z
" transform="scale(0.015625)"/>
       <path id="DejaVuSans-6c" d="M 603 4863 
L 1178 4863 
L 1178 0 
L 603 0 
L 603 4863 
z
" transform="scale(0.015625)"/>
       <path id="DejaVuSans-74" d="M 1172 4494 
L 1172 3500 
L 2356 3500 
L 2356 3053 
L 1172 3053 
L 1172 1153 
Q 1172 725 1289 603 
Q 1406 481 1766 481 
L 2356 481 
L 2356 0 
L 1766 0 
Q 1100 0 847 248 
Q 594 497 594 1153 
L 594 3053 
L 172 3053 
L 172 3500 
L 594 3500 
L 594 4494 
L 1172 4494 
z
" transform="scale(0.015625)"/>
       <path id="DejaVuSans-5f" d="M 3263 -1063 
L 3263 -1509 
L -63 -1509 
L -63 -1063 
L 3263 -1063 
z
" transform="scale(0.015625)"/>
       <path id="DejaVuSans-43" d="M 4122 4306 
L 4122 3641 
Q 3803 3938 3442 4084 
Q 3081 4231 2675 4231 
Q 1875 4231 1450 3742 
Q 1025 3253 1025 2328 
Q 1025 1406 1450 917 
Q 1875 428 2675 428 
Q 3081 428 3442 575 
Q 3803 722 4122 1019 
L 4122 359 
Q 3791 134 3420 21 
Q 3050 -91 2638 -91 
Q 1578 -91 968 557 
Q 359 1206 359 2328 
Q 359 3453 968 4101 
Q 1578 4750 2638 4750 
Q 3056 4750 3426 4639 
Q 3797 4528 4122 4306 
z
" transform="scale(0.015625)"/>
       <path id="DejaVuSans-6f" d="M 1959 3097 
Q 1497 3097 1228 2736 
Q 959 2375 959 1747 
Q 959 1119 1226 758 
Q 1494 397 1959 397 
Q 2419 397 2687 759 
Q 2956 1122 2956 1747 
Q 2956 2369 2687 2733 
Q 2419 3097 1959 3097 
z
M 1959 3584 
Q 2709 3584 3137 3096 
Q 3566 2609 3566 1747 
Q 3566 888 3137 398 
Q 2709 -91 1959 -91 
Q 1206 -91 779 398 
Q 353 888 353 1747 
Q 353 2609 779 3096 
Q 1206 3584 1959 3584 
z
" transform="scale(0.015625)"/>
       <path id="DejaVuSans-75" d="M 544 1381 
L 544 3500 
L 1119 3500 
L 1119 1403 
Q 1119 906 1312 657 
Q 1506 409 1894 409 
Q 2359 409 2629 706 
Q 2900 1003 2900 1516 
L 2900 3500 
L 3475 3500 
L 3475 0 
L 2900 0 
L 2900 538 
Q 2691 219 2414 64 
Q 2138 -91 1772 -91 
Q 1169 -91 856 284 
Q 544 659 544 1381 
z
M 1991 3584 
L 1991 3584 
z
" transform="scale(0.015625)"/>
       <path id="DejaVuSans-6e" d="M 3513 2113 
L 3513 0 
L 2938 0 
L 2938 2094 
Q 2938 2591 2744 2837 
Q 2550 3084 2163 3084 
Q 1697 3084 1428 2787 
Q 1159 2491 1159 1978 
L 1159 0 
L 581 0 
L 581 3500 
L 1159 3500 
L 1159 2956 
Q 1366 3272 1645 3428 
Q 1925 3584 2291 3584 
Q 2894 3584 3203 3211 
Q 3513 2838 3513 2113 
z
" transform="scale(0.015625)"/>
      </defs>
      <use xlink:href="#DejaVuSans-50"/>
      <use xlink:href="#DejaVuSans-65" x="56.677734"/>
      <use xlink:href="#DejaVuSans-6c" x="118.201172"/>
      <use xlink:href="#DejaVuSans-6c" x="145.984375"/>
      <use xlink:href="#DejaVuSans-65" x="173.767578"/>
      <use xlink:href="#DejaVuSans-74" x="235.291016"/>
      <use xlink:href="#DejaVuSans-5f" x="274.5"/>
      <use xlink:href="#DejaVuSans-43" x="324.5"/>
      <use xlink:href="#DejaVuSans-6f" x="394.324219"/>
      <use xlink:href="#DejaVuSans-75" x="455.505859"/>
      <use xlink:href="#DejaVuSans-6e" x="518.884766"/>
      <use xlink:href="#DejaVuSans-74" x="582.263672"/>
     </g>
    </g>
   </g>
   <g id="line2d_12">
    <path d="M 106.324773 344.397187 
L 107.949384 344.397187 
L 107.988895 344.12377 
L 110.454865 344.12377 
L 110.54086 343.850352 
L 117.369342 343.850352 
L 117.429771 343.576934 
L 118.833584 343.576934 
L 118.940497 342.756681 
L 118.991629 342.756681 
L 119.049734 342.483263 
L 120.290853 342.483263 
L 120.409387 341.389593 
L 120.448898 341.389593 
L 120.500031 340.842757 
L 121.90152 340.842757 
L 121.941031 340.295922 
L 123.767847 340.295922 
L 123.863139 339.475669 
L 126.317488 339.475669 
L 126.398835 338.655415 
L 127.874698 338.655415 
L 127.932802 338.10858 
L 129.766591 338.10858 
L 129.875828 337.561744 
L 130.438283 337.561744 
L 130.480119 337.014909 
L 131.818854 337.014909 
L 131.914146 336.468074 
L 133.015814 336.468074 
L 133.064622 336.194656 
L 134.821713 336.194656 
L 134.912356 335.374403 
L 134.954192 335.374403 
L 135.079698 334.280732 
L 137.661878 334.280732 
L 137.775763 333.187061 
L 137.810626 333.187061 
L 137.875703 332.366808 
L 139.832675 332.366808 
L 139.837323 332.09339 
L 141.752459 332.09339 
L 141.794294 331.546555 
L 143.072601 331.546555 
L 143.151623 330.999719 
L 144.64608 330.999719 
L 144.76229 330.452884 
L 144.766938 330.452884 
L 144.820395 329.906048 
L 145.389822 329.906048 
L 145.39447 329.632631 
L 146.140537 329.632631 
L 146.145185 329.359213 
L 147.786066 329.359213 
L 147.902276 328.53896 
L 147.916221 328.53896 
L 147.918545 328.265542 
L 149.278198 328.265542 
L 149.380463 327.445289 
L 151.562881 327.445289 
L 151.567529 327.171871 
L 151.871999 327.171871 
L 151.946373 326.625036 
L 152.483262 326.625036 
L 152.485586 326.351618 
L 153.766216 326.351618 
L 153.870805 325.257947 
L 153.914965 325.257947 
L 153.919613 324.984529 
L 156.329802 324.984529 
L 156.383259 324.711112 
L 157.740588 324.711112 
L 157.773127 324.437694 
L 158.918954 324.437694 
L 159.030515 323.890858 
L 159.035164 323.890858 
L 159.107214 323.070605 
L 160.38552 323.070605 
L 160.455246 322.52377 
L 162.516806 322.52377 
L 162.616746 321.703517 
L 162.642313 321.703517 
L 162.730632 320.883263 
L 165.184981 320.883263 
L 165.233789 320.609846 
L 166.370319 320.609846 
L 166.442369 320.06301 
L 167.458042 320.06301 
L 167.567279 319.242757 
L 168.940878 319.242757 
L 169.043142 318.422504 
L 169.084978 318.422504 
L 169.122165 317.875669 
L 170.130865 317.875669 
L 170.135513 317.602251 
L 170.493439 317.602251 
L 170.495763 317.328833 
L 172.643318 317.328833 
L 172.73861 316.50858 
L 172.773473 316.50858 
L 172.847848 315.961744 
L 174.683961 315.961744 
L 174.686285 315.688327 
L 176.178417 315.688327 
L 176.231874 315.414909 
L 178.305055 315.414909 
L 178.409643 314.321238 
L 180.30851 314.321238 
L 180.366614 313.774403 
L 182.428174 313.774403 
L 182.537411 312.680732 
L 182.581571 312.680732 
L 182.648973 311.860479 
L 184.629186 311.860479 
L 184.73145 311.587061 
L 199.727149 311.587061 
L 199.731797 311.313643 
L 200.089723 311.313643 
L 200.201284 310.49339 
L 200.224526 310.49339 
L 200.331439 309.946555 
L 200.359329 309.946555 
L 200.401165 309.399719 
L 212.982026 309.399719 
L 212.988999 309.126301 
L 213.423623 309.126301 
L 213.537508 308.579466 
L 213.593289 308.579466 
L 213.711823 307.759213 
L 213.772252 307.759213 
L 213.84895 307.485795 
L 221.621054 307.485795 
L 221.730291 306.93896 
L 221.827908 306.93896 
L 221.827908 306.93896 
L 221.937145 306.118706 
L 228.261276 306.118706 
L 228.265924 305.845289 
L 229.007342 305.845289 
L 229.107283 305.298453 
L 229.158415 305.298453 
L 229.158415 305.298453 
L 229.260679 304.4782 
L 229.311812 304.4782 
L 229.381537 303.931365 
L 234.47617 303.931365 
L 234.562165 303.384529 
L 234.659782 303.384529 
L 234.762046 302.837694 
L 238.392437 302.837694 
L 238.513295 302.017441 
L 238.585345 302.017441 
L 238.638801 301.470605 
L 247.703157 301.470605 
L 247.849581 300.376934 
L 247.903038 300.376934 
L 247.903038 300.376934 
L 247.944873 299.830099 
L 250.224907 299.830099 
L 250.27604 299.283263 
L 258.62222 299.283263 
L 258.724484 298.46301 
L 258.784913 298.46301 
L 258.891826 297.642757 
L 268.253679 297.642757 
L 268.309459 297.095922 
L 268.404751 297.095922 
L 268.469829 296.549086 
L 268.665061 296.549086 
L 268.739435 296.002251 
L 277.494673 296.002251 
L 277.60391 295.181998 
L 277.627152 295.181998 
L 277.627152 295.181998 
L 277.750334 294.361744 
L 277.817736 294.361744 
L 277.868868 293.814909 
L 278.054804 293.814909 
L 278.059452 293.541491 
L 278.768331 293.541491 
L 278.77298 293.268074 
L 284.755455 293.268074 
L 284.764751 292.994656 
L 287.042461 292.994656 
L 287.049434 292.721238 
L 291.477023 292.721238 
L 291.560694 292.174403 
L 291.600205 292.174403 
L 291.655986 291.627567 
L 293.11558 291.627567 
L 293.25968 290.533896 
L 293.301515 290.533896 
L 293.38751 289.713643 
L 298.705266 289.713643 
L 298.705266 289.713643 
L 298.812179 288.89339 
L 300.729639 288.89339 
L 300.766826 288.346555 
L 301.924274 288.346555 
L 301.926598 288.073137 
L 303.144476 288.073137 
L 303.204905 287.526301 
L 305.445428 287.526301 
L 305.477966 287.252884 
L 306.421589 287.252884 
L 306.516881 286.159213 
L 306.54942 286.159213 
L 306.628442 285.33896 
L 310.495901 285.33896 
L 310.551682 284.792124 
L 312.624862 284.792124 
L 312.729451 283.971871 
L 314.804956 283.698453 
L 314.804956 283.698453 
L 314.814253 283.425036 
L 316.43654 283.425036 
L 316.473727 283.151618 
L 318.751437 283.151618 
L 318.835108 282.331365 
L 318.879268 282.331365 
L 318.90251 281.784529 
L 320.385345 281.784529 
L 320.392318 281.511112 
L 322.18892 281.511112 
L 322.214486 281.237694 
L 323.016333 281.237694 
L 323.086059 280.417441 
L 324.752506 280.417441 
L 324.850122 279.597187 
L 327.118535 279.597187 
L 327.241717 278.230099 
L 328.936054 278.230099 
L 328.940703 277.956681 
L 329.977293 277.956681 
L 330.105124 277.136428 
L 330.121393 277.136428 
L 330.128366 276.86301 
L 331.822703 276.86301 
L 331.855242 276.589593 
L 332.780271 276.589593 
L 332.88486 275.495922 
L 334.958041 275.495922 
L 335.453094 275.222504 
L 337.247371 275.222504 
L 337.270613 274.675669 
L 338.019004 274.675669 
L 338.435034 274.402251 
L 339.490218 274.402251 
L 339.543675 273.855415 
L 340.896356 273.855415 
L 340.991648 273.035162 
L 342.857975 273.035162 
L 342.950943 271.941491 
L 342.983482 271.941491 
L 343.018345 271.394656 
L 344.961371 271.394656 
L 345.042717 270.574403 
L 346.667329 270.574403 
L 346.671977 270.300985 
L 347.701595 270.300985 
L 347.727161 269.75415 
L 349.521439 269.75415 
L 349.593489 268.933896 
L 351.125133 268.933896 
L 351.153023 268.387061 
L 352.480138 268.387061 
L 352.582402 267.566808 
L 353.790983 267.566808 
L 353.904868 266.473137 
L 355.966428 266.473137 
L 355.973401 266.199719 
L 356.877512 266.199719 
L 356.977453 265.106048 
L 357.01464 265.106048 
L 357.049503 264.559213 
L 358.936748 264.559213 
L 359.039012 263.465542 
L 360.101169 263.465542 
L 360.105817 263.192124 
L 361.105221 263.192124 
L 361.109869 262.918706 
L 361.607247 262.918706 
L 361.623516 262.645289 
L 362.787937 262.645289 
L 362.920416 261.2782 
L 364.979652 261.2782 
L 364.981976 261.004782 
L 366.646099 261.004782 
L 366.759984 259.911112 
L 369.274762 259.911112 
L 369.372378 258.817441 
L 369.400268 258.817441 
L 369.46767 258.544023 
L 371.426965 258.544023 
L 371.52923 257.450352 
L 371.55712 257.450352 
L 371.647764 256.630099 
L 373.87899 256.630099 
L 373.990551 255.536428 
L 374.027738 255.536428 
L 374.032387 255.26301 
L 375.882445 255.26301 
L 375.933577 254.716175 
L 377.699964 254.716175 
L 377.802229 253.622504 
L 377.844064 253.622504 
L 379.505863 253.349086 
L 380.602883 253.349086 
L 380.633097 253.075669 
L 381.14442 253.075669 
L 381.21647 252.528833 
L 382.98983 252.528833 
L 383.106039 251.435162 
L 383.131605 251.435162 
L 383.254788 250.341491 
L 383.289651 250.341491 
L 383.291975 250.068074 
L 385.209435 250.068074 
L 385.848588 249.794656 
L 385.906693 249.794656 
L 387.86134 249.521238 
L 390.2111 249.521238 
L 390.290122 248.974403 
L 391.619561 248.974403 
L 394.015805 248.700985 
L 399.398638 248.700985 
L 399.400962 248.427567 
L 399.514847 248.427567 
L 399.610139 247.607314 
L 399.651975 247.607314 
L 399.728673 246.787061 
L 399.789102 246.787061 
L 399.900664 245.966808 
L 409.952802 245.966808 
L 410.062039 245.69339 
L 416.451248 245.69339 
L 416.562809 245.146555 
L 416.641831 245.146555 
L 416.739448 244.326301 
L 416.792904 244.326301 
L 416.848685 243.779466 
L 426.791586 243.779466 
L 426.882229 242.959213 
L 426.926389 242.959213 
L 427.019357 242.13896 
L 427.068165 242.13896 
L 427.161133 241.592124 
L 427.200644 241.592124 
L 427.200644 241.592124 
L 427.251776 241.045289 
L 428.520786 241.045289 
L 429.159939 240.771871 
L 439.516547 240.771871 
L 439.621136 240.225036 
L 439.67924 240.225036 
L 439.793126 239.404782 
L 439.830313 239.404782 
L 439.834961 239.131365 
L 447.504801 239.131365 
L 447.507125 238.857947 
L 455.056107 238.857947 
L 455.163019 238.037694 
L 455.221124 238.037694 
L 455.311768 237.217441 
L 455.367549 237.217441 
L 455.460516 236.397187 
L 465.584704 236.397187 
L 465.686969 235.576934 
L 465.752046 235.576934 
L 465.858959 235.030099 
L 476.787319 235.030099 
L 476.880286 234.483263 
L 476.973254 234.483263 
L 476.975578 234.209846 
L 477.761156 234.209846 
L 477.858772 233.936428 
L 481.342738 233.936428 
L 481.342738 233.936428 
L 481.389222 233.389593 
L 485.22879 233.389593 
L 485.338028 232.569339 
L 485.368242 232.569339 
L 485.472831 232.022504 
L 485.496073 231.749086 
L 492.266449 231.749086 
L 492.271098 231.475669 
L 494.251311 231.475669 
L 494.341954 230.655415 
L 494.372169 230.655415 
L 494.374493 230.381998 
L 497.456374 230.381998 
L 497.484264 229.835162 
L 499.864239 229.835162 
L 499.966503 228.741491 
L 501.725918 228.741491 
L 503.227347 228.468074 
L 506.313877 228.468074 
L 506.374306 227.64782 
L 508.477701 227.64782 
L 508.505591 227.374403 
L 511.057556 227.374403 
L 511.078474 227.100985 
L 512.245219 227.100985 
L 512.249867 226.827567 
L 513.318997 226.827567 
L 513.414289 226.007314 
L 513.449151 225.733896 
L 516.377636 225.733896 
L 516.400878 225.187061 
L 517.688481 225.187061 
L 517.714047 224.640225 
L 520.226501 224.640225 
L 520.228825 224.366808 
L 521.953377 224.366808 
L 522.041696 223.273137 
L 524.391456 223.273137 
L 524.423995 222.999719 
L 525.753433 222.999719 
L 525.881264 221.906048 
L 527.450095 221.906048 
L 527.475661 221.359213 
L 527.970714 221.359213 
L 527.991632 221.085795 
L 529.93001 221.085795 
L 530.018329 220.265542 
L 530.053192 220.265542 
L 530.148484 219.171871 
L 533.039781 219.171871 
L 533.102534 218.625036 
L 535.972914 218.625036 
L 536.065881 217.531365 
L 536.093772 217.531365 
L 536.135607 216.984529 
L 538.655033 216.984529 
L 538.729407 216.437694 
L 540.612004 216.437694 
L 540.70962 215.344023 
L 540.735187 215.344023 
L 540.777022 214.797187 
L 543.252288 214.797187 
L 543.366174 213.703517 
L 544.677019 213.703517 
L 544.800202 212.609846 
L 544.835064 212.609846 
L 544.839713 212.336428 
L 547.063966 212.336428 
L 547.145313 211.516175 
L 548.807112 211.516175 
L 548.897755 210.695922 
L 548.941915 210.695922 
L 548.98375 210.149086 
L 550.278326 210.149086 
L 550.422426 208.781998 
L 550.464262 208.781998 
L 550.496801 208.235162 
L 554.227132 208.235162 
L 554.227132 208.235162 
L 554.371232 207.414909 
L 554.385177 207.414909 
L 554.501386 206.594656 
L 554.517656 206.594656 
L 554.596678 205.774403 
L 557.336903 205.774403 
L 557.481003 204.680732 
L 557.513542 204.680732 
L 557.608834 203.860479 
L 557.652993 203.860479 
L 557.683208 203.587061 
L 559.57975 203.587061 
L 559.702932 202.766808 
L 559.702932 202.766808 
L 559.800548 201.946555 
L 559.84006 201.946555 
L 559.842384 201.673137 
L 565.255431 201.673137 
L 565.285646 201.126301 
L 565.394883 201.126301 
L 565.497147 200.579466 
L 565.497147 200.579466 
L 569.229803 200.579466 
L 569.304177 200.032631 
L 569.359957 200.032631 
L 569.459898 199.212377 
L 569.499409 199.212377 
L 569.499409 199.212377 
L 569.629564 198.118706 
L 569.669075 198.118706 
L 569.764367 197.571871 
L 573.515616 197.571871 
L 573.531885 197.298453 
L 574.998452 197.298453 
L 575.033314 196.751618 
L 576.506853 196.751618 
L 576.532419 196.4782 
L 578.538199 196.4782 
L 578.647436 195.384529 
L 578.682299 195.384529 
L 578.724134 194.837694 
L 581.389984 194.837694 
L 581.392309 194.564276 
L 582.310365 194.564276 
L 582.384739 194.017441 
L 583.479435 194.017441 
L 583.539864 193.744023 
L 584.125561 193.744023 
L 584.211556 193.197187 
L 585.382949 193.197187 
L 585.459648 192.376934 
L 586.747251 192.376934 
L 586.7519 192.103517 
L 587.535153 192.103517 
L 587.535153 192.103517 
L 587.560719 191.830099 
L 590.214948 191.830099 
L 590.298619 191.283263 
L 608.074053 191.283263 
L 608.187939 191.009846 
L 608.194912 191.009846 
L 608.318094 189.916175 
L 608.34366 189.916175 
L 608.457545 189.095922 
L 608.478463 189.095922 
L 608.522623 188.549086 
L 623.058131 188.549086 
L 623.181313 187.728833 
L 623.213852 187.728833 
L 623.318441 187.181998 
L 623.37887 187.181998 
L 623.474162 186.361744 
L 623.515997 186.361744 
L 623.518321 186.088327 
L 634.330471 186.088327 
L 634.46295 185.268074 
L 634.497813 185.268074 
L 634.616347 184.721238 
L 634.665155 184.721238 
L 634.720935 184.174403 
L 635.748229 184.174403 
L 639.459966 183.900985 
L 645.856148 183.900985 
L 645.921225 183.35415 
L 645.997924 183.35415 
L 646.072298 182.807314 
L 646.135051 182.807314 
L 646.234991 181.987061 
L 646.272178 181.987061 
L 646.323311 181.713643 
L 660.045351 181.713643 
L 660.045351 181.713643 
L 660.159236 180.89339 
L 660.226638 180.89339 
L 660.226638 180.89339 
L 660.333551 180.073137 
L 660.417222 180.073137 
L 660.519486 179.252884 
L 660.570619 179.252884 
L 660.642669 178.979466 
L 670.155594 178.979466 
L 670.267155 178.432631 
L 670.329908 178.432631 
L 670.383365 177.885795 
L 670.455415 177.885795 
L 670.460063 177.612377 
L 676.728414 177.612377 
L 676.816733 176.792124 
L 676.85392 176.792124 
L 676.960833 175.971871 
L 676.99802 175.971871 
L 677.002669 175.698453 
L 681.321021 175.698453 
L 681.411664 174.8782 
L 681.476742 174.8782 
L 681.548792 174.057947 
L 681.611545 174.057947 
L 681.681271 173.511112 
L 689.623041 173.511112 
L 689.630014 173.237694 
L 692.128522 173.237694 
L 692.207545 172.690858 
L 692.258677 172.690858 
L 692.358617 171.870605 
L 692.40975 171.870605 
L 692.453909 171.32377 
L 693.4905 171.32377 
L 698.224882 171.050352 
L 699.737933 171.050352 
L 699.740257 170.776934 
L 701.139421 170.776934 
L 701.141746 170.503517 
L 702.406107 170.503517 
L 702.433997 169.956681 
L 703.270707 169.956681 
L 703.307894 169.683263 
L 704.407238 169.683263 
L 704.442101 169.136428 
L 705.69949 169.136428 
L 705.72738 168.589593 
L 707.100978 168.589593 
L 707.166056 167.769339 
L 708.595435 167.769339 
L 708.600083 167.495922 
L 709.931847 167.495922 
L 709.976006 167.222504 
L 710.147997 166.949086 
L 711.317066 166.949086 
L 711.31939 166.675669 
L 712.479163 166.675669 
L 712.593048 165.30858 
L 713.894597 165.30858 
L 713.896921 165.035162 
L 714.889352 165.035162 
L 714.91027 164.488327 
L 716.267599 164.488327 
L 716.369863 163.394656 
L 717.806215 163.394656 
L 717.922425 162.300985 
L 722.243101 162.300985 
L 722.33142 161.207314 
L 722.370932 161.207314 
L 722.391849 160.660479 
L 724.379035 160.660479 
L 724.444113 159.840225 
L 726.524266 159.840225 
L 726.531239 159.566808 
L 728.564908 159.566808 
L 728.681118 158.473137 
L 731.03785 158.473137 
L 731.156384 157.379466 
L 731.161033 157.379466 
L 731.184275 157.106048 
L 733.53171 157.106048 
L 733.650244 155.73896 
L 735.226048 155.73896 
L 735.24929 155.465542 
L 737.141183 155.465542 
L 737.234151 154.371871 
L 737.262041 154.371871 
L 737.264366 154.098453 
L 739.298035 154.098453 
L 739.379382 153.2782 
L 740.415972 153.2782 
L 740.420621 153.004782 
L 741.234089 153.004782 
L 741.322408 152.184529 
L 744.167221 152.184529 
L 744.232299 151.364276 
L 745.743025 151.364276 
L 745.863883 149.997187 
L 745.896421 149.997187 
L 745.90107 149.72377 
L 747.251426 149.72377 
L 747.332773 148.630099 
L 750.16829 148.630099 
L 750.272878 147.536428 
L 750.321686 147.536428 
L 750.39606 146.716175 
L 752.920135 146.716175 
L 752.999158 145.895922 
L 757.015364 145.895922 
L 757.131574 145.349086 
L 757.171085 145.349086 
L 757.289619 144.255415 
L 757.322158 144.255415 
L 757.412802 143.70858 
L 759.73932 143.70858 
L 759.846232 142.888327 
L 759.878771 142.888327 
L 759.967091 142.068074 
L 760.018223 142.068074 
L 760.022871 141.794656 
L 763.813631 141.794656 
L 763.927517 140.974403 
L 763.957731 140.974403 
L 764.080914 139.880732 
L 766.491103 139.880732 
L 766.537586 139.607314 
L 768.873401 139.607314 
L 768.940803 139.060479 
L 770.832697 139.060479 
L 770.855938 138.513643 
L 772.078464 138.513643 
L 772.173756 137.419972 
L 772.203971 137.419972 
L 772.206295 137.146555 
L 774.312015 137.146555 
L 774.339905 136.599719 
L 775.690262 136.599719 
L 775.815768 135.232631 
L 776.998783 135.232631 
L 777.751821 134.959213 
L 777.754146 134.685795 
L 779.404323 134.685795 
L 779.504264 133.592124 
L 779.525181 133.592124 
L 779.52983 133.318706 
L 782.218922 133.318706 
L 782.272378 132.498453 
L 783.950446 132.498453 
L 784.043414 131.404782 
L 785.79818 131.404782 
L 785.888824 131.131365 
L 788.094484 130.857947 
L 789.960811 130.857947 
L 790.074697 129.764276 
L 798.448767 129.764276 
L 798.553356 128.944023 
L 798.595191 128.944023 
L 798.697456 128.397187 
L 824.091597 128.397187 
L 824.205483 127.576934 
L 824.265912 127.576934 
L 824.384446 126.756681 
L 824.435578 126.756681 
L 824.537843 125.936428 
L 824.588975 125.936428 
L 824.640107 125.66301 
L 842.299332 125.66301 
L 842.408569 124.842757 
L 854.452541 124.842757 
L 854.594317 123.749086 
L 854.631504 123.749086 
L 854.743065 122.928833 
L 854.782576 122.928833 
L 854.875544 122.10858 
L 854.935973 122.10858 
L 854.977809 121.561744 
L 870.212899 121.561744 
L 870.261707 121.014909 
L 877.95014 121.014909 
L 878.040784 120.194656 
L 878.084943 120.194656 
L 878.177911 119.374403 
L 878.215098 119.374403 
L 878.280176 118.827567 
L 884.597334 118.827567 
L 884.690302 118.007314 
L 884.748407 118.007314 
L 884.753055 117.733896 
L 888.450848 117.733896 
L 888.513601 117.187061 
L 890.784338 117.187061 
L 890.886603 116.366808 
L 894.668066 116.366808 
L 894.765682 115.546555 
L 894.793573 115.546555 
L 894.835408 114.999719 
L 897.789458 114.999719 
L 897.910316 113.906048 
L 897.938207 113.906048 
L 897.942855 113.632631 
L 900.924796 113.632631 
L 900.950362 113.359213 
L 902.516869 113.359213 
L 902.581946 112.53896 
L 903.486057 112.53896 
L 903.516272 112.265542 
L 904.597022 112.265542 
L 904.652803 111.445289 
L 906.142611 111.445289 
L 906.200716 110.898453 
L 907.971751 110.898453 
L 908.080989 109.531365 
L 908.113527 109.531365 
L 908.171632 108.711112 
L 910.619008 108.711112 
L 910.619008 108.711112 
L 910.674789 107.890858 
L 913.229078 107.890858 
L 913.25232 107.344023 
L 914.326097 107.344023 
L 914.330746 107.070605 
L 915.281341 107.070605 
L 915.399875 105.976934 
L 915.453331 105.430099 
L 918.951243 105.430099 
L 918.981457 105.156681 
L 919.411433 105.156681 
L 919.411433 104.883263 
L 919.430027 104.883263 
L 920.706009 104.883263 
L 920.808274 104.06301 
L 922.109822 104.06301 
L 922.112146 103.789593 
L 923.104577 103.789593 
L 923.125495 103.516175 
L 923.667032 103.516175 
L 923.73211 102.695922 
L 925.305589 102.695922 
L 925.384611 101.875669 
L 925.440392 101.875669 
L 925.479903 101.328833 
L 928.001654 101.328833 
L 928.120187 100.50858 
L 930.623344 100.50858 
L 930.723284 99.414909 
L 930.762796 99.414909 
L 930.788362 99.141491 
L 932.708146 99.141491 
L 932.775548 98.594656 
L 934.321136 98.594656 
L 934.404807 97.500985 
L 934.444319 97.500985 
L 934.509396 96.680732 
L 935.945748 96.680732 
L 935.955045 96.407314 
L 937.88645 96.407314 
L 937.88645 96.407314 
L 938.01428 95.040225 
L 938.051468 95.040225 
L 938.116545 94.219972 
L 941.033408 94.219972 
L 941.133349 93.126301 
L 941.177508 93.126301 
L 941.268152 92.032631 
L 945.421486 92.032631 
L 945.500509 91.485795 
L 946.832272 91.485795 
L 946.943833 90.665542 
L 946.95313 90.665542 
L 947.018207 89.845289 
L 949.969933 89.845289 
L 950.076846 88.751618 
L 950.100088 88.751618 
L 950.218622 87.657947 
L 953.683995 87.657947 
L 953.686319 87.384529 
L 954.7508 87.384529 
L 954.857713 86.290858 
L 954.897224 86.290858 
L 954.904197 86.017441 
L 957.074994 86.017441 
L 957.191203 84.92377 
L 957.221418 84.92377 
L 957.223742 84.650352 
L 960.307947 84.650352 
L 960.41486 83.556681 
L 960.442751 83.556681 
L 960.524097 82.736428 
L 962.420639 82.736428 
L 962.481069 81.916175 
L 963.664083 81.916175 
L 963.729161 81.642757 
L 966.343879 81.642757 
L 966.425225 80.822504 
L 966.467061 80.822504 
L 966.557704 80.002251 
L 966.585595 80.002251 
L 966.683211 79.181998 
L 968.600671 79.181998 
L 968.71688 78.088327 
L 968.756392 78.088327 
L 968.830766 77.541491 
L 971.424566 77.541491 
L 971.5431 76.721238 
L 971.57099 76.721238 
L 971.661634 75.900985 
L 971.698821 75.900985 
L 971.698821 75.900985 
L 971.705794 75.627567 
L 974.360023 75.627567 
L 974.360023 75.627567 
L 974.411155 75.080732 
L 976.825993 75.080732 
L 976.925933 74.260479 
L 976.974741 74.260479 
L 977.023549 73.713643 
L 979.652212 73.713643 
L 979.873011 73.440225 
L 980.516812 73.440225 
L 980.633022 72.619972 
L 980.670209 72.619972 
L 980.674858 72.346555 
L 982.91538 72.346555 
L 982.980458 71.526301 
L 984.119313 71.526301 
L 984.121637 71.252884 
L 985.179145 71.252884 
L 985.755545 70.979466 
L 985.825271 70.432631 
L 986.113471 70.432631 
L 986.115795 70.159213 
L 987.373184 70.159213 
L 987.405723 69.612377 
L 988.756079 69.612377 
L 988.760728 69.33896 
L 990.192431 69.33896 
L 990.26913 68.792124 
L 1005.843552 68.792124 
L 1005.955113 67.971871 
L 1006.006246 67.971871 
L 1006.092241 67.151618 
L 1006.131752 67.151618 
L 1006.136401 66.8782 
L 1023.830488 66.8782 
L 1023.928104 66.057947 
L 1023.981561 66.057947 
L 1024.06988 65.237694 
L 1027.379532 65.237694 
L 1027.467851 64.417441 
L 1027.525956 64.417441 
L 1027.530604 64.144023 
L 1034.003484 64.144023 
L 1034.012781 63.870605 
L 1041.587329 63.870605 
L 1041.587329 63.870605 
L 1041.729104 63.050352 
L 1041.805803 63.050352 
L 1041.922012 62.230099 
L 1042.010332 61.409846 
L 1057.052514 61.409846 
L 1057.052514 61.409846 
L 1057.175696 60.589593 
L 1057.205911 60.589593 
L 1057.245422 60.042757 
L 1070.858225 60.042757 
L 1070.974435 59.222504 
L 1071.013946 59.222504 
L 1071.116211 58.402251 
L 1071.148749 58.402251 
L 1071.153398 58.128833 
L 1079.037063 58.128833 
L 1079.130031 57.30858 
L 1079.211378 57.30858 
L 1079.292724 56.488327 
L 1079.33456 56.488327 
L 1079.388016 56.214909 
L 1090.96715 56.214909 
L 1091.085684 55.121238 
L 1091.127519 55.121238 
L 1091.218163 54.84782 
L 1094.762558 54.84782 
L 1094.855526 54.027567 
L 1094.897362 54.027567 
L 1094.939197 53.480732 
L 1098.018754 53.480732 
L 1098.025726 53.207314 
L 1099.420243 53.207314 
L 1099.541101 51.840225 
L 1101.453912 51.840225 
L 1101.458561 51.566808 
L 1102.602064 51.566808 
L 1102.602064 51.566808 
L 1102.667141 50.746555 
L 1104.621788 50.746555 
L 1104.654327 50.473137 
L 1105.277211 50.473137 
L 1105.358558 49.652884 
L 1107.289963 49.652884 
L 1107.345744 48.832631 
L 1109.258555 48.832631 
L 1109.258555 48.832631 
L 1109.358495 47.73896 
L 1111.229471 47.73896 
L 1111.338709 46.371871 
L 1113.418862 46.371871 
L 1113.507181 45.2782 
L 1115.338646 45.2782 
L 1115.422317 44.184529 
L 1117.767429 44.184529 
L 1117.769753 43.911112 
L 1118.494901 43.911112 
L 1118.553006 43.090858 
L 1119.331611 43.090858 
L 1119.333935 42.817441 
L 1120.730776 42.817441 
L 1120.781908 41.997187 
L 1120.781908 41.997187 
" clip-path="url(#pd3aa9ec1c1)" style="fill: none; stroke: #0000ff; stroke-width: 1.5; stroke-linecap: square"/>
   </g>
   <g id="patch_193">
    <path d="M 55.5975 359.517187 
L 55.5975 26.877187 
" style="fill: none; stroke: #000000; stroke-width: 0.8; stroke-linejoin: miter; stroke-linecap: square"/>
   </g>
   <g id="patch_194">
    <path d="M 1171.5975 359.517187 
L 1171.5975 26.877187 
" style="fill: none; stroke: #000000; stroke-width: 0.8; stroke-linejoin: miter; stroke-linecap: square"/>
   </g>
   <g id="patch_195">
    <path d="M 55.5975 359.517187 
L 1171.5975 359.517187 
" style="fill: none; stroke: #000000; stroke-width: 0.8; stroke-linejoin: miter; stroke-linecap: square"/>
   </g>
   <g id="patch_196">
    <path d="M 55.5975 26.877187 
L 1171.5975 26.877187 
" style="fill: none; stroke: #000000; stroke-width: 0.8; stroke-linejoin: miter; stroke-linecap: square"/>
   </g>
   <g id="text_14">
    <!-- Pellet Count and Cumulative Sum Over Time of Group 5 Mouse 1 -->
    <g transform="translate(321.823125 20.877187) scale(0.18 -0.18)">
     <defs>
      <path id="DejaVuSans-20" transform="scale(0.015625)"/>
      <path id="DejaVuSans-61" d="M 2194 1759 
Q 1497 1759 1228 1600 
Q 959 1441 959 1056 
Q 959 750 1161 570 
Q 1363 391 1709 391 
Q 2188 391 2477 730 
Q 2766 1069 2766 1631 
L 2766 1759 
L 2194 1759 
z
M 3341 1997 
L 3341 0 
L 2766 0 
L 2766 531 
Q 2569 213 2275 61 
Q 1981 -91 1556 -91 
Q 1019 -91 701 211 
Q 384 513 384 1019 
Q 384 1609 779 1909 
Q 1175 2209 1959 2209 
L 2766 2209 
L 2766 2266 
Q 2766 2663 2505 2880 
Q 2244 3097 1772 3097 
Q 1472 3097 1187 3025 
Q 903 2953 641 2809 
L 641 3341 
Q 956 3463 1253 3523 
Q 1550 3584 1831 3584 
Q 2591 3584 2966 3190 
Q 3341 2797 3341 1997 
z
" transform="scale(0.015625)"/>
      <path id="DejaVuSans-64" d="M 2906 2969 
L 2906 4863 
L 3481 4863 
L 3481 0 
L 2906 0 
L 2906 525 
Q 2725 213 2448 61 
Q 2172 -91 1784 -91 
Q 1150 -91 751 415 
Q 353 922 353 1747 
Q 353 2572 751 3078 
Q 1150 3584 1784 3584 
Q 2172 3584 2448 3432 
Q 2725 3281 2906 2969 
z
M 947 1747 
Q 947 1113 1208 752 
Q 1469 391 1925 391 
Q 2381 391 2643 752 
Q 2906 1113 2906 1747 
Q 2906 2381 2643 2742 
Q 2381 3103 1925 3103 
Q 1469 3103 1208 2742 
Q 947 2381 947 1747 
z
" transform="scale(0.015625)"/>
      <path id="DejaVuSans-76" d="M 191 3500 
L 800 3500 
L 1894 563 
L 2988 3500 
L 3597 3500 
L 2284 0 
L 1503 0 
L 191 3500 
z
" transform="scale(0.015625)"/>
      <path id="DejaVuSans-53" d="M 3425 4513 
L 3425 3897 
Q 3066 4069 2747 4153 
Q 2428 4238 2131 4238 
Q 1616 4238 1336 4038 
Q 1056 3838 1056 3469 
Q 1056 3159 1242 3001 
Q 1428 2844 1947 2747 
L 2328 2669 
Q 3034 2534 3370 2195 
Q 3706 1856 3706 1288 
Q 3706 609 3251 259 
Q 2797 -91 1919 -91 
Q 1588 -91 1214 -16 
Q 841 59 441 206 
L 441 856 
Q 825 641 1194 531 
Q 1563 422 1919 422 
Q 2459 422 2753 634 
Q 3047 847 3047 1241 
Q 3047 1584 2836 1778 
Q 2625 1972 2144 2069 
L 1759 2144 
Q 1053 2284 737 2584 
Q 422 2884 422 3419 
Q 422 4038 858 4394 
Q 1294 4750 2059 4750 
Q 2388 4750 2728 4690 
Q 3069 4631 3425 4513 
z
" transform="scale(0.015625)"/>
      <path id="DejaVuSans-4f" d="M 2522 4238 
Q 1834 4238 1429 3725 
Q 1025 3213 1025 2328 
Q 1025 1447 1429 934 
Q 1834 422 2522 422 
Q 3209 422 3611 934 
Q 4013 1447 4013 2328 
Q 4013 3213 3611 3725 
Q 3209 4238 2522 4238 
z
M 2522 4750 
Q 3503 4750 4090 4092 
Q 4678 3434 4678 2328 
Q 4678 1225 4090 567 
Q 3503 -91 2522 -91 
Q 1538 -91 948 565 
Q 359 1222 359 2328 
Q 359 3434 948 4092 
Q 1538 4750 2522 4750 
z
" transform="scale(0.015625)"/>
      <path id="DejaVuSans-72" d="M 2631 2963 
Q 2534 3019 2420 3045 
Q 2306 3072 2169 3072 
Q 1681 3072 1420 2755 
Q 1159 2438 1159 1844 
L 1159 0 
L 581 0 
L 581 3500 
L 1159 3500 
L 1159 2956 
Q 1341 3275 1631 3429 
Q 1922 3584 2338 3584 
Q 2397 3584 2469 3576 
Q 2541 3569 2628 3553 
L 2631 2963 
z
" transform="scale(0.015625)"/>
      <path id="DejaVuSans-66" d="M 2375 4863 
L 2375 4384 
L 1825 4384 
Q 1516 4384 1395 4259 
Q 1275 4134 1275 3809 
L 1275 3500 
L 2222 3500 
L 2222 3053 
L 1275 3053 
L 1275 0 
L 697 0 
L 697 3053 
L 147 3053 
L 147 3500 
L 697 3500 
L 697 3744 
Q 697 4328 969 4595 
Q 1241 4863 1831 4863 
L 2375 4863 
z
" transform="scale(0.015625)"/>
      <path id="DejaVuSans-47" d="M 3809 666 
L 3809 1919 
L 2778 1919 
L 2778 2438 
L 4434 2438 
L 4434 434 
Q 4069 175 3628 42 
Q 3188 -91 2688 -91 
Q 1594 -91 976 548 
Q 359 1188 359 2328 
Q 359 3472 976 4111 
Q 1594 4750 2688 4750 
Q 3144 4750 3555 4637 
Q 3966 4525 4313 4306 
L 4313 3634 
Q 3963 3931 3569 4081 
Q 3175 4231 2741 4231 
Q 1884 4231 1454 3753 
Q 1025 3275 1025 2328 
Q 1025 1384 1454 906 
Q 1884 428 2741 428 
Q 3075 428 3337 486 
Q 3600 544 3809 666 
z
" transform="scale(0.015625)"/>
      <path id="DejaVuSans-70" d="M 1159 525 
L 1159 -1331 
L 581 -1331 
L 581 3500 
L 1159 3500 
L 1159 2969 
Q 1341 3281 1617 3432 
Q 1894 3584 2278 3584 
Q 2916 3584 3314 3078 
Q 3713 2572 3713 1747 
Q 3713 922 3314 415 
Q 2916 -91 2278 -91 
Q 1894 -91 1617 61 
Q 1341 213 1159 525 
z
M 3116 1747 
Q 3116 2381 2855 2742 
Q 2594 3103 2138 3103 
Q 1681 3103 1420 2742 
Q 1159 2381 1159 1747 
Q 1159 1113 1420 752 
Q 1681 391 2138 391 
Q 2594 391 2855 752 
Q 3116 1113 3116 1747 
z
" transform="scale(0.015625)"/>
      <path id="DejaVuSans-4d" d="M 628 4666 
L 1569 4666 
L 2759 1491 
L 3956 4666 
L 4897 4666 
L 4897 0 
L 4281 0 
L 4281 4097 
L 3078 897 
L 2444 897 
L 1241 4097 
L 1241 0 
L 628 0 
L 628 4666 
z
" transform="scale(0.015625)"/>
      <path id="DejaVuSans-73" d="M 2834 3397 
L 2834 2853 
Q 2591 2978 2328 3040 
Q 2066 3103 1784 3103 
Q 1356 3103 1142 2972 
Q 928 2841 928 2578 
Q 928 2378 1081 2264 
Q 1234 2150 1697 2047 
L 1894 2003 
Q 2506 1872 2764 1633 
Q 3022 1394 3022 966 
Q 3022 478 2636 193 
Q 2250 -91 1575 -91 
Q 1294 -91 989 -36 
Q 684 19 347 128 
L 347 722 
Q 666 556 975 473 
Q 1284 391 1588 391 
Q 1994 391 2212 530 
Q 2431 669 2431 922 
Q 2431 1156 2273 1281 
Q 2116 1406 1581 1522 
L 1381 1569 
Q 847 1681 609 1914 
Q 372 2147 372 2553 
Q 372 3047 722 3315 
Q 1072 3584 1716 3584 
Q 2034 3584 2315 3537 
Q 2597 3491 2834 3397 
z
" transform="scale(0.015625)"/>
     </defs>
     <use xlink:href="#DejaVuSans-50"/>
     <use xlink:href="#DejaVuSans-65" x="56.677734"/>
     <use xlink:href="#DejaVuSans-6c" x="118.201172"/>
     <use xlink:href="#DejaVuSans-6c" x="145.984375"/>
     <use xlink:href="#DejaVuSans-65" x="173.767578"/>
     <use xlink:href="#DejaVuSans-74" x="235.291016"/>
     <use xlink:href="#DejaVuSans-20" x="274.5"/>
     <use xlink:href="#DejaVuSans-43" x="306.287109"/>
     <use xlink:href="#DejaVuSans-6f" x="376.111328"/>
     <use xlink:href="#DejaVuSans-75" x="437.292969"/>
     <use xlink:href="#DejaVuSans-6e" x="500.671875"/>
     <use xlink:href="#DejaVuSans-74" x="564.050781"/>
     <use xlink:href="#DejaVuSans-20" x="603.259766"/>
     <use xlink:href="#DejaVuSans-61" x="635.046875"/>
     <use xlink:href="#DejaVuSans-6e" x="696.326172"/>
     <use xlink:href="#DejaVuSans-64" x="759.705078"/>
     <use xlink:href="#DejaVuSans-20" x="823.181641"/>
     <use xlink:href="#DejaVuSans-43" x="854.96875"/>
     <use xlink:href="#DejaVuSans-75" x="924.792969"/>
     <use xlink:href="#DejaVuSans-6d" x="988.171875"/>
     <use xlink:href="#DejaVuSans-75" x="1085.583984"/>
     <use xlink:href="#DejaVuSans-6c" x="1148.962891"/>
     <use xlink:href="#DejaVuSans-61" x="1176.746094"/>
     <use xlink:href="#DejaVuSans-74" x="1238.025391"/>
     <use xlink:href="#DejaVuSans-69" x="1277.234375"/>
     <use xlink:href="#DejaVuSans-76" x="1305.017578"/>
     <use xlink:href="#DejaVuSans-65" x="1364.197266"/>
     <use xlink:href="#DejaVuSans-20" x="1425.720703"/>
     <use xlink:href="#DejaVuSans-53" x="1457.507812"/>
     <use xlink:href="#DejaVuSans-75" x="1520.984375"/>
     <use xlink:href="#DejaVuSans-6d" x="1584.363281"/>
     <use xlink:href="#DejaVuSans-20" x="1681.775391"/>
     <use xlink:href="#DejaVuSans-4f" x="1713.5625"/>
     <use xlink:href="#DejaVuSans-76" x="1792.273438"/>
     <use xlink:href="#DejaVuSans-65" x="1851.453125"/>
     <use xlink:href="#DejaVuSans-72" x="1912.976562"/>
     <use xlink:href="#DejaVuSans-20" x="1954.089844"/>
     <use xlink:href="#DejaVuSans-54" x="1985.876953"/>
     <use xlink:href="#DejaVuSans-69" x="2043.835938"/>
     <use xlink:href="#DejaVuSans-6d" x="2071.619141"/>
     <use xlink:href="#DejaVuSans-65" x="2169.03125"/>
     <use xlink:href="#DejaVuSans-20" x="2230.554688"/>
     <use xlink:href="#DejaVuSans-6f" x="2262.341797"/>
     <use xlink:href="#DejaVuSans-66" x="2323.523438"/>
     <use xlink:href="#DejaVuSans-20" x="2358.728516"/>
     <use xlink:href="#DejaVuSans-47" x="2390.515625"/>
     <use xlink:href="#DejaVuSans-72" x="2468.005859"/>
     <use xlink:href="#DejaVuSans-6f" x="2506.869141"/>
     <use xlink:href="#DejaVuSans-75" x="2568.050781"/>
     <use xlink:href="#DejaVuSans-70" x="2631.429688"/>
     <use xlink:href="#DejaVuSans-20" x="2694.90625"/>
     <use xlink:href="#DejaVuSans-35" x="2726.693359"/>
     <use xlink:href="#DejaVuSans-20" x="2790.316406"/>
     <use xlink:href="#DejaVuSans-4d" x="2822.103516"/>
     <use xlink:href="#DejaVuSans-6f" x="2908.382812"/>
     <use xlink:href="#DejaVuSans-75" x="2969.564453"/>
     <use xlink:href="#DejaVuSans-73" x="3032.943359"/>
     <use xlink:href="#DejaVuSans-65" x="3085.042969"/>
     <use xlink:href="#DejaVuSans-20" x="3146.566406"/>
     <use xlink:href="#DejaVuSans-31" x="3178.353516"/>
    </g>
   </g>
   <g id="legend_1">
    <g id="patch_197">
     <path d="M 1092.913125 64.233437 
L 1164.5975 64.233437 
Q 1166.5975 64.233437 1166.5975 62.233437 
L 1166.5975 33.877187 
Q 1166.5975 31.877187 1164.5975 31.877187 
L 1092.913125 31.877187 
Q 1090.913125 31.877187 1090.913125 33.877187 
L 1090.913125 62.233437 
Q 1090.913125 64.233437 1092.913125 64.233437 
z
" style="fill: #ffffff; opacity: 0.8; stroke: #cccccc; stroke-linejoin: miter"/>
    </g>
    <g id="patch_198">
     <path d="M 1094.913125 43.475625 
L 1114.913125 43.475625 
L 1114.913125 36.475625 
L 1094.913125 36.475625 
z
" style="fill: #add8e6; opacity: 0.9; stroke: #add8e6; stroke-linejoin: miter"/>
    </g>
    <g id="text_15">
     <!-- Meal -->
     <g transform="translate(1122.913125 43.475625) scale(0.1 -0.1)">
      <use xlink:href="#DejaVuSans-4d"/>
      <use xlink:href="#DejaVuSans-65" x="86.279297"/>
      <use xlink:href="#DejaVuSans-61" x="147.802734"/>
      <use xlink:href="#DejaVuSans-6c" x="209.082031"/>
     </g>
    </g>
    <g id="patch_199">
     <path d="M 1094.913125 58.15375 
L 1114.913125 58.15375 
L 1114.913125 51.15375 
L 1094.913125 51.15375 
z
" style="fill: #808080; opacity: 0.5; stroke: #808080; stroke-linejoin: miter"/>
    </g>
    <g id="text_16">
     <!-- Inactive -->
     <g transform="translate(1122.913125 58.15375) scale(0.1 -0.1)">
      <defs>
       <path id="DejaVuSans-49" d="M 628 4666 
L 1259 4666 
L 1259 0 
L 628 0 
L 628 4666 
z
" transform="scale(0.015625)"/>
       <path id="DejaVuSans-63" d="M 3122 3366 
L 3122 2828 
Q 2878 2963 2633 3030 
Q 2388 3097 2138 3097 
Q 1578 3097 1268 2742 
Q 959 2388 959 1747 
Q 959 1106 1268 751 
Q 1578 397 2138 397 
Q 2388 397 2633 464 
Q 2878 531 3122 666 
L 3122 134 
Q 2881 22 2623 -34 
Q 2366 -91 2075 -91 
Q 1284 -91 818 406 
Q 353 903 353 1747 
Q 353 2603 823 3093 
Q 1294 3584 2113 3584 
Q 2378 3584 2631 3529 
Q 2884 3475 3122 3366 
z
" transform="scale(0.015625)"/>
      </defs>
      <use xlink:href="#DejaVuSans-49"/>
      <use xlink:href="#DejaVuSans-6e" x="29.492188"/>
      <use xlink:href="#DejaVuSans-61" x="92.871094"/>
      <use xlink:href="#DejaVuSans-63" x="154.150391"/>
      <use xlink:href="#DejaVuSans-74" x="209.130859"/>
      <use xlink:href="#DejaVuSans-69" x="248.339844"/>
      <use xlink:href="#DejaVuSans-76" x="276.123047"/>
      <use xlink:href="#DejaVuSans-65" x="335.302734"/>
     </g>
    </g>
   </g>
  </g>
 </g>
 <defs>
  <clipPath id="pd3aa9ec1c1">
   <rect x="55.5975" y="26.877187" width="1116" height="332.64"/>
  </clipPath>
 </defs>
</svg>
