<?xml version="1.0" encoding="utf-8" standalone="no"?>
<!DOCTYPE svg PUBLIC "-//W3C//DTD SVG 1.1//EN"
  "http://www.w3.org/Graphics/SVG/1.1/DTD/svg11.dtd">
<svg xmlns:xlink="http://www.w3.org/1999/xlink" width="1172.435pt" height="399.009062pt" viewBox="0 0 1172.435 399.009062" xmlns="http://www.w3.org/2000/svg" version="1.1">
 <metadata>
  <rdf:RDF xmlns:dc="http://purl.org/dc/elements/1.1/" xmlns:cc="http://creativecommons.org/ns#" xmlns:rdf="http://www.w3.org/1999/02/22-rdf-syntax-ns#">
   <cc:Work>
    <dc:type rdf:resource="http://purl.org/dc/dcmitype/StillImage"/>
    <dc:date>2025-04-09T09:57:52.344866</dc:date>
    <dc:format>image/svg+xml</dc:format>
    <dc:creator>
     <cc:Agent>
      <dc:title>Matplotlib v3.8.3, https://matplotlib.org/</dc:title>
     </cc:Agent>
    </dc:creator>
   </cc:Work>
  </rdf:RDF>
 </metadata>
 <defs>
  <style type="text/css">*{stroke-linejoin: round; stroke-linecap: butt}</style>
 </defs>
 <g id="figure_1">
  <g id="patch_1">
   <path d="M 0 399.009062 
L 1172.435 399.009062 
L 1172.435 0 
L 0 0 
z
" style="fill: #ffffff"/>
  </g>
  <g id="axes_1">
   <g id="patch_2">
    <path d="M 49.235 359.517187 
L 1165.235 359.517187 
L 1165.235 26.877187 
L 49.235 26.877187 
z
" style="fill: #ffffff"/>
   </g>
   <g id="patch_3">
    <path d="M 114.581115 359.517187 
L 114.581115 26.877187 
L 114.49491 26.877187 
L 114.49491 359.517187 
z
" clip-path="url(#p1f2ad0a828)" style="fill: #add8e6; stroke: #add8e6; stroke-linejoin: miter"/>
   </g>
   <g id="patch_4">
    <path d="M 121.778608 359.517187 
L 121.778608 26.877187 
L 115.517561 26.877187 
L 115.517561 359.517187 
z
" clip-path="url(#p1f2ad0a828)" style="fill: #add8e6; stroke: #add8e6; stroke-linejoin: miter"/>
   </g>
   <g id="patch_5">
    <path d="M 159.314996 359.517187 
L 159.314996 26.877187 
L 159.29553 26.877187 
L 159.29553 359.517187 
z
" clip-path="url(#p1f2ad0a828)" style="fill: #add8e6; stroke: #add8e6; stroke-linejoin: miter"/>
   </g>
   <g id="patch_6">
    <path d="M 159.830841 359.517187 
L 159.830841 26.877187 
L 159.44361 26.877187 
L 159.44361 359.517187 
z
" clip-path="url(#p1f2ad0a828)" style="fill: #add8e6; stroke: #add8e6; stroke-linejoin: miter"/>
   </g>
   <g id="patch_7">
    <path d="M 165.289617 359.517187 
L 165.289617 26.877187 
L 165.443954 26.877187 
L 165.443954 359.517187 
z
" clip-path="url(#p1f2ad0a828)" style="fill: #add8e6; stroke: #add8e6; stroke-linejoin: miter"/>
   </g>
   <g id="patch_8">
    <path d="M 165.8145 359.517187 
L 165.8145 26.877187 
L 165.984826 26.877187 
L 165.984826 359.517187 
z
" clip-path="url(#p1f2ad0a828)" style="fill: #add8e6; stroke: #add8e6; stroke-linejoin: miter"/>
   </g>
   <g id="patch_9">
    <path d="M 172.095708 359.517187 
L 172.095708 26.877187 
L 172.140201 26.877187 
L 172.140201 359.517187 
z
" clip-path="url(#p1f2ad0a828)" style="fill: #add8e6; stroke: #add8e6; stroke-linejoin: miter"/>
   </g>
   <g id="patch_10">
    <path d="M 192.144823 359.517187 
L 192.144823 26.877187 
L 192.286646 26.877187 
L 192.286646 359.517187 
z
" clip-path="url(#p1f2ad0a828)" style="fill: #add8e6; stroke: #add8e6; stroke-linejoin: miter"/>
   </g>
   <g id="patch_11">
    <path d="M 202.42209 359.517187 
L 202.42209 26.877187 
L 202.540275 26.877187 
L 202.540275 359.517187 
z
" clip-path="url(#p1f2ad0a828)" style="fill: #add8e6; stroke: #add8e6; stroke-linejoin: miter"/>
   </g>
   <g id="patch_12">
    <path d="M 202.762742 359.517187 
L 202.762742 26.877187 
L 202.805149 26.877187 
L 202.805149 359.517187 
z
" clip-path="url(#p1f2ad0a828)" style="fill: #add8e6; stroke: #add8e6; stroke-linejoin: miter"/>
   </g>
   <g id="patch_13">
    <path d="M 205.316937 359.517187 
L 205.316937 26.877187 
L 205.470578 26.877187 
L 205.470578 359.517187 
z
" clip-path="url(#p1f2ad0a828)" style="fill: #add8e6; stroke: #add8e6; stroke-linejoin: miter"/>
   </g>
   <g id="patch_14">
    <path d="M 205.663846 359.517187 
L 205.663846 26.877187 
L 205.750052 26.877187 
L 205.750052 359.517187 
z
" clip-path="url(#p1f2ad0a828)" style="fill: #add8e6; stroke: #add8e6; stroke-linejoin: miter"/>
   </g>
   <g id="patch_15">
    <path d="M 205.882142 359.517187 
L 205.882142 26.877187 
L 205.936368 26.877187 
L 205.936368 359.517187 
z
" clip-path="url(#p1f2ad0a828)" style="fill: #add8e6; stroke: #add8e6; stroke-linejoin: miter"/>
   </g>
   <g id="patch_16">
    <path d="M 211.628735 359.517187 
L 211.628735 26.877187 
L 211.744834 26.877187 
L 211.744834 359.517187 
z
" clip-path="url(#p1f2ad0a828)" style="fill: #add8e6; stroke: #add8e6; stroke-linejoin: miter"/>
   </g>
   <g id="patch_17">
    <path d="M 216.177483 359.517187 
L 216.177483 26.877187 
L 216.330429 26.877187 
L 216.330429 359.517187 
z
" clip-path="url(#p1f2ad0a828)" style="fill: #add8e6; stroke: #add8e6; stroke-linejoin: miter"/>
   </g>
   <g id="patch_18">
    <path d="M 216.476423 359.517187 
L 216.476423 26.877187 
L 216.556372 26.877187 
L 216.556372 359.517187 
z
" clip-path="url(#p1f2ad0a828)" style="fill: #add8e6; stroke: #add8e6; stroke-linejoin: miter"/>
   </g>
   <g id="patch_19">
    <path d="M 216.794828 359.517187 
L 216.794828 26.877187 
L 216.787876 26.877187 
L 216.787876 359.517187 
z
" clip-path="url(#p1f2ad0a828)" style="fill: #add8e6; stroke: #add8e6; stroke-linejoin: miter"/>
   </g>
   <g id="patch_20">
    <path d="M 234.035997 359.517187 
L 234.035997 26.877187 
L 234.22718 26.877187 
L 234.22718 359.517187 
z
" clip-path="url(#p1f2ad0a828)" style="fill: #add8e6; stroke: #add8e6; stroke-linejoin: miter"/>
   </g>
   <g id="patch_21">
    <path d="M 234.540023 359.517187 
L 234.540023 26.877187 
L 234.735377 26.877187 
L 234.735377 359.517187 
z
" clip-path="url(#p1f2ad0a828)" style="fill: #add8e6; stroke: #add8e6; stroke-linejoin: miter"/>
   </g>
   <g id="patch_22">
    <path d="M 251.697072 359.517187 
L 251.697072 26.877187 
L 251.884778 26.877187 
L 251.884778 359.517187 
z
" clip-path="url(#p1f2ad0a828)" style="fill: #add8e6; stroke: #add8e6; stroke-linejoin: miter"/>
   </g>
   <g id="patch_23">
    <path d="M 270.959212 359.517187 
L 270.959212 26.877187 
L 270.945307 26.877187 
L 270.945307 359.517187 
z
" clip-path="url(#p1f2ad0a828)" style="fill: #add8e6; stroke: #add8e6; stroke-linejoin: miter"/>
   </g>
   <g id="patch_24">
    <path d="M 271.428477 359.517187 
L 271.428477 26.877187 
L 271.607146 26.877187 
L 271.607146 359.517187 
z
" clip-path="url(#p1f2ad0a828)" style="fill: #add8e6; stroke: #add8e6; stroke-linejoin: miter"/>
   </g>
   <g id="patch_25">
    <path d="M 290.996509 359.517187 
L 290.996509 26.877187 
L 286.402571 26.877187 
L 286.402571 359.517187 
z
" clip-path="url(#p1f2ad0a828)" style="fill: #add8e6; stroke: #add8e6; stroke-linejoin: miter"/>
   </g>
   <g id="patch_26">
    <path d="M 311.631685 359.517187 
L 311.631685 26.877187 
L 311.711634 26.877187 
L 311.711634 359.517187 
z
" clip-path="url(#p1f2ad0a828)" style="fill: #add8e6; stroke: #add8e6; stroke-linejoin: miter"/>
   </g>
   <g id="patch_27">
    <path d="M 320.151464 359.517187 
L 320.151464 26.877187 
L 320.244622 26.877187 
L 320.244622 359.517187 
z
" clip-path="url(#p1f2ad0a828)" style="fill: #add8e6; stroke: #add8e6; stroke-linejoin: miter"/>
   </g>
   <g id="patch_28">
    <path d="M 320.430243 359.517187 
L 320.430243 26.877187 
L 320.597788 26.877187 
L 320.597788 359.517187 
z
" clip-path="url(#p1f2ad0a828)" style="fill: #add8e6; stroke: #add8e6; stroke-linejoin: miter"/>
   </g>
   <g id="patch_29">
    <path d="M 320.642976 359.517187 
L 320.642976 26.877187 
L 320.733354 26.877187 
L 320.733354 359.517187 
z
" clip-path="url(#p1f2ad0a828)" style="fill: #add8e6; stroke: #add8e6; stroke-linejoin: miter"/>
   </g>
   <g id="patch_30">
    <path d="M 321.060102 359.517187 
L 321.060102 26.877187 
L 321.117804 26.877187 
L 321.117804 359.517187 
z
" clip-path="url(#p1f2ad0a828)" style="fill: #add8e6; stroke: #add8e6; stroke-linejoin: miter"/>
   </g>
   <g id="patch_31">
    <path d="M 343.300514 359.517187 
L 343.300514 26.877187 
L 343.413833 26.877187 
L 343.413833 359.517187 
z
" clip-path="url(#p1f2ad0a828)" style="fill: #add8e6; stroke: #add8e6; stroke-linejoin: miter"/>
   </g>
   <g id="patch_32">
    <path d="M 343.925506 359.517187 
L 343.925506 26.877187 
L 343.881013 26.877187 
L 343.881013 359.517187 
z
" clip-path="url(#p1f2ad0a828)" style="fill: #add8e6; stroke: #add8e6; stroke-linejoin: miter"/>
   </g>
   <g id="patch_33">
    <path d="M 361.08325 359.517187 
L 361.08325 26.877187 
L 361.261919 26.877187 
L 361.261919 359.517187 
z
" clip-path="url(#p1f2ad0a828)" style="fill: #add8e6; stroke: #add8e6; stroke-linejoin: miter"/>
   </g>
   <g id="patch_34">
    <path d="M 377.994195 359.517187 
L 377.994195 26.877187 
L 378.074144 26.877187 
L 378.074144 359.517187 
z
" clip-path="url(#p1f2ad0a828)" style="fill: #add8e6; stroke: #add8e6; stroke-linejoin: miter"/>
   </g>
   <g id="patch_35">
    <path d="M 378.989038 359.517187 
L 378.989038 26.877187 
L 378.785342 26.877187 
L 378.785342 359.517187 
z
" clip-path="url(#p1f2ad0a828)" style="fill: #add8e6; stroke: #add8e6; stroke-linejoin: miter"/>
   </g>
   <g id="patch_36">
    <path d="M 386.511193 359.517187 
L 386.511193 26.877187 
L 386.657882 26.877187 
L 386.657882 359.517187 
z
" clip-path="url(#p1f2ad0a828)" style="fill: #add8e6; stroke: #add8e6; stroke-linejoin: miter"/>
   </g>
   <g id="patch_37">
    <path d="M 387.117415 359.517187 
L 387.117415 26.877187 
L 387.141747 26.877187 
L 387.141747 359.517187 
z
" clip-path="url(#p1f2ad0a828)" style="fill: #add8e6; stroke: #add8e6; stroke-linejoin: miter"/>
   </g>
   <g id="patch_38">
    <path d="M 393.842166 359.517187 
L 393.842166 26.877187 
L 393.600929 26.877187 
L 393.600929 359.517187 
z
" clip-path="url(#p1f2ad0a828)" style="fill: #add8e6; stroke: #add8e6; stroke-linejoin: miter"/>
   </g>
   <g id="patch_39">
    <path d="M 398.506319 359.517187 
L 398.506319 26.877187 
L 398.552898 26.877187 
L 398.552898 359.517187 
z
" clip-path="url(#p1f2ad0a828)" style="fill: #add8e6; stroke: #add8e6; stroke-linejoin: miter"/>
   </g>
   <g id="patch_40">
    <path d="M 402.366812 359.517187 
L 402.366812 26.877187 
L 399.535923 26.877187 
L 399.535923 359.517187 
z
" clip-path="url(#p1f2ad0a828)" style="fill: #add8e6; stroke: #add8e6; stroke-linejoin: miter"/>
   </g>
   <g id="patch_41">
    <path d="M 406.051416 359.517187 
L 406.051416 26.877187 
L 405.869967 26.877187 
L 405.869967 359.517187 
z
" clip-path="url(#p1f2ad0a828)" style="fill: #add8e6; stroke: #add8e6; stroke-linejoin: miter"/>
   </g>
   <g id="patch_42">
    <path d="M 422.189289 359.517187 
L 422.189289 26.877187 
L 418.962827 26.877187 
L 418.962827 359.517187 
z
" clip-path="url(#p1f2ad0a828)" style="fill: #add8e6; stroke: #add8e6; stroke-linejoin: miter"/>
   </g>
   <g id="patch_43">
    <path d="M 442.445577 359.517187 
L 442.445577 26.877187 
L 442.638845 26.877187 
L 442.638845 359.517187 
z
" clip-path="url(#p1f2ad0a828)" style="fill: #add8e6; stroke: #add8e6; stroke-linejoin: miter"/>
   </g>
   <g id="patch_44">
    <path d="M 442.740346 359.517187 
L 442.740346 26.877187 
L 442.88773 26.877187 
L 442.88773 359.517187 
z
" clip-path="url(#p1f2ad0a828)" style="fill: #add8e6; stroke: #add8e6; stroke-linejoin: miter"/>
   </g>
   <g id="patch_45">
    <path d="M 458.339432 359.517187 
L 458.339432 26.877187 
L 458.256007 26.877187 
L 458.256007 359.517187 
z
" clip-path="url(#p1f2ad0a828)" style="fill: #add8e6; stroke: #add8e6; stroke-linejoin: miter"/>
   </g>
   <g id="patch_46">
    <path d="M 468.469314 359.517187 
L 468.469314 26.877187 
L 468.577766 26.877187 
L 468.577766 359.517187 
z
" clip-path="url(#p1f2ad0a828)" style="fill: #add8e6; stroke: #add8e6; stroke-linejoin: miter"/>
   </g>
   <g id="patch_47">
    <path d="M 468.691085 359.517187 
L 468.691085 26.877187 
L 468.878792 26.877187 
L 468.878792 359.517187 
z
" clip-path="url(#p1f2ad0a828)" style="fill: #add8e6; stroke: #add8e6; stroke-linejoin: miter"/>
   </g>
   <g id="patch_48">
    <path d="M 483.707587 359.517187 
L 483.707587 26.877187 
L 483.604696 26.877187 
L 483.604696 359.517187 
z
" clip-path="url(#p1f2ad0a828)" style="fill: #add8e6; stroke: #add8e6; stroke-linejoin: miter"/>
   </g>
   <g id="patch_49">
    <path d="M 483.950215 359.517187 
L 483.950215 26.877187 
L 484.038506 26.877187 
L 484.038506 359.517187 
z
" clip-path="url(#p1f2ad0a828)" style="fill: #add8e6; stroke: #add8e6; stroke-linejoin: miter"/>
   </g>
   <g id="patch_50">
    <path d="M 484.614139 359.517187 
L 484.614139 26.877187 
L 484.664889 26.877187 
L 484.664889 359.517187 
z
" clip-path="url(#p1f2ad0a828)" style="fill: #add8e6; stroke: #add8e6; stroke-linejoin: miter"/>
   </g>
   <g id="patch_51">
    <path d="M 496.165027 359.517187 
L 496.165027 26.877187 
L 496.271394 26.877187 
L 496.271394 359.517187 
z
" clip-path="url(#p1f2ad0a828)" style="fill: #add8e6; stroke: #add8e6; stroke-linejoin: miter"/>
   </g>
   <g id="patch_52">
    <path d="M 496.397922 359.517187 
L 496.397922 26.877187 
L 496.540439 26.877187 
L 496.540439 359.517187 
z
" clip-path="url(#p1f2ad0a828)" style="fill: #add8e6; stroke: #add8e6; stroke-linejoin: miter"/>
   </g>
   <g id="patch_53">
    <path d="M 503.771302 359.517187 
L 503.771302 26.877187 
L 503.925638 26.877187 
L 503.925638 359.517187 
z
" clip-path="url(#p1f2ad0a828)" style="fill: #add8e6; stroke: #add8e6; stroke-linejoin: miter"/>
   </g>
   <g id="patch_54">
    <path d="M 504.419932 359.517187 
L 504.419932 26.877187 
L 504.49849 26.877187 
L 504.49849 359.517187 
z
" clip-path="url(#p1f2ad0a828)" style="fill: #add8e6; stroke: #add8e6; stroke-linejoin: miter"/>
   </g>
   <g id="patch_55">
    <path d="M 505.357768 359.517187 
L 505.357768 26.877187 
L 505.41547 26.877187 
L 505.41547 359.517187 
z
" clip-path="url(#p1f2ad0a828)" style="fill: #add8e6; stroke: #add8e6; stroke-linejoin: miter"/>
   </g>
   <g id="patch_56">
    <path d="M 512.467664 359.517187 
L 512.467664 26.877187 
L 512.650504 26.877187 
L 512.650504 359.517187 
z
" clip-path="url(#p1f2ad0a828)" style="fill: #add8e6; stroke: #add8e6; stroke-linejoin: miter"/>
   </g>
   <g id="patch_57">
    <path d="M 512.774251 359.517187 
L 512.774251 26.877187 
L 512.900779 26.877187 
L 512.900779 359.517187 
z
" clip-path="url(#p1f2ad0a828)" style="fill: #add8e6; stroke: #add8e6; stroke-linejoin: miter"/>
   </g>
   <g id="patch_58">
    <path d="M 513.059287 359.517187 
L 513.059287 26.877187 
L 513.11977 26.877187 
L 513.11977 359.517187 
z
" clip-path="url(#p1f2ad0a828)" style="fill: #add8e6; stroke: #add8e6; stroke-linejoin: miter"/>
   </g>
   <g id="patch_59">
    <path d="M 515.949268 359.517187 
L 515.949268 26.877187 
L 516.073015 26.877187 
L 516.073015 359.517187 
z
" clip-path="url(#p1f2ad0a828)" style="fill: #add8e6; stroke: #add8e6; stroke-linejoin: miter"/>
   </g>
   <g id="patch_60">
    <path d="M 547.47836 359.517187 
L 547.47836 26.877187 
L 547.346271 26.877187 
L 547.346271 359.517187 
z
" clip-path="url(#p1f2ad0a828)" style="fill: #add8e6; stroke: #add8e6; stroke-linejoin: miter"/>
   </g>
   <g id="patch_61">
    <path d="M 550.951622 359.517187 
L 550.951622 26.877187 
L 550.900176 26.877187 
L 550.900176 359.517187 
z
" clip-path="url(#p1f2ad0a828)" style="fill: #add8e6; stroke: #add8e6; stroke-linejoin: miter"/>
   </g>
   <g id="patch_62">
    <path d="M 553.209659 359.517187 
L 553.209659 26.877187 
L 553.343139 26.877187 
L 553.343139 359.517187 
z
" clip-path="url(#p1f2ad0a828)" style="fill: #add8e6; stroke: #add8e6; stroke-linejoin: miter"/>
   </g>
   <g id="patch_63">
    <path d="M 553.562824 359.517187 
L 553.562824 26.877187 
L 553.690743 26.877187 
L 553.690743 359.517187 
z
" clip-path="url(#p1f2ad0a828)" style="fill: #add8e6; stroke: #add8e6; stroke-linejoin: miter"/>
   </g>
   <g id="patch_64">
    <path d="M 576.743159 359.517187 
L 576.743159 26.877187 
L 576.835621 26.877187 
L 576.835621 359.517187 
z
" clip-path="url(#p1f2ad0a828)" style="fill: #add8e6; stroke: #add8e6; stroke-linejoin: miter"/>
   </g>
   <g id="patch_65">
    <path d="M 608.121391 359.517187 
L 608.121391 26.877187 
L 608.227758 26.877187 
L 608.227758 359.517187 
z
" clip-path="url(#p1f2ad0a828)" style="fill: #add8e6; stroke: #add8e6; stroke-linejoin: miter"/>
   </g>
   <g id="patch_66">
    <path d="M 616.752403 359.517187 
L 616.752403 26.877187 
L 616.69192 26.877187 
L 616.69192 359.517187 
z
" clip-path="url(#p1f2ad0a828)" style="fill: #add8e6; stroke: #add8e6; stroke-linejoin: miter"/>
   </g>
   <g id="patch_67">
    <path d="M 639.455129 359.517187 
L 639.455129 26.877187 
L 635.526507 26.877187 
L 635.526507 359.517187 
z
" clip-path="url(#p1f2ad0a828)" style="fill: #add8e6; stroke: #add8e6; stroke-linejoin: miter"/>
   </g>
   <g id="patch_68">
    <path d="M 642.580786 359.517187 
L 642.580786 26.877187 
L 642.671164 26.877187 
L 642.671164 359.517187 
z
" clip-path="url(#p1f2ad0a828)" style="fill: #add8e6; stroke: #add8e6; stroke-linejoin: miter"/>
   </g>
   <g id="patch_69">
    <path d="M 643.132087 359.517187 
L 643.132087 26.877187 
L 642.829671 26.877187 
L 642.829671 359.517187 
z
" clip-path="url(#p1f2ad0a828)" style="fill: #add8e6; stroke: #add8e6; stroke-linejoin: miter"/>
   </g>
   <g id="patch_70">
    <path d="M 673.735857 359.517187 
L 673.735857 26.877187 
L 673.899231 26.877187 
L 673.899231 359.517187 
z
" clip-path="url(#p1f2ad0a828)" style="fill: #add8e6; stroke: #add8e6; stroke-linejoin: miter"/>
   </g>
   <g id="patch_71">
    <path d="M 674.043139 359.517187 
L 674.043139 26.877187 
L 674.105707 26.877187 
L 674.105707 359.517187 
z
" clip-path="url(#p1f2ad0a828)" style="fill: #add8e6; stroke: #add8e6; stroke-linejoin: miter"/>
   </g>
   <g id="patch_72">
    <path d="M 674.328869 359.517187 
L 674.328869 26.877187 
L 674.234321 26.877187 
L 674.234321 359.517187 
z
" clip-path="url(#p1f2ad0a828)" style="fill: #add8e6; stroke: #add8e6; stroke-linejoin: miter"/>
   </g>
   <g id="patch_73">
    <path d="M 683.814988 359.517187 
L 683.814988 26.877187 
L 683.902584 26.877187 
L 683.902584 359.517187 
z
" clip-path="url(#p1f2ad0a828)" style="fill: #add8e6; stroke: #add8e6; stroke-linejoin: miter"/>
   </g>
   <g id="patch_74">
    <path d="M 691.362866 359.517187 
L 691.362866 26.877187 
L 691.546401 26.877187 
L 691.546401 359.517187 
z
" clip-path="url(#p1f2ad0a828)" style="fill: #add8e6; stroke: #add8e6; stroke-linejoin: miter"/>
   </g>
   <g id="patch_75">
    <path d="M 710.060496 359.517187 
L 710.060496 26.877187 
L 709.094852 26.877187 
L 709.094852 359.517187 
z
" clip-path="url(#p1f2ad0a828)" style="fill: #add8e6; stroke: #add8e6; stroke-linejoin: miter"/>
   </g>
   <g id="patch_76">
    <path d="M 715.364241 359.517187 
L 715.364241 26.877187 
L 715.403868 26.877187 
L 715.403868 359.517187 
z
" clip-path="url(#p1f2ad0a828)" style="fill: #add8e6; stroke: #add8e6; stroke-linejoin: miter"/>
   </g>
   <g id="patch_77">
    <path d="M 715.57628 359.517187 
L 715.57628 26.877187 
L 715.661791 26.877187 
L 715.661791 359.517187 
z
" clip-path="url(#p1f2ad0a828)" style="fill: #add8e6; stroke: #add8e6; stroke-linejoin: miter"/>
   </g>
   <g id="patch_78">
    <path d="M 726.194198 359.517187 
L 726.194198 26.877187 
L 725.34952 26.877187 
L 725.34952 359.517187 
z
" clip-path="url(#p1f2ad0a828)" style="fill: #add8e6; stroke: #add8e6; stroke-linejoin: miter"/>
   </g>
   <g id="patch_79">
    <path d="M 730.970975 359.517187 
L 730.970975 26.877187 
L 731.010602 26.877187 
L 731.010602 359.517187 
z
" clip-path="url(#p1f2ad0a828)" style="fill: #add8e6; stroke: #add8e6; stroke-linejoin: miter"/>
   </g>
   <g id="patch_80">
    <path d="M 743.502802 359.517187 
L 743.502802 26.877187 
L 743.474299 26.877187 
L 743.474299 359.517187 
z
" clip-path="url(#p1f2ad0a828)" style="fill: #add8e6; stroke: #add8e6; stroke-linejoin: miter"/>
   </g>
   <g id="patch_81">
    <path d="M 753.695948 359.517187 
L 753.695948 26.877187 
L 753.88574 26.877187 
L 753.88574 359.517187 
z
" clip-path="url(#p1f2ad0a828)" style="fill: #add8e6; stroke: #add8e6; stroke-linejoin: miter"/>
   </g>
   <g id="patch_82">
    <path d="M 796.754377 359.517187 
L 796.754377 26.877187 
L 796.836411 26.877187 
L 796.836411 359.517187 
z
" clip-path="url(#p1f2ad0a828)" style="fill: #add8e6; stroke: #add8e6; stroke-linejoin: miter"/>
   </g>
   <g id="patch_83">
    <path d="M 803.041842 359.517187 
L 803.041842 26.877187 
L 803.095373 26.877187 
L 803.095373 359.517187 
z
" clip-path="url(#p1f2ad0a828)" style="fill: #add8e6; stroke: #add8e6; stroke-linejoin: miter"/>
   </g>
   <g id="patch_84">
    <path d="M 803.932404 359.517187 
L 803.932404 26.877187 
L 804.11872 26.877187 
L 804.11872 359.517187 
z
" clip-path="url(#p1f2ad0a828)" style="fill: #add8e6; stroke: #add8e6; stroke-linejoin: miter"/>
   </g>
   <g id="patch_85">
    <path d="M 837.769588 359.517187 
L 837.769588 26.877187 
L 834.949127 26.877187 
L 834.949127 359.517187 
z
" clip-path="url(#p1f2ad0a828)" style="fill: #add8e6; stroke: #add8e6; stroke-linejoin: miter"/>
   </g>
   <g id="patch_86">
    <path d="M 884.176835 359.517187 
L 884.176835 26.877187 
L 884.304754 26.877187 
L 884.304754 359.517187 
z
" clip-path="url(#p1f2ad0a828)" style="fill: #add8e6; stroke: #add8e6; stroke-linejoin: miter"/>
   </g>
   <g id="patch_87">
    <path d="M 884.785838 359.517187 
L 884.785838 26.877187 
L 884.555724 26.877187 
L 884.555724 359.517187 
z
" clip-path="url(#p1f2ad0a828)" style="fill: #add8e6; stroke: #add8e6; stroke-linejoin: miter"/>
   </g>
   <g id="patch_88">
    <path d="M 951.114978 359.517187 
L 951.114978 26.877187 
L 951.224126 26.877187 
L 951.224126 359.517187 
z
" clip-path="url(#p1f2ad0a828)" style="fill: #add8e6; stroke: #add8e6; stroke-linejoin: miter"/>
   </g>
   <g id="patch_89">
    <path d="M 958.486273 359.517187 
L 958.486273 26.877187 
L 958.521729 26.877187 
L 958.521729 359.517187 
z
" clip-path="url(#p1f2ad0a828)" style="fill: #add8e6; stroke: #add8e6; stroke-linejoin: miter"/>
   </g>
   <g id="patch_90">
    <path d="M 987.758719 359.517187 
L 987.758719 26.877187 
L 987.904712 26.877187 
L 987.904712 359.517187 
z
" clip-path="url(#p1f2ad0a828)" style="fill: #add8e6; stroke: #add8e6; stroke-linejoin: miter"/>
   </g>
   <g id="patch_91">
    <path d="M 1003.964722 359.517187 
L 1003.964722 26.877187 
L 1004.145476 26.877187 
L 1004.145476 359.517187 
z
" clip-path="url(#p1f2ad0a828)" style="fill: #add8e6; stroke: #add8e6; stroke-linejoin: miter"/>
   </g>
   <g id="patch_92">
    <path d="M 1015.093619 359.517187 
L 1015.093619 26.877187 
L 1015.149235 26.877187 
L 1015.149235 359.517187 
z
" clip-path="url(#p1f2ad0a828)" style="fill: #add8e6; stroke: #add8e6; stroke-linejoin: miter"/>
   </g>
   <g id="patch_93">
    <path d="M 1019.794618 359.517187 
L 1019.794618 26.877187 
L 1019.928793 26.877187 
L 1019.928793 359.517187 
z
" clip-path="url(#p1f2ad0a828)" style="fill: #add8e6; stroke: #add8e6; stroke-linejoin: miter"/>
   </g>
   <g id="patch_94">
    <path d="M 1020.258322 359.517187 
L 1020.258322 26.877187 
L 1020.311853 26.877187 
L 1020.311853 359.517187 
z
" clip-path="url(#p1f2ad0a828)" style="fill: #add8e6; stroke: #add8e6; stroke-linejoin: miter"/>
   </g>
   <g id="patch_95">
    <path d="M 1020.580899 359.517187 
L 1020.580899 26.877187 
L 1020.58507 26.877187 
L 1020.58507 359.517187 
z
" clip-path="url(#p1f2ad0a828)" style="fill: #add8e6; stroke: #add8e6; stroke-linejoin: miter"/>
   </g>
   <g id="patch_96">
    <path d="M 1022.281378 359.517187 
L 1022.281378 26.877187 
L 1022.473951 26.877187 
L 1022.473951 359.517187 
z
" clip-path="url(#p1f2ad0a828)" style="fill: #add8e6; stroke: #add8e6; stroke-linejoin: miter"/>
   </g>
   <g id="patch_97">
    <path d="M 1031.232882 359.517187 
L 1031.232882 26.877187 
L 1031.119563 26.877187 
L 1031.119563 359.517187 
z
" clip-path="url(#p1f2ad0a828)" style="fill: #add8e6; stroke: #add8e6; stroke-linejoin: miter"/>
   </g>
   <g id="patch_98">
    <path d="M 1033.531936 359.517187 
L 1033.531936 26.877187 
L 1033.629265 26.877187 
L 1033.629265 359.517187 
z
" clip-path="url(#p1f2ad0a828)" style="fill: #add8e6; stroke: #add8e6; stroke-linejoin: miter"/>
   </g>
   <g id="patch_99">
    <path d="M 1046.082534 359.517187 
L 1046.082534 26.877187 
L 1043.188381 26.877187 
L 1043.188381 359.517187 
z
" clip-path="url(#p1f2ad0a828)" style="fill: #add8e6; stroke: #add8e6; stroke-linejoin: miter"/>
   </g>
   <g id="patch_100">
    <path d="M 1052.495831 359.517187 
L 1052.495831 26.877187 
L 1052.515993 26.877187 
L 1052.515993 359.517187 
z
" clip-path="url(#p1f2ad0a828)" style="fill: #add8e6; stroke: #add8e6; stroke-linejoin: miter"/>
   </g>
   <g id="patch_101">
    <path d="M 1079.956564 359.517187 
L 1079.956564 26.877187 
L 1080.053198 26.877187 
L 1080.053198 359.517187 
z
" clip-path="url(#p1f2ad0a828)" style="fill: #add8e6; stroke: #add8e6; stroke-linejoin: miter"/>
   </g>
   <g id="patch_102">
    <path d="M 1085.101802 359.517187 
L 1085.101802 26.877187 
L 1085.258919 26.877187 
L 1085.258919 359.517187 
z
" clip-path="url(#p1f2ad0a828)" style="fill: #add8e6; stroke: #add8e6; stroke-linejoin: miter"/>
   </g>
   <g id="patch_103">
    <path d="M 1096.761142 359.517187 
L 1096.761142 26.877187 
L 1096.83692 26.877187 
L 1096.83692 359.517187 
z
" clip-path="url(#p1f2ad0a828)" style="fill: #add8e6; stroke: #add8e6; stroke-linejoin: miter"/>
   </g>
   <g id="patch_104">
    <path d="M 1097.133078 359.517187 
L 1097.133078 26.877187 
L 1097.007246 26.877187 
L 1097.007246 359.517187 
z
" clip-path="url(#p1f2ad0a828)" style="fill: #add8e6; stroke: #add8e6; stroke-linejoin: miter"/>
   </g>
   <g id="patch_105">
    <path d="M 1100.794741 359.517187 
L 1100.794741 26.877187 
L 1097.396562 26.877187 
L 1097.396562 359.517187 
z
" clip-path="url(#p1f2ad0a828)" style="fill: #add8e6; stroke: #add8e6; stroke-linejoin: miter"/>
   </g>
   <g id="patch_106">
    <path d="M 1102.896356 359.517187 
L 1102.896356 26.877187 
L 1103.068073 26.877187 
L 1103.068073 359.517187 
z
" clip-path="url(#p1f2ad0a828)" style="fill: #add8e6; stroke: #add8e6; stroke-linejoin: miter"/>
   </g>
   <g id="patch_107">
    <path d="M 1103.131337 359.517187 
L 1103.131337 26.877187 
L 1103.239094 26.877187 
L 1103.239094 359.517187 
z
" clip-path="url(#p1f2ad0a828)" style="fill: #add8e6; stroke: #add8e6; stroke-linejoin: miter"/>
   </g>
   <g id="patch_108">
    <path d="M 1106.120733 359.517187 
L 1106.120733 26.877187 
L 1106.303573 26.877187 
L 1106.303573 359.517187 
z
" clip-path="url(#p1f2ad0a828)" style="fill: #add8e6; stroke: #add8e6; stroke-linejoin: miter"/>
   </g>
   <g id="patch_109">
    <path d="M 1107.24558 359.517187 
L 1107.24558 26.877187 
L 1107.274084 26.877187 
L 1107.274084 359.517187 
z
" clip-path="url(#p1f2ad0a828)" style="fill: #add8e6; stroke: #add8e6; stroke-linejoin: miter"/>
   </g>
   <g id="patch_110">
    <path d="M 220.928538 359.517187 
L 220.928538 26.877187 
L 371.093556 26.877187 
L 371.093556 359.517187 
z
" clip-path="url(#p1f2ad0a828)" style="fill: #808080; opacity: 0.4; stroke: #808080; stroke-linejoin: miter"/>
   </g>
   <g id="patch_111">
    <path d="M 375.264807 26.877187 
L 375.264807 26.877187 
L 375.264807 359.517187 
" clip-path="url(#p1f2ad0a828)" style="fill: #808080; opacity: 0.4; stroke: #808080; stroke-linejoin: miter"/>
   </g>
   <g id="patch_112">
    <path d="M 379.436057 26.877187 
L 379.436057 26.877187 
L 379.436057 359.517187 
" clip-path="url(#p1f2ad0a828)" style="fill: #808080; opacity: 0.4; stroke: #808080; stroke-linejoin: miter"/>
   </g>
   <g id="patch_113">
    <path d="M 521.258575 359.517187 
L 521.258575 26.877187 
L 671.423593 26.877187 
L 671.423593 359.517187 
z
" clip-path="url(#p1f2ad0a828)" style="fill: #808080; opacity: 0.4; stroke: #808080; stroke-linejoin: miter"/>
   </g>
   <g id="patch_114">
    <path d="M 675.594844 26.877187 
L 675.594844 26.877187 
L 675.594844 359.517187 
" clip-path="url(#p1f2ad0a828)" style="fill: #808080; opacity: 0.4; stroke: #808080; stroke-linejoin: miter"/>
   </g>
   <g id="patch_115">
    <path d="M 679.766094 26.877187 
L 679.766094 26.877187 
L 679.766094 359.517187 
" clip-path="url(#p1f2ad0a828)" style="fill: #808080; opacity: 0.4; stroke: #808080; stroke-linejoin: miter"/>
   </g>
   <g id="patch_116">
    <path d="M 821.588612 359.517187 
L 821.588612 26.877187 
L 971.75363 26.877187 
L 971.75363 359.517187 
z
" clip-path="url(#p1f2ad0a828)" style="fill: #808080; opacity: 0.4; stroke: #808080; stroke-linejoin: miter"/>
   </g>
   <g id="patch_117">
    <path d="M 975.924881 26.877187 
L 975.924881 26.877187 
L 975.924881 359.517187 
" clip-path="url(#p1f2ad0a828)" style="fill: #808080; opacity: 0.4; stroke: #808080; stroke-linejoin: miter"/>
   </g>
   <g id="patch_118">
    <path d="M 980.096131 26.877187 
L 980.096131 26.877187 
L 980.096131 359.517187 
" clip-path="url(#p1f2ad0a828)" style="fill: #808080; opacity: 0.4; stroke: #808080; stroke-linejoin: miter"/>
   </g>
   <g id="matplotlib.axis_1">
    <g id="xtick_1">
     <g id="line2d_1">
      <defs>
       <path id="mdcd6b6c311" d="M 0 0 
L 0 3.5 
" style="stroke: #000000; stroke-width: 0.8"/>
      </defs>
      <g>
       <use xlink:href="#mdcd6b6c311" x="131.253604" y="359.517187" style="stroke: #000000; stroke-width: 0.8"/>
      </g>
     </g>
     <g id="text_1">
      <!-- 07-11 12 -->
      <g transform="translate(108.773135 374.115625) scale(0.1 -0.1)">
       <defs>
        <path id="DejaVuSans-30" d="M 2034 4250 
Q 1547 4250 1301 3770 
Q 1056 3291 1056 2328 
Q 1056 1369 1301 889 
Q 1547 409 2034 409 
Q 2525 409 2770 889 
Q 3016 1369 3016 2328 
Q 3016 3291 2770 3770 
Q 2525 4250 2034 4250 
z
M 2034 4750 
Q 2819 4750 3233 4129 
Q 3647 3509 3647 2328 
Q 3647 1150 3233 529 
Q 2819 -91 2034 -91 
Q 1250 -91 836 529 
Q 422 1150 422 2328 
Q 422 3509 836 4129 
Q 1250 4750 2034 4750 
z
" transform="scale(0.015625)"/>
        <path id="DejaVuSans-37" d="M 525 4666 
L 3525 4666 
L 3525 4397 
L 1831 0 
L 1172 0 
L 2766 4134 
L 525 4134 
L 525 4666 
z
" transform="scale(0.015625)"/>
        <path id="DejaVuSans-2d" d="M 313 2009 
L 1997 2009 
L 1997 1497 
L 313 1497 
L 313 2009 
z
" transform="scale(0.015625)"/>
        <path id="DejaVuSans-31" d="M 794 531 
L 1825 531 
L 1825 4091 
L 703 3866 
L 703 4441 
L 1819 4666 
L 2450 4666 
L 2450 531 
L 3481 531 
L 3481 0 
L 794 0 
L 794 531 
z
" transform="scale(0.015625)"/>
        <path id="DejaVuSans-20" transform="scale(0.015625)"/>
        <path id="DejaVuSans-32" d="M 1228 531 
L 3431 531 
L 3431 0 
L 469 0 
L 469 531 
Q 828 903 1448 1529 
Q 2069 2156 2228 2338 
Q 2531 2678 2651 2914 
Q 2772 3150 2772 3378 
Q 2772 3750 2511 3984 
Q 2250 4219 1831 4219 
Q 1534 4219 1204 4116 
Q 875 4013 500 3803 
L 500 4441 
Q 881 4594 1212 4672 
Q 1544 4750 1819 4750 
Q 2544 4750 2975 4387 
Q 3406 4025 3406 3419 
Q 3406 3131 3298 2873 
Q 3191 2616 2906 2266 
Q 2828 2175 2409 1742 
Q 1991 1309 1228 531 
z
" transform="scale(0.015625)"/>
       </defs>
       <use xlink:href="#DejaVuSans-30"/>
       <use xlink:href="#DejaVuSans-37" x="63.623047"/>
       <use xlink:href="#DejaVuSans-2d" x="127.246094"/>
       <use xlink:href="#DejaVuSans-31" x="163.330078"/>
       <use xlink:href="#DejaVuSans-31" x="226.953125"/>
       <use xlink:href="#DejaVuSans-20" x="290.576172"/>
       <use xlink:href="#DejaVuSans-31" x="322.363281"/>
       <use xlink:href="#DejaVuSans-32" x="385.986328"/>
      </g>
     </g>
    </g>
    <g id="xtick_2">
     <g id="line2d_2">
      <g>
       <use xlink:href="#mdcd6b6c311" x="281.418622" y="359.517187" style="stroke: #000000; stroke-width: 0.8"/>
      </g>
     </g>
     <g id="text_2">
      <!-- 07-12 00 -->
      <g transform="translate(258.938153 374.115625) scale(0.1 -0.1)">
       <use xlink:href="#DejaVuSans-30"/>
       <use xlink:href="#DejaVuSans-37" x="63.623047"/>
       <use xlink:href="#DejaVuSans-2d" x="127.246094"/>
       <use xlink:href="#DejaVuSans-31" x="163.330078"/>
       <use xlink:href="#DejaVuSans-32" x="226.953125"/>
       <use xlink:href="#DejaVuSans-20" x="290.576172"/>
       <use xlink:href="#DejaVuSans-30" x="322.363281"/>
       <use xlink:href="#DejaVuSans-30" x="385.986328"/>
      </g>
     </g>
    </g>
    <g id="xtick_3">
     <g id="line2d_3">
      <g>
       <use xlink:href="#mdcd6b6c311" x="431.583641" y="359.517187" style="stroke: #000000; stroke-width: 0.8"/>
      </g>
     </g>
     <g id="text_3">
      <!-- 07-12 12 -->
      <g transform="translate(409.103172 374.115625) scale(0.1 -0.1)">
       <use xlink:href="#DejaVuSans-30"/>
       <use xlink:href="#DejaVuSans-37" x="63.623047"/>
       <use xlink:href="#DejaVuSans-2d" x="127.246094"/>
       <use xlink:href="#DejaVuSans-31" x="163.330078"/>
       <use xlink:href="#DejaVuSans-32" x="226.953125"/>
       <use xlink:href="#DejaVuSans-20" x="290.576172"/>
       <use xlink:href="#DejaVuSans-31" x="322.363281"/>
       <use xlink:href="#DejaVuSans-32" x="385.986328"/>
      </g>
     </g>
    </g>
    <g id="xtick_4">
     <g id="line2d_4">
      <g>
       <use xlink:href="#mdcd6b6c311" x="581.748659" y="359.517187" style="stroke: #000000; stroke-width: 0.8"/>
      </g>
     </g>
     <g id="text_4">
      <!-- 07-13 00 -->
      <g transform="translate(559.268191 374.115625) scale(0.1 -0.1)">
       <defs>
        <path id="DejaVuSans-33" d="M 2597 2516 
Q 3050 2419 3304 2112 
Q 3559 1806 3559 1356 
Q 3559 666 3084 287 
Q 2609 -91 1734 -91 
Q 1441 -91 1130 -33 
Q 819 25 488 141 
L 488 750 
Q 750 597 1062 519 
Q 1375 441 1716 441 
Q 2309 441 2620 675 
Q 2931 909 2931 1356 
Q 2931 1769 2642 2001 
Q 2353 2234 1838 2234 
L 1294 2234 
L 1294 2753 
L 1863 2753 
Q 2328 2753 2575 2939 
Q 2822 3125 2822 3475 
Q 2822 3834 2567 4026 
Q 2313 4219 1838 4219 
Q 1578 4219 1281 4162 
Q 984 4106 628 3988 
L 628 4550 
Q 988 4650 1302 4700 
Q 1616 4750 1894 4750 
Q 2613 4750 3031 4423 
Q 3450 4097 3450 3541 
Q 3450 3153 3228 2886 
Q 3006 2619 2597 2516 
z
" transform="scale(0.015625)"/>
       </defs>
       <use xlink:href="#DejaVuSans-30"/>
       <use xlink:href="#DejaVuSans-37" x="63.623047"/>
       <use xlink:href="#DejaVuSans-2d" x="127.246094"/>
       <use xlink:href="#DejaVuSans-31" x="163.330078"/>
       <use xlink:href="#DejaVuSans-33" x="226.953125"/>
       <use xlink:href="#DejaVuSans-20" x="290.576172"/>
       <use xlink:href="#DejaVuSans-30" x="322.363281"/>
       <use xlink:href="#DejaVuSans-30" x="385.986328"/>
      </g>
     </g>
    </g>
    <g id="xtick_5">
     <g id="line2d_5">
      <g>
       <use xlink:href="#mdcd6b6c311" x="731.913678" y="359.517187" style="stroke: #000000; stroke-width: 0.8"/>
      </g>
     </g>
     <g id="text_5">
      <!-- 07-13 12 -->
      <g transform="translate(709.433209 374.115625) scale(0.1 -0.1)">
       <use xlink:href="#DejaVuSans-30"/>
       <use xlink:href="#DejaVuSans-37" x="63.623047"/>
       <use xlink:href="#DejaVuSans-2d" x="127.246094"/>
       <use xlink:href="#DejaVuSans-31" x="163.330078"/>
       <use xlink:href="#DejaVuSans-33" x="226.953125"/>
       <use xlink:href="#DejaVuSans-20" x="290.576172"/>
       <use xlink:href="#DejaVuSans-31" x="322.363281"/>
       <use xlink:href="#DejaVuSans-32" x="385.986328"/>
      </g>
     </g>
    </g>
    <g id="xtick_6">
     <g id="line2d_6">
      <g>
       <use xlink:href="#mdcd6b6c311" x="882.078696" y="359.517187" style="stroke: #000000; stroke-width: 0.8"/>
      </g>
     </g>
     <g id="text_6">
      <!-- 07-14 00 -->
      <g transform="translate(859.598228 374.115625) scale(0.1 -0.1)">
       <defs>
        <path id="DejaVuSans-34" d="M 2419 4116 
L 825 1625 
L 2419 1625 
L 2419 4116 
z
M 2253 4666 
L 3047 4666 
L 3047 1625 
L 3713 1625 
L 3713 1100 
L 3047 1100 
L 3047 0 
L 2419 0 
L 2419 1100 
L 313 1100 
L 313 1709 
L 2253 4666 
z
" transform="scale(0.015625)"/>
       </defs>
       <use xlink:href="#DejaVuSans-30"/>
       <use xlink:href="#DejaVuSans-37" x="63.623047"/>
       <use xlink:href="#DejaVuSans-2d" x="127.246094"/>
       <use xlink:href="#DejaVuSans-31" x="163.330078"/>
       <use xlink:href="#DejaVuSans-34" x="226.953125"/>
       <use xlink:href="#DejaVuSans-20" x="290.576172"/>
       <use xlink:href="#DejaVuSans-30" x="322.363281"/>
       <use xlink:href="#DejaVuSans-30" x="385.986328"/>
      </g>
     </g>
    </g>
    <g id="xtick_7">
     <g id="line2d_7">
      <g>
       <use xlink:href="#mdcd6b6c311" x="1032.243715" y="359.517187" style="stroke: #000000; stroke-width: 0.8"/>
      </g>
     </g>
     <g id="text_7">
      <!-- 07-14 12 -->
      <g transform="translate(1009.763246 374.115625) scale(0.1 -0.1)">
       <use xlink:href="#DejaVuSans-30"/>
       <use xlink:href="#DejaVuSans-37" x="63.623047"/>
       <use xlink:href="#DejaVuSans-2d" x="127.246094"/>
       <use xlink:href="#DejaVuSans-31" x="163.330078"/>
       <use xlink:href="#DejaVuSans-34" x="226.953125"/>
       <use xlink:href="#DejaVuSans-20" x="290.576172"/>
       <use xlink:href="#DejaVuSans-31" x="322.363281"/>
       <use xlink:href="#DejaVuSans-32" x="385.986328"/>
      </g>
     </g>
    </g>
    <g id="text_8">
     <!-- Time -->
     <g transform="translate(592.554688 389.313437) scale(0.12 -0.12)">
      <defs>
       <path id="DejaVuSans-54" d="M -19 4666 
L 3928 4666 
L 3928 4134 
L 2272 4134 
L 2272 0 
L 1638 0 
L 1638 4134 
L -19 4134 
L -19 4666 
z
" transform="scale(0.015625)"/>
       <path id="DejaVuSans-69" d="M 603 3500 
L 1178 3500 
L 1178 0 
L 603 0 
L 603 3500 
z
M 603 4863 
L 1178 4863 
L 1178 4134 
L 603 4134 
L 603 4863 
z
" transform="scale(0.015625)"/>
       <path id="DejaVuSans-6d" d="M 3328 2828 
Q 3544 3216 3844 3400 
Q 4144 3584 4550 3584 
Q 5097 3584 5394 3201 
Q 5691 2819 5691 2113 
L 5691 0 
L 5113 0 
L 5113 2094 
Q 5113 2597 4934 2840 
Q 4756 3084 4391 3084 
Q 3944 3084 3684 2787 
Q 3425 2491 3425 1978 
L 3425 0 
L 2847 0 
L 2847 2094 
Q 2847 2600 2669 2842 
Q 2491 3084 2119 3084 
Q 1678 3084 1418 2786 
Q 1159 2488 1159 1978 
L 1159 0 
L 581 0 
L 581 3500 
L 1159 3500 
L 1159 2956 
Q 1356 3278 1631 3431 
Q 1906 3584 2284 3584 
Q 2666 3584 2933 3390 
Q 3200 3197 3328 2828 
z
" transform="scale(0.015625)"/>
       <path id="DejaVuSans-65" d="M 3597 1894 
L 3597 1613 
L 953 1613 
Q 991 1019 1311 708 
Q 1631 397 2203 397 
Q 2534 397 2845 478 
Q 3156 559 3463 722 
L 3463 178 
Q 3153 47 2828 -22 
Q 2503 -91 2169 -91 
Q 1331 -91 842 396 
Q 353 884 353 1716 
Q 353 2575 817 3079 
Q 1281 3584 2069 3584 
Q 2775 3584 3186 3129 
Q 3597 2675 3597 1894 
z
M 3022 2063 
Q 3016 2534 2758 2815 
Q 2500 3097 2075 3097 
Q 1594 3097 1305 2825 
Q 1016 2553 972 2059 
L 3022 2063 
z
" transform="scale(0.015625)"/>
      </defs>
      <use xlink:href="#DejaVuSans-54"/>
      <use xlink:href="#DejaVuSans-69" x="57.958984"/>
      <use xlink:href="#DejaVuSans-6d" x="85.742188"/>
      <use xlink:href="#DejaVuSans-65" x="183.154297"/>
     </g>
    </g>
   </g>
   <g id="matplotlib.axis_2">
    <g id="ytick_1">
     <g id="line2d_8">
      <defs>
       <path id="m9581eb4150" d="M 0 0 
L -3.5 0 
" style="stroke: #000000; stroke-width: 0.8"/>
      </defs>
      <g>
       <use xlink:href="#m9581eb4150" x="49.235" y="344.397187" style="stroke: #000000; stroke-width: 0.8"/>
      </g>
     </g>
     <g id="text_9">
      <!-- 0 -->
      <g transform="translate(35.8725 348.196406) scale(0.1 -0.1)">
       <use xlink:href="#DejaVuSans-30"/>
      </g>
     </g>
    </g>
    <g id="ytick_2">
     <g id="line2d_9">
      <g>
       <use xlink:href="#m9581eb4150" x="49.235" y="295.857862" style="stroke: #000000; stroke-width: 0.8"/>
      </g>
     </g>
     <g id="text_10">
      <!-- 100 -->
      <g transform="translate(23.1475 299.65708) scale(0.1 -0.1)">
       <use xlink:href="#DejaVuSans-31"/>
       <use xlink:href="#DejaVuSans-30" x="63.623047"/>
       <use xlink:href="#DejaVuSans-30" x="127.246094"/>
      </g>
     </g>
    </g>
    <g id="ytick_3">
     <g id="line2d_10">
      <g>
       <use xlink:href="#m9581eb4150" x="49.235" y="247.318536" style="stroke: #000000; stroke-width: 0.8"/>
      </g>
     </g>
     <g id="text_11">
      <!-- 200 -->
      <g transform="translate(23.1475 251.117755) scale(0.1 -0.1)">
       <use xlink:href="#DejaVuSans-32"/>
       <use xlink:href="#DejaVuSans-30" x="63.623047"/>
       <use xlink:href="#DejaVuSans-30" x="127.246094"/>
      </g>
     </g>
    </g>
    <g id="ytick_4">
     <g id="line2d_11">
      <g>
       <use xlink:href="#m9581eb4150" x="49.235" y="198.77921" style="stroke: #000000; stroke-width: 0.8"/>
      </g>
     </g>
     <g id="text_12">
      <!-- 300 -->
      <g transform="translate(23.1475 202.578429) scale(0.1 -0.1)">
       <use xlink:href="#DejaVuSans-33"/>
       <use xlink:href="#DejaVuSans-30" x="63.623047"/>
       <use xlink:href="#DejaVuSans-30" x="127.246094"/>
      </g>
     </g>
    </g>
    <g id="ytick_5">
     <g id="line2d_12">
      <g>
       <use xlink:href="#m9581eb4150" x="49.235" y="150.239884" style="stroke: #000000; stroke-width: 0.8"/>
      </g>
     </g>
     <g id="text_13">
      <!-- 400 -->
      <g transform="translate(23.1475 154.039103) scale(0.1 -0.1)">
       <use xlink:href="#DejaVuSans-34"/>
       <use xlink:href="#DejaVuSans-30" x="63.623047"/>
       <use xlink:href="#DejaVuSans-30" x="127.246094"/>
      </g>
     </g>
    </g>
    <g id="ytick_6">
     <g id="line2d_13">
      <g>
       <use xlink:href="#m9581eb4150" x="49.235" y="101.700558" style="stroke: #000000; stroke-width: 0.8"/>
      </g>
     </g>
     <g id="text_14">
      <!-- 500 -->
      <g transform="translate(23.1475 105.499777) scale(0.1 -0.1)">
       <defs>
        <path id="DejaVuSans-35" d="M 691 4666 
L 3169 4666 
L 3169 4134 
L 1269 4134 
L 1269 2991 
Q 1406 3038 1543 3061 
Q 1681 3084 1819 3084 
Q 2600 3084 3056 2656 
Q 3513 2228 3513 1497 
Q 3513 744 3044 326 
Q 2575 -91 1722 -91 
Q 1428 -91 1123 -41 
Q 819 9 494 109 
L 494 744 
Q 775 591 1075 516 
Q 1375 441 1709 441 
Q 2250 441 2565 725 
Q 2881 1009 2881 1497 
Q 2881 1984 2565 2268 
Q 2250 2553 1709 2553 
Q 1456 2553 1204 2497 
Q 953 2441 691 2322 
L 691 4666 
z
" transform="scale(0.015625)"/>
       </defs>
       <use xlink:href="#DejaVuSans-35"/>
       <use xlink:href="#DejaVuSans-30" x="63.623047"/>
       <use xlink:href="#DejaVuSans-30" x="127.246094"/>
      </g>
     </g>
    </g>
    <g id="ytick_7">
     <g id="line2d_14">
      <g>
       <use xlink:href="#m9581eb4150" x="49.235" y="53.161232" style="stroke: #000000; stroke-width: 0.8"/>
      </g>
     </g>
     <g id="text_15">
      <!-- 600 -->
      <g transform="translate(23.1475 56.960451) scale(0.1 -0.1)">
       <defs>
        <path id="DejaVuSans-36" d="M 2113 2584 
Q 1688 2584 1439 2293 
Q 1191 2003 1191 1497 
Q 1191 994 1439 701 
Q 1688 409 2113 409 
Q 2538 409 2786 701 
Q 3034 994 3034 1497 
Q 3034 2003 2786 2293 
Q 2538 2584 2113 2584 
z
M 3366 4563 
L 3366 3988 
Q 3128 4100 2886 4159 
Q 2644 4219 2406 4219 
Q 1781 4219 1451 3797 
Q 1122 3375 1075 2522 
Q 1259 2794 1537 2939 
Q 1816 3084 2150 3084 
Q 2853 3084 3261 2657 
Q 3669 2231 3669 1497 
Q 3669 778 3244 343 
Q 2819 -91 2113 -91 
Q 1303 -91 875 529 
Q 447 1150 447 2328 
Q 447 3434 972 4092 
Q 1497 4750 2381 4750 
Q 2619 4750 2861 4703 
Q 3103 4656 3366 4563 
z
" transform="scale(0.015625)"/>
       </defs>
       <use xlink:href="#DejaVuSans-36"/>
       <use xlink:href="#DejaVuSans-30" x="63.623047"/>
       <use xlink:href="#DejaVuSans-30" x="127.246094"/>
      </g>
     </g>
    </g>
    <g id="text_16">
     <!-- Pellet_Count -->
     <g transform="translate(16.318125 230.485312) rotate(-90) scale(0.12 -0.12)">
      <defs>
       <path id="DejaVuSans-50" d="M 1259 4147 
L 1259 2394 
L 2053 2394 
Q 2494 2394 2734 2622 
Q 2975 2850 2975 3272 
Q 2975 3691 2734 3919 
Q 2494 4147 2053 4147 
L 1259 4147 
z
M 628 4666 
L 2053 4666 
Q 2838 4666 3239 4311 
Q 3641 3956 3641 3272 
Q 3641 2581 3239 2228 
Q 2838 1875 2053 1875 
L 1259 1875 
L 1259 0 
L 628 0 
L 628 4666 
z
" transform="scale(0.015625)"/>
       <path id="DejaVuSans-6c" d="M 603 4863 
L 1178 4863 
L 1178 0 
L 603 0 
L 603 4863 
z
" transform="scale(0.015625)"/>
       <path id="DejaVuSans-74" d="M 1172 4494 
L 1172 3500 
L 2356 3500 
L 2356 3053 
L 1172 3053 
L 1172 1153 
Q 1172 725 1289 603 
Q 1406 481 1766 481 
L 2356 481 
L 2356 0 
L 1766 0 
Q 1100 0 847 248 
Q 594 497 594 1153 
L 594 3053 
L 172 3053 
L 172 3500 
L 594 3500 
L 594 4494 
L 1172 4494 
z
" transform="scale(0.015625)"/>
       <path id="DejaVuSans-5f" d="M 3263 -1063 
L 3263 -1509 
L -63 -1509 
L -63 -1063 
L 3263 -1063 
z
" transform="scale(0.015625)"/>
       <path id="DejaVuSans-43" d="M 4122 4306 
L 4122 3641 
Q 3803 3938 3442 4084 
Q 3081 4231 2675 4231 
Q 1875 4231 1450 3742 
Q 1025 3253 1025 2328 
Q 1025 1406 1450 917 
Q 1875 428 2675 428 
Q 3081 428 3442 575 
Q 3803 722 4122 1019 
L 4122 359 
Q 3791 134 3420 21 
Q 3050 -91 2638 -91 
Q 1578 -91 968 557 
Q 359 1206 359 2328 
Q 359 3453 968 4101 
Q 1578 4750 2638 4750 
Q 3056 4750 3426 4639 
Q 3797 4528 4122 4306 
z
" transform="scale(0.015625)"/>
       <path id="DejaVuSans-6f" d="M 1959 3097 
Q 1497 3097 1228 2736 
Q 959 2375 959 1747 
Q 959 1119 1226 758 
Q 1494 397 1959 397 
Q 2419 397 2687 759 
Q 2956 1122 2956 1747 
Q 2956 2369 2687 2733 
Q 2419 3097 1959 3097 
z
M 1959 3584 
Q 2709 3584 3137 3096 
Q 3566 2609 3566 1747 
Q 3566 888 3137 398 
Q 2709 -91 1959 -91 
Q 1206 -91 779 398 
Q 353 888 353 1747 
Q 353 2609 779 3096 
Q 1206 3584 1959 3584 
z
" transform="scale(0.015625)"/>
       <path id="DejaVuSans-75" d="M 544 1381 
L 544 3500 
L 1119 3500 
L 1119 1403 
Q 1119 906 1312 657 
Q 1506 409 1894 409 
Q 2359 409 2629 706 
Q 2900 1003 2900 1516 
L 2900 3500 
L 3475 3500 
L 3475 0 
L 2900 0 
L 2900 538 
Q 2691 219 2414 64 
Q 2138 -91 1772 -91 
Q 1169 -91 856 284 
Q 544 659 544 1381 
z
M 1991 3584 
L 1991 3584 
z
" transform="scale(0.015625)"/>
       <path id="DejaVuSans-6e" d="M 3513 2113 
L 3513 0 
L 2938 0 
L 2938 2094 
Q 2938 2591 2744 2837 
Q 2550 3084 2163 3084 
Q 1697 3084 1428 2787 
Q 1159 2491 1159 1978 
L 1159 0 
L 581 0 
L 581 3500 
L 1159 3500 
L 1159 2956 
Q 1366 3272 1645 3428 
Q 1925 3584 2291 3584 
Q 2894 3584 3203 3211 
Q 3513 2838 3513 2113 
z
" transform="scale(0.015625)"/>
      </defs>
      <use xlink:href="#DejaVuSans-50"/>
      <use xlink:href="#DejaVuSans-65" x="56.677734"/>
      <use xlink:href="#DejaVuSans-6c" x="118.201172"/>
      <use xlink:href="#DejaVuSans-6c" x="145.984375"/>
      <use xlink:href="#DejaVuSans-65" x="173.767578"/>
      <use xlink:href="#DejaVuSans-74" x="235.291016"/>
      <use xlink:href="#DejaVuSans-5f" x="274.5"/>
      <use xlink:href="#DejaVuSans-43" x="324.5"/>
      <use xlink:href="#DejaVuSans-6f" x="394.324219"/>
      <use xlink:href="#DejaVuSans-75" x="455.505859"/>
      <use xlink:href="#DejaVuSans-6e" x="518.884766"/>
      <use xlink:href="#DejaVuSans-74" x="582.263672"/>
     </g>
    </g>
   </g>
   <g id="line2d_15">
    <path d="M 99.962273 344.397187 
L 100.163883 343.911794 
L 103.629497 343.911794 
L 103.639925 343.426401 
L 103.758111 343.426401 
L 103.765063 342.941008 
L 103.8902 342.941008 
L 104.00491 342.455614 
L 104.119619 341.484828 
L 104.230852 341.484828 
L 104.234328 340.999435 
L 106.027966 340.999435 
L 106.083583 340.514041 
L 106.215672 340.514041 
L 106.226101 340.028648 
L 108.819228 340.028648 
L 108.913081 339.057862 
L 109.013886 339.057862 
L 109.017362 338.572468 
L 109.180736 338.572468 
L 109.281542 337.601682 
L 113.862965 337.601682 
L 113.880345 337.116289 
L 113.991579 337.116289 
L 114.092384 336.145502 
L 114.168857 336.145502 
L 114.28009 335.174716 
L 114.551221 335.174716 
L 114.693739 334.203929 
L 114.926634 334.203929 
L 114.93011 333.718536 
L 115.069152 333.718536 
L 115.072628 333.233143 
L 115.22905 333.233143 
L 115.340283 332.262356 
L 123.741877 332.262356 
L 123.800969 331.776963 
L 124.225047 331.776963 
L 124.231999 331.29157 
L 129.713717 331.29157 
L 129.765858 330.806176 
L 130.182983 330.806176 
L 130.210791 330.320783 
L 130.374165 330.320783 
L 130.388069 329.83539 
L 132.849107 329.83539 
L 132.859535 329.349996 
L 147.333774 329.349996 
L 147.378963 328.864603 
L 147.688331 328.864603 
L 147.705711 328.37921 
L 147.900369 328.37921 
L 147.921226 327.893817 
L 148.063743 327.893817 
L 148.070695 327.408423 
L 150.983619 327.408423 
L 150.994047 326.92303 
L 151.140041 326.92303 
L 151.150469 326.437637 
L 151.452884 326.437637 
L 151.671875 325.952244 
L 151.863057 325.952244 
L 151.866533 325.46685 
L 152.082048 325.46685 
L 152.089 324.981457 
L 152.356655 324.981457 
L 152.370559 324.496064 
L 157.956559 324.496064 
L 157.973939 324.010671 
L 158.133837 324.010671 
L 158.144265 323.525277 
L 158.311115 323.525277 
L 158.422349 323.039884 
L 158.54401 322.069098 
L 158.686528 322.069098 
L 158.696956 321.583704 
L 158.818618 321.583704 
L 158.947231 320.612918 
L 159.051512 320.612918 
L 159.15927 320.127525 
L 164.342048 320.127525 
L 164.345524 319.642131 
L 164.477614 319.642131 
L 164.484566 319.156738 
L 164.734841 319.156738 
L 164.738317 318.671345 
L 165.092873 318.671345 
L 165.099826 318.185952 
L 165.221487 318.185952 
L 165.329244 317.215165 
L 165.44743 317.215165 
L 165.551711 316.244379 
L 165.662944 316.244379 
L 165.66642 315.758985 
L 165.788082 315.758985 
L 165.795034 315.273592 
L 171.606976 315.273592 
L 171.739066 314.302805 
L 171.860727 314.302805 
L 171.975437 313.332019 
L 174.540756 313.332019 
L 174.558136 312.846626 
L 174.742366 312.846626 
L 174.752794 312.361232 
L 175.858176 312.361232 
L 179.167368 311.875839 
L 179.17432 311.390446 
L 179.330742 311.390446 
L 179.334218 310.905053 
L 184.857649 310.905053 
L 184.864601 310.419659 
L 185.066211 310.419659 
L 185.184397 309.448873 
L 186.547005 309.448873 
L 186.658239 308.478086 
L 186.76252 308.478086 
L 186.765996 307.992693 
L 187.009319 307.992693 
L 187.089268 307.021907 
L 191.56641 307.021907 
L 191.58379 306.536513 
L 191.761068 306.536513 
L 191.771497 306.05112 
L 191.976583 306.05112 
L 191.980059 305.565727 
L 192.094768 305.565727 
L 192.105197 305.080334 
L 197.694672 305.080334 
L 197.701624 304.59494 
L 197.87195 304.59494 
L 197.875426 304.109547 
L 198.056181 304.109547 
L 198.070085 303.624154 
L 202.119674 303.624154 
L 202.241335 302.653367 
L 202.359521 302.653367 
L 202.470754 301.682581 
L 202.592416 301.682581 
L 202.602844 301.197187 
L 202.759266 301.197187 
L 202.870499 300.226401 
L 205.095166 300.226401 
L 205.102118 299.741008 
L 205.234208 299.741008 
L 205.24116 299.255614 
L 205.352393 299.255614 
L 205.470578 298.284828 
L 205.578336 298.284828 
L 205.585288 297.799435 
L 205.713901 297.799435 
L 205.821659 296.828648 
L 210.542124 296.828648 
L 210.549076 296.343255 
L 210.702022 296.343255 
L 210.802827 295.857862 
L 210.969677 295.857862 
L 210.990533 295.372468 
L 211.136527 295.372468 
L 211.140003 294.887075 
L 211.254713 294.887075 
L 211.258189 294.401682 
L 211.372898 294.401682 
L 211.470227 293.430895 
L 211.56408 293.430895 
L 211.567556 292.945502 
L 215.818756 292.945502 
L 215.822232 292.460109 
L 216.023842 292.460109 
L 216.023842 292.460109 
L 216.121171 291.489322 
L 216.232405 291.489322 
L 216.242833 291.003929 
L 216.385351 291.003929 
L 216.468776 290.033143 
L 216.566105 290.033143 
L 216.687766 289.062356 
L 233.762085 289.062356 
L 233.866366 288.09157 
L 233.974124 288.09157 
L 234.074929 287.120783 
L 234.168782 287.120783 
L 234.273063 286.149996 
L 234.366916 286.149996 
L 234.474674 285.17921 
L 234.558099 285.17921 
L 234.672808 284.208423 
L 234.759709 284.208423 
L 234.867466 283.72303 
L 251.048442 283.72303 
L 251.058871 283.237637 
L 251.253529 283.237637 
L 251.361286 282.752244 
L 251.420379 282.752244 
L 251.427331 282.26685 
L 251.538564 282.26685 
L 251.545516 281.781457 
L 251.688034 281.781457 
L 251.694986 281.296064 
L 251.830552 281.296064 
L 251.834028 280.810671 
L 258.483696 280.810671 
L 258.598406 280.325277 
L 258.622738 280.325277 
L 258.62969 279.839884 
L 258.747876 279.839884 
L 258.751352 279.354491 
L 270.535134 279.354491 
L 270.552515 278.869098 
L 270.701984 278.869098 
L 270.816694 278.383704 
L 270.830598 277.898311 
L 271.011352 277.898311 
L 271.02178 277.412918 
L 271.15387 277.412918 
L 271.157346 276.927525 
L 271.272055 276.927525 
L 271.279007 276.442131 
L 271.435429 276.442131 
L 271.442381 275.956738 
L 271.577947 275.956738 
L 271.588375 275.471345 
L 284.887712 275.471345 
L 284.894664 274.985952 
L 285.033706 274.985952 
L 285.144939 274.500558 
L 285.256173 274.500558 
L 285.370882 274.015165 
L 285.419547 274.015165 
L 285.423023 273.529772 
L 285.56554 273.529772 
L 285.569016 273.044379 
L 285.683726 273.044379 
L 285.774103 272.558985 
L 285.888812 272.558985 
L 285.993094 271.588199 
L 286.128659 271.588199 
L 286.135611 271.102805 
L 298.333043 271.102805 
L 298.353899 270.617412 
L 298.485989 270.617412 
L 298.492941 270.132019 
L 311.357773 270.132019 
L 311.479434 269.161232 
L 311.604572 269.161232 
L 311.611524 268.675839 
L 319.759367 268.675839 
L 319.769795 268.190446 
L 319.90536 268.190446 
L 319.90536 268.190446 
L 319.919264 267.705053 
L 320.166063 267.705053 
L 320.252965 266.734266 
L 320.350294 266.734266 
L 320.458051 265.76348 
L 320.548428 265.76348 
L 320.645757 264.792693 
L 320.746563 264.792693 
L 320.850844 263.821907 
L 343.128798 263.821907 
L 343.222651 262.85112 
L 343.292172 262.85112 
L 343.406881 261.880334 
L 343.497258 261.880334 
L 343.598063 260.909547 
L 343.702345 260.909547 
L 343.716249 260.424154 
L 360.161404 260.424154 
L 360.16488 259.938761 
L 360.404727 259.938761 
L 360.49858 259.453367 
L 360.613289 259.453367 
L 360.616765 258.967974 
L 360.933085 258.967974 
L 360.943513 258.482581 
L 361.082555 258.482581 
L 361.186836 257.511794 
L 361.423207 257.511794 
L 361.53444 256.541008 
L 377.850982 256.541008 
L 377.934407 255.570221 
L 378.04564 255.570221 
L 378.163826 255.084828 
L 378.181206 255.084828 
L 378.292439 254.114041 
L 378.487098 254.114041 
L 378.594855 253.143255 
L 378.67828 253.143255 
L 378.685232 252.657862 
L 386.280384 252.657862 
L 386.294288 252.172468 
L 386.492423 252.172468 
L 386.5828 251.201682 
L 386.728794 251.201682 
L 386.73227 250.716289 
L 386.843503 250.716289 
L 386.850455 250.230895 
L 386.975593 250.230895 
L 387.093778 249.745502 
L 387.11811 249.260109 
L 393.267229 249.260109 
L 393.37151 248.289322 
L 397.709611 248.289322 
L 397.716563 247.803929 
L 397.855604 247.803929 
L 397.85908 247.318536 
L 398.363106 247.318536 
L 398.366583 246.833143 
L 398.523004 246.833143 
L 398.540385 246.347749 
L 398.717663 246.347749 
L 398.80804 245.862356 
L 399.054839 244.406176 
L 399.169548 244.406176 
L 399.287734 243.43539 
L 399.367683 243.43539 
L 399.371159 242.949996 
L 405.287382 242.949996 
L 405.290858 242.464603 
L 405.492469 242.464603 
L 405.502897 241.97921 
L 405.617606 241.97921 
L 405.704507 241.008423 
L 405.787932 241.008423 
L 405.794884 240.52303 
L 417.728137 240.52303 
L 418.13831 238.096064 
L 418.294732 238.096064 
L 418.419869 237.125277 
L 418.482438 237.125277 
L 418.485914 236.639884 
L 418.65624 236.639884 
L 418.746617 235.669098 
L 418.871755 235.669098 
L 418.976036 235.183704 
L 428.243164 235.183704 
L 428.253592 234.698311 
L 431.270797 234.698311 
L 431.274273 234.212918 
L 431.423743 234.212918 
L 431.468931 233.727525 
L 432.045954 233.727525 
L 432.052906 233.242131 
L 432.212804 233.242131 
L 432.21628 232.756738 
L 436.251965 232.756738 
L 436.255441 232.271345 
L 436.526573 232.271345 
L 436.530049 231.785952 
L 442.171665 231.785952 
L 442.282898 230.815165 
L 442.43932 230.815165 
L 442.536649 229.844379 
L 442.661787 229.844379 
L 442.665263 229.358985 
L 442.821685 229.358985 
L 442.908586 228.388199 
L 444.650083 228.388199 
L 446.885178 227.902805 
L 453.319332 227.902805 
L 453.333236 227.417412 
L 453.503562 227.417412 
L 453.517466 226.932019 
L 454.170962 226.932019 
L 454.177914 226.446626 
L 454.469902 226.446626 
L 454.476854 225.961232 
L 458.164935 225.961232 
L 458.168411 225.475839 
L 458.536871 225.475839 
L 458.550775 224.990446 
L 459.635301 224.990446 
L 459.645729 224.505053 
L 465.057926 224.505053 
L 465.068354 224.019659 
L 465.749659 224.019659 
L 465.846988 223.534266 
L 468.248933 223.534266 
L 468.252409 223.048873 
L 468.381022 223.048873 
L 468.384498 222.56348 
L 468.495732 222.56348 
L 468.603489 221.592693 
L 468.679962 221.592693 
L 468.770339 220.621907 
L 468.846812 220.621907 
L 468.951093 219.65112 
L 470.703019 219.65112 
L 470.873345 219.165727 
L 483.394048 219.165727 
L 483.477473 218.19494 
L 483.713844 218.19494 
L 483.790317 217.224154 
L 483.870266 217.224154 
L 483.988451 216.253367 
L 484.429909 216.253367 
L 484.548094 215.282581 
L 484.648899 215.282581 
L 484.652375 214.797187 
L 484.770561 214.797187 
L 484.774037 214.311794 
L 490.276612 214.311794 
L 490.387845 213.341008 
L 496.098982 213.341008 
L 496.196311 212.370221 
L 496.331877 212.370221 
L 496.42573 211.399435 
L 496.509155 211.399435 
L 496.623864 210.914041 
L 501.094055 210.914041 
L 501.101007 210.428648 
L 503.496 210.428648 
L 503.516856 209.943255 
L 503.641993 209.943255 
L 503.756703 208.972468 
L 503.84708 208.972468 
L 503.958313 208.487075 
L 503.965265 208.001682 
L 504.107783 208.001682 
L 504.219016 207.030895 
L 505.223593 207.030895 
L 505.327874 206.060109 
L 505.449535 206.060109 
L 505.456487 205.574716 
L 512.168725 205.574716 
L 512.175677 205.089322 
L 512.356431 205.089322 
L 512.432904 204.118536 
L 512.519805 204.118536 
L 512.634514 203.147749 
L 512.704035 203.147749 
L 512.80484 202.176963 
L 512.888265 202.176963 
L 512.891741 201.69157 
L 513.034259 201.69157 
L 513.044687 201.206176 
L 514.476817 201.206176 
L 514.483769 200.720783 
L 515.756 200.720783 
L 515.87071 199.749996 
L 516.086224 199.749996 
L 516.093176 199.264603 
L 520.299187 199.264603 
L 520.306139 198.77921 
L 522.71156 198.77921 
L 522.721989 198.293817 
L 522.836698 198.293817 
L 523.36158 197.808423 
L 533.424722 197.808423 
L 533.43515 197.32303 
L 536.375882 197.32303 
L 536.38631 196.837637 
L 536.761723 196.837637 
L 536.768675 196.352244 
L 542.149588 196.352244 
L 542.149588 196.352244 
L 542.170444 195.86685 
L 542.441575 195.86685 
L 542.445051 195.381457 
L 542.573665 195.381457 
L 542.577141 194.896064 
L 546.956954 194.896064 
L 546.967382 194.410671 
L 547.16204 194.410671 
L 547.168993 193.925277 
L 550.401712 193.925277 
L 550.415616 193.439884 
L 550.61375 193.439884 
L 550.620702 192.954491 
L 553.053932 192.954491 
L 553.161689 191.983704 
L 553.252066 191.983704 
L 553.345919 191.012918 
L 553.425868 191.012918 
L 553.551006 190.042131 
L 553.676143 190.042131 
L 558.274947 189.556738 
L 560.920215 189.556738 
L 560.923691 189.071345 
L 561.055781 189.071345 
L 561.17049 188.100558 
L 561.271295 188.100558 
L 561.274771 187.615165 
L 561.399909 187.615165 
L 561.406861 187.129772 
L 568.039149 187.129772 
L 568.053053 186.644379 
L 576.624973 186.644379 
L 576.628449 186.158985 
L 576.757063 186.158985 
L 576.760539 185.673592 
L 576.896105 185.673592 
L 576.899581 185.188199 
L 597.533367 185.188199 
L 597.543795 184.702805 
L 597.832306 184.702805 
L 597.953968 183.732019 
L 598.082581 183.732019 
L 598.096485 183.246626 
L 607.55132 183.246626 
L 607.558272 182.761232 
L 608.003205 182.761232 
L 608.006681 182.275839 
L 608.145723 182.275839 
L 608.152675 181.790446 
L 610.022786 181.790446 
L 610.026262 181.305053 
L 616.453464 181.305053 
L 616.564697 180.334266 
L 620.193685 180.334266 
L 620.322298 179.36348 
L 620.42658 179.36348 
L 620.464816 178.878086 
L 621.79614 178.878086 
L 621.91085 178.392693 
L 622.866761 178.392693 
L 628.000875 177.9073 
L 635.342276 177.9073 
L 635.349228 177.421907 
L 642.475115 177.421907 
L 642.568968 176.45112 
L 642.662821 176.45112 
L 642.767102 175.480334 
L 651.895189 175.480334 
L 652.01685 174.509547 
L 656.341047 174.509547 
L 656.462708 174.024154 
L 656.532229 174.024154 
L 656.539181 173.538761 
L 656.897213 173.538761 
L 656.904166 173.053367 
L 662.07304 173.053367 
L 662.083468 172.567974 
L 665.298807 172.567974 
L 665.305759 172.082581 
L 665.423945 172.082581 
L 665.427421 171.597187 
L 668.847846 171.597187 
L 668.854798 171.111794 
L 673.526599 171.111794 
L 673.634356 170.141008 
L 673.714305 170.141008 
L 673.811634 169.170221 
L 673.905487 169.170221 
L 674.030625 168.199435 
L 674.121002 168.199435 
L 674.221807 167.228648 
L 678.983985 167.228648 
L 678.990937 166.743255 
L 683.659262 166.743255 
L 683.756591 165.772468 
L 683.833064 165.772468 
L 683.923441 164.801682 
L 684.031198 164.801682 
L 684.034674 164.316289 
L 691.216177 164.316289 
L 691.223129 163.830895 
L 691.337839 163.830895 
L 691.341315 163.345502 
L 691.47688 163.345502 
L 691.483832 162.860109 
L 698.59929 162.860109 
L 698.703572 161.889322 
L 698.776569 161.889322 
L 698.866946 160.918536 
L 698.946895 160.918536 
L 698.950371 160.433143 
L 699.085936 160.433143 
L 699.089412 159.947749 
L 704.877022 159.947749 
L 704.883975 159.462356 
L 705.009112 159.462356 
L 705.012588 158.976963 
L 705.16901 158.976963 
L 705.172486 158.49157 
L 708.182739 158.49157 
L 708.266164 157.520783 
L 708.353065 157.520783 
L 708.429538 156.549996 
L 708.530343 156.549996 
L 708.533819 156.064603 
L 708.77019 156.064603 
L 708.850139 155.093817 
L 708.943992 155.093817 
L 709.044797 154.12303 
L 714.60994 154.12303 
L 714.613416 153.637637 
L 714.999257 153.637637 
L 715.002733 153.152244 
L 715.246056 153.152244 
L 715.353813 152.181457 
L 715.44419 152.181457 
L 715.461571 151.696064 
L 715.583232 151.696064 
L 715.586708 151.210671 
L 719.2296 151.210671 
L 719.323453 150.239884 
L 724.690462 150.239884 
L 724.718271 149.754491 
L 725.01721 149.754491 
L 725.104111 148.783704 
L 725.225773 148.783704 
L 725.337006 147.812918 
L 727.085455 147.812918 
L 727.095884 147.327525 
L 730.863913 147.327525 
L 730.985575 146.356738 
L 731.093332 146.356738 
L 731.100284 145.871345 
L 731.830253 145.871345 
L 731.837205 145.385952 
L 733.001679 145.385952 
L 733.005155 144.900558 
L 737.711716 144.900558 
L 737.815997 143.929772 
L 738.85881 143.929772 
L 738.869238 143.444379 
L 742.981396 143.444379 
L 743.089153 142.473592 
L 743.183006 142.473592 
L 743.290764 141.502805 
L 743.370713 141.502805 
L 743.374189 141.017412 
L 744.994024 141.017412 
L 745.080925 140.046626 
L 753.524232 140.046626 
L 753.531184 139.561232 
L 753.816219 139.561232 
L 753.823171 139.075839 
L 754.601805 139.075839 
L 754.608757 138.590446 
L 754.744322 138.590446 
L 754.747798 138.105053 
L 764.32777 138.105053 
L 764.334723 137.619659 
L 764.842225 137.619659 
L 764.845701 137.134266 
L 771.676123 137.134266 
L 771.787357 136.16348 
L 773.796509 136.16348 
L 773.911219 135.678086 
L 773.925123 135.678086 
L 773.932075 135.192693 
L 774.342248 135.192693 
L 774.453481 134.221907 
L 774.554286 134.221907 
L 774.561238 133.736513 
L 779.382509 133.736513 
L 779.385985 133.25112 
L 779.591071 133.25112 
L 779.594547 132.765727 
L 779.705781 132.765727 
L 779.716209 132.280334 
L 783.004545 132.280334 
L 783.192251 131.79494 
L 790.241664 131.79494 
L 790.352898 131.309547 
L 790.467607 130.338761 
L 790.551032 130.338761 
L 790.554508 129.853367 
L 792.754843 129.853367 
L 792.758319 129.367974 
L 796.623678 129.367974 
L 796.734911 128.882581 
L 796.846144 127.911794 
L 798.208753 127.911794 
L 798.219181 127.426401 
L 802.317435 127.426401 
L 802.317435 127.426401 
L 802.446048 126.455614 
L 802.557281 126.455614 
L 802.560757 125.970221 
L 802.93617 125.970221 
L 802.939646 125.484828 
L 803.054355 125.484828 
L 803.057831 124.999435 
L 803.801704 124.999435 
L 803.805181 124.514041 
L 803.91989 124.514041 
L 804.031123 123.543255 
L 804.138881 123.543255 
L 804.149309 123.057862 
L 818.460174 123.057862 
L 818.578359 122.572468 
L 818.877299 122.572468 
L 818.995485 122.087075 
L 819.005913 122.087075 
L 819.120622 121.116289 
L 820.677889 121.116289 
L 820.681365 120.630895 
L 822.005737 120.630895 
L 822.110018 120.145502 
L 823.39963 120.145502 
L 824.421586 119.660109 
L 827.390126 119.660109 
L 827.529168 119.174716 
L 833.129072 119.174716 
L 833.136024 118.689322 
L 833.257685 118.689322 
L 833.351538 117.718536 
L 833.532293 117.718536 
L 833.643526 116.747749 
L 833.95637 116.747749 
L 833.977226 116.262356 
L 839.900402 116.262356 
L 839.907354 115.776963 
L 849.542942 115.776963 
L 849.556847 115.29157 
L 849.81755 115.29157 
L 849.821026 114.806176 
L 854.013133 114.806176 
L 854.016609 114.320783 
L 854.134794 114.320783 
L 854.228647 113.83539 
L 861.333677 113.83539 
L 861.437958 113.349996 
L 861.451863 113.349996 
L 861.458815 112.864603 
L 878.595702 112.864603 
L 878.599178 112.37921 
L 883.980091 112.37921 
L 883.987044 111.893817 
L 884.101753 111.893817 
L 884.105229 111.408423 
L 884.233843 111.408423 
L 884.254699 110.92303 
L 884.393741 110.92303 
L 884.404169 110.437637 
L 884.539734 110.437637 
L 884.54321 109.952244 
L 895.551836 109.952244 
L 895.562264 109.46685 
L 901.541056 109.46685 
L 901.544532 108.981457 
L 902.177172 108.981457 
L 902.180648 108.496064 
L 902.441351 108.496064 
L 902.545632 108.010671 
L 914.816061 108.010671 
L 914.819537 107.525277 
L 915.014195 107.525277 
L 915.017671 107.039884 
L 915.21233 107.039884 
L 915.215806 106.554491 
L 922.908287 106.554491 
L 922.915239 106.069098 
L 923.089041 106.069098 
L 923.102945 105.583704 
L 933.597116 105.583704 
L 933.604068 105.098311 
L 934.014241 105.098311 
L 934.021194 104.612918 
L 934.163711 104.612918 
L 934.170663 104.127525 
L 941.18184 104.127525 
L 941.29655 103.642131 
L 941.306978 103.642131 
L 941.397355 102.671345 
L 941.501636 102.671345 
L 941.63025 101.700558 
L 947.164109 101.700558 
L 947.171061 101.215165 
L 947.692467 101.215165 
L 947.699419 100.729772 
L 950.984279 100.729772 
L 950.987755 100.244379 
L 951.10594 100.244379 
L 951.20327 99.273592 
L 951.300599 99.273592 
L 951.300599 99.273592 
L 951.317979 98.788199 
L 958.224875 98.788199 
L 958.329156 97.817412 
L 958.416057 97.817412 
L 958.50991 97.332019 
L 958.537718 96.846626 
L 965.083106 96.846626 
L 965.090058 96.361232 
L 965.267336 96.361232 
L 965.270812 95.875839 
L 969.372542 95.875839 
L 969.487251 95.390446 
L 969.508107 95.390446 
L 969.515059 94.905053 
L 975.382618 94.905053 
L 975.386094 94.419659 
L 975.827552 94.419659 
L 975.935309 93.448873 
L 981.455264 93.448873 
L 981.566497 92.478086 
L 981.66035 92.478086 
L 981.663826 91.992693 
L 987.649571 91.992693 
L 987.656523 91.5073 
L 987.795565 91.5073 
L 987.802517 91.021907 
L 987.917226 91.021907 
L 987.924178 90.536513 
L 988.035412 90.536513 
L 988.035412 90.536513 
L 988.04584 90.05112 
L 988.164025 90.05112 
L 988.174453 89.565727 
L 996.607331 89.565727 
L 996.61776 89.080334 
L 996.777658 89.080334 
L 996.874987 88.109547 
L 996.979268 88.109547 
L 997.076597 87.138761 
L 997.205211 87.138761 
L 997.226067 86.653367 
L 1001.929152 86.653367 
L 1001.936104 86.167974 
L 1003.886164 86.167974 
L 1003.88964 85.682581 
L 1004.014777 85.682581 
L 1004.018253 85.197187 
L 1004.497947 85.197187 
L 1004.504899 84.711794 
L 1009.096751 84.711794 
L 1009.107179 84.226401 
L 1009.218412 84.226401 
L 1009.225364 83.741008 
L 1011.317942 83.741008 
L 1011.324894 83.255614 
L 1011.620357 83.255614 
L 1011.623833 82.770221 
L 1014.94693 82.770221 
L 1015.061639 81.799435 
L 1015.193729 81.799435 
L 1015.200681 81.314041 
L 1015.322342 81.314041 
L 1015.329294 80.828648 
L 1019.709107 80.828648 
L 1019.809912 80.343255 
L 1019.837721 80.343255 
L 1019.841197 79.857862 
L 1019.959382 79.857862 
L 1019.96981 79.372468 
L 1020.13666 79.372468 
L 1020.143612 78.887075 
L 1020.258322 78.887075 
L 1020.261798 78.401682 
L 1020.421696 78.401682 
L 1020.522501 77.430895 
L 1021.353275 77.430895 
L 1021.363703 76.945502 
L 1022.163193 76.945502 
L 1022.267474 76.460109 
L 1022.309187 75.974716 
L 1022.434324 75.974716 
L 1022.441276 75.489322 
L 1028.951903 75.489322 
L 1028.962331 75.003929 
L 1029.37598 75.003929 
L 1029.480262 74.033143 
L 1030.853298 74.033143 
L 1030.863726 73.547749 
L 1030.985388 73.547749 
L 1030.99234 73.062356 
L 1033.453378 73.062356 
L 1033.554183 72.09157 
L 1033.641084 72.09157 
L 1033.648036 71.606176 
L 1034.607424 71.606176 
L 1034.62828 71.120783 
L 1036.818186 71.120783 
L 1036.828615 70.63539 
L 1037.037177 70.63539 
L 1037.044129 70.149996 
L 1039.887532 70.149996 
L 1039.891008 69.664603 
L 1041.006817 69.664603 
L 1041.121527 68.693817 
L 1041.257092 68.693817 
L 1041.26752 68.208423 
L 1041.38223 68.208423 
L 1041.385706 67.72303 
L 1041.674217 67.72303 
L 1041.681169 67.237637 
L 1042.932544 67.237637 
L 1042.946449 66.752244 
L 1049.738635 66.752244 
L 1049.853344 65.781457 
L 1050.00629 65.781457 
L 1050.009766 65.296064 
L 1052.102344 65.296064 
L 1052.206625 64.810671 
L 1052.224005 64.810671 
L 1052.328286 64.325277 
L 1052.352619 64.325277 
L 1052.453424 63.354491 
L 1052.582037 63.354491 
L 1052.665462 62.869098 
L 1057.702247 62.869098 
L 1057.709199 62.383704 
L 1058.143705 62.383704 
L 1058.254938 61.898311 
L 1058.272318 61.898311 
L 1058.27927 61.412918 
L 1060.58041 61.412918 
L 1060.583886 60.927525 
L 1066.562679 60.927525 
L 1066.663484 59.956738 
L 1066.750385 59.956738 
L 1066.750385 59.956738 
L 1066.861618 58.985952 
L 1070.094337 58.985952 
L 1070.101289 58.500558 
L 1072.336385 58.500558 
L 1072.343337 58.015165 
L 1079.862016 58.015165 
L 1079.868968 57.529772 
L 1079.987153 57.529772 
L 1079.990629 57.044379 
L 1080.101863 57.044379 
L 1080.105339 56.558985 
L 1084.992654 56.558985 
L 1085.107363 55.588199 
L 1085.225549 55.588199 
L 1085.354162 54.617412 
L 1091.086156 54.617412 
L 1091.096584 54.132019 
L 1091.214769 54.132019 
L 1091.322526 53.161232 
L 1091.409428 53.161232 
L 1091.517185 52.675839 
L 1091.527613 52.190446 
L 1096.397548 52.190446 
L 1096.487925 51.219659 
L 1096.547018 51.219659 
L 1096.647823 50.248873 
L 1096.731248 50.248873 
L 1096.828577 49.278086 
L 1096.953715 49.278086 
L 1097.044092 48.792693 
L 1097.231798 47.821907 
L 1102.362436 47.821907 
L 1102.369388 47.336513 
L 1102.880366 47.336513 
L 1102.883843 46.85112 
L 1103.005504 46.85112 
L 1103.106309 45.880334 
L 1103.21059 45.880334 
L 1103.214067 45.39494 
L 1104.215167 45.39494 
L 1104.249927 44.909547 
L 1106.036613 44.909547 
L 1106.151322 43.938761 
L 1106.856959 43.938761 
L 1106.863911 43.453367 
L 1107.072473 43.453367 
L 1107.079425 42.967974 
L 1107.208039 42.967974 
L 1107.211515 42.482581 
L 1108.375989 42.482581 
L 1108.396845 41.997187 
L 1114.507727 41.997187 
L 1114.507727 41.997187 
" clip-path="url(#p1f2ad0a828)" style="fill: none; stroke: #0000ff; stroke-width: 1.5; stroke-linecap: square"/>
   </g>
   <g id="patch_119">
    <path d="M 49.235 359.517187 
L 49.235 26.877187 
" style="fill: none; stroke: #000000; stroke-width: 0.8; stroke-linejoin: miter; stroke-linecap: square"/>
   </g>
   <g id="patch_120">
    <path d="M 1165.235 359.517187 
L 1165.235 26.877187 
" style="fill: none; stroke: #000000; stroke-width: 0.8; stroke-linejoin: miter; stroke-linecap: square"/>
   </g>
   <g id="patch_121">
    <path d="M 49.235 359.517187 
L 1165.235 359.517187 
" style="fill: none; stroke: #000000; stroke-width: 0.8; stroke-linejoin: miter; stroke-linecap: square"/>
   </g>
   <g id="patch_122">
    <path d="M 49.235 26.877187 
L 1165.235 26.877187 
" style="fill: none; stroke: #000000; stroke-width: 0.8; stroke-linejoin: miter; stroke-linecap: square"/>
   </g>
   <g id="text_17">
    <!-- Pellet Count and Cumulative Sum Over Time of Group 6 Mouse 3 -->
    <g transform="translate(315.460625 20.877187) scale(0.18 -0.18)">
     <defs>
      <path id="DejaVuSans-61" d="M 2194 1759 
Q 1497 1759 1228 1600 
Q 959 1441 959 1056 
Q 959 750 1161 570 
Q 1363 391 1709 391 
Q 2188 391 2477 730 
Q 2766 1069 2766 1631 
L 2766 1759 
L 2194 1759 
z
M 3341 1997 
L 3341 0 
L 2766 0 
L 2766 531 
Q 2569 213 2275 61 
Q 1981 -91 1556 -91 
Q 1019 -91 701 211 
Q 384 513 384 1019 
Q 384 1609 779 1909 
Q 1175 2209 1959 2209 
L 2766 2209 
L 2766 2266 
Q 2766 2663 2505 2880 
Q 2244 3097 1772 3097 
Q 1472 3097 1187 3025 
Q 903 2953 641 2809 
L 641 3341 
Q 956 3463 1253 3523 
Q 1550 3584 1831 3584 
Q 2591 3584 2966 3190 
Q 3341 2797 3341 1997 
z
" transform="scale(0.015625)"/>
      <path id="DejaVuSans-64" d="M 2906 2969 
L 2906 4863 
L 3481 4863 
L 3481 0 
L 2906 0 
L 2906 525 
Q 2725 213 2448 61 
Q 2172 -91 1784 -91 
Q 1150 -91 751 415 
Q 353 922 353 1747 
Q 353 2572 751 3078 
Q 1150 3584 1784 3584 
Q 2172 3584 2448 3432 
Q 2725 3281 2906 2969 
z
M 947 1747 
Q 947 1113 1208 752 
Q 1469 391 1925 391 
Q 2381 391 2643 752 
Q 2906 1113 2906 1747 
Q 2906 2381 2643 2742 
Q 2381 3103 1925 3103 
Q 1469 3103 1208 2742 
Q 947 2381 947 1747 
z
" transform="scale(0.015625)"/>
      <path id="DejaVuSans-76" d="M 191 3500 
L 800 3500 
L 1894 563 
L 2988 3500 
L 3597 3500 
L 2284 0 
L 1503 0 
L 191 3500 
z
" transform="scale(0.015625)"/>
      <path id="DejaVuSans-53" d="M 3425 4513 
L 3425 3897 
Q 3066 4069 2747 4153 
Q 2428 4238 2131 4238 
Q 1616 4238 1336 4038 
Q 1056 3838 1056 3469 
Q 1056 3159 1242 3001 
Q 1428 2844 1947 2747 
L 2328 2669 
Q 3034 2534 3370 2195 
Q 3706 1856 3706 1288 
Q 3706 609 3251 259 
Q 2797 -91 1919 -91 
Q 1588 -91 1214 -16 
Q 841 59 441 206 
L 441 856 
Q 825 641 1194 531 
Q 1563 422 1919 422 
Q 2459 422 2753 634 
Q 3047 847 3047 1241 
Q 3047 1584 2836 1778 
Q 2625 1972 2144 2069 
L 1759 2144 
Q 1053 2284 737 2584 
Q 422 2884 422 3419 
Q 422 4038 858 4394 
Q 1294 4750 2059 4750 
Q 2388 4750 2728 4690 
Q 3069 4631 3425 4513 
z
" transform="scale(0.015625)"/>
      <path id="DejaVuSans-4f" d="M 2522 4238 
Q 1834 4238 1429 3725 
Q 1025 3213 1025 2328 
Q 1025 1447 1429 934 
Q 1834 422 2522 422 
Q 3209 422 3611 934 
Q 4013 1447 4013 2328 
Q 4013 3213 3611 3725 
Q 3209 4238 2522 4238 
z
M 2522 4750 
Q 3503 4750 4090 4092 
Q 4678 3434 4678 2328 
Q 4678 1225 4090 567 
Q 3503 -91 2522 -91 
Q 1538 -91 948 565 
Q 359 1222 359 2328 
Q 359 3434 948 4092 
Q 1538 4750 2522 4750 
z
" transform="scale(0.015625)"/>
      <path id="DejaVuSans-72" d="M 2631 2963 
Q 2534 3019 2420 3045 
Q 2306 3072 2169 3072 
Q 1681 3072 1420 2755 
Q 1159 2438 1159 1844 
L 1159 0 
L 581 0 
L 581 3500 
L 1159 3500 
L 1159 2956 
Q 1341 3275 1631 3429 
Q 1922 3584 2338 3584 
Q 2397 3584 2469 3576 
Q 2541 3569 2628 3553 
L 2631 2963 
z
" transform="scale(0.015625)"/>
      <path id="DejaVuSans-66" d="M 2375 4863 
L 2375 4384 
L 1825 4384 
Q 1516 4384 1395 4259 
Q 1275 4134 1275 3809 
L 1275 3500 
L 2222 3500 
L 2222 3053 
L 1275 3053 
L 1275 0 
L 697 0 
L 697 3053 
L 147 3053 
L 147 3500 
L 697 3500 
L 697 3744 
Q 697 4328 969 4595 
Q 1241 4863 1831 4863 
L 2375 4863 
z
" transform="scale(0.015625)"/>
      <path id="DejaVuSans-47" d="M 3809 666 
L 3809 1919 
L 2778 1919 
L 2778 2438 
L 4434 2438 
L 4434 434 
Q 4069 175 3628 42 
Q 3188 -91 2688 -91 
Q 1594 -91 976 548 
Q 359 1188 359 2328 
Q 359 3472 976 4111 
Q 1594 4750 2688 4750 
Q 3144 4750 3555 4637 
Q 3966 4525 4313 4306 
L 4313 3634 
Q 3963 3931 3569 4081 
Q 3175 4231 2741 4231 
Q 1884 4231 1454 3753 
Q 1025 3275 1025 2328 
Q 1025 1384 1454 906 
Q 1884 428 2741 428 
Q 3075 428 3337 486 
Q 3600 544 3809 666 
z
" transform="scale(0.015625)"/>
      <path id="DejaVuSans-70" d="M 1159 525 
L 1159 -1331 
L 581 -1331 
L 581 3500 
L 1159 3500 
L 1159 2969 
Q 1341 3281 1617 3432 
Q 1894 3584 2278 3584 
Q 2916 3584 3314 3078 
Q 3713 2572 3713 1747 
Q 3713 922 3314 415 
Q 2916 -91 2278 -91 
Q 1894 -91 1617 61 
Q 1341 213 1159 525 
z
M 3116 1747 
Q 3116 2381 2855 2742 
Q 2594 3103 2138 3103 
Q 1681 3103 1420 2742 
Q 1159 2381 1159 1747 
Q 1159 1113 1420 752 
Q 1681 391 2138 391 
Q 2594 391 2855 752 
Q 3116 1113 3116 1747 
z
" transform="scale(0.015625)"/>
      <path id="DejaVuSans-4d" d="M 628 4666 
L 1569 4666 
L 2759 1491 
L 3956 4666 
L 4897 4666 
L 4897 0 
L 4281 0 
L 4281 4097 
L 3078 897 
L 2444 897 
L 1241 4097 
L 1241 0 
L 628 0 
L 628 4666 
z
" transform="scale(0.015625)"/>
      <path id="DejaVuSans-73" d="M 2834 3397 
L 2834 2853 
Q 2591 2978 2328 3040 
Q 2066 3103 1784 3103 
Q 1356 3103 1142 2972 
Q 928 2841 928 2578 
Q 928 2378 1081 2264 
Q 1234 2150 1697 2047 
L 1894 2003 
Q 2506 1872 2764 1633 
Q 3022 1394 3022 966 
Q 3022 478 2636 193 
Q 2250 -91 1575 -91 
Q 1294 -91 989 -36 
Q 684 19 347 128 
L 347 722 
Q 666 556 975 473 
Q 1284 391 1588 391 
Q 1994 391 2212 530 
Q 2431 669 2431 922 
Q 2431 1156 2273 1281 
Q 2116 1406 1581 1522 
L 1381 1569 
Q 847 1681 609 1914 
Q 372 2147 372 2553 
Q 372 3047 722 3315 
Q 1072 3584 1716 3584 
Q 2034 3584 2315 3537 
Q 2597 3491 2834 3397 
z
" transform="scale(0.015625)"/>
     </defs>
     <use xlink:href="#DejaVuSans-50"/>
     <use xlink:href="#DejaVuSans-65" x="56.677734"/>
     <use xlink:href="#DejaVuSans-6c" x="118.201172"/>
     <use xlink:href="#DejaVuSans-6c" x="145.984375"/>
     <use xlink:href="#DejaVuSans-65" x="173.767578"/>
     <use xlink:href="#DejaVuSans-74" x="235.291016"/>
     <use xlink:href="#DejaVuSans-20" x="274.5"/>
     <use xlink:href="#DejaVuSans-43" x="306.287109"/>
     <use xlink:href="#DejaVuSans-6f" x="376.111328"/>
     <use xlink:href="#DejaVuSans-75" x="437.292969"/>
     <use xlink:href="#DejaVuSans-6e" x="500.671875"/>
     <use xlink:href="#DejaVuSans-74" x="564.050781"/>
     <use xlink:href="#DejaVuSans-20" x="603.259766"/>
     <use xlink:href="#DejaVuSans-61" x="635.046875"/>
     <use xlink:href="#DejaVuSans-6e" x="696.326172"/>
     <use xlink:href="#DejaVuSans-64" x="759.705078"/>
     <use xlink:href="#DejaVuSans-20" x="823.181641"/>
     <use xlink:href="#DejaVuSans-43" x="854.96875"/>
     <use xlink:href="#DejaVuSans-75" x="924.792969"/>
     <use xlink:href="#DejaVuSans-6d" x="988.171875"/>
     <use xlink:href="#DejaVuSans-75" x="1085.583984"/>
     <use xlink:href="#DejaVuSans-6c" x="1148.962891"/>
     <use xlink:href="#DejaVuSans-61" x="1176.746094"/>
     <use xlink:href="#DejaVuSans-74" x="1238.025391"/>
     <use xlink:href="#DejaVuSans-69" x="1277.234375"/>
     <use xlink:href="#DejaVuSans-76" x="1305.017578"/>
     <use xlink:href="#DejaVuSans-65" x="1364.197266"/>
     <use xlink:href="#DejaVuSans-20" x="1425.720703"/>
     <use xlink:href="#DejaVuSans-53" x="1457.507812"/>
     <use xlink:href="#DejaVuSans-75" x="1520.984375"/>
     <use xlink:href="#DejaVuSans-6d" x="1584.363281"/>
     <use xlink:href="#DejaVuSans-20" x="1681.775391"/>
     <use xlink:href="#DejaVuSans-4f" x="1713.5625"/>
     <use xlink:href="#DejaVuSans-76" x="1792.273438"/>
     <use xlink:href="#DejaVuSans-65" x="1851.453125"/>
     <use xlink:href="#DejaVuSans-72" x="1912.976562"/>
     <use xlink:href="#DejaVuSans-20" x="1954.089844"/>
     <use xlink:href="#DejaVuSans-54" x="1985.876953"/>
     <use xlink:href="#DejaVuSans-69" x="2043.835938"/>
     <use xlink:href="#DejaVuSans-6d" x="2071.619141"/>
     <use xlink:href="#DejaVuSans-65" x="2169.03125"/>
     <use xlink:href="#DejaVuSans-20" x="2230.554688"/>
     <use xlink:href="#DejaVuSans-6f" x="2262.341797"/>
     <use xlink:href="#DejaVuSans-66" x="2323.523438"/>
     <use xlink:href="#DejaVuSans-20" x="2358.728516"/>
     <use xlink:href="#DejaVuSans-47" x="2390.515625"/>
     <use xlink:href="#DejaVuSans-72" x="2468.005859"/>
     <use xlink:href="#DejaVuSans-6f" x="2506.869141"/>
     <use xlink:href="#DejaVuSans-75" x="2568.050781"/>
     <use xlink:href="#DejaVuSans-70" x="2631.429688"/>
     <use xlink:href="#DejaVuSans-20" x="2694.90625"/>
     <use xlink:href="#DejaVuSans-36" x="2726.693359"/>
     <use xlink:href="#DejaVuSans-20" x="2790.316406"/>
     <use xlink:href="#DejaVuSans-4d" x="2822.103516"/>
     <use xlink:href="#DejaVuSans-6f" x="2908.382812"/>
     <use xlink:href="#DejaVuSans-75" x="2969.564453"/>
     <use xlink:href="#DejaVuSans-73" x="3032.943359"/>
     <use xlink:href="#DejaVuSans-65" x="3085.042969"/>
     <use xlink:href="#DejaVuSans-20" x="3146.566406"/>
     <use xlink:href="#DejaVuSans-33" x="3178.353516"/>
    </g>
   </g>
   <g id="legend_1">
    <g id="patch_123">
     <path d="M 1086.550625 64.233437 
L 1158.235 64.233437 
Q 1160.235 64.233437 1160.235 62.233437 
L 1160.235 33.877187 
Q 1160.235 31.877187 1158.235 31.877187 
L 1086.550625 31.877187 
Q 1084.550625 31.877187 1084.550625 33.877187 
L 1084.550625 62.233437 
Q 1084.550625 64.233437 1086.550625 64.233437 
z
" style="fill: #ffffff; opacity: 0.8; stroke: #cccccc; stroke-linejoin: miter"/>
    </g>
    <g id="patch_124">
     <path d="M 1088.550625 43.475625 
L 1108.550625 43.475625 
L 1108.550625 36.475625 
L 1088.550625 36.475625 
z
" style="fill: #add8e6; opacity: 0.9; stroke: #add8e6; stroke-linejoin: miter"/>
    </g>
    <g id="text_18">
     <!-- Meal -->
     <g transform="translate(1116.550625 43.475625) scale(0.1 -0.1)">
      <use xlink:href="#DejaVuSans-4d"/>
      <use xlink:href="#DejaVuSans-65" x="86.279297"/>
      <use xlink:href="#DejaVuSans-61" x="147.802734"/>
      <use xlink:href="#DejaVuSans-6c" x="209.082031"/>
     </g>
    </g>
    <g id="patch_125">
     <path d="M 1088.550625 58.15375 
L 1108.550625 58.15375 
L 1108.550625 51.15375 
L 1088.550625 51.15375 
z
" style="fill: #808080; opacity: 0.5; stroke: #808080; stroke-linejoin: miter"/>
    </g>
    <g id="text_19">
     <!-- Inactive -->
     <g transform="translate(1116.550625 58.15375) scale(0.1 -0.1)">
      <defs>
       <path id="DejaVuSans-49" d="M 628 4666 
L 1259 4666 
L 1259 0 
L 628 0 
L 628 4666 
z
" transform="scale(0.015625)"/>
       <path id="DejaVuSans-63" d="M 3122 3366 
L 3122 2828 
Q 2878 2963 2633 3030 
Q 2388 3097 2138 3097 
Q 1578 3097 1268 2742 
Q 959 2388 959 1747 
Q 959 1106 1268 751 
Q 1578 397 2138 397 
Q 2388 397 2633 464 
Q 2878 531 3122 666 
L 3122 134 
Q 2881 22 2623 -34 
Q 2366 -91 2075 -91 
Q 1284 -91 818 406 
Q 353 903 353 1747 
Q 353 2603 823 3093 
Q 1294 3584 2113 3584 
Q 2378 3584 2631 3529 
Q 2884 3475 3122 3366 
z
" transform="scale(0.015625)"/>
      </defs>
      <use xlink:href="#DejaVuSans-49"/>
      <use xlink:href="#DejaVuSans-6e" x="29.492188"/>
      <use xlink:href="#DejaVuSans-61" x="92.871094"/>
      <use xlink:href="#DejaVuSans-63" x="154.150391"/>
      <use xlink:href="#DejaVuSans-74" x="209.130859"/>
      <use xlink:href="#DejaVuSans-69" x="248.339844"/>
      <use xlink:href="#DejaVuSans-76" x="276.123047"/>
      <use xlink:href="#DejaVuSans-65" x="335.302734"/>
     </g>
    </g>
   </g>
  </g>
 </g>
 <defs>
  <clipPath id="p1f2ad0a828">
   <rect x="49.235" y="26.877187" width="1116" height="332.64"/>
  </clipPath>
 </defs>
</svg>
