<?xml version="1.0" encoding="utf-8" standalone="no"?>
<!DOCTYPE svg PUBLIC "-//W3C//DTD SVG 1.1//EN"
  "http://www.w3.org/Graphics/SVG/1.1/DTD/svg11.dtd">
<svg xmlns:xlink="http://www.w3.org/1999/xlink" width="1178.7975pt" height="399.009062pt" viewBox="0 0 1178.7975 399.009062" xmlns="http://www.w3.org/2000/svg" version="1.1">
 <metadata>
  <rdf:RDF xmlns:dc="http://purl.org/dc/elements/1.1/" xmlns:cc="http://creativecommons.org/ns#" xmlns:rdf="http://www.w3.org/1999/02/22-rdf-syntax-ns#">
   <cc:Work>
    <dc:type rdf:resource="http://purl.org/dc/dcmitype/StillImage"/>
    <dc:date>2025-04-10T14:49:47.697721</dc:date>
    <dc:format>image/svg+xml</dc:format>
    <dc:creator>
     <cc:Agent>
      <dc:title>Matplotlib v3.8.3, https://matplotlib.org/</dc:title>
     </cc:Agent>
    </dc:creator>
   </cc:Work>
  </rdf:RDF>
 </metadata>
 <defs>
  <style type="text/css">*{stroke-linejoin: round; stroke-linecap: butt}</style>
 </defs>
 <g id="figure_1">
  <g id="patch_1">
   <path d="M 0 399.009062 
L 1178.7975 399.009062 
L 1178.7975 0 
L 0 0 
z
" style="fill: #ffffff"/>
  </g>
  <g id="axes_1">
   <g id="patch_2">
    <path d="M 55.5975 359.517187 
L 1171.5975 359.517187 
L 1171.5975 26.877187 
L 55.5975 26.877187 
z
" style="fill: #ffffff"/>
   </g>
   <g id="patch_3">
    <path d="M 113.823622 359.517187 
L 113.823622 26.877187 
L 113.820812 26.877187 
L 113.820812 359.517187 
z
" clip-path="url(#pf6d950aa92)" style="fill: #add8e6; stroke: #add8e6; stroke-linejoin: miter"/>
   </g>
   <g id="patch_4">
    <path d="M 114.067589 359.517187 
L 114.067589 26.877187 
L 113.809574 26.877187 
L 113.809574 359.517187 
z
" clip-path="url(#pf6d950aa92)" style="fill: #add8e6; stroke: #add8e6; stroke-linejoin: miter"/>
   </g>
   <g id="patch_5">
    <path d="M 128.790414 359.517187 
L 128.790414 26.877187 
L 128.878916 26.877187 
L 128.878916 359.517187 
z
" clip-path="url(#pf6d950aa92)" style="fill: #add8e6; stroke: #add8e6; stroke-linejoin: miter"/>
   </g>
   <g id="patch_6">
    <path d="M 137.075485 359.517187 
L 137.075485 26.877187 
L 135.112972 26.877187 
L 135.112972 359.517187 
z
" clip-path="url(#pf6d950aa92)" style="fill: #add8e6; stroke: #add8e6; stroke-linejoin: miter"/>
   </g>
   <g id="patch_7">
    <path d="M 144.120582 359.517187 
L 144.120582 26.877187 
L 144.230157 26.877187 
L 144.230157 359.517187 
z
" clip-path="url(#pf6d950aa92)" style="fill: #add8e6; stroke: #add8e6; stroke-linejoin: miter"/>
   </g>
   <g id="patch_8">
    <path d="M 144.286817 359.517187 
L 144.286817 26.877187 
L 144.293373 26.877187 
L 144.293373 359.517187 
z
" clip-path="url(#pf6d950aa92)" style="fill: #add8e6; stroke: #add8e6; stroke-linejoin: miter"/>
   </g>
   <g id="patch_9">
    <path d="M 149.852654 359.517187 
L 149.852654 26.877187 
L 149.952395 26.877187 
L 149.952395 359.517187 
z
" clip-path="url(#pf6d950aa92)" style="fill: #add8e6; stroke: #add8e6; stroke-linejoin: miter"/>
   </g>
   <g id="patch_10">
    <path d="M 150.014207 359.517187 
L 150.014207 26.877187 
L 150.0512 26.877187 
L 150.0512 359.517187 
z
" clip-path="url(#pf6d950aa92)" style="fill: #add8e6; stroke: #add8e6; stroke-linejoin: miter"/>
   </g>
   <g id="patch_11">
    <path d="M 150.156092 359.517187 
L 150.156092 26.877187 
L 150.281588 26.877187 
L 150.281588 359.517187 
z
" clip-path="url(#pf6d950aa92)" style="fill: #add8e6; stroke: #add8e6; stroke-linejoin: miter"/>
   </g>
   <g id="patch_12">
    <path d="M 150.311557 359.517187 
L 150.311557 26.877187 
L 150.384139 26.877187 
L 150.384139 359.517187 
z
" clip-path="url(#pf6d950aa92)" style="fill: #add8e6; stroke: #add8e6; stroke-linejoin: miter"/>
   </g>
   <g id="patch_13">
    <path d="M 163.665633 359.517187 
L 163.665633 26.877187 
L 163.377648 26.877187 
L 163.377648 359.517187 
z
" clip-path="url(#pf6d950aa92)" style="fill: #add8e6; stroke: #add8e6; stroke-linejoin: miter"/>
   </g>
   <g id="patch_14">
    <path d="M 175.546069 359.517187 
L 175.546069 26.877187 
L 169.981636 26.877187 
L 169.981636 359.517187 
z
" clip-path="url(#pf6d950aa92)" style="fill: #add8e6; stroke: #add8e6; stroke-linejoin: miter"/>
   </g>
   <g id="patch_15">
    <path d="M 179.989935 359.517187 
L 179.989935 26.877187 
L 175.768964 26.877187 
L 175.768964 359.517187 
z
" clip-path="url(#pf6d950aa92)" style="fill: #add8e6; stroke: #add8e6; stroke-linejoin: miter"/>
   </g>
   <g id="patch_16">
    <path d="M 180.33739 359.517187 
L 180.33739 26.877187 
L 177.612537 26.877187 
L 177.612537 359.517187 
z
" clip-path="url(#pf6d950aa92)" style="fill: #add8e6; stroke: #add8e6; stroke-linejoin: miter"/>
   </g>
   <g id="patch_17">
    <path d="M 186.854748 359.517187 
L 186.854748 26.877187 
L 180.976108 26.877187 
L 180.976108 359.517187 
z
" clip-path="url(#pf6d950aa92)" style="fill: #add8e6; stroke: #add8e6; stroke-linejoin: miter"/>
   </g>
   <g id="patch_18">
    <path d="M 188.814451 359.517187 
L 188.814451 26.877187 
L 183.030401 26.877187 
L 183.030401 359.517187 
z
" clip-path="url(#pf6d950aa92)" style="fill: #add8e6; stroke: #add8e6; stroke-linejoin: miter"/>
   </g>
   <g id="patch_19">
    <path d="M 201.413679 359.517187 
L 201.413679 26.877187 
L 201.464252 26.877187 
L 201.464252 359.517187 
z
" clip-path="url(#pf6d950aa92)" style="fill: #add8e6; stroke: #add8e6; stroke-linejoin: miter"/>
   </g>
   <g id="patch_20">
    <path d="M 212.379586 359.517187 
L 212.379586 26.877187 
L 212.119697 26.877187 
L 212.119697 359.517187 
z
" clip-path="url(#pf6d950aa92)" style="fill: #add8e6; stroke: #add8e6; stroke-linejoin: miter"/>
   </g>
   <g id="patch_21">
    <path d="M 214.30651 359.517187 
L 214.30651 26.877187 
L 214.340694 26.877187 
L 214.340694 359.517187 
z
" clip-path="url(#pf6d950aa92)" style="fill: #add8e6; stroke: #add8e6; stroke-linejoin: miter"/>
   </g>
   <g id="patch_22">
    <path d="M 215.09086 359.517187 
L 215.09086 26.877187 
L 214.689554 26.877187 
L 214.689554 359.517187 
z
" clip-path="url(#pf6d950aa92)" style="fill: #add8e6; stroke: #add8e6; stroke-linejoin: miter"/>
   </g>
   <g id="patch_23">
    <path d="M 222.371495 359.517187 
L 222.371495 26.877187 
L 222.499333 26.877187 
L 222.499333 359.517187 
z
" clip-path="url(#pf6d950aa92)" style="fill: #add8e6; stroke: #add8e6; stroke-linejoin: miter"/>
   </g>
   <g id="patch_24">
    <path d="M 224.756386 359.517187 
L 224.756386 26.877187 
L 224.041809 26.877187 
L 224.041809 359.517187 
z
" clip-path="url(#pf6d950aa92)" style="fill: #add8e6; stroke: #add8e6; stroke-linejoin: miter"/>
   </g>
   <g id="patch_25">
    <path d="M 227.695238 359.517187 
L 227.695238 26.877187 
L 226.032417 26.877187 
L 226.032417 359.517187 
z
" clip-path="url(#pf6d950aa92)" style="fill: #add8e6; stroke: #add8e6; stroke-linejoin: miter"/>
   </g>
   <g id="patch_26">
    <path d="M 241.824766 359.517187 
L 241.824766 26.877187 
L 241.451088 26.877187 
L 241.451088 359.517187 
z
" clip-path="url(#pf6d950aa92)" style="fill: #add8e6; stroke: #add8e6; stroke-linejoin: miter"/>
   </g>
   <g id="patch_27">
    <path d="M 245.648177 359.517187 
L 245.648177 26.877187 
L 245.74745 26.877187 
L 245.74745 359.517187 
z
" clip-path="url(#pf6d950aa92)" style="fill: #add8e6; stroke: #add8e6; stroke-linejoin: miter"/>
   </g>
   <g id="patch_28">
    <path d="M 245.803174 359.517187 
L 245.803174 26.877187 
L 245.909471 26.877187 
L 245.909471 359.517187 
z
" clip-path="url(#pf6d950aa92)" style="fill: #add8e6; stroke: #add8e6; stroke-linejoin: miter"/>
   </g>
   <g id="patch_29">
    <path d="M 260.620588 359.517187 
L 260.620588 26.877187 
L 260.741401 26.877187 
L 260.741401 359.517187 
z
" clip-path="url(#pf6d950aa92)" style="fill: #add8e6; stroke: #add8e6; stroke-linejoin: miter"/>
   </g>
   <g id="patch_30">
    <path d="M 265.816962 359.517187 
L 265.816962 26.877187 
L 265.902187 26.877187 
L 265.902187 359.517187 
z
" clip-path="url(#pf6d950aa92)" style="fill: #add8e6; stroke: #add8e6; stroke-linejoin: miter"/>
   </g>
   <g id="patch_31">
    <path d="M 271.236699 359.517187 
L 271.236699 26.877187 
L 271.350488 26.877187 
L 271.350488 359.517187 
z
" clip-path="url(#pf6d950aa92)" style="fill: #add8e6; stroke: #add8e6; stroke-linejoin: miter"/>
   </g>
   <g id="patch_32">
    <path d="M 290.434764 359.517187 
L 290.434764 26.877187 
L 290.385127 26.877187 
L 290.385127 359.517187 
z
" clip-path="url(#pf6d950aa92)" style="fill: #add8e6; stroke: #add8e6; stroke-linejoin: miter"/>
   </g>
   <g id="patch_33">
    <path d="M 306.338092 359.517187 
L 306.338092 26.877187 
L 305.537354 26.877187 
L 305.537354 359.517187 
z
" clip-path="url(#pf6d950aa92)" style="fill: #add8e6; stroke: #add8e6; stroke-linejoin: miter"/>
   </g>
   <g id="patch_34">
    <path d="M 313.921698 359.517187 
L 313.921698 26.877187 
L 308.312312 26.877187 
L 308.312312 359.517187 
z
" clip-path="url(#pf6d950aa92)" style="fill: #add8e6; stroke: #add8e6; stroke-linejoin: miter"/>
   </g>
   <g id="patch_35">
    <path d="M 333.687303 359.517187 
L 333.687303 26.877187 
L 328.209032 26.877187 
L 328.209032 359.517187 
z
" clip-path="url(#pf6d950aa92)" style="fill: #add8e6; stroke: #add8e6; stroke-linejoin: miter"/>
   </g>
   <g id="patch_36">
    <path d="M 340.039363 359.517187 
L 340.039363 26.877187 
L 335.360894 26.877187 
L 335.360894 359.517187 
z
" clip-path="url(#pf6d950aa92)" style="fill: #add8e6; stroke: #add8e6; stroke-linejoin: miter"/>
   </g>
   <g id="patch_37">
    <path d="M 347.138311 359.517187 
L 347.138311 26.877187 
L 341.287298 26.877187 
L 341.287298 359.517187 
z
" clip-path="url(#pf6d950aa92)" style="fill: #add8e6; stroke: #add8e6; stroke-linejoin: miter"/>
   </g>
   <g id="patch_38">
    <path d="M 353.521745 359.517187 
L 353.521745 26.877187 
L 353.627105 26.877187 
L 353.627105 359.517187 
z
" clip-path="url(#pf6d950aa92)" style="fill: #add8e6; stroke: #add8e6; stroke-linejoin: miter"/>
   </g>
   <g id="patch_39">
    <path d="M 353.687043 359.517187 
L 353.687043 26.877187 
L 353.711393 26.877187 
L 353.711393 359.517187 
z
" clip-path="url(#pf6d950aa92)" style="fill: #add8e6; stroke: #add8e6; stroke-linejoin: miter"/>
   </g>
   <g id="patch_40">
    <path d="M 365.651299 359.517187 
L 365.651299 26.877187 
L 360.212362 26.877187 
L 360.212362 359.517187 
z
" clip-path="url(#pf6d950aa92)" style="fill: #add8e6; stroke: #add8e6; stroke-linejoin: miter"/>
   </g>
   <g id="patch_41">
    <path d="M 372.175681 359.517187 
L 372.175681 26.877187 
L 371.464382 26.877187 
L 371.464382 359.517187 
z
" clip-path="url(#pf6d950aa92)" style="fill: #add8e6; stroke: #add8e6; stroke-linejoin: miter"/>
   </g>
   <g id="patch_42">
    <path d="M 376.561951 359.517187 
L 376.561951 26.877187 
L 373.920449 26.877187 
L 373.920449 359.517187 
z
" clip-path="url(#pf6d950aa92)" style="fill: #add8e6; stroke: #add8e6; stroke-linejoin: miter"/>
   </g>
   <g id="patch_43">
    <path d="M 388.420846 359.517187 
L 388.420846 26.877187 
L 387.012295 26.877187 
L 387.012295 359.517187 
z
" clip-path="url(#pf6d950aa92)" style="fill: #add8e6; stroke: #add8e6; stroke-linejoin: miter"/>
   </g>
   <g id="patch_44">
    <path d="M 400.927824 359.517187 
L 400.927824 26.877187 
L 399.605903 26.877187 
L 399.605903 359.517187 
z
" clip-path="url(#pf6d950aa92)" style="fill: #add8e6; stroke: #add8e6; stroke-linejoin: miter"/>
   </g>
   <g id="patch_45">
    <path d="M 417.99199 359.517187 
L 417.99199 26.877187 
L 411.954138 26.877187 
L 411.954138 359.517187 
z
" clip-path="url(#pf6d950aa92)" style="fill: #add8e6; stroke: #add8e6; stroke-linejoin: miter"/>
   </g>
   <g id="patch_46">
    <path d="M 418.326802 359.517187 
L 418.326802 26.877187 
L 412.674803 26.877187 
L 412.674803 359.517187 
z
" clip-path="url(#pf6d950aa92)" style="fill: #add8e6; stroke: #add8e6; stroke-linejoin: miter"/>
   </g>
   <g id="patch_47">
    <path d="M 425.043643 359.517187 
L 425.043643 26.877187 
L 424.161893 26.877187 
L 424.161893 359.517187 
z
" clip-path="url(#pf6d950aa92)" style="fill: #add8e6; stroke: #add8e6; stroke-linejoin: miter"/>
   </g>
   <g id="patch_48">
    <path d="M 432.746656 359.517187 
L 432.746656 26.877187 
L 431.52073 26.877187 
L 431.52073 359.517187 
z
" clip-path="url(#pf6d950aa92)" style="fill: #add8e6; stroke: #add8e6; stroke-linejoin: miter"/>
   </g>
   <g id="patch_49">
    <path d="M 440.215068 359.517187 
L 440.215068 26.877187 
L 440.33073 26.877187 
L 440.33073 359.517187 
z
" clip-path="url(#pf6d950aa92)" style="fill: #add8e6; stroke: #add8e6; stroke-linejoin: miter"/>
   </g>
   <g id="patch_50">
    <path d="M 446.618169 359.517187 
L 446.618169 26.877187 
L 446.711823 26.877187 
L 446.711823 359.517187 
z
" clip-path="url(#pf6d950aa92)" style="fill: #add8e6; stroke: #add8e6; stroke-linejoin: miter"/>
   </g>
   <g id="patch_51">
    <path d="M 446.7638 359.517187 
L 446.7638 26.877187 
L 446.894915 26.877187 
L 446.894915 359.517187 
z
" clip-path="url(#pf6d950aa92)" style="fill: #add8e6; stroke: #add8e6; stroke-linejoin: miter"/>
   </g>
   <g id="patch_52">
    <path d="M 446.935655 359.517187 
L 446.935655 26.877187 
L 447.052254 26.877187 
L 447.052254 359.517187 
z
" clip-path="url(#pf6d950aa92)" style="fill: #add8e6; stroke: #add8e6; stroke-linejoin: miter"/>
   </g>
   <g id="patch_53">
    <path d="M 458.705111 359.517187 
L 458.705111 26.877187 
L 458.805788 26.877187 
L 458.805788 359.517187 
z
" clip-path="url(#pf6d950aa92)" style="fill: #add8e6; stroke: #add8e6; stroke-linejoin: miter"/>
   </g>
   <g id="patch_54">
    <path d="M 458.887735 359.517187 
L 458.887735 26.877187 
L 459.015573 26.877187 
L 459.015573 359.517187 
z
" clip-path="url(#pf6d950aa92)" style="fill: #add8e6; stroke: #add8e6; stroke-linejoin: miter"/>
   </g>
   <g id="patch_55">
    <path d="M 470.309268 359.517187 
L 470.309268 26.877187 
L 470.375294 26.877187 
L 470.375294 359.517187 
z
" clip-path="url(#pf6d950aa92)" style="fill: #add8e6; stroke: #add8e6; stroke-linejoin: miter"/>
   </g>
   <g id="patch_56">
    <path d="M 472.685261 359.517187 
L 472.685261 26.877187 
L 470.596785 26.877187 
L 470.596785 359.517187 
z
" clip-path="url(#pf6d950aa92)" style="fill: #add8e6; stroke: #add8e6; stroke-linejoin: miter"/>
   </g>
   <g id="patch_57">
    <path d="M 483.492894 359.517187 
L 483.492894 26.877187 
L 482.716973 26.877187 
L 482.716973 359.517187 
z
" clip-path="url(#pf6d950aa92)" style="fill: #add8e6; stroke: #add8e6; stroke-linejoin: miter"/>
   </g>
   <g id="patch_58">
    <path d="M 489.075589 359.517187 
L 489.075589 26.877187 
L 489.067628 26.877187 
L 489.067628 359.517187 
z
" clip-path="url(#pf6d950aa92)" style="fill: #add8e6; stroke: #add8e6; stroke-linejoin: miter"/>
   </g>
   <g id="patch_59">
    <path d="M 489.304104 359.517187 
L 489.304104 26.877187 
L 489.397289 26.877187 
L 489.397289 359.517187 
z
" clip-path="url(#pf6d950aa92)" style="fill: #add8e6; stroke: #add8e6; stroke-linejoin: miter"/>
   </g>
   <g id="patch_60">
    <path d="M 496.820747 359.517187 
L 496.820747 26.877187 
L 496.901289 26.877187 
L 496.901289 359.517187 
z
" clip-path="url(#pf6d950aa92)" style="fill: #add8e6; stroke: #add8e6; stroke-linejoin: miter"/>
   </g>
   <g id="patch_61">
    <path d="M 506.172065 359.517187 
L 506.172065 26.877187 
L 502.085019 26.877187 
L 502.085019 359.517187 
z
" clip-path="url(#pf6d950aa92)" style="fill: #add8e6; stroke: #add8e6; stroke-linejoin: miter"/>
   </g>
   <g id="patch_62">
    <path d="M 512.209917 359.517187 
L 512.209917 26.877187 
L 511.274317 26.877187 
L 511.274317 359.517187 
z
" clip-path="url(#pf6d950aa92)" style="fill: #add8e6; stroke: #add8e6; stroke-linejoin: miter"/>
   </g>
   <g id="patch_63">
    <path d="M 526.531903 359.517187 
L 526.531903 26.877187 
L 522.113792 26.877187 
L 522.113792 359.517187 
z
" clip-path="url(#pf6d950aa92)" style="fill: #add8e6; stroke: #add8e6; stroke-linejoin: miter"/>
   </g>
   <g id="patch_64">
    <path d="M 535.948779 359.517187 
L 535.948779 26.877187 
L 534.022323 26.877187 
L 534.022323 359.517187 
z
" clip-path="url(#pf6d950aa92)" style="fill: #add8e6; stroke: #add8e6; stroke-linejoin: miter"/>
   </g>
   <g id="patch_65">
    <path d="M 536.358982 359.517187 
L 536.358982 26.877187 
L 536.40019 26.877187 
L 536.40019 359.517187 
z
" clip-path="url(#pf6d950aa92)" style="fill: #add8e6; stroke: #add8e6; stroke-linejoin: miter"/>
   </g>
   <g id="patch_66">
    <path d="M 545.058939 359.517187 
L 545.058939 26.877187 
L 542.288664 26.877187 
L 542.288664 359.517187 
z
" clip-path="url(#pf6d950aa92)" style="fill: #add8e6; stroke: #add8e6; stroke-linejoin: miter"/>
   </g>
   <g id="patch_67">
    <path d="M 552.375632 359.517187 
L 552.375632 26.877187 
L 551.359958 26.877187 
L 551.359958 359.517187 
z
" clip-path="url(#pf6d950aa92)" style="fill: #add8e6; stroke: #add8e6; stroke-linejoin: miter"/>
   </g>
   <g id="patch_68">
    <path d="M 563.80372 359.517187 
L 563.80372 26.877187 
L 563.16828 26.877187 
L 563.16828 359.517187 
z
" clip-path="url(#pf6d950aa92)" style="fill: #add8e6; stroke: #add8e6; stroke-linejoin: miter"/>
   </g>
   <g id="patch_69">
    <path d="M 567.596225 359.517187 
L 567.596225 26.877187 
L 567.532541 26.877187 
L 567.532541 359.517187 
z
" clip-path="url(#pf6d950aa92)" style="fill: #add8e6; stroke: #add8e6; stroke-linejoin: miter"/>
   </g>
   <g id="patch_70">
    <path d="M 569.160241 359.517187 
L 569.160241 26.877187 
L 567.696903 26.877187 
L 567.696903 359.517187 
z
" clip-path="url(#pf6d950aa92)" style="fill: #add8e6; stroke: #add8e6; stroke-linejoin: miter"/>
   </g>
   <g id="patch_71">
    <path d="M 583.033159 359.517187 
L 583.033159 26.877187 
L 577.228036 26.877187 
L 577.228036 359.517187 
z
" clip-path="url(#pf6d950aa92)" style="fill: #add8e6; stroke: #add8e6; stroke-linejoin: miter"/>
   </g>
   <g id="patch_72">
    <path d="M 586.205676 359.517187 
L 586.205676 26.877187 
L 581.964102 26.877187 
L 581.964102 359.517187 
z
" clip-path="url(#pf6d950aa92)" style="fill: #add8e6; stroke: #add8e6; stroke-linejoin: miter"/>
   </g>
   <g id="patch_73">
    <path d="M 598.668638 359.517187 
L 598.668638 26.877187 
L 594.127372 26.877187 
L 594.127372 359.517187 
z
" clip-path="url(#pf6d950aa92)" style="fill: #add8e6; stroke: #add8e6; stroke-linejoin: miter"/>
   </g>
   <g id="patch_74">
    <path d="M 616.370585 359.517187 
L 616.370585 26.877187 
L 616.425372 26.877187 
L 616.425372 359.517187 
z
" clip-path="url(#pf6d950aa92)" style="fill: #add8e6; stroke: #add8e6; stroke-linejoin: miter"/>
   </g>
   <g id="patch_75">
    <path d="M 616.766272 359.517187 
L 616.766272 26.877187 
L 616.762057 26.877187 
L 616.762057 359.517187 
z
" clip-path="url(#pf6d950aa92)" style="fill: #add8e6; stroke: #add8e6; stroke-linejoin: miter"/>
   </g>
   <g id="patch_76">
    <path d="M 625.249421 359.517187 
L 625.249421 26.877187 
L 625.385218 26.877187 
L 625.385218 359.517187 
z
" clip-path="url(#pf6d950aa92)" style="fill: #add8e6; stroke: #add8e6; stroke-linejoin: miter"/>
   </g>
   <g id="patch_77">
    <path d="M 625.434387 359.517187 
L 625.434387 26.877187 
L 625.432045 26.877187 
L 625.432045 359.517187 
z
" clip-path="url(#pf6d950aa92)" style="fill: #add8e6; stroke: #add8e6; stroke-linejoin: miter"/>
   </g>
   <g id="patch_78">
    <path d="M 641.756347 359.517187 
L 641.756347 26.877187 
L 638.292098 26.877187 
L 638.292098 359.517187 
z
" clip-path="url(#pf6d950aa92)" style="fill: #add8e6; stroke: #add8e6; stroke-linejoin: miter"/>
   </g>
   <g id="patch_79">
    <path d="M 648.695615 359.517187 
L 648.695615 26.877187 
L 645.820916 26.877187 
L 645.820916 359.517187 
z
" clip-path="url(#pf6d950aa92)" style="fill: #add8e6; stroke: #add8e6; stroke-linejoin: miter"/>
   </g>
   <g id="patch_80">
    <path d="M 659.463445 359.517187 
L 659.463445 26.877187 
L 659.285971 26.877187 
L 659.285971 359.517187 
z
" clip-path="url(#pf6d950aa92)" style="fill: #add8e6; stroke: #add8e6; stroke-linejoin: miter"/>
   </g>
   <g id="patch_81">
    <path d="M 662.128828 359.517187 
L 662.128828 26.877187 
L 659.444714 26.877187 
L 659.444714 359.517187 
z
" clip-path="url(#pf6d950aa92)" style="fill: #add8e6; stroke: #add8e6; stroke-linejoin: miter"/>
   </g>
   <g id="patch_82">
    <path d="M 663.844095 359.517187 
L 663.844095 26.877187 
L 663.860485 26.877187 
L 663.860485 359.517187 
z
" clip-path="url(#pf6d950aa92)" style="fill: #add8e6; stroke: #add8e6; stroke-linejoin: miter"/>
   </g>
   <g id="patch_83">
    <path d="M 673.178556 359.517187 
L 673.178556 26.877187 
L 672.995931 26.877187 
L 672.995931 359.517187 
z
" clip-path="url(#pf6d950aa92)" style="fill: #add8e6; stroke: #add8e6; stroke-linejoin: miter"/>
   </g>
   <g id="patch_84">
    <path d="M 675.41641 359.517187 
L 675.41641 26.877187 
L 673.143904 26.877187 
L 673.143904 359.517187 
z
" clip-path="url(#pf6d950aa92)" style="fill: #add8e6; stroke: #add8e6; stroke-linejoin: miter"/>
   </g>
   <g id="patch_85">
    <path d="M 698.554953 359.517187 
L 698.554953 26.877187 
L 697.301867 26.877187 
L 697.301867 359.517187 
z
" clip-path="url(#pf6d950aa92)" style="fill: #add8e6; stroke: #add8e6; stroke-linejoin: miter"/>
   </g>
   <g id="patch_86">
    <path d="M 701.83049 359.517187 
L 701.83049 26.877187 
L 701.93585 26.877187 
L 701.93585 359.517187 
z
" clip-path="url(#pf6d950aa92)" style="fill: #add8e6; stroke: #add8e6; stroke-linejoin: miter"/>
   </g>
   <g id="patch_87">
    <path d="M 705.533555 359.517187 
L 705.533555 26.877187 
L 705.665139 26.877187 
L 705.665139 359.517187 
z
" clip-path="url(#pf6d950aa92)" style="fill: #add8e6; stroke: #add8e6; stroke-linejoin: miter"/>
   </g>
   <g id="patch_88">
    <path d="M 725.585741 359.517187 
L 725.585741 26.877187 
L 719.708037 26.877187 
L 719.708037 359.517187 
z
" clip-path="url(#pf6d950aa92)" style="fill: #add8e6; stroke: #add8e6; stroke-linejoin: miter"/>
   </g>
   <g id="patch_89">
    <path d="M 730.828005 359.517187 
L 730.828005 26.877187 
L 725.183499 26.877187 
L 725.183499 359.517187 
z
" clip-path="url(#pf6d950aa92)" style="fill: #add8e6; stroke: #add8e6; stroke-linejoin: miter"/>
   </g>
   <g id="patch_90">
    <path d="M 735.904034 359.517187 
L 735.904034 26.877187 
L 731.551948 26.877187 
L 731.551948 359.517187 
z
" clip-path="url(#pf6d950aa92)" style="fill: #add8e6; stroke: #add8e6; stroke-linejoin: miter"/>
   </g>
   <g id="patch_91">
    <path d="M 752.195088 359.517187 
L 752.195088 26.877187 
L 746.196103 26.877187 
L 746.196103 359.517187 
z
" clip-path="url(#pf6d950aa92)" style="fill: #add8e6; stroke: #add8e6; stroke-linejoin: miter"/>
   </g>
   <g id="patch_92">
    <path d="M 773.173509 359.517187 
L 773.173509 26.877187 
L 772.155962 26.877187 
L 772.155962 359.517187 
z
" clip-path="url(#pf6d950aa92)" style="fill: #add8e6; stroke: #add8e6; stroke-linejoin: miter"/>
   </g>
   <g id="patch_93">
    <path d="M 777.046556 359.517187 
L 777.046556 26.877187 
L 775.634727 26.877187 
L 775.634727 359.517187 
z
" clip-path="url(#pf6d950aa92)" style="fill: #add8e6; stroke: #add8e6; stroke-linejoin: miter"/>
   </g>
   <g id="patch_94">
    <path d="M 784.461117 359.517187 
L 784.461117 26.877187 
L 780.908365 26.877187 
L 780.908365 359.517187 
z
" clip-path="url(#pf6d950aa92)" style="fill: #add8e6; stroke: #add8e6; stroke-linejoin: miter"/>
   </g>
   <g id="patch_95">
    <path d="M 791.000484 359.517187 
L 791.000484 26.877187 
L 785.835484 26.877187 
L 785.835484 359.517187 
z
" clip-path="url(#pf6d950aa92)" style="fill: #add8e6; stroke: #add8e6; stroke-linejoin: miter"/>
   </g>
   <g id="patch_96">
    <path d="M 806.891169 359.517187 
L 806.891169 26.877187 
L 806.242149 26.877187 
L 806.242149 359.517187 
z
" clip-path="url(#pf6d950aa92)" style="fill: #add8e6; stroke: #add8e6; stroke-linejoin: miter"/>
   </g>
   <g id="patch_97">
    <path d="M 807.882025 359.517187 
L 807.882025 26.877187 
L 807.482592 26.877187 
L 807.482592 359.517187 
z
" clip-path="url(#pf6d950aa92)" style="fill: #add8e6; stroke: #add8e6; stroke-linejoin: miter"/>
   </g>
   <g id="patch_98">
    <path d="M 827.583946 359.517187 
L 827.583946 26.877187 
L 821.9961 26.877187 
L 821.9961 359.517187 
z
" clip-path="url(#pf6d950aa92)" style="fill: #add8e6; stroke: #add8e6; stroke-linejoin: miter"/>
   </g>
   <g id="patch_99">
    <path d="M 838.400008 359.517187 
L 838.400008 26.877187 
L 837.870865 26.877187 
L 837.870865 359.517187 
z
" clip-path="url(#pf6d950aa92)" style="fill: #add8e6; stroke: #add8e6; stroke-linejoin: miter"/>
   </g>
   <g id="patch_100">
    <path d="M 856.529952 359.517187 
L 856.529952 26.877187 
L 850.934146 26.877187 
L 850.934146 359.517187 
z
" clip-path="url(#pf6d950aa92)" style="fill: #add8e6; stroke: #add8e6; stroke-linejoin: miter"/>
   </g>
   <g id="patch_101">
    <path d="M 860.460128 359.517187 
L 860.460128 26.877187 
L 860.517725 26.877187 
L 860.517725 359.517187 
z
" clip-path="url(#pf6d950aa92)" style="fill: #add8e6; stroke: #add8e6; stroke-linejoin: miter"/>
   </g>
   <g id="patch_102">
    <path d="M 885.173925 359.517187 
L 885.173925 26.877187 
L 879.425463 26.877187 
L 879.425463 359.517187 
z
" clip-path="url(#pf6d950aa92)" style="fill: #add8e6; stroke: #add8e6; stroke-linejoin: miter"/>
   </g>
   <g id="patch_103">
    <path d="M 895.70528 359.517187 
L 895.70528 26.877187 
L 892.880685 26.877187 
L 892.880685 359.517187 
z
" clip-path="url(#pf6d950aa92)" style="fill: #add8e6; stroke: #add8e6; stroke-linejoin: miter"/>
   </g>
   <g id="patch_104">
    <path d="M 897.957182 359.517187 
L 897.957182 26.877187 
L 897.947817 26.877187 
L 897.947817 359.517187 
z
" clip-path="url(#pf6d950aa92)" style="fill: #add8e6; stroke: #add8e6; stroke-linejoin: miter"/>
   </g>
   <g id="patch_105">
    <path d="M 898.371131 359.517187 
L 898.371131 26.877187 
L 898.181014 26.877187 
L 898.181014 359.517187 
z
" clip-path="url(#pf6d950aa92)" style="fill: #add8e6; stroke: #add8e6; stroke-linejoin: miter"/>
   </g>
   <g id="patch_106">
    <path d="M 900.075628 359.517187 
L 900.075628 26.877187 
L 898.397823 26.877187 
L 898.397823 359.517187 
z
" clip-path="url(#pf6d950aa92)" style="fill: #add8e6; stroke: #add8e6; stroke-linejoin: miter"/>
   </g>
   <g id="patch_107">
    <path d="M 908.379898 359.517187 
L 908.379898 26.877187 
L 908.510077 26.877187 
L 908.510077 359.517187 
z
" clip-path="url(#pf6d950aa92)" style="fill: #add8e6; stroke: #add8e6; stroke-linejoin: miter"/>
   </g>
   <g id="patch_108">
    <path d="M 918.130649 359.517187 
L 918.130649 26.877187 
L 915.33977 26.877187 
L 915.33977 359.517187 
z
" clip-path="url(#pf6d950aa92)" style="fill: #add8e6; stroke: #add8e6; stroke-linejoin: miter"/>
   </g>
   <g id="patch_109">
    <path d="M 926.820305 359.517187 
L 926.820305 26.877187 
L 926.952356 26.877187 
L 926.952356 359.517187 
z
" clip-path="url(#pf6d950aa92)" style="fill: #add8e6; stroke: #add8e6; stroke-linejoin: miter"/>
   </g>
   <g id="patch_110">
    <path d="M 939.619483 359.517187 
L 939.619483 26.877187 
L 937.397549 26.877187 
L 937.397549 359.517187 
z
" clip-path="url(#pf6d950aa92)" style="fill: #add8e6; stroke: #add8e6; stroke-linejoin: miter"/>
   </g>
   <g id="patch_111">
    <path d="M 947.654967 359.517187 
L 947.654967 26.877187 
L 945.338912 26.877187 
L 945.338912 359.517187 
z
" clip-path="url(#pf6d950aa92)" style="fill: #add8e6; stroke: #add8e6; stroke-linejoin: miter"/>
   </g>
   <g id="patch_112">
    <path d="M 969.096973 359.517187 
L 969.096973 26.877187 
L 967.12931 26.877187 
L 967.12931 359.517187 
z
" clip-path="url(#pf6d950aa92)" style="fill: #add8e6; stroke: #add8e6; stroke-linejoin: miter"/>
   </g>
   <g id="patch_113">
    <path d="M 969.851353 359.517187 
L 969.851353 26.877187 
L 968.983652 26.877187 
L 968.983652 359.517187 
z
" clip-path="url(#pf6d950aa92)" style="fill: #add8e6; stroke: #add8e6; stroke-linejoin: miter"/>
   </g>
   <g id="patch_114">
    <path d="M 978.993824 359.517187 
L 978.993824 26.877187 
L 973.328246 26.877187 
L 973.328246 359.517187 
z
" clip-path="url(#pf6d950aa92)" style="fill: #add8e6; stroke: #add8e6; stroke-linejoin: miter"/>
   </g>
   <g id="patch_115">
    <path d="M 985.741571 359.517187 
L 985.741571 26.877187 
L 983.01859 26.877187 
L 983.01859 359.517187 
z
" clip-path="url(#pf6d950aa92)" style="fill: #add8e6; stroke: #add8e6; stroke-linejoin: miter"/>
   </g>
   <g id="patch_116">
    <path d="M 994.548761 359.517187 
L 994.548761 26.877187 
L 993.049834 26.877187 
L 993.049834 359.517187 
z
" clip-path="url(#pf6d950aa92)" style="fill: #add8e6; stroke: #add8e6; stroke-linejoin: miter"/>
   </g>
   <g id="patch_117">
    <path d="M 1018.553132 359.517187 
L 1018.553132 26.877187 
L 1012.759716 26.877187 
L 1012.759716 359.517187 
z
" clip-path="url(#pf6d950aa92)" style="fill: #add8e6; stroke: #add8e6; stroke-linejoin: miter"/>
   </g>
   <g id="patch_118">
    <path d="M 1043.568025 359.517187 
L 1043.568025 26.877187 
L 1037.857961 26.877187 
L 1037.857961 359.517187 
z
" clip-path="url(#pf6d950aa92)" style="fill: #add8e6; stroke: #add8e6; stroke-linejoin: miter"/>
   </g>
   <g id="patch_119">
    <path d="M 1062.248185 359.517187 
L 1062.248185 26.877187 
L 1062.36853 26.877187 
L 1062.36853 359.517187 
z
" clip-path="url(#pf6d950aa92)" style="fill: #add8e6; stroke: #add8e6; stroke-linejoin: miter"/>
   </g>
   <g id="patch_120">
    <path d="M 1078.006819 359.517187 
L 1078.006819 26.877187 
L 1072.26819 26.877187 
L 1072.26819 359.517187 
z
" clip-path="url(#pf6d950aa92)" style="fill: #add8e6; stroke: #add8e6; stroke-linejoin: miter"/>
   </g>
   <g id="patch_121">
    <path d="M 1092.881362 359.517187 
L 1092.881362 26.877187 
L 1092.733857 26.877187 
L 1092.733857 359.517187 
z
" clip-path="url(#pf6d950aa92)" style="fill: #add8e6; stroke: #add8e6; stroke-linejoin: miter"/>
   </g>
   <g id="patch_122">
    <path d="M 1093.688188 359.517187 
L 1093.688188 26.877187 
L 1093.056494 26.877187 
L 1093.056494 359.517187 
z
" clip-path="url(#pf6d950aa92)" style="fill: #add8e6; stroke: #add8e6; stroke-linejoin: miter"/>
   </g>
   <g id="patch_123">
    <path d="M 1097.810822 359.517187 
L 1097.810822 26.877187 
L 1097.864205 26.877187 
L 1097.864205 359.517187 
z
" clip-path="url(#pf6d950aa92)" style="fill: #add8e6; stroke: #add8e6; stroke-linejoin: miter"/>
   </g>
   <g id="patch_124">
    <path d="M 1106.386688 359.517187 
L 1106.386688 26.877187 
L 1106.421808 26.877187 
L 1106.421808 359.517187 
z
" clip-path="url(#pf6d950aa92)" style="fill: #add8e6; stroke: #add8e6; stroke-linejoin: miter"/>
   </g>
   <g id="patch_125">
    <path d="M 1106.593195 359.517187 
L 1106.593195 26.877187 
L 1106.657347 26.877187 
L 1106.657347 359.517187 
z
" clip-path="url(#pf6d950aa92)" style="fill: #add8e6; stroke: #add8e6; stroke-linejoin: miter"/>
   </g>
   <g id="patch_126">
    <path d="M 1113.762382 359.517187 
L 1113.762382 26.877187 
L 1110.462964 26.877187 
L 1110.462964 359.517187 
z
" clip-path="url(#pf6d950aa92)" style="fill: #add8e6; stroke: #add8e6; stroke-linejoin: miter"/>
   </g>
   <g id="patch_127">
    <path d="M 1113.940324 359.517187 
L 1113.940324 26.877187 
L 1114.070035 26.877187 
L 1114.070035 359.517187 
z
" clip-path="url(#pf6d950aa92)" style="fill: #add8e6; stroke: #add8e6; stroke-linejoin: miter"/>
   </g>
   <g id="patch_128">
    <path d="M 1114.107496 359.517187 
L 1114.107496 26.877187 
L 1114.179141 26.877187 
L 1114.179141 359.517187 
z
" clip-path="url(#pf6d950aa92)" style="fill: #add8e6; stroke: #add8e6; stroke-linejoin: miter"/>
   </g>
   <g id="patch_129">
    <path d="M 184.99385 359.517187 
L 184.99385 26.877187 
L 286.139807 26.877187 
L 286.139807 359.517187 
z
" clip-path="url(#pf6d950aa92)" style="fill: #808080; opacity: 0.4; stroke: #808080; stroke-linejoin: miter"/>
   </g>
   <g id="patch_130">
    <path d="M 288.949417 26.877187 
L 288.949417 26.877187 
L 288.949417 359.517187 
" clip-path="url(#pf6d950aa92)" style="fill: #808080; opacity: 0.4; stroke: #808080; stroke-linejoin: miter"/>
   </g>
   <g id="patch_131">
    <path d="M 291.759027 26.877187 
L 291.759027 26.877187 
L 291.759027 359.517187 
" clip-path="url(#pf6d950aa92)" style="fill: #808080; opacity: 0.4; stroke: #808080; stroke-linejoin: miter"/>
   </g>
   <g id="patch_132">
    <path d="M 387.285763 359.517187 
L 387.285763 26.877187 
L 488.43172 26.877187 
L 488.43172 359.517187 
z
" clip-path="url(#pf6d950aa92)" style="fill: #808080; opacity: 0.4; stroke: #808080; stroke-linejoin: miter"/>
   </g>
   <g id="patch_133">
    <path d="M 491.24133 26.877187 
L 491.24133 26.877187 
L 491.24133 359.517187 
" clip-path="url(#pf6d950aa92)" style="fill: #808080; opacity: 0.4; stroke: #808080; stroke-linejoin: miter"/>
   </g>
   <g id="patch_134">
    <path d="M 494.05094 26.877187 
L 494.05094 26.877187 
L 494.05094 359.517187 
" clip-path="url(#pf6d950aa92)" style="fill: #808080; opacity: 0.4; stroke: #808080; stroke-linejoin: miter"/>
   </g>
   <g id="patch_135">
    <path d="M 589.577677 359.517187 
L 589.577677 26.877187 
L 690.723633 26.877187 
L 690.723633 359.517187 
z
" clip-path="url(#pf6d950aa92)" style="fill: #808080; opacity: 0.4; stroke: #808080; stroke-linejoin: miter"/>
   </g>
   <g id="patch_136">
    <path d="M 693.533243 26.877187 
L 693.533243 26.877187 
L 693.533243 359.517187 
" clip-path="url(#pf6d950aa92)" style="fill: #808080; opacity: 0.4; stroke: #808080; stroke-linejoin: miter"/>
   </g>
   <g id="patch_137">
    <path d="M 696.342853 26.877187 
L 696.342853 26.877187 
L 696.342853 359.517187 
" clip-path="url(#pf6d950aa92)" style="fill: #808080; opacity: 0.4; stroke: #808080; stroke-linejoin: miter"/>
   </g>
   <g id="patch_138">
    <path d="M 791.86959 359.517187 
L 791.86959 26.877187 
L 893.015547 26.877187 
L 893.015547 359.517187 
z
" clip-path="url(#pf6d950aa92)" style="fill: #808080; opacity: 0.4; stroke: #808080; stroke-linejoin: miter"/>
   </g>
   <g id="patch_139">
    <path d="M 895.825156 26.877187 
L 895.825156 26.877187 
L 895.825156 359.517187 
" clip-path="url(#pf6d950aa92)" style="fill: #808080; opacity: 0.4; stroke: #808080; stroke-linejoin: miter"/>
   </g>
   <g id="patch_140">
    <path d="M 898.634766 26.877187 
L 898.634766 26.877187 
L 898.634766 359.517187 
" clip-path="url(#pf6d950aa92)" style="fill: #808080; opacity: 0.4; stroke: #808080; stroke-linejoin: miter"/>
   </g>
   <g id="patch_141">
    <path d="M 994.161503 359.517187 
L 994.161503 26.877187 
L 1095.30746 26.877187 
L 1095.30746 359.517187 
z
" clip-path="url(#pf6d950aa92)" style="fill: #808080; opacity: 0.4; stroke: #808080; stroke-linejoin: miter"/>
   </g>
   <g id="patch_142">
    <path d="M 1098.11707 26.877187 
L 1098.11707 26.877187 
L 1098.11707 359.517187 
" clip-path="url(#pf6d950aa92)" style="fill: #808080; opacity: 0.4; stroke: #808080; stroke-linejoin: miter"/>
   </g>
   <g id="patch_143">
    <path d="M 1100.92668 26.877187 
L 1100.92668 26.877187 
L 1100.92668 359.517187 
" clip-path="url(#pf6d950aa92)" style="fill: #808080; opacity: 0.4; stroke: #808080; stroke-linejoin: miter"/>
   </g>
   <g id="matplotlib.axis_1">
    <g id="xtick_1">
     <g id="line2d_1">
      <defs>
       <path id="m53dbd18062" d="M 0 0 
L 0 3.5 
" style="stroke: #000000; stroke-width: 0.8"/>
      </defs>
      <g>
       <use xlink:href="#m53dbd18062" x="225.161906" y="359.517187" style="stroke: #000000; stroke-width: 0.8"/>
      </g>
     </g>
     <g id="text_1">
      <!-- 2024-11-14 -->
      <g transform="translate(196.104094 374.115625) scale(0.1 -0.1)">
       <defs>
        <path id="DejaVuSans-32" d="M 1228 531 
L 3431 531 
L 3431 0 
L 469 0 
L 469 531 
Q 828 903 1448 1529 
Q 2069 2156 2228 2338 
Q 2531 2678 2651 2914 
Q 2772 3150 2772 3378 
Q 2772 3750 2511 3984 
Q 2250 4219 1831 4219 
Q 1534 4219 1204 4116 
Q 875 4013 500 3803 
L 500 4441 
Q 881 4594 1212 4672 
Q 1544 4750 1819 4750 
Q 2544 4750 2975 4387 
Q 3406 4025 3406 3419 
Q 3406 3131 3298 2873 
Q 3191 2616 2906 2266 
Q 2828 2175 2409 1742 
Q 1991 1309 1228 531 
z
" transform="scale(0.015625)"/>
        <path id="DejaVuSans-30" d="M 2034 4250 
Q 1547 4250 1301 3770 
Q 1056 3291 1056 2328 
Q 1056 1369 1301 889 
Q 1547 409 2034 409 
Q 2525 409 2770 889 
Q 3016 1369 3016 2328 
Q 3016 3291 2770 3770 
Q 2525 4250 2034 4250 
z
M 2034 4750 
Q 2819 4750 3233 4129 
Q 3647 3509 3647 2328 
Q 3647 1150 3233 529 
Q 2819 -91 2034 -91 
Q 1250 -91 836 529 
Q 422 1150 422 2328 
Q 422 3509 836 4129 
Q 1250 4750 2034 4750 
z
" transform="scale(0.015625)"/>
        <path id="DejaVuSans-34" d="M 2419 4116 
L 825 1625 
L 2419 1625 
L 2419 4116 
z
M 2253 4666 
L 3047 4666 
L 3047 1625 
L 3713 1625 
L 3713 1100 
L 3047 1100 
L 3047 0 
L 2419 0 
L 2419 1100 
L 313 1100 
L 313 1709 
L 2253 4666 
z
" transform="scale(0.015625)"/>
        <path id="DejaVuSans-2d" d="M 313 2009 
L 1997 2009 
L 1997 1497 
L 313 1497 
L 313 2009 
z
" transform="scale(0.015625)"/>
        <path id="DejaVuSans-31" d="M 794 531 
L 1825 531 
L 1825 4091 
L 703 3866 
L 703 4441 
L 1819 4666 
L 2450 4666 
L 2450 531 
L 3481 531 
L 3481 0 
L 794 0 
L 794 531 
z
" transform="scale(0.015625)"/>
       </defs>
       <use xlink:href="#DejaVuSans-32"/>
       <use xlink:href="#DejaVuSans-30" x="63.623047"/>
       <use xlink:href="#DejaVuSans-32" x="127.246094"/>
       <use xlink:href="#DejaVuSans-34" x="190.869141"/>
       <use xlink:href="#DejaVuSans-2d" x="254.492188"/>
       <use xlink:href="#DejaVuSans-31" x="290.576172"/>
       <use xlink:href="#DejaVuSans-31" x="354.199219"/>
       <use xlink:href="#DejaVuSans-2d" x="417.822266"/>
       <use xlink:href="#DejaVuSans-31" x="453.90625"/>
       <use xlink:href="#DejaVuSans-34" x="517.529297"/>
      </g>
     </g>
    </g>
    <g id="xtick_2">
     <g id="line2d_2">
      <g>
       <use xlink:href="#m53dbd18062" x="427.45382" y="359.517187" style="stroke: #000000; stroke-width: 0.8"/>
      </g>
     </g>
     <g id="text_2">
      <!-- 2024-11-15 -->
      <g transform="translate(398.396007 374.115625) scale(0.1 -0.1)">
       <defs>
        <path id="DejaVuSans-35" d="M 691 4666 
L 3169 4666 
L 3169 4134 
L 1269 4134 
L 1269 2991 
Q 1406 3038 1543 3061 
Q 1681 3084 1819 3084 
Q 2600 3084 3056 2656 
Q 3513 2228 3513 1497 
Q 3513 744 3044 326 
Q 2575 -91 1722 -91 
Q 1428 -91 1123 -41 
Q 819 9 494 109 
L 494 744 
Q 775 591 1075 516 
Q 1375 441 1709 441 
Q 2250 441 2565 725 
Q 2881 1009 2881 1497 
Q 2881 1984 2565 2268 
Q 2250 2553 1709 2553 
Q 1456 2553 1204 2497 
Q 953 2441 691 2322 
L 691 4666 
z
" transform="scale(0.015625)"/>
       </defs>
       <use xlink:href="#DejaVuSans-32"/>
       <use xlink:href="#DejaVuSans-30" x="63.623047"/>
       <use xlink:href="#DejaVuSans-32" x="127.246094"/>
       <use xlink:href="#DejaVuSans-34" x="190.869141"/>
       <use xlink:href="#DejaVuSans-2d" x="254.492188"/>
       <use xlink:href="#DejaVuSans-31" x="290.576172"/>
       <use xlink:href="#DejaVuSans-31" x="354.199219"/>
       <use xlink:href="#DejaVuSans-2d" x="417.822266"/>
       <use xlink:href="#DejaVuSans-31" x="453.90625"/>
       <use xlink:href="#DejaVuSans-35" x="517.529297"/>
      </g>
     </g>
    </g>
    <g id="xtick_3">
     <g id="line2d_3">
      <g>
       <use xlink:href="#m53dbd18062" x="629.745733" y="359.517187" style="stroke: #000000; stroke-width: 0.8"/>
      </g>
     </g>
     <g id="text_3">
      <!-- 2024-11-16 -->
      <g transform="translate(600.68792 374.115625) scale(0.1 -0.1)">
       <defs>
        <path id="DejaVuSans-36" d="M 2113 2584 
Q 1688 2584 1439 2293 
Q 1191 2003 1191 1497 
Q 1191 994 1439 701 
Q 1688 409 2113 409 
Q 2538 409 2786 701 
Q 3034 994 3034 1497 
Q 3034 2003 2786 2293 
Q 2538 2584 2113 2584 
z
M 3366 4563 
L 3366 3988 
Q 3128 4100 2886 4159 
Q 2644 4219 2406 4219 
Q 1781 4219 1451 3797 
Q 1122 3375 1075 2522 
Q 1259 2794 1537 2939 
Q 1816 3084 2150 3084 
Q 2853 3084 3261 2657 
Q 3669 2231 3669 1497 
Q 3669 778 3244 343 
Q 2819 -91 2113 -91 
Q 1303 -91 875 529 
Q 447 1150 447 2328 
Q 447 3434 972 4092 
Q 1497 4750 2381 4750 
Q 2619 4750 2861 4703 
Q 3103 4656 3366 4563 
z
" transform="scale(0.015625)"/>
       </defs>
       <use xlink:href="#DejaVuSans-32"/>
       <use xlink:href="#DejaVuSans-30" x="63.623047"/>
       <use xlink:href="#DejaVuSans-32" x="127.246094"/>
       <use xlink:href="#DejaVuSans-34" x="190.869141"/>
       <use xlink:href="#DejaVuSans-2d" x="254.492188"/>
       <use xlink:href="#DejaVuSans-31" x="290.576172"/>
       <use xlink:href="#DejaVuSans-31" x="354.199219"/>
       <use xlink:href="#DejaVuSans-2d" x="417.822266"/>
       <use xlink:href="#DejaVuSans-31" x="453.90625"/>
       <use xlink:href="#DejaVuSans-36" x="517.529297"/>
      </g>
     </g>
    </g>
    <g id="xtick_4">
     <g id="line2d_4">
      <g>
       <use xlink:href="#m53dbd18062" x="832.037646" y="359.517187" style="stroke: #000000; stroke-width: 0.8"/>
      </g>
     </g>
     <g id="text_4">
      <!-- 2024-11-17 -->
      <g transform="translate(802.979834 374.115625) scale(0.1 -0.1)">
       <defs>
        <path id="DejaVuSans-37" d="M 525 4666 
L 3525 4666 
L 3525 4397 
L 1831 0 
L 1172 0 
L 2766 4134 
L 525 4134 
L 525 4666 
z
" transform="scale(0.015625)"/>
       </defs>
       <use xlink:href="#DejaVuSans-32"/>
       <use xlink:href="#DejaVuSans-30" x="63.623047"/>
       <use xlink:href="#DejaVuSans-32" x="127.246094"/>
       <use xlink:href="#DejaVuSans-34" x="190.869141"/>
       <use xlink:href="#DejaVuSans-2d" x="254.492188"/>
       <use xlink:href="#DejaVuSans-31" x="290.576172"/>
       <use xlink:href="#DejaVuSans-31" x="354.199219"/>
       <use xlink:href="#DejaVuSans-2d" x="417.822266"/>
       <use xlink:href="#DejaVuSans-31" x="453.90625"/>
       <use xlink:href="#DejaVuSans-37" x="517.529297"/>
      </g>
     </g>
    </g>
    <g id="xtick_5">
     <g id="line2d_5">
      <g>
       <use xlink:href="#m53dbd18062" x="1034.329559" y="359.517187" style="stroke: #000000; stroke-width: 0.8"/>
      </g>
     </g>
     <g id="text_5">
      <!-- 2024-11-18 -->
      <g transform="translate(1005.271747 374.115625) scale(0.1 -0.1)">
       <defs>
        <path id="DejaVuSans-38" d="M 2034 2216 
Q 1584 2216 1326 1975 
Q 1069 1734 1069 1313 
Q 1069 891 1326 650 
Q 1584 409 2034 409 
Q 2484 409 2743 651 
Q 3003 894 3003 1313 
Q 3003 1734 2745 1975 
Q 2488 2216 2034 2216 
z
M 1403 2484 
Q 997 2584 770 2862 
Q 544 3141 544 3541 
Q 544 4100 942 4425 
Q 1341 4750 2034 4750 
Q 2731 4750 3128 4425 
Q 3525 4100 3525 3541 
Q 3525 3141 3298 2862 
Q 3072 2584 2669 2484 
Q 3125 2378 3379 2068 
Q 3634 1759 3634 1313 
Q 3634 634 3220 271 
Q 2806 -91 2034 -91 
Q 1263 -91 848 271 
Q 434 634 434 1313 
Q 434 1759 690 2068 
Q 947 2378 1403 2484 
z
M 1172 3481 
Q 1172 3119 1398 2916 
Q 1625 2713 2034 2713 
Q 2441 2713 2670 2916 
Q 2900 3119 2900 3481 
Q 2900 3844 2670 4047 
Q 2441 4250 2034 4250 
Q 1625 4250 1398 4047 
Q 1172 3844 1172 3481 
z
" transform="scale(0.015625)"/>
       </defs>
       <use xlink:href="#DejaVuSans-32"/>
       <use xlink:href="#DejaVuSans-30" x="63.623047"/>
       <use xlink:href="#DejaVuSans-32" x="127.246094"/>
       <use xlink:href="#DejaVuSans-34" x="190.869141"/>
       <use xlink:href="#DejaVuSans-2d" x="254.492188"/>
       <use xlink:href="#DejaVuSans-31" x="290.576172"/>
       <use xlink:href="#DejaVuSans-31" x="354.199219"/>
       <use xlink:href="#DejaVuSans-2d" x="417.822266"/>
       <use xlink:href="#DejaVuSans-31" x="453.90625"/>
       <use xlink:href="#DejaVuSans-38" x="517.529297"/>
      </g>
     </g>
    </g>
    <g id="text_6">
     <!-- Time -->
     <g transform="translate(598.917187 389.313437) scale(0.12 -0.12)">
      <defs>
       <path id="DejaVuSans-54" d="M -19 4666 
L 3928 4666 
L 3928 4134 
L 2272 4134 
L 2272 0 
L 1638 0 
L 1638 4134 
L -19 4134 
L -19 4666 
z
" transform="scale(0.015625)"/>
       <path id="DejaVuSans-69" d="M 603 3500 
L 1178 3500 
L 1178 0 
L 603 0 
L 603 3500 
z
M 603 4863 
L 1178 4863 
L 1178 4134 
L 603 4134 
L 603 4863 
z
" transform="scale(0.015625)"/>
       <path id="DejaVuSans-6d" d="M 3328 2828 
Q 3544 3216 3844 3400 
Q 4144 3584 4550 3584 
Q 5097 3584 5394 3201 
Q 5691 2819 5691 2113 
L 5691 0 
L 5113 0 
L 5113 2094 
Q 5113 2597 4934 2840 
Q 4756 3084 4391 3084 
Q 3944 3084 3684 2787 
Q 3425 2491 3425 1978 
L 3425 0 
L 2847 0 
L 2847 2094 
Q 2847 2600 2669 2842 
Q 2491 3084 2119 3084 
Q 1678 3084 1418 2786 
Q 1159 2488 1159 1978 
L 1159 0 
L 581 0 
L 581 3500 
L 1159 3500 
L 1159 2956 
Q 1356 3278 1631 3431 
Q 1906 3584 2284 3584 
Q 2666 3584 2933 3390 
Q 3200 3197 3328 2828 
z
" transform="scale(0.015625)"/>
       <path id="DejaVuSans-65" d="M 3597 1894 
L 3597 1613 
L 953 1613 
Q 991 1019 1311 708 
Q 1631 397 2203 397 
Q 2534 397 2845 478 
Q 3156 559 3463 722 
L 3463 178 
Q 3153 47 2828 -22 
Q 2503 -91 2169 -91 
Q 1331 -91 842 396 
Q 353 884 353 1716 
Q 353 2575 817 3079 
Q 1281 3584 2069 3584 
Q 2775 3584 3186 3129 
Q 3597 2675 3597 1894 
z
M 3022 2063 
Q 3016 2534 2758 2815 
Q 2500 3097 2075 3097 
Q 1594 3097 1305 2825 
Q 1016 2553 972 2059 
L 3022 2063 
z
" transform="scale(0.015625)"/>
      </defs>
      <use xlink:href="#DejaVuSans-54"/>
      <use xlink:href="#DejaVuSans-69" x="57.958984"/>
      <use xlink:href="#DejaVuSans-6d" x="85.742188"/>
      <use xlink:href="#DejaVuSans-65" x="183.154297"/>
     </g>
    </g>
   </g>
   <g id="matplotlib.axis_2">
    <g id="ytick_1">
     <g id="line2d_6">
      <defs>
       <path id="m17011ad4fb" d="M 0 0 
L -3.5 0 
" style="stroke: #000000; stroke-width: 0.8"/>
      </defs>
      <g>
       <use xlink:href="#m17011ad4fb" x="55.5975" y="344.397187" style="stroke: #000000; stroke-width: 0.8"/>
      </g>
     </g>
     <g id="text_7">
      <!-- 0 -->
      <g transform="translate(42.235 348.196406) scale(0.1 -0.1)">
       <use xlink:href="#DejaVuSans-30"/>
      </g>
     </g>
    </g>
    <g id="ytick_2">
     <g id="line2d_7">
      <g>
       <use xlink:href="#m17011ad4fb" x="55.5975" y="288.910949" style="stroke: #000000; stroke-width: 0.8"/>
      </g>
     </g>
     <g id="text_8">
      <!-- 200 -->
      <g transform="translate(29.51 292.710168) scale(0.1 -0.1)">
       <use xlink:href="#DejaVuSans-32"/>
       <use xlink:href="#DejaVuSans-30" x="63.623047"/>
       <use xlink:href="#DejaVuSans-30" x="127.246094"/>
      </g>
     </g>
    </g>
    <g id="ytick_3">
     <g id="line2d_8">
      <g>
       <use xlink:href="#m17011ad4fb" x="55.5975" y="233.42471" style="stroke: #000000; stroke-width: 0.8"/>
      </g>
     </g>
     <g id="text_9">
      <!-- 400 -->
      <g transform="translate(29.51 237.223929) scale(0.1 -0.1)">
       <use xlink:href="#DejaVuSans-34"/>
       <use xlink:href="#DejaVuSans-30" x="63.623047"/>
       <use xlink:href="#DejaVuSans-30" x="127.246094"/>
      </g>
     </g>
    </g>
    <g id="ytick_4">
     <g id="line2d_9">
      <g>
       <use xlink:href="#m17011ad4fb" x="55.5975" y="177.938472" style="stroke: #000000; stroke-width: 0.8"/>
      </g>
     </g>
     <g id="text_10">
      <!-- 600 -->
      <g transform="translate(29.51 181.737691) scale(0.1 -0.1)">
       <use xlink:href="#DejaVuSans-36"/>
       <use xlink:href="#DejaVuSans-30" x="63.623047"/>
       <use xlink:href="#DejaVuSans-30" x="127.246094"/>
      </g>
     </g>
    </g>
    <g id="ytick_5">
     <g id="line2d_10">
      <g>
       <use xlink:href="#m17011ad4fb" x="55.5975" y="122.452233" style="stroke: #000000; stroke-width: 0.8"/>
      </g>
     </g>
     <g id="text_11">
      <!-- 800 -->
      <g transform="translate(29.51 126.251452) scale(0.1 -0.1)">
       <use xlink:href="#DejaVuSans-38"/>
       <use xlink:href="#DejaVuSans-30" x="63.623047"/>
       <use xlink:href="#DejaVuSans-30" x="127.246094"/>
      </g>
     </g>
    </g>
    <g id="ytick_6">
     <g id="line2d_11">
      <g>
       <use xlink:href="#m17011ad4fb" x="55.5975" y="66.965995" style="stroke: #000000; stroke-width: 0.8"/>
      </g>
     </g>
     <g id="text_12">
      <!-- 1000 -->
      <g transform="translate(23.1475 70.765214) scale(0.1 -0.1)">
       <use xlink:href="#DejaVuSans-31"/>
       <use xlink:href="#DejaVuSans-30" x="63.623047"/>
       <use xlink:href="#DejaVuSans-30" x="127.246094"/>
       <use xlink:href="#DejaVuSans-30" x="190.869141"/>
      </g>
     </g>
    </g>
    <g id="text_13">
     <!-- Pellet_Count -->
     <g transform="translate(16.318125 230.485312) rotate(-90) scale(0.12 -0.12)">
      <defs>
       <path id="DejaVuSans-50" d="M 1259 4147 
L 1259 2394 
L 2053 2394 
Q 2494 2394 2734 2622 
Q 2975 2850 2975 3272 
Q 2975 3691 2734 3919 
Q 2494 4147 2053 4147 
L 1259 4147 
z
M 628 4666 
L 2053 4666 
Q 2838 4666 3239 4311 
Q 3641 3956 3641 3272 
Q 3641 2581 3239 2228 
Q 2838 1875 2053 1875 
L 1259 1875 
L 1259 0 
L 628 0 
L 628 4666 
z
" transform="scale(0.015625)"/>
       <path id="DejaVuSans-6c" d="M 603 4863 
L 1178 4863 
L 1178 0 
L 603 0 
L 603 4863 
z
" transform="scale(0.015625)"/>
       <path id="DejaVuSans-74" d="M 1172 4494 
L 1172 3500 
L 2356 3500 
L 2356 3053 
L 1172 3053 
L 1172 1153 
Q 1172 725 1289 603 
Q 1406 481 1766 481 
L 2356 481 
L 2356 0 
L 1766 0 
Q 1100 0 847 248 
Q 594 497 594 1153 
L 594 3053 
L 172 3053 
L 172 3500 
L 594 3500 
L 594 4494 
L 1172 4494 
z
" transform="scale(0.015625)"/>
       <path id="DejaVuSans-5f" d="M 3263 -1063 
L 3263 -1509 
L -63 -1509 
L -63 -1063 
L 3263 -1063 
z
" transform="scale(0.015625)"/>
       <path id="DejaVuSans-43" d="M 4122 4306 
L 4122 3641 
Q 3803 3938 3442 4084 
Q 3081 4231 2675 4231 
Q 1875 4231 1450 3742 
Q 1025 3253 1025 2328 
Q 1025 1406 1450 917 
Q 1875 428 2675 428 
Q 3081 428 3442 575 
Q 3803 722 4122 1019 
L 4122 359 
Q 3791 134 3420 21 
Q 3050 -91 2638 -91 
Q 1578 -91 968 557 
Q 359 1206 359 2328 
Q 359 3453 968 4101 
Q 1578 4750 2638 4750 
Q 3056 4750 3426 4639 
Q 3797 4528 4122 4306 
z
" transform="scale(0.015625)"/>
       <path id="DejaVuSans-6f" d="M 1959 3097 
Q 1497 3097 1228 2736 
Q 959 2375 959 1747 
Q 959 1119 1226 758 
Q 1494 397 1959 397 
Q 2419 397 2687 759 
Q 2956 1122 2956 1747 
Q 2956 2369 2687 2733 
Q 2419 3097 1959 3097 
z
M 1959 3584 
Q 2709 3584 3137 3096 
Q 3566 2609 3566 1747 
Q 3566 888 3137 398 
Q 2709 -91 1959 -91 
Q 1206 -91 779 398 
Q 353 888 353 1747 
Q 353 2609 779 3096 
Q 1206 3584 1959 3584 
z
" transform="scale(0.015625)"/>
       <path id="DejaVuSans-75" d="M 544 1381 
L 544 3500 
L 1119 3500 
L 1119 1403 
Q 1119 906 1312 657 
Q 1506 409 1894 409 
Q 2359 409 2629 706 
Q 2900 1003 2900 1516 
L 2900 3500 
L 3475 3500 
L 3475 0 
L 2900 0 
L 2900 538 
Q 2691 219 2414 64 
Q 2138 -91 1772 -91 
Q 1169 -91 856 284 
Q 544 659 544 1381 
z
M 1991 3584 
L 1991 3584 
z
" transform="scale(0.015625)"/>
       <path id="DejaVuSans-6e" d="M 3513 2113 
L 3513 0 
L 2938 0 
L 2938 2094 
Q 2938 2591 2744 2837 
Q 2550 3084 2163 3084 
Q 1697 3084 1428 2787 
Q 1159 2491 1159 1978 
L 1159 0 
L 581 0 
L 581 3500 
L 1159 3500 
L 1159 2956 
Q 1366 3272 1645 3428 
Q 1925 3584 2291 3584 
Q 2894 3584 3203 3211 
Q 3513 2838 3513 2113 
z
" transform="scale(0.015625)"/>
      </defs>
      <use xlink:href="#DejaVuSans-50"/>
      <use xlink:href="#DejaVuSans-65" x="56.677734"/>
      <use xlink:href="#DejaVuSans-6c" x="118.201172"/>
      <use xlink:href="#DejaVuSans-6c" x="145.984375"/>
      <use xlink:href="#DejaVuSans-65" x="173.767578"/>
      <use xlink:href="#DejaVuSans-74" x="235.291016"/>
      <use xlink:href="#DejaVuSans-5f" x="274.5"/>
      <use xlink:href="#DejaVuSans-43" x="324.5"/>
      <use xlink:href="#DejaVuSans-6f" x="394.324219"/>
      <use xlink:href="#DejaVuSans-75" x="455.505859"/>
      <use xlink:href="#DejaVuSans-6e" x="518.884766"/>
      <use xlink:href="#DejaVuSans-74" x="582.263672"/>
     </g>
    </g>
   </g>
   <g id="line2d_12">
    <path d="M 106.324773 344.397187 
L 106.338821 344.397187 
L 106.411402 344.119756 
L 109.038388 344.119756 
L 109.108628 343.564894 
L 109.171844 343.564894 
L 109.288911 343.010032 
L 110.90912 343.010032 
L 111.019163 342.7326 
L 111.058965 342.7326 
L 111.164326 342.177738 
L 111.225201 342.177738 
L 111.283734 341.622876 
L 113.512691 341.622876 
L 113.61571 340.790582 
L 113.639124 340.790582 
L 113.742143 339.958288 
L 115.221871 339.958288 
L 118.193033 339.680857 
L 118.244543 339.125995 
L 118.380341 339.125995 
L 118.389706 338.848564 
L 120.169126 338.848564 
L 120.225318 338.293701 
L 120.581202 338.293701 
L 120.585884 338.01627 
L 121.735483 338.01627 
L 121.847867 337.461408 
L 123.725623 337.461408 
L 123.82396 336.906545 
L 123.898883 336.906545 
L 123.987854 336.074252 
L 124.027656 336.074252 
L 124.135358 335.241958 
L 128.544104 335.241958 
L 128.654147 334.687096 
L 128.679902 334.687096 
L 128.789945 333.854802 
L 128.848479 333.854802 
L 128.848479 333.854802 
L 131.002513 333.577371 
L 131.098508 332.745077 
L 131.142994 332.745077 
L 131.201527 332.190215 
L 134.650323 332.190215 
L 134.769732 331.08049 
L 134.814217 331.08049 
L 134.92426 330.248197 
L 134.947674 330.248197 
L 134.950015 329.970765 
L 136.70368 329.970765 
L 137.207068 329.693334 
L 139.789568 329.693334 
L 139.88088 328.861041 
L 139.941755 328.861041 
L 140.049457 328.306178 
L 140.213351 328.306178 
L 140.307005 327.473885 
L 140.374903 327.473885 
L 140.487288 326.919022 
L 140.524749 326.919022 
L 140.527091 326.641591 
L 143.971204 326.641591 
L 144.090613 325.531866 
L 144.139781 325.531866 
L 144.2428 324.699573 
L 144.273237 324.699573 
L 144.380939 323.867279 
L 144.404352 323.867279 
L 144.462886 323.312417 
L 149.773049 323.312417 
L 149.859678 322.480123 
L 149.899481 322.480123 
L 149.983769 321.64783 
L 150.025913 321.64783 
L 150.126591 320.815536 
L 150.168735 320.815536 
L 150.269413 319.983243 
L 150.339653 319.983243 
L 150.341995 319.705811 
L 153.025172 319.705811 
L 153.025172 319.42838 
L 155.312663 319.42838 
L 155.406316 318.596087 
L 155.478898 318.596087 
L 155.558504 317.763793 
L 155.600648 317.763793 
L 155.649816 317.208931 
L 158.986228 317.208931 
L 159.100953 316.376637 
L 162.957143 316.376637 
L 163.046114 315.544343 
L 163.106989 315.544343 
L 163.200643 314.71205 
L 163.238104 314.71205 
L 163.338782 314.157187 
L 169.412222 314.157187 
L 169.519924 313.324894 
L 169.569092 313.324894 
L 169.667428 312.4926 
L 169.72362 312.4926 
L 169.84537 311.382876 
L 173.851405 311.382876 
L 173.975497 310.828013 
L 173.982521 310.828013 
L 174.083198 309.99572 
L 174.118318 309.99572 
L 174.172169 309.718288 
L 175.523123 309.718288 
L 175.530147 309.440857 
L 175.724479 309.440857 
L 175.72682 309.163426 
L 176.850664 309.163426 
L 176.892808 308.885995 
L 177.267423 308.885995 
L 177.365759 308.053701 
L 177.398538 308.053701 
L 177.480485 307.221408 
L 177.531994 307.221408 
L 177.578821 306.666545 
L 179.917822 306.666545 
L 180.819238 306.389114 
L 180.933964 305.556821 
L 182.647826 305.556821 
L 182.896008 304.169665 
L 182.956883 304.169665 
L 182.996686 303.614802 
L 187.773023 303.614802 
L 187.775364 303.337371 
L 187.887748 303.337371 
L 188.135931 303.05994 
L 188.768093 303.05994 
L 188.889843 302.782509 
L 193.759833 302.782509 
L 193.759833 302.782509 
L 193.769198 302.505077 
L 193.933092 302.505077 
L 194.017381 301.950215 
L 201.020333 301.950215 
L 201.149107 300.84049 
L 201.298953 300.84049 
L 201.378559 300.008197 
L 202.584349 300.008197 
L 206.136165 299.730765 
L 211.879476 299.730765 
L 211.99186 298.898472 
L 214.13887 298.898472 
L 214.246572 298.066178 
L 214.291057 298.066178 
L 214.387052 297.511316 
L 214.431538 297.511316 
L 214.536898 296.679022 
L 214.572018 296.679022 
L 214.630552 296.12416 
L 218.320506 296.12416 
L 218.322848 295.846729 
L 222.352296 295.846729 
L 222.424878 295.291866 
L 222.471705 295.291866 
L 222.581748 294.737004 
L 222.640282 294.737004 
L 222.670719 294.459573 
L 225.627833 294.459573 
L 225.721487 293.90471 
L 225.768314 293.90471 
L 225.929866 293.072417 
L 227.57583 293.072417 
L 237.187037 292.794986 
L 237.301763 291.962692 
L 237.348589 291.962692 
L 237.45395 291.130399 
L 237.510142 291.130399 
L 237.556969 290.575536 
L 238.945384 290.575536 
L 239.041379 289.743243 
L 239.109278 289.743243 
L 239.156105 289.18838 
L 241.132197 289.18838 
L 241.235216 288.633518 
L 241.29375 288.633518 
L 241.392086 287.801224 
L 245.299785 287.801224 
L 245.402804 286.968931 
L 245.449631 286.968931 
L 245.559674 286.136637 
L 245.613525 286.136637 
L 245.72591 285.304343 
L 245.758688 285.304343 
L 245.835953 285.026912 
L 247.671564 284.749481 
L 250.387521 284.749481 
L 250.485857 283.917187 
L 250.551415 283.917187 
L 250.645068 283.084894 
L 250.689554 283.084894 
L 250.804279 282.807463 
L 250.806621 282.807463 
L 250.811304 282.530032 
L 253.323563 282.530032 
L 253.328246 282.2526 
L 256.02313 282.2526 
L 256.119125 281.975169 
L 260.253934 281.975169 
L 260.361636 281.420307 
L 260.401439 281.420307 
L 260.518506 280.588013 
L 260.612159 280.588013 
L 260.675376 280.033151 
L 260.722202 280.033151 
L 260.801808 279.478288 
L 265.660092 279.478288 
L 265.767794 278.645995 
L 265.812279 278.645995 
L 265.868471 278.091132 
L 265.985538 278.091132 
L 266.05812 277.53627 
L 270.853188 277.53627 
L 270.916404 276.981408 
L 270.970255 276.981408 
L 271.06625 276.703976 
L 271.089663 276.703976 
L 271.162245 276.149114 
L 271.232485 276.149114 
L 271.281653 275.594252 
L 276.156326 275.594252 
L 276.261687 275.039389 
L 276.360023 275.039389 
L 276.430263 274.484527 
L 276.498162 274.484527 
L 276.554354 273.929665 
L 280.696188 273.929665 
L 280.815596 273.374802 
L 284.100498 273.374802 
L 284.187128 272.81994 
L 284.238637 272.81994 
L 284.353363 272.265077 
L 284.36507 272.265077 
L 284.475113 271.710215 
L 284.498526 271.710215 
L 284.507892 271.432784 
L 289.820396 271.432784 
L 289.939804 270.877921 
L 289.963218 270.877921 
L 290.040482 270.323059 
L 290.127111 270.323059 
L 290.23013 269.490765 
L 290.274616 269.490765 
L 290.326126 268.935903 
L 295.086073 268.935903 
L 295.182068 268.10361 
L 300.201904 268.10361 
L 300.279169 267.826178 
L 301.255508 267.826178 
L 301.351503 266.993885 
L 301.424085 266.993885 
L 301.480277 266.439022 
L 305.142135 266.439022 
L 305.240471 265.606729 
L 305.280274 265.606729 
L 305.376269 264.774435 
L 305.43012 264.774435 
L 305.48163 264.497004 
L 307.75039 264.497004 
L 307.991548 263.387279 
L 308.078177 263.387279 
L 308.190562 262.832417 
L 308.190562 262.832417 
L 308.270167 262.277554 
L 316.734117 262.277554 
L 316.848843 262.000123 
L 316.874598 262.000123 
L 316.989324 261.16783 
L 317.03615 261.16783 
L 317.1579 260.335536 
L 319.485194 260.335536 
L 319.560117 259.780674 
L 319.667818 259.780674 
L 319.735717 259.225811 
L 319.801275 259.225811 
L 319.916001 258.670949 
L 319.946438 258.670949 
L 319.946438 258.670949 
L 319.948779 258.393518 
L 321.988088 258.393518 
L 322.161347 258.116087 
L 322.301828 258.116087 
L 322.421236 257.283793 
L 322.484452 257.283793 
L 322.486794 257.006362 
L 324.874962 257.006362 
L 324.910082 256.451499 
L 325.008418 256.174068 
L 326.153334 256.174068 
L 327.640086 255.896637 
L 327.754812 255.064343 
L 327.869538 255.064343 
L 327.979581 254.509481 
L 328.131768 253.677187 
L 333.495782 253.677187 
L 333.910199 253.399756 
L 335.08087 253.399756 
L 335.200278 252.290032 
L 335.254129 252.290032 
L 335.352466 251.457738 
L 336.61679 251.457738 
L 341.025536 251.180307 
L 341.133238 250.625444 
L 341.184747 250.625444 
L 341.262012 249.793151 
L 345.462379 249.793151 
L 345.577104 249.51572 
L 345.584128 249.51572 
L 345.58647 249.238288 
L 350.320662 249.238288 
L 350.437729 248.405995 
L 350.447095 248.405995 
L 350.601623 247.29627 
L 350.660157 247.29627 
L 350.753811 246.741408 
L 353.425281 246.741408 
L 353.507228 245.909114 
L 353.556396 245.909114 
L 353.661757 245.076821 
L 353.692194 245.076821 
L 353.734338 244.521958 
L 359.510428 244.521958 
L 359.56662 243.689665 
L 359.742221 243.689665 
L 359.842899 242.857371 
L 359.873336 242.857371 
L 359.990403 242.025077 
L 359.997427 241.747646 
L 364.118188 241.747646 
L 364.279741 240.915353 
L 364.279741 240.915353 
L 364.300813 240.915353 
L 364.401491 240.36049 
L 364.546654 239.805628 
L 364.591139 239.805628 
L 364.595822 239.528197 
L 369.634389 239.528197 
L 369.763163 238.418472 
L 370.065196 236.753885 
L 371.193723 236.753885 
L 371.196064 236.476454 
L 371.338886 236.476454 
L 371.378689 235.921591 
L 373.741102 235.921591 
L 373.799636 235.64416 
L 373.909679 235.64416 
L 373.91202 235.366729 
L 376.899572 235.366729 
L 377.761186 235.089298 
L 377.861863 234.257004 
L 377.920397 234.257004 
L 378.037464 233.42471 
L 379.168332 233.42471 
L 379.168332 233.147279 
L 379.205794 233.147279 
L 380.863463 233.147279 
L 382.347874 232.869848 
L 382.422797 232.037554 
L 382.469624 232.037554 
L 382.56796 231.205261 
L 382.61947 231.205261 
L 382.738878 230.095536 
L 382.778681 230.095536 
L 382.827849 229.540674 
L 383.349968 229.540674 
L 383.380406 229.263243 
L 386.534193 229.263243 
L 386.691063 228.153518 
L 386.803447 228.153518 
L 386.939245 227.043793 
L 386.993096 227.043793 
L 386.995437 226.766362 
L 399.355379 226.766362 
L 399.484153 225.934068 
L 399.523956 225.934068 
L 399.563759 225.379206 
L 411.858143 225.379206 
L 411.911994 224.546912 
L 412.010331 224.546912 
L 412.237441 224.269481 
L 412.354508 223.437187 
L 412.4107 223.437187 
L 412.509036 222.604894 
L 412.544156 222.604894 
L 412.649517 221.7726 
L 421.71285 221.7726 
L 421.769042 221.217738 
L 423.813034 221.217738 
L 423.916053 220.662876 
L 424.084629 219.553151 
L 431.113337 219.553151 
L 431.228062 218.998288 
L 431.270206 218.998288 
L 431.38025 218.165995 
L 431.41537 218.165995 
L 431.478586 217.611132 
L 440.022141 217.611132 
L 440.143891 216.778839 
L 440.188377 216.778839 
L 440.305444 215.946545 
L 446.556826 215.946545 
L 446.641114 215.114252 
L 446.692624 215.114252 
L 446.77457 214.281958 
L 446.814373 214.281958 
L 446.910368 213.449665 
L 446.954854 213.449665 
L 447.041483 212.617371 
L 458.652196 212.617371 
L 458.757557 211.785077 
L 458.787994 211.785077 
L 458.916768 210.675353 
L 458.954229 210.675353 
L 458.996374 210.12049 
L 470.014727 210.12049 
L 470.108381 209.288197 
L 470.157549 209.288197 
L 470.433827 207.62361 
L 482.302088 207.62361 
L 482.346573 207.068747 
L 482.494078 207.068747 
L 482.583049 206.513885 
L 482.653289 206.513885 
L 482.700116 205.959022 
L 488.951498 205.959022 
L 489.0592 205.40416 
L 489.09432 205.40416 
L 489.192656 204.571866 
L 489.227776 204.571866 
L 489.32143 203.739573 
L 489.361233 203.739573 
L 489.398694 203.18471 
L 496.656853 203.18471 
L 496.787968 202.352417 
L 496.832454 202.352417 
L 496.916742 201.520123 
L 501.807805 201.520123 
L 501.892093 201.242692 
L 502.051304 200.410399 
L 506.078412 200.410399 
L 506.080753 200.132967 
L 507.256106 200.132967 
L 507.340395 199.300674 
L 507.389563 199.300674 
L 507.525361 198.745811 
L 511.152099 198.745811 
L 511.337065 197.636087 
L 511.386233 197.636087 
L 511.479887 197.358655 
L 515.073846 197.358655 
L 515.160476 196.526362 
L 515.258812 196.526362 
L 515.263495 196.248931 
L 517.99584 196.248931 
L 518.075446 195.971499 
L 519.676924 195.971499 
L 520.402739 195.694068 
L 522.041679 195.694068 
L 522.088505 195.139206 
L 523.626767 195.139206 
L 524.685053 194.861775 
L 525.469403 194.861775 
L 525.509205 194.306912 
L 526.54642 194.306912 
L 526.649439 193.474619 
L 526.698607 193.474619 
L 526.700948 193.197187 
L 529.032924 193.197187 
L 529.12892 192.087463 
L 529.189794 192.087463 
L 529.2694 191.5326 
L 533.710925 191.5326 
L 533.820968 191.255169 
L 533.980179 190.422876 
L 536.314497 190.422876 
L 536.429223 189.590582 
L 536.433905 189.590582 
L 536.454977 189.313151 
L 537.651403 189.313151 
L 538.981285 189.03572 
L 539.060891 188.203426 
L 539.100693 188.203426 
L 539.103035 187.925995 
L 542.032053 187.925995 
L 542.14912 187.093701 
L 542.280235 186.261408 
L 545.06409 186.261408 
L 546.279247 185.983976 
L 546.351828 185.429114 
L 546.417386 185.429114 
L 546.518063 184.874252 
L 551.123482 184.874252 
L 551.233525 183.764527 
L 551.278011 183.764527 
L 551.362299 183.209665 
L 551.41615 182.932233 
L 552.959094 182.932233 
L 552.991873 182.654802 
L 553.17918 182.654802 
L 553.23069 182.09994 
L 556.770798 182.09994 
L 556.883183 181.545077 
L 556.927668 181.545077 
L 557.030687 180.712784 
L 562.785705 180.712784 
L 562.809118 180.435353 
L 562.907455 180.435353 
L 562.984719 179.88049 
L 563.047935 179.88049 
L 563.122858 179.325628 
L 563.183733 179.325628 
L 563.218853 178.770765 
L 567.346638 178.770765 
L 567.444975 177.938472 
L 567.496484 177.938472 
L 567.606527 177.106178 
L 567.643989 177.106178 
L 567.64633 176.828747 
L 572.357109 176.828747 
L 572.42735 176.551316 
L 574.099067 176.273885 
L 574.101409 175.996454 
L 576.882923 175.996454 
L 577.037451 175.16416 
L 577.107691 175.16416 
L 577.194321 174.331866 
L 578.629563 174.331866 
L 580.076512 174.054435 
L 581.195674 174.054435 
L 581.256549 173.777004 
L 581.64287 173.777004 
L 581.645211 173.499573 
L 581.837201 173.499573 
L 581.947244 172.667279 
L 584.246442 172.667279 
L 585.030791 172.389848 
L 585.145517 171.557554 
L 585.1502 171.557554 
L 585.269608 171.002692 
L 587.056052 171.002692 
L 587.222287 169.892967 
L 588.999365 169.892967 
L 589.011072 169.615536 
L 590.406512 169.615536 
L 590.469728 169.338105 
L 592.537132 169.338105 
L 592.612055 168.783243 
L 592.679954 168.783243 
L 592.827459 167.673518 
L 592.867262 167.673518 
L 592.972622 166.841224 
L 616.299408 166.841224 
L 616.400086 166.008931 
L 616.418817 166.008931 
L 616.554614 164.899206 
L 616.589735 164.899206 
L 616.676364 164.066912 
L 625.161386 164.066912 
L 625.266746 163.234619 
L 625.297184 163.234619 
L 625.423616 162.124894 
L 625.472785 162.124894 
L 625.475126 161.847463 
L 633.782206 161.847463 
L 633.817326 161.570032 
L 637.858482 161.570032 
L 638.197976 159.905444 
L 638.233096 159.350582 
L 645.498279 159.350582 
L 645.624712 158.518288 
L 645.659832 158.518288 
L 645.748803 157.685995 
L 645.793288 157.685995 
L 645.79563 157.408564 
L 651.92292 157.408564 
L 652.051694 156.853701 
L 652.075108 156.853701 
L 652.152372 156.021408 
L 658.909484 156.021408 
L 659.012503 155.466545 
L 659.045282 155.466545 
L 659.143618 154.634252 
L 659.181079 154.634252 
L 659.284098 154.079389 
L 659.326243 154.079389 
L 659.436286 153.524527 
L 663.59685 153.524527 
L 663.61558 152.969665 
L 663.763085 152.969665 
L 663.852056 152.137371 
L 672.784274 152.137371 
L 672.884952 151.305077 
L 672.945827 151.305077 
L 673.067576 150.750215 
L 673.133134 150.750215 
L 673.135475 150.472784 
L 680.756542 150.472784 
L 680.836148 149.917921 
L 680.904047 149.917921 
L 680.906388 149.64049 
L 687.272496 149.64049 
L 687.429366 149.085628 
L 687.499606 149.085628 
L 687.581553 148.530765 
L 687.635404 148.530765 
L 687.76886 147.421041 
L 696.972674 147.421041 
L 697.059304 147.14361 
L 697.190419 146.588747 
L 697.248952 146.588747 
L 697.251294 146.311316 
L 701.802862 146.311316 
L 701.910563 145.479022 
L 701.945684 145.479022 
L 701.985486 145.201591 
L 705.497499 145.201591 
L 705.614566 144.091866 
L 705.659051 144.091866 
L 705.715243 143.537004 
L 709.742351 143.537004 
L 709.983509 141.872417 
L 710.025653 141.872417 
L 710.121648 141.040123 
L 719.454236 141.040123 
L 719.456577 140.762692 
L 719.639202 140.762692 
L 719.674322 140.20783 
L 722.879619 140.20783 
L 724.771423 139.930399 
L 724.932975 139.098105 
L 724.982143 139.098105 
L 725.02897 138.543243 
L 729.772528 138.543243 
L 729.77487 138.265811 
L 729.891937 138.265811 
L 730.00198 137.710949 
L 730.224407 136.323793 
L 738.194334 136.323793 
L 738.29267 135.768931 
L 738.372276 135.768931 
L 738.402713 135.491499 
L 740.786199 135.491499 
L 740.891559 134.659206 
L 740.933704 134.659206 
L 741.104622 133.826912 
L 743.059642 133.826912 
L 743.120517 133.27205 
L 744.960811 133.27205 
L 746.082314 132.994619 
L 746.187674 132.162325 
L 752.207263 132.162325 
L 752.296234 131.330032 
L 752.329013 131.330032 
L 752.436715 130.775169 
L 752.450763 130.775169 
L 752.511638 130.220307 
L 752.572513 130.220307 
L 752.666166 129.388013 
L 752.752796 129.388013 
L 752.780892 129.110582 
L 758.088713 129.110582 
L 758.205781 128.55572 
L 758.22217 128.55572 
L 758.297093 127.723426 
L 758.346261 127.723426 
L 758.348602 127.445995 
L 761.279962 127.445995 
L 761.373616 126.613701 
L 761.418101 126.613701 
L 761.495365 126.058839 
L 766.690802 126.058839 
L 767.095855 125.781408 
L 767.294869 124.671683 
L 772.052475 124.671683 
L 772.139104 123.839389 
L 772.178907 123.839389 
L 772.300657 123.284527 
L 772.366214 123.284527 
L 772.370897 123.007096 
L 775.379521 123.007096 
L 775.494247 122.174802 
L 775.543415 122.174802 
L 775.644093 121.61994 
L 776.0749 121.61994 
L 776.0749 121.61994 
L 778.390486 121.342509 
L 778.587159 119.955353 
L 778.638669 119.955353 
L 778.638669 119.955353 
L 778.755736 119.123059 
L 778.755736 119.123059 
L 778.802563 118.845628 
L 784.868979 118.845628 
L 784.87132 118.568197 
L 785.463679 118.568197 
L 785.543285 117.735903 
L 785.63928 117.735903 
L 785.72591 116.90361 
L 785.763371 116.90361 
L 785.810198 116.348747 
L 787.898675 116.348747 
L 787.997011 115.793885 
L 788.123443 114.961591 
L 790.712967 114.961591 
L 790.832376 113.851866 
L 794.189859 113.851866 
L 794.192201 113.574435 
L 794.960161 113.574435 
L 795.006988 113.019573 
L 806.046413 113.019573 
L 806.048755 112.742142 
L 806.165822 112.742142 
L 806.301619 111.909848 
L 806.35547 111.909848 
L 806.430393 111.354986 
L 814.376907 111.354986 
L 814.395637 111.077554 
L 821.4501 111.077554 
L 821.50395 110.245261 
L 821.684234 110.245261 
L 821.766181 109.690399 
L 821.848128 109.690399 
L 821.944123 108.858105 
L 821.976901 108.858105 
L 822.028411 108.580674 
L 837.298641 108.580674 
L 837.40166 108.025811 
L 837.439121 108.025811 
L 837.579602 107.470949 
L 837.626429 107.470949 
L 837.710717 106.916087 
L 837.755202 106.916087 
L 837.759885 106.638655 
L 850.375034 106.638655 
L 850.693456 104.141775 
L 850.747307 104.141775 
L 850.831595 103.309481 
L 860.339783 103.309481 
L 860.440461 102.477187 
L 869.53189 102.477187 
L 869.651299 101.367463 
L 869.681736 101.367463 
L 869.817534 101.090032 
L 879.040079 101.090032 
L 879.159487 100.257738 
L 879.417035 98.870582 
L 889.552702 98.870582 
L 889.709572 98.31572 
L 889.742351 98.038288 
L 890.831075 98.038288 
L 890.835758 97.760857 
L 892.800143 97.760857 
L 892.84697 97.205995 
L 897.901926 97.205995 
L 897.993239 96.373701 
L 898.0307 96.373701 
L 898.18757 95.541408 
L 898.295272 94.986545 
L 908.358358 94.986545 
L 908.48479 93.876821 
L 908.557372 93.876821 
L 908.686146 93.321958 
L 908.686146 93.321958 
L 911.947635 93.321958 
L 912.001485 93.044527 
L 915.096739 93.044527 
L 915.176345 92.212233 
L 915.225513 92.212233 
L 915.314484 91.657371 
L 918.393348 91.657371 
L 918.517439 91.102509 
L 918.524463 91.102509 
L 918.646213 90.547646 
L 918.683674 90.270215 
L 923.724583 90.270215 
L 923.879111 89.437921 
L 926.801106 89.437921 
L 926.908807 88.605628 
L 926.941586 88.605628 
L 927.058653 87.773334 
L 927.077384 87.773334 
L 927.098456 87.495903 
L 933.382617 87.495903 
L 933.509049 87.218472 
L 935.403195 87.218472 
L 935.513238 86.66361 
L 935.53431 86.66361 
L 935.644353 85.831316 
L 935.672449 85.831316 
L 935.749713 85.276454 
L 941.432149 85.276454 
L 941.668625 84.44416 
L 941.788033 83.611866 
L 941.827836 83.611866 
L 941.916807 82.779573 
L 944.998012 82.779573 
L 945.173613 81.392417 
L 945.204051 81.392417 
L 945.330483 80.560123 
L 955.503612 80.560123 
L 955.662823 79.450399 
L 955.754136 79.450399 
L 955.784573 79.172967 
L 956.690672 79.172967 
L 956.690672 79.172967 
L 956.805398 78.340674 
L 962.965468 78.340674 
L 963.038049 77.50838 
L 963.087218 77.50838 
L 963.173847 76.676087 
L 963.208967 76.676087 
L 963.255794 76.121224 
L 966.89658 76.121224 
L 967.008965 75.288931 
L 967.05345 75.288931 
L 967.128373 74.734068 
L 967.250123 74.179206 
L 972.862319 74.179206 
L 972.95129 73.346912 
L 972.993434 73.346912 
L 973.117525 72.514619 
L 973.154986 72.514619 
L 973.250981 71.959756 
L 979.612407 71.959756 
L 979.612407 71.682325 
L 981.157692 71.682325 
L 981.267735 71.127463 
L 981.302855 71.127463 
L 981.403533 70.017738 
L 981.443336 70.017738 
L 981.558061 68.908013 
L 981.602547 68.908013 
L 981.630643 68.630582 
L 986.486585 68.630582 
L 986.488927 68.353151 
L 988.165327 68.353151 
L 988.273029 67.798288 
L 988.453312 66.965995 
L 991.836551 66.965995 
L 992.232238 65.023976 
L 1001.784911 65.023976 
L 1012.433333 64.746545 
L 1012.524645 63.636821 
L 1012.571472 63.636821 
L 1012.690881 62.527096 
L 1037.427154 62.527096 
L 1037.427154 62.527096 
L 1037.572318 61.417371 
L 1037.607438 61.417371 
L 1037.703433 60.585077 
L 1037.731529 60.585077 
L 1037.780697 60.030215 
L 1051.763189 60.030215 
L 1051.868549 59.197921 
L 1051.901328 59.197921 
L 1052.013712 58.643059 
L 1052.018395 58.643059 
L 1052.037126 58.365628 
L 1054.586847 58.365628 
L 1054.586847 58.365628 
L 1054.614943 58.088197 
L 1061.919929 58.088197 
L 1062.013582 57.255903 
L 1062.062751 57.255903 
L 1062.168111 56.42361 
L 1062.198548 56.42361 
L 1062.282837 55.591316 
L 1071.877655 55.591316 
L 1071.931505 54.759022 
L 1071.975991 54.759022 
L 1072.247586 53.371866 
L 1083.734208 53.371866 
L 1083.865323 52.262142 
L 1083.914492 52.262142 
L 1084.001121 51.707279 
L 1084.0339 51.429848 
L 1092.661744 51.429848 
L 1092.767104 50.874986 
L 1092.928657 49.765261 
L 1092.977825 49.765261 
L 1093.019969 49.48783 
L 1097.594951 49.48783 
L 1097.712018 48.655536 
L 1097.822061 47.823243 
L 1106.262597 47.823243 
L 1106.379664 46.713518 
L 1106.417126 46.713518 
L 1106.52951 45.881224 
L 1106.566972 45.881224 
L 1106.571654 45.603793 
L 1110.235854 45.603793 
L 1110.338873 45.048931 
L 1110.373993 45.048931 
L 1110.460623 44.494068 
L 1113.921125 44.494068 
L 1114.019462 43.661775 
L 1114.059265 43.661775 
L 1114.162284 42.829481 
L 1114.20911 42.829481 
L 1114.213793 42.55205 
L 1118.261973 42.55205 
L 1118.268997 42.274619 
L 1120.867886 42.274619 
L 1120.870227 41.997187 
L 1120.870227 41.997187 
" clip-path="url(#pf6d950aa92)" style="fill: none; stroke: #0000ff; stroke-width: 1.5; stroke-linecap: square"/>
   </g>
   <g id="patch_144">
    <path d="M 55.5975 359.517187 
L 55.5975 26.877187 
" style="fill: none; stroke: #000000; stroke-width: 0.8; stroke-linejoin: miter; stroke-linecap: square"/>
   </g>
   <g id="patch_145">
    <path d="M 1171.5975 359.517187 
L 1171.5975 26.877187 
" style="fill: none; stroke: #000000; stroke-width: 0.8; stroke-linejoin: miter; stroke-linecap: square"/>
   </g>
   <g id="patch_146">
    <path d="M 55.5975 359.517187 
L 1171.5975 359.517187 
" style="fill: none; stroke: #000000; stroke-width: 0.8; stroke-linejoin: miter; stroke-linecap: square"/>
   </g>
   <g id="patch_147">
    <path d="M 55.5975 26.877187 
L 1171.5975 26.877187 
" style="fill: none; stroke: #000000; stroke-width: 0.8; stroke-linejoin: miter; stroke-linecap: square"/>
   </g>
   <g id="text_14">
    <!-- Pellet Count and Cumulative Sum Over Time of Group 6 Mouse 3 -->
    <g transform="translate(321.823125 20.877187) scale(0.18 -0.18)">
     <defs>
      <path id="DejaVuSans-20" transform="scale(0.015625)"/>
      <path id="DejaVuSans-61" d="M 2194 1759 
Q 1497 1759 1228 1600 
Q 959 1441 959 1056 
Q 959 750 1161 570 
Q 1363 391 1709 391 
Q 2188 391 2477 730 
Q 2766 1069 2766 1631 
L 2766 1759 
L 2194 1759 
z
M 3341 1997 
L 3341 0 
L 2766 0 
L 2766 531 
Q 2569 213 2275 61 
Q 1981 -91 1556 -91 
Q 1019 -91 701 211 
Q 384 513 384 1019 
Q 384 1609 779 1909 
Q 1175 2209 1959 2209 
L 2766 2209 
L 2766 2266 
Q 2766 2663 2505 2880 
Q 2244 3097 1772 3097 
Q 1472 3097 1187 3025 
Q 903 2953 641 2809 
L 641 3341 
Q 956 3463 1253 3523 
Q 1550 3584 1831 3584 
Q 2591 3584 2966 3190 
Q 3341 2797 3341 1997 
z
" transform="scale(0.015625)"/>
      <path id="DejaVuSans-64" d="M 2906 2969 
L 2906 4863 
L 3481 4863 
L 3481 0 
L 2906 0 
L 2906 525 
Q 2725 213 2448 61 
Q 2172 -91 1784 -91 
Q 1150 -91 751 415 
Q 353 922 353 1747 
Q 353 2572 751 3078 
Q 1150 3584 1784 3584 
Q 2172 3584 2448 3432 
Q 2725 3281 2906 2969 
z
M 947 1747 
Q 947 1113 1208 752 
Q 1469 391 1925 391 
Q 2381 391 2643 752 
Q 2906 1113 2906 1747 
Q 2906 2381 2643 2742 
Q 2381 3103 1925 3103 
Q 1469 3103 1208 2742 
Q 947 2381 947 1747 
z
" transform="scale(0.015625)"/>
      <path id="DejaVuSans-76" d="M 191 3500 
L 800 3500 
L 1894 563 
L 2988 3500 
L 3597 3500 
L 2284 0 
L 1503 0 
L 191 3500 
z
" transform="scale(0.015625)"/>
      <path id="DejaVuSans-53" d="M 3425 4513 
L 3425 3897 
Q 3066 4069 2747 4153 
Q 2428 4238 2131 4238 
Q 1616 4238 1336 4038 
Q 1056 3838 1056 3469 
Q 1056 3159 1242 3001 
Q 1428 2844 1947 2747 
L 2328 2669 
Q 3034 2534 3370 2195 
Q 3706 1856 3706 1288 
Q 3706 609 3251 259 
Q 2797 -91 1919 -91 
Q 1588 -91 1214 -16 
Q 841 59 441 206 
L 441 856 
Q 825 641 1194 531 
Q 1563 422 1919 422 
Q 2459 422 2753 634 
Q 3047 847 3047 1241 
Q 3047 1584 2836 1778 
Q 2625 1972 2144 2069 
L 1759 2144 
Q 1053 2284 737 2584 
Q 422 2884 422 3419 
Q 422 4038 858 4394 
Q 1294 4750 2059 4750 
Q 2388 4750 2728 4690 
Q 3069 4631 3425 4513 
z
" transform="scale(0.015625)"/>
      <path id="DejaVuSans-4f" d="M 2522 4238 
Q 1834 4238 1429 3725 
Q 1025 3213 1025 2328 
Q 1025 1447 1429 934 
Q 1834 422 2522 422 
Q 3209 422 3611 934 
Q 4013 1447 4013 2328 
Q 4013 3213 3611 3725 
Q 3209 4238 2522 4238 
z
M 2522 4750 
Q 3503 4750 4090 4092 
Q 4678 3434 4678 2328 
Q 4678 1225 4090 567 
Q 3503 -91 2522 -91 
Q 1538 -91 948 565 
Q 359 1222 359 2328 
Q 359 3434 948 4092 
Q 1538 4750 2522 4750 
z
" transform="scale(0.015625)"/>
      <path id="DejaVuSans-72" d="M 2631 2963 
Q 2534 3019 2420 3045 
Q 2306 3072 2169 3072 
Q 1681 3072 1420 2755 
Q 1159 2438 1159 1844 
L 1159 0 
L 581 0 
L 581 3500 
L 1159 3500 
L 1159 2956 
Q 1341 3275 1631 3429 
Q 1922 3584 2338 3584 
Q 2397 3584 2469 3576 
Q 2541 3569 2628 3553 
L 2631 2963 
z
" transform="scale(0.015625)"/>
      <path id="DejaVuSans-66" d="M 2375 4863 
L 2375 4384 
L 1825 4384 
Q 1516 4384 1395 4259 
Q 1275 4134 1275 3809 
L 1275 3500 
L 2222 3500 
L 2222 3053 
L 1275 3053 
L 1275 0 
L 697 0 
L 697 3053 
L 147 3053 
L 147 3500 
L 697 3500 
L 697 3744 
Q 697 4328 969 4595 
Q 1241 4863 1831 4863 
L 2375 4863 
z
" transform="scale(0.015625)"/>
      <path id="DejaVuSans-47" d="M 3809 666 
L 3809 1919 
L 2778 1919 
L 2778 2438 
L 4434 2438 
L 4434 434 
Q 4069 175 3628 42 
Q 3188 -91 2688 -91 
Q 1594 -91 976 548 
Q 359 1188 359 2328 
Q 359 3472 976 4111 
Q 1594 4750 2688 4750 
Q 3144 4750 3555 4637 
Q 3966 4525 4313 4306 
L 4313 3634 
Q 3963 3931 3569 4081 
Q 3175 4231 2741 4231 
Q 1884 4231 1454 3753 
Q 1025 3275 1025 2328 
Q 1025 1384 1454 906 
Q 1884 428 2741 428 
Q 3075 428 3337 486 
Q 3600 544 3809 666 
z
" transform="scale(0.015625)"/>
      <path id="DejaVuSans-70" d="M 1159 525 
L 1159 -1331 
L 581 -1331 
L 581 3500 
L 1159 3500 
L 1159 2969 
Q 1341 3281 1617 3432 
Q 1894 3584 2278 3584 
Q 2916 3584 3314 3078 
Q 3713 2572 3713 1747 
Q 3713 922 3314 415 
Q 2916 -91 2278 -91 
Q 1894 -91 1617 61 
Q 1341 213 1159 525 
z
M 3116 1747 
Q 3116 2381 2855 2742 
Q 2594 3103 2138 3103 
Q 1681 3103 1420 2742 
Q 1159 2381 1159 1747 
Q 1159 1113 1420 752 
Q 1681 391 2138 391 
Q 2594 391 2855 752 
Q 3116 1113 3116 1747 
z
" transform="scale(0.015625)"/>
      <path id="DejaVuSans-4d" d="M 628 4666 
L 1569 4666 
L 2759 1491 
L 3956 4666 
L 4897 4666 
L 4897 0 
L 4281 0 
L 4281 4097 
L 3078 897 
L 2444 897 
L 1241 4097 
L 1241 0 
L 628 0 
L 628 4666 
z
" transform="scale(0.015625)"/>
      <path id="DejaVuSans-73" d="M 2834 3397 
L 2834 2853 
Q 2591 2978 2328 3040 
Q 2066 3103 1784 3103 
Q 1356 3103 1142 2972 
Q 928 2841 928 2578 
Q 928 2378 1081 2264 
Q 1234 2150 1697 2047 
L 1894 2003 
Q 2506 1872 2764 1633 
Q 3022 1394 3022 966 
Q 3022 478 2636 193 
Q 2250 -91 1575 -91 
Q 1294 -91 989 -36 
Q 684 19 347 128 
L 347 722 
Q 666 556 975 473 
Q 1284 391 1588 391 
Q 1994 391 2212 530 
Q 2431 669 2431 922 
Q 2431 1156 2273 1281 
Q 2116 1406 1581 1522 
L 1381 1569 
Q 847 1681 609 1914 
Q 372 2147 372 2553 
Q 372 3047 722 3315 
Q 1072 3584 1716 3584 
Q 2034 3584 2315 3537 
Q 2597 3491 2834 3397 
z
" transform="scale(0.015625)"/>
      <path id="DejaVuSans-33" d="M 2597 2516 
Q 3050 2419 3304 2112 
Q 3559 1806 3559 1356 
Q 3559 666 3084 287 
Q 2609 -91 1734 -91 
Q 1441 -91 1130 -33 
Q 819 25 488 141 
L 488 750 
Q 750 597 1062 519 
Q 1375 441 1716 441 
Q 2309 441 2620 675 
Q 2931 909 2931 1356 
Q 2931 1769 2642 2001 
Q 2353 2234 1838 2234 
L 1294 2234 
L 1294 2753 
L 1863 2753 
Q 2328 2753 2575 2939 
Q 2822 3125 2822 3475 
Q 2822 3834 2567 4026 
Q 2313 4219 1838 4219 
Q 1578 4219 1281 4162 
Q 984 4106 628 3988 
L 628 4550 
Q 988 4650 1302 4700 
Q 1616 4750 1894 4750 
Q 2613 4750 3031 4423 
Q 3450 4097 3450 3541 
Q 3450 3153 3228 2886 
Q 3006 2619 2597 2516 
z
" transform="scale(0.015625)"/>
     </defs>
     <use xlink:href="#DejaVuSans-50"/>
     <use xlink:href="#DejaVuSans-65" x="56.677734"/>
     <use xlink:href="#DejaVuSans-6c" x="118.201172"/>
     <use xlink:href="#DejaVuSans-6c" x="145.984375"/>
     <use xlink:href="#DejaVuSans-65" x="173.767578"/>
     <use xlink:href="#DejaVuSans-74" x="235.291016"/>
     <use xlink:href="#DejaVuSans-20" x="274.5"/>
     <use xlink:href="#DejaVuSans-43" x="306.287109"/>
     <use xlink:href="#DejaVuSans-6f" x="376.111328"/>
     <use xlink:href="#DejaVuSans-75" x="437.292969"/>
     <use xlink:href="#DejaVuSans-6e" x="500.671875"/>
     <use xlink:href="#DejaVuSans-74" x="564.050781"/>
     <use xlink:href="#DejaVuSans-20" x="603.259766"/>
     <use xlink:href="#DejaVuSans-61" x="635.046875"/>
     <use xlink:href="#DejaVuSans-6e" x="696.326172"/>
     <use xlink:href="#DejaVuSans-64" x="759.705078"/>
     <use xlink:href="#DejaVuSans-20" x="823.181641"/>
     <use xlink:href="#DejaVuSans-43" x="854.96875"/>
     <use xlink:href="#DejaVuSans-75" x="924.792969"/>
     <use xlink:href="#DejaVuSans-6d" x="988.171875"/>
     <use xlink:href="#DejaVuSans-75" x="1085.583984"/>
     <use xlink:href="#DejaVuSans-6c" x="1148.962891"/>
     <use xlink:href="#DejaVuSans-61" x="1176.746094"/>
     <use xlink:href="#DejaVuSans-74" x="1238.025391"/>
     <use xlink:href="#DejaVuSans-69" x="1277.234375"/>
     <use xlink:href="#DejaVuSans-76" x="1305.017578"/>
     <use xlink:href="#DejaVuSans-65" x="1364.197266"/>
     <use xlink:href="#DejaVuSans-20" x="1425.720703"/>
     <use xlink:href="#DejaVuSans-53" x="1457.507812"/>
     <use xlink:href="#DejaVuSans-75" x="1520.984375"/>
     <use xlink:href="#DejaVuSans-6d" x="1584.363281"/>
     <use xlink:href="#DejaVuSans-20" x="1681.775391"/>
     <use xlink:href="#DejaVuSans-4f" x="1713.5625"/>
     <use xlink:href="#DejaVuSans-76" x="1792.273438"/>
     <use xlink:href="#DejaVuSans-65" x="1851.453125"/>
     <use xlink:href="#DejaVuSans-72" x="1912.976562"/>
     <use xlink:href="#DejaVuSans-20" x="1954.089844"/>
     <use xlink:href="#DejaVuSans-54" x="1985.876953"/>
     <use xlink:href="#DejaVuSans-69" x="2043.835938"/>
     <use xlink:href="#DejaVuSans-6d" x="2071.619141"/>
     <use xlink:href="#DejaVuSans-65" x="2169.03125"/>
     <use xlink:href="#DejaVuSans-20" x="2230.554688"/>
     <use xlink:href="#DejaVuSans-6f" x="2262.341797"/>
     <use xlink:href="#DejaVuSans-66" x="2323.523438"/>
     <use xlink:href="#DejaVuSans-20" x="2358.728516"/>
     <use xlink:href="#DejaVuSans-47" x="2390.515625"/>
     <use xlink:href="#DejaVuSans-72" x="2468.005859"/>
     <use xlink:href="#DejaVuSans-6f" x="2506.869141"/>
     <use xlink:href="#DejaVuSans-75" x="2568.050781"/>
     <use xlink:href="#DejaVuSans-70" x="2631.429688"/>
     <use xlink:href="#DejaVuSans-20" x="2694.90625"/>
     <use xlink:href="#DejaVuSans-36" x="2726.693359"/>
     <use xlink:href="#DejaVuSans-20" x="2790.316406"/>
     <use xlink:href="#DejaVuSans-4d" x="2822.103516"/>
     <use xlink:href="#DejaVuSans-6f" x="2908.382812"/>
     <use xlink:href="#DejaVuSans-75" x="2969.564453"/>
     <use xlink:href="#DejaVuSans-73" x="3032.943359"/>
     <use xlink:href="#DejaVuSans-65" x="3085.042969"/>
     <use xlink:href="#DejaVuSans-20" x="3146.566406"/>
     <use xlink:href="#DejaVuSans-33" x="3178.353516"/>
    </g>
   </g>
   <g id="legend_1">
    <g id="patch_148">
     <path d="M 1092.913125 64.233437 
L 1164.5975 64.233437 
Q 1166.5975 64.233437 1166.5975 62.233437 
L 1166.5975 33.877187 
Q 1166.5975 31.877187 1164.5975 31.877187 
L 1092.913125 31.877187 
Q 1090.913125 31.877187 1090.913125 33.877187 
L 1090.913125 62.233437 
Q 1090.913125 64.233437 1092.913125 64.233437 
z
" style="fill: #ffffff; opacity: 0.8; stroke: #cccccc; stroke-linejoin: miter"/>
    </g>
    <g id="patch_149">
     <path d="M 1094.913125 43.475625 
L 1114.913125 43.475625 
L 1114.913125 36.475625 
L 1094.913125 36.475625 
z
" style="fill: #add8e6; opacity: 0.9; stroke: #add8e6; stroke-linejoin: miter"/>
    </g>
    <g id="text_15">
     <!-- Meal -->
     <g transform="translate(1122.913125 43.475625) scale(0.1 -0.1)">
      <use xlink:href="#DejaVuSans-4d"/>
      <use xlink:href="#DejaVuSans-65" x="86.279297"/>
      <use xlink:href="#DejaVuSans-61" x="147.802734"/>
      <use xlink:href="#DejaVuSans-6c" x="209.082031"/>
     </g>
    </g>
    <g id="patch_150">
     <path d="M 1094.913125 58.15375 
L 1114.913125 58.15375 
L 1114.913125 51.15375 
L 1094.913125 51.15375 
z
" style="fill: #808080; opacity: 0.5; stroke: #808080; stroke-linejoin: miter"/>
    </g>
    <g id="text_16">
     <!-- Inactive -->
     <g transform="translate(1122.913125 58.15375) scale(0.1 -0.1)">
      <defs>
       <path id="DejaVuSans-49" d="M 628 4666 
L 1259 4666 
L 1259 0 
L 628 0 
L 628 4666 
z
" transform="scale(0.015625)"/>
       <path id="DejaVuSans-63" d="M 3122 3366 
L 3122 2828 
Q 2878 2963 2633 3030 
Q 2388 3097 2138 3097 
Q 1578 3097 1268 2742 
Q 959 2388 959 1747 
Q 959 1106 1268 751 
Q 1578 397 2138 397 
Q 2388 397 2633 464 
Q 2878 531 3122 666 
L 3122 134 
Q 2881 22 2623 -34 
Q 2366 -91 2075 -91 
Q 1284 -91 818 406 
Q 353 903 353 1747 
Q 353 2603 823 3093 
Q 1294 3584 2113 3584 
Q 2378 3584 2631 3529 
Q 2884 3475 3122 3366 
z
" transform="scale(0.015625)"/>
      </defs>
      <use xlink:href="#DejaVuSans-49"/>
      <use xlink:href="#DejaVuSans-6e" x="29.492188"/>
      <use xlink:href="#DejaVuSans-61" x="92.871094"/>
      <use xlink:href="#DejaVuSans-63" x="154.150391"/>
      <use xlink:href="#DejaVuSans-74" x="209.130859"/>
      <use xlink:href="#DejaVuSans-69" x="248.339844"/>
      <use xlink:href="#DejaVuSans-76" x="276.123047"/>
      <use xlink:href="#DejaVuSans-65" x="335.302734"/>
     </g>
    </g>
   </g>
  </g>
 </g>
 <defs>
  <clipPath id="pf6d950aa92">
   <rect x="55.5975" y="26.877187" width="1116" height="332.64"/>
  </clipPath>
 </defs>
</svg>
