<?xml version="1.0" encoding="utf-8" standalone="no"?>
<!DOCTYPE svg PUBLIC "-//W3C//DTD SVG 1.1//EN"
  "http://www.w3.org/Graphics/SVG/1.1/DTD/svg11.dtd">
<svg xmlns:xlink="http://www.w3.org/1999/xlink" width="1172.435pt" height="399.009062pt" viewBox="0 0 1172.435 399.009062" xmlns="http://www.w3.org/2000/svg" version="1.1">
 <metadata>
  <rdf:RDF xmlns:dc="http://purl.org/dc/elements/1.1/" xmlns:cc="http://creativecommons.org/ns#" xmlns:rdf="http://www.w3.org/1999/02/22-rdf-syntax-ns#">
   <cc:Work>
    <dc:type rdf:resource="http://purl.org/dc/dcmitype/StillImage"/>
    <dc:date>2025-04-10T14:47:54.841902</dc:date>
    <dc:format>image/svg+xml</dc:format>
    <dc:creator>
     <cc:Agent>
      <dc:title>Matplotlib v3.8.3, https://matplotlib.org/</dc:title>
     </cc:Agent>
    </dc:creator>
   </cc:Work>
  </rdf:RDF>
 </metadata>
 <defs>
  <style type="text/css">*{stroke-linejoin: round; stroke-linecap: butt}</style>
 </defs>
 <g id="figure_1">
  <g id="patch_1">
   <path d="M 0 399.009062 
L 1172.435 399.009062 
L 1172.435 0 
L 0 0 
z
" style="fill: #ffffff"/>
  </g>
  <g id="axes_1">
   <g id="patch_2">
    <path d="M 49.235 359.517187 
L 1165.235 359.517187 
L 1165.235 26.877187 
L 49.235 26.877187 
z
" style="fill: #ffffff"/>
   </g>
   <g id="patch_3">
    <path d="M 100.151874 359.517187 
L 100.151874 26.877187 
L 100.200283 26.877187 
L 100.200283 359.517187 
z
" clip-path="url(#pf821fdbb1c)" style="fill: #add8e6; stroke: #add8e6; stroke-linejoin: miter"/>
   </g>
   <g id="patch_4">
    <path d="M 100.330526 359.517187 
L 100.330526 26.877187 
L 100.368561 26.877187 
L 100.368561 359.517187 
z
" clip-path="url(#pf821fdbb1c)" style="fill: #add8e6; stroke: #add8e6; stroke-linejoin: miter"/>
   </g>
   <g id="patch_5">
    <path d="M 100.526466 359.517187 
L 100.526466 26.877187 
L 100.631352 26.877187 
L 100.631352 359.517187 
z
" clip-path="url(#pf821fdbb1c)" style="fill: #add8e6; stroke: #add8e6; stroke-linejoin: miter"/>
   </g>
   <g id="patch_6">
    <path d="M 100.708576 359.517187 
L 100.708576 26.877187 
L 100.854955 26.877187 
L 100.854955 359.517187 
z
" clip-path="url(#pf821fdbb1c)" style="fill: #add8e6; stroke: #add8e6; stroke-linejoin: miter"/>
   </g>
   <g id="patch_7">
    <path d="M 100.939094 359.517187 
L 100.939094 26.877187 
L 101.091812 26.877187 
L 101.091812 359.517187 
z
" clip-path="url(#pf821fdbb1c)" style="fill: #add8e6; stroke: #add8e6; stroke-linejoin: miter"/>
   </g>
   <g id="patch_8">
    <path d="M 102.070939 359.517187 
L 102.070939 26.877187 
L 102.232878 26.877187 
L 102.232878 359.517187 
z
" clip-path="url(#pf821fdbb1c)" style="fill: #add8e6; stroke: #add8e6; stroke-linejoin: miter"/>
   </g>
   <g id="patch_9">
    <path d="M 102.285897 359.517187 
L 102.285897 26.877187 
L 102.236335 26.877187 
L 102.236335 359.517187 
z
" clip-path="url(#pf821fdbb1c)" style="fill: #add8e6; stroke: #add8e6; stroke-linejoin: miter"/>
   </g>
   <g id="patch_10">
    <path d="M 110.377664 359.517187 
L 110.377664 26.877187 
L 103.861489 26.877187 
L 103.861489 359.517187 
z
" clip-path="url(#pf821fdbb1c)" style="fill: #add8e6; stroke: #add8e6; stroke-linejoin: miter"/>
   </g>
   <g id="patch_11">
    <path d="M 118.333426 359.517187 
L 118.333426 26.877187 
L 118.48211 26.877187 
L 118.48211 359.517187 
z
" clip-path="url(#pf821fdbb1c)" style="fill: #add8e6; stroke: #add8e6; stroke-linejoin: miter"/>
   </g>
   <g id="patch_12">
    <path d="M 121.535324 359.517187 
L 121.535324 26.877187 
L 121.630989 26.877187 
L 121.630989 359.517187 
z
" clip-path="url(#pf821fdbb1c)" style="fill: #add8e6; stroke: #add8e6; stroke-linejoin: miter"/>
   </g>
   <g id="patch_13">
    <path d="M 122.030362 359.517187 
L 122.030362 26.877187 
L 122.094331 26.877187 
L 122.094331 359.517187 
z
" clip-path="url(#pf821fdbb1c)" style="fill: #add8e6; stroke: #add8e6; stroke-linejoin: miter"/>
   </g>
   <g id="patch_14">
    <path d="M 123.852033 359.517187 
L 123.852033 26.877187 
L 123.905052 26.877187 
L 123.905052 359.517187 
z
" clip-path="url(#pf821fdbb1c)" style="fill: #add8e6; stroke: #add8e6; stroke-linejoin: miter"/>
   </g>
   <g id="patch_15">
    <path d="M 124.031837 359.517187 
L 124.031837 26.877187 
L 124.071025 26.877187 
L 124.071025 359.517187 
z
" clip-path="url(#pf821fdbb1c)" style="fill: #add8e6; stroke: #add8e6; stroke-linejoin: miter"/>
   </g>
   <g id="patch_16">
    <path d="M 127.298857 359.517187 
L 127.298857 26.877187 
L 127.377233 26.877187 
L 127.377233 359.517187 
z
" clip-path="url(#pf821fdbb1c)" style="fill: #add8e6; stroke: #add8e6; stroke-linejoin: miter"/>
   </g>
   <g id="patch_17">
    <path d="M 127.571445 359.517187 
L 127.571445 26.877187 
L 127.646364 26.877187 
L 127.646364 359.517187 
z
" clip-path="url(#pf821fdbb1c)" style="fill: #add8e6; stroke: #add8e6; stroke-linejoin: miter"/>
   </g>
   <g id="patch_18">
    <path d="M 127.871695 359.517187 
L 127.871695 26.877187 
L 127.77142 26.877187 
L 127.77142 359.517187 
z
" clip-path="url(#pf821fdbb1c)" style="fill: #add8e6; stroke: #add8e6; stroke-linejoin: miter"/>
   </g>
   <g id="patch_19">
    <path d="M 131.841796 359.517187 
L 131.841796 26.877187 
L 131.543275 26.877187 
L 131.543275 359.517187 
z
" clip-path="url(#pf821fdbb1c)" style="fill: #add8e6; stroke: #add8e6; stroke-linejoin: miter"/>
   </g>
   <g id="patch_20">
    <path d="M 143.296825 359.517187 
L 143.296825 26.877187 
L 143.435136 26.877187 
L 143.435136 359.517187 
z
" clip-path="url(#pf821fdbb1c)" style="fill: #add8e6; stroke: #add8e6; stroke-linejoin: miter"/>
   </g>
   <g id="patch_21">
    <path d="M 143.50602 359.517187 
L 143.50602 26.877187 
L 143.616093 26.877187 
L 143.616093 359.517187 
z
" clip-path="url(#pf821fdbb1c)" style="fill: #add8e6; stroke: #add8e6; stroke-linejoin: miter"/>
   </g>
   <g id="patch_22">
    <path d="M 143.954378 359.517187 
L 143.954378 26.877187 
L 144.09096 26.877187 
L 144.09096 359.517187 
z
" clip-path="url(#pf821fdbb1c)" style="fill: #add8e6; stroke: #add8e6; stroke-linejoin: miter"/>
   </g>
   <g id="patch_23">
    <path d="M 154.84579 359.517187 
L 154.84579 26.877187 
L 154.868265 26.877187 
L 154.868265 359.517187 
z
" clip-path="url(#pf821fdbb1c)" style="fill: #add8e6; stroke: #add8e6; stroke-linejoin: miter"/>
   </g>
   <g id="patch_24">
    <path d="M 173.621502 359.517187 
L 173.621502 26.877187 
L 170.107828 26.877187 
L 170.107828 359.517187 
z
" clip-path="url(#pf821fdbb1c)" style="fill: #add8e6; stroke: #add8e6; stroke-linejoin: miter"/>
   </g>
   <g id="patch_25">
    <path d="M 185.092667 359.517187 
L 185.092667 26.877187 
L 181.410714 26.877187 
L 181.410714 359.517187 
z
" clip-path="url(#pf821fdbb1c)" style="fill: #add8e6; stroke: #add8e6; stroke-linejoin: miter"/>
   </g>
   <g id="patch_26">
    <path d="M 206.241565 359.517187 
L 206.241565 26.877187 
L 200.151849 26.877187 
L 200.151849 359.517187 
z
" clip-path="url(#pf821fdbb1c)" style="fill: #add8e6; stroke: #add8e6; stroke-linejoin: miter"/>
   </g>
   <g id="patch_27">
    <path d="M 209.511467 359.517187 
L 209.511467 26.877187 
L 209.575436 26.877187 
L 209.575436 359.517187 
z
" clip-path="url(#pf821fdbb1c)" style="fill: #add8e6; stroke: #add8e6; stroke-linejoin: miter"/>
   </g>
   <g id="patch_28">
    <path d="M 210.056643 359.517187 
L 210.056643 26.877187 
L 210.093526 26.877187 
L 210.093526 359.517187 
z
" clip-path="url(#pf821fdbb1c)" style="fill: #add8e6; stroke: #add8e6; stroke-linejoin: miter"/>
   </g>
   <g id="patch_29">
    <path d="M 229.938843 359.517187 
L 229.938843 26.877187 
L 226.587684 26.877187 
L 226.587684 359.517187 
z
" clip-path="url(#pf821fdbb1c)" style="fill: #add8e6; stroke: #add8e6; stroke-linejoin: miter"/>
   </g>
   <g id="patch_30">
    <path d="M 252.211518 359.517187 
L 252.211518 26.877187 
L 249.232069 26.877187 
L 249.232069 359.517187 
z
" clip-path="url(#pf821fdbb1c)" style="fill: #add8e6; stroke: #add8e6; stroke-linejoin: miter"/>
   </g>
   <g id="patch_31">
    <path d="M 262.762338 359.517187 
L 262.762338 26.877187 
L 262.895463 26.877187 
L 262.895463 359.517187 
z
" clip-path="url(#pf821fdbb1c)" style="fill: #add8e6; stroke: #add8e6; stroke-linejoin: miter"/>
   </g>
   <g id="patch_32">
    <path d="M 263.011298 359.517187 
L 263.011298 26.877187 
L 263.100048 26.877187 
L 263.100048 359.517187 
z
" clip-path="url(#pf821fdbb1c)" style="fill: #add8e6; stroke: #add8e6; stroke-linejoin: miter"/>
   </g>
   <g id="patch_33">
    <path d="M 271.747364 359.517187 
L 271.747364 26.877187 
L 271.838995 26.877187 
L 271.838995 359.517187 
z
" clip-path="url(#pf821fdbb1c)" style="fill: #add8e6; stroke: #add8e6; stroke-linejoin: miter"/>
   </g>
   <g id="patch_34">
    <path d="M 284.654082 359.517187 
L 284.654082 26.877187 
L 284.740526 26.877187 
L 284.740526 359.517187 
z
" clip-path="url(#pf821fdbb1c)" style="fill: #add8e6; stroke: #add8e6; stroke-linejoin: miter"/>
   </g>
   <g id="patch_35">
    <path d="M 297.507204 359.517187 
L 297.507204 26.877187 
L 297.627073 26.877187 
L 297.627073 359.517187 
z
" clip-path="url(#pf821fdbb1c)" style="fill: #add8e6; stroke: #add8e6; stroke-linejoin: miter"/>
   </g>
   <g id="patch_36">
    <path d="M 297.959596 359.517187 
L 297.959596 26.877187 
L 298.006852 26.877187 
L 298.006852 359.517187 
z
" clip-path="url(#pf821fdbb1c)" style="fill: #add8e6; stroke: #add8e6; stroke-linejoin: miter"/>
   </g>
   <g id="patch_37">
    <path d="M 306.696238 359.517187 
L 306.696238 26.877187 
L 306.844346 26.877187 
L 306.844346 359.517187 
z
" clip-path="url(#pf821fdbb1c)" style="fill: #add8e6; stroke: #add8e6; stroke-linejoin: miter"/>
   </g>
   <g id="patch_38">
    <path d="M 310.402395 359.517187 
L 310.402395 26.877187 
L 310.509586 26.877187 
L 310.509586 359.517187 
z
" clip-path="url(#pf821fdbb1c)" style="fill: #add8e6; stroke: #add8e6; stroke-linejoin: miter"/>
   </g>
   <g id="patch_39">
    <path d="M 316.523808 359.517187 
L 316.523808 26.877187 
L 316.631575 26.877187 
L 316.631575 359.517187 
z
" clip-path="url(#pf821fdbb1c)" style="fill: #add8e6; stroke: #add8e6; stroke-linejoin: miter"/>
   </g>
   <g id="patch_40">
    <path d="M 337.791423 359.517187 
L 337.791423 26.877187 
L 335.870629 26.877187 
L 335.870629 359.517187 
z
" clip-path="url(#pf821fdbb1c)" style="fill: #add8e6; stroke: #add8e6; stroke-linejoin: miter"/>
   </g>
   <g id="patch_41">
    <path d="M 343.544582 359.517187 
L 343.544582 26.877187 
L 343.629298 26.877187 
L 343.629298 359.517187 
z
" clip-path="url(#pf821fdbb1c)" style="fill: #add8e6; stroke: #add8e6; stroke-linejoin: miter"/>
   </g>
   <g id="patch_42">
    <path d="M 343.788932 359.517187 
L 343.788932 26.877187 
L 343.952023 26.877187 
L 343.952023 359.517187 
z
" clip-path="url(#pf821fdbb1c)" style="fill: #add8e6; stroke: #add8e6; stroke-linejoin: miter"/>
   </g>
   <g id="patch_43">
    <path d="M 350.798416 359.517187 
L 350.798416 26.877187 
L 350.891199 26.877187 
L 350.891199 359.517187 
z
" clip-path="url(#pf821fdbb1c)" style="fill: #add8e6; stroke: #add8e6; stroke-linejoin: miter"/>
   </g>
   <g id="patch_44">
    <path d="M 357.178009 359.517187 
L 357.178009 26.877187 
L 357.2852 26.877187 
L 357.2852 359.517187 
z
" clip-path="url(#pf821fdbb1c)" style="fill: #add8e6; stroke: #add8e6; stroke-linejoin: miter"/>
   </g>
   <g id="patch_45">
    <path d="M 358.269513 359.517187 
L 358.269513 26.877187 
L 358.339244 26.877187 
L 358.339244 359.517187 
z
" clip-path="url(#pf821fdbb1c)" style="fill: #add8e6; stroke: #add8e6; stroke-linejoin: miter"/>
   </g>
   <g id="patch_46">
    <path d="M 364.902099 359.517187 
L 364.902099 26.877187 
L 364.997764 26.877187 
L 364.997764 359.517187 
z
" clip-path="url(#pf821fdbb1c)" style="fill: #add8e6; stroke: #add8e6; stroke-linejoin: miter"/>
   </g>
   <g id="patch_47">
    <path d="M 370.701363 359.517187 
L 370.701363 26.877187 
L 367.39112 26.877187 
L 367.39112 359.517187 
z
" clip-path="url(#pf821fdbb1c)" style="fill: #add8e6; stroke: #add8e6; stroke-linejoin: miter"/>
   </g>
   <g id="patch_48">
    <path d="M 380.368722 359.517187 
L 380.368722 26.877187 
L 380.380248 26.877187 
L 380.380248 359.517187 
z
" clip-path="url(#pf821fdbb1c)" style="fill: #add8e6; stroke: #add8e6; stroke-linejoin: miter"/>
   </g>
   <g id="patch_49">
    <path d="M 381.263709 359.517187 
L 381.263709 26.877187 
L 380.902948 26.877187 
L 380.902948 359.517187 
z
" clip-path="url(#pf821fdbb1c)" style="fill: #add8e6; stroke: #add8e6; stroke-linejoin: miter"/>
   </g>
   <g id="patch_50">
    <path d="M 383.609809 359.517187 
L 383.609809 26.877187 
L 383.616725 26.877187 
L 383.616725 359.517187 
z
" clip-path="url(#pf821fdbb1c)" style="fill: #add8e6; stroke: #add8e6; stroke-linejoin: miter"/>
   </g>
   <g id="patch_51">
    <path d="M 395.619234 359.517187 
L 395.619234 26.877187 
L 395.790394 26.877187 
L 395.790394 359.517187 
z
" clip-path="url(#pf821fdbb1c)" style="fill: #add8e6; stroke: #add8e6; stroke-linejoin: miter"/>
   </g>
   <g id="patch_52">
    <path d="M 396.037049 359.517187 
L 396.037049 26.877187 
L 396.166715 26.877187 
L 396.166715 359.517187 
z
" clip-path="url(#pf821fdbb1c)" style="fill: #add8e6; stroke: #add8e6; stroke-linejoin: miter"/>
   </g>
   <g id="patch_53">
    <path d="M 412.203871 359.517187 
L 412.203871 26.877187 
L 412.320282 26.877187 
L 412.320282 359.517187 
z
" clip-path="url(#pf821fdbb1c)" style="fill: #add8e6; stroke: #add8e6; stroke-linejoin: miter"/>
   </g>
   <g id="patch_54">
    <path d="M 413.792718 359.517187 
L 413.792718 26.877187 
L 413.539148 26.877187 
L 413.539148 359.517187 
z
" clip-path="url(#pf821fdbb1c)" style="fill: #add8e6; stroke: #add8e6; stroke-linejoin: miter"/>
   </g>
   <g id="patch_55">
    <path d="M 427.051552 359.517187 
L 427.051552 26.877187 
L 427.167388 26.877187 
L 427.167388 359.517187 
z
" clip-path="url(#pf821fdbb1c)" style="fill: #add8e6; stroke: #add8e6; stroke-linejoin: miter"/>
   </g>
   <g id="patch_56">
    <path d="M 427.332784 359.517187 
L 427.332784 26.877187 
L 427.460146 26.877187 
L 427.460146 359.517187 
z
" clip-path="url(#pf821fdbb1c)" style="fill: #add8e6; stroke: #add8e6; stroke-linejoin: miter"/>
   </g>
   <g id="patch_57">
    <path d="M 431.547235 359.517187 
L 431.547235 26.877187 
L 431.718971 26.877187 
L 431.718971 359.517187 
z
" clip-path="url(#pf821fdbb1c)" style="fill: #add8e6; stroke: #add8e6; stroke-linejoin: miter"/>
   </g>
   <g id="patch_58">
    <path d="M 433.699699 359.517187 
L 433.699699 26.877187 
L 433.74465 26.877187 
L 433.74465 359.517187 
z
" clip-path="url(#pf821fdbb1c)" style="fill: #add8e6; stroke: #add8e6; stroke-linejoin: miter"/>
   </g>
   <g id="patch_59">
    <path d="M 448.085767 359.517187 
L 448.085767 26.877187 
L 448.123803 26.877187 
L 448.123803 359.517187 
z
" clip-path="url(#pf821fdbb1c)" style="fill: #add8e6; stroke: #add8e6; stroke-linejoin: miter"/>
   </g>
   <g id="patch_60">
    <path d="M 474.127416 359.517187 
L 474.127416 26.877187 
L 474.231149 26.877187 
L 474.231149 359.517187 
z
" clip-path="url(#pf821fdbb1c)" style="fill: #add8e6; stroke: #add8e6; stroke-linejoin: miter"/>
   </g>
   <g id="patch_61">
    <path d="M 474.314712 359.517187 
L 474.314712 26.877187 
L 474.482414 26.877187 
L 474.482414 359.517187 
z
" clip-path="url(#pf821fdbb1c)" style="fill: #add8e6; stroke: #add8e6; stroke-linejoin: miter"/>
   </g>
   <g id="patch_62">
    <path d="M 474.606894 359.517187 
L 474.606894 26.877187 
L 474.706016 26.877187 
L 474.706016 359.517187 
z
" clip-path="url(#pf821fdbb1c)" style="fill: #add8e6; stroke: #add8e6; stroke-linejoin: miter"/>
   </g>
   <g id="patch_63">
    <path d="M 493.158427 359.517187 
L 493.158427 26.877187 
L 493.247753 26.877187 
L 493.247753 359.517187 
z
" clip-path="url(#pf821fdbb1c)" style="fill: #add8e6; stroke: #add8e6; stroke-linejoin: miter"/>
   </g>
   <g id="patch_64">
    <path d="M 508.565115 359.517187 
L 508.565115 26.877187 
L 508.662509 26.877187 
L 508.662509 359.517187 
z
" clip-path="url(#pf821fdbb1c)" style="fill: #add8e6; stroke: #add8e6; stroke-linejoin: miter"/>
   </g>
   <g id="patch_65">
    <path d="M 535.778372 359.517187 
L 535.778372 26.877187 
L 535.944346 26.877187 
L 535.944346 359.517187 
z
" clip-path="url(#pf821fdbb1c)" style="fill: #add8e6; stroke: #add8e6; stroke-linejoin: miter"/>
   </g>
   <g id="patch_66">
    <path d="M 536.003704 359.517187 
L 536.003704 26.877187 
L 536.161609 26.877187 
L 536.161609 359.517187 
z
" clip-path="url(#pf821fdbb1c)" style="fill: #add8e6; stroke: #add8e6; stroke-linejoin: miter"/>
   </g>
   <g id="patch_67">
    <path d="M 556.265107 359.517187 
L 556.265107 26.877187 
L 556.423012 26.877187 
L 556.423012 359.517187 
z
" clip-path="url(#pf821fdbb1c)" style="fill: #add8e6; stroke: #add8e6; stroke-linejoin: miter"/>
   </g>
   <g id="patch_68">
    <path d="M 556.515795 359.517187 
L 556.515795 26.877187 
L 556.631631 26.877187 
L 556.631631 359.517187 
z
" clip-path="url(#pf821fdbb1c)" style="fill: #add8e6; stroke: #add8e6; stroke-linejoin: miter"/>
   </g>
   <g id="patch_69">
    <path d="M 567.244692 359.517187 
L 567.244692 26.877187 
L 567.40202 26.877187 
L 567.40202 359.517187 
z
" clip-path="url(#pf821fdbb1c)" style="fill: #add8e6; stroke: #add8e6; stroke-linejoin: miter"/>
   </g>
   <g id="patch_70">
    <path d="M 584.896051 359.517187 
L 584.896051 26.877187 
L 585.030905 26.877187 
L 585.030905 359.517187 
z
" clip-path="url(#pf821fdbb1c)" style="fill: #add8e6; stroke: #add8e6; stroke-linejoin: miter"/>
   </g>
   <g id="patch_71">
    <path d="M 588.700179 359.517187 
L 588.700179 26.877187 
L 588.858084 26.877187 
L 588.858084 359.517187 
z
" clip-path="url(#pf821fdbb1c)" style="fill: #add8e6; stroke: #add8e6; stroke-linejoin: miter"/>
   </g>
   <g id="patch_72">
    <path d="M 601.719274 359.517187 
L 601.719274 26.877187 
L 601.833381 26.877187 
L 601.833381 359.517187 
z
" clip-path="url(#pf821fdbb1c)" style="fill: #add8e6; stroke: #add8e6; stroke-linejoin: miter"/>
   </g>
   <g id="patch_73">
    <path d="M 601.91752 359.517187 
L 601.91752 26.877187 
L 602.03105 26.877187 
L 602.03105 359.517187 
z
" clip-path="url(#pf821fdbb1c)" style="fill: #add8e6; stroke: #add8e6; stroke-linejoin: miter"/>
   </g>
   <g id="patch_74">
    <path d="M 606.656975 359.517187 
L 606.656975 26.877187 
L 606.730741 26.877187 
L 606.730741 359.517187 
z
" clip-path="url(#pf821fdbb1c)" style="fill: #add8e6; stroke: #add8e6; stroke-linejoin: miter"/>
   </g>
   <g id="patch_75">
    <path d="M 606.958378 359.517187 
L 606.958378 26.877187 
L 607.126656 26.877187 
L 607.126656 359.517187 
z
" clip-path="url(#pf821fdbb1c)" style="fill: #add8e6; stroke: #add8e6; stroke-linejoin: miter"/>
   </g>
   <g id="patch_76">
    <path d="M 618.477376 359.517187 
L 618.477376 26.877187 
L 617.197999 26.877187 
L 617.197999 359.517187 
z
" clip-path="url(#pf821fdbb1c)" style="fill: #add8e6; stroke: #add8e6; stroke-linejoin: miter"/>
   </g>
   <g id="patch_77">
    <path d="M 625.85396 359.517187 
L 625.85396 26.877187 
L 621.392855 26.877187 
L 621.392855 359.517187 
z
" clip-path="url(#pf821fdbb1c)" style="fill: #add8e6; stroke: #add8e6; stroke-linejoin: miter"/>
   </g>
   <g id="patch_78">
    <path d="M 631.07808 359.517187 
L 631.07808 26.877187 
L 630.082241 26.877187 
L 630.082241 359.517187 
z
" clip-path="url(#pf821fdbb1c)" style="fill: #add8e6; stroke: #add8e6; stroke-linejoin: miter"/>
   </g>
   <g id="patch_79">
    <path d="M 635.996764 359.517187 
L 635.996764 26.877187 
L 635.648105 26.877187 
L 635.648105 359.517187 
z
" clip-path="url(#pf821fdbb1c)" style="fill: #add8e6; stroke: #add8e6; stroke-linejoin: miter"/>
   </g>
   <g id="patch_80">
    <path d="M 656.494448 359.517187 
L 656.494448 26.877187 
L 656.541704 26.877187 
L 656.541704 359.517187 
z
" clip-path="url(#pf821fdbb1c)" style="fill: #add8e6; stroke: #add8e6; stroke-linejoin: miter"/>
   </g>
   <g id="patch_81">
    <path d="M 658.857836 359.517187 
L 658.857836 26.877187 
L 656.905923 26.877187 
L 656.905923 359.517187 
z
" clip-path="url(#pf821fdbb1c)" style="fill: #add8e6; stroke: #add8e6; stroke-linejoin: miter"/>
   </g>
   <g id="patch_82">
    <path d="M 663.054421 359.517187 
L 663.054421 26.877187 
L 663.178901 26.877187 
L 663.178901 359.517187 
z
" clip-path="url(#pf821fdbb1c)" style="fill: #add8e6; stroke: #add8e6; stroke-linejoin: miter"/>
   </g>
   <g id="patch_83">
    <path d="M 680.668322 359.517187 
L 680.668322 26.877187 
L 674.708848 26.877187 
L 674.708848 359.517187 
z
" clip-path="url(#pf821fdbb1c)" style="fill: #add8e6; stroke: #add8e6; stroke-linejoin: miter"/>
   </g>
   <g id="patch_84">
    <path d="M 682.63349 359.517187 
L 682.63349 26.877187 
L 678.903128 26.877187 
L 678.903128 359.517187 
z
" clip-path="url(#pf821fdbb1c)" style="fill: #add8e6; stroke: #add8e6; stroke-linejoin: miter"/>
   </g>
   <g id="patch_85">
    <path d="M 687.324537 359.517187 
L 687.324537 26.877187 
L 682.082551 26.877187 
L 682.082551 359.517187 
z
" clip-path="url(#pf821fdbb1c)" style="fill: #add8e6; stroke: #add8e6; stroke-linejoin: miter"/>
   </g>
   <g id="patch_86">
    <path d="M 696.370649 359.517187 
L 696.370649 26.877187 
L 696.465162 26.877187 
L 696.465162 359.517187 
z
" clip-path="url(#pf821fdbb1c)" style="fill: #add8e6; stroke: #add8e6; stroke-linejoin: miter"/>
   </g>
   <g id="patch_87">
    <path d="M 696.800566 359.517187 
L 696.800566 26.877187 
L 696.859924 26.877187 
L 696.859924 359.517187 
z
" clip-path="url(#pf821fdbb1c)" style="fill: #add8e6; stroke: #add8e6; stroke-linejoin: miter"/>
   </g>
   <g id="patch_88">
    <path d="M 707.674113 359.517187 
L 707.674113 26.877187 
L 707.764015 26.877187 
L 707.764015 359.517187 
z
" clip-path="url(#pf821fdbb1c)" style="fill: #add8e6; stroke: #add8e6; stroke-linejoin: miter"/>
   </g>
   <g id="patch_89">
    <path d="M 707.897715 359.517187 
L 707.897715 26.877187 
L 708.060807 26.877187 
L 708.060807 359.517187 
z
" clip-path="url(#pf821fdbb1c)" style="fill: #add8e6; stroke: #add8e6; stroke-linejoin: miter"/>
   </g>
   <g id="patch_90">
    <path d="M 708.124199 359.517187 
L 708.124199 26.877187 
L 708.186439 26.877187 
L 708.186439 359.517187 
z
" clip-path="url(#pf821fdbb1c)" style="fill: #add8e6; stroke: #add8e6; stroke-linejoin: miter"/>
   </g>
   <g id="patch_91">
    <path d="M 734.668954 359.517187 
L 734.668954 26.877187 
L 734.735804 26.877187 
L 734.735804 359.517187 
z
" clip-path="url(#pf821fdbb1c)" style="fill: #add8e6; stroke: #add8e6; stroke-linejoin: miter"/>
   </g>
   <g id="patch_92">
    <path d="M 737.434597 359.517187 
L 737.434597 26.877187 
L 734.882183 26.877187 
L 734.882183 359.517187 
z
" clip-path="url(#pf821fdbb1c)" style="fill: #add8e6; stroke: #add8e6; stroke-linejoin: miter"/>
   </g>
   <g id="patch_93">
    <path d="M 775.999149 359.517187 
L 775.999149 26.877187 
L 776.017015 26.877187 
L 776.017015 359.517187 
z
" clip-path="url(#pf821fdbb1c)" style="fill: #add8e6; stroke: #add8e6; stroke-linejoin: miter"/>
   </g>
   <g id="patch_94">
    <path d="M 780.422795 359.517187 
L 780.422795 26.877187 
L 780.239533 26.877187 
L 780.239533 359.517187 
z
" clip-path="url(#pf821fdbb1c)" style="fill: #add8e6; stroke: #add8e6; stroke-linejoin: miter"/>
   </g>
   <g id="patch_95">
    <path d="M 799.224441 359.517187 
L 799.224441 26.877187 
L 799.295901 26.877187 
L 799.295901 359.517187 
z
" clip-path="url(#pf821fdbb1c)" style="fill: #add8e6; stroke: #add8e6; stroke-linejoin: miter"/>
   </g>
   <g id="patch_96">
    <path d="M 815.06508 359.517187 
L 815.06508 26.877187 
L 815.159016 26.877187 
L 815.159016 359.517187 
z
" clip-path="url(#pf821fdbb1c)" style="fill: #add8e6; stroke: #add8e6; stroke-linejoin: miter"/>
   </g>
   <g id="patch_97">
    <path d="M 815.264478 359.517187 
L 815.264478 26.877187 
L 815.375127 26.877187 
L 815.375127 359.517187 
z
" clip-path="url(#pf821fdbb1c)" style="fill: #add8e6; stroke: #add8e6; stroke-linejoin: miter"/>
   </g>
   <g id="patch_98">
    <path d="M 825.323719 359.517187 
L 825.323719 26.877187 
L 825.483929 26.877187 
L 825.483929 359.517187 
z
" clip-path="url(#pf821fdbb1c)" style="fill: #add8e6; stroke: #add8e6; stroke-linejoin: miter"/>
   </g>
   <g id="patch_99">
    <path d="M 837.748077 359.517187 
L 837.748077 26.877187 
L 837.881201 26.877187 
L 837.881201 359.517187 
z
" clip-path="url(#pf821fdbb1c)" style="fill: #add8e6; stroke: #add8e6; stroke-linejoin: miter"/>
   </g>
   <g id="patch_100">
    <path d="M 845.269888 359.517187 
L 845.269888 26.877187 
L 845.394944 26.877187 
L 845.394944 359.517187 
z
" clip-path="url(#pf821fdbb1c)" style="fill: #add8e6; stroke: #add8e6; stroke-linejoin: miter"/>
   </g>
   <g id="patch_101">
    <path d="M 845.471591 359.517187 
L 845.471591 26.877187 
L 845.557459 26.877187 
L 845.557459 359.517187 
z
" clip-path="url(#pf821fdbb1c)" style="fill: #add8e6; stroke: #add8e6; stroke-linejoin: miter"/>
   </g>
   <g id="patch_102">
    <path d="M 845.646209 359.517187 
L 845.646209 26.877187 
L 845.722856 26.877187 
L 845.722856 359.517187 
z
" clip-path="url(#pf821fdbb1c)" style="fill: #add8e6; stroke: #add8e6; stroke-linejoin: miter"/>
   </g>
   <g id="patch_103">
    <path d="M 845.978155 359.517187 
L 845.978155 26.877187 
L 846.106669 26.877187 
L 846.106669 359.517187 
z
" clip-path="url(#pf821fdbb1c)" style="fill: #add8e6; stroke: #add8e6; stroke-linejoin: miter"/>
   </g>
   <g id="patch_104">
    <path d="M 855.782673 359.517187 
L 855.782673 26.877187 
L 855.880067 26.877187 
L 855.880067 359.517187 
z
" clip-path="url(#pf821fdbb1c)" style="fill: #add8e6; stroke: #add8e6; stroke-linejoin: miter"/>
   </g>
   <g id="patch_105">
    <path d="M 862.571436 359.517187 
L 862.571436 26.877187 
L 862.713205 26.877187 
L 862.713205 359.517187 
z
" clip-path="url(#pf821fdbb1c)" style="fill: #add8e6; stroke: #add8e6; stroke-linejoin: miter"/>
   </g>
   <g id="patch_106">
    <path d="M 866.621642 359.517187 
L 866.621642 26.877187 
L 866.654491 26.877187 
L 866.654491 359.517187 
z
" clip-path="url(#pf821fdbb1c)" style="fill: #add8e6; stroke: #add8e6; stroke-linejoin: miter"/>
   </g>
   <g id="patch_107">
    <path d="M 866.821616 359.517187 
L 866.821616 26.877187 
L 866.961656 26.877187 
L 866.961656 359.517187 
z
" clip-path="url(#pf821fdbb1c)" style="fill: #add8e6; stroke: #add8e6; stroke-linejoin: miter"/>
   </g>
   <g id="patch_108">
    <path d="M 867.138579 359.517187 
L 867.138579 26.877187 
L 867.16336 26.877187 
L 867.16336 359.517187 
z
" clip-path="url(#pf821fdbb1c)" style="fill: #add8e6; stroke: #add8e6; stroke-linejoin: miter"/>
   </g>
   <g id="patch_109">
    <path d="M 874.269085 359.517187 
L 874.269085 26.877187 
L 874.252949 26.877187 
L 874.252949 359.517187 
z
" clip-path="url(#pf821fdbb1c)" style="fill: #add8e6; stroke: #add8e6; stroke-linejoin: miter"/>
   </g>
   <g id="patch_110">
    <path d="M 874.465026 359.517187 
L 874.465026 26.877187 
L 874.375124 26.877187 
L 874.375124 359.517187 
z
" clip-path="url(#pf821fdbb1c)" style="fill: #add8e6; stroke: #add8e6; stroke-linejoin: miter"/>
   </g>
   <g id="patch_111">
    <path d="M 883.858645 359.517187 
L 883.858645 26.877187 
L 883.859221 26.877187 
L 883.859221 359.517187 
z
" clip-path="url(#pf821fdbb1c)" style="fill: #add8e6; stroke: #add8e6; stroke-linejoin: miter"/>
   </g>
   <g id="patch_112">
    <path d="M 884.096655 359.517187 
L 884.096655 26.877187 
L 884.113368 26.877187 
L 884.113368 359.517187 
z
" clip-path="url(#pf821fdbb1c)" style="fill: #add8e6; stroke: #add8e6; stroke-linejoin: miter"/>
   </g>
   <g id="patch_113">
    <path d="M 890.746531 359.517187 
L 890.746531 26.877187 
L 890.566726 26.877187 
L 890.566726 359.517187 
z
" clip-path="url(#pf821fdbb1c)" style="fill: #add8e6; stroke: #add8e6; stroke-linejoin: miter"/>
   </g>
   <g id="patch_114">
    <path d="M 903.086749 359.517187 
L 903.086749 26.877187 
L 903.245231 26.877187 
L 903.245231 359.517187 
z
" clip-path="url(#pf821fdbb1c)" style="fill: #add8e6; stroke: #add8e6; stroke-linejoin: miter"/>
   </g>
   <g id="patch_115">
    <path d="M 910.458724 359.517187 
L 910.458724 26.877187 
L 910.544015 26.877187 
L 910.544015 359.517187 
z
" clip-path="url(#pf821fdbb1c)" style="fill: #add8e6; stroke: #add8e6; stroke-linejoin: miter"/>
   </g>
   <g id="patch_116">
    <path d="M 913.564957 359.517187 
L 913.564957 26.877187 
L 911.798611 26.877187 
L 911.798611 359.517187 
z
" clip-path="url(#pf821fdbb1c)" style="fill: #add8e6; stroke: #add8e6; stroke-linejoin: miter"/>
   </g>
   <g id="patch_117">
    <path d="M 915.645961 359.517187 
L 915.645961 26.877187 
L 915.633859 26.877187 
L 915.633859 359.517187 
z
" clip-path="url(#pf821fdbb1c)" style="fill: #add8e6; stroke: #add8e6; stroke-linejoin: miter"/>
   </g>
   <g id="patch_118">
    <path d="M 915.848817 359.517187 
L 915.848817 26.877187 
L 915.813663 26.877187 
L 915.813663 359.517187 
z
" clip-path="url(#pf821fdbb1c)" style="fill: #add8e6; stroke: #add8e6; stroke-linejoin: miter"/>
   </g>
   <g id="patch_119">
    <path d="M 923.405782 359.517187 
L 923.405782 26.877187 
L 923.5585 26.877187 
L 923.5585 359.517187 
z
" clip-path="url(#pf821fdbb1c)" style="fill: #add8e6; stroke: #add8e6; stroke-linejoin: miter"/>
   </g>
   <g id="patch_120">
    <path d="M 923.631113 359.517187 
L 923.631113 26.877187 
L 923.794781 26.877187 
L 923.794781 359.517187 
z
" clip-path="url(#pf821fdbb1c)" style="fill: #add8e6; stroke: #add8e6; stroke-linejoin: miter"/>
   </g>
   <g id="patch_121">
    <path d="M 939.804851 359.517187 
L 939.804851 26.877187 
L 939.936823 26.877187 
L 939.936823 359.517187 
z
" clip-path="url(#pf821fdbb1c)" style="fill: #add8e6; stroke: #add8e6; stroke-linejoin: miter"/>
   </g>
   <g id="patch_122">
    <path d="M 962.791556 359.517187 
L 962.791556 26.877187 
L 962.897594 26.877187 
L 962.897594 359.517187 
z
" clip-path="url(#pf821fdbb1c)" style="fill: #add8e6; stroke: #add8e6; stroke-linejoin: miter"/>
   </g>
   <g id="patch_123">
    <path d="M 972.914189 359.517187 
L 972.914189 26.877187 
L 973.06806 26.877187 
L 973.06806 359.517187 
z
" clip-path="url(#pf821fdbb1c)" style="fill: #add8e6; stroke: #add8e6; stroke-linejoin: miter"/>
   </g>
   <g id="patch_124">
    <path d="M 973.116469 359.517187 
L 973.116469 26.877187 
L 973.282442 26.877187 
L 973.282442 359.517187 
z
" clip-path="url(#pf821fdbb1c)" style="fill: #add8e6; stroke: #add8e6; stroke-linejoin: miter"/>
   </g>
   <g id="patch_125">
    <path d="M 988.644756 359.517187 
L 988.644756 26.877187 
L 988.523157 26.877187 
L 988.523157 359.517187 
z
" clip-path="url(#pf821fdbb1c)" style="fill: #add8e6; stroke: #add8e6; stroke-linejoin: miter"/>
   </g>
   <g id="patch_126">
    <path d="M 1003.507421 359.517187 
L 1003.507421 26.877187 
L 1003.614612 26.877187 
L 1003.614612 359.517187 
z
" clip-path="url(#pf821fdbb1c)" style="fill: #add8e6; stroke: #add8e6; stroke-linejoin: miter"/>
   </g>
   <g id="patch_127">
    <path d="M 1015.633257 359.517187 
L 1015.633257 26.877187 
L 1015.6857 26.877187 
L 1015.6857 359.517187 
z
" clip-path="url(#pf821fdbb1c)" style="fill: #add8e6; stroke: #add8e6; stroke-linejoin: miter"/>
   </g>
   <g id="patch_128">
    <path d="M 1035.441116 359.517187 
L 1035.441116 26.877187 
L 1035.577698 26.877187 
L 1035.577698 359.517187 
z
" clip-path="url(#pf821fdbb1c)" style="fill: #add8e6; stroke: #add8e6; stroke-linejoin: miter"/>
   </g>
   <g id="patch_129">
    <path d="M 1045.930849 359.517187 
L 1045.930849 26.877187 
L 1046.096246 26.877187 
L 1046.096246 359.517187 
z
" clip-path="url(#pf821fdbb1c)" style="fill: #add8e6; stroke: #add8e6; stroke-linejoin: miter"/>
   </g>
   <g id="patch_130">
    <path d="M 1058.484874 359.517187 
L 1058.484874 26.877187 
L 1058.498705 26.877187 
L 1058.498705 359.517187 
z
" clip-path="url(#pf821fdbb1c)" style="fill: #add8e6; stroke: #add8e6; stroke-linejoin: miter"/>
   </g>
   <g id="patch_131">
    <path d="M 1065.660331 359.517187 
L 1065.660331 26.877187 
L 1062.529317 26.877187 
L 1062.529317 359.517187 
z
" clip-path="url(#pf821fdbb1c)" style="fill: #add8e6; stroke: #add8e6; stroke-linejoin: miter"/>
   </g>
   <g id="patch_132">
    <path d="M 1075.558209 359.517187 
L 1075.558209 26.877187 
L 1075.407219 26.877187 
L 1075.407219 359.517187 
z
" clip-path="url(#pf821fdbb1c)" style="fill: #add8e6; stroke: #add8e6; stroke-linejoin: miter"/>
   </g>
   <g id="patch_133">
    <path d="M 1078.819466 359.517187 
L 1078.819466 26.877187 
L 1078.941064 26.877187 
L 1078.941064 359.517187 
z
" clip-path="url(#pf821fdbb1c)" style="fill: #add8e6; stroke: #add8e6; stroke-linejoin: miter"/>
   </g>
   <g id="patch_134">
    <path d="M 1084.560523 359.517187 
L 1084.560523 26.877187 
L 1084.680969 26.877187 
L 1084.680969 359.517187 
z
" clip-path="url(#pf821fdbb1c)" style="fill: #add8e6; stroke: #add8e6; stroke-linejoin: miter"/>
   </g>
   <g id="patch_135">
    <path d="M 1084.823314 359.517187 
L 1084.823314 26.877187 
L 1084.835993 26.877187 
L 1084.835993 359.517187 
z
" clip-path="url(#pf821fdbb1c)" style="fill: #add8e6; stroke: #add8e6; stroke-linejoin: miter"/>
   </g>
   <g id="patch_136">
    <path d="M 1089.724709 359.517187 
L 1089.724709 26.877187 
L 1089.860138 26.877187 
L 1089.860138 359.517187 
z
" clip-path="url(#pf821fdbb1c)" style="fill: #add8e6; stroke: #add8e6; stroke-linejoin: miter"/>
   </g>
   <g id="patch_137">
    <path d="M 1094.939032 359.517187 
L 1094.939032 26.877187 
L 1094.858351 26.877187 
L 1094.858351 359.517187 
z
" clip-path="url(#pf821fdbb1c)" style="fill: #add8e6; stroke: #add8e6; stroke-linejoin: miter"/>
   </g>
   <g id="patch_138">
    <path d="M 1096.765889 359.517187 
L 1096.765889 26.877187 
L 1095.899717 26.877187 
L 1095.899717 359.517187 
z
" clip-path="url(#pf821fdbb1c)" style="fill: #add8e6; stroke: #add8e6; stroke-linejoin: miter"/>
   </g>
   <g id="patch_139">
    <path d="M 182.948848 359.517187 
L 182.948848 26.877187 
L 307.42871 26.877187 
L 307.42871 359.517187 
z
" clip-path="url(#pf821fdbb1c)" style="fill: #808080; opacity: 0.4; stroke: #808080; stroke-linejoin: miter"/>
   </g>
   <g id="patch_140">
    <path d="M 310.886484 26.877187 
L 310.886484 26.877187 
L 310.886484 359.517187 
" clip-path="url(#pf821fdbb1c)" style="fill: #808080; opacity: 0.4; stroke: #808080; stroke-linejoin: miter"/>
   </g>
   <g id="patch_141">
    <path d="M 314.344258 26.877187 
L 314.344258 26.877187 
L 314.344258 359.517187 
" clip-path="url(#pf821fdbb1c)" style="fill: #808080; opacity: 0.4; stroke: #808080; stroke-linejoin: miter"/>
   </g>
   <g id="patch_142">
    <path d="M 431.908572 359.517187 
L 431.908572 26.877187 
L 556.388434 26.877187 
L 556.388434 359.517187 
z
" clip-path="url(#pf821fdbb1c)" style="fill: #808080; opacity: 0.4; stroke: #808080; stroke-linejoin: miter"/>
   </g>
   <g id="patch_143">
    <path d="M 559.846208 26.877187 
L 559.846208 26.877187 
L 559.846208 359.517187 
" clip-path="url(#pf821fdbb1c)" style="fill: #808080; opacity: 0.4; stroke: #808080; stroke-linejoin: miter"/>
   </g>
   <g id="patch_144">
    <path d="M 563.303982 26.877187 
L 563.303982 26.877187 
L 563.303982 359.517187 
" clip-path="url(#pf821fdbb1c)" style="fill: #808080; opacity: 0.4; stroke: #808080; stroke-linejoin: miter"/>
   </g>
   <g id="patch_145">
    <path d="M 680.868296 359.517187 
L 680.868296 26.877187 
L 805.348158 26.877187 
L 805.348158 359.517187 
z
" clip-path="url(#pf821fdbb1c)" style="fill: #808080; opacity: 0.4; stroke: #808080; stroke-linejoin: miter"/>
   </g>
   <g id="patch_146">
    <path d="M 808.805932 26.877187 
L 808.805932 26.877187 
L 808.805932 359.517187 
" clip-path="url(#pf821fdbb1c)" style="fill: #808080; opacity: 0.4; stroke: #808080; stroke-linejoin: miter"/>
   </g>
   <g id="patch_147">
    <path d="M 812.263706 26.877187 
L 812.263706 26.877187 
L 812.263706 359.517187 
" clip-path="url(#pf821fdbb1c)" style="fill: #808080; opacity: 0.4; stroke: #808080; stroke-linejoin: miter"/>
   </g>
   <g id="patch_148">
    <path d="M 929.828021 359.517187 
L 929.828021 26.877187 
L 1054.307883 26.877187 
L 1054.307883 359.517187 
z
" clip-path="url(#pf821fdbb1c)" style="fill: #808080; opacity: 0.4; stroke: #808080; stroke-linejoin: miter"/>
   </g>
   <g id="patch_149">
    <path d="M 1057.765657 26.877187 
L 1057.765657 26.877187 
L 1057.765657 359.517187 
" clip-path="url(#pf821fdbb1c)" style="fill: #808080; opacity: 0.4; stroke: #808080; stroke-linejoin: miter"/>
   </g>
   <g id="patch_150">
    <path d="M 1061.223431 26.877187 
L 1061.223431 26.877187 
L 1061.223431 359.517187 
" clip-path="url(#pf821fdbb1c)" style="fill: #808080; opacity: 0.4; stroke: #808080; stroke-linejoin: miter"/>
   </g>
   <g id="matplotlib.axis_1">
    <g id="xtick_1">
     <g id="line2d_1">
      <defs>
       <path id="mde569aa330" d="M 0 0 
L 0 3.5 
" style="stroke: #000000; stroke-width: 0.8"/>
      </defs>
      <g>
       <use xlink:href="#mde569aa330" x="108.891974" y="359.517187" style="stroke: #000000; stroke-width: 0.8"/>
      </g>
     </g>
     <g id="text_1">
      <!-- 09-07 12 -->
      <g transform="translate(86.411505 374.115625) scale(0.1 -0.1)">
       <defs>
        <path id="DejaVuSans-30" d="M 2034 4250 
Q 1547 4250 1301 3770 
Q 1056 3291 1056 2328 
Q 1056 1369 1301 889 
Q 1547 409 2034 409 
Q 2525 409 2770 889 
Q 3016 1369 3016 2328 
Q 3016 3291 2770 3770 
Q 2525 4250 2034 4250 
z
M 2034 4750 
Q 2819 4750 3233 4129 
Q 3647 3509 3647 2328 
Q 3647 1150 3233 529 
Q 2819 -91 2034 -91 
Q 1250 -91 836 529 
Q 422 1150 422 2328 
Q 422 3509 836 4129 
Q 1250 4750 2034 4750 
z
" transform="scale(0.015625)"/>
        <path id="DejaVuSans-39" d="M 703 97 
L 703 672 
Q 941 559 1184 500 
Q 1428 441 1663 441 
Q 2288 441 2617 861 
Q 2947 1281 2994 2138 
Q 2813 1869 2534 1725 
Q 2256 1581 1919 1581 
Q 1219 1581 811 2004 
Q 403 2428 403 3163 
Q 403 3881 828 4315 
Q 1253 4750 1959 4750 
Q 2769 4750 3195 4129 
Q 3622 3509 3622 2328 
Q 3622 1225 3098 567 
Q 2575 -91 1691 -91 
Q 1453 -91 1209 -44 
Q 966 3 703 97 
z
M 1959 2075 
Q 2384 2075 2632 2365 
Q 2881 2656 2881 3163 
Q 2881 3666 2632 3958 
Q 2384 4250 1959 4250 
Q 1534 4250 1286 3958 
Q 1038 3666 1038 3163 
Q 1038 2656 1286 2365 
Q 1534 2075 1959 2075 
z
" transform="scale(0.015625)"/>
        <path id="DejaVuSans-2d" d="M 313 2009 
L 1997 2009 
L 1997 1497 
L 313 1497 
L 313 2009 
z
" transform="scale(0.015625)"/>
        <path id="DejaVuSans-37" d="M 525 4666 
L 3525 4666 
L 3525 4397 
L 1831 0 
L 1172 0 
L 2766 4134 
L 525 4134 
L 525 4666 
z
" transform="scale(0.015625)"/>
        <path id="DejaVuSans-20" transform="scale(0.015625)"/>
        <path id="DejaVuSans-31" d="M 794 531 
L 1825 531 
L 1825 4091 
L 703 3866 
L 703 4441 
L 1819 4666 
L 2450 4666 
L 2450 531 
L 3481 531 
L 3481 0 
L 794 0 
L 794 531 
z
" transform="scale(0.015625)"/>
        <path id="DejaVuSans-32" d="M 1228 531 
L 3431 531 
L 3431 0 
L 469 0 
L 469 531 
Q 828 903 1448 1529 
Q 2069 2156 2228 2338 
Q 2531 2678 2651 2914 
Q 2772 3150 2772 3378 
Q 2772 3750 2511 3984 
Q 2250 4219 1831 4219 
Q 1534 4219 1204 4116 
Q 875 4013 500 3803 
L 500 4441 
Q 881 4594 1212 4672 
Q 1544 4750 1819 4750 
Q 2544 4750 2975 4387 
Q 3406 4025 3406 3419 
Q 3406 3131 3298 2873 
Q 3191 2616 2906 2266 
Q 2828 2175 2409 1742 
Q 1991 1309 1228 531 
z
" transform="scale(0.015625)"/>
       </defs>
       <use xlink:href="#DejaVuSans-30"/>
       <use xlink:href="#DejaVuSans-39" x="63.623047"/>
       <use xlink:href="#DejaVuSans-2d" x="127.246094"/>
       <use xlink:href="#DejaVuSans-30" x="163.330078"/>
       <use xlink:href="#DejaVuSans-37" x="226.953125"/>
       <use xlink:href="#DejaVuSans-20" x="290.576172"/>
       <use xlink:href="#DejaVuSans-31" x="322.363281"/>
       <use xlink:href="#DejaVuSans-32" x="385.986328"/>
      </g>
     </g>
    </g>
    <g id="xtick_2">
     <g id="line2d_2">
      <g>
       <use xlink:href="#mde569aa330" x="233.371836" y="359.517187" style="stroke: #000000; stroke-width: 0.8"/>
      </g>
     </g>
     <g id="text_2">
      <!-- 09-08 00 -->
      <g transform="translate(210.891367 374.115625) scale(0.1 -0.1)">
       <defs>
        <path id="DejaVuSans-38" d="M 2034 2216 
Q 1584 2216 1326 1975 
Q 1069 1734 1069 1313 
Q 1069 891 1326 650 
Q 1584 409 2034 409 
Q 2484 409 2743 651 
Q 3003 894 3003 1313 
Q 3003 1734 2745 1975 
Q 2488 2216 2034 2216 
z
M 1403 2484 
Q 997 2584 770 2862 
Q 544 3141 544 3541 
Q 544 4100 942 4425 
Q 1341 4750 2034 4750 
Q 2731 4750 3128 4425 
Q 3525 4100 3525 3541 
Q 3525 3141 3298 2862 
Q 3072 2584 2669 2484 
Q 3125 2378 3379 2068 
Q 3634 1759 3634 1313 
Q 3634 634 3220 271 
Q 2806 -91 2034 -91 
Q 1263 -91 848 271 
Q 434 634 434 1313 
Q 434 1759 690 2068 
Q 947 2378 1403 2484 
z
M 1172 3481 
Q 1172 3119 1398 2916 
Q 1625 2713 2034 2713 
Q 2441 2713 2670 2916 
Q 2900 3119 2900 3481 
Q 2900 3844 2670 4047 
Q 2441 4250 2034 4250 
Q 1625 4250 1398 4047 
Q 1172 3844 1172 3481 
z
" transform="scale(0.015625)"/>
       </defs>
       <use xlink:href="#DejaVuSans-30"/>
       <use xlink:href="#DejaVuSans-39" x="63.623047"/>
       <use xlink:href="#DejaVuSans-2d" x="127.246094"/>
       <use xlink:href="#DejaVuSans-30" x="163.330078"/>
       <use xlink:href="#DejaVuSans-38" x="226.953125"/>
       <use xlink:href="#DejaVuSans-20" x="290.576172"/>
       <use xlink:href="#DejaVuSans-30" x="322.363281"/>
       <use xlink:href="#DejaVuSans-30" x="385.986328"/>
      </g>
     </g>
    </g>
    <g id="xtick_3">
     <g id="line2d_3">
      <g>
       <use xlink:href="#mde569aa330" x="357.851698" y="359.517187" style="stroke: #000000; stroke-width: 0.8"/>
      </g>
     </g>
     <g id="text_3">
      <!-- 09-08 12 -->
      <g transform="translate(335.37123 374.115625) scale(0.1 -0.1)">
       <use xlink:href="#DejaVuSans-30"/>
       <use xlink:href="#DejaVuSans-39" x="63.623047"/>
       <use xlink:href="#DejaVuSans-2d" x="127.246094"/>
       <use xlink:href="#DejaVuSans-30" x="163.330078"/>
       <use xlink:href="#DejaVuSans-38" x="226.953125"/>
       <use xlink:href="#DejaVuSans-20" x="290.576172"/>
       <use xlink:href="#DejaVuSans-31" x="322.363281"/>
       <use xlink:href="#DejaVuSans-32" x="385.986328"/>
      </g>
     </g>
    </g>
    <g id="xtick_4">
     <g id="line2d_4">
      <g>
       <use xlink:href="#mde569aa330" x="482.331561" y="359.517187" style="stroke: #000000; stroke-width: 0.8"/>
      </g>
     </g>
     <g id="text_4">
      <!-- 09-09 00 -->
      <g transform="translate(459.851092 374.115625) scale(0.1 -0.1)">
       <use xlink:href="#DejaVuSans-30"/>
       <use xlink:href="#DejaVuSans-39" x="63.623047"/>
       <use xlink:href="#DejaVuSans-2d" x="127.246094"/>
       <use xlink:href="#DejaVuSans-30" x="163.330078"/>
       <use xlink:href="#DejaVuSans-39" x="226.953125"/>
       <use xlink:href="#DejaVuSans-20" x="290.576172"/>
       <use xlink:href="#DejaVuSans-30" x="322.363281"/>
       <use xlink:href="#DejaVuSans-30" x="385.986328"/>
      </g>
     </g>
    </g>
    <g id="xtick_5">
     <g id="line2d_5">
      <g>
       <use xlink:href="#mde569aa330" x="606.811423" y="359.517187" style="stroke: #000000; stroke-width: 0.8"/>
      </g>
     </g>
     <g id="text_5">
      <!-- 09-09 12 -->
      <g transform="translate(584.330954 374.115625) scale(0.1 -0.1)">
       <use xlink:href="#DejaVuSans-30"/>
       <use xlink:href="#DejaVuSans-39" x="63.623047"/>
       <use xlink:href="#DejaVuSans-2d" x="127.246094"/>
       <use xlink:href="#DejaVuSans-30" x="163.330078"/>
       <use xlink:href="#DejaVuSans-39" x="226.953125"/>
       <use xlink:href="#DejaVuSans-20" x="290.576172"/>
       <use xlink:href="#DejaVuSans-31" x="322.363281"/>
       <use xlink:href="#DejaVuSans-32" x="385.986328"/>
      </g>
     </g>
    </g>
    <g id="xtick_6">
     <g id="line2d_6">
      <g>
       <use xlink:href="#mde569aa330" x="731.291285" y="359.517187" style="stroke: #000000; stroke-width: 0.8"/>
      </g>
     </g>
     <g id="text_6">
      <!-- 09-10 00 -->
      <g transform="translate(708.810816 374.115625) scale(0.1 -0.1)">
       <use xlink:href="#DejaVuSans-30"/>
       <use xlink:href="#DejaVuSans-39" x="63.623047"/>
       <use xlink:href="#DejaVuSans-2d" x="127.246094"/>
       <use xlink:href="#DejaVuSans-31" x="163.330078"/>
       <use xlink:href="#DejaVuSans-30" x="226.953125"/>
       <use xlink:href="#DejaVuSans-20" x="290.576172"/>
       <use xlink:href="#DejaVuSans-30" x="322.363281"/>
       <use xlink:href="#DejaVuSans-30" x="385.986328"/>
      </g>
     </g>
    </g>
    <g id="xtick_7">
     <g id="line2d_7">
      <g>
       <use xlink:href="#mde569aa330" x="855.771147" y="359.517187" style="stroke: #000000; stroke-width: 0.8"/>
      </g>
     </g>
     <g id="text_7">
      <!-- 09-10 12 -->
      <g transform="translate(833.290678 374.115625) scale(0.1 -0.1)">
       <use xlink:href="#DejaVuSans-30"/>
       <use xlink:href="#DejaVuSans-39" x="63.623047"/>
       <use xlink:href="#DejaVuSans-2d" x="127.246094"/>
       <use xlink:href="#DejaVuSans-31" x="163.330078"/>
       <use xlink:href="#DejaVuSans-30" x="226.953125"/>
       <use xlink:href="#DejaVuSans-20" x="290.576172"/>
       <use xlink:href="#DejaVuSans-31" x="322.363281"/>
       <use xlink:href="#DejaVuSans-32" x="385.986328"/>
      </g>
     </g>
    </g>
    <g id="xtick_8">
     <g id="line2d_8">
      <g>
       <use xlink:href="#mde569aa330" x="980.251009" y="359.517187" style="stroke: #000000; stroke-width: 0.8"/>
      </g>
     </g>
     <g id="text_8">
      <!-- 09-11 00 -->
      <g transform="translate(957.77054 374.115625) scale(0.1 -0.1)">
       <use xlink:href="#DejaVuSans-30"/>
       <use xlink:href="#DejaVuSans-39" x="63.623047"/>
       <use xlink:href="#DejaVuSans-2d" x="127.246094"/>
       <use xlink:href="#DejaVuSans-31" x="163.330078"/>
       <use xlink:href="#DejaVuSans-31" x="226.953125"/>
       <use xlink:href="#DejaVuSans-20" x="290.576172"/>
       <use xlink:href="#DejaVuSans-30" x="322.363281"/>
       <use xlink:href="#DejaVuSans-30" x="385.986328"/>
      </g>
     </g>
    </g>
    <g id="xtick_9">
     <g id="line2d_9">
      <g>
       <use xlink:href="#mde569aa330" x="1104.730871" y="359.517187" style="stroke: #000000; stroke-width: 0.8"/>
      </g>
     </g>
     <g id="text_9">
      <!-- 09-11 12 -->
      <g transform="translate(1082.250403 374.115625) scale(0.1 -0.1)">
       <use xlink:href="#DejaVuSans-30"/>
       <use xlink:href="#DejaVuSans-39" x="63.623047"/>
       <use xlink:href="#DejaVuSans-2d" x="127.246094"/>
       <use xlink:href="#DejaVuSans-31" x="163.330078"/>
       <use xlink:href="#DejaVuSans-31" x="226.953125"/>
       <use xlink:href="#DejaVuSans-20" x="290.576172"/>
       <use xlink:href="#DejaVuSans-31" x="322.363281"/>
       <use xlink:href="#DejaVuSans-32" x="385.986328"/>
      </g>
     </g>
    </g>
    <g id="text_10">
     <!-- Time -->
     <g transform="translate(592.554688 389.313437) scale(0.12 -0.12)">
      <defs>
       <path id="DejaVuSans-54" d="M -19 4666 
L 3928 4666 
L 3928 4134 
L 2272 4134 
L 2272 0 
L 1638 0 
L 1638 4134 
L -19 4134 
L -19 4666 
z
" transform="scale(0.015625)"/>
       <path id="DejaVuSans-69" d="M 603 3500 
L 1178 3500 
L 1178 0 
L 603 0 
L 603 3500 
z
M 603 4863 
L 1178 4863 
L 1178 4134 
L 603 4134 
L 603 4863 
z
" transform="scale(0.015625)"/>
       <path id="DejaVuSans-6d" d="M 3328 2828 
Q 3544 3216 3844 3400 
Q 4144 3584 4550 3584 
Q 5097 3584 5394 3201 
Q 5691 2819 5691 2113 
L 5691 0 
L 5113 0 
L 5113 2094 
Q 5113 2597 4934 2840 
Q 4756 3084 4391 3084 
Q 3944 3084 3684 2787 
Q 3425 2491 3425 1978 
L 3425 0 
L 2847 0 
L 2847 2094 
Q 2847 2600 2669 2842 
Q 2491 3084 2119 3084 
Q 1678 3084 1418 2786 
Q 1159 2488 1159 1978 
L 1159 0 
L 581 0 
L 581 3500 
L 1159 3500 
L 1159 2956 
Q 1356 3278 1631 3431 
Q 1906 3584 2284 3584 
Q 2666 3584 2933 3390 
Q 3200 3197 3328 2828 
z
" transform="scale(0.015625)"/>
       <path id="DejaVuSans-65" d="M 3597 1894 
L 3597 1613 
L 953 1613 
Q 991 1019 1311 708 
Q 1631 397 2203 397 
Q 2534 397 2845 478 
Q 3156 559 3463 722 
L 3463 178 
Q 3153 47 2828 -22 
Q 2503 -91 2169 -91 
Q 1331 -91 842 396 
Q 353 884 353 1716 
Q 353 2575 817 3079 
Q 1281 3584 2069 3584 
Q 2775 3584 3186 3129 
Q 3597 2675 3597 1894 
z
M 3022 2063 
Q 3016 2534 2758 2815 
Q 2500 3097 2075 3097 
Q 1594 3097 1305 2825 
Q 1016 2553 972 2059 
L 3022 2063 
z
" transform="scale(0.015625)"/>
      </defs>
      <use xlink:href="#DejaVuSans-54"/>
      <use xlink:href="#DejaVuSans-69" x="57.958984"/>
      <use xlink:href="#DejaVuSans-6d" x="85.742188"/>
      <use xlink:href="#DejaVuSans-65" x="183.154297"/>
     </g>
    </g>
   </g>
   <g id="matplotlib.axis_2">
    <g id="ytick_1">
     <g id="line2d_10">
      <defs>
       <path id="mf0789c086a" d="M 0 0 
L -3.5 0 
" style="stroke: #000000; stroke-width: 0.8"/>
      </defs>
      <g>
       <use xlink:href="#mf0789c086a" x="49.235" y="344.397187" style="stroke: #000000; stroke-width: 0.8"/>
      </g>
     </g>
     <g id="text_11">
      <!-- 0 -->
      <g transform="translate(35.8725 348.196406) scale(0.1 -0.1)">
       <use xlink:href="#DejaVuSans-30"/>
      </g>
     </g>
    </g>
    <g id="ytick_2">
     <g id="line2d_11">
      <g>
       <use xlink:href="#mf0789c086a" x="49.235" y="303.310231" style="stroke: #000000; stroke-width: 0.8"/>
      </g>
     </g>
     <g id="text_12">
      <!-- 100 -->
      <g transform="translate(23.1475 307.10945) scale(0.1 -0.1)">
       <use xlink:href="#DejaVuSans-31"/>
       <use xlink:href="#DejaVuSans-30" x="63.623047"/>
       <use xlink:href="#DejaVuSans-30" x="127.246094"/>
      </g>
     </g>
    </g>
    <g id="ytick_3">
     <g id="line2d_12">
      <g>
       <use xlink:href="#mf0789c086a" x="49.235" y="262.223274" style="stroke: #000000; stroke-width: 0.8"/>
      </g>
     </g>
     <g id="text_13">
      <!-- 200 -->
      <g transform="translate(23.1475 266.022493) scale(0.1 -0.1)">
       <use xlink:href="#DejaVuSans-32"/>
       <use xlink:href="#DejaVuSans-30" x="63.623047"/>
       <use xlink:href="#DejaVuSans-30" x="127.246094"/>
      </g>
     </g>
    </g>
    <g id="ytick_4">
     <g id="line2d_13">
      <g>
       <use xlink:href="#mf0789c086a" x="49.235" y="221.136318" style="stroke: #000000; stroke-width: 0.8"/>
      </g>
     </g>
     <g id="text_14">
      <!-- 300 -->
      <g transform="translate(23.1475 224.935537) scale(0.1 -0.1)">
       <defs>
        <path id="DejaVuSans-33" d="M 2597 2516 
Q 3050 2419 3304 2112 
Q 3559 1806 3559 1356 
Q 3559 666 3084 287 
Q 2609 -91 1734 -91 
Q 1441 -91 1130 -33 
Q 819 25 488 141 
L 488 750 
Q 750 597 1062 519 
Q 1375 441 1716 441 
Q 2309 441 2620 675 
Q 2931 909 2931 1356 
Q 2931 1769 2642 2001 
Q 2353 2234 1838 2234 
L 1294 2234 
L 1294 2753 
L 1863 2753 
Q 2328 2753 2575 2939 
Q 2822 3125 2822 3475 
Q 2822 3834 2567 4026 
Q 2313 4219 1838 4219 
Q 1578 4219 1281 4162 
Q 984 4106 628 3988 
L 628 4550 
Q 988 4650 1302 4700 
Q 1616 4750 1894 4750 
Q 2613 4750 3031 4423 
Q 3450 4097 3450 3541 
Q 3450 3153 3228 2886 
Q 3006 2619 2597 2516 
z
" transform="scale(0.015625)"/>
       </defs>
       <use xlink:href="#DejaVuSans-33"/>
       <use xlink:href="#DejaVuSans-30" x="63.623047"/>
       <use xlink:href="#DejaVuSans-30" x="127.246094"/>
      </g>
     </g>
    </g>
    <g id="ytick_5">
     <g id="line2d_14">
      <g>
       <use xlink:href="#mf0789c086a" x="49.235" y="180.049361" style="stroke: #000000; stroke-width: 0.8"/>
      </g>
     </g>
     <g id="text_15">
      <!-- 400 -->
      <g transform="translate(23.1475 183.84858) scale(0.1 -0.1)">
       <defs>
        <path id="DejaVuSans-34" d="M 2419 4116 
L 825 1625 
L 2419 1625 
L 2419 4116 
z
M 2253 4666 
L 3047 4666 
L 3047 1625 
L 3713 1625 
L 3713 1100 
L 3047 1100 
L 3047 0 
L 2419 0 
L 2419 1100 
L 313 1100 
L 313 1709 
L 2253 4666 
z
" transform="scale(0.015625)"/>
       </defs>
       <use xlink:href="#DejaVuSans-34"/>
       <use xlink:href="#DejaVuSans-30" x="63.623047"/>
       <use xlink:href="#DejaVuSans-30" x="127.246094"/>
      </g>
     </g>
    </g>
    <g id="ytick_6">
     <g id="line2d_15">
      <g>
       <use xlink:href="#mf0789c086a" x="49.235" y="138.962405" style="stroke: #000000; stroke-width: 0.8"/>
      </g>
     </g>
     <g id="text_16">
      <!-- 500 -->
      <g transform="translate(23.1475 142.761624) scale(0.1 -0.1)">
       <defs>
        <path id="DejaVuSans-35" d="M 691 4666 
L 3169 4666 
L 3169 4134 
L 1269 4134 
L 1269 2991 
Q 1406 3038 1543 3061 
Q 1681 3084 1819 3084 
Q 2600 3084 3056 2656 
Q 3513 2228 3513 1497 
Q 3513 744 3044 326 
Q 2575 -91 1722 -91 
Q 1428 -91 1123 -41 
Q 819 9 494 109 
L 494 744 
Q 775 591 1075 516 
Q 1375 441 1709 441 
Q 2250 441 2565 725 
Q 2881 1009 2881 1497 
Q 2881 1984 2565 2268 
Q 2250 2553 1709 2553 
Q 1456 2553 1204 2497 
Q 953 2441 691 2322 
L 691 4666 
z
" transform="scale(0.015625)"/>
       </defs>
       <use xlink:href="#DejaVuSans-35"/>
       <use xlink:href="#DejaVuSans-30" x="63.623047"/>
       <use xlink:href="#DejaVuSans-30" x="127.246094"/>
      </g>
     </g>
    </g>
    <g id="ytick_7">
     <g id="line2d_16">
      <g>
       <use xlink:href="#mf0789c086a" x="49.235" y="97.875448" style="stroke: #000000; stroke-width: 0.8"/>
      </g>
     </g>
     <g id="text_17">
      <!-- 600 -->
      <g transform="translate(23.1475 101.674667) scale(0.1 -0.1)">
       <defs>
        <path id="DejaVuSans-36" d="M 2113 2584 
Q 1688 2584 1439 2293 
Q 1191 2003 1191 1497 
Q 1191 994 1439 701 
Q 1688 409 2113 409 
Q 2538 409 2786 701 
Q 3034 994 3034 1497 
Q 3034 2003 2786 2293 
Q 2538 2584 2113 2584 
z
M 3366 4563 
L 3366 3988 
Q 3128 4100 2886 4159 
Q 2644 4219 2406 4219 
Q 1781 4219 1451 3797 
Q 1122 3375 1075 2522 
Q 1259 2794 1537 2939 
Q 1816 3084 2150 3084 
Q 2853 3084 3261 2657 
Q 3669 2231 3669 1497 
Q 3669 778 3244 343 
Q 2819 -91 2113 -91 
Q 1303 -91 875 529 
Q 447 1150 447 2328 
Q 447 3434 972 4092 
Q 1497 4750 2381 4750 
Q 2619 4750 2861 4703 
Q 3103 4656 3366 4563 
z
" transform="scale(0.015625)"/>
       </defs>
       <use xlink:href="#DejaVuSans-36"/>
       <use xlink:href="#DejaVuSans-30" x="63.623047"/>
       <use xlink:href="#DejaVuSans-30" x="127.246094"/>
      </g>
     </g>
    </g>
    <g id="ytick_8">
     <g id="line2d_17">
      <g>
       <use xlink:href="#mf0789c086a" x="49.235" y="56.788492" style="stroke: #000000; stroke-width: 0.8"/>
      </g>
     </g>
     <g id="text_18">
      <!-- 700 -->
      <g transform="translate(23.1475 60.587711) scale(0.1 -0.1)">
       <use xlink:href="#DejaVuSans-37"/>
       <use xlink:href="#DejaVuSans-30" x="63.623047"/>
       <use xlink:href="#DejaVuSans-30" x="127.246094"/>
      </g>
     </g>
    </g>
    <g id="text_19">
     <!-- Pellet_Count -->
     <g transform="translate(16.318125 230.485312) rotate(-90) scale(0.12 -0.12)">
      <defs>
       <path id="DejaVuSans-50" d="M 1259 4147 
L 1259 2394 
L 2053 2394 
Q 2494 2394 2734 2622 
Q 2975 2850 2975 3272 
Q 2975 3691 2734 3919 
Q 2494 4147 2053 4147 
L 1259 4147 
z
M 628 4666 
L 2053 4666 
Q 2838 4666 3239 4311 
Q 3641 3956 3641 3272 
Q 3641 2581 3239 2228 
Q 2838 1875 2053 1875 
L 1259 1875 
L 1259 0 
L 628 0 
L 628 4666 
z
" transform="scale(0.015625)"/>
       <path id="DejaVuSans-6c" d="M 603 4863 
L 1178 4863 
L 1178 0 
L 603 0 
L 603 4863 
z
" transform="scale(0.015625)"/>
       <path id="DejaVuSans-74" d="M 1172 4494 
L 1172 3500 
L 2356 3500 
L 2356 3053 
L 1172 3053 
L 1172 1153 
Q 1172 725 1289 603 
Q 1406 481 1766 481 
L 2356 481 
L 2356 0 
L 1766 0 
Q 1100 0 847 248 
Q 594 497 594 1153 
L 594 3053 
L 172 3053 
L 172 3500 
L 594 3500 
L 594 4494 
L 1172 4494 
z
" transform="scale(0.015625)"/>
       <path id="DejaVuSans-5f" d="M 3263 -1063 
L 3263 -1509 
L -63 -1509 
L -63 -1063 
L 3263 -1063 
z
" transform="scale(0.015625)"/>
       <path id="DejaVuSans-43" d="M 4122 4306 
L 4122 3641 
Q 3803 3938 3442 4084 
Q 3081 4231 2675 4231 
Q 1875 4231 1450 3742 
Q 1025 3253 1025 2328 
Q 1025 1406 1450 917 
Q 1875 428 2675 428 
Q 3081 428 3442 575 
Q 3803 722 4122 1019 
L 4122 359 
Q 3791 134 3420 21 
Q 3050 -91 2638 -91 
Q 1578 -91 968 557 
Q 359 1206 359 2328 
Q 359 3453 968 4101 
Q 1578 4750 2638 4750 
Q 3056 4750 3426 4639 
Q 3797 4528 4122 4306 
z
" transform="scale(0.015625)"/>
       <path id="DejaVuSans-6f" d="M 1959 3097 
Q 1497 3097 1228 2736 
Q 959 2375 959 1747 
Q 959 1119 1226 758 
Q 1494 397 1959 397 
Q 2419 397 2687 759 
Q 2956 1122 2956 1747 
Q 2956 2369 2687 2733 
Q 2419 3097 1959 3097 
z
M 1959 3584 
Q 2709 3584 3137 3096 
Q 3566 2609 3566 1747 
Q 3566 888 3137 398 
Q 2709 -91 1959 -91 
Q 1206 -91 779 398 
Q 353 888 353 1747 
Q 353 2609 779 3096 
Q 1206 3584 1959 3584 
z
" transform="scale(0.015625)"/>
       <path id="DejaVuSans-75" d="M 544 1381 
L 544 3500 
L 1119 3500 
L 1119 1403 
Q 1119 906 1312 657 
Q 1506 409 1894 409 
Q 2359 409 2629 706 
Q 2900 1003 2900 1516 
L 2900 3500 
L 3475 3500 
L 3475 0 
L 2900 0 
L 2900 538 
Q 2691 219 2414 64 
Q 2138 -91 1772 -91 
Q 1169 -91 856 284 
Q 544 659 544 1381 
z
M 1991 3584 
L 1991 3584 
z
" transform="scale(0.015625)"/>
       <path id="DejaVuSans-6e" d="M 3513 2113 
L 3513 0 
L 2938 0 
L 2938 2094 
Q 2938 2591 2744 2837 
Q 2550 3084 2163 3084 
Q 1697 3084 1428 2787 
Q 1159 2491 1159 1978 
L 1159 0 
L 581 0 
L 581 3500 
L 1159 3500 
L 1159 2956 
Q 1366 3272 1645 3428 
Q 1925 3584 2291 3584 
Q 2894 3584 3203 3211 
Q 3513 2838 3513 2113 
z
" transform="scale(0.015625)"/>
      </defs>
      <use xlink:href="#DejaVuSans-50"/>
      <use xlink:href="#DejaVuSans-65" x="56.677734"/>
      <use xlink:href="#DejaVuSans-6c" x="118.201172"/>
      <use xlink:href="#DejaVuSans-6c" x="145.984375"/>
      <use xlink:href="#DejaVuSans-65" x="173.767578"/>
      <use xlink:href="#DejaVuSans-74" x="235.291016"/>
      <use xlink:href="#DejaVuSans-5f" x="274.5"/>
      <use xlink:href="#DejaVuSans-43" x="324.5"/>
      <use xlink:href="#DejaVuSans-6f" x="394.324219"/>
      <use xlink:href="#DejaVuSans-75" x="455.505859"/>
      <use xlink:href="#DejaVuSans-6e" x="518.884766"/>
      <use xlink:href="#DejaVuSans-74" x="582.263672"/>
     </g>
    </g>
   </g>
   <g id="line2d_18">
    <path d="M 99.962273 344.397187 
L 99.973799 343.986318 
L 100.135161 343.986318 
L 100.247539 343.164579 
L 100.313813 343.164579 
L 100.400257 342.34284 
L 100.555857 342.34284 
L 100.656709 341.521101 
L 100.725864 341.521101 
L 100.728746 341.110231 
L 100.841124 341.110231 
L 100.933331 340.288492 
L 100.982316 340.288492 
L 101.014012 339.466753 
L 101.607597 339.466753 
L 101.610478 339.055883 
L 101.938967 339.055883 
L 102.025411 338.234144 
L 102.080159 338.234144 
L 102.163722 337.001535 
L 103.500728 337.001535 
L 103.693787 336.179796 
L 104.529416 336.179796 
L 105.388096 335.768927 
L 106.013377 335.768927 
L 106.01914 335.358057 
L 106.197792 335.358057 
L 106.206436 334.947187 
L 106.44848 334.947187 
L 106.460006 334.536318 
L 106.618488 334.536318 
L 106.719339 334.125448 
L 108.537552 334.125448 
L 108.57213 333.714579 
L 109.119611 333.714579 
L 109.237751 333.303709 
L 109.263685 333.303709 
L 109.269448 332.89284 
L 112.381444 332.89284 
L 112.384326 332.48197 
L 112.683999 332.48197 
L 112.707051 332.071101 
L 115.311908 332.071101 
L 115.314789 331.660231 
L 118.170334 331.660231 
L 118.271186 330.838492 
L 118.389326 330.838492 
L 118.498823 330.427622 
L 118.544926 330.427622 
L 118.640015 330.016753 
L 119.366148 330.016753 
L 119.481407 329.605883 
L 119.573614 329.605883 
L 119.685992 329.195014 
L 119.691755 328.784144 
L 121.406234 328.784144 
L 121.409116 328.373274 
L 121.533019 328.373274 
L 121.535901 327.962405 
L 121.734723 327.962405 
L 121.835574 327.140666 
L 121.965241 327.140666 
L 122.063211 326.318927 
L 122.149656 326.318927 
L 122.152537 325.908057 
L 123.722943 325.908057 
L 123.832439 325.086318 
L 123.91312 325.086318 
L 123.988039 324.264579 
L 124.057194 324.264579 
L 124.149402 323.853709 
L 127.05105 323.853709 
L 127.056813 323.44284 
L 127.192243 323.44284 
L 127.30462 322.621101 
L 127.365131 322.621101 
L 127.451576 321.799361 
L 127.53802 321.799361 
L 127.650398 320.977622 
L 127.716672 320.977622 
L 127.719553 320.566753 
L 127.952953 320.566753 
L 127.958716 320.155883 
L 131.347334 320.155883 
L 131.448186 319.334144 
L 131.525986 319.334144 
L 131.664297 318.512405 
L 143.198854 318.512405 
L 143.305469 318.101535 
L 143.342928 318.101535 
L 143.44378 316.868927 
L 143.518699 316.868927 
L 143.584973 316.047187 
L 143.668535 316.047187 
L 143.743454 315.225448 
L 143.806846 315.225448 
L 143.890409 314.403709 
L 149.872358 314.403709 
L 149.878121 313.99284 
L 149.990499 313.99284 
L 149.996262 313.58197 
L 153.96982 313.58197 
L 154.076435 312.760231 
L 154.747819 312.760231 
L 154.837145 311.938492 
L 154.906301 311.938492 
L 154.912064 311.527622 
L 155.027323 311.527622 
L 155.116649 311.116753 
L 157.678283 311.116753 
L 157.787779 310.705883 
L 157.825238 310.705883 
L 157.92609 309.884144 
L 158.00389 309.884144 
L 158.110505 309.473274 
L 158.124912 309.473274 
L 158.130675 309.062405 
L 161.470308 309.062405 
L 161.481834 308.651535 
L 168.892996 308.651535 
L 169.005374 307.829796 
L 169.097581 307.829796 
L 169.181144 307.008057 
L 169.235892 307.008057 
L 169.319455 306.186318 
L 169.477937 306.186318 
L 169.593196 305.364579 
L 169.656588 305.364579 
L 169.820832 304.54284 
L 169.915921 304.54284 
L 170.002366 303.721101 
L 178.214579 303.721101 
L 178.272208 303.310231 
L 178.355771 303.310231 
L 178.358653 302.899361 
L 178.643919 302.899361 
L 178.6468 302.488492 
L 178.776467 302.488492 
L 178.885963 302.077622 
L 180.802146 302.077622 
L 181.462005 298.790666 
L 199.477007 298.790666 
L 199.479888 298.379796 
L 199.632607 298.379796 
L 199.63837 297.968927 
L 199.753629 297.968927 
L 199.863125 297.147187 
L 199.929399 297.147187 
L 200.036014 296.325448 
L 209.274033 296.325448 
L 209.279796 295.914579 
L 209.510314 295.914579 
L 209.513196 295.503709 
L 209.743714 295.503709 
L 209.746596 295.09284 
L 209.896432 295.09284 
L 209.977114 294.271101 
L 210.049151 294.271101 
L 210.138477 293.449361 
L 210.22204 293.449361 
L 210.322891 293.038492 
L 223.082077 293.038492 
L 223.188692 292.627622 
L 223.214625 292.627622 
L 223.324121 292.216753 
L 226.156614 292.216753 
L 226.248822 291.395014 
L 226.346792 291.395014 
L 226.525444 290.573274 
L 248.473664 290.573274 
L 248.551464 290.162405 
L 248.802152 288.929796 
L 248.920293 288.929796 
L 248.926056 288.518927 
L 262.394085 288.518927 
L 262.489174 288.108057 
L 262.633248 288.108057 
L 262.748507 287.286318 
L 262.834952 287.286318 
L 262.843596 286.875448 
L 262.999196 286.875448 
L 263.004959 286.464579 
L 263.244122 286.464579 
L 263.247003 286.053709 
L 271.649394 286.053709 
L 271.756008 285.23197 
L 284.108906 285.23197 
L 284.209758 284.410231 
L 284.463328 284.410231 
L 284.564179 283.588492 
L 284.665031 283.588492 
L 284.667913 283.177622 
L 296.525196 283.177622 
L 296.640455 282.766753 
L 296.666388 282.766753 
L 296.752833 281.945014 
L 296.84504 281.945014 
L 296.954536 281.534144 
L 296.977588 281.534144 
L 297.07844 280.712405 
L 297.378113 280.712405 
L 297.380995 280.301535 
L 297.502017 280.301535 
L 297.58558 279.479796 
L 297.660498 279.479796 
L 297.755587 278.658057 
L 297.833387 278.658057 
L 297.83915 278.247187 
L 306.414429 278.247187 
L 306.417311 277.836318 
L 306.564266 277.836318 
L 306.670881 277.014579 
L 306.768851 277.014579 
L 306.872584 276.19284 
L 310.154588 276.19284 
L 310.160351 275.78197 
L 310.390869 275.78197 
L 310.393751 275.371101 
L 316.286374 275.371101 
L 316.292137 274.960231 
L 316.418922 274.960231 
L 316.522655 274.138492 
L 316.597574 274.138492 
L 316.600455 273.727622 
L 317.179632 273.727622 
L 317.185395 273.316753 
L 326.607829 273.316753 
L 326.607829 272.905883 
L 326.731733 272.905883 
L 326.838347 272.495014 
L 326.933436 272.495014 
L 327.048695 271.673274 
L 327.166836 271.673274 
L 327.230229 270.851535 
L 327.550073 270.851535 
L 327.550073 270.440666 
L 327.668213 270.440666 
L 327.671095 270.029796 
L 328.408753 270.029796 
L 328.495197 269.618927 
L 331.964497 269.618927 
L 331.97026 269.208057 
L 333.269807 269.208057 
L 333.344725 268.797187 
L 333.497444 268.797187 
L 333.503207 268.386318 
L 335.759404 268.386318 
L 335.825678 267.564579 
L 335.92653 267.564579 
L 336.030263 266.74284 
L 336.139759 266.74284 
L 336.211796 265.921101 
L 339.548548 265.921101 
L 339.637874 265.099361 
L 339.721437 265.099361 
L 339.724318 264.688492 
L 343.415492 264.688492 
L 343.513462 263.866753 
L 343.680588 263.866753 
L 343.784321 263.045014 
L 344.207899 263.045014 
L 344.328921 262.634144 
L 347.167177 262.634144 
L 347.279554 262.223274 
L 347.371762 261.401535 
L 349.486767 261.401535 
L 349.49253 260.990666 
L 350.443418 260.990666 
L 350.532743 260.168927 
L 350.587492 260.168927 
L 350.656647 259.347187 
L 350.722921 259.347187 
L 350.792077 258.525448 
L 350.846825 258.525448 
L 350.941913 257.703709 
L 353.895429 257.703709 
L 353.987636 257.29284 
L 357.059292 257.29284 
L 357.062173 256.88197 
L 357.240825 256.88197 
L 357.243706 256.471101 
L 357.454054 256.471101 
L 357.456936 256.060231 
L 358.116794 256.060231 
L 358.223409 255.238492 
L 358.834282 255.238492 
L 358.837164 254.827622 
L 359.128193 254.827622 
L 359.252097 254.005883 
L 363.335152 254.005883 
L 363.338033 253.595014 
L 364.718261 253.595014 
L 364.724024 253.184144 
L 364.943016 253.184144 
L 364.945898 252.773274 
L 366.709363 252.773274 
L 366.720889 252.362405 
L 366.994629 252.362405 
L 367.098362 251.951535 
L 367.262606 251.540666 
L 367.282777 251.540666 
L 367.285658 251.129796 
L 369.028953 251.129796 
L 369.210486 250.718927 
L 379.572282 250.718927 
L 379.687541 250.308057 
L 379.722119 250.308057 
L 379.834496 249.897187 
L 379.863311 249.897187 
L 379.863311 249.897187 
L 379.926704 249.075448 
L 379.995859 249.075448 
L 380.096711 248.253709 
L 380.171629 248.253709 
L 380.23214 247.43197 
L 380.295533 247.43197 
L 380.338755 246.610231 
L 380.577918 246.610231 
L 380.64131 245.788492 
L 380.69894 245.788492 
L 380.814199 244.966753 
L 380.819962 244.555883 
L 383.436344 244.555883 
L 383.554485 243.323274 
L 384.243158 243.323274 
L 384.306551 242.912405 
L 384.805046 242.912405 
L 384.810809 242.501535 
L 395.230235 242.501535 
L 395.310916 241.679796 
L 395.440583 241.679796 
L 395.524146 240.858057 
L 395.596182 240.858057 
L 395.68839 240.036318 
L 395.746019 240.036318 
L 395.80653 239.214579 
L 395.982301 239.214579 
L 396.048575 238.39284 
L 396.111967 238.39284 
L 396.178241 237.571101 
L 396.270448 237.571101 
L 396.27333 237.160231 
L 407.271932 237.160231 
L 407.277695 236.749361 
L 407.40448 236.749361 
L 407.508214 236.338492 
L 412.095527 236.338492 
L 412.190616 235.516753 
L 412.265534 235.516753 
L 412.326045 234.695014 
L 412.43266 234.695014 
L 412.516223 234.284144 
L 412.74386 234.284144 
L 412.746741 233.873274 
L 413.049296 233.873274 
L 413.055059 233.462405 
L 413.1732 233.462405 
L 413.239474 232.640666 
L 413.377785 232.640666 
L 413.444059 231.818927 
L 415.72619 231.818927 
L 415.821279 230.997187 
L 415.896197 230.997187 
L 415.971115 230.586318 
L 426.716148 230.586318 
L 426.819881 229.764579 
L 426.909207 229.764579 
L 427.021585 228.94284 
L 427.102266 228.94284 
L 427.185829 228.121101 
L 427.338547 228.121101 
L 427.34431 227.710231 
L 427.485503 227.710231 
L 427.569066 227.299361 
L 429.205745 227.299361 
L 429.208627 226.888492 
L 431.20261 226.888492 
L 431.306343 225.655883 
L 431.392787 225.655883 
L 431.519572 224.423274 
L 431.582965 224.423274 
L 431.646357 223.601535 
L 433.588474 223.601535 
L 433.672037 222.779796 
L 433.741192 222.779796 
L 433.813229 221.958057 
L 448.010273 221.958057 
L 448.08231 221.136318 
L 448.160109 221.136318 
L 448.25808 220.725448 
L 448.428087 220.725448 
L 448.430968 220.314579 
L 457.784247 220.314579 
L 457.798654 219.903709 
L 458.098328 219.903709 
L 458.181891 219.08197 
L 473.635259 219.08197 
L 473.638141 218.671101 
L 474.041547 218.671101 
L 474.044429 218.260231 
L 474.197147 218.260231 
L 474.283592 217.438492 
L 474.344103 217.438492 
L 474.430547 216.616753 
L 474.528517 216.616753 
L 474.643776 215.795014 
L 474.764799 215.795014 
L 474.848361 214.973274 
L 491.826031 214.973274 
L 491.906713 214.151535 
L 492.217913 214.151535 
L 492.223675 213.740666 
L 493.114052 213.740666 
L 493.20626 212.918927 
L 493.278297 212.918927 
L 493.278297 212.508057 
L 493.48 212.508057 
L 493.482881 212.097187 
L 508.48962 212.097187 
L 508.492502 211.686318 
L 508.607761 211.686318 
L 508.699968 210.864579 
L 508.783531 210.864579 
L 508.895909 210.453709 
L 508.901672 210.04284 
L 522.349531 210.04284 
L 522.450383 209.221101 
L 522.588694 209.221101 
L 522.591575 208.810231 
L 535.690776 208.810231 
L 535.693657 208.399361 
L 535.846375 208.399361 
L 535.941464 207.577622 
L 535.996212 207.577622 
L 536.099945 207.166753 
L 536.117234 207.166753 
L 536.20656 206.345014 
L 556.14639 206.345014 
L 556.238597 205.523274 
L 556.325042 205.523274 
L 556.39996 204.701535 
L 556.454708 204.701535 
L 556.454708 204.701535 
L 556.590138 203.468927 
L 556.676582 203.468927 
L 556.679463 203.058057 
L 567.17957 203.058057 
L 567.268896 202.236318 
L 567.326526 202.236318 
L 567.398563 201.414579 
L 567.456192 201.414579 
L 567.533992 200.59284 
L 567.606029 200.59284 
L 567.701118 200.18197 
L 567.807733 200.18197 
L 567.810614 199.771101 
L 575.218895 199.771101 
L 575.227539 199.360231 
L 577.786292 199.360231 
L 577.884262 198.538492 
L 578.688195 198.538492 
L 578.693958 198.127622 
L 578.999394 198.127622 
L 579.005157 197.716753 
L 579.408564 197.716753 
L 579.414327 197.305883 
L 581.385258 197.305883 
L 581.46594 196.484144 
L 581.83765 196.484144 
L 581.924095 196.073274 
L 582.385131 196.073274 
L 582.388013 195.662405 
L 584.658618 195.662405 
L 584.736418 194.840666 
L 584.791166 194.840666 
L 584.900662 193.608057 
L 584.95541 193.608057 
L 585.030328 192.786318 
L 586.128172 192.786318 
L 586.131053 192.375448 
L 588.531324 192.375448 
L 588.54285 191.964579 
L 588.681161 191.964579 
L 588.758961 191.14284 
L 588.813709 191.14284 
L 588.885746 190.321101 
L 593.444245 190.321101 
L 593.55086 189.499361 
L 593.614252 189.499361 
L 593.677645 188.677622 
L 600.106223 188.677622 
L 600.209956 187.855883 
L 600.273348 187.855883 
L 600.388608 187.034144 
L 600.397252 187.034144 
L 600.400133 186.623274 
L 600.887103 186.623274 
L 600.976429 186.212405 
L 601.587303 186.212405 
L 601.673747 185.390666 
L 601.734258 185.390666 
L 601.849517 184.568927 
L 601.91291 183.747187 
L 601.976302 183.747187 
L 601.979184 183.336318 
L 606.51463 183.336318 
L 606.520393 182.925448 
L 606.675993 182.925448 
L 606.768201 182.103709 
L 606.843119 182.103709 
L 606.90363 181.28197 
L 606.978548 181.28197 
L 607.093808 180.049361 
L 612.173854 180.049361 
L 612.176735 179.638492 
L 614.29174 179.638492 
L 614.360896 179.227622 
L 616.850493 179.227622 
L 616.859137 178.816753 
L 619.083639 178.816753 
L 619.167202 177.995014 
L 620.311148 177.995014 
L 620.409119 177.173274 
L 620.478274 177.173274 
L 620.590652 175.940666 
L 620.91914 175.940666 
L 620.927785 175.529796 
L 623.645019 175.529796 
L 624.362507 175.118927 
L 624.472003 173.886318 
L 624.506581 173.886318 
L 624.509462 173.475448 
L 629.658664 173.475448 
L 629.765279 172.24284 
L 629.799857 172.24284 
L 629.912234 171.010231 
L 629.955456 171.010231 
L 630.030375 170.188492 
L 631.22907 170.188492 
L 631.231951 169.777622 
L 635.508065 169.777622 
L 635.623324 168.955883 
L 635.865368 167.312405 
L 635.940287 167.312405 
L 635.943168 166.901535 
L 639.84469 166.901535 
L 639.925371 166.079796 
L 653.439504 166.079796 
L 653.453912 165.668927 
L 653.569171 165.668927 
L 653.655615 164.847187 
L 653.707482 164.847187 
L 653.802571 164.025448 
L 656.320983 164.025448 
L 656.326746 163.614579 
L 656.450649 163.614579 
L 656.531331 162.79284 
L 656.591842 162.79284 
L 656.758967 161.560231 
L 662.925331 161.560231 
L 663.02042 160.738492 
L 663.072286 160.738492 
L 663.178901 159.916753 
L 672.886601 159.916753 
L 672.998979 159.095014 
L 673.045083 159.095014 
L 673.15746 158.273274 
L 673.171868 158.273274 
L 673.243905 157.862405 
L 673.906645 157.451535 
L 674.471414 157.451535 
L 674.554977 156.629796 
L 674.61837 156.629796 
L 674.667355 155.808057 
L 675.59231 155.808057 
L 675.92368 155.397187 
L 675.987072 154.575448 
L 678.329714 154.575448 
L 678.442092 153.753709 
L 678.450736 153.753709 
L 678.563114 152.93197 
L 678.704306 151.699361 
L 678.799395 151.699361 
L 678.808039 151.288492 
L 680.15369 151.288492 
L 680.56286 150.877622 
L 681.847999 150.877622 
L 681.925799 150.055883 
L 681.983428 150.055883 
L 682.041058 149.234144 
L 696.171827 149.234144 
L 696.295731 148.412405 
L 696.327427 148.412405 
L 696.434042 147.179796 
L 696.480146 147.179796 
L 696.563709 146.768927 
L 696.604049 146.768927 
L 696.719308 145.947187 
L 696.776938 145.125448 
L 696.941182 145.125448 
L 697.013219 144.303709 
L 707.588244 144.303709 
L 707.660281 143.48197 
L 707.709267 143.48197 
L 707.712148 143.071101 
L 707.85334 143.071101 
L 707.959955 142.249361 
L 708.003177 142.249361 
L 708.124199 141.016753 
L 708.187592 141.016753 
L 708.193355 140.605883 
L 723.355694 140.605883 
L 723.361457 140.195014 
L 723.551634 140.195014 
L 723.669775 138.962405 
L 734.593459 138.962405 
L 734.694311 138.140666 
L 734.746177 138.140666 
L 734.944999 137.318927 
L 740.419808 137.318927 
L 740.517778 136.908057 
L 742.511761 136.497187 
L 762.255651 136.497187 
L 762.333451 136.086318 
L 775.697747 136.086318 
L 775.798599 135.264579 
L 775.861991 135.264579 
L 775.97725 134.44284 
L 776.052169 134.03197 
L 776.498798 134.03197 
L 776.56219 133.621101 
L 799.138573 133.621101 
L 799.233662 132.799361 
L 802.538717 132.799361 
L 802.541599 132.388492 
L 802.809576 132.388492 
L 802.812458 131.977622 
L 814.989585 131.977622 
L 815.070266 131.155883 
L 815.125014 131.155883 
L 815.222985 130.334144 
L 815.283496 130.334144 
L 815.344007 129.512405 
L 816.263198 129.512405 
L 816.361168 129.101535 
L 824.99984 129.101535 
L 825.103574 128.279796 
L 825.236122 128.279796 
L 825.339855 127.047187 
L 825.385958 127.047187 
L 825.38884 126.636318 
L 828.472022 126.636318 
L 828.581518 125.814579 
L 828.642029 125.814579 
L 828.64491 125.403709 
L 833.650038 125.403709 
L 833.739364 124.99284 
L 837.672582 124.99284 
L 837.78496 123.760231 
L 837.836826 123.760231 
L 837.952085 122.527622 
L 845.158663 122.527622 
L 845.222055 121.705883 
L 845.282566 121.705883 
L 845.343077 120.884144 
L 845.40647 120.884144 
L 845.515966 119.651535 
L 845.567832 119.651535 
L 845.691736 118.418927 
L 845.93378 118.418927 
L 846.005817 117.597187 
L 846.051921 117.597187 
L 846.123958 116.775448 
L 855.684703 116.775448 
L 855.788436 115.953709 
L 855.846065 115.953709 
L 855.955562 115.13197 
L 856.021836 115.13197 
L 856.137095 114.310231 
L 856.209132 114.310231 
L 856.26388 113.488492 
L 856.347443 113.488492 
L 856.350324 113.077622 
L 857.085101 113.077622 
L 857.087983 112.666753 
L 857.612412 112.666753 
L 857.615293 112.255883 
L 859.629446 112.255883 
L 859.718772 111.845014 
L 860.542875 111.845014 
L 860.548638 111.434144 
L 862.418717 111.434144 
L 862.50228 110.612405 
L 866.45855 110.612405 
L 866.539231 109.790666 
L 866.599742 109.790666 
L 866.674661 108.968927 
L 866.73229 108.968927 
L 866.821616 108.147187 
L 866.896535 108.147187 
L 866.899416 107.736318 
L 867.040609 107.736318 
L 867.10112 106.914579 
L 874.010905 106.914579 
L 874.088705 106.09284 
L 874.198201 106.09284 
L 874.264475 105.271101 
L 874.330749 105.271101 
L 874.33363 104.860231 
L 883.698435 104.860231 
L 883.773353 104.038492 
L 883.82522 104.038492 
L 883.934716 102.805883 
L 883.986582 102.805883 
L 884.061501 101.984144 
L 886.934335 101.984144 
L 887.585549 97.875448 
L 889.553599 97.875448 
L 889.570887 97.464579 
L 902.978406 97.464579 
L 903.073495 96.64284 
L 903.125361 96.64284 
L 903.182991 95.821101 
L 903.252146 95.821101 
L 903.344354 94.999361 
L 903.410628 94.999361 
L 903.488428 94.177622 
L 903.574872 94.177622 
L 903.577753 93.766753 
L 910.403975 93.766753 
L 910.481775 92.945014 
L 910.542286 92.945014 
L 910.937049 90.479796 
L 911.377915 90.479796 
L 911.467241 89.658057 
L 911.536396 89.658057 
L 911.608433 88.836318 
L 911.677589 88.836318 
L 911.746744 88.014579 
L 915.095022 88.014579 
L 915.106548 87.603709 
L 915.435037 87.603709 
L 915.507074 86.78197 
L 915.57911 86.78197 
L 915.648266 85.960231 
L 915.711658 85.960231 
L 915.77217 85.138492 
L 917.555805 85.138492 
L 917.555805 85.138492 
L 917.570212 84.727622 
L 923.128584 84.727622 
L 923.229435 83.905883 
L 923.287065 83.905883 
L 923.405206 82.673274 
L 923.483005 82.673274 
L 923.601146 81.440666 
L 923.661657 81.440666 
L 923.774035 80.208057 
L 923.831664 80.208057 
L 923.837427 79.797187 
L 939.478091 79.797187 
L 939.587588 79.386318 
L 939.619284 79.386318 
L 939.731662 78.564579 
L 939.792173 78.564579 
L 939.86421 77.74284 
L 939.916076 77.74284 
L 939.979469 77.33197 
L 962.333977 77.33197 
L 962.41754 76.510231 
L 962.486696 76.510231 
L 962.570258 75.688492 
L 962.636532 75.688492 
L 962.705688 74.866753 
L 962.76908 74.866753 
L 962.820947 74.045014 
L 962.88434 74.045014 
L 962.887221 73.634144 
L 972.738995 73.634144 
L 972.851373 72.812405 
L 972.911884 72.812405 
L 972.995447 71.990666 
L 973.061721 71.990666 
L 973.151047 71.168927 
L 973.217321 71.168927 
L 973.220202 70.758057 
L 987.653527 70.758057 
L 987.656408 70.347187 
L 988.396948 70.347187 
L 988.492037 69.525448 
L 1003.098251 69.525448 
L 1003.178932 68.703709 
L 1003.340295 68.703709 
L 1003.455554 67.88197 
L 1003.510302 67.88197 
L 1003.593865 67.060231 
L 1015.327244 67.060231 
L 1015.428096 66.649361 
L 1015.644207 65.005883 
L 1015.863199 65.005883 
L 1015.940999 64.595014 
L 1035.255548 64.595014 
L 1035.261311 64.184144 
L 1035.543696 64.184144 
L 1035.618615 63.362405 
L 1045.571241 63.362405 
L 1045.657685 62.540666 
L 1045.715315 62.540666 
L 1045.78447 61.718927 
L 1045.844981 61.718927 
L 1045.899729 60.897187 
L 1045.963122 60.897187 
L 1046.023633 60.075448 
L 1046.087025 60.075448 
L 1046.144655 59.664579 
L 1058.099908 59.664579 
L 1058.105671 59.253709 
L 1058.37653 59.253709 
L 1058.457212 58.43197 
L 1061.920748 58.43197 
L 1062.007193 58.021101 
L 1062.076348 57.610231 
L 1062.355852 57.610231 
L 1062.361615 57.199361 
L 1063.661161 57.199361 
L 1063.753369 56.788492 
L 1071.490138 56.788492 
L 1071.576582 56.377622 
L 1072.757988 56.377622 
L 1072.763751 55.966753 
L 1075.285045 55.966753 
L 1075.365726 55.145014 
L 1075.875748 55.145014 
L 1075.881511 54.734144 
L 1078.013805 54.734144 
L 1078.019568 54.323274 
L 1078.751463 54.323274 
L 1078.852315 53.090666 
L 1078.907063 53.090666 
L 1078.909944 52.679796 
L 1083.448273 52.679796 
L 1083.514547 52.268927 
L 1084.407805 52.268927 
L 1084.485605 51.447187 
L 1084.572049 51.447187 
L 1084.649849 50.625448 
L 1084.698834 50.625448 
L 1084.773753 49.803709 
L 1085.851426 49.803709 
L 1085.914818 49.39284 
L 1089.649214 49.39284 
L 1089.735658 48.571101 
L 1089.790406 48.571101 
L 1089.905666 47.338492 
L 1094.429587 47.338492 
L 1094.562135 46.516753 
L 1094.567897 46.516753 
L 1094.674512 45.284144 
L 1094.723497 45.284144 
L 1094.835875 44.462405 
L 1094.876216 44.051535 
L 1095.187415 44.051535 
L 1095.190297 43.640666 
L 1095.305556 43.640666 
L 1095.308437 43.229796 
L 1095.648452 43.229796 
L 1095.732015 42.408057 
L 1107.275217 42.408057 
L 1114.507727 41.997187 
L 1114.507727 41.997187 
" clip-path="url(#pf821fdbb1c)" style="fill: none; stroke: #0000ff; stroke-width: 1.5; stroke-linecap: square"/>
   </g>
   <g id="patch_151">
    <path d="M 49.235 359.517187 
L 49.235 26.877187 
" style="fill: none; stroke: #000000; stroke-width: 0.8; stroke-linejoin: miter; stroke-linecap: square"/>
   </g>
   <g id="patch_152">
    <path d="M 1165.235 359.517187 
L 1165.235 26.877187 
" style="fill: none; stroke: #000000; stroke-width: 0.8; stroke-linejoin: miter; stroke-linecap: square"/>
   </g>
   <g id="patch_153">
    <path d="M 49.235 359.517187 
L 1165.235 359.517187 
" style="fill: none; stroke: #000000; stroke-width: 0.8; stroke-linejoin: miter; stroke-linecap: square"/>
   </g>
   <g id="patch_154">
    <path d="M 49.235 26.877187 
L 1165.235 26.877187 
" style="fill: none; stroke: #000000; stroke-width: 0.8; stroke-linejoin: miter; stroke-linecap: square"/>
   </g>
   <g id="text_20">
    <!-- Pellet Count and Cumulative Sum Over Time of Group 11 Mouse 5 -->
    <g transform="translate(309.734375 20.877187) scale(0.18 -0.18)">
     <defs>
      <path id="DejaVuSans-61" d="M 2194 1759 
Q 1497 1759 1228 1600 
Q 959 1441 959 1056 
Q 959 750 1161 570 
Q 1363 391 1709 391 
Q 2188 391 2477 730 
Q 2766 1069 2766 1631 
L 2766 1759 
L 2194 1759 
z
M 3341 1997 
L 3341 0 
L 2766 0 
L 2766 531 
Q 2569 213 2275 61 
Q 1981 -91 1556 -91 
Q 1019 -91 701 211 
Q 384 513 384 1019 
Q 384 1609 779 1909 
Q 1175 2209 1959 2209 
L 2766 2209 
L 2766 2266 
Q 2766 2663 2505 2880 
Q 2244 3097 1772 3097 
Q 1472 3097 1187 3025 
Q 903 2953 641 2809 
L 641 3341 
Q 956 3463 1253 3523 
Q 1550 3584 1831 3584 
Q 2591 3584 2966 3190 
Q 3341 2797 3341 1997 
z
" transform="scale(0.015625)"/>
      <path id="DejaVuSans-64" d="M 2906 2969 
L 2906 4863 
L 3481 4863 
L 3481 0 
L 2906 0 
L 2906 525 
Q 2725 213 2448 61 
Q 2172 -91 1784 -91 
Q 1150 -91 751 415 
Q 353 922 353 1747 
Q 353 2572 751 3078 
Q 1150 3584 1784 3584 
Q 2172 3584 2448 3432 
Q 2725 3281 2906 2969 
z
M 947 1747 
Q 947 1113 1208 752 
Q 1469 391 1925 391 
Q 2381 391 2643 752 
Q 2906 1113 2906 1747 
Q 2906 2381 2643 2742 
Q 2381 3103 1925 3103 
Q 1469 3103 1208 2742 
Q 947 2381 947 1747 
z
" transform="scale(0.015625)"/>
      <path id="DejaVuSans-76" d="M 191 3500 
L 800 3500 
L 1894 563 
L 2988 3500 
L 3597 3500 
L 2284 0 
L 1503 0 
L 191 3500 
z
" transform="scale(0.015625)"/>
      <path id="DejaVuSans-53" d="M 3425 4513 
L 3425 3897 
Q 3066 4069 2747 4153 
Q 2428 4238 2131 4238 
Q 1616 4238 1336 4038 
Q 1056 3838 1056 3469 
Q 1056 3159 1242 3001 
Q 1428 2844 1947 2747 
L 2328 2669 
Q 3034 2534 3370 2195 
Q 3706 1856 3706 1288 
Q 3706 609 3251 259 
Q 2797 -91 1919 -91 
Q 1588 -91 1214 -16 
Q 841 59 441 206 
L 441 856 
Q 825 641 1194 531 
Q 1563 422 1919 422 
Q 2459 422 2753 634 
Q 3047 847 3047 1241 
Q 3047 1584 2836 1778 
Q 2625 1972 2144 2069 
L 1759 2144 
Q 1053 2284 737 2584 
Q 422 2884 422 3419 
Q 422 4038 858 4394 
Q 1294 4750 2059 4750 
Q 2388 4750 2728 4690 
Q 3069 4631 3425 4513 
z
" transform="scale(0.015625)"/>
      <path id="DejaVuSans-4f" d="M 2522 4238 
Q 1834 4238 1429 3725 
Q 1025 3213 1025 2328 
Q 1025 1447 1429 934 
Q 1834 422 2522 422 
Q 3209 422 3611 934 
Q 4013 1447 4013 2328 
Q 4013 3213 3611 3725 
Q 3209 4238 2522 4238 
z
M 2522 4750 
Q 3503 4750 4090 4092 
Q 4678 3434 4678 2328 
Q 4678 1225 4090 567 
Q 3503 -91 2522 -91 
Q 1538 -91 948 565 
Q 359 1222 359 2328 
Q 359 3434 948 4092 
Q 1538 4750 2522 4750 
z
" transform="scale(0.015625)"/>
      <path id="DejaVuSans-72" d="M 2631 2963 
Q 2534 3019 2420 3045 
Q 2306 3072 2169 3072 
Q 1681 3072 1420 2755 
Q 1159 2438 1159 1844 
L 1159 0 
L 581 0 
L 581 3500 
L 1159 3500 
L 1159 2956 
Q 1341 3275 1631 3429 
Q 1922 3584 2338 3584 
Q 2397 3584 2469 3576 
Q 2541 3569 2628 3553 
L 2631 2963 
z
" transform="scale(0.015625)"/>
      <path id="DejaVuSans-66" d="M 2375 4863 
L 2375 4384 
L 1825 4384 
Q 1516 4384 1395 4259 
Q 1275 4134 1275 3809 
L 1275 3500 
L 2222 3500 
L 2222 3053 
L 1275 3053 
L 1275 0 
L 697 0 
L 697 3053 
L 147 3053 
L 147 3500 
L 697 3500 
L 697 3744 
Q 697 4328 969 4595 
Q 1241 4863 1831 4863 
L 2375 4863 
z
" transform="scale(0.015625)"/>
      <path id="DejaVuSans-47" d="M 3809 666 
L 3809 1919 
L 2778 1919 
L 2778 2438 
L 4434 2438 
L 4434 434 
Q 4069 175 3628 42 
Q 3188 -91 2688 -91 
Q 1594 -91 976 548 
Q 359 1188 359 2328 
Q 359 3472 976 4111 
Q 1594 4750 2688 4750 
Q 3144 4750 3555 4637 
Q 3966 4525 4313 4306 
L 4313 3634 
Q 3963 3931 3569 4081 
Q 3175 4231 2741 4231 
Q 1884 4231 1454 3753 
Q 1025 3275 1025 2328 
Q 1025 1384 1454 906 
Q 1884 428 2741 428 
Q 3075 428 3337 486 
Q 3600 544 3809 666 
z
" transform="scale(0.015625)"/>
      <path id="DejaVuSans-70" d="M 1159 525 
L 1159 -1331 
L 581 -1331 
L 581 3500 
L 1159 3500 
L 1159 2969 
Q 1341 3281 1617 3432 
Q 1894 3584 2278 3584 
Q 2916 3584 3314 3078 
Q 3713 2572 3713 1747 
Q 3713 922 3314 415 
Q 2916 -91 2278 -91 
Q 1894 -91 1617 61 
Q 1341 213 1159 525 
z
M 3116 1747 
Q 3116 2381 2855 2742 
Q 2594 3103 2138 3103 
Q 1681 3103 1420 2742 
Q 1159 2381 1159 1747 
Q 1159 1113 1420 752 
Q 1681 391 2138 391 
Q 2594 391 2855 752 
Q 3116 1113 3116 1747 
z
" transform="scale(0.015625)"/>
      <path id="DejaVuSans-4d" d="M 628 4666 
L 1569 4666 
L 2759 1491 
L 3956 4666 
L 4897 4666 
L 4897 0 
L 4281 0 
L 4281 4097 
L 3078 897 
L 2444 897 
L 1241 4097 
L 1241 0 
L 628 0 
L 628 4666 
z
" transform="scale(0.015625)"/>
      <path id="DejaVuSans-73" d="M 2834 3397 
L 2834 2853 
Q 2591 2978 2328 3040 
Q 2066 3103 1784 3103 
Q 1356 3103 1142 2972 
Q 928 2841 928 2578 
Q 928 2378 1081 2264 
Q 1234 2150 1697 2047 
L 1894 2003 
Q 2506 1872 2764 1633 
Q 3022 1394 3022 966 
Q 3022 478 2636 193 
Q 2250 -91 1575 -91 
Q 1294 -91 989 -36 
Q 684 19 347 128 
L 347 722 
Q 666 556 975 473 
Q 1284 391 1588 391 
Q 1994 391 2212 530 
Q 2431 669 2431 922 
Q 2431 1156 2273 1281 
Q 2116 1406 1581 1522 
L 1381 1569 
Q 847 1681 609 1914 
Q 372 2147 372 2553 
Q 372 3047 722 3315 
Q 1072 3584 1716 3584 
Q 2034 3584 2315 3537 
Q 2597 3491 2834 3397 
z
" transform="scale(0.015625)"/>
     </defs>
     <use xlink:href="#DejaVuSans-50"/>
     <use xlink:href="#DejaVuSans-65" x="56.677734"/>
     <use xlink:href="#DejaVuSans-6c" x="118.201172"/>
     <use xlink:href="#DejaVuSans-6c" x="145.984375"/>
     <use xlink:href="#DejaVuSans-65" x="173.767578"/>
     <use xlink:href="#DejaVuSans-74" x="235.291016"/>
     <use xlink:href="#DejaVuSans-20" x="274.5"/>
     <use xlink:href="#DejaVuSans-43" x="306.287109"/>
     <use xlink:href="#DejaVuSans-6f" x="376.111328"/>
     <use xlink:href="#DejaVuSans-75" x="437.292969"/>
     <use xlink:href="#DejaVuSans-6e" x="500.671875"/>
     <use xlink:href="#DejaVuSans-74" x="564.050781"/>
     <use xlink:href="#DejaVuSans-20" x="603.259766"/>
     <use xlink:href="#DejaVuSans-61" x="635.046875"/>
     <use xlink:href="#DejaVuSans-6e" x="696.326172"/>
     <use xlink:href="#DejaVuSans-64" x="759.705078"/>
     <use xlink:href="#DejaVuSans-20" x="823.181641"/>
     <use xlink:href="#DejaVuSans-43" x="854.96875"/>
     <use xlink:href="#DejaVuSans-75" x="924.792969"/>
     <use xlink:href="#DejaVuSans-6d" x="988.171875"/>
     <use xlink:href="#DejaVuSans-75" x="1085.583984"/>
     <use xlink:href="#DejaVuSans-6c" x="1148.962891"/>
     <use xlink:href="#DejaVuSans-61" x="1176.746094"/>
     <use xlink:href="#DejaVuSans-74" x="1238.025391"/>
     <use xlink:href="#DejaVuSans-69" x="1277.234375"/>
     <use xlink:href="#DejaVuSans-76" x="1305.017578"/>
     <use xlink:href="#DejaVuSans-65" x="1364.197266"/>
     <use xlink:href="#DejaVuSans-20" x="1425.720703"/>
     <use xlink:href="#DejaVuSans-53" x="1457.507812"/>
     <use xlink:href="#DejaVuSans-75" x="1520.984375"/>
     <use xlink:href="#DejaVuSans-6d" x="1584.363281"/>
     <use xlink:href="#DejaVuSans-20" x="1681.775391"/>
     <use xlink:href="#DejaVuSans-4f" x="1713.5625"/>
     <use xlink:href="#DejaVuSans-76" x="1792.273438"/>
     <use xlink:href="#DejaVuSans-65" x="1851.453125"/>
     <use xlink:href="#DejaVuSans-72" x="1912.976562"/>
     <use xlink:href="#DejaVuSans-20" x="1954.089844"/>
     <use xlink:href="#DejaVuSans-54" x="1985.876953"/>
     <use xlink:href="#DejaVuSans-69" x="2043.835938"/>
     <use xlink:href="#DejaVuSans-6d" x="2071.619141"/>
     <use xlink:href="#DejaVuSans-65" x="2169.03125"/>
     <use xlink:href="#DejaVuSans-20" x="2230.554688"/>
     <use xlink:href="#DejaVuSans-6f" x="2262.341797"/>
     <use xlink:href="#DejaVuSans-66" x="2323.523438"/>
     <use xlink:href="#DejaVuSans-20" x="2358.728516"/>
     <use xlink:href="#DejaVuSans-47" x="2390.515625"/>
     <use xlink:href="#DejaVuSans-72" x="2468.005859"/>
     <use xlink:href="#DejaVuSans-6f" x="2506.869141"/>
     <use xlink:href="#DejaVuSans-75" x="2568.050781"/>
     <use xlink:href="#DejaVuSans-70" x="2631.429688"/>
     <use xlink:href="#DejaVuSans-20" x="2694.90625"/>
     <use xlink:href="#DejaVuSans-31" x="2726.693359"/>
     <use xlink:href="#DejaVuSans-31" x="2790.316406"/>
     <use xlink:href="#DejaVuSans-20" x="2853.939453"/>
     <use xlink:href="#DejaVuSans-4d" x="2885.726562"/>
     <use xlink:href="#DejaVuSans-6f" x="2972.005859"/>
     <use xlink:href="#DejaVuSans-75" x="3033.1875"/>
     <use xlink:href="#DejaVuSans-73" x="3096.566406"/>
     <use xlink:href="#DejaVuSans-65" x="3148.666016"/>
     <use xlink:href="#DejaVuSans-20" x="3210.189453"/>
     <use xlink:href="#DejaVuSans-35" x="3241.976562"/>
    </g>
   </g>
   <g id="legend_1">
    <g id="patch_155">
     <path d="M 1086.550625 64.233437 
L 1158.235 64.233437 
Q 1160.235 64.233437 1160.235 62.233437 
L 1160.235 33.877187 
Q 1160.235 31.877187 1158.235 31.877187 
L 1086.550625 31.877187 
Q 1084.550625 31.877187 1084.550625 33.877187 
L 1084.550625 62.233437 
Q 1084.550625 64.233437 1086.550625 64.233437 
z
" style="fill: #ffffff; opacity: 0.8; stroke: #cccccc; stroke-linejoin: miter"/>
    </g>
    <g id="patch_156">
     <path d="M 1088.550625 43.475625 
L 1108.550625 43.475625 
L 1108.550625 36.475625 
L 1088.550625 36.475625 
z
" style="fill: #add8e6; opacity: 0.9; stroke: #add8e6; stroke-linejoin: miter"/>
    </g>
    <g id="text_21">
     <!-- Meal -->
     <g transform="translate(1116.550625 43.475625) scale(0.1 -0.1)">
      <use xlink:href="#DejaVuSans-4d"/>
      <use xlink:href="#DejaVuSans-65" x="86.279297"/>
      <use xlink:href="#DejaVuSans-61" x="147.802734"/>
      <use xlink:href="#DejaVuSans-6c" x="209.082031"/>
     </g>
    </g>
    <g id="patch_157">
     <path d="M 1088.550625 58.15375 
L 1108.550625 58.15375 
L 1108.550625 51.15375 
L 1088.550625 51.15375 
z
" style="fill: #808080; opacity: 0.5; stroke: #808080; stroke-linejoin: miter"/>
    </g>
    <g id="text_22">
     <!-- Inactive -->
     <g transform="translate(1116.550625 58.15375) scale(0.1 -0.1)">
      <defs>
       <path id="DejaVuSans-49" d="M 628 4666 
L 1259 4666 
L 1259 0 
L 628 0 
L 628 4666 
z
" transform="scale(0.015625)"/>
       <path id="DejaVuSans-63" d="M 3122 3366 
L 3122 2828 
Q 2878 2963 2633 3030 
Q 2388 3097 2138 3097 
Q 1578 3097 1268 2742 
Q 959 2388 959 1747 
Q 959 1106 1268 751 
Q 1578 397 2138 397 
Q 2388 397 2633 464 
Q 2878 531 3122 666 
L 3122 134 
Q 2881 22 2623 -34 
Q 2366 -91 2075 -91 
Q 1284 -91 818 406 
Q 353 903 353 1747 
Q 353 2603 823 3093 
Q 1294 3584 2113 3584 
Q 2378 3584 2631 3529 
Q 2884 3475 3122 3366 
z
" transform="scale(0.015625)"/>
      </defs>
      <use xlink:href="#DejaVuSans-49"/>
      <use xlink:href="#DejaVuSans-6e" x="29.492188"/>
      <use xlink:href="#DejaVuSans-61" x="92.871094"/>
      <use xlink:href="#DejaVuSans-63" x="154.150391"/>
      <use xlink:href="#DejaVuSans-74" x="209.130859"/>
      <use xlink:href="#DejaVuSans-69" x="248.339844"/>
      <use xlink:href="#DejaVuSans-76" x="276.123047"/>
      <use xlink:href="#DejaVuSans-65" x="335.302734"/>
     </g>
    </g>
   </g>
  </g>
 </g>
 <defs>
  <clipPath id="pf821fdbb1c">
   <rect x="49.235" y="26.877187" width="1116" height="332.64"/>
  </clipPath>
 </defs>
</svg>
