<?xml version="1.0" encoding="utf-8" standalone="no"?>
<!DOCTYPE svg PUBLIC "-//W3C//DTD SVG 1.1//EN"
  "http://www.w3.org/Graphics/SVG/1.1/DTD/svg11.dtd">
<svg xmlns:xlink="http://www.w3.org/1999/xlink" width="1172.435pt" height="399.009062pt" viewBox="0 0 1172.435 399.009062" xmlns="http://www.w3.org/2000/svg" version="1.1">
 <metadata>
  <rdf:RDF xmlns:dc="http://purl.org/dc/elements/1.1/" xmlns:cc="http://creativecommons.org/ns#" xmlns:rdf="http://www.w3.org/1999/02/22-rdf-syntax-ns#">
   <cc:Work>
    <dc:type rdf:resource="http://purl.org/dc/dcmitype/StillImage"/>
    <dc:date>2025-05-09T15:21:40.904173</dc:date>
    <dc:format>image/svg+xml</dc:format>
    <dc:creator>
     <cc:Agent>
      <dc:title>Matplotlib v3.8.3, https://matplotlib.org/</dc:title>
     </cc:Agent>
    </dc:creator>
   </cc:Work>
  </rdf:RDF>
 </metadata>
 <defs>
  <style type="text/css">*{stroke-linejoin: round; stroke-linecap: butt}</style>
 </defs>
 <g id="figure_1">
  <g id="patch_1">
   <path d="M 0 399.009062 
L 1172.435 399.009062 
L 1172.435 0 
L 0 0 
z
" style="fill: #ffffff"/>
  </g>
  <g id="axes_1">
   <g id="patch_2">
    <path d="M 49.235 359.517187 
L 1165.235 359.517187 
L 1165.235 26.877187 
L 49.235 26.877187 
z
" style="fill: #ffffff"/>
   </g>
   <g id="patch_3">
    <path d="M 117.244634 359.517187 
L 117.244634 26.877187 
L 117.165664 26.877187 
L 117.165664 359.517187 
z
" clip-path="url(#pb23a52bd8c)" style="fill: #add8e6; stroke: #add8e6; stroke-linejoin: miter"/>
   </g>
   <g id="patch_4">
    <path d="M 120.541293 359.517187 
L 120.541293 26.877187 
L 120.423953 26.877187 
L 120.423953 359.517187 
z
" clip-path="url(#pb23a52bd8c)" style="fill: #add8e6; stroke: #add8e6; stroke-linejoin: miter"/>
   </g>
   <g id="patch_5">
    <path d="M 138.588814 359.517187 
L 138.588814 26.877187 
L 130.949257 26.877187 
L 130.949257 359.517187 
z
" clip-path="url(#pb23a52bd8c)" style="fill: #add8e6; stroke: #add8e6; stroke-linejoin: miter"/>
   </g>
   <g id="patch_6">
    <path d="M 141.482146 359.517187 
L 141.482146 26.877187 
L 137.665714 26.877187 
L 137.665714 359.517187 
z
" clip-path="url(#pb23a52bd8c)" style="fill: #add8e6; stroke: #add8e6; stroke-linejoin: miter"/>
   </g>
   <g id="patch_7">
    <path d="M 144.639157 359.517187 
L 144.639157 26.877187 
L 140.616154 26.877187 
L 140.616154 359.517187 
z
" clip-path="url(#pb23a52bd8c)" style="fill: #add8e6; stroke: #add8e6; stroke-linejoin: miter"/>
   </g>
   <g id="patch_8">
    <path d="M 148.915132 359.517187 
L 148.915132 26.877187 
L 143.237776 26.877187 
L 143.237776 359.517187 
z
" clip-path="url(#pb23a52bd8c)" style="fill: #add8e6; stroke: #add8e6; stroke-linejoin: miter"/>
   </g>
   <g id="patch_9">
    <path d="M 149.237258 359.517187 
L 149.237258 26.877187 
L 146.923484 26.877187 
L 146.923484 359.517187 
z
" clip-path="url(#pb23a52bd8c)" style="fill: #add8e6; stroke: #add8e6; stroke-linejoin: miter"/>
   </g>
   <g id="patch_10">
    <path d="M 173.547494 359.517187 
L 173.547494 26.877187 
L 169.122503 26.877187 
L 169.122503 359.517187 
z
" clip-path="url(#pb23a52bd8c)" style="fill: #add8e6; stroke: #add8e6; stroke-linejoin: miter"/>
   </g>
   <g id="patch_11">
    <path d="M 176.973538 359.517187 
L 176.973538 26.877187 
L 176.571996 26.877187 
L 176.571996 359.517187 
z
" clip-path="url(#pb23a52bd8c)" style="fill: #add8e6; stroke: #add8e6; stroke-linejoin: miter"/>
   </g>
   <g id="patch_12">
    <path d="M 198.663936 359.517187 
L 198.663936 26.877187 
L 198.771014 26.877187 
L 198.771014 359.517187 
z
" clip-path="url(#pb23a52bd8c)" style="fill: #add8e6; stroke: #add8e6; stroke-linejoin: miter"/>
   </g>
   <g id="patch_13">
    <path d="M 222.353567 359.517187 
L 222.353567 26.877187 
L 222.426291 26.877187 
L 222.426291 359.517187 
z
" clip-path="url(#pb23a52bd8c)" style="fill: #add8e6; stroke: #add8e6; stroke-linejoin: miter"/>
   </g>
   <g id="patch_14">
    <path d="M 246.931944 359.517187 
L 246.931944 26.877187 
L 245.77238 26.877187 
L 245.77238 359.517187 
z
" clip-path="url(#pb23a52bd8c)" style="fill: #add8e6; stroke: #add8e6; stroke-linejoin: miter"/>
   </g>
   <g id="patch_15">
    <path d="M 286.452139 359.517187 
L 286.452139 26.877187 
L 285.25956 26.877187 
L 285.25956 359.517187 
z
" clip-path="url(#pb23a52bd8c)" style="fill: #add8e6; stroke: #add8e6; stroke-linejoin: miter"/>
   </g>
   <g id="patch_16">
    <path d="M 290.075831 359.517187 
L 290.075831 26.877187 
L 290.165063 26.877187 
L 290.165063 359.517187 
z
" clip-path="url(#pb23a52bd8c)" style="fill: #add8e6; stroke: #add8e6; stroke-linejoin: miter"/>
   </g>
   <g id="patch_17">
    <path d="M 294.071172 359.517187 
L 294.071172 26.877187 
L 294.202789 26.877187 
L 294.202789 359.517187 
z
" clip-path="url(#pb23a52bd8c)" style="fill: #add8e6; stroke: #add8e6; stroke-linejoin: miter"/>
   </g>
   <g id="patch_18">
    <path d="M 302.549506 359.517187 
L 302.549506 26.877187 
L 296.433577 26.877187 
L 296.433577 359.517187 
z
" clip-path="url(#pb23a52bd8c)" style="fill: #add8e6; stroke: #add8e6; stroke-linejoin: miter"/>
   </g>
   <g id="patch_19">
    <path d="M 305.228682 359.517187 
L 305.228682 26.877187 
L 298.949906 26.877187 
L 298.949906 359.517187 
z
" clip-path="url(#pb23a52bd8c)" style="fill: #add8e6; stroke: #add8e6; stroke-linejoin: miter"/>
   </g>
   <g id="patch_20">
    <path d="M 312.231126 359.517187 
L 312.231126 26.877187 
L 308.39997 26.877187 
L 308.39997 359.517187 
z
" clip-path="url(#pb23a52bd8c)" style="fill: #add8e6; stroke: #add8e6; stroke-linejoin: miter"/>
   </g>
   <g id="patch_21">
    <path d="M 330.971976 359.517187 
L 330.971976 26.877187 
L 323.415851 26.877187 
L 323.415851 359.517187 
z
" clip-path="url(#pb23a52bd8c)" style="fill: #add8e6; stroke: #add8e6; stroke-linejoin: miter"/>
   </g>
   <g id="patch_22">
    <path d="M 331.91783 359.517187 
L 331.91783 26.877187 
L 331.755429 26.877187 
L 331.755429 359.517187 
z
" clip-path="url(#pb23a52bd8c)" style="fill: #add8e6; stroke: #add8e6; stroke-linejoin: miter"/>
   </g>
   <g id="patch_23">
    <path d="M 333.482059 359.517187 
L 333.482059 26.877187 
L 331.869645 26.877187 
L 331.869645 359.517187 
z
" clip-path="url(#pb23a52bd8c)" style="fill: #add8e6; stroke: #add8e6; stroke-linejoin: miter"/>
   </g>
   <g id="patch_24">
    <path d="M 333.946063 359.517187 
L 333.946063 26.877187 
L 332.903839 26.877187 
L 332.903839 359.517187 
z
" clip-path="url(#pb23a52bd8c)" style="fill: #add8e6; stroke: #add8e6; stroke-linejoin: miter"/>
   </g>
   <g id="patch_25">
    <path d="M 346.745879 359.517187 
L 346.745879 26.877187 
L 343.059724 26.877187 
L 343.059724 359.517187 
z
" clip-path="url(#pb23a52bd8c)" style="fill: #add8e6; stroke: #add8e6; stroke-linejoin: miter"/>
   </g>
   <g id="patch_26">
    <path d="M 358.18536 359.517187 
L 358.18536 26.877187 
L 358.229529 26.877187 
L 358.229529 359.517187 
z
" clip-path="url(#pb23a52bd8c)" style="fill: #add8e6; stroke: #add8e6; stroke-linejoin: miter"/>
   </g>
   <g id="patch_27">
    <path d="M 368.516139 359.517187 
L 368.516139 26.877187 
L 361.136692 26.877187 
L 361.136692 359.517187 
z
" clip-path="url(#pb23a52bd8c)" style="fill: #add8e6; stroke: #add8e6; stroke-linejoin: miter"/>
   </g>
   <g id="patch_28">
    <path d="M 377.303659 359.517187 
L 377.303659 26.877187 
L 375.560076 26.877187 
L 375.560076 359.517187 
z
" clip-path="url(#pb23a52bd8c)" style="fill: #add8e6; stroke: #add8e6; stroke-linejoin: miter"/>
   </g>
   <g id="patch_29">
    <path d="M 377.667278 359.517187 
L 377.667278 26.877187 
L 375.732739 26.877187 
L 375.732739 359.517187 
z
" clip-path="url(#pb23a52bd8c)" style="fill: #add8e6; stroke: #add8e6; stroke-linejoin: miter"/>
   </g>
   <g id="patch_30">
    <path d="M 380.872028 359.517187 
L 380.872028 26.877187 
L 380.795289 26.877187 
L 380.795289 359.517187 
z
" clip-path="url(#pb23a52bd8c)" style="fill: #add8e6; stroke: #add8e6; stroke-linejoin: miter"/>
   </g>
   <g id="patch_31">
    <path d="M 394.909931 359.517187 
L 394.909931 26.877187 
L 395.037978 26.877187 
L 395.037978 359.517187 
z
" clip-path="url(#pb23a52bd8c)" style="fill: #add8e6; stroke: #add8e6; stroke-linejoin: miter"/>
   </g>
   <g id="patch_32">
    <path d="M 405.991594 359.517187 
L 405.991594 26.877187 
L 406.057625 26.877187 
L 406.057625 359.517187 
z
" clip-path="url(#pb23a52bd8c)" style="fill: #add8e6; stroke: #add8e6; stroke-linejoin: miter"/>
   </g>
   <g id="patch_33">
    <path d="M 425.022001 359.517187 
L 425.022001 26.877187 
L 424.514273 26.877187 
L 424.514273 359.517187 
z
" clip-path="url(#pb23a52bd8c)" style="fill: #add8e6; stroke: #add8e6; stroke-linejoin: miter"/>
   </g>
   <g id="patch_34">
    <path d="M 437.187826 359.517187 
L 437.187826 26.877187 
L 437.186934 26.877187 
L 437.186934 359.517187 
z
" clip-path="url(#pb23a52bd8c)" style="fill: #add8e6; stroke: #add8e6; stroke-linejoin: miter"/>
   </g>
   <g id="patch_35">
    <path d="M 437.328812 359.517187 
L 437.328812 26.877187 
L 437.336843 26.877187 
L 437.336843 359.517187 
z
" clip-path="url(#pb23a52bd8c)" style="fill: #add8e6; stroke: #add8e6; stroke-linejoin: miter"/>
   </g>
   <g id="patch_36">
    <path d="M 437.584461 359.517187 
L 437.584461 26.877187 
L 437.435444 26.877187 
L 437.435444 359.517187 
z
" clip-path="url(#pb23a52bd8c)" style="fill: #add8e6; stroke: #add8e6; stroke-linejoin: miter"/>
   </g>
   <g id="patch_37">
    <path d="M 458.85904 359.517187 
L 458.85904 26.877187 
L 458.951395 26.877187 
L 458.951395 359.517187 
z
" clip-path="url(#pb23a52bd8c)" style="fill: #add8e6; stroke: #add8e6; stroke-linejoin: miter"/>
   </g>
   <g id="patch_38">
    <path d="M 459.088365 359.517187 
L 459.088365 26.877187 
L 459.068288 26.877187 
L 459.068288 359.517187 
z
" clip-path="url(#pb23a52bd8c)" style="fill: #add8e6; stroke: #add8e6; stroke-linejoin: miter"/>
   </g>
   <g id="patch_39">
    <path d="M 471.516978 359.517187 
L 471.516978 26.877187 
L 471.485747 26.877187 
L 471.485747 359.517187 
z
" clip-path="url(#pb23a52bd8c)" style="fill: #add8e6; stroke: #add8e6; stroke-linejoin: miter"/>
   </g>
   <g id="patch_40">
    <path d="M 471.668671 359.517187 
L 471.668671 26.877187 
L 471.703918 26.877187 
L 471.703918 359.517187 
z
" clip-path="url(#pb23a52bd8c)" style="fill: #add8e6; stroke: #add8e6; stroke-linejoin: miter"/>
   </g>
   <g id="patch_41">
    <path d="M 478.131264 359.517187 
L 478.131264 26.877187 
L 478.116541 26.877187 
L 478.116541 359.517187 
z
" clip-path="url(#pb23a52bd8c)" style="fill: #add8e6; stroke: #add8e6; stroke-linejoin: miter"/>
   </g>
   <g id="patch_42">
    <path d="M 483.751512 359.517187 
L 483.751512 26.877187 
L 483.643542 26.877187 
L 483.643542 359.517187 
z
" clip-path="url(#pb23a52bd8c)" style="fill: #add8e6; stroke: #add8e6; stroke-linejoin: miter"/>
   </g>
   <g id="patch_43">
    <path d="M 489.18705 359.517187 
L 489.18705 26.877187 
L 489.204896 26.877187 
L 489.204896 359.517187 
z
" clip-path="url(#pb23a52bd8c)" style="fill: #add8e6; stroke: #add8e6; stroke-linejoin: miter"/>
   </g>
   <g id="patch_44">
    <path d="M 503.449816 359.517187 
L 503.449816 26.877187 
L 495.730844 26.877187 
L 495.730844 359.517187 
z
" clip-path="url(#pb23a52bd8c)" style="fill: #add8e6; stroke: #add8e6; stroke-linejoin: miter"/>
   </g>
   <g id="patch_45">
    <path d="M 505.391048 359.517187 
L 505.391048 26.877187 
L 498.749992 26.877187 
L 498.749992 359.517187 
z
" clip-path="url(#pb23a52bd8c)" style="fill: #add8e6; stroke: #add8e6; stroke-linejoin: miter"/>
   </g>
   <g id="patch_46">
    <path d="M 514.059444 359.517187 
L 514.059444 26.877187 
L 513.167575 26.877187 
L 513.167575 359.517187 
z
" clip-path="url(#pb23a52bd8c)" style="fill: #add8e6; stroke: #add8e6; stroke-linejoin: miter"/>
   </g>
   <g id="patch_47">
    <path d="M 522.241975 359.517187 
L 522.241975 26.877187 
L 516.75959 26.877187 
L 516.75959 359.517187 
z
" clip-path="url(#pb23a52bd8c)" style="fill: #add8e6; stroke: #add8e6; stroke-linejoin: miter"/>
   </g>
   <g id="patch_48">
    <path d="M 523.553678 359.517187 
L 523.553678 26.877187 
L 518.637914 26.877187 
L 518.637914 359.517187 
z
" clip-path="url(#pb23a52bd8c)" style="fill: #add8e6; stroke: #add8e6; stroke-linejoin: miter"/>
   </g>
   <g id="patch_49">
    <path d="M 524.933198 359.517187 
L 524.933198 26.877187 
L 521.676247 26.877187 
L 521.676247 359.517187 
z
" clip-path="url(#pb23a52bd8c)" style="fill: #add8e6; stroke: #add8e6; stroke-linejoin: miter"/>
   </g>
   <g id="patch_50">
    <path d="M 528.125902 359.517187 
L 528.125902 26.877187 
L 526.696859 26.877187 
L 526.696859 359.517187 
z
" clip-path="url(#pb23a52bd8c)" style="fill: #add8e6; stroke: #add8e6; stroke-linejoin: miter"/>
   </g>
   <g id="patch_51">
    <path d="M 536.632343 359.517187 
L 536.632343 26.877187 
L 536.742544 26.877187 
L 536.742544 359.517187 
z
" clip-path="url(#pb23a52bd8c)" style="fill: #add8e6; stroke: #add8e6; stroke-linejoin: miter"/>
   </g>
   <g id="patch_52">
    <path d="M 548.391273 359.517187 
L 548.391273 26.877187 
L 548.49255 26.877187 
L 548.49255 359.517187 
z
" clip-path="url(#pb23a52bd8c)" style="fill: #add8e6; stroke: #add8e6; stroke-linejoin: miter"/>
   </g>
   <g id="patch_53">
    <path d="M 553.423038 359.517187 
L 553.423038 26.877187 
L 553.428392 26.877187 
L 553.428392 359.517187 
z
" clip-path="url(#pb23a52bd8c)" style="fill: #add8e6; stroke: #add8e6; stroke-linejoin: miter"/>
   </g>
   <g id="patch_54">
    <path d="M 562.331467 359.517187 
L 562.331467 26.877187 
L 560.640084 26.877187 
L 560.640084 359.517187 
z
" clip-path="url(#pb23a52bd8c)" style="fill: #add8e6; stroke: #add8e6; stroke-linejoin: miter"/>
   </g>
   <g id="patch_55">
    <path d="M 562.494315 359.517187 
L 562.494315 26.877187 
L 562.596039 26.877187 
L 562.596039 359.517187 
z
" clip-path="url(#pb23a52bd8c)" style="fill: #add8e6; stroke: #add8e6; stroke-linejoin: miter"/>
   </g>
   <g id="patch_56">
    <path d="M 574.681556 359.517187 
L 574.681556 26.877187 
L 573.343083 26.877187 
L 573.343083 359.517187 
z
" clip-path="url(#pb23a52bd8c)" style="fill: #add8e6; stroke: #add8e6; stroke-linejoin: miter"/>
   </g>
   <g id="patch_57">
    <path d="M 591.134064 359.517187 
L 591.134064 26.877187 
L 591.256757 26.877187 
L 591.256757 359.517187 
z
" clip-path="url(#pb23a52bd8c)" style="fill: #add8e6; stroke: #add8e6; stroke-linejoin: miter"/>
   </g>
   <g id="patch_58">
    <path d="M 591.26925 359.517187 
L 591.26925 26.877187 
L 591.289327 26.877187 
L 591.289327 359.517187 
z
" clip-path="url(#pb23a52bd8c)" style="fill: #add8e6; stroke: #add8e6; stroke-linejoin: miter"/>
   </g>
   <g id="patch_59">
    <path d="M 591.416482 359.517187 
L 591.416482 26.877187 
L 591.478498 26.877187 
L 591.478498 359.517187 
z
" clip-path="url(#pb23a52bd8c)" style="fill: #add8e6; stroke: #add8e6; stroke-linejoin: miter"/>
   </g>
   <g id="patch_60">
    <path d="M 602.503499 359.517187 
L 602.503499 26.877187 
L 595.376131 26.877187 
L 595.376131 359.517187 
z
" clip-path="url(#pb23a52bd8c)" style="fill: #add8e6; stroke: #add8e6; stroke-linejoin: miter"/>
   </g>
   <g id="patch_61">
    <path d="M 610.426365 359.517187 
L 610.426365 26.877187 
L 609.62462 26.877187 
L 609.62462 359.517187 
z
" clip-path="url(#pb23a52bd8c)" style="fill: #add8e6; stroke: #add8e6; stroke-linejoin: miter"/>
   </g>
   <g id="patch_62">
    <path d="M 619.827352 359.517187 
L 619.827352 26.877187 
L 619.863045 26.877187 
L 619.863045 359.517187 
z
" clip-path="url(#pb23a52bd8c)" style="fill: #add8e6; stroke: #add8e6; stroke-linejoin: miter"/>
   </g>
   <g id="patch_63">
    <path d="M 631.998532 359.517187 
L 631.998532 26.877187 
L 632.107395 26.877187 
L 632.107395 359.517187 
z
" clip-path="url(#pb23a52bd8c)" style="fill: #add8e6; stroke: #add8e6; stroke-linejoin: miter"/>
   </g>
   <g id="patch_64">
    <path d="M 666.583778 359.517187 
L 666.583778 26.877187 
L 666.597163 26.877187 
L 666.597163 359.517187 
z
" clip-path="url(#pb23a52bd8c)" style="fill: #add8e6; stroke: #add8e6; stroke-linejoin: miter"/>
   </g>
   <g id="patch_65">
    <path d="M 674.524491 359.517187 
L 674.524491 26.877187 
L 666.964796 26.877187 
L 666.964796 359.517187 
z
" clip-path="url(#pb23a52bd8c)" style="fill: #add8e6; stroke: #add8e6; stroke-linejoin: miter"/>
   </g>
   <g id="patch_66">
    <path d="M 679.840459 359.517187 
L 679.840459 26.877187 
L 672.169671 26.877187 
L 672.169671 359.517187 
z
" clip-path="url(#pb23a52bd8c)" style="fill: #add8e6; stroke: #add8e6; stroke-linejoin: miter"/>
   </g>
   <g id="patch_67">
    <path d="M 695.6969 359.517187 
L 695.6969 26.877187 
L 689.013906 26.877187 
L 689.013906 359.517187 
z
" clip-path="url(#pb23a52bd8c)" style="fill: #add8e6; stroke: #add8e6; stroke-linejoin: miter"/>
   </g>
   <g id="patch_68">
    <path d="M 699.630672 359.517187 
L 699.630672 26.877187 
L 699.707411 26.877187 
L 699.707411 359.517187 
z
" clip-path="url(#pb23a52bd8c)" style="fill: #add8e6; stroke: #add8e6; stroke-linejoin: miter"/>
   </g>
   <g id="patch_69">
    <path d="M 704.714638 359.517187 
L 704.714638 26.877187 
L 704.813239 26.877187 
L 704.813239 359.517187 
z
" clip-path="url(#pb23a52bd8c)" style="fill: #add8e6; stroke: #add8e6; stroke-linejoin: miter"/>
   </g>
   <g id="patch_70">
    <path d="M 716.196504 359.517187 
L 716.196504 26.877187 
L 716.297336 26.877187 
L 716.297336 359.517187 
z
" clip-path="url(#pb23a52bd8c)" style="fill: #add8e6; stroke: #add8e6; stroke-linejoin: miter"/>
   </g>
   <g id="patch_71">
    <path d="M 716.380321 359.517187 
L 716.380321 26.877187 
L 716.467768 26.877187 
L 716.467768 359.517187 
z
" clip-path="url(#pb23a52bd8c)" style="fill: #add8e6; stroke: #add8e6; stroke-linejoin: miter"/>
   </g>
   <g id="patch_72">
    <path d="M 723.817322 359.517187 
L 723.817322 26.877187 
L 723.858369 26.877187 
L 723.858369 359.517187 
z
" clip-path="url(#pb23a52bd8c)" style="fill: #add8e6; stroke: #add8e6; stroke-linejoin: miter"/>
   </g>
   <g id="patch_73">
    <path d="M 724.041293 359.517187 
L 724.041293 26.877187 
L 724.002924 26.877187 
L 724.002924 359.517187 
z
" clip-path="url(#pb23a52bd8c)" style="fill: #add8e6; stroke: #add8e6; stroke-linejoin: miter"/>
   </g>
   <g id="patch_74">
    <path d="M 725.116979 359.517187 
L 725.116979 26.877187 
L 724.250541 26.877187 
L 724.250541 359.517187 
z
" clip-path="url(#pb23a52bd8c)" style="fill: #add8e6; stroke: #add8e6; stroke-linejoin: miter"/>
   </g>
   <g id="patch_75">
    <path d="M 735.409836 359.517187 
L 735.409836 26.877187 
L 735.507544 26.877187 
L 735.507544 359.517187 
z
" clip-path="url(#pb23a52bd8c)" style="fill: #add8e6; stroke: #add8e6; stroke-linejoin: miter"/>
   </g>
   <g id="patch_76">
    <path d="M 749.22466 359.517187 
L 749.22466 26.877187 
L 743.500904 26.877187 
L 743.500904 359.517187 
z
" clip-path="url(#pb23a52bd8c)" style="fill: #add8e6; stroke: #add8e6; stroke-linejoin: miter"/>
   </g>
   <g id="patch_77">
    <path d="M 751.89179 359.517187 
L 751.89179 26.877187 
L 745.948525 26.877187 
L 745.948525 359.517187 
z
" clip-path="url(#pb23a52bd8c)" style="fill: #add8e6; stroke: #add8e6; stroke-linejoin: miter"/>
   </g>
   <g id="patch_78">
    <path d="M 755.997332 359.517187 
L 755.997332 26.877187 
L 754.402765 26.877187 
L 754.402765 359.517187 
z
" clip-path="url(#pb23a52bd8c)" style="fill: #add8e6; stroke: #add8e6; stroke-linejoin: miter"/>
   </g>
   <g id="patch_79">
    <path d="M 761.483733 359.517187 
L 761.483733 26.877187 
L 761.616241 26.877187 
L 761.616241 359.517187 
z
" clip-path="url(#pb23a52bd8c)" style="fill: #add8e6; stroke: #add8e6; stroke-linejoin: miter"/>
   </g>
   <g id="patch_80">
    <path d="M 761.699227 359.517187 
L 761.699227 26.877187 
L 761.73135 26.877187 
L 761.73135 359.517187 
z
" clip-path="url(#pb23a52bd8c)" style="fill: #add8e6; stroke: #add8e6; stroke-linejoin: miter"/>
   </g>
   <g id="patch_81">
    <path d="M 761.837982 359.517187 
L 761.837982 26.877187 
L 761.946398 26.877187 
L 761.946398 359.517187 
z
" clip-path="url(#pb23a52bd8c)" style="fill: #add8e6; stroke: #add8e6; stroke-linejoin: miter"/>
   </g>
   <g id="patch_82">
    <path d="M 774.84303 359.517187 
L 774.84303 26.877187 
L 769.345922 26.877187 
L 769.345922 359.517187 
z
" clip-path="url(#pb23a52bd8c)" style="fill: #add8e6; stroke: #add8e6; stroke-linejoin: miter"/>
   </g>
   <g id="patch_83">
    <path d="M 781.078529 359.517187 
L 781.078529 26.877187 
L 779.800733 26.877187 
L 779.800733 359.517187 
z
" clip-path="url(#pb23a52bd8c)" style="fill: #add8e6; stroke: #add8e6; stroke-linejoin: miter"/>
   </g>
   <g id="patch_84">
    <path d="M 795.975285 359.517187 
L 795.975285 26.877187 
L 793.647681 26.877187 
L 793.647681 359.517187 
z
" clip-path="url(#pb23a52bd8c)" style="fill: #add8e6; stroke: #add8e6; stroke-linejoin: miter"/>
   </g>
   <g id="patch_85">
    <path d="M 812.391654 359.517187 
L 812.391654 26.877187 
L 804.860514 26.877187 
L 804.860514 359.517187 
z
" clip-path="url(#pb23a52bd8c)" style="fill: #add8e6; stroke: #add8e6; stroke-linejoin: miter"/>
   </g>
   <g id="patch_86">
    <path d="M 815.666451 359.517187 
L 815.666451 26.877187 
L 808.862994 26.877187 
L 808.862994 359.517187 
z
" clip-path="url(#pb23a52bd8c)" style="fill: #add8e6; stroke: #add8e6; stroke-linejoin: miter"/>
   </g>
   <g id="patch_87">
    <path d="M 827.668091 359.517187 
L 827.668091 26.877187 
L 820.347983 26.877187 
L 820.347983 359.517187 
z
" clip-path="url(#pb23a52bd8c)" style="fill: #add8e6; stroke: #add8e6; stroke-linejoin: miter"/>
   </g>
   <g id="patch_88">
    <path d="M 838.987556 359.517187 
L 838.987556 26.877187 
L 838.901447 26.877187 
L 838.901447 359.517187 
z
" clip-path="url(#pb23a52bd8c)" style="fill: #add8e6; stroke: #add8e6; stroke-linejoin: miter"/>
   </g>
   <g id="patch_89">
    <path d="M 854.061883 359.517187 
L 854.061883 26.877187 
L 854.175207 26.877187 
L 854.175207 359.517187 
z
" clip-path="url(#pb23a52bd8c)" style="fill: #add8e6; stroke: #add8e6; stroke-linejoin: miter"/>
   </g>
   <g id="patch_90">
    <path d="M 868.057401 359.517187 
L 868.057401 26.877187 
L 867.296256 26.877187 
L 867.296256 359.517187 
z
" clip-path="url(#pb23a52bd8c)" style="fill: #add8e6; stroke: #add8e6; stroke-linejoin: miter"/>
   </g>
   <g id="patch_91">
    <path d="M 872.455177 359.517187 
L 872.455177 26.877187 
L 872.530577 26.877187 
L 872.530577 359.517187 
z
" clip-path="url(#pb23a52bd8c)" style="fill: #add8e6; stroke: #add8e6; stroke-linejoin: miter"/>
   </g>
   <g id="patch_92">
    <path d="M 872.925873 359.517187 
L 872.925873 26.877187 
L 872.596163 26.877187 
L 872.596163 359.517187 
z
" clip-path="url(#pb23a52bd8c)" style="fill: #add8e6; stroke: #add8e6; stroke-linejoin: miter"/>
   </g>
   <g id="patch_93">
    <path d="M 882.984943 359.517187 
L 882.984943 26.877187 
L 875.336016 26.877187 
L 875.336016 359.517187 
z
" clip-path="url(#pb23a52bd8c)" style="fill: #add8e6; stroke: #add8e6; stroke-linejoin: miter"/>
   </g>
   <g id="patch_94">
    <path d="M 885.583811 359.517187 
L 885.583811 26.877187 
L 878.217302 26.877187 
L 878.217302 359.517187 
z
" clip-path="url(#pb23a52bd8c)" style="fill: #add8e6; stroke: #add8e6; stroke-linejoin: miter"/>
   </g>
   <g id="patch_95">
    <path d="M 887.685213 359.517187 
L 887.685213 26.877187 
L 880.524383 26.877187 
L 880.524383 359.517187 
z
" clip-path="url(#pb23a52bd8c)" style="fill: #add8e6; stroke: #add8e6; stroke-linejoin: miter"/>
   </g>
   <g id="patch_96">
    <path d="M 891.18755 359.517187 
L 891.18755 26.877187 
L 883.654625 26.877187 
L 883.654625 359.517187 
z
" clip-path="url(#pb23a52bd8c)" style="fill: #add8e6; stroke: #add8e6; stroke-linejoin: miter"/>
   </g>
   <g id="patch_97">
    <path d="M 892.548331 359.517187 
L 892.548331 26.877187 
L 884.944021 26.877187 
L 884.944021 359.517187 
z
" clip-path="url(#pb23a52bd8c)" style="fill: #add8e6; stroke: #add8e6; stroke-linejoin: miter"/>
   </g>
   <g id="patch_98">
    <path d="M 895.733896 359.517187 
L 895.733896 26.877187 
L 888.619913 26.877187 
L 888.619913 359.517187 
z
" clip-path="url(#pb23a52bd8c)" style="fill: #add8e6; stroke: #add8e6; stroke-linejoin: miter"/>
   </g>
   <g id="patch_99">
    <path d="M 901.520561 359.517187 
L 901.520561 26.877187 
L 893.818988 26.877187 
L 893.818988 359.517187 
z
" clip-path="url(#pb23a52bd8c)" style="fill: #add8e6; stroke: #add8e6; stroke-linejoin: miter"/>
   </g>
   <g id="patch_100">
    <path d="M 902.502107 359.517187 
L 902.502107 26.877187 
L 901.431329 26.877187 
L 901.431329 359.517187 
z
" clip-path="url(#pb23a52bd8c)" style="fill: #add8e6; stroke: #add8e6; stroke-linejoin: miter"/>
   </g>
   <g id="patch_101">
    <path d="M 909.41755 359.517187 
L 909.41755 26.877187 
L 905.983921 26.877187 
L 905.983921 359.517187 
z
" clip-path="url(#pb23a52bd8c)" style="fill: #add8e6; stroke: #add8e6; stroke-linejoin: miter"/>
   </g>
   <g id="patch_102">
    <path d="M 911.763001 359.517187 
L 911.763001 26.877187 
L 907.96843 26.877187 
L 907.96843 359.517187 
z
" clip-path="url(#pb23a52bd8c)" style="fill: #add8e6; stroke: #add8e6; stroke-linejoin: miter"/>
   </g>
   <g id="patch_103">
    <path d="M 916.793428 359.517187 
L 916.793428 26.877187 
L 916.886229 26.877187 
L 916.886229 359.517187 
z
" clip-path="url(#pb23a52bd8c)" style="fill: #add8e6; stroke: #add8e6; stroke-linejoin: miter"/>
   </g>
   <g id="patch_104">
    <path d="M 919.809007 359.517187 
L 919.809007 26.877187 
L 918.723952 26.877187 
L 918.723952 359.517187 
z
" clip-path="url(#pb23a52bd8c)" style="fill: #add8e6; stroke: #add8e6; stroke-linejoin: miter"/>
   </g>
   <g id="patch_105">
    <path d="M 926.987237 359.517187 
L 926.987237 26.877187 
L 919.452973 26.877187 
L 919.452973 359.517187 
z
" clip-path="url(#pb23a52bd8c)" style="fill: #add8e6; stroke: #add8e6; stroke-linejoin: miter"/>
   </g>
   <g id="patch_106">
    <path d="M 927.625242 359.517187 
L 927.625242 26.877187 
L 926.471479 26.877187 
L 926.471479 359.517187 
z
" clip-path="url(#pb23a52bd8c)" style="fill: #add8e6; stroke: #add8e6; stroke-linejoin: miter"/>
   </g>
   <g id="patch_107">
    <path d="M 934.342145 359.517187 
L 934.342145 26.877187 
L 929.365703 26.877187 
L 929.365703 359.517187 
z
" clip-path="url(#pb23a52bd8c)" style="fill: #add8e6; stroke: #add8e6; stroke-linejoin: miter"/>
   </g>
   <g id="patch_108">
    <path d="M 936.920936 359.517187 
L 936.920936 26.877187 
L 931.914602 26.877187 
L 931.914602 359.517187 
z
" clip-path="url(#pb23a52bd8c)" style="fill: #add8e6; stroke: #add8e6; stroke-linejoin: miter"/>
   </g>
   <g id="patch_109">
    <path d="M 946.625757 359.517187 
L 946.625757 26.877187 
L 946.649403 26.877187 
L 946.649403 359.517187 
z
" clip-path="url(#pb23a52bd8c)" style="fill: #add8e6; stroke: #add8e6; stroke-linejoin: miter"/>
   </g>
   <g id="patch_110">
    <path d="M 946.806897 359.517187 
L 946.806897 26.877187 
L 946.909513 26.877187 
L 946.909513 359.517187 
z
" clip-path="url(#pb23a52bd8c)" style="fill: #add8e6; stroke: #add8e6; stroke-linejoin: miter"/>
   </g>
   <g id="patch_111">
    <path d="M 952.967887 359.517187 
L 952.967887 26.877187 
L 953.07898 26.877187 
L 953.07898 359.517187 
z
" clip-path="url(#pb23a52bd8c)" style="fill: #add8e6; stroke: #add8e6; stroke-linejoin: miter"/>
   </g>
   <g id="patch_112">
    <path d="M 962.870355 359.517187 
L 962.870355 26.877187 
L 962.913186 26.877187 
L 962.913186 359.517187 
z
" clip-path="url(#pb23a52bd8c)" style="fill: #add8e6; stroke: #add8e6; stroke-linejoin: miter"/>
   </g>
   <g id="patch_113">
    <path d="M 973.275643 359.517187 
L 973.275643 26.877187 
L 973.375582 26.877187 
L 973.375582 359.517187 
z
" clip-path="url(#pb23a52bd8c)" style="fill: #add8e6; stroke: #add8e6; stroke-linejoin: miter"/>
   </g>
   <g id="patch_114">
    <path d="M 978.105299 359.517187 
L 978.105299 26.877187 
L 978.193638 26.877187 
L 978.193638 359.517187 
z
" clip-path="url(#pb23a52bd8c)" style="fill: #add8e6; stroke: #add8e6; stroke-linejoin: miter"/>
   </g>
   <g id="patch_115">
    <path d="M 990.64902 359.517187 
L 990.64902 26.877187 
L 990.694082 26.877187 
L 990.694082 359.517187 
z
" clip-path="url(#pb23a52bd8c)" style="fill: #add8e6; stroke: #add8e6; stroke-linejoin: miter"/>
   </g>
   <g id="patch_116">
    <path d="M 994.548438 359.517187 
L 994.548438 26.877187 
L 994.365513 26.877187 
L 994.365513 359.517187 
z
" clip-path="url(#pb23a52bd8c)" style="fill: #add8e6; stroke: #add8e6; stroke-linejoin: miter"/>
   </g>
   <g id="patch_117">
    <path d="M 1005.506515 359.517187 
L 1005.506515 26.877187 
L 998.032929 26.877187 
L 998.032929 359.517187 
z
" clip-path="url(#pb23a52bd8c)" style="fill: #add8e6; stroke: #add8e6; stroke-linejoin: miter"/>
   </g>
   <g id="patch_118">
    <path d="M 1017.204768 359.517187 
L 1017.204768 26.877187 
L 1013.200949 26.877187 
L 1013.200949 359.517187 
z
" clip-path="url(#pb23a52bd8c)" style="fill: #add8e6; stroke: #add8e6; stroke-linejoin: miter"/>
   </g>
   <g id="patch_119">
    <path d="M 1024.220596 359.517187 
L 1024.220596 26.877187 
L 1023.985917 26.877187 
L 1023.985917 359.517187 
z
" clip-path="url(#pb23a52bd8c)" style="fill: #add8e6; stroke: #add8e6; stroke-linejoin: miter"/>
   </g>
   <g id="patch_120">
    <path d="M 1034.924809 359.517187 
L 1034.924809 26.877187 
L 1034.998872 26.877187 
L 1034.998872 359.517187 
z
" clip-path="url(#pb23a52bd8c)" style="fill: #add8e6; stroke: #add8e6; stroke-linejoin: miter"/>
   </g>
   <g id="patch_121">
    <path d="M 1035.066688 359.517187 
L 1035.066688 26.877187 
L 1035.18135 26.877187 
L 1035.18135 359.517187 
z
" clip-path="url(#pb23a52bd8c)" style="fill: #add8e6; stroke: #add8e6; stroke-linejoin: miter"/>
   </g>
   <g id="patch_122">
    <path d="M 1062.369303 359.517187 
L 1062.369303 26.877187 
L 1055.978541 26.877187 
L 1055.978541 359.517187 
z
" clip-path="url(#pb23a52bd8c)" style="fill: #add8e6; stroke: #add8e6; stroke-linejoin: miter"/>
   </g>
   <g id="patch_123">
    <path d="M 1064.691553 359.517187 
L 1064.691553 26.877187 
L 1059.955144 26.877187 
L 1059.955144 359.517187 
z
" clip-path="url(#pb23a52bd8c)" style="fill: #add8e6; stroke: #add8e6; stroke-linejoin: miter"/>
   </g>
   <g id="patch_124">
    <path d="M 1068.546355 359.517187 
L 1068.546355 26.877187 
L 1062.590597 26.877187 
L 1062.590597 359.517187 
z
" clip-path="url(#pb23a52bd8c)" style="fill: #add8e6; stroke: #add8e6; stroke-linejoin: miter"/>
   </g>
   <g id="patch_125">
    <path d="M 1069.07059 359.517187 
L 1069.07059 26.877187 
L 1065.381313 26.877187 
L 1065.381313 359.517187 
z
" clip-path="url(#pb23a52bd8c)" style="fill: #add8e6; stroke: #add8e6; stroke-linejoin: miter"/>
   </g>
   <g id="patch_126">
    <path d="M 1072.253925 359.517187 
L 1072.253925 26.877187 
L 1067.674563 26.877187 
L 1067.674563 359.517187 
z
" clip-path="url(#pb23a52bd8c)" style="fill: #add8e6; stroke: #add8e6; stroke-linejoin: miter"/>
   </g>
   <g id="patch_127">
    <path d="M 1074.101017 359.517187 
L 1074.101017 26.877187 
L 1068.132767 26.877187 
L 1068.132767 359.517187 
z
" clip-path="url(#pb23a52bd8c)" style="fill: #add8e6; stroke: #add8e6; stroke-linejoin: miter"/>
   </g>
   <g id="patch_128">
    <path d="M 1079.94122 359.517187 
L 1079.94122 26.877187 
L 1072.322633 26.877187 
L 1072.322633 359.517187 
z
" clip-path="url(#pb23a52bd8c)" style="fill: #add8e6; stroke: #add8e6; stroke-linejoin: miter"/>
   </g>
   <g id="patch_129">
    <path d="M 1084.353719 359.517187 
L 1084.353719 26.877187 
L 1077.309783 26.877187 
L 1077.309783 359.517187 
z
" clip-path="url(#pb23a52bd8c)" style="fill: #add8e6; stroke: #add8e6; stroke-linejoin: miter"/>
   </g>
   <g id="patch_130">
    <path d="M 1087.185035 359.517187 
L 1087.185035 26.877187 
L 1087.290774 26.877187 
L 1087.290774 359.517187 
z
" clip-path="url(#pb23a52bd8c)" style="fill: #add8e6; stroke: #add8e6; stroke-linejoin: miter"/>
   </g>
   <g id="patch_131">
    <path d="M 1099.967005 359.517187 
L 1099.967005 26.877187 
L 1092.569265 26.877187 
L 1092.569265 359.517187 
z
" clip-path="url(#pb23a52bd8c)" style="fill: #add8e6; stroke: #add8e6; stroke-linejoin: miter"/>
   </g>
   <g id="patch_132">
    <path d="M 1114.302495 359.517187 
L 1114.302495 26.877187 
L 1114.406449 26.877187 
L 1114.406449 359.517187 
z
" clip-path="url(#pb23a52bd8c)" style="fill: #add8e6; stroke: #add8e6; stroke-linejoin: miter"/>
   </g>
   <g id="patch_133">
    <path d="M 1114.507727 359.517187 
L 1114.507727 26.877187 
L 1114.447942 26.877187 
L 1114.447942 359.517187 
z
" clip-path="url(#pb23a52bd8c)" style="fill: #add8e6; stroke: #add8e6; stroke-linejoin: miter"/>
   </g>
   <g id="patch_134">
    <path d="M 99.962273 26.877187 
L 99.962273 26.877187 
L 99.962273 359.517187 
" clip-path="url(#pb23a52bd8c)" style="fill: #808080; opacity: 0.4; stroke: #808080; stroke-linejoin: miter"/>
   </g>
   <g id="patch_135">
    <path d="M 190.978425 359.517187 
L 190.978425 26.877187 
L 287.34847 26.877187 
L 287.34847 359.517187 
z
" clip-path="url(#pb23a52bd8c)" style="fill: #808080; opacity: 0.4; stroke: #808080; stroke-linejoin: miter"/>
   </g>
   <g id="patch_136">
    <path d="M 290.025415 26.877187 
L 290.025415 26.877187 
L 290.025415 359.517187 
" clip-path="url(#pb23a52bd8c)" style="fill: #808080; opacity: 0.4; stroke: #808080; stroke-linejoin: miter"/>
   </g>
   <g id="patch_137">
    <path d="M 292.702361 26.877187 
L 292.702361 26.877187 
L 292.702361 359.517187 
" clip-path="url(#pb23a52bd8c)" style="fill: #808080; opacity: 0.4; stroke: #808080; stroke-linejoin: miter"/>
   </g>
   <g id="patch_138">
    <path d="M 383.718514 359.517187 
L 383.718514 26.877187 
L 480.088558 26.877187 
L 480.088558 359.517187 
z
" clip-path="url(#pb23a52bd8c)" style="fill: #808080; opacity: 0.4; stroke: #808080; stroke-linejoin: miter"/>
   </g>
   <g id="patch_139">
    <path d="M 482.765503 26.877187 
L 482.765503 26.877187 
L 482.765503 359.517187 
" clip-path="url(#pb23a52bd8c)" style="fill: #808080; opacity: 0.4; stroke: #808080; stroke-linejoin: miter"/>
   </g>
   <g id="patch_140">
    <path d="M 485.442449 26.877187 
L 485.442449 26.877187 
L 485.442449 359.517187 
" clip-path="url(#pb23a52bd8c)" style="fill: #808080; opacity: 0.4; stroke: #808080; stroke-linejoin: miter"/>
   </g>
   <g id="patch_141">
    <path d="M 576.458602 359.517187 
L 576.458602 26.877187 
L 672.828646 26.877187 
L 672.828646 359.517187 
z
" clip-path="url(#pb23a52bd8c)" style="fill: #808080; opacity: 0.4; stroke: #808080; stroke-linejoin: miter"/>
   </g>
   <g id="patch_142">
    <path d="M 675.505592 26.877187 
L 675.505592 26.877187 
L 675.505592 359.517187 
" clip-path="url(#pb23a52bd8c)" style="fill: #808080; opacity: 0.4; stroke: #808080; stroke-linejoin: miter"/>
   </g>
   <g id="patch_143">
    <path d="M 678.182537 26.877187 
L 678.182537 26.877187 
L 678.182537 359.517187 
" clip-path="url(#pb23a52bd8c)" style="fill: #808080; opacity: 0.4; stroke: #808080; stroke-linejoin: miter"/>
   </g>
   <g id="patch_144">
    <path d="M 769.19869 359.517187 
L 769.19869 26.877187 
L 865.568734 26.877187 
L 865.568734 359.517187 
z
" clip-path="url(#pb23a52bd8c)" style="fill: #808080; opacity: 0.4; stroke: #808080; stroke-linejoin: miter"/>
   </g>
   <g id="patch_145">
    <path d="M 868.24568 26.877187 
L 868.24568 26.877187 
L 868.24568 359.517187 
" clip-path="url(#pb23a52bd8c)" style="fill: #808080; opacity: 0.4; stroke: #808080; stroke-linejoin: miter"/>
   </g>
   <g id="patch_146">
    <path d="M 870.922625 26.877187 
L 870.922625 26.877187 
L 870.922625 359.517187 
" clip-path="url(#pb23a52bd8c)" style="fill: #808080; opacity: 0.4; stroke: #808080; stroke-linejoin: miter"/>
   </g>
   <g id="patch_147">
    <path d="M 961.938778 359.517187 
L 961.938778 26.877187 
L 1058.308822 26.877187 
L 1058.308822 359.517187 
z
" clip-path="url(#pb23a52bd8c)" style="fill: #808080; opacity: 0.4; stroke: #808080; stroke-linejoin: miter"/>
   </g>
   <g id="patch_148">
    <path d="M 1060.985768 26.877187 
L 1060.985768 26.877187 
L 1060.985768 359.517187 
" clip-path="url(#pb23a52bd8c)" style="fill: #808080; opacity: 0.4; stroke: #808080; stroke-linejoin: miter"/>
   </g>
   <g id="patch_149">
    <path d="M 1063.662714 26.877187 
L 1063.662714 26.877187 
L 1063.662714 359.517187 
" clip-path="url(#pb23a52bd8c)" style="fill: #808080; opacity: 0.4; stroke: #808080; stroke-linejoin: miter"/>
   </g>
   <g id="matplotlib.axis_1">
    <g id="xtick_1">
     <g id="line2d_1">
      <defs>
       <path id="m986f58efe3" d="M 0 0 
L 0 3.5 
" style="stroke: #000000; stroke-width: 0.8"/>
      </defs>
      <g>
       <use xlink:href="#m986f58efe3" x="229.252056" y="359.517187" style="stroke: #000000; stroke-width: 0.8"/>
      </g>
     </g>
     <g id="text_1">
      <!-- 2024-10-04 -->
      <g transform="translate(200.194244 374.115625) scale(0.1 -0.1)">
       <defs>
        <path id="DejaVuSans-32" d="M 1228 531 
L 3431 531 
L 3431 0 
L 469 0 
L 469 531 
Q 828 903 1448 1529 
Q 2069 2156 2228 2338 
Q 2531 2678 2651 2914 
Q 2772 3150 2772 3378 
Q 2772 3750 2511 3984 
Q 2250 4219 1831 4219 
Q 1534 4219 1204 4116 
Q 875 4013 500 3803 
L 500 4441 
Q 881 4594 1212 4672 
Q 1544 4750 1819 4750 
Q 2544 4750 2975 4387 
Q 3406 4025 3406 3419 
Q 3406 3131 3298 2873 
Q 3191 2616 2906 2266 
Q 2828 2175 2409 1742 
Q 1991 1309 1228 531 
z
" transform="scale(0.015625)"/>
        <path id="DejaVuSans-30" d="M 2034 4250 
Q 1547 4250 1301 3770 
Q 1056 3291 1056 2328 
Q 1056 1369 1301 889 
Q 1547 409 2034 409 
Q 2525 409 2770 889 
Q 3016 1369 3016 2328 
Q 3016 3291 2770 3770 
Q 2525 4250 2034 4250 
z
M 2034 4750 
Q 2819 4750 3233 4129 
Q 3647 3509 3647 2328 
Q 3647 1150 3233 529 
Q 2819 -91 2034 -91 
Q 1250 -91 836 529 
Q 422 1150 422 2328 
Q 422 3509 836 4129 
Q 1250 4750 2034 4750 
z
" transform="scale(0.015625)"/>
        <path id="DejaVuSans-34" d="M 2419 4116 
L 825 1625 
L 2419 1625 
L 2419 4116 
z
M 2253 4666 
L 3047 4666 
L 3047 1625 
L 3713 1625 
L 3713 1100 
L 3047 1100 
L 3047 0 
L 2419 0 
L 2419 1100 
L 313 1100 
L 313 1709 
L 2253 4666 
z
" transform="scale(0.015625)"/>
        <path id="DejaVuSans-2d" d="M 313 2009 
L 1997 2009 
L 1997 1497 
L 313 1497 
L 313 2009 
z
" transform="scale(0.015625)"/>
        <path id="DejaVuSans-31" d="M 794 531 
L 1825 531 
L 1825 4091 
L 703 3866 
L 703 4441 
L 1819 4666 
L 2450 4666 
L 2450 531 
L 3481 531 
L 3481 0 
L 794 0 
L 794 531 
z
" transform="scale(0.015625)"/>
       </defs>
       <use xlink:href="#DejaVuSans-32"/>
       <use xlink:href="#DejaVuSans-30" x="63.623047"/>
       <use xlink:href="#DejaVuSans-32" x="127.246094"/>
       <use xlink:href="#DejaVuSans-34" x="190.869141"/>
       <use xlink:href="#DejaVuSans-2d" x="254.492188"/>
       <use xlink:href="#DejaVuSans-31" x="290.576172"/>
       <use xlink:href="#DejaVuSans-30" x="354.199219"/>
       <use xlink:href="#DejaVuSans-2d" x="417.822266"/>
       <use xlink:href="#DejaVuSans-30" x="453.90625"/>
       <use xlink:href="#DejaVuSans-34" x="517.529297"/>
      </g>
     </g>
    </g>
    <g id="xtick_2">
     <g id="line2d_2">
      <g>
       <use xlink:href="#m986f58efe3" x="421.992144" y="359.517187" style="stroke: #000000; stroke-width: 0.8"/>
      </g>
     </g>
     <g id="text_2">
      <!-- 2024-10-05 -->
      <g transform="translate(392.934332 374.115625) scale(0.1 -0.1)">
       <defs>
        <path id="DejaVuSans-35" d="M 691 4666 
L 3169 4666 
L 3169 4134 
L 1269 4134 
L 1269 2991 
Q 1406 3038 1543 3061 
Q 1681 3084 1819 3084 
Q 2600 3084 3056 2656 
Q 3513 2228 3513 1497 
Q 3513 744 3044 326 
Q 2575 -91 1722 -91 
Q 1428 -91 1123 -41 
Q 819 9 494 109 
L 494 744 
Q 775 591 1075 516 
Q 1375 441 1709 441 
Q 2250 441 2565 725 
Q 2881 1009 2881 1497 
Q 2881 1984 2565 2268 
Q 2250 2553 1709 2553 
Q 1456 2553 1204 2497 
Q 953 2441 691 2322 
L 691 4666 
z
" transform="scale(0.015625)"/>
       </defs>
       <use xlink:href="#DejaVuSans-32"/>
       <use xlink:href="#DejaVuSans-30" x="63.623047"/>
       <use xlink:href="#DejaVuSans-32" x="127.246094"/>
       <use xlink:href="#DejaVuSans-34" x="190.869141"/>
       <use xlink:href="#DejaVuSans-2d" x="254.492188"/>
       <use xlink:href="#DejaVuSans-31" x="290.576172"/>
       <use xlink:href="#DejaVuSans-30" x="354.199219"/>
       <use xlink:href="#DejaVuSans-2d" x="417.822266"/>
       <use xlink:href="#DejaVuSans-30" x="453.90625"/>
       <use xlink:href="#DejaVuSans-35" x="517.529297"/>
      </g>
     </g>
    </g>
    <g id="xtick_3">
     <g id="line2d_3">
      <g>
       <use xlink:href="#m986f58efe3" x="614.732233" y="359.517187" style="stroke: #000000; stroke-width: 0.8"/>
      </g>
     </g>
     <g id="text_3">
      <!-- 2024-10-06 -->
      <g transform="translate(585.67442 374.115625) scale(0.1 -0.1)">
       <defs>
        <path id="DejaVuSans-36" d="M 2113 2584 
Q 1688 2584 1439 2293 
Q 1191 2003 1191 1497 
Q 1191 994 1439 701 
Q 1688 409 2113 409 
Q 2538 409 2786 701 
Q 3034 994 3034 1497 
Q 3034 2003 2786 2293 
Q 2538 2584 2113 2584 
z
M 3366 4563 
L 3366 3988 
Q 3128 4100 2886 4159 
Q 2644 4219 2406 4219 
Q 1781 4219 1451 3797 
Q 1122 3375 1075 2522 
Q 1259 2794 1537 2939 
Q 1816 3084 2150 3084 
Q 2853 3084 3261 2657 
Q 3669 2231 3669 1497 
Q 3669 778 3244 343 
Q 2819 -91 2113 -91 
Q 1303 -91 875 529 
Q 447 1150 447 2328 
Q 447 3434 972 4092 
Q 1497 4750 2381 4750 
Q 2619 4750 2861 4703 
Q 3103 4656 3366 4563 
z
" transform="scale(0.015625)"/>
       </defs>
       <use xlink:href="#DejaVuSans-32"/>
       <use xlink:href="#DejaVuSans-30" x="63.623047"/>
       <use xlink:href="#DejaVuSans-32" x="127.246094"/>
       <use xlink:href="#DejaVuSans-34" x="190.869141"/>
       <use xlink:href="#DejaVuSans-2d" x="254.492188"/>
       <use xlink:href="#DejaVuSans-31" x="290.576172"/>
       <use xlink:href="#DejaVuSans-30" x="354.199219"/>
       <use xlink:href="#DejaVuSans-2d" x="417.822266"/>
       <use xlink:href="#DejaVuSans-30" x="453.90625"/>
       <use xlink:href="#DejaVuSans-36" x="517.529297"/>
      </g>
     </g>
    </g>
    <g id="xtick_4">
     <g id="line2d_4">
      <g>
       <use xlink:href="#m986f58efe3" x="807.472321" y="359.517187" style="stroke: #000000; stroke-width: 0.8"/>
      </g>
     </g>
     <g id="text_4">
      <!-- 2024-10-07 -->
      <g transform="translate(778.414508 374.115625) scale(0.1 -0.1)">
       <defs>
        <path id="DejaVuSans-37" d="M 525 4666 
L 3525 4666 
L 3525 4397 
L 1831 0 
L 1172 0 
L 2766 4134 
L 525 4134 
L 525 4666 
z
" transform="scale(0.015625)"/>
       </defs>
       <use xlink:href="#DejaVuSans-32"/>
       <use xlink:href="#DejaVuSans-30" x="63.623047"/>
       <use xlink:href="#DejaVuSans-32" x="127.246094"/>
       <use xlink:href="#DejaVuSans-34" x="190.869141"/>
       <use xlink:href="#DejaVuSans-2d" x="254.492188"/>
       <use xlink:href="#DejaVuSans-31" x="290.576172"/>
       <use xlink:href="#DejaVuSans-30" x="354.199219"/>
       <use xlink:href="#DejaVuSans-2d" x="417.822266"/>
       <use xlink:href="#DejaVuSans-30" x="453.90625"/>
       <use xlink:href="#DejaVuSans-37" x="517.529297"/>
      </g>
     </g>
    </g>
    <g id="xtick_5">
     <g id="line2d_5">
      <g>
       <use xlink:href="#m986f58efe3" x="1000.212409" y="359.517187" style="stroke: #000000; stroke-width: 0.8"/>
      </g>
     </g>
     <g id="text_5">
      <!-- 2024-10-08 -->
      <g transform="translate(971.154596 374.115625) scale(0.1 -0.1)">
       <defs>
        <path id="DejaVuSans-38" d="M 2034 2216 
Q 1584 2216 1326 1975 
Q 1069 1734 1069 1313 
Q 1069 891 1326 650 
Q 1584 409 2034 409 
Q 2484 409 2743 651 
Q 3003 894 3003 1313 
Q 3003 1734 2745 1975 
Q 2488 2216 2034 2216 
z
M 1403 2484 
Q 997 2584 770 2862 
Q 544 3141 544 3541 
Q 544 4100 942 4425 
Q 1341 4750 2034 4750 
Q 2731 4750 3128 4425 
Q 3525 4100 3525 3541 
Q 3525 3141 3298 2862 
Q 3072 2584 2669 2484 
Q 3125 2378 3379 2068 
Q 3634 1759 3634 1313 
Q 3634 634 3220 271 
Q 2806 -91 2034 -91 
Q 1263 -91 848 271 
Q 434 634 434 1313 
Q 434 1759 690 2068 
Q 947 2378 1403 2484 
z
M 1172 3481 
Q 1172 3119 1398 2916 
Q 1625 2713 2034 2713 
Q 2441 2713 2670 2916 
Q 2900 3119 2900 3481 
Q 2900 3844 2670 4047 
Q 2441 4250 2034 4250 
Q 1625 4250 1398 4047 
Q 1172 3844 1172 3481 
z
" transform="scale(0.015625)"/>
       </defs>
       <use xlink:href="#DejaVuSans-32"/>
       <use xlink:href="#DejaVuSans-30" x="63.623047"/>
       <use xlink:href="#DejaVuSans-32" x="127.246094"/>
       <use xlink:href="#DejaVuSans-34" x="190.869141"/>
       <use xlink:href="#DejaVuSans-2d" x="254.492188"/>
       <use xlink:href="#DejaVuSans-31" x="290.576172"/>
       <use xlink:href="#DejaVuSans-30" x="354.199219"/>
       <use xlink:href="#DejaVuSans-2d" x="417.822266"/>
       <use xlink:href="#DejaVuSans-30" x="453.90625"/>
       <use xlink:href="#DejaVuSans-38" x="517.529297"/>
      </g>
     </g>
    </g>
    <g id="text_6">
     <!-- Time -->
     <g transform="translate(592.554688 389.313437) scale(0.12 -0.12)">
      <defs>
       <path id="DejaVuSans-54" d="M -19 4666 
L 3928 4666 
L 3928 4134 
L 2272 4134 
L 2272 0 
L 1638 0 
L 1638 4134 
L -19 4134 
L -19 4666 
z
" transform="scale(0.015625)"/>
       <path id="DejaVuSans-69" d="M 603 3500 
L 1178 3500 
L 1178 0 
L 603 0 
L 603 3500 
z
M 603 4863 
L 1178 4863 
L 1178 4134 
L 603 4134 
L 603 4863 
z
" transform="scale(0.015625)"/>
       <path id="DejaVuSans-6d" d="M 3328 2828 
Q 3544 3216 3844 3400 
Q 4144 3584 4550 3584 
Q 5097 3584 5394 3201 
Q 5691 2819 5691 2113 
L 5691 0 
L 5113 0 
L 5113 2094 
Q 5113 2597 4934 2840 
Q 4756 3084 4391 3084 
Q 3944 3084 3684 2787 
Q 3425 2491 3425 1978 
L 3425 0 
L 2847 0 
L 2847 2094 
Q 2847 2600 2669 2842 
Q 2491 3084 2119 3084 
Q 1678 3084 1418 2786 
Q 1159 2488 1159 1978 
L 1159 0 
L 581 0 
L 581 3500 
L 1159 3500 
L 1159 2956 
Q 1356 3278 1631 3431 
Q 1906 3584 2284 3584 
Q 2666 3584 2933 3390 
Q 3200 3197 3328 2828 
z
" transform="scale(0.015625)"/>
       <path id="DejaVuSans-65" d="M 3597 1894 
L 3597 1613 
L 953 1613 
Q 991 1019 1311 708 
Q 1631 397 2203 397 
Q 2534 397 2845 478 
Q 3156 559 3463 722 
L 3463 178 
Q 3153 47 2828 -22 
Q 2503 -91 2169 -91 
Q 1331 -91 842 396 
Q 353 884 353 1716 
Q 353 2575 817 3079 
Q 1281 3584 2069 3584 
Q 2775 3584 3186 3129 
Q 3597 2675 3597 1894 
z
M 3022 2063 
Q 3016 2534 2758 2815 
Q 2500 3097 2075 3097 
Q 1594 3097 1305 2825 
Q 1016 2553 972 2059 
L 3022 2063 
z
" transform="scale(0.015625)"/>
      </defs>
      <use xlink:href="#DejaVuSans-54"/>
      <use xlink:href="#DejaVuSans-69" x="57.958984"/>
      <use xlink:href="#DejaVuSans-6d" x="85.742188"/>
      <use xlink:href="#DejaVuSans-65" x="183.154297"/>
     </g>
    </g>
   </g>
   <g id="matplotlib.axis_2">
    <g id="ytick_1">
     <g id="line2d_6">
      <defs>
       <path id="mc3217b876b" d="M 0 0 
L -3.5 0 
" style="stroke: #000000; stroke-width: 0.8"/>
      </defs>
      <g>
       <use xlink:href="#mc3217b876b" x="49.235" y="344.397187" style="stroke: #000000; stroke-width: 0.8"/>
      </g>
     </g>
     <g id="text_7">
      <!-- 0 -->
      <g transform="translate(35.8725 348.196406) scale(0.1 -0.1)">
       <use xlink:href="#DejaVuSans-30"/>
      </g>
     </g>
    </g>
    <g id="ytick_2">
     <g id="line2d_7">
      <g>
       <use xlink:href="#mc3217b876b" x="49.235" y="279.712696" style="stroke: #000000; stroke-width: 0.8"/>
      </g>
     </g>
     <g id="text_8">
      <!-- 200 -->
      <g transform="translate(23.1475 283.511914) scale(0.1 -0.1)">
       <use xlink:href="#DejaVuSans-32"/>
       <use xlink:href="#DejaVuSans-30" x="63.623047"/>
       <use xlink:href="#DejaVuSans-30" x="127.246094"/>
      </g>
     </g>
    </g>
    <g id="ytick_3">
     <g id="line2d_8">
      <g>
       <use xlink:href="#mc3217b876b" x="49.235" y="215.028204" style="stroke: #000000; stroke-width: 0.8"/>
      </g>
     </g>
     <g id="text_9">
      <!-- 400 -->
      <g transform="translate(23.1475 218.827422) scale(0.1 -0.1)">
       <use xlink:href="#DejaVuSans-34"/>
       <use xlink:href="#DejaVuSans-30" x="63.623047"/>
       <use xlink:href="#DejaVuSans-30" x="127.246094"/>
      </g>
     </g>
    </g>
    <g id="ytick_4">
     <g id="line2d_9">
      <g>
       <use xlink:href="#mc3217b876b" x="49.235" y="150.343712" style="stroke: #000000; stroke-width: 0.8"/>
      </g>
     </g>
     <g id="text_10">
      <!-- 600 -->
      <g transform="translate(23.1475 154.14293) scale(0.1 -0.1)">
       <use xlink:href="#DejaVuSans-36"/>
       <use xlink:href="#DejaVuSans-30" x="63.623047"/>
       <use xlink:href="#DejaVuSans-30" x="127.246094"/>
      </g>
     </g>
    </g>
    <g id="ytick_5">
     <g id="line2d_10">
      <g>
       <use xlink:href="#mc3217b876b" x="49.235" y="85.65922" style="stroke: #000000; stroke-width: 0.8"/>
      </g>
     </g>
     <g id="text_11">
      <!-- 800 -->
      <g transform="translate(23.1475 89.458438) scale(0.1 -0.1)">
       <use xlink:href="#DejaVuSans-38"/>
       <use xlink:href="#DejaVuSans-30" x="63.623047"/>
       <use xlink:href="#DejaVuSans-30" x="127.246094"/>
      </g>
     </g>
    </g>
    <g id="text_12">
     <!-- Pellet_Count -->
     <g transform="translate(16.318125 230.485312) rotate(-90) scale(0.12 -0.12)">
      <defs>
       <path id="DejaVuSans-50" d="M 1259 4147 
L 1259 2394 
L 2053 2394 
Q 2494 2394 2734 2622 
Q 2975 2850 2975 3272 
Q 2975 3691 2734 3919 
Q 2494 4147 2053 4147 
L 1259 4147 
z
M 628 4666 
L 2053 4666 
Q 2838 4666 3239 4311 
Q 3641 3956 3641 3272 
Q 3641 2581 3239 2228 
Q 2838 1875 2053 1875 
L 1259 1875 
L 1259 0 
L 628 0 
L 628 4666 
z
" transform="scale(0.015625)"/>
       <path id="DejaVuSans-6c" d="M 603 4863 
L 1178 4863 
L 1178 0 
L 603 0 
L 603 4863 
z
" transform="scale(0.015625)"/>
       <path id="DejaVuSans-74" d="M 1172 4494 
L 1172 3500 
L 2356 3500 
L 2356 3053 
L 1172 3053 
L 1172 1153 
Q 1172 725 1289 603 
Q 1406 481 1766 481 
L 2356 481 
L 2356 0 
L 1766 0 
Q 1100 0 847 248 
Q 594 497 594 1153 
L 594 3053 
L 172 3053 
L 172 3500 
L 594 3500 
L 594 4494 
L 1172 4494 
z
" transform="scale(0.015625)"/>
       <path id="DejaVuSans-5f" d="M 3263 -1063 
L 3263 -1509 
L -63 -1509 
L -63 -1063 
L 3263 -1063 
z
" transform="scale(0.015625)"/>
       <path id="DejaVuSans-43" d="M 4122 4306 
L 4122 3641 
Q 3803 3938 3442 4084 
Q 3081 4231 2675 4231 
Q 1875 4231 1450 3742 
Q 1025 3253 1025 2328 
Q 1025 1406 1450 917 
Q 1875 428 2675 428 
Q 3081 428 3442 575 
Q 3803 722 4122 1019 
L 4122 359 
Q 3791 134 3420 21 
Q 3050 -91 2638 -91 
Q 1578 -91 968 557 
Q 359 1206 359 2328 
Q 359 3453 968 4101 
Q 1578 4750 2638 4750 
Q 3056 4750 3426 4639 
Q 3797 4528 4122 4306 
z
" transform="scale(0.015625)"/>
       <path id="DejaVuSans-6f" d="M 1959 3097 
Q 1497 3097 1228 2736 
Q 959 2375 959 1747 
Q 959 1119 1226 758 
Q 1494 397 1959 397 
Q 2419 397 2687 759 
Q 2956 1122 2956 1747 
Q 2956 2369 2687 2733 
Q 2419 3097 1959 3097 
z
M 1959 3584 
Q 2709 3584 3137 3096 
Q 3566 2609 3566 1747 
Q 3566 888 3137 398 
Q 2709 -91 1959 -91 
Q 1206 -91 779 398 
Q 353 888 353 1747 
Q 353 2609 779 3096 
Q 1206 3584 1959 3584 
z
" transform="scale(0.015625)"/>
       <path id="DejaVuSans-75" d="M 544 1381 
L 544 3500 
L 1119 3500 
L 1119 1403 
Q 1119 906 1312 657 
Q 1506 409 1894 409 
Q 2359 409 2629 706 
Q 2900 1003 2900 1516 
L 2900 3500 
L 3475 3500 
L 3475 0 
L 2900 0 
L 2900 538 
Q 2691 219 2414 64 
Q 2138 -91 1772 -91 
Q 1169 -91 856 284 
Q 544 659 544 1381 
z
M 1991 3584 
L 1991 3584 
z
" transform="scale(0.015625)"/>
       <path id="DejaVuSans-6e" d="M 3513 2113 
L 3513 0 
L 2938 0 
L 2938 2094 
Q 2938 2591 2744 2837 
Q 2550 3084 2163 3084 
Q 1697 3084 1428 2787 
Q 1159 2491 1159 1978 
L 1159 0 
L 581 0 
L 581 3500 
L 1159 3500 
L 1159 2956 
Q 1366 3272 1645 3428 
Q 1925 3584 2291 3584 
Q 2894 3584 3203 3211 
Q 3513 2838 3513 2113 
z
" transform="scale(0.015625)"/>
      </defs>
      <use xlink:href="#DejaVuSans-50"/>
      <use xlink:href="#DejaVuSans-65" x="56.677734"/>
      <use xlink:href="#DejaVuSans-6c" x="118.201172"/>
      <use xlink:href="#DejaVuSans-6c" x="145.984375"/>
      <use xlink:href="#DejaVuSans-65" x="173.767578"/>
      <use xlink:href="#DejaVuSans-74" x="235.291016"/>
      <use xlink:href="#DejaVuSans-5f" x="274.5"/>
      <use xlink:href="#DejaVuSans-43" x="324.5"/>
      <use xlink:href="#DejaVuSans-6f" x="394.324219"/>
      <use xlink:href="#DejaVuSans-75" x="455.505859"/>
      <use xlink:href="#DejaVuSans-6e" x="518.884766"/>
      <use xlink:href="#DejaVuSans-74" x="582.263672"/>
     </g>
    </g>
   </g>
   <g id="line2d_11">
    <path d="M 99.962273 344.397187 
L 113.326924 344.397187 
L 113.445156 343.750343 
L 114.977707 343.750343 
L 114.98663 343.42692 
L 115.145016 343.42692 
L 115.223094 343.103498 
L 115.477404 343.103498 
L 115.488558 342.780075 
L 116.8538 342.780075 
L 116.978724 341.809808 
L 117.210726 341.809808 
L 117.212957 341.486385 
L 118.560353 341.486385 
L 118.598276 340.83954 
L 119.046665 340.83954 
L 119.189435 339.545851 
L 119.305436 339.545851 
L 119.379052 338.899006 
L 119.593208 338.899006 
L 119.731516 337.928738 
L 120.273598 337.928738 
L 120.27806 337.605316 
L 120.969604 337.605316 
L 120.974065 337.281893 
L 122.049305 337.281893 
L 122.053767 336.958471 
L 122.624849 336.958471 
L 122.709619 336.311626 
L 123.657703 336.311626 
L 123.659934 335.988204 
L 124.619173 335.988204 
L 124.737405 335.017936 
L 125.417795 335.017936 
L 125.420026 334.694514 
L 126.615728 334.694514 
L 126.669267 334.371091 
L 127.795815 334.371091 
L 127.804738 334.047669 
L 128.31782 334.047669 
L 128.429359 333.724246 
L 128.846516 333.724246 
L 128.931286 333.400824 
L 129.493445 333.400824 
L 129.517984 333.077401 
L 130.722609 333.077401 
L 130.827456 332.107134 
L 131.367307 332.107134 
L 131.759926 331.783712 
L 132.797242 331.783712 
L 132.830704 331.136867 
L 133.450863 331.136867 
L 133.69625 330.813444 
L 134.646565 330.813444 
L 134.807182 330.166599 
L 134.880798 329.196332 
L 136.121116 329.196332 
L 136.161271 328.549487 
L 137.372588 328.549487 
L 137.412743 327.902642 
L 138.229211 327.902642 
L 138.336289 327.57922 
L 140.212382 327.57922 
L 140.288228 326.932375 
L 140.930695 326.932375 
L 141.05562 326.608952 
L 142.786711 326.608952 
L 142.893789 325.315262 
L 142.996405 325.315262 
L 143.000867 324.99184 
L 145.369964 324.99184 
L 145.434656 324.668417 
L 145.639889 324.668417 
L 145.644351 324.344995 
L 146.538897 324.344995 
L 146.648205 323.051305 
L 146.670513 323.051305 
L 146.782052 322.081038 
L 159.029079 321.757615 
L 159.142849 320.463925 
L 159.178542 320.463925 
L 159.272235 320.140503 
L 159.629161 320.140503 
L 159.673777 319.817081 
L 159.787547 319.817081 
L 159.836624 319.170236 
L 159.912471 319.170236 
L 159.988318 318.523391 
L 160.048549 318.523391 
L 160.133319 317.553123 
L 160.198012 317.553123 
L 160.202473 317.229701 
L 161.610101 317.229701 
L 161.612331 316.906278 
L 161.801948 316.906278 
L 161.83541 316.259433 
L 164.251354 316.259433 
L 164.585972 315.936011 
L 165.763828 315.612589 
L 166.450911 315.612589 
L 166.491065 314.965744 
L 168.956086 314.965744 
L 169.040856 313.995476 
L 170.080403 313.995476 
L 170.232097 313.348631 
L 172.735041 313.348631 
L 172.739502 313.025209 
L 174.684749 313.025209 
L 174.77175 312.054942 
L 174.867674 312.054942 
L 174.939059 311.084674 
L 176.302071 311.084674 
L 176.38461 310.114407 
L 186.077384 310.114407 
L 186.209001 309.144139 
L 186.253616 309.144139 
L 186.358463 308.173872 
L 186.409772 308.173872 
L 186.454387 307.527027 
L 198.311026 307.527027 
L 198.424796 306.55676 
L 198.572028 306.55676 
L 198.659029 305.586492 
L 198.712568 305.586492 
L 198.777261 304.939647 
L 201.293589 304.939647 
L 201.389513 304.292802 
L 201.416283 304.292802 
L 201.418514 303.96938 
L 203.952689 303.96938 
L 203.95715 303.645958 
L 222.300921 303.645958 
L 222.403537 302.67569 
L 224.460323 302.67569 
L 224.551786 302.028845 
L 226.2628 302.028845 
L 226.385494 301.058578 
L 245.360577 301.058578 
L 245.42527 300.735155 
L 245.527886 300.735155 
L 245.601502 300.08831 
L 245.646118 300.08831 
L 245.650579 299.764888 
L 261.089863 299.764888 
L 261.248249 298.794621 
L 274.840441 298.794621 
L 274.94975 298.471198 
L 274.956442 298.147776 
L 275.389215 298.147776 
L 275.391446 297.824353 
L 275.734987 297.824353 
L 275.737218 297.500931 
L 276.415377 297.500931 
L 276.488993 296.854086 
L 284.606831 296.854086 
L 284.673755 295.883819 
L 284.747371 295.883819 
L 284.865602 294.913551 
L 284.892372 294.913551 
L 285.104297 293.296439 
L 289.991953 293.296439 
L 290.0678 292.326171 
L 290.114647 292.326171 
L 290.199417 292.002749 
L 291.042655 292.002749 
L 291.047116 291.679327 
L 293.911448 291.679327 
L 293.980602 290.709059 
L 294.043065 290.709059 
L 294.047526 290.385637 
L 294.542761 290.385637 
L 294.689993 290.062214 
L 296.189083 290.062214 
L 296.278314 289.091947 
L 296.952012 289.091947 
L 297.36917 288.768524 
L 298.750027 288.768524 
L 298.772335 288.445102 
L 299.622265 288.121679 
L 299.626727 287.798257 
L 299.981422 287.798257 
L 299.983653 287.474835 
L 301.449281 287.474835 
L 301.556359 286.181145 
L 301.768284 286.181145 
L 302.932755 285.857722 
L 304.565692 285.5343 
L 305.565085 285.5343 
L 305.627547 285.210877 
L 306.274475 285.210877 
L 306.299014 284.564032 
L 306.908019 284.564032 
L 306.943712 284.24061 
L 308.097029 284.24061 
L 308.210799 282.94692 
L 308.233107 282.94692 
L 308.375878 281.329808 
L 308.619034 281.329808 
L 309.040653 281.006385 
L 310.149354 281.006385 
L 311.255825 280.682963 
L 313.125226 280.682963 
L 313.330458 280.35954 
L 313.926078 280.35954 
L 313.935002 280.036118 
L 314.923241 280.036118 
L 314.981241 279.389273 
L 315.505476 279.389273 
L 315.866864 279.065851 
L 316.310791 278.742428 
L 316.315252 278.419006 
L 317.000104 278.419006 
L 317.495339 278.095583 
L 317.557801 278.095583 
L 317.562263 277.772161 
L 318.499194 277.772161 
L 318.637503 277.125316 
L 319.302278 277.125316 
L 319.329047 276.801893 
L 319.786359 276.801893 
L 319.810897 276.155048 
L 320.352979 276.155048 
L 320.359671 275.831626 
L 320.794675 275.831626 
L 320.850445 275.508204 
L 321.425988 275.508204 
L 321.530835 275.184781 
L 321.916761 275.184781 
L 321.947992 274.861359 
L 322.371842 274.861359 
L 322.371842 274.861359 
L 323.139233 274.537936 
L 323.208388 273.891091 
L 323.375697 273.244246 
L 323.913317 273.244246 
L 324.058318 272.920824 
L 331.359687 272.920824 
L 331.484611 271.627134 
L 331.580535 271.627134 
L 331.687613 270.656867 
L 331.861614 269.686599 
L 331.933 269.686599 
L 332.004385 269.039754 
L 332.421542 269.039754 
L 332.423773 268.716332 
L 332.626775 268.716332 
L 332.633467 268.392909 
L 336.842964 268.392909 
L 336.878657 268.069487 
L 337.48097 268.069487 
L 337.514431 267.422642 
L 338.875212 267.422642 
L 339.015752 266.128952 
L 339.044752 266.128952 
L 339.069291 265.80553 
L 341.306771 265.80553 
L 341.436157 264.188417 
L 341.467388 264.188417 
L 341.52985 263.541573 
L 344.476721 263.541573 
L 344.478952 263.21815 
L 348.581371 263.21815 
L 349.03199 262.894728 
L 350.140692 262.894728 
L 350.325847 262.571305 
L 351.037469 262.571305 
L 351.044161 262.247883 
L 351.586242 262.247883 
L 351.592935 261.92446 
L 351.818244 261.92446 
L 351.840552 261.601038 
L 353.029562 261.601038 
L 353.185717 260.63077 
L 355.157734 260.63077 
L 355.242504 259.337081 
L 355.902817 259.337081 
L 355.907279 259.013658 
L 358.048835 259.013658 
L 358.162606 257.719968 
L 358.184914 257.719968 
L 358.225068 257.073123 
L 359.074998 257.073123 
L 360.997937 256.749701 
L 361.047015 256.102856 
L 362.021869 256.102856 
L 362.882953 255.779433 
L 363.335803 255.779433 
L 363.340265 255.456011 
L 364.763508 255.456011 
L 364.872816 254.485744 
L 367.224067 254.485744 
L 367.340068 253.838899 
L 375.221442 253.838899 
L 375.339674 253.192054 
L 375.373136 253.192054 
L 375.495829 252.221786 
L 375.533752 252.221786 
L 375.620753 251.574942 
L 375.672061 251.574942 
L 375.676523 251.251519 
L 378.186159 251.251519 
L 378.206236 250.928097 
L 380.454871 250.928097 
L 380.454871 250.928097 
L 380.463794 250.604674 
L 380.642257 250.604674 
L 380.747104 249.634407 
L 381.67065 249.634407 
L 381.871421 249.310984 
L 390.094106 249.310984 
L 390.13426 248.664139 
L 390.308262 248.664139 
L 390.310492 248.340717 
L 394.769838 248.340717 
L 394.772068 248.017294 
L 394.896993 248.017294 
L 395.006301 247.047027 
L 395.070994 247.047027 
L 395.153533 246.400182 
L 396.065926 246.400182 
L 396.070387 246.07676 
L 396.186388 246.07676 
L 396.19308 245.753337 
L 405.64716 245.753337 
L 405.752007 244.78307 
L 405.796623 244.78307 
L 405.885855 243.812802 
L 405.934932 243.812802 
L 406.021933 243.165958 
L 406.120087 243.165958 
L 406.124549 242.842535 
L 410.206891 242.842535 
L 410.218045 242.519113 
L 411.850982 242.519113 
L 411.857674 242.19569 
L 416.178711 242.19569 
L 416.180941 241.872268 
L 416.992948 241.872268 
L 417.162488 241.548845 
L 418.380498 241.548845 
L 418.442961 240.902 
L 424.430396 240.902 
L 424.432626 240.578578 
L 429.62367 240.578578 
L 429.625901 240.255155 
L 437.087887 240.255155 
L 437.154811 239.60831 
L 437.212811 239.60831 
L 437.328812 238.638043 
L 437.35112 238.638043 
L 437.455967 237.991198 
L 437.551891 237.344353 
L 458.824686 237.344353 
L 458.927302 236.374086 
L 458.956302 236.374086 
L 459.052226 235.403819 
L 459.121381 235.403819 
L 459.14815 235.080396 
L 471.355022 235.080396 
L 471.473254 233.786706 
L 471.515639 233.786706 
L 471.60264 232.816439 
L 471.669564 232.816439 
L 471.718641 232.169594 
L 478.005002 232.169594 
L 478.127695 231.199327 
L 478.150003 231.199327 
L 478.190157 230.552482 
L 478.308389 230.552482 
L 478.317312 230.229059 
L 481.319953 230.229059 
L 481.433723 229.258792 
L 481.464954 229.258792 
L 481.473877 228.935369 
L 483.425817 228.935369 
L 483.541818 227.965102 
L 483.593126 227.965102 
L 483.595357 227.641679 
L 489.100941 227.641679 
L 489.156711 226.994835 
L 489.799178 226.994835 
L 489.80364 226.671412 
L 491.449961 226.671412 
L 491.458884 226.34799 
L 492.868742 226.34799 
L 492.873204 226.024567 
L 494.209446 226.024567 
L 494.213908 225.701145 
L 494.947837 225.701145 
L 495.612612 225.0543 
L 495.617073 224.730877 
L 497.633706 224.730877 
L 497.778707 224.084032 
L 498.532713 224.084032 
L 498.537175 223.76061 
L 499.891263 223.76061 
L 499.991649 223.437187 
L 500.906272 223.437187 
L 500.946426 223.113765 
L 501.437199 223.113765 
L 501.477354 222.790343 
L 503.210676 222.790343 
L 503.27983 221.820075 
L 503.357908 221.820075 
L 503.456063 220.526385 
L 503.502909 220.526385 
L 503.50514 220.202963 
L 505.805082 220.202963 
L 505.816236 219.87954 
L 505.983545 219.87954 
L 506.228932 219.556118 
L 506.516704 219.556118 
L 506.637166 219.232696 
L 510.527661 219.232696 
L 510.592354 218.262428 
L 510.650354 218.262428 
L 510.735124 216.968738 
L 510.770817 216.968738 
L 510.80874 216.321893 
L 512.546524 216.321893 
L 512.548755 215.998471 
L 512.95922 215.998471 
L 512.98822 215.351626 
L 514.152691 215.351626 
L 514.382463 215.028204 
L 514.804081 215.028204 
L 514.837543 214.704781 
L 514.973621 214.704781 
L 515.694166 214.381359 
L 517.523412 214.381359 
L 517.568028 213.734514 
L 518.185956 213.734514 
L 518.194879 213.411091 
L 518.50942 213.411091 
L 518.560729 213.087669 
L 519.658276 213.087669 
L 519.722969 212.440824 
L 521.516523 212.440824 
L 521.520984 212.117401 
L 526.024945 212.117401 
L 526.1231 211.470556 
L 526.294871 210.176867 
L 526.448795 210.176867 
L 526.511257 209.530022 
L 526.636181 209.530022 
L 526.640643 209.206599 
L 536.357956 209.206599 
L 536.431572 208.559754 
L 536.556496 208.559754 
L 536.672497 207.266065 
L 536.71042 207.266065 
L 536.828652 206.61922 
L 536.839806 206.61922 
L 536.871037 206.295797 
L 537.185578 206.295797 
L 537.19004 205.972375 
L 538.126971 205.972375 
L 538.702514 205.648952 
L 540.032064 205.648952 
L 540.53176 205.32553 
L 541.243382 205.32553 
L 541.328151 204.355262 
L 541.363844 204.355262 
L 541.461999 203.384995 
L 548.040593 203.384995 
L 548.152132 202.414728 
L 548.185594 202.414728 
L 548.285979 201.44446 
L 548.323903 201.44446 
L 548.433211 200.474193 
L 548.482289 200.474193 
L 548.48452 200.15077 
L 553.282945 200.15077 
L 553.385561 199.180503 
L 553.4101 199.180503 
L 553.441331 198.857081 
L 554.3448 198.857081 
L 554.471955 198.533658 
L 557.612904 198.533658 
L 557.666443 197.886813 
L 558.529758 197.886813 
L 558.531989 197.563391 
L 560.546391 197.563391 
L 560.646776 196.916546 
L 562.402406 196.916546 
L 562.49833 195.946278 
L 563.711879 195.946278 
L 563.740879 195.622856 
L 572.820186 195.622856 
L 572.927264 194.976011 
L 573.172651 193.358899 
L 573.246267 193.358899 
L 573.277498 192.712054 
L 574.928281 192.712054 
L 574.932743 192.388631 
L 577.607458 192.388631 
L 577.607458 192.388631 
L 579.099855 192.065209 
L 579.102086 191.741786 
L 583.880434 191.741786 
L 583.922819 191.094942 
L 584.141436 191.094942 
L 584.192744 190.771519 
L 590.94757 190.771519 
L 591.052417 190.124674 
L 591.090341 190.124674 
L 591.179572 189.154407 
L 591.224188 189.154407 
L 591.326804 188.184139 
L 591.360266 188.184139 
L 591.364728 187.860717 
L 594.4276 187.860717 
L 594.643986 187.537294 
L 594.916142 187.537294 
L 594.936219 187.213872 
L 595.284222 187.213872 
L 595.286453 186.89045 
L 609.190955 186.89045 
L 609.217724 186.567027 
L 609.51665 186.567027 
L 609.518881 186.243605 
L 611.919209 186.243605 
L 611.92367 185.920182 
L 619.492734 185.920182 
L 619.613197 185.273337 
L 619.644428 185.273337 
L 619.73589 184.30307 
L 619.778275 184.30307 
L 619.822891 183.656225 
L 631.920454 183.656225 
L 632.009686 183.00938 
L 636.384261 183.00938 
L 636.489108 182.685958 
L 642.661699 182.685958 
L 642.7777 182.039113 
L 642.7777 182.039113 
L 642.797777 182.039113 
L 642.878085 181.068845 
L 642.962855 181.068845 
L 643.072164 180.098578 
L 653.066094 180.098578 
L 653.164249 179.12831 
L 653.228942 179.12831 
L 653.324866 178.158043 
L 653.351635 178.158043 
L 653.353866 177.834621 
L 662.854792 177.834621 
L 662.964101 177.187776 
L 662.98864 177.187776 
L 663.10241 176.540931 
L 666.241129 176.540931 
L 666.334822 175.570663 
L 666.535593 175.570663 
L 666.747518 174.923819 
L 666.751979 174.600396 
L 667.327523 174.600396 
L 669.366463 174.276974 
L 670.071392 174.276974 
L 670.080315 173.953551 
L 670.646935 173.953551 
L 670.901245 173.630129 
L 671.287171 173.630129 
L 672.043408 173.306706 
L 672.04787 172.983284 
L 674.619969 172.983284 
L 674.6802 172.659861 
L 675.5569 172.659861 
L 675.583669 172.336439 
L 675.730901 172.336439 
L 676.560754 172.013016 
L 676.589755 171.689594 
L 677.018066 171.689594 
L 678.595233 171.042749 
L 679.837782 171.042749 
L 680.219247 170.719327 
L 680.221478 170.395904 
L 680.988869 170.395904 
L 680.995561 170.072482 
L 682.168955 170.072482 
L 682.204648 169.425637 
L 683.418197 169.425637 
L 683.509659 169.102214 
L 685.503984 169.102214 
L 685.5776 168.455369 
L 686.489992 168.455369 
L 686.601531 168.131947 
L 687.027612 168.131947 
L 687.937773 167.808524 
L 687.942235 167.485102 
L 688.812242 167.485102 
L 688.839012 167.161679 
L 688.94609 167.161679 
L 688.94832 166.838257 
L 689.559556 166.838257 
L 689.996791 166.514835 
L 690.210946 166.514835 
L 690.387179 165.544567 
L 691.928653 165.544567 
L 692.008962 165.221145 
L 694.630138 165.221145 
L 694.717138 164.250877 
L 694.748369 164.250877 
L 694.837601 163.28061 
L 694.879986 163.28061 
L 694.987064 162.633765 
L 695.107526 161.98692 
L 695.390836 161.98692 
L 695.395298 161.663498 
L 698.092321 161.663498 
L 698.099013 161.340075 
L 698.386785 161.340075 
L 698.4024 161.016653 
L 699.580256 161.016653 
L 699.633795 160.369808 
L 704.43222 160.369808 
L 704.559375 159.076118 
L 704.610683 159.076118 
L 704.648607 158.429273 
L 704.786916 158.429273 
L 704.85607 157.782428 
L 704.920763 157.782428 
L 705.005533 156.812161 
L 709.580879 156.812161 
L 709.627726 156.488738 
L 710.330424 156.488738 
L 710.332655 156.165316 
L 713.727914 156.165316 
L 713.736837 155.841893 
L 716.146088 155.841893 
L 716.233089 154.871626 
L 716.271013 154.871626 
L 716.384783 153.577936 
L 716.409321 153.577936 
L 716.469553 152.931091 
L 723.790999 152.931091 
L 723.878 151.960824 
L 723.927077 151.960824 
L 724.007385 151.313979 
L 724.152387 151.313979 
L 724.210387 150.667134 
L 735.255019 150.667134 
L 735.34425 149.696867 
L 735.386635 149.696867 
L 735.491482 148.726599 
L 735.538329 148.726599 
L 735.623099 148.079754 
L 735.681099 148.079754 
L 735.745792 147.432909 
L 735.806024 147.432909 
L 735.884101 146.786065 
L 741.057299 146.786065 
L 741.418686 146.462642 
L 741.420917 146.13922 
L 741.88269 146.13922 
L 741.891613 145.815797 
L 743.24124 145.815797 
L 743.26801 145.492375 
L 743.595935 145.168952 
L 744.285249 145.168952 
L 744.48602 144.522107 
L 744.488251 144.198685 
L 744.619867 144.198685 
L 744.733637 143.875262 
L 745.072717 143.875262 
L 745.373874 142.904995 
L 746.719039 142.904995 
L 746.988964 142.581573 
L 747.734047 142.581573 
L 748.13782 142.25815 
L 753.9981 142.25815 
L 754.078409 141.287883 
L 754.120793 141.287883 
L 754.234564 140.317615 
L 754.263564 140.317615 
L 754.33718 139.67077 
L 761.47124 139.67077 
L 761.576087 138.700503 
L 761.605087 138.700503 
L 761.698781 137.730236 
L 761.738935 137.730236 
L 761.788012 137.083391 
L 761.904013 137.083391 
L 761.906244 136.759968 
L 766.421359 136.759968 
L 767.141903 136.436546 
L 767.222212 135.466278 
L 767.286905 135.466278 
L 767.289135 135.142856 
L 767.588061 135.142856 
L 767.619292 134.819433 
L 779.310852 134.819433 
L 779.402315 134.172589 
L 779.440238 134.172589 
L 779.591932 133.202321 
L 779.636547 133.202321 
L 779.64547 132.878899 
L 783.219193 132.878899 
L 783.225885 132.555476 
L 793.186354 132.555476 
L 793.190816 132.232054 
L 793.420587 132.232054 
L 793.516511 131.585209 
L 801.52504 131.585209 
L 801.529501 131.261786 
L 804.284525 131.261786 
L 804.636989 130.938364 
L 804.730682 130.291519 
L 807.164472 130.291519 
L 807.806939 129.968097 
L 808.170557 129.968097 
L 808.181711 129.644674 
L 808.634561 129.644674 
L 819.955811 129.321252 
L 820.071812 128.350984 
L 820.129812 128.350984 
L 820.243582 127.704139 
L 820.250275 127.380717 
L 828.948117 127.380717 
L 830.14382 127.057294 
L 838.587352 127.057294 
L 838.674353 126.41045 
L 838.745738 126.41045 
L 838.803739 125.763605 
L 845.467103 125.763605 
L 845.469334 125.440182 
L 847.407888 125.440182 
L 847.410119 125.11676 
L 853.959713 125.11676 
L 854.062329 124.146492 
L 854.091329 124.146492 
L 854.198407 123.176225 
L 857.805592 123.176225 
L 857.854669 122.852802 
L 862.617401 122.852802 
L 862.789172 122.205958 
L 863.351331 122.205958 
L 863.353562 121.882535 
L 864.002721 121.882535 
L 864.007182 121.559113 
L 864.560418 121.559113 
L 864.564879 121.23569 
L 866.304894 121.23569 
L 866.409741 120.912268 
L 867.152594 120.912268 
L 867.157055 120.588845 
L 867.790599 120.588845 
L 867.844138 120.265423 
L 872.412792 120.265423 
L 872.506485 118.971733 
L 872.551101 118.971733 
L 872.580101 118.324888 
L 872.867873 118.324888 
L 872.867873 118.324888 
L 873.003951 118.001466 
L 874.866659 118.001466 
L 875.1522 117.678043 
L 875.156661 117.354621 
L 877.463296 117.354621 
L 877.768914 117.031198 
L 878.025455 117.031198 
L 878.029916 116.707776 
L 878.558613 116.707776 
L 878.788384 116.384353 
L 879.442005 116.384353 
L 879.870316 116.060931 
L 879.93724 115.090663 
L 880.16478 115.090663 
L 880.245089 114.767241 
L 883.303499 114.767241 
L 883.441808 113.473551 
L 884.385431 113.473551 
L 884.760204 113.150129 
L 884.764665 112.826706 
L 886.078599 112.826706 
L 886.085292 112.503284 
L 887.787383 112.503284 
L 887.981462 111.533016 
L 888.354003 111.533016 
L 888.490081 110.886171 
L 889.003163 110.886171 
L 889.174933 110.562749 
L 889.440397 110.562749 
L 889.837477 110.239327 
L 891.030949 110.239327 
L 891.144719 109.592482 
L 893.393353 109.592482 
L 893.690048 109.269059 
L 893.794895 108.298792 
L 894.504286 108.298792 
L 894.747442 107.975369 
L 897.098692 107.975369 
L 897.20577 106.681679 
L 897.241463 106.681679 
L 897.245924 106.358257 
L 900.03664 106.358257 
L 900.145949 105.38799 
L 900.201719 105.38799 
L 900.224027 105.064567 
L 901.341651 105.064567 
L 901.558038 104.741145 
L 903.119589 104.741145 
L 903.219975 103.770877 
L 903.266821 103.770877 
L 903.351591 102.80061 
L 903.389515 102.80061 
L 903.391746 102.477187 
L 905.847843 102.477187 
L 905.943767 101.50692 
L 907.737321 101.50692 
L 907.79309 101.183498 
L 907.918015 101.183498 
L 907.920245 100.860075 
L 909.814184 100.860075 
L 909.854339 100.536653 
L 916.743012 100.536653 
L 916.796551 99.889808 
L 917.198093 99.889808 
L 917.240478 99.566385 
L 918.572258 99.566385 
L 918.596797 99.242963 
L 919.123263 99.242963 
L 919.208033 98.596118 
L 919.442266 98.596118 
L 919.76573 98.272696 
L 920.53089 98.272696 
L 920.539813 97.949273 
L 920.936894 97.949273 
L 920.943586 97.625851 
L 922.250828 97.625851 
L 922.326675 96.979006 
L 924.441462 96.979006 
L 924.486077 96.332161 
L 924.885388 96.332161 
L 924.925543 96.008738 
L 926.357709 96.008738 
L 926.482633 95.685316 
L 928.488111 95.685316 
L 928.503727 95.361893 
L 928.68219 95.361893 
L 929.110501 95.038471 
L 929.112732 94.715048 
L 929.839969 94.715048 
L 929.846661 94.391626 
L 930.839362 94.391626 
L 930.866131 94.068204 
L 930.993286 94.068204 
L 931.113749 93.744781 
L 931.727215 93.421359 
L 934.660702 93.421359 
L 934.790087 91.804246 
L 934.82578 91.804246 
L 934.890473 90.833979 
L 939.026354 90.833979 
L 939.028585 90.510556 
L 939.492589 90.510556 
L 939.494819 90.187134 
L 946.45934 90.187134 
L 946.54411 89.216867 
L 946.584264 89.216867 
L 946.669034 88.246599 
L 946.71365 88.246599 
L 946.807343 87.276332 
L 946.843035 87.276332 
L 946.892113 86.629487 
L 952.884009 86.629487 
L 952.973241 85.982642 
L 961.965548 85.982642 
L 961.97224 85.65922 
L 962.744093 85.65922 
L 962.866786 84.688952 
L 962.99171 84.688952 
L 963.031864 84.36553 
L 973.083795 84.36553 
L 973.12618 83.718685 
L 973.275643 83.718685 
L 973.277874 83.395262 
L 977.777373 83.395262 
L 977.88222 82.424995 
L 977.953606 82.424995 
L 978.033914 81.454728 
L 978.089684 81.454728 
L 978.145453 80.807883 
L 988.534233 80.807883 
L 988.536464 80.48446 
L 990.530789 80.48446 
L 990.604405 79.837615 
L 990.691405 79.837615 
L 990.693636 79.514193 
L 994.173666 79.514193 
L 994.218281 78.867348 
L 995.302444 78.867348 
L 995.34706 78.543925 
L 995.701755 78.543925 
L 995.755294 78.220503 
L 997.564463 78.220503 
L 997.705003 77.573658 
L 1009.338563 77.573658 
L 1009.432256 76.926813 
L 1009.470179 76.926813 
L 1009.568334 75.956546 
L 1012.363511 75.956546 
L 1012.379127 75.633123 
L 1023.544221 75.633123 
L 1023.640145 74.662856 
L 1023.678068 74.662856 
L 1023.782915 73.692589 
L 1023.834224 73.692589 
L 1023.838685 73.369166 
L 1032.786376 73.369166 
L 1032.788607 73.045744 
L 1034.874394 73.045744 
L 1034.97701 72.075476 
L 1035.03501 72.075476 
L 1035.133165 71.105209 
L 1035.191166 71.105209 
L 1035.28932 70.458364 
L 1039.159738 70.458364 
L 1039.425201 70.134942 
L 1046.304952 70.134942 
L 1046.41426 69.164674 
L 1046.456645 69.164674 
L 1046.458876 68.841252 
L 1046.652955 68.841252 
L 1046.657416 68.517829 
L 1051.915384 68.517829 
L 1052.015769 68.194407 
L 1052.948239 68.194407 
L 1054.541021 67.870984 
L 1054.545483 67.547562 
L 1055.685415 67.547562 
L 1055.718877 67.224139 
L 1056.608962 67.224139 
L 1056.878887 66.900717 
L 1056.990426 66.253872 
L 1057.516892 66.253872 
L 1057.559277 65.93045 
L 1058.92452 65.93045 
L 1059.147599 65.607027 
L 1059.74545 65.607027 
L 1061.008076 65.283605 
L 1061.014768 64.960182 
L 1061.679543 64.960182 
L 1061.695158 64.63676 
L 1061.853544 64.63676 
L 1062.061008 63.989915 
L 1063.379403 63.989915 
L 1063.415096 63.666492 
L 1063.609175 63.666492 
L 1063.756407 63.34307 
L 1064.124487 63.34307 
L 1064.394412 63.019647 
L 1064.95434 63.019647 
L 1064.998956 62.696225 
L 1065.715039 62.696225 
L 1066.241505 62.372802 
L 1066.531507 62.372802 
L 1066.656431 62.04938 
L 1067.965904 62.04938 
L 1068.035058 61.079113 
L 1068.835911 61.079113 
L 1069.491763 60.75569 
L 1070.109691 60.75569 
L 1070.114153 60.432268 
L 1070.330539 60.432268 
L 1070.33277 60.108845 
L 1070.87039 60.108845 
L 1072.206632 59.785423 
L 1072.208863 59.462 
L 1073.355488 59.462 
L 1073.603105 59.138578 
L 1076.10828 59.138578 
L 1076.554438 58.815155 
L 1076.670439 57.521466 
L 1076.688285 57.521466 
L 1076.739593 56.874621 
L 1076.98498 56.874621 
L 1077.09875 56.551198 
L 1077.259367 56.551198 
L 1077.301752 56.227776 
L 1077.823756 56.227776 
L 1077.944219 55.904353 
L 1081.310478 55.904353 
L 1081.393017 55.580931 
L 1083.755422 55.580931 
L 1083.83573 54.610663 
L 1083.875884 54.610663 
L 1083.945039 53.640396 
L 1086.954372 53.640396 
L 1087.050296 52.670129 
L 1087.077065 52.670129 
L 1087.193066 51.376439 
L 1088.241536 51.376439 
L 1088.484692 51.053016 
L 1089.812011 51.053016 
L 1089.903473 50.729594 
L 1091.148253 50.729594 
L 1091.233023 50.406171 
L 1091.641257 50.406171 
L 1092.192262 50.082749 
L 1092.219031 49.759327 
L 1095.248442 49.759327 
L 1095.35775 49.435904 
L 1096.678377 49.435904 
L 1096.892532 48.789059 
L 1097.019687 47.495369 
L 1097.577384 47.495369 
L 1098.703932 47.171947 
L 1100.430562 47.171947 
L 1100.577794 46.848524 
L 1104.38575 46.848524 
L 1104.497289 45.878257 
L 1104.537443 45.878257 
L 1104.653444 44.90799 
L 1104.684675 44.90799 
L 1104.780599 43.937722 
L 1114.26591 43.937722 
L 1114.366295 42.967455 
L 1114.397526 42.967455 
L 1114.502373 41.997187 
L 1114.502373 41.997187 
" clip-path="url(#pb23a52bd8c)" style="fill: none; stroke: #0000ff; stroke-width: 1.5; stroke-linecap: square"/>
   </g>
   <g id="patch_150">
    <path d="M 49.235 359.517187 
L 49.235 26.877187 
" style="fill: none; stroke: #000000; stroke-width: 0.8; stroke-linejoin: miter; stroke-linecap: square"/>
   </g>
   <g id="patch_151">
    <path d="M 1165.235 359.517187 
L 1165.235 26.877187 
" style="fill: none; stroke: #000000; stroke-width: 0.8; stroke-linejoin: miter; stroke-linecap: square"/>
   </g>
   <g id="patch_152">
    <path d="M 49.235 359.517187 
L 1165.235 359.517187 
" style="fill: none; stroke: #000000; stroke-width: 0.8; stroke-linejoin: miter; stroke-linecap: square"/>
   </g>
   <g id="patch_153">
    <path d="M 49.235 26.877187 
L 1165.235 26.877187 
" style="fill: none; stroke: #000000; stroke-width: 0.8; stroke-linejoin: miter; stroke-linecap: square"/>
   </g>
   <g id="text_13">
    <!-- Pellet Count and Cumulative Sum Over Time of Group 1 Mouse 2 -->
    <g transform="translate(315.460625 20.877187) scale(0.18 -0.18)">
     <defs>
      <path id="DejaVuSans-20" transform="scale(0.015625)"/>
      <path id="DejaVuSans-61" d="M 2194 1759 
Q 1497 1759 1228 1600 
Q 959 1441 959 1056 
Q 959 750 1161 570 
Q 1363 391 1709 391 
Q 2188 391 2477 730 
Q 2766 1069 2766 1631 
L 2766 1759 
L 2194 1759 
z
M 3341 1997 
L 3341 0 
L 2766 0 
L 2766 531 
Q 2569 213 2275 61 
Q 1981 -91 1556 -91 
Q 1019 -91 701 211 
Q 384 513 384 1019 
Q 384 1609 779 1909 
Q 1175 2209 1959 2209 
L 2766 2209 
L 2766 2266 
Q 2766 2663 2505 2880 
Q 2244 3097 1772 3097 
Q 1472 3097 1187 3025 
Q 903 2953 641 2809 
L 641 3341 
Q 956 3463 1253 3523 
Q 1550 3584 1831 3584 
Q 2591 3584 2966 3190 
Q 3341 2797 3341 1997 
z
" transform="scale(0.015625)"/>
      <path id="DejaVuSans-64" d="M 2906 2969 
L 2906 4863 
L 3481 4863 
L 3481 0 
L 2906 0 
L 2906 525 
Q 2725 213 2448 61 
Q 2172 -91 1784 -91 
Q 1150 -91 751 415 
Q 353 922 353 1747 
Q 353 2572 751 3078 
Q 1150 3584 1784 3584 
Q 2172 3584 2448 3432 
Q 2725 3281 2906 2969 
z
M 947 1747 
Q 947 1113 1208 752 
Q 1469 391 1925 391 
Q 2381 391 2643 752 
Q 2906 1113 2906 1747 
Q 2906 2381 2643 2742 
Q 2381 3103 1925 3103 
Q 1469 3103 1208 2742 
Q 947 2381 947 1747 
z
" transform="scale(0.015625)"/>
      <path id="DejaVuSans-76" d="M 191 3500 
L 800 3500 
L 1894 563 
L 2988 3500 
L 3597 3500 
L 2284 0 
L 1503 0 
L 191 3500 
z
" transform="scale(0.015625)"/>
      <path id="DejaVuSans-53" d="M 3425 4513 
L 3425 3897 
Q 3066 4069 2747 4153 
Q 2428 4238 2131 4238 
Q 1616 4238 1336 4038 
Q 1056 3838 1056 3469 
Q 1056 3159 1242 3001 
Q 1428 2844 1947 2747 
L 2328 2669 
Q 3034 2534 3370 2195 
Q 3706 1856 3706 1288 
Q 3706 609 3251 259 
Q 2797 -91 1919 -91 
Q 1588 -91 1214 -16 
Q 841 59 441 206 
L 441 856 
Q 825 641 1194 531 
Q 1563 422 1919 422 
Q 2459 422 2753 634 
Q 3047 847 3047 1241 
Q 3047 1584 2836 1778 
Q 2625 1972 2144 2069 
L 1759 2144 
Q 1053 2284 737 2584 
Q 422 2884 422 3419 
Q 422 4038 858 4394 
Q 1294 4750 2059 4750 
Q 2388 4750 2728 4690 
Q 3069 4631 3425 4513 
z
" transform="scale(0.015625)"/>
      <path id="DejaVuSans-4f" d="M 2522 4238 
Q 1834 4238 1429 3725 
Q 1025 3213 1025 2328 
Q 1025 1447 1429 934 
Q 1834 422 2522 422 
Q 3209 422 3611 934 
Q 4013 1447 4013 2328 
Q 4013 3213 3611 3725 
Q 3209 4238 2522 4238 
z
M 2522 4750 
Q 3503 4750 4090 4092 
Q 4678 3434 4678 2328 
Q 4678 1225 4090 567 
Q 3503 -91 2522 -91 
Q 1538 -91 948 565 
Q 359 1222 359 2328 
Q 359 3434 948 4092 
Q 1538 4750 2522 4750 
z
" transform="scale(0.015625)"/>
      <path id="DejaVuSans-72" d="M 2631 2963 
Q 2534 3019 2420 3045 
Q 2306 3072 2169 3072 
Q 1681 3072 1420 2755 
Q 1159 2438 1159 1844 
L 1159 0 
L 581 0 
L 581 3500 
L 1159 3500 
L 1159 2956 
Q 1341 3275 1631 3429 
Q 1922 3584 2338 3584 
Q 2397 3584 2469 3576 
Q 2541 3569 2628 3553 
L 2631 2963 
z
" transform="scale(0.015625)"/>
      <path id="DejaVuSans-66" d="M 2375 4863 
L 2375 4384 
L 1825 4384 
Q 1516 4384 1395 4259 
Q 1275 4134 1275 3809 
L 1275 3500 
L 2222 3500 
L 2222 3053 
L 1275 3053 
L 1275 0 
L 697 0 
L 697 3053 
L 147 3053 
L 147 3500 
L 697 3500 
L 697 3744 
Q 697 4328 969 4595 
Q 1241 4863 1831 4863 
L 2375 4863 
z
" transform="scale(0.015625)"/>
      <path id="DejaVuSans-47" d="M 3809 666 
L 3809 1919 
L 2778 1919 
L 2778 2438 
L 4434 2438 
L 4434 434 
Q 4069 175 3628 42 
Q 3188 -91 2688 -91 
Q 1594 -91 976 548 
Q 359 1188 359 2328 
Q 359 3472 976 4111 
Q 1594 4750 2688 4750 
Q 3144 4750 3555 4637 
Q 3966 4525 4313 4306 
L 4313 3634 
Q 3963 3931 3569 4081 
Q 3175 4231 2741 4231 
Q 1884 4231 1454 3753 
Q 1025 3275 1025 2328 
Q 1025 1384 1454 906 
Q 1884 428 2741 428 
Q 3075 428 3337 486 
Q 3600 544 3809 666 
z
" transform="scale(0.015625)"/>
      <path id="DejaVuSans-70" d="M 1159 525 
L 1159 -1331 
L 581 -1331 
L 581 3500 
L 1159 3500 
L 1159 2969 
Q 1341 3281 1617 3432 
Q 1894 3584 2278 3584 
Q 2916 3584 3314 3078 
Q 3713 2572 3713 1747 
Q 3713 922 3314 415 
Q 2916 -91 2278 -91 
Q 1894 -91 1617 61 
Q 1341 213 1159 525 
z
M 3116 1747 
Q 3116 2381 2855 2742 
Q 2594 3103 2138 3103 
Q 1681 3103 1420 2742 
Q 1159 2381 1159 1747 
Q 1159 1113 1420 752 
Q 1681 391 2138 391 
Q 2594 391 2855 752 
Q 3116 1113 3116 1747 
z
" transform="scale(0.015625)"/>
      <path id="DejaVuSans-4d" d="M 628 4666 
L 1569 4666 
L 2759 1491 
L 3956 4666 
L 4897 4666 
L 4897 0 
L 4281 0 
L 4281 4097 
L 3078 897 
L 2444 897 
L 1241 4097 
L 1241 0 
L 628 0 
L 628 4666 
z
" transform="scale(0.015625)"/>
      <path id="DejaVuSans-73" d="M 2834 3397 
L 2834 2853 
Q 2591 2978 2328 3040 
Q 2066 3103 1784 3103 
Q 1356 3103 1142 2972 
Q 928 2841 928 2578 
Q 928 2378 1081 2264 
Q 1234 2150 1697 2047 
L 1894 2003 
Q 2506 1872 2764 1633 
Q 3022 1394 3022 966 
Q 3022 478 2636 193 
Q 2250 -91 1575 -91 
Q 1294 -91 989 -36 
Q 684 19 347 128 
L 347 722 
Q 666 556 975 473 
Q 1284 391 1588 391 
Q 1994 391 2212 530 
Q 2431 669 2431 922 
Q 2431 1156 2273 1281 
Q 2116 1406 1581 1522 
L 1381 1569 
Q 847 1681 609 1914 
Q 372 2147 372 2553 
Q 372 3047 722 3315 
Q 1072 3584 1716 3584 
Q 2034 3584 2315 3537 
Q 2597 3491 2834 3397 
z
" transform="scale(0.015625)"/>
     </defs>
     <use xlink:href="#DejaVuSans-50"/>
     <use xlink:href="#DejaVuSans-65" x="56.677734"/>
     <use xlink:href="#DejaVuSans-6c" x="118.201172"/>
     <use xlink:href="#DejaVuSans-6c" x="145.984375"/>
     <use xlink:href="#DejaVuSans-65" x="173.767578"/>
     <use xlink:href="#DejaVuSans-74" x="235.291016"/>
     <use xlink:href="#DejaVuSans-20" x="274.5"/>
     <use xlink:href="#DejaVuSans-43" x="306.287109"/>
     <use xlink:href="#DejaVuSans-6f" x="376.111328"/>
     <use xlink:href="#DejaVuSans-75" x="437.292969"/>
     <use xlink:href="#DejaVuSans-6e" x="500.671875"/>
     <use xlink:href="#DejaVuSans-74" x="564.050781"/>
     <use xlink:href="#DejaVuSans-20" x="603.259766"/>
     <use xlink:href="#DejaVuSans-61" x="635.046875"/>
     <use xlink:href="#DejaVuSans-6e" x="696.326172"/>
     <use xlink:href="#DejaVuSans-64" x="759.705078"/>
     <use xlink:href="#DejaVuSans-20" x="823.181641"/>
     <use xlink:href="#DejaVuSans-43" x="854.96875"/>
     <use xlink:href="#DejaVuSans-75" x="924.792969"/>
     <use xlink:href="#DejaVuSans-6d" x="988.171875"/>
     <use xlink:href="#DejaVuSans-75" x="1085.583984"/>
     <use xlink:href="#DejaVuSans-6c" x="1148.962891"/>
     <use xlink:href="#DejaVuSans-61" x="1176.746094"/>
     <use xlink:href="#DejaVuSans-74" x="1238.025391"/>
     <use xlink:href="#DejaVuSans-69" x="1277.234375"/>
     <use xlink:href="#DejaVuSans-76" x="1305.017578"/>
     <use xlink:href="#DejaVuSans-65" x="1364.197266"/>
     <use xlink:href="#DejaVuSans-20" x="1425.720703"/>
     <use xlink:href="#DejaVuSans-53" x="1457.507812"/>
     <use xlink:href="#DejaVuSans-75" x="1520.984375"/>
     <use xlink:href="#DejaVuSans-6d" x="1584.363281"/>
     <use xlink:href="#DejaVuSans-20" x="1681.775391"/>
     <use xlink:href="#DejaVuSans-4f" x="1713.5625"/>
     <use xlink:href="#DejaVuSans-76" x="1792.273438"/>
     <use xlink:href="#DejaVuSans-65" x="1851.453125"/>
     <use xlink:href="#DejaVuSans-72" x="1912.976562"/>
     <use xlink:href="#DejaVuSans-20" x="1954.089844"/>
     <use xlink:href="#DejaVuSans-54" x="1985.876953"/>
     <use xlink:href="#DejaVuSans-69" x="2043.835938"/>
     <use xlink:href="#DejaVuSans-6d" x="2071.619141"/>
     <use xlink:href="#DejaVuSans-65" x="2169.03125"/>
     <use xlink:href="#DejaVuSans-20" x="2230.554688"/>
     <use xlink:href="#DejaVuSans-6f" x="2262.341797"/>
     <use xlink:href="#DejaVuSans-66" x="2323.523438"/>
     <use xlink:href="#DejaVuSans-20" x="2358.728516"/>
     <use xlink:href="#DejaVuSans-47" x="2390.515625"/>
     <use xlink:href="#DejaVuSans-72" x="2468.005859"/>
     <use xlink:href="#DejaVuSans-6f" x="2506.869141"/>
     <use xlink:href="#DejaVuSans-75" x="2568.050781"/>
     <use xlink:href="#DejaVuSans-70" x="2631.429688"/>
     <use xlink:href="#DejaVuSans-20" x="2694.90625"/>
     <use xlink:href="#DejaVuSans-31" x="2726.693359"/>
     <use xlink:href="#DejaVuSans-20" x="2790.316406"/>
     <use xlink:href="#DejaVuSans-4d" x="2822.103516"/>
     <use xlink:href="#DejaVuSans-6f" x="2908.382812"/>
     <use xlink:href="#DejaVuSans-75" x="2969.564453"/>
     <use xlink:href="#DejaVuSans-73" x="3032.943359"/>
     <use xlink:href="#DejaVuSans-65" x="3085.042969"/>
     <use xlink:href="#DejaVuSans-20" x="3146.566406"/>
     <use xlink:href="#DejaVuSans-32" x="3178.353516"/>
    </g>
   </g>
   <g id="legend_1">
    <g id="patch_154">
     <path d="M 1086.550625 64.233437 
L 1158.235 64.233437 
Q 1160.235 64.233437 1160.235 62.233437 
L 1160.235 33.877187 
Q 1160.235 31.877187 1158.235 31.877187 
L 1086.550625 31.877187 
Q 1084.550625 31.877187 1084.550625 33.877187 
L 1084.550625 62.233437 
Q 1084.550625 64.233437 1086.550625 64.233437 
z
" style="fill: #ffffff; opacity: 0.8; stroke: #cccccc; stroke-linejoin: miter"/>
    </g>
    <g id="patch_155">
     <path d="M 1088.550625 43.475625 
L 1108.550625 43.475625 
L 1108.550625 36.475625 
L 1088.550625 36.475625 
z
" style="fill: #add8e6; opacity: 0.9; stroke: #add8e6; stroke-linejoin: miter"/>
    </g>
    <g id="text_14">
     <!-- Meal -->
     <g transform="translate(1116.550625 43.475625) scale(0.1 -0.1)">
      <use xlink:href="#DejaVuSans-4d"/>
      <use xlink:href="#DejaVuSans-65" x="86.279297"/>
      <use xlink:href="#DejaVuSans-61" x="147.802734"/>
      <use xlink:href="#DejaVuSans-6c" x="209.082031"/>
     </g>
    </g>
    <g id="patch_156">
     <path d="M 1088.550625 58.15375 
L 1108.550625 58.15375 
L 1108.550625 51.15375 
L 1088.550625 51.15375 
z
" style="fill: #808080; opacity: 0.5; stroke: #808080; stroke-linejoin: miter"/>
    </g>
    <g id="text_15">
     <!-- Inactive -->
     <g transform="translate(1116.550625 58.15375) scale(0.1 -0.1)">
      <defs>
       <path id="DejaVuSans-49" d="M 628 4666 
L 1259 4666 
L 1259 0 
L 628 0 
L 628 4666 
z
" transform="scale(0.015625)"/>
       <path id="DejaVuSans-63" d="M 3122 3366 
L 3122 2828 
Q 2878 2963 2633 3030 
Q 2388 3097 2138 3097 
Q 1578 3097 1268 2742 
Q 959 2388 959 1747 
Q 959 1106 1268 751 
Q 1578 397 2138 397 
Q 2388 397 2633 464 
Q 2878 531 3122 666 
L 3122 134 
Q 2881 22 2623 -34 
Q 2366 -91 2075 -91 
Q 1284 -91 818 406 
Q 353 903 353 1747 
Q 353 2603 823 3093 
Q 1294 3584 2113 3584 
Q 2378 3584 2631 3529 
Q 2884 3475 3122 3366 
z
" transform="scale(0.015625)"/>
      </defs>
      <use xlink:href="#DejaVuSans-49"/>
      <use xlink:href="#DejaVuSans-6e" x="29.492188"/>
      <use xlink:href="#DejaVuSans-61" x="92.871094"/>
      <use xlink:href="#DejaVuSans-63" x="154.150391"/>
      <use xlink:href="#DejaVuSans-74" x="209.130859"/>
      <use xlink:href="#DejaVuSans-69" x="248.339844"/>
      <use xlink:href="#DejaVuSans-76" x="276.123047"/>
      <use xlink:href="#DejaVuSans-65" x="335.302734"/>
     </g>
    </g>
   </g>
  </g>
 </g>
 <defs>
  <clipPath id="pb23a52bd8c">
   <rect x="49.235" y="26.877187" width="1116" height="332.64"/>
  </clipPath>
 </defs>
</svg>
