<?xml version="1.0" encoding="utf-8" standalone="no"?>
<!DOCTYPE svg PUBLIC "-//W3C//DTD SVG 1.1//EN"
  "http://www.w3.org/Graphics/SVG/1.1/DTD/svg11.dtd">
<svg xmlns:xlink="http://www.w3.org/1999/xlink" width="1172.435pt" height="399.009062pt" viewBox="0 0 1172.435 399.009062" xmlns="http://www.w3.org/2000/svg" version="1.1">
 <metadata>
  <rdf:RDF xmlns:dc="http://purl.org/dc/elements/1.1/" xmlns:cc="http://creativecommons.org/ns#" xmlns:rdf="http://www.w3.org/1999/02/22-rdf-syntax-ns#">
   <cc:Work>
    <dc:type rdf:resource="http://purl.org/dc/dcmitype/StillImage"/>
    <dc:date>2025-04-09T09:55:41.733395</dc:date>
    <dc:format>image/svg+xml</dc:format>
    <dc:creator>
     <cc:Agent>
      <dc:title>Matplotlib v3.8.3, https://matplotlib.org/</dc:title>
     </cc:Agent>
    </dc:creator>
   </cc:Work>
  </rdf:RDF>
 </metadata>
 <defs>
  <style type="text/css">*{stroke-linejoin: round; stroke-linecap: butt}</style>
 </defs>
 <g id="figure_1">
  <g id="patch_1">
   <path d="M 0 399.009062 
L 1172.435 399.009062 
L 1172.435 0 
L 0 0 
z
" style="fill: #ffffff"/>
  </g>
  <g id="axes_1">
   <g id="patch_2">
    <path d="M 49.235 359.517187 
L 1165.235 359.517187 
L 1165.235 26.877187 
L 49.235 26.877187 
z
" style="fill: #ffffff"/>
   </g>
   <g id="patch_3">
    <path d="M 117.651046 359.517187 
L 117.651046 26.877187 
L 116.684476 26.877187 
L 116.684476 359.517187 
z
" clip-path="url(#p7318c4306e)" style="fill: #add8e6; stroke: #add8e6; stroke-linejoin: miter"/>
   </g>
   <g id="patch_4">
    <path d="M 149.645976 359.517187 
L 149.645976 26.877187 
L 149.849785 26.877187 
L 149.849785 359.517187 
z
" clip-path="url(#p7318c4306e)" style="fill: #add8e6; stroke: #add8e6; stroke-linejoin: miter"/>
   </g>
   <g id="patch_5">
    <path d="M 156.904761 359.517187 
L 156.904761 26.877187 
L 156.828713 26.877187 
L 156.828713 359.517187 
z
" clip-path="url(#p7318c4306e)" style="fill: #add8e6; stroke: #add8e6; stroke-linejoin: miter"/>
   </g>
   <g id="patch_6">
    <path d="M 164.436559 359.517187 
L 164.436559 26.877187 
L 164.510326 26.877187 
L 164.510326 359.517187 
z
" clip-path="url(#p7318c4306e)" style="fill: #add8e6; stroke: #add8e6; stroke-linejoin: miter"/>
   </g>
   <g id="patch_7">
    <path d="M 164.720979 359.517187 
L 164.720979 26.877187 
L 164.799308 26.877187 
L 164.799308 359.517187 
z
" clip-path="url(#p7318c4306e)" style="fill: #add8e6; stroke: #add8e6; stroke-linejoin: miter"/>
   </g>
   <g id="patch_8">
    <path d="M 168.378889 359.517187 
L 168.378889 26.877187 
L 168.213865 26.877187 
L 168.213865 359.517187 
z
" clip-path="url(#p7318c4306e)" style="fill: #add8e6; stroke: #add8e6; stroke-linejoin: miter"/>
   </g>
   <g id="patch_9">
    <path d="M 199.087087 359.517187 
L 199.087087 26.877187 
L 199.249069 26.877187 
L 199.249069 359.517187 
z
" clip-path="url(#p7318c4306e)" style="fill: #add8e6; stroke: #add8e6; stroke-linejoin: miter"/>
   </g>
   <g id="patch_10">
    <path d="M 211.577216 359.517187 
L 211.577216 26.877187 
L 211.793193 26.877187 
L 211.793193 359.517187 
z
" clip-path="url(#p7318c4306e)" style="fill: #add8e6; stroke: #add8e6; stroke-linejoin: miter"/>
   </g>
   <g id="patch_11">
    <path d="M 223.50459 359.517187 
L 223.50459 26.877187 
L 223.676459 26.877187 
L 223.676459 359.517187 
z
" clip-path="url(#p7318c4306e)" style="fill: #add8e6; stroke: #add8e6; stroke-linejoin: miter"/>
   </g>
   <g id="patch_12">
    <path d="M 232.042503 359.517187 
L 232.042503 26.877187 
L 232.231103 26.877187 
L 232.231103 359.517187 
z
" clip-path="url(#p7318c4306e)" style="fill: #add8e6; stroke: #add8e6; stroke-linejoin: miter"/>
   </g>
   <g id="patch_13">
    <path d="M 255.391532 359.517187 
L 255.391532 26.877187 
L 255.52994 26.877187 
L 255.52994 359.517187 
z
" clip-path="url(#p7318c4306e)" style="fill: #add8e6; stroke: #add8e6; stroke-linejoin: miter"/>
   </g>
   <g id="patch_14">
    <path d="M 255.839455 359.517187 
L 255.839455 26.877187 
L 256.003719 26.877187 
L 256.003719 359.517187 
z
" clip-path="url(#p7318c4306e)" style="fill: #add8e6; stroke: #add8e6; stroke-linejoin: miter"/>
   </g>
   <g id="patch_15">
    <path d="M 256.087372 359.517187 
L 256.087372 26.877187 
L 256.218935 26.877187 
L 256.218935 359.517187 
z
" clip-path="url(#p7318c4306e)" style="fill: #add8e6; stroke: #add8e6; stroke-linejoin: miter"/>
   </g>
   <g id="patch_16">
    <path d="M 256.328444 359.517187 
L 256.328444 26.877187 
L 256.49575 26.877187 
L 256.49575 359.517187 
z
" clip-path="url(#p7318c4306e)" style="fill: #add8e6; stroke: #add8e6; stroke-linejoin: miter"/>
   </g>
   <g id="patch_17">
    <path d="M 256.63796 359.517187 
L 256.63796 26.877187 
L 256.755074 26.877187 
L 256.755074 359.517187 
z
" clip-path="url(#p7318c4306e)" style="fill: #add8e6; stroke: #add8e6; stroke-linejoin: miter"/>
   </g>
   <g id="patch_18">
    <path d="M 280.422744 359.517187 
L 280.422744 26.877187 
L 280.43263 26.877187 
L 280.43263 359.517187 
z
" clip-path="url(#p7318c4306e)" style="fill: #add8e6; stroke: #add8e6; stroke-linejoin: miter"/>
   </g>
   <g id="patch_19">
    <path d="M 323.631717 359.517187 
L 323.631717 26.877187 
L 323.732101 26.877187 
L 323.732101 359.517187 
z
" clip-path="url(#p7318c4306e)" style="fill: #add8e6; stroke: #add8e6; stroke-linejoin: miter"/>
   </g>
   <g id="patch_20">
    <path d="M 324.371665 359.517187 
L 324.371665 26.877187 
L 324.36482 26.877187 
L 324.36482 359.517187 
z
" clip-path="url(#p7318c4306e)" style="fill: #add8e6; stroke: #add8e6; stroke-linejoin: miter"/>
   </g>
   <g id="patch_21">
    <path d="M 357.189435 359.517187 
L 357.189435 26.877187 
L 357.364345 26.877187 
L 357.364345 359.517187 
z
" clip-path="url(#p7318c4306e)" style="fill: #add8e6; stroke: #add8e6; stroke-linejoin: miter"/>
   </g>
   <g id="patch_22">
    <path d="M 371.77925 359.517187 
L 371.77925 26.877187 
L 371.973173 26.877187 
L 371.973173 359.517187 
z
" clip-path="url(#p7318c4306e)" style="fill: #add8e6; stroke: #add8e6; stroke-linejoin: miter"/>
   </g>
   <g id="patch_23">
    <path d="M 387.668727 359.517187 
L 387.668727 26.877187 
L 387.808656 26.877187 
L 387.808656 359.517187 
z
" clip-path="url(#p7318c4306e)" style="fill: #add8e6; stroke: #add8e6; stroke-linejoin: miter"/>
   </g>
   <g id="patch_24">
    <path d="M 387.986608 359.517187 
L 387.986608 26.877187 
L 388.064177 26.877187 
L 388.064177 359.517187 
z
" clip-path="url(#p7318c4306e)" style="fill: #add8e6; stroke: #add8e6; stroke-linejoin: miter"/>
   </g>
   <g id="patch_25">
    <path d="M 407.49293 359.517187 
L 407.49293 26.877187 
L 407.613085 26.877187 
L 407.613085 359.517187 
z
" clip-path="url(#p7318c4306e)" style="fill: #add8e6; stroke: #add8e6; stroke-linejoin: miter"/>
   </g>
   <g id="patch_26">
    <path d="M 407.736283 359.517187 
L 407.736283 26.877187 
L 407.781912 26.877187 
L 407.781912 359.517187 
z
" clip-path="url(#p7318c4306e)" style="fill: #add8e6; stroke: #add8e6; stroke-linejoin: miter"/>
   </g>
   <g id="patch_27">
    <path d="M 418.874279 359.517187 
L 418.874279 26.877187 
L 419.101662 26.877187 
L 419.101662 359.517187 
z
" clip-path="url(#p7318c4306e)" style="fill: #add8e6; stroke: #add8e6; stroke-linejoin: miter"/>
   </g>
   <g id="patch_28">
    <path d="M 422.936765 359.517187 
L 422.936765 26.877187 
L 423.099508 26.877187 
L 423.099508 359.517187 
z
" clip-path="url(#p7318c4306e)" style="fill: #add8e6; stroke: #add8e6; stroke-linejoin: miter"/>
   </g>
   <g id="patch_29">
    <path d="M 444.842402 359.517187 
L 444.842402 26.877187 
L 445.054576 26.877187 
L 445.054576 359.517187 
z
" clip-path="url(#p7318c4306e)" style="fill: #add8e6; stroke: #add8e6; stroke-linejoin: miter"/>
   </g>
   <g id="patch_30">
    <path d="M 445.138989 359.517187 
L 445.138989 26.877187 
L 445.304014 26.877187 
L 445.304014 359.517187 
z
" clip-path="url(#p7318c4306e)" style="fill: #add8e6; stroke: #add8e6; stroke-linejoin: miter"/>
   </g>
   <g id="patch_31">
    <path d="M 457.506682 359.517187 
L 457.506682 26.877187 
L 457.689197 26.877187 
L 457.689197 359.517187 
z
" clip-path="url(#p7318c4306e)" style="fill: #add8e6; stroke: #add8e6; stroke-linejoin: miter"/>
   </g>
   <g id="patch_32">
    <path d="M 457.944718 359.517187 
L 457.944718 26.877187 
L 458.087689 26.877187 
L 458.087689 359.517187 
z
" clip-path="url(#p7318c4306e)" style="fill: #add8e6; stroke: #add8e6; stroke-linejoin: miter"/>
   </g>
   <g id="patch_33">
    <path d="M 478.410006 359.517187 
L 478.410006 26.877187 
L 478.470844 26.877187 
L 478.470844 359.517187 
z
" clip-path="url(#p7318c4306e)" style="fill: #add8e6; stroke: #add8e6; stroke-linejoin: miter"/>
   </g>
   <g id="patch_34">
    <path d="M 488.278759 359.517187 
L 488.278759 26.877187 
L 488.382945 26.877187 
L 488.382945 359.517187 
z
" clip-path="url(#p7318c4306e)" style="fill: #add8e6; stroke: #add8e6; stroke-linejoin: miter"/>
   </g>
   <g id="patch_35">
    <path d="M 491.2241 359.517187 
L 491.2241 26.877187 
L 491.385322 26.877187 
L 491.385322 359.517187 
z
" clip-path="url(#p7318c4306e)" style="fill: #add8e6; stroke: #add8e6; stroke-linejoin: miter"/>
   </g>
   <g id="patch_36">
    <path d="M 498.888981 359.517187 
L 498.888981 26.877187 
L 499.085946 26.877187 
L 499.085946 359.517187 
z
" clip-path="url(#p7318c4306e)" style="fill: #add8e6; stroke: #add8e6; stroke-linejoin: miter"/>
   </g>
   <g id="patch_37">
    <path d="M 503.200145 359.517187 
L 503.200145 26.877187 
L 503.25642 26.877187 
L 503.25642 359.517187 
z
" clip-path="url(#p7318c4306e)" style="fill: #add8e6; stroke: #add8e6; stroke-linejoin: miter"/>
   </g>
   <g id="patch_38">
    <path d="M 503.497492 359.517187 
L 503.497492 26.877187 
L 503.629056 26.877187 
L 503.629056 359.517187 
z
" clip-path="url(#p7318c4306e)" style="fill: #add8e6; stroke: #add8e6; stroke-linejoin: miter"/>
   </g>
   <g id="patch_39">
    <path d="M 514.119882 359.517187 
L 514.119882 26.877187 
L 514.322931 26.877187 
L 514.322931 359.517187 
z
" clip-path="url(#p7318c4306e)" style="fill: #add8e6; stroke: #add8e6; stroke-linejoin: miter"/>
   </g>
   <g id="patch_40">
    <path d="M 514.824848 359.517187 
L 514.824848 26.877187 
L 514.613434 26.877187 
L 514.613434 359.517187 
z
" clip-path="url(#p7318c4306e)" style="fill: #add8e6; stroke: #add8e6; stroke-linejoin: miter"/>
   </g>
   <g id="patch_41">
    <path d="M 524.8495 359.517187 
L 524.8495 26.877187 
L 524.99247 26.877187 
L 524.99247 359.517187 
z
" clip-path="url(#p7318c4306e)" style="fill: #add8e6; stroke: #add8e6; stroke-linejoin: miter"/>
   </g>
   <g id="patch_42">
    <path d="M 525.105782 359.517187 
L 525.105782 26.877187 
L 525.322519 26.877187 
L 525.322519 359.517187 
z
" clip-path="url(#p7318c4306e)" style="fill: #add8e6; stroke: #add8e6; stroke-linejoin: miter"/>
   </g>
   <g id="patch_43">
    <path d="M 535.247548 359.517187 
L 535.247548 26.877187 
L 535.433105 26.877187 
L 535.433105 359.517187 
z
" clip-path="url(#p7318c4306e)" style="fill: #add8e6; stroke: #add8e6; stroke-linejoin: miter"/>
   </g>
   <g id="patch_44">
    <path d="M 535.639195 359.517187 
L 535.639195 26.877187 
L 535.722848 26.877187 
L 535.722848 359.517187 
z
" clip-path="url(#p7318c4306e)" style="fill: #add8e6; stroke: #add8e6; stroke-linejoin: miter"/>
   </g>
   <g id="patch_45">
    <path d="M 552.388015 359.517187 
L 552.388015 26.877187 
L 548.063924 26.877187 
L 548.063924 359.517187 
z
" clip-path="url(#p7318c4306e)" style="fill: #add8e6; stroke: #add8e6; stroke-linejoin: miter"/>
   </g>
   <g id="patch_46">
    <path d="M 582.386684 359.517187 
L 582.386684 26.877187 
L 582.521289 26.877187 
L 582.521289 359.517187 
z
" clip-path="url(#p7318c4306e)" style="fill: #add8e6; stroke: #add8e6; stroke-linejoin: miter"/>
   </g>
   <g id="patch_47">
    <path d="M 582.669583 359.517187 
L 582.669583 26.877187 
L 582.880236 26.877187 
L 582.880236 359.517187 
z
" clip-path="url(#p7318c4306e)" style="fill: #add8e6; stroke: #add8e6; stroke-linejoin: miter"/>
   </g>
   <g id="patch_48">
    <path d="M 582.975296 359.517187 
L 582.975296 26.877187 
L 583.176823 26.877187 
L 583.176823 359.517187 
z
" clip-path="url(#p7318c4306e)" style="fill: #add8e6; stroke: #add8e6; stroke-linejoin: miter"/>
   </g>
   <g id="patch_49">
    <path d="M 604.944053 359.517187 
L 604.944053 26.877187 
L 605.109077 26.877187 
L 605.109077 359.517187 
z
" clip-path="url(#p7318c4306e)" style="fill: #add8e6; stroke: #add8e6; stroke-linejoin: miter"/>
   </g>
   <g id="patch_50">
    <path d="M 637.396792 359.517187 
L 637.396792 26.877187 
L 637.564858 26.877187 
L 637.564858 359.517187 
z
" clip-path="url(#p7318c4306e)" style="fill: #add8e6; stroke: #add8e6; stroke-linejoin: miter"/>
   </g>
   <g id="patch_51">
    <path d="M 637.650793 359.517187 
L 637.650793 26.877187 
L 637.739769 26.877187 
L 637.739769 359.517187 
z
" clip-path="url(#p7318c4306e)" style="fill: #add8e6; stroke: #add8e6; stroke-linejoin: miter"/>
   </g>
   <g id="patch_52">
    <path d="M 650.251952 359.517187 
L 650.251952 26.877187 
L 650.434468 26.877187 
L 650.434468 359.517187 
z
" clip-path="url(#p7318c4306e)" style="fill: #add8e6; stroke: #add8e6; stroke-linejoin: miter"/>
   </g>
   <g id="patch_53">
    <path d="M 668.792464 359.517187 
L 668.792464 26.877187 
L 668.989428 26.877187 
L 668.989428 359.517187 
z
" clip-path="url(#p7318c4306e)" style="fill: #add8e6; stroke: #add8e6; stroke-linejoin: miter"/>
   </g>
   <g id="patch_54">
    <path d="M 669.121752 359.517187 
L 669.121752 26.877187 
L 669.317195 26.877187 
L 669.317195 359.517187 
z
" clip-path="url(#p7318c4306e)" style="fill: #add8e6; stroke: #add8e6; stroke-linejoin: miter"/>
   </g>
   <g id="patch_55">
    <path d="M 684.703234 359.517187 
L 684.703234 26.877187 
L 684.609695 26.877187 
L 684.609695 359.517187 
z
" clip-path="url(#p7318c4306e)" style="fill: #add8e6; stroke: #add8e6; stroke-linejoin: miter"/>
   </g>
   <g id="patch_56">
    <path d="M 698.2953 359.517187 
L 698.2953 26.877187 
L 698.308228 26.877187 
L 698.308228 359.517187 
z
" clip-path="url(#p7318c4306e)" style="fill: #add8e6; stroke: #add8e6; stroke-linejoin: miter"/>
   </g>
   <g id="patch_57">
    <path d="M 698.562989 359.517187 
L 698.562989 26.877187 
L 698.491504 26.877187 
L 698.491504 359.517187 
z
" clip-path="url(#p7318c4306e)" style="fill: #add8e6; stroke: #add8e6; stroke-linejoin: miter"/>
   </g>
   <g id="patch_58">
    <path d="M 708.119946 359.517187 
L 708.119946 26.877187 
L 708.219569 26.877187 
L 708.219569 359.517187 
z
" clip-path="url(#p7318c4306e)" style="fill: #add8e6; stroke: #add8e6; stroke-linejoin: miter"/>
   </g>
   <g id="patch_59">
    <path d="M 708.499425 359.517187 
L 708.499425 26.877187 
L 708.720725 26.877187 
L 708.720725 359.517187 
z
" clip-path="url(#p7318c4306e)" style="fill: #add8e6; stroke: #add8e6; stroke-linejoin: miter"/>
   </g>
   <g id="patch_60">
    <path d="M 708.76027 359.517187 
L 708.76027 26.877187 
L 708.896396 26.877187 
L 708.896396 359.517187 
z
" clip-path="url(#p7318c4306e)" style="fill: #add8e6; stroke: #add8e6; stroke-linejoin: miter"/>
   </g>
   <g id="patch_61">
    <path d="M 718.870096 359.517187 
L 718.870096 26.877187 
L 719.004701 26.877187 
L 719.004701 359.517187 
z
" clip-path="url(#p7318c4306e)" style="fill: #add8e6; stroke: #add8e6; stroke-linejoin: miter"/>
   </g>
   <g id="patch_62">
    <path d="M 719.241971 359.517187 
L 719.241971 26.877187 
L 719.297486 26.877187 
L 719.297486 359.517187 
z
" clip-path="url(#p7318c4306e)" style="fill: #add8e6; stroke: #add8e6; stroke-linejoin: miter"/>
   </g>
   <g id="patch_63">
    <path d="M 733.529876 359.517187 
L 733.529876 26.877187 
L 733.738248 26.877187 
L 733.738248 359.517187 
z
" clip-path="url(#p7318c4306e)" style="fill: #add8e6; stroke: #add8e6; stroke-linejoin: miter"/>
   </g>
   <g id="patch_64">
    <path d="M 737.507949 359.517187 
L 737.507949 26.877187 
L 737.623542 26.877187 
L 737.623542 359.517187 
z
" clip-path="url(#p7318c4306e)" style="fill: #add8e6; stroke: #add8e6; stroke-linejoin: miter"/>
   </g>
   <g id="patch_65">
    <path d="M 741.225938 359.517187 
L 741.225938 26.877187 
L 741.432788 26.877187 
L 741.432788 359.517187 
z
" clip-path="url(#p7318c4306e)" style="fill: #add8e6; stroke: #add8e6; stroke-linejoin: miter"/>
   </g>
   <g id="patch_66">
    <path d="M 741.524046 359.517187 
L 741.524046 26.877187 
L 741.733178 26.877187 
L 741.733178 359.517187 
z
" clip-path="url(#p7318c4306e)" style="fill: #add8e6; stroke: #add8e6; stroke-linejoin: miter"/>
   </g>
   <g id="patch_67">
    <path d="M 761.364979 359.517187 
L 761.364979 26.877187 
L 756.847725 26.877187 
L 756.847725 359.517187 
z
" clip-path="url(#p7318c4306e)" style="fill: #add8e6; stroke: #add8e6; stroke-linejoin: miter"/>
   </g>
   <g id="patch_68">
    <path d="M 777.763217 359.517187 
L 777.763217 26.877187 
L 773.391215 26.877187 
L 773.391215 359.517187 
z
" clip-path="url(#p7318c4306e)" style="fill: #add8e6; stroke: #add8e6; stroke-linejoin: miter"/>
   </g>
   <g id="patch_69">
    <path d="M 779.901688 359.517187 
L 779.901688 26.877187 
L 780.078119 26.877187 
L 780.078119 359.517187 
z
" clip-path="url(#p7318c4306e)" style="fill: #add8e6; stroke: #add8e6; stroke-linejoin: miter"/>
   </g>
   <g id="patch_70">
    <path d="M 789.364345 359.517187 
L 789.364345 26.877187 
L 788.791703 26.877187 
L 788.791703 359.517187 
z
" clip-path="url(#p7318c4306e)" style="fill: #add8e6; stroke: #add8e6; stroke-linejoin: miter"/>
   </g>
   <g id="patch_71">
    <path d="M 792.650381 359.517187 
L 792.650381 26.877187 
L 792.715782 26.877187 
L 792.715782 359.517187 
z
" clip-path="url(#p7318c4306e)" style="fill: #add8e6; stroke: #add8e6; stroke-linejoin: miter"/>
   </g>
   <g id="patch_72">
    <path d="M 801.962463 359.517187 
L 801.962463 26.877187 
L 802.188326 26.877187 
L 802.188326 359.517187 
z
" clip-path="url(#p7318c4306e)" style="fill: #add8e6; stroke: #add8e6; stroke-linejoin: miter"/>
   </g>
   <g id="patch_73">
    <path d="M 804.017281 359.517187 
L 804.017281 26.877187 
L 804.084964 26.877187 
L 804.084964 359.517187 
z
" clip-path="url(#p7318c4306e)" style="fill: #add8e6; stroke: #add8e6; stroke-linejoin: miter"/>
   </g>
   <g id="patch_74">
    <path d="M 810.01671 359.517187 
L 810.01671 26.877187 
L 810.240292 26.877187 
L 810.240292 359.517187 
z
" clip-path="url(#p7318c4306e)" style="fill: #add8e6; stroke: #add8e6; stroke-linejoin: miter"/>
   </g>
   <g id="patch_75">
    <path d="M 813.395525 359.517187 
L 813.395525 26.877187 
L 813.46701 26.877187 
L 813.46701 359.517187 
z
" clip-path="url(#p7318c4306e)" style="fill: #add8e6; stroke: #add8e6; stroke-linejoin: miter"/>
   </g>
   <g id="patch_76">
    <path d="M 813.692873 359.517187 
L 813.692873 26.877187 
L 813.822915 26.877187 
L 813.822915 359.517187 
z
" clip-path="url(#p7318c4306e)" style="fill: #add8e6; stroke: #add8e6; stroke-linejoin: miter"/>
   </g>
   <g id="patch_77">
    <path d="M 835.150587 359.517187 
L 835.150587 26.877187 
L 834.409118 26.877187 
L 834.409118 359.517187 
z
" clip-path="url(#p7318c4306e)" style="fill: #add8e6; stroke: #add8e6; stroke-linejoin: miter"/>
   </g>
   <g id="patch_78">
    <path d="M 851.381519 359.517187 
L 851.381519 26.877187 
L 851.6051 26.877187 
L 851.6051 359.517187 
z
" clip-path="url(#p7318c4306e)" style="fill: #add8e6; stroke: #add8e6; stroke-linejoin: miter"/>
   </g>
   <g id="patch_79">
    <path d="M 851.751873 359.517187 
L 851.751873 26.877187 
L 851.88952 26.877187 
L 851.88952 359.517187 
z
" clip-path="url(#p7318c4306e)" style="fill: #add8e6; stroke: #add8e6; stroke-linejoin: miter"/>
   </g>
   <g id="patch_80">
    <path d="M 861.948394 359.517187 
L 861.948394 26.877187 
L 862.1157 26.877187 
L 862.1157 359.517187 
z
" clip-path="url(#p7318c4306e)" style="fill: #add8e6; stroke: #add8e6; stroke-linejoin: miter"/>
   </g>
   <g id="patch_81">
    <path d="M 880.481301 359.517187 
L 880.481301 26.877187 
L 880.644804 26.877187 
L 880.644804 359.517187 
z
" clip-path="url(#p7318c4306e)" style="fill: #add8e6; stroke: #add8e6; stroke-linejoin: miter"/>
   </g>
   <g id="patch_82">
    <path d="M 890.420779 359.517187 
L 890.420779 26.877187 
L 890.559186 26.877187 
L 890.559186 359.517187 
z
" clip-path="url(#p7318c4306e)" style="fill: #add8e6; stroke: #add8e6; stroke-linejoin: miter"/>
   </g>
   <g id="patch_83">
    <path d="M 890.705959 359.517187 
L 890.705959 26.877187 
L 890.826876 26.877187 
L 890.826876 359.517187 
z
" clip-path="url(#p7318c4306e)" style="fill: #add8e6; stroke: #add8e6; stroke-linejoin: miter"/>
   </g>
   <g id="patch_84">
    <path d="M 906.444861 359.517187 
L 906.444861 26.877187 
L 906.542202 26.877187 
L 906.542202 359.517187 
z
" clip-path="url(#p7318c4306e)" style="fill: #add8e6; stroke: #add8e6; stroke-linejoin: miter"/>
   </g>
   <g id="patch_85">
    <path d="M 912.256452 359.517187 
L 912.256452 26.877187 
L 912.122607 26.877187 
L 912.122607 359.517187 
z
" clip-path="url(#p7318c4306e)" style="fill: #add8e6; stroke: #add8e6; stroke-linejoin: miter"/>
   </g>
   <g id="patch_86">
    <path d="M 924.321473 359.517187 
L 924.321473 26.877187 
L 924.342006 26.877187 
L 924.342006 359.517187 
z
" clip-path="url(#p7318c4306e)" style="fill: #add8e6; stroke: #add8e6; stroke-linejoin: miter"/>
   </g>
   <g id="patch_87">
    <path d="M 924.579276 359.517187 
L 924.579276 26.877187 
L 924.652282 26.877187 
L 924.652282 359.517187 
z
" clip-path="url(#p7318c4306e)" style="fill: #add8e6; stroke: #add8e6; stroke-linejoin: miter"/>
   </g>
   <g id="patch_88">
    <path d="M 928.088132 359.517187 
L 928.088132 26.877187 
L 925.161043 26.877187 
L 925.161043 359.517187 
z
" clip-path="url(#p7318c4306e)" style="fill: #add8e6; stroke: #add8e6; stroke-linejoin: miter"/>
   </g>
   <g id="patch_89">
    <path d="M 966.153977 359.517187 
L 966.153977 26.877187 
L 966.267289 26.877187 
L 966.267289 359.517187 
z
" clip-path="url(#p7318c4306e)" style="fill: #add8e6; stroke: #add8e6; stroke-linejoin: miter"/>
   </g>
   <g id="patch_90">
    <path d="M 983.341594 359.517187 
L 983.341594 26.877187 
L 983.558331 26.877187 
L 983.558331 359.517187 
z
" clip-path="url(#p7318c4306e)" style="fill: #add8e6; stroke: #add8e6; stroke-linejoin: miter"/>
   </g>
   <g id="patch_91">
    <path d="M 995.980017 359.517187 
L 995.980017 26.877187 
L 996.132874 26.877187 
L 996.132874 359.517187 
z
" clip-path="url(#p7318c4306e)" style="fill: #add8e6; stroke: #add8e6; stroke-linejoin: miter"/>
   </g>
   <g id="patch_92">
    <path d="M 996.270521 359.517187 
L 996.270521 26.877187 
L 996.453036 26.877187 
L 996.453036 359.517187 
z
" clip-path="url(#p7318c4306e)" style="fill: #add8e6; stroke: #add8e6; stroke-linejoin: miter"/>
   </g>
   <g id="patch_93">
    <path d="M 1011.864931 359.517187 
L 1011.864931 26.877187 
L 1012.071021 26.877187 
L 1012.071021 359.517187 
z
" clip-path="url(#p7318c4306e)" style="fill: #add8e6; stroke: #add8e6; stroke-linejoin: miter"/>
   </g>
   <g id="patch_94">
    <path d="M 1012.486244 359.517187 
L 1012.486244 26.877187 
L 1012.615525 26.877187 
L 1012.615525 359.517187 
z
" clip-path="url(#p7318c4306e)" style="fill: #add8e6; stroke: #add8e6; stroke-linejoin: miter"/>
   </g>
   <g id="patch_95">
    <path d="M 1022.259937 359.517187 
L 1022.259937 26.877187 
L 1022.24777 26.877187 
L 1022.24777 359.517187 
z
" clip-path="url(#p7318c4306e)" style="fill: #add8e6; stroke: #add8e6; stroke-linejoin: miter"/>
   </g>
   <g id="patch_96">
    <path d="M 1055.273151 359.517187 
L 1055.273151 26.877187 
L 1055.444259 26.877187 
L 1055.444259 359.517187 
z
" clip-path="url(#p7318c4306e)" style="fill: #add8e6; stroke: #add8e6; stroke-linejoin: miter"/>
   </g>
   <g id="patch_97">
    <path d="M 1063.37683 359.517187 
L 1063.37683 26.877187 
L 1063.604213 26.877187 
L 1063.604213 359.517187 
z
" clip-path="url(#p7318c4306e)" style="fill: #add8e6; stroke: #add8e6; stroke-linejoin: miter"/>
   </g>
   <g id="patch_98">
    <path d="M 1069.552691 359.517187 
L 1069.552691 26.877187 
L 1069.650793 26.877187 
L 1069.650793 359.517187 
z
" clip-path="url(#p7318c4306e)" style="fill: #add8e6; stroke: #add8e6; stroke-linejoin: miter"/>
   </g>
   <g id="patch_99">
    <path d="M 1078.570467 359.517187 
L 1078.570467 26.877187 
L 1078.729407 26.877187 
L 1078.729407 359.517187 
z
" clip-path="url(#p7318c4306e)" style="fill: #add8e6; stroke: #add8e6; stroke-linejoin: miter"/>
   </g>
   <g id="patch_100">
    <path d="M 1085.573731 359.517187 
L 1085.573731 26.877187 
L 1085.684761 26.877187 
L 1085.684761 359.517187 
z
" clip-path="url(#p7318c4306e)" style="fill: #add8e6; stroke: #add8e6; stroke-linejoin: miter"/>
   </g>
   <g id="patch_101">
    <path d="M 1085.876402 359.517187 
L 1085.876402 26.877187 
L 1085.918228 26.877187 
L 1085.918228 359.517187 
z
" clip-path="url(#p7318c4306e)" style="fill: #add8e6; stroke: #add8e6; stroke-linejoin: miter"/>
   </g>
   <g id="patch_102">
    <path d="M 1109.312125 359.517187 
L 1109.312125 26.877187 
L 1109.44673 26.877187 
L 1109.44673 359.517187 
z
" clip-path="url(#p7318c4306e)" style="fill: #add8e6; stroke: #add8e6; stroke-linejoin: miter"/>
   </g>
   <g id="patch_103">
    <path d="M 1112.934293 359.517187 
L 1112.934293 26.877187 
L 1113.131258 26.877187 
L 1113.131258 359.517187 
z
" clip-path="url(#p7318c4306e)" style="fill: #add8e6; stroke: #add8e6; stroke-linejoin: miter"/>
   </g>
   <g id="patch_104">
    <path d="M 1113.198941 359.517187 
L 1113.198941 26.877187 
L 1113.402749 26.877187 
L 1113.402749 359.517187 
z
" clip-path="url(#p7318c4306e)" style="fill: #add8e6; stroke: #add8e6; stroke-linejoin: miter"/>
   </g>
   <g id="patch_105">
    <path d="M 227.722975 359.517187 
L 227.722975 26.877187 
L 391.986735 26.877187 
L 391.986735 359.517187 
z
" clip-path="url(#p7318c4306e)" style="fill: #808080; opacity: 0.4; stroke: #808080; stroke-linejoin: miter"/>
   </g>
   <g id="patch_106">
    <path d="M 396.549617 26.877187 
L 396.549617 26.877187 
L 396.549617 359.517187 
" clip-path="url(#p7318c4306e)" style="fill: #808080; opacity: 0.4; stroke: #808080; stroke-linejoin: miter"/>
   </g>
   <g id="patch_107">
    <path d="M 401.112499 26.877187 
L 401.112499 26.877187 
L 401.112499 359.517187 
" clip-path="url(#p7318c4306e)" style="fill: #808080; opacity: 0.4; stroke: #808080; stroke-linejoin: miter"/>
   </g>
   <g id="patch_108">
    <path d="M 556.250495 359.517187 
L 556.250495 26.877187 
L 720.514255 26.877187 
L 720.514255 359.517187 
z
" clip-path="url(#p7318c4306e)" style="fill: #808080; opacity: 0.4; stroke: #808080; stroke-linejoin: miter"/>
   </g>
   <g id="patch_109">
    <path d="M 725.077137 26.877187 
L 725.077137 26.877187 
L 725.077137 359.517187 
" clip-path="url(#p7318c4306e)" style="fill: #808080; opacity: 0.4; stroke: #808080; stroke-linejoin: miter"/>
   </g>
   <g id="patch_110">
    <path d="M 729.640019 26.877187 
L 729.640019 26.877187 
L 729.640019 359.517187 
" clip-path="url(#p7318c4306e)" style="fill: #808080; opacity: 0.4; stroke: #808080; stroke-linejoin: miter"/>
   </g>
   <g id="patch_111">
    <path d="M 884.778015 359.517187 
L 884.778015 26.877187 
L 1049.041775 26.877187 
L 1049.041775 359.517187 
z
" clip-path="url(#p7318c4306e)" style="fill: #808080; opacity: 0.4; stroke: #808080; stroke-linejoin: miter"/>
   </g>
   <g id="patch_112">
    <path d="M 1053.604657 26.877187 
L 1053.604657 26.877187 
L 1053.604657 359.517187 
" clip-path="url(#p7318c4306e)" style="fill: #808080; opacity: 0.4; stroke: #808080; stroke-linejoin: miter"/>
   </g>
   <g id="patch_113">
    <path d="M 1058.167539 26.877187 
L 1058.167539 26.877187 
L 1058.167539 359.517187 
" clip-path="url(#p7318c4306e)" style="fill: #808080; opacity: 0.4; stroke: #808080; stroke-linejoin: miter"/>
   </g>
   <g id="matplotlib.axis_1">
    <g id="xtick_1">
     <g id="line2d_1">
      <defs>
       <path id="mfddf41e935" d="M 0 0 
L 0 3.5 
" style="stroke: #000000; stroke-width: 0.8"/>
      </defs>
      <g>
       <use xlink:href="#mfddf41e935" x="130.267415" y="359.517187" style="stroke: #000000; stroke-width: 0.8"/>
      </g>
     </g>
     <g id="text_1">
      <!-- 07-18 12 -->
      <g transform="translate(107.786947 374.115625) scale(0.1 -0.1)">
       <defs>
        <path id="DejaVuSans-30" d="M 2034 4250 
Q 1547 4250 1301 3770 
Q 1056 3291 1056 2328 
Q 1056 1369 1301 889 
Q 1547 409 2034 409 
Q 2525 409 2770 889 
Q 3016 1369 3016 2328 
Q 3016 3291 2770 3770 
Q 2525 4250 2034 4250 
z
M 2034 4750 
Q 2819 4750 3233 4129 
Q 3647 3509 3647 2328 
Q 3647 1150 3233 529 
Q 2819 -91 2034 -91 
Q 1250 -91 836 529 
Q 422 1150 422 2328 
Q 422 3509 836 4129 
Q 1250 4750 2034 4750 
z
" transform="scale(0.015625)"/>
        <path id="DejaVuSans-37" d="M 525 4666 
L 3525 4666 
L 3525 4397 
L 1831 0 
L 1172 0 
L 2766 4134 
L 525 4134 
L 525 4666 
z
" transform="scale(0.015625)"/>
        <path id="DejaVuSans-2d" d="M 313 2009 
L 1997 2009 
L 1997 1497 
L 313 1497 
L 313 2009 
z
" transform="scale(0.015625)"/>
        <path id="DejaVuSans-31" d="M 794 531 
L 1825 531 
L 1825 4091 
L 703 3866 
L 703 4441 
L 1819 4666 
L 2450 4666 
L 2450 531 
L 3481 531 
L 3481 0 
L 794 0 
L 794 531 
z
" transform="scale(0.015625)"/>
        <path id="DejaVuSans-38" d="M 2034 2216 
Q 1584 2216 1326 1975 
Q 1069 1734 1069 1313 
Q 1069 891 1326 650 
Q 1584 409 2034 409 
Q 2484 409 2743 651 
Q 3003 894 3003 1313 
Q 3003 1734 2745 1975 
Q 2488 2216 2034 2216 
z
M 1403 2484 
Q 997 2584 770 2862 
Q 544 3141 544 3541 
Q 544 4100 942 4425 
Q 1341 4750 2034 4750 
Q 2731 4750 3128 4425 
Q 3525 4100 3525 3541 
Q 3525 3141 3298 2862 
Q 3072 2584 2669 2484 
Q 3125 2378 3379 2068 
Q 3634 1759 3634 1313 
Q 3634 634 3220 271 
Q 2806 -91 2034 -91 
Q 1263 -91 848 271 
Q 434 634 434 1313 
Q 434 1759 690 2068 
Q 947 2378 1403 2484 
z
M 1172 3481 
Q 1172 3119 1398 2916 
Q 1625 2713 2034 2713 
Q 2441 2713 2670 2916 
Q 2900 3119 2900 3481 
Q 2900 3844 2670 4047 
Q 2441 4250 2034 4250 
Q 1625 4250 1398 4047 
Q 1172 3844 1172 3481 
z
" transform="scale(0.015625)"/>
        <path id="DejaVuSans-20" transform="scale(0.015625)"/>
        <path id="DejaVuSans-32" d="M 1228 531 
L 3431 531 
L 3431 0 
L 469 0 
L 469 531 
Q 828 903 1448 1529 
Q 2069 2156 2228 2338 
Q 2531 2678 2651 2914 
Q 2772 3150 2772 3378 
Q 2772 3750 2511 3984 
Q 2250 4219 1831 4219 
Q 1534 4219 1204 4116 
Q 875 4013 500 3803 
L 500 4441 
Q 881 4594 1212 4672 
Q 1544 4750 1819 4750 
Q 2544 4750 2975 4387 
Q 3406 4025 3406 3419 
Q 3406 3131 3298 2873 
Q 3191 2616 2906 2266 
Q 2828 2175 2409 1742 
Q 1991 1309 1228 531 
z
" transform="scale(0.015625)"/>
       </defs>
       <use xlink:href="#DejaVuSans-30"/>
       <use xlink:href="#DejaVuSans-37" x="63.623047"/>
       <use xlink:href="#DejaVuSans-2d" x="127.246094"/>
       <use xlink:href="#DejaVuSans-31" x="163.330078"/>
       <use xlink:href="#DejaVuSans-38" x="226.953125"/>
       <use xlink:href="#DejaVuSans-20" x="290.576172"/>
       <use xlink:href="#DejaVuSans-31" x="322.363281"/>
       <use xlink:href="#DejaVuSans-32" x="385.986328"/>
      </g>
     </g>
    </g>
    <g id="xtick_2">
     <g id="line2d_2">
      <g>
       <use xlink:href="#mfddf41e935" x="294.531175" y="359.517187" style="stroke: #000000; stroke-width: 0.8"/>
      </g>
     </g>
     <g id="text_2">
      <!-- 07-19 00 -->
      <g transform="translate(272.050707 374.115625) scale(0.1 -0.1)">
       <defs>
        <path id="DejaVuSans-39" d="M 703 97 
L 703 672 
Q 941 559 1184 500 
Q 1428 441 1663 441 
Q 2288 441 2617 861 
Q 2947 1281 2994 2138 
Q 2813 1869 2534 1725 
Q 2256 1581 1919 1581 
Q 1219 1581 811 2004 
Q 403 2428 403 3163 
Q 403 3881 828 4315 
Q 1253 4750 1959 4750 
Q 2769 4750 3195 4129 
Q 3622 3509 3622 2328 
Q 3622 1225 3098 567 
Q 2575 -91 1691 -91 
Q 1453 -91 1209 -44 
Q 966 3 703 97 
z
M 1959 2075 
Q 2384 2075 2632 2365 
Q 2881 2656 2881 3163 
Q 2881 3666 2632 3958 
Q 2384 4250 1959 4250 
Q 1534 4250 1286 3958 
Q 1038 3666 1038 3163 
Q 1038 2656 1286 2365 
Q 1534 2075 1959 2075 
z
" transform="scale(0.015625)"/>
       </defs>
       <use xlink:href="#DejaVuSans-30"/>
       <use xlink:href="#DejaVuSans-37" x="63.623047"/>
       <use xlink:href="#DejaVuSans-2d" x="127.246094"/>
       <use xlink:href="#DejaVuSans-31" x="163.330078"/>
       <use xlink:href="#DejaVuSans-39" x="226.953125"/>
       <use xlink:href="#DejaVuSans-20" x="290.576172"/>
       <use xlink:href="#DejaVuSans-30" x="322.363281"/>
       <use xlink:href="#DejaVuSans-30" x="385.986328"/>
      </g>
     </g>
    </g>
    <g id="xtick_3">
     <g id="line2d_3">
      <g>
       <use xlink:href="#mfddf41e935" x="458.794935" y="359.517187" style="stroke: #000000; stroke-width: 0.8"/>
      </g>
     </g>
     <g id="text_3">
      <!-- 07-19 12 -->
      <g transform="translate(436.314467 374.115625) scale(0.1 -0.1)">
       <use xlink:href="#DejaVuSans-30"/>
       <use xlink:href="#DejaVuSans-37" x="63.623047"/>
       <use xlink:href="#DejaVuSans-2d" x="127.246094"/>
       <use xlink:href="#DejaVuSans-31" x="163.330078"/>
       <use xlink:href="#DejaVuSans-39" x="226.953125"/>
       <use xlink:href="#DejaVuSans-20" x="290.576172"/>
       <use xlink:href="#DejaVuSans-31" x="322.363281"/>
       <use xlink:href="#DejaVuSans-32" x="385.986328"/>
      </g>
     </g>
    </g>
    <g id="xtick_4">
     <g id="line2d_4">
      <g>
       <use xlink:href="#mfddf41e935" x="623.058695" y="359.517187" style="stroke: #000000; stroke-width: 0.8"/>
      </g>
     </g>
     <g id="text_4">
      <!-- 07-20 00 -->
      <g transform="translate(600.578227 374.115625) scale(0.1 -0.1)">
       <use xlink:href="#DejaVuSans-30"/>
       <use xlink:href="#DejaVuSans-37" x="63.623047"/>
       <use xlink:href="#DejaVuSans-2d" x="127.246094"/>
       <use xlink:href="#DejaVuSans-32" x="163.330078"/>
       <use xlink:href="#DejaVuSans-30" x="226.953125"/>
       <use xlink:href="#DejaVuSans-20" x="290.576172"/>
       <use xlink:href="#DejaVuSans-30" x="322.363281"/>
       <use xlink:href="#DejaVuSans-30" x="385.986328"/>
      </g>
     </g>
    </g>
    <g id="xtick_5">
     <g id="line2d_5">
      <g>
       <use xlink:href="#mfddf41e935" x="787.322455" y="359.517187" style="stroke: #000000; stroke-width: 0.8"/>
      </g>
     </g>
     <g id="text_5">
      <!-- 07-20 12 -->
      <g transform="translate(764.841986 374.115625) scale(0.1 -0.1)">
       <use xlink:href="#DejaVuSans-30"/>
       <use xlink:href="#DejaVuSans-37" x="63.623047"/>
       <use xlink:href="#DejaVuSans-2d" x="127.246094"/>
       <use xlink:href="#DejaVuSans-32" x="163.330078"/>
       <use xlink:href="#DejaVuSans-30" x="226.953125"/>
       <use xlink:href="#DejaVuSans-20" x="290.576172"/>
       <use xlink:href="#DejaVuSans-31" x="322.363281"/>
       <use xlink:href="#DejaVuSans-32" x="385.986328"/>
      </g>
     </g>
    </g>
    <g id="xtick_6">
     <g id="line2d_6">
      <g>
       <use xlink:href="#mfddf41e935" x="951.586215" y="359.517187" style="stroke: #000000; stroke-width: 0.8"/>
      </g>
     </g>
     <g id="text_6">
      <!-- 07-21 00 -->
      <g transform="translate(929.105746 374.115625) scale(0.1 -0.1)">
       <use xlink:href="#DejaVuSans-30"/>
       <use xlink:href="#DejaVuSans-37" x="63.623047"/>
       <use xlink:href="#DejaVuSans-2d" x="127.246094"/>
       <use xlink:href="#DejaVuSans-32" x="163.330078"/>
       <use xlink:href="#DejaVuSans-31" x="226.953125"/>
       <use xlink:href="#DejaVuSans-20" x="290.576172"/>
       <use xlink:href="#DejaVuSans-30" x="322.363281"/>
       <use xlink:href="#DejaVuSans-30" x="385.986328"/>
      </g>
     </g>
    </g>
    <g id="xtick_7">
     <g id="line2d_7">
      <g>
       <use xlink:href="#mfddf41e935" x="1115.849975" y="359.517187" style="stroke: #000000; stroke-width: 0.8"/>
      </g>
     </g>
     <g id="text_7">
      <!-- 07-21 12 -->
      <g transform="translate(1093.369506 374.115625) scale(0.1 -0.1)">
       <use xlink:href="#DejaVuSans-30"/>
       <use xlink:href="#DejaVuSans-37" x="63.623047"/>
       <use xlink:href="#DejaVuSans-2d" x="127.246094"/>
       <use xlink:href="#DejaVuSans-32" x="163.330078"/>
       <use xlink:href="#DejaVuSans-31" x="226.953125"/>
       <use xlink:href="#DejaVuSans-20" x="290.576172"/>
       <use xlink:href="#DejaVuSans-31" x="322.363281"/>
       <use xlink:href="#DejaVuSans-32" x="385.986328"/>
      </g>
     </g>
    </g>
    <g id="text_8">
     <!-- Time -->
     <g transform="translate(592.554688 389.313437) scale(0.12 -0.12)">
      <defs>
       <path id="DejaVuSans-54" d="M -19 4666 
L 3928 4666 
L 3928 4134 
L 2272 4134 
L 2272 0 
L 1638 0 
L 1638 4134 
L -19 4134 
L -19 4666 
z
" transform="scale(0.015625)"/>
       <path id="DejaVuSans-69" d="M 603 3500 
L 1178 3500 
L 1178 0 
L 603 0 
L 603 3500 
z
M 603 4863 
L 1178 4863 
L 1178 4134 
L 603 4134 
L 603 4863 
z
" transform="scale(0.015625)"/>
       <path id="DejaVuSans-6d" d="M 3328 2828 
Q 3544 3216 3844 3400 
Q 4144 3584 4550 3584 
Q 5097 3584 5394 3201 
Q 5691 2819 5691 2113 
L 5691 0 
L 5113 0 
L 5113 2094 
Q 5113 2597 4934 2840 
Q 4756 3084 4391 3084 
Q 3944 3084 3684 2787 
Q 3425 2491 3425 1978 
L 3425 0 
L 2847 0 
L 2847 2094 
Q 2847 2600 2669 2842 
Q 2491 3084 2119 3084 
Q 1678 3084 1418 2786 
Q 1159 2488 1159 1978 
L 1159 0 
L 581 0 
L 581 3500 
L 1159 3500 
L 1159 2956 
Q 1356 3278 1631 3431 
Q 1906 3584 2284 3584 
Q 2666 3584 2933 3390 
Q 3200 3197 3328 2828 
z
" transform="scale(0.015625)"/>
       <path id="DejaVuSans-65" d="M 3597 1894 
L 3597 1613 
L 953 1613 
Q 991 1019 1311 708 
Q 1631 397 2203 397 
Q 2534 397 2845 478 
Q 3156 559 3463 722 
L 3463 178 
Q 3153 47 2828 -22 
Q 2503 -91 2169 -91 
Q 1331 -91 842 396 
Q 353 884 353 1716 
Q 353 2575 817 3079 
Q 1281 3584 2069 3584 
Q 2775 3584 3186 3129 
Q 3597 2675 3597 1894 
z
M 3022 2063 
Q 3016 2534 2758 2815 
Q 2500 3097 2075 3097 
Q 1594 3097 1305 2825 
Q 1016 2553 972 2059 
L 3022 2063 
z
" transform="scale(0.015625)"/>
      </defs>
      <use xlink:href="#DejaVuSans-54"/>
      <use xlink:href="#DejaVuSans-69" x="57.958984"/>
      <use xlink:href="#DejaVuSans-6d" x="85.742188"/>
      <use xlink:href="#DejaVuSans-65" x="183.154297"/>
     </g>
    </g>
   </g>
   <g id="matplotlib.axis_2">
    <g id="ytick_1">
     <g id="line2d_8">
      <defs>
       <path id="m3e359043a3" d="M 0 0 
L -3.5 0 
" style="stroke: #000000; stroke-width: 0.8"/>
      </defs>
      <g>
       <use xlink:href="#m3e359043a3" x="49.235" y="344.397187" style="stroke: #000000; stroke-width: 0.8"/>
      </g>
     </g>
     <g id="text_9">
      <!-- 0 -->
      <g transform="translate(35.8725 348.196406) scale(0.1 -0.1)">
       <use xlink:href="#DejaVuSans-30"/>
      </g>
     </g>
    </g>
    <g id="ytick_2">
     <g id="line2d_9">
      <g>
       <use xlink:href="#m3e359043a3" x="49.235" y="294.660345" style="stroke: #000000; stroke-width: 0.8"/>
      </g>
     </g>
     <g id="text_10">
      <!-- 100 -->
      <g transform="translate(23.1475 298.459564) scale(0.1 -0.1)">
       <use xlink:href="#DejaVuSans-31"/>
       <use xlink:href="#DejaVuSans-30" x="63.623047"/>
       <use xlink:href="#DejaVuSans-30" x="127.246094"/>
      </g>
     </g>
    </g>
    <g id="ytick_3">
     <g id="line2d_10">
      <g>
       <use xlink:href="#m3e359043a3" x="49.235" y="244.923503" style="stroke: #000000; stroke-width: 0.8"/>
      </g>
     </g>
     <g id="text_11">
      <!-- 200 -->
      <g transform="translate(23.1475 248.722722) scale(0.1 -0.1)">
       <use xlink:href="#DejaVuSans-32"/>
       <use xlink:href="#DejaVuSans-30" x="63.623047"/>
       <use xlink:href="#DejaVuSans-30" x="127.246094"/>
      </g>
     </g>
    </g>
    <g id="ytick_4">
     <g id="line2d_11">
      <g>
       <use xlink:href="#m3e359043a3" x="49.235" y="195.186661" style="stroke: #000000; stroke-width: 0.8"/>
      </g>
     </g>
     <g id="text_12">
      <!-- 300 -->
      <g transform="translate(23.1475 198.98588) scale(0.1 -0.1)">
       <defs>
        <path id="DejaVuSans-33" d="M 2597 2516 
Q 3050 2419 3304 2112 
Q 3559 1806 3559 1356 
Q 3559 666 3084 287 
Q 2609 -91 1734 -91 
Q 1441 -91 1130 -33 
Q 819 25 488 141 
L 488 750 
Q 750 597 1062 519 
Q 1375 441 1716 441 
Q 2309 441 2620 675 
Q 2931 909 2931 1356 
Q 2931 1769 2642 2001 
Q 2353 2234 1838 2234 
L 1294 2234 
L 1294 2753 
L 1863 2753 
Q 2328 2753 2575 2939 
Q 2822 3125 2822 3475 
Q 2822 3834 2567 4026 
Q 2313 4219 1838 4219 
Q 1578 4219 1281 4162 
Q 984 4106 628 3988 
L 628 4550 
Q 988 4650 1302 4700 
Q 1616 4750 1894 4750 
Q 2613 4750 3031 4423 
Q 3450 4097 3450 3541 
Q 3450 3153 3228 2886 
Q 3006 2619 2597 2516 
z
" transform="scale(0.015625)"/>
       </defs>
       <use xlink:href="#DejaVuSans-33"/>
       <use xlink:href="#DejaVuSans-30" x="63.623047"/>
       <use xlink:href="#DejaVuSans-30" x="127.246094"/>
      </g>
     </g>
    </g>
    <g id="ytick_5">
     <g id="line2d_12">
      <g>
       <use xlink:href="#m3e359043a3" x="49.235" y="145.449819" style="stroke: #000000; stroke-width: 0.8"/>
      </g>
     </g>
     <g id="text_13">
      <!-- 400 -->
      <g transform="translate(23.1475 149.249038) scale(0.1 -0.1)">
       <defs>
        <path id="DejaVuSans-34" d="M 2419 4116 
L 825 1625 
L 2419 1625 
L 2419 4116 
z
M 2253 4666 
L 3047 4666 
L 3047 1625 
L 3713 1625 
L 3713 1100 
L 3047 1100 
L 3047 0 
L 2419 0 
L 2419 1100 
L 313 1100 
L 313 1709 
L 2253 4666 
z
" transform="scale(0.015625)"/>
       </defs>
       <use xlink:href="#DejaVuSans-34"/>
       <use xlink:href="#DejaVuSans-30" x="63.623047"/>
       <use xlink:href="#DejaVuSans-30" x="127.246094"/>
      </g>
     </g>
    </g>
    <g id="ytick_6">
     <g id="line2d_13">
      <g>
       <use xlink:href="#m3e359043a3" x="49.235" y="95.712977" style="stroke: #000000; stroke-width: 0.8"/>
      </g>
     </g>
     <g id="text_14">
      <!-- 500 -->
      <g transform="translate(23.1475 99.512196) scale(0.1 -0.1)">
       <defs>
        <path id="DejaVuSans-35" d="M 691 4666 
L 3169 4666 
L 3169 4134 
L 1269 4134 
L 1269 2991 
Q 1406 3038 1543 3061 
Q 1681 3084 1819 3084 
Q 2600 3084 3056 2656 
Q 3513 2228 3513 1497 
Q 3513 744 3044 326 
Q 2575 -91 1722 -91 
Q 1428 -91 1123 -41 
Q 819 9 494 109 
L 494 744 
Q 775 591 1075 516 
Q 1375 441 1709 441 
Q 2250 441 2565 725 
Q 2881 1009 2881 1497 
Q 2881 1984 2565 2268 
Q 2250 2553 1709 2553 
Q 1456 2553 1204 2497 
Q 953 2441 691 2322 
L 691 4666 
z
" transform="scale(0.015625)"/>
       </defs>
       <use xlink:href="#DejaVuSans-35"/>
       <use xlink:href="#DejaVuSans-30" x="63.623047"/>
       <use xlink:href="#DejaVuSans-30" x="127.246094"/>
      </g>
     </g>
    </g>
    <g id="ytick_7">
     <g id="line2d_14">
      <g>
       <use xlink:href="#m3e359043a3" x="49.235" y="45.976135" style="stroke: #000000; stroke-width: 0.8"/>
      </g>
     </g>
     <g id="text_15">
      <!-- 600 -->
      <g transform="translate(23.1475 49.775354) scale(0.1 -0.1)">
       <defs>
        <path id="DejaVuSans-36" d="M 2113 2584 
Q 1688 2584 1439 2293 
Q 1191 2003 1191 1497 
Q 1191 994 1439 701 
Q 1688 409 2113 409 
Q 2538 409 2786 701 
Q 3034 994 3034 1497 
Q 3034 2003 2786 2293 
Q 2538 2584 2113 2584 
z
M 3366 4563 
L 3366 3988 
Q 3128 4100 2886 4159 
Q 2644 4219 2406 4219 
Q 1781 4219 1451 3797 
Q 1122 3375 1075 2522 
Q 1259 2794 1537 2939 
Q 1816 3084 2150 3084 
Q 2853 3084 3261 2657 
Q 3669 2231 3669 1497 
Q 3669 778 3244 343 
Q 2819 -91 2113 -91 
Q 1303 -91 875 529 
Q 447 1150 447 2328 
Q 447 3434 972 4092 
Q 1497 4750 2381 4750 
Q 2619 4750 2861 4703 
Q 3103 4656 3366 4563 
z
" transform="scale(0.015625)"/>
       </defs>
       <use xlink:href="#DejaVuSans-36"/>
       <use xlink:href="#DejaVuSans-30" x="63.623047"/>
       <use xlink:href="#DejaVuSans-30" x="127.246094"/>
      </g>
     </g>
    </g>
    <g id="text_16">
     <!-- Pellet_Count -->
     <g transform="translate(16.318125 230.485312) rotate(-90) scale(0.12 -0.12)">
      <defs>
       <path id="DejaVuSans-50" d="M 1259 4147 
L 1259 2394 
L 2053 2394 
Q 2494 2394 2734 2622 
Q 2975 2850 2975 3272 
Q 2975 3691 2734 3919 
Q 2494 4147 2053 4147 
L 1259 4147 
z
M 628 4666 
L 2053 4666 
Q 2838 4666 3239 4311 
Q 3641 3956 3641 3272 
Q 3641 2581 3239 2228 
Q 2838 1875 2053 1875 
L 1259 1875 
L 1259 0 
L 628 0 
L 628 4666 
z
" transform="scale(0.015625)"/>
       <path id="DejaVuSans-6c" d="M 603 4863 
L 1178 4863 
L 1178 0 
L 603 0 
L 603 4863 
z
" transform="scale(0.015625)"/>
       <path id="DejaVuSans-74" d="M 1172 4494 
L 1172 3500 
L 2356 3500 
L 2356 3053 
L 1172 3053 
L 1172 1153 
Q 1172 725 1289 603 
Q 1406 481 1766 481 
L 2356 481 
L 2356 0 
L 1766 0 
Q 1100 0 847 248 
Q 594 497 594 1153 
L 594 3053 
L 172 3053 
L 172 3500 
L 594 3500 
L 594 4494 
L 1172 4494 
z
" transform="scale(0.015625)"/>
       <path id="DejaVuSans-5f" d="M 3263 -1063 
L 3263 -1509 
L -63 -1509 
L -63 -1063 
L 3263 -1063 
z
" transform="scale(0.015625)"/>
       <path id="DejaVuSans-43" d="M 4122 4306 
L 4122 3641 
Q 3803 3938 3442 4084 
Q 3081 4231 2675 4231 
Q 1875 4231 1450 3742 
Q 1025 3253 1025 2328 
Q 1025 1406 1450 917 
Q 1875 428 2675 428 
Q 3081 428 3442 575 
Q 3803 722 4122 1019 
L 4122 359 
Q 3791 134 3420 21 
Q 3050 -91 2638 -91 
Q 1578 -91 968 557 
Q 359 1206 359 2328 
Q 359 3453 968 4101 
Q 1578 4750 2638 4750 
Q 3056 4750 3426 4639 
Q 3797 4528 4122 4306 
z
" transform="scale(0.015625)"/>
       <path id="DejaVuSans-6f" d="M 1959 3097 
Q 1497 3097 1228 2736 
Q 959 2375 959 1747 
Q 959 1119 1226 758 
Q 1494 397 1959 397 
Q 2419 397 2687 759 
Q 2956 1122 2956 1747 
Q 2956 2369 2687 2733 
Q 2419 3097 1959 3097 
z
M 1959 3584 
Q 2709 3584 3137 3096 
Q 3566 2609 3566 1747 
Q 3566 888 3137 398 
Q 2709 -91 1959 -91 
Q 1206 -91 779 398 
Q 353 888 353 1747 
Q 353 2609 779 3096 
Q 1206 3584 1959 3584 
z
" transform="scale(0.015625)"/>
       <path id="DejaVuSans-75" d="M 544 1381 
L 544 3500 
L 1119 3500 
L 1119 1403 
Q 1119 906 1312 657 
Q 1506 409 1894 409 
Q 2359 409 2629 706 
Q 2900 1003 2900 1516 
L 2900 3500 
L 3475 3500 
L 3475 0 
L 2900 0 
L 2900 538 
Q 2691 219 2414 64 
Q 2138 -91 1772 -91 
Q 1169 -91 856 284 
Q 544 659 544 1381 
z
M 1991 3584 
L 1991 3584 
z
" transform="scale(0.015625)"/>
       <path id="DejaVuSans-6e" d="M 3513 2113 
L 3513 0 
L 2938 0 
L 2938 2094 
Q 2938 2591 2744 2837 
Q 2550 3084 2163 3084 
Q 1697 3084 1428 2787 
Q 1159 2491 1159 1978 
L 1159 0 
L 581 0 
L 581 3500 
L 1159 3500 
L 1159 2956 
Q 1366 3272 1645 3428 
Q 1925 3584 2291 3584 
Q 2894 3584 3203 3211 
Q 3513 2838 3513 2113 
z
" transform="scale(0.015625)"/>
      </defs>
      <use xlink:href="#DejaVuSans-50"/>
      <use xlink:href="#DejaVuSans-65" x="56.677734"/>
      <use xlink:href="#DejaVuSans-6c" x="118.201172"/>
      <use xlink:href="#DejaVuSans-6c" x="145.984375"/>
      <use xlink:href="#DejaVuSans-65" x="173.767578"/>
      <use xlink:href="#DejaVuSans-74" x="235.291016"/>
      <use xlink:href="#DejaVuSans-5f" x="274.5"/>
      <use xlink:href="#DejaVuSans-43" x="324.5"/>
      <use xlink:href="#DejaVuSans-6f" x="394.324219"/>
      <use xlink:href="#DejaVuSans-75" x="455.505859"/>
      <use xlink:href="#DejaVuSans-6e" x="518.884766"/>
      <use xlink:href="#DejaVuSans-74" x="582.263672"/>
     </g>
    </g>
   </g>
   <g id="line2d_15">
    <path d="M 99.962273 344.397187 
L 103.897759 344.397187 
L 104.40728 343.899819 
L 107.373154 343.899819 
L 107.483424 342.905082 
L 107.555669 342.905082 
L 107.559472 342.407714 
L 107.677346 342.407714 
L 107.749592 341.412977 
L 107.829442 341.412977 
L 107.916897 340.41824 
L 108.627947 340.41824 
L 108.631749 339.920872 
L 112.677505 339.920872 
L 112.783972 338.926135 
L 112.856217 338.926135 
L 112.932265 337.931398 
L 113.05014 337.931398 
L 113.053942 337.43403 
L 114.692777 337.43403 
L 114.787838 336.439293 
L 114.875293 336.439293 
L 114.977958 335.444556 
L 115.133856 335.444556 
L 115.221311 334.449819 
L 115.312569 334.449819 
L 115.316371 333.952451 
L 116.384846 333.952451 
L 116.392451 333.455082 
L 121.788059 333.455082 
L 121.795664 332.957714 
L 126.202648 332.957714 
L 126.210253 332.460345 
L 127.081003 332.460345 
L 127.088608 331.962977 
L 134.408231 331.962977 
L 134.522303 331.465609 
L 134.784669 331.465609 
L 134.784669 331.465609 
L 134.803681 330.96824 
L 135.408263 330.96824 
L 135.423472 330.470872 
L 135.617395 330.470872 
L 135.632604 329.973503 
L 136.579403 329.973503 
L 136.579403 329.973503 
L 136.594612 329.476135 
L 136.777127 329.476135 
L 136.879792 328.481398 
L 137.035691 328.481398 
L 137.0509 327.98403 
L 137.222008 327.98403 
L 137.225811 327.486661 
L 137.400721 327.486661 
L 137.408326 326.989293 
L 148.598795 326.989293 
L 148.6064 326.491924 
L 149.526581 326.491924 
L 149.534186 325.994556 
L 149.648258 325.994556 
L 149.76233 324.999819 
L 156.036293 324.999819 
L 156.036293 324.999819 
L 156.161772 324.502451 
L 156.218808 324.502451 
L 156.317671 323.507714 
L 156.431743 323.507714 
L 156.534407 322.512977 
L 156.644677 322.512977 
L 156.64848 322.015609 
L 157.861446 322.015609 
L 157.869051 321.51824 
L 159.370999 321.51824 
L 159.374802 321.020872 
L 159.488874 321.020872 
L 159.492676 320.523503 
L 159.663784 320.523503 
L 159.667587 320.026135 
L 162.941455 320.026135 
L 162.945257 319.528766 
L 163.42436 319.528766 
L 163.546036 319.031398 
L 163.686725 319.031398 
L 163.690528 318.53403 
L 163.892055 318.53403 
L 164.006127 317.539293 
L 164.085978 317.539293 
L 164.20005 317.041924 
L 164.230469 317.041924 
L 164.340738 316.047187 
L 164.424391 316.047187 
L 164.527056 315.052451 
L 164.713374 315.052451 
L 164.717176 314.555082 
L 165.937747 314.555082 
L 165.94155 314.057714 
L 167.19254 314.057714 
L 167.302809 313.560345 
L 167.432091 312.565609 
L 167.530954 312.565609 
L 167.633618 311.570872 
L 167.721074 311.570872 
L 167.838948 310.576135 
L 167.930206 310.576135 
L 168.029068 309.581398 
L 168.127931 309.581398 
L 168.131733 309.08403 
L 169.80479 309.08403 
L 169.812395 308.586661 
L 177.664355 308.586661 
L 177.748007 307.591924 
L 177.83166 307.591924 
L 177.919115 307.094556 
L 178.139655 307.094556 
L 178.14726 306.597187 
L 178.295553 306.597187 
L 178.405823 306.099819 
L 178.440045 306.099819 
L 178.447649 305.602451 
L 178.831692 305.602451 
L 178.941962 305.105082 
L 179.048429 305.105082 
L 179.154896 304.607714 
L 179.227142 304.607714 
L 179.337411 303.612977 
L 181.447744 303.612977 
L 181.455349 303.115609 
L 181.748134 303.115609 
L 181.751937 302.61824 
L 185.714039 302.61824 
L 185.820507 302.120872 
L 186.352843 302.120872 
L 186.463112 301.623503 
L 186.482124 301.623503 
L 186.485927 301.126135 
L 186.603801 301.126135 
L 186.607604 300.628766 
L 186.820538 300.628766 
L 186.824341 300.131398 
L 198.885559 300.131398 
L 198.893164 299.63403 
L 199.037655 299.63403 
L 199.041458 299.136661 
L 199.193554 299.136661 
L 199.197356 298.639293 
L 199.34565 298.639293 
L 199.353255 298.141924 
L 211.406869 298.141924 
L 211.513336 297.644556 
L 211.524743 297.644556 
L 211.528545 297.147187 
L 211.650222 297.147187 
L 211.654025 296.649819 
L 211.798516 296.649819 
L 211.802318 296.152451 
L 223.357818 296.152451 
L 223.365422 295.655082 
L 223.502309 295.655082 
L 223.509914 295.157714 
L 223.829315 295.157714 
L 223.93198 294.660345 
L 231.78394 294.660345 
L 231.901815 293.665609 
L 232.038701 293.665609 
L 232.148971 292.670872 
L 233.25547 292.670872 
L 233.263074 292.173503 
L 234.244094 292.173503 
L 234.464633 291.676135 
L 237.187153 291.676135 
L 237.190956 291.178766 
L 255.176316 291.178766 
L 255.278981 290.18403 
L 255.400658 290.18403 
L 255.476706 289.189293 
L 255.571766 289.189293 
L 255.575568 288.691924 
L 255.689641 288.691924 
L 255.79991 287.697187 
L 255.917785 287.697187 
L 256.00524 286.702451 
L 256.119312 286.702451 
L 256.123114 286.205082 
L 256.256198 286.205082 
L 256.328444 285.210345 
L 256.423504 285.210345 
L 256.526169 284.215609 
L 256.655451 284.215609 
L 256.659253 283.71824 
L 270.853619 283.71824 
L 270.861224 283.220872 
L 271.127392 283.220872 
L 271.214847 282.226135 
L 279.648575 282.226135 
L 279.656179 281.728766 
L 279.781659 281.728766 
L 279.888126 281.231398 
L 279.907138 281.231398 
L 280.02121 280.73403 
L 280.025012 280.73403 
L 280.123875 279.739293 
L 280.230342 279.739293 
L 280.336809 278.744556 
L 293.88857 278.744556 
L 294.006444 278.247187 
L 323.060597 278.247187 
L 323.170866 277.252451 
L 323.273531 277.252451 
L 323.364789 276.257714 
L 323.490268 276.257714 
L 323.49407 275.760345 
L 323.646166 275.760345 
L 323.649969 275.262977 
L 323.99979 275.262977 
L 324.106257 274.26824 
L 324.197515 274.26824 
L 324.296377 273.273503 
L 344.125903 273.273503 
L 344.133508 272.776135 
L 344.289406 272.776135 
L 344.392071 271.781398 
L 344.456712 271.781398 
L 344.559377 270.786661 
L 344.654437 270.786661 
L 344.768509 269.791924 
L 344.954826 269.791924 
L 344.958629 269.294556 
L 356.730865 269.294556 
L 356.81832 268.299819 
L 356.947602 268.299819 
L 357.042662 267.305082 
L 357.130117 267.305082 
L 357.225177 266.310345 
L 357.567393 266.310345 
L 357.571196 265.812977 
L 371.63628 265.812977 
L 371.74655 264.81824 
L 371.818795 264.81824 
L 371.891041 263.823503 
L 371.978496 263.823503 
L 372.088766 262.828766 
L 385.530257 262.828766 
L 385.537861 262.331398 
L 385.944718 262.331398 
L 385.952323 261.83403 
L 387.549332 261.83403 
L 387.655799 260.839293 
L 387.785081 260.839293 
L 387.883943 259.844556 
L 390.488589 259.844556 
L 390.492391 259.347187 
L 395.876592 259.347187 
L 395.884197 258.849819 
L 397.831026 258.849819 
L 397.922284 257.855082 
L 397.99453 257.855082 
L 398.07438 257.357714 
L 400.800702 257.357714 
L 400.914774 256.362977 
L 401.032649 256.362977 
L 401.135314 255.865609 
L 401.150523 255.865609 
L 401.154326 255.36824 
L 401.336841 255.36824 
L 401.336841 255.36824 
L 401.355853 254.870872 
L 401.530763 254.870872 
L 401.534566 254.373503 
L 407.363648 254.373503 
L 407.447301 253.378766 
L 407.527151 253.378766 
L 407.610804 252.38403 
L 407.709666 252.38403 
L 407.713469 251.886661 
L 407.838948 251.886661 
L 407.854158 251.389293 
L 408.040475 251.389293 
L 408.154548 250.891924 
L 408.165955 250.891924 
L 408.26862 249.897187 
L 411.987369 249.897187 
L 412.090033 249.399819 
L 412.143267 249.399819 
L 412.253537 248.405082 
L 412.352399 248.405082 
L 412.356202 247.907714 
L 412.470274 247.907714 
L 412.576741 246.912977 
L 418.774656 246.912977 
L 418.778458 246.415609 
L 418.900135 246.415609 
L 419.010405 245.420872 
L 422.352716 245.420872 
L 422.459183 244.923503 
L 422.664513 244.923503 
L 422.67592 244.426135 
L 422.873645 244.426135 
L 422.9611 243.431398 
L 423.040951 243.431398 
L 423.044753 242.93403 
L 423.162628 242.93403 
L 423.16643 242.436661 
L 423.565682 242.436661 
L 423.569485 241.939293 
L 430.208478 241.939293 
L 430.311143 240.944556 
L 430.406203 240.944556 
L 430.410006 240.447187 
L 430.54309 240.447187 
L 430.653359 239.452451 
L 430.744617 239.452451 
L 430.82827 238.457714 
L 431.010785 238.457714 
L 431.014587 237.960345 
L 444.756468 237.960345 
L 444.813504 236.965609 
L 444.919971 236.965609 
L 444.999821 235.970872 
L 445.053055 235.970872 
L 445.132906 234.976135 
L 445.231768 234.976135 
L 445.342038 233.981398 
L 445.383864 233.981398 
L 445.490331 232.986661 
L 445.592996 232.986661 
L 445.688056 232.489293 
L 449.581716 232.489293 
L 449.596925 231.991924 
L 454.17882 231.991924 
L 454.186424 231.494556 
L 456.98119 231.494556 
L 456.988794 230.997187 
L 457.34622 230.997187 
L 457.467897 230.002451 
L 457.585772 230.002451 
L 457.593376 229.505082 
L 457.829125 229.505082 
L 457.908976 228.510345 
L 458.015443 228.510345 
L 458.110503 227.515609 
L 477.487543 227.515609 
L 477.571196 226.520872 
L 477.635837 226.520872 
L 477.715687 225.526135 
L 477.818352 225.526135 
L 477.905807 224.531398 
L 477.978053 224.531398 
L 478.065508 223.536661 
L 478.149161 223.536661 
L 478.236616 222.541924 
L 478.38491 222.541924 
L 478.388712 222.044556 
L 478.643473 222.044556 
L 478.647275 221.547187 
L 478.799371 221.547187 
L 478.913444 221.049819 
L 488.206514 221.049819 
L 488.210316 220.552451 
L 488.324388 220.552451 
L 488.328191 220.055082 
L 490.951848 220.055082 
L 491.035501 219.060345 
L 491.103944 219.060345 
L 491.172387 218.065609 
L 491.313076 218.065609 
L 491.316878 217.56824 
L 498.830424 217.56824 
L 498.921682 216.573503 
L 498.986323 216.573503 
L 499.073778 215.578766 
L 499.39318 215.578766 
L 499.39318 215.578766 
L 499.40839 215.081398 
L 503.100522 215.081398 
L 503.187977 214.086661 
L 503.245013 214.086661 
L 503.340073 213.091924 
L 503.404714 213.091924 
L 503.488367 212.097187 
L 503.55681 212.097187 
L 503.560612 211.599819 
L 509.279425 211.599819 
L 509.35167 211.102451 
L 513.986798 211.102451 
L 514.062846 210.107714 
L 514.161709 210.107714 
L 514.268176 209.112977 
L 514.454494 209.112977 
L 514.572368 208.11824 
L 520.009803 208.11824 
L 520.013605 207.620872 
L 520.230342 207.620872 
L 520.340612 207.123503 
L 520.352019 207.123503 
L 520.355821 206.626135 
L 524.245678 206.626135 
L 524.348343 206.128766 
L 524.363553 206.128766 
L 524.367355 205.631398 
L 524.549871 205.631398 
L 524.553673 205.13403 
L 524.686757 205.13403 
L 524.800829 204.636661 
L 524.804631 204.636661 
L 524.808434 204.139293 
L 524.933913 204.139293 
L 525.009961 203.144556 
L 525.124033 203.144556 
L 525.226698 202.149819 
L 525.34077 202.149819 
L 525.344573 201.652451 
L 534.911416 201.652451 
L 535.017883 200.657714 
L 535.131955 200.657714 
L 535.135757 200.160345 
L 535.303063 200.160345 
L 535.405728 199.165609 
L 535.580638 199.165609 
L 535.668094 198.170872 
L 537.774624 198.170872 
L 537.782229 197.673503 
L 544.725415 197.673503 
L 544.73302 197.176135 
L 547.626647 197.176135 
L 547.706498 196.678766 
L 547.873804 196.678766 
L 547.976468 196.181398 
L 547.991678 196.181398 
L 547.99548 195.68403 
L 563.912335 195.68403 
L 563.99979 194.689293 
L 564.110059 194.689293 
L 564.193712 193.694556 
L 582.239911 193.694556 
L 582.247516 193.197187 
L 582.388205 193.197187 
L 582.452846 192.202451 
L 582.536499 192.202451 
L 582.623954 191.207714 
L 582.715212 191.207714 
L 582.825481 190.212977 
L 582.916739 190.212977 
L 583.027009 189.21824 
L 583.118266 189.21824 
L 583.122069 188.720872 
L 583.25135 188.720872 
L 583.255153 188.223503 
L 604.56001 188.223503 
L 604.67028 187.726135 
L 604.681687 187.726135 
L 604.788154 186.731398 
L 604.87561 186.731398 
L 604.974472 185.736661 
L 605.05052 185.736661 
L 605.054323 185.239293 
L 606.153217 185.239293 
L 606.160821 184.741924 
L 625.674748 184.741924 
L 625.78882 183.747187 
L 625.906694 183.747187 
L 625.971335 182.752451 
L 635.948838 182.752451 
L 635.95264 182.255082 
L 636.90324 182.255082 
L 636.90324 182.255082 
L 636.922252 181.757714 
L 637.051534 181.757714 
L 637.055337 181.260345 
L 637.310097 181.260345 
L 637.40896 180.265609 
L 637.485008 180.265609 
L 637.485008 180.265609 
L 637.568661 179.270872 
L 637.659918 179.270872 
L 637.671326 178.773503 
L 637.933691 178.773503 
L 637.937494 178.276135 
L 642.861604 178.276135 
L 642.865407 177.778766 
L 649.800988 177.778766 
L 649.91506 177.281398 
L 649.930269 177.281398 
L 650.040539 176.78403 
L 650.108982 176.78403 
L 650.219252 175.789293 
L 650.348533 175.789293 
L 650.352336 175.291924 
L 668.649493 175.291924 
L 668.763566 174.794556 
L 668.77117 174.794556 
L 668.854823 173.799819 
L 668.927069 173.799819 
L 669.025931 172.805082 
L 669.120991 172.805082 
L 669.235063 171.810345 
L 669.35674 171.810345 
L 669.474615 170.815609 
L 684.098652 170.815609 
L 684.186107 169.820872 
L 684.345808 169.820872 
L 684.452276 168.826135 
L 684.551138 168.826135 
L 684.55494 168.328766 
L 698.152329 168.328766 
L 698.239785 167.33403 
L 698.304426 167.33403 
L 698.395683 166.339293 
L 707.875071 166.339293 
L 707.992945 165.344556 
L 708.042377 165.344556 
L 708.129832 164.349819 
L 708.202078 164.349819 
L 708.289533 163.355082 
L 708.376988 163.355082 
L 708.456838 162.360345 
L 708.605132 162.360345 
L 708.719204 161.365609 
L 708.810462 161.365609 
L 708.814264 160.86824 
L 718.784162 160.86824 
L 718.883024 159.873503 
L 718.932456 159.873503 
L 719.046528 159.376135 
L 719.172007 158.381398 
L 721.936353 158.381398 
L 722.046623 157.88403 
L 723.586595 157.88403 
L 723.70447 156.889293 
L 723.78432 156.889293 
L 723.788123 156.391924 
L 731.716131 156.391924 
L 731.723735 155.894556 
L 733.328349 155.894556 
L 733.438619 155.397187 
L 733.450026 155.397187 
L 733.529876 154.402451 
L 733.609727 154.402451 
L 733.697182 153.407714 
L 737.164972 153.407714 
L 737.275242 152.910345 
L 737.286649 152.910345 
L 737.3665 151.915609 
L 737.431141 151.915609 
L 737.54141 150.920872 
L 740.781057 150.920872 
L 740.898931 150.423503 
L 740.914141 150.423503 
L 741.009201 149.926135 
L 741.03962 149.926135 
L 741.138482 148.931398 
L 741.263962 148.931398 
L 741.378034 147.936661 
L 741.465489 147.936661 
L 741.579561 146.941924 
L 741.674621 146.941924 
L 741.678423 146.444556 
L 741.803903 146.444556 
L 741.807705 145.947187 
L 755.671262 145.947187 
L 755.785334 144.952451 
L 755.922221 144.952451 
L 755.926023 144.455082 
L 756.0477 144.455082 
L 756.150365 143.460345 
L 756.33288 143.460345 
L 756.450755 142.962977 
L 756.542012 142.465609 
L 756.675096 142.465609 
L 756.675096 142.465609 
L 756.792971 141.470872 
L 763.827414 141.470872 
L 763.922474 140.973503 
L 764.249481 140.973503 
L 764.519451 140.476135 
L 766.268556 140.476135 
L 766.279963 139.978766 
L 767.880775 139.978766 
L 767.888379 139.481398 
L 770.428384 139.481398 
L 770.432186 138.98403 
L 770.546258 138.98403 
L 770.652726 137.989293 
L 770.724971 137.989293 
L 770.728774 137.491924 
L 771.83147 137.491924 
L 771.835273 136.994556 
L 773.291592 136.994556 
L 773.295395 136.497187 
L 779.713849 136.497187 
L 779.801304 135.502451 
L 779.854538 135.502451 
L 779.949598 134.507714 
L 780.033251 134.507714 
L 780.037053 134.010345 
L 780.227173 134.010345 
L 780.230976 133.512977 
L 782.18541 133.512977 
L 782.193015 133.015609 
L 785.592362 133.015609 
L 785.66841 132.51824 
L 785.809099 132.51824 
L 785.812902 132.020872 
L 788.554433 132.020872 
L 788.630481 131.026135 
L 788.733146 131.026135 
L 788.736949 130.528766 
L 792.550758 130.528766 
L 792.661027 129.53403 
L 792.752285 129.53403 
L 792.87016 128.539293 
L 792.961417 128.539293 
L 792.96522 128.041924 
L 801.851433 128.041924 
L 801.969307 127.047187 
L 802.06817 127.047187 
L 802.174637 126.052451 
L 802.311523 126.052451 
L 802.315326 125.555082 
L 803.931347 125.555082 
L 804.030209 124.560345 
L 809.958153 124.560345 
L 810.064621 123.565609 
L 810.140669 123.565609 
L 810.228124 122.570872 
L 813.323279 122.570872 
L 813.425944 121.576135 
L 813.661693 121.576135 
L 813.76816 120.581398 
L 813.870825 120.581398 
L 813.874627 120.08403 
L 817.087657 120.08403 
L 817.095262 119.586661 
L 833.156607 119.586661 
L 833.278284 118.591924 
L 833.384751 118.591924 
L 833.449392 117.597187 
L 833.650919 117.597187 
L 833.654722 117.099819 
L 833.772596 117.099819 
L 833.886668 116.105082 
L 834.034962 116.105082 
L 834.114812 115.110345 
L 834.232687 115.110345 
L 834.354364 114.115609 
L 840.362159 114.115609 
L 840.369763 113.61824 
L 844.894622 113.61824 
L 844.898424 113.120872 
L 851.309274 113.120872 
L 851.415741 112.126135 
L 851.491789 112.126135 
L 851.564035 111.131398 
L 851.632478 111.131398 
L 851.716131 110.136661 
L 851.803586 110.136661 
L 851.913855 109.141924 
L 852.001311 109.141924 
L 852.103976 108.147187 
L 861.355219 108.147187 
L 861.469291 107.152451 
L 861.575759 107.152451 
L 861.579561 106.655082 
L 861.876148 106.655082 
L 861.879951 106.157714 
L 862.043454 106.157714 
L 862.047256 105.660345 
L 862.168933 105.660345 
L 862.172736 105.162977 
L 862.29061 105.162977 
L 862.294413 104.665609 
L 872.412604 104.665609 
L 872.530478 103.670872 
L 872.621736 103.670872 
L 872.73961 102.676135 
L 872.884102 102.676135 
L 872.956347 102.178766 
L 873.108443 102.178766 
L 873.112246 101.681398 
L 873.279551 101.681398 
L 873.393624 101.18403 
L 880.409055 101.18403 
L 880.49651 100.189293 
L 880.572558 100.189293 
L 880.667618 99.194556 
L 880.838726 99.194556 
L 880.842529 98.697187 
L 890.287695 98.697187 
L 890.386557 97.702451 
L 890.500629 97.702451 
L 890.610899 97.205082 
L 890.633714 97.205082 
L 890.637516 96.707714 
L 890.782007 96.707714 
L 890.888474 95.712977 
L 897.64154 95.712977 
L 897.755612 95.215609 
L 897.83166 95.215609 
L 897.92672 94.220872 
L 898.075014 94.220872 
L 898.078816 93.723503 
L 906.044848 93.723503 
L 906.048651 93.226135 
L 906.177932 93.226135 
L 906.181735 92.728766 
L 906.345238 92.728766 
L 906.425088 91.73403 
L 906.497334 91.73403 
L 906.501136 91.236661 
L 911.858721 91.236661 
L 911.980398 90.241924 
L 912.06405 90.241924 
L 912.067853 89.744556 
L 912.505129 89.744556 
L 912.508931 89.247187 
L 914.064114 89.247187 
L 914.067916 88.749819 
L 924.178503 88.749819 
L 924.273563 87.755082 
L 924.39524 87.755082 
L 924.505509 87.257714 
L 924.638593 86.262977 
L 924.733653 86.262977 
L 924.798294 85.765609 
L 924.935181 85.765609 
L 925.041648 84.770872 
L 925.102486 84.770872 
L 925.106289 84.273503 
L 940.14859 84.273503 
L 940.156195 83.776135 
L 940.331106 83.776135 
L 940.426166 83.278766 
L 940.540238 83.278766 
L 940.54404 82.781398 
L 940.673322 82.781398 
L 940.677124 82.28403 
L 947.532855 82.28403 
L 947.54046 81.786661 
L 965.567647 81.786661 
L 965.579054 81.289293 
L 965.708336 81.289293 
L 965.82621 80.294556 
L 965.982109 80.294556 
L 966.088576 79.299819 
L 966.195043 79.299819 
L 966.198845 78.802451 
L 983.226001 78.802451 
L 983.229803 78.305082 
L 983.412319 78.305082 
L 983.503576 77.310345 
L 995.823358 77.310345 
L 995.827161 76.812977 
L 995.964047 76.812977 
L 996.078119 75.81824 
L 996.184586 75.81824 
L 996.279647 74.823503 
L 996.367102 74.823503 
L 996.370904 74.326135 
L 996.484976 74.326135 
L 996.580036 73.331398 
L 996.686504 73.331398 
L 996.697911 72.83403 
L 1011.820063 72.83403 
L 1011.823865 72.336661 
L 1011.937937 72.336661 
L 1011.945542 71.839293 
L 1012.143267 71.839293 
L 1012.150872 71.341924 
L 1012.272549 71.341924 
L 1012.375214 70.844556 
L 1021.816577 70.844556 
L 1021.930649 70.347187 
L 1022.021907 70.347187 
L 1022.12077 69.352451 
L 1022.189213 69.352451 
L 1022.193015 68.855082 
L 1024.714008 68.855082 
L 1024.721612 68.357714 
L 1025.185505 68.357714 
L 1025.189308 67.860345 
L 1040.889425 67.860345 
L 1041.003497 67.362977 
L 1041.022509 67.362977 
L 1041.10236 66.36824 
L 1041.212629 66.36824 
L 1041.216432 65.870872 
L 1052.452529 65.870872 
L 1052.555194 65.373503 
L 1055.228282 65.373503 
L 1055.33475 64.378766 
L 1055.399391 64.378766 
L 1055.505858 63.38403 
L 1063.236141 63.38403 
L 1063.236141 63.38403 
L 1063.315991 62.389293 
L 1063.430063 62.389293 
L 1063.487099 61.394556 
L 1063.559345 61.394556 
L 1063.6468 60.399819 
L 1066.452973 60.399819 
L 1066.456775 59.902451 
L 1069.335193 59.902451 
L 1069.437858 58.907714 
L 1069.521511 58.907714 
L 1069.525313 58.410345 
L 1072.36951 58.410345 
L 1072.377115 57.912977 
L 1078.114939 57.912977 
L 1078.202394 56.91824 
L 1078.270838 56.91824 
L 1078.358293 55.923503 
L 1078.525599 55.923503 
L 1078.632066 55.426135 
L 1078.643473 55.426135 
L 1078.757545 54.928766 
L 1078.924851 54.431398 
L 1085.487796 54.431398 
L 1085.560042 53.436661 
L 1085.632288 53.436661 
L 1085.723545 52.441924 
L 1085.795791 52.441924 
L 1085.890851 51.447187 
L 1086.004923 51.447187 
L 1086.092378 50.949819 
L 1097.571829 50.949819 
L 1097.685901 50.452451 
L 1097.704913 50.452451 
L 1097.818986 49.955082 
L 1097.978686 49.457714 
L 1097.990094 49.457714 
L 1097.993896 48.960345 
L 1100.031983 48.960345 
L 1100.031983 48.960345 
L 1100.062403 48.462977 
L 1102.857168 48.462977 
L 1102.86097 47.965609 
L 1108.910592 47.965609 
L 1109.001849 47.46824 
L 1109.039873 47.46824 
L 1109.127329 46.473503 
L 1109.207179 46.473503 
L 1109.321251 45.478766 
L 1112.830868 45.478766 
L 1112.918323 44.48403 
L 1112.982964 44.48403 
L 1113.062815 43.489293 
L 1113.154072 43.489293 
L 1113.264342 42.494556 
L 1113.344192 42.494556 
L 1113.347995 41.997187 
L 1114.507727 41.997187 
L 1114.507727 41.997187 
" clip-path="url(#p7318c4306e)" style="fill: none; stroke: #0000ff; stroke-width: 1.5; stroke-linecap: square"/>
   </g>
   <g id="patch_114">
    <path d="M 49.235 359.517187 
L 49.235 26.877187 
" style="fill: none; stroke: #000000; stroke-width: 0.8; stroke-linejoin: miter; stroke-linecap: square"/>
   </g>
   <g id="patch_115">
    <path d="M 1165.235 359.517187 
L 1165.235 26.877187 
" style="fill: none; stroke: #000000; stroke-width: 0.8; stroke-linejoin: miter; stroke-linecap: square"/>
   </g>
   <g id="patch_116">
    <path d="M 49.235 359.517187 
L 1165.235 359.517187 
" style="fill: none; stroke: #000000; stroke-width: 0.8; stroke-linejoin: miter; stroke-linecap: square"/>
   </g>
   <g id="patch_117">
    <path d="M 49.235 26.877187 
L 1165.235 26.877187 
" style="fill: none; stroke: #000000; stroke-width: 0.8; stroke-linejoin: miter; stroke-linecap: square"/>
   </g>
   <g id="text_17">
    <!-- Pellet Count and Cumulative Sum Over Time of Group 7 Mouse 4 -->
    <g transform="translate(315.460625 20.877187) scale(0.18 -0.18)">
     <defs>
      <path id="DejaVuSans-61" d="M 2194 1759 
Q 1497 1759 1228 1600 
Q 959 1441 959 1056 
Q 959 750 1161 570 
Q 1363 391 1709 391 
Q 2188 391 2477 730 
Q 2766 1069 2766 1631 
L 2766 1759 
L 2194 1759 
z
M 3341 1997 
L 3341 0 
L 2766 0 
L 2766 531 
Q 2569 213 2275 61 
Q 1981 -91 1556 -91 
Q 1019 -91 701 211 
Q 384 513 384 1019 
Q 384 1609 779 1909 
Q 1175 2209 1959 2209 
L 2766 2209 
L 2766 2266 
Q 2766 2663 2505 2880 
Q 2244 3097 1772 3097 
Q 1472 3097 1187 3025 
Q 903 2953 641 2809 
L 641 3341 
Q 956 3463 1253 3523 
Q 1550 3584 1831 3584 
Q 2591 3584 2966 3190 
Q 3341 2797 3341 1997 
z
" transform="scale(0.015625)"/>
      <path id="DejaVuSans-64" d="M 2906 2969 
L 2906 4863 
L 3481 4863 
L 3481 0 
L 2906 0 
L 2906 525 
Q 2725 213 2448 61 
Q 2172 -91 1784 -91 
Q 1150 -91 751 415 
Q 353 922 353 1747 
Q 353 2572 751 3078 
Q 1150 3584 1784 3584 
Q 2172 3584 2448 3432 
Q 2725 3281 2906 2969 
z
M 947 1747 
Q 947 1113 1208 752 
Q 1469 391 1925 391 
Q 2381 391 2643 752 
Q 2906 1113 2906 1747 
Q 2906 2381 2643 2742 
Q 2381 3103 1925 3103 
Q 1469 3103 1208 2742 
Q 947 2381 947 1747 
z
" transform="scale(0.015625)"/>
      <path id="DejaVuSans-76" d="M 191 3500 
L 800 3500 
L 1894 563 
L 2988 3500 
L 3597 3500 
L 2284 0 
L 1503 0 
L 191 3500 
z
" transform="scale(0.015625)"/>
      <path id="DejaVuSans-53" d="M 3425 4513 
L 3425 3897 
Q 3066 4069 2747 4153 
Q 2428 4238 2131 4238 
Q 1616 4238 1336 4038 
Q 1056 3838 1056 3469 
Q 1056 3159 1242 3001 
Q 1428 2844 1947 2747 
L 2328 2669 
Q 3034 2534 3370 2195 
Q 3706 1856 3706 1288 
Q 3706 609 3251 259 
Q 2797 -91 1919 -91 
Q 1588 -91 1214 -16 
Q 841 59 441 206 
L 441 856 
Q 825 641 1194 531 
Q 1563 422 1919 422 
Q 2459 422 2753 634 
Q 3047 847 3047 1241 
Q 3047 1584 2836 1778 
Q 2625 1972 2144 2069 
L 1759 2144 
Q 1053 2284 737 2584 
Q 422 2884 422 3419 
Q 422 4038 858 4394 
Q 1294 4750 2059 4750 
Q 2388 4750 2728 4690 
Q 3069 4631 3425 4513 
z
" transform="scale(0.015625)"/>
      <path id="DejaVuSans-4f" d="M 2522 4238 
Q 1834 4238 1429 3725 
Q 1025 3213 1025 2328 
Q 1025 1447 1429 934 
Q 1834 422 2522 422 
Q 3209 422 3611 934 
Q 4013 1447 4013 2328 
Q 4013 3213 3611 3725 
Q 3209 4238 2522 4238 
z
M 2522 4750 
Q 3503 4750 4090 4092 
Q 4678 3434 4678 2328 
Q 4678 1225 4090 567 
Q 3503 -91 2522 -91 
Q 1538 -91 948 565 
Q 359 1222 359 2328 
Q 359 3434 948 4092 
Q 1538 4750 2522 4750 
z
" transform="scale(0.015625)"/>
      <path id="DejaVuSans-72" d="M 2631 2963 
Q 2534 3019 2420 3045 
Q 2306 3072 2169 3072 
Q 1681 3072 1420 2755 
Q 1159 2438 1159 1844 
L 1159 0 
L 581 0 
L 581 3500 
L 1159 3500 
L 1159 2956 
Q 1341 3275 1631 3429 
Q 1922 3584 2338 3584 
Q 2397 3584 2469 3576 
Q 2541 3569 2628 3553 
L 2631 2963 
z
" transform="scale(0.015625)"/>
      <path id="DejaVuSans-66" d="M 2375 4863 
L 2375 4384 
L 1825 4384 
Q 1516 4384 1395 4259 
Q 1275 4134 1275 3809 
L 1275 3500 
L 2222 3500 
L 2222 3053 
L 1275 3053 
L 1275 0 
L 697 0 
L 697 3053 
L 147 3053 
L 147 3500 
L 697 3500 
L 697 3744 
Q 697 4328 969 4595 
Q 1241 4863 1831 4863 
L 2375 4863 
z
" transform="scale(0.015625)"/>
      <path id="DejaVuSans-47" d="M 3809 666 
L 3809 1919 
L 2778 1919 
L 2778 2438 
L 4434 2438 
L 4434 434 
Q 4069 175 3628 42 
Q 3188 -91 2688 -91 
Q 1594 -91 976 548 
Q 359 1188 359 2328 
Q 359 3472 976 4111 
Q 1594 4750 2688 4750 
Q 3144 4750 3555 4637 
Q 3966 4525 4313 4306 
L 4313 3634 
Q 3963 3931 3569 4081 
Q 3175 4231 2741 4231 
Q 1884 4231 1454 3753 
Q 1025 3275 1025 2328 
Q 1025 1384 1454 906 
Q 1884 428 2741 428 
Q 3075 428 3337 486 
Q 3600 544 3809 666 
z
" transform="scale(0.015625)"/>
      <path id="DejaVuSans-70" d="M 1159 525 
L 1159 -1331 
L 581 -1331 
L 581 3500 
L 1159 3500 
L 1159 2969 
Q 1341 3281 1617 3432 
Q 1894 3584 2278 3584 
Q 2916 3584 3314 3078 
Q 3713 2572 3713 1747 
Q 3713 922 3314 415 
Q 2916 -91 2278 -91 
Q 1894 -91 1617 61 
Q 1341 213 1159 525 
z
M 3116 1747 
Q 3116 2381 2855 2742 
Q 2594 3103 2138 3103 
Q 1681 3103 1420 2742 
Q 1159 2381 1159 1747 
Q 1159 1113 1420 752 
Q 1681 391 2138 391 
Q 2594 391 2855 752 
Q 3116 1113 3116 1747 
z
" transform="scale(0.015625)"/>
      <path id="DejaVuSans-4d" d="M 628 4666 
L 1569 4666 
L 2759 1491 
L 3956 4666 
L 4897 4666 
L 4897 0 
L 4281 0 
L 4281 4097 
L 3078 897 
L 2444 897 
L 1241 4097 
L 1241 0 
L 628 0 
L 628 4666 
z
" transform="scale(0.015625)"/>
      <path id="DejaVuSans-73" d="M 2834 3397 
L 2834 2853 
Q 2591 2978 2328 3040 
Q 2066 3103 1784 3103 
Q 1356 3103 1142 2972 
Q 928 2841 928 2578 
Q 928 2378 1081 2264 
Q 1234 2150 1697 2047 
L 1894 2003 
Q 2506 1872 2764 1633 
Q 3022 1394 3022 966 
Q 3022 478 2636 193 
Q 2250 -91 1575 -91 
Q 1294 -91 989 -36 
Q 684 19 347 128 
L 347 722 
Q 666 556 975 473 
Q 1284 391 1588 391 
Q 1994 391 2212 530 
Q 2431 669 2431 922 
Q 2431 1156 2273 1281 
Q 2116 1406 1581 1522 
L 1381 1569 
Q 847 1681 609 1914 
Q 372 2147 372 2553 
Q 372 3047 722 3315 
Q 1072 3584 1716 3584 
Q 2034 3584 2315 3537 
Q 2597 3491 2834 3397 
z
" transform="scale(0.015625)"/>
     </defs>
     <use xlink:href="#DejaVuSans-50"/>
     <use xlink:href="#DejaVuSans-65" x="56.677734"/>
     <use xlink:href="#DejaVuSans-6c" x="118.201172"/>
     <use xlink:href="#DejaVuSans-6c" x="145.984375"/>
     <use xlink:href="#DejaVuSans-65" x="173.767578"/>
     <use xlink:href="#DejaVuSans-74" x="235.291016"/>
     <use xlink:href="#DejaVuSans-20" x="274.5"/>
     <use xlink:href="#DejaVuSans-43" x="306.287109"/>
     <use xlink:href="#DejaVuSans-6f" x="376.111328"/>
     <use xlink:href="#DejaVuSans-75" x="437.292969"/>
     <use xlink:href="#DejaVuSans-6e" x="500.671875"/>
     <use xlink:href="#DejaVuSans-74" x="564.050781"/>
     <use xlink:href="#DejaVuSans-20" x="603.259766"/>
     <use xlink:href="#DejaVuSans-61" x="635.046875"/>
     <use xlink:href="#DejaVuSans-6e" x="696.326172"/>
     <use xlink:href="#DejaVuSans-64" x="759.705078"/>
     <use xlink:href="#DejaVuSans-20" x="823.181641"/>
     <use xlink:href="#DejaVuSans-43" x="854.96875"/>
     <use xlink:href="#DejaVuSans-75" x="924.792969"/>
     <use xlink:href="#DejaVuSans-6d" x="988.171875"/>
     <use xlink:href="#DejaVuSans-75" x="1085.583984"/>
     <use xlink:href="#DejaVuSans-6c" x="1148.962891"/>
     <use xlink:href="#DejaVuSans-61" x="1176.746094"/>
     <use xlink:href="#DejaVuSans-74" x="1238.025391"/>
     <use xlink:href="#DejaVuSans-69" x="1277.234375"/>
     <use xlink:href="#DejaVuSans-76" x="1305.017578"/>
     <use xlink:href="#DejaVuSans-65" x="1364.197266"/>
     <use xlink:href="#DejaVuSans-20" x="1425.720703"/>
     <use xlink:href="#DejaVuSans-53" x="1457.507812"/>
     <use xlink:href="#DejaVuSans-75" x="1520.984375"/>
     <use xlink:href="#DejaVuSans-6d" x="1584.363281"/>
     <use xlink:href="#DejaVuSans-20" x="1681.775391"/>
     <use xlink:href="#DejaVuSans-4f" x="1713.5625"/>
     <use xlink:href="#DejaVuSans-76" x="1792.273438"/>
     <use xlink:href="#DejaVuSans-65" x="1851.453125"/>
     <use xlink:href="#DejaVuSans-72" x="1912.976562"/>
     <use xlink:href="#DejaVuSans-20" x="1954.089844"/>
     <use xlink:href="#DejaVuSans-54" x="1985.876953"/>
     <use xlink:href="#DejaVuSans-69" x="2043.835938"/>
     <use xlink:href="#DejaVuSans-6d" x="2071.619141"/>
     <use xlink:href="#DejaVuSans-65" x="2169.03125"/>
     <use xlink:href="#DejaVuSans-20" x="2230.554688"/>
     <use xlink:href="#DejaVuSans-6f" x="2262.341797"/>
     <use xlink:href="#DejaVuSans-66" x="2323.523438"/>
     <use xlink:href="#DejaVuSans-20" x="2358.728516"/>
     <use xlink:href="#DejaVuSans-47" x="2390.515625"/>
     <use xlink:href="#DejaVuSans-72" x="2468.005859"/>
     <use xlink:href="#DejaVuSans-6f" x="2506.869141"/>
     <use xlink:href="#DejaVuSans-75" x="2568.050781"/>
     <use xlink:href="#DejaVuSans-70" x="2631.429688"/>
     <use xlink:href="#DejaVuSans-20" x="2694.90625"/>
     <use xlink:href="#DejaVuSans-37" x="2726.693359"/>
     <use xlink:href="#DejaVuSans-20" x="2790.316406"/>
     <use xlink:href="#DejaVuSans-4d" x="2822.103516"/>
     <use xlink:href="#DejaVuSans-6f" x="2908.382812"/>
     <use xlink:href="#DejaVuSans-75" x="2969.564453"/>
     <use xlink:href="#DejaVuSans-73" x="3032.943359"/>
     <use xlink:href="#DejaVuSans-65" x="3085.042969"/>
     <use xlink:href="#DejaVuSans-20" x="3146.566406"/>
     <use xlink:href="#DejaVuSans-34" x="3178.353516"/>
    </g>
   </g>
   <g id="legend_1">
    <g id="patch_118">
     <path d="M 1086.550625 64.233437 
L 1158.235 64.233437 
Q 1160.235 64.233437 1160.235 62.233437 
L 1160.235 33.877187 
Q 1160.235 31.877187 1158.235 31.877187 
L 1086.550625 31.877187 
Q 1084.550625 31.877187 1084.550625 33.877187 
L 1084.550625 62.233437 
Q 1084.550625 64.233437 1086.550625 64.233437 
z
" style="fill: #ffffff; opacity: 0.8; stroke: #cccccc; stroke-linejoin: miter"/>
    </g>
    <g id="patch_119">
     <path d="M 1088.550625 43.475625 
L 1108.550625 43.475625 
L 1108.550625 36.475625 
L 1088.550625 36.475625 
z
" style="fill: #add8e6; opacity: 0.9; stroke: #add8e6; stroke-linejoin: miter"/>
    </g>
    <g id="text_18">
     <!-- Meal -->
     <g transform="translate(1116.550625 43.475625) scale(0.1 -0.1)">
      <use xlink:href="#DejaVuSans-4d"/>
      <use xlink:href="#DejaVuSans-65" x="86.279297"/>
      <use xlink:href="#DejaVuSans-61" x="147.802734"/>
      <use xlink:href="#DejaVuSans-6c" x="209.082031"/>
     </g>
    </g>
    <g id="patch_120">
     <path d="M 1088.550625 58.15375 
L 1108.550625 58.15375 
L 1108.550625 51.15375 
L 1088.550625 51.15375 
z
" style="fill: #808080; opacity: 0.5; stroke: #808080; stroke-linejoin: miter"/>
    </g>
    <g id="text_19">
     <!-- Inactive -->
     <g transform="translate(1116.550625 58.15375) scale(0.1 -0.1)">
      <defs>
       <path id="DejaVuSans-49" d="M 628 4666 
L 1259 4666 
L 1259 0 
L 628 0 
L 628 4666 
z
" transform="scale(0.015625)"/>
       <path id="DejaVuSans-63" d="M 3122 3366 
L 3122 2828 
Q 2878 2963 2633 3030 
Q 2388 3097 2138 3097 
Q 1578 3097 1268 2742 
Q 959 2388 959 1747 
Q 959 1106 1268 751 
Q 1578 397 2138 397 
Q 2388 397 2633 464 
Q 2878 531 3122 666 
L 3122 134 
Q 2881 22 2623 -34 
Q 2366 -91 2075 -91 
Q 1284 -91 818 406 
Q 353 903 353 1747 
Q 353 2603 823 3093 
Q 1294 3584 2113 3584 
Q 2378 3584 2631 3529 
Q 2884 3475 3122 3366 
z
" transform="scale(0.015625)"/>
      </defs>
      <use xlink:href="#DejaVuSans-49"/>
      <use xlink:href="#DejaVuSans-6e" x="29.492188"/>
      <use xlink:href="#DejaVuSans-61" x="92.871094"/>
      <use xlink:href="#DejaVuSans-63" x="154.150391"/>
      <use xlink:href="#DejaVuSans-74" x="209.130859"/>
      <use xlink:href="#DejaVuSans-69" x="248.339844"/>
      <use xlink:href="#DejaVuSans-76" x="276.123047"/>
      <use xlink:href="#DejaVuSans-65" x="335.302734"/>
     </g>
    </g>
   </g>
  </g>
 </g>
 <defs>
  <clipPath id="p7318c4306e">
   <rect x="49.235" y="26.877187" width="1116" height="332.64"/>
  </clipPath>
 </defs>
</svg>
