<?xml version="1.0" encoding="utf-8" standalone="no"?>
<!DOCTYPE svg PUBLIC "-//W3C//DTD SVG 1.1//EN"
  "http://www.w3.org/Graphics/SVG/1.1/DTD/svg11.dtd">
<svg xmlns:xlink="http://www.w3.org/1999/xlink" width="1172.435pt" height="399.009062pt" viewBox="0 0 1172.435 399.009062" xmlns="http://www.w3.org/2000/svg" version="1.1">
 <metadata>
  <rdf:RDF xmlns:dc="http://purl.org/dc/elements/1.1/" xmlns:cc="http://creativecommons.org/ns#" xmlns:rdf="http://www.w3.org/1999/02/22-rdf-syntax-ns#">
   <cc:Work>
    <dc:type rdf:resource="http://purl.org/dc/dcmitype/StillImage"/>
    <dc:date>2025-04-09T09:55:35.457726</dc:date>
    <dc:format>image/svg+xml</dc:format>
    <dc:creator>
     <cc:Agent>
      <dc:title>Matplotlib v3.8.3, https://matplotlib.org/</dc:title>
     </cc:Agent>
    </dc:creator>
   </cc:Work>
  </rdf:RDF>
 </metadata>
 <defs>
  <style type="text/css">*{stroke-linejoin: round; stroke-linecap: butt}</style>
 </defs>
 <g id="figure_1">
  <g id="patch_1">
   <path d="M 0 399.009062 
L 1172.435 399.009062 
L 1172.435 0 
L 0 0 
z
" style="fill: #ffffff"/>
  </g>
  <g id="axes_1">
   <g id="patch_2">
    <path d="M 49.235 359.517187 
L 1165.235 359.517187 
L 1165.235 26.877187 
L 49.235 26.877187 
z
" style="fill: #ffffff"/>
   </g>
   <g id="patch_3">
    <path d="M 116.665593 359.517187 
L 116.665593 26.877187 
L 107.704487 26.877187 
L 107.704487 359.517187 
z
" clip-path="url(#pa3f4f07970)" style="fill: #add8e6; stroke: #add8e6; stroke-linejoin: miter"/>
   </g>
   <g id="patch_4">
    <path d="M 119.131419 359.517187 
L 119.131419 26.877187 
L 114.922073 26.877187 
L 114.922073 359.517187 
z
" clip-path="url(#pa3f4f07970)" style="fill: #add8e6; stroke: #add8e6; stroke-linejoin: miter"/>
   </g>
   <g id="patch_5">
    <path d="M 120.615703 359.517187 
L 120.615703 26.877187 
L 120.820903 26.877187 
L 120.820903 359.517187 
z
" clip-path="url(#pa3f4f07970)" style="fill: #add8e6; stroke: #add8e6; stroke-linejoin: miter"/>
   </g>
   <g id="patch_6">
    <path d="M 142.648764 359.517187 
L 142.648764 26.877187 
L 142.81908 26.877187 
L 142.81908 359.517187 
z
" clip-path="url(#pa3f4f07970)" style="fill: #add8e6; stroke: #add8e6; stroke-linejoin: miter"/>
   </g>
   <g id="patch_7">
    <path d="M 144.378604 359.517187 
L 144.378604 26.877187 
L 144.559181 26.877187 
L 144.559181 359.517187 
z
" clip-path="url(#pa3f4f07970)" style="fill: #add8e6; stroke: #add8e6; stroke-linejoin: miter"/>
   </g>
   <g id="patch_8">
    <path d="M 155.713196 359.517187 
L 155.713196 26.877187 
L 155.555875 26.877187 
L 155.555875 359.517187 
z
" clip-path="url(#pa3f4f07970)" style="fill: #add8e6; stroke: #add8e6; stroke-linejoin: miter"/>
   </g>
   <g id="patch_9">
    <path d="M 162.446508 359.517187 
L 162.446508 26.877187 
L 162.518328 26.877187 
L 162.518328 359.517187 
z
" clip-path="url(#pa3f4f07970)" style="fill: #add8e6; stroke: #add8e6; stroke-linejoin: miter"/>
   </g>
   <g id="patch_10">
    <path d="M 172.561524 359.517187 
L 172.561524 26.877187 
L 172.589568 26.877187 
L 172.589568 359.517187 
z
" clip-path="url(#pa3f4f07970)" style="fill: #add8e6; stroke: #add8e6; stroke-linejoin: miter"/>
   </g>
   <g id="patch_11">
    <path d="M 172.820761 359.517187 
L 172.820761 26.877187 
L 172.937041 26.877187 
L 172.937041 359.517187 
z
" clip-path="url(#pa3f4f07970)" style="fill: #add8e6; stroke: #add8e6; stroke-linejoin: miter"/>
   </g>
   <g id="patch_12">
    <path d="M 173.255786 359.517187 
L 173.255786 26.877187 
L 173.40353 26.877187 
L 173.40353 359.517187 
z
" clip-path="url(#pa3f4f07970)" style="fill: #add8e6; stroke: #add8e6; stroke-linejoin: miter"/>
   </g>
   <g id="patch_13">
    <path d="M 182.940565 359.517187 
L 182.940565 26.877187 
L 183.087626 26.877187 
L 183.087626 359.517187 
z
" clip-path="url(#pa3f4f07970)" style="fill: #add8e6; stroke: #add8e6; stroke-linejoin: miter"/>
   </g>
   <g id="patch_14">
    <path d="M 183.257942 359.517187 
L 183.257942 26.877187 
L 183.307874 26.877187 
L 183.307874 359.517187 
z
" clip-path="url(#pa3f4f07970)" style="fill: #add8e6; stroke: #add8e6; stroke-linejoin: miter"/>
   </g>
   <g id="patch_15">
    <path d="M 183.529491 359.517187 
L 183.529491 26.877187 
L 183.576687 26.877187 
L 183.576687 359.517187 
z
" clip-path="url(#pa3f4f07970)" style="fill: #add8e6; stroke: #add8e6; stroke-linejoin: miter"/>
   </g>
   <g id="patch_16">
    <path d="M 192.765565 359.517187 
L 192.765565 26.877187 
L 192.788137 26.877187 
L 192.788137 359.517187 
z
" clip-path="url(#pa3f4f07970)" style="fill: #add8e6; stroke: #add8e6; stroke-linejoin: miter"/>
   </g>
   <g id="patch_17">
    <path d="M 200.355248 359.517187 
L 200.355248 26.877187 
L 199.380545 26.877187 
L 199.380545 359.517187 
z
" clip-path="url(#pa3f4f07970)" style="fill: #add8e6; stroke: #add8e6; stroke-linejoin: miter"/>
   </g>
   <g id="patch_18">
    <path d="M 202.342272 359.517187 
L 202.342272 26.877187 
L 202.335432 26.877187 
L 202.335432 359.517187 
z
" clip-path="url(#pa3f4f07970)" style="fill: #add8e6; stroke: #add8e6; stroke-linejoin: miter"/>
   </g>
   <g id="patch_19">
    <path d="M 202.572097 359.517187 
L 202.572097 26.877187 
L 202.756093 26.877187 
L 202.756093 359.517187 
z
" clip-path="url(#pa3f4f07970)" style="fill: #add8e6; stroke: #add8e6; stroke-linejoin: miter"/>
   </g>
   <g id="patch_20">
    <path d="M 204.527658 359.517187 
L 204.527658 26.877187 
L 204.639834 26.877187 
L 204.639834 359.517187 
z
" clip-path="url(#pa3f4f07970)" style="fill: #add8e6; stroke: #add8e6; stroke-linejoin: miter"/>
   </g>
   <g id="patch_21">
    <path d="M 236.875464 359.517187 
L 236.875464 26.877187 
L 236.973276 26.877187 
L 236.973276 359.517187 
z
" clip-path="url(#pa3f4f07970)" style="fill: #add8e6; stroke: #add8e6; stroke-linejoin: miter"/>
   </g>
   <g id="patch_22">
    <path d="M 266.217083 359.517187 
L 266.217083 26.877187 
L 266.200667 26.877187 
L 266.200667 359.517187 
z
" clip-path="url(#pa3f4f07970)" style="fill: #add8e6; stroke: #add8e6; stroke-linejoin: miter"/>
   </g>
   <g id="patch_23">
    <path d="M 291.495048 359.517187 
L 291.495048 26.877187 
L 291.646212 26.877187 
L 291.646212 359.517187 
z
" clip-path="url(#pa3f4f07970)" style="fill: #add8e6; stroke: #add8e6; stroke-linejoin: miter"/>
   </g>
   <g id="patch_24">
    <path d="M 292.029253 359.517187 
L 292.029253 26.877187 
L 292.089446 26.877187 
L 292.089446 359.517187 
z
" clip-path="url(#pa3f4f07970)" style="fill: #add8e6; stroke: #add8e6; stroke-linejoin: miter"/>
   </g>
   <g id="patch_25">
    <path d="M 315.346186 359.517187 
L 315.346186 26.877187 
L 315.479566 26.877187 
L 315.479566 359.517187 
z
" clip-path="url(#pa3f4f07970)" style="fill: #add8e6; stroke: #add8e6; stroke-linejoin: miter"/>
   </g>
   <g id="patch_26">
    <path d="M 315.752483 359.517187 
L 315.752483 26.877187 
L 315.901595 26.877187 
L 315.901595 359.517187 
z
" clip-path="url(#pa3f4f07970)" style="fill: #add8e6; stroke: #add8e6; stroke-linejoin: miter"/>
   </g>
   <g id="patch_27">
    <path d="M 337.5523 359.517187 
L 337.5523 26.877187 
L 337.604968 26.877187 
L 337.604968 359.517187 
z
" clip-path="url(#pa3f4f07970)" style="fill: #add8e6; stroke: #add8e6; stroke-linejoin: miter"/>
   </g>
   <g id="patch_28">
    <path d="M 356.140045 359.517187 
L 356.140045 26.877187 
L 355.953312 26.877187 
L 355.953312 359.517187 
z
" clip-path="url(#pa3f4f07970)" style="fill: #add8e6; stroke: #add8e6; stroke-linejoin: miter"/>
   </g>
   <g id="patch_29">
    <path d="M 356.409541 359.517187 
L 356.409541 26.877187 
L 356.446477 26.877187 
L 356.446477 359.517187 
z
" clip-path="url(#pa3f4f07970)" style="fill: #add8e6; stroke: #add8e6; stroke-linejoin: miter"/>
   </g>
   <g id="patch_30">
    <path d="M 356.70161 359.517187 
L 356.70161 26.877187 
L 356.822678 26.877187 
L 356.822678 359.517187 
z
" clip-path="url(#pa3f4f07970)" style="fill: #add8e6; stroke: #add8e6; stroke-linejoin: miter"/>
   </g>
   <g id="patch_31">
    <path d="M 356.94101 359.517187 
L 356.94101 26.877187 
L 357.005991 26.877187 
L 357.005991 359.517187 
z
" clip-path="url(#pa3f4f07970)" style="fill: #add8e6; stroke: #add8e6; stroke-linejoin: miter"/>
   </g>
   <g id="patch_32">
    <path d="M 374.547897 359.517187 
L 374.547897 26.877187 
L 374.487021 26.877187 
L 374.487021 359.517187 
z
" clip-path="url(#pa3f4f07970)" style="fill: #add8e6; stroke: #add8e6; stroke-linejoin: miter"/>
   </g>
   <g id="patch_33">
    <path d="M 380.975461 359.517187 
L 380.975461 26.877187 
L 381.039073 26.877187 
L 381.039073 359.517187 
z
" clip-path="url(#pa3f4f07970)" style="fill: #add8e6; stroke: #add8e6; stroke-linejoin: miter"/>
   </g>
   <g id="patch_34">
    <path d="M 383.071926 359.517187 
L 383.071926 26.877187 
L 383.15127 26.877187 
L 383.15127 359.517187 
z
" clip-path="url(#pa3f4f07970)" style="fill: #add8e6; stroke: #add8e6; stroke-linejoin: miter"/>
   </g>
   <g id="patch_35">
    <path d="M 388.27581 359.517187 
L 388.27581 26.877187 
L 388.23477 26.877187 
L 388.23477 359.517187 
z
" clip-path="url(#pa3f4f07970)" style="fill: #add8e6; stroke: #add8e6; stroke-linejoin: miter"/>
   </g>
   <g id="patch_36">
    <path d="M 391.938639 359.517187 
L 391.938639 26.877187 
L 392.022087 26.877187 
L 392.022087 359.517187 
z
" clip-path="url(#pa3f4f07970)" style="fill: #add8e6; stroke: #add8e6; stroke-linejoin: miter"/>
   </g>
   <g id="patch_37">
    <path d="M 399.433245 359.517187 
L 399.433245 26.877187 
L 399.602878 26.877187 
L 399.602878 359.517187 
z
" clip-path="url(#pa3f4f07970)" style="fill: #add8e6; stroke: #add8e6; stroke-linejoin: miter"/>
   </g>
   <g id="patch_38">
    <path d="M 401.995515 359.517187 
L 401.995515 26.877187 
L 402.181564 26.877187 
L 402.181564 359.517187 
z
" clip-path="url(#pa3f4f07970)" style="fill: #add8e6; stroke: #add8e6; stroke-linejoin: miter"/>
   </g>
   <g id="patch_39">
    <path d="M 405.848497 359.517187 
L 405.848497 26.877187 
L 406.040701 26.877187 
L 406.040701 359.517187 
z
" clip-path="url(#pa3f4f07970)" style="fill: #add8e6; stroke: #add8e6; stroke-linejoin: miter"/>
   </g>
   <g id="patch_40">
    <path d="M 416.513451 359.517187 
L 416.513451 26.877187 
L 416.662563 26.877187 
L 416.662563 359.517187 
z
" clip-path="url(#pa3f4f07970)" style="fill: #add8e6; stroke: #add8e6; stroke-linejoin: miter"/>
   </g>
   <g id="patch_41">
    <path d="M 416.742591 359.517187 
L 416.742591 26.877187 
L 416.915644 26.877187 
L 416.915644 359.517187 
z
" clip-path="url(#pa3f4f07970)" style="fill: #add8e6; stroke: #add8e6; stroke-linejoin: miter"/>
   </g>
   <g id="patch_42">
    <path d="M 417.032608 359.517187 
L 417.032608 26.877187 
L 417.183088 26.877187 
L 417.183088 359.517187 
z
" clip-path="url(#pa3f4f07970)" style="fill: #add8e6; stroke: #add8e6; stroke-linejoin: miter"/>
   </g>
   <g id="patch_43">
    <path d="M 418.101702 359.517187 
L 418.101702 26.877187 
L 417.850674 26.877187 
L 417.850674 359.517187 
z
" clip-path="url(#pa3f4f07970)" style="fill: #add8e6; stroke: #add8e6; stroke-linejoin: miter"/>
   </g>
   <g id="patch_44">
    <path d="M 418.505947 359.517187 
L 418.505947 26.877187 
L 418.55246 26.877187 
L 418.55246 359.517187 
z
" clip-path="url(#pa3f4f07970)" style="fill: #add8e6; stroke: #add8e6; stroke-linejoin: miter"/>
   </g>
   <g id="patch_45">
    <path d="M 431.97394 359.517187 
L 431.97394 26.877187 
L 432.122368 26.877187 
L 432.122368 359.517187 
z
" clip-path="url(#pa3f4f07970)" style="fill: #add8e6; stroke: #add8e6; stroke-linejoin: miter"/>
   </g>
   <g id="patch_46">
    <path d="M 440.365956 359.517187 
L 440.365956 26.877187 
L 439.906307 26.877187 
L 439.906307 359.517187 
z
" clip-path="url(#pa3f4f07970)" style="fill: #add8e6; stroke: #add8e6; stroke-linejoin: miter"/>
   </g>
   <g id="patch_47">
    <path d="M 450.390685 359.517187 
L 450.390685 26.877187 
L 450.475501 26.877187 
L 450.475501 359.517187 
z
" clip-path="url(#pa3f4f07970)" style="fill: #add8e6; stroke: #add8e6; stroke-linejoin: miter"/>
   </g>
   <g id="patch_48">
    <path d="M 450.618457 359.517187 
L 450.618457 26.877187 
L 450.768253 26.877187 
L 450.768253 359.517187 
z
" clip-path="url(#pa3f4f07970)" style="fill: #add8e6; stroke: #add8e6; stroke-linejoin: miter"/>
   </g>
   <g id="patch_49">
    <path d="M 475.397101 359.517187 
L 475.397101 26.877187 
L 473.650845 26.877187 
L 473.650845 359.517187 
z
" clip-path="url(#pa3f4f07970)" style="fill: #add8e6; stroke: #add8e6; stroke-linejoin: miter"/>
   </g>
   <g id="patch_50">
    <path d="M 486.931421 359.517187 
L 486.931421 26.877187 
L 487.129097 26.877187 
L 487.129097 359.517187 
z
" clip-path="url(#pa3f4f07970)" style="fill: #add8e6; stroke: #add8e6; stroke-linejoin: miter"/>
   </g>
   <g id="patch_51">
    <path d="M 487.16877 359.517187 
L 487.16877 26.877187 
L 487.324038 26.877187 
L 487.324038 359.517187 
z
" clip-path="url(#pa3f4f07970)" style="fill: #add8e6; stroke: #add8e6; stroke-linejoin: miter"/>
   </g>
   <g id="patch_52">
    <path d="M 494.206463 359.517187 
L 494.206463 26.877187 
L 494.384987 26.877187 
L 494.384987 359.517187 
z
" clip-path="url(#pa3f4f07970)" style="fill: #add8e6; stroke: #add8e6; stroke-linejoin: miter"/>
   </g>
   <g id="patch_53">
    <path d="M 507.08553 359.517187 
L 507.08553 26.877187 
L 507.27363 26.877187 
L 507.27363 359.517187 
z
" clip-path="url(#pa3f4f07970)" style="fill: #add8e6; stroke: #add8e6; stroke-linejoin: miter"/>
   </g>
   <g id="patch_54">
    <path d="M 507.445999 359.517187 
L 507.445999 26.877187 
L 507.634783 26.877187 
L 507.634783 359.517187 
z
" clip-path="url(#pa3f4f07970)" style="fill: #add8e6; stroke: #add8e6; stroke-linejoin: miter"/>
   </g>
   <g id="patch_55">
    <path d="M 510.134809 359.517187 
L 510.134809 26.877187 
L 510.177217 26.877187 
L 510.177217 359.517187 
z
" clip-path="url(#pa3f4f07970)" style="fill: #add8e6; stroke: #add8e6; stroke-linejoin: miter"/>
   </g>
   <g id="patch_56">
    <path d="M 514.271651 359.517187 
L 514.271651 26.877187 
L 514.351679 26.877187 
L 514.351679 359.517187 
z
" clip-path="url(#pa3f4f07970)" style="fill: #add8e6; stroke: #add8e6; stroke-linejoin: miter"/>
   </g>
   <g id="patch_57">
    <path d="M 517.593163 359.517187 
L 517.593163 26.877187 
L 517.716967 26.877187 
L 517.716967 359.517187 
z
" clip-path="url(#pa3f4f07970)" style="fill: #add8e6; stroke: #add8e6; stroke-linejoin: miter"/>
   </g>
   <g id="patch_58">
    <path d="M 550.216622 359.517187 
L 550.216622 26.877187 
L 547.875284 26.877187 
L 547.875284 359.517187 
z
" clip-path="url(#pa3f4f07970)" style="fill: #add8e6; stroke: #add8e6; stroke-linejoin: miter"/>
   </g>
   <g id="patch_59">
    <path d="M 569.058132 359.517187 
L 569.058132 26.877187 
L 569.248968 26.877187 
L 569.248968 359.517187 
z
" clip-path="url(#pa3f4f07970)" style="fill: #add8e6; stroke: #add8e6; stroke-linejoin: miter"/>
   </g>
   <g id="patch_60">
    <path d="M 619.168093 359.517187 
L 619.168093 26.877187 
L 619.274113 26.877187 
L 619.274113 359.517187 
z
" clip-path="url(#pa3f4f07970)" style="fill: #add8e6; stroke: #add8e6; stroke-linejoin: miter"/>
   </g>
   <g id="patch_61">
    <path d="M 619.525826 359.517187 
L 619.525826 26.877187 
L 619.684514 26.877187 
L 619.684514 359.517187 
z
" clip-path="url(#pa3f4f07970)" style="fill: #add8e6; stroke: #add8e6; stroke-linejoin: miter"/>
   </g>
   <g id="patch_62">
    <path d="M 641.790764 359.517187 
L 641.790764 26.877187 
L 641.864636 26.877187 
L 641.864636 359.517187 
z
" clip-path="url(#pa3f4f07970)" style="fill: #add8e6; stroke: #add8e6; stroke-linejoin: miter"/>
   </g>
   <g id="patch_63">
    <path d="M 642.018536 359.517187 
L 642.018536 26.877187 
L 642.081464 26.877187 
L 642.081464 359.517187 
z
" clip-path="url(#pa3f4f07970)" style="fill: #add8e6; stroke: #add8e6; stroke-linejoin: miter"/>
   </g>
   <g id="patch_64">
    <path d="M 642.867382 359.517187 
L 642.867382 26.877187 
L 642.661498 26.877187 
L 642.661498 359.517187 
z
" clip-path="url(#pa3f4f07970)" style="fill: #add8e6; stroke: #add8e6; stroke-linejoin: miter"/>
   </g>
   <g id="patch_65">
    <path d="M 665.771178 359.517187 
L 665.771178 26.877187 
L 665.958594 26.877187 
L 665.958594 359.517187 
z
" clip-path="url(#pa3f4f07970)" style="fill: #add8e6; stroke: #add8e6; stroke-linejoin: miter"/>
   </g>
   <g id="patch_66">
    <path d="M 666.064614 359.517187 
L 666.064614 26.877187 
L 666.217147 26.877187 
L 666.217147 359.517187 
z
" clip-path="url(#pa3f4f07970)" style="fill: #add8e6; stroke: #add8e6; stroke-linejoin: miter"/>
   </g>
   <g id="patch_67">
    <path d="M 677.213157 359.517187 
L 677.213157 26.877187 
L 677.311654 26.877187 
L 677.311654 359.517187 
z
" clip-path="url(#pa3f4f07970)" style="fill: #add8e6; stroke: #add8e6; stroke-linejoin: miter"/>
   </g>
   <g id="patch_68">
    <path d="M 681.75014 359.517187 
L 681.75014 26.877187 
L 677.840387 26.877187 
L 677.840387 359.517187 
z
" clip-path="url(#pa3f4f07970)" style="fill: #add8e6; stroke: #add8e6; stroke-linejoin: miter"/>
   </g>
   <g id="patch_69">
    <path d="M 688.515601 359.517187 
L 688.515601 26.877187 
L 687.62503 26.877187 
L 687.62503 359.517187 
z
" clip-path="url(#pa3f4f07970)" style="fill: #add8e6; stroke: #add8e6; stroke-linejoin: miter"/>
   </g>
   <g id="patch_70">
    <path d="M 699.547179 359.517187 
L 699.547179 26.877187 
L 699.709972 26.877187 
L 699.709972 359.517187 
z
" clip-path="url(#pa3f4f07970)" style="fill: #add8e6; stroke: #add8e6; stroke-linejoin: miter"/>
   </g>
   <g id="patch_71">
    <path d="M 714.59248 359.517187 
L 714.59248 26.877187 
L 714.784 26.877187 
L 714.784 359.517187 
z
" clip-path="url(#pa3f4f07970)" style="fill: #add8e6; stroke: #add8e6; stroke-linejoin: miter"/>
   </g>
   <g id="patch_72">
    <path d="M 714.84898 359.517187 
L 714.84898 26.877187 
L 715.010405 26.877187 
L 715.010405 359.517187 
z
" clip-path="url(#pa3f4f07970)" style="fill: #add8e6; stroke: #add8e6; stroke-linejoin: miter"/>
   </g>
   <g id="patch_73">
    <path d="M 715.101377 359.517187 
L 715.101377 26.877187 
L 715.202609 26.877187 
L 715.202609 359.517187 
z
" clip-path="url(#pa3f4f07970)" style="fill: #add8e6; stroke: #add8e6; stroke-linejoin: miter"/>
   </g>
   <g id="patch_74">
    <path d="M 715.323678 359.517187 
L 715.323678 26.877187 
L 715.464582 26.877187 
L 715.464582 359.517187 
z
" clip-path="url(#pa3f4f07970)" style="fill: #add8e6; stroke: #add8e6; stroke-linejoin: miter"/>
   </g>
   <g id="patch_75">
    <path d="M 741.131744 359.517187 
L 741.131744 26.877187 
L 731.036564 26.877187 
L 731.036564 359.517187 
z
" clip-path="url(#pa3f4f07970)" style="fill: #add8e6; stroke: #add8e6; stroke-linejoin: miter"/>
   </g>
   <g id="patch_76">
    <path d="M 743.64203 359.517187 
L 743.64203 26.877187 
L 734.664508 26.877187 
L 734.664508 359.517187 
z
" clip-path="url(#pa3f4f07970)" style="fill: #add8e6; stroke: #add8e6; stroke-linejoin: miter"/>
   </g>
   <g id="patch_77">
    <path d="M 747.406775 359.517187 
L 747.406775 26.877187 
L 747.281603 26.877187 
L 747.281603 359.517187 
z
" clip-path="url(#pa3f4f07970)" style="fill: #add8e6; stroke: #add8e6; stroke-linejoin: miter"/>
   </g>
   <g id="patch_78">
    <path d="M 749.265892 359.517187 
L 749.265892 26.877187 
L 749.300092 26.877187 
L 749.300092 359.517187 
z
" clip-path="url(#pa3f4f07970)" style="fill: #add8e6; stroke: #add8e6; stroke-linejoin: miter"/>
   </g>
   <g id="patch_79">
    <path d="M 757.435607 359.517187 
L 757.435607 26.877187 
L 757.544364 26.877187 
L 757.544364 359.517187 
z
" clip-path="url(#pa3f4f07970)" style="fill: #add8e6; stroke: #add8e6; stroke-linejoin: miter"/>
   </g>
   <g id="patch_80">
    <path d="M 762.301595 359.517187 
L 762.301595 26.877187 
L 762.375467 26.877187 
L 762.375467 359.517187 
z
" clip-path="url(#pa3f4f07970)" style="fill: #add8e6; stroke: #add8e6; stroke-linejoin: miter"/>
   </g>
   <g id="patch_81">
    <path d="M 762.697632 359.517187 
L 762.697632 26.877187 
L 762.828276 26.877187 
L 762.828276 359.517187 
z
" clip-path="url(#pa3f4f07970)" style="fill: #add8e6; stroke: #add8e6; stroke-linejoin: miter"/>
   </g>
   <g id="patch_82">
    <path d="M 769.323556 359.517187 
L 769.323556 26.877187 
L 768.567734 26.877187 
L 768.567734 359.517187 
z
" clip-path="url(#pa3f4f07970)" style="fill: #add8e6; stroke: #add8e6; stroke-linejoin: miter"/>
   </g>
   <g id="patch_83">
    <path d="M 778.16975 359.517187 
L 778.16975 26.877187 
L 778.106137 26.877187 
L 778.106137 359.517187 
z
" clip-path="url(#pa3f4f07970)" style="fill: #add8e6; stroke: #add8e6; stroke-linejoin: miter"/>
   </g>
   <g id="patch_84">
    <path d="M 793.723947 359.517187 
L 793.723947 26.877187 
L 793.91752 26.877187 
L 793.91752 359.517187 
z
" clip-path="url(#pa3f4f07970)" style="fill: #add8e6; stroke: #add8e6; stroke-linejoin: miter"/>
   </g>
   <g id="patch_85">
    <path d="M 793.998232 359.517187 
L 793.998232 26.877187 
L 794.184964 26.877187 
L 794.184964 359.517187 
z
" clip-path="url(#pa3f4f07970)" style="fill: #add8e6; stroke: #add8e6; stroke-linejoin: miter"/>
   </g>
   <g id="patch_86">
    <path d="M 794.310821 359.517187 
L 794.310821 26.877187 
L 794.507813 26.877187 
L 794.507813 359.517187 
z
" clip-path="url(#pa3f4f07970)" style="fill: #add8e6; stroke: #add8e6; stroke-linejoin: miter"/>
   </g>
   <g id="patch_87">
    <path d="M 794.638457 359.517187 
L 794.638457 26.877187 
L 794.798514 26.877187 
L 794.798514 359.517187 
z
" clip-path="url(#pa3f4f07970)" style="fill: #add8e6; stroke: #add8e6; stroke-linejoin: miter"/>
   </g>
   <g id="patch_88">
    <path d="M 795.044754 359.517187 
L 795.044754 26.877187 
L 795.128887 26.877187 
L 795.128887 359.517187 
z
" clip-path="url(#pa3f4f07970)" style="fill: #add8e6; stroke: #add8e6; stroke-linejoin: miter"/>
   </g>
   <g id="patch_89">
    <path d="M 856.100794 359.517187 
L 856.100794 26.877187 
L 856.292315 26.877187 
L 856.292315 359.517187 
z
" clip-path="url(#pa3f4f07970)" style="fill: #add8e6; stroke: #add8e6; stroke-linejoin: miter"/>
   </g>
   <g id="patch_90">
    <path d="M 892.673679 359.517187 
L 892.673679 26.877187 
L 892.862463 26.877187 
L 892.862463 359.517187 
z
" clip-path="url(#pa3f4f07970)" style="fill: #add8e6; stroke: #add8e6; stroke-linejoin: miter"/>
   </g>
   <g id="patch_91">
    <path d="M 912.713559 359.517187 
L 912.713559 26.877187 
L 912.862671 26.877187 
L 912.862671 359.517187 
z
" clip-path="url(#pa3f4f07970)" style="fill: #add8e6; stroke: #add8e6; stroke-linejoin: miter"/>
   </g>
   <g id="patch_92">
    <path d="M 913.372253 359.517187 
L 913.372253 26.877187 
L 913.206724 26.877187 
L 913.206724 359.517187 
z
" clip-path="url(#pa3f4f07970)" style="fill: #add8e6; stroke: #add8e6; stroke-linejoin: miter"/>
   </g>
   <g id="patch_93">
    <path d="M 933.57219 359.517187 
L 933.57219 26.877187 
L 933.73635 26.877187 
L 933.73635 359.517187 
z
" clip-path="url(#pa3f4f07970)" style="fill: #add8e6; stroke: #add8e6; stroke-linejoin: miter"/>
   </g>
   <g id="patch_94">
    <path d="M 933.850578 359.517187 
L 933.850578 26.877187 
L 934.005163 26.877187 
L 934.005163 359.517187 
z
" clip-path="url(#pa3f4f07970)" style="fill: #add8e6; stroke: #add8e6; stroke-linejoin: miter"/>
   </g>
   <g id="patch_95">
    <path d="M 934.071511 359.517187 
L 934.071511 26.877187 
L 934.241827 26.877187 
L 934.241827 359.517187 
z
" clip-path="url(#pa3f4f07970)" style="fill: #add8e6; stroke: #add8e6; stroke-linejoin: miter"/>
   </g>
   <g id="patch_96">
    <path d="M 947.382183 359.517187 
L 947.382183 26.877187 
L 937.012718 26.877187 
L 937.012718 359.517187 
z
" clip-path="url(#pa3f4f07970)" style="fill: #add8e6; stroke: #add8e6; stroke-linejoin: miter"/>
   </g>
   <g id="patch_97">
    <path d="M 950.31655 359.517187 
L 950.31655 26.877187 
L 938.998375 26.877187 
L 938.998375 359.517187 
z
" clip-path="url(#pa3f4f07970)" style="fill: #add8e6; stroke: #add8e6; stroke-linejoin: miter"/>
   </g>
   <g id="patch_98">
    <path d="M 958.062185 359.517187 
L 958.062185 26.877187 
L 958.237973 26.877187 
L 958.237973 359.517187 
z
" clip-path="url(#pa3f4f07970)" style="fill: #add8e6; stroke: #add8e6; stroke-linejoin: miter"/>
   </g>
   <g id="patch_99">
    <path d="M 958.279697 359.517187 
L 958.279697 26.877187 
L 958.419234 26.877187 
L 958.419234 359.517187 
z
" clip-path="url(#pa3f4f07970)" style="fill: #add8e6; stroke: #add8e6; stroke-linejoin: miter"/>
   </g>
   <g id="patch_100">
    <path d="M 983.375034 359.517187 
L 983.375034 26.877187 
L 983.522094 26.877187 
L 983.522094 359.517187 
z
" clip-path="url(#pa3f4f07970)" style="fill: #add8e6; stroke: #add8e6; stroke-linejoin: miter"/>
   </g>
   <g id="patch_101">
    <path d="M 983.638375 359.517187 
L 983.638375 26.877187 
L 983.708143 26.877187 
L 983.708143 359.517187 
z
" clip-path="url(#pa3f4f07970)" style="fill: #add8e6; stroke: #add8e6; stroke-linejoin: miter"/>
   </g>
   <g id="patch_102">
    <path d="M 1001.510654 359.517187 
L 1001.510654 26.877187 
L 1001.668658 26.877187 
L 1001.668658 359.517187 
z
" clip-path="url(#pa3f4f07970)" style="fill: #add8e6; stroke: #add8e6; stroke-linejoin: miter"/>
   </g>
   <g id="patch_103">
    <path d="M 1001.731586 359.517187 
L 1001.731586 26.877187 
L 1001.819139 26.877187 
L 1001.819139 359.517187 
z
" clip-path="url(#pa3f4f07970)" style="fill: #add8e6; stroke: #add8e6; stroke-linejoin: miter"/>
   </g>
   <g id="patch_104">
    <path d="M 1002.009291 359.517187 
L 1002.009291 26.877187 
L 1002.033231 26.877187 
L 1002.033231 359.517187 
z
" clip-path="url(#pa3f4f07970)" style="fill: #add8e6; stroke: #add8e6; stroke-linejoin: miter"/>
   </g>
   <g id="patch_105">
    <path d="M 1002.235012 359.517187 
L 1002.235012 26.877187 
L 1002.226804 26.877187 
L 1002.226804 359.517187 
z
" clip-path="url(#pa3f4f07970)" style="fill: #add8e6; stroke: #add8e6; stroke-linejoin: miter"/>
   </g>
   <g id="patch_106">
    <path d="M 1007.397172 359.517187 
L 1007.397172 26.877187 
L 1007.543548 26.877187 
L 1007.543548 359.517187 
z
" clip-path="url(#pa3f4f07970)" style="fill: #add8e6; stroke: #add8e6; stroke-linejoin: miter"/>
   </g>
   <g id="patch_107">
    <path d="M 1011.122929 359.517187 
L 1011.122929 26.877187 
L 1009.852738 26.877187 
L 1009.852738 359.517187 
z
" clip-path="url(#pa3f4f07970)" style="fill: #add8e6; stroke: #add8e6; stroke-linejoin: miter"/>
   </g>
   <g id="patch_108">
    <path d="M 1025.040311 359.517187 
L 1025.040311 26.877187 
L 1025.192159 26.877187 
L 1025.192159 359.517187 
z
" clip-path="url(#pa3f4f07970)" style="fill: #add8e6; stroke: #add8e6; stroke-linejoin: miter"/>
   </g>
   <g id="patch_109">
    <path d="M 1025.313227 359.517187 
L 1025.313227 26.877187 
L 1025.46918 26.877187 
L 1025.46918 359.517187 
z
" clip-path="url(#pa3f4f07970)" style="fill: #add8e6; stroke: #add8e6; stroke-linejoin: miter"/>
   </g>
   <g id="patch_110">
    <path d="M 1062.029752 359.517187 
L 1062.029752 26.877187 
L 1062.183653 26.877187 
L 1062.183653 359.517187 
z
" clip-path="url(#pa3f4f07970)" style="fill: #add8e6; stroke: #add8e6; stroke-linejoin: miter"/>
   </g>
   <g id="patch_111">
    <path d="M 1087.889803 359.517187 
L 1087.889803 26.877187 
L 1088.071063 26.877187 
L 1088.071063 359.517187 
z
" clip-path="url(#pa3f4f07970)" style="fill: #add8e6; stroke: #add8e6; stroke-linejoin: miter"/>
   </g>
   <g id="patch_112">
    <path d="M 1088.434952 359.517187 
L 1088.434952 26.877187 
L 1088.613477 26.877187 
L 1088.613477 359.517187 
z
" clip-path="url(#pa3f4f07970)" style="fill: #add8e6; stroke: #add8e6; stroke-linejoin: miter"/>
   </g>
   <g id="patch_113">
    <path d="M 1088.675037 359.517187 
L 1088.675037 26.877187 
L 1088.844669 26.877187 
L 1088.844669 359.517187 
z
" clip-path="url(#pa3f4f07970)" style="fill: #add8e6; stroke: #add8e6; stroke-linejoin: miter"/>
   </g>
   <g id="patch_114">
    <path d="M 1088.902125 359.517187 
L 1088.902125 26.877187 
L 1089.02251 26.877187 
L 1089.02251 359.517187 
z
" clip-path="url(#pa3f4f07970)" style="fill: #add8e6; stroke: #add8e6; stroke-linejoin: miter"/>
   </g>
   <g id="patch_115">
    <path d="M 1089.403499 359.517187 
L 1089.403499 26.877187 
L 1089.412391 26.877187 
L 1089.412391 359.517187 
z
" clip-path="url(#pa3f4f07970)" style="fill: #add8e6; stroke: #add8e6; stroke-linejoin: miter"/>
   </g>
   <g id="patch_116">
    <path d="M 223.082571 359.517187 
L 223.082571 26.877187 
L 370.826928 26.877187 
L 370.826928 359.517187 
z
" clip-path="url(#pa3f4f07970)" style="fill: #808080; opacity: 0.4; stroke: #808080; stroke-linejoin: miter"/>
   </g>
   <g id="patch_117">
    <path d="M 374.930938 26.877187 
L 374.930938 26.877187 
L 374.930938 359.517187 
" clip-path="url(#pa3f4f07970)" style="fill: #808080; opacity: 0.4; stroke: #808080; stroke-linejoin: miter"/>
   </g>
   <g id="patch_118">
    <path d="M 379.034948 26.877187 
L 379.034948 26.877187 
L 379.034948 359.517187 
" clip-path="url(#pa3f4f07970)" style="fill: #808080; opacity: 0.4; stroke: #808080; stroke-linejoin: miter"/>
   </g>
   <g id="patch_119">
    <path d="M 518.571285 359.517187 
L 518.571285 26.877187 
L 666.315643 26.877187 
L 666.315643 359.517187 
z
" clip-path="url(#pa3f4f07970)" style="fill: #808080; opacity: 0.4; stroke: #808080; stroke-linejoin: miter"/>
   </g>
   <g id="patch_120">
    <path d="M 670.419653 26.877187 
L 670.419653 26.877187 
L 670.419653 359.517187 
" clip-path="url(#pa3f4f07970)" style="fill: #808080; opacity: 0.4; stroke: #808080; stroke-linejoin: miter"/>
   </g>
   <g id="patch_121">
    <path d="M 674.523663 26.877187 
L 674.523663 26.877187 
L 674.523663 359.517187 
" clip-path="url(#pa3f4f07970)" style="fill: #808080; opacity: 0.4; stroke: #808080; stroke-linejoin: miter"/>
   </g>
   <g id="patch_122">
    <path d="M 814.06 359.517187 
L 814.06 26.877187 
L 961.804358 26.877187 
L 961.804358 359.517187 
z
" clip-path="url(#pa3f4f07970)" style="fill: #808080; opacity: 0.4; stroke: #808080; stroke-linejoin: miter"/>
   </g>
   <g id="patch_123">
    <path d="M 965.908368 26.877187 
L 965.908368 26.877187 
L 965.908368 359.517187 
" clip-path="url(#pa3f4f07970)" style="fill: #808080; opacity: 0.4; stroke: #808080; stroke-linejoin: miter"/>
   </g>
   <g id="patch_124">
    <path d="M 970.012378 26.877187 
L 970.012378 26.877187 
L 970.012378 359.517187 
" clip-path="url(#pa3f4f07970)" style="fill: #808080; opacity: 0.4; stroke: #808080; stroke-linejoin: miter"/>
   </g>
   <g id="patch_125">
    <path d="M 1109.548715 359.517187 
L 1109.548715 26.877187 
L 1114.507727 26.877187 
L 1114.507727 359.517187 
z
" clip-path="url(#pa3f4f07970)" style="fill: #808080; opacity: 0.4; stroke: #808080; stroke-linejoin: miter"/>
   </g>
   <g id="matplotlib.axis_1">
    <g id="xtick_1">
     <g id="line2d_1">
      <defs>
       <path id="m79599e2fc4" d="M 0 0 
L 0 3.5 
" style="stroke: #000000; stroke-width: 0.8"/>
      </defs>
      <g>
       <use xlink:href="#m79599e2fc4" x="134.384656" y="359.517187" style="stroke: #000000; stroke-width: 0.8"/>
      </g>
     </g>
     <g id="text_1">
      <!-- 07-11 12 -->
      <g transform="translate(111.904187 374.115625) scale(0.1 -0.1)">
       <defs>
        <path id="DejaVuSans-30" d="M 2034 4250 
Q 1547 4250 1301 3770 
Q 1056 3291 1056 2328 
Q 1056 1369 1301 889 
Q 1547 409 2034 409 
Q 2525 409 2770 889 
Q 3016 1369 3016 2328 
Q 3016 3291 2770 3770 
Q 2525 4250 2034 4250 
z
M 2034 4750 
Q 2819 4750 3233 4129 
Q 3647 3509 3647 2328 
Q 3647 1150 3233 529 
Q 2819 -91 2034 -91 
Q 1250 -91 836 529 
Q 422 1150 422 2328 
Q 422 3509 836 4129 
Q 1250 4750 2034 4750 
z
" transform="scale(0.015625)"/>
        <path id="DejaVuSans-37" d="M 525 4666 
L 3525 4666 
L 3525 4397 
L 1831 0 
L 1172 0 
L 2766 4134 
L 525 4134 
L 525 4666 
z
" transform="scale(0.015625)"/>
        <path id="DejaVuSans-2d" d="M 313 2009 
L 1997 2009 
L 1997 1497 
L 313 1497 
L 313 2009 
z
" transform="scale(0.015625)"/>
        <path id="DejaVuSans-31" d="M 794 531 
L 1825 531 
L 1825 4091 
L 703 3866 
L 703 4441 
L 1819 4666 
L 2450 4666 
L 2450 531 
L 3481 531 
L 3481 0 
L 794 0 
L 794 531 
z
" transform="scale(0.015625)"/>
        <path id="DejaVuSans-20" transform="scale(0.015625)"/>
        <path id="DejaVuSans-32" d="M 1228 531 
L 3431 531 
L 3431 0 
L 469 0 
L 469 531 
Q 828 903 1448 1529 
Q 2069 2156 2228 2338 
Q 2531 2678 2651 2914 
Q 2772 3150 2772 3378 
Q 2772 3750 2511 3984 
Q 2250 4219 1831 4219 
Q 1534 4219 1204 4116 
Q 875 4013 500 3803 
L 500 4441 
Q 881 4594 1212 4672 
Q 1544 4750 1819 4750 
Q 2544 4750 2975 4387 
Q 3406 4025 3406 3419 
Q 3406 3131 3298 2873 
Q 3191 2616 2906 2266 
Q 2828 2175 2409 1742 
Q 1991 1309 1228 531 
z
" transform="scale(0.015625)"/>
       </defs>
       <use xlink:href="#DejaVuSans-30"/>
       <use xlink:href="#DejaVuSans-37" x="63.623047"/>
       <use xlink:href="#DejaVuSans-2d" x="127.246094"/>
       <use xlink:href="#DejaVuSans-31" x="163.330078"/>
       <use xlink:href="#DejaVuSans-31" x="226.953125"/>
       <use xlink:href="#DejaVuSans-20" x="290.576172"/>
       <use xlink:href="#DejaVuSans-31" x="322.363281"/>
       <use xlink:href="#DejaVuSans-32" x="385.986328"/>
      </g>
     </g>
    </g>
    <g id="xtick_2">
     <g id="line2d_2">
      <g>
       <use xlink:href="#m79599e2fc4" x="282.129013" y="359.517187" style="stroke: #000000; stroke-width: 0.8"/>
      </g>
     </g>
     <g id="text_2">
      <!-- 07-12 00 -->
      <g transform="translate(259.648545 374.115625) scale(0.1 -0.1)">
       <use xlink:href="#DejaVuSans-30"/>
       <use xlink:href="#DejaVuSans-37" x="63.623047"/>
       <use xlink:href="#DejaVuSans-2d" x="127.246094"/>
       <use xlink:href="#DejaVuSans-31" x="163.330078"/>
       <use xlink:href="#DejaVuSans-32" x="226.953125"/>
       <use xlink:href="#DejaVuSans-20" x="290.576172"/>
       <use xlink:href="#DejaVuSans-30" x="322.363281"/>
       <use xlink:href="#DejaVuSans-30" x="385.986328"/>
      </g>
     </g>
    </g>
    <g id="xtick_3">
     <g id="line2d_3">
      <g>
       <use xlink:href="#m79599e2fc4" x="429.873371" y="359.517187" style="stroke: #000000; stroke-width: 0.8"/>
      </g>
     </g>
     <g id="text_3">
      <!-- 07-12 12 -->
      <g transform="translate(407.392902 374.115625) scale(0.1 -0.1)">
       <use xlink:href="#DejaVuSans-30"/>
       <use xlink:href="#DejaVuSans-37" x="63.623047"/>
       <use xlink:href="#DejaVuSans-2d" x="127.246094"/>
       <use xlink:href="#DejaVuSans-31" x="163.330078"/>
       <use xlink:href="#DejaVuSans-32" x="226.953125"/>
       <use xlink:href="#DejaVuSans-20" x="290.576172"/>
       <use xlink:href="#DejaVuSans-31" x="322.363281"/>
       <use xlink:href="#DejaVuSans-32" x="385.986328"/>
      </g>
     </g>
    </g>
    <g id="xtick_4">
     <g id="line2d_4">
      <g>
       <use xlink:href="#m79599e2fc4" x="577.617728" y="359.517187" style="stroke: #000000; stroke-width: 0.8"/>
      </g>
     </g>
     <g id="text_4">
      <!-- 07-13 00 -->
      <g transform="translate(555.13726 374.115625) scale(0.1 -0.1)">
       <defs>
        <path id="DejaVuSans-33" d="M 2597 2516 
Q 3050 2419 3304 2112 
Q 3559 1806 3559 1356 
Q 3559 666 3084 287 
Q 2609 -91 1734 -91 
Q 1441 -91 1130 -33 
Q 819 25 488 141 
L 488 750 
Q 750 597 1062 519 
Q 1375 441 1716 441 
Q 2309 441 2620 675 
Q 2931 909 2931 1356 
Q 2931 1769 2642 2001 
Q 2353 2234 1838 2234 
L 1294 2234 
L 1294 2753 
L 1863 2753 
Q 2328 2753 2575 2939 
Q 2822 3125 2822 3475 
Q 2822 3834 2567 4026 
Q 2313 4219 1838 4219 
Q 1578 4219 1281 4162 
Q 984 4106 628 3988 
L 628 4550 
Q 988 4650 1302 4700 
Q 1616 4750 1894 4750 
Q 2613 4750 3031 4423 
Q 3450 4097 3450 3541 
Q 3450 3153 3228 2886 
Q 3006 2619 2597 2516 
z
" transform="scale(0.015625)"/>
       </defs>
       <use xlink:href="#DejaVuSans-30"/>
       <use xlink:href="#DejaVuSans-37" x="63.623047"/>
       <use xlink:href="#DejaVuSans-2d" x="127.246094"/>
       <use xlink:href="#DejaVuSans-31" x="163.330078"/>
       <use xlink:href="#DejaVuSans-33" x="226.953125"/>
       <use xlink:href="#DejaVuSans-20" x="290.576172"/>
       <use xlink:href="#DejaVuSans-30" x="322.363281"/>
       <use xlink:href="#DejaVuSans-30" x="385.986328"/>
      </g>
     </g>
    </g>
    <g id="xtick_5">
     <g id="line2d_5">
      <g>
       <use xlink:href="#m79599e2fc4" x="725.362086" y="359.517187" style="stroke: #000000; stroke-width: 0.8"/>
      </g>
     </g>
     <g id="text_5">
      <!-- 07-13 12 -->
      <g transform="translate(702.881617 374.115625) scale(0.1 -0.1)">
       <use xlink:href="#DejaVuSans-30"/>
       <use xlink:href="#DejaVuSans-37" x="63.623047"/>
       <use xlink:href="#DejaVuSans-2d" x="127.246094"/>
       <use xlink:href="#DejaVuSans-31" x="163.330078"/>
       <use xlink:href="#DejaVuSans-33" x="226.953125"/>
       <use xlink:href="#DejaVuSans-20" x="290.576172"/>
       <use xlink:href="#DejaVuSans-31" x="322.363281"/>
       <use xlink:href="#DejaVuSans-32" x="385.986328"/>
      </g>
     </g>
    </g>
    <g id="xtick_6">
     <g id="line2d_6">
      <g>
       <use xlink:href="#m79599e2fc4" x="873.106443" y="359.517187" style="stroke: #000000; stroke-width: 0.8"/>
      </g>
     </g>
     <g id="text_6">
      <!-- 07-14 00 -->
      <g transform="translate(850.625974 374.115625) scale(0.1 -0.1)">
       <defs>
        <path id="DejaVuSans-34" d="M 2419 4116 
L 825 1625 
L 2419 1625 
L 2419 4116 
z
M 2253 4666 
L 3047 4666 
L 3047 1625 
L 3713 1625 
L 3713 1100 
L 3047 1100 
L 3047 0 
L 2419 0 
L 2419 1100 
L 313 1100 
L 313 1709 
L 2253 4666 
z
" transform="scale(0.015625)"/>
       </defs>
       <use xlink:href="#DejaVuSans-30"/>
       <use xlink:href="#DejaVuSans-37" x="63.623047"/>
       <use xlink:href="#DejaVuSans-2d" x="127.246094"/>
       <use xlink:href="#DejaVuSans-31" x="163.330078"/>
       <use xlink:href="#DejaVuSans-34" x="226.953125"/>
       <use xlink:href="#DejaVuSans-20" x="290.576172"/>
       <use xlink:href="#DejaVuSans-30" x="322.363281"/>
       <use xlink:href="#DejaVuSans-30" x="385.986328"/>
      </g>
     </g>
    </g>
    <g id="xtick_7">
     <g id="line2d_7">
      <g>
       <use xlink:href="#m79599e2fc4" x="1020.850801" y="359.517187" style="stroke: #000000; stroke-width: 0.8"/>
      </g>
     </g>
     <g id="text_7">
      <!-- 07-14 12 -->
      <g transform="translate(998.370332 374.115625) scale(0.1 -0.1)">
       <use xlink:href="#DejaVuSans-30"/>
       <use xlink:href="#DejaVuSans-37" x="63.623047"/>
       <use xlink:href="#DejaVuSans-2d" x="127.246094"/>
       <use xlink:href="#DejaVuSans-31" x="163.330078"/>
       <use xlink:href="#DejaVuSans-34" x="226.953125"/>
       <use xlink:href="#DejaVuSans-20" x="290.576172"/>
       <use xlink:href="#DejaVuSans-31" x="322.363281"/>
       <use xlink:href="#DejaVuSans-32" x="385.986328"/>
      </g>
     </g>
    </g>
    <g id="text_8">
     <!-- Time -->
     <g transform="translate(592.554688 389.313437) scale(0.12 -0.12)">
      <defs>
       <path id="DejaVuSans-54" d="M -19 4666 
L 3928 4666 
L 3928 4134 
L 2272 4134 
L 2272 0 
L 1638 0 
L 1638 4134 
L -19 4134 
L -19 4666 
z
" transform="scale(0.015625)"/>
       <path id="DejaVuSans-69" d="M 603 3500 
L 1178 3500 
L 1178 0 
L 603 0 
L 603 3500 
z
M 603 4863 
L 1178 4863 
L 1178 4134 
L 603 4134 
L 603 4863 
z
" transform="scale(0.015625)"/>
       <path id="DejaVuSans-6d" d="M 3328 2828 
Q 3544 3216 3844 3400 
Q 4144 3584 4550 3584 
Q 5097 3584 5394 3201 
Q 5691 2819 5691 2113 
L 5691 0 
L 5113 0 
L 5113 2094 
Q 5113 2597 4934 2840 
Q 4756 3084 4391 3084 
Q 3944 3084 3684 2787 
Q 3425 2491 3425 1978 
L 3425 0 
L 2847 0 
L 2847 2094 
Q 2847 2600 2669 2842 
Q 2491 3084 2119 3084 
Q 1678 3084 1418 2786 
Q 1159 2488 1159 1978 
L 1159 0 
L 581 0 
L 581 3500 
L 1159 3500 
L 1159 2956 
Q 1356 3278 1631 3431 
Q 1906 3584 2284 3584 
Q 2666 3584 2933 3390 
Q 3200 3197 3328 2828 
z
" transform="scale(0.015625)"/>
       <path id="DejaVuSans-65" d="M 3597 1894 
L 3597 1613 
L 953 1613 
Q 991 1019 1311 708 
Q 1631 397 2203 397 
Q 2534 397 2845 478 
Q 3156 559 3463 722 
L 3463 178 
Q 3153 47 2828 -22 
Q 2503 -91 2169 -91 
Q 1331 -91 842 396 
Q 353 884 353 1716 
Q 353 2575 817 3079 
Q 1281 3584 2069 3584 
Q 2775 3584 3186 3129 
Q 3597 2675 3597 1894 
z
M 3022 2063 
Q 3016 2534 2758 2815 
Q 2500 3097 2075 3097 
Q 1594 3097 1305 2825 
Q 1016 2553 972 2059 
L 3022 2063 
z
" transform="scale(0.015625)"/>
      </defs>
      <use xlink:href="#DejaVuSans-54"/>
      <use xlink:href="#DejaVuSans-69" x="57.958984"/>
      <use xlink:href="#DejaVuSans-6d" x="85.742188"/>
      <use xlink:href="#DejaVuSans-65" x="183.154297"/>
     </g>
    </g>
   </g>
   <g id="matplotlib.axis_2">
    <g id="ytick_1">
     <g id="line2d_8">
      <defs>
       <path id="m95dc9876c1" d="M 0 0 
L -3.5 0 
" style="stroke: #000000; stroke-width: 0.8"/>
      </defs>
      <g>
       <use xlink:href="#m95dc9876c1" x="49.235" y="344.397187" style="stroke: #000000; stroke-width: 0.8"/>
      </g>
     </g>
     <g id="text_9">
      <!-- 0 -->
      <g transform="translate(35.8725 348.196406) scale(0.1 -0.1)">
       <use xlink:href="#DejaVuSans-30"/>
      </g>
     </g>
    </g>
    <g id="ytick_2">
     <g id="line2d_9">
      <g>
       <use xlink:href="#m95dc9876c1" x="49.235" y="292.968616" style="stroke: #000000; stroke-width: 0.8"/>
      </g>
     </g>
     <g id="text_10">
      <!-- 100 -->
      <g transform="translate(23.1475 296.767835) scale(0.1 -0.1)">
       <use xlink:href="#DejaVuSans-31"/>
       <use xlink:href="#DejaVuSans-30" x="63.623047"/>
       <use xlink:href="#DejaVuSans-30" x="127.246094"/>
      </g>
     </g>
    </g>
    <g id="ytick_3">
     <g id="line2d_10">
      <g>
       <use xlink:href="#m95dc9876c1" x="49.235" y="241.540045" style="stroke: #000000; stroke-width: 0.8"/>
      </g>
     </g>
     <g id="text_11">
      <!-- 200 -->
      <g transform="translate(23.1475 245.339263) scale(0.1 -0.1)">
       <use xlink:href="#DejaVuSans-32"/>
       <use xlink:href="#DejaVuSans-30" x="63.623047"/>
       <use xlink:href="#DejaVuSans-30" x="127.246094"/>
      </g>
     </g>
    </g>
    <g id="ytick_4">
     <g id="line2d_11">
      <g>
       <use xlink:href="#m95dc9876c1" x="49.235" y="190.111473" style="stroke: #000000; stroke-width: 0.8"/>
      </g>
     </g>
     <g id="text_12">
      <!-- 300 -->
      <g transform="translate(23.1475 193.910692) scale(0.1 -0.1)">
       <use xlink:href="#DejaVuSans-33"/>
       <use xlink:href="#DejaVuSans-30" x="63.623047"/>
       <use xlink:href="#DejaVuSans-30" x="127.246094"/>
      </g>
     </g>
    </g>
    <g id="ytick_5">
     <g id="line2d_12">
      <g>
       <use xlink:href="#m95dc9876c1" x="49.235" y="138.682902" style="stroke: #000000; stroke-width: 0.8"/>
      </g>
     </g>
     <g id="text_13">
      <!-- 400 -->
      <g transform="translate(23.1475 142.482121) scale(0.1 -0.1)">
       <use xlink:href="#DejaVuSans-34"/>
       <use xlink:href="#DejaVuSans-30" x="63.623047"/>
       <use xlink:href="#DejaVuSans-30" x="127.246094"/>
      </g>
     </g>
    </g>
    <g id="ytick_6">
     <g id="line2d_13">
      <g>
       <use xlink:href="#m95dc9876c1" x="49.235" y="87.25433" style="stroke: #000000; stroke-width: 0.8"/>
      </g>
     </g>
     <g id="text_14">
      <!-- 500 -->
      <g transform="translate(23.1475 91.053549) scale(0.1 -0.1)">
       <defs>
        <path id="DejaVuSans-35" d="M 691 4666 
L 3169 4666 
L 3169 4134 
L 1269 4134 
L 1269 2991 
Q 1406 3038 1543 3061 
Q 1681 3084 1819 3084 
Q 2600 3084 3056 2656 
Q 3513 2228 3513 1497 
Q 3513 744 3044 326 
Q 2575 -91 1722 -91 
Q 1428 -91 1123 -41 
Q 819 9 494 109 
L 494 744 
Q 775 591 1075 516 
Q 1375 441 1709 441 
Q 2250 441 2565 725 
Q 2881 1009 2881 1497 
Q 2881 1984 2565 2268 
Q 2250 2553 1709 2553 
Q 1456 2553 1204 2497 
Q 953 2441 691 2322 
L 691 4666 
z
" transform="scale(0.015625)"/>
       </defs>
       <use xlink:href="#DejaVuSans-35"/>
       <use xlink:href="#DejaVuSans-30" x="63.623047"/>
       <use xlink:href="#DejaVuSans-30" x="127.246094"/>
      </g>
     </g>
    </g>
    <g id="ytick_7">
     <g id="line2d_14">
      <g>
       <use xlink:href="#m95dc9876c1" x="49.235" y="35.825759" style="stroke: #000000; stroke-width: 0.8"/>
      </g>
     </g>
     <g id="text_15">
      <!-- 600 -->
      <g transform="translate(23.1475 39.624978) scale(0.1 -0.1)">
       <defs>
        <path id="DejaVuSans-36" d="M 2113 2584 
Q 1688 2584 1439 2293 
Q 1191 2003 1191 1497 
Q 1191 994 1439 701 
Q 1688 409 2113 409 
Q 2538 409 2786 701 
Q 3034 994 3034 1497 
Q 3034 2003 2786 2293 
Q 2538 2584 2113 2584 
z
M 3366 4563 
L 3366 3988 
Q 3128 4100 2886 4159 
Q 2644 4219 2406 4219 
Q 1781 4219 1451 3797 
Q 1122 3375 1075 2522 
Q 1259 2794 1537 2939 
Q 1816 3084 2150 3084 
Q 2853 3084 3261 2657 
Q 3669 2231 3669 1497 
Q 3669 778 3244 343 
Q 2819 -91 2113 -91 
Q 1303 -91 875 529 
Q 447 1150 447 2328 
Q 447 3434 972 4092 
Q 1497 4750 2381 4750 
Q 2619 4750 2861 4703 
Q 3103 4656 3366 4563 
z
" transform="scale(0.015625)"/>
       </defs>
       <use xlink:href="#DejaVuSans-36"/>
       <use xlink:href="#DejaVuSans-30" x="63.623047"/>
       <use xlink:href="#DejaVuSans-30" x="127.246094"/>
      </g>
     </g>
    </g>
    <g id="text_16">
     <!-- Pellet_Count -->
     <g transform="translate(16.318125 230.485312) rotate(-90) scale(0.12 -0.12)">
      <defs>
       <path id="DejaVuSans-50" d="M 1259 4147 
L 1259 2394 
L 2053 2394 
Q 2494 2394 2734 2622 
Q 2975 2850 2975 3272 
Q 2975 3691 2734 3919 
Q 2494 4147 2053 4147 
L 1259 4147 
z
M 628 4666 
L 2053 4666 
Q 2838 4666 3239 4311 
Q 3641 3956 3641 3272 
Q 3641 2581 3239 2228 
Q 2838 1875 2053 1875 
L 1259 1875 
L 1259 0 
L 628 0 
L 628 4666 
z
" transform="scale(0.015625)"/>
       <path id="DejaVuSans-6c" d="M 603 4863 
L 1178 4863 
L 1178 0 
L 603 0 
L 603 4863 
z
" transform="scale(0.015625)"/>
       <path id="DejaVuSans-74" d="M 1172 4494 
L 1172 3500 
L 2356 3500 
L 2356 3053 
L 1172 3053 
L 1172 1153 
Q 1172 725 1289 603 
Q 1406 481 1766 481 
L 2356 481 
L 2356 0 
L 1766 0 
Q 1100 0 847 248 
Q 594 497 594 1153 
L 594 3053 
L 172 3053 
L 172 3500 
L 594 3500 
L 594 4494 
L 1172 4494 
z
" transform="scale(0.015625)"/>
       <path id="DejaVuSans-5f" d="M 3263 -1063 
L 3263 -1509 
L -63 -1509 
L -63 -1063 
L 3263 -1063 
z
" transform="scale(0.015625)"/>
       <path id="DejaVuSans-43" d="M 4122 4306 
L 4122 3641 
Q 3803 3938 3442 4084 
Q 3081 4231 2675 4231 
Q 1875 4231 1450 3742 
Q 1025 3253 1025 2328 
Q 1025 1406 1450 917 
Q 1875 428 2675 428 
Q 3081 428 3442 575 
Q 3803 722 4122 1019 
L 4122 359 
Q 3791 134 3420 21 
Q 3050 -91 2638 -91 
Q 1578 -91 968 557 
Q 359 1206 359 2328 
Q 359 3453 968 4101 
Q 1578 4750 2638 4750 
Q 3056 4750 3426 4639 
Q 3797 4528 4122 4306 
z
" transform="scale(0.015625)"/>
       <path id="DejaVuSans-6f" d="M 1959 3097 
Q 1497 3097 1228 2736 
Q 959 2375 959 1747 
Q 959 1119 1226 758 
Q 1494 397 1959 397 
Q 2419 397 2687 759 
Q 2956 1122 2956 1747 
Q 2956 2369 2687 2733 
Q 2419 3097 1959 3097 
z
M 1959 3584 
Q 2709 3584 3137 3096 
Q 3566 2609 3566 1747 
Q 3566 888 3137 398 
Q 2709 -91 1959 -91 
Q 1206 -91 779 398 
Q 353 888 353 1747 
Q 353 2609 779 3096 
Q 1206 3584 1959 3584 
z
" transform="scale(0.015625)"/>
       <path id="DejaVuSans-75" d="M 544 1381 
L 544 3500 
L 1119 3500 
L 1119 1403 
Q 1119 906 1312 657 
Q 1506 409 1894 409 
Q 2359 409 2629 706 
Q 2900 1003 2900 1516 
L 2900 3500 
L 3475 3500 
L 3475 0 
L 2900 0 
L 2900 538 
Q 2691 219 2414 64 
Q 2138 -91 1772 -91 
Q 1169 -91 856 284 
Q 544 659 544 1381 
z
M 1991 3584 
L 1991 3584 
z
" transform="scale(0.015625)"/>
       <path id="DejaVuSans-6e" d="M 3513 2113 
L 3513 0 
L 2938 0 
L 2938 2094 
Q 2938 2591 2744 2837 
Q 2550 3084 2163 3084 
Q 1697 3084 1428 2787 
Q 1159 2491 1159 1978 
L 1159 0 
L 581 0 
L 581 3500 
L 1159 3500 
L 1159 2956 
Q 1366 3272 1645 3428 
Q 1925 3584 2291 3584 
Q 2894 3584 3203 3211 
Q 3513 2838 3513 2113 
z
" transform="scale(0.015625)"/>
      </defs>
      <use xlink:href="#DejaVuSans-50"/>
      <use xlink:href="#DejaVuSans-65" x="56.677734"/>
      <use xlink:href="#DejaVuSans-6c" x="118.201172"/>
      <use xlink:href="#DejaVuSans-6c" x="145.984375"/>
      <use xlink:href="#DejaVuSans-65" x="173.767578"/>
      <use xlink:href="#DejaVuSans-74" x="235.291016"/>
      <use xlink:href="#DejaVuSans-5f" x="274.5"/>
      <use xlink:href="#DejaVuSans-43" x="324.5"/>
      <use xlink:href="#DejaVuSans-6f" x="394.324219"/>
      <use xlink:href="#DejaVuSans-75" x="455.505859"/>
      <use xlink:href="#DejaVuSans-6e" x="518.884766"/>
      <use xlink:href="#DejaVuSans-74" x="582.263672"/>
     </g>
    </g>
   </g>
   <g id="line2d_15">
    <path d="M 99.962273 344.397187 
L 100.054613 344.397187 
L 100.068293 343.882902 
L 100.834375 343.882902 
L 101.121656 343.368616 
L 103.13262 343.368616 
L 103.15656 342.85433 
L 105.184625 342.85433 
L 105.280386 341.825759 
L 107.22979 341.825759 
L 107.315291 340.797187 
L 107.517071 340.797187 
L 107.605991 339.768616 
L 109.209975 339.768616 
L 109.374135 339.25433 
L 111.627921 339.25433 
L 111.716841 338.225759 
L 112.688124 338.225759 
L 112.800984 337.197187 
L 114.213447 337.197187 
L 114.216867 336.682902 
L 114.610168 336.682902 
L 114.692248 335.65433 
L 114.767489 335.65433 
L 114.835889 334.625759 
L 120.034301 334.625759 
L 120.041141 334.111473 
L 120.434442 334.111473 
L 120.441282 333.597187 
L 120.567823 333.597187 
L 120.649903 332.568616 
L 120.704623 332.568616 
L 120.803803 331.540045 
L 121.374945 331.540045 
L 121.388625 331.025759 
L 141.399093 331.025759 
L 141.399093 331.025759 
L 141.511953 329.997187 
L 141.912094 329.997187 
L 141.912094 329.997187 
L 142.045475 328.968616 
L 142.219895 328.968616 
L 142.343015 327.940045 
L 142.411415 327.940045 
L 142.425095 327.425759 
L 142.626876 327.425759 
L 142.749996 326.911473 
L 142.869697 326.911473 
L 142.869697 326.911473 
L 142.883377 326.397187 
L 143.136457 326.397187 
L 143.146717 325.882902 
L 143.327978 325.882902 
L 143.338238 325.368616 
L 144.2377 325.368616 
L 144.24112 324.85433 
L 144.43948 324.85433 
L 144.44632 324.340045 
L 154.282264 324.340045 
L 154.371184 323.825759 
L 154.463525 323.825759 
L 154.466945 323.311473 
L 154.661885 323.311473 
L 154.778165 322.797187 
L 154.997046 322.797187 
L 155.000466 322.282902 
L 155.181726 322.282902 
L 155.188566 321.768616 
L 155.315107 321.768616 
L 155.393767 320.740045 
L 162.356904 320.740045 
L 162.432144 319.711473 
L 162.517644 319.711473 
L 162.606564 319.197187 
L 162.640764 319.197187 
L 162.651024 318.682902 
L 162.774145 318.682902 
L 162.787825 318.168616 
L 172.343328 318.168616 
L 172.350168 317.65433 
L 172.473288 317.65433 
L 172.582728 316.625759 
L 172.671649 316.625759 
L 172.750309 315.597187 
L 172.818709 315.597187 
L 172.931569 314.568616 
L 172.986289 314.568616 
L 172.993129 314.05433 
L 173.11283 314.05433 
L 173.22911 313.025759 
L 182.811973 313.025759 
L 182.900893 311.997187 
L 182.976134 311.997187 
L 183.088994 310.968616 
L 183.188174 310.968616 
L 183.266834 309.940045 
L 183.383115 309.940045 
L 183.389955 309.425759 
L 184.026076 309.425759 
L 184.029496 308.911473 
L 184.840038 308.911473 
L 184.843458 308.397187 
L 184.990518 308.397187 
L 184.997358 307.882902 
L 186.854423 307.882902 
L 186.857843 307.368616 
L 187.548685 307.368616 
L 187.552105 306.85433 
L 187.719685 306.85433 
L 187.726525 306.340045 
L 191.331214 306.340045 
L 191.444074 305.825759 
L 192.483757 305.825759 
L 192.562417 304.797187 
L 192.637657 304.797187 
L 192.647917 304.282902 
L 196.741667 304.282902 
L 196.741667 304.282902 
L 196.755347 303.768616 
L 196.953707 303.768616 
L 197.063148 303.25433 
L 197.121288 303.25433 
L 197.128128 302.740045 
L 197.251248 302.740045 
L 197.305968 302.225759 
L 197.487229 302.225759 
L 197.490649 301.711473 
L 199.186973 301.711473 
L 199.193813 301.197187 
L 199.857294 301.197187 
L 199.874394 300.682902 
L 202.1487 300.682902 
L 202.26156 299.65433 
L 202.3539 299.65433 
L 202.439401 299.140045 
L 202.514641 299.140045 
L 202.518061 298.625759 
L 202.798502 298.625759 
L 202.801922 298.111473 
L 204.282785 298.111473 
L 204.289625 297.597187 
L 204.412745 297.597187 
L 204.416165 297.082902 
L 204.607686 297.082902 
L 204.744486 296.568616 
L 204.874447 296.568616 
L 204.881287 296.05433 
L 208.044794 296.05433 
L 208.048214 295.540045 
L 210.968901 295.540045 
L 210.975741 295.025759 
L 211.095442 295.025759 
L 211.098862 294.511473 
L 211.256182 294.511473 
L 211.276702 293.997187 
L 213.434727 293.997187 
L 213.441567 293.482902 
L 236.465063 293.482902 
L 236.581343 292.45433 
L 236.731824 292.45433 
L 236.848104 291.425759 
L 236.991744 291.425759 
L 236.995164 290.911473 
L 239.871391 290.911473 
L 239.878231 290.397187 
L 265.162352 290.397187 
L 265.264953 289.368616 
L 265.319673 289.368616 
L 265.418853 288.340045 
L 265.538553 288.340045 
L 265.541973 287.825759 
L 266.072075 287.825759 
L 266.181515 287.311473 
L 291.304896 287.311473 
L 291.404076 286.282902 
L 291.482736 286.282902 
L 291.557976 285.25433 
L 291.643476 285.25433 
L 291.749497 284.225759 
L 291.807637 284.225759 
L 291.814477 283.711473 
L 315.268894 283.711473 
L 315.354394 282.682902 
L 315.419374 282.682902 
L 315.511714 281.65433 
L 315.590374 281.65433 
L 315.675875 280.625759 
L 315.761375 280.625759 
L 315.860555 280.111473 
L 336.835466 280.111473 
L 336.955166 279.597187 
L 336.985946 279.597187 
L 337.105646 278.568616 
L 337.215087 278.568616 
L 337.218507 278.05433 
L 337.358727 278.05433 
L 337.365567 277.540045 
L 337.488687 277.540045 
L 337.492107 277.025759 
L 337.611808 277.025759 
L 337.618648 276.511473 
L 338.271869 276.511473 
L 338.278709 275.997187 
L 355.727592 275.997187 
L 355.840452 274.968616 
L 355.908852 274.968616 
L 355.987512 273.940045 
L 356.131152 273.940045 
L 356.134572 273.425759 
L 356.250853 273.425759 
L 356.360293 272.397187 
L 356.432113 272.397187 
L 356.438953 271.882902 
L 356.668094 271.882902 
L 356.736494 270.85433 
L 356.839094 270.85433 
L 356.907494 269.825759 
L 358.730359 269.825759 
L 358.744039 269.311473 
L 374.315336 269.311473 
L 374.400837 268.282902 
L 374.479497 268.282902 
L 374.479497 268.282902 
L 374.568417 267.25433 
L 380.693652 267.25433 
L 380.796252 266.225759 
L 380.857812 266.225759 
L 380.926212 265.197187 
L 381.018553 265.197187 
L 381.025393 264.682902 
L 382.790117 264.682902 
L 382.913237 263.65433 
L 383.802439 263.65433 
L 383.809279 263.140045 
L 387.920129 263.140045 
L 388.03641 261.597187 
L 388.11507 261.597187 
L 388.20741 260.568616 
L 388.35789 260.568616 
L 388.36473 260.05433 
L 391.706079 260.05433 
L 391.712919 259.540045 
L 391.914699 259.540045 
L 391.921539 259.025759 
L 392.3593 259.025759 
L 392.46874 258.511473 
L 395.560428 258.511473 
L 395.652768 257.997187 
L 395.676708 257.997187 
L 395.775888 257.482902 
L 396.38123 257.482902 
L 396.44963 256.968616 
L 399.117236 256.968616 
L 399.226677 255.940045 
L 399.329277 255.940045 
L 399.332697 255.425759 
L 399.534477 255.425759 
L 399.541318 254.911473 
L 400.150079 254.911473 
L 400.153499 254.397187 
L 400.987981 254.397187 
L 400.994821 253.882902 
L 401.364182 253.882902 
L 401.371022 253.368616 
L 401.689083 253.368616 
L 401.774583 252.340045 
L 401.829303 252.340045 
L 401.836143 251.825759 
L 401.949003 251.825759 
L 401.955843 251.311473 
L 402.321784 251.311473 
L 402.328624 250.797187 
L 403.669268 250.797187 
L 403.672688 250.282902 
L 403.970228 250.282902 
L 403.977068 249.768616 
L 404.243829 249.768616 
L 404.254089 249.25433 
L 405.755473 249.25433 
L 405.827293 248.225759 
L 416.094158 248.225759 
L 416.162558 247.197187 
L 416.227538 247.197187 
L 416.299358 246.168616 
L 416.388278 246.168616 
L 416.473778 245.140045 
L 416.572959 245.140045 
L 416.668719 244.111473 
L 416.754219 244.111473 
L 416.829459 243.082902 
L 416.9218 243.082902 
L 417.02098 242.05433 
L 417.13384 242.05433 
L 417.13726 241.540045 
L 417.633161 241.540045 
L 417.725502 240.511473 
L 418.241923 240.511473 
L 418.344523 239.482902 
L 418.447123 239.482902 
L 418.453963 238.968616 
L 420.529908 238.968616 
L 420.540168 238.45433 
L 422.133892 238.45433 
L 422.140732 237.940045 
L 428.156527 237.940045 
L 428.159947 237.425759 
L 431.716755 237.425759 
L 431.826196 236.397187 
L 431.898016 236.397187 
L 431.973256 235.368616 
L 432.045076 235.368616 
L 432.123736 234.340045 
L 432.770118 234.340045 
L 432.776958 233.825759 
L 432.913758 233.825759 
L 432.917178 233.311473 
L 434.209941 233.311473 
L 434.216781 232.797187 
L 435.417204 232.797187 
L 435.434304 232.282902 
L 436.542387 232.282902 
L 436.641567 231.768616 
L 437.387129 231.768616 
L 437.503409 231.25433 
L 438.132691 231.25433 
L 438.146371 230.740045 
L 438.495212 230.740045 
L 438.502052 230.225759 
L 439.545154 230.225759 
L 439.668275 229.197187 
L 439.770875 229.197187 
L 439.832435 228.168616 
L 450.03774 228.168616 
L 450.1335 227.140045 
L 450.22584 227.140045 
L 450.3045 226.111473 
L 450.410521 226.111473 
L 450.519961 225.082902 
L 450.591781 225.082902 
L 450.694381 224.05433 
L 462.154829 224.05433 
L 462.329249 223.540045 
L 463.139791 223.540045 
L 463.926393 223.025759 
L 465.314917 223.025759 
L 465.376477 221.997187 
L 466.128879 221.997187 
L 466.200699 221.482902 
L 467.531082 221.482902 
L 467.647362 220.45433 
L 468.933285 220.45433 
L 469.049566 219.425759 
L 469.090606 219.425759 
L 469.100866 218.911473 
L 473.016775 218.911473 
L 473.020195 218.397187 
L 473.290376 218.397187 
L 473.389556 217.368616 
L 473.546877 217.368616 
L 473.550297 216.85433 
L 486.450568 216.85433 
L 486.525808 215.825759 
L 486.686548 215.825759 
L 486.813089 214.282902 
L 486.881489 214.282902 
L 486.966989 213.25433 
L 487.052489 213.25433 
L 487.137989 212.225759 
L 487.22007 212.225759 
L 487.29189 211.197187 
L 487.39107 211.197187 
L 487.40475 210.682902 
L 490.438297 210.682902 
L 490.445137 210.168616 
L 491.56006 210.168616 
L 491.5669 209.65433 
L 494.101126 209.65433 
L 494.107966 209.140045 
L 494.268707 209.140045 
L 494.272127 208.625759 
L 496.269412 208.625759 
L 496.272832 208.111473 
L 506.895377 208.111473 
L 506.987717 207.082902 
L 507.066378 207.082902 
L 507.148458 206.05433 
L 507.213438 206.05433 
L 507.295518 205.025759 
L 507.387858 205.025759 
L 507.497299 203.997187 
L 507.575959 203.997187 
L 507.681979 203.482902 
L 507.92138 203.482902 
L 507.9248 202.968616 
L 509.993905 202.968616 
L 510.103345 201.940045 
L 510.424826 201.940045 
L 510.428246 201.425759 
L 514.056875 201.425759 
L 514.056875 201.425759 
L 514.070555 200.911473 
L 514.262075 200.911473 
L 514.265495 200.397187 
L 514.658796 200.397187 
L 514.662216 199.882902 
L 517.411903 199.882902 
L 517.535023 198.85433 
L 517.627363 198.85433 
L 517.729963 197.825759 
L 544.392348 197.825759 
L 544.505208 196.797187 
L 545.11739 196.797187 
L 545.12423 196.282902 
L 545.41151 196.282902 
L 545.527791 195.768616 
L 545.815071 195.768616 
L 545.818491 195.25433 
L 547.706336 195.25433 
L 547.713176 194.740045 
L 568.913807 194.740045 
L 569.002728 193.711473 
L 569.067708 193.711473 
L 569.163468 192.682902 
L 569.481529 192.682902 
L 569.488369 192.168616 
L 570.507531 192.168616 
L 570.818752 191.65433 
L 594.69725 191.65433 
L 594.81011 191.140045 
L 594.82379 191.140045 
L 594.92981 190.625759 
L 594.95375 190.625759 
L 595.063191 190.111473 
L 595.093971 190.111473 
L 595.196571 189.597187 
L 595.302591 189.597187 
L 595.415451 188.568616 
L 595.490692 188.568616 
L 595.494112 188.05433 
L 619.075069 188.05433 
L 619.187929 187.025759 
L 619.256329 187.025759 
L 619.341829 185.997187 
L 619.423909 185.997187 
L 619.50257 184.968616 
L 619.59149 184.968616 
L 619.67357 183.940045 
L 641.612923 183.940045 
L 641.616343 183.425759 
L 641.732623 183.425759 
L 641.831804 182.397187 
L 641.886524 182.397187 
L 641.968604 181.368616 
L 642.071204 181.368616 
L 642.163545 180.340045 
L 642.249045 180.340045 
L 642.355065 179.311473 
L 642.443985 179.311473 
L 642.536325 178.282902 
L 645.327052 178.282902 
L 645.675893 177.768616 
L 645.853733 177.768616 
L 645.877673 177.25433 
L 665.12548 177.25433 
L 665.22808 176.225759 
L 665.2999 176.225759 
L 665.416181 175.197187 
L 665.563241 175.197187 
L 665.570081 174.682902 
L 665.700041 174.682902 
L 665.782122 173.65433 
L 665.881302 173.65433 
L 665.990742 172.625759 
L 666.072822 172.625759 
L 666.079662 172.111473 
L 677.109189 172.111473 
L 677.225469 171.082902 
L 677.36569 171.082902 
L 677.44435 170.05433 
L 677.50591 170.05433 
L 677.59825 169.025759 
L 677.67007 169.025759 
L 677.741891 167.997187 
L 685.481369 167.997187 
L 685.536089 167.482902 
L 685.66263 167.482902 
L 685.66605 166.968616 
L 687.198213 166.968616 
L 687.270034 165.940045 
L 687.345274 165.940045 
L 687.423934 164.911473 
L 691.138063 164.911473 
L 691.141483 164.397187 
L 695.642214 164.397187 
L 695.755074 163.882902 
L 699.110102 163.882902 
L 699.120362 163.368616 
L 699.246903 163.368616 
L 699.346083 162.340045 
L 699.417903 162.340045 
L 699.499983 161.311473 
L 699.564963 161.311473 
L 699.660724 160.282902 
L 699.753064 160.282902 
L 699.756484 159.768616 
L 700.361825 159.768616 
L 700.375505 159.25433 
L 703.128612 159.25433 
L 703.241472 158.740045 
L 714.476199 158.740045 
L 714.5446 157.711473 
L 714.60274 157.711473 
L 714.67114 156.682902 
L 714.7327 156.682902 
L 714.79768 155.65433 
L 714.86266 155.65433 
L 714.951581 154.625759 
L 715.016561 154.625759 
L 715.102061 153.597187 
L 715.170461 153.597187 
L 715.262801 152.568616 
L 715.341462 152.568616 
L 715.341462 152.568616 
L 715.416702 151.540045 
L 715.498782 151.540045 
L 715.597962 150.511473 
L 715.690302 150.511473 
L 715.693722 149.997187 
L 728.843654 149.997187 
L 729.715756 149.482902 
L 729.808097 148.45433 
L 729.849137 148.45433 
L 729.855977 147.940045 
L 730.796479 147.940045 
L 730.895659 146.911473 
L 730.946959 146.911473 
L 730.950379 146.397187 
L 731.511261 146.397187 
L 731.706201 145.882902 
L 731.952442 145.882902 
L 732.171322 145.368616 
L 733.724006 145.368616 
L 733.836866 144.85433 
L 734.496928 144.85433 
L 734.602948 143.825759 
L 746.791858 143.825759 
L 746.867098 142.797187 
L 746.921818 142.797187 
L 747.027838 141.768616 
L 747.096238 141.768616 
L 747.195419 140.740045 
L 748.984083 140.740045 
L 748.990923 140.225759 
L 749.134563 140.225759 
L 749.240584 139.197187 
L 749.319244 139.197187 
L 749.415004 138.682902 
L 757.294703 138.682902 
L 757.390463 137.65433 
L 757.479383 137.65433 
L 757.558044 136.625759 
L 757.646964 136.625759 
L 757.650384 136.111473 
L 762.014314 136.111473 
L 762.127175 135.082902 
L 762.246875 135.082902 
L 762.349475 134.568616 
L 762.369995 134.568616 
L 762.486276 133.540045 
L 762.582036 133.540045 
L 762.670956 132.511473 
L 762.763296 132.511473 
L 762.766716 131.997187 
L 763.590938 131.997187 
L 763.594358 131.482902 
L 766.043084 131.482902 
L 766.149104 130.45433 
L 767.944609 130.45433 
L 767.951449 129.940045 
L 768.221629 129.940045 
L 768.24215 129.425759 
L 768.37211 129.425759 
L 768.37211 129.425759 
L 768.48155 128.397187 
L 777.848953 128.397187 
L 777.937873 127.368616 
L 778.016533 127.368616 
L 778.088353 126.85433 
L 782.715625 126.85433 
L 782.804545 125.825759 
L 782.907145 125.825759 
L 783.013165 125.311473 
L 783.057625 125.311473 
L 783.170486 124.797187 
L 783.214946 124.282902 
L 783.813447 124.282902 
L 783.816867 123.768616 
L 786.501574 123.768616 
L 786.583654 123.25433 
L 787.643856 123.25433 
L 787.660957 122.740045 
L 793.622031 122.740045 
L 793.728051 121.711473 
L 793.803291 121.711473 
L 793.868272 120.682902 
L 793.933252 120.682902 
L 794.015332 119.65433 
L 794.107672 119.65433 
L 794.210272 118.625759 
L 794.278673 118.625759 
L 794.360753 117.597187 
L 794.442833 117.597187 
L 794.552273 116.568616 
L 794.617253 116.568616 
L 794.726694 116.05433 
L 794.819034 115.025759 
L 794.884014 115.025759 
L 794.969514 113.997187 
L 795.051594 113.997187 
L 795.140515 112.968616 
L 796.433278 112.968616 
L 796.487998 112.45433 
L 810.239851 112.45433 
L 810.414272 111.940045 
L 811.423174 111.940045 
L 811.532614 110.911473 
L 855.859342 110.911473 
L 855.944842 109.882902 
L 856.020082 109.882902 
L 856.088482 108.85433 
L 856.163722 108.85433 
L 856.256062 107.825759 
L 856.334723 107.825759 
L 856.338143 107.311473 
L 860.541333 107.311473 
L 860.661033 106.282902 
L 892.39187 106.282902 
L 892.48763 105.25433 
L 892.55603 105.25433 
L 892.63469 104.225759 
L 892.709931 104.225759 
L 892.788591 103.197187 
L 912.645159 103.197187 
L 912.737499 102.168616 
L 912.9598 102.168616 
L 913.06924 101.140045 
L 933.089968 101.140045 
L 933.206249 100.111473 
L 933.267809 100.111473 
L 933.363569 99.082902 
L 933.507209 99.082902 
L 933.58929 98.05433 
L 933.67137 98.05433 
L 933.75003 97.025759 
L 933.82527 97.025759 
L 933.93129 95.997187 
L 934.006531 95.997187 
L 934.092031 94.968616 
L 935.624194 94.968616 
L 935.911475 94.45433 
L 936.612577 94.45433 
L 936.684397 93.940045 
L 936.684397 93.940045 
L 938.839002 93.940045 
L 938.924502 92.911473 
L 957.950009 92.911473 
L 958.038929 91.882902 
L 958.093649 91.882902 
L 958.179149 90.85433 
L 958.244129 90.85433 
L 958.333049 89.825759 
L 958.40145 89.825759 
L 958.40829 89.311473 
L 971.855762 89.311473 
L 971.934422 88.282902 
L 971.989142 88.282902 
L 972.088323 87.768616 
L 976.346233 87.768616 
L 976.431733 86.740045 
L 978.576078 86.740045 
L 978.664999 86.225759 
L 983.28201 86.225759 
L 983.36751 85.197187 
L 983.43249 85.197187 
L 983.50089 84.168616 
L 983.56245 84.168616 
L 983.634271 83.140045 
L 983.753971 83.140045 
L 983.757391 82.625759 
L 983.873671 82.625759 
L 983.877091 82.111473 
L 992.923013 82.111473 
L 992.929853 81.597187 
L 993.528355 81.597187 
L 993.545455 81.082902 
L 994.284176 81.082902 
L 994.287596 80.568616 
L 994.971598 80.568616 
L 994.985278 80.05433 
L 995.91894 80.05433 
L 995.93262 79.540045 
L 1001.445674 79.540045 
L 1001.517494 78.511473 
L 1001.572214 78.511473 
L 1001.657714 77.482902 
L 1001.729534 77.482902 
L 1001.808195 76.45433 
L 1001.880015 76.45433 
L 1001.972355 75.425759 
L 1002.057855 75.425759 
L 1002.064695 74.911473 
L 1007.139988 74.911473 
L 1007.249428 74.397187 
L 1007.269948 74.397187 
L 1007.375968 73.368616 
L 1007.478568 73.368616 
L 1007.550389 72.85433 
L 1007.714549 71.825759 
L 1007.800049 71.825759 
L 1007.882129 70.797187 
L 1007.97447 70.797187 
L 1007.97789 70.282902 
L 1008.836312 70.282902 
L 1008.928652 69.25433 
L 1009.414293 69.25433 
L 1009.510053 68.225759 
L 1009.646854 68.225759 
L 1009.653694 67.711473 
L 1024.85905 67.711473 
L 1024.944551 66.682902 
L 1025.016371 66.682902 
L 1025.091611 65.65433 
L 1025.160011 65.65433 
L 1025.238671 64.625759 
L 1025.337852 64.625759 
L 1025.419932 63.597187 
L 1035.724417 63.597187 
L 1035.820177 62.568616 
L 1035.878317 62.568616 
L 1035.967237 61.540045 
L 1037.537021 61.540045 
L 1037.543861 61.025759 
L 1038.186823 61.025759 
L 1038.214183 60.511473 
L 1039.565086 60.511473 
L 1039.568506 59.997187 
L 1041.767571 59.997187 
L 1041.777831 59.482902 
L 1061.436039 59.482902 
L 1061.514699 58.45433 
L 1061.569419 58.45433 
L 1061.665179 57.425759 
L 1061.76094 57.425759 
L 1061.84302 56.397187 
L 1061.92852 56.397187 
L 1062.00718 55.368616 
L 1062.08584 55.368616 
L 1062.171341 54.340045 
L 1062.239741 54.340045 
L 1062.321821 53.311473 
L 1073.802789 53.311473 
L 1073.912229 52.797187 
L 1074.674891 52.797187 
L 1074.678311 52.282902 
L 1077.188597 52.282902 
L 1077.195437 51.768616 
L 1077.537438 51.768616 
L 1077.646878 51.25433 
L 1079.096962 51.25433 
L 1079.202982 50.740045 
L 1087.824823 50.740045 
L 1087.937683 49.711473 
L 1088.006083 49.711473 
L 1088.074483 48.682902 
L 1088.228384 48.682902 
L 1088.334404 47.65433 
L 1088.464364 47.65433 
L 1088.539604 46.625759 
L 1088.659305 46.625759 
L 1088.758485 45.597187 
L 1088.837145 45.597187 
L 1088.912385 44.568616 
L 1088.991046 44.568616 
L 1089.100486 43.540045 
L 1089.209926 43.540045 
L 1089.274906 42.511473 
L 1114.162306 42.511473 
L 1114.507727 41.997187 
L 1114.507727 41.997187 
" clip-path="url(#pa3f4f07970)" style="fill: none; stroke: #0000ff; stroke-width: 1.5; stroke-linecap: square"/>
   </g>
   <g id="patch_126">
    <path d="M 49.235 359.517187 
L 49.235 26.877187 
" style="fill: none; stroke: #000000; stroke-width: 0.8; stroke-linejoin: miter; stroke-linecap: square"/>
   </g>
   <g id="patch_127">
    <path d="M 1165.235 359.517187 
L 1165.235 26.877187 
" style="fill: none; stroke: #000000; stroke-width: 0.8; stroke-linejoin: miter; stroke-linecap: square"/>
   </g>
   <g id="patch_128">
    <path d="M 49.235 359.517187 
L 1165.235 359.517187 
" style="fill: none; stroke: #000000; stroke-width: 0.8; stroke-linejoin: miter; stroke-linecap: square"/>
   </g>
   <g id="patch_129">
    <path d="M 49.235 26.877187 
L 1165.235 26.877187 
" style="fill: none; stroke: #000000; stroke-width: 0.8; stroke-linejoin: miter; stroke-linecap: square"/>
   </g>
   <g id="text_17">
    <!-- Pellet Count and Cumulative Sum Over Time of Group 5 Mouse 3 -->
    <g transform="translate(315.460625 20.877187) scale(0.18 -0.18)">
     <defs>
      <path id="DejaVuSans-61" d="M 2194 1759 
Q 1497 1759 1228 1600 
Q 959 1441 959 1056 
Q 959 750 1161 570 
Q 1363 391 1709 391 
Q 2188 391 2477 730 
Q 2766 1069 2766 1631 
L 2766 1759 
L 2194 1759 
z
M 3341 1997 
L 3341 0 
L 2766 0 
L 2766 531 
Q 2569 213 2275 61 
Q 1981 -91 1556 -91 
Q 1019 -91 701 211 
Q 384 513 384 1019 
Q 384 1609 779 1909 
Q 1175 2209 1959 2209 
L 2766 2209 
L 2766 2266 
Q 2766 2663 2505 2880 
Q 2244 3097 1772 3097 
Q 1472 3097 1187 3025 
Q 903 2953 641 2809 
L 641 3341 
Q 956 3463 1253 3523 
Q 1550 3584 1831 3584 
Q 2591 3584 2966 3190 
Q 3341 2797 3341 1997 
z
" transform="scale(0.015625)"/>
      <path id="DejaVuSans-64" d="M 2906 2969 
L 2906 4863 
L 3481 4863 
L 3481 0 
L 2906 0 
L 2906 525 
Q 2725 213 2448 61 
Q 2172 -91 1784 -91 
Q 1150 -91 751 415 
Q 353 922 353 1747 
Q 353 2572 751 3078 
Q 1150 3584 1784 3584 
Q 2172 3584 2448 3432 
Q 2725 3281 2906 2969 
z
M 947 1747 
Q 947 1113 1208 752 
Q 1469 391 1925 391 
Q 2381 391 2643 752 
Q 2906 1113 2906 1747 
Q 2906 2381 2643 2742 
Q 2381 3103 1925 3103 
Q 1469 3103 1208 2742 
Q 947 2381 947 1747 
z
" transform="scale(0.015625)"/>
      <path id="DejaVuSans-76" d="M 191 3500 
L 800 3500 
L 1894 563 
L 2988 3500 
L 3597 3500 
L 2284 0 
L 1503 0 
L 191 3500 
z
" transform="scale(0.015625)"/>
      <path id="DejaVuSans-53" d="M 3425 4513 
L 3425 3897 
Q 3066 4069 2747 4153 
Q 2428 4238 2131 4238 
Q 1616 4238 1336 4038 
Q 1056 3838 1056 3469 
Q 1056 3159 1242 3001 
Q 1428 2844 1947 2747 
L 2328 2669 
Q 3034 2534 3370 2195 
Q 3706 1856 3706 1288 
Q 3706 609 3251 259 
Q 2797 -91 1919 -91 
Q 1588 -91 1214 -16 
Q 841 59 441 206 
L 441 856 
Q 825 641 1194 531 
Q 1563 422 1919 422 
Q 2459 422 2753 634 
Q 3047 847 3047 1241 
Q 3047 1584 2836 1778 
Q 2625 1972 2144 2069 
L 1759 2144 
Q 1053 2284 737 2584 
Q 422 2884 422 3419 
Q 422 4038 858 4394 
Q 1294 4750 2059 4750 
Q 2388 4750 2728 4690 
Q 3069 4631 3425 4513 
z
" transform="scale(0.015625)"/>
      <path id="DejaVuSans-4f" d="M 2522 4238 
Q 1834 4238 1429 3725 
Q 1025 3213 1025 2328 
Q 1025 1447 1429 934 
Q 1834 422 2522 422 
Q 3209 422 3611 934 
Q 4013 1447 4013 2328 
Q 4013 3213 3611 3725 
Q 3209 4238 2522 4238 
z
M 2522 4750 
Q 3503 4750 4090 4092 
Q 4678 3434 4678 2328 
Q 4678 1225 4090 567 
Q 3503 -91 2522 -91 
Q 1538 -91 948 565 
Q 359 1222 359 2328 
Q 359 3434 948 4092 
Q 1538 4750 2522 4750 
z
" transform="scale(0.015625)"/>
      <path id="DejaVuSans-72" d="M 2631 2963 
Q 2534 3019 2420 3045 
Q 2306 3072 2169 3072 
Q 1681 3072 1420 2755 
Q 1159 2438 1159 1844 
L 1159 0 
L 581 0 
L 581 3500 
L 1159 3500 
L 1159 2956 
Q 1341 3275 1631 3429 
Q 1922 3584 2338 3584 
Q 2397 3584 2469 3576 
Q 2541 3569 2628 3553 
L 2631 2963 
z
" transform="scale(0.015625)"/>
      <path id="DejaVuSans-66" d="M 2375 4863 
L 2375 4384 
L 1825 4384 
Q 1516 4384 1395 4259 
Q 1275 4134 1275 3809 
L 1275 3500 
L 2222 3500 
L 2222 3053 
L 1275 3053 
L 1275 0 
L 697 0 
L 697 3053 
L 147 3053 
L 147 3500 
L 697 3500 
L 697 3744 
Q 697 4328 969 4595 
Q 1241 4863 1831 4863 
L 2375 4863 
z
" transform="scale(0.015625)"/>
      <path id="DejaVuSans-47" d="M 3809 666 
L 3809 1919 
L 2778 1919 
L 2778 2438 
L 4434 2438 
L 4434 434 
Q 4069 175 3628 42 
Q 3188 -91 2688 -91 
Q 1594 -91 976 548 
Q 359 1188 359 2328 
Q 359 3472 976 4111 
Q 1594 4750 2688 4750 
Q 3144 4750 3555 4637 
Q 3966 4525 4313 4306 
L 4313 3634 
Q 3963 3931 3569 4081 
Q 3175 4231 2741 4231 
Q 1884 4231 1454 3753 
Q 1025 3275 1025 2328 
Q 1025 1384 1454 906 
Q 1884 428 2741 428 
Q 3075 428 3337 486 
Q 3600 544 3809 666 
z
" transform="scale(0.015625)"/>
      <path id="DejaVuSans-70" d="M 1159 525 
L 1159 -1331 
L 581 -1331 
L 581 3500 
L 1159 3500 
L 1159 2969 
Q 1341 3281 1617 3432 
Q 1894 3584 2278 3584 
Q 2916 3584 3314 3078 
Q 3713 2572 3713 1747 
Q 3713 922 3314 415 
Q 2916 -91 2278 -91 
Q 1894 -91 1617 61 
Q 1341 213 1159 525 
z
M 3116 1747 
Q 3116 2381 2855 2742 
Q 2594 3103 2138 3103 
Q 1681 3103 1420 2742 
Q 1159 2381 1159 1747 
Q 1159 1113 1420 752 
Q 1681 391 2138 391 
Q 2594 391 2855 752 
Q 3116 1113 3116 1747 
z
" transform="scale(0.015625)"/>
      <path id="DejaVuSans-4d" d="M 628 4666 
L 1569 4666 
L 2759 1491 
L 3956 4666 
L 4897 4666 
L 4897 0 
L 4281 0 
L 4281 4097 
L 3078 897 
L 2444 897 
L 1241 4097 
L 1241 0 
L 628 0 
L 628 4666 
z
" transform="scale(0.015625)"/>
      <path id="DejaVuSans-73" d="M 2834 3397 
L 2834 2853 
Q 2591 2978 2328 3040 
Q 2066 3103 1784 3103 
Q 1356 3103 1142 2972 
Q 928 2841 928 2578 
Q 928 2378 1081 2264 
Q 1234 2150 1697 2047 
L 1894 2003 
Q 2506 1872 2764 1633 
Q 3022 1394 3022 966 
Q 3022 478 2636 193 
Q 2250 -91 1575 -91 
Q 1294 -91 989 -36 
Q 684 19 347 128 
L 347 722 
Q 666 556 975 473 
Q 1284 391 1588 391 
Q 1994 391 2212 530 
Q 2431 669 2431 922 
Q 2431 1156 2273 1281 
Q 2116 1406 1581 1522 
L 1381 1569 
Q 847 1681 609 1914 
Q 372 2147 372 2553 
Q 372 3047 722 3315 
Q 1072 3584 1716 3584 
Q 2034 3584 2315 3537 
Q 2597 3491 2834 3397 
z
" transform="scale(0.015625)"/>
     </defs>
     <use xlink:href="#DejaVuSans-50"/>
     <use xlink:href="#DejaVuSans-65" x="56.677734"/>
     <use xlink:href="#DejaVuSans-6c" x="118.201172"/>
     <use xlink:href="#DejaVuSans-6c" x="145.984375"/>
     <use xlink:href="#DejaVuSans-65" x="173.767578"/>
     <use xlink:href="#DejaVuSans-74" x="235.291016"/>
     <use xlink:href="#DejaVuSans-20" x="274.5"/>
     <use xlink:href="#DejaVuSans-43" x="306.287109"/>
     <use xlink:href="#DejaVuSans-6f" x="376.111328"/>
     <use xlink:href="#DejaVuSans-75" x="437.292969"/>
     <use xlink:href="#DejaVuSans-6e" x="500.671875"/>
     <use xlink:href="#DejaVuSans-74" x="564.050781"/>
     <use xlink:href="#DejaVuSans-20" x="603.259766"/>
     <use xlink:href="#DejaVuSans-61" x="635.046875"/>
     <use xlink:href="#DejaVuSans-6e" x="696.326172"/>
     <use xlink:href="#DejaVuSans-64" x="759.705078"/>
     <use xlink:href="#DejaVuSans-20" x="823.181641"/>
     <use xlink:href="#DejaVuSans-43" x="854.96875"/>
     <use xlink:href="#DejaVuSans-75" x="924.792969"/>
     <use xlink:href="#DejaVuSans-6d" x="988.171875"/>
     <use xlink:href="#DejaVuSans-75" x="1085.583984"/>
     <use xlink:href="#DejaVuSans-6c" x="1148.962891"/>
     <use xlink:href="#DejaVuSans-61" x="1176.746094"/>
     <use xlink:href="#DejaVuSans-74" x="1238.025391"/>
     <use xlink:href="#DejaVuSans-69" x="1277.234375"/>
     <use xlink:href="#DejaVuSans-76" x="1305.017578"/>
     <use xlink:href="#DejaVuSans-65" x="1364.197266"/>
     <use xlink:href="#DejaVuSans-20" x="1425.720703"/>
     <use xlink:href="#DejaVuSans-53" x="1457.507812"/>
     <use xlink:href="#DejaVuSans-75" x="1520.984375"/>
     <use xlink:href="#DejaVuSans-6d" x="1584.363281"/>
     <use xlink:href="#DejaVuSans-20" x="1681.775391"/>
     <use xlink:href="#DejaVuSans-4f" x="1713.5625"/>
     <use xlink:href="#DejaVuSans-76" x="1792.273438"/>
     <use xlink:href="#DejaVuSans-65" x="1851.453125"/>
     <use xlink:href="#DejaVuSans-72" x="1912.976562"/>
     <use xlink:href="#DejaVuSans-20" x="1954.089844"/>
     <use xlink:href="#DejaVuSans-54" x="1985.876953"/>
     <use xlink:href="#DejaVuSans-69" x="2043.835938"/>
     <use xlink:href="#DejaVuSans-6d" x="2071.619141"/>
     <use xlink:href="#DejaVuSans-65" x="2169.03125"/>
     <use xlink:href="#DejaVuSans-20" x="2230.554688"/>
     <use xlink:href="#DejaVuSans-6f" x="2262.341797"/>
     <use xlink:href="#DejaVuSans-66" x="2323.523438"/>
     <use xlink:href="#DejaVuSans-20" x="2358.728516"/>
     <use xlink:href="#DejaVuSans-47" x="2390.515625"/>
     <use xlink:href="#DejaVuSans-72" x="2468.005859"/>
     <use xlink:href="#DejaVuSans-6f" x="2506.869141"/>
     <use xlink:href="#DejaVuSans-75" x="2568.050781"/>
     <use xlink:href="#DejaVuSans-70" x="2631.429688"/>
     <use xlink:href="#DejaVuSans-20" x="2694.90625"/>
     <use xlink:href="#DejaVuSans-35" x="2726.693359"/>
     <use xlink:href="#DejaVuSans-20" x="2790.316406"/>
     <use xlink:href="#DejaVuSans-4d" x="2822.103516"/>
     <use xlink:href="#DejaVuSans-6f" x="2908.382812"/>
     <use xlink:href="#DejaVuSans-75" x="2969.564453"/>
     <use xlink:href="#DejaVuSans-73" x="3032.943359"/>
     <use xlink:href="#DejaVuSans-65" x="3085.042969"/>
     <use xlink:href="#DejaVuSans-20" x="3146.566406"/>
     <use xlink:href="#DejaVuSans-33" x="3178.353516"/>
    </g>
   </g>
   <g id="legend_1">
    <g id="patch_130">
     <path d="M 1086.550625 64.233437 
L 1158.235 64.233437 
Q 1160.235 64.233437 1160.235 62.233437 
L 1160.235 33.877187 
Q 1160.235 31.877187 1158.235 31.877187 
L 1086.550625 31.877187 
Q 1084.550625 31.877187 1084.550625 33.877187 
L 1084.550625 62.233437 
Q 1084.550625 64.233437 1086.550625 64.233437 
z
" style="fill: #ffffff; opacity: 0.8; stroke: #cccccc; stroke-linejoin: miter"/>
    </g>
    <g id="patch_131">
     <path d="M 1088.550625 43.475625 
L 1108.550625 43.475625 
L 1108.550625 36.475625 
L 1088.550625 36.475625 
z
" style="fill: #add8e6; opacity: 0.9; stroke: #add8e6; stroke-linejoin: miter"/>
    </g>
    <g id="text_18">
     <!-- Meal -->
     <g transform="translate(1116.550625 43.475625) scale(0.1 -0.1)">
      <use xlink:href="#DejaVuSans-4d"/>
      <use xlink:href="#DejaVuSans-65" x="86.279297"/>
      <use xlink:href="#DejaVuSans-61" x="147.802734"/>
      <use xlink:href="#DejaVuSans-6c" x="209.082031"/>
     </g>
    </g>
    <g id="patch_132">
     <path d="M 1088.550625 58.15375 
L 1108.550625 58.15375 
L 1108.550625 51.15375 
L 1088.550625 51.15375 
z
" style="fill: #808080; opacity: 0.5; stroke: #808080; stroke-linejoin: miter"/>
    </g>
    <g id="text_19">
     <!-- Inactive -->
     <g transform="translate(1116.550625 58.15375) scale(0.1 -0.1)">
      <defs>
       <path id="DejaVuSans-49" d="M 628 4666 
L 1259 4666 
L 1259 0 
L 628 0 
L 628 4666 
z
" transform="scale(0.015625)"/>
       <path id="DejaVuSans-63" d="M 3122 3366 
L 3122 2828 
Q 2878 2963 2633 3030 
Q 2388 3097 2138 3097 
Q 1578 3097 1268 2742 
Q 959 2388 959 1747 
Q 959 1106 1268 751 
Q 1578 397 2138 397 
Q 2388 397 2633 464 
Q 2878 531 3122 666 
L 3122 134 
Q 2881 22 2623 -34 
Q 2366 -91 2075 -91 
Q 1284 -91 818 406 
Q 353 903 353 1747 
Q 353 2603 823 3093 
Q 1294 3584 2113 3584 
Q 2378 3584 2631 3529 
Q 2884 3475 3122 3366 
z
" transform="scale(0.015625)"/>
      </defs>
      <use xlink:href="#DejaVuSans-49"/>
      <use xlink:href="#DejaVuSans-6e" x="29.492188"/>
      <use xlink:href="#DejaVuSans-61" x="92.871094"/>
      <use xlink:href="#DejaVuSans-63" x="154.150391"/>
      <use xlink:href="#DejaVuSans-74" x="209.130859"/>
      <use xlink:href="#DejaVuSans-69" x="248.339844"/>
      <use xlink:href="#DejaVuSans-76" x="276.123047"/>
      <use xlink:href="#DejaVuSans-65" x="335.302734"/>
     </g>
    </g>
   </g>
  </g>
 </g>
 <defs>
  <clipPath id="pa3f4f07970">
   <rect x="49.235" y="26.877187" width="1116" height="332.64"/>
  </clipPath>
 </defs>
</svg>
