<?xml version="1.0" encoding="utf-8" standalone="no"?>
<!DOCTYPE svg PUBLIC "-//W3C//DTD SVG 1.1//EN"
  "http://www.w3.org/Graphics/SVG/1.1/DTD/svg11.dtd">
<svg xmlns:xlink="http://www.w3.org/1999/xlink" width="1172.435pt" height="399.009062pt" viewBox="0 0 1172.435 399.009062" xmlns="http://www.w3.org/2000/svg" version="1.1">
 <metadata>
  <rdf:RDF xmlns:dc="http://purl.org/dc/elements/1.1/" xmlns:cc="http://creativecommons.org/ns#" xmlns:rdf="http://www.w3.org/1999/02/22-rdf-syntax-ns#">
   <cc:Work>
    <dc:type rdf:resource="http://purl.org/dc/dcmitype/StillImage"/>
    <dc:date>2025-05-09T15:21:08.559796</dc:date>
    <dc:format>image/svg+xml</dc:format>
    <dc:creator>
     <cc:Agent>
      <dc:title>Matplotlib v3.8.3, https://matplotlib.org/</dc:title>
     </cc:Agent>
    </dc:creator>
   </cc:Work>
  </rdf:RDF>
 </metadata>
 <defs>
  <style type="text/css">*{stroke-linejoin: round; stroke-linecap: butt}</style>
 </defs>
 <g id="figure_1">
  <g id="patch_1">
   <path d="M 0 399.009062 
L 1172.435 399.009062 
L 1172.435 0 
L 0 0 
z
" style="fill: #ffffff"/>
  </g>
  <g id="axes_1">
   <g id="patch_2">
    <path d="M 49.235 359.517187 
L 1165.235 359.517187 
L 1165.235 26.877187 
L 49.235 26.877187 
z
" style="fill: #ffffff"/>
   </g>
   <g id="patch_3">
    <path d="M 111.457582 359.517187 
L 111.457582 26.877187 
L 111.32369 26.877187 
L 111.32369 359.517187 
z
" clip-path="url(#p7aacc3f98a)" style="fill: #add8e6; stroke: #add8e6; stroke-linejoin: miter"/>
   </g>
   <g id="patch_4">
    <path d="M 111.87757 359.517187 
L 111.87757 26.877187 
L 111.998302 26.877187 
L 111.998302 359.517187 
z
" clip-path="url(#p7aacc3f98a)" style="fill: #add8e6; stroke: #add8e6; stroke-linejoin: miter"/>
   </g>
   <g id="patch_5">
    <path d="M 120.759685 359.517187 
L 120.759685 26.877187 
L 119.738897 26.877187 
L 119.738897 359.517187 
z
" clip-path="url(#p7aacc3f98a)" style="fill: #add8e6; stroke: #add8e6; stroke-linejoin: miter"/>
   </g>
   <g id="patch_6">
    <path d="M 135.023253 359.517187 
L 135.023253 26.877187 
L 135.167445 26.877187 
L 135.167445 359.517187 
z
" clip-path="url(#p7aacc3f98a)" style="fill: #add8e6; stroke: #add8e6; stroke-linejoin: miter"/>
   </g>
   <g id="patch_7">
    <path d="M 144.707006 359.517187 
L 144.707006 26.877187 
L 136.305532 26.877187 
L 136.305532 359.517187 
z
" clip-path="url(#p7aacc3f98a)" style="fill: #add8e6; stroke: #add8e6; stroke-linejoin: miter"/>
   </g>
   <g id="patch_8">
    <path d="M 148.351861 359.517187 
L 148.351861 26.877187 
L 139.671157 26.877187 
L 139.671157 359.517187 
z
" clip-path="url(#p7aacc3f98a)" style="fill: #add8e6; stroke: #add8e6; stroke-linejoin: miter"/>
   </g>
   <g id="patch_9">
    <path d="M 150.394581 359.517187 
L 150.394581 26.877187 
L 148.552127 26.877187 
L 148.552127 359.517187 
z
" clip-path="url(#p7aacc3f98a)" style="fill: #add8e6; stroke: #add8e6; stroke-linejoin: miter"/>
   </g>
   <g id="patch_10">
    <path d="M 162.99994 359.517187 
L 162.99994 26.877187 
L 154.591027 26.877187 
L 154.591027 359.517187 
z
" clip-path="url(#p7aacc3f98a)" style="fill: #add8e6; stroke: #add8e6; stroke-linejoin: miter"/>
   </g>
   <g id="patch_11">
    <path d="M 164.29023 359.517187 
L 164.29023 26.877187 
L 159.709272 26.877187 
L 159.709272 359.517187 
z
" clip-path="url(#p7aacc3f98a)" style="fill: #add8e6; stroke: #add8e6; stroke-linejoin: miter"/>
   </g>
   <g id="patch_12">
    <path d="M 171.725847 359.517187 
L 171.725847 26.877187 
L 165.281837 26.877187 
L 165.281837 359.517187 
z
" clip-path="url(#p7aacc3f98a)" style="fill: #add8e6; stroke: #add8e6; stroke-linejoin: miter"/>
   </g>
   <g id="patch_13">
    <path d="M 177.79679 359.517187 
L 177.79679 26.877187 
L 168.995354 26.877187 
L 168.995354 359.517187 
z
" clip-path="url(#p7aacc3f98a)" style="fill: #add8e6; stroke: #add8e6; stroke-linejoin: miter"/>
   </g>
   <g id="patch_14">
    <path d="M 182.794875 359.517187 
L 182.794875 26.877187 
L 174.241769 26.877187 
L 174.241769 359.517187 
z
" clip-path="url(#p7aacc3f98a)" style="fill: #add8e6; stroke: #add8e6; stroke-linejoin: miter"/>
   </g>
   <g id="patch_15">
    <path d="M 184.719724 359.517187 
L 184.719724 26.877187 
L 184.52289 26.877187 
L 184.52289 359.517187 
z
" clip-path="url(#p7aacc3f98a)" style="fill: #add8e6; stroke: #add8e6; stroke-linejoin: miter"/>
   </g>
   <g id="patch_16">
    <path d="M 196.141221 359.517187 
L 196.141221 26.877187 
L 188.34684 26.877187 
L 188.34684 359.517187 
z
" clip-path="url(#p7aacc3f98a)" style="fill: #add8e6; stroke: #add8e6; stroke-linejoin: miter"/>
   </g>
   <g id="patch_17">
    <path d="M 199.949149 359.517187 
L 199.949149 26.877187 
L 192.726387 26.877187 
L 192.726387 359.517187 
z
" clip-path="url(#p7aacc3f98a)" style="fill: #add8e6; stroke: #add8e6; stroke-linejoin: miter"/>
   </g>
   <g id="patch_18">
    <path d="M 263.086378 359.517187 
L 263.086378 26.877187 
L 262.02382 26.877187 
L 262.02382 359.517187 
z
" clip-path="url(#p7aacc3f98a)" style="fill: #add8e6; stroke: #add8e6; stroke-linejoin: miter"/>
   </g>
   <g id="patch_19">
    <path d="M 281.921177 359.517187 
L 281.921177 26.877187 
L 273.28682 26.877187 
L 273.28682 359.517187 
z
" clip-path="url(#p7aacc3f98a)" style="fill: #add8e6; stroke: #add8e6; stroke-linejoin: miter"/>
   </g>
   <g id="patch_20">
    <path d="M 290.600736 359.517187 
L 290.600736 26.877187 
L 290.675693 26.877187 
L 290.675693 359.517187 
z
" clip-path="url(#p7aacc3f98a)" style="fill: #add8e6; stroke: #add8e6; stroke-linejoin: miter"/>
   </g>
   <g id="patch_21">
    <path d="M 290.785554 359.517187 
L 290.785554 26.877187 
L 290.91773 26.877187 
L 290.91773 359.517187 
z
" clip-path="url(#p7aacc3f98a)" style="fill: #add8e6; stroke: #add8e6; stroke-linejoin: miter"/>
   </g>
   <g id="patch_22">
    <path d="M 315.033847 359.517187 
L 315.033847 26.877187 
L 306.281048 26.877187 
L 306.281048 359.517187 
z
" clip-path="url(#p7aacc3f98a)" style="fill: #add8e6; stroke: #add8e6; stroke-linejoin: miter"/>
   </g>
   <g id="patch_23">
    <path d="M 341.254482 359.517187 
L 341.254482 26.877187 
L 332.66819 26.877187 
L 332.66819 359.517187 
z
" clip-path="url(#p7aacc3f98a)" style="fill: #add8e6; stroke: #add8e6; stroke-linejoin: miter"/>
   </g>
   <g id="patch_24">
    <path d="M 343.963805 359.517187 
L 343.963805 26.877187 
L 336.765647 26.877187 
L 336.765647 359.517187 
z
" clip-path="url(#p7aacc3f98a)" style="fill: #add8e6; stroke: #add8e6; stroke-linejoin: miter"/>
   </g>
   <g id="patch_25">
    <path d="M 351.081856 359.517187 
L 351.081856 26.877187 
L 342.458943 26.877187 
L 342.458943 359.517187 
z
" clip-path="url(#p7aacc3f98a)" style="fill: #add8e6; stroke: #add8e6; stroke-linejoin: miter"/>
   </g>
   <g id="patch_26">
    <path d="M 365.798599 359.517187 
L 365.798599 26.877187 
L 356.757415 26.877187 
L 356.757415 359.517187 
z
" clip-path="url(#p7aacc3f98a)" style="fill: #add8e6; stroke: #add8e6; stroke-linejoin: miter"/>
   </g>
   <g id="patch_27">
    <path d="M 370.81671 359.517187 
L 370.81671 26.877187 
L 365.491332 26.877187 
L 365.491332 359.517187 
z
" clip-path="url(#p7aacc3f98a)" style="fill: #add8e6; stroke: #add8e6; stroke-linejoin: miter"/>
   </g>
   <g id="patch_28">
    <path d="M 375.794769 359.517187 
L 375.794769 26.877187 
L 372.131604 26.877187 
L 372.131604 359.517187 
z
" clip-path="url(#p7aacc3f98a)" style="fill: #add8e6; stroke: #add8e6; stroke-linejoin: miter"/>
   </g>
   <g id="patch_29">
    <path d="M 383.676694 359.517187 
L 383.676694 26.877187 
L 375.770164 26.877187 
L 375.770164 359.517187 
z
" clip-path="url(#p7aacc3f98a)" style="fill: #add8e6; stroke: #add8e6; stroke-linejoin: miter"/>
   </g>
   <g id="patch_30">
    <path d="M 408.647093 359.517187 
L 408.647093 26.877187 
L 399.980694 26.877187 
L 399.980694 359.517187 
z
" clip-path="url(#p7aacc3f98a)" style="fill: #add8e6; stroke: #add8e6; stroke-linejoin: miter"/>
   </g>
   <g id="patch_31">
    <path d="M 422.205149 359.517187 
L 422.205149 26.877187 
L 414.658527 26.877187 
L 414.658527 359.517187 
z
" clip-path="url(#p7aacc3f98a)" style="fill: #add8e6; stroke: #add8e6; stroke-linejoin: miter"/>
   </g>
   <g id="patch_32">
    <path d="M 430.301646 359.517187 
L 430.301646 26.877187 
L 421.719359 26.877187 
L 421.719359 359.517187 
z
" clip-path="url(#p7aacc3f98a)" style="fill: #add8e6; stroke: #add8e6; stroke-linejoin: miter"/>
   </g>
   <g id="patch_33">
    <path d="M 446.005418 359.517187 
L 446.005418 26.877187 
L 437.237169 26.877187 
L 437.237169 359.517187 
z
" clip-path="url(#p7aacc3f98a)" style="fill: #add8e6; stroke: #add8e6; stroke-linejoin: miter"/>
   </g>
   <g id="patch_34">
    <path d="M 458.569579 359.517187 
L 458.569579 26.877187 
L 458.654263 26.877187 
L 458.654263 359.517187 
z
" clip-path="url(#p7aacc3f98a)" style="fill: #add8e6; stroke: #add8e6; stroke-linejoin: miter"/>
   </g>
   <g id="patch_35">
    <path d="M 458.918616 359.517187 
L 458.918616 26.877187 
L 458.727504 26.877187 
L 458.727504 359.517187 
z
" clip-path="url(#p7aacc3f98a)" style="fill: #add8e6; stroke: #add8e6; stroke-linejoin: miter"/>
   </g>
   <g id="patch_36">
    <path d="M 461.589029 359.517187 
L 461.589029 26.877187 
L 461.420233 26.877187 
L 461.420233 359.517187 
z
" clip-path="url(#p7aacc3f98a)" style="fill: #add8e6; stroke: #add8e6; stroke-linejoin: miter"/>
   </g>
   <g id="patch_37">
    <path d="M 469.51673 359.517187 
L 469.51673 26.877187 
L 464.257154 26.877187 
L 464.257154 359.517187 
z
" clip-path="url(#p7aacc3f98a)" style="fill: #add8e6; stroke: #add8e6; stroke-linejoin: miter"/>
   </g>
   <g id="patch_38">
    <path d="M 483.162332 359.517187 
L 483.162332 26.877187 
L 483.102824 26.877187 
L 483.102824 359.517187 
z
" clip-path="url(#p7aacc3f98a)" style="fill: #add8e6; stroke: #add8e6; stroke-linejoin: miter"/>
   </g>
   <g id="patch_39">
    <path d="M 484.104158 359.517187 
L 484.104158 26.877187 
L 484.243772 26.877187 
L 484.243772 359.517187 
z
" clip-path="url(#p7aacc3f98a)" style="fill: #add8e6; stroke: #add8e6; stroke-linejoin: miter"/>
   </g>
   <g id="patch_40">
    <path d="M 484.323879 359.517187 
L 484.323879 26.877187 
L 484.3502 26.877187 
L 484.3502 359.517187 
z
" clip-path="url(#p7aacc3f98a)" style="fill: #add8e6; stroke: #add8e6; stroke-linejoin: miter"/>
   </g>
   <g id="patch_41">
    <path d="M 484.567632 359.517187 
L 484.567632 26.877187 
L 484.484664 26.877187 
L 484.484664 359.517187 
z
" clip-path="url(#p7aacc3f98a)" style="fill: #add8e6; stroke: #add8e6; stroke-linejoin: miter"/>
   </g>
   <g id="patch_42">
    <path d="M 515.560337 359.517187 
L 515.560337 26.877187 
L 515.669053 26.877187 
L 515.669053 359.517187 
z
" clip-path="url(#p7aacc3f98a)" style="fill: #add8e6; stroke: #add8e6; stroke-linejoin: miter"/>
   </g>
   <g id="patch_43">
    <path d="M 518.176964 359.517187 
L 518.176964 26.877187 
L 516.648643 26.877187 
L 516.648643 359.517187 
z
" clip-path="url(#p7aacc3f98a)" style="fill: #add8e6; stroke: #add8e6; stroke-linejoin: miter"/>
   </g>
   <g id="patch_44">
    <path d="M 537.766482 359.517187 
L 537.766482 26.877187 
L 537.341344 26.877187 
L 537.341344 359.517187 
z
" clip-path="url(#p7aacc3f98a)" style="fill: #add8e6; stroke: #add8e6; stroke-linejoin: miter"/>
   </g>
   <g id="patch_45">
    <path d="M 550.562953 359.517187 
L 550.562953 26.877187 
L 550.685974 26.877187 
L 550.685974 359.517187 
z
" clip-path="url(#p7aacc3f98a)" style="fill: #add8e6; stroke: #add8e6; stroke-linejoin: miter"/>
   </g>
   <g id="patch_46">
    <path d="M 550.746054 359.517187 
L 550.746054 26.877187 
L 550.889674 26.877187 
L 550.889674 359.517187 
z
" clip-path="url(#p7aacc3f98a)" style="fill: #add8e6; stroke: #add8e6; stroke-linejoin: miter"/>
   </g>
   <g id="patch_47">
    <path d="M 569.325083 359.517187 
L 569.325083 26.877187 
L 569.421783 26.877187 
L 569.421783 359.517187 
z
" clip-path="url(#p7aacc3f98a)" style="fill: #add8e6; stroke: #add8e6; stroke-linejoin: miter"/>
   </g>
   <g id="patch_48">
    <path d="M 572.542511 359.517187 
L 572.542511 26.877187 
L 569.868092 26.877187 
L 569.868092 359.517187 
z
" clip-path="url(#p7aacc3f98a)" style="fill: #add8e6; stroke: #add8e6; stroke-linejoin: miter"/>
   </g>
   <g id="patch_49">
    <path d="M 584.984796 359.517187 
L 584.984796 26.877187 
L 578.250112 26.877187 
L 578.250112 359.517187 
z
" clip-path="url(#p7aacc3f98a)" style="fill: #add8e6; stroke: #add8e6; stroke-linejoin: miter"/>
   </g>
   <g id="patch_50">
    <path d="M 594.551823 359.517187 
L 594.551823 26.877187 
L 587.612295 26.877187 
L 587.612295 359.517187 
z
" clip-path="url(#p7aacc3f98a)" style="fill: #add8e6; stroke: #add8e6; stroke-linejoin: miter"/>
   </g>
   <g id="patch_51">
    <path d="M 610.089659 359.517187 
L 610.089659 26.877187 
L 601.312255 26.877187 
L 601.312255 359.517187 
z
" clip-path="url(#p7aacc3f98a)" style="fill: #add8e6; stroke: #add8e6; stroke-linejoin: miter"/>
   </g>
   <g id="patch_52">
    <path d="M 616.33798 359.517187 
L 616.33798 26.877187 
L 608.065821 26.877187 
L 608.065821 359.517187 
z
" clip-path="url(#p7aacc3f98a)" style="fill: #add8e6; stroke: #add8e6; stroke-linejoin: miter"/>
   </g>
   <g id="patch_53">
    <path d="M 627.378398 359.517187 
L 627.378398 26.877187 
L 627.49627 26.877187 
L 627.49627 359.517187 
z
" clip-path="url(#p7aacc3f98a)" style="fill: #add8e6; stroke: #add8e6; stroke-linejoin: miter"/>
   </g>
   <g id="patch_54">
    <path d="M 645.439595 359.517187 
L 645.439595 26.877187 
L 643.379137 26.877187 
L 643.379137 359.517187 
z
" clip-path="url(#p7aacc3f98a)" style="fill: #add8e6; stroke: #add8e6; stroke-linejoin: miter"/>
   </g>
   <g id="patch_55">
    <path d="M 660.348021 359.517187 
L 660.348021 26.877187 
L 660.451016 26.877187 
L 660.451016 359.517187 
z
" clip-path="url(#p7aacc3f98a)" style="fill: #add8e6; stroke: #add8e6; stroke-linejoin: miter"/>
   </g>
   <g id="patch_56">
    <path d="M 660.541994 359.517187 
L 660.541994 26.877187 
L 660.610085 26.877187 
L 660.610085 359.517187 
z
" clip-path="url(#p7aacc3f98a)" style="fill: #add8e6; stroke: #add8e6; stroke-linejoin: miter"/>
   </g>
   <g id="patch_57">
    <path d="M 662.231101 359.517187 
L 662.231101 26.877187 
L 660.873292 26.877187 
L 660.873292 359.517187 
z
" clip-path="url(#p7aacc3f98a)" style="fill: #add8e6; stroke: #add8e6; stroke-linejoin: miter"/>
   </g>
   <g id="patch_58">
    <path d="M 675.799457 359.517187 
L 675.799457 26.877187 
L 675.68788 26.877187 
L 675.68788 359.517187 
z
" clip-path="url(#p7aacc3f98a)" style="fill: #add8e6; stroke: #add8e6; stroke-linejoin: miter"/>
   </g>
   <g id="patch_59">
    <path d="M 677.211623 359.517187 
L 677.211623 26.877187 
L 676.047215 26.877187 
L 676.047215 359.517187 
z
" clip-path="url(#p7aacc3f98a)" style="fill: #add8e6; stroke: #add8e6; stroke-linejoin: miter"/>
   </g>
   <g id="patch_60">
    <path d="M 677.62074 359.517187 
L 677.62074 26.877187 
L 676.276092 26.877187 
L 676.276092 359.517187 
z
" clip-path="url(#p7aacc3f98a)" style="fill: #add8e6; stroke: #add8e6; stroke-linejoin: miter"/>
   </g>
   <g id="patch_61">
    <path d="M 690.379446 359.517187 
L 690.379446 26.877187 
L 683.874783 26.877187 
L 683.874783 359.517187 
z
" clip-path="url(#p7aacc3f98a)" style="fill: #add8e6; stroke: #add8e6; stroke-linejoin: miter"/>
   </g>
   <g id="patch_62">
    <path d="M 723.00976 359.517187 
L 723.00976 26.877187 
L 723.172834 26.877187 
L 723.172834 359.517187 
z
" clip-path="url(#p7aacc3f98a)" style="fill: #add8e6; stroke: #add8e6; stroke-linejoin: miter"/>
   </g>
   <g id="patch_63">
    <path d="M 724.980957 359.517187 
L 724.980957 26.877187 
L 723.355935 26.877187 
L 723.355935 359.517187 
z
" clip-path="url(#p7aacc3f98a)" style="fill: #add8e6; stroke: #add8e6; stroke-linejoin: miter"/>
   </g>
   <g id="patch_64">
    <path d="M 744.270647 359.517187 
L 744.270647 26.877187 
L 744.341026 26.877187 
L 744.341026 359.517187 
z
" clip-path="url(#p7aacc3f98a)" style="fill: #add8e6; stroke: #add8e6; stroke-linejoin: miter"/>
   </g>
   <g id="patch_65">
    <path d="M 744.44402 359.517187 
L 744.44402 26.877187 
L 744.442304 26.877187 
L 744.442304 359.517187 
z
" clip-path="url(#p7aacc3f98a)" style="fill: #add8e6; stroke: #add8e6; stroke-linejoin: miter"/>
   </g>
   <g id="patch_66">
    <path d="M 765.570442 359.517187 
L 765.570442 26.877187 
L 765.71864 26.877187 
L 765.71864 359.517187 
z
" clip-path="url(#p7aacc3f98a)" style="fill: #add8e6; stroke: #add8e6; stroke-linejoin: miter"/>
   </g>
   <g id="patch_67">
    <path d="M 767.632617 359.517187 
L 767.632617 26.877187 
L 765.843949 26.877187 
L 765.843949 359.517187 
z
" clip-path="url(#p7aacc3f98a)" style="fill: #add8e6; stroke: #add8e6; stroke-linejoin: miter"/>
   </g>
   <g id="patch_68">
    <path d="M 768.488614 359.517187 
L 768.488614 26.877187 
L 766.418429 26.877187 
L 766.418429 359.517187 
z
" clip-path="url(#p7aacc3f98a)" style="fill: #add8e6; stroke: #add8e6; stroke-linejoin: miter"/>
   </g>
   <g id="patch_69">
    <path d="M 813.997222 359.517187 
L 813.997222 26.877187 
L 814.164874 26.877187 
L 814.164874 359.517187 
z
" clip-path="url(#p7aacc3f98a)" style="fill: #add8e6; stroke: #add8e6; stroke-linejoin: miter"/>
   </g>
   <g id="patch_70">
    <path d="M 817.488157 359.517187 
L 817.488157 26.877187 
L 814.868669 26.877187 
L 814.868669 359.517187 
z
" clip-path="url(#p7aacc3f98a)" style="fill: #add8e6; stroke: #add8e6; stroke-linejoin: miter"/>
   </g>
   <g id="patch_71">
    <path d="M 824.570733 359.517187 
L 824.570733 26.877187 
L 824.559289 26.877187 
L 824.559289 359.517187 
z
" clip-path="url(#p7aacc3f98a)" style="fill: #add8e6; stroke: #add8e6; stroke-linejoin: miter"/>
   </g>
   <g id="patch_72">
    <path d="M 837.292247 359.517187 
L 837.292247 26.877187 
L 831.679629 26.877187 
L 831.679629 359.517187 
z
" clip-path="url(#p7aacc3f98a)" style="fill: #add8e6; stroke: #add8e6; stroke-linejoin: miter"/>
   </g>
   <g id="patch_73">
    <path d="M 838.247233 359.517187 
L 838.247233 26.877187 
L 838.355949 26.877187 
L 838.355949 359.517187 
z
" clip-path="url(#p7aacc3f98a)" style="fill: #add8e6; stroke: #add8e6; stroke-linejoin: miter"/>
   </g>
   <g id="patch_74">
    <path d="M 850.215172 359.517187 
L 850.215172 26.877187 
L 844.416592 26.877187 
L 844.416592 359.517187 
z
" clip-path="url(#p7aacc3f98a)" style="fill: #add8e6; stroke: #add8e6; stroke-linejoin: miter"/>
   </g>
   <g id="patch_75">
    <path d="M 857.576404 359.517187 
L 857.576404 26.877187 
L 848.77554 26.877187 
L 848.77554 359.517187 
z
" clip-path="url(#p7aacc3f98a)" style="fill: #add8e6; stroke: #add8e6; stroke-linejoin: miter"/>
   </g>
   <g id="patch_76">
    <path d="M 865.624265 359.517187 
L 865.624265 26.877187 
L 857.148405 26.877187 
L 857.148405 359.517187 
z
" clip-path="url(#p7aacc3f98a)" style="fill: #add8e6; stroke: #add8e6; stroke-linejoin: miter"/>
   </g>
   <g id="patch_77">
    <path d="M 884.435031 359.517187 
L 884.435031 26.877187 
L 880.432558 26.877187 
L 880.432558 359.517187 
z
" clip-path="url(#p7aacc3f98a)" style="fill: #add8e6; stroke: #add8e6; stroke-linejoin: miter"/>
   </g>
   <g id="patch_78">
    <path d="M 900.476395 359.517187 
L 900.476395 26.877187 
L 895.060039 26.877187 
L 895.060039 359.517187 
z
" clip-path="url(#p7aacc3f98a)" style="fill: #add8e6; stroke: #add8e6; stroke-linejoin: miter"/>
   </g>
   <g id="patch_79">
    <path d="M 908.625534 359.517187 
L 908.625534 26.877187 
L 908.383497 26.877187 
L 908.383497 359.517187 
z
" clip-path="url(#p7aacc3f98a)" style="fill: #add8e6; stroke: #add8e6; stroke-linejoin: miter"/>
   </g>
   <g id="patch_80">
    <path d="M 910.280309 359.517187 
L 910.280309 26.877187 
L 908.587769 26.877187 
L 908.587769 359.517187 
z
" clip-path="url(#p7aacc3f98a)" style="fill: #add8e6; stroke: #add8e6; stroke-linejoin: miter"/>
   </g>
   <g id="patch_81">
    <path d="M 925.598424 359.517187 
L 925.598424 26.877187 
L 916.830175 26.877187 
L 916.830175 359.517187 
z
" clip-path="url(#p7aacc3f98a)" style="fill: #add8e6; stroke: #add8e6; stroke-linejoin: miter"/>
   </g>
   <g id="patch_82">
    <path d="M 930.161644 359.517187 
L 930.161644 26.877187 
L 924.978169 26.877187 
L 924.978169 359.517187 
z
" clip-path="url(#p7aacc3f98a)" style="fill: #add8e6; stroke: #add8e6; stroke-linejoin: miter"/>
   </g>
   <g id="patch_83">
    <path d="M 934.469095 359.517187 
L 934.469095 26.877187 
L 932.523647 26.877187 
L 932.523647 359.517187 
z
" clip-path="url(#p7aacc3f98a)" style="fill: #add8e6; stroke: #add8e6; stroke-linejoin: miter"/>
   </g>
   <g id="patch_84">
    <path d="M 950.099054 359.517187 
L 950.099054 26.877187 
L 947.948189 26.877187 
L 947.948189 359.517187 
z
" clip-path="url(#p7aacc3f98a)" style="fill: #add8e6; stroke: #add8e6; stroke-linejoin: miter"/>
   </g>
   <g id="patch_85">
    <path d="M 950.553946 359.517187 
L 950.553946 26.877187 
L 948.456867 26.877187 
L 948.456867 359.517187 
z
" clip-path="url(#p7aacc3f98a)" style="fill: #add8e6; stroke: #add8e6; stroke-linejoin: miter"/>
   </g>
   <g id="patch_86">
    <path d="M 976.846676 359.517187 
L 976.846676 26.877187 
L 971.918399 26.877187 
L 971.918399 359.517187 
z
" clip-path="url(#p7aacc3f98a)" style="fill: #add8e6; stroke: #add8e6; stroke-linejoin: miter"/>
   </g>
   <g id="patch_87">
    <path d="M 987.568956 359.517187 
L 987.568956 26.877187 
L 987.612443 26.877187 
L 987.612443 359.517187 
z
" clip-path="url(#p7aacc3f98a)" style="fill: #add8e6; stroke: #add8e6; stroke-linejoin: miter"/>
   </g>
   <g id="patch_88">
    <path d="M 991.806028 359.517187 
L 991.806028 26.877187 
L 987.882517 26.877187 
L 987.882517 359.517187 
z
" clip-path="url(#p7aacc3f98a)" style="fill: #add8e6; stroke: #add8e6; stroke-linejoin: miter"/>
   </g>
   <g id="patch_89">
    <path d="M 1012.531344 359.517187 
L 1012.531344 26.877187 
L 1003.948485 26.877187 
L 1003.948485 359.517187 
z
" clip-path="url(#p7aacc3f98a)" style="fill: #add8e6; stroke: #add8e6; stroke-linejoin: miter"/>
   </g>
   <g id="patch_90">
    <path d="M 1046.596712 359.517187 
L 1046.596712 26.877187 
L 1046.689407 26.877187 
L 1046.689407 359.517187 
z
" clip-path="url(#p7aacc3f98a)" style="fill: #add8e6; stroke: #add8e6; stroke-linejoin: miter"/>
   </g>
   <g id="patch_91">
    <path d="M 1049.581831 359.517187 
L 1049.581831 26.877187 
L 1047.037299 26.877187 
L 1047.037299 359.517187 
z
" clip-path="url(#p7aacc3f98a)" style="fill: #add8e6; stroke: #add8e6; stroke-linejoin: miter"/>
   </g>
   <g id="patch_92">
    <path d="M 1069.058055 359.517187 
L 1069.058055 26.877187 
L 1069.134728 26.877187 
L 1069.134728 359.517187 
z
" clip-path="url(#p7aacc3f98a)" style="fill: #add8e6; stroke: #add8e6; stroke-linejoin: miter"/>
   </g>
   <g id="patch_93">
    <path d="M 1069.308102 359.517187 
L 1069.308102 26.877187 
L 1069.367038 26.877187 
L 1069.367038 359.517187 
z
" clip-path="url(#p7aacc3f98a)" style="fill: #add8e6; stroke: #add8e6; stroke-linejoin: miter"/>
   </g>
   <g id="patch_94">
    <path d="M 1083.84346 359.517187 
L 1083.84346 26.877187 
L 1077.793117 26.877187 
L 1077.793117 359.517187 
z
" clip-path="url(#p7aacc3f98a)" style="fill: #add8e6; stroke: #add8e6; stroke-linejoin: miter"/>
   </g>
   <g id="patch_95">
    <path d="M 1092.78966 359.517187 
L 1092.78966 26.877187 
L 1084.296635 26.877187 
L 1084.296635 359.517187 
z
" clip-path="url(#p7aacc3f98a)" style="fill: #add8e6; stroke: #add8e6; stroke-linejoin: miter"/>
   </g>
   <g id="patch_96">
    <path d="M 1105.998681 359.517187 
L 1105.998681 26.877187 
L 1101.662048 26.877187 
L 1101.662048 359.517187 
z
" clip-path="url(#p7aacc3f98a)" style="fill: #add8e6; stroke: #add8e6; stroke-linejoin: miter"/>
   </g>
   <g id="patch_97">
    <path d="M 189.224008 359.517187 
L 189.224008 26.877187 
L 312.817181 26.877187 
L 312.817181 359.517187 
z
" clip-path="url(#p7aacc3f98a)" style="fill: #808080; opacity: 0.4; stroke: #808080; stroke-linejoin: miter"/>
   </g>
   <g id="patch_98">
    <path d="M 316.250325 26.877187 
L 316.250325 26.877187 
L 316.250325 359.517187 
" clip-path="url(#p7aacc3f98a)" style="fill: #808080; opacity: 0.4; stroke: #808080; stroke-linejoin: miter"/>
   </g>
   <g id="patch_99">
    <path d="M 319.683468 26.877187 
L 319.683468 26.877187 
L 319.683468 359.517187 
" clip-path="url(#p7aacc3f98a)" style="fill: #808080; opacity: 0.4; stroke: #808080; stroke-linejoin: miter"/>
   </g>
   <g id="patch_100">
    <path d="M 436.410353 359.517187 
L 436.410353 26.877187 
L 560.003526 26.877187 
L 560.003526 359.517187 
z
" clip-path="url(#p7aacc3f98a)" style="fill: #808080; opacity: 0.4; stroke: #808080; stroke-linejoin: miter"/>
   </g>
   <g id="patch_101">
    <path d="M 563.43667 26.877187 
L 563.43667 26.877187 
L 563.43667 359.517187 
" clip-path="url(#p7aacc3f98a)" style="fill: #808080; opacity: 0.4; stroke: #808080; stroke-linejoin: miter"/>
   </g>
   <g id="patch_102">
    <path d="M 566.869813 26.877187 
L 566.869813 26.877187 
L 566.869813 359.517187 
" clip-path="url(#p7aacc3f98a)" style="fill: #808080; opacity: 0.4; stroke: #808080; stroke-linejoin: miter"/>
   </g>
   <g id="patch_103">
    <path d="M 683.596698 359.517187 
L 683.596698 26.877187 
L 807.189871 26.877187 
L 807.189871 359.517187 
z
" clip-path="url(#p7aacc3f98a)" style="fill: #808080; opacity: 0.4; stroke: #808080; stroke-linejoin: miter"/>
   </g>
   <g id="patch_104">
    <path d="M 810.623014 26.877187 
L 810.623014 26.877187 
L 810.623014 359.517187 
" clip-path="url(#p7aacc3f98a)" style="fill: #808080; opacity: 0.4; stroke: #808080; stroke-linejoin: miter"/>
   </g>
   <g id="patch_105">
    <path d="M 814.056158 26.877187 
L 814.056158 26.877187 
L 814.056158 359.517187 
" clip-path="url(#p7aacc3f98a)" style="fill: #808080; opacity: 0.4; stroke: #808080; stroke-linejoin: miter"/>
   </g>
   <g id="patch_106">
    <path d="M 930.783043 359.517187 
L 930.783043 26.877187 
L 1054.376216 26.877187 
L 1054.376216 359.517187 
z
" clip-path="url(#p7aacc3f98a)" style="fill: #808080; opacity: 0.4; stroke: #808080; stroke-linejoin: miter"/>
   </g>
   <g id="patch_107">
    <path d="M 1057.809359 26.877187 
L 1057.809359 26.877187 
L 1057.809359 359.517187 
" clip-path="url(#p7aacc3f98a)" style="fill: #808080; opacity: 0.4; stroke: #808080; stroke-linejoin: miter"/>
   </g>
   <g id="patch_108">
    <path d="M 1061.242503 26.877187 
L 1061.242503 26.877187 
L 1061.242503 359.517187 
" clip-path="url(#p7aacc3f98a)" style="fill: #808080; opacity: 0.4; stroke: #808080; stroke-linejoin: miter"/>
   </g>
   <g id="matplotlib.axis_1">
    <g id="xtick_1">
     <g id="line2d_1">
      <defs>
       <path id="m259f1d22d0" d="M 0 0 
L 0 3.5 
" style="stroke: #000000; stroke-width: 0.8"/>
      </defs>
      <g>
       <use xlink:href="#m259f1d22d0" x="115.997915" y="359.517187" style="stroke: #000000; stroke-width: 0.8"/>
      </g>
     </g>
     <g id="text_1">
      <!-- 09-07 12 -->
      <g transform="translate(93.517446 374.115625) scale(0.1 -0.1)">
       <defs>
        <path id="DejaVuSans-30" d="M 2034 4250 
Q 1547 4250 1301 3770 
Q 1056 3291 1056 2328 
Q 1056 1369 1301 889 
Q 1547 409 2034 409 
Q 2525 409 2770 889 
Q 3016 1369 3016 2328 
Q 3016 3291 2770 3770 
Q 2525 4250 2034 4250 
z
M 2034 4750 
Q 2819 4750 3233 4129 
Q 3647 3509 3647 2328 
Q 3647 1150 3233 529 
Q 2819 -91 2034 -91 
Q 1250 -91 836 529 
Q 422 1150 422 2328 
Q 422 3509 836 4129 
Q 1250 4750 2034 4750 
z
" transform="scale(0.015625)"/>
        <path id="DejaVuSans-39" d="M 703 97 
L 703 672 
Q 941 559 1184 500 
Q 1428 441 1663 441 
Q 2288 441 2617 861 
Q 2947 1281 2994 2138 
Q 2813 1869 2534 1725 
Q 2256 1581 1919 1581 
Q 1219 1581 811 2004 
Q 403 2428 403 3163 
Q 403 3881 828 4315 
Q 1253 4750 1959 4750 
Q 2769 4750 3195 4129 
Q 3622 3509 3622 2328 
Q 3622 1225 3098 567 
Q 2575 -91 1691 -91 
Q 1453 -91 1209 -44 
Q 966 3 703 97 
z
M 1959 2075 
Q 2384 2075 2632 2365 
Q 2881 2656 2881 3163 
Q 2881 3666 2632 3958 
Q 2384 4250 1959 4250 
Q 1534 4250 1286 3958 
Q 1038 3666 1038 3163 
Q 1038 2656 1286 2365 
Q 1534 2075 1959 2075 
z
" transform="scale(0.015625)"/>
        <path id="DejaVuSans-2d" d="M 313 2009 
L 1997 2009 
L 1997 1497 
L 313 1497 
L 313 2009 
z
" transform="scale(0.015625)"/>
        <path id="DejaVuSans-37" d="M 525 4666 
L 3525 4666 
L 3525 4397 
L 1831 0 
L 1172 0 
L 2766 4134 
L 525 4134 
L 525 4666 
z
" transform="scale(0.015625)"/>
        <path id="DejaVuSans-20" transform="scale(0.015625)"/>
        <path id="DejaVuSans-31" d="M 794 531 
L 1825 531 
L 1825 4091 
L 703 3866 
L 703 4441 
L 1819 4666 
L 2450 4666 
L 2450 531 
L 3481 531 
L 3481 0 
L 794 0 
L 794 531 
z
" transform="scale(0.015625)"/>
        <path id="DejaVuSans-32" d="M 1228 531 
L 3431 531 
L 3431 0 
L 469 0 
L 469 531 
Q 828 903 1448 1529 
Q 2069 2156 2228 2338 
Q 2531 2678 2651 2914 
Q 2772 3150 2772 3378 
Q 2772 3750 2511 3984 
Q 2250 4219 1831 4219 
Q 1534 4219 1204 4116 
Q 875 4013 500 3803 
L 500 4441 
Q 881 4594 1212 4672 
Q 1544 4750 1819 4750 
Q 2544 4750 2975 4387 
Q 3406 4025 3406 3419 
Q 3406 3131 3298 2873 
Q 3191 2616 2906 2266 
Q 2828 2175 2409 1742 
Q 1991 1309 1228 531 
z
" transform="scale(0.015625)"/>
       </defs>
       <use xlink:href="#DejaVuSans-30"/>
       <use xlink:href="#DejaVuSans-39" x="63.623047"/>
       <use xlink:href="#DejaVuSans-2d" x="127.246094"/>
       <use xlink:href="#DejaVuSans-30" x="163.330078"/>
       <use xlink:href="#DejaVuSans-37" x="226.953125"/>
       <use xlink:href="#DejaVuSans-20" x="290.576172"/>
       <use xlink:href="#DejaVuSans-31" x="322.363281"/>
       <use xlink:href="#DejaVuSans-32" x="385.986328"/>
      </g>
     </g>
    </g>
    <g id="xtick_2">
     <g id="line2d_2">
      <g>
       <use xlink:href="#m259f1d22d0" x="239.591087" y="359.517187" style="stroke: #000000; stroke-width: 0.8"/>
      </g>
     </g>
     <g id="text_2">
      <!-- 09-08 00 -->
      <g transform="translate(217.110618 374.115625) scale(0.1 -0.1)">
       <defs>
        <path id="DejaVuSans-38" d="M 2034 2216 
Q 1584 2216 1326 1975 
Q 1069 1734 1069 1313 
Q 1069 891 1326 650 
Q 1584 409 2034 409 
Q 2484 409 2743 651 
Q 3003 894 3003 1313 
Q 3003 1734 2745 1975 
Q 2488 2216 2034 2216 
z
M 1403 2484 
Q 997 2584 770 2862 
Q 544 3141 544 3541 
Q 544 4100 942 4425 
Q 1341 4750 2034 4750 
Q 2731 4750 3128 4425 
Q 3525 4100 3525 3541 
Q 3525 3141 3298 2862 
Q 3072 2584 2669 2484 
Q 3125 2378 3379 2068 
Q 3634 1759 3634 1313 
Q 3634 634 3220 271 
Q 2806 -91 2034 -91 
Q 1263 -91 848 271 
Q 434 634 434 1313 
Q 434 1759 690 2068 
Q 947 2378 1403 2484 
z
M 1172 3481 
Q 1172 3119 1398 2916 
Q 1625 2713 2034 2713 
Q 2441 2713 2670 2916 
Q 2900 3119 2900 3481 
Q 2900 3844 2670 4047 
Q 2441 4250 2034 4250 
Q 1625 4250 1398 4047 
Q 1172 3844 1172 3481 
z
" transform="scale(0.015625)"/>
       </defs>
       <use xlink:href="#DejaVuSans-30"/>
       <use xlink:href="#DejaVuSans-39" x="63.623047"/>
       <use xlink:href="#DejaVuSans-2d" x="127.246094"/>
       <use xlink:href="#DejaVuSans-30" x="163.330078"/>
       <use xlink:href="#DejaVuSans-38" x="226.953125"/>
       <use xlink:href="#DejaVuSans-20" x="290.576172"/>
       <use xlink:href="#DejaVuSans-30" x="322.363281"/>
       <use xlink:href="#DejaVuSans-30" x="385.986328"/>
      </g>
     </g>
    </g>
    <g id="xtick_3">
     <g id="line2d_3">
      <g>
       <use xlink:href="#m259f1d22d0" x="363.18426" y="359.517187" style="stroke: #000000; stroke-width: 0.8"/>
      </g>
     </g>
     <g id="text_3">
      <!-- 09-08 12 -->
      <g transform="translate(340.703791 374.115625) scale(0.1 -0.1)">
       <use xlink:href="#DejaVuSans-30"/>
       <use xlink:href="#DejaVuSans-39" x="63.623047"/>
       <use xlink:href="#DejaVuSans-2d" x="127.246094"/>
       <use xlink:href="#DejaVuSans-30" x="163.330078"/>
       <use xlink:href="#DejaVuSans-38" x="226.953125"/>
       <use xlink:href="#DejaVuSans-20" x="290.576172"/>
       <use xlink:href="#DejaVuSans-31" x="322.363281"/>
       <use xlink:href="#DejaVuSans-32" x="385.986328"/>
      </g>
     </g>
    </g>
    <g id="xtick_4">
     <g id="line2d_4">
      <g>
       <use xlink:href="#m259f1d22d0" x="486.777432" y="359.517187" style="stroke: #000000; stroke-width: 0.8"/>
      </g>
     </g>
     <g id="text_4">
      <!-- 09-09 00 -->
      <g transform="translate(464.296963 374.115625) scale(0.1 -0.1)">
       <use xlink:href="#DejaVuSans-30"/>
       <use xlink:href="#DejaVuSans-39" x="63.623047"/>
       <use xlink:href="#DejaVuSans-2d" x="127.246094"/>
       <use xlink:href="#DejaVuSans-30" x="163.330078"/>
       <use xlink:href="#DejaVuSans-39" x="226.953125"/>
       <use xlink:href="#DejaVuSans-20" x="290.576172"/>
       <use xlink:href="#DejaVuSans-30" x="322.363281"/>
       <use xlink:href="#DejaVuSans-30" x="385.986328"/>
      </g>
     </g>
    </g>
    <g id="xtick_5">
     <g id="line2d_5">
      <g>
       <use xlink:href="#m259f1d22d0" x="610.370605" y="359.517187" style="stroke: #000000; stroke-width: 0.8"/>
      </g>
     </g>
     <g id="text_5">
      <!-- 09-09 12 -->
      <g transform="translate(587.890136 374.115625) scale(0.1 -0.1)">
       <use xlink:href="#DejaVuSans-30"/>
       <use xlink:href="#DejaVuSans-39" x="63.623047"/>
       <use xlink:href="#DejaVuSans-2d" x="127.246094"/>
       <use xlink:href="#DejaVuSans-30" x="163.330078"/>
       <use xlink:href="#DejaVuSans-39" x="226.953125"/>
       <use xlink:href="#DejaVuSans-20" x="290.576172"/>
       <use xlink:href="#DejaVuSans-31" x="322.363281"/>
       <use xlink:href="#DejaVuSans-32" x="385.986328"/>
      </g>
     </g>
    </g>
    <g id="xtick_6">
     <g id="line2d_6">
      <g>
       <use xlink:href="#m259f1d22d0" x="733.963777" y="359.517187" style="stroke: #000000; stroke-width: 0.8"/>
      </g>
     </g>
     <g id="text_6">
      <!-- 09-10 00 -->
      <g transform="translate(711.483308 374.115625) scale(0.1 -0.1)">
       <use xlink:href="#DejaVuSans-30"/>
       <use xlink:href="#DejaVuSans-39" x="63.623047"/>
       <use xlink:href="#DejaVuSans-2d" x="127.246094"/>
       <use xlink:href="#DejaVuSans-31" x="163.330078"/>
       <use xlink:href="#DejaVuSans-30" x="226.953125"/>
       <use xlink:href="#DejaVuSans-20" x="290.576172"/>
       <use xlink:href="#DejaVuSans-30" x="322.363281"/>
       <use xlink:href="#DejaVuSans-30" x="385.986328"/>
      </g>
     </g>
    </g>
    <g id="xtick_7">
     <g id="line2d_7">
      <g>
       <use xlink:href="#m259f1d22d0" x="857.55695" y="359.517187" style="stroke: #000000; stroke-width: 0.8"/>
      </g>
     </g>
     <g id="text_7">
      <!-- 09-10 12 -->
      <g transform="translate(835.076481 374.115625) scale(0.1 -0.1)">
       <use xlink:href="#DejaVuSans-30"/>
       <use xlink:href="#DejaVuSans-39" x="63.623047"/>
       <use xlink:href="#DejaVuSans-2d" x="127.246094"/>
       <use xlink:href="#DejaVuSans-31" x="163.330078"/>
       <use xlink:href="#DejaVuSans-30" x="226.953125"/>
       <use xlink:href="#DejaVuSans-20" x="290.576172"/>
       <use xlink:href="#DejaVuSans-31" x="322.363281"/>
       <use xlink:href="#DejaVuSans-32" x="385.986328"/>
      </g>
     </g>
    </g>
    <g id="xtick_8">
     <g id="line2d_8">
      <g>
       <use xlink:href="#m259f1d22d0" x="981.150122" y="359.517187" style="stroke: #000000; stroke-width: 0.8"/>
      </g>
     </g>
     <g id="text_8">
      <!-- 09-11 00 -->
      <g transform="translate(958.669653 374.115625) scale(0.1 -0.1)">
       <use xlink:href="#DejaVuSans-30"/>
       <use xlink:href="#DejaVuSans-39" x="63.623047"/>
       <use xlink:href="#DejaVuSans-2d" x="127.246094"/>
       <use xlink:href="#DejaVuSans-31" x="163.330078"/>
       <use xlink:href="#DejaVuSans-31" x="226.953125"/>
       <use xlink:href="#DejaVuSans-20" x="290.576172"/>
       <use xlink:href="#DejaVuSans-30" x="322.363281"/>
       <use xlink:href="#DejaVuSans-30" x="385.986328"/>
      </g>
     </g>
    </g>
    <g id="xtick_9">
     <g id="line2d_9">
      <g>
       <use xlink:href="#m259f1d22d0" x="1104.743294" y="359.517187" style="stroke: #000000; stroke-width: 0.8"/>
      </g>
     </g>
     <g id="text_9">
      <!-- 09-11 12 -->
      <g transform="translate(1082.262826 374.115625) scale(0.1 -0.1)">
       <use xlink:href="#DejaVuSans-30"/>
       <use xlink:href="#DejaVuSans-39" x="63.623047"/>
       <use xlink:href="#DejaVuSans-2d" x="127.246094"/>
       <use xlink:href="#DejaVuSans-31" x="163.330078"/>
       <use xlink:href="#DejaVuSans-31" x="226.953125"/>
       <use xlink:href="#DejaVuSans-20" x="290.576172"/>
       <use xlink:href="#DejaVuSans-31" x="322.363281"/>
       <use xlink:href="#DejaVuSans-32" x="385.986328"/>
      </g>
     </g>
    </g>
    <g id="text_10">
     <!-- Time -->
     <g transform="translate(592.554688 389.313437) scale(0.12 -0.12)">
      <defs>
       <path id="DejaVuSans-54" d="M -19 4666 
L 3928 4666 
L 3928 4134 
L 2272 4134 
L 2272 0 
L 1638 0 
L 1638 4134 
L -19 4134 
L -19 4666 
z
" transform="scale(0.015625)"/>
       <path id="DejaVuSans-69" d="M 603 3500 
L 1178 3500 
L 1178 0 
L 603 0 
L 603 3500 
z
M 603 4863 
L 1178 4863 
L 1178 4134 
L 603 4134 
L 603 4863 
z
" transform="scale(0.015625)"/>
       <path id="DejaVuSans-6d" d="M 3328 2828 
Q 3544 3216 3844 3400 
Q 4144 3584 4550 3584 
Q 5097 3584 5394 3201 
Q 5691 2819 5691 2113 
L 5691 0 
L 5113 0 
L 5113 2094 
Q 5113 2597 4934 2840 
Q 4756 3084 4391 3084 
Q 3944 3084 3684 2787 
Q 3425 2491 3425 1978 
L 3425 0 
L 2847 0 
L 2847 2094 
Q 2847 2600 2669 2842 
Q 2491 3084 2119 3084 
Q 1678 3084 1418 2786 
Q 1159 2488 1159 1978 
L 1159 0 
L 581 0 
L 581 3500 
L 1159 3500 
L 1159 2956 
Q 1356 3278 1631 3431 
Q 1906 3584 2284 3584 
Q 2666 3584 2933 3390 
Q 3200 3197 3328 2828 
z
" transform="scale(0.015625)"/>
       <path id="DejaVuSans-65" d="M 3597 1894 
L 3597 1613 
L 953 1613 
Q 991 1019 1311 708 
Q 1631 397 2203 397 
Q 2534 397 2845 478 
Q 3156 559 3463 722 
L 3463 178 
Q 3153 47 2828 -22 
Q 2503 -91 2169 -91 
Q 1331 -91 842 396 
Q 353 884 353 1716 
Q 353 2575 817 3079 
Q 1281 3584 2069 3584 
Q 2775 3584 3186 3129 
Q 3597 2675 3597 1894 
z
M 3022 2063 
Q 3016 2534 2758 2815 
Q 2500 3097 2075 3097 
Q 1594 3097 1305 2825 
Q 1016 2553 972 2059 
L 3022 2063 
z
" transform="scale(0.015625)"/>
      </defs>
      <use xlink:href="#DejaVuSans-54"/>
      <use xlink:href="#DejaVuSans-69" x="57.958984"/>
      <use xlink:href="#DejaVuSans-6d" x="85.742188"/>
      <use xlink:href="#DejaVuSans-65" x="183.154297"/>
     </g>
    </g>
   </g>
   <g id="matplotlib.axis_2">
    <g id="ytick_1">
     <g id="line2d_10">
      <defs>
       <path id="m636734d6e7" d="M 0 0 
L -3.5 0 
" style="stroke: #000000; stroke-width: 0.8"/>
      </defs>
      <g>
       <use xlink:href="#m636734d6e7" x="49.235" y="344.397187" style="stroke: #000000; stroke-width: 0.8"/>
      </g>
     </g>
     <g id="text_11">
      <!-- 0 -->
      <g transform="translate(35.8725 348.196406) scale(0.1 -0.1)">
       <use xlink:href="#DejaVuSans-30"/>
      </g>
     </g>
    </g>
    <g id="ytick_2">
     <g id="line2d_11">
      <g>
       <use xlink:href="#m636734d6e7" x="49.235" y="301.984845" style="stroke: #000000; stroke-width: 0.8"/>
      </g>
     </g>
     <g id="text_12">
      <!-- 100 -->
      <g transform="translate(23.1475 305.784064) scale(0.1 -0.1)">
       <use xlink:href="#DejaVuSans-31"/>
       <use xlink:href="#DejaVuSans-30" x="63.623047"/>
       <use xlink:href="#DejaVuSans-30" x="127.246094"/>
      </g>
     </g>
    </g>
    <g id="ytick_3">
     <g id="line2d_12">
      <g>
       <use xlink:href="#m636734d6e7" x="49.235" y="259.572503" style="stroke: #000000; stroke-width: 0.8"/>
      </g>
     </g>
     <g id="text_13">
      <!-- 200 -->
      <g transform="translate(23.1475 263.371722) scale(0.1 -0.1)">
       <use xlink:href="#DejaVuSans-32"/>
       <use xlink:href="#DejaVuSans-30" x="63.623047"/>
       <use xlink:href="#DejaVuSans-30" x="127.246094"/>
      </g>
     </g>
    </g>
    <g id="ytick_4">
     <g id="line2d_13">
      <g>
       <use xlink:href="#m636734d6e7" x="49.235" y="217.160161" style="stroke: #000000; stroke-width: 0.8"/>
      </g>
     </g>
     <g id="text_14">
      <!-- 300 -->
      <g transform="translate(23.1475 220.95938) scale(0.1 -0.1)">
       <defs>
        <path id="DejaVuSans-33" d="M 2597 2516 
Q 3050 2419 3304 2112 
Q 3559 1806 3559 1356 
Q 3559 666 3084 287 
Q 2609 -91 1734 -91 
Q 1441 -91 1130 -33 
Q 819 25 488 141 
L 488 750 
Q 750 597 1062 519 
Q 1375 441 1716 441 
Q 2309 441 2620 675 
Q 2931 909 2931 1356 
Q 2931 1769 2642 2001 
Q 2353 2234 1838 2234 
L 1294 2234 
L 1294 2753 
L 1863 2753 
Q 2328 2753 2575 2939 
Q 2822 3125 2822 3475 
Q 2822 3834 2567 4026 
Q 2313 4219 1838 4219 
Q 1578 4219 1281 4162 
Q 984 4106 628 3988 
L 628 4550 
Q 988 4650 1302 4700 
Q 1616 4750 1894 4750 
Q 2613 4750 3031 4423 
Q 3450 4097 3450 3541 
Q 3450 3153 3228 2886 
Q 3006 2619 2597 2516 
z
" transform="scale(0.015625)"/>
       </defs>
       <use xlink:href="#DejaVuSans-33"/>
       <use xlink:href="#DejaVuSans-30" x="63.623047"/>
       <use xlink:href="#DejaVuSans-30" x="127.246094"/>
      </g>
     </g>
    </g>
    <g id="ytick_5">
     <g id="line2d_14">
      <g>
       <use xlink:href="#m636734d6e7" x="49.235" y="174.747819" style="stroke: #000000; stroke-width: 0.8"/>
      </g>
     </g>
     <g id="text_15">
      <!-- 400 -->
      <g transform="translate(23.1475 178.547037) scale(0.1 -0.1)">
       <defs>
        <path id="DejaVuSans-34" d="M 2419 4116 
L 825 1625 
L 2419 1625 
L 2419 4116 
z
M 2253 4666 
L 3047 4666 
L 3047 1625 
L 3713 1625 
L 3713 1100 
L 3047 1100 
L 3047 0 
L 2419 0 
L 2419 1100 
L 313 1100 
L 313 1709 
L 2253 4666 
z
" transform="scale(0.015625)"/>
       </defs>
       <use xlink:href="#DejaVuSans-34"/>
       <use xlink:href="#DejaVuSans-30" x="63.623047"/>
       <use xlink:href="#DejaVuSans-30" x="127.246094"/>
      </g>
     </g>
    </g>
    <g id="ytick_6">
     <g id="line2d_15">
      <g>
       <use xlink:href="#m636734d6e7" x="49.235" y="132.335476" style="stroke: #000000; stroke-width: 0.8"/>
      </g>
     </g>
     <g id="text_16">
      <!-- 500 -->
      <g transform="translate(23.1475 136.134695) scale(0.1 -0.1)">
       <defs>
        <path id="DejaVuSans-35" d="M 691 4666 
L 3169 4666 
L 3169 4134 
L 1269 4134 
L 1269 2991 
Q 1406 3038 1543 3061 
Q 1681 3084 1819 3084 
Q 2600 3084 3056 2656 
Q 3513 2228 3513 1497 
Q 3513 744 3044 326 
Q 2575 -91 1722 -91 
Q 1428 -91 1123 -41 
Q 819 9 494 109 
L 494 744 
Q 775 591 1075 516 
Q 1375 441 1709 441 
Q 2250 441 2565 725 
Q 2881 1009 2881 1497 
Q 2881 1984 2565 2268 
Q 2250 2553 1709 2553 
Q 1456 2553 1204 2497 
Q 953 2441 691 2322 
L 691 4666 
z
" transform="scale(0.015625)"/>
       </defs>
       <use xlink:href="#DejaVuSans-35"/>
       <use xlink:href="#DejaVuSans-30" x="63.623047"/>
       <use xlink:href="#DejaVuSans-30" x="127.246094"/>
      </g>
     </g>
    </g>
    <g id="ytick_7">
     <g id="line2d_16">
      <g>
       <use xlink:href="#m636734d6e7" x="49.235" y="89.923134" style="stroke: #000000; stroke-width: 0.8"/>
      </g>
     </g>
     <g id="text_17">
      <!-- 600 -->
      <g transform="translate(23.1475 93.722353) scale(0.1 -0.1)">
       <defs>
        <path id="DejaVuSans-36" d="M 2113 2584 
Q 1688 2584 1439 2293 
Q 1191 2003 1191 1497 
Q 1191 994 1439 701 
Q 1688 409 2113 409 
Q 2538 409 2786 701 
Q 3034 994 3034 1497 
Q 3034 2003 2786 2293 
Q 2538 2584 2113 2584 
z
M 3366 4563 
L 3366 3988 
Q 3128 4100 2886 4159 
Q 2644 4219 2406 4219 
Q 1781 4219 1451 3797 
Q 1122 3375 1075 2522 
Q 1259 2794 1537 2939 
Q 1816 3084 2150 3084 
Q 2853 3084 3261 2657 
Q 3669 2231 3669 1497 
Q 3669 778 3244 343 
Q 2819 -91 2113 -91 
Q 1303 -91 875 529 
Q 447 1150 447 2328 
Q 447 3434 972 4092 
Q 1497 4750 2381 4750 
Q 2619 4750 2861 4703 
Q 3103 4656 3366 4563 
z
" transform="scale(0.015625)"/>
       </defs>
       <use xlink:href="#DejaVuSans-36"/>
       <use xlink:href="#DejaVuSans-30" x="63.623047"/>
       <use xlink:href="#DejaVuSans-30" x="127.246094"/>
      </g>
     </g>
    </g>
    <g id="ytick_8">
     <g id="line2d_17">
      <g>
       <use xlink:href="#m636734d6e7" x="49.235" y="47.510792" style="stroke: #000000; stroke-width: 0.8"/>
      </g>
     </g>
     <g id="text_18">
      <!-- 700 -->
      <g transform="translate(23.1475 51.310011) scale(0.1 -0.1)">
       <use xlink:href="#DejaVuSans-37"/>
       <use xlink:href="#DejaVuSans-30" x="63.623047"/>
       <use xlink:href="#DejaVuSans-30" x="127.246094"/>
      </g>
     </g>
    </g>
    <g id="text_19">
     <!-- Pellet_Count -->
     <g transform="translate(16.318125 230.485312) rotate(-90) scale(0.12 -0.12)">
      <defs>
       <path id="DejaVuSans-50" d="M 1259 4147 
L 1259 2394 
L 2053 2394 
Q 2494 2394 2734 2622 
Q 2975 2850 2975 3272 
Q 2975 3691 2734 3919 
Q 2494 4147 2053 4147 
L 1259 4147 
z
M 628 4666 
L 2053 4666 
Q 2838 4666 3239 4311 
Q 3641 3956 3641 3272 
Q 3641 2581 3239 2228 
Q 2838 1875 2053 1875 
L 1259 1875 
L 1259 0 
L 628 0 
L 628 4666 
z
" transform="scale(0.015625)"/>
       <path id="DejaVuSans-6c" d="M 603 4863 
L 1178 4863 
L 1178 0 
L 603 0 
L 603 4863 
z
" transform="scale(0.015625)"/>
       <path id="DejaVuSans-74" d="M 1172 4494 
L 1172 3500 
L 2356 3500 
L 2356 3053 
L 1172 3053 
L 1172 1153 
Q 1172 725 1289 603 
Q 1406 481 1766 481 
L 2356 481 
L 2356 0 
L 1766 0 
Q 1100 0 847 248 
Q 594 497 594 1153 
L 594 3053 
L 172 3053 
L 172 3500 
L 594 3500 
L 594 4494 
L 1172 4494 
z
" transform="scale(0.015625)"/>
       <path id="DejaVuSans-5f" d="M 3263 -1063 
L 3263 -1509 
L -63 -1509 
L -63 -1063 
L 3263 -1063 
z
" transform="scale(0.015625)"/>
       <path id="DejaVuSans-43" d="M 4122 4306 
L 4122 3641 
Q 3803 3938 3442 4084 
Q 3081 4231 2675 4231 
Q 1875 4231 1450 3742 
Q 1025 3253 1025 2328 
Q 1025 1406 1450 917 
Q 1875 428 2675 428 
Q 3081 428 3442 575 
Q 3803 722 4122 1019 
L 4122 359 
Q 3791 134 3420 21 
Q 3050 -91 2638 -91 
Q 1578 -91 968 557 
Q 359 1206 359 2328 
Q 359 3453 968 4101 
Q 1578 4750 2638 4750 
Q 3056 4750 3426 4639 
Q 3797 4528 4122 4306 
z
" transform="scale(0.015625)"/>
       <path id="DejaVuSans-6f" d="M 1959 3097 
Q 1497 3097 1228 2736 
Q 959 2375 959 1747 
Q 959 1119 1226 758 
Q 1494 397 1959 397 
Q 2419 397 2687 759 
Q 2956 1122 2956 1747 
Q 2956 2369 2687 2733 
Q 2419 3097 1959 3097 
z
M 1959 3584 
Q 2709 3584 3137 3096 
Q 3566 2609 3566 1747 
Q 3566 888 3137 398 
Q 2709 -91 1959 -91 
Q 1206 -91 779 398 
Q 353 888 353 1747 
Q 353 2609 779 3096 
Q 1206 3584 1959 3584 
z
" transform="scale(0.015625)"/>
       <path id="DejaVuSans-75" d="M 544 1381 
L 544 3500 
L 1119 3500 
L 1119 1403 
Q 1119 906 1312 657 
Q 1506 409 1894 409 
Q 2359 409 2629 706 
Q 2900 1003 2900 1516 
L 2900 3500 
L 3475 3500 
L 3475 0 
L 2900 0 
L 2900 538 
Q 2691 219 2414 64 
Q 2138 -91 1772 -91 
Q 1169 -91 856 284 
Q 544 659 544 1381 
z
M 1991 3584 
L 1991 3584 
z
" transform="scale(0.015625)"/>
       <path id="DejaVuSans-6e" d="M 3513 2113 
L 3513 0 
L 2938 0 
L 2938 2094 
Q 2938 2591 2744 2837 
Q 2550 3084 2163 3084 
Q 1697 3084 1428 2787 
Q 1159 2491 1159 1978 
L 1159 0 
L 581 0 
L 581 3500 
L 1159 3500 
L 1159 2956 
Q 1366 3272 1645 3428 
Q 1925 3584 2291 3584 
Q 2894 3584 3203 3211 
Q 3513 2838 3513 2113 
z
" transform="scale(0.015625)"/>
      </defs>
      <use xlink:href="#DejaVuSans-50"/>
      <use xlink:href="#DejaVuSans-65" x="56.677734"/>
      <use xlink:href="#DejaVuSans-6c" x="118.201172"/>
      <use xlink:href="#DejaVuSans-6c" x="145.984375"/>
      <use xlink:href="#DejaVuSans-65" x="173.767578"/>
      <use xlink:href="#DejaVuSans-74" x="235.291016"/>
      <use xlink:href="#DejaVuSans-5f" x="274.5"/>
      <use xlink:href="#DejaVuSans-43" x="324.5"/>
      <use xlink:href="#DejaVuSans-6f" x="394.324219"/>
      <use xlink:href="#DejaVuSans-75" x="455.505859"/>
      <use xlink:href="#DejaVuSans-6e" x="518.884766"/>
      <use xlink:href="#DejaVuSans-74" x="582.263672"/>
     </g>
    </g>
   </g>
   <g id="line2d_18">
    <path d="M 99.962273 344.397187 
L 101.329808 344.397187 
L 101.33553 343.973064 
L 102.374056 343.973064 
L 102.396944 343.548941 
L 105.060491 343.548941 
L 105.160624 342.700694 
L 105.240731 342.700694 
L 105.246453 342.27657 
L 107.449387 342.27657 
L 107.45797 341.852447 
L 107.686846 341.852447 
L 107.69829 341.428324 
L 108.127433 341.428324 
L 108.141738 341.0042 
L 111.108546 341.0042 
L 111.208679 340.155953 
L 111.320256 340.155953 
L 111.3317 339.73183 
L 111.483331 339.73183 
L 111.491914 339.307706 
L 111.612074 339.307706 
L 111.620656 338.883583 
L 111.818062 338.883583 
L 111.843811 338.45946 
L 113.714874 338.45946 
L 113.723457 338.035336 
L 113.960916 338.035336 
L 113.97236 337.611213 
L 114.09252 337.611213 
L 114.115408 337.187089 
L 116.6731 337.187089 
L 116.681682 336.762966 
L 117.897588 336.762966 
L 117.946224 336.338842 
L 119.059134 336.338842 
L 119.150685 335.490596 
L 119.216487 335.490596 
L 119.305176 335.066472 
L 119.350952 334.642349 
L 133.547001 334.642349 
L 133.672883 333.794102 
L 133.721519 333.794102 
L 133.732963 333.369979 
L 134.485393 333.369979 
L 134.596971 332.945855 
L 134.659912 332.945855 
L 134.740018 332.097608 
L 134.822986 332.097608 
L 134.928841 331.249361 
L 134.988921 331.249361 
L 135.10622 330.401115 
L 135.398037 329.976991 
L 136.133302 329.976991 
L 136.239158 329.552868 
L 139.034309 329.552868 
L 139.042892 329.128744 
L 139.185939 329.128744 
L 139.328987 327.856374 
L 139.409094 327.856374 
L 139.500644 327.432251 
L 141.082751 327.432251 
L 141.148553 326.584004 
L 141.274435 326.584004 
L 141.357403 325.735757 
L 141.858069 325.735757 
L 141.863791 325.311634 
L 142.516089 325.311634 
L 142.616222 324.88751 
L 145.600196 324.88751 
L 146.155221 324.463387 
L 146.235328 323.61514 
L 146.295408 323.61514 
L 146.309712 323.191016 
L 146.916234 323.191016 
L 147.02209 322.34277 
L 147.102196 322.34277 
L 147.179442 321.918646 
L 151.121835 321.918646 
L 151.236274 321.070399 
L 151.327824 321.070399 
L 151.43654 320.646276 
L 151.545257 319.798029 
L 151.64539 319.798029 
L 151.748384 318.949782 
L 151.82563 318.949782 
L 151.951512 317.677412 
L 153.676667 317.677412 
L 153.705276 317.253288 
L 154.300354 317.253288 
L 154.391905 316.405042 
L 154.760968 316.405042 
L 154.981261 315.980918 
L 155.8796 315.980918 
L 155.885322 315.556795 
L 158.294245 315.556795 
L 158.299967 315.132671 
L 158.528843 315.132671 
L 158.634698 314.284425 
L 159.415738 314.284425 
L 159.415738 314.284425 
L 159.51015 313.436178 
L 162.405434 313.436178 
L 162.416878 313.012054 
L 163.175031 313.012054 
L 163.286608 312.587931 
L 163.298052 312.587931 
L 163.395324 311.739684 
L 163.452543 311.739684 
L 163.555537 311.315561 
L 163.59273 311.315561 
L 163.618478 310.891437 
L 165.143366 310.891437 
L 165.240639 310.04319 
L 165.360799 310.04319 
L 168.522152 309.619067 
L 168.525013 309.194943 
L 168.819691 309.194943 
L 168.871188 308.346697 
L 168.951295 308.346697 
L 169.034263 307.922573 
L 172.104065 307.922573 
L 173.608927 307.49845 
L 173.706199 306.650203 
L 184.174426 306.650203 
L 184.288864 305.801956 
L 184.368971 305.801956 
L 184.440495 304.953709 
L 186.829391 304.953709 
L 186.832252 304.529586 
L 187.450218 304.529586 
L 187.455939 304.105462 
L 187.567517 304.105462 
L 187.653345 303.257216 
L 187.736313 303.257216 
L 187.807837 302.408969 
L 187.867917 302.408969 
L 187.885082 301.984845 
L 190.637319 301.984845 
L 190.64018 301.560722 
L 191.976245 301.560722 
L 192.067796 301.136598 
L 192.167929 301.136598 
L 192.265202 300.288352 
L 192.336725 300.288352 
L 192.422554 299.440105 
L 216.531805 299.440105 
L 216.646244 298.591858 
L 218.242655 298.591858 
L 218.34565 297.743611 
L 218.434339 297.743611 
L 218.508724 297.319488 
L 218.551638 297.319488 
L 240.658223 296.895364 
L 240.744051 296.047117 
L 240.804131 296.047117 
L 240.88996 295.198871 
L 241.150307 295.198871 
L 241.247579 294.774747 
L 241.40207 294.350624 
L 261.437325 294.350624 
L 261.537458 293.502377 
L 261.643313 293.502377 
L 261.643313 293.502377 
L 261.732003 292.65413 
L 261.829275 292.65413 
L 261.895077 292.230007 
L 272.706619 291.805883 
L 272.80103 290.957636 
L 272.929773 290.957636 
L 273.004158 290.109389 
L 273.06996 290.109389 
L 273.135762 289.261143 
L 273.201564 289.261143 
L 273.204425 288.837019 
L 290.493164 288.837019 
L 290.581854 287.988772 
L 290.641934 287.988772 
L 290.713457 287.140526 
L 290.759233 287.140526 
L 290.876532 285.868155 
L 292.241206 285.868155 
L 305.845038 285.444032 
L 305.919423 284.595785 
L 305.993808 284.595785 
L 306.056749 283.747538 
L 306.125412 283.747538 
L 306.23985 282.899291 
L 306.617496 282.899291 
L 306.623217 282.475168 
L 308.726018 282.475168 
L 316.321848 282.051044 
L 316.404816 281.202798 
L 316.473479 281.202798 
L 316.573612 280.778674 
L 316.593639 280.778674 
L 316.690911 279.930427 
L 322.927789 279.930427 
L 322.933511 279.506304 
L 323.643027 279.506304 
L 323.645888 279.08218 
L 324.037839 279.08218 
L 324.149416 278.658057 
L 324.169443 278.658057 
L 324.175165 278.233934 
L 325.439706 278.233934 
L 325.454011 277.80981 
L 328.546701 277.80981 
L 328.666861 276.961563 
L 328.749829 276.961563 
L 328.821352 276.53744 
L 328.987288 276.53744 
L 328.99301 276.113317 
L 331.939791 276.113317 
L 331.945513 275.689193 
L 332.268801 275.689193 
L 332.388961 275.26507 
L 333.198611 275.26507 
L 333.310188 274.840946 
L 334.654836 274.416823 
L 335.458763 274.416823 
L 335.473068 273.992699 
L 336.276996 273.992699 
L 336.417183 273.144453 
L 336.480124 273.144453 
L 336.545926 272.296206 
L 341.770026 272.296206 
L 341.772887 271.872082 
L 342.164837 271.872082 
L 342.290719 271.023835 
L 345.406297 271.023835 
L 346.682282 270.599712 
L 346.759528 269.751465 
L 346.816747 269.751465 
L 346.882549 268.903218 
L 346.962656 268.903218 
L 347.017014 268.054972 
L 351.840581 268.054972 
L 351.843442 267.630848 
L 352.269724 267.630848 
L 352.344108 266.782601 
L 353.977713 266.782601 
L 353.980574 266.358478 
L 354.36108 266.358478 
L 354.415438 265.510231 
L 356.006128 265.510231 
L 356.629816 265.086108 
L 356.747115 263.813737 
L 361.481993 263.813737 
L 361.573543 262.96549 
L 361.742339 262.96549 
L 361.808141 262.541367 
L 361.876804 262.541367 
L 361.936884 262.117244 
L 361.936884 262.117244 
L 365.942218 262.117244 
L 366.551601 261.69312 
L 366.634569 260.844873 
L 366.680344 260.844873 
L 366.746146 259.996626 
L 366.806226 259.996626 
L 366.900638 259.572503 
L 367.140958 259.572503 
L 367.152402 259.14838 
L 368.494189 259.14838 
L 368.577156 258.300133 
L 368.64868 258.300133 
L 368.734509 257.451886 
L 368.788867 257.451886 
L 368.900444 257.027763 
L 368.969107 256.603639 
L 371.984551 256.603639 
L 371.984551 256.603639 
L 371.995995 256.179516 
L 373.06027 256.179516 
L 373.626738 255.755392 
L 374.170319 255.755392 
L 374.433527 255.331269 
L 374.539382 254.483022 
L 374.596601 254.483022 
L 374.605184 254.058899 
L 375.620823 254.058899 
L 375.698068 253.210652 
L 378.358755 253.210652 
L 378.46461 252.362405 
L 378.653433 252.362405 
L 378.7364 251.514158 
L 378.813646 251.514158 
L 378.879448 250.665911 
L 378.953833 250.665911 
L 379.06541 250.241788 
L 379.079715 250.241788 
L 379.145517 249.393541 
L 379.225623 249.393541 
L 379.297147 248.969418 
L 384.472611 248.969418 
L 384.546996 248.121171 
L 384.627103 248.121171 
L 384.629964 247.697047 
L 384.850257 247.697047 
L 384.85884 247.272924 
L 384.987583 247.272924 
L 385.050524 246.424677 
L 385.113465 246.424677 
L 385.184989 245.57643 
L 385.24793 245.57643 
L 385.250791 245.152307 
L 388.643881 245.152307 
L 399.372455 244.728183 
L 399.429674 244.30406 
L 399.549834 244.30406 
L 399.635663 243.455813 
L 399.698604 243.455813 
L 399.772988 242.607566 
L 399.83879 242.607566 
L 399.907453 241.759319 
L 399.967533 241.759319 
L 399.970394 241.335196 
L 403.240463 241.335196 
L 403.277656 240.911072 
L 404.236075 240.911072 
L 404.361957 239.638702 
L 404.447786 239.638702 
L 404.516449 238.790455 
L 404.58225 238.790455 
L 404.587972 238.366332 
L 412.635833 238.366332 
L 412.89618 237.942209 
L 413.107891 237.942209 
L 413.208024 237.518085 
L 413.236634 237.518085 
L 413.353933 236.669838 
L 413.422595 236.669838 
L 413.511285 235.821591 
L 414.063449 235.821591 
L 414.146417 234.973345 
L 414.200775 234.973345 
L 414.272299 234.125098 
L 414.332379 234.125098 
L 414.418207 233.276851 
L 414.724329 233.276851 
L 414.867377 232.852727 
L 420.944041 232.852727 
L 421.098533 232.004481 
L 421.190083 232.004481 
L 421.287355 231.156234 
L 421.364601 231.156234 
L 421.436125 230.307987 
L 435.480544 230.307987 
L 436.765112 229.883864 
L 436.865245 229.035617 
L 436.99971 229.035617 
L 437.062651 228.18737 
L 437.137035 228.18737 
L 437.237169 227.763246 
L 458.482606 227.763246 
L 458.559852 226.915 
L 458.631376 226.915 
L 458.717204 226.066753 
L 458.797311 226.066753 
L 459.046214 224.794382 
L 460.2049 224.794382 
L 460.207761 224.370259 
L 460.508161 224.370259 
L 460.53391 223.946136 
L 463.635183 223.946136 
L 463.640905 223.522012 
L 483.021001 223.522012 
L 483.092525 222.673765 
L 483.184075 222.673765 
L 483.249877 222.249642 
L 484.0395 222.249642 
L 484.111024 221.401395 
L 484.199713 221.401395 
L 484.282681 220.553148 
L 484.337039 220.553148 
L 484.411424 219.704901 
L 484.471504 219.704901 
L 484.554472 219.280778 
L 484.814818 218.856655 
L 503.110613 218.856655 
L 503.639889 216.311914 
L 515.495679 216.311914 
L 515.584369 215.463667 
L 515.65017 215.463667 
L 515.77033 214.61542 
L 515.853298 214.61542 
L 515.921961 213.767173 
L 515.976319 213.767173 
L 515.996346 213.34305 
L 519.140533 213.34305 
L 519.143394 212.918927 
L 519.274998 212.918927 
L 519.277859 212.494803 
L 537.198869 212.494803 
L 537.310446 211.646556 
L 537.387692 211.646556 
L 537.596541 210.374186 
L 550.442221 210.374186 
L 550.519466 209.525939 
L 550.625322 209.525939 
L 550.708289 208.677692 
L 550.774091 208.677692 
L 550.848476 207.829446 
L 550.922861 207.829446 
L 551.000107 206.981199 
L 551.861253 206.981199 
L 552.96272 206.557075 
L 569.241543 206.557075 
L 569.370286 205.284705 
L 569.427505 205.284705 
L 569.733627 203.588211 
L 569.813734 203.588211 
L 569.816595 203.164088 
L 570.508945 203.164088 
L 575.675827 202.739964 
L 577.855873 202.739964 
L 577.913092 201.891718 
L 577.993199 201.891718 
L 578.073305 201.043471 
L 578.133385 201.043471 
L 578.219214 200.195224 
L 585.23141 200.195224 
L 585.357292 199.346977 
L 585.414511 199.346977 
L 585.526088 198.49873 
L 585.603334 198.49873 
L 585.606195 198.074607 
L 587.022367 198.074607 
L 587.03381 197.650483 
L 593.330768 197.650483 
L 593.777077 197.22636 
L 594.615336 197.22636 
L 594.706887 196.802237 
L 595.098837 196.802237 
L 595.104559 196.378113 
L 596.555062 196.378113 
L 596.635169 195.95399 
L 596.772495 195.105743 
L 600.17989 195.105743 
L 600.895128 194.681619 
L 600.940903 193.833373 
L 601.063924 193.833373 
L 601.181223 192.561002 
L 601.226999 192.561002 
L 601.22986 192.136879 
L 602.088145 192.136879 
L 602.711833 191.712756 
L 606.903129 191.712756 
L 607.129145 190.864509 
L 607.400935 190.864509 
L 607.492486 190.016262 
L 607.581175 190.016262 
L 607.586897 189.592138 
L 607.77572 189.592138 
L 607.86441 188.743892 
L 607.92449 188.743892 
L 607.930212 188.319768 
L 608.716974 188.319768 
L 609.329218 187.895645 
L 610.582315 187.895645 
L 610.645256 187.047398 
L 618.066568 187.047398 
L 618.169563 186.199151 
L 618.255391 186.199151 
L 618.258252 185.775028 
L 620.458325 185.775028 
L 620.515544 185.350904 
L 621.808695 185.350904 
L 621.874497 184.502657 
L 622.043293 184.502657 
L 622.131983 183.654411 
L 622.189202 183.654411 
L 622.257865 183.230287 
L 622.818611 183.230287 
L 622.87583 182.806164 
L 623.199118 182.806164 
L 623.20484 182.38204 
L 625.505046 182.38204 
L 625.510768 181.957917 
L 625.69673 181.957917 
L 625.75681 181.10967 
L 625.828334 181.10967 
L 625.882692 180.261423 
L 625.954216 180.261423 
L 625.957077 179.8373 
L 626.311835 179.8373 
L 626.314696 179.413176 
L 626.615096 179.413176 
L 626.68662 178.564929 
L 627.067127 178.564929 
L 627.069988 178.140806 
L 627.441912 178.140806 
L 627.444772 177.716683 
L 632.096682 177.716683 
L 632.625958 177.292559 
L 632.680317 176.444312 
L 632.746118 176.444312 
L 632.817642 175.596065 
L 632.874861 175.596065 
L 632.957829 174.747819 
L 634.408332 174.747819 
L 634.514187 173.899572 
L 634.565685 173.899572 
L 634.680123 173.051325 
L 634.685845 173.051325 
L 634.748786 172.203078 
L 634.808866 172.203078 
L 634.863224 171.354831 
L 635.189372 171.354831 
L 635.189372 171.354831 
L 635.200816 170.930708 
L 635.492633 170.930708 
L 636.130626 170.506584 
L 639.334893 170.506584 
L 639.340615 170.082461 
L 641.0343 170.082461 
L 641.03716 169.658338 
L 641.203096 169.658338 
L 641.30609 168.810091 
L 642.161515 168.810091 
L 642.233039 167.961844 
L 642.298841 167.961844 
L 642.304563 167.53772 
L 642.513412 167.53772 
L 642.667904 166.26535 
L 642.905363 166.26535 
L 643.019801 165.417103 
L 643.128517 164.144733 
L 660.219851 164.144733 
L 660.297097 163.296486 
L 660.357177 163.296486 
L 660.420118 162.448239 
L 660.477337 162.448239 
L 660.568887 161.599993 
L 660.626106 161.599993 
L 660.660438 161.175869 
L 660.777737 161.175869 
L 660.880731 160.751746 
L 660.912201 160.327622 
L 661.060971 160.327622 
L 663.961977 159.903499 
L 673.769325 159.903499 
L 673.852292 159.479375 
L 674.89654 159.479375 
L 674.979508 158.631129 
L 675.174052 158.631129 
L 675.176913 158.207005 
L 675.594613 158.207005 
L 675.67758 157.358758 
L 675.769131 157.358758 
L 675.920761 156.086388 
L 675.975119 156.086388 
L 676.083836 155.238141 
L 676.203996 154.389894 
L 676.478647 154.389894 
L 676.635999 153.965771 
L 678.135139 153.965771 
L 678.203802 153.541648 
L 678.249577 153.541648 
L 678.295352 153.117524 
L 678.904735 153.117524 
L 678.907596 152.693401 
L 679.514118 152.693401 
L 679.628556 151.845154 
L 679.78877 151.845154 
L 681.070477 151.42103 
L 681.880126 151.42103 
L 681.882987 150.996907 
L 683.536618 150.996907 
L 683.605281 150.14866 
L 683.6625 150.14866 
L 683.779799 148.87629 
L 683.851323 148.87629 
L 683.934291 148.452166 
L 702.673533 148.452166 
L 702.785111 148.028043 
L 702.790832 148.028043 
L 702.870939 147.179796 
L 702.979655 147.179796 
L 703.059762 146.331549 
L 703.128425 146.331549 
L 703.240002 145.483303 
L 703.297221 145.483303 
L 703.300082 145.059179 
L 703.437408 145.059179 
L 703.517515 144.210932 
L 703.569012 144.210932 
L 703.571873 143.786809 
L 703.900882 143.786809 
L 703.969545 142.938562 
L 722.788894 142.938562 
L 722.800338 142.514439 
L 723.149374 142.514439 
L 723.252369 141.666192 
L 723.332475 141.666192 
L 723.432609 140.817945 
L 744.257486 140.817945 
L 744.371924 139.545575 
L 744.426282 139.545575 
L 744.526416 138.697328 
L 744.944115 138.697328 
L 744.952698 138.273204 
L 745.336065 138.273204 
L 745.587829 137.849081 
L 765.557282 137.849081 
L 765.634527 137.000834 
L 765.706051 137.000834 
L 765.937789 135.728464 
L 765.995008 135.728464 
L 766.000729 135.30434 
L 766.321156 135.30434 
L 766.389819 134.880217 
L 766.444177 134.880217 
L 782.282413 134.456094 
L 782.36252 133.607847 
L 782.431183 133.607847 
L 782.537038 133.183723 
L 802.457854 133.183723 
L 802.540822 132.335476 
L 802.62379 132.335476 
L 802.666704 131.911353 
L 803.107291 131.911353 
L 803.110152 131.48723 
L 804.520602 131.48723 
L 804.523463 131.063106 
L 813.855891 131.063106 
L 813.947442 130.214859 
L 814.010383 130.214859 
L 814.010383 129.790736 
L 814.096211 129.790736 
L 814.250703 128.942489 
L 814.336532 128.942489 
L 814.72276 126.397749 
L 824.347006 126.397749 
L 824.444279 125.549502 
L 827.980417 125.549502 
L 828.077689 124.701255 
L 828.152074 124.701255 
L 828.220737 123.853008 
L 828.292261 123.853008 
L 828.369506 123.004761 
L 828.443891 123.004761 
L 828.446752 122.580638 
L 831.556608 122.580638 
L 831.628132 121.732391 
L 838.236933 121.732391 
L 838.294153 120.884144 
L 838.348511 120.884144 
L 838.359954 120.460021 
L 839.595886 120.460021 
L 839.707463 120.035897 
L 840.313985 120.035897 
L 840.906203 119.611774 
L 842.250851 119.611774 
L 842.288043 119.18765 
L 843.146329 119.18765 
L 844.450924 118.763527 
L 844.456645 118.339403 
L 845.357846 118.339403 
L 845.363568 117.91528 
L 847.000033 117.91528 
L 848.358985 117.491157 
L 848.43337 117.067033 
L 848.667968 117.067033 
L 848.730909 116.64291 
L 848.790989 116.64291 
L 856.38682 116.218786 
L 856.481231 115.37054 
L 856.541311 115.37054 
L 856.612835 114.522293 
L 856.701525 114.522293 
L 856.753022 113.674046 
L 856.821685 113.674046 
L 856.821685 113.249922 
L 856.941845 113.249922 
L 856.999064 112.401676 
L 857.067727 112.401676 
L 857.076309 111.977552 
L 857.225079 111.977552 
L 866.823576 111.553429 
L 867.144003 111.129305 
L 868.422849 111.129305 
L 868.488651 110.281058 
L 868.563036 110.281058 
L 868.637421 109.432812 
L 868.706084 109.432812 
L 868.769025 108.584565 
L 869.335493 108.584565 
L 869.338354 108.160441 
L 872.516873 108.160441 
L 872.522595 107.736318 
L 875.063121 107.736318 
L 875.552344 104.767454 
L 879.858079 104.767454 
L 879.943907 103.919207 
L 879.986822 103.919207 
L 880.086955 103.07096 
L 880.152757 103.07096 
L 880.40166 101.374467 
L 885.210922 101.374467 
L 885.279585 100.950343 
L 885.333943 100.950343 
L 885.434076 100.52622 
L 887.339471 100.52622 
L 887.442465 99.677973 
L 887.48538 99.677973 
L 887.60554 98.829726 
L 887.651315 98.829726 
L 887.777197 98.405603 
L 888.17773 98.405603 
L 888.180591 97.981479 
L 891.164565 97.981479 
L 891.261838 97.133232 
L 892.712341 97.133232 
L 892.823918 96.709109 
L 892.918329 96.709109 
L 893.067099 95.860862 
L 893.147206 95.860862 
L 893.267366 95.012615 
L 893.298836 94.588492 
L 908.264482 94.588492 
L 908.373198 93.316122 
L 908.421834 93.316122 
L 908.630684 92.043751 
L 908.973998 92.043751 
L 910.973804 91.619628 
L 916.355257 91.195504 
L 916.45539 90.347258 
L 916.521192 90.347258 
L 916.609882 89.499011 
L 916.707154 89.499011 
L 916.778678 88.650764 
L 918.446614 88.650764 
L 918.867174 88.226641 
L 920.589467 88.226641 
L 920.978557 87.802517 
L 920.981418 87.378394 
L 921.559331 87.378394 
L 921.565052 86.95427 
L 922.932588 86.95427 
L 923.015556 86.106023 
L 923.061331 86.106023 
L 923.121411 85.257777 
L 924.797929 85.257777 
L 924.858009 84.40953 
L 924.923811 84.40953 
L 924.926672 83.985406 
L 931.558362 83.985406 
L 931.61272 83.561283 
L 931.772933 83.561283 
L 931.787238 83.137159 
L 932.488171 83.137159 
L 932.576861 82.713036 
L 932.697021 82.713036 
L 932.777128 81.864789 
L 932.860095 81.864789 
L 932.931619 81.016542 
L 933.149051 81.016542 
L 933.151912 80.592419 
L 947.37371 80.592419 
L 947.376571 80.168295 
L 947.576838 80.168295 
L 947.737051 79.320049 
L 947.802853 79.320049 
L 947.911569 78.471802 
L 948.043173 78.047678 
L 948.157611 78.047678 
L 948.234857 77.199432 
L 948.294937 77.199432 
L 948.317825 76.775308 
L 967.531985 76.775308 
L 967.5749 76.351185 
L 969.099788 76.351185 
L 969.308637 75.078814 
L 969.365856 75.078814 
L 969.425936 74.230568 
L 971.371384 74.230568 
L 971.382828 73.806444 
L 987.501438 73.806444 
L 987.581544 72.958197 
L 987.635903 72.958197 
L 987.710287 72.534074 
L 987.859057 72.534074 
L 987.861918 72.10995 
L 1003.213792 72.10995 
L 1003.213792 72.10995 
L 1003.322508 71.261704 
L 1003.414059 71.261704 
L 1003.414059 70.83758 
L 1003.494165 70.83758 
L 1003.697293 69.56521 
L 1003.754512 69.56521 
L 1003.909004 68.716963 
L 1004.16935 68.716963 
L 1023.918509 68.29284 
L 1024.021504 67.444593 
L 1024.144525 67.444593 
L 1024.253241 66.596346 
L 1024.327626 66.596346 
L 1024.422037 65.748099 
L 1024.484978 65.748099 
L 1024.487839 65.323976 
L 1027.949592 65.323976 
L 1027.952453 64.899852 
L 1046.562953 64.899852 
L 1046.668808 63.627482 
L 1046.740332 63.627482 
L 1046.849048 62.779235 
L 1046.866214 62.779235 
L 1046.911989 61.930988 
L 1059.225531 61.930988 
L 1059.405771 61.506865 
L 1059.494461 61.506865 
L 1059.497322 61.082741 
L 1059.817748 61.082741 
L 1059.889272 60.234495 
L 1059.946491 60.234495 
L 1059.949352 59.810371 
L 1063.854553 59.810371 
L 1063.857414 59.386248 
L 1068.972798 59.386248 
L 1069.058627 58.538001 
L 1069.121568 58.538001 
L 1069.193092 57.689754 
L 1069.273198 57.689754 
L 1069.336139 56.841507 
L 1069.527823 56.841507 
L 1069.530684 56.417384 
L 1069.676593 56.417384 
L 1069.682315 55.99326 
L 1073.899359 55.99326 
L 1074.534491 55.569137 
L 1075.275478 55.569137 
L 1075.409943 55.145014 
L 1076.654457 55.145014 
L 1076.734564 54.296767 
L 1077.166568 54.296767 
L 1077.26384 53.872643 
L 1077.695844 53.872643 
L 1077.698705 53.44852 
L 1083.47783 53.44852 
L 1083.549354 52.600273 
L 1083.603712 52.600273 
L 1083.65807 51.752026 
L 1083.71815 51.752026 
L 1083.783952 50.903779 
L 1083.835449 50.903779 
L 1083.901251 50.055533 
L 1083.961331 50.055533 
L 1084.027133 49.207286 
L 1084.084352 49.207286 
L 1084.121545 48.783162 
L 1084.273175 48.783162 
L 1084.344699 48.359039 
L 1096.437948 48.359039 
L 1096.689712 47.934915 
L 1097.364896 47.934915 
L 1097.442142 47.510792 
L 1097.610938 46.662545 
L 1097.685323 46.662545 
L 1097.688184 46.238422 
L 1101.00689 46.238422 
L 1101.081275 45.390175 
L 1101.152798 45.390175 
L 1101.235766 44.541928 
L 1101.301568 44.541928 
L 1101.373092 43.693681 
L 1101.430311 43.693681 
L 1101.501835 42.845434 
L 1101.564776 42.845434 
L 1101.567637 42.421311 
L 1109.44384 42.421311 
L 1114.507727 41.997187 
L 1114.507727 41.997187 
" clip-path="url(#p7aacc3f98a)" style="fill: none; stroke: #0000ff; stroke-width: 1.5; stroke-linecap: square"/>
   </g>
   <g id="patch_109">
    <path d="M 49.235 359.517187 
L 49.235 26.877187 
" style="fill: none; stroke: #000000; stroke-width: 0.8; stroke-linejoin: miter; stroke-linecap: square"/>
   </g>
   <g id="patch_110">
    <path d="M 1165.235 359.517187 
L 1165.235 26.877187 
" style="fill: none; stroke: #000000; stroke-width: 0.8; stroke-linejoin: miter; stroke-linecap: square"/>
   </g>
   <g id="patch_111">
    <path d="M 49.235 359.517187 
L 1165.235 359.517187 
" style="fill: none; stroke: #000000; stroke-width: 0.8; stroke-linejoin: miter; stroke-linecap: square"/>
   </g>
   <g id="patch_112">
    <path d="M 49.235 26.877187 
L 1165.235 26.877187 
" style="fill: none; stroke: #000000; stroke-width: 0.8; stroke-linejoin: miter; stroke-linecap: square"/>
   </g>
   <g id="text_20">
    <!-- Pellet Count and Cumulative Sum Over Time of Group 11 Mouse 1 -->
    <g transform="translate(309.734375 20.877187) scale(0.18 -0.18)">
     <defs>
      <path id="DejaVuSans-61" d="M 2194 1759 
Q 1497 1759 1228 1600 
Q 959 1441 959 1056 
Q 959 750 1161 570 
Q 1363 391 1709 391 
Q 2188 391 2477 730 
Q 2766 1069 2766 1631 
L 2766 1759 
L 2194 1759 
z
M 3341 1997 
L 3341 0 
L 2766 0 
L 2766 531 
Q 2569 213 2275 61 
Q 1981 -91 1556 -91 
Q 1019 -91 701 211 
Q 384 513 384 1019 
Q 384 1609 779 1909 
Q 1175 2209 1959 2209 
L 2766 2209 
L 2766 2266 
Q 2766 2663 2505 2880 
Q 2244 3097 1772 3097 
Q 1472 3097 1187 3025 
Q 903 2953 641 2809 
L 641 3341 
Q 956 3463 1253 3523 
Q 1550 3584 1831 3584 
Q 2591 3584 2966 3190 
Q 3341 2797 3341 1997 
z
" transform="scale(0.015625)"/>
      <path id="DejaVuSans-64" d="M 2906 2969 
L 2906 4863 
L 3481 4863 
L 3481 0 
L 2906 0 
L 2906 525 
Q 2725 213 2448 61 
Q 2172 -91 1784 -91 
Q 1150 -91 751 415 
Q 353 922 353 1747 
Q 353 2572 751 3078 
Q 1150 3584 1784 3584 
Q 2172 3584 2448 3432 
Q 2725 3281 2906 2969 
z
M 947 1747 
Q 947 1113 1208 752 
Q 1469 391 1925 391 
Q 2381 391 2643 752 
Q 2906 1113 2906 1747 
Q 2906 2381 2643 2742 
Q 2381 3103 1925 3103 
Q 1469 3103 1208 2742 
Q 947 2381 947 1747 
z
" transform="scale(0.015625)"/>
      <path id="DejaVuSans-76" d="M 191 3500 
L 800 3500 
L 1894 563 
L 2988 3500 
L 3597 3500 
L 2284 0 
L 1503 0 
L 191 3500 
z
" transform="scale(0.015625)"/>
      <path id="DejaVuSans-53" d="M 3425 4513 
L 3425 3897 
Q 3066 4069 2747 4153 
Q 2428 4238 2131 4238 
Q 1616 4238 1336 4038 
Q 1056 3838 1056 3469 
Q 1056 3159 1242 3001 
Q 1428 2844 1947 2747 
L 2328 2669 
Q 3034 2534 3370 2195 
Q 3706 1856 3706 1288 
Q 3706 609 3251 259 
Q 2797 -91 1919 -91 
Q 1588 -91 1214 -16 
Q 841 59 441 206 
L 441 856 
Q 825 641 1194 531 
Q 1563 422 1919 422 
Q 2459 422 2753 634 
Q 3047 847 3047 1241 
Q 3047 1584 2836 1778 
Q 2625 1972 2144 2069 
L 1759 2144 
Q 1053 2284 737 2584 
Q 422 2884 422 3419 
Q 422 4038 858 4394 
Q 1294 4750 2059 4750 
Q 2388 4750 2728 4690 
Q 3069 4631 3425 4513 
z
" transform="scale(0.015625)"/>
      <path id="DejaVuSans-4f" d="M 2522 4238 
Q 1834 4238 1429 3725 
Q 1025 3213 1025 2328 
Q 1025 1447 1429 934 
Q 1834 422 2522 422 
Q 3209 422 3611 934 
Q 4013 1447 4013 2328 
Q 4013 3213 3611 3725 
Q 3209 4238 2522 4238 
z
M 2522 4750 
Q 3503 4750 4090 4092 
Q 4678 3434 4678 2328 
Q 4678 1225 4090 567 
Q 3503 -91 2522 -91 
Q 1538 -91 948 565 
Q 359 1222 359 2328 
Q 359 3434 948 4092 
Q 1538 4750 2522 4750 
z
" transform="scale(0.015625)"/>
      <path id="DejaVuSans-72" d="M 2631 2963 
Q 2534 3019 2420 3045 
Q 2306 3072 2169 3072 
Q 1681 3072 1420 2755 
Q 1159 2438 1159 1844 
L 1159 0 
L 581 0 
L 581 3500 
L 1159 3500 
L 1159 2956 
Q 1341 3275 1631 3429 
Q 1922 3584 2338 3584 
Q 2397 3584 2469 3576 
Q 2541 3569 2628 3553 
L 2631 2963 
z
" transform="scale(0.015625)"/>
      <path id="DejaVuSans-66" d="M 2375 4863 
L 2375 4384 
L 1825 4384 
Q 1516 4384 1395 4259 
Q 1275 4134 1275 3809 
L 1275 3500 
L 2222 3500 
L 2222 3053 
L 1275 3053 
L 1275 0 
L 697 0 
L 697 3053 
L 147 3053 
L 147 3500 
L 697 3500 
L 697 3744 
Q 697 4328 969 4595 
Q 1241 4863 1831 4863 
L 2375 4863 
z
" transform="scale(0.015625)"/>
      <path id="DejaVuSans-47" d="M 3809 666 
L 3809 1919 
L 2778 1919 
L 2778 2438 
L 4434 2438 
L 4434 434 
Q 4069 175 3628 42 
Q 3188 -91 2688 -91 
Q 1594 -91 976 548 
Q 359 1188 359 2328 
Q 359 3472 976 4111 
Q 1594 4750 2688 4750 
Q 3144 4750 3555 4637 
Q 3966 4525 4313 4306 
L 4313 3634 
Q 3963 3931 3569 4081 
Q 3175 4231 2741 4231 
Q 1884 4231 1454 3753 
Q 1025 3275 1025 2328 
Q 1025 1384 1454 906 
Q 1884 428 2741 428 
Q 3075 428 3337 486 
Q 3600 544 3809 666 
z
" transform="scale(0.015625)"/>
      <path id="DejaVuSans-70" d="M 1159 525 
L 1159 -1331 
L 581 -1331 
L 581 3500 
L 1159 3500 
L 1159 2969 
Q 1341 3281 1617 3432 
Q 1894 3584 2278 3584 
Q 2916 3584 3314 3078 
Q 3713 2572 3713 1747 
Q 3713 922 3314 415 
Q 2916 -91 2278 -91 
Q 1894 -91 1617 61 
Q 1341 213 1159 525 
z
M 3116 1747 
Q 3116 2381 2855 2742 
Q 2594 3103 2138 3103 
Q 1681 3103 1420 2742 
Q 1159 2381 1159 1747 
Q 1159 1113 1420 752 
Q 1681 391 2138 391 
Q 2594 391 2855 752 
Q 3116 1113 3116 1747 
z
" transform="scale(0.015625)"/>
      <path id="DejaVuSans-4d" d="M 628 4666 
L 1569 4666 
L 2759 1491 
L 3956 4666 
L 4897 4666 
L 4897 0 
L 4281 0 
L 4281 4097 
L 3078 897 
L 2444 897 
L 1241 4097 
L 1241 0 
L 628 0 
L 628 4666 
z
" transform="scale(0.015625)"/>
      <path id="DejaVuSans-73" d="M 2834 3397 
L 2834 2853 
Q 2591 2978 2328 3040 
Q 2066 3103 1784 3103 
Q 1356 3103 1142 2972 
Q 928 2841 928 2578 
Q 928 2378 1081 2264 
Q 1234 2150 1697 2047 
L 1894 2003 
Q 2506 1872 2764 1633 
Q 3022 1394 3022 966 
Q 3022 478 2636 193 
Q 2250 -91 1575 -91 
Q 1294 -91 989 -36 
Q 684 19 347 128 
L 347 722 
Q 666 556 975 473 
Q 1284 391 1588 391 
Q 1994 391 2212 530 
Q 2431 669 2431 922 
Q 2431 1156 2273 1281 
Q 2116 1406 1581 1522 
L 1381 1569 
Q 847 1681 609 1914 
Q 372 2147 372 2553 
Q 372 3047 722 3315 
Q 1072 3584 1716 3584 
Q 2034 3584 2315 3537 
Q 2597 3491 2834 3397 
z
" transform="scale(0.015625)"/>
     </defs>
     <use xlink:href="#DejaVuSans-50"/>
     <use xlink:href="#DejaVuSans-65" x="56.677734"/>
     <use xlink:href="#DejaVuSans-6c" x="118.201172"/>
     <use xlink:href="#DejaVuSans-6c" x="145.984375"/>
     <use xlink:href="#DejaVuSans-65" x="173.767578"/>
     <use xlink:href="#DejaVuSans-74" x="235.291016"/>
     <use xlink:href="#DejaVuSans-20" x="274.5"/>
     <use xlink:href="#DejaVuSans-43" x="306.287109"/>
     <use xlink:href="#DejaVuSans-6f" x="376.111328"/>
     <use xlink:href="#DejaVuSans-75" x="437.292969"/>
     <use xlink:href="#DejaVuSans-6e" x="500.671875"/>
     <use xlink:href="#DejaVuSans-74" x="564.050781"/>
     <use xlink:href="#DejaVuSans-20" x="603.259766"/>
     <use xlink:href="#DejaVuSans-61" x="635.046875"/>
     <use xlink:href="#DejaVuSans-6e" x="696.326172"/>
     <use xlink:href="#DejaVuSans-64" x="759.705078"/>
     <use xlink:href="#DejaVuSans-20" x="823.181641"/>
     <use xlink:href="#DejaVuSans-43" x="854.96875"/>
     <use xlink:href="#DejaVuSans-75" x="924.792969"/>
     <use xlink:href="#DejaVuSans-6d" x="988.171875"/>
     <use xlink:href="#DejaVuSans-75" x="1085.583984"/>
     <use xlink:href="#DejaVuSans-6c" x="1148.962891"/>
     <use xlink:href="#DejaVuSans-61" x="1176.746094"/>
     <use xlink:href="#DejaVuSans-74" x="1238.025391"/>
     <use xlink:href="#DejaVuSans-69" x="1277.234375"/>
     <use xlink:href="#DejaVuSans-76" x="1305.017578"/>
     <use xlink:href="#DejaVuSans-65" x="1364.197266"/>
     <use xlink:href="#DejaVuSans-20" x="1425.720703"/>
     <use xlink:href="#DejaVuSans-53" x="1457.507812"/>
     <use xlink:href="#DejaVuSans-75" x="1520.984375"/>
     <use xlink:href="#DejaVuSans-6d" x="1584.363281"/>
     <use xlink:href="#DejaVuSans-20" x="1681.775391"/>
     <use xlink:href="#DejaVuSans-4f" x="1713.5625"/>
     <use xlink:href="#DejaVuSans-76" x="1792.273438"/>
     <use xlink:href="#DejaVuSans-65" x="1851.453125"/>
     <use xlink:href="#DejaVuSans-72" x="1912.976562"/>
     <use xlink:href="#DejaVuSans-20" x="1954.089844"/>
     <use xlink:href="#DejaVuSans-54" x="1985.876953"/>
     <use xlink:href="#DejaVuSans-69" x="2043.835938"/>
     <use xlink:href="#DejaVuSans-6d" x="2071.619141"/>
     <use xlink:href="#DejaVuSans-65" x="2169.03125"/>
     <use xlink:href="#DejaVuSans-20" x="2230.554688"/>
     <use xlink:href="#DejaVuSans-6f" x="2262.341797"/>
     <use xlink:href="#DejaVuSans-66" x="2323.523438"/>
     <use xlink:href="#DejaVuSans-20" x="2358.728516"/>
     <use xlink:href="#DejaVuSans-47" x="2390.515625"/>
     <use xlink:href="#DejaVuSans-72" x="2468.005859"/>
     <use xlink:href="#DejaVuSans-6f" x="2506.869141"/>
     <use xlink:href="#DejaVuSans-75" x="2568.050781"/>
     <use xlink:href="#DejaVuSans-70" x="2631.429688"/>
     <use xlink:href="#DejaVuSans-20" x="2694.90625"/>
     <use xlink:href="#DejaVuSans-31" x="2726.693359"/>
     <use xlink:href="#DejaVuSans-31" x="2790.316406"/>
     <use xlink:href="#DejaVuSans-20" x="2853.939453"/>
     <use xlink:href="#DejaVuSans-4d" x="2885.726562"/>
     <use xlink:href="#DejaVuSans-6f" x="2972.005859"/>
     <use xlink:href="#DejaVuSans-75" x="3033.1875"/>
     <use xlink:href="#DejaVuSans-73" x="3096.566406"/>
     <use xlink:href="#DejaVuSans-65" x="3148.666016"/>
     <use xlink:href="#DejaVuSans-20" x="3210.189453"/>
     <use xlink:href="#DejaVuSans-31" x="3241.976562"/>
    </g>
   </g>
   <g id="legend_1">
    <g id="patch_113">
     <path d="M 1086.550625 64.233437 
L 1158.235 64.233437 
Q 1160.235 64.233437 1160.235 62.233437 
L 1160.235 33.877187 
Q 1160.235 31.877187 1158.235 31.877187 
L 1086.550625 31.877187 
Q 1084.550625 31.877187 1084.550625 33.877187 
L 1084.550625 62.233437 
Q 1084.550625 64.233437 1086.550625 64.233437 
z
" style="fill: #ffffff; opacity: 0.8; stroke: #cccccc; stroke-linejoin: miter"/>
    </g>
    <g id="patch_114">
     <path d="M 1088.550625 43.475625 
L 1108.550625 43.475625 
L 1108.550625 36.475625 
L 1088.550625 36.475625 
z
" style="fill: #add8e6; opacity: 0.9; stroke: #add8e6; stroke-linejoin: miter"/>
    </g>
    <g id="text_21">
     <!-- Meal -->
     <g transform="translate(1116.550625 43.475625) scale(0.1 -0.1)">
      <use xlink:href="#DejaVuSans-4d"/>
      <use xlink:href="#DejaVuSans-65" x="86.279297"/>
      <use xlink:href="#DejaVuSans-61" x="147.802734"/>
      <use xlink:href="#DejaVuSans-6c" x="209.082031"/>
     </g>
    </g>
    <g id="patch_115">
     <path d="M 1088.550625 58.15375 
L 1108.550625 58.15375 
L 1108.550625 51.15375 
L 1088.550625 51.15375 
z
" style="fill: #808080; opacity: 0.5; stroke: #808080; stroke-linejoin: miter"/>
    </g>
    <g id="text_22">
     <!-- Inactive -->
     <g transform="translate(1116.550625 58.15375) scale(0.1 -0.1)">
      <defs>
       <path id="DejaVuSans-49" d="M 628 4666 
L 1259 4666 
L 1259 0 
L 628 0 
L 628 4666 
z
" transform="scale(0.015625)"/>
       <path id="DejaVuSans-63" d="M 3122 3366 
L 3122 2828 
Q 2878 2963 2633 3030 
Q 2388 3097 2138 3097 
Q 1578 3097 1268 2742 
Q 959 2388 959 1747 
Q 959 1106 1268 751 
Q 1578 397 2138 397 
Q 2388 397 2633 464 
Q 2878 531 3122 666 
L 3122 134 
Q 2881 22 2623 -34 
Q 2366 -91 2075 -91 
Q 1284 -91 818 406 
Q 353 903 353 1747 
Q 353 2603 823 3093 
Q 1294 3584 2113 3584 
Q 2378 3584 2631 3529 
Q 2884 3475 3122 3366 
z
" transform="scale(0.015625)"/>
      </defs>
      <use xlink:href="#DejaVuSans-49"/>
      <use xlink:href="#DejaVuSans-6e" x="29.492188"/>
      <use xlink:href="#DejaVuSans-61" x="92.871094"/>
      <use xlink:href="#DejaVuSans-63" x="154.150391"/>
      <use xlink:href="#DejaVuSans-74" x="209.130859"/>
      <use xlink:href="#DejaVuSans-69" x="248.339844"/>
      <use xlink:href="#DejaVuSans-76" x="276.123047"/>
      <use xlink:href="#DejaVuSans-65" x="335.302734"/>
     </g>
    </g>
   </g>
  </g>
 </g>
 <defs>
  <clipPath id="p7aacc3f98a">
   <rect x="49.235" y="26.877187" width="1116" height="332.64"/>
  </clipPath>
 </defs>
</svg>
