<?xml version="1.0" encoding="utf-8" standalone="no"?>
<!DOCTYPE svg PUBLIC "-//W3C//DTD SVG 1.1//EN"
  "http://www.w3.org/Graphics/SVG/1.1/DTD/svg11.dtd">
<svg xmlns:xlink="http://www.w3.org/1999/xlink" width="1172.435pt" height="399.009062pt" viewBox="0 0 1172.435 399.009062" xmlns="http://www.w3.org/2000/svg" version="1.1">
 <metadata>
  <rdf:RDF xmlns:dc="http://purl.org/dc/elements/1.1/" xmlns:cc="http://creativecommons.org/ns#" xmlns:rdf="http://www.w3.org/1999/02/22-rdf-syntax-ns#">
   <cc:Work>
    <dc:type rdf:resource="http://purl.org/dc/dcmitype/StillImage"/>
    <dc:date>2025-05-09T15:21:13.236057</dc:date>
    <dc:format>image/svg+xml</dc:format>
    <dc:creator>
     <cc:Agent>
      <dc:title>Matplotlib v3.8.3, https://matplotlib.org/</dc:title>
     </cc:Agent>
    </dc:creator>
   </cc:Work>
  </rdf:RDF>
 </metadata>
 <defs>
  <style type="text/css">*{stroke-linejoin: round; stroke-linecap: butt}</style>
 </defs>
 <g id="figure_1">
  <g id="patch_1">
   <path d="M 0 399.009062 
L 1172.435 399.009062 
L 1172.435 0 
L 0 0 
z
" style="fill: #ffffff"/>
  </g>
  <g id="axes_1">
   <g id="patch_2">
    <path d="M 49.235 359.517187 
L 1165.235 359.517187 
L 1165.235 26.877187 
L 49.235 26.877187 
z
" style="fill: #ffffff"/>
   </g>
   <g id="patch_3">
    <path d="M 100.234988 359.517187 
L 100.234988 26.877187 
L 100.234988 26.877187 
z
" clip-path="url(#pe4bd6cd9f0)" style="fill: #add8e6; stroke: #add8e6; stroke-linejoin: miter"/>
   </g>
   <g id="patch_4">
    <path d="M 105.229548 359.517187 
L 105.229548 26.877187 
L 105.354036 26.877187 
L 105.354036 359.517187 
z
" clip-path="url(#pe4bd6cd9f0)" style="fill: #add8e6; stroke: #add8e6; stroke-linejoin: miter"/>
   </g>
   <g id="patch_5">
    <path d="M 106.256137 359.517187 
L 106.256137 26.877187 
L 106.301879 26.877187 
L 106.301879 359.517187 
z
" clip-path="url(#pe4bd6cd9f0)" style="fill: #add8e6; stroke: #add8e6; stroke-linejoin: miter"/>
   </g>
   <g id="patch_6">
    <path d="M 118.362127 359.517187 
L 118.362127 26.877187 
L 118.236482 26.877187 
L 118.236482 359.517187 
z
" clip-path="url(#pe4bd6cd9f0)" style="fill: #add8e6; stroke: #add8e6; stroke-linejoin: miter"/>
   </g>
   <g id="patch_7">
    <path d="M 120.979263 359.517187 
L 120.979263 26.877187 
L 120.847248 26.877187 
L 120.847248 359.517187 
z
" clip-path="url(#pe4bd6cd9f0)" style="fill: #add8e6; stroke: #add8e6; stroke-linejoin: miter"/>
   </g>
   <g id="patch_8">
    <path d="M 121.290193 359.517187 
L 121.290193 26.877187 
L 121.286719 26.877187 
L 121.286719 359.517187 
z
" clip-path="url(#pe4bd6cd9f0)" style="fill: #add8e6; stroke: #add8e6; stroke-linejoin: miter"/>
   </g>
   <g id="patch_9">
    <path d="M 131.450702 359.517187 
L 131.450702 26.877187 
L 131.520762 26.877187 
L 131.520762 359.517187 
z
" clip-path="url(#pe4bd6cd9f0)" style="fill: #add8e6; stroke: #add8e6; stroke-linejoin: miter"/>
   </g>
   <g id="patch_10">
    <path d="M 143.285714 359.517187 
L 143.285714 26.877187 
L 143.400359 26.877187 
L 143.400359 359.517187 
z
" clip-path="url(#pe4bd6cd9f0)" style="fill: #add8e6; stroke: #add8e6; stroke-linejoin: miter"/>
   </g>
   <g id="patch_11">
    <path d="M 143.533532 359.517187 
L 143.533532 26.877187 
L 143.679443 26.877187 
L 143.679443 359.517187 
z
" clip-path="url(#pe4bd6cd9f0)" style="fill: #add8e6; stroke: #add8e6; stroke-linejoin: miter"/>
   </g>
   <g id="patch_12">
    <path d="M 154.48555 359.517187 
L 154.48555 26.877187 
L 154.56198 26.877187 
L 154.56198 359.517187 
z
" clip-path="url(#pe4bd6cd9f0)" style="fill: #add8e6; stroke: #add8e6; stroke-linejoin: miter"/>
   </g>
   <g id="patch_13">
    <path d="M 164.866663 359.517187 
L 164.866663 26.877187 
L 164.943093 26.877187 
L 164.943093 359.517187 
z
" clip-path="url(#pe4bd6cd9f0)" style="fill: #add8e6; stroke: #add8e6; stroke-linejoin: miter"/>
   </g>
   <g id="patch_14">
    <path d="M 165.053684 359.517187 
L 165.053684 26.877187 
L 165.146905 26.877187 
L 165.146905 359.517187 
z
" clip-path="url(#pe4bd6cd9f0)" style="fill: #add8e6; stroke: #add8e6; stroke-linejoin: miter"/>
   </g>
   <g id="patch_15">
    <path d="M 172.784078 359.517187 
L 172.784078 26.877187 
L 172.497467 26.877187 
L 172.497467 359.517187 
z
" clip-path="url(#pe4bd6cd9f0)" style="fill: #add8e6; stroke: #add8e6; stroke-linejoin: miter"/>
   </g>
   <g id="patch_16">
    <path d="M 177.409808 359.517187 
L 177.409808 26.877187 
L 177.499555 26.877187 
L 177.499555 359.517187 
z
" clip-path="url(#pe4bd6cd9f0)" style="fill: #add8e6; stroke: #add8e6; stroke-linejoin: miter"/>
   </g>
   <g id="patch_17">
    <path d="M 181.889626 359.517187 
L 181.889626 26.877187 
L 182.047697 26.877187 
L 182.047697 359.517187 
z
" clip-path="url(#pe4bd6cd9f0)" style="fill: #add8e6; stroke: #add8e6; stroke-linejoin: miter"/>
   </g>
   <g id="patch_18">
    <path d="M 185.405389 359.517187 
L 185.405389 26.877187 
L 185.569829 26.877187 
L 185.569829 359.517187 
z
" clip-path="url(#pe4bd6cd9f0)" style="fill: #add8e6; stroke: #add8e6; stroke-linejoin: miter"/>
   </g>
   <g id="patch_19">
    <path d="M 185.614992 359.517187 
L 185.614992 26.877187 
L 185.748165 26.877187 
L 185.748165 359.517187 
z
" clip-path="url(#pe4bd6cd9f0)" style="fill: #add8e6; stroke: #add8e6; stroke-linejoin: miter"/>
   </g>
   <g id="patch_20">
    <path d="M 193.862444 359.517187 
L 193.862444 26.877187 
L 193.868234 26.877187 
L 193.868234 359.517187 
z
" clip-path="url(#pe4bd6cd9f0)" style="fill: #add8e6; stroke: #add8e6; stroke-linejoin: miter"/>
   </g>
   <g id="patch_21">
    <path d="M 213.933328 359.517187 
L 213.933328 26.877187 
L 214.074028 26.877187 
L 214.074028 359.517187 
z
" clip-path="url(#pe4bd6cd9f0)" style="fill: #add8e6; stroke: #add8e6; stroke-linejoin: miter"/>
   </g>
   <g id="patch_22">
    <path d="M 238.470714 359.517187 
L 238.470714 26.877187 
L 238.495612 26.877187 
L 238.495612 359.517187 
z
" clip-path="url(#pe4bd6cd9f0)" style="fill: #add8e6; stroke: #add8e6; stroke-linejoin: miter"/>
   </g>
   <g id="patch_23">
    <path d="M 262.546627 359.517187 
L 262.546627 26.877187 
L 262.636374 26.877187 
L 262.636374 359.517187 
z
" clip-path="url(#pe4bd6cd9f0)" style="fill: #add8e6; stroke: #add8e6; stroke-linejoin: miter"/>
   </g>
   <g id="patch_24">
    <path d="M 284.80502 359.517187 
L 284.80502 26.877187 
L 284.907505 26.877187 
L 284.907505 359.517187 
z
" clip-path="url(#pe4bd6cd9f0)" style="fill: #add8e6; stroke: #add8e6; stroke-linejoin: miter"/>
   </g>
   <g id="patch_25">
    <path d="M 301.586535 359.517187 
L 301.586535 26.877187 
L 301.719708 26.877187 
L 301.719708 359.517187 
z
" clip-path="url(#pe4bd6cd9f0)" style="fill: #add8e6; stroke: #add8e6; stroke-linejoin: miter"/>
   </g>
   <g id="patch_26">
    <path d="M 302.009793 359.517187 
L 302.009793 26.877187 
L 302.116911 26.877187 
L 302.116911 359.517187 
z
" clip-path="url(#pe4bd6cd9f0)" style="fill: #add8e6; stroke: #add8e6; stroke-linejoin: miter"/>
   </g>
   <g id="patch_27">
    <path d="M 320.25621 359.517187 
L 320.25621 26.877187 
L 319.862481 26.877187 
L 319.862481 359.517187 
z
" clip-path="url(#pe4bd6cd9f0)" style="fill: #add8e6; stroke: #add8e6; stroke-linejoin: miter"/>
   </g>
   <g id="patch_28">
    <path d="M 333.068016 359.517187 
L 333.068016 26.877187 
L 333.048909 26.877187 
L 333.048909 359.517187 
z
" clip-path="url(#pe4bd6cd9f0)" style="fill: #add8e6; stroke: #add8e6; stroke-linejoin: miter"/>
   </g>
   <g id="patch_29">
    <path d="M 335.015814 359.517187 
L 335.015814 26.877187 
L 335.047659 26.877187 
L 335.047659 359.517187 
z
" clip-path="url(#pe4bd6cd9f0)" style="fill: #add8e6; stroke: #add8e6; stroke-linejoin: miter"/>
   </g>
   <g id="patch_30">
    <path d="M 340.369941 359.517187 
L 340.369941 26.877187 
L 340.435369 26.877187 
L 340.435369 359.517187 
z
" clip-path="url(#pe4bd6cd9f0)" style="fill: #add8e6; stroke: #add8e6; stroke-linejoin: miter"/>
   </g>
   <g id="patch_31">
    <path d="M 340.973272 359.517187 
L 340.973272 26.877187 
L 341.052018 26.877187 
L 341.052018 359.517187 
z
" clip-path="url(#pe4bd6cd9f0)" style="fill: #add8e6; stroke: #add8e6; stroke-linejoin: miter"/>
   </g>
   <g id="patch_32">
    <path d="M 344.563149 359.517187 
L 344.563149 26.877187 
L 344.654053 26.877187 
L 344.654053 359.517187 
z
" clip-path="url(#pe4bd6cd9f0)" style="fill: #add8e6; stroke: #add8e6; stroke-linejoin: miter"/>
   </g>
   <g id="patch_33">
    <path d="M 344.819651 359.517187 
L 344.819651 26.877187 
L 344.92561 26.877187 
L 344.92561 359.517187 
z
" clip-path="url(#pe4bd6cd9f0)" style="fill: #add8e6; stroke: #add8e6; stroke-linejoin: miter"/>
   </g>
   <g id="patch_34">
    <path d="M 348.18545 359.517187 
L 348.18545 26.877187 
L 348.305305 26.877187 
L 348.305305 359.517187 
z
" clip-path="url(#pe4bd6cd9f0)" style="fill: #add8e6; stroke: #add8e6; stroke-linejoin: miter"/>
   </g>
   <g id="patch_35">
    <path d="M 352.159212 359.517187 
L 352.159212 26.877187 
L 352.286015 26.877187 
L 352.286015 359.517187 
z
" clip-path="url(#pe4bd6cd9f0)" style="fill: #add8e6; stroke: #add8e6; stroke-linejoin: miter"/>
   </g>
   <g id="patch_36">
    <path d="M 370.002056 359.517187 
L 370.002056 26.877187 
L 370.099331 26.877187 
L 370.099331 359.517187 
z
" clip-path="url(#pe4bd6cd9f0)" style="fill: #add8e6; stroke: #add8e6; stroke-linejoin: miter"/>
   </g>
   <g id="patch_37">
    <path d="M 374.711164 359.517187 
L 374.711164 26.877187 
L 370.475689 26.877187 
L 370.475689 359.517187 
z
" clip-path="url(#pe4bd6cd9f0)" style="fill: #add8e6; stroke: #add8e6; stroke-linejoin: miter"/>
   </g>
   <g id="patch_38">
    <path d="M 391.496732 359.517187 
L 391.496732 26.877187 
L 391.613114 26.877187 
L 391.613114 359.517187 
z
" clip-path="url(#pe4bd6cd9f0)" style="fill: #add8e6; stroke: #add8e6; stroke-linejoin: miter"/>
   </g>
   <g id="patch_39">
    <path d="M 391.673331 359.517187 
L 391.673331 26.877187 
L 391.784501 26.877187 
L 391.784501 359.517187 
z
" clip-path="url(#pe4bd6cd9f0)" style="fill: #add8e6; stroke: #add8e6; stroke-linejoin: miter"/>
   </g>
   <g id="patch_40">
    <path d="M 408.99217 359.517187 
L 408.99217 26.877187 
L 408.994486 26.877187 
L 408.994486 359.517187 
z
" clip-path="url(#pe4bd6cd9f0)" style="fill: #add8e6; stroke: #add8e6; stroke-linejoin: miter"/>
   </g>
   <g id="patch_41">
    <path d="M 433.662728 359.517187 
L 433.662728 26.877187 
L 433.82601 26.877187 
L 433.82601 359.517187 
z
" clip-path="url(#pe4bd6cd9f0)" style="fill: #add8e6; stroke: #add8e6; stroke-linejoin: miter"/>
   </g>
   <g id="patch_42">
    <path d="M 461.391051 359.517187 
L 461.391051 26.877187 
L 461.278723 26.877187 
L 461.278723 359.517187 
z
" clip-path="url(#pe4bd6cd9f0)" style="fill: #add8e6; stroke: #add8e6; stroke-linejoin: miter"/>
   </g>
   <g id="patch_43">
    <path d="M 480.202005 359.517187 
L 480.202005 26.877187 
L 480.359496 26.877187 
L 480.359496 359.517187 
z
" clip-path="url(#pe4bd6cd9f0)" style="fill: #add8e6; stroke: #add8e6; stroke-linejoin: miter"/>
   </g>
   <g id="patch_44">
    <path d="M 547.111515 359.517187 
L 547.111515 26.877187 
L 547.204157 26.877187 
L 547.204157 359.517187 
z
" clip-path="url(#pe4bd6cd9f0)" style="fill: #add8e6; stroke: #add8e6; stroke-linejoin: miter"/>
   </g>
   <g id="patch_45">
    <path d="M 559.560859 359.517187 
L 559.560859 26.877187 
L 559.681294 26.877187 
L 559.681294 359.517187 
z
" clip-path="url(#pe4bd6cd9f0)" style="fill: #add8e6; stroke: #add8e6; stroke-linejoin: miter"/>
   </g>
   <g id="patch_46">
    <path d="M 559.749617 359.517187 
L 559.749617 26.877187 
L 559.899003 26.877187 
L 559.899003 359.517187 
z
" clip-path="url(#pe4bd6cd9f0)" style="fill: #add8e6; stroke: #add8e6; stroke-linejoin: miter"/>
   </g>
   <g id="patch_47">
    <path d="M 560.029859 359.517187 
L 560.029859 26.877187 
L 560.153768 26.877187 
L 560.153768 359.517187 
z
" clip-path="url(#pe4bd6cd9f0)" style="fill: #add8e6; stroke: #add8e6; stroke-linejoin: miter"/>
   </g>
   <g id="patch_48">
    <path d="M 574.520223 359.517187 
L 574.520223 26.877187 
L 574.501115 26.877187 
L 574.501115 359.517187 
z
" clip-path="url(#pe4bd6cd9f0)" style="fill: #add8e6; stroke: #add8e6; stroke-linejoin: miter"/>
   </g>
   <g id="patch_49">
    <path d="M 577.141991 359.517187 
L 577.141991 26.877187 
L 577.168625 26.877187 
L 577.168625 359.517187 
z
" clip-path="url(#pe4bd6cd9f0)" style="fill: #add8e6; stroke: #add8e6; stroke-linejoin: miter"/>
   </g>
   <g id="patch_50">
    <path d="M 592.265214 359.517187 
L 592.265214 26.877187 
L 588.120065 26.877187 
L 588.120065 359.517187 
z
" clip-path="url(#pe4bd6cd9f0)" style="fill: #add8e6; stroke: #add8e6; stroke-linejoin: miter"/>
   </g>
   <g id="patch_51">
    <path d="M 594.520468 359.517187 
L 594.520468 26.877187 
L 593.832601 26.877187 
L 593.832601 359.517187 
z
" clip-path="url(#pe4bd6cd9f0)" style="fill: #add8e6; stroke: #add8e6; stroke-linejoin: miter"/>
   </g>
   <g id="patch_52">
    <path d="M 603.015737 359.517187 
L 603.015737 26.877187 
L 603.141962 26.877187 
L 603.141962 359.517187 
z
" clip-path="url(#pe4bd6cd9f0)" style="fill: #add8e6; stroke: #add8e6; stroke-linejoin: miter"/>
   </g>
   <g id="patch_53">
    <path d="M 603.460997 359.517187 
L 603.460997 26.877187 
L 603.396727 26.877187 
L 603.396727 359.517187 
z
" clip-path="url(#pe4bd6cd9f0)" style="fill: #add8e6; stroke: #add8e6; stroke-linejoin: miter"/>
   </g>
   <g id="patch_54">
    <path d="M 627.127549 359.517187 
L 627.127549 26.877187 
L 625.345349 26.877187 
L 625.345349 359.517187 
z
" clip-path="url(#pe4bd6cd9f0)" style="fill: #add8e6; stroke: #add8e6; stroke-linejoin: miter"/>
   </g>
   <g id="patch_55">
    <path d="M 627.718141 359.517187 
L 627.718141 26.877187 
L 627.22656 26.877187 
L 627.22656 359.517187 
z
" clip-path="url(#pe4bd6cd9f0)" style="fill: #add8e6; stroke: #add8e6; stroke-linejoin: miter"/>
   </g>
   <g id="patch_56">
    <path d="M 675.011292 359.517187 
L 675.011292 26.877187 
L 674.826587 26.877187 
L 674.826587 359.517187 
z
" clip-path="url(#pe4bd6cd9f0)" style="fill: #add8e6; stroke: #add8e6; stroke-linejoin: miter"/>
   </g>
   <g id="patch_57">
    <path d="M 681.221199 359.517187 
L 681.221199 26.877187 
L 681.357846 26.877187 
L 681.357846 359.517187 
z
" clip-path="url(#pe4bd6cd9f0)" style="fill: #add8e6; stroke: #add8e6; stroke-linejoin: miter"/>
   </g>
   <g id="patch_58">
    <path d="M 691.210899 359.517187 
L 691.210899 26.877187 
L 689.597771 26.877187 
L 689.597771 359.517187 
z
" clip-path="url(#pe4bd6cd9f0)" style="fill: #add8e6; stroke: #add8e6; stroke-linejoin: miter"/>
   </g>
   <g id="patch_59">
    <path d="M 701.331456 359.517187 
L 701.331456 26.877187 
L 701.410202 26.877187 
L 701.410202 359.517187 
z
" clip-path="url(#pe4bd6cd9f0)" style="fill: #add8e6; stroke: #add8e6; stroke-linejoin: miter"/>
   </g>
   <g id="patch_60">
    <path d="M 712.792427 359.517187 
L 712.792427 26.877187 
L 712.918073 26.877187 
L 712.918073 359.517187 
z
" clip-path="url(#pe4bd6cd9f0)" style="fill: #add8e6; stroke: #add8e6; stroke-linejoin: miter"/>
   </g>
   <g id="patch_61">
    <path d="M 712.990449 359.517187 
L 712.990449 26.877187 
L 713.106831 26.877187 
L 713.106831 359.517187 
z
" clip-path="url(#pe4bd6cd9f0)" style="fill: #add8e6; stroke: #add8e6; stroke-linejoin: miter"/>
   </g>
   <g id="patch_62">
    <path d="M 731.65086 359.517187 
L 731.65086 26.877187 
L 731.658966 26.877187 
L 731.658966 359.517187 
z
" clip-path="url(#pe4bd6cd9f0)" style="fill: #add8e6; stroke: #add8e6; stroke-linejoin: miter"/>
   </g>
   <g id="patch_63">
    <path d="M 731.863357 359.517187 
L 731.863357 26.877187 
L 731.965842 26.877187 
L 731.965842 359.517187 
z
" clip-path="url(#pe4bd6cd9f0)" style="fill: #add8e6; stroke: #add8e6; stroke-linejoin: miter"/>
   </g>
   <g id="patch_64">
    <path d="M 793.406581 359.517187 
L 793.406581 26.877187 
L 793.571599 26.877187 
L 793.571599 359.517187 
z
" clip-path="url(#pe4bd6cd9f0)" style="fill: #add8e6; stroke: #add8e6; stroke-linejoin: miter"/>
   </g>
   <g id="patch_65">
    <path d="M 793.755146 359.517187 
L 793.755146 26.877187 
L 793.859368 26.877187 
L 793.859368 359.517187 
z
" clip-path="url(#pe4bd6cd9f0)" style="fill: #add8e6; stroke: #add8e6; stroke-linejoin: miter"/>
   </g>
   <g id="patch_66">
    <path d="M 819.190001 359.517187 
L 819.190001 26.877187 
L 819.36081 26.877187 
L 819.36081 359.517187 
z
" clip-path="url(#pe4bd6cd9f0)" style="fill: #add8e6; stroke: #add8e6; stroke-linejoin: miter"/>
   </g>
   <g id="patch_67">
    <path d="M 827.417188 359.517187 
L 827.417188 26.877187 
L 827.578732 26.877187 
L 827.578732 359.517187 
z
" clip-path="url(#pe4bd6cd9f0)" style="fill: #add8e6; stroke: #add8e6; stroke-linejoin: miter"/>
   </g>
   <g id="patch_68">
    <path d="M 827.67948 359.517187 
L 827.67948 26.877187 
L 827.816706 26.877187 
L 827.816706 359.517187 
z
" clip-path="url(#pe4bd6cd9f0)" style="fill: #add8e6; stroke: #add8e6; stroke-linejoin: miter"/>
   </g>
   <g id="patch_69">
    <path d="M 828.055838 359.517187 
L 828.055838 26.877187 
L 828.126478 26.877187 
L 828.126478 359.517187 
z
" clip-path="url(#pe4bd6cd9f0)" style="fill: #add8e6; stroke: #add8e6; stroke-linejoin: miter"/>
   </g>
   <g id="patch_70">
    <path d="M 836.079212 359.517187 
L 836.079212 26.877187 
L 833.851752 26.877187 
L 833.851752 359.517187 
z
" clip-path="url(#pe4bd6cd9f0)" style="fill: #add8e6; stroke: #add8e6; stroke-linejoin: miter"/>
   </g>
   <g id="patch_71">
    <path d="M 838.428266 359.517187 
L 838.428266 26.877187 
L 838.567808 26.877187 
L 838.567808 359.517187 
z
" clip-path="url(#pe4bd6cd9f0)" style="fill: #add8e6; stroke: #add8e6; stroke-linejoin: miter"/>
   </g>
   <g id="patch_72">
    <path d="M 842.178529 359.517187 
L 842.178529 26.877187 
L 842.18953 26.877187 
L 842.18953 359.517187 
z
" clip-path="url(#pe4bd6cd9f0)" style="fill: #add8e6; stroke: #add8e6; stroke-linejoin: miter"/>
   </g>
   <g id="patch_73">
    <path d="M 860.772932 359.517187 
L 860.772932 26.877187 
L 860.90842 26.877187 
L 860.90842 359.517187 
z
" clip-path="url(#pe4bd6cd9f0)" style="fill: #add8e6; stroke: #add8e6; stroke-linejoin: miter"/>
   </g>
   <g id="patch_74">
    <path d="M 860.985429 359.517187 
L 860.985429 26.877187 
L 861.138288 26.877187 
L 861.138288 359.517187 
z
" clip-path="url(#pe4bd6cd9f0)" style="fill: #add8e6; stroke: #add8e6; stroke-linejoin: miter"/>
   </g>
   <g id="patch_75">
    <path d="M 861.18403 359.517187 
L 861.18403 26.877187 
L 861.263934 26.877187 
L 861.263934 359.517187 
z
" clip-path="url(#pe4bd6cd9f0)" style="fill: #add8e6; stroke: #add8e6; stroke-linejoin: miter"/>
   </g>
   <g id="patch_76">
    <path d="M 866.881512 359.517187 
L 866.881512 26.877187 
L 866.973575 26.877187 
L 866.973575 359.517187 
z
" clip-path="url(#pe4bd6cd9f0)" style="fill: #add8e6; stroke: #add8e6; stroke-linejoin: miter"/>
   </g>
   <g id="patch_77">
    <path d="M 877.307208 359.517187 
L 877.307208 26.877187 
L 877.169983 26.877187 
L 877.169983 359.517187 
z
" clip-path="url(#pe4bd6cd9f0)" style="fill: #add8e6; stroke: #add8e6; stroke-linejoin: miter"/>
   </g>
   <g id="patch_78">
    <path d="M 881.583794 359.517187 
L 881.583794 26.877187 
L 880.691536 26.877187 
L 880.691536 359.517187 
z
" clip-path="url(#pe4bd6cd9f0)" style="fill: #add8e6; stroke: #add8e6; stroke-linejoin: miter"/>
   </g>
   <g id="patch_79">
    <path d="M 884.975069 359.517187 
L 884.975069 26.877187 
L 880.107891 26.877187 
L 880.107891 359.517187 
z
" clip-path="url(#pe4bd6cd9f0)" style="fill: #add8e6; stroke: #add8e6; stroke-linejoin: miter"/>
   </g>
   <g id="patch_80">
    <path d="M 929.041384 359.517187 
L 929.041384 26.877187 
L 929.192506 26.877187 
L 929.192506 359.517187 
z
" clip-path="url(#pe4bd6cd9f0)" style="fill: #add8e6; stroke: #add8e6; stroke-linejoin: miter"/>
   </g>
   <g id="patch_81">
    <path d="M 929.332627 359.517187 
L 929.332627 26.877187 
L 929.462326 26.877187 
L 929.462326 359.517187 
z
" clip-path="url(#pe4bd6cd9f0)" style="fill: #add8e6; stroke: #add8e6; stroke-linejoin: miter"/>
   </g>
   <g id="patch_82">
    <path d="M 932.124045 359.517187 
L 932.124045 26.877187 
L 931.434442 26.877187 
L 931.434442 359.517187 
z
" clip-path="url(#pe4bd6cd9f0)" style="fill: #add8e6; stroke: #add8e6; stroke-linejoin: miter"/>
   </g>
   <g id="patch_83">
    <path d="M 948.34913 359.517187 
L 948.34913 26.877187 
L 938.622301 26.877187 
L 938.622301 359.517187 
z
" clip-path="url(#pe4bd6cd9f0)" style="fill: #add8e6; stroke: #add8e6; stroke-linejoin: miter"/>
   </g>
   <g id="patch_84">
    <path d="M 1055.104533 359.517187 
L 1055.104533 26.877187 
L 1045.600046 26.877187 
L 1045.600046 359.517187 
z
" clip-path="url(#pe4bd6cd9f0)" style="fill: #add8e6; stroke: #add8e6; stroke-linejoin: miter"/>
   </g>
   <g id="patch_85">
    <path d="M 1056.779037 359.517187 
L 1056.779037 26.877187 
L 1056.813199 26.877187 
L 1056.813199 359.517187 
z
" clip-path="url(#pe4bd6cd9f0)" style="fill: #add8e6; stroke: #add8e6; stroke-linejoin: miter"/>
   </g>
   <g id="patch_86">
    <path d="M 1067.130041 359.517187 
L 1067.130041 26.877187 
L 1067.202997 26.877187 
L 1067.202997 359.517187 
z
" clip-path="url(#pe4bd6cd9f0)" style="fill: #add8e6; stroke: #add8e6; stroke-linejoin: miter"/>
   </g>
   <g id="patch_87">
    <path d="M 1079.877577 359.517187 
L 1079.877577 26.877187 
L 1078.296873 26.877187 
L 1078.296873 359.517187 
z
" clip-path="url(#pe4bd6cd9f0)" style="fill: #add8e6; stroke: #add8e6; stroke-linejoin: miter"/>
   </g>
   <g id="patch_88">
    <path d="M 1083.361494 359.517187 
L 1083.361494 26.877187 
L 1083.280433 26.877187 
L 1083.280433 359.517187 
z
" clip-path="url(#pe4bd6cd9f0)" style="fill: #add8e6; stroke: #add8e6; stroke-linejoin: miter"/>
   </g>
   <g id="patch_89">
    <path d="M 1089.282475 359.517187 
L 1089.282475 26.877187 
L 1085.185383 26.877187 
L 1085.185383 359.517187 
z
" clip-path="url(#pe4bd6cd9f0)" style="fill: #add8e6; stroke: #add8e6; stroke-linejoin: miter"/>
   </g>
   <g id="patch_90">
    <path d="M 1096.765631 359.517187 
L 1096.765631 26.877187 
L 1096.850166 26.877187 
L 1096.850166 359.517187 
z
" clip-path="url(#pe4bd6cd9f0)" style="fill: #add8e6; stroke: #add8e6; stroke-linejoin: miter"/>
   </g>
   <g id="patch_91">
    <path d="M 1096.993182 359.517187 
L 1096.993182 26.877187 
L 1097.069033 26.877187 
L 1097.069033 359.517187 
z
" clip-path="url(#pe4bd6cd9f0)" style="fill: #add8e6; stroke: #add8e6; stroke-linejoin: miter"/>
   </g>
   <g id="patch_92">
    <path d="M 1109.824096 359.517187 
L 1109.824096 26.877187 
L 1105.075037 26.877187 
L 1105.075037 359.517187 
z
" clip-path="url(#pe4bd6cd9f0)" style="fill: #add8e6; stroke: #add8e6; stroke-linejoin: miter"/>
   </g>
   <g id="patch_93">
    <path d="M 1113.992985 359.517187 
L 1113.992985 26.877187 
L 1113.602731 26.877187 
L 1113.602731 359.517187 
z
" clip-path="url(#pe4bd6cd9f0)" style="fill: #add8e6; stroke: #add8e6; stroke-linejoin: miter"/>
   </g>
   <g id="patch_94">
    <path d="M 186.814127 359.517187 
L 186.814127 26.877187 
L 311.880796 26.877187 
L 311.880796 359.517187 
z
" clip-path="url(#pe4bd6cd9f0)" style="fill: #808080; opacity: 0.4; stroke: #808080; stroke-linejoin: miter"/>
   </g>
   <g id="patch_95">
    <path d="M 315.35487 26.877187 
L 315.35487 26.877187 
L 315.35487 359.517187 
" clip-path="url(#pe4bd6cd9f0)" style="fill: #808080; opacity: 0.4; stroke: #808080; stroke-linejoin: miter"/>
   </g>
   <g id="patch_96">
    <path d="M 318.828944 26.877187 
L 318.828944 26.877187 
L 318.828944 359.517187 
" clip-path="url(#pe4bd6cd9f0)" style="fill: #808080; opacity: 0.4; stroke: #808080; stroke-linejoin: miter"/>
   </g>
   <g id="patch_97">
    <path d="M 436.947465 359.517187 
L 436.947465 26.877187 
L 562.014135 26.877187 
L 562.014135 359.517187 
z
" clip-path="url(#pe4bd6cd9f0)" style="fill: #808080; opacity: 0.4; stroke: #808080; stroke-linejoin: miter"/>
   </g>
   <g id="patch_98">
    <path d="M 565.488209 26.877187 
L 565.488209 26.877187 
L 565.488209 359.517187 
" clip-path="url(#pe4bd6cd9f0)" style="fill: #808080; opacity: 0.4; stroke: #808080; stroke-linejoin: miter"/>
   </g>
   <g id="patch_99">
    <path d="M 568.962283 26.877187 
L 568.962283 26.877187 
L 568.962283 359.517187 
" clip-path="url(#pe4bd6cd9f0)" style="fill: #808080; opacity: 0.4; stroke: #808080; stroke-linejoin: miter"/>
   </g>
   <g id="patch_100">
    <path d="M 687.080804 359.517187 
L 687.080804 26.877187 
L 812.147474 26.877187 
L 812.147474 359.517187 
z
" clip-path="url(#pe4bd6cd9f0)" style="fill: #808080; opacity: 0.4; stroke: #808080; stroke-linejoin: miter"/>
   </g>
   <g id="patch_101">
    <path d="M 815.621548 26.877187 
L 815.621548 26.877187 
L 815.621548 359.517187 
" clip-path="url(#pe4bd6cd9f0)" style="fill: #808080; opacity: 0.4; stroke: #808080; stroke-linejoin: miter"/>
   </g>
   <g id="patch_102">
    <path d="M 819.095622 26.877187 
L 819.095622 26.877187 
L 819.095622 359.517187 
" clip-path="url(#pe4bd6cd9f0)" style="fill: #808080; opacity: 0.4; stroke: #808080; stroke-linejoin: miter"/>
   </g>
   <g id="patch_103">
    <path d="M 937.214143 359.517187 
L 937.214143 26.877187 
L 1062.280813 26.877187 
L 1062.280813 359.517187 
z
" clip-path="url(#pe4bd6cd9f0)" style="fill: #808080; opacity: 0.4; stroke: #808080; stroke-linejoin: miter"/>
   </g>
   <g id="patch_104">
    <path d="M 1065.754887 26.877187 
L 1065.754887 26.877187 
L 1065.754887 359.517187 
" clip-path="url(#pe4bd6cd9f0)" style="fill: #808080; opacity: 0.4; stroke: #808080; stroke-linejoin: miter"/>
   </g>
   <g id="patch_105">
    <path d="M 1069.228961 26.877187 
L 1069.228961 26.877187 
L 1069.228961 359.517187 
" clip-path="url(#pe4bd6cd9f0)" style="fill: #808080; opacity: 0.4; stroke: #808080; stroke-linejoin: miter"/>
   </g>
   <g id="matplotlib.axis_1">
    <g id="xtick_1">
     <g id="line2d_1">
      <defs>
       <path id="m487bd8f4a1" d="M 0 0 
L 0 3.5 
" style="stroke: #000000; stroke-width: 0.8"/>
      </defs>
      <g>
       <use xlink:href="#m487bd8f4a1" x="113.598014" y="359.517187" style="stroke: #000000; stroke-width: 0.8"/>
      </g>
     </g>
     <g id="text_1">
      <!-- 09-07 12 -->
      <g transform="translate(91.117545 374.115625) scale(0.1 -0.1)">
       <defs>
        <path id="DejaVuSans-30" d="M 2034 4250 
Q 1547 4250 1301 3770 
Q 1056 3291 1056 2328 
Q 1056 1369 1301 889 
Q 1547 409 2034 409 
Q 2525 409 2770 889 
Q 3016 1369 3016 2328 
Q 3016 3291 2770 3770 
Q 2525 4250 2034 4250 
z
M 2034 4750 
Q 2819 4750 3233 4129 
Q 3647 3509 3647 2328 
Q 3647 1150 3233 529 
Q 2819 -91 2034 -91 
Q 1250 -91 836 529 
Q 422 1150 422 2328 
Q 422 3509 836 4129 
Q 1250 4750 2034 4750 
z
" transform="scale(0.015625)"/>
        <path id="DejaVuSans-39" d="M 703 97 
L 703 672 
Q 941 559 1184 500 
Q 1428 441 1663 441 
Q 2288 441 2617 861 
Q 2947 1281 2994 2138 
Q 2813 1869 2534 1725 
Q 2256 1581 1919 1581 
Q 1219 1581 811 2004 
Q 403 2428 403 3163 
Q 403 3881 828 4315 
Q 1253 4750 1959 4750 
Q 2769 4750 3195 4129 
Q 3622 3509 3622 2328 
Q 3622 1225 3098 567 
Q 2575 -91 1691 -91 
Q 1453 -91 1209 -44 
Q 966 3 703 97 
z
M 1959 2075 
Q 2384 2075 2632 2365 
Q 2881 2656 2881 3163 
Q 2881 3666 2632 3958 
Q 2384 4250 1959 4250 
Q 1534 4250 1286 3958 
Q 1038 3666 1038 3163 
Q 1038 2656 1286 2365 
Q 1534 2075 1959 2075 
z
" transform="scale(0.015625)"/>
        <path id="DejaVuSans-2d" d="M 313 2009 
L 1997 2009 
L 1997 1497 
L 313 1497 
L 313 2009 
z
" transform="scale(0.015625)"/>
        <path id="DejaVuSans-37" d="M 525 4666 
L 3525 4666 
L 3525 4397 
L 1831 0 
L 1172 0 
L 2766 4134 
L 525 4134 
L 525 4666 
z
" transform="scale(0.015625)"/>
        <path id="DejaVuSans-20" transform="scale(0.015625)"/>
        <path id="DejaVuSans-31" d="M 794 531 
L 1825 531 
L 1825 4091 
L 703 3866 
L 703 4441 
L 1819 4666 
L 2450 4666 
L 2450 531 
L 3481 531 
L 3481 0 
L 794 0 
L 794 531 
z
" transform="scale(0.015625)"/>
        <path id="DejaVuSans-32" d="M 1228 531 
L 3431 531 
L 3431 0 
L 469 0 
L 469 531 
Q 828 903 1448 1529 
Q 2069 2156 2228 2338 
Q 2531 2678 2651 2914 
Q 2772 3150 2772 3378 
Q 2772 3750 2511 3984 
Q 2250 4219 1831 4219 
Q 1534 4219 1204 4116 
Q 875 4013 500 3803 
L 500 4441 
Q 881 4594 1212 4672 
Q 1544 4750 1819 4750 
Q 2544 4750 2975 4387 
Q 3406 4025 3406 3419 
Q 3406 3131 3298 2873 
Q 3191 2616 2906 2266 
Q 2828 2175 2409 1742 
Q 1991 1309 1228 531 
z
" transform="scale(0.015625)"/>
       </defs>
       <use xlink:href="#DejaVuSans-30"/>
       <use xlink:href="#DejaVuSans-39" x="63.623047"/>
       <use xlink:href="#DejaVuSans-2d" x="127.246094"/>
       <use xlink:href="#DejaVuSans-30" x="163.330078"/>
       <use xlink:href="#DejaVuSans-37" x="226.953125"/>
       <use xlink:href="#DejaVuSans-20" x="290.576172"/>
       <use xlink:href="#DejaVuSans-31" x="322.363281"/>
       <use xlink:href="#DejaVuSans-32" x="385.986328"/>
      </g>
     </g>
    </g>
    <g id="xtick_2">
     <g id="line2d_2">
      <g>
       <use xlink:href="#m487bd8f4a1" x="238.664683" y="359.517187" style="stroke: #000000; stroke-width: 0.8"/>
      </g>
     </g>
     <g id="text_2">
      <!-- 09-08 00 -->
      <g transform="translate(216.184214 374.115625) scale(0.1 -0.1)">
       <defs>
        <path id="DejaVuSans-38" d="M 2034 2216 
Q 1584 2216 1326 1975 
Q 1069 1734 1069 1313 
Q 1069 891 1326 650 
Q 1584 409 2034 409 
Q 2484 409 2743 651 
Q 3003 894 3003 1313 
Q 3003 1734 2745 1975 
Q 2488 2216 2034 2216 
z
M 1403 2484 
Q 997 2584 770 2862 
Q 544 3141 544 3541 
Q 544 4100 942 4425 
Q 1341 4750 2034 4750 
Q 2731 4750 3128 4425 
Q 3525 4100 3525 3541 
Q 3525 3141 3298 2862 
Q 3072 2584 2669 2484 
Q 3125 2378 3379 2068 
Q 3634 1759 3634 1313 
Q 3634 634 3220 271 
Q 2806 -91 2034 -91 
Q 1263 -91 848 271 
Q 434 634 434 1313 
Q 434 1759 690 2068 
Q 947 2378 1403 2484 
z
M 1172 3481 
Q 1172 3119 1398 2916 
Q 1625 2713 2034 2713 
Q 2441 2713 2670 2916 
Q 2900 3119 2900 3481 
Q 2900 3844 2670 4047 
Q 2441 4250 2034 4250 
Q 1625 4250 1398 4047 
Q 1172 3844 1172 3481 
z
" transform="scale(0.015625)"/>
       </defs>
       <use xlink:href="#DejaVuSans-30"/>
       <use xlink:href="#DejaVuSans-39" x="63.623047"/>
       <use xlink:href="#DejaVuSans-2d" x="127.246094"/>
       <use xlink:href="#DejaVuSans-30" x="163.330078"/>
       <use xlink:href="#DejaVuSans-38" x="226.953125"/>
       <use xlink:href="#DejaVuSans-20" x="290.576172"/>
       <use xlink:href="#DejaVuSans-30" x="322.363281"/>
       <use xlink:href="#DejaVuSans-30" x="385.986328"/>
      </g>
     </g>
    </g>
    <g id="xtick_3">
     <g id="line2d_3">
      <g>
       <use xlink:href="#m487bd8f4a1" x="363.731353" y="359.517187" style="stroke: #000000; stroke-width: 0.8"/>
      </g>
     </g>
     <g id="text_3">
      <!-- 09-08 12 -->
      <g transform="translate(341.250884 374.115625) scale(0.1 -0.1)">
       <use xlink:href="#DejaVuSans-30"/>
       <use xlink:href="#DejaVuSans-39" x="63.623047"/>
       <use xlink:href="#DejaVuSans-2d" x="127.246094"/>
       <use xlink:href="#DejaVuSans-30" x="163.330078"/>
       <use xlink:href="#DejaVuSans-38" x="226.953125"/>
       <use xlink:href="#DejaVuSans-20" x="290.576172"/>
       <use xlink:href="#DejaVuSans-31" x="322.363281"/>
       <use xlink:href="#DejaVuSans-32" x="385.986328"/>
      </g>
     </g>
    </g>
    <g id="xtick_4">
     <g id="line2d_4">
      <g>
       <use xlink:href="#m487bd8f4a1" x="488.798022" y="359.517187" style="stroke: #000000; stroke-width: 0.8"/>
      </g>
     </g>
     <g id="text_4">
      <!-- 09-09 00 -->
      <g transform="translate(466.317553 374.115625) scale(0.1 -0.1)">
       <use xlink:href="#DejaVuSans-30"/>
       <use xlink:href="#DejaVuSans-39" x="63.623047"/>
       <use xlink:href="#DejaVuSans-2d" x="127.246094"/>
       <use xlink:href="#DejaVuSans-30" x="163.330078"/>
       <use xlink:href="#DejaVuSans-39" x="226.953125"/>
       <use xlink:href="#DejaVuSans-20" x="290.576172"/>
       <use xlink:href="#DejaVuSans-30" x="322.363281"/>
       <use xlink:href="#DejaVuSans-30" x="385.986328"/>
      </g>
     </g>
    </g>
    <g id="xtick_5">
     <g id="line2d_5">
      <g>
       <use xlink:href="#m487bd8f4a1" x="613.864692" y="359.517187" style="stroke: #000000; stroke-width: 0.8"/>
      </g>
     </g>
     <g id="text_5">
      <!-- 09-09 12 -->
      <g transform="translate(591.384223 374.115625) scale(0.1 -0.1)">
       <use xlink:href="#DejaVuSans-30"/>
       <use xlink:href="#DejaVuSans-39" x="63.623047"/>
       <use xlink:href="#DejaVuSans-2d" x="127.246094"/>
       <use xlink:href="#DejaVuSans-30" x="163.330078"/>
       <use xlink:href="#DejaVuSans-39" x="226.953125"/>
       <use xlink:href="#DejaVuSans-20" x="290.576172"/>
       <use xlink:href="#DejaVuSans-31" x="322.363281"/>
       <use xlink:href="#DejaVuSans-32" x="385.986328"/>
      </g>
     </g>
    </g>
    <g id="xtick_6">
     <g id="line2d_6">
      <g>
       <use xlink:href="#m487bd8f4a1" x="738.931361" y="359.517187" style="stroke: #000000; stroke-width: 0.8"/>
      </g>
     </g>
     <g id="text_6">
      <!-- 09-10 00 -->
      <g transform="translate(716.450892 374.115625) scale(0.1 -0.1)">
       <use xlink:href="#DejaVuSans-30"/>
       <use xlink:href="#DejaVuSans-39" x="63.623047"/>
       <use xlink:href="#DejaVuSans-2d" x="127.246094"/>
       <use xlink:href="#DejaVuSans-31" x="163.330078"/>
       <use xlink:href="#DejaVuSans-30" x="226.953125"/>
       <use xlink:href="#DejaVuSans-20" x="290.576172"/>
       <use xlink:href="#DejaVuSans-30" x="322.363281"/>
       <use xlink:href="#DejaVuSans-30" x="385.986328"/>
      </g>
     </g>
    </g>
    <g id="xtick_7">
     <g id="line2d_7">
      <g>
       <use xlink:href="#m487bd8f4a1" x="863.99803" y="359.517187" style="stroke: #000000; stroke-width: 0.8"/>
      </g>
     </g>
     <g id="text_7">
      <!-- 09-10 12 -->
      <g transform="translate(841.517562 374.115625) scale(0.1 -0.1)">
       <use xlink:href="#DejaVuSans-30"/>
       <use xlink:href="#DejaVuSans-39" x="63.623047"/>
       <use xlink:href="#DejaVuSans-2d" x="127.246094"/>
       <use xlink:href="#DejaVuSans-31" x="163.330078"/>
       <use xlink:href="#DejaVuSans-30" x="226.953125"/>
       <use xlink:href="#DejaVuSans-20" x="290.576172"/>
       <use xlink:href="#DejaVuSans-31" x="322.363281"/>
       <use xlink:href="#DejaVuSans-32" x="385.986328"/>
      </g>
     </g>
    </g>
    <g id="xtick_8">
     <g id="line2d_8">
      <g>
       <use xlink:href="#m487bd8f4a1" x="989.0647" y="359.517187" style="stroke: #000000; stroke-width: 0.8"/>
      </g>
     </g>
     <g id="text_8">
      <!-- 09-11 00 -->
      <g transform="translate(966.584231 374.115625) scale(0.1 -0.1)">
       <use xlink:href="#DejaVuSans-30"/>
       <use xlink:href="#DejaVuSans-39" x="63.623047"/>
       <use xlink:href="#DejaVuSans-2d" x="127.246094"/>
       <use xlink:href="#DejaVuSans-31" x="163.330078"/>
       <use xlink:href="#DejaVuSans-31" x="226.953125"/>
       <use xlink:href="#DejaVuSans-20" x="290.576172"/>
       <use xlink:href="#DejaVuSans-30" x="322.363281"/>
       <use xlink:href="#DejaVuSans-30" x="385.986328"/>
      </g>
     </g>
    </g>
    <g id="xtick_9">
     <g id="line2d_9">
      <g>
       <use xlink:href="#m487bd8f4a1" x="1114.131369" y="359.517187" style="stroke: #000000; stroke-width: 0.8"/>
      </g>
     </g>
     <g id="text_9">
      <!-- 09-11 12 -->
      <g transform="translate(1091.6509 374.115625) scale(0.1 -0.1)">
       <use xlink:href="#DejaVuSans-30"/>
       <use xlink:href="#DejaVuSans-39" x="63.623047"/>
       <use xlink:href="#DejaVuSans-2d" x="127.246094"/>
       <use xlink:href="#DejaVuSans-31" x="163.330078"/>
       <use xlink:href="#DejaVuSans-31" x="226.953125"/>
       <use xlink:href="#DejaVuSans-20" x="290.576172"/>
       <use xlink:href="#DejaVuSans-31" x="322.363281"/>
       <use xlink:href="#DejaVuSans-32" x="385.986328"/>
      </g>
     </g>
    </g>
    <g id="text_10">
     <!-- Time -->
     <g transform="translate(592.554688 389.313437) scale(0.12 -0.12)">
      <defs>
       <path id="DejaVuSans-54" d="M -19 4666 
L 3928 4666 
L 3928 4134 
L 2272 4134 
L 2272 0 
L 1638 0 
L 1638 4134 
L -19 4134 
L -19 4666 
z
" transform="scale(0.015625)"/>
       <path id="DejaVuSans-69" d="M 603 3500 
L 1178 3500 
L 1178 0 
L 603 0 
L 603 3500 
z
M 603 4863 
L 1178 4863 
L 1178 4134 
L 603 4134 
L 603 4863 
z
" transform="scale(0.015625)"/>
       <path id="DejaVuSans-6d" d="M 3328 2828 
Q 3544 3216 3844 3400 
Q 4144 3584 4550 3584 
Q 5097 3584 5394 3201 
Q 5691 2819 5691 2113 
L 5691 0 
L 5113 0 
L 5113 2094 
Q 5113 2597 4934 2840 
Q 4756 3084 4391 3084 
Q 3944 3084 3684 2787 
Q 3425 2491 3425 1978 
L 3425 0 
L 2847 0 
L 2847 2094 
Q 2847 2600 2669 2842 
Q 2491 3084 2119 3084 
Q 1678 3084 1418 2786 
Q 1159 2488 1159 1978 
L 1159 0 
L 581 0 
L 581 3500 
L 1159 3500 
L 1159 2956 
Q 1356 3278 1631 3431 
Q 1906 3584 2284 3584 
Q 2666 3584 2933 3390 
Q 3200 3197 3328 2828 
z
" transform="scale(0.015625)"/>
       <path id="DejaVuSans-65" d="M 3597 1894 
L 3597 1613 
L 953 1613 
Q 991 1019 1311 708 
Q 1631 397 2203 397 
Q 2534 397 2845 478 
Q 3156 559 3463 722 
L 3463 178 
Q 3153 47 2828 -22 
Q 2503 -91 2169 -91 
Q 1331 -91 842 396 
Q 353 884 353 1716 
Q 353 2575 817 3079 
Q 1281 3584 2069 3584 
Q 2775 3584 3186 3129 
Q 3597 2675 3597 1894 
z
M 3022 2063 
Q 3016 2534 2758 2815 
Q 2500 3097 2075 3097 
Q 1594 3097 1305 2825 
Q 1016 2553 972 2059 
L 3022 2063 
z
" transform="scale(0.015625)"/>
      </defs>
      <use xlink:href="#DejaVuSans-54"/>
      <use xlink:href="#DejaVuSans-69" x="57.958984"/>
      <use xlink:href="#DejaVuSans-6d" x="85.742188"/>
      <use xlink:href="#DejaVuSans-65" x="183.154297"/>
     </g>
    </g>
   </g>
   <g id="matplotlib.axis_2">
    <g id="ytick_1">
     <g id="line2d_10">
      <defs>
       <path id="m058c0595ac" d="M 0 0 
L -3.5 0 
" style="stroke: #000000; stroke-width: 0.8"/>
      </defs>
      <g>
       <use xlink:href="#m058c0595ac" x="49.235" y="344.397187" style="stroke: #000000; stroke-width: 0.8"/>
      </g>
     </g>
     <g id="text_11">
      <!-- 0 -->
      <g transform="translate(35.8725 348.196406) scale(0.1 -0.1)">
       <use xlink:href="#DejaVuSans-30"/>
      </g>
     </g>
    </g>
    <g id="ytick_2">
     <g id="line2d_11">
      <g>
       <use xlink:href="#m058c0595ac" x="49.235" y="297.802426" style="stroke: #000000; stroke-width: 0.8"/>
      </g>
     </g>
     <g id="text_12">
      <!-- 100 -->
      <g transform="translate(23.1475 301.601645) scale(0.1 -0.1)">
       <use xlink:href="#DejaVuSans-31"/>
       <use xlink:href="#DejaVuSans-30" x="63.623047"/>
       <use xlink:href="#DejaVuSans-30" x="127.246094"/>
      </g>
     </g>
    </g>
    <g id="ytick_3">
     <g id="line2d_12">
      <g>
       <use xlink:href="#m058c0595ac" x="49.235" y="251.207665" style="stroke: #000000; stroke-width: 0.8"/>
      </g>
     </g>
     <g id="text_13">
      <!-- 200 -->
      <g transform="translate(23.1475 255.006884) scale(0.1 -0.1)">
       <use xlink:href="#DejaVuSans-32"/>
       <use xlink:href="#DejaVuSans-30" x="63.623047"/>
       <use xlink:href="#DejaVuSans-30" x="127.246094"/>
      </g>
     </g>
    </g>
    <g id="ytick_4">
     <g id="line2d_13">
      <g>
       <use xlink:href="#m058c0595ac" x="49.235" y="204.612904" style="stroke: #000000; stroke-width: 0.8"/>
      </g>
     </g>
     <g id="text_14">
      <!-- 300 -->
      <g transform="translate(23.1475 208.412123) scale(0.1 -0.1)">
       <defs>
        <path id="DejaVuSans-33" d="M 2597 2516 
Q 3050 2419 3304 2112 
Q 3559 1806 3559 1356 
Q 3559 666 3084 287 
Q 2609 -91 1734 -91 
Q 1441 -91 1130 -33 
Q 819 25 488 141 
L 488 750 
Q 750 597 1062 519 
Q 1375 441 1716 441 
Q 2309 441 2620 675 
Q 2931 909 2931 1356 
Q 2931 1769 2642 2001 
Q 2353 2234 1838 2234 
L 1294 2234 
L 1294 2753 
L 1863 2753 
Q 2328 2753 2575 2939 
Q 2822 3125 2822 3475 
Q 2822 3834 2567 4026 
Q 2313 4219 1838 4219 
Q 1578 4219 1281 4162 
Q 984 4106 628 3988 
L 628 4550 
Q 988 4650 1302 4700 
Q 1616 4750 1894 4750 
Q 2613 4750 3031 4423 
Q 3450 4097 3450 3541 
Q 3450 3153 3228 2886 
Q 3006 2619 2597 2516 
z
" transform="scale(0.015625)"/>
       </defs>
       <use xlink:href="#DejaVuSans-33"/>
       <use xlink:href="#DejaVuSans-30" x="63.623047"/>
       <use xlink:href="#DejaVuSans-30" x="127.246094"/>
      </g>
     </g>
    </g>
    <g id="ytick_5">
     <g id="line2d_14">
      <g>
       <use xlink:href="#m058c0595ac" x="49.235" y="158.018143" style="stroke: #000000; stroke-width: 0.8"/>
      </g>
     </g>
     <g id="text_15">
      <!-- 400 -->
      <g transform="translate(23.1475 161.817362) scale(0.1 -0.1)">
       <defs>
        <path id="DejaVuSans-34" d="M 2419 4116 
L 825 1625 
L 2419 1625 
L 2419 4116 
z
M 2253 4666 
L 3047 4666 
L 3047 1625 
L 3713 1625 
L 3713 1100 
L 3047 1100 
L 3047 0 
L 2419 0 
L 2419 1100 
L 313 1100 
L 313 1709 
L 2253 4666 
z
" transform="scale(0.015625)"/>
       </defs>
       <use xlink:href="#DejaVuSans-34"/>
       <use xlink:href="#DejaVuSans-30" x="63.623047"/>
       <use xlink:href="#DejaVuSans-30" x="127.246094"/>
      </g>
     </g>
    </g>
    <g id="ytick_6">
     <g id="line2d_15">
      <g>
       <use xlink:href="#m058c0595ac" x="49.235" y="111.423382" style="stroke: #000000; stroke-width: 0.8"/>
      </g>
     </g>
     <g id="text_16">
      <!-- 500 -->
      <g transform="translate(23.1475 115.2226) scale(0.1 -0.1)">
       <defs>
        <path id="DejaVuSans-35" d="M 691 4666 
L 3169 4666 
L 3169 4134 
L 1269 4134 
L 1269 2991 
Q 1406 3038 1543 3061 
Q 1681 3084 1819 3084 
Q 2600 3084 3056 2656 
Q 3513 2228 3513 1497 
Q 3513 744 3044 326 
Q 2575 -91 1722 -91 
Q 1428 -91 1123 -41 
Q 819 9 494 109 
L 494 744 
Q 775 591 1075 516 
Q 1375 441 1709 441 
Q 2250 441 2565 725 
Q 2881 1009 2881 1497 
Q 2881 1984 2565 2268 
Q 2250 2553 1709 2553 
Q 1456 2553 1204 2497 
Q 953 2441 691 2322 
L 691 4666 
z
" transform="scale(0.015625)"/>
       </defs>
       <use xlink:href="#DejaVuSans-35"/>
       <use xlink:href="#DejaVuSans-30" x="63.623047"/>
       <use xlink:href="#DejaVuSans-30" x="127.246094"/>
      </g>
     </g>
    </g>
    <g id="ytick_7">
     <g id="line2d_16">
      <g>
       <use xlink:href="#m058c0595ac" x="49.235" y="64.82862" style="stroke: #000000; stroke-width: 0.8"/>
      </g>
     </g>
     <g id="text_17">
      <!-- 600 -->
      <g transform="translate(23.1475 68.627839) scale(0.1 -0.1)">
       <defs>
        <path id="DejaVuSans-36" d="M 2113 2584 
Q 1688 2584 1439 2293 
Q 1191 2003 1191 1497 
Q 1191 994 1439 701 
Q 1688 409 2113 409 
Q 2538 409 2786 701 
Q 3034 994 3034 1497 
Q 3034 2003 2786 2293 
Q 2538 2584 2113 2584 
z
M 3366 4563 
L 3366 3988 
Q 3128 4100 2886 4159 
Q 2644 4219 2406 4219 
Q 1781 4219 1451 3797 
Q 1122 3375 1075 2522 
Q 1259 2794 1537 2939 
Q 1816 3084 2150 3084 
Q 2853 3084 3261 2657 
Q 3669 2231 3669 1497 
Q 3669 778 3244 343 
Q 2819 -91 2113 -91 
Q 1303 -91 875 529 
Q 447 1150 447 2328 
Q 447 3434 972 4092 
Q 1497 4750 2381 4750 
Q 2619 4750 2861 4703 
Q 3103 4656 3366 4563 
z
" transform="scale(0.015625)"/>
       </defs>
       <use xlink:href="#DejaVuSans-36"/>
       <use xlink:href="#DejaVuSans-30" x="63.623047"/>
       <use xlink:href="#DejaVuSans-30" x="127.246094"/>
      </g>
     </g>
    </g>
    <g id="text_18">
     <!-- Pellet_Count -->
     <g transform="translate(16.318125 230.485312) rotate(-90) scale(0.12 -0.12)">
      <defs>
       <path id="DejaVuSans-50" d="M 1259 4147 
L 1259 2394 
L 2053 2394 
Q 2494 2394 2734 2622 
Q 2975 2850 2975 3272 
Q 2975 3691 2734 3919 
Q 2494 4147 2053 4147 
L 1259 4147 
z
M 628 4666 
L 2053 4666 
Q 2838 4666 3239 4311 
Q 3641 3956 3641 3272 
Q 3641 2581 3239 2228 
Q 2838 1875 2053 1875 
L 1259 1875 
L 1259 0 
L 628 0 
L 628 4666 
z
" transform="scale(0.015625)"/>
       <path id="DejaVuSans-6c" d="M 603 4863 
L 1178 4863 
L 1178 0 
L 603 0 
L 603 4863 
z
" transform="scale(0.015625)"/>
       <path id="DejaVuSans-74" d="M 1172 4494 
L 1172 3500 
L 2356 3500 
L 2356 3053 
L 1172 3053 
L 1172 1153 
Q 1172 725 1289 603 
Q 1406 481 1766 481 
L 2356 481 
L 2356 0 
L 1766 0 
Q 1100 0 847 248 
Q 594 497 594 1153 
L 594 3053 
L 172 3053 
L 172 3500 
L 594 3500 
L 594 4494 
L 1172 4494 
z
" transform="scale(0.015625)"/>
       <path id="DejaVuSans-5f" d="M 3263 -1063 
L 3263 -1509 
L -63 -1509 
L -63 -1063 
L 3263 -1063 
z
" transform="scale(0.015625)"/>
       <path id="DejaVuSans-43" d="M 4122 4306 
L 4122 3641 
Q 3803 3938 3442 4084 
Q 3081 4231 2675 4231 
Q 1875 4231 1450 3742 
Q 1025 3253 1025 2328 
Q 1025 1406 1450 917 
Q 1875 428 2675 428 
Q 3081 428 3442 575 
Q 3803 722 4122 1019 
L 4122 359 
Q 3791 134 3420 21 
Q 3050 -91 2638 -91 
Q 1578 -91 968 557 
Q 359 1206 359 2328 
Q 359 3453 968 4101 
Q 1578 4750 2638 4750 
Q 3056 4750 3426 4639 
Q 3797 4528 4122 4306 
z
" transform="scale(0.015625)"/>
       <path id="DejaVuSans-6f" d="M 1959 3097 
Q 1497 3097 1228 2736 
Q 959 2375 959 1747 
Q 959 1119 1226 758 
Q 1494 397 1959 397 
Q 2419 397 2687 759 
Q 2956 1122 2956 1747 
Q 2956 2369 2687 2733 
Q 2419 3097 1959 3097 
z
M 1959 3584 
Q 2709 3584 3137 3096 
Q 3566 2609 3566 1747 
Q 3566 888 3137 398 
Q 2709 -91 1959 -91 
Q 1206 -91 779 398 
Q 353 888 353 1747 
Q 353 2609 779 3096 
Q 1206 3584 1959 3584 
z
" transform="scale(0.015625)"/>
       <path id="DejaVuSans-75" d="M 544 1381 
L 544 3500 
L 1119 3500 
L 1119 1403 
Q 1119 906 1312 657 
Q 1506 409 1894 409 
Q 2359 409 2629 706 
Q 2900 1003 2900 1516 
L 2900 3500 
L 3475 3500 
L 3475 0 
L 2900 0 
L 2900 538 
Q 2691 219 2414 64 
Q 2138 -91 1772 -91 
Q 1169 -91 856 284 
Q 544 659 544 1381 
z
M 1991 3584 
L 1991 3584 
z
" transform="scale(0.015625)"/>
       <path id="DejaVuSans-6e" d="M 3513 2113 
L 3513 0 
L 2938 0 
L 2938 2094 
Q 2938 2591 2744 2837 
Q 2550 3084 2163 3084 
Q 1697 3084 1428 2787 
Q 1159 2491 1159 1978 
L 1159 0 
L 581 0 
L 581 3500 
L 1159 3500 
L 1159 2956 
Q 1366 3272 1645 3428 
Q 1925 3584 2291 3584 
Q 2894 3584 3203 3211 
Q 3513 2838 3513 2113 
z
" transform="scale(0.015625)"/>
      </defs>
      <use xlink:href="#DejaVuSans-50"/>
      <use xlink:href="#DejaVuSans-65" x="56.677734"/>
      <use xlink:href="#DejaVuSans-6c" x="118.201172"/>
      <use xlink:href="#DejaVuSans-6c" x="145.984375"/>
      <use xlink:href="#DejaVuSans-65" x="173.767578"/>
      <use xlink:href="#DejaVuSans-74" x="235.291016"/>
      <use xlink:href="#DejaVuSans-5f" x="274.5"/>
      <use xlink:href="#DejaVuSans-43" x="324.5"/>
      <use xlink:href="#DejaVuSans-6f" x="394.324219"/>
      <use xlink:href="#DejaVuSans-75" x="455.505859"/>
      <use xlink:href="#DejaVuSans-6e" x="518.884766"/>
      <use xlink:href="#DejaVuSans-74" x="582.263672"/>
     </g>
    </g>
   </g>
   <g id="line2d_17">
    <path d="M 99.962273 344.397187 
L 99.970958 343.93124 
L 100.859742 343.93124 
L 100.871322 343.465292 
L 104.026939 343.465292 
L 104.041415 342.999345 
L 104.985205 342.999345 
L 104.985205 342.999345 
L 104.996785 342.533397 
L 105.112588 342.533397 
L 105.121273 342.067449 
L 105.488946 342.067449 
L 105.491841 341.601502 
L 105.879779 341.601502 
L 105.888464 341.135554 
L 108.158193 341.135554 
L 108.163983 340.669607 
L 108.343477 340.669607 
L 108.346372 340.203659 
L 115.187403 340.203659 
L 115.198983 339.737711 
L 115.358211 339.737711 
L 115.364001 339.271764 
L 115.5406 339.271764 
L 115.543495 338.805816 
L 115.760625 338.805816 
L 115.766415 338.339869 
L 116.047236 338.339869 
L 116.053026 337.873921 
L 117.931921 337.873921 
L 117.934816 337.407973 
L 118.056409 337.407973 
L 118.163526 336.476078 
L 120.462205 336.476078 
L 120.578008 336.01013 
L 120.6996 335.078235 
L 120.847248 335.078235 
L 120.855934 334.612288 
L 121.006477 334.612288 
L 121.012267 334.14634 
L 131.243415 334.14634 
L 131.341847 333.214445 
L 131.437385 333.214445 
L 131.538712 332.748497 
L 131.828218 332.748497 
L 131.94402 331.816602 
L 132.068508 331.816602 
L 132.18431 331.350654 
L 132.192996 331.350654 
L 132.305903 330.884707 
L 132.818329 330.884707 
L 133.018088 330.418759 
L 143.217391 330.418759 
L 143.327403 329.486864 
L 143.414255 329.486864 
L 143.480842 328.554969 
L 143.570589 328.554969 
L 143.674811 327.623073 
L 150.391354 327.623073 
L 150.397144 327.157126 
L 150.6577 327.157126 
L 150.701126 326.691178 
L 154.366274 326.691178 
L 154.467601 325.759283 
L 154.548663 325.759283 
L 154.551558 325.293335 
L 154.684731 325.293335 
L 154.687626 324.827388 
L 163.008033 324.827388 
L 163.115151 324.36144 
L 163.138311 324.36144 
L 163.248324 323.895493 
L 163.259904 323.895493 
L 163.265694 323.429545 
L 164.768231 323.429545 
L 164.771126 322.963597 
L 164.898509 322.963597 
L 164.991151 322.031702 
L 165.060632 322.031702 
L 165.063527 321.565755 
L 165.176435 321.565755 
L 165.300922 321.099807 
L 171.432663 321.099807 
L 171.438453 320.633859 
L 171.554256 320.633859 
L 171.655583 319.701964 
L 171.736645 319.701964 
L 171.849552 319.236016 
L 171.861132 319.236016 
L 171.864027 318.770069 
L 172.031941 318.770069 
L 172.037731 318.304121 
L 172.191169 318.304121 
L 172.19696 317.838174 
L 172.315657 317.838174 
L 172.318552 317.372226 
L 177.104089 317.372226 
L 177.205416 316.440331 
L 177.329904 316.440331 
L 177.341484 315.974383 
L 180.64475 315.974383 
L 180.760552 315.508436 
L 181.739083 315.508436 
L 181.741978 315.042488 
L 181.883836 315.042488 
L 181.889626 314.57654 
L 182.054645 314.57654 
L 182.060435 314.110593 
L 184.62546 314.110593 
L 184.63125 313.644645 
L 185.033663 313.644645 
L 185.039454 313.178698 
L 185.262373 313.178698 
L 185.268164 312.71275 
L 185.395546 312.71275 
L 185.488188 311.780855 
L 185.615571 311.780855 
L 185.621361 311.314907 
L 189.231503 311.314907 
L 189.237293 310.848959 
L 189.364676 310.848959 
L 189.376256 310.383012 
L 193.093516 310.383012 
L 193.189053 309.917064 
L 193.232478 309.917064 
L 193.235374 309.451117 
L 193.362756 309.451117 
L 193.365651 308.985169 
L 193.640682 308.985169 
L 193.756485 308.053274 
L 193.854917 308.053274 
L 193.857812 307.587326 
L 213.715041 307.587326 
L 213.801893 306.655431 
L 213.859794 306.655431 
L 213.93796 305.723536 
L 214.016127 305.723536 
L 214.105874 304.791641 
L 238.317276 304.791641 
L 238.433078 303.859745 
L 238.505455 303.859745 
L 238.569146 303.393798 
L 262.470776 303.393798 
L 262.563418 302.461902 
L 284.693271 302.461902 
L 284.777227 301.530007 
L 284.852499 301.530007 
L 284.855394 301.06406 
L 301.510685 301.06406 
L 301.603327 300.132164 
L 301.695969 300.132164 
L 301.811771 299.200269 
L 301.884148 299.200269 
L 301.97679 298.268374 
L 302.072327 298.268374 
L 302.170759 297.336479 
L 302.274981 297.336479 
L 302.277876 296.870531 
L 305.627462 296.870531 
L 305.737475 295.938636 
L 305.853277 295.938636 
L 305.859067 295.472688 
L 319.387691 295.472688 
L 319.517969 294.540793 
L 319.711938 294.540793 
L 319.714833 294.074845 
L 322.224852 294.074845 
L 322.227747 293.608898 
L 322.386975 293.608898 
L 322.473827 292.677003 
L 322.61279 292.677003 
L 322.737278 291.745107 
L 329.41329 291.745107 
L 329.584099 290.813212 
L 332.262031 290.813212 
L 332.383624 289.881317 
L 332.493636 289.881317 
L 332.563117 288.949422 
L 332.687605 288.949422 
L 332.771562 288.017526 
L 332.864204 288.017526 
L 332.869994 287.551579 
L 333.101599 287.551579 
L 333.110284 287.085631 
L 334.798105 287.085631 
L 334.893642 286.153736 
L 334.971809 286.153736 
L 334.974704 285.687788 
L 337.038883 285.687788 
L 337.148895 285.221841 
L 337.169161 285.221841 
L 337.253117 284.289946 
L 337.331284 284.289946 
L 337.334179 283.823998 
L 337.516568 283.823998 
L 337.522358 283.35805 
L 340.162655 283.35805 
L 340.243716 282.426155 
L 340.333463 282.426155 
L 340.414525 281.49426 
L 340.541908 281.49426 
L 340.654815 281.028312 
L 340.660605 281.028312 
L 340.756142 280.096417 
L 340.840099 280.096417 
L 340.935636 279.164522 
L 341.031173 279.164522 
L 341.031173 278.698574 
L 342.652408 278.698574 
L 342.658198 278.232627 
L 344.270747 278.232627 
L 344.354704 277.300731 
L 344.444451 277.300731 
L 344.516828 276.368836 
L 344.609469 276.368836 
L 344.612365 275.902889 
L 344.806334 275.902889 
L 344.904766 274.970993 
L 344.982932 274.970993 
L 344.985828 274.505046 
L 347.869309 274.505046 
L 347.877994 274.039098 
L 348.098019 274.039098 
L 348.103809 273.573151 
L 348.480167 273.573151 
L 348.485957 273.107203 
L 349.108396 273.107203 
L 349.201038 272.641255 
L 350.431439 272.641255 
L 350.437229 272.175308 
L 352.029513 272.175308 
L 352.032408 271.70936 
L 352.177161 271.70936 
L 352.287173 270.777465 
L 361.221334 270.777465 
L 361.313976 270.311517 
L 361.380562 270.311517 
L 361.478995 269.84557 
L 361.542686 269.84557 
L 361.646908 268.913674 
L 361.759816 268.913674 
L 361.762711 268.447727 
L 362.110118 268.447727 
L 362.225921 267.981779 
L 362.234606 267.981779 
L 362.353303 267.515832 
L 365.294686 267.515832 
L 365.381538 267.049884 
L 365.922914 267.049884 
L 366.030032 266.583936 
L 366.87539 266.583936 
L 366.88697 266.117989 
L 369.611223 266.117989 
L 369.619908 265.652041 
L 369.744396 265.652041 
L 369.828353 264.720146 
L 369.903624 264.720146 
L 369.993371 263.788251 
L 370.071538 263.788251 
L 370.413155 261.92446 
L 384.749501 261.92446 
L 384.859514 261.458513 
L 384.891359 261.458513 
L 384.995582 260.526617 
L 385.192446 260.526617 
L 385.314038 260.06067 
L 385.328514 260.06067 
L 385.426946 259.128775 
L 385.493532 259.128775 
L 385.548538 258.196879 
L 388.151199 258.196879 
L 388.156989 257.730932 
L 389.595835 257.730932 
L 389.700057 257.264984 
L 391.384983 257.264984 
L 391.390773 256.799036 
L 391.50368 256.799036 
L 391.581847 255.867141 
L 391.660014 255.867141 
L 391.73239 254.935246 
L 401.520594 254.935246 
L 401.621921 254.003351 
L 401.691403 254.003351 
L 401.801415 253.537403 
L 401.8101 253.537403 
L 401.908532 252.605508 
L 404.621205 252.605508 
L 404.621205 252.605508 
L 404.635681 252.13956 
L 404.855705 252.13956 
L 404.864391 251.673613 
L 408.32978 251.673613 
L 408.442687 250.741718 
L 408.622181 250.741718 
L 408.720613 249.809822 
L 408.80457 249.809822 
L 408.917477 249.343875 
L 408.926162 249.343875 
L 409.001434 248.877927 
L 417.837162 248.877927 
L 417.9327 247.946032 
L 418.002181 247.946032 
L 418.086138 247.480084 
L 422.877465 247.480084 
L 422.993268 246.548189 
L 423.074329 246.548189 
L 423.080119 246.082241 
L 426.678681 246.082241 
L 426.797379 245.150346 
L 426.87265 245.150346 
L 426.924761 244.684399 
L 429.463731 244.684399 
L 429.573743 243.752503 
L 431.568441 243.752503 
L 431.574231 243.286556 
L 433.522607 243.286556 
L 433.606564 242.354661 
L 433.664465 242.354661 
L 433.742632 241.422765 
L 433.812113 241.422765 
L 433.812113 241.422765 
L 433.936601 240.49087 
L 437.208021 240.49087 
L 437.320928 239.558975 
L 437.436731 239.558975 
L 437.526478 238.62708 
L 438.235768 238.62708 
L 438.331305 237.695184 
L 438.363151 237.695184 
L 451.364873 237.229237 
L 451.364873 237.229237 
L 451.370663 236.763289 
L 451.584898 236.763289 
L 451.68333 235.831394 
L 451.804922 235.831394 
L 451.807818 235.365446 
L 451.993102 235.365446 
L 452.074163 234.433551 
L 452.16391 234.433551 
L 452.166805 233.967604 
L 460.516163 233.967604 
L 460.620386 233.035708 
L 460.695657 233.035708 
L 460.779614 232.103813 
L 460.84041 232.103813 
L 460.944633 231.171918 
L 461.04017 231.171918 
L 461.04596 230.70597 
L 480.0173 230.70597 
L 480.130207 229.774075 
L 480.208374 229.774075 
L 480.28654 228.84218 
L 480.353127 228.84218 
L 480.463139 227.910285 
L 498.739664 227.910285 
L 498.843886 226.978389 
L 498.965479 226.978389 
L 498.968374 226.512442 
L 499.095757 226.512442 
L 499.199979 226.046494 
L 526.847819 226.046494 
L 526.963622 225.114599 
L 527.067844 225.114599 
L 527.070739 224.648651 
L 527.227072 224.648651 
L 527.33419 223.716756 
L 527.412356 223.716756 
L 527.412356 223.716756 
L 527.612116 222.784861 
L 546.78032 222.784861 
L 546.890332 221.852966 
L 547.023505 221.852966 
L 547.119042 220.92107 
L 559.179869 220.92107 
L 559.281196 219.989175 
L 559.356468 219.989175 
L 559.359363 219.523228 
L 559.550437 219.523228 
L 559.564913 218.591332 
L 559.66045 218.591332 
L 559.741511 217.659437 
L 559.810993 217.659437 
L 559.9239 216.727542 
L 559.987592 216.727542 
L 560.068653 215.795647 
L 574.245771 215.795647 
L 574.323938 214.863751 
L 574.393419 214.863751 
L 574.480271 213.931856 
L 574.601863 213.931856 
L 574.607654 213.465909 
L 576.955549 213.465909 
L 577.039506 212.534013 
L 577.094512 212.534013 
L 577.158203 211.602118 
L 581.382098 211.602118 
L 581.390783 211.136171 
L 581.877154 211.136171 
L 581.877154 211.136171 
L 582.499592 209.738328 
L 584.106351 209.738328 
L 584.311901 209.27238 
L 586.986938 209.27238 
L 587.050629 208.340485 
L 587.114321 208.340485 
L 587.186697 207.40859 
L 587.290919 207.40859 
L 587.403827 206.476694 
L 587.476203 206.476694 
L 587.479098 206.010747 
L 591.144247 206.010747 
L 591.216623 205.078852 
L 591.277419 205.078852 
L 591.370061 204.146956 
L 591.456913 204.146956 
L 591.462703 203.681009 
L 593.41687 203.681009 
L 593.523987 202.749114 
L 593.596364 202.749114 
L 593.674531 201.817218 
L 596.448 201.817218 
L 596.45379 201.351271 
L 596.586963 201.351271 
L 596.691185 200.419375 
L 596.780932 200.419375 
L 596.896734 199.48748 
L 596.995166 199.48748 
L 597.105179 199.021533 
L 597.273092 199.021533 
L 597.362839 198.555585 
L 599.487815 198.555585 
L 599.589142 197.62369 
L 599.664413 197.62369 
L 599.745475 196.691795 
L 599.829432 196.691795 
L 599.922074 195.759899 
L 602.851876 195.759899 
L 602.967679 195.293952 
L 602.970574 195.293952 
L 603.069006 194.362057 
L 603.141383 194.362057 
L 603.228234 193.430161 
L 603.315086 193.430161 
L 603.323772 192.964214 
L 614.846117 192.964214 
L 614.854803 192.498266 
L 615.549617 192.498266 
L 615.558303 192.032318 
L 615.781222 192.032318 
L 616.024408 191.566371 
L 616.913192 191.566371 
L 616.918982 191.100423 
L 617.544315 191.100423 
L 617.77013 190.168528 
L 617.885932 189.70258 
L 618.132013 189.70258 
L 618.137803 189.236633 
L 619.854574 189.236633 
L 619.932741 188.770685 
L 620.161451 188.770685 
L 620.274358 188.304738 
L 620.288834 188.304738 
L 620.326469 187.83879 
L 621.354216 187.83879 
L 621.455544 187.372842 
L 621.617667 186.440947 
L 623.600784 186.440947 
L 623.612365 185.975 
L 625.054105 185.975 
L 625.129377 185.043104 
L 625.198858 185.043104 
L 625.265445 184.111209 
L 625.332031 184.111209 
L 625.421778 183.645261 
L 626.947476 183.645261 
L 627.037223 182.713366 
L 627.112494 182.713366 
L 627.184871 181.781471 
L 628.342896 181.781471 
L 628.397902 181.315523 
L 638.547988 181.315523 
L 638.652211 180.849576 
L 638.672476 180.849576 
L 638.678266 180.383628 
L 638.866445 180.383628 
L 638.86934 179.917681 
L 639.225433 179.917681 
L 639.231223 179.451733 
L 639.639427 179.451733 
L 639.743649 178.985785 
L 640.687439 178.985785 
L 640.800346 178.05389 
L 640.881408 178.05389 
L 640.988525 177.121995 
L 643.831476 177.121995 
L 643.837266 176.656047 
L 644.060186 176.656047 
L 644.158618 176.1901 
L 644.283106 175.724152 
L 659.48797 175.724152 
L 659.499551 175.258204 
L 659.670359 175.258204 
L 659.757211 174.326309 
L 659.800637 174.326309 
L 659.881699 173.394414 
L 659.965655 173.394414 
L 660.055402 172.462519 
L 672.284143 172.462519 
L 672.397051 171.996571 
L 672.527329 171.064676 
L 672.562069 171.064676 
L 672.651816 170.598728 
L 672.677872 170.598728 
L 672.680767 170.132781 
L 673.818526 170.132781 
L 673.824316 169.666833 
L 674.038551 169.666833 
L 674.041446 169.200885 
L 674.727576 169.200885 
L 674.805742 168.26899 
L 681.122767 168.26899 
L 681.192249 167.337095 
L 681.26173 167.337095 
L 681.337002 166.4052 
L 681.452804 166.4052 
L 681.565712 165.939252 
L 683.004557 165.939252 
L 683.010347 165.473305 
L 684.813971 165.473305 
L 685.071631 164.075462 
L 686.264397 164.075462 
L 686.304928 163.609514 
L 688.936539 163.609514 
L 688.948119 163.143567 
L 701.18265 163.143567 
L 701.19423 162.677619 
L 701.344774 162.677619 
L 701.347669 162.211671 
L 701.544533 162.211671 
L 701.547428 161.745724 
L 701.813774 161.745724 
L 701.819564 161.279776 
L 712.768688 161.279776 
L 712.855539 160.347881 
L 712.925021 160.347881 
L 713.008978 159.415986 
L 713.072669 159.415986 
L 713.075564 158.950038 
L 731.334719 158.950038 
L 731.433151 158.018143 
L 731.517108 158.018143 
L 731.606855 157.086248 
L 731.693706 157.086248 
L 731.786348 156.154352 
L 731.86741 156.154352 
L 731.870305 155.688405 
L 770.357257 155.688405 
L 770.464374 154.75651 
L 770.623602 154.75651 
L 770.727825 153.824614 
L 793.147183 153.824614 
L 793.251405 153.358667 
L 793.274566 153.358667 
L 793.396158 152.426771 
L 793.45985 152.426771 
L 793.564072 151.494876 
L 793.601708 151.494876 
L 793.601708 151.494876 
L 793.71172 150.562981 
L 807.240344 150.562981 
L 807.246134 150.097033 
L 807.445893 150.097033 
L 807.448788 149.631086 
L 816.889585 149.631086 
L 816.982227 148.699191 
L 817.158826 148.699191 
L 817.271733 148.233243 
L 817.277523 148.233243 
L 817.390431 147.301348 
L 818.924813 147.301348 
L 819.040616 146.8354 
L 819.127468 145.903505 
L 819.188264 145.903505 
L 819.298276 144.97161 
L 827.326283 144.97161 
L 827.418925 144.039714 
L 827.473931 144.039714 
L 827.557888 143.107819 
L 827.624474 143.107819 
L 827.627369 142.641872 
L 827.772122 142.641872 
L 827.775017 142.175924 
L 827.9024 142.175924 
L 827.989252 141.244029 
L 831.663085 141.244029 
L 831.674665 140.778081 
L 833.156937 140.778081 
L 833.310375 139.846186 
L 833.382752 139.846186 
L 833.385647 139.380238 
L 833.796746 139.380238 
L 833.799641 138.914291 
L 838.003271 138.914291 
L 838.084332 137.982396 
L 838.139338 137.982396 
L 838.246456 137.0505 
L 838.313042 137.0505 
L 838.414369 136.118605 
L 838.507011 136.118605 
L 838.507011 136.118605 
L 838.628604 134.720762 
L 841.677104 134.720762 
L 841.772641 133.788867 
L 841.850808 133.788867 
L 841.923184 132.856972 
L 842.004246 132.856972 
L 842.093993 132.391024 
L 842.134524 132.391024 
L 842.137419 131.925077 
L 844.314505 131.925077 
L 844.427413 131.459129 
L 844.887727 131.459129 
L 844.893518 130.993181 
L 845.035376 130.993181 
L 845.038271 130.527234 
L 845.269876 130.527234 
L 845.272771 130.061286 
L 848.726579 130.061286 
L 848.827907 129.595339 
L 849.296907 129.595339 
L 849.386654 128.663443 
L 849.502456 128.663443 
L 849.618258 127.731548 
L 849.702215 127.731548 
L 849.820913 126.799653 
L 852.579907 126.799653 
L 852.695709 126.333705 
L 852.710184 126.333705 
L 852.788351 125.40181 
L 852.880993 125.40181 
L 852.996796 124.469915 
L 853.106808 124.469915 
L 853.109703 124.003967 
L 860.477635 124.003967 
L 860.558697 123.072072 
L 860.631074 123.072072 
L 860.72082 122.140177 
L 860.784512 122.140177 
L 860.877154 121.208281 
L 860.940845 121.208281 
L 860.94374 120.742334 
L 861.059543 120.742334 
L 861.131919 119.810439 
L 861.250617 119.810439 
L 861.253512 119.344491 
L 861.38379 119.344491 
L 861.386685 118.878543 
L 866.774395 118.878543 
L 866.774395 118.878543 
L 866.890197 117.946648 
L 876.756568 117.946648 
L 876.765253 117.480701 
L 876.985278 117.480701 
L 877.069234 117.014753 
L 877.242938 116.082858 
L 877.900117 116.082858 
L 878.068031 115.150963 
L 878.143302 115.150963 
L 878.201204 114.219067 
L 878.768636 114.219067 
L 878.803376 113.75312 
L 879.862969 113.75312 
L 880.045358 112.821224 
L 881.985049 112.821224 
L 882.268765 111.423382 
L 893.652148 111.423382 
L 893.770846 110.491486 
L 893.837432 110.491486 
L 893.915599 110.025539 
L 894.769642 110.025539 
L 894.775432 109.559591 
L 897.039371 109.559591 
L 897.129118 108.627696 
L 900.374482 108.627696 
L 900.478704 107.695801 
L 900.54529 107.695801 
L 900.623457 106.763906 
L 900.747945 106.763906 
L 900.75084 106.297958 
L 913.929161 106.297958 
L 914.016013 105.83201 
L 914.10576 105.83201 
L 914.189717 105.366063 
L 918.656797 105.366063 
L 918.769704 104.900115 
L 918.824711 104.900115 
L 918.937618 103.96822 
L 920.344618 103.96822 
L 920.445945 103.036325 
L 920.582013 103.036325 
L 920.584908 102.570377 
L 920.804933 102.570377 
L 920.813618 102.104429 
L 928.65055 102.104429 
L 928.734507 101.172534 
L 928.786618 101.172534 
L 928.887945 100.240639 
L 928.997958 100.240639 
L 929.000853 99.774691 
L 929.116655 99.774691 
L 929.226668 98.842796 
L 929.33668 98.842796 
L 929.420637 97.910901 
L 929.614606 97.910901 
L 929.785415 96.979006 
L 929.846211 96.979006 
L 929.909902 96.04711 
L 929.976489 96.04711 
L 930.060445 95.115215 
L 930.144402 95.115215 
L 930.225464 94.18332 
L 930.888433 94.18332 
L 930.888433 94.18332 
L 930.897118 93.717372 
L 931.085297 93.717372 
L 931.180834 93.251425 
L 931.386384 92.785477 
L 936.241402 92.785477 
L 936.334044 92.31953 
L 936.412211 91.853582 
L 937.610767 91.853582 
L 938.140563 91.387634 
L 938.334532 91.387634 
L 938.441649 90.455739 
L 957.795137 90.455739 
L 957.803823 89.989792 
L 957.994897 89.989792 
L 958.000687 89.523844 
L 958.171495 89.523844 
L 958.209131 89.057896 
L 998.496811 89.057896 
L 998.505496 88.591949 
L 998.624194 88.591949 
L 998.728416 88.126001 
L 998.809478 88.126001 
L 998.90791 87.660053 
L 1026.425472 87.660053 
L 1026.541275 87.194106 
L 1026.691818 87.194106 
L 1026.746824 86.728158 
L 1029.59846 86.728158 
L 1029.607145 86.262211 
L 1044.444337 86.262211 
L 1044.534084 85.796263 
L 1044.965448 85.330315 
L 1044.968343 84.864368 
L 1045.098621 84.864368 
L 1045.182578 83.932473 
L 1045.27522 83.932473 
L 1045.367862 83.000577 
L 1045.524195 83.000577 
L 1045.52709 82.53463 
L 1056.571751 82.53463 
L 1056.690448 81.602734 
L 1056.768615 81.602734 
L 1056.835201 80.670839 
L 1056.927843 80.670839 
L 1057.0118 80.204892 
L 1065.940171 80.204892 
L 1065.943066 79.738944 
L 1066.238362 79.738944 
L 1066.244152 79.272996 
L 1067.020029 79.272996 
L 1067.130041 78.341101 
L 1067.263214 78.341101 
L 1069.750072 77.875154 
L 1069.865874 77.409206 
L 1069.938251 76.943258 
L 1069.938251 76.943258 
L 1070.016418 76.943258 
L 1070.022208 76.477311 
L 1074.208467 76.477311 
L 1074.301109 75.545416 
L 1074.370591 75.545416 
L 1074.466128 74.61352 
L 1074.544294 74.61352 
L 1074.648517 73.215677 
L 1074.712208 73.215677 
L 1074.801955 72.283782 
L 1074.897492 72.283782 
L 1074.903282 71.817835 
L 1078.07048 71.817835 
L 1078.174702 70.885939 
L 1078.273134 70.885939 
L 1078.276029 70.419992 
L 1081.356375 70.419992 
L 1081.35927 69.954044 
L 1082.960239 69.954044 
L 1083.061566 69.022149 
L 1083.148418 69.022149 
L 1083.217899 68.090254 
L 1083.327912 68.090254 
L 1083.333702 67.624306 
L 1083.95614 67.624306 
L 1083.964825 67.158359 
L 1084.734912 67.158359 
L 1084.813078 66.692411 
L 1085.076529 66.692411 
L 1085.079424 66.226463 
L 1085.895832 66.226463 
L 1086.243239 65.760516 
L 1088.654825 65.760516 
L 1088.744572 64.82862 
L 1088.816949 64.82862 
L 1088.912486 63.896725 
L 1088.984863 63.896725 
L 1089.089085 62.96483 
L 1089.158566 62.96483 
L 1089.164356 62.498882 
L 1090.672684 62.498882 
L 1090.774011 61.566987 
L 1090.852177 61.566987 
L 1090.936134 60.635092 
L 1091.017196 60.635092 
L 1091.098258 59.703197 
L 1091.164844 59.703197 
L 1091.257486 58.771302 
L 1091.370393 58.771302 
L 1091.373288 58.305354 
L 1094.146758 58.305354 
L 1094.26256 57.373459 
L 1094.363887 57.373459 
L 1094.459424 56.441563 
L 1096.604665 56.441563 
L 1096.60756 55.975616 
L 1096.734943 55.975616 
L 1096.8189 55.043721 
L 1096.908647 55.043721 
L 1097.027344 54.111825 
L 1101.523375 54.111825 
L 1101.633387 53.645878 
L 1103.170665 53.645878 
L 1103.176455 53.17993 
L 1104.678992 53.17993 
L 1104.948233 51.782087 
L 1105.669104 51.782087 
L 1105.808067 51.31614 
L 1107.267178 51.31614 
L 1107.345344 50.384245 
L 1107.414826 50.384245 
L 1107.498783 49.918297 
L 1109.48769 49.918297 
L 1109.574542 48.986402 
L 1109.658499 48.986402 
L 1109.754036 48.054506 
L 1112.544875 48.054506 
L 1112.550666 47.588559 
L 1112.709894 47.588559 
L 1112.790956 46.656664 
L 1112.866227 46.656664 
L 1112.938604 45.724768 
L 1113.00519 45.724768 
L 1113.077567 44.792873 
L 1113.187579 44.792873 
L 1113.297591 43.860978 
L 1113.398919 43.860978 
L 1113.47419 42.929083 
L 1113.558147 42.929083 
L 1113.561042 42.463135 
L 1114.180585 42.463135 
L 1114.507727 41.997187 
L 1114.507727 41.997187 
" clip-path="url(#pe4bd6cd9f0)" style="fill: none; stroke: #0000ff; stroke-width: 1.5; stroke-linecap: square"/>
   </g>
   <g id="patch_106">
    <path d="M 49.235 359.517187 
L 49.235 26.877187 
" style="fill: none; stroke: #000000; stroke-width: 0.8; stroke-linejoin: miter; stroke-linecap: square"/>
   </g>
   <g id="patch_107">
    <path d="M 1165.235 359.517187 
L 1165.235 26.877187 
" style="fill: none; stroke: #000000; stroke-width: 0.8; stroke-linejoin: miter; stroke-linecap: square"/>
   </g>
   <g id="patch_108">
    <path d="M 49.235 359.517187 
L 1165.235 359.517187 
" style="fill: none; stroke: #000000; stroke-width: 0.8; stroke-linejoin: miter; stroke-linecap: square"/>
   </g>
   <g id="patch_109">
    <path d="M 49.235 26.877187 
L 1165.235 26.877187 
" style="fill: none; stroke: #000000; stroke-width: 0.8; stroke-linejoin: miter; stroke-linecap: square"/>
   </g>
   <g id="text_19">
    <!-- Pellet Count and Cumulative Sum Over Time of Group 11 Mouse 3 -->
    <g transform="translate(309.734375 20.877187) scale(0.18 -0.18)">
     <defs>
      <path id="DejaVuSans-61" d="M 2194 1759 
Q 1497 1759 1228 1600 
Q 959 1441 959 1056 
Q 959 750 1161 570 
Q 1363 391 1709 391 
Q 2188 391 2477 730 
Q 2766 1069 2766 1631 
L 2766 1759 
L 2194 1759 
z
M 3341 1997 
L 3341 0 
L 2766 0 
L 2766 531 
Q 2569 213 2275 61 
Q 1981 -91 1556 -91 
Q 1019 -91 701 211 
Q 384 513 384 1019 
Q 384 1609 779 1909 
Q 1175 2209 1959 2209 
L 2766 2209 
L 2766 2266 
Q 2766 2663 2505 2880 
Q 2244 3097 1772 3097 
Q 1472 3097 1187 3025 
Q 903 2953 641 2809 
L 641 3341 
Q 956 3463 1253 3523 
Q 1550 3584 1831 3584 
Q 2591 3584 2966 3190 
Q 3341 2797 3341 1997 
z
" transform="scale(0.015625)"/>
      <path id="DejaVuSans-64" d="M 2906 2969 
L 2906 4863 
L 3481 4863 
L 3481 0 
L 2906 0 
L 2906 525 
Q 2725 213 2448 61 
Q 2172 -91 1784 -91 
Q 1150 -91 751 415 
Q 353 922 353 1747 
Q 353 2572 751 3078 
Q 1150 3584 1784 3584 
Q 2172 3584 2448 3432 
Q 2725 3281 2906 2969 
z
M 947 1747 
Q 947 1113 1208 752 
Q 1469 391 1925 391 
Q 2381 391 2643 752 
Q 2906 1113 2906 1747 
Q 2906 2381 2643 2742 
Q 2381 3103 1925 3103 
Q 1469 3103 1208 2742 
Q 947 2381 947 1747 
z
" transform="scale(0.015625)"/>
      <path id="DejaVuSans-76" d="M 191 3500 
L 800 3500 
L 1894 563 
L 2988 3500 
L 3597 3500 
L 2284 0 
L 1503 0 
L 191 3500 
z
" transform="scale(0.015625)"/>
      <path id="DejaVuSans-53" d="M 3425 4513 
L 3425 3897 
Q 3066 4069 2747 4153 
Q 2428 4238 2131 4238 
Q 1616 4238 1336 4038 
Q 1056 3838 1056 3469 
Q 1056 3159 1242 3001 
Q 1428 2844 1947 2747 
L 2328 2669 
Q 3034 2534 3370 2195 
Q 3706 1856 3706 1288 
Q 3706 609 3251 259 
Q 2797 -91 1919 -91 
Q 1588 -91 1214 -16 
Q 841 59 441 206 
L 441 856 
Q 825 641 1194 531 
Q 1563 422 1919 422 
Q 2459 422 2753 634 
Q 3047 847 3047 1241 
Q 3047 1584 2836 1778 
Q 2625 1972 2144 2069 
L 1759 2144 
Q 1053 2284 737 2584 
Q 422 2884 422 3419 
Q 422 4038 858 4394 
Q 1294 4750 2059 4750 
Q 2388 4750 2728 4690 
Q 3069 4631 3425 4513 
z
" transform="scale(0.015625)"/>
      <path id="DejaVuSans-4f" d="M 2522 4238 
Q 1834 4238 1429 3725 
Q 1025 3213 1025 2328 
Q 1025 1447 1429 934 
Q 1834 422 2522 422 
Q 3209 422 3611 934 
Q 4013 1447 4013 2328 
Q 4013 3213 3611 3725 
Q 3209 4238 2522 4238 
z
M 2522 4750 
Q 3503 4750 4090 4092 
Q 4678 3434 4678 2328 
Q 4678 1225 4090 567 
Q 3503 -91 2522 -91 
Q 1538 -91 948 565 
Q 359 1222 359 2328 
Q 359 3434 948 4092 
Q 1538 4750 2522 4750 
z
" transform="scale(0.015625)"/>
      <path id="DejaVuSans-72" d="M 2631 2963 
Q 2534 3019 2420 3045 
Q 2306 3072 2169 3072 
Q 1681 3072 1420 2755 
Q 1159 2438 1159 1844 
L 1159 0 
L 581 0 
L 581 3500 
L 1159 3500 
L 1159 2956 
Q 1341 3275 1631 3429 
Q 1922 3584 2338 3584 
Q 2397 3584 2469 3576 
Q 2541 3569 2628 3553 
L 2631 2963 
z
" transform="scale(0.015625)"/>
      <path id="DejaVuSans-66" d="M 2375 4863 
L 2375 4384 
L 1825 4384 
Q 1516 4384 1395 4259 
Q 1275 4134 1275 3809 
L 1275 3500 
L 2222 3500 
L 2222 3053 
L 1275 3053 
L 1275 0 
L 697 0 
L 697 3053 
L 147 3053 
L 147 3500 
L 697 3500 
L 697 3744 
Q 697 4328 969 4595 
Q 1241 4863 1831 4863 
L 2375 4863 
z
" transform="scale(0.015625)"/>
      <path id="DejaVuSans-47" d="M 3809 666 
L 3809 1919 
L 2778 1919 
L 2778 2438 
L 4434 2438 
L 4434 434 
Q 4069 175 3628 42 
Q 3188 -91 2688 -91 
Q 1594 -91 976 548 
Q 359 1188 359 2328 
Q 359 3472 976 4111 
Q 1594 4750 2688 4750 
Q 3144 4750 3555 4637 
Q 3966 4525 4313 4306 
L 4313 3634 
Q 3963 3931 3569 4081 
Q 3175 4231 2741 4231 
Q 1884 4231 1454 3753 
Q 1025 3275 1025 2328 
Q 1025 1384 1454 906 
Q 1884 428 2741 428 
Q 3075 428 3337 486 
Q 3600 544 3809 666 
z
" transform="scale(0.015625)"/>
      <path id="DejaVuSans-70" d="M 1159 525 
L 1159 -1331 
L 581 -1331 
L 581 3500 
L 1159 3500 
L 1159 2969 
Q 1341 3281 1617 3432 
Q 1894 3584 2278 3584 
Q 2916 3584 3314 3078 
Q 3713 2572 3713 1747 
Q 3713 922 3314 415 
Q 2916 -91 2278 -91 
Q 1894 -91 1617 61 
Q 1341 213 1159 525 
z
M 3116 1747 
Q 3116 2381 2855 2742 
Q 2594 3103 2138 3103 
Q 1681 3103 1420 2742 
Q 1159 2381 1159 1747 
Q 1159 1113 1420 752 
Q 1681 391 2138 391 
Q 2594 391 2855 752 
Q 3116 1113 3116 1747 
z
" transform="scale(0.015625)"/>
      <path id="DejaVuSans-4d" d="M 628 4666 
L 1569 4666 
L 2759 1491 
L 3956 4666 
L 4897 4666 
L 4897 0 
L 4281 0 
L 4281 4097 
L 3078 897 
L 2444 897 
L 1241 4097 
L 1241 0 
L 628 0 
L 628 4666 
z
" transform="scale(0.015625)"/>
      <path id="DejaVuSans-73" d="M 2834 3397 
L 2834 2853 
Q 2591 2978 2328 3040 
Q 2066 3103 1784 3103 
Q 1356 3103 1142 2972 
Q 928 2841 928 2578 
Q 928 2378 1081 2264 
Q 1234 2150 1697 2047 
L 1894 2003 
Q 2506 1872 2764 1633 
Q 3022 1394 3022 966 
Q 3022 478 2636 193 
Q 2250 -91 1575 -91 
Q 1294 -91 989 -36 
Q 684 19 347 128 
L 347 722 
Q 666 556 975 473 
Q 1284 391 1588 391 
Q 1994 391 2212 530 
Q 2431 669 2431 922 
Q 2431 1156 2273 1281 
Q 2116 1406 1581 1522 
L 1381 1569 
Q 847 1681 609 1914 
Q 372 2147 372 2553 
Q 372 3047 722 3315 
Q 1072 3584 1716 3584 
Q 2034 3584 2315 3537 
Q 2597 3491 2834 3397 
z
" transform="scale(0.015625)"/>
     </defs>
     <use xlink:href="#DejaVuSans-50"/>
     <use xlink:href="#DejaVuSans-65" x="56.677734"/>
     <use xlink:href="#DejaVuSans-6c" x="118.201172"/>
     <use xlink:href="#DejaVuSans-6c" x="145.984375"/>
     <use xlink:href="#DejaVuSans-65" x="173.767578"/>
     <use xlink:href="#DejaVuSans-74" x="235.291016"/>
     <use xlink:href="#DejaVuSans-20" x="274.5"/>
     <use xlink:href="#DejaVuSans-43" x="306.287109"/>
     <use xlink:href="#DejaVuSans-6f" x="376.111328"/>
     <use xlink:href="#DejaVuSans-75" x="437.292969"/>
     <use xlink:href="#DejaVuSans-6e" x="500.671875"/>
     <use xlink:href="#DejaVuSans-74" x="564.050781"/>
     <use xlink:href="#DejaVuSans-20" x="603.259766"/>
     <use xlink:href="#DejaVuSans-61" x="635.046875"/>
     <use xlink:href="#DejaVuSans-6e" x="696.326172"/>
     <use xlink:href="#DejaVuSans-64" x="759.705078"/>
     <use xlink:href="#DejaVuSans-20" x="823.181641"/>
     <use xlink:href="#DejaVuSans-43" x="854.96875"/>
     <use xlink:href="#DejaVuSans-75" x="924.792969"/>
     <use xlink:href="#DejaVuSans-6d" x="988.171875"/>
     <use xlink:href="#DejaVuSans-75" x="1085.583984"/>
     <use xlink:href="#DejaVuSans-6c" x="1148.962891"/>
     <use xlink:href="#DejaVuSans-61" x="1176.746094"/>
     <use xlink:href="#DejaVuSans-74" x="1238.025391"/>
     <use xlink:href="#DejaVuSans-69" x="1277.234375"/>
     <use xlink:href="#DejaVuSans-76" x="1305.017578"/>
     <use xlink:href="#DejaVuSans-65" x="1364.197266"/>
     <use xlink:href="#DejaVuSans-20" x="1425.720703"/>
     <use xlink:href="#DejaVuSans-53" x="1457.507812"/>
     <use xlink:href="#DejaVuSans-75" x="1520.984375"/>
     <use xlink:href="#DejaVuSans-6d" x="1584.363281"/>
     <use xlink:href="#DejaVuSans-20" x="1681.775391"/>
     <use xlink:href="#DejaVuSans-4f" x="1713.5625"/>
     <use xlink:href="#DejaVuSans-76" x="1792.273438"/>
     <use xlink:href="#DejaVuSans-65" x="1851.453125"/>
     <use xlink:href="#DejaVuSans-72" x="1912.976562"/>
     <use xlink:href="#DejaVuSans-20" x="1954.089844"/>
     <use xlink:href="#DejaVuSans-54" x="1985.876953"/>
     <use xlink:href="#DejaVuSans-69" x="2043.835938"/>
     <use xlink:href="#DejaVuSans-6d" x="2071.619141"/>
     <use xlink:href="#DejaVuSans-65" x="2169.03125"/>
     <use xlink:href="#DejaVuSans-20" x="2230.554688"/>
     <use xlink:href="#DejaVuSans-6f" x="2262.341797"/>
     <use xlink:href="#DejaVuSans-66" x="2323.523438"/>
     <use xlink:href="#DejaVuSans-20" x="2358.728516"/>
     <use xlink:href="#DejaVuSans-47" x="2390.515625"/>
     <use xlink:href="#DejaVuSans-72" x="2468.005859"/>
     <use xlink:href="#DejaVuSans-6f" x="2506.869141"/>
     <use xlink:href="#DejaVuSans-75" x="2568.050781"/>
     <use xlink:href="#DejaVuSans-70" x="2631.429688"/>
     <use xlink:href="#DejaVuSans-20" x="2694.90625"/>
     <use xlink:href="#DejaVuSans-31" x="2726.693359"/>
     <use xlink:href="#DejaVuSans-31" x="2790.316406"/>
     <use xlink:href="#DejaVuSans-20" x="2853.939453"/>
     <use xlink:href="#DejaVuSans-4d" x="2885.726562"/>
     <use xlink:href="#DejaVuSans-6f" x="2972.005859"/>
     <use xlink:href="#DejaVuSans-75" x="3033.1875"/>
     <use xlink:href="#DejaVuSans-73" x="3096.566406"/>
     <use xlink:href="#DejaVuSans-65" x="3148.666016"/>
     <use xlink:href="#DejaVuSans-20" x="3210.189453"/>
     <use xlink:href="#DejaVuSans-33" x="3241.976562"/>
    </g>
   </g>
   <g id="legend_1">
    <g id="patch_110">
     <path d="M 1086.550625 64.233437 
L 1158.235 64.233437 
Q 1160.235 64.233437 1160.235 62.233437 
L 1160.235 33.877187 
Q 1160.235 31.877187 1158.235 31.877187 
L 1086.550625 31.877187 
Q 1084.550625 31.877187 1084.550625 33.877187 
L 1084.550625 62.233437 
Q 1084.550625 64.233437 1086.550625 64.233437 
z
" style="fill: #ffffff; opacity: 0.8; stroke: #cccccc; stroke-linejoin: miter"/>
    </g>
    <g id="patch_111">
     <path d="M 1088.550625 43.475625 
L 1108.550625 43.475625 
L 1108.550625 36.475625 
L 1088.550625 36.475625 
z
" style="fill: #add8e6; opacity: 0.9; stroke: #add8e6; stroke-linejoin: miter"/>
    </g>
    <g id="text_20">
     <!-- Meal -->
     <g transform="translate(1116.550625 43.475625) scale(0.1 -0.1)">
      <use xlink:href="#DejaVuSans-4d"/>
      <use xlink:href="#DejaVuSans-65" x="86.279297"/>
      <use xlink:href="#DejaVuSans-61" x="147.802734"/>
      <use xlink:href="#DejaVuSans-6c" x="209.082031"/>
     </g>
    </g>
    <g id="patch_112">
     <path d="M 1088.550625 58.15375 
L 1108.550625 58.15375 
L 1108.550625 51.15375 
L 1088.550625 51.15375 
z
" style="fill: #808080; opacity: 0.5; stroke: #808080; stroke-linejoin: miter"/>
    </g>
    <g id="text_21">
     <!-- Inactive -->
     <g transform="translate(1116.550625 58.15375) scale(0.1 -0.1)">
      <defs>
       <path id="DejaVuSans-49" d="M 628 4666 
L 1259 4666 
L 1259 0 
L 628 0 
L 628 4666 
z
" transform="scale(0.015625)"/>
       <path id="DejaVuSans-63" d="M 3122 3366 
L 3122 2828 
Q 2878 2963 2633 3030 
Q 2388 3097 2138 3097 
Q 1578 3097 1268 2742 
Q 959 2388 959 1747 
Q 959 1106 1268 751 
Q 1578 397 2138 397 
Q 2388 397 2633 464 
Q 2878 531 3122 666 
L 3122 134 
Q 2881 22 2623 -34 
Q 2366 -91 2075 -91 
Q 1284 -91 818 406 
Q 353 903 353 1747 
Q 353 2603 823 3093 
Q 1294 3584 2113 3584 
Q 2378 3584 2631 3529 
Q 2884 3475 3122 3366 
z
" transform="scale(0.015625)"/>
      </defs>
      <use xlink:href="#DejaVuSans-49"/>
      <use xlink:href="#DejaVuSans-6e" x="29.492188"/>
      <use xlink:href="#DejaVuSans-61" x="92.871094"/>
      <use xlink:href="#DejaVuSans-63" x="154.150391"/>
      <use xlink:href="#DejaVuSans-74" x="209.130859"/>
      <use xlink:href="#DejaVuSans-69" x="248.339844"/>
      <use xlink:href="#DejaVuSans-76" x="276.123047"/>
      <use xlink:href="#DejaVuSans-65" x="335.302734"/>
     </g>
    </g>
   </g>
  </g>
 </g>
 <defs>
  <clipPath id="pe4bd6cd9f0">
   <rect x="49.235" y="26.877187" width="1116" height="332.64"/>
  </clipPath>
 </defs>
</svg>
