<?xml version="1.0" encoding="utf-8" standalone="no"?>
<!DOCTYPE svg PUBLIC "-//W3C//DTD SVG 1.1//EN"
  "http://www.w3.org/Graphics/SVG/1.1/DTD/svg11.dtd">
<svg xmlns:xlink="http://www.w3.org/1999/xlink" width="1172.435pt" height="399.009062pt" viewBox="0 0 1172.435 399.009062" xmlns="http://www.w3.org/2000/svg" version="1.1">
 <metadata>
  <rdf:RDF xmlns:dc="http://purl.org/dc/elements/1.1/" xmlns:cc="http://creativecommons.org/ns#" xmlns:rdf="http://www.w3.org/1999/02/22-rdf-syntax-ns#">
   <cc:Work>
    <dc:type rdf:resource="http://purl.org/dc/dcmitype/StillImage"/>
    <dc:date>2025-04-09T09:55:28.468791</dc:date>
    <dc:format>image/svg+xml</dc:format>
    <dc:creator>
     <cc:Agent>
      <dc:title>Matplotlib v3.8.3, https://matplotlib.org/</dc:title>
     </cc:Agent>
    </dc:creator>
   </cc:Work>
  </rdf:RDF>
 </metadata>
 <defs>
  <style type="text/css">*{stroke-linejoin: round; stroke-linecap: butt}</style>
 </defs>
 <g id="figure_1">
  <g id="patch_1">
   <path d="M 0 399.009062 
L 1172.435 399.009062 
L 1172.435 0 
L 0 0 
z
" style="fill: #ffffff"/>
  </g>
  <g id="axes_1">
   <g id="patch_2">
    <path d="M 49.235 359.517187 
L 1165.235 359.517187 
L 1165.235 26.877187 
L 49.235 26.877187 
z
" style="fill: #ffffff"/>
   </g>
   <g id="patch_3">
    <path d="M 102.49705 359.517187 
L 102.49705 26.877187 
L 102.176601 26.877187 
L 102.176601 359.517187 
z
" clip-path="url(#p6fcd33b06a)" style="fill: #add8e6; stroke: #add8e6; stroke-linejoin: miter"/>
   </g>
   <g id="patch_4">
    <path d="M 119.993237 359.517187 
L 119.993237 26.877187 
L 117.607158 26.877187 
L 117.607158 359.517187 
z
" clip-path="url(#p6fcd33b06a)" style="fill: #add8e6; stroke: #add8e6; stroke-linejoin: miter"/>
   </g>
   <g id="patch_5">
    <path d="M 121.094638 359.517187 
L 121.094638 26.877187 
L 121.26639 26.877187 
L 121.26639 359.517187 
z
" clip-path="url(#p6fcd33b06a)" style="fill: #add8e6; stroke: #add8e6; stroke-linejoin: miter"/>
   </g>
   <g id="patch_6">
    <path d="M 121.368403 359.517187 
L 121.368403 26.877187 
L 121.523441 26.877187 
L 121.523441 359.517187 
z
" clip-path="url(#p6fcd33b06a)" style="fill: #add8e6; stroke: #add8e6; stroke-linejoin: miter"/>
   </g>
   <g id="patch_7">
    <path d="M 121.890574 359.517187 
L 121.890574 26.877187 
L 121.877318 26.877187 
L 121.877318 359.517187 
z
" clip-path="url(#p6fcd33b06a)" style="fill: #add8e6; stroke: #add8e6; stroke-linejoin: miter"/>
   </g>
   <g id="patch_8">
    <path d="M 122.339549 359.517187 
L 122.339549 26.877187 
L 122.504961 26.877187 
L 122.504961 359.517187 
z
" clip-path="url(#p6fcd33b06a)" style="fill: #add8e6; stroke: #add8e6; stroke-linejoin: miter"/>
   </g>
   <g id="patch_9">
    <path d="M 127.050615 359.517187 
L 127.050615 26.877187 
L 127.163579 26.877187 
L 127.163579 359.517187 
z
" clip-path="url(#p6fcd33b06a)" style="fill: #add8e6; stroke: #add8e6; stroke-linejoin: miter"/>
   </g>
   <g id="patch_10">
    <path d="M 135.000179 359.517187 
L 135.000179 26.877187 
L 134.257267 26.877187 
L 134.257267 359.517187 
z
" clip-path="url(#p6fcd33b06a)" style="fill: #add8e6; stroke: #add8e6; stroke-linejoin: miter"/>
   </g>
   <g id="patch_11">
    <path d="M 152.505588 359.517187 
L 152.505588 26.877187 
L 144.341623 26.877187 
L 144.341623 359.517187 
z
" clip-path="url(#p6fcd33b06a)" style="fill: #add8e6; stroke: #add8e6; stroke-linejoin: miter"/>
   </g>
   <g id="patch_12">
    <path d="M 154.185642 359.517187 
L 154.185642 26.877187 
L 154.247311 26.877187 
L 154.247311 359.517187 
z
" clip-path="url(#p6fcd33b06a)" style="fill: #add8e6; stroke: #add8e6; stroke-linejoin: miter"/>
   </g>
   <g id="patch_13">
    <path d="M 169.845586 359.517187 
L 169.845586 26.877187 
L 169.791985 26.877187 
L 169.791985 359.517187 
z
" clip-path="url(#p6fcd33b06a)" style="fill: #add8e6; stroke: #add8e6; stroke-linejoin: miter"/>
   </g>
   <g id="patch_14">
    <path d="M 182.449734 359.517187 
L 182.449734 26.877187 
L 180.064807 26.877187 
L 180.064807 359.517187 
z
" clip-path="url(#p6fcd33b06a)" style="fill: #add8e6; stroke: #add8e6; stroke-linejoin: miter"/>
   </g>
   <g id="patch_15">
    <path d="M 186.822484 359.517187 
L 186.822484 26.877187 
L 184.569541 26.877187 
L 184.569541 359.517187 
z
" clip-path="url(#p6fcd33b06a)" style="fill: #add8e6; stroke: #add8e6; stroke-linejoin: miter"/>
   </g>
   <g id="patch_16">
    <path d="M 192.347929 359.517187 
L 192.347929 26.877187 
L 191.231544 26.877187 
L 191.231544 359.517187 
z
" clip-path="url(#p6fcd33b06a)" style="fill: #add8e6; stroke: #add8e6; stroke-linejoin: miter"/>
   </g>
   <g id="patch_17">
    <path d="M 197.498172 359.517187 
L 197.498172 26.877187 
L 191.628647 26.877187 
L 191.628647 359.517187 
z
" clip-path="url(#p6fcd33b06a)" style="fill: #add8e6; stroke: #add8e6; stroke-linejoin: miter"/>
   </g>
   <g id="patch_18">
    <path d="M 207.123179 359.517187 
L 207.123179 26.877187 
L 207.244212 26.877187 
L 207.244212 359.517187 
z
" clip-path="url(#p6fcd33b06a)" style="fill: #add8e6; stroke: #add8e6; stroke-linejoin: miter"/>
   </g>
   <g id="patch_19">
    <path d="M 234.522749 359.517187 
L 234.522749 26.877187 
L 228.63017 26.877187 
L 228.63017 359.517187 
z
" clip-path="url(#p6fcd33b06a)" style="fill: #add8e6; stroke: #add8e6; stroke-linejoin: miter"/>
   </g>
   <g id="patch_20">
    <path d="M 295.679582 359.517187 
L 295.679582 26.877187 
L 295.846722 26.877187 
L 295.846722 359.517187 
z
" clip-path="url(#p6fcd33b06a)" style="fill: #add8e6; stroke: #add8e6; stroke-linejoin: miter"/>
   </g>
   <g id="patch_21">
    <path d="M 309.056612 359.517187 
L 309.056612 26.877187 
L 309.125197 26.877187 
L 309.125197 359.517187 
z
" clip-path="url(#p6fcd33b06a)" style="fill: #add8e6; stroke: #add8e6; stroke-linejoin: miter"/>
   </g>
   <g id="patch_22">
    <path d="M 309.449681 359.517187 
L 309.449681 26.877187 
L 309.584547 26.877187 
L 309.584547 359.517187 
z
" clip-path="url(#p6fcd33b06a)" style="fill: #add8e6; stroke: #add8e6; stroke-linejoin: miter"/>
   </g>
   <g id="patch_23">
    <path d="M 309.698663 359.517187 
L 309.698663 26.877187 
L 309.832952 26.877187 
L 309.832952 359.517187 
z
" clip-path="url(#p6fcd33b06a)" style="fill: #add8e6; stroke: #add8e6; stroke-linejoin: miter"/>
   </g>
   <g id="patch_24">
    <path d="M 319.023969 359.517187 
L 319.023969 26.877187 
L 319.195145 26.877187 
L 319.195145 359.517187 
z
" clip-path="url(#p6fcd33b06a)" style="fill: #add8e6; stroke: #add8e6; stroke-linejoin: miter"/>
   </g>
   <g id="patch_25">
    <path d="M 332.228095 359.517187 
L 332.228095 26.877187 
L 326.356841 26.877187 
L 326.356841 359.517187 
z
" clip-path="url(#p6fcd33b06a)" style="fill: #add8e6; stroke: #add8e6; stroke-linejoin: miter"/>
   </g>
   <g id="patch_26">
    <path d="M 343.557939 359.517187 
L 343.557939 26.877187 
L 343.571771 26.877187 
L 343.571771 359.517187 
z
" clip-path="url(#p6fcd33b06a)" style="fill: #add8e6; stroke: #add8e6; stroke-linejoin: miter"/>
   </g>
   <g id="patch_27">
    <path d="M 353.497631 359.517187 
L 353.497631 26.877187 
L 353.184098 26.877187 
L 353.184098 359.517187 
z
" clip-path="url(#p6fcd33b06a)" style="fill: #add8e6; stroke: #add8e6; stroke-linejoin: miter"/>
   </g>
   <g id="patch_28">
    <path d="M 354.332183 359.517187 
L 354.332183 26.877187 
L 354.472812 26.877187 
L 354.472812 359.517187 
z
" clip-path="url(#p6fcd33b06a)" style="fill: #add8e6; stroke: #add8e6; stroke-linejoin: miter"/>
   </g>
   <g id="patch_29">
    <path d="M 362.949734 359.517187 
L 362.949734 26.877187 
L 358.158555 26.877187 
L 358.158555 359.517187 
z
" clip-path="url(#p6fcd33b06a)" style="fill: #add8e6; stroke: #add8e6; stroke-linejoin: miter"/>
   </g>
   <g id="patch_30">
    <path d="M 370.549455 359.517187 
L 370.549455 26.877187 
L 365.323134 26.877187 
L 365.323134 359.517187 
z
" clip-path="url(#p6fcd33b06a)" style="fill: #add8e6; stroke: #add8e6; stroke-linejoin: miter"/>
   </g>
   <g id="patch_31">
    <path d="M 375.944069 359.517187 
L 375.944069 26.877187 
L 376.02764 26.877187 
L 376.02764 359.517187 
z
" clip-path="url(#p6fcd33b06a)" style="fill: #add8e6; stroke: #add8e6; stroke-linejoin: miter"/>
   </g>
   <g id="patch_32">
    <path d="M 376.126195 359.517187 
L 376.126195 26.877187 
L 376.28008 26.877187 
L 376.28008 359.517187 
z
" clip-path="url(#p6fcd33b06a)" style="fill: #add8e6; stroke: #add8e6; stroke-linejoin: miter"/>
   </g>
   <g id="patch_33">
    <path d="M 378.907649 359.517187 
L 378.907649 26.877187 
L 379.00217 26.877187 
L 379.00217 359.517187 
z
" clip-path="url(#p6fcd33b06a)" style="fill: #add8e6; stroke: #add8e6; stroke-linejoin: miter"/>
   </g>
   <g id="patch_34">
    <path d="M 384.571418 359.517187 
L 384.571418 26.877187 
L 384.540296 26.877187 
L 384.540296 359.517187 
z
" clip-path="url(#p6fcd33b06a)" style="fill: #add8e6; stroke: #add8e6; stroke-linejoin: miter"/>
   </g>
   <g id="patch_35">
    <path d="M 401.582897 359.517187 
L 401.582897 26.877187 
L 399.532252 26.877187 
L 399.532252 359.517187 
z
" clip-path="url(#p6fcd33b06a)" style="fill: #add8e6; stroke: #add8e6; stroke-linejoin: miter"/>
   </g>
   <g id="patch_36">
    <path d="M 418.147707 359.517187 
L 418.147707 26.877187 
L 418.181712 26.877187 
L 418.181712 359.517187 
z
" clip-path="url(#p6fcd33b06a)" style="fill: #add8e6; stroke: #add8e6; stroke-linejoin: miter"/>
   </g>
   <g id="patch_37">
    <path d="M 427.005019 359.517187 
L 427.005019 26.877187 
L 427.142766 26.877187 
L 427.142766 359.517187 
z
" clip-path="url(#p6fcd33b06a)" style="fill: #add8e6; stroke: #add8e6; stroke-linejoin: miter"/>
   </g>
   <g id="patch_38">
    <path d="M 427.354285 359.517187 
L 427.354285 26.877187 
L 427.25573 26.877187 
L 427.25573 359.517187 
z
" clip-path="url(#p6fcd33b06a)" style="fill: #add8e6; stroke: #add8e6; stroke-linejoin: miter"/>
   </g>
   <g id="patch_39">
    <path d="M 439.702535 359.517187 
L 439.702535 26.877187 
L 436.100362 26.877187 
L 436.100362 359.517187 
z
" clip-path="url(#p6fcd33b06a)" style="fill: #add8e6; stroke: #add8e6; stroke-linejoin: miter"/>
   </g>
   <g id="patch_40">
    <path d="M 440.929003 359.517187 
L 440.929003 26.877187 
L 441.021795 26.877187 
L 441.021795 359.517187 
z
" clip-path="url(#p6fcd33b06a)" style="fill: #add8e6; stroke: #add8e6; stroke-linejoin: miter"/>
   </g>
   <g id="patch_41">
    <path d="M 441.193547 359.517187 
L 441.193547 26.877187 
L 441.259827 26.877187 
L 441.259827 359.517187 
z
" clip-path="url(#p6fcd33b06a)" style="fill: #add8e6; stroke: #add8e6; stroke-linejoin: miter"/>
   </g>
   <g id="patch_42">
    <path d="M 441.463854 359.517187 
L 441.463854 26.877187 
L 441.519183 26.877187 
L 441.519183 359.517187 
z
" clip-path="url(#p6fcd33b06a)" style="fill: #add8e6; stroke: #add8e6; stroke-linejoin: miter"/>
   </g>
   <g id="patch_43">
    <path d="M 458.577346 359.517187 
L 458.577346 26.877187 
L 458.710483 26.877187 
L 458.710483 359.517187 
z
" clip-path="url(#p6fcd33b06a)" style="fill: #add8e6; stroke: #add8e6; stroke-linejoin: miter"/>
   </g>
   <g id="patch_44">
    <path d="M 458.838432 359.517187 
L 458.838432 26.877187 
L 458.928342 26.877187 
L 458.928342 359.517187 
z
" clip-path="url(#p6fcd33b06a)" style="fill: #add8e6; stroke: #add8e6; stroke-linejoin: miter"/>
   </g>
   <g id="patch_45">
    <path d="M 469.259375 359.517187 
L 469.259375 26.877187 
L 469.432279 26.877187 
L 469.432279 359.517187 
z
" clip-path="url(#p6fcd33b06a)" style="fill: #add8e6; stroke: #add8e6; stroke-linejoin: miter"/>
   </g>
   <g id="patch_46">
    <path d="M 469.480692 359.517187 
L 469.480692 26.877187 
L 469.583282 26.877187 
L 469.583282 359.517187 
z
" clip-path="url(#p6fcd33b06a)" style="fill: #add8e6; stroke: #add8e6; stroke-linejoin: miter"/>
   </g>
   <g id="patch_47">
    <path d="M 469.677803 359.517187 
L 469.677803 26.877187 
L 469.846097 26.877187 
L 469.846097 359.517187 
z
" clip-path="url(#p6fcd33b06a)" style="fill: #add8e6; stroke: #add8e6; stroke-linejoin: miter"/>
   </g>
   <g id="patch_48">
    <path d="M 510.041739 359.517187 
L 510.041739 26.877187 
L 510.185826 26.877187 
L 510.185826 359.517187 
z
" clip-path="url(#p6fcd33b06a)" style="fill: #add8e6; stroke: #add8e6; stroke-linejoin: miter"/>
   </g>
   <g id="patch_49">
    <path d="M 556.778928 359.517187 
L 556.778928 26.877187 
L 547.434026 26.877187 
L 547.434026 359.517187 
z
" clip-path="url(#p6fcd33b06a)" style="fill: #add8e6; stroke: #add8e6; stroke-linejoin: miter"/>
   </g>
   <g id="patch_50">
    <path d="M 557.046353 359.517187 
L 557.046353 26.877187 
L 557.188711 26.877187 
L 557.188711 359.517187 
z
" clip-path="url(#p6fcd33b06a)" style="fill: #add8e6; stroke: #add8e6; stroke-linejoin: miter"/>
   </g>
   <g id="patch_51">
    <path d="M 557.489564 359.517187 
L 557.489564 26.877187 
L 557.579475 26.877187 
L 557.579475 359.517187 
z
" clip-path="url(#p6fcd33b06a)" style="fill: #add8e6; stroke: #add8e6; stroke-linejoin: miter"/>
   </g>
   <g id="patch_52">
    <path d="M 566.540529 359.517187 
L 566.540529 26.877187 
L 566.615454 26.877187 
L 566.615454 359.517187 
z
" clip-path="url(#p6fcd33b06a)" style="fill: #add8e6; stroke: #add8e6; stroke-linejoin: miter"/>
   </g>
   <g id="patch_53">
    <path d="M 566.714586 359.517187 
L 566.714586 26.877187 
L 566.837924 26.877187 
L 566.837924 359.517187 
z
" clip-path="url(#p6fcd33b06a)" style="fill: #add8e6; stroke: #add8e6; stroke-linejoin: miter"/>
   </g>
   <g id="patch_54">
    <path d="M 568.688577 359.517187 
L 568.688577 26.877187 
L 568.772147 26.877187 
L 568.772147 359.517187 
z
" clip-path="url(#p6fcd33b06a)" style="fill: #add8e6; stroke: #add8e6; stroke-linejoin: miter"/>
   </g>
   <g id="patch_55">
    <path d="M 568.936406 359.517187 
L 568.936406 26.877187 
L 569.000381 26.877187 
L 569.000381 359.517187 
z
" clip-path="url(#p6fcd33b06a)" style="fill: #add8e6; stroke: #add8e6; stroke-linejoin: miter"/>
   </g>
   <g id="patch_56">
    <path d="M 578.310702 359.517187 
L 578.310702 26.877187 
L 578.189669 26.877187 
L 578.189669 359.517187 
z
" clip-path="url(#p6fcd33b06a)" style="fill: #add8e6; stroke: #add8e6; stroke-linejoin: miter"/>
   </g>
   <g id="patch_57">
    <path d="M 585.693716 359.517187 
L 585.693716 26.877187 
L 585.863739 26.877187 
L 585.863739 359.517187 
z
" clip-path="url(#p6fcd33b06a)" style="fill: #add8e6; stroke: #add8e6; stroke-linejoin: miter"/>
   </g>
   <g id="patch_58">
    <path d="M 585.914457 359.517187 
L 585.914457 26.877187 
L 585.974974 26.877187 
L 585.974974 359.517187 
z
" clip-path="url(#p6fcd33b06a)" style="fill: #add8e6; stroke: #add8e6; stroke-linejoin: miter"/>
   </g>
   <g id="patch_59">
    <path d="M 586.140962 359.517187 
L 586.140962 26.877187 
L 586.245857 26.877187 
L 586.245857 359.517187 
z
" clip-path="url(#p6fcd33b06a)" style="fill: #add8e6; stroke: #add8e6; stroke-linejoin: miter"/>
   </g>
   <g id="patch_60">
    <path d="M 586.317901 359.517187 
L 586.317901 26.877187 
L 586.451037 26.877187 
L 586.451037 359.517187 
z
" clip-path="url(#p6fcd33b06a)" style="fill: #add8e6; stroke: #add8e6; stroke-linejoin: miter"/>
   </g>
   <g id="patch_61">
    <path d="M 586.544405 359.517187 
L 586.544405 26.877187 
L 586.709817 26.877187 
L 586.709817 359.517187 
z
" clip-path="url(#p6fcd33b06a)" style="fill: #add8e6; stroke: #add8e6; stroke-linejoin: miter"/>
   </g>
   <g id="patch_62">
    <path d="M 606.621478 359.517187 
L 606.621478 26.877187 
L 605.090122 26.877187 
L 605.090122 359.517187 
z
" clip-path="url(#p6fcd33b06a)" style="fill: #add8e6; stroke: #add8e6; stroke-linejoin: miter"/>
   </g>
   <g id="patch_63">
    <path d="M 625.888782 359.517187 
L 625.888782 26.877187 
L 623.438728 26.877187 
L 623.438728 359.517187 
z
" clip-path="url(#p6fcd33b06a)" style="fill: #add8e6; stroke: #add8e6; stroke-linejoin: miter"/>
   </g>
   <g id="patch_64">
    <path d="M 627.129082 359.517187 
L 627.129082 26.877187 
L 627.015542 26.877187 
L 627.015542 359.517187 
z
" clip-path="url(#p6fcd33b06a)" style="fill: #add8e6; stroke: #add8e6; stroke-linejoin: miter"/>
   </g>
   <g id="patch_65">
    <path d="M 631.245358 359.517187 
L 631.245358 26.877187 
L 631.403853 26.877187 
L 631.403853 359.517187 
z
" clip-path="url(#p6fcd33b06a)" style="fill: #add8e6; stroke: #add8e6; stroke-linejoin: miter"/>
   </g>
   <g id="patch_66">
    <path d="M 635.977172 359.517187 
L 635.977172 26.877187 
L 635.90974 26.877187 
L 635.90974 359.517187 
z
" clip-path="url(#p6fcd33b06a)" style="fill: #add8e6; stroke: #add8e6; stroke-linejoin: miter"/>
   </g>
   <g id="patch_67">
    <path d="M 636.699912 359.517187 
L 636.699912 26.877187 
L 636.840541 26.877187 
L 636.840541 359.517187 
z
" clip-path="url(#p6fcd33b06a)" style="fill: #add8e6; stroke: #add8e6; stroke-linejoin: miter"/>
   </g>
   <g id="patch_68">
    <path d="M 642.684131 359.517187 
L 642.684131 26.877187 
L 642.838015 26.877187 
L 642.838015 359.517187 
z
" clip-path="url(#p6fcd33b06a)" style="fill: #add8e6; stroke: #add8e6; stroke-linejoin: miter"/>
   </g>
   <g id="patch_69">
    <path d="M 642.944063 359.517187 
L 642.944063 26.877187 
L 643.057028 26.877187 
L 643.057028 359.517187 
z
" clip-path="url(#p6fcd33b06a)" style="fill: #add8e6; stroke: #add8e6; stroke-linejoin: miter"/>
   </g>
   <g id="patch_70">
    <path d="M 658.793049 359.517187 
L 658.793049 26.877187 
L 658.890452 26.877187 
L 658.890452 359.517187 
z
" clip-path="url(#p6fcd33b06a)" style="fill: #add8e6; stroke: #add8e6; stroke-linejoin: miter"/>
   </g>
   <g id="patch_71">
    <path d="M 666.788145 359.517187 
L 666.788145 26.877187 
L 666.928197 26.877187 
L 666.928197 359.517187 
z
" clip-path="url(#p6fcd33b06a)" style="fill: #add8e6; stroke: #add8e6; stroke-linejoin: miter"/>
   </g>
   <g id="patch_72">
    <path d="M 668.985758 359.517187 
L 668.985758 26.877187 
L 669.003049 26.877187 
L 669.003049 359.517187 
z
" clip-path="url(#p6fcd33b06a)" style="fill: #add8e6; stroke: #add8e6; stroke-linejoin: miter"/>
   </g>
   <g id="patch_73">
    <path d="M 672.421367 359.517187 
L 672.421367 26.877187 
L 672.395431 26.877187 
L 672.395431 359.517187 
z
" clip-path="url(#p6fcd33b06a)" style="fill: #add8e6; stroke: #add8e6; stroke-linejoin: miter"/>
   </g>
   <g id="patch_74">
    <path d="M 672.605222 359.517187 
L 672.605222 26.877187 
L 672.740087 26.877187 
L 672.740087 359.517187 
z
" clip-path="url(#p6fcd33b06a)" style="fill: #add8e6; stroke: #add8e6; stroke-linejoin: miter"/>
   </g>
   <g id="patch_75">
    <path d="M 672.816165 359.517187 
L 672.816165 26.877187 
L 672.937198 26.877187 
L 672.937198 359.517187 
z
" clip-path="url(#p6fcd33b06a)" style="fill: #add8e6; stroke: #add8e6; stroke-linejoin: miter"/>
   </g>
   <g id="patch_76">
    <path d="M 673.021345 359.517187 
L 673.021345 26.877187 
L 673.174654 26.877187 
L 673.174654 359.517187 
z
" clip-path="url(#p6fcd33b06a)" style="fill: #add8e6; stroke: #add8e6; stroke-linejoin: miter"/>
   </g>
   <g id="patch_77">
    <path d="M 674.277207 359.517187 
L 674.277207 26.877187 
L 674.140612 26.877187 
L 674.140612 359.517187 
z
" clip-path="url(#p6fcd33b06a)" style="fill: #add8e6; stroke: #add8e6; stroke-linejoin: miter"/>
   </g>
   <g id="patch_78">
    <path d="M 684.284332 359.517187 
L 684.284332 26.877187 
L 684.40306 26.877187 
L 684.40306 359.517187 
z
" clip-path="url(#p6fcd33b06a)" style="fill: #add8e6; stroke: #add8e6; stroke-linejoin: miter"/>
   </g>
   <g id="patch_79">
    <path d="M 706.49562 359.517187 
L 706.49562 26.877187 
L 706.558442 26.877187 
L 706.558442 359.517187 
z
" clip-path="url(#p6fcd33b06a)" style="fill: #add8e6; stroke: #add8e6; stroke-linejoin: miter"/>
   </g>
   <g id="patch_80">
    <path d="M 706.930763 359.517187 
L 706.930763 26.877187 
L 707.066781 26.877187 
L 707.066781 359.517187 
z
" clip-path="url(#p6fcd33b06a)" style="fill: #add8e6; stroke: #add8e6; stroke-linejoin: miter"/>
   </g>
   <g id="patch_81">
    <path d="M 707.175711 359.517187 
L 707.175711 26.877187 
L 707.322103 26.877187 
L 707.322103 359.517187 
z
" clip-path="url(#p6fcd33b06a)" style="fill: #add8e6; stroke: #add8e6; stroke-linejoin: miter"/>
   </g>
   <g id="patch_82">
    <path d="M 740.931243 359.517187 
L 740.931243 26.877187 
L 740.864387 26.877187 
L 740.864387 359.517187 
z
" clip-path="url(#p6fcd33b06a)" style="fill: #add8e6; stroke: #add8e6; stroke-linejoin: miter"/>
   </g>
   <g id="patch_83">
    <path d="M 759.89193 359.517187 
L 759.89193 26.877187 
L 759.555343 26.877187 
L 759.555343 359.517187 
z
" clip-path="url(#p6fcd33b06a)" style="fill: #add8e6; stroke: #add8e6; stroke-linejoin: miter"/>
   </g>
   <g id="patch_84">
    <path d="M 772.837853 359.517187 
L 772.837853 26.877187 
L 772.968107 26.877187 
L 772.968107 359.517187 
z
" clip-path="url(#p6fcd33b06a)" style="fill: #add8e6; stroke: #add8e6; stroke-linejoin: miter"/>
   </g>
   <g id="patch_85">
    <path d="M 773.21709 359.517187 
L 773.21709 26.877187 
L 773.185967 26.877187 
L 773.185967 359.517187 
z
" clip-path="url(#p6fcd33b06a)" style="fill: #add8e6; stroke: #add8e6; stroke-linejoin: miter"/>
   </g>
   <g id="patch_86">
    <path d="M 804.665502 359.517187 
L 804.665502 26.877187 
L 802.555493 26.877187 
L 802.555493 359.517187 
z
" clip-path="url(#p6fcd33b06a)" style="fill: #add8e6; stroke: #add8e6; stroke-linejoin: miter"/>
   </g>
   <g id="patch_87">
    <path d="M 815.454155 359.517187 
L 815.454155 26.877187 
L 815.486431 26.877187 
L 815.486431 359.517187 
z
" clip-path="url(#p6fcd33b06a)" style="fill: #add8e6; stroke: #add8e6; stroke-linejoin: miter"/>
   </g>
   <g id="patch_88">
    <path d="M 815.931948 359.517187 
L 815.931948 26.877187 
L 815.977479 26.877187 
L 815.977479 359.517187 
z
" clip-path="url(#p6fcd33b06a)" style="fill: #add8e6; stroke: #add8e6; stroke-linejoin: miter"/>
   </g>
   <g id="patch_89">
    <path d="M 821.662573 359.517187 
L 821.662573 26.877187 
L 821.806083 26.877187 
L 821.806083 359.517187 
z
" clip-path="url(#p6fcd33b06a)" style="fill: #add8e6; stroke: #add8e6; stroke-linejoin: miter"/>
   </g>
   <g id="patch_90">
    <path d="M 821.980717 359.517187 
L 821.980717 26.877187 
L 821.928845 26.877187 
L 821.928845 359.517187 
z
" clip-path="url(#p6fcd33b06a)" style="fill: #add8e6; stroke: #add8e6; stroke-linejoin: miter"/>
   </g>
   <g id="patch_91">
    <path d="M 835.056894 359.517187 
L 835.056894 26.877187 
L 829.254225 26.877187 
L 829.254225 359.517187 
z
" clip-path="url(#p6fcd33b06a)" style="fill: #add8e6; stroke: #add8e6; stroke-linejoin: miter"/>
   </g>
   <g id="patch_92">
    <path d="M 835.863204 359.517187 
L 835.863204 26.877187 
L 835.939858 26.877187 
L 835.939858 359.517187 
z
" clip-path="url(#p6fcd33b06a)" style="fill: #add8e6; stroke: #add8e6; stroke-linejoin: miter"/>
   </g>
   <g id="patch_93">
    <path d="M 836.059739 359.517187 
L 836.059739 26.877187 
L 836.073571 26.877187 
L 836.073571 359.517187 
z
" clip-path="url(#p6fcd33b06a)" style="fill: #add8e6; stroke: #add8e6; stroke-linejoin: miter"/>
   </g>
   <g id="patch_94">
    <path d="M 849.795257 359.517187 
L 849.795257 26.877187 
L 848.82757 26.877187 
L 848.82757 359.517187 
z
" clip-path="url(#p6fcd33b06a)" style="fill: #add8e6; stroke: #add8e6; stroke-linejoin: miter"/>
   </g>
   <g id="patch_95">
    <path d="M 851.721988 359.517187 
L 851.721988 26.877187 
L 849.569329 26.877187 
L 849.569329 359.517187 
z
" clip-path="url(#p6fcd33b06a)" style="fill: #add8e6; stroke: #add8e6; stroke-linejoin: miter"/>
   </g>
   <g id="patch_96">
    <path d="M 861.689345 359.517187 
L 861.689345 26.877187 
L 861.705483 26.877187 
L 861.705483 359.517187 
z
" clip-path="url(#p6fcd33b06a)" style="fill: #add8e6; stroke: #add8e6; stroke-linejoin: miter"/>
   </g>
   <g id="patch_97">
    <path d="M 863.991854 359.517187 
L 863.991854 26.877187 
L 864.111735 26.877187 
L 864.111735 359.517187 
z
" clip-path="url(#p6fcd33b06a)" style="fill: #add8e6; stroke: #add8e6; stroke-linejoin: miter"/>
   </g>
   <g id="patch_98">
    <path d="M 864.207985 359.517187 
L 864.207985 26.877187 
L 864.324983 26.877187 
L 864.324983 359.517187 
z
" clip-path="url(#p6fcd33b06a)" style="fill: #add8e6; stroke: #add8e6; stroke-linejoin: miter"/>
   </g>
   <g id="patch_99">
    <path d="M 875.562611 359.517187 
L 875.562611 26.877187 
L 875.549931 26.877187 
L 875.549931 359.517187 
z
" clip-path="url(#p6fcd33b06a)" style="fill: #add8e6; stroke: #add8e6; stroke-linejoin: miter"/>
   </g>
   <g id="patch_100">
    <path d="M 879.260458 359.517187 
L 879.260458 26.877187 
L 876.61848 26.877187 
L 876.61848 359.517187 
z
" clip-path="url(#p6fcd33b06a)" style="fill: #add8e6; stroke: #add8e6; stroke-linejoin: miter"/>
   </g>
   <g id="patch_101">
    <path d="M 881.911081 359.517187 
L 881.911081 26.877187 
L 882.02808 26.877187 
L 882.02808 359.517187 
z
" clip-path="url(#p6fcd33b06a)" style="fill: #add8e6; stroke: #add8e6; stroke-linejoin: miter"/>
   </g>
   <g id="patch_102">
    <path d="M 882.161216 359.517187 
L 882.161216 26.877187 
L 882.328357 26.877187 
L 882.328357 359.517187 
z
" clip-path="url(#p6fcd33b06a)" style="fill: #add8e6; stroke: #add8e6; stroke-linejoin: miter"/>
   </g>
   <g id="patch_103">
    <path d="M 882.377346 359.517187 
L 882.377346 26.877187 
L 882.451119 26.877187 
L 882.451119 359.517187 
z
" clip-path="url(#p6fcd33b06a)" style="fill: #add8e6; stroke: #add8e6; stroke-linejoin: miter"/>
   </g>
   <g id="patch_104">
    <path d="M 882.55198 359.517187 
L 882.55198 26.877187 
L 882.718544 26.877187 
L 882.718544 359.517187 
z
" clip-path="url(#p6fcd33b06a)" style="fill: #add8e6; stroke: #add8e6; stroke-linejoin: miter"/>
   </g>
   <g id="patch_105">
    <path d="M 882.800962 359.517187 
L 882.800962 26.877187 
L 882.870124 26.877187 
L 882.870124 359.517187 
z
" clip-path="url(#p6fcd33b06a)" style="fill: #add8e6; stroke: #add8e6; stroke-linejoin: miter"/>
   </g>
   <g id="patch_106">
    <path d="M 886.946631 359.517187 
L 886.946631 26.877187 
L 887.023862 26.877187 
L 887.023862 359.517187 
z
" clip-path="url(#p6fcd33b06a)" style="fill: #add8e6; stroke: #add8e6; stroke-linejoin: miter"/>
   </g>
   <g id="patch_107">
    <path d="M 909.197687 359.517187 
L 909.197687 26.877187 
L 909.341774 26.877187 
L 909.341774 359.517187 
z
" clip-path="url(#p6fcd33b06a)" style="fill: #add8e6; stroke: #add8e6; stroke-linejoin: miter"/>
   </g>
   <g id="patch_108">
    <path d="M 913.554876 359.517187 
L 913.554876 26.877187 
L 910.673714 26.877187 
L 910.673714 359.517187 
z
" clip-path="url(#p6fcd33b06a)" style="fill: #add8e6; stroke: #add8e6; stroke-linejoin: miter"/>
   </g>
   <g id="patch_109">
    <path d="M 918.400231 359.517187 
L 918.400231 26.877187 
L 918.37833 26.877187 
L 918.37833 359.517187 
z
" clip-path="url(#p6fcd33b06a)" style="fill: #add8e6; stroke: #add8e6; stroke-linejoin: miter"/>
   </g>
   <g id="patch_110">
    <path d="M 923.322817 359.517187 
L 923.322817 26.877187 
L 923.345871 26.877187 
L 923.345871 359.517187 
z
" clip-path="url(#p6fcd33b06a)" style="fill: #add8e6; stroke: #add8e6; stroke-linejoin: miter"/>
   </g>
   <g id="patch_111">
    <path d="M 933.156461 359.517187 
L 933.156461 26.877187 
L 933.287869 26.877187 
L 933.287869 359.517187 
z
" clip-path="url(#p6fcd33b06a)" style="fill: #add8e6; stroke: #add8e6; stroke-linejoin: miter"/>
   </g>
   <g id="patch_112">
    <path d="M 933.556447 359.517187 
L 933.556447 26.877187 
L 933.65385 26.877187 
L 933.65385 359.517187 
z
" clip-path="url(#p6fcd33b06a)" style="fill: #add8e6; stroke: #add8e6; stroke-linejoin: miter"/>
   </g>
   <g id="patch_113">
    <path d="M 948.949541 359.517187 
L 948.949541 26.877187 
L 949.050979 26.877187 
L 949.050979 359.517187 
z
" clip-path="url(#p6fcd33b06a)" style="fill: #add8e6; stroke: #add8e6; stroke-linejoin: miter"/>
   </g>
   <g id="patch_114">
    <path d="M 949.157603 359.517187 
L 949.157603 26.877187 
L 949.27806 26.877187 
L 949.27806 359.517187 
z
" clip-path="url(#p6fcd33b06a)" style="fill: #add8e6; stroke: #add8e6; stroke-linejoin: miter"/>
   </g>
   <g id="patch_115">
    <path d="M 958.407407 359.517187 
L 958.407407 26.877187 
L 958.561869 26.877187 
L 958.561869 359.517187 
z
" clip-path="url(#p6fcd33b06a)" style="fill: #add8e6; stroke: #add8e6; stroke-linejoin: miter"/>
   </g>
   <g id="patch_116">
    <path d="M 970.361435 359.517187 
L 970.361435 26.877187 
L 970.427715 26.877187 
L 970.427715 359.517187 
z
" clip-path="url(#p6fcd33b06a)" style="fill: #add8e6; stroke: #add8e6; stroke-linejoin: miter"/>
   </g>
   <g id="patch_117">
    <path d="M 1001.503808 359.517187 
L 1001.503808 26.877187 
L 1001.623688 26.877187 
L 1001.623688 359.517187 
z
" clip-path="url(#p6fcd33b06a)" style="fill: #add8e6; stroke: #add8e6; stroke-linejoin: miter"/>
   </g>
   <g id="patch_118">
    <path d="M 1030.86296 359.517187 
L 1030.86296 26.877187 
L 1030.992062 26.877187 
L 1030.992062 359.517187 
z
" clip-path="url(#p6fcd33b06a)" style="fill: #add8e6; stroke: #add8e6; stroke-linejoin: miter"/>
   </g>
   <g id="patch_119">
    <path d="M 1031.047968 359.517187 
L 1031.047968 26.877187 
L 1031.108484 26.877187 
L 1031.108484 359.517187 
z
" clip-path="url(#p6fcd33b06a)" style="fill: #add8e6; stroke: #add8e6; stroke-linejoin: miter"/>
   </g>
   <g id="patch_120">
    <path d="M 1046.188046 359.517187 
L 1046.188046 26.877187 
L 1046.332709 26.877187 
L 1046.332709 359.517187 
z
" clip-path="url(#p6fcd33b06a)" style="fill: #add8e6; stroke: #add8e6; stroke-linejoin: miter"/>
   </g>
   <g id="patch_121">
    <path d="M 1046.378817 359.517187 
L 1046.378817 26.877187 
L 1046.52982 26.877187 
L 1046.52982 359.517187 
z
" clip-path="url(#p6fcd33b06a)" style="fill: #add8e6; stroke: #add8e6; stroke-linejoin: miter"/>
   </g>
   <g id="patch_122">
    <path d="M 1066.168292 359.517187 
L 1066.168292 26.877187 
L 1066.27434 26.877187 
L 1066.27434 359.517187 
z
" clip-path="url(#p6fcd33b06a)" style="fill: #add8e6; stroke: #add8e6; stroke-linejoin: miter"/>
   </g>
   <g id="patch_123">
    <path d="M 1066.369437 359.517187 
L 1066.369437 26.877187 
L 1066.444362 26.877187 
L 1066.444362 359.517187 
z
" clip-path="url(#p6fcd33b06a)" style="fill: #add8e6; stroke: #add8e6; stroke-linejoin: miter"/>
   </g>
   <g id="patch_124">
    <path d="M 1066.595942 359.517187 
L 1066.595942 26.877187 
L 1066.648966 26.877187 
L 1066.648966 359.517187 
z
" clip-path="url(#p6fcd33b06a)" style="fill: #add8e6; stroke: #add8e6; stroke-linejoin: miter"/>
   </g>
   <g id="patch_125">
    <path d="M 1066.77461 359.517187 
L 1066.77461 26.877187 
L 1066.862791 26.877187 
L 1066.862791 359.517187 
z
" clip-path="url(#p6fcd33b06a)" style="fill: #add8e6; stroke: #add8e6; stroke-linejoin: miter"/>
   </g>
   <g id="patch_126">
    <path d="M 1079.314783 359.517187 
L 1079.314783 26.877187 
L 1079.419102 26.877187 
L 1079.419102 359.517187 
z
" clip-path="url(#p6fcd33b06a)" style="fill: #add8e6; stroke: #add8e6; stroke-linejoin: miter"/>
   </g>
   <g id="patch_127">
    <path d="M 1081.318168 359.517187 
L 1081.318168 26.877187 
L 1080.01908 26.877187 
L 1080.01908 359.517187 
z
" clip-path="url(#p6fcd33b06a)" style="fill: #add8e6; stroke: #add8e6; stroke-linejoin: miter"/>
   </g>
   <g id="patch_128">
    <path d="M 1084.266763 359.517187 
L 1084.266763 26.877187 
L 1084.371082 26.877187 
L 1084.371082 359.517187 
z
" clip-path="url(#p6fcd33b06a)" style="fill: #add8e6; stroke: #add8e6; stroke-linejoin: miter"/>
   </g>
   <g id="patch_129">
    <path d="M 1084.515169 359.517187 
L 1084.515169 26.877187 
L 1084.504218 26.877187 
L 1084.504218 359.517187 
z
" clip-path="url(#p6fcd33b06a)" style="fill: #add8e6; stroke: #add8e6; stroke-linejoin: miter"/>
   </g>
   <g id="patch_130">
    <path d="M 1090.932224 359.517187 
L 1090.932224 26.877187 
L 1091.000809 26.877187 
L 1091.000809 359.517187 
z
" clip-path="url(#p6fcd33b06a)" style="fill: #add8e6; stroke: #add8e6; stroke-linejoin: miter"/>
   </g>
   <g id="patch_131">
    <path d="M 1091.524133 359.517187 
L 1091.524133 26.877187 
L 1091.47572 26.877187 
L 1091.47572 359.517187 
z
" clip-path="url(#p6fcd33b06a)" style="fill: #add8e6; stroke: #add8e6; stroke-linejoin: miter"/>
   </g>
   <g id="patch_132">
    <path d="M 1096.14356 359.517187 
L 1096.14356 26.877187 
L 1096.247303 26.877187 
L 1096.247303 359.517187 
z
" clip-path="url(#p6fcd33b06a)" style="fill: #add8e6; stroke: #add8e6; stroke-linejoin: miter"/>
   </g>
   <g id="patch_133">
    <path d="M 1096.399458 359.517187 
L 1096.399458 26.877187 
L 1096.507236 26.877187 
L 1096.507236 359.517187 
z
" clip-path="url(#p6fcd33b06a)" style="fill: #add8e6; stroke: #add8e6; stroke-linejoin: miter"/>
   </g>
   <g id="patch_134">
    <path d="M 1114.507727 359.517187 
L 1114.507727 26.877187 
L 1110.414506 26.877187 
L 1110.414506 359.517187 
z
" clip-path="url(#p6fcd33b06a)" style="fill: #add8e6; stroke: #add8e6; stroke-linejoin: miter"/>
   </g>
   <g id="patch_135">
    <path d="M 186.41443 359.517187 
L 186.41443 26.877187 
L 310.905535 26.877187 
L 310.905535 359.517187 
z
" clip-path="url(#p6fcd33b06a)" style="fill: #808080; opacity: 0.4; stroke: #808080; stroke-linejoin: miter"/>
   </g>
   <g id="patch_136">
    <path d="M 314.363622 26.877187 
L 314.363622 26.877187 
L 314.363622 359.517187 
" clip-path="url(#p6fcd33b06a)" style="fill: #808080; opacity: 0.4; stroke: #808080; stroke-linejoin: miter"/>
   </g>
   <g id="patch_137">
    <path d="M 317.821708 26.877187 
L 317.821708 26.877187 
L 317.821708 359.517187 
" clip-path="url(#p6fcd33b06a)" style="fill: #808080; opacity: 0.4; stroke: #808080; stroke-linejoin: miter"/>
   </g>
   <g id="patch_138">
    <path d="M 435.396641 359.517187 
L 435.396641 26.877187 
L 559.887747 26.877187 
L 559.887747 359.517187 
z
" clip-path="url(#p6fcd33b06a)" style="fill: #808080; opacity: 0.4; stroke: #808080; stroke-linejoin: miter"/>
   </g>
   <g id="patch_139">
    <path d="M 563.345834 26.877187 
L 563.345834 26.877187 
L 563.345834 359.517187 
" clip-path="url(#p6fcd33b06a)" style="fill: #808080; opacity: 0.4; stroke: #808080; stroke-linejoin: miter"/>
   </g>
   <g id="patch_140">
    <path d="M 566.80392 26.877187 
L 566.80392 26.877187 
L 566.80392 359.517187 
" clip-path="url(#p6fcd33b06a)" style="fill: #808080; opacity: 0.4; stroke: #808080; stroke-linejoin: miter"/>
   </g>
   <g id="patch_141">
    <path d="M 684.378853 359.517187 
L 684.378853 26.877187 
L 808.869959 26.877187 
L 808.869959 359.517187 
z
" clip-path="url(#p6fcd33b06a)" style="fill: #808080; opacity: 0.4; stroke: #808080; stroke-linejoin: miter"/>
   </g>
   <g id="patch_142">
    <path d="M 812.328045 26.877187 
L 812.328045 26.877187 
L 812.328045 359.517187 
" clip-path="url(#p6fcd33b06a)" style="fill: #808080; opacity: 0.4; stroke: #808080; stroke-linejoin: miter"/>
   </g>
   <g id="patch_143">
    <path d="M 815.786132 26.877187 
L 815.786132 26.877187 
L 815.786132 359.517187 
" clip-path="url(#p6fcd33b06a)" style="fill: #808080; opacity: 0.4; stroke: #808080; stroke-linejoin: miter"/>
   </g>
   <g id="patch_144">
    <path d="M 933.361065 359.517187 
L 933.361065 26.877187 
L 1057.852171 26.877187 
L 1057.852171 359.517187 
z
" clip-path="url(#p6fcd33b06a)" style="fill: #808080; opacity: 0.4; stroke: #808080; stroke-linejoin: miter"/>
   </g>
   <g id="patch_145">
    <path d="M 1061.310257 26.877187 
L 1061.310257 26.877187 
L 1061.310257 359.517187 
" clip-path="url(#p6fcd33b06a)" style="fill: #808080; opacity: 0.4; stroke: #808080; stroke-linejoin: miter"/>
   </g>
   <g id="patch_146">
    <path d="M 1064.768343 26.877187 
L 1064.768343 26.877187 
L 1064.768343 359.517187 
" clip-path="url(#p6fcd33b06a)" style="fill: #808080; opacity: 0.4; stroke: #808080; stroke-linejoin: miter"/>
   </g>
   <g id="matplotlib.axis_1">
    <g id="xtick_1">
     <g id="line2d_1">
      <defs>
       <path id="m4da27f0431" d="M 0 0 
L 0 3.5 
" style="stroke: #000000; stroke-width: 0.8"/>
      </defs>
      <g>
       <use xlink:href="#m4da27f0431" x="113.443046" y="359.517187" style="stroke: #000000; stroke-width: 0.8"/>
      </g>
     </g>
     <g id="text_1">
      <!-- 09-07 12 -->
      <g transform="translate(90.962577 374.115625) scale(0.1 -0.1)">
       <defs>
        <path id="DejaVuSans-30" d="M 2034 4250 
Q 1547 4250 1301 3770 
Q 1056 3291 1056 2328 
Q 1056 1369 1301 889 
Q 1547 409 2034 409 
Q 2525 409 2770 889 
Q 3016 1369 3016 2328 
Q 3016 3291 2770 3770 
Q 2525 4250 2034 4250 
z
M 2034 4750 
Q 2819 4750 3233 4129 
Q 3647 3509 3647 2328 
Q 3647 1150 3233 529 
Q 2819 -91 2034 -91 
Q 1250 -91 836 529 
Q 422 1150 422 2328 
Q 422 3509 836 4129 
Q 1250 4750 2034 4750 
z
" transform="scale(0.015625)"/>
        <path id="DejaVuSans-39" d="M 703 97 
L 703 672 
Q 941 559 1184 500 
Q 1428 441 1663 441 
Q 2288 441 2617 861 
Q 2947 1281 2994 2138 
Q 2813 1869 2534 1725 
Q 2256 1581 1919 1581 
Q 1219 1581 811 2004 
Q 403 2428 403 3163 
Q 403 3881 828 4315 
Q 1253 4750 1959 4750 
Q 2769 4750 3195 4129 
Q 3622 3509 3622 2328 
Q 3622 1225 3098 567 
Q 2575 -91 1691 -91 
Q 1453 -91 1209 -44 
Q 966 3 703 97 
z
M 1959 2075 
Q 2384 2075 2632 2365 
Q 2881 2656 2881 3163 
Q 2881 3666 2632 3958 
Q 2384 4250 1959 4250 
Q 1534 4250 1286 3958 
Q 1038 3666 1038 3163 
Q 1038 2656 1286 2365 
Q 1534 2075 1959 2075 
z
" transform="scale(0.015625)"/>
        <path id="DejaVuSans-2d" d="M 313 2009 
L 1997 2009 
L 1997 1497 
L 313 1497 
L 313 2009 
z
" transform="scale(0.015625)"/>
        <path id="DejaVuSans-37" d="M 525 4666 
L 3525 4666 
L 3525 4397 
L 1831 0 
L 1172 0 
L 2766 4134 
L 525 4134 
L 525 4666 
z
" transform="scale(0.015625)"/>
        <path id="DejaVuSans-20" transform="scale(0.015625)"/>
        <path id="DejaVuSans-31" d="M 794 531 
L 1825 531 
L 1825 4091 
L 703 3866 
L 703 4441 
L 1819 4666 
L 2450 4666 
L 2450 531 
L 3481 531 
L 3481 0 
L 794 0 
L 794 531 
z
" transform="scale(0.015625)"/>
        <path id="DejaVuSans-32" d="M 1228 531 
L 3431 531 
L 3431 0 
L 469 0 
L 469 531 
Q 828 903 1448 1529 
Q 2069 2156 2228 2338 
Q 2531 2678 2651 2914 
Q 2772 3150 2772 3378 
Q 2772 3750 2511 3984 
Q 2250 4219 1831 4219 
Q 1534 4219 1204 4116 
Q 875 4013 500 3803 
L 500 4441 
Q 881 4594 1212 4672 
Q 1544 4750 1819 4750 
Q 2544 4750 2975 4387 
Q 3406 4025 3406 3419 
Q 3406 3131 3298 2873 
Q 3191 2616 2906 2266 
Q 2828 2175 2409 1742 
Q 1991 1309 1228 531 
z
" transform="scale(0.015625)"/>
       </defs>
       <use xlink:href="#DejaVuSans-30"/>
       <use xlink:href="#DejaVuSans-39" x="63.623047"/>
       <use xlink:href="#DejaVuSans-2d" x="127.246094"/>
       <use xlink:href="#DejaVuSans-30" x="163.330078"/>
       <use xlink:href="#DejaVuSans-37" x="226.953125"/>
       <use xlink:href="#DejaVuSans-20" x="290.576172"/>
       <use xlink:href="#DejaVuSans-31" x="322.363281"/>
       <use xlink:href="#DejaVuSans-32" x="385.986328"/>
      </g>
     </g>
    </g>
    <g id="xtick_2">
     <g id="line2d_2">
      <g>
       <use xlink:href="#m4da27f0431" x="237.934152" y="359.517187" style="stroke: #000000; stroke-width: 0.8"/>
      </g>
     </g>
     <g id="text_2">
      <!-- 09-08 00 -->
      <g transform="translate(215.453683 374.115625) scale(0.1 -0.1)">
       <defs>
        <path id="DejaVuSans-38" d="M 2034 2216 
Q 1584 2216 1326 1975 
Q 1069 1734 1069 1313 
Q 1069 891 1326 650 
Q 1584 409 2034 409 
Q 2484 409 2743 651 
Q 3003 894 3003 1313 
Q 3003 1734 2745 1975 
Q 2488 2216 2034 2216 
z
M 1403 2484 
Q 997 2584 770 2862 
Q 544 3141 544 3541 
Q 544 4100 942 4425 
Q 1341 4750 2034 4750 
Q 2731 4750 3128 4425 
Q 3525 4100 3525 3541 
Q 3525 3141 3298 2862 
Q 3072 2584 2669 2484 
Q 3125 2378 3379 2068 
Q 3634 1759 3634 1313 
Q 3634 634 3220 271 
Q 2806 -91 2034 -91 
Q 1263 -91 848 271 
Q 434 634 434 1313 
Q 434 1759 690 2068 
Q 947 2378 1403 2484 
z
M 1172 3481 
Q 1172 3119 1398 2916 
Q 1625 2713 2034 2713 
Q 2441 2713 2670 2916 
Q 2900 3119 2900 3481 
Q 2900 3844 2670 4047 
Q 2441 4250 2034 4250 
Q 1625 4250 1398 4047 
Q 1172 3844 1172 3481 
z
" transform="scale(0.015625)"/>
       </defs>
       <use xlink:href="#DejaVuSans-30"/>
       <use xlink:href="#DejaVuSans-39" x="63.623047"/>
       <use xlink:href="#DejaVuSans-2d" x="127.246094"/>
       <use xlink:href="#DejaVuSans-30" x="163.330078"/>
       <use xlink:href="#DejaVuSans-38" x="226.953125"/>
       <use xlink:href="#DejaVuSans-20" x="290.576172"/>
       <use xlink:href="#DejaVuSans-30" x="322.363281"/>
       <use xlink:href="#DejaVuSans-30" x="385.986328"/>
      </g>
     </g>
    </g>
    <g id="xtick_3">
     <g id="line2d_3">
      <g>
       <use xlink:href="#m4da27f0431" x="362.425257" y="359.517187" style="stroke: #000000; stroke-width: 0.8"/>
      </g>
     </g>
     <g id="text_3">
      <!-- 09-08 12 -->
      <g transform="translate(339.944789 374.115625) scale(0.1 -0.1)">
       <use xlink:href="#DejaVuSans-30"/>
       <use xlink:href="#DejaVuSans-39" x="63.623047"/>
       <use xlink:href="#DejaVuSans-2d" x="127.246094"/>
       <use xlink:href="#DejaVuSans-30" x="163.330078"/>
       <use xlink:href="#DejaVuSans-38" x="226.953125"/>
       <use xlink:href="#DejaVuSans-20" x="290.576172"/>
       <use xlink:href="#DejaVuSans-31" x="322.363281"/>
       <use xlink:href="#DejaVuSans-32" x="385.986328"/>
      </g>
     </g>
    </g>
    <g id="xtick_4">
     <g id="line2d_4">
      <g>
       <use xlink:href="#m4da27f0431" x="486.916363" y="359.517187" style="stroke: #000000; stroke-width: 0.8"/>
      </g>
     </g>
     <g id="text_4">
      <!-- 09-09 00 -->
      <g transform="translate(464.435895 374.115625) scale(0.1 -0.1)">
       <use xlink:href="#DejaVuSans-30"/>
       <use xlink:href="#DejaVuSans-39" x="63.623047"/>
       <use xlink:href="#DejaVuSans-2d" x="127.246094"/>
       <use xlink:href="#DejaVuSans-30" x="163.330078"/>
       <use xlink:href="#DejaVuSans-39" x="226.953125"/>
       <use xlink:href="#DejaVuSans-20" x="290.576172"/>
       <use xlink:href="#DejaVuSans-30" x="322.363281"/>
       <use xlink:href="#DejaVuSans-30" x="385.986328"/>
      </g>
     </g>
    </g>
    <g id="xtick_5">
     <g id="line2d_5">
      <g>
       <use xlink:href="#m4da27f0431" x="611.407469" y="359.517187" style="stroke: #000000; stroke-width: 0.8"/>
      </g>
     </g>
     <g id="text_5">
      <!-- 09-09 12 -->
      <g transform="translate(588.927001 374.115625) scale(0.1 -0.1)">
       <use xlink:href="#DejaVuSans-30"/>
       <use xlink:href="#DejaVuSans-39" x="63.623047"/>
       <use xlink:href="#DejaVuSans-2d" x="127.246094"/>
       <use xlink:href="#DejaVuSans-30" x="163.330078"/>
       <use xlink:href="#DejaVuSans-39" x="226.953125"/>
       <use xlink:href="#DejaVuSans-20" x="290.576172"/>
       <use xlink:href="#DejaVuSans-31" x="322.363281"/>
       <use xlink:href="#DejaVuSans-32" x="385.986328"/>
      </g>
     </g>
    </g>
    <g id="xtick_6">
     <g id="line2d_6">
      <g>
       <use xlink:href="#m4da27f0431" x="735.898575" y="359.517187" style="stroke: #000000; stroke-width: 0.8"/>
      </g>
     </g>
     <g id="text_6">
      <!-- 09-10 00 -->
      <g transform="translate(713.418106 374.115625) scale(0.1 -0.1)">
       <use xlink:href="#DejaVuSans-30"/>
       <use xlink:href="#DejaVuSans-39" x="63.623047"/>
       <use xlink:href="#DejaVuSans-2d" x="127.246094"/>
       <use xlink:href="#DejaVuSans-31" x="163.330078"/>
       <use xlink:href="#DejaVuSans-30" x="226.953125"/>
       <use xlink:href="#DejaVuSans-20" x="290.576172"/>
       <use xlink:href="#DejaVuSans-30" x="322.363281"/>
       <use xlink:href="#DejaVuSans-30" x="385.986328"/>
      </g>
     </g>
    </g>
    <g id="xtick_7">
     <g id="line2d_7">
      <g>
       <use xlink:href="#m4da27f0431" x="860.389681" y="359.517187" style="stroke: #000000; stroke-width: 0.8"/>
      </g>
     </g>
     <g id="text_7">
      <!-- 09-10 12 -->
      <g transform="translate(837.909212 374.115625) scale(0.1 -0.1)">
       <use xlink:href="#DejaVuSans-30"/>
       <use xlink:href="#DejaVuSans-39" x="63.623047"/>
       <use xlink:href="#DejaVuSans-2d" x="127.246094"/>
       <use xlink:href="#DejaVuSans-31" x="163.330078"/>
       <use xlink:href="#DejaVuSans-30" x="226.953125"/>
       <use xlink:href="#DejaVuSans-20" x="290.576172"/>
       <use xlink:href="#DejaVuSans-31" x="322.363281"/>
       <use xlink:href="#DejaVuSans-32" x="385.986328"/>
      </g>
     </g>
    </g>
    <g id="xtick_8">
     <g id="line2d_8">
      <g>
       <use xlink:href="#m4da27f0431" x="984.880787" y="359.517187" style="stroke: #000000; stroke-width: 0.8"/>
      </g>
     </g>
     <g id="text_8">
      <!-- 09-11 00 -->
      <g transform="translate(962.400318 374.115625) scale(0.1 -0.1)">
       <use xlink:href="#DejaVuSans-30"/>
       <use xlink:href="#DejaVuSans-39" x="63.623047"/>
       <use xlink:href="#DejaVuSans-2d" x="127.246094"/>
       <use xlink:href="#DejaVuSans-31" x="163.330078"/>
       <use xlink:href="#DejaVuSans-31" x="226.953125"/>
       <use xlink:href="#DejaVuSans-20" x="290.576172"/>
       <use xlink:href="#DejaVuSans-30" x="322.363281"/>
       <use xlink:href="#DejaVuSans-30" x="385.986328"/>
      </g>
     </g>
    </g>
    <g id="xtick_9">
     <g id="line2d_9">
      <g>
       <use xlink:href="#m4da27f0431" x="1109.371893" y="359.517187" style="stroke: #000000; stroke-width: 0.8"/>
      </g>
     </g>
     <g id="text_9">
      <!-- 09-11 12 -->
      <g transform="translate(1086.891424 374.115625) scale(0.1 -0.1)">
       <use xlink:href="#DejaVuSans-30"/>
       <use xlink:href="#DejaVuSans-39" x="63.623047"/>
       <use xlink:href="#DejaVuSans-2d" x="127.246094"/>
       <use xlink:href="#DejaVuSans-31" x="163.330078"/>
       <use xlink:href="#DejaVuSans-31" x="226.953125"/>
       <use xlink:href="#DejaVuSans-20" x="290.576172"/>
       <use xlink:href="#DejaVuSans-31" x="322.363281"/>
       <use xlink:href="#DejaVuSans-32" x="385.986328"/>
      </g>
     </g>
    </g>
    <g id="text_10">
     <!-- Time -->
     <g transform="translate(592.554688 389.313437) scale(0.12 -0.12)">
      <defs>
       <path id="DejaVuSans-54" d="M -19 4666 
L 3928 4666 
L 3928 4134 
L 2272 4134 
L 2272 0 
L 1638 0 
L 1638 4134 
L -19 4134 
L -19 4666 
z
" transform="scale(0.015625)"/>
       <path id="DejaVuSans-69" d="M 603 3500 
L 1178 3500 
L 1178 0 
L 603 0 
L 603 3500 
z
M 603 4863 
L 1178 4863 
L 1178 4134 
L 603 4134 
L 603 4863 
z
" transform="scale(0.015625)"/>
       <path id="DejaVuSans-6d" d="M 3328 2828 
Q 3544 3216 3844 3400 
Q 4144 3584 4550 3584 
Q 5097 3584 5394 3201 
Q 5691 2819 5691 2113 
L 5691 0 
L 5113 0 
L 5113 2094 
Q 5113 2597 4934 2840 
Q 4756 3084 4391 3084 
Q 3944 3084 3684 2787 
Q 3425 2491 3425 1978 
L 3425 0 
L 2847 0 
L 2847 2094 
Q 2847 2600 2669 2842 
Q 2491 3084 2119 3084 
Q 1678 3084 1418 2786 
Q 1159 2488 1159 1978 
L 1159 0 
L 581 0 
L 581 3500 
L 1159 3500 
L 1159 2956 
Q 1356 3278 1631 3431 
Q 1906 3584 2284 3584 
Q 2666 3584 2933 3390 
Q 3200 3197 3328 2828 
z
" transform="scale(0.015625)"/>
       <path id="DejaVuSans-65" d="M 3597 1894 
L 3597 1613 
L 953 1613 
Q 991 1019 1311 708 
Q 1631 397 2203 397 
Q 2534 397 2845 478 
Q 3156 559 3463 722 
L 3463 178 
Q 3153 47 2828 -22 
Q 2503 -91 2169 -91 
Q 1331 -91 842 396 
Q 353 884 353 1716 
Q 353 2575 817 3079 
Q 1281 3584 2069 3584 
Q 2775 3584 3186 3129 
Q 3597 2675 3597 1894 
z
M 3022 2063 
Q 3016 2534 2758 2815 
Q 2500 3097 2075 3097 
Q 1594 3097 1305 2825 
Q 1016 2553 972 2059 
L 3022 2063 
z
" transform="scale(0.015625)"/>
      </defs>
      <use xlink:href="#DejaVuSans-54"/>
      <use xlink:href="#DejaVuSans-69" x="57.958984"/>
      <use xlink:href="#DejaVuSans-6d" x="85.742188"/>
      <use xlink:href="#DejaVuSans-65" x="183.154297"/>
     </g>
    </g>
   </g>
   <g id="matplotlib.axis_2">
    <g id="ytick_1">
     <g id="line2d_10">
      <defs>
       <path id="mb4c1ecbd0a" d="M 0 0 
L -3.5 0 
" style="stroke: #000000; stroke-width: 0.8"/>
      </defs>
      <g>
       <use xlink:href="#mb4c1ecbd0a" x="49.235" y="344.397187" style="stroke: #000000; stroke-width: 0.8"/>
      </g>
     </g>
     <g id="text_11">
      <!-- 0 -->
      <g transform="translate(35.8725 348.196406) scale(0.1 -0.1)">
       <use xlink:href="#DejaVuSans-30"/>
      </g>
     </g>
    </g>
    <g id="ytick_2">
     <g id="line2d_11">
      <g>
       <use xlink:href="#mb4c1ecbd0a" x="49.235" y="274.799949" style="stroke: #000000; stroke-width: 0.8"/>
      </g>
     </g>
     <g id="text_12">
      <!-- 200 -->
      <g transform="translate(23.1475 278.599168) scale(0.1 -0.1)">
       <use xlink:href="#DejaVuSans-32"/>
       <use xlink:href="#DejaVuSans-30" x="63.623047"/>
       <use xlink:href="#DejaVuSans-30" x="127.246094"/>
      </g>
     </g>
    </g>
    <g id="ytick_3">
     <g id="line2d_12">
      <g>
       <use xlink:href="#mb4c1ecbd0a" x="49.235" y="205.202711" style="stroke: #000000; stroke-width: 0.8"/>
      </g>
     </g>
     <g id="text_13">
      <!-- 400 -->
      <g transform="translate(23.1475 209.00193) scale(0.1 -0.1)">
       <defs>
        <path id="DejaVuSans-34" d="M 2419 4116 
L 825 1625 
L 2419 1625 
L 2419 4116 
z
M 2253 4666 
L 3047 4666 
L 3047 1625 
L 3713 1625 
L 3713 1100 
L 3047 1100 
L 3047 0 
L 2419 0 
L 2419 1100 
L 313 1100 
L 313 1709 
L 2253 4666 
z
" transform="scale(0.015625)"/>
       </defs>
       <use xlink:href="#DejaVuSans-34"/>
       <use xlink:href="#DejaVuSans-30" x="63.623047"/>
       <use xlink:href="#DejaVuSans-30" x="127.246094"/>
      </g>
     </g>
    </g>
    <g id="ytick_4">
     <g id="line2d_13">
      <g>
       <use xlink:href="#mb4c1ecbd0a" x="49.235" y="135.605473" style="stroke: #000000; stroke-width: 0.8"/>
      </g>
     </g>
     <g id="text_14">
      <!-- 600 -->
      <g transform="translate(23.1475 139.404692) scale(0.1 -0.1)">
       <defs>
        <path id="DejaVuSans-36" d="M 2113 2584 
Q 1688 2584 1439 2293 
Q 1191 2003 1191 1497 
Q 1191 994 1439 701 
Q 1688 409 2113 409 
Q 2538 409 2786 701 
Q 3034 994 3034 1497 
Q 3034 2003 2786 2293 
Q 2538 2584 2113 2584 
z
M 3366 4563 
L 3366 3988 
Q 3128 4100 2886 4159 
Q 2644 4219 2406 4219 
Q 1781 4219 1451 3797 
Q 1122 3375 1075 2522 
Q 1259 2794 1537 2939 
Q 1816 3084 2150 3084 
Q 2853 3084 3261 2657 
Q 3669 2231 3669 1497 
Q 3669 778 3244 343 
Q 2819 -91 2113 -91 
Q 1303 -91 875 529 
Q 447 1150 447 2328 
Q 447 3434 972 4092 
Q 1497 4750 2381 4750 
Q 2619 4750 2861 4703 
Q 3103 4656 3366 4563 
z
" transform="scale(0.015625)"/>
       </defs>
       <use xlink:href="#DejaVuSans-36"/>
       <use xlink:href="#DejaVuSans-30" x="63.623047"/>
       <use xlink:href="#DejaVuSans-30" x="127.246094"/>
      </g>
     </g>
    </g>
    <g id="ytick_5">
     <g id="line2d_14">
      <g>
       <use xlink:href="#mb4c1ecbd0a" x="49.235" y="66.008235" style="stroke: #000000; stroke-width: 0.8"/>
      </g>
     </g>
     <g id="text_15">
      <!-- 800 -->
      <g transform="translate(23.1475 69.807453) scale(0.1 -0.1)">
       <use xlink:href="#DejaVuSans-38"/>
       <use xlink:href="#DejaVuSans-30" x="63.623047"/>
       <use xlink:href="#DejaVuSans-30" x="127.246094"/>
      </g>
     </g>
    </g>
    <g id="text_16">
     <!-- Pellet_Count -->
     <g transform="translate(16.318125 230.485312) rotate(-90) scale(0.12 -0.12)">
      <defs>
       <path id="DejaVuSans-50" d="M 1259 4147 
L 1259 2394 
L 2053 2394 
Q 2494 2394 2734 2622 
Q 2975 2850 2975 3272 
Q 2975 3691 2734 3919 
Q 2494 4147 2053 4147 
L 1259 4147 
z
M 628 4666 
L 2053 4666 
Q 2838 4666 3239 4311 
Q 3641 3956 3641 3272 
Q 3641 2581 3239 2228 
Q 2838 1875 2053 1875 
L 1259 1875 
L 1259 0 
L 628 0 
L 628 4666 
z
" transform="scale(0.015625)"/>
       <path id="DejaVuSans-6c" d="M 603 4863 
L 1178 4863 
L 1178 0 
L 603 0 
L 603 4863 
z
" transform="scale(0.015625)"/>
       <path id="DejaVuSans-74" d="M 1172 4494 
L 1172 3500 
L 2356 3500 
L 2356 3053 
L 1172 3053 
L 1172 1153 
Q 1172 725 1289 603 
Q 1406 481 1766 481 
L 2356 481 
L 2356 0 
L 1766 0 
Q 1100 0 847 248 
Q 594 497 594 1153 
L 594 3053 
L 172 3053 
L 172 3500 
L 594 3500 
L 594 4494 
L 1172 4494 
z
" transform="scale(0.015625)"/>
       <path id="DejaVuSans-5f" d="M 3263 -1063 
L 3263 -1509 
L -63 -1509 
L -63 -1063 
L 3263 -1063 
z
" transform="scale(0.015625)"/>
       <path id="DejaVuSans-43" d="M 4122 4306 
L 4122 3641 
Q 3803 3938 3442 4084 
Q 3081 4231 2675 4231 
Q 1875 4231 1450 3742 
Q 1025 3253 1025 2328 
Q 1025 1406 1450 917 
Q 1875 428 2675 428 
Q 3081 428 3442 575 
Q 3803 722 4122 1019 
L 4122 359 
Q 3791 134 3420 21 
Q 3050 -91 2638 -91 
Q 1578 -91 968 557 
Q 359 1206 359 2328 
Q 359 3453 968 4101 
Q 1578 4750 2638 4750 
Q 3056 4750 3426 4639 
Q 3797 4528 4122 4306 
z
" transform="scale(0.015625)"/>
       <path id="DejaVuSans-6f" d="M 1959 3097 
Q 1497 3097 1228 2736 
Q 959 2375 959 1747 
Q 959 1119 1226 758 
Q 1494 397 1959 397 
Q 2419 397 2687 759 
Q 2956 1122 2956 1747 
Q 2956 2369 2687 2733 
Q 2419 3097 1959 3097 
z
M 1959 3584 
Q 2709 3584 3137 3096 
Q 3566 2609 3566 1747 
Q 3566 888 3137 398 
Q 2709 -91 1959 -91 
Q 1206 -91 779 398 
Q 353 888 353 1747 
Q 353 2609 779 3096 
Q 1206 3584 1959 3584 
z
" transform="scale(0.015625)"/>
       <path id="DejaVuSans-75" d="M 544 1381 
L 544 3500 
L 1119 3500 
L 1119 1403 
Q 1119 906 1312 657 
Q 1506 409 1894 409 
Q 2359 409 2629 706 
Q 2900 1003 2900 1516 
L 2900 3500 
L 3475 3500 
L 3475 0 
L 2900 0 
L 2900 538 
Q 2691 219 2414 64 
Q 2138 -91 1772 -91 
Q 1169 -91 856 284 
Q 544 659 544 1381 
z
M 1991 3584 
L 1991 3584 
z
" transform="scale(0.015625)"/>
       <path id="DejaVuSans-6e" d="M 3513 2113 
L 3513 0 
L 2938 0 
L 2938 2094 
Q 2938 2591 2744 2837 
Q 2550 3084 2163 3084 
Q 1697 3084 1428 2787 
Q 1159 2491 1159 1978 
L 1159 0 
L 581 0 
L 581 3500 
L 1159 3500 
L 1159 2956 
Q 1366 3272 1645 3428 
Q 1925 3584 2291 3584 
Q 2894 3584 3203 3211 
Q 3513 2838 3513 2113 
z
" transform="scale(0.015625)"/>
      </defs>
      <use xlink:href="#DejaVuSans-50"/>
      <use xlink:href="#DejaVuSans-65" x="56.677734"/>
      <use xlink:href="#DejaVuSans-6c" x="118.201172"/>
      <use xlink:href="#DejaVuSans-6c" x="145.984375"/>
      <use xlink:href="#DejaVuSans-65" x="173.767578"/>
      <use xlink:href="#DejaVuSans-74" x="235.291016"/>
      <use xlink:href="#DejaVuSans-5f" x="274.5"/>
      <use xlink:href="#DejaVuSans-43" x="324.5"/>
      <use xlink:href="#DejaVuSans-6f" x="394.324219"/>
      <use xlink:href="#DejaVuSans-75" x="455.505859"/>
      <use xlink:href="#DejaVuSans-6e" x="518.884766"/>
      <use xlink:href="#DejaVuSans-74" x="582.263672"/>
     </g>
    </g>
   </g>
   <g id="line2d_15">
    <path d="M 99.962273 344.397187 
L 100.956473 344.397187 
L 100.973763 344.049201 
L 101.51553 344.049201 
L 101.639445 343.353229 
L 101.650972 343.353229 
L 101.659617 343.005243 
L 101.852693 343.005243 
L 101.861338 342.657257 
L 102.720097 342.657257 
L 102.760441 342.30927 
L 111.688067 342.30927 
L 111.696712 341.961284 
L 112.054048 341.961284 
L 112.160672 341.613298 
L 112.443082 341.613298 
L 112.445964 341.265312 
L 112.662095 341.265312 
L 112.664976 340.917326 
L 112.780246 340.917326 
L 112.786009 340.569339 
L 113.592896 340.569339 
L 113.981931 339.177395 
L 114.872388 339.177395 
L 114.987658 338.829408 
L 114.996303 338.481422 
L 117.353565 338.481422 
L 117.365092 338.133436 
L 120.877931 338.133436 
L 120.998964 337.437464 
L 121.082535 337.437464 
L 121.200686 336.741491 
L 121.269848 336.741491 
L 121.333246 336.045519 
L 121.402408 336.045519 
L 121.514795 335.697533 
L 121.609893 335.697533 
L 121.699227 335.00156 
L 121.961465 335.00156 
L 121.972992 334.653574 
L 122.166068 334.653574 
L 122.289983 333.609616 
L 123.727971 333.609616 
L 123.733734 333.261629 
L 124.151586 333.261629 
L 124.154468 332.913643 
L 124.281264 332.913643 
L 124.396534 332.217671 
L 126.848894 332.217671 
L 126.964163 331.521698 
L 127.096723 331.173712 
L 127.938191 331.173712 
L 127.943954 330.825726 
L 128.237891 330.825726 
L 128.350279 330.129754 
L 128.410796 330.129754 
L 128.494366 329.433781 
L 128.615399 329.433781 
L 128.696088 328.737809 
L 128.776777 328.737809 
L 128.78254 328.389823 
L 131.511547 328.389823 
L 131.603762 328.041837 
L 131.646988 327.69385 
L 133.67285 327.69385 
L 133.77083 326.997878 
L 133.897626 326.997878 
L 133.90339 326.649892 
L 134.076294 326.649892 
L 134.079176 326.301906 
L 134.825546 326.301906 
L 134.949461 325.953919 
L 135.716003 325.953919 
L 135.721767 325.605933 
L 135.914843 325.605933 
L 137.142464 325.257947 
L 137.246206 324.909961 
L 137.38453 324.909961 
L 137.53438 323.866002 
L 137.641004 323.866002 
L 137.759156 323.17003 
L 137.860017 323.17003 
L 137.900361 322.474057 
L 138.06462 322.474057 
L 138.070383 322.126071 
L 140.727346 322.126071 
L 140.822444 321.430099 
L 140.906014 321.430099 
L 140.911778 321.082113 
L 142.398755 321.082113 
L 142.447744 320.734127 
L 142.600476 320.734127 
L 142.709983 320.38614 
L 142.816607 320.38614 
L 142.917468 319.342182 
L 142.989511 319.342182 
L 142.992393 318.994196 
L 143.139362 318.994196 
L 143.254631 318.646209 
L 143.266158 318.646209 
L 143.367019 317.950237 
L 143.519751 317.950237 
L 143.609085 317.254265 
L 143.733 317.254265 
L 143.825215 316.558292 
L 143.897259 316.558292 
L 144.021174 315.514334 
L 144.124916 315.514334 
L 144.13068 315.166347 
L 154.012161 315.166347 
L 154.089968 314.470375 
L 154.182184 314.470375 
L 154.187947 314.122389 
L 154.381024 314.122389 
L 154.386787 313.774403 
L 169.466925 313.774403 
L 169.47557 313.426416 
L 169.59084 313.426416 
L 169.665765 312.730444 
L 170.587921 312.730444 
L 170.590803 312.382458 
L 170.988483 312.382458 
L 171.095107 312.034472 
L 172.383245 312.034472 
L 172.435116 311.338499 
L 172.535977 311.338499 
L 172.631074 310.642527 
L 172.700236 310.642527 
L 172.786688 309.946555 
L 172.876022 309.946555 
L 172.979764 309.598568 
L 173.100797 309.598568 
L 173.22183 309.250582 
L 175.296682 309.250582 
L 175.417715 308.55461 
L 175.538748 308.55461 
L 175.648254 308.206624 
L 175.662663 308.206624 
L 175.775051 307.510651 
L 175.867266 307.510651 
L 175.9566 306.814679 
L 176.086279 306.814679 
L 176.169849 306.466693 
L 176.256301 306.118706 
L 178.322508 306.118706 
L 178.328271 305.77072 
L 178.561692 305.77072 
L 178.676962 305.074748 
L 178.826812 305.074748 
L 178.829694 304.726762 
L 178.959372 304.726762 
L 178.993953 304.378776 
L 179.858474 304.378776 
L 179.864238 304.030789 
L 181.2273 304.030789 
L 181.697024 302.290858 
L 181.976552 302.290858 
L 181.985197 301.942872 
L 182.126403 301.942872 
L 182.132166 301.594886 
L 184.273298 301.594886 
L 184.34246 300.898914 
L 184.440439 300.898914 
L 184.44332 300.550927 
L 184.682505 300.550927 
L 184.809301 300.202941 
L 184.936098 300.202941 
L 184.938979 299.854955 
L 187.025358 299.854955 
L 187.031122 299.506969 
L 187.166563 299.506969 
L 187.253016 298.810996 
L 187.362522 298.810996 
L 187.365403 298.46301 
L 188.639132 298.46301 
L 188.644895 298.115024 
L 191.12319 298.115024 
L 191.226933 297.767038 
L 191.241342 297.767038 
L 191.347966 297.419052 
L 191.471881 297.419052 
L 191.492053 296.723079 
L 206.906473 296.723079 
L 206.912236 296.375093 
L 207.027506 296.375093 
L 207.137012 295.679121 
L 207.2177 295.679121 
L 207.223464 295.331135 
L 224.3237 295.331135 
L 224.482196 294.983148 
L 224.58882 294.635162 
L 224.646455 294.635162 
L 224.686799 293.93919 
L 224.972092 293.93919 
L 224.977855 293.591204 
L 225.139232 293.591204 
L 225.144996 293.243217 
L 228.294736 293.243217 
L 228.381188 292.547245 
L 228.487813 292.547245 
L 228.6002 292.199259 
L 261.397267 292.199259 
L 261.5183 291.851273 
L 261.691204 291.1553 
L 261.757484 291.1553 
L 261.763248 290.807314 
L 278.082533 290.807314 
L 278.180512 290.111342 
L 278.249674 290.111342 
L 278.350535 289.763356 
L 278.390879 289.763356 
L 278.480213 289.415369 
L 295.300921 289.415369 
L 295.401782 288.719397 
L 295.479589 288.719397 
L 295.566041 288.023425 
L 295.655375 288.023425 
L 295.666902 287.675438 
L 308.528101 287.675438 
L 308.646252 286.979466 
L 308.721178 286.979466 
L 308.82492 286.283494 
L 308.945953 286.283494 
L 308.945953 286.283494 
L 308.95748 285.935507 
L 309.084277 285.935507 
L 309.170729 285.239535 
L 309.283117 285.239535 
L 309.395504 284.543563 
L 309.473311 284.543563 
L 309.582817 283.84759 
L 309.649097 283.84759 
L 309.741313 283.499604 
L 310.703814 283.499604 
L 310.715341 283.151618 
L 318.850489 283.151618 
L 318.942704 282.455645 
L 319.127136 282.455645 
L 319.132899 282.107659 
L 320.340348 282.107659 
L 320.458499 281.759673 
L 321.807152 281.759673 
L 322.25094 281.411687 
L 322.25094 281.411687 
L 322.340274 280.715715 
L 322.455544 280.715715 
L 322.527587 280.019742 
L 322.608276 280.019742 
L 322.694728 279.32377 
L 322.761008 279.32377 
L 322.850342 278.627797 
L 322.939676 278.627797 
L 323.02901 277.931825 
L 323.086644 277.931825 
L 323.155806 277.235853 
L 323.239377 277.235853 
L 323.317183 276.53988 
L 324.801279 276.53988 
L 324.887731 276.191894 
L 328.541775 275.843908 
L 328.6484 275.495922 
L 328.717562 275.147935 
L 331.460977 275.147935 
L 331.550311 274.799949 
L 331.584891 274.799949 
L 331.590655 274.451963 
L 331.734742 274.451963 
L 331.740505 274.103977 
L 331.893237 274.103977 
L 331.896119 273.755991 
L 332.020034 273.755991 
L 332.025797 273.408005 
L 332.437886 273.408005 
L 332.550274 272.712032 
L 335.832574 272.712032 
L 335.944962 272.01606 
L 336.048704 272.01606 
L 336.149565 271.320087 
L 336.250426 271.320087 
L 336.253308 270.972101 
L 340.241634 270.972101 
L 340.33385 270.624115 
L 340.356904 270.624115 
L 340.437592 270.276129 
L 342.679585 270.276129 
L 342.763155 269.928143 
L 342.809263 269.928143 
L 342.884188 269.23217 
L 342.993694 269.23217 
L 343.108964 268.536198 
L 343.20118 268.536198 
L 343.30204 267.840225 
L 343.428837 267.840225 
L 343.466299 267.144253 
L 350.460279 267.144253 
L 350.466042 266.796267 
L 350.762862 266.796267 
L 350.768625 266.448281 
L 352.869412 266.448281 
L 352.973155 265.752308 
L 354.12585 265.752308 
L 354.189249 265.056336 
L 354.281464 265.056336 
L 354.336217 264.360364 
L 354.463014 264.360364 
L 354.540821 263.664391 
L 355.91541 263.664391 
L 355.924055 263.316405 
L 356.840448 263.316405 
L 356.941309 262.968419 
L 357.687679 262.968419 
L 357.926864 261.92446 
L 359.304335 261.92446 
L 360.635698 261.576474 
L 360.650107 261.228488 
L 361.497338 261.228488 
L 361.503101 260.880502 
L 361.707705 260.880502 
L 361.920953 260.184529 
L 362.848873 260.184529 
L 362.952616 259.488557 
L 363.082294 259.488557 
L 363.088057 259.140571 
L 363.791202 259.140571 
L 363.892062 258.792585 
L 365.06493 258.792585 
L 365.165791 258.096612 
L 365.834354 258.096612 
L 366.021667 257.40064 
L 367.785291 257.40064 
L 367.897679 257.052654 
L 367.920733 257.052654 
L 368.001422 256.356681 
L 368.08211 256.356681 
L 368.171444 255.660709 
L 368.243488 255.660709 
L 368.318413 255.312723 
L 371.021484 255.312723 
L 371.119463 254.61675 
L 371.177098 254.61675 
L 371.246259 253.920778 
L 371.352884 253.920778 
L 371.465271 253.224805 
L 371.560369 253.224805 
L 371.675638 252.528833 
L 375.600566 252.528833 
L 375.710072 252.180847 
L 375.721599 252.180847 
L 375.724481 251.832861 
L 375.862804 251.832861 
L 375.95502 251.136888 
L 376.035709 251.136888 
L 376.110634 250.440916 
L 376.364227 250.440916 
L 376.367109 250.09293 
L 376.482378 250.09293 
L 376.491023 249.744944 
L 378.646564 249.744944 
L 378.770479 249.048971 
L 378.859813 249.048971 
L 378.865576 248.700985 
L 378.998136 248.700985 
L 378.998136 248.700985 
L 379.02119 248.352999 
L 383.459067 248.352999 
L 383.571455 248.005013 
L 383.5801 248.005013 
L 383.675198 247.30904 
L 383.735714 247.30904 
L 383.862511 246.265082 
L 383.920145 246.265082 
L 384.000834 245.569109 
L 384.101695 245.569109 
L 384.202556 244.873137 
L 384.355288 244.873137 
L 384.467676 244.177164 
L 387.562663 244.177164 
L 387.571308 243.829178 
L 391.51929 243.829178 
L 391.525053 243.481192 
L 391.71813 243.481192 
L 391.813227 242.78522 
L 391.879507 242.78522 
L 391.942906 242.089247 
L 392.012067 242.089247 
L 392.084111 241.393275 
L 392.156154 241.393275 
L 392.236843 240.697303 
L 392.294478 240.697303 
L 392.369403 240.00133 
L 393.902488 240.00133 
L 394.011994 239.653344 
L 394.046575 239.653344 
L 394.13879 238.957372 
L 394.231006 238.957372 
L 394.323222 238.261399 
L 396.717946 238.261399 
L 396.72371 237.913413 
L 398.418172 237.913413 
L 398.539205 237.217441 
L 398.631421 237.217441 
L 398.634303 236.869454 
L 398.758217 236.869454 
L 398.850433 236.173482 
L 398.94553 236.173482 
L 399.052155 235.47751 
L 399.150134 235.47751 
L 399.245231 234.781537 
L 399.314393 234.781537 
L 399.426781 234.085565 
L 417.769047 234.085565 
L 417.855499 233.389593 
L 417.92466 233.389593 
L 417.99094 232.69362 
L 418.042812 232.69362 
L 418.109092 231.997648 
L 418.166727 231.997648 
L 418.247415 231.301675 
L 418.342513 231.301675 
L 418.426083 230.605703 
L 418.501008 230.605703 
L 418.50389 230.257717 
L 426.754307 230.257717 
L 426.866695 229.213758 
L 426.953147 229.213758 
L 427.059772 228.517786 
L 427.137579 228.517786 
L 427.160633 227.821814 
L 429.221076 227.821814 
L 429.685036 227.473827 
L 431.385261 227.473827 
L 431.468832 226.777855 
L 431.529348 226.777855 
L 431.601392 226.081883 
L 431.673435 226.081883 
L 431.762769 225.38591 
L 431.849221 225.38591 
L 431.944319 225.037924 
L 435.445631 225.037924 
L 435.558019 224.341952 
L 435.635826 224.341952 
L 435.72516 223.645979 
L 435.814493 223.645979 
L 435.889419 222.950007 
L 440.592416 222.950007 
L 440.704804 222.602021 
L 440.750912 222.602021 
L 440.846009 221.906048 
L 440.923816 221.906048 
L 441.036204 221.210076 
L 441.047731 221.210076 
L 441.137065 220.514103 
L 441.194699 220.514103 
L 441.284033 219.818131 
L 441.34455 219.818131 
L 441.413711 219.122159 
L 441.528981 219.122159 
L 441.615433 218.426186 
L 458.424614 218.426186 
L 458.430378 218.0782 
L 458.588873 218.0782 
L 458.681089 217.382228 
L 458.79924 217.382228 
L 458.877047 216.686255 
L 468.957369 216.686255 
L 468.957369 216.686255 
L 469.066875 215.990283 
L 469.130273 215.990283 
L 469.236897 215.294311 
L 469.294532 215.294311 
L 469.375221 214.598338 
L 469.429974 214.598338 
L 469.510662 213.902366 
L 469.579824 213.902366 
L 469.666276 213.206393 
L 492.806637 213.206393 
L 492.916143 212.858407 
L 493.878644 212.858407 
L 493.953569 212.162435 
L 509.909755 212.162435 
L 509.987562 211.466463 
L 510.056724 211.466463 
L 510.059606 211.118476 
L 510.171994 211.118476 
L 510.241155 210.77049 
L 546.706675 210.77049 
L 546.721084 210.422504 
L 546.842117 210.422504 
L 546.922805 209.726532 
L 546.986204 209.726532 
L 547.052484 209.030559 
L 547.144699 209.030559 
L 547.254205 208.334587 
L 556.945492 208.334587 
L 557.011772 207.638614 
L 557.101106 207.638614 
L 557.17315 206.942642 
L 557.233666 206.942642 
L 557.299946 206.24667 
L 557.357581 206.24667 
L 557.363344 205.898683 
L 557.481496 205.898683 
L 557.567948 205.202711 
L 566.195873 205.202711 
L 566.29097 204.506739 
L 566.374541 204.506739 
L 566.478283 203.810766 
L 566.550327 203.810766 
L 566.619489 203.114794 
L 566.685769 203.114794 
L 566.75493 202.418822 
L 566.8702 202.418822 
L 566.875963 202.070835 
L 568.590598 202.070835 
L 568.67705 201.374863 
L 568.740448 201.374863 
L 568.844191 200.678891 
L 568.924879 200.678891 
L 568.927761 200.330904 
L 576.345356 200.330904 
L 576.451981 199.634932 
L 577.780462 199.634932 
L 577.875559 198.93896 
L 577.938958 198.93896 
L 578.008119 198.242987 
L 578.085926 198.242987 
L 578.094571 197.895001 
L 582.333609 197.895001 
L 582.45176 197.199029 
L 582.535331 197.199029 
L 582.630428 196.503056 
L 585.589973 196.503056 
L 585.713888 195.459098 
L 585.76576 195.459098 
L 585.852212 194.763125 
L 585.909846 194.763125 
L 585.973245 194.067153 
L 586.04817 194.067153 
L 586.183612 193.023194 
L 586.24701 193.023194 
L 586.368043 192.327222 
L 586.425678 192.327222 
L 586.509248 191.63125 
L 590.120067 191.63125 
L 590.128712 191.283263 
L 590.754049 191.283263 
L 590.903899 190.935277 
L 591.131557 190.935277 
L 591.194955 190.587291 
L 596.537698 190.587291 
L 596.65585 189.891319 
L 596.725011 189.891319 
L 596.825872 188.84736 
L 596.897916 188.84736 
L 596.987249 188.151388 
L 597.044884 188.151388 
L 597.1371 187.803402 
L 597.20338 187.803402 
L 597.214907 187.455415 
L 604.194478 187.455415 
L 604.292457 186.759443 
L 604.34721 186.759443 
L 604.410608 186.063471 
L 604.491297 186.063471 
L 604.551813 185.367498 
L 604.67861 185.367498 
L 604.739126 184.671526 
L 604.819815 184.671526 
L 604.912031 183.975553 
L 604.969665 183.975553 
L 605.007128 183.279581 
L 608.29231 183.279581 
L 608.298073 182.931595 
L 608.525731 182.931595 
L 608.632355 182.235622 
L 613.554364 182.235622 
L 613.588945 181.53965 
L 615.035578 181.53965 
L 615.12203 181.191664 
L 615.626335 181.191664 
L 615.741604 180.495692 
L 615.819411 179.799719 
L 615.879928 179.799719 
L 615.882809 179.451733 
L 618.683859 179.451733 
L 618.686741 179.103747 
L 622.072784 179.103747 
L 622.185171 178.755761 
L 622.193817 178.755761 
L 622.196698 178.407774 
L 623.023757 178.407774 
L 623.136145 177.711802 
L 623.271587 177.711802 
L 623.34363 177.01583 
L 623.401265 177.01583 
L 623.470427 176.667843 
L 625.323385 176.667843 
L 625.389665 175.971871 
L 626.620167 175.971871 
L 626.700856 175.275899 
L 626.758491 175.275899 
L 626.87376 174.579926 
L 626.942922 173.883954 
L 628.689255 173.883954 
L 628.706546 173.535968 
L 630.856323 173.535968 
L 630.983119 172.492009 
L 631.060926 172.492009 
L 631.118561 171.796037 
L 631.190604 171.796037 
L 631.308756 170.752078 
L 631.369272 170.752078 
L 631.441316 170.056106 
L 635.302845 170.056106 
L 635.40947 169.360133 
L 635.469986 169.360133 
L 635.539148 168.664161 
L 635.611191 168.664161 
L 635.683235 167.968189 
L 635.775451 167.968189 
L 635.847494 167.272216 
L 636.369089 167.272216 
L 636.478595 166.576244 
L 636.518939 166.576244 
L 636.631327 165.532285 
L 636.706252 165.532285 
L 636.778296 164.836313 
L 642.446675 164.836313 
L 642.544654 164.140341 
L 642.605171 164.140341 
L 642.694505 163.444368 
L 642.749258 163.444368 
L 642.838592 162.748396 
L 642.899108 162.748396 
L 642.974033 162.052423 
L 643.048959 162.052423 
L 643.08354 161.704437 
L 658.653573 161.704437 
L 658.754434 161.008465 
L 658.81495 161.008465 
L 658.878349 160.312492 
L 658.938865 160.312492 
L 659.123296 159.964506 
L 664.771504 159.964506 
L 664.883892 159.61652 
L 664.895419 159.61652 
L 664.970344 158.920548 
L 665.053914 158.920548 
L 665.157657 158.224575 
L 666.60429 158.224575 
L 666.696505 157.528603 
L 667.027905 157.528603 
L 667.030787 157.180617 
L 668.650324 157.180617 
L 668.731013 156.484644 
L 668.782884 156.484644 
L 668.846282 155.788672 
L 668.909681 155.788672 
L 668.918326 155.440686 
L 672.215035 155.440686 
L 672.28996 154.744713 
L 672.367767 154.744713 
L 672.457101 154.048741 
L 672.517617 154.048741 
L 672.604069 153.352769 
L 672.661704 153.352769 
L 672.75392 152.656796 
L 672.823082 152.656796 
L 672.823082 152.656796 
L 672.895125 151.960824 
L 672.961405 151.960824 
L 673.079556 151.264851 
L 673.825927 151.264851 
L 673.944078 150.568879 
L 674.01324 150.568879 
L 674.024766 150.220893 
L 683.597902 150.220893 
L 683.603665 149.872907 
L 683.886076 149.872907 
L 683.963883 149.176934 
L 684.165604 149.176934 
L 684.252057 148.480962 
L 684.315455 148.480962 
L 684.384617 147.78499 
L 684.442251 147.78499 
L 684.566166 147.089017 
L 687.136677 147.089017 
L 687.14244 146.741031 
L 706.409744 146.741031 
L 706.496197 146.045059 
L 706.559595 146.045059 
L 706.565358 145.697072 
L 706.801661 145.697072 
L 706.804543 145.349086 
L 706.968802 145.349086 
L 707.04949 144.653114 
L 707.104243 144.653114 
L 707.184932 143.957141 
L 707.256976 143.957141 
L 707.346309 143.261169 
L 740.411378 143.261169 
L 740.518002 142.565197 
L 740.584282 142.565197 
L 740.667852 141.869224 
L 740.745659 141.869224 
L 740.748541 141.521238 
L 751.753901 141.521238 
L 751.877815 140.825266 
L 751.978676 140.825266 
L 752.047838 140.129293 
L 752.108355 140.129293 
L 752.191925 139.433321 
L 759.318464 139.433321 
L 759.439497 138.737349 
L 772.557171 138.737349 
L 772.649387 138.041376 
L 772.715667 138.041376 
L 772.784829 137.345404 
L 772.85399 137.345404 
L 772.975023 136.649431 
L 773.049949 136.649431 
L 773.113347 135.953459 
L 787.899548 135.953459 
L 787.986 135.257487 
L 788.060925 135.257487 
L 788.164667 134.561514 
L 788.225184 134.561514 
L 788.236711 134.213528 
L 801.507117 134.213528 
L 801.772237 133.16957 
L 801.792409 133.16957 
L 801.878861 132.473597 
L 801.924969 132.473597 
L 802.051766 131.429639 
L 802.112282 131.429639 
L 802.204498 130.733666 
L 802.270778 130.733666 
L 802.270778 130.733666 
L 802.334176 130.037694 
L 815.368279 130.037694 
L 815.434559 129.341721 
L 815.642045 129.341721 
L 815.754432 128.645749 
L 815.820712 128.645749 
L 815.892756 127.949777 
L 816.186693 127.949777 
L 816.261618 127.253804 
L 818.860947 127.253804 
L 818.956044 126.905818 
L 821.342124 126.905818 
L 821.440103 126.209846 
L 821.500619 126.209846 
L 821.589953 125.513873 
L 821.653351 125.513873 
L 821.728276 124.817901 
L 821.780148 124.817901 
L 821.8666 124.121929 
L 823.223899 124.121929 
L 825.111438 123.773942 
L 825.117201 123.425956 
L 828.532061 123.425956 
L 828.595459 122.729984 
L 828.676148 122.729984 
L 828.771246 122.034011 
L 828.834644 122.034011 
L 828.923978 121.338039 
L 828.996021 121.338039 
L 829.073828 120.642067 
L 829.186216 120.642067 
L 829.191979 120.29408 
L 835.710472 120.29408 
L 835.799806 119.598108 
L 835.868968 119.598108 
L 835.943893 118.902136 
L 836.018818 118.902136 
L 836.0217 118.55415 
L 836.330046 118.55415 
L 836.428025 118.206163 
L 840.765041 118.206163 
L 840.770805 117.858177 
L 841.277991 117.858177 
L 841.286636 117.510191 
L 843.179938 117.510191 
L 843.185702 117.162205 
L 848.456402 117.162205 
L 848.597607 116.118246 
L 848.655242 116.118246 
L 848.73593 115.77026 
L 848.877135 115.074288 
L 848.954942 115.074288 
L 849.047158 114.378315 
L 849.122083 114.378315 
L 849.179718 113.682343 
L 849.24888 113.682343 
L 849.323805 112.98637 
L 849.384321 112.98637 
L 849.453483 112.290398 
L 851.891434 112.290398 
L 851.902961 111.942412 
L 861.251321 111.942412 
L 861.352182 111.24644 
L 861.427107 111.24644 
L 861.493387 110.550467 
L 861.574076 110.550467 
L 861.643237 109.854495 
L 861.721044 109.854495 
L 861.804615 109.506509 
L 863.893875 109.506509 
L 863.963037 108.810536 
L 864.046607 108.810536 
L 864.112887 108.114564 
L 864.179167 108.114564 
L 864.262738 107.418591 
L 864.346308 107.418591 
L 864.34919 107.070605 
L 864.801623 107.070605 
L 865.504767 106.722619 
L 866.919701 106.722619 
L 866.928346 106.374633 
L 869.455631 106.374633 
L 869.533437 105.67866 
L 869.588191 105.67866 
L 869.593954 105.330674 
L 869.714987 105.330674 
L 869.72075 104.982688 
L 872.109712 104.982688 
L 872.23939 103.93873 
L 872.285498 103.93873 
L 872.418058 102.894771 
L 872.478574 102.894771 
L 872.481456 102.546785 
L 875.224871 102.546785 
L 875.233516 102.198799 
L 876.305523 102.198799 
L 876.556234 100.806854 
L 881.394673 100.806854 
L 881.518588 99.762895 
L 881.596395 99.762895 
L 881.651148 99.066923 
L 881.728955 99.066923 
L 881.838461 98.37095 
L 881.887451 98.37095 
L 881.945085 97.674978 
L 882.057473 97.674978 
L 882.169861 96.979006 
L 882.230378 96.979006 
L 882.325475 96.283033 
L 882.385991 96.283033 
L 882.446508 95.587061 
L 882.547369 95.587061 
L 882.633821 94.891089 
L 882.694338 94.891089 
L 882.775026 94.195116 
L 883.184233 94.195116 
L 883.189997 93.84713 
L 886.740298 93.84713 
L 886.80946 93.151158 
L 886.87574 93.151158 
L 886.887267 92.803171 
L 892.54412 92.803171 
L 892.644981 92.107199 
L 908.843233 92.107199 
L 908.912395 91.411227 
L 908.984438 91.411227 
L 909.065127 90.715254 
L 909.108353 90.715254 
L 909.194805 90.019282 
L 909.23515 90.019282 
L 909.333129 89.323309 
L 909.609776 87.931365 
L 910.191887 87.931365 
L 910.269694 87.235392 
L 910.3792 87.235392 
L 910.46277 86.53942 
L 918.162776 86.53942 
L 918.25211 85.843448 
L 923.211582 85.843448 
L 923.283625 85.147475 
L 923.352787 85.147475 
L 923.617907 83.75553 
L 923.687069 83.75553 
L 923.767757 83.407544 
L 924.776366 83.407544 
L 924.782129 83.059558 
L 924.955034 83.059558 
L 925.018432 82.363586 
L 925.096239 82.363586 
L 925.171164 82.015599 
L 932.997966 82.015599 
L 933.0873 81.319627 
L 933.15358 81.319627 
L 933.225623 80.623655 
L 933.28614 80.623655 
L 933.355301 79.927682 
L 933.450399 79.927682 
L 933.548378 79.23171 
L 948.706323 79.23171 
L 948.812947 78.535738 
L 948.873464 78.535738 
L 948.988733 77.491779 
L 949.086712 77.491779 
L 949.086712 77.491779 
L 949.193337 76.795807 
L 958.224705 76.795807 
L 958.322684 76.099834 
L 958.39761 76.099834 
L 958.466771 75.403862 
L 958.538815 75.403862 
L 958.642557 74.707889 
L 958.717483 74.707889 
L 958.777999 74.359903 
L 969.962026 74.359903 
L 970.060005 73.663931 
L 970.11764 73.663931 
L 970.11764 73.663931 
L 970.201211 72.967959 
L 970.253082 72.967959 
L 970.322244 72.271986 
L 1001.416203 72.271986 
L 1001.496891 71.576014 
L 1001.563171 71.576014 
L 1001.563171 71.576014 
L 1001.666914 70.880041 
L 1030.579397 70.880041 
L 1030.68314 70.184069 
L 1030.769592 70.184069 
L 1030.838754 69.488097 
L 1030.91656 69.488097 
L 1030.985722 68.792124 
L 1031.043357 68.792124 
L 1031.129809 68.096152 
L 1045.907364 68.096152 
L 1045.98229 67.400179 
L 1046.034161 67.400179 
L 1046.097559 66.704207 
L 1046.155194 66.704207 
L 1046.227237 66.008235 
L 1046.307926 66.008235 
L 1046.434723 64.964276 
L 1046.526938 64.964276 
L 1046.587455 64.268304 
L 1046.653735 64.268304 
L 1046.659498 63.920318 
L 1056.970359 63.920318 
L 1056.976122 63.572331 
L 1058.875188 63.572331 
L 1058.976049 62.876359 
L 1059.039447 62.876359 
L 1059.125899 62.180387 
L 1065.912394 62.180387 
L 1066.082416 61.136428 
L 1066.140051 61.136428 
L 1066.212094 60.440456 
L 1066.261084 60.440456 
L 1066.315837 59.744483 
L 1066.379235 59.744483 
L 1066.382117 59.396497 
L 1066.52044 59.396497 
L 1066.58672 58.700525 
L 1066.653 58.700525 
L 1066.736571 58.004552 
L 1067.007454 58.004552 
L 1067.013218 57.656566 
L 1074.966816 57.656566 
L 1074.969698 57.30858 
L 1075.940844 57.30858 
L 1076.030178 56.960594 
L 1079.044476 56.960594 
L 1079.125165 56.264621 
L 1079.174154 56.264621 
L 1079.28366 55.568649 
L 1079.511318 54.176704 
L 1079.571834 54.176704 
L 1079.675577 53.132746 
L 1079.727448 53.132746 
L 1079.79661 52.436773 
L 1079.868653 52.436773 
L 1079.94646 51.740801 
L 1084.148035 51.740801 
L 1084.228724 51.044828 
L 1084.283477 51.044828 
L 1084.378574 50.348856 
L 1084.439091 50.348856 
L 1084.441973 50.00087 
L 1090.715517 50.00087 
L 1090.778916 49.304898 
L 1090.850959 49.304898 
L 1090.853841 48.956911 
L 1091.239994 48.956911 
L 1091.323564 48.260939 
L 1091.389844 48.260939 
L 1091.484942 47.564967 
L 1096.029443 47.564967 
L 1096.121659 46.868994 
L 1096.182175 46.868994 
L 1096.262864 46.173022 
L 1096.332026 46.173022 
L 1096.424241 45.477049 
L 1098.844902 45.477049 
L 1099.30598 45.129063 
L 1099.45583 45.129063 
L 1099.565336 44.433091 
L 1102.020578 44.433091 
L 1102.395204 44.085105 
L 1104.092548 44.085105 
L 1104.449883 43.737118 
L 1104.648723 43.737118 
L 1104.657369 43.389132 
L 1109.389183 43.389132 
L 1109.46699 42.69316 
L 1109.977058 42.69316 
L 1109.97994 42.345174 
L 1110.242178 42.345174 
L 1110.24506 41.997187 
L 1113.040346 41.997187 
L 1113.040346 41.997187 
" clip-path="url(#p6fcd33b06a)" style="fill: none; stroke: #0000ff; stroke-width: 1.5; stroke-linecap: square"/>
   </g>
   <g id="patch_147">
    <path d="M 49.235 359.517187 
L 49.235 26.877187 
" style="fill: none; stroke: #000000; stroke-width: 0.8; stroke-linejoin: miter; stroke-linecap: square"/>
   </g>
   <g id="patch_148">
    <path d="M 1165.235 359.517187 
L 1165.235 26.877187 
" style="fill: none; stroke: #000000; stroke-width: 0.8; stroke-linejoin: miter; stroke-linecap: square"/>
   </g>
   <g id="patch_149">
    <path d="M 49.235 359.517187 
L 1165.235 359.517187 
" style="fill: none; stroke: #000000; stroke-width: 0.8; stroke-linejoin: miter; stroke-linecap: square"/>
   </g>
   <g id="patch_150">
    <path d="M 49.235 26.877187 
L 1165.235 26.877187 
" style="fill: none; stroke: #000000; stroke-width: 0.8; stroke-linejoin: miter; stroke-linecap: square"/>
   </g>
   <g id="text_17">
    <!-- Pellet Count and Cumulative Sum Over Time of Group 12 Mouse 3 -->
    <g transform="translate(309.734375 20.877187) scale(0.18 -0.18)">
     <defs>
      <path id="DejaVuSans-61" d="M 2194 1759 
Q 1497 1759 1228 1600 
Q 959 1441 959 1056 
Q 959 750 1161 570 
Q 1363 391 1709 391 
Q 2188 391 2477 730 
Q 2766 1069 2766 1631 
L 2766 1759 
L 2194 1759 
z
M 3341 1997 
L 3341 0 
L 2766 0 
L 2766 531 
Q 2569 213 2275 61 
Q 1981 -91 1556 -91 
Q 1019 -91 701 211 
Q 384 513 384 1019 
Q 384 1609 779 1909 
Q 1175 2209 1959 2209 
L 2766 2209 
L 2766 2266 
Q 2766 2663 2505 2880 
Q 2244 3097 1772 3097 
Q 1472 3097 1187 3025 
Q 903 2953 641 2809 
L 641 3341 
Q 956 3463 1253 3523 
Q 1550 3584 1831 3584 
Q 2591 3584 2966 3190 
Q 3341 2797 3341 1997 
z
" transform="scale(0.015625)"/>
      <path id="DejaVuSans-64" d="M 2906 2969 
L 2906 4863 
L 3481 4863 
L 3481 0 
L 2906 0 
L 2906 525 
Q 2725 213 2448 61 
Q 2172 -91 1784 -91 
Q 1150 -91 751 415 
Q 353 922 353 1747 
Q 353 2572 751 3078 
Q 1150 3584 1784 3584 
Q 2172 3584 2448 3432 
Q 2725 3281 2906 2969 
z
M 947 1747 
Q 947 1113 1208 752 
Q 1469 391 1925 391 
Q 2381 391 2643 752 
Q 2906 1113 2906 1747 
Q 2906 2381 2643 2742 
Q 2381 3103 1925 3103 
Q 1469 3103 1208 2742 
Q 947 2381 947 1747 
z
" transform="scale(0.015625)"/>
      <path id="DejaVuSans-76" d="M 191 3500 
L 800 3500 
L 1894 563 
L 2988 3500 
L 3597 3500 
L 2284 0 
L 1503 0 
L 191 3500 
z
" transform="scale(0.015625)"/>
      <path id="DejaVuSans-53" d="M 3425 4513 
L 3425 3897 
Q 3066 4069 2747 4153 
Q 2428 4238 2131 4238 
Q 1616 4238 1336 4038 
Q 1056 3838 1056 3469 
Q 1056 3159 1242 3001 
Q 1428 2844 1947 2747 
L 2328 2669 
Q 3034 2534 3370 2195 
Q 3706 1856 3706 1288 
Q 3706 609 3251 259 
Q 2797 -91 1919 -91 
Q 1588 -91 1214 -16 
Q 841 59 441 206 
L 441 856 
Q 825 641 1194 531 
Q 1563 422 1919 422 
Q 2459 422 2753 634 
Q 3047 847 3047 1241 
Q 3047 1584 2836 1778 
Q 2625 1972 2144 2069 
L 1759 2144 
Q 1053 2284 737 2584 
Q 422 2884 422 3419 
Q 422 4038 858 4394 
Q 1294 4750 2059 4750 
Q 2388 4750 2728 4690 
Q 3069 4631 3425 4513 
z
" transform="scale(0.015625)"/>
      <path id="DejaVuSans-4f" d="M 2522 4238 
Q 1834 4238 1429 3725 
Q 1025 3213 1025 2328 
Q 1025 1447 1429 934 
Q 1834 422 2522 422 
Q 3209 422 3611 934 
Q 4013 1447 4013 2328 
Q 4013 3213 3611 3725 
Q 3209 4238 2522 4238 
z
M 2522 4750 
Q 3503 4750 4090 4092 
Q 4678 3434 4678 2328 
Q 4678 1225 4090 567 
Q 3503 -91 2522 -91 
Q 1538 -91 948 565 
Q 359 1222 359 2328 
Q 359 3434 948 4092 
Q 1538 4750 2522 4750 
z
" transform="scale(0.015625)"/>
      <path id="DejaVuSans-72" d="M 2631 2963 
Q 2534 3019 2420 3045 
Q 2306 3072 2169 3072 
Q 1681 3072 1420 2755 
Q 1159 2438 1159 1844 
L 1159 0 
L 581 0 
L 581 3500 
L 1159 3500 
L 1159 2956 
Q 1341 3275 1631 3429 
Q 1922 3584 2338 3584 
Q 2397 3584 2469 3576 
Q 2541 3569 2628 3553 
L 2631 2963 
z
" transform="scale(0.015625)"/>
      <path id="DejaVuSans-66" d="M 2375 4863 
L 2375 4384 
L 1825 4384 
Q 1516 4384 1395 4259 
Q 1275 4134 1275 3809 
L 1275 3500 
L 2222 3500 
L 2222 3053 
L 1275 3053 
L 1275 0 
L 697 0 
L 697 3053 
L 147 3053 
L 147 3500 
L 697 3500 
L 697 3744 
Q 697 4328 969 4595 
Q 1241 4863 1831 4863 
L 2375 4863 
z
" transform="scale(0.015625)"/>
      <path id="DejaVuSans-47" d="M 3809 666 
L 3809 1919 
L 2778 1919 
L 2778 2438 
L 4434 2438 
L 4434 434 
Q 4069 175 3628 42 
Q 3188 -91 2688 -91 
Q 1594 -91 976 548 
Q 359 1188 359 2328 
Q 359 3472 976 4111 
Q 1594 4750 2688 4750 
Q 3144 4750 3555 4637 
Q 3966 4525 4313 4306 
L 4313 3634 
Q 3963 3931 3569 4081 
Q 3175 4231 2741 4231 
Q 1884 4231 1454 3753 
Q 1025 3275 1025 2328 
Q 1025 1384 1454 906 
Q 1884 428 2741 428 
Q 3075 428 3337 486 
Q 3600 544 3809 666 
z
" transform="scale(0.015625)"/>
      <path id="DejaVuSans-70" d="M 1159 525 
L 1159 -1331 
L 581 -1331 
L 581 3500 
L 1159 3500 
L 1159 2969 
Q 1341 3281 1617 3432 
Q 1894 3584 2278 3584 
Q 2916 3584 3314 3078 
Q 3713 2572 3713 1747 
Q 3713 922 3314 415 
Q 2916 -91 2278 -91 
Q 1894 -91 1617 61 
Q 1341 213 1159 525 
z
M 3116 1747 
Q 3116 2381 2855 2742 
Q 2594 3103 2138 3103 
Q 1681 3103 1420 2742 
Q 1159 2381 1159 1747 
Q 1159 1113 1420 752 
Q 1681 391 2138 391 
Q 2594 391 2855 752 
Q 3116 1113 3116 1747 
z
" transform="scale(0.015625)"/>
      <path id="DejaVuSans-4d" d="M 628 4666 
L 1569 4666 
L 2759 1491 
L 3956 4666 
L 4897 4666 
L 4897 0 
L 4281 0 
L 4281 4097 
L 3078 897 
L 2444 897 
L 1241 4097 
L 1241 0 
L 628 0 
L 628 4666 
z
" transform="scale(0.015625)"/>
      <path id="DejaVuSans-73" d="M 2834 3397 
L 2834 2853 
Q 2591 2978 2328 3040 
Q 2066 3103 1784 3103 
Q 1356 3103 1142 2972 
Q 928 2841 928 2578 
Q 928 2378 1081 2264 
Q 1234 2150 1697 2047 
L 1894 2003 
Q 2506 1872 2764 1633 
Q 3022 1394 3022 966 
Q 3022 478 2636 193 
Q 2250 -91 1575 -91 
Q 1294 -91 989 -36 
Q 684 19 347 128 
L 347 722 
Q 666 556 975 473 
Q 1284 391 1588 391 
Q 1994 391 2212 530 
Q 2431 669 2431 922 
Q 2431 1156 2273 1281 
Q 2116 1406 1581 1522 
L 1381 1569 
Q 847 1681 609 1914 
Q 372 2147 372 2553 
Q 372 3047 722 3315 
Q 1072 3584 1716 3584 
Q 2034 3584 2315 3537 
Q 2597 3491 2834 3397 
z
" transform="scale(0.015625)"/>
      <path id="DejaVuSans-33" d="M 2597 2516 
Q 3050 2419 3304 2112 
Q 3559 1806 3559 1356 
Q 3559 666 3084 287 
Q 2609 -91 1734 -91 
Q 1441 -91 1130 -33 
Q 819 25 488 141 
L 488 750 
Q 750 597 1062 519 
Q 1375 441 1716 441 
Q 2309 441 2620 675 
Q 2931 909 2931 1356 
Q 2931 1769 2642 2001 
Q 2353 2234 1838 2234 
L 1294 2234 
L 1294 2753 
L 1863 2753 
Q 2328 2753 2575 2939 
Q 2822 3125 2822 3475 
Q 2822 3834 2567 4026 
Q 2313 4219 1838 4219 
Q 1578 4219 1281 4162 
Q 984 4106 628 3988 
L 628 4550 
Q 988 4650 1302 4700 
Q 1616 4750 1894 4750 
Q 2613 4750 3031 4423 
Q 3450 4097 3450 3541 
Q 3450 3153 3228 2886 
Q 3006 2619 2597 2516 
z
" transform="scale(0.015625)"/>
     </defs>
     <use xlink:href="#DejaVuSans-50"/>
     <use xlink:href="#DejaVuSans-65" x="56.677734"/>
     <use xlink:href="#DejaVuSans-6c" x="118.201172"/>
     <use xlink:href="#DejaVuSans-6c" x="145.984375"/>
     <use xlink:href="#DejaVuSans-65" x="173.767578"/>
     <use xlink:href="#DejaVuSans-74" x="235.291016"/>
     <use xlink:href="#DejaVuSans-20" x="274.5"/>
     <use xlink:href="#DejaVuSans-43" x="306.287109"/>
     <use xlink:href="#DejaVuSans-6f" x="376.111328"/>
     <use xlink:href="#DejaVuSans-75" x="437.292969"/>
     <use xlink:href="#DejaVuSans-6e" x="500.671875"/>
     <use xlink:href="#DejaVuSans-74" x="564.050781"/>
     <use xlink:href="#DejaVuSans-20" x="603.259766"/>
     <use xlink:href="#DejaVuSans-61" x="635.046875"/>
     <use xlink:href="#DejaVuSans-6e" x="696.326172"/>
     <use xlink:href="#DejaVuSans-64" x="759.705078"/>
     <use xlink:href="#DejaVuSans-20" x="823.181641"/>
     <use xlink:href="#DejaVuSans-43" x="854.96875"/>
     <use xlink:href="#DejaVuSans-75" x="924.792969"/>
     <use xlink:href="#DejaVuSans-6d" x="988.171875"/>
     <use xlink:href="#DejaVuSans-75" x="1085.583984"/>
     <use xlink:href="#DejaVuSans-6c" x="1148.962891"/>
     <use xlink:href="#DejaVuSans-61" x="1176.746094"/>
     <use xlink:href="#DejaVuSans-74" x="1238.025391"/>
     <use xlink:href="#DejaVuSans-69" x="1277.234375"/>
     <use xlink:href="#DejaVuSans-76" x="1305.017578"/>
     <use xlink:href="#DejaVuSans-65" x="1364.197266"/>
     <use xlink:href="#DejaVuSans-20" x="1425.720703"/>
     <use xlink:href="#DejaVuSans-53" x="1457.507812"/>
     <use xlink:href="#DejaVuSans-75" x="1520.984375"/>
     <use xlink:href="#DejaVuSans-6d" x="1584.363281"/>
     <use xlink:href="#DejaVuSans-20" x="1681.775391"/>
     <use xlink:href="#DejaVuSans-4f" x="1713.5625"/>
     <use xlink:href="#DejaVuSans-76" x="1792.273438"/>
     <use xlink:href="#DejaVuSans-65" x="1851.453125"/>
     <use xlink:href="#DejaVuSans-72" x="1912.976562"/>
     <use xlink:href="#DejaVuSans-20" x="1954.089844"/>
     <use xlink:href="#DejaVuSans-54" x="1985.876953"/>
     <use xlink:href="#DejaVuSans-69" x="2043.835938"/>
     <use xlink:href="#DejaVuSans-6d" x="2071.619141"/>
     <use xlink:href="#DejaVuSans-65" x="2169.03125"/>
     <use xlink:href="#DejaVuSans-20" x="2230.554688"/>
     <use xlink:href="#DejaVuSans-6f" x="2262.341797"/>
     <use xlink:href="#DejaVuSans-66" x="2323.523438"/>
     <use xlink:href="#DejaVuSans-20" x="2358.728516"/>
     <use xlink:href="#DejaVuSans-47" x="2390.515625"/>
     <use xlink:href="#DejaVuSans-72" x="2468.005859"/>
     <use xlink:href="#DejaVuSans-6f" x="2506.869141"/>
     <use xlink:href="#DejaVuSans-75" x="2568.050781"/>
     <use xlink:href="#DejaVuSans-70" x="2631.429688"/>
     <use xlink:href="#DejaVuSans-20" x="2694.90625"/>
     <use xlink:href="#DejaVuSans-31" x="2726.693359"/>
     <use xlink:href="#DejaVuSans-32" x="2790.316406"/>
     <use xlink:href="#DejaVuSans-20" x="2853.939453"/>
     <use xlink:href="#DejaVuSans-4d" x="2885.726562"/>
     <use xlink:href="#DejaVuSans-6f" x="2972.005859"/>
     <use xlink:href="#DejaVuSans-75" x="3033.1875"/>
     <use xlink:href="#DejaVuSans-73" x="3096.566406"/>
     <use xlink:href="#DejaVuSans-65" x="3148.666016"/>
     <use xlink:href="#DejaVuSans-20" x="3210.189453"/>
     <use xlink:href="#DejaVuSans-33" x="3241.976562"/>
    </g>
   </g>
   <g id="legend_1">
    <g id="patch_151">
     <path d="M 1086.550625 64.233437 
L 1158.235 64.233437 
Q 1160.235 64.233437 1160.235 62.233437 
L 1160.235 33.877187 
Q 1160.235 31.877187 1158.235 31.877187 
L 1086.550625 31.877187 
Q 1084.550625 31.877187 1084.550625 33.877187 
L 1084.550625 62.233437 
Q 1084.550625 64.233437 1086.550625 64.233437 
z
" style="fill: #ffffff; opacity: 0.8; stroke: #cccccc; stroke-linejoin: miter"/>
    </g>
    <g id="patch_152">
     <path d="M 1088.550625 43.475625 
L 1108.550625 43.475625 
L 1108.550625 36.475625 
L 1088.550625 36.475625 
z
" style="fill: #add8e6; opacity: 0.9; stroke: #add8e6; stroke-linejoin: miter"/>
    </g>
    <g id="text_18">
     <!-- Meal -->
     <g transform="translate(1116.550625 43.475625) scale(0.1 -0.1)">
      <use xlink:href="#DejaVuSans-4d"/>
      <use xlink:href="#DejaVuSans-65" x="86.279297"/>
      <use xlink:href="#DejaVuSans-61" x="147.802734"/>
      <use xlink:href="#DejaVuSans-6c" x="209.082031"/>
     </g>
    </g>
    <g id="patch_153">
     <path d="M 1088.550625 58.15375 
L 1108.550625 58.15375 
L 1108.550625 51.15375 
L 1088.550625 51.15375 
z
" style="fill: #808080; opacity: 0.5; stroke: #808080; stroke-linejoin: miter"/>
    </g>
    <g id="text_19">
     <!-- Inactive -->
     <g transform="translate(1116.550625 58.15375) scale(0.1 -0.1)">
      <defs>
       <path id="DejaVuSans-49" d="M 628 4666 
L 1259 4666 
L 1259 0 
L 628 0 
L 628 4666 
z
" transform="scale(0.015625)"/>
       <path id="DejaVuSans-63" d="M 3122 3366 
L 3122 2828 
Q 2878 2963 2633 3030 
Q 2388 3097 2138 3097 
Q 1578 3097 1268 2742 
Q 959 2388 959 1747 
Q 959 1106 1268 751 
Q 1578 397 2138 397 
Q 2388 397 2633 464 
Q 2878 531 3122 666 
L 3122 134 
Q 2881 22 2623 -34 
Q 2366 -91 2075 -91 
Q 1284 -91 818 406 
Q 353 903 353 1747 
Q 353 2603 823 3093 
Q 1294 3584 2113 3584 
Q 2378 3584 2631 3529 
Q 2884 3475 3122 3366 
z
" transform="scale(0.015625)"/>
      </defs>
      <use xlink:href="#DejaVuSans-49"/>
      <use xlink:href="#DejaVuSans-6e" x="29.492188"/>
      <use xlink:href="#DejaVuSans-61" x="92.871094"/>
      <use xlink:href="#DejaVuSans-63" x="154.150391"/>
      <use xlink:href="#DejaVuSans-74" x="209.130859"/>
      <use xlink:href="#DejaVuSans-69" x="248.339844"/>
      <use xlink:href="#DejaVuSans-76" x="276.123047"/>
      <use xlink:href="#DejaVuSans-65" x="335.302734"/>
     </g>
    </g>
   </g>
  </g>
 </g>
 <defs>
  <clipPath id="p6fcd33b06a">
   <rect x="49.235" y="26.877187" width="1116" height="332.64"/>
  </clipPath>
 </defs>
</svg>
