<?xml version="1.0" encoding="utf-8" standalone="no"?>
<!DOCTYPE svg PUBLIC "-//W3C//DTD SVG 1.1//EN"
  "http://www.w3.org/Graphics/SVG/1.1/DTD/svg11.dtd">
<svg xmlns:xlink="http://www.w3.org/1999/xlink" width="1172.435pt" height="399.009062pt" viewBox="0 0 1172.435 399.009062" xmlns="http://www.w3.org/2000/svg" version="1.1">
 <metadata>
  <rdf:RDF xmlns:dc="http://purl.org/dc/elements/1.1/" xmlns:cc="http://creativecommons.org/ns#" xmlns:rdf="http://www.w3.org/1999/02/22-rdf-syntax-ns#">
   <cc:Work>
    <dc:type rdf:resource="http://purl.org/dc/dcmitype/StillImage"/>
    <dc:date>2025-04-09T09:55:33.137866</dc:date>
    <dc:format>image/svg+xml</dc:format>
    <dc:creator>
     <cc:Agent>
      <dc:title>Matplotlib v3.8.3, https://matplotlib.org/</dc:title>
     </cc:Agent>
    </dc:creator>
   </cc:Work>
  </rdf:RDF>
 </metadata>
 <defs>
  <style type="text/css">*{stroke-linejoin: round; stroke-linecap: butt}</style>
 </defs>
 <g id="figure_1">
  <g id="patch_1">
   <path d="M 0 399.009062 
L 1172.435 399.009062 
L 1172.435 0 
L 0 0 
z
" style="fill: #ffffff"/>
  </g>
  <g id="axes_1">
   <g id="patch_2">
    <path d="M 49.235 359.517187 
L 1165.235 359.517187 
L 1165.235 26.877187 
L 49.235 26.877187 
z
" style="fill: #ffffff"/>
   </g>
   <g id="patch_3">
    <path d="M 109.263208 359.517187 
L 109.263208 26.877187 
L 109.263208 26.877187 
z
" clip-path="url(#p746eb1313c)" style="fill: #add8e6; stroke: #add8e6; stroke-linejoin: miter"/>
   </g>
   <g id="patch_4">
    <path d="M 111.406905 359.517187 
L 111.406905 26.877187 
L 110.903814 26.877187 
L 110.903814 359.517187 
z
" clip-path="url(#p746eb1313c)" style="fill: #add8e6; stroke: #add8e6; stroke-linejoin: miter"/>
   </g>
   <g id="patch_5">
    <path d="M 115.446228 359.517187 
L 115.446228 26.877187 
L 115.587288 26.877187 
L 115.587288 359.517187 
z
" clip-path="url(#p746eb1313c)" style="fill: #add8e6; stroke: #add8e6; stroke-linejoin: miter"/>
   </g>
   <g id="patch_6">
    <path d="M 117.453729 359.517187 
L 117.453729 26.877187 
L 117.578807 26.877187 
L 117.578807 359.517187 
z
" clip-path="url(#p746eb1313c)" style="fill: #add8e6; stroke: #add8e6; stroke-linejoin: miter"/>
   </g>
   <g id="patch_7">
    <path d="M 128.42376 359.517187 
L 128.42376 26.877187 
L 127.433559 26.877187 
L 127.433559 359.517187 
z
" clip-path="url(#p746eb1313c)" style="fill: #add8e6; stroke: #add8e6; stroke-linejoin: miter"/>
   </g>
   <g id="patch_8">
    <path d="M 132.770218 359.517187 
L 132.770218 26.877187 
L 132.767439 26.877187 
L 132.767439 359.517187 
z
" clip-path="url(#p746eb1313c)" style="fill: #add8e6; stroke: #add8e6; stroke-linejoin: miter"/>
   </g>
   <g id="patch_9">
    <path d="M 138.818432 359.517187 
L 138.818432 26.877187 
L 138.982423 26.877187 
L 138.982423 359.517187 
z
" clip-path="url(#p746eb1313c)" style="fill: #add8e6; stroke: #add8e6; stroke-linejoin: miter"/>
   </g>
   <g id="patch_10">
    <path d="M 142.262245 359.517187 
L 142.262245 26.877187 
L 141.480508 26.877187 
L 141.480508 359.517187 
z
" clip-path="url(#p746eb1313c)" style="fill: #add8e6; stroke: #add8e6; stroke-linejoin: miter"/>
   </g>
   <g id="patch_11">
    <path d="M 144.826343 359.517187 
L 144.826343 26.877187 
L 144.890967 26.877187 
L 144.890967 359.517187 
z
" clip-path="url(#p746eb1313c)" style="fill: #add8e6; stroke: #add8e6; stroke-linejoin: miter"/>
   </g>
   <g id="patch_12">
    <path d="M 150.434004 359.517187 
L 150.434004 26.877187 
L 150.57437 26.877187 
L 150.57437 359.517187 
z
" clip-path="url(#p746eb1313c)" style="fill: #add8e6; stroke: #add8e6; stroke-linejoin: miter"/>
   </g>
   <g id="patch_13">
    <path d="M 150.645247 359.517187 
L 150.645247 26.877187 
L 150.830084 26.877187 
L 150.830084 359.517187 
z
" clip-path="url(#p746eb1313c)" style="fill: #add8e6; stroke: #add8e6; stroke-linejoin: miter"/>
   </g>
   <g id="patch_14">
    <path d="M 150.892623 359.517187 
L 150.892623 26.877187 
L 151.058699 26.877187 
L 151.058699 359.517187 
z
" clip-path="url(#p746eb1313c)" style="fill: #add8e6; stroke: #add8e6; stroke-linejoin: miter"/>
   </g>
   <g id="patch_15">
    <path d="M 151.201149 359.517187 
L 151.201149 26.877187 
L 151.370004 26.877187 
L 151.370004 359.517187 
z
" clip-path="url(#p746eb1313c)" style="fill: #add8e6; stroke: #add8e6; stroke-linejoin: miter"/>
   </g>
   <g id="patch_16">
    <path d="M 151.458949 359.517187 
L 151.458949 26.877187 
L 151.667412 26.877187 
L 151.667412 359.517187 
z
" clip-path="url(#p746eb1313c)" style="fill: #add8e6; stroke: #add8e6; stroke-linejoin: miter"/>
   </g>
   <g id="patch_17">
    <path d="M 158.749603 359.517187 
L 158.749603 26.877187 
L 156.724035 26.877187 
L 156.724035 359.517187 
z
" clip-path="url(#p746eb1313c)" style="fill: #add8e6; stroke: #add8e6; stroke-linejoin: miter"/>
   </g>
   <g id="patch_18">
    <path d="M 163.778432 359.517187 
L 163.778432 26.877187 
L 163.544258 26.877187 
L 163.544258 359.517187 
z
" clip-path="url(#p746eb1313c)" style="fill: #add8e6; stroke: #add8e6; stroke-linejoin: miter"/>
   </g>
   <g id="patch_19">
    <path d="M 172.274699 359.517187 
L 172.274699 26.877187 
L 170.316534 26.877187 
L 170.316534 359.517187 
z
" clip-path="url(#p746eb1313c)" style="fill: #add8e6; stroke: #add8e6; stroke-linejoin: miter"/>
   </g>
   <g id="patch_20">
    <path d="M 195.94848 359.517187 
L 195.94848 26.877187 
L 195.924854 26.877187 
L 195.924854 359.517187 
z
" clip-path="url(#p746eb1313c)" style="fill: #add8e6; stroke: #add8e6; stroke-linejoin: miter"/>
   </g>
   <g id="patch_21">
    <path d="M 197.605068 359.517187 
L 197.605068 26.877187 
L 197.714858 26.877187 
L 197.714858 359.517187 
z
" clip-path="url(#p746eb1313c)" style="fill: #add8e6; stroke: #add8e6; stroke-linejoin: miter"/>
   </g>
   <g id="patch_22">
    <path d="M 203.554609 359.517187 
L 203.554609 26.877187 
L 203.640079 26.877187 
L 203.640079 359.517187 
z
" clip-path="url(#p746eb1313c)" style="fill: #add8e6; stroke: #add8e6; stroke-linejoin: miter"/>
   </g>
   <g id="patch_23">
    <path d="M 203.933317 359.517187 
L 203.933317 26.877187 
L 203.796426 26.877187 
L 203.796426 359.517187 
z
" clip-path="url(#p746eb1313c)" style="fill: #add8e6; stroke: #add8e6; stroke-linejoin: miter"/>
   </g>
   <g id="patch_24">
    <path d="M 206.035321 359.517187 
L 206.035321 26.877187 
L 206.052693 26.877187 
L 206.052693 359.517187 
z
" clip-path="url(#p746eb1313c)" style="fill: #add8e6; stroke: #add8e6; stroke-linejoin: miter"/>
   </g>
   <g id="patch_25">
    <path d="M 210.744506 359.517187 
L 210.744506 26.877187 
L 210.9217 26.877187 
L 210.9217 359.517187 
z
" clip-path="url(#p746eb1313c)" style="fill: #add8e6; stroke: #add8e6; stroke-linejoin: miter"/>
   </g>
   <g id="patch_26">
    <path d="M 210.977985 359.517187 
L 210.977985 26.877187 
L 211.130858 26.877187 
L 211.130858 359.517187 
z
" clip-path="url(#p746eb1313c)" style="fill: #add8e6; stroke: #add8e6; stroke-linejoin: miter"/>
   </g>
   <g id="patch_27">
    <path d="M 225.461316 359.517187 
L 225.461316 26.877187 
L 225.567633 26.877187 
L 225.567633 359.517187 
z
" clip-path="url(#p746eb1313c)" style="fill: #add8e6; stroke: #add8e6; stroke-linejoin: miter"/>
   </g>
   <g id="patch_28">
    <path d="M 226.451517 359.517187 
L 226.451517 26.877187 
L 226.527259 26.877187 
L 226.527259 359.517187 
z
" clip-path="url(#p746eb1313c)" style="fill: #add8e6; stroke: #add8e6; stroke-linejoin: miter"/>
   </g>
   <g id="patch_29">
    <path d="M 226.682911 359.517187 
L 226.682911 26.877187 
L 226.878867 26.877187 
L 226.878867 359.517187 
z
" clip-path="url(#p746eb1313c)" style="fill: #add8e6; stroke: #add8e6; stroke-linejoin: miter"/>
   </g>
   <g id="patch_30">
    <path d="M 275.026928 359.517187 
L 275.026928 26.877187 
L 275.165208 26.877187 
L 275.165208 359.517187 
z
" clip-path="url(#p746eb1313c)" style="fill: #add8e6; stroke: #add8e6; stroke-linejoin: miter"/>
   </g>
   <g id="patch_31">
    <path d="M 300.888878 359.517187 
L 300.888878 26.877187 
L 301.05009 26.877187 
L 301.05009 359.517187 
z
" clip-path="url(#p746eb1313c)" style="fill: #add8e6; stroke: #add8e6; stroke-linejoin: miter"/>
   </g>
   <g id="patch_32">
    <path d="M 301.112629 359.517187 
L 301.112629 26.877187 
L 301.300941 26.877187 
L 301.300941 359.517187 
z
" clip-path="url(#p746eb1313c)" style="fill: #add8e6; stroke: #add8e6; stroke-linejoin: miter"/>
   </g>
   <g id="patch_33">
    <path d="M 321.569127 359.517187 
L 321.569127 26.877187 
L 321.599007 26.877187 
L 321.599007 359.517187 
z
" clip-path="url(#p746eb1313c)" style="fill: #add8e6; stroke: #add8e6; stroke-linejoin: miter"/>
   </g>
   <g id="patch_34">
    <path d="M 324.095007 359.517187 
L 324.095007 26.877187 
L 322.246633 26.877187 
L 322.246633 359.517187 
z
" clip-path="url(#p746eb1313c)" style="fill: #add8e6; stroke: #add8e6; stroke-linejoin: miter"/>
   </g>
   <g id="patch_35">
    <path d="M 349.979888 359.517187 
L 349.979888 26.877187 
L 350.127202 26.877187 
L 350.127202 359.517187 
z
" clip-path="url(#p746eb1313c)" style="fill: #add8e6; stroke: #add8e6; stroke-linejoin: miter"/>
   </g>
   <g id="patch_36">
    <path d="M 350.621955 359.517187 
L 350.621955 26.877187 
L 350.530926 26.877187 
L 350.530926 359.517187 
z
" clip-path="url(#p746eb1313c)" style="fill: #add8e6; stroke: #add8e6; stroke-linejoin: miter"/>
   </g>
   <g id="patch_37">
    <path d="M 374.975326 359.517187 
L 374.975326 26.877187 
L 375.060796 26.877187 
L 375.060796 359.517187 
z
" clip-path="url(#p746eb1313c)" style="fill: #add8e6; stroke: #add8e6; stroke-linejoin: miter"/>
   </g>
   <g id="patch_38">
    <path d="M 375.187959 359.517187 
L 375.187959 26.877187 
L 375.319986 26.877187 
L 375.319986 359.517187 
z
" clip-path="url(#p746eb1313c)" style="fill: #add8e6; stroke: #add8e6; stroke-linejoin: miter"/>
   </g>
   <g id="patch_39">
    <path d="M 375.614614 359.517187 
L 375.614614 26.877187 
L 375.792502 26.877187 
L 375.792502 359.517187 
z
" clip-path="url(#p746eb1313c)" style="fill: #add8e6; stroke: #add8e6; stroke-linejoin: miter"/>
   </g>
   <g id="patch_40">
    <path d="M 386.405366 359.517187 
L 386.405366 26.877187 
L 386.520021 26.877187 
L 386.520021 359.517187 
z
" clip-path="url(#p746eb1313c)" style="fill: #add8e6; stroke: #add8e6; stroke-linejoin: miter"/>
   </g>
   <g id="patch_41">
    <path d="M 395.508261 359.517187 
L 395.508261 26.877187 
L 395.631255 26.877187 
L 395.631255 359.517187 
z
" clip-path="url(#p746eb1313c)" style="fill: #add8e6; stroke: #add8e6; stroke-linejoin: miter"/>
   </g>
   <g id="patch_42">
    <path d="M 403.081036 359.517187 
L 403.081036 26.877187 
L 403.156083 26.877187 
L 403.156083 359.517187 
z
" clip-path="url(#p746eb1313c)" style="fill: #add8e6; stroke: #add8e6; stroke-linejoin: miter"/>
   </g>
   <g id="patch_43">
    <path d="M 406.309437 359.517187 
L 406.309437 26.877187 
L 406.360858 26.877187 
L 406.360858 359.517187 
z
" clip-path="url(#p746eb1313c)" style="fill: #add8e6; stroke: #add8e6; stroke-linejoin: miter"/>
   </g>
   <g id="patch_44">
    <path d="M 408.215486 359.517187 
L 408.215486 26.877187 
L 408.380172 26.877187 
L 408.380172 359.517187 
z
" clip-path="url(#p746eb1313c)" style="fill: #add8e6; stroke: #add8e6; stroke-linejoin: miter"/>
   </g>
   <g id="patch_45">
    <path d="M 416.04606 359.517187 
L 416.04606 26.877187 
L 416.098871 26.877187 
L 416.098871 359.517187 
z
" clip-path="url(#p746eb1313c)" style="fill: #add8e6; stroke: #add8e6; stroke-linejoin: miter"/>
   </g>
   <g id="patch_46">
    <path d="M 422.213793 359.517187 
L 422.213793 26.877187 
L 422.279806 26.877187 
L 422.279806 359.517187 
z
" clip-path="url(#p746eb1313c)" style="fill: #add8e6; stroke: #add8e6; stroke-linejoin: miter"/>
   </g>
   <g id="patch_47">
    <path d="M 429.025677 359.517187 
L 429.025677 26.877187 
L 428.368323 26.877187 
L 428.368323 359.517187 
z
" clip-path="url(#p746eb1313c)" style="fill: #add8e6; stroke: #add8e6; stroke-linejoin: miter"/>
   </g>
   <g id="patch_48">
    <path d="M 431.904554 359.517187 
L 431.904554 26.877187 
L 432.065766 26.877187 
L 432.065766 359.517187 
z
" clip-path="url(#p746eb1313c)" style="fill: #add8e6; stroke: #add8e6; stroke-linejoin: miter"/>
   </g>
   <g id="patch_49">
    <path d="M 450.278505 359.517187 
L 450.278505 26.877187 
L 448.97283 26.877187 
L 448.97283 359.517187 
z
" clip-path="url(#p746eb1313c)" style="fill: #add8e6; stroke: #add8e6; stroke-linejoin: miter"/>
   </g>
   <g id="patch_50">
    <path d="M 454.230273 359.517187 
L 454.230273 26.877187 
L 454.269186 26.877187 
L 454.269186 359.517187 
z
" clip-path="url(#p746eb1313c)" style="fill: #add8e6; stroke: #add8e6; stroke-linejoin: miter"/>
   </g>
   <g id="patch_51">
    <path d="M 455.863235 359.517187 
L 455.863235 26.877187 
L 455.83544 26.877187 
L 455.83544 359.517187 
z
" clip-path="url(#p746eb1313c)" style="fill: #add8e6; stroke: #add8e6; stroke-linejoin: miter"/>
   </g>
   <g id="patch_52">
    <path d="M 458.769908 359.517187 
L 458.769908 26.877187 
L 458.822024 26.877187 
L 458.822024 359.517187 
z
" clip-path="url(#p746eb1313c)" style="fill: #add8e6; stroke: #add8e6; stroke-linejoin: miter"/>
   </g>
   <g id="patch_53">
    <path d="M 473.664607 359.517187 
L 473.664607 26.877187 
L 473.385961 26.877187 
L 473.385961 359.517187 
z
" clip-path="url(#p746eb1313c)" style="fill: #add8e6; stroke: #add8e6; stroke-linejoin: miter"/>
   </g>
   <g id="patch_54">
    <path d="M 492.663252 359.517187 
L 492.663252 26.877187 
L 492.827243 26.877187 
L 492.827243 359.517187 
z
" clip-path="url(#p746eb1313c)" style="fill: #add8e6; stroke: #add8e6; stroke-linejoin: miter"/>
   </g>
   <g id="patch_55">
    <path d="M 492.979421 359.517187 
L 492.979421 26.877187 
L 493.07462 26.877187 
L 493.07462 359.517187 
z
" clip-path="url(#p746eb1313c)" style="fill: #add8e6; stroke: #add8e6; stroke-linejoin: miter"/>
   </g>
   <g id="patch_56">
    <path d="M 499.529337 359.517187 
L 499.529337 26.877187 
L 499.557827 26.877187 
L 499.557827 359.517187 
z
" clip-path="url(#p746eb1313c)" style="fill: #add8e6; stroke: #add8e6; stroke-linejoin: miter"/>
   </g>
   <g id="patch_57">
    <path d="M 504.918112 359.517187 
L 504.918112 26.877187 
L 503.269167 26.877187 
L 503.269167 359.517187 
z
" clip-path="url(#p746eb1313c)" style="fill: #add8e6; stroke: #add8e6; stroke-linejoin: miter"/>
   </g>
   <g id="patch_58">
    <path d="M 515.352392 359.517187 
L 515.352392 26.877187 
L 515.499706 26.877187 
L 515.499706 359.517187 
z
" clip-path="url(#p746eb1313c)" style="fill: #add8e6; stroke: #add8e6; stroke-linejoin: miter"/>
   </g>
   <g id="patch_59">
    <path d="M 515.587261 359.517187 
L 515.587261 26.877187 
L 515.783216 26.877187 
L 515.783216 359.517187 
z
" clip-path="url(#p746eb1313c)" style="fill: #add8e6; stroke: #add8e6; stroke-linejoin: miter"/>
   </g>
   <g id="patch_60">
    <path d="M 515.835332 359.517187 
L 515.835332 26.877187 
L 515.949292 26.877187 
L 515.949292 359.517187 
z
" clip-path="url(#p746eb1313c)" style="fill: #add8e6; stroke: #add8e6; stroke-linejoin: miter"/>
   </g>
   <g id="patch_61">
    <path d="M 558.622413 359.517187 
L 558.622413 26.877187 
L 558.798912 26.877187 
L 558.798912 359.517187 
z
" clip-path="url(#p746eb1313c)" style="fill: #add8e6; stroke: #add8e6; stroke-linejoin: miter"/>
   </g>
   <g id="patch_62">
    <path d="M 593.954154 359.517187 
L 593.954154 26.877187 
L 591.440782 26.877187 
L 591.440782 359.517187 
z
" clip-path="url(#p746eb1313c)" style="fill: #add8e6; stroke: #add8e6; stroke-linejoin: miter"/>
   </g>
   <g id="patch_63">
    <path d="M 613.666439 359.517187 
L 613.666439 26.877187 
L 613.667133 26.877187 
L 613.667133 359.517187 
z
" clip-path="url(#p746eb1313c)" style="fill: #add8e6; stroke: #add8e6; stroke-linejoin: miter"/>
   </g>
   <g id="patch_64">
    <path d="M 627.547311 359.517187 
L 627.547311 26.877187 
L 627.588309 26.877187 
L 627.588309 359.517187 
z
" clip-path="url(#p746eb1313c)" style="fill: #add8e6; stroke: #add8e6; stroke-linejoin: miter"/>
   </g>
   <g id="patch_65">
    <path d="M 627.802331 359.517187 
L 627.802331 26.877187 
L 627.821093 26.877187 
L 627.821093 359.517187 
z
" clip-path="url(#p746eb1313c)" style="fill: #add8e6; stroke: #add8e6; stroke-linejoin: miter"/>
   </g>
   <g id="patch_66">
    <path d="M 637.714759 359.517187 
L 637.714759 26.877187 
L 634.648264 26.877187 
L 634.648264 359.517187 
z
" clip-path="url(#p746eb1313c)" style="fill: #add8e6; stroke: #add8e6; stroke-linejoin: miter"/>
   </g>
   <g id="patch_67">
    <path d="M 647.857885 359.517187 
L 647.857885 26.877187 
L 647.767551 26.877187 
L 647.767551 359.517187 
z
" clip-path="url(#p746eb1313c)" style="fill: #add8e6; stroke: #add8e6; stroke-linejoin: miter"/>
   </g>
   <g id="patch_68">
    <path d="M 658.318571 359.517187 
L 658.318571 26.877187 
L 658.411685 26.877187 
L 658.411685 359.517187 
z
" clip-path="url(#p746eb1313c)" style="fill: #add8e6; stroke: #add8e6; stroke-linejoin: miter"/>
   </g>
   <g id="patch_69">
    <path d="M 678.700718 359.517187 
L 678.700718 26.877187 
L 678.88625 26.877187 
L 678.88625 359.517187 
z
" clip-path="url(#p746eb1313c)" style="fill: #add8e6; stroke: #add8e6; stroke-linejoin: miter"/>
   </g>
   <g id="patch_70">
    <path d="M 678.912655 359.517187 
L 678.912655 26.877187 
L 679.080121 26.877187 
L 679.080121 359.517187 
z
" clip-path="url(#p746eb1313c)" style="fill: #add8e6; stroke: #add8e6; stroke-linejoin: miter"/>
   </g>
   <g id="patch_71">
    <path d="M 709.319799 359.517187 
L 709.319799 26.877187 
L 704.176316 26.877187 
L 704.176316 359.517187 
z
" clip-path="url(#p746eb1313c)" style="fill: #add8e6; stroke: #add8e6; stroke-linejoin: miter"/>
   </g>
   <g id="patch_72">
    <path d="M 717.048227 359.517187 
L 717.048227 26.877187 
L 714.933715 26.877187 
L 714.933715 359.517187 
z
" clip-path="url(#p746eb1313c)" style="fill: #add8e6; stroke: #add8e6; stroke-linejoin: miter"/>
   </g>
   <g id="patch_73">
    <path d="M 730.435042 359.517187 
L 730.435042 26.877187 
L 724.409759 26.877187 
L 724.409759 359.517187 
z
" clip-path="url(#p746eb1313c)" style="fill: #add8e6; stroke: #add8e6; stroke-linejoin: miter"/>
   </g>
   <g id="patch_74">
    <path d="M 756.413037 359.517187 
L 756.413037 26.877187 
L 749.04664 26.877187 
L 749.04664 359.517187 
z
" clip-path="url(#p746eb1313c)" style="fill: #add8e6; stroke: #add8e6; stroke-linejoin: miter"/>
   </g>
   <g id="patch_75">
    <path d="M 759.470497 359.517187 
L 759.470497 26.877187 
L 751.658685 26.877187 
L 751.658685 359.517187 
z
" clip-path="url(#p746eb1313c)" style="fill: #add8e6; stroke: #add8e6; stroke-linejoin: miter"/>
   </g>
   <g id="patch_76">
    <path d="M 762.045019 359.517187 
L 762.045019 26.877187 
L 754.162328 26.877187 
L 754.162328 359.517187 
z
" clip-path="url(#p746eb1313c)" style="fill: #add8e6; stroke: #add8e6; stroke-linejoin: miter"/>
   </g>
   <g id="patch_77">
    <path d="M 770.013874 359.517187 
L 770.013874 26.877187 
L 770.135477 26.877187 
L 770.135477 359.517187 
z
" clip-path="url(#p746eb1313c)" style="fill: #add8e6; stroke: #add8e6; stroke-linejoin: miter"/>
   </g>
   <g id="patch_78">
    <path d="M 782.027611 359.517187 
L 782.027611 26.877187 
L 781.097864 26.877187 
L 781.097864 359.517187 
z
" clip-path="url(#p746eb1313c)" style="fill: #add8e6; stroke: #add8e6; stroke-linejoin: miter"/>
   </g>
   <g id="patch_79">
    <path d="M 821.3952 359.517187 
L 821.3952 26.877187 
L 817.262763 26.877187 
L 817.262763 359.517187 
z
" clip-path="url(#p746eb1313c)" style="fill: #add8e6; stroke: #add8e6; stroke-linejoin: miter"/>
   </g>
   <g id="patch_80">
    <path d="M 826.366353 359.517187 
L 826.366353 26.877187 
L 823.912046 26.877187 
L 823.912046 359.517187 
z
" clip-path="url(#p746eb1313c)" style="fill: #add8e6; stroke: #add8e6; stroke-linejoin: miter"/>
   </g>
   <g id="patch_81">
    <path d="M 832.571609 359.517187 
L 832.571609 26.877187 
L 827.867984 26.877187 
L 827.867984 359.517187 
z
" clip-path="url(#p746eb1313c)" style="fill: #add8e6; stroke: #add8e6; stroke-linejoin: miter"/>
   </g>
   <g id="patch_82">
    <path d="M 838.448883 359.517187 
L 838.448883 26.877187 
L 838.582994 26.877187 
L 838.582994 359.517187 
z
" clip-path="url(#p746eb1313c)" style="fill: #add8e6; stroke: #add8e6; stroke-linejoin: miter"/>
   </g>
   <g id="patch_83">
    <path d="M 838.669854 359.517187 
L 838.669854 26.877187 
L 838.835235 26.877187 
L 838.835235 359.517187 
z
" clip-path="url(#p746eb1313c)" style="fill: #add8e6; stroke: #add8e6; stroke-linejoin: miter"/>
   </g>
   <g id="patch_84">
    <path d="M 838.908197 359.517187 
L 838.908197 26.877187 
L 839.104847 26.877187 
L 839.104847 359.517187 
z
" clip-path="url(#p746eb1313c)" style="fill: #add8e6; stroke: #add8e6; stroke-linejoin: miter"/>
   </g>
   <g id="patch_85">
    <path d="M 849.814299 359.517187 
L 849.814299 26.877187 
L 849.994967 26.877187 
L 849.994967 359.517187 
z
" clip-path="url(#p746eb1313c)" style="fill: #add8e6; stroke: #add8e6; stroke-linejoin: miter"/>
   </g>
   <g id="patch_86">
    <path d="M 850.289596 359.517187 
L 850.289596 26.877187 
L 850.272224 26.877187 
L 850.272224 359.517187 
z
" clip-path="url(#p746eb1313c)" style="fill: #add8e6; stroke: #add8e6; stroke-linejoin: miter"/>
   </g>
   <g id="patch_87">
    <path d="M 866.540695 359.517187 
L 866.540695 26.877187 
L 866.642842 26.877187 
L 866.642842 359.517187 
z
" clip-path="url(#p746eb1313c)" style="fill: #add8e6; stroke: #add8e6; stroke-linejoin: miter"/>
   </g>
   <g id="patch_88">
    <path d="M 891.901639 359.517187 
L 891.901639 26.877187 
L 891.87037 26.877187 
L 891.87037 359.517187 
z
" clip-path="url(#p746eb1313c)" style="fill: #add8e6; stroke: #add8e6; stroke-linejoin: miter"/>
   </g>
   <g id="patch_89">
    <path d="M 908.823991 359.517187 
L 908.823991 26.877187 
L 909.021336 26.877187 
L 909.021336 359.517187 
z
" clip-path="url(#p746eb1313c)" style="fill: #add8e6; stroke: #add8e6; stroke-linejoin: miter"/>
   </g>
   <g id="patch_90">
    <path d="M 935.11607 359.517187 
L 935.11607 26.877187 
L 935.234199 26.877187 
L 935.234199 359.517187 
z
" clip-path="url(#p746eb1313c)" style="fill: #add8e6; stroke: #add8e6; stroke-linejoin: miter"/>
   </g>
   <g id="patch_91">
    <path d="M 956.919241 359.517187 
L 956.919241 26.877187 
L 956.885192 26.877187 
L 956.885192 359.517187 
z
" clip-path="url(#p746eb1313c)" style="fill: #add8e6; stroke: #add8e6; stroke-linejoin: miter"/>
   </g>
   <g id="patch_92">
    <path d="M 958.043553 359.517187 
L 958.043553 26.877187 
L 958.066484 26.877187 
L 958.066484 359.517187 
z
" clip-path="url(#p746eb1313c)" style="fill: #add8e6; stroke: #add8e6; stroke-linejoin: miter"/>
   </g>
   <g id="patch_93">
    <path d="M 971.296256 359.517187 
L 971.296256 26.877187 
L 970.025325 26.877187 
L 970.025325 359.517187 
z
" clip-path="url(#p746eb1313c)" style="fill: #add8e6; stroke: #add8e6; stroke-linejoin: miter"/>
   </g>
   <g id="patch_94">
    <path d="M 981.439383 359.517187 
L 981.439383 26.877187 
L 981.644372 26.877187 
L 981.644372 359.517187 
z
" clip-path="url(#p746eb1313c)" style="fill: #add8e6; stroke: #add8e6; stroke-linejoin: miter"/>
   </g>
   <g id="patch_95">
    <path d="M 981.726367 359.517187 
L 981.726367 26.877187 
L 981.873681 26.877187 
L 981.873681 359.517187 
z
" clip-path="url(#p746eb1313c)" style="fill: #add8e6; stroke: #add8e6; stroke-linejoin: miter"/>
   </g>
   <g id="patch_96">
    <path d="M 1001.260069 359.517187 
L 1001.260069 26.877187 
L 993.353058 26.877187 
L 993.353058 359.517187 
z
" clip-path="url(#p746eb1313c)" style="fill: #add8e6; stroke: #add8e6; stroke-linejoin: miter"/>
   </g>
   <g id="patch_97">
    <path d="M 1009.428353 359.517187 
L 1009.428353 26.877187 
L 1005.841396 26.877187 
L 1005.841396 359.517187 
z
" clip-path="url(#p746eb1313c)" style="fill: #add8e6; stroke: #add8e6; stroke-linejoin: miter"/>
   </g>
   <g id="patch_98">
    <path d="M 1012.944433 359.517187 
L 1012.944433 26.877187 
L 1005.559276 26.877187 
L 1005.559276 359.517187 
z
" clip-path="url(#p746eb1313c)" style="fill: #add8e6; stroke: #add8e6; stroke-linejoin: miter"/>
   </g>
   <g id="patch_99">
    <path d="M 1024.055525 359.517187 
L 1024.055525 26.877187 
L 1016.148514 26.877187 
L 1016.148514 359.517187 
z
" clip-path="url(#p746eb1313c)" style="fill: #add8e6; stroke: #add8e6; stroke-linejoin: miter"/>
   </g>
   <g id="patch_100">
    <path d="M 1028.033698 359.517187 
L 1028.033698 26.877187 
L 1027.424985 26.877187 
L 1027.424985 359.517187 
z
" clip-path="url(#p746eb1313c)" style="fill: #add8e6; stroke: #add8e6; stroke-linejoin: miter"/>
   </g>
   <g id="patch_101">
    <path d="M 1036.511204 359.517187 
L 1036.511204 26.877187 
L 1032.368344 26.877187 
L 1032.368344 359.517187 
z
" clip-path="url(#p746eb1313c)" style="fill: #add8e6; stroke: #add8e6; stroke-linejoin: miter"/>
   </g>
   <g id="patch_102">
    <path d="M 1041.479578 359.517187 
L 1041.479578 26.877187 
L 1035.45221 26.877187 
L 1035.45221 359.517187 
z
" clip-path="url(#p746eb1313c)" style="fill: #add8e6; stroke: #add8e6; stroke-linejoin: miter"/>
   </g>
   <g id="patch_103">
    <path d="M 1044.953965 359.517187 
L 1044.953965 26.877187 
L 1037.707088 26.877187 
L 1037.707088 359.517187 
z
" clip-path="url(#p746eb1313c)" style="fill: #add8e6; stroke: #add8e6; stroke-linejoin: miter"/>
   </g>
   <g id="patch_104">
    <path d="M 1046.962161 359.517187 
L 1046.962161 26.877187 
L 1039.186482 26.877187 
L 1039.186482 359.517187 
z
" clip-path="url(#p746eb1313c)" style="fill: #add8e6; stroke: #add8e6; stroke-linejoin: miter"/>
   </g>
   <g id="patch_105">
    <path d="M 1052.29882 359.517187 
L 1052.29882 26.877187 
L 1046.043533 26.877187 
L 1046.043533 359.517187 
z
" clip-path="url(#p746eb1313c)" style="fill: #add8e6; stroke: #add8e6; stroke-linejoin: miter"/>
   </g>
   <g id="patch_106">
    <path d="M 1057.294989 359.517187 
L 1057.294989 26.877187 
L 1054.678775 26.877187 
L 1054.678775 359.517187 
z
" clip-path="url(#p746eb1313c)" style="fill: #add8e6; stroke: #add8e6; stroke-linejoin: miter"/>
   </g>
   <g id="patch_107">
    <path d="M 1079.618623 359.517187 
L 1079.618623 26.877187 
L 1079.745091 26.877187 
L 1079.745091 359.517187 
z
" clip-path="url(#p746eb1313c)" style="fill: #add8e6; stroke: #add8e6; stroke-linejoin: miter"/>
   </g>
   <g id="patch_108">
    <path d="M 1079.861136 359.517187 
L 1079.861136 26.877187 
L 1080.020957 26.877187 
L 1080.020957 359.517187 
z
" clip-path="url(#p746eb1313c)" style="fill: #add8e6; stroke: #add8e6; stroke-linejoin: miter"/>
   </g>
   <g id="patch_109">
    <path d="M 1082.867176 359.517187 
L 1082.867176 26.877187 
L 1080.32045 26.877187 
L 1080.32045 359.517187 
z
" clip-path="url(#p746eb1313c)" style="fill: #add8e6; stroke: #add8e6; stroke-linejoin: miter"/>
   </g>
   <g id="patch_110">
    <path d="M 1092.507906 359.517187 
L 1092.507906 26.877187 
L 1090.900654 26.877187 
L 1090.900654 359.517187 
z
" clip-path="url(#p746eb1313c)" style="fill: #add8e6; stroke: #add8e6; stroke-linejoin: miter"/>
   </g>
   <g id="patch_111">
    <path d="M 1097.285884 359.517187 
L 1097.285884 26.877187 
L 1097.459603 26.877187 
L 1097.459603 359.517187 
z
" clip-path="url(#p746eb1313c)" style="fill: #add8e6; stroke: #add8e6; stroke-linejoin: miter"/>
   </g>
   <g id="patch_112">
    <path d="M 1110.183505 359.517187 
L 1110.183505 26.877187 
L 1110.38085 26.877187 
L 1110.38085 359.517187 
z
" clip-path="url(#p746eb1313c)" style="fill: #add8e6; stroke: #add8e6; stroke-linejoin: miter"/>
   </g>
   <g id="patch_113">
    <path d="M 1110.434355 359.517187 
L 1110.434355 26.877187 
L 1110.585839 26.877187 
L 1110.585839 359.517187 
z
" clip-path="url(#p746eb1313c)" style="fill: #add8e6; stroke: #add8e6; stroke-linejoin: miter"/>
   </g>
   <g id="patch_114">
    <path d="M 237.548016 359.517187 
L 237.548016 26.877187 
L 387.641553 26.877187 
L 387.641553 359.517187 
z
" clip-path="url(#p746eb1313c)" style="fill: #808080; opacity: 0.4; stroke: #808080; stroke-linejoin: miter"/>
   </g>
   <g id="patch_115">
    <path d="M 391.810818 26.877187 
L 391.810818 26.877187 
L 391.810818 359.517187 
" clip-path="url(#p746eb1313c)" style="fill: #808080; opacity: 0.4; stroke: #808080; stroke-linejoin: miter"/>
   </g>
   <g id="patch_116">
    <path d="M 395.980083 26.877187 
L 395.980083 26.877187 
L 395.980083 359.517187 
" clip-path="url(#p746eb1313c)" style="fill: #808080; opacity: 0.4; stroke: #808080; stroke-linejoin: miter"/>
   </g>
   <g id="patch_117">
    <path d="M 537.735091 359.517187 
L 537.735091 26.877187 
L 687.828628 26.877187 
L 687.828628 359.517187 
z
" clip-path="url(#p746eb1313c)" style="fill: #808080; opacity: 0.4; stroke: #808080; stroke-linejoin: miter"/>
   </g>
   <g id="patch_118">
    <path d="M 691.997893 26.877187 
L 691.997893 26.877187 
L 691.997893 359.517187 
" clip-path="url(#p746eb1313c)" style="fill: #808080; opacity: 0.4; stroke: #808080; stroke-linejoin: miter"/>
   </g>
   <g id="patch_119">
    <path d="M 696.167158 26.877187 
L 696.167158 26.877187 
L 696.167158 359.517187 
" clip-path="url(#p746eb1313c)" style="fill: #808080; opacity: 0.4; stroke: #808080; stroke-linejoin: miter"/>
   </g>
   <g id="patch_120">
    <path d="M 837.922166 359.517187 
L 837.922166 26.877187 
L 988.015704 26.877187 
L 988.015704 359.517187 
z
" clip-path="url(#p746eb1313c)" style="fill: #808080; opacity: 0.4; stroke: #808080; stroke-linejoin: miter"/>
   </g>
   <g id="patch_121">
    <path d="M 992.184969 26.877187 
L 992.184969 26.877187 
L 992.184969 359.517187 
" clip-path="url(#p746eb1313c)" style="fill: #808080; opacity: 0.4; stroke: #808080; stroke-linejoin: miter"/>
   </g>
   <g id="patch_122">
    <path d="M 996.354233 26.877187 
L 996.354233 26.877187 
L 996.354233 359.517187 
" clip-path="url(#p746eb1313c)" style="fill: #808080; opacity: 0.4; stroke: #808080; stroke-linejoin: miter"/>
   </g>
   <g id="matplotlib.axis_1">
    <g id="xtick_1">
     <g id="line2d_1">
      <defs>
       <path id="mecf537b790" d="M 0 0 
L 0 3.5 
" style="stroke: #000000; stroke-width: 0.8"/>
      </defs>
      <g>
       <use xlink:href="#mecf537b790" x="147.314699" y="359.517187" style="stroke: #000000; stroke-width: 0.8"/>
      </g>
     </g>
     <g id="text_1">
      <!-- 07-11 12 -->
      <g transform="translate(124.83423 374.115625) scale(0.1 -0.1)">
       <defs>
        <path id="DejaVuSans-30" d="M 2034 4250 
Q 1547 4250 1301 3770 
Q 1056 3291 1056 2328 
Q 1056 1369 1301 889 
Q 1547 409 2034 409 
Q 2525 409 2770 889 
Q 3016 1369 3016 2328 
Q 3016 3291 2770 3770 
Q 2525 4250 2034 4250 
z
M 2034 4750 
Q 2819 4750 3233 4129 
Q 3647 3509 3647 2328 
Q 3647 1150 3233 529 
Q 2819 -91 2034 -91 
Q 1250 -91 836 529 
Q 422 1150 422 2328 
Q 422 3509 836 4129 
Q 1250 4750 2034 4750 
z
" transform="scale(0.015625)"/>
        <path id="DejaVuSans-37" d="M 525 4666 
L 3525 4666 
L 3525 4397 
L 1831 0 
L 1172 0 
L 2766 4134 
L 525 4134 
L 525 4666 
z
" transform="scale(0.015625)"/>
        <path id="DejaVuSans-2d" d="M 313 2009 
L 1997 2009 
L 1997 1497 
L 313 1497 
L 313 2009 
z
" transform="scale(0.015625)"/>
        <path id="DejaVuSans-31" d="M 794 531 
L 1825 531 
L 1825 4091 
L 703 3866 
L 703 4441 
L 1819 4666 
L 2450 4666 
L 2450 531 
L 3481 531 
L 3481 0 
L 794 0 
L 794 531 
z
" transform="scale(0.015625)"/>
        <path id="DejaVuSans-20" transform="scale(0.015625)"/>
        <path id="DejaVuSans-32" d="M 1228 531 
L 3431 531 
L 3431 0 
L 469 0 
L 469 531 
Q 828 903 1448 1529 
Q 2069 2156 2228 2338 
Q 2531 2678 2651 2914 
Q 2772 3150 2772 3378 
Q 2772 3750 2511 3984 
Q 2250 4219 1831 4219 
Q 1534 4219 1204 4116 
Q 875 4013 500 3803 
L 500 4441 
Q 881 4594 1212 4672 
Q 1544 4750 1819 4750 
Q 2544 4750 2975 4387 
Q 3406 4025 3406 3419 
Q 3406 3131 3298 2873 
Q 3191 2616 2906 2266 
Q 2828 2175 2409 1742 
Q 1991 1309 1228 531 
z
" transform="scale(0.015625)"/>
       </defs>
       <use xlink:href="#DejaVuSans-30"/>
       <use xlink:href="#DejaVuSans-37" x="63.623047"/>
       <use xlink:href="#DejaVuSans-2d" x="127.246094"/>
       <use xlink:href="#DejaVuSans-31" x="163.330078"/>
       <use xlink:href="#DejaVuSans-31" x="226.953125"/>
       <use xlink:href="#DejaVuSans-20" x="290.576172"/>
       <use xlink:href="#DejaVuSans-31" x="322.363281"/>
       <use xlink:href="#DejaVuSans-32" x="385.986328"/>
      </g>
     </g>
    </g>
    <g id="xtick_2">
     <g id="line2d_2">
      <g>
       <use xlink:href="#mecf537b790" x="297.408237" y="359.517187" style="stroke: #000000; stroke-width: 0.8"/>
      </g>
     </g>
     <g id="text_2">
      <!-- 07-12 00 -->
      <g transform="translate(274.927768 374.115625) scale(0.1 -0.1)">
       <use xlink:href="#DejaVuSans-30"/>
       <use xlink:href="#DejaVuSans-37" x="63.623047"/>
       <use xlink:href="#DejaVuSans-2d" x="127.246094"/>
       <use xlink:href="#DejaVuSans-31" x="163.330078"/>
       <use xlink:href="#DejaVuSans-32" x="226.953125"/>
       <use xlink:href="#DejaVuSans-20" x="290.576172"/>
       <use xlink:href="#DejaVuSans-30" x="322.363281"/>
       <use xlink:href="#DejaVuSans-30" x="385.986328"/>
      </g>
     </g>
    </g>
    <g id="xtick_3">
     <g id="line2d_3">
      <g>
       <use xlink:href="#mecf537b790" x="447.501774" y="359.517187" style="stroke: #000000; stroke-width: 0.8"/>
      </g>
     </g>
     <g id="text_3">
      <!-- 07-12 12 -->
      <g transform="translate(425.021306 374.115625) scale(0.1 -0.1)">
       <use xlink:href="#DejaVuSans-30"/>
       <use xlink:href="#DejaVuSans-37" x="63.623047"/>
       <use xlink:href="#DejaVuSans-2d" x="127.246094"/>
       <use xlink:href="#DejaVuSans-31" x="163.330078"/>
       <use xlink:href="#DejaVuSans-32" x="226.953125"/>
       <use xlink:href="#DejaVuSans-20" x="290.576172"/>
       <use xlink:href="#DejaVuSans-31" x="322.363281"/>
       <use xlink:href="#DejaVuSans-32" x="385.986328"/>
      </g>
     </g>
    </g>
    <g id="xtick_4">
     <g id="line2d_4">
      <g>
       <use xlink:href="#mecf537b790" x="597.595312" y="359.517187" style="stroke: #000000; stroke-width: 0.8"/>
      </g>
     </g>
     <g id="text_4">
      <!-- 07-13 00 -->
      <g transform="translate(575.114843 374.115625) scale(0.1 -0.1)">
       <defs>
        <path id="DejaVuSans-33" d="M 2597 2516 
Q 3050 2419 3304 2112 
Q 3559 1806 3559 1356 
Q 3559 666 3084 287 
Q 2609 -91 1734 -91 
Q 1441 -91 1130 -33 
Q 819 25 488 141 
L 488 750 
Q 750 597 1062 519 
Q 1375 441 1716 441 
Q 2309 441 2620 675 
Q 2931 909 2931 1356 
Q 2931 1769 2642 2001 
Q 2353 2234 1838 2234 
L 1294 2234 
L 1294 2753 
L 1863 2753 
Q 2328 2753 2575 2939 
Q 2822 3125 2822 3475 
Q 2822 3834 2567 4026 
Q 2313 4219 1838 4219 
Q 1578 4219 1281 4162 
Q 984 4106 628 3988 
L 628 4550 
Q 988 4650 1302 4700 
Q 1616 4750 1894 4750 
Q 2613 4750 3031 4423 
Q 3450 4097 3450 3541 
Q 3450 3153 3228 2886 
Q 3006 2619 2597 2516 
z
" transform="scale(0.015625)"/>
       </defs>
       <use xlink:href="#DejaVuSans-30"/>
       <use xlink:href="#DejaVuSans-37" x="63.623047"/>
       <use xlink:href="#DejaVuSans-2d" x="127.246094"/>
       <use xlink:href="#DejaVuSans-31" x="163.330078"/>
       <use xlink:href="#DejaVuSans-33" x="226.953125"/>
       <use xlink:href="#DejaVuSans-20" x="290.576172"/>
       <use xlink:href="#DejaVuSans-30" x="322.363281"/>
       <use xlink:href="#DejaVuSans-30" x="385.986328"/>
      </g>
     </g>
    </g>
    <g id="xtick_5">
     <g id="line2d_5">
      <g>
       <use xlink:href="#mecf537b790" x="747.68885" y="359.517187" style="stroke: #000000; stroke-width: 0.8"/>
      </g>
     </g>
     <g id="text_5">
      <!-- 07-13 12 -->
      <g transform="translate(725.208381 374.115625) scale(0.1 -0.1)">
       <use xlink:href="#DejaVuSans-30"/>
       <use xlink:href="#DejaVuSans-37" x="63.623047"/>
       <use xlink:href="#DejaVuSans-2d" x="127.246094"/>
       <use xlink:href="#DejaVuSans-31" x="163.330078"/>
       <use xlink:href="#DejaVuSans-33" x="226.953125"/>
       <use xlink:href="#DejaVuSans-20" x="290.576172"/>
       <use xlink:href="#DejaVuSans-31" x="322.363281"/>
       <use xlink:href="#DejaVuSans-32" x="385.986328"/>
      </g>
     </g>
    </g>
    <g id="xtick_6">
     <g id="line2d_6">
      <g>
       <use xlink:href="#mecf537b790" x="897.782387" y="359.517187" style="stroke: #000000; stroke-width: 0.8"/>
      </g>
     </g>
     <g id="text_6">
      <!-- 07-14 00 -->
      <g transform="translate(875.301919 374.115625) scale(0.1 -0.1)">
       <defs>
        <path id="DejaVuSans-34" d="M 2419 4116 
L 825 1625 
L 2419 1625 
L 2419 4116 
z
M 2253 4666 
L 3047 4666 
L 3047 1625 
L 3713 1625 
L 3713 1100 
L 3047 1100 
L 3047 0 
L 2419 0 
L 2419 1100 
L 313 1100 
L 313 1709 
L 2253 4666 
z
" transform="scale(0.015625)"/>
       </defs>
       <use xlink:href="#DejaVuSans-30"/>
       <use xlink:href="#DejaVuSans-37" x="63.623047"/>
       <use xlink:href="#DejaVuSans-2d" x="127.246094"/>
       <use xlink:href="#DejaVuSans-31" x="163.330078"/>
       <use xlink:href="#DejaVuSans-34" x="226.953125"/>
       <use xlink:href="#DejaVuSans-20" x="290.576172"/>
       <use xlink:href="#DejaVuSans-30" x="322.363281"/>
       <use xlink:href="#DejaVuSans-30" x="385.986328"/>
      </g>
     </g>
    </g>
    <g id="xtick_7">
     <g id="line2d_7">
      <g>
       <use xlink:href="#mecf537b790" x="1047.875925" y="359.517187" style="stroke: #000000; stroke-width: 0.8"/>
      </g>
     </g>
     <g id="text_7">
      <!-- 07-14 12 -->
      <g transform="translate(1025.395456 374.115625) scale(0.1 -0.1)">
       <use xlink:href="#DejaVuSans-30"/>
       <use xlink:href="#DejaVuSans-37" x="63.623047"/>
       <use xlink:href="#DejaVuSans-2d" x="127.246094"/>
       <use xlink:href="#DejaVuSans-31" x="163.330078"/>
       <use xlink:href="#DejaVuSans-34" x="226.953125"/>
       <use xlink:href="#DejaVuSans-20" x="290.576172"/>
       <use xlink:href="#DejaVuSans-31" x="322.363281"/>
       <use xlink:href="#DejaVuSans-32" x="385.986328"/>
      </g>
     </g>
    </g>
    <g id="text_8">
     <!-- Time -->
     <g transform="translate(592.554688 389.313437) scale(0.12 -0.12)">
      <defs>
       <path id="DejaVuSans-54" d="M -19 4666 
L 3928 4666 
L 3928 4134 
L 2272 4134 
L 2272 0 
L 1638 0 
L 1638 4134 
L -19 4134 
L -19 4666 
z
" transform="scale(0.015625)"/>
       <path id="DejaVuSans-69" d="M 603 3500 
L 1178 3500 
L 1178 0 
L 603 0 
L 603 3500 
z
M 603 4863 
L 1178 4863 
L 1178 4134 
L 603 4134 
L 603 4863 
z
" transform="scale(0.015625)"/>
       <path id="DejaVuSans-6d" d="M 3328 2828 
Q 3544 3216 3844 3400 
Q 4144 3584 4550 3584 
Q 5097 3584 5394 3201 
Q 5691 2819 5691 2113 
L 5691 0 
L 5113 0 
L 5113 2094 
Q 5113 2597 4934 2840 
Q 4756 3084 4391 3084 
Q 3944 3084 3684 2787 
Q 3425 2491 3425 1978 
L 3425 0 
L 2847 0 
L 2847 2094 
Q 2847 2600 2669 2842 
Q 2491 3084 2119 3084 
Q 1678 3084 1418 2786 
Q 1159 2488 1159 1978 
L 1159 0 
L 581 0 
L 581 3500 
L 1159 3500 
L 1159 2956 
Q 1356 3278 1631 3431 
Q 1906 3584 2284 3584 
Q 2666 3584 2933 3390 
Q 3200 3197 3328 2828 
z
" transform="scale(0.015625)"/>
       <path id="DejaVuSans-65" d="M 3597 1894 
L 3597 1613 
L 953 1613 
Q 991 1019 1311 708 
Q 1631 397 2203 397 
Q 2534 397 2845 478 
Q 3156 559 3463 722 
L 3463 178 
Q 3153 47 2828 -22 
Q 2503 -91 2169 -91 
Q 1331 -91 842 396 
Q 353 884 353 1716 
Q 353 2575 817 3079 
Q 1281 3584 2069 3584 
Q 2775 3584 3186 3129 
Q 3597 2675 3597 1894 
z
M 3022 2063 
Q 3016 2534 2758 2815 
Q 2500 3097 2075 3097 
Q 1594 3097 1305 2825 
Q 1016 2553 972 2059 
L 3022 2063 
z
" transform="scale(0.015625)"/>
      </defs>
      <use xlink:href="#DejaVuSans-54"/>
      <use xlink:href="#DejaVuSans-69" x="57.958984"/>
      <use xlink:href="#DejaVuSans-6d" x="85.742188"/>
      <use xlink:href="#DejaVuSans-65" x="183.154297"/>
     </g>
    </g>
   </g>
   <g id="matplotlib.axis_2">
    <g id="ytick_1">
     <g id="line2d_8">
      <defs>
       <path id="me9de09bfc5" d="M 0 0 
L -3.5 0 
" style="stroke: #000000; stroke-width: 0.8"/>
      </defs>
      <g>
       <use xlink:href="#me9de09bfc5" x="49.235" y="344.397187" style="stroke: #000000; stroke-width: 0.8"/>
      </g>
     </g>
     <g id="text_9">
      <!-- 0 -->
      <g transform="translate(35.8725 348.196406) scale(0.1 -0.1)">
       <use xlink:href="#DejaVuSans-30"/>
      </g>
     </g>
    </g>
    <g id="ytick_2">
     <g id="line2d_9">
      <g>
       <use xlink:href="#me9de09bfc5" x="49.235" y="300.121931" style="stroke: #000000; stroke-width: 0.8"/>
      </g>
     </g>
     <g id="text_10">
      <!-- 100 -->
      <g transform="translate(23.1475 303.92115) scale(0.1 -0.1)">
       <use xlink:href="#DejaVuSans-31"/>
       <use xlink:href="#DejaVuSans-30" x="63.623047"/>
       <use xlink:href="#DejaVuSans-30" x="127.246094"/>
      </g>
     </g>
    </g>
    <g id="ytick_3">
     <g id="line2d_10">
      <g>
       <use xlink:href="#me9de09bfc5" x="49.235" y="255.846675" style="stroke: #000000; stroke-width: 0.8"/>
      </g>
     </g>
     <g id="text_11">
      <!-- 200 -->
      <g transform="translate(23.1475 259.645894) scale(0.1 -0.1)">
       <use xlink:href="#DejaVuSans-32"/>
       <use xlink:href="#DejaVuSans-30" x="63.623047"/>
       <use xlink:href="#DejaVuSans-30" x="127.246094"/>
      </g>
     </g>
    </g>
    <g id="ytick_4">
     <g id="line2d_11">
      <g>
       <use xlink:href="#me9de09bfc5" x="49.235" y="211.571419" style="stroke: #000000; stroke-width: 0.8"/>
      </g>
     </g>
     <g id="text_12">
      <!-- 300 -->
      <g transform="translate(23.1475 215.370638) scale(0.1 -0.1)">
       <use xlink:href="#DejaVuSans-33"/>
       <use xlink:href="#DejaVuSans-30" x="63.623047"/>
       <use xlink:href="#DejaVuSans-30" x="127.246094"/>
      </g>
     </g>
    </g>
    <g id="ytick_5">
     <g id="line2d_12">
      <g>
       <use xlink:href="#me9de09bfc5" x="49.235" y="167.296163" style="stroke: #000000; stroke-width: 0.8"/>
      </g>
     </g>
     <g id="text_13">
      <!-- 400 -->
      <g transform="translate(23.1475 171.095381) scale(0.1 -0.1)">
       <use xlink:href="#DejaVuSans-34"/>
       <use xlink:href="#DejaVuSans-30" x="63.623047"/>
       <use xlink:href="#DejaVuSans-30" x="127.246094"/>
      </g>
     </g>
    </g>
    <g id="ytick_6">
     <g id="line2d_13">
      <g>
       <use xlink:href="#me9de09bfc5" x="49.235" y="123.020906" style="stroke: #000000; stroke-width: 0.8"/>
      </g>
     </g>
     <g id="text_14">
      <!-- 500 -->
      <g transform="translate(23.1475 126.820125) scale(0.1 -0.1)">
       <defs>
        <path id="DejaVuSans-35" d="M 691 4666 
L 3169 4666 
L 3169 4134 
L 1269 4134 
L 1269 2991 
Q 1406 3038 1543 3061 
Q 1681 3084 1819 3084 
Q 2600 3084 3056 2656 
Q 3513 2228 3513 1497 
Q 3513 744 3044 326 
Q 2575 -91 1722 -91 
Q 1428 -91 1123 -41 
Q 819 9 494 109 
L 494 744 
Q 775 591 1075 516 
Q 1375 441 1709 441 
Q 2250 441 2565 725 
Q 2881 1009 2881 1497 
Q 2881 1984 2565 2268 
Q 2250 2553 1709 2553 
Q 1456 2553 1204 2497 
Q 953 2441 691 2322 
L 691 4666 
z
" transform="scale(0.015625)"/>
       </defs>
       <use xlink:href="#DejaVuSans-35"/>
       <use xlink:href="#DejaVuSans-30" x="63.623047"/>
       <use xlink:href="#DejaVuSans-30" x="127.246094"/>
      </g>
     </g>
    </g>
    <g id="ytick_7">
     <g id="line2d_14">
      <g>
       <use xlink:href="#me9de09bfc5" x="49.235" y="78.74565" style="stroke: #000000; stroke-width: 0.8"/>
      </g>
     </g>
     <g id="text_15">
      <!-- 600 -->
      <g transform="translate(23.1475 82.544869) scale(0.1 -0.1)">
       <defs>
        <path id="DejaVuSans-36" d="M 2113 2584 
Q 1688 2584 1439 2293 
Q 1191 2003 1191 1497 
Q 1191 994 1439 701 
Q 1688 409 2113 409 
Q 2538 409 2786 701 
Q 3034 994 3034 1497 
Q 3034 2003 2786 2293 
Q 2538 2584 2113 2584 
z
M 3366 4563 
L 3366 3988 
Q 3128 4100 2886 4159 
Q 2644 4219 2406 4219 
Q 1781 4219 1451 3797 
Q 1122 3375 1075 2522 
Q 1259 2794 1537 2939 
Q 1816 3084 2150 3084 
Q 2853 3084 3261 2657 
Q 3669 2231 3669 1497 
Q 3669 778 3244 343 
Q 2819 -91 2113 -91 
Q 1303 -91 875 529 
Q 447 1150 447 2328 
Q 447 3434 972 4092 
Q 1497 4750 2381 4750 
Q 2619 4750 2861 4703 
Q 3103 4656 3366 4563 
z
" transform="scale(0.015625)"/>
       </defs>
       <use xlink:href="#DejaVuSans-36"/>
       <use xlink:href="#DejaVuSans-30" x="63.623047"/>
       <use xlink:href="#DejaVuSans-30" x="127.246094"/>
      </g>
     </g>
    </g>
    <g id="ytick_8">
     <g id="line2d_15">
      <g>
       <use xlink:href="#me9de09bfc5" x="49.235" y="34.470394" style="stroke: #000000; stroke-width: 0.8"/>
      </g>
     </g>
     <g id="text_16">
      <!-- 700 -->
      <g transform="translate(23.1475 38.269613) scale(0.1 -0.1)">
       <use xlink:href="#DejaVuSans-37"/>
       <use xlink:href="#DejaVuSans-30" x="63.623047"/>
       <use xlink:href="#DejaVuSans-30" x="127.246094"/>
      </g>
     </g>
    </g>
    <g id="text_17">
     <!-- Pellet_Count -->
     <g transform="translate(16.318125 230.485312) rotate(-90) scale(0.12 -0.12)">
      <defs>
       <path id="DejaVuSans-50" d="M 1259 4147 
L 1259 2394 
L 2053 2394 
Q 2494 2394 2734 2622 
Q 2975 2850 2975 3272 
Q 2975 3691 2734 3919 
Q 2494 4147 2053 4147 
L 1259 4147 
z
M 628 4666 
L 2053 4666 
Q 2838 4666 3239 4311 
Q 3641 3956 3641 3272 
Q 3641 2581 3239 2228 
Q 2838 1875 2053 1875 
L 1259 1875 
L 1259 0 
L 628 0 
L 628 4666 
z
" transform="scale(0.015625)"/>
       <path id="DejaVuSans-6c" d="M 603 4863 
L 1178 4863 
L 1178 0 
L 603 0 
L 603 4863 
z
" transform="scale(0.015625)"/>
       <path id="DejaVuSans-74" d="M 1172 4494 
L 1172 3500 
L 2356 3500 
L 2356 3053 
L 1172 3053 
L 1172 1153 
Q 1172 725 1289 603 
Q 1406 481 1766 481 
L 2356 481 
L 2356 0 
L 1766 0 
Q 1100 0 847 248 
Q 594 497 594 1153 
L 594 3053 
L 172 3053 
L 172 3500 
L 594 3500 
L 594 4494 
L 1172 4494 
z
" transform="scale(0.015625)"/>
       <path id="DejaVuSans-5f" d="M 3263 -1063 
L 3263 -1509 
L -63 -1509 
L -63 -1063 
L 3263 -1063 
z
" transform="scale(0.015625)"/>
       <path id="DejaVuSans-43" d="M 4122 4306 
L 4122 3641 
Q 3803 3938 3442 4084 
Q 3081 4231 2675 4231 
Q 1875 4231 1450 3742 
Q 1025 3253 1025 2328 
Q 1025 1406 1450 917 
Q 1875 428 2675 428 
Q 3081 428 3442 575 
Q 3803 722 4122 1019 
L 4122 359 
Q 3791 134 3420 21 
Q 3050 -91 2638 -91 
Q 1578 -91 968 557 
Q 359 1206 359 2328 
Q 359 3453 968 4101 
Q 1578 4750 2638 4750 
Q 3056 4750 3426 4639 
Q 3797 4528 4122 4306 
z
" transform="scale(0.015625)"/>
       <path id="DejaVuSans-6f" d="M 1959 3097 
Q 1497 3097 1228 2736 
Q 959 2375 959 1747 
Q 959 1119 1226 758 
Q 1494 397 1959 397 
Q 2419 397 2687 759 
Q 2956 1122 2956 1747 
Q 2956 2369 2687 2733 
Q 2419 3097 1959 3097 
z
M 1959 3584 
Q 2709 3584 3137 3096 
Q 3566 2609 3566 1747 
Q 3566 888 3137 398 
Q 2709 -91 1959 -91 
Q 1206 -91 779 398 
Q 353 888 353 1747 
Q 353 2609 779 3096 
Q 1206 3584 1959 3584 
z
" transform="scale(0.015625)"/>
       <path id="DejaVuSans-75" d="M 544 1381 
L 544 3500 
L 1119 3500 
L 1119 1403 
Q 1119 906 1312 657 
Q 1506 409 1894 409 
Q 2359 409 2629 706 
Q 2900 1003 2900 1516 
L 2900 3500 
L 3475 3500 
L 3475 0 
L 2900 0 
L 2900 538 
Q 2691 219 2414 64 
Q 2138 -91 1772 -91 
Q 1169 -91 856 284 
Q 544 659 544 1381 
z
M 1991 3584 
L 1991 3584 
z
" transform="scale(0.015625)"/>
       <path id="DejaVuSans-6e" d="M 3513 2113 
L 3513 0 
L 2938 0 
L 2938 2094 
Q 2938 2591 2744 2837 
Q 2550 3084 2163 3084 
Q 1697 3084 1428 2787 
Q 1159 2491 1159 1978 
L 1159 0 
L 581 0 
L 581 3500 
L 1159 3500 
L 1159 2956 
Q 1366 3272 1645 3428 
Q 1925 3584 2291 3584 
Q 2894 3584 3203 3211 
Q 3513 2838 3513 2113 
z
" transform="scale(0.015625)"/>
      </defs>
      <use xlink:href="#DejaVuSans-50"/>
      <use xlink:href="#DejaVuSans-65" x="56.677734"/>
      <use xlink:href="#DejaVuSans-6c" x="118.201172"/>
      <use xlink:href="#DejaVuSans-6c" x="145.984375"/>
      <use xlink:href="#DejaVuSans-65" x="173.767578"/>
      <use xlink:href="#DejaVuSans-74" x="235.291016"/>
      <use xlink:href="#DejaVuSans-5f" x="274.5"/>
      <use xlink:href="#DejaVuSans-43" x="324.5"/>
      <use xlink:href="#DejaVuSans-6f" x="394.324219"/>
      <use xlink:href="#DejaVuSans-75" x="455.505859"/>
      <use xlink:href="#DejaVuSans-6e" x="518.884766"/>
      <use xlink:href="#DejaVuSans-74" x="582.263672"/>
     </g>
    </g>
   </g>
   <g id="line2d_16">
    <path d="M 99.962273 344.397187 
L 100.532072 344.397187 
L 101.018487 343.954435 
L 103.155235 343.954435 
L 103.162184 343.511682 
L 104.736081 343.511682 
L 104.74303 343.06893 
L 104.85421 343.06893 
L 104.944544 342.626177 
L 106.375992 342.626177 
L 106.382941 342.183425 
L 107.00833 342.183425 
L 107.022228 341.740672 
L 108.550958 341.740672 
L 108.557907 341.29792 
L 108.679511 341.29792 
L 108.766371 340.412414 
L 110.760669 340.412414 
L 110.764143 339.969662 
L 112.629889 339.969662 
L 112.633364 339.526909 
L 113.053765 339.526909 
L 113.057239 339.084157 
L 113.397729 339.084157 
L 113.404678 338.641404 
L 114.651983 338.641404 
L 114.735368 338.198652 
L 115.367707 338.198652 
L 115.440669 337.313147 
L 115.492785 337.313147 
L 115.499733 336.870394 
L 117.285569 336.870394 
L 117.396749 335.984889 
L 117.462762 335.984889 
L 117.528776 335.099384 
L 119.908731 335.099384 
L 119.91568 334.656631 
L 120.106771 334.656631 
L 120.110246 334.213879 
L 122.29911 334.213879 
L 122.372072 333.328373 
L 123.021782 333.328373 
L 123.056526 332.885621 
L 123.817417 332.885621 
L 123.928597 332.442868 
L 124.303831 332.442868 
L 124.31078 332.000116 
L 125.922896 332.000116 
L 125.968063 331.557363 
L 126.384989 331.557363 
L 126.384989 331.557363 
L 126.461426 330.671858 
L 126.527439 330.671858 
L 126.624722 329.786353 
L 127.104187 329.786353 
L 127.180624 329.3436 
L 128.441827 329.3436 
L 128.448775 328.900848 
L 129.400758 328.900848 
L 129.407706 328.458095 
L 132.517283 328.458095 
L 132.61804 327.57259 
L 132.701426 327.57259 
L 132.7049 327.129838 
L 134.282272 327.129838 
L 134.289221 326.687085 
L 136.863742 326.687085 
L 136.867216 326.244332 
L 137.919956 326.244332 
L 137.92343 325.80158 
L 138.739911 325.80158 
L 138.830245 324.916075 
L 138.941425 324.916075 
L 139.042183 324.473322 
L 139.08735 324.03057 
L 139.587662 324.03057 
L 139.591136 323.587817 
L 141.258842 323.587817 
L 141.32833 322.702312 
L 142.51657 322.702312 
L 142.620802 321.816807 
L 144.785345 321.816807 
L 144.840935 320.931302 
L 145.52539 320.931302 
L 145.615724 320.488549 
L 145.657416 320.488549 
L 145.660891 320.045797 
L 147.776793 320.045797 
L 147.884499 319.160291 
L 150.393006 319.160291 
L 150.486815 318.274786 
L 150.559777 318.274786 
L 150.62579 317.389281 
L 150.702227 317.389281 
L 150.792561 316.503776 
L 150.851626 316.503776 
L 150.8551 316.061024 
L 151.042717 316.061024 
L 151.126102 315.175518 
L 151.212962 315.175518 
L 151.275501 314.290013 
L 151.341514 314.290013 
L 151.421425 313.404508 
L 151.477015 313.404508 
L 151.563875 312.519003 
L 151.626414 312.519003 
L 151.727171 311.633498 
L 154.687349 311.633498 
L 154.753363 311.190745 
L 156.580891 311.190745 
L 156.584365 310.747993 
L 157.651002 310.747993 
L 157.855991 310.30524 
L 161.399866 310.30524 
L 161.514521 309.862488 
L 161.521469 309.862488 
L 161.674343 308.976983 
L 161.792472 308.976983 
L 161.872383 308.091477 
L 161.91755 308.091477 
L 161.924498 307.648725 
L 163.276035 307.648725 
L 163.348997 306.76322 
L 163.453229 306.76322 
L 163.550512 306.320467 
L 164.029977 305.877715 
L 168.675233 305.877715 
L 168.689131 305.434962 
L 169.342316 305.434962 
L 169.349264 304.992209 
L 169.929487 304.992209 
L 170.005924 304.106704 
L 170.075411 304.106704 
L 170.151848 303.221199 
L 173.171091 303.221199 
L 173.261425 302.778447 
L 193.371179 302.778447 
L 193.378128 302.335694 
L 193.954876 302.335694 
L 193.958351 301.892942 
L 195.789353 301.892942 
L 195.862315 301.007436 
L 196.181959 301.007436 
L 196.185433 300.564684 
L 197.526547 300.564684 
L 197.641201 299.679179 
L 197.689843 298.793674 
L 197.776702 298.793674 
L 197.867037 298.350921 
L 200.559687 298.350921 
L 200.597905 297.908168 
L 203.234965 297.908168 
L 203.339197 297.465416 
L 203.488595 297.465416 
L 203.554609 296.579911 
L 203.624097 296.579911 
L 203.704007 295.694406 
L 203.783918 295.694406 
L 203.88815 294.808901 
L 203.964586 294.808901 
L 204.058395 293.923395 
L 204.14178 293.923395 
L 204.232114 293.03789 
L 205.983206 293.03789 
L 205.990154 292.595138 
L 208.48129 292.595138 
L 208.488239 292.152385 
L 210.687526 292.152385 
L 210.694475 291.709633 
L 210.805655 291.709633 
L 210.871669 290.824127 
L 210.962003 290.824127 
L 211.038439 289.938622 
L 211.11835 289.938622 
L 211.198261 289.053117 
L 211.646457 289.053117 
L 211.71247 288.610365 
L 214.363428 288.610365 
L 215.475232 288.167612 
L 225.318172 288.167612 
L 225.394608 287.282107 
L 225.464096 287.282107 
L 225.547481 286.396602 
L 225.61002 286.396602 
L 225.689931 285.511097 
L 225.790688 285.511097 
L 225.797637 285.068344 
L 226.360488 285.068344 
L 226.46472 284.182839 
L 226.527259 284.182839 
L 226.607169 283.297334 
L 226.673183 283.297334 
L 226.676657 282.854581 
L 228.667481 282.854581 
L 228.67443 282.411829 
L 247.085209 282.411829 
L 247.206813 281.526324 
L 247.317993 281.526324 
L 247.401378 280.640819 
L 249.725744 280.640819 
L 249.826501 279.755313 
L 249.885565 279.755313 
L 249.88904 279.312561 
L 274.935899 279.312561 
L 275.050554 278.427056 
L 275.130465 278.427056 
L 275.238171 277.984303 
L 275.338928 277.984303 
L 275.425787 277.098798 
L 275.464006 277.098798 
L 275.557814 276.213293 
L 278.215721 276.213293 
L 278.219195 275.77054 
L 300.781867 275.77054 
L 300.865252 274.885035 
L 300.941689 274.885035 
L 301.025074 273.99953 
L 301.084139 273.99953 
L 301.18837 273.114025 
L 301.247435 273.114025 
L 301.334295 272.22852 
L 301.403782 272.22852 
L 301.403782 271.785767 
L 303.08886 271.785767 
L 303.168771 271.343015 
L 321.503114 271.343015 
L 321.586499 270.45751 
L 321.645564 270.45751 
L 321.770642 269.572004 
L 321.860976 269.572004 
L 321.947835 268.686499 
L 322.06249 268.686499 
L 322.131978 267.800994 
L 349.524048 267.800994 
L 349.617857 266.915489 
L 349.77073 266.915489 
L 349.864538 266.029984 
L 349.934026 266.029984 
L 350.010463 265.144479 
L 350.093848 265.144479 
L 350.19808 264.258974 
L 350.284939 264.258974 
L 350.357901 263.373469 
L 350.423915 263.373469 
L 350.430864 262.930716 
L 351.361999 262.930716 
L 351.372423 262.487963 
L 374.869705 262.487963 
L 374.939193 262.045211 
L 374.994783 262.045211 
L 375.060796 261.159706 
L 375.12681 261.159706 
L 375.244939 260.274201 
L 375.328324 260.274201 
L 375.415184 259.388696 
L 375.495095 259.388696 
L 375.498569 258.945943 
L 375.616698 258.945943 
L 375.717455 258.060438 
L 386.314337 258.060438 
L 386.317812 257.617685 
L 386.428992 257.617685 
L 386.432466 257.174933 
L 386.60966 257.174933 
L 386.759059 256.289428 
L 386.852867 256.289428 
L 386.859816 255.846675 
L 387.245473 255.846675 
L 387.248947 255.403922 
L 393.436831 255.403922 
L 393.440306 254.96117 
L 395.417232 254.96117 
L 395.531887 254.075665 
L 395.618747 254.075665 
L 395.719504 253.19016 
L 395.79594 253.19016 
L 395.907121 252.304655 
L 395.96966 252.304655 
L 396.032199 251.419149 
L 398.116831 251.419149 
L 398.203691 250.976397 
L 403.040038 250.976397 
L 403.106052 250.090892 
L 403.248502 250.090892 
L 403.251976 249.648139 
L 406.243424 249.648139 
L 406.323334 248.762634 
L 406.96957 248.762634 
L 406.979994 248.319881 
L 408.081374 248.319881 
L 408.185606 247.434376 
L 408.265517 247.434376 
L 408.317633 246.548871 
L 409.735183 246.548871 
L 409.74908 246.106119 
L 412.882978 246.106119 
L 412.914247 245.663366 
L 413.074069 245.663366 
L 413.136608 244.777861 
L 413.261686 244.777861 
L 413.272109 244.335108 
L 415.992555 244.335108 
L 416.086363 243.449603 
L 418.202265 243.449603 
L 418.306497 242.564098 
L 418.382933 242.564098 
L 418.490639 241.235841 
L 418.567076 241.235841 
L 418.62614 240.350335 
L 418.699103 240.350335 
L 418.702577 239.907583 
L 422.197811 239.907583 
L 422.267298 239.022078 
L 422.607788 239.022078 
L 422.611263 238.579325 
L 424.984269 238.579325 
L 424.987744 238.136573 
L 427.291263 238.136573 
L 427.423289 237.69382 
L 427.451084 237.69382 
L 427.454559 237.251067 
L 427.610906 237.251067 
L 427.704715 236.365562 
L 427.774203 236.365562 
L 427.781151 235.92281 
L 428.246719 235.92281 
L 428.253668 235.480057 
L 431.863557 235.480057 
L 431.943467 234.594552 
L 432.030327 234.594552 
L 432.144982 234.1518 
L 432.155405 234.1518 
L 432.263111 233.266294 
L 433.812688 233.266294 
L 433.816162 232.823542 
L 439.667031 232.823542 
L 439.764314 232.380789 
L 439.892866 231.495284 
L 439.951931 231.495284 
L 440.063111 230.609779 
L 442.526452 230.609779 
L 442.529926 230.167026 
L 448.707387 230.167026 
L 448.842888 229.281521 
L 448.919325 229.281521 
L 448.922799 228.838769 
L 453.099013 228.838769 
L 453.206719 228.396016 
L 454.099636 228.396016 
L 454.151752 227.510511 
L 454.228189 227.510511 
L 454.231663 227.067759 
L 455.729124 227.067759 
L 455.822932 226.182253 
L 456.743645 226.182253 
L 456.747119 225.739501 
L 458.519057 225.739501 
L 458.581596 224.853996 
L 458.678879 224.853996 
L 458.797008 223.525738 
L 460.638433 223.525738 
L 460.641908 223.082985 
L 464.696518 223.082985 
L 464.790326 222.19748 
L 464.849391 222.19748 
L 464.852865 221.754728 
L 467.416963 221.754728 
L 467.514246 221.311975 
L 468.678166 221.311975 
L 468.761551 220.869223 
L 470.005382 220.869223 
L 470.126985 219.983718 
L 470.133934 219.983718 
L 470.137409 219.540965 
L 472.850905 219.540965 
L 472.920393 218.65546 
L 472.969034 218.65546 
L 473.062843 217.769955 
L 473.121907 217.769955 
L 473.212242 216.88445 
L 473.267832 216.88445 
L 473.271306 216.441697 
L 492.495092 216.441697 
L 492.575003 215.556192 
L 492.647965 215.556192 
L 492.724401 214.670687 
L 492.804312 214.670687 
L 492.814735 214.227934 
L 492.925916 214.227934 
L 493.037096 213.342429 
L 496.987475 213.342429 
L 497.077809 212.899677 
L 499.332686 212.899677 
L 499.405648 212.014171 
L 499.499457 212.014171 
L 499.589791 211.571419 
L 499.926807 211.571419 
L 499.930281 211.128666 
L 500.468811 211.128666 
L 500.524401 210.685914 
L 502.546495 210.685914 
L 502.549969 210.243161 
L 502.671573 210.243161 
L 502.734112 209.357656 
L 503.036383 209.357656 
L 503.039858 208.914903 
L 505.239145 208.914903 
L 505.451083 207.586646 
L 505.530994 207.586646 
L 505.624802 207.143893 
L 508.317452 207.143893 
L 508.428633 206.258388 
L 508.449479 206.258388 
L 508.543287 205.815636 
L 514.651261 205.815636 
L 514.734646 204.93013 
L 514.828454 204.93013 
L 514.915314 204.487378 
L 515.314869 204.487378 
L 515.387831 203.601873 
L 515.467742 203.601873 
L 515.537229 202.716368 
L 515.599768 202.716368 
L 515.683154 201.830862 
L 515.794334 201.830862 
L 515.863822 200.945357 
L 515.93331 200.945357 
L 516.01322 200.502605 
L 519.720392 200.502605 
L 519.821149 199.6171 
L 526.189701 199.6171 
L 526.200124 199.174347 
L 538.548097 199.174347 
L 538.662752 198.288842 
L 538.728766 198.288842 
L 538.812151 197.403337 
L 558.296516 197.403337 
L 558.390324 196.517832 
L 558.463286 196.517832 
L 558.543197 195.632327 
L 558.626582 195.632327 
L 558.630057 195.189574 
L 558.78293 195.189574 
L 558.786404 194.746821 
L 563.021683 194.746821 
L 563.188453 193.861316 
L 590.816782 193.861316 
L 590.820257 193.418564 
L 591.004399 193.418564 
L 591.205914 192.090306 
L 591.296248 192.090306 
L 591.365735 191.204801 
L 612.507383 191.204801 
L 612.569922 190.319296 
L 612.701949 190.319296 
L 612.78186 189.433791 
L 612.910412 189.433791 
L 612.966002 188.548286 
L 613.337762 188.548286 
L 613.348185 188.105533 
L 626.985155 188.105533 
L 626.999053 187.66278 
L 627.113708 187.66278 
L 627.210991 186.777275 
L 627.280478 186.777275 
L 627.356915 185.89177 
L 627.426403 185.89177 
L 627.506314 185.006265 
L 627.572327 185.006265 
L 627.662661 184.12076 
L 627.742572 184.12076 
L 627.746046 183.678007 
L 628.291525 183.678007 
L 628.298474 183.235255 
L 629.566625 183.235255 
L 629.705601 182.792502 
L 634.281369 182.792502 
L 634.291792 182.34975 
L 647.664709 182.34975 
L 647.755044 181.464245 
L 658.146936 181.464245 
L 658.153885 181.021492 
L 658.310233 181.021492 
L 658.386669 180.135987 
L 658.49785 180.135987 
L 658.636825 179.250482 
L 658.730634 179.250482 
L 658.796647 178.807729 
L 658.848763 178.364977 
L 678.409564 178.364977 
L 678.51727 177.922224 
L 678.524219 177.922224 
L 678.600655 177.036719 
L 678.656246 177.036719 
L 678.739631 176.151214 
L 678.795221 176.151214 
L 678.875132 175.265709 
L 678.934197 175.265709 
L 679.017582 174.380204 
L 679.076646 174.380204 
L 679.080121 173.937451 
L 687.189341 173.937451 
L 687.192815 173.494698 
L 689.433795 173.494698 
L 689.440744 173.051946 
L 693.033261 173.051946 
L 693.04021 172.609193 
L 695.381947 172.609193 
L 695.399319 172.166441 
L 696.813394 172.166441 
L 696.917626 171.723688 
L 696.934998 171.723688 
L 696.938472 171.280936 
L 697.334552 171.280936 
L 697.338027 170.838183 
L 698.376869 170.838183 
L 698.439408 170.395431 
L 699.526891 170.395431 
L 700.079318 169.952678 
L 702.827559 169.952678 
L 703.04992 168.62442 
L 703.862926 168.62442 
L 703.869875 168.181668 
L 704.470944 168.181668 
L 704.853127 167.738915 
L 706.13865 167.738915 
L 706.746668 167.296163 
L 707.660432 167.296163 
L 708.035666 166.85341 
L 708.192013 166.85341 
L 708.803505 166.410657 
L 712.854641 166.410657 
L 712.94845 165.525152 
L 714.063728 165.525152 
L 714.070677 165.0824 
L 714.543193 165.0824 
L 714.543193 165.0824 
L 714.553617 164.639647 
L 714.828093 164.639647 
L 714.831568 164.196895 
L 715.80787 164.196895 
L 716.784173 163.754142 
L 717.989786 163.754142 
L 718.625599 163.31139 
L 719.831211 163.31139 
L 719.911122 162.868637 
L 720.143906 162.868637 
L 720.161278 162.425884 
L 720.897848 162.425884 
L 720.904797 161.983132 
L 721.137581 161.983132 
L 722.19032 161.540379 
L 723.896244 161.540379 
L 724.038694 160.654874 
L 724.254106 160.654874 
L 724.257581 160.212122 
L 725.209563 160.212122 
L 726.237982 159.769369 
L 726.241456 159.326616 
L 728.836823 159.326616 
L 728.923683 158.883864 
L 729.646356 158.883864 
L 729.837447 158.441111 
L 730.574017 158.441111 
L 730.904084 157.998359 
L 735.681367 157.998359 
L 735.730008 157.555606 
L 738.936868 157.555606 
L 739.00983 156.670101 
L 739.190498 156.670101 
L 739.26346 155.784596 
L 740.521188 155.784596 
L 740.576779 155.341843 
L 741.066667 155.341843 
L 741.132681 154.899091 
L 741.886623 154.899091 
L 742.049919 154.456338 
L 742.338293 154.456338 
L 742.862925 154.013586 
L 743.960832 154.013586 
L 743.974729 153.570833 
L 744.846801 153.570833 
L 744.951032 152.685328 
L 744.985776 152.685328 
L 744.992725 152.242575 
L 745.572948 152.242575 
L 745.673705 151.799823 
L 745.996823 151.799823 
L 746.090631 150.471565 
L 747.991121 150.471565 
L 748.168315 150.028813 
L 748.619985 150.028813 
L 748.665153 149.143308 
L 751.218827 149.143308 
L 751.225776 148.700555 
L 751.409919 148.700555 
L 751.416867 148.257802 
L 752.674596 148.257802 
L 753.866311 147.81505 
L 753.967068 146.486792 
L 754.019184 146.486792 
L 754.092146 146.04404 
L 754.234596 145.601287 
L 758.202346 145.601287 
L 758.650542 145.158534 
L 760.62052 145.158534 
L 760.947112 144.715782 
L 761.805286 144.715782 
L 761.80876 144.273029 
L 762.802435 144.273029 
L 762.805909 143.830277 
L 763.146399 143.830277 
L 763.153348 143.387524 
L 763.594595 143.387524 
L 763.657134 142.944772 
L 766.412324 142.944772 
L 766.513081 142.502019 
L 766.919584 142.502019 
L 766.926533 142.059267 
L 767.451165 142.059267 
L 767.458114 141.616514 
L 768.969473 141.616514 
L 769.01464 141.173761 
L 769.872813 141.173761 
L 769.872813 141.173761 
L 769.983994 139.845504 
L 770.077802 139.845504 
L 770.122969 138.959999 
L 770.40092 138.959999 
L 770.404395 138.517246 
L 771.439762 138.517246 
L 771.443237 138.074494 
L 780.740697 138.074494 
L 780.841455 137.188988 
L 780.907468 137.188988 
L 780.990853 136.303483 
L 781.056867 136.303483 
L 781.060341 135.860731 
L 782.158247 135.860731 
L 782.161722 135.417978 
L 787.508804 135.417978 
L 787.623459 134.532473 
L 787.689472 134.532473 
L 787.786755 134.08972 
L 791.27504 134.08972 
L 791.382746 133.646968 
L 791.424439 133.204215 
L 791.556466 133.204215 
L 791.622479 132.31871 
L 791.705864 132.31871 
L 791.740608 131.875958 
L 796.597802 131.875958 
L 796.903548 131.433205 
L 798.616421 131.433205 
L 799.551031 130.990453 
L 806.381677 130.990453 
L 806.461588 130.104947 
L 806.527601 130.104947 
L 806.610986 129.219442 
L 806.683948 129.219442 
L 806.777757 128.333937 
L 806.833347 128.333937 
L 806.913258 127.448432 
L 806.989695 127.448432 
L 807.100875 126.562927 
L 807.156465 126.562927 
L 807.232902 125.677422 
L 816.808313 125.677422 
L 816.919494 125.234669 
L 816.929917 125.234669 
L 817.002879 124.349164 
L 817.075841 124.349164 
L 817.22524 123.463659 
L 817.833258 123.463659 
L 818.121632 123.020906 
L 820.473792 123.020906 
L 820.571075 122.135401 
L 823.777935 122.135401 
L 823.784883 121.692649 
L 824.663903 121.692649 
L 824.79593 121.249896 
L 827.776955 121.249896 
L 827.780429 120.807144 
L 838.161899 120.807144 
L 838.238335 119.921638 
L 838.318246 119.921638 
L 838.391208 119.036133 
L 838.457222 119.036133 
L 838.557979 118.150628 
L 838.641364 118.150628 
L 838.703903 117.265123 
L 838.794237 117.265123 
L 838.870674 116.379618 
L 838.961008 116.379618 
L 839.054816 115.494113 
L 849.773302 115.494113 
L 849.874059 114.608608 
L 849.95397 114.608608 
L 850.026932 113.723103 
L 850.158959 113.723103 
L 850.259716 112.837597 
L 863.354682 112.837597 
L 863.358156 112.394845 
L 863.47976 112.394845 
L 863.577043 111.952092 
L 866.360027 111.952092 
L 866.432989 111.066587 
L 866.537221 111.066587 
L 866.540695 110.623835 
L 868.267466 110.623835 
L 868.670495 110.181082 
L 885.250272 110.181082 
L 885.330183 109.295577 
L 891.730004 109.295577 
L 891.820338 108.410072 
L 892.094815 108.410072 
L 892.157354 107.524567 
L 908.705861 107.524567 
L 908.817042 106.639062 
L 908.900427 106.639062 
L 908.983812 105.753556 
L 909.060249 105.753556 
L 909.136685 104.868051 
L 909.223545 104.868051 
L 909.227019 104.425299 
L 913.768044 104.425299 
L 920.953077 103.982546 
L 935.062565 103.982546 
L 935.132052 103.097041 
L 935.243233 103.097041 
L 935.354413 102.654289 
L 935.43085 101.768783 
L 935.496863 101.768783 
L 935.500337 101.326031 
L 951.968934 101.326031 
L 952.087063 100.883278 
L 952.097486 100.883278 
L 952.201718 99.997773 
L 956.645459 99.997773 
L 956.652408 99.555021 
L 956.763589 99.555021 
L 956.770537 99.112268 
L 957.871918 99.112268 
L 957.878867 98.669515 
L 958.00047 98.669515 
L 958.003945 98.226763 
L 967.353521 98.226763 
L 967.356996 97.78401 
L 967.926795 97.78401 
L 967.98586 97.341258 
L 969.841183 97.341258 
L 969.848132 96.898505 
L 971.73125 96.898505 
L 971.738198 96.455753 
L 972.186394 96.455753 
L 972.189869 96.013 
L 981.348354 96.013 
L 981.449111 95.127495 
L 981.522073 95.127495 
L 981.619356 94.24199 
L 981.68537 94.24199 
L 981.768755 93.356485 
L 981.848666 93.356485 
L 981.848666 92.913732 
L 981.932051 92.913732 
L 981.987641 92.47098 
L 982.362875 92.47098 
L 993.130002 92.028227 
L 993.230759 91.142722 
L 993.324568 91.142722 
L 993.328042 90.699969 
L 996.121449 90.699969 
L 997.337485 90.257217 
L 1001.180158 90.257217 
L 1001.183632 89.814464 
L 1002.04528 89.814464 
L 1002.107819 89.371712 
L 1003.977039 89.371712 
L 1004.793521 88.928959 
L 1004.908175 87.600701 
L 1004.981137 87.600701 
L 1005.061048 86.715196 
L 1005.102741 86.715196 
L 1005.113164 86.272444 
L 1009.838331 86.272444 
L 1010.345592 85.829691 
L 1011.540781 85.829691 
L 1011.683231 85.386939 
L 1013.521182 85.386939 
L 1013.528131 84.944186 
L 1014.132674 84.944186 
L 1014.181315 84.501433 
L 1014.452318 84.058681 
L 1014.900514 84.058681 
L 1015.85597 83.615928 
L 1015.956727 82.287671 
L 1019.424166 82.287671 
L 1019.868888 81.844918 
L 1019.872362 81.402166 
L 1020.709689 81.402166 
L 1020.852139 80.959413 
L 1022.346126 80.959413 
L 1022.464255 79.631155 
L 1022.512897 79.631155 
L 1022.582384 78.74565 
L 1025.108264 78.74565 
L 1025.156905 78.302898 
L 1025.890001 78.302898 
L 1026.282607 77.860145 
L 1027.25891 77.860145 
L 1027.317974 76.97464 
L 1027.672362 76.97464 
L 1028.266482 76.531887 
L 1030.250357 76.531887 
L 1030.365012 75.20363 
L 1031.911115 75.20363 
L 1031.914589 74.760877 
L 1032.237707 74.760877 
L 1032.241181 74.318125 
L 1033.009021 74.318125 
L 1033.234856 73.875372 
L 1033.787284 73.875372 
L 1033.790758 73.432619 
L 1034.249377 73.432619 
L 1034.252852 72.989867 
L 1035.305591 72.989867 
L 1035.364656 72.104362 
L 1036.219355 72.104362 
L 1036.709244 71.661609 
L 1037.563943 71.661609 
L 1037.567417 71.218857 
L 1038.366526 71.218857 
L 1038.759132 70.776104 
L 1038.835569 69.890599 
L 1039.005814 69.890599 
L 1039.009288 69.447846 
L 1043.967239 69.447846 
L 1044.054099 69.005094 
L 1044.92617 69.005094 
L 1044.929644 68.562341 
L 1045.958063 68.562341 
L 1046.031025 67.676836 
L 1046.103987 67.676836 
L 1047.208842 67.234084 
L 1047.257484 66.348578 
L 1048.737573 66.348578 
L 1049.050268 65.905826 
L 1050.721448 65.905826 
L 1050.77009 65.020321 
L 1051.722072 65.020321 
L 1051.798508 64.577568 
L 1053.042339 64.577568 
L 1053.156994 63.24931 
L 1053.191738 63.24931 
L 1053.302918 61.921053 
L 1054.560646 61.921053 
L 1054.564121 61.4783 
L 1059.254544 61.4783 
L 1059.942472 61.035548 
L 1060.057127 59.70729 
L 1060.112717 59.70729 
L 1060.171782 58.821785 
L 1062.207773 58.821785 
L 1062.346749 58.379032 
L 1062.742829 58.379032 
L 1062.79147 57.93628 
L 1079.190579 57.93628 
L 1079.280913 57.050775 
L 1079.343452 57.050775 
L 1079.454632 56.165269 
L 1079.538018 56.165269 
L 1079.593608 55.279764 
L 1079.66657 55.279764 
L 1079.732583 54.394259 
L 1079.795122 54.394259 
L 1079.888931 53.508754 
L 1079.947995 53.508754 
L 1080.052227 52.623249 
L 1080.107817 52.623249 
L 1080.163407 52.180496 
L 1080.29196 52.180496 
L 1080.295434 51.737744 
L 1080.792272 51.737744 
L 1080.792272 51.737744 
L 1081.327327 51.294991 
L 1082.637171 51.294991 
L 1084.353519 50.852239 
L 1084.419532 49.966734 
L 1086.076815 49.966734 
L 1086.087238 49.523981 
L 1088.20314 49.523981 
L 1088.213563 49.081228 
L 1089.453919 49.081228 
L 1089.460868 48.638476 
L 1090.221759 48.638476 
L 1090.235657 48.195723 
L 1097.139264 48.195723 
L 1097.236547 47.310218 
L 1097.33383 47.310218 
L 1097.434587 46.424713 
L 1097.511024 46.424713 
L 1097.601358 45.539208 
L 1110.129999 45.539208 
L 1110.216859 44.653703 
L 1110.275923 44.653703 
L 1110.355834 43.768198 
L 1110.421848 43.768198 
L 1110.491335 42.882693 
L 1110.557349 42.882693 
L 1110.626836 41.997187 
L 1114.507727 41.997187 
L 1114.507727 41.997187 
" clip-path="url(#p746eb1313c)" style="fill: none; stroke: #0000ff; stroke-width: 1.5; stroke-linecap: square"/>
   </g>
   <g id="patch_123">
    <path d="M 49.235 359.517187 
L 49.235 26.877187 
" style="fill: none; stroke: #000000; stroke-width: 0.8; stroke-linejoin: miter; stroke-linecap: square"/>
   </g>
   <g id="patch_124">
    <path d="M 1165.235 359.517187 
L 1165.235 26.877187 
" style="fill: none; stroke: #000000; stroke-width: 0.8; stroke-linejoin: miter; stroke-linecap: square"/>
   </g>
   <g id="patch_125">
    <path d="M 49.235 359.517187 
L 1165.235 359.517187 
" style="fill: none; stroke: #000000; stroke-width: 0.8; stroke-linejoin: miter; stroke-linecap: square"/>
   </g>
   <g id="patch_126">
    <path d="M 49.235 26.877187 
L 1165.235 26.877187 
" style="fill: none; stroke: #000000; stroke-width: 0.8; stroke-linejoin: miter; stroke-linecap: square"/>
   </g>
   <g id="text_18">
    <!-- Pellet Count and Cumulative Sum Over Time of Group 5 Mouse 2 -->
    <g transform="translate(315.460625 20.877187) scale(0.18 -0.18)">
     <defs>
      <path id="DejaVuSans-61" d="M 2194 1759 
Q 1497 1759 1228 1600 
Q 959 1441 959 1056 
Q 959 750 1161 570 
Q 1363 391 1709 391 
Q 2188 391 2477 730 
Q 2766 1069 2766 1631 
L 2766 1759 
L 2194 1759 
z
M 3341 1997 
L 3341 0 
L 2766 0 
L 2766 531 
Q 2569 213 2275 61 
Q 1981 -91 1556 -91 
Q 1019 -91 701 211 
Q 384 513 384 1019 
Q 384 1609 779 1909 
Q 1175 2209 1959 2209 
L 2766 2209 
L 2766 2266 
Q 2766 2663 2505 2880 
Q 2244 3097 1772 3097 
Q 1472 3097 1187 3025 
Q 903 2953 641 2809 
L 641 3341 
Q 956 3463 1253 3523 
Q 1550 3584 1831 3584 
Q 2591 3584 2966 3190 
Q 3341 2797 3341 1997 
z
" transform="scale(0.015625)"/>
      <path id="DejaVuSans-64" d="M 2906 2969 
L 2906 4863 
L 3481 4863 
L 3481 0 
L 2906 0 
L 2906 525 
Q 2725 213 2448 61 
Q 2172 -91 1784 -91 
Q 1150 -91 751 415 
Q 353 922 353 1747 
Q 353 2572 751 3078 
Q 1150 3584 1784 3584 
Q 2172 3584 2448 3432 
Q 2725 3281 2906 2969 
z
M 947 1747 
Q 947 1113 1208 752 
Q 1469 391 1925 391 
Q 2381 391 2643 752 
Q 2906 1113 2906 1747 
Q 2906 2381 2643 2742 
Q 2381 3103 1925 3103 
Q 1469 3103 1208 2742 
Q 947 2381 947 1747 
z
" transform="scale(0.015625)"/>
      <path id="DejaVuSans-76" d="M 191 3500 
L 800 3500 
L 1894 563 
L 2988 3500 
L 3597 3500 
L 2284 0 
L 1503 0 
L 191 3500 
z
" transform="scale(0.015625)"/>
      <path id="DejaVuSans-53" d="M 3425 4513 
L 3425 3897 
Q 3066 4069 2747 4153 
Q 2428 4238 2131 4238 
Q 1616 4238 1336 4038 
Q 1056 3838 1056 3469 
Q 1056 3159 1242 3001 
Q 1428 2844 1947 2747 
L 2328 2669 
Q 3034 2534 3370 2195 
Q 3706 1856 3706 1288 
Q 3706 609 3251 259 
Q 2797 -91 1919 -91 
Q 1588 -91 1214 -16 
Q 841 59 441 206 
L 441 856 
Q 825 641 1194 531 
Q 1563 422 1919 422 
Q 2459 422 2753 634 
Q 3047 847 3047 1241 
Q 3047 1584 2836 1778 
Q 2625 1972 2144 2069 
L 1759 2144 
Q 1053 2284 737 2584 
Q 422 2884 422 3419 
Q 422 4038 858 4394 
Q 1294 4750 2059 4750 
Q 2388 4750 2728 4690 
Q 3069 4631 3425 4513 
z
" transform="scale(0.015625)"/>
      <path id="DejaVuSans-4f" d="M 2522 4238 
Q 1834 4238 1429 3725 
Q 1025 3213 1025 2328 
Q 1025 1447 1429 934 
Q 1834 422 2522 422 
Q 3209 422 3611 934 
Q 4013 1447 4013 2328 
Q 4013 3213 3611 3725 
Q 3209 4238 2522 4238 
z
M 2522 4750 
Q 3503 4750 4090 4092 
Q 4678 3434 4678 2328 
Q 4678 1225 4090 567 
Q 3503 -91 2522 -91 
Q 1538 -91 948 565 
Q 359 1222 359 2328 
Q 359 3434 948 4092 
Q 1538 4750 2522 4750 
z
" transform="scale(0.015625)"/>
      <path id="DejaVuSans-72" d="M 2631 2963 
Q 2534 3019 2420 3045 
Q 2306 3072 2169 3072 
Q 1681 3072 1420 2755 
Q 1159 2438 1159 1844 
L 1159 0 
L 581 0 
L 581 3500 
L 1159 3500 
L 1159 2956 
Q 1341 3275 1631 3429 
Q 1922 3584 2338 3584 
Q 2397 3584 2469 3576 
Q 2541 3569 2628 3553 
L 2631 2963 
z
" transform="scale(0.015625)"/>
      <path id="DejaVuSans-66" d="M 2375 4863 
L 2375 4384 
L 1825 4384 
Q 1516 4384 1395 4259 
Q 1275 4134 1275 3809 
L 1275 3500 
L 2222 3500 
L 2222 3053 
L 1275 3053 
L 1275 0 
L 697 0 
L 697 3053 
L 147 3053 
L 147 3500 
L 697 3500 
L 697 3744 
Q 697 4328 969 4595 
Q 1241 4863 1831 4863 
L 2375 4863 
z
" transform="scale(0.015625)"/>
      <path id="DejaVuSans-47" d="M 3809 666 
L 3809 1919 
L 2778 1919 
L 2778 2438 
L 4434 2438 
L 4434 434 
Q 4069 175 3628 42 
Q 3188 -91 2688 -91 
Q 1594 -91 976 548 
Q 359 1188 359 2328 
Q 359 3472 976 4111 
Q 1594 4750 2688 4750 
Q 3144 4750 3555 4637 
Q 3966 4525 4313 4306 
L 4313 3634 
Q 3963 3931 3569 4081 
Q 3175 4231 2741 4231 
Q 1884 4231 1454 3753 
Q 1025 3275 1025 2328 
Q 1025 1384 1454 906 
Q 1884 428 2741 428 
Q 3075 428 3337 486 
Q 3600 544 3809 666 
z
" transform="scale(0.015625)"/>
      <path id="DejaVuSans-70" d="M 1159 525 
L 1159 -1331 
L 581 -1331 
L 581 3500 
L 1159 3500 
L 1159 2969 
Q 1341 3281 1617 3432 
Q 1894 3584 2278 3584 
Q 2916 3584 3314 3078 
Q 3713 2572 3713 1747 
Q 3713 922 3314 415 
Q 2916 -91 2278 -91 
Q 1894 -91 1617 61 
Q 1341 213 1159 525 
z
M 3116 1747 
Q 3116 2381 2855 2742 
Q 2594 3103 2138 3103 
Q 1681 3103 1420 2742 
Q 1159 2381 1159 1747 
Q 1159 1113 1420 752 
Q 1681 391 2138 391 
Q 2594 391 2855 752 
Q 3116 1113 3116 1747 
z
" transform="scale(0.015625)"/>
      <path id="DejaVuSans-4d" d="M 628 4666 
L 1569 4666 
L 2759 1491 
L 3956 4666 
L 4897 4666 
L 4897 0 
L 4281 0 
L 4281 4097 
L 3078 897 
L 2444 897 
L 1241 4097 
L 1241 0 
L 628 0 
L 628 4666 
z
" transform="scale(0.015625)"/>
      <path id="DejaVuSans-73" d="M 2834 3397 
L 2834 2853 
Q 2591 2978 2328 3040 
Q 2066 3103 1784 3103 
Q 1356 3103 1142 2972 
Q 928 2841 928 2578 
Q 928 2378 1081 2264 
Q 1234 2150 1697 2047 
L 1894 2003 
Q 2506 1872 2764 1633 
Q 3022 1394 3022 966 
Q 3022 478 2636 193 
Q 2250 -91 1575 -91 
Q 1294 -91 989 -36 
Q 684 19 347 128 
L 347 722 
Q 666 556 975 473 
Q 1284 391 1588 391 
Q 1994 391 2212 530 
Q 2431 669 2431 922 
Q 2431 1156 2273 1281 
Q 2116 1406 1581 1522 
L 1381 1569 
Q 847 1681 609 1914 
Q 372 2147 372 2553 
Q 372 3047 722 3315 
Q 1072 3584 1716 3584 
Q 2034 3584 2315 3537 
Q 2597 3491 2834 3397 
z
" transform="scale(0.015625)"/>
     </defs>
     <use xlink:href="#DejaVuSans-50"/>
     <use xlink:href="#DejaVuSans-65" x="56.677734"/>
     <use xlink:href="#DejaVuSans-6c" x="118.201172"/>
     <use xlink:href="#DejaVuSans-6c" x="145.984375"/>
     <use xlink:href="#DejaVuSans-65" x="173.767578"/>
     <use xlink:href="#DejaVuSans-74" x="235.291016"/>
     <use xlink:href="#DejaVuSans-20" x="274.5"/>
     <use xlink:href="#DejaVuSans-43" x="306.287109"/>
     <use xlink:href="#DejaVuSans-6f" x="376.111328"/>
     <use xlink:href="#DejaVuSans-75" x="437.292969"/>
     <use xlink:href="#DejaVuSans-6e" x="500.671875"/>
     <use xlink:href="#DejaVuSans-74" x="564.050781"/>
     <use xlink:href="#DejaVuSans-20" x="603.259766"/>
     <use xlink:href="#DejaVuSans-61" x="635.046875"/>
     <use xlink:href="#DejaVuSans-6e" x="696.326172"/>
     <use xlink:href="#DejaVuSans-64" x="759.705078"/>
     <use xlink:href="#DejaVuSans-20" x="823.181641"/>
     <use xlink:href="#DejaVuSans-43" x="854.96875"/>
     <use xlink:href="#DejaVuSans-75" x="924.792969"/>
     <use xlink:href="#DejaVuSans-6d" x="988.171875"/>
     <use xlink:href="#DejaVuSans-75" x="1085.583984"/>
     <use xlink:href="#DejaVuSans-6c" x="1148.962891"/>
     <use xlink:href="#DejaVuSans-61" x="1176.746094"/>
     <use xlink:href="#DejaVuSans-74" x="1238.025391"/>
     <use xlink:href="#DejaVuSans-69" x="1277.234375"/>
     <use xlink:href="#DejaVuSans-76" x="1305.017578"/>
     <use xlink:href="#DejaVuSans-65" x="1364.197266"/>
     <use xlink:href="#DejaVuSans-20" x="1425.720703"/>
     <use xlink:href="#DejaVuSans-53" x="1457.507812"/>
     <use xlink:href="#DejaVuSans-75" x="1520.984375"/>
     <use xlink:href="#DejaVuSans-6d" x="1584.363281"/>
     <use xlink:href="#DejaVuSans-20" x="1681.775391"/>
     <use xlink:href="#DejaVuSans-4f" x="1713.5625"/>
     <use xlink:href="#DejaVuSans-76" x="1792.273438"/>
     <use xlink:href="#DejaVuSans-65" x="1851.453125"/>
     <use xlink:href="#DejaVuSans-72" x="1912.976562"/>
     <use xlink:href="#DejaVuSans-20" x="1954.089844"/>
     <use xlink:href="#DejaVuSans-54" x="1985.876953"/>
     <use xlink:href="#DejaVuSans-69" x="2043.835938"/>
     <use xlink:href="#DejaVuSans-6d" x="2071.619141"/>
     <use xlink:href="#DejaVuSans-65" x="2169.03125"/>
     <use xlink:href="#DejaVuSans-20" x="2230.554688"/>
     <use xlink:href="#DejaVuSans-6f" x="2262.341797"/>
     <use xlink:href="#DejaVuSans-66" x="2323.523438"/>
     <use xlink:href="#DejaVuSans-20" x="2358.728516"/>
     <use xlink:href="#DejaVuSans-47" x="2390.515625"/>
     <use xlink:href="#DejaVuSans-72" x="2468.005859"/>
     <use xlink:href="#DejaVuSans-6f" x="2506.869141"/>
     <use xlink:href="#DejaVuSans-75" x="2568.050781"/>
     <use xlink:href="#DejaVuSans-70" x="2631.429688"/>
     <use xlink:href="#DejaVuSans-20" x="2694.90625"/>
     <use xlink:href="#DejaVuSans-35" x="2726.693359"/>
     <use xlink:href="#DejaVuSans-20" x="2790.316406"/>
     <use xlink:href="#DejaVuSans-4d" x="2822.103516"/>
     <use xlink:href="#DejaVuSans-6f" x="2908.382812"/>
     <use xlink:href="#DejaVuSans-75" x="2969.564453"/>
     <use xlink:href="#DejaVuSans-73" x="3032.943359"/>
     <use xlink:href="#DejaVuSans-65" x="3085.042969"/>
     <use xlink:href="#DejaVuSans-20" x="3146.566406"/>
     <use xlink:href="#DejaVuSans-32" x="3178.353516"/>
    </g>
   </g>
   <g id="legend_1">
    <g id="patch_127">
     <path d="M 1086.550625 64.233437 
L 1158.235 64.233437 
Q 1160.235 64.233437 1160.235 62.233437 
L 1160.235 33.877187 
Q 1160.235 31.877187 1158.235 31.877187 
L 1086.550625 31.877187 
Q 1084.550625 31.877187 1084.550625 33.877187 
L 1084.550625 62.233437 
Q 1084.550625 64.233437 1086.550625 64.233437 
z
" style="fill: #ffffff; opacity: 0.8; stroke: #cccccc; stroke-linejoin: miter"/>
    </g>
    <g id="patch_128">
     <path d="M 1088.550625 43.475625 
L 1108.550625 43.475625 
L 1108.550625 36.475625 
L 1088.550625 36.475625 
z
" style="fill: #add8e6; opacity: 0.9; stroke: #add8e6; stroke-linejoin: miter"/>
    </g>
    <g id="text_19">
     <!-- Meal -->
     <g transform="translate(1116.550625 43.475625) scale(0.1 -0.1)">
      <use xlink:href="#DejaVuSans-4d"/>
      <use xlink:href="#DejaVuSans-65" x="86.279297"/>
      <use xlink:href="#DejaVuSans-61" x="147.802734"/>
      <use xlink:href="#DejaVuSans-6c" x="209.082031"/>
     </g>
    </g>
    <g id="patch_129">
     <path d="M 1088.550625 58.15375 
L 1108.550625 58.15375 
L 1108.550625 51.15375 
L 1088.550625 51.15375 
z
" style="fill: #808080; opacity: 0.5; stroke: #808080; stroke-linejoin: miter"/>
    </g>
    <g id="text_20">
     <!-- Inactive -->
     <g transform="translate(1116.550625 58.15375) scale(0.1 -0.1)">
      <defs>
       <path id="DejaVuSans-49" d="M 628 4666 
L 1259 4666 
L 1259 0 
L 628 0 
L 628 4666 
z
" transform="scale(0.015625)"/>
       <path id="DejaVuSans-63" d="M 3122 3366 
L 3122 2828 
Q 2878 2963 2633 3030 
Q 2388 3097 2138 3097 
Q 1578 3097 1268 2742 
Q 959 2388 959 1747 
Q 959 1106 1268 751 
Q 1578 397 2138 397 
Q 2388 397 2633 464 
Q 2878 531 3122 666 
L 3122 134 
Q 2881 22 2623 -34 
Q 2366 -91 2075 -91 
Q 1284 -91 818 406 
Q 353 903 353 1747 
Q 353 2603 823 3093 
Q 1294 3584 2113 3584 
Q 2378 3584 2631 3529 
Q 2884 3475 3122 3366 
z
" transform="scale(0.015625)"/>
      </defs>
      <use xlink:href="#DejaVuSans-49"/>
      <use xlink:href="#DejaVuSans-6e" x="29.492188"/>
      <use xlink:href="#DejaVuSans-61" x="92.871094"/>
      <use xlink:href="#DejaVuSans-63" x="154.150391"/>
      <use xlink:href="#DejaVuSans-74" x="209.130859"/>
      <use xlink:href="#DejaVuSans-69" x="248.339844"/>
      <use xlink:href="#DejaVuSans-76" x="276.123047"/>
      <use xlink:href="#DejaVuSans-65" x="335.302734"/>
     </g>
    </g>
   </g>
  </g>
 </g>
 <defs>
  <clipPath id="p746eb1313c">
   <rect x="49.235" y="26.877187" width="1116" height="332.64"/>
  </clipPath>
 </defs>
</svg>
