<?xml version="1.0" encoding="utf-8" standalone="no"?>
<!DOCTYPE svg PUBLIC "-//W3C//DTD SVG 1.1//EN"
  "http://www.w3.org/Graphics/SVG/1.1/DTD/svg11.dtd">
<svg xmlns:xlink="http://www.w3.org/1999/xlink" width="1172.435pt" height="399.009062pt" viewBox="0 0 1172.435 399.009062" xmlns="http://www.w3.org/2000/svg" version="1.1">
 <metadata>
  <rdf:RDF xmlns:dc="http://purl.org/dc/elements/1.1/" xmlns:cc="http://creativecommons.org/ns#" xmlns:rdf="http://www.w3.org/1999/02/22-rdf-syntax-ns#">
   <cc:Work>
    <dc:type rdf:resource="http://purl.org/dc/dcmitype/StillImage"/>
    <dc:date>2025-04-09T09:56:13.676656</dc:date>
    <dc:format>image/svg+xml</dc:format>
    <dc:creator>
     <cc:Agent>
      <dc:title>Matplotlib v3.8.3, https://matplotlib.org/</dc:title>
     </cc:Agent>
    </dc:creator>
   </cc:Work>
  </rdf:RDF>
 </metadata>
 <defs>
  <style type="text/css">*{stroke-linejoin: round; stroke-linecap: butt}</style>
 </defs>
 <g id="figure_1">
  <g id="patch_1">
   <path d="M 0 399.009062 
L 1172.435 399.009062 
L 1172.435 0 
L 0 0 
z
" style="fill: #ffffff"/>
  </g>
  <g id="axes_1">
   <g id="patch_2">
    <path d="M 49.235 359.517187 
L 1165.235 359.517187 
L 1165.235 26.877187 
L 49.235 26.877187 
z
" style="fill: #ffffff"/>
   </g>
   <g id="patch_3">
    <path d="M 101.293395 359.517187 
L 101.293395 26.877187 
L 101.293395 26.877187 
z
" clip-path="url(#p0953b1c207)" style="fill: #add8e6; stroke: #add8e6; stroke-linejoin: miter"/>
   </g>
   <g id="patch_4">
    <path d="M 101.573558 359.517187 
L 101.573558 26.877187 
L 101.431851 26.877187 
L 101.431851 359.517187 
z
" clip-path="url(#p0953b1c207)" style="fill: #add8e6; stroke: #add8e6; stroke-linejoin: miter"/>
   </g>
   <g id="patch_5">
    <path d="M 112.143555 359.517187 
L 112.143555 26.877187 
L 107.433286 26.877187 
L 107.433286 359.517187 
z
" clip-path="url(#p0953b1c207)" style="fill: #add8e6; stroke: #add8e6; stroke-linejoin: miter"/>
   </g>
   <g id="patch_6">
    <path d="M 117.246889 359.517187 
L 117.246889 26.877187 
L 117.266403 26.877187 
L 117.266403 359.517187 
z
" clip-path="url(#p0953b1c207)" style="fill: #add8e6; stroke: #add8e6; stroke-linejoin: miter"/>
   </g>
   <g id="patch_7">
    <path d="M 118.36847 359.517187 
L 118.36847 26.877187 
L 118.467433 26.877187 
L 118.467433 359.517187 
z
" clip-path="url(#p0953b1c207)" style="fill: #add8e6; stroke: #add8e6; stroke-linejoin: miter"/>
   </g>
   <g id="patch_8">
    <path d="M 118.61007 359.517187 
L 118.61007 26.877187 
L 118.551993 26.877187 
L 118.551993 359.517187 
z
" clip-path="url(#p0953b1c207)" style="fill: #add8e6; stroke: #add8e6; stroke-linejoin: miter"/>
   </g>
   <g id="patch_9">
    <path d="M 129.345934 359.517187 
L 129.345934 26.877187 
L 126.715283 26.877187 
L 126.715283 359.517187 
z
" clip-path="url(#p0953b1c207)" style="fill: #add8e6; stroke: #add8e6; stroke-linejoin: miter"/>
   </g>
   <g id="patch_10">
    <path d="M 130.115337 359.517187 
L 130.115337 26.877187 
L 130.182242 26.877187 
L 130.182242 359.517187 
z
" clip-path="url(#p0953b1c207)" style="fill: #add8e6; stroke: #add8e6; stroke-linejoin: miter"/>
   </g>
   <g id="patch_11">
    <path d="M 130.573448 359.517187 
L 130.573448 26.877187 
L 130.582276 26.877187 
L 130.582276 359.517187 
z
" clip-path="url(#p0953b1c207)" style="fill: #add8e6; stroke: #add8e6; stroke-linejoin: miter"/>
   </g>
   <g id="patch_12">
    <path d="M 135.355733 359.517187 
L 135.355733 26.877187 
L 135.430536 26.877187 
L 135.430536 359.517187 
z
" clip-path="url(#p0953b1c207)" style="fill: #add8e6; stroke: #add8e6; stroke-linejoin: miter"/>
   </g>
   <g id="patch_13">
    <path d="M 140.960386 359.517187 
L 140.960386 26.877187 
L 141.072823 26.877187 
L 141.072823 359.517187 
z
" clip-path="url(#p0953b1c207)" style="fill: #add8e6; stroke: #add8e6; stroke-linejoin: miter"/>
   </g>
   <g id="patch_14">
    <path d="M 141.165746 359.517187 
L 141.165746 26.877187 
L 141.259598 26.877187 
L 141.259598 359.517187 
z
" clip-path="url(#p0953b1c207)" style="fill: #add8e6; stroke: #add8e6; stroke-linejoin: miter"/>
   </g>
   <g id="patch_15">
    <path d="M 141.448232 359.517187 
L 141.448232 26.877187 
L 141.318605 26.877187 
L 141.318605 359.517187 
z
" clip-path="url(#p0953b1c207)" style="fill: #add8e6; stroke: #add8e6; stroke-linejoin: miter"/>
   </g>
   <g id="patch_16">
    <path d="M 149.703051 359.517187 
L 149.703051 26.877187 
L 149.36667 26.877187 
L 149.36667 359.517187 
z
" clip-path="url(#p0953b1c207)" style="fill: #add8e6; stroke: #add8e6; stroke-linejoin: miter"/>
   </g>
   <g id="patch_17">
    <path d="M 156.334969 359.517187 
L 156.334969 26.877187 
L 156.284326 26.877187 
L 156.284326 359.517187 
z
" clip-path="url(#p0953b1c207)" style="fill: #add8e6; stroke: #add8e6; stroke-linejoin: miter"/>
   </g>
   <g id="patch_18">
    <path d="M 156.769849 359.517187 
L 156.769849 26.877187 
L 156.452981 26.877187 
L 156.452981 359.517187 
z
" clip-path="url(#p0953b1c207)" style="fill: #add8e6; stroke: #add8e6; stroke-linejoin: miter"/>
   </g>
   <g id="patch_19">
    <path d="M 164.27385 359.517187 
L 164.27385 26.877187 
L 164.399296 26.877187 
L 164.399296 359.517187 
z
" clip-path="url(#p0953b1c207)" style="fill: #add8e6; stroke: #add8e6; stroke-linejoin: miter"/>
   </g>
   <g id="patch_20">
    <path d="M 164.903403 359.517187 
L 164.903403 26.877187 
L 164.884819 26.877187 
L 164.884819 359.517187 
z
" clip-path="url(#p0953b1c207)" style="fill: #add8e6; stroke: #add8e6; stroke-linejoin: miter"/>
   </g>
   <g id="patch_21">
    <path d="M 180.347214 359.517187 
L 180.347214 26.877187 
L 180.328629 26.877187 
L 180.328629 359.517187 
z
" clip-path="url(#p0953b1c207)" style="fill: #add8e6; stroke: #add8e6; stroke-linejoin: miter"/>
   </g>
   <g id="patch_22">
    <path d="M 212.379647 359.517187 
L 212.379647 26.877187 
L 212.503235 26.877187 
L 212.503235 359.517187 
z
" clip-path="url(#p0953b1c207)" style="fill: #add8e6; stroke: #add8e6; stroke-linejoin: miter"/>
   </g>
   <g id="patch_23">
    <path d="M 212.585007 359.517187 
L 212.585007 26.877187 
L 212.670961 26.877187 
L 212.670961 359.517187 
z
" clip-path="url(#p0953b1c207)" style="fill: #add8e6; stroke: #add8e6; stroke-linejoin: miter"/>
   </g>
   <g id="patch_24">
    <path d="M 226.214495 359.517187 
L 226.214495 26.877187 
L 225.774969 26.877187 
L 225.774969 359.517187 
z
" clip-path="url(#p0953b1c207)" style="fill: #add8e6; stroke: #add8e6; stroke-linejoin: miter"/>
   </g>
   <g id="patch_25">
    <path d="M 236.625593 359.517187 
L 236.625593 26.877187 
L 236.525237 26.877187 
L 236.525237 359.517187 
z
" clip-path="url(#p0953b1c207)" style="fill: #add8e6; stroke: #add8e6; stroke-linejoin: miter"/>
   </g>
   <g id="patch_26">
    <path d="M 236.995427 359.517187 
L 236.995427 26.877187 
L 236.72688 26.877187 
L 236.72688 359.517187 
z
" clip-path="url(#p0953b1c207)" style="fill: #add8e6; stroke: #add8e6; stroke-linejoin: miter"/>
   </g>
   <g id="patch_27">
    <path d="M 251.503503 359.517187 
L 251.503503 26.877187 
L 251.57366 26.877187 
L 251.57366 359.517187 
z
" clip-path="url(#p0953b1c207)" style="fill: #add8e6; stroke: #add8e6; stroke-linejoin: miter"/>
   </g>
   <g id="patch_28">
    <path d="M 254.931899 359.517187 
L 254.931899 26.877187 
L 253.437696 26.877187 
L 253.437696 359.517187 
z
" clip-path="url(#p0953b1c207)" style="fill: #add8e6; stroke: #add8e6; stroke-linejoin: miter"/>
   </g>
   <g id="patch_29">
    <path d="M 264.902077 359.517187 
L 264.902077 26.877187 
L 265.008009 26.877187 
L 265.008009 359.517187 
z
" clip-path="url(#p0953b1c207)" style="fill: #add8e6; stroke: #add8e6; stroke-linejoin: miter"/>
   </g>
   <g id="patch_30">
    <path d="M 281.204497 359.517187 
L 281.204497 26.877187 
L 281.127835 26.877187 
L 281.127835 359.517187 
z
" clip-path="url(#p0953b1c207)" style="fill: #add8e6; stroke: #add8e6; stroke-linejoin: miter"/>
   </g>
   <g id="patch_31">
    <path d="M 285.888747 359.517187 
L 285.888747 26.877187 
L 285.926381 26.877187 
L 285.926381 359.517187 
z
" clip-path="url(#p0953b1c207)" style="fill: #add8e6; stroke: #add8e6; stroke-linejoin: miter"/>
   </g>
   <g id="patch_32">
    <path d="M 286.491353 359.517187 
L 286.491353 26.877187 
L 286.152649 26.877187 
L 286.152649 359.517187 
z
" clip-path="url(#p0953b1c207)" style="fill: #add8e6; stroke: #add8e6; stroke-linejoin: miter"/>
   </g>
   <g id="patch_33">
    <path d="M 291.601192 359.517187 
L 291.601192 26.877187 
L 291.565416 26.877187 
L 291.565416 359.517187 
z
" clip-path="url(#p0953b1c207)" style="fill: #add8e6; stroke: #add8e6; stroke-linejoin: miter"/>
   </g>
   <g id="patch_34">
    <path d="M 296.387193 359.517187 
L 296.387193 26.877187 
L 296.501953 26.877187 
L 296.501953 359.517187 
z
" clip-path="url(#p0953b1c207)" style="fill: #add8e6; stroke: #add8e6; stroke-linejoin: miter"/>
   </g>
   <g id="patch_35">
    <path d="M 309.477728 359.517187 
L 309.477728 26.877187 
L 309.378765 26.877187 
L 309.378765 359.517187 
z
" clip-path="url(#p0953b1c207)" style="fill: #add8e6; stroke: #add8e6; stroke-linejoin: miter"/>
   </g>
   <g id="patch_36">
    <path d="M 313.39304 359.517187 
L 313.39304 26.877187 
L 313.434856 26.877187 
L 313.434856 359.517187 
z
" clip-path="url(#p0953b1c207)" style="fill: #add8e6; stroke: #add8e6; stroke-linejoin: miter"/>
   </g>
   <g id="patch_37">
    <path d="M 313.643003 359.517187 
L 313.643003 26.877187 
L 313.768449 26.877187 
L 313.768449 359.517187 
z
" clip-path="url(#p0953b1c207)" style="fill: #add8e6; stroke: #add8e6; stroke-linejoin: miter"/>
   </g>
   <g id="patch_38">
    <path d="M 315.382987 359.517187 
L 315.382987 26.877187 
L 315.306326 26.877187 
L 315.306326 359.517187 
z
" clip-path="url(#p0953b1c207)" style="fill: #add8e6; stroke: #add8e6; stroke-linejoin: miter"/>
   </g>
   <g id="patch_39">
    <path d="M 322.925551 359.517187 
L 322.925551 26.877187 
L 322.968296 26.877187 
L 322.968296 359.517187 
z
" clip-path="url(#p0953b1c207)" style="fill: #add8e6; stroke: #add8e6; stroke-linejoin: miter"/>
   </g>
   <g id="patch_40">
    <path d="M 323.109074 359.517187 
L 323.109074 26.877187 
L 323.224763 26.877187 
L 323.224763 359.517187 
z
" clip-path="url(#p0953b1c207)" style="fill: #add8e6; stroke: #add8e6; stroke-linejoin: miter"/>
   </g>
   <g id="patch_41">
    <path d="M 333.079717 359.517187 
L 333.079717 26.877187 
L 328.681669 26.877187 
L 328.681669 359.517187 
z
" clip-path="url(#p0953b1c207)" style="fill: #add8e6; stroke: #add8e6; stroke-linejoin: miter"/>
   </g>
   <g id="patch_42">
    <path d="M 344.754104 359.517187 
L 344.754104 26.877187 
L 344.830766 26.877187 
L 344.830766 359.517187 
z
" clip-path="url(#p0953b1c207)" style="fill: #add8e6; stroke: #add8e6; stroke-linejoin: miter"/>
   </g>
   <g id="patch_43">
    <path d="M 345.077012 359.517187 
L 345.077012 26.877187 
L 345.162501 26.877187 
L 345.162501 359.517187 
z
" clip-path="url(#p0953b1c207)" style="fill: #add8e6; stroke: #add8e6; stroke-linejoin: miter"/>
   </g>
   <g id="patch_44">
    <path d="M 351.865041 359.517187 
L 351.865041 26.877187 
L 351.918007 26.877187 
L 351.918007 359.517187 
z
" clip-path="url(#p0953b1c207)" style="fill: #add8e6; stroke: #add8e6; stroke-linejoin: miter"/>
   </g>
   <g id="patch_45">
    <path d="M 352.010001 359.517187 
L 352.010001 26.877187 
L 352.063431 26.877187 
L 352.063431 359.517187 
z
" clip-path="url(#p0953b1c207)" style="fill: #add8e6; stroke: #add8e6; stroke-linejoin: miter"/>
   </g>
   <g id="patch_46">
    <path d="M 360.60817 359.517187 
L 360.60817 26.877187 
L 359.375546 26.877187 
L 359.375546 359.517187 
z
" clip-path="url(#p0953b1c207)" style="fill: #add8e6; stroke: #add8e6; stroke-linejoin: miter"/>
   </g>
   <g id="patch_47">
    <path d="M 377.692537 359.517187 
L 377.692537 26.877187 
L 377.747827 26.877187 
L 377.747827 359.517187 
z
" clip-path="url(#p0953b1c207)" style="fill: #add8e6; stroke: #add8e6; stroke-linejoin: miter"/>
   </g>
   <g id="patch_48">
    <path d="M 377.934602 359.517187 
L 377.934602 26.877187 
L 378.031706 26.877187 
L 378.031706 359.517187 
z
" clip-path="url(#p0953b1c207)" style="fill: #add8e6; stroke: #add8e6; stroke-linejoin: miter"/>
   </g>
   <g id="patch_49">
    <path d="M 390.729641 359.517187 
L 390.729641 26.877187 
L 390.745438 26.877187 
L 390.745438 359.517187 
z
" clip-path="url(#p0953b1c207)" style="fill: #add8e6; stroke: #add8e6; stroke-linejoin: miter"/>
   </g>
   <g id="patch_50">
    <path d="M 391.127352 359.517187 
L 391.127352 26.877187 
L 391.203084 26.877187 
L 391.203084 359.517187 
z
" clip-path="url(#p0953b1c207)" style="fill: #add8e6; stroke: #add8e6; stroke-linejoin: miter"/>
   </g>
   <g id="patch_51">
    <path d="M 391.302047 359.517187 
L 391.302047 26.877187 
L 391.327136 26.877187 
L 391.327136 359.517187 
z
" clip-path="url(#p0953b1c207)" style="fill: #add8e6; stroke: #add8e6; stroke-linejoin: miter"/>
   </g>
   <g id="patch_52">
    <path d="M 409.415072 359.517187 
L 409.415072 26.877187 
L 407.58867 26.877187 
L 407.58867 359.517187 
z
" clip-path="url(#p0953b1c207)" style="fill: #add8e6; stroke: #add8e6; stroke-linejoin: miter"/>
   </g>
   <g id="patch_53">
    <path d="M 469.484712 359.517187 
L 469.484712 26.877187 
L 469.537678 26.877187 
L 469.537678 359.517187 
z
" clip-path="url(#p0953b1c207)" style="fill: #add8e6; stroke: #add8e6; stroke-linejoin: miter"/>
   </g>
   <g id="patch_54">
    <path d="M 477.189891 359.517187 
L 477.189891 26.877187 
L 477.29954 26.877187 
L 477.29954 359.517187 
z
" clip-path="url(#p0953b1c207)" style="fill: #add8e6; stroke: #add8e6; stroke-linejoin: miter"/>
   </g>
   <g id="patch_55">
    <path d="M 477.373414 359.517187 
L 477.373414 26.877187 
L 477.362263 26.877187 
L 477.362263 359.517187 
z
" clip-path="url(#p0953b1c207)" style="fill: #add8e6; stroke: #add8e6; stroke-linejoin: miter"/>
   </g>
   <g id="patch_56">
    <path d="M 487.528509 359.517187 
L 487.528509 26.877187 
L 487.644199 26.877187 
L 487.644199 359.517187 
z
" clip-path="url(#p0953b1c207)" style="fill: #add8e6; stroke: #add8e6; stroke-linejoin: miter"/>
   </g>
   <g id="patch_57">
    <path d="M 492.583059 359.517187 
L 492.583059 26.877187 
L 492.550536 26.877187 
L 492.550536 359.517187 
z
" clip-path="url(#p0953b1c207)" style="fill: #add8e6; stroke: #add8e6; stroke-linejoin: miter"/>
   </g>
   <g id="patch_58">
    <path d="M 504.223993 359.517187 
L 504.223993 26.877187 
L 504.244901 26.877187 
L 504.244901 359.517187 
z
" clip-path="url(#p0953b1c207)" style="fill: #add8e6; stroke: #add8e6; stroke-linejoin: miter"/>
   </g>
   <g id="patch_59">
    <path d="M 504.390326 359.517187 
L 504.390326 26.877187 
L 504.41588 26.877187 
L 504.41588 359.517187 
z
" clip-path="url(#p0953b1c207)" style="fill: #add8e6; stroke: #add8e6; stroke-linejoin: miter"/>
   </g>
   <g id="patch_60">
    <path d="M 504.581747 359.517187 
L 504.581747 26.877187 
L 504.634713 26.877187 
L 504.634713 359.517187 
z
" clip-path="url(#p0953b1c207)" style="fill: #add8e6; stroke: #add8e6; stroke-linejoin: miter"/>
   </g>
   <g id="patch_61">
    <path d="M 515.428655 359.517187 
L 515.428655 26.877187 
L 515.479298 26.877187 
L 515.479298 359.517187 
z
" clip-path="url(#p0953b1c207)" style="fill: #add8e6; stroke: #add8e6; stroke-linejoin: miter"/>
   </g>
   <g id="patch_62">
    <path d="M 515.629368 359.517187 
L 515.629368 26.877187 
L 515.691162 26.877187 
L 515.691162 359.517187 
z
" clip-path="url(#p0953b1c207)" style="fill: #add8e6; stroke: #add8e6; stroke-linejoin: miter"/>
   </g>
   <g id="patch_63">
    <path d="M 518.342257 359.517187 
L 518.342257 26.877187 
L 518.3325 26.877187 
L 518.3325 359.517187 
z
" clip-path="url(#p0953b1c207)" style="fill: #add8e6; stroke: #add8e6; stroke-linejoin: miter"/>
   </g>
   <g id="patch_64">
    <path d="M 527.720515 359.517187 
L 527.720515 26.877187 
L 526.269522 26.877187 
L 526.269522 359.517187 
z
" clip-path="url(#p0953b1c207)" style="fill: #add8e6; stroke: #add8e6; stroke-linejoin: miter"/>
   </g>
   <g id="patch_65">
    <path d="M 539.355875 359.517187 
L 539.355875 26.877187 
L 538.348589 26.877187 
L 538.348589 359.517187 
z
" clip-path="url(#p0953b1c207)" style="fill: #add8e6; stroke: #add8e6; stroke-linejoin: miter"/>
   </g>
   <g id="patch_66">
    <path d="M 569.865299 359.517187 
L 569.865299 26.877187 
L 569.572127 26.877187 
L 569.572127 359.517187 
z
" clip-path="url(#p0953b1c207)" style="fill: #add8e6; stroke: #add8e6; stroke-linejoin: miter"/>
   </g>
   <g id="patch_67">
    <path d="M 573.506954 359.517187 
L 573.506954 26.877187 
L 573.607775 26.877187 
L 573.607775 359.517187 
z
" clip-path="url(#p0953b1c207)" style="fill: #add8e6; stroke: #add8e6; stroke-linejoin: miter"/>
   </g>
   <g id="patch_68">
    <path d="M 576.28907 359.517187 
L 576.28907 26.877187 
L 574.566741 26.877187 
L 574.566741 359.517187 
z
" clip-path="url(#p0953b1c207)" style="fill: #add8e6; stroke: #add8e6; stroke-linejoin: miter"/>
   </g>
   <g id="patch_69">
    <path d="M 613.479197 359.517187 
L 613.479197 26.877187 
L 613.432735 26.877187 
L 613.432735 359.517187 
z
" clip-path="url(#p0953b1c207)" style="fill: #add8e6; stroke: #add8e6; stroke-linejoin: miter"/>
   </g>
   <g id="patch_70">
    <path d="M 637.950946 359.517187 
L 637.950946 26.877187 
L 637.944906 26.877187 
L 637.944906 359.517187 
z
" clip-path="url(#p0953b1c207)" style="fill: #add8e6; stroke: #add8e6; stroke-linejoin: miter"/>
   </g>
   <g id="patch_71">
    <path d="M 640.956077 359.517187 
L 640.956077 26.877187 
L 638.141438 26.877187 
L 638.141438 359.517187 
z
" clip-path="url(#p0953b1c207)" style="fill: #add8e6; stroke: #add8e6; stroke-linejoin: miter"/>
   </g>
   <g id="patch_72">
    <path d="M 667.037718 359.517187 
L 667.037718 26.877187 
L 667.031214 26.877187 
L 667.031214 359.517187 
z
" clip-path="url(#p0953b1c207)" style="fill: #add8e6; stroke: #add8e6; stroke-linejoin: miter"/>
   </g>
   <g id="patch_73">
    <path d="M 667.571097 359.517187 
L 667.571097 26.877187 
L 667.643577 26.877187 
L 667.643577 359.517187 
z
" clip-path="url(#p0953b1c207)" style="fill: #add8e6; stroke: #add8e6; stroke-linejoin: miter"/>
   </g>
   <g id="patch_74">
    <path d="M 667.826635 359.517187 
L 667.826635 26.877187 
L 667.926992 26.877187 
L 667.926992 359.517187 
z
" clip-path="url(#p0953b1c207)" style="fill: #add8e6; stroke: #add8e6; stroke-linejoin: miter"/>
   </g>
   <g id="patch_75">
    <path d="M 683.298787 359.517187 
L 683.298787 26.877187 
L 683.237458 26.877187 
L 683.237458 359.517187 
z
" clip-path="url(#p0953b1c207)" style="fill: #add8e6; stroke: #add8e6; stroke-linejoin: miter"/>
   </g>
   <g id="patch_76">
    <path d="M 691.436988 359.517187 
L 691.436988 26.877187 
L 690.37209 26.877187 
L 690.37209 359.517187 
z
" clip-path="url(#p0953b1c207)" style="fill: #add8e6; stroke: #add8e6; stroke-linejoin: miter"/>
   </g>
   <g id="patch_77">
    <path d="M 694.091335 359.517187 
L 694.091335 26.877187 
L 694.194944 26.877187 
L 694.194944 359.517187 
z
" clip-path="url(#p0953b1c207)" style="fill: #add8e6; stroke: #add8e6; stroke-linejoin: miter"/>
   </g>
   <g id="patch_78">
    <path d="M 696.925488 359.517187 
L 696.925488 26.877187 
L 694.881181 26.877187 
L 694.881181 359.517187 
z
" clip-path="url(#p0953b1c207)" style="fill: #add8e6; stroke: #add8e6; stroke-linejoin: miter"/>
   </g>
   <g id="patch_79">
    <path d="M 702.801477 359.517187 
L 702.801477 26.877187 
L 702.565452 26.877187 
L 702.565452 359.517187 
z
" clip-path="url(#p0953b1c207)" style="fill: #add8e6; stroke: #add8e6; stroke-linejoin: miter"/>
   </g>
   <g id="patch_80">
    <path d="M 713.069009 359.517187 
L 713.069009 26.877187 
L 713.180052 26.877187 
L 713.180052 359.517187 
z
" clip-path="url(#p0953b1c207)" style="fill: #add8e6; stroke: #add8e6; stroke-linejoin: miter"/>
   </g>
   <g id="patch_81">
    <path d="M 718.071521 359.517187 
L 718.071521 26.877187 
L 718.147253 26.877187 
L 718.147253 359.517187 
z
" clip-path="url(#p0953b1c207)" style="fill: #add8e6; stroke: #add8e6; stroke-linejoin: miter"/>
   </g>
   <g id="patch_82">
    <path d="M 718.405115 359.517187 
L 718.405115 26.877187 
L 718.431133 26.877187 
L 718.431133 359.517187 
z
" clip-path="url(#p0953b1c207)" style="fill: #add8e6; stroke: #add8e6; stroke-linejoin: miter"/>
   </g>
   <g id="patch_83">
    <path d="M 726.738918 359.517187 
L 726.738918 26.877187 
L 726.837417 26.877187 
L 726.837417 359.517187 
z
" clip-path="url(#p0953b1c207)" style="fill: #add8e6; stroke: #add8e6; stroke-linejoin: miter"/>
   </g>
   <g id="patch_84">
    <path d="M 726.944743 359.517187 
L 726.944743 26.877187 
L 727.007466 26.877187 
L 727.007466 359.517187 
z
" clip-path="url(#p0953b1c207)" style="fill: #add8e6; stroke: #add8e6; stroke-linejoin: miter"/>
   </g>
   <g id="patch_85">
    <path d="M 740.117979 359.517187 
L 740.117979 26.877187 
L 740.250859 26.877187 
L 740.250859 359.517187 
z
" clip-path="url(#p0953b1c207)" style="fill: #add8e6; stroke: #add8e6; stroke-linejoin: miter"/>
   </g>
   <g id="patch_86">
    <path d="M 742.212464 359.517187 
L 742.212464 26.877187 
L 740.460865 26.877187 
L 740.460865 359.517187 
z
" clip-path="url(#p0953b1c207)" style="fill: #add8e6; stroke: #add8e6; stroke-linejoin: miter"/>
   </g>
   <g id="patch_87">
    <path d="M 743.946408 359.517187 
L 743.946408 26.877187 
L 743.887402 26.877187 
L 743.887402 359.517187 
z
" clip-path="url(#p0953b1c207)" style="fill: #add8e6; stroke: #add8e6; stroke-linejoin: miter"/>
   </g>
   <g id="patch_88">
    <path d="M 756.263823 359.517187 
L 756.263823 26.877187 
L 756.37626 26.877187 
L 756.37626 359.517187 
z
" clip-path="url(#p0953b1c207)" style="fill: #add8e6; stroke: #add8e6; stroke-linejoin: miter"/>
   </g>
   <g id="patch_89">
    <path d="M 756.600204 359.517187 
L 756.600204 26.877187 
L 756.613214 26.877187 
L 756.613214 359.517187 
z
" clip-path="url(#p0953b1c207)" style="fill: #add8e6; stroke: #add8e6; stroke-linejoin: miter"/>
   </g>
   <g id="patch_90">
    <path d="M 756.793949 359.517187 
L 756.793949 26.877187 
L 756.781869 26.877187 
L 756.781869 359.517187 
z
" clip-path="url(#p0953b1c207)" style="fill: #add8e6; stroke: #add8e6; stroke-linejoin: miter"/>
   </g>
   <g id="patch_91">
    <path d="M 767.76305 359.517187 
L 767.76305 26.877187 
L 767.077278 26.877187 
L 767.077278 359.517187 
z
" clip-path="url(#p0953b1c207)" style="fill: #add8e6; stroke: #add8e6; stroke-linejoin: miter"/>
   </g>
   <g id="patch_92">
    <path d="M 773.54751 359.517187 
L 773.54751 26.877187 
L 773.595365 26.877187 
L 773.595365 359.517187 
z
" clip-path="url(#p0953b1c207)" style="fill: #add8e6; stroke: #add8e6; stroke-linejoin: miter"/>
   </g>
   <g id="patch_93">
    <path d="M 796.746678 359.517187 
L 796.746678 26.877187 
L 796.767586 26.877187 
L 796.767586 359.517187 
z
" clip-path="url(#p0953b1c207)" style="fill: #add8e6; stroke: #add8e6; stroke-linejoin: miter"/>
   </g>
   <g id="patch_94">
    <path d="M 796.898143 359.517187 
L 796.898143 26.877187 
L 797.013367 26.877187 
L 797.013367 359.517187 
z
" clip-path="url(#p0953b1c207)" style="fill: #add8e6; stroke: #add8e6; stroke-linejoin: miter"/>
   </g>
   <g id="patch_95">
    <path d="M 800.298197 359.517187 
L 800.298197 26.877187 
L 797.299106 26.877187 
L 797.299106 359.517187 
z
" clip-path="url(#p0953b1c207)" style="fill: #add8e6; stroke: #add8e6; stroke-linejoin: miter"/>
   </g>
   <g id="patch_96">
    <path d="M 838.71909 359.517187 
L 838.71909 26.877187 
L 838.819911 26.877187 
L 838.819911 359.517187 
z
" clip-path="url(#p0953b1c207)" style="fill: #add8e6; stroke: #add8e6; stroke-linejoin: miter"/>
   </g>
   <g id="patch_97">
    <path d="M 838.995071 359.517187 
L 838.995071 26.877187 
L 839.059653 26.877187 
L 839.059653 359.517187 
z
" clip-path="url(#p0953b1c207)" style="fill: #add8e6; stroke: #add8e6; stroke-linejoin: miter"/>
   </g>
   <g id="patch_98">
    <path d="M 859.203046 359.517187 
L 859.203046 26.877187 
L 859.261588 26.877187 
L 859.261588 359.517187 
z
" clip-path="url(#p0953b1c207)" style="fill: #add8e6; stroke: #add8e6; stroke-linejoin: miter"/>
   </g>
   <g id="patch_99">
    <path d="M 859.928311 359.517187 
L 859.928311 26.877187 
L 860.003114 26.877187 
L 860.003114 359.517187 
z
" clip-path="url(#p0953b1c207)" style="fill: #add8e6; stroke: #add8e6; stroke-linejoin: miter"/>
   </g>
   <g id="patch_100">
    <path d="M 872.368849 359.517187 
L 872.368849 26.877187 
L 872.492436 26.877187 
L 872.492436 359.517187 
z
" clip-path="url(#p0953b1c207)" style="fill: #add8e6; stroke: #add8e6; stroke-linejoin: miter"/>
   </g>
   <g id="patch_101">
    <path d="M 872.610913 359.517187 
L 872.610913 26.877187 
L 872.692685 26.877187 
L 872.692685 359.517187 
z
" clip-path="url(#p0953b1c207)" style="fill: #add8e6; stroke: #add8e6; stroke-linejoin: miter"/>
   </g>
   <g id="patch_102">
    <path d="M 872.794436 359.517187 
L 872.794436 26.877187 
L 872.89851 26.877187 
L 872.89851 359.517187 
z
" clip-path="url(#p0953b1c207)" style="fill: #add8e6; stroke: #add8e6; stroke-linejoin: miter"/>
   </g>
   <g id="patch_103">
    <path d="M 881.09804 359.517187 
L 881.09804 26.877187 
L 880.257086 26.877187 
L 880.257086 359.517187 
z
" clip-path="url(#p0953b1c207)" style="fill: #add8e6; stroke: #add8e6; stroke-linejoin: miter"/>
   </g>
   <g id="patch_104">
    <path d="M 885.574608 359.517187 
L 885.574608 26.877187 
L 881.11012 26.877187 
L 881.11012 359.517187 
z
" clip-path="url(#p0953b1c207)" style="fill: #add8e6; stroke: #add8e6; stroke-linejoin: miter"/>
   </g>
   <g id="patch_105">
    <path d="M 887.196579 359.517187 
L 887.196579 26.877187 
L 887.286715 26.877187 
L 887.286715 359.517187 
z
" clip-path="url(#p0953b1c207)" style="fill: #add8e6; stroke: #add8e6; stroke-linejoin: miter"/>
   </g>
   <g id="patch_106">
    <path d="M 893.22171 359.517187 
L 893.22171 26.877187 
L 893.264919 26.877187 
L 893.264919 359.517187 
z
" clip-path="url(#p0953b1c207)" style="fill: #add8e6; stroke: #add8e6; stroke-linejoin: miter"/>
   </g>
   <g id="patch_107">
    <path d="M 896.110223 359.517187 
L 896.110223 26.877187 
L 896.232881 26.877187 
L 896.232881 359.517187 
z
" clip-path="url(#p0953b1c207)" style="fill: #add8e6; stroke: #add8e6; stroke-linejoin: miter"/>
   </g>
   <g id="patch_108">
    <path d="M 896.325804 359.517187 
L 896.325804 26.877187 
L 896.360186 26.877187 
L 896.360186 359.517187 
z
" clip-path="url(#p0953b1c207)" style="fill: #add8e6; stroke: #add8e6; stroke-linejoin: miter"/>
   </g>
   <g id="patch_109">
    <path d="M 905.338875 359.517187 
L 905.338875 26.877187 
L 905.383943 26.877187 
L 905.383943 359.517187 
z
" clip-path="url(#p0953b1c207)" style="fill: #add8e6; stroke: #add8e6; stroke-linejoin: miter"/>
   </g>
   <g id="patch_110">
    <path d="M 905.480583 359.517187 
L 905.480583 26.877187 
L 905.488017 26.877187 
L 905.488017 359.517187 
z
" clip-path="url(#p0953b1c207)" style="fill: #add8e6; stroke: #add8e6; stroke-linejoin: miter"/>
   </g>
   <g id="patch_111">
    <path d="M 905.750989 359.517187 
L 905.750989 26.877187 
L 905.886657 26.877187 
L 905.886657 359.517187 
z
" clip-path="url(#p0953b1c207)" style="fill: #add8e6; stroke: #add8e6; stroke-linejoin: miter"/>
   </g>
   <g id="patch_112">
    <path d="M 908.064308 359.517187 
L 908.064308 26.877187 
L 908.184644 26.877187 
L 908.184644 359.517187 
z
" clip-path="url(#p0953b1c207)" style="fill: #add8e6; stroke: #add8e6; stroke-linejoin: miter"/>
   </g>
   <g id="patch_113">
    <path d="M 908.204622 359.517187 
L 908.204622 26.877187 
L 908.329139 26.877187 
L 908.329139 359.517187 
z
" clip-path="url(#p0953b1c207)" style="fill: #add8e6; stroke: #add8e6; stroke-linejoin: miter"/>
   </g>
   <g id="patch_114">
    <path d="M 908.3756 359.517187 
L 908.3756 26.877187 
L 908.413699 26.877187 
L 908.413699 359.517187 
z
" clip-path="url(#p0953b1c207)" style="fill: #add8e6; stroke: #add8e6; stroke-linejoin: miter"/>
   </g>
   <g id="patch_115">
    <path d="M 908.529388 359.517187 
L 908.529388 26.877187 
L 908.646007 26.877187 
L 908.646007 359.517187 
z
" clip-path="url(#p0953b1c207)" style="fill: #add8e6; stroke: #add8e6; stroke-linejoin: miter"/>
   </g>
   <g id="patch_116">
    <path d="M 914.509915 359.517187 
L 914.509915 26.877187 
L 914.533611 26.877187 
L 914.533611 359.517187 
z
" clip-path="url(#p0953b1c207)" style="fill: #add8e6; stroke: #add8e6; stroke-linejoin: miter"/>
   </g>
   <g id="patch_117">
    <path d="M 918.802496 359.517187 
L 918.802496 26.877187 
L 918.931194 26.877187 
L 918.931194 359.517187 
z
" clip-path="url(#p0953b1c207)" style="fill: #add8e6; stroke: #add8e6; stroke-linejoin: miter"/>
   </g>
   <g id="patch_118">
    <path d="M 918.986948 359.517187 
L 918.986948 26.877187 
L 919.040379 26.877187 
L 919.040379 359.517187 
z
" clip-path="url(#p0953b1c207)" style="fill: #add8e6; stroke: #add8e6; stroke-linejoin: miter"/>
   </g>
   <g id="patch_119">
    <path d="M 925.84281 359.517187 
L 925.84281 26.877187 
L 925.97662 26.877187 
L 925.97662 359.517187 
z
" clip-path="url(#p0953b1c207)" style="fill: #add8e6; stroke: #add8e6; stroke-linejoin: miter"/>
   </g>
   <g id="patch_120">
    <path d="M 926.014253 359.517187 
L 926.014253 26.877187 
L 926.070007 26.877187 
L 926.070007 359.517187 
z
" clip-path="url(#p0953b1c207)" style="fill: #add8e6; stroke: #add8e6; stroke-linejoin: miter"/>
   </g>
   <g id="patch_121">
    <path d="M 926.159678 359.517187 
L 926.159678 26.877187 
L 926.267469 26.877187 
L 926.267469 359.517187 
z
" clip-path="url(#p0953b1c207)" style="fill: #add8e6; stroke: #add8e6; stroke-linejoin: miter"/>
   </g>
   <g id="patch_122">
    <path d="M 934.945088 359.517187 
L 934.945088 26.877187 
L 935.001771 26.877187 
L 935.001771 359.517187 
z
" clip-path="url(#p0953b1c207)" style="fill: #add8e6; stroke: #add8e6; stroke-linejoin: miter"/>
   </g>
   <g id="patch_123">
    <path d="M 935.103521 359.517187 
L 935.103521 26.877187 
L 935.163921 26.877187 
L 935.163921 359.517187 
z
" clip-path="url(#p0953b1c207)" style="fill: #add8e6; stroke: #add8e6; stroke-linejoin: miter"/>
   </g>
   <g id="patch_124">
    <path d="M 944.824201 359.517187 
L 944.824201 26.877187 
L 944.959869 26.877187 
L 944.959869 359.517187 
z
" clip-path="url(#p0953b1c207)" style="fill: #add8e6; stroke: #add8e6; stroke-linejoin: miter"/>
   </g>
   <g id="patch_125">
    <path d="M 945.00122 359.517187 
L 945.00122 26.877187 
L 945.088103 26.877187 
L 945.088103 359.517187 
z
" clip-path="url(#p0953b1c207)" style="fill: #add8e6; stroke: #add8e6; stroke-linejoin: miter"/>
   </g>
   <g id="patch_126">
    <path d="M 945.174057 359.517187 
L 945.174057 26.877187 
L 945.247931 26.877187 
L 945.247931 359.517187 
z
" clip-path="url(#p0953b1c207)" style="fill: #add8e6; stroke: #add8e6; stroke-linejoin: miter"/>
   </g>
   <g id="patch_127">
    <path d="M 945.339924 359.517187 
L 945.339924 26.877187 
L 945.468623 26.877187 
L 945.468623 359.517187 
z
" clip-path="url(#p0953b1c207)" style="fill: #add8e6; stroke: #add8e6; stroke-linejoin: miter"/>
   </g>
   <g id="patch_128">
    <path d="M 949.741689 359.517187 
L 949.741689 26.877187 
L 947.76661 26.877187 
L 947.76661 359.517187 
z
" clip-path="url(#p0953b1c207)" style="fill: #add8e6; stroke: #add8e6; stroke-linejoin: miter"/>
   </g>
   <g id="patch_129">
    <path d="M 954.777189 359.517187 
L 954.777189 26.877187 
L 954.887768 26.877187 
L 954.887768 359.517187 
z
" clip-path="url(#p0953b1c207)" style="fill: #add8e6; stroke: #add8e6; stroke-linejoin: miter"/>
   </g>
   <g id="patch_130">
    <path d="M 962.93862 359.517187 
L 962.93862 26.877187 
L 963.035725 26.877187 
L 963.035725 359.517187 
z
" clip-path="url(#p0953b1c207)" style="fill: #add8e6; stroke: #add8e6; stroke-linejoin: miter"/>
   </g>
   <g id="patch_131">
    <path d="M 963.281971 359.517187 
L 963.281971 26.877187 
L 963.395802 26.877187 
L 963.395802 359.517187 
z
" clip-path="url(#p0953b1c207)" style="fill: #add8e6; stroke: #add8e6; stroke-linejoin: miter"/>
   </g>
   <g id="patch_132">
    <path d="M 973.702826 359.517187 
L 973.702826 26.877187 
L 973.834777 26.877187 
L 973.834777 359.517187 
z
" clip-path="url(#p0953b1c207)" style="fill: #add8e6; stroke: #add8e6; stroke-linejoin: miter"/>
   </g>
   <g id="patch_133">
    <path d="M 974.009472 359.517187 
L 974.009472 26.877187 
L 974.127949 26.877187 
L 974.127949 359.517187 
z
" clip-path="url(#p0953b1c207)" style="fill: #add8e6; stroke: #add8e6; stroke-linejoin: miter"/>
   </g>
   <g id="patch_134">
    <path d="M 1008.351508 359.517187 
L 1008.351508 26.877187 
L 1008.340822 26.877187 
L 1008.340822 359.517187 
z
" clip-path="url(#p0953b1c207)" style="fill: #add8e6; stroke: #add8e6; stroke-linejoin: miter"/>
   </g>
   <g id="patch_135">
    <path d="M 1008.613086 359.517187 
L 1008.613086 26.877187 
L 1008.712514 26.877187 
L 1008.712514 359.517187 
z
" clip-path="url(#p0953b1c207)" style="fill: #add8e6; stroke: #add8e6; stroke-linejoin: miter"/>
   </g>
   <g id="patch_136">
    <path d="M 1025.55017 359.517187 
L 1025.55017 26.877187 
L 1025.517647 26.877187 
L 1025.517647 359.517187 
z
" clip-path="url(#p0953b1c207)" style="fill: #add8e6; stroke: #add8e6; stroke-linejoin: miter"/>
   </g>
   <g id="patch_137">
    <path d="M 1054.846949 359.517187 
L 1054.846949 26.877187 
L 1054.969607 26.877187 
L 1054.969607 359.517187 
z
" clip-path="url(#p0953b1c207)" style="fill: #add8e6; stroke: #add8e6; stroke-linejoin: miter"/>
   </g>
   <g id="patch_138">
    <path d="M 1055.202844 359.517187 
L 1055.202844 26.877187 
L 1055.285546 26.877187 
L 1055.285546 359.517187 
z
" clip-path="url(#p0953b1c207)" style="fill: #add8e6; stroke: #add8e6; stroke-linejoin: miter"/>
   </g>
   <g id="patch_139">
    <path d="M 1055.370106 359.517187 
L 1055.370106 26.877187 
L 1055.504379 26.877187 
L 1055.504379 359.517187 
z
" clip-path="url(#p0953b1c207)" style="fill: #add8e6; stroke: #add8e6; stroke-linejoin: miter"/>
   </g>
   <g id="patch_140">
    <path d="M 1070.739578 359.517187 
L 1070.739578 26.877187 
L 1070.859449 26.877187 
L 1070.859449 359.517187 
z
" clip-path="url(#p0953b1c207)" style="fill: #add8e6; stroke: #add8e6; stroke-linejoin: miter"/>
   </g>
   <g id="patch_141">
    <path d="M 1070.911485 359.517187 
L 1070.911485 26.877187 
L 1070.982572 26.877187 
L 1070.982572 359.517187 
z
" clip-path="url(#p0953b1c207)" style="fill: #add8e6; stroke: #add8e6; stroke-linejoin: miter"/>
   </g>
   <g id="patch_142">
    <path d="M 1084.018746 359.517187 
L 1084.018746 26.877187 
L 1084.102377 26.877187 
L 1084.102377 359.517187 
z
" clip-path="url(#p0953b1c207)" style="fill: #add8e6; stroke: #add8e6; stroke-linejoin: miter"/>
   </g>
   <g id="patch_143">
    <path d="M 1084.160454 359.517187 
L 1084.160454 26.877187 
L 1084.245014 26.877187 
L 1084.245014 359.517187 
z
" clip-path="url(#p0953b1c207)" style="fill: #add8e6; stroke: #add8e6; stroke-linejoin: miter"/>
   </g>
   <g id="patch_144">
    <path d="M 1084.486614 359.517187 
L 1084.486614 26.877187 
L 1084.516813 26.877187 
L 1084.516813 359.517187 
z
" clip-path="url(#p0953b1c207)" style="fill: #add8e6; stroke: #add8e6; stroke-linejoin: miter"/>
   </g>
   <g id="patch_145">
    <path d="M 1084.651552 359.517187 
L 1084.651552 26.877187 
L 1084.674783 26.877187 
L 1084.674783 359.517187 
z
" clip-path="url(#p0953b1c207)" style="fill: #add8e6; stroke: #add8e6; stroke-linejoin: miter"/>
   </g>
   <g id="patch_146">
    <path d="M 1089.890553 359.517187 
L 1089.890553 26.877187 
L 1089.904027 26.877187 
L 1089.904027 359.517187 
z
" clip-path="url(#p0953b1c207)" style="fill: #add8e6; stroke: #add8e6; stroke-linejoin: miter"/>
   </g>
   <g id="patch_147">
    <path d="M 1090.05735 359.517187 
L 1090.05735 26.877187 
L 1090.159101 26.877187 
L 1090.159101 359.517187 
z
" clip-path="url(#p0953b1c207)" style="fill: #add8e6; stroke: #add8e6; stroke-linejoin: miter"/>
   </g>
   <g id="patch_148">
    <path d="M 1091.588257 359.517187 
L 1091.588257 26.877187 
L 1091.507879 26.877187 
L 1091.507879 359.517187 
z
" clip-path="url(#p0953b1c207)" style="fill: #add8e6; stroke: #add8e6; stroke-linejoin: miter"/>
   </g>
   <g id="patch_149">
    <path d="M 1092.595079 359.517187 
L 1092.595079 26.877187 
L 1092.556051 26.877187 
L 1092.556051 359.517187 
z
" clip-path="url(#p0953b1c207)" style="fill: #add8e6; stroke: #add8e6; stroke-linejoin: miter"/>
   </g>
   <g id="patch_150">
    <path d="M 1109.673406 359.517187 
L 1109.673406 26.877187 
L 1109.810003 26.877187 
L 1109.810003 359.517187 
z
" clip-path="url(#p0953b1c207)" style="fill: #add8e6; stroke: #add8e6; stroke-linejoin: miter"/>
   </g>
   <g id="patch_151">
    <path d="M 1109.870867 359.517187 
L 1109.870867 26.877187 
L 1109.960073 26.877187 
L 1109.960073 359.517187 
z
" clip-path="url(#p0953b1c207)" style="fill: #add8e6; stroke: #add8e6; stroke-linejoin: miter"/>
   </g>
   <g id="patch_152">
    <path d="M 178.017633 359.517187 
L 178.017633 26.877187 
L 278.374525 26.877187 
L 278.374525 359.517187 
z
" clip-path="url(#p0953b1c207)" style="fill: #808080; opacity: 0.4; stroke: #808080; stroke-linejoin: miter"/>
   </g>
   <g id="patch_153">
    <path d="M 281.162217 26.877187 
L 281.162217 26.877187 
L 281.162217 359.517187 
" clip-path="url(#p0953b1c207)" style="fill: #808080; opacity: 0.4; stroke: #808080; stroke-linejoin: miter"/>
   </g>
   <g id="patch_154">
    <path d="M 283.949908 26.877187 
L 283.949908 26.877187 
L 283.949908 359.517187 
" clip-path="url(#p0953b1c207)" style="fill: #808080; opacity: 0.4; stroke: #808080; stroke-linejoin: miter"/>
   </g>
   <g id="patch_155">
    <path d="M 378.731417 359.517187 
L 378.731417 26.877187 
L 479.088309 26.877187 
L 479.088309 359.517187 
z
" clip-path="url(#p0953b1c207)" style="fill: #808080; opacity: 0.4; stroke: #808080; stroke-linejoin: miter"/>
   </g>
   <g id="patch_156">
    <path d="M 481.876 26.877187 
L 481.876 26.877187 
L 481.876 359.517187 
" clip-path="url(#p0953b1c207)" style="fill: #808080; opacity: 0.4; stroke: #808080; stroke-linejoin: miter"/>
   </g>
   <g id="patch_157">
    <path d="M 484.663692 26.877187 
L 484.663692 26.877187 
L 484.663692 359.517187 
" clip-path="url(#p0953b1c207)" style="fill: #808080; opacity: 0.4; stroke: #808080; stroke-linejoin: miter"/>
   </g>
   <g id="patch_158">
    <path d="M 579.445201 359.517187 
L 579.445201 26.877187 
L 679.802093 26.877187 
L 679.802093 359.517187 
z
" clip-path="url(#p0953b1c207)" style="fill: #808080; opacity: 0.4; stroke: #808080; stroke-linejoin: miter"/>
   </g>
   <g id="patch_159">
    <path d="M 682.589784 26.877187 
L 682.589784 26.877187 
L 682.589784 359.517187 
" clip-path="url(#p0953b1c207)" style="fill: #808080; opacity: 0.4; stroke: #808080; stroke-linejoin: miter"/>
   </g>
   <g id="patch_160">
    <path d="M 685.377476 26.877187 
L 685.377476 26.877187 
L 685.377476 359.517187 
" clip-path="url(#p0953b1c207)" style="fill: #808080; opacity: 0.4; stroke: #808080; stroke-linejoin: miter"/>
   </g>
   <g id="patch_161">
    <path d="M 780.158985 359.517187 
L 780.158985 26.877187 
L 880.515877 26.877187 
L 880.515877 359.517187 
z
" clip-path="url(#p0953b1c207)" style="fill: #808080; opacity: 0.4; stroke: #808080; stroke-linejoin: miter"/>
   </g>
   <g id="patch_162">
    <path d="M 883.303568 26.877187 
L 883.303568 26.877187 
L 883.303568 359.517187 
" clip-path="url(#p0953b1c207)" style="fill: #808080; opacity: 0.4; stroke: #808080; stroke-linejoin: miter"/>
   </g>
   <g id="patch_163">
    <path d="M 886.09126 26.877187 
L 886.09126 26.877187 
L 886.09126 359.517187 
" clip-path="url(#p0953b1c207)" style="fill: #808080; opacity: 0.4; stroke: #808080; stroke-linejoin: miter"/>
   </g>
   <g id="patch_164">
    <path d="M 980.872769 359.517187 
L 980.872769 26.877187 
L 1081.229661 26.877187 
L 1081.229661 359.517187 
z
" clip-path="url(#p0953b1c207)" style="fill: #808080; opacity: 0.4; stroke: #808080; stroke-linejoin: miter"/>
   </g>
   <g id="patch_165">
    <path d="M 1084.017352 26.877187 
L 1084.017352 26.877187 
L 1084.017352 359.517187 
" clip-path="url(#p0953b1c207)" style="fill: #808080; opacity: 0.4; stroke: #808080; stroke-linejoin: miter"/>
   </g>
   <g id="patch_166">
    <path d="M 1086.805044 26.877187 
L 1086.805044 26.877187 
L 1086.805044 359.517187 
" clip-path="url(#p0953b1c207)" style="fill: #808080; opacity: 0.4; stroke: #808080; stroke-linejoin: miter"/>
   </g>
   <g id="matplotlib.axis_1">
    <g id="xtick_1">
     <g id="line2d_1">
      <defs>
       <path id="mdb6767fbc2" d="M 0 0 
L 0 3.5 
" style="stroke: #000000; stroke-width: 0.8"/>
      </defs>
      <g>
       <use xlink:href="#mdb6767fbc2" x="219.756343" y="359.517187" style="stroke: #000000; stroke-width: 0.8"/>
      </g>
     </g>
     <g id="text_1">
      <!-- 2024-11-14 -->
      <g transform="translate(190.698531 374.115625) scale(0.1 -0.1)">
       <defs>
        <path id="DejaVuSans-32" d="M 1228 531 
L 3431 531 
L 3431 0 
L 469 0 
L 469 531 
Q 828 903 1448 1529 
Q 2069 2156 2228 2338 
Q 2531 2678 2651 2914 
Q 2772 3150 2772 3378 
Q 2772 3750 2511 3984 
Q 2250 4219 1831 4219 
Q 1534 4219 1204 4116 
Q 875 4013 500 3803 
L 500 4441 
Q 881 4594 1212 4672 
Q 1544 4750 1819 4750 
Q 2544 4750 2975 4387 
Q 3406 4025 3406 3419 
Q 3406 3131 3298 2873 
Q 3191 2616 2906 2266 
Q 2828 2175 2409 1742 
Q 1991 1309 1228 531 
z
" transform="scale(0.015625)"/>
        <path id="DejaVuSans-30" d="M 2034 4250 
Q 1547 4250 1301 3770 
Q 1056 3291 1056 2328 
Q 1056 1369 1301 889 
Q 1547 409 2034 409 
Q 2525 409 2770 889 
Q 3016 1369 3016 2328 
Q 3016 3291 2770 3770 
Q 2525 4250 2034 4250 
z
M 2034 4750 
Q 2819 4750 3233 4129 
Q 3647 3509 3647 2328 
Q 3647 1150 3233 529 
Q 2819 -91 2034 -91 
Q 1250 -91 836 529 
Q 422 1150 422 2328 
Q 422 3509 836 4129 
Q 1250 4750 2034 4750 
z
" transform="scale(0.015625)"/>
        <path id="DejaVuSans-34" d="M 2419 4116 
L 825 1625 
L 2419 1625 
L 2419 4116 
z
M 2253 4666 
L 3047 4666 
L 3047 1625 
L 3713 1625 
L 3713 1100 
L 3047 1100 
L 3047 0 
L 2419 0 
L 2419 1100 
L 313 1100 
L 313 1709 
L 2253 4666 
z
" transform="scale(0.015625)"/>
        <path id="DejaVuSans-2d" d="M 313 2009 
L 1997 2009 
L 1997 1497 
L 313 1497 
L 313 2009 
z
" transform="scale(0.015625)"/>
        <path id="DejaVuSans-31" d="M 794 531 
L 1825 531 
L 1825 4091 
L 703 3866 
L 703 4441 
L 1819 4666 
L 2450 4666 
L 2450 531 
L 3481 531 
L 3481 0 
L 794 0 
L 794 531 
z
" transform="scale(0.015625)"/>
       </defs>
       <use xlink:href="#DejaVuSans-32"/>
       <use xlink:href="#DejaVuSans-30" x="63.623047"/>
       <use xlink:href="#DejaVuSans-32" x="127.246094"/>
       <use xlink:href="#DejaVuSans-34" x="190.869141"/>
       <use xlink:href="#DejaVuSans-2d" x="254.492188"/>
       <use xlink:href="#DejaVuSans-31" x="290.576172"/>
       <use xlink:href="#DejaVuSans-31" x="354.199219"/>
       <use xlink:href="#DejaVuSans-2d" x="417.822266"/>
       <use xlink:href="#DejaVuSans-31" x="453.90625"/>
       <use xlink:href="#DejaVuSans-34" x="517.529297"/>
      </g>
     </g>
    </g>
    <g id="xtick_2">
     <g id="line2d_2">
      <g>
       <use xlink:href="#mdb6767fbc2" x="420.470127" y="359.517187" style="stroke: #000000; stroke-width: 0.8"/>
      </g>
     </g>
     <g id="text_2">
      <!-- 2024-11-15 -->
      <g transform="translate(391.412315 374.115625) scale(0.1 -0.1)">
       <defs>
        <path id="DejaVuSans-35" d="M 691 4666 
L 3169 4666 
L 3169 4134 
L 1269 4134 
L 1269 2991 
Q 1406 3038 1543 3061 
Q 1681 3084 1819 3084 
Q 2600 3084 3056 2656 
Q 3513 2228 3513 1497 
Q 3513 744 3044 326 
Q 2575 -91 1722 -91 
Q 1428 -91 1123 -41 
Q 819 9 494 109 
L 494 744 
Q 775 591 1075 516 
Q 1375 441 1709 441 
Q 2250 441 2565 725 
Q 2881 1009 2881 1497 
Q 2881 1984 2565 2268 
Q 2250 2553 1709 2553 
Q 1456 2553 1204 2497 
Q 953 2441 691 2322 
L 691 4666 
z
" transform="scale(0.015625)"/>
       </defs>
       <use xlink:href="#DejaVuSans-32"/>
       <use xlink:href="#DejaVuSans-30" x="63.623047"/>
       <use xlink:href="#DejaVuSans-32" x="127.246094"/>
       <use xlink:href="#DejaVuSans-34" x="190.869141"/>
       <use xlink:href="#DejaVuSans-2d" x="254.492188"/>
       <use xlink:href="#DejaVuSans-31" x="290.576172"/>
       <use xlink:href="#DejaVuSans-31" x="354.199219"/>
       <use xlink:href="#DejaVuSans-2d" x="417.822266"/>
       <use xlink:href="#DejaVuSans-31" x="453.90625"/>
       <use xlink:href="#DejaVuSans-35" x="517.529297"/>
      </g>
     </g>
    </g>
    <g id="xtick_3">
     <g id="line2d_3">
      <g>
       <use xlink:href="#mdb6767fbc2" x="621.183911" y="359.517187" style="stroke: #000000; stroke-width: 0.8"/>
      </g>
     </g>
     <g id="text_3">
      <!-- 2024-11-16 -->
      <g transform="translate(592.126099 374.115625) scale(0.1 -0.1)">
       <defs>
        <path id="DejaVuSans-36" d="M 2113 2584 
Q 1688 2584 1439 2293 
Q 1191 2003 1191 1497 
Q 1191 994 1439 701 
Q 1688 409 2113 409 
Q 2538 409 2786 701 
Q 3034 994 3034 1497 
Q 3034 2003 2786 2293 
Q 2538 2584 2113 2584 
z
M 3366 4563 
L 3366 3988 
Q 3128 4100 2886 4159 
Q 2644 4219 2406 4219 
Q 1781 4219 1451 3797 
Q 1122 3375 1075 2522 
Q 1259 2794 1537 2939 
Q 1816 3084 2150 3084 
Q 2853 3084 3261 2657 
Q 3669 2231 3669 1497 
Q 3669 778 3244 343 
Q 2819 -91 2113 -91 
Q 1303 -91 875 529 
Q 447 1150 447 2328 
Q 447 3434 972 4092 
Q 1497 4750 2381 4750 
Q 2619 4750 2861 4703 
Q 3103 4656 3366 4563 
z
" transform="scale(0.015625)"/>
       </defs>
       <use xlink:href="#DejaVuSans-32"/>
       <use xlink:href="#DejaVuSans-30" x="63.623047"/>
       <use xlink:href="#DejaVuSans-32" x="127.246094"/>
       <use xlink:href="#DejaVuSans-34" x="190.869141"/>
       <use xlink:href="#DejaVuSans-2d" x="254.492188"/>
       <use xlink:href="#DejaVuSans-31" x="290.576172"/>
       <use xlink:href="#DejaVuSans-31" x="354.199219"/>
       <use xlink:href="#DejaVuSans-2d" x="417.822266"/>
       <use xlink:href="#DejaVuSans-31" x="453.90625"/>
       <use xlink:href="#DejaVuSans-36" x="517.529297"/>
      </g>
     </g>
    </g>
    <g id="xtick_4">
     <g id="line2d_4">
      <g>
       <use xlink:href="#mdb6767fbc2" x="821.897695" y="359.517187" style="stroke: #000000; stroke-width: 0.8"/>
      </g>
     </g>
     <g id="text_4">
      <!-- 2024-11-17 -->
      <g transform="translate(792.839882 374.115625) scale(0.1 -0.1)">
       <defs>
        <path id="DejaVuSans-37" d="M 525 4666 
L 3525 4666 
L 3525 4397 
L 1831 0 
L 1172 0 
L 2766 4134 
L 525 4134 
L 525 4666 
z
" transform="scale(0.015625)"/>
       </defs>
       <use xlink:href="#DejaVuSans-32"/>
       <use xlink:href="#DejaVuSans-30" x="63.623047"/>
       <use xlink:href="#DejaVuSans-32" x="127.246094"/>
       <use xlink:href="#DejaVuSans-34" x="190.869141"/>
       <use xlink:href="#DejaVuSans-2d" x="254.492188"/>
       <use xlink:href="#DejaVuSans-31" x="290.576172"/>
       <use xlink:href="#DejaVuSans-31" x="354.199219"/>
       <use xlink:href="#DejaVuSans-2d" x="417.822266"/>
       <use xlink:href="#DejaVuSans-31" x="453.90625"/>
       <use xlink:href="#DejaVuSans-37" x="517.529297"/>
      </g>
     </g>
    </g>
    <g id="xtick_5">
     <g id="line2d_5">
      <g>
       <use xlink:href="#mdb6767fbc2" x="1022.611479" y="359.517187" style="stroke: #000000; stroke-width: 0.8"/>
      </g>
     </g>
     <g id="text_5">
      <!-- 2024-11-18 -->
      <g transform="translate(993.553666 374.115625) scale(0.1 -0.1)">
       <defs>
        <path id="DejaVuSans-38" d="M 2034 2216 
Q 1584 2216 1326 1975 
Q 1069 1734 1069 1313 
Q 1069 891 1326 650 
Q 1584 409 2034 409 
Q 2484 409 2743 651 
Q 3003 894 3003 1313 
Q 3003 1734 2745 1975 
Q 2488 2216 2034 2216 
z
M 1403 2484 
Q 997 2584 770 2862 
Q 544 3141 544 3541 
Q 544 4100 942 4425 
Q 1341 4750 2034 4750 
Q 2731 4750 3128 4425 
Q 3525 4100 3525 3541 
Q 3525 3141 3298 2862 
Q 3072 2584 2669 2484 
Q 3125 2378 3379 2068 
Q 3634 1759 3634 1313 
Q 3634 634 3220 271 
Q 2806 -91 2034 -91 
Q 1263 -91 848 271 
Q 434 634 434 1313 
Q 434 1759 690 2068 
Q 947 2378 1403 2484 
z
M 1172 3481 
Q 1172 3119 1398 2916 
Q 1625 2713 2034 2713 
Q 2441 2713 2670 2916 
Q 2900 3119 2900 3481 
Q 2900 3844 2670 4047 
Q 2441 4250 2034 4250 
Q 1625 4250 1398 4047 
Q 1172 3844 1172 3481 
z
" transform="scale(0.015625)"/>
       </defs>
       <use xlink:href="#DejaVuSans-32"/>
       <use xlink:href="#DejaVuSans-30" x="63.623047"/>
       <use xlink:href="#DejaVuSans-32" x="127.246094"/>
       <use xlink:href="#DejaVuSans-34" x="190.869141"/>
       <use xlink:href="#DejaVuSans-2d" x="254.492188"/>
       <use xlink:href="#DejaVuSans-31" x="290.576172"/>
       <use xlink:href="#DejaVuSans-31" x="354.199219"/>
       <use xlink:href="#DejaVuSans-2d" x="417.822266"/>
       <use xlink:href="#DejaVuSans-31" x="453.90625"/>
       <use xlink:href="#DejaVuSans-38" x="517.529297"/>
      </g>
     </g>
    </g>
    <g id="text_6">
     <!-- Time -->
     <g transform="translate(592.554688 389.313437) scale(0.12 -0.12)">
      <defs>
       <path id="DejaVuSans-54" d="M -19 4666 
L 3928 4666 
L 3928 4134 
L 2272 4134 
L 2272 0 
L 1638 0 
L 1638 4134 
L -19 4134 
L -19 4666 
z
" transform="scale(0.015625)"/>
       <path id="DejaVuSans-69" d="M 603 3500 
L 1178 3500 
L 1178 0 
L 603 0 
L 603 3500 
z
M 603 4863 
L 1178 4863 
L 1178 4134 
L 603 4134 
L 603 4863 
z
" transform="scale(0.015625)"/>
       <path id="DejaVuSans-6d" d="M 3328 2828 
Q 3544 3216 3844 3400 
Q 4144 3584 4550 3584 
Q 5097 3584 5394 3201 
Q 5691 2819 5691 2113 
L 5691 0 
L 5113 0 
L 5113 2094 
Q 5113 2597 4934 2840 
Q 4756 3084 4391 3084 
Q 3944 3084 3684 2787 
Q 3425 2491 3425 1978 
L 3425 0 
L 2847 0 
L 2847 2094 
Q 2847 2600 2669 2842 
Q 2491 3084 2119 3084 
Q 1678 3084 1418 2786 
Q 1159 2488 1159 1978 
L 1159 0 
L 581 0 
L 581 3500 
L 1159 3500 
L 1159 2956 
Q 1356 3278 1631 3431 
Q 1906 3584 2284 3584 
Q 2666 3584 2933 3390 
Q 3200 3197 3328 2828 
z
" transform="scale(0.015625)"/>
       <path id="DejaVuSans-65" d="M 3597 1894 
L 3597 1613 
L 953 1613 
Q 991 1019 1311 708 
Q 1631 397 2203 397 
Q 2534 397 2845 478 
Q 3156 559 3463 722 
L 3463 178 
Q 3153 47 2828 -22 
Q 2503 -91 2169 -91 
Q 1331 -91 842 396 
Q 353 884 353 1716 
Q 353 2575 817 3079 
Q 1281 3584 2069 3584 
Q 2775 3584 3186 3129 
Q 3597 2675 3597 1894 
z
M 3022 2063 
Q 3016 2534 2758 2815 
Q 2500 3097 2075 3097 
Q 1594 3097 1305 2825 
Q 1016 2553 972 2059 
L 3022 2063 
z
" transform="scale(0.015625)"/>
      </defs>
      <use xlink:href="#DejaVuSans-54"/>
      <use xlink:href="#DejaVuSans-69" x="57.958984"/>
      <use xlink:href="#DejaVuSans-6d" x="85.742188"/>
      <use xlink:href="#DejaVuSans-65" x="183.154297"/>
     </g>
    </g>
   </g>
   <g id="matplotlib.axis_2">
    <g id="ytick_1">
     <g id="line2d_6">
      <defs>
       <path id="m87819abf71" d="M 0 0 
L -3.5 0 
" style="stroke: #000000; stroke-width: 0.8"/>
      </defs>
      <g>
       <use xlink:href="#m87819abf71" x="49.235" y="344.397187" style="stroke: #000000; stroke-width: 0.8"/>
      </g>
     </g>
     <g id="text_7">
      <!-- 0 -->
      <g transform="translate(35.8725 348.196406) scale(0.1 -0.1)">
       <use xlink:href="#DejaVuSans-30"/>
      </g>
     </g>
    </g>
    <g id="ytick_2">
     <g id="line2d_7">
      <g>
       <use xlink:href="#m87819abf71" x="49.235" y="272.4828" style="stroke: #000000; stroke-width: 0.8"/>
      </g>
     </g>
     <g id="text_8">
      <!-- 200 -->
      <g transform="translate(23.1475 276.282019) scale(0.1 -0.1)">
       <use xlink:href="#DejaVuSans-32"/>
       <use xlink:href="#DejaVuSans-30" x="63.623047"/>
       <use xlink:href="#DejaVuSans-30" x="127.246094"/>
      </g>
     </g>
    </g>
    <g id="ytick_3">
     <g id="line2d_8">
      <g>
       <use xlink:href="#m87819abf71" x="49.235" y="200.568412" style="stroke: #000000; stroke-width: 0.8"/>
      </g>
     </g>
     <g id="text_9">
      <!-- 400 -->
      <g transform="translate(23.1475 204.367631) scale(0.1 -0.1)">
       <use xlink:href="#DejaVuSans-34"/>
       <use xlink:href="#DejaVuSans-30" x="63.623047"/>
       <use xlink:href="#DejaVuSans-30" x="127.246094"/>
      </g>
     </g>
    </g>
    <g id="ytick_4">
     <g id="line2d_9">
      <g>
       <use xlink:href="#m87819abf71" x="49.235" y="128.654025" style="stroke: #000000; stroke-width: 0.8"/>
      </g>
     </g>
     <g id="text_10">
      <!-- 600 -->
      <g transform="translate(23.1475 132.453243) scale(0.1 -0.1)">
       <use xlink:href="#DejaVuSans-36"/>
       <use xlink:href="#DejaVuSans-30" x="63.623047"/>
       <use xlink:href="#DejaVuSans-30" x="127.246094"/>
      </g>
     </g>
    </g>
    <g id="ytick_5">
     <g id="line2d_10">
      <g>
       <use xlink:href="#m87819abf71" x="49.235" y="56.739637" style="stroke: #000000; stroke-width: 0.8"/>
      </g>
     </g>
     <g id="text_11">
      <!-- 800 -->
      <g transform="translate(23.1475 60.538856) scale(0.1 -0.1)">
       <use xlink:href="#DejaVuSans-38"/>
       <use xlink:href="#DejaVuSans-30" x="63.623047"/>
       <use xlink:href="#DejaVuSans-30" x="127.246094"/>
      </g>
     </g>
    </g>
    <g id="text_12">
     <!-- Pellet_Count -->
     <g transform="translate(16.318125 230.485312) rotate(-90) scale(0.12 -0.12)">
      <defs>
       <path id="DejaVuSans-50" d="M 1259 4147 
L 1259 2394 
L 2053 2394 
Q 2494 2394 2734 2622 
Q 2975 2850 2975 3272 
Q 2975 3691 2734 3919 
Q 2494 4147 2053 4147 
L 1259 4147 
z
M 628 4666 
L 2053 4666 
Q 2838 4666 3239 4311 
Q 3641 3956 3641 3272 
Q 3641 2581 3239 2228 
Q 2838 1875 2053 1875 
L 1259 1875 
L 1259 0 
L 628 0 
L 628 4666 
z
" transform="scale(0.015625)"/>
       <path id="DejaVuSans-6c" d="M 603 4863 
L 1178 4863 
L 1178 0 
L 603 0 
L 603 4863 
z
" transform="scale(0.015625)"/>
       <path id="DejaVuSans-74" d="M 1172 4494 
L 1172 3500 
L 2356 3500 
L 2356 3053 
L 1172 3053 
L 1172 1153 
Q 1172 725 1289 603 
Q 1406 481 1766 481 
L 2356 481 
L 2356 0 
L 1766 0 
Q 1100 0 847 248 
Q 594 497 594 1153 
L 594 3053 
L 172 3053 
L 172 3500 
L 594 3500 
L 594 4494 
L 1172 4494 
z
" transform="scale(0.015625)"/>
       <path id="DejaVuSans-5f" d="M 3263 -1063 
L 3263 -1509 
L -63 -1509 
L -63 -1063 
L 3263 -1063 
z
" transform="scale(0.015625)"/>
       <path id="DejaVuSans-43" d="M 4122 4306 
L 4122 3641 
Q 3803 3938 3442 4084 
Q 3081 4231 2675 4231 
Q 1875 4231 1450 3742 
Q 1025 3253 1025 2328 
Q 1025 1406 1450 917 
Q 1875 428 2675 428 
Q 3081 428 3442 575 
Q 3803 722 4122 1019 
L 4122 359 
Q 3791 134 3420 21 
Q 3050 -91 2638 -91 
Q 1578 -91 968 557 
Q 359 1206 359 2328 
Q 359 3453 968 4101 
Q 1578 4750 2638 4750 
Q 3056 4750 3426 4639 
Q 3797 4528 4122 4306 
z
" transform="scale(0.015625)"/>
       <path id="DejaVuSans-6f" d="M 1959 3097 
Q 1497 3097 1228 2736 
Q 959 2375 959 1747 
Q 959 1119 1226 758 
Q 1494 397 1959 397 
Q 2419 397 2687 759 
Q 2956 1122 2956 1747 
Q 2956 2369 2687 2733 
Q 2419 3097 1959 3097 
z
M 1959 3584 
Q 2709 3584 3137 3096 
Q 3566 2609 3566 1747 
Q 3566 888 3137 398 
Q 2709 -91 1959 -91 
Q 1206 -91 779 398 
Q 353 888 353 1747 
Q 353 2609 779 3096 
Q 1206 3584 1959 3584 
z
" transform="scale(0.015625)"/>
       <path id="DejaVuSans-75" d="M 544 1381 
L 544 3500 
L 1119 3500 
L 1119 1403 
Q 1119 906 1312 657 
Q 1506 409 1894 409 
Q 2359 409 2629 706 
Q 2900 1003 2900 1516 
L 2900 3500 
L 3475 3500 
L 3475 0 
L 2900 0 
L 2900 538 
Q 2691 219 2414 64 
Q 2138 -91 1772 -91 
Q 1169 -91 856 284 
Q 544 659 544 1381 
z
M 1991 3584 
L 1991 3584 
z
" transform="scale(0.015625)"/>
       <path id="DejaVuSans-6e" d="M 3513 2113 
L 3513 0 
L 2938 0 
L 2938 2094 
Q 2938 2591 2744 2837 
Q 2550 3084 2163 3084 
Q 1697 3084 1428 2787 
Q 1159 2491 1159 1978 
L 1159 0 
L 581 0 
L 581 3500 
L 1159 3500 
L 1159 2956 
Q 1366 3272 1645 3428 
Q 1925 3584 2291 3584 
Q 2894 3584 3203 3211 
Q 3513 2838 3513 2113 
z
" transform="scale(0.015625)"/>
      </defs>
      <use xlink:href="#DejaVuSans-50"/>
      <use xlink:href="#DejaVuSans-65" x="56.677734"/>
      <use xlink:href="#DejaVuSans-6c" x="118.201172"/>
      <use xlink:href="#DejaVuSans-6c" x="145.984375"/>
      <use xlink:href="#DejaVuSans-65" x="173.767578"/>
      <use xlink:href="#DejaVuSans-74" x="235.291016"/>
      <use xlink:href="#DejaVuSans-5f" x="274.5"/>
      <use xlink:href="#DejaVuSans-43" x="324.5"/>
      <use xlink:href="#DejaVuSans-6f" x="394.324219"/>
      <use xlink:href="#DejaVuSans-75" x="455.505859"/>
      <use xlink:href="#DejaVuSans-6e" x="518.884766"/>
      <use xlink:href="#DejaVuSans-74" x="582.263672"/>
     </g>
    </g>
   </g>
   <g id="line2d_11">
    <path d="M 99.962273 344.397187 
L 100.770703 344.397187 
L 100.791611 344.037616 
L 101.095934 344.037616 
L 101.193503 342.9589 
L 102.39918 342.9589 
L 102.408472 342.599328 
L 104.266933 342.599328 
L 104.387733 341.880184 
L 104.427225 341.880184 
L 104.578225 340.441896 
L 104.62701 340.441896 
L 104.678117 339.722752 
L 105.105563 339.722752 
L 105.546948 339.36318 
L 106.339117 339.36318 
L 106.929178 339.003608 
L 107.003517 338.644036 
L 107.319455 338.284465 
L 109.7401 338.284465 
L 109.80747 337.924893 
L 110.460254 337.924893 
L 110.469546 337.565321 
L 110.8273 337.565321 
L 110.908608 337.205749 
L 111.633408 337.205749 
L 111.670577 336.846177 
L 113.034223 336.846177 
L 113.129469 335.767461 
L 113.863561 335.767461 
L 113.868207 335.407889 
L 115.364268 335.407889 
L 115.417699 335.048317 
L 117.055467 335.048317 
L 117.164652 334.329173 
L 117.250606 334.329173 
L 117.255252 333.969601 
L 117.615329 333.969601 
L 117.619975 333.610029 
L 118.272759 333.610029 
L 118.330836 332.890885 
L 118.398205 332.890885 
L 118.493452 331.81217 
L 120.737543 331.81217 
L 124.11065 331.452598 
L 124.222158 330.373882 
L 124.540419 330.373882 
L 124.545065 330.01431 
L 126.375649 330.01431 
L 126.45928 328.935594 
L 126.505741 328.935594 
L 126.58008 328.21645 
L 130.011263 328.21645 
L 130.097217 327.137734 
L 130.132063 327.137734 
L 130.238925 326.418591 
L 130.294679 326.418591 
L 130.357402 326.059019 
L 130.429417 326.059019 
L 130.517694 324.980303 
L 134.92457 324.980303 
L 135.012846 324.261159 
L 135.133646 324.261159 
L 135.140616 323.901587 
L 140.864675 323.901587 
L 140.962245 322.822871 
L 141.024968 322.822871 
L 141.131829 321.744155 
L 141.194552 321.744155 
L 141.250306 321.025012 
L 144.179705 321.025012 
L 144.514228 320.305868 
L 148.858381 320.305868 
L 148.951304 319.227152 
L 149.002411 319.227152 
L 149.125534 318.148436 
L 149.16735 318.148436 
L 149.223104 317.429292 
L 153.188595 317.429292 
L 153.193241 317.06972 
L 155.836902 317.06972 
L 155.918209 315.991004 
L 155.999517 315.991004 
L 156.108701 314.912289 
L 156.145871 314.912289 
L 156.250409 314.193145 
L 156.250409 314.193145 
L 156.359594 313.114429 
L 160.320439 313.114429 
L 160.434269 312.754857 
L 164.125637 312.754857 
L 164.186037 312.035713 
L 164.24876 312.035713 
L 164.348653 310.956997 
L 164.46713 310.956997 
L 164.548437 310.237853 
L 164.61116 310.237853 
L 164.67156 309.518709 
L 164.736606 309.518709 
L 164.741253 309.159138 
L 169.796266 309.159138 
L 169.805559 308.799566 
L 174.560896 308.799566 
L 174.672403 308.439994 
L 174.684019 308.439994 
L 174.688665 308.080422 
L 175.829295 308.080422 
L 175.831618 307.72085 
L 175.982618 307.72085 
L 175.989588 307.361278 
L 178.108233 307.361278 
L 178.112879 307.001706 
L 179.973663 307.001706 
L 180.096786 305.92299 
L 180.145571 305.92299 
L 180.150217 305.563418 
L 184.013493 305.563418 
L 184.025108 305.203846 
L 185.971846 305.203846 
L 186.083354 304.484702 
L 189.495953 304.484702 
L 189.495953 304.484702 
L 189.505245 304.12513 
L 192.014167 304.12513 
L 192.093152 303.405987 
L 192.181429 303.405987 
L 192.241829 303.046415 
L 197.417642 303.046415 
L 197.424612 302.686843 
L 211.616284 302.686843 
L 211.62093 302.327271 
L 211.950807 302.327271 
L 212.032115 301.608127 
L 212.115746 301.608127 
L 212.217961 300.888983 
L 212.292299 300.888983 
L 212.359669 300.169839 
L 212.461884 300.169839 
L 212.517638 299.450695 
L 214.548006 299.450695 
L 214.552653 299.091123 
L 215.265837 299.091123 
L 215.272806 298.731551 
L 216.190421 298.731551 
L 216.215975 298.371979 
L 225.631403 298.371979 
L 225.708064 297.652836 
L 236.138677 297.652836 
L 236.233923 296.933692 
L 236.280384 296.933692 
L 236.361692 296.214548 
L 236.4128 296.214548 
L 236.475523 295.495404 
L 236.552184 295.495404 
L 236.605615 295.135832 
L 251.268872 295.135832 
L 251.322303 294.416688 
L 251.405933 294.416688 
L 251.480272 293.697544 
L 252.613933 293.697544 
L 252.699887 292.9784 
L 252.997241 292.9784 
L 253.069256 292.259256 
L 253.118041 292.259256 
L 253.120364 291.899685 
L 253.348025 291.899685 
L 253.352671 291.540113 
L 257.733993 291.540113 
L 257.740962 291.180541 
L 264.519699 291.180541 
L 264.624237 290.461397 
L 264.738068 290.461397 
L 264.791499 289.742253 
L 264.86816 289.742253 
L 264.872806 289.382681 
L 272.636527 289.382681 
L 272.75965 288.663537 
L 272.827019 288.663537 
L 272.903681 287.944393 
L 275.454418 287.944393 
L 275.461388 287.584821 
L 280.723155 287.584821 
L 280.82537 286.865677 
L 280.846278 286.865677 
L 280.906678 286.146534 
L 280.987986 286.146534 
L 281.106463 285.067818 
L 285.722415 285.067818 
L 285.810692 283.989102 
L 285.85483 283.989102 
L 285.964015 282.910386 
L 286.038353 282.910386 
L 286.094107 282.191242 
L 291.390721 282.191242 
L 291.472029 281.472098 
L 292.161982 281.472098 
L 292.168952 281.112526 
L 293.279382 281.112526 
L 293.286351 280.752954 
L 294.589597 280.752954 
L 294.594243 280.393383 
L 296.090304 280.393383 
L 296.150704 279.674239 
L 296.403919 279.674239 
L 296.408566 279.314667 
L 299.456442 279.314667 
L 299.458765 278.955095 
L 299.572595 278.955095 
L 299.637642 278.595523 
L 301.372979 278.595523 
L 301.377626 278.235951 
L 301.870118 278.235951 
L 301.944456 277.516807 
L 302.848133 277.516807 
L 302.852779 277.157235 
L 303.459102 277.157235 
L 303.463748 276.797663 
L 306.188716 276.797663 
L 306.28164 276.438091 
L 307.914762 276.438091 
L 307.919408 276.078519 
L 308.53967 276.078519 
L 308.546639 275.718947 
L 309.159931 275.718947 
L 309.222654 274.999803 
L 309.283054 274.999803 
L 309.285377 274.640231 
L 309.510715 274.640231 
L 309.515362 274.28066 
L 309.993915 274.28066 
L 309.996238 273.921088 
L 310.330761 273.921088 
L 310.333084 273.561516 
L 313.29733 273.561516 
L 313.376314 272.4828 
L 313.41813 272.4828 
L 313.524991 271.404084 
L 313.550545 271.404084 
L 313.65276 270.325368 
L 313.699222 270.325368 
L 313.787499 269.246652 
L 315.120944 269.246652 
L 315.204575 268.167937 
L 319.653266 268.167937 
L 319.657912 267.808365 
L 322.838204 267.808365 
L 322.947388 266.729649 
L 322.977588 266.729649 
L 323.056573 265.650933 
L 323.112327 265.650933 
L 323.216865 264.572217 
L 327.505264 264.572217 
L 327.767771 264.212645 
L 328.26491 264.212645 
L 328.271879 263.853073 
L 335.807938 263.853073 
L 336.667476 263.493501 
L 338.813999 263.493501 
L 338.813999 263.493501 
L 338.825614 263.133929 
L 344.633305 263.133929 
L 344.696028 262.414786 
L 344.751781 262.414786 
L 344.754104 262.055214 
L 344.998027 262.055214 
L 345.095597 260.976498 
L 345.165289 260.976498 
L 345.165289 260.976498 
L 345.176904 260.616926 
L 348.25498 260.616926 
L 348.25498 260.616926 
L 348.266596 260.257354 
L 349.927595 260.257354 
L 349.932241 259.897782 
L 351.744241 259.897782 
L 351.851102 259.178638 
L 351.897564 259.178638 
L 351.99281 258.099922 
L 355.293901 258.099922 
L 355.296224 257.74035 
L 356.625024 257.74035 
L 356.676132 257.021207 
L 358.160577 257.021207 
L 358.216331 256.302063 
L 359.120008 256.302063 
L 359.124654 255.942491 
L 359.296562 255.942491 
L 359.298885 255.582919 
L 361.90073 255.582919 
L 362.002945 254.504203 
L 367.878005 254.504203 
L 367.952343 253.785059 
L 368.022036 253.785059 
L 368.026682 253.425487 
L 368.217174 253.425487 
L 368.328682 253.065915 
L 369.12782 253.065915 
L 369.130143 252.706343 
L 369.469312 252.706343 
L 369.469312 252.706343 
L 369.583143 251.627627 
L 372.17105 251.627627 
L 372.217511 250.908484 
L 374.968034 250.908484 
L 375.040049 250.548912 
L 377.588464 250.548912 
L 377.662802 249.829768 
L 377.73714 249.829768 
L 377.848648 249.110624 
L 377.88814 249.110624 
L 377.97874 248.031908 
L 378.071663 248.031908 
L 378.15994 247.312764 
L 390.437398 247.312764 
L 390.509413 246.59362 
L 390.572136 246.59362 
L 390.674352 245.514905 
L 390.841613 245.514905 
L 390.955444 244.795761 
L 390.971706 244.795761 
L 391.05069 244.076617 
L 391.092506 244.076617 
L 391.208659 242.997901 
L 391.282998 242.997901 
L 391.285321 242.638329 
L 391.677921 242.638329 
L 391.680244 242.278757 
L 406.838316 242.278757 
L 406.938208 241.559613 
L 407.033454 241.559613 
L 407.144962 240.480897 
L 407.198393 240.480897 
L 407.272731 239.761753 
L 407.335454 239.761753 
L 407.435347 238.683038 
L 407.505039 238.683038 
L 407.512008 238.323466 
L 409.161392 238.323466 
L 409.189269 237.963894 
L 423.508711 237.963894 
L 423.511034 237.604322 
L 429.067832 237.604322 
L 429.142171 236.885178 
L 429.214186 236.885178 
L 429.223478 236.525606 
L 438.055814 236.525606 
L 438.062783 236.166034 
L 452.853809 236.166034 
L 452.983902 235.087318 
L 453.046625 235.087318 
L 453.132579 234.368174 
L 453.20924 234.368174 
L 453.262671 233.649031 
L 454.466024 233.649031 
L 454.472994 233.289459 
L 457.269977 233.289459 
L 457.346639 232.570315 
L 469.094435 232.570315 
L 469.152512 231.851171 
L 469.231497 231.851171 
L 469.32442 231.132027 
L 469.403404 231.132027 
L 469.470773 230.412883 
L 477.085817 230.412883 
L 477.18571 229.334167 
L 477.220556 229.334167 
L 477.320448 228.255451 
L 477.373879 228.255451 
L 477.424986 227.536308 
L 487.467645 227.536308 
L 487.576829 226.817164 
L 487.783583 225.738448 
L 492.264797 225.738448 
L 492.264797 225.738448 
L 492.397213 224.659732 
L 492.429736 224.659732 
L 492.432059 224.30016 
L 492.731736 224.30016 
L 492.736382 223.940588 
L 494.158104 223.940588 
L 494.158104 223.940588 
L 494.181335 223.581016 
L 499.831056 223.581016 
L 499.94721 222.5023 
L 500.042456 222.5023 
L 500.044779 222.142729 
L 503.975424 222.142729 
L 504.091578 221.064013 
L 504.145009 221.064013 
L 504.203086 220.344869 
L 504.298332 220.344869 
L 504.428424 219.266153 
L 504.498116 219.266153 
L 504.567809 218.547009 
L 507.492562 218.547009 
L 507.5367 218.187437 
L 510.466099 218.187437 
L 510.559022 217.468293 
L 511.595114 217.468293 
L 511.59976 217.108721 
L 512.150329 217.108721 
L 512.168914 216.749149 
L 512.515052 216.749149 
L 512.545252 216.389578 
L 515.256282 216.389578 
L 515.356175 215.310862 
L 515.39799 215.310862 
L 515.514144 214.232146 
L 515.562928 214.232146 
L 515.632621 213.513002 
L 518.041651 213.513002 
L 518.120635 212.793858 
L 518.160128 212.793858 
L 518.273958 212.074714 
L 518.352943 212.074714 
L 518.422635 211.715142 
L 518.506266 211.715142 
L 518.510912 211.35557 
L 519.096327 211.35557 
L 519.09865 210.995998 
L 525.247833 210.995998 
L 525.343079 209.917283 
L 525.380248 209.917283 
L 525.482464 209.557711 
L 525.591648 208.838567 
L 525.693864 208.838567 
L 525.775171 208.119423 
L 526.09111 208.119423 
L 526.167771 207.400279 
L 530.765139 207.400279 
L 530.837154 207.040707 
L 537.657706 207.040707 
L 537.660029 206.681135 
L 537.77386 206.681135 
L 537.852845 205.961991 
L 537.945768 205.961991 
L 538.054952 205.242847 
L 538.129291 205.242847 
L 538.182721 204.523704 
L 538.277968 204.523704 
L 538.280291 204.164132 
L 545.263458 204.164132 
L 545.365673 203.444988 
L 545.446981 203.444988 
L 545.523642 202.725844 
L 547.558657 202.725844 
L 547.756118 202.366272 
L 553.775209 202.366272 
L 553.875101 201.647128 
L 553.930855 201.647128 
L 554.037716 200.568412 
L 556.184239 200.568412 
L 556.184239 200.568412 
L 556.193531 200.20884 
L 556.379377 200.20884 
L 556.430485 199.849268 
L 561.994252 199.849268 
L 562.138283 199.489696 
L 562.168483 199.489696 
L 562.22656 198.770553 
L 564.974759 198.770553 
L 565.128082 198.051409 
L 566.052667 198.051409 
L 566.161851 197.691837 
L 566.343051 197.691837 
L 566.345374 197.332265 
L 568.782281 197.332265 
L 568.898435 196.253549 
L 568.935604 196.253549 
L 568.993681 195.534405 
L 569.316589 195.534405 
L 569.321235 195.174833 
L 569.493142 195.174833 
L 569.495466 194.815261 
L 573.43308 194.815261 
L 573.549234 193.736545 
L 573.588726 193.736545 
L 573.591049 193.376973 
L 574.041726 193.376973 
L 574.160203 193.017402 
L 574.313526 193.017402 
L 574.315849 192.65783 
L 577.986309 192.65783 
L 577.993278 192.298258 
L 579.768109 192.298258 
L 579.770432 191.938686 
L 579.944662 191.938686 
L 580.051524 191.579114 
L 580.669462 191.579114 
L 580.827431 190.85997 
L 581.220031 190.85997 
L 581.250231 190.500398 
L 589.032536 190.500398 
L 589.144044 189.421682 
L 589.185859 189.421682 
L 589.236967 188.702538 
L 601.233333 188.702538 
L 601.235656 188.342966 
L 613.027591 188.342966 
L 613.104252 187.623822 
L 613.164652 187.623822 
L 613.283129 186.904679 
L 613.292421 186.904679 
L 613.399283 185.825963 
L 615.608528 185.825963 
L 615.610851 185.466391 
L 637.821783 185.466391 
L 637.90309 184.747247 
L 638.056414 183.668531 
L 666.925281 183.668531 
L 667.020528 182.589815 
L 667.125066 182.589815 
L 667.199404 181.870671 
L 667.269097 181.870671 
L 667.371312 180.791956 
L 667.415451 180.791956 
L 667.531604 179.71324 
L 667.582712 179.71324 
L 667.585035 179.353668 
L 667.705835 179.353668 
L 667.708158 178.994096 
L 667.828958 178.994096 
L 667.833604 178.634524 
L 682.740784 178.634524 
L 682.868553 177.555808 
L 682.931277 177.555808 
L 683.014907 176.836664 
L 683.070661 176.836664 
L 683.135707 176.11752 
L 690.035244 176.11752 
L 690.218767 174.679233 
L 694.01235 174.679233 
L 694.114565 173.600517 
L 694.386365 173.600517 
L 694.762704 170.723941 
L 702.268563 170.723941 
L 702.377747 170.004797 
L 702.424209 170.004797 
L 702.428855 169.645226 
L 706.503531 169.645226 
L 706.615038 168.926082 
L 710.42953 168.926082 
L 710.478314 168.56651 
L 711.135745 168.56651 
L 711.186852 168.206938 
L 713.001175 168.206938 
L 713.10339 167.128222 
L 713.152175 167.128222 
L 713.249744 166.409078 
L 713.544775 164.611218 
L 714.708636 164.611218 
L 714.815497 163.892075 
L 716.896974 163.892075 
L 716.90162 163.532503 
L 717.942358 163.532503 
L 718.046896 162.453787 
L 718.079419 162.453787 
L 718.174666 161.375071 
L 718.228096 161.375071 
L 718.297789 160.655927 
L 718.360512 160.655927 
L 718.362835 160.296355 
L 718.778665 160.296355 
L 718.780988 159.936783 
L 719.357111 159.936783 
L 719.361758 159.577211 
L 726.609755 159.577211 
L 726.700355 158.858067 
L 726.758432 158.858067 
L 726.860648 157.779352 
L 726.904786 157.779352 
L 726.904786 157.779352 
L 726.972155 157.060208 
L 727.069724 157.060208 
L 727.072047 156.700636 
L 727.364755 156.700636 
L 727.367078 156.341064 
L 727.55757 156.341064 
L 727.562217 155.981492 
L 737.439937 155.981492 
L 737.486398 155.62192 
L 737.672244 155.62192 
L 737.674567 155.262348 
L 740.013905 155.262348 
L 740.097536 154.183632 
L 740.169551 154.183632 
L 740.276413 153.464488 
L 740.315905 153.464488 
L 740.315905 153.464488 
L 740.392566 152.745344 
L 741.935089 152.745344 
L 741.935089 152.385773 
L 741.937412 152.385773 
L 743.614673 152.385773 
L 743.735473 150.947485 
L 743.767996 150.947485 
L 743.767996 150.947485 
L 743.895765 149.509197 
L 743.923642 149.509197 
L 743.925965 149.149625 
L 744.87378 149.149625 
L 745.02478 148.790053 
L 756.1407 148.790053 
L 756.242915 147.711337 
L 756.305638 147.711337 
L 756.4125 146.632622 
L 756.493808 146.632622 
L 756.589054 145.553906 
L 756.647131 145.553906 
L 756.705207 144.834762 
L 758.119961 144.834762 
L 758.191976 144.47519 
L 766.654943 144.47519 
L 766.764127 143.756046 
L 766.815235 143.756046 
L 766.92442 143.036902 
L 773.310556 143.036902 
L 773.429033 141.958186 
L 773.470848 141.958186 
L 773.545187 141.239042 
L 777.919539 141.239042 
L 777.924186 140.87947 
L 778.690801 140.87947 
L 778.700093 140.519899 
L 780.830354 140.519899 
L 780.904692 139.800755 
L 780.974385 139.800755 
L 781.074277 138.722039 
L 783.859645 138.722039 
L 783.859645 138.362467 
L 783.966507 138.362467 
L 784.003676 138.362467 
L 784.075691 138.002895 
L 784.614645 138.002895 
L 784.72383 137.643323 
L 796.673734 137.643323 
L 796.771303 136.564607 
L 796.817764 136.564607 
L 796.91998 135.485891 
L 797.00361 135.485891 
L 797.087241 134.766748 
L 797.142995 134.766748 
L 797.240564 134.047604 
L 799.082764 134.047604 
L 799.175687 133.688032 
L 838.595967 133.688032 
L 838.702828 132.609316 
L 838.74929 132.609316 
L 838.751613 132.249744 
L 838.925844 132.249744 
L 839.009474 131.5306 
L 839.060582 131.5306 
L 839.060582 131.5306 
L 839.130274 130.811456 
L 858.876422 130.811456 
L 858.964699 130.092312 
L 859.036714 130.092312 
L 859.094791 129.373168 
L 859.19236 129.373168 
L 859.25276 128.654025 
L 859.327099 128.654025 
L 859.327099 128.654025 
L 859.392145 128.294453 
L 859.859083 128.294453 
L 859.926452 127.575309 
L 860.047252 127.575309 
L 860.051899 127.215737 
L 860.209868 127.215737 
L 860.212191 126.856165 
L 861.617652 126.856165 
L 861.629267 126.496593 
L 872.32471 126.496593 
L 872.399049 125.777449 
L 872.471064 125.777449 
L 872.582572 125.058305 
L 872.649941 125.058305 
L 872.768418 124.339161 
L 872.854371 124.339161 
L 872.856695 123.979589 
L 873.332925 123.979589 
L 873.386356 123.620017 
L 875.395817 123.620017 
L 875.421371 123.260446 
L 875.642063 123.260446 
L 875.786094 122.900874 
L 878.950123 122.900874 
L 878.973354 122.541302 
L 879.454231 122.541302 
L 880.262661 122.18173 
L 880.796969 122.18173 
L 880.799292 121.822158 
L 881.006046 121.822158 
L 881.008369 121.462586 
L 887.048367 121.462586 
L 887.143613 120.38387 
L 887.187752 120.38387 
L 887.276029 119.664726 
L 887.399152 119.664726 
L 887.506013 119.305154 
L 893.014027 119.305154 
L 893.111596 118.58601 
L 893.171996 118.58601 
L 893.223104 117.866866 
L 893.313704 117.866866 
L 893.353196 117.147723 
L 896.08281 117.147723 
L 896.178057 116.069007 
L 896.222195 116.069007 
L 896.326733 114.990291 
L 896.373195 114.990291 
L 896.442887 114.271147 
L 905.3031 114.271147 
L 905.412284 113.192431 
L 905.477331 113.192431 
L 905.572577 112.473287 
L 905.616715 112.473287 
L 905.716607 111.394572 
L 905.777007 111.394572 
L 905.897807 110.675428 
L 906.220715 110.675428 
L 906.225361 110.315856 
L 907.856161 110.315856 
L 907.967668 109.23714 
L 908.018776 109.23714 
L 908.116345 108.158424 
L 908.160484 108.158424 
L 908.227853 107.43928 
L 908.276637 107.43928 
L 908.371884 106.360564 
L 908.425314 106.360564 
L 908.52753 105.641421 
L 908.82953 105.641421 
L 908.834176 105.281849 
L 909.103653 105.281849 
L 909.259299 104.562705 
L 914.449051 104.562705 
L 914.500159 103.843561 
L 914.583789 103.843561 
L 914.66742 103.124417 
L 914.709235 103.124417 
L 914.883466 102.045701 
L 914.943866 102.045701 
L 915.006589 101.686129 
L 915.703512 101.686129 
L 915.715127 101.326557 
L 916.862727 101.326557 
L 916.86505 100.966985 
L 918.758357 100.966985 
L 918.832696 100.247841 
L 918.895419 100.247841 
L 919.006926 99.169126 
L 919.071973 99.169126 
L 919.155603 98.449982 
L 925.790309 98.449982 
L 925.883232 97.730838 
L 925.978478 97.730838 
L 926.083016 96.652122 
L 926.196847 96.652122 
L 926.275832 95.932978 
L 926.331586 95.932978 
L 926.333909 95.573406 
L 931.091569 95.573406 
L 931.149646 94.854262 
L 934.871214 94.854262 
L 934.943229 94.135119 
L 935.059383 94.135119 
L 935.122106 93.415975 
L 936.450906 93.415975 
L 936.511306 93.056403 
L 938.952859 93.056403 
L 939.027197 92.696831 
L 944.63278 92.696831 
L 944.707118 91.977687 
L 944.75358 91.977687 
L 944.848826 90.898971 
L 944.890641 90.898971 
L 945.002149 89.820255 
L 945.043964 89.820255 
L 945.136887 88.741539 
L 945.178703 88.741539 
L 945.278595 87.662824 
L 945.343641 87.662824 
L 945.455149 86.584108 
L 945.822195 86.584108 
L 945.854718 86.224536 
L 945.975518 86.224536 
L 945.98481 85.864964 
L 946.918687 85.864964 
L 946.965148 85.505392 
L 947.376333 85.505392 
L 947.383302 85.14582 
L 954.670792 85.14582 
L 954.777654 84.426676 
L 954.921684 84.426676 
L 955.040161 83.707532 
L 955.133084 83.707532 
L 955.2051 83.34796 
L 959.467945 83.34796 
L 959.470268 82.988388 
L 962.857313 82.988388 
L 962.952559 82.269245 
L 963.010636 82.269245 
L 963.06639 81.550101 
L 963.133759 81.550101 
L 963.233651 80.830957 
L 963.280113 80.830957 
L 963.389297 79.752241 
L 963.440405 79.752241 
L 963.449697 79.392669 
L 973.57134 79.392669 
L 973.671232 78.673525 
L 973.745571 78.673525 
L 973.801325 77.954381 
L 973.877986 77.954381 
L 973.882632 77.594809 
L 974.010402 77.594809 
L 974.077771 76.875666 
L 979.084 76.875666 
L 979.088646 76.516094 
L 981.604538 76.516094 
L 981.609184 76.156522 
L 982.559322 76.156522 
L 982.561645 75.79695 
L 982.842737 75.79695 
L 982.84506 75.437378 
L 994.446503 75.437378 
L 994.560334 74.718234 
L 994.785672 74.718234 
L 994.901826 73.639518 
L 994.948287 73.639518 
L 995.04121 72.560802 
L 995.106257 72.560802 
L 995.157364 71.841658 
L 995.231703 71.841658 
L 995.28281 71.122514 
L 995.993672 71.122514 
L 995.993672 71.122514 
L 996.005287 70.762943 
L 1008.220022 70.762943 
L 1008.299006 70.043799 
L 1008.515052 70.043799 
L 1008.598683 69.324655 
L 1008.668375 69.324655 
L 1008.745037 68.605511 
L 1009.644067 68.605511 
L 1009.704467 68.245939 
L 1025.083232 68.245939 
L 1025.090201 67.886367 
L 1025.257463 67.886367 
L 1025.364324 66.807651 
L 1025.415432 66.807651 
L 1025.475832 66.088507 
L 1032.714537 66.088507 
L 1032.81443 65.728935 
L 1032.851599 65.728935 
L 1032.949168 65.009792 
L 1038.129628 65.009792 
L 1038.210936 64.65022 
L 1054.751238 64.65022 
L 1054.862746 63.931076 
L 1054.925469 63.931076 
L 1054.976577 63.211932 
L 1055.055561 63.211932 
L 1055.134546 62.492788 
L 1055.187976 62.492788 
L 1055.301807 61.414072 
L 1055.380792 61.414072 
L 1055.445838 60.694928 
L 1055.503915 60.694928 
L 1055.561992 59.975784 
L 1070.624818 59.975784 
L 1070.729356 59.256641 
L 1070.81531 59.256641 
L 1070.878033 58.537497 
L 1070.933787 58.537497 
L 1070.933787 58.537497 
L 1071.010448 57.818353 
L 1075.106032 57.818353 
L 1075.196632 57.099209 
L 1075.280263 57.099209 
L 1075.282586 56.739637 
L 1075.42197 56.739637 
L 1075.426616 56.380065 
L 1083.847768 56.380065 
L 1083.922106 55.660921 
L 1083.982506 55.660921 
L 1084.052198 54.941777 
L 1084.107952 54.941777 
L 1084.203198 53.863061 
L 1084.286829 53.863061 
L 1084.291475 53.50349 
L 1084.419244 53.50349 
L 1084.474998 52.784346 
L 1084.565598 52.784346 
L 1084.632967 52.065202 
L 1084.87689 52.065202 
L 1084.879213 51.70563 
L 1089.794843 51.70563 
L 1089.862212 50.986486 
L 1089.931904 50.986486 
L 1090.038766 49.90777 
L 1090.089873 49.90777 
L 1090.092196 49.548198 
L 1091.353627 49.548198 
L 1091.439581 48.829054 
L 1092.445473 48.829054 
L 1092.505873 48.10991 
L 1095.549102 48.10991 
L 1095.632733 47.750339 
L 1095.714041 47.750339 
L 1095.767472 47.031195 
L 1095.869687 47.031195 
L 1095.874333 46.671623 
L 1104.664853 46.671623 
L 1104.6695 46.312051 
L 1105.601053 46.312051 
L 1105.608022 45.952479 
L 1109.550283 45.952479 
L 1109.636236 44.873763 
L 1109.675729 44.873763 
L 1109.784913 43.795047 
L 1109.826729 43.795047 
L 1109.926621 42.716331 
L 1109.956821 42.716331 
L 1110.031159 41.997187 
L 1114.507727 41.997187 
L 1114.507727 41.997187 
" clip-path="url(#p0953b1c207)" style="fill: none; stroke: #0000ff; stroke-width: 1.5; stroke-linecap: square"/>
   </g>
   <g id="patch_167">
    <path d="M 49.235 359.517187 
L 49.235 26.877187 
" style="fill: none; stroke: #000000; stroke-width: 0.8; stroke-linejoin: miter; stroke-linecap: square"/>
   </g>
   <g id="patch_168">
    <path d="M 1165.235 359.517187 
L 1165.235 26.877187 
" style="fill: none; stroke: #000000; stroke-width: 0.8; stroke-linejoin: miter; stroke-linecap: square"/>
   </g>
   <g id="patch_169">
    <path d="M 49.235 359.517187 
L 1165.235 359.517187 
" style="fill: none; stroke: #000000; stroke-width: 0.8; stroke-linejoin: miter; stroke-linecap: square"/>
   </g>
   <g id="patch_170">
    <path d="M 49.235 26.877187 
L 1165.235 26.877187 
" style="fill: none; stroke: #000000; stroke-width: 0.8; stroke-linejoin: miter; stroke-linecap: square"/>
   </g>
   <g id="text_13">
    <!-- Pellet Count and Cumulative Sum Over Time of Group 6 Mouse 1 -->
    <g transform="translate(315.460625 20.877187) scale(0.18 -0.18)">
     <defs>
      <path id="DejaVuSans-20" transform="scale(0.015625)"/>
      <path id="DejaVuSans-61" d="M 2194 1759 
Q 1497 1759 1228 1600 
Q 959 1441 959 1056 
Q 959 750 1161 570 
Q 1363 391 1709 391 
Q 2188 391 2477 730 
Q 2766 1069 2766 1631 
L 2766 1759 
L 2194 1759 
z
M 3341 1997 
L 3341 0 
L 2766 0 
L 2766 531 
Q 2569 213 2275 61 
Q 1981 -91 1556 -91 
Q 1019 -91 701 211 
Q 384 513 384 1019 
Q 384 1609 779 1909 
Q 1175 2209 1959 2209 
L 2766 2209 
L 2766 2266 
Q 2766 2663 2505 2880 
Q 2244 3097 1772 3097 
Q 1472 3097 1187 3025 
Q 903 2953 641 2809 
L 641 3341 
Q 956 3463 1253 3523 
Q 1550 3584 1831 3584 
Q 2591 3584 2966 3190 
Q 3341 2797 3341 1997 
z
" transform="scale(0.015625)"/>
      <path id="DejaVuSans-64" d="M 2906 2969 
L 2906 4863 
L 3481 4863 
L 3481 0 
L 2906 0 
L 2906 525 
Q 2725 213 2448 61 
Q 2172 -91 1784 -91 
Q 1150 -91 751 415 
Q 353 922 353 1747 
Q 353 2572 751 3078 
Q 1150 3584 1784 3584 
Q 2172 3584 2448 3432 
Q 2725 3281 2906 2969 
z
M 947 1747 
Q 947 1113 1208 752 
Q 1469 391 1925 391 
Q 2381 391 2643 752 
Q 2906 1113 2906 1747 
Q 2906 2381 2643 2742 
Q 2381 3103 1925 3103 
Q 1469 3103 1208 2742 
Q 947 2381 947 1747 
z
" transform="scale(0.015625)"/>
      <path id="DejaVuSans-76" d="M 191 3500 
L 800 3500 
L 1894 563 
L 2988 3500 
L 3597 3500 
L 2284 0 
L 1503 0 
L 191 3500 
z
" transform="scale(0.015625)"/>
      <path id="DejaVuSans-53" d="M 3425 4513 
L 3425 3897 
Q 3066 4069 2747 4153 
Q 2428 4238 2131 4238 
Q 1616 4238 1336 4038 
Q 1056 3838 1056 3469 
Q 1056 3159 1242 3001 
Q 1428 2844 1947 2747 
L 2328 2669 
Q 3034 2534 3370 2195 
Q 3706 1856 3706 1288 
Q 3706 609 3251 259 
Q 2797 -91 1919 -91 
Q 1588 -91 1214 -16 
Q 841 59 441 206 
L 441 856 
Q 825 641 1194 531 
Q 1563 422 1919 422 
Q 2459 422 2753 634 
Q 3047 847 3047 1241 
Q 3047 1584 2836 1778 
Q 2625 1972 2144 2069 
L 1759 2144 
Q 1053 2284 737 2584 
Q 422 2884 422 3419 
Q 422 4038 858 4394 
Q 1294 4750 2059 4750 
Q 2388 4750 2728 4690 
Q 3069 4631 3425 4513 
z
" transform="scale(0.015625)"/>
      <path id="DejaVuSans-4f" d="M 2522 4238 
Q 1834 4238 1429 3725 
Q 1025 3213 1025 2328 
Q 1025 1447 1429 934 
Q 1834 422 2522 422 
Q 3209 422 3611 934 
Q 4013 1447 4013 2328 
Q 4013 3213 3611 3725 
Q 3209 4238 2522 4238 
z
M 2522 4750 
Q 3503 4750 4090 4092 
Q 4678 3434 4678 2328 
Q 4678 1225 4090 567 
Q 3503 -91 2522 -91 
Q 1538 -91 948 565 
Q 359 1222 359 2328 
Q 359 3434 948 4092 
Q 1538 4750 2522 4750 
z
" transform="scale(0.015625)"/>
      <path id="DejaVuSans-72" d="M 2631 2963 
Q 2534 3019 2420 3045 
Q 2306 3072 2169 3072 
Q 1681 3072 1420 2755 
Q 1159 2438 1159 1844 
L 1159 0 
L 581 0 
L 581 3500 
L 1159 3500 
L 1159 2956 
Q 1341 3275 1631 3429 
Q 1922 3584 2338 3584 
Q 2397 3584 2469 3576 
Q 2541 3569 2628 3553 
L 2631 2963 
z
" transform="scale(0.015625)"/>
      <path id="DejaVuSans-66" d="M 2375 4863 
L 2375 4384 
L 1825 4384 
Q 1516 4384 1395 4259 
Q 1275 4134 1275 3809 
L 1275 3500 
L 2222 3500 
L 2222 3053 
L 1275 3053 
L 1275 0 
L 697 0 
L 697 3053 
L 147 3053 
L 147 3500 
L 697 3500 
L 697 3744 
Q 697 4328 969 4595 
Q 1241 4863 1831 4863 
L 2375 4863 
z
" transform="scale(0.015625)"/>
      <path id="DejaVuSans-47" d="M 3809 666 
L 3809 1919 
L 2778 1919 
L 2778 2438 
L 4434 2438 
L 4434 434 
Q 4069 175 3628 42 
Q 3188 -91 2688 -91 
Q 1594 -91 976 548 
Q 359 1188 359 2328 
Q 359 3472 976 4111 
Q 1594 4750 2688 4750 
Q 3144 4750 3555 4637 
Q 3966 4525 4313 4306 
L 4313 3634 
Q 3963 3931 3569 4081 
Q 3175 4231 2741 4231 
Q 1884 4231 1454 3753 
Q 1025 3275 1025 2328 
Q 1025 1384 1454 906 
Q 1884 428 2741 428 
Q 3075 428 3337 486 
Q 3600 544 3809 666 
z
" transform="scale(0.015625)"/>
      <path id="DejaVuSans-70" d="M 1159 525 
L 1159 -1331 
L 581 -1331 
L 581 3500 
L 1159 3500 
L 1159 2969 
Q 1341 3281 1617 3432 
Q 1894 3584 2278 3584 
Q 2916 3584 3314 3078 
Q 3713 2572 3713 1747 
Q 3713 922 3314 415 
Q 2916 -91 2278 -91 
Q 1894 -91 1617 61 
Q 1341 213 1159 525 
z
M 3116 1747 
Q 3116 2381 2855 2742 
Q 2594 3103 2138 3103 
Q 1681 3103 1420 2742 
Q 1159 2381 1159 1747 
Q 1159 1113 1420 752 
Q 1681 391 2138 391 
Q 2594 391 2855 752 
Q 3116 1113 3116 1747 
z
" transform="scale(0.015625)"/>
      <path id="DejaVuSans-4d" d="M 628 4666 
L 1569 4666 
L 2759 1491 
L 3956 4666 
L 4897 4666 
L 4897 0 
L 4281 0 
L 4281 4097 
L 3078 897 
L 2444 897 
L 1241 4097 
L 1241 0 
L 628 0 
L 628 4666 
z
" transform="scale(0.015625)"/>
      <path id="DejaVuSans-73" d="M 2834 3397 
L 2834 2853 
Q 2591 2978 2328 3040 
Q 2066 3103 1784 3103 
Q 1356 3103 1142 2972 
Q 928 2841 928 2578 
Q 928 2378 1081 2264 
Q 1234 2150 1697 2047 
L 1894 2003 
Q 2506 1872 2764 1633 
Q 3022 1394 3022 966 
Q 3022 478 2636 193 
Q 2250 -91 1575 -91 
Q 1294 -91 989 -36 
Q 684 19 347 128 
L 347 722 
Q 666 556 975 473 
Q 1284 391 1588 391 
Q 1994 391 2212 530 
Q 2431 669 2431 922 
Q 2431 1156 2273 1281 
Q 2116 1406 1581 1522 
L 1381 1569 
Q 847 1681 609 1914 
Q 372 2147 372 2553 
Q 372 3047 722 3315 
Q 1072 3584 1716 3584 
Q 2034 3584 2315 3537 
Q 2597 3491 2834 3397 
z
" transform="scale(0.015625)"/>
     </defs>
     <use xlink:href="#DejaVuSans-50"/>
     <use xlink:href="#DejaVuSans-65" x="56.677734"/>
     <use xlink:href="#DejaVuSans-6c" x="118.201172"/>
     <use xlink:href="#DejaVuSans-6c" x="145.984375"/>
     <use xlink:href="#DejaVuSans-65" x="173.767578"/>
     <use xlink:href="#DejaVuSans-74" x="235.291016"/>
     <use xlink:href="#DejaVuSans-20" x="274.5"/>
     <use xlink:href="#DejaVuSans-43" x="306.287109"/>
     <use xlink:href="#DejaVuSans-6f" x="376.111328"/>
     <use xlink:href="#DejaVuSans-75" x="437.292969"/>
     <use xlink:href="#DejaVuSans-6e" x="500.671875"/>
     <use xlink:href="#DejaVuSans-74" x="564.050781"/>
     <use xlink:href="#DejaVuSans-20" x="603.259766"/>
     <use xlink:href="#DejaVuSans-61" x="635.046875"/>
     <use xlink:href="#DejaVuSans-6e" x="696.326172"/>
     <use xlink:href="#DejaVuSans-64" x="759.705078"/>
     <use xlink:href="#DejaVuSans-20" x="823.181641"/>
     <use xlink:href="#DejaVuSans-43" x="854.96875"/>
     <use xlink:href="#DejaVuSans-75" x="924.792969"/>
     <use xlink:href="#DejaVuSans-6d" x="988.171875"/>
     <use xlink:href="#DejaVuSans-75" x="1085.583984"/>
     <use xlink:href="#DejaVuSans-6c" x="1148.962891"/>
     <use xlink:href="#DejaVuSans-61" x="1176.746094"/>
     <use xlink:href="#DejaVuSans-74" x="1238.025391"/>
     <use xlink:href="#DejaVuSans-69" x="1277.234375"/>
     <use xlink:href="#DejaVuSans-76" x="1305.017578"/>
     <use xlink:href="#DejaVuSans-65" x="1364.197266"/>
     <use xlink:href="#DejaVuSans-20" x="1425.720703"/>
     <use xlink:href="#DejaVuSans-53" x="1457.507812"/>
     <use xlink:href="#DejaVuSans-75" x="1520.984375"/>
     <use xlink:href="#DejaVuSans-6d" x="1584.363281"/>
     <use xlink:href="#DejaVuSans-20" x="1681.775391"/>
     <use xlink:href="#DejaVuSans-4f" x="1713.5625"/>
     <use xlink:href="#DejaVuSans-76" x="1792.273438"/>
     <use xlink:href="#DejaVuSans-65" x="1851.453125"/>
     <use xlink:href="#DejaVuSans-72" x="1912.976562"/>
     <use xlink:href="#DejaVuSans-20" x="1954.089844"/>
     <use xlink:href="#DejaVuSans-54" x="1985.876953"/>
     <use xlink:href="#DejaVuSans-69" x="2043.835938"/>
     <use xlink:href="#DejaVuSans-6d" x="2071.619141"/>
     <use xlink:href="#DejaVuSans-65" x="2169.03125"/>
     <use xlink:href="#DejaVuSans-20" x="2230.554688"/>
     <use xlink:href="#DejaVuSans-6f" x="2262.341797"/>
     <use xlink:href="#DejaVuSans-66" x="2323.523438"/>
     <use xlink:href="#DejaVuSans-20" x="2358.728516"/>
     <use xlink:href="#DejaVuSans-47" x="2390.515625"/>
     <use xlink:href="#DejaVuSans-72" x="2468.005859"/>
     <use xlink:href="#DejaVuSans-6f" x="2506.869141"/>
     <use xlink:href="#DejaVuSans-75" x="2568.050781"/>
     <use xlink:href="#DejaVuSans-70" x="2631.429688"/>
     <use xlink:href="#DejaVuSans-20" x="2694.90625"/>
     <use xlink:href="#DejaVuSans-36" x="2726.693359"/>
     <use xlink:href="#DejaVuSans-20" x="2790.316406"/>
     <use xlink:href="#DejaVuSans-4d" x="2822.103516"/>
     <use xlink:href="#DejaVuSans-6f" x="2908.382812"/>
     <use xlink:href="#DejaVuSans-75" x="2969.564453"/>
     <use xlink:href="#DejaVuSans-73" x="3032.943359"/>
     <use xlink:href="#DejaVuSans-65" x="3085.042969"/>
     <use xlink:href="#DejaVuSans-20" x="3146.566406"/>
     <use xlink:href="#DejaVuSans-31" x="3178.353516"/>
    </g>
   </g>
   <g id="legend_1">
    <g id="patch_171">
     <path d="M 1086.550625 64.233437 
L 1158.235 64.233437 
Q 1160.235 64.233437 1160.235 62.233437 
L 1160.235 33.877187 
Q 1160.235 31.877187 1158.235 31.877187 
L 1086.550625 31.877187 
Q 1084.550625 31.877187 1084.550625 33.877187 
L 1084.550625 62.233437 
Q 1084.550625 64.233437 1086.550625 64.233437 
z
" style="fill: #ffffff; opacity: 0.8; stroke: #cccccc; stroke-linejoin: miter"/>
    </g>
    <g id="patch_172">
     <path d="M 1088.550625 43.475625 
L 1108.550625 43.475625 
L 1108.550625 36.475625 
L 1088.550625 36.475625 
z
" style="fill: #add8e6; opacity: 0.9; stroke: #add8e6; stroke-linejoin: miter"/>
    </g>
    <g id="text_14">
     <!-- Meal -->
     <g transform="translate(1116.550625 43.475625) scale(0.1 -0.1)">
      <use xlink:href="#DejaVuSans-4d"/>
      <use xlink:href="#DejaVuSans-65" x="86.279297"/>
      <use xlink:href="#DejaVuSans-61" x="147.802734"/>
      <use xlink:href="#DejaVuSans-6c" x="209.082031"/>
     </g>
    </g>
    <g id="patch_173">
     <path d="M 1088.550625 58.15375 
L 1108.550625 58.15375 
L 1108.550625 51.15375 
L 1088.550625 51.15375 
z
" style="fill: #808080; opacity: 0.5; stroke: #808080; stroke-linejoin: miter"/>
    </g>
    <g id="text_15">
     <!-- Inactive -->
     <g transform="translate(1116.550625 58.15375) scale(0.1 -0.1)">
      <defs>
       <path id="DejaVuSans-49" d="M 628 4666 
L 1259 4666 
L 1259 0 
L 628 0 
L 628 4666 
z
" transform="scale(0.015625)"/>
       <path id="DejaVuSans-63" d="M 3122 3366 
L 3122 2828 
Q 2878 2963 2633 3030 
Q 2388 3097 2138 3097 
Q 1578 3097 1268 2742 
Q 959 2388 959 1747 
Q 959 1106 1268 751 
Q 1578 397 2138 397 
Q 2388 397 2633 464 
Q 2878 531 3122 666 
L 3122 134 
Q 2881 22 2623 -34 
Q 2366 -91 2075 -91 
Q 1284 -91 818 406 
Q 353 903 353 1747 
Q 353 2603 823 3093 
Q 1294 3584 2113 3584 
Q 2378 3584 2631 3529 
Q 2884 3475 3122 3366 
z
" transform="scale(0.015625)"/>
      </defs>
      <use xlink:href="#DejaVuSans-49"/>
      <use xlink:href="#DejaVuSans-6e" x="29.492188"/>
      <use xlink:href="#DejaVuSans-61" x="92.871094"/>
      <use xlink:href="#DejaVuSans-63" x="154.150391"/>
      <use xlink:href="#DejaVuSans-74" x="209.130859"/>
      <use xlink:href="#DejaVuSans-69" x="248.339844"/>
      <use xlink:href="#DejaVuSans-76" x="276.123047"/>
      <use xlink:href="#DejaVuSans-65" x="335.302734"/>
     </g>
    </g>
   </g>
  </g>
 </g>
 <defs>
  <clipPath id="p0953b1c207">
   <rect x="49.235" y="26.877187" width="1116" height="332.64"/>
  </clipPath>
 </defs>
</svg>
