<?xml version="1.0" encoding="utf-8" standalone="no"?>
<!DOCTYPE svg PUBLIC "-//W3C//DTD SVG 1.1//EN"
  "http://www.w3.org/Graphics/SVG/1.1/DTD/svg11.dtd">
<svg xmlns:xlink="http://www.w3.org/1999/xlink" width="1172.435pt" height="399.009062pt" viewBox="0 0 1172.435 399.009062" xmlns="http://www.w3.org/2000/svg" version="1.1">
 <metadata>
  <rdf:RDF xmlns:dc="http://purl.org/dc/elements/1.1/" xmlns:cc="http://creativecommons.org/ns#" xmlns:rdf="http://www.w3.org/1999/02/22-rdf-syntax-ns#">
   <cc:Work>
    <dc:type rdf:resource="http://purl.org/dc/dcmitype/StillImage"/>
    <dc:date>2025-04-09T09:55:23.230095</dc:date>
    <dc:format>image/svg+xml</dc:format>
    <dc:creator>
     <cc:Agent>
      <dc:title>Matplotlib v3.8.3, https://matplotlib.org/</dc:title>
     </cc:Agent>
    </dc:creator>
   </cc:Work>
  </rdf:RDF>
 </metadata>
 <defs>
  <style type="text/css">*{stroke-linejoin: round; stroke-linecap: butt}</style>
 </defs>
 <g id="figure_1">
  <g id="patch_1">
   <path d="M 0 399.009062 
L 1172.435 399.009062 
L 1172.435 0 
L 0 0 
z
" style="fill: #ffffff"/>
  </g>
  <g id="axes_1">
   <g id="patch_2">
    <path d="M 49.235 359.517187 
L 1165.235 359.517187 
L 1165.235 26.877187 
L 49.235 26.877187 
z
" style="fill: #ffffff"/>
   </g>
   <g id="patch_3">
    <path d="M 103.825785 359.517187 
L 103.825785 26.877187 
L 102.080487 26.877187 
L 102.080487 359.517187 
z
" clip-path="url(#p908da796e0)" style="fill: #add8e6; stroke: #add8e6; stroke-linejoin: miter"/>
   </g>
   <g id="patch_4">
    <path d="M 117.103713 359.517187 
L 117.103713 26.877187 
L 117.162777 26.877187 
L 117.162777 359.517187 
z
" clip-path="url(#p908da796e0)" style="fill: #add8e6; stroke: #add8e6; stroke-linejoin: miter"/>
   </g>
   <g id="patch_5">
    <path d="M 117.305227 359.517187 
L 117.305227 26.877187 
L 117.440149 26.877187 
L 117.440149 359.517187 
z
" clip-path="url(#p908da796e0)" style="fill: #add8e6; stroke: #add8e6; stroke-linejoin: miter"/>
   </g>
   <g id="patch_6">
    <path d="M 119.553152 359.517187 
L 119.553152 26.877187 
L 119.589054 26.877187 
L 119.589054 359.517187 
z
" clip-path="url(#p908da796e0)" style="fill: #add8e6; stroke: #add8e6; stroke-linejoin: miter"/>
   </g>
   <g id="patch_7">
    <path d="M 120.63658 359.517187 
L 120.63658 26.877187 
L 120.673061 26.877187 
L 120.673061 359.517187 
z
" clip-path="url(#p908da796e0)" style="fill: #add8e6; stroke: #add8e6; stroke-linejoin: miter"/>
   </g>
   <g id="patch_8">
    <path d="M 120.852571 359.517187 
L 120.852571 26.877187 
L 120.670745 26.877187 
L 120.670745 359.517187 
z
" clip-path="url(#p908da796e0)" style="fill: #add8e6; stroke: #add8e6; stroke-linejoin: miter"/>
   </g>
   <g id="patch_9">
    <path d="M 127.456791 359.517187 
L 127.456791 26.877187 
L 124.734613 26.877187 
L 124.734613 359.517187 
z
" clip-path="url(#p908da796e0)" style="fill: #add8e6; stroke: #add8e6; stroke-linejoin: miter"/>
   </g>
   <g id="patch_10">
    <path d="M 134.660921 359.517187 
L 134.660921 26.877187 
L 134.724618 26.877187 
L 134.724618 359.517187 
z
" clip-path="url(#p908da796e0)" style="fill: #add8e6; stroke: #add8e6; stroke-linejoin: miter"/>
   </g>
   <g id="patch_11">
    <path d="M 134.957401 359.517187 
L 134.957401 26.877187 
L 134.960876 26.877187 
L 134.960876 359.517187 
z
" clip-path="url(#p908da796e0)" style="fill: #add8e6; stroke: #add8e6; stroke-linejoin: miter"/>
   </g>
   <g id="patch_12">
    <path d="M 135.132278 359.517187 
L 135.132278 26.877187 
L 135.12533 26.877187 
L 135.12533 359.517187 
z
" clip-path="url(#p908da796e0)" style="fill: #add8e6; stroke: #add8e6; stroke-linejoin: miter"/>
   </g>
   <g id="patch_13">
    <path d="M 147.534083 359.517187 
L 147.534083 26.877187 
L 147.54219 26.877187 
L 147.54219 359.517187 
z
" clip-path="url(#p908da796e0)" style="fill: #add8e6; stroke: #add8e6; stroke-linejoin: miter"/>
   </g>
   <g id="patch_14">
    <path d="M 153.488594 359.517187 
L 153.488594 26.877187 
L 148.496487 26.877187 
L 148.496487 359.517187 
z
" clip-path="url(#p908da796e0)" style="fill: #add8e6; stroke: #add8e6; stroke-linejoin: miter"/>
   </g>
   <g id="patch_15">
    <path d="M 155.656608 359.517187 
L 155.656608 26.877187 
L 151.513408 26.877187 
L 151.513408 359.517187 
z
" clip-path="url(#p908da796e0)" style="fill: #add8e6; stroke: #add8e6; stroke-linejoin: miter"/>
   </g>
   <g id="patch_16">
    <path d="M 162.877531 359.517187 
L 162.877531 26.877187 
L 162.967286 26.877187 
L 162.967286 359.517187 
z
" clip-path="url(#p908da796e0)" style="fill: #add8e6; stroke: #add8e6; stroke-linejoin: miter"/>
   </g>
   <g id="patch_17">
    <path d="M 163.465281 359.517187 
L 163.465281 26.877187 
L 163.535347 26.877187 
L 163.535347 359.517187 
z
" clip-path="url(#p908da796e0)" style="fill: #add8e6; stroke: #add8e6; stroke-linejoin: miter"/>
   </g>
   <g id="patch_18">
    <path d="M 163.975436 359.517187 
L 163.975436 26.877187 
L 163.960959 26.877187 
L 163.960959 359.517187 
z
" clip-path="url(#p908da796e0)" style="fill: #add8e6; stroke: #add8e6; stroke-linejoin: miter"/>
   </g>
   <g id="patch_19">
    <path d="M 176.466416 359.517187 
L 176.466416 26.877187 
L 170.951415 26.877187 
L 170.951415 359.517187 
z
" clip-path="url(#p908da796e0)" style="fill: #add8e6; stroke: #add8e6; stroke-linejoin: miter"/>
   </g>
   <g id="patch_20">
    <path d="M 178.736345 359.517187 
L 178.736345 26.877187 
L 169.380994 26.877187 
L 169.380994 359.517187 
z
" clip-path="url(#p908da796e0)" style="fill: #add8e6; stroke: #add8e6; stroke-linejoin: miter"/>
   </g>
   <g id="patch_21">
    <path d="M 180.369305 359.517187 
L 180.369305 26.877187 
L 171.02206 26.877187 
L 171.02206 359.517187 
z
" clip-path="url(#p908da796e0)" style="fill: #add8e6; stroke: #add8e6; stroke-linejoin: miter"/>
   </g>
   <g id="patch_22">
    <path d="M 182.106495 359.517187 
L 182.106495 26.877187 
L 176.178042 26.877187 
L 176.178042 359.517187 
z
" clip-path="url(#p908da796e0)" style="fill: #add8e6; stroke: #add8e6; stroke-linejoin: miter"/>
   </g>
   <g id="patch_23">
    <path d="M 187.846174 359.517187 
L 187.846174 26.877187 
L 187.94751 26.877187 
L 187.94751 359.517187 
z
" clip-path="url(#p908da796e0)" style="fill: #add8e6; stroke: #add8e6; stroke-linejoin: miter"/>
   </g>
   <g id="patch_24">
    <path d="M 209.018475 359.517187 
L 209.018475 26.877187 
L 209.162083 26.877187 
L 209.162083 359.517187 
z
" clip-path="url(#p908da796e0)" style="fill: #add8e6; stroke: #add8e6; stroke-linejoin: miter"/>
   </g>
   <g id="patch_25">
    <path d="M 222.605623 359.517187 
L 222.605623 26.877187 
L 222.599833 26.877187 
L 222.599833 359.517187 
z
" clip-path="url(#p908da796e0)" style="fill: #add8e6; stroke: #add8e6; stroke-linejoin: miter"/>
   </g>
   <g id="patch_26">
    <path d="M 241.421136 359.517187 
L 241.421136 26.877187 
L 241.527684 26.877187 
L 241.527684 359.517187 
z
" clip-path="url(#p908da796e0)" style="fill: #add8e6; stroke: #add8e6; stroke-linejoin: miter"/>
   </g>
   <g id="patch_27">
    <path d="M 241.853697 359.517187 
L 241.853697 26.877187 
L 241.727461 26.877187 
L 241.727461 359.517187 
z
" clip-path="url(#p908da796e0)" style="fill: #add8e6; stroke: #add8e6; stroke-linejoin: miter"/>
   </g>
   <g id="patch_28">
    <path d="M 272.187943 359.517187 
L 272.187943 26.877187 
L 272.273065 26.877187 
L 272.273065 359.517187 
z
" clip-path="url(#p908da796e0)" style="fill: #add8e6; stroke: #add8e6; stroke-linejoin: miter"/>
   </g>
   <g id="patch_29">
    <path d="M 276.014395 359.517187 
L 276.014395 26.877187 
L 274.512883 26.877187 
L 274.512883 359.517187 
z
" clip-path="url(#p908da796e0)" style="fill: #add8e6; stroke: #add8e6; stroke-linejoin: miter"/>
   </g>
   <g id="patch_30">
    <path d="M 291.222921 359.517187 
L 291.222921 26.877187 
L 291.352052 26.877187 
L 291.352052 359.517187 
z
" clip-path="url(#p908da796e0)" style="fill: #add8e6; stroke: #add8e6; stroke-linejoin: miter"/>
   </g>
   <g id="patch_31">
    <path d="M 291.451651 359.517187 
L 291.451651 26.877187 
L 291.566305 26.877187 
L 291.566305 359.517187 
z
" clip-path="url(#p908da796e0)" style="fill: #add8e6; stroke: #add8e6; stroke-linejoin: miter"/>
   </g>
   <g id="patch_32">
    <path d="M 306.232828 359.517187 
L 306.232828 26.877187 
L 306.26873 26.877187 
L 306.26873 359.517187 
z
" clip-path="url(#p908da796e0)" style="fill: #add8e6; stroke: #add8e6; stroke-linejoin: miter"/>
   </g>
   <g id="patch_33">
    <path d="M 306.470823 359.517187 
L 306.470823 26.877187 
L 306.422182 26.877187 
L 306.422182 359.517187 
z
" clip-path="url(#p908da796e0)" style="fill: #add8e6; stroke: #add8e6; stroke-linejoin: miter"/>
   </g>
   <g id="patch_34">
    <path d="M 306.97982 359.517187 
L 306.97982 26.877187 
L 306.883695 26.877187 
L 306.883695 359.517187 
z
" clip-path="url(#p908da796e0)" style="fill: #add8e6; stroke: #add8e6; stroke-linejoin: miter"/>
   </g>
   <g id="patch_35">
    <path d="M 327.873592 359.517187 
L 327.873592 26.877187 
L 327.98593 26.877187 
L 327.98593 359.517187 
z
" clip-path="url(#p908da796e0)" style="fill: #add8e6; stroke: #add8e6; stroke-linejoin: miter"/>
   </g>
   <g id="patch_36">
    <path d="M 328.071632 359.517187 
L 328.071632 26.877187 
L 328.179917 26.877187 
L 328.179917 359.517187 
z
" clip-path="url(#p908da796e0)" style="fill: #add8e6; stroke: #add8e6; stroke-linejoin: miter"/>
   </g>
   <g id="patch_37">
    <path d="M 359.664762 359.517187 
L 359.664762 26.877187 
L 350.34705 26.877187 
L 350.34705 359.517187 
z
" clip-path="url(#p908da796e0)" style="fill: #add8e6; stroke: #add8e6; stroke-linejoin: miter"/>
   </g>
   <g id="patch_38">
    <path d="M 361.315093 359.517187 
L 361.315093 26.877187 
L 352.377247 26.877187 
L 352.377247 359.517187 
z
" clip-path="url(#p908da796e0)" style="fill: #add8e6; stroke: #add8e6; stroke-linejoin: miter"/>
   </g>
   <g id="patch_39">
    <path d="M 362.589033 359.517187 
L 362.589033 26.877187 
L 353.921609 26.877187 
L 353.921609 359.517187 
z
" clip-path="url(#p908da796e0)" style="fill: #add8e6; stroke: #add8e6; stroke-linejoin: miter"/>
   </g>
   <g id="patch_40">
    <path d="M 383.742225 359.517187 
L 383.742225 26.877187 
L 377.188384 26.877187 
L 377.188384 359.517187 
z
" clip-path="url(#p908da796e0)" style="fill: #add8e6; stroke: #add8e6; stroke-linejoin: miter"/>
   </g>
   <g id="patch_41">
    <path d="M 388.818876 359.517187 
L 388.818876 26.877187 
L 388.824087 26.877187 
L 388.824087 359.517187 
z
" clip-path="url(#p908da796e0)" style="fill: #add8e6; stroke: #add8e6; stroke-linejoin: miter"/>
   </g>
   <g id="patch_42">
    <path d="M 391.736777 359.517187 
L 391.736777 26.877187 
L 391.868225 26.877187 
L 391.868225 359.517187 
z
" clip-path="url(#p908da796e0)" style="fill: #add8e6; stroke: #add8e6; stroke-linejoin: miter"/>
   </g>
   <g id="patch_43">
    <path d="M 391.962612 359.517187 
L 391.962612 26.877187 
L 392.098692 26.877187 
L 392.098692 359.517187 
z
" clip-path="url(#p908da796e0)" style="fill: #add8e6; stroke: #add8e6; stroke-linejoin: miter"/>
   </g>
   <g id="patch_44">
    <path d="M 394.560291 359.517187 
L 394.560291 26.877187 
L 394.496015 26.877187 
L 394.496015 359.517187 
z
" clip-path="url(#p908da796e0)" style="fill: #add8e6; stroke: #add8e6; stroke-linejoin: miter"/>
   </g>
   <g id="patch_45">
    <path d="M 401.000057 359.517187 
L 401.000057 26.877187 
L 401.021483 26.877187 
L 401.021483 359.517187 
z
" clip-path="url(#p908da796e0)" style="fill: #add8e6; stroke: #add8e6; stroke-linejoin: miter"/>
   </g>
   <g id="patch_46">
    <path d="M 401.953196 359.517187 
L 401.953196 26.877187 
L 402.093329 26.877187 
L 402.093329 359.517187 
z
" clip-path="url(#p908da796e0)" style="fill: #add8e6; stroke: #add8e6; stroke-linejoin: miter"/>
   </g>
   <g id="patch_47">
    <path d="M 410.277814 359.517187 
L 410.277814 26.877187 
L 410.445743 26.877187 
L 410.445743 359.517187 
z
" clip-path="url(#p908da796e0)" style="fill: #add8e6; stroke: #add8e6; stroke-linejoin: miter"/>
   </g>
   <g id="patch_48">
    <path d="M 410.750909 359.517187 
L 410.750909 26.877187 
L 410.921733 26.877187 
L 410.921733 359.517187 
z
" clip-path="url(#p908da796e0)" style="fill: #add8e6; stroke: #add8e6; stroke-linejoin: miter"/>
   </g>
   <g id="patch_49">
    <path d="M 410.939684 359.517187 
L 410.939684 26.877187 
L 411.054338 26.877187 
L 411.054338 359.517187 
z
" clip-path="url(#p908da796e0)" style="fill: #add8e6; stroke: #add8e6; stroke-linejoin: miter"/>
   </g>
   <g id="patch_50">
    <path d="M 425.614313 359.517187 
L 425.614313 26.877187 
L 425.404113 26.877187 
L 425.404113 359.517187 
z
" clip-path="url(#p908da796e0)" style="fill: #add8e6; stroke: #add8e6; stroke-linejoin: miter"/>
   </g>
   <g id="patch_51">
    <path d="M 430.409539 359.517187 
L 430.409539 26.877187 
L 430.499873 26.877187 
L 430.499873 359.517187 
z
" clip-path="url(#p908da796e0)" style="fill: #add8e6; stroke: #add8e6; stroke-linejoin: miter"/>
   </g>
   <g id="patch_52">
    <path d="M 430.94054 359.517187 
L 430.94054 26.877187 
L 431.066197 26.877187 
L 431.066197 359.517187 
z
" clip-path="url(#p908da796e0)" style="fill: #add8e6; stroke: #add8e6; stroke-linejoin: miter"/>
   </g>
   <g id="patch_53">
    <path d="M 431.135684 359.517187 
L 431.135684 26.877187 
L 431.151319 26.877187 
L 431.151319 359.517187 
z
" clip-path="url(#p908da796e0)" style="fill: #add8e6; stroke: #add8e6; stroke-linejoin: miter"/>
   </g>
   <g id="patch_54">
    <path d="M 431.320406 359.517187 
L 431.320406 26.877187 
L 431.468067 26.877187 
L 431.468067 359.517187 
z
" clip-path="url(#p908da796e0)" style="fill: #add8e6; stroke: #add8e6; stroke-linejoin: miter"/>
   </g>
   <g id="patch_55">
    <path d="M 431.563033 359.517187 
L 431.563033 26.877187 
L 431.701429 26.877187 
L 431.701429 359.517187 
z
" clip-path="url(#p908da796e0)" style="fill: #add8e6; stroke: #add8e6; stroke-linejoin: miter"/>
   </g>
   <g id="patch_56">
    <path d="M 461.90886 359.517187 
L 461.90886 26.877187 
L 462.059996 26.877187 
L 462.059996 359.517187 
z
" clip-path="url(#p908da796e0)" style="fill: #add8e6; stroke: #add8e6; stroke-linejoin: miter"/>
   </g>
   <g id="patch_57">
    <path d="M 462.182757 359.517187 
L 462.182757 26.877187 
L 462.294517 26.877187 
L 462.294517 359.517187 
z
" clip-path="url(#p908da796e0)" style="fill: #add8e6; stroke: #add8e6; stroke-linejoin: miter"/>
   </g>
   <g id="patch_58">
    <path d="M 500.076099 359.517187 
L 500.076099 26.877187 
L 500.129952 26.877187 
L 500.129952 359.517187 
z
" clip-path="url(#p908da796e0)" style="fill: #add8e6; stroke: #add8e6; stroke-linejoin: miter"/>
   </g>
   <g id="patch_59">
    <path d="M 516.841727 359.517187 
L 516.841727 26.877187 
L 516.98823 26.877187 
L 516.98823 359.517187 
z
" clip-path="url(#p908da796e0)" style="fill: #add8e6; stroke: #add8e6; stroke-linejoin: miter"/>
   </g>
   <g id="patch_60">
    <path d="M 527.88447 359.517187 
L 527.88447 26.877187 
L 527.89026 26.877187 
L 527.89026 359.517187 
z
" clip-path="url(#p908da796e0)" style="fill: #add8e6; stroke: #add8e6; stroke-linejoin: miter"/>
   </g>
   <g id="patch_61">
    <path d="M 556.057071 359.517187 
L 556.057071 26.877187 
L 556.167672 26.877187 
L 556.167672 359.517187 
z
" clip-path="url(#p908da796e0)" style="fill: #add8e6; stroke: #add8e6; stroke-linejoin: miter"/>
   </g>
   <g id="patch_62">
    <path d="M 556.341391 359.517187 
L 556.341391 26.877187 
L 556.50932 26.877187 
L 556.50932 359.517187 
z
" clip-path="url(#p908da796e0)" style="fill: #add8e6; stroke: #add8e6; stroke-linejoin: miter"/>
   </g>
   <g id="patch_63">
    <path d="M 577.737791 359.517187 
L 577.737791 26.877187 
L 577.741844 26.877187 
L 577.741844 359.517187 
z
" clip-path="url(#p908da796e0)" style="fill: #add8e6; stroke: #add8e6; stroke-linejoin: miter"/>
   </g>
   <g id="patch_64">
    <path d="M 578.524738 359.517187 
L 578.524738 26.877187 
L 578.462778 26.877187 
L 578.462778 359.517187 
z
" clip-path="url(#p908da796e0)" style="fill: #add8e6; stroke: #add8e6; stroke-linejoin: miter"/>
   </g>
   <g id="patch_65">
    <path d="M 582.874664 359.517187 
L 582.874664 26.877187 
L 583.023483 26.877187 
L 583.023483 359.517187 
z
" clip-path="url(#p908da796e0)" style="fill: #add8e6; stroke: #add8e6; stroke-linejoin: miter"/>
   </g>
   <g id="patch_66">
    <path d="M 598.140517 359.517187 
L 598.140517 26.877187 
L 598.215216 26.877187 
L 598.215216 359.517187 
z
" clip-path="url(#p908da796e0)" style="fill: #add8e6; stroke: #add8e6; stroke-linejoin: miter"/>
   </g>
   <g id="patch_67">
    <path d="M 606.482507 359.517187 
L 606.482507 26.877187 
L 606.573999 26.877187 
L 606.573999 359.517187 
z
" clip-path="url(#p908da796e0)" style="fill: #add8e6; stroke: #add8e6; stroke-linejoin: miter"/>
   </g>
   <g id="patch_68">
    <path d="M 606.908119 359.517187 
L 606.908119 26.877187 
L 607.058675 26.877187 
L 607.058675 359.517187 
z
" clip-path="url(#p908da796e0)" style="fill: #add8e6; stroke: #add8e6; stroke-linejoin: miter"/>
   </g>
   <g id="patch_69">
    <path d="M 607.105579 359.517187 
L 607.105579 26.877187 
L 607.217918 26.877187 
L 607.217918 359.517187 
z
" clip-path="url(#p908da796e0)" style="fill: #add8e6; stroke: #add8e6; stroke-linejoin: miter"/>
   </g>
   <g id="patch_70">
    <path d="M 607.838674 359.517187 
L 607.838674 26.877187 
L 607.301882 26.877187 
L 607.301882 359.517187 
z
" clip-path="url(#p908da796e0)" style="fill: #add8e6; stroke: #add8e6; stroke-linejoin: miter"/>
   </g>
   <g id="patch_71">
    <path d="M 629.482333 359.517187 
L 629.482333 26.877187 
L 621.285109 26.877187 
L 621.285109 359.517187 
z
" clip-path="url(#p908da796e0)" style="fill: #add8e6; stroke: #add8e6; stroke-linejoin: miter"/>
   </g>
   <g id="patch_72">
    <path d="M 635.05003 359.517187 
L 635.05003 26.877187 
L 635.217379 26.877187 
L 635.217379 359.517187 
z
" clip-path="url(#p908da796e0)" style="fill: #add8e6; stroke: #add8e6; stroke-linejoin: miter"/>
   </g>
   <g id="patch_73">
    <path d="M 635.757066 359.517187 
L 635.757066 26.877187 
L 635.597245 26.877187 
L 635.597245 359.517187 
z
" clip-path="url(#p908da796e0)" style="fill: #add8e6; stroke: #add8e6; stroke-linejoin: miter"/>
   </g>
   <g id="patch_74">
    <path d="M 637.995726 359.517187 
L 637.995726 26.877187 
L 638.078532 26.877187 
L 638.078532 359.517187 
z
" clip-path="url(#p908da796e0)" style="fill: #add8e6; stroke: #add8e6; stroke-linejoin: miter"/>
   </g>
   <g id="patch_75">
    <path d="M 640.820398 359.517187 
L 640.820398 26.877187 
L 640.792024 26.877187 
L 640.792024 359.517187 
z
" clip-path="url(#p908da796e0)" style="fill: #add8e6; stroke: #add8e6; stroke-linejoin: miter"/>
   </g>
   <g id="patch_76">
    <path d="M 647.159986 359.517187 
L 647.159986 26.877187 
L 643.588901 26.877187 
L 643.588901 359.517187 
z
" clip-path="url(#p908da796e0)" style="fill: #add8e6; stroke: #add8e6; stroke-linejoin: miter"/>
   </g>
   <g id="patch_77">
    <path d="M 647.576912 359.517187 
L 647.576912 26.877187 
L 647.550275 26.877187 
L 647.550275 359.517187 
z
" clip-path="url(#p908da796e0)" style="fill: #add8e6; stroke: #add8e6; stroke-linejoin: miter"/>
   </g>
   <g id="patch_78">
    <path d="M 659.081168 359.517187 
L 659.081168 26.877187 
L 659.201034 26.877187 
L 659.201034 359.517187 
z
" clip-path="url(#p908da796e0)" style="fill: #add8e6; stroke: #add8e6; stroke-linejoin: miter"/>
   </g>
   <g id="patch_79">
    <path d="M 659.286736 359.517187 
L 659.286736 26.877187 
L 659.403128 26.877187 
L 659.403128 359.517187 
z
" clip-path="url(#p908da796e0)" style="fill: #add8e6; stroke: #add8e6; stroke-linejoin: miter"/>
   </g>
   <g id="patch_80">
    <path d="M 663.751895 359.517187 
L 663.751895 26.877187 
L 660.173282 26.877187 
L 660.173282 359.517187 
z
" clip-path="url(#p908da796e0)" style="fill: #add8e6; stroke: #add8e6; stroke-linejoin: miter"/>
   </g>
   <g id="patch_81">
    <path d="M 671.29941 359.517187 
L 671.29941 26.877187 
L 671.459231 26.877187 
L 671.459231 359.517187 
z
" clip-path="url(#p908da796e0)" style="fill: #add8e6; stroke: #add8e6; stroke-linejoin: miter"/>
   </g>
   <g id="patch_82">
    <path d="M 674.727466 359.517187 
L 674.727466 26.877187 
L 674.759315 26.877187 
L 674.759315 359.517187 
z
" clip-path="url(#p908da796e0)" style="fill: #add8e6; stroke: #add8e6; stroke-linejoin: miter"/>
   </g>
   <g id="patch_83">
    <path d="M 678.241803 359.517187 
L 678.241803 26.877187 
L 677.888574 26.877187 
L 677.888574 359.517187 
z
" clip-path="url(#p908da796e0)" style="fill: #add8e6; stroke: #add8e6; stroke-linejoin: miter"/>
   </g>
   <g id="patch_84">
    <path d="M 694.028235 359.517187 
L 694.028235 26.877187 
L 694.09888 26.877187 
L 694.09888 359.517187 
z
" clip-path="url(#p908da796e0)" style="fill: #add8e6; stroke: #add8e6; stroke-linejoin: miter"/>
   </g>
   <g id="patch_85">
    <path d="M 694.692421 359.517187 
L 694.692421 26.877187 
L 694.766541 26.877187 
L 694.766541 359.517187 
z
" clip-path="url(#p908da796e0)" style="fill: #add8e6; stroke: #add8e6; stroke-linejoin: miter"/>
   </g>
   <g id="patch_86">
    <path d="M 694.944892 359.517187 
L 694.944892 26.877187 
L 695.044491 26.877187 
L 695.044491 359.517187 
z
" clip-path="url(#p908da796e0)" style="fill: #add8e6; stroke: #add8e6; stroke-linejoin: miter"/>
   </g>
   <g id="patch_87">
    <path d="M 705.219217 359.517187 
L 705.219217 26.877187 
L 705.245854 26.877187 
L 705.245854 359.517187 
z
" clip-path="url(#p908da796e0)" style="fill: #add8e6; stroke: #add8e6; stroke-linejoin: miter"/>
   </g>
   <g id="patch_88">
    <path d="M 709.448698 359.517187 
L 709.448698 26.877187 
L 705.431155 26.877187 
L 705.431155 359.517187 
z
" clip-path="url(#p908da796e0)" style="fill: #add8e6; stroke: #add8e6; stroke-linejoin: miter"/>
   </g>
   <g id="patch_89">
    <path d="M 734.614222 359.517187 
L 734.614222 26.877187 
L 730.867102 26.877187 
L 730.867102 359.517187 
z
" clip-path="url(#p908da796e0)" style="fill: #add8e6; stroke: #add8e6; stroke-linejoin: miter"/>
   </g>
   <g id="patch_90">
    <path d="M 745.157812 359.517187 
L 745.157812 26.877187 
L 745.30721 26.877187 
L 745.30721 359.517187 
z
" clip-path="url(#p908da796e0)" style="fill: #add8e6; stroke: #add8e6; stroke-linejoin: miter"/>
   </g>
   <g id="patch_91">
    <path d="M 763.695953 359.517187 
L 763.695953 26.877187 
L 763.802501 26.877187 
L 763.802501 359.517187 
z
" clip-path="url(#p908da796e0)" style="fill: #add8e6; stroke: #add8e6; stroke-linejoin: miter"/>
   </g>
   <g id="patch_92">
    <path d="M 763.910786 359.517187 
L 763.910786 26.877187 
L 764.039338 26.877187 
L 764.039338 359.517187 
z
" clip-path="url(#p908da796e0)" style="fill: #add8e6; stroke: #add8e6; stroke-linejoin: miter"/>
   </g>
   <g id="patch_93">
    <path d="M 776.015531 359.517187 
L 776.015531 26.877187 
L 776.072858 26.877187 
L 776.072858 359.517187 
z
" clip-path="url(#p908da796e0)" style="fill: #add8e6; stroke: #add8e6; stroke-linejoin: miter"/>
   </g>
   <g id="patch_94">
    <path d="M 779.152318 359.517187 
L 779.152318 26.877187 
L 776.694773 26.877187 
L 776.694773 359.517187 
z
" clip-path="url(#p908da796e0)" style="fill: #add8e6; stroke: #add8e6; stroke-linejoin: miter"/>
   </g>
   <g id="patch_95">
    <path d="M 780.282071 359.517187 
L 780.282071 26.877187 
L 776.59112 26.877187 
L 776.59112 359.517187 
z
" clip-path="url(#p908da796e0)" style="fill: #add8e6; stroke: #add8e6; stroke-linejoin: miter"/>
   </g>
   <g id="patch_96">
    <path d="M 795.263604 359.517187 
L 795.263604 26.877187 
L 791.284859 26.877187 
L 791.284859 359.517187 
z
" clip-path="url(#p908da796e0)" style="fill: #add8e6; stroke: #add8e6; stroke-linejoin: miter"/>
   </g>
   <g id="patch_97">
    <path d="M 802.935618 359.517187 
L 802.935618 26.877187 
L 803.054905 26.877187 
L 803.054905 359.517187 
z
" clip-path="url(#p908da796e0)" style="fill: #add8e6; stroke: #add8e6; stroke-linejoin: miter"/>
   </g>
   <g id="patch_98">
    <path d="M 803.164348 359.517187 
L 803.164348 26.877187 
L 803.248312 26.877187 
L 803.248312 359.517187 
z
" clip-path="url(#p908da796e0)" style="fill: #add8e6; stroke: #add8e6; stroke-linejoin: miter"/>
   </g>
   <g id="patch_99">
    <path d="M 816.626997 359.517187 
L 816.626997 26.877187 
L 816.781607 26.877187 
L 816.781607 359.517187 
z
" clip-path="url(#p908da796e0)" style="fill: #add8e6; stroke: #add8e6; stroke-linejoin: miter"/>
   </g>
   <g id="patch_100">
    <path d="M 827.448537 359.517187 
L 827.448537 26.877187 
L 827.279451 26.877187 
L 827.279451 359.517187 
z
" clip-path="url(#p908da796e0)" style="fill: #add8e6; stroke: #add8e6; stroke-linejoin: miter"/>
   </g>
   <g id="patch_101">
    <path d="M 831.254722 359.517187 
L 831.254722 26.877187 
L 827.4717 26.877187 
L 827.4717 359.517187 
z
" clip-path="url(#p908da796e0)" style="fill: #add8e6; stroke: #add8e6; stroke-linejoin: miter"/>
   </g>
   <g id="patch_102">
    <path d="M 848.8432 359.517187 
L 848.8432 26.877187 
L 839.41894 26.877187 
L 839.41894 359.517187 
z
" clip-path="url(#p908da796e0)" style="fill: #add8e6; stroke: #add8e6; stroke-linejoin: miter"/>
   </g>
   <g id="patch_103">
    <path d="M 855.299759 359.517187 
L 855.299759 26.877187 
L 854.817978 26.877187 
L 854.817978 359.517187 
z
" clip-path="url(#p908da796e0)" style="fill: #add8e6; stroke: #add8e6; stroke-linejoin: miter"/>
   </g>
   <g id="patch_104">
    <path d="M 859.607413 359.517187 
L 859.607413 26.877187 
L 859.742913 26.877187 
L 859.742913 359.517187 
z
" clip-path="url(#p908da796e0)" style="fill: #add8e6; stroke: #add8e6; stroke-linejoin: miter"/>
   </g>
   <g id="patch_105">
    <path d="M 859.867991 359.517187 
L 859.867991 26.877187 
L 859.951376 26.877187 
L 859.951376 359.517187 
z
" clip-path="url(#p908da796e0)" style="fill: #add8e6; stroke: #add8e6; stroke-linejoin: miter"/>
   </g>
   <g id="patch_106">
    <path d="M 871.204898 359.517187 
L 871.204898 26.877187 
L 871.206056 26.877187 
L 871.206056 359.517187 
z
" clip-path="url(#p908da796e0)" style="fill: #add8e6; stroke: #add8e6; stroke-linejoin: miter"/>
   </g>
   <g id="patch_107">
    <path d="M 873.163291 359.517187 
L 873.163291 26.877187 
L 871.501379 26.877187 
L 871.501379 359.517187 
z
" clip-path="url(#p908da796e0)" style="fill: #add8e6; stroke: #add8e6; stroke-linejoin: miter"/>
   </g>
   <g id="patch_108">
    <path d="M 886.488123 359.517187 
L 886.488123 26.877187 
L 886.660684 26.877187 
L 886.660684 359.517187 
z
" clip-path="url(#p908da796e0)" style="fill: #add8e6; stroke: #add8e6; stroke-linejoin: miter"/>
   </g>
   <g id="patch_109">
    <path d="M 897.477013 359.517187 
L 897.477013 26.877187 
L 897.592246 26.877187 
L 897.592246 359.517187 
z
" clip-path="url(#p908da796e0)" style="fill: #add8e6; stroke: #add8e6; stroke-linejoin: miter"/>
   </g>
   <g id="patch_110">
    <path d="M 897.71964 359.517187 
L 897.71964 26.877187 
L 897.837769 26.877187 
L 897.837769 359.517187 
z
" clip-path="url(#p908da796e0)" style="fill: #add8e6; stroke: #add8e6; stroke-linejoin: miter"/>
   </g>
   <g id="patch_111">
    <path d="M 910.533159 359.517187 
L 910.533159 26.877187 
L 910.641444 26.877187 
L 910.641444 359.517187 
z
" clip-path="url(#p908da796e0)" style="fill: #add8e6; stroke: #add8e6; stroke-linejoin: miter"/>
   </g>
   <g id="patch_112">
    <path d="M 915.511369 359.517187 
L 915.511369 26.877187 
L 915.561748 26.877187 
L 915.561748 359.517187 
z
" clip-path="url(#p908da796e0)" style="fill: #add8e6; stroke: #add8e6; stroke-linejoin: miter"/>
   </g>
   <g id="patch_113">
    <path d="M 916.201034 359.517187 
L 916.201034 26.877187 
L 916.365488 26.877187 
L 916.365488 359.517187 
z
" clip-path="url(#p908da796e0)" style="fill: #add8e6; stroke: #add8e6; stroke-linejoin: miter"/>
   </g>
   <g id="patch_114">
    <path d="M 920.832384 359.517187 
L 920.832384 26.877187 
L 920.947039 26.877187 
L 920.947039 359.517187 
z
" clip-path="url(#p908da796e0)" style="fill: #add8e6; stroke: #add8e6; stroke-linejoin: miter"/>
   </g>
   <g id="patch_115">
    <path d="M 921.043163 359.517187 
L 921.043163 26.877187 
L 921.18156 26.877187 
L 921.18156 359.517187 
z
" clip-path="url(#p908da796e0)" style="fill: #add8e6; stroke: #add8e6; stroke-linejoin: miter"/>
   </g>
   <g id="patch_116">
    <path d="M 932.20114 359.517187 
L 932.20114 26.877187 
L 932.314057 26.877187 
L 932.314057 359.517187 
z
" clip-path="url(#p908da796e0)" style="fill: #add8e6; stroke: #add8e6; stroke-linejoin: miter"/>
   </g>
   <g id="patch_117">
    <path d="M 947.526057 359.517187 
L 947.526057 26.877187 
L 947.656347 26.877187 
L 947.656347 359.517187 
z
" clip-path="url(#p908da796e0)" style="fill: #add8e6; stroke: #add8e6; stroke-linejoin: miter"/>
   </g>
   <g id="patch_118">
    <path d="M 960.768662 359.517187 
L 960.768662 26.877187 
L 960.867682 26.877187 
L 960.867682 359.517187 
z
" clip-path="url(#p908da796e0)" style="fill: #add8e6; stroke: #add8e6; stroke-linejoin: miter"/>
   </g>
   <g id="patch_119">
    <path d="M 961.206434 359.517187 
L 961.206434 26.877187 
L 961.207593 26.877187 
L 961.207593 359.517187 
z
" clip-path="url(#p908da796e0)" style="fill: #add8e6; stroke: #add8e6; stroke-linejoin: miter"/>
   </g>
   <g id="patch_120">
    <path d="M 962.925095 359.517187 
L 962.925095 26.877187 
L 961.692848 26.877187 
L 961.692848 359.517187 
z
" clip-path="url(#p908da796e0)" style="fill: #add8e6; stroke: #add8e6; stroke-linejoin: miter"/>
   </g>
   <g id="patch_121">
    <path d="M 1005.193262 359.517187 
L 1005.193262 26.877187 
L 996.43203 26.877187 
L 996.43203 359.517187 
z
" clip-path="url(#p908da796e0)" style="fill: #add8e6; stroke: #add8e6; stroke-linejoin: miter"/>
   </g>
   <g id="patch_122">
    <path d="M 1020.766598 359.517187 
L 1020.766598 26.877187 
L 1020.838981 26.877187 
L 1020.838981 359.517187 
z
" clip-path="url(#p908da796e0)" style="fill: #add8e6; stroke: #add8e6; stroke-linejoin: miter"/>
   </g>
   <g id="patch_123">
    <path d="M 1032.764217 359.517187 
L 1032.764217 26.877187 
L 1032.804172 26.877187 
L 1032.804172 359.517187 
z
" clip-path="url(#p908da796e0)" style="fill: #add8e6; stroke: #add8e6; stroke-linejoin: miter"/>
   </g>
   <g id="patch_124">
    <path d="M 1051.057414 359.517187 
L 1051.057414 26.877187 
L 1051.211445 26.877187 
L 1051.211445 359.517187 
z
" clip-path="url(#p908da796e0)" style="fill: #add8e6; stroke: #add8e6; stroke-linejoin: miter"/>
   </g>
   <g id="patch_125">
    <path d="M 1051.280933 359.517187 
L 1051.280933 26.877187 
L 1051.40022 26.877187 
L 1051.40022 359.517187 
z
" clip-path="url(#p908da796e0)" style="fill: #add8e6; stroke: #add8e6; stroke-linejoin: miter"/>
   </g>
   <g id="patch_126">
    <path d="M 1066.00015 359.517187 
L 1066.00015 26.877187 
L 1066.138546 26.877187 
L 1066.138546 359.517187 
z
" clip-path="url(#p908da796e0)" style="fill: #add8e6; stroke: #add8e6; stroke-linejoin: miter"/>
   </g>
   <g id="patch_127">
    <path d="M 1079.727431 359.517187 
L 1079.727431 26.877187 
L 1079.76507 26.877187 
L 1079.76507 359.517187 
z
" clip-path="url(#p908da796e0)" style="fill: #add8e6; stroke: #add8e6; stroke-linejoin: miter"/>
   </g>
   <g id="patch_128">
    <path d="M 1093.106116 359.517187 
L 1093.106116 26.877187 
L 1093.130437 26.877187 
L 1093.130437 359.517187 
z
" clip-path="url(#p908da796e0)" style="fill: #add8e6; stroke: #add8e6; stroke-linejoin: miter"/>
   </g>
   <g id="patch_129">
    <path d="M 1095.480277 359.517187 
L 1095.480277 26.877187 
L 1095.340144 26.877187 
L 1095.340144 359.517187 
z
" clip-path="url(#p908da796e0)" style="fill: #add8e6; stroke: #add8e6; stroke-linejoin: miter"/>
   </g>
   <g id="patch_130">
    <path d="M 1099.771717 359.517187 
L 1099.771717 26.877187 
L 1099.873632 26.877187 
L 1099.873632 359.517187 
z
" clip-path="url(#p908da796e0)" style="fill: #add8e6; stroke: #add8e6; stroke-linejoin: miter"/>
   </g>
   <g id="patch_131">
    <path d="M 1099.990603 359.517187 
L 1099.990603 26.877187 
L 1100.132474 26.877187 
L 1100.132474 359.517187 
z
" clip-path="url(#p908da796e0)" style="fill: #add8e6; stroke: #add8e6; stroke-linejoin: miter"/>
   </g>
   <g id="patch_132">
    <path d="M 1100.168955 359.517187 
L 1100.168955 26.877187 
L 1100.273186 26.877187 
L 1100.273186 359.517187 
z
" clip-path="url(#p908da796e0)" style="fill: #add8e6; stroke: #add8e6; stroke-linejoin: miter"/>
   </g>
   <g id="patch_133">
    <path d="M 1101.716792 359.517187 
L 1101.716792 26.877187 
L 1101.068241 26.877187 
L 1101.068241 359.517187 
z
" clip-path="url(#p908da796e0)" style="fill: #add8e6; stroke: #add8e6; stroke-linejoin: miter"/>
   </g>
   <g id="patch_134">
    <path d="M 1107.395089 359.517187 
L 1107.395089 26.877187 
L 1107.480791 26.877187 
L 1107.480791 359.517187 
z
" clip-path="url(#p908da796e0)" style="fill: #add8e6; stroke: #add8e6; stroke-linejoin: miter"/>
   </g>
   <g id="patch_135">
    <path d="M 1107.645245 359.517187 
L 1107.645245 26.877187 
L 1107.80275 26.877187 
L 1107.80275 359.517187 
z
" clip-path="url(#p908da796e0)" style="fill: #add8e6; stroke: #add8e6; stroke-linejoin: miter"/>
   </g>
   <g id="patch_136">
    <path d="M 1107.9203 359.517187 
L 1107.9203 26.877187 
L 1107.967204 26.877187 
L 1107.967204 359.517187 
z
" clip-path="url(#p908da796e0)" style="fill: #add8e6; stroke: #add8e6; stroke-linejoin: miter"/>
   </g>
   <g id="patch_137">
    <path d="M 186.82181 359.517187 
L 186.82181 26.877187 
L 311.899544 26.877187 
L 311.899544 359.517187 
z
" clip-path="url(#p908da796e0)" style="fill: #808080; opacity: 0.4; stroke: #808080; stroke-linejoin: miter"/>
   </g>
   <g id="patch_138">
    <path d="M 315.373925 26.877187 
L 315.373925 26.877187 
L 315.373925 359.517187 
" clip-path="url(#p908da796e0)" style="fill: #808080; opacity: 0.4; stroke: #808080; stroke-linejoin: miter"/>
   </g>
   <g id="patch_139">
    <path d="M 318.848307 26.877187 
L 318.848307 26.877187 
L 318.848307 359.517187 
" clip-path="url(#p908da796e0)" style="fill: #808080; opacity: 0.4; stroke: #808080; stroke-linejoin: miter"/>
   </g>
   <g id="patch_140">
    <path d="M 436.977278 359.517187 
L 436.977278 26.877187 
L 562.055012 26.877187 
L 562.055012 359.517187 
z
" clip-path="url(#p908da796e0)" style="fill: #808080; opacity: 0.4; stroke: #808080; stroke-linejoin: miter"/>
   </g>
   <g id="patch_141">
    <path d="M 565.529393 26.877187 
L 565.529393 26.877187 
L 565.529393 359.517187 
" clip-path="url(#p908da796e0)" style="fill: #808080; opacity: 0.4; stroke: #808080; stroke-linejoin: miter"/>
   </g>
   <g id="patch_142">
    <path d="M 569.003775 26.877187 
L 569.003775 26.877187 
L 569.003775 359.517187 
" clip-path="url(#p908da796e0)" style="fill: #808080; opacity: 0.4; stroke: #808080; stroke-linejoin: miter"/>
   </g>
   <g id="patch_143">
    <path d="M 687.132745 359.517187 
L 687.132745 26.877187 
L 812.210479 26.877187 
L 812.210479 359.517187 
z
" clip-path="url(#p908da796e0)" style="fill: #808080; opacity: 0.4; stroke: #808080; stroke-linejoin: miter"/>
   </g>
   <g id="patch_144">
    <path d="M 815.684861 26.877187 
L 815.684861 26.877187 
L 815.684861 359.517187 
" clip-path="url(#p908da796e0)" style="fill: #808080; opacity: 0.4; stroke: #808080; stroke-linejoin: miter"/>
   </g>
   <g id="patch_145">
    <path d="M 819.159242 26.877187 
L 819.159242 26.877187 
L 819.159242 359.517187 
" clip-path="url(#p908da796e0)" style="fill: #808080; opacity: 0.4; stroke: #808080; stroke-linejoin: miter"/>
   </g>
   <g id="patch_146">
    <path d="M 937.288213 359.517187 
L 937.288213 26.877187 
L 1062.365947 26.877187 
L 1062.365947 359.517187 
z
" clip-path="url(#p908da796e0)" style="fill: #808080; opacity: 0.4; stroke: #808080; stroke-linejoin: miter"/>
   </g>
   <g id="patch_147">
    <path d="M 1065.840328 26.877187 
L 1065.840328 26.877187 
L 1065.840328 359.517187 
" clip-path="url(#p908da796e0)" style="fill: #808080; opacity: 0.4; stroke: #808080; stroke-linejoin: miter"/>
   </g>
   <g id="patch_148">
    <path d="M 1069.31471 26.877187 
L 1069.31471 26.877187 
L 1069.31471 359.517187 
" clip-path="url(#p908da796e0)" style="fill: #808080; opacity: 0.4; stroke: #808080; stroke-linejoin: miter"/>
   </g>
   <g id="matplotlib.axis_1">
    <g id="xtick_1">
     <g id="line2d_1">
      <defs>
       <path id="m6c1a1b1dd3" d="M 0 0 
L 0 3.5 
" style="stroke: #000000; stroke-width: 0.8"/>
      </defs>
      <g>
       <use xlink:href="#m6c1a1b1dd3" x="111.419046" y="359.517187" style="stroke: #000000; stroke-width: 0.8"/>
      </g>
     </g>
     <g id="text_1">
      <!-- 09-07 12 -->
      <g transform="translate(88.938577 374.115625) scale(0.1 -0.1)">
       <defs>
        <path id="DejaVuSans-30" d="M 2034 4250 
Q 1547 4250 1301 3770 
Q 1056 3291 1056 2328 
Q 1056 1369 1301 889 
Q 1547 409 2034 409 
Q 2525 409 2770 889 
Q 3016 1369 3016 2328 
Q 3016 3291 2770 3770 
Q 2525 4250 2034 4250 
z
M 2034 4750 
Q 2819 4750 3233 4129 
Q 3647 3509 3647 2328 
Q 3647 1150 3233 529 
Q 2819 -91 2034 -91 
Q 1250 -91 836 529 
Q 422 1150 422 2328 
Q 422 3509 836 4129 
Q 1250 4750 2034 4750 
z
" transform="scale(0.015625)"/>
        <path id="DejaVuSans-39" d="M 703 97 
L 703 672 
Q 941 559 1184 500 
Q 1428 441 1663 441 
Q 2288 441 2617 861 
Q 2947 1281 2994 2138 
Q 2813 1869 2534 1725 
Q 2256 1581 1919 1581 
Q 1219 1581 811 2004 
Q 403 2428 403 3163 
Q 403 3881 828 4315 
Q 1253 4750 1959 4750 
Q 2769 4750 3195 4129 
Q 3622 3509 3622 2328 
Q 3622 1225 3098 567 
Q 2575 -91 1691 -91 
Q 1453 -91 1209 -44 
Q 966 3 703 97 
z
M 1959 2075 
Q 2384 2075 2632 2365 
Q 2881 2656 2881 3163 
Q 2881 3666 2632 3958 
Q 2384 4250 1959 4250 
Q 1534 4250 1286 3958 
Q 1038 3666 1038 3163 
Q 1038 2656 1286 2365 
Q 1534 2075 1959 2075 
z
" transform="scale(0.015625)"/>
        <path id="DejaVuSans-2d" d="M 313 2009 
L 1997 2009 
L 1997 1497 
L 313 1497 
L 313 2009 
z
" transform="scale(0.015625)"/>
        <path id="DejaVuSans-37" d="M 525 4666 
L 3525 4666 
L 3525 4397 
L 1831 0 
L 1172 0 
L 2766 4134 
L 525 4134 
L 525 4666 
z
" transform="scale(0.015625)"/>
        <path id="DejaVuSans-20" transform="scale(0.015625)"/>
        <path id="DejaVuSans-31" d="M 794 531 
L 1825 531 
L 1825 4091 
L 703 3866 
L 703 4441 
L 1819 4666 
L 2450 4666 
L 2450 531 
L 3481 531 
L 3481 0 
L 794 0 
L 794 531 
z
" transform="scale(0.015625)"/>
        <path id="DejaVuSans-32" d="M 1228 531 
L 3431 531 
L 3431 0 
L 469 0 
L 469 531 
Q 828 903 1448 1529 
Q 2069 2156 2228 2338 
Q 2531 2678 2651 2914 
Q 2772 3150 2772 3378 
Q 2772 3750 2511 3984 
Q 2250 4219 1831 4219 
Q 1534 4219 1204 4116 
Q 875 4013 500 3803 
L 500 4441 
Q 881 4594 1212 4672 
Q 1544 4750 1819 4750 
Q 2544 4750 2975 4387 
Q 3406 4025 3406 3419 
Q 3406 3131 3298 2873 
Q 3191 2616 2906 2266 
Q 2828 2175 2409 1742 
Q 1991 1309 1228 531 
z
" transform="scale(0.015625)"/>
       </defs>
       <use xlink:href="#DejaVuSans-30"/>
       <use xlink:href="#DejaVuSans-39" x="63.623047"/>
       <use xlink:href="#DejaVuSans-2d" x="127.246094"/>
       <use xlink:href="#DejaVuSans-30" x="163.330078"/>
       <use xlink:href="#DejaVuSans-37" x="226.953125"/>
       <use xlink:href="#DejaVuSans-20" x="290.576172"/>
       <use xlink:href="#DejaVuSans-31" x="322.363281"/>
       <use xlink:href="#DejaVuSans-32" x="385.986328"/>
      </g>
     </g>
    </g>
    <g id="xtick_2">
     <g id="line2d_2">
      <g>
       <use xlink:href="#m6c1a1b1dd3" x="236.49678" y="359.517187" style="stroke: #000000; stroke-width: 0.8"/>
      </g>
     </g>
     <g id="text_2">
      <!-- 09-08 00 -->
      <g transform="translate(214.016311 374.115625) scale(0.1 -0.1)">
       <defs>
        <path id="DejaVuSans-38" d="M 2034 2216 
Q 1584 2216 1326 1975 
Q 1069 1734 1069 1313 
Q 1069 891 1326 650 
Q 1584 409 2034 409 
Q 2484 409 2743 651 
Q 3003 894 3003 1313 
Q 3003 1734 2745 1975 
Q 2488 2216 2034 2216 
z
M 1403 2484 
Q 997 2584 770 2862 
Q 544 3141 544 3541 
Q 544 4100 942 4425 
Q 1341 4750 2034 4750 
Q 2731 4750 3128 4425 
Q 3525 4100 3525 3541 
Q 3525 3141 3298 2862 
Q 3072 2584 2669 2484 
Q 3125 2378 3379 2068 
Q 3634 1759 3634 1313 
Q 3634 634 3220 271 
Q 2806 -91 2034 -91 
Q 1263 -91 848 271 
Q 434 634 434 1313 
Q 434 1759 690 2068 
Q 947 2378 1403 2484 
z
M 1172 3481 
Q 1172 3119 1398 2916 
Q 1625 2713 2034 2713 
Q 2441 2713 2670 2916 
Q 2900 3119 2900 3481 
Q 2900 3844 2670 4047 
Q 2441 4250 2034 4250 
Q 1625 4250 1398 4047 
Q 1172 3844 1172 3481 
z
" transform="scale(0.015625)"/>
       </defs>
       <use xlink:href="#DejaVuSans-30"/>
       <use xlink:href="#DejaVuSans-39" x="63.623047"/>
       <use xlink:href="#DejaVuSans-2d" x="127.246094"/>
       <use xlink:href="#DejaVuSans-30" x="163.330078"/>
       <use xlink:href="#DejaVuSans-38" x="226.953125"/>
       <use xlink:href="#DejaVuSans-20" x="290.576172"/>
       <use xlink:href="#DejaVuSans-30" x="322.363281"/>
       <use xlink:href="#DejaVuSans-30" x="385.986328"/>
      </g>
     </g>
    </g>
    <g id="xtick_3">
     <g id="line2d_3">
      <g>
       <use xlink:href="#m6c1a1b1dd3" x="361.574513" y="359.517187" style="stroke: #000000; stroke-width: 0.8"/>
      </g>
     </g>
     <g id="text_3">
      <!-- 09-08 12 -->
      <g transform="translate(339.094045 374.115625) scale(0.1 -0.1)">
       <use xlink:href="#DejaVuSans-30"/>
       <use xlink:href="#DejaVuSans-39" x="63.623047"/>
       <use xlink:href="#DejaVuSans-2d" x="127.246094"/>
       <use xlink:href="#DejaVuSans-30" x="163.330078"/>
       <use xlink:href="#DejaVuSans-38" x="226.953125"/>
       <use xlink:href="#DejaVuSans-20" x="290.576172"/>
       <use xlink:href="#DejaVuSans-31" x="322.363281"/>
       <use xlink:href="#DejaVuSans-32" x="385.986328"/>
      </g>
     </g>
    </g>
    <g id="xtick_4">
     <g id="line2d_4">
      <g>
       <use xlink:href="#m6c1a1b1dd3" x="486.652247" y="359.517187" style="stroke: #000000; stroke-width: 0.8"/>
      </g>
     </g>
     <g id="text_4">
      <!-- 09-09 00 -->
      <g transform="translate(464.171778 374.115625) scale(0.1 -0.1)">
       <use xlink:href="#DejaVuSans-30"/>
       <use xlink:href="#DejaVuSans-39" x="63.623047"/>
       <use xlink:href="#DejaVuSans-2d" x="127.246094"/>
       <use xlink:href="#DejaVuSans-30" x="163.330078"/>
       <use xlink:href="#DejaVuSans-39" x="226.953125"/>
       <use xlink:href="#DejaVuSans-20" x="290.576172"/>
       <use xlink:href="#DejaVuSans-30" x="322.363281"/>
       <use xlink:href="#DejaVuSans-30" x="385.986328"/>
      </g>
     </g>
    </g>
    <g id="xtick_5">
     <g id="line2d_5">
      <g>
       <use xlink:href="#m6c1a1b1dd3" x="611.729981" y="359.517187" style="stroke: #000000; stroke-width: 0.8"/>
      </g>
     </g>
     <g id="text_5">
      <!-- 09-09 12 -->
      <g transform="translate(589.249512 374.115625) scale(0.1 -0.1)">
       <use xlink:href="#DejaVuSans-30"/>
       <use xlink:href="#DejaVuSans-39" x="63.623047"/>
       <use xlink:href="#DejaVuSans-2d" x="127.246094"/>
       <use xlink:href="#DejaVuSans-30" x="163.330078"/>
       <use xlink:href="#DejaVuSans-39" x="226.953125"/>
       <use xlink:href="#DejaVuSans-20" x="290.576172"/>
       <use xlink:href="#DejaVuSans-31" x="322.363281"/>
       <use xlink:href="#DejaVuSans-32" x="385.986328"/>
      </g>
     </g>
    </g>
    <g id="xtick_6">
     <g id="line2d_6">
      <g>
       <use xlink:href="#m6c1a1b1dd3" x="736.807715" y="359.517187" style="stroke: #000000; stroke-width: 0.8"/>
      </g>
     </g>
     <g id="text_6">
      <!-- 09-10 00 -->
      <g transform="translate(714.327246 374.115625) scale(0.1 -0.1)">
       <use xlink:href="#DejaVuSans-30"/>
       <use xlink:href="#DejaVuSans-39" x="63.623047"/>
       <use xlink:href="#DejaVuSans-2d" x="127.246094"/>
       <use xlink:href="#DejaVuSans-31" x="163.330078"/>
       <use xlink:href="#DejaVuSans-30" x="226.953125"/>
       <use xlink:href="#DejaVuSans-20" x="290.576172"/>
       <use xlink:href="#DejaVuSans-30" x="322.363281"/>
       <use xlink:href="#DejaVuSans-30" x="385.986328"/>
      </g>
     </g>
    </g>
    <g id="xtick_7">
     <g id="line2d_7">
      <g>
       <use xlink:href="#m6c1a1b1dd3" x="861.885449" y="359.517187" style="stroke: #000000; stroke-width: 0.8"/>
      </g>
     </g>
     <g id="text_7">
      <!-- 09-10 12 -->
      <g transform="translate(839.40498 374.115625) scale(0.1 -0.1)">
       <use xlink:href="#DejaVuSans-30"/>
       <use xlink:href="#DejaVuSans-39" x="63.623047"/>
       <use xlink:href="#DejaVuSans-2d" x="127.246094"/>
       <use xlink:href="#DejaVuSans-31" x="163.330078"/>
       <use xlink:href="#DejaVuSans-30" x="226.953125"/>
       <use xlink:href="#DejaVuSans-20" x="290.576172"/>
       <use xlink:href="#DejaVuSans-31" x="322.363281"/>
       <use xlink:href="#DejaVuSans-32" x="385.986328"/>
      </g>
     </g>
    </g>
    <g id="xtick_8">
     <g id="line2d_8">
      <g>
       <use xlink:href="#m6c1a1b1dd3" x="986.963183" y="359.517187" style="stroke: #000000; stroke-width: 0.8"/>
      </g>
     </g>
     <g id="text_8">
      <!-- 09-11 00 -->
      <g transform="translate(964.482714 374.115625) scale(0.1 -0.1)">
       <use xlink:href="#DejaVuSans-30"/>
       <use xlink:href="#DejaVuSans-39" x="63.623047"/>
       <use xlink:href="#DejaVuSans-2d" x="127.246094"/>
       <use xlink:href="#DejaVuSans-31" x="163.330078"/>
       <use xlink:href="#DejaVuSans-31" x="226.953125"/>
       <use xlink:href="#DejaVuSans-20" x="290.576172"/>
       <use xlink:href="#DejaVuSans-30" x="322.363281"/>
       <use xlink:href="#DejaVuSans-30" x="385.986328"/>
      </g>
     </g>
    </g>
    <g id="xtick_9">
     <g id="line2d_9">
      <g>
       <use xlink:href="#m6c1a1b1dd3" x="1112.040916" y="359.517187" style="stroke: #000000; stroke-width: 0.8"/>
      </g>
     </g>
     <g id="text_9">
      <!-- 09-11 12 -->
      <g transform="translate(1089.560448 374.115625) scale(0.1 -0.1)">
       <use xlink:href="#DejaVuSans-30"/>
       <use xlink:href="#DejaVuSans-39" x="63.623047"/>
       <use xlink:href="#DejaVuSans-2d" x="127.246094"/>
       <use xlink:href="#DejaVuSans-31" x="163.330078"/>
       <use xlink:href="#DejaVuSans-31" x="226.953125"/>
       <use xlink:href="#DejaVuSans-20" x="290.576172"/>
       <use xlink:href="#DejaVuSans-31" x="322.363281"/>
       <use xlink:href="#DejaVuSans-32" x="385.986328"/>
      </g>
     </g>
    </g>
    <g id="text_10">
     <!-- Time -->
     <g transform="translate(592.554688 389.313437) scale(0.12 -0.12)">
      <defs>
       <path id="DejaVuSans-54" d="M -19 4666 
L 3928 4666 
L 3928 4134 
L 2272 4134 
L 2272 0 
L 1638 0 
L 1638 4134 
L -19 4134 
L -19 4666 
z
" transform="scale(0.015625)"/>
       <path id="DejaVuSans-69" d="M 603 3500 
L 1178 3500 
L 1178 0 
L 603 0 
L 603 3500 
z
M 603 4863 
L 1178 4863 
L 1178 4134 
L 603 4134 
L 603 4863 
z
" transform="scale(0.015625)"/>
       <path id="DejaVuSans-6d" d="M 3328 2828 
Q 3544 3216 3844 3400 
Q 4144 3584 4550 3584 
Q 5097 3584 5394 3201 
Q 5691 2819 5691 2113 
L 5691 0 
L 5113 0 
L 5113 2094 
Q 5113 2597 4934 2840 
Q 4756 3084 4391 3084 
Q 3944 3084 3684 2787 
Q 3425 2491 3425 1978 
L 3425 0 
L 2847 0 
L 2847 2094 
Q 2847 2600 2669 2842 
Q 2491 3084 2119 3084 
Q 1678 3084 1418 2786 
Q 1159 2488 1159 1978 
L 1159 0 
L 581 0 
L 581 3500 
L 1159 3500 
L 1159 2956 
Q 1356 3278 1631 3431 
Q 1906 3584 2284 3584 
Q 2666 3584 2933 3390 
Q 3200 3197 3328 2828 
z
" transform="scale(0.015625)"/>
       <path id="DejaVuSans-65" d="M 3597 1894 
L 3597 1613 
L 953 1613 
Q 991 1019 1311 708 
Q 1631 397 2203 397 
Q 2534 397 2845 478 
Q 3156 559 3463 722 
L 3463 178 
Q 3153 47 2828 -22 
Q 2503 -91 2169 -91 
Q 1331 -91 842 396 
Q 353 884 353 1716 
Q 353 2575 817 3079 
Q 1281 3584 2069 3584 
Q 2775 3584 3186 3129 
Q 3597 2675 3597 1894 
z
M 3022 2063 
Q 3016 2534 2758 2815 
Q 2500 3097 2075 3097 
Q 1594 3097 1305 2825 
Q 1016 2553 972 2059 
L 3022 2063 
z
" transform="scale(0.015625)"/>
      </defs>
      <use xlink:href="#DejaVuSans-54"/>
      <use xlink:href="#DejaVuSans-69" x="57.958984"/>
      <use xlink:href="#DejaVuSans-6d" x="85.742188"/>
      <use xlink:href="#DejaVuSans-65" x="183.154297"/>
     </g>
    </g>
   </g>
   <g id="matplotlib.axis_2">
    <g id="ytick_1">
     <g id="line2d_10">
      <defs>
       <path id="m94f324c297" d="M 0 0 
L -3.5 0 
" style="stroke: #000000; stroke-width: 0.8"/>
      </defs>
      <g>
       <use xlink:href="#m94f324c297" x="49.235" y="344.397187" style="stroke: #000000; stroke-width: 0.8"/>
      </g>
     </g>
     <g id="text_11">
      <!-- 0 -->
      <g transform="translate(35.8725 348.196406) scale(0.1 -0.1)">
       <use xlink:href="#DejaVuSans-30"/>
      </g>
     </g>
    </g>
    <g id="ytick_2">
     <g id="line2d_11">
      <g>
       <use xlink:href="#m94f324c297" x="49.235" y="272.139123" style="stroke: #000000; stroke-width: 0.8"/>
      </g>
     </g>
     <g id="text_12">
      <!-- 200 -->
      <g transform="translate(23.1475 275.938342) scale(0.1 -0.1)">
       <use xlink:href="#DejaVuSans-32"/>
       <use xlink:href="#DejaVuSans-30" x="63.623047"/>
       <use xlink:href="#DejaVuSans-30" x="127.246094"/>
      </g>
     </g>
    </g>
    <g id="ytick_3">
     <g id="line2d_12">
      <g>
       <use xlink:href="#m94f324c297" x="49.235" y="199.881058" style="stroke: #000000; stroke-width: 0.8"/>
      </g>
     </g>
     <g id="text_13">
      <!-- 400 -->
      <g transform="translate(23.1475 203.680277) scale(0.1 -0.1)">
       <defs>
        <path id="DejaVuSans-34" d="M 2419 4116 
L 825 1625 
L 2419 1625 
L 2419 4116 
z
M 2253 4666 
L 3047 4666 
L 3047 1625 
L 3713 1625 
L 3713 1100 
L 3047 1100 
L 3047 0 
L 2419 0 
L 2419 1100 
L 313 1100 
L 313 1709 
L 2253 4666 
z
" transform="scale(0.015625)"/>
       </defs>
       <use xlink:href="#DejaVuSans-34"/>
       <use xlink:href="#DejaVuSans-30" x="63.623047"/>
       <use xlink:href="#DejaVuSans-30" x="127.246094"/>
      </g>
     </g>
    </g>
    <g id="ytick_4">
     <g id="line2d_13">
      <g>
       <use xlink:href="#m94f324c297" x="49.235" y="127.622994" style="stroke: #000000; stroke-width: 0.8"/>
      </g>
     </g>
     <g id="text_14">
      <!-- 600 -->
      <g transform="translate(23.1475 131.422213) scale(0.1 -0.1)">
       <defs>
        <path id="DejaVuSans-36" d="M 2113 2584 
Q 1688 2584 1439 2293 
Q 1191 2003 1191 1497 
Q 1191 994 1439 701 
Q 1688 409 2113 409 
Q 2538 409 2786 701 
Q 3034 994 3034 1497 
Q 3034 2003 2786 2293 
Q 2538 2584 2113 2584 
z
M 3366 4563 
L 3366 3988 
Q 3128 4100 2886 4159 
Q 2644 4219 2406 4219 
Q 1781 4219 1451 3797 
Q 1122 3375 1075 2522 
Q 1259 2794 1537 2939 
Q 1816 3084 2150 3084 
Q 2853 3084 3261 2657 
Q 3669 2231 3669 1497 
Q 3669 778 3244 343 
Q 2819 -91 2113 -91 
Q 1303 -91 875 529 
Q 447 1150 447 2328 
Q 447 3434 972 4092 
Q 1497 4750 2381 4750 
Q 2619 4750 2861 4703 
Q 3103 4656 3366 4563 
z
" transform="scale(0.015625)"/>
       </defs>
       <use xlink:href="#DejaVuSans-36"/>
       <use xlink:href="#DejaVuSans-30" x="63.623047"/>
       <use xlink:href="#DejaVuSans-30" x="127.246094"/>
      </g>
     </g>
    </g>
    <g id="ytick_5">
     <g id="line2d_14">
      <g>
       <use xlink:href="#m94f324c297" x="49.235" y="55.364929" style="stroke: #000000; stroke-width: 0.8"/>
      </g>
     </g>
     <g id="text_15">
      <!-- 800 -->
      <g transform="translate(23.1475 59.164148) scale(0.1 -0.1)">
       <use xlink:href="#DejaVuSans-38"/>
       <use xlink:href="#DejaVuSans-30" x="63.623047"/>
       <use xlink:href="#DejaVuSans-30" x="127.246094"/>
      </g>
     </g>
    </g>
    <g id="text_16">
     <!-- Pellet_Count -->
     <g transform="translate(16.318125 230.485312) rotate(-90) scale(0.12 -0.12)">
      <defs>
       <path id="DejaVuSans-50" d="M 1259 4147 
L 1259 2394 
L 2053 2394 
Q 2494 2394 2734 2622 
Q 2975 2850 2975 3272 
Q 2975 3691 2734 3919 
Q 2494 4147 2053 4147 
L 1259 4147 
z
M 628 4666 
L 2053 4666 
Q 2838 4666 3239 4311 
Q 3641 3956 3641 3272 
Q 3641 2581 3239 2228 
Q 2838 1875 2053 1875 
L 1259 1875 
L 1259 0 
L 628 0 
L 628 4666 
z
" transform="scale(0.015625)"/>
       <path id="DejaVuSans-6c" d="M 603 4863 
L 1178 4863 
L 1178 0 
L 603 0 
L 603 4863 
z
" transform="scale(0.015625)"/>
       <path id="DejaVuSans-74" d="M 1172 4494 
L 1172 3500 
L 2356 3500 
L 2356 3053 
L 1172 3053 
L 1172 1153 
Q 1172 725 1289 603 
Q 1406 481 1766 481 
L 2356 481 
L 2356 0 
L 1766 0 
Q 1100 0 847 248 
Q 594 497 594 1153 
L 594 3053 
L 172 3053 
L 172 3500 
L 594 3500 
L 594 4494 
L 1172 4494 
z
" transform="scale(0.015625)"/>
       <path id="DejaVuSans-5f" d="M 3263 -1063 
L 3263 -1509 
L -63 -1509 
L -63 -1063 
L 3263 -1063 
z
" transform="scale(0.015625)"/>
       <path id="DejaVuSans-43" d="M 4122 4306 
L 4122 3641 
Q 3803 3938 3442 4084 
Q 3081 4231 2675 4231 
Q 1875 4231 1450 3742 
Q 1025 3253 1025 2328 
Q 1025 1406 1450 917 
Q 1875 428 2675 428 
Q 3081 428 3442 575 
Q 3803 722 4122 1019 
L 4122 359 
Q 3791 134 3420 21 
Q 3050 -91 2638 -91 
Q 1578 -91 968 557 
Q 359 1206 359 2328 
Q 359 3453 968 4101 
Q 1578 4750 2638 4750 
Q 3056 4750 3426 4639 
Q 3797 4528 4122 4306 
z
" transform="scale(0.015625)"/>
       <path id="DejaVuSans-6f" d="M 1959 3097 
Q 1497 3097 1228 2736 
Q 959 2375 959 1747 
Q 959 1119 1226 758 
Q 1494 397 1959 397 
Q 2419 397 2687 759 
Q 2956 1122 2956 1747 
Q 2956 2369 2687 2733 
Q 2419 3097 1959 3097 
z
M 1959 3584 
Q 2709 3584 3137 3096 
Q 3566 2609 3566 1747 
Q 3566 888 3137 398 
Q 2709 -91 1959 -91 
Q 1206 -91 779 398 
Q 353 888 353 1747 
Q 353 2609 779 3096 
Q 1206 3584 1959 3584 
z
" transform="scale(0.015625)"/>
       <path id="DejaVuSans-75" d="M 544 1381 
L 544 3500 
L 1119 3500 
L 1119 1403 
Q 1119 906 1312 657 
Q 1506 409 1894 409 
Q 2359 409 2629 706 
Q 2900 1003 2900 1516 
L 2900 3500 
L 3475 3500 
L 3475 0 
L 2900 0 
L 2900 538 
Q 2691 219 2414 64 
Q 2138 -91 1772 -91 
Q 1169 -91 856 284 
Q 544 659 544 1381 
z
M 1991 3584 
L 1991 3584 
z
" transform="scale(0.015625)"/>
       <path id="DejaVuSans-6e" d="M 3513 2113 
L 3513 0 
L 2938 0 
L 2938 2094 
Q 2938 2591 2744 2837 
Q 2550 3084 2163 3084 
Q 1697 3084 1428 2787 
Q 1159 2491 1159 1978 
L 1159 0 
L 581 0 
L 581 3500 
L 1159 3500 
L 1159 2956 
Q 1366 3272 1645 3428 
Q 1925 3584 2291 3584 
Q 2894 3584 3203 3211 
Q 3513 2838 3513 2113 
z
" transform="scale(0.015625)"/>
      </defs>
      <use xlink:href="#DejaVuSans-50"/>
      <use xlink:href="#DejaVuSans-65" x="56.677734"/>
      <use xlink:href="#DejaVuSans-6c" x="118.201172"/>
      <use xlink:href="#DejaVuSans-6c" x="145.984375"/>
      <use xlink:href="#DejaVuSans-65" x="173.767578"/>
      <use xlink:href="#DejaVuSans-74" x="235.291016"/>
      <use xlink:href="#DejaVuSans-5f" x="274.5"/>
      <use xlink:href="#DejaVuSans-43" x="324.5"/>
      <use xlink:href="#DejaVuSans-6f" x="394.324219"/>
      <use xlink:href="#DejaVuSans-75" x="455.505859"/>
      <use xlink:href="#DejaVuSans-6e" x="518.884766"/>
      <use xlink:href="#DejaVuSans-74" x="582.263672"/>
     </g>
    </g>
   </g>
   <g id="line2d_15">
    <path d="M 99.962273 344.397187 
L 100.03176 344.035897 
L 100.312606 344.035897 
L 100.318397 343.674607 
L 100.937995 343.674607 
L 101.039331 342.952026 
L 101.537326 342.952026 
L 101.647348 342.229446 
L 101.85002 342.229446 
L 101.922403 341.506865 
L 102.003472 341.506865 
L 105.729746 341.145575 
L 105.732641 340.784284 
L 106.164044 340.784284 
L 106.282752 340.061704 
L 106.375402 340.061704 
L 106.459366 339.339123 
L 106.53754 339.339123 
L 106.63019 338.616542 
L 106.67941 338.616542 
L 106.743107 337.893962 
L 106.806804 337.893962 
L 106.879187 337.171381 
L 111.239536 337.171381 
L 111.300338 336.4488 
L 111.372721 336.4488 
L 111.439313 335.72622 
L 111.494324 335.72622 
L 111.604346 335.364929 
L 111.627509 335.364929 
L 111.633299 335.003639 
L 111.77517 335.003639 
L 111.833076 334.642349 
L 114.085634 334.642349 
L 114.210132 334.281058 
L 114.218818 334.281058 
L 114.239085 333.919768 
L 116.526387 333.919768 
L 116.610351 333.197187 
L 116.714582 333.197187 
L 116.821709 332.474607 
L 116.891197 332.474607 
L 117.007009 332.113317 
L 117.009905 332.113317 
L 117.090974 331.752026 
L 117.244425 331.390736 
L 118.920814 331.390736 
L 119.036627 330.668155 
L 119.094533 330.668155 
L 119.207451 329.945575 
L 119.334845 329.945575 
L 119.450658 329.584284 
L 119.46803 329.222994 
L 119.994977 329.222994 
L 120.055779 328.500413 
L 120.165801 328.500413 
L 120.267137 327.777833 
L 120.429275 327.777833 
L 120.510344 327.416542 
L 120.681168 326.693962 
L 124.355326 326.693962 
L 124.404547 326.332671 
L 124.546417 326.332671 
L 124.639067 325.610091 
L 134.422347 325.610091 
L 134.50052 324.88751 
L 134.584484 324.88751 
L 134.697402 323.803639 
L 134.787157 323.803639 
L 134.86533 323.081058 
L 134.960876 323.081058 
L 135.041945 322.358478 
L 135.120118 322.358478 
L 135.238826 321.997187 
L 147.326778 321.997187 
L 147.404952 321.274607 
L 147.503393 321.274607 
L 147.639473 320.552026 
L 147.726332 320.552026 
L 148.256176 319.468155 
L 148.357512 319.468155 
L 148.473324 319.106865 
L 148.516754 319.106865 
L 148.519649 318.745575 
L 148.904727 318.745575 
L 148.997377 318.022994 
L 149.052388 318.022994 
L 149.171096 317.661704 
L 149.692253 317.661704 
L 149.724102 317.300413 
L 150.66508 317.300413 
L 150.971984 316.939123 
L 151.07332 316.577833 
L 151.177551 315.855252 
L 154.947255 315.855252 
L 154.955941 315.493962 
L 155.294693 315.493962 
L 155.413401 314.771381 
L 162.724079 314.771381 
L 162.819625 314.0488 
L 162.935437 314.0488 
L 163.030983 313.68751 
L 163.091785 313.68751 
L 163.198911 313.32622 
L 163.216283 313.32622 
L 163.32341 312.603639 
L 163.41606 312.603639 
L 163.528978 311.881058 
L 163.624523 311.881058 
L 163.728754 311.158478 
L 163.841672 311.158478 
L 163.844567 310.797187 
L 163.998019 310.797187 
L 164.0096 310.435897 
L 166.467725 310.435897 
L 166.505364 310.074607 
L 166.890442 309.352026 
L 166.890442 309.352026 
L 166.96572 308.629446 
L 167.067056 308.629446 
L 167.156811 307.906865 
L 168.760817 307.906865 
L 168.810037 307.545575 
L 169.134313 306.822994 
L 169.226963 306.100413 
L 169.305137 306.100413 
L 169.389101 305.739123 
L 170.29244 305.739123 
L 170.726738 305.377833 
L 170.735424 305.016542 
L 170.993107 305.016542 
L 172.591323 304.655252 
L 172.681077 303.932671 
L 172.825843 303.932671 
L 172.935865 303.210091 
L 175.058133 303.210091 
L 175.066819 302.8488 
L 175.281073 302.8488 
L 175.359246 302.48751 
L 175.414258 302.48751 
L 175.559023 302.12622 
L 175.651674 302.12622 
L 175.657464 301.764929 
L 175.929624 301.764929 
L 176.051227 301.042349 
L 187.661452 301.042349 
L 187.762788 300.319768 
L 187.814904 300.319768 
L 187.820695 299.958478 
L 187.971251 299.958478 
L 188.066797 299.235897 
L 188.327375 299.235897 
L 188.440293 298.874607 
L 188.469246 298.874607 
L 188.758778 298.513317 
L 188.764568 298.513317 
L 188.770359 298.152026 
L 189.50577 298.152026 
L 189.638954 297.429446 
L 189.798197 297.429446 
L 189.801092 297.068155 
L 195.913108 297.068155 
L 196.002863 296.706865 
L 197.349186 296.706865 
L 197.352081 296.345575 
L 208.490369 296.345575 
L 208.606182 295.984284 
L 208.614868 295.984284 
L 208.727785 295.622994 
L 208.771215 295.622994 
L 208.881237 294.900413 
L 209.008631 294.900413 
L 209.014422 294.539123 
L 222.208386 294.539123 
L 222.324198 294.177833 
L 222.33578 294.177833 
L 222.431325 293.455252 
L 222.52108 293.455252 
L 222.619521 293.093962 
L 222.84246 293.093962 
L 222.958273 292.371381 
L 241.291426 292.371381 
L 241.3696 291.6488 
L 241.439087 291.6488 
L 241.546214 290.92622 
L 241.618597 290.92622 
L 241.693875 290.564929 
L 255.521914 290.203639 
L 255.5306 289.842349 
L 255.736167 289.842349 
L 255.739062 289.481058 
L 272.013644 289.481058 
L 272.10919 288.758478 
L 272.164201 288.758478 
L 272.253956 288.035897 
L 272.323443 288.035897 
L 272.413198 287.674607 
L 274.269097 287.674607 
L 274.396491 286.952026 
L 274.463083 286.952026 
L 274.628116 286.229446 
L 290.9635 286.229446 
L 291.061941 285.506865 
L 291.134324 285.506865 
L 291.218288 284.784284 
L 291.276194 284.784284 
L 291.345682 284.061704 
L 291.42096 284.061704 
L 291.493343 283.339123 
L 306.100222 283.339123 
L 306.195768 282.255252 
L 306.276837 282.255252 
L 306.34922 281.532671 
L 306.415812 281.532671 
L 306.525834 280.810091 
L 306.586636 280.810091 
L 306.661914 280.08751 
L 306.71982 280.08751 
L 306.725611 279.72622 
L 321.216677 279.72622 
L 321.33249 279.003639 
L 321.500418 279.003639 
L 321.509104 278.642349 
L 321.972355 278.642349 
L 321.978146 278.281058 
L 327.699294 278.281058 
L 327.812211 277.558478 
L 327.887489 277.558478 
L 327.965663 276.835897 
L 328.026465 276.835897 
L 328.107534 276.113317 
L 328.174126 276.113317 
L 328.246509 275.390736 
L 334.775451 275.390736 
L 334.882578 275.029446 
L 334.963646 275.029446 
L 334.972332 274.668155 
L 337.019322 274.668155 
L 337.314645 274.306865 
L 338.991034 274.306865 
L 339.347158 273.945575 
L 339.714863 273.945575 
L 340.311299 273.584284 
L 342.572542 273.584284 
L 342.650716 272.861704 
L 342.717308 272.861704 
L 342.723098 272.500413 
L 343.334011 272.500413 
L 343.55695 272.139123 
L 346.084563 272.139123 
L 346.165631 271.416542 
L 346.226433 271.416542 
L 346.307502 270.693962 
L 346.403048 270.693962 
L 346.466745 269.971381 
L 349.532886 269.971381 
L 349.955603 269.610091 
L 350.027986 268.88751 
L 350.082997 268.88751 
L 350.085892 268.52622 
L 350.227762 268.52622 
L 350.230658 268.164929 
L 351.429319 268.164929 
L 351.681212 267.442349 
L 351.684107 267.081058 
L 351.901256 267.081058 
L 351.964953 266.719768 
L 352.497692 266.719768 
L 352.827758 266.358478 
L 353.644238 266.358478 
L 353.719516 265.635897 
L 353.783213 265.635897 
L 353.794794 265.274607 
L 354.480984 265.274607 
L 357.005702 264.913317 
L 357.790333 264.913317 
L 358.065388 264.552026 
L 358.13198 263.829446 
L 358.242002 263.829446 
L 358.337548 263.106865 
L 358.424407 263.106865 
L 358.519953 262.384284 
L 359.941554 262.384284 
L 361.148902 262.022994 
L 361.253133 260.939123 
L 361.36605 260.939123 
L 361.481863 259.855252 
L 362.561817 259.855252 
L 362.8195 259.493962 
L 363.111927 259.493962 
L 363.114823 259.132671 
L 363.236426 259.132671 
L 363.323285 258.410091 
L 363.389878 258.410091 
L 363.476737 257.68751 
L 363.54333 257.68751 
L 363.546225 257.32622 
L 366.69054 257.32622 
L 366.707912 256.964929 
L 366.893212 256.964929 
L 366.9627 256.242349 
L 367.029292 256.242349 
L 367.101675 255.519768 
L 367.171163 255.519768 
L 367.174058 255.158478 
L 367.330405 255.158478 
L 367.396998 254.435897 
L 367.504124 254.435897 
L 367.582298 254.074607 
L 369.296326 254.074607 
L 369.342651 253.713317 
L 370.069376 253.713317 
L 370.188084 252.629446 
L 370.327059 252.629446 
L 370.335745 252.268155 
L 370.515255 252.268155 
L 370.599219 251.545575 
L 370.668707 251.545575 
L 370.746881 250.822994 
L 370.807682 250.822994 
L 370.917704 250.461704 
L 372.556454 250.461704 
L 374.148879 250.100413 
L 374.229948 249.377833 
L 374.316808 249.377833 
L 374.400772 248.655252 
L 374.461573 248.655252 
L 374.533956 247.932671 
L 376.340635 247.932671 
L 376.551993 246.8488 
L 376.624376 246.8488 
L 376.719921 246.12622 
L 376.806781 246.12622 
L 376.925489 245.764929 
L 376.93707 245.764929 
L 377.047092 245.403639 
L 377.058674 245.403639 
L 377.061569 245.042349 
L 388.634155 245.042349 
L 388.718119 244.319768 
L 391.477357 244.319768 
L 391.584484 243.235897 
L 391.648181 243.235897 
L 391.772679 242.152026 
L 391.850853 242.152026 
L 391.92034 241.429446 
L 391.986933 241.429446 
L 391.992723 241.068155 
L 394.236595 241.068155 
L 394.317664 240.345575 
L 394.372675 240.345575 
L 394.390047 239.622994 
L 400.56576 239.622994 
L 400.672886 238.900413 
L 400.739479 238.900413 
L 400.814757 238.177833 
L 400.869768 238.177833 
L 400.93636 237.455252 
L 401.060859 237.455252 
L 401.063754 237.093962 
L 401.831014 237.093962 
L 401.906292 236.371381 
L 401.98157 236.371381 
L 401.987361 236.010091 
L 409.888683 236.010091 
L 409.900265 235.6488 
L 410.091356 235.6488 
L 410.097146 235.28751 
L 410.256389 235.28751 
L 410.36062 234.564929 
L 410.476433 234.564929 
L 410.482224 234.203639 
L 410.621199 234.203639 
L 410.72543 233.481058 
L 410.789127 233.481058 
L 410.887568 232.758478 
L 410.988904 232.758478 
L 411.075764 232.035897 
L 413.641015 232.035897 
L 413.751037 231.674607 
L 413.762619 231.674607 
L 413.852374 230.952026 
L 413.933443 230.952026 
L 414.026093 230.229446 
L 414.112952 230.229446 
L 414.199812 229.506865 
L 415.18422 229.506865 
L 415.853038 229.145575 
L 416.19179 229.145575 
L 416.301813 228.061704 
L 416.368405 228.061704 
L 416.440788 227.339123 
L 416.498694 227.339123 
L 416.60003 226.977833 
L 419.321629 226.977833 
L 419.515615 226.616542 
L 430.12406 226.616542 
L 430.236978 226.255252 
L 430.248559 226.255252 
L 430.329628 225.532671 
L 430.387534 225.532671 
L 430.497556 224.810091 
L 430.57573 224.810091 
L 430.691543 224.08751 
L 430.795774 224.08751 
L 430.859471 223.364929 
L 430.926063 223.364929 
L 430.998446 222.642349 
L 431.062143 222.642349 
L 431.151898 221.919768 
L 431.308245 221.919768 
L 431.395105 221.197187 
L 431.464592 221.197187 
L 431.539871 220.474607 
L 431.612254 220.474607 
L 431.618044 220.113317 
L 435.477503 220.113317 
L 435.483294 219.752026 
L 437.029394 219.752026 
L 437.035184 219.390736 
L 448.720687 219.390736 
L 448.801756 218.668155 
L 448.894406 218.668155 
L 449.001533 217.945575 
L 449.11445 217.945575 
L 449.207101 217.222994 
L 461.755408 217.222994 
L 461.839373 216.500413 
L 461.911756 216.500413 
L 461.987034 215.777833 
L 462.073893 215.777833 
L 462.160753 215.055252 
L 462.218659 215.055252 
L 462.3171 214.332671 
L 462.383692 214.332671 
L 462.386588 213.971381 
L 474.283449 213.971381 
L 474.364518 213.2488 
L 474.428215 213.2488 
L 474.506389 212.52622 
L 474.56719 212.52622 
L 474.65984 212.164929 
L 486.333762 211.803639 
L 486.44668 211.442349 
L 486.458261 211.442349 
L 486.571178 211.081058 
L 486.576969 211.081058 
L 486.579864 210.719768 
L 499.837525 210.719768 
L 499.872269 209.997187 
L 500.031511 209.997187 
L 500.034407 209.635897 
L 500.442646 209.635897 
L 500.543983 208.913317 
L 516.479812 208.913317 
L 516.485603 208.552026 
L 516.740391 208.552026 
L 516.812774 207.829446 
L 516.873576 207.829446 
L 516.943063 207.106865 
L 527.169326 207.106865 
L 527.180907 206.745575 
L 527.308301 206.745575 
L 527.412533 206.384284 
L 527.47623 206.384284 
L 527.551508 205.661704 
L 527.600728 205.661704 
L 527.722332 204.577833 
L 527.791819 204.577833 
L 527.794715 204.216542 
L 543.443908 204.216542 
L 543.54814 203.493962 
L 555.969053 203.493962 
L 556.041436 202.771381 
L 556.102238 202.771381 
L 556.183307 202.0488 
L 556.241213 202.0488 
L 556.313596 201.32622 
L 556.39756 201.32622 
L 556.467048 200.603639 
L 556.52785 200.603639 
L 556.617605 199.881058 
L 556.716045 199.881058 
L 556.788428 199.519768 
L 569.00667 199.519768 
L 569.119587 199.158478 
L 569.134064 199.158478 
L 569.241191 198.797187 
L 569.252772 198.797187 
L 569.325155 198.074607 
L 569.403328 198.074607 
L 569.50756 197.352026 
L 577.530486 197.352026 
L 577.623136 196.629446 
L 577.686833 196.629446 
L 577.689728 196.268155 
L 578.048748 196.268155 
L 578.144293 195.545575 
L 578.2022 195.545575 
L 578.271687 194.822994 
L 582.689942 194.822994 
L 582.797069 194.100413 
L 582.881033 194.100413 
L 582.950521 193.377833 
L 583.011323 193.377833 
L 583.089496 192.655252 
L 583.170565 192.655252 
L 583.245843 191.932671 
L 586.957641 191.932671 
L 587.08793 191.571381 
L 588.156303 191.571381 
L 588.379242 191.210091 
L 592.730905 191.210091 
L 592.843822 190.8488 
L 592.858299 190.8488 
L 592.930682 190.12622 
L 593.014646 190.12622 
L 593.087029 189.403639 
L 593.173889 189.403639 
L 593.249167 188.681058 
L 593.307073 188.681058 
L 593.408409 187.958478 
L 597.427111 187.958478 
L 597.496598 187.235897 
L 597.548714 187.235897 
L 597.623992 186.513317 
L 597.687689 186.513317 
L 597.760072 185.790736 
L 597.83535 185.790736 
L 597.904838 185.068155 
L 597.97143 185.068155 
L 598.049604 184.345575 
L 598.139359 184.345575 
L 598.226218 183.622994 
L 602.230443 183.622994 
L 602.233338 183.261704 
L 606.373643 183.261704 
L 606.440235 182.539123 
L 606.498142 182.539123 
L 606.564734 181.816542 
L 606.640012 181.816542 
L 606.726872 181.093962 
L 606.799255 181.093962 
L 606.874533 180.371381 
L 606.946916 180.371381 
L 607.022194 179.6488 
L 607.07431 179.6488 
L 607.155379 178.92622 
L 607.207494 178.92622 
L 607.239343 178.203639 
L 619.686315 178.203639 
L 619.721058 177.842349 
L 621.122392 177.842349 
L 621.212147 177.119768 
L 622.552679 177.119768 
L 623.806352 176.758478 
L 623.88163 176.035897 
L 625.213477 176.035897 
L 625.282964 175.313317 
L 625.372719 175.313317 
L 625.436416 174.590736 
L 626.866703 174.590736 
L 627.028841 173.868155 
L 629.353781 173.868155 
L 629.426164 173.145575 
L 629.47828 173.145575 
L 629.481175 172.784284 
L 631.232843 172.784284 
L 631.331283 172.061704 
L 631.38919 172.061704 
L 631.464468 171.339123 
L 631.52527 171.339123 
L 631.53106 170.977833 
L 633.436179 170.977833 
L 633.462237 170.616542 
L 633.598317 170.616542 
L 633.679386 169.893962 
L 635.045976 169.893962 
L 635.144417 169.171381 
L 635.2168 169.171381 
L 635.286288 168.4488 
L 635.358671 168.4488 
L 635.451321 167.72622 
L 636.687621 167.72622 
L 636.797644 167.364929 
L 637.863121 167.364929 
L 637.978933 166.281058 
L 638.033944 166.281058 
L 638.03684 165.919768 
L 639.441069 165.919768 
L 639.443964 165.558478 
L 640.67737 165.558478 
L 640.784496 164.474607 
L 640.81924 164.474607 
L 640.908995 163.752026 
L 640.99875 163.752026 
L 641.111667 162.668155 
L 643.147076 162.668155 
L 643.526362 160.139123 
L 647.380031 160.139123 
L 647.46689 159.416542 
L 647.851967 159.416542 
L 647.857758 159.055252 
L 658.941035 159.055252 
L 659.039476 158.332671 
L 659.111859 158.332671 
L 659.201614 157.610091 
L 659.294264 157.610091 
L 659.297159 157.2488 
L 659.586691 157.2488 
L 659.685132 156.88751 
L 659.971768 155.442349 
L 670.918965 155.442349 
L 671.011615 154.719768 
L 671.10137 154.719768 
L 671.165067 153.997187 
L 671.225869 153.997187 
L 671.301147 153.274607 
L 672.824084 153.274607 
L 672.829875 152.913317 
L 674.066176 152.913317 
L 674.066176 152.913317 
L 674.15014 152.190736 
L 674.222523 152.190736 
L 674.320964 151.468155 
L 674.384661 151.468155 
L 674.451253 150.745575 
L 674.526531 150.745575 
L 674.604705 150.022994 
L 674.671297 150.022994 
L 674.74368 149.661704 
L 674.937666 148.577833 
L 677.641893 148.577833 
L 677.746125 147.855252 
L 677.809822 147.855252 
L 677.815612 147.493962 
L 682.16438 147.493962 
L 682.288879 146.771381 
L 693.916475 146.771381 
L 694.003335 146.0488 
L 694.084404 146.0488 
L 694.171263 145.32622 
L 694.275495 145.32622 
L 694.353668 144.603639 
L 694.602666 144.603639 
L 694.704002 143.881058 
L 694.770594 143.881058 
L 694.845872 143.158478 
L 694.935627 143.158478 
L 694.938523 142.797187 
L 705.080821 142.797187 
L 705.208215 142.074607 
L 705.335609 141.352026 
L 705.98416 141.352026 
L 706.12024 140.990736 
L 724.844261 140.990736 
L 724.852947 140.629446 
L 730.246925 140.629446 
L 730.374318 139.906865 
L 730.440911 139.906865 
L 730.513294 139.184284 
L 730.579886 139.184284 
L 730.655164 138.461704 
L 730.747815 138.461704 
L 730.75071 138.100413 
L 745.007255 138.100413 
L 745.105696 137.377833 
L 745.163602 137.377833 
L 745.262043 136.655252 
L 745.331531 136.655252 
L 745.337321 136.293962 
L 763.398315 136.293962 
L 763.404105 135.932671 
L 763.519918 135.932671 
L 763.609673 135.210091 
L 763.670474 135.210091 
L 763.739962 134.48751 
L 763.812345 134.48751 
L 763.878937 133.764929 
L 763.948425 133.764929 
L 764.035285 133.403639 
L 775.929251 133.403639 
L 776.010319 132.681058 
L 776.06533 132.681058 
L 776.279584 131.597187 
L 776.334595 131.597187 
L 776.528581 130.513317 
L 790.955951 130.513317 
L 791.22232 129.068155 
L 802.424305 129.068155 
L 802.537222 128.345575 
L 802.632768 128.345575 
L 802.734104 127.622994 
L 802.826754 127.622994 
L 802.910718 126.900413 
L 802.965729 126.900413 
L 803.058379 126.177833 
L 803.1076 126.177833 
L 803.185773 125.455252 
L 816.388423 125.455252 
L 816.463701 124.732671 
L 816.562142 124.732671 
L 816.634525 124.010091 
L 816.692431 124.010091 
L 816.76771 123.28751 
L 826.701545 123.28751 
L 826.771033 122.564929 
L 826.872369 122.564929 
L 826.967915 121.842349 
L 827.043193 121.842349 
L 827.095309 121.119768 
L 827.170587 121.119768 
L 827.231389 120.758478 
L 827.376155 120.035897 
L 838.960322 120.035897 
L 839.238272 118.952026 
L 840.075019 118.952026 
L 840.077914 118.590736 
L 846.033583 118.590736 
L 846.129129 117.868155 
L 846.201512 117.868155 
L 846.27679 117.145575 
L 846.433137 117.145575 
L 846.557636 116.422994 
L 846.647391 116.422994 
L 846.653181 116.061704 
L 852.362748 116.061704 
L 852.458294 115.700413 
L 854.279449 115.700413 
L 854.288135 115.339123 
L 854.444482 115.339123 
L 854.545818 114.616542 
L 854.60662 114.616542 
L 854.670316 113.893962 
L 854.762967 113.893962 
L 854.765862 113.532671 
L 859.488126 113.532671 
L 859.566299 112.810091 
L 859.62131 112.810091 
L 859.690798 112.08751 
L 859.745809 112.08751 
L 859.818192 111.364929 
L 859.896365 111.364929 
L 859.960062 110.642349 
L 860.020864 110.642349 
L 860.139572 109.919768 
L 868.234881 109.919768 
L 868.344903 109.197187 
L 868.428867 109.197187 
L 868.49546 108.835897 
L 869.303253 108.835897 
L 869.309044 108.474607 
L 870.380311 108.474607 
L 870.386102 108.113317 
L 870.973852 108.113317 
L 871.046235 107.390736 
L 871.124408 107.390736 
L 871.124408 107.390736 
L 871.231535 106.668155 
L 871.318394 106.668155 
L 871.384987 105.945575 
L 876.362038 105.945575 
L 876.807917 105.584284 
L 876.888986 104.861704 
L 876.952683 104.861704 
L 877.027961 104.139123 
L 877.097449 104.139123 
L 877.184309 103.416542 
L 877.265377 103.416542 
L 877.334865 102.693962 
L 882.720156 102.693962 
L 882.807016 101.971381 
L 882.896771 101.971381 
L 883.012584 101.610091 
L 883.111024 100.88751 
L 883.177617 100.88751 
L 883.238418 100.52622 
L 885.780507 100.52622 
L 885.864472 99.803639 
L 885.945541 99.803639 
L 886.020819 99.081058 
L 886.087411 99.081058 
L 886.151108 98.358478 
L 886.229282 98.358478 
L 886.301665 97.635897 
L 886.374048 97.635897 
L 886.469593 96.913317 
L 886.536185 96.913317 
L 886.608568 96.190736 
L 890.334843 96.190736 
L 890.40433 95.829446 
L 893.493634 95.829446 
L 893.563122 95.106865 
L 893.615238 95.106865 
L 893.678935 94.384284 
L 893.739736 94.384284 
L 893.800538 93.661704 
L 893.858444 93.661704 
L 893.919246 92.939123 
L 894.000315 92.939123 
L 894.119023 91.855252 
L 894.176929 91.855252 
L 894.179825 91.493962 
L 897.292291 91.493962 
L 897.382046 90.771381 
L 897.454429 90.771381 
L 897.529708 90.0488 
L 897.607881 90.0488 
L 897.680264 89.32622 
L 897.746856 89.32622 
L 897.822135 88.603639 
L 910.358861 88.603639 
L 910.431244 87.881058 
L 910.494941 87.881058 
L 910.578905 87.158478 
L 910.648393 87.158478 
L 910.651288 86.797188 
L 915.205623 86.797188 
L 915.295378 86.074607 
L 915.361971 86.074607 
L 915.422772 85.352026 
L 915.506736 85.352026 
L 915.509632 84.990736 
L 916.016312 84.990736 
L 916.088695 84.268155 
L 916.158183 84.268155 
L 916.233461 83.545575 
L 916.300054 83.545575 
L 916.369541 82.822994 
L 920.463521 82.822994 
L 920.573543 82.100413 
L 920.669088 82.100413 
L 920.747262 81.377833 
L 920.82254 81.377833 
L 920.894923 80.655252 
L 920.967306 80.655252 
L 921.05127 79.932671 
L 921.126549 79.932671 
L 921.23078 79.210091 
L 930.672412 79.210091 
L 930.762167 78.8488 
L 932.004258 78.8488 
L 932.085327 78.12622 
L 932.143233 78.12622 
L 932.261941 77.042349 
L 934.595567 77.042349 
L 934.679532 76.319768 
L 947.427616 76.319768 
L 947.514476 75.597187 
L 947.601336 75.597187 
L 947.604231 75.235897 
L 960.401536 75.235897 
L 960.407327 74.874607 
L 960.682382 74.874607 
L 960.75187 74.152026 
L 960.812671 74.152026 
L 960.882159 73.429446 
L 960.957437 73.429446 
L 961.021134 72.706865 
L 961.093517 72.706865 
L 961.1659 71.984284 
L 961.39463 71.984284 
L 961.498862 71.261704 
L 961.585721 71.261704 
L 961.597302 70.900413 
L 979.499053 70.900413 
L 979.777004 70.539123 
L 995.423302 70.539123 
L 995.515952 69.816542 
L 995.64045 69.816542 
L 995.724415 69.093962 
L 995.782321 69.093962 
L 995.866285 68.371381 
L 995.929982 68.371381 
L 996.034214 67.6488 
L 996.095015 67.6488 
L 996.164503 66.92622 
L 996.2282 66.92622 
L 996.294792 66.203639 
L 1011.836859 66.203639 
L 1011.938195 65.842349 
L 1020.54887 65.842349 
L 1020.629939 65.119768 
L 1020.702322 65.119768 
L 1020.766019 64.397187 
L 1032.031701 64.397187 
L 1032.037492 64.035897 
L 1032.159095 64.035897 
L 1032.243059 63.313317 
L 1032.312547 63.313317 
L 1032.379139 62.590736 
L 1032.437046 62.590736 
L 1032.500743 61.868155 
L 1032.561544 61.868155 
L 1032.633927 61.145575 
L 1050.981557 61.145575 
L 1051.062626 60.422994 
L 1051.120532 60.422994 
L 1051.19581 59.700413 
L 1051.268193 59.700413 
L 1051.337681 58.977833 
L 1065.915607 58.977833 
L 1066.016943 58.255252 
L 1066.083535 58.255252 
L 1066.164604 57.532671 
L 1069.106247 57.532671 
L 1069.190211 56.810091 
L 1079.540973 56.810091 
L 1079.622042 56.08751 
L 1079.677053 56.08751 
L 1079.749436 55.364929 
L 1079.844981 55.364929 
L 1079.917364 54.642349 
L 1083.837625 54.642349 
L 1083.947647 53.919768 
L 1084.060564 53.919768 
L 1084.063459 53.558478 
L 1087.859221 53.558478 
L 1087.873698 53.197187 
L 1091.730261 53.197187 
L 1091.80554 52.835897 
L 1091.880818 52.835897 
L 1091.944515 52.113317 
L 1092.931818 52.113317 
L 1093.024468 51.390736 
L 1094.883262 51.390736 
L 1094.894844 51.029446 
L 1095.164108 51.029446 
L 1095.256758 50.306865 
L 1099.675014 50.306865 
L 1099.811094 49.222994 
L 1099.880581 49.222994 
L 1099.970336 48.500413 
L 1100.034033 48.500413 
L 1100.106416 47.777833 
L 1100.161427 47.777833 
L 1100.245391 47.055252 
L 1100.311984 47.055252 
L 1100.384366 46.332671 
L 1100.59862 46.332671 
L 1100.601515 45.971381 
L 1100.879466 45.971381 
L 1100.995279 45.2488 
L 1107.254956 45.2488 
L 1107.350501 44.52622 
L 1107.42578 44.52622 
L 1107.51843 43.803639 
L 1107.576336 43.803639 
L 1107.663196 43.081058 
L 1107.726893 43.081058 
L 1107.793485 42.358478 
L 1107.865868 42.358478 
L 1107.871659 41.997187 
L 1114.507727 41.997187 
L 1114.507727 41.997187 
" clip-path="url(#p908da796e0)" style="fill: none; stroke: #0000ff; stroke-width: 1.5; stroke-linecap: square"/>
   </g>
   <g id="patch_149">
    <path d="M 49.235 359.517187 
L 49.235 26.877187 
" style="fill: none; stroke: #000000; stroke-width: 0.8; stroke-linejoin: miter; stroke-linecap: square"/>
   </g>
   <g id="patch_150">
    <path d="M 1165.235 359.517187 
L 1165.235 26.877187 
" style="fill: none; stroke: #000000; stroke-width: 0.8; stroke-linejoin: miter; stroke-linecap: square"/>
   </g>
   <g id="patch_151">
    <path d="M 49.235 359.517187 
L 1165.235 359.517187 
" style="fill: none; stroke: #000000; stroke-width: 0.8; stroke-linejoin: miter; stroke-linecap: square"/>
   </g>
   <g id="patch_152">
    <path d="M 49.235 26.877187 
L 1165.235 26.877187 
" style="fill: none; stroke: #000000; stroke-width: 0.8; stroke-linejoin: miter; stroke-linecap: square"/>
   </g>
   <g id="text_17">
    <!-- Pellet Count and Cumulative Sum Over Time of Group 12 Mouse 1 -->
    <g transform="translate(309.734375 20.877187) scale(0.18 -0.18)">
     <defs>
      <path id="DejaVuSans-61" d="M 2194 1759 
Q 1497 1759 1228 1600 
Q 959 1441 959 1056 
Q 959 750 1161 570 
Q 1363 391 1709 391 
Q 2188 391 2477 730 
Q 2766 1069 2766 1631 
L 2766 1759 
L 2194 1759 
z
M 3341 1997 
L 3341 0 
L 2766 0 
L 2766 531 
Q 2569 213 2275 61 
Q 1981 -91 1556 -91 
Q 1019 -91 701 211 
Q 384 513 384 1019 
Q 384 1609 779 1909 
Q 1175 2209 1959 2209 
L 2766 2209 
L 2766 2266 
Q 2766 2663 2505 2880 
Q 2244 3097 1772 3097 
Q 1472 3097 1187 3025 
Q 903 2953 641 2809 
L 641 3341 
Q 956 3463 1253 3523 
Q 1550 3584 1831 3584 
Q 2591 3584 2966 3190 
Q 3341 2797 3341 1997 
z
" transform="scale(0.015625)"/>
      <path id="DejaVuSans-64" d="M 2906 2969 
L 2906 4863 
L 3481 4863 
L 3481 0 
L 2906 0 
L 2906 525 
Q 2725 213 2448 61 
Q 2172 -91 1784 -91 
Q 1150 -91 751 415 
Q 353 922 353 1747 
Q 353 2572 751 3078 
Q 1150 3584 1784 3584 
Q 2172 3584 2448 3432 
Q 2725 3281 2906 2969 
z
M 947 1747 
Q 947 1113 1208 752 
Q 1469 391 1925 391 
Q 2381 391 2643 752 
Q 2906 1113 2906 1747 
Q 2906 2381 2643 2742 
Q 2381 3103 1925 3103 
Q 1469 3103 1208 2742 
Q 947 2381 947 1747 
z
" transform="scale(0.015625)"/>
      <path id="DejaVuSans-76" d="M 191 3500 
L 800 3500 
L 1894 563 
L 2988 3500 
L 3597 3500 
L 2284 0 
L 1503 0 
L 191 3500 
z
" transform="scale(0.015625)"/>
      <path id="DejaVuSans-53" d="M 3425 4513 
L 3425 3897 
Q 3066 4069 2747 4153 
Q 2428 4238 2131 4238 
Q 1616 4238 1336 4038 
Q 1056 3838 1056 3469 
Q 1056 3159 1242 3001 
Q 1428 2844 1947 2747 
L 2328 2669 
Q 3034 2534 3370 2195 
Q 3706 1856 3706 1288 
Q 3706 609 3251 259 
Q 2797 -91 1919 -91 
Q 1588 -91 1214 -16 
Q 841 59 441 206 
L 441 856 
Q 825 641 1194 531 
Q 1563 422 1919 422 
Q 2459 422 2753 634 
Q 3047 847 3047 1241 
Q 3047 1584 2836 1778 
Q 2625 1972 2144 2069 
L 1759 2144 
Q 1053 2284 737 2584 
Q 422 2884 422 3419 
Q 422 4038 858 4394 
Q 1294 4750 2059 4750 
Q 2388 4750 2728 4690 
Q 3069 4631 3425 4513 
z
" transform="scale(0.015625)"/>
      <path id="DejaVuSans-4f" d="M 2522 4238 
Q 1834 4238 1429 3725 
Q 1025 3213 1025 2328 
Q 1025 1447 1429 934 
Q 1834 422 2522 422 
Q 3209 422 3611 934 
Q 4013 1447 4013 2328 
Q 4013 3213 3611 3725 
Q 3209 4238 2522 4238 
z
M 2522 4750 
Q 3503 4750 4090 4092 
Q 4678 3434 4678 2328 
Q 4678 1225 4090 567 
Q 3503 -91 2522 -91 
Q 1538 -91 948 565 
Q 359 1222 359 2328 
Q 359 3434 948 4092 
Q 1538 4750 2522 4750 
z
" transform="scale(0.015625)"/>
      <path id="DejaVuSans-72" d="M 2631 2963 
Q 2534 3019 2420 3045 
Q 2306 3072 2169 3072 
Q 1681 3072 1420 2755 
Q 1159 2438 1159 1844 
L 1159 0 
L 581 0 
L 581 3500 
L 1159 3500 
L 1159 2956 
Q 1341 3275 1631 3429 
Q 1922 3584 2338 3584 
Q 2397 3584 2469 3576 
Q 2541 3569 2628 3553 
L 2631 2963 
z
" transform="scale(0.015625)"/>
      <path id="DejaVuSans-66" d="M 2375 4863 
L 2375 4384 
L 1825 4384 
Q 1516 4384 1395 4259 
Q 1275 4134 1275 3809 
L 1275 3500 
L 2222 3500 
L 2222 3053 
L 1275 3053 
L 1275 0 
L 697 0 
L 697 3053 
L 147 3053 
L 147 3500 
L 697 3500 
L 697 3744 
Q 697 4328 969 4595 
Q 1241 4863 1831 4863 
L 2375 4863 
z
" transform="scale(0.015625)"/>
      <path id="DejaVuSans-47" d="M 3809 666 
L 3809 1919 
L 2778 1919 
L 2778 2438 
L 4434 2438 
L 4434 434 
Q 4069 175 3628 42 
Q 3188 -91 2688 -91 
Q 1594 -91 976 548 
Q 359 1188 359 2328 
Q 359 3472 976 4111 
Q 1594 4750 2688 4750 
Q 3144 4750 3555 4637 
Q 3966 4525 4313 4306 
L 4313 3634 
Q 3963 3931 3569 4081 
Q 3175 4231 2741 4231 
Q 1884 4231 1454 3753 
Q 1025 3275 1025 2328 
Q 1025 1384 1454 906 
Q 1884 428 2741 428 
Q 3075 428 3337 486 
Q 3600 544 3809 666 
z
" transform="scale(0.015625)"/>
      <path id="DejaVuSans-70" d="M 1159 525 
L 1159 -1331 
L 581 -1331 
L 581 3500 
L 1159 3500 
L 1159 2969 
Q 1341 3281 1617 3432 
Q 1894 3584 2278 3584 
Q 2916 3584 3314 3078 
Q 3713 2572 3713 1747 
Q 3713 922 3314 415 
Q 2916 -91 2278 -91 
Q 1894 -91 1617 61 
Q 1341 213 1159 525 
z
M 3116 1747 
Q 3116 2381 2855 2742 
Q 2594 3103 2138 3103 
Q 1681 3103 1420 2742 
Q 1159 2381 1159 1747 
Q 1159 1113 1420 752 
Q 1681 391 2138 391 
Q 2594 391 2855 752 
Q 3116 1113 3116 1747 
z
" transform="scale(0.015625)"/>
      <path id="DejaVuSans-4d" d="M 628 4666 
L 1569 4666 
L 2759 1491 
L 3956 4666 
L 4897 4666 
L 4897 0 
L 4281 0 
L 4281 4097 
L 3078 897 
L 2444 897 
L 1241 4097 
L 1241 0 
L 628 0 
L 628 4666 
z
" transform="scale(0.015625)"/>
      <path id="DejaVuSans-73" d="M 2834 3397 
L 2834 2853 
Q 2591 2978 2328 3040 
Q 2066 3103 1784 3103 
Q 1356 3103 1142 2972 
Q 928 2841 928 2578 
Q 928 2378 1081 2264 
Q 1234 2150 1697 2047 
L 1894 2003 
Q 2506 1872 2764 1633 
Q 3022 1394 3022 966 
Q 3022 478 2636 193 
Q 2250 -91 1575 -91 
Q 1294 -91 989 -36 
Q 684 19 347 128 
L 347 722 
Q 666 556 975 473 
Q 1284 391 1588 391 
Q 1994 391 2212 530 
Q 2431 669 2431 922 
Q 2431 1156 2273 1281 
Q 2116 1406 1581 1522 
L 1381 1569 
Q 847 1681 609 1914 
Q 372 2147 372 2553 
Q 372 3047 722 3315 
Q 1072 3584 1716 3584 
Q 2034 3584 2315 3537 
Q 2597 3491 2834 3397 
z
" transform="scale(0.015625)"/>
     </defs>
     <use xlink:href="#DejaVuSans-50"/>
     <use xlink:href="#DejaVuSans-65" x="56.677734"/>
     <use xlink:href="#DejaVuSans-6c" x="118.201172"/>
     <use xlink:href="#DejaVuSans-6c" x="145.984375"/>
     <use xlink:href="#DejaVuSans-65" x="173.767578"/>
     <use xlink:href="#DejaVuSans-74" x="235.291016"/>
     <use xlink:href="#DejaVuSans-20" x="274.5"/>
     <use xlink:href="#DejaVuSans-43" x="306.287109"/>
     <use xlink:href="#DejaVuSans-6f" x="376.111328"/>
     <use xlink:href="#DejaVuSans-75" x="437.292969"/>
     <use xlink:href="#DejaVuSans-6e" x="500.671875"/>
     <use xlink:href="#DejaVuSans-74" x="564.050781"/>
     <use xlink:href="#DejaVuSans-20" x="603.259766"/>
     <use xlink:href="#DejaVuSans-61" x="635.046875"/>
     <use xlink:href="#DejaVuSans-6e" x="696.326172"/>
     <use xlink:href="#DejaVuSans-64" x="759.705078"/>
     <use xlink:href="#DejaVuSans-20" x="823.181641"/>
     <use xlink:href="#DejaVuSans-43" x="854.96875"/>
     <use xlink:href="#DejaVuSans-75" x="924.792969"/>
     <use xlink:href="#DejaVuSans-6d" x="988.171875"/>
     <use xlink:href="#DejaVuSans-75" x="1085.583984"/>
     <use xlink:href="#DejaVuSans-6c" x="1148.962891"/>
     <use xlink:href="#DejaVuSans-61" x="1176.746094"/>
     <use xlink:href="#DejaVuSans-74" x="1238.025391"/>
     <use xlink:href="#DejaVuSans-69" x="1277.234375"/>
     <use xlink:href="#DejaVuSans-76" x="1305.017578"/>
     <use xlink:href="#DejaVuSans-65" x="1364.197266"/>
     <use xlink:href="#DejaVuSans-20" x="1425.720703"/>
     <use xlink:href="#DejaVuSans-53" x="1457.507812"/>
     <use xlink:href="#DejaVuSans-75" x="1520.984375"/>
     <use xlink:href="#DejaVuSans-6d" x="1584.363281"/>
     <use xlink:href="#DejaVuSans-20" x="1681.775391"/>
     <use xlink:href="#DejaVuSans-4f" x="1713.5625"/>
     <use xlink:href="#DejaVuSans-76" x="1792.273438"/>
     <use xlink:href="#DejaVuSans-65" x="1851.453125"/>
     <use xlink:href="#DejaVuSans-72" x="1912.976562"/>
     <use xlink:href="#DejaVuSans-20" x="1954.089844"/>
     <use xlink:href="#DejaVuSans-54" x="1985.876953"/>
     <use xlink:href="#DejaVuSans-69" x="2043.835938"/>
     <use xlink:href="#DejaVuSans-6d" x="2071.619141"/>
     <use xlink:href="#DejaVuSans-65" x="2169.03125"/>
     <use xlink:href="#DejaVuSans-20" x="2230.554688"/>
     <use xlink:href="#DejaVuSans-6f" x="2262.341797"/>
     <use xlink:href="#DejaVuSans-66" x="2323.523438"/>
     <use xlink:href="#DejaVuSans-20" x="2358.728516"/>
     <use xlink:href="#DejaVuSans-47" x="2390.515625"/>
     <use xlink:href="#DejaVuSans-72" x="2468.005859"/>
     <use xlink:href="#DejaVuSans-6f" x="2506.869141"/>
     <use xlink:href="#DejaVuSans-75" x="2568.050781"/>
     <use xlink:href="#DejaVuSans-70" x="2631.429688"/>
     <use xlink:href="#DejaVuSans-20" x="2694.90625"/>
     <use xlink:href="#DejaVuSans-31" x="2726.693359"/>
     <use xlink:href="#DejaVuSans-32" x="2790.316406"/>
     <use xlink:href="#DejaVuSans-20" x="2853.939453"/>
     <use xlink:href="#DejaVuSans-4d" x="2885.726562"/>
     <use xlink:href="#DejaVuSans-6f" x="2972.005859"/>
     <use xlink:href="#DejaVuSans-75" x="3033.1875"/>
     <use xlink:href="#DejaVuSans-73" x="3096.566406"/>
     <use xlink:href="#DejaVuSans-65" x="3148.666016"/>
     <use xlink:href="#DejaVuSans-20" x="3210.189453"/>
     <use xlink:href="#DejaVuSans-31" x="3241.976562"/>
    </g>
   </g>
   <g id="legend_1">
    <g id="patch_153">
     <path d="M 1086.550625 64.233437 
L 1158.235 64.233437 
Q 1160.235 64.233437 1160.235 62.233437 
L 1160.235 33.877187 
Q 1160.235 31.877187 1158.235 31.877187 
L 1086.550625 31.877187 
Q 1084.550625 31.877187 1084.550625 33.877187 
L 1084.550625 62.233437 
Q 1084.550625 64.233437 1086.550625 64.233437 
z
" style="fill: #ffffff; opacity: 0.8; stroke: #cccccc; stroke-linejoin: miter"/>
    </g>
    <g id="patch_154">
     <path d="M 1088.550625 43.475625 
L 1108.550625 43.475625 
L 1108.550625 36.475625 
L 1088.550625 36.475625 
z
" style="fill: #add8e6; opacity: 0.9; stroke: #add8e6; stroke-linejoin: miter"/>
    </g>
    <g id="text_18">
     <!-- Meal -->
     <g transform="translate(1116.550625 43.475625) scale(0.1 -0.1)">
      <use xlink:href="#DejaVuSans-4d"/>
      <use xlink:href="#DejaVuSans-65" x="86.279297"/>
      <use xlink:href="#DejaVuSans-61" x="147.802734"/>
      <use xlink:href="#DejaVuSans-6c" x="209.082031"/>
     </g>
    </g>
    <g id="patch_155">
     <path d="M 1088.550625 58.15375 
L 1108.550625 58.15375 
L 1108.550625 51.15375 
L 1088.550625 51.15375 
z
" style="fill: #808080; opacity: 0.5; stroke: #808080; stroke-linejoin: miter"/>
    </g>
    <g id="text_19">
     <!-- Inactive -->
     <g transform="translate(1116.550625 58.15375) scale(0.1 -0.1)">
      <defs>
       <path id="DejaVuSans-49" d="M 628 4666 
L 1259 4666 
L 1259 0 
L 628 0 
L 628 4666 
z
" transform="scale(0.015625)"/>
       <path id="DejaVuSans-63" d="M 3122 3366 
L 3122 2828 
Q 2878 2963 2633 3030 
Q 2388 3097 2138 3097 
Q 1578 3097 1268 2742 
Q 959 2388 959 1747 
Q 959 1106 1268 751 
Q 1578 397 2138 397 
Q 2388 397 2633 464 
Q 2878 531 3122 666 
L 3122 134 
Q 2881 22 2623 -34 
Q 2366 -91 2075 -91 
Q 1284 -91 818 406 
Q 353 903 353 1747 
Q 353 2603 823 3093 
Q 1294 3584 2113 3584 
Q 2378 3584 2631 3529 
Q 2884 3475 3122 3366 
z
" transform="scale(0.015625)"/>
      </defs>
      <use xlink:href="#DejaVuSans-49"/>
      <use xlink:href="#DejaVuSans-6e" x="29.492188"/>
      <use xlink:href="#DejaVuSans-61" x="92.871094"/>
      <use xlink:href="#DejaVuSans-63" x="154.150391"/>
      <use xlink:href="#DejaVuSans-74" x="209.130859"/>
      <use xlink:href="#DejaVuSans-69" x="248.339844"/>
      <use xlink:href="#DejaVuSans-76" x="276.123047"/>
      <use xlink:href="#DejaVuSans-65" x="335.302734"/>
     </g>
    </g>
   </g>
  </g>
 </g>
 <defs>
  <clipPath id="p908da796e0">
   <rect x="49.235" y="26.877187" width="1116" height="332.64"/>
  </clipPath>
 </defs>
</svg>
