<?xml version="1.0" encoding="utf-8" standalone="no"?>
<!DOCTYPE svg PUBLIC "-//W3C//DTD SVG 1.1//EN"
  "http://www.w3.org/Graphics/SVG/1.1/DTD/svg11.dtd">
<svg xmlns:xlink="http://www.w3.org/1999/xlink" width="1178.7975pt" height="399.009062pt" viewBox="0 0 1178.7975 399.009062" xmlns="http://www.w3.org/2000/svg" version="1.1">
 <metadata>
  <rdf:RDF xmlns:dc="http://purl.org/dc/elements/1.1/" xmlns:cc="http://creativecommons.org/ns#" xmlns:rdf="http://www.w3.org/1999/02/22-rdf-syntax-ns#">
   <cc:Work>
    <dc:type rdf:resource="http://purl.org/dc/dcmitype/StillImage"/>
    <dc:date>2025-01-10T11:51:38.822419</dc:date>
    <dc:format>image/svg+xml</dc:format>
    <dc:creator>
     <cc:Agent>
      <dc:title>Matplotlib v3.8.3, https://matplotlib.org/</dc:title>
     </cc:Agent>
    </dc:creator>
   </cc:Work>
  </rdf:RDF>
 </metadata>
 <defs>
  <style type="text/css">*{stroke-linejoin: round; stroke-linecap: butt}</style>
 </defs>
 <g id="figure_1">
  <g id="patch_1">
   <path d="M 0 399.009062 
L 1178.7975 399.009062 
L 1178.7975 0 
L 0 0 
z
" style="fill: #ffffff"/>
  </g>
  <g id="axes_1">
   <g id="patch_2">
    <path d="M 55.5975 359.517187 
L 1171.5975 359.517187 
L 1171.5975 26.877187 
L 55.5975 26.877187 
z
" style="fill: #ffffff"/>
   </g>
   <g id="patch_3">
    <path d="M 125.625278 359.517187 
L 125.625278 26.877187 
L 125.588106 26.877187 
L 125.588106 359.517187 
z
" clip-path="url(#p5fa8df4a41)" style="fill: #add8e6; stroke: #add8e6; stroke-linejoin: miter"/>
   </g>
   <g id="patch_4">
    <path d="M 125.885037 359.517187 
L 125.885037 26.877187 
L 125.866894 26.877187 
L 125.866894 359.517187 
z
" clip-path="url(#p5fa8df4a41)" style="fill: #add8e6; stroke: #add8e6; stroke-linejoin: miter"/>
   </g>
   <g id="patch_5">
    <path d="M 126.035494 359.517187 
L 126.035494 26.877187 
L 125.954513 26.877187 
L 125.954513 359.517187 
z
" clip-path="url(#p5fa8df4a41)" style="fill: #add8e6; stroke: #add8e6; stroke-linejoin: miter"/>
   </g>
   <g id="patch_6">
    <path d="M 126.50368 359.517187 
L 126.50368 26.877187 
L 126.550145 26.877187 
L 126.550145 359.517187 
z
" clip-path="url(#p5fa8df4a41)" style="fill: #add8e6; stroke: #add8e6; stroke-linejoin: miter"/>
   </g>
   <g id="patch_7">
    <path d="M 142.85125 359.517187 
L 142.85125 26.877187 
L 137.375509 26.877187 
L 137.375509 359.517187 
z
" clip-path="url(#p5fa8df4a41)" style="fill: #add8e6; stroke: #add8e6; stroke-linejoin: miter"/>
   </g>
   <g id="patch_8">
    <path d="M 152.827861 359.517187 
L 152.827861 26.877187 
L 146.454247 26.877187 
L 146.454247 359.517187 
z
" clip-path="url(#p5fa8df4a41)" style="fill: #add8e6; stroke: #add8e6; stroke-linejoin: miter"/>
   </g>
   <g id="patch_9">
    <path d="M 156.016217 359.517187 
L 156.016217 26.877187 
L 152.687582 26.877187 
L 152.687582 359.517187 
z
" clip-path="url(#p5fa8df4a41)" style="fill: #add8e6; stroke: #add8e6; stroke-linejoin: miter"/>
   </g>
   <g id="patch_10">
    <path d="M 160.899424 359.517187 
L 160.899424 26.877187 
L 159.497521 26.877187 
L 159.497521 359.517187 
z
" clip-path="url(#p5fa8df4a41)" style="fill: #add8e6; stroke: #add8e6; stroke-linejoin: miter"/>
   </g>
   <g id="patch_11">
    <path d="M 162.57923 359.517187 
L 162.57923 26.877187 
L 162.706233 26.877187 
L 162.706233 359.517187 
z
" clip-path="url(#p5fa8df4a41)" style="fill: #add8e6; stroke: #add8e6; stroke-linejoin: miter"/>
   </g>
   <g id="patch_12">
    <path d="M 172.061988 359.517187 
L 172.061988 26.877187 
L 171.957111 26.877187 
L 171.957111 359.517187 
z
" clip-path="url(#p5fa8df4a41)" style="fill: #add8e6; stroke: #add8e6; stroke-linejoin: miter"/>
   </g>
   <g id="patch_13">
    <path d="M 172.855427 359.517187 
L 172.855427 26.877187 
L 172.792589 26.877187 
L 172.792589 359.517187 
z
" clip-path="url(#p5fa8df4a41)" style="fill: #add8e6; stroke: #add8e6; stroke-linejoin: miter"/>
   </g>
   <g id="patch_14">
    <path d="M 173.583372 359.517187 
L 173.583372 26.877187 
L 173.686479 26.877187 
L 173.686479 359.517187 
z
" clip-path="url(#p5fa8df4a41)" style="fill: #add8e6; stroke: #add8e6; stroke-linejoin: miter"/>
   </g>
   <g id="patch_15">
    <path d="M 173.726306 359.517187 
L 173.726306 26.877187 
L 173.835608 26.877187 
L 173.835608 359.517187 
z
" clip-path="url(#p5fa8df4a41)" style="fill: #add8e6; stroke: #add8e6; stroke-linejoin: miter"/>
   </g>
   <g id="patch_16">
    <path d="M 182.312962 359.517187 
L 182.312962 26.877187 
L 176.615518 26.877187 
L 176.615518 359.517187 
z
" clip-path="url(#p5fa8df4a41)" style="fill: #add8e6; stroke: #add8e6; stroke-linejoin: miter"/>
   </g>
   <g id="patch_17">
    <path d="M 198.977376 359.517187 
L 198.977376 26.877187 
L 198.991094 26.877187 
L 198.991094 359.517187 
z
" clip-path="url(#p5fa8df4a41)" style="fill: #add8e6; stroke: #add8e6; stroke-linejoin: miter"/>
   </g>
   <g id="patch_18">
    <path d="M 203.28221 359.517187 
L 203.28221 26.877187 
L 203.389742 26.877187 
L 203.389742 359.517187 
z
" clip-path="url(#p5fa8df4a41)" style="fill: #add8e6; stroke: #add8e6; stroke-linejoin: miter"/>
   </g>
   <g id="patch_19">
    <path d="M 203.434879 359.517187 
L 203.434879 26.877187 
L 203.518515 26.877187 
L 203.518515 359.517187 
z
" clip-path="url(#p5fa8df4a41)" style="fill: #add8e6; stroke: #add8e6; stroke-linejoin: miter"/>
   </g>
   <g id="patch_20">
    <path d="M 212.163142 359.517187 
L 212.163142 26.877187 
L 205.912991 26.877187 
L 205.912991 359.517187 
z
" clip-path="url(#p5fa8df4a41)" style="fill: #add8e6; stroke: #add8e6; stroke-linejoin: miter"/>
   </g>
   <g id="patch_21">
    <path d="M 220.285594 359.517187 
L 220.285594 26.877187 
L 220.349317 26.877187 
L 220.349317 359.517187 
z
" clip-path="url(#p5fa8df4a41)" style="fill: #add8e6; stroke: #add8e6; stroke-linejoin: miter"/>
   </g>
   <g id="patch_22">
    <path d="M 225.69186 359.517187 
L 225.69186 26.877187 
L 225.734342 26.877187 
L 225.734342 359.517187 
z
" clip-path="url(#p5fa8df4a41)" style="fill: #add8e6; stroke: #add8e6; stroke-linejoin: miter"/>
   </g>
   <g id="patch_23">
    <path d="M 225.832139 359.517187 
L 225.832139 26.877187 
L 225.906039 26.877187 
L 225.906039 359.517187 
z
" clip-path="url(#p5fa8df4a41)" style="fill: #add8e6; stroke: #add8e6; stroke-linejoin: miter"/>
   </g>
   <g id="patch_24">
    <path d="M 233.877593 359.517187 
L 233.877593 26.877187 
L 233.338604 26.877187 
L 233.338604 359.517187 
z
" clip-path="url(#p5fa8df4a41)" style="fill: #add8e6; stroke: #add8e6; stroke-linejoin: miter"/>
   </g>
   <g id="patch_25">
    <path d="M 247.050083 359.517187 
L 247.050083 26.877187 
L 247.131949 26.877187 
L 247.131949 359.517187 
z
" clip-path="url(#p5fa8df4a41)" style="fill: #add8e6; stroke: #add8e6; stroke-linejoin: miter"/>
   </g>
   <g id="patch_26">
    <path d="M 247.191247 359.517187 
L 247.191247 26.877187 
L 247.226648 26.877187 
L 247.226648 359.517187 
z
" clip-path="url(#p5fa8df4a41)" style="fill: #add8e6; stroke: #add8e6; stroke-linejoin: miter"/>
   </g>
   <g id="patch_27">
    <path d="M 247.342146 359.517187 
L 247.342146 26.877187 
L 247.43596 26.877187 
L 247.43596 359.517187 
z
" clip-path="url(#p5fa8df4a41)" style="fill: #add8e6; stroke: #add8e6; stroke-linejoin: miter"/>
   </g>
   <g id="patch_28">
    <path d="M 258.514888 359.517187 
L 258.514888 26.877187 
L 257.089089 26.877187 
L 257.089089 359.517187 
z
" clip-path="url(#p5fa8df4a41)" style="fill: #add8e6; stroke: #add8e6; stroke-linejoin: miter"/>
   </g>
   <g id="patch_29">
    <path d="M 265.504932 359.517187 
L 265.504932 26.877187 
L 265.476169 26.877187 
L 265.476169 359.517187 
z
" clip-path="url(#p5fa8df4a41)" style="fill: #add8e6; stroke: #add8e6; stroke-linejoin: miter"/>
   </g>
   <g id="patch_30">
    <path d="M 269.991199 359.517187 
L 269.991199 26.877187 
L 270.064657 26.877187 
L 270.064657 359.517187 
z
" clip-path="url(#p5fa8df4a41)" style="fill: #add8e6; stroke: #add8e6; stroke-linejoin: miter"/>
   </g>
   <g id="patch_31">
    <path d="M 273.373821 359.517187 
L 273.373821 26.877187 
L 273.262749 26.877187 
L 273.262749 359.517187 
z
" clip-path="url(#p5fa8df4a41)" style="fill: #add8e6; stroke: #add8e6; stroke-linejoin: miter"/>
   </g>
   <g id="patch_32">
    <path d="M 277.175952 359.517187 
L 277.175952 26.877187 
L 276.69095 26.877187 
L 276.69095 359.517187 
z
" clip-path="url(#p5fa8df4a41)" style="fill: #add8e6; stroke: #add8e6; stroke-linejoin: miter"/>
   </g>
   <g id="patch_33">
    <path d="M 289.152753 359.517187 
L 289.152753 26.877187 
L 289.012917 26.877187 
L 289.012917 359.517187 
z
" clip-path="url(#p5fa8df4a41)" style="fill: #add8e6; stroke: #add8e6; stroke-linejoin: miter"/>
   </g>
   <g id="patch_34">
    <path d="M 297.668606 359.517187 
L 297.668606 26.877187 
L 297.80092 26.877187 
L 297.80092 359.517187 
z
" clip-path="url(#p5fa8df4a41)" style="fill: #add8e6; stroke: #add8e6; stroke-linejoin: miter"/>
   </g>
   <g id="patch_35">
    <path d="M 316.582349 359.517187 
L 316.582349 26.877187 
L 310.909686 26.877187 
L 310.909686 359.517187 
z
" clip-path="url(#p5fa8df4a41)" style="fill: #add8e6; stroke: #add8e6; stroke-linejoin: miter"/>
   </g>
   <g id="patch_36">
    <path d="M 319.976477 359.517187 
L 319.976477 26.877187 
L 315.989815 26.877187 
L 315.989815 359.517187 
z
" clip-path="url(#p5fa8df4a41)" style="fill: #add8e6; stroke: #add8e6; stroke-linejoin: miter"/>
   </g>
   <g id="patch_37">
    <path d="M 326.868724 359.517187 
L 326.868724 26.877187 
L 321.172608 26.877187 
L 321.172608 359.517187 
z
" clip-path="url(#p5fa8df4a41)" style="fill: #add8e6; stroke: #add8e6; stroke-linejoin: miter"/>
   </g>
   <g id="patch_38">
    <path d="M 329.233993 359.517187 
L 329.233993 26.877187 
L 322.721428 26.877187 
L 322.721428 359.517187 
z
" clip-path="url(#p5fa8df4a41)" style="fill: #add8e6; stroke: #add8e6; stroke-linejoin: miter"/>
   </g>
   <g id="patch_39">
    <path d="M 331.099214 359.517187 
L 331.099214 26.877187 
L 324.519386 26.877187 
L 324.519386 359.517187 
z
" clip-path="url(#p5fa8df4a41)" style="fill: #add8e6; stroke: #add8e6; stroke-linejoin: miter"/>
   </g>
   <g id="patch_40">
    <path d="M 336.617437 359.517187 
L 336.617437 26.877187 
L 330.246036 26.877187 
L 330.246036 359.517187 
z
" clip-path="url(#p5fa8df4a41)" style="fill: #add8e6; stroke: #add8e6; stroke-linejoin: miter"/>
   </g>
   <g id="patch_41">
    <path d="M 338.743745 359.517187 
L 338.743745 26.877187 
L 332.190468 26.877187 
L 332.190468 359.517187 
z
" clip-path="url(#p5fa8df4a41)" style="fill: #add8e6; stroke: #add8e6; stroke-linejoin: miter"/>
   </g>
   <g id="patch_42">
    <path d="M 341.666589 359.517187 
L 341.666589 26.877187 
L 335.602297 26.877187 
L 335.602297 359.517187 
z
" clip-path="url(#p5fa8df4a41)" style="fill: #add8e6; stroke: #add8e6; stroke-linejoin: miter"/>
   </g>
   <g id="patch_43">
    <path d="M 349.813381 359.517187 
L 349.813381 26.877187 
L 344.5204 26.877187 
L 344.5204 359.517187 
z
" clip-path="url(#p5fa8df4a41)" style="fill: #add8e6; stroke: #add8e6; stroke-linejoin: miter"/>
   </g>
   <g id="patch_44">
    <path d="M 364.666561 359.517187 
L 364.666561 26.877187 
L 358.057084 26.877187 
L 358.057084 359.517187 
z
" clip-path="url(#p5fa8df4a41)" style="fill: #add8e6; stroke: #add8e6; stroke-linejoin: miter"/>
   </g>
   <g id="patch_45">
    <path d="M 375.745047 359.517187 
L 375.745047 26.877187 
L 369.494453 26.877187 
L 369.494453 359.517187 
z
" clip-path="url(#p5fa8df4a41)" style="fill: #add8e6; stroke: #add8e6; stroke-linejoin: miter"/>
   </g>
   <g id="patch_46">
    <path d="M 382.646144 359.517187 
L 382.646144 26.877187 
L 376.757532 26.877187 
L 376.757532 359.517187 
z
" clip-path="url(#p5fa8df4a41)" style="fill: #add8e6; stroke: #add8e6; stroke-linejoin: miter"/>
   </g>
   <g id="patch_47">
    <path d="M 401.536434 359.517187 
L 401.536434 26.877187 
L 398.590579 26.877187 
L 398.590579 359.517187 
z
" clip-path="url(#p5fa8df4a41)" style="fill: #add8e6; stroke: #add8e6; stroke-linejoin: miter"/>
   </g>
   <g id="patch_48">
    <path d="M 403.939317 359.517187 
L 403.939317 26.877187 
L 403.825589 26.877187 
L 403.825589 359.517187 
z
" clip-path="url(#p5fa8df4a41)" style="fill: #add8e6; stroke: #add8e6; stroke-linejoin: miter"/>
   </g>
   <g id="patch_49">
    <path d="M 407.398495 359.517187 
L 407.398495 26.877187 
L 407.408673 26.877187 
L 407.408673 359.517187 
z
" clip-path="url(#p5fa8df4a41)" style="fill: #add8e6; stroke: #add8e6; stroke-linejoin: miter"/>
   </g>
   <g id="patch_50">
    <path d="M 418.80179 359.517187 
L 418.80179 26.877187 
L 418.923926 26.877187 
L 418.923926 359.517187 
z
" clip-path="url(#p5fa8df4a41)" style="fill: #add8e6; stroke: #add8e6; stroke-linejoin: miter"/>
   </g>
   <g id="patch_51">
    <path d="M 421.499391 359.517187 
L 421.499391 26.877187 
L 419.159789 26.877187 
L 419.159789 359.517187 
z
" clip-path="url(#p5fa8df4a41)" style="fill: #add8e6; stroke: #add8e6; stroke-linejoin: miter"/>
   </g>
   <g id="patch_52">
    <path d="M 433.206698 359.517187 
L 433.206698 26.877187 
L 433.281484 26.877187 
L 433.281484 359.517187 
z
" clip-path="url(#p5fa8df4a41)" style="fill: #add8e6; stroke: #add8e6; stroke-linejoin: miter"/>
   </g>
   <g id="patch_53">
    <path d="M 433.385033 359.517187 
L 433.385033 26.877187 
L 433.469997 26.877187 
L 433.469997 359.517187 
z
" clip-path="url(#p5fa8df4a41)" style="fill: #add8e6; stroke: #add8e6; stroke-linejoin: miter"/>
   </g>
   <g id="patch_54">
    <path d="M 440.487478 359.517187 
L 440.487478 26.877187 
L 440.575982 26.877187 
L 440.575982 359.517187 
z
" clip-path="url(#p5fa8df4a41)" style="fill: #add8e6; stroke: #add8e6; stroke-linejoin: miter"/>
   </g>
   <g id="patch_55">
    <path d="M 440.666698 359.517187 
L 440.666698 26.877187 
L 440.731749 26.877187 
L 440.731749 359.517187 
z
" clip-path="url(#p5fa8df4a41)" style="fill: #add8e6; stroke: #add8e6; stroke-linejoin: miter"/>
   </g>
   <g id="patch_56">
    <path d="M 453.903353 359.517187 
L 453.903353 26.877187 
L 453.958668 26.877187 
L 453.958668 359.517187 
z
" clip-path="url(#p5fa8df4a41)" style="fill: #add8e6; stroke: #add8e6; stroke-linejoin: miter"/>
   </g>
   <g id="patch_57">
    <path d="M 467.448002 359.517187 
L 467.448002 26.877187 
L 467.513053 26.877187 
L 467.513053 359.517187 
z
" clip-path="url(#p5fa8df4a41)" style="fill: #add8e6; stroke: #add8e6; stroke-linejoin: miter"/>
   </g>
   <g id="patch_58">
    <path d="M 476.62321 359.517187 
L 476.62321 26.877187 
L 476.713927 26.877187 
L 476.713927 359.517187 
z
" clip-path="url(#p5fa8df4a41)" style="fill: #add8e6; stroke: #add8e6; stroke-linejoin: miter"/>
   </g>
   <g id="patch_59">
    <path d="M 484.1903 359.517187 
L 484.1903 26.877187 
L 484.193398 26.877187 
L 484.193398 359.517187 
z
" clip-path="url(#p5fa8df4a41)" style="fill: #add8e6; stroke: #add8e6; stroke-linejoin: miter"/>
   </g>
   <g id="patch_60">
    <path d="M 490.000586 359.517187 
L 490.000586 26.877187 
L 490.047494 26.877187 
L 490.047494 359.517187 
z
" clip-path="url(#p5fa8df4a41)" style="fill: #add8e6; stroke: #add8e6; stroke-linejoin: miter"/>
   </g>
   <g id="patch_61">
    <path d="M 490.139538 359.517187 
L 490.139538 26.877187 
L 490.152371 26.877187 
L 490.152371 359.517187 
z
" clip-path="url(#p5fa8df4a41)" style="fill: #add8e6; stroke: #add8e6; stroke-linejoin: miter"/>
   </g>
   <g id="patch_62">
    <path d="M 508.133724 359.517187 
L 508.133724 26.877187 
L 501.579562 26.877187 
L 501.579562 359.517187 
z
" clip-path="url(#p5fa8df4a41)" style="fill: #add8e6; stroke: #add8e6; stroke-linejoin: miter"/>
   </g>
   <g id="patch_63">
    <path d="M 511.618568 359.517187 
L 511.618568 26.877187 
L 505.012631 26.877187 
L 505.012631 359.517187 
z
" clip-path="url(#p5fa8df4a41)" style="fill: #add8e6; stroke: #add8e6; stroke-linejoin: miter"/>
   </g>
   <g id="patch_64">
    <path d="M 515.166693 359.517187 
L 515.166693 26.877187 
L 515.040575 26.877187 
L 515.040575 359.517187 
z
" clip-path="url(#p5fa8df4a41)" style="fill: #add8e6; stroke: #add8e6; stroke-linejoin: miter"/>
   </g>
   <g id="patch_65">
    <path d="M 524.268 359.517187 
L 524.268 26.877187 
L 518.832085 26.877187 
L 518.832085 359.517187 
z
" clip-path="url(#p5fa8df4a41)" style="fill: #add8e6; stroke: #add8e6; stroke-linejoin: miter"/>
   </g>
   <g id="patch_66">
    <path d="M 528.586994 359.517187 
L 528.586994 26.877187 
L 524.123296 26.877187 
L 524.123296 359.517187 
z
" clip-path="url(#p5fa8df4a41)" style="fill: #add8e6; stroke: #add8e6; stroke-linejoin: miter"/>
   </g>
   <g id="patch_67">
    <path d="M 533.580831 359.517187 
L 533.580831 26.877187 
L 529.472476 26.877187 
L 529.472476 359.517187 
z
" clip-path="url(#p5fa8df4a41)" style="fill: #add8e6; stroke: #add8e6; stroke-linejoin: miter"/>
   </g>
   <g id="patch_68">
    <path d="M 537.804683 359.517187 
L 537.804683 26.877187 
L 537.086474 26.877187 
L 537.086474 359.517187 
z
" clip-path="url(#p5fa8df4a41)" style="fill: #add8e6; stroke: #add8e6; stroke-linejoin: miter"/>
   </g>
   <g id="patch_69">
    <path d="M 545.046521 359.517187 
L 545.046521 26.877187 
L 540.506267 26.877187 
L 540.506267 359.517187 
z
" clip-path="url(#p5fa8df4a41)" style="fill: #add8e6; stroke: #add8e6; stroke-linejoin: miter"/>
   </g>
   <g id="patch_70">
    <path d="M 549.752721 359.517187 
L 549.752721 26.877187 
L 547.78749 26.877187 
L 547.78749 359.517187 
z
" clip-path="url(#p5fa8df4a41)" style="fill: #add8e6; stroke: #add8e6; stroke-linejoin: miter"/>
   </g>
   <g id="patch_71">
    <path d="M 562.583585 359.517187 
L 562.583585 26.877187 
L 556.060842 26.877187 
L 556.060842 359.517187 
z
" clip-path="url(#p5fa8df4a41)" style="fill: #add8e6; stroke: #add8e6; stroke-linejoin: miter"/>
   </g>
   <g id="patch_72">
    <path d="M 563.882381 359.517187 
L 563.882381 26.877187 
L 561.887944 26.877187 
L 561.887944 359.517187 
z
" clip-path="url(#p5fa8df4a41)" style="fill: #add8e6; stroke: #add8e6; stroke-linejoin: miter"/>
   </g>
   <g id="patch_73">
    <path d="M 579.939215 359.517187 
L 579.939215 26.877187 
L 573.973605 26.877187 
L 573.973605 359.517187 
z
" clip-path="url(#p5fa8df4a41)" style="fill: #add8e6; stroke: #add8e6; stroke-linejoin: miter"/>
   </g>
   <g id="patch_74">
    <path d="M 593.360844 359.517187 
L 593.360844 26.877187 
L 592.210735 26.877187 
L 592.210735 359.517187 
z
" clip-path="url(#p5fa8df4a41)" style="fill: #add8e6; stroke: #add8e6; stroke-linejoin: miter"/>
   </g>
   <g id="patch_75">
    <path d="M 598.179886 359.517187 
L 598.179886 26.877187 
L 598.123686 26.877187 
L 598.123686 359.517187 
z
" clip-path="url(#p5fa8df4a41)" style="fill: #add8e6; stroke: #add8e6; stroke-linejoin: miter"/>
   </g>
   <g id="patch_76">
    <path d="M 625.86747 359.517187 
L 625.86747 26.877187 
L 624.415563 26.877187 
L 624.415563 359.517187 
z
" clip-path="url(#p5fa8df4a41)" style="fill: #add8e6; stroke: #add8e6; stroke-linejoin: miter"/>
   </g>
   <g id="patch_77">
    <path d="M 633.968682 359.517187 
L 633.968682 26.877187 
L 634.003199 26.877187 
L 634.003199 359.517187 
z
" clip-path="url(#p5fa8df4a41)" style="fill: #add8e6; stroke: #add8e6; stroke-linejoin: miter"/>
   </g>
   <g id="patch_78">
    <path d="M 665.675233 359.517187 
L 665.675233 26.877187 
L 659.261792 26.877187 
L 659.261792 359.517187 
z
" clip-path="url(#p5fa8df4a41)" style="fill: #add8e6; stroke: #add8e6; stroke-linejoin: miter"/>
   </g>
   <g id="patch_79">
    <path d="M 666.509825 359.517187 
L 666.509825 26.877187 
L 666.450085 26.877187 
L 666.450085 359.517187 
z
" clip-path="url(#p5fa8df4a41)" style="fill: #add8e6; stroke: #add8e6; stroke-linejoin: miter"/>
   </g>
   <g id="patch_80">
    <path d="M 684.311958 359.517187 
L 684.311958 26.877187 
L 684.430996 26.877187 
L 684.430996 359.517187 
z
" clip-path="url(#p5fa8df4a41)" style="fill: #add8e6; stroke: #add8e6; stroke-linejoin: miter"/>
   </g>
   <g id="patch_81">
    <path d="M 686.212139 359.517187 
L 686.212139 26.877187 
L 686.338699 26.877187 
L 686.338699 359.517187 
z
" clip-path="url(#p5fa8df4a41)" style="fill: #add8e6; stroke: #add8e6; stroke-linejoin: miter"/>
   </g>
   <g id="patch_82">
    <path d="M 694.989963 359.517187 
L 694.989963 26.877187 
L 688.306143 26.877187 
L 688.306143 359.517187 
z
" clip-path="url(#p5fa8df4a41)" style="fill: #add8e6; stroke: #add8e6; stroke-linejoin: miter"/>
   </g>
   <g id="patch_83">
    <path d="M 697.359657 359.517187 
L 697.359657 26.877187 
L 695.876331 26.877187 
L 695.876331 359.517187 
z
" clip-path="url(#p5fa8df4a41)" style="fill: #add8e6; stroke: #add8e6; stroke-linejoin: miter"/>
   </g>
   <g id="patch_84">
    <path d="M 710.65738 359.517187 
L 710.65738 26.877187 
L 704.089943 26.877187 
L 704.089943 359.517187 
z
" clip-path="url(#p5fa8df4a41)" style="fill: #add8e6; stroke: #add8e6; stroke-linejoin: miter"/>
   </g>
   <g id="patch_85">
    <path d="M 713.790421 359.517187 
L 713.790421 26.877187 
L 707.239357 26.877187 
L 707.239357 359.517187 
z
" clip-path="url(#p5fa8df4a41)" style="fill: #add8e6; stroke: #add8e6; stroke-linejoin: miter"/>
   </g>
   <g id="patch_86">
    <path d="M 721.030047 359.517187 
L 721.030047 26.877187 
L 715.921155 26.877187 
L 715.921155 359.517187 
z
" clip-path="url(#p5fa8df4a41)" style="fill: #add8e6; stroke: #add8e6; stroke-linejoin: miter"/>
   </g>
   <g id="patch_87">
    <path d="M 726.229656 359.517187 
L 726.229656 26.877187 
L 725.010513 26.877187 
L 725.010513 359.517187 
z
" clip-path="url(#p5fa8df4a41)" style="fill: #add8e6; stroke: #add8e6; stroke-linejoin: miter"/>
   </g>
   <g id="patch_88">
    <path d="M 734.858794 359.517187 
L 734.858794 26.877187 
L 734.475129 26.877187 
L 734.475129 359.517187 
z
" clip-path="url(#p5fa8df4a41)" style="fill: #add8e6; stroke: #add8e6; stroke-linejoin: miter"/>
   </g>
   <g id="patch_89">
    <path d="M 756.582095 359.517187 
L 756.582095 26.877187 
L 756.701576 26.877187 
L 756.701576 359.517187 
z
" clip-path="url(#p5fa8df4a41)" style="fill: #add8e6; stroke: #add8e6; stroke-linejoin: miter"/>
   </g>
   <g id="patch_90">
    <path d="M 766.344084 359.517187 
L 766.344084 26.877187 
L 766.324613 26.877187 
L 766.324613 359.517187 
z
" clip-path="url(#p5fa8df4a41)" style="fill: #add8e6; stroke: #add8e6; stroke-linejoin: miter"/>
   </g>
   <g id="patch_91">
    <path d="M 766.624199 359.517187 
L 766.624199 26.877187 
L 766.679072 26.877187 
L 766.679072 359.517187 
z
" clip-path="url(#p5fa8df4a41)" style="fill: #add8e6; stroke: #add8e6; stroke-linejoin: miter"/>
   </g>
   <g id="patch_92">
    <path d="M 774.43025 359.517187 
L 774.43025 26.877187 
L 774.531145 26.877187 
L 774.531145 359.517187 
z
" clip-path="url(#p5fa8df4a41)" style="fill: #add8e6; stroke: #add8e6; stroke-linejoin: miter"/>
   </g>
   <g id="patch_93">
    <path d="M 794.783068 359.517187 
L 794.783068 26.877187 
L 794.845906 26.877187 
L 794.845906 359.517187 
z
" clip-path="url(#p5fa8df4a41)" style="fill: #add8e6; stroke: #add8e6; stroke-linejoin: miter"/>
   </g>
   <g id="patch_94">
    <path d="M 794.978662 359.517187 
L 794.978662 26.877187 
L 794.982644 26.877187 
L 794.982644 359.517187 
z
" clip-path="url(#p5fa8df4a41)" style="fill: #add8e6; stroke: #add8e6; stroke-linejoin: miter"/>
   </g>
   <g id="patch_95">
    <path d="M 800.589814 359.517187 
L 800.589814 26.877187 
L 800.72257 26.877187 
L 800.72257 359.517187 
z
" clip-path="url(#p5fa8df4a41)" style="fill: #add8e6; stroke: #add8e6; stroke-linejoin: miter"/>
   </g>
   <g id="patch_96">
    <path d="M 800.759299 359.517187 
L 800.759299 26.877187 
L 800.861521 26.877187 
L 800.861521 359.517187 
z
" clip-path="url(#p5fa8df4a41)" style="fill: #add8e6; stroke: #add8e6; stroke-linejoin: miter"/>
   </g>
   <g id="patch_97">
    <path d="M 818.534881 359.517187 
L 818.534881 26.877187 
L 812.044884 26.877187 
L 812.044884 359.517187 
z
" clip-path="url(#p5fa8df4a41)" style="fill: #add8e6; stroke: #add8e6; stroke-linejoin: miter"/>
   </g>
   <g id="patch_98">
    <path d="M 820.327971 359.517187 
L 820.327971 26.877187 
L 820.296553 26.877187 
L 820.296553 359.517187 
z
" clip-path="url(#p5fa8df4a41)" style="fill: #add8e6; stroke: #add8e6; stroke-linejoin: miter"/>
   </g>
   <g id="patch_99">
    <path d="M 821.712174 359.517187 
L 821.712174 26.877187 
L 820.507635 26.877187 
L 820.507635 359.517187 
z
" clip-path="url(#p5fa8df4a41)" style="fill: #add8e6; stroke: #add8e6; stroke-linejoin: miter"/>
   </g>
   <g id="patch_100">
    <path d="M 832.03395 359.517187 
L 832.03395 26.877187 
L 832.126437 26.877187 
L 832.126437 359.517187 
z
" clip-path="url(#p5fa8df4a41)" style="fill: #add8e6; stroke: #add8e6; stroke-linejoin: miter"/>
   </g>
   <g id="patch_101">
    <path d="M 832.191487 359.517187 
L 832.191487 26.877187 
L 832.322916 26.877187 
L 832.322916 359.517187 
z
" clip-path="url(#p5fa8df4a41)" style="fill: #add8e6; stroke: #add8e6; stroke-linejoin: miter"/>
   </g>
   <g id="patch_102">
    <path d="M 850.458266 359.517187 
L 850.458266 26.877187 
L 844.024469 26.877187 
L 844.024469 359.517187 
z
" clip-path="url(#p5fa8df4a41)" style="fill: #add8e6; stroke: #add8e6; stroke-linejoin: miter"/>
   </g>
   <g id="patch_103">
    <path d="M 862.235933 359.517187 
L 862.235933 26.877187 
L 855.974719 26.877187 
L 855.974719 359.517187 
z
" clip-path="url(#p5fa8df4a41)" style="fill: #add8e6; stroke: #add8e6; stroke-linejoin: miter"/>
   </g>
   <g id="patch_104">
    <path d="M 864.035219 359.517187 
L 864.035219 26.877187 
L 864.091862 26.877187 
L 864.091862 359.517187 
z
" clip-path="url(#p5fa8df4a41)" style="fill: #add8e6; stroke: #add8e6; stroke-linejoin: miter"/>
   </g>
   <g id="patch_105">
    <path d="M 869.700359 359.517187 
L 869.700359 26.877187 
L 869.618493 26.877187 
L 869.618493 359.517187 
z
" clip-path="url(#p5fa8df4a41)" style="fill: #add8e6; stroke: #add8e6; stroke-linejoin: miter"/>
   </g>
   <g id="patch_106">
    <path d="M 903.715536 359.517187 
L 903.715536 26.877187 
L 897.188367 26.877187 
L 897.188367 359.517187 
z
" clip-path="url(#p5fa8df4a41)" style="fill: #add8e6; stroke: #add8e6; stroke-linejoin: miter"/>
   </g>
   <g id="patch_107">
    <path d="M 907.010096 359.517187 
L 907.010096 26.877187 
L 905.428088 26.877187 
L 905.428088 359.517187 
z
" clip-path="url(#p5fa8df4a41)" style="fill: #add8e6; stroke: #add8e6; stroke-linejoin: miter"/>
   </g>
   <g id="patch_108">
    <path d="M 914.599313 359.517187 
L 914.599313 26.877187 
L 910.470602 26.877187 
L 910.470602 359.517187 
z
" clip-path="url(#p5fa8df4a41)" style="fill: #add8e6; stroke: #add8e6; stroke-linejoin: miter"/>
   </g>
   <g id="patch_109">
    <path d="M 915.371952 359.517187 
L 915.371952 26.877187 
L 915.306902 26.877187 
L 915.306902 359.517187 
z
" clip-path="url(#p5fa8df4a41)" style="fill: #add8e6; stroke: #add8e6; stroke-linejoin: miter"/>
   </g>
   <g id="patch_110">
    <path d="M 926.270775 359.517187 
L 926.270775 26.877187 
L 924.606015 26.877187 
L 924.606015 359.517187 
z
" clip-path="url(#p5fa8df4a41)" style="fill: #add8e6; stroke: #add8e6; stroke-linejoin: miter"/>
   </g>
   <g id="patch_111">
    <path d="M 932.654125 359.517187 
L 932.654125 26.877187 
L 930.387538 26.877187 
L 930.387538 359.517187 
z
" clip-path="url(#p5fa8df4a41)" style="fill: #add8e6; stroke: #add8e6; stroke-linejoin: miter"/>
   </g>
   <g id="patch_112">
    <path d="M 938.586104 359.517187 
L 938.586104 26.877187 
L 932.219127 26.877187 
L 932.219127 359.517187 
z
" clip-path="url(#p5fa8df4a41)" style="fill: #add8e6; stroke: #add8e6; stroke-linejoin: miter"/>
   </g>
   <g id="patch_113">
    <path d="M 940.851806 359.517187 
L 940.851806 26.877187 
L 935.99338 26.877187 
L 935.99338 359.517187 
z
" clip-path="url(#p5fa8df4a41)" style="fill: #add8e6; stroke: #add8e6; stroke-linejoin: miter"/>
   </g>
   <g id="patch_114">
    <path d="M 944.927414 359.517187 
L 944.927414 26.877187 
L 938.294483 26.877187 
L 938.294483 359.517187 
z
" clip-path="url(#p5fa8df4a41)" style="fill: #add8e6; stroke: #add8e6; stroke-linejoin: miter"/>
   </g>
   <g id="patch_115">
    <path d="M 947.823707 359.517187 
L 947.823707 26.877187 
L 943.373284 26.877187 
L 943.373284 359.517187 
z
" clip-path="url(#p5fa8df4a41)" style="fill: #add8e6; stroke: #add8e6; stroke-linejoin: miter"/>
   </g>
   <g id="patch_116">
    <path d="M 953.049867 359.517187 
L 953.049867 26.877187 
L 946.469153 26.877187 
L 946.469153 359.517187 
z
" clip-path="url(#p5fa8df4a41)" style="fill: #add8e6; stroke: #add8e6; stroke-linejoin: miter"/>
   </g>
   <g id="patch_117">
    <path d="M 966.652928 359.517187 
L 966.652928 26.877187 
L 962.36314 26.877187 
L 962.36314 359.517187 
z
" clip-path="url(#p5fa8df4a41)" style="fill: #add8e6; stroke: #add8e6; stroke-linejoin: miter"/>
   </g>
   <g id="patch_118">
    <path d="M 969.346989 359.517187 
L 969.346989 26.877187 
L 969.46647 26.877187 
L 969.46647 359.517187 
z
" clip-path="url(#p5fa8df4a41)" style="fill: #add8e6; stroke: #add8e6; stroke-linejoin: miter"/>
   </g>
   <g id="patch_119">
    <path d="M 978.809835 359.517187 
L 978.809835 26.877187 
L 978.815588 26.877187 
L 978.815588 359.517187 
z
" clip-path="url(#p5fa8df4a41)" style="fill: #add8e6; stroke: #add8e6; stroke-linejoin: miter"/>
   </g>
   <g id="patch_120">
    <path d="M 988.319587 359.517187 
L 988.319587 26.877187 
L 988.438625 26.877187 
L 988.438625 359.517187 
z
" clip-path="url(#p5fa8df4a41)" style="fill: #add8e6; stroke: #add8e6; stroke-linejoin: miter"/>
   </g>
   <g id="patch_121">
    <path d="M 996.999173 359.517187 
L 996.999173 26.877187 
L 997.10228 26.877187 
L 997.10228 359.517187 
z
" clip-path="url(#p5fa8df4a41)" style="fill: #add8e6; stroke: #add8e6; stroke-linejoin: miter"/>
   </g>
   <g id="patch_122">
    <path d="M 997.203617 359.517187 
L 997.203617 26.877187 
L 997.223973 26.877187 
L 997.223973 359.517187 
z
" clip-path="url(#p5fa8df4a41)" style="fill: #add8e6; stroke: #add8e6; stroke-linejoin: miter"/>
   </g>
   <g id="patch_123">
    <path d="M 1001.351798 359.517187 
L 1001.351798 26.877187 
L 1001.456233 26.877187 
L 1001.456233 359.517187 
z
" clip-path="url(#p5fa8df4a41)" style="fill: #add8e6; stroke: #add8e6; stroke-linejoin: miter"/>
   </g>
   <g id="patch_124">
    <path d="M 1001.488094 359.517187 
L 1001.488094 26.877187 
L 1001.559783 26.877187 
L 1001.559783 359.517187 
z
" clip-path="url(#p5fa8df4a41)" style="fill: #add8e6; stroke: #add8e6; stroke-linejoin: miter"/>
   </g>
   <g id="patch_125">
    <path d="M 1006.030561 359.517187 
L 1006.030561 26.877187 
L 1006.155794 26.877187 
L 1006.155794 359.517187 
z
" clip-path="url(#p5fa8df4a41)" style="fill: #add8e6; stroke: #add8e6; stroke-linejoin: miter"/>
   </g>
   <g id="patch_126">
    <path d="M 1018.432181 359.517187 
L 1018.432181 26.877187 
L 1017.973731 26.877187 
L 1017.973731 359.517187 
z
" clip-path="url(#p5fa8df4a41)" style="fill: #add8e6; stroke: #add8e6; stroke-linejoin: miter"/>
   </g>
   <g id="patch_127">
    <path d="M 1031.421025 359.517187 
L 1031.421025 26.877187 
L 1031.439611 26.877187 
L 1031.439611 359.517187 
z
" clip-path="url(#p5fa8df4a41)" style="fill: #add8e6; stroke: #add8e6; stroke-linejoin: miter"/>
   </g>
   <g id="patch_128">
    <path d="M 1047.401746 359.517187 
L 1047.401746 26.877187 
L 1043.542973 26.877187 
L 1043.542973 359.517187 
z
" clip-path="url(#p5fa8df4a41)" style="fill: #add8e6; stroke: #add8e6; stroke-linejoin: miter"/>
   </g>
   <g id="patch_129">
    <path d="M 1055.993713 359.517187 
L 1055.993713 26.877187 
L 1056.124699 26.877187 
L 1056.124699 359.517187 
z
" clip-path="url(#p5fa8df4a41)" style="fill: #add8e6; stroke: #add8e6; stroke-linejoin: miter"/>
   </g>
   <g id="patch_130">
    <path d="M 1073.744956 359.517187 
L 1073.744956 26.877187 
L 1067.186368 26.877187 
L 1067.186368 359.517187 
z
" clip-path="url(#p5fa8df4a41)" style="fill: #add8e6; stroke: #add8e6; stroke-linejoin: miter"/>
   </g>
   <g id="patch_131">
    <path d="M 1085.845662 359.517187 
L 1085.845662 26.877187 
L 1083.907425 26.877187 
L 1083.907425 359.517187 
z
" clip-path="url(#p5fa8df4a41)" style="fill: #add8e6; stroke: #add8e6; stroke-linejoin: miter"/>
   </g>
   <g id="patch_132">
    <path d="M 1088.151634 359.517187 
L 1088.151634 26.877187 
L 1088.281734 26.877187 
L 1088.281734 359.517187 
z
" clip-path="url(#p5fa8df4a41)" style="fill: #add8e6; stroke: #add8e6; stroke-linejoin: miter"/>
   </g>
   <g id="patch_133">
    <path d="M 1097.399857 359.517187 
L 1097.399857 26.877187 
L 1095.635088 26.877187 
L 1095.635088 359.517187 
z
" clip-path="url(#p5fa8df4a41)" style="fill: #add8e6; stroke: #add8e6; stroke-linejoin: miter"/>
   </g>
   <g id="patch_134">
    <path d="M 1099.595198 359.517187 
L 1099.595198 26.877187 
L 1099.601836 26.877187 
L 1099.601836 359.517187 
z
" clip-path="url(#p5fa8df4a41)" style="fill: #add8e6; stroke: #add8e6; stroke-linejoin: miter"/>
   </g>
   <g id="patch_135">
    <path d="M 1099.815573 359.517187 
L 1099.815573 26.877187 
L 1099.947444 26.877187 
L 1099.947444 359.517187 
z
" clip-path="url(#p5fa8df4a41)" style="fill: #add8e6; stroke: #add8e6; stroke-linejoin: miter"/>
   </g>
   <g id="patch_136">
    <path d="M 1106.732159 359.517187 
L 1106.732159 26.877187 
L 1106.610909 26.877187 
L 1106.610909 359.517187 
z
" clip-path="url(#p5fa8df4a41)" style="fill: #add8e6; stroke: #add8e6; stroke-linejoin: miter"/>
   </g>
   <g id="patch_137">
    <path d="M 1108.609771 359.517187 
L 1108.609771 26.877187 
L 1108.670396 26.877187 
L 1108.670396 359.517187 
z
" clip-path="url(#p5fa8df4a41)" style="fill: #add8e6; stroke: #add8e6; stroke-linejoin: miter"/>
   </g>
   <g id="patch_138">
    <path d="M 1118.251395 359.517187 
L 1118.251395 26.877187 
L 1117.530972 26.877187 
L 1117.530972 359.517187 
z
" clip-path="url(#p5fa8df4a41)" style="fill: #add8e6; stroke: #add8e6; stroke-linejoin: miter"/>
   </g>
   <g id="patch_139">
    <path d="M 1119.521869 359.517187 
L 1119.521869 26.877187 
L 1119.636924 26.877187 
L 1119.636924 359.517187 
z
" clip-path="url(#p5fa8df4a41)" style="fill: #add8e6; stroke: #add8e6; stroke-linejoin: miter"/>
   </g>
   <g id="patch_140">
    <path d="M 1119.701532 359.517187 
L 1119.701532 26.877187 
L 1119.785611 26.877187 
L 1119.785611 359.517187 
z
" clip-path="url(#p5fa8df4a41)" style="fill: #add8e6; stroke: #add8e6; stroke-linejoin: miter"/>
   </g>
   <g id="patch_141">
    <path d="M 1119.859069 359.517187 
L 1119.859069 26.877187 
L 1119.904206 26.877187 
L 1119.904206 359.517187 
z
" clip-path="url(#p5fa8df4a41)" style="fill: #add8e6; stroke: #add8e6; stroke-linejoin: miter"/>
   </g>
   <g id="patch_142">
    <path d="M 180.668115 359.517187 
L 180.668115 26.877187 
L 276.252413 26.877187 
L 276.252413 359.517187 
z
" clip-path="url(#p5fa8df4a41)" style="fill: #808080; opacity: 0.4; stroke: #808080; stroke-linejoin: miter"/>
   </g>
   <g id="patch_143">
    <path d="M 278.907533 26.877187 
L 278.907533 26.877187 
L 278.907533 359.517187 
" clip-path="url(#p5fa8df4a41)" style="fill: #808080; opacity: 0.4; stroke: #808080; stroke-linejoin: miter"/>
   </g>
   <g id="patch_144">
    <path d="M 281.562652 26.877187 
L 281.562652 26.877187 
L 281.562652 359.517187 
" clip-path="url(#p5fa8df4a41)" style="fill: #808080; opacity: 0.4; stroke: #808080; stroke-linejoin: miter"/>
   </g>
   <g id="patch_145">
    <path d="M 371.836711 359.517187 
L 371.836711 26.877187 
L 467.421009 26.877187 
L 467.421009 359.517187 
z
" clip-path="url(#p5fa8df4a41)" style="fill: #808080; opacity: 0.4; stroke: #808080; stroke-linejoin: miter"/>
   </g>
   <g id="patch_146">
    <path d="M 470.076128 26.877187 
L 470.076128 26.877187 
L 470.076128 359.517187 
" clip-path="url(#p5fa8df4a41)" style="fill: #808080; opacity: 0.4; stroke: #808080; stroke-linejoin: miter"/>
   </g>
   <g id="patch_147">
    <path d="M 472.731247 26.877187 
L 472.731247 26.877187 
L 472.731247 359.517187 
" clip-path="url(#p5fa8df4a41)" style="fill: #808080; opacity: 0.4; stroke: #808080; stroke-linejoin: miter"/>
   </g>
   <g id="patch_148">
    <path d="M 563.005306 359.517187 
L 563.005306 26.877187 
L 658.589604 26.877187 
L 658.589604 359.517187 
z
" clip-path="url(#p5fa8df4a41)" style="fill: #808080; opacity: 0.4; stroke: #808080; stroke-linejoin: miter"/>
   </g>
   <g id="patch_149">
    <path d="M 661.244724 26.877187 
L 661.244724 26.877187 
L 661.244724 359.517187 
" clip-path="url(#p5fa8df4a41)" style="fill: #808080; opacity: 0.4; stroke: #808080; stroke-linejoin: miter"/>
   </g>
   <g id="patch_150">
    <path d="M 663.899843 26.877187 
L 663.899843 26.877187 
L 663.899843 359.517187 
" clip-path="url(#p5fa8df4a41)" style="fill: #808080; opacity: 0.4; stroke: #808080; stroke-linejoin: miter"/>
   </g>
   <g id="patch_151">
    <path d="M 754.173902 359.517187 
L 754.173902 26.877187 
L 849.7582 26.877187 
L 849.7582 359.517187 
z
" clip-path="url(#p5fa8df4a41)" style="fill: #808080; opacity: 0.4; stroke: #808080; stroke-linejoin: miter"/>
   </g>
   <g id="patch_152">
    <path d="M 852.413319 26.877187 
L 852.413319 26.877187 
L 852.413319 359.517187 
" clip-path="url(#p5fa8df4a41)" style="fill: #808080; opacity: 0.4; stroke: #808080; stroke-linejoin: miter"/>
   </g>
   <g id="patch_153">
    <path d="M 855.068439 26.877187 
L 855.068439 26.877187 
L 855.068439 359.517187 
" clip-path="url(#p5fa8df4a41)" style="fill: #808080; opacity: 0.4; stroke: #808080; stroke-linejoin: miter"/>
   </g>
   <g id="patch_154">
    <path d="M 945.342498 359.517187 
L 945.342498 26.877187 
L 1040.926795 26.877187 
L 1040.926795 359.517187 
z
" clip-path="url(#p5fa8df4a41)" style="fill: #808080; opacity: 0.4; stroke: #808080; stroke-linejoin: miter"/>
   </g>
   <g id="patch_155">
    <path d="M 1043.581915 26.877187 
L 1043.581915 26.877187 
L 1043.581915 359.517187 
" clip-path="url(#p5fa8df4a41)" style="fill: #808080; opacity: 0.4; stroke: #808080; stroke-linejoin: miter"/>
   </g>
   <g id="patch_156">
    <path d="M 1046.237034 26.877187 
L 1046.237034 26.877187 
L 1046.237034 359.517187 
" clip-path="url(#p5fa8df4a41)" style="fill: #808080; opacity: 0.4; stroke: #808080; stroke-linejoin: miter"/>
   </g>
   <g id="matplotlib.axis_1">
    <g id="xtick_1">
     <g id="line2d_1">
      <defs>
       <path id="m56e16cd790" d="M 0 0 
L 0 3.5 
" style="stroke: #000000; stroke-width: 0.8"/>
      </defs>
      <g>
       <use xlink:href="#m56e16cd790" x="219.313378" y="359.517187" style="stroke: #000000; stroke-width: 0.8"/>
      </g>
     </g>
     <g id="text_1">
      <!-- 2024-10-04 -->
      <g transform="translate(190.255566 374.115625) scale(0.1 -0.1)">
       <defs>
        <path id="DejaVuSans-32" d="M 1228 531 
L 3431 531 
L 3431 0 
L 469 0 
L 469 531 
Q 828 903 1448 1529 
Q 2069 2156 2228 2338 
Q 2531 2678 2651 2914 
Q 2772 3150 2772 3378 
Q 2772 3750 2511 3984 
Q 2250 4219 1831 4219 
Q 1534 4219 1204 4116 
Q 875 4013 500 3803 
L 500 4441 
Q 881 4594 1212 4672 
Q 1544 4750 1819 4750 
Q 2544 4750 2975 4387 
Q 3406 4025 3406 3419 
Q 3406 3131 3298 2873 
Q 3191 2616 2906 2266 
Q 2828 2175 2409 1742 
Q 1991 1309 1228 531 
z
" transform="scale(0.015625)"/>
        <path id="DejaVuSans-30" d="M 2034 4250 
Q 1547 4250 1301 3770 
Q 1056 3291 1056 2328 
Q 1056 1369 1301 889 
Q 1547 409 2034 409 
Q 2525 409 2770 889 
Q 3016 1369 3016 2328 
Q 3016 3291 2770 3770 
Q 2525 4250 2034 4250 
z
M 2034 4750 
Q 2819 4750 3233 4129 
Q 3647 3509 3647 2328 
Q 3647 1150 3233 529 
Q 2819 -91 2034 -91 
Q 1250 -91 836 529 
Q 422 1150 422 2328 
Q 422 3509 836 4129 
Q 1250 4750 2034 4750 
z
" transform="scale(0.015625)"/>
        <path id="DejaVuSans-34" d="M 2419 4116 
L 825 1625 
L 2419 1625 
L 2419 4116 
z
M 2253 4666 
L 3047 4666 
L 3047 1625 
L 3713 1625 
L 3713 1100 
L 3047 1100 
L 3047 0 
L 2419 0 
L 2419 1100 
L 313 1100 
L 313 1709 
L 2253 4666 
z
" transform="scale(0.015625)"/>
        <path id="DejaVuSans-2d" d="M 313 2009 
L 1997 2009 
L 1997 1497 
L 313 1497 
L 313 2009 
z
" transform="scale(0.015625)"/>
        <path id="DejaVuSans-31" d="M 794 531 
L 1825 531 
L 1825 4091 
L 703 3866 
L 703 4441 
L 1819 4666 
L 2450 4666 
L 2450 531 
L 3481 531 
L 3481 0 
L 794 0 
L 794 531 
z
" transform="scale(0.015625)"/>
       </defs>
       <use xlink:href="#DejaVuSans-32"/>
       <use xlink:href="#DejaVuSans-30" x="63.623047"/>
       <use xlink:href="#DejaVuSans-32" x="127.246094"/>
       <use xlink:href="#DejaVuSans-34" x="190.869141"/>
       <use xlink:href="#DejaVuSans-2d" x="254.492188"/>
       <use xlink:href="#DejaVuSans-31" x="290.576172"/>
       <use xlink:href="#DejaVuSans-30" x="354.199219"/>
       <use xlink:href="#DejaVuSans-2d" x="417.822266"/>
       <use xlink:href="#DejaVuSans-30" x="453.90625"/>
       <use xlink:href="#DejaVuSans-34" x="517.529297"/>
      </g>
     </g>
    </g>
    <g id="xtick_2">
     <g id="line2d_2">
      <g>
       <use xlink:href="#m56e16cd790" x="410.481974" y="359.517187" style="stroke: #000000; stroke-width: 0.8"/>
      </g>
     </g>
     <g id="text_2">
      <!-- 2024-10-05 -->
      <g transform="translate(381.424161 374.115625) scale(0.1 -0.1)">
       <defs>
        <path id="DejaVuSans-35" d="M 691 4666 
L 3169 4666 
L 3169 4134 
L 1269 4134 
L 1269 2991 
Q 1406 3038 1543 3061 
Q 1681 3084 1819 3084 
Q 2600 3084 3056 2656 
Q 3513 2228 3513 1497 
Q 3513 744 3044 326 
Q 2575 -91 1722 -91 
Q 1428 -91 1123 -41 
Q 819 9 494 109 
L 494 744 
Q 775 591 1075 516 
Q 1375 441 1709 441 
Q 2250 441 2565 725 
Q 2881 1009 2881 1497 
Q 2881 1984 2565 2268 
Q 2250 2553 1709 2553 
Q 1456 2553 1204 2497 
Q 953 2441 691 2322 
L 691 4666 
z
" transform="scale(0.015625)"/>
       </defs>
       <use xlink:href="#DejaVuSans-32"/>
       <use xlink:href="#DejaVuSans-30" x="63.623047"/>
       <use xlink:href="#DejaVuSans-32" x="127.246094"/>
       <use xlink:href="#DejaVuSans-34" x="190.869141"/>
       <use xlink:href="#DejaVuSans-2d" x="254.492188"/>
       <use xlink:href="#DejaVuSans-31" x="290.576172"/>
       <use xlink:href="#DejaVuSans-30" x="354.199219"/>
       <use xlink:href="#DejaVuSans-2d" x="417.822266"/>
       <use xlink:href="#DejaVuSans-30" x="453.90625"/>
       <use xlink:href="#DejaVuSans-35" x="517.529297"/>
      </g>
     </g>
    </g>
    <g id="xtick_3">
     <g id="line2d_3">
      <g>
       <use xlink:href="#m56e16cd790" x="601.650569" y="359.517187" style="stroke: #000000; stroke-width: 0.8"/>
      </g>
     </g>
     <g id="text_3">
      <!-- 2024-10-06 -->
      <g transform="translate(572.592757 374.115625) scale(0.1 -0.1)">
       <defs>
        <path id="DejaVuSans-36" d="M 2113 2584 
Q 1688 2584 1439 2293 
Q 1191 2003 1191 1497 
Q 1191 994 1439 701 
Q 1688 409 2113 409 
Q 2538 409 2786 701 
Q 3034 994 3034 1497 
Q 3034 2003 2786 2293 
Q 2538 2584 2113 2584 
z
M 3366 4563 
L 3366 3988 
Q 3128 4100 2886 4159 
Q 2644 4219 2406 4219 
Q 1781 4219 1451 3797 
Q 1122 3375 1075 2522 
Q 1259 2794 1537 2939 
Q 1816 3084 2150 3084 
Q 2853 3084 3261 2657 
Q 3669 2231 3669 1497 
Q 3669 778 3244 343 
Q 2819 -91 2113 -91 
Q 1303 -91 875 529 
Q 447 1150 447 2328 
Q 447 3434 972 4092 
Q 1497 4750 2381 4750 
Q 2619 4750 2861 4703 
Q 3103 4656 3366 4563 
z
" transform="scale(0.015625)"/>
       </defs>
       <use xlink:href="#DejaVuSans-32"/>
       <use xlink:href="#DejaVuSans-30" x="63.623047"/>
       <use xlink:href="#DejaVuSans-32" x="127.246094"/>
       <use xlink:href="#DejaVuSans-34" x="190.869141"/>
       <use xlink:href="#DejaVuSans-2d" x="254.492188"/>
       <use xlink:href="#DejaVuSans-31" x="290.576172"/>
       <use xlink:href="#DejaVuSans-30" x="354.199219"/>
       <use xlink:href="#DejaVuSans-2d" x="417.822266"/>
       <use xlink:href="#DejaVuSans-30" x="453.90625"/>
       <use xlink:href="#DejaVuSans-36" x="517.529297"/>
      </g>
     </g>
    </g>
    <g id="xtick_4">
     <g id="line2d_4">
      <g>
       <use xlink:href="#m56e16cd790" x="792.819165" y="359.517187" style="stroke: #000000; stroke-width: 0.8"/>
      </g>
     </g>
     <g id="text_4">
      <!-- 2024-10-07 -->
      <g transform="translate(763.761352 374.115625) scale(0.1 -0.1)">
       <defs>
        <path id="DejaVuSans-37" d="M 525 4666 
L 3525 4666 
L 3525 4397 
L 1831 0 
L 1172 0 
L 2766 4134 
L 525 4134 
L 525 4666 
z
" transform="scale(0.015625)"/>
       </defs>
       <use xlink:href="#DejaVuSans-32"/>
       <use xlink:href="#DejaVuSans-30" x="63.623047"/>
       <use xlink:href="#DejaVuSans-32" x="127.246094"/>
       <use xlink:href="#DejaVuSans-34" x="190.869141"/>
       <use xlink:href="#DejaVuSans-2d" x="254.492188"/>
       <use xlink:href="#DejaVuSans-31" x="290.576172"/>
       <use xlink:href="#DejaVuSans-30" x="354.199219"/>
       <use xlink:href="#DejaVuSans-2d" x="417.822266"/>
       <use xlink:href="#DejaVuSans-30" x="453.90625"/>
       <use xlink:href="#DejaVuSans-37" x="517.529297"/>
      </g>
     </g>
    </g>
    <g id="xtick_5">
     <g id="line2d_5">
      <g>
       <use xlink:href="#m56e16cd790" x="983.98776" y="359.517187" style="stroke: #000000; stroke-width: 0.8"/>
      </g>
     </g>
     <g id="text_5">
      <!-- 2024-10-08 -->
      <g transform="translate(954.929948 374.115625) scale(0.1 -0.1)">
       <defs>
        <path id="DejaVuSans-38" d="M 2034 2216 
Q 1584 2216 1326 1975 
Q 1069 1734 1069 1313 
Q 1069 891 1326 650 
Q 1584 409 2034 409 
Q 2484 409 2743 651 
Q 3003 894 3003 1313 
Q 3003 1734 2745 1975 
Q 2488 2216 2034 2216 
z
M 1403 2484 
Q 997 2584 770 2862 
Q 544 3141 544 3541 
Q 544 4100 942 4425 
Q 1341 4750 2034 4750 
Q 2731 4750 3128 4425 
Q 3525 4100 3525 3541 
Q 3525 3141 3298 2862 
Q 3072 2584 2669 2484 
Q 3125 2378 3379 2068 
Q 3634 1759 3634 1313 
Q 3634 634 3220 271 
Q 2806 -91 2034 -91 
Q 1263 -91 848 271 
Q 434 634 434 1313 
Q 434 1759 690 2068 
Q 947 2378 1403 2484 
z
M 1172 3481 
Q 1172 3119 1398 2916 
Q 1625 2713 2034 2713 
Q 2441 2713 2670 2916 
Q 2900 3119 2900 3481 
Q 2900 3844 2670 4047 
Q 2441 4250 2034 4250 
Q 1625 4250 1398 4047 
Q 1172 3844 1172 3481 
z
" transform="scale(0.015625)"/>
       </defs>
       <use xlink:href="#DejaVuSans-32"/>
       <use xlink:href="#DejaVuSans-30" x="63.623047"/>
       <use xlink:href="#DejaVuSans-32" x="127.246094"/>
       <use xlink:href="#DejaVuSans-34" x="190.869141"/>
       <use xlink:href="#DejaVuSans-2d" x="254.492188"/>
       <use xlink:href="#DejaVuSans-31" x="290.576172"/>
       <use xlink:href="#DejaVuSans-30" x="354.199219"/>
       <use xlink:href="#DejaVuSans-2d" x="417.822266"/>
       <use xlink:href="#DejaVuSans-30" x="453.90625"/>
       <use xlink:href="#DejaVuSans-38" x="517.529297"/>
      </g>
     </g>
    </g>
    <g id="text_6">
     <!-- Time -->
     <g transform="translate(598.917187 389.313437) scale(0.12 -0.12)">
      <defs>
       <path id="DejaVuSans-54" d="M -19 4666 
L 3928 4666 
L 3928 4134 
L 2272 4134 
L 2272 0 
L 1638 0 
L 1638 4134 
L -19 4134 
L -19 4666 
z
" transform="scale(0.015625)"/>
       <path id="DejaVuSans-69" d="M 603 3500 
L 1178 3500 
L 1178 0 
L 603 0 
L 603 3500 
z
M 603 4863 
L 1178 4863 
L 1178 4134 
L 603 4134 
L 603 4863 
z
" transform="scale(0.015625)"/>
       <path id="DejaVuSans-6d" d="M 3328 2828 
Q 3544 3216 3844 3400 
Q 4144 3584 4550 3584 
Q 5097 3584 5394 3201 
Q 5691 2819 5691 2113 
L 5691 0 
L 5113 0 
L 5113 2094 
Q 5113 2597 4934 2840 
Q 4756 3084 4391 3084 
Q 3944 3084 3684 2787 
Q 3425 2491 3425 1978 
L 3425 0 
L 2847 0 
L 2847 2094 
Q 2847 2600 2669 2842 
Q 2491 3084 2119 3084 
Q 1678 3084 1418 2786 
Q 1159 2488 1159 1978 
L 1159 0 
L 581 0 
L 581 3500 
L 1159 3500 
L 1159 2956 
Q 1356 3278 1631 3431 
Q 1906 3584 2284 3584 
Q 2666 3584 2933 3390 
Q 3200 3197 3328 2828 
z
" transform="scale(0.015625)"/>
       <path id="DejaVuSans-65" d="M 3597 1894 
L 3597 1613 
L 953 1613 
Q 991 1019 1311 708 
Q 1631 397 2203 397 
Q 2534 397 2845 478 
Q 3156 559 3463 722 
L 3463 178 
Q 3153 47 2828 -22 
Q 2503 -91 2169 -91 
Q 1331 -91 842 396 
Q 353 884 353 1716 
Q 353 2575 817 3079 
Q 1281 3584 2069 3584 
Q 2775 3584 3186 3129 
Q 3597 2675 3597 1894 
z
M 3022 2063 
Q 3016 2534 2758 2815 
Q 2500 3097 2075 3097 
Q 1594 3097 1305 2825 
Q 1016 2553 972 2059 
L 3022 2063 
z
" transform="scale(0.015625)"/>
      </defs>
      <use xlink:href="#DejaVuSans-54"/>
      <use xlink:href="#DejaVuSans-69" x="57.958984"/>
      <use xlink:href="#DejaVuSans-6d" x="85.742188"/>
      <use xlink:href="#DejaVuSans-65" x="183.154297"/>
     </g>
    </g>
   </g>
   <g id="matplotlib.axis_2">
    <g id="ytick_1">
     <g id="line2d_6">
      <defs>
       <path id="m9cb7d770b1" d="M 0 0 
L -3.5 0 
" style="stroke: #000000; stroke-width: 0.8"/>
      </defs>
      <g>
       <use xlink:href="#m9cb7d770b1" x="55.5975" y="344.397187" style="stroke: #000000; stroke-width: 0.8"/>
      </g>
     </g>
     <g id="text_7">
      <!-- 0 -->
      <g transform="translate(42.235 348.196406) scale(0.1 -0.1)">
       <use xlink:href="#DejaVuSans-30"/>
      </g>
     </g>
    </g>
    <g id="ytick_2">
     <g id="line2d_7">
      <g>
       <use xlink:href="#m9cb7d770b1" x="55.5975" y="293.012311" style="stroke: #000000; stroke-width: 0.8"/>
      </g>
     </g>
     <g id="text_8">
      <!-- 200 -->
      <g transform="translate(29.51 296.811529) scale(0.1 -0.1)">
       <use xlink:href="#DejaVuSans-32"/>
       <use xlink:href="#DejaVuSans-30" x="63.623047"/>
       <use xlink:href="#DejaVuSans-30" x="127.246094"/>
      </g>
     </g>
    </g>
    <g id="ytick_3">
     <g id="line2d_8">
      <g>
       <use xlink:href="#m9cb7d770b1" x="55.5975" y="241.627434" style="stroke: #000000; stroke-width: 0.8"/>
      </g>
     </g>
     <g id="text_9">
      <!-- 400 -->
      <g transform="translate(29.51 245.426653) scale(0.1 -0.1)">
       <use xlink:href="#DejaVuSans-34"/>
       <use xlink:href="#DejaVuSans-30" x="63.623047"/>
       <use xlink:href="#DejaVuSans-30" x="127.246094"/>
      </g>
     </g>
    </g>
    <g id="ytick_4">
     <g id="line2d_9">
      <g>
       <use xlink:href="#m9cb7d770b1" x="55.5975" y="190.242557" style="stroke: #000000; stroke-width: 0.8"/>
      </g>
     </g>
     <g id="text_10">
      <!-- 600 -->
      <g transform="translate(29.51 194.041776) scale(0.1 -0.1)">
       <use xlink:href="#DejaVuSans-36"/>
       <use xlink:href="#DejaVuSans-30" x="63.623047"/>
       <use xlink:href="#DejaVuSans-30" x="127.246094"/>
      </g>
     </g>
    </g>
    <g id="ytick_5">
     <g id="line2d_10">
      <g>
       <use xlink:href="#m9cb7d770b1" x="55.5975" y="138.85768" style="stroke: #000000; stroke-width: 0.8"/>
      </g>
     </g>
     <g id="text_11">
      <!-- 800 -->
      <g transform="translate(29.51 142.656899) scale(0.1 -0.1)">
       <use xlink:href="#DejaVuSans-38"/>
       <use xlink:href="#DejaVuSans-30" x="63.623047"/>
       <use xlink:href="#DejaVuSans-30" x="127.246094"/>
      </g>
     </g>
    </g>
    <g id="ytick_6">
     <g id="line2d_11">
      <g>
       <use xlink:href="#m9cb7d770b1" x="55.5975" y="87.472803" style="stroke: #000000; stroke-width: 0.8"/>
      </g>
     </g>
     <g id="text_12">
      <!-- 1000 -->
      <g transform="translate(23.1475 91.272022) scale(0.1 -0.1)">
       <use xlink:href="#DejaVuSans-31"/>
       <use xlink:href="#DejaVuSans-30" x="63.623047"/>
       <use xlink:href="#DejaVuSans-30" x="127.246094"/>
       <use xlink:href="#DejaVuSans-30" x="190.869141"/>
      </g>
     </g>
    </g>
    <g id="ytick_7">
     <g id="line2d_12">
      <g>
       <use xlink:href="#m9cb7d770b1" x="55.5975" y="36.087927" style="stroke: #000000; stroke-width: 0.8"/>
      </g>
     </g>
     <g id="text_13">
      <!-- 1200 -->
      <g transform="translate(23.1475 39.887145) scale(0.1 -0.1)">
       <use xlink:href="#DejaVuSans-31"/>
       <use xlink:href="#DejaVuSans-32" x="63.623047"/>
       <use xlink:href="#DejaVuSans-30" x="127.246094"/>
       <use xlink:href="#DejaVuSans-30" x="190.869141"/>
      </g>
     </g>
    </g>
    <g id="text_14">
     <!-- Pellet_Count -->
     <g transform="translate(16.318125 230.485312) rotate(-90) scale(0.12 -0.12)">
      <defs>
       <path id="DejaVuSans-50" d="M 1259 4147 
L 1259 2394 
L 2053 2394 
Q 2494 2394 2734 2622 
Q 2975 2850 2975 3272 
Q 2975 3691 2734 3919 
Q 2494 4147 2053 4147 
L 1259 4147 
z
M 628 4666 
L 2053 4666 
Q 2838 4666 3239 4311 
Q 3641 3956 3641 3272 
Q 3641 2581 3239 2228 
Q 2838 1875 2053 1875 
L 1259 1875 
L 1259 0 
L 628 0 
L 628 4666 
z
" transform="scale(0.015625)"/>
       <path id="DejaVuSans-6c" d="M 603 4863 
L 1178 4863 
L 1178 0 
L 603 0 
L 603 4863 
z
" transform="scale(0.015625)"/>
       <path id="DejaVuSans-74" d="M 1172 4494 
L 1172 3500 
L 2356 3500 
L 2356 3053 
L 1172 3053 
L 1172 1153 
Q 1172 725 1289 603 
Q 1406 481 1766 481 
L 2356 481 
L 2356 0 
L 1766 0 
Q 1100 0 847 248 
Q 594 497 594 1153 
L 594 3053 
L 172 3053 
L 172 3500 
L 594 3500 
L 594 4494 
L 1172 4494 
z
" transform="scale(0.015625)"/>
       <path id="DejaVuSans-5f" d="M 3263 -1063 
L 3263 -1509 
L -63 -1509 
L -63 -1063 
L 3263 -1063 
z
" transform="scale(0.015625)"/>
       <path id="DejaVuSans-43" d="M 4122 4306 
L 4122 3641 
Q 3803 3938 3442 4084 
Q 3081 4231 2675 4231 
Q 1875 4231 1450 3742 
Q 1025 3253 1025 2328 
Q 1025 1406 1450 917 
Q 1875 428 2675 428 
Q 3081 428 3442 575 
Q 3803 722 4122 1019 
L 4122 359 
Q 3791 134 3420 21 
Q 3050 -91 2638 -91 
Q 1578 -91 968 557 
Q 359 1206 359 2328 
Q 359 3453 968 4101 
Q 1578 4750 2638 4750 
Q 3056 4750 3426 4639 
Q 3797 4528 4122 4306 
z
" transform="scale(0.015625)"/>
       <path id="DejaVuSans-6f" d="M 1959 3097 
Q 1497 3097 1228 2736 
Q 959 2375 959 1747 
Q 959 1119 1226 758 
Q 1494 397 1959 397 
Q 2419 397 2687 759 
Q 2956 1122 2956 1747 
Q 2956 2369 2687 2733 
Q 2419 3097 1959 3097 
z
M 1959 3584 
Q 2709 3584 3137 3096 
Q 3566 2609 3566 1747 
Q 3566 888 3137 398 
Q 2709 -91 1959 -91 
Q 1206 -91 779 398 
Q 353 888 353 1747 
Q 353 2609 779 3096 
Q 1206 3584 1959 3584 
z
" transform="scale(0.015625)"/>
       <path id="DejaVuSans-75" d="M 544 1381 
L 544 3500 
L 1119 3500 
L 1119 1403 
Q 1119 906 1312 657 
Q 1506 409 1894 409 
Q 2359 409 2629 706 
Q 2900 1003 2900 1516 
L 2900 3500 
L 3475 3500 
L 3475 0 
L 2900 0 
L 2900 538 
Q 2691 219 2414 64 
Q 2138 -91 1772 -91 
Q 1169 -91 856 284 
Q 544 659 544 1381 
z
M 1991 3584 
L 1991 3584 
z
" transform="scale(0.015625)"/>
       <path id="DejaVuSans-6e" d="M 3513 2113 
L 3513 0 
L 2938 0 
L 2938 2094 
Q 2938 2591 2744 2837 
Q 2550 3084 2163 3084 
Q 1697 3084 1428 2787 
Q 1159 2491 1159 1978 
L 1159 0 
L 581 0 
L 581 3500 
L 1159 3500 
L 1159 2956 
Q 1366 3272 1645 3428 
Q 1925 3584 2291 3584 
Q 2894 3584 3203 3211 
Q 3513 2838 3513 2113 
z
" transform="scale(0.015625)"/>
      </defs>
      <use xlink:href="#DejaVuSans-50"/>
      <use xlink:href="#DejaVuSans-65" x="56.677734"/>
      <use xlink:href="#DejaVuSans-6c" x="118.201172"/>
      <use xlink:href="#DejaVuSans-6c" x="145.984375"/>
      <use xlink:href="#DejaVuSans-65" x="173.767578"/>
      <use xlink:href="#DejaVuSans-74" x="235.291016"/>
      <use xlink:href="#DejaVuSans-5f" x="274.5"/>
      <use xlink:href="#DejaVuSans-43" x="324.5"/>
      <use xlink:href="#DejaVuSans-6f" x="394.324219"/>
      <use xlink:href="#DejaVuSans-75" x="455.505859"/>
      <use xlink:href="#DejaVuSans-6e" x="518.884766"/>
      <use xlink:href="#DejaVuSans-74" x="582.263672"/>
     </g>
    </g>
   </g>
   <g id="line2d_13">
    <path d="M 106.324773 344.397187 
L 106.415489 344.140263 
L 110.548625 344.140263 
L 110.672531 343.883339 
L 111.975752 343.883339 
L 112.075319 343.626414 
L 121.224418 343.626414 
L 121.228843 343.36949 
L 121.385937 343.36949 
L 121.505418 343.112566 
L 122.175835 343.112566 
L 122.244426 342.855641 
L 123.706954 342.855641 
L 123.828647 342.598717 
L 124.88627 342.598717 
L 124.88627 342.598717 
L 125.007963 342.084868 
L 125.061065 342.084868 
L 125.162845 341.827944 
L 125.191609 341.827944 
L 125.275687 341.057171 
L 125.331002 341.057171 
L 125.44827 340.286397 
L 125.496947 340.286397 
L 125.5589 339.515624 
L 125.777947 339.515624 
L 125.853176 338.744851 
L 126.4019 338.744851 
L 126.508105 338.231002 
L 127.623255 338.231002 
L 128.525996 337.974078 
L 131.046147 337.974078 
L 131.050572 337.717154 
L 131.207667 337.717154 
L 131.212092 337.460229 
L 131.417863 337.460229 
L 131.422289 337.203305 
L 132.019691 337.203305 
L 132.063943 336.94638 
L 132.789675 336.94638 
L 132.791888 336.689456 
L 133.705691 336.689456 
L 133.707904 336.432532 
L 134.201314 336.432532 
L 134.201314 336.432532 
L 134.345133 335.404834 
L 134.378322 335.404834 
L 134.382747 335.14791 
L 134.995637 335.14791 
L 136.068748 334.890985 
L 137.212662 334.890985 
L 137.294528 334.120212 
L 137.332142 334.120212 
L 137.367544 333.606363 
L 139.438537 333.606363 
L 139.515978 332.83559 
L 140.40323 332.83559 
L 140.489521 332.064817 
L 141.752916 332.064817 
L 141.85912 331.550968 
L 142.520688 331.550968 
L 142.525113 331.294044 
L 142.702121 331.294044 
L 142.792837 330.523271 
L 143.102601 330.523271 
L 143.107027 330.266346 
L 143.912413 330.266346 
L 143.976578 330.009422 
L 144.793027 330.009422 
L 144.90587 328.981724 
L 144.943484 328.981724 
L 145.018713 328.210951 
L 145.817461 328.210951 
L 146.109524 327.954027 
L 146.231217 326.926329 
L 146.279894 326.926329 
L 146.284319 326.669405 
L 147.691533 326.669405 
L 148.129627 326.412481 
L 149.1784 326.412481 
L 149.233715 326.155556 
L 149.755888 326.155556 
L 149.853242 325.384783 
L 149.890857 325.384783 
L 149.926258 325.127859 
L 150.981668 325.127859 
L 151.096723 324.61401 
L 151.103361 324.61401 
L 151.105574 324.357086 
L 152.435346 324.357086 
L 152.526063 323.586312 
L 152.572527 323.586312 
L 152.57474 323.329388 
L 153.178779 323.329388 
L 154.291717 323.072464 
L 154.29393 322.815539 
L 156.74549 322.815539 
L 156.862758 322.30169 
L 156.878246 322.30169 
L 156.882671 322.044766 
L 159.285554 322.044766 
L 159.387334 321.273993 
L 159.431586 321.273993 
L 159.433798 321.017069 
L 161.969437 321.017069 
L 161.97165 320.760144 
L 162.179634 320.760144 
L 162.239374 320.50322 
L 162.420807 320.50322 
L 162.520374 319.989371 
L 162.74606 319.989371 
L 165.334801 319.732447 
L 165.394541 319.218598 
L 165.5804 319.218598 
L 165.584825 318.961673 
L 165.713156 318.961673 
L 165.717581 318.704749 
L 168.204543 318.704749 
L 168.308535 317.933976 
L 168.339511 317.933976 
L 168.388188 317.420127 
L 168.762118 317.420127 
L 168.76433 317.163203 
L 169.09622 317.163203 
L 169.098433 316.906278 
L 170.007811 316.906278 
L 170.063126 316.39243 
L 170.864087 316.39243 
L 170.868512 316.135505 
L 171.684962 316.135505 
L 171.793379 315.364732 
L 171.846481 315.364732 
L 171.884095 314.850883 
L 172.665143 314.850883 
L 172.744797 314.337035 
L 173.508143 314.337035 
L 173.605498 313.566261 
L 173.676301 313.566261 
L 173.722766 313.052413 
L 174.397608 313.052413 
L 174.671971 312.795488 
L 174.919782 312.795488 
L 175.530459 312.538564 
L 176.227428 312.538564 
L 176.408861 312.024715 
L 176.504003 312.024715 
L 176.510641 311.767791 
L 178.599335 311.767791 
L 179.31843 311.510866 
L 179.747674 311.510866 
L 179.811839 310.997018 
L 180.022036 310.997018 
L 180.075139 310.483169 
L 180.865037 310.483169 
L 181.854069 310.226244 
L 182.716983 310.226244 
L 182.807699 309.712396 
L 183.425014 309.712396 
L 183.42944 309.455471 
L 185.091102 309.455471 
L 185.093314 309.198547 
L 185.223858 309.198547 
L 185.345551 308.427774 
L 185.394228 308.427774 
L 185.398653 308.170849 
L 186.024819 308.170849 
L 186.024819 308.170849 
L 186.345646 307.913925 
L 186.420874 307.400076 
L 188.018371 307.400076 
L 188.020584 307.143152 
L 188.788356 307.143152 
L 188.792781 306.886227 
L 198.826919 306.886227 
L 198.935337 306.115454 
L 198.99729 306.115454 
L 199.090219 305.601606 
L 202.979969 305.601606 
L 203.092811 305.087757 
L 203.101662 305.087757 
L 203.201229 304.316984 
L 203.22778 304.316984 
L 203.333985 303.54621 
L 203.382662 303.54621 
L 203.413638 303.032362 
L 203.962363 303.032362 
L 205.404978 302.775437 
L 205.473568 302.261589 
L 205.533308 302.261589 
L 205.661639 301.490815 
L 205.714742 301.490815 
L 205.719167 301.233891 
L 214.193423 301.233891 
L 214.277502 300.720042 
L 214.332817 300.720042 
L 214.408045 300.463118 
L 220.085575 300.463118 
L 220.180717 299.692345 
L 220.218331 299.692345 
L 220.220544 299.43542 
L 220.594473 299.43542 
L 220.705103 298.921572 
L 225.25642 298.921572 
L 225.336074 298.407723 
L 225.40909 298.407723 
L 225.488743 297.893874 
L 225.559546 297.893874 
L 225.625924 297.380025 
L 225.692302 297.380025 
L 225.791869 296.609252 
L 225.853822 296.609252 
L 225.902499 296.095403 
L 226.882681 296.095403 
L 227.09509 295.838479 
L 232.659778 295.838479 
L 232.770408 295.067706 
L 232.821298 295.067706 
L 232.883251 294.553857 
L 232.947416 294.553857 
L 232.949629 294.296933 
L 233.164251 294.296933 
L 233.168676 294.040008 
L 234.611291 294.040008 
L 235.195417 293.783084 
L 241.693822 293.783084 
L 241.7602 293.269235 
L 241.81994 293.269235 
L 241.928357 293.012311 
L 246.948746 293.012311 
L 247.035037 292.498462 
L 247.108053 292.498462 
L 247.178856 291.984613 
L 247.243021 291.984613 
L 247.316037 291.470764 
L 247.373565 291.470764 
L 247.415604 291.21384 
L 247.98203 291.21384 
L 248.214353 290.956916 
L 249.703432 290.956916 
L 251.732386 290.699991 
L 256.699672 290.699991 
L 256.816939 290.186142 
L 256.82579 290.186142 
L 256.94527 289.672294 
L 256.95412 289.672294 
L 257.016073 289.158445 
L 262.89495 289.158445 
L 262.899375 288.901521 
L 265.165077 288.901521 
L 265.253581 288.387672 
L 265.304471 288.387672 
L 265.395188 287.873823 
L 269.90004 287.873823 
L 269.999607 287.359974 
L 270.043859 287.359974 
L 270.050497 287.10305 
L 273.068483 287.10305 
L 273.165837 286.332277 
L 276.493587 286.332277 
L 276.566602 285.818428 
L 276.630768 285.818428 
L 276.635193 285.561504 
L 278.206139 285.561504 
L 279.13543 285.304579 
L 280.303683 285.304579 
L 280.308108 285.047655 
L 282.443267 285.047655 
L 282.520708 284.533806 
L 282.57381 284.533806 
L 282.644613 284.019957 
L 282.717629 284.019957 
L 282.719841 283.763033 
L 284.169094 283.763033 
L 284.273086 282.99226 
L 284.341677 282.99226 
L 284.34389 282.735335 
L 288.691647 282.735335 
L 288.806703 281.964562 
L 288.866443 281.964562 
L 288.92397 281.450713 
L 292.718579 281.450713 
L 292.798232 280.936865 
L 292.853547 280.936865 
L 292.953114 280.166091 
L 297.502219 280.166091 
L 297.581872 279.652243 
L 297.637187 279.652243 
L 297.688077 279.138394 
L 299.351952 279.138394 
L 299.431605 278.624545 
L 300.880858 278.624545 
L 300.953874 278.110696 
L 301.04459 278.110696 
L 301.049016 277.853772 
L 303.823615 277.853772 
L 303.887781 277.339923 
L 304.706443 277.339923 
L 304.710868 277.082999 
L 305.786191 277.082999 
L 305.887971 276.312226 
L 307.518657 276.312226 
L 307.525294 276.055301 
L 308.410334 276.055301 
L 308.467862 275.541453 
L 309.782146 275.541453 
L 309.799847 275.284528 
L 310.737989 275.284528 
L 310.841981 274.770679 
L 312.388588 274.770679 
L 313.247077 274.513755 
L 313.320092 273.742982 
L 315.349046 273.742982 
L 315.351259 273.486058 
L 315.826968 273.486058 
L 315.908834 272.715284 
L 317.546157 272.715284 
L 317.928937 272.45836 
L 318.375882 272.45836 
L 318.43341 271.944511 
L 319.331725 271.944511 
L 319.420229 271.687587 
L 319.77867 271.687587 
L 320.139324 271.430662 
L 320.141537 271.173738 
L 320.54423 271.173738 
L 320.550867 270.916814 
L 321.002238 270.916814 
L 321.099592 270.402965 
L 321.422632 270.402965 
L 322.50238 270.146041 
L 322.608585 269.118343 
L 323.265727 269.118343 
L 324.358751 268.861419 
L 324.471594 267.833721 
L 326.679768 267.833721 
L 327.232918 267.576797 
L 327.354611 266.806024 
L 327.361249 266.806024 
L 327.390012 266.292175 
L 329.441092 266.292175 
L 329.879187 266.03525 
L 329.989817 265.007553 
L 330.023006 265.007553 
L 330.076108 264.493704 
L 331.877164 264.493704 
L 332.067448 263.722931 
L 332.06966 263.466007 
L 334.808859 263.466007 
L 334.983654 262.695233 
L 335.069945 261.92446 
L 335.443875 261.92446 
L 335.4483 261.667536 
L 338.12112 261.667536 
L 338.202986 260.896763 
L 340.442137 260.896763 
L 340.497452 260.382914 
L 340.959885 260.382914 
L 341.119192 259.869065 
L 341.882539 259.869065 
L 342.004232 259.098292 
L 342.01087 259.098292 
L 342.050697 258.584443 
L 342.805193 258.584443 
L 343.088406 258.327519 
L 343.141508 257.81367 
L 344.387202 257.81367 
L 344.497832 257.556746 
L 348.172959 257.556746 
L 348.648668 257.299821 
L 349.96074 257.299821 
L 350.08022 257.042897 
L 351.777284 257.042897 
L 351.779497 256.785973 
L 352.715426 256.785973 
L 352.719851 256.529048 
L 354.35275 256.529048 
L 354.430191 256.015199 
L 355.231152 256.015199 
L 355.233364 255.758275 
L 355.410372 255.758275 
L 355.423648 255.244426 
L 356.543223 255.244426 
L 356.547649 254.987502 
L 357.189302 254.987502 
L 357.193728 254.730577 
L 357.558806 254.730577 
L 357.620759 254.473653 
L 357.928311 254.216729 
L 357.992476 253.70288 
L 358.512437 253.70288 
L 358.850965 253.445956 
L 359.616524 253.445956 
L 360.08117 253.189031 
L 360.180737 252.418258 
L 361.990643 252.418258 
L 362.265006 252.161334 
L 363.681069 252.161334 
L 363.778424 251.39056 
L 366.152543 251.39056 
L 366.258748 250.362863 
L 366.285299 250.362863 
L 366.3207 249.849014 
L 367.606221 249.849014 
L 367.661536 249.59209 
L 368.931568 249.59209 
L 368.962544 249.335165 
L 369.075387 249.335165 
L 369.143977 248.564392 
L 369.203718 248.564392 
L 369.210355 248.307468 
L 370.655183 248.307468 
L 370.929545 247.793619 
L 371.046813 246.765922 
L 371.08664 246.765922 
L 371.088852 246.508997 
L 373.622279 246.508997 
L 373.662106 245.995148 
L 375.556091 245.995148 
L 375.863642 245.738224 
L 376.520784 245.738224 
L 376.633627 244.710526 
L 376.675666 244.710526 
L 376.717705 244.196678 
L 391.533272 244.196678 
L 391.6085 243.682829 
L 391.670453 243.682829 
L 391.756744 243.16898 
L 391.871799 243.16898 
L 391.904988 242.655131 
L 391.993492 242.655131 
L 392.095272 242.141283 
L 392.157225 242.141283 
L 392.254579 241.627434 
L 393.451595 241.627434 
L 393.641879 241.113585 
L 398.129031 241.113585 
L 398.241873 240.599736 
L 398.246298 240.599736 
L 398.323739 240.342812 
L 398.542787 239.572039 
L 403.640616 239.572039 
L 403.746821 238.801266 
L 403.815411 238.801266 
L 403.881789 238.544341 
L 407.034744 238.544341 
L 407.11661 238.030493 
L 407.171925 238.030493 
L 407.242728 237.516644 
L 407.309106 237.516644 
L 407.368846 237.002795 
L 409.28717 237.002795 
L 409.291595 236.745871 
L 418.74382 236.745871 
L 418.805773 236.232022 
L 418.889852 236.232022 
L 418.967293 235.975097 
L 419.119962 235.204324 
L 427.505714 235.204324 
L 427.625194 234.690476 
L 427.640683 234.690476 
L 427.720336 233.919702 
L 427.775651 233.919702 
L 427.85973 233.662778 
L 433.121291 233.662778 
L 433.216433 232.892005 
L 433.251835 232.892005 
L 433.344764 232.121232 
L 433.386803 232.121232 
L 433.450969 231.607383 
L 440.429508 231.607383 
L 440.520224 230.83661 
L 440.573327 230.83661 
L 440.664043 230.065837 
L 440.721571 230.065837 
L 440.723783 229.808912 
L 441.046823 229.808912 
L 446.553983 229.551988 
L 446.615936 229.038139 
L 446.706652 229.038139 
L 446.711078 228.781215 
L 453.82016 228.781215 
L 453.910876 228.267366 
L 453.94849 228.267366 
L 454.070183 227.496593 
L 467.281615 227.496593 
L 467.405521 226.468895 
L 467.445347 226.468895 
L 467.505087 225.955046 
L 476.472753 225.955046 
L 476.594446 224.927349 
L 476.627635 224.927349 
L 476.722777 224.156576 
L 483.964615 224.156576 
L 484.066395 223.385803 
L 484.110647 223.385803 
L 484.161536 222.871954 
L 487.420695 222.871954 
L 487.5269 222.101181 
L 487.655231 222.101181 
L 487.659656 221.844256 
L 489.958547 221.844256 
L 490.07139 220.816559 
L 493.069462 220.816559 
L 493.073887 220.559634 
L 495.109479 220.559634 
L 495.215683 219.788861 
L 496.187015 219.788861 
L 496.288794 219.018088 
L 497.64733 219.018088 
L 497.974795 218.761164 
L 498.808945 218.761164 
L 499.337756 218.504239 
L 501.194127 218.504239 
L 501.453001 217.990391 
L 501.490616 217.476542 
L 503.015097 217.476542 
L 503.35805 217.219617 
L 504.833853 217.219617 
L 504.948909 216.19192 
L 507.25665 216.19192 
L 508.115138 215.934995 
L 508.117351 215.678071 
L 511.429612 215.678071 
L 511.535817 214.650374 
L 511.575644 214.650374 
L 511.577857 214.393449 
L 514.837016 214.393449 
L 514.916669 213.622676 
L 514.963134 213.622676 
L 514.967559 213.365752 
L 517.098292 213.365752 
L 517.485497 213.108827 
L 518.567458 213.108827 
L 518.686939 211.824205 
L 518.706852 211.824205 
L 518.711277 211.567281 
L 519.919357 211.567281 
L 522.44172 211.310357 
L 523.93965 211.310357 
L 524.034792 210.539583 
L 524.079044 210.539583 
L 524.083469 210.282659 
L 526.515116 210.282659 
L 526.82488 210.025735 
L 526.886832 209.511886 
L 527.793998 209.511886 
L 527.796211 209.254962 
L 529.148109 209.254962 
L 529.256527 208.227264 
L 529.274227 208.227264 
L 529.320692 207.97034 
L 530.362826 207.97034 
L 531.042094 207.713415 
L 531.11511 207.456491 
L 532.469221 207.456491 
L 532.471434 207.199566 
L 533.044497 207.199566 
L 533.077686 206.942642 
L 534.285765 206.942642 
L 534.422946 205.914945 
L 534.489324 205.914945 
L 534.595529 205.144171 
L 537.020538 205.144171 
L 537.022751 204.887247 
L 537.912216 204.887247 
L 537.921066 204.630323 
L 538.075948 204.630323 
L 538.39235 204.116474 
L 538.496342 203.345701 
L 540.326162 203.345701 
L 540.441217 202.061079 
L 542.607352 202.061079 
L 543.012258 201.804154 
L 543.043234 201.290306 
L 544.052179 201.290306 
L 544.149534 200.262608 
L 544.176085 200.262608 
L 544.178297 200.005684 
L 547.45737 200.005684 
L 547.552512 199.234911 
L 547.598976 199.234911 
L 547.707394 198.464137 
L 547.72952 198.464137 
L 547.731732 198.207213 
L 552.880451 198.207213 
L 552.960105 197.43644 
L 555.595311 197.43644 
L 555.84976 197.179515 
L 555.96039 196.408742 
L 555.984728 196.408742 
L 556.02898 195.894894 
L 556.648508 195.894894 
L 557.139705 195.637969 
L 557.223784 194.867196 
L 557.263611 194.867196 
L 557.301225 194.353347 
L 559.403195 194.353347 
L 559.40762 194.096423 
L 560.912187 194.096423 
L 560.943164 193.582574 
L 561.755188 193.582574 
L 561.814928 193.068725 
L 563.877071 193.068725 
L 564.286402 192.811801 
L 564.293039 192.554877 
L 573.147863 192.554877 
L 573.269555 191.784103 
L 573.311595 191.784103 
L 573.406737 191.270255 
L 573.448776 191.270255 
L 573.566044 190.499481 
L 573.58817 190.499481 
L 573.705438 189.728708 
L 580.32996 189.728708 
L 580.677339 189.471784 
L 582.456269 189.471784 
L 582.558048 188.957935 
L 582.606725 188.957935 
L 582.708505 188.187162 
L 591.802289 188.187162 
L 591.895218 187.416389 
L 591.943895 187.416389 
L 592.191706 186.131767 
L 597.855961 186.131767 
L 597.968804 185.104069 
L 598.004205 185.104069 
L 598.083859 184.333296 
L 608.308281 184.333296 
L 617.981766 184.076372 
L 618.059207 183.562523 
L 618.112309 183.562523 
L 618.200813 182.79175 
L 624.101816 182.79175 
L 624.223509 181.764052 
L 624.261123 181.764052 
L 624.334139 181.250204 
L 624.389454 181.250204 
L 624.391667 180.993279 
L 633.750962 180.993279 
L 633.881506 179.965582 
L 633.908057 179.965582 
L 633.963372 179.451733 
L 643.80944 179.451733 
L 658.945833 179.194809 
L 659.063101 178.424035 
L 659.09629 178.424035 
L 659.131691 177.910187 
L 666.249624 177.910187 
L 666.355828 177.139413 
L 666.40008 177.139413 
L 666.512923 176.882489 
L 672.88521 176.625565 
L 675.812479 176.36864 
L 675.905408 175.597867 
L 675.945235 175.597867 
L 675.947447 175.340943 
L 681.262111 175.340943 
L 681.326277 174.827094 
L 682.948112 174.827094 
L 683.032191 174.313245 
L 684.242483 174.313245 
L 684.246908 174.056321 
L 684.373026 174.056321 
L 684.375239 173.799397 
L 686.191783 173.799397 
L 686.317901 172.771699 
L 687.483941 172.771699 
L 688.251713 172.514775 
L 688.258351 172.25785 
L 690.30943 172.25785 
L 690.619194 172.000926 
L 691.57725 172.000926 
L 691.648053 171.230153 
L 693.506637 171.230153 
L 693.584078 170.45938 
L 695.714811 170.45938 
L 695.803315 169.688606 
L 697.004756 169.688606 
L 697.006969 169.431682 
L 699.589073 169.431682 
L 699.752805 168.660909 
L 700.409947 168.660909 
L 701.483058 168.403984 
L 701.556074 167.633211 
L 703.270838 167.633211 
L 703.905854 167.376287 
L 704.003209 166.348589 
L 704.031972 166.348589 
L 704.034185 166.091665 
L 706.034375 166.091665 
L 707.047746 165.834741 
L 707.162801 164.807043 
L 707.189352 164.807043 
L 707.191565 164.550119 
L 708.474872 164.550119 
L 709.494881 164.293194 
L 709.607723 164.03627 
L 711.946441 164.03627 
L 712.04822 163.008572 
L 712.085835 163.008572 
L 712.088047 162.751648 
L 713.632442 162.751648 
L 714.285158 162.494724 
L 714.344899 161.72395 
L 715.814065 161.72395 
L 715.840616 161.467026 
L 716.668128 161.467026 
L 716.670341 161.210102 
L 717.927097 161.210102 
L 717.986837 160.696253 
L 719.296696 160.696253 
L 719.529019 160.182404 
L 720.513626 160.182404 
L 720.582217 159.668555 
L 721.354414 159.668555 
L 721.354414 159.668555 
L 721.358839 159.411631 
L 721.814635 159.411631 
L 721.92969 158.640858 
L 724.837045 158.640858 
L 724.945463 157.61316 
L 724.976439 157.61316 
L 724.978652 157.356236 
L 725.093707 157.356236 
L 728.133819 157.099312 
L 728.257724 156.071614 
L 728.290913 156.071614 
L 728.33074 155.557765 
L 730.494662 155.557765 
L 730.567678 154.786992 
L 732.273592 154.786992 
L 732.311206 154.273143 
L 734.012695 154.273143 
L 734.114475 153.245446 
L 734.143239 153.245446 
L 734.253869 152.217748 
L 734.284845 152.217748 
L 734.28927 151.960824 
L 739.409226 151.960824 
L 739.493304 151.190051 
L 741.391715 151.190051 
L 741.391715 151.190051 
L 741.39614 150.933126 
L 742.236928 150.933126 
L 742.644046 150.676202 
L 743.341015 150.676202 
L 743.453857 150.162353 
L 745.221724 150.162353 
L 745.29474 149.648504 
L 745.936394 149.648504 
L 745.936394 149.648504 
L 745.938607 149.39158 
L 746.383339 149.39158 
L 746.458568 148.620807 
L 747.427686 148.620807 
L 747.533891 147.593109 
L 747.562655 147.593109 
L 747.564867 147.336185 
L 748.626915 147.336185 
L 748.629128 147.079261 
L 750.082806 147.079261 
L 750.146971 146.308487 
L 751.144853 146.308487 
L 751.217869 145.537714 
L 751.273184 145.537714 
L 751.339562 145.023865 
L 754.373036 145.023865 
L 754.488091 144.253092 
L 755.351005 144.253092 
L 755.353218 143.996168 
L 756.514832 143.996168 
L 756.6321 143.225395 
L 756.678565 142.711546 
L 758.948692 142.711546 
L 758.986306 142.454622 
L 766.234782 142.454622 
L 766.347624 141.426924 
L 766.400727 141.426924 
L 766.489231 140.656151 
L 766.537908 140.656151 
L 766.58216 140.142302 
L 774.282006 140.142302 
L 774.366085 139.371529 
L 774.405912 139.371529 
L 774.498841 138.85768 
L 781.304797 138.85768 
L 781.404364 138.086907 
L 781.43534 138.086907 
L 781.47738 137.829983 
L 782.696522 137.829983 
L 782.957609 137.316134 
L 794.699874 137.316134 
L 794.806079 136.545361 
L 794.828205 136.545361 
L 794.918922 135.774588 
L 800.547775 135.774588 
L 800.640704 135.003815 
L 800.680531 135.003815 
L 800.764609 134.233041 
L 800.835413 134.233041 
L 800.837625 133.976117 
L 802.432909 133.976117 
L 811.803268 133.719193 
L 811.885134 132.948419 
L 811.953725 132.948419 
L 812.042229 132.434571 
L 820.073965 132.434571 
L 820.073965 132.434571 
L 820.195658 131.406873 
L 820.246548 131.406873 
L 820.326201 130.893024 
L 820.383729 130.893024 
L 820.434619 130.379176 
L 831.997664 130.379176 
L 832.110506 129.351478 
L 832.150333 129.351478 
L 832.238837 128.580705 
L 832.280876 128.580705 
L 832.35168 128.323781 
L 843.70674 128.066856 
L 843.70674 128.066856 
L 843.81737 127.296083 
L 843.85941 127.296083 
L 843.903662 126.782234 
L 845.625064 126.782234 
L 855.48662 126.52531 
L 855.586187 125.754537 
L 855.617163 125.754537 
L 855.710092 124.983764 
L 855.743281 124.983764 
L 855.747707 124.726839 
L 863.876797 124.726839 
L 863.994065 123.699142 
L 864.033892 123.699142 
L 864.036104 123.442217 
L 869.452548 123.442217 
L 869.543264 122.671444 
L 869.576453 122.671444 
L 869.671595 121.900671 
L 872.435132 121.900671 
L 872.676305 121.643747 
L 873.780392 121.643747 
L 873.784818 121.386822 
L 875.231858 121.386822 
L 875.448692 120.872973 
L 875.530559 120.1022 
L 877.729882 120.1022 
L 878.336135 119.845276 
L 880.367301 119.845276 
L 880.464655 119.074503 
L 881.542191 119.074503 
L 881.803278 118.817578 
L 883.825594 118.817578 
L 883.827807 118.560654 
L 884.863303 118.560654 
L 884.885429 118.30373 
L 885.325736 118.30373 
L 885.460705 117.019108 
L 887.509572 117.019108 
L 887.693218 115.477561 
L 889.242038 115.477561 
L 890.040786 115.220637 
L 890.065125 114.963713 
L 892.034338 114.963713 
L 892.140543 113.936015 
L 892.191433 113.936015 
L 892.211346 113.422166 
L 895.039048 113.422166 
L 895.178442 113.165242 
L 896.404222 113.165242 
L 896.966222 112.908317 
L 897.072427 111.88062 
L 897.13438 111.88062 
L 897.156506 111.366771 
L 899.309365 111.366771 
L 900.227594 111.109847 
L 901.063957 111.109847 
L 901.172374 110.082149 
L 902.475595 110.082149 
L 902.544186 109.311376 
L 905.272321 109.311376 
L 905.363037 108.283679 
L 907.37429 108.283679 
L 907.856637 108.026754 
L 907.900889 107.512905 
L 910.15774 107.512905 
L 910.275008 106.485208 
L 910.292709 106.485208 
L 910.405552 105.45751 
L 915.1029 105.45751 
L 915.217956 104.429813 
L 915.248932 104.429813 
L 915.251145 104.172888 
L 917.189382 104.172888 
L 917.293374 103.65904 
L 918.204965 103.65904 
L 918.293469 103.145191 
L 919.346666 103.145191 
L 919.488273 102.888267 
L 921.371195 102.888267 
L 921.481825 101.860569 
L 921.510588 101.860569 
L 921.54599 101.34672 
L 924.488747 101.34672 
L 924.493173 101.089796 
L 925.696827 101.089796 
L 925.871622 100.832871 
L 926.982347 100.832871 
L 927.019961 100.319023 
L 929.013513 100.319023 
L 929.124143 99.291325 
L 929.982632 99.291325 
L 930.062285 98.520552 
L 931.801389 98.520552 
L 931.889893 97.749779 
L 931.931932 97.749779 
L 932.016011 96.979006 
L 933.905571 96.979006 
L 934.095854 96.722081 
L 934.199847 95.694384 
L 935.839383 95.694384 
L 935.945587 94.666686 
L 937.830722 94.666686 
L 938.164825 94.409762 
L 938.213502 93.895913 
L 940.932787 93.895913 
L 941.118645 93.382064 
L 941.238125 92.354367 
L 941.242551 92.097442 
L 943.11441 92.097442 
L 943.218402 91.069745 
L 943.271504 91.069745 
L 943.300268 90.555896 
L 944.129993 90.555896 
L 946.300553 90.298972 
L 946.380207 89.528199 
L 951.334217 89.528199 
L 959.961142 89.271274 
L 959.965568 89.01435 
L 961.925931 89.01435 
L 962.003372 88.757425 
L 962.242332 87.472803 
L 969.271761 87.472803 
L 969.353627 86.958955 
L 969.393454 86.958955 
L 969.468682 86.188182 
L 969.548336 86.188182 
L 969.667816 85.417408 
L 969.712068 85.417408 
L 969.785084 84.646635 
L 978.527065 84.646635 
L 978.659821 83.618938 
L 978.695222 83.618938 
L 978.783726 82.848165 
L 978.816915 82.848165 
L 978.867805 82.334316 
L 988.21825 82.334316 
L 988.317817 81.563543 
L 996.946955 81.563543 
L 997.046522 80.792769 
L 997.086349 80.792769 
L 997.17264 80.278921 
L 1001.252674 80.278921 
L 1001.254887 80.021996 
L 1001.381005 80.021996 
L 1001.462871 79.251223 
L 1001.507123 79.251223 
L 1001.511548 78.994299 
L 1005.996487 78.994299 
L 1006.082779 78.223526 
L 1007.065173 78.223526 
L 1011.707206 77.966601 
L 1011.797923 77.195828 
L 1011.864301 77.195828 
L 1011.915191 76.681979 
L 1017.650249 76.681979 
L 1017.703351 76.168131 
L 1017.776367 76.168131 
L 1017.875934 75.397357 
L 1017.913548 75.397357 
L 1017.917973 75.140433 
L 1024.546921 75.140433 
L 1024.602236 74.626584 
L 1031.078515 74.626584 
L 1031.144893 74.112736 
L 1031.202421 74.112736 
L 1031.279862 73.341962 
L 1031.339602 73.341962 
L 1031.383854 72.828114 
L 1038.937668 72.828114 
L 1040.74315 72.571189 
L 1040.745362 72.314265 
L 1043.017702 72.314265 
L 1043.103993 71.543492 
L 1043.14382 71.543492 
L 1043.225686 70.772719 
L 1053.54525 70.772719 
L 1053.549675 70.515794 
L 1055.908306 70.515794 
L 1055.994598 69.745021 
L 1056.056551 69.745021 
L 1056.160543 68.974248 
L 1056.443755 68.974248 
L 1058.10763 68.717323 
L 1059.884348 68.717323 
L 1060.457411 68.460399 
L 1060.537065 67.94655 
L 1062.537254 67.94655 
L 1062.866932 67.689626 
L 1062.955436 66.918853 
L 1062.988625 66.918853 
L 1062.997475 66.661928 
L 1065.451248 66.661928 
L 1065.524264 66.14808 
L 1066.639414 66.14808 
L 1066.995642 65.891155 
L 1067.028831 65.634231 
L 1068.190446 65.634231 
L 1068.922817 65.377306 
L 1070.040179 65.377306 
L 1070.161872 64.606533 
L 1070.186211 64.606533 
L 1070.188423 64.349609 
L 1072.451913 64.349609 
L 1072.752826 64.092685 
L 1072.861244 63.064987 
L 1076.073938 63.064987 
L 1076.186781 62.037289 
L 1076.206694 62.037289 
L 1076.290773 61.266516 
L 1078.045364 61.266516 
L 1079.091924 61.009592 
L 1079.138388 60.495743 
L 1080.700484 60.495743 
L 1080.824389 59.468046 
L 1083.596776 59.468046 
L 1083.709619 58.440348 
L 1083.747233 58.440348 
L 1083.811398 57.669575 
L 1083.873351 57.669575 
L 1083.875564 57.412651 
L 1085.83814 57.412651 
L 1085.84699 57.155726 
L 1085.968683 57.155726 
L 1085.970896 56.898802 
L 1088.143668 56.898802 
L 1088.249873 55.871104 
L 1088.300763 55.871104 
L 1088.302975 55.61418 
L 1090.006677 55.61418 
L 1090.657181 55.357255 
L 1090.699221 54.843407 
L 1090.781087 54.843407 
L 1090.838614 54.329558 
L 1095.451884 54.329558 
L 1095.56694 53.30186 
L 1095.608979 53.30186 
L 1095.611192 53.044936 
L 1099.512004 53.044936 
L 1099.613784 52.017238 
L 1099.660249 52.017238 
L 1099.750965 51.50339 
L 1099.79743 51.50339 
L 1099.850532 50.989541 
L 1103.010124 50.989541 
L 1103.012337 50.732617 
L 1106.490543 50.732617 
L 1106.579047 49.961843 
L 1108.541623 49.961843 
L 1108.65004 49.19107 
L 1108.689867 49.19107 
L 1108.745182 48.934146 
L 1110.466584 48.934146 
L 1110.548451 48.420297 
L 1111.466679 48.420297 
L 1111.468892 48.163373 
L 1111.701215 48.163373 
L 1111.70564 47.906448 
L 1113.354027 47.906448 
L 1113.438106 47.135675 
L 1113.488995 47.135675 
L 1113.597413 46.364902 
L 1113.690342 46.107978 
L 1115.942768 46.107978 
L 1116.068886 45.08028 
L 1117.460611 45.08028 
L 1117.571241 44.309507 
L 1119.511691 44.309507 
L 1119.628959 43.281809 
L 1119.675424 43.281809 
L 1119.761715 42.511036 
L 1119.81703 42.511036 
L 1119.872345 41.997187 
L 1120.870227 41.997187 
L 1120.870227 41.997187 
" clip-path="url(#p5fa8df4a41)" style="fill: none; stroke: #0000ff; stroke-width: 1.5; stroke-linecap: square"/>
   </g>
   <g id="patch_157">
    <path d="M 55.5975 359.517187 
L 55.5975 26.877187 
" style="fill: none; stroke: #000000; stroke-width: 0.8; stroke-linejoin: miter; stroke-linecap: square"/>
   </g>
   <g id="patch_158">
    <path d="M 1171.5975 359.517187 
L 1171.5975 26.877187 
" style="fill: none; stroke: #000000; stroke-width: 0.8; stroke-linejoin: miter; stroke-linecap: square"/>
   </g>
   <g id="patch_159">
    <path d="M 55.5975 359.517187 
L 1171.5975 359.517187 
" style="fill: none; stroke: #000000; stroke-width: 0.8; stroke-linejoin: miter; stroke-linecap: square"/>
   </g>
   <g id="patch_160">
    <path d="M 55.5975 26.877187 
L 1171.5975 26.877187 
" style="fill: none; stroke: #000000; stroke-width: 0.8; stroke-linejoin: miter; stroke-linecap: square"/>
   </g>
   <g id="text_15">
    <!-- Pellet Count and Cumulative Sum Over Time of Group 3 Mouse 2 -->
    <g transform="translate(321.823125 20.877187) scale(0.18 -0.18)">
     <defs>
      <path id="DejaVuSans-20" transform="scale(0.015625)"/>
      <path id="DejaVuSans-61" d="M 2194 1759 
Q 1497 1759 1228 1600 
Q 959 1441 959 1056 
Q 959 750 1161 570 
Q 1363 391 1709 391 
Q 2188 391 2477 730 
Q 2766 1069 2766 1631 
L 2766 1759 
L 2194 1759 
z
M 3341 1997 
L 3341 0 
L 2766 0 
L 2766 531 
Q 2569 213 2275 61 
Q 1981 -91 1556 -91 
Q 1019 -91 701 211 
Q 384 513 384 1019 
Q 384 1609 779 1909 
Q 1175 2209 1959 2209 
L 2766 2209 
L 2766 2266 
Q 2766 2663 2505 2880 
Q 2244 3097 1772 3097 
Q 1472 3097 1187 3025 
Q 903 2953 641 2809 
L 641 3341 
Q 956 3463 1253 3523 
Q 1550 3584 1831 3584 
Q 2591 3584 2966 3190 
Q 3341 2797 3341 1997 
z
" transform="scale(0.015625)"/>
      <path id="DejaVuSans-64" d="M 2906 2969 
L 2906 4863 
L 3481 4863 
L 3481 0 
L 2906 0 
L 2906 525 
Q 2725 213 2448 61 
Q 2172 -91 1784 -91 
Q 1150 -91 751 415 
Q 353 922 353 1747 
Q 353 2572 751 3078 
Q 1150 3584 1784 3584 
Q 2172 3584 2448 3432 
Q 2725 3281 2906 2969 
z
M 947 1747 
Q 947 1113 1208 752 
Q 1469 391 1925 391 
Q 2381 391 2643 752 
Q 2906 1113 2906 1747 
Q 2906 2381 2643 2742 
Q 2381 3103 1925 3103 
Q 1469 3103 1208 2742 
Q 947 2381 947 1747 
z
" transform="scale(0.015625)"/>
      <path id="DejaVuSans-76" d="M 191 3500 
L 800 3500 
L 1894 563 
L 2988 3500 
L 3597 3500 
L 2284 0 
L 1503 0 
L 191 3500 
z
" transform="scale(0.015625)"/>
      <path id="DejaVuSans-53" d="M 3425 4513 
L 3425 3897 
Q 3066 4069 2747 4153 
Q 2428 4238 2131 4238 
Q 1616 4238 1336 4038 
Q 1056 3838 1056 3469 
Q 1056 3159 1242 3001 
Q 1428 2844 1947 2747 
L 2328 2669 
Q 3034 2534 3370 2195 
Q 3706 1856 3706 1288 
Q 3706 609 3251 259 
Q 2797 -91 1919 -91 
Q 1588 -91 1214 -16 
Q 841 59 441 206 
L 441 856 
Q 825 641 1194 531 
Q 1563 422 1919 422 
Q 2459 422 2753 634 
Q 3047 847 3047 1241 
Q 3047 1584 2836 1778 
Q 2625 1972 2144 2069 
L 1759 2144 
Q 1053 2284 737 2584 
Q 422 2884 422 3419 
Q 422 4038 858 4394 
Q 1294 4750 2059 4750 
Q 2388 4750 2728 4690 
Q 3069 4631 3425 4513 
z
" transform="scale(0.015625)"/>
      <path id="DejaVuSans-4f" d="M 2522 4238 
Q 1834 4238 1429 3725 
Q 1025 3213 1025 2328 
Q 1025 1447 1429 934 
Q 1834 422 2522 422 
Q 3209 422 3611 934 
Q 4013 1447 4013 2328 
Q 4013 3213 3611 3725 
Q 3209 4238 2522 4238 
z
M 2522 4750 
Q 3503 4750 4090 4092 
Q 4678 3434 4678 2328 
Q 4678 1225 4090 567 
Q 3503 -91 2522 -91 
Q 1538 -91 948 565 
Q 359 1222 359 2328 
Q 359 3434 948 4092 
Q 1538 4750 2522 4750 
z
" transform="scale(0.015625)"/>
      <path id="DejaVuSans-72" d="M 2631 2963 
Q 2534 3019 2420 3045 
Q 2306 3072 2169 3072 
Q 1681 3072 1420 2755 
Q 1159 2438 1159 1844 
L 1159 0 
L 581 0 
L 581 3500 
L 1159 3500 
L 1159 2956 
Q 1341 3275 1631 3429 
Q 1922 3584 2338 3584 
Q 2397 3584 2469 3576 
Q 2541 3569 2628 3553 
L 2631 2963 
z
" transform="scale(0.015625)"/>
      <path id="DejaVuSans-66" d="M 2375 4863 
L 2375 4384 
L 1825 4384 
Q 1516 4384 1395 4259 
Q 1275 4134 1275 3809 
L 1275 3500 
L 2222 3500 
L 2222 3053 
L 1275 3053 
L 1275 0 
L 697 0 
L 697 3053 
L 147 3053 
L 147 3500 
L 697 3500 
L 697 3744 
Q 697 4328 969 4595 
Q 1241 4863 1831 4863 
L 2375 4863 
z
" transform="scale(0.015625)"/>
      <path id="DejaVuSans-47" d="M 3809 666 
L 3809 1919 
L 2778 1919 
L 2778 2438 
L 4434 2438 
L 4434 434 
Q 4069 175 3628 42 
Q 3188 -91 2688 -91 
Q 1594 -91 976 548 
Q 359 1188 359 2328 
Q 359 3472 976 4111 
Q 1594 4750 2688 4750 
Q 3144 4750 3555 4637 
Q 3966 4525 4313 4306 
L 4313 3634 
Q 3963 3931 3569 4081 
Q 3175 4231 2741 4231 
Q 1884 4231 1454 3753 
Q 1025 3275 1025 2328 
Q 1025 1384 1454 906 
Q 1884 428 2741 428 
Q 3075 428 3337 486 
Q 3600 544 3809 666 
z
" transform="scale(0.015625)"/>
      <path id="DejaVuSans-70" d="M 1159 525 
L 1159 -1331 
L 581 -1331 
L 581 3500 
L 1159 3500 
L 1159 2969 
Q 1341 3281 1617 3432 
Q 1894 3584 2278 3584 
Q 2916 3584 3314 3078 
Q 3713 2572 3713 1747 
Q 3713 922 3314 415 
Q 2916 -91 2278 -91 
Q 1894 -91 1617 61 
Q 1341 213 1159 525 
z
M 3116 1747 
Q 3116 2381 2855 2742 
Q 2594 3103 2138 3103 
Q 1681 3103 1420 2742 
Q 1159 2381 1159 1747 
Q 1159 1113 1420 752 
Q 1681 391 2138 391 
Q 2594 391 2855 752 
Q 3116 1113 3116 1747 
z
" transform="scale(0.015625)"/>
      <path id="DejaVuSans-33" d="M 2597 2516 
Q 3050 2419 3304 2112 
Q 3559 1806 3559 1356 
Q 3559 666 3084 287 
Q 2609 -91 1734 -91 
Q 1441 -91 1130 -33 
Q 819 25 488 141 
L 488 750 
Q 750 597 1062 519 
Q 1375 441 1716 441 
Q 2309 441 2620 675 
Q 2931 909 2931 1356 
Q 2931 1769 2642 2001 
Q 2353 2234 1838 2234 
L 1294 2234 
L 1294 2753 
L 1863 2753 
Q 2328 2753 2575 2939 
Q 2822 3125 2822 3475 
Q 2822 3834 2567 4026 
Q 2313 4219 1838 4219 
Q 1578 4219 1281 4162 
Q 984 4106 628 3988 
L 628 4550 
Q 988 4650 1302 4700 
Q 1616 4750 1894 4750 
Q 2613 4750 3031 4423 
Q 3450 4097 3450 3541 
Q 3450 3153 3228 2886 
Q 3006 2619 2597 2516 
z
" transform="scale(0.015625)"/>
      <path id="DejaVuSans-4d" d="M 628 4666 
L 1569 4666 
L 2759 1491 
L 3956 4666 
L 4897 4666 
L 4897 0 
L 4281 0 
L 4281 4097 
L 3078 897 
L 2444 897 
L 1241 4097 
L 1241 0 
L 628 0 
L 628 4666 
z
" transform="scale(0.015625)"/>
      <path id="DejaVuSans-73" d="M 2834 3397 
L 2834 2853 
Q 2591 2978 2328 3040 
Q 2066 3103 1784 3103 
Q 1356 3103 1142 2972 
Q 928 2841 928 2578 
Q 928 2378 1081 2264 
Q 1234 2150 1697 2047 
L 1894 2003 
Q 2506 1872 2764 1633 
Q 3022 1394 3022 966 
Q 3022 478 2636 193 
Q 2250 -91 1575 -91 
Q 1294 -91 989 -36 
Q 684 19 347 128 
L 347 722 
Q 666 556 975 473 
Q 1284 391 1588 391 
Q 1994 391 2212 530 
Q 2431 669 2431 922 
Q 2431 1156 2273 1281 
Q 2116 1406 1581 1522 
L 1381 1569 
Q 847 1681 609 1914 
Q 372 2147 372 2553 
Q 372 3047 722 3315 
Q 1072 3584 1716 3584 
Q 2034 3584 2315 3537 
Q 2597 3491 2834 3397 
z
" transform="scale(0.015625)"/>
     </defs>
     <use xlink:href="#DejaVuSans-50"/>
     <use xlink:href="#DejaVuSans-65" x="56.677734"/>
     <use xlink:href="#DejaVuSans-6c" x="118.201172"/>
     <use xlink:href="#DejaVuSans-6c" x="145.984375"/>
     <use xlink:href="#DejaVuSans-65" x="173.767578"/>
     <use xlink:href="#DejaVuSans-74" x="235.291016"/>
     <use xlink:href="#DejaVuSans-20" x="274.5"/>
     <use xlink:href="#DejaVuSans-43" x="306.287109"/>
     <use xlink:href="#DejaVuSans-6f" x="376.111328"/>
     <use xlink:href="#DejaVuSans-75" x="437.292969"/>
     <use xlink:href="#DejaVuSans-6e" x="500.671875"/>
     <use xlink:href="#DejaVuSans-74" x="564.050781"/>
     <use xlink:href="#DejaVuSans-20" x="603.259766"/>
     <use xlink:href="#DejaVuSans-61" x="635.046875"/>
     <use xlink:href="#DejaVuSans-6e" x="696.326172"/>
     <use xlink:href="#DejaVuSans-64" x="759.705078"/>
     <use xlink:href="#DejaVuSans-20" x="823.181641"/>
     <use xlink:href="#DejaVuSans-43" x="854.96875"/>
     <use xlink:href="#DejaVuSans-75" x="924.792969"/>
     <use xlink:href="#DejaVuSans-6d" x="988.171875"/>
     <use xlink:href="#DejaVuSans-75" x="1085.583984"/>
     <use xlink:href="#DejaVuSans-6c" x="1148.962891"/>
     <use xlink:href="#DejaVuSans-61" x="1176.746094"/>
     <use xlink:href="#DejaVuSans-74" x="1238.025391"/>
     <use xlink:href="#DejaVuSans-69" x="1277.234375"/>
     <use xlink:href="#DejaVuSans-76" x="1305.017578"/>
     <use xlink:href="#DejaVuSans-65" x="1364.197266"/>
     <use xlink:href="#DejaVuSans-20" x="1425.720703"/>
     <use xlink:href="#DejaVuSans-53" x="1457.507812"/>
     <use xlink:href="#DejaVuSans-75" x="1520.984375"/>
     <use xlink:href="#DejaVuSans-6d" x="1584.363281"/>
     <use xlink:href="#DejaVuSans-20" x="1681.775391"/>
     <use xlink:href="#DejaVuSans-4f" x="1713.5625"/>
     <use xlink:href="#DejaVuSans-76" x="1792.273438"/>
     <use xlink:href="#DejaVuSans-65" x="1851.453125"/>
     <use xlink:href="#DejaVuSans-72" x="1912.976562"/>
     <use xlink:href="#DejaVuSans-20" x="1954.089844"/>
     <use xlink:href="#DejaVuSans-54" x="1985.876953"/>
     <use xlink:href="#DejaVuSans-69" x="2043.835938"/>
     <use xlink:href="#DejaVuSans-6d" x="2071.619141"/>
     <use xlink:href="#DejaVuSans-65" x="2169.03125"/>
     <use xlink:href="#DejaVuSans-20" x="2230.554688"/>
     <use xlink:href="#DejaVuSans-6f" x="2262.341797"/>
     <use xlink:href="#DejaVuSans-66" x="2323.523438"/>
     <use xlink:href="#DejaVuSans-20" x="2358.728516"/>
     <use xlink:href="#DejaVuSans-47" x="2390.515625"/>
     <use xlink:href="#DejaVuSans-72" x="2468.005859"/>
     <use xlink:href="#DejaVuSans-6f" x="2506.869141"/>
     <use xlink:href="#DejaVuSans-75" x="2568.050781"/>
     <use xlink:href="#DejaVuSans-70" x="2631.429688"/>
     <use xlink:href="#DejaVuSans-20" x="2694.90625"/>
     <use xlink:href="#DejaVuSans-33" x="2726.693359"/>
     <use xlink:href="#DejaVuSans-20" x="2790.316406"/>
     <use xlink:href="#DejaVuSans-4d" x="2822.103516"/>
     <use xlink:href="#DejaVuSans-6f" x="2908.382812"/>
     <use xlink:href="#DejaVuSans-75" x="2969.564453"/>
     <use xlink:href="#DejaVuSans-73" x="3032.943359"/>
     <use xlink:href="#DejaVuSans-65" x="3085.042969"/>
     <use xlink:href="#DejaVuSans-20" x="3146.566406"/>
     <use xlink:href="#DejaVuSans-32" x="3178.353516"/>
    </g>
   </g>
   <g id="legend_1">
    <g id="patch_161">
     <path d="M 1092.913125 64.233437 
L 1164.5975 64.233437 
Q 1166.5975 64.233437 1166.5975 62.233437 
L 1166.5975 33.877187 
Q 1166.5975 31.877187 1164.5975 31.877187 
L 1092.913125 31.877187 
Q 1090.913125 31.877187 1090.913125 33.877187 
L 1090.913125 62.233437 
Q 1090.913125 64.233437 1092.913125 64.233437 
z
" style="fill: #ffffff; opacity: 0.8; stroke: #cccccc; stroke-linejoin: miter"/>
    </g>
    <g id="patch_162">
     <path d="M 1094.913125 43.475625 
L 1114.913125 43.475625 
L 1114.913125 36.475625 
L 1094.913125 36.475625 
z
" style="fill: #add8e6; opacity: 0.9; stroke: #add8e6; stroke-linejoin: miter"/>
    </g>
    <g id="text_16">
     <!-- Meal -->
     <g transform="translate(1122.913125 43.475625) scale(0.1 -0.1)">
      <use xlink:href="#DejaVuSans-4d"/>
      <use xlink:href="#DejaVuSans-65" x="86.279297"/>
      <use xlink:href="#DejaVuSans-61" x="147.802734"/>
      <use xlink:href="#DejaVuSans-6c" x="209.082031"/>
     </g>
    </g>
    <g id="patch_163">
     <path d="M 1094.913125 58.15375 
L 1114.913125 58.15375 
L 1114.913125 51.15375 
L 1094.913125 51.15375 
z
" style="fill: #808080; opacity: 0.5; stroke: #808080; stroke-linejoin: miter"/>
    </g>
    <g id="text_17">
     <!-- Inactive -->
     <g transform="translate(1122.913125 58.15375) scale(0.1 -0.1)">
      <defs>
       <path id="DejaVuSans-49" d="M 628 4666 
L 1259 4666 
L 1259 0 
L 628 0 
L 628 4666 
z
" transform="scale(0.015625)"/>
       <path id="DejaVuSans-63" d="M 3122 3366 
L 3122 2828 
Q 2878 2963 2633 3030 
Q 2388 3097 2138 3097 
Q 1578 3097 1268 2742 
Q 959 2388 959 1747 
Q 959 1106 1268 751 
Q 1578 397 2138 397 
Q 2388 397 2633 464 
Q 2878 531 3122 666 
L 3122 134 
Q 2881 22 2623 -34 
Q 2366 -91 2075 -91 
Q 1284 -91 818 406 
Q 353 903 353 1747 
Q 353 2603 823 3093 
Q 1294 3584 2113 3584 
Q 2378 3584 2631 3529 
Q 2884 3475 3122 3366 
z
" transform="scale(0.015625)"/>
      </defs>
      <use xlink:href="#DejaVuSans-49"/>
      <use xlink:href="#DejaVuSans-6e" x="29.492188"/>
      <use xlink:href="#DejaVuSans-61" x="92.871094"/>
      <use xlink:href="#DejaVuSans-63" x="154.150391"/>
      <use xlink:href="#DejaVuSans-74" x="209.130859"/>
      <use xlink:href="#DejaVuSans-69" x="248.339844"/>
      <use xlink:href="#DejaVuSans-76" x="276.123047"/>
      <use xlink:href="#DejaVuSans-65" x="335.302734"/>
     </g>
    </g>
   </g>
  </g>
 </g>
 <defs>
  <clipPath id="p5fa8df4a41">
   <rect x="55.5975" y="26.877187" width="1116" height="332.64"/>
  </clipPath>
 </defs>
</svg>
