<?xml version="1.0" encoding="utf-8" standalone="no"?>
<!DOCTYPE svg PUBLIC "-//W3C//DTD SVG 1.1//EN"
  "http://www.w3.org/Graphics/SVG/1.1/DTD/svg11.dtd">
<svg xmlns:xlink="http://www.w3.org/1999/xlink" width="1172.435pt" height="399.009062pt" viewBox="0 0 1172.435 399.009062" xmlns="http://www.w3.org/2000/svg" version="1.1">
 <metadata>
  <rdf:RDF xmlns:dc="http://purl.org/dc/elements/1.1/" xmlns:cc="http://creativecommons.org/ns#" xmlns:rdf="http://www.w3.org/1999/02/22-rdf-syntax-ns#">
   <cc:Work>
    <dc:type rdf:resource="http://purl.org/dc/dcmitype/StillImage"/>
    <dc:date>2025-11-22T21:51:06.499067</dc:date>
    <dc:format>image/svg+xml</dc:format>
    <dc:creator>
     <cc:Agent>
      <dc:title>Matplotlib v3.8.4, https://matplotlib.org/</dc:title>
     </cc:Agent>
    </dc:creator>
   </cc:Work>
  </rdf:RDF>
 </metadata>
 <defs>
  <style type="text/css">*{stroke-linejoin: round; stroke-linecap: butt}</style>
 </defs>
 <g id="figure_1">
  <g id="patch_1">
   <path d="M 0 399.009062 
L 1172.435 399.009062 
L 1172.435 0 
L 0 0 
z
" style="fill: #ffffff"/>
  </g>
  <g id="axes_1">
   <g id="patch_2">
    <path d="M 49.235 359.517187 
L 1165.235 359.517187 
L 1165.235 26.877187 
L 49.235 26.877187 
z
" style="fill: #ffffff"/>
   </g>
   <g id="patch_3">
    <path d="M 126.111919 359.517187 
L 126.111919 26.877187 
L 126.336167 26.877187 
L 126.336167 359.517187 
z
" clip-path="url(#pde650f067a)" style="fill: #add8e6; stroke: #add8e6; stroke-linejoin: miter"/>
   </g>
   <g id="patch_4">
    <path d="M 126.693444 359.517187 
L 126.693444 26.877187 
L 126.879685 26.877187 
L 126.879685 359.517187 
z
" clip-path="url(#pde650f067a)" style="fill: #add8e6; stroke: #add8e6; stroke-linejoin: miter"/>
   </g>
   <g id="patch_5">
    <path d="M 131.1214 359.517187 
L 131.1214 26.877187 
L 131.448271 26.877187 
L 131.448271 359.517187 
z
" clip-path="url(#pde650f067a)" style="fill: #add8e6; stroke: #add8e6; stroke-linejoin: miter"/>
   </g>
   <g id="patch_6">
    <path d="M 132.478293 359.517187 
L 132.478293 26.877187 
L 132.584716 26.877187 
L 132.584716 359.517187 
z
" clip-path="url(#pde650f067a)" style="fill: #add8e6; stroke: #add8e6; stroke-linejoin: miter"/>
   </g>
   <g id="patch_7">
    <path d="M 134.253277 359.517187 
L 134.253277 26.877187 
L 134.325492 26.877187 
L 134.325492 359.517187 
z
" clip-path="url(#pde650f067a)" style="fill: #add8e6; stroke: #add8e6; stroke-linejoin: miter"/>
   </g>
   <g id="patch_8">
    <path d="M 139.445198 359.517187 
L 139.445198 26.877187 
L 139.582027 26.877187 
L 139.582027 359.517187 
z
" clip-path="url(#pde650f067a)" style="fill: #add8e6; stroke: #add8e6; stroke-linejoin: miter"/>
   </g>
   <g id="patch_9">
    <path d="M 139.82528 359.517187 
L 139.82528 26.877187 
L 139.9203 26.877187 
L 139.9203 359.517187 
z
" clip-path="url(#pde650f067a)" style="fill: #add8e6; stroke: #add8e6; stroke-linejoin: miter"/>
   </g>
   <g id="patch_10">
    <path d="M 143.500673 359.517187 
L 143.500673 26.877187 
L 143.770532 26.877187 
L 143.770532 359.517187 
z
" clip-path="url(#pde650f067a)" style="fill: #add8e6; stroke: #add8e6; stroke-linejoin: miter"/>
   </g>
   <g id="patch_11">
    <path d="M 146.955619 359.517187 
L 146.955619 26.877187 
L 147.103851 26.877187 
L 147.103851 359.517187 
z
" clip-path="url(#pde650f067a)" style="fill: #add8e6; stroke: #add8e6; stroke-linejoin: miter"/>
   </g>
   <g id="patch_12">
    <path d="M 148.920644 359.517187 
L 148.920644 26.877187 
L 148.947249 26.877187 
L 148.947249 359.517187 
z
" clip-path="url(#pde650f067a)" style="fill: #add8e6; stroke: #add8e6; stroke-linejoin: miter"/>
   </g>
   <g id="patch_13">
    <path d="M 154.614273 359.517187 
L 154.614273 26.877187 
L 155.039965 26.877187 
L 155.039965 359.517187 
z
" clip-path="url(#pde650f067a)" style="fill: #add8e6; stroke: #add8e6; stroke-linejoin: miter"/>
   </g>
   <g id="patch_14">
    <path d="M 157.377469 359.517187 
L 157.377469 26.877187 
L 157.495295 26.877187 
L 157.495295 359.517187 
z
" clip-path="url(#pde650f067a)" style="fill: #add8e6; stroke: #add8e6; stroke-linejoin: miter"/>
   </g>
   <g id="patch_15">
    <path d="M 160.079853 359.517187 
L 160.079853 26.877187 
L 160.505545 26.877187 
L 160.505545 359.517187 
z
" clip-path="url(#pde650f067a)" style="fill: #add8e6; stroke: #add8e6; stroke-linejoin: miter"/>
   </g>
   <g id="patch_16">
    <path d="M 165.397201 359.517187 
L 165.397201 26.877187 
L 166.434825 26.877187 
L 166.434825 359.517187 
z
" clip-path="url(#pde650f067a)" style="fill: #add8e6; stroke: #add8e6; stroke-linejoin: miter"/>
   </g>
   <g id="patch_17">
    <path d="M 176.316959 359.517187 
L 176.316959 26.877187 
L 176.548809 26.877187 
L 176.548809 359.517187 
z
" clip-path="url(#pde650f067a)" style="fill: #add8e6; stroke: #add8e6; stroke-linejoin: miter"/>
   </g>
   <g id="patch_18">
    <path d="M 179.137168 359.517187 
L 179.137168 26.877187 
L 179.224587 26.877187 
L 179.224587 359.517187 
z
" clip-path="url(#pde650f067a)" style="fill: #add8e6; stroke: #add8e6; stroke-linejoin: miter"/>
   </g>
   <g id="patch_19">
    <path d="M 181.105993 359.517187 
L 181.105993 26.877187 
L 181.189611 26.877187 
L 181.189611 359.517187 
z
" clip-path="url(#pde650f067a)" style="fill: #add8e6; stroke: #add8e6; stroke-linejoin: miter"/>
   </g>
   <g id="patch_20">
    <path d="M 185.385717 359.517187 
L 185.385717 26.877187 
L 185.845616 26.877187 
L 185.845616 359.517187 
z
" clip-path="url(#pde650f067a)" style="fill: #add8e6; stroke: #add8e6; stroke-linejoin: miter"/>
   </g>
   <g id="patch_21">
    <path d="M 188.692431 359.517187 
L 188.692431 26.877187 
L 189.258753 26.877187 
L 189.258753 359.517187 
z
" clip-path="url(#pde650f067a)" style="fill: #add8e6; stroke: #add8e6; stroke-linejoin: miter"/>
   </g>
   <g id="patch_22">
    <path d="M 199.6654 359.517187 
L 199.6654 26.877187 
L 200.163308 26.877187 
L 200.163308 359.517187 
z
" clip-path="url(#pde650f067a)" style="fill: #add8e6; stroke: #add8e6; stroke-linejoin: miter"/>
   </g>
   <g id="patch_23">
    <path d="M 200.433166 359.517187 
L 200.433166 26.877187 
L 200.615605 26.877187 
L 200.615605 359.517187 
z
" clip-path="url(#pde650f067a)" style="fill: #add8e6; stroke: #add8e6; stroke-linejoin: miter"/>
   </g>
   <g id="patch_24">
    <path d="M 201.828067 359.517187 
L 201.828067 26.877187 
L 202.132133 26.877187 
L 202.132133 359.517187 
z
" clip-path="url(#pde650f067a)" style="fill: #add8e6; stroke: #add8e6; stroke-linejoin: miter"/>
   </g>
   <g id="patch_25">
    <path d="M 217.40383 359.517187 
L 217.40383 26.877187 
L 217.954949 26.877187 
L 217.954949 359.517187 
z
" clip-path="url(#pde650f067a)" style="fill: #add8e6; stroke: #add8e6; stroke-linejoin: miter"/>
   </g>
   <g id="patch_26">
    <path d="M 222.002823 359.517187 
L 222.002823 26.877187 
L 222.732581 26.877187 
L 222.732581 359.517187 
z
" clip-path="url(#pde650f067a)" style="fill: #add8e6; stroke: #add8e6; stroke-linejoin: miter"/>
   </g>
   <g id="patch_27">
    <path d="M 263.762439 359.517187 
L 263.762439 26.877187 
L 263.906871 26.877187 
L 263.906871 359.517187 
z
" clip-path="url(#pde650f067a)" style="fill: #add8e6; stroke: #add8e6; stroke-linejoin: miter"/>
   </g>
   <g id="patch_28">
    <path d="M 265.738866 359.517187 
L 265.738866 26.877187 
L 266.206367 26.877187 
L 266.206367 359.517187 
z
" clip-path="url(#pde650f067a)" style="fill: #add8e6; stroke: #add8e6; stroke-linejoin: miter"/>
   </g>
   <g id="patch_29">
    <path d="M 300.596192 359.517187 
L 300.596192 26.877187 
L 301.173917 26.877187 
L 301.173917 359.517187 
z
" clip-path="url(#pde650f067a)" style="fill: #add8e6; stroke: #add8e6; stroke-linejoin: miter"/>
   </g>
   <g id="patch_30">
    <path d="M 326.133906 359.517187 
L 326.133906 26.877187 
L 326.673623 26.877187 
L 326.673623 359.517187 
z
" clip-path="url(#pde650f067a)" style="fill: #add8e6; stroke: #add8e6; stroke-linejoin: miter"/>
   </g>
   <g id="patch_31">
    <path d="M 349.478547 359.517187 
L 349.478547 26.877187 
L 349.653385 26.877187 
L 349.653385 359.517187 
z
" clip-path="url(#pde650f067a)" style="fill: #add8e6; stroke: #add8e6; stroke-linejoin: miter"/>
   </g>
   <g id="patch_32">
    <path d="M 360.05243 359.517187 
L 360.05243 26.877187 
L 360.630155 26.877187 
L 360.630155 359.517187 
z
" clip-path="url(#pde650f067a)" style="fill: #add8e6; stroke: #add8e6; stroke-linejoin: miter"/>
   </g>
   <g id="patch_33">
    <path d="M 385.145448 359.517187 
L 385.145448 26.877187 
L 385.506526 26.877187 
L 385.506526 359.517187 
z
" clip-path="url(#pde650f067a)" style="fill: #add8e6; stroke: #add8e6; stroke-linejoin: miter"/>
   </g>
   <g id="patch_34">
    <path d="M 389.869868 359.517187 
L 389.869868 26.877187 
L 390.200539 26.877187 
L 390.200539 359.517187 
z
" clip-path="url(#pde650f067a)" style="fill: #add8e6; stroke: #add8e6; stroke-linejoin: miter"/>
   </g>
   <g id="patch_35">
    <path d="M 393.412233 359.517187 
L 393.412233 26.877187 
L 393.883534 26.877187 
L 393.883534 359.517187 
z
" clip-path="url(#pde650f067a)" style="fill: #add8e6; stroke: #add8e6; stroke-linejoin: miter"/>
   </g>
   <g id="patch_36">
    <path d="M 407.946571 359.517187 
L 407.946571 26.877187 
L 408.292446 26.877187 
L 408.292446 359.517187 
z
" clip-path="url(#pde650f067a)" style="fill: #add8e6; stroke: #add8e6; stroke-linejoin: miter"/>
   </g>
   <g id="patch_37">
    <path d="M 410.515926 359.517187 
L 410.515926 26.877187 
L 410.690763 26.877187 
L 410.690763 359.517187 
z
" clip-path="url(#pde650f067a)" style="fill: #add8e6; stroke: #add8e6; stroke-linejoin: miter"/>
   </g>
   <g id="patch_38">
    <path d="M 412.940849 359.517187 
L 412.940849 26.877187 
L 413.301927 26.877187 
L 413.301927 359.517187 
z
" clip-path="url(#pde650f067a)" style="fill: #add8e6; stroke: #add8e6; stroke-linejoin: miter"/>
   </g>
   <g id="patch_39">
    <path d="M 421.83857 359.517187 
L 421.83857 26.877187 
L 422.214852 26.877187 
L 422.214852 359.517187 
z
" clip-path="url(#pde650f067a)" style="fill: #add8e6; stroke: #add8e6; stroke-linejoin: miter"/>
   </g>
   <g id="patch_40">
    <path d="M 428.908097 359.517187 
L 428.908097 26.877187 
L 429.413606 26.877187 
L 429.413606 359.517187 
z
" clip-path="url(#pde650f067a)" style="fill: #add8e6; stroke: #add8e6; stroke-linejoin: miter"/>
   </g>
   <g id="patch_41">
    <path d="M 433.579305 359.517187 
L 433.579305 26.877187 
L 433.636318 26.877187 
L 433.636318 359.517187 
z
" clip-path="url(#pde650f067a)" style="fill: #add8e6; stroke: #add8e6; stroke-linejoin: miter"/>
   </g>
   <g id="patch_42">
    <path d="M 448.847202 359.517187 
L 448.847202 26.877187 
L 449.637773 26.877187 
L 449.637773 359.517187 
z
" clip-path="url(#pde650f067a)" style="fill: #add8e6; stroke: #add8e6; stroke-linejoin: miter"/>
   </g>
   <g id="patch_43">
    <path d="M 454.936117 359.517187 
L 454.936117 26.877187 
L 455.513841 26.877187 
L 455.513841 359.517187 
z
" clip-path="url(#pde650f067a)" style="fill: #add8e6; stroke: #add8e6; stroke-linejoin: miter"/>
   </g>
   <g id="patch_44">
    <path d="M 459.523707 359.517187 
L 459.523707 26.877187 
L 459.641533 26.877187 
L 459.641533 359.517187 
z
" clip-path="url(#pde650f067a)" style="fill: #add8e6; stroke: #add8e6; stroke-linejoin: miter"/>
   </g>
   <g id="patch_45">
    <path d="M 468.372018 359.517187 
L 468.372018 26.877187 
L 468.47464 26.877187 
L 468.47464 359.517187 
z
" clip-path="url(#pde650f067a)" style="fill: #add8e6; stroke: #add8e6; stroke-linejoin: miter"/>
   </g>
   <g id="patch_46">
    <path d="M 472.461701 359.517187 
L 472.461701 26.877187 
L 472.571924 26.877187 
L 472.571924 359.517187 
z
" clip-path="url(#pde650f067a)" style="fill: #add8e6; stroke: #add8e6; stroke-linejoin: miter"/>
   </g>
   <g id="patch_47">
    <path d="M 479.73267 359.517187 
L 479.73267 26.877187 
L 480.082346 26.877187 
L 480.082346 359.517187 
z
" clip-path="url(#pde650f067a)" style="fill: #add8e6; stroke: #add8e6; stroke-linejoin: miter"/>
   </g>
   <g id="patch_48">
    <path d="M 488.508765 359.517187 
L 488.508765 26.877187 
L 488.782424 26.877187 
L 488.782424 359.517187 
z
" clip-path="url(#pde650f067a)" style="fill: #add8e6; stroke: #add8e6; stroke-linejoin: miter"/>
   </g>
   <g id="patch_49">
    <path d="M 490.933689 359.517187 
L 490.933689 26.877187 
L 491.150336 26.877187 
L 491.150336 359.517187 
z
" clip-path="url(#pde650f067a)" style="fill: #add8e6; stroke: #add8e6; stroke-linejoin: miter"/>
   </g>
   <g id="patch_50">
    <path d="M 493.221783 359.517187 
L 493.221783 26.877187 
L 493.582861 26.877187 
L 493.582861 359.517187 
z
" clip-path="url(#pde650f067a)" style="fill: #add8e6; stroke: #add8e6; stroke-linejoin: miter"/>
   </g>
   <g id="patch_51">
    <path d="M 500.044256 359.517187 
L 500.044256 26.877187 
L 500.686595 26.877187 
L 500.686595 359.517187 
z
" clip-path="url(#pde650f067a)" style="fill: #add8e6; stroke: #add8e6; stroke-linejoin: miter"/>
   </g>
   <g id="patch_52">
    <path d="M 502.195521 359.517187 
L 502.195521 26.877187 
L 502.343753 26.877187 
L 502.343753 359.517187 
z
" clip-path="url(#pde650f067a)" style="fill: #add8e6; stroke: #add8e6; stroke-linejoin: miter"/>
   </g>
   <g id="patch_53">
    <path d="M 504.270769 359.517187 
L 504.270769 26.877187 
L 504.567233 26.877187 
L 504.567233 359.517187 
z
" clip-path="url(#pde650f067a)" style="fill: #add8e6; stroke: #add8e6; stroke-linejoin: miter"/>
   </g>
   <g id="patch_54">
    <path d="M 510.561127 359.517187 
L 510.561127 26.877187 
L 511.161656 26.877187 
L 511.161656 359.517187 
z
" clip-path="url(#pde650f067a)" style="fill: #add8e6; stroke: #add8e6; stroke-linejoin: miter"/>
   </g>
   <g id="patch_55">
    <path d="M 515.935487 359.517187 
L 515.935487 26.877187 
L 516.254756 26.877187 
L 516.254756 359.517187 
z
" clip-path="url(#pde650f067a)" style="fill: #add8e6; stroke: #add8e6; stroke-linejoin: miter"/>
   </g>
   <g id="patch_56">
    <path d="M 523.753775 359.517187 
L 523.753775 26.877187 
L 523.898206 26.877187 
L 523.898206 359.517187 
z
" clip-path="url(#pde650f067a)" style="fill: #add8e6; stroke: #add8e6; stroke-linejoin: miter"/>
   </g>
   <g id="patch_57">
    <path d="M 542.412004 359.517187 
L 542.412004 26.877187 
L 542.632451 26.877187 
L 542.632451 359.517187 
z
" clip-path="url(#pde650f067a)" style="fill: #add8e6; stroke: #add8e6; stroke-linejoin: miter"/>
   </g>
   <g id="patch_58">
    <path d="M 542.944119 359.517187 
L 542.944119 26.877187 
L 543.559852 26.877187 
L 543.559852 359.517187 
z
" clip-path="url(#pde650f067a)" style="fill: #add8e6; stroke: #add8e6; stroke-linejoin: miter"/>
   </g>
   <g id="patch_59">
    <path d="M 547.706547 359.517187 
L 547.706547 26.877187 
L 547.801567 26.877187 
L 547.801567 359.517187 
z
" clip-path="url(#pde650f067a)" style="fill: #add8e6; stroke: #add8e6; stroke-linejoin: miter"/>
   </g>
   <g id="patch_60">
    <path d="M 590.017282 359.517187 
L 590.017282 26.877187 
L 590.952284 26.877187 
L 590.952284 359.517187 
z
" clip-path="url(#pde650f067a)" style="fill: #add8e6; stroke: #add8e6; stroke-linejoin: miter"/>
   </g>
   <g id="patch_61">
    <path d="M 627.995082 359.517187 
L 627.995082 26.877187 
L 628.128111 26.877187 
L 628.128111 359.517187 
z
" clip-path="url(#pde650f067a)" style="fill: #add8e6; stroke: #add8e6; stroke-linejoin: miter"/>
   </g>
   <g id="patch_62">
    <path d="M 630.556836 359.517187 
L 630.556836 26.877187 
L 631.210577 26.877187 
L 631.210577 359.517187 
z
" clip-path="url(#pde650f067a)" style="fill: #add8e6; stroke: #add8e6; stroke-linejoin: miter"/>
   </g>
   <g id="patch_63">
    <path d="M 635.782964 359.517187 
L 635.782964 26.877187 
L 635.893188 26.877187 
L 635.893188 359.517187 
z
" clip-path="url(#pde650f067a)" style="fill: #add8e6; stroke: #add8e6; stroke-linejoin: miter"/>
   </g>
   <g id="patch_64">
    <path d="M 636.125038 359.517187 
L 636.125038 26.877187 
L 636.638149 26.877187 
L 636.638149 359.517187 
z
" clip-path="url(#pde650f067a)" style="fill: #add8e6; stroke: #add8e6; stroke-linejoin: miter"/>
   </g>
   <g id="patch_65">
    <path d="M 660.013196 359.517187 
L 660.013196 26.877187 
L 660.469294 26.877187 
L 660.469294 359.517187 
z
" clip-path="url(#pde650f067a)" style="fill: #add8e6; stroke: #add8e6; stroke-linejoin: miter"/>
   </g>
   <g id="patch_66">
    <path d="M 686.132435 359.517187 
L 686.132435 26.877187 
L 686.508716 26.877187 
L 686.508716 359.517187 
z
" clip-path="url(#pde650f067a)" style="fill: #add8e6; stroke: #add8e6; stroke-linejoin: miter"/>
   </g>
   <g id="patch_67">
    <path d="M 714.421943 359.517187 
L 714.421943 26.877187 
L 714.919851 26.877187 
L 714.919851 359.517187 
z
" clip-path="url(#pde650f067a)" style="fill: #add8e6; stroke: #add8e6; stroke-linejoin: miter"/>
   </g>
   <g id="patch_68">
    <path d="M 716.242536 359.517187 
L 716.242536 26.877187 
L 716.561805 26.877187 
L 716.561805 359.517187 
z
" clip-path="url(#pde650f067a)" style="fill: #add8e6; stroke: #add8e6; stroke-linejoin: miter"/>
   </g>
   <g id="patch_69">
    <path d="M 737.698169 359.517187 
L 737.698169 26.877187 
L 737.838799 26.877187 
L 737.838799 359.517187 
z
" clip-path="url(#pde650f067a)" style="fill: #add8e6; stroke: #add8e6; stroke-linejoin: miter"/>
   </g>
   <g id="patch_70">
    <path d="M 740.590593 359.517187 
L 740.590593 26.877187 
L 740.963074 26.877187 
L 740.963074 359.517187 
z
" clip-path="url(#pde650f067a)" style="fill: #add8e6; stroke: #add8e6; stroke-linejoin: miter"/>
   </g>
   <g id="patch_71">
    <path d="M 743.67686 359.517187 
L 743.67686 26.877187 
L 743.779482 26.877187 
L 743.779482 359.517187 
z
" clip-path="url(#pde650f067a)" style="fill: #add8e6; stroke: #add8e6; stroke-linejoin: miter"/>
   </g>
   <g id="patch_72">
    <path d="M 752.388341 359.517187 
L 752.388341 26.877187 
L 752.950862 26.877187 
L 752.950862 359.517187 
z
" clip-path="url(#pde650f067a)" style="fill: #add8e6; stroke: #add8e6; stroke-linejoin: miter"/>
   </g>
   <g id="patch_73">
    <path d="M 761.529314 359.517187 
L 761.529314 26.877187 
L 762.357893 26.877187 
L 762.357893 359.517187 
z
" clip-path="url(#pde650f067a)" style="fill: #add8e6; stroke: #add8e6; stroke-linejoin: miter"/>
   </g>
   <g id="patch_74">
    <path d="M 771.966368 359.517187 
L 771.966368 26.877187 
L 772.642914 26.877187 
L 772.642914 359.517187 
z
" clip-path="url(#pde650f067a)" style="fill: #add8e6; stroke: #add8e6; stroke-linejoin: miter"/>
   </g>
   <g id="patch_75">
    <path d="M 779.970896 359.517187 
L 779.970896 26.877187 
L 780.153335 26.877187 
L 780.153335 359.517187 
z
" clip-path="url(#pde650f067a)" style="fill: #add8e6; stroke: #add8e6; stroke-linejoin: miter"/>
   </g>
   <g id="patch_76">
    <path d="M 782.281795 359.517187 
L 782.281795 26.877187 
L 782.90893 26.877187 
L 782.90893 359.517187 
z
" clip-path="url(#pde650f067a)" style="fill: #add8e6; stroke: #add8e6; stroke-linejoin: miter"/>
   </g>
   <g id="patch_77">
    <path d="M 787.310281 359.517187 
L 787.310281 26.877187 
L 787.443309 26.877187 
L 787.443309 359.517187 
z
" clip-path="url(#pde650f067a)" style="fill: #add8e6; stroke: #add8e6; stroke-linejoin: miter"/>
   </g>
   <g id="patch_78">
    <path d="M 794.033933 359.517187 
L 794.033933 26.877187 
L 795.200784 26.877187 
L 795.200784 359.517187 
z
" clip-path="url(#pde650f067a)" style="fill: #add8e6; stroke: #add8e6; stroke-linejoin: miter"/>
   </g>
   <g id="patch_79">
    <path d="M 829.415772 359.517187 
L 829.415772 26.877187 
L 829.96309 26.877187 
L 829.96309 359.517187 
z
" clip-path="url(#pde650f067a)" style="fill: #add8e6; stroke: #add8e6; stroke-linejoin: miter"/>
   </g>
   <g id="patch_80">
    <path d="M 834.060375 359.517187 
L 834.060375 26.877187 
L 834.569685 26.877187 
L 834.569685 359.517187 
z
" clip-path="url(#pde650f067a)" style="fill: #add8e6; stroke: #add8e6; stroke-linejoin: miter"/>
   </g>
   <g id="patch_81">
    <path d="M 877.933248 359.517187 
L 877.933248 26.877187 
L 878.598391 26.877187 
L 878.598391 359.517187 
z
" clip-path="url(#pde650f067a)" style="fill: #add8e6; stroke: #add8e6; stroke-linejoin: miter"/>
   </g>
   <g id="patch_82">
    <path d="M 879.502986 359.517187 
L 879.502986 26.877187 
L 879.742438 26.877187 
L 879.742438 359.517187 
z
" clip-path="url(#pde650f067a)" style="fill: #add8e6; stroke: #add8e6; stroke-linejoin: miter"/>
   </g>
   <g id="patch_83">
    <path d="M 888.438716 359.517187 
L 888.438716 26.877187 
L 888.659163 26.877187 
L 888.659163 359.517187 
z
" clip-path="url(#pde650f067a)" style="fill: #add8e6; stroke: #add8e6; stroke-linejoin: miter"/>
   </g>
   <g id="patch_84">
    <path d="M 906.142938 359.517187 
L 906.142938 26.877187 
L 907.290786 26.877187 
L 907.290786 359.517187 
z
" clip-path="url(#pde650f067a)" style="fill: #add8e6; stroke: #add8e6; stroke-linejoin: miter"/>
   </g>
   <g id="patch_85">
    <path d="M 914.090454 359.517187 
L 914.090454 26.877187 
L 914.561756 26.877187 
L 914.561756 359.517187 
z
" clip-path="url(#pde650f067a)" style="fill: #add8e6; stroke: #add8e6; stroke-linejoin: miter"/>
   </g>
   <g id="patch_86">
    <path d="M 931.912502 359.517187 
L 931.912502 26.877187 
L 932.91972 26.877187 
L 932.91972 359.517187 
z
" clip-path="url(#pde650f067a)" style="fill: #add8e6; stroke: #add8e6; stroke-linejoin: miter"/>
   </g>
   <g id="patch_87">
    <path d="M 949.099813 359.517187 
L 949.099813 26.877187 
L 949.852376 26.877187 
L 949.852376 359.517187 
z
" clip-path="url(#pde650f067a)" style="fill: #add8e6; stroke: #add8e6; stroke-linejoin: miter"/>
   </g>
   <g id="patch_88">
    <path d="M 973.052585 359.517187 
L 973.052585 26.877187 
L 973.383257 26.877187 
L 973.383257 359.517187 
z
" clip-path="url(#pde650f067a)" style="fill: #add8e6; stroke: #add8e6; stroke-linejoin: miter"/>
   </g>
   <g id="patch_89">
    <path d="M 995.39761 359.517187 
L 995.39761 26.877187 
L 995.762489 26.877187 
L 995.762489 359.517187 
z
" clip-path="url(#pde650f067a)" style="fill: #add8e6; stroke: #add8e6; stroke-linejoin: miter"/>
   </g>
   <g id="patch_90">
    <path d="M 1006.085517 359.517187 
L 1006.085517 26.877187 
L 1006.564421 26.877187 
L 1006.564421 359.517187 
z
" clip-path="url(#pde650f067a)" style="fill: #add8e6; stroke: #add8e6; stroke-linejoin: miter"/>
   </g>
   <g id="patch_91">
    <path d="M 1033.595857 359.517187 
L 1033.595857 26.877187 
L 1034.690494 26.877187 
L 1034.690494 359.517187 
z
" clip-path="url(#pde650f067a)" style="fill: #add8e6; stroke: #add8e6; stroke-linejoin: miter"/>
   </g>
   <g id="patch_92">
    <path d="M 1060.558879 359.517187 
L 1060.558879 26.877187 
L 1061.292437 26.877187 
L 1061.292437 359.517187 
z
" clip-path="url(#pde650f067a)" style="fill: #add8e6; stroke: #add8e6; stroke-linejoin: miter"/>
   </g>
   <g id="patch_93">
    <path d="M 1084.659883 359.517187 
L 1084.659883 26.877187 
L 1085.34403 26.877187 
L 1085.34403 359.517187 
z
" clip-path="url(#pde650f067a)" style="fill: #add8e6; stroke: #add8e6; stroke-linejoin: miter"/>
   </g>
   <g id="patch_94">
    <path d="M 1104.785228 359.517187 
L 1104.785228 26.877187 
L 1105.644214 26.877187 
L 1105.644214 359.517187 
z
" clip-path="url(#pde650f067a)" style="fill: #add8e6; stroke: #add8e6; stroke-linejoin: miter"/>
   </g>
   <g id="patch_95">
    <path d="M 1109.654079 359.517187 
L 1109.654079 26.877187 
L 1109.988552 26.877187 
L 1109.988552 359.517187 
z
" clip-path="url(#pde650f067a)" style="fill: #add8e6; stroke: #add8e6; stroke-linejoin: miter"/>
   </g>
   <g id="patch_96">
    <path d="M 1112.706138 359.517187 
L 1112.706138 26.877187 
L 1112.797358 26.877187 
L 1112.797358 359.517187 
z
" clip-path="url(#pde650f067a)" style="fill: #add8e6; stroke: #add8e6; stroke-linejoin: miter"/>
   </g>
   <g id="patch_97">
    <path d="M 223.108862 359.517187 
L 223.108862 26.877187 
L 387.304314 26.877187 
L 387.304314 359.517187 
z
" clip-path="url(#pde650f067a)" style="fill: #808080; opacity: 0.4; stroke: #808080; stroke-linejoin: miter"/>
   </g>
   <g id="patch_98">
    <path d="M 551.499766 359.517187 
L 551.499766 26.877187 
L 715.695218 26.877187 
L 715.695218 359.517187 
z
" clip-path="url(#pde650f067a)" style="fill: #808080; opacity: 0.4; stroke: #808080; stroke-linejoin: miter"/>
   </g>
   <g id="patch_99">
    <path d="M 879.89067 359.517187 
L 879.89067 26.877187 
L 1044.086122 26.877187 
L 1044.086122 359.517187 
z
" clip-path="url(#pde650f067a)" style="fill: #808080; opacity: 0.4; stroke: #808080; stroke-linejoin: miter"/>
   </g>
   <g id="matplotlib.axis_1">
    <g id="xtick_1">
     <g id="line2d_1">
      <defs>
       <path id="m34dd0f63ac" d="M 0 0 
L 0 3.5 
" style="stroke: #000000; stroke-width: 0.8"/>
      </defs>
      <g>
       <use xlink:href="#m34dd0f63ac" x="125.997894" y="359.517187" style="stroke: #000000; stroke-width: 0.8"/>
      </g>
     </g>
     <g id="text_1">
      <!-- 12-13 12 -->
      <g transform="translate(103.517425 374.115625) scale(0.1 -0.1)">
       <defs>
        <path id="DejaVuSans-31" d="M 794 531 
L 1825 531 
L 1825 4091 
L 703 3866 
L 703 4441 
L 1819 4666 
L 2450 4666 
L 2450 531 
L 3481 531 
L 3481 0 
L 794 0 
L 794 531 
z
" transform="scale(0.015625)"/>
        <path id="DejaVuSans-32" d="M 1228 531 
L 3431 531 
L 3431 0 
L 469 0 
L 469 531 
Q 828 903 1448 1529 
Q 2069 2156 2228 2338 
Q 2531 2678 2651 2914 
Q 2772 3150 2772 3378 
Q 2772 3750 2511 3984 
Q 2250 4219 1831 4219 
Q 1534 4219 1204 4116 
Q 875 4013 500 3803 
L 500 4441 
Q 881 4594 1212 4672 
Q 1544 4750 1819 4750 
Q 2544 4750 2975 4387 
Q 3406 4025 3406 3419 
Q 3406 3131 3298 2873 
Q 3191 2616 2906 2266 
Q 2828 2175 2409 1742 
Q 1991 1309 1228 531 
z
" transform="scale(0.015625)"/>
        <path id="DejaVuSans-2d" d="M 313 2009 
L 1997 2009 
L 1997 1497 
L 313 1497 
L 313 2009 
z
" transform="scale(0.015625)"/>
        <path id="DejaVuSans-33" d="M 2597 2516 
Q 3050 2419 3304 2112 
Q 3559 1806 3559 1356 
Q 3559 666 3084 287 
Q 2609 -91 1734 -91 
Q 1441 -91 1130 -33 
Q 819 25 488 141 
L 488 750 
Q 750 597 1062 519 
Q 1375 441 1716 441 
Q 2309 441 2620 675 
Q 2931 909 2931 1356 
Q 2931 1769 2642 2001 
Q 2353 2234 1838 2234 
L 1294 2234 
L 1294 2753 
L 1863 2753 
Q 2328 2753 2575 2939 
Q 2822 3125 2822 3475 
Q 2822 3834 2567 4026 
Q 2313 4219 1838 4219 
Q 1578 4219 1281 4162 
Q 984 4106 628 3988 
L 628 4550 
Q 988 4650 1302 4700 
Q 1616 4750 1894 4750 
Q 2613 4750 3031 4423 
Q 3450 4097 3450 3541 
Q 3450 3153 3228 2886 
Q 3006 2619 2597 2516 
z
" transform="scale(0.015625)"/>
        <path id="DejaVuSans-20" transform="scale(0.015625)"/>
       </defs>
       <use xlink:href="#DejaVuSans-31"/>
       <use xlink:href="#DejaVuSans-32" x="63.623047"/>
       <use xlink:href="#DejaVuSans-2d" x="127.246094"/>
       <use xlink:href="#DejaVuSans-31" x="163.330078"/>
       <use xlink:href="#DejaVuSans-33" x="226.953125"/>
       <use xlink:href="#DejaVuSans-20" x="290.576172"/>
       <use xlink:href="#DejaVuSans-31" x="322.363281"/>
       <use xlink:href="#DejaVuSans-32" x="385.986328"/>
      </g>
     </g>
    </g>
    <g id="xtick_2">
     <g id="line2d_2">
      <g>
       <use xlink:href="#m34dd0f63ac" x="290.193346" y="359.517187" style="stroke: #000000; stroke-width: 0.8"/>
      </g>
     </g>
     <g id="text_2">
      <!-- 12-14 00 -->
      <g transform="translate(267.712878 374.115625) scale(0.1 -0.1)">
       <defs>
        <path id="DejaVuSans-34" d="M 2419 4116 
L 825 1625 
L 2419 1625 
L 2419 4116 
z
M 2253 4666 
L 3047 4666 
L 3047 1625 
L 3713 1625 
L 3713 1100 
L 3047 1100 
L 3047 0 
L 2419 0 
L 2419 1100 
L 313 1100 
L 313 1709 
L 2253 4666 
z
" transform="scale(0.015625)"/>
        <path id="DejaVuSans-30" d="M 2034 4250 
Q 1547 4250 1301 3770 
Q 1056 3291 1056 2328 
Q 1056 1369 1301 889 
Q 1547 409 2034 409 
Q 2525 409 2770 889 
Q 3016 1369 3016 2328 
Q 3016 3291 2770 3770 
Q 2525 4250 2034 4250 
z
M 2034 4750 
Q 2819 4750 3233 4129 
Q 3647 3509 3647 2328 
Q 3647 1150 3233 529 
Q 2819 -91 2034 -91 
Q 1250 -91 836 529 
Q 422 1150 422 2328 
Q 422 3509 836 4129 
Q 1250 4750 2034 4750 
z
" transform="scale(0.015625)"/>
       </defs>
       <use xlink:href="#DejaVuSans-31"/>
       <use xlink:href="#DejaVuSans-32" x="63.623047"/>
       <use xlink:href="#DejaVuSans-2d" x="127.246094"/>
       <use xlink:href="#DejaVuSans-31" x="163.330078"/>
       <use xlink:href="#DejaVuSans-34" x="226.953125"/>
       <use xlink:href="#DejaVuSans-20" x="290.576172"/>
       <use xlink:href="#DejaVuSans-30" x="322.363281"/>
       <use xlink:href="#DejaVuSans-30" x="385.986328"/>
      </g>
     </g>
    </g>
    <g id="xtick_3">
     <g id="line2d_3">
      <g>
       <use xlink:href="#m34dd0f63ac" x="454.388798" y="359.517187" style="stroke: #000000; stroke-width: 0.8"/>
      </g>
     </g>
     <g id="text_3">
      <!-- 12-14 12 -->
      <g transform="translate(431.90833 374.115625) scale(0.1 -0.1)">
       <use xlink:href="#DejaVuSans-31"/>
       <use xlink:href="#DejaVuSans-32" x="63.623047"/>
       <use xlink:href="#DejaVuSans-2d" x="127.246094"/>
       <use xlink:href="#DejaVuSans-31" x="163.330078"/>
       <use xlink:href="#DejaVuSans-34" x="226.953125"/>
       <use xlink:href="#DejaVuSans-20" x="290.576172"/>
       <use xlink:href="#DejaVuSans-31" x="322.363281"/>
       <use xlink:href="#DejaVuSans-32" x="385.986328"/>
      </g>
     </g>
    </g>
    <g id="xtick_4">
     <g id="line2d_4">
      <g>
       <use xlink:href="#m34dd0f63ac" x="618.58425" y="359.517187" style="stroke: #000000; stroke-width: 0.8"/>
      </g>
     </g>
     <g id="text_4">
      <!-- 12-15 00 -->
      <g transform="translate(596.103782 374.115625) scale(0.1 -0.1)">
       <defs>
        <path id="DejaVuSans-35" d="M 691 4666 
L 3169 4666 
L 3169 4134 
L 1269 4134 
L 1269 2991 
Q 1406 3038 1543 3061 
Q 1681 3084 1819 3084 
Q 2600 3084 3056 2656 
Q 3513 2228 3513 1497 
Q 3513 744 3044 326 
Q 2575 -91 1722 -91 
Q 1428 -91 1123 -41 
Q 819 9 494 109 
L 494 744 
Q 775 591 1075 516 
Q 1375 441 1709 441 
Q 2250 441 2565 725 
Q 2881 1009 2881 1497 
Q 2881 1984 2565 2268 
Q 2250 2553 1709 2553 
Q 1456 2553 1204 2497 
Q 953 2441 691 2322 
L 691 4666 
z
" transform="scale(0.015625)"/>
       </defs>
       <use xlink:href="#DejaVuSans-31"/>
       <use xlink:href="#DejaVuSans-32" x="63.623047"/>
       <use xlink:href="#DejaVuSans-2d" x="127.246094"/>
       <use xlink:href="#DejaVuSans-31" x="163.330078"/>
       <use xlink:href="#DejaVuSans-35" x="226.953125"/>
       <use xlink:href="#DejaVuSans-20" x="290.576172"/>
       <use xlink:href="#DejaVuSans-30" x="322.363281"/>
       <use xlink:href="#DejaVuSans-30" x="385.986328"/>
      </g>
     </g>
    </g>
    <g id="xtick_5">
     <g id="line2d_5">
      <g>
       <use xlink:href="#m34dd0f63ac" x="782.779703" y="359.517187" style="stroke: #000000; stroke-width: 0.8"/>
      </g>
     </g>
     <g id="text_5">
      <!-- 12-15 12 -->
      <g transform="translate(760.299234 374.115625) scale(0.1 -0.1)">
       <use xlink:href="#DejaVuSans-31"/>
       <use xlink:href="#DejaVuSans-32" x="63.623047"/>
       <use xlink:href="#DejaVuSans-2d" x="127.246094"/>
       <use xlink:href="#DejaVuSans-31" x="163.330078"/>
       <use xlink:href="#DejaVuSans-35" x="226.953125"/>
       <use xlink:href="#DejaVuSans-20" x="290.576172"/>
       <use xlink:href="#DejaVuSans-31" x="322.363281"/>
       <use xlink:href="#DejaVuSans-32" x="385.986328"/>
      </g>
     </g>
    </g>
    <g id="xtick_6">
     <g id="line2d_6">
      <g>
       <use xlink:href="#m34dd0f63ac" x="946.975155" y="359.517187" style="stroke: #000000; stroke-width: 0.8"/>
      </g>
     </g>
     <g id="text_6">
      <!-- 12-16 00 -->
      <g transform="translate(924.494686 374.115625) scale(0.1 -0.1)">
       <defs>
        <path id="DejaVuSans-36" d="M 2113 2584 
Q 1688 2584 1439 2293 
Q 1191 2003 1191 1497 
Q 1191 994 1439 701 
Q 1688 409 2113 409 
Q 2538 409 2786 701 
Q 3034 994 3034 1497 
Q 3034 2003 2786 2293 
Q 2538 2584 2113 2584 
z
M 3366 4563 
L 3366 3988 
Q 3128 4100 2886 4159 
Q 2644 4219 2406 4219 
Q 1781 4219 1451 3797 
Q 1122 3375 1075 2522 
Q 1259 2794 1537 2939 
Q 1816 3084 2150 3084 
Q 2853 3084 3261 2657 
Q 3669 2231 3669 1497 
Q 3669 778 3244 343 
Q 2819 -91 2113 -91 
Q 1303 -91 875 529 
Q 447 1150 447 2328 
Q 447 3434 972 4092 
Q 1497 4750 2381 4750 
Q 2619 4750 2861 4703 
Q 3103 4656 3366 4563 
z
" transform="scale(0.015625)"/>
       </defs>
       <use xlink:href="#DejaVuSans-31"/>
       <use xlink:href="#DejaVuSans-32" x="63.623047"/>
       <use xlink:href="#DejaVuSans-2d" x="127.246094"/>
       <use xlink:href="#DejaVuSans-31" x="163.330078"/>
       <use xlink:href="#DejaVuSans-36" x="226.953125"/>
       <use xlink:href="#DejaVuSans-20" x="290.576172"/>
       <use xlink:href="#DejaVuSans-30" x="322.363281"/>
       <use xlink:href="#DejaVuSans-30" x="385.986328"/>
      </g>
     </g>
    </g>
    <g id="xtick_7">
     <g id="line2d_7">
      <g>
       <use xlink:href="#m34dd0f63ac" x="1111.170607" y="359.517187" style="stroke: #000000; stroke-width: 0.8"/>
      </g>
     </g>
     <g id="text_7">
      <!-- 12-16 12 -->
      <g transform="translate(1088.690138 374.115625) scale(0.1 -0.1)">
       <use xlink:href="#DejaVuSans-31"/>
       <use xlink:href="#DejaVuSans-32" x="63.623047"/>
       <use xlink:href="#DejaVuSans-2d" x="127.246094"/>
       <use xlink:href="#DejaVuSans-31" x="163.330078"/>
       <use xlink:href="#DejaVuSans-36" x="226.953125"/>
       <use xlink:href="#DejaVuSans-20" x="290.576172"/>
       <use xlink:href="#DejaVuSans-31" x="322.363281"/>
       <use xlink:href="#DejaVuSans-32" x="385.986328"/>
      </g>
     </g>
    </g>
    <g id="text_8">
     <!-- Time -->
     <g transform="translate(592.554688 389.313437) scale(0.12 -0.12)">
      <defs>
       <path id="DejaVuSans-54" d="M -19 4666 
L 3928 4666 
L 3928 4134 
L 2272 4134 
L 2272 0 
L 1638 0 
L 1638 4134 
L -19 4134 
L -19 4666 
z
" transform="scale(0.015625)"/>
       <path id="DejaVuSans-69" d="M 603 3500 
L 1178 3500 
L 1178 0 
L 603 0 
L 603 3500 
z
M 603 4863 
L 1178 4863 
L 1178 4134 
L 603 4134 
L 603 4863 
z
" transform="scale(0.015625)"/>
       <path id="DejaVuSans-6d" d="M 3328 2828 
Q 3544 3216 3844 3400 
Q 4144 3584 4550 3584 
Q 5097 3584 5394 3201 
Q 5691 2819 5691 2113 
L 5691 0 
L 5113 0 
L 5113 2094 
Q 5113 2597 4934 2840 
Q 4756 3084 4391 3084 
Q 3944 3084 3684 2787 
Q 3425 2491 3425 1978 
L 3425 0 
L 2847 0 
L 2847 2094 
Q 2847 2600 2669 2842 
Q 2491 3084 2119 3084 
Q 1678 3084 1418 2786 
Q 1159 2488 1159 1978 
L 1159 0 
L 581 0 
L 581 3500 
L 1159 3500 
L 1159 2956 
Q 1356 3278 1631 3431 
Q 1906 3584 2284 3584 
Q 2666 3584 2933 3390 
Q 3200 3197 3328 2828 
z
" transform="scale(0.015625)"/>
       <path id="DejaVuSans-65" d="M 3597 1894 
L 3597 1613 
L 953 1613 
Q 991 1019 1311 708 
Q 1631 397 2203 397 
Q 2534 397 2845 478 
Q 3156 559 3463 722 
L 3463 178 
Q 3153 47 2828 -22 
Q 2503 -91 2169 -91 
Q 1331 -91 842 396 
Q 353 884 353 1716 
Q 353 2575 817 3079 
Q 1281 3584 2069 3584 
Q 2775 3584 3186 3129 
Q 3597 2675 3597 1894 
z
M 3022 2063 
Q 3016 2534 2758 2815 
Q 2500 3097 2075 3097 
Q 1594 3097 1305 2825 
Q 1016 2553 972 2059 
L 3022 2063 
z
" transform="scale(0.015625)"/>
      </defs>
      <use xlink:href="#DejaVuSans-54"/>
      <use xlink:href="#DejaVuSans-69" x="57.958984"/>
      <use xlink:href="#DejaVuSans-6d" x="85.742188"/>
      <use xlink:href="#DejaVuSans-65" x="183.154297"/>
     </g>
    </g>
   </g>
   <g id="matplotlib.axis_2">
    <g id="ytick_1">
     <g id="line2d_8">
      <defs>
       <path id="ma3b122f31e" d="M 0 0 
L -3.5 0 
" style="stroke: #000000; stroke-width: 0.8"/>
      </defs>
      <g>
       <use xlink:href="#ma3b122f31e" x="49.235" y="344.397187" style="stroke: #000000; stroke-width: 0.8"/>
      </g>
     </g>
     <g id="text_9">
      <!-- 0 -->
      <g transform="translate(35.8725 348.196406) scale(0.1 -0.1)">
       <use xlink:href="#DejaVuSans-30"/>
      </g>
     </g>
    </g>
    <g id="ytick_2">
     <g id="line2d_9">
      <g>
       <use xlink:href="#ma3b122f31e" x="49.235" y="290.008698" style="stroke: #000000; stroke-width: 0.8"/>
      </g>
     </g>
     <g id="text_10">
      <!-- 100 -->
      <g transform="translate(23.1475 293.807917) scale(0.1 -0.1)">
       <use xlink:href="#DejaVuSans-31"/>
       <use xlink:href="#DejaVuSans-30" x="63.623047"/>
       <use xlink:href="#DejaVuSans-30" x="127.246094"/>
      </g>
     </g>
    </g>
    <g id="ytick_3">
     <g id="line2d_10">
      <g>
       <use xlink:href="#ma3b122f31e" x="49.235" y="235.620209" style="stroke: #000000; stroke-width: 0.8"/>
      </g>
     </g>
     <g id="text_11">
      <!-- 200 -->
      <g transform="translate(23.1475 239.419428) scale(0.1 -0.1)">
       <use xlink:href="#DejaVuSans-32"/>
       <use xlink:href="#DejaVuSans-30" x="63.623047"/>
       <use xlink:href="#DejaVuSans-30" x="127.246094"/>
      </g>
     </g>
    </g>
    <g id="ytick_4">
     <g id="line2d_11">
      <g>
       <use xlink:href="#ma3b122f31e" x="49.235" y="181.23172" style="stroke: #000000; stroke-width: 0.8"/>
      </g>
     </g>
     <g id="text_12">
      <!-- 300 -->
      <g transform="translate(23.1475 185.030939) scale(0.1 -0.1)">
       <use xlink:href="#DejaVuSans-33"/>
       <use xlink:href="#DejaVuSans-30" x="63.623047"/>
       <use xlink:href="#DejaVuSans-30" x="127.246094"/>
      </g>
     </g>
    </g>
    <g id="ytick_5">
     <g id="line2d_12">
      <g>
       <use xlink:href="#ma3b122f31e" x="49.235" y="126.843231" style="stroke: #000000; stroke-width: 0.8"/>
      </g>
     </g>
     <g id="text_13">
      <!-- 400 -->
      <g transform="translate(23.1475 130.642449) scale(0.1 -0.1)">
       <use xlink:href="#DejaVuSans-34"/>
       <use xlink:href="#DejaVuSans-30" x="63.623047"/>
       <use xlink:href="#DejaVuSans-30" x="127.246094"/>
      </g>
     </g>
    </g>
    <g id="ytick_6">
     <g id="line2d_13">
      <g>
       <use xlink:href="#ma3b122f31e" x="49.235" y="72.454741" style="stroke: #000000; stroke-width: 0.8"/>
      </g>
     </g>
     <g id="text_14">
      <!-- 500 -->
      <g transform="translate(23.1475 76.25396) scale(0.1 -0.1)">
       <use xlink:href="#DejaVuSans-35"/>
       <use xlink:href="#DejaVuSans-30" x="63.623047"/>
       <use xlink:href="#DejaVuSans-30" x="127.246094"/>
      </g>
     </g>
    </g>
    <g id="text_15">
     <!-- Pellet_Count -->
     <g transform="translate(16.318125 230.485312) rotate(-90) scale(0.12 -0.12)">
      <defs>
       <path id="DejaVuSans-50" d="M 1259 4147 
L 1259 2394 
L 2053 2394 
Q 2494 2394 2734 2622 
Q 2975 2850 2975 3272 
Q 2975 3691 2734 3919 
Q 2494 4147 2053 4147 
L 1259 4147 
z
M 628 4666 
L 2053 4666 
Q 2838 4666 3239 4311 
Q 3641 3956 3641 3272 
Q 3641 2581 3239 2228 
Q 2838 1875 2053 1875 
L 1259 1875 
L 1259 0 
L 628 0 
L 628 4666 
z
" transform="scale(0.015625)"/>
       <path id="DejaVuSans-6c" d="M 603 4863 
L 1178 4863 
L 1178 0 
L 603 0 
L 603 4863 
z
" transform="scale(0.015625)"/>
       <path id="DejaVuSans-74" d="M 1172 4494 
L 1172 3500 
L 2356 3500 
L 2356 3053 
L 1172 3053 
L 1172 1153 
Q 1172 725 1289 603 
Q 1406 481 1766 481 
L 2356 481 
L 2356 0 
L 1766 0 
Q 1100 0 847 248 
Q 594 497 594 1153 
L 594 3053 
L 172 3053 
L 172 3500 
L 594 3500 
L 594 4494 
L 1172 4494 
z
" transform="scale(0.015625)"/>
       <path id="DejaVuSans-5f" d="M 3263 -1063 
L 3263 -1509 
L -63 -1509 
L -63 -1063 
L 3263 -1063 
z
" transform="scale(0.015625)"/>
       <path id="DejaVuSans-43" d="M 4122 4306 
L 4122 3641 
Q 3803 3938 3442 4084 
Q 3081 4231 2675 4231 
Q 1875 4231 1450 3742 
Q 1025 3253 1025 2328 
Q 1025 1406 1450 917 
Q 1875 428 2675 428 
Q 3081 428 3442 575 
Q 3803 722 4122 1019 
L 4122 359 
Q 3791 134 3420 21 
Q 3050 -91 2638 -91 
Q 1578 -91 968 557 
Q 359 1206 359 2328 
Q 359 3453 968 4101 
Q 1578 4750 2638 4750 
Q 3056 4750 3426 4639 
Q 3797 4528 4122 4306 
z
" transform="scale(0.015625)"/>
       <path id="DejaVuSans-6f" d="M 1959 3097 
Q 1497 3097 1228 2736 
Q 959 2375 959 1747 
Q 959 1119 1226 758 
Q 1494 397 1959 397 
Q 2419 397 2687 759 
Q 2956 1122 2956 1747 
Q 2956 2369 2687 2733 
Q 2419 3097 1959 3097 
z
M 1959 3584 
Q 2709 3584 3137 3096 
Q 3566 2609 3566 1747 
Q 3566 888 3137 398 
Q 2709 -91 1959 -91 
Q 1206 -91 779 398 
Q 353 888 353 1747 
Q 353 2609 779 3096 
Q 1206 3584 1959 3584 
z
" transform="scale(0.015625)"/>
       <path id="DejaVuSans-75" d="M 544 1381 
L 544 3500 
L 1119 3500 
L 1119 1403 
Q 1119 906 1312 657 
Q 1506 409 1894 409 
Q 2359 409 2629 706 
Q 2900 1003 2900 1516 
L 2900 3500 
L 3475 3500 
L 3475 0 
L 2900 0 
L 2900 538 
Q 2691 219 2414 64 
Q 2138 -91 1772 -91 
Q 1169 -91 856 284 
Q 544 659 544 1381 
z
M 1991 3584 
L 1991 3584 
z
" transform="scale(0.015625)"/>
       <path id="DejaVuSans-6e" d="M 3513 2113 
L 3513 0 
L 2938 0 
L 2938 2094 
Q 2938 2591 2744 2837 
Q 2550 3084 2163 3084 
Q 1697 3084 1428 2787 
Q 1159 2491 1159 1978 
L 1159 0 
L 581 0 
L 581 3500 
L 1159 3500 
L 1159 2956 
Q 1366 3272 1645 3428 
Q 1925 3584 2291 3584 
Q 2894 3584 3203 3211 
Q 3513 2838 3513 2113 
z
" transform="scale(0.015625)"/>
      </defs>
      <use xlink:href="#DejaVuSans-50"/>
      <use xlink:href="#DejaVuSans-65" x="56.677734"/>
      <use xlink:href="#DejaVuSans-6c" x="118.201172"/>
      <use xlink:href="#DejaVuSans-6c" x="145.984375"/>
      <use xlink:href="#DejaVuSans-65" x="173.767578"/>
      <use xlink:href="#DejaVuSans-74" x="235.291016"/>
      <use xlink:href="#DejaVuSans-5f" x="274.5"/>
      <use xlink:href="#DejaVuSans-43" x="324.5"/>
      <use xlink:href="#DejaVuSans-6f" x="394.324219"/>
      <use xlink:href="#DejaVuSans-75" x="455.505859"/>
      <use xlink:href="#DejaVuSans-6e" x="518.884766"/>
      <use xlink:href="#DejaVuSans-74" x="582.263672"/>
     </g>
    </g>
   </g>
   <g id="line2d_14">
    <path d="M 99.962273 344.397187 
L 99.985078 343.853303 
L 103.253783 343.853303 
L 103.287991 343.309418 
L 116.602266 343.309418 
L 116.609867 342.765533 
L 116.89873 342.765533 
L 116.910132 342.221648 
L 123.436141 342.221648 
L 123.542564 341.677763 
L 124.044272 341.677763 
L 124.07848 341.133878 
L 124.352139 341.133878 
L 124.371143 340.589993 
L 125.79265 340.589993 
L 125.815455 340.046108 
L 126.096716 340.046108 
L 126.111919 339.502223 
L 126.313362 339.502223 
L 126.336167 338.958339 
L 126.682042 338.958339 
L 126.777062 337.870569 
L 126.868282 337.870569 
L 126.879685 337.326684 
L 131.113799 337.326684 
L 131.1214 336.782799 
L 131.246827 336.782799 
L 131.364653 335.695029 
L 131.433068 335.695029 
L 131.448271 335.151144 
L 131.911971 335.151144 
L 131.923374 334.607259 
L 132.470692 334.607259 
L 132.584716 333.51949 
L 133.493113 333.51949 
L 134.306488 332.975605 
L 134.325492 332.43172 
L 134.766387 332.43172 
L 134.781591 331.887835 
L 135.116063 331.887835 
L 135.336511 331.34395 
L 135.956044 331.34395 
L 135.963646 330.800065 
L 136.765619 330.800065 
L 137.430763 330.25618 
L 138.301151 330.25618 
L 138.304951 329.712295 
L 139.441397 329.712295 
L 139.445198 329.168411 
L 139.578226 329.168411 
L 139.582027 328.624526 
L 139.817678 328.624526 
L 139.939304 327.536756 
L 140.505627 327.536756 
L 140.52083 326.992871 
L 141.269592 326.992871 
L 141.478637 326.448986 
L 143.496872 326.448986 
L 143.500673 325.905101 
L 143.648905 325.905101 
L 143.770532 324.817331 
L 144.637119 324.817331 
L 144.846164 324.273446 
L 145.34027 324.273446 
L 145.796369 323.729562 
L 146.948018 323.729562 
L 146.955619 323.185677 
L 147.09625 323.185677 
L 147.214075 322.641792 
L 147.563751 322.641792 
L 147.567551 322.097907 
L 148.802818 322.097907 
L 148.947249 321.010137 
L 149.186701 321.010137 
L 149.190502 320.466252 
L 150.114101 320.466252 
L 150.121703 319.922367 
L 151.049103 319.922367 
L 151.064306 319.378482 
L 151.623027 319.378482 
L 151.630629 318.834598 
L 151.82067 318.834598 
L 151.927093 318.290713 
L 152.520021 318.290713 
L 153.07494 317.746828 
L 154.215187 317.746828 
L 154.329211 317.202943 
L 154.60287 317.202943 
L 154.614273 316.659058 
L 154.777708 316.659058 
L 154.891733 316.115173 
L 155.009558 315.571288 
L 155.104579 315.027403 
L 155.446653 315.027403 
L 155.458055 314.483518 
L 155.796328 314.483518 
L 156.260028 313.939634 
L 157.362266 313.939634 
L 157.495295 312.851864 
L 159.69597 312.851864 
L 159.69597 312.307979 
L 160.072251 312.307979 
L 160.190077 311.220209 
L 160.266093 311.220209 
L 160.34591 310.132439 
L 160.494142 310.132439 
L 160.505545 309.588554 
L 165.389599 309.588554 
L 165.397201 309.04467 
L 165.564437 309.04467 
L 165.663258 307.9569 
L 165.834295 307.9569 
L 165.952121 306.86913 
L 166.035739 306.86913 
L 166.161166 305.78136 
L 166.240983 305.78136 
L 166.336004 304.69359 
L 166.423423 304.69359 
L 166.529846 304.149705 
L 168.270621 304.149705 
L 168.278223 303.605821 
L 175.689823 303.605821 
L 175.769641 303.061936 
L 176.309357 303.061936 
L 176.316959 302.518051 
L 176.442386 302.518051 
L 176.548809 301.430281 
L 178.053934 301.430281 
L 178.430215 300.886396 
L 179.133367 300.886396 
L 179.224587 299.798626 
L 179.555258 299.798626 
L 179.555258 299.798626 
L 179.665482 299.254741 
L 180.16719 299.254741 
L 180.577679 298.710857 
L 180.653695 298.710857 
L 181.163005 298.166972 
L 181.189611 297.623087 
L 181.425262 297.623087 
L 181.432863 297.079202 
L 185.374314 297.079202 
L 185.499741 295.447547 
L 185.621368 295.447547 
L 185.712587 294.359777 
L 185.838015 294.359777 
L 185.933035 293.815893 
L 188.684829 293.815893 
L 188.768447 292.184238 
L 188.890073 292.184238 
L 188.897675 291.640353 
L 189.114322 291.640353 
L 189.121924 291.096468 
L 189.254952 291.096468 
L 189.361375 290.552583 
L 191.341603 290.552583 
L 191.752091 290.008698 
L 199.657798 290.008698 
L 199.688205 288.920929 
L 199.794628 288.920929 
L 199.916254 288.377044 
L 199.969466 288.377044 
L 199.980868 287.833159 
L 200.110096 287.833159 
L 200.163308 287.289274 
L 200.425564 287.289274 
L 200.433166 286.745389 
L 200.608004 286.745389 
L 200.615605 286.201504 
L 201.816665 286.201504 
L 201.828067 285.657619 
L 201.999104 285.657619 
L 202.132133 284.569849 
L 217.396228 284.569849 
L 217.40383 284.025964 
L 217.616676 284.025964 
L 217.624278 283.48208 
L 217.818119 283.48208 
L 217.939746 282.39431 
L 218.030965 281.850425 
L 221.052618 281.850425 
L 221.143838 281.30654 
L 221.999022 281.30654 
L 222.105445 280.762655 
L 222.154856 280.762655 
L 222.272681 279.674885 
L 222.287885 279.674885 
L 222.40571 279.131 
L 222.436117 279.131 
L 222.443718 278.587116 
L 222.576747 278.587116 
L 222.660365 277.499346 
L 222.724979 277.499346 
L 222.732581 276.955461 
L 224.473356 276.955461 
L 224.663397 276.411576 
L 226.001286 276.411576 
L 226.001286 276.411576 
L 226.11151 275.867691 
L 226.537202 275.867691 
L 226.750048 275.323806 
L 226.932487 275.323806 
L 227.734461 274.779921 
L 228.51743 274.779921 
L 229.634871 274.236036 
L 233.329269 274.236036 
L 233.33687 273.692152 
L 263.754838 273.692152 
L 263.762439 273.148267 
L 263.90307 273.148267 
L 263.906871 272.604382 
L 264.218538 272.604382 
L 264.233741 272.060497 
L 264.872279 272.060497 
L 264.87608 271.516612 
L 265.735065 271.516612 
L 265.738866 270.972727 
L 265.860492 270.972727 
L 265.864293 270.428842 
L 265.978318 270.428842 
L 265.98592 269.884957 
L 266.198766 269.884957 
L 266.206367 269.341072 
L 268.308221 269.341072 
L 268.327225 268.797187 
L 268.855539 268.797187 
L 268.85934 268.253303 
L 269.444666 268.253303 
L 269.456069 267.709418 
L 270.410075 267.709418 
L 270.968795 267.165533 
L 271.196845 267.165533 
L 271.200645 266.621648 
L 272.591746 266.621648 
L 273.705386 266.077763 
L 300.573387 266.077763 
L 300.596192 265.533878 
L 300.740624 265.533878 
L 300.748225 264.989993 
L 300.915461 264.989993 
L 301.040888 263.902223 
L 301.166315 263.902223 
L 301.173917 263.358339 
L 301.671825 263.358339 
L 301.675625 262.814454 
L 301.903675 262.814454 
L 301.911276 262.270569 
L 326.126305 262.270569 
L 326.133906 261.726684 
L 326.354354 261.726684 
L 326.358155 261.182799 
L 326.479781 261.182799 
L 326.487383 260.638914 
L 326.616611 260.638914 
L 326.673623 259.551144 
L 348.897021 259.551144 
L 348.904623 259.007259 
L 349.189684 259.007259 
L 349.201087 258.463375 
L 349.467144 258.463375 
L 349.478547 257.91949 
L 349.641982 257.91949 
L 349.756007 257.375605 
L 349.809218 257.375605 
L 350.124686 256.83172 
L 351.291538 256.83172 
L 351.29914 256.287835 
L 353.077924 256.287835 
L 353.112131 255.74395 
L 357.992385 255.74395 
L 357.999987 255.200065 
L 360.048629 255.200065 
L 360.166454 254.112295 
L 360.276678 254.112295 
L 360.394504 253.024526 
L 360.489524 253.024526 
L 360.497126 252.480641 
L 360.622553 252.480641 
L 360.630155 251.936756 
L 378.227954 251.936756 
L 378.235556 251.392871 
L 385.137846 251.392871 
L 385.145448 250.848986 
L 385.335489 250.848986 
L 385.34309 250.305101 
L 385.495123 250.305101 
L 385.506526 249.761216 
L 388.638402 249.761216 
L 388.646004 249.217331 
L 389.866067 249.217331 
L 389.976291 248.673446 
L 390.082714 247.585677 
L 390.189137 247.585677 
L 390.200539 247.041792 
L 393.013147 247.041792 
L 393.035951 246.497907 
L 393.404631 246.497907 
L 393.412233 245.954022 
L 393.564266 245.954022 
L 393.644083 244.866252 
L 393.765709 244.866252 
L 393.883534 243.778482 
L 394.415649 243.778482 
L 394.590487 243.234598 
L 407.66531 243.234598 
L 407.672912 242.690713 
L 407.938969 242.690713 
L 407.938969 242.690713 
L 408.045392 241.602943 
L 408.140413 241.602943 
L 408.148014 241.059058 
L 408.284844 241.059058 
L 408.292446 240.515173 
L 408.604113 240.515173 
L 410.683162 239.971288 
L 410.690763 239.427403 
L 411.181069 239.427403 
L 411.640969 238.883518 
L 412.613979 238.883518 
L 413.058675 238.339634 
L 413.168898 237.795749 
L 413.184102 237.251864 
L 413.298126 237.251864 
L 413.301927 236.707979 
L 421.310256 236.707979 
L 421.317858 236.164094 
L 421.830969 236.164094 
L 421.83857 235.620209 
L 422.036213 235.620209 
L 422.157839 235.076324 
L 422.20725 235.076324 
L 422.214852 234.532439 
L 425.244106 234.532439 
L 425.259309 233.988554 
L 428.904296 233.988554 
L 428.908097 233.44467 
L 429.037325 233.44467 
L 429.041125 232.900785 
L 429.15515 232.900785 
L 429.158951 232.3569 
L 429.280577 232.3569 
L 429.394602 231.813015 
L 429.406004 231.813015 
L 429.413606 231.26913 
L 433.32085 231.26913 
L 433.32465 230.725245 
L 433.491886 230.725245 
L 433.636318 229.637475 
L 434.274855 229.637475 
L 434.841178 229.09359 
L 435.380894 229.09359 
L 436.946832 228.549705 
L 437.543561 228.549705 
L 437.657586 228.005821 
L 439.512386 228.005821 
L 440.462592 227.461936 
L 440.538608 227.461936 
L 440.54621 226.918051 
L 448.8396 226.918051 
L 448.934621 225.830281 
L 448.995434 225.830281 
L 449.105658 225.286396 
L 449.139865 225.286396 
L 449.261491 224.198626 
L 449.371715 224.198626 
L 449.451532 223.110857 
L 449.53515 223.110857 
L 449.637773 222.023087 
L 449.964643 222.023087 
L 449.972245 221.479202 
L 454.928515 221.479202 
L 455.053942 220.391432 
L 455.236381 220.391432 
L 455.312398 219.303662 
L 455.407418 219.303662 
L 455.513841 218.215893 
L 459.516105 218.215893 
L 459.641533 217.128123 
L 461.903021 217.128123 
L 461.967635 216.584238 
L 463.928858 216.584238 
L 464.464774 216.040353 
L 465.616423 216.040353 
L 465.631626 215.496468 
L 467.072137 215.496468 
L 467.125348 214.952583 
L 467.957728 214.952583 
L 468.470839 214.408698 
L 468.47464 213.864813 
L 469.348828 213.864813 
L 469.364032 213.320929 
L 472.454099 213.320929 
L 472.571924 212.233159 
L 474.761197 212.233159 
L 475.255304 211.689274 
L 475.642987 211.689274 
L 476.129492 211.145389 
L 479.72887 211.145389 
L 479.835293 210.057619 
L 479.953118 210.057619 
L 480.067143 209.513734 
L 480.078545 209.513734 
L 480.082346 208.969849 
L 481.67489 208.969849 
L 481.682491 208.425964 
L 483.126803 208.425964 
L 483.134405 207.88208 
L 485.392092 207.88208 
L 485.547926 207.338195 
L 488.265513 207.338195 
L 488.276915 206.79431 
L 488.497363 206.79431 
L 488.588583 205.70654 
L 488.660798 205.70654 
L 488.782424 204.61877 
L 490.922286 204.61877 
L 491.047714 203.531 
L 491.131332 203.531 
L 491.150336 202.987116 
L 492.970929 202.987116 
L 492.97853 202.443231 
L 493.214181 202.443231 
L 493.309202 201.355461 
L 493.423226 201.355461 
L 493.434629 200.811576 
L 493.575259 200.811576 
L 493.582861 200.267691 
L 494.924551 200.267691 
L 495.103189 199.723806 
L 496.053394 199.723806 
L 496.12561 199.179921 
L 497.528113 199.179921 
L 498.527729 198.636036 
L 499.477934 198.636036 
L 499.652771 198.092152 
L 500.040455 198.092152 
L 500.044256 197.548267 
L 500.158281 197.548267 
L 500.268504 196.460497 
L 500.352122 196.460497 
L 500.462346 195.372727 
L 500.538363 195.372727 
L 500.545964 194.828842 
L 500.675192 194.828842 
L 500.686595 194.284957 
L 502.123305 194.284957 
L 502.195521 193.741072 
L 502.328549 193.741072 
L 502.343753 193.197187 
L 504.266968 193.197187 
L 504.270769 192.653303 
L 504.392395 192.653303 
L 504.491216 192.109418 
L 504.559631 192.109418 
L 504.567233 191.565533 
L 505.103148 191.565533 
L 505.125953 191.021648 
L 509.101612 191.021648 
L 509.759154 190.477763 
L 510.29887 190.477763 
L 510.302671 189.933878 
L 510.557326 189.933878 
L 510.675151 188.846108 
L 510.785375 188.846108 
L 510.884197 187.758339 
L 510.975416 187.758339 
L 511.055233 186.670569 
L 511.154055 186.670569 
L 511.161656 186.126684 
L 512.727595 186.126684 
L 513.837434 185.582799 
L 515.927886 185.582799 
L 515.935487 185.038914 
L 516.072317 185.038914 
L 516.171138 183.951144 
L 516.250955 183.951144 
L 516.36498 183.407259 
L 523.704365 183.407259 
L 523.780381 182.863375 
L 523.894406 182.863375 
L 523.898206 182.31949 
L 524.179467 182.31949 
L 524.19087 181.775605 
L 525.198087 181.775605 
L 525.236095 181.23172 
L 534.019792 181.23172 
L 534.027393 180.687835 
L 542.408203 180.687835 
L 542.412004 180.14395 
L 542.62485 180.14395 
L 542.632451 179.600065 
L 542.932716 179.600065 
L 542.944119 179.05618 
L 543.103753 179.05618 
L 543.194973 177.968411 
L 543.267188 177.968411 
L 543.267188 177.968411 
L 543.358408 176.880641 
L 543.46103 176.880641 
L 543.559852 175.792871 
L 543.605461 175.792871 
L 544.053958 175.248986 
L 547.702746 175.248986 
L 547.801567 174.161216 
L 550.462142 174.161216 
L 550.564764 173.617331 
L 550.751004 173.617331 
L 550.861228 173.073446 
L 586.953821 173.073446 
L 588.238498 172.529562 
L 590.002079 172.529562 
L 590.017282 171.985677 
L 590.195921 171.985677 
L 590.306145 170.897907 
L 590.412568 170.897907 
L 590.420169 170.354022 
L 590.537995 170.354022 
L 590.537995 169.810137 
L 590.640617 169.810137 
L 590.65202 169.266252 
L 590.777447 169.266252 
L 590.861065 168.178482 
L 590.948484 168.178482 
L 590.952284 167.634598 
L 596.21262 167.634598 
L 596.224023 167.090713 
L 613.027451 167.090713 
L 613.035052 166.546828 
L 627.991282 166.546828 
L 627.995082 166.002943 
L 628.12431 166.002943 
L 628.128111 165.459058 
L 630.549234 165.459058 
L 630.556836 164.915173 
L 630.739275 164.915173 
L 630.754478 164.371288 
L 630.872304 164.371288 
L 630.978727 163.827403 
L 630.978727 163.827403 
L 631.107955 162.739634 
L 631.202975 162.739634 
L 631.229581 162.195749 
L 631.229581 162.195749 
L 631.978342 162.195749 
L 632.419238 161.651864 
L 635.779163 161.651864 
L 635.893188 160.564094 
L 636.117436 160.564094 
L 636.231461 159.476324 
L 636.330282 159.476324 
L 636.448108 158.388554 
L 636.531726 158.388554 
L 636.638149 157.300785 
L 639.211304 157.300785 
L 639.249312 156.7569 
L 640.541591 156.7569 
L 640.594803 156.213015 
L 659.994191 156.213015 
L 660.013196 155.66913 
L 660.138623 155.66913 
L 660.26405 155.125245 
L 660.267851 155.125245 
L 660.275452 154.58136 
L 660.461692 154.58136 
L 660.579518 154.037475 
L 686.128634 154.037475 
L 686.235057 152.949705 
L 686.322476 152.949705 
L 686.428899 151.861936 
L 686.504915 151.861936 
L 686.596135 151.318051 
L 686.596135 151.318051 
L 713.547754 151.318051 
L 713.61997 150.774166 
L 713.855621 150.774166 
L 713.859422 150.230281 
L 714.402939 150.230281 
L 714.402939 150.230281 
L 714.421943 149.686396 
L 714.54737 149.686396 
L 714.665196 148.598626 
L 714.794424 148.598626 
L 714.904647 148.054741 
L 714.919851 147.510857 
L 716.231134 147.510857 
L 716.242536 146.966972 
L 716.356561 146.966972 
L 716.466785 145.879202 
L 716.558004 145.879202 
L 716.561805 145.335317 
L 737.276278 145.335317 
L 737.283879 144.791432 
L 737.675364 144.791432 
L 737.698169 144.247547 
L 737.831198 144.247547 
L 737.838799 143.703662 
L 740.582992 143.703662 
L 740.704618 142.615893 
L 740.845248 142.615893 
L 740.963074 141.528123 
L 743.673059 141.528123 
L 743.779482 140.440353 
L 752.361735 140.440353 
L 752.388341 139.896468 
L 752.604987 139.896468 
L 752.715211 138.808698 
L 752.806431 138.808698 
L 752.810232 138.264813 
L 752.935659 138.264813 
L 752.935659 138.264813 
L 752.950862 137.720929 
L 761.514111 137.720929 
L 761.529314 137.177044 
L 761.719355 137.177044 
L 761.825778 136.089274 
L 761.913197 136.089274 
L 761.920799 135.545389 
L 762.088035 135.545389 
L 762.209661 134.457619 
L 762.350292 134.457619 
L 762.357893 133.913734 
L 771.962567 133.913734 
L 772.049986 132.825964 
L 772.133604 132.825964 
L 772.251429 131.738195 
L 772.274234 131.738195 
L 772.369255 130.650425 
L 772.433869 130.650425 
L 772.53269 129.562655 
L 772.639113 129.562655 
L 772.642914 129.01877 
L 776.173876 129.01877 
L 777.124081 128.474885 
L 777.355931 128.474885 
L 777.359732 127.931 
L 778.344145 127.931 
L 780.115327 127.387116 
L 780.153335 126.843231 
L 782.277994 126.843231 
L 782.281795 126.299346 
L 782.468035 126.299346 
L 782.570657 125.211576 
L 782.730292 125.211576 
L 782.806308 124.123806 
L 782.90513 124.123806 
L 782.90893 123.579921 
L 783.311817 123.579921 
L 784.049177 123.036036 
L 784.246819 123.036036 
L 785.812757 122.492152 
L 787.30648 122.492152 
L 787.310281 121.948267 
L 787.439509 121.948267 
L 787.443309 121.404382 
L 789.294309 121.404382 
L 789.301911 120.860497 
L 790.544779 120.860497 
L 790.559982 120.316612 
L 793.520822 120.316612 
L 793.562631 119.772727 
L 794.030132 119.772727 
L 794.033933 119.228842 
L 794.212571 119.228842 
L 794.29999 118.141072 
L 794.376006 118.141072 
L 794.482429 117.597187 
L 794.592653 116.509418 
L 794.71808 116.509418 
L 794.721881 115.965533 
L 794.851109 115.965533 
L 794.85491 115.421648 
L 794.972735 115.421648 
L 795.08676 114.333878 
L 795.196984 114.333878 
L 795.200784 113.789993 
L 800.08864 113.789993 
L 802.566775 113.246108 
L 829.119308 113.246108 
L 829.282743 112.702223 
L 829.411971 112.702223 
L 829.415772 112.158339 
L 829.533597 112.158339 
L 829.64002 111.070569 
L 829.719838 111.070569 
L 829.795854 109.982799 
L 829.890875 109.982799 
L 829.96309 108.895029 
L 830.514209 108.895029 
L 830.632035 108.351144 
L 831.357991 108.351144 
L 831.422605 107.807259 
L 834.056574 107.807259 
L 834.166798 106.71949 
L 834.239013 106.71949 
L 834.330233 105.63172 
L 834.375843 105.63172 
L 834.470863 104.54395 
L 834.535477 104.54395 
L 834.569685 103.45618 
L 877.028652 103.45618 
L 878.111886 102.912295 
L 878.210707 101.824526 
L 878.298126 101.824526 
L 878.40835 100.736756 
L 878.503371 100.736756 
L 878.598391 99.648986 
L 879.487783 99.648986 
L 879.609409 99.105101 
L 879.639816 99.105101 
L 879.742438 98.017331 
L 882.072341 98.017331 
L 882.171163 97.473446 
L 884.915355 97.473446 
L 884.919156 96.929562 
L 887.25286 96.929562 
L 887.271864 96.385677 
L 888.431114 96.385677 
L 888.438716 95.841792 
L 888.651562 95.841792 
L 888.659163 95.297907 
L 906.135337 95.297907 
L 906.142938 94.754022 
L 906.279768 94.754022 
L 906.386191 93.666252 
L 906.466008 93.666252 
L 906.469809 93.122367 
L 906.633244 93.122367 
L 906.743468 92.034598 
L 906.834688 92.034598 
L 906.933509 90.946828 
L 907.108347 90.946828 
L 907.119749 90.402943 
L 907.286985 90.402943 
L 907.290786 89.859058 
L 910.536687 89.859058 
L 910.544289 89.315173 
L 913.037627 89.315173 
L 913.056631 88.771288 
L 914.086654 88.771288 
L 914.090454 88.227403 
L 914.215881 88.227403 
L 914.223483 87.683518 
L 914.337508 87.683518 
L 914.451532 86.595749 
L 914.557955 86.595749 
L 914.561756 86.051864 
L 931.904901 86.051864 
L 932.022726 84.964094 
L 932.037929 84.964094 
L 932.144352 83.876324 
L 932.220369 83.876324 
L 932.307788 82.788554 
L 932.387605 82.788554 
L 932.486426 81.700785 
L 932.570044 81.700785 
L 932.665065 80.613015 
L 932.794293 80.613015 
L 932.900716 80.06913 
L 932.91972 79.525245 
L 949.096013 79.525245 
L 949.099813 78.98136 
L 949.244245 78.98136 
L 949.343066 77.89359 
L 949.426684 77.89359 
L 949.555912 76.261936 
L 949.654733 76.261936 
L 949.761156 75.174166 
L 949.848575 75.174166 
L 949.951197 74.630281 
L 949.951197 74.630281 
L 973.044983 74.630281 
L 973.101996 73.542511 
L 973.208419 73.542511 
L 973.21222 72.998626 
L 973.375655 72.998626 
L 973.383257 72.454741 
L 994.926308 72.454741 
L 994.93391 71.910857 
L 995.374805 71.910857 
L 995.374805 71.910857 
L 995.39761 71.366972 
L 995.526838 71.366972 
L 995.640862 70.279202 
L 995.739684 70.279202 
L 995.762489 69.735317 
L 1006.077916 69.735317 
L 1006.19194 69.191432 
L 1006.222347 69.191432 
L 1006.332571 68.647547 
L 1006.446595 67.559777 
L 1006.556819 67.559777 
L 1006.564421 67.015893 
L 1010.616096 67.015893 
L 1010.882153 66.472008 
L 1013.50852 66.472008 
L 1013.546528 65.928123 
L 1015.994257 65.928123 
L 1016.112082 65.384238 
L 1033.569252 65.384238 
L 1033.614861 64.296468 
L 1033.755492 64.296468 
L 1033.816305 63.208698 
L 1033.994943 63.208698 
L 1034.086163 62.120929 
L 1034.169781 62.120929 
L 1034.261001 61.033159 
L 1034.363623 61.033159 
L 1034.477648 59.945389 
L 1034.561266 59.945389 
L 1034.572668 59.401504 
L 1034.686693 59.401504 
L 1034.690494 58.857619 
L 1060.555078 58.857619 
L 1060.646298 57.769849 
L 1060.729916 57.769849 
L 1060.733717 57.225964 
L 1060.919957 57.225964 
L 1061.003575 56.138195 
L 1061.083392 56.138195 
L 1061.201218 55.050425 
L 1061.288637 55.050425 
L 1061.39506 54.50654 
L 1084.652281 54.50654 
L 1084.781509 52.874885 
L 1084.876529 52.874885 
L 1084.986753 51.787116 
L 1085.047566 51.787116 
L 1085.161591 50.699346 
L 1085.241408 50.699346 
L 1085.34403 49.611576 
L 1104.777626 49.611576 
L 1104.815635 48.523806 
L 1104.910655 48.523806 
L 1104.918257 47.979921 
L 1105.093095 47.979921 
L 1105.184314 46.892152 
L 1105.25653 46.892152 
L 1105.34775 45.804382 
L 1105.423766 45.804382 
L 1105.53399 45.260497 
L 1105.640413 45.260497 
L 1105.750636 44.716612 
L 1109.646478 44.716612 
L 1109.654079 44.172727 
L 1109.787108 44.172727 
L 1109.790909 43.628842 
L 1109.98095 43.628842 
L 1110.083572 43.084957 
L 1112.690935 43.084957 
L 1112.797358 41.997187 
L 1114.507727 41.997187 
L 1114.507727 41.997187 
" clip-path="url(#pde650f067a)" style="fill: none; stroke: #0000ff; stroke-width: 1.5; stroke-linecap: square"/>
   </g>
   <g id="patch_100">
    <path d="M 49.235 359.517187 
L 49.235 26.877187 
" style="fill: none; stroke: #000000; stroke-width: 0.8; stroke-linejoin: miter; stroke-linecap: square"/>
   </g>
   <g id="patch_101">
    <path d="M 1165.235 359.517187 
L 1165.235 26.877187 
" style="fill: none; stroke: #000000; stroke-width: 0.8; stroke-linejoin: miter; stroke-linecap: square"/>
   </g>
   <g id="patch_102">
    <path d="M 49.235 359.517187 
L 1165.235 359.517187 
" style="fill: none; stroke: #000000; stroke-width: 0.8; stroke-linejoin: miter; stroke-linecap: square"/>
   </g>
   <g id="patch_103">
    <path d="M 49.235 26.877187 
L 1165.235 26.877187 
" style="fill: none; stroke: #000000; stroke-width: 0.8; stroke-linejoin: miter; stroke-linecap: square"/>
   </g>
   <g id="text_16">
    <!-- Pellet Count and Cumulative Sum Over Time of Group female Mouse M73 -->
    <g transform="translate(276.669219 20.877187) scale(0.18 -0.18)">
     <defs>
      <path id="DejaVuSans-61" d="M 2194 1759 
Q 1497 1759 1228 1600 
Q 959 1441 959 1056 
Q 959 750 1161 570 
Q 1363 391 1709 391 
Q 2188 391 2477 730 
Q 2766 1069 2766 1631 
L 2766 1759 
L 2194 1759 
z
M 3341 1997 
L 3341 0 
L 2766 0 
L 2766 531 
Q 2569 213 2275 61 
Q 1981 -91 1556 -91 
Q 1019 -91 701 211 
Q 384 513 384 1019 
Q 384 1609 779 1909 
Q 1175 2209 1959 2209 
L 2766 2209 
L 2766 2266 
Q 2766 2663 2505 2880 
Q 2244 3097 1772 3097 
Q 1472 3097 1187 3025 
Q 903 2953 641 2809 
L 641 3341 
Q 956 3463 1253 3523 
Q 1550 3584 1831 3584 
Q 2591 3584 2966 3190 
Q 3341 2797 3341 1997 
z
" transform="scale(0.015625)"/>
      <path id="DejaVuSans-64" d="M 2906 2969 
L 2906 4863 
L 3481 4863 
L 3481 0 
L 2906 0 
L 2906 525 
Q 2725 213 2448 61 
Q 2172 -91 1784 -91 
Q 1150 -91 751 415 
Q 353 922 353 1747 
Q 353 2572 751 3078 
Q 1150 3584 1784 3584 
Q 2172 3584 2448 3432 
Q 2725 3281 2906 2969 
z
M 947 1747 
Q 947 1113 1208 752 
Q 1469 391 1925 391 
Q 2381 391 2643 752 
Q 2906 1113 2906 1747 
Q 2906 2381 2643 2742 
Q 2381 3103 1925 3103 
Q 1469 3103 1208 2742 
Q 947 2381 947 1747 
z
" transform="scale(0.015625)"/>
      <path id="DejaVuSans-76" d="M 191 3500 
L 800 3500 
L 1894 563 
L 2988 3500 
L 3597 3500 
L 2284 0 
L 1503 0 
L 191 3500 
z
" transform="scale(0.015625)"/>
      <path id="DejaVuSans-53" d="M 3425 4513 
L 3425 3897 
Q 3066 4069 2747 4153 
Q 2428 4238 2131 4238 
Q 1616 4238 1336 4038 
Q 1056 3838 1056 3469 
Q 1056 3159 1242 3001 
Q 1428 2844 1947 2747 
L 2328 2669 
Q 3034 2534 3370 2195 
Q 3706 1856 3706 1288 
Q 3706 609 3251 259 
Q 2797 -91 1919 -91 
Q 1588 -91 1214 -16 
Q 841 59 441 206 
L 441 856 
Q 825 641 1194 531 
Q 1563 422 1919 422 
Q 2459 422 2753 634 
Q 3047 847 3047 1241 
Q 3047 1584 2836 1778 
Q 2625 1972 2144 2069 
L 1759 2144 
Q 1053 2284 737 2584 
Q 422 2884 422 3419 
Q 422 4038 858 4394 
Q 1294 4750 2059 4750 
Q 2388 4750 2728 4690 
Q 3069 4631 3425 4513 
z
" transform="scale(0.015625)"/>
      <path id="DejaVuSans-4f" d="M 2522 4238 
Q 1834 4238 1429 3725 
Q 1025 3213 1025 2328 
Q 1025 1447 1429 934 
Q 1834 422 2522 422 
Q 3209 422 3611 934 
Q 4013 1447 4013 2328 
Q 4013 3213 3611 3725 
Q 3209 4238 2522 4238 
z
M 2522 4750 
Q 3503 4750 4090 4092 
Q 4678 3434 4678 2328 
Q 4678 1225 4090 567 
Q 3503 -91 2522 -91 
Q 1538 -91 948 565 
Q 359 1222 359 2328 
Q 359 3434 948 4092 
Q 1538 4750 2522 4750 
z
" transform="scale(0.015625)"/>
      <path id="DejaVuSans-72" d="M 2631 2963 
Q 2534 3019 2420 3045 
Q 2306 3072 2169 3072 
Q 1681 3072 1420 2755 
Q 1159 2438 1159 1844 
L 1159 0 
L 581 0 
L 581 3500 
L 1159 3500 
L 1159 2956 
Q 1341 3275 1631 3429 
Q 1922 3584 2338 3584 
Q 2397 3584 2469 3576 
Q 2541 3569 2628 3553 
L 2631 2963 
z
" transform="scale(0.015625)"/>
      <path id="DejaVuSans-66" d="M 2375 4863 
L 2375 4384 
L 1825 4384 
Q 1516 4384 1395 4259 
Q 1275 4134 1275 3809 
L 1275 3500 
L 2222 3500 
L 2222 3053 
L 1275 3053 
L 1275 0 
L 697 0 
L 697 3053 
L 147 3053 
L 147 3500 
L 697 3500 
L 697 3744 
Q 697 4328 969 4595 
Q 1241 4863 1831 4863 
L 2375 4863 
z
" transform="scale(0.015625)"/>
      <path id="DejaVuSans-47" d="M 3809 666 
L 3809 1919 
L 2778 1919 
L 2778 2438 
L 4434 2438 
L 4434 434 
Q 4069 175 3628 42 
Q 3188 -91 2688 -91 
Q 1594 -91 976 548 
Q 359 1188 359 2328 
Q 359 3472 976 4111 
Q 1594 4750 2688 4750 
Q 3144 4750 3555 4637 
Q 3966 4525 4313 4306 
L 4313 3634 
Q 3963 3931 3569 4081 
Q 3175 4231 2741 4231 
Q 1884 4231 1454 3753 
Q 1025 3275 1025 2328 
Q 1025 1384 1454 906 
Q 1884 428 2741 428 
Q 3075 428 3337 486 
Q 3600 544 3809 666 
z
" transform="scale(0.015625)"/>
      <path id="DejaVuSans-70" d="M 1159 525 
L 1159 -1331 
L 581 -1331 
L 581 3500 
L 1159 3500 
L 1159 2969 
Q 1341 3281 1617 3432 
Q 1894 3584 2278 3584 
Q 2916 3584 3314 3078 
Q 3713 2572 3713 1747 
Q 3713 922 3314 415 
Q 2916 -91 2278 -91 
Q 1894 -91 1617 61 
Q 1341 213 1159 525 
z
M 3116 1747 
Q 3116 2381 2855 2742 
Q 2594 3103 2138 3103 
Q 1681 3103 1420 2742 
Q 1159 2381 1159 1747 
Q 1159 1113 1420 752 
Q 1681 391 2138 391 
Q 2594 391 2855 752 
Q 3116 1113 3116 1747 
z
" transform="scale(0.015625)"/>
      <path id="DejaVuSans-4d" d="M 628 4666 
L 1569 4666 
L 2759 1491 
L 3956 4666 
L 4897 4666 
L 4897 0 
L 4281 0 
L 4281 4097 
L 3078 897 
L 2444 897 
L 1241 4097 
L 1241 0 
L 628 0 
L 628 4666 
z
" transform="scale(0.015625)"/>
      <path id="DejaVuSans-73" d="M 2834 3397 
L 2834 2853 
Q 2591 2978 2328 3040 
Q 2066 3103 1784 3103 
Q 1356 3103 1142 2972 
Q 928 2841 928 2578 
Q 928 2378 1081 2264 
Q 1234 2150 1697 2047 
L 1894 2003 
Q 2506 1872 2764 1633 
Q 3022 1394 3022 966 
Q 3022 478 2636 193 
Q 2250 -91 1575 -91 
Q 1294 -91 989 -36 
Q 684 19 347 128 
L 347 722 
Q 666 556 975 473 
Q 1284 391 1588 391 
Q 1994 391 2212 530 
Q 2431 669 2431 922 
Q 2431 1156 2273 1281 
Q 2116 1406 1581 1522 
L 1381 1569 
Q 847 1681 609 1914 
Q 372 2147 372 2553 
Q 372 3047 722 3315 
Q 1072 3584 1716 3584 
Q 2034 3584 2315 3537 
Q 2597 3491 2834 3397 
z
" transform="scale(0.015625)"/>
      <path id="DejaVuSans-37" d="M 525 4666 
L 3525 4666 
L 3525 4397 
L 1831 0 
L 1172 0 
L 2766 4134 
L 525 4134 
L 525 4666 
z
" transform="scale(0.015625)"/>
     </defs>
     <use xlink:href="#DejaVuSans-50"/>
     <use xlink:href="#DejaVuSans-65" x="56.677734"/>
     <use xlink:href="#DejaVuSans-6c" x="118.201172"/>
     <use xlink:href="#DejaVuSans-6c" x="145.984375"/>
     <use xlink:href="#DejaVuSans-65" x="173.767578"/>
     <use xlink:href="#DejaVuSans-74" x="235.291016"/>
     <use xlink:href="#DejaVuSans-20" x="274.5"/>
     <use xlink:href="#DejaVuSans-43" x="306.287109"/>
     <use xlink:href="#DejaVuSans-6f" x="376.111328"/>
     <use xlink:href="#DejaVuSans-75" x="437.292969"/>
     <use xlink:href="#DejaVuSans-6e" x="500.671875"/>
     <use xlink:href="#DejaVuSans-74" x="564.050781"/>
     <use xlink:href="#DejaVuSans-20" x="603.259766"/>
     <use xlink:href="#DejaVuSans-61" x="635.046875"/>
     <use xlink:href="#DejaVuSans-6e" x="696.326172"/>
     <use xlink:href="#DejaVuSans-64" x="759.705078"/>
     <use xlink:href="#DejaVuSans-20" x="823.181641"/>
     <use xlink:href="#DejaVuSans-43" x="854.96875"/>
     <use xlink:href="#DejaVuSans-75" x="924.792969"/>
     <use xlink:href="#DejaVuSans-6d" x="988.171875"/>
     <use xlink:href="#DejaVuSans-75" x="1085.583984"/>
     <use xlink:href="#DejaVuSans-6c" x="1148.962891"/>
     <use xlink:href="#DejaVuSans-61" x="1176.746094"/>
     <use xlink:href="#DejaVuSans-74" x="1238.025391"/>
     <use xlink:href="#DejaVuSans-69" x="1277.234375"/>
     <use xlink:href="#DejaVuSans-76" x="1305.017578"/>
     <use xlink:href="#DejaVuSans-65" x="1364.197266"/>
     <use xlink:href="#DejaVuSans-20" x="1425.720703"/>
     <use xlink:href="#DejaVuSans-53" x="1457.507812"/>
     <use xlink:href="#DejaVuSans-75" x="1520.984375"/>
     <use xlink:href="#DejaVuSans-6d" x="1584.363281"/>
     <use xlink:href="#DejaVuSans-20" x="1681.775391"/>
     <use xlink:href="#DejaVuSans-4f" x="1713.5625"/>
     <use xlink:href="#DejaVuSans-76" x="1792.273438"/>
     <use xlink:href="#DejaVuSans-65" x="1851.453125"/>
     <use xlink:href="#DejaVuSans-72" x="1912.976562"/>
     <use xlink:href="#DejaVuSans-20" x="1954.089844"/>
     <use xlink:href="#DejaVuSans-54" x="1985.876953"/>
     <use xlink:href="#DejaVuSans-69" x="2043.835938"/>
     <use xlink:href="#DejaVuSans-6d" x="2071.619141"/>
     <use xlink:href="#DejaVuSans-65" x="2169.03125"/>
     <use xlink:href="#DejaVuSans-20" x="2230.554688"/>
     <use xlink:href="#DejaVuSans-6f" x="2262.341797"/>
     <use xlink:href="#DejaVuSans-66" x="2323.523438"/>
     <use xlink:href="#DejaVuSans-20" x="2358.728516"/>
     <use xlink:href="#DejaVuSans-47" x="2390.515625"/>
     <use xlink:href="#DejaVuSans-72" x="2468.005859"/>
     <use xlink:href="#DejaVuSans-6f" x="2506.869141"/>
     <use xlink:href="#DejaVuSans-75" x="2568.050781"/>
     <use xlink:href="#DejaVuSans-70" x="2631.429688"/>
     <use xlink:href="#DejaVuSans-20" x="2694.90625"/>
     <use xlink:href="#DejaVuSans-66" x="2726.693359"/>
     <use xlink:href="#DejaVuSans-65" x="2761.898438"/>
     <use xlink:href="#DejaVuSans-6d" x="2823.421875"/>
     <use xlink:href="#DejaVuSans-61" x="2920.833984"/>
     <use xlink:href="#DejaVuSans-6c" x="2982.113281"/>
     <use xlink:href="#DejaVuSans-65" x="3009.896484"/>
     <use xlink:href="#DejaVuSans-20" x="3071.419922"/>
     <use xlink:href="#DejaVuSans-4d" x="3103.207031"/>
     <use xlink:href="#DejaVuSans-6f" x="3189.486328"/>
     <use xlink:href="#DejaVuSans-75" x="3250.667969"/>
     <use xlink:href="#DejaVuSans-73" x="3314.046875"/>
     <use xlink:href="#DejaVuSans-65" x="3366.146484"/>
     <use xlink:href="#DejaVuSans-20" x="3427.669922"/>
     <use xlink:href="#DejaVuSans-4d" x="3459.457031"/>
     <use xlink:href="#DejaVuSans-37" x="3545.736328"/>
     <use xlink:href="#DejaVuSans-33" x="3609.359375"/>
    </g>
   </g>
   <g id="legend_1">
    <g id="patch_104">
     <path d="M 1086.550625 64.233437 
L 1158.235 64.233437 
Q 1160.235 64.233437 1160.235 62.233437 
L 1160.235 33.877187 
Q 1160.235 31.877187 1158.235 31.877187 
L 1086.550625 31.877187 
Q 1084.550625 31.877187 1084.550625 33.877187 
L 1084.550625 62.233437 
Q 1084.550625 64.233437 1086.550625 64.233437 
z
" style="fill: #ffffff; opacity: 0.8; stroke: #cccccc; stroke-linejoin: miter"/>
    </g>
    <g id="patch_105">
     <path d="M 1088.550625 43.475625 
L 1108.550625 43.475625 
L 1108.550625 36.475625 
L 1088.550625 36.475625 
z
" style="fill: #add8e6; opacity: 0.9; stroke: #add8e6; stroke-linejoin: miter"/>
    </g>
    <g id="text_17">
     <!-- Meal -->
     <g transform="translate(1116.550625 43.475625) scale(0.1 -0.1)">
      <use xlink:href="#DejaVuSans-4d"/>
      <use xlink:href="#DejaVuSans-65" x="86.279297"/>
      <use xlink:href="#DejaVuSans-61" x="147.802734"/>
      <use xlink:href="#DejaVuSans-6c" x="209.082031"/>
     </g>
    </g>
    <g id="patch_106">
     <path d="M 1088.550625 58.15375 
L 1108.550625 58.15375 
L 1108.550625 51.15375 
L 1088.550625 51.15375 
z
" style="fill: #808080; opacity: 0.5; stroke: #808080; stroke-linejoin: miter"/>
    </g>
    <g id="text_18">
     <!-- Inactive -->
     <g transform="translate(1116.550625 58.15375) scale(0.1 -0.1)">
      <defs>
       <path id="DejaVuSans-49" d="M 628 4666 
L 1259 4666 
L 1259 0 
L 628 0 
L 628 4666 
z
" transform="scale(0.015625)"/>
       <path id="DejaVuSans-63" d="M 3122 3366 
L 3122 2828 
Q 2878 2963 2633 3030 
Q 2388 3097 2138 3097 
Q 1578 3097 1268 2742 
Q 959 2388 959 1747 
Q 959 1106 1268 751 
Q 1578 397 2138 397 
Q 2388 397 2633 464 
Q 2878 531 3122 666 
L 3122 134 
Q 2881 22 2623 -34 
Q 2366 -91 2075 -91 
Q 1284 -91 818 406 
Q 353 903 353 1747 
Q 353 2603 823 3093 
Q 1294 3584 2113 3584 
Q 2378 3584 2631 3529 
Q 2884 3475 3122 3366 
z
" transform="scale(0.015625)"/>
      </defs>
      <use xlink:href="#DejaVuSans-49"/>
      <use xlink:href="#DejaVuSans-6e" x="29.492188"/>
      <use xlink:href="#DejaVuSans-61" x="92.871094"/>
      <use xlink:href="#DejaVuSans-63" x="154.150391"/>
      <use xlink:href="#DejaVuSans-74" x="209.130859"/>
      <use xlink:href="#DejaVuSans-69" x="248.339844"/>
      <use xlink:href="#DejaVuSans-76" x="276.123047"/>
      <use xlink:href="#DejaVuSans-65" x="335.302734"/>
     </g>
    </g>
   </g>
  </g>
 </g>
 <defs>
  <clipPath id="pde650f067a">
   <rect x="49.235" y="26.877187" width="1116" height="332.64"/>
  </clipPath>
 </defs>
</svg>
