<?xml version="1.0" encoding="utf-8" standalone="no"?>
<!DOCTYPE svg PUBLIC "-//W3C//DTD SVG 1.1//EN"
  "http://www.w3.org/Graphics/SVG/1.1/DTD/svg11.dtd">
<svg xmlns:xlink="http://www.w3.org/1999/xlink" width="1172.435pt" height="399.009062pt" viewBox="0 0 1172.435 399.009062" xmlns="http://www.w3.org/2000/svg" version="1.1">
 <metadata>
  <rdf:RDF xmlns:dc="http://purl.org/dc/elements/1.1/" xmlns:cc="http://creativecommons.org/ns#" xmlns:rdf="http://www.w3.org/1999/02/22-rdf-syntax-ns#">
   <cc:Work>
    <dc:type rdf:resource="http://purl.org/dc/dcmitype/StillImage"/>
    <dc:date>2025-04-02T11:17:38.430816</dc:date>
    <dc:format>image/svg+xml</dc:format>
    <dc:creator>
     <cc:Agent>
      <dc:title>Matplotlib v3.8.3, https://matplotlib.org/</dc:title>
     </cc:Agent>
    </dc:creator>
   </cc:Work>
  </rdf:RDF>
 </metadata>
 <defs>
  <style type="text/css">*{stroke-linejoin: round; stroke-linecap: butt}</style>
 </defs>
 <g id="figure_1">
  <g id="patch_1">
   <path d="M 0 399.009062 
L 1172.435 399.009062 
L 1172.435 0 
L 0 0 
z
" style="fill: #ffffff"/>
  </g>
  <g id="axes_1">
   <g id="patch_2">
    <path d="M 49.235 359.517187 
L 1165.235 359.517187 
L 1165.235 26.877187 
L 49.235 26.877187 
z
" style="fill: #ffffff"/>
   </g>
   <g id="patch_3">
    <path d="M 152.268858 359.517187 
L 152.268858 26.877187 
L 152.268858 26.877187 
z
" clip-path="url(#pe5e326d002)" style="fill: #add8e6; stroke: #add8e6; stroke-linejoin: miter"/>
   </g>
   <g id="patch_4">
    <path d="M 183.508904 359.517187 
L 183.508904 26.877187 
L 184.055328 26.877187 
L 184.055328 359.517187 
z
" clip-path="url(#pe5e326d002)" style="fill: #add8e6; stroke: #add8e6; stroke-linejoin: miter"/>
   </g>
   <g id="patch_5">
    <path d="M 223.71907 359.517187 
L 223.71907 26.877187 
L 222.770127 26.877187 
L 222.770127 359.517187 
z
" clip-path="url(#pe5e326d002)" style="fill: #add8e6; stroke: #add8e6; stroke-linejoin: miter"/>
   </g>
   <g id="patch_6">
    <path d="M 253.983059 359.517187 
L 253.983059 26.877187 
L 254.135308 26.877187 
L 254.135308 359.517187 
z
" clip-path="url(#pe5e326d002)" style="fill: #add8e6; stroke: #add8e6; stroke-linejoin: miter"/>
   </g>
   <g id="patch_7">
    <path d="M 260.502612 359.517187 
L 260.502612 26.877187 
L 259.059384 26.877187 
L 259.059384 359.517187 
z
" clip-path="url(#pe5e326d002)" style="fill: #add8e6; stroke: #add8e6; stroke-linejoin: miter"/>
   </g>
   <g id="patch_8">
    <path d="M 261.436956 359.517187 
L 261.436956 26.877187 
L 258.896708 26.877187 
L 258.896708 359.517187 
z
" clip-path="url(#pe5e326d002)" style="fill: #add8e6; stroke: #add8e6; stroke-linejoin: miter"/>
   </g>
   <g id="patch_9">
    <path d="M 263.157568 359.517187 
L 263.157568 26.877187 
L 263.485005 26.877187 
L 263.485005 359.517187 
z
" clip-path="url(#pe5e326d002)" style="fill: #add8e6; stroke: #add8e6; stroke-linejoin: miter"/>
   </g>
   <g id="patch_10">
    <path d="M 268.158812 359.517187 
L 268.158812 26.877187 
L 268.77406 26.877187 
L 268.77406 359.517187 
z
" clip-path="url(#pe5e326d002)" style="fill: #add8e6; stroke: #add8e6; stroke-linejoin: miter"/>
   </g>
   <g id="patch_11">
    <path d="M 269.981617 359.517187 
L 269.981617 26.877187 
L 270.350766 26.877187 
L 270.350766 359.517187 
z
" clip-path="url(#pe5e326d002)" style="fill: #add8e6; stroke: #add8e6; stroke-linejoin: miter"/>
   </g>
   <g id="patch_12">
    <path d="M 272.711653 359.517187 
L 272.711653 26.877187 
L 272.242396 26.877187 
L 272.242396 359.517187 
z
" clip-path="url(#pe5e326d002)" style="fill: #add8e6; stroke: #add8e6; stroke-linejoin: miter"/>
   </g>
   <g id="patch_13">
    <path d="M 273.846214 359.517187 
L 273.846214 26.877187 
L 274.284188 26.877187 
L 274.284188 359.517187 
z
" clip-path="url(#pe5e326d002)" style="fill: #add8e6; stroke: #add8e6; stroke-linejoin: miter"/>
   </g>
   <g id="patch_14">
    <path d="M 296.527 359.517187 
L 296.527 26.877187 
L 294.151514 26.877187 
L 294.151514 359.517187 
z
" clip-path="url(#pe5e326d002)" style="fill: #add8e6; stroke: #add8e6; stroke-linejoin: miter"/>
   </g>
   <g id="patch_15">
    <path d="M 307.495116 359.517187 
L 307.495116 26.877187 
L 307.559769 26.877187 
L 307.559769 359.517187 
z
" clip-path="url(#pe5e326d002)" style="fill: #add8e6; stroke: #add8e6; stroke-linejoin: miter"/>
   </g>
   <g id="patch_16">
    <path d="M 318.905376 359.517187 
L 318.905376 26.877187 
L 318.202532 26.877187 
L 318.202532 359.517187 
z
" clip-path="url(#pe5e326d002)" style="fill: #add8e6; stroke: #add8e6; stroke-linejoin: miter"/>
   </g>
   <g id="patch_17">
    <path d="M 325.627231 359.517187 
L 325.627231 26.877187 
L 325.723168 26.877187 
L 325.723168 359.517187 
z
" clip-path="url(#pe5e326d002)" style="fill: #add8e6; stroke: #add8e6; stroke-linejoin: miter"/>
   </g>
   <g id="patch_18">
    <path d="M 363.810204 359.517187 
L 363.810204 26.877187 
L 346.883559 26.877187 
L 346.883559 359.517187 
z
" clip-path="url(#pe5e326d002)" style="fill: #add8e6; stroke: #add8e6; stroke-linejoin: miter"/>
   </g>
   <g id="patch_19">
    <path d="M 389.64023 359.517187 
L 389.64023 26.877187 
L 389.14386 26.877187 
L 389.14386 359.517187 
z
" clip-path="url(#pe5e326d002)" style="fill: #add8e6; stroke: #add8e6; stroke-linejoin: miter"/>
   </g>
   <g id="patch_20">
    <path d="M 419.412021 359.517187 
L 419.412021 26.877187 
L 407.663895 26.877187 
L 407.663895 359.517187 
z
" clip-path="url(#pe5e326d002)" style="fill: #add8e6; stroke: #add8e6; stroke-linejoin: miter"/>
   </g>
   <g id="patch_21">
    <path d="M 449.121244 359.517187 
L 449.121244 26.877187 
L 425.51237 26.877187 
L 425.51237 359.517187 
z
" clip-path="url(#pe5e326d002)" style="fill: #add8e6; stroke: #add8e6; stroke-linejoin: miter"/>
   </g>
   <g id="patch_22">
    <path d="M 470.561104 359.517187 
L 470.561104 26.877187 
L 457.976657 26.877187 
L 457.976657 359.517187 
z
" clip-path="url(#pe5e326d002)" style="fill: #add8e6; stroke: #add8e6; stroke-linejoin: miter"/>
   </g>
   <g id="patch_23">
    <path d="M 481.416598 359.517187 
L 481.416598 26.877187 
L 458.952713 26.877187 
L 458.952713 359.517187 
z
" clip-path="url(#pe5e326d002)" style="fill: #add8e6; stroke: #add8e6; stroke-linejoin: miter"/>
   </g>
   <g id="patch_24">
    <path d="M 490.155218 359.517187 
L 490.155218 26.877187 
L 486.993464 26.877187 
L 486.993464 359.517187 
z
" clip-path="url(#pe5e326d002)" style="fill: #add8e6; stroke: #add8e6; stroke-linejoin: miter"/>
   </g>
   <g id="patch_25">
    <path d="M 503.56973 359.517187 
L 503.56973 26.877187 
L 504.176636 26.877187 
L 504.176636 359.517187 
z
" clip-path="url(#pe5e326d002)" style="fill: #add8e6; stroke: #add8e6; stroke-linejoin: miter"/>
   </g>
   <g id="patch_26">
    <path d="M 527.040954 359.517187 
L 527.040954 26.877187 
L 525.91265 26.877187 
L 525.91265 359.517187 
z
" clip-path="url(#pe5e326d002)" style="fill: #add8e6; stroke: #add8e6; stroke-linejoin: miter"/>
   </g>
   <g id="patch_27">
    <path d="M 562.118485 359.517187 
L 562.118485 26.877187 
L 559.619948 26.877187 
L 559.619948 359.517187 
z
" clip-path="url(#pe5e326d002)" style="fill: #add8e6; stroke: #add8e6; stroke-linejoin: miter"/>
   </g>
   <g id="patch_28">
    <path d="M 581.201629 359.517187 
L 581.201629 26.877187 
L 569.962387 26.877187 
L 569.962387 359.517187 
z
" clip-path="url(#pe5e326d002)" style="fill: #add8e6; stroke: #add8e6; stroke-linejoin: miter"/>
   </g>
   <g id="patch_29">
    <path d="M 607.751183 359.517187 
L 607.751183 26.877187 
L 604.622799 26.877187 
L 604.622799 359.517187 
z
" clip-path="url(#pe5e326d002)" style="fill: #add8e6; stroke: #add8e6; stroke-linejoin: miter"/>
   </g>
   <g id="patch_30">
    <path d="M 622.621437 359.517187 
L 622.621437 26.877187 
L 615.724392 26.877187 
L 615.724392 359.517187 
z
" clip-path="url(#pe5e326d002)" style="fill: #add8e6; stroke: #add8e6; stroke-linejoin: miter"/>
   </g>
   <g id="patch_31">
    <path d="M 624.903072 359.517187 
L 624.903072 26.877187 
L 625.140829 26.877187 
L 625.140829 359.517187 
z
" clip-path="url(#pe5e326d002)" style="fill: #add8e6; stroke: #add8e6; stroke-linejoin: miter"/>
   </g>
   <g id="patch_32">
    <path d="M 661.548965 359.517187 
L 661.548965 26.877187 
L 658.08063 26.877187 
L 658.08063 359.517187 
z
" clip-path="url(#pe5e326d002)" style="fill: #add8e6; stroke: #add8e6; stroke-linejoin: miter"/>
   </g>
   <g id="patch_33">
    <path d="M 745.199876 359.517187 
L 745.199876 26.877187 
L 737.335118 26.877187 
L 737.335118 359.517187 
z
" clip-path="url(#pe5e326d002)" style="fill: #add8e6; stroke: #add8e6; stroke-linejoin: miter"/>
   </g>
   <g id="patch_34">
    <path d="M 787.22659 359.517187 
L 787.22659 26.877187 
L 769.69721 26.877187 
L 769.69721 359.517187 
z
" clip-path="url(#pe5e326d002)" style="fill: #add8e6; stroke: #add8e6; stroke-linejoin: miter"/>
   </g>
   <g id="patch_35">
    <path d="M 821.503254 359.517187 
L 821.503254 26.877187 
L 821.845291 26.877187 
L 821.845291 359.517187 
z
" clip-path="url(#pe5e326d002)" style="fill: #add8e6; stroke: #add8e6; stroke-linejoin: miter"/>
   </g>
   <g id="patch_36">
    <path d="M 823.294776 359.517187 
L 823.294776 26.877187 
L 823.695209 26.877187 
L 823.695209 359.517187 
z
" clip-path="url(#pe5e326d002)" style="fill: #add8e6; stroke: #add8e6; stroke-linejoin: miter"/>
   </g>
   <g id="patch_37">
    <path d="M 863.882434 359.517187 
L 863.882434 26.877187 
L 863.60505 26.877187 
L 863.60505 359.517187 
z
" clip-path="url(#pe5e326d002)" style="fill: #add8e6; stroke: #add8e6; stroke-linejoin: miter"/>
   </g>
   <g id="patch_38">
    <path d="M 871.907782 359.517187 
L 871.907782 26.877187 
L 872.18308 26.877187 
L 872.18308 359.517187 
z
" clip-path="url(#pe5e326d002)" style="fill: #add8e6; stroke: #add8e6; stroke-linejoin: miter"/>
   </g>
   <g id="patch_39">
    <path d="M 901.308338 359.517187 
L 901.308338 26.877187 
L 882.919695 26.877187 
L 882.919695 359.517187 
z
" clip-path="url(#pe5e326d002)" style="fill: #add8e6; stroke: #add8e6; stroke-linejoin: miter"/>
   </g>
   <g id="patch_40">
    <path d="M 942.692691 359.517187 
L 942.692691 26.877187 
L 943.195318 26.877187 
L 943.195318 359.517187 
z
" clip-path="url(#pe5e326d002)" style="fill: #add8e6; stroke: #add8e6; stroke-linejoin: miter"/>
   </g>
   <g id="patch_41">
    <path d="M 984.271004 359.517187 
L 984.271004 26.877187 
L 983.989449 26.877187 
L 983.989449 359.517187 
z
" clip-path="url(#pe5e326d002)" style="fill: #add8e6; stroke: #add8e6; stroke-linejoin: miter"/>
   </g>
   <g id="patch_42">
    <path d="M 985.098983 359.517187 
L 985.098983 26.877187 
L 985.088555 26.877187 
L 985.088555 359.517187 
z
" clip-path="url(#pe5e326d002)" style="fill: #add8e6; stroke: #add8e6; stroke-linejoin: miter"/>
   </g>
   <g id="patch_43">
    <path d="M 996.786626 359.517187 
L 996.786626 26.877187 
L 997.272569 26.877187 
L 997.272569 359.517187 
z
" clip-path="url(#pe5e326d002)" style="fill: #add8e6; stroke: #add8e6; stroke-linejoin: miter"/>
   </g>
   <g id="patch_44">
    <path d="M 1002.722214 359.517187 
L 1002.722214 26.877187 
L 1002.526169 26.877187 
L 1002.526169 359.517187 
z
" clip-path="url(#pe5e326d002)" style="fill: #add8e6; stroke: #add8e6; stroke-linejoin: miter"/>
   </g>
   <g id="patch_45">
    <path d="M 1025.548991 359.517187 
L 1025.548991 26.877187 
L 1026.011992 26.877187 
L 1026.011992 359.517187 
z
" clip-path="url(#pe5e326d002)" style="fill: #add8e6; stroke: #add8e6; stroke-linejoin: miter"/>
   </g>
   <g id="patch_46">
    <path d="M 1060.893477 359.517187 
L 1060.893477 26.877187 
L 1061.514983 26.877187 
L 1061.514983 359.517187 
z
" clip-path="url(#pe5e326d002)" style="fill: #add8e6; stroke: #add8e6; stroke-linejoin: miter"/>
   </g>
   <g id="patch_47">
    <path d="M 1065.523486 359.517187 
L 1065.523486 26.877187 
L 1065.59231 26.877187 
L 1065.59231 359.517187 
z
" clip-path="url(#pe5e326d002)" style="fill: #add8e6; stroke: #add8e6; stroke-linejoin: miter"/>
   </g>
   <g id="patch_48">
    <path d="M 1098.448688 359.517187 
L 1098.448688 26.877187 
L 1085.835042 26.877187 
L 1085.835042 359.517187 
z
" clip-path="url(#pe5e326d002)" style="fill: #add8e6; stroke: #add8e6; stroke-linejoin: miter"/>
   </g>
   <g id="patch_49">
    <path d="M 1114.507727 359.517187 
L 1114.507727 26.877187 
L 1087.899776 26.877187 
L 1087.899776 359.517187 
z
" clip-path="url(#pe5e326d002)" style="fill: #add8e6; stroke: #add8e6; stroke-linejoin: miter"/>
   </g>
   <g id="patch_50">
    <path d="M 99.962273 359.517187 
L 99.962273 26.877187 
L 124.989347 26.877187 
L 124.989347 359.517187 
z
" clip-path="url(#pe5e326d002)" style="fill: #808080; opacity: 0.4; stroke: #808080; stroke-linejoin: miter"/>
   </g>
   <g id="patch_51">
    <path d="M 137.502884 26.877187 
L 137.502884 26.877187 
L 137.502884 359.517187 
" clip-path="url(#pe5e326d002)" style="fill: #808080; opacity: 0.4; stroke: #808080; stroke-linejoin: miter"/>
   </g>
   <g id="patch_52">
    <path d="M 150.016421 26.877187 
L 150.016421 26.877187 
L 150.016421 359.517187 
" clip-path="url(#pe5e326d002)" style="fill: #808080; opacity: 0.4; stroke: #808080; stroke-linejoin: miter"/>
   </g>
   <g id="patch_53">
    <path d="M 575.476685 359.517187 
L 575.476685 26.877187 
L 1025.964024 26.877187 
L 1025.964024 359.517187 
z
" clip-path="url(#pe5e326d002)" style="fill: #808080; opacity: 0.4; stroke: #808080; stroke-linejoin: miter"/>
   </g>
   <g id="patch_54">
    <path d="M 1038.477561 26.877187 
L 1038.477561 26.877187 
L 1038.477561 359.517187 
" clip-path="url(#pe5e326d002)" style="fill: #808080; opacity: 0.4; stroke: #808080; stroke-linejoin: miter"/>
   </g>
   <g id="patch_55">
    <path d="M 1050.991098 26.877187 
L 1050.991098 26.877187 
L 1050.991098 359.517187 
" clip-path="url(#pe5e326d002)" style="fill: #808080; opacity: 0.4; stroke: #808080; stroke-linejoin: miter"/>
   </g>
   <g id="matplotlib.axis_1">
    <g id="xtick_1">
     <g id="line2d_1">
      <defs>
       <path id="mfbf4763265" d="M 0 0 
L 0 3.5 
" style="stroke: #000000; stroke-width: 0.8"/>
      </defs>
      <g>
       <use xlink:href="#mfbf4763265" x="80.545434" y="359.517187" style="stroke: #000000; stroke-width: 0.8"/>
      </g>
     </g>
     <g id="text_1">
      <!-- 12-19 06 -->
      <g transform="translate(58.064965 374.115625) scale(0.1 -0.1)">
       <defs>
        <path id="DejaVuSans-31" d="M 794 531 
L 1825 531 
L 1825 4091 
L 703 3866 
L 703 4441 
L 1819 4666 
L 2450 4666 
L 2450 531 
L 3481 531 
L 3481 0 
L 794 0 
L 794 531 
z
" transform="scale(0.015625)"/>
        <path id="DejaVuSans-32" d="M 1228 531 
L 3431 531 
L 3431 0 
L 469 0 
L 469 531 
Q 828 903 1448 1529 
Q 2069 2156 2228 2338 
Q 2531 2678 2651 2914 
Q 2772 3150 2772 3378 
Q 2772 3750 2511 3984 
Q 2250 4219 1831 4219 
Q 1534 4219 1204 4116 
Q 875 4013 500 3803 
L 500 4441 
Q 881 4594 1212 4672 
Q 1544 4750 1819 4750 
Q 2544 4750 2975 4387 
Q 3406 4025 3406 3419 
Q 3406 3131 3298 2873 
Q 3191 2616 2906 2266 
Q 2828 2175 2409 1742 
Q 1991 1309 1228 531 
z
" transform="scale(0.015625)"/>
        <path id="DejaVuSans-2d" d="M 313 2009 
L 1997 2009 
L 1997 1497 
L 313 1497 
L 313 2009 
z
" transform="scale(0.015625)"/>
        <path id="DejaVuSans-39" d="M 703 97 
L 703 672 
Q 941 559 1184 500 
Q 1428 441 1663 441 
Q 2288 441 2617 861 
Q 2947 1281 2994 2138 
Q 2813 1869 2534 1725 
Q 2256 1581 1919 1581 
Q 1219 1581 811 2004 
Q 403 2428 403 3163 
Q 403 3881 828 4315 
Q 1253 4750 1959 4750 
Q 2769 4750 3195 4129 
Q 3622 3509 3622 2328 
Q 3622 1225 3098 567 
Q 2575 -91 1691 -91 
Q 1453 -91 1209 -44 
Q 966 3 703 97 
z
M 1959 2075 
Q 2384 2075 2632 2365 
Q 2881 2656 2881 3163 
Q 2881 3666 2632 3958 
Q 2384 4250 1959 4250 
Q 1534 4250 1286 3958 
Q 1038 3666 1038 3163 
Q 1038 2656 1286 2365 
Q 1534 2075 1959 2075 
z
" transform="scale(0.015625)"/>
        <path id="DejaVuSans-20" transform="scale(0.015625)"/>
        <path id="DejaVuSans-30" d="M 2034 4250 
Q 1547 4250 1301 3770 
Q 1056 3291 1056 2328 
Q 1056 1369 1301 889 
Q 1547 409 2034 409 
Q 2525 409 2770 889 
Q 3016 1369 3016 2328 
Q 3016 3291 2770 3770 
Q 2525 4250 2034 4250 
z
M 2034 4750 
Q 2819 4750 3233 4129 
Q 3647 3509 3647 2328 
Q 3647 1150 3233 529 
Q 2819 -91 2034 -91 
Q 1250 -91 836 529 
Q 422 1150 422 2328 
Q 422 3509 836 4129 
Q 1250 4750 2034 4750 
z
" transform="scale(0.015625)"/>
        <path id="DejaVuSans-36" d="M 2113 2584 
Q 1688 2584 1439 2293 
Q 1191 2003 1191 1497 
Q 1191 994 1439 701 
Q 1688 409 2113 409 
Q 2538 409 2786 701 
Q 3034 994 3034 1497 
Q 3034 2003 2786 2293 
Q 2538 2584 2113 2584 
z
M 3366 4563 
L 3366 3988 
Q 3128 4100 2886 4159 
Q 2644 4219 2406 4219 
Q 1781 4219 1451 3797 
Q 1122 3375 1075 2522 
Q 1259 2794 1537 2939 
Q 1816 3084 2150 3084 
Q 2853 3084 3261 2657 
Q 3669 2231 3669 1497 
Q 3669 778 3244 343 
Q 2819 -91 2113 -91 
Q 1303 -91 875 529 
Q 447 1150 447 2328 
Q 447 3434 972 4092 
Q 1497 4750 2381 4750 
Q 2619 4750 2861 4703 
Q 3103 4656 3366 4563 
z
" transform="scale(0.015625)"/>
       </defs>
       <use xlink:href="#DejaVuSans-31"/>
       <use xlink:href="#DejaVuSans-32" x="63.623047"/>
       <use xlink:href="#DejaVuSans-2d" x="127.246094"/>
       <use xlink:href="#DejaVuSans-31" x="163.330078"/>
       <use xlink:href="#DejaVuSans-39" x="226.953125"/>
       <use xlink:href="#DejaVuSans-20" x="290.576172"/>
       <use xlink:href="#DejaVuSans-30" x="322.363281"/>
       <use xlink:href="#DejaVuSans-36" x="385.986328"/>
      </g>
     </g>
    </g>
    <g id="xtick_2">
     <g id="line2d_2">
      <g>
       <use xlink:href="#mfbf4763265" x="193.167269" y="359.517187" style="stroke: #000000; stroke-width: 0.8"/>
      </g>
     </g>
     <g id="text_2">
      <!-- 12-19 09 -->
      <g transform="translate(170.6868 374.115625) scale(0.1 -0.1)">
       <use xlink:href="#DejaVuSans-31"/>
       <use xlink:href="#DejaVuSans-32" x="63.623047"/>
       <use xlink:href="#DejaVuSans-2d" x="127.246094"/>
       <use xlink:href="#DejaVuSans-31" x="163.330078"/>
       <use xlink:href="#DejaVuSans-39" x="226.953125"/>
       <use xlink:href="#DejaVuSans-20" x="290.576172"/>
       <use xlink:href="#DejaVuSans-30" x="322.363281"/>
       <use xlink:href="#DejaVuSans-39" x="385.986328"/>
      </g>
     </g>
    </g>
    <g id="xtick_3">
     <g id="line2d_3">
      <g>
       <use xlink:href="#mfbf4763265" x="305.789103" y="359.517187" style="stroke: #000000; stroke-width: 0.8"/>
      </g>
     </g>
     <g id="text_3">
      <!-- 12-19 12 -->
      <g transform="translate(283.308635 374.115625) scale(0.1 -0.1)">
       <use xlink:href="#DejaVuSans-31"/>
       <use xlink:href="#DejaVuSans-32" x="63.623047"/>
       <use xlink:href="#DejaVuSans-2d" x="127.246094"/>
       <use xlink:href="#DejaVuSans-31" x="163.330078"/>
       <use xlink:href="#DejaVuSans-39" x="226.953125"/>
       <use xlink:href="#DejaVuSans-20" x="290.576172"/>
       <use xlink:href="#DejaVuSans-31" x="322.363281"/>
       <use xlink:href="#DejaVuSans-32" x="385.986328"/>
      </g>
     </g>
    </g>
    <g id="xtick_4">
     <g id="line2d_4">
      <g>
       <use xlink:href="#mfbf4763265" x="418.410938" y="359.517187" style="stroke: #000000; stroke-width: 0.8"/>
      </g>
     </g>
     <g id="text_4">
      <!-- 12-19 15 -->
      <g transform="translate(395.930469 374.115625) scale(0.1 -0.1)">
       <defs>
        <path id="DejaVuSans-35" d="M 691 4666 
L 3169 4666 
L 3169 4134 
L 1269 4134 
L 1269 2991 
Q 1406 3038 1543 3061 
Q 1681 3084 1819 3084 
Q 2600 3084 3056 2656 
Q 3513 2228 3513 1497 
Q 3513 744 3044 326 
Q 2575 -91 1722 -91 
Q 1428 -91 1123 -41 
Q 819 9 494 109 
L 494 744 
Q 775 591 1075 516 
Q 1375 441 1709 441 
Q 2250 441 2565 725 
Q 2881 1009 2881 1497 
Q 2881 1984 2565 2268 
Q 2250 2553 1709 2553 
Q 1456 2553 1204 2497 
Q 953 2441 691 2322 
L 691 4666 
z
" transform="scale(0.015625)"/>
       </defs>
       <use xlink:href="#DejaVuSans-31"/>
       <use xlink:href="#DejaVuSans-32" x="63.623047"/>
       <use xlink:href="#DejaVuSans-2d" x="127.246094"/>
       <use xlink:href="#DejaVuSans-31" x="163.330078"/>
       <use xlink:href="#DejaVuSans-39" x="226.953125"/>
       <use xlink:href="#DejaVuSans-20" x="290.576172"/>
       <use xlink:href="#DejaVuSans-31" x="322.363281"/>
       <use xlink:href="#DejaVuSans-35" x="385.986328"/>
      </g>
     </g>
    </g>
    <g id="xtick_5">
     <g id="line2d_5">
      <g>
       <use xlink:href="#mfbf4763265" x="531.032773" y="359.517187" style="stroke: #000000; stroke-width: 0.8"/>
      </g>
     </g>
     <g id="text_5">
      <!-- 12-19 18 -->
      <g transform="translate(508.552304 374.115625) scale(0.1 -0.1)">
       <defs>
        <path id="DejaVuSans-38" d="M 2034 2216 
Q 1584 2216 1326 1975 
Q 1069 1734 1069 1313 
Q 1069 891 1326 650 
Q 1584 409 2034 409 
Q 2484 409 2743 651 
Q 3003 894 3003 1313 
Q 3003 1734 2745 1975 
Q 2488 2216 2034 2216 
z
M 1403 2484 
Q 997 2584 770 2862 
Q 544 3141 544 3541 
Q 544 4100 942 4425 
Q 1341 4750 2034 4750 
Q 2731 4750 3128 4425 
Q 3525 4100 3525 3541 
Q 3525 3141 3298 2862 
Q 3072 2584 2669 2484 
Q 3125 2378 3379 2068 
Q 3634 1759 3634 1313 
Q 3634 634 3220 271 
Q 2806 -91 2034 -91 
Q 1263 -91 848 271 
Q 434 634 434 1313 
Q 434 1759 690 2068 
Q 947 2378 1403 2484 
z
M 1172 3481 
Q 1172 3119 1398 2916 
Q 1625 2713 2034 2713 
Q 2441 2713 2670 2916 
Q 2900 3119 2900 3481 
Q 2900 3844 2670 4047 
Q 2441 4250 2034 4250 
Q 1625 4250 1398 4047 
Q 1172 3844 1172 3481 
z
" transform="scale(0.015625)"/>
       </defs>
       <use xlink:href="#DejaVuSans-31"/>
       <use xlink:href="#DejaVuSans-32" x="63.623047"/>
       <use xlink:href="#DejaVuSans-2d" x="127.246094"/>
       <use xlink:href="#DejaVuSans-31" x="163.330078"/>
       <use xlink:href="#DejaVuSans-39" x="226.953125"/>
       <use xlink:href="#DejaVuSans-20" x="290.576172"/>
       <use xlink:href="#DejaVuSans-31" x="322.363281"/>
       <use xlink:href="#DejaVuSans-38" x="385.986328"/>
      </g>
     </g>
    </g>
    <g id="xtick_6">
     <g id="line2d_6">
      <g>
       <use xlink:href="#mfbf4763265" x="643.654607" y="359.517187" style="stroke: #000000; stroke-width: 0.8"/>
      </g>
     </g>
     <g id="text_6">
      <!-- 12-19 21 -->
      <g transform="translate(621.174138 374.115625) scale(0.1 -0.1)">
       <use xlink:href="#DejaVuSans-31"/>
       <use xlink:href="#DejaVuSans-32" x="63.623047"/>
       <use xlink:href="#DejaVuSans-2d" x="127.246094"/>
       <use xlink:href="#DejaVuSans-31" x="163.330078"/>
       <use xlink:href="#DejaVuSans-39" x="226.953125"/>
       <use xlink:href="#DejaVuSans-20" x="290.576172"/>
       <use xlink:href="#DejaVuSans-32" x="322.363281"/>
       <use xlink:href="#DejaVuSans-31" x="385.986328"/>
      </g>
     </g>
    </g>
    <g id="xtick_7">
     <g id="line2d_7">
      <g>
       <use xlink:href="#mfbf4763265" x="756.276442" y="359.517187" style="stroke: #000000; stroke-width: 0.8"/>
      </g>
     </g>
     <g id="text_7">
      <!-- 12-20 00 -->
      <g transform="translate(733.795973 374.115625) scale(0.1 -0.1)">
       <use xlink:href="#DejaVuSans-31"/>
       <use xlink:href="#DejaVuSans-32" x="63.623047"/>
       <use xlink:href="#DejaVuSans-2d" x="127.246094"/>
       <use xlink:href="#DejaVuSans-32" x="163.330078"/>
       <use xlink:href="#DejaVuSans-30" x="226.953125"/>
       <use xlink:href="#DejaVuSans-20" x="290.576172"/>
       <use xlink:href="#DejaVuSans-30" x="322.363281"/>
       <use xlink:href="#DejaVuSans-30" x="385.986328"/>
      </g>
     </g>
    </g>
    <g id="xtick_8">
     <g id="line2d_8">
      <g>
       <use xlink:href="#mfbf4763265" x="868.898276" y="359.517187" style="stroke: #000000; stroke-width: 0.8"/>
      </g>
     </g>
     <g id="text_8">
      <!-- 12-20 03 -->
      <g transform="translate(846.417808 374.115625) scale(0.1 -0.1)">
       <defs>
        <path id="DejaVuSans-33" d="M 2597 2516 
Q 3050 2419 3304 2112 
Q 3559 1806 3559 1356 
Q 3559 666 3084 287 
Q 2609 -91 1734 -91 
Q 1441 -91 1130 -33 
Q 819 25 488 141 
L 488 750 
Q 750 597 1062 519 
Q 1375 441 1716 441 
Q 2309 441 2620 675 
Q 2931 909 2931 1356 
Q 2931 1769 2642 2001 
Q 2353 2234 1838 2234 
L 1294 2234 
L 1294 2753 
L 1863 2753 
Q 2328 2753 2575 2939 
Q 2822 3125 2822 3475 
Q 2822 3834 2567 4026 
Q 2313 4219 1838 4219 
Q 1578 4219 1281 4162 
Q 984 4106 628 3988 
L 628 4550 
Q 988 4650 1302 4700 
Q 1616 4750 1894 4750 
Q 2613 4750 3031 4423 
Q 3450 4097 3450 3541 
Q 3450 3153 3228 2886 
Q 3006 2619 2597 2516 
z
" transform="scale(0.015625)"/>
       </defs>
       <use xlink:href="#DejaVuSans-31"/>
       <use xlink:href="#DejaVuSans-32" x="63.623047"/>
       <use xlink:href="#DejaVuSans-2d" x="127.246094"/>
       <use xlink:href="#DejaVuSans-32" x="163.330078"/>
       <use xlink:href="#DejaVuSans-30" x="226.953125"/>
       <use xlink:href="#DejaVuSans-20" x="290.576172"/>
       <use xlink:href="#DejaVuSans-30" x="322.363281"/>
       <use xlink:href="#DejaVuSans-33" x="385.986328"/>
      </g>
     </g>
    </g>
    <g id="xtick_9">
     <g id="line2d_9">
      <g>
       <use xlink:href="#mfbf4763265" x="981.520111" y="359.517187" style="stroke: #000000; stroke-width: 0.8"/>
      </g>
     </g>
     <g id="text_9">
      <!-- 12-20 06 -->
      <g transform="translate(959.039642 374.115625) scale(0.1 -0.1)">
       <use xlink:href="#DejaVuSans-31"/>
       <use xlink:href="#DejaVuSans-32" x="63.623047"/>
       <use xlink:href="#DejaVuSans-2d" x="127.246094"/>
       <use xlink:href="#DejaVuSans-32" x="163.330078"/>
       <use xlink:href="#DejaVuSans-30" x="226.953125"/>
       <use xlink:href="#DejaVuSans-20" x="290.576172"/>
       <use xlink:href="#DejaVuSans-30" x="322.363281"/>
       <use xlink:href="#DejaVuSans-36" x="385.986328"/>
      </g>
     </g>
    </g>
    <g id="xtick_10">
     <g id="line2d_10">
      <g>
       <use xlink:href="#mfbf4763265" x="1094.141946" y="359.517187" style="stroke: #000000; stroke-width: 0.8"/>
      </g>
     </g>
     <g id="text_10">
      <!-- 12-20 09 -->
      <g transform="translate(1071.661477 374.115625) scale(0.1 -0.1)">
       <use xlink:href="#DejaVuSans-31"/>
       <use xlink:href="#DejaVuSans-32" x="63.623047"/>
       <use xlink:href="#DejaVuSans-2d" x="127.246094"/>
       <use xlink:href="#DejaVuSans-32" x="163.330078"/>
       <use xlink:href="#DejaVuSans-30" x="226.953125"/>
       <use xlink:href="#DejaVuSans-20" x="290.576172"/>
       <use xlink:href="#DejaVuSans-30" x="322.363281"/>
       <use xlink:href="#DejaVuSans-39" x="385.986328"/>
      </g>
     </g>
    </g>
    <g id="text_11">
     <!-- Time -->
     <g transform="translate(592.554688 389.313437) scale(0.12 -0.12)">
      <defs>
       <path id="DejaVuSans-54" d="M -19 4666 
L 3928 4666 
L 3928 4134 
L 2272 4134 
L 2272 0 
L 1638 0 
L 1638 4134 
L -19 4134 
L -19 4666 
z
" transform="scale(0.015625)"/>
       <path id="DejaVuSans-69" d="M 603 3500 
L 1178 3500 
L 1178 0 
L 603 0 
L 603 3500 
z
M 603 4863 
L 1178 4863 
L 1178 4134 
L 603 4134 
L 603 4863 
z
" transform="scale(0.015625)"/>
       <path id="DejaVuSans-6d" d="M 3328 2828 
Q 3544 3216 3844 3400 
Q 4144 3584 4550 3584 
Q 5097 3584 5394 3201 
Q 5691 2819 5691 2113 
L 5691 0 
L 5113 0 
L 5113 2094 
Q 5113 2597 4934 2840 
Q 4756 3084 4391 3084 
Q 3944 3084 3684 2787 
Q 3425 2491 3425 1978 
L 3425 0 
L 2847 0 
L 2847 2094 
Q 2847 2600 2669 2842 
Q 2491 3084 2119 3084 
Q 1678 3084 1418 2786 
Q 1159 2488 1159 1978 
L 1159 0 
L 581 0 
L 581 3500 
L 1159 3500 
L 1159 2956 
Q 1356 3278 1631 3431 
Q 1906 3584 2284 3584 
Q 2666 3584 2933 3390 
Q 3200 3197 3328 2828 
z
" transform="scale(0.015625)"/>
       <path id="DejaVuSans-65" d="M 3597 1894 
L 3597 1613 
L 953 1613 
Q 991 1019 1311 708 
Q 1631 397 2203 397 
Q 2534 397 2845 478 
Q 3156 559 3463 722 
L 3463 178 
Q 3153 47 2828 -22 
Q 2503 -91 2169 -91 
Q 1331 -91 842 396 
Q 353 884 353 1716 
Q 353 2575 817 3079 
Q 1281 3584 2069 3584 
Q 2775 3584 3186 3129 
Q 3597 2675 3597 1894 
z
M 3022 2063 
Q 3016 2534 2758 2815 
Q 2500 3097 2075 3097 
Q 1594 3097 1305 2825 
Q 1016 2553 972 2059 
L 3022 2063 
z
" transform="scale(0.015625)"/>
      </defs>
      <use xlink:href="#DejaVuSans-54"/>
      <use xlink:href="#DejaVuSans-69" x="57.958984"/>
      <use xlink:href="#DejaVuSans-6d" x="85.742188"/>
      <use xlink:href="#DejaVuSans-65" x="183.154297"/>
     </g>
    </g>
   </g>
   <g id="matplotlib.axis_2">
    <g id="ytick_1">
     <g id="line2d_11">
      <defs>
       <path id="mb72da63595" d="M 0 0 
L -3.5 0 
" style="stroke: #000000; stroke-width: 0.8"/>
      </defs>
      <g>
       <use xlink:href="#mb72da63595" x="49.235" y="344.397187" style="stroke: #000000; stroke-width: 0.8"/>
      </g>
     </g>
     <g id="text_12">
      <!-- 0 -->
      <g transform="translate(35.8725 348.196406) scale(0.1 -0.1)">
       <use xlink:href="#DejaVuSans-30"/>
      </g>
     </g>
    </g>
    <g id="ytick_2">
     <g id="line2d_12">
      <g>
       <use xlink:href="#mb72da63595" x="49.235" y="279.504484" style="stroke: #000000; stroke-width: 0.8"/>
      </g>
     </g>
     <g id="text_13">
      <!-- 50 -->
      <g transform="translate(29.51 283.303702) scale(0.1 -0.1)">
       <use xlink:href="#DejaVuSans-35"/>
       <use xlink:href="#DejaVuSans-30" x="63.623047"/>
      </g>
     </g>
    </g>
    <g id="ytick_3">
     <g id="line2d_13">
      <g>
       <use xlink:href="#mb72da63595" x="49.235" y="214.61178" style="stroke: #000000; stroke-width: 0.8"/>
      </g>
     </g>
     <g id="text_14">
      <!-- 100 -->
      <g transform="translate(23.1475 218.410999) scale(0.1 -0.1)">
       <use xlink:href="#DejaVuSans-31"/>
       <use xlink:href="#DejaVuSans-30" x="63.623047"/>
       <use xlink:href="#DejaVuSans-30" x="127.246094"/>
      </g>
     </g>
    </g>
    <g id="ytick_4">
     <g id="line2d_14">
      <g>
       <use xlink:href="#mb72da63595" x="49.235" y="149.719076" style="stroke: #000000; stroke-width: 0.8"/>
      </g>
     </g>
     <g id="text_15">
      <!-- 150 -->
      <g transform="translate(23.1475 153.518295) scale(0.1 -0.1)">
       <use xlink:href="#DejaVuSans-31"/>
       <use xlink:href="#DejaVuSans-35" x="63.623047"/>
       <use xlink:href="#DejaVuSans-30" x="127.246094"/>
      </g>
     </g>
    </g>
    <g id="ytick_5">
     <g id="line2d_15">
      <g>
       <use xlink:href="#mb72da63595" x="49.235" y="84.826372" style="stroke: #000000; stroke-width: 0.8"/>
      </g>
     </g>
     <g id="text_16">
      <!-- 200 -->
      <g transform="translate(23.1475 88.625591) scale(0.1 -0.1)">
       <use xlink:href="#DejaVuSans-32"/>
       <use xlink:href="#DejaVuSans-30" x="63.623047"/>
       <use xlink:href="#DejaVuSans-30" x="127.246094"/>
      </g>
     </g>
    </g>
    <g id="text_17">
     <!-- Pellet_Count -->
     <g transform="translate(16.318125 230.485312) rotate(-90) scale(0.12 -0.12)">
      <defs>
       <path id="DejaVuSans-50" d="M 1259 4147 
L 1259 2394 
L 2053 2394 
Q 2494 2394 2734 2622 
Q 2975 2850 2975 3272 
Q 2975 3691 2734 3919 
Q 2494 4147 2053 4147 
L 1259 4147 
z
M 628 4666 
L 2053 4666 
Q 2838 4666 3239 4311 
Q 3641 3956 3641 3272 
Q 3641 2581 3239 2228 
Q 2838 1875 2053 1875 
L 1259 1875 
L 1259 0 
L 628 0 
L 628 4666 
z
" transform="scale(0.015625)"/>
       <path id="DejaVuSans-6c" d="M 603 4863 
L 1178 4863 
L 1178 0 
L 603 0 
L 603 4863 
z
" transform="scale(0.015625)"/>
       <path id="DejaVuSans-74" d="M 1172 4494 
L 1172 3500 
L 2356 3500 
L 2356 3053 
L 1172 3053 
L 1172 1153 
Q 1172 725 1289 603 
Q 1406 481 1766 481 
L 2356 481 
L 2356 0 
L 1766 0 
Q 1100 0 847 248 
Q 594 497 594 1153 
L 594 3053 
L 172 3053 
L 172 3500 
L 594 3500 
L 594 4494 
L 1172 4494 
z
" transform="scale(0.015625)"/>
       <path id="DejaVuSans-5f" d="M 3263 -1063 
L 3263 -1509 
L -63 -1509 
L -63 -1063 
L 3263 -1063 
z
" transform="scale(0.015625)"/>
       <path id="DejaVuSans-43" d="M 4122 4306 
L 4122 3641 
Q 3803 3938 3442 4084 
Q 3081 4231 2675 4231 
Q 1875 4231 1450 3742 
Q 1025 3253 1025 2328 
Q 1025 1406 1450 917 
Q 1875 428 2675 428 
Q 3081 428 3442 575 
Q 3803 722 4122 1019 
L 4122 359 
Q 3791 134 3420 21 
Q 3050 -91 2638 -91 
Q 1578 -91 968 557 
Q 359 1206 359 2328 
Q 359 3453 968 4101 
Q 1578 4750 2638 4750 
Q 3056 4750 3426 4639 
Q 3797 4528 4122 4306 
z
" transform="scale(0.015625)"/>
       <path id="DejaVuSans-6f" d="M 1959 3097 
Q 1497 3097 1228 2736 
Q 959 2375 959 1747 
Q 959 1119 1226 758 
Q 1494 397 1959 397 
Q 2419 397 2687 759 
Q 2956 1122 2956 1747 
Q 2956 2369 2687 2733 
Q 2419 3097 1959 3097 
z
M 1959 3584 
Q 2709 3584 3137 3096 
Q 3566 2609 3566 1747 
Q 3566 888 3137 398 
Q 2709 -91 1959 -91 
Q 1206 -91 779 398 
Q 353 888 353 1747 
Q 353 2609 779 3096 
Q 1206 3584 1959 3584 
z
" transform="scale(0.015625)"/>
       <path id="DejaVuSans-75" d="M 544 1381 
L 544 3500 
L 1119 3500 
L 1119 1403 
Q 1119 906 1312 657 
Q 1506 409 1894 409 
Q 2359 409 2629 706 
Q 2900 1003 2900 1516 
L 2900 3500 
L 3475 3500 
L 3475 0 
L 2900 0 
L 2900 538 
Q 2691 219 2414 64 
Q 2138 -91 1772 -91 
Q 1169 -91 856 284 
Q 544 659 544 1381 
z
M 1991 3584 
L 1991 3584 
z
" transform="scale(0.015625)"/>
       <path id="DejaVuSans-6e" d="M 3513 2113 
L 3513 0 
L 2938 0 
L 2938 2094 
Q 2938 2591 2744 2837 
Q 2550 3084 2163 3084 
Q 1697 3084 1428 2787 
Q 1159 2491 1159 1978 
L 1159 0 
L 581 0 
L 581 3500 
L 1159 3500 
L 1159 2956 
Q 1366 3272 1645 3428 
Q 1925 3584 2291 3584 
Q 2894 3584 3203 3211 
Q 3513 2838 3513 2113 
z
" transform="scale(0.015625)"/>
      </defs>
      <use xlink:href="#DejaVuSans-50"/>
      <use xlink:href="#DejaVuSans-65" x="56.677734"/>
      <use xlink:href="#DejaVuSans-6c" x="118.201172"/>
      <use xlink:href="#DejaVuSans-6c" x="145.984375"/>
      <use xlink:href="#DejaVuSans-65" x="173.767578"/>
      <use xlink:href="#DejaVuSans-74" x="235.291016"/>
      <use xlink:href="#DejaVuSans-5f" x="274.5"/>
      <use xlink:href="#DejaVuSans-43" x="324.5"/>
      <use xlink:href="#DejaVuSans-6f" x="394.324219"/>
      <use xlink:href="#DejaVuSans-75" x="455.505859"/>
      <use xlink:href="#DejaVuSans-6e" x="518.884766"/>
      <use xlink:href="#DejaVuSans-74" x="582.263672"/>
     </g>
    </g>
   </g>
   <g id="line2d_16">
    <path d="M 99.962273 344.397187 
L 123.904841 344.397187 
L 124.144683 343.099333 
L 158.796753 343.099333 
L 158.796753 343.099333 
L 159.099164 341.801479 
L 168.380037 341.801479 
L 168.484317 340.503625 
L 168.849295 340.503625 
L 168.995286 339.205771 
L 172.874483 339.205771 
L 173.04133 337.907917 
L 176.972666 337.907917 
L 176.972666 337.907917 
L 177.108229 336.610063 
L 178.443007 336.610063 
L 178.536858 335.312209 
L 179.423234 335.312209 
L 179.569225 334.014355 
L 184.282657 334.014355 
L 184.407793 332.716501 
L 188.683251 332.716501 
L 188.777103 331.418647 
L 194.908736 331.418647 
L 195.179863 330.120793 
L 204.481592 330.120793 
L 204.711007 328.822939 
L 208.360789 328.822939 
L 208.50678 327.525084 
L 212.782238 327.525084 
L 212.969941 326.22723 
L 213.33492 326.22723 
L 213.345347 324.929376 
L 216.452876 324.929376 
L 216.557155 323.631522 
L 224.659671 323.631522 
L 224.76395 322.333668 
L 235.23361 322.333668 
L 235.369173 321.035814 
L 245.411287 321.035814 
L 245.463426 319.73796 
L 247.215321 319.73796 
L 247.350885 318.440106 
L 249.81188 318.440106 
L 249.884876 317.142252 
L 250.948527 317.142252 
L 251.03195 315.844398 
L 253.774501 315.844398 
L 253.868352 314.546544 
L 254.567025 314.546544 
L 254.671304 313.24869 
L 255.474256 313.24869 
L 255.536824 311.950836 
L 255.953942 311.950836 
L 256.068649 310.652981 
L 256.548335 310.652981 
L 256.631758 309.355127 
L 256.902885 309.355127 
L 256.944597 308.057273 
L 260.771653 308.057273 
L 260.823793 306.759419 
L 262.356701 306.759419 
L 262.377557 305.461565 
L 262.6174 305.461565 
L 262.659112 304.163711 
L 264.108597 304.163711 
L 264.150308 302.865857 
L 264.880265 302.865857 
L 264.942832 301.568003 
L 266.600876 301.568003 
L 266.63216 300.270149 
L 267.403828 300.270149 
L 267.435112 298.972295 
L 267.643671 298.972295 
L 267.685383 297.674441 
L 269.416422 297.674441 
L 269.437278 296.376587 
L 270.094239 296.376587 
L 270.146378 295.078733 
L 270.834623 295.078733 
L 270.865907 293.780878 
L 271.168317 293.780878 
L 271.199601 292.483024 
L 271.741854 292.483024 
L 271.793994 291.18517 
L 276.278012 291.18517 
L 276.319723 289.887316 
L 278.102902 289.887316 
L 278.144614 288.589462 
L 281.252143 288.589462 
L 281.387706 287.291608 
L 291.346396 287.291608 
L 291.37768 285.993754 
L 291.919933 285.993754 
L 291.951217 284.6959 
L 292.399619 284.6959 
L 292.44133 283.398046 
L 292.743741 283.398046 
L 292.775025 282.100192 
L 292.973156 282.100192 
L 293.077435 280.802338 
L 302.264457 280.802338 
L 302.358309 279.504484 
L 302.702431 279.504484 
L 302.754571 278.20663 
L 306.529488 278.20663 
L 306.571199 276.908775 
L 309.292894 276.908775 
L 309.345034 275.610921 
L 312.473418 275.610921 
L 312.546413 274.313067 
L 315.30982 274.313067 
L 315.382815 273.015213 
L 315.61223 273.015213 
L 315.674798 271.717359 
L 317.572684 271.717359 
L 317.614396 270.419505 
L 322.150553 270.419505 
L 322.202693 269.121651 
L 324.215287 269.121651 
L 324.288283 267.823797 
L 324.976527 267.823797 
L 324.997383 266.525943 
L 329.262414 266.525943 
L 329.293697 265.228089 
L 329.523112 265.228089 
L 329.564824 263.930235 
L 330.983025 263.930235 
L 331.014309 262.632381 
L 332.43251 262.632381 
L 335.686029 261.334527 
L 342.245208 261.334527 
L 342.28692 260.036672 
L 342.464195 260.036672 
L 342.505907 258.738818 
L 342.756178 258.738818 
L 342.79789 257.440964 
L 342.975165 257.440964 
L 343.04816 256.14311 
L 346.040981 256.14311 
L 346.896073 254.845256 
L 357.449156 254.845256 
L 361.516056 253.547402 
L 362.412859 253.547402 
L 362.433715 252.249548 
L 369.952265 252.249548 
L 370.275532 250.951694 
L 377.658519 250.951694 
L 377.689802 249.65384 
L 384.843374 249.65384 
L 384.885086 248.355986 
L 387.627637 248.355986 
L 387.65892 247.058132 
L 388.096894 247.058132 
L 388.11775 245.760278 
L 389.608947 245.760278 
L 391.287846 244.462424 
L 392.049086 244.462424 
L 392.090798 243.164569 
L 401.32996 243.164569 
L 401.32996 243.164569 
L 401.371672 241.866715 
L 407.148755 241.866715 
L 407.16961 240.568861 
L 412.654711 240.568861 
L 412.904982 239.271007 
L 420.277541 239.271007 
L 420.997069 237.973153 
L 424.615567 237.973153 
L 424.636423 236.675299 
L 425.66879 236.675299 
L 426.148475 235.377445 
L 428.786746 235.377445 
L 431.529296 234.079591 
L 440.184493 234.079591 
L 442.436929 232.781737 
L 447.619619 232.781737 
L 447.796894 231.483883 
L 451.759515 231.483883 
L 453.292423 230.186029 
L 454.543777 230.186029 
L 454.585488 228.888175 
L 455.044318 228.888175 
L 455.117314 227.590321 
L 462.010187 227.590321 
L 462.031043 226.292466 
L 462.542012 226.292466 
L 462.615008 224.994612 
L 463.230257 224.994612 
L 463.334536 223.696758 
L 465.639113 223.696758 
L 465.670397 222.398904 
L 469.372318 222.398904 
L 469.403602 221.10105 
L 469.664301 221.10105 
L 469.726868 219.803196 
L 470.070991 219.803196 
L 470.102274 218.505342 
L 476.1192 218.505342 
L 476.150484 217.207488 
L 476.692737 217.207488 
L 476.713593 215.909634 
L 478.538484 215.909634 
L 478.548912 214.61178 
L 479.914973 214.61178 
L 479.925401 213.313926 
L 480.300807 213.313926 
L 480.332091 212.016072 
L 484.930816 212.016072 
L 484.972528 210.718218 
L 485.118519 210.718218 
L 485.118519 210.718218 
L 485.181087 209.420363 
L 486.098746 209.420363 
L 486.119602 208.122509 
L 486.307305 208.122509 
L 486.307305 208.122509 
L 486.349017 206.824655 
L 492.261663 206.824655 
L 492.282519 205.526801 
L 494.420248 205.526801 
L 494.482816 204.228947 
L 496.964668 204.228947 
L 496.995951 202.931093 
L 499.102397 202.931093 
L 499.154537 201.633239 
L 502.84603 201.633239 
L 502.84603 201.633239 
L 502.887742 200.335385 
L 503.440423 200.335385 
L 503.450851 199.037531 
L 510.614851 199.037531 
L 510.625279 197.739677 
L 514.233349 197.739677 
L 514.264633 196.441823 
L 517.570292 196.441823 
L 517.612004 195.143969 
L 517.820563 195.143969 
L 517.872703 193.846115 
L 523.493366 193.846115 
L 523.555934 192.54826 
L 523.962624 192.54826 
L 524.03562 191.250406 
L 524.223323 191.250406 
L 524.244179 189.952552 
L 524.494449 189.952552 
L 524.504877 188.654698 
L 533.94217 188.654698 
L 533.99431 187.356844 
L 534.192441 187.356844 
L 534.202869 186.05899 
L 534.734694 186.05899 
L 534.80769 184.761136 
L 539.416842 184.761136 
L 539.437698 183.463282 
L 539.969524 183.463282 
L 540.011235 182.165428 
L 540.334502 182.165428 
L 540.355358 180.867574 
L 540.574345 180.867574 
L 540.595201 179.56972 
L 540.835043 179.56972 
L 540.866327 178.271866 
L 541.012318 178.271866 
L 541.043602 176.974012 
L 541.189594 176.974012 
L 541.210449 175.676157 
L 541.669279 175.676157 
L 541.690135 174.378303 
L 542.096825 174.378303 
L 542.117681 173.080449 
L 548.009471 173.080449 
L 548.207602 171.782595 
L 553.067026 171.782595 
L 553.077454 170.484741 
L 553.40072 170.484741 
L 553.411148 169.186887 
L 553.671847 169.186887 
L 553.838694 167.889033 
L 558.718974 167.889033 
L 558.771113 166.591179 
L 560.481297 166.591179 
L 560.502153 165.293325 
L 566.268808 165.293325 
L 566.373087 163.995471 
L 567.259463 163.995471 
L 567.301174 162.697617 
L 569.313768 162.697617 
L 569.35548 161.399763 
L 569.584895 161.399763 
L 569.991585 160.101909 
L 575.017856 160.101909 
L 579.627009 158.804054 
L 580.346537 158.804054 
L 580.398677 157.5062 
L 587.792092 157.5062 
L 587.823375 156.208346 
L 588.063218 156.208346 
L 588.084074 154.910492 
L 588.303061 154.910492 
L 588.323917 153.612638 
L 590.941332 153.612638 
L 591.170747 152.314784 
L 591.921559 152.314784 
L 594.497262 151.01693 
L 603.621716 151.01693 
L 603.663428 149.719076 
L 603.882415 149.719076 
L 603.903271 148.421222 
L 604.05969 148.421222 
L 604.070118 147.123368 
L 604.309961 147.123368 
L 604.3621 145.825514 
L 613.872389 145.825514 
L 613.924528 144.52766 
L 614.258223 144.52766 
L 614.310362 143.229806 
L 623.737227 143.229806 
L 623.758083 141.931951 
L 623.966642 141.931951 
L 623.966642 141.931951 
L 624.008354 140.634097 
L 624.196057 140.634097 
L 624.27948 139.336243 
L 628.565367 139.336243 
L 632.110869 138.038389 
L 633.779341 138.038389 
L 633.789769 136.740535 
L 656.971096 136.740535 
L 656.981524 135.442681 
L 657.179655 135.442681 
L 657.242223 134.144827 
L 663.092302 134.144827 
L 663.248721 132.846973 
L 724.898747 132.846973 
L 724.930031 131.549119 
L 725.096878 131.549119 
L 725.096878 131.549119 
L 725.295009 130.251265 
L 726.900913 130.251265 
L 726.900913 130.251265 
L 726.963481 128.953411 
L 733.783359 128.953411 
L 733.783359 128.953411 
L 733.835498 127.655557 
L 734.242188 127.655557 
L 734.263044 126.357703 
L 734.429891 126.357703 
L 734.471603 125.059848 
L 734.628022 125.059848 
L 734.680162 123.761994 
L 734.867865 123.761994 
L 734.909577 122.46414 
L 735.222415 122.46414 
L 735.264127 121.166286 
L 746.922573 121.166286 
L 746.953857 119.868432 
L 747.151988 119.868432 
L 747.204127 118.570578 
L 748.632756 118.570578 
L 748.66404 117.272724 
L 755.869752 117.272724 
L 759.102416 115.97487 
L 768.623132 115.97487 
L 768.675271 114.677016 
L 768.98811 114.677016 
L 769.008966 113.379162 
L 819.574084 113.379162 
L 819.615796 112.081308 
L 820.773298 112.081308 
L 820.81501 110.783454 
L 821.086136 110.783454 
L 821.127848 109.4856 
L 821.367691 109.4856 
L 821.388547 108.187745 
L 821.62839 108.187745 
L 821.649246 106.889891 
L 822.827604 106.889891 
L 822.838032 105.592037 
L 823.234294 105.592037 
L 823.276005 104.294183 
L 862.047115 104.294183 
L 862.109682 102.996329 
L 862.453805 102.996329 
L 862.505944 101.698475 
L 862.797927 101.698475 
L 862.860495 100.400621 
L 863.277613 100.400621 
L 863.298468 99.102767 
L 864.122276 99.102767 
L 864.163988 97.804913 
L 866.875254 97.804913 
L 866.875254 97.804913 
L 866.916966 96.507059 
L 867.177665 96.507059 
L 867.250661 95.209205 
L 870.744023 95.209205 
L 870.754451 93.911351 
L 871.161141 93.911351 
L 871.181997 92.613497 
L 871.453124 92.613497 
L 871.453124 92.613497 
L 871.494835 91.315642 
L 871.72425 91.315642 
L 871.745106 90.017788 
L 871.984949 90.017788 
L 873.184163 88.719934 
L 880.619289 88.719934 
L 880.661001 87.42208 
L 940.069019 87.42208 
L 940.121159 86.124226 
L 940.350574 86.124226 
L 940.37143 84.826372 
L 940.767692 84.826372 
L 940.778119 83.528518 
L 941.268233 83.528518 
L 941.341229 82.230664 
L 941.508076 82.230664 
L 941.549788 80.93281 
L 982.750609 80.93281 
L 982.781893 79.634956 
L 983.167727 79.634956 
L 983.188583 78.337102 
L 983.449281 78.337102 
L 983.490993 77.039248 
L 983.772548 77.039248 
L 983.835115 75.741394 
L 984.106242 75.741394 
L 984.137526 74.443539 
L 984.888338 74.443539 
L 984.992617 73.145685 
L 985.38888 73.145685 
L 985.399307 71.847831 
L 996.077526 71.847831 
L 996.098382 70.549977 
L 996.505072 70.549977 
L 996.546783 69.252123 
L 1001.166364 69.252123 
L 1001.270644 67.954269 
L 1001.479203 67.954269 
L 1001.531342 66.656415 
L 1025.11936 66.656415 
L 1025.129788 65.358561 
L 1025.588618 65.358561 
L 1025.630329 64.060707 
L 1026.026591 64.060707 
L 1026.037019 62.762853 
L 1059.938277 62.762853 
L 1059.979989 61.464999 
L 1060.303255 61.464999 
L 1060.313683 60.167145 
L 1060.595238 60.167145 
L 1060.63695 58.869291 
L 1061.033212 58.869291 
L 1061.095779 57.571436 
L 1063.963465 57.571436 
L 1063.994749 56.273582 
L 1064.557858 56.273582 
L 1064.609998 54.975728 
L 1064.808129 54.975728 
L 1064.828985 53.677874 
L 1068.353631 53.677874 
L 1070.324513 52.38002 
L 1070.689491 52.38002 
L 1070.699919 51.082166 
L 1077.843063 51.082166 
L 1077.853491 49.784312 
L 1078.990138 49.784312 
L 1079.115273 48.486458 
L 1081.086155 48.486458 
L 1081.086155 48.486458 
L 1086.665107 47.188604 
L 1086.675535 45.89075 
L 1086.884094 45.89075 
L 1086.90495 44.592896 
L 1096.446522 44.592896 
L 1098.917946 43.295042 
L 1104.538609 43.295042 
L 1107.041317 41.997187 
L 1107.041317 41.997187 
" clip-path="url(#pe5e326d002)" style="fill: none; stroke: #0000ff; stroke-width: 1.5; stroke-linecap: square"/>
   </g>
   <g id="patch_56">
    <path d="M 49.235 359.517187 
L 49.235 26.877187 
" style="fill: none; stroke: #000000; stroke-width: 0.8; stroke-linejoin: miter; stroke-linecap: square"/>
   </g>
   <g id="patch_57">
    <path d="M 1165.235 359.517187 
L 1165.235 26.877187 
" style="fill: none; stroke: #000000; stroke-width: 0.8; stroke-linejoin: miter; stroke-linecap: square"/>
   </g>
   <g id="patch_58">
    <path d="M 49.235 359.517187 
L 1165.235 359.517187 
" style="fill: none; stroke: #000000; stroke-width: 0.8; stroke-linejoin: miter; stroke-linecap: square"/>
   </g>
   <g id="patch_59">
    <path d="M 49.235 26.877187 
L 1165.235 26.877187 
" style="fill: none; stroke: #000000; stroke-width: 0.8; stroke-linejoin: miter; stroke-linecap: square"/>
   </g>
   <g id="text_18">
    <!-- Pellet Count and Cumulative Sum Over Time of Group 2 Mouse 1 -->
    <g transform="translate(315.460625 20.877187) scale(0.18 -0.18)">
     <defs>
      <path id="DejaVuSans-61" d="M 2194 1759 
Q 1497 1759 1228 1600 
Q 959 1441 959 1056 
Q 959 750 1161 570 
Q 1363 391 1709 391 
Q 2188 391 2477 730 
Q 2766 1069 2766 1631 
L 2766 1759 
L 2194 1759 
z
M 3341 1997 
L 3341 0 
L 2766 0 
L 2766 531 
Q 2569 213 2275 61 
Q 1981 -91 1556 -91 
Q 1019 -91 701 211 
Q 384 513 384 1019 
Q 384 1609 779 1909 
Q 1175 2209 1959 2209 
L 2766 2209 
L 2766 2266 
Q 2766 2663 2505 2880 
Q 2244 3097 1772 3097 
Q 1472 3097 1187 3025 
Q 903 2953 641 2809 
L 641 3341 
Q 956 3463 1253 3523 
Q 1550 3584 1831 3584 
Q 2591 3584 2966 3190 
Q 3341 2797 3341 1997 
z
" transform="scale(0.015625)"/>
      <path id="DejaVuSans-64" d="M 2906 2969 
L 2906 4863 
L 3481 4863 
L 3481 0 
L 2906 0 
L 2906 525 
Q 2725 213 2448 61 
Q 2172 -91 1784 -91 
Q 1150 -91 751 415 
Q 353 922 353 1747 
Q 353 2572 751 3078 
Q 1150 3584 1784 3584 
Q 2172 3584 2448 3432 
Q 2725 3281 2906 2969 
z
M 947 1747 
Q 947 1113 1208 752 
Q 1469 391 1925 391 
Q 2381 391 2643 752 
Q 2906 1113 2906 1747 
Q 2906 2381 2643 2742 
Q 2381 3103 1925 3103 
Q 1469 3103 1208 2742 
Q 947 2381 947 1747 
z
" transform="scale(0.015625)"/>
      <path id="DejaVuSans-76" d="M 191 3500 
L 800 3500 
L 1894 563 
L 2988 3500 
L 3597 3500 
L 2284 0 
L 1503 0 
L 191 3500 
z
" transform="scale(0.015625)"/>
      <path id="DejaVuSans-53" d="M 3425 4513 
L 3425 3897 
Q 3066 4069 2747 4153 
Q 2428 4238 2131 4238 
Q 1616 4238 1336 4038 
Q 1056 3838 1056 3469 
Q 1056 3159 1242 3001 
Q 1428 2844 1947 2747 
L 2328 2669 
Q 3034 2534 3370 2195 
Q 3706 1856 3706 1288 
Q 3706 609 3251 259 
Q 2797 -91 1919 -91 
Q 1588 -91 1214 -16 
Q 841 59 441 206 
L 441 856 
Q 825 641 1194 531 
Q 1563 422 1919 422 
Q 2459 422 2753 634 
Q 3047 847 3047 1241 
Q 3047 1584 2836 1778 
Q 2625 1972 2144 2069 
L 1759 2144 
Q 1053 2284 737 2584 
Q 422 2884 422 3419 
Q 422 4038 858 4394 
Q 1294 4750 2059 4750 
Q 2388 4750 2728 4690 
Q 3069 4631 3425 4513 
z
" transform="scale(0.015625)"/>
      <path id="DejaVuSans-4f" d="M 2522 4238 
Q 1834 4238 1429 3725 
Q 1025 3213 1025 2328 
Q 1025 1447 1429 934 
Q 1834 422 2522 422 
Q 3209 422 3611 934 
Q 4013 1447 4013 2328 
Q 4013 3213 3611 3725 
Q 3209 4238 2522 4238 
z
M 2522 4750 
Q 3503 4750 4090 4092 
Q 4678 3434 4678 2328 
Q 4678 1225 4090 567 
Q 3503 -91 2522 -91 
Q 1538 -91 948 565 
Q 359 1222 359 2328 
Q 359 3434 948 4092 
Q 1538 4750 2522 4750 
z
" transform="scale(0.015625)"/>
      <path id="DejaVuSans-72" d="M 2631 2963 
Q 2534 3019 2420 3045 
Q 2306 3072 2169 3072 
Q 1681 3072 1420 2755 
Q 1159 2438 1159 1844 
L 1159 0 
L 581 0 
L 581 3500 
L 1159 3500 
L 1159 2956 
Q 1341 3275 1631 3429 
Q 1922 3584 2338 3584 
Q 2397 3584 2469 3576 
Q 2541 3569 2628 3553 
L 2631 2963 
z
" transform="scale(0.015625)"/>
      <path id="DejaVuSans-66" d="M 2375 4863 
L 2375 4384 
L 1825 4384 
Q 1516 4384 1395 4259 
Q 1275 4134 1275 3809 
L 1275 3500 
L 2222 3500 
L 2222 3053 
L 1275 3053 
L 1275 0 
L 697 0 
L 697 3053 
L 147 3053 
L 147 3500 
L 697 3500 
L 697 3744 
Q 697 4328 969 4595 
Q 1241 4863 1831 4863 
L 2375 4863 
z
" transform="scale(0.015625)"/>
      <path id="DejaVuSans-47" d="M 3809 666 
L 3809 1919 
L 2778 1919 
L 2778 2438 
L 4434 2438 
L 4434 434 
Q 4069 175 3628 42 
Q 3188 -91 2688 -91 
Q 1594 -91 976 548 
Q 359 1188 359 2328 
Q 359 3472 976 4111 
Q 1594 4750 2688 4750 
Q 3144 4750 3555 4637 
Q 3966 4525 4313 4306 
L 4313 3634 
Q 3963 3931 3569 4081 
Q 3175 4231 2741 4231 
Q 1884 4231 1454 3753 
Q 1025 3275 1025 2328 
Q 1025 1384 1454 906 
Q 1884 428 2741 428 
Q 3075 428 3337 486 
Q 3600 544 3809 666 
z
" transform="scale(0.015625)"/>
      <path id="DejaVuSans-70" d="M 1159 525 
L 1159 -1331 
L 581 -1331 
L 581 3500 
L 1159 3500 
L 1159 2969 
Q 1341 3281 1617 3432 
Q 1894 3584 2278 3584 
Q 2916 3584 3314 3078 
Q 3713 2572 3713 1747 
Q 3713 922 3314 415 
Q 2916 -91 2278 -91 
Q 1894 -91 1617 61 
Q 1341 213 1159 525 
z
M 3116 1747 
Q 3116 2381 2855 2742 
Q 2594 3103 2138 3103 
Q 1681 3103 1420 2742 
Q 1159 2381 1159 1747 
Q 1159 1113 1420 752 
Q 1681 391 2138 391 
Q 2594 391 2855 752 
Q 3116 1113 3116 1747 
z
" transform="scale(0.015625)"/>
      <path id="DejaVuSans-4d" d="M 628 4666 
L 1569 4666 
L 2759 1491 
L 3956 4666 
L 4897 4666 
L 4897 0 
L 4281 0 
L 4281 4097 
L 3078 897 
L 2444 897 
L 1241 4097 
L 1241 0 
L 628 0 
L 628 4666 
z
" transform="scale(0.015625)"/>
      <path id="DejaVuSans-73" d="M 2834 3397 
L 2834 2853 
Q 2591 2978 2328 3040 
Q 2066 3103 1784 3103 
Q 1356 3103 1142 2972 
Q 928 2841 928 2578 
Q 928 2378 1081 2264 
Q 1234 2150 1697 2047 
L 1894 2003 
Q 2506 1872 2764 1633 
Q 3022 1394 3022 966 
Q 3022 478 2636 193 
Q 2250 -91 1575 -91 
Q 1294 -91 989 -36 
Q 684 19 347 128 
L 347 722 
Q 666 556 975 473 
Q 1284 391 1588 391 
Q 1994 391 2212 530 
Q 2431 669 2431 922 
Q 2431 1156 2273 1281 
Q 2116 1406 1581 1522 
L 1381 1569 
Q 847 1681 609 1914 
Q 372 2147 372 2553 
Q 372 3047 722 3315 
Q 1072 3584 1716 3584 
Q 2034 3584 2315 3537 
Q 2597 3491 2834 3397 
z
" transform="scale(0.015625)"/>
     </defs>
     <use xlink:href="#DejaVuSans-50"/>
     <use xlink:href="#DejaVuSans-65" x="56.677734"/>
     <use xlink:href="#DejaVuSans-6c" x="118.201172"/>
     <use xlink:href="#DejaVuSans-6c" x="145.984375"/>
     <use xlink:href="#DejaVuSans-65" x="173.767578"/>
     <use xlink:href="#DejaVuSans-74" x="235.291016"/>
     <use xlink:href="#DejaVuSans-20" x="274.5"/>
     <use xlink:href="#DejaVuSans-43" x="306.287109"/>
     <use xlink:href="#DejaVuSans-6f" x="376.111328"/>
     <use xlink:href="#DejaVuSans-75" x="437.292969"/>
     <use xlink:href="#DejaVuSans-6e" x="500.671875"/>
     <use xlink:href="#DejaVuSans-74" x="564.050781"/>
     <use xlink:href="#DejaVuSans-20" x="603.259766"/>
     <use xlink:href="#DejaVuSans-61" x="635.046875"/>
     <use xlink:href="#DejaVuSans-6e" x="696.326172"/>
     <use xlink:href="#DejaVuSans-64" x="759.705078"/>
     <use xlink:href="#DejaVuSans-20" x="823.181641"/>
     <use xlink:href="#DejaVuSans-43" x="854.96875"/>
     <use xlink:href="#DejaVuSans-75" x="924.792969"/>
     <use xlink:href="#DejaVuSans-6d" x="988.171875"/>
     <use xlink:href="#DejaVuSans-75" x="1085.583984"/>
     <use xlink:href="#DejaVuSans-6c" x="1148.962891"/>
     <use xlink:href="#DejaVuSans-61" x="1176.746094"/>
     <use xlink:href="#DejaVuSans-74" x="1238.025391"/>
     <use xlink:href="#DejaVuSans-69" x="1277.234375"/>
     <use xlink:href="#DejaVuSans-76" x="1305.017578"/>
     <use xlink:href="#DejaVuSans-65" x="1364.197266"/>
     <use xlink:href="#DejaVuSans-20" x="1425.720703"/>
     <use xlink:href="#DejaVuSans-53" x="1457.507812"/>
     <use xlink:href="#DejaVuSans-75" x="1520.984375"/>
     <use xlink:href="#DejaVuSans-6d" x="1584.363281"/>
     <use xlink:href="#DejaVuSans-20" x="1681.775391"/>
     <use xlink:href="#DejaVuSans-4f" x="1713.5625"/>
     <use xlink:href="#DejaVuSans-76" x="1792.273438"/>
     <use xlink:href="#DejaVuSans-65" x="1851.453125"/>
     <use xlink:href="#DejaVuSans-72" x="1912.976562"/>
     <use xlink:href="#DejaVuSans-20" x="1954.089844"/>
     <use xlink:href="#DejaVuSans-54" x="1985.876953"/>
     <use xlink:href="#DejaVuSans-69" x="2043.835938"/>
     <use xlink:href="#DejaVuSans-6d" x="2071.619141"/>
     <use xlink:href="#DejaVuSans-65" x="2169.03125"/>
     <use xlink:href="#DejaVuSans-20" x="2230.554688"/>
     <use xlink:href="#DejaVuSans-6f" x="2262.341797"/>
     <use xlink:href="#DejaVuSans-66" x="2323.523438"/>
     <use xlink:href="#DejaVuSans-20" x="2358.728516"/>
     <use xlink:href="#DejaVuSans-47" x="2390.515625"/>
     <use xlink:href="#DejaVuSans-72" x="2468.005859"/>
     <use xlink:href="#DejaVuSans-6f" x="2506.869141"/>
     <use xlink:href="#DejaVuSans-75" x="2568.050781"/>
     <use xlink:href="#DejaVuSans-70" x="2631.429688"/>
     <use xlink:href="#DejaVuSans-20" x="2694.90625"/>
     <use xlink:href="#DejaVuSans-32" x="2726.693359"/>
     <use xlink:href="#DejaVuSans-20" x="2790.316406"/>
     <use xlink:href="#DejaVuSans-4d" x="2822.103516"/>
     <use xlink:href="#DejaVuSans-6f" x="2908.382812"/>
     <use xlink:href="#DejaVuSans-75" x="2969.564453"/>
     <use xlink:href="#DejaVuSans-73" x="3032.943359"/>
     <use xlink:href="#DejaVuSans-65" x="3085.042969"/>
     <use xlink:href="#DejaVuSans-20" x="3146.566406"/>
     <use xlink:href="#DejaVuSans-31" x="3178.353516"/>
    </g>
   </g>
   <g id="legend_1">
    <g id="patch_60">
     <path d="M 1086.550625 64.233437 
L 1158.235 64.233437 
Q 1160.235 64.233437 1160.235 62.233437 
L 1160.235 33.877187 
Q 1160.235 31.877187 1158.235 31.877187 
L 1086.550625 31.877187 
Q 1084.550625 31.877187 1084.550625 33.877187 
L 1084.550625 62.233437 
Q 1084.550625 64.233437 1086.550625 64.233437 
z
" style="fill: #ffffff; opacity: 0.8; stroke: #cccccc; stroke-linejoin: miter"/>
    </g>
    <g id="patch_61">
     <path d="M 1088.550625 43.475625 
L 1108.550625 43.475625 
L 1108.550625 36.475625 
L 1088.550625 36.475625 
z
" style="fill: #add8e6; opacity: 0.9; stroke: #add8e6; stroke-linejoin: miter"/>
    </g>
    <g id="text_19">
     <!-- Meal -->
     <g transform="translate(1116.550625 43.475625) scale(0.1 -0.1)">
      <use xlink:href="#DejaVuSans-4d"/>
      <use xlink:href="#DejaVuSans-65" x="86.279297"/>
      <use xlink:href="#DejaVuSans-61" x="147.802734"/>
      <use xlink:href="#DejaVuSans-6c" x="209.082031"/>
     </g>
    </g>
    <g id="patch_62">
     <path d="M 1088.550625 58.15375 
L 1108.550625 58.15375 
L 1108.550625 51.15375 
L 1088.550625 51.15375 
z
" style="fill: #808080; opacity: 0.5; stroke: #808080; stroke-linejoin: miter"/>
    </g>
    <g id="text_20">
     <!-- Inactive -->
     <g transform="translate(1116.550625 58.15375) scale(0.1 -0.1)">
      <defs>
       <path id="DejaVuSans-49" d="M 628 4666 
L 1259 4666 
L 1259 0 
L 628 0 
L 628 4666 
z
" transform="scale(0.015625)"/>
       <path id="DejaVuSans-63" d="M 3122 3366 
L 3122 2828 
Q 2878 2963 2633 3030 
Q 2388 3097 2138 3097 
Q 1578 3097 1268 2742 
Q 959 2388 959 1747 
Q 959 1106 1268 751 
Q 1578 397 2138 397 
Q 2388 397 2633 464 
Q 2878 531 3122 666 
L 3122 134 
Q 2881 22 2623 -34 
Q 2366 -91 2075 -91 
Q 1284 -91 818 406 
Q 353 903 353 1747 
Q 353 2603 823 3093 
Q 1294 3584 2113 3584 
Q 2378 3584 2631 3529 
Q 2884 3475 3122 3366 
z
" transform="scale(0.015625)"/>
      </defs>
      <use xlink:href="#DejaVuSans-49"/>
      <use xlink:href="#DejaVuSans-6e" x="29.492188"/>
      <use xlink:href="#DejaVuSans-61" x="92.871094"/>
      <use xlink:href="#DejaVuSans-63" x="154.150391"/>
      <use xlink:href="#DejaVuSans-74" x="209.130859"/>
      <use xlink:href="#DejaVuSans-69" x="248.339844"/>
      <use xlink:href="#DejaVuSans-76" x="276.123047"/>
      <use xlink:href="#DejaVuSans-65" x="335.302734"/>
     </g>
    </g>
   </g>
  </g>
 </g>
 <defs>
  <clipPath id="pe5e326d002">
   <rect x="49.235" y="26.877187" width="1116" height="332.64"/>
  </clipPath>
 </defs>
</svg>
