<?xml version="1.0" encoding="utf-8" standalone="no"?>
<!DOCTYPE svg PUBLIC "-//W3C//DTD SVG 1.1//EN"
  "http://www.w3.org/Graphics/SVG/1.1/DTD/svg11.dtd">
<svg xmlns:xlink="http://www.w3.org/1999/xlink" width="1172.435pt" height="399.009062pt" viewBox="0 0 1172.435 399.009062" xmlns="http://www.w3.org/2000/svg" version="1.1">
 <metadata>
  <rdf:RDF xmlns:dc="http://purl.org/dc/elements/1.1/" xmlns:cc="http://creativecommons.org/ns#" xmlns:rdf="http://www.w3.org/1999/02/22-rdf-syntax-ns#">
   <cc:Work>
    <dc:type rdf:resource="http://purl.org/dc/dcmitype/StillImage"/>
    <dc:date>2025-04-02T11:17:35.363581</dc:date>
    <dc:format>image/svg+xml</dc:format>
    <dc:creator>
     <cc:Agent>
      <dc:title>Matplotlib v3.8.3, https://matplotlib.org/</dc:title>
     </cc:Agent>
    </dc:creator>
   </cc:Work>
  </rdf:RDF>
 </metadata>
 <defs>
  <style type="text/css">*{stroke-linejoin: round; stroke-linecap: butt}</style>
 </defs>
 <g id="figure_1">
  <g id="patch_1">
   <path d="M 0 399.009062 
L 1172.435 399.009062 
L 1172.435 0 
L 0 0 
z
" style="fill: #ffffff"/>
  </g>
  <g id="axes_1">
   <g id="patch_2">
    <path d="M 49.235 359.517187 
L 1165.235 359.517187 
L 1165.235 26.877187 
L 49.235 26.877187 
z
" style="fill: #ffffff"/>
   </g>
   <g id="patch_3">
    <path d="M 148.875975 359.517187 
L 148.875975 26.877187 
L 148.875975 26.877187 
z
" clip-path="url(#p1818e867f4)" style="fill: #add8e6; stroke: #add8e6; stroke-linejoin: miter"/>
   </g>
   <g id="patch_4">
    <path d="M 160.240963 359.517187 
L 160.240963 26.877187 
L 150.718511 26.877187 
L 150.718511 359.517187 
z
" clip-path="url(#p1818e867f4)" style="fill: #add8e6; stroke: #add8e6; stroke-linejoin: miter"/>
   </g>
   <g id="patch_5">
    <path d="M 167.391854 359.517187 
L 167.391854 26.877187 
L 161.671141 26.877187 
L 161.671141 359.517187 
z
" clip-path="url(#p1818e867f4)" style="fill: #add8e6; stroke: #add8e6; stroke-linejoin: miter"/>
   </g>
   <g id="patch_6">
    <path d="M 191.268387 359.517187 
L 191.268387 26.877187 
L 165.253627 26.877187 
L 165.253627 359.517187 
z
" clip-path="url(#p1818e867f4)" style="fill: #add8e6; stroke: #add8e6; stroke-linejoin: miter"/>
   </g>
   <g id="patch_7">
    <path d="M 205.731088 359.517187 
L 205.731088 26.877187 
L 177.489596 26.877187 
L 177.489596 359.517187 
z
" clip-path="url(#p1818e867f4)" style="fill: #add8e6; stroke: #add8e6; stroke-linejoin: miter"/>
   </g>
   <g id="patch_8">
    <path d="M 216.009865 359.517187 
L 216.009865 26.877187 
L 214.895493 26.877187 
L 214.895493 359.517187 
z
" clip-path="url(#p1818e867f4)" style="fill: #add8e6; stroke: #add8e6; stroke-linejoin: miter"/>
   </g>
   <g id="patch_9">
    <path d="M 242.441006 359.517187 
L 242.441006 26.877187 
L 210.013577 26.877187 
L 210.013577 359.517187 
z
" clip-path="url(#p1818e867f4)" style="fill: #add8e6; stroke: #add8e6; stroke-linejoin: miter"/>
   </g>
   <g id="patch_10">
    <path d="M 249.682414 359.517187 
L 249.682414 26.877187 
L 229.690093 26.877187 
L 229.690093 359.517187 
z
" clip-path="url(#p1818e867f4)" style="fill: #add8e6; stroke: #add8e6; stroke-linejoin: miter"/>
   </g>
   <g id="patch_11">
    <path d="M 269.143699 359.517187 
L 269.143699 26.877187 
L 254.928412 26.877187 
L 254.928412 359.517187 
z
" clip-path="url(#p1818e867f4)" style="fill: #add8e6; stroke: #add8e6; stroke-linejoin: miter"/>
   </g>
   <g id="patch_12">
    <path d="M 299.074854 359.517187 
L 299.074854 26.877187 
L 280.476504 26.877187 
L 280.476504 359.517187 
z
" clip-path="url(#p1818e867f4)" style="fill: #add8e6; stroke: #add8e6; stroke-linejoin: miter"/>
   </g>
   <g id="patch_13">
    <path d="M 324.248806 359.517187 
L 324.248806 26.877187 
L 311.904216 26.877187 
L 311.904216 359.517187 
z
" clip-path="url(#p1818e867f4)" style="fill: #add8e6; stroke: #add8e6; stroke-linejoin: miter"/>
   </g>
   <g id="patch_14">
    <path d="M 347.326772 359.517187 
L 347.326772 26.877187 
L 319.051084 26.877187 
L 319.051084 359.517187 
z
" clip-path="url(#p1818e867f4)" style="fill: #add8e6; stroke: #add8e6; stroke-linejoin: miter"/>
   </g>
   <g id="patch_15">
    <path d="M 363.010456 359.517187 
L 363.010456 26.877187 
L 356.113014 26.877187 
L 356.113014 359.517187 
z
" clip-path="url(#p1818e867f4)" style="fill: #add8e6; stroke: #add8e6; stroke-linejoin: miter"/>
   </g>
   <g id="patch_16">
    <path d="M 382.632661 359.517187 
L 382.632661 26.877187 
L 368.047258 26.877187 
L 368.047258 359.517187 
z
" clip-path="url(#p1818e867f4)" style="fill: #add8e6; stroke: #add8e6; stroke-linejoin: miter"/>
   </g>
   <g id="patch_17">
    <path d="M 409.073859 359.517187 
L 409.073859 26.877187 
L 379.396154 26.877187 
L 379.396154 359.517187 
z
" clip-path="url(#p1818e867f4)" style="fill: #add8e6; stroke: #add8e6; stroke-linejoin: miter"/>
   </g>
   <g id="patch_18">
    <path d="M 415.540839 359.517187 
L 415.540839 26.877187 
L 393.347934 26.877187 
L 393.347934 359.517187 
z
" clip-path="url(#p1818e867f4)" style="fill: #add8e6; stroke: #add8e6; stroke-linejoin: miter"/>
   </g>
   <g id="patch_19">
    <path d="M 430.043771 359.517187 
L 430.043771 26.877187 
L 396.727258 26.877187 
L 396.727258 359.517187 
z
" clip-path="url(#p1818e867f4)" style="fill: #add8e6; stroke: #add8e6; stroke-linejoin: miter"/>
   </g>
   <g id="patch_20">
    <path d="M 437.204719 359.517187 
L 437.204719 26.877187 
L 408.408052 26.877187 
L 408.408052 359.517187 
z
" clip-path="url(#p1818e867f4)" style="fill: #add8e6; stroke: #add8e6; stroke-linejoin: miter"/>
   </g>
   <g id="patch_21">
    <path d="M 446.025157 359.517187 
L 446.025157 26.877187 
L 416.81412 26.877187 
L 416.81412 359.517187 
z
" clip-path="url(#p1818e867f4)" style="fill: #add8e6; stroke: #add8e6; stroke-linejoin: miter"/>
   </g>
   <g id="patch_22">
    <path d="M 452.944725 359.517187 
L 452.944725 26.877187 
L 425.417316 26.877187 
L 425.417316 359.517187 
z
" clip-path="url(#p1818e867f4)" style="fill: #add8e6; stroke: #add8e6; stroke-linejoin: miter"/>
   </g>
   <g id="patch_23">
    <path d="M 464.460576 359.517187 
L 464.460576 26.877187 
L 464.082413 26.877187 
L 464.082413 359.517187 
z
" clip-path="url(#p1818e867f4)" style="fill: #add8e6; stroke: #add8e6; stroke-linejoin: miter"/>
   </g>
   <g id="patch_24">
    <path d="M 465.846501 359.517187 
L 465.846501 26.877187 
L 465.745926 26.877187 
L 465.745926 359.517187 
z
" clip-path="url(#p1818e867f4)" style="fill: #add8e6; stroke: #add8e6; stroke-linejoin: miter"/>
   </g>
   <g id="patch_25">
    <path d="M 473.252853 359.517187 
L 473.252853 26.877187 
L 472.627275 26.877187 
L 472.627275 359.517187 
z
" clip-path="url(#p1818e867f4)" style="fill: #add8e6; stroke: #add8e6; stroke-linejoin: miter"/>
   </g>
   <g id="patch_26">
    <path d="M 504.040907 359.517187 
L 504.040907 26.877187 
L 482.364958 26.877187 
L 482.364958 359.517187 
z
" clip-path="url(#p1818e867f4)" style="fill: #add8e6; stroke: #add8e6; stroke-linejoin: miter"/>
   </g>
   <g id="patch_27">
    <path d="M 523.719435 359.517187 
L 523.719435 26.877187 
L 507.130575 26.877187 
L 507.130575 359.517187 
z
" clip-path="url(#p1818e867f4)" style="fill: #add8e6; stroke: #add8e6; stroke-linejoin: miter"/>
   </g>
   <g id="patch_28">
    <path d="M 537.246788 359.517187 
L 537.246788 26.877187 
L 521.017987 26.877187 
L 521.017987 359.517187 
z
" clip-path="url(#p1818e867f4)" style="fill: #add8e6; stroke: #add8e6; stroke-linejoin: miter"/>
   </g>
   <g id="patch_29">
    <path d="M 548.159188 359.517187 
L 548.159188 26.877187 
L 539.193922 26.877187 
L 539.193922 359.517187 
z
" clip-path="url(#p1818e867f4)" style="fill: #add8e6; stroke: #add8e6; stroke-linejoin: miter"/>
   </g>
   <g id="patch_30">
    <path d="M 588.318832 359.517187 
L 588.318832 26.877187 
L 568.378809 26.877187 
L 568.378809 359.517187 
z
" clip-path="url(#p1818e867f4)" style="fill: #add8e6; stroke: #add8e6; stroke-linejoin: miter"/>
   </g>
   <g id="patch_31">
    <path d="M 604.823209 359.517187 
L 604.823209 26.877187 
L 578.132584 26.877187 
L 578.132584 359.517187 
z
" clip-path="url(#p1818e867f4)" style="fill: #add8e6; stroke: #add8e6; stroke-linejoin: miter"/>
   </g>
   <g id="patch_32">
    <path d="M 676.08269 359.517187 
L 676.08269 26.877187 
L 668.700477 26.877187 
L 668.700477 359.517187 
z
" clip-path="url(#p1818e867f4)" style="fill: #add8e6; stroke: #add8e6; stroke-linejoin: miter"/>
   </g>
   <g id="patch_33">
    <path d="M 711.633983 359.517187 
L 711.633983 26.877187 
L 687.578426 26.877187 
L 687.578426 359.517187 
z
" clip-path="url(#p1818e867f4)" style="fill: #add8e6; stroke: #add8e6; stroke-linejoin: miter"/>
   </g>
   <g id="patch_34">
    <path d="M 821.70339 359.517187 
L 821.70339 26.877187 
L 806.251029 26.877187 
L 806.251029 359.517187 
z
" clip-path="url(#p1818e867f4)" style="fill: #add8e6; stroke: #add8e6; stroke-linejoin: miter"/>
   </g>
   <g id="patch_35">
    <path d="M 872.847849 359.517187 
L 872.847849 26.877187 
L 872.805607 26.877187 
L 872.805607 359.517187 
z
" clip-path="url(#p1818e867f4)" style="fill: #add8e6; stroke: #add8e6; stroke-linejoin: miter"/>
   </g>
   <g id="patch_36">
    <path d="M 874.157337 359.517187 
L 874.157337 26.877187 
L 873.507621 26.877187 
L 873.507621 359.517187 
z
" clip-path="url(#p1818e867f4)" style="fill: #add8e6; stroke: #add8e6; stroke-linejoin: miter"/>
   </g>
   <g id="patch_37">
    <path d="M 974.24567 359.517187 
L 974.24567 26.877187 
L 950.61454 26.877187 
L 950.61454 359.517187 
z
" clip-path="url(#p1818e867f4)" style="fill: #add8e6; stroke: #add8e6; stroke-linejoin: miter"/>
   </g>
   <g id="patch_38">
    <path d="M 989.955503 359.517187 
L 989.955503 26.877187 
L 985.463818 26.877187 
L 985.463818 359.517187 
z
" clip-path="url(#p1818e867f4)" style="fill: #add8e6; stroke: #add8e6; stroke-linejoin: miter"/>
   </g>
   <g id="patch_39">
    <path d="M 1025.106506 359.517187 
L 1025.106506 26.877187 
L 1011.5349 26.877187 
L 1011.5349 359.517187 
z
" clip-path="url(#p1818e867f4)" style="fill: #add8e6; stroke: #add8e6; stroke-linejoin: miter"/>
   </g>
   <g id="patch_40">
    <path d="M 1053.006043 359.517187 
L 1053.006043 26.877187 
L 1019.413954 26.877187 
L 1019.413954 359.517187 
z
" clip-path="url(#p1818e867f4)" style="fill: #add8e6; stroke: #add8e6; stroke-linejoin: miter"/>
   </g>
   <g id="patch_41">
    <path d="M 1088.006184 359.517187 
L 1088.006184 26.877187 
L 1071.606406 26.877187 
L 1071.606406 359.517187 
z
" clip-path="url(#p1818e867f4)" style="fill: #add8e6; stroke: #add8e6; stroke-linejoin: miter"/>
   </g>
   <g id="patch_42">
    <path d="M 1114.507727 359.517187 
L 1114.507727 26.877187 
L 1084.783757 26.877187 
L 1084.783757 359.517187 
z
" clip-path="url(#p1818e867f4)" style="fill: #add8e6; stroke: #add8e6; stroke-linejoin: miter"/>
   </g>
   <g id="patch_43">
    <path d="M 99.962273 359.517187 
L 99.962273 26.877187 
L 136.169315 26.877187 
L 136.169315 359.517187 
z
" clip-path="url(#p1818e867f4)" style="fill: #808080; opacity: 0.4; stroke: #808080; stroke-linejoin: miter"/>
   </g>
   <g id="patch_44">
    <path d="M 148.238329 26.877187 
L 148.238329 26.877187 
L 148.238329 359.517187 
" clip-path="url(#p1818e867f4)" style="fill: #808080; opacity: 0.4; stroke: #808080; stroke-linejoin: miter"/>
   </g>
   <g id="patch_45">
    <path d="M 160.307343 26.877187 
L 160.307343 26.877187 
L 160.307343 359.517187 
" clip-path="url(#p1818e867f4)" style="fill: #808080; opacity: 0.4; stroke: #808080; stroke-linejoin: miter"/>
   </g>
   <g id="patch_46">
    <path d="M 570.653819 359.517187 
L 570.653819 26.877187 
L 1005.138322 26.877187 
L 1005.138322 359.517187 
z
" clip-path="url(#p1818e867f4)" style="fill: #808080; opacity: 0.4; stroke: #808080; stroke-linejoin: miter"/>
   </g>
   <g id="patch_47">
    <path d="M 1017.207336 26.877187 
L 1017.207336 26.877187 
L 1017.207336 359.517187 
" clip-path="url(#p1818e867f4)" style="fill: #808080; opacity: 0.4; stroke: #808080; stroke-linejoin: miter"/>
   </g>
   <g id="patch_48">
    <path d="M 1029.27635 26.877187 
L 1029.27635 26.877187 
L 1029.27635 359.517187 
" clip-path="url(#p1818e867f4)" style="fill: #808080; opacity: 0.4; stroke: #808080; stroke-linejoin: miter"/>
   </g>
   <g id="matplotlib.axis_1">
    <g id="xtick_1">
     <g id="line2d_1">
      <defs>
       <path id="me33b35ca94" d="M 0 0 
L 0 3.5 
" style="stroke: #000000; stroke-width: 0.8"/>
      </defs>
      <g>
       <use xlink:href="#me33b35ca94" x="89.472288" y="359.517187" style="stroke: #000000; stroke-width: 0.8"/>
      </g>
     </g>
     <g id="text_1">
      <!-- 12-12 06 -->
      <g transform="translate(66.991819 374.115625) scale(0.1 -0.1)">
       <defs>
        <path id="DejaVuSans-31" d="M 794 531 
L 1825 531 
L 1825 4091 
L 703 3866 
L 703 4441 
L 1819 4666 
L 2450 4666 
L 2450 531 
L 3481 531 
L 3481 0 
L 794 0 
L 794 531 
z
" transform="scale(0.015625)"/>
        <path id="DejaVuSans-32" d="M 1228 531 
L 3431 531 
L 3431 0 
L 469 0 
L 469 531 
Q 828 903 1448 1529 
Q 2069 2156 2228 2338 
Q 2531 2678 2651 2914 
Q 2772 3150 2772 3378 
Q 2772 3750 2511 3984 
Q 2250 4219 1831 4219 
Q 1534 4219 1204 4116 
Q 875 4013 500 3803 
L 500 4441 
Q 881 4594 1212 4672 
Q 1544 4750 1819 4750 
Q 2544 4750 2975 4387 
Q 3406 4025 3406 3419 
Q 3406 3131 3298 2873 
Q 3191 2616 2906 2266 
Q 2828 2175 2409 1742 
Q 1991 1309 1228 531 
z
" transform="scale(0.015625)"/>
        <path id="DejaVuSans-2d" d="M 313 2009 
L 1997 2009 
L 1997 1497 
L 313 1497 
L 313 2009 
z
" transform="scale(0.015625)"/>
        <path id="DejaVuSans-20" transform="scale(0.015625)"/>
        <path id="DejaVuSans-30" d="M 2034 4250 
Q 1547 4250 1301 3770 
Q 1056 3291 1056 2328 
Q 1056 1369 1301 889 
Q 1547 409 2034 409 
Q 2525 409 2770 889 
Q 3016 1369 3016 2328 
Q 3016 3291 2770 3770 
Q 2525 4250 2034 4250 
z
M 2034 4750 
Q 2819 4750 3233 4129 
Q 3647 3509 3647 2328 
Q 3647 1150 3233 529 
Q 2819 -91 2034 -91 
Q 1250 -91 836 529 
Q 422 1150 422 2328 
Q 422 3509 836 4129 
Q 1250 4750 2034 4750 
z
" transform="scale(0.015625)"/>
        <path id="DejaVuSans-36" d="M 2113 2584 
Q 1688 2584 1439 2293 
Q 1191 2003 1191 1497 
Q 1191 994 1439 701 
Q 1688 409 2113 409 
Q 2538 409 2786 701 
Q 3034 994 3034 1497 
Q 3034 2003 2786 2293 
Q 2538 2584 2113 2584 
z
M 3366 4563 
L 3366 3988 
Q 3128 4100 2886 4159 
Q 2644 4219 2406 4219 
Q 1781 4219 1451 3797 
Q 1122 3375 1075 2522 
Q 1259 2794 1537 2939 
Q 1816 3084 2150 3084 
Q 2853 3084 3261 2657 
Q 3669 2231 3669 1497 
Q 3669 778 3244 343 
Q 2819 -91 2113 -91 
Q 1303 -91 875 529 
Q 447 1150 447 2328 
Q 447 3434 972 4092 
Q 1497 4750 2381 4750 
Q 2619 4750 2861 4703 
Q 3103 4656 3366 4563 
z
" transform="scale(0.015625)"/>
       </defs>
       <use xlink:href="#DejaVuSans-31"/>
       <use xlink:href="#DejaVuSans-32" x="63.623047"/>
       <use xlink:href="#DejaVuSans-2d" x="127.246094"/>
       <use xlink:href="#DejaVuSans-31" x="163.330078"/>
       <use xlink:href="#DejaVuSans-32" x="226.953125"/>
       <use xlink:href="#DejaVuSans-20" x="290.576172"/>
       <use xlink:href="#DejaVuSans-30" x="322.363281"/>
       <use xlink:href="#DejaVuSans-36" x="385.986328"/>
      </g>
     </g>
    </g>
    <g id="xtick_2">
     <g id="line2d_2">
      <g>
       <use xlink:href="#me33b35ca94" x="198.093414" y="359.517187" style="stroke: #000000; stroke-width: 0.8"/>
      </g>
     </g>
     <g id="text_2">
      <!-- 12-12 09 -->
      <g transform="translate(175.612945 374.115625) scale(0.1 -0.1)">
       <defs>
        <path id="DejaVuSans-39" d="M 703 97 
L 703 672 
Q 941 559 1184 500 
Q 1428 441 1663 441 
Q 2288 441 2617 861 
Q 2947 1281 2994 2138 
Q 2813 1869 2534 1725 
Q 2256 1581 1919 1581 
Q 1219 1581 811 2004 
Q 403 2428 403 3163 
Q 403 3881 828 4315 
Q 1253 4750 1959 4750 
Q 2769 4750 3195 4129 
Q 3622 3509 3622 2328 
Q 3622 1225 3098 567 
Q 2575 -91 1691 -91 
Q 1453 -91 1209 -44 
Q 966 3 703 97 
z
M 1959 2075 
Q 2384 2075 2632 2365 
Q 2881 2656 2881 3163 
Q 2881 3666 2632 3958 
Q 2384 4250 1959 4250 
Q 1534 4250 1286 3958 
Q 1038 3666 1038 3163 
Q 1038 2656 1286 2365 
Q 1534 2075 1959 2075 
z
" transform="scale(0.015625)"/>
       </defs>
       <use xlink:href="#DejaVuSans-31"/>
       <use xlink:href="#DejaVuSans-32" x="63.623047"/>
       <use xlink:href="#DejaVuSans-2d" x="127.246094"/>
       <use xlink:href="#DejaVuSans-31" x="163.330078"/>
       <use xlink:href="#DejaVuSans-32" x="226.953125"/>
       <use xlink:href="#DejaVuSans-20" x="290.576172"/>
       <use xlink:href="#DejaVuSans-30" x="322.363281"/>
       <use xlink:href="#DejaVuSans-39" x="385.986328"/>
      </g>
     </g>
    </g>
    <g id="xtick_3">
     <g id="line2d_3">
      <g>
       <use xlink:href="#me33b35ca94" x="306.71454" y="359.517187" style="stroke: #000000; stroke-width: 0.8"/>
      </g>
     </g>
     <g id="text_3">
      <!-- 12-12 12 -->
      <g transform="translate(284.234071 374.115625) scale(0.1 -0.1)">
       <use xlink:href="#DejaVuSans-31"/>
       <use xlink:href="#DejaVuSans-32" x="63.623047"/>
       <use xlink:href="#DejaVuSans-2d" x="127.246094"/>
       <use xlink:href="#DejaVuSans-31" x="163.330078"/>
       <use xlink:href="#DejaVuSans-32" x="226.953125"/>
       <use xlink:href="#DejaVuSans-20" x="290.576172"/>
       <use xlink:href="#DejaVuSans-31" x="322.363281"/>
       <use xlink:href="#DejaVuSans-32" x="385.986328"/>
      </g>
     </g>
    </g>
    <g id="xtick_4">
     <g id="line2d_4">
      <g>
       <use xlink:href="#me33b35ca94" x="415.335666" y="359.517187" style="stroke: #000000; stroke-width: 0.8"/>
      </g>
     </g>
     <g id="text_4">
      <!-- 12-12 15 -->
      <g transform="translate(392.855197 374.115625) scale(0.1 -0.1)">
       <defs>
        <path id="DejaVuSans-35" d="M 691 4666 
L 3169 4666 
L 3169 4134 
L 1269 4134 
L 1269 2991 
Q 1406 3038 1543 3061 
Q 1681 3084 1819 3084 
Q 2600 3084 3056 2656 
Q 3513 2228 3513 1497 
Q 3513 744 3044 326 
Q 2575 -91 1722 -91 
Q 1428 -91 1123 -41 
Q 819 9 494 109 
L 494 744 
Q 775 591 1075 516 
Q 1375 441 1709 441 
Q 2250 441 2565 725 
Q 2881 1009 2881 1497 
Q 2881 1984 2565 2268 
Q 2250 2553 1709 2553 
Q 1456 2553 1204 2497 
Q 953 2441 691 2322 
L 691 4666 
z
" transform="scale(0.015625)"/>
       </defs>
       <use xlink:href="#DejaVuSans-31"/>
       <use xlink:href="#DejaVuSans-32" x="63.623047"/>
       <use xlink:href="#DejaVuSans-2d" x="127.246094"/>
       <use xlink:href="#DejaVuSans-31" x="163.330078"/>
       <use xlink:href="#DejaVuSans-32" x="226.953125"/>
       <use xlink:href="#DejaVuSans-20" x="290.576172"/>
       <use xlink:href="#DejaVuSans-31" x="322.363281"/>
       <use xlink:href="#DejaVuSans-35" x="385.986328"/>
      </g>
     </g>
    </g>
    <g id="xtick_5">
     <g id="line2d_5">
      <g>
       <use xlink:href="#me33b35ca94" x="523.956792" y="359.517187" style="stroke: #000000; stroke-width: 0.8"/>
      </g>
     </g>
     <g id="text_5">
      <!-- 12-12 18 -->
      <g transform="translate(501.476323 374.115625) scale(0.1 -0.1)">
       <defs>
        <path id="DejaVuSans-38" d="M 2034 2216 
Q 1584 2216 1326 1975 
Q 1069 1734 1069 1313 
Q 1069 891 1326 650 
Q 1584 409 2034 409 
Q 2484 409 2743 651 
Q 3003 894 3003 1313 
Q 3003 1734 2745 1975 
Q 2488 2216 2034 2216 
z
M 1403 2484 
Q 997 2584 770 2862 
Q 544 3141 544 3541 
Q 544 4100 942 4425 
Q 1341 4750 2034 4750 
Q 2731 4750 3128 4425 
Q 3525 4100 3525 3541 
Q 3525 3141 3298 2862 
Q 3072 2584 2669 2484 
Q 3125 2378 3379 2068 
Q 3634 1759 3634 1313 
Q 3634 634 3220 271 
Q 2806 -91 2034 -91 
Q 1263 -91 848 271 
Q 434 634 434 1313 
Q 434 1759 690 2068 
Q 947 2378 1403 2484 
z
M 1172 3481 
Q 1172 3119 1398 2916 
Q 1625 2713 2034 2713 
Q 2441 2713 2670 2916 
Q 2900 3119 2900 3481 
Q 2900 3844 2670 4047 
Q 2441 4250 2034 4250 
Q 1625 4250 1398 4047 
Q 1172 3844 1172 3481 
z
" transform="scale(0.015625)"/>
       </defs>
       <use xlink:href="#DejaVuSans-31"/>
       <use xlink:href="#DejaVuSans-32" x="63.623047"/>
       <use xlink:href="#DejaVuSans-2d" x="127.246094"/>
       <use xlink:href="#DejaVuSans-31" x="163.330078"/>
       <use xlink:href="#DejaVuSans-32" x="226.953125"/>
       <use xlink:href="#DejaVuSans-20" x="290.576172"/>
       <use xlink:href="#DejaVuSans-31" x="322.363281"/>
       <use xlink:href="#DejaVuSans-38" x="385.986328"/>
      </g>
     </g>
    </g>
    <g id="xtick_6">
     <g id="line2d_6">
      <g>
       <use xlink:href="#me33b35ca94" x="632.577918" y="359.517187" style="stroke: #000000; stroke-width: 0.8"/>
      </g>
     </g>
     <g id="text_6">
      <!-- 12-12 21 -->
      <g transform="translate(610.097449 374.115625) scale(0.1 -0.1)">
       <use xlink:href="#DejaVuSans-31"/>
       <use xlink:href="#DejaVuSans-32" x="63.623047"/>
       <use xlink:href="#DejaVuSans-2d" x="127.246094"/>
       <use xlink:href="#DejaVuSans-31" x="163.330078"/>
       <use xlink:href="#DejaVuSans-32" x="226.953125"/>
       <use xlink:href="#DejaVuSans-20" x="290.576172"/>
       <use xlink:href="#DejaVuSans-32" x="322.363281"/>
       <use xlink:href="#DejaVuSans-31" x="385.986328"/>
      </g>
     </g>
    </g>
    <g id="xtick_7">
     <g id="line2d_7">
      <g>
       <use xlink:href="#me33b35ca94" x="741.199044" y="359.517187" style="stroke: #000000; stroke-width: 0.8"/>
      </g>
     </g>
     <g id="text_7">
      <!-- 12-13 00 -->
      <g transform="translate(718.718575 374.115625) scale(0.1 -0.1)">
       <defs>
        <path id="DejaVuSans-33" d="M 2597 2516 
Q 3050 2419 3304 2112 
Q 3559 1806 3559 1356 
Q 3559 666 3084 287 
Q 2609 -91 1734 -91 
Q 1441 -91 1130 -33 
Q 819 25 488 141 
L 488 750 
Q 750 597 1062 519 
Q 1375 441 1716 441 
Q 2309 441 2620 675 
Q 2931 909 2931 1356 
Q 2931 1769 2642 2001 
Q 2353 2234 1838 2234 
L 1294 2234 
L 1294 2753 
L 1863 2753 
Q 2328 2753 2575 2939 
Q 2822 3125 2822 3475 
Q 2822 3834 2567 4026 
Q 2313 4219 1838 4219 
Q 1578 4219 1281 4162 
Q 984 4106 628 3988 
L 628 4550 
Q 988 4650 1302 4700 
Q 1616 4750 1894 4750 
Q 2613 4750 3031 4423 
Q 3450 4097 3450 3541 
Q 3450 3153 3228 2886 
Q 3006 2619 2597 2516 
z
" transform="scale(0.015625)"/>
       </defs>
       <use xlink:href="#DejaVuSans-31"/>
       <use xlink:href="#DejaVuSans-32" x="63.623047"/>
       <use xlink:href="#DejaVuSans-2d" x="127.246094"/>
       <use xlink:href="#DejaVuSans-31" x="163.330078"/>
       <use xlink:href="#DejaVuSans-33" x="226.953125"/>
       <use xlink:href="#DejaVuSans-20" x="290.576172"/>
       <use xlink:href="#DejaVuSans-30" x="322.363281"/>
       <use xlink:href="#DejaVuSans-30" x="385.986328"/>
      </g>
     </g>
    </g>
    <g id="xtick_8">
     <g id="line2d_8">
      <g>
       <use xlink:href="#me33b35ca94" x="849.82017" y="359.517187" style="stroke: #000000; stroke-width: 0.8"/>
      </g>
     </g>
     <g id="text_8">
      <!-- 12-13 03 -->
      <g transform="translate(827.339701 374.115625) scale(0.1 -0.1)">
       <use xlink:href="#DejaVuSans-31"/>
       <use xlink:href="#DejaVuSans-32" x="63.623047"/>
       <use xlink:href="#DejaVuSans-2d" x="127.246094"/>
       <use xlink:href="#DejaVuSans-31" x="163.330078"/>
       <use xlink:href="#DejaVuSans-33" x="226.953125"/>
       <use xlink:href="#DejaVuSans-20" x="290.576172"/>
       <use xlink:href="#DejaVuSans-30" x="322.363281"/>
       <use xlink:href="#DejaVuSans-33" x="385.986328"/>
      </g>
     </g>
    </g>
    <g id="xtick_9">
     <g id="line2d_9">
      <g>
       <use xlink:href="#me33b35ca94" x="958.441296" y="359.517187" style="stroke: #000000; stroke-width: 0.8"/>
      </g>
     </g>
     <g id="text_9">
      <!-- 12-13 06 -->
      <g transform="translate(935.960827 374.115625) scale(0.1 -0.1)">
       <use xlink:href="#DejaVuSans-31"/>
       <use xlink:href="#DejaVuSans-32" x="63.623047"/>
       <use xlink:href="#DejaVuSans-2d" x="127.246094"/>
       <use xlink:href="#DejaVuSans-31" x="163.330078"/>
       <use xlink:href="#DejaVuSans-33" x="226.953125"/>
       <use xlink:href="#DejaVuSans-20" x="290.576172"/>
       <use xlink:href="#DejaVuSans-30" x="322.363281"/>
       <use xlink:href="#DejaVuSans-36" x="385.986328"/>
      </g>
     </g>
    </g>
    <g id="xtick_10">
     <g id="line2d_10">
      <g>
       <use xlink:href="#me33b35ca94" x="1067.062422" y="359.517187" style="stroke: #000000; stroke-width: 0.8"/>
      </g>
     </g>
     <g id="text_10">
      <!-- 12-13 09 -->
      <g transform="translate(1044.581953 374.115625) scale(0.1 -0.1)">
       <use xlink:href="#DejaVuSans-31"/>
       <use xlink:href="#DejaVuSans-32" x="63.623047"/>
       <use xlink:href="#DejaVuSans-2d" x="127.246094"/>
       <use xlink:href="#DejaVuSans-31" x="163.330078"/>
       <use xlink:href="#DejaVuSans-33" x="226.953125"/>
       <use xlink:href="#DejaVuSans-20" x="290.576172"/>
       <use xlink:href="#DejaVuSans-30" x="322.363281"/>
       <use xlink:href="#DejaVuSans-39" x="385.986328"/>
      </g>
     </g>
    </g>
    <g id="text_11">
     <!-- Time -->
     <g transform="translate(592.554688 389.313437) scale(0.12 -0.12)">
      <defs>
       <path id="DejaVuSans-54" d="M -19 4666 
L 3928 4666 
L 3928 4134 
L 2272 4134 
L 2272 0 
L 1638 0 
L 1638 4134 
L -19 4134 
L -19 4666 
z
" transform="scale(0.015625)"/>
       <path id="DejaVuSans-69" d="M 603 3500 
L 1178 3500 
L 1178 0 
L 603 0 
L 603 3500 
z
M 603 4863 
L 1178 4863 
L 1178 4134 
L 603 4134 
L 603 4863 
z
" transform="scale(0.015625)"/>
       <path id="DejaVuSans-6d" d="M 3328 2828 
Q 3544 3216 3844 3400 
Q 4144 3584 4550 3584 
Q 5097 3584 5394 3201 
Q 5691 2819 5691 2113 
L 5691 0 
L 5113 0 
L 5113 2094 
Q 5113 2597 4934 2840 
Q 4756 3084 4391 3084 
Q 3944 3084 3684 2787 
Q 3425 2491 3425 1978 
L 3425 0 
L 2847 0 
L 2847 2094 
Q 2847 2600 2669 2842 
Q 2491 3084 2119 3084 
Q 1678 3084 1418 2786 
Q 1159 2488 1159 1978 
L 1159 0 
L 581 0 
L 581 3500 
L 1159 3500 
L 1159 2956 
Q 1356 3278 1631 3431 
Q 1906 3584 2284 3584 
Q 2666 3584 2933 3390 
Q 3200 3197 3328 2828 
z
" transform="scale(0.015625)"/>
       <path id="DejaVuSans-65" d="M 3597 1894 
L 3597 1613 
L 953 1613 
Q 991 1019 1311 708 
Q 1631 397 2203 397 
Q 2534 397 2845 478 
Q 3156 559 3463 722 
L 3463 178 
Q 3153 47 2828 -22 
Q 2503 -91 2169 -91 
Q 1331 -91 842 396 
Q 353 884 353 1716 
Q 353 2575 817 3079 
Q 1281 3584 2069 3584 
Q 2775 3584 3186 3129 
Q 3597 2675 3597 1894 
z
M 3022 2063 
Q 3016 2534 2758 2815 
Q 2500 3097 2075 3097 
Q 1594 3097 1305 2825 
Q 1016 2553 972 2059 
L 3022 2063 
z
" transform="scale(0.015625)"/>
      </defs>
      <use xlink:href="#DejaVuSans-54"/>
      <use xlink:href="#DejaVuSans-69" x="57.958984"/>
      <use xlink:href="#DejaVuSans-6d" x="85.742188"/>
      <use xlink:href="#DejaVuSans-65" x="183.154297"/>
     </g>
    </g>
   </g>
   <g id="matplotlib.axis_2">
    <g id="ytick_1">
     <g id="line2d_11">
      <defs>
       <path id="mb935127bde" d="M 0 0 
L -3.5 0 
" style="stroke: #000000; stroke-width: 0.8"/>
      </defs>
      <g>
       <use xlink:href="#mb935127bde" x="49.235" y="344.397187" style="stroke: #000000; stroke-width: 0.8"/>
      </g>
     </g>
     <g id="text_12">
      <!-- 0 -->
      <g transform="translate(35.8725 348.196406) scale(0.1 -0.1)">
       <use xlink:href="#DejaVuSans-30"/>
      </g>
     </g>
    </g>
    <g id="ytick_2">
     <g id="line2d_12">
      <g>
       <use xlink:href="#mb935127bde" x="49.235" y="283.917187" style="stroke: #000000; stroke-width: 0.8"/>
      </g>
     </g>
     <g id="text_13">
      <!-- 50 -->
      <g transform="translate(29.51 287.716406) scale(0.1 -0.1)">
       <use xlink:href="#DejaVuSans-35"/>
       <use xlink:href="#DejaVuSans-30" x="63.623047"/>
      </g>
     </g>
    </g>
    <g id="ytick_3">
     <g id="line2d_13">
      <g>
       <use xlink:href="#mb935127bde" x="49.235" y="223.437187" style="stroke: #000000; stroke-width: 0.8"/>
      </g>
     </g>
     <g id="text_14">
      <!-- 100 -->
      <g transform="translate(23.1475 227.236406) scale(0.1 -0.1)">
       <use xlink:href="#DejaVuSans-31"/>
       <use xlink:href="#DejaVuSans-30" x="63.623047"/>
       <use xlink:href="#DejaVuSans-30" x="127.246094"/>
      </g>
     </g>
    </g>
    <g id="ytick_4">
     <g id="line2d_14">
      <g>
       <use xlink:href="#mb935127bde" x="49.235" y="162.957187" style="stroke: #000000; stroke-width: 0.8"/>
      </g>
     </g>
     <g id="text_15">
      <!-- 150 -->
      <g transform="translate(23.1475 166.756406) scale(0.1 -0.1)">
       <use xlink:href="#DejaVuSans-31"/>
       <use xlink:href="#DejaVuSans-35" x="63.623047"/>
       <use xlink:href="#DejaVuSans-30" x="127.246094"/>
      </g>
     </g>
    </g>
    <g id="ytick_5">
     <g id="line2d_15">
      <g>
       <use xlink:href="#mb935127bde" x="49.235" y="102.477187" style="stroke: #000000; stroke-width: 0.8"/>
      </g>
     </g>
     <g id="text_16">
      <!-- 200 -->
      <g transform="translate(23.1475 106.276406) scale(0.1 -0.1)">
       <use xlink:href="#DejaVuSans-32"/>
       <use xlink:href="#DejaVuSans-30" x="63.623047"/>
       <use xlink:href="#DejaVuSans-30" x="127.246094"/>
      </g>
     </g>
    </g>
    <g id="ytick_6">
     <g id="line2d_16">
      <g>
       <use xlink:href="#mb935127bde" x="49.235" y="41.997187" style="stroke: #000000; stroke-width: 0.8"/>
      </g>
     </g>
     <g id="text_17">
      <!-- 250 -->
      <g transform="translate(23.1475 45.796406) scale(0.1 -0.1)">
       <use xlink:href="#DejaVuSans-32"/>
       <use xlink:href="#DejaVuSans-35" x="63.623047"/>
       <use xlink:href="#DejaVuSans-30" x="127.246094"/>
      </g>
     </g>
    </g>
    <g id="text_18">
     <!-- Pellet_Count -->
     <g transform="translate(16.318125 230.485312) rotate(-90) scale(0.12 -0.12)">
      <defs>
       <path id="DejaVuSans-50" d="M 1259 4147 
L 1259 2394 
L 2053 2394 
Q 2494 2394 2734 2622 
Q 2975 2850 2975 3272 
Q 2975 3691 2734 3919 
Q 2494 4147 2053 4147 
L 1259 4147 
z
M 628 4666 
L 2053 4666 
Q 2838 4666 3239 4311 
Q 3641 3956 3641 3272 
Q 3641 2581 3239 2228 
Q 2838 1875 2053 1875 
L 1259 1875 
L 1259 0 
L 628 0 
L 628 4666 
z
" transform="scale(0.015625)"/>
       <path id="DejaVuSans-6c" d="M 603 4863 
L 1178 4863 
L 1178 0 
L 603 0 
L 603 4863 
z
" transform="scale(0.015625)"/>
       <path id="DejaVuSans-74" d="M 1172 4494 
L 1172 3500 
L 2356 3500 
L 2356 3053 
L 1172 3053 
L 1172 1153 
Q 1172 725 1289 603 
Q 1406 481 1766 481 
L 2356 481 
L 2356 0 
L 1766 0 
Q 1100 0 847 248 
Q 594 497 594 1153 
L 594 3053 
L 172 3053 
L 172 3500 
L 594 3500 
L 594 4494 
L 1172 4494 
z
" transform="scale(0.015625)"/>
       <path id="DejaVuSans-5f" d="M 3263 -1063 
L 3263 -1509 
L -63 -1509 
L -63 -1063 
L 3263 -1063 
z
" transform="scale(0.015625)"/>
       <path id="DejaVuSans-43" d="M 4122 4306 
L 4122 3641 
Q 3803 3938 3442 4084 
Q 3081 4231 2675 4231 
Q 1875 4231 1450 3742 
Q 1025 3253 1025 2328 
Q 1025 1406 1450 917 
Q 1875 428 2675 428 
Q 3081 428 3442 575 
Q 3803 722 4122 1019 
L 4122 359 
Q 3791 134 3420 21 
Q 3050 -91 2638 -91 
Q 1578 -91 968 557 
Q 359 1206 359 2328 
Q 359 3453 968 4101 
Q 1578 4750 2638 4750 
Q 3056 4750 3426 4639 
Q 3797 4528 4122 4306 
z
" transform="scale(0.015625)"/>
       <path id="DejaVuSans-6f" d="M 1959 3097 
Q 1497 3097 1228 2736 
Q 959 2375 959 1747 
Q 959 1119 1226 758 
Q 1494 397 1959 397 
Q 2419 397 2687 759 
Q 2956 1122 2956 1747 
Q 2956 2369 2687 2733 
Q 2419 3097 1959 3097 
z
M 1959 3584 
Q 2709 3584 3137 3096 
Q 3566 2609 3566 1747 
Q 3566 888 3137 398 
Q 2709 -91 1959 -91 
Q 1206 -91 779 398 
Q 353 888 353 1747 
Q 353 2609 779 3096 
Q 1206 3584 1959 3584 
z
" transform="scale(0.015625)"/>
       <path id="DejaVuSans-75" d="M 544 1381 
L 544 3500 
L 1119 3500 
L 1119 1403 
Q 1119 906 1312 657 
Q 1506 409 1894 409 
Q 2359 409 2629 706 
Q 2900 1003 2900 1516 
L 2900 3500 
L 3475 3500 
L 3475 0 
L 2900 0 
L 2900 538 
Q 2691 219 2414 64 
Q 2138 -91 1772 -91 
Q 1169 -91 856 284 
Q 544 659 544 1381 
z
M 1991 3584 
L 1991 3584 
z
" transform="scale(0.015625)"/>
       <path id="DejaVuSans-6e" d="M 3513 2113 
L 3513 0 
L 2938 0 
L 2938 2094 
Q 2938 2591 2744 2837 
Q 2550 3084 2163 3084 
Q 1697 3084 1428 2787 
Q 1159 2491 1159 1978 
L 1159 0 
L 581 0 
L 581 3500 
L 1159 3500 
L 1159 2956 
Q 1366 3272 1645 3428 
Q 1925 3584 2291 3584 
Q 2894 3584 3203 3211 
Q 3513 2838 3513 2113 
z
" transform="scale(0.015625)"/>
      </defs>
      <use xlink:href="#DejaVuSans-50"/>
      <use xlink:href="#DejaVuSans-65" x="56.677734"/>
      <use xlink:href="#DejaVuSans-6c" x="118.201172"/>
      <use xlink:href="#DejaVuSans-6c" x="145.984375"/>
      <use xlink:href="#DejaVuSans-65" x="173.767578"/>
      <use xlink:href="#DejaVuSans-74" x="235.291016"/>
      <use xlink:href="#DejaVuSans-5f" x="274.5"/>
      <use xlink:href="#DejaVuSans-43" x="324.5"/>
      <use xlink:href="#DejaVuSans-6f" x="394.324219"/>
      <use xlink:href="#DejaVuSans-75" x="455.505859"/>
      <use xlink:href="#DejaVuSans-6e" x="518.884766"/>
      <use xlink:href="#DejaVuSans-74" x="582.263672"/>
     </g>
    </g>
   </g>
   <g id="line2d_17">
    <path d="M 99.962273 344.397187 
L 107.776959 344.397187 
L 114.364629 343.187587 
L 120.077296 343.187587 
L 120.077296 343.187587 
L 120.137641 341.977987 
L 122.491099 341.977987 
L 122.712364 340.768387 
L 125.427892 340.768387 
L 125.729618 339.558787 
L 130.929351 339.558787 
L 131.281364 338.349187 
L 132.246885 338.349187 
L 132.880508 337.139587 
L 135.897762 337.139587 
L 135.917877 335.929987 
L 139.458121 335.929987 
L 139.518466 334.720387 
L 141.11761 334.720387 
L 141.369048 333.510787 
L 146.588897 333.510787 
L 146.598954 332.301187 
L 147.363325 332.301187 
L 147.484015 331.091587 
L 152.613346 331.091587 
L 153.045819 329.881987 
L 156.706754 329.881987 
L 156.757041 328.672387 
L 162.942411 328.672387 
L 162.972583 327.462787 
L 163.606207 327.462787 
L 163.606207 327.462787 
L 163.666552 326.253187 
L 165.124891 326.253187 
L 166.030067 325.043587 
L 168.383525 325.043587 
L 168.956803 323.833987 
L 169.399333 323.833987 
L 170.525775 322.624387 
L 171.219743 321.414787 
L 174.015731 321.414787 
L 174.086134 320.205187 
L 177.032985 320.205187 
L 177.787298 318.995587 
L 181.488462 318.995587 
L 181.49852 317.785987 
L 185.833307 317.785987 
L 185.964055 316.576387 
L 186.406585 316.576387 
L 186.406585 316.576387 
L 186.507161 315.366787 
L 186.839058 314.157187 
L 191.998562 314.157187 
L 192.038792 312.947587 
L 192.6523 312.947587 
L 192.783048 311.737987 
L 202.981365 311.737987 
L 203.182515 310.528387 
L 204.751487 310.528387 
L 205.113557 309.318787 
L 206.109251 309.318787 
L 206.109251 309.318787 
L 207.92966 308.109187 
L 208.925354 308.109187 
L 208.975642 306.899587 
L 213.642327 306.899587 
L 215.171069 305.689987 
L 215.653829 305.689987 
L 215.81475 304.480387 
L 220.54178 304.480387 
L 220.642355 303.270787 
L 226.898127 303.270787 
L 226.998703 300.851587 
L 231.232915 300.851587 
L 234.632354 299.641987 
L 237.63955 299.641987 
L 237.740125 298.432387 
L 238.253058 298.432387 
L 238.333518 297.222787 
L 238.333518 297.222787 
L 238.635244 296.013187 
L 239.892432 296.013187 
L 240.445596 294.803587 
L 241.572037 294.803587 
L 245.916882 293.593987 
L 250.6942 293.593987 
L 250.73443 292.384387 
L 258.760324 292.384387 
L 258.850842 291.174787 
L 259.886766 291.174787 
L 260.208606 289.965187 
L 263.758908 289.965187 
L 264.563509 288.755587 
L 268.918411 288.755587 
L 269.069274 286.336387 
L 274.09803 286.336387 
L 274.21872 285.126787 
L 275.093723 285.126787 
L 276.753213 283.917187 
L 281.852371 283.917187 
L 281.922774 282.707587 
L 282.656972 282.707587 
L 282.687145 281.497987 
L 287.957281 281.497987 
L 289.73746 280.288387 
L 295.329437 280.288387 
L 295.379724 279.078787 
L 296.20444 279.078787 
L 296.234613 277.869187 
L 296.747546 277.869187 
L 296.797833 276.659587 
L 298.738933 276.659587 
L 298.769106 275.449987 
L 300.026295 275.449987 
L 300.04641 274.240387 
L 302.359637 274.240387 
L 302.379752 273.030787 
L 303.003318 273.030787 
L 303.023433 271.821187 
L 303.606769 271.821187 
L 303.616826 270.611587 
L 303.898437 270.611587 
L 303.918552 269.401987 
L 305.809364 269.401987 
L 305.819421 268.192387 
L 311.693008 268.192387 
L 311.693008 268.192387 
L 311.723181 266.982787 
L 314.468881 266.982787 
L 315.011987 265.773187 
L 315.736128 265.773187 
L 315.917163 264.563587 
L 318.491886 264.563587 
L 318.501944 263.353987 
L 321.358277 263.353987 
L 328.49911 262.144387 
L 329.524976 262.144387 
L 329.947392 260.934787 
L 331.194523 260.934787 
L 333.447406 259.725187 
L 342.599742 259.725187 
L 344.098311 258.515587 
L 345.787973 258.515587 
L 348.121316 257.305987 
L 348.372753 257.305987 
L 348.724766 256.096387 
L 348.895744 256.096387 
L 348.915859 254.886787 
L 349.177354 254.886787 
L 349.207527 253.677187 
L 349.88138 253.677187 
L 349.941725 252.467587 
L 354.296628 252.467587 
L 354.306685 251.257987 
L 355.010711 251.257987 
L 355.030826 250.048387 
L 357.233421 250.048387 
L 357.535146 248.838787 
L 359.526534 248.838787 
L 359.677396 247.629187 
L 362.4935 247.629187 
L 363.066778 246.419587 
L 365.581156 246.419587 
L 365.601271 245.209987 
L 367.834038 245.209987 
L 367.854153 244.000387 
L 368.749272 244.000387 
L 368.769387 242.790787 
L 369.00071 242.790787 
L 369.04094 241.581187 
L 369.302435 241.581187 
L 369.332608 240.371587 
L 373.114232 240.371587 
L 374.562514 239.161987 
L 374.783779 239.161987 
L 374.844124 237.952387 
L 375.618552 237.952387 
L 375.618552 237.952387 
L 375.658782 236.742787 
L 378.002183 236.742787 
L 378.032355 235.533187 
L 378.595576 235.533187 
L 381.029494 234.323587 
L 383.362836 234.323587 
L 383.372894 233.113987 
L 389.135848 233.113987 
L 389.357113 231.904387 
L 390.342749 231.904387 
L 390.362864 230.694787 
L 392.203389 230.694787 
L 392.203389 230.694787 
L 392.243619 229.485187 
L 395.462023 229.485187 
L 395.532425 228.275587 
L 395.934726 228.275587 
L 395.954841 227.065987 
L 399.545373 227.065987 
L 400.168938 225.856387 
L 402.552569 225.856387 
L 402.693374 224.646787 
L 403.809758 224.646787 
L 403.890218 223.437187 
L 404.936199 223.437187 
L 405.026717 222.227587 
L 406.18333 222.227587 
L 406.26379 221.017987 
L 407.158909 221.017987 
L 407.189082 219.808387 
L 409.492252 219.808387 
L 411.513812 218.598787 
L 411.805479 218.598787 
L 411.895997 217.389187 
L 413.253761 217.389187 
L 414.078477 216.179587 
L 414.641698 216.179587 
L 415.848599 214.969987 
L 417.769584 214.969987 
L 418.43338 213.760387 
L 420.334249 213.760387 
L 420.354364 212.550787 
L 421.551208 212.550787 
L 422.939145 211.341187 
L 425.161855 211.341187 
L 426.167606 210.131587 
L 428.390316 210.131587 
L 429.94923 208.921987 
L 436.627418 208.921987 
L 436.677706 207.712387 
L 436.999546 207.712387 
L 437.150409 206.502787 
L 437.462192 206.502787 
L 437.482307 205.293187 
L 438.548403 205.293187 
L 438.578575 204.083587 
L 442.490947 204.083587 
L 442.68204 202.873987 
L 445.397568 202.873987 
L 445.467971 201.664387 
L 455.756805 201.664387 
L 455.81715 200.454787 
L 461.288437 200.454787 
L 461.338724 199.245187 
L 462.766891 199.245187 
L 462.817179 198.035587 
L 463.289882 198.035587 
L 463.309997 196.825987 
L 464.597358 196.825987 
L 464.627531 195.616387 
L 465.120349 195.616387 
L 465.160579 194.406787 
L 466.116042 194.406787 
L 466.136157 193.197187 
L 466.427825 193.197187 
L 466.548515 191.987587 
L 470.118932 191.987587 
L 470.139047 190.777987 
L 470.470945 190.777987 
L 470.481002 189.568387 
L 470.742498 189.568387 
L 470.762613 188.358787 
L 471.044223 188.358787 
L 471.064338 187.149187 
L 471.366063 187.149187 
L 471.376121 185.939587 
L 471.647674 185.939587 
L 471.667789 184.729987 
L 479.784201 184.729987 
L 480.186501 183.520387 
L 480.779894 183.520387 
L 480.779894 183.520387 
L 480.830182 182.310787 
L 481.312942 182.310787 
L 481.333057 181.101187 
L 487.357507 181.101187 
L 489.208089 179.891587 
L 490.485393 179.891587 
L 490.827349 178.681987 
L 496.871913 178.681987 
L 497.052948 177.472387 
L 500.100374 177.472387 
L 502.735442 176.262787 
L 503.288605 176.262787 
L 503.30872 175.053187 
L 505.772811 175.053187 
L 506.034306 173.843587 
L 506.728274 173.843587 
L 507.251265 172.633987 
L 509.09179 172.633987 
L 513.647842 171.424387 
L 519.209646 171.424387 
L 519.229761 170.214787 
L 521.472587 170.214787 
L 521.492702 169.005187 
L 521.98552 169.005187 
L 522.005635 167.795587 
L 522.578913 167.795587 
L 522.599028 166.585987 
L 523.443859 166.585987 
L 523.463974 165.376387 
L 523.976907 165.376387 
L 523.997022 164.166787 
L 524.338977 164.166787 
L 524.359092 162.957187 
L 525.384959 162.957187 
L 525.616281 161.747587 
L 538.872082 161.747587 
L 539.395072 160.537987 
L 540.732721 160.537987 
L 540.772951 159.328387 
L 544.21262 159.328387 
L 549.512929 158.118787 
L 553.163806 158.118787 
L 553.807487 156.909187 
L 558.68538 156.909187 
L 558.705495 155.699587 
L 561.179643 155.699587 
L 561.199758 154.489987 
L 566.369319 154.489987 
L 566.660986 153.280387 
L 567.224207 153.280387 
L 567.274495 152.070787 
L 569.285997 152.070787 
L 570.311863 150.861187 
L 571.005831 150.861187 
L 571.025947 149.651587 
L 572.786011 149.651587 
L 572.977104 148.441987 
L 573.278829 148.441987 
L 573.359289 147.232387 
L 577.684019 147.232387 
L 580.63087 146.022787 
L 583.165363 146.022787 
L 583.356456 144.813187 
L 584.261632 144.813187 
L 584.271689 143.603587 
L 590.064816 143.603587 
L 590.276024 142.393987 
L 591.955628 142.393987 
L 591.975743 141.184387 
L 592.257354 141.184387 
L 592.257354 141.184387 
L 592.398159 139.974787 
L 597.748755 139.974787 
L 597.919733 138.765187 
L 657.822272 138.765187 
L 658.123998 137.555587 
L 658.465953 137.555587 
L 658.486068 136.345987 
L 658.828023 136.345987 
L 658.858196 135.136387 
L 659.491819 135.136387 
L 659.511934 133.926787 
L 662.39844 133.926787 
L 662.418555 132.717187 
L 663.022006 132.717187 
L 663.042121 131.507587 
L 663.615399 131.507587 
L 663.625456 130.297987 
L 664.078044 130.297987 
L 664.088102 129.088387 
L 665.526326 129.088387 
L 665.546441 127.878787 
L 666.230352 127.878787 
L 666.250467 126.669187 
L 666.622595 126.669187 
L 666.64271 125.459587 
L 666.96455 125.459587 
L 666.974608 124.249987 
L 667.306506 124.249987 
L 667.336678 123.040387 
L 675.231825 123.040387 
L 677.122637 121.830787 
L 686.16434 121.830787 
L 686.2448 120.621187 
L 686.858308 120.621187 
L 686.878423 119.411587 
L 768.937661 119.411587 
L 773.513829 118.201987 
L 775.374468 118.201987 
L 775.394584 116.992387 
L 775.877344 116.992387 
L 775.907517 115.782787 
L 776.490852 115.782787 
L 776.510967 114.573187 
L 777.375913 114.573187 
L 777.396028 113.363587 
L 777.737984 113.363587 
L 777.737984 113.363587 
L 777.788271 112.153987 
L 787.17193 112.153987 
L 787.192045 110.944387 
L 787.725093 110.944387 
L 787.73515 109.734787 
L 788.157566 109.734787 
L 788.167623 108.525187 
L 789.696365 108.525187 
L 789.99809 107.315587 
L 790.541196 107.315587 
L 790.561311 106.105987 
L 790.983727 106.105987 
L 791.013899 104.896387 
L 802.901878 104.896387 
L 802.962223 103.686787 
L 871.262785 103.686787 
L 871.333187 102.477187 
L 871.826005 102.477187 
L 871.84612 101.267587 
L 872.198133 101.267587 
L 872.238363 100.057987 
L 872.610491 100.057987 
L 872.650721 98.848387 
L 872.902159 98.848387 
L 872.922274 97.638787 
L 873.254172 97.638787 
L 939.734324 96.429187 
L 948.876602 96.429187 
L 948.947005 95.219587 
L 949.299018 95.219587 
L 949.319133 94.009987 
L 949.57057 94.009987 
L 949.57057 94.009987 
L 949.610801 92.800387 
L 949.852181 92.800387 
L 949.872296 91.590787 
L 950.163964 91.590787 
L 950.174021 90.381187 
L 950.485804 90.381187 
L 955.786113 89.171587 
L 955.806228 87.961987 
L 956.128068 87.961987 
L 956.148183 86.752387 
L 984.460078 86.752387 
L 984.480193 85.542787 
L 984.822149 85.542787 
L 984.842264 84.333187 
L 985.113817 84.333187 
L 985.304909 83.123587 
L 988.161243 83.123587 
L 990.595161 81.913987 
L 990.947173 81.913987 
L 990.957231 80.704387 
L 991.480222 80.704387 
L 991.500337 79.494787 
L 991.802062 79.494787 
L 991.822177 78.285187 
L 992.164132 78.285187 
L 992.184247 77.075587 
L 993.622472 77.075587 
L 993.642587 75.865987 
L 1010.669954 75.865987 
L 1010.690069 74.656387 
L 1013.83807 74.656387 
L 1018.917113 73.446787 
L 1018.937228 72.237187 
L 1020.616833 72.237187 
L 1021.190111 71.027587 
L 1021.542124 71.027587 
L 1023.583799 69.817987 
L 1029.457386 69.817987 
L 1029.477501 68.608387 
L 1029.789284 68.608387 
L 1029.829514 67.398787 
L 1048.375565 67.398787 
L 1048.39568 66.189187 
L 1048.67729 66.189187 
L 1048.697405 64.979587 
L 1049.049418 64.979587 
L 1049.059476 63.769987 
L 1049.280741 63.769987 
L 1049.310914 62.560387 
L 1052.63995 62.560387 
L 1053.494839 61.350787 
L 1055.325306 61.350787 
L 1055.335363 60.141187 
L 1055.606916 60.141187 
L 1055.616973 58.931587 
L 1055.898584 58.931587 
L 1055.918699 57.721987 
L 1056.200309 57.721987 
L 1056.220424 56.512387 
L 1069.546627 56.512387 
L 1069.566742 55.302787 
L 1069.808122 55.302787 
L 1069.81818 54.093187 
L 1070.01933 54.093187 
L 1070.039445 52.883587 
L 1070.300941 52.883587 
L 1070.310998 51.673987 
L 1070.612723 51.673987 
L 1070.632838 50.464387 
L 1070.793759 50.464387 
L 1070.833989 49.254787 
L 1071.397209 49.254787 
L 1073.569632 48.045187 
L 1079.272241 48.045187 
L 1079.996382 46.835587 
L 1083.335476 46.835587 
L 1083.385763 45.625987 
L 1083.717661 45.625987 
L 1083.737776 44.416387 
L 1084.049559 44.416387 
L 1084.069674 43.206787 
L 1084.260767 43.206787 
L 1084.270824 41.997187 
L 1099.477782 41.997187 
L 1099.477782 41.997187 
" clip-path="url(#p1818e867f4)" style="fill: none; stroke: #0000ff; stroke-width: 1.5; stroke-linecap: square"/>
   </g>
   <g id="patch_49">
    <path d="M 49.235 359.517187 
L 49.235 26.877187 
" style="fill: none; stroke: #000000; stroke-width: 0.8; stroke-linejoin: miter; stroke-linecap: square"/>
   </g>
   <g id="patch_50">
    <path d="M 1165.235 359.517187 
L 1165.235 26.877187 
" style="fill: none; stroke: #000000; stroke-width: 0.8; stroke-linejoin: miter; stroke-linecap: square"/>
   </g>
   <g id="patch_51">
    <path d="M 49.235 359.517187 
L 1165.235 359.517187 
" style="fill: none; stroke: #000000; stroke-width: 0.8; stroke-linejoin: miter; stroke-linecap: square"/>
   </g>
   <g id="patch_52">
    <path d="M 49.235 26.877187 
L 1165.235 26.877187 
" style="fill: none; stroke: #000000; stroke-width: 0.8; stroke-linejoin: miter; stroke-linecap: square"/>
   </g>
   <g id="text_19">
    <!-- Pellet Count and Cumulative Sum Over Time of Group 1 Mouse 6 -->
    <g transform="translate(315.460625 20.877187) scale(0.18 -0.18)">
     <defs>
      <path id="DejaVuSans-61" d="M 2194 1759 
Q 1497 1759 1228 1600 
Q 959 1441 959 1056 
Q 959 750 1161 570 
Q 1363 391 1709 391 
Q 2188 391 2477 730 
Q 2766 1069 2766 1631 
L 2766 1759 
L 2194 1759 
z
M 3341 1997 
L 3341 0 
L 2766 0 
L 2766 531 
Q 2569 213 2275 61 
Q 1981 -91 1556 -91 
Q 1019 -91 701 211 
Q 384 513 384 1019 
Q 384 1609 779 1909 
Q 1175 2209 1959 2209 
L 2766 2209 
L 2766 2266 
Q 2766 2663 2505 2880 
Q 2244 3097 1772 3097 
Q 1472 3097 1187 3025 
Q 903 2953 641 2809 
L 641 3341 
Q 956 3463 1253 3523 
Q 1550 3584 1831 3584 
Q 2591 3584 2966 3190 
Q 3341 2797 3341 1997 
z
" transform="scale(0.015625)"/>
      <path id="DejaVuSans-64" d="M 2906 2969 
L 2906 4863 
L 3481 4863 
L 3481 0 
L 2906 0 
L 2906 525 
Q 2725 213 2448 61 
Q 2172 -91 1784 -91 
Q 1150 -91 751 415 
Q 353 922 353 1747 
Q 353 2572 751 3078 
Q 1150 3584 1784 3584 
Q 2172 3584 2448 3432 
Q 2725 3281 2906 2969 
z
M 947 1747 
Q 947 1113 1208 752 
Q 1469 391 1925 391 
Q 2381 391 2643 752 
Q 2906 1113 2906 1747 
Q 2906 2381 2643 2742 
Q 2381 3103 1925 3103 
Q 1469 3103 1208 2742 
Q 947 2381 947 1747 
z
" transform="scale(0.015625)"/>
      <path id="DejaVuSans-76" d="M 191 3500 
L 800 3500 
L 1894 563 
L 2988 3500 
L 3597 3500 
L 2284 0 
L 1503 0 
L 191 3500 
z
" transform="scale(0.015625)"/>
      <path id="DejaVuSans-53" d="M 3425 4513 
L 3425 3897 
Q 3066 4069 2747 4153 
Q 2428 4238 2131 4238 
Q 1616 4238 1336 4038 
Q 1056 3838 1056 3469 
Q 1056 3159 1242 3001 
Q 1428 2844 1947 2747 
L 2328 2669 
Q 3034 2534 3370 2195 
Q 3706 1856 3706 1288 
Q 3706 609 3251 259 
Q 2797 -91 1919 -91 
Q 1588 -91 1214 -16 
Q 841 59 441 206 
L 441 856 
Q 825 641 1194 531 
Q 1563 422 1919 422 
Q 2459 422 2753 634 
Q 3047 847 3047 1241 
Q 3047 1584 2836 1778 
Q 2625 1972 2144 2069 
L 1759 2144 
Q 1053 2284 737 2584 
Q 422 2884 422 3419 
Q 422 4038 858 4394 
Q 1294 4750 2059 4750 
Q 2388 4750 2728 4690 
Q 3069 4631 3425 4513 
z
" transform="scale(0.015625)"/>
      <path id="DejaVuSans-4f" d="M 2522 4238 
Q 1834 4238 1429 3725 
Q 1025 3213 1025 2328 
Q 1025 1447 1429 934 
Q 1834 422 2522 422 
Q 3209 422 3611 934 
Q 4013 1447 4013 2328 
Q 4013 3213 3611 3725 
Q 3209 4238 2522 4238 
z
M 2522 4750 
Q 3503 4750 4090 4092 
Q 4678 3434 4678 2328 
Q 4678 1225 4090 567 
Q 3503 -91 2522 -91 
Q 1538 -91 948 565 
Q 359 1222 359 2328 
Q 359 3434 948 4092 
Q 1538 4750 2522 4750 
z
" transform="scale(0.015625)"/>
      <path id="DejaVuSans-72" d="M 2631 2963 
Q 2534 3019 2420 3045 
Q 2306 3072 2169 3072 
Q 1681 3072 1420 2755 
Q 1159 2438 1159 1844 
L 1159 0 
L 581 0 
L 581 3500 
L 1159 3500 
L 1159 2956 
Q 1341 3275 1631 3429 
Q 1922 3584 2338 3584 
Q 2397 3584 2469 3576 
Q 2541 3569 2628 3553 
L 2631 2963 
z
" transform="scale(0.015625)"/>
      <path id="DejaVuSans-66" d="M 2375 4863 
L 2375 4384 
L 1825 4384 
Q 1516 4384 1395 4259 
Q 1275 4134 1275 3809 
L 1275 3500 
L 2222 3500 
L 2222 3053 
L 1275 3053 
L 1275 0 
L 697 0 
L 697 3053 
L 147 3053 
L 147 3500 
L 697 3500 
L 697 3744 
Q 697 4328 969 4595 
Q 1241 4863 1831 4863 
L 2375 4863 
z
" transform="scale(0.015625)"/>
      <path id="DejaVuSans-47" d="M 3809 666 
L 3809 1919 
L 2778 1919 
L 2778 2438 
L 4434 2438 
L 4434 434 
Q 4069 175 3628 42 
Q 3188 -91 2688 -91 
Q 1594 -91 976 548 
Q 359 1188 359 2328 
Q 359 3472 976 4111 
Q 1594 4750 2688 4750 
Q 3144 4750 3555 4637 
Q 3966 4525 4313 4306 
L 4313 3634 
Q 3963 3931 3569 4081 
Q 3175 4231 2741 4231 
Q 1884 4231 1454 3753 
Q 1025 3275 1025 2328 
Q 1025 1384 1454 906 
Q 1884 428 2741 428 
Q 3075 428 3337 486 
Q 3600 544 3809 666 
z
" transform="scale(0.015625)"/>
      <path id="DejaVuSans-70" d="M 1159 525 
L 1159 -1331 
L 581 -1331 
L 581 3500 
L 1159 3500 
L 1159 2969 
Q 1341 3281 1617 3432 
Q 1894 3584 2278 3584 
Q 2916 3584 3314 3078 
Q 3713 2572 3713 1747 
Q 3713 922 3314 415 
Q 2916 -91 2278 -91 
Q 1894 -91 1617 61 
Q 1341 213 1159 525 
z
M 3116 1747 
Q 3116 2381 2855 2742 
Q 2594 3103 2138 3103 
Q 1681 3103 1420 2742 
Q 1159 2381 1159 1747 
Q 1159 1113 1420 752 
Q 1681 391 2138 391 
Q 2594 391 2855 752 
Q 3116 1113 3116 1747 
z
" transform="scale(0.015625)"/>
      <path id="DejaVuSans-4d" d="M 628 4666 
L 1569 4666 
L 2759 1491 
L 3956 4666 
L 4897 4666 
L 4897 0 
L 4281 0 
L 4281 4097 
L 3078 897 
L 2444 897 
L 1241 4097 
L 1241 0 
L 628 0 
L 628 4666 
z
" transform="scale(0.015625)"/>
      <path id="DejaVuSans-73" d="M 2834 3397 
L 2834 2853 
Q 2591 2978 2328 3040 
Q 2066 3103 1784 3103 
Q 1356 3103 1142 2972 
Q 928 2841 928 2578 
Q 928 2378 1081 2264 
Q 1234 2150 1697 2047 
L 1894 2003 
Q 2506 1872 2764 1633 
Q 3022 1394 3022 966 
Q 3022 478 2636 193 
Q 2250 -91 1575 -91 
Q 1294 -91 989 -36 
Q 684 19 347 128 
L 347 722 
Q 666 556 975 473 
Q 1284 391 1588 391 
Q 1994 391 2212 530 
Q 2431 669 2431 922 
Q 2431 1156 2273 1281 
Q 2116 1406 1581 1522 
L 1381 1569 
Q 847 1681 609 1914 
Q 372 2147 372 2553 
Q 372 3047 722 3315 
Q 1072 3584 1716 3584 
Q 2034 3584 2315 3537 
Q 2597 3491 2834 3397 
z
" transform="scale(0.015625)"/>
     </defs>
     <use xlink:href="#DejaVuSans-50"/>
     <use xlink:href="#DejaVuSans-65" x="56.677734"/>
     <use xlink:href="#DejaVuSans-6c" x="118.201172"/>
     <use xlink:href="#DejaVuSans-6c" x="145.984375"/>
     <use xlink:href="#DejaVuSans-65" x="173.767578"/>
     <use xlink:href="#DejaVuSans-74" x="235.291016"/>
     <use xlink:href="#DejaVuSans-20" x="274.5"/>
     <use xlink:href="#DejaVuSans-43" x="306.287109"/>
     <use xlink:href="#DejaVuSans-6f" x="376.111328"/>
     <use xlink:href="#DejaVuSans-75" x="437.292969"/>
     <use xlink:href="#DejaVuSans-6e" x="500.671875"/>
     <use xlink:href="#DejaVuSans-74" x="564.050781"/>
     <use xlink:href="#DejaVuSans-20" x="603.259766"/>
     <use xlink:href="#DejaVuSans-61" x="635.046875"/>
     <use xlink:href="#DejaVuSans-6e" x="696.326172"/>
     <use xlink:href="#DejaVuSans-64" x="759.705078"/>
     <use xlink:href="#DejaVuSans-20" x="823.181641"/>
     <use xlink:href="#DejaVuSans-43" x="854.96875"/>
     <use xlink:href="#DejaVuSans-75" x="924.792969"/>
     <use xlink:href="#DejaVuSans-6d" x="988.171875"/>
     <use xlink:href="#DejaVuSans-75" x="1085.583984"/>
     <use xlink:href="#DejaVuSans-6c" x="1148.962891"/>
     <use xlink:href="#DejaVuSans-61" x="1176.746094"/>
     <use xlink:href="#DejaVuSans-74" x="1238.025391"/>
     <use xlink:href="#DejaVuSans-69" x="1277.234375"/>
     <use xlink:href="#DejaVuSans-76" x="1305.017578"/>
     <use xlink:href="#DejaVuSans-65" x="1364.197266"/>
     <use xlink:href="#DejaVuSans-20" x="1425.720703"/>
     <use xlink:href="#DejaVuSans-53" x="1457.507812"/>
     <use xlink:href="#DejaVuSans-75" x="1520.984375"/>
     <use xlink:href="#DejaVuSans-6d" x="1584.363281"/>
     <use xlink:href="#DejaVuSans-20" x="1681.775391"/>
     <use xlink:href="#DejaVuSans-4f" x="1713.5625"/>
     <use xlink:href="#DejaVuSans-76" x="1792.273438"/>
     <use xlink:href="#DejaVuSans-65" x="1851.453125"/>
     <use xlink:href="#DejaVuSans-72" x="1912.976562"/>
     <use xlink:href="#DejaVuSans-20" x="1954.089844"/>
     <use xlink:href="#DejaVuSans-54" x="1985.876953"/>
     <use xlink:href="#DejaVuSans-69" x="2043.835938"/>
     <use xlink:href="#DejaVuSans-6d" x="2071.619141"/>
     <use xlink:href="#DejaVuSans-65" x="2169.03125"/>
     <use xlink:href="#DejaVuSans-20" x="2230.554688"/>
     <use xlink:href="#DejaVuSans-6f" x="2262.341797"/>
     <use xlink:href="#DejaVuSans-66" x="2323.523438"/>
     <use xlink:href="#DejaVuSans-20" x="2358.728516"/>
     <use xlink:href="#DejaVuSans-47" x="2390.515625"/>
     <use xlink:href="#DejaVuSans-72" x="2468.005859"/>
     <use xlink:href="#DejaVuSans-6f" x="2506.869141"/>
     <use xlink:href="#DejaVuSans-75" x="2568.050781"/>
     <use xlink:href="#DejaVuSans-70" x="2631.429688"/>
     <use xlink:href="#DejaVuSans-20" x="2694.90625"/>
     <use xlink:href="#DejaVuSans-31" x="2726.693359"/>
     <use xlink:href="#DejaVuSans-20" x="2790.316406"/>
     <use xlink:href="#DejaVuSans-4d" x="2822.103516"/>
     <use xlink:href="#DejaVuSans-6f" x="2908.382812"/>
     <use xlink:href="#DejaVuSans-75" x="2969.564453"/>
     <use xlink:href="#DejaVuSans-73" x="3032.943359"/>
     <use xlink:href="#DejaVuSans-65" x="3085.042969"/>
     <use xlink:href="#DejaVuSans-20" x="3146.566406"/>
     <use xlink:href="#DejaVuSans-36" x="3178.353516"/>
    </g>
   </g>
   <g id="legend_1">
    <g id="patch_53">
     <path d="M 1086.550625 64.233437 
L 1158.235 64.233437 
Q 1160.235 64.233437 1160.235 62.233437 
L 1160.235 33.877187 
Q 1160.235 31.877187 1158.235 31.877187 
L 1086.550625 31.877187 
Q 1084.550625 31.877187 1084.550625 33.877187 
L 1084.550625 62.233437 
Q 1084.550625 64.233437 1086.550625 64.233437 
z
" style="fill: #ffffff; opacity: 0.8; stroke: #cccccc; stroke-linejoin: miter"/>
    </g>
    <g id="patch_54">
     <path d="M 1088.550625 43.475625 
L 1108.550625 43.475625 
L 1108.550625 36.475625 
L 1088.550625 36.475625 
z
" style="fill: #add8e6; opacity: 0.9; stroke: #add8e6; stroke-linejoin: miter"/>
    </g>
    <g id="text_20">
     <!-- Meal -->
     <g transform="translate(1116.550625 43.475625) scale(0.1 -0.1)">
      <use xlink:href="#DejaVuSans-4d"/>
      <use xlink:href="#DejaVuSans-65" x="86.279297"/>
      <use xlink:href="#DejaVuSans-61" x="147.802734"/>
      <use xlink:href="#DejaVuSans-6c" x="209.082031"/>
     </g>
    </g>
    <g id="patch_55">
     <path d="M 1088.550625 58.15375 
L 1108.550625 58.15375 
L 1108.550625 51.15375 
L 1088.550625 51.15375 
z
" style="fill: #808080; opacity: 0.5; stroke: #808080; stroke-linejoin: miter"/>
    </g>
    <g id="text_21">
     <!-- Inactive -->
     <g transform="translate(1116.550625 58.15375) scale(0.1 -0.1)">
      <defs>
       <path id="DejaVuSans-49" d="M 628 4666 
L 1259 4666 
L 1259 0 
L 628 0 
L 628 4666 
z
" transform="scale(0.015625)"/>
       <path id="DejaVuSans-63" d="M 3122 3366 
L 3122 2828 
Q 2878 2963 2633 3030 
Q 2388 3097 2138 3097 
Q 1578 3097 1268 2742 
Q 959 2388 959 1747 
Q 959 1106 1268 751 
Q 1578 397 2138 397 
Q 2388 397 2633 464 
Q 2878 531 3122 666 
L 3122 134 
Q 2881 22 2623 -34 
Q 2366 -91 2075 -91 
Q 1284 -91 818 406 
Q 353 903 353 1747 
Q 353 2603 823 3093 
Q 1294 3584 2113 3584 
Q 2378 3584 2631 3529 
Q 2884 3475 3122 3366 
z
" transform="scale(0.015625)"/>
      </defs>
      <use xlink:href="#DejaVuSans-49"/>
      <use xlink:href="#DejaVuSans-6e" x="29.492188"/>
      <use xlink:href="#DejaVuSans-61" x="92.871094"/>
      <use xlink:href="#DejaVuSans-63" x="154.150391"/>
      <use xlink:href="#DejaVuSans-74" x="209.130859"/>
      <use xlink:href="#DejaVuSans-69" x="248.339844"/>
      <use xlink:href="#DejaVuSans-76" x="276.123047"/>
      <use xlink:href="#DejaVuSans-65" x="335.302734"/>
     </g>
    </g>
   </g>
  </g>
 </g>
 <defs>
  <clipPath id="p1818e867f4">
   <rect x="49.235" y="26.877187" width="1116" height="332.64"/>
  </clipPath>
 </defs>
</svg>
