<?xml version="1.0" encoding="utf-8" standalone="no"?>
<!DOCTYPE svg PUBLIC "-//W3C//DTD SVG 1.1//EN"
  "http://www.w3.org/Graphics/SVG/1.1/DTD/svg11.dtd">
<svg xmlns:xlink="http://www.w3.org/1999/xlink" width="1172.435pt" height="399.009062pt" viewBox="0 0 1172.435 399.009062" xmlns="http://www.w3.org/2000/svg" version="1.1">
 <metadata>
  <rdf:RDF xmlns:dc="http://purl.org/dc/elements/1.1/" xmlns:cc="http://creativecommons.org/ns#" xmlns:rdf="http://www.w3.org/1999/02/22-rdf-syntax-ns#">
   <cc:Work>
    <dc:type rdf:resource="http://purl.org/dc/dcmitype/StillImage"/>
    <dc:date>2025-07-29T18:38:29.928760</dc:date>
    <dc:format>image/svg+xml</dc:format>
    <dc:creator>
     <cc:Agent>
      <dc:title>Matplotlib v3.8.4, https://matplotlib.org/</dc:title>
     </cc:Agent>
    </dc:creator>
   </cc:Work>
  </rdf:RDF>
 </metadata>
 <defs>
  <style type="text/css">*{stroke-linejoin: round; stroke-linecap: butt}</style>
 </defs>
 <g id="figure_1">
  <g id="patch_1">
   <path d="M 0 399.009062 
L 1172.435 399.009062 
L 1172.435 0 
L 0 0 
z
" style="fill: #ffffff"/>
  </g>
  <g id="axes_1">
   <g id="patch_2">
    <path d="M 49.235 359.517187 
L 1165.235 359.517187 
L 1165.235 26.877187 
L 49.235 26.877187 
z
" style="fill: #ffffff"/>
   </g>
   <g id="patch_3">
    <path d="M 139.855502 359.517187 
L 139.855502 26.877187 
L 118.988511 26.877187 
L 118.988511 359.517187 
z
" clip-path="url(#p7d869f8b06)" style="fill: #add8e6; stroke: #add8e6; stroke-linejoin: miter"/>
   </g>
   <g id="patch_4">
    <path d="M 165.812265 359.517187 
L 165.812265 26.877187 
L 165.344382 26.877187 
L 165.344382 359.517187 
z
" clip-path="url(#p7d869f8b06)" style="fill: #add8e6; stroke: #add8e6; stroke-linejoin: miter"/>
   </g>
   <g id="patch_5">
    <path d="M 166.123161 359.517187 
L 166.123161 26.877187 
L 166.558724 26.877187 
L 166.558724 359.517187 
z
" clip-path="url(#p7d869f8b06)" style="fill: #add8e6; stroke: #add8e6; stroke-linejoin: miter"/>
   </g>
   <g id="patch_6">
    <path d="M 167.576063 359.517187 
L 167.576063 26.877187 
L 166.777275 26.877187 
L 166.777275 359.517187 
z
" clip-path="url(#p7d869f8b06)" style="fill: #add8e6; stroke: #add8e6; stroke-linejoin: miter"/>
   </g>
   <g id="patch_7">
    <path d="M 167.414459 359.517187 
L 167.414459 26.877187 
L 167.676104 26.877187 
L 167.676104 359.517187 
z
" clip-path="url(#p7d869f8b06)" style="fill: #add8e6; stroke: #add8e6; stroke-linejoin: miter"/>
   </g>
   <g id="patch_8">
    <path d="M 172.294915 359.517187 
L 172.294915 26.877187 
L 171.851657 26.877187 
L 171.851657 359.517187 
z
" clip-path="url(#p7d869f8b06)" style="fill: #add8e6; stroke: #add8e6; stroke-linejoin: miter"/>
   </g>
   <g id="patch_9">
    <path d="M 182.162025 359.517187 
L 182.162025 26.877187 
L 180.693732 26.877187 
L 180.693732 359.517187 
z
" clip-path="url(#p7d869f8b06)" style="fill: #add8e6; stroke: #add8e6; stroke-linejoin: miter"/>
   </g>
   <g id="patch_10">
    <path d="M 181.229336 359.517187 
L 181.229336 26.877187 
L 181.803417 26.877187 
L 181.803417 359.517187 
z
" clip-path="url(#p7d869f8b06)" style="fill: #add8e6; stroke: #add8e6; stroke-linejoin: miter"/>
   </g>
   <g id="patch_11">
    <path d="M 193.406621 359.517187 
L 193.406621 26.877187 
L 193.620555 26.877187 
L 193.620555 359.517187 
z
" clip-path="url(#p7d869f8b06)" style="fill: #add8e6; stroke: #add8e6; stroke-linejoin: miter"/>
   </g>
   <g id="patch_12">
    <path d="M 195.364344 359.517187 
L 195.364344 26.877187 
L 195.255069 26.877187 
L 195.255069 359.517187 
z
" clip-path="url(#p7d869f8b06)" style="fill: #add8e6; stroke: #add8e6; stroke-linejoin: miter"/>
   </g>
   <g id="patch_13">
    <path d="M 222.797096 359.517187 
L 222.797096 26.877187 
L 222.370768 26.877187 
L 222.370768 359.517187 
z
" clip-path="url(#p7d869f8b06)" style="fill: #add8e6; stroke: #add8e6; stroke-linejoin: miter"/>
   </g>
   <g id="patch_14">
    <path d="M 250.171362 359.517187 
L 250.171362 26.877187 
L 223.840599 26.877187 
L 223.840599 359.517187 
z
" clip-path="url(#p7d869f8b06)" style="fill: #add8e6; stroke: #add8e6; stroke-linejoin: miter"/>
   </g>
   <g id="patch_15">
    <path d="M 256.196901 359.517187 
L 256.196901 26.877187 
L 229.541391 26.877187 
L 229.541391 359.517187 
z
" clip-path="url(#p7d869f8b06)" style="fill: #add8e6; stroke: #add8e6; stroke-linejoin: miter"/>
   </g>
   <g id="patch_16">
    <path d="M 259.275083 359.517187 
L 259.275083 26.877187 
L 246.208203 26.877187 
L 246.208203 359.517187 
z
" clip-path="url(#p7d869f8b06)" style="fill: #add8e6; stroke: #add8e6; stroke-linejoin: miter"/>
   </g>
   <g id="patch_17">
    <path d="M 257.523597 359.517187 
L 257.523597 26.877187 
L 258.157703 26.877187 
L 258.157703 359.517187 
z
" clip-path="url(#p7d869f8b06)" style="fill: #add8e6; stroke: #add8e6; stroke-linejoin: miter"/>
   </g>
   <g id="patch_18">
    <path d="M 263.992395 359.517187 
L 263.992395 26.877187 
L 264.358699 26.877187 
L 264.358699 359.517187 
z
" clip-path="url(#p7d869f8b06)" style="fill: #add8e6; stroke: #add8e6; stroke-linejoin: miter"/>
   </g>
   <g id="patch_19">
    <path d="M 268.420359 359.517187 
L 268.420359 26.877187 
L 268.583503 26.877187 
L 268.583503 359.517187 
z
" clip-path="url(#p7d869f8b06)" style="fill: #add8e6; stroke: #add8e6; stroke-linejoin: miter"/>
   </g>
   <g id="patch_20">
    <path d="M 271.461602 359.517187 
L 271.461602 26.877187 
L 271.632441 26.877187 
L 271.632441 359.517187 
z
" clip-path="url(#p7d869f8b06)" style="fill: #add8e6; stroke: #add8e6; stroke-linejoin: miter"/>
   </g>
   <g id="patch_21">
    <path d="M 282.233697 359.517187 
L 282.233697 26.877187 
L 282.6354 26.877187 
L 282.6354 359.517187 
z
" clip-path="url(#p7d869f8b06)" style="fill: #add8e6; stroke: #add8e6; stroke-linejoin: miter"/>
   </g>
   <g id="patch_22">
    <path d="M 299.351463 359.517187 
L 299.351463 26.877187 
L 299.529998 26.877187 
L 299.529998 359.517187 
z
" clip-path="url(#p7d869f8b06)" style="fill: #add8e6; stroke: #add8e6; stroke-linejoin: miter"/>
   </g>
   <g id="patch_23">
    <path d="M 372.135059 359.517187 
L 372.135059 26.877187 
L 371.707192 26.877187 
L 371.707192 359.517187 
z
" clip-path="url(#p7d869f8b06)" style="fill: #add8e6; stroke: #add8e6; stroke-linejoin: miter"/>
   </g>
   <g id="patch_24">
    <path d="M 392.454134 359.517187 
L 392.454134 26.877187 
L 377.07554 26.877187 
L 377.07554 359.517187 
z
" clip-path="url(#p7d869f8b06)" style="fill: #add8e6; stroke: #add8e6; stroke-linejoin: miter"/>
   </g>
   <g id="patch_25">
    <path d="M 381.545059 359.517187 
L 381.545059 26.877187 
L 382.014482 26.877187 
L 382.014482 359.517187 
z
" clip-path="url(#p7d869f8b06)" style="fill: #add8e6; stroke: #add8e6; stroke-linejoin: miter"/>
   </g>
   <g id="patch_26">
    <path d="M 406.393677 359.517187 
L 406.393677 26.877187 
L 406.461397 26.877187 
L 406.461397 359.517187 
z
" clip-path="url(#p7d869f8b06)" style="fill: #add8e6; stroke: #add8e6; stroke-linejoin: miter"/>
   </g>
   <g id="patch_27">
    <path d="M 426.96978 359.517187 
L 426.96978 26.877187 
L 409.728887 26.877187 
L 409.728887 359.517187 
z
" clip-path="url(#p7d869f8b06)" style="fill: #add8e6; stroke: #add8e6; stroke-linejoin: miter"/>
   </g>
   <g id="patch_28">
    <path d="M 411.220266 359.517187 
L 411.220266 26.877187 
L 411.261821 26.877187 
L 411.261821 359.517187 
z
" clip-path="url(#p7d869f8b06)" style="fill: #add8e6; stroke: #add8e6; stroke-linejoin: miter"/>
   </g>
   <g id="patch_29">
    <path d="M 426.914373 359.517187 
L 426.914373 26.877187 
L 426.686587 26.877187 
L 426.686587 359.517187 
z
" clip-path="url(#p7d869f8b06)" style="fill: #add8e6; stroke: #add8e6; stroke-linejoin: miter"/>
   </g>
   <g id="patch_30">
    <path d="M 432.709049 359.517187 
L 432.709049 26.877187 
L 433.059962 26.877187 
L 433.059962 359.517187 
z
" clip-path="url(#p7d869f8b06)" style="fill: #add8e6; stroke: #add8e6; stroke-linejoin: miter"/>
   </g>
   <g id="patch_31">
    <path d="M 516.758788 359.517187 
L 516.758788 26.877187 
L 516.940401 26.877187 
L 516.940401 359.517187 
z
" clip-path="url(#p7d869f8b06)" style="fill: #add8e6; stroke: #add8e6; stroke-linejoin: miter"/>
   </g>
   <g id="patch_32">
    <path d="M 525.202239 359.517187 
L 525.202239 26.877187 
L 525.499284 26.877187 
L 525.499284 359.517187 
z
" clip-path="url(#p7d869f8b06)" style="fill: #add8e6; stroke: #add8e6; stroke-linejoin: miter"/>
   </g>
   <g id="patch_33">
    <path d="M 538.880138 359.517187 
L 538.880138 26.877187 
L 539.580424 26.877187 
L 539.580424 359.517187 
z
" clip-path="url(#p7d869f8b06)" style="fill: #add8e6; stroke: #add8e6; stroke-linejoin: miter"/>
   </g>
   <g id="patch_34">
    <path d="M 584.361805 359.517187 
L 584.361805 26.877187 
L 585.239086 26.877187 
L 585.239086 359.517187 
z
" clip-path="url(#p7d869f8b06)" style="fill: #add8e6; stroke: #add8e6; stroke-linejoin: miter"/>
   </g>
   <g id="patch_35">
    <path d="M 655.195373 359.517187 
L 655.195373 26.877187 
L 654.290387 26.877187 
L 654.290387 359.517187 
z
" clip-path="url(#p7d869f8b06)" style="fill: #add8e6; stroke: #add8e6; stroke-linejoin: miter"/>
   </g>
   <g id="patch_36">
    <path d="M 654.773662 359.517187 
L 654.773662 26.877187 
L 655.016838 26.877187 
L 655.016838 359.517187 
z
" clip-path="url(#p7d869f8b06)" style="fill: #add8e6; stroke: #add8e6; stroke-linejoin: miter"/>
   </g>
   <g id="patch_37">
    <path d="M 692.344403 359.517187 
L 692.344403 26.877187 
L 693.260162 26.877187 
L 693.260162 359.517187 
z
" clip-path="url(#p7d869f8b06)" style="fill: #add8e6; stroke: #add8e6; stroke-linejoin: miter"/>
   </g>
   <g id="patch_38">
    <path d="M 745.852428 359.517187 
L 745.852428 26.877187 
L 746.16948 26.877187 
L 746.16948 359.517187 
z
" clip-path="url(#p7d869f8b06)" style="fill: #add8e6; stroke: #add8e6; stroke-linejoin: miter"/>
   </g>
   <g id="patch_39">
    <path d="M 772.663386 359.517187 
L 772.663386 26.877187 
L 768.843363 26.877187 
L 768.843363 359.517187 
z
" clip-path="url(#p7d869f8b06)" style="fill: #add8e6; stroke: #add8e6; stroke-linejoin: miter"/>
   </g>
   <g id="patch_40">
    <path d="M 792.91628 359.517187 
L 792.91628 26.877187 
L 793.148683 26.877187 
L 793.148683 359.517187 
z
" clip-path="url(#p7d869f8b06)" style="fill: #add8e6; stroke: #add8e6; stroke-linejoin: miter"/>
   </g>
   <g id="patch_41">
    <path d="M 822.012788 359.517187 
L 822.012788 26.877187 
L 804.396357 26.877187 
L 804.396357 359.517187 
z
" clip-path="url(#p7d869f8b06)" style="fill: #add8e6; stroke: #add8e6; stroke-linejoin: miter"/>
   </g>
   <g id="patch_42">
    <path d="M 839.142867 359.517187 
L 839.142867 26.877187 
L 817.126176 26.877187 
L 817.126176 359.517187 
z
" clip-path="url(#p7d869f8b06)" style="fill: #add8e6; stroke: #add8e6; stroke-linejoin: miter"/>
   </g>
   <g id="patch_43">
    <path d="M 817.667935 359.517187 
L 817.667935 26.877187 
L 817.724882 26.877187 
L 817.724882 359.517187 
z
" clip-path="url(#p7d869f8b06)" style="fill: #add8e6; stroke: #add8e6; stroke-linejoin: miter"/>
   </g>
   <g id="patch_44">
    <path d="M 821.903513 359.517187 
L 821.903513 26.877187 
L 822.322145 26.877187 
L 822.322145 359.517187 
z
" clip-path="url(#p7d869f8b06)" style="fill: #add8e6; stroke: #add8e6; stroke-linejoin: miter"/>
   </g>
   <g id="patch_45">
    <path d="M 857.088664 359.517187 
L 857.088664 26.877187 
L 832.26621 26.877187 
L 832.26621 359.517187 
z
" clip-path="url(#p7d869f8b06)" style="fill: #add8e6; stroke: #add8e6; stroke-linejoin: miter"/>
   </g>
   <g id="patch_46">
    <path d="M 839.893943 359.517187 
L 839.893943 26.877187 
L 840.260247 26.877187 
L 840.260247 359.517187 
z
" clip-path="url(#p7d869f8b06)" style="fill: #add8e6; stroke: #add8e6; stroke-linejoin: miter"/>
   </g>
   <g id="patch_47">
    <path d="M 851.246276 359.517187 
L 851.246276 26.877187 
L 851.609501 26.877187 
L 851.609501 359.517187 
z
" clip-path="url(#p7d869f8b06)" style="fill: #add8e6; stroke: #add8e6; stroke-linejoin: miter"/>
   </g>
   <g id="patch_48">
    <path d="M 858.238364 359.517187 
L 858.238364 26.877187 
L 858.390734 26.877187 
L 858.390734 359.517187 
z
" clip-path="url(#p7d869f8b06)" style="fill: #add8e6; stroke: #add8e6; stroke-linejoin: miter"/>
   </g>
   <g id="patch_49">
    <path d="M 867.346703 359.517187 
L 867.346703 26.877187 
L 868.300939 26.877187 
L 868.300939 359.517187 
z
" clip-path="url(#p7d869f8b06)" style="fill: #add8e6; stroke: #add8e6; stroke-linejoin: miter"/>
   </g>
   <g id="patch_50">
    <path d="M 872.490344 359.517187 
L 872.490344 26.877187 
L 872.790466 26.877187 
L 872.790466 359.517187 
z
" clip-path="url(#p7d869f8b06)" style="fill: #add8e6; stroke: #add8e6; stroke-linejoin: miter"/>
   </g>
   <g id="patch_51">
    <path d="M 894.962606 359.517187 
L 894.962606 26.877187 
L 879.953394 26.877187 
L 879.953394 359.517187 
z
" clip-path="url(#p7d869f8b06)" style="fill: #add8e6; stroke: #add8e6; stroke-linejoin: miter"/>
   </g>
   <g id="patch_52">
    <path d="M 882.455955 359.517187 
L 882.455955 26.877187 
L 882.576004 26.877187 
L 882.576004 359.517187 
z
" clip-path="url(#p7d869f8b06)" style="fill: #add8e6; stroke: #add8e6; stroke-linejoin: miter"/>
   </g>
   <g id="patch_53">
    <path d="M 892.860208 359.517187 
L 892.860208 26.877187 
L 888.347594 26.877187 
L 888.347594 359.517187 
z
" clip-path="url(#p7d869f8b06)" style="fill: #add8e6; stroke: #add8e6; stroke-linejoin: miter"/>
   </g>
   <g id="patch_54">
    <path d="M 916.774598 359.517187 
L 916.774598 26.877187 
L 889.957483 26.877187 
L 889.957483 359.517187 
z
" clip-path="url(#p7d869f8b06)" style="fill: #add8e6; stroke: #add8e6; stroke-linejoin: miter"/>
   </g>
   <g id="patch_55">
    <path d="M 923.939065 359.517187 
L 923.939065 26.877187 
L 897.25739 26.877187 
L 897.25739 359.517187 
z
" clip-path="url(#p7d869f8b06)" style="fill: #add8e6; stroke: #add8e6; stroke-linejoin: miter"/>
   </g>
   <g id="patch_56">
    <path d="M 927.579014 359.517187 
L 927.579014 26.877187 
L 902.878149 26.877187 
L 902.878149 359.517187 
z
" clip-path="url(#p7d869f8b06)" style="fill: #add8e6; stroke: #add8e6; stroke-linejoin: miter"/>
   </g>
   <g id="patch_57">
    <path d="M 919.929734 359.517187 
L 919.929734 26.877187 
L 913.650244 26.877187 
L 913.650244 359.517187 
z
" clip-path="url(#p7d869f8b06)" style="fill: #add8e6; stroke: #add8e6; stroke-linejoin: miter"/>
   </g>
   <g id="patch_58">
    <path d="M 930.909606 359.517187 
L 930.909606 26.877187 
L 931.245128 26.877187 
L 931.245128 359.517187 
z
" clip-path="url(#p7d869f8b06)" style="fill: #add8e6; stroke: #add8e6; stroke-linejoin: miter"/>
   </g>
   <g id="patch_59">
    <path d="M 947.931949 359.517187 
L 947.931949 26.877187 
L 932.531808 26.877187 
L 932.531808 359.517187 
z
" clip-path="url(#p7d869f8b06)" style="fill: #add8e6; stroke: #add8e6; stroke-linejoin: miter"/>
   </g>
   <g id="patch_60">
    <path d="M 955.896743 359.517187 
L 955.896743 26.877187 
L 956.513918 26.877187 
L 956.513918 359.517187 
z
" clip-path="url(#p7d869f8b06)" style="fill: #add8e6; stroke: #add8e6; stroke-linejoin: miter"/>
   </g>
   <g id="patch_61">
    <path d="M 971.207616 359.517187 
L 971.207616 26.877187 
L 965.525294 26.877187 
L 965.525294 359.517187 
z
" clip-path="url(#p7d869f8b06)" style="fill: #add8e6; stroke: #add8e6; stroke-linejoin: miter"/>
   </g>
   <g id="patch_62">
    <path d="M 966.168634 359.517187 
L 966.168634 26.877187 
L 965.908527 26.877187 
L 965.908527 359.517187 
z
" clip-path="url(#p7d869f8b06)" style="fill: #add8e6; stroke: #add8e6; stroke-linejoin: miter"/>
   </g>
   <g id="patch_63">
    <path d="M 971.77708 359.517187 
L 971.77708 26.877187 
L 968.46034 26.877187 
L 968.46034 359.517187 
z
" clip-path="url(#p7d869f8b06)" style="fill: #add8e6; stroke: #add8e6; stroke-linejoin: miter"/>
   </g>
   <g id="patch_64">
    <path d="M 977.116185 359.517187 
L 977.116185 26.877187 
L 977.054622 26.877187 
L 977.054622 359.517187 
z
" clip-path="url(#p7d869f8b06)" style="fill: #add8e6; stroke: #add8e6; stroke-linejoin: miter"/>
   </g>
   <g id="patch_65">
    <path d="M 1011.73649 359.517187 
L 1011.73649 26.877187 
L 985.555019 26.877187 
L 985.555019 359.517187 
z
" clip-path="url(#p7d869f8b06)" style="fill: #add8e6; stroke: #add8e6; stroke-linejoin: miter"/>
   </g>
   <g id="patch_66">
    <path d="M 994.955785 359.517187 
L 994.955785 26.877187 
L 995.168179 26.877187 
L 995.168179 359.517187 
z
" clip-path="url(#p7d869f8b06)" style="fill: #add8e6; stroke: #add8e6; stroke-linejoin: miter"/>
   </g>
   <g id="patch_67">
    <path d="M 1005.657082 359.517187 
L 1005.657082 26.877187 
L 1004.681298 26.877187 
L 1004.681298 359.517187 
z
" clip-path="url(#p7d869f8b06)" style="fill: #add8e6; stroke: #add8e6; stroke-linejoin: miter"/>
   </g>
   <g id="patch_68">
    <path d="M 1025.4621 359.517187 
L 1025.4621 26.877187 
L 1019.805942 26.877187 
L 1019.805942 359.517187 
z
" clip-path="url(#p7d869f8b06)" style="fill: #add8e6; stroke: #add8e6; stroke-linejoin: miter"/>
   </g>
   <g id="patch_69">
    <path d="M 1037.177658 359.517187 
L 1037.177658 26.877187 
L 1036.663602 26.877187 
L 1036.663602 359.517187 
z
" clip-path="url(#p7d869f8b06)" style="fill: #add8e6; stroke: #add8e6; stroke-linejoin: miter"/>
   </g>
   <g id="patch_70">
    <path d="M 1065.327625 359.517187 
L 1065.327625 26.877187 
L 1039.93263 26.877187 
L 1039.93263 359.517187 
z
" clip-path="url(#p7d869f8b06)" style="fill: #add8e6; stroke: #add8e6; stroke-linejoin: miter"/>
   </g>
   <g id="patch_71">
    <path d="M 1101.423918 359.517187 
L 1101.423918 26.877187 
L 1087.741402 26.877187 
L 1087.741402 359.517187 
z
" clip-path="url(#p7d869f8b06)" style="fill: #add8e6; stroke: #add8e6; stroke-linejoin: miter"/>
   </g>
   <g id="patch_72">
    <path d="M 1088.47247 359.517187 
L 1088.47247 26.877187 
L 1089.3359 26.877187 
L 1089.3359 359.517187 
z
" clip-path="url(#p7d869f8b06)" style="fill: #add8e6; stroke: #add8e6; stroke-linejoin: miter"/>
   </g>
   <g id="patch_73">
    <path d="M 367.764042 359.517187 
L 367.764042 26.877187 
L 700.207617 26.877187 
L 700.207617 359.517187 
z
" clip-path="url(#p7d869f8b06)" style="fill: #808080; opacity: 0.4; stroke: #808080; stroke-linejoin: miter"/>
   </g>
   <g id="patch_74">
    <path d="M 709.442161 26.877187 
L 709.442161 26.877187 
L 709.442161 359.517187 
" clip-path="url(#p7d869f8b06)" style="fill: #808080; opacity: 0.4; stroke: #808080; stroke-linejoin: miter"/>
   </g>
   <g id="patch_75">
    <path d="M 718.676705 26.877187 
L 718.676705 26.877187 
L 718.676705 359.517187 
" clip-path="url(#p7d869f8b06)" style="fill: #808080; opacity: 0.4; stroke: #808080; stroke-linejoin: miter"/>
   </g>
   <g id="patch_76">
    <path d="M 1032.651192 359.517187 
L 1032.651192 26.877187 
L 1114.507727 26.877187 
L 1114.507727 359.517187 
z
" clip-path="url(#p7d869f8b06)" style="fill: #808080; opacity: 0.4; stroke: #808080; stroke-linejoin: miter"/>
   </g>
   <g id="matplotlib.axis_1">
    <g id="xtick_1">
     <g id="line2d_1">
      <defs>
       <path id="m2e7dc342cb" d="M 0 0 
L 0 3.5 
" style="stroke: #000000; stroke-width: 0.8"/>
      </defs>
      <g>
       <use xlink:href="#m2e7dc342cb" x="60.553857" y="359.517187" style="stroke: #000000; stroke-width: 0.8"/>
      </g>
     </g>
     <g id="text_1">
      <!-- 04-01 08 -->
      <g transform="translate(38.073388 374.115625) scale(0.1 -0.1)">
       <defs>
        <path id="DejaVuSans-30" d="M 2034 4250 
Q 1547 4250 1301 3770 
Q 1056 3291 1056 2328 
Q 1056 1369 1301 889 
Q 1547 409 2034 409 
Q 2525 409 2770 889 
Q 3016 1369 3016 2328 
Q 3016 3291 2770 3770 
Q 2525 4250 2034 4250 
z
M 2034 4750 
Q 2819 4750 3233 4129 
Q 3647 3509 3647 2328 
Q 3647 1150 3233 529 
Q 2819 -91 2034 -91 
Q 1250 -91 836 529 
Q 422 1150 422 2328 
Q 422 3509 836 4129 
Q 1250 4750 2034 4750 
z
" transform="scale(0.015625)"/>
        <path id="DejaVuSans-34" d="M 2419 4116 
L 825 1625 
L 2419 1625 
L 2419 4116 
z
M 2253 4666 
L 3047 4666 
L 3047 1625 
L 3713 1625 
L 3713 1100 
L 3047 1100 
L 3047 0 
L 2419 0 
L 2419 1100 
L 313 1100 
L 313 1709 
L 2253 4666 
z
" transform="scale(0.015625)"/>
        <path id="DejaVuSans-2d" d="M 313 2009 
L 1997 2009 
L 1997 1497 
L 313 1497 
L 313 2009 
z
" transform="scale(0.015625)"/>
        <path id="DejaVuSans-31" d="M 794 531 
L 1825 531 
L 1825 4091 
L 703 3866 
L 703 4441 
L 1819 4666 
L 2450 4666 
L 2450 531 
L 3481 531 
L 3481 0 
L 794 0 
L 794 531 
z
" transform="scale(0.015625)"/>
        <path id="DejaVuSans-20" transform="scale(0.015625)"/>
        <path id="DejaVuSans-38" d="M 2034 2216 
Q 1584 2216 1326 1975 
Q 1069 1734 1069 1313 
Q 1069 891 1326 650 
Q 1584 409 2034 409 
Q 2484 409 2743 651 
Q 3003 894 3003 1313 
Q 3003 1734 2745 1975 
Q 2488 2216 2034 2216 
z
M 1403 2484 
Q 997 2584 770 2862 
Q 544 3141 544 3541 
Q 544 4100 942 4425 
Q 1341 4750 2034 4750 
Q 2731 4750 3128 4425 
Q 3525 4100 3525 3541 
Q 3525 3141 3298 2862 
Q 3072 2584 2669 2484 
Q 3125 2378 3379 2068 
Q 3634 1759 3634 1313 
Q 3634 634 3220 271 
Q 2806 -91 2034 -91 
Q 1263 -91 848 271 
Q 434 634 434 1313 
Q 434 1759 690 2068 
Q 947 2378 1403 2484 
z
M 1172 3481 
Q 1172 3119 1398 2916 
Q 1625 2713 2034 2713 
Q 2441 2713 2670 2916 
Q 2900 3119 2900 3481 
Q 2900 3844 2670 4047 
Q 2441 4250 2034 4250 
Q 1625 4250 1398 4047 
Q 1172 3844 1172 3481 
z
" transform="scale(0.015625)"/>
       </defs>
       <use xlink:href="#DejaVuSans-30"/>
       <use xlink:href="#DejaVuSans-34" x="63.623047"/>
       <use xlink:href="#DejaVuSans-2d" x="127.246094"/>
       <use xlink:href="#DejaVuSans-30" x="163.330078"/>
       <use xlink:href="#DejaVuSans-31" x="226.953125"/>
       <use xlink:href="#DejaVuSans-20" x="290.576172"/>
       <use xlink:href="#DejaVuSans-30" x="322.363281"/>
       <use xlink:href="#DejaVuSans-38" x="385.986328"/>
      </g>
     </g>
    </g>
    <g id="xtick_2">
     <g id="line2d_2">
      <g>
       <use xlink:href="#m2e7dc342cb" x="171.368382" y="359.517187" style="stroke: #000000; stroke-width: 0.8"/>
      </g>
     </g>
     <g id="text_2">
      <!-- 04-01 12 -->
      <g transform="translate(148.887914 374.115625) scale(0.1 -0.1)">
       <defs>
        <path id="DejaVuSans-32" d="M 1228 531 
L 3431 531 
L 3431 0 
L 469 0 
L 469 531 
Q 828 903 1448 1529 
Q 2069 2156 2228 2338 
Q 2531 2678 2651 2914 
Q 2772 3150 2772 3378 
Q 2772 3750 2511 3984 
Q 2250 4219 1831 4219 
Q 1534 4219 1204 4116 
Q 875 4013 500 3803 
L 500 4441 
Q 881 4594 1212 4672 
Q 1544 4750 1819 4750 
Q 2544 4750 2975 4387 
Q 3406 4025 3406 3419 
Q 3406 3131 3298 2873 
Q 3191 2616 2906 2266 
Q 2828 2175 2409 1742 
Q 1991 1309 1228 531 
z
" transform="scale(0.015625)"/>
       </defs>
       <use xlink:href="#DejaVuSans-30"/>
       <use xlink:href="#DejaVuSans-34" x="63.623047"/>
       <use xlink:href="#DejaVuSans-2d" x="127.246094"/>
       <use xlink:href="#DejaVuSans-30" x="163.330078"/>
       <use xlink:href="#DejaVuSans-31" x="226.953125"/>
       <use xlink:href="#DejaVuSans-20" x="290.576172"/>
       <use xlink:href="#DejaVuSans-31" x="322.363281"/>
       <use xlink:href="#DejaVuSans-32" x="385.986328"/>
      </g>
     </g>
    </g>
    <g id="xtick_3">
     <g id="line2d_3">
      <g>
       <use xlink:href="#m2e7dc342cb" x="282.182907" y="359.517187" style="stroke: #000000; stroke-width: 0.8"/>
      </g>
     </g>
     <g id="text_3">
      <!-- 04-01 16 -->
      <g transform="translate(259.702439 374.115625) scale(0.1 -0.1)">
       <defs>
        <path id="DejaVuSans-36" d="M 2113 2584 
Q 1688 2584 1439 2293 
Q 1191 2003 1191 1497 
Q 1191 994 1439 701 
Q 1688 409 2113 409 
Q 2538 409 2786 701 
Q 3034 994 3034 1497 
Q 3034 2003 2786 2293 
Q 2538 2584 2113 2584 
z
M 3366 4563 
L 3366 3988 
Q 3128 4100 2886 4159 
Q 2644 4219 2406 4219 
Q 1781 4219 1451 3797 
Q 1122 3375 1075 2522 
Q 1259 2794 1537 2939 
Q 1816 3084 2150 3084 
Q 2853 3084 3261 2657 
Q 3669 2231 3669 1497 
Q 3669 778 3244 343 
Q 2819 -91 2113 -91 
Q 1303 -91 875 529 
Q 447 1150 447 2328 
Q 447 3434 972 4092 
Q 1497 4750 2381 4750 
Q 2619 4750 2861 4703 
Q 3103 4656 3366 4563 
z
" transform="scale(0.015625)"/>
       </defs>
       <use xlink:href="#DejaVuSans-30"/>
       <use xlink:href="#DejaVuSans-34" x="63.623047"/>
       <use xlink:href="#DejaVuSans-2d" x="127.246094"/>
       <use xlink:href="#DejaVuSans-30" x="163.330078"/>
       <use xlink:href="#DejaVuSans-31" x="226.953125"/>
       <use xlink:href="#DejaVuSans-20" x="290.576172"/>
       <use xlink:href="#DejaVuSans-31" x="322.363281"/>
       <use xlink:href="#DejaVuSans-36" x="385.986328"/>
      </g>
     </g>
    </g>
    <g id="xtick_4">
     <g id="line2d_4">
      <g>
       <use xlink:href="#m2e7dc342cb" x="392.997433" y="359.517187" style="stroke: #000000; stroke-width: 0.8"/>
      </g>
     </g>
     <g id="text_4">
      <!-- 04-01 20 -->
      <g transform="translate(370.516964 374.115625) scale(0.1 -0.1)">
       <use xlink:href="#DejaVuSans-30"/>
       <use xlink:href="#DejaVuSans-34" x="63.623047"/>
       <use xlink:href="#DejaVuSans-2d" x="127.246094"/>
       <use xlink:href="#DejaVuSans-30" x="163.330078"/>
       <use xlink:href="#DejaVuSans-31" x="226.953125"/>
       <use xlink:href="#DejaVuSans-20" x="290.576172"/>
       <use xlink:href="#DejaVuSans-32" x="322.363281"/>
       <use xlink:href="#DejaVuSans-30" x="385.986328"/>
      </g>
     </g>
    </g>
    <g id="xtick_5">
     <g id="line2d_5">
      <g>
       <use xlink:href="#m2e7dc342cb" x="503.811958" y="359.517187" style="stroke: #000000; stroke-width: 0.8"/>
      </g>
     </g>
     <g id="text_5">
      <!-- 04-02 00 -->
      <g transform="translate(481.331489 374.115625) scale(0.1 -0.1)">
       <use xlink:href="#DejaVuSans-30"/>
       <use xlink:href="#DejaVuSans-34" x="63.623047"/>
       <use xlink:href="#DejaVuSans-2d" x="127.246094"/>
       <use xlink:href="#DejaVuSans-30" x="163.330078"/>
       <use xlink:href="#DejaVuSans-32" x="226.953125"/>
       <use xlink:href="#DejaVuSans-20" x="290.576172"/>
       <use xlink:href="#DejaVuSans-30" x="322.363281"/>
       <use xlink:href="#DejaVuSans-30" x="385.986328"/>
      </g>
     </g>
    </g>
    <g id="xtick_6">
     <g id="line2d_6">
      <g>
       <use xlink:href="#m2e7dc342cb" x="614.626483" y="359.517187" style="stroke: #000000; stroke-width: 0.8"/>
      </g>
     </g>
     <g id="text_6">
      <!-- 04-02 04 -->
      <g transform="translate(592.146014 374.115625) scale(0.1 -0.1)">
       <use xlink:href="#DejaVuSans-30"/>
       <use xlink:href="#DejaVuSans-34" x="63.623047"/>
       <use xlink:href="#DejaVuSans-2d" x="127.246094"/>
       <use xlink:href="#DejaVuSans-30" x="163.330078"/>
       <use xlink:href="#DejaVuSans-32" x="226.953125"/>
       <use xlink:href="#DejaVuSans-20" x="290.576172"/>
       <use xlink:href="#DejaVuSans-30" x="322.363281"/>
       <use xlink:href="#DejaVuSans-34" x="385.986328"/>
      </g>
     </g>
    </g>
    <g id="xtick_7">
     <g id="line2d_7">
      <g>
       <use xlink:href="#m2e7dc342cb" x="725.441008" y="359.517187" style="stroke: #000000; stroke-width: 0.8"/>
      </g>
     </g>
     <g id="text_7">
      <!-- 04-02 08 -->
      <g transform="translate(702.960539 374.115625) scale(0.1 -0.1)">
       <use xlink:href="#DejaVuSans-30"/>
       <use xlink:href="#DejaVuSans-34" x="63.623047"/>
       <use xlink:href="#DejaVuSans-2d" x="127.246094"/>
       <use xlink:href="#DejaVuSans-30" x="163.330078"/>
       <use xlink:href="#DejaVuSans-32" x="226.953125"/>
       <use xlink:href="#DejaVuSans-20" x="290.576172"/>
       <use xlink:href="#DejaVuSans-30" x="322.363281"/>
       <use xlink:href="#DejaVuSans-38" x="385.986328"/>
      </g>
     </g>
    </g>
    <g id="xtick_8">
     <g id="line2d_8">
      <g>
       <use xlink:href="#m2e7dc342cb" x="836.255533" y="359.517187" style="stroke: #000000; stroke-width: 0.8"/>
      </g>
     </g>
     <g id="text_8">
      <!-- 04-02 12 -->
      <g transform="translate(813.775064 374.115625) scale(0.1 -0.1)">
       <use xlink:href="#DejaVuSans-30"/>
       <use xlink:href="#DejaVuSans-34" x="63.623047"/>
       <use xlink:href="#DejaVuSans-2d" x="127.246094"/>
       <use xlink:href="#DejaVuSans-30" x="163.330078"/>
       <use xlink:href="#DejaVuSans-32" x="226.953125"/>
       <use xlink:href="#DejaVuSans-20" x="290.576172"/>
       <use xlink:href="#DejaVuSans-31" x="322.363281"/>
       <use xlink:href="#DejaVuSans-32" x="385.986328"/>
      </g>
     </g>
    </g>
    <g id="xtick_9">
     <g id="line2d_9">
      <g>
       <use xlink:href="#m2e7dc342cb" x="947.070058" y="359.517187" style="stroke: #000000; stroke-width: 0.8"/>
      </g>
     </g>
     <g id="text_9">
      <!-- 04-02 16 -->
      <g transform="translate(924.589589 374.115625) scale(0.1 -0.1)">
       <use xlink:href="#DejaVuSans-30"/>
       <use xlink:href="#DejaVuSans-34" x="63.623047"/>
       <use xlink:href="#DejaVuSans-2d" x="127.246094"/>
       <use xlink:href="#DejaVuSans-30" x="163.330078"/>
       <use xlink:href="#DejaVuSans-32" x="226.953125"/>
       <use xlink:href="#DejaVuSans-20" x="290.576172"/>
       <use xlink:href="#DejaVuSans-31" x="322.363281"/>
       <use xlink:href="#DejaVuSans-36" x="385.986328"/>
      </g>
     </g>
    </g>
    <g id="xtick_10">
     <g id="line2d_10">
      <g>
       <use xlink:href="#m2e7dc342cb" x="1057.884583" y="359.517187" style="stroke: #000000; stroke-width: 0.8"/>
      </g>
     </g>
     <g id="text_10">
      <!-- 04-02 20 -->
      <g transform="translate(1035.404114 374.115625) scale(0.1 -0.1)">
       <use xlink:href="#DejaVuSans-30"/>
       <use xlink:href="#DejaVuSans-34" x="63.623047"/>
       <use xlink:href="#DejaVuSans-2d" x="127.246094"/>
       <use xlink:href="#DejaVuSans-30" x="163.330078"/>
       <use xlink:href="#DejaVuSans-32" x="226.953125"/>
       <use xlink:href="#DejaVuSans-20" x="290.576172"/>
       <use xlink:href="#DejaVuSans-32" x="322.363281"/>
       <use xlink:href="#DejaVuSans-30" x="385.986328"/>
      </g>
     </g>
    </g>
    <g id="text_11">
     <!-- Time -->
     <g transform="translate(592.554688 389.313437) scale(0.12 -0.12)">
      <defs>
       <path id="DejaVuSans-54" d="M -19 4666 
L 3928 4666 
L 3928 4134 
L 2272 4134 
L 2272 0 
L 1638 0 
L 1638 4134 
L -19 4134 
L -19 4666 
z
" transform="scale(0.015625)"/>
       <path id="DejaVuSans-69" d="M 603 3500 
L 1178 3500 
L 1178 0 
L 603 0 
L 603 3500 
z
M 603 4863 
L 1178 4863 
L 1178 4134 
L 603 4134 
L 603 4863 
z
" transform="scale(0.015625)"/>
       <path id="DejaVuSans-6d" d="M 3328 2828 
Q 3544 3216 3844 3400 
Q 4144 3584 4550 3584 
Q 5097 3584 5394 3201 
Q 5691 2819 5691 2113 
L 5691 0 
L 5113 0 
L 5113 2094 
Q 5113 2597 4934 2840 
Q 4756 3084 4391 3084 
Q 3944 3084 3684 2787 
Q 3425 2491 3425 1978 
L 3425 0 
L 2847 0 
L 2847 2094 
Q 2847 2600 2669 2842 
Q 2491 3084 2119 3084 
Q 1678 3084 1418 2786 
Q 1159 2488 1159 1978 
L 1159 0 
L 581 0 
L 581 3500 
L 1159 3500 
L 1159 2956 
Q 1356 3278 1631 3431 
Q 1906 3584 2284 3584 
Q 2666 3584 2933 3390 
Q 3200 3197 3328 2828 
z
" transform="scale(0.015625)"/>
       <path id="DejaVuSans-65" d="M 3597 1894 
L 3597 1613 
L 953 1613 
Q 991 1019 1311 708 
Q 1631 397 2203 397 
Q 2534 397 2845 478 
Q 3156 559 3463 722 
L 3463 178 
Q 3153 47 2828 -22 
Q 2503 -91 2169 -91 
Q 1331 -91 842 396 
Q 353 884 353 1716 
Q 353 2575 817 3079 
Q 1281 3584 2069 3584 
Q 2775 3584 3186 3129 
Q 3597 2675 3597 1894 
z
M 3022 2063 
Q 3016 2534 2758 2815 
Q 2500 3097 2075 3097 
Q 1594 3097 1305 2825 
Q 1016 2553 972 2059 
L 3022 2063 
z
" transform="scale(0.015625)"/>
      </defs>
      <use xlink:href="#DejaVuSans-54"/>
      <use xlink:href="#DejaVuSans-69" x="57.958984"/>
      <use xlink:href="#DejaVuSans-6d" x="85.742188"/>
      <use xlink:href="#DejaVuSans-65" x="183.154297"/>
     </g>
    </g>
   </g>
   <g id="matplotlib.axis_2">
    <g id="ytick_1">
     <g id="line2d_11">
      <defs>
       <path id="m3c183bda3d" d="M 0 0 
L -3.5 0 
" style="stroke: #000000; stroke-width: 0.8"/>
      </defs>
      <g>
       <use xlink:href="#m3c183bda3d" x="49.235" y="344.397187" style="stroke: #000000; stroke-width: 0.8"/>
      </g>
     </g>
     <g id="text_12">
      <!-- 0 -->
      <g transform="translate(35.8725 348.196406) scale(0.1 -0.1)">
       <use xlink:href="#DejaVuSans-30"/>
      </g>
     </g>
    </g>
    <g id="ytick_2">
     <g id="line2d_12">
      <g>
       <use xlink:href="#m3c183bda3d" x="49.235" y="296.397187" style="stroke: #000000; stroke-width: 0.8"/>
      </g>
     </g>
     <g id="text_13">
      <!-- 50 -->
      <g transform="translate(29.51 300.196406) scale(0.1 -0.1)">
       <defs>
        <path id="DejaVuSans-35" d="M 691 4666 
L 3169 4666 
L 3169 4134 
L 1269 4134 
L 1269 2991 
Q 1406 3038 1543 3061 
Q 1681 3084 1819 3084 
Q 2600 3084 3056 2656 
Q 3513 2228 3513 1497 
Q 3513 744 3044 326 
Q 2575 -91 1722 -91 
Q 1428 -91 1123 -41 
Q 819 9 494 109 
L 494 744 
Q 775 591 1075 516 
Q 1375 441 1709 441 
Q 2250 441 2565 725 
Q 2881 1009 2881 1497 
Q 2881 1984 2565 2268 
Q 2250 2553 1709 2553 
Q 1456 2553 1204 2497 
Q 953 2441 691 2322 
L 691 4666 
z
" transform="scale(0.015625)"/>
       </defs>
       <use xlink:href="#DejaVuSans-35"/>
       <use xlink:href="#DejaVuSans-30" x="63.623047"/>
      </g>
     </g>
    </g>
    <g id="ytick_3">
     <g id="line2d_13">
      <g>
       <use xlink:href="#m3c183bda3d" x="49.235" y="248.397187" style="stroke: #000000; stroke-width: 0.8"/>
      </g>
     </g>
     <g id="text_14">
      <!-- 100 -->
      <g transform="translate(23.1475 252.196406) scale(0.1 -0.1)">
       <use xlink:href="#DejaVuSans-31"/>
       <use xlink:href="#DejaVuSans-30" x="63.623047"/>
       <use xlink:href="#DejaVuSans-30" x="127.246094"/>
      </g>
     </g>
    </g>
    <g id="ytick_4">
     <g id="line2d_14">
      <g>
       <use xlink:href="#m3c183bda3d" x="49.235" y="200.397187" style="stroke: #000000; stroke-width: 0.8"/>
      </g>
     </g>
     <g id="text_15">
      <!-- 150 -->
      <g transform="translate(23.1475 204.196406) scale(0.1 -0.1)">
       <use xlink:href="#DejaVuSans-31"/>
       <use xlink:href="#DejaVuSans-35" x="63.623047"/>
       <use xlink:href="#DejaVuSans-30" x="127.246094"/>
      </g>
     </g>
    </g>
    <g id="ytick_5">
     <g id="line2d_15">
      <g>
       <use xlink:href="#m3c183bda3d" x="49.235" y="152.397187" style="stroke: #000000; stroke-width: 0.8"/>
      </g>
     </g>
     <g id="text_16">
      <!-- 200 -->
      <g transform="translate(23.1475 156.196406) scale(0.1 -0.1)">
       <use xlink:href="#DejaVuSans-32"/>
       <use xlink:href="#DejaVuSans-30" x="63.623047"/>
       <use xlink:href="#DejaVuSans-30" x="127.246094"/>
      </g>
     </g>
    </g>
    <g id="ytick_6">
     <g id="line2d_16">
      <g>
       <use xlink:href="#m3c183bda3d" x="49.235" y="104.397187" style="stroke: #000000; stroke-width: 0.8"/>
      </g>
     </g>
     <g id="text_17">
      <!-- 250 -->
      <g transform="translate(23.1475 108.196406) scale(0.1 -0.1)">
       <use xlink:href="#DejaVuSans-32"/>
       <use xlink:href="#DejaVuSans-35" x="63.623047"/>
       <use xlink:href="#DejaVuSans-30" x="127.246094"/>
      </g>
     </g>
    </g>
    <g id="ytick_7">
     <g id="line2d_17">
      <g>
       <use xlink:href="#m3c183bda3d" x="49.235" y="56.397187" style="stroke: #000000; stroke-width: 0.8"/>
      </g>
     </g>
     <g id="text_18">
      <!-- 300 -->
      <g transform="translate(23.1475 60.196406) scale(0.1 -0.1)">
       <defs>
        <path id="DejaVuSans-33" d="M 2597 2516 
Q 3050 2419 3304 2112 
Q 3559 1806 3559 1356 
Q 3559 666 3084 287 
Q 2609 -91 1734 -91 
Q 1441 -91 1130 -33 
Q 819 25 488 141 
L 488 750 
Q 750 597 1062 519 
Q 1375 441 1716 441 
Q 2309 441 2620 675 
Q 2931 909 2931 1356 
Q 2931 1769 2642 2001 
Q 2353 2234 1838 2234 
L 1294 2234 
L 1294 2753 
L 1863 2753 
Q 2328 2753 2575 2939 
Q 2822 3125 2822 3475 
Q 2822 3834 2567 4026 
Q 2313 4219 1838 4219 
Q 1578 4219 1281 4162 
Q 984 4106 628 3988 
L 628 4550 
Q 988 4650 1302 4700 
Q 1616 4750 1894 4750 
Q 2613 4750 3031 4423 
Q 3450 4097 3450 3541 
Q 3450 3153 3228 2886 
Q 3006 2619 2597 2516 
z
" transform="scale(0.015625)"/>
       </defs>
       <use xlink:href="#DejaVuSans-33"/>
       <use xlink:href="#DejaVuSans-30" x="63.623047"/>
       <use xlink:href="#DejaVuSans-30" x="127.246094"/>
      </g>
     </g>
    </g>
    <g id="text_19">
     <!-- Pellet_Count -->
     <g transform="translate(16.318125 230.485312) rotate(-90) scale(0.12 -0.12)">
      <defs>
       <path id="DejaVuSans-50" d="M 1259 4147 
L 1259 2394 
L 2053 2394 
Q 2494 2394 2734 2622 
Q 2975 2850 2975 3272 
Q 2975 3691 2734 3919 
Q 2494 4147 2053 4147 
L 1259 4147 
z
M 628 4666 
L 2053 4666 
Q 2838 4666 3239 4311 
Q 3641 3956 3641 3272 
Q 3641 2581 3239 2228 
Q 2838 1875 2053 1875 
L 1259 1875 
L 1259 0 
L 628 0 
L 628 4666 
z
" transform="scale(0.015625)"/>
       <path id="DejaVuSans-6c" d="M 603 4863 
L 1178 4863 
L 1178 0 
L 603 0 
L 603 4863 
z
" transform="scale(0.015625)"/>
       <path id="DejaVuSans-74" d="M 1172 4494 
L 1172 3500 
L 2356 3500 
L 2356 3053 
L 1172 3053 
L 1172 1153 
Q 1172 725 1289 603 
Q 1406 481 1766 481 
L 2356 481 
L 2356 0 
L 1766 0 
Q 1100 0 847 248 
Q 594 497 594 1153 
L 594 3053 
L 172 3053 
L 172 3500 
L 594 3500 
L 594 4494 
L 1172 4494 
z
" transform="scale(0.015625)"/>
       <path id="DejaVuSans-5f" d="M 3263 -1063 
L 3263 -1509 
L -63 -1509 
L -63 -1063 
L 3263 -1063 
z
" transform="scale(0.015625)"/>
       <path id="DejaVuSans-43" d="M 4122 4306 
L 4122 3641 
Q 3803 3938 3442 4084 
Q 3081 4231 2675 4231 
Q 1875 4231 1450 3742 
Q 1025 3253 1025 2328 
Q 1025 1406 1450 917 
Q 1875 428 2675 428 
Q 3081 428 3442 575 
Q 3803 722 4122 1019 
L 4122 359 
Q 3791 134 3420 21 
Q 3050 -91 2638 -91 
Q 1578 -91 968 557 
Q 359 1206 359 2328 
Q 359 3453 968 4101 
Q 1578 4750 2638 4750 
Q 3056 4750 3426 4639 
Q 3797 4528 4122 4306 
z
" transform="scale(0.015625)"/>
       <path id="DejaVuSans-6f" d="M 1959 3097 
Q 1497 3097 1228 2736 
Q 959 2375 959 1747 
Q 959 1119 1226 758 
Q 1494 397 1959 397 
Q 2419 397 2687 759 
Q 2956 1122 2956 1747 
Q 2956 2369 2687 2733 
Q 2419 3097 1959 3097 
z
M 1959 3584 
Q 2709 3584 3137 3096 
Q 3566 2609 3566 1747 
Q 3566 888 3137 398 
Q 2709 -91 1959 -91 
Q 1206 -91 779 398 
Q 353 888 353 1747 
Q 353 2609 779 3096 
Q 1206 3584 1959 3584 
z
" transform="scale(0.015625)"/>
       <path id="DejaVuSans-75" d="M 544 1381 
L 544 3500 
L 1119 3500 
L 1119 1403 
Q 1119 906 1312 657 
Q 1506 409 1894 409 
Q 2359 409 2629 706 
Q 2900 1003 2900 1516 
L 2900 3500 
L 3475 3500 
L 3475 0 
L 2900 0 
L 2900 538 
Q 2691 219 2414 64 
Q 2138 -91 1772 -91 
Q 1169 -91 856 284 
Q 544 659 544 1381 
z
M 1991 3584 
L 1991 3584 
z
" transform="scale(0.015625)"/>
       <path id="DejaVuSans-6e" d="M 3513 2113 
L 3513 0 
L 2938 0 
L 2938 2094 
Q 2938 2591 2744 2837 
Q 2550 3084 2163 3084 
Q 1697 3084 1428 2787 
Q 1159 2491 1159 1978 
L 1159 0 
L 581 0 
L 581 3500 
L 1159 3500 
L 1159 2956 
Q 1366 3272 1645 3428 
Q 1925 3584 2291 3584 
Q 2894 3584 3203 3211 
Q 3513 2838 3513 2113 
z
" transform="scale(0.015625)"/>
      </defs>
      <use xlink:href="#DejaVuSans-50"/>
      <use xlink:href="#DejaVuSans-65" x="56.677734"/>
      <use xlink:href="#DejaVuSans-6c" x="118.201172"/>
      <use xlink:href="#DejaVuSans-6c" x="145.984375"/>
      <use xlink:href="#DejaVuSans-65" x="173.767578"/>
      <use xlink:href="#DejaVuSans-74" x="235.291016"/>
      <use xlink:href="#DejaVuSans-5f" x="274.5"/>
      <use xlink:href="#DejaVuSans-43" x="324.5"/>
      <use xlink:href="#DejaVuSans-6f" x="394.324219"/>
      <use xlink:href="#DejaVuSans-75" x="455.505859"/>
      <use xlink:href="#DejaVuSans-6e" x="518.884766"/>
      <use xlink:href="#DejaVuSans-74" x="582.263672"/>
     </g>
    </g>
   </g>
   <g id="line2d_18">
    <path d="M 99.962273 344.397187 
L 107.54999 344.397187 
L 108.396489 343.437187 
L 109.735498 343.437187 
L 109.93558 342.477187 
L 114.306597 342.477187 
L 114.599025 341.517187 
L 116.353588 341.517187 
L 116.407456 340.557187 
L 119.270165 340.557187 
L 119.293251 339.597187 
L 120.824646 339.597187 
L 120.924687 338.637187 
L 159.317303 338.637187 
L 159.394257 337.677187 
L 163.172725 337.677187 
L 163.195811 336.717187 
L 163.903793 336.717187 
L 163.926879 335.757187 
L 164.403997 335.757187 
L 164.427084 334.797187 
L 164.573297 334.797187 
L 164.719511 332.877187 
L 164.927288 332.877187 
L 164.934984 331.917187 
L 165.119674 331.917187 
L 165.12737 330.957187 
L 165.512143 330.957187 
L 165.612183 329.037187 
L 165.773788 329.037187 
L 165.781483 328.077187 
L 165.904611 328.077187 
L 166.027738 326.157187 
L 166.273992 326.157187 
L 166.443292 324.237187 
L 166.612592 324.237187 
L 166.620288 323.277187 
L 166.935801 323.277187 
L 166.943497 322.317187 
L 167.058929 322.317187 
L 167.17436 320.397187 
L 167.328269 320.397187 
L 167.335965 319.437187 
L 167.451397 319.437187 
L 167.459092 318.477187 
L 167.85156 318.477187 
L 167.966992 317.517187 
L 169.729251 317.517187 
L 169.744642 316.557187 
L 170.798919 316.557187 
L 170.806614 315.597187 
L 171.206778 315.597187 
L 171.222169 314.637187 
L 171.337601 314.637187 
L 171.352991 313.677187 
L 171.522291 313.677187 
L 171.537682 312.717187 
L 173.376896 312.717187 
L 173.384591 311.757187 
L 175.916395 311.757187 
L 176.039522 310.797187 
L 180.272022 310.797187 
L 180.287413 309.837187 
L 180.972308 309.837187 
L 180.980003 308.877187 
L 181.110826 308.877187 
L 181.226258 306.957187 
L 181.349385 306.957187 
L 181.457121 305.037187 
L 183.911971 305.037187 
L 183.927362 304.077187 
L 184.612257 304.077187 
L 184.635344 303.117188 
L 188.998665 303.117188 
L 189.006361 302.157187 
L 193.084951 302.157187 
L 193.092647 301.197187 
L 193.215774 301.197187 
L 193.338901 299.277187 
L 194.662519 299.277187 
L 194.670214 298.317187 
L 194.785646 298.317187 
L 194.908773 296.397187 
L 195.724492 296.397187 
L 195.755273 295.437187 
L 198.664155 295.437187 
L 198.67185 294.477187 
L 199.502959 294.477187 
L 199.51835 293.517187 
L 201.134395 293.517187 
L 201.142091 292.557187 
L 204.920558 292.557187 
L 204.928253 291.597187 
L 205.613149 291.597187 
L 205.62854 290.637187 
L 206.628949 290.637187 
L 206.644339 289.677187 
L 211.492475 289.677187 
L 211.50017 288.717187 
L 220.957882 288.717187 
L 220.973273 287.757187 
L 221.104096 287.757187 
L 221.227223 286.797187 
L 221.242614 286.797187 
L 221.258005 285.837187 
L 222.404628 285.837187 
L 223.204955 284.877187 
L 223.220346 283.917187 
L 223.335777 283.917187 
L 223.458905 281.997187 
L 223.55125 281.997187 
L 223.558945 281.037187 
L 224.351577 281.037187 
L 224.366968 280.077187 
L 226.829513 280.077187 
L 226.860295 279.117188 
L 228.653335 279.117188 
L 229.107367 278.157187 
L 229.284363 278.157187 
L 229.292058 277.197187 
L 231.18514 277.197187 
L 232.185548 276.237187 
L 244.936914 276.237187 
L 244.952305 275.277187 
L 245.244732 275.277187 
L 245.360164 273.357187 
L 245.521769 273.357187 
L 245.53716 272.397187 
L 245.737241 272.397187 
L 245.744937 271.437187 
L 245.868064 271.437187 
L 245.991191 269.517187 
L 246.098928 269.517187 
L 246.137405 268.557187 
L 257.318898 268.557187 
L 257.334289 267.597187 
L 257.449721 267.597187 
L 257.465112 266.637187 
L 257.60363 266.637187 
L 257.619021 265.677187 
L 257.796016 265.677187 
L 257.811407 264.717187 
L 263.413697 264.717187 
L 263.429088 263.757187 
L 263.582997 263.757187 
L 263.71382 261.837187 
L 263.813861 261.837187 
L 263.952379 259.917187 
L 268.13101 259.917187 
L 268.138705 258.957187 
L 268.261833 258.957187 
L 268.269528 257.997187 
L 271.139932 257.997187 
L 271.147628 257.037187 
L 271.27845 257.037187 
L 271.286146 256.077187 
L 271.44775 256.077187 
L 271.486228 255.117187 
L 271.601659 255.117187 
L 271.61705 254.157187 
L 273.171532 254.157187 
L 273.202314 253.197187 
L 277.742631 253.197187 
L 277.758022 252.237187 
L 281.490317 252.237187 
L 281.513403 251.277187 
L 281.682703 251.277187 
L 281.698094 250.317187 
L 291.509797 250.317187 
L 291.525188 249.357187 
L 292.941151 249.357187 
L 292.948846 248.397187 
L 293.087365 248.397187 
L 293.102755 247.437187 
L 295.957769 247.437187 
L 295.965464 246.477187 
L 299.159077 246.477187 
L 299.166772 245.517187 
L 299.305291 245.517187 
L 299.312986 244.557187 
L 371.096173 244.557187 
L 371.111564 243.597187 
L 371.327037 243.597187 
L 371.457859 241.677187 
L 371.988845 241.677187 
L 372.004236 240.717187 
L 373.073904 240.717187 
L 373.0816 239.757187 
L 375.305586 239.757187 
L 375.313281 238.797187 
L 376.121304 238.797187 
L 376.390645 237.837187 
L 376.521467 237.837187 
L 376.536858 236.877187 
L 376.875458 236.877187 
L 376.890849 235.917187 
L 379.992117 235.917187 
L 379.999812 234.957187 
L 381.223389 234.957187 
L 381.231085 233.997187 
L 381.400385 233.997187 
L 381.415776 233.037187 
L 381.592771 233.037187 
L 381.608162 232.077187 
L 384.240007 232.077187 
L 384.247702 231.117187 
L 386.41782 231.117187 
L 386.433211 230.157187 
L 388.303206 230.157187 
L 388.310902 229.197187 
L 388.503288 229.197187 
L 388.549461 228.237187 
L 390.627233 228.237187 
L 390.650319 227.277187 
L 406.072007 227.277187 
L 406.179744 225.357187 
L 406.425998 225.357187 
L 406.764598 224.397187 
L 409.50418 224.397187 
L 409.511875 223.437187 
L 410.866275 223.437187 
L 410.87397 222.477187 
L 411.004793 222.477187 
L 411.012488 221.517187 
L 415.098774 221.517187 
L 415.12186 220.557187 
L 415.237292 220.557187 
L 415.252683 219.597187 
L 415.398897 219.597187 
L 415.406592 218.637187 
L 422.193982 218.637187 
L 422.217068 217.677187 
L 426.049404 217.677187 
L 426.064795 216.717187 
L 426.218704 216.717187 
L 426.372613 214.797187 
L 432.452021 214.797187 
L 432.459716 213.837187 
L 432.582843 213.837187 
L 432.698275 212.877187 
L 432.713666 211.917187 
L 433.714075 211.917187 
L 433.737161 210.957187 
L 442.810101 210.957187 
L 442.817796 209.997187 
L 515.793778 209.997187 
L 515.816865 209.037187 
L 516.394024 209.037187 
L 516.409414 208.077187 
L 518.771919 208.077187 
L 518.810396 207.117187 
L 522.411868 207.117187 
L 522.419563 206.157187 
L 525.005236 206.157187 
L 525.012931 205.197187 
L 525.274576 205.197187 
L 525.282272 204.237187 
L 538.687751 204.237187 
L 538.695447 203.277187 
L 538.833965 203.277187 
L 538.84166 202.317187 
L 538.964788 202.317187 
L 539.080219 201.357187 
L 539.09561 200.397187 
L 539.218737 200.397187 
L 539.234128 199.437187 
L 584.129402 199.437187 
L 584.144793 198.477187 
L 584.406438 198.477187 
L 584.414134 197.517187 
L 584.560347 197.517187 
L 584.575738 196.557187 
L 584.729647 196.557187 
L 584.737343 195.597187 
L 585.014379 195.597187 
L 585.022075 194.637187 
L 590.539714 194.637187 
L 590.555105 193.677187 
L 653.819426 193.677187 
L 653.842512 192.717187 
L 654.06568 192.717187 
L 654.073375 191.757187 
L 654.227285 191.757187 
L 654.242675 190.797187 
L 654.396585 190.797187 
L 654.40428 189.837187 
L 654.565884 189.837187 
L 654.581275 188.877187 
L 654.727489 188.877187 
L 654.735184 187.917187 
L 691.865746 187.917187 
L 691.873441 186.957187 
L 692.004264 186.957187 
L 692.019655 185.997187 
L 692.227432 185.997187 
L 692.235128 185.037187 
L 692.358255 185.037187 
L 692.381341 184.077187 
L 692.566032 184.077187 
L 692.573728 183.117187 
L 692.743027 183.117187 
L 692.766114 182.157187 
L 692.889241 182.157187 
L 692.904632 181.197187 
L 693.035455 181.197187 
L 693.04315 180.237187 
L 697.660422 180.237187 
L 697.675813 179.277187 
L 745.5954 179.277187 
L 745.603095 178.317187 
L 745.757004 178.317187 
L 745.887827 176.397187 
L 767.119582 176.397187 
L 767.134973 175.437187 
L 767.265796 175.437187 
L 767.358141 174.477187 
L 767.919909 174.477187 
L 767.958386 173.517187 
L 768.512459 173.517187 
L 768.52785 172.557187 
L 768.650977 172.557187 
L 768.658673 171.597187 
L 792.337582 171.597187 
L 792.352973 170.637187 
L 792.6454 170.637187 
L 792.760832 168.717187 
L 792.891655 168.717187 
L 792.89935 167.757187 
L 794.153709 167.757187 
L 794.923254 166.797187 
L 803.657593 166.797187 
L 803.688375 165.837187 
L 803.819198 165.837187 
L 803.942325 163.917187 
L 804.034671 163.917187 
L 804.050062 162.957187 
L 804.319402 162.957187 
L 804.342489 161.997187 
L 807.259066 161.997187 
L 807.266761 161.037187 
L 807.428366 161.037187 
L 807.443756 160.077187 
L 810.475765 160.077187 
L 812.053333 159.117187 
L 816.670605 159.117187 
L 816.6783 158.157187 
L 816.793732 158.157187 
L 816.909164 156.237187 
L 817.024596 156.237187 
L 817.147723 154.317187 
L 817.278546 154.317187 
L 817.286241 153.357187 
L 821.541827 153.357187 
L 821.657258 151.437187 
L 821.811167 151.437187 
L 821.818863 150.477187 
L 827.259548 150.477187 
L 827.267244 149.517187 
L 828.098353 149.517187 
L 828.121439 148.557187 
L 829.40658 148.557187 
L 829.99913 147.597187 
L 831.884516 147.597187 
L 831.892211 146.637187 
L 833.323565 146.637187 
L 833.40052 145.677187 
L 834.193151 145.677187 
L 834.200847 144.717187 
L 839.472232 144.717187 
L 839.487623 143.757187 
L 839.649228 143.757187 
L 839.664619 142.797187 
L 840.741982 142.797187 
L 840.765068 141.837187 
L 844.258804 141.837187 
L 844.274195 140.877187 
L 846.644395 140.877187 
L 846.798304 138.957187 
L 850.892285 138.957187 
L 851.000021 137.037187 
L 851.123148 137.037187 
L 851.138539 136.077187 
L 858.041361 136.077187 
L 858.141402 134.157187 
L 858.256833 134.157187 
L 858.272224 133.197187 
L 858.426133 133.197187 
L 858.464611 132.237187 
L 861.588965 132.237187 
L 861.68131 131.277187 
L 867.214341 131.277187 
L 867.322077 129.357187 
L 867.483682 129.357187 
L 867.491377 128.397187 
L 867.629895 128.397187 
L 867.737632 126.477187 
L 872.29334 126.477187 
L 872.301035 125.517187 
L 872.416467 125.517187 
L 872.508813 123.597187 
L 872.731981 123.597187 
L 872.839717 122.637187 
L 879.311593 122.637187 
L 879.573239 121.677187 
L 879.696366 121.677187 
L 879.704061 120.717187 
L 882.258952 120.717187 
L 882.358993 118.797187 
L 885.783469 118.797187 
L 885.906597 117.837187 
L 887.638073 117.837187 
L 887.653464 116.877187 
L 888.122887 116.877187 
L 888.130582 115.917187 
L 888.330664 115.917187 
L 889.7928 114.957187 
L 889.800496 113.997187 
L 890.031359 113.997187 
L 897.065004 113.037187 
L 897.072699 112.077187 
L 897.188131 112.077187 
L 897.203522 111.117187 
L 899.596808 111.117187 
L 900.48948 110.157187 
L 902.444125 110.157187 
L 902.567253 108.237187 
L 902.713466 108.237187 
L 902.721162 107.277187 
L 906.76897 107.277187 
L 906.907488 106.317187 
L 913.009982 106.317187 
L 913.13311 105.357187 
L 913.294714 105.357187 
L 913.30241 104.397187 
L 913.417841 104.397187 
L 913.433232 103.437187 
L 930.46327 103.437187 
L 930.470966 102.477187 
L 930.624875 102.477187 
L 930.63257 101.517187 
L 931.048125 101.517187 
L 931.148166 99.597187 
L 931.425202 99.597187 
L 931.779193 98.637187 
L 931.794584 97.677187 
L 931.933102 97.677187 
L 931.940797 96.717187 
L 932.063924 96.717187 
L 932.079315 95.757187 
L 932.210138 95.757187 
L 932.217833 94.797187 
L 955.542752 94.797187 
L 955.550447 93.837187 
L 955.704356 93.837187 
L 955.719747 92.877187 
L 956.050652 92.877187 
L 956.058347 91.917187 
L 956.281515 91.917187 
L 956.412338 89.997187 
L 962.791869 89.997187 
L 962.799564 89.037187 
L 965.131287 89.037187 
L 965.169764 88.077187 
L 965.300587 88.077187 
L 965.416018 86.157187 
L 965.546841 86.157187 
L 965.562232 85.197187 
L 967.73235 85.197187 
L 967.801609 84.237187 
L 967.963213 84.237187 
L 968.07095 82.317187 
L 968.170991 82.317187 
L 968.178686 81.357187 
L 976.505166 81.357187 
L 976.520557 80.397187 
L 976.697553 80.397187 
L 976.805289 78.477187 
L 983.107865 78.477187 
L 984.831647 77.517187 
L 984.947078 76.557187 
L 984.970165 76.557187 
L 984.97786 75.597187 
L 989.094928 75.597187 
L 989.118014 74.637187 
L 989.264228 74.637187 
L 989.264228 73.677187 
L 994.566395 73.677187 
L 994.704913 71.757187 
L 994.82804 71.757187 
L 994.951167 69.837187 
L 995.066599 69.837187 
L 995.08199 68.877187 
L 1004.301143 68.877187 
L 1004.308838 67.917187 
L 1004.42427 67.917187 
L 1004.431966 66.957187 
L 1004.601266 66.957187 
L 1004.709002 65.037187 
L 1019.037936 65.037187 
L 1019.245713 63.117187 
L 1019.376536 63.117187 
L 1019.491967 61.197187 
L 1022.408544 61.197187 
L 1022.485499 60.237187 
L 1035.991019 60.237187 
L 1036.014105 59.277187 
L 1036.129537 59.277187 
L 1036.137233 58.317187 
L 1036.268055 58.317187 
L 1036.283446 57.357187 
L 1036.406573 57.357187 
L 1036.414269 56.397187 
L 1037.222291 56.397187 
L 1038.238091 55.437187 
L 1039.561709 55.437187 
L 1039.5771 54.477187 
L 1039.700227 54.477187 
L 1039.715618 53.517187 
L 1087.058046 53.517187 
L 1087.258128 52.557187 
L 1087.412037 52.557187 
L 1087.427428 51.597187 
L 1088.1508 51.597187 
L 1088.158496 50.637187 
L 1088.612527 50.637187 
L 1088.735655 48.717187 
L 1088.866477 48.717187 
L 1088.881868 47.757187 
L 1089.012691 47.757187 
L 1089.020387 46.797187 
L 1089.135818 46.797187 
L 1089.151209 45.837187 
L 1100.378875 45.837187 
L 1100.386571 44.877187 
L 1100.555871 44.877187 
L 1100.563566 43.917187 
L 1100.694389 43.917187 
L 1100.70978 42.957187 
L 1114.438468 42.957187 
L 1114.507727 41.997187 
L 1114.507727 41.997187 
" clip-path="url(#p7d869f8b06)" style="fill: none; stroke: #0000ff; stroke-width: 1.5; stroke-linecap: square"/>
   </g>
   <g id="patch_77">
    <path d="M 49.235 359.517187 
L 49.235 26.877187 
" style="fill: none; stroke: #000000; stroke-width: 0.8; stroke-linejoin: miter; stroke-linecap: square"/>
   </g>
   <g id="patch_78">
    <path d="M 1165.235 359.517187 
L 1165.235 26.877187 
" style="fill: none; stroke: #000000; stroke-width: 0.8; stroke-linejoin: miter; stroke-linecap: square"/>
   </g>
   <g id="patch_79">
    <path d="M 49.235 359.517187 
L 1165.235 359.517187 
" style="fill: none; stroke: #000000; stroke-width: 0.8; stroke-linejoin: miter; stroke-linecap: square"/>
   </g>
   <g id="patch_80">
    <path d="M 49.235 26.877187 
L 1165.235 26.877187 
" style="fill: none; stroke: #000000; stroke-width: 0.8; stroke-linejoin: miter; stroke-linecap: square"/>
   </g>
   <g id="text_20">
    <!-- Pellet Count and Cumulative Sum Over Time of Group 4 Mouse 3 -->
    <g transform="translate(315.460625 20.877187) scale(0.18 -0.18)">
     <defs>
      <path id="DejaVuSans-61" d="M 2194 1759 
Q 1497 1759 1228 1600 
Q 959 1441 959 1056 
Q 959 750 1161 570 
Q 1363 391 1709 391 
Q 2188 391 2477 730 
Q 2766 1069 2766 1631 
L 2766 1759 
L 2194 1759 
z
M 3341 1997 
L 3341 0 
L 2766 0 
L 2766 531 
Q 2569 213 2275 61 
Q 1981 -91 1556 -91 
Q 1019 -91 701 211 
Q 384 513 384 1019 
Q 384 1609 779 1909 
Q 1175 2209 1959 2209 
L 2766 2209 
L 2766 2266 
Q 2766 2663 2505 2880 
Q 2244 3097 1772 3097 
Q 1472 3097 1187 3025 
Q 903 2953 641 2809 
L 641 3341 
Q 956 3463 1253 3523 
Q 1550 3584 1831 3584 
Q 2591 3584 2966 3190 
Q 3341 2797 3341 1997 
z
" transform="scale(0.015625)"/>
      <path id="DejaVuSans-64" d="M 2906 2969 
L 2906 4863 
L 3481 4863 
L 3481 0 
L 2906 0 
L 2906 525 
Q 2725 213 2448 61 
Q 2172 -91 1784 -91 
Q 1150 -91 751 415 
Q 353 922 353 1747 
Q 353 2572 751 3078 
Q 1150 3584 1784 3584 
Q 2172 3584 2448 3432 
Q 2725 3281 2906 2969 
z
M 947 1747 
Q 947 1113 1208 752 
Q 1469 391 1925 391 
Q 2381 391 2643 752 
Q 2906 1113 2906 1747 
Q 2906 2381 2643 2742 
Q 2381 3103 1925 3103 
Q 1469 3103 1208 2742 
Q 947 2381 947 1747 
z
" transform="scale(0.015625)"/>
      <path id="DejaVuSans-76" d="M 191 3500 
L 800 3500 
L 1894 563 
L 2988 3500 
L 3597 3500 
L 2284 0 
L 1503 0 
L 191 3500 
z
" transform="scale(0.015625)"/>
      <path id="DejaVuSans-53" d="M 3425 4513 
L 3425 3897 
Q 3066 4069 2747 4153 
Q 2428 4238 2131 4238 
Q 1616 4238 1336 4038 
Q 1056 3838 1056 3469 
Q 1056 3159 1242 3001 
Q 1428 2844 1947 2747 
L 2328 2669 
Q 3034 2534 3370 2195 
Q 3706 1856 3706 1288 
Q 3706 609 3251 259 
Q 2797 -91 1919 -91 
Q 1588 -91 1214 -16 
Q 841 59 441 206 
L 441 856 
Q 825 641 1194 531 
Q 1563 422 1919 422 
Q 2459 422 2753 634 
Q 3047 847 3047 1241 
Q 3047 1584 2836 1778 
Q 2625 1972 2144 2069 
L 1759 2144 
Q 1053 2284 737 2584 
Q 422 2884 422 3419 
Q 422 4038 858 4394 
Q 1294 4750 2059 4750 
Q 2388 4750 2728 4690 
Q 3069 4631 3425 4513 
z
" transform="scale(0.015625)"/>
      <path id="DejaVuSans-4f" d="M 2522 4238 
Q 1834 4238 1429 3725 
Q 1025 3213 1025 2328 
Q 1025 1447 1429 934 
Q 1834 422 2522 422 
Q 3209 422 3611 934 
Q 4013 1447 4013 2328 
Q 4013 3213 3611 3725 
Q 3209 4238 2522 4238 
z
M 2522 4750 
Q 3503 4750 4090 4092 
Q 4678 3434 4678 2328 
Q 4678 1225 4090 567 
Q 3503 -91 2522 -91 
Q 1538 -91 948 565 
Q 359 1222 359 2328 
Q 359 3434 948 4092 
Q 1538 4750 2522 4750 
z
" transform="scale(0.015625)"/>
      <path id="DejaVuSans-72" d="M 2631 2963 
Q 2534 3019 2420 3045 
Q 2306 3072 2169 3072 
Q 1681 3072 1420 2755 
Q 1159 2438 1159 1844 
L 1159 0 
L 581 0 
L 581 3500 
L 1159 3500 
L 1159 2956 
Q 1341 3275 1631 3429 
Q 1922 3584 2338 3584 
Q 2397 3584 2469 3576 
Q 2541 3569 2628 3553 
L 2631 2963 
z
" transform="scale(0.015625)"/>
      <path id="DejaVuSans-66" d="M 2375 4863 
L 2375 4384 
L 1825 4384 
Q 1516 4384 1395 4259 
Q 1275 4134 1275 3809 
L 1275 3500 
L 2222 3500 
L 2222 3053 
L 1275 3053 
L 1275 0 
L 697 0 
L 697 3053 
L 147 3053 
L 147 3500 
L 697 3500 
L 697 3744 
Q 697 4328 969 4595 
Q 1241 4863 1831 4863 
L 2375 4863 
z
" transform="scale(0.015625)"/>
      <path id="DejaVuSans-47" d="M 3809 666 
L 3809 1919 
L 2778 1919 
L 2778 2438 
L 4434 2438 
L 4434 434 
Q 4069 175 3628 42 
Q 3188 -91 2688 -91 
Q 1594 -91 976 548 
Q 359 1188 359 2328 
Q 359 3472 976 4111 
Q 1594 4750 2688 4750 
Q 3144 4750 3555 4637 
Q 3966 4525 4313 4306 
L 4313 3634 
Q 3963 3931 3569 4081 
Q 3175 4231 2741 4231 
Q 1884 4231 1454 3753 
Q 1025 3275 1025 2328 
Q 1025 1384 1454 906 
Q 1884 428 2741 428 
Q 3075 428 3337 486 
Q 3600 544 3809 666 
z
" transform="scale(0.015625)"/>
      <path id="DejaVuSans-70" d="M 1159 525 
L 1159 -1331 
L 581 -1331 
L 581 3500 
L 1159 3500 
L 1159 2969 
Q 1341 3281 1617 3432 
Q 1894 3584 2278 3584 
Q 2916 3584 3314 3078 
Q 3713 2572 3713 1747 
Q 3713 922 3314 415 
Q 2916 -91 2278 -91 
Q 1894 -91 1617 61 
Q 1341 213 1159 525 
z
M 3116 1747 
Q 3116 2381 2855 2742 
Q 2594 3103 2138 3103 
Q 1681 3103 1420 2742 
Q 1159 2381 1159 1747 
Q 1159 1113 1420 752 
Q 1681 391 2138 391 
Q 2594 391 2855 752 
Q 3116 1113 3116 1747 
z
" transform="scale(0.015625)"/>
      <path id="DejaVuSans-4d" d="M 628 4666 
L 1569 4666 
L 2759 1491 
L 3956 4666 
L 4897 4666 
L 4897 0 
L 4281 0 
L 4281 4097 
L 3078 897 
L 2444 897 
L 1241 4097 
L 1241 0 
L 628 0 
L 628 4666 
z
" transform="scale(0.015625)"/>
      <path id="DejaVuSans-73" d="M 2834 3397 
L 2834 2853 
Q 2591 2978 2328 3040 
Q 2066 3103 1784 3103 
Q 1356 3103 1142 2972 
Q 928 2841 928 2578 
Q 928 2378 1081 2264 
Q 1234 2150 1697 2047 
L 1894 2003 
Q 2506 1872 2764 1633 
Q 3022 1394 3022 966 
Q 3022 478 2636 193 
Q 2250 -91 1575 -91 
Q 1294 -91 989 -36 
Q 684 19 347 128 
L 347 722 
Q 666 556 975 473 
Q 1284 391 1588 391 
Q 1994 391 2212 530 
Q 2431 669 2431 922 
Q 2431 1156 2273 1281 
Q 2116 1406 1581 1522 
L 1381 1569 
Q 847 1681 609 1914 
Q 372 2147 372 2553 
Q 372 3047 722 3315 
Q 1072 3584 1716 3584 
Q 2034 3584 2315 3537 
Q 2597 3491 2834 3397 
z
" transform="scale(0.015625)"/>
     </defs>
     <use xlink:href="#DejaVuSans-50"/>
     <use xlink:href="#DejaVuSans-65" x="56.677734"/>
     <use xlink:href="#DejaVuSans-6c" x="118.201172"/>
     <use xlink:href="#DejaVuSans-6c" x="145.984375"/>
     <use xlink:href="#DejaVuSans-65" x="173.767578"/>
     <use xlink:href="#DejaVuSans-74" x="235.291016"/>
     <use xlink:href="#DejaVuSans-20" x="274.5"/>
     <use xlink:href="#DejaVuSans-43" x="306.287109"/>
     <use xlink:href="#DejaVuSans-6f" x="376.111328"/>
     <use xlink:href="#DejaVuSans-75" x="437.292969"/>
     <use xlink:href="#DejaVuSans-6e" x="500.671875"/>
     <use xlink:href="#DejaVuSans-74" x="564.050781"/>
     <use xlink:href="#DejaVuSans-20" x="603.259766"/>
     <use xlink:href="#DejaVuSans-61" x="635.046875"/>
     <use xlink:href="#DejaVuSans-6e" x="696.326172"/>
     <use xlink:href="#DejaVuSans-64" x="759.705078"/>
     <use xlink:href="#DejaVuSans-20" x="823.181641"/>
     <use xlink:href="#DejaVuSans-43" x="854.96875"/>
     <use xlink:href="#DejaVuSans-75" x="924.792969"/>
     <use xlink:href="#DejaVuSans-6d" x="988.171875"/>
     <use xlink:href="#DejaVuSans-75" x="1085.583984"/>
     <use xlink:href="#DejaVuSans-6c" x="1148.962891"/>
     <use xlink:href="#DejaVuSans-61" x="1176.746094"/>
     <use xlink:href="#DejaVuSans-74" x="1238.025391"/>
     <use xlink:href="#DejaVuSans-69" x="1277.234375"/>
     <use xlink:href="#DejaVuSans-76" x="1305.017578"/>
     <use xlink:href="#DejaVuSans-65" x="1364.197266"/>
     <use xlink:href="#DejaVuSans-20" x="1425.720703"/>
     <use xlink:href="#DejaVuSans-53" x="1457.507812"/>
     <use xlink:href="#DejaVuSans-75" x="1520.984375"/>
     <use xlink:href="#DejaVuSans-6d" x="1584.363281"/>
     <use xlink:href="#DejaVuSans-20" x="1681.775391"/>
     <use xlink:href="#DejaVuSans-4f" x="1713.5625"/>
     <use xlink:href="#DejaVuSans-76" x="1792.273438"/>
     <use xlink:href="#DejaVuSans-65" x="1851.453125"/>
     <use xlink:href="#DejaVuSans-72" x="1912.976562"/>
     <use xlink:href="#DejaVuSans-20" x="1954.089844"/>
     <use xlink:href="#DejaVuSans-54" x="1985.876953"/>
     <use xlink:href="#DejaVuSans-69" x="2043.835938"/>
     <use xlink:href="#DejaVuSans-6d" x="2071.619141"/>
     <use xlink:href="#DejaVuSans-65" x="2169.03125"/>
     <use xlink:href="#DejaVuSans-20" x="2230.554688"/>
     <use xlink:href="#DejaVuSans-6f" x="2262.341797"/>
     <use xlink:href="#DejaVuSans-66" x="2323.523438"/>
     <use xlink:href="#DejaVuSans-20" x="2358.728516"/>
     <use xlink:href="#DejaVuSans-47" x="2390.515625"/>
     <use xlink:href="#DejaVuSans-72" x="2468.005859"/>
     <use xlink:href="#DejaVuSans-6f" x="2506.869141"/>
     <use xlink:href="#DejaVuSans-75" x="2568.050781"/>
     <use xlink:href="#DejaVuSans-70" x="2631.429688"/>
     <use xlink:href="#DejaVuSans-20" x="2694.90625"/>
     <use xlink:href="#DejaVuSans-34" x="2726.693359"/>
     <use xlink:href="#DejaVuSans-20" x="2790.316406"/>
     <use xlink:href="#DejaVuSans-4d" x="2822.103516"/>
     <use xlink:href="#DejaVuSans-6f" x="2908.382812"/>
     <use xlink:href="#DejaVuSans-75" x="2969.564453"/>
     <use xlink:href="#DejaVuSans-73" x="3032.943359"/>
     <use xlink:href="#DejaVuSans-65" x="3085.042969"/>
     <use xlink:href="#DejaVuSans-20" x="3146.566406"/>
     <use xlink:href="#DejaVuSans-33" x="3178.353516"/>
    </g>
   </g>
   <g id="legend_1">
    <g id="patch_81">
     <path d="M 1086.550625 64.233437 
L 1158.235 64.233437 
Q 1160.235 64.233437 1160.235 62.233437 
L 1160.235 33.877187 
Q 1160.235 31.877187 1158.235 31.877187 
L 1086.550625 31.877187 
Q 1084.550625 31.877187 1084.550625 33.877187 
L 1084.550625 62.233437 
Q 1084.550625 64.233437 1086.550625 64.233437 
z
" style="fill: #ffffff; opacity: 0.8; stroke: #cccccc; stroke-linejoin: miter"/>
    </g>
    <g id="patch_82">
     <path d="M 1088.550625 43.475625 
L 1108.550625 43.475625 
L 1108.550625 36.475625 
L 1088.550625 36.475625 
z
" style="fill: #add8e6; opacity: 0.9; stroke: #add8e6; stroke-linejoin: miter"/>
    </g>
    <g id="text_21">
     <!-- Meal -->
     <g transform="translate(1116.550625 43.475625) scale(0.1 -0.1)">
      <use xlink:href="#DejaVuSans-4d"/>
      <use xlink:href="#DejaVuSans-65" x="86.279297"/>
      <use xlink:href="#DejaVuSans-61" x="147.802734"/>
      <use xlink:href="#DejaVuSans-6c" x="209.082031"/>
     </g>
    </g>
    <g id="patch_83">
     <path d="M 1088.550625 58.15375 
L 1108.550625 58.15375 
L 1108.550625 51.15375 
L 1088.550625 51.15375 
z
" style="fill: #808080; opacity: 0.5; stroke: #808080; stroke-linejoin: miter"/>
    </g>
    <g id="text_22">
     <!-- Inactive -->
     <g transform="translate(1116.550625 58.15375) scale(0.1 -0.1)">
      <defs>
       <path id="DejaVuSans-49" d="M 628 4666 
L 1259 4666 
L 1259 0 
L 628 0 
L 628 4666 
z
" transform="scale(0.015625)"/>
       <path id="DejaVuSans-63" d="M 3122 3366 
L 3122 2828 
Q 2878 2963 2633 3030 
Q 2388 3097 2138 3097 
Q 1578 3097 1268 2742 
Q 959 2388 959 1747 
Q 959 1106 1268 751 
Q 1578 397 2138 397 
Q 2388 397 2633 464 
Q 2878 531 3122 666 
L 3122 134 
Q 2881 22 2623 -34 
Q 2366 -91 2075 -91 
Q 1284 -91 818 406 
Q 353 903 353 1747 
Q 353 2603 823 3093 
Q 1294 3584 2113 3584 
Q 2378 3584 2631 3529 
Q 2884 3475 3122 3366 
z
" transform="scale(0.015625)"/>
      </defs>
      <use xlink:href="#DejaVuSans-49"/>
      <use xlink:href="#DejaVuSans-6e" x="29.492188"/>
      <use xlink:href="#DejaVuSans-61" x="92.871094"/>
      <use xlink:href="#DejaVuSans-63" x="154.150391"/>
      <use xlink:href="#DejaVuSans-74" x="209.130859"/>
      <use xlink:href="#DejaVuSans-69" x="248.339844"/>
      <use xlink:href="#DejaVuSans-76" x="276.123047"/>
      <use xlink:href="#DejaVuSans-65" x="335.302734"/>
     </g>
    </g>
   </g>
  </g>
 </g>
 <defs>
  <clipPath id="p7d869f8b06">
   <rect x="49.235" y="26.877187" width="1116" height="332.64"/>
  </clipPath>
 </defs>
</svg>
