<?xml version="1.0" encoding="utf-8" standalone="no"?>
<!DOCTYPE svg PUBLIC "-//W3C//DTD SVG 1.1//EN"
  "http://www.w3.org/Graphics/SVG/1.1/DTD/svg11.dtd">
<svg xmlns:xlink="http://www.w3.org/1999/xlink" width="1172.435pt" height="399.009062pt" viewBox="0 0 1172.435 399.009062" xmlns="http://www.w3.org/2000/svg" version="1.1">
 <metadata>
  <rdf:RDF xmlns:dc="http://purl.org/dc/elements/1.1/" xmlns:cc="http://creativecommons.org/ns#" xmlns:rdf="http://www.w3.org/1999/02/22-rdf-syntax-ns#">
   <cc:Work>
    <dc:type rdf:resource="http://purl.org/dc/dcmitype/StillImage"/>
    <dc:date>2025-07-28T21:54:18.255750</dc:date>
    <dc:format>image/svg+xml</dc:format>
    <dc:creator>
     <cc:Agent>
      <dc:title>Matplotlib v3.8.4, https://matplotlib.org/</dc:title>
     </cc:Agent>
    </dc:creator>
   </cc:Work>
  </rdf:RDF>
 </metadata>
 <defs>
  <style type="text/css">*{stroke-linejoin: round; stroke-linecap: butt}</style>
 </defs>
 <g id="figure_1">
  <g id="patch_1">
   <path d="M 0 399.009062 
L 1172.435 399.009062 
L 1172.435 0 
L 0 0 
z
" style="fill: #ffffff"/>
  </g>
  <g id="axes_1">
   <g id="patch_2">
    <path d="M 49.235 359.517187 
L 1165.235 359.517187 
L 1165.235 26.877187 
L 49.235 26.877187 
z
" style="fill: #ffffff"/>
   </g>
   <g id="patch_3">
    <path d="M 132.959046 359.517187 
L 132.959046 26.877187 
L 131.322215 26.877187 
L 131.322215 359.517187 
z
" clip-path="url(#p62d86bb8b8)" style="fill: #add8e6; stroke: #add8e6; stroke-linejoin: miter"/>
   </g>
   <g id="patch_4">
    <path d="M 134.06408 359.517187 
L 134.06408 26.877187 
L 133.000485 26.877187 
L 133.000485 359.517187 
z
" clip-path="url(#p62d86bb8b8)" style="fill: #add8e6; stroke: #add8e6; stroke-linejoin: miter"/>
   </g>
   <g id="patch_5">
    <path d="M 146.88938 359.517187 
L 146.88938 26.877187 
L 138.567093 26.877187 
L 138.567093 359.517187 
z
" clip-path="url(#p62d86bb8b8)" style="fill: #add8e6; stroke: #add8e6; stroke-linejoin: miter"/>
   </g>
   <g id="patch_6">
    <path d="M 142.832985 359.517187 
L 142.832985 26.877187 
L 139.375149 26.877187 
L 139.375149 359.517187 
z
" clip-path="url(#p62d86bb8b8)" style="fill: #add8e6; stroke: #add8e6; stroke-linejoin: miter"/>
   </g>
   <g id="patch_7">
    <path d="M 170.732789 359.517187 
L 170.732789 26.877187 
L 140.565363 26.877187 
L 140.565363 359.517187 
z
" clip-path="url(#p62d86bb8b8)" style="fill: #add8e6; stroke: #add8e6; stroke-linejoin: miter"/>
   </g>
   <g id="patch_8">
    <path d="M 190.365558 359.517187 
L 190.365558 26.877187 
L 168.004736 26.877187 
L 168.004736 359.517187 
z
" clip-path="url(#p62d86bb8b8)" style="fill: #add8e6; stroke: #add8e6; stroke-linejoin: miter"/>
   </g>
   <g id="patch_9">
    <path d="M 177.222561 359.517187 
L 177.222561 26.877187 
L 176.522706 26.877187 
L 176.522706 359.517187 
z
" clip-path="url(#p62d86bb8b8)" style="fill: #add8e6; stroke: #add8e6; stroke-linejoin: miter"/>
   </g>
   <g id="patch_10">
    <path d="M 187.340528 359.517187 
L 187.340528 26.877187 
L 187.768728 26.877187 
L 187.768728 359.517187 
z
" clip-path="url(#p62d86bb8b8)" style="fill: #add8e6; stroke: #add8e6; stroke-linejoin: miter"/>
   </g>
   <g id="patch_11">
    <path d="M 189.539085 359.517187 
L 189.539085 26.877187 
L 189.723257 26.877187 
L 189.723257 359.517187 
z
" clip-path="url(#p62d86bb8b8)" style="fill: #add8e6; stroke: #add8e6; stroke-linejoin: miter"/>
   </g>
   <g id="patch_12">
    <path d="M 197.681804 359.517187 
L 197.681804 26.877187 
L 198.08468 26.877187 
L 198.08468 359.517187 
z
" clip-path="url(#p62d86bb8b8)" style="fill: #add8e6; stroke: #add8e6; stroke-linejoin: miter"/>
   </g>
   <g id="patch_13">
    <path d="M 198.973312 359.517187 
L 198.973312 26.877187 
L 198.664823 26.877187 
L 198.664823 359.517187 
z
" clip-path="url(#p62d86bb8b8)" style="fill: #add8e6; stroke: #add8e6; stroke-linejoin: miter"/>
   </g>
   <g id="patch_14">
    <path d="M 244.857543 359.517187 
L 244.857543 26.877187 
L 213.435443 26.877187 
L 213.435443 359.517187 
z
" clip-path="url(#p62d86bb8b8)" style="fill: #add8e6; stroke: #add8e6; stroke-linejoin: miter"/>
   </g>
   <g id="patch_15">
    <path d="M 221.357155 359.517187 
L 221.357155 26.877187 
L 214.842059 26.877187 
L 214.842059 359.517187 
z
" clip-path="url(#p62d86bb8b8)" style="fill: #add8e6; stroke: #add8e6; stroke-linejoin: miter"/>
   </g>
   <g id="patch_16">
    <path d="M 215.935583 359.517187 
L 215.935583 26.877187 
L 215.445224 26.877187 
L 215.445224 359.517187 
z
" clip-path="url(#p62d86bb8b8)" style="fill: #add8e6; stroke: #add8e6; stroke-linejoin: miter"/>
   </g>
   <g id="patch_17">
    <path d="M 269.835914 359.517187 
L 269.835914 26.877187 
L 239.042302 26.877187 
L 239.042302 359.517187 
z
" clip-path="url(#p62d86bb8b8)" style="fill: #add8e6; stroke: #add8e6; stroke-linejoin: miter"/>
   </g>
   <g id="patch_18">
    <path d="M 244.567472 359.517187 
L 244.567472 26.877187 
L 244.719414 26.877187 
L 244.719414 359.517187 
z
" clip-path="url(#p62d86bb8b8)" style="fill: #add8e6; stroke: #add8e6; stroke-linejoin: miter"/>
   </g>
   <g id="patch_19">
    <path d="M 258.907589 359.517187 
L 258.907589 26.877187 
L 257.680541 26.877187 
L 257.680541 359.517187 
z
" clip-path="url(#p62d86bb8b8)" style="fill: #add8e6; stroke: #add8e6; stroke-linejoin: miter"/>
   </g>
   <g id="patch_20">
    <path d="M 289.57228 359.517187 
L 289.57228 26.877187 
L 289.641345 26.877187 
L 289.641345 359.517187 
z
" clip-path="url(#p62d86bb8b8)" style="fill: #add8e6; stroke: #add8e6; stroke-linejoin: miter"/>
   </g>
   <g id="patch_21">
    <path d="M 338.025716 359.517187 
L 338.025716 26.877187 
L 306.750954 26.877187 
L 306.750954 359.517187 
z
" clip-path="url(#p62d86bb8b8)" style="fill: #add8e6; stroke: #add8e6; stroke-linejoin: miter"/>
   </g>
   <g id="patch_22">
    <path d="M 311.721304 359.517187 
L 311.721304 26.877187 
L 312.043606 26.877187 
L 312.043606 359.517187 
z
" clip-path="url(#p62d86bb8b8)" style="fill: #add8e6; stroke: #add8e6; stroke-linejoin: miter"/>
   </g>
   <g id="patch_23">
    <path d="M 321.963587 359.517187 
L 321.963587 26.877187 
L 314.032667 26.877187 
L 314.032667 359.517187 
z
" clip-path="url(#p62d86bb8b8)" style="fill: #add8e6; stroke: #add8e6; stroke-linejoin: miter"/>
   </g>
   <g id="patch_24">
    <path d="M 321.49625 359.517187 
L 321.49625 26.877187 
L 321.864595 26.877187 
L 321.864595 359.517187 
z
" clip-path="url(#p62d86bb8b8)" style="fill: #add8e6; stroke: #add8e6; stroke-linejoin: miter"/>
   </g>
   <g id="patch_25">
    <path d="M 346.679513 359.517187 
L 346.679513 26.877187 
L 337.859961 26.877187 
L 337.859961 359.517187 
z
" clip-path="url(#p62d86bb8b8)" style="fill: #add8e6; stroke: #add8e6; stroke-linejoin: miter"/>
   </g>
   <g id="patch_26">
    <path d="M 353.021947 359.517187 
L 353.021947 26.877187 
L 352.029718 26.877187 
L 352.029718 359.517187 
z
" clip-path="url(#p62d86bb8b8)" style="fill: #add8e6; stroke: #add8e6; stroke-linejoin: miter"/>
   </g>
   <g id="patch_27">
    <path d="M 373.913994 359.517187 
L 373.913994 26.877187 
L 374.181044 26.877187 
L 374.181044 359.517187 
z
" clip-path="url(#p62d86bb8b8)" style="fill: #add8e6; stroke: #add8e6; stroke-linejoin: miter"/>
   </g>
   <g id="patch_28">
    <path d="M 408.80544 359.517187 
L 408.80544 26.877187 
L 409.088605 26.877187 
L 409.088605 359.517187 
z
" clip-path="url(#p62d86bb8b8)" style="fill: #add8e6; stroke: #add8e6; stroke-linejoin: miter"/>
   </g>
   <g id="patch_29">
    <path d="M 416.234491 359.517187 
L 416.234491 26.877187 
L 416.867584 26.877187 
L 416.867584 359.517187 
z
" clip-path="url(#p62d86bb8b8)" style="fill: #add8e6; stroke: #add8e6; stroke-linejoin: miter"/>
   </g>
   <g id="patch_30">
    <path d="M 430.206264 359.517187 
L 430.206264 26.877187 
L 432.17921 26.877187 
L 432.17921 359.517187 
z
" clip-path="url(#p62d86bb8b8)" style="fill: #add8e6; stroke: #add8e6; stroke-linejoin: miter"/>
   </g>
   <g id="patch_31">
    <path d="M 463.71872 359.517187 
L 463.71872 26.877187 
L 443.247966 26.877187 
L 443.247966 359.517187 
z
" clip-path="url(#p62d86bb8b8)" style="fill: #add8e6; stroke: #add8e6; stroke-linejoin: miter"/>
   </g>
   <g id="patch_32">
    <path d="M 490.025433 359.517187 
L 490.025433 26.877187 
L 463.081023 26.877187 
L 463.081023 359.517187 
z
" clip-path="url(#p62d86bb8b8)" style="fill: #add8e6; stroke: #add8e6; stroke-linejoin: miter"/>
   </g>
   <g id="patch_33">
    <path d="M 478.411067 359.517187 
L 478.411067 26.877187 
L 477.865456 26.877187 
L 477.865456 359.517187 
z
" clip-path="url(#p62d86bb8b8)" style="fill: #add8e6; stroke: #add8e6; stroke-linejoin: miter"/>
   </g>
   <g id="patch_34">
    <path d="M 507.745113 359.517187 
L 507.745113 26.877187 
L 508.403529 26.877187 
L 508.403529 359.517187 
z
" clip-path="url(#p62d86bb8b8)" style="fill: #add8e6; stroke: #add8e6; stroke-linejoin: miter"/>
   </g>
   <g id="patch_35">
    <path d="M 516.979052 359.517187 
L 516.979052 26.877187 
L 517.547685 26.877187 
L 517.547685 359.517187 
z
" clip-path="url(#p62d86bb8b8)" style="fill: #add8e6; stroke: #add8e6; stroke-linejoin: miter"/>
   </g>
   <g id="patch_36">
    <path d="M 651.99578 359.517187 
L 651.99578 26.877187 
L 652.101679 26.877187 
L 652.101679 359.517187 
z
" clip-path="url(#p62d86bb8b8)" style="fill: #add8e6; stroke: #add8e6; stroke-linejoin: miter"/>
   </g>
   <g id="patch_37">
    <path d="M 807.527002 359.517187 
L 807.527002 26.877187 
L 782.560142 26.877187 
L 782.560142 359.517187 
z
" clip-path="url(#p62d86bb8b8)" style="fill: #add8e6; stroke: #add8e6; stroke-linejoin: miter"/>
   </g>
   <g id="patch_38">
    <path d="M 787.380853 359.517187 
L 787.380853 26.877187 
L 787.857398 26.877187 
L 787.857398 359.517187 
z
" clip-path="url(#p62d86bb8b8)" style="fill: #add8e6; stroke: #add8e6; stroke-linejoin: miter"/>
   </g>
   <g id="patch_39">
    <path d="M 829.887824 359.517187 
L 829.887824 26.877187 
L 830.520916 26.877187 
L 830.520916 359.517187 
z
" clip-path="url(#p62d86bb8b8)" style="fill: #add8e6; stroke: #add8e6; stroke-linejoin: miter"/>
   </g>
   <g id="patch_40">
    <path d="M 867.122863 359.517187 
L 867.122863 26.877187 
L 867.815811 26.877187 
L 867.815811 359.517187 
z
" clip-path="url(#p62d86bb8b8)" style="fill: #add8e6; stroke: #add8e6; stroke-linejoin: miter"/>
   </g>
   <g id="patch_41">
    <path d="M 898.837336 359.517187 
L 898.837336 26.877187 
L 899.267839 26.877187 
L 899.267839 359.517187 
z
" clip-path="url(#p62d86bb8b8)" style="fill: #add8e6; stroke: #add8e6; stroke-linejoin: miter"/>
   </g>
   <g id="patch_42">
    <path d="M 903.050278 359.517187 
L 903.050278 26.877187 
L 900.906973 26.877187 
L 900.906973 359.517187 
z
" clip-path="url(#p62d86bb8b8)" style="fill: #add8e6; stroke: #add8e6; stroke-linejoin: miter"/>
   </g>
   <g id="patch_43">
    <path d="M 950.985729 359.517187 
L 950.985729 26.877187 
L 952.995509 26.877187 
L 952.995509 359.517187 
z
" clip-path="url(#p62d86bb8b8)" style="fill: #add8e6; stroke: #add8e6; stroke-linejoin: miter"/>
   </g>
   <g id="patch_44">
    <path d="M 1054.548126 359.517187 
L 1054.548126 26.877187 
L 1024.083722 26.877187 
L 1024.083722 359.517187 
z
" clip-path="url(#p62d86bb8b8)" style="fill: #add8e6; stroke: #add8e6; stroke-linejoin: miter"/>
   </g>
   <g id="patch_45">
    <path d="M 1033.142698 359.517187 
L 1033.142698 26.877187 
L 1033.40054 26.877187 
L 1033.40054 359.517187 
z
" clip-path="url(#p62d86bb8b8)" style="fill: #add8e6; stroke: #add8e6; stroke-linejoin: miter"/>
   </g>
   <g id="patch_46">
    <path d="M 1079.036138 359.517187 
L 1079.036138 26.877187 
L 1064.905517 26.877187 
L 1064.905517 359.517187 
z
" clip-path="url(#p62d86bb8b8)" style="fill: #add8e6; stroke: #add8e6; stroke-linejoin: miter"/>
   </g>
   <g id="patch_47">
    <path d="M 1114.507727 359.517187 
L 1114.507727 26.877187 
L 1084.298862 26.877187 
L 1084.298862 359.517187 
z
" clip-path="url(#p62d86bb8b8)" style="fill: #add8e6; stroke: #add8e6; stroke-linejoin: miter"/>
   </g>
   <g id="patch_48">
    <path d="M 541.975841 359.517187 
L 541.975841 26.877187 
L 1039.241104 26.877187 
L 1039.241104 359.517187 
z
" clip-path="url(#p62d86bb8b8)" style="fill: #808080; opacity: 0.4; stroke: #808080; stroke-linejoin: miter"/>
   </g>
   <g id="patch_49">
    <path d="M 1053.054028 26.877187 
L 1053.054028 26.877187 
L 1053.054028 359.517187 
" clip-path="url(#p62d86bb8b8)" style="fill: #808080; opacity: 0.4; stroke: #808080; stroke-linejoin: miter"/>
   </g>
   <g id="patch_50">
    <path d="M 1066.866952 26.877187 
L 1066.866952 26.877187 
L 1066.866952 359.517187 
" clip-path="url(#p62d86bb8b8)" style="fill: #808080; opacity: 0.4; stroke: #808080; stroke-linejoin: miter"/>
   </g>
   <g id="matplotlib.axis_1">
    <g id="xtick_1">
     <g id="line2d_1">
      <defs>
       <path id="m34fcd7f337" d="M 0 0 
L 0 3.5 
" style="stroke: #000000; stroke-width: 0.8"/>
      </defs>
      <g>
       <use xlink:href="#m34fcd7f337" x="114.684548" y="359.517187" style="stroke: #000000; stroke-width: 0.8"/>
      </g>
     </g>
     <g id="text_1">
      <!-- 07-10 09 -->
      <g transform="translate(92.204079 374.115625) scale(0.1 -0.1)">
       <defs>
        <path id="DejaVuSans-30" d="M 2034 4250 
Q 1547 4250 1301 3770 
Q 1056 3291 1056 2328 
Q 1056 1369 1301 889 
Q 1547 409 2034 409 
Q 2525 409 2770 889 
Q 3016 1369 3016 2328 
Q 3016 3291 2770 3770 
Q 2525 4250 2034 4250 
z
M 2034 4750 
Q 2819 4750 3233 4129 
Q 3647 3509 3647 2328 
Q 3647 1150 3233 529 
Q 2819 -91 2034 -91 
Q 1250 -91 836 529 
Q 422 1150 422 2328 
Q 422 3509 836 4129 
Q 1250 4750 2034 4750 
z
" transform="scale(0.015625)"/>
        <path id="DejaVuSans-37" d="M 525 4666 
L 3525 4666 
L 3525 4397 
L 1831 0 
L 1172 0 
L 2766 4134 
L 525 4134 
L 525 4666 
z
" transform="scale(0.015625)"/>
        <path id="DejaVuSans-2d" d="M 313 2009 
L 1997 2009 
L 1997 1497 
L 313 1497 
L 313 2009 
z
" transform="scale(0.015625)"/>
        <path id="DejaVuSans-31" d="M 794 531 
L 1825 531 
L 1825 4091 
L 703 3866 
L 703 4441 
L 1819 4666 
L 2450 4666 
L 2450 531 
L 3481 531 
L 3481 0 
L 794 0 
L 794 531 
z
" transform="scale(0.015625)"/>
        <path id="DejaVuSans-20" transform="scale(0.015625)"/>
        <path id="DejaVuSans-39" d="M 703 97 
L 703 672 
Q 941 559 1184 500 
Q 1428 441 1663 441 
Q 2288 441 2617 861 
Q 2947 1281 2994 2138 
Q 2813 1869 2534 1725 
Q 2256 1581 1919 1581 
Q 1219 1581 811 2004 
Q 403 2428 403 3163 
Q 403 3881 828 4315 
Q 1253 4750 1959 4750 
Q 2769 4750 3195 4129 
Q 3622 3509 3622 2328 
Q 3622 1225 3098 567 
Q 2575 -91 1691 -91 
Q 1453 -91 1209 -44 
Q 966 3 703 97 
z
M 1959 2075 
Q 2384 2075 2632 2365 
Q 2881 2656 2881 3163 
Q 2881 3666 2632 3958 
Q 2384 4250 1959 4250 
Q 1534 4250 1286 3958 
Q 1038 3666 1038 3163 
Q 1038 2656 1286 2365 
Q 1534 2075 1959 2075 
z
" transform="scale(0.015625)"/>
       </defs>
       <use xlink:href="#DejaVuSans-30"/>
       <use xlink:href="#DejaVuSans-37" x="63.623047"/>
       <use xlink:href="#DejaVuSans-2d" x="127.246094"/>
       <use xlink:href="#DejaVuSans-31" x="163.330078"/>
       <use xlink:href="#DejaVuSans-30" x="226.953125"/>
       <use xlink:href="#DejaVuSans-20" x="290.576172"/>
       <use xlink:href="#DejaVuSans-30" x="322.363281"/>
       <use xlink:href="#DejaVuSans-39" x="385.986328"/>
      </g>
     </g>
    </g>
    <g id="xtick_2">
     <g id="line2d_2">
      <g>
       <use xlink:href="#m34fcd7f337" x="239.000864" y="359.517187" style="stroke: #000000; stroke-width: 0.8"/>
      </g>
     </g>
     <g id="text_2">
      <!-- 07-10 12 -->
      <g transform="translate(216.520395 374.115625) scale(0.1 -0.1)">
       <defs>
        <path id="DejaVuSans-32" d="M 1228 531 
L 3431 531 
L 3431 0 
L 469 0 
L 469 531 
Q 828 903 1448 1529 
Q 2069 2156 2228 2338 
Q 2531 2678 2651 2914 
Q 2772 3150 2772 3378 
Q 2772 3750 2511 3984 
Q 2250 4219 1831 4219 
Q 1534 4219 1204 4116 
Q 875 4013 500 3803 
L 500 4441 
Q 881 4594 1212 4672 
Q 1544 4750 1819 4750 
Q 2544 4750 2975 4387 
Q 3406 4025 3406 3419 
Q 3406 3131 3298 2873 
Q 3191 2616 2906 2266 
Q 2828 2175 2409 1742 
Q 1991 1309 1228 531 
z
" transform="scale(0.015625)"/>
       </defs>
       <use xlink:href="#DejaVuSans-30"/>
       <use xlink:href="#DejaVuSans-37" x="63.623047"/>
       <use xlink:href="#DejaVuSans-2d" x="127.246094"/>
       <use xlink:href="#DejaVuSans-31" x="163.330078"/>
       <use xlink:href="#DejaVuSans-30" x="226.953125"/>
       <use xlink:href="#DejaVuSans-20" x="290.576172"/>
       <use xlink:href="#DejaVuSans-31" x="322.363281"/>
       <use xlink:href="#DejaVuSans-32" x="385.986328"/>
      </g>
     </g>
    </g>
    <g id="xtick_3">
     <g id="line2d_3">
      <g>
       <use xlink:href="#m34fcd7f337" x="363.317179" y="359.517187" style="stroke: #000000; stroke-width: 0.8"/>
      </g>
     </g>
     <g id="text_3">
      <!-- 07-10 15 -->
      <g transform="translate(340.836711 374.115625) scale(0.1 -0.1)">
       <defs>
        <path id="DejaVuSans-35" d="M 691 4666 
L 3169 4666 
L 3169 4134 
L 1269 4134 
L 1269 2991 
Q 1406 3038 1543 3061 
Q 1681 3084 1819 3084 
Q 2600 3084 3056 2656 
Q 3513 2228 3513 1497 
Q 3513 744 3044 326 
Q 2575 -91 1722 -91 
Q 1428 -91 1123 -41 
Q 819 9 494 109 
L 494 744 
Q 775 591 1075 516 
Q 1375 441 1709 441 
Q 2250 441 2565 725 
Q 2881 1009 2881 1497 
Q 2881 1984 2565 2268 
Q 2250 2553 1709 2553 
Q 1456 2553 1204 2497 
Q 953 2441 691 2322 
L 691 4666 
z
" transform="scale(0.015625)"/>
       </defs>
       <use xlink:href="#DejaVuSans-30"/>
       <use xlink:href="#DejaVuSans-37" x="63.623047"/>
       <use xlink:href="#DejaVuSans-2d" x="127.246094"/>
       <use xlink:href="#DejaVuSans-31" x="163.330078"/>
       <use xlink:href="#DejaVuSans-30" x="226.953125"/>
       <use xlink:href="#DejaVuSans-20" x="290.576172"/>
       <use xlink:href="#DejaVuSans-31" x="322.363281"/>
       <use xlink:href="#DejaVuSans-35" x="385.986328"/>
      </g>
     </g>
    </g>
    <g id="xtick_4">
     <g id="line2d_4">
      <g>
       <use xlink:href="#m34fcd7f337" x="487.633495" y="359.517187" style="stroke: #000000; stroke-width: 0.8"/>
      </g>
     </g>
     <g id="text_4">
      <!-- 07-10 18 -->
      <g transform="translate(465.153027 374.115625) scale(0.1 -0.1)">
       <defs>
        <path id="DejaVuSans-38" d="M 2034 2216 
Q 1584 2216 1326 1975 
Q 1069 1734 1069 1313 
Q 1069 891 1326 650 
Q 1584 409 2034 409 
Q 2484 409 2743 651 
Q 3003 894 3003 1313 
Q 3003 1734 2745 1975 
Q 2488 2216 2034 2216 
z
M 1403 2484 
Q 997 2584 770 2862 
Q 544 3141 544 3541 
Q 544 4100 942 4425 
Q 1341 4750 2034 4750 
Q 2731 4750 3128 4425 
Q 3525 4100 3525 3541 
Q 3525 3141 3298 2862 
Q 3072 2584 2669 2484 
Q 3125 2378 3379 2068 
Q 3634 1759 3634 1313 
Q 3634 634 3220 271 
Q 2806 -91 2034 -91 
Q 1263 -91 848 271 
Q 434 634 434 1313 
Q 434 1759 690 2068 
Q 947 2378 1403 2484 
z
M 1172 3481 
Q 1172 3119 1398 2916 
Q 1625 2713 2034 2713 
Q 2441 2713 2670 2916 
Q 2900 3119 2900 3481 
Q 2900 3844 2670 4047 
Q 2441 4250 2034 4250 
Q 1625 4250 1398 4047 
Q 1172 3844 1172 3481 
z
" transform="scale(0.015625)"/>
       </defs>
       <use xlink:href="#DejaVuSans-30"/>
       <use xlink:href="#DejaVuSans-37" x="63.623047"/>
       <use xlink:href="#DejaVuSans-2d" x="127.246094"/>
       <use xlink:href="#DejaVuSans-31" x="163.330078"/>
       <use xlink:href="#DejaVuSans-30" x="226.953125"/>
       <use xlink:href="#DejaVuSans-20" x="290.576172"/>
       <use xlink:href="#DejaVuSans-31" x="322.363281"/>
       <use xlink:href="#DejaVuSans-38" x="385.986328"/>
      </g>
     </g>
    </g>
    <g id="xtick_5">
     <g id="line2d_5">
      <g>
       <use xlink:href="#m34fcd7f337" x="611.949811" y="359.517187" style="stroke: #000000; stroke-width: 0.8"/>
      </g>
     </g>
     <g id="text_5">
      <!-- 07-10 21 -->
      <g transform="translate(589.469343 374.115625) scale(0.1 -0.1)">
       <use xlink:href="#DejaVuSans-30"/>
       <use xlink:href="#DejaVuSans-37" x="63.623047"/>
       <use xlink:href="#DejaVuSans-2d" x="127.246094"/>
       <use xlink:href="#DejaVuSans-31" x="163.330078"/>
       <use xlink:href="#DejaVuSans-30" x="226.953125"/>
       <use xlink:href="#DejaVuSans-20" x="290.576172"/>
       <use xlink:href="#DejaVuSans-32" x="322.363281"/>
       <use xlink:href="#DejaVuSans-31" x="385.986328"/>
      </g>
     </g>
    </g>
    <g id="xtick_6">
     <g id="line2d_6">
      <g>
       <use xlink:href="#m34fcd7f337" x="736.266127" y="359.517187" style="stroke: #000000; stroke-width: 0.8"/>
      </g>
     </g>
     <g id="text_6">
      <!-- 07-11 00 -->
      <g transform="translate(713.785659 374.115625) scale(0.1 -0.1)">
       <use xlink:href="#DejaVuSans-30"/>
       <use xlink:href="#DejaVuSans-37" x="63.623047"/>
       <use xlink:href="#DejaVuSans-2d" x="127.246094"/>
       <use xlink:href="#DejaVuSans-31" x="163.330078"/>
       <use xlink:href="#DejaVuSans-31" x="226.953125"/>
       <use xlink:href="#DejaVuSans-20" x="290.576172"/>
       <use xlink:href="#DejaVuSans-30" x="322.363281"/>
       <use xlink:href="#DejaVuSans-30" x="385.986328"/>
      </g>
     </g>
    </g>
    <g id="xtick_7">
     <g id="line2d_7">
      <g>
       <use xlink:href="#m34fcd7f337" x="860.582443" y="359.517187" style="stroke: #000000; stroke-width: 0.8"/>
      </g>
     </g>
     <g id="text_7">
      <!-- 07-11 03 -->
      <g transform="translate(838.101975 374.115625) scale(0.1 -0.1)">
       <defs>
        <path id="DejaVuSans-33" d="M 2597 2516 
Q 3050 2419 3304 2112 
Q 3559 1806 3559 1356 
Q 3559 666 3084 287 
Q 2609 -91 1734 -91 
Q 1441 -91 1130 -33 
Q 819 25 488 141 
L 488 750 
Q 750 597 1062 519 
Q 1375 441 1716 441 
Q 2309 441 2620 675 
Q 2931 909 2931 1356 
Q 2931 1769 2642 2001 
Q 2353 2234 1838 2234 
L 1294 2234 
L 1294 2753 
L 1863 2753 
Q 2328 2753 2575 2939 
Q 2822 3125 2822 3475 
Q 2822 3834 2567 4026 
Q 2313 4219 1838 4219 
Q 1578 4219 1281 4162 
Q 984 4106 628 3988 
L 628 4550 
Q 988 4650 1302 4700 
Q 1616 4750 1894 4750 
Q 2613 4750 3031 4423 
Q 3450 4097 3450 3541 
Q 3450 3153 3228 2886 
Q 3006 2619 2597 2516 
z
" transform="scale(0.015625)"/>
       </defs>
       <use xlink:href="#DejaVuSans-30"/>
       <use xlink:href="#DejaVuSans-37" x="63.623047"/>
       <use xlink:href="#DejaVuSans-2d" x="127.246094"/>
       <use xlink:href="#DejaVuSans-31" x="163.330078"/>
       <use xlink:href="#DejaVuSans-31" x="226.953125"/>
       <use xlink:href="#DejaVuSans-20" x="290.576172"/>
       <use xlink:href="#DejaVuSans-30" x="322.363281"/>
       <use xlink:href="#DejaVuSans-33" x="385.986328"/>
      </g>
     </g>
    </g>
    <g id="xtick_8">
     <g id="line2d_8">
      <g>
       <use xlink:href="#m34fcd7f337" x="984.898759" y="359.517187" style="stroke: #000000; stroke-width: 0.8"/>
      </g>
     </g>
     <g id="text_8">
      <!-- 07-11 06 -->
      <g transform="translate(962.418291 374.115625) scale(0.1 -0.1)">
       <defs>
        <path id="DejaVuSans-36" d="M 2113 2584 
Q 1688 2584 1439 2293 
Q 1191 2003 1191 1497 
Q 1191 994 1439 701 
Q 1688 409 2113 409 
Q 2538 409 2786 701 
Q 3034 994 3034 1497 
Q 3034 2003 2786 2293 
Q 2538 2584 2113 2584 
z
M 3366 4563 
L 3366 3988 
Q 3128 4100 2886 4159 
Q 2644 4219 2406 4219 
Q 1781 4219 1451 3797 
Q 1122 3375 1075 2522 
Q 1259 2794 1537 2939 
Q 1816 3084 2150 3084 
Q 2853 3084 3261 2657 
Q 3669 2231 3669 1497 
Q 3669 778 3244 343 
Q 2819 -91 2113 -91 
Q 1303 -91 875 529 
Q 447 1150 447 2328 
Q 447 3434 972 4092 
Q 1497 4750 2381 4750 
Q 2619 4750 2861 4703 
Q 3103 4656 3366 4563 
z
" transform="scale(0.015625)"/>
       </defs>
       <use xlink:href="#DejaVuSans-30"/>
       <use xlink:href="#DejaVuSans-37" x="63.623047"/>
       <use xlink:href="#DejaVuSans-2d" x="127.246094"/>
       <use xlink:href="#DejaVuSans-31" x="163.330078"/>
       <use xlink:href="#DejaVuSans-31" x="226.953125"/>
       <use xlink:href="#DejaVuSans-20" x="290.576172"/>
       <use xlink:href="#DejaVuSans-30" x="322.363281"/>
       <use xlink:href="#DejaVuSans-36" x="385.986328"/>
      </g>
     </g>
    </g>
    <g id="xtick_9">
     <g id="line2d_9">
      <g>
       <use xlink:href="#m34fcd7f337" x="1109.215075" y="359.517187" style="stroke: #000000; stroke-width: 0.8"/>
      </g>
     </g>
     <g id="text_9">
      <!-- 07-11 09 -->
      <g transform="translate(1086.734606 374.115625) scale(0.1 -0.1)">
       <use xlink:href="#DejaVuSans-30"/>
       <use xlink:href="#DejaVuSans-37" x="63.623047"/>
       <use xlink:href="#DejaVuSans-2d" x="127.246094"/>
       <use xlink:href="#DejaVuSans-31" x="163.330078"/>
       <use xlink:href="#DejaVuSans-31" x="226.953125"/>
       <use xlink:href="#DejaVuSans-20" x="290.576172"/>
       <use xlink:href="#DejaVuSans-30" x="322.363281"/>
       <use xlink:href="#DejaVuSans-39" x="385.986328"/>
      </g>
     </g>
    </g>
    <g id="text_10">
     <!-- Time -->
     <g transform="translate(592.554688 389.313437) scale(0.12 -0.12)">
      <defs>
       <path id="DejaVuSans-54" d="M -19 4666 
L 3928 4666 
L 3928 4134 
L 2272 4134 
L 2272 0 
L 1638 0 
L 1638 4134 
L -19 4134 
L -19 4666 
z
" transform="scale(0.015625)"/>
       <path id="DejaVuSans-69" d="M 603 3500 
L 1178 3500 
L 1178 0 
L 603 0 
L 603 3500 
z
M 603 4863 
L 1178 4863 
L 1178 4134 
L 603 4134 
L 603 4863 
z
" transform="scale(0.015625)"/>
       <path id="DejaVuSans-6d" d="M 3328 2828 
Q 3544 3216 3844 3400 
Q 4144 3584 4550 3584 
Q 5097 3584 5394 3201 
Q 5691 2819 5691 2113 
L 5691 0 
L 5113 0 
L 5113 2094 
Q 5113 2597 4934 2840 
Q 4756 3084 4391 3084 
Q 3944 3084 3684 2787 
Q 3425 2491 3425 1978 
L 3425 0 
L 2847 0 
L 2847 2094 
Q 2847 2600 2669 2842 
Q 2491 3084 2119 3084 
Q 1678 3084 1418 2786 
Q 1159 2488 1159 1978 
L 1159 0 
L 581 0 
L 581 3500 
L 1159 3500 
L 1159 2956 
Q 1356 3278 1631 3431 
Q 1906 3584 2284 3584 
Q 2666 3584 2933 3390 
Q 3200 3197 3328 2828 
z
" transform="scale(0.015625)"/>
       <path id="DejaVuSans-65" d="M 3597 1894 
L 3597 1613 
L 953 1613 
Q 991 1019 1311 708 
Q 1631 397 2203 397 
Q 2534 397 2845 478 
Q 3156 559 3463 722 
L 3463 178 
Q 3153 47 2828 -22 
Q 2503 -91 2169 -91 
Q 1331 -91 842 396 
Q 353 884 353 1716 
Q 353 2575 817 3079 
Q 1281 3584 2069 3584 
Q 2775 3584 3186 3129 
Q 3597 2675 3597 1894 
z
M 3022 2063 
Q 3016 2534 2758 2815 
Q 2500 3097 2075 3097 
Q 1594 3097 1305 2825 
Q 1016 2553 972 2059 
L 3022 2063 
z
" transform="scale(0.015625)"/>
      </defs>
      <use xlink:href="#DejaVuSans-54"/>
      <use xlink:href="#DejaVuSans-69" x="57.958984"/>
      <use xlink:href="#DejaVuSans-6d" x="85.742188"/>
      <use xlink:href="#DejaVuSans-65" x="183.154297"/>
     </g>
    </g>
   </g>
   <g id="matplotlib.axis_2">
    <g id="ytick_1">
     <g id="line2d_10">
      <defs>
       <path id="me0c36a4f30" d="M 0 0 
L -3.5 0 
" style="stroke: #000000; stroke-width: 0.8"/>
      </defs>
      <g>
       <use xlink:href="#me0c36a4f30" x="49.235" y="344.397187" style="stroke: #000000; stroke-width: 0.8"/>
      </g>
     </g>
     <g id="text_11">
      <!-- 0 -->
      <g transform="translate(35.8725 348.196406) scale(0.1 -0.1)">
       <use xlink:href="#DejaVuSans-30"/>
      </g>
     </g>
    </g>
    <g id="ytick_2">
     <g id="line2d_11">
      <g>
       <use xlink:href="#me0c36a4f30" x="49.235" y="274.397187" style="stroke: #000000; stroke-width: 0.8"/>
      </g>
     </g>
     <g id="text_12">
      <!-- 50 -->
      <g transform="translate(29.51 278.196406) scale(0.1 -0.1)">
       <use xlink:href="#DejaVuSans-35"/>
       <use xlink:href="#DejaVuSans-30" x="63.623047"/>
      </g>
     </g>
    </g>
    <g id="ytick_3">
     <g id="line2d_12">
      <g>
       <use xlink:href="#me0c36a4f30" x="49.235" y="204.397187" style="stroke: #000000; stroke-width: 0.8"/>
      </g>
     </g>
     <g id="text_13">
      <!-- 100 -->
      <g transform="translate(23.1475 208.196406) scale(0.1 -0.1)">
       <use xlink:href="#DejaVuSans-31"/>
       <use xlink:href="#DejaVuSans-30" x="63.623047"/>
       <use xlink:href="#DejaVuSans-30" x="127.246094"/>
      </g>
     </g>
    </g>
    <g id="ytick_4">
     <g id="line2d_13">
      <g>
       <use xlink:href="#me0c36a4f30" x="49.235" y="134.397187" style="stroke: #000000; stroke-width: 0.8"/>
      </g>
     </g>
     <g id="text_14">
      <!-- 150 -->
      <g transform="translate(23.1475 138.196406) scale(0.1 -0.1)">
       <use xlink:href="#DejaVuSans-31"/>
       <use xlink:href="#DejaVuSans-35" x="63.623047"/>
       <use xlink:href="#DejaVuSans-30" x="127.246094"/>
      </g>
     </g>
    </g>
    <g id="ytick_5">
     <g id="line2d_14">
      <g>
       <use xlink:href="#me0c36a4f30" x="49.235" y="64.397187" style="stroke: #000000; stroke-width: 0.8"/>
      </g>
     </g>
     <g id="text_15">
      <!-- 200 -->
      <g transform="translate(23.1475 68.196406) scale(0.1 -0.1)">
       <use xlink:href="#DejaVuSans-32"/>
       <use xlink:href="#DejaVuSans-30" x="63.623047"/>
       <use xlink:href="#DejaVuSans-30" x="127.246094"/>
      </g>
     </g>
    </g>
    <g id="text_16">
     <!-- Pellet_Count -->
     <g transform="translate(16.318125 230.485312) rotate(-90) scale(0.12 -0.12)">
      <defs>
       <path id="DejaVuSans-50" d="M 1259 4147 
L 1259 2394 
L 2053 2394 
Q 2494 2394 2734 2622 
Q 2975 2850 2975 3272 
Q 2975 3691 2734 3919 
Q 2494 4147 2053 4147 
L 1259 4147 
z
M 628 4666 
L 2053 4666 
Q 2838 4666 3239 4311 
Q 3641 3956 3641 3272 
Q 3641 2581 3239 2228 
Q 2838 1875 2053 1875 
L 1259 1875 
L 1259 0 
L 628 0 
L 628 4666 
z
" transform="scale(0.015625)"/>
       <path id="DejaVuSans-6c" d="M 603 4863 
L 1178 4863 
L 1178 0 
L 603 0 
L 603 4863 
z
" transform="scale(0.015625)"/>
       <path id="DejaVuSans-74" d="M 1172 4494 
L 1172 3500 
L 2356 3500 
L 2356 3053 
L 1172 3053 
L 1172 1153 
Q 1172 725 1289 603 
Q 1406 481 1766 481 
L 2356 481 
L 2356 0 
L 1766 0 
Q 1100 0 847 248 
Q 594 497 594 1153 
L 594 3053 
L 172 3053 
L 172 3500 
L 594 3500 
L 594 4494 
L 1172 4494 
z
" transform="scale(0.015625)"/>
       <path id="DejaVuSans-5f" d="M 3263 -1063 
L 3263 -1509 
L -63 -1509 
L -63 -1063 
L 3263 -1063 
z
" transform="scale(0.015625)"/>
       <path id="DejaVuSans-43" d="M 4122 4306 
L 4122 3641 
Q 3803 3938 3442 4084 
Q 3081 4231 2675 4231 
Q 1875 4231 1450 3742 
Q 1025 3253 1025 2328 
Q 1025 1406 1450 917 
Q 1875 428 2675 428 
Q 3081 428 3442 575 
Q 3803 722 4122 1019 
L 4122 359 
Q 3791 134 3420 21 
Q 3050 -91 2638 -91 
Q 1578 -91 968 557 
Q 359 1206 359 2328 
Q 359 3453 968 4101 
Q 1578 4750 2638 4750 
Q 3056 4750 3426 4639 
Q 3797 4528 4122 4306 
z
" transform="scale(0.015625)"/>
       <path id="DejaVuSans-6f" d="M 1959 3097 
Q 1497 3097 1228 2736 
Q 959 2375 959 1747 
Q 959 1119 1226 758 
Q 1494 397 1959 397 
Q 2419 397 2687 759 
Q 2956 1122 2956 1747 
Q 2956 2369 2687 2733 
Q 2419 3097 1959 3097 
z
M 1959 3584 
Q 2709 3584 3137 3096 
Q 3566 2609 3566 1747 
Q 3566 888 3137 398 
Q 2709 -91 1959 -91 
Q 1206 -91 779 398 
Q 353 888 353 1747 
Q 353 2609 779 3096 
Q 1206 3584 1959 3584 
z
" transform="scale(0.015625)"/>
       <path id="DejaVuSans-75" d="M 544 1381 
L 544 3500 
L 1119 3500 
L 1119 1403 
Q 1119 906 1312 657 
Q 1506 409 1894 409 
Q 2359 409 2629 706 
Q 2900 1003 2900 1516 
L 2900 3500 
L 3475 3500 
L 3475 0 
L 2900 0 
L 2900 538 
Q 2691 219 2414 64 
Q 2138 -91 1772 -91 
Q 1169 -91 856 284 
Q 544 659 544 1381 
z
M 1991 3584 
L 1991 3584 
z
" transform="scale(0.015625)"/>
       <path id="DejaVuSans-6e" d="M 3513 2113 
L 3513 0 
L 2938 0 
L 2938 2094 
Q 2938 2591 2744 2837 
Q 2550 3084 2163 3084 
Q 1697 3084 1428 2787 
Q 1159 2491 1159 1978 
L 1159 0 
L 581 0 
L 581 3500 
L 1159 3500 
L 1159 2956 
Q 1366 3272 1645 3428 
Q 1925 3584 2291 3584 
Q 2894 3584 3203 3211 
Q 3513 2838 3513 2113 
z
" transform="scale(0.015625)"/>
      </defs>
      <use xlink:href="#DejaVuSans-50"/>
      <use xlink:href="#DejaVuSans-65" x="56.677734"/>
      <use xlink:href="#DejaVuSans-6c" x="118.201172"/>
      <use xlink:href="#DejaVuSans-6c" x="145.984375"/>
      <use xlink:href="#DejaVuSans-65" x="173.767578"/>
      <use xlink:href="#DejaVuSans-74" x="235.291016"/>
      <use xlink:href="#DejaVuSans-5f" x="274.5"/>
      <use xlink:href="#DejaVuSans-43" x="324.5"/>
      <use xlink:href="#DejaVuSans-6f" x="394.324219"/>
      <use xlink:href="#DejaVuSans-75" x="455.505859"/>
      <use xlink:href="#DejaVuSans-6e" x="518.884766"/>
      <use xlink:href="#DejaVuSans-74" x="582.263672"/>
     </g>
    </g>
   </g>
   <g id="line2d_15">
    <path d="M 99.962273 344.397187 
L 100.537811 344.397187 
L 100.549322 342.997187 
L 122.523382 342.997187 
L 122.523382 342.997187 
L 123.306114 341.597187 
L 125.711865 341.597187 
L 125.723376 340.197187 
L 126.264382 340.197187 
L 126.356468 338.797187 
L 129.544952 338.797187 
L 129.637038 337.397187 
L 130.074447 337.397187 
L 130.097469 335.997187 
L 130.339195 335.997187 
L 130.362216 334.597187 
L 130.615453 334.597187 
L 130.638475 333.197187 
L 130.891712 333.197187 
L 130.914733 331.797187 
L 132.687392 331.797187 
L 132.744946 330.397187 
L 136.854291 330.397187 
L 137.026952 328.997187 
L 137.245657 328.997187 
L 137.2917 327.597187 
L 138.120475 327.597187 
L 138.131986 326.197187 
L 138.396734 326.197187 
L 138.442777 324.797187 
L 138.696014 324.797187 
L 138.765078 323.397187 
L 139.018315 323.397187 
L 139.029826 321.997187 
L 139.248531 321.997187 
L 139.778026 320.597187 
L 140.249968 320.597187 
L 140.261478 319.197187 
L 141.976583 319.197187 
L 141.988094 317.797187 
L 145.832691 317.797187 
L 145.844202 316.397187 
L 157.447058 316.397187 
L 158.22979 314.997187 
L 165.723302 314.997187 
L 165.769345 313.597187 
L 166.080136 313.597187 
L 166.091646 312.197187 
L 166.29884 312.197187 
L 166.321862 310.797187 
L 166.586609 310.797187 
L 166.609631 309.397187 
L 175.219687 309.397187 
L 175.254219 307.997187 
L 175.403859 307.997187 
L 175.426881 306.597187 
L 175.588032 306.597187 
L 175.611053 305.197187 
L 175.749182 305.197187 
L 175.772204 303.797187 
L 175.944865 303.797187 
L 175.956376 302.397187 
L 178.143423 302.397187 
L 178.177955 300.997187 
L 186.972183 300.997187 
L 186.995205 299.597187 
L 187.156355 299.597187 
L 187.202399 298.197187 
L 187.340528 298.197187 
L 187.398082 296.797187 
L 187.662829 296.797187 
L 187.708872 295.397187 
L 188.031174 295.397187 
L 188.065706 293.997187 
L 188.284411 293.997187 
L 188.341965 292.597187 
L 191.657067 292.597187 
L 191.668577 291.197187 
L 196.514611 291.197187 
L 196.549144 289.797187 
L 196.733316 289.797187 
L 196.767848 288.397187 
L 196.94051 288.397187 
L 196.963531 286.997187 
L 197.101661 286.997187 
L 197.124682 285.597187 
L 197.412452 285.597187 
L 197.573602 282.797187 
L 200.83115 282.797187 
L 206.586535 281.397187 
L 208.543366 281.397187 
L 212.928969 279.997187 
L 212.94048 278.597187 
L 213.078609 278.597187 
L 213.09012 277.197187 
L 213.400911 277.197187 
L 213.423933 275.797187 
L 213.654148 275.797187 
L 213.780766 274.397187 
L 214.091557 274.397187 
L 214.103068 272.997187 
L 214.333283 272.997187 
L 214.367816 271.597187 
L 214.517456 271.597187 
L 214.540477 270.197187 
L 214.72465 270.197187 
L 214.747671 268.797187 
L 237.619571 268.797187 
L 237.619571 268.797187 
L 237.700147 267.397187 
L 238.149067 267.397187 
L 238.172088 265.997187 
L 238.321728 265.997187 
L 238.367771 264.597187 
L 244.157688 264.597187 
L 244.284307 261.797187 
L 249.187895 261.797187 
L 249.210917 260.397187 
L 250.477101 260.397187 
L 250.626741 258.997187 
L 250.868467 258.997187 
L 250.983575 257.597187 
L 256.336083 257.597187 
L 256.347594 256.197187 
L 265.279951 256.197187 
L 270.114475 254.797187 
L 287.633867 254.797187 
L 287.67991 253.397187 
L 287.97919 253.397187 
L 288.002211 251.997187 
L 288.324513 251.997187 
L 288.336024 250.597187 
L 288.589261 250.597187 
L 288.612282 249.197187 
L 288.900051 249.197187 
L 288.911562 247.797187 
L 289.141778 247.797187 
L 289.164799 246.397187 
L 289.383504 246.397187 
L 289.429547 244.997187 
L 302.989234 244.997187 
L 305.889948 243.597187 
L 306.304336 243.597187 
L 306.315846 242.197187 
L 306.684191 242.197187 
L 306.695702 240.797187 
L 311.012241 240.797187 
L 311.023751 239.397187 
L 311.323031 239.397187 
L 311.346053 237.997187 
L 311.89857 237.997187 
L 312.059721 236.597187 
L 312.370511 236.597187 
L 312.508641 235.197187 
L 312.865475 235.197187 
L 312.900007 233.797187 
L 321.049632 233.797187 
L 321.061143 232.397187 
L 321.417977 232.397187 
L 321.429487 230.997187 
L 325.043869 230.997187 
L 325.066891 229.597187 
L 333.469753 229.597187 
L 333.699968 228.197187 
L 336.151762 228.197187 
L 336.174784 226.797187 
L 336.358956 226.797187 
L 336.404999 225.397187 
L 336.727301 225.397187 
L 336.899962 223.997187 
L 337.371904 223.997187 
L 337.383415 222.597187 
L 338.753196 222.597187 
L 338.776218 221.197187 
L 349.055335 221.197187 
L 349.078357 219.797187 
L 350.402096 219.797187 
L 350.413606 218.397187 
L 350.793462 218.397187 
L 350.839505 216.997187 
L 351.357489 216.997187 
L 351.380511 215.597187 
L 353.095616 215.597187 
L 353.118637 214.197187 
L 362.166102 214.197187 
L 362.189124 212.797187 
L 362.718619 212.797187 
L 362.741641 211.397187 
L 364.007826 211.397187 
L 365.734441 209.997187 
L 366.091275 209.997187 
L 366.114297 208.597187 
L 366.298469 208.597187 
L 366.344512 207.197187 
L 373.19342 207.197187 
L 373.216442 205.797187 
L 373.538743 205.797187 
L 373.550254 204.397187 
L 373.734426 204.397187 
L 373.745937 202.997187 
L 373.987663 202.997187 
L 373.999174 201.597187 
L 374.171836 201.597187 
L 374.206368 200.197187 
L 374.367519 200.197187 
L 374.517159 198.797187 
L 374.816439 198.797187 
L 374.83946 197.397187 
L 375.046654 197.397187 
L 375.058165 195.997187 
L 375.334423 195.997187 
L 375.345934 194.597187 
L 377.406362 194.597187 
L 385.072535 193.197187 
L 385.843756 193.197187 
L 386.315698 191.797187 
L 390.194827 191.797187 
L 390.540151 190.397187 
L 407.000552 190.397187 
L 407.023573 188.997187 
L 408.358822 188.997187 
L 408.370333 187.597187 
L 408.589038 187.597187 
L 408.612059 186.197187 
L 411.696946 186.197187 
L 411.719967 184.797187 
L 415.64514 184.797187 
L 415.668161 183.397187 
L 415.875355 183.397187 
L 415.886866 181.997187 
L 416.117081 181.997187 
L 416.140103 180.597187 
L 416.278232 180.597187 
L 416.301254 179.197187 
L 428.686842 179.197187 
L 428.721375 177.797187 
L 430.022092 177.797187 
L 430.045113 176.397187 
L 430.263818 176.397187 
L 430.286839 174.997187 
L 430.494033 174.997187 
L 430.505544 173.597187 
L 430.701227 173.597187 
L 430.701227 173.597187 
L 430.724249 172.197187 
L 430.942953 172.197187 
L 430.965975 170.797187 
L 431.184679 170.797187 
L 431.219212 169.397187 
L 441.233582 169.397187 
L 441.590415 167.997187 
L 442.004803 167.997187 
L 442.039335 166.597187 
L 442.211997 166.597187 
L 442.246529 165.197187 
L 457.532832 165.197187 
L 457.889666 163.797187 
L 462.459441 163.797187 
L 462.482463 162.397187 
L 462.724189 162.397187 
L 462.7357 160.997187 
L 463.000448 160.997187 
L 463.023469 159.597187 
L 463.18462 159.597187 
L 463.207642 158.197187 
L 463.449368 158.197187 
L 463.472389 156.797187 
L 463.702605 156.797187 
L 463.714115 155.397187 
L 472.611941 155.397187 
L 472.634962 153.997187 
L 477.112652 153.997187 
L 477.147184 152.597187 
L 477.377399 152.597187 
L 477.38891 151.197187 
L 477.584593 151.197187 
L 477.814809 149.797187 
L 489.636369 149.797187 
L 489.659391 148.397187 
L 490.373059 148.397187 
L 490.39608 146.997187 
L 490.603274 146.997187 
L 490.626296 145.597187 
L 507.155761 145.597187 
L 507.178783 144.197187 
L 507.385977 144.197187 
L 507.408998 142.797187 
L 507.570149 142.797187 
L 507.593171 141.397187 
L 507.742811 141.397187 
L 507.754321 139.997187 
L 516.433442 139.997187 
L 516.502507 138.597187 
L 516.721211 138.597187 
L 516.744233 137.197187 
L 516.928405 137.197187 
L 516.939916 135.797187 
L 549.941293 135.797187 
L 609.820319 134.397187 
L 609.854851 132.997187 
L 610.13111 132.997187 
L 610.154131 131.597187 
L 650.787149 131.597187 
L 650.821682 130.197187 
L 651.339666 130.197187 
L 651.362688 128.797187 
L 678.666234 128.797187 
L 678.689256 127.397187 
L 678.954004 127.397187 
L 678.977025 125.997187 
L 688.4619 125.997187 
L 762.073274 124.597187 
L 762.084784 123.197187 
L 762.430108 123.197187 
L 762.453129 121.797187 
L 762.694855 121.797187 
L 762.717877 120.397187 
L 762.936581 120.397187 
L 762.959603 118.997187 
L 763.224351 118.997187 
L 763.235861 117.597187 
L 763.477588 117.597187 
L 763.489098 116.197187 
L 773.135124 116.197187 
L 775.391235 114.797187 
L 781.929352 114.797187 
L 781.952373 113.397187 
L 786.971069 113.397187 
L 786.994091 111.997187 
L 787.316392 111.997187 
L 787.339414 110.597187 
L 828.559481 110.597187 
L 828.582503 109.197187 
L 828.98538 109.197187 
L 829.008401 107.797187 
L 829.365235 107.797187 
L 829.388257 106.397187 
L 829.722069 106.397187 
L 829.74509 104.997187 
L 830.03286 104.997187 
L 830.044371 103.597187 
L 866.533511 103.597187 
L 866.556533 102.197187 
L 866.867324 102.197187 
L 866.890345 100.797187 
L 867.143582 100.797187 
L 867.166604 99.397187 
L 867.972358 99.397187 
L 868.00689 97.997187 
L 883.684559 97.997187 
L 883.719091 96.597187 
L 897.854317 96.597187 
L 897.877338 95.197187 
L 898.176618 95.197187 
L 898.19964 93.797187 
L 898.464387 93.797187 
L 898.487409 92.397187 
L 898.821221 92.397187 
L 898.832732 90.997187 
L 899.085969 90.997187 
L 899.155034 89.597187 
L 899.408271 89.597187 
L 899.431292 88.197187 
L 899.649997 88.197187 
L 899.673018 86.797187 
L 899.949277 86.797187 
L 899.949277 86.797187 
L 899.99532 85.397187 
L 914.280185 85.397187 
L 914.291696 83.997187 
L 950.5276 83.997187 
L 950.550622 82.597187 
L 950.815369 82.597187 
L 950.838391 81.197187 
L 951.149182 81.197187 
L 951.172203 79.797187 
L 951.42544 79.797187 
L 951.448462 78.397187 
L 951.690188 78.397187 
L 951.701699 76.997187 
L 952.058532 76.997187 
L 952.081554 75.597187 
L 952.32328 75.597187 
L 952.346302 74.197187 
L 952.62256 74.197187 
L 952.645582 72.797187 
L 996.167803 72.797187 
L 996.190825 71.397187 
L 1021.376389 71.397187 
L 1021.410922 69.997187 
L 1021.871352 69.997187 
L 1022.412359 68.597187 
L 1023.149048 68.597187 
L 1023.229623 67.197187 
L 1023.505882 67.197187 
L 1023.517393 65.797187 
L 1032.380686 65.797187 
L 1032.403707 64.397187 
L 1032.737519 64.397187 
L 1032.760541 62.997187 
L 1032.990756 62.997187 
L 1033.013778 61.597187 
L 1063.379189 61.597187 
L 1063.402211 60.197187 
L 1063.713001 60.197187 
L 1063.966238 58.797187 
L 1064.242497 58.797187 
L 1064.254008 57.397187 
L 1064.507245 57.397187 
L 1064.518755 55.997187 
L 1082.337427 55.997187 
L 1082.37196 54.597187 
L 1082.613686 54.597187 
L 1082.625197 53.197187 
L 1082.947498 53.197187 
L 1082.98203 51.797187 
L 1083.154692 51.797187 
L 1083.177713 50.397187 
L 1083.396418 50.397187 
L 1083.41944 48.997187 
L 1083.592101 48.997187 
L 1083.615123 47.597187 
L 1083.810806 47.597187 
L 1083.822317 46.197187 
L 1084.052532 46.197187 
L 1084.087064 44.797187 
L 1108.409321 44.797187 
L 1108.420832 43.397187 
L 1108.708601 43.397187 
L 1108.766155 41.997187 
L 1108.766155 41.997187 
" clip-path="url(#p62d86bb8b8)" style="fill: none; stroke: #0000ff; stroke-width: 1.5; stroke-linecap: square"/>
   </g>
   <g id="patch_51">
    <path d="M 49.235 359.517187 
L 49.235 26.877187 
" style="fill: none; stroke: #000000; stroke-width: 0.8; stroke-linejoin: miter; stroke-linecap: square"/>
   </g>
   <g id="patch_52">
    <path d="M 1165.235 359.517187 
L 1165.235 26.877187 
" style="fill: none; stroke: #000000; stroke-width: 0.8; stroke-linejoin: miter; stroke-linecap: square"/>
   </g>
   <g id="patch_53">
    <path d="M 49.235 359.517187 
L 1165.235 359.517187 
" style="fill: none; stroke: #000000; stroke-width: 0.8; stroke-linejoin: miter; stroke-linecap: square"/>
   </g>
   <g id="patch_54">
    <path d="M 49.235 26.877187 
L 1165.235 26.877187 
" style="fill: none; stroke: #000000; stroke-width: 0.8; stroke-linejoin: miter; stroke-linecap: square"/>
   </g>
   <g id="text_17">
    <!-- Pellet Count and Cumulative Sum Over Time of Group 6 Mouse 2 -->
    <g transform="translate(315.460625 20.877187) scale(0.18 -0.18)">
     <defs>
      <path id="DejaVuSans-61" d="M 2194 1759 
Q 1497 1759 1228 1600 
Q 959 1441 959 1056 
Q 959 750 1161 570 
Q 1363 391 1709 391 
Q 2188 391 2477 730 
Q 2766 1069 2766 1631 
L 2766 1759 
L 2194 1759 
z
M 3341 1997 
L 3341 0 
L 2766 0 
L 2766 531 
Q 2569 213 2275 61 
Q 1981 -91 1556 -91 
Q 1019 -91 701 211 
Q 384 513 384 1019 
Q 384 1609 779 1909 
Q 1175 2209 1959 2209 
L 2766 2209 
L 2766 2266 
Q 2766 2663 2505 2880 
Q 2244 3097 1772 3097 
Q 1472 3097 1187 3025 
Q 903 2953 641 2809 
L 641 3341 
Q 956 3463 1253 3523 
Q 1550 3584 1831 3584 
Q 2591 3584 2966 3190 
Q 3341 2797 3341 1997 
z
" transform="scale(0.015625)"/>
      <path id="DejaVuSans-64" d="M 2906 2969 
L 2906 4863 
L 3481 4863 
L 3481 0 
L 2906 0 
L 2906 525 
Q 2725 213 2448 61 
Q 2172 -91 1784 -91 
Q 1150 -91 751 415 
Q 353 922 353 1747 
Q 353 2572 751 3078 
Q 1150 3584 1784 3584 
Q 2172 3584 2448 3432 
Q 2725 3281 2906 2969 
z
M 947 1747 
Q 947 1113 1208 752 
Q 1469 391 1925 391 
Q 2381 391 2643 752 
Q 2906 1113 2906 1747 
Q 2906 2381 2643 2742 
Q 2381 3103 1925 3103 
Q 1469 3103 1208 2742 
Q 947 2381 947 1747 
z
" transform="scale(0.015625)"/>
      <path id="DejaVuSans-76" d="M 191 3500 
L 800 3500 
L 1894 563 
L 2988 3500 
L 3597 3500 
L 2284 0 
L 1503 0 
L 191 3500 
z
" transform="scale(0.015625)"/>
      <path id="DejaVuSans-53" d="M 3425 4513 
L 3425 3897 
Q 3066 4069 2747 4153 
Q 2428 4238 2131 4238 
Q 1616 4238 1336 4038 
Q 1056 3838 1056 3469 
Q 1056 3159 1242 3001 
Q 1428 2844 1947 2747 
L 2328 2669 
Q 3034 2534 3370 2195 
Q 3706 1856 3706 1288 
Q 3706 609 3251 259 
Q 2797 -91 1919 -91 
Q 1588 -91 1214 -16 
Q 841 59 441 206 
L 441 856 
Q 825 641 1194 531 
Q 1563 422 1919 422 
Q 2459 422 2753 634 
Q 3047 847 3047 1241 
Q 3047 1584 2836 1778 
Q 2625 1972 2144 2069 
L 1759 2144 
Q 1053 2284 737 2584 
Q 422 2884 422 3419 
Q 422 4038 858 4394 
Q 1294 4750 2059 4750 
Q 2388 4750 2728 4690 
Q 3069 4631 3425 4513 
z
" transform="scale(0.015625)"/>
      <path id="DejaVuSans-4f" d="M 2522 4238 
Q 1834 4238 1429 3725 
Q 1025 3213 1025 2328 
Q 1025 1447 1429 934 
Q 1834 422 2522 422 
Q 3209 422 3611 934 
Q 4013 1447 4013 2328 
Q 4013 3213 3611 3725 
Q 3209 4238 2522 4238 
z
M 2522 4750 
Q 3503 4750 4090 4092 
Q 4678 3434 4678 2328 
Q 4678 1225 4090 567 
Q 3503 -91 2522 -91 
Q 1538 -91 948 565 
Q 359 1222 359 2328 
Q 359 3434 948 4092 
Q 1538 4750 2522 4750 
z
" transform="scale(0.015625)"/>
      <path id="DejaVuSans-72" d="M 2631 2963 
Q 2534 3019 2420 3045 
Q 2306 3072 2169 3072 
Q 1681 3072 1420 2755 
Q 1159 2438 1159 1844 
L 1159 0 
L 581 0 
L 581 3500 
L 1159 3500 
L 1159 2956 
Q 1341 3275 1631 3429 
Q 1922 3584 2338 3584 
Q 2397 3584 2469 3576 
Q 2541 3569 2628 3553 
L 2631 2963 
z
" transform="scale(0.015625)"/>
      <path id="DejaVuSans-66" d="M 2375 4863 
L 2375 4384 
L 1825 4384 
Q 1516 4384 1395 4259 
Q 1275 4134 1275 3809 
L 1275 3500 
L 2222 3500 
L 2222 3053 
L 1275 3053 
L 1275 0 
L 697 0 
L 697 3053 
L 147 3053 
L 147 3500 
L 697 3500 
L 697 3744 
Q 697 4328 969 4595 
Q 1241 4863 1831 4863 
L 2375 4863 
z
" transform="scale(0.015625)"/>
      <path id="DejaVuSans-47" d="M 3809 666 
L 3809 1919 
L 2778 1919 
L 2778 2438 
L 4434 2438 
L 4434 434 
Q 4069 175 3628 42 
Q 3188 -91 2688 -91 
Q 1594 -91 976 548 
Q 359 1188 359 2328 
Q 359 3472 976 4111 
Q 1594 4750 2688 4750 
Q 3144 4750 3555 4637 
Q 3966 4525 4313 4306 
L 4313 3634 
Q 3963 3931 3569 4081 
Q 3175 4231 2741 4231 
Q 1884 4231 1454 3753 
Q 1025 3275 1025 2328 
Q 1025 1384 1454 906 
Q 1884 428 2741 428 
Q 3075 428 3337 486 
Q 3600 544 3809 666 
z
" transform="scale(0.015625)"/>
      <path id="DejaVuSans-70" d="M 1159 525 
L 1159 -1331 
L 581 -1331 
L 581 3500 
L 1159 3500 
L 1159 2969 
Q 1341 3281 1617 3432 
Q 1894 3584 2278 3584 
Q 2916 3584 3314 3078 
Q 3713 2572 3713 1747 
Q 3713 922 3314 415 
Q 2916 -91 2278 -91 
Q 1894 -91 1617 61 
Q 1341 213 1159 525 
z
M 3116 1747 
Q 3116 2381 2855 2742 
Q 2594 3103 2138 3103 
Q 1681 3103 1420 2742 
Q 1159 2381 1159 1747 
Q 1159 1113 1420 752 
Q 1681 391 2138 391 
Q 2594 391 2855 752 
Q 3116 1113 3116 1747 
z
" transform="scale(0.015625)"/>
      <path id="DejaVuSans-4d" d="M 628 4666 
L 1569 4666 
L 2759 1491 
L 3956 4666 
L 4897 4666 
L 4897 0 
L 4281 0 
L 4281 4097 
L 3078 897 
L 2444 897 
L 1241 4097 
L 1241 0 
L 628 0 
L 628 4666 
z
" transform="scale(0.015625)"/>
      <path id="DejaVuSans-73" d="M 2834 3397 
L 2834 2853 
Q 2591 2978 2328 3040 
Q 2066 3103 1784 3103 
Q 1356 3103 1142 2972 
Q 928 2841 928 2578 
Q 928 2378 1081 2264 
Q 1234 2150 1697 2047 
L 1894 2003 
Q 2506 1872 2764 1633 
Q 3022 1394 3022 966 
Q 3022 478 2636 193 
Q 2250 -91 1575 -91 
Q 1294 -91 989 -36 
Q 684 19 347 128 
L 347 722 
Q 666 556 975 473 
Q 1284 391 1588 391 
Q 1994 391 2212 530 
Q 2431 669 2431 922 
Q 2431 1156 2273 1281 
Q 2116 1406 1581 1522 
L 1381 1569 
Q 847 1681 609 1914 
Q 372 2147 372 2553 
Q 372 3047 722 3315 
Q 1072 3584 1716 3584 
Q 2034 3584 2315 3537 
Q 2597 3491 2834 3397 
z
" transform="scale(0.015625)"/>
     </defs>
     <use xlink:href="#DejaVuSans-50"/>
     <use xlink:href="#DejaVuSans-65" x="56.677734"/>
     <use xlink:href="#DejaVuSans-6c" x="118.201172"/>
     <use xlink:href="#DejaVuSans-6c" x="145.984375"/>
     <use xlink:href="#DejaVuSans-65" x="173.767578"/>
     <use xlink:href="#DejaVuSans-74" x="235.291016"/>
     <use xlink:href="#DejaVuSans-20" x="274.5"/>
     <use xlink:href="#DejaVuSans-43" x="306.287109"/>
     <use xlink:href="#DejaVuSans-6f" x="376.111328"/>
     <use xlink:href="#DejaVuSans-75" x="437.292969"/>
     <use xlink:href="#DejaVuSans-6e" x="500.671875"/>
     <use xlink:href="#DejaVuSans-74" x="564.050781"/>
     <use xlink:href="#DejaVuSans-20" x="603.259766"/>
     <use xlink:href="#DejaVuSans-61" x="635.046875"/>
     <use xlink:href="#DejaVuSans-6e" x="696.326172"/>
     <use xlink:href="#DejaVuSans-64" x="759.705078"/>
     <use xlink:href="#DejaVuSans-20" x="823.181641"/>
     <use xlink:href="#DejaVuSans-43" x="854.96875"/>
     <use xlink:href="#DejaVuSans-75" x="924.792969"/>
     <use xlink:href="#DejaVuSans-6d" x="988.171875"/>
     <use xlink:href="#DejaVuSans-75" x="1085.583984"/>
     <use xlink:href="#DejaVuSans-6c" x="1148.962891"/>
     <use xlink:href="#DejaVuSans-61" x="1176.746094"/>
     <use xlink:href="#DejaVuSans-74" x="1238.025391"/>
     <use xlink:href="#DejaVuSans-69" x="1277.234375"/>
     <use xlink:href="#DejaVuSans-76" x="1305.017578"/>
     <use xlink:href="#DejaVuSans-65" x="1364.197266"/>
     <use xlink:href="#DejaVuSans-20" x="1425.720703"/>
     <use xlink:href="#DejaVuSans-53" x="1457.507812"/>
     <use xlink:href="#DejaVuSans-75" x="1520.984375"/>
     <use xlink:href="#DejaVuSans-6d" x="1584.363281"/>
     <use xlink:href="#DejaVuSans-20" x="1681.775391"/>
     <use xlink:href="#DejaVuSans-4f" x="1713.5625"/>
     <use xlink:href="#DejaVuSans-76" x="1792.273438"/>
     <use xlink:href="#DejaVuSans-65" x="1851.453125"/>
     <use xlink:href="#DejaVuSans-72" x="1912.976562"/>
     <use xlink:href="#DejaVuSans-20" x="1954.089844"/>
     <use xlink:href="#DejaVuSans-54" x="1985.876953"/>
     <use xlink:href="#DejaVuSans-69" x="2043.835938"/>
     <use xlink:href="#DejaVuSans-6d" x="2071.619141"/>
     <use xlink:href="#DejaVuSans-65" x="2169.03125"/>
     <use xlink:href="#DejaVuSans-20" x="2230.554688"/>
     <use xlink:href="#DejaVuSans-6f" x="2262.341797"/>
     <use xlink:href="#DejaVuSans-66" x="2323.523438"/>
     <use xlink:href="#DejaVuSans-20" x="2358.728516"/>
     <use xlink:href="#DejaVuSans-47" x="2390.515625"/>
     <use xlink:href="#DejaVuSans-72" x="2468.005859"/>
     <use xlink:href="#DejaVuSans-6f" x="2506.869141"/>
     <use xlink:href="#DejaVuSans-75" x="2568.050781"/>
     <use xlink:href="#DejaVuSans-70" x="2631.429688"/>
     <use xlink:href="#DejaVuSans-20" x="2694.90625"/>
     <use xlink:href="#DejaVuSans-36" x="2726.693359"/>
     <use xlink:href="#DejaVuSans-20" x="2790.316406"/>
     <use xlink:href="#DejaVuSans-4d" x="2822.103516"/>
     <use xlink:href="#DejaVuSans-6f" x="2908.382812"/>
     <use xlink:href="#DejaVuSans-75" x="2969.564453"/>
     <use xlink:href="#DejaVuSans-73" x="3032.943359"/>
     <use xlink:href="#DejaVuSans-65" x="3085.042969"/>
     <use xlink:href="#DejaVuSans-20" x="3146.566406"/>
     <use xlink:href="#DejaVuSans-32" x="3178.353516"/>
    </g>
   </g>
   <g id="legend_1">
    <g id="patch_55">
     <path d="M 1086.550625 64.233437 
L 1158.235 64.233437 
Q 1160.235 64.233437 1160.235 62.233437 
L 1160.235 33.877187 
Q 1160.235 31.877187 1158.235 31.877187 
L 1086.550625 31.877187 
Q 1084.550625 31.877187 1084.550625 33.877187 
L 1084.550625 62.233437 
Q 1084.550625 64.233437 1086.550625 64.233437 
z
" style="fill: #ffffff; opacity: 0.8; stroke: #cccccc; stroke-linejoin: miter"/>
    </g>
    <g id="patch_56">
     <path d="M 1088.550625 43.475625 
L 1108.550625 43.475625 
L 1108.550625 36.475625 
L 1088.550625 36.475625 
z
" style="fill: #add8e6; opacity: 0.9; stroke: #add8e6; stroke-linejoin: miter"/>
    </g>
    <g id="text_18">
     <!-- Meal -->
     <g transform="translate(1116.550625 43.475625) scale(0.1 -0.1)">
      <use xlink:href="#DejaVuSans-4d"/>
      <use xlink:href="#DejaVuSans-65" x="86.279297"/>
      <use xlink:href="#DejaVuSans-61" x="147.802734"/>
      <use xlink:href="#DejaVuSans-6c" x="209.082031"/>
     </g>
    </g>
    <g id="patch_57">
     <path d="M 1088.550625 58.15375 
L 1108.550625 58.15375 
L 1108.550625 51.15375 
L 1088.550625 51.15375 
z
" style="fill: #808080; opacity: 0.5; stroke: #808080; stroke-linejoin: miter"/>
    </g>
    <g id="text_19">
     <!-- Inactive -->
     <g transform="translate(1116.550625 58.15375) scale(0.1 -0.1)">
      <defs>
       <path id="DejaVuSans-49" d="M 628 4666 
L 1259 4666 
L 1259 0 
L 628 0 
L 628 4666 
z
" transform="scale(0.015625)"/>
       <path id="DejaVuSans-63" d="M 3122 3366 
L 3122 2828 
Q 2878 2963 2633 3030 
Q 2388 3097 2138 3097 
Q 1578 3097 1268 2742 
Q 959 2388 959 1747 
Q 959 1106 1268 751 
Q 1578 397 2138 397 
Q 2388 397 2633 464 
Q 2878 531 3122 666 
L 3122 134 
Q 2881 22 2623 -34 
Q 2366 -91 2075 -91 
Q 1284 -91 818 406 
Q 353 903 353 1747 
Q 353 2603 823 3093 
Q 1294 3584 2113 3584 
Q 2378 3584 2631 3529 
Q 2884 3475 3122 3366 
z
" transform="scale(0.015625)"/>
      </defs>
      <use xlink:href="#DejaVuSans-49"/>
      <use xlink:href="#DejaVuSans-6e" x="29.492188"/>
      <use xlink:href="#DejaVuSans-61" x="92.871094"/>
      <use xlink:href="#DejaVuSans-63" x="154.150391"/>
      <use xlink:href="#DejaVuSans-74" x="209.130859"/>
      <use xlink:href="#DejaVuSans-69" x="248.339844"/>
      <use xlink:href="#DejaVuSans-76" x="276.123047"/>
      <use xlink:href="#DejaVuSans-65" x="335.302734"/>
     </g>
    </g>
   </g>
  </g>
 </g>
 <defs>
  <clipPath id="p62d86bb8b8">
   <rect x="49.235" y="26.877187" width="1116" height="332.64"/>
  </clipPath>
 </defs>
</svg>
