<?xml version="1.0" encoding="utf-8" standalone="no"?>
<!DOCTYPE svg PUBLIC "-//W3C//DTD SVG 1.1//EN"
  "http://www.w3.org/Graphics/SVG/1.1/DTD/svg11.dtd">
<svg xmlns:xlink="http://www.w3.org/1999/xlink" width="1172.435pt" height="399.009062pt" viewBox="0 0 1172.435 399.009062" xmlns="http://www.w3.org/2000/svg" version="1.1">
 <metadata>
  <rdf:RDF xmlns:dc="http://purl.org/dc/elements/1.1/" xmlns:cc="http://creativecommons.org/ns#" xmlns:rdf="http://www.w3.org/1999/02/22-rdf-syntax-ns#">
   <cc:Work>
    <dc:type rdf:resource="http://purl.org/dc/dcmitype/StillImage"/>
    <dc:date>2025-07-28T21:54:28.179269</dc:date>
    <dc:format>image/svg+xml</dc:format>
    <dc:creator>
     <cc:Agent>
      <dc:title>Matplotlib v3.8.4, https://matplotlib.org/</dc:title>
     </cc:Agent>
    </dc:creator>
   </cc:Work>
  </rdf:RDF>
 </metadata>
 <defs>
  <style type="text/css">*{stroke-linejoin: round; stroke-linecap: butt}</style>
 </defs>
 <g id="figure_1">
  <g id="patch_1">
   <path d="M 0 399.009062 
L 1172.435 399.009062 
L 1172.435 0 
L 0 0 
z
" style="fill: #ffffff"/>
  </g>
  <g id="axes_1">
   <g id="patch_2">
    <path d="M 49.235 359.517187 
L 1165.235 359.517187 
L 1165.235 26.877187 
L 49.235 26.877187 
z
" style="fill: #ffffff"/>
   </g>
   <g id="patch_3">
    <path d="M 164.387471 359.517187 
L 164.387471 26.877187 
L 162.141547 26.877187 
L 162.141547 359.517187 
z
" clip-path="url(#p2f3ca6c8ea)" style="fill: #add8e6; stroke: #add8e6; stroke-linejoin: miter"/>
   </g>
   <g id="patch_4">
    <path d="M 163.523169 359.517187 
L 163.523169 26.877187 
L 161.718859 26.877187 
L 161.718859 359.517187 
z
" clip-path="url(#p2f3ca6c8ea)" style="fill: #add8e6; stroke: #add8e6; stroke-linejoin: miter"/>
   </g>
   <g id="patch_5">
    <path d="M 163.624109 359.517187 
L 163.624109 26.877187 
L 163.447463 26.877187 
L 163.447463 359.517187 
z
" clip-path="url(#p2f3ca6c8ea)" style="fill: #add8e6; stroke: #add8e6; stroke-linejoin: miter"/>
   </g>
   <g id="patch_6">
    <path d="M 164.797541 359.517187 
L 164.797541 26.877187 
L 165.043583 26.877187 
L 165.043583 359.517187 
z
" clip-path="url(#p2f3ca6c8ea)" style="fill: #add8e6; stroke: #add8e6; stroke-linejoin: miter"/>
   </g>
   <g id="patch_7">
    <path d="M 166.097148 359.517187 
L 166.097148 26.877187 
L 164.873246 26.877187 
L 164.873246 359.517187 
z
" clip-path="url(#p2f3ca6c8ea)" style="fill: #add8e6; stroke: #add8e6; stroke-linejoin: miter"/>
   </g>
   <g id="patch_8">
    <path d="M 171.270343 359.517187 
L 171.270343 26.877187 
L 170.20416 26.877187 
L 170.20416 359.517187 
z
" clip-path="url(#p2f3ca6c8ea)" style="fill: #add8e6; stroke: #add8e6; stroke-linejoin: miter"/>
   </g>
   <g id="patch_9">
    <path d="M 170.898125 359.517187 
L 170.898125 26.877187 
L 170.942286 26.877187 
L 170.942286 359.517187 
z
" clip-path="url(#p2f3ca6c8ea)" style="fill: #add8e6; stroke: #add8e6; stroke-linejoin: miter"/>
   </g>
   <g id="patch_10">
    <path d="M 187.704698 359.517187 
L 187.704698 26.877187 
L 187.546979 26.877187 
L 187.546979 359.517187 
z
" clip-path="url(#p2f3ca6c8ea)" style="fill: #add8e6; stroke: #add8e6; stroke-linejoin: miter"/>
   </g>
   <g id="patch_11">
    <path d="M 198.530554 359.517187 
L 198.530554 26.877187 
L 196.39188 26.877187 
L 196.39188 359.517187 
z
" clip-path="url(#p2f3ca6c8ea)" style="fill: #add8e6; stroke: #add8e6; stroke-linejoin: miter"/>
   </g>
   <g id="patch_12">
    <path d="M 200.050969 359.517187 
L 200.050969 26.877187 
L 199.621972 26.877187 
L 199.621972 359.517187 
z
" clip-path="url(#p2f3ca6c8ea)" style="fill: #add8e6; stroke: #add8e6; stroke-linejoin: miter"/>
   </g>
   <g id="patch_13">
    <path d="M 224.604716 359.517187 
L 224.604716 26.877187 
L 224.655186 26.877187 
L 224.655186 359.517187 
z
" clip-path="url(#p2f3ca6c8ea)" style="fill: #add8e6; stroke: #add8e6; stroke-linejoin: miter"/>
   </g>
   <g id="patch_14">
    <path d="M 249.335109 359.517187 
L 249.335109 26.877187 
L 249.38558 26.877187 
L 249.38558 359.517187 
z
" clip-path="url(#p2f3ca6c8ea)" style="fill: #add8e6; stroke: #add8e6; stroke-linejoin: miter"/>
   </g>
   <g id="patch_15">
    <path d="M 255.706971 359.517187 
L 255.706971 26.877187 
L 256.217982 26.877187 
L 256.217982 359.517187 
z
" clip-path="url(#p2f3ca6c8ea)" style="fill: #add8e6; stroke: #add8e6; stroke-linejoin: miter"/>
   </g>
   <g id="patch_16">
    <path d="M 258.722565 359.517187 
L 258.722565 26.877187 
L 258.255715 26.877187 
L 258.255715 359.517187 
z
" clip-path="url(#p2f3ca6c8ea)" style="fill: #add8e6; stroke: #add8e6; stroke-linejoin: miter"/>
   </g>
   <g id="patch_17">
    <path d="M 294.720428 359.517187 
L 294.720428 26.877187 
L 269.49795 26.877187 
L 269.49795 359.517187 
z
" clip-path="url(#p2f3ca6c8ea)" style="fill: #add8e6; stroke: #add8e6; stroke-linejoin: miter"/>
   </g>
   <g id="patch_18">
    <path d="M 270.204533 359.517187 
L 270.204533 26.877187 
L 271.377965 26.877187 
L 271.377965 359.517187 
z
" clip-path="url(#p2f3ca6c8ea)" style="fill: #add8e6; stroke: #add8e6; stroke-linejoin: miter"/>
   </g>
   <g id="patch_19">
    <path d="M 272.519853 359.517187 
L 272.519853 26.877187 
L 271.907902 26.877187 
L 271.907902 359.517187 
z
" clip-path="url(#p2f3ca6c8ea)" style="fill: #add8e6; stroke: #add8e6; stroke-linejoin: miter"/>
   </g>
   <g id="patch_20">
    <path d="M 276.879216 359.517187 
L 276.879216 26.877187 
L 275.238935 26.877187 
L 275.238935 359.517187 
z
" clip-path="url(#p2f3ca6c8ea)" style="fill: #add8e6; stroke: #add8e6; stroke-linejoin: miter"/>
   </g>
   <g id="patch_21">
    <path d="M 276.525924 359.517187 
L 276.525924 26.877187 
L 277.257742 26.877187 
L 277.257742 359.517187 
z
" clip-path="url(#p2f3ca6c8ea)" style="fill: #add8e6; stroke: #add8e6; stroke-linejoin: miter"/>
   </g>
   <g id="patch_22">
    <path d="M 279.762325 359.517187 
L 279.762325 26.877187 
L 278.841244 26.877187 
L 278.841244 359.517187 
z
" clip-path="url(#p2f3ca6c8ea)" style="fill: #add8e6; stroke: #add8e6; stroke-linejoin: miter"/>
   </g>
   <g id="patch_23">
    <path d="M 307.337975 359.517187 
L 307.337975 26.877187 
L 281.402606 26.877187 
L 281.402606 359.517187 
z
" clip-path="url(#p2f3ca6c8ea)" style="fill: #add8e6; stroke: #add8e6; stroke-linejoin: miter"/>
   </g>
   <g id="patch_24">
    <path d="M 284.254172 359.517187 
L 284.254172 26.877187 
L 283.377253 26.877187 
L 283.377253 359.517187 
z
" clip-path="url(#p2f3ca6c8ea)" style="fill: #add8e6; stroke: #add8e6; stroke-linejoin: miter"/>
   </g>
   <g id="patch_25">
    <path d="M 311.754117 359.517187 
L 311.754117 26.877187 
L 287.8691 26.877187 
L 287.8691 359.517187 
z
" clip-path="url(#p2f3ca6c8ea)" style="fill: #add8e6; stroke: #add8e6; stroke-linejoin: miter"/>
   </g>
   <g id="patch_26">
    <path d="M 288.872195 359.517187 
L 288.872195 26.877187 
L 288.651388 26.877187 
L 288.651388 359.517187 
z
" clip-path="url(#p2f3ca6c8ea)" style="fill: #add8e6; stroke: #add8e6; stroke-linejoin: miter"/>
   </g>
   <g id="patch_27">
    <path d="M 321.217278 359.517187 
L 321.217278 26.877187 
L 295.496407 26.877187 
L 295.496407 359.517187 
z
" clip-path="url(#p2f3ca6c8ea)" style="fill: #add8e6; stroke: #add8e6; stroke-linejoin: miter"/>
   </g>
   <g id="patch_28">
    <path d="M 303.174185 359.517187 
L 303.174185 26.877187 
L 302.492837 26.877187 
L 302.492837 359.517187 
z
" clip-path="url(#p2f3ca6c8ea)" style="fill: #add8e6; stroke: #add8e6; stroke-linejoin: miter"/>
   </g>
   <g id="patch_29">
    <path d="M 306.240249 359.517187 
L 306.240249 26.877187 
L 303.161567 26.877187 
L 303.161567 359.517187 
z
" clip-path="url(#p2f3ca6c8ea)" style="fill: #add8e6; stroke: #add8e6; stroke-linejoin: miter"/>
   </g>
   <g id="patch_30">
    <path d="M 304.385469 359.517187 
L 304.385469 26.877187 
L 305.016347 26.877187 
L 305.016347 359.517187 
z
" clip-path="url(#p2f3ca6c8ea)" style="fill: #add8e6; stroke: #add8e6; stroke-linejoin: miter"/>
   </g>
   <g id="patch_31">
    <path d="M 305.685077 359.517187 
L 305.685077 26.877187 
L 306.032059 26.877187 
L 306.032059 359.517187 
z
" clip-path="url(#p2f3ca6c8ea)" style="fill: #add8e6; stroke: #add8e6; stroke-linejoin: miter"/>
   </g>
   <g id="patch_32">
    <path d="M 310.467127 359.517187 
L 310.467127 26.877187 
L 310.467127 26.877187 
z
" clip-path="url(#p2f3ca6c8ea)" style="fill: #add8e6; stroke: #add8e6; stroke-linejoin: miter"/>
   </g>
   <g id="patch_33">
    <path d="M 311.754117 359.517187 
L 311.754117 26.877187 
L 311.135857 26.877187 
L 311.135857 359.517187 
z
" clip-path="url(#p2f3ca6c8ea)" style="fill: #add8e6; stroke: #add8e6; stroke-linejoin: miter"/>
   </g>
   <g id="patch_34">
    <path d="M 339.512722 359.517187 
L 339.512722 26.877187 
L 314.290244 26.877187 
L 314.290244 359.517187 
z
" clip-path="url(#p2f3ca6c8ea)" style="fill: #add8e6; stroke: #add8e6; stroke-linejoin: miter"/>
   </g>
   <g id="patch_35">
    <path d="M 347.08325 359.517187 
L 347.08325 26.877187 
L 321.229895 26.877187 
L 321.229895 359.517187 
z
" clip-path="url(#p2f3ca6c8ea)" style="fill: #add8e6; stroke: #add8e6; stroke-linejoin: miter"/>
   </g>
   <g id="patch_36">
    <path d="M 324.245489 359.517187 
L 324.245489 26.877187 
L 323.10991 26.877187 
L 323.10991 359.517187 
z
" clip-path="url(#p2f3ca6c8ea)" style="fill: #add8e6; stroke: #add8e6; stroke-linejoin: miter"/>
   </g>
   <g id="patch_37">
    <path d="M 350.237637 359.517187 
L 350.237637 26.877187 
L 324.794352 26.877187 
L 324.794352 359.517187 
z
" clip-path="url(#p2f3ca6c8ea)" style="fill: #add8e6; stroke: #add8e6; stroke-linejoin: miter"/>
   </g>
   <g id="patch_38">
    <path d="M 352.130269 359.517187 
L 352.130269 26.877187 
L 327.292627 26.877187 
L 327.292627 359.517187 
z
" clip-path="url(#p2f3ca6c8ea)" style="fill: #add8e6; stroke: #add8e6; stroke-linejoin: miter"/>
   </g>
   <g id="patch_39">
    <path d="M 359.700798 359.517187 
L 359.700798 26.877187 
L 342.244421 26.877187 
L 342.244421 359.517187 
z
" clip-path="url(#p2f3ca6c8ea)" style="fill: #add8e6; stroke: #add8e6; stroke-linejoin: miter"/>
   </g>
   <g id="patch_40">
    <path d="M 370.425713 359.517187 
L 370.425713 26.877187 
L 344.881488 26.877187 
L 344.881488 359.517187 
z
" clip-path="url(#p2f3ca6c8ea)" style="fill: #add8e6; stroke: #add8e6; stroke-linejoin: miter"/>
   </g>
   <g id="patch_41">
    <path d="M 374.841855 359.517187 
L 374.841855 26.877187 
L 353.562361 26.877187 
L 353.562361 359.517187 
z
" clip-path="url(#p2f3ca6c8ea)" style="fill: #add8e6; stroke: #add8e6; stroke-linejoin: miter"/>
   </g>
   <g id="patch_42">
    <path d="M 354.653779 359.517187 
L 354.653779 26.877187 
L 354.704249 26.877187 
L 354.704249 359.517187 
z
" clip-path="url(#p2f3ca6c8ea)" style="fill: #add8e6; stroke: #add8e6; stroke-linejoin: miter"/>
   </g>
   <g id="patch_43">
    <path d="M 383.043261 359.517187 
L 383.043261 26.877187 
L 360.35691 26.877187 
L 360.35691 359.517187 
z
" clip-path="url(#p2f3ca6c8ea)" style="fill: #add8e6; stroke: #add8e6; stroke-linejoin: miter"/>
   </g>
   <g id="patch_44">
    <path d="M 396.291686 359.517187 
L 396.291686 26.877187 
L 370.709608 26.877187 
L 370.709608 359.517187 
z
" clip-path="url(#p2f3ca6c8ea)" style="fill: #add8e6; stroke: #add8e6; stroke-linejoin: miter"/>
   </g>
   <g id="patch_45">
    <path d="M 401.338705 359.517187 
L 401.338705 26.877187 
L 376.267638 26.877187 
L 376.267638 359.517187 
z
" clip-path="url(#p2f3ca6c8ea)" style="fill: #add8e6; stroke: #add8e6; stroke-linejoin: miter"/>
   </g>
   <g id="patch_46">
    <path d="M 419.634149 359.517187 
L 419.634149 26.877187 
L 394.682948 26.877187 
L 394.682948 359.517187 
z
" clip-path="url(#p2f3ca6c8ea)" style="fill: #add8e6; stroke: #add8e6; stroke-linejoin: miter"/>
   </g>
   <g id="patch_47">
    <path d="M 395.919468 359.517187 
L 395.919468 26.877187 
L 394.910064 26.877187 
L 394.910064 359.517187 
z
" clip-path="url(#p2f3ca6c8ea)" style="fill: #add8e6; stroke: #add8e6; stroke-linejoin: miter"/>
   </g>
   <g id="patch_48">
    <path d="M 396.083496 359.517187 
L 396.083496 26.877187 
L 395.156106 26.877187 
L 395.156106 359.517187 
z
" clip-path="url(#p2f3ca6c8ea)" style="fill: #add8e6; stroke: #add8e6; stroke-linejoin: miter"/>
   </g>
   <g id="patch_49">
    <path d="M 406.013506 359.517187 
L 406.013506 26.877187 
L 405.597127 26.877187 
L 405.597127 359.517187 
z
" clip-path="url(#p2f3ca6c8ea)" style="fill: #add8e6; stroke: #add8e6; stroke-linejoin: miter"/>
   </g>
   <g id="patch_50">
    <path d="M 441.714857 359.517187 
L 441.714857 26.877187 
L 415.703783 26.877187 
L 415.703783 359.517187 
z
" clip-path="url(#p2f3ca6c8ea)" style="fill: #add8e6; stroke: #add8e6; stroke-linejoin: miter"/>
   </g>
   <g id="patch_51">
    <path d="M 429.393822 359.517187 
L 429.393822 26.877187 
L 420.069454 26.877187 
L 420.069454 359.517187 
z
" clip-path="url(#p2f3ca6c8ea)" style="fill: #add8e6; stroke: #add8e6; stroke-linejoin: miter"/>
   </g>
   <g id="patch_52">
    <path d="M 421.242886 359.517187 
L 421.242886 26.877187 
L 421.488928 26.877187 
L 421.488928 359.517187 
z
" clip-path="url(#p2f3ca6c8ea)" style="fill: #add8e6; stroke: #add8e6; stroke-linejoin: miter"/>
   </g>
   <g id="patch_53">
    <path d="M 464.426442 359.517187 
L 464.426442 26.877187 
L 440.699144 26.877187 
L 440.699144 359.517187 
z
" clip-path="url(#p2f3ca6c8ea)" style="fill: #add8e6; stroke: #add8e6; stroke-linejoin: miter"/>
   </g>
   <g id="patch_54">
    <path d="M 458.401563 359.517187 
L 458.401563 26.877187 
L 449.720691 26.877187 
L 449.720691 359.517187 
z
" clip-path="url(#p2f3ca6c8ea)" style="fill: #add8e6; stroke: #add8e6; stroke-linejoin: miter"/>
   </g>
   <g id="patch_55">
    <path d="M 450.944593 359.517187 
L 450.944593 26.877187 
L 451.190635 26.877187 
L 451.190635 359.517187 
z
" clip-path="url(#p2f3ca6c8ea)" style="fill: #add8e6; stroke: #add8e6; stroke-linejoin: miter"/>
   </g>
   <g id="patch_56">
    <path d="M 480.198377 359.517187 
L 480.198377 26.877187 
L 454.136832 26.877187 
L 454.136832 359.517187 
z
" clip-path="url(#p2f3ca6c8ea)" style="fill: #add8e6; stroke: #add8e6; stroke-linejoin: miter"/>
   </g>
   <g id="patch_57">
    <path d="M 455.556307 359.517187 
L 455.556307 26.877187 
L 455.247177 26.877187 
L 455.247177 359.517187 
z
" clip-path="url(#p2f3ca6c8ea)" style="fill: #add8e6; stroke: #add8e6; stroke-linejoin: miter"/>
   </g>
   <g id="patch_58">
    <path d="M 462.653677 359.517187 
L 462.653677 26.877187 
L 459.739024 26.877187 
L 459.739024 359.517187 
z
" clip-path="url(#p2f3ca6c8ea)" style="fill: #add8e6; stroke: #add8e6; stroke-linejoin: miter"/>
   </g>
   <g id="patch_59">
    <path d="M 493.446802 359.517187 
L 493.446802 26.877187 
L 473.025301 26.877187 
L 473.025301 359.517187 
z
" clip-path="url(#p2f3ca6c8ea)" style="fill: #add8e6; stroke: #add8e6; stroke-linejoin: miter"/>
   </g>
   <g id="patch_60">
    <path d="M 502.279085 359.517187 
L 502.279085 26.877187 
L 480.482272 26.877187 
L 480.482272 359.517187 
z
" clip-path="url(#p2f3ca6c8ea)" style="fill: #add8e6; stroke: #add8e6; stroke-linejoin: miter"/>
   </g>
   <g id="patch_61">
    <path d="M 485.750098 359.517187 
L 485.750098 26.877187 
L 484.778547 26.877187 
L 484.778547 359.517187 
z
" clip-path="url(#p2f3ca6c8ea)" style="fill: #add8e6; stroke: #add8e6; stroke-linejoin: miter"/>
   </g>
   <g id="patch_62">
    <path d="M 495.251111 359.517187 
L 495.251111 26.877187 
L 489.983285 26.877187 
L 489.983285 359.517187 
z
" clip-path="url(#p2f3ca6c8ea)" style="fill: #add8e6; stroke: #add8e6; stroke-linejoin: miter"/>
   </g>
   <g id="patch_63">
    <path d="M 526.883303 359.517187 
L 526.883303 26.877187 
L 501.301225 26.877187 
L 501.301225 359.517187 
z
" clip-path="url(#p2f3ca6c8ea)" style="fill: #add8e6; stroke: #add8e6; stroke-linejoin: miter"/>
   </g>
   <g id="patch_64">
    <path d="M 508.146245 359.517187 
L 508.146245 26.877187 
L 507.376574 26.877187 
L 507.376574 359.517187 
z
" clip-path="url(#p2f3ca6c8ea)" style="fill: #add8e6; stroke: #add8e6; stroke-linejoin: miter"/>
   </g>
   <g id="patch_65">
    <path d="M 541.475497 359.517187 
L 541.475497 26.877187 
L 540.030787 26.877187 
L 540.030787 359.517187 
z
" clip-path="url(#p2f3ca6c8ea)" style="fill: #add8e6; stroke: #add8e6; stroke-linejoin: miter"/>
   </g>
   <g id="patch_66">
    <path d="M 541.122205 359.517187 
L 541.122205 26.877187 
L 541.595363 26.877187 
L 541.595363 359.517187 
z
" clip-path="url(#p2f3ca6c8ea)" style="fill: #add8e6; stroke: #add8e6; stroke-linejoin: miter"/>
   </g>
   <g id="patch_67">
    <path d="M 554.843788 359.517187 
L 554.843788 26.877187 
L 554.805936 26.877187 
L 554.805936 359.517187 
z
" clip-path="url(#p2f3ca6c8ea)" style="fill: #add8e6; stroke: #add8e6; stroke-linejoin: miter"/>
   </g>
   <g id="patch_68">
    <path d="M 606.6956 359.517187 
L 606.6956 26.877187 
L 607.919502 26.877187 
L 607.919502 359.517187 
z
" clip-path="url(#p2f3ca6c8ea)" style="fill: #add8e6; stroke: #add8e6; stroke-linejoin: miter"/>
   </g>
   <g id="patch_69">
    <path d="M 609.963545 359.517187 
L 609.963545 26.877187 
L 609.465152 26.877187 
L 609.465152 359.517187 
z
" clip-path="url(#p2f3ca6c8ea)" style="fill: #add8e6; stroke: #add8e6; stroke-linejoin: miter"/>
   </g>
   <g id="patch_70">
    <path d="M 612.581686 359.517187 
L 612.581686 26.877187 
L 612.335644 26.877187 
L 612.335644 359.517187 
z
" clip-path="url(#p2f3ca6c8ea)" style="fill: #add8e6; stroke: #add8e6; stroke-linejoin: miter"/>
   </g>
   <g id="patch_71">
    <path d="M 709.85036 359.517187 
L 709.85036 26.877187 
L 699.20115 26.877187 
L 699.20115 359.517187 
z
" clip-path="url(#p2f3ca6c8ea)" style="fill: #add8e6; stroke: #add8e6; stroke-linejoin: miter"/>
   </g>
   <g id="patch_72">
    <path d="M 701.062238 359.517187 
L 701.062238 26.877187 
L 700.027599 26.877187 
L 700.027599 359.517187 
z
" clip-path="url(#p2f3ca6c8ea)" style="fill: #add8e6; stroke: #add8e6; stroke-linejoin: miter"/>
   </g>
   <g id="patch_73">
    <path d="M 700.696329 359.517187 
L 700.696329 26.877187 
L 700.734182 26.877187 
L 700.734182 359.517187 
z
" clip-path="url(#p2f3ca6c8ea)" style="fill: #add8e6; stroke: #add8e6; stroke-linejoin: miter"/>
   </g>
   <g id="patch_74">
    <path d="M 701.598484 359.517187 
L 701.598484 26.877187 
L 701.289354 26.877187 
L 701.289354 359.517187 
z
" clip-path="url(#p2f3ca6c8ea)" style="fill: #add8e6; stroke: #add8e6; stroke-linejoin: miter"/>
   </g>
   <g id="patch_75">
    <path d="M 738.858102 359.517187 
L 738.858102 26.877187 
L 713.004747 26.877187 
L 713.004747 359.517187 
z
" clip-path="url(#p2f3ca6c8ea)" style="fill: #add8e6; stroke: #add8e6; stroke-linejoin: miter"/>
   </g>
   <g id="patch_76">
    <path d="M 736.580634 359.517187 
L 736.580634 26.877187 
L 737.01594 26.877187 
L 737.01594 359.517187 
z
" clip-path="url(#p2f3ca6c8ea)" style="fill: #add8e6; stroke: #add8e6; stroke-linejoin: miter"/>
   </g>
   <g id="patch_77">
    <path d="M 738.101049 359.517187 
L 738.101049 26.877187 
L 738.069505 26.877187 
L 738.069505 359.517187 
z
" clip-path="url(#p2f3ca6c8ea)" style="fill: #add8e6; stroke: #add8e6; stroke-linejoin: miter"/>
   </g>
   <g id="patch_78">
    <path d="M 797.220568 359.517187 
L 797.220568 26.877187 
L 797.851445 26.877187 
L 797.851445 359.517187 
z
" clip-path="url(#p2f3ca6c8ea)" style="fill: #add8e6; stroke: #add8e6; stroke-linejoin: miter"/>
   </g>
   <g id="patch_79">
    <path d="M 799.750386 359.517187 
L 799.750386 26.877187 
L 799.744077 26.877187 
L 799.744077 359.517187 
z
" clip-path="url(#p2f3ca6c8ea)" style="fill: #add8e6; stroke: #add8e6; stroke-linejoin: miter"/>
   </g>
   <g id="patch_80">
    <path d="M 849.879903 359.517187 
L 849.879903 26.877187 
L 848.643383 26.877187 
L 848.643383 359.517187 
z
" clip-path="url(#p2f3ca6c8ea)" style="fill: #add8e6; stroke: #add8e6; stroke-linejoin: miter"/>
   </g>
   <g id="patch_81">
    <path d="M 850.580176 359.517187 
L 850.580176 26.877187 
L 849.312113 26.877187 
L 849.312113 359.517187 
z
" clip-path="url(#p2f3ca6c8ea)" style="fill: #add8e6; stroke: #add8e6; stroke-linejoin: miter"/>
   </g>
   <g id="patch_82">
    <path d="M 850.365678 359.517187 
L 850.365678 26.877187 
L 850.485545 26.877187 
L 850.485545 359.517187 
z
" clip-path="url(#p2f3ca6c8ea)" style="fill: #add8e6; stroke: #add8e6; stroke-linejoin: miter"/>
   </g>
   <g id="patch_83">
    <path d="M 851.94918 359.517187 
L 851.94918 26.877187 
L 852.25831 26.877187 
L 852.25831 359.517187 
z
" clip-path="url(#p2f3ca6c8ea)" style="fill: #add8e6; stroke: #add8e6; stroke-linejoin: miter"/>
   </g>
   <g id="patch_84">
    <path d="M 905.516978 359.517187 
L 905.516978 26.877187 
L 903.60542 26.877187 
L 903.60542 359.517187 
z
" clip-path="url(#p2f3ca6c8ea)" style="fill: #add8e6; stroke: #add8e6; stroke-linejoin: miter"/>
   </g>
   <g id="patch_85">
    <path d="M 968.604716 359.517187 
L 968.604716 26.877187 
L 965.469256 26.877187 
L 965.469256 359.517187 
z
" clip-path="url(#p2f3ca6c8ea)" style="fill: #add8e6; stroke: #add8e6; stroke-linejoin: miter"/>
   </g>
   <g id="patch_86">
    <path d="M 966.800407 359.517187 
L 966.800407 26.877187 
L 966.175838 26.877187 
L 966.175838 359.517187 
z
" clip-path="url(#p2f3ca6c8ea)" style="fill: #add8e6; stroke: #add8e6; stroke-linejoin: miter"/>
   </g>
   <g id="patch_87">
    <path d="M 1005.441646 359.517187 
L 1005.441646 26.877187 
L 1003.246193 26.877187 
L 1003.246193 359.517187 
z
" clip-path="url(#p2f3ca6c8ea)" style="fill: #add8e6; stroke: #add8e6; stroke-linejoin: miter"/>
   </g>
   <g id="patch_88">
    <path d="M 1055.558545 359.517187 
L 1055.558545 26.877187 
L 1029.818748 26.877187 
L 1029.818748 359.517187 
z
" clip-path="url(#p2f3ca6c8ea)" style="fill: #add8e6; stroke: #add8e6; stroke-linejoin: miter"/>
   </g>
   <g id="patch_89">
    <path d="M 1046.467602 359.517187 
L 1046.467602 26.877187 
L 1042.707573 26.877187 
L 1042.707573 359.517187 
z
" clip-path="url(#p2f3ca6c8ea)" style="fill: #add8e6; stroke: #add8e6; stroke-linejoin: miter"/>
   </g>
   <g id="patch_90">
    <path d="M 1068.529384 359.517187 
L 1068.529384 26.877187 
L 1066.889103 26.877187 
L 1066.889103 359.517187 
z
" clip-path="url(#p2f3ca6c8ea)" style="fill: #add8e6; stroke: #add8e6; stroke-linejoin: miter"/>
   </g>
   <g id="patch_91">
    <path d="M 1114.507727 359.517187 
L 1114.507727 26.877187 
L 1103.618784 26.877187 
L 1103.618784 359.517187 
z
" clip-path="url(#p2f3ca6c8ea)" style="fill: #add8e6; stroke: #add8e6; stroke-linejoin: miter"/>
   </g>
   <g id="patch_92">
    <path d="M 99.962273 359.517187 
L 99.962273 26.877187 
L 137.814915 26.877187 
L 137.814915 359.517187 
z
" clip-path="url(#p2f3ca6c8ea)" style="fill: #808080; opacity: 0.4; stroke: #808080; stroke-linejoin: miter"/>
   </g>
   <g id="patch_93">
    <path d="M 150.432463 26.877187 
L 150.432463 26.877187 
L 150.432463 359.517187 
" clip-path="url(#p2f3ca6c8ea)" style="fill: #808080; opacity: 0.4; stroke: #808080; stroke-linejoin: miter"/>
   </g>
   <g id="patch_94">
    <path d="M 163.05001 26.877187 
L 163.05001 26.877187 
L 163.05001 359.517187 
" clip-path="url(#p2f3ca6c8ea)" style="fill: #808080; opacity: 0.4; stroke: #808080; stroke-linejoin: miter"/>
   </g>
   <g id="patch_95">
    <path d="M 592.046627 359.517187 
L 592.046627 26.877187 
L 1046.278339 26.877187 
L 1046.278339 359.517187 
z
" clip-path="url(#p2f3ca6c8ea)" style="fill: #808080; opacity: 0.4; stroke: #808080; stroke-linejoin: miter"/>
   </g>
   <g id="patch_96">
    <path d="M 1058.895886 26.877187 
L 1058.895886 26.877187 
L 1058.895886 359.517187 
" clip-path="url(#p2f3ca6c8ea)" style="fill: #808080; opacity: 0.4; stroke: #808080; stroke-linejoin: miter"/>
   </g>
   <g id="patch_97">
    <path d="M 1071.513434 26.877187 
L 1071.513434 26.877187 
L 1071.513434 359.517187 
" clip-path="url(#p2f3ca6c8ea)" style="fill: #808080; opacity: 0.4; stroke: #808080; stroke-linejoin: miter"/>
   </g>
   <g id="matplotlib.axis_1">
    <g id="xtick_1">
     <g id="line2d_1">
      <defs>
       <path id="m48fcc17dd1" d="M 0 0 
L 0 3.5 
" style="stroke: #000000; stroke-width: 0.8"/>
      </defs>
      <g>
       <use xlink:href="#m48fcc17dd1" x="89.868235" y="359.517187" style="stroke: #000000; stroke-width: 0.8"/>
      </g>
     </g>
     <g id="text_1">
      <!-- 10-02 06 -->
      <g transform="translate(67.387766 374.115625) scale(0.1 -0.1)">
       <defs>
        <path id="DejaVuSans-31" d="M 794 531 
L 1825 531 
L 1825 4091 
L 703 3866 
L 703 4441 
L 1819 4666 
L 2450 4666 
L 2450 531 
L 3481 531 
L 3481 0 
L 794 0 
L 794 531 
z
" transform="scale(0.015625)"/>
        <path id="DejaVuSans-30" d="M 2034 4250 
Q 1547 4250 1301 3770 
Q 1056 3291 1056 2328 
Q 1056 1369 1301 889 
Q 1547 409 2034 409 
Q 2525 409 2770 889 
Q 3016 1369 3016 2328 
Q 3016 3291 2770 3770 
Q 2525 4250 2034 4250 
z
M 2034 4750 
Q 2819 4750 3233 4129 
Q 3647 3509 3647 2328 
Q 3647 1150 3233 529 
Q 2819 -91 2034 -91 
Q 1250 -91 836 529 
Q 422 1150 422 2328 
Q 422 3509 836 4129 
Q 1250 4750 2034 4750 
z
" transform="scale(0.015625)"/>
        <path id="DejaVuSans-2d" d="M 313 2009 
L 1997 2009 
L 1997 1497 
L 313 1497 
L 313 2009 
z
" transform="scale(0.015625)"/>
        <path id="DejaVuSans-32" d="M 1228 531 
L 3431 531 
L 3431 0 
L 469 0 
L 469 531 
Q 828 903 1448 1529 
Q 2069 2156 2228 2338 
Q 2531 2678 2651 2914 
Q 2772 3150 2772 3378 
Q 2772 3750 2511 3984 
Q 2250 4219 1831 4219 
Q 1534 4219 1204 4116 
Q 875 4013 500 3803 
L 500 4441 
Q 881 4594 1212 4672 
Q 1544 4750 1819 4750 
Q 2544 4750 2975 4387 
Q 3406 4025 3406 3419 
Q 3406 3131 3298 2873 
Q 3191 2616 2906 2266 
Q 2828 2175 2409 1742 
Q 1991 1309 1228 531 
z
" transform="scale(0.015625)"/>
        <path id="DejaVuSans-20" transform="scale(0.015625)"/>
        <path id="DejaVuSans-36" d="M 2113 2584 
Q 1688 2584 1439 2293 
Q 1191 2003 1191 1497 
Q 1191 994 1439 701 
Q 1688 409 2113 409 
Q 2538 409 2786 701 
Q 3034 994 3034 1497 
Q 3034 2003 2786 2293 
Q 2538 2584 2113 2584 
z
M 3366 4563 
L 3366 3988 
Q 3128 4100 2886 4159 
Q 2644 4219 2406 4219 
Q 1781 4219 1451 3797 
Q 1122 3375 1075 2522 
Q 1259 2794 1537 2939 
Q 1816 3084 2150 3084 
Q 2853 3084 3261 2657 
Q 3669 2231 3669 1497 
Q 3669 778 3244 343 
Q 2819 -91 2113 -91 
Q 1303 -91 875 529 
Q 447 1150 447 2328 
Q 447 3434 972 4092 
Q 1497 4750 2381 4750 
Q 2619 4750 2861 4703 
Q 3103 4656 3366 4563 
z
" transform="scale(0.015625)"/>
       </defs>
       <use xlink:href="#DejaVuSans-31"/>
       <use xlink:href="#DejaVuSans-30" x="63.623047"/>
       <use xlink:href="#DejaVuSans-2d" x="127.246094"/>
       <use xlink:href="#DejaVuSans-30" x="163.330078"/>
       <use xlink:href="#DejaVuSans-32" x="226.953125"/>
       <use xlink:href="#DejaVuSans-20" x="290.576172"/>
       <use xlink:href="#DejaVuSans-30" x="322.363281"/>
       <use xlink:href="#DejaVuSans-36" x="385.986328"/>
      </g>
     </g>
    </g>
    <g id="xtick_2">
     <g id="line2d_2">
      <g>
       <use xlink:href="#m48fcc17dd1" x="203.426163" y="359.517187" style="stroke: #000000; stroke-width: 0.8"/>
      </g>
     </g>
     <g id="text_2">
      <!-- 10-02 09 -->
      <g transform="translate(180.945694 374.115625) scale(0.1 -0.1)">
       <defs>
        <path id="DejaVuSans-39" d="M 703 97 
L 703 672 
Q 941 559 1184 500 
Q 1428 441 1663 441 
Q 2288 441 2617 861 
Q 2947 1281 2994 2138 
Q 2813 1869 2534 1725 
Q 2256 1581 1919 1581 
Q 1219 1581 811 2004 
Q 403 2428 403 3163 
Q 403 3881 828 4315 
Q 1253 4750 1959 4750 
Q 2769 4750 3195 4129 
Q 3622 3509 3622 2328 
Q 3622 1225 3098 567 
Q 2575 -91 1691 -91 
Q 1453 -91 1209 -44 
Q 966 3 703 97 
z
M 1959 2075 
Q 2384 2075 2632 2365 
Q 2881 2656 2881 3163 
Q 2881 3666 2632 3958 
Q 2384 4250 1959 4250 
Q 1534 4250 1286 3958 
Q 1038 3666 1038 3163 
Q 1038 2656 1286 2365 
Q 1534 2075 1959 2075 
z
" transform="scale(0.015625)"/>
       </defs>
       <use xlink:href="#DejaVuSans-31"/>
       <use xlink:href="#DejaVuSans-30" x="63.623047"/>
       <use xlink:href="#DejaVuSans-2d" x="127.246094"/>
       <use xlink:href="#DejaVuSans-30" x="163.330078"/>
       <use xlink:href="#DejaVuSans-32" x="226.953125"/>
       <use xlink:href="#DejaVuSans-20" x="290.576172"/>
       <use xlink:href="#DejaVuSans-30" x="322.363281"/>
       <use xlink:href="#DejaVuSans-39" x="385.986328"/>
      </g>
     </g>
    </g>
    <g id="xtick_3">
     <g id="line2d_3">
      <g>
       <use xlink:href="#m48fcc17dd1" x="316.984091" y="359.517187" style="stroke: #000000; stroke-width: 0.8"/>
      </g>
     </g>
     <g id="text_3">
      <!-- 10-02 12 -->
      <g transform="translate(294.503622 374.115625) scale(0.1 -0.1)">
       <use xlink:href="#DejaVuSans-31"/>
       <use xlink:href="#DejaVuSans-30" x="63.623047"/>
       <use xlink:href="#DejaVuSans-2d" x="127.246094"/>
       <use xlink:href="#DejaVuSans-30" x="163.330078"/>
       <use xlink:href="#DejaVuSans-32" x="226.953125"/>
       <use xlink:href="#DejaVuSans-20" x="290.576172"/>
       <use xlink:href="#DejaVuSans-31" x="322.363281"/>
       <use xlink:href="#DejaVuSans-32" x="385.986328"/>
      </g>
     </g>
    </g>
    <g id="xtick_4">
     <g id="line2d_4">
      <g>
       <use xlink:href="#m48fcc17dd1" x="430.542019" y="359.517187" style="stroke: #000000; stroke-width: 0.8"/>
      </g>
     </g>
     <g id="text_4">
      <!-- 10-02 15 -->
      <g transform="translate(408.06155 374.115625) scale(0.1 -0.1)">
       <defs>
        <path id="DejaVuSans-35" d="M 691 4666 
L 3169 4666 
L 3169 4134 
L 1269 4134 
L 1269 2991 
Q 1406 3038 1543 3061 
Q 1681 3084 1819 3084 
Q 2600 3084 3056 2656 
Q 3513 2228 3513 1497 
Q 3513 744 3044 326 
Q 2575 -91 1722 -91 
Q 1428 -91 1123 -41 
Q 819 9 494 109 
L 494 744 
Q 775 591 1075 516 
Q 1375 441 1709 441 
Q 2250 441 2565 725 
Q 2881 1009 2881 1497 
Q 2881 1984 2565 2268 
Q 2250 2553 1709 2553 
Q 1456 2553 1204 2497 
Q 953 2441 691 2322 
L 691 4666 
z
" transform="scale(0.015625)"/>
       </defs>
       <use xlink:href="#DejaVuSans-31"/>
       <use xlink:href="#DejaVuSans-30" x="63.623047"/>
       <use xlink:href="#DejaVuSans-2d" x="127.246094"/>
       <use xlink:href="#DejaVuSans-30" x="163.330078"/>
       <use xlink:href="#DejaVuSans-32" x="226.953125"/>
       <use xlink:href="#DejaVuSans-20" x="290.576172"/>
       <use xlink:href="#DejaVuSans-31" x="322.363281"/>
       <use xlink:href="#DejaVuSans-35" x="385.986328"/>
      </g>
     </g>
    </g>
    <g id="xtick_5">
     <g id="line2d_5">
      <g>
       <use xlink:href="#m48fcc17dd1" x="544.099946" y="359.517187" style="stroke: #000000; stroke-width: 0.8"/>
      </g>
     </g>
     <g id="text_5">
      <!-- 10-02 18 -->
      <g transform="translate(521.619478 374.115625) scale(0.1 -0.1)">
       <defs>
        <path id="DejaVuSans-38" d="M 2034 2216 
Q 1584 2216 1326 1975 
Q 1069 1734 1069 1313 
Q 1069 891 1326 650 
Q 1584 409 2034 409 
Q 2484 409 2743 651 
Q 3003 894 3003 1313 
Q 3003 1734 2745 1975 
Q 2488 2216 2034 2216 
z
M 1403 2484 
Q 997 2584 770 2862 
Q 544 3141 544 3541 
Q 544 4100 942 4425 
Q 1341 4750 2034 4750 
Q 2731 4750 3128 4425 
Q 3525 4100 3525 3541 
Q 3525 3141 3298 2862 
Q 3072 2584 2669 2484 
Q 3125 2378 3379 2068 
Q 3634 1759 3634 1313 
Q 3634 634 3220 271 
Q 2806 -91 2034 -91 
Q 1263 -91 848 271 
Q 434 634 434 1313 
Q 434 1759 690 2068 
Q 947 2378 1403 2484 
z
M 1172 3481 
Q 1172 3119 1398 2916 
Q 1625 2713 2034 2713 
Q 2441 2713 2670 2916 
Q 2900 3119 2900 3481 
Q 2900 3844 2670 4047 
Q 2441 4250 2034 4250 
Q 1625 4250 1398 4047 
Q 1172 3844 1172 3481 
z
" transform="scale(0.015625)"/>
       </defs>
       <use xlink:href="#DejaVuSans-31"/>
       <use xlink:href="#DejaVuSans-30" x="63.623047"/>
       <use xlink:href="#DejaVuSans-2d" x="127.246094"/>
       <use xlink:href="#DejaVuSans-30" x="163.330078"/>
       <use xlink:href="#DejaVuSans-32" x="226.953125"/>
       <use xlink:href="#DejaVuSans-20" x="290.576172"/>
       <use xlink:href="#DejaVuSans-31" x="322.363281"/>
       <use xlink:href="#DejaVuSans-38" x="385.986328"/>
      </g>
     </g>
    </g>
    <g id="xtick_6">
     <g id="line2d_6">
      <g>
       <use xlink:href="#m48fcc17dd1" x="657.657874" y="359.517187" style="stroke: #000000; stroke-width: 0.8"/>
      </g>
     </g>
     <g id="text_6">
      <!-- 10-02 21 -->
      <g transform="translate(635.177406 374.115625) scale(0.1 -0.1)">
       <use xlink:href="#DejaVuSans-31"/>
       <use xlink:href="#DejaVuSans-30" x="63.623047"/>
       <use xlink:href="#DejaVuSans-2d" x="127.246094"/>
       <use xlink:href="#DejaVuSans-30" x="163.330078"/>
       <use xlink:href="#DejaVuSans-32" x="226.953125"/>
       <use xlink:href="#DejaVuSans-20" x="290.576172"/>
       <use xlink:href="#DejaVuSans-32" x="322.363281"/>
       <use xlink:href="#DejaVuSans-31" x="385.986328"/>
      </g>
     </g>
    </g>
    <g id="xtick_7">
     <g id="line2d_7">
      <g>
       <use xlink:href="#m48fcc17dd1" x="771.215802" y="359.517187" style="stroke: #000000; stroke-width: 0.8"/>
      </g>
     </g>
     <g id="text_7">
      <!-- 10-03 00 -->
      <g transform="translate(748.735334 374.115625) scale(0.1 -0.1)">
       <defs>
        <path id="DejaVuSans-33" d="M 2597 2516 
Q 3050 2419 3304 2112 
Q 3559 1806 3559 1356 
Q 3559 666 3084 287 
Q 2609 -91 1734 -91 
Q 1441 -91 1130 -33 
Q 819 25 488 141 
L 488 750 
Q 750 597 1062 519 
Q 1375 441 1716 441 
Q 2309 441 2620 675 
Q 2931 909 2931 1356 
Q 2931 1769 2642 2001 
Q 2353 2234 1838 2234 
L 1294 2234 
L 1294 2753 
L 1863 2753 
Q 2328 2753 2575 2939 
Q 2822 3125 2822 3475 
Q 2822 3834 2567 4026 
Q 2313 4219 1838 4219 
Q 1578 4219 1281 4162 
Q 984 4106 628 3988 
L 628 4550 
Q 988 4650 1302 4700 
Q 1616 4750 1894 4750 
Q 2613 4750 3031 4423 
Q 3450 4097 3450 3541 
Q 3450 3153 3228 2886 
Q 3006 2619 2597 2516 
z
" transform="scale(0.015625)"/>
       </defs>
       <use xlink:href="#DejaVuSans-31"/>
       <use xlink:href="#DejaVuSans-30" x="63.623047"/>
       <use xlink:href="#DejaVuSans-2d" x="127.246094"/>
       <use xlink:href="#DejaVuSans-30" x="163.330078"/>
       <use xlink:href="#DejaVuSans-33" x="226.953125"/>
       <use xlink:href="#DejaVuSans-20" x="290.576172"/>
       <use xlink:href="#DejaVuSans-30" x="322.363281"/>
       <use xlink:href="#DejaVuSans-30" x="385.986328"/>
      </g>
     </g>
    </g>
    <g id="xtick_8">
     <g id="line2d_8">
      <g>
       <use xlink:href="#m48fcc17dd1" x="884.77373" y="359.517187" style="stroke: #000000; stroke-width: 0.8"/>
      </g>
     </g>
     <g id="text_8">
      <!-- 10-03 03 -->
      <g transform="translate(862.293262 374.115625) scale(0.1 -0.1)">
       <use xlink:href="#DejaVuSans-31"/>
       <use xlink:href="#DejaVuSans-30" x="63.623047"/>
       <use xlink:href="#DejaVuSans-2d" x="127.246094"/>
       <use xlink:href="#DejaVuSans-30" x="163.330078"/>
       <use xlink:href="#DejaVuSans-33" x="226.953125"/>
       <use xlink:href="#DejaVuSans-20" x="290.576172"/>
       <use xlink:href="#DejaVuSans-30" x="322.363281"/>
       <use xlink:href="#DejaVuSans-33" x="385.986328"/>
      </g>
     </g>
    </g>
    <g id="xtick_9">
     <g id="line2d_9">
      <g>
       <use xlink:href="#m48fcc17dd1" x="998.331658" y="359.517187" style="stroke: #000000; stroke-width: 0.8"/>
      </g>
     </g>
     <g id="text_9">
      <!-- 10-03 06 -->
      <g transform="translate(975.851189 374.115625) scale(0.1 -0.1)">
       <use xlink:href="#DejaVuSans-31"/>
       <use xlink:href="#DejaVuSans-30" x="63.623047"/>
       <use xlink:href="#DejaVuSans-2d" x="127.246094"/>
       <use xlink:href="#DejaVuSans-30" x="163.330078"/>
       <use xlink:href="#DejaVuSans-33" x="226.953125"/>
       <use xlink:href="#DejaVuSans-20" x="290.576172"/>
       <use xlink:href="#DejaVuSans-30" x="322.363281"/>
       <use xlink:href="#DejaVuSans-36" x="385.986328"/>
      </g>
     </g>
    </g>
    <g id="xtick_10">
     <g id="line2d_10">
      <g>
       <use xlink:href="#m48fcc17dd1" x="1111.889586" y="359.517187" style="stroke: #000000; stroke-width: 0.8"/>
      </g>
     </g>
     <g id="text_10">
      <!-- 10-03 09 -->
      <g transform="translate(1089.409117 374.115625) scale(0.1 -0.1)">
       <use xlink:href="#DejaVuSans-31"/>
       <use xlink:href="#DejaVuSans-30" x="63.623047"/>
       <use xlink:href="#DejaVuSans-2d" x="127.246094"/>
       <use xlink:href="#DejaVuSans-30" x="163.330078"/>
       <use xlink:href="#DejaVuSans-33" x="226.953125"/>
       <use xlink:href="#DejaVuSans-20" x="290.576172"/>
       <use xlink:href="#DejaVuSans-30" x="322.363281"/>
       <use xlink:href="#DejaVuSans-39" x="385.986328"/>
      </g>
     </g>
    </g>
    <g id="text_11">
     <!-- Time -->
     <g transform="translate(592.554688 389.313437) scale(0.12 -0.12)">
      <defs>
       <path id="DejaVuSans-54" d="M -19 4666 
L 3928 4666 
L 3928 4134 
L 2272 4134 
L 2272 0 
L 1638 0 
L 1638 4134 
L -19 4134 
L -19 4666 
z
" transform="scale(0.015625)"/>
       <path id="DejaVuSans-69" d="M 603 3500 
L 1178 3500 
L 1178 0 
L 603 0 
L 603 3500 
z
M 603 4863 
L 1178 4863 
L 1178 4134 
L 603 4134 
L 603 4863 
z
" transform="scale(0.015625)"/>
       <path id="DejaVuSans-6d" d="M 3328 2828 
Q 3544 3216 3844 3400 
Q 4144 3584 4550 3584 
Q 5097 3584 5394 3201 
Q 5691 2819 5691 2113 
L 5691 0 
L 5113 0 
L 5113 2094 
Q 5113 2597 4934 2840 
Q 4756 3084 4391 3084 
Q 3944 3084 3684 2787 
Q 3425 2491 3425 1978 
L 3425 0 
L 2847 0 
L 2847 2094 
Q 2847 2600 2669 2842 
Q 2491 3084 2119 3084 
Q 1678 3084 1418 2786 
Q 1159 2488 1159 1978 
L 1159 0 
L 581 0 
L 581 3500 
L 1159 3500 
L 1159 2956 
Q 1356 3278 1631 3431 
Q 1906 3584 2284 3584 
Q 2666 3584 2933 3390 
Q 3200 3197 3328 2828 
z
" transform="scale(0.015625)"/>
       <path id="DejaVuSans-65" d="M 3597 1894 
L 3597 1613 
L 953 1613 
Q 991 1019 1311 708 
Q 1631 397 2203 397 
Q 2534 397 2845 478 
Q 3156 559 3463 722 
L 3463 178 
Q 3153 47 2828 -22 
Q 2503 -91 2169 -91 
Q 1331 -91 842 396 
Q 353 884 353 1716 
Q 353 2575 817 3079 
Q 1281 3584 2069 3584 
Q 2775 3584 3186 3129 
Q 3597 2675 3597 1894 
z
M 3022 2063 
Q 3016 2534 2758 2815 
Q 2500 3097 2075 3097 
Q 1594 3097 1305 2825 
Q 1016 2553 972 2059 
L 3022 2063 
z
" transform="scale(0.015625)"/>
      </defs>
      <use xlink:href="#DejaVuSans-54"/>
      <use xlink:href="#DejaVuSans-69" x="57.958984"/>
      <use xlink:href="#DejaVuSans-6d" x="85.742188"/>
      <use xlink:href="#DejaVuSans-65" x="183.154297"/>
     </g>
    </g>
   </g>
   <g id="matplotlib.axis_2">
    <g id="ytick_1">
     <g id="line2d_11">
      <defs>
       <path id="mceabd34071" d="M 0 0 
L -3.5 0 
" style="stroke: #000000; stroke-width: 0.8"/>
      </defs>
      <g>
       <use xlink:href="#mceabd34071" x="49.235" y="344.397187" style="stroke: #000000; stroke-width: 0.8"/>
      </g>
     </g>
     <g id="text_12">
      <!-- 0 -->
      <g transform="translate(35.8725 348.196406) scale(0.1 -0.1)">
       <use xlink:href="#DejaVuSans-30"/>
      </g>
     </g>
    </g>
    <g id="ytick_2">
     <g id="line2d_12">
      <g>
       <use xlink:href="#mceabd34071" x="49.235" y="299.397187" style="stroke: #000000; stroke-width: 0.8"/>
      </g>
     </g>
     <g id="text_13">
      <!-- 50 -->
      <g transform="translate(29.51 303.196406) scale(0.1 -0.1)">
       <use xlink:href="#DejaVuSans-35"/>
       <use xlink:href="#DejaVuSans-30" x="63.623047"/>
      </g>
     </g>
    </g>
    <g id="ytick_3">
     <g id="line2d_13">
      <g>
       <use xlink:href="#mceabd34071" x="49.235" y="254.397187" style="stroke: #000000; stroke-width: 0.8"/>
      </g>
     </g>
     <g id="text_14">
      <!-- 100 -->
      <g transform="translate(23.1475 258.196406) scale(0.1 -0.1)">
       <use xlink:href="#DejaVuSans-31"/>
       <use xlink:href="#DejaVuSans-30" x="63.623047"/>
       <use xlink:href="#DejaVuSans-30" x="127.246094"/>
      </g>
     </g>
    </g>
    <g id="ytick_4">
     <g id="line2d_14">
      <g>
       <use xlink:href="#mceabd34071" x="49.235" y="209.397187" style="stroke: #000000; stroke-width: 0.8"/>
      </g>
     </g>
     <g id="text_15">
      <!-- 150 -->
      <g transform="translate(23.1475 213.196406) scale(0.1 -0.1)">
       <use xlink:href="#DejaVuSans-31"/>
       <use xlink:href="#DejaVuSans-35" x="63.623047"/>
       <use xlink:href="#DejaVuSans-30" x="127.246094"/>
      </g>
     </g>
    </g>
    <g id="ytick_5">
     <g id="line2d_15">
      <g>
       <use xlink:href="#mceabd34071" x="49.235" y="164.397187" style="stroke: #000000; stroke-width: 0.8"/>
      </g>
     </g>
     <g id="text_16">
      <!-- 200 -->
      <g transform="translate(23.1475 168.196406) scale(0.1 -0.1)">
       <use xlink:href="#DejaVuSans-32"/>
       <use xlink:href="#DejaVuSans-30" x="63.623047"/>
       <use xlink:href="#DejaVuSans-30" x="127.246094"/>
      </g>
     </g>
    </g>
    <g id="ytick_6">
     <g id="line2d_16">
      <g>
       <use xlink:href="#mceabd34071" x="49.235" y="119.397187" style="stroke: #000000; stroke-width: 0.8"/>
      </g>
     </g>
     <g id="text_17">
      <!-- 250 -->
      <g transform="translate(23.1475 123.196406) scale(0.1 -0.1)">
       <use xlink:href="#DejaVuSans-32"/>
       <use xlink:href="#DejaVuSans-35" x="63.623047"/>
       <use xlink:href="#DejaVuSans-30" x="127.246094"/>
      </g>
     </g>
    </g>
    <g id="ytick_7">
     <g id="line2d_17">
      <g>
       <use xlink:href="#mceabd34071" x="49.235" y="74.397187" style="stroke: #000000; stroke-width: 0.8"/>
      </g>
     </g>
     <g id="text_18">
      <!-- 300 -->
      <g transform="translate(23.1475 78.196406) scale(0.1 -0.1)">
       <use xlink:href="#DejaVuSans-33"/>
       <use xlink:href="#DejaVuSans-30" x="63.623047"/>
       <use xlink:href="#DejaVuSans-30" x="127.246094"/>
      </g>
     </g>
    </g>
    <g id="ytick_8">
     <g id="line2d_18">
      <g>
       <use xlink:href="#mceabd34071" x="49.235" y="29.397187" style="stroke: #000000; stroke-width: 0.8"/>
      </g>
     </g>
     <g id="text_19">
      <!-- 350 -->
      <g transform="translate(23.1475 33.196406) scale(0.1 -0.1)">
       <use xlink:href="#DejaVuSans-33"/>
       <use xlink:href="#DejaVuSans-35" x="63.623047"/>
       <use xlink:href="#DejaVuSans-30" x="127.246094"/>
      </g>
     </g>
    </g>
    <g id="text_20">
     <!-- Pellet_Count -->
     <g transform="translate(16.318125 230.485312) rotate(-90) scale(0.12 -0.12)">
      <defs>
       <path id="DejaVuSans-50" d="M 1259 4147 
L 1259 2394 
L 2053 2394 
Q 2494 2394 2734 2622 
Q 2975 2850 2975 3272 
Q 2975 3691 2734 3919 
Q 2494 4147 2053 4147 
L 1259 4147 
z
M 628 4666 
L 2053 4666 
Q 2838 4666 3239 4311 
Q 3641 3956 3641 3272 
Q 3641 2581 3239 2228 
Q 2838 1875 2053 1875 
L 1259 1875 
L 1259 0 
L 628 0 
L 628 4666 
z
" transform="scale(0.015625)"/>
       <path id="DejaVuSans-6c" d="M 603 4863 
L 1178 4863 
L 1178 0 
L 603 0 
L 603 4863 
z
" transform="scale(0.015625)"/>
       <path id="DejaVuSans-74" d="M 1172 4494 
L 1172 3500 
L 2356 3500 
L 2356 3053 
L 1172 3053 
L 1172 1153 
Q 1172 725 1289 603 
Q 1406 481 1766 481 
L 2356 481 
L 2356 0 
L 1766 0 
Q 1100 0 847 248 
Q 594 497 594 1153 
L 594 3053 
L 172 3053 
L 172 3500 
L 594 3500 
L 594 4494 
L 1172 4494 
z
" transform="scale(0.015625)"/>
       <path id="DejaVuSans-5f" d="M 3263 -1063 
L 3263 -1509 
L -63 -1509 
L -63 -1063 
L 3263 -1063 
z
" transform="scale(0.015625)"/>
       <path id="DejaVuSans-43" d="M 4122 4306 
L 4122 3641 
Q 3803 3938 3442 4084 
Q 3081 4231 2675 4231 
Q 1875 4231 1450 3742 
Q 1025 3253 1025 2328 
Q 1025 1406 1450 917 
Q 1875 428 2675 428 
Q 3081 428 3442 575 
Q 3803 722 4122 1019 
L 4122 359 
Q 3791 134 3420 21 
Q 3050 -91 2638 -91 
Q 1578 -91 968 557 
Q 359 1206 359 2328 
Q 359 3453 968 4101 
Q 1578 4750 2638 4750 
Q 3056 4750 3426 4639 
Q 3797 4528 4122 4306 
z
" transform="scale(0.015625)"/>
       <path id="DejaVuSans-6f" d="M 1959 3097 
Q 1497 3097 1228 2736 
Q 959 2375 959 1747 
Q 959 1119 1226 758 
Q 1494 397 1959 397 
Q 2419 397 2687 759 
Q 2956 1122 2956 1747 
Q 2956 2369 2687 2733 
Q 2419 3097 1959 3097 
z
M 1959 3584 
Q 2709 3584 3137 3096 
Q 3566 2609 3566 1747 
Q 3566 888 3137 398 
Q 2709 -91 1959 -91 
Q 1206 -91 779 398 
Q 353 888 353 1747 
Q 353 2609 779 3096 
Q 1206 3584 1959 3584 
z
" transform="scale(0.015625)"/>
       <path id="DejaVuSans-75" d="M 544 1381 
L 544 3500 
L 1119 3500 
L 1119 1403 
Q 1119 906 1312 657 
Q 1506 409 1894 409 
Q 2359 409 2629 706 
Q 2900 1003 2900 1516 
L 2900 3500 
L 3475 3500 
L 3475 0 
L 2900 0 
L 2900 538 
Q 2691 219 2414 64 
Q 2138 -91 1772 -91 
Q 1169 -91 856 284 
Q 544 659 544 1381 
z
M 1991 3584 
L 1991 3584 
z
" transform="scale(0.015625)"/>
       <path id="DejaVuSans-6e" d="M 3513 2113 
L 3513 0 
L 2938 0 
L 2938 2094 
Q 2938 2591 2744 2837 
Q 2550 3084 2163 3084 
Q 1697 3084 1428 2787 
Q 1159 2491 1159 1978 
L 1159 0 
L 581 0 
L 581 3500 
L 1159 3500 
L 1159 2956 
Q 1366 3272 1645 3428 
Q 1925 3584 2291 3584 
Q 2894 3584 3203 3211 
Q 3513 2838 3513 2113 
z
" transform="scale(0.015625)"/>
      </defs>
      <use xlink:href="#DejaVuSans-50"/>
      <use xlink:href="#DejaVuSans-65" x="56.677734"/>
      <use xlink:href="#DejaVuSans-6c" x="118.201172"/>
      <use xlink:href="#DejaVuSans-6c" x="145.984375"/>
      <use xlink:href="#DejaVuSans-65" x="173.767578"/>
      <use xlink:href="#DejaVuSans-74" x="235.291016"/>
      <use xlink:href="#DejaVuSans-5f" x="274.5"/>
      <use xlink:href="#DejaVuSans-43" x="324.5"/>
      <use xlink:href="#DejaVuSans-6f" x="394.324219"/>
      <use xlink:href="#DejaVuSans-75" x="455.505859"/>
      <use xlink:href="#DejaVuSans-6e" x="518.884766"/>
      <use xlink:href="#DejaVuSans-74" x="582.263672"/>
     </g>
    </g>
   </g>
   <g id="line2d_19">
    <path d="M 99.962273 344.397187 
L 102.485782 343.497187 
L 105.009292 343.497187 
L 105.640169 342.597187 
L 125.197368 342.597187 
L 125.197368 341.697187 
L 125.197368 341.697187 
L 128.351755 341.697187 
L 128.351755 340.797187 
L 135.291406 340.797187 
L 135.922283 339.897187 
L 137.184038 339.897187 
L 137.184038 338.997187 
L 141.60018 338.997187 
L 141.60018 338.097187 
L 142.861934 338.097187 
L 142.861934 337.197187 
L 158.633869 337.197187 
L 158.633869 337.197187 
L 158.633869 336.297187 
L 159.264746 336.297187 
L 159.264746 336.297187 
L 159.264746 335.397187 
L 159.895624 335.397187 
L 159.895624 333.597187 
L 160.526501 333.597187 
L 160.526501 332.697187 
L 160.526501 332.697187 
L 161.157378 331.797187 
L 161.157378 331.797187 
L 161.157378 329.997187 
L 161.788256 329.997187 
L 161.788256 328.197187 
L 163.05001 328.197187 
L 163.05001 328.197187 
L 163.05001 326.397187 
L 163.680888 326.397187 
L 163.680888 325.497187 
L 164.942643 325.497187 
L 164.942643 323.697187 
L 166.835275 323.697187 
L 166.835275 322.797187 
L 169.358784 322.797187 
L 169.358784 320.097187 
L 169.989662 320.097187 
L 169.989662 319.197187 
L 179.452822 319.197187 
L 179.452822 317.397187 
L 181.976332 317.397187 
L 181.976332 317.397187 
L 181.976332 316.497187 
L 185.761596 316.497187 
L 185.761596 315.597187 
L 186.392473 315.597187 
L 186.392473 313.797187 
L 188.285106 313.797187 
L 188.285106 312.897187 
L 188.915983 312.897187 
L 188.915983 311.997187 
L 195.224757 311.997187 
L 195.224757 311.997187 
L 195.224757 311.097187 
L 195.855634 311.097187 
L 195.855634 310.197187 
L 199.010021 310.197187 
L 199.010021 308.397187 
L 213.520201 308.397187 
L 213.520201 306.597187 
L 214.151078 306.597187 
L 214.151078 305.697187 
L 214.781955 305.697187 
L 214.781955 304.797187 
L 216.04371 304.797187 
L 216.04371 304.797187 
L 216.04371 303.897187 
L 219.828974 303.897187 
L 219.828974 302.997187 
L 221.090729 302.997187 
L 221.090729 302.097187 
L 222.983361 302.097187 
L 222.983361 300.297187 
L 223.614239 300.297187 
L 223.614239 299.397187 
L 224.875993 299.397187 
L 224.875993 298.497187 
L 236.862664 298.497187 
L 236.862664 297.597187 
L 239.386173 297.597187 
L 239.386173 297.597187 
L 239.386173 296.697187 
L 240.017051 296.697187 
L 240.017051 295.797187 
L 241.909683 295.797187 
L 241.909683 294.897187 
L 245.06407 294.897187 
L 245.06407 294.897187 
L 245.06407 293.097187 
L 246.956702 293.097187 
L 246.956702 292.197187 
L 248.218456 292.197187 
L 248.218456 291.297187 
L 248.849334 291.297187 
L 248.849334 289.497187 
L 253.265475 289.497187 
L 253.265475 288.597187 
L 253.896353 288.597187 
L 253.896353 287.697187 
L 254.52723 287.697187 
L 254.52723 286.797187 
L 255.158108 286.797187 
L 255.158108 284.997187 
L 257.681617 284.997187 
L 257.681617 283.197187 
L 258.312494 283.197187 
L 258.312494 282.297187 
L 261.466881 282.297187 
L 261.466881 282.297187 
L 261.466881 281.397187 
L 263.990391 281.397187 
L 263.990391 280.497187 
L 266.5139 280.497187 
L 267.775655 279.597187 
L 267.775655 279.597187 
L 267.775655 278.697187 
L 269.03741 278.697187 
L 269.03741 277.797187 
L 269.668287 277.797187 
L 269.668287 275.997187 
L 270.299165 275.997187 
L 270.299165 275.097187 
L 271.560919 275.097187 
L 271.560919 275.097187 
L 271.560919 273.297187 
L 272.191797 273.297187 
L 272.191797 272.397187 
L 272.191797 272.397187 
L 274.084429 272.397187 
L 274.084429 268.797187 
L 275.977061 268.797187 
L 275.977061 266.997187 
L 276.607938 266.997187 
L 276.607938 266.097187 
L 277.869693 266.097187 
L 277.869693 265.197187 
L 278.500571 265.197187 
L 278.500571 261.597187 
L 279.762325 261.597187 
L 280.393203 260.697187 
L 281.02408 260.697187 
L 281.02408 259.797187 
L 282.916712 259.797187 
L 282.916712 259.797187 
L 282.916712 257.997187 
L 284.809344 257.997187 
L 284.809344 257.097187 
L 287.332854 257.097187 
L 287.332854 255.297187 
L 287.963731 255.297187 
L 287.963731 254.397187 
L 294.272505 254.397187 
L 294.272505 251.697187 
L 298.688647 251.697187 
L 298.688647 251.697187 
L 298.688647 249.897187 
L 301.212156 249.897187 
L 301.212156 249.897187 
L 301.212156 248.997187 
L 301.843034 248.997187 
L 301.843034 248.997187 
L 301.843034 248.097187 
L 302.473911 248.097187 
L 302.473911 246.297187 
L 303.735666 246.297187 
L 303.735666 245.397187 
L 304.366543 245.397187 
L 304.366543 243.597187 
L 304.99742 243.597187 
L 304.99742 241.797187 
L 308.782685 241.797187 
L 308.782685 239.997187 
L 309.413562 239.997187 
L 309.413562 238.197187 
L 310.044439 238.197187 
L 310.044439 237.297187 
L 310.675317 237.297187 
L 310.675317 235.497187 
L 311.306194 235.497187 
L 311.306194 235.497187 
L 311.306194 234.597187 
L 311.306194 234.597187 
L 311.937072 234.597187 
L 311.937072 234.597187 
L 312.567949 233.697187 
L 313.198826 233.697187 
L 313.198826 233.697187 
L 313.198826 232.797187 
L 313.829704 232.797187 
L 313.829704 230.997187 
L 320.138477 230.997187 
L 320.138477 230.997187 
L 320.138477 230.097187 
L 320.769355 230.097187 
L 320.769355 229.197187 
L 321.400232 229.197187 
L 321.400232 229.197187 
L 321.400232 228.297187 
L 322.03111 228.297187 
L 322.03111 227.397187 
L 323.292864 227.397187 
L 323.292864 227.397187 
L 323.292864 225.597187 
L 323.292864 225.597187 
L 325.185496 225.597187 
L 325.185496 224.697187 
L 325.816374 224.697187 
L 325.816374 222.897187 
L 326.447251 222.897187 
L 326.447251 221.997187 
L 328.970761 221.997187 
L 328.970761 221.997187 
L 328.970761 221.097187 
L 329.601638 221.097187 
L 329.601638 220.197187 
L 329.601638 220.197187 
L 332.756025 220.197187 
L 332.756025 218.397187 
L 343.48094 218.397187 
L 343.48094 218.397187 
L 343.48094 216.597187 
L 344.111818 216.597187 
L 344.111818 215.697187 
L 344.111818 215.697187 
L 344.742695 214.797187 
L 344.742695 214.797187 
L 346.635327 214.797187 
L 346.635327 214.797187 
L 346.635327 213.897187 
L 346.635327 213.897187 
L 347.897082 213.897187 
L 347.897082 212.997187 
L 351.682346 212.997187 
L 351.682346 212.997187 
L 351.682346 212.097187 
L 353.574978 212.097187 
L 353.574978 211.197187 
L 353.574978 211.197187 
L 354.205856 211.197187 
L 354.205856 209.397187 
L 354.205856 209.397187 
L 356.098488 209.397187 
L 356.098488 208.497187 
L 358.621997 208.497187 
L 358.621997 207.597187 
L 358.621997 207.597187 
L 361.145507 207.597187 
L 361.145507 207.597187 
L 361.776384 206.697187 
L 361.776384 206.697187 
L 369.346913 206.697187 
L 369.346913 206.697187 
L 369.346913 205.797187 
L 369.97779 205.797187 
L 369.97779 203.997187 
L 374.393932 203.997187 
L 374.393932 203.997187 
L 374.393932 203.097187 
L 375.024809 203.097187 
L 375.024809 201.297187 
L 375.655687 201.297187 
L 375.655687 199.497187 
L 375.655687 199.497187 
L 376.286564 199.497187 
L 376.286564 199.497187 
L 376.286564 197.697187 
L 376.917441 197.697187 
L 376.917441 197.697187 
L 376.917441 196.797187 
L 392.689376 196.797187 
L 392.689376 195.897187 
L 393.320253 195.897187 
L 393.320253 195.897187 
L 393.951131 194.997187 
L 393.951131 194.997187 
L 393.951131 193.197187 
L 394.582008 193.197187 
L 394.582008 191.397187 
L 396.47464 191.397187 
L 396.47464 191.397187 
L 396.47464 190.497187 
L 397.736395 190.497187 
L 397.736395 189.597187 
L 398.367272 189.597187 
L 398.99815 188.697187 
L 403.414291 188.697187 
L 403.414291 188.697187 
L 403.414291 187.797187 
L 404.045169 187.797187 
L 404.045169 185.997187 
L 404.676046 185.997187 
L 404.676046 184.197187 
L 414.770084 184.197187 
L 414.770084 184.197187 
L 414.770084 183.297187 
L 414.770084 183.297187 
L 415.400961 182.397187 
L 415.400961 182.397187 
L 415.400961 181.497187 
L 416.031839 181.497187 
L 416.031839 180.597187 
L 417.924471 180.597187 
L 419.186226 178.797187 
L 419.186226 178.797187 
L 419.186226 176.997187 
L 419.817103 176.997187 
L 419.817103 175.197187 
L 429.280264 175.197187 
L 437.48167 174.297187 
L 439.374302 174.297187 
L 439.374302 174.297187 
L 439.374302 173.397187 
L 440.005179 173.397187 
L 440.005179 172.497187 
L 441.266934 172.497187 
L 441.266934 170.697187 
L 445.683076 170.697187 
L 445.683076 169.797187 
L 445.683076 169.797187 
L 446.313953 168.897187 
L 448.837462 168.897187 
L 448.837462 167.997187 
L 450.099217 167.997187 
L 450.099217 166.197187 
L 450.730095 166.197187 
L 450.730095 165.297187 
L 450.730095 165.297187 
L 451.360972 165.297187 
L 453.253604 164.397187 
L 453.253604 163.497187 
L 454.515359 163.497187 
L 454.515359 161.697187 
L 455.146236 161.697187 
L 455.146236 160.797187 
L 455.777114 160.797187 
L 455.777114 159.897187 
L 458.9315 159.897187 
L 458.9315 159.897187 
L 458.9315 158.097187 
L 461.45501 158.097187 
L 466.502029 157.197187 
L 472.179925 157.197187 
L 472.179925 156.297187 
L 472.810803 156.297187 
L 472.810803 155.397187 
L 472.810803 155.397187 
L 475.334312 154.497187 
L 479.119577 154.497187 
L 479.119577 152.697187 
L 479.750454 152.697187 
L 479.750454 150.897187 
L 484.166596 150.897187 
L 484.166596 148.197187 
L 487.320982 148.197187 
L 487.320982 148.197187 
L 487.320982 147.297187 
L 488.582737 147.297187 
L 489.213615 146.397187 
L 489.213615 146.397187 
L 489.213615 144.597187 
L 499.93853 144.597187 
L 499.93853 143.697187 
L 500.569407 143.697187 
L 500.569407 142.797187 
L 502.46204 142.797187 
L 502.46204 141.897187 
L 506.878181 141.897187 
L 506.878181 141.897187 
L 506.878181 140.097187 
L 507.509059 140.097187 
L 507.509059 139.197187 
L 537.791173 139.197187 
L 537.791173 138.297187 
L 538.42205 138.297187 
L 538.42205 136.497187 
L 539.052927 136.497187 
L 539.052927 135.597187 
L 539.683805 135.597187 
L 539.683805 133.797187 
L 540.314682 133.797187 
L 540.314682 131.997187 
L 540.94556 131.997187 
L 540.94556 131.097187 
L 542.838192 131.097187 
L 542.838192 130.197187 
L 546.623456 130.197187 
L 546.623456 129.297187 
L 554.193984 129.297187 
L 554.193984 126.597187 
L 554.824862 126.597187 
L 554.824862 125.697187 
L 605.925929 125.697187 
L 605.925929 124.797187 
L 606.556807 124.797187 
L 606.556807 122.997187 
L 607.187684 122.997187 
L 607.187684 122.097187 
L 609.080316 122.097187 
L 609.080316 120.297187 
L 609.711194 120.297187 
L 609.711194 119.397187 
L 610.342071 119.397187 
L 610.342071 118.497187 
L 610.342071 118.497187 
L 610.972948 118.497187 
L 610.972948 115.797187 
L 611.603826 115.797187 
L 611.603826 113.997187 
L 697.403149 113.997187 
L 697.403149 113.097187 
L 698.034027 113.097187 
L 698.034027 111.297187 
L 698.664904 111.297187 
L 698.664904 108.597187 
L 699.295781 108.597187 
L 699.295781 106.797187 
L 699.926659 106.797187 
L 699.926659 104.997187 
L 700.557536 104.997187 
L 700.557536 103.197187 
L 710.020697 103.197187 
L 710.020697 103.197187 
L 711.913329 102.297187 
L 711.913329 101.397187 
L 712.544206 101.397187 
L 712.544206 100.497187 
L 713.175084 100.497187 
L 713.175084 99.597187 
L 716.960348 99.597187 
L 716.960348 98.697187 
L 735.255792 98.697187 
L 735.255792 97.797187 
L 735.886669 97.797187 
L 735.886669 96.897187 
L 736.517547 96.897187 
L 736.517547 95.097187 
L 737.148424 95.097187 
L 737.148424 94.197187 
L 796.450897 94.197187 
L 796.450897 94.197187 
L 796.450897 93.297187 
L 797.081775 93.297187 
L 797.081775 92.397187 
L 798.34353 92.397187 
L 798.34353 92.397187 
L 798.34353 90.597187 
L 798.974407 90.597187 
L 798.974407 90.597187 
L 798.974407 88.797187 
L 800.236162 88.797187 
L 800.236162 87.897187 
L 847.551965 87.897187 
L 847.551965 87.897187 
L 847.551965 86.097187 
L 847.551965 86.097187 
L 848.182842 85.197187 
L 848.182842 85.197187 
L 848.182842 83.397187 
L 848.81372 83.397187 
L 848.81372 81.597187 
L 848.81372 81.597187 
L 849.444597 80.697187 
L 849.444597 80.697187 
L 849.444597 79.797187 
L 851.337229 79.797187 
L 851.337229 77.997187 
L 901.807419 77.997187 
L 901.807419 77.097187 
L 902.438297 77.097187 
L 902.438297 75.297187 
L 903.069174 75.297187 
L 903.069174 73.497187 
L 963.002525 73.497187 
L 963.002525 72.597187 
L 963.633402 72.597187 
L 963.633402 72.597187 
L 963.633402 70.797187 
L 964.26428 70.797187 
L 964.26428 68.097187 
L 964.895157 68.097187 
L 964.895157 65.397187 
L 965.526035 65.397187 
L 965.526035 63.597187 
L 1002.116922 63.597187 
L 1002.116922 62.697187 
L 1002.7478 62.697187 
L 1002.7478 59.997187 
L 1028.613772 59.997187 
L 1028.613772 59.097187 
L 1029.24465 59.097187 
L 1029.24465 58.197187 
L 1041.23132 58.197187 
L 1041.23132 58.197187 
L 1041.23132 57.297187 
L 1041.862197 57.297187 
L 1041.862197 55.497187 
L 1065.20466 55.497187 
L 1065.20466 53.697187 
L 1065.835538 53.697187 
L 1065.835538 51.897187 
L 1066.466415 51.897187 
L 1066.466415 49.197187 
L 1067.097292 49.197187 
L 1067.097292 48.297187 
L 1085.392736 48.297187 
L 1085.392736 47.397187 
L 1086.023614 47.397187 
L 1086.023614 46.497187 
L 1101.164671 46.497187 
L 1101.164671 46.497187 
L 1101.795548 45.597187 
L 1102.426425 45.597187 
L 1102.426425 44.697187 
L 1103.057303 44.697187 
L 1103.057303 43.797187 
L 1108.104322 43.797187 
L 1108.104322 43.797187 
L 1108.735199 42.897187 
L 1108.735199 42.897187 
L 1108.735199 41.997187 
L 1108.735199 41.997187 
" clip-path="url(#p2f3ca6c8ea)" style="fill: none; stroke: #0000ff; stroke-width: 1.5; stroke-linecap: square"/>
   </g>
   <g id="patch_98">
    <path d="M 49.235 359.517187 
L 49.235 26.877187 
" style="fill: none; stroke: #000000; stroke-width: 0.8; stroke-linejoin: miter; stroke-linecap: square"/>
   </g>
   <g id="patch_99">
    <path d="M 1165.235 359.517187 
L 1165.235 26.877187 
" style="fill: none; stroke: #000000; stroke-width: 0.8; stroke-linejoin: miter; stroke-linecap: square"/>
   </g>
   <g id="patch_100">
    <path d="M 49.235 359.517187 
L 1165.235 359.517187 
" style="fill: none; stroke: #000000; stroke-width: 0.8; stroke-linejoin: miter; stroke-linecap: square"/>
   </g>
   <g id="patch_101">
    <path d="M 49.235 26.877187 
L 1165.235 26.877187 
" style="fill: none; stroke: #000000; stroke-width: 0.8; stroke-linejoin: miter; stroke-linecap: square"/>
   </g>
   <g id="text_21">
    <!-- Pellet Count and Cumulative Sum Over Time of Group 2 Mouse 2 -->
    <g transform="translate(315.460625 20.877187) scale(0.18 -0.18)">
     <defs>
      <path id="DejaVuSans-61" d="M 2194 1759 
Q 1497 1759 1228 1600 
Q 959 1441 959 1056 
Q 959 750 1161 570 
Q 1363 391 1709 391 
Q 2188 391 2477 730 
Q 2766 1069 2766 1631 
L 2766 1759 
L 2194 1759 
z
M 3341 1997 
L 3341 0 
L 2766 0 
L 2766 531 
Q 2569 213 2275 61 
Q 1981 -91 1556 -91 
Q 1019 -91 701 211 
Q 384 513 384 1019 
Q 384 1609 779 1909 
Q 1175 2209 1959 2209 
L 2766 2209 
L 2766 2266 
Q 2766 2663 2505 2880 
Q 2244 3097 1772 3097 
Q 1472 3097 1187 3025 
Q 903 2953 641 2809 
L 641 3341 
Q 956 3463 1253 3523 
Q 1550 3584 1831 3584 
Q 2591 3584 2966 3190 
Q 3341 2797 3341 1997 
z
" transform="scale(0.015625)"/>
      <path id="DejaVuSans-64" d="M 2906 2969 
L 2906 4863 
L 3481 4863 
L 3481 0 
L 2906 0 
L 2906 525 
Q 2725 213 2448 61 
Q 2172 -91 1784 -91 
Q 1150 -91 751 415 
Q 353 922 353 1747 
Q 353 2572 751 3078 
Q 1150 3584 1784 3584 
Q 2172 3584 2448 3432 
Q 2725 3281 2906 2969 
z
M 947 1747 
Q 947 1113 1208 752 
Q 1469 391 1925 391 
Q 2381 391 2643 752 
Q 2906 1113 2906 1747 
Q 2906 2381 2643 2742 
Q 2381 3103 1925 3103 
Q 1469 3103 1208 2742 
Q 947 2381 947 1747 
z
" transform="scale(0.015625)"/>
      <path id="DejaVuSans-76" d="M 191 3500 
L 800 3500 
L 1894 563 
L 2988 3500 
L 3597 3500 
L 2284 0 
L 1503 0 
L 191 3500 
z
" transform="scale(0.015625)"/>
      <path id="DejaVuSans-53" d="M 3425 4513 
L 3425 3897 
Q 3066 4069 2747 4153 
Q 2428 4238 2131 4238 
Q 1616 4238 1336 4038 
Q 1056 3838 1056 3469 
Q 1056 3159 1242 3001 
Q 1428 2844 1947 2747 
L 2328 2669 
Q 3034 2534 3370 2195 
Q 3706 1856 3706 1288 
Q 3706 609 3251 259 
Q 2797 -91 1919 -91 
Q 1588 -91 1214 -16 
Q 841 59 441 206 
L 441 856 
Q 825 641 1194 531 
Q 1563 422 1919 422 
Q 2459 422 2753 634 
Q 3047 847 3047 1241 
Q 3047 1584 2836 1778 
Q 2625 1972 2144 2069 
L 1759 2144 
Q 1053 2284 737 2584 
Q 422 2884 422 3419 
Q 422 4038 858 4394 
Q 1294 4750 2059 4750 
Q 2388 4750 2728 4690 
Q 3069 4631 3425 4513 
z
" transform="scale(0.015625)"/>
      <path id="DejaVuSans-4f" d="M 2522 4238 
Q 1834 4238 1429 3725 
Q 1025 3213 1025 2328 
Q 1025 1447 1429 934 
Q 1834 422 2522 422 
Q 3209 422 3611 934 
Q 4013 1447 4013 2328 
Q 4013 3213 3611 3725 
Q 3209 4238 2522 4238 
z
M 2522 4750 
Q 3503 4750 4090 4092 
Q 4678 3434 4678 2328 
Q 4678 1225 4090 567 
Q 3503 -91 2522 -91 
Q 1538 -91 948 565 
Q 359 1222 359 2328 
Q 359 3434 948 4092 
Q 1538 4750 2522 4750 
z
" transform="scale(0.015625)"/>
      <path id="DejaVuSans-72" d="M 2631 2963 
Q 2534 3019 2420 3045 
Q 2306 3072 2169 3072 
Q 1681 3072 1420 2755 
Q 1159 2438 1159 1844 
L 1159 0 
L 581 0 
L 581 3500 
L 1159 3500 
L 1159 2956 
Q 1341 3275 1631 3429 
Q 1922 3584 2338 3584 
Q 2397 3584 2469 3576 
Q 2541 3569 2628 3553 
L 2631 2963 
z
" transform="scale(0.015625)"/>
      <path id="DejaVuSans-66" d="M 2375 4863 
L 2375 4384 
L 1825 4384 
Q 1516 4384 1395 4259 
Q 1275 4134 1275 3809 
L 1275 3500 
L 2222 3500 
L 2222 3053 
L 1275 3053 
L 1275 0 
L 697 0 
L 697 3053 
L 147 3053 
L 147 3500 
L 697 3500 
L 697 3744 
Q 697 4328 969 4595 
Q 1241 4863 1831 4863 
L 2375 4863 
z
" transform="scale(0.015625)"/>
      <path id="DejaVuSans-47" d="M 3809 666 
L 3809 1919 
L 2778 1919 
L 2778 2438 
L 4434 2438 
L 4434 434 
Q 4069 175 3628 42 
Q 3188 -91 2688 -91 
Q 1594 -91 976 548 
Q 359 1188 359 2328 
Q 359 3472 976 4111 
Q 1594 4750 2688 4750 
Q 3144 4750 3555 4637 
Q 3966 4525 4313 4306 
L 4313 3634 
Q 3963 3931 3569 4081 
Q 3175 4231 2741 4231 
Q 1884 4231 1454 3753 
Q 1025 3275 1025 2328 
Q 1025 1384 1454 906 
Q 1884 428 2741 428 
Q 3075 428 3337 486 
Q 3600 544 3809 666 
z
" transform="scale(0.015625)"/>
      <path id="DejaVuSans-70" d="M 1159 525 
L 1159 -1331 
L 581 -1331 
L 581 3500 
L 1159 3500 
L 1159 2969 
Q 1341 3281 1617 3432 
Q 1894 3584 2278 3584 
Q 2916 3584 3314 3078 
Q 3713 2572 3713 1747 
Q 3713 922 3314 415 
Q 2916 -91 2278 -91 
Q 1894 -91 1617 61 
Q 1341 213 1159 525 
z
M 3116 1747 
Q 3116 2381 2855 2742 
Q 2594 3103 2138 3103 
Q 1681 3103 1420 2742 
Q 1159 2381 1159 1747 
Q 1159 1113 1420 752 
Q 1681 391 2138 391 
Q 2594 391 2855 752 
Q 3116 1113 3116 1747 
z
" transform="scale(0.015625)"/>
      <path id="DejaVuSans-4d" d="M 628 4666 
L 1569 4666 
L 2759 1491 
L 3956 4666 
L 4897 4666 
L 4897 0 
L 4281 0 
L 4281 4097 
L 3078 897 
L 2444 897 
L 1241 4097 
L 1241 0 
L 628 0 
L 628 4666 
z
" transform="scale(0.015625)"/>
      <path id="DejaVuSans-73" d="M 2834 3397 
L 2834 2853 
Q 2591 2978 2328 3040 
Q 2066 3103 1784 3103 
Q 1356 3103 1142 2972 
Q 928 2841 928 2578 
Q 928 2378 1081 2264 
Q 1234 2150 1697 2047 
L 1894 2003 
Q 2506 1872 2764 1633 
Q 3022 1394 3022 966 
Q 3022 478 2636 193 
Q 2250 -91 1575 -91 
Q 1294 -91 989 -36 
Q 684 19 347 128 
L 347 722 
Q 666 556 975 473 
Q 1284 391 1588 391 
Q 1994 391 2212 530 
Q 2431 669 2431 922 
Q 2431 1156 2273 1281 
Q 2116 1406 1581 1522 
L 1381 1569 
Q 847 1681 609 1914 
Q 372 2147 372 2553 
Q 372 3047 722 3315 
Q 1072 3584 1716 3584 
Q 2034 3584 2315 3537 
Q 2597 3491 2834 3397 
z
" transform="scale(0.015625)"/>
     </defs>
     <use xlink:href="#DejaVuSans-50"/>
     <use xlink:href="#DejaVuSans-65" x="56.677734"/>
     <use xlink:href="#DejaVuSans-6c" x="118.201172"/>
     <use xlink:href="#DejaVuSans-6c" x="145.984375"/>
     <use xlink:href="#DejaVuSans-65" x="173.767578"/>
     <use xlink:href="#DejaVuSans-74" x="235.291016"/>
     <use xlink:href="#DejaVuSans-20" x="274.5"/>
     <use xlink:href="#DejaVuSans-43" x="306.287109"/>
     <use xlink:href="#DejaVuSans-6f" x="376.111328"/>
     <use xlink:href="#DejaVuSans-75" x="437.292969"/>
     <use xlink:href="#DejaVuSans-6e" x="500.671875"/>
     <use xlink:href="#DejaVuSans-74" x="564.050781"/>
     <use xlink:href="#DejaVuSans-20" x="603.259766"/>
     <use xlink:href="#DejaVuSans-61" x="635.046875"/>
     <use xlink:href="#DejaVuSans-6e" x="696.326172"/>
     <use xlink:href="#DejaVuSans-64" x="759.705078"/>
     <use xlink:href="#DejaVuSans-20" x="823.181641"/>
     <use xlink:href="#DejaVuSans-43" x="854.96875"/>
     <use xlink:href="#DejaVuSans-75" x="924.792969"/>
     <use xlink:href="#DejaVuSans-6d" x="988.171875"/>
     <use xlink:href="#DejaVuSans-75" x="1085.583984"/>
     <use xlink:href="#DejaVuSans-6c" x="1148.962891"/>
     <use xlink:href="#DejaVuSans-61" x="1176.746094"/>
     <use xlink:href="#DejaVuSans-74" x="1238.025391"/>
     <use xlink:href="#DejaVuSans-69" x="1277.234375"/>
     <use xlink:href="#DejaVuSans-76" x="1305.017578"/>
     <use xlink:href="#DejaVuSans-65" x="1364.197266"/>
     <use xlink:href="#DejaVuSans-20" x="1425.720703"/>
     <use xlink:href="#DejaVuSans-53" x="1457.507812"/>
     <use xlink:href="#DejaVuSans-75" x="1520.984375"/>
     <use xlink:href="#DejaVuSans-6d" x="1584.363281"/>
     <use xlink:href="#DejaVuSans-20" x="1681.775391"/>
     <use xlink:href="#DejaVuSans-4f" x="1713.5625"/>
     <use xlink:href="#DejaVuSans-76" x="1792.273438"/>
     <use xlink:href="#DejaVuSans-65" x="1851.453125"/>
     <use xlink:href="#DejaVuSans-72" x="1912.976562"/>
     <use xlink:href="#DejaVuSans-20" x="1954.089844"/>
     <use xlink:href="#DejaVuSans-54" x="1985.876953"/>
     <use xlink:href="#DejaVuSans-69" x="2043.835938"/>
     <use xlink:href="#DejaVuSans-6d" x="2071.619141"/>
     <use xlink:href="#DejaVuSans-65" x="2169.03125"/>
     <use xlink:href="#DejaVuSans-20" x="2230.554688"/>
     <use xlink:href="#DejaVuSans-6f" x="2262.341797"/>
     <use xlink:href="#DejaVuSans-66" x="2323.523438"/>
     <use xlink:href="#DejaVuSans-20" x="2358.728516"/>
     <use xlink:href="#DejaVuSans-47" x="2390.515625"/>
     <use xlink:href="#DejaVuSans-72" x="2468.005859"/>
     <use xlink:href="#DejaVuSans-6f" x="2506.869141"/>
     <use xlink:href="#DejaVuSans-75" x="2568.050781"/>
     <use xlink:href="#DejaVuSans-70" x="2631.429688"/>
     <use xlink:href="#DejaVuSans-20" x="2694.90625"/>
     <use xlink:href="#DejaVuSans-32" x="2726.693359"/>
     <use xlink:href="#DejaVuSans-20" x="2790.316406"/>
     <use xlink:href="#DejaVuSans-4d" x="2822.103516"/>
     <use xlink:href="#DejaVuSans-6f" x="2908.382812"/>
     <use xlink:href="#DejaVuSans-75" x="2969.564453"/>
     <use xlink:href="#DejaVuSans-73" x="3032.943359"/>
     <use xlink:href="#DejaVuSans-65" x="3085.042969"/>
     <use xlink:href="#DejaVuSans-20" x="3146.566406"/>
     <use xlink:href="#DejaVuSans-32" x="3178.353516"/>
    </g>
   </g>
   <g id="legend_1">
    <g id="patch_102">
     <path d="M 1086.550625 64.233437 
L 1158.235 64.233437 
Q 1160.235 64.233437 1160.235 62.233437 
L 1160.235 33.877187 
Q 1160.235 31.877187 1158.235 31.877187 
L 1086.550625 31.877187 
Q 1084.550625 31.877187 1084.550625 33.877187 
L 1084.550625 62.233437 
Q 1084.550625 64.233437 1086.550625 64.233437 
z
" style="fill: #ffffff; opacity: 0.8; stroke: #cccccc; stroke-linejoin: miter"/>
    </g>
    <g id="patch_103">
     <path d="M 1088.550625 43.475625 
L 1108.550625 43.475625 
L 1108.550625 36.475625 
L 1088.550625 36.475625 
z
" style="fill: #add8e6; opacity: 0.9; stroke: #add8e6; stroke-linejoin: miter"/>
    </g>
    <g id="text_22">
     <!-- Meal -->
     <g transform="translate(1116.550625 43.475625) scale(0.1 -0.1)">
      <use xlink:href="#DejaVuSans-4d"/>
      <use xlink:href="#DejaVuSans-65" x="86.279297"/>
      <use xlink:href="#DejaVuSans-61" x="147.802734"/>
      <use xlink:href="#DejaVuSans-6c" x="209.082031"/>
     </g>
    </g>
    <g id="patch_104">
     <path d="M 1088.550625 58.15375 
L 1108.550625 58.15375 
L 1108.550625 51.15375 
L 1088.550625 51.15375 
z
" style="fill: #808080; opacity: 0.5; stroke: #808080; stroke-linejoin: miter"/>
    </g>
    <g id="text_23">
     <!-- Inactive -->
     <g transform="translate(1116.550625 58.15375) scale(0.1 -0.1)">
      <defs>
       <path id="DejaVuSans-49" d="M 628 4666 
L 1259 4666 
L 1259 0 
L 628 0 
L 628 4666 
z
" transform="scale(0.015625)"/>
       <path id="DejaVuSans-63" d="M 3122 3366 
L 3122 2828 
Q 2878 2963 2633 3030 
Q 2388 3097 2138 3097 
Q 1578 3097 1268 2742 
Q 959 2388 959 1747 
Q 959 1106 1268 751 
Q 1578 397 2138 397 
Q 2388 397 2633 464 
Q 2878 531 3122 666 
L 3122 134 
Q 2881 22 2623 -34 
Q 2366 -91 2075 -91 
Q 1284 -91 818 406 
Q 353 903 353 1747 
Q 353 2603 823 3093 
Q 1294 3584 2113 3584 
Q 2378 3584 2631 3529 
Q 2884 3475 3122 3366 
z
" transform="scale(0.015625)"/>
      </defs>
      <use xlink:href="#DejaVuSans-49"/>
      <use xlink:href="#DejaVuSans-6e" x="29.492188"/>
      <use xlink:href="#DejaVuSans-61" x="92.871094"/>
      <use xlink:href="#DejaVuSans-63" x="154.150391"/>
      <use xlink:href="#DejaVuSans-74" x="209.130859"/>
      <use xlink:href="#DejaVuSans-69" x="248.339844"/>
      <use xlink:href="#DejaVuSans-76" x="276.123047"/>
      <use xlink:href="#DejaVuSans-65" x="335.302734"/>
     </g>
    </g>
   </g>
  </g>
 </g>
 <defs>
  <clipPath id="p2f3ca6c8ea">
   <rect x="49.235" y="26.877187" width="1116" height="332.64"/>
  </clipPath>
 </defs>
</svg>
