<?xml version="1.0" encoding="utf-8" standalone="no"?>
<!DOCTYPE svg PUBLIC "-//W3C//DTD SVG 1.1//EN"
  "http://www.w3.org/Graphics/SVG/1.1/DTD/svg11.dtd">
<svg xmlns:xlink="http://www.w3.org/1999/xlink" width="1172.435pt" height="399.009062pt" viewBox="0 0 1172.435 399.009062" xmlns="http://www.w3.org/2000/svg" version="1.1">
 <metadata>
  <rdf:RDF xmlns:dc="http://purl.org/dc/elements/1.1/" xmlns:cc="http://creativecommons.org/ns#" xmlns:rdf="http://www.w3.org/1999/02/22-rdf-syntax-ns#">
   <cc:Work>
    <dc:type rdf:resource="http://purl.org/dc/dcmitype/StillImage"/>
    <dc:date>2025-04-02T10:37:54.424876</dc:date>
    <dc:format>image/svg+xml</dc:format>
    <dc:creator>
     <cc:Agent>
      <dc:title>Matplotlib v3.8.3, https://matplotlib.org/</dc:title>
     </cc:Agent>
    </dc:creator>
   </cc:Work>
  </rdf:RDF>
 </metadata>
 <defs>
  <style type="text/css">*{stroke-linejoin: round; stroke-linecap: butt}</style>
 </defs>
 <g id="figure_1">
  <g id="patch_1">
   <path d="M 0 399.009062 
L 1172.435 399.009062 
L 1172.435 0 
L 0 0 
z
" style="fill: #ffffff"/>
  </g>
  <g id="axes_1">
   <g id="patch_2">
    <path d="M 49.235 359.517187 
L 1165.235 359.517187 
L 1165.235 26.877187 
L 49.235 26.877187 
z
" style="fill: #ffffff"/>
   </g>
   <g id="patch_3">
    <path d="M 177.380131 359.517187 
L 177.380131 26.877187 
L 176.495977 26.877187 
L 176.495977 359.517187 
z
" clip-path="url(#pfb236f6316)" style="fill: #add8e6; stroke: #add8e6; stroke-linejoin: miter"/>
   </g>
   <g id="patch_4">
    <path d="M 190.146006 359.517187 
L 190.146006 26.877187 
L 189.838295 26.877187 
L 189.838295 359.517187 
z
" clip-path="url(#pfb236f6316)" style="fill: #add8e6; stroke: #add8e6; stroke-linejoin: miter"/>
   </g>
   <g id="patch_5">
    <path d="M 194.298043 359.517187 
L 194.298043 26.877187 
L 194.273426 26.877187 
L 194.273426 359.517187 
z
" clip-path="url(#pfb236f6316)" style="fill: #add8e6; stroke: #add8e6; stroke-linejoin: miter"/>
   </g>
   <g id="patch_6">
    <path d="M 200.425581 359.517187 
L 200.425581 26.877187 
L 200.565076 26.877187 
L 200.565076 359.517187 
z
" clip-path="url(#pfb236f6316)" style="fill: #add8e6; stroke: #add8e6; stroke-linejoin: miter"/>
   </g>
   <g id="patch_7">
    <path d="M 202.907777 359.517187 
L 202.907777 26.877187 
L 201.976441 26.877187 
L 201.976441 359.517187 
z
" clip-path="url(#pfb236f6316)" style="fill: #add8e6; stroke: #add8e6; stroke-linejoin: miter"/>
   </g>
   <g id="patch_8">
    <path d="M 215.333119 359.517187 
L 215.333119 26.877187 
L 215.152595 26.877187 
L 215.152595 359.517187 
z
" clip-path="url(#pfb236f6316)" style="fill: #add8e6; stroke: #add8e6; stroke-linejoin: miter"/>
   </g>
   <g id="patch_9">
    <path d="M 250.426452 359.517187 
L 250.426452 26.877187 
L 246.366728 26.877187 
L 246.366728 359.517187 
z
" clip-path="url(#pfb236f6316)" style="fill: #add8e6; stroke: #add8e6; stroke-linejoin: miter"/>
   </g>
   <g id="patch_10">
    <path d="M 256.063705 359.517187 
L 256.063705 26.877187 
L 256.313976 26.877187 
L 256.313976 359.517187 
z
" clip-path="url(#pfb236f6316)" style="fill: #add8e6; stroke: #add8e6; stroke-linejoin: miter"/>
   </g>
   <g id="patch_11">
    <path d="M 257.372499 359.517187 
L 257.372499 26.877187 
L 256.970424 26.877187 
L 256.970424 359.517187 
z
" clip-path="url(#pfb236f6316)" style="fill: #add8e6; stroke: #add8e6; stroke-linejoin: miter"/>
   </g>
   <g id="patch_12">
    <path d="M 291.639117 359.517187 
L 291.639117 26.877187 
L 271.752827 26.877187 
L 271.752827 359.517187 
z
" clip-path="url(#pfb236f6316)" style="fill: #add8e6; stroke: #add8e6; stroke-linejoin: miter"/>
   </g>
   <g id="patch_13">
    <path d="M 300.131921 359.517187 
L 300.131921 26.877187 
L 275.26893 26.877187 
L 275.26893 359.517187 
z
" clip-path="url(#pfb236f6316)" style="fill: #add8e6; stroke: #add8e6; stroke-linejoin: miter"/>
   </g>
   <g id="patch_14">
    <path d="M 303.055169 359.517187 
L 303.055169 26.877187 
L 301.073515 26.877187 
L 301.073515 359.517187 
z
" clip-path="url(#pfb236f6316)" style="fill: #add8e6; stroke: #add8e6; stroke-linejoin: miter"/>
   </g>
   <g id="patch_15">
    <path d="M 334.441619 359.517187 
L 334.441619 26.877187 
L 334.737021 26.877187 
L 334.737021 359.517187 
z
" clip-path="url(#pfb236f6316)" style="fill: #add8e6; stroke: #add8e6; stroke-linejoin: miter"/>
   </g>
   <g id="patch_16">
    <path d="M 370.956574 359.517187 
L 370.956574 26.877187 
L 344.799148 26.877187 
L 344.799148 359.517187 
z
" clip-path="url(#pfb236f6316)" style="fill: #add8e6; stroke: #add8e6; stroke-linejoin: miter"/>
   </g>
   <g id="patch_17">
    <path d="M 374.484985 359.517187 
L 374.484985 26.877187 
L 353.207844 26.877187 
L 353.207844 359.517187 
z
" clip-path="url(#pfb236f6316)" style="fill: #add8e6; stroke: #add8e6; stroke-linejoin: miter"/>
   </g>
   <g id="patch_18">
    <path d="M 381.695663 359.517187 
L 381.695663 26.877187 
L 366.933775 26.877187 
L 366.933775 359.517187 
z
" clip-path="url(#pfb236f6316)" style="fill: #add8e6; stroke: #add8e6; stroke-linejoin: miter"/>
   </g>
   <g id="patch_19">
    <path d="M 416.015618 359.517187 
L 416.015618 26.877187 
L 408.05823 26.877187 
L 408.05823 359.517187 
z
" clip-path="url(#pfb236f6316)" style="fill: #add8e6; stroke: #add8e6; stroke-linejoin: miter"/>
   </g>
   <g id="patch_20">
    <path d="M 439.873423 359.517187 
L 439.873423 26.877187 
L 426.088002 26.877187 
L 426.088002 359.517187 
z
" clip-path="url(#pfb236f6316)" style="fill: #add8e6; stroke: #add8e6; stroke-linejoin: miter"/>
   </g>
   <g id="patch_21">
    <path d="M 485.322233 359.517187 
L 485.322233 26.877187 
L 485.835084 26.877187 
L 485.835084 359.517187 
z
" clip-path="url(#pfb236f6316)" style="fill: #add8e6; stroke: #add8e6; stroke-linejoin: miter"/>
   </g>
   <g id="patch_22">
    <path d="M 489.855831 359.517187 
L 489.855831 26.877187 
L 463.565064 26.877187 
L 463.565064 359.517187 
z
" clip-path="url(#pfb236f6316)" style="fill: #add8e6; stroke: #add8e6; stroke-linejoin: miter"/>
   </g>
   <g id="patch_23">
    <path d="M 494.79971 359.517187 
L 494.79971 26.877187 
L 474.46006 26.877187 
L 474.46006 359.517187 
z
" clip-path="url(#pfb236f6316)" style="fill: #add8e6; stroke: #add8e6; stroke-linejoin: miter"/>
   </g>
   <g id="patch_24">
    <path d="M 502.625809 359.517187 
L 502.625809 26.877187 
L 487.227986 26.877187 
L 487.227986 359.517187 
z
" clip-path="url(#pfb236f6316)" style="fill: #add8e6; stroke: #add8e6; stroke-linejoin: miter"/>
   </g>
   <g id="patch_25">
    <path d="M 511.805832 359.517187 
L 511.805832 26.877187 
L 490.145079 26.877187 
L 490.145079 359.517187 
z
" clip-path="url(#pfb236f6316)" style="fill: #add8e6; stroke: #add8e6; stroke-linejoin: miter"/>
   </g>
   <g id="patch_26">
    <path d="M 520.072982 359.517187 
L 520.072982 26.877187 
L 512.804865 26.877187 
L 512.804865 359.517187 
z
" clip-path="url(#pfb236f6316)" style="fill: #add8e6; stroke: #add8e6; stroke-linejoin: miter"/>
   </g>
   <g id="patch_27">
    <path d="M 531.827515 359.517187 
L 531.827515 26.877187 
L 513.059239 26.877187 
L 513.059239 359.517187 
z
" clip-path="url(#pfb236f6316)" style="fill: #add8e6; stroke: #add8e6; stroke-linejoin: miter"/>
   </g>
   <g id="patch_28">
    <path d="M 540.894712 359.517187 
L 540.894712 26.877187 
L 537.479128 26.877187 
L 537.479128 359.517187 
z
" clip-path="url(#pfb236f6316)" style="fill: #add8e6; stroke: #add8e6; stroke-linejoin: miter"/>
   </g>
   <g id="patch_29">
    <path d="M 560.668176 359.517187 
L 560.668176 26.877187 
L 561.217951 26.877187 
L 561.217951 359.517187 
z
" clip-path="url(#pfb236f6316)" style="fill: #add8e6; stroke: #add8e6; stroke-linejoin: miter"/>
   </g>
   <g id="patch_30">
    <path d="M 618.335136 359.517187 
L 618.335136 26.877187 
L 593.285467 26.877187 
L 593.285467 359.517187 
z
" clip-path="url(#pfb236f6316)" style="fill: #add8e6; stroke: #add8e6; stroke-linejoin: miter"/>
   </g>
   <g id="patch_31">
    <path d="M 629.275263 359.517187 
L 629.275263 26.877187 
L 629.515277 26.877187 
L 629.515277 359.517187 
z
" clip-path="url(#pfb236f6316)" style="fill: #add8e6; stroke: #add8e6; stroke-linejoin: miter"/>
   </g>
   <g id="patch_32">
    <path d="M 633.706291 359.517187 
L 633.706291 26.877187 
L 633.831426 26.877187 
L 633.831426 359.517187 
z
" clip-path="url(#pfb236f6316)" style="fill: #add8e6; stroke: #add8e6; stroke-linejoin: miter"/>
   </g>
   <g id="patch_33">
    <path d="M 642.307819 359.517187 
L 642.307819 26.877187 
L 640.313857 26.877187 
L 640.313857 359.517187 
z
" clip-path="url(#pfb236f6316)" style="fill: #add8e6; stroke: #add8e6; stroke-linejoin: miter"/>
   </g>
   <g id="patch_34">
    <path d="M 663.211605 359.517187 
L 663.211605 26.877187 
L 645.163371 26.877187 
L 645.163371 359.517187 
z
" clip-path="url(#pfb236f6316)" style="fill: #add8e6; stroke: #add8e6; stroke-linejoin: miter"/>
   </g>
   <g id="patch_35">
    <path d="M 680.082335 359.517187 
L 680.082335 26.877187 
L 680.617751 26.877187 
L 680.617751 359.517187 
z
" clip-path="url(#pfb236f6316)" style="fill: #add8e6; stroke: #add8e6; stroke-linejoin: miter"/>
   </g>
   <g id="patch_36">
    <path d="M 681.030083 359.517187 
L 681.030083 26.877187 
L 681.387027 26.877187 
L 681.387027 359.517187 
z
" clip-path="url(#pfb236f6316)" style="fill: #add8e6; stroke: #add8e6; stroke-linejoin: miter"/>
   </g>
   <g id="patch_37">
    <path d="M 684.841587 359.517187 
L 684.841587 26.877187 
L 685.223148 26.877187 
L 685.223148 359.517187 
z
" clip-path="url(#pfb236f6316)" style="fill: #add8e6; stroke: #add8e6; stroke-linejoin: miter"/>
   </g>
   <g id="patch_38">
    <path d="M 737.952384 359.517187 
L 737.952384 26.877187 
L 713.409411 26.877187 
L 713.409411 359.517187 
z
" clip-path="url(#pfb236f6316)" style="fill: #add8e6; stroke: #add8e6; stroke-linejoin: miter"/>
   </g>
   <g id="patch_39">
    <path d="M 772.175923 359.517187 
L 772.175923 26.877187 
L 772.573895 26.877187 
L 772.573895 359.517187 
z
" clip-path="url(#pfb236f6316)" style="fill: #add8e6; stroke: #add8e6; stroke-linejoin: miter"/>
   </g>
   <g id="patch_40">
    <path d="M 772.854937 359.517187 
L 772.854937 26.877187 
L 773.306245 26.877187 
L 773.306245 359.517187 
z
" clip-path="url(#pfb236f6316)" style="fill: #add8e6; stroke: #add8e6; stroke-linejoin: miter"/>
   </g>
   <g id="patch_41">
    <path d="M 773.51754 359.517187 
L 773.51754 26.877187 
L 773.776016 26.877187 
L 773.776016 359.517187 
z
" clip-path="url(#pfb236f6316)" style="fill: #add8e6; stroke: #add8e6; stroke-linejoin: miter"/>
   </g>
   <g id="patch_42">
    <path d="M 825.721617 359.517187 
L 825.721617 26.877187 
L 800.282181 26.877187 
L 800.282181 359.517187 
z
" clip-path="url(#pfb236f6316)" style="fill: #add8e6; stroke: #add8e6; stroke-linejoin: miter"/>
   </g>
   <g id="patch_43">
    <path d="M 923.16321 359.517187 
L 923.16321 26.877187 
L 923.542719 26.877187 
L 923.542719 359.517187 
z
" clip-path="url(#pfb236f6316)" style="fill: #add8e6; stroke: #add8e6; stroke-linejoin: miter"/>
   </g>
   <g id="patch_44">
    <path d="M 924.117112 359.517187 
L 924.117112 26.877187 
L 924.110957 26.877187 
L 924.110957 359.517187 
z
" clip-path="url(#pfb236f6316)" style="fill: #add8e6; stroke: #add8e6; stroke-linejoin: miter"/>
   </g>
   <g id="patch_45">
    <path d="M 924.839205 359.517187 
L 924.839205 26.877187 
L 924.691504 26.877187 
L 924.691504 359.517187 
z
" clip-path="url(#pfb236f6316)" style="fill: #add8e6; stroke: #add8e6; stroke-linejoin: miter"/>
   </g>
   <g id="patch_46">
    <path d="M 978.893647 359.517187 
L 978.893647 26.877187 
L 979.427011 26.877187 
L 979.427011 359.517187 
z
" clip-path="url(#pfb236f6316)" style="fill: #add8e6; stroke: #add8e6; stroke-linejoin: miter"/>
   </g>
   <g id="patch_47">
    <path d="M 985.765843 359.517187 
L 985.765843 26.877187 
L 985.975086 26.877187 
L 985.975086 359.517187 
z
" clip-path="url(#pfb236f6316)" style="fill: #add8e6; stroke: #add8e6; stroke-linejoin: miter"/>
   </g>
   <g id="patch_48">
    <path d="M 986.709488 359.517187 
L 986.709488 26.877187 
L 986.926937 26.877187 
L 986.926937 359.517187 
z
" clip-path="url(#pfb236f6316)" style="fill: #add8e6; stroke: #add8e6; stroke-linejoin: miter"/>
   </g>
   <g id="patch_49">
    <path d="M 1025.329181 359.517187 
L 1025.329181 26.877187 
L 1025.757924 26.877187 
L 1025.757924 359.517187 
z
" clip-path="url(#pfb236f6316)" style="fill: #add8e6; stroke: #add8e6; stroke-linejoin: miter"/>
   </g>
   <g id="patch_50">
    <path d="M 1026.443093 359.517187 
L 1026.443093 26.877187 
L 1026.664644 26.877187 
L 1026.664644 359.517187 
z
" clip-path="url(#pfb236f6316)" style="fill: #add8e6; stroke: #add8e6; stroke-linejoin: miter"/>
   </g>
   <g id="patch_51">
    <path d="M 1049.619832 359.517187 
L 1049.619832 26.877187 
L 1049.474182 26.877187 
L 1049.474182 359.517187 
z
" clip-path="url(#pfb236f6316)" style="fill: #add8e6; stroke: #add8e6; stroke-linejoin: miter"/>
   </g>
   <g id="patch_52">
    <path d="M 1051.125561 359.517187 
L 1051.125561 26.877187 
L 1050.302949 26.877187 
L 1050.302949 359.517187 
z
" clip-path="url(#pfb236f6316)" style="fill: #add8e6; stroke: #add8e6; stroke-linejoin: miter"/>
   </g>
   <g id="patch_53">
    <path d="M 1052.342042 359.517187 
L 1052.342042 26.877187 
L 1052.577954 26.877187 
L 1052.577954 359.517187 
z
" clip-path="url(#pfb236f6316)" style="fill: #add8e6; stroke: #add8e6; stroke-linejoin: miter"/>
   </g>
   <g id="patch_54">
    <path d="M 1064.857646 359.517187 
L 1064.857646 26.877187 
L 1065.432038 26.877187 
L 1065.432038 359.517187 
z
" clip-path="url(#pfb236f6316)" style="fill: #add8e6; stroke: #add8e6; stroke-linejoin: miter"/>
   </g>
   <g id="patch_55">
    <path d="M 1079.761081 359.517187 
L 1079.761081 26.877187 
L 1080.323165 26.877187 
L 1080.323165 359.517187 
z
" clip-path="url(#pfb236f6316)" style="fill: #add8e6; stroke: #add8e6; stroke-linejoin: miter"/>
   </g>
   <g id="patch_56">
    <path d="M 1114.507727 359.517187 
L 1114.507727 26.877187 
L 1105.27847 26.877187 
L 1105.27847 359.517187 
z
" clip-path="url(#pfb236f6316)" style="fill: #add8e6; stroke: #add8e6; stroke-linejoin: miter"/>
   </g>
   <g id="patch_57">
    <path d="M 173.812743 359.517187 
L 173.812743 26.877187 
L 616.915566 26.877187 
L 616.915566 359.517187 
z
" clip-path="url(#pfb236f6316)" style="fill: #808080; opacity: 0.4; stroke: #808080; stroke-linejoin: miter"/>
   </g>
   <g id="patch_58">
    <path d="M 629.223978 26.877187 
L 629.223978 26.877187 
L 629.223978 359.517187 
" clip-path="url(#pfb236f6316)" style="fill: #808080; opacity: 0.4; stroke: #808080; stroke-linejoin: miter"/>
   </g>
   <g id="patch_59">
    <path d="M 641.532389 26.877187 
L 641.532389 26.877187 
L 641.532389 359.517187 
" clip-path="url(#pfb236f6316)" style="fill: #808080; opacity: 0.4; stroke: #808080; stroke-linejoin: miter"/>
   </g>
   <g id="patch_60">
    <path d="M 1060.018388 359.517187 
L 1060.018388 26.877187 
L 1105.056918 26.877187 
L 1105.056918 359.517187 
z
" clip-path="url(#pfb236f6316)" style="fill: #808080; opacity: 0.4; stroke: #808080; stroke-linejoin: miter"/>
   </g>
   <g id="matplotlib.axis_1">
    <g id="xtick_1">
     <g id="line2d_1">
      <defs>
       <path id="m62fa10fecf" d="M 0 0 
L 0 3.5 
" style="stroke: #000000; stroke-width: 0.8"/>
      </defs>
      <g>
       <use xlink:href="#m62fa10fecf" x="132.07697" y="359.517187" style="stroke: #000000; stroke-width: 0.8"/>
      </g>
     </g>
     <g id="text_1">
      <!-- 10-01 18 -->
      <g transform="translate(109.596502 374.115625) scale(0.1 -0.1)">
       <defs>
        <path id="DejaVuSans-31" d="M 794 531 
L 1825 531 
L 1825 4091 
L 703 3866 
L 703 4441 
L 1819 4666 
L 2450 4666 
L 2450 531 
L 3481 531 
L 3481 0 
L 794 0 
L 794 531 
z
" transform="scale(0.015625)"/>
        <path id="DejaVuSans-30" d="M 2034 4250 
Q 1547 4250 1301 3770 
Q 1056 3291 1056 2328 
Q 1056 1369 1301 889 
Q 1547 409 2034 409 
Q 2525 409 2770 889 
Q 3016 1369 3016 2328 
Q 3016 3291 2770 3770 
Q 2525 4250 2034 4250 
z
M 2034 4750 
Q 2819 4750 3233 4129 
Q 3647 3509 3647 2328 
Q 3647 1150 3233 529 
Q 2819 -91 2034 -91 
Q 1250 -91 836 529 
Q 422 1150 422 2328 
Q 422 3509 836 4129 
Q 1250 4750 2034 4750 
z
" transform="scale(0.015625)"/>
        <path id="DejaVuSans-2d" d="M 313 2009 
L 1997 2009 
L 1997 1497 
L 313 1497 
L 313 2009 
z
" transform="scale(0.015625)"/>
        <path id="DejaVuSans-20" transform="scale(0.015625)"/>
        <path id="DejaVuSans-38" d="M 2034 2216 
Q 1584 2216 1326 1975 
Q 1069 1734 1069 1313 
Q 1069 891 1326 650 
Q 1584 409 2034 409 
Q 2484 409 2743 651 
Q 3003 894 3003 1313 
Q 3003 1734 2745 1975 
Q 2488 2216 2034 2216 
z
M 1403 2484 
Q 997 2584 770 2862 
Q 544 3141 544 3541 
Q 544 4100 942 4425 
Q 1341 4750 2034 4750 
Q 2731 4750 3128 4425 
Q 3525 4100 3525 3541 
Q 3525 3141 3298 2862 
Q 3072 2584 2669 2484 
Q 3125 2378 3379 2068 
Q 3634 1759 3634 1313 
Q 3634 634 3220 271 
Q 2806 -91 2034 -91 
Q 1263 -91 848 271 
Q 434 634 434 1313 
Q 434 1759 690 2068 
Q 947 2378 1403 2484 
z
M 1172 3481 
Q 1172 3119 1398 2916 
Q 1625 2713 2034 2713 
Q 2441 2713 2670 2916 
Q 2900 3119 2900 3481 
Q 2900 3844 2670 4047 
Q 2441 4250 2034 4250 
Q 1625 4250 1398 4047 
Q 1172 3844 1172 3481 
z
" transform="scale(0.015625)"/>
       </defs>
       <use xlink:href="#DejaVuSans-31"/>
       <use xlink:href="#DejaVuSans-30" x="63.623047"/>
       <use xlink:href="#DejaVuSans-2d" x="127.246094"/>
       <use xlink:href="#DejaVuSans-30" x="163.330078"/>
       <use xlink:href="#DejaVuSans-31" x="226.953125"/>
       <use xlink:href="#DejaVuSans-20" x="290.576172"/>
       <use xlink:href="#DejaVuSans-31" x="322.363281"/>
       <use xlink:href="#DejaVuSans-38" x="385.986328"/>
      </g>
     </g>
    </g>
    <g id="xtick_2">
     <g id="line2d_2">
      <g>
       <use xlink:href="#m62fa10fecf" x="242.852676" y="359.517187" style="stroke: #000000; stroke-width: 0.8"/>
      </g>
     </g>
     <g id="text_2">
      <!-- 10-01 21 -->
      <g transform="translate(220.372207 374.115625) scale(0.1 -0.1)">
       <defs>
        <path id="DejaVuSans-32" d="M 1228 531 
L 3431 531 
L 3431 0 
L 469 0 
L 469 531 
Q 828 903 1448 1529 
Q 2069 2156 2228 2338 
Q 2531 2678 2651 2914 
Q 2772 3150 2772 3378 
Q 2772 3750 2511 3984 
Q 2250 4219 1831 4219 
Q 1534 4219 1204 4116 
Q 875 4013 500 3803 
L 500 4441 
Q 881 4594 1212 4672 
Q 1544 4750 1819 4750 
Q 2544 4750 2975 4387 
Q 3406 4025 3406 3419 
Q 3406 3131 3298 2873 
Q 3191 2616 2906 2266 
Q 2828 2175 2409 1742 
Q 1991 1309 1228 531 
z
" transform="scale(0.015625)"/>
       </defs>
       <use xlink:href="#DejaVuSans-31"/>
       <use xlink:href="#DejaVuSans-30" x="63.623047"/>
       <use xlink:href="#DejaVuSans-2d" x="127.246094"/>
       <use xlink:href="#DejaVuSans-30" x="163.330078"/>
       <use xlink:href="#DejaVuSans-31" x="226.953125"/>
       <use xlink:href="#DejaVuSans-20" x="290.576172"/>
       <use xlink:href="#DejaVuSans-32" x="322.363281"/>
       <use xlink:href="#DejaVuSans-31" x="385.986328"/>
      </g>
     </g>
    </g>
    <g id="xtick_3">
     <g id="line2d_3">
      <g>
       <use xlink:href="#m62fa10fecf" x="353.628382" y="359.517187" style="stroke: #000000; stroke-width: 0.8"/>
      </g>
     </g>
     <g id="text_3">
      <!-- 10-02 00 -->
      <g transform="translate(331.147913 374.115625) scale(0.1 -0.1)">
       <use xlink:href="#DejaVuSans-31"/>
       <use xlink:href="#DejaVuSans-30" x="63.623047"/>
       <use xlink:href="#DejaVuSans-2d" x="127.246094"/>
       <use xlink:href="#DejaVuSans-30" x="163.330078"/>
       <use xlink:href="#DejaVuSans-32" x="226.953125"/>
       <use xlink:href="#DejaVuSans-20" x="290.576172"/>
       <use xlink:href="#DejaVuSans-30" x="322.363281"/>
       <use xlink:href="#DejaVuSans-30" x="385.986328"/>
      </g>
     </g>
    </g>
    <g id="xtick_4">
     <g id="line2d_4">
      <g>
       <use xlink:href="#m62fa10fecf" x="464.404087" y="359.517187" style="stroke: #000000; stroke-width: 0.8"/>
      </g>
     </g>
     <g id="text_4">
      <!-- 10-02 03 -->
      <g transform="translate(441.923619 374.115625) scale(0.1 -0.1)">
       <defs>
        <path id="DejaVuSans-33" d="M 2597 2516 
Q 3050 2419 3304 2112 
Q 3559 1806 3559 1356 
Q 3559 666 3084 287 
Q 2609 -91 1734 -91 
Q 1441 -91 1130 -33 
Q 819 25 488 141 
L 488 750 
Q 750 597 1062 519 
Q 1375 441 1716 441 
Q 2309 441 2620 675 
Q 2931 909 2931 1356 
Q 2931 1769 2642 2001 
Q 2353 2234 1838 2234 
L 1294 2234 
L 1294 2753 
L 1863 2753 
Q 2328 2753 2575 2939 
Q 2822 3125 2822 3475 
Q 2822 3834 2567 4026 
Q 2313 4219 1838 4219 
Q 1578 4219 1281 4162 
Q 984 4106 628 3988 
L 628 4550 
Q 988 4650 1302 4700 
Q 1616 4750 1894 4750 
Q 2613 4750 3031 4423 
Q 3450 4097 3450 3541 
Q 3450 3153 3228 2886 
Q 3006 2619 2597 2516 
z
" transform="scale(0.015625)"/>
       </defs>
       <use xlink:href="#DejaVuSans-31"/>
       <use xlink:href="#DejaVuSans-30" x="63.623047"/>
       <use xlink:href="#DejaVuSans-2d" x="127.246094"/>
       <use xlink:href="#DejaVuSans-30" x="163.330078"/>
       <use xlink:href="#DejaVuSans-32" x="226.953125"/>
       <use xlink:href="#DejaVuSans-20" x="290.576172"/>
       <use xlink:href="#DejaVuSans-30" x="322.363281"/>
       <use xlink:href="#DejaVuSans-33" x="385.986328"/>
      </g>
     </g>
    </g>
    <g id="xtick_5">
     <g id="line2d_5">
      <g>
       <use xlink:href="#m62fa10fecf" x="575.179793" y="359.517187" style="stroke: #000000; stroke-width: 0.8"/>
      </g>
     </g>
     <g id="text_5">
      <!-- 10-02 06 -->
      <g transform="translate(552.699324 374.115625) scale(0.1 -0.1)">
       <defs>
        <path id="DejaVuSans-36" d="M 2113 2584 
Q 1688 2584 1439 2293 
Q 1191 2003 1191 1497 
Q 1191 994 1439 701 
Q 1688 409 2113 409 
Q 2538 409 2786 701 
Q 3034 994 3034 1497 
Q 3034 2003 2786 2293 
Q 2538 2584 2113 2584 
z
M 3366 4563 
L 3366 3988 
Q 3128 4100 2886 4159 
Q 2644 4219 2406 4219 
Q 1781 4219 1451 3797 
Q 1122 3375 1075 2522 
Q 1259 2794 1537 2939 
Q 1816 3084 2150 3084 
Q 2853 3084 3261 2657 
Q 3669 2231 3669 1497 
Q 3669 778 3244 343 
Q 2819 -91 2113 -91 
Q 1303 -91 875 529 
Q 447 1150 447 2328 
Q 447 3434 972 4092 
Q 1497 4750 2381 4750 
Q 2619 4750 2861 4703 
Q 3103 4656 3366 4563 
z
" transform="scale(0.015625)"/>
       </defs>
       <use xlink:href="#DejaVuSans-31"/>
       <use xlink:href="#DejaVuSans-30" x="63.623047"/>
       <use xlink:href="#DejaVuSans-2d" x="127.246094"/>
       <use xlink:href="#DejaVuSans-30" x="163.330078"/>
       <use xlink:href="#DejaVuSans-32" x="226.953125"/>
       <use xlink:href="#DejaVuSans-20" x="290.576172"/>
       <use xlink:href="#DejaVuSans-30" x="322.363281"/>
       <use xlink:href="#DejaVuSans-36" x="385.986328"/>
      </g>
     </g>
    </g>
    <g id="xtick_6">
     <g id="line2d_6">
      <g>
       <use xlink:href="#m62fa10fecf" x="685.955499" y="359.517187" style="stroke: #000000; stroke-width: 0.8"/>
      </g>
     </g>
     <g id="text_6">
      <!-- 10-02 09 -->
      <g transform="translate(663.47503 374.115625) scale(0.1 -0.1)">
       <defs>
        <path id="DejaVuSans-39" d="M 703 97 
L 703 672 
Q 941 559 1184 500 
Q 1428 441 1663 441 
Q 2288 441 2617 861 
Q 2947 1281 2994 2138 
Q 2813 1869 2534 1725 
Q 2256 1581 1919 1581 
Q 1219 1581 811 2004 
Q 403 2428 403 3163 
Q 403 3881 828 4315 
Q 1253 4750 1959 4750 
Q 2769 4750 3195 4129 
Q 3622 3509 3622 2328 
Q 3622 1225 3098 567 
Q 2575 -91 1691 -91 
Q 1453 -91 1209 -44 
Q 966 3 703 97 
z
M 1959 2075 
Q 2384 2075 2632 2365 
Q 2881 2656 2881 3163 
Q 2881 3666 2632 3958 
Q 2384 4250 1959 4250 
Q 1534 4250 1286 3958 
Q 1038 3666 1038 3163 
Q 1038 2656 1286 2365 
Q 1534 2075 1959 2075 
z
" transform="scale(0.015625)"/>
       </defs>
       <use xlink:href="#DejaVuSans-31"/>
       <use xlink:href="#DejaVuSans-30" x="63.623047"/>
       <use xlink:href="#DejaVuSans-2d" x="127.246094"/>
       <use xlink:href="#DejaVuSans-30" x="163.330078"/>
       <use xlink:href="#DejaVuSans-32" x="226.953125"/>
       <use xlink:href="#DejaVuSans-20" x="290.576172"/>
       <use xlink:href="#DejaVuSans-30" x="322.363281"/>
       <use xlink:href="#DejaVuSans-39" x="385.986328"/>
      </g>
     </g>
    </g>
    <g id="xtick_7">
     <g id="line2d_7">
      <g>
       <use xlink:href="#m62fa10fecf" x="796.731204" y="359.517187" style="stroke: #000000; stroke-width: 0.8"/>
      </g>
     </g>
     <g id="text_7">
      <!-- 10-02 12 -->
      <g transform="translate(774.250736 374.115625) scale(0.1 -0.1)">
       <use xlink:href="#DejaVuSans-31"/>
       <use xlink:href="#DejaVuSans-30" x="63.623047"/>
       <use xlink:href="#DejaVuSans-2d" x="127.246094"/>
       <use xlink:href="#DejaVuSans-30" x="163.330078"/>
       <use xlink:href="#DejaVuSans-32" x="226.953125"/>
       <use xlink:href="#DejaVuSans-20" x="290.576172"/>
       <use xlink:href="#DejaVuSans-31" x="322.363281"/>
       <use xlink:href="#DejaVuSans-32" x="385.986328"/>
      </g>
     </g>
    </g>
    <g id="xtick_8">
     <g id="line2d_8">
      <g>
       <use xlink:href="#m62fa10fecf" x="907.50691" y="359.517187" style="stroke: #000000; stroke-width: 0.8"/>
      </g>
     </g>
     <g id="text_8">
      <!-- 10-02 15 -->
      <g transform="translate(885.026441 374.115625) scale(0.1 -0.1)">
       <defs>
        <path id="DejaVuSans-35" d="M 691 4666 
L 3169 4666 
L 3169 4134 
L 1269 4134 
L 1269 2991 
Q 1406 3038 1543 3061 
Q 1681 3084 1819 3084 
Q 2600 3084 3056 2656 
Q 3513 2228 3513 1497 
Q 3513 744 3044 326 
Q 2575 -91 1722 -91 
Q 1428 -91 1123 -41 
Q 819 9 494 109 
L 494 744 
Q 775 591 1075 516 
Q 1375 441 1709 441 
Q 2250 441 2565 725 
Q 2881 1009 2881 1497 
Q 2881 1984 2565 2268 
Q 2250 2553 1709 2553 
Q 1456 2553 1204 2497 
Q 953 2441 691 2322 
L 691 4666 
z
" transform="scale(0.015625)"/>
       </defs>
       <use xlink:href="#DejaVuSans-31"/>
       <use xlink:href="#DejaVuSans-30" x="63.623047"/>
       <use xlink:href="#DejaVuSans-2d" x="127.246094"/>
       <use xlink:href="#DejaVuSans-30" x="163.330078"/>
       <use xlink:href="#DejaVuSans-32" x="226.953125"/>
       <use xlink:href="#DejaVuSans-20" x="290.576172"/>
       <use xlink:href="#DejaVuSans-31" x="322.363281"/>
       <use xlink:href="#DejaVuSans-35" x="385.986328"/>
      </g>
     </g>
    </g>
    <g id="xtick_9">
     <g id="line2d_9">
      <g>
       <use xlink:href="#m62fa10fecf" x="1018.282616" y="359.517187" style="stroke: #000000; stroke-width: 0.8"/>
      </g>
     </g>
     <g id="text_9">
      <!-- 10-02 18 -->
      <g transform="translate(995.802147 374.115625) scale(0.1 -0.1)">
       <use xlink:href="#DejaVuSans-31"/>
       <use xlink:href="#DejaVuSans-30" x="63.623047"/>
       <use xlink:href="#DejaVuSans-2d" x="127.246094"/>
       <use xlink:href="#DejaVuSans-30" x="163.330078"/>
       <use xlink:href="#DejaVuSans-32" x="226.953125"/>
       <use xlink:href="#DejaVuSans-20" x="290.576172"/>
       <use xlink:href="#DejaVuSans-31" x="322.363281"/>
       <use xlink:href="#DejaVuSans-38" x="385.986328"/>
      </g>
     </g>
    </g>
    <g id="xtick_10">
     <g id="line2d_10">
      <g>
       <use xlink:href="#m62fa10fecf" x="1129.058321" y="359.517187" style="stroke: #000000; stroke-width: 0.8"/>
      </g>
     </g>
     <g id="text_10">
      <!-- 10-02 21 -->
      <g transform="translate(1106.577853 374.115625) scale(0.1 -0.1)">
       <use xlink:href="#DejaVuSans-31"/>
       <use xlink:href="#DejaVuSans-30" x="63.623047"/>
       <use xlink:href="#DejaVuSans-2d" x="127.246094"/>
       <use xlink:href="#DejaVuSans-30" x="163.330078"/>
       <use xlink:href="#DejaVuSans-32" x="226.953125"/>
       <use xlink:href="#DejaVuSans-20" x="290.576172"/>
       <use xlink:href="#DejaVuSans-32" x="322.363281"/>
       <use xlink:href="#DejaVuSans-31" x="385.986328"/>
      </g>
     </g>
    </g>
    <g id="text_11">
     <!-- Time -->
     <g transform="translate(592.554688 389.313437) scale(0.12 -0.12)">
      <defs>
       <path id="DejaVuSans-54" d="M -19 4666 
L 3928 4666 
L 3928 4134 
L 2272 4134 
L 2272 0 
L 1638 0 
L 1638 4134 
L -19 4134 
L -19 4666 
z
" transform="scale(0.015625)"/>
       <path id="DejaVuSans-69" d="M 603 3500 
L 1178 3500 
L 1178 0 
L 603 0 
L 603 3500 
z
M 603 4863 
L 1178 4863 
L 1178 4134 
L 603 4134 
L 603 4863 
z
" transform="scale(0.015625)"/>
       <path id="DejaVuSans-6d" d="M 3328 2828 
Q 3544 3216 3844 3400 
Q 4144 3584 4550 3584 
Q 5097 3584 5394 3201 
Q 5691 2819 5691 2113 
L 5691 0 
L 5113 0 
L 5113 2094 
Q 5113 2597 4934 2840 
Q 4756 3084 4391 3084 
Q 3944 3084 3684 2787 
Q 3425 2491 3425 1978 
L 3425 0 
L 2847 0 
L 2847 2094 
Q 2847 2600 2669 2842 
Q 2491 3084 2119 3084 
Q 1678 3084 1418 2786 
Q 1159 2488 1159 1978 
L 1159 0 
L 581 0 
L 581 3500 
L 1159 3500 
L 1159 2956 
Q 1356 3278 1631 3431 
Q 1906 3584 2284 3584 
Q 2666 3584 2933 3390 
Q 3200 3197 3328 2828 
z
" transform="scale(0.015625)"/>
       <path id="DejaVuSans-65" d="M 3597 1894 
L 3597 1613 
L 953 1613 
Q 991 1019 1311 708 
Q 1631 397 2203 397 
Q 2534 397 2845 478 
Q 3156 559 3463 722 
L 3463 178 
Q 3153 47 2828 -22 
Q 2503 -91 2169 -91 
Q 1331 -91 842 396 
Q 353 884 353 1716 
Q 353 2575 817 3079 
Q 1281 3584 2069 3584 
Q 2775 3584 3186 3129 
Q 3597 2675 3597 1894 
z
M 3022 2063 
Q 3016 2534 2758 2815 
Q 2500 3097 2075 3097 
Q 1594 3097 1305 2825 
Q 1016 2553 972 2059 
L 3022 2063 
z
" transform="scale(0.015625)"/>
      </defs>
      <use xlink:href="#DejaVuSans-54"/>
      <use xlink:href="#DejaVuSans-69" x="57.958984"/>
      <use xlink:href="#DejaVuSans-6d" x="85.742188"/>
      <use xlink:href="#DejaVuSans-65" x="183.154297"/>
     </g>
    </g>
   </g>
   <g id="matplotlib.axis_2">
    <g id="ytick_1">
     <g id="line2d_11">
      <defs>
       <path id="m53a9542f5b" d="M 0 0 
L -3.5 0 
" style="stroke: #000000; stroke-width: 0.8"/>
      </defs>
      <g>
       <use xlink:href="#m53a9542f5b" x="49.235" y="344.397187" style="stroke: #000000; stroke-width: 0.8"/>
      </g>
     </g>
     <g id="text_12">
      <!-- 0 -->
      <g transform="translate(35.8725 348.196406) scale(0.1 -0.1)">
       <use xlink:href="#DejaVuSans-30"/>
      </g>
     </g>
    </g>
    <g id="ytick_2">
     <g id="line2d_12">
      <g>
       <use xlink:href="#m53a9542f5b" x="49.235" y="292.438425" style="stroke: #000000; stroke-width: 0.8"/>
      </g>
     </g>
     <g id="text_13">
      <!-- 50 -->
      <g transform="translate(29.51 296.237643) scale(0.1 -0.1)">
       <use xlink:href="#DejaVuSans-35"/>
       <use xlink:href="#DejaVuSans-30" x="63.623047"/>
      </g>
     </g>
    </g>
    <g id="ytick_3">
     <g id="line2d_13">
      <g>
       <use xlink:href="#m53a9542f5b" x="49.235" y="240.479662" style="stroke: #000000; stroke-width: 0.8"/>
      </g>
     </g>
     <g id="text_14">
      <!-- 100 -->
      <g transform="translate(23.1475 244.27888) scale(0.1 -0.1)">
       <use xlink:href="#DejaVuSans-31"/>
       <use xlink:href="#DejaVuSans-30" x="63.623047"/>
       <use xlink:href="#DejaVuSans-30" x="127.246094"/>
      </g>
     </g>
    </g>
    <g id="ytick_4">
     <g id="line2d_14">
      <g>
       <use xlink:href="#m53a9542f5b" x="49.235" y="188.520899" style="stroke: #000000; stroke-width: 0.8"/>
      </g>
     </g>
     <g id="text_15">
      <!-- 150 -->
      <g transform="translate(23.1475 192.320118) scale(0.1 -0.1)">
       <use xlink:href="#DejaVuSans-31"/>
       <use xlink:href="#DejaVuSans-35" x="63.623047"/>
       <use xlink:href="#DejaVuSans-30" x="127.246094"/>
      </g>
     </g>
    </g>
    <g id="ytick_5">
     <g id="line2d_15">
      <g>
       <use xlink:href="#m53a9542f5b" x="49.235" y="136.562136" style="stroke: #000000; stroke-width: 0.8"/>
      </g>
     </g>
     <g id="text_16">
      <!-- 200 -->
      <g transform="translate(23.1475 140.361355) scale(0.1 -0.1)">
       <use xlink:href="#DejaVuSans-32"/>
       <use xlink:href="#DejaVuSans-30" x="63.623047"/>
       <use xlink:href="#DejaVuSans-30" x="127.246094"/>
      </g>
     </g>
    </g>
    <g id="ytick_6">
     <g id="line2d_16">
      <g>
       <use xlink:href="#m53a9542f5b" x="49.235" y="84.603373" style="stroke: #000000; stroke-width: 0.8"/>
      </g>
     </g>
     <g id="text_17">
      <!-- 250 -->
      <g transform="translate(23.1475 88.402592) scale(0.1 -0.1)">
       <use xlink:href="#DejaVuSans-32"/>
       <use xlink:href="#DejaVuSans-35" x="63.623047"/>
       <use xlink:href="#DejaVuSans-30" x="127.246094"/>
      </g>
     </g>
    </g>
    <g id="ytick_7">
     <g id="line2d_17">
      <g>
       <use xlink:href="#m53a9542f5b" x="49.235" y="32.64461" style="stroke: #000000; stroke-width: 0.8"/>
      </g>
     </g>
     <g id="text_18">
      <!-- 300 -->
      <g transform="translate(23.1475 36.443829) scale(0.1 -0.1)">
       <use xlink:href="#DejaVuSans-33"/>
       <use xlink:href="#DejaVuSans-30" x="63.623047"/>
       <use xlink:href="#DejaVuSans-30" x="127.246094"/>
      </g>
     </g>
    </g>
    <g id="text_19">
     <!-- Pellet_Count -->
     <g transform="translate(16.318125 230.485312) rotate(-90) scale(0.12 -0.12)">
      <defs>
       <path id="DejaVuSans-50" d="M 1259 4147 
L 1259 2394 
L 2053 2394 
Q 2494 2394 2734 2622 
Q 2975 2850 2975 3272 
Q 2975 3691 2734 3919 
Q 2494 4147 2053 4147 
L 1259 4147 
z
M 628 4666 
L 2053 4666 
Q 2838 4666 3239 4311 
Q 3641 3956 3641 3272 
Q 3641 2581 3239 2228 
Q 2838 1875 2053 1875 
L 1259 1875 
L 1259 0 
L 628 0 
L 628 4666 
z
" transform="scale(0.015625)"/>
       <path id="DejaVuSans-6c" d="M 603 4863 
L 1178 4863 
L 1178 0 
L 603 0 
L 603 4863 
z
" transform="scale(0.015625)"/>
       <path id="DejaVuSans-74" d="M 1172 4494 
L 1172 3500 
L 2356 3500 
L 2356 3053 
L 1172 3053 
L 1172 1153 
Q 1172 725 1289 603 
Q 1406 481 1766 481 
L 2356 481 
L 2356 0 
L 1766 0 
Q 1100 0 847 248 
Q 594 497 594 1153 
L 594 3053 
L 172 3053 
L 172 3500 
L 594 3500 
L 594 4494 
L 1172 4494 
z
" transform="scale(0.015625)"/>
       <path id="DejaVuSans-5f" d="M 3263 -1063 
L 3263 -1509 
L -63 -1509 
L -63 -1063 
L 3263 -1063 
z
" transform="scale(0.015625)"/>
       <path id="DejaVuSans-43" d="M 4122 4306 
L 4122 3641 
Q 3803 3938 3442 4084 
Q 3081 4231 2675 4231 
Q 1875 4231 1450 3742 
Q 1025 3253 1025 2328 
Q 1025 1406 1450 917 
Q 1875 428 2675 428 
Q 3081 428 3442 575 
Q 3803 722 4122 1019 
L 4122 359 
Q 3791 134 3420 21 
Q 3050 -91 2638 -91 
Q 1578 -91 968 557 
Q 359 1206 359 2328 
Q 359 3453 968 4101 
Q 1578 4750 2638 4750 
Q 3056 4750 3426 4639 
Q 3797 4528 4122 4306 
z
" transform="scale(0.015625)"/>
       <path id="DejaVuSans-6f" d="M 1959 3097 
Q 1497 3097 1228 2736 
Q 959 2375 959 1747 
Q 959 1119 1226 758 
Q 1494 397 1959 397 
Q 2419 397 2687 759 
Q 2956 1122 2956 1747 
Q 2956 2369 2687 2733 
Q 2419 3097 1959 3097 
z
M 1959 3584 
Q 2709 3584 3137 3096 
Q 3566 2609 3566 1747 
Q 3566 888 3137 398 
Q 2709 -91 1959 -91 
Q 1206 -91 779 398 
Q 353 888 353 1747 
Q 353 2609 779 3096 
Q 1206 3584 1959 3584 
z
" transform="scale(0.015625)"/>
       <path id="DejaVuSans-75" d="M 544 1381 
L 544 3500 
L 1119 3500 
L 1119 1403 
Q 1119 906 1312 657 
Q 1506 409 1894 409 
Q 2359 409 2629 706 
Q 2900 1003 2900 1516 
L 2900 3500 
L 3475 3500 
L 3475 0 
L 2900 0 
L 2900 538 
Q 2691 219 2414 64 
Q 2138 -91 1772 -91 
Q 1169 -91 856 284 
Q 544 659 544 1381 
z
M 1991 3584 
L 1991 3584 
z
" transform="scale(0.015625)"/>
       <path id="DejaVuSans-6e" d="M 3513 2113 
L 3513 0 
L 2938 0 
L 2938 2094 
Q 2938 2591 2744 2837 
Q 2550 3084 2163 3084 
Q 1697 3084 1428 2787 
Q 1159 2491 1159 1978 
L 1159 0 
L 581 0 
L 581 3500 
L 1159 3500 
L 1159 2956 
Q 1366 3272 1645 3428 
Q 1925 3584 2291 3584 
Q 2894 3584 3203 3211 
Q 3513 2838 3513 2113 
z
" transform="scale(0.015625)"/>
      </defs>
      <use xlink:href="#DejaVuSans-50"/>
      <use xlink:href="#DejaVuSans-65" x="56.677734"/>
      <use xlink:href="#DejaVuSans-6c" x="118.201172"/>
      <use xlink:href="#DejaVuSans-6c" x="145.984375"/>
      <use xlink:href="#DejaVuSans-65" x="173.767578"/>
      <use xlink:href="#DejaVuSans-74" x="235.291016"/>
      <use xlink:href="#DejaVuSans-5f" x="274.5"/>
      <use xlink:href="#DejaVuSans-43" x="324.5"/>
      <use xlink:href="#DejaVuSans-6f" x="394.324219"/>
      <use xlink:href="#DejaVuSans-75" x="455.505859"/>
      <use xlink:href="#DejaVuSans-6e" x="518.884766"/>
      <use xlink:href="#DejaVuSans-74" x="582.263672"/>
     </g>
    </g>
   </g>
   <g id="line2d_18">
    <path d="M 99.962273 344.397187 
L 122.363582 344.397187 
L 134.436083 343.358012 
L 136.94905 343.358012 
L 137.328559 342.318837 
L 171.52543 342.318837 
L 171.566458 341.279662 
L 172.03828 341.279662 
L 172.099823 340.240486 
L 174.499963 340.240486 
L 174.561505 339.201311 
L 175.238468 339.201311 
L 175.258982 338.162136 
L 176.274426 338.162136 
L 176.387253 337.122961 
L 181.874753 337.122961 
L 181.895267 336.083785 
L 185.249309 336.083785 
L 185.321108 335.04461 
L 187.762276 335.04461 
L 187.813562 334.005435 
L 188.716178 334.005435 
L 188.736692 332.96626 
L 188.993118 332.96626 
L 189.013632 331.927084 
L 192.839496 331.927084 
L 192.870267 330.887909 
L 193.157464 330.887909 
L 193.177978 329.848734 
L 193.424146 329.848734 
L 193.44466 328.809559 
L 193.629286 328.809559 
L 193.639543 327.770383 
L 195.065267 327.770383 
L 195.075524 326.731208 
L 199.188585 326.731208 
L 199.209099 325.692033 
L 199.352698 325.692033 
L 199.373212 324.652858 
L 200.080945 324.652858 
L 200.091202 323.613682 
L 200.296342 323.613682 
L 200.306599 322.574507 
L 200.450198 322.574507 
L 200.501483 321.535332 
L 200.61431 321.535332 
L 200.634824 320.496157 
L 200.788679 320.496157 
L 200.798936 319.456981 
L 200.911763 319.456981 
L 200.932277 318.417806 
L 201.516927 318.417806 
L 201.527184 317.378631 
L 208.789147 317.378631 
L 208.809661 316.339456 
L 211.394427 316.339456 
L 211.425198 315.30028 
L 213.06632 315.30028 
L 213.086834 314.261105 
L 213.240689 314.261105 
L 213.240689 314.261105 
L 213.302231 313.22193 
L 213.425315 313.22193 
L 213.548399 312.182755 
L 213.57917 311.143579 
L 214.286904 311.143579 
L 214.297161 310.104404 
L 214.461273 310.104404 
L 214.481787 309.065229 
L 221.866834 309.065229 
L 223.169474 308.026053 
L 227.272278 308.026053 
L 227.292792 306.986878 
L 231.405853 306.986878 
L 231.734077 305.947703 
L 235.477886 305.947703 
L 235.488143 304.908528 
L 235.877909 304.908528 
L 235.918937 303.869352 
L 243.827092 303.869352 
L 243.847606 302.830177 
L 244.07326 302.830177 
L 244.114288 301.791002 
L 255.520083 301.791002 
L 255.540597 300.751827 
L 255.745737 300.751827 
L 255.766251 299.712651 
L 255.961135 299.712651 
L 255.981649 298.673476 
L 256.11499 298.673476 
L 256.135504 297.634301 
L 256.289359 297.634301 
L 256.309873 296.595126 
L 256.473985 296.595126 
L 256.484242 295.55595 
L 259.848541 295.55595 
L 259.858798 294.516775 
L 262.535878 294.516775 
L 262.566649 293.4776 
L 262.935901 293.4776 
L 264.38214 292.438425 
L 268.249032 292.438425 
L 268.259289 291.399249 
L 269.551672 291.399249 
L 269.56193 290.360074 
L 270.638916 290.360074 
L 270.65943 289.320899 
L 270.833799 289.320899 
L 270.86457 288.281724 
L 271.018425 288.281724 
L 271.038939 287.242548 
L 271.182537 287.242548 
L 271.192794 286.203373 
L 272.833916 286.203373 
L 272.874944 285.164198 
L 274.926346 285.164198 
L 275.018659 284.125023 
L 275.798191 283.085847 
L 279.100949 283.085847 
L 279.121463 282.046672 
L 281.419033 282.046672 
L 281.439547 281.007497 
L 283.685832 281.007497 
L 283.706346 279.968322 
L 285.398753 279.968322 
L 285.419267 278.929146 
L 286.383426 278.929146 
L 286.414197 277.889971 
L 293.512047 277.889971 
L 293.532561 276.850796 
L 295.214711 276.850796 
L 295.235225 275.81162 
L 296.086557 275.81162 
L 296.107071 274.772445 
L 297.943076 274.772445 
L 297.953333 273.73327 
L 300.599641 273.73327 
L 300.630412 272.694095 
L 300.804781 272.694095 
L 300.815038 271.654919 
L 303.687001 271.654919 
L 303.697258 270.615744 
L 303.943426 270.615744 
L 304.015225 269.576569 
L 307.184641 268.537394 
L 310.764338 268.537394 
L 310.959221 267.498218 
L 314.046581 267.498218 
L 314.067095 266.459043 
L 314.959455 266.459043 
L 314.969712 265.419868 
L 316.815974 265.419868 
L 316.980086 264.380693 
L 318.71352 264.380693 
L 318.734034 263.341517 
L 318.867376 263.341517 
L 318.88789 262.302342 
L 319.062259 262.302342 
L 319.082773 261.263167 
L 320.49824 261.263167 
L 320.508497 260.223992 
L 320.621324 260.223992 
L 320.641838 259.184816 
L 321.841908 259.184816 
L 321.862422 258.145641 
L 323.944595 258.145641 
L 324.036908 256.067291 
L 324.836955 256.067291 
L 324.847212 255.028115 
L 332.714339 255.028115 
L 332.734853 253.98894 
L 333.852867 253.98894 
L 333.873381 252.949765 
L 334.129806 252.949765 
L 334.140063 251.91059 
L 335.370904 251.91059 
L 335.381161 250.871414 
L 339.678848 250.871414 
L 339.699362 249.832239 
L 339.842961 249.832239 
L 339.976302 248.793064 
L 342.684152 248.793064 
L 343.832937 247.753889 
L 343.863708 246.714713 
L 345.033007 246.714713 
L 347.228008 245.675538 
L 348.346022 245.675538 
L 348.356279 244.636363 
L 352.315484 244.636363 
L 352.346255 243.597187 
L 352.859106 243.597187 
L 354.438685 242.558012 
L 355.454129 242.558012 
L 355.474643 241.518837 
L 358.715859 241.518837 
L 358.736373 240.479662 
L 358.8492 240.479662 
L 358.869714 239.440486 
L 359.936443 239.440486 
L 360.233896 238.401311 
L 362.223756 238.401311 
L 362.234013 237.362136 
L 366.511186 237.362136 
L 366.521443 236.322961 
L 381.291537 236.322961 
L 381.322308 235.283785 
L 382.983944 235.283785 
L 382.994201 234.24461 
L 384.132729 234.24461 
L 384.142986 233.205435 
L 384.963547 233.205435 
L 385.096888 232.16626 
L 386.245673 232.16626 
L 388.75864 231.127084 
L 393.774318 231.127084 
L 393.794832 230.087909 
L 393.93843 230.087909 
L 393.958944 229.048734 
L 394.092285 229.048734 
L 394.112799 228.009559 
L 394.225626 228.009559 
L 394.24614 226.970383 
L 394.461538 226.970383 
L 394.553851 225.931208 
L 394.717963 225.931208 
L 394.841047 223.852858 
L 395.005159 223.852858 
L 395.025673 222.813682 
L 396.882192 222.813682 
L 396.892449 221.774507 
L 399.466958 221.774507 
L 399.487472 220.735332 
L 405.221141 220.735332 
L 405.231398 219.696157 
L 407.477683 219.696157 
L 407.528968 218.656981 
L 412.616445 217.617806 
L 413.344693 217.617806 
L 413.365207 216.578631 
L 421.591329 216.578631 
L 421.611843 215.539456 
L 421.734927 215.539456 
L 421.755441 214.50028 
L 421.899039 214.50028 
L 421.940067 213.461105 
L 425.42745 213.461105 
L 425.447964 212.42193 
L 425.581305 212.42193 
L 425.601819 211.382755 
L 439.592381 211.382755 
L 439.746236 210.343579 
L 439.982147 209.304404 
L 453.41883 209.304404 
L 453.439344 208.265229 
L 456.054881 208.265229 
L 458.11654 207.226053 
L 458.578106 206.186878 
L 459.460209 206.186878 
L 462.793737 205.147703 
L 462.814251 204.108528 
L 463.060419 204.108528 
L 464.260489 203.069352 
L 465.522101 203.069352 
L 467.542732 202.030177 
L 469.081284 202.030177 
L 469.101798 200.991002 
L 469.235139 200.991002 
L 469.245396 199.951827 
L 469.542849 199.951827 
L 469.635162 198.912651 
L 471.56348 198.912651 
L 473.563597 197.873476 
L 475.358574 197.873476 
L 475.368831 196.834301 
L 478.856214 196.834301 
L 479.081868 195.795126 
L 484.538598 195.795126 
L 484.548855 194.75595 
L 484.692453 194.75595 
L 484.712967 193.716775 
L 484.948878 193.716775 
L 484.948878 193.716775 
L 485.061705 192.6776 
L 485.184789 191.638425 
L 485.246331 190.599249 
L 485.410443 190.599249 
L 485.430957 189.560074 
L 485.69764 189.560074 
L 485.718154 188.520899 
L 485.841238 188.520899 
L 485.872009 187.481724 
L 486.015607 187.481724 
L 486.025864 186.442548 
L 486.231004 186.442548 
L 486.241261 185.403373 
L 486.405373 185.403373 
L 486.425887 184.364198 
L 486.600257 184.364198 
L 486.631028 183.325023 
L 488.713201 183.325023 
L 488.836285 182.285847 
L 488.836285 182.285847 
L 488.877313 182.285847 
L 492.816004 181.246672 
L 493.882733 181.246672 
L 494.200701 180.207497 
L 500.96007 180.207497 
L 504.724393 179.168322 
L 504.867991 178.129146 
L 506.837337 178.129146 
L 508.314346 177.089971 
L 511.042711 177.089971 
L 513.873646 176.050796 
L 513.89416 175.01162 
L 514.119814 175.01162 
L 514.150585 173.972445 
L 514.335211 173.972445 
L 514.355725 172.93327 
L 519.330375 172.93327 
L 519.361146 171.894095 
L 521.945912 171.894095 
L 521.956169 170.854919 
L 522.181823 170.854919 
L 522.19208 169.815744 
L 522.397221 169.815744 
L 522.427992 168.776569 
L 522.551076 168.776569 
L 522.57159 167.737394 
L 522.838272 167.737394 
L 522.848529 166.698218 
L 523.022898 166.698218 
L 523.033155 165.659043 
L 523.145982 165.659043 
L 523.176753 164.619868 
L 523.36138 164.619868 
L 523.381894 163.580693 
L 536.500609 163.580693 
L 536.521123 162.541517 
L 536.828833 162.541517 
L 536.849347 161.502342 
L 536.982689 161.502342 
L 536.992946 160.463167 
L 543.413834 160.463167 
L 543.444605 159.423992 
L 543.731801 159.423992 
L 543.731801 158.384816 
L 559.373741 158.384816 
L 559.383998 157.345641 
L 559.845563 157.345641 
L 559.85582 156.306466 
L 560.594325 156.306466 
L 560.604582 155.267291 
L 560.758437 155.267291 
L 560.768694 154.228115 
L 560.95332 154.228115 
L 591.303812 153.18894 
L 591.324326 152.149765 
L 591.847434 152.149765 
L 591.857691 151.11059 
L 591.980775 151.11059 
L 592.001289 150.071414 
L 592.2372 150.071414 
L 592.257714 149.032239 
L 592.473112 149.032239 
L 592.483369 147.993064 
L 592.667995 147.993064 
L 592.688509 146.953889 
L 628.731641 146.953889 
L 628.752155 145.914713 
L 629.018837 145.914713 
L 629.029094 144.875538 
L 631.624118 144.875538 
L 631.675403 143.836363 
L 631.870286 143.836363 
L 631.911314 142.797187 
L 635.737179 142.797187 
L 635.757693 141.758012 
L 638.701455 141.758012 
L 638.762997 140.718837 
L 639.009165 140.718837 
L 639.06045 139.679662 
L 639.193791 139.679662 
L 639.214305 138.640486 
L 639.337389 138.640486 
L 639.36816 137.601311 
L 639.604071 137.601311 
L 639.624585 136.562136 
L 639.737413 136.562136 
L 639.74767 135.522961 
L 639.891268 135.522961 
L 639.901525 134.483785 
L 643.747903 134.483785 
L 644.065871 133.44461 
L 644.281268 133.44461 
L 644.301782 132.405435 
L 679.2269 132.405435 
L 679.257671 131.36626 
L 679.514097 131.36626 
L 679.524354 130.327084 
L 679.70898 130.327084 
L 679.719237 129.287909 
L 679.873092 129.287909 
L 679.893606 128.248734 
L 680.047461 128.248734 
L 680.057718 127.209559 
L 680.22183 127.209559 
L 680.242344 126.170383 
L 680.396199 126.170383 
L 680.416713 125.131208 
L 680.652625 125.131208 
L 680.673139 124.092033 
L 684.150265 124.092033 
L 684.170779 123.052858 
L 684.30412 123.052858 
L 684.324634 122.013682 
L 709.526107 122.013682 
L 710.695406 120.974507 
L 710.941575 120.974507 
L 710.962089 119.935332 
L 711.526224 119.935332 
L 711.536481 118.896157 
L 711.792906 118.896157 
L 711.803163 117.856981 
L 711.977533 117.856981 
L 712.018561 116.817806 
L 712.172416 116.817806 
L 712.182673 115.778631 
L 712.39807 115.778631 
L 712.418584 114.739456 
L 712.592953 114.739456 
L 712.60321 113.70028 
L 712.828864 113.70028 
L 712.849378 112.661105 
L 771.827185 112.661105 
L 771.837442 111.62193 
L 772.063096 111.62193 
L 772.073353 110.582755 
L 772.268236 110.582755 
L 772.278493 109.543579 
L 772.411834 109.543579 
L 772.442605 108.504404 
L 772.627231 108.504404 
L 772.647745 107.465229 
L 772.8734 107.465229 
L 772.893914 106.426053 
L 773.058026 106.426053 
L 773.068283 105.386878 
L 773.263166 105.386878 
L 773.28368 104.347703 
L 773.417021 104.347703 
L 773.437535 103.308528 
L 777.427512 103.308528 
L 779.930222 102.269352 
L 788.679452 102.269352 
L 789.807723 101.230177 
L 792.42326 101.230177 
L 798.741578 100.191002 
L 798.751835 99.151827 
L 798.915947 99.151827 
L 798.926204 98.112651 
L 799.08006 98.112651 
L 799.100574 97.073476 
L 799.326228 97.073476 
L 799.346742 96.034301 
L 862.683777 96.034301 
L 862.704291 94.995126 
L 863.012002 94.995126 
L 863.36074 93.95595 
L 922.810369 93.95595 
L 922.830883 92.916775 
L 923.04628 92.916775 
L 923.056537 91.8776 
L 923.271934 91.8776 
L 923.292448 90.838425 
L 923.507845 90.838425 
L 923.518102 89.799249 
L 923.651443 89.799249 
L 923.6617 88.760074 
L 923.83607 88.760074 
L 923.866841 87.720899 
L 924.04121 87.720899 
L 924.061724 86.681724 
L 924.184808 86.681724 
L 924.205322 85.642548 
L 977.398175 85.642548 
L 977.428946 84.603373 
L 978.413619 84.603373 
L 978.434133 83.564198 
L 978.618759 83.564198 
L 978.639273 82.525023 
L 979.695745 82.525023 
L 979.716259 81.485847 
L 981.295838 81.485847 
L 981.306095 80.446672 
L 985.460184 80.446672 
L 985.470441 79.407497 
L 985.706353 79.407497 
L 985.71661 78.368322 
L 986.014063 78.368322 
L 986.075605 77.329146 
L 986.239717 77.329146 
L 986.373058 75.250796 
L 986.53717 75.250796 
L 986.557684 74.21162 
L 1024.980443 74.21162 
L 1024.9907 73.172445 
L 1025.144555 73.172445 
L 1025.165069 72.13327 
L 1025.442009 72.13327 
L 1025.462523 71.094095 
L 1025.708691 71.094095 
L 1025.729205 70.054919 
L 1025.893317 70.054919 
L 1025.913831 69.015744 
L 1048.663879 69.015744 
L 1048.684393 67.976569 
L 1048.930561 67.976569 
L 1048.951075 66.937394 
L 1049.556239 66.937394 
L 1049.58701 65.898218 
L 1049.740865 65.898218 
L 1049.751122 64.859043 
L 1049.99729 64.859043 
L 1050.007547 63.819868 
L 1051.956379 63.819868 
L 1051.966636 62.780693 
L 1052.19229 62.780693 
L 1052.202547 61.741517 
L 1063.895538 61.741517 
L 1063.905795 60.702342 
L 1064.049393 60.702342 
L 1064.069907 59.663167 
L 1064.275048 59.663167 
L 1064.295562 58.623992 
L 1064.408389 58.623992 
L 1064.428903 57.584816 
L 1064.613529 57.584816 
L 1064.654557 56.545641 
L 1064.777641 56.545641 
L 1064.798155 55.506466 
L 1064.993038 55.506466 
L 1065.003295 54.467291 
L 1070.203599 54.467291 
L 1070.224113 53.428115 
L 1079.29131 53.428115 
L 1079.311824 52.38894 
L 1079.475936 52.38894 
L 1079.486193 51.349765 
L 1079.763132 51.349765 
L 1079.783646 50.31059 
L 1079.937501 50.31059 
L 1079.947759 49.271414 
L 1080.163156 49.271414 
L 1080.204184 48.232239 
L 1085.989137 48.232239 
L 1085.999394 47.193064 
L 1086.18402 47.193064 
L 1087.250749 46.153889 
L 1104.40047 46.153889 
L 1104.410727 45.114713 
L 1104.626124 45.114713 
L 1104.656895 44.075538 
L 1104.769722 44.075538 
L 1104.790236 43.036363 
L 1105.046661 43.036363 
L 1105.056918 41.997187 
L 1105.056918 41.997187 
" clip-path="url(#pfb236f6316)" style="fill: none; stroke: #0000ff; stroke-width: 1.5; stroke-linecap: square"/>
   </g>
   <g id="patch_61">
    <path d="M 49.235 359.517187 
L 49.235 26.877187 
" style="fill: none; stroke: #000000; stroke-width: 0.8; stroke-linejoin: miter; stroke-linecap: square"/>
   </g>
   <g id="patch_62">
    <path d="M 1165.235 359.517187 
L 1165.235 26.877187 
" style="fill: none; stroke: #000000; stroke-width: 0.8; stroke-linejoin: miter; stroke-linecap: square"/>
   </g>
   <g id="patch_63">
    <path d="M 49.235 359.517187 
L 1165.235 359.517187 
" style="fill: none; stroke: #000000; stroke-width: 0.8; stroke-linejoin: miter; stroke-linecap: square"/>
   </g>
   <g id="patch_64">
    <path d="M 49.235 26.877187 
L 1165.235 26.877187 
" style="fill: none; stroke: #000000; stroke-width: 0.8; stroke-linejoin: miter; stroke-linecap: square"/>
   </g>
   <g id="text_20">
    <!-- Pellet Count and Cumulative Sum Over Time of Group 2 Mouse 1 -->
    <g transform="translate(315.460625 20.877187) scale(0.18 -0.18)">
     <defs>
      <path id="DejaVuSans-61" d="M 2194 1759 
Q 1497 1759 1228 1600 
Q 959 1441 959 1056 
Q 959 750 1161 570 
Q 1363 391 1709 391 
Q 2188 391 2477 730 
Q 2766 1069 2766 1631 
L 2766 1759 
L 2194 1759 
z
M 3341 1997 
L 3341 0 
L 2766 0 
L 2766 531 
Q 2569 213 2275 61 
Q 1981 -91 1556 -91 
Q 1019 -91 701 211 
Q 384 513 384 1019 
Q 384 1609 779 1909 
Q 1175 2209 1959 2209 
L 2766 2209 
L 2766 2266 
Q 2766 2663 2505 2880 
Q 2244 3097 1772 3097 
Q 1472 3097 1187 3025 
Q 903 2953 641 2809 
L 641 3341 
Q 956 3463 1253 3523 
Q 1550 3584 1831 3584 
Q 2591 3584 2966 3190 
Q 3341 2797 3341 1997 
z
" transform="scale(0.015625)"/>
      <path id="DejaVuSans-64" d="M 2906 2969 
L 2906 4863 
L 3481 4863 
L 3481 0 
L 2906 0 
L 2906 525 
Q 2725 213 2448 61 
Q 2172 -91 1784 -91 
Q 1150 -91 751 415 
Q 353 922 353 1747 
Q 353 2572 751 3078 
Q 1150 3584 1784 3584 
Q 2172 3584 2448 3432 
Q 2725 3281 2906 2969 
z
M 947 1747 
Q 947 1113 1208 752 
Q 1469 391 1925 391 
Q 2381 391 2643 752 
Q 2906 1113 2906 1747 
Q 2906 2381 2643 2742 
Q 2381 3103 1925 3103 
Q 1469 3103 1208 2742 
Q 947 2381 947 1747 
z
" transform="scale(0.015625)"/>
      <path id="DejaVuSans-76" d="M 191 3500 
L 800 3500 
L 1894 563 
L 2988 3500 
L 3597 3500 
L 2284 0 
L 1503 0 
L 191 3500 
z
" transform="scale(0.015625)"/>
      <path id="DejaVuSans-53" d="M 3425 4513 
L 3425 3897 
Q 3066 4069 2747 4153 
Q 2428 4238 2131 4238 
Q 1616 4238 1336 4038 
Q 1056 3838 1056 3469 
Q 1056 3159 1242 3001 
Q 1428 2844 1947 2747 
L 2328 2669 
Q 3034 2534 3370 2195 
Q 3706 1856 3706 1288 
Q 3706 609 3251 259 
Q 2797 -91 1919 -91 
Q 1588 -91 1214 -16 
Q 841 59 441 206 
L 441 856 
Q 825 641 1194 531 
Q 1563 422 1919 422 
Q 2459 422 2753 634 
Q 3047 847 3047 1241 
Q 3047 1584 2836 1778 
Q 2625 1972 2144 2069 
L 1759 2144 
Q 1053 2284 737 2584 
Q 422 2884 422 3419 
Q 422 4038 858 4394 
Q 1294 4750 2059 4750 
Q 2388 4750 2728 4690 
Q 3069 4631 3425 4513 
z
" transform="scale(0.015625)"/>
      <path id="DejaVuSans-4f" d="M 2522 4238 
Q 1834 4238 1429 3725 
Q 1025 3213 1025 2328 
Q 1025 1447 1429 934 
Q 1834 422 2522 422 
Q 3209 422 3611 934 
Q 4013 1447 4013 2328 
Q 4013 3213 3611 3725 
Q 3209 4238 2522 4238 
z
M 2522 4750 
Q 3503 4750 4090 4092 
Q 4678 3434 4678 2328 
Q 4678 1225 4090 567 
Q 3503 -91 2522 -91 
Q 1538 -91 948 565 
Q 359 1222 359 2328 
Q 359 3434 948 4092 
Q 1538 4750 2522 4750 
z
" transform="scale(0.015625)"/>
      <path id="DejaVuSans-72" d="M 2631 2963 
Q 2534 3019 2420 3045 
Q 2306 3072 2169 3072 
Q 1681 3072 1420 2755 
Q 1159 2438 1159 1844 
L 1159 0 
L 581 0 
L 581 3500 
L 1159 3500 
L 1159 2956 
Q 1341 3275 1631 3429 
Q 1922 3584 2338 3584 
Q 2397 3584 2469 3576 
Q 2541 3569 2628 3553 
L 2631 2963 
z
" transform="scale(0.015625)"/>
      <path id="DejaVuSans-66" d="M 2375 4863 
L 2375 4384 
L 1825 4384 
Q 1516 4384 1395 4259 
Q 1275 4134 1275 3809 
L 1275 3500 
L 2222 3500 
L 2222 3053 
L 1275 3053 
L 1275 0 
L 697 0 
L 697 3053 
L 147 3053 
L 147 3500 
L 697 3500 
L 697 3744 
Q 697 4328 969 4595 
Q 1241 4863 1831 4863 
L 2375 4863 
z
" transform="scale(0.015625)"/>
      <path id="DejaVuSans-47" d="M 3809 666 
L 3809 1919 
L 2778 1919 
L 2778 2438 
L 4434 2438 
L 4434 434 
Q 4069 175 3628 42 
Q 3188 -91 2688 -91 
Q 1594 -91 976 548 
Q 359 1188 359 2328 
Q 359 3472 976 4111 
Q 1594 4750 2688 4750 
Q 3144 4750 3555 4637 
Q 3966 4525 4313 4306 
L 4313 3634 
Q 3963 3931 3569 4081 
Q 3175 4231 2741 4231 
Q 1884 4231 1454 3753 
Q 1025 3275 1025 2328 
Q 1025 1384 1454 906 
Q 1884 428 2741 428 
Q 3075 428 3337 486 
Q 3600 544 3809 666 
z
" transform="scale(0.015625)"/>
      <path id="DejaVuSans-70" d="M 1159 525 
L 1159 -1331 
L 581 -1331 
L 581 3500 
L 1159 3500 
L 1159 2969 
Q 1341 3281 1617 3432 
Q 1894 3584 2278 3584 
Q 2916 3584 3314 3078 
Q 3713 2572 3713 1747 
Q 3713 922 3314 415 
Q 2916 -91 2278 -91 
Q 1894 -91 1617 61 
Q 1341 213 1159 525 
z
M 3116 1747 
Q 3116 2381 2855 2742 
Q 2594 3103 2138 3103 
Q 1681 3103 1420 2742 
Q 1159 2381 1159 1747 
Q 1159 1113 1420 752 
Q 1681 391 2138 391 
Q 2594 391 2855 752 
Q 3116 1113 3116 1747 
z
" transform="scale(0.015625)"/>
      <path id="DejaVuSans-4d" d="M 628 4666 
L 1569 4666 
L 2759 1491 
L 3956 4666 
L 4897 4666 
L 4897 0 
L 4281 0 
L 4281 4097 
L 3078 897 
L 2444 897 
L 1241 4097 
L 1241 0 
L 628 0 
L 628 4666 
z
" transform="scale(0.015625)"/>
      <path id="DejaVuSans-73" d="M 2834 3397 
L 2834 2853 
Q 2591 2978 2328 3040 
Q 2066 3103 1784 3103 
Q 1356 3103 1142 2972 
Q 928 2841 928 2578 
Q 928 2378 1081 2264 
Q 1234 2150 1697 2047 
L 1894 2003 
Q 2506 1872 2764 1633 
Q 3022 1394 3022 966 
Q 3022 478 2636 193 
Q 2250 -91 1575 -91 
Q 1294 -91 989 -36 
Q 684 19 347 128 
L 347 722 
Q 666 556 975 473 
Q 1284 391 1588 391 
Q 1994 391 2212 530 
Q 2431 669 2431 922 
Q 2431 1156 2273 1281 
Q 2116 1406 1581 1522 
L 1381 1569 
Q 847 1681 609 1914 
Q 372 2147 372 2553 
Q 372 3047 722 3315 
Q 1072 3584 1716 3584 
Q 2034 3584 2315 3537 
Q 2597 3491 2834 3397 
z
" transform="scale(0.015625)"/>
     </defs>
     <use xlink:href="#DejaVuSans-50"/>
     <use xlink:href="#DejaVuSans-65" x="56.677734"/>
     <use xlink:href="#DejaVuSans-6c" x="118.201172"/>
     <use xlink:href="#DejaVuSans-6c" x="145.984375"/>
     <use xlink:href="#DejaVuSans-65" x="173.767578"/>
     <use xlink:href="#DejaVuSans-74" x="235.291016"/>
     <use xlink:href="#DejaVuSans-20" x="274.5"/>
     <use xlink:href="#DejaVuSans-43" x="306.287109"/>
     <use xlink:href="#DejaVuSans-6f" x="376.111328"/>
     <use xlink:href="#DejaVuSans-75" x="437.292969"/>
     <use xlink:href="#DejaVuSans-6e" x="500.671875"/>
     <use xlink:href="#DejaVuSans-74" x="564.050781"/>
     <use xlink:href="#DejaVuSans-20" x="603.259766"/>
     <use xlink:href="#DejaVuSans-61" x="635.046875"/>
     <use xlink:href="#DejaVuSans-6e" x="696.326172"/>
     <use xlink:href="#DejaVuSans-64" x="759.705078"/>
     <use xlink:href="#DejaVuSans-20" x="823.181641"/>
     <use xlink:href="#DejaVuSans-43" x="854.96875"/>
     <use xlink:href="#DejaVuSans-75" x="924.792969"/>
     <use xlink:href="#DejaVuSans-6d" x="988.171875"/>
     <use xlink:href="#DejaVuSans-75" x="1085.583984"/>
     <use xlink:href="#DejaVuSans-6c" x="1148.962891"/>
     <use xlink:href="#DejaVuSans-61" x="1176.746094"/>
     <use xlink:href="#DejaVuSans-74" x="1238.025391"/>
     <use xlink:href="#DejaVuSans-69" x="1277.234375"/>
     <use xlink:href="#DejaVuSans-76" x="1305.017578"/>
     <use xlink:href="#DejaVuSans-65" x="1364.197266"/>
     <use xlink:href="#DejaVuSans-20" x="1425.720703"/>
     <use xlink:href="#DejaVuSans-53" x="1457.507812"/>
     <use xlink:href="#DejaVuSans-75" x="1520.984375"/>
     <use xlink:href="#DejaVuSans-6d" x="1584.363281"/>
     <use xlink:href="#DejaVuSans-20" x="1681.775391"/>
     <use xlink:href="#DejaVuSans-4f" x="1713.5625"/>
     <use xlink:href="#DejaVuSans-76" x="1792.273438"/>
     <use xlink:href="#DejaVuSans-65" x="1851.453125"/>
     <use xlink:href="#DejaVuSans-72" x="1912.976562"/>
     <use xlink:href="#DejaVuSans-20" x="1954.089844"/>
     <use xlink:href="#DejaVuSans-54" x="1985.876953"/>
     <use xlink:href="#DejaVuSans-69" x="2043.835938"/>
     <use xlink:href="#DejaVuSans-6d" x="2071.619141"/>
     <use xlink:href="#DejaVuSans-65" x="2169.03125"/>
     <use xlink:href="#DejaVuSans-20" x="2230.554688"/>
     <use xlink:href="#DejaVuSans-6f" x="2262.341797"/>
     <use xlink:href="#DejaVuSans-66" x="2323.523438"/>
     <use xlink:href="#DejaVuSans-20" x="2358.728516"/>
     <use xlink:href="#DejaVuSans-47" x="2390.515625"/>
     <use xlink:href="#DejaVuSans-72" x="2468.005859"/>
     <use xlink:href="#DejaVuSans-6f" x="2506.869141"/>
     <use xlink:href="#DejaVuSans-75" x="2568.050781"/>
     <use xlink:href="#DejaVuSans-70" x="2631.429688"/>
     <use xlink:href="#DejaVuSans-20" x="2694.90625"/>
     <use xlink:href="#DejaVuSans-32" x="2726.693359"/>
     <use xlink:href="#DejaVuSans-20" x="2790.316406"/>
     <use xlink:href="#DejaVuSans-4d" x="2822.103516"/>
     <use xlink:href="#DejaVuSans-6f" x="2908.382812"/>
     <use xlink:href="#DejaVuSans-75" x="2969.564453"/>
     <use xlink:href="#DejaVuSans-73" x="3032.943359"/>
     <use xlink:href="#DejaVuSans-65" x="3085.042969"/>
     <use xlink:href="#DejaVuSans-20" x="3146.566406"/>
     <use xlink:href="#DejaVuSans-31" x="3178.353516"/>
    </g>
   </g>
   <g id="legend_1">
    <g id="patch_65">
     <path d="M 1086.550625 64.233437 
L 1158.235 64.233437 
Q 1160.235 64.233437 1160.235 62.233437 
L 1160.235 33.877187 
Q 1160.235 31.877187 1158.235 31.877187 
L 1086.550625 31.877187 
Q 1084.550625 31.877187 1084.550625 33.877187 
L 1084.550625 62.233437 
Q 1084.550625 64.233437 1086.550625 64.233437 
z
" style="fill: #ffffff; opacity: 0.8; stroke: #cccccc; stroke-linejoin: miter"/>
    </g>
    <g id="patch_66">
     <path d="M 1088.550625 43.475625 
L 1108.550625 43.475625 
L 1108.550625 36.475625 
L 1088.550625 36.475625 
z
" style="fill: #add8e6; opacity: 0.9; stroke: #add8e6; stroke-linejoin: miter"/>
    </g>
    <g id="text_21">
     <!-- Meal -->
     <g transform="translate(1116.550625 43.475625) scale(0.1 -0.1)">
      <use xlink:href="#DejaVuSans-4d"/>
      <use xlink:href="#DejaVuSans-65" x="86.279297"/>
      <use xlink:href="#DejaVuSans-61" x="147.802734"/>
      <use xlink:href="#DejaVuSans-6c" x="209.082031"/>
     </g>
    </g>
    <g id="patch_67">
     <path d="M 1088.550625 58.15375 
L 1108.550625 58.15375 
L 1108.550625 51.15375 
L 1088.550625 51.15375 
z
" style="fill: #808080; opacity: 0.5; stroke: #808080; stroke-linejoin: miter"/>
    </g>
    <g id="text_22">
     <!-- Inactive -->
     <g transform="translate(1116.550625 58.15375) scale(0.1 -0.1)">
      <defs>
       <path id="DejaVuSans-49" d="M 628 4666 
L 1259 4666 
L 1259 0 
L 628 0 
L 628 4666 
z
" transform="scale(0.015625)"/>
       <path id="DejaVuSans-63" d="M 3122 3366 
L 3122 2828 
Q 2878 2963 2633 3030 
Q 2388 3097 2138 3097 
Q 1578 3097 1268 2742 
Q 959 2388 959 1747 
Q 959 1106 1268 751 
Q 1578 397 2138 397 
Q 2388 397 2633 464 
Q 2878 531 3122 666 
L 3122 134 
Q 2881 22 2623 -34 
Q 2366 -91 2075 -91 
Q 1284 -91 818 406 
Q 353 903 353 1747 
Q 353 2603 823 3093 
Q 1294 3584 2113 3584 
Q 2378 3584 2631 3529 
Q 2884 3475 3122 3366 
z
" transform="scale(0.015625)"/>
      </defs>
      <use xlink:href="#DejaVuSans-49"/>
      <use xlink:href="#DejaVuSans-6e" x="29.492188"/>
      <use xlink:href="#DejaVuSans-61" x="92.871094"/>
      <use xlink:href="#DejaVuSans-63" x="154.150391"/>
      <use xlink:href="#DejaVuSans-74" x="209.130859"/>
      <use xlink:href="#DejaVuSans-69" x="248.339844"/>
      <use xlink:href="#DejaVuSans-76" x="276.123047"/>
      <use xlink:href="#DejaVuSans-65" x="335.302734"/>
     </g>
    </g>
   </g>
  </g>
 </g>
 <defs>
  <clipPath id="pfb236f6316">
   <rect x="49.235" y="26.877187" width="1116" height="332.64"/>
  </clipPath>
 </defs>
</svg>
