<?xml version="1.0" encoding="utf-8" standalone="no"?>
<!DOCTYPE svg PUBLIC "-//W3C//DTD SVG 1.1//EN"
  "http://www.w3.org/Graphics/SVG/1.1/DTD/svg11.dtd">
<svg xmlns:xlink="http://www.w3.org/1999/xlink" width="1172.435pt" height="399.009062pt" viewBox="0 0 1172.435 399.009062" xmlns="http://www.w3.org/2000/svg" version="1.1">
 <metadata>
  <rdf:RDF xmlns:dc="http://purl.org/dc/elements/1.1/" xmlns:cc="http://creativecommons.org/ns#" xmlns:rdf="http://www.w3.org/1999/02/22-rdf-syntax-ns#">
   <cc:Work>
    <dc:type rdf:resource="http://purl.org/dc/dcmitype/StillImage"/>
    <dc:date>2025-07-28T21:53:58.351204</dc:date>
    <dc:format>image/svg+xml</dc:format>
    <dc:creator>
     <cc:Agent>
      <dc:title>Matplotlib v3.8.4, https://matplotlib.org/</dc:title>
     </cc:Agent>
    </dc:creator>
   </cc:Work>
  </rdf:RDF>
 </metadata>
 <defs>
  <style type="text/css">*{stroke-linejoin: round; stroke-linecap: butt}</style>
 </defs>
 <g id="figure_1">
  <g id="patch_1">
   <path d="M 0 399.009062 
L 1172.435 399.009062 
L 1172.435 0 
L 0 0 
z
" style="fill: #ffffff"/>
  </g>
  <g id="axes_1">
   <g id="patch_2">
    <path d="M 49.235 359.517187 
L 1165.235 359.517187 
L 1165.235 26.877187 
L 49.235 26.877187 
z
" style="fill: #ffffff"/>
   </g>
   <g id="patch_3">
    <path d="M 201.3281 359.517187 
L 201.3281 26.877187 
L 186.855095 26.877187 
L 186.855095 359.517187 
z
" clip-path="url(#p760222fa58)" style="fill: #add8e6; stroke: #add8e6; stroke-linejoin: miter"/>
   </g>
   <g id="patch_4">
    <path d="M 189.767398 359.517187 
L 189.767398 26.877187 
L 188.298602 26.877187 
L 188.298602 359.517187 
z
" clip-path="url(#p760222fa58)" style="fill: #add8e6; stroke: #add8e6; stroke-linejoin: miter"/>
   </g>
   <g id="patch_5">
    <path d="M 189.242677 359.517187 
L 189.242677 26.877187 
L 189.7105 26.877187 
L 189.7105 359.517187 
z
" clip-path="url(#p760222fa58)" style="fill: #add8e6; stroke: #add8e6; stroke-linejoin: miter"/>
   </g>
   <g id="patch_6">
    <path d="M 193.107484 359.517187 
L 193.107484 26.877187 
L 193.139094 26.877187 
L 193.139094 359.517187 
z
" clip-path="url(#p760222fa58)" style="fill: #add8e6; stroke: #add8e6; stroke-linejoin: miter"/>
   </g>
   <g id="patch_7">
    <path d="M 221.891232 359.517187 
L 221.891232 26.877187 
L 209.826882 26.877187 
L 209.826882 359.517187 
z
" clip-path="url(#p760222fa58)" style="fill: #add8e6; stroke: #add8e6; stroke-linejoin: miter"/>
   </g>
   <g id="patch_8">
    <path d="M 212.102777 359.517187 
L 212.102777 26.877187 
L 212.305078 26.877187 
L 212.305078 359.517187 
z
" clip-path="url(#p760222fa58)" style="fill: #add8e6; stroke: #add8e6; stroke-linejoin: miter"/>
   </g>
   <g id="patch_9">
    <path d="M 216.726215 359.517187 
L 216.726215 26.877187 
L 216.597669 26.877187 
L 216.597669 359.517187 
z
" clip-path="url(#p760222fa58)" style="fill: #add8e6; stroke: #add8e6; stroke-linejoin: miter"/>
   </g>
   <g id="patch_10">
    <path d="M 219.120119 359.517187 
L 219.120119 26.877187 
L 219.450967 26.877187 
L 219.450967 359.517187 
z
" clip-path="url(#p760222fa58)" style="fill: #add8e6; stroke: #add8e6; stroke-linejoin: miter"/>
   </g>
   <g id="patch_11">
    <path d="M 228.126762 359.517187 
L 228.126762 26.877187 
L 228.366996 26.877187 
L 228.366996 359.517187 
z
" clip-path="url(#p760222fa58)" style="fill: #add8e6; stroke: #add8e6; stroke-linejoin: miter"/>
   </g>
   <g id="patch_12">
    <path d="M 231.4816 359.517187 
L 231.4816 26.877187 
L 232.014749 26.877187 
L 232.014749 359.517187 
z
" clip-path="url(#p760222fa58)" style="fill: #add8e6; stroke: #add8e6; stroke-linejoin: miter"/>
   </g>
   <g id="patch_13">
    <path d="M 245.760733 359.517187 
L 245.760733 26.877187 
L 245.547894 26.877187 
L 245.547894 359.517187 
z
" clip-path="url(#p760222fa58)" style="fill: #add8e6; stroke: #add8e6; stroke-linejoin: miter"/>
   </g>
   <g id="patch_14">
    <path d="M 271.720685 359.517187 
L 271.720685 26.877187 
L 272.091572 26.877187 
L 272.091572 359.517187 
z
" clip-path="url(#p760222fa58)" style="fill: #add8e6; stroke: #add8e6; stroke-linejoin: miter"/>
   </g>
   <g id="patch_15">
    <path d="M 273.082007 359.517187 
L 273.082007 26.877187 
L 273.172622 26.877187 
L 273.172622 359.517187 
z
" clip-path="url(#p760222fa58)" style="fill: #add8e6; stroke: #add8e6; stroke-linejoin: miter"/>
   </g>
   <g id="patch_16">
    <path d="M 279.930765 359.517187 
L 279.930765 26.877187 
L 280.910664 26.877187 
L 280.910664 359.517187 
z
" clip-path="url(#p760222fa58)" style="fill: #add8e6; stroke: #add8e6; stroke-linejoin: miter"/>
   </g>
   <g id="patch_17">
    <path d="M 287.483364 359.517187 
L 287.483364 26.877187 
L 289.261934 26.877187 
L 289.261934 359.517187 
z
" clip-path="url(#p760222fa58)" style="fill: #add8e6; stroke: #add8e6; stroke-linejoin: miter"/>
   </g>
   <g id="patch_18">
    <path d="M 322.045356 359.517187 
L 322.045356 26.877187 
L 320.085558 26.877187 
L 320.085558 359.517187 
z
" clip-path="url(#p760222fa58)" style="fill: #add8e6; stroke: #add8e6; stroke-linejoin: miter"/>
   </g>
   <g id="patch_19">
    <path d="M 325.615139 359.517187 
L 325.615139 26.877187 
L 327.279914 26.877187 
L 327.279914 359.517187 
z
" clip-path="url(#p760222fa58)" style="fill: #add8e6; stroke: #add8e6; stroke-linejoin: miter"/>
   </g>
   <g id="patch_20">
    <path d="M 329.549487 359.517187 
L 329.549487 26.877187 
L 328.122838 26.877187 
L 328.122838 359.517187 
z
" clip-path="url(#p760222fa58)" style="fill: #add8e6; stroke: #add8e6; stroke-linejoin: miter"/>
   </g>
   <g id="patch_21">
    <path d="M 371.87481 359.517187 
L 371.87481 26.877187 
L 374.049554 26.877187 
L 374.049554 359.517187 
z
" clip-path="url(#p760222fa58)" style="fill: #add8e6; stroke: #add8e6; stroke-linejoin: miter"/>
   </g>
   <g id="patch_22">
    <path d="M 404.453823 359.517187 
L 404.453823 26.877187 
L 405.59177 26.877187 
L 405.59177 359.517187 
z
" clip-path="url(#p760222fa58)" style="fill: #add8e6; stroke: #add8e6; stroke-linejoin: miter"/>
   </g>
   <g id="patch_23">
    <path d="M 414.707993 359.517187 
L 414.707993 26.877187 
L 413.926181 26.877187 
L 413.926181 359.517187 
z
" clip-path="url(#p760222fa58)" style="fill: #add8e6; stroke: #add8e6; stroke-linejoin: miter"/>
   </g>
   <g id="patch_24">
    <path d="M 414.739603 359.517187 
L 414.739603 26.877187 
L 415.757434 26.877187 
L 415.757434 359.517187 
z
" clip-path="url(#p760222fa58)" style="fill: #add8e6; stroke: #add8e6; stroke-linejoin: miter"/>
   </g>
   <g id="patch_25">
    <path d="M 463.262524 359.517187 
L 463.262524 26.877187 
L 464.250853 26.877187 
L 464.250853 359.517187 
z
" clip-path="url(#p760222fa58)" style="fill: #add8e6; stroke: #add8e6; stroke-linejoin: miter"/>
   </g>
   <g id="patch_26">
    <path d="M 480.780593 359.517187 
L 480.780593 26.877187 
L 480.83749 26.877187 
L 480.83749 359.517187 
z
" clip-path="url(#p760222fa58)" style="fill: #add8e6; stroke: #add8e6; stroke-linejoin: miter"/>
   </g>
   <g id="patch_27">
    <path d="M 515.108673 359.517187 
L 515.108673 26.877187 
L 518.11159 26.877187 
L 518.11159 359.517187 
z
" clip-path="url(#p760222fa58)" style="fill: #add8e6; stroke: #add8e6; stroke-linejoin: miter"/>
   </g>
   <g id="patch_28">
    <path d="M 534.69612 359.517187 
L 534.69612 26.877187 
L 535.823531 26.877187 
L 535.823531 359.517187 
z
" clip-path="url(#p760222fa58)" style="fill: #add8e6; stroke: #add8e6; stroke-linejoin: miter"/>
   </g>
   <g id="patch_29">
    <path d="M 551.952882 359.517187 
L 551.952882 26.877187 
L 552.410168 26.877187 
L 552.410168 359.517187 
z
" clip-path="url(#p760222fa58)" style="fill: #add8e6; stroke: #add8e6; stroke-linejoin: miter"/>
   </g>
   <g id="patch_30">
    <path d="M 563.747496 359.517187 
L 563.747496 26.877187 
L 565.20154 26.877187 
L 565.20154 359.517187 
z
" clip-path="url(#p760222fa58)" style="fill: #add8e6; stroke: #add8e6; stroke-linejoin: miter"/>
   </g>
   <g id="patch_31">
    <path d="M 567.675522 359.517187 
L 567.675522 26.877187 
L 568.09277 26.877187 
L 568.09277 359.517187 
z
" clip-path="url(#p760222fa58)" style="fill: #add8e6; stroke: #add8e6; stroke-linejoin: miter"/>
   </g>
   <g id="patch_32">
    <path d="M 625.154511 359.517187 
L 625.154511 26.877187 
L 626.568516 26.877187 
L 626.568516 359.517187 
z
" clip-path="url(#p760222fa58)" style="fill: #add8e6; stroke: #add8e6; stroke-linejoin: miter"/>
   </g>
   <g id="patch_33">
    <path d="M 662.689917 359.517187 
L 662.689917 26.877187 
L 663.058697 26.877187 
L 663.058697 359.517187 
z
" clip-path="url(#p760222fa58)" style="fill: #add8e6; stroke: #add8e6; stroke-linejoin: miter"/>
   </g>
   <g id="patch_34">
    <path d="M 687.676293 359.517187 
L 687.676293 26.877187 
L 688.32113 26.877187 
L 688.32113 359.517187 
z
" clip-path="url(#p760222fa58)" style="fill: #add8e6; stroke: #add8e6; stroke-linejoin: miter"/>
   </g>
   <g id="patch_35">
    <path d="M 829.845965 359.517187 
L 829.845965 26.877187 
L 831.951167 26.877187 
L 831.951167 359.517187 
z
" clip-path="url(#p760222fa58)" style="fill: #add8e6; stroke: #add8e6; stroke-linejoin: miter"/>
   </g>
   <g id="patch_36">
    <path d="M 877.296265 359.517187 
L 877.296265 26.877187 
L 878.225589 26.877187 
L 878.225589 359.517187 
z
" clip-path="url(#p760222fa58)" style="fill: #add8e6; stroke: #add8e6; stroke-linejoin: miter"/>
   </g>
   <g id="patch_37">
    <path d="M 919.819674 359.517187 
L 919.819674 26.877187 
L 920.316999 26.877187 
L 920.316999 359.517187 
z
" clip-path="url(#p760222fa58)" style="fill: #add8e6; stroke: #add8e6; stroke-linejoin: miter"/>
   </g>
   <g id="patch_38">
    <path d="M 925.007872 359.517187 
L 925.007872 26.877187 
L 925.939303 26.877187 
L 925.939303 359.517187 
z
" clip-path="url(#p760222fa58)" style="fill: #add8e6; stroke: #add8e6; stroke-linejoin: miter"/>
   </g>
   <g id="patch_39">
    <path d="M 963.156505 359.517187 
L 963.156505 26.877187 
L 963.611684 26.877187 
L 963.611684 359.517187 
z
" clip-path="url(#p760222fa58)" style="fill: #add8e6; stroke: #add8e6; stroke-linejoin: miter"/>
   </g>
   <g id="patch_40">
    <path d="M 966.494484 359.517187 
L 966.494484 26.877187 
L 967.23415 26.877187 
L 967.23415 359.517187 
z
" clip-path="url(#p760222fa58)" style="fill: #add8e6; stroke: #add8e6; stroke-linejoin: miter"/>
   </g>
   <g id="patch_41">
    <path d="M 968.37842 359.517187 
L 968.37842 26.877187 
L 968.079182 26.877187 
L 968.079182 359.517187 
z
" clip-path="url(#p760222fa58)" style="fill: #add8e6; stroke: #add8e6; stroke-linejoin: miter"/>
   </g>
   <g id="patch_42">
    <path d="M 989.042702 359.517187 
L 989.042702 26.877187 
L 990.777018 26.877187 
L 990.777018 359.517187 
z
" clip-path="url(#p760222fa58)" style="fill: #add8e6; stroke: #add8e6; stroke-linejoin: miter"/>
   </g>
   <g id="patch_43">
    <path d="M 1017.710548 359.517187 
L 1017.710548 26.877187 
L 1020.441622 26.877187 
L 1020.441622 359.517187 
z
" clip-path="url(#p760222fa58)" style="fill: #add8e6; stroke: #add8e6; stroke-linejoin: miter"/>
   </g>
   <g id="patch_44">
    <path d="M 1055.627377 359.517187 
L 1055.627377 26.877187 
L 1055.836001 26.877187 
L 1055.836001 359.517187 
z
" clip-path="url(#p760222fa58)" style="fill: #add8e6; stroke: #add8e6; stroke-linejoin: miter"/>
   </g>
   <g id="patch_45">
    <path d="M 1058.62608 359.517187 
L 1058.62608 26.877187 
L 1058.206725 26.877187 
L 1058.206725 359.517187 
z
" clip-path="url(#p760222fa58)" style="fill: #add8e6; stroke: #add8e6; stroke-linejoin: miter"/>
   </g>
   <g id="patch_46">
    <path d="M 1067.266051 359.517187 
L 1067.266051 26.877187 
L 1067.318733 26.877187 
L 1067.318733 359.517187 
z
" clip-path="url(#p760222fa58)" style="fill: #add8e6; stroke: #add8e6; stroke-linejoin: miter"/>
   </g>
   <g id="patch_47">
    <path d="M 1087.420364 359.517187 
L 1087.420364 26.877187 
L 1088.216927 26.877187 
L 1088.216927 359.517187 
z
" clip-path="url(#p760222fa58)" style="fill: #add8e6; stroke: #add8e6; stroke-linejoin: miter"/>
   </g>
   <g id="patch_48">
    <path d="M 1114.107338 359.517187 
L 1114.107338 26.877187 
L 1114.507727 26.877187 
L 1114.507727 359.517187 
z
" clip-path="url(#p760222fa58)" style="fill: #add8e6; stroke: #add8e6; stroke-linejoin: miter"/>
   </g>
   <g id="patch_49">
    <path d="M 99.962273 359.517187 
L 99.962273 26.877187 
L 125.249993 26.877187 
L 125.249993 359.517187 
z
" clip-path="url(#p760222fa58)" style="fill: #808080; opacity: 0.4; stroke: #808080; stroke-linejoin: miter"/>
   </g>
   <g id="patch_50">
    <path d="M 137.893854 26.877187 
L 137.893854 26.877187 
L 137.893854 359.517187 
" clip-path="url(#p760222fa58)" style="fill: #808080; opacity: 0.4; stroke: #808080; stroke-linejoin: miter"/>
   </g>
   <g id="patch_51">
    <path d="M 150.537714 26.877187 
L 150.537714 26.877187 
L 150.537714 359.517187 
" clip-path="url(#p760222fa58)" style="fill: #808080; opacity: 0.4; stroke: #808080; stroke-linejoin: miter"/>
   </g>
   <g id="patch_52">
    <path d="M 580.428963 359.517187 
L 580.428963 26.877187 
L 1035.607932 26.877187 
L 1035.607932 359.517187 
z
" clip-path="url(#p760222fa58)" style="fill: #808080; opacity: 0.4; stroke: #808080; stroke-linejoin: miter"/>
   </g>
   <g id="patch_53">
    <path d="M 1048.251792 26.877187 
L 1048.251792 26.877187 
L 1048.251792 359.517187 
" clip-path="url(#p760222fa58)" style="fill: #808080; opacity: 0.4; stroke: #808080; stroke-linejoin: miter"/>
   </g>
   <g id="patch_54">
    <path d="M 1060.895652 26.877187 
L 1060.895652 26.877187 
L 1060.895652 359.517187 
" clip-path="url(#p760222fa58)" style="fill: #808080; opacity: 0.4; stroke: #808080; stroke-linejoin: miter"/>
   </g>
   <g id="matplotlib.axis_1">
    <g id="xtick_1">
     <g id="line2d_1">
      <defs>
       <path id="mdd3aa7d21a" d="M 0 0 
L 0 3.5 
" style="stroke: #000000; stroke-width: 0.8"/>
      </defs>
      <g>
       <use xlink:href="#mdd3aa7d21a" x="78.22537" y="359.517187" style="stroke: #000000; stroke-width: 0.8"/>
      </g>
     </g>
     <g id="text_1">
      <!-- 11-19 06 -->
      <g transform="translate(55.744901 374.115625) scale(0.1 -0.1)">
       <defs>
        <path id="DejaVuSans-31" d="M 794 531 
L 1825 531 
L 1825 4091 
L 703 3866 
L 703 4441 
L 1819 4666 
L 2450 4666 
L 2450 531 
L 3481 531 
L 3481 0 
L 794 0 
L 794 531 
z
" transform="scale(0.015625)"/>
        <path id="DejaVuSans-2d" d="M 313 2009 
L 1997 2009 
L 1997 1497 
L 313 1497 
L 313 2009 
z
" transform="scale(0.015625)"/>
        <path id="DejaVuSans-39" d="M 703 97 
L 703 672 
Q 941 559 1184 500 
Q 1428 441 1663 441 
Q 2288 441 2617 861 
Q 2947 1281 2994 2138 
Q 2813 1869 2534 1725 
Q 2256 1581 1919 1581 
Q 1219 1581 811 2004 
Q 403 2428 403 3163 
Q 403 3881 828 4315 
Q 1253 4750 1959 4750 
Q 2769 4750 3195 4129 
Q 3622 3509 3622 2328 
Q 3622 1225 3098 567 
Q 2575 -91 1691 -91 
Q 1453 -91 1209 -44 
Q 966 3 703 97 
z
M 1959 2075 
Q 2384 2075 2632 2365 
Q 2881 2656 2881 3163 
Q 2881 3666 2632 3958 
Q 2384 4250 1959 4250 
Q 1534 4250 1286 3958 
Q 1038 3666 1038 3163 
Q 1038 2656 1286 2365 
Q 1534 2075 1959 2075 
z
" transform="scale(0.015625)"/>
        <path id="DejaVuSans-20" transform="scale(0.015625)"/>
        <path id="DejaVuSans-30" d="M 2034 4250 
Q 1547 4250 1301 3770 
Q 1056 3291 1056 2328 
Q 1056 1369 1301 889 
Q 1547 409 2034 409 
Q 2525 409 2770 889 
Q 3016 1369 3016 2328 
Q 3016 3291 2770 3770 
Q 2525 4250 2034 4250 
z
M 2034 4750 
Q 2819 4750 3233 4129 
Q 3647 3509 3647 2328 
Q 3647 1150 3233 529 
Q 2819 -91 2034 -91 
Q 1250 -91 836 529 
Q 422 1150 422 2328 
Q 422 3509 836 4129 
Q 1250 4750 2034 4750 
z
" transform="scale(0.015625)"/>
        <path id="DejaVuSans-36" d="M 2113 2584 
Q 1688 2584 1439 2293 
Q 1191 2003 1191 1497 
Q 1191 994 1439 701 
Q 1688 409 2113 409 
Q 2538 409 2786 701 
Q 3034 994 3034 1497 
Q 3034 2003 2786 2293 
Q 2538 2584 2113 2584 
z
M 3366 4563 
L 3366 3988 
Q 3128 4100 2886 4159 
Q 2644 4219 2406 4219 
Q 1781 4219 1451 3797 
Q 1122 3375 1075 2522 
Q 1259 2794 1537 2939 
Q 1816 3084 2150 3084 
Q 2853 3084 3261 2657 
Q 3669 2231 3669 1497 
Q 3669 778 3244 343 
Q 2819 -91 2113 -91 
Q 1303 -91 875 529 
Q 447 1150 447 2328 
Q 447 3434 972 4092 
Q 1497 4750 2381 4750 
Q 2619 4750 2861 4703 
Q 3103 4656 3366 4563 
z
" transform="scale(0.015625)"/>
       </defs>
       <use xlink:href="#DejaVuSans-31"/>
       <use xlink:href="#DejaVuSans-31" x="63.623047"/>
       <use xlink:href="#DejaVuSans-2d" x="127.246094"/>
       <use xlink:href="#DejaVuSans-31" x="163.330078"/>
       <use xlink:href="#DejaVuSans-39" x="226.953125"/>
       <use xlink:href="#DejaVuSans-20" x="290.576172"/>
       <use xlink:href="#DejaVuSans-30" x="322.363281"/>
       <use xlink:href="#DejaVuSans-36" x="385.986328"/>
      </g>
     </g>
    </g>
    <g id="xtick_2">
     <g id="line2d_2">
      <g>
       <use xlink:href="#mdd3aa7d21a" x="192.020112" y="359.517187" style="stroke: #000000; stroke-width: 0.8"/>
      </g>
     </g>
     <g id="text_2">
      <!-- 11-19 09 -->
      <g transform="translate(169.539643 374.115625) scale(0.1 -0.1)">
       <use xlink:href="#DejaVuSans-31"/>
       <use xlink:href="#DejaVuSans-31" x="63.623047"/>
       <use xlink:href="#DejaVuSans-2d" x="127.246094"/>
       <use xlink:href="#DejaVuSans-31" x="163.330078"/>
       <use xlink:href="#DejaVuSans-39" x="226.953125"/>
       <use xlink:href="#DejaVuSans-20" x="290.576172"/>
       <use xlink:href="#DejaVuSans-30" x="322.363281"/>
       <use xlink:href="#DejaVuSans-39" x="385.986328"/>
      </g>
     </g>
    </g>
    <g id="xtick_3">
     <g id="line2d_3">
      <g>
       <use xlink:href="#mdd3aa7d21a" x="305.814854" y="359.517187" style="stroke: #000000; stroke-width: 0.8"/>
      </g>
     </g>
     <g id="text_3">
      <!-- 11-19 12 -->
      <g transform="translate(283.334386 374.115625) scale(0.1 -0.1)">
       <defs>
        <path id="DejaVuSans-32" d="M 1228 531 
L 3431 531 
L 3431 0 
L 469 0 
L 469 531 
Q 828 903 1448 1529 
Q 2069 2156 2228 2338 
Q 2531 2678 2651 2914 
Q 2772 3150 2772 3378 
Q 2772 3750 2511 3984 
Q 2250 4219 1831 4219 
Q 1534 4219 1204 4116 
Q 875 4013 500 3803 
L 500 4441 
Q 881 4594 1212 4672 
Q 1544 4750 1819 4750 
Q 2544 4750 2975 4387 
Q 3406 4025 3406 3419 
Q 3406 3131 3298 2873 
Q 3191 2616 2906 2266 
Q 2828 2175 2409 1742 
Q 1991 1309 1228 531 
z
" transform="scale(0.015625)"/>
       </defs>
       <use xlink:href="#DejaVuSans-31"/>
       <use xlink:href="#DejaVuSans-31" x="63.623047"/>
       <use xlink:href="#DejaVuSans-2d" x="127.246094"/>
       <use xlink:href="#DejaVuSans-31" x="163.330078"/>
       <use xlink:href="#DejaVuSans-39" x="226.953125"/>
       <use xlink:href="#DejaVuSans-20" x="290.576172"/>
       <use xlink:href="#DejaVuSans-31" x="322.363281"/>
       <use xlink:href="#DejaVuSans-32" x="385.986328"/>
      </g>
     </g>
    </g>
    <g id="xtick_4">
     <g id="line2d_4">
      <g>
       <use xlink:href="#mdd3aa7d21a" x="419.609597" y="359.517187" style="stroke: #000000; stroke-width: 0.8"/>
      </g>
     </g>
     <g id="text_4">
      <!-- 11-19 15 -->
      <g transform="translate(397.129128 374.115625) scale(0.1 -0.1)">
       <defs>
        <path id="DejaVuSans-35" d="M 691 4666 
L 3169 4666 
L 3169 4134 
L 1269 4134 
L 1269 2991 
Q 1406 3038 1543 3061 
Q 1681 3084 1819 3084 
Q 2600 3084 3056 2656 
Q 3513 2228 3513 1497 
Q 3513 744 3044 326 
Q 2575 -91 1722 -91 
Q 1428 -91 1123 -41 
Q 819 9 494 109 
L 494 744 
Q 775 591 1075 516 
Q 1375 441 1709 441 
Q 2250 441 2565 725 
Q 2881 1009 2881 1497 
Q 2881 1984 2565 2268 
Q 2250 2553 1709 2553 
Q 1456 2553 1204 2497 
Q 953 2441 691 2322 
L 691 4666 
z
" transform="scale(0.015625)"/>
       </defs>
       <use xlink:href="#DejaVuSans-31"/>
       <use xlink:href="#DejaVuSans-31" x="63.623047"/>
       <use xlink:href="#DejaVuSans-2d" x="127.246094"/>
       <use xlink:href="#DejaVuSans-31" x="163.330078"/>
       <use xlink:href="#DejaVuSans-39" x="226.953125"/>
       <use xlink:href="#DejaVuSans-20" x="290.576172"/>
       <use xlink:href="#DejaVuSans-31" x="322.363281"/>
       <use xlink:href="#DejaVuSans-35" x="385.986328"/>
      </g>
     </g>
    </g>
    <g id="xtick_5">
     <g id="line2d_5">
      <g>
       <use xlink:href="#mdd3aa7d21a" x="533.404339" y="359.517187" style="stroke: #000000; stroke-width: 0.8"/>
      </g>
     </g>
     <g id="text_5">
      <!-- 11-19 18 -->
      <g transform="translate(510.92387 374.115625) scale(0.1 -0.1)">
       <defs>
        <path id="DejaVuSans-38" d="M 2034 2216 
Q 1584 2216 1326 1975 
Q 1069 1734 1069 1313 
Q 1069 891 1326 650 
Q 1584 409 2034 409 
Q 2484 409 2743 651 
Q 3003 894 3003 1313 
Q 3003 1734 2745 1975 
Q 2488 2216 2034 2216 
z
M 1403 2484 
Q 997 2584 770 2862 
Q 544 3141 544 3541 
Q 544 4100 942 4425 
Q 1341 4750 2034 4750 
Q 2731 4750 3128 4425 
Q 3525 4100 3525 3541 
Q 3525 3141 3298 2862 
Q 3072 2584 2669 2484 
Q 3125 2378 3379 2068 
Q 3634 1759 3634 1313 
Q 3634 634 3220 271 
Q 2806 -91 2034 -91 
Q 1263 -91 848 271 
Q 434 634 434 1313 
Q 434 1759 690 2068 
Q 947 2378 1403 2484 
z
M 1172 3481 
Q 1172 3119 1398 2916 
Q 1625 2713 2034 2713 
Q 2441 2713 2670 2916 
Q 2900 3119 2900 3481 
Q 2900 3844 2670 4047 
Q 2441 4250 2034 4250 
Q 1625 4250 1398 4047 
Q 1172 3844 1172 3481 
z
" transform="scale(0.015625)"/>
       </defs>
       <use xlink:href="#DejaVuSans-31"/>
       <use xlink:href="#DejaVuSans-31" x="63.623047"/>
       <use xlink:href="#DejaVuSans-2d" x="127.246094"/>
       <use xlink:href="#DejaVuSans-31" x="163.330078"/>
       <use xlink:href="#DejaVuSans-39" x="226.953125"/>
       <use xlink:href="#DejaVuSans-20" x="290.576172"/>
       <use xlink:href="#DejaVuSans-31" x="322.363281"/>
       <use xlink:href="#DejaVuSans-38" x="385.986328"/>
      </g>
     </g>
    </g>
    <g id="xtick_6">
     <g id="line2d_6">
      <g>
       <use xlink:href="#mdd3aa7d21a" x="647.199081" y="359.517187" style="stroke: #000000; stroke-width: 0.8"/>
      </g>
     </g>
     <g id="text_6">
      <!-- 11-19 21 -->
      <g transform="translate(624.718613 374.115625) scale(0.1 -0.1)">
       <use xlink:href="#DejaVuSans-31"/>
       <use xlink:href="#DejaVuSans-31" x="63.623047"/>
       <use xlink:href="#DejaVuSans-2d" x="127.246094"/>
       <use xlink:href="#DejaVuSans-31" x="163.330078"/>
       <use xlink:href="#DejaVuSans-39" x="226.953125"/>
       <use xlink:href="#DejaVuSans-20" x="290.576172"/>
       <use xlink:href="#DejaVuSans-32" x="322.363281"/>
       <use xlink:href="#DejaVuSans-31" x="385.986328"/>
      </g>
     </g>
    </g>
    <g id="xtick_7">
     <g id="line2d_7">
      <g>
       <use xlink:href="#mdd3aa7d21a" x="760.993824" y="359.517187" style="stroke: #000000; stroke-width: 0.8"/>
      </g>
     </g>
     <g id="text_7">
      <!-- 11-20 00 -->
      <g transform="translate(738.513355 374.115625) scale(0.1 -0.1)">
       <use xlink:href="#DejaVuSans-31"/>
       <use xlink:href="#DejaVuSans-31" x="63.623047"/>
       <use xlink:href="#DejaVuSans-2d" x="127.246094"/>
       <use xlink:href="#DejaVuSans-32" x="163.330078"/>
       <use xlink:href="#DejaVuSans-30" x="226.953125"/>
       <use xlink:href="#DejaVuSans-20" x="290.576172"/>
       <use xlink:href="#DejaVuSans-30" x="322.363281"/>
       <use xlink:href="#DejaVuSans-30" x="385.986328"/>
      </g>
     </g>
    </g>
    <g id="xtick_8">
     <g id="line2d_8">
      <g>
       <use xlink:href="#mdd3aa7d21a" x="874.788566" y="359.517187" style="stroke: #000000; stroke-width: 0.8"/>
      </g>
     </g>
     <g id="text_8">
      <!-- 11-20 03 -->
      <g transform="translate(852.308097 374.115625) scale(0.1 -0.1)">
       <defs>
        <path id="DejaVuSans-33" d="M 2597 2516 
Q 3050 2419 3304 2112 
Q 3559 1806 3559 1356 
Q 3559 666 3084 287 
Q 2609 -91 1734 -91 
Q 1441 -91 1130 -33 
Q 819 25 488 141 
L 488 750 
Q 750 597 1062 519 
Q 1375 441 1716 441 
Q 2309 441 2620 675 
Q 2931 909 2931 1356 
Q 2931 1769 2642 2001 
Q 2353 2234 1838 2234 
L 1294 2234 
L 1294 2753 
L 1863 2753 
Q 2328 2753 2575 2939 
Q 2822 3125 2822 3475 
Q 2822 3834 2567 4026 
Q 2313 4219 1838 4219 
Q 1578 4219 1281 4162 
Q 984 4106 628 3988 
L 628 4550 
Q 988 4650 1302 4700 
Q 1616 4750 1894 4750 
Q 2613 4750 3031 4423 
Q 3450 4097 3450 3541 
Q 3450 3153 3228 2886 
Q 3006 2619 2597 2516 
z
" transform="scale(0.015625)"/>
       </defs>
       <use xlink:href="#DejaVuSans-31"/>
       <use xlink:href="#DejaVuSans-31" x="63.623047"/>
       <use xlink:href="#DejaVuSans-2d" x="127.246094"/>
       <use xlink:href="#DejaVuSans-32" x="163.330078"/>
       <use xlink:href="#DejaVuSans-30" x="226.953125"/>
       <use xlink:href="#DejaVuSans-20" x="290.576172"/>
       <use xlink:href="#DejaVuSans-30" x="322.363281"/>
       <use xlink:href="#DejaVuSans-33" x="385.986328"/>
      </g>
     </g>
    </g>
    <g id="xtick_9">
     <g id="line2d_9">
      <g>
       <use xlink:href="#mdd3aa7d21a" x="988.583308" y="359.517187" style="stroke: #000000; stroke-width: 0.8"/>
      </g>
     </g>
     <g id="text_9">
      <!-- 11-20 06 -->
      <g transform="translate(966.10284 374.115625) scale(0.1 -0.1)">
       <use xlink:href="#DejaVuSans-31"/>
       <use xlink:href="#DejaVuSans-31" x="63.623047"/>
       <use xlink:href="#DejaVuSans-2d" x="127.246094"/>
       <use xlink:href="#DejaVuSans-32" x="163.330078"/>
       <use xlink:href="#DejaVuSans-30" x="226.953125"/>
       <use xlink:href="#DejaVuSans-20" x="290.576172"/>
       <use xlink:href="#DejaVuSans-30" x="322.363281"/>
       <use xlink:href="#DejaVuSans-36" x="385.986328"/>
      </g>
     </g>
    </g>
    <g id="xtick_10">
     <g id="line2d_10">
      <g>
       <use xlink:href="#mdd3aa7d21a" x="1102.378051" y="359.517187" style="stroke: #000000; stroke-width: 0.8"/>
      </g>
     </g>
     <g id="text_10">
      <!-- 11-20 09 -->
      <g transform="translate(1079.897582 374.115625) scale(0.1 -0.1)">
       <use xlink:href="#DejaVuSans-31"/>
       <use xlink:href="#DejaVuSans-31" x="63.623047"/>
       <use xlink:href="#DejaVuSans-2d" x="127.246094"/>
       <use xlink:href="#DejaVuSans-32" x="163.330078"/>
       <use xlink:href="#DejaVuSans-30" x="226.953125"/>
       <use xlink:href="#DejaVuSans-20" x="290.576172"/>
       <use xlink:href="#DejaVuSans-30" x="322.363281"/>
       <use xlink:href="#DejaVuSans-39" x="385.986328"/>
      </g>
     </g>
    </g>
    <g id="text_11">
     <!-- Time -->
     <g transform="translate(592.554688 389.313437) scale(0.12 -0.12)">
      <defs>
       <path id="DejaVuSans-54" d="M -19 4666 
L 3928 4666 
L 3928 4134 
L 2272 4134 
L 2272 0 
L 1638 0 
L 1638 4134 
L -19 4134 
L -19 4666 
z
" transform="scale(0.015625)"/>
       <path id="DejaVuSans-69" d="M 603 3500 
L 1178 3500 
L 1178 0 
L 603 0 
L 603 3500 
z
M 603 4863 
L 1178 4863 
L 1178 4134 
L 603 4134 
L 603 4863 
z
" transform="scale(0.015625)"/>
       <path id="DejaVuSans-6d" d="M 3328 2828 
Q 3544 3216 3844 3400 
Q 4144 3584 4550 3584 
Q 5097 3584 5394 3201 
Q 5691 2819 5691 2113 
L 5691 0 
L 5113 0 
L 5113 2094 
Q 5113 2597 4934 2840 
Q 4756 3084 4391 3084 
Q 3944 3084 3684 2787 
Q 3425 2491 3425 1978 
L 3425 0 
L 2847 0 
L 2847 2094 
Q 2847 2600 2669 2842 
Q 2491 3084 2119 3084 
Q 1678 3084 1418 2786 
Q 1159 2488 1159 1978 
L 1159 0 
L 581 0 
L 581 3500 
L 1159 3500 
L 1159 2956 
Q 1356 3278 1631 3431 
Q 1906 3584 2284 3584 
Q 2666 3584 2933 3390 
Q 3200 3197 3328 2828 
z
" transform="scale(0.015625)"/>
       <path id="DejaVuSans-65" d="M 3597 1894 
L 3597 1613 
L 953 1613 
Q 991 1019 1311 708 
Q 1631 397 2203 397 
Q 2534 397 2845 478 
Q 3156 559 3463 722 
L 3463 178 
Q 3153 47 2828 -22 
Q 2503 -91 2169 -91 
Q 1331 -91 842 396 
Q 353 884 353 1716 
Q 353 2575 817 3079 
Q 1281 3584 2069 3584 
Q 2775 3584 3186 3129 
Q 3597 2675 3597 1894 
z
M 3022 2063 
Q 3016 2534 2758 2815 
Q 2500 3097 2075 3097 
Q 1594 3097 1305 2825 
Q 1016 2553 972 2059 
L 3022 2063 
z
" transform="scale(0.015625)"/>
      </defs>
      <use xlink:href="#DejaVuSans-54"/>
      <use xlink:href="#DejaVuSans-69" x="57.958984"/>
      <use xlink:href="#DejaVuSans-6d" x="85.742188"/>
      <use xlink:href="#DejaVuSans-65" x="183.154297"/>
     </g>
    </g>
   </g>
   <g id="matplotlib.axis_2">
    <g id="ytick_1">
     <g id="line2d_11">
      <defs>
       <path id="m7a7664a1ad" d="M 0 0 
L -3.5 0 
" style="stroke: #000000; stroke-width: 0.8"/>
      </defs>
      <g>
       <use xlink:href="#m7a7664a1ad" x="49.235" y="344.397187" style="stroke: #000000; stroke-width: 0.8"/>
      </g>
     </g>
     <g id="text_12">
      <!-- 0 -->
      <g transform="translate(35.8725 348.196406) scale(0.1 -0.1)">
       <use xlink:href="#DejaVuSans-30"/>
      </g>
     </g>
    </g>
    <g id="ytick_2">
     <g id="line2d_12">
      <g>
       <use xlink:href="#m7a7664a1ad" x="49.235" y="288.60383" style="stroke: #000000; stroke-width: 0.8"/>
      </g>
     </g>
     <g id="text_13">
      <!-- 50 -->
      <g transform="translate(29.51 292.403048) scale(0.1 -0.1)">
       <use xlink:href="#DejaVuSans-35"/>
       <use xlink:href="#DejaVuSans-30" x="63.623047"/>
      </g>
     </g>
    </g>
    <g id="ytick_3">
     <g id="line2d_13">
      <g>
       <use xlink:href="#m7a7664a1ad" x="49.235" y="232.810472" style="stroke: #000000; stroke-width: 0.8"/>
      </g>
     </g>
     <g id="text_14">
      <!-- 100 -->
      <g transform="translate(23.1475 236.60969) scale(0.1 -0.1)">
       <use xlink:href="#DejaVuSans-31"/>
       <use xlink:href="#DejaVuSans-30" x="63.623047"/>
       <use xlink:href="#DejaVuSans-30" x="127.246094"/>
      </g>
     </g>
    </g>
    <g id="ytick_4">
     <g id="line2d_14">
      <g>
       <use xlink:href="#m7a7664a1ad" x="49.235" y="177.017114" style="stroke: #000000; stroke-width: 0.8"/>
      </g>
     </g>
     <g id="text_15">
      <!-- 150 -->
      <g transform="translate(23.1475 180.816332) scale(0.1 -0.1)">
       <use xlink:href="#DejaVuSans-31"/>
       <use xlink:href="#DejaVuSans-35" x="63.623047"/>
       <use xlink:href="#DejaVuSans-30" x="127.246094"/>
      </g>
     </g>
    </g>
    <g id="ytick_5">
     <g id="line2d_15">
      <g>
       <use xlink:href="#m7a7664a1ad" x="49.235" y="121.223756" style="stroke: #000000; stroke-width: 0.8"/>
      </g>
     </g>
     <g id="text_16">
      <!-- 200 -->
      <g transform="translate(23.1475 125.022975) scale(0.1 -0.1)">
       <use xlink:href="#DejaVuSans-32"/>
       <use xlink:href="#DejaVuSans-30" x="63.623047"/>
       <use xlink:href="#DejaVuSans-30" x="127.246094"/>
      </g>
     </g>
    </g>
    <g id="ytick_6">
     <g id="line2d_16">
      <g>
       <use xlink:href="#m7a7664a1ad" x="49.235" y="65.430398" style="stroke: #000000; stroke-width: 0.8"/>
      </g>
     </g>
     <g id="text_17">
      <!-- 250 -->
      <g transform="translate(23.1475 69.229617) scale(0.1 -0.1)">
       <use xlink:href="#DejaVuSans-32"/>
       <use xlink:href="#DejaVuSans-35" x="63.623047"/>
       <use xlink:href="#DejaVuSans-30" x="127.246094"/>
      </g>
     </g>
    </g>
    <g id="text_18">
     <!-- Pellet_Count -->
     <g transform="translate(16.318125 230.485312) rotate(-90) scale(0.12 -0.12)">
      <defs>
       <path id="DejaVuSans-50" d="M 1259 4147 
L 1259 2394 
L 2053 2394 
Q 2494 2394 2734 2622 
Q 2975 2850 2975 3272 
Q 2975 3691 2734 3919 
Q 2494 4147 2053 4147 
L 1259 4147 
z
M 628 4666 
L 2053 4666 
Q 2838 4666 3239 4311 
Q 3641 3956 3641 3272 
Q 3641 2581 3239 2228 
Q 2838 1875 2053 1875 
L 1259 1875 
L 1259 0 
L 628 0 
L 628 4666 
z
" transform="scale(0.015625)"/>
       <path id="DejaVuSans-6c" d="M 603 4863 
L 1178 4863 
L 1178 0 
L 603 0 
L 603 4863 
z
" transform="scale(0.015625)"/>
       <path id="DejaVuSans-74" d="M 1172 4494 
L 1172 3500 
L 2356 3500 
L 2356 3053 
L 1172 3053 
L 1172 1153 
Q 1172 725 1289 603 
Q 1406 481 1766 481 
L 2356 481 
L 2356 0 
L 1766 0 
Q 1100 0 847 248 
Q 594 497 594 1153 
L 594 3053 
L 172 3053 
L 172 3500 
L 594 3500 
L 594 4494 
L 1172 4494 
z
" transform="scale(0.015625)"/>
       <path id="DejaVuSans-5f" d="M 3263 -1063 
L 3263 -1509 
L -63 -1509 
L -63 -1063 
L 3263 -1063 
z
" transform="scale(0.015625)"/>
       <path id="DejaVuSans-43" d="M 4122 4306 
L 4122 3641 
Q 3803 3938 3442 4084 
Q 3081 4231 2675 4231 
Q 1875 4231 1450 3742 
Q 1025 3253 1025 2328 
Q 1025 1406 1450 917 
Q 1875 428 2675 428 
Q 3081 428 3442 575 
Q 3803 722 4122 1019 
L 4122 359 
Q 3791 134 3420 21 
Q 3050 -91 2638 -91 
Q 1578 -91 968 557 
Q 359 1206 359 2328 
Q 359 3453 968 4101 
Q 1578 4750 2638 4750 
Q 3056 4750 3426 4639 
Q 3797 4528 4122 4306 
z
" transform="scale(0.015625)"/>
       <path id="DejaVuSans-6f" d="M 1959 3097 
Q 1497 3097 1228 2736 
Q 959 2375 959 1747 
Q 959 1119 1226 758 
Q 1494 397 1959 397 
Q 2419 397 2687 759 
Q 2956 1122 2956 1747 
Q 2956 2369 2687 2733 
Q 2419 3097 1959 3097 
z
M 1959 3584 
Q 2709 3584 3137 3096 
Q 3566 2609 3566 1747 
Q 3566 888 3137 398 
Q 2709 -91 1959 -91 
Q 1206 -91 779 398 
Q 353 888 353 1747 
Q 353 2609 779 3096 
Q 1206 3584 1959 3584 
z
" transform="scale(0.015625)"/>
       <path id="DejaVuSans-75" d="M 544 1381 
L 544 3500 
L 1119 3500 
L 1119 1403 
Q 1119 906 1312 657 
Q 1506 409 1894 409 
Q 2359 409 2629 706 
Q 2900 1003 2900 1516 
L 2900 3500 
L 3475 3500 
L 3475 0 
L 2900 0 
L 2900 538 
Q 2691 219 2414 64 
Q 2138 -91 1772 -91 
Q 1169 -91 856 284 
Q 544 659 544 1381 
z
M 1991 3584 
L 1991 3584 
z
" transform="scale(0.015625)"/>
       <path id="DejaVuSans-6e" d="M 3513 2113 
L 3513 0 
L 2938 0 
L 2938 2094 
Q 2938 2591 2744 2837 
Q 2550 3084 2163 3084 
Q 1697 3084 1428 2787 
Q 1159 2491 1159 1978 
L 1159 0 
L 581 0 
L 581 3500 
L 1159 3500 
L 1159 2956 
Q 1366 3272 1645 3428 
Q 1925 3584 2291 3584 
Q 2894 3584 3203 3211 
Q 3513 2838 3513 2113 
z
" transform="scale(0.015625)"/>
      </defs>
      <use xlink:href="#DejaVuSans-50"/>
      <use xlink:href="#DejaVuSans-65" x="56.677734"/>
      <use xlink:href="#DejaVuSans-6c" x="118.201172"/>
      <use xlink:href="#DejaVuSans-6c" x="145.984375"/>
      <use xlink:href="#DejaVuSans-65" x="173.767578"/>
      <use xlink:href="#DejaVuSans-74" x="235.291016"/>
      <use xlink:href="#DejaVuSans-5f" x="274.5"/>
      <use xlink:href="#DejaVuSans-43" x="324.5"/>
      <use xlink:href="#DejaVuSans-6f" x="394.324219"/>
      <use xlink:href="#DejaVuSans-75" x="455.505859"/>
      <use xlink:href="#DejaVuSans-6e" x="518.884766"/>
      <use xlink:href="#DejaVuSans-74" x="582.263672"/>
     </g>
    </g>
   </g>
   <g id="line2d_17">
    <path d="M 99.962273 344.397187 
L 101.458463 344.397187 
L 101.869388 343.28132 
L 115.524757 343.28132 
L 115.746025 342.165453 
L 130.834365 342.165453 
L 130.908121 341.049586 
L 154.541603 341.049586 
L 154.594286 339.933719 
L 169.903893 339.933719 
L 169.956576 338.817852 
L 171.621351 338.817852 
L 171.68457 337.701985 
L 177.311088 337.701985 
L 177.332161 336.586117 
L 178.048646 336.586117 
L 178.080256 335.47025 
L 179.787177 335.47025 
L 179.787177 335.47025 
L 179.860933 334.354383 
L 180.851369 334.354383 
L 180.872442 333.238516 
L 182.178974 333.238516 
L 182.178974 333.238516 
L 182.25273 332.122649 
L 182.958679 332.122649 
L 183.021898 331.006782 
L 183.41175 331.006782 
L 183.696237 329.890914 
L 184.233601 329.890914 
L 184.518088 328.775047 
L 185.645499 328.775047 
L 185.698182 327.65918 
L 186.372521 327.65918 
L 186.393594 326.543313 
L 186.530569 326.543313 
L 186.593789 325.427446 
L 187.636907 325.427446 
L 187.647444 324.311579 
L 188.722172 324.311579 
L 188.743245 323.195711 
L 189.238463 323.195711 
L 189.248999 322.079844 
L 190.608214 322.079844 
L 190.629287 320.963977 
L 191.777771 320.963977 
L 191.788308 319.84811 
L 192.473184 319.84811 
L 192.494257 318.732243 
L 192.704988 318.732243 
L 192.715524 317.616376 
L 199.985744 317.616376 
L 200.006817 316.500509 
L 201.429251 316.500509 
L 201.450324 315.384641 
L 208.362301 315.384641 
L 208.615179 314.268774 
L 209.268445 314.268774 
L 209.289518 313.152907 
L 210.480148 313.152907 
L 210.522294 312.03704 
L 211.438974 312.03704 
L 211.449511 310.921173 
L 211.860436 310.921173 
L 211.881509 309.805306 
L 213.58843 309.805306 
L 213.609503 308.689438 
L 214.484037 308.689438 
L 214.526183 307.573571 
L 215.200522 307.573571 
L 215.242669 306.457704 
L 216.549201 306.457704 
L 216.559737 305.341837 
L 218.75134 305.341837 
L 218.772413 304.22597 
L 218.940998 304.22597 
L 218.951534 303.110103 
L 219.351923 303.110103 
L 219.394069 301.994235 
L 221.733184 301.994235 
L 221.77533 300.878368 
L 223.671909 300.878368 
L 223.692982 299.762501 
L 224.261956 299.762501 
L 224.346248 298.646634 
L 225.515805 298.646634 
L 225.557951 297.530767 
L 227.096288 297.530767 
L 227.127897 296.4149 
L 227.623115 296.4149 
L 227.633652 295.299033 
L 227.970821 295.299033 
L 227.981358 294.183165 
L 228.592478 294.183165 
L 228.613551 293.067298 
L 229.89901 293.067298 
L 229.920083 291.951431 
L 230.689251 291.951431 
L 230.710324 290.835564 
L 231.532175 290.835564 
L 231.553248 289.719697 
L 232.290807 289.719697 
L 232.31188 288.60383 
L 233.734314 288.60383 
L 233.755387 287.487962 
L 234.9987 287.487962 
L 235.009237 286.372095 
L 236.410598 286.372095 
L 236.431671 285.256228 
L 237.13762 285.256228 
L 237.16923 284.140361 
L 237.611765 284.140361 
L 237.643374 283.024494 
L 238.075373 283.024494 
L 238.106983 281.908627 
L 243.248819 281.908627 
L 243.259356 280.792759 
L 244.544815 280.792759 
L 244.555351 279.676892 
L 244.892521 279.676892 
L 244.913594 278.561025 
L 245.271837 278.561025 
L 245.282373 277.445158 
L 246.430857 277.445158 
L 246.45193 276.329291 
L 247.379147 276.329291 
L 247.40022 275.213424 
L 248.769971 275.213424 
L 248.769971 275.213424 
L 248.833191 274.097557 
L 249.223043 274.097557 
L 249.760407 272.981689 
L 252.078448 272.981689 
L 252.110058 271.865822 
L 268.652442 271.865822 
L 268.684051 270.749955 
L 269.305708 270.749955 
L 269.326781 269.634088 
L 271.286579 269.634088 
L 271.297116 268.518221 
L 271.581603 268.518221 
L 271.592139 267.402354 
L 272.213796 267.402354 
L 272.234869 266.286486 
L 272.624721 266.286486 
L 272.635258 265.170619 
L 279.220602 265.170619 
L 279.241675 264.054752 
L 279.757966 264.054752 
L 279.779039 262.938885 
L 280.042452 262.938885 
L 280.063526 261.823018 
L 280.822157 261.823018 
L 280.853767 260.707151 
L 287.038722 260.707151 
L 287.059795 259.591283 
L 287.302136 259.591283 
L 287.312672 258.475416 
L 287.639305 258.475416 
L 287.660378 257.359549 
L 288.11345 257.359549 
L 288.123986 256.243682 
L 288.313644 256.243682 
L 288.324181 255.127815 
L 288.534912 255.127815 
L 288.555985 254.011948 
L 288.903691 254.011948 
L 288.914228 252.89608 
L 289.230324 252.89608 
L 289.251397 251.780213 
L 302.000623 251.780213 
L 302.01116 250.664346 
L 304.107933 250.664346 
L 304.11847 249.548479 
L 304.898174 249.548479 
L 304.908711 248.432612 
L 315.908869 248.432612 
L 315.929943 247.316745 
L 318.690519 247.316745 
L 318.701055 246.200878 
L 319.154127 246.200878 
L 319.154127 246.200878 
L 319.1752 245.08501 
L 319.733637 245.08501 
L 319.744174 243.969143 
L 320.534415 243.969143 
L 320.555488 242.853276 
L 324.58045 242.853276 
L 324.590987 241.737409 
L 324.991376 241.737409 
L 325.001912 240.621542 
L 325.49713 240.621542 
L 325.507667 239.505675 
L 325.823763 239.505675 
L 325.844836 238.389807 
L 326.118787 238.389807 
L 326.13986 237.27394 
L 326.487566 237.27394 
L 326.498102 236.158073 
L 326.845809 236.158073 
L 326.856345 235.042206 
L 327.182978 235.042206 
L 327.204051 233.926339 
L 327.499075 233.926339 
L 327.509611 232.810472 
L 327.846781 232.810472 
L 327.857317 231.694604 
L 340.785664 231.694604 
L 340.817274 230.578737 
L 358.634581 230.578737 
L 358.645117 229.46287 
L 362.554177 229.46287 
L 362.564714 228.347003 
L 367.780306 228.347003 
L 367.790843 227.231136 
L 371.278441 227.231136 
L 371.299514 226.115269 
L 371.64722 226.115269 
L 371.668293 224.999402 
L 371.857951 224.999402 
L 371.868488 223.883534 
L 372.110828 223.883534 
L 372.121365 222.767667 
L 372.363705 222.767667 
L 372.405852 221.6518 
L 372.584973 221.6518 
L 372.606046 220.535933 
L 372.764094 220.535933 
L 372.774631 219.420066 
L 372.974825 219.420066 
L 372.985362 218.304199 
L 373.248776 218.304199 
L 373.259312 217.188331 
L 373.491116 217.188331 
L 373.512189 216.072464 
L 373.986334 216.072464 
L 374.007407 214.956597 
L 379.054415 214.956597 
L 379.83412 213.84073 
L 380.613824 213.84073 
L 380.645434 212.724863 
L 389.548819 212.724863 
L 389.580429 211.608996 
L 404.057649 211.608996 
L 404.068185 210.493128 
L 404.352672 210.493128 
L 404.373745 209.377261 
L 404.573939 209.377261 
L 404.595013 208.261394 
L 404.805744 208.261394 
L 404.805744 208.261394 
L 404.837353 207.145527 
L 405.027011 207.145527 
L 405.048084 206.02966 
L 405.195596 206.02966 
L 405.206132 204.913793 
L 412.581718 204.913793 
L 412.602791 203.797926 
L 413.034789 203.797926 
L 413.045326 202.682058 
L 413.27713 202.682058 
L 413.287667 201.566191 
L 413.466788 201.566191 
L 413.477324 200.450324 
L 413.656446 200.450324 
L 413.666982 199.334457 
L 413.877713 199.334457 
L 413.88825 198.21859 
L 414.067371 198.21859 
L 414.088444 197.102723 
L 414.583662 197.102723 
L 414.594199 195.986855 
L 414.762784 195.986855 
L 414.783857 194.870988 
L 414.962978 194.870988 
L 414.973515 193.755121 
L 415.236928 193.755121 
L 415.258001 192.639254 
L 430.525463 192.639254 
L 431.484289 191.523387 
L 436.984368 191.523387 
L 437.37422 190.40752 
L 438.944166 190.40752 
L 438.965239 189.291652 
L 443.380054 189.291652 
L 443.401127 188.175785 
L 444.718196 188.175785 
L 445.297706 187.059918 
L 448.184721 187.059918 
L 448.195257 185.944051 
L 448.542964 185.944051 
L 448.564037 184.828184 
L 462.356381 184.828184 
L 462.377454 183.712317 
L 462.883208 183.712317 
L 462.893745 182.596449 
L 463.136086 182.596449 
L 463.157159 181.480582 
L 463.441646 181.480582 
L 463.462719 180.364715 
L 463.768279 180.364715 
L 463.789352 179.248848 
L 465.10642 179.248848 
L 465.116957 178.132981 
L 466.202222 178.132981 
L 466.223295 177.017114 
L 479.120032 177.017114 
L 479.162178 175.901247 
L 479.362373 175.901247 
L 479.383446 174.785379 
L 479.61525 174.785379 
L 479.636323 173.669512 
L 479.773298 173.669512 
L 479.783835 172.553645 
L 480.047249 172.553645 
L 480.057785 171.437778 
L 480.289589 171.437778 
L 480.300126 170.321911 
L 514.712499 170.321911 
L 514.723035 169.206044 
L 515.007522 169.206044 
L 515.028595 168.090176 
L 515.292009 168.090176 
L 515.302546 166.974309 
L 515.50274 166.974309 
L 515.523813 165.858442 
L 515.755617 165.858442 
L 515.766154 164.742575 
L 515.924202 164.742575 
L 515.945275 163.626708 
L 516.229762 163.626708 
L 516.240299 162.510841 
L 516.503712 162.510841 
L 516.524786 161.394973 
L 516.798736 161.394973 
L 516.819809 160.279106 
L 517.083223 160.279106 
L 517.093759 159.163239 
L 517.36771 159.163239 
L 517.378246 158.047372 
L 517.704879 158.047372 
L 517.725952 156.931505 
L 518.084195 156.931505 
L 518.084195 156.931505 
L 518.136878 155.815638 
L 534.457994 155.815638 
L 534.468531 154.699771 
L 534.816237 154.699771 
L 534.826773 153.583903 
L 535.048041 153.583903 
L 535.069114 152.468036 
L 535.427357 152.468036 
L 535.437893 151.352169 
L 550.958232 151.352169 
L 550.968768 150.236302 
L 551.600961 150.236302 
L 551.611498 149.120435 
L 552.096179 149.120435 
L 552.106716 148.004568 
L 552.770518 148.004568 
L 552.781055 146.8887 
L 560.915272 146.8887 
L 560.925808 145.772833 
L 563.433507 145.772833 
L 563.444044 144.656966 
L 563.802286 144.656966 
L 563.812823 143.541099 
L 564.107846 143.541099 
L 564.118383 142.425232 
L 564.64521 142.425232 
L 564.655747 141.309365 
L 564.887551 141.309365 
L 564.898088 140.193497 
L 567.437396 140.193497 
L 567.447933 139.07763 
L 567.816712 139.07763 
L 567.827249 137.961763 
L 569.070561 137.961763 
L 569.081098 136.845896 
L 623.786867 136.845896 
L 623.839549 135.730029 
L 624.1135 135.730029 
L 624.134573 134.614162 
L 624.376914 134.614162 
L 624.397987 133.498295 
L 624.640327 133.498295 
L 624.650864 132.382427 
L 624.808912 132.382427 
L 624.851058 131.26656 
L 625.146082 131.26656 
L 625.177691 130.150693 
L 625.493788 130.150693 
L 625.535934 129.034826 
L 625.809884 129.034826 
L 625.830957 127.918959 
L 626.010079 127.918959 
L 626.031152 126.803092 
L 626.505297 126.803092 
L 627.084807 125.687224 
L 662.245275 125.687224 
L 662.266348 124.571357 
L 662.614054 124.571357 
L 662.635127 123.45549 
L 687.280118 123.45549 
L 687.290655 122.339623 
L 687.659434 122.339623 
L 687.722653 121.223756 
L 688.00714 121.223756 
L 688.017677 120.107889 
L 689.19777 120.107889 
L 689.208307 118.992021 
L 739.309603 118.992021 
L 739.341213 117.876154 
L 746.000313 117.876154 
L 746.021386 116.760287 
L 791.370698 116.760287 
L 791.381234 115.64442 
L 829.439254 115.64442 
L 829.460327 114.528553 
L 830.103057 114.528553 
L 830.113593 113.412686 
L 830.471836 113.412686 
L 830.482372 112.296818 
L 830.714176 112.296818 
L 830.73525 111.180951 
L 830.924907 111.180951 
L 830.935444 110.065084 
L 831.219931 110.065084 
L 831.230467 108.949217 
L 831.441198 108.949217 
L 831.451735 107.83335 
L 836.593571 107.83335 
L 836.614645 106.717483 
L 840.955703 106.717483 
L 840.96624 105.601616 
L 876.031879 105.601616 
L 876.063489 104.485748 
L 876.442804 104.485748 
L 876.484951 103.369881 
L 876.895876 103.369881 
L 876.906413 102.254014 
L 877.222509 102.254014 
L 877.233046 101.138147 
L 877.517532 101.138147 
L 877.538606 100.02228 
L 877.780946 100.02228 
L 877.802019 98.906413 
L 905.523683 98.906413 
L 905.544756 97.790545 
L 918.557396 97.790545 
L 918.578469 96.674678 
L 919.495149 96.674678 
L 919.516222 95.558811 
L 919.94822 95.558811 
L 919.969293 94.442944 
L 924.573766 94.442944 
L 924.584302 93.327077 
L 924.83718 93.327077 
L 924.858253 92.21121 
L 925.058447 92.21121 
L 925.07952 91.095342 
L 925.342934 91.095342 
L 925.364007 89.979475 
L 962.484273 89.979475 
L 962.505347 88.863608 
L 963.253442 88.863608 
L 963.263978 87.747741 
L 966.09831 87.747741 
L 966.108847 86.631874 
L 966.509236 86.631874 
L 966.519772 85.516007 
L 966.920161 85.516007 
L 966.930698 84.40014 
L 967.341623 84.40014 
L 967.373233 83.284272 
L 967.710402 83.284272 
L 967.731475 82.168405 
L 988.646528 82.168405 
L 988.657064 81.052538 
L 988.973161 81.052538 
L 989.00477 79.936671 
L 989.531598 79.936671 
L 989.542134 78.820804 
L 989.879304 78.820804 
L 989.879304 78.820804 
L 989.910914 77.704937 
L 990.22701 77.704937 
L 990.248083 76.589069 
L 990.50096 76.589069 
L 990.511497 75.473202 
L 1017.200579 75.473202 
L 1017.211115 74.357335 
L 1017.432383 74.357335 
L 1017.432383 74.357335 
L 1017.474529 73.241468 
L 1017.65365 73.241468 
L 1017.65365 73.241468 
L 1017.68526 72.125601 
L 1017.938137 72.125601 
L 1017.95921 71.009734 
L 1018.222624 71.009734 
L 1018.254234 69.893866 
L 1018.486038 69.893866 
L 1018.507111 68.777999 
L 1018.759988 68.777999 
L 1018.781061 67.662132 
L 1019.160377 67.662132 
L 1019.18145 66.546265 
L 1019.444864 66.546265 
L 1019.465937 65.430398 
L 1019.739887 65.430398 
L 1019.771497 64.314531 
L 1020.034911 64.314531 
L 1020.055984 63.198664 
L 1040.128112 63.198664 
L 1040.149185 62.082796 
L 1054.257626 62.082796 
L 1054.278699 60.966929 
L 1055.06894 60.966929 
L 1055.090013 59.851062 
L 1055.363964 59.851062 
L 1055.3745 58.735195 
L 1057.323762 58.735195 
L 1057.355372 57.619328 
L 1057.724151 57.619328 
L 1057.745224 56.503461 
L 1066.669682 56.503461 
L 1066.690755 55.387593 
L 1067.080607 55.387593 
L 1067.091144 54.271726 
L 1075.25697 54.271726 
L 1075.278044 53.155859 
L 1086.552152 53.155859 
L 1086.573225 52.039992 
L 1086.889322 52.039992 
L 1086.899858 50.924125 
L 1087.131662 50.924125 
L 1087.142199 49.808258 
L 1087.468832 49.808258 
L 1087.479369 48.69239 
L 1087.669027 48.69239 
L 1087.679563 47.576523 
L 1099.11172 47.576523 
L 1099.122257 46.460656 
L 1099.438353 46.460656 
L 1099.480499 45.344789 
L 1099.733377 45.344789 
L 1099.743913 44.228922 
L 1113.831281 44.228922 
L 1113.841817 43.113055 
L 1114.063085 43.113055 
L 1114.084158 41.997187 
L 1114.084158 41.997187 
" clip-path="url(#p760222fa58)" style="fill: none; stroke: #0000ff; stroke-width: 1.5; stroke-linecap: square"/>
   </g>
   <g id="patch_55">
    <path d="M 49.235 359.517187 
L 49.235 26.877187 
" style="fill: none; stroke: #000000; stroke-width: 0.8; stroke-linejoin: miter; stroke-linecap: square"/>
   </g>
   <g id="patch_56">
    <path d="M 1165.235 359.517187 
L 1165.235 26.877187 
" style="fill: none; stroke: #000000; stroke-width: 0.8; stroke-linejoin: miter; stroke-linecap: square"/>
   </g>
   <g id="patch_57">
    <path d="M 49.235 359.517187 
L 1165.235 359.517187 
" style="fill: none; stroke: #000000; stroke-width: 0.8; stroke-linejoin: miter; stroke-linecap: square"/>
   </g>
   <g id="patch_58">
    <path d="M 49.235 26.877187 
L 1165.235 26.877187 
" style="fill: none; stroke: #000000; stroke-width: 0.8; stroke-linejoin: miter; stroke-linecap: square"/>
   </g>
   <g id="text_19">
    <!-- Pellet Count and Cumulative Sum Over Time of Group 9 Mouse 3 -->
    <g transform="translate(315.460625 20.877187) scale(0.18 -0.18)">
     <defs>
      <path id="DejaVuSans-61" d="M 2194 1759 
Q 1497 1759 1228 1600 
Q 959 1441 959 1056 
Q 959 750 1161 570 
Q 1363 391 1709 391 
Q 2188 391 2477 730 
Q 2766 1069 2766 1631 
L 2766 1759 
L 2194 1759 
z
M 3341 1997 
L 3341 0 
L 2766 0 
L 2766 531 
Q 2569 213 2275 61 
Q 1981 -91 1556 -91 
Q 1019 -91 701 211 
Q 384 513 384 1019 
Q 384 1609 779 1909 
Q 1175 2209 1959 2209 
L 2766 2209 
L 2766 2266 
Q 2766 2663 2505 2880 
Q 2244 3097 1772 3097 
Q 1472 3097 1187 3025 
Q 903 2953 641 2809 
L 641 3341 
Q 956 3463 1253 3523 
Q 1550 3584 1831 3584 
Q 2591 3584 2966 3190 
Q 3341 2797 3341 1997 
z
" transform="scale(0.015625)"/>
      <path id="DejaVuSans-64" d="M 2906 2969 
L 2906 4863 
L 3481 4863 
L 3481 0 
L 2906 0 
L 2906 525 
Q 2725 213 2448 61 
Q 2172 -91 1784 -91 
Q 1150 -91 751 415 
Q 353 922 353 1747 
Q 353 2572 751 3078 
Q 1150 3584 1784 3584 
Q 2172 3584 2448 3432 
Q 2725 3281 2906 2969 
z
M 947 1747 
Q 947 1113 1208 752 
Q 1469 391 1925 391 
Q 2381 391 2643 752 
Q 2906 1113 2906 1747 
Q 2906 2381 2643 2742 
Q 2381 3103 1925 3103 
Q 1469 3103 1208 2742 
Q 947 2381 947 1747 
z
" transform="scale(0.015625)"/>
      <path id="DejaVuSans-76" d="M 191 3500 
L 800 3500 
L 1894 563 
L 2988 3500 
L 3597 3500 
L 2284 0 
L 1503 0 
L 191 3500 
z
" transform="scale(0.015625)"/>
      <path id="DejaVuSans-53" d="M 3425 4513 
L 3425 3897 
Q 3066 4069 2747 4153 
Q 2428 4238 2131 4238 
Q 1616 4238 1336 4038 
Q 1056 3838 1056 3469 
Q 1056 3159 1242 3001 
Q 1428 2844 1947 2747 
L 2328 2669 
Q 3034 2534 3370 2195 
Q 3706 1856 3706 1288 
Q 3706 609 3251 259 
Q 2797 -91 1919 -91 
Q 1588 -91 1214 -16 
Q 841 59 441 206 
L 441 856 
Q 825 641 1194 531 
Q 1563 422 1919 422 
Q 2459 422 2753 634 
Q 3047 847 3047 1241 
Q 3047 1584 2836 1778 
Q 2625 1972 2144 2069 
L 1759 2144 
Q 1053 2284 737 2584 
Q 422 2884 422 3419 
Q 422 4038 858 4394 
Q 1294 4750 2059 4750 
Q 2388 4750 2728 4690 
Q 3069 4631 3425 4513 
z
" transform="scale(0.015625)"/>
      <path id="DejaVuSans-4f" d="M 2522 4238 
Q 1834 4238 1429 3725 
Q 1025 3213 1025 2328 
Q 1025 1447 1429 934 
Q 1834 422 2522 422 
Q 3209 422 3611 934 
Q 4013 1447 4013 2328 
Q 4013 3213 3611 3725 
Q 3209 4238 2522 4238 
z
M 2522 4750 
Q 3503 4750 4090 4092 
Q 4678 3434 4678 2328 
Q 4678 1225 4090 567 
Q 3503 -91 2522 -91 
Q 1538 -91 948 565 
Q 359 1222 359 2328 
Q 359 3434 948 4092 
Q 1538 4750 2522 4750 
z
" transform="scale(0.015625)"/>
      <path id="DejaVuSans-72" d="M 2631 2963 
Q 2534 3019 2420 3045 
Q 2306 3072 2169 3072 
Q 1681 3072 1420 2755 
Q 1159 2438 1159 1844 
L 1159 0 
L 581 0 
L 581 3500 
L 1159 3500 
L 1159 2956 
Q 1341 3275 1631 3429 
Q 1922 3584 2338 3584 
Q 2397 3584 2469 3576 
Q 2541 3569 2628 3553 
L 2631 2963 
z
" transform="scale(0.015625)"/>
      <path id="DejaVuSans-66" d="M 2375 4863 
L 2375 4384 
L 1825 4384 
Q 1516 4384 1395 4259 
Q 1275 4134 1275 3809 
L 1275 3500 
L 2222 3500 
L 2222 3053 
L 1275 3053 
L 1275 0 
L 697 0 
L 697 3053 
L 147 3053 
L 147 3500 
L 697 3500 
L 697 3744 
Q 697 4328 969 4595 
Q 1241 4863 1831 4863 
L 2375 4863 
z
" transform="scale(0.015625)"/>
      <path id="DejaVuSans-47" d="M 3809 666 
L 3809 1919 
L 2778 1919 
L 2778 2438 
L 4434 2438 
L 4434 434 
Q 4069 175 3628 42 
Q 3188 -91 2688 -91 
Q 1594 -91 976 548 
Q 359 1188 359 2328 
Q 359 3472 976 4111 
Q 1594 4750 2688 4750 
Q 3144 4750 3555 4637 
Q 3966 4525 4313 4306 
L 4313 3634 
Q 3963 3931 3569 4081 
Q 3175 4231 2741 4231 
Q 1884 4231 1454 3753 
Q 1025 3275 1025 2328 
Q 1025 1384 1454 906 
Q 1884 428 2741 428 
Q 3075 428 3337 486 
Q 3600 544 3809 666 
z
" transform="scale(0.015625)"/>
      <path id="DejaVuSans-70" d="M 1159 525 
L 1159 -1331 
L 581 -1331 
L 581 3500 
L 1159 3500 
L 1159 2969 
Q 1341 3281 1617 3432 
Q 1894 3584 2278 3584 
Q 2916 3584 3314 3078 
Q 3713 2572 3713 1747 
Q 3713 922 3314 415 
Q 2916 -91 2278 -91 
Q 1894 -91 1617 61 
Q 1341 213 1159 525 
z
M 3116 1747 
Q 3116 2381 2855 2742 
Q 2594 3103 2138 3103 
Q 1681 3103 1420 2742 
Q 1159 2381 1159 1747 
Q 1159 1113 1420 752 
Q 1681 391 2138 391 
Q 2594 391 2855 752 
Q 3116 1113 3116 1747 
z
" transform="scale(0.015625)"/>
      <path id="DejaVuSans-4d" d="M 628 4666 
L 1569 4666 
L 2759 1491 
L 3956 4666 
L 4897 4666 
L 4897 0 
L 4281 0 
L 4281 4097 
L 3078 897 
L 2444 897 
L 1241 4097 
L 1241 0 
L 628 0 
L 628 4666 
z
" transform="scale(0.015625)"/>
      <path id="DejaVuSans-73" d="M 2834 3397 
L 2834 2853 
Q 2591 2978 2328 3040 
Q 2066 3103 1784 3103 
Q 1356 3103 1142 2972 
Q 928 2841 928 2578 
Q 928 2378 1081 2264 
Q 1234 2150 1697 2047 
L 1894 2003 
Q 2506 1872 2764 1633 
Q 3022 1394 3022 966 
Q 3022 478 2636 193 
Q 2250 -91 1575 -91 
Q 1294 -91 989 -36 
Q 684 19 347 128 
L 347 722 
Q 666 556 975 473 
Q 1284 391 1588 391 
Q 1994 391 2212 530 
Q 2431 669 2431 922 
Q 2431 1156 2273 1281 
Q 2116 1406 1581 1522 
L 1381 1569 
Q 847 1681 609 1914 
Q 372 2147 372 2553 
Q 372 3047 722 3315 
Q 1072 3584 1716 3584 
Q 2034 3584 2315 3537 
Q 2597 3491 2834 3397 
z
" transform="scale(0.015625)"/>
     </defs>
     <use xlink:href="#DejaVuSans-50"/>
     <use xlink:href="#DejaVuSans-65" x="56.677734"/>
     <use xlink:href="#DejaVuSans-6c" x="118.201172"/>
     <use xlink:href="#DejaVuSans-6c" x="145.984375"/>
     <use xlink:href="#DejaVuSans-65" x="173.767578"/>
     <use xlink:href="#DejaVuSans-74" x="235.291016"/>
     <use xlink:href="#DejaVuSans-20" x="274.5"/>
     <use xlink:href="#DejaVuSans-43" x="306.287109"/>
     <use xlink:href="#DejaVuSans-6f" x="376.111328"/>
     <use xlink:href="#DejaVuSans-75" x="437.292969"/>
     <use xlink:href="#DejaVuSans-6e" x="500.671875"/>
     <use xlink:href="#DejaVuSans-74" x="564.050781"/>
     <use xlink:href="#DejaVuSans-20" x="603.259766"/>
     <use xlink:href="#DejaVuSans-61" x="635.046875"/>
     <use xlink:href="#DejaVuSans-6e" x="696.326172"/>
     <use xlink:href="#DejaVuSans-64" x="759.705078"/>
     <use xlink:href="#DejaVuSans-20" x="823.181641"/>
     <use xlink:href="#DejaVuSans-43" x="854.96875"/>
     <use xlink:href="#DejaVuSans-75" x="924.792969"/>
     <use xlink:href="#DejaVuSans-6d" x="988.171875"/>
     <use xlink:href="#DejaVuSans-75" x="1085.583984"/>
     <use xlink:href="#DejaVuSans-6c" x="1148.962891"/>
     <use xlink:href="#DejaVuSans-61" x="1176.746094"/>
     <use xlink:href="#DejaVuSans-74" x="1238.025391"/>
     <use xlink:href="#DejaVuSans-69" x="1277.234375"/>
     <use xlink:href="#DejaVuSans-76" x="1305.017578"/>
     <use xlink:href="#DejaVuSans-65" x="1364.197266"/>
     <use xlink:href="#DejaVuSans-20" x="1425.720703"/>
     <use xlink:href="#DejaVuSans-53" x="1457.507812"/>
     <use xlink:href="#DejaVuSans-75" x="1520.984375"/>
     <use xlink:href="#DejaVuSans-6d" x="1584.363281"/>
     <use xlink:href="#DejaVuSans-20" x="1681.775391"/>
     <use xlink:href="#DejaVuSans-4f" x="1713.5625"/>
     <use xlink:href="#DejaVuSans-76" x="1792.273438"/>
     <use xlink:href="#DejaVuSans-65" x="1851.453125"/>
     <use xlink:href="#DejaVuSans-72" x="1912.976562"/>
     <use xlink:href="#DejaVuSans-20" x="1954.089844"/>
     <use xlink:href="#DejaVuSans-54" x="1985.876953"/>
     <use xlink:href="#DejaVuSans-69" x="2043.835938"/>
     <use xlink:href="#DejaVuSans-6d" x="2071.619141"/>
     <use xlink:href="#DejaVuSans-65" x="2169.03125"/>
     <use xlink:href="#DejaVuSans-20" x="2230.554688"/>
     <use xlink:href="#DejaVuSans-6f" x="2262.341797"/>
     <use xlink:href="#DejaVuSans-66" x="2323.523438"/>
     <use xlink:href="#DejaVuSans-20" x="2358.728516"/>
     <use xlink:href="#DejaVuSans-47" x="2390.515625"/>
     <use xlink:href="#DejaVuSans-72" x="2468.005859"/>
     <use xlink:href="#DejaVuSans-6f" x="2506.869141"/>
     <use xlink:href="#DejaVuSans-75" x="2568.050781"/>
     <use xlink:href="#DejaVuSans-70" x="2631.429688"/>
     <use xlink:href="#DejaVuSans-20" x="2694.90625"/>
     <use xlink:href="#DejaVuSans-39" x="2726.693359"/>
     <use xlink:href="#DejaVuSans-20" x="2790.316406"/>
     <use xlink:href="#DejaVuSans-4d" x="2822.103516"/>
     <use xlink:href="#DejaVuSans-6f" x="2908.382812"/>
     <use xlink:href="#DejaVuSans-75" x="2969.564453"/>
     <use xlink:href="#DejaVuSans-73" x="3032.943359"/>
     <use xlink:href="#DejaVuSans-65" x="3085.042969"/>
     <use xlink:href="#DejaVuSans-20" x="3146.566406"/>
     <use xlink:href="#DejaVuSans-33" x="3178.353516"/>
    </g>
   </g>
   <g id="legend_1">
    <g id="patch_59">
     <path d="M 1086.550625 64.233437 
L 1158.235 64.233437 
Q 1160.235 64.233437 1160.235 62.233437 
L 1160.235 33.877187 
Q 1160.235 31.877187 1158.235 31.877187 
L 1086.550625 31.877187 
Q 1084.550625 31.877187 1084.550625 33.877187 
L 1084.550625 62.233437 
Q 1084.550625 64.233437 1086.550625 64.233437 
z
" style="fill: #ffffff; opacity: 0.8; stroke: #cccccc; stroke-linejoin: miter"/>
    </g>
    <g id="patch_60">
     <path d="M 1088.550625 43.475625 
L 1108.550625 43.475625 
L 1108.550625 36.475625 
L 1088.550625 36.475625 
z
" style="fill: #add8e6; opacity: 0.9; stroke: #add8e6; stroke-linejoin: miter"/>
    </g>
    <g id="text_20">
     <!-- Meal -->
     <g transform="translate(1116.550625 43.475625) scale(0.1 -0.1)">
      <use xlink:href="#DejaVuSans-4d"/>
      <use xlink:href="#DejaVuSans-65" x="86.279297"/>
      <use xlink:href="#DejaVuSans-61" x="147.802734"/>
      <use xlink:href="#DejaVuSans-6c" x="209.082031"/>
     </g>
    </g>
    <g id="patch_61">
     <path d="M 1088.550625 58.15375 
L 1108.550625 58.15375 
L 1108.550625 51.15375 
L 1088.550625 51.15375 
z
" style="fill: #808080; opacity: 0.5; stroke: #808080; stroke-linejoin: miter"/>
    </g>
    <g id="text_21">
     <!-- Inactive -->
     <g transform="translate(1116.550625 58.15375) scale(0.1 -0.1)">
      <defs>
       <path id="DejaVuSans-49" d="M 628 4666 
L 1259 4666 
L 1259 0 
L 628 0 
L 628 4666 
z
" transform="scale(0.015625)"/>
       <path id="DejaVuSans-63" d="M 3122 3366 
L 3122 2828 
Q 2878 2963 2633 3030 
Q 2388 3097 2138 3097 
Q 1578 3097 1268 2742 
Q 959 2388 959 1747 
Q 959 1106 1268 751 
Q 1578 397 2138 397 
Q 2388 397 2633 464 
Q 2878 531 3122 666 
L 3122 134 
Q 2881 22 2623 -34 
Q 2366 -91 2075 -91 
Q 1284 -91 818 406 
Q 353 903 353 1747 
Q 353 2603 823 3093 
Q 1294 3584 2113 3584 
Q 2378 3584 2631 3529 
Q 2884 3475 3122 3366 
z
" transform="scale(0.015625)"/>
      </defs>
      <use xlink:href="#DejaVuSans-49"/>
      <use xlink:href="#DejaVuSans-6e" x="29.492188"/>
      <use xlink:href="#DejaVuSans-61" x="92.871094"/>
      <use xlink:href="#DejaVuSans-63" x="154.150391"/>
      <use xlink:href="#DejaVuSans-74" x="209.130859"/>
      <use xlink:href="#DejaVuSans-69" x="248.339844"/>
      <use xlink:href="#DejaVuSans-76" x="276.123047"/>
      <use xlink:href="#DejaVuSans-65" x="335.302734"/>
     </g>
    </g>
   </g>
  </g>
 </g>
 <defs>
  <clipPath id="p760222fa58">
   <rect x="49.235" y="26.877187" width="1116" height="332.64"/>
  </clipPath>
 </defs>
</svg>
