<?xml version="1.0" encoding="utf-8" standalone="no"?>
<!DOCTYPE svg PUBLIC "-//W3C//DTD SVG 1.1//EN"
  "http://www.w3.org/Graphics/SVG/1.1/DTD/svg11.dtd">
<svg xmlns:xlink="http://www.w3.org/1999/xlink" width="1181.531829pt" height="399.009062pt" viewBox="0 0 1181.531829 399.009062" xmlns="http://www.w3.org/2000/svg" version="1.1">
 <metadata>
  <rdf:RDF xmlns:dc="http://purl.org/dc/elements/1.1/" xmlns:cc="http://creativecommons.org/ns#" xmlns:rdf="http://www.w3.org/1999/02/22-rdf-syntax-ns#">
   <cc:Work>
    <dc:type rdf:resource="http://purl.org/dc/dcmitype/StillImage"/>
    <dc:date>2025-05-09T15:04:32.571162</dc:date>
    <dc:format>image/svg+xml</dc:format>
    <dc:creator>
     <cc:Agent>
      <dc:title>Matplotlib v3.8.3, https://matplotlib.org/</dc:title>
     </cc:Agent>
    </dc:creator>
   </cc:Work>
  </rdf:RDF>
 </metadata>
 <defs>
  <style type="text/css">*{stroke-linejoin: round; stroke-linecap: butt}</style>
 </defs>
 <g id="figure_1">
  <g id="patch_1">
   <path d="M 0 399.009062 
L 1181.531829 399.009062 
L 1181.531829 0 
L 0 0 
z
" style="fill: #ffffff"/>
  </g>
  <g id="axes_1">
   <g id="patch_2">
    <path d="M 49.235 359.517187 
L 1165.235 359.517187 
L 1165.235 26.877187 
L 49.235 26.877187 
z
" style="fill: #ffffff"/>
   </g>
   <g id="patch_3">
    <path d="M 139.841963 359.517187 
L 139.841963 26.877187 
L 122.50943 26.877187 
L 122.50943 359.517187 
z
" clip-path="url(#p2ae6ceddde)" style="fill: #add8e6; stroke: #add8e6; stroke-linejoin: miter"/>
   </g>
   <g id="patch_4">
    <path d="M 145.396771 359.517187 
L 145.396771 26.877187 
L 143.02008 26.877187 
L 143.02008 359.517187 
z
" clip-path="url(#p2ae6ceddde)" style="fill: #add8e6; stroke: #add8e6; stroke-linejoin: miter"/>
   </g>
   <g id="patch_5">
    <path d="M 150.966903 359.517187 
L 150.966903 26.877187 
L 128.605161 26.877187 
L 128.605161 359.517187 
z
" clip-path="url(#p2ae6ceddde)" style="fill: #add8e6; stroke: #add8e6; stroke-linejoin: miter"/>
   </g>
   <g id="patch_6">
    <path d="M 157.104008 359.517187 
L 157.104008 26.877187 
L 154.16494 26.877187 
L 154.16494 359.517187 
z
" clip-path="url(#p2ae6ceddde)" style="fill: #add8e6; stroke: #add8e6; stroke-linejoin: miter"/>
   </g>
   <g id="patch_7">
    <path d="M 160.038479 359.517187 
L 160.038479 26.877187 
L 158.582736 26.877187 
L 158.582736 359.517187 
z
" clip-path="url(#p2ae6ceddde)" style="fill: #add8e6; stroke: #add8e6; stroke-linejoin: miter"/>
   </g>
   <g id="patch_8">
    <path d="M 164.09617 359.517187 
L 164.09617 26.877187 
L 159.833142 26.877187 
L 159.833142 359.517187 
z
" clip-path="url(#p2ae6ceddde)" style="fill: #add8e6; stroke: #add8e6; stroke-linejoin: miter"/>
   </g>
   <g id="patch_9">
    <path d="M 180.015867 359.517187 
L 180.015867 26.877187 
L 170.738954 26.877187 
L 170.738954 359.517187 
z
" clip-path="url(#p2ae6ceddde)" style="fill: #add8e6; stroke: #add8e6; stroke-linejoin: miter"/>
   </g>
   <g id="patch_10">
    <path d="M 199.96414 359.517187 
L 199.96414 26.877187 
L 178.235264 26.877187 
L 178.235264 359.517187 
z
" clip-path="url(#p2ae6ceddde)" style="fill: #add8e6; stroke: #add8e6; stroke-linejoin: miter"/>
   </g>
   <g id="patch_11">
    <path d="M 202.975229 359.517187 
L 202.975229 26.877187 
L 194.892026 26.877187 
L 194.892026 359.517187 
z
" clip-path="url(#p2ae6ceddde)" style="fill: #add8e6; stroke: #add8e6; stroke-linejoin: miter"/>
   </g>
   <g id="patch_12">
    <path d="M 222.183372 359.517187 
L 222.183372 26.877187 
L 214.501647 26.877187 
L 214.501647 359.517187 
z
" clip-path="url(#p2ae6ceddde)" style="fill: #add8e6; stroke: #add8e6; stroke-linejoin: miter"/>
   </g>
   <g id="patch_13">
    <path d="M 242.395211 359.517187 
L 242.395211 26.877187 
L 219.003723 26.877187 
L 219.003723 359.517187 
z
" clip-path="url(#p2ae6ceddde)" style="fill: #add8e6; stroke: #add8e6; stroke-linejoin: miter"/>
   </g>
   <g id="patch_14">
    <path d="M 249.191232 359.517187 
L 249.191232 26.877187 
L 248.984363 26.877187 
L 248.984363 359.517187 
z
" clip-path="url(#p2ae6ceddde)" style="fill: #add8e6; stroke: #add8e6; stroke-linejoin: miter"/>
   </g>
   <g id="patch_15">
    <path d="M 265.304006 359.517187 
L 265.304006 26.877187 
L 257.367909 26.877187 
L 257.367909 359.517187 
z
" clip-path="url(#p2ae6ceddde)" style="fill: #add8e6; stroke: #add8e6; stroke-linejoin: miter"/>
   </g>
   <g id="patch_16">
    <path d="M 271.762907 359.517187 
L 271.762907 26.877187 
L 261.258573 26.877187 
L 261.258573 359.517187 
z
" clip-path="url(#p2ae6ceddde)" style="fill: #add8e6; stroke: #add8e6; stroke-linejoin: miter"/>
   </g>
   <g id="patch_17">
    <path d="M 292.95086 359.517187 
L 292.95086 26.877187 
L 291.360269 26.877187 
L 291.360269 359.517187 
z
" clip-path="url(#p2ae6ceddde)" style="fill: #add8e6; stroke: #add8e6; stroke-linejoin: miter"/>
   </g>
   <g id="patch_18">
    <path d="M 300.392004 359.517187 
L 300.392004 26.877187 
L 293.130146 26.877187 
L 293.130146 359.517187 
z
" clip-path="url(#p2ae6ceddde)" style="fill: #add8e6; stroke: #add8e6; stroke-linejoin: miter"/>
   </g>
   <g id="patch_19">
    <path d="M 303.280504 359.517187 
L 303.280504 26.877187 
L 303.6023 26.877187 
L 303.6023 359.517187 
z
" clip-path="url(#p2ae6ceddde)" style="fill: #add8e6; stroke: #add8e6; stroke-linejoin: miter"/>
   </g>
   <g id="patch_20">
    <path d="M 304.005311 359.517187 
L 304.005311 26.877187 
L 304.371545 26.877187 
L 304.371545 359.517187 
z
" clip-path="url(#p2ae6ceddde)" style="fill: #add8e6; stroke: #add8e6; stroke-linejoin: miter"/>
   </g>
   <g id="patch_21">
    <path d="M 331.341095 359.517187 
L 331.341095 26.877187 
L 312.827112 26.877187 
L 312.827112 359.517187 
z
" clip-path="url(#p2ae6ceddde)" style="fill: #add8e6; stroke: #add8e6; stroke-linejoin: miter"/>
   </g>
   <g id="patch_22">
    <path d="M 340.213465 359.517187 
L 340.213465 26.877187 
L 328.866333 26.877187 
L 328.866333 359.517187 
z
" clip-path="url(#p2ae6ceddde)" style="fill: #add8e6; stroke: #add8e6; stroke-linejoin: miter"/>
   </g>
   <g id="patch_23">
    <path d="M 370.071515 359.517187 
L 370.071515 26.877187 
L 346.768904 26.877187 
L 346.768904 359.517187 
z
" clip-path="url(#p2ae6ceddde)" style="fill: #add8e6; stroke: #add8e6; stroke-linejoin: miter"/>
   </g>
   <g id="patch_24">
    <path d="M 371.642185 359.517187 
L 371.642185 26.877187 
L 371.934866 26.877187 
L 371.934866 359.517187 
z
" clip-path="url(#p2ae6ceddde)" style="fill: #add8e6; stroke: #add8e6; stroke-linejoin: miter"/>
   </g>
   <g id="patch_25">
    <path d="M 372.207626 359.517187 
L 372.207626 26.877187 
L 372.371589 26.877187 
L 372.371589 359.517187 
z
" clip-path="url(#p2ae6ceddde)" style="fill: #add8e6; stroke: #add8e6; stroke-linejoin: miter"/>
   </g>
   <g id="patch_26">
    <path d="M 395.934701 359.517187 
L 395.934701 26.877187 
L 396.16762 26.877187 
L 396.16762 359.517187 
z
" clip-path="url(#p2ae6ceddde)" style="fill: #add8e6; stroke: #add8e6; stroke-linejoin: miter"/>
   </g>
   <g id="patch_27">
    <path d="M 430.944549 359.517187 
L 430.944549 26.877187 
L 417.453644 26.877187 
L 417.453644 359.517187 
z
" clip-path="url(#p2ae6ceddde)" style="fill: #add8e6; stroke: #add8e6; stroke-linejoin: miter"/>
   </g>
   <g id="patch_28">
    <path d="M 453.554533 359.517187 
L 453.554533 26.877187 
L 435.665753 26.877187 
L 435.665753 359.517187 
z
" clip-path="url(#p2ae6ceddde)" style="fill: #add8e6; stroke: #add8e6; stroke-linejoin: miter"/>
   </g>
   <g id="patch_29">
    <path d="M 526.372319 359.517187 
L 526.372319 26.877187 
L 505.903043 26.877187 
L 505.903043 359.517187 
z
" clip-path="url(#p2ae6ceddde)" style="fill: #add8e6; stroke: #add8e6; stroke-linejoin: miter"/>
   </g>
   <g id="patch_30">
    <path d="M 534.000411 359.517187 
L 534.000411 26.877187 
L 534.135259 26.877187 
L 534.135259 359.517187 
z
" clip-path="url(#p2ae6ceddde)" style="fill: #add8e6; stroke: #add8e6; stroke-linejoin: miter"/>
   </g>
   <g id="patch_31">
    <path d="M 621.033909 359.517187 
L 621.033909 26.877187 
L 597.398776 26.877187 
L 597.398776 359.517187 
z
" clip-path="url(#p2ae6ceddde)" style="fill: #add8e6; stroke: #add8e6; stroke-linejoin: miter"/>
   </g>
   <g id="patch_32">
    <path d="M 625.172816 359.517187 
L 625.172816 26.877187 
L 624.622698 26.877187 
L 624.622698 359.517187 
z
" clip-path="url(#p2ae6ceddde)" style="fill: #add8e6; stroke: #add8e6; stroke-linejoin: miter"/>
   </g>
   <g id="patch_33">
    <path d="M 625.739789 359.517187 
L 625.739789 26.877187 
L 625.678495 26.877187 
L 625.678495 359.517187 
z
" clip-path="url(#p2ae6ceddde)" style="fill: #add8e6; stroke: #add8e6; stroke-linejoin: miter"/>
   </g>
   <g id="patch_34">
    <path d="M 684.550265 359.517187 
L 684.550265 26.877187 
L 682.873863 26.877187 
L 682.873863 359.517187 
z
" clip-path="url(#p2ae6ceddde)" style="fill: #add8e6; stroke: #add8e6; stroke-linejoin: miter"/>
   </g>
   <g id="patch_35">
    <path d="M 706.475284 359.517187 
L 706.475284 26.877187 
L 706.784821 26.877187 
L 706.784821 359.517187 
z
" clip-path="url(#p2ae6ceddde)" style="fill: #add8e6; stroke: #add8e6; stroke-linejoin: miter"/>
   </g>
   <g id="patch_36">
    <path d="M 713.108874 359.517187 
L 713.108874 26.877187 
L 713.243722 26.877187 
L 713.243722 359.517187 
z
" clip-path="url(#p2ae6ceddde)" style="fill: #add8e6; stroke: #add8e6; stroke-linejoin: miter"/>
   </g>
   <g id="patch_37">
    <path d="M 713.97619 359.517187 
L 713.97619 26.877187 
L 713.879652 26.877187 
L 713.879652 359.517187 
z
" clip-path="url(#p2ae6ceddde)" style="fill: #add8e6; stroke: #add8e6; stroke-linejoin: miter"/>
   </g>
   <g id="patch_38">
    <path d="M 742.393822 359.517187 
L 742.393822 26.877187 
L 742.160903 26.877187 
L 742.160903 359.517187 
z
" clip-path="url(#p2ae6ceddde)" style="fill: #add8e6; stroke: #add8e6; stroke-linejoin: miter"/>
   </g>
   <g id="patch_39">
    <path d="M 765.031388 359.517187 
L 765.031388 26.877187 
L 765.232128 26.877187 
L 765.232128 359.517187 
z
" clip-path="url(#p2ae6ceddde)" style="fill: #add8e6; stroke: #add8e6; stroke-linejoin: miter"/>
   </g>
   <g id="patch_40">
    <path d="M 765.624412 359.517187 
L 765.624412 26.877187 
L 765.537067 26.877187 
L 765.537067 359.517187 
z
" clip-path="url(#p2ae6ceddde)" style="fill: #add8e6; stroke: #add8e6; stroke-linejoin: miter"/>
   </g>
   <g id="patch_41">
    <path d="M 801.569 359.517187 
L 801.569 26.877187 
L 785.313716 26.877187 
L 785.313716 359.517187 
z
" clip-path="url(#p2ae6ceddde)" style="fill: #add8e6; stroke: #add8e6; stroke-linejoin: miter"/>
   </g>
   <g id="patch_42">
    <path d="M 825.519799 359.517187 
L 825.519799 26.877187 
L 810.629849 26.877187 
L 810.629849 359.517187 
z
" clip-path="url(#p2ae6ceddde)" style="fill: #add8e6; stroke: #add8e6; stroke-linejoin: miter"/>
   </g>
   <g id="patch_43">
    <path d="M 837.564155 359.517187 
L 837.564155 26.877187 
L 813.919828 26.877187 
L 813.919828 359.517187 
z
" clip-path="url(#p2ae6ceddde)" style="fill: #add8e6; stroke: #add8e6; stroke-linejoin: miter"/>
   </g>
   <g id="patch_44">
    <path d="M 845.700991 359.517187 
L 845.700991 26.877187 
L 822.543955 26.877187 
L 822.543955 359.517187 
z
" clip-path="url(#p2ae6ceddde)" style="fill: #add8e6; stroke: #add8e6; stroke-linejoin: miter"/>
   </g>
   <g id="patch_45">
    <path d="M 855.393174 359.517187 
L 855.393174 26.877187 
L 855.089766 26.877187 
L 855.089766 359.517187 
z
" clip-path="url(#p2ae6ceddde)" style="fill: #add8e6; stroke: #add8e6; stroke-linejoin: miter"/>
   </g>
   <g id="patch_46">
    <path d="M 861.167109 359.517187 
L 861.167109 26.877187 
L 861.34946 26.877187 
L 861.34946 359.517187 
z
" clip-path="url(#p2ae6ceddde)" style="fill: #add8e6; stroke: #add8e6; stroke-linejoin: miter"/>
   </g>
   <g id="patch_47">
    <path d="M 862.091123 359.517187 
L 862.091123 26.877187 
L 862.204518 26.877187 
L 862.204518 359.517187 
z
" clip-path="url(#p2ae6ceddde)" style="fill: #add8e6; stroke: #add8e6; stroke-linejoin: miter"/>
   </g>
   <g id="patch_48">
    <path d="M 898.858588 359.517187 
L 898.858588 26.877187 
L 875.755184 26.877187 
L 875.755184 359.517187 
z
" clip-path="url(#p2ae6ceddde)" style="fill: #add8e6; stroke: #add8e6; stroke-linejoin: miter"/>
   </g>
   <g id="patch_49">
    <path d="M 910.581149 359.517187 
L 910.581149 26.877187 
L 887.586542 26.877187 
L 887.586542 359.517187 
z
" clip-path="url(#p2ae6ceddde)" style="fill: #add8e6; stroke: #add8e6; stroke-linejoin: miter"/>
   </g>
   <g id="patch_50">
    <path d="M 938.155982 359.517187 
L 938.155982 26.877187 
L 916.126763 26.877187 
L 916.126763 359.517187 
z
" clip-path="url(#p2ae6ceddde)" style="fill: #add8e6; stroke: #add8e6; stroke-linejoin: miter"/>
   </g>
   <g id="patch_51">
    <path d="M 960.237301 359.517187 
L 960.237301 26.877187 
L 936.94082 26.877187 
L 936.94082 359.517187 
z
" clip-path="url(#p2ae6ceddde)" style="fill: #add8e6; stroke: #add8e6; stroke-linejoin: miter"/>
   </g>
   <g id="patch_52">
    <path d="M 968.075327 359.517187 
L 968.075327 26.877187 
L 944.660854 26.877187 
L 944.660854 359.517187 
z
" clip-path="url(#p2ae6ceddde)" style="fill: #add8e6; stroke: #add8e6; stroke-linejoin: miter"/>
   </g>
   <g id="patch_53">
    <path d="M 971.538462 359.517187 
L 971.538462 26.877187 
L 955.608039 26.877187 
L 955.608039 359.517187 
z
" clip-path="url(#p2ae6ceddde)" style="fill: #add8e6; stroke: #add8e6; stroke-linejoin: miter"/>
   </g>
   <g id="patch_54">
    <path d="M 986.26445 359.517187 
L 986.26445 26.877187 
L 983.46023 26.877187 
L 983.46023 359.517187 
z
" clip-path="url(#p2ae6ceddde)" style="fill: #add8e6; stroke: #add8e6; stroke-linejoin: miter"/>
   </g>
   <g id="patch_55">
    <path d="M 1000.722274 359.517187 
L 1000.722274 26.877187 
L 1001.177385 26.877187 
L 1001.177385 359.517187 
z
" clip-path="url(#p2ae6ceddde)" style="fill: #add8e6; stroke: #add8e6; stroke-linejoin: miter"/>
   </g>
   <g id="patch_56">
    <path d="M 1032.649012 359.517187 
L 1032.649012 26.877187 
L 1023.733737 26.877187 
L 1023.733737 359.517187 
z
" clip-path="url(#p2ae6ceddde)" style="fill: #add8e6; stroke: #add8e6; stroke-linejoin: miter"/>
   </g>
   <g id="patch_57">
    <path d="M 1040.007409 359.517187 
L 1040.007409 26.877187 
L 1040.438002 26.877187 
L 1040.438002 359.517187 
z
" clip-path="url(#p2ae6ceddde)" style="fill: #add8e6; stroke: #add8e6; stroke-linejoin: miter"/>
   </g>
   <g id="patch_58">
    <path d="M 1064.519052 359.517187 
L 1064.519052 26.877187 
L 1052.894563 26.877187 
L 1052.894563 359.517187 
z
" clip-path="url(#p2ae6ceddde)" style="fill: #add8e6; stroke: #add8e6; stroke-linejoin: miter"/>
   </g>
   <g id="patch_59">
    <path d="M 1082.71124 359.517187 
L 1082.71124 26.877187 
L 1066.642905 26.877187 
L 1066.642905 359.517187 
z
" clip-path="url(#p2ae6ceddde)" style="fill: #add8e6; stroke: #add8e6; stroke-linejoin: miter"/>
   </g>
   <g id="patch_60">
    <path d="M 1101.474998 359.517187 
L 1101.474998 26.877187 
L 1077.983907 26.877187 
L 1077.983907 359.517187 
z
" clip-path="url(#p2ae6ceddde)" style="fill: #add8e6; stroke: #add8e6; stroke-linejoin: miter"/>
   </g>
   <g id="patch_61">
    <path d="M 1114.507727 359.517187 
L 1114.507727 26.877187 
L 1099.545756 26.877187 
L 1099.545756 359.517187 
z
" clip-path="url(#p2ae6ceddde)" style="fill: #add8e6; stroke: #add8e6; stroke-linejoin: miter"/>
   </g>
   <g id="patch_62">
    <path d="M 357.398891 359.517187 
L 357.398891 26.877187 
L 688.388829 26.877187 
L 688.388829 359.517187 
z
" clip-path="url(#p2ae6ceddde)" style="fill: #808080; opacity: 0.4; stroke: #808080; stroke-linejoin: miter"/>
   </g>
   <g id="patch_63">
    <path d="M 697.582994 26.877187 
L 697.582994 26.877187 
L 697.582994 359.517187 
" clip-path="url(#p2ae6ceddde)" style="fill: #808080; opacity: 0.4; stroke: #808080; stroke-linejoin: miter"/>
   </g>
   <g id="patch_64">
    <path d="M 706.777159 26.877187 
L 706.777159 26.877187 
L 706.777159 359.517187 
" clip-path="url(#p2ae6ceddde)" style="fill: #808080; opacity: 0.4; stroke: #808080; stroke-linejoin: miter"/>
   </g>
   <g id="patch_65">
    <path d="M 1019.378767 359.517187 
L 1019.378767 26.877187 
L 1106.945527 26.877187 
L 1106.945527 359.517187 
z
" clip-path="url(#p2ae6ceddde)" style="fill: #808080; opacity: 0.4; stroke: #808080; stroke-linejoin: miter"/>
   </g>
   <g id="matplotlib.axis_1">
    <g id="xtick_1">
     <g id="line2d_1">
      <defs>
       <path id="madcf510b5b" d="M 0 0 
L 0 3.5 
" style="stroke: #000000; stroke-width: 0.8"/>
      </defs>
      <g>
       <use xlink:href="#madcf510b5b" x="158.881546" y="359.517187" style="stroke: #000000; stroke-width: 0.8"/>
      </g>
     </g>
     <g id="text_1">
      <!-- 04-01 12 -->
      <g transform="translate(136.401078 374.115625) scale(0.1 -0.1)">
       <defs>
        <path id="DejaVuSans-30" d="M 2034 4250 
Q 1547 4250 1301 3770 
Q 1056 3291 1056 2328 
Q 1056 1369 1301 889 
Q 1547 409 2034 409 
Q 2525 409 2770 889 
Q 3016 1369 3016 2328 
Q 3016 3291 2770 3770 
Q 2525 4250 2034 4250 
z
M 2034 4750 
Q 2819 4750 3233 4129 
Q 3647 3509 3647 2328 
Q 3647 1150 3233 529 
Q 2819 -91 2034 -91 
Q 1250 -91 836 529 
Q 422 1150 422 2328 
Q 422 3509 836 4129 
Q 1250 4750 2034 4750 
z
" transform="scale(0.015625)"/>
        <path id="DejaVuSans-34" d="M 2419 4116 
L 825 1625 
L 2419 1625 
L 2419 4116 
z
M 2253 4666 
L 3047 4666 
L 3047 1625 
L 3713 1625 
L 3713 1100 
L 3047 1100 
L 3047 0 
L 2419 0 
L 2419 1100 
L 313 1100 
L 313 1709 
L 2253 4666 
z
" transform="scale(0.015625)"/>
        <path id="DejaVuSans-2d" d="M 313 2009 
L 1997 2009 
L 1997 1497 
L 313 1497 
L 313 2009 
z
" transform="scale(0.015625)"/>
        <path id="DejaVuSans-31" d="M 794 531 
L 1825 531 
L 1825 4091 
L 703 3866 
L 703 4441 
L 1819 4666 
L 2450 4666 
L 2450 531 
L 3481 531 
L 3481 0 
L 794 0 
L 794 531 
z
" transform="scale(0.015625)"/>
        <path id="DejaVuSans-20" transform="scale(0.015625)"/>
        <path id="DejaVuSans-32" d="M 1228 531 
L 3431 531 
L 3431 0 
L 469 0 
L 469 531 
Q 828 903 1448 1529 
Q 2069 2156 2228 2338 
Q 2531 2678 2651 2914 
Q 2772 3150 2772 3378 
Q 2772 3750 2511 3984 
Q 2250 4219 1831 4219 
Q 1534 4219 1204 4116 
Q 875 4013 500 3803 
L 500 4441 
Q 881 4594 1212 4672 
Q 1544 4750 1819 4750 
Q 2544 4750 2975 4387 
Q 3406 4025 3406 3419 
Q 3406 3131 3298 2873 
Q 3191 2616 2906 2266 
Q 2828 2175 2409 1742 
Q 1991 1309 1228 531 
z
" transform="scale(0.015625)"/>
       </defs>
       <use xlink:href="#DejaVuSans-30"/>
       <use xlink:href="#DejaVuSans-34" x="63.623047"/>
       <use xlink:href="#DejaVuSans-2d" x="127.246094"/>
       <use xlink:href="#DejaVuSans-30" x="163.330078"/>
       <use xlink:href="#DejaVuSans-31" x="226.953125"/>
       <use xlink:href="#DejaVuSans-20" x="290.576172"/>
       <use xlink:href="#DejaVuSans-31" x="322.363281"/>
       <use xlink:href="#DejaVuSans-32" x="385.986328"/>
      </g>
     </g>
    </g>
    <g id="xtick_2">
     <g id="line2d_2">
      <g>
       <use xlink:href="#madcf510b5b" x="269.211526" y="359.517187" style="stroke: #000000; stroke-width: 0.8"/>
      </g>
     </g>
     <g id="text_2">
      <!-- 04-01 16 -->
      <g transform="translate(246.731057 374.115625) scale(0.1 -0.1)">
       <defs>
        <path id="DejaVuSans-36" d="M 2113 2584 
Q 1688 2584 1439 2293 
Q 1191 2003 1191 1497 
Q 1191 994 1439 701 
Q 1688 409 2113 409 
Q 2538 409 2786 701 
Q 3034 994 3034 1497 
Q 3034 2003 2786 2293 
Q 2538 2584 2113 2584 
z
M 3366 4563 
L 3366 3988 
Q 3128 4100 2886 4159 
Q 2644 4219 2406 4219 
Q 1781 4219 1451 3797 
Q 1122 3375 1075 2522 
Q 1259 2794 1537 2939 
Q 1816 3084 2150 3084 
Q 2853 3084 3261 2657 
Q 3669 2231 3669 1497 
Q 3669 778 3244 343 
Q 2819 -91 2113 -91 
Q 1303 -91 875 529 
Q 447 1150 447 2328 
Q 447 3434 972 4092 
Q 1497 4750 2381 4750 
Q 2619 4750 2861 4703 
Q 3103 4656 3366 4563 
z
" transform="scale(0.015625)"/>
       </defs>
       <use xlink:href="#DejaVuSans-30"/>
       <use xlink:href="#DejaVuSans-34" x="63.623047"/>
       <use xlink:href="#DejaVuSans-2d" x="127.246094"/>
       <use xlink:href="#DejaVuSans-30" x="163.330078"/>
       <use xlink:href="#DejaVuSans-31" x="226.953125"/>
       <use xlink:href="#DejaVuSans-20" x="290.576172"/>
       <use xlink:href="#DejaVuSans-31" x="322.363281"/>
       <use xlink:href="#DejaVuSans-36" x="385.986328"/>
      </g>
     </g>
    </g>
    <g id="xtick_3">
     <g id="line2d_3">
      <g>
       <use xlink:href="#madcf510b5b" x="379.541505" y="359.517187" style="stroke: #000000; stroke-width: 0.8"/>
      </g>
     </g>
     <g id="text_3">
      <!-- 04-01 20 -->
      <g transform="translate(357.061036 374.115625) scale(0.1 -0.1)">
       <use xlink:href="#DejaVuSans-30"/>
       <use xlink:href="#DejaVuSans-34" x="63.623047"/>
       <use xlink:href="#DejaVuSans-2d" x="127.246094"/>
       <use xlink:href="#DejaVuSans-30" x="163.330078"/>
       <use xlink:href="#DejaVuSans-31" x="226.953125"/>
       <use xlink:href="#DejaVuSans-20" x="290.576172"/>
       <use xlink:href="#DejaVuSans-32" x="322.363281"/>
       <use xlink:href="#DejaVuSans-30" x="385.986328"/>
      </g>
     </g>
    </g>
    <g id="xtick_4">
     <g id="line2d_4">
      <g>
       <use xlink:href="#madcf510b5b" x="489.871484" y="359.517187" style="stroke: #000000; stroke-width: 0.8"/>
      </g>
     </g>
     <g id="text_4">
      <!-- 04-02 00 -->
      <g transform="translate(467.391016 374.115625) scale(0.1 -0.1)">
       <use xlink:href="#DejaVuSans-30"/>
       <use xlink:href="#DejaVuSans-34" x="63.623047"/>
       <use xlink:href="#DejaVuSans-2d" x="127.246094"/>
       <use xlink:href="#DejaVuSans-30" x="163.330078"/>
       <use xlink:href="#DejaVuSans-32" x="226.953125"/>
       <use xlink:href="#DejaVuSans-20" x="290.576172"/>
       <use xlink:href="#DejaVuSans-30" x="322.363281"/>
       <use xlink:href="#DejaVuSans-30" x="385.986328"/>
      </g>
     </g>
    </g>
    <g id="xtick_5">
     <g id="line2d_5">
      <g>
       <use xlink:href="#madcf510b5b" x="600.201464" y="359.517187" style="stroke: #000000; stroke-width: 0.8"/>
      </g>
     </g>
     <g id="text_5">
      <!-- 04-02 04 -->
      <g transform="translate(577.720995 374.115625) scale(0.1 -0.1)">
       <use xlink:href="#DejaVuSans-30"/>
       <use xlink:href="#DejaVuSans-34" x="63.623047"/>
       <use xlink:href="#DejaVuSans-2d" x="127.246094"/>
       <use xlink:href="#DejaVuSans-30" x="163.330078"/>
       <use xlink:href="#DejaVuSans-32" x="226.953125"/>
       <use xlink:href="#DejaVuSans-20" x="290.576172"/>
       <use xlink:href="#DejaVuSans-30" x="322.363281"/>
       <use xlink:href="#DejaVuSans-34" x="385.986328"/>
      </g>
     </g>
    </g>
    <g id="xtick_6">
     <g id="line2d_6">
      <g>
       <use xlink:href="#madcf510b5b" x="710.531443" y="359.517187" style="stroke: #000000; stroke-width: 0.8"/>
      </g>
     </g>
     <g id="text_6">
      <!-- 04-02 08 -->
      <g transform="translate(688.050974 374.115625) scale(0.1 -0.1)">
       <defs>
        <path id="DejaVuSans-38" d="M 2034 2216 
Q 1584 2216 1326 1975 
Q 1069 1734 1069 1313 
Q 1069 891 1326 650 
Q 1584 409 2034 409 
Q 2484 409 2743 651 
Q 3003 894 3003 1313 
Q 3003 1734 2745 1975 
Q 2488 2216 2034 2216 
z
M 1403 2484 
Q 997 2584 770 2862 
Q 544 3141 544 3541 
Q 544 4100 942 4425 
Q 1341 4750 2034 4750 
Q 2731 4750 3128 4425 
Q 3525 4100 3525 3541 
Q 3525 3141 3298 2862 
Q 3072 2584 2669 2484 
Q 3125 2378 3379 2068 
Q 3634 1759 3634 1313 
Q 3634 634 3220 271 
Q 2806 -91 2034 -91 
Q 1263 -91 848 271 
Q 434 634 434 1313 
Q 434 1759 690 2068 
Q 947 2378 1403 2484 
z
M 1172 3481 
Q 1172 3119 1398 2916 
Q 1625 2713 2034 2713 
Q 2441 2713 2670 2916 
Q 2900 3119 2900 3481 
Q 2900 3844 2670 4047 
Q 2441 4250 2034 4250 
Q 1625 4250 1398 4047 
Q 1172 3844 1172 3481 
z
" transform="scale(0.015625)"/>
       </defs>
       <use xlink:href="#DejaVuSans-30"/>
       <use xlink:href="#DejaVuSans-34" x="63.623047"/>
       <use xlink:href="#DejaVuSans-2d" x="127.246094"/>
       <use xlink:href="#DejaVuSans-30" x="163.330078"/>
       <use xlink:href="#DejaVuSans-32" x="226.953125"/>
       <use xlink:href="#DejaVuSans-20" x="290.576172"/>
       <use xlink:href="#DejaVuSans-30" x="322.363281"/>
       <use xlink:href="#DejaVuSans-38" x="385.986328"/>
      </g>
     </g>
    </g>
    <g id="xtick_7">
     <g id="line2d_7">
      <g>
       <use xlink:href="#madcf510b5b" x="820.861423" y="359.517187" style="stroke: #000000; stroke-width: 0.8"/>
      </g>
     </g>
     <g id="text_7">
      <!-- 04-02 12 -->
      <g transform="translate(798.380954 374.115625) scale(0.1 -0.1)">
       <use xlink:href="#DejaVuSans-30"/>
       <use xlink:href="#DejaVuSans-34" x="63.623047"/>
       <use xlink:href="#DejaVuSans-2d" x="127.246094"/>
       <use xlink:href="#DejaVuSans-30" x="163.330078"/>
       <use xlink:href="#DejaVuSans-32" x="226.953125"/>
       <use xlink:href="#DejaVuSans-20" x="290.576172"/>
       <use xlink:href="#DejaVuSans-31" x="322.363281"/>
       <use xlink:href="#DejaVuSans-32" x="385.986328"/>
      </g>
     </g>
    </g>
    <g id="xtick_8">
     <g id="line2d_8">
      <g>
       <use xlink:href="#madcf510b5b" x="931.191402" y="359.517187" style="stroke: #000000; stroke-width: 0.8"/>
      </g>
     </g>
     <g id="text_8">
      <!-- 04-02 16 -->
      <g transform="translate(908.710933 374.115625) scale(0.1 -0.1)">
       <use xlink:href="#DejaVuSans-30"/>
       <use xlink:href="#DejaVuSans-34" x="63.623047"/>
       <use xlink:href="#DejaVuSans-2d" x="127.246094"/>
       <use xlink:href="#DejaVuSans-30" x="163.330078"/>
       <use xlink:href="#DejaVuSans-32" x="226.953125"/>
       <use xlink:href="#DejaVuSans-20" x="290.576172"/>
       <use xlink:href="#DejaVuSans-31" x="322.363281"/>
       <use xlink:href="#DejaVuSans-36" x="385.986328"/>
      </g>
     </g>
    </g>
    <g id="xtick_9">
     <g id="line2d_9">
      <g>
       <use xlink:href="#madcf510b5b" x="1041.521381" y="359.517187" style="stroke: #000000; stroke-width: 0.8"/>
      </g>
     </g>
     <g id="text_9">
      <!-- 04-02 20 -->
      <g transform="translate(1019.040912 374.115625) scale(0.1 -0.1)">
       <use xlink:href="#DejaVuSans-30"/>
       <use xlink:href="#DejaVuSans-34" x="63.623047"/>
       <use xlink:href="#DejaVuSans-2d" x="127.246094"/>
       <use xlink:href="#DejaVuSans-30" x="163.330078"/>
       <use xlink:href="#DejaVuSans-32" x="226.953125"/>
       <use xlink:href="#DejaVuSans-20" x="290.576172"/>
       <use xlink:href="#DejaVuSans-32" x="322.363281"/>
       <use xlink:href="#DejaVuSans-30" x="385.986328"/>
      </g>
     </g>
    </g>
    <g id="xtick_10">
     <g id="line2d_10">
      <g>
       <use xlink:href="#madcf510b5b" x="1151.851361" y="359.517187" style="stroke: #000000; stroke-width: 0.8"/>
      </g>
     </g>
     <g id="text_10">
      <!-- 04-03 00 -->
      <g transform="translate(1129.370892 374.115625) scale(0.1 -0.1)">
       <defs>
        <path id="DejaVuSans-33" d="M 2597 2516 
Q 3050 2419 3304 2112 
Q 3559 1806 3559 1356 
Q 3559 666 3084 287 
Q 2609 -91 1734 -91 
Q 1441 -91 1130 -33 
Q 819 25 488 141 
L 488 750 
Q 750 597 1062 519 
Q 1375 441 1716 441 
Q 2309 441 2620 675 
Q 2931 909 2931 1356 
Q 2931 1769 2642 2001 
Q 2353 2234 1838 2234 
L 1294 2234 
L 1294 2753 
L 1863 2753 
Q 2328 2753 2575 2939 
Q 2822 3125 2822 3475 
Q 2822 3834 2567 4026 
Q 2313 4219 1838 4219 
Q 1578 4219 1281 4162 
Q 984 4106 628 3988 
L 628 4550 
Q 988 4650 1302 4700 
Q 1616 4750 1894 4750 
Q 2613 4750 3031 4423 
Q 3450 4097 3450 3541 
Q 3450 3153 3228 2886 
Q 3006 2619 2597 2516 
z
" transform="scale(0.015625)"/>
       </defs>
       <use xlink:href="#DejaVuSans-30"/>
       <use xlink:href="#DejaVuSans-34" x="63.623047"/>
       <use xlink:href="#DejaVuSans-2d" x="127.246094"/>
       <use xlink:href="#DejaVuSans-30" x="163.330078"/>
       <use xlink:href="#DejaVuSans-33" x="226.953125"/>
       <use xlink:href="#DejaVuSans-20" x="290.576172"/>
       <use xlink:href="#DejaVuSans-30" x="322.363281"/>
       <use xlink:href="#DejaVuSans-30" x="385.986328"/>
      </g>
     </g>
    </g>
    <g id="text_11">
     <!-- Time -->
     <g transform="translate(592.554688 389.313437) scale(0.12 -0.12)">
      <defs>
       <path id="DejaVuSans-54" d="M -19 4666 
L 3928 4666 
L 3928 4134 
L 2272 4134 
L 2272 0 
L 1638 0 
L 1638 4134 
L -19 4134 
L -19 4666 
z
" transform="scale(0.015625)"/>
       <path id="DejaVuSans-69" d="M 603 3500 
L 1178 3500 
L 1178 0 
L 603 0 
L 603 3500 
z
M 603 4863 
L 1178 4863 
L 1178 4134 
L 603 4134 
L 603 4863 
z
" transform="scale(0.015625)"/>
       <path id="DejaVuSans-6d" d="M 3328 2828 
Q 3544 3216 3844 3400 
Q 4144 3584 4550 3584 
Q 5097 3584 5394 3201 
Q 5691 2819 5691 2113 
L 5691 0 
L 5113 0 
L 5113 2094 
Q 5113 2597 4934 2840 
Q 4756 3084 4391 3084 
Q 3944 3084 3684 2787 
Q 3425 2491 3425 1978 
L 3425 0 
L 2847 0 
L 2847 2094 
Q 2847 2600 2669 2842 
Q 2491 3084 2119 3084 
Q 1678 3084 1418 2786 
Q 1159 2488 1159 1978 
L 1159 0 
L 581 0 
L 581 3500 
L 1159 3500 
L 1159 2956 
Q 1356 3278 1631 3431 
Q 1906 3584 2284 3584 
Q 2666 3584 2933 3390 
Q 3200 3197 3328 2828 
z
" transform="scale(0.015625)"/>
       <path id="DejaVuSans-65" d="M 3597 1894 
L 3597 1613 
L 953 1613 
Q 991 1019 1311 708 
Q 1631 397 2203 397 
Q 2534 397 2845 478 
Q 3156 559 3463 722 
L 3463 178 
Q 3153 47 2828 -22 
Q 2503 -91 2169 -91 
Q 1331 -91 842 396 
Q 353 884 353 1716 
Q 353 2575 817 3079 
Q 1281 3584 2069 3584 
Q 2775 3584 3186 3129 
Q 3597 2675 3597 1894 
z
M 3022 2063 
Q 3016 2534 2758 2815 
Q 2500 3097 2075 3097 
Q 1594 3097 1305 2825 
Q 1016 2553 972 2059 
L 3022 2063 
z
" transform="scale(0.015625)"/>
      </defs>
      <use xlink:href="#DejaVuSans-54"/>
      <use xlink:href="#DejaVuSans-69" x="57.958984"/>
      <use xlink:href="#DejaVuSans-6d" x="85.742188"/>
      <use xlink:href="#DejaVuSans-65" x="183.154297"/>
     </g>
    </g>
   </g>
   <g id="matplotlib.axis_2">
    <g id="ytick_1">
     <g id="line2d_11">
      <defs>
       <path id="mad4fe89f1e" d="M 0 0 
L -3.5 0 
" style="stroke: #000000; stroke-width: 0.8"/>
      </defs>
      <g>
       <use xlink:href="#mad4fe89f1e" x="49.235" y="344.397187" style="stroke: #000000; stroke-width: 0.8"/>
      </g>
     </g>
     <g id="text_12">
      <!-- 0 -->
      <g transform="translate(35.8725 348.196406) scale(0.1 -0.1)">
       <use xlink:href="#DejaVuSans-30"/>
      </g>
     </g>
    </g>
    <g id="ytick_2">
     <g id="line2d_12">
      <g>
       <use xlink:href="#mad4fe89f1e" x="49.235" y="305.825759" style="stroke: #000000; stroke-width: 0.8"/>
      </g>
     </g>
     <g id="text_13">
      <!-- 50 -->
      <g transform="translate(29.51 309.624978) scale(0.1 -0.1)">
       <defs>
        <path id="DejaVuSans-35" d="M 691 4666 
L 3169 4666 
L 3169 4134 
L 1269 4134 
L 1269 2991 
Q 1406 3038 1543 3061 
Q 1681 3084 1819 3084 
Q 2600 3084 3056 2656 
Q 3513 2228 3513 1497 
Q 3513 744 3044 326 
Q 2575 -91 1722 -91 
Q 1428 -91 1123 -41 
Q 819 9 494 109 
L 494 744 
Q 775 591 1075 516 
Q 1375 441 1709 441 
Q 2250 441 2565 725 
Q 2881 1009 2881 1497 
Q 2881 1984 2565 2268 
Q 2250 2553 1709 2553 
Q 1456 2553 1204 2497 
Q 953 2441 691 2322 
L 691 4666 
z
" transform="scale(0.015625)"/>
       </defs>
       <use xlink:href="#DejaVuSans-35"/>
       <use xlink:href="#DejaVuSans-30" x="63.623047"/>
      </g>
     </g>
    </g>
    <g id="ytick_3">
     <g id="line2d_13">
      <g>
       <use xlink:href="#mad4fe89f1e" x="49.235" y="267.25433" style="stroke: #000000; stroke-width: 0.8"/>
      </g>
     </g>
     <g id="text_14">
      <!-- 100 -->
      <g transform="translate(23.1475 271.053549) scale(0.1 -0.1)">
       <use xlink:href="#DejaVuSans-31"/>
       <use xlink:href="#DejaVuSans-30" x="63.623047"/>
       <use xlink:href="#DejaVuSans-30" x="127.246094"/>
      </g>
     </g>
    </g>
    <g id="ytick_4">
     <g id="line2d_14">
      <g>
       <use xlink:href="#mad4fe89f1e" x="49.235" y="228.682902" style="stroke: #000000; stroke-width: 0.8"/>
      </g>
     </g>
     <g id="text_15">
      <!-- 150 -->
      <g transform="translate(23.1475 232.482121) scale(0.1 -0.1)">
       <use xlink:href="#DejaVuSans-31"/>
       <use xlink:href="#DejaVuSans-35" x="63.623047"/>
       <use xlink:href="#DejaVuSans-30" x="127.246094"/>
      </g>
     </g>
    </g>
    <g id="ytick_5">
     <g id="line2d_15">
      <g>
       <use xlink:href="#mad4fe89f1e" x="49.235" y="190.111473" style="stroke: #000000; stroke-width: 0.8"/>
      </g>
     </g>
     <g id="text_16">
      <!-- 200 -->
      <g transform="translate(23.1475 193.910692) scale(0.1 -0.1)">
       <use xlink:href="#DejaVuSans-32"/>
       <use xlink:href="#DejaVuSans-30" x="63.623047"/>
       <use xlink:href="#DejaVuSans-30" x="127.246094"/>
      </g>
     </g>
    </g>
    <g id="ytick_6">
     <g id="line2d_16">
      <g>
       <use xlink:href="#mad4fe89f1e" x="49.235" y="151.540045" style="stroke: #000000; stroke-width: 0.8"/>
      </g>
     </g>
     <g id="text_17">
      <!-- 250 -->
      <g transform="translate(23.1475 155.339263) scale(0.1 -0.1)">
       <use xlink:href="#DejaVuSans-32"/>
       <use xlink:href="#DejaVuSans-35" x="63.623047"/>
       <use xlink:href="#DejaVuSans-30" x="127.246094"/>
      </g>
     </g>
    </g>
    <g id="ytick_7">
     <g id="line2d_17">
      <g>
       <use xlink:href="#mad4fe89f1e" x="49.235" y="112.968616" style="stroke: #000000; stroke-width: 0.8"/>
      </g>
     </g>
     <g id="text_18">
      <!-- 300 -->
      <g transform="translate(23.1475 116.767835) scale(0.1 -0.1)">
       <use xlink:href="#DejaVuSans-33"/>
       <use xlink:href="#DejaVuSans-30" x="63.623047"/>
       <use xlink:href="#DejaVuSans-30" x="127.246094"/>
      </g>
     </g>
    </g>
    <g id="ytick_8">
     <g id="line2d_18">
      <g>
       <use xlink:href="#mad4fe89f1e" x="49.235" y="74.397187" style="stroke: #000000; stroke-width: 0.8"/>
      </g>
     </g>
     <g id="text_19">
      <!-- 350 -->
      <g transform="translate(23.1475 78.196406) scale(0.1 -0.1)">
       <use xlink:href="#DejaVuSans-33"/>
       <use xlink:href="#DejaVuSans-35" x="63.623047"/>
       <use xlink:href="#DejaVuSans-30" x="127.246094"/>
      </g>
     </g>
    </g>
    <g id="ytick_9">
     <g id="line2d_19">
      <g>
       <use xlink:href="#mad4fe89f1e" x="49.235" y="35.825759" style="stroke: #000000; stroke-width: 0.8"/>
      </g>
     </g>
     <g id="text_20">
      <!-- 400 -->
      <g transform="translate(23.1475 39.624978) scale(0.1 -0.1)">
       <use xlink:href="#DejaVuSans-34"/>
       <use xlink:href="#DejaVuSans-30" x="63.623047"/>
       <use xlink:href="#DejaVuSans-30" x="127.246094"/>
      </g>
     </g>
    </g>
    <g id="text_21">
     <!-- Pellet_Count -->
     <g transform="translate(16.318125 230.485312) rotate(-90) scale(0.12 -0.12)">
      <defs>
       <path id="DejaVuSans-50" d="M 1259 4147 
L 1259 2394 
L 2053 2394 
Q 2494 2394 2734 2622 
Q 2975 2850 2975 3272 
Q 2975 3691 2734 3919 
Q 2494 4147 2053 4147 
L 1259 4147 
z
M 628 4666 
L 2053 4666 
Q 2838 4666 3239 4311 
Q 3641 3956 3641 3272 
Q 3641 2581 3239 2228 
Q 2838 1875 2053 1875 
L 1259 1875 
L 1259 0 
L 628 0 
L 628 4666 
z
" transform="scale(0.015625)"/>
       <path id="DejaVuSans-6c" d="M 603 4863 
L 1178 4863 
L 1178 0 
L 603 0 
L 603 4863 
z
" transform="scale(0.015625)"/>
       <path id="DejaVuSans-74" d="M 1172 4494 
L 1172 3500 
L 2356 3500 
L 2356 3053 
L 1172 3053 
L 1172 1153 
Q 1172 725 1289 603 
Q 1406 481 1766 481 
L 2356 481 
L 2356 0 
L 1766 0 
Q 1100 0 847 248 
Q 594 497 594 1153 
L 594 3053 
L 172 3053 
L 172 3500 
L 594 3500 
L 594 4494 
L 1172 4494 
z
" transform="scale(0.015625)"/>
       <path id="DejaVuSans-5f" d="M 3263 -1063 
L 3263 -1509 
L -63 -1509 
L -63 -1063 
L 3263 -1063 
z
" transform="scale(0.015625)"/>
       <path id="DejaVuSans-43" d="M 4122 4306 
L 4122 3641 
Q 3803 3938 3442 4084 
Q 3081 4231 2675 4231 
Q 1875 4231 1450 3742 
Q 1025 3253 1025 2328 
Q 1025 1406 1450 917 
Q 1875 428 2675 428 
Q 3081 428 3442 575 
Q 3803 722 4122 1019 
L 4122 359 
Q 3791 134 3420 21 
Q 3050 -91 2638 -91 
Q 1578 -91 968 557 
Q 359 1206 359 2328 
Q 359 3453 968 4101 
Q 1578 4750 2638 4750 
Q 3056 4750 3426 4639 
Q 3797 4528 4122 4306 
z
" transform="scale(0.015625)"/>
       <path id="DejaVuSans-6f" d="M 1959 3097 
Q 1497 3097 1228 2736 
Q 959 2375 959 1747 
Q 959 1119 1226 758 
Q 1494 397 1959 397 
Q 2419 397 2687 759 
Q 2956 1122 2956 1747 
Q 2956 2369 2687 2733 
Q 2419 3097 1959 3097 
z
M 1959 3584 
Q 2709 3584 3137 3096 
Q 3566 2609 3566 1747 
Q 3566 888 3137 398 
Q 2709 -91 1959 -91 
Q 1206 -91 779 398 
Q 353 888 353 1747 
Q 353 2609 779 3096 
Q 1206 3584 1959 3584 
z
" transform="scale(0.015625)"/>
       <path id="DejaVuSans-75" d="M 544 1381 
L 544 3500 
L 1119 3500 
L 1119 1403 
Q 1119 906 1312 657 
Q 1506 409 1894 409 
Q 2359 409 2629 706 
Q 2900 1003 2900 1516 
L 2900 3500 
L 3475 3500 
L 3475 0 
L 2900 0 
L 2900 538 
Q 2691 219 2414 64 
Q 2138 -91 1772 -91 
Q 1169 -91 856 284 
Q 544 659 544 1381 
z
M 1991 3584 
L 1991 3584 
z
" transform="scale(0.015625)"/>
       <path id="DejaVuSans-6e" d="M 3513 2113 
L 3513 0 
L 2938 0 
L 2938 2094 
Q 2938 2591 2744 2837 
Q 2550 3084 2163 3084 
Q 1697 3084 1428 2787 
Q 1159 2491 1159 1978 
L 1159 0 
L 581 0 
L 581 3500 
L 1159 3500 
L 1159 2956 
Q 1366 3272 1645 3428 
Q 1925 3584 2291 3584 
Q 2894 3584 3203 3211 
Q 3513 2838 3513 2113 
z
" transform="scale(0.015625)"/>
      </defs>
      <use xlink:href="#DejaVuSans-50"/>
      <use xlink:href="#DejaVuSans-65" x="56.677734"/>
      <use xlink:href="#DejaVuSans-6c" x="118.201172"/>
      <use xlink:href="#DejaVuSans-6c" x="145.984375"/>
      <use xlink:href="#DejaVuSans-65" x="173.767578"/>
      <use xlink:href="#DejaVuSans-74" x="235.291016"/>
      <use xlink:href="#DejaVuSans-5f" x="274.5"/>
      <use xlink:href="#DejaVuSans-43" x="324.5"/>
      <use xlink:href="#DejaVuSans-6f" x="394.324219"/>
      <use xlink:href="#DejaVuSans-75" x="455.505859"/>
      <use xlink:href="#DejaVuSans-6e" x="518.884766"/>
      <use xlink:href="#DejaVuSans-74" x="582.263672"/>
     </g>
    </g>
   </g>
   <g id="line2d_20">
    <path d="M 99.962273 344.397187 
L 100.084862 344.397187 
L 100.29173 343.625759 
L 103.149583 343.625759 
L 103.379437 342.85433 
L 108.719715 342.85433 
L 108.949569 342.082902 
L 110.068192 342.082902 
L 110.504915 341.311473 
L 112.749824 341.311473 
L 112.849427 340.540045 
L 113.316797 339.768616 
L 114.320494 339.768616 
L 115.362499 338.997187 
L 117.653378 338.997187 
L 117.668702 338.225759 
L 117.921542 338.225759 
L 119.446241 337.45433 
L 120.848351 337.45433 
L 121.009249 336.682902 
L 121.078205 336.682902 
L 121.461295 335.911473 
L 122.526286 335.911473 
L 122.717831 335.140045 
L 123.13923 335.140045 
L 124.365119 334.368616 
L 125.077667 334.368616 
L 126.510424 333.597187 
L 126.740278 333.597187 
L 126.763264 332.825759 
L 127.644371 332.825759 
L 127.667356 332.05433 
L 128.502493 332.05433 
L 129.123099 331.282902 
L 130.387297 331.282902 
L 132.624544 330.511473 
L 134.654922 330.511473 
L 134.81582 329.740045 
L 135.145277 329.740045 
L 135.559015 328.968616 
L 136.348181 328.968616 
L 136.447784 328.197187 
L 136.677638 328.197187 
L 136.715947 327.425759 
L 137.060728 327.425759 
L 137.076052 326.65433 
L 137.244612 326.65433 
L 137.267597 325.882902 
L 138.118057 325.882902 
L 138.141043 325.111473 
L 145.389109 325.111473 
L 145.43508 324.340045 
L 145.887127 324.340045 
L 145.917774 323.568616 
L 146.23957 323.568616 
L 146.270217 322.797187 
L 149.449866 322.797187 
L 149.472851 322.025759 
L 149.718029 322.025759 
L 149.748676 321.25433 
L 151.924628 321.25433 
L 151.955275 320.482902 
L 152.56822 320.482902 
L 152.591205 319.711473 
L 152.851707 319.711473 
L 152.859368 318.940045 
L 153.027928 318.940045 
L 153.03559 318.168616 
L 153.80177 318.168616 
L 153.809432 317.397187 
L 153.97033 317.397187 
L 153.985654 316.625759 
L 158.168999 316.625759 
L 158.184322 315.85433 
L 158.391191 315.85433 
L 158.398853 315.082902 
L 158.690001 315.082902 
L 158.781943 314.311473 
L 159.004135 314.311473 
L 159.027121 313.540045 
L 159.256975 313.540045 
L 159.272298 312.768616 
L 166.482056 312.768616 
L 166.49738 311.997187 
L 166.957088 311.997187 
L 167.26356 311.225759 
L 168.826568 311.225759 
L 168.849554 310.45433 
L 169.071746 310.45433 
L 169.094731 309.682902 
L 169.286276 309.682902 
L 169.293938 308.911473 
L 169.447174 308.911473 
L 169.462498 308.140045 
L 169.738323 308.140045 
L 169.745985 307.368616 
L 169.876235 307.368616 
L 169.891559 306.597187 
L 170.075442 306.597187 
L 170.083104 305.825759 
L 170.228678 305.825759 
L 170.23634 305.05433 
L 170.450871 305.05433 
L 170.458532 304.282902 
L 171.990893 304.282902 
L 175.484676 303.511473 
L 176.450063 303.511473 
L 176.702903 302.740045 
L 176.833153 302.740045 
L 176.886786 301.968616 
L 178.495765 301.197187 
L 191.582126 301.197187 
L 191.59745 300.425759 
L 193.114487 300.425759 
L 193.129811 299.65433 
L 193.352003 299.65433 
L 193.367327 298.882902 
L 193.497577 298.882902 
L 193.520563 298.111473 
L 193.689123 298.111473 
L 193.704446 297.340045 
L 193.888329 297.340045 
L 193.895991 296.568616 
L 194.049227 296.568616 
L 194.056889 295.797187 
L 194.439979 295.797187 
L 194.455303 295.025759 
L 196.677226 295.025759 
L 197.703908 294.25433 
L 199.49677 294.25433 
L 199.711301 293.482902 
L 199.887522 293.482902 
L 199.895184 292.711473 
L 200.783953 292.711473 
L 201.036793 291.940045 
L 213.142443 291.940045 
L 213.180752 291.168616 
L 213.42593 291.168616 
L 213.464239 290.397187 
L 213.632799 290.397187 
L 213.64046 289.625759 
L 213.832006 289.625759 
L 213.839667 288.85433 
L 213.985242 288.85433 
L 214.000565 288.082902 
L 215.640191 288.082902 
L 216.138209 287.311473 
L 217.03464 287.311473 
L 217.915747 286.540045 
L 218.107292 286.540045 
L 218.130278 285.768616 
L 223.026171 285.768616 
L 224.711767 284.997187 
L 225.171476 284.997187 
L 225.523919 284.225759 
L 231.998143 284.225759 
L 232.013467 283.45433 
L 232.182026 283.45433 
L 232.19735 282.682902 
L 232.327601 282.682902 
L 232.342924 281.911473 
L 232.488499 281.911473 
L 232.503822 281.140045 
L 232.66472 281.140045 
L 232.703029 280.368616 
L 232.856265 280.368616 
L 232.879251 279.597187 
L 233.055472 279.597187 
L 233.070796 278.825759 
L 233.530504 278.825759 
L 233.538166 278.05433 
L 234.036183 278.05433 
L 234.082154 277.282902 
L 237.384391 277.282902 
L 237.583598 276.511473 
L 238.196543 276.511473 
L 240.058361 275.740045 
L 240.824541 274.968616 
L 243.759012 274.968616 
L 244.057823 274.197187 
L 244.693753 273.425759 
L 245.329682 273.425759 
L 247.283442 272.65433 
L 254.500862 272.65433 
L 254.516185 271.882902 
L 254.860967 271.882902 
L 254.87629 271.111473 
L 255.251719 271.111473 
L 255.267042 270.340045 
L 258.967694 270.340045 
L 258.983017 269.568616 
L 259.25118 269.568616 
L 259.266504 268.797187 
L 259.557653 268.797187 
L 259.565314 268.025759 
L 259.864125 268.025759 
L 259.88711 267.25433 
L 260.040346 267.25433 
L 260.048008 266.482902 
L 260.247215 266.482902 
L 260.262539 265.711473 
L 260.446422 265.711473 
L 260.461745 264.940045 
L 260.637967 264.940045 
L 260.645629 264.168616 
L 260.806527 264.168616 
L 260.82185 263.397187 
L 290.771843 263.397187 
L 290.817813 262.625759 
L 291.040006 262.625759 
L 291.047668 261.85433 
L 291.361801 261.85433 
L 291.515038 261.082902 
L 291.760215 261.082902 
L 291.767877 260.311473 
L 291.936437 260.311473 
L 291.95176 259.540045 
L 292.135644 259.540045 
L 292.150967 258.768616 
L 292.603014 258.768616 
L 292.625999 257.997187 
L 292.802221 257.997187 
L 292.817544 257.225759 
L 302.984758 257.225759 
L 303.000082 256.45433 
L 303.222274 256.45433 
L 303.229936 255.682902 
L 303.413819 255.682902 
L 303.444467 254.911473 
L 303.620688 254.911473 
L 303.636012 254.140045 
L 303.789248 254.140045 
L 303.79691 253.368616 
L 303.988455 253.368616 
L 303.996116 252.597187 
L 304.18 252.597187 
L 304.187662 251.825759 
L 304.379207 251.825759 
L 306.861631 251.05433 
L 311.481699 251.05433 
L 311.520008 250.282902 
L 311.757524 250.282902 
L 311.933746 249.511473 
L 312.201909 249.511473 
L 312.217232 248.740045 
L 312.439425 248.740045 
L 312.454748 247.968616 
L 314.684333 247.968616 
L 315.734 247.197187 
L 315.979178 247.197187 
L 315.994502 246.425759 
L 316.170723 246.425759 
L 316.178385 245.65433 
L 316.346945 245.65433 
L 316.377592 244.882902 
L 326.6061 244.882902 
L 326.644409 244.111473 
L 326.843616 244.111473 
L 326.851278 243.340045 
L 326.996852 243.340045 
L 327.004514 242.568616 
L 327.203721 242.568616 
L 327.211383 241.797187 
L 327.379943 241.797187 
L 327.533179 241.025759 
L 327.686415 241.025759 
L 327.701738 240.25433 
L 327.893284 240.25433 
L 327.900945 239.482902 
L 328.077167 239.482902 
L 328.09249 238.711473 
L 328.222741 238.711473 
L 328.230403 237.940045 
L 328.414286 237.940045 
L 328.42961 237.168616 
L 328.621155 237.168616 
L 342.197872 236.397187 
L 345.569066 236.397187 
L 345.592051 235.625759 
L 345.8832 235.625759 
L 346.128377 234.85433 
L 346.48082 234.85433 
L 346.580424 232.540045 
L 370.937299 232.540045 
L 370.952623 231.768616 
L 371.182477 231.768616 
L 371.1978 230.997187 
L 371.458302 230.997187 
L 371.465964 230.225759 
L 371.711141 230.225759 
L 371.718803 229.45433 
L 371.887363 229.45433 
L 371.895025 228.682902 
L 372.147864 228.682902 
L 372.155526 227.911473 
L 395.309498 227.911473 
L 395.31716 227.140045 
L 395.547014 227.140045 
L 395.562338 226.368616 
L 395.753883 226.368616 
L 395.769206 225.597187 
L 395.976075 225.597187 
L 395.983737 224.825759 
L 404.802473 224.825759 
L 406.465085 224.05433 
L 406.771557 224.05433 
L 406.786881 223.282902 
L 406.970764 223.282902 
L 406.986087 222.511473 
L 407.154647 222.511473 
L 407.192956 221.740045 
L 407.376839 221.740045 
L 407.392163 220.968616 
L 407.576046 220.968616 
L 407.583708 220.197187 
L 407.736944 220.197187 
L 407.752268 219.425759 
L 411.483567 219.425759 
L 411.491228 218.65433 
L 417.023051 218.65433 
L 417.030713 217.882902 
L 417.199272 217.882902 
L 417.237581 216.340045 
L 417.842864 216.340045 
L 420.493848 215.568616 
L 421.068483 215.568616 
L 427.542708 214.797187 
L 429.075069 214.025759 
L 429.33557 214.025759 
L 429.373879 213.25433 
L 433.940314 213.25433 
L 433.947976 212.482902 
L 434.108874 212.482902 
L 434.124198 211.711473 
L 434.407684 211.711473 
L 434.423008 210.940045 
L 434.576244 210.940045 
L 434.583906 210.168616 
L 434.775451 210.168616 
L 434.790775 209.397187 
L 434.989982 209.397187 
L 435.005305 208.625759 
L 435.143218 208.625759 
L 435.150879 207.85433 
L 435.342425 207.85433 
L 435.380734 207.082902 
L 435.53397 207.082902 
L 435.541631 206.311473 
L 444.406339 206.311473 
L 453.125472 205.540045 
L 456.113576 205.540045 
L 456.121237 204.768616 
L 456.312782 204.768616 
L 496.414665 203.997187 
L 501.892855 203.225759 
L 504.834988 203.225759 
L 504.850312 202.45433 
L 505.041857 202.45433 
L 505.05718 201.682902 
L 505.279373 201.682902 
L 505.287034 200.911473 
L 505.455594 200.911473 
L 505.463256 200.140045 
L 505.647139 200.140045 
L 505.654801 199.368616 
L 533.267943 199.368616 
L 533.283267 198.597187 
L 533.559092 198.597187 
L 533.582077 197.825759 
L 533.758298 197.825759 
L 533.773622 197.05433 
L 534.003476 197.05433 
L 534.011138 196.282902 
L 540.653922 196.282902 
L 554.973834 195.511473 
L 557.509891 195.511473 
L 557.517553 194.740045 
L 558.398661 194.740045 
L 596.791961 193.968616 
L 596.799623 193.197187 
L 596.991168 193.197187 
L 596.99883 192.425759 
L 597.175051 192.425759 
L 597.182713 191.65433 
L 624.083307 191.65433 
L 624.106293 190.882902 
L 624.366794 190.882902 
L 624.374456 190.111473 
L 624.550677 190.111473 
L 624.581325 189.340045 
L 624.765208 189.340045 
L 624.77287 188.568616 
L 624.956753 188.568616 
L 624.964415 187.797187 
L 625.194269 187.797187 
L 625.209592 187.025759 
L 630.16678 187.025759 
L 660.308317 186.25433 
L 660.323641 185.482902 
L 660.499862 185.482902 
L 660.507524 184.711473 
L 660.653098 184.711473 
L 660.66076 183.940045 
L 660.852305 183.940045 
L 660.867629 183.168616 
L 661.097483 183.168616 
L 661.105145 182.397187 
L 681.945252 182.397187 
L 681.975899 181.625759 
L 682.198092 181.625759 
L 682.213415 180.85433 
L 682.443269 180.85433 
L 682.458593 180.082902 
L 682.650138 180.082902 
L 682.6578 179.311473 
L 706.27148 179.311473 
L 706.286804 178.540045 
L 706.508996 178.540045 
L 706.516658 177.768616 
L 706.685217 177.768616 
L 706.692879 176.997187 
L 706.846115 176.997187 
L 706.861439 176.225759 
L 712.944911 176.225759 
L 712.952573 175.45433 
L 713.144118 175.45433 
L 713.15178 174.682902 
L 713.32034 174.682902 
L 713.350987 173.911473 
L 713.519547 173.911473 
L 713.53487 173.140045 
L 717.074624 173.140045 
L 717.266169 172.368616 
L 740.604024 172.368616 
L 740.619348 171.597187 
L 740.780246 171.597187 
L 740.826217 170.825759 
L 741.025424 170.825759 
L 741.040747 170.05433 
L 741.193983 170.05433 
L 741.209307 169.282902 
L 741.423837 169.282902 
L 741.439161 168.511473 
L 764.884282 168.511473 
L 764.907267 167.740045 
L 765.068165 167.740045 
L 765.075827 166.968616 
L 765.236725 166.968616 
L 765.252048 166.197187 
L 765.405284 166.197187 
L 765.412946 165.425759 
L 766.792071 165.425759 
L 767.037249 164.65433 
L 768.454682 164.65433 
L 771.166961 163.882902 
L 777.081874 163.882902 
L 777.089536 163.111473 
L 777.265757 163.111473 
L 777.281081 162.340045 
L 784.19969 162.340045 
L 784.215013 161.568616 
L 784.483177 161.568616 
L 784.490838 160.797187 
L 784.690045 160.797187 
L 784.697707 160.025759 
L 784.873929 160.025759 
L 784.88159 159.25433 
L 785.057812 159.25433 
L 785.065474 158.482902 
L 792.918823 158.482902 
L 793.110368 157.711473 
L 799.837432 157.711473 
L 801.040335 156.940045 
L 801.293175 156.940045 
L 801.300837 156.168616 
L 801.431087 156.168616 
L 801.438749 155.397187 
L 801.584323 155.397187 
L 801.622632 154.625759 
L 801.791192 154.625759 
L 801.798854 153.85433 
L 801.944428 153.85433 
L 802.097664 153.082902 
L 812.433438 153.082902 
L 813.084691 152.311473 
L 813.276236 152.311473 
L 813.299222 151.540045 
L 813.475443 151.540045 
L 813.483105 150.768616 
L 819.122193 150.768616 
L 821.390087 149.997187 
L 821.397749 149.225759 
L 821.543323 149.225759 
L 821.558647 148.45433 
L 821.727206 148.45433 
L 821.757854 147.682902 
L 821.895766 147.682902 
L 821.903428 146.911473 
L 822.071988 146.911473 
L 822.079649 146.140045 
L 822.255871 146.140045 
L 822.263533 145.368616 
L 824.998797 145.368616 
L 827.734061 144.597187 
L 828.990597 144.597187 
L 831.059284 143.825759 
L 831.066946 143.05433 
L 831.220182 143.05433 
L 831.227843 142.282902 
L 831.396403 142.282902 
L 831.404065 141.511473 
L 831.59561 141.511473 
L 831.603272 140.740045 
L 840.996644 140.740045 
L 841.027291 139.968616 
L 841.180527 139.968616 
L 841.211174 139.197187 
L 841.395058 139.197187 
L 841.410381 138.425759 
L 841.555955 138.425759 
L 841.563617 137.65433 
L 841.755162 137.65433 
L 841.762824 136.882902 
L 853.784195 136.882902 
L 853.791857 136.111473 
L 853.983402 136.111473 
L 853.991064 135.340045 
L 854.174947 135.340045 
L 854.182609 134.568616 
L 854.312859 134.568616 
L 854.320521 133.797187 
L 854.489081 133.797187 
L 854.496743 133.025759 
L 854.65764 133.025759 
L 854.665302 132.25433 
L 854.8262 132.25433 
L 854.841524 131.482902 
L 860.871364 131.482902 
L 860.886687 130.711473 
L 861.185498 130.711473 
L 861.193159 129.940045 
L 861.338734 129.940045 
L 861.369381 129.168616 
L 861.522617 129.168616 
L 861.530279 128.397187 
L 861.675853 128.397187 
L 861.691177 127.625759 
L 861.852075 127.625759 
L 861.859736 126.85433 
L 869.743733 126.85433 
L 874.61664 126.082902 
L 874.61664 125.311473 
L 874.731567 125.311473 
L 874.739229 124.540045 
L 874.915451 124.540045 
L 874.923112 123.768616 
L 875.061025 123.768616 
L 875.068687 122.997187 
L 875.198937 122.997187 
L 875.206599 122.225759 
L 875.375159 122.225759 
L 875.390482 121.45433 
L 875.543719 121.45433 
L 875.566704 120.682902 
L 885.810536 120.682902 
L 886.101685 119.911473 
L 886.561393 119.911473 
L 886.569055 119.140045 
L 886.7606 119.140045 
L 886.768262 118.368616 
L 886.921498 118.368616 
L 886.929159 117.597187 
L 887.082396 117.597187 
L 887.090057 116.825759 
L 887.296926 116.825759 
L 887.304588 116.05433 
L 887.519118 116.05433 
L 887.52678 115.282902 
L 889.112774 115.282902 
L 913.837416 114.511473 
L 913.860401 113.740045 
L 914.013637 113.740045 
L 914.028961 112.968616 
L 914.343095 112.968616 
L 914.358418 112.197187 
L 914.526978 112.197187 
L 914.542302 111.425759 
L 914.718523 111.425759 
L 914.733847 110.65433 
L 914.933054 110.65433 
L 914.948377 109.882902 
L 915.155246 109.882902 
L 915.162908 109.111473 
L 915.346791 109.111473 
L 915.377438 108.340045 
L 935.750175 108.340045 
L 935.757837 107.568616 
L 935.934059 107.568616 
L 935.94172 106.797187 
L 936.156251 106.797187 
L 936.163913 106.025759 
L 936.36312 106.025759 
L 936.370781 105.25433 
L 936.554665 105.25433 
L 936.569988 104.482902 
L 936.776857 104.482902 
L 936.784519 103.711473 
L 943.07486 103.711473 
L 943.595863 102.940045 
L 943.764422 102.940045 
L 943.787408 102.168616 
L 943.902335 102.168616 
L 943.917659 101.397187 
L 944.047909 101.397187 
L 944.063233 100.625759 
L 944.254778 100.625759 
L 944.26244 99.85433 
L 944.469308 99.85433 
L 944.47697 99.082902 
L 945.902066 99.082902 
L 947.250543 98.311473 
L 947.258205 97.540045 
L 947.396118 97.540045 
L 947.426765 96.768616 
L 947.602986 96.768616 
L 947.610648 95.997187 
L 947.78687 95.997187 
L 947.794531 95.225759 
L 947.978415 95.225759 
L 947.986076 94.45433 
L 948.185283 94.45433 
L 948.192945 93.682902 
L 955.280114 93.682902 
L 955.295438 92.911473 
L 961.777324 92.911473 
L 961.784986 92.140045 
L 961.93056 92.140045 
L 961.938222 91.368616 
L 962.106781 91.368616 
L 962.137429 90.597187 
L 962.275341 90.597187 
L 962.290665 89.825759 
L 962.459224 89.825759 
L 962.466886 89.05433 
L 962.597137 89.05433 
L 962.612461 88.282902 
L 962.788682 88.282902 
L 962.804006 87.511473 
L 962.94958 87.511473 
L 962.972565 86.740045 
L 981.560102 86.740045 
L 981.567764 85.968616 
L 981.705676 85.968616 
L 981.721 85.197187 
L 981.904883 85.197187 
L 981.927869 84.425759 
L 982.111752 84.425759 
L 982.119414 83.65433 
L 982.295635 83.65433 
L 982.303297 82.882902 
L 982.517828 82.882902 
L 982.525489 82.111473 
L 982.755344 82.111473 
L 982.770667 81.340045 
L 1000.362169 81.340045 
L 1000.377493 80.568616 
L 1000.592024 80.568616 
L 1000.615009 79.797187 
L 1000.814216 79.797187 
L 1000.821878 79.025759 
L 1001.005761 79.025759 
L 1001.021085 78.25433 
L 1001.204968 78.25433 
L 1001.21263 77.482902 
L 1003.748687 77.482902 
L 1008.169548 76.711473 
L 1021.999104 76.711473 
L 1022.060399 75.940045 
L 1022.40518 75.940045 
L 1022.412842 75.168616 
L 1022.70399 75.168616 
L 1022.711652 74.397187 
L 1023.186684 74.397187 
L 1023.232655 73.625759 
L 1039.491003 73.625759 
L 1039.506327 72.85433 
L 1039.782152 72.85433 
L 1039.789813 72.082902 
L 1040.027329 72.082902 
L 1040.042653 71.311473 
L 1040.24186 71.311473 
L 1040.249522 70.540045 
L 1041.628646 70.540045 
L 1041.64397 69.768616 
L 1047.612515 69.768616 
L 1047.896002 68.997187 
L 1050.953062 68.997187 
L 1050.960724 68.225759 
L 1051.32849 68.225759 
L 1051.336152 67.45433 
L 1051.504712 67.45433 
L 1051.512374 66.682902 
L 1051.680933 66.682902 
L 1051.696257 65.911473 
L 1051.972082 65.911473 
L 1051.979744 65.140045 
L 1052.178951 65.140045 
L 1052.186613 64.368616 
L 1052.378158 64.368616 
L 1052.393481 63.597187 
L 1056.20906 63.597187 
L 1058.469292 62.825759 
L 1058.484616 62.05433 
L 1058.660837 62.05433 
L 1058.691484 61.282902 
L 1058.867706 61.282902 
L 1058.875368 60.511473 
L 1059.089898 60.511473 
L 1059.09756 59.740045 
L 1059.319752 59.740045 
L 1059.327414 58.968616 
L 1059.518959 58.968616 
L 1059.526621 58.197187 
L 1066.008507 58.197187 
L 1066.016169 57.425759 
L 1066.177067 57.425759 
L 1066.184729 56.65433 
L 1066.36095 56.65433 
L 1066.368612 55.882902 
L 1066.575481 55.882902 
L 1066.583142 55.111473 
L 1076.137412 55.111473 
L 1076.995534 54.340045 
L 1077.225388 54.340045 
L 1077.23305 53.568616 
L 1077.378624 53.568616 
L 1077.386286 52.797187 
L 1077.539522 52.797187 
L 1077.547184 52.025759 
L 1077.715744 52.025759 
L 1077.723406 51.25433 
L 1077.884304 51.25433 
L 1077.891965 50.482902 
L 1078.466601 50.482902 
L 1090.281103 49.711473 
L 1090.288764 48.940045 
L 1097.782009 48.940045 
L 1097.789671 48.168616 
L 1097.996539 48.168616 
L 1098.004201 47.397187 
L 1098.188084 47.397187 
L 1098.195746 46.625759 
L 1098.448586 46.625759 
L 1098.456248 45.85433 
L 1098.816352 45.85433 
L 1098.824014 45.082902 
L 1099.000236 45.082902 
L 1099.023221 44.311473 
L 1099.214766 44.311473 
L 1099.23009 43.540045 
L 1099.413973 43.540045 
L 1099.421635 42.768616 
L 1105.742623 42.768616 
L 1106.945527 41.997187 
L 1106.945527 41.997187 
" clip-path="url(#p2ae6ceddde)" style="fill: none; stroke: #0000ff; stroke-width: 1.5; stroke-linecap: square"/>
   </g>
   <g id="patch_66">
    <path d="M 49.235 359.517187 
L 49.235 26.877187 
" style="fill: none; stroke: #000000; stroke-width: 0.8; stroke-linejoin: miter; stroke-linecap: square"/>
   </g>
   <g id="patch_67">
    <path d="M 1165.235 359.517187 
L 1165.235 26.877187 
" style="fill: none; stroke: #000000; stroke-width: 0.8; stroke-linejoin: miter; stroke-linecap: square"/>
   </g>
   <g id="patch_68">
    <path d="M 49.235 359.517187 
L 1165.235 359.517187 
" style="fill: none; stroke: #000000; stroke-width: 0.8; stroke-linejoin: miter; stroke-linecap: square"/>
   </g>
   <g id="patch_69">
    <path d="M 49.235 26.877187 
L 1165.235 26.877187 
" style="fill: none; stroke: #000000; stroke-width: 0.8; stroke-linejoin: miter; stroke-linecap: square"/>
   </g>
   <g id="text_22">
    <!-- Pellet Count and Cumulative Sum Over Time of Group 3 Mouse 1 -->
    <g transform="translate(315.460625 20.877187) scale(0.18 -0.18)">
     <defs>
      <path id="DejaVuSans-61" d="M 2194 1759 
Q 1497 1759 1228 1600 
Q 959 1441 959 1056 
Q 959 750 1161 570 
Q 1363 391 1709 391 
Q 2188 391 2477 730 
Q 2766 1069 2766 1631 
L 2766 1759 
L 2194 1759 
z
M 3341 1997 
L 3341 0 
L 2766 0 
L 2766 531 
Q 2569 213 2275 61 
Q 1981 -91 1556 -91 
Q 1019 -91 701 211 
Q 384 513 384 1019 
Q 384 1609 779 1909 
Q 1175 2209 1959 2209 
L 2766 2209 
L 2766 2266 
Q 2766 2663 2505 2880 
Q 2244 3097 1772 3097 
Q 1472 3097 1187 3025 
Q 903 2953 641 2809 
L 641 3341 
Q 956 3463 1253 3523 
Q 1550 3584 1831 3584 
Q 2591 3584 2966 3190 
Q 3341 2797 3341 1997 
z
" transform="scale(0.015625)"/>
      <path id="DejaVuSans-64" d="M 2906 2969 
L 2906 4863 
L 3481 4863 
L 3481 0 
L 2906 0 
L 2906 525 
Q 2725 213 2448 61 
Q 2172 -91 1784 -91 
Q 1150 -91 751 415 
Q 353 922 353 1747 
Q 353 2572 751 3078 
Q 1150 3584 1784 3584 
Q 2172 3584 2448 3432 
Q 2725 3281 2906 2969 
z
M 947 1747 
Q 947 1113 1208 752 
Q 1469 391 1925 391 
Q 2381 391 2643 752 
Q 2906 1113 2906 1747 
Q 2906 2381 2643 2742 
Q 2381 3103 1925 3103 
Q 1469 3103 1208 2742 
Q 947 2381 947 1747 
z
" transform="scale(0.015625)"/>
      <path id="DejaVuSans-76" d="M 191 3500 
L 800 3500 
L 1894 563 
L 2988 3500 
L 3597 3500 
L 2284 0 
L 1503 0 
L 191 3500 
z
" transform="scale(0.015625)"/>
      <path id="DejaVuSans-53" d="M 3425 4513 
L 3425 3897 
Q 3066 4069 2747 4153 
Q 2428 4238 2131 4238 
Q 1616 4238 1336 4038 
Q 1056 3838 1056 3469 
Q 1056 3159 1242 3001 
Q 1428 2844 1947 2747 
L 2328 2669 
Q 3034 2534 3370 2195 
Q 3706 1856 3706 1288 
Q 3706 609 3251 259 
Q 2797 -91 1919 -91 
Q 1588 -91 1214 -16 
Q 841 59 441 206 
L 441 856 
Q 825 641 1194 531 
Q 1563 422 1919 422 
Q 2459 422 2753 634 
Q 3047 847 3047 1241 
Q 3047 1584 2836 1778 
Q 2625 1972 2144 2069 
L 1759 2144 
Q 1053 2284 737 2584 
Q 422 2884 422 3419 
Q 422 4038 858 4394 
Q 1294 4750 2059 4750 
Q 2388 4750 2728 4690 
Q 3069 4631 3425 4513 
z
" transform="scale(0.015625)"/>
      <path id="DejaVuSans-4f" d="M 2522 4238 
Q 1834 4238 1429 3725 
Q 1025 3213 1025 2328 
Q 1025 1447 1429 934 
Q 1834 422 2522 422 
Q 3209 422 3611 934 
Q 4013 1447 4013 2328 
Q 4013 3213 3611 3725 
Q 3209 4238 2522 4238 
z
M 2522 4750 
Q 3503 4750 4090 4092 
Q 4678 3434 4678 2328 
Q 4678 1225 4090 567 
Q 3503 -91 2522 -91 
Q 1538 -91 948 565 
Q 359 1222 359 2328 
Q 359 3434 948 4092 
Q 1538 4750 2522 4750 
z
" transform="scale(0.015625)"/>
      <path id="DejaVuSans-72" d="M 2631 2963 
Q 2534 3019 2420 3045 
Q 2306 3072 2169 3072 
Q 1681 3072 1420 2755 
Q 1159 2438 1159 1844 
L 1159 0 
L 581 0 
L 581 3500 
L 1159 3500 
L 1159 2956 
Q 1341 3275 1631 3429 
Q 1922 3584 2338 3584 
Q 2397 3584 2469 3576 
Q 2541 3569 2628 3553 
L 2631 2963 
z
" transform="scale(0.015625)"/>
      <path id="DejaVuSans-66" d="M 2375 4863 
L 2375 4384 
L 1825 4384 
Q 1516 4384 1395 4259 
Q 1275 4134 1275 3809 
L 1275 3500 
L 2222 3500 
L 2222 3053 
L 1275 3053 
L 1275 0 
L 697 0 
L 697 3053 
L 147 3053 
L 147 3500 
L 697 3500 
L 697 3744 
Q 697 4328 969 4595 
Q 1241 4863 1831 4863 
L 2375 4863 
z
" transform="scale(0.015625)"/>
      <path id="DejaVuSans-47" d="M 3809 666 
L 3809 1919 
L 2778 1919 
L 2778 2438 
L 4434 2438 
L 4434 434 
Q 4069 175 3628 42 
Q 3188 -91 2688 -91 
Q 1594 -91 976 548 
Q 359 1188 359 2328 
Q 359 3472 976 4111 
Q 1594 4750 2688 4750 
Q 3144 4750 3555 4637 
Q 3966 4525 4313 4306 
L 4313 3634 
Q 3963 3931 3569 4081 
Q 3175 4231 2741 4231 
Q 1884 4231 1454 3753 
Q 1025 3275 1025 2328 
Q 1025 1384 1454 906 
Q 1884 428 2741 428 
Q 3075 428 3337 486 
Q 3600 544 3809 666 
z
" transform="scale(0.015625)"/>
      <path id="DejaVuSans-70" d="M 1159 525 
L 1159 -1331 
L 581 -1331 
L 581 3500 
L 1159 3500 
L 1159 2969 
Q 1341 3281 1617 3432 
Q 1894 3584 2278 3584 
Q 2916 3584 3314 3078 
Q 3713 2572 3713 1747 
Q 3713 922 3314 415 
Q 2916 -91 2278 -91 
Q 1894 -91 1617 61 
Q 1341 213 1159 525 
z
M 3116 1747 
Q 3116 2381 2855 2742 
Q 2594 3103 2138 3103 
Q 1681 3103 1420 2742 
Q 1159 2381 1159 1747 
Q 1159 1113 1420 752 
Q 1681 391 2138 391 
Q 2594 391 2855 752 
Q 3116 1113 3116 1747 
z
" transform="scale(0.015625)"/>
      <path id="DejaVuSans-4d" d="M 628 4666 
L 1569 4666 
L 2759 1491 
L 3956 4666 
L 4897 4666 
L 4897 0 
L 4281 0 
L 4281 4097 
L 3078 897 
L 2444 897 
L 1241 4097 
L 1241 0 
L 628 0 
L 628 4666 
z
" transform="scale(0.015625)"/>
      <path id="DejaVuSans-73" d="M 2834 3397 
L 2834 2853 
Q 2591 2978 2328 3040 
Q 2066 3103 1784 3103 
Q 1356 3103 1142 2972 
Q 928 2841 928 2578 
Q 928 2378 1081 2264 
Q 1234 2150 1697 2047 
L 1894 2003 
Q 2506 1872 2764 1633 
Q 3022 1394 3022 966 
Q 3022 478 2636 193 
Q 2250 -91 1575 -91 
Q 1294 -91 989 -36 
Q 684 19 347 128 
L 347 722 
Q 666 556 975 473 
Q 1284 391 1588 391 
Q 1994 391 2212 530 
Q 2431 669 2431 922 
Q 2431 1156 2273 1281 
Q 2116 1406 1581 1522 
L 1381 1569 
Q 847 1681 609 1914 
Q 372 2147 372 2553 
Q 372 3047 722 3315 
Q 1072 3584 1716 3584 
Q 2034 3584 2315 3537 
Q 2597 3491 2834 3397 
z
" transform="scale(0.015625)"/>
     </defs>
     <use xlink:href="#DejaVuSans-50"/>
     <use xlink:href="#DejaVuSans-65" x="56.677734"/>
     <use xlink:href="#DejaVuSans-6c" x="118.201172"/>
     <use xlink:href="#DejaVuSans-6c" x="145.984375"/>
     <use xlink:href="#DejaVuSans-65" x="173.767578"/>
     <use xlink:href="#DejaVuSans-74" x="235.291016"/>
     <use xlink:href="#DejaVuSans-20" x="274.5"/>
     <use xlink:href="#DejaVuSans-43" x="306.287109"/>
     <use xlink:href="#DejaVuSans-6f" x="376.111328"/>
     <use xlink:href="#DejaVuSans-75" x="437.292969"/>
     <use xlink:href="#DejaVuSans-6e" x="500.671875"/>
     <use xlink:href="#DejaVuSans-74" x="564.050781"/>
     <use xlink:href="#DejaVuSans-20" x="603.259766"/>
     <use xlink:href="#DejaVuSans-61" x="635.046875"/>
     <use xlink:href="#DejaVuSans-6e" x="696.326172"/>
     <use xlink:href="#DejaVuSans-64" x="759.705078"/>
     <use xlink:href="#DejaVuSans-20" x="823.181641"/>
     <use xlink:href="#DejaVuSans-43" x="854.96875"/>
     <use xlink:href="#DejaVuSans-75" x="924.792969"/>
     <use xlink:href="#DejaVuSans-6d" x="988.171875"/>
     <use xlink:href="#DejaVuSans-75" x="1085.583984"/>
     <use xlink:href="#DejaVuSans-6c" x="1148.962891"/>
     <use xlink:href="#DejaVuSans-61" x="1176.746094"/>
     <use xlink:href="#DejaVuSans-74" x="1238.025391"/>
     <use xlink:href="#DejaVuSans-69" x="1277.234375"/>
     <use xlink:href="#DejaVuSans-76" x="1305.017578"/>
     <use xlink:href="#DejaVuSans-65" x="1364.197266"/>
     <use xlink:href="#DejaVuSans-20" x="1425.720703"/>
     <use xlink:href="#DejaVuSans-53" x="1457.507812"/>
     <use xlink:href="#DejaVuSans-75" x="1520.984375"/>
     <use xlink:href="#DejaVuSans-6d" x="1584.363281"/>
     <use xlink:href="#DejaVuSans-20" x="1681.775391"/>
     <use xlink:href="#DejaVuSans-4f" x="1713.5625"/>
     <use xlink:href="#DejaVuSans-76" x="1792.273438"/>
     <use xlink:href="#DejaVuSans-65" x="1851.453125"/>
     <use xlink:href="#DejaVuSans-72" x="1912.976562"/>
     <use xlink:href="#DejaVuSans-20" x="1954.089844"/>
     <use xlink:href="#DejaVuSans-54" x="1985.876953"/>
     <use xlink:href="#DejaVuSans-69" x="2043.835938"/>
     <use xlink:href="#DejaVuSans-6d" x="2071.619141"/>
     <use xlink:href="#DejaVuSans-65" x="2169.03125"/>
     <use xlink:href="#DejaVuSans-20" x="2230.554688"/>
     <use xlink:href="#DejaVuSans-6f" x="2262.341797"/>
     <use xlink:href="#DejaVuSans-66" x="2323.523438"/>
     <use xlink:href="#DejaVuSans-20" x="2358.728516"/>
     <use xlink:href="#DejaVuSans-47" x="2390.515625"/>
     <use xlink:href="#DejaVuSans-72" x="2468.005859"/>
     <use xlink:href="#DejaVuSans-6f" x="2506.869141"/>
     <use xlink:href="#DejaVuSans-75" x="2568.050781"/>
     <use xlink:href="#DejaVuSans-70" x="2631.429688"/>
     <use xlink:href="#DejaVuSans-20" x="2694.90625"/>
     <use xlink:href="#DejaVuSans-33" x="2726.693359"/>
     <use xlink:href="#DejaVuSans-20" x="2790.316406"/>
     <use xlink:href="#DejaVuSans-4d" x="2822.103516"/>
     <use xlink:href="#DejaVuSans-6f" x="2908.382812"/>
     <use xlink:href="#DejaVuSans-75" x="2969.564453"/>
     <use xlink:href="#DejaVuSans-73" x="3032.943359"/>
     <use xlink:href="#DejaVuSans-65" x="3085.042969"/>
     <use xlink:href="#DejaVuSans-20" x="3146.566406"/>
     <use xlink:href="#DejaVuSans-31" x="3178.353516"/>
    </g>
   </g>
   <g id="legend_1">
    <g id="patch_70">
     <path d="M 1086.550625 64.233437 
L 1158.235 64.233437 
Q 1160.235 64.233437 1160.235 62.233437 
L 1160.235 33.877187 
Q 1160.235 31.877187 1158.235 31.877187 
L 1086.550625 31.877187 
Q 1084.550625 31.877187 1084.550625 33.877187 
L 1084.550625 62.233437 
Q 1084.550625 64.233437 1086.550625 64.233437 
z
" style="fill: #ffffff; opacity: 0.8; stroke: #cccccc; stroke-linejoin: miter"/>
    </g>
    <g id="patch_71">
     <path d="M 1088.550625 43.475625 
L 1108.550625 43.475625 
L 1108.550625 36.475625 
L 1088.550625 36.475625 
z
" style="fill: #add8e6; opacity: 0.9; stroke: #add8e6; stroke-linejoin: miter"/>
    </g>
    <g id="text_23">
     <!-- Meal -->
     <g transform="translate(1116.550625 43.475625) scale(0.1 -0.1)">
      <use xlink:href="#DejaVuSans-4d"/>
      <use xlink:href="#DejaVuSans-65" x="86.279297"/>
      <use xlink:href="#DejaVuSans-61" x="147.802734"/>
      <use xlink:href="#DejaVuSans-6c" x="209.082031"/>
     </g>
    </g>
    <g id="patch_72">
     <path d="M 1088.550625 58.15375 
L 1108.550625 58.15375 
L 1108.550625 51.15375 
L 1088.550625 51.15375 
z
" style="fill: #808080; opacity: 0.5; stroke: #808080; stroke-linejoin: miter"/>
    </g>
    <g id="text_24">
     <!-- Inactive -->
     <g transform="translate(1116.550625 58.15375) scale(0.1 -0.1)">
      <defs>
       <path id="DejaVuSans-49" d="M 628 4666 
L 1259 4666 
L 1259 0 
L 628 0 
L 628 4666 
z
" transform="scale(0.015625)"/>
       <path id="DejaVuSans-63" d="M 3122 3366 
L 3122 2828 
Q 2878 2963 2633 3030 
Q 2388 3097 2138 3097 
Q 1578 3097 1268 2742 
Q 959 2388 959 1747 
Q 959 1106 1268 751 
Q 1578 397 2138 397 
Q 2388 397 2633 464 
Q 2878 531 3122 666 
L 3122 134 
Q 2881 22 2623 -34 
Q 2366 -91 2075 -91 
Q 1284 -91 818 406 
Q 353 903 353 1747 
Q 353 2603 823 3093 
Q 1294 3584 2113 3584 
Q 2378 3584 2631 3529 
Q 2884 3475 3122 3366 
z
" transform="scale(0.015625)"/>
      </defs>
      <use xlink:href="#DejaVuSans-49"/>
      <use xlink:href="#DejaVuSans-6e" x="29.492188"/>
      <use xlink:href="#DejaVuSans-61" x="92.871094"/>
      <use xlink:href="#DejaVuSans-63" x="154.150391"/>
      <use xlink:href="#DejaVuSans-74" x="209.130859"/>
      <use xlink:href="#DejaVuSans-69" x="248.339844"/>
      <use xlink:href="#DejaVuSans-76" x="276.123047"/>
      <use xlink:href="#DejaVuSans-65" x="335.302734"/>
     </g>
    </g>
   </g>
  </g>
 </g>
 <defs>
  <clipPath id="p2ae6ceddde">
   <rect x="49.235" y="26.877187" width="1116" height="332.64"/>
  </clipPath>
 </defs>
</svg>
