<?xml version="1.0" encoding="utf-8" standalone="no"?>
<!DOCTYPE svg PUBLIC "-//W3C//DTD SVG 1.1//EN"
  "http://www.w3.org/Graphics/SVG/1.1/DTD/svg11.dtd">
<svg xmlns:xlink="http://www.w3.org/1999/xlink" width="1172.435pt" height="399.009062pt" viewBox="0 0 1172.435 399.009062" xmlns="http://www.w3.org/2000/svg" version="1.1">
 <metadata>
  <rdf:RDF xmlns:dc="http://purl.org/dc/elements/1.1/" xmlns:cc="http://creativecommons.org/ns#" xmlns:rdf="http://www.w3.org/1999/02/22-rdf-syntax-ns#">
   <cc:Work>
    <dc:type rdf:resource="http://purl.org/dc/dcmitype/StillImage"/>
    <dc:date>2025-05-14T10:49:52.147667</dc:date>
    <dc:format>image/svg+xml</dc:format>
    <dc:creator>
     <cc:Agent>
      <dc:title>Matplotlib v3.8.3, https://matplotlib.org/</dc:title>
     </cc:Agent>
    </dc:creator>
   </cc:Work>
  </rdf:RDF>
 </metadata>
 <defs>
  <style type="text/css">*{stroke-linejoin: round; stroke-linecap: butt}</style>
 </defs>
 <g id="figure_1">
  <g id="patch_1">
   <path d="M 0 399.009062 
L 1172.435 399.009062 
L 1172.435 0 
L 0 0 
z
" style="fill: #ffffff"/>
  </g>
  <g id="axes_1">
   <g id="patch_2">
    <path d="M 49.235 359.517187 
L 1165.235 359.517187 
L 1165.235 26.877187 
L 49.235 26.877187 
z
" style="fill: #ffffff"/>
   </g>
   <g id="patch_3">
    <path d="M 159.799803 359.517187 
L 159.799803 26.877187 
L 159.799803 26.877187 
z
" clip-path="url(#p06de05266f)" style="fill: #add8e6; stroke: #add8e6; stroke-linejoin: miter"/>
   </g>
   <g id="patch_4">
    <path d="M 178.006465 359.517187 
L 178.006465 26.877187 
L 155.665988 26.877187 
L 155.665988 359.517187 
z
" clip-path="url(#p06de05266f)" style="fill: #add8e6; stroke: #add8e6; stroke-linejoin: miter"/>
   </g>
   <g id="patch_5">
    <path d="M 207.526373 359.517187 
L 207.526373 26.877187 
L 207.081709 26.877187 
L 207.081709 359.517187 
z
" clip-path="url(#p06de05266f)" style="fill: #add8e6; stroke: #add8e6; stroke-linejoin: miter"/>
   </g>
   <g id="patch_6">
    <path d="M 252.663164 359.517187 
L 252.663164 26.877187 
L 252.055381 26.877187 
L 252.055381 359.517187 
z
" clip-path="url(#p06de05266f)" style="fill: #add8e6; stroke: #add8e6; stroke-linejoin: miter"/>
   </g>
   <g id="patch_7">
    <path d="M 260.524116 359.517187 
L 260.524116 26.877187 
L 260.975484 26.877187 
L 260.975484 359.517187 
z
" clip-path="url(#p06de05266f)" style="fill: #add8e6; stroke: #add8e6; stroke-linejoin: miter"/>
   </g>
   <g id="patch_8">
    <path d="M 269.938042 359.517187 
L 269.938042 26.877187 
L 266.954991 26.877187 
L 266.954991 359.517187 
z
" clip-path="url(#p06de05266f)" style="fill: #add8e6; stroke: #add8e6; stroke-linejoin: miter"/>
   </g>
   <g id="patch_9">
    <path d="M 274.762315 359.517187 
L 274.762315 26.877187 
L 273.37246 26.877187 
L 273.37246 359.517187 
z
" clip-path="url(#p06de05266f)" style="fill: #add8e6; stroke: #add8e6; stroke-linejoin: miter"/>
   </g>
   <g id="patch_10">
    <path d="M 314.013447 359.517187 
L 314.013447 26.877187 
L 287.688867 26.877187 
L 287.688867 359.517187 
z
" clip-path="url(#p06de05266f)" style="fill: #add8e6; stroke: #add8e6; stroke-linejoin: miter"/>
   </g>
   <g id="patch_11">
    <path d="M 351.698199 359.517187 
L 351.698199 26.877187 
L 334.186465 26.877187 
L 334.186465 359.517187 
z
" clip-path="url(#p06de05266f)" style="fill: #add8e6; stroke: #add8e6; stroke-linejoin: miter"/>
   </g>
   <g id="patch_12">
    <path d="M 370.367401 359.517187 
L 370.367401 26.877187 
L 369.891454 26.877187 
L 369.891454 359.517187 
z
" clip-path="url(#p06de05266f)" style="fill: #add8e6; stroke: #add8e6; stroke-linejoin: miter"/>
   </g>
   <g id="patch_13">
    <path d="M 371.882388 359.517187 
L 371.882388 26.877187 
L 372.400791 26.877187 
L 372.400791 359.517187 
z
" clip-path="url(#p06de05266f)" style="fill: #add8e6; stroke: #add8e6; stroke-linejoin: miter"/>
   </g>
   <g id="patch_14">
    <path d="M 395.896502 359.517187 
L 395.896502 26.877187 
L 395.847343 26.877187 
L 395.847343 359.517187 
z
" clip-path="url(#p06de05266f)" style="fill: #add8e6; stroke: #add8e6; stroke-linejoin: miter"/>
   </g>
   <g id="patch_15">
    <path d="M 396.801472 359.517187 
L 396.801472 26.877187 
L 396.685278 26.877187 
L 396.685278 359.517187 
z
" clip-path="url(#p06de05266f)" style="fill: #add8e6; stroke: #add8e6; stroke-linejoin: miter"/>
   </g>
   <g id="patch_16">
    <path d="M 397.594718 359.517187 
L 397.594718 26.877187 
L 397.467351 26.877187 
L 397.467351 359.517187 
z
" clip-path="url(#p06de05266f)" style="fill: #add8e6; stroke: #add8e6; stroke-linejoin: miter"/>
   </g>
   <g id="patch_17">
    <path d="M 420.055857 359.517187 
L 420.055857 26.877187 
L 420.585432 26.877187 
L 420.585432 359.517187 
z
" clip-path="url(#p06de05266f)" style="fill: #add8e6; stroke: #add8e6; stroke-linejoin: miter"/>
   </g>
   <g id="patch_18">
    <path d="M 421.119477 359.517187 
L 421.119477 26.877187 
L 421.58872 26.877187 
L 421.58872 359.517187 
z
" clip-path="url(#p06de05266f)" style="fill: #add8e6; stroke: #add8e6; stroke-linejoin: miter"/>
   </g>
   <g id="patch_19">
    <path d="M 431.306537 359.517187 
L 431.306537 26.877187 
L 430.294311 26.877187 
L 430.294311 359.517187 
z
" clip-path="url(#p06de05266f)" style="fill: #add8e6; stroke: #add8e6; stroke-linejoin: miter"/>
   </g>
   <g id="patch_20">
    <path d="M 461.011909 359.517187 
L 461.011909 26.877187 
L 438.966385 26.877187 
L 438.966385 359.517187 
z
" clip-path="url(#p06de05266f)" style="fill: #add8e6; stroke: #add8e6; stroke-linejoin: miter"/>
   </g>
   <g id="patch_21">
    <path d="M 473.880363 359.517187 
L 473.880363 26.877187 
L 460.788459 26.877187 
L 460.788459 359.517187 
z
" clip-path="url(#p06de05266f)" style="fill: #add8e6; stroke: #add8e6; stroke-linejoin: miter"/>
   </g>
   <g id="patch_22">
    <path d="M 496.258826 359.517187 
L 496.258826 26.877187 
L 496.873312 26.877187 
L 496.873312 359.517187 
z
" clip-path="url(#p06de05266f)" style="fill: #add8e6; stroke: #add8e6; stroke-linejoin: miter"/>
   </g>
   <g id="patch_23">
    <path d="M 518.574724 359.517187 
L 518.574724 26.877187 
L 506.76542 26.877187 
L 506.76542 359.517187 
z
" clip-path="url(#p06de05266f)" style="fill: #add8e6; stroke: #add8e6; stroke-linejoin: miter"/>
   </g>
   <g id="patch_24">
    <path d="M 534.06424 359.517187 
L 534.06424 26.877187 
L 534.024019 26.877187 
L 534.024019 359.517187 
z
" clip-path="url(#p06de05266f)" style="fill: #add8e6; stroke: #add8e6; stroke-linejoin: miter"/>
   </g>
   <g id="patch_25">
    <path d="M 534.8843 359.517187 
L 534.8843 26.877187 
L 534.723416 26.877187 
L 534.723416 359.517187 
z
" clip-path="url(#p06de05266f)" style="fill: #add8e6; stroke: #add8e6; stroke-linejoin: miter"/>
   </g>
   <g id="patch_26">
    <path d="M 652.08801 359.517187 
L 652.08801 26.877187 
L 648.327356 26.877187 
L 648.327356 359.517187 
z
" clip-path="url(#p06de05266f)" style="fill: #add8e6; stroke: #add8e6; stroke-linejoin: miter"/>
   </g>
   <g id="patch_27">
    <path d="M 713.552253 359.517187 
L 713.552253 26.877187 
L 685.788657 26.877187 
L 685.788657 359.517187 
z
" clip-path="url(#p06de05266f)" style="fill: #add8e6; stroke: #add8e6; stroke-linejoin: miter"/>
   </g>
   <g id="patch_28">
    <path d="M 719.757444 359.517187 
L 719.757444 26.877187 
L 692.469796 26.877187 
L 692.469796 359.517187 
z
" clip-path="url(#p06de05266f)" style="fill: #add8e6; stroke: #add8e6; stroke-linejoin: miter"/>
   </g>
   <g id="patch_29">
    <path d="M 758.476766 359.517187 
L 758.476766 26.877187 
L 758.481235 26.877187 
L 758.481235 359.517187 
z
" clip-path="url(#p06de05266f)" style="fill: #add8e6; stroke: #add8e6; stroke-linejoin: miter"/>
   </g>
   <g id="patch_30">
    <path d="M 759.386206 359.517187 
L 759.386206 26.877187 
L 759.935891 26.877187 
L 759.935891 359.517187 
z
" clip-path="url(#p06de05266f)" style="fill: #add8e6; stroke: #add8e6; stroke-linejoin: miter"/>
   </g>
   <g id="patch_31">
    <path d="M 765.62268 359.517187 
L 765.62268 26.877187 
L 762.232952 26.877187 
L 762.232952 359.517187 
z
" clip-path="url(#p06de05266f)" style="fill: #add8e6; stroke: #add8e6; stroke-linejoin: miter"/>
   </g>
   <g id="patch_32">
    <path d="M 843.660169 359.517187 
L 843.660169 26.877187 
L 843.870212 26.877187 
L 843.870212 359.517187 
z
" clip-path="url(#p06de05266f)" style="fill: #add8e6; stroke: #add8e6; stroke-linejoin: miter"/>
   </g>
   <g id="patch_33">
    <path d="M 844.346159 359.517187 
L 844.346159 26.877187 
L 844.942769 26.877187 
L 844.942769 359.517187 
z
" clip-path="url(#p06de05266f)" style="fill: #add8e6; stroke: #add8e6; stroke-linejoin: miter"/>
   </g>
   <g id="patch_34">
    <path d="M 845.342743 359.517187 
L 845.342743 26.877187 
L 845.899133 26.877187 
L 845.899133 359.517187 
z
" clip-path="url(#p06de05266f)" style="fill: #add8e6; stroke: #add8e6; stroke-linejoin: miter"/>
   </g>
   <g id="patch_35">
    <path d="M 848.399532 359.517187 
L 848.399532 26.877187 
L 847.210781 26.877187 
L 847.210781 359.517187 
z
" clip-path="url(#p06de05266f)" style="fill: #add8e6; stroke: #add8e6; stroke-linejoin: miter"/>
   </g>
   <g id="patch_36">
    <path d="M 905.598125 359.517187 
L 905.598125 26.877187 
L 905.99363 26.877187 
L 905.99363 359.517187 
z
" clip-path="url(#p06de05266f)" style="fill: #add8e6; stroke: #add8e6; stroke-linejoin: miter"/>
   </g>
   <g id="patch_37">
    <path d="M 906.947759 359.517187 
L 906.947759 26.877187 
L 906.918711 26.877187 
L 906.918711 359.517187 
z
" clip-path="url(#p06de05266f)" style="fill: #add8e6; stroke: #add8e6; stroke-linejoin: miter"/>
   </g>
   <g id="patch_38">
    <path d="M 908.485092 359.517187 
L 908.485092 26.877187 
L 907.973392 26.877187 
L 907.973392 359.517187 
z
" clip-path="url(#p06de05266f)" style="fill: #add8e6; stroke: #add8e6; stroke-linejoin: miter"/>
   </g>
   <g id="patch_39">
    <path d="M 949.995298 359.517187 
L 949.995298 26.877187 
L 949.952842 26.877187 
L 949.952842 359.517187 
z
" clip-path="url(#p06de05266f)" style="fill: #add8e6; stroke: #add8e6; stroke-linejoin: miter"/>
   </g>
   <g id="patch_40">
    <path d="M 950.857813 359.517187 
L 950.857813 26.877187 
L 950.880157 26.877187 
L 950.880157 359.517187 
z
" clip-path="url(#p06de05266f)" style="fill: #add8e6; stroke: #add8e6; stroke-linejoin: miter"/>
   </g>
   <g id="patch_41">
    <path d="M 996.506302 359.517187 
L 996.506302 26.877187 
L 985.275733 26.877187 
L 985.275733 359.517187 
z
" clip-path="url(#p06de05266f)" style="fill: #add8e6; stroke: #add8e6; stroke-linejoin: miter"/>
   </g>
   <g id="patch_42">
    <path d="M 1011.928784 359.517187 
L 1011.928784 26.877187 
L 1011.381333 26.877187 
L 1011.381333 359.517187 
z
" clip-path="url(#p06de05266f)" style="fill: #add8e6; stroke: #add8e6; stroke-linejoin: miter"/>
   </g>
   <g id="patch_43">
    <path d="M 1012.608071 359.517187 
L 1012.608071 26.877187 
L 1012.17011 26.877187 
L 1012.17011 359.517187 
z
" clip-path="url(#p06de05266f)" style="fill: #add8e6; stroke: #add8e6; stroke-linejoin: miter"/>
   </g>
   <g id="patch_44">
    <path d="M 1035.171997 359.517187 
L 1035.171997 26.877187 
L 1031.766627 26.877187 
L 1031.766627 359.517187 
z
" clip-path="url(#p06de05266f)" style="fill: #add8e6; stroke: #add8e6; stroke-linejoin: miter"/>
   </g>
   <g id="patch_45">
    <path d="M 1052.357495 359.517187 
L 1052.357495 26.877187 
L 1051.801106 26.877187 
L 1051.801106 359.517187 
z
" clip-path="url(#p06de05266f)" style="fill: #add8e6; stroke: #add8e6; stroke-linejoin: miter"/>
   </g>
   <g id="patch_46">
    <path d="M 1065.670614 359.517187 
L 1065.670614 26.877187 
L 1065.639331 26.877187 
L 1065.639331 359.517187 
z
" clip-path="url(#p06de05266f)" style="fill: #add8e6; stroke: #add8e6; stroke-linejoin: miter"/>
   </g>
   <g id="patch_47">
    <path d="M 1075.862143 359.517187 
L 1075.862143 26.877187 
L 1076.309042 26.877187 
L 1076.309042 359.517187 
z
" clip-path="url(#p06de05266f)" style="fill: #add8e6; stroke: #add8e6; stroke-linejoin: miter"/>
   </g>
   <g id="patch_48">
    <path d="M 1076.570478 359.517187 
L 1076.570478 26.877187 
L 1077.02855 26.877187 
L 1077.02855 359.517187 
z
" clip-path="url(#p06de05266f)" style="fill: #add8e6; stroke: #add8e6; stroke-linejoin: miter"/>
   </g>
   <g id="patch_49">
    <path d="M 1114.219477 359.517187 
L 1114.219477 26.877187 
L 1114.507727 26.877187 
L 1114.507727 359.517187 
z
" clip-path="url(#p06de05266f)" style="fill: #add8e6; stroke: #add8e6; stroke-linejoin: miter"/>
   </g>
   <g id="patch_50">
    <path d="M 542.392202 359.517187 
L 542.392202 26.877187 
L 1025.043033 26.877187 
L 1025.043033 359.517187 
z
" clip-path="url(#p06de05266f)" style="fill: #808080; opacity: 0.4; stroke: #808080; stroke-linejoin: miter"/>
   </g>
   <g id="patch_51">
    <path d="M 1038.45 26.877187 
L 1038.45 26.877187 
L 1038.45 359.517187 
" clip-path="url(#p06de05266f)" style="fill: #808080; opacity: 0.4; stroke: #808080; stroke-linejoin: miter"/>
   </g>
   <g id="patch_52">
    <path d="M 1051.856968 26.877187 
L 1051.856968 26.877187 
L 1051.856968 359.517187 
" clip-path="url(#p06de05266f)" style="fill: #808080; opacity: 0.4; stroke: #808080; stroke-linejoin: miter"/>
   </g>
   <g id="matplotlib.axis_1">
    <g id="xtick_1">
     <g id="line2d_1">
      <defs>
       <path id="mb8fd111ab5" d="M 0 0 
L 0 3.5 
" style="stroke: #000000; stroke-width: 0.8"/>
      </defs>
      <g>
       <use xlink:href="#mb8fd111ab5" x="136.585639" y="359.517187" style="stroke: #000000; stroke-width: 0.8"/>
      </g>
     </g>
     <g id="text_1">
      <!-- 07-10 09 -->
      <g transform="translate(114.10517 374.115625) scale(0.1 -0.1)">
       <defs>
        <path id="DejaVuSans-30" d="M 2034 4250 
Q 1547 4250 1301 3770 
Q 1056 3291 1056 2328 
Q 1056 1369 1301 889 
Q 1547 409 2034 409 
Q 2525 409 2770 889 
Q 3016 1369 3016 2328 
Q 3016 3291 2770 3770 
Q 2525 4250 2034 4250 
z
M 2034 4750 
Q 2819 4750 3233 4129 
Q 3647 3509 3647 2328 
Q 3647 1150 3233 529 
Q 2819 -91 2034 -91 
Q 1250 -91 836 529 
Q 422 1150 422 2328 
Q 422 3509 836 4129 
Q 1250 4750 2034 4750 
z
" transform="scale(0.015625)"/>
        <path id="DejaVuSans-37" d="M 525 4666 
L 3525 4666 
L 3525 4397 
L 1831 0 
L 1172 0 
L 2766 4134 
L 525 4134 
L 525 4666 
z
" transform="scale(0.015625)"/>
        <path id="DejaVuSans-2d" d="M 313 2009 
L 1997 2009 
L 1997 1497 
L 313 1497 
L 313 2009 
z
" transform="scale(0.015625)"/>
        <path id="DejaVuSans-31" d="M 794 531 
L 1825 531 
L 1825 4091 
L 703 3866 
L 703 4441 
L 1819 4666 
L 2450 4666 
L 2450 531 
L 3481 531 
L 3481 0 
L 794 0 
L 794 531 
z
" transform="scale(0.015625)"/>
        <path id="DejaVuSans-20" transform="scale(0.015625)"/>
        <path id="DejaVuSans-39" d="M 703 97 
L 703 672 
Q 941 559 1184 500 
Q 1428 441 1663 441 
Q 2288 441 2617 861 
Q 2947 1281 2994 2138 
Q 2813 1869 2534 1725 
Q 2256 1581 1919 1581 
Q 1219 1581 811 2004 
Q 403 2428 403 3163 
Q 403 3881 828 4315 
Q 1253 4750 1959 4750 
Q 2769 4750 3195 4129 
Q 3622 3509 3622 2328 
Q 3622 1225 3098 567 
Q 2575 -91 1691 -91 
Q 1453 -91 1209 -44 
Q 966 3 703 97 
z
M 1959 2075 
Q 2384 2075 2632 2365 
Q 2881 2656 2881 3163 
Q 2881 3666 2632 3958 
Q 2384 4250 1959 4250 
Q 1534 4250 1286 3958 
Q 1038 3666 1038 3163 
Q 1038 2656 1286 2365 
Q 1534 2075 1959 2075 
z
" transform="scale(0.015625)"/>
       </defs>
       <use xlink:href="#DejaVuSans-30"/>
       <use xlink:href="#DejaVuSans-37" x="63.623047"/>
       <use xlink:href="#DejaVuSans-2d" x="127.246094"/>
       <use xlink:href="#DejaVuSans-31" x="163.330078"/>
       <use xlink:href="#DejaVuSans-30" x="226.953125"/>
       <use xlink:href="#DejaVuSans-20" x="290.576172"/>
       <use xlink:href="#DejaVuSans-30" x="322.363281"/>
       <use xlink:href="#DejaVuSans-39" x="385.986328"/>
      </g>
     </g>
    </g>
    <g id="xtick_2">
     <g id="line2d_2">
      <g>
       <use xlink:href="#mb8fd111ab5" x="257.248347" y="359.517187" style="stroke: #000000; stroke-width: 0.8"/>
      </g>
     </g>
     <g id="text_2">
      <!-- 07-10 12 -->
      <g transform="translate(234.767878 374.115625) scale(0.1 -0.1)">
       <defs>
        <path id="DejaVuSans-32" d="M 1228 531 
L 3431 531 
L 3431 0 
L 469 0 
L 469 531 
Q 828 903 1448 1529 
Q 2069 2156 2228 2338 
Q 2531 2678 2651 2914 
Q 2772 3150 2772 3378 
Q 2772 3750 2511 3984 
Q 2250 4219 1831 4219 
Q 1534 4219 1204 4116 
Q 875 4013 500 3803 
L 500 4441 
Q 881 4594 1212 4672 
Q 1544 4750 1819 4750 
Q 2544 4750 2975 4387 
Q 3406 4025 3406 3419 
Q 3406 3131 3298 2873 
Q 3191 2616 2906 2266 
Q 2828 2175 2409 1742 
Q 1991 1309 1228 531 
z
" transform="scale(0.015625)"/>
       </defs>
       <use xlink:href="#DejaVuSans-30"/>
       <use xlink:href="#DejaVuSans-37" x="63.623047"/>
       <use xlink:href="#DejaVuSans-2d" x="127.246094"/>
       <use xlink:href="#DejaVuSans-31" x="163.330078"/>
       <use xlink:href="#DejaVuSans-30" x="226.953125"/>
       <use xlink:href="#DejaVuSans-20" x="290.576172"/>
       <use xlink:href="#DejaVuSans-31" x="322.363281"/>
       <use xlink:href="#DejaVuSans-32" x="385.986328"/>
      </g>
     </g>
    </g>
    <g id="xtick_3">
     <g id="line2d_3">
      <g>
       <use xlink:href="#mb8fd111ab5" x="377.911055" y="359.517187" style="stroke: #000000; stroke-width: 0.8"/>
      </g>
     </g>
     <g id="text_3">
      <!-- 07-10 15 -->
      <g transform="translate(355.430586 374.115625) scale(0.1 -0.1)">
       <defs>
        <path id="DejaVuSans-35" d="M 691 4666 
L 3169 4666 
L 3169 4134 
L 1269 4134 
L 1269 2991 
Q 1406 3038 1543 3061 
Q 1681 3084 1819 3084 
Q 2600 3084 3056 2656 
Q 3513 2228 3513 1497 
Q 3513 744 3044 326 
Q 2575 -91 1722 -91 
Q 1428 -91 1123 -41 
Q 819 9 494 109 
L 494 744 
Q 775 591 1075 516 
Q 1375 441 1709 441 
Q 2250 441 2565 725 
Q 2881 1009 2881 1497 
Q 2881 1984 2565 2268 
Q 2250 2553 1709 2553 
Q 1456 2553 1204 2497 
Q 953 2441 691 2322 
L 691 4666 
z
" transform="scale(0.015625)"/>
       </defs>
       <use xlink:href="#DejaVuSans-30"/>
       <use xlink:href="#DejaVuSans-37" x="63.623047"/>
       <use xlink:href="#DejaVuSans-2d" x="127.246094"/>
       <use xlink:href="#DejaVuSans-31" x="163.330078"/>
       <use xlink:href="#DejaVuSans-30" x="226.953125"/>
       <use xlink:href="#DejaVuSans-20" x="290.576172"/>
       <use xlink:href="#DejaVuSans-31" x="322.363281"/>
       <use xlink:href="#DejaVuSans-35" x="385.986328"/>
      </g>
     </g>
    </g>
    <g id="xtick_4">
     <g id="line2d_4">
      <g>
       <use xlink:href="#mb8fd111ab5" x="498.573763" y="359.517187" style="stroke: #000000; stroke-width: 0.8"/>
      </g>
     </g>
     <g id="text_4">
      <!-- 07-10 18 -->
      <g transform="translate(476.093294 374.115625) scale(0.1 -0.1)">
       <defs>
        <path id="DejaVuSans-38" d="M 2034 2216 
Q 1584 2216 1326 1975 
Q 1069 1734 1069 1313 
Q 1069 891 1326 650 
Q 1584 409 2034 409 
Q 2484 409 2743 651 
Q 3003 894 3003 1313 
Q 3003 1734 2745 1975 
Q 2488 2216 2034 2216 
z
M 1403 2484 
Q 997 2584 770 2862 
Q 544 3141 544 3541 
Q 544 4100 942 4425 
Q 1341 4750 2034 4750 
Q 2731 4750 3128 4425 
Q 3525 4100 3525 3541 
Q 3525 3141 3298 2862 
Q 3072 2584 2669 2484 
Q 3125 2378 3379 2068 
Q 3634 1759 3634 1313 
Q 3634 634 3220 271 
Q 2806 -91 2034 -91 
Q 1263 -91 848 271 
Q 434 634 434 1313 
Q 434 1759 690 2068 
Q 947 2378 1403 2484 
z
M 1172 3481 
Q 1172 3119 1398 2916 
Q 1625 2713 2034 2713 
Q 2441 2713 2670 2916 
Q 2900 3119 2900 3481 
Q 2900 3844 2670 4047 
Q 2441 4250 2034 4250 
Q 1625 4250 1398 4047 
Q 1172 3844 1172 3481 
z
" transform="scale(0.015625)"/>
       </defs>
       <use xlink:href="#DejaVuSans-30"/>
       <use xlink:href="#DejaVuSans-37" x="63.623047"/>
       <use xlink:href="#DejaVuSans-2d" x="127.246094"/>
       <use xlink:href="#DejaVuSans-31" x="163.330078"/>
       <use xlink:href="#DejaVuSans-30" x="226.953125"/>
       <use xlink:href="#DejaVuSans-20" x="290.576172"/>
       <use xlink:href="#DejaVuSans-31" x="322.363281"/>
       <use xlink:href="#DejaVuSans-38" x="385.986328"/>
      </g>
     </g>
    </g>
    <g id="xtick_5">
     <g id="line2d_5">
      <g>
       <use xlink:href="#mb8fd111ab5" x="619.23647" y="359.517187" style="stroke: #000000; stroke-width: 0.8"/>
      </g>
     </g>
     <g id="text_5">
      <!-- 07-10 21 -->
      <g transform="translate(596.756002 374.115625) scale(0.1 -0.1)">
       <use xlink:href="#DejaVuSans-30"/>
       <use xlink:href="#DejaVuSans-37" x="63.623047"/>
       <use xlink:href="#DejaVuSans-2d" x="127.246094"/>
       <use xlink:href="#DejaVuSans-31" x="163.330078"/>
       <use xlink:href="#DejaVuSans-30" x="226.953125"/>
       <use xlink:href="#DejaVuSans-20" x="290.576172"/>
       <use xlink:href="#DejaVuSans-32" x="322.363281"/>
       <use xlink:href="#DejaVuSans-31" x="385.986328"/>
      </g>
     </g>
    </g>
    <g id="xtick_6">
     <g id="line2d_6">
      <g>
       <use xlink:href="#mb8fd111ab5" x="739.899178" y="359.517187" style="stroke: #000000; stroke-width: 0.8"/>
      </g>
     </g>
     <g id="text_6">
      <!-- 07-11 00 -->
      <g transform="translate(717.41871 374.115625) scale(0.1 -0.1)">
       <use xlink:href="#DejaVuSans-30"/>
       <use xlink:href="#DejaVuSans-37" x="63.623047"/>
       <use xlink:href="#DejaVuSans-2d" x="127.246094"/>
       <use xlink:href="#DejaVuSans-31" x="163.330078"/>
       <use xlink:href="#DejaVuSans-31" x="226.953125"/>
       <use xlink:href="#DejaVuSans-20" x="290.576172"/>
       <use xlink:href="#DejaVuSans-30" x="322.363281"/>
       <use xlink:href="#DejaVuSans-30" x="385.986328"/>
      </g>
     </g>
    </g>
    <g id="xtick_7">
     <g id="line2d_7">
      <g>
       <use xlink:href="#mb8fd111ab5" x="860.561886" y="359.517187" style="stroke: #000000; stroke-width: 0.8"/>
      </g>
     </g>
     <g id="text_7">
      <!-- 07-11 03 -->
      <g transform="translate(838.081417 374.115625) scale(0.1 -0.1)">
       <defs>
        <path id="DejaVuSans-33" d="M 2597 2516 
Q 3050 2419 3304 2112 
Q 3559 1806 3559 1356 
Q 3559 666 3084 287 
Q 2609 -91 1734 -91 
Q 1441 -91 1130 -33 
Q 819 25 488 141 
L 488 750 
Q 750 597 1062 519 
Q 1375 441 1716 441 
Q 2309 441 2620 675 
Q 2931 909 2931 1356 
Q 2931 1769 2642 2001 
Q 2353 2234 1838 2234 
L 1294 2234 
L 1294 2753 
L 1863 2753 
Q 2328 2753 2575 2939 
Q 2822 3125 2822 3475 
Q 2822 3834 2567 4026 
Q 2313 4219 1838 4219 
Q 1578 4219 1281 4162 
Q 984 4106 628 3988 
L 628 4550 
Q 988 4650 1302 4700 
Q 1616 4750 1894 4750 
Q 2613 4750 3031 4423 
Q 3450 4097 3450 3541 
Q 3450 3153 3228 2886 
Q 3006 2619 2597 2516 
z
" transform="scale(0.015625)"/>
       </defs>
       <use xlink:href="#DejaVuSans-30"/>
       <use xlink:href="#DejaVuSans-37" x="63.623047"/>
       <use xlink:href="#DejaVuSans-2d" x="127.246094"/>
       <use xlink:href="#DejaVuSans-31" x="163.330078"/>
       <use xlink:href="#DejaVuSans-31" x="226.953125"/>
       <use xlink:href="#DejaVuSans-20" x="290.576172"/>
       <use xlink:href="#DejaVuSans-30" x="322.363281"/>
       <use xlink:href="#DejaVuSans-33" x="385.986328"/>
      </g>
     </g>
    </g>
    <g id="xtick_8">
     <g id="line2d_8">
      <g>
       <use xlink:href="#mb8fd111ab5" x="981.224594" y="359.517187" style="stroke: #000000; stroke-width: 0.8"/>
      </g>
     </g>
     <g id="text_8">
      <!-- 07-11 06 -->
      <g transform="translate(958.744125 374.115625) scale(0.1 -0.1)">
       <defs>
        <path id="DejaVuSans-36" d="M 2113 2584 
Q 1688 2584 1439 2293 
Q 1191 2003 1191 1497 
Q 1191 994 1439 701 
Q 1688 409 2113 409 
Q 2538 409 2786 701 
Q 3034 994 3034 1497 
Q 3034 2003 2786 2293 
Q 2538 2584 2113 2584 
z
M 3366 4563 
L 3366 3988 
Q 3128 4100 2886 4159 
Q 2644 4219 2406 4219 
Q 1781 4219 1451 3797 
Q 1122 3375 1075 2522 
Q 1259 2794 1537 2939 
Q 1816 3084 2150 3084 
Q 2853 3084 3261 2657 
Q 3669 2231 3669 1497 
Q 3669 778 3244 343 
Q 2819 -91 2113 -91 
Q 1303 -91 875 529 
Q 447 1150 447 2328 
Q 447 3434 972 4092 
Q 1497 4750 2381 4750 
Q 2619 4750 2861 4703 
Q 3103 4656 3366 4563 
z
" transform="scale(0.015625)"/>
       </defs>
       <use xlink:href="#DejaVuSans-30"/>
       <use xlink:href="#DejaVuSans-37" x="63.623047"/>
       <use xlink:href="#DejaVuSans-2d" x="127.246094"/>
       <use xlink:href="#DejaVuSans-31" x="163.330078"/>
       <use xlink:href="#DejaVuSans-31" x="226.953125"/>
       <use xlink:href="#DejaVuSans-20" x="290.576172"/>
       <use xlink:href="#DejaVuSans-30" x="322.363281"/>
       <use xlink:href="#DejaVuSans-36" x="385.986328"/>
      </g>
     </g>
    </g>
    <g id="xtick_9">
     <g id="line2d_9">
      <g>
       <use xlink:href="#mb8fd111ab5" x="1101.887302" y="359.517187" style="stroke: #000000; stroke-width: 0.8"/>
      </g>
     </g>
     <g id="text_9">
      <!-- 07-11 09 -->
      <g transform="translate(1079.406833 374.115625) scale(0.1 -0.1)">
       <use xlink:href="#DejaVuSans-30"/>
       <use xlink:href="#DejaVuSans-37" x="63.623047"/>
       <use xlink:href="#DejaVuSans-2d" x="127.246094"/>
       <use xlink:href="#DejaVuSans-31" x="163.330078"/>
       <use xlink:href="#DejaVuSans-31" x="226.953125"/>
       <use xlink:href="#DejaVuSans-20" x="290.576172"/>
       <use xlink:href="#DejaVuSans-30" x="322.363281"/>
       <use xlink:href="#DejaVuSans-39" x="385.986328"/>
      </g>
     </g>
    </g>
    <g id="text_10">
     <!-- Time -->
     <g transform="translate(592.554688 389.313437) scale(0.12 -0.12)">
      <defs>
       <path id="DejaVuSans-54" d="M -19 4666 
L 3928 4666 
L 3928 4134 
L 2272 4134 
L 2272 0 
L 1638 0 
L 1638 4134 
L -19 4134 
L -19 4666 
z
" transform="scale(0.015625)"/>
       <path id="DejaVuSans-69" d="M 603 3500 
L 1178 3500 
L 1178 0 
L 603 0 
L 603 3500 
z
M 603 4863 
L 1178 4863 
L 1178 4134 
L 603 4134 
L 603 4863 
z
" transform="scale(0.015625)"/>
       <path id="DejaVuSans-6d" d="M 3328 2828 
Q 3544 3216 3844 3400 
Q 4144 3584 4550 3584 
Q 5097 3584 5394 3201 
Q 5691 2819 5691 2113 
L 5691 0 
L 5113 0 
L 5113 2094 
Q 5113 2597 4934 2840 
Q 4756 3084 4391 3084 
Q 3944 3084 3684 2787 
Q 3425 2491 3425 1978 
L 3425 0 
L 2847 0 
L 2847 2094 
Q 2847 2600 2669 2842 
Q 2491 3084 2119 3084 
Q 1678 3084 1418 2786 
Q 1159 2488 1159 1978 
L 1159 0 
L 581 0 
L 581 3500 
L 1159 3500 
L 1159 2956 
Q 1356 3278 1631 3431 
Q 1906 3584 2284 3584 
Q 2666 3584 2933 3390 
Q 3200 3197 3328 2828 
z
" transform="scale(0.015625)"/>
       <path id="DejaVuSans-65" d="M 3597 1894 
L 3597 1613 
L 953 1613 
Q 991 1019 1311 708 
Q 1631 397 2203 397 
Q 2534 397 2845 478 
Q 3156 559 3463 722 
L 3463 178 
Q 3153 47 2828 -22 
Q 2503 -91 2169 -91 
Q 1331 -91 842 396 
Q 353 884 353 1716 
Q 353 2575 817 3079 
Q 1281 3584 2069 3584 
Q 2775 3584 3186 3129 
Q 3597 2675 3597 1894 
z
M 3022 2063 
Q 3016 2534 2758 2815 
Q 2500 3097 2075 3097 
Q 1594 3097 1305 2825 
Q 1016 2553 972 2059 
L 3022 2063 
z
" transform="scale(0.015625)"/>
      </defs>
      <use xlink:href="#DejaVuSans-54"/>
      <use xlink:href="#DejaVuSans-69" x="57.958984"/>
      <use xlink:href="#DejaVuSans-6d" x="85.742188"/>
      <use xlink:href="#DejaVuSans-65" x="183.154297"/>
     </g>
    </g>
   </g>
   <g id="matplotlib.axis_2">
    <g id="ytick_1">
     <g id="line2d_10">
      <defs>
       <path id="m23051d75e0" d="M 0 0 
L -3.5 0 
" style="stroke: #000000; stroke-width: 0.8"/>
      </defs>
      <g>
       <use xlink:href="#m23051d75e0" x="49.235" y="344.397187" style="stroke: #000000; stroke-width: 0.8"/>
      </g>
     </g>
     <g id="text_11">
      <!-- 0 -->
      <g transform="translate(35.8725 348.196406) scale(0.1 -0.1)">
       <use xlink:href="#DejaVuSans-30"/>
      </g>
     </g>
    </g>
    <g id="ytick_2">
     <g id="line2d_11">
      <g>
       <use xlink:href="#m23051d75e0" x="49.235" y="284.158144" style="stroke: #000000; stroke-width: 0.8"/>
      </g>
     </g>
     <g id="text_12">
      <!-- 50 -->
      <g transform="translate(29.51 287.957362) scale(0.1 -0.1)">
       <use xlink:href="#DejaVuSans-35"/>
       <use xlink:href="#DejaVuSans-30" x="63.623047"/>
      </g>
     </g>
    </g>
    <g id="ytick_3">
     <g id="line2d_12">
      <g>
       <use xlink:href="#m23051d75e0" x="49.235" y="223.9191" style="stroke: #000000; stroke-width: 0.8"/>
      </g>
     </g>
     <g id="text_13">
      <!-- 100 -->
      <g transform="translate(23.1475 227.718319) scale(0.1 -0.1)">
       <use xlink:href="#DejaVuSans-31"/>
       <use xlink:href="#DejaVuSans-30" x="63.623047"/>
       <use xlink:href="#DejaVuSans-30" x="127.246094"/>
      </g>
     </g>
    </g>
    <g id="ytick_4">
     <g id="line2d_13">
      <g>
       <use xlink:href="#m23051d75e0" x="49.235" y="163.680056" style="stroke: #000000; stroke-width: 0.8"/>
      </g>
     </g>
     <g id="text_14">
      <!-- 150 -->
      <g transform="translate(23.1475 167.479275) scale(0.1 -0.1)">
       <use xlink:href="#DejaVuSans-31"/>
       <use xlink:href="#DejaVuSans-35" x="63.623047"/>
       <use xlink:href="#DejaVuSans-30" x="127.246094"/>
      </g>
     </g>
    </g>
    <g id="ytick_5">
     <g id="line2d_14">
      <g>
       <use xlink:href="#m23051d75e0" x="49.235" y="103.441012" style="stroke: #000000; stroke-width: 0.8"/>
      </g>
     </g>
     <g id="text_15">
      <!-- 200 -->
      <g transform="translate(23.1475 107.240231) scale(0.1 -0.1)">
       <use xlink:href="#DejaVuSans-32"/>
       <use xlink:href="#DejaVuSans-30" x="63.623047"/>
       <use xlink:href="#DejaVuSans-30" x="127.246094"/>
      </g>
     </g>
    </g>
    <g id="ytick_6">
     <g id="line2d_15">
      <g>
       <use xlink:href="#m23051d75e0" x="49.235" y="43.201968" style="stroke: #000000; stroke-width: 0.8"/>
      </g>
     </g>
     <g id="text_16">
      <!-- 250 -->
      <g transform="translate(23.1475 47.001187) scale(0.1 -0.1)">
       <use xlink:href="#DejaVuSans-32"/>
       <use xlink:href="#DejaVuSans-35" x="63.623047"/>
       <use xlink:href="#DejaVuSans-30" x="127.246094"/>
      </g>
     </g>
    </g>
    <g id="text_17">
     <!-- Pellet_Count -->
     <g transform="translate(16.318125 230.485312) rotate(-90) scale(0.12 -0.12)">
      <defs>
       <path id="DejaVuSans-50" d="M 1259 4147 
L 1259 2394 
L 2053 2394 
Q 2494 2394 2734 2622 
Q 2975 2850 2975 3272 
Q 2975 3691 2734 3919 
Q 2494 4147 2053 4147 
L 1259 4147 
z
M 628 4666 
L 2053 4666 
Q 2838 4666 3239 4311 
Q 3641 3956 3641 3272 
Q 3641 2581 3239 2228 
Q 2838 1875 2053 1875 
L 1259 1875 
L 1259 0 
L 628 0 
L 628 4666 
z
" transform="scale(0.015625)"/>
       <path id="DejaVuSans-6c" d="M 603 4863 
L 1178 4863 
L 1178 0 
L 603 0 
L 603 4863 
z
" transform="scale(0.015625)"/>
       <path id="DejaVuSans-74" d="M 1172 4494 
L 1172 3500 
L 2356 3500 
L 2356 3053 
L 1172 3053 
L 1172 1153 
Q 1172 725 1289 603 
Q 1406 481 1766 481 
L 2356 481 
L 2356 0 
L 1766 0 
Q 1100 0 847 248 
Q 594 497 594 1153 
L 594 3053 
L 172 3053 
L 172 3500 
L 594 3500 
L 594 4494 
L 1172 4494 
z
" transform="scale(0.015625)"/>
       <path id="DejaVuSans-5f" d="M 3263 -1063 
L 3263 -1509 
L -63 -1509 
L -63 -1063 
L 3263 -1063 
z
" transform="scale(0.015625)"/>
       <path id="DejaVuSans-43" d="M 4122 4306 
L 4122 3641 
Q 3803 3938 3442 4084 
Q 3081 4231 2675 4231 
Q 1875 4231 1450 3742 
Q 1025 3253 1025 2328 
Q 1025 1406 1450 917 
Q 1875 428 2675 428 
Q 3081 428 3442 575 
Q 3803 722 4122 1019 
L 4122 359 
Q 3791 134 3420 21 
Q 3050 -91 2638 -91 
Q 1578 -91 968 557 
Q 359 1206 359 2328 
Q 359 3453 968 4101 
Q 1578 4750 2638 4750 
Q 3056 4750 3426 4639 
Q 3797 4528 4122 4306 
z
" transform="scale(0.015625)"/>
       <path id="DejaVuSans-6f" d="M 1959 3097 
Q 1497 3097 1228 2736 
Q 959 2375 959 1747 
Q 959 1119 1226 758 
Q 1494 397 1959 397 
Q 2419 397 2687 759 
Q 2956 1122 2956 1747 
Q 2956 2369 2687 2733 
Q 2419 3097 1959 3097 
z
M 1959 3584 
Q 2709 3584 3137 3096 
Q 3566 2609 3566 1747 
Q 3566 888 3137 398 
Q 2709 -91 1959 -91 
Q 1206 -91 779 398 
Q 353 888 353 1747 
Q 353 2609 779 3096 
Q 1206 3584 1959 3584 
z
" transform="scale(0.015625)"/>
       <path id="DejaVuSans-75" d="M 544 1381 
L 544 3500 
L 1119 3500 
L 1119 1403 
Q 1119 906 1312 657 
Q 1506 409 1894 409 
Q 2359 409 2629 706 
Q 2900 1003 2900 1516 
L 2900 3500 
L 3475 3500 
L 3475 0 
L 2900 0 
L 2900 538 
Q 2691 219 2414 64 
Q 2138 -91 1772 -91 
Q 1169 -91 856 284 
Q 544 659 544 1381 
z
M 1991 3584 
L 1991 3584 
z
" transform="scale(0.015625)"/>
       <path id="DejaVuSans-6e" d="M 3513 2113 
L 3513 0 
L 2938 0 
L 2938 2094 
Q 2938 2591 2744 2837 
Q 2550 3084 2163 3084 
Q 1697 3084 1428 2787 
Q 1159 2491 1159 1978 
L 1159 0 
L 581 0 
L 581 3500 
L 1159 3500 
L 1159 2956 
Q 1366 3272 1645 3428 
Q 1925 3584 2291 3584 
Q 2894 3584 3203 3211 
Q 3513 2838 3513 2113 
z
" transform="scale(0.015625)"/>
      </defs>
      <use xlink:href="#DejaVuSans-50"/>
      <use xlink:href="#DejaVuSans-65" x="56.677734"/>
      <use xlink:href="#DejaVuSans-6c" x="118.201172"/>
      <use xlink:href="#DejaVuSans-6c" x="145.984375"/>
      <use xlink:href="#DejaVuSans-65" x="173.767578"/>
      <use xlink:href="#DejaVuSans-74" x="235.291016"/>
      <use xlink:href="#DejaVuSans-5f" x="274.5"/>
      <use xlink:href="#DejaVuSans-43" x="324.5"/>
      <use xlink:href="#DejaVuSans-6f" x="394.324219"/>
      <use xlink:href="#DejaVuSans-75" x="455.505859"/>
      <use xlink:href="#DejaVuSans-6e" x="518.884766"/>
      <use xlink:href="#DejaVuSans-74" x="582.263672"/>
     </g>
    </g>
   </g>
   <g id="line2d_16">
    <path d="M 99.962273 344.397187 
L 125.480201 344.397187 
L 126.731518 343.192407 
L 139.177653 343.192407 
L 140.194348 341.987626 
L 146.104586 341.987626 
L 146.361553 340.782845 
L 147.545835 340.782845 
L 147.557007 339.578064 
L 149.623915 339.578064 
L 150.093159 338.373283 
L 151.690822 338.373283 
L 151.757857 337.168502 
L 154.908495 337.168502 
L 155.433601 335.963721 
L 157.411129 335.963721 
L 159.701486 334.75894 
L 161.734876 334.75894 
L 161.813083 333.55416 
L 169.354502 333.55416 
L 169.667331 332.349379 
L 170.695199 332.349379 
L 170.963338 331.144598 
L 177.767374 331.144598 
L 177.812064 329.939817 
L 187.051699 329.939817 
L 187.141079 328.735036 
L 190.727443 328.735036 
L 190.80565 327.530255 
L 193.911598 327.530255 
L 193.989805 326.325474 
L 197.855481 326.325474 
L 197.933688 325.120693 
L 198.201827 325.120693 
L 198.291207 323.915913 
L 200.525702 323.915913 
L 200.626254 322.711132 
L 201.19605 322.711132 
L 201.274257 321.506351 
L 202.302125 321.506351 
L 202.32447 320.30157 
L 202.827231 320.30157 
L 202.883094 319.096789 
L 204.882966 319.096789 
L 204.938829 317.892008 
L 205.17345 317.892008 
L 205.21814 316.687227 
L 206.882839 316.687227 
L 207.005736 315.482446 
L 209.731819 315.482446 
L 209.765337 314.277666 
L 210.156373 314.277666 
L 210.189891 313.072885 
L 212.49142 313.072885 
L 212.614317 311.868104 
L 213.586323 311.868104 
L 213.61984 310.663323 
L 213.865634 310.663323 
L 213.966187 309.458542 
L 216.278889 309.458542 
L 216.301234 308.253761 
L 218.826212 308.253761 
L 218.882075 307.04898 
L 220.044012 307.04898 
L 220.066357 305.844199 
L 222.222644 305.844199 
L 222.278507 304.639419 
L 223.250512 304.639419 
L 223.764445 303.434638 
L 224.725278 303.434638 
L 224.792313 302.229857 
L 226.658116 302.229857 
L 226.691633 301.025076 
L 227.965295 301.025076 
L 227.98764 299.820295 
L 228.322814 299.820295 
L 228.367504 298.615514 
L 228.613299 298.615514 
L 228.624471 297.410733 
L 231.350555 297.410733 
L 231.384072 296.205952 
L 232.456629 296.205952 
L 232.501319 295.001172 
L 232.802976 295.001172 
L 232.825321 293.796391 
L 234.49002 293.796391 
L 234.534709 292.59161 
L 235.730164 292.59161 
L 235.774854 291.386829 
L 248.790785 291.386829 
L 248.846647 290.182048 
L 250.567208 290.182048 
L 250.578381 288.977267 
L 250.824175 288.977267 
L 250.84652 287.772486 
L 251.148177 287.772486 
L 251.170522 286.567705 
L 251.338109 286.567705 
L 251.338109 286.567705 
L 251.505696 285.362925 
L 251.88556 285.362925 
L 251.907905 284.158144 
L 256.119927 284.158144 
L 256.142272 282.953363 
L 259.795671 282.953363 
L 259.806843 281.748582 
L 260.01912 281.748582 
L 260.041465 280.543801 
L 260.28726 280.543801 
L 260.298432 279.33902 
L 263.393207 279.33902 
L 263.516104 278.134239 
L 263.795416 278.134239 
L 263.817761 276.929458 
L 265.527149 276.929458 
L 265.560667 275.724678 
L 265.717081 275.724678 
L 265.873496 274.519897 
L 266.152808 274.519897 
L 266.186325 273.315116 
L 266.443292 273.315116 
L 266.465637 272.110335 
L 266.733776 272.110335 
L 266.767294 270.905554 
L 272.420565 270.905554 
L 272.454083 269.700773 
L 272.632842 269.700773 
L 272.655187 268.495992 
L 275.213683 268.495992 
L 276.252723 267.291211 
L 279.392188 267.291211 
L 280.945162 266.086431 
L 282.129444 266.086431 
L 282.174134 264.88165 
L 282.408756 264.88165 
L 282.453446 263.676869 
L 282.799793 263.676869 
L 282.889172 262.472088 
L 283.079104 262.472088 
L 284.00642 261.267307 
L 284.68794 261.267307 
L 284.766148 260.062526 
L 293.257227 260.062526 
L 296.095035 258.857745 
L 300.664577 258.857745 
L 300.686922 257.652964 
L 300.999751 257.652964 
L 301.189683 256.448184 
L 301.40196 256.448184 
L 301.468995 255.243403 
L 301.658927 255.243403 
L 301.692444 254.038622 
L 301.882376 254.038622 
L 301.904721 252.833841 
L 302.061136 252.833841 
L 302.105826 251.62906 
L 317.80315 251.62906 
L 318.629913 250.424279 
L 319.222054 250.424279 
L 319.244399 249.219498 
L 320.272267 249.219498 
L 320.305784 248.014717 
L 320.931443 248.014717 
L 320.96496 246.809937 
L 321.277789 246.809937 
L 321.300134 245.605156 
L 322.506761 245.605156 
L 322.618486 244.400375 
L 322.931315 244.400375 
L 322.95366 243.195594 
L 323.17711 243.195594 
L 323.199455 241.990813 
L 331.031358 241.990813 
L 331.053703 240.786032 
L 331.44474 240.786032 
L 331.511775 239.581251 
L 368.44797 239.581251 
L 368.503833 238.37647 
L 368.984249 238.37647 
L 369.006594 237.171689 
L 369.799839 237.171689 
L 369.844529 235.966909 
L 370.213221 235.966909 
L 370.235566 234.762128 
L 370.470188 234.762128 
L 370.492533 233.557347 
L 370.794189 233.557347 
L 370.805362 232.352566 
L 371.319296 232.352566 
L 371.341641 231.147785 
L 394.167003 231.147785 
L 394.20052 229.943004 
L 394.524522 229.943004 
L 394.546867 228.738223 
L 394.714454 228.738223 
L 394.747971 227.533442 
L 395.55239 227.533442 
L 395.574734 226.328662 
L 395.865219 226.328662 
L 395.887564 225.123881 
L 396.200393 225.123881 
L 396.222738 223.9191 
L 396.479705 223.9191 
L 396.479705 223.9191 
L 396.535567 222.714319 
L 396.814879 222.714319 
L 396.837224 221.509538 
L 414.523249 221.509538 
L 414.534421 220.304757 
L 414.780215 220.304757 
L 414.813733 219.099976 
L 415.372357 219.099976 
L 415.394701 217.895195 
L 419.316239 217.895195 
L 419.338584 216.690415 
L 419.897208 216.690415 
L 419.908381 215.485634 
L 420.165347 215.485634 
L 420.187692 214.280853 
L 420.467004 214.280853 
L 420.489349 213.076072 
L 420.791006 213.076072 
L 420.969765 211.871291 
L 426.488967 211.871291 
L 426.511312 210.66651 
L 426.991728 210.66651 
L 427.014073 209.461729 
L 427.40511 209.461729 
L 427.438627 208.256948 
L 427.650904 208.256948 
L 427.706767 207.052168 
L 429.036291 207.052168 
L 429.57257 205.847387 
L 429.874226 205.847387 
L 429.885399 204.642606 
L 435.136461 204.642606 
L 435.169979 203.437825 
L 435.44929 203.437825 
L 435.49398 202.233044 
L 435.695085 202.233044 
L 435.750947 201.028263 
L 436.063776 201.028263 
L 436.074949 199.823482 
L 436.287226 199.823482 
L 436.309571 198.618701 
L 436.633573 198.618701 
L 436.80116 197.413921 
L 440.242281 197.413921 
L 440.812077 196.20914 
L 446.130175 196.20914 
L 446.163692 195.004359 
L 451.805791 195.004359 
L 451.805791 195.004359 
L 451.883998 193.799578 
L 452.241517 193.799578 
L 452.263862 192.594797 
L 452.666071 192.594797 
L 452.677244 191.390016 
L 453.001245 191.390016 
L 453.02359 190.185235 
L 453.224695 190.185235 
L 453.38111 188.980454 
L 453.816836 188.980454 
L 453.828008 187.775674 
L 454.029113 187.775674 
L 454.029113 187.775674 
L 454.073803 186.570893 
L 459.112588 186.570893 
L 459.112588 186.570893 
L 459.313693 185.366112 
L 459.604177 185.366112 
L 459.660039 184.161331 
L 459.961696 184.161331 
L 459.984041 182.95655 
L 460.754942 182.95655 
L 463.190541 181.751769 
L 463.514542 181.751769 
L 463.559232 180.546988 
L 469.994577 180.546988 
L 470.150991 179.342207 
L 473.93846 179.342207 
L 474.094874 178.137427 
L 483.133405 178.137427 
L 483.144577 176.932646 
L 483.602649 176.932646 
L 483.647339 175.727865 
L 483.937823 175.727865 
L 483.960168 174.523084 
L 484.23948 174.523084 
L 484.261825 173.318303 
L 485.501969 173.318303 
L 485.513142 172.113522 
L 485.803626 172.113522 
L 485.814798 170.908741 
L 486.1388 170.908741 
L 486.161145 169.70396 
L 488.228053 169.70396 
L 488.373295 168.49918 
L 494.462293 168.49918 
L 494.864502 167.294399 
L 504.070619 167.294399 
L 504.081792 166.089618 
L 504.942072 166.089618 
L 504.986762 164.884837 
L 505.210212 164.884837 
L 505.221384 163.680056 
L 505.422489 163.680056 
L 505.433661 162.475275 
L 505.623593 162.475275 
L 505.634765 161.270494 
L 505.858215 161.270494 
L 505.88056 160.065713 
L 519.890841 160.065713 
L 519.969048 158.860933 
L 532.526908 158.860933 
L 532.53808 157.656152 
L 533.029669 157.656152 
L 533.052014 156.451371 
L 533.308981 156.451371 
L 533.331326 155.24659 
L 533.510086 155.24659 
L 533.521258 154.041809 
L 533.71119 154.041809 
L 533.744707 152.837028 
L 534.001674 152.837028 
L 534.046364 151.632247 
L 545.799806 151.632247 
L 550.090035 150.427466 
L 556.156688 150.427466 
L 556.190206 149.222686 
L 640.140167 149.222686 
L 640.296582 148.017905 
L 640.788171 148.017905 
L 640.844033 146.813124 
L 646.419097 146.813124 
L 646.463787 145.608343 
L 680.461622 145.608343 
L 680.483967 144.403562 
L 680.852659 144.403562 
L 680.875004 143.198781 
L 681.791146 143.198781 
L 681.802319 141.994 
L 682.092803 141.994 
L 682.126321 140.789219 
L 682.338598 140.789219 
L 682.360943 139.584438 
L 682.696117 139.584438 
L 682.718462 138.379658 
L 683.925089 138.379658 
L 683.947434 137.174877 
L 684.371988 137.174877 
L 684.394333 135.970096 
L 684.662472 135.970096 
L 684.662472 135.970096 
L 684.729507 134.765315 
L 690.494503 134.765315 
L 690.986092 133.560534 
L 691.310093 133.560534 
L 691.365956 132.355753 
L 691.868717 132.355753 
L 691.87989 131.150972 
L 756.769612 131.150972 
L 756.791957 129.946191 
L 757.037752 129.946191 
L 757.082442 128.741411 
L 757.317064 128.741411 
L 757.339409 127.53663 
L 757.674583 127.53663 
L 757.696928 126.331849 
L 757.920377 126.331849 
L 757.93155 125.127068 
L 758.143827 125.127068 
L 758.199689 123.922287 
L 758.501346 123.922287 
L 758.534863 122.717506 
L 758.803003 122.717506 
L 758.825347 121.512725 
L 759.127004 121.512725 
L 759.138177 120.307944 
L 759.451006 120.307944 
L 759.473351 119.103164 
L 759.663283 119.103164 
L 759.663283 119.103164 
L 759.797353 117.898383 
L 760.087837 117.898383 
L 760.154872 116.693602 
L 820.676158 116.693602 
L 820.698503 115.488821 
L 843.088138 115.488821 
L 843.110483 114.28404 
L 843.345105 114.28404 
L 843.36745 113.079259 
L 843.646762 113.079259 
L 843.669107 111.874478 
L 843.993109 111.874478 
L 844.015454 110.669697 
L 844.596422 110.669697 
L 844.607595 109.464917 
L 844.909252 109.464917 
L 844.920424 108.260136 
L 845.199736 108.260136 
L 845.222081 107.055355 
L 845.412013 107.055355 
L 845.434358 105.850574 
L 845.66898 105.850574 
L 845.724842 104.645793 
L 845.881257 104.645793 
L 845.881257 104.645793 
L 845.937119 103.441012 
L 905.084191 103.441012 
L 905.095363 102.236231 
L 905.341158 102.236231 
L 905.363503 101.03145 
L 905.519917 101.03145 
L 905.553435 99.82667 
L 905.866264 99.82667 
L 905.899781 98.621889 
L 906.156748 98.621889 
L 906.201438 97.417108 
L 906.402543 97.417108 
L 906.447233 96.212327 
L 906.625992 96.212327 
L 906.65951 95.007546 
L 914.636655 95.007546 
L 914.692518 93.802765 
L 948.746215 93.802765 
L 948.76856 92.597984 
L 948.958492 92.597984 
L 948.980837 91.393203 
L 949.215459 91.393203 
L 949.248976 90.188423 
L 949.438908 90.188423 
L 949.472426 88.983642 
L 949.71822 88.983642 
L 949.740565 87.778861 
L 983.414399 87.778861 
L 983.425571 86.57408 
L 983.704883 86.57408 
L 983.7384 85.369299 
L 983.939505 85.369299 
L 984.151782 84.164518 
L 984.408749 84.164518 
L 984.431094 82.959737 
L 1010.373576 82.959737 
L 1010.407093 81.754956 
L 1010.641715 81.754956 
L 1010.66406 80.550176 
L 1011.110959 80.550176 
L 1011.166821 79.345395 
L 1011.390271 79.345395 
L 1011.412616 78.140614 
L 1014.082837 78.140614 
L 1014.418011 76.935833 
L 1029.701954 76.935833 
L 1029.768989 75.731052 
L 1030.171198 75.731052 
L 1030.18237 74.526271 
L 1030.796856 74.526271 
L 1030.819201 73.32149 
L 1031.154376 73.32149 
L 1031.176721 72.116709 
L 1042.818437 72.116709 
L 1042.82961 70.911929 
L 1043.198301 70.911929 
L 1043.220646 69.707148 
L 1050.426891 69.707148 
L 1050.438064 68.502367 
L 1050.929653 68.502367 
L 1050.96317 67.297586 
L 1051.275999 67.297586 
L 1051.298344 66.092805 
L 1064.068481 66.092805 
L 1064.101998 64.888024 
L 1064.38131 64.888024 
L 1064.403655 63.683243 
L 1064.638277 63.683243 
L 1064.660622 62.478462 
L 1064.939934 62.478462 
L 1064.962279 61.273682 
L 1074.827572 61.273682 
L 1074.849917 60.068901 
L 1075.095712 60.068901 
L 1075.118057 58.86412 
L 1075.442058 58.86412 
L 1075.464403 57.659339 
L 1075.743715 57.659339 
L 1075.76606 56.454558 
L 1076.000682 56.454558 
L 1076.011854 55.249777 
L 1076.201787 55.249777 
L 1076.224131 54.044996 
L 1079.83284 54.044996 
L 1081.151192 52.840215 
L 1084.067207 52.840215 
L 1084.089552 51.635435 
L 1096.021754 51.635435 
L 1096.066443 50.430654 
L 1096.401618 50.430654 
L 1096.41279 49.225873 
L 1100.233776 49.225873 
L 1100.267293 48.021092 
L 1100.546605 48.021092 
L 1100.56895 46.816311 
L 1107.998645 46.816311 
L 1108.043334 45.61153 
L 1108.333819 45.61153 
L 1108.389681 44.406749 
L 1108.579613 44.406749 
L 1108.646648 43.201968 
L 1113.1715 43.201968 
L 1113.193844 41.997187 
L 1113.193844 41.997187 
" clip-path="url(#p06de05266f)" style="fill: none; stroke: #0000ff; stroke-width: 1.5; stroke-linecap: square"/>
   </g>
   <g id="patch_53">
    <path d="M 49.235 359.517187 
L 49.235 26.877187 
" style="fill: none; stroke: #000000; stroke-width: 0.8; stroke-linejoin: miter; stroke-linecap: square"/>
   </g>
   <g id="patch_54">
    <path d="M 1165.235 359.517187 
L 1165.235 26.877187 
" style="fill: none; stroke: #000000; stroke-width: 0.8; stroke-linejoin: miter; stroke-linecap: square"/>
   </g>
   <g id="patch_55">
    <path d="M 49.235 359.517187 
L 1165.235 359.517187 
" style="fill: none; stroke: #000000; stroke-width: 0.8; stroke-linejoin: miter; stroke-linecap: square"/>
   </g>
   <g id="patch_56">
    <path d="M 49.235 26.877187 
L 1165.235 26.877187 
" style="fill: none; stroke: #000000; stroke-width: 0.8; stroke-linejoin: miter; stroke-linecap: square"/>
   </g>
   <g id="text_18">
    <!-- Pellet Count and Cumulative Sum Over Time of Group 5 Mouse 1 -->
    <g transform="translate(315.460625 20.877187) scale(0.18 -0.18)">
     <defs>
      <path id="DejaVuSans-61" d="M 2194 1759 
Q 1497 1759 1228 1600 
Q 959 1441 959 1056 
Q 959 750 1161 570 
Q 1363 391 1709 391 
Q 2188 391 2477 730 
Q 2766 1069 2766 1631 
L 2766 1759 
L 2194 1759 
z
M 3341 1997 
L 3341 0 
L 2766 0 
L 2766 531 
Q 2569 213 2275 61 
Q 1981 -91 1556 -91 
Q 1019 -91 701 211 
Q 384 513 384 1019 
Q 384 1609 779 1909 
Q 1175 2209 1959 2209 
L 2766 2209 
L 2766 2266 
Q 2766 2663 2505 2880 
Q 2244 3097 1772 3097 
Q 1472 3097 1187 3025 
Q 903 2953 641 2809 
L 641 3341 
Q 956 3463 1253 3523 
Q 1550 3584 1831 3584 
Q 2591 3584 2966 3190 
Q 3341 2797 3341 1997 
z
" transform="scale(0.015625)"/>
      <path id="DejaVuSans-64" d="M 2906 2969 
L 2906 4863 
L 3481 4863 
L 3481 0 
L 2906 0 
L 2906 525 
Q 2725 213 2448 61 
Q 2172 -91 1784 -91 
Q 1150 -91 751 415 
Q 353 922 353 1747 
Q 353 2572 751 3078 
Q 1150 3584 1784 3584 
Q 2172 3584 2448 3432 
Q 2725 3281 2906 2969 
z
M 947 1747 
Q 947 1113 1208 752 
Q 1469 391 1925 391 
Q 2381 391 2643 752 
Q 2906 1113 2906 1747 
Q 2906 2381 2643 2742 
Q 2381 3103 1925 3103 
Q 1469 3103 1208 2742 
Q 947 2381 947 1747 
z
" transform="scale(0.015625)"/>
      <path id="DejaVuSans-76" d="M 191 3500 
L 800 3500 
L 1894 563 
L 2988 3500 
L 3597 3500 
L 2284 0 
L 1503 0 
L 191 3500 
z
" transform="scale(0.015625)"/>
      <path id="DejaVuSans-53" d="M 3425 4513 
L 3425 3897 
Q 3066 4069 2747 4153 
Q 2428 4238 2131 4238 
Q 1616 4238 1336 4038 
Q 1056 3838 1056 3469 
Q 1056 3159 1242 3001 
Q 1428 2844 1947 2747 
L 2328 2669 
Q 3034 2534 3370 2195 
Q 3706 1856 3706 1288 
Q 3706 609 3251 259 
Q 2797 -91 1919 -91 
Q 1588 -91 1214 -16 
Q 841 59 441 206 
L 441 856 
Q 825 641 1194 531 
Q 1563 422 1919 422 
Q 2459 422 2753 634 
Q 3047 847 3047 1241 
Q 3047 1584 2836 1778 
Q 2625 1972 2144 2069 
L 1759 2144 
Q 1053 2284 737 2584 
Q 422 2884 422 3419 
Q 422 4038 858 4394 
Q 1294 4750 2059 4750 
Q 2388 4750 2728 4690 
Q 3069 4631 3425 4513 
z
" transform="scale(0.015625)"/>
      <path id="DejaVuSans-4f" d="M 2522 4238 
Q 1834 4238 1429 3725 
Q 1025 3213 1025 2328 
Q 1025 1447 1429 934 
Q 1834 422 2522 422 
Q 3209 422 3611 934 
Q 4013 1447 4013 2328 
Q 4013 3213 3611 3725 
Q 3209 4238 2522 4238 
z
M 2522 4750 
Q 3503 4750 4090 4092 
Q 4678 3434 4678 2328 
Q 4678 1225 4090 567 
Q 3503 -91 2522 -91 
Q 1538 -91 948 565 
Q 359 1222 359 2328 
Q 359 3434 948 4092 
Q 1538 4750 2522 4750 
z
" transform="scale(0.015625)"/>
      <path id="DejaVuSans-72" d="M 2631 2963 
Q 2534 3019 2420 3045 
Q 2306 3072 2169 3072 
Q 1681 3072 1420 2755 
Q 1159 2438 1159 1844 
L 1159 0 
L 581 0 
L 581 3500 
L 1159 3500 
L 1159 2956 
Q 1341 3275 1631 3429 
Q 1922 3584 2338 3584 
Q 2397 3584 2469 3576 
Q 2541 3569 2628 3553 
L 2631 2963 
z
" transform="scale(0.015625)"/>
      <path id="DejaVuSans-66" d="M 2375 4863 
L 2375 4384 
L 1825 4384 
Q 1516 4384 1395 4259 
Q 1275 4134 1275 3809 
L 1275 3500 
L 2222 3500 
L 2222 3053 
L 1275 3053 
L 1275 0 
L 697 0 
L 697 3053 
L 147 3053 
L 147 3500 
L 697 3500 
L 697 3744 
Q 697 4328 969 4595 
Q 1241 4863 1831 4863 
L 2375 4863 
z
" transform="scale(0.015625)"/>
      <path id="DejaVuSans-47" d="M 3809 666 
L 3809 1919 
L 2778 1919 
L 2778 2438 
L 4434 2438 
L 4434 434 
Q 4069 175 3628 42 
Q 3188 -91 2688 -91 
Q 1594 -91 976 548 
Q 359 1188 359 2328 
Q 359 3472 976 4111 
Q 1594 4750 2688 4750 
Q 3144 4750 3555 4637 
Q 3966 4525 4313 4306 
L 4313 3634 
Q 3963 3931 3569 4081 
Q 3175 4231 2741 4231 
Q 1884 4231 1454 3753 
Q 1025 3275 1025 2328 
Q 1025 1384 1454 906 
Q 1884 428 2741 428 
Q 3075 428 3337 486 
Q 3600 544 3809 666 
z
" transform="scale(0.015625)"/>
      <path id="DejaVuSans-70" d="M 1159 525 
L 1159 -1331 
L 581 -1331 
L 581 3500 
L 1159 3500 
L 1159 2969 
Q 1341 3281 1617 3432 
Q 1894 3584 2278 3584 
Q 2916 3584 3314 3078 
Q 3713 2572 3713 1747 
Q 3713 922 3314 415 
Q 2916 -91 2278 -91 
Q 1894 -91 1617 61 
Q 1341 213 1159 525 
z
M 3116 1747 
Q 3116 2381 2855 2742 
Q 2594 3103 2138 3103 
Q 1681 3103 1420 2742 
Q 1159 2381 1159 1747 
Q 1159 1113 1420 752 
Q 1681 391 2138 391 
Q 2594 391 2855 752 
Q 3116 1113 3116 1747 
z
" transform="scale(0.015625)"/>
      <path id="DejaVuSans-4d" d="M 628 4666 
L 1569 4666 
L 2759 1491 
L 3956 4666 
L 4897 4666 
L 4897 0 
L 4281 0 
L 4281 4097 
L 3078 897 
L 2444 897 
L 1241 4097 
L 1241 0 
L 628 0 
L 628 4666 
z
" transform="scale(0.015625)"/>
      <path id="DejaVuSans-73" d="M 2834 3397 
L 2834 2853 
Q 2591 2978 2328 3040 
Q 2066 3103 1784 3103 
Q 1356 3103 1142 2972 
Q 928 2841 928 2578 
Q 928 2378 1081 2264 
Q 1234 2150 1697 2047 
L 1894 2003 
Q 2506 1872 2764 1633 
Q 3022 1394 3022 966 
Q 3022 478 2636 193 
Q 2250 -91 1575 -91 
Q 1294 -91 989 -36 
Q 684 19 347 128 
L 347 722 
Q 666 556 975 473 
Q 1284 391 1588 391 
Q 1994 391 2212 530 
Q 2431 669 2431 922 
Q 2431 1156 2273 1281 
Q 2116 1406 1581 1522 
L 1381 1569 
Q 847 1681 609 1914 
Q 372 2147 372 2553 
Q 372 3047 722 3315 
Q 1072 3584 1716 3584 
Q 2034 3584 2315 3537 
Q 2597 3491 2834 3397 
z
" transform="scale(0.015625)"/>
     </defs>
     <use xlink:href="#DejaVuSans-50"/>
     <use xlink:href="#DejaVuSans-65" x="56.677734"/>
     <use xlink:href="#DejaVuSans-6c" x="118.201172"/>
     <use xlink:href="#DejaVuSans-6c" x="145.984375"/>
     <use xlink:href="#DejaVuSans-65" x="173.767578"/>
     <use xlink:href="#DejaVuSans-74" x="235.291016"/>
     <use xlink:href="#DejaVuSans-20" x="274.5"/>
     <use xlink:href="#DejaVuSans-43" x="306.287109"/>
     <use xlink:href="#DejaVuSans-6f" x="376.111328"/>
     <use xlink:href="#DejaVuSans-75" x="437.292969"/>
     <use xlink:href="#DejaVuSans-6e" x="500.671875"/>
     <use xlink:href="#DejaVuSans-74" x="564.050781"/>
     <use xlink:href="#DejaVuSans-20" x="603.259766"/>
     <use xlink:href="#DejaVuSans-61" x="635.046875"/>
     <use xlink:href="#DejaVuSans-6e" x="696.326172"/>
     <use xlink:href="#DejaVuSans-64" x="759.705078"/>
     <use xlink:href="#DejaVuSans-20" x="823.181641"/>
     <use xlink:href="#DejaVuSans-43" x="854.96875"/>
     <use xlink:href="#DejaVuSans-75" x="924.792969"/>
     <use xlink:href="#DejaVuSans-6d" x="988.171875"/>
     <use xlink:href="#DejaVuSans-75" x="1085.583984"/>
     <use xlink:href="#DejaVuSans-6c" x="1148.962891"/>
     <use xlink:href="#DejaVuSans-61" x="1176.746094"/>
     <use xlink:href="#DejaVuSans-74" x="1238.025391"/>
     <use xlink:href="#DejaVuSans-69" x="1277.234375"/>
     <use xlink:href="#DejaVuSans-76" x="1305.017578"/>
     <use xlink:href="#DejaVuSans-65" x="1364.197266"/>
     <use xlink:href="#DejaVuSans-20" x="1425.720703"/>
     <use xlink:href="#DejaVuSans-53" x="1457.507812"/>
     <use xlink:href="#DejaVuSans-75" x="1520.984375"/>
     <use xlink:href="#DejaVuSans-6d" x="1584.363281"/>
     <use xlink:href="#DejaVuSans-20" x="1681.775391"/>
     <use xlink:href="#DejaVuSans-4f" x="1713.5625"/>
     <use xlink:href="#DejaVuSans-76" x="1792.273438"/>
     <use xlink:href="#DejaVuSans-65" x="1851.453125"/>
     <use xlink:href="#DejaVuSans-72" x="1912.976562"/>
     <use xlink:href="#DejaVuSans-20" x="1954.089844"/>
     <use xlink:href="#DejaVuSans-54" x="1985.876953"/>
     <use xlink:href="#DejaVuSans-69" x="2043.835938"/>
     <use xlink:href="#DejaVuSans-6d" x="2071.619141"/>
     <use xlink:href="#DejaVuSans-65" x="2169.03125"/>
     <use xlink:href="#DejaVuSans-20" x="2230.554688"/>
     <use xlink:href="#DejaVuSans-6f" x="2262.341797"/>
     <use xlink:href="#DejaVuSans-66" x="2323.523438"/>
     <use xlink:href="#DejaVuSans-20" x="2358.728516"/>
     <use xlink:href="#DejaVuSans-47" x="2390.515625"/>
     <use xlink:href="#DejaVuSans-72" x="2468.005859"/>
     <use xlink:href="#DejaVuSans-6f" x="2506.869141"/>
     <use xlink:href="#DejaVuSans-75" x="2568.050781"/>
     <use xlink:href="#DejaVuSans-70" x="2631.429688"/>
     <use xlink:href="#DejaVuSans-20" x="2694.90625"/>
     <use xlink:href="#DejaVuSans-35" x="2726.693359"/>
     <use xlink:href="#DejaVuSans-20" x="2790.316406"/>
     <use xlink:href="#DejaVuSans-4d" x="2822.103516"/>
     <use xlink:href="#DejaVuSans-6f" x="2908.382812"/>
     <use xlink:href="#DejaVuSans-75" x="2969.564453"/>
     <use xlink:href="#DejaVuSans-73" x="3032.943359"/>
     <use xlink:href="#DejaVuSans-65" x="3085.042969"/>
     <use xlink:href="#DejaVuSans-20" x="3146.566406"/>
     <use xlink:href="#DejaVuSans-31" x="3178.353516"/>
    </g>
   </g>
   <g id="legend_1">
    <g id="patch_57">
     <path d="M 1086.550625 64.233437 
L 1158.235 64.233437 
Q 1160.235 64.233437 1160.235 62.233437 
L 1160.235 33.877187 
Q 1160.235 31.877187 1158.235 31.877187 
L 1086.550625 31.877187 
Q 1084.550625 31.877187 1084.550625 33.877187 
L 1084.550625 62.233437 
Q 1084.550625 64.233437 1086.550625 64.233437 
z
" style="fill: #ffffff; opacity: 0.8; stroke: #cccccc; stroke-linejoin: miter"/>
    </g>
    <g id="patch_58">
     <path d="M 1088.550625 43.475625 
L 1108.550625 43.475625 
L 1108.550625 36.475625 
L 1088.550625 36.475625 
z
" style="fill: #add8e6; opacity: 0.9; stroke: #add8e6; stroke-linejoin: miter"/>
    </g>
    <g id="text_19">
     <!-- Meal -->
     <g transform="translate(1116.550625 43.475625) scale(0.1 -0.1)">
      <use xlink:href="#DejaVuSans-4d"/>
      <use xlink:href="#DejaVuSans-65" x="86.279297"/>
      <use xlink:href="#DejaVuSans-61" x="147.802734"/>
      <use xlink:href="#DejaVuSans-6c" x="209.082031"/>
     </g>
    </g>
    <g id="patch_59">
     <path d="M 1088.550625 58.15375 
L 1108.550625 58.15375 
L 1108.550625 51.15375 
L 1088.550625 51.15375 
z
" style="fill: #808080; opacity: 0.5; stroke: #808080; stroke-linejoin: miter"/>
    </g>
    <g id="text_20">
     <!-- Inactive -->
     <g transform="translate(1116.550625 58.15375) scale(0.1 -0.1)">
      <defs>
       <path id="DejaVuSans-49" d="M 628 4666 
L 1259 4666 
L 1259 0 
L 628 0 
L 628 4666 
z
" transform="scale(0.015625)"/>
       <path id="DejaVuSans-63" d="M 3122 3366 
L 3122 2828 
Q 2878 2963 2633 3030 
Q 2388 3097 2138 3097 
Q 1578 3097 1268 2742 
Q 959 2388 959 1747 
Q 959 1106 1268 751 
Q 1578 397 2138 397 
Q 2388 397 2633 464 
Q 2878 531 3122 666 
L 3122 134 
Q 2881 22 2623 -34 
Q 2366 -91 2075 -91 
Q 1284 -91 818 406 
Q 353 903 353 1747 
Q 353 2603 823 3093 
Q 1294 3584 2113 3584 
Q 2378 3584 2631 3529 
Q 2884 3475 3122 3366 
z
" transform="scale(0.015625)"/>
      </defs>
      <use xlink:href="#DejaVuSans-49"/>
      <use xlink:href="#DejaVuSans-6e" x="29.492188"/>
      <use xlink:href="#DejaVuSans-61" x="92.871094"/>
      <use xlink:href="#DejaVuSans-63" x="154.150391"/>
      <use xlink:href="#DejaVuSans-74" x="209.130859"/>
      <use xlink:href="#DejaVuSans-69" x="248.339844"/>
      <use xlink:href="#DejaVuSans-76" x="276.123047"/>
      <use xlink:href="#DejaVuSans-65" x="335.302734"/>
     </g>
    </g>
   </g>
  </g>
 </g>
 <defs>
  <clipPath id="p06de05266f">
   <rect x="49.235" y="26.877187" width="1116" height="332.64"/>
  </clipPath>
 </defs>
</svg>
