<?xml version="1.0" encoding="utf-8" standalone="no"?>
<!DOCTYPE svg PUBLIC "-//W3C//DTD SVG 1.1//EN"
  "http://www.w3.org/Graphics/SVG/1.1/DTD/svg11.dtd">
<svg xmlns:xlink="http://www.w3.org/1999/xlink" width="1172.435pt" height="399.009062pt" viewBox="0 0 1172.435 399.009062" xmlns="http://www.w3.org/2000/svg" version="1.1">
 <metadata>
  <rdf:RDF xmlns:dc="http://purl.org/dc/elements/1.1/" xmlns:cc="http://creativecommons.org/ns#" xmlns:rdf="http://www.w3.org/1999/02/22-rdf-syntax-ns#">
   <cc:Work>
    <dc:type rdf:resource="http://purl.org/dc/dcmitype/StillImage"/>
    <dc:date>2025-07-29T18:38:11.192124</dc:date>
    <dc:format>image/svg+xml</dc:format>
    <dc:creator>
     <cc:Agent>
      <dc:title>Matplotlib v3.8.4, https://matplotlib.org/</dc:title>
     </cc:Agent>
    </dc:creator>
   </cc:Work>
  </rdf:RDF>
 </metadata>
 <defs>
  <style type="text/css">*{stroke-linejoin: round; stroke-linecap: butt}</style>
 </defs>
 <g id="figure_1">
  <g id="patch_1">
   <path d="M 0 399.009062 
L 1172.435 399.009062 
L 1172.435 0 
L 0 0 
z
" style="fill: #ffffff"/>
  </g>
  <g id="axes_1">
   <g id="patch_2">
    <path d="M 49.235 359.517187 
L 1165.235 359.517187 
L 1165.235 26.877187 
L 49.235 26.877187 
z
" style="fill: #ffffff"/>
   </g>
   <g id="patch_3">
    <path d="M 173.632726 359.517187 
L 173.632726 26.877187 
L 168.064095 26.877187 
L 168.064095 359.517187 
z
" clip-path="url(#p6be3a24c34)" style="fill: #add8e6; stroke: #add8e6; stroke-linejoin: miter"/>
   </g>
   <g id="patch_4">
    <path d="M 179.481897 359.517187 
L 179.481897 26.877187 
L 177.792324 26.877187 
L 177.792324 359.517187 
z
" clip-path="url(#p6be3a24c34)" style="fill: #add8e6; stroke: #add8e6; stroke-linejoin: miter"/>
   </g>
   <g id="patch_5">
    <path d="M 204.196915 359.517187 
L 204.196915 26.877187 
L 189.475902 26.877187 
L 189.475902 359.517187 
z
" clip-path="url(#p6be3a24c34)" style="fill: #add8e6; stroke: #add8e6; stroke-linejoin: miter"/>
   </g>
   <g id="patch_6">
    <path d="M 205.477278 359.517187 
L 205.477278 26.877187 
L 189.38731 26.877187 
L 189.38731 359.517187 
z
" clip-path="url(#p6be3a24c34)" style="fill: #add8e6; stroke: #add8e6; stroke-linejoin: miter"/>
   </g>
   <g id="patch_7">
    <path d="M 224.678507 359.517187 
L 224.678507 26.877187 
L 195.660457 26.877187 
L 195.660457 359.517187 
z
" clip-path="url(#p6be3a24c34)" style="fill: #add8e6; stroke: #add8e6; stroke-linejoin: miter"/>
   </g>
   <g id="patch_8">
    <path d="M 197.033631 359.517187 
L 197.033631 26.877187 
L 194.369547 26.877187 
L 194.369547 359.517187 
z
" clip-path="url(#p6be3a24c34)" style="fill: #add8e6; stroke: #add8e6; stroke-linejoin: miter"/>
   </g>
   <g id="patch_9">
    <path d="M 212.212368 359.517187 
L 212.212368 26.877187 
L 211.38973 26.877187 
L 211.38973 359.517187 
z
" clip-path="url(#p6be3a24c34)" style="fill: #add8e6; stroke: #add8e6; stroke-linejoin: miter"/>
   </g>
   <g id="patch_10">
    <path d="M 213.079303 359.517187 
L 213.079303 26.877187 
L 212.562517 26.877187 
L 212.562517 359.517187 
z
" clip-path="url(#p6be3a24c34)" style="fill: #add8e6; stroke: #add8e6; stroke-linejoin: miter"/>
   </g>
   <g id="patch_11">
    <path d="M 215.557765 359.517187 
L 215.557765 26.877187 
L 215.370035 26.877187 
L 215.370035 359.517187 
z
" clip-path="url(#p6be3a24c34)" style="fill: #add8e6; stroke: #add8e6; stroke-linejoin: miter"/>
   </g>
   <g id="patch_12">
    <path d="M 226.754088 359.517187 
L 226.754088 26.877187 
L 215.973303 26.877187 
L 215.973303 359.517187 
z
" clip-path="url(#p6be3a24c34)" style="fill: #add8e6; stroke: #add8e6; stroke-linejoin: miter"/>
   </g>
   <g id="patch_13">
    <path d="M 233.442773 359.517187 
L 233.442773 26.877187 
L 218.008807 26.877187 
L 218.008807 359.517187 
z
" clip-path="url(#p6be3a24c34)" style="fill: #add8e6; stroke: #add8e6; stroke-linejoin: miter"/>
   </g>
   <g id="patch_14">
    <path d="M 231.164697 359.517187 
L 231.164697 26.877187 
L 230.097376 26.877187 
L 230.097376 359.517187 
z
" clip-path="url(#p6be3a24c34)" style="fill: #add8e6; stroke: #add8e6; stroke-linejoin: miter"/>
   </g>
   <g id="patch_15">
    <path d="M 232.755131 359.517187 
L 232.755131 26.877187 
L 231.086651 26.877187 
L 231.086651 359.517187 
z
" clip-path="url(#p6be3a24c34)" style="fill: #add8e6; stroke: #add8e6; stroke-linejoin: miter"/>
   </g>
   <g id="patch_16">
    <path d="M 234.320254 359.517187 
L 234.320254 26.877187 
L 235.366482 26.877187 
L 235.366482 359.517187 
z
" clip-path="url(#p6be3a24c34)" style="fill: #add8e6; stroke: #add8e6; stroke-linejoin: miter"/>
   </g>
   <g id="patch_17">
    <path d="M 236.138496 359.517187 
L 236.138496 26.877187 
L 236.634189 26.877187 
L 236.634189 359.517187 
z
" clip-path="url(#p6be3a24c34)" style="fill: #add8e6; stroke: #add8e6; stroke-linejoin: miter"/>
   </g>
   <g id="patch_18">
    <path d="M 256.375407 359.517187 
L 256.375407 26.877187 
L 256.750867 26.877187 
L 256.750867 359.517187 
z
" clip-path="url(#p6be3a24c34)" style="fill: #add8e6; stroke: #add8e6; stroke-linejoin: miter"/>
   </g>
   <g id="patch_19">
    <path d="M 264.095554 359.517187 
L 264.095554 26.877187 
L 264.021727 26.877187 
L 264.021727 359.517187 
z
" clip-path="url(#p6be3a24c34)" style="fill: #add8e6; stroke: #add8e6; stroke-linejoin: miter"/>
   </g>
   <g id="patch_20">
    <path d="M 267.183612 359.517187 
L 267.183612 26.877187 
L 267.143535 26.877187 
L 267.143535 359.517187 
z
" clip-path="url(#p6be3a24c34)" style="fill: #add8e6; stroke: #add8e6; stroke-linejoin: miter"/>
   </g>
   <g id="patch_21">
    <path d="M 270.459402 359.517187 
L 270.459402 26.877187 
L 270.372919 26.877187 
L 270.372919 359.517187 
z
" clip-path="url(#p6be3a24c34)" style="fill: #add8e6; stroke: #add8e6; stroke-linejoin: miter"/>
   </g>
   <g id="patch_22">
    <path d="M 273.288013 359.517187 
L 273.288013 26.877187 
L 272.904115 26.877187 
L 272.904115 359.517187 
z
" clip-path="url(#p6be3a24c34)" style="fill: #add8e6; stroke: #add8e6; stroke-linejoin: miter"/>
   </g>
   <g id="patch_23">
    <path d="M 274.84048 359.517187 
L 274.84048 26.877187 
L 274.627437 26.877187 
L 274.627437 359.517187 
z
" clip-path="url(#p6be3a24c34)" style="fill: #add8e6; stroke: #add8e6; stroke-linejoin: miter"/>
   </g>
   <g id="patch_24">
    <path d="M 287.152638 359.517187 
L 287.152638 26.877187 
L 287.920434 26.877187 
L 287.920434 359.517187 
z
" clip-path="url(#p6be3a24c34)" style="fill: #add8e6; stroke: #add8e6; stroke-linejoin: miter"/>
   </g>
   <g id="patch_25">
    <path d="M 299.656745 359.517187 
L 299.656745 26.877187 
L 299.764321 26.877187 
L 299.764321 359.517187 
z
" clip-path="url(#p6be3a24c34)" style="fill: #add8e6; stroke: #add8e6; stroke-linejoin: miter"/>
   </g>
   <g id="patch_26">
    <path d="M 310.983846 359.517187 
L 310.983846 26.877187 
L 309.138183 26.877187 
L 309.138183 359.517187 
z
" clip-path="url(#p6be3a24c34)" style="fill: #add8e6; stroke: #add8e6; stroke-linejoin: miter"/>
   </g>
   <g id="patch_27">
    <path d="M 310.12113 359.517187 
L 310.12113 26.877187 
L 311.519616 26.877187 
L 311.519616 359.517187 
z
" clip-path="url(#p6be3a24c34)" style="fill: #add8e6; stroke: #add8e6; stroke-linejoin: miter"/>
   </g>
   <g id="patch_28">
    <path d="M 331.155367 359.517187 
L 331.155367 26.877187 
L 332.313389 26.877187 
L 332.313389 359.517187 
z
" clip-path="url(#p6be3a24c34)" style="fill: #add8e6; stroke: #add8e6; stroke-linejoin: miter"/>
   </g>
   <g id="patch_29">
    <path d="M 333.914371 359.517187 
L 333.914371 26.877187 
L 333.296337 26.877187 
L 333.296337 359.517187 
z
" clip-path="url(#p6be3a24c34)" style="fill: #add8e6; stroke: #add8e6; stroke-linejoin: miter"/>
   </g>
   <g id="patch_30">
    <path d="M 334.566153 359.517187 
L 334.566153 26.877187 
L 334.555607 26.877187 
L 334.555607 359.517187 
z
" clip-path="url(#p6be3a24c34)" style="fill: #add8e6; stroke: #add8e6; stroke-linejoin: miter"/>
   </g>
   <g id="patch_31">
    <path d="M 353.356063 359.517187 
L 353.356063 26.877187 
L 354.077454 26.877187 
L 354.077454 359.517187 
z
" clip-path="url(#p6be3a24c34)" style="fill: #add8e6; stroke: #add8e6; stroke-linejoin: miter"/>
   </g>
   <g id="patch_32">
    <path d="M 402.052052 359.517187 
L 402.052052 26.877187 
L 367.163736 26.877187 
L 367.163736 359.517187 
z
" clip-path="url(#p6be3a24c34)" style="fill: #add8e6; stroke: #add8e6; stroke-linejoin: miter"/>
   </g>
   <g id="patch_33">
    <path d="M 382.842385 359.517187 
L 382.842385 26.877187 
L 373.900936 26.877187 
L 373.900936 359.517187 
z
" clip-path="url(#p6be3a24c34)" style="fill: #add8e6; stroke: #add8e6; stroke-linejoin: miter"/>
   </g>
   <g id="patch_34">
    <path d="M 395.859059 359.517187 
L 395.859059 26.877187 
L 396.173349 26.877187 
L 396.173349 359.517187 
z
" clip-path="url(#p6be3a24c34)" style="fill: #add8e6; stroke: #add8e6; stroke-linejoin: miter"/>
   </g>
   <g id="patch_35">
    <path d="M 403.602409 359.517187 
L 403.602409 26.877187 
L 403.906152 26.877187 
L 403.906152 359.517187 
z
" clip-path="url(#p6be3a24c34)" style="fill: #add8e6; stroke: #add8e6; stroke-linejoin: miter"/>
   </g>
   <g id="patch_36">
    <path d="M 405.397449 359.517187 
L 405.397449 26.877187 
L 406.593439 26.877187 
L 406.593439 359.517187 
z
" clip-path="url(#p6be3a24c34)" style="fill: #add8e6; stroke: #add8e6; stroke-linejoin: miter"/>
   </g>
   <g id="patch_37">
    <path d="M 468.9389 359.517187 
L 468.9389 26.877187 
L 433.559111 26.877187 
L 433.559111 359.517187 
z
" clip-path="url(#p6be3a24c34)" style="fill: #add8e6; stroke: #add8e6; stroke-linejoin: miter"/>
   </g>
   <g id="patch_38">
    <path d="M 444.331458 359.517187 
L 444.331458 26.877187 
L 443.257809 26.877187 
L 443.257809 359.517187 
z
" clip-path="url(#p6be3a24c34)" style="fill: #add8e6; stroke: #add8e6; stroke-linejoin: miter"/>
   </g>
   <g id="patch_39">
    <path d="M 444.114197 359.517187 
L 444.114197 26.877187 
L 444.29349 26.877187 
L 444.29349 359.517187 
z
" clip-path="url(#p6be3a24c34)" style="fill: #add8e6; stroke: #add8e6; stroke-linejoin: miter"/>
   </g>
   <g id="patch_40">
    <path d="M 451.547476 359.517187 
L 451.547476 26.877187 
L 451.956686 26.877187 
L 451.956686 359.517187 
z
" clip-path="url(#p6be3a24c34)" style="fill: #add8e6; stroke: #add8e6; stroke-linejoin: miter"/>
   </g>
   <g id="patch_41">
    <path d="M 454.595457 359.517187 
L 454.595457 26.877187 
L 453.445872 26.877187 
L 453.445872 359.517187 
z
" clip-path="url(#p6be3a24c34)" style="fill: #add8e6; stroke: #add8e6; stroke-linejoin: miter"/>
   </g>
   <g id="patch_42">
    <path d="M 486.916718 359.517187 
L 486.916718 26.877187 
L 461.929597 26.877187 
L 461.929597 359.517187 
z
" clip-path="url(#p6be3a24c34)" style="fill: #add8e6; stroke: #add8e6; stroke-linejoin: miter"/>
   </g>
   <g id="patch_43">
    <path d="M 474.469563 359.517187 
L 474.469563 26.877187 
L 473.834654 26.877187 
L 473.834654 359.517187 
z
" clip-path="url(#p6be3a24c34)" style="fill: #add8e6; stroke: #add8e6; stroke-linejoin: miter"/>
   </g>
   <g id="patch_44">
    <path d="M 474.969474 359.517187 
L 474.969474 26.877187 
L 474.469563 26.877187 
L 474.469563 359.517187 
z
" clip-path="url(#p6be3a24c34)" style="fill: #add8e6; stroke: #add8e6; stroke-linejoin: miter"/>
   </g>
   <g id="patch_45">
    <path d="M 475.256343 359.517187 
L 475.256343 26.877187 
L 475.733051 26.877187 
L 475.733051 359.517187 
z
" clip-path="url(#p6be3a24c34)" style="fill: #add8e6; stroke: #add8e6; stroke-linejoin: miter"/>
   </g>
   <g id="patch_46">
    <path d="M 495.967852 359.517187 
L 495.967852 26.877187 
L 496.119724 26.877187 
L 496.119724 359.517187 
z
" clip-path="url(#p6be3a24c34)" style="fill: #add8e6; stroke: #add8e6; stroke-linejoin: miter"/>
   </g>
   <g id="patch_47">
    <path d="M 497.54774 359.517187 
L 497.54774 26.877187 
L 496.495185 26.877187 
L 496.495185 359.517187 
z
" clip-path="url(#p6be3a24c34)" style="fill: #add8e6; stroke: #add8e6; stroke-linejoin: miter"/>
   </g>
   <g id="patch_48">
    <path d="M 540.118235 359.517187 
L 540.118235 26.877187 
L 540.624474 26.877187 
L 540.624474 359.517187 
z
" clip-path="url(#p6be3a24c34)" style="fill: #add8e6; stroke: #add8e6; stroke-linejoin: miter"/>
   </g>
   <g id="patch_49">
    <path d="M 555.543764 359.517187 
L 555.543764 26.877187 
L 544.189241 26.877187 
L 544.189241 359.517187 
z
" clip-path="url(#p6be3a24c34)" style="fill: #add8e6; stroke: #add8e6; stroke-linejoin: miter"/>
   </g>
   <g id="patch_50">
    <path d="M 550.396999 359.517187 
L 550.396999 26.877187 
L 551.107843 26.877187 
L 551.107843 359.517187 
z
" clip-path="url(#p6be3a24c34)" style="fill: #add8e6; stroke: #add8e6; stroke-linejoin: miter"/>
   </g>
   <g id="patch_51">
    <path d="M 559.45657 359.517187 
L 559.45657 26.877187 
L 555.39611 26.877187 
L 555.39611 359.517187 
z
" clip-path="url(#p6be3a24c34)" style="fill: #add8e6; stroke: #add8e6; stroke-linejoin: miter"/>
   </g>
   <g id="patch_52">
    <path d="M 574.736556 359.517187 
L 574.736556 26.877187 
L 561.91394 26.877187 
L 561.91394 359.517187 
z
" clip-path="url(#p6be3a24c34)" style="fill: #add8e6; stroke: #add8e6; stroke-linejoin: miter"/>
   </g>
   <g id="patch_53">
    <path d="M 562.656424 359.517187 
L 562.656424 26.877187 
L 563.031884 26.877187 
L 563.031884 359.517187 
z
" clip-path="url(#p6be3a24c34)" style="fill: #add8e6; stroke: #add8e6; stroke-linejoin: miter"/>
   </g>
   <g id="patch_54">
    <path d="M 579.495204 359.517187 
L 579.495204 26.877187 
L 580.225032 26.877187 
L 580.225032 359.517187 
z
" clip-path="url(#p6be3a24c34)" style="fill: #add8e6; stroke: #add8e6; stroke-linejoin: miter"/>
   </g>
   <g id="patch_55">
    <path d="M 624.843685 359.517187 
L 624.843685 26.877187 
L 624.310025 26.877187 
L 624.310025 359.517187 
z
" clip-path="url(#p6be3a24c34)" style="fill: #add8e6; stroke: #add8e6; stroke-linejoin: miter"/>
   </g>
   <g id="patch_56">
    <path d="M 650.402435 359.517187 
L 650.402435 26.877187 
L 650.999375 26.877187 
L 650.999375 359.517187 
z
" clip-path="url(#p6be3a24c34)" style="fill: #add8e6; stroke: #add8e6; stroke-linejoin: miter"/>
   </g>
   <g id="patch_57">
    <path d="M 653.085502 359.517187 
L 653.085502 26.877187 
L 651.573113 26.877187 
L 651.573113 359.517187 
z
" clip-path="url(#p6be3a24c34)" style="fill: #add8e6; stroke: #add8e6; stroke-linejoin: miter"/>
   </g>
   <g id="patch_58">
    <path d="M 679.283379 359.517187 
L 679.283379 26.877187 
L 678.945886 26.877187 
L 678.945886 359.517187 
z
" clip-path="url(#p6be3a24c34)" style="fill: #add8e6; stroke: #add8e6; stroke-linejoin: miter"/>
   </g>
   <g id="patch_59">
    <path d="M 693.154331 359.517187 
L 693.154331 26.877187 
L 693.654243 26.877187 
L 693.654243 359.517187 
z
" clip-path="url(#p6be3a24c34)" style="fill: #add8e6; stroke: #add8e6; stroke-linejoin: miter"/>
   </g>
   <g id="patch_60">
    <path d="M 737.549396 359.517187 
L 737.549396 26.877187 
L 737.581036 26.877187 
L 737.581036 359.517187 
z
" clip-path="url(#p6be3a24c34)" style="fill: #add8e6; stroke: #add8e6; stroke-linejoin: miter"/>
   </g>
   <g id="patch_61">
    <path d="M 764.91795 359.517187 
L 764.91795 26.877187 
L 764.546708 26.877187 
L 764.546708 359.517187 
z
" clip-path="url(#p6be3a24c34)" style="fill: #add8e6; stroke: #add8e6; stroke-linejoin: miter"/>
   </g>
   <g id="patch_62">
    <path d="M 765.54864 359.517187 
L 765.54864 26.877187 
L 766.124487 26.877187 
L 766.124487 359.517187 
z
" clip-path="url(#p6be3a24c34)" style="fill: #add8e6; stroke: #add8e6; stroke-linejoin: miter"/>
   </g>
   <g id="patch_63">
    <path d="M 767.883668 359.517187 
L 767.883668 26.877187 
L 767.271962 26.877187 
L 767.271962 359.517187 
z
" clip-path="url(#p6be3a24c34)" style="fill: #add8e6; stroke: #add8e6; stroke-linejoin: miter"/>
   </g>
   <g id="patch_64">
    <path d="M 841.362172 359.517187 
L 841.362172 26.877187 
L 820.713943 26.877187 
L 820.713943 359.517187 
z
" clip-path="url(#p6be3a24c34)" style="fill: #add8e6; stroke: #add8e6; stroke-linejoin: miter"/>
   </g>
   <g id="patch_65">
    <path d="M 851.59664 359.517187 
L 851.59664 26.877187 
L 852.012178 26.877187 
L 852.012178 359.517187 
z
" clip-path="url(#p6be3a24c34)" style="fill: #add8e6; stroke: #add8e6; stroke-linejoin: miter"/>
   </g>
   <g id="patch_66">
    <path d="M 880.789765 359.517187 
L 880.789765 26.877187 
L 881.386705 26.877187 
L 881.386705 359.517187 
z
" clip-path="url(#p6be3a24c34)" style="fill: #add8e6; stroke: #add8e6; stroke-linejoin: miter"/>
   </g>
   <g id="patch_67">
    <path d="M 921.561001 359.517187 
L 921.561001 26.877187 
L 921.790918 26.877187 
L 921.790918 359.517187 
z
" clip-path="url(#p6be3a24c34)" style="fill: #add8e6; stroke: #add8e6; stroke-linejoin: miter"/>
   </g>
   <g id="patch_68">
    <path d="M 923.077609 359.517187 
L 923.077609 26.877187 
L 923.067063 26.877187 
L 923.067063 359.517187 
z
" clip-path="url(#p6be3a24c34)" style="fill: #add8e6; stroke: #add8e6; stroke-linejoin: miter"/>
   </g>
   <g id="patch_69">
    <path d="M 952.610336 359.517187 
L 952.610336 26.877187 
L 951.74762 26.877187 
L 951.74762 359.517187 
z
" clip-path="url(#p6be3a24c34)" style="fill: #add8e6; stroke: #add8e6; stroke-linejoin: miter"/>
   </g>
   <g id="patch_70">
    <path d="M 989.20088 359.517187 
L 989.20088 26.877187 
L 988.819092 26.877187 
L 988.819092 359.517187 
z
" clip-path="url(#p6be3a24c34)" style="fill: #add8e6; stroke: #add8e6; stroke-linejoin: miter"/>
   </g>
   <g id="patch_71">
    <path d="M 1013.863164 359.517187 
L 1013.863164 26.877187 
L 1014.000271 26.877187 
L 1014.000271 359.517187 
z
" clip-path="url(#p6be3a24c34)" style="fill: #add8e6; stroke: #add8e6; stroke-linejoin: miter"/>
   </g>
   <g id="patch_72">
    <path d="M 1014.797598 359.517187 
L 1014.797598 26.877187 
L 1015.07392 26.877187 
L 1015.07392 359.517187 
z
" clip-path="url(#p6be3a24c34)" style="fill: #add8e6; stroke: #add8e6; stroke-linejoin: miter"/>
   </g>
   <g id="patch_73">
    <path d="M 1015.782655 359.517187 
L 1015.782655 26.877187 
L 1017.063018 26.877187 
L 1017.063018 359.517187 
z
" clip-path="url(#p6be3a24c34)" style="fill: #add8e6; stroke: #add8e6; stroke-linejoin: miter"/>
   </g>
   <g id="patch_74">
    <path d="M 1065.569166 359.517187 
L 1065.569166 26.877187 
L 1065.974158 26.877187 
L 1065.974158 359.517187 
z
" clip-path="url(#p6be3a24c34)" style="fill: #add8e6; stroke: #add8e6; stroke-linejoin: miter"/>
   </g>
   <g id="patch_75">
    <path d="M 1093.142326 359.517187 
L 1093.142326 26.877187 
L 1094.277145 26.877187 
L 1094.277145 359.517187 
z
" clip-path="url(#p6be3a24c34)" style="fill: #add8e6; stroke: #add8e6; stroke-linejoin: miter"/>
   </g>
   <g id="patch_76">
    <path d="M 1106.895156 359.517187 
L 1106.895156 26.877187 
L 1107.802168 26.877187 
L 1107.802168 359.517187 
z
" clip-path="url(#p6be3a24c34)" style="fill: #add8e6; stroke: #add8e6; stroke-linejoin: miter"/>
   </g>
   <g id="patch_77">
    <path d="M 99.962273 359.517187 
L 99.962273 26.877187 
L 125.274231 26.877187 
L 125.274231 359.517187 
z
" clip-path="url(#p6be3a24c34)" style="fill: #808080; opacity: 0.4; stroke: #808080; stroke-linejoin: miter"/>
   </g>
   <g id="patch_78">
    <path d="M 137.930209 26.877187 
L 137.930209 26.877187 
L 137.930209 359.517187 
" clip-path="url(#p6be3a24c34)" style="fill: #808080; opacity: 0.4; stroke: #808080; stroke-linejoin: miter"/>
   </g>
   <g id="patch_79">
    <path d="M 150.586188 26.877187 
L 150.586188 26.877187 
L 150.586188 359.517187 
" clip-path="url(#p6be3a24c34)" style="fill: #808080; opacity: 0.4; stroke: #808080; stroke-linejoin: miter"/>
   </g>
   <g id="patch_80">
    <path d="M 580.889471 359.517187 
L 580.889471 26.877187 
L 1036.504711 26.877187 
L 1036.504711 359.517187 
z
" clip-path="url(#p6be3a24c34)" style="fill: #808080; opacity: 0.4; stroke: #808080; stroke-linejoin: miter"/>
   </g>
   <g id="patch_81">
    <path d="M 1049.16069 26.877187 
L 1049.16069 26.877187 
L 1049.16069 359.517187 
" clip-path="url(#p6be3a24c34)" style="fill: #808080; opacity: 0.4; stroke: #808080; stroke-linejoin: miter"/>
   </g>
   <g id="patch_82">
    <path d="M 1061.816668 26.877187 
L 1061.816668 26.877187 
L 1061.816668 359.517187 
" clip-path="url(#p6be3a24c34)" style="fill: #808080; opacity: 0.4; stroke: #808080; stroke-linejoin: miter"/>
   </g>
   <g id="matplotlib.axis_1">
    <g id="xtick_1">
     <g id="line2d_1">
      <defs>
       <path id="m14d7a46b16" d="M 0 0 
L 0 3.5 
" style="stroke: #000000; stroke-width: 0.8"/>
      </defs>
      <g>
       <use xlink:href="#m14d7a46b16" x="77.012764" y="359.517187" style="stroke: #000000; stroke-width: 0.8"/>
      </g>
     </g>
     <g id="text_1">
      <!-- 11-19 06 -->
      <g transform="translate(54.532296 374.115625) scale(0.1 -0.1)">
       <defs>
        <path id="DejaVuSans-31" d="M 794 531 
L 1825 531 
L 1825 4091 
L 703 3866 
L 703 4441 
L 1819 4666 
L 2450 4666 
L 2450 531 
L 3481 531 
L 3481 0 
L 794 0 
L 794 531 
z
" transform="scale(0.015625)"/>
        <path id="DejaVuSans-2d" d="M 313 2009 
L 1997 2009 
L 1997 1497 
L 313 1497 
L 313 2009 
z
" transform="scale(0.015625)"/>
        <path id="DejaVuSans-39" d="M 703 97 
L 703 672 
Q 941 559 1184 500 
Q 1428 441 1663 441 
Q 2288 441 2617 861 
Q 2947 1281 2994 2138 
Q 2813 1869 2534 1725 
Q 2256 1581 1919 1581 
Q 1219 1581 811 2004 
Q 403 2428 403 3163 
Q 403 3881 828 4315 
Q 1253 4750 1959 4750 
Q 2769 4750 3195 4129 
Q 3622 3509 3622 2328 
Q 3622 1225 3098 567 
Q 2575 -91 1691 -91 
Q 1453 -91 1209 -44 
Q 966 3 703 97 
z
M 1959 2075 
Q 2384 2075 2632 2365 
Q 2881 2656 2881 3163 
Q 2881 3666 2632 3958 
Q 2384 4250 1959 4250 
Q 1534 4250 1286 3958 
Q 1038 3666 1038 3163 
Q 1038 2656 1286 2365 
Q 1534 2075 1959 2075 
z
" transform="scale(0.015625)"/>
        <path id="DejaVuSans-20" transform="scale(0.015625)"/>
        <path id="DejaVuSans-30" d="M 2034 4250 
Q 1547 4250 1301 3770 
Q 1056 3291 1056 2328 
Q 1056 1369 1301 889 
Q 1547 409 2034 409 
Q 2525 409 2770 889 
Q 3016 1369 3016 2328 
Q 3016 3291 2770 3770 
Q 2525 4250 2034 4250 
z
M 2034 4750 
Q 2819 4750 3233 4129 
Q 3647 3509 3647 2328 
Q 3647 1150 3233 529 
Q 2819 -91 2034 -91 
Q 1250 -91 836 529 
Q 422 1150 422 2328 
Q 422 3509 836 4129 
Q 1250 4750 2034 4750 
z
" transform="scale(0.015625)"/>
        <path id="DejaVuSans-36" d="M 2113 2584 
Q 1688 2584 1439 2293 
Q 1191 2003 1191 1497 
Q 1191 994 1439 701 
Q 1688 409 2113 409 
Q 2538 409 2786 701 
Q 3034 994 3034 1497 
Q 3034 2003 2786 2293 
Q 2538 2584 2113 2584 
z
M 3366 4563 
L 3366 3988 
Q 3128 4100 2886 4159 
Q 2644 4219 2406 4219 
Q 1781 4219 1451 3797 
Q 1122 3375 1075 2522 
Q 1259 2794 1537 2939 
Q 1816 3084 2150 3084 
Q 2853 3084 3261 2657 
Q 3669 2231 3669 1497 
Q 3669 778 3244 343 
Q 2819 -91 2113 -91 
Q 1303 -91 875 529 
Q 447 1150 447 2328 
Q 447 3434 972 4092 
Q 1497 4750 2381 4750 
Q 2619 4750 2861 4703 
Q 3103 4656 3366 4563 
z
" transform="scale(0.015625)"/>
       </defs>
       <use xlink:href="#DejaVuSans-31"/>
       <use xlink:href="#DejaVuSans-31" x="63.623047"/>
       <use xlink:href="#DejaVuSans-2d" x="127.246094"/>
       <use xlink:href="#DejaVuSans-31" x="163.330078"/>
       <use xlink:href="#DejaVuSans-39" x="226.953125"/>
       <use xlink:href="#DejaVuSans-20" x="290.576172"/>
       <use xlink:href="#DejaVuSans-30" x="322.363281"/>
       <use xlink:href="#DejaVuSans-36" x="385.986328"/>
      </g>
     </g>
    </g>
    <g id="xtick_2">
     <g id="line2d_2">
      <g>
       <use xlink:href="#m14d7a46b16" x="190.916574" y="359.517187" style="stroke: #000000; stroke-width: 0.8"/>
      </g>
     </g>
     <g id="text_2">
      <!-- 11-19 09 -->
      <g transform="translate(168.436106 374.115625) scale(0.1 -0.1)">
       <use xlink:href="#DejaVuSans-31"/>
       <use xlink:href="#DejaVuSans-31" x="63.623047"/>
       <use xlink:href="#DejaVuSans-2d" x="127.246094"/>
       <use xlink:href="#DejaVuSans-31" x="163.330078"/>
       <use xlink:href="#DejaVuSans-39" x="226.953125"/>
       <use xlink:href="#DejaVuSans-20" x="290.576172"/>
       <use xlink:href="#DejaVuSans-30" x="322.363281"/>
       <use xlink:href="#DejaVuSans-39" x="385.986328"/>
      </g>
     </g>
    </g>
    <g id="xtick_3">
     <g id="line2d_3">
      <g>
       <use xlink:href="#m14d7a46b16" x="304.820384" y="359.517187" style="stroke: #000000; stroke-width: 0.8"/>
      </g>
     </g>
     <g id="text_3">
      <!-- 11-19 12 -->
      <g transform="translate(282.339916 374.115625) scale(0.1 -0.1)">
       <defs>
        <path id="DejaVuSans-32" d="M 1228 531 
L 3431 531 
L 3431 0 
L 469 0 
L 469 531 
Q 828 903 1448 1529 
Q 2069 2156 2228 2338 
Q 2531 2678 2651 2914 
Q 2772 3150 2772 3378 
Q 2772 3750 2511 3984 
Q 2250 4219 1831 4219 
Q 1534 4219 1204 4116 
Q 875 4013 500 3803 
L 500 4441 
Q 881 4594 1212 4672 
Q 1544 4750 1819 4750 
Q 2544 4750 2975 4387 
Q 3406 4025 3406 3419 
Q 3406 3131 3298 2873 
Q 3191 2616 2906 2266 
Q 2828 2175 2409 1742 
Q 1991 1309 1228 531 
z
" transform="scale(0.015625)"/>
       </defs>
       <use xlink:href="#DejaVuSans-31"/>
       <use xlink:href="#DejaVuSans-31" x="63.623047"/>
       <use xlink:href="#DejaVuSans-2d" x="127.246094"/>
       <use xlink:href="#DejaVuSans-31" x="163.330078"/>
       <use xlink:href="#DejaVuSans-39" x="226.953125"/>
       <use xlink:href="#DejaVuSans-20" x="290.576172"/>
       <use xlink:href="#DejaVuSans-31" x="322.363281"/>
       <use xlink:href="#DejaVuSans-32" x="385.986328"/>
      </g>
     </g>
    </g>
    <g id="xtick_4">
     <g id="line2d_4">
      <g>
       <use xlink:href="#m14d7a46b16" x="418.724194" y="359.517187" style="stroke: #000000; stroke-width: 0.8"/>
      </g>
     </g>
     <g id="text_4">
      <!-- 11-19 15 -->
      <g transform="translate(396.243726 374.115625) scale(0.1 -0.1)">
       <defs>
        <path id="DejaVuSans-35" d="M 691 4666 
L 3169 4666 
L 3169 4134 
L 1269 4134 
L 1269 2991 
Q 1406 3038 1543 3061 
Q 1681 3084 1819 3084 
Q 2600 3084 3056 2656 
Q 3513 2228 3513 1497 
Q 3513 744 3044 326 
Q 2575 -91 1722 -91 
Q 1428 -91 1123 -41 
Q 819 9 494 109 
L 494 744 
Q 775 591 1075 516 
Q 1375 441 1709 441 
Q 2250 441 2565 725 
Q 2881 1009 2881 1497 
Q 2881 1984 2565 2268 
Q 2250 2553 1709 2553 
Q 1456 2553 1204 2497 
Q 953 2441 691 2322 
L 691 4666 
z
" transform="scale(0.015625)"/>
       </defs>
       <use xlink:href="#DejaVuSans-31"/>
       <use xlink:href="#DejaVuSans-31" x="63.623047"/>
       <use xlink:href="#DejaVuSans-2d" x="127.246094"/>
       <use xlink:href="#DejaVuSans-31" x="163.330078"/>
       <use xlink:href="#DejaVuSans-39" x="226.953125"/>
       <use xlink:href="#DejaVuSans-20" x="290.576172"/>
       <use xlink:href="#DejaVuSans-31" x="322.363281"/>
       <use xlink:href="#DejaVuSans-35" x="385.986328"/>
      </g>
     </g>
    </g>
    <g id="xtick_5">
     <g id="line2d_5">
      <g>
       <use xlink:href="#m14d7a46b16" x="532.628004" y="359.517187" style="stroke: #000000; stroke-width: 0.8"/>
      </g>
     </g>
     <g id="text_5">
      <!-- 11-19 18 -->
      <g transform="translate(510.147536 374.115625) scale(0.1 -0.1)">
       <defs>
        <path id="DejaVuSans-38" d="M 2034 2216 
Q 1584 2216 1326 1975 
Q 1069 1734 1069 1313 
Q 1069 891 1326 650 
Q 1584 409 2034 409 
Q 2484 409 2743 651 
Q 3003 894 3003 1313 
Q 3003 1734 2745 1975 
Q 2488 2216 2034 2216 
z
M 1403 2484 
Q 997 2584 770 2862 
Q 544 3141 544 3541 
Q 544 4100 942 4425 
Q 1341 4750 2034 4750 
Q 2731 4750 3128 4425 
Q 3525 4100 3525 3541 
Q 3525 3141 3298 2862 
Q 3072 2584 2669 2484 
Q 3125 2378 3379 2068 
Q 3634 1759 3634 1313 
Q 3634 634 3220 271 
Q 2806 -91 2034 -91 
Q 1263 -91 848 271 
Q 434 634 434 1313 
Q 434 1759 690 2068 
Q 947 2378 1403 2484 
z
M 1172 3481 
Q 1172 3119 1398 2916 
Q 1625 2713 2034 2713 
Q 2441 2713 2670 2916 
Q 2900 3119 2900 3481 
Q 2900 3844 2670 4047 
Q 2441 4250 2034 4250 
Q 1625 4250 1398 4047 
Q 1172 3844 1172 3481 
z
" transform="scale(0.015625)"/>
       </defs>
       <use xlink:href="#DejaVuSans-31"/>
       <use xlink:href="#DejaVuSans-31" x="63.623047"/>
       <use xlink:href="#DejaVuSans-2d" x="127.246094"/>
       <use xlink:href="#DejaVuSans-31" x="163.330078"/>
       <use xlink:href="#DejaVuSans-39" x="226.953125"/>
       <use xlink:href="#DejaVuSans-20" x="290.576172"/>
       <use xlink:href="#DejaVuSans-31" x="322.363281"/>
       <use xlink:href="#DejaVuSans-38" x="385.986328"/>
      </g>
     </g>
    </g>
    <g id="xtick_6">
     <g id="line2d_6">
      <g>
       <use xlink:href="#m14d7a46b16" x="646.531814" y="359.517187" style="stroke: #000000; stroke-width: 0.8"/>
      </g>
     </g>
     <g id="text_6">
      <!-- 11-19 21 -->
      <g transform="translate(624.051346 374.115625) scale(0.1 -0.1)">
       <use xlink:href="#DejaVuSans-31"/>
       <use xlink:href="#DejaVuSans-31" x="63.623047"/>
       <use xlink:href="#DejaVuSans-2d" x="127.246094"/>
       <use xlink:href="#DejaVuSans-31" x="163.330078"/>
       <use xlink:href="#DejaVuSans-39" x="226.953125"/>
       <use xlink:href="#DejaVuSans-20" x="290.576172"/>
       <use xlink:href="#DejaVuSans-32" x="322.363281"/>
       <use xlink:href="#DejaVuSans-31" x="385.986328"/>
      </g>
     </g>
    </g>
    <g id="xtick_7">
     <g id="line2d_7">
      <g>
       <use xlink:href="#m14d7a46b16" x="760.435624" y="359.517187" style="stroke: #000000; stroke-width: 0.8"/>
      </g>
     </g>
     <g id="text_7">
      <!-- 11-20 00 -->
      <g transform="translate(737.955156 374.115625) scale(0.1 -0.1)">
       <use xlink:href="#DejaVuSans-31"/>
       <use xlink:href="#DejaVuSans-31" x="63.623047"/>
       <use xlink:href="#DejaVuSans-2d" x="127.246094"/>
       <use xlink:href="#DejaVuSans-32" x="163.330078"/>
       <use xlink:href="#DejaVuSans-30" x="226.953125"/>
       <use xlink:href="#DejaVuSans-20" x="290.576172"/>
       <use xlink:href="#DejaVuSans-30" x="322.363281"/>
       <use xlink:href="#DejaVuSans-30" x="385.986328"/>
      </g>
     </g>
    </g>
    <g id="xtick_8">
     <g id="line2d_8">
      <g>
       <use xlink:href="#m14d7a46b16" x="874.339435" y="359.517187" style="stroke: #000000; stroke-width: 0.8"/>
      </g>
     </g>
     <g id="text_8">
      <!-- 11-20 03 -->
      <g transform="translate(851.858966 374.115625) scale(0.1 -0.1)">
       <defs>
        <path id="DejaVuSans-33" d="M 2597 2516 
Q 3050 2419 3304 2112 
Q 3559 1806 3559 1356 
Q 3559 666 3084 287 
Q 2609 -91 1734 -91 
Q 1441 -91 1130 -33 
Q 819 25 488 141 
L 488 750 
Q 750 597 1062 519 
Q 1375 441 1716 441 
Q 2309 441 2620 675 
Q 2931 909 2931 1356 
Q 2931 1769 2642 2001 
Q 2353 2234 1838 2234 
L 1294 2234 
L 1294 2753 
L 1863 2753 
Q 2328 2753 2575 2939 
Q 2822 3125 2822 3475 
Q 2822 3834 2567 4026 
Q 2313 4219 1838 4219 
Q 1578 4219 1281 4162 
Q 984 4106 628 3988 
L 628 4550 
Q 988 4650 1302 4700 
Q 1616 4750 1894 4750 
Q 2613 4750 3031 4423 
Q 3450 4097 3450 3541 
Q 3450 3153 3228 2886 
Q 3006 2619 2597 2516 
z
" transform="scale(0.015625)"/>
       </defs>
       <use xlink:href="#DejaVuSans-31"/>
       <use xlink:href="#DejaVuSans-31" x="63.623047"/>
       <use xlink:href="#DejaVuSans-2d" x="127.246094"/>
       <use xlink:href="#DejaVuSans-32" x="163.330078"/>
       <use xlink:href="#DejaVuSans-30" x="226.953125"/>
       <use xlink:href="#DejaVuSans-20" x="290.576172"/>
       <use xlink:href="#DejaVuSans-30" x="322.363281"/>
       <use xlink:href="#DejaVuSans-33" x="385.986328"/>
      </g>
     </g>
    </g>
    <g id="xtick_9">
     <g id="line2d_9">
      <g>
       <use xlink:href="#m14d7a46b16" x="988.243245" y="359.517187" style="stroke: #000000; stroke-width: 0.8"/>
      </g>
     </g>
     <g id="text_9">
      <!-- 11-20 06 -->
      <g transform="translate(965.762776 374.115625) scale(0.1 -0.1)">
       <use xlink:href="#DejaVuSans-31"/>
       <use xlink:href="#DejaVuSans-31" x="63.623047"/>
       <use xlink:href="#DejaVuSans-2d" x="127.246094"/>
       <use xlink:href="#DejaVuSans-32" x="163.330078"/>
       <use xlink:href="#DejaVuSans-30" x="226.953125"/>
       <use xlink:href="#DejaVuSans-20" x="290.576172"/>
       <use xlink:href="#DejaVuSans-30" x="322.363281"/>
       <use xlink:href="#DejaVuSans-36" x="385.986328"/>
      </g>
     </g>
    </g>
    <g id="xtick_10">
     <g id="line2d_10">
      <g>
       <use xlink:href="#m14d7a46b16" x="1102.147055" y="359.517187" style="stroke: #000000; stroke-width: 0.8"/>
      </g>
     </g>
     <g id="text_10">
      <!-- 11-20 09 -->
      <g transform="translate(1079.666586 374.115625) scale(0.1 -0.1)">
       <use xlink:href="#DejaVuSans-31"/>
       <use xlink:href="#DejaVuSans-31" x="63.623047"/>
       <use xlink:href="#DejaVuSans-2d" x="127.246094"/>
       <use xlink:href="#DejaVuSans-32" x="163.330078"/>
       <use xlink:href="#DejaVuSans-30" x="226.953125"/>
       <use xlink:href="#DejaVuSans-20" x="290.576172"/>
       <use xlink:href="#DejaVuSans-30" x="322.363281"/>
       <use xlink:href="#DejaVuSans-39" x="385.986328"/>
      </g>
     </g>
    </g>
    <g id="text_11">
     <!-- Time -->
     <g transform="translate(592.554688 389.313437) scale(0.12 -0.12)">
      <defs>
       <path id="DejaVuSans-54" d="M -19 4666 
L 3928 4666 
L 3928 4134 
L 2272 4134 
L 2272 0 
L 1638 0 
L 1638 4134 
L -19 4134 
L -19 4666 
z
" transform="scale(0.015625)"/>
       <path id="DejaVuSans-69" d="M 603 3500 
L 1178 3500 
L 1178 0 
L 603 0 
L 603 3500 
z
M 603 4863 
L 1178 4863 
L 1178 4134 
L 603 4134 
L 603 4863 
z
" transform="scale(0.015625)"/>
       <path id="DejaVuSans-6d" d="M 3328 2828 
Q 3544 3216 3844 3400 
Q 4144 3584 4550 3584 
Q 5097 3584 5394 3201 
Q 5691 2819 5691 2113 
L 5691 0 
L 5113 0 
L 5113 2094 
Q 5113 2597 4934 2840 
Q 4756 3084 4391 3084 
Q 3944 3084 3684 2787 
Q 3425 2491 3425 1978 
L 3425 0 
L 2847 0 
L 2847 2094 
Q 2847 2600 2669 2842 
Q 2491 3084 2119 3084 
Q 1678 3084 1418 2786 
Q 1159 2488 1159 1978 
L 1159 0 
L 581 0 
L 581 3500 
L 1159 3500 
L 1159 2956 
Q 1356 3278 1631 3431 
Q 1906 3584 2284 3584 
Q 2666 3584 2933 3390 
Q 3200 3197 3328 2828 
z
" transform="scale(0.015625)"/>
       <path id="DejaVuSans-65" d="M 3597 1894 
L 3597 1613 
L 953 1613 
Q 991 1019 1311 708 
Q 1631 397 2203 397 
Q 2534 397 2845 478 
Q 3156 559 3463 722 
L 3463 178 
Q 3153 47 2828 -22 
Q 2503 -91 2169 -91 
Q 1331 -91 842 396 
Q 353 884 353 1716 
Q 353 2575 817 3079 
Q 1281 3584 2069 3584 
Q 2775 3584 3186 3129 
Q 3597 2675 3597 1894 
z
M 3022 2063 
Q 3016 2534 2758 2815 
Q 2500 3097 2075 3097 
Q 1594 3097 1305 2825 
Q 1016 2553 972 2059 
L 3022 2063 
z
" transform="scale(0.015625)"/>
      </defs>
      <use xlink:href="#DejaVuSans-54"/>
      <use xlink:href="#DejaVuSans-69" x="57.958984"/>
      <use xlink:href="#DejaVuSans-6d" x="85.742188"/>
      <use xlink:href="#DejaVuSans-65" x="183.154297"/>
     </g>
    </g>
   </g>
   <g id="matplotlib.axis_2">
    <g id="ytick_1">
     <g id="line2d_11">
      <defs>
       <path id="mb619880d86" d="M 0 0 
L -3.5 0 
" style="stroke: #000000; stroke-width: 0.8"/>
      </defs>
      <g>
       <use xlink:href="#mb619880d86" x="49.235" y="344.397187" style="stroke: #000000; stroke-width: 0.8"/>
      </g>
     </g>
     <g id="text_12">
      <!-- 0 -->
      <g transform="translate(35.8725 348.196406) scale(0.1 -0.1)">
       <use xlink:href="#DejaVuSans-30"/>
      </g>
     </g>
    </g>
    <g id="ytick_2">
     <g id="line2d_12">
      <g>
       <use xlink:href="#mb619880d86" x="49.235" y="293.997187" style="stroke: #000000; stroke-width: 0.8"/>
      </g>
     </g>
     <g id="text_13">
      <!-- 50 -->
      <g transform="translate(29.51 297.796406) scale(0.1 -0.1)">
       <use xlink:href="#DejaVuSans-35"/>
       <use xlink:href="#DejaVuSans-30" x="63.623047"/>
      </g>
     </g>
    </g>
    <g id="ytick_3">
     <g id="line2d_13">
      <g>
       <use xlink:href="#mb619880d86" x="49.235" y="243.597187" style="stroke: #000000; stroke-width: 0.8"/>
      </g>
     </g>
     <g id="text_14">
      <!-- 100 -->
      <g transform="translate(23.1475 247.396406) scale(0.1 -0.1)">
       <use xlink:href="#DejaVuSans-31"/>
       <use xlink:href="#DejaVuSans-30" x="63.623047"/>
       <use xlink:href="#DejaVuSans-30" x="127.246094"/>
      </g>
     </g>
    </g>
    <g id="ytick_4">
     <g id="line2d_14">
      <g>
       <use xlink:href="#mb619880d86" x="49.235" y="193.197187" style="stroke: #000000; stroke-width: 0.8"/>
      </g>
     </g>
     <g id="text_15">
      <!-- 150 -->
      <g transform="translate(23.1475 196.996406) scale(0.1 -0.1)">
       <use xlink:href="#DejaVuSans-31"/>
       <use xlink:href="#DejaVuSans-35" x="63.623047"/>
       <use xlink:href="#DejaVuSans-30" x="127.246094"/>
      </g>
     </g>
    </g>
    <g id="ytick_5">
     <g id="line2d_15">
      <g>
       <use xlink:href="#mb619880d86" x="49.235" y="142.797187" style="stroke: #000000; stroke-width: 0.8"/>
      </g>
     </g>
     <g id="text_16">
      <!-- 200 -->
      <g transform="translate(23.1475 146.596406) scale(0.1 -0.1)">
       <use xlink:href="#DejaVuSans-32"/>
       <use xlink:href="#DejaVuSans-30" x="63.623047"/>
       <use xlink:href="#DejaVuSans-30" x="127.246094"/>
      </g>
     </g>
    </g>
    <g id="ytick_6">
     <g id="line2d_16">
      <g>
       <use xlink:href="#mb619880d86" x="49.235" y="92.397187" style="stroke: #000000; stroke-width: 0.8"/>
      </g>
     </g>
     <g id="text_17">
      <!-- 250 -->
      <g transform="translate(23.1475 96.196406) scale(0.1 -0.1)">
       <use xlink:href="#DejaVuSans-32"/>
       <use xlink:href="#DejaVuSans-35" x="63.623047"/>
       <use xlink:href="#DejaVuSans-30" x="127.246094"/>
      </g>
     </g>
    </g>
    <g id="ytick_7">
     <g id="line2d_17">
      <g>
       <use xlink:href="#mb619880d86" x="49.235" y="41.997187" style="stroke: #000000; stroke-width: 0.8"/>
      </g>
     </g>
     <g id="text_18">
      <!-- 300 -->
      <g transform="translate(23.1475 45.796406) scale(0.1 -0.1)">
       <use xlink:href="#DejaVuSans-33"/>
       <use xlink:href="#DejaVuSans-30" x="63.623047"/>
       <use xlink:href="#DejaVuSans-30" x="127.246094"/>
      </g>
     </g>
    </g>
    <g id="text_19">
     <!-- Pellet_Count -->
     <g transform="translate(16.318125 230.485312) rotate(-90) scale(0.12 -0.12)">
      <defs>
       <path id="DejaVuSans-50" d="M 1259 4147 
L 1259 2394 
L 2053 2394 
Q 2494 2394 2734 2622 
Q 2975 2850 2975 3272 
Q 2975 3691 2734 3919 
Q 2494 4147 2053 4147 
L 1259 4147 
z
M 628 4666 
L 2053 4666 
Q 2838 4666 3239 4311 
Q 3641 3956 3641 3272 
Q 3641 2581 3239 2228 
Q 2838 1875 2053 1875 
L 1259 1875 
L 1259 0 
L 628 0 
L 628 4666 
z
" transform="scale(0.015625)"/>
       <path id="DejaVuSans-6c" d="M 603 4863 
L 1178 4863 
L 1178 0 
L 603 0 
L 603 4863 
z
" transform="scale(0.015625)"/>
       <path id="DejaVuSans-74" d="M 1172 4494 
L 1172 3500 
L 2356 3500 
L 2356 3053 
L 1172 3053 
L 1172 1153 
Q 1172 725 1289 603 
Q 1406 481 1766 481 
L 2356 481 
L 2356 0 
L 1766 0 
Q 1100 0 847 248 
Q 594 497 594 1153 
L 594 3053 
L 172 3053 
L 172 3500 
L 594 3500 
L 594 4494 
L 1172 4494 
z
" transform="scale(0.015625)"/>
       <path id="DejaVuSans-5f" d="M 3263 -1063 
L 3263 -1509 
L -63 -1509 
L -63 -1063 
L 3263 -1063 
z
" transform="scale(0.015625)"/>
       <path id="DejaVuSans-43" d="M 4122 4306 
L 4122 3641 
Q 3803 3938 3442 4084 
Q 3081 4231 2675 4231 
Q 1875 4231 1450 3742 
Q 1025 3253 1025 2328 
Q 1025 1406 1450 917 
Q 1875 428 2675 428 
Q 3081 428 3442 575 
Q 3803 722 4122 1019 
L 4122 359 
Q 3791 134 3420 21 
Q 3050 -91 2638 -91 
Q 1578 -91 968 557 
Q 359 1206 359 2328 
Q 359 3453 968 4101 
Q 1578 4750 2638 4750 
Q 3056 4750 3426 4639 
Q 3797 4528 4122 4306 
z
" transform="scale(0.015625)"/>
       <path id="DejaVuSans-6f" d="M 1959 3097 
Q 1497 3097 1228 2736 
Q 959 2375 959 1747 
Q 959 1119 1226 758 
Q 1494 397 1959 397 
Q 2419 397 2687 759 
Q 2956 1122 2956 1747 
Q 2956 2369 2687 2733 
Q 2419 3097 1959 3097 
z
M 1959 3584 
Q 2709 3584 3137 3096 
Q 3566 2609 3566 1747 
Q 3566 888 3137 398 
Q 2709 -91 1959 -91 
Q 1206 -91 779 398 
Q 353 888 353 1747 
Q 353 2609 779 3096 
Q 1206 3584 1959 3584 
z
" transform="scale(0.015625)"/>
       <path id="DejaVuSans-75" d="M 544 1381 
L 544 3500 
L 1119 3500 
L 1119 1403 
Q 1119 906 1312 657 
Q 1506 409 1894 409 
Q 2359 409 2629 706 
Q 2900 1003 2900 1516 
L 2900 3500 
L 3475 3500 
L 3475 0 
L 2900 0 
L 2900 538 
Q 2691 219 2414 64 
Q 2138 -91 1772 -91 
Q 1169 -91 856 284 
Q 544 659 544 1381 
z
M 1991 3584 
L 1991 3584 
z
" transform="scale(0.015625)"/>
       <path id="DejaVuSans-6e" d="M 3513 2113 
L 3513 0 
L 2938 0 
L 2938 2094 
Q 2938 2591 2744 2837 
Q 2550 3084 2163 3084 
Q 1697 3084 1428 2787 
Q 1159 2491 1159 1978 
L 1159 0 
L 581 0 
L 581 3500 
L 1159 3500 
L 1159 2956 
Q 1366 3272 1645 3428 
Q 1925 3584 2291 3584 
Q 2894 3584 3203 3211 
Q 3513 2838 3513 2113 
z
" transform="scale(0.015625)"/>
      </defs>
      <use xlink:href="#DejaVuSans-50"/>
      <use xlink:href="#DejaVuSans-65" x="56.677734"/>
      <use xlink:href="#DejaVuSans-6c" x="118.201172"/>
      <use xlink:href="#DejaVuSans-6c" x="145.984375"/>
      <use xlink:href="#DejaVuSans-65" x="173.767578"/>
      <use xlink:href="#DejaVuSans-74" x="235.291016"/>
      <use xlink:href="#DejaVuSans-5f" x="274.5"/>
      <use xlink:href="#DejaVuSans-43" x="324.5"/>
      <use xlink:href="#DejaVuSans-6f" x="394.324219"/>
      <use xlink:href="#DejaVuSans-75" x="455.505859"/>
      <use xlink:href="#DejaVuSans-6e" x="518.884766"/>
      <use xlink:href="#DejaVuSans-74" x="582.263672"/>
     </g>
    </g>
   </g>
   <g id="line2d_18">
    <path d="M 99.962273 344.397187 
L 101.132951 344.397187 
L 101.132951 344.397187 
L 102.430189 343.389187 
L 108.378499 343.389187 
L 110.266349 342.381187 
L 113.85221 342.381187 
L 119.716146 341.373187 
L 122.563742 341.373187 
L 122.690301 340.365187 
L 129.74601 340.365187 
L 129.925303 339.357187 
L 134.196696 339.357187 
L 136.253292 338.349187 
L 140.862178 338.349187 
L 141.347324 337.341187 
L 142.908228 337.341187 
L 145.63981 336.333187 
L 147.179621 336.333187 
L 149.816283 335.325187 
L 155.416554 335.325187 
L 156.819258 334.317187 
L 161.248851 334.317187 
L 161.385957 333.309187 
L 162.366795 333.309187 
L 162.472262 332.301187 
L 166.806935 332.301187 
L 166.891308 331.293187 
L 174.622002 331.293187 
L 174.727468 330.285187 
L 174.980588 330.285187 
L 175.064961 329.277187 
L 176.499305 329.277187 
L 176.520398 328.269187 
L 177.279757 328.269187 
L 177.733263 327.261187 
L 178.207862 327.261187 
L 178.408249 326.253187 
L 178.735195 326.253187 
L 179.178154 325.245187 
L 183.945239 325.245187 
L 184.040159 324.237187 
L 186.666275 324.237187 
L 187.299074 323.229187 
L 189.070911 323.229187 
L 189.186924 322.221187 
L 189.503323 322.221187 
L 189.661523 321.213187 
L 192.793878 321.213187 
L 192.825518 320.205187 
L 194.386422 320.205187 
L 194.428608 319.197187 
L 197.845723 319.197187 
L 197.877363 318.189187 
L 205.31275 318.189187 
L 205.34439 317.181187 
L 209.995463 317.181187 
L 210.048196 316.173187 
L 210.259129 316.173187 
L 210.280222 315.165187 
L 210.765368 315.165187 
L 210.775915 314.157187 
L 211.334887 314.157187 
L 211.377074 313.149187 
L 211.851673 313.149187 
L 211.872766 312.141187 
L 212.220805 312.141187 
L 212.305179 311.133187 
L 213.391484 311.133187 
L 213.43367 310.125187 
L 213.887176 310.125187 
L 214.129749 309.117187 
L 214.794188 309.117187 
L 214.815281 308.109187 
L 215.437533 308.109187 
L 215.743386 307.101187 
L 217.52577 307.101187 
L 217.546863 306.093187 
L 220.141339 306.093187 
L 220.331179 305.085187 
L 227.903673 305.085187 
L 227.935313 304.077187 
L 228.736858 304.077187 
L 228.757951 303.069187 
L 229.158724 303.069187 
L 229.158724 303.069187 
L 229.211457 302.061187 
L 229.73879 302.061187 
L 229.77043 301.053187 
L 230.086829 301.053187 
L 230.086829 301.053187 
L 230.160656 300.045187 
L 230.413775 300.045187 
L 230.434868 299.037187 
L 232.744585 299.037187 
L 232.776225 298.029187 
L 233.54613 298.029187 
L 233.567223 297.021187 
L 234.389862 297.021187 
L 234.410955 296.013187 
L 234.769541 296.013187 
L 234.790635 295.005187 
L 235.30742 295.005187 
L 235.328514 293.997187 
L 235.803113 293.997187 
L 235.824206 292.989187 
L 236.098419 292.989187 
L 236.140606 291.981187 
L 239.789746 291.981187 
L 239.810839 290.973187 
L 243.196314 290.973187 
L 243.227954 289.965187 
L 244.050592 289.965187 
L 244.082232 288.957187 
L 252.530098 288.957187 
L 252.572285 287.949187 
L 255.620266 287.949187 
L 255.64136 286.941187 
L 255.957759 286.941187 
L 255.978853 285.933187 
L 256.210879 285.933187 
L 256.263612 284.925187 
L 256.453452 284.925187 
L 256.485092 283.917187 
L 256.790944 283.917187 
L 256.822584 282.909187 
L 263.150574 282.909187 
L 263.171667 281.901187 
L 263.435333 281.901187 
L 263.44588 280.893187 
L 263.66736 280.893187 
L 263.699 279.885187 
L 263.941573 279.885187 
L 263.962666 278.877187 
L 264.764211 278.877187 
L 264.785304 277.869187 
L 265.228264 277.869187 
L 265.259904 276.861187 
L 266.388395 276.861187 
L 266.409488 275.853187 
L 269.39419 275.853187 
L 269.415283 274.845187 
L 269.889883 274.845187 
L 269.910976 273.837187 
L 272.146866 273.837187 
L 272.167959 272.829187 
L 272.558185 272.829187 
L 272.600371 271.821187 
L 273.623396 271.821187 
L 273.64449 270.813187 
L 273.844876 270.813187 
L 273.855423 269.805187 
L 274.182369 269.805187 
L 274.203462 268.797187 
L 274.467128 268.797187 
L 274.477675 267.789187 
L 286.321562 267.789187 
L 286.342655 266.781187 
L 286.827801 266.781187 
L 286.848894 265.773187 
L 287.33404 265.773187 
L 287.344587 264.765187 
L 288.230505 264.765187 
L 288.314879 263.757187 
L 298.587315 263.757187 
L 298.618955 262.749187 
L 299.16738 262.749187 
L 299.188474 261.741187 
L 303.32276 261.741187 
L 303.459867 260.733187 
L 308.142579 260.733187 
L 308.174219 259.725187 
L 308.617178 259.725187 
L 308.638271 258.717187 
L 309.724576 258.717187 
L 309.735123 257.709187 
L 309.956602 257.709187 
L 309.977696 256.701187 
L 310.357375 256.701187 
L 310.367922 255.693187 
L 310.610495 255.693187 
L 310.621041 254.685187 
L 311.074547 254.685187 
L 311.095641 253.677187 
L 317.128324 253.677187 
L 317.149417 252.669187 
L 330.585848 252.669187 
L 330.617488 251.661187 
L 331.155367 251.661187 
L 331.17646 250.653187 
L 331.55614 250.653187 
L 331.577233 249.645187 
L 331.830353 249.645187 
L 331.851446 248.637187 
L 332.104566 248.637187 
L 332.136205 247.629187 
L 332.389325 247.629187 
L 332.410418 246.621187 
L 332.832284 246.621187 
L 332.863924 245.613187 
L 333.180324 245.613187 
L 333.201417 244.605187 
L 338.010689 244.605187 
L 338.021236 243.597187 
L 351.963906 243.597187 
L 351.974452 242.589187 
L 352.290852 242.589187 
L 352.311945 241.581187 
L 353.229504 241.581187 
L 353.250597 240.573187 
L 353.566996 240.573187 
L 353.577543 239.565187 
L 355.117354 239.565187 
L 355.15954 238.557187 
L 363.333193 238.557187 
L 364.672618 237.549187 
L 365.094484 237.549187 
L 365.126124 236.541187 
L 365.495257 236.541187 
L 365.51635 235.533187 
L 365.769469 235.533187 
L 365.790563 234.525187 
L 366.106962 234.525187 
L 366.117509 233.517187 
L 366.370628 233.517187 
L 366.391722 232.509187 
L 369.882663 232.509187 
L 370.104142 231.501187 
L 372.635338 231.501187 
L 372.666978 230.493187 
L 382.770668 230.493187 
L 382.791761 229.485187 
L 394.582915 229.485187 
L 394.625101 228.477187 
L 394.920407 228.477187 
L 394.941501 227.469187 
L 395.16298 227.469187 
L 395.184074 226.461187 
L 395.51102 226.461187 
L 395.521566 225.453187 
L 395.711406 225.453187 
L 395.764139 224.445187 
L 401.195664 224.445187 
L 401.216757 223.437187 
L 401.881196 223.437187 
L 401.902289 222.429187 
L 403.15734 222.429187 
L 403.178434 221.421187 
L 403.547566 221.421187 
L 403.558113 220.413187 
L 404.697151 220.413187 
L 404.707698 219.405187 
L 405.045191 219.405187 
L 405.066284 218.397187 
L 405.36159 218.397187 
L 405.382683 217.389187 
L 405.61471 217.389187 
L 405.635803 216.381187 
L 405.751816 216.381187 
L 405.762363 215.373187 
L 406.110402 215.373187 
L 406.131495 214.365187 
L 416.488305 214.365187 
L 416.519945 213.357187 
L 428.279458 213.357187 
L 431.559466 212.349187 
L 432.424292 212.349187 
L 432.424292 212.349187 
L 432.477025 211.341187 
L 432.793424 211.341187 
L 432.825064 210.333187 
L 436.896071 210.333187 
L 436.948804 209.325187 
L 441.768623 209.325187 
L 441.789716 208.317187 
L 442.032289 208.317187 
L 442.085022 207.309187 
L 442.338142 207.309187 
L 442.359235 206.301187 
L 442.633448 206.301187 
L 442.643995 205.293187 
L 442.865474 205.293187 
L 442.918207 204.285187 
L 443.076407 204.285187 
L 443.0975 203.277187 
L 447.06304 203.277187 
L 447.12632 202.269187 
L 449.351663 202.269187 
L 449.372757 201.261187 
L 451.09186 201.261187 
L 451.1235 200.253187 
L 451.292247 200.253187 
L 451.31334 199.245187 
L 451.555913 199.245187 
L 451.577006 198.237187 
L 451.735206 198.237187 
L 451.756299 197.229187 
L 452.041059 197.229187 
L 452.041059 197.229187 
L 452.114885 196.221187 
L 452.251992 196.221187 
L 452.273085 195.213187 
L 452.568391 195.213187 
L 452.589485 194.205187 
L 452.810964 194.205187 
L 452.832058 193.197187 
L 457.57805 193.197187 
L 458.073742 192.189187 
L 461.881082 192.189187 
L 461.891629 191.181187 
L 472.986704 191.181187 
L 473.039437 190.173187 
L 473.31365 190.173187 
L 473.334743 189.165187 
L 473.545676 189.165187 
L 473.577316 188.157187 
L 473.767156 188.157187 
L 473.788249 187.149187 
L 474.062462 187.149187 
L 474.083555 186.141187 
L 474.262848 186.141187 
L 474.294488 185.133187 
L 474.473781 185.133187 
L 474.505421 184.125187 
L 474.895647 184.125187 
L 474.916741 183.117187 
L 475.2015 183.117187 
L 475.23314 182.109187 
L 482.099009 182.109187 
L 482.120102 181.101187 
L 494.913187 181.101187 
L 494.923734 180.093187 
L 495.208494 180.093187 
L 495.229587 179.085187 
L 495.387787 179.085187 
L 495.429973 178.077187 
L 495.630359 178.077187 
L 495.693639 177.069187 
L 495.936212 177.069187 
L 495.957306 176.061187 
L 539.12474 176.061187 
L 539.15638 175.053187 
L 539.398953 175.053187 
L 539.420046 174.045187 
L 539.630979 174.045187 
L 539.662619 173.037187 
L 540.822751 173.037187 
L 540.843844 172.029187 
L 542.605134 172.029187 
L 542.626228 171.021187 
L 542.942627 171.021187 
L 543.1852 170.013187 
L 543.754719 170.013187 
L 543.765266 169.005187 
L 549.565923 169.005187 
L 549.587016 167.997187 
L 549.924509 167.997187 
L 549.945602 166.989187 
L 550.472935 166.989187 
L 550.494028 165.981187 
L 552.339692 165.981187 
L 552.476798 164.973187 
L 554.333008 164.973187 
L 554.354102 163.965187 
L 554.691594 163.965187 
L 554.702141 162.957187 
L 555.05018 162.957187 
L 555.092367 161.949187 
L 558.931347 161.949187 
L 559.195013 160.941187 
L 560.935211 160.941187 
L 560.945757 159.933187 
L 561.230517 159.933187 
L 561.241063 158.925187 
L 561.430903 158.925187 
L 561.451996 157.917187 
L 561.662929 157.917187 
L 561.694569 156.909187 
L 561.968782 156.909187 
L 561.989875 155.901187 
L 562.200808 155.901187 
L 562.221902 154.893187 
L 571.48186 154.893187 
L 571.502953 153.885187 
L 572.789644 153.885187 
L 572.810737 152.877187 
L 578.822327 152.877187 
L 578.843421 151.869187 
L 579.117634 151.869187 
L 579.138727 150.861187 
L 579.370753 150.861187 
L 579.3813 149.853187 
L 579.666059 149.853187 
L 579.687153 148.845187 
L 579.887539 148.845187 
L 579.940272 147.837187 
L 599.725786 147.837187 
L 599.767972 146.829187 
L 622.548734 146.829187 
L 622.569828 145.821187 
L 623.38192 145.821187 
L 623.41356 144.813187 
L 623.729959 144.813187 
L 623.772146 143.805187 
L 624.805717 143.805187 
L 624.847904 142.797187 
L 645.118563 142.797187 
L 645.139657 141.789187 
L 649.136837 141.789187 
L 649.168477 140.781187 
L 649.548156 140.781187 
L 649.569249 139.773187 
L 649.896196 139.773187 
L 649.917289 138.765187 
L 650.212595 138.765187 
L 650.233688 137.757187 
L 650.402435 137.757187 
L 650.423528 136.749187 
L 650.634461 136.749187 
L 650.687194 135.741187 
L 650.940314 135.741187 
L 650.95086 134.733187 
L 651.214527 134.733187 
L 651.225073 133.725187 
L 677.707709 133.725187 
L 677.739349 132.717187 
L 678.076842 132.717187 
L 678.097935 131.709187 
L 691.692566 131.709187 
L 691.724206 130.701187 
L 692.093338 130.701187 
L 692.093338 130.701187 
L 692.156618 129.693187 
L 692.420285 129.693187 
L 692.462471 128.685187 
L 692.799964 128.685187 
L 692.821057 127.677187 
L 693.09527 127.677187 
L 693.116363 126.669187 
L 698.779914 126.669187 
L 698.811554 125.661187 
L 722.530968 125.661187 
L 722.552061 124.653187 
L 734.965467 124.653187 
L 734.98656 123.645187 
L 735.30296 123.645187 
L 735.30296 123.645187 
L 735.355693 122.637187 
L 736.125598 122.637187 
L 736.157238 121.629187 
L 736.378718 121.629187 
L 736.399811 120.621187 
L 736.674024 120.621187 
L 736.695117 119.613187 
L 737.022064 119.613187 
L 737.043157 118.605187 
L 739.099753 118.605187 
L 739.14194 117.597187 
L 763.335953 117.597187 
L 763.367593 116.589187 
L 763.873832 116.589187 
L 763.894925 115.581187 
L 764.179685 115.581187 
L 764.232418 114.573187 
L 764.474991 114.573187 
L 764.496084 113.565187 
L 764.749204 113.565187 
L 764.770297 112.557187 
L 765.023417 112.557187 
L 765.04451 111.549187 
L 765.603483 111.549187 
L 765.624576 110.541187 
L 765.877695 110.541187 
L 765.909335 109.533187 
L 766.352295 109.533187 
L 766.394481 108.525187 
L 766.563228 108.525187 
L 766.594868 107.517187 
L 766.83744 107.517187 
L 766.847987 106.509187 
L 767.1222 106.509187 
L 767.143293 105.501187 
L 803.951099 105.501187 
L 803.982739 104.493187 
L 818.463288 104.493187 
L 818.505474 103.485187 
L 849.945035 103.485187 
L 849.945035 103.485187 
L 850.008315 102.477187 
L 850.387994 102.477187 
L 850.398541 101.469187 
L 850.714941 101.469187 
L 850.714941 101.469187 
L 850.757127 100.461187 
L 851.210633 100.461187 
L 851.231726 99.453187 
L 851.643046 99.453187 
L 851.664139 98.445187 
L 880.013532 98.445187 
L 880.013532 98.445187 
L 880.055718 97.437187 
L 880.467038 97.437187 
L 880.488131 96.429187 
L 880.730704 96.429187 
L 880.74125 95.421187 
L 880.952183 95.421187 
L 880.96273 94.413187 
L 919.827132 94.413187 
L 919.848225 93.405187 
L 920.154078 93.405187 
L 920.206811 92.397187 
L 920.481024 92.397187 
L 920.481024 91.389187 
L 920.83961 91.389187 
L 920.860704 90.381187 
L 921.050543 90.381187 
L 921.071637 89.373187 
L 921.356396 89.373187 
L 921.366943 88.365187 
L 921.630609 88.365187 
L 921.641156 87.357187 
L 921.894275 87.357187 
L 921.925915 86.349187 
L 922.147395 86.349187 
L 922.168488 85.341187 
L 922.442701 85.341187 
L 922.453248 84.333187 
L 949.378843 84.333187 
L 949.421029 83.325187 
L 949.916722 83.325187 
L 949.927268 82.317187 
L 950.169841 82.317187 
L 950.180388 81.309187 
L 950.422961 81.309187 
L 950.433508 80.301187 
L 950.760454 80.301187 
L 950.771 79.293187 
L 951.0874 79.293187 
L 951.097946 78.285187 
L 951.351066 78.285187 
L 951.361613 77.277187 
L 971.389699 77.277187 
L 971.410793 76.269187 
L 971.653366 76.269187 
L 971.685005 75.261187 
L 988.011218 75.261187 
L 988.042858 74.253187 
L 988.76003 74.253187 
L 988.781124 73.245187 
L 1013.418096 73.245187 
L 1013.439189 72.237187 
L 1013.713402 72.237187 
L 1013.734495 71.229187 
L 1013.966522 71.229187 
L 1013.987615 70.221187 
L 1014.462214 70.221187 
L 1014.483307 69.213187 
L 1014.704787 69.213187 
L 1014.72588 68.205187 
L 1014.989547 68.205187 
L 1015.01064 67.197187 
L 1015.284853 67.197187 
L 1015.327039 66.189187 
L 1015.559066 66.189187 
L 1015.580159 65.181187 
L 1016.002025 65.181187 
L 1016.012572 64.173187 
L 1016.286784 64.173187 
L 1016.328971 63.165187 
L 1049.234516 63.165187 
L 1049.255609 62.157187 
L 1064.379504 62.157187 
L 1064.411144 61.149187 
L 1064.727544 61.149187 
L 1064.76973 60.141187 
L 1065.05449 60.141187 
L 1065.075583 59.133187 
L 1065.265423 59.133187 
L 1065.275969 58.125187 
L 1065.539636 58.125187 
L 1065.550182 57.117187 
L 1065.856035 57.117187 
L 1065.887675 56.109187 
L 1076.465964 56.109187 
L 1076.497604 55.101187 
L 1091.832432 55.101187 
L 1091.864072 54.093187 
L 1092.212111 54.093187 
L 1092.233204 53.085187 
L 1092.370311 53.085187 
L 1092.391404 52.077187 
L 1092.78163 52.077187 
L 1092.792177 51.069187 
L 1093.045296 51.069187 
L 1093.055843 50.061187 
L 1093.319509 50.061187 
L 1093.340603 49.053187 
L 1093.614815 49.053187 
L 1093.625362 48.045187 
L 1106.260248 48.045187 
L 1106.281341 47.037187 
L 1106.492274 47.037187 
L 1106.513367 46.029187 
L 1106.671567 46.029187 
L 1106.703207 45.021187 
L 1106.966873 45.021187 
L 1106.987966 44.013187 
L 1107.198899 44.013187 
L 1107.230539 43.005187 
L 1107.515299 43.005187 
L 1107.536392 41.997187 
L 1114.507727 41.997187 
L 1114.507727 41.997187 
" clip-path="url(#p6be3a24c34)" style="fill: none; stroke: #0000ff; stroke-width: 1.5; stroke-linecap: square"/>
   </g>
   <g id="patch_83">
    <path d="M 49.235 359.517187 
L 49.235 26.877187 
" style="fill: none; stroke: #000000; stroke-width: 0.8; stroke-linejoin: miter; stroke-linecap: square"/>
   </g>
   <g id="patch_84">
    <path d="M 1165.235 359.517187 
L 1165.235 26.877187 
" style="fill: none; stroke: #000000; stroke-width: 0.8; stroke-linejoin: miter; stroke-linecap: square"/>
   </g>
   <g id="patch_85">
    <path d="M 49.235 359.517187 
L 1165.235 359.517187 
" style="fill: none; stroke: #000000; stroke-width: 0.8; stroke-linejoin: miter; stroke-linecap: square"/>
   </g>
   <g id="patch_86">
    <path d="M 49.235 26.877187 
L 1165.235 26.877187 
" style="fill: none; stroke: #000000; stroke-width: 0.8; stroke-linejoin: miter; stroke-linecap: square"/>
   </g>
   <g id="text_20">
    <!-- Pellet Count and Cumulative Sum Over Time of Group 8 Mouse 1 -->
    <g transform="translate(315.460625 20.877187) scale(0.18 -0.18)">
     <defs>
      <path id="DejaVuSans-61" d="M 2194 1759 
Q 1497 1759 1228 1600 
Q 959 1441 959 1056 
Q 959 750 1161 570 
Q 1363 391 1709 391 
Q 2188 391 2477 730 
Q 2766 1069 2766 1631 
L 2766 1759 
L 2194 1759 
z
M 3341 1997 
L 3341 0 
L 2766 0 
L 2766 531 
Q 2569 213 2275 61 
Q 1981 -91 1556 -91 
Q 1019 -91 701 211 
Q 384 513 384 1019 
Q 384 1609 779 1909 
Q 1175 2209 1959 2209 
L 2766 2209 
L 2766 2266 
Q 2766 2663 2505 2880 
Q 2244 3097 1772 3097 
Q 1472 3097 1187 3025 
Q 903 2953 641 2809 
L 641 3341 
Q 956 3463 1253 3523 
Q 1550 3584 1831 3584 
Q 2591 3584 2966 3190 
Q 3341 2797 3341 1997 
z
" transform="scale(0.015625)"/>
      <path id="DejaVuSans-64" d="M 2906 2969 
L 2906 4863 
L 3481 4863 
L 3481 0 
L 2906 0 
L 2906 525 
Q 2725 213 2448 61 
Q 2172 -91 1784 -91 
Q 1150 -91 751 415 
Q 353 922 353 1747 
Q 353 2572 751 3078 
Q 1150 3584 1784 3584 
Q 2172 3584 2448 3432 
Q 2725 3281 2906 2969 
z
M 947 1747 
Q 947 1113 1208 752 
Q 1469 391 1925 391 
Q 2381 391 2643 752 
Q 2906 1113 2906 1747 
Q 2906 2381 2643 2742 
Q 2381 3103 1925 3103 
Q 1469 3103 1208 2742 
Q 947 2381 947 1747 
z
" transform="scale(0.015625)"/>
      <path id="DejaVuSans-76" d="M 191 3500 
L 800 3500 
L 1894 563 
L 2988 3500 
L 3597 3500 
L 2284 0 
L 1503 0 
L 191 3500 
z
" transform="scale(0.015625)"/>
      <path id="DejaVuSans-53" d="M 3425 4513 
L 3425 3897 
Q 3066 4069 2747 4153 
Q 2428 4238 2131 4238 
Q 1616 4238 1336 4038 
Q 1056 3838 1056 3469 
Q 1056 3159 1242 3001 
Q 1428 2844 1947 2747 
L 2328 2669 
Q 3034 2534 3370 2195 
Q 3706 1856 3706 1288 
Q 3706 609 3251 259 
Q 2797 -91 1919 -91 
Q 1588 -91 1214 -16 
Q 841 59 441 206 
L 441 856 
Q 825 641 1194 531 
Q 1563 422 1919 422 
Q 2459 422 2753 634 
Q 3047 847 3047 1241 
Q 3047 1584 2836 1778 
Q 2625 1972 2144 2069 
L 1759 2144 
Q 1053 2284 737 2584 
Q 422 2884 422 3419 
Q 422 4038 858 4394 
Q 1294 4750 2059 4750 
Q 2388 4750 2728 4690 
Q 3069 4631 3425 4513 
z
" transform="scale(0.015625)"/>
      <path id="DejaVuSans-4f" d="M 2522 4238 
Q 1834 4238 1429 3725 
Q 1025 3213 1025 2328 
Q 1025 1447 1429 934 
Q 1834 422 2522 422 
Q 3209 422 3611 934 
Q 4013 1447 4013 2328 
Q 4013 3213 3611 3725 
Q 3209 4238 2522 4238 
z
M 2522 4750 
Q 3503 4750 4090 4092 
Q 4678 3434 4678 2328 
Q 4678 1225 4090 567 
Q 3503 -91 2522 -91 
Q 1538 -91 948 565 
Q 359 1222 359 2328 
Q 359 3434 948 4092 
Q 1538 4750 2522 4750 
z
" transform="scale(0.015625)"/>
      <path id="DejaVuSans-72" d="M 2631 2963 
Q 2534 3019 2420 3045 
Q 2306 3072 2169 3072 
Q 1681 3072 1420 2755 
Q 1159 2438 1159 1844 
L 1159 0 
L 581 0 
L 581 3500 
L 1159 3500 
L 1159 2956 
Q 1341 3275 1631 3429 
Q 1922 3584 2338 3584 
Q 2397 3584 2469 3576 
Q 2541 3569 2628 3553 
L 2631 2963 
z
" transform="scale(0.015625)"/>
      <path id="DejaVuSans-66" d="M 2375 4863 
L 2375 4384 
L 1825 4384 
Q 1516 4384 1395 4259 
Q 1275 4134 1275 3809 
L 1275 3500 
L 2222 3500 
L 2222 3053 
L 1275 3053 
L 1275 0 
L 697 0 
L 697 3053 
L 147 3053 
L 147 3500 
L 697 3500 
L 697 3744 
Q 697 4328 969 4595 
Q 1241 4863 1831 4863 
L 2375 4863 
z
" transform="scale(0.015625)"/>
      <path id="DejaVuSans-47" d="M 3809 666 
L 3809 1919 
L 2778 1919 
L 2778 2438 
L 4434 2438 
L 4434 434 
Q 4069 175 3628 42 
Q 3188 -91 2688 -91 
Q 1594 -91 976 548 
Q 359 1188 359 2328 
Q 359 3472 976 4111 
Q 1594 4750 2688 4750 
Q 3144 4750 3555 4637 
Q 3966 4525 4313 4306 
L 4313 3634 
Q 3963 3931 3569 4081 
Q 3175 4231 2741 4231 
Q 1884 4231 1454 3753 
Q 1025 3275 1025 2328 
Q 1025 1384 1454 906 
Q 1884 428 2741 428 
Q 3075 428 3337 486 
Q 3600 544 3809 666 
z
" transform="scale(0.015625)"/>
      <path id="DejaVuSans-70" d="M 1159 525 
L 1159 -1331 
L 581 -1331 
L 581 3500 
L 1159 3500 
L 1159 2969 
Q 1341 3281 1617 3432 
Q 1894 3584 2278 3584 
Q 2916 3584 3314 3078 
Q 3713 2572 3713 1747 
Q 3713 922 3314 415 
Q 2916 -91 2278 -91 
Q 1894 -91 1617 61 
Q 1341 213 1159 525 
z
M 3116 1747 
Q 3116 2381 2855 2742 
Q 2594 3103 2138 3103 
Q 1681 3103 1420 2742 
Q 1159 2381 1159 1747 
Q 1159 1113 1420 752 
Q 1681 391 2138 391 
Q 2594 391 2855 752 
Q 3116 1113 3116 1747 
z
" transform="scale(0.015625)"/>
      <path id="DejaVuSans-4d" d="M 628 4666 
L 1569 4666 
L 2759 1491 
L 3956 4666 
L 4897 4666 
L 4897 0 
L 4281 0 
L 4281 4097 
L 3078 897 
L 2444 897 
L 1241 4097 
L 1241 0 
L 628 0 
L 628 4666 
z
" transform="scale(0.015625)"/>
      <path id="DejaVuSans-73" d="M 2834 3397 
L 2834 2853 
Q 2591 2978 2328 3040 
Q 2066 3103 1784 3103 
Q 1356 3103 1142 2972 
Q 928 2841 928 2578 
Q 928 2378 1081 2264 
Q 1234 2150 1697 2047 
L 1894 2003 
Q 2506 1872 2764 1633 
Q 3022 1394 3022 966 
Q 3022 478 2636 193 
Q 2250 -91 1575 -91 
Q 1294 -91 989 -36 
Q 684 19 347 128 
L 347 722 
Q 666 556 975 473 
Q 1284 391 1588 391 
Q 1994 391 2212 530 
Q 2431 669 2431 922 
Q 2431 1156 2273 1281 
Q 2116 1406 1581 1522 
L 1381 1569 
Q 847 1681 609 1914 
Q 372 2147 372 2553 
Q 372 3047 722 3315 
Q 1072 3584 1716 3584 
Q 2034 3584 2315 3537 
Q 2597 3491 2834 3397 
z
" transform="scale(0.015625)"/>
     </defs>
     <use xlink:href="#DejaVuSans-50"/>
     <use xlink:href="#DejaVuSans-65" x="56.677734"/>
     <use xlink:href="#DejaVuSans-6c" x="118.201172"/>
     <use xlink:href="#DejaVuSans-6c" x="145.984375"/>
     <use xlink:href="#DejaVuSans-65" x="173.767578"/>
     <use xlink:href="#DejaVuSans-74" x="235.291016"/>
     <use xlink:href="#DejaVuSans-20" x="274.5"/>
     <use xlink:href="#DejaVuSans-43" x="306.287109"/>
     <use xlink:href="#DejaVuSans-6f" x="376.111328"/>
     <use xlink:href="#DejaVuSans-75" x="437.292969"/>
     <use xlink:href="#DejaVuSans-6e" x="500.671875"/>
     <use xlink:href="#DejaVuSans-74" x="564.050781"/>
     <use xlink:href="#DejaVuSans-20" x="603.259766"/>
     <use xlink:href="#DejaVuSans-61" x="635.046875"/>
     <use xlink:href="#DejaVuSans-6e" x="696.326172"/>
     <use xlink:href="#DejaVuSans-64" x="759.705078"/>
     <use xlink:href="#DejaVuSans-20" x="823.181641"/>
     <use xlink:href="#DejaVuSans-43" x="854.96875"/>
     <use xlink:href="#DejaVuSans-75" x="924.792969"/>
     <use xlink:href="#DejaVuSans-6d" x="988.171875"/>
     <use xlink:href="#DejaVuSans-75" x="1085.583984"/>
     <use xlink:href="#DejaVuSans-6c" x="1148.962891"/>
     <use xlink:href="#DejaVuSans-61" x="1176.746094"/>
     <use xlink:href="#DejaVuSans-74" x="1238.025391"/>
     <use xlink:href="#DejaVuSans-69" x="1277.234375"/>
     <use xlink:href="#DejaVuSans-76" x="1305.017578"/>
     <use xlink:href="#DejaVuSans-65" x="1364.197266"/>
     <use xlink:href="#DejaVuSans-20" x="1425.720703"/>
     <use xlink:href="#DejaVuSans-53" x="1457.507812"/>
     <use xlink:href="#DejaVuSans-75" x="1520.984375"/>
     <use xlink:href="#DejaVuSans-6d" x="1584.363281"/>
     <use xlink:href="#DejaVuSans-20" x="1681.775391"/>
     <use xlink:href="#DejaVuSans-4f" x="1713.5625"/>
     <use xlink:href="#DejaVuSans-76" x="1792.273438"/>
     <use xlink:href="#DejaVuSans-65" x="1851.453125"/>
     <use xlink:href="#DejaVuSans-72" x="1912.976562"/>
     <use xlink:href="#DejaVuSans-20" x="1954.089844"/>
     <use xlink:href="#DejaVuSans-54" x="1985.876953"/>
     <use xlink:href="#DejaVuSans-69" x="2043.835938"/>
     <use xlink:href="#DejaVuSans-6d" x="2071.619141"/>
     <use xlink:href="#DejaVuSans-65" x="2169.03125"/>
     <use xlink:href="#DejaVuSans-20" x="2230.554688"/>
     <use xlink:href="#DejaVuSans-6f" x="2262.341797"/>
     <use xlink:href="#DejaVuSans-66" x="2323.523438"/>
     <use xlink:href="#DejaVuSans-20" x="2358.728516"/>
     <use xlink:href="#DejaVuSans-47" x="2390.515625"/>
     <use xlink:href="#DejaVuSans-72" x="2468.005859"/>
     <use xlink:href="#DejaVuSans-6f" x="2506.869141"/>
     <use xlink:href="#DejaVuSans-75" x="2568.050781"/>
     <use xlink:href="#DejaVuSans-70" x="2631.429688"/>
     <use xlink:href="#DejaVuSans-20" x="2694.90625"/>
     <use xlink:href="#DejaVuSans-38" x="2726.693359"/>
     <use xlink:href="#DejaVuSans-20" x="2790.316406"/>
     <use xlink:href="#DejaVuSans-4d" x="2822.103516"/>
     <use xlink:href="#DejaVuSans-6f" x="2908.382812"/>
     <use xlink:href="#DejaVuSans-75" x="2969.564453"/>
     <use xlink:href="#DejaVuSans-73" x="3032.943359"/>
     <use xlink:href="#DejaVuSans-65" x="3085.042969"/>
     <use xlink:href="#DejaVuSans-20" x="3146.566406"/>
     <use xlink:href="#DejaVuSans-31" x="3178.353516"/>
    </g>
   </g>
   <g id="legend_1">
    <g id="patch_87">
     <path d="M 1086.550625 64.233437 
L 1158.235 64.233437 
Q 1160.235 64.233437 1160.235 62.233437 
L 1160.235 33.877187 
Q 1160.235 31.877187 1158.235 31.877187 
L 1086.550625 31.877187 
Q 1084.550625 31.877187 1084.550625 33.877187 
L 1084.550625 62.233437 
Q 1084.550625 64.233437 1086.550625 64.233437 
z
" style="fill: #ffffff; opacity: 0.8; stroke: #cccccc; stroke-linejoin: miter"/>
    </g>
    <g id="patch_88">
     <path d="M 1088.550625 43.475625 
L 1108.550625 43.475625 
L 1108.550625 36.475625 
L 1088.550625 36.475625 
z
" style="fill: #add8e6; opacity: 0.9; stroke: #add8e6; stroke-linejoin: miter"/>
    </g>
    <g id="text_21">
     <!-- Meal -->
     <g transform="translate(1116.550625 43.475625) scale(0.1 -0.1)">
      <use xlink:href="#DejaVuSans-4d"/>
      <use xlink:href="#DejaVuSans-65" x="86.279297"/>
      <use xlink:href="#DejaVuSans-61" x="147.802734"/>
      <use xlink:href="#DejaVuSans-6c" x="209.082031"/>
     </g>
    </g>
    <g id="patch_89">
     <path d="M 1088.550625 58.15375 
L 1108.550625 58.15375 
L 1108.550625 51.15375 
L 1088.550625 51.15375 
z
" style="fill: #808080; opacity: 0.5; stroke: #808080; stroke-linejoin: miter"/>
    </g>
    <g id="text_22">
     <!-- Inactive -->
     <g transform="translate(1116.550625 58.15375) scale(0.1 -0.1)">
      <defs>
       <path id="DejaVuSans-49" d="M 628 4666 
L 1259 4666 
L 1259 0 
L 628 0 
L 628 4666 
z
" transform="scale(0.015625)"/>
       <path id="DejaVuSans-63" d="M 3122 3366 
L 3122 2828 
Q 2878 2963 2633 3030 
Q 2388 3097 2138 3097 
Q 1578 3097 1268 2742 
Q 959 2388 959 1747 
Q 959 1106 1268 751 
Q 1578 397 2138 397 
Q 2388 397 2633 464 
Q 2878 531 3122 666 
L 3122 134 
Q 2881 22 2623 -34 
Q 2366 -91 2075 -91 
Q 1284 -91 818 406 
Q 353 903 353 1747 
Q 353 2603 823 3093 
Q 1294 3584 2113 3584 
Q 2378 3584 2631 3529 
Q 2884 3475 3122 3366 
z
" transform="scale(0.015625)"/>
      </defs>
      <use xlink:href="#DejaVuSans-49"/>
      <use xlink:href="#DejaVuSans-6e" x="29.492188"/>
      <use xlink:href="#DejaVuSans-61" x="92.871094"/>
      <use xlink:href="#DejaVuSans-63" x="154.150391"/>
      <use xlink:href="#DejaVuSans-74" x="209.130859"/>
      <use xlink:href="#DejaVuSans-69" x="248.339844"/>
      <use xlink:href="#DejaVuSans-76" x="276.123047"/>
      <use xlink:href="#DejaVuSans-65" x="335.302734"/>
     </g>
    </g>
   </g>
  </g>
 </g>
 <defs>
  <clipPath id="p6be3a24c34">
   <rect x="49.235" y="26.877187" width="1116" height="332.64"/>
  </clipPath>
 </defs>
</svg>
