<?xml version="1.0" encoding="utf-8" standalone="no"?>
<!DOCTYPE svg PUBLIC "-//W3C//DTD SVG 1.1//EN"
  "http://www.w3.org/Graphics/SVG/1.1/DTD/svg11.dtd">
<svg xmlns:xlink="http://www.w3.org/1999/xlink" width="1172.435pt" height="399.009062pt" viewBox="0 0 1172.435 399.009062" xmlns="http://www.w3.org/2000/svg" version="1.1">
 <metadata>
  <rdf:RDF xmlns:dc="http://purl.org/dc/elements/1.1/" xmlns:cc="http://creativecommons.org/ns#" xmlns:rdf="http://www.w3.org/1999/02/22-rdf-syntax-ns#">
   <cc:Work>
    <dc:type rdf:resource="http://purl.org/dc/dcmitype/StillImage"/>
    <dc:date>2025-04-10T14:44:36.634844</dc:date>
    <dc:format>image/svg+xml</dc:format>
    <dc:creator>
     <cc:Agent>
      <dc:title>Matplotlib v3.8.3, https://matplotlib.org/</dc:title>
     </cc:Agent>
    </dc:creator>
   </cc:Work>
  </rdf:RDF>
 </metadata>
 <defs>
  <style type="text/css">*{stroke-linejoin: round; stroke-linecap: butt}</style>
 </defs>
 <g id="figure_1">
  <g id="patch_1">
   <path d="M 0 399.009062 
L 1172.435 399.009062 
L 1172.435 0 
L 0 0 
z
" style="fill: #ffffff"/>
  </g>
  <g id="axes_1">
   <g id="patch_2">
    <path d="M 49.235 359.517187 
L 1165.235 359.517187 
L 1165.235 26.877187 
L 49.235 26.877187 
z
" style="fill: #ffffff"/>
   </g>
   <g id="patch_3">
    <path d="M 144.980531 359.517187 
L 144.980531 26.877187 
L 144.980531 26.877187 
z
" clip-path="url(#p5967f94383)" style="fill: #add8e6; stroke: #add8e6; stroke-linejoin: miter"/>
   </g>
   <g id="patch_4">
    <path d="M 180.017183 359.517187 
L 180.017183 26.877187 
L 152.034335 26.877187 
L 152.034335 359.517187 
z
" clip-path="url(#p5967f94383)" style="fill: #add8e6; stroke: #add8e6; stroke-linejoin: miter"/>
   </g>
   <g id="patch_5">
    <path d="M 240.129085 359.517187 
L 240.129085 26.877187 
L 236.423363 26.877187 
L 236.423363 359.517187 
z
" clip-path="url(#p5967f94383)" style="fill: #add8e6; stroke: #add8e6; stroke-linejoin: miter"/>
   </g>
   <g id="patch_6">
    <path d="M 248.294201 359.517187 
L 248.294201 26.877187 
L 246.79494 26.877187 
L 246.79494 359.517187 
z
" clip-path="url(#p5967f94383)" style="fill: #add8e6; stroke: #add8e6; stroke-linejoin: miter"/>
   </g>
   <g id="patch_7">
    <path d="M 259.223455 359.517187 
L 259.223455 26.877187 
L 258.696086 26.877187 
L 258.696086 359.517187 
z
" clip-path="url(#p5967f94383)" style="fill: #add8e6; stroke: #add8e6; stroke-linejoin: miter"/>
   </g>
   <g id="patch_8">
    <path d="M 271.944952 359.517187 
L 271.944952 26.877187 
L 271.918684 26.877187 
L 271.918684 359.517187 
z
" clip-path="url(#p5967f94383)" style="fill: #add8e6; stroke: #add8e6; stroke-linejoin: miter"/>
   </g>
   <g id="patch_9">
    <path d="M 283.429861 359.517187 
L 283.429861 26.877187 
L 283.357121 26.877187 
L 283.357121 359.517187 
z
" clip-path="url(#p5967f94383)" style="fill: #add8e6; stroke: #add8e6; stroke-linejoin: miter"/>
   </g>
   <g id="patch_10">
    <path d="M 291.754602 359.517187 
L 291.754602 26.877187 
L 291.938473 26.877187 
L 291.938473 359.517187 
z
" clip-path="url(#p5967f94383)" style="fill: #add8e6; stroke: #add8e6; stroke-linejoin: miter"/>
   </g>
   <g id="patch_11">
    <path d="M 292.427451 359.517187 
L 292.427451 26.877187 
L 292.752762 26.877187 
L 292.752762 359.517187 
z
" clip-path="url(#p5967f94383)" style="fill: #add8e6; stroke: #add8e6; stroke-linejoin: miter"/>
   </g>
   <g id="patch_12">
    <path d="M 299.873245 359.517187 
L 299.873245 26.877187 
L 300.261194 26.877187 
L 300.261194 359.517187 
z
" clip-path="url(#p5967f94383)" style="fill: #add8e6; stroke: #add8e6; stroke-linejoin: miter"/>
   </g>
   <g id="patch_13">
    <path d="M 309.240599 359.517187 
L 309.240599 26.877187 
L 309.673 26.877187 
L 309.673 359.517187 
z
" clip-path="url(#p5967f94383)" style="fill: #add8e6; stroke: #add8e6; stroke-linejoin: miter"/>
   </g>
   <g id="patch_14">
    <path d="M 330.890986 359.517187 
L 330.890986 26.877187 
L 331.460787 26.877187 
L 331.460787 359.517187 
z
" clip-path="url(#p5967f94383)" style="fill: #add8e6; stroke: #add8e6; stroke-linejoin: miter"/>
   </g>
   <g id="patch_15">
    <path d="M 344.281291 359.517187 
L 344.281291 26.877187 
L 344.426772 26.877187 
L 344.426772 359.517187 
z
" clip-path="url(#p5967f94383)" style="fill: #add8e6; stroke: #add8e6; stroke-linejoin: miter"/>
   </g>
   <g id="patch_16">
    <path d="M 345.827026 359.517187 
L 345.827026 26.877187 
L 346.364497 26.877187 
L 346.364497 359.517187 
z
" clip-path="url(#p5967f94383)" style="fill: #add8e6; stroke: #add8e6; stroke-linejoin: miter"/>
   </g>
   <g id="patch_17">
    <path d="M 346.687788 359.517187 
L 346.687788 26.877187 
L 346.952483 26.877187 
L 346.952483 359.517187 
z
" clip-path="url(#p5967f94383)" style="fill: #add8e6; stroke: #add8e6; stroke-linejoin: miter"/>
   </g>
   <g id="patch_18">
    <path d="M 351.541193 359.517187 
L 351.541193 26.877187 
L 351.60383 26.877187 
L 351.60383 359.517187 
z
" clip-path="url(#p5967f94383)" style="fill: #add8e6; stroke: #add8e6; stroke-linejoin: miter"/>
   </g>
   <g id="patch_19">
    <path d="M 352.218083 359.517187 
L 352.218083 26.877187 
L 352.674732 26.877187 
L 352.674732 359.517187 
z
" clip-path="url(#p5967f94383)" style="fill: #add8e6; stroke: #add8e6; stroke-linejoin: miter"/>
   </g>
   <g id="patch_20">
    <path d="M 352.868706 359.517187 
L 352.868706 26.877187 
L 353.159668 26.877187 
L 353.159668 359.517187 
z
" clip-path="url(#p5967f94383)" style="fill: #add8e6; stroke: #add8e6; stroke-linejoin: miter"/>
   </g>
   <g id="patch_21">
    <path d="M 367.418817 359.517187 
L 367.418817 26.877187 
L 365.026465 26.877187 
L 365.026465 359.517187 
z
" clip-path="url(#p5967f94383)" style="fill: #add8e6; stroke: #add8e6; stroke-linejoin: miter"/>
   </g>
   <g id="patch_22">
    <path d="M 377.261005 359.517187 
L 377.261005 26.877187 
L 376.080993 26.877187 
L 376.080993 359.517187 
z
" clip-path="url(#p5967f94383)" style="fill: #add8e6; stroke: #add8e6; stroke-linejoin: miter"/>
   </g>
   <g id="patch_23">
    <path d="M 381.991155 359.517187 
L 381.991155 26.877187 
L 382.122492 26.877187 
L 382.122492 359.517187 
z
" clip-path="url(#p5967f94383)" style="fill: #add8e6; stroke: #add8e6; stroke-linejoin: miter"/>
   </g>
   <g id="patch_24">
    <path d="M 382.779176 359.517187 
L 382.779176 26.877187 
L 382.999418 26.877187 
L 382.999418 359.517187 
z
" clip-path="url(#p5967f94383)" style="fill: #add8e6; stroke: #add8e6; stroke-linejoin: miter"/>
   </g>
   <g id="patch_25">
    <path d="M 383.405553 359.517187 
L 383.405553 26.877187 
L 383.633877 26.877187 
L 383.633877 359.517187 
z
" clip-path="url(#p5967f94383)" style="fill: #add8e6; stroke: #add8e6; stroke-linejoin: miter"/>
   </g>
   <g id="patch_26">
    <path d="M 384.201656 359.517187 
L 384.201656 26.877187 
L 384.019805 26.877187 
L 384.019805 359.517187 
z
" clip-path="url(#p5967f94383)" style="fill: #add8e6; stroke: #add8e6; stroke-linejoin: miter"/>
   </g>
   <g id="patch_27">
    <path d="M 431.921415 359.517187 
L 431.921415 26.877187 
L 405.013508 26.877187 
L 405.013508 359.517187 
z
" clip-path="url(#p5967f94383)" style="fill: #add8e6; stroke: #add8e6; stroke-linejoin: miter"/>
   </g>
   <g id="patch_28">
    <path d="M 453.612214 359.517187 
L 453.612214 26.877187 
L 452.001821 26.877187 
L 452.001821 359.517187 
z
" clip-path="url(#p5967f94383)" style="fill: #add8e6; stroke: #add8e6; stroke-linejoin: miter"/>
   </g>
   <g id="patch_29">
    <path d="M 462.706791 359.517187 
L 462.706791 26.877187 
L 463.125048 26.877187 
L 463.125048 359.517187 
z
" clip-path="url(#p5967f94383)" style="fill: #add8e6; stroke: #add8e6; stroke-linejoin: miter"/>
   </g>
   <g id="patch_30">
    <path d="M 474.925167 359.517187 
L 474.925167 26.877187 
L 475.143388 26.877187 
L 475.143388 359.517187 
z
" clip-path="url(#p5967f94383)" style="fill: #add8e6; stroke: #add8e6; stroke-linejoin: miter"/>
   </g>
   <g id="patch_31">
    <path d="M 482.029484 359.517187 
L 482.029484 26.877187 
L 482.098183 26.877187 
L 482.098183 359.517187 
z
" clip-path="url(#p5967f94383)" style="fill: #add8e6; stroke: #add8e6; stroke-linejoin: miter"/>
   </g>
   <g id="patch_32">
    <path d="M 483.726761 359.517187 
L 483.726761 26.877187 
L 484.037929 26.877187 
L 484.037929 359.517187 
z
" clip-path="url(#p5967f94383)" style="fill: #add8e6; stroke: #add8e6; stroke-linejoin: miter"/>
   </g>
   <g id="patch_33">
    <path d="M 488.703421 359.517187 
L 488.703421 26.877187 
L 488.741812 26.877187 
L 488.741812 359.517187 
z
" clip-path="url(#p5967f94383)" style="fill: #add8e6; stroke: #add8e6; stroke-linejoin: miter"/>
   </g>
   <g id="patch_34">
    <path d="M 497.246383 359.517187 
L 497.246383 26.877187 
L 496.638192 26.877187 
L 496.638192 359.517187 
z
" clip-path="url(#p5967f94383)" style="fill: #add8e6; stroke: #add8e6; stroke-linejoin: miter"/>
   </g>
   <g id="patch_35">
    <path d="M 497.977829 359.517187 
L 497.977829 26.877187 
L 497.759607 26.877187 
L 497.759607 359.517187 
z
" clip-path="url(#p5967f94383)" style="fill: #add8e6; stroke: #add8e6; stroke-linejoin: miter"/>
   </g>
   <g id="patch_36">
    <path d="M 507.12292 359.517187 
L 507.12292 26.877187 
L 507.223948 26.877187 
L 507.223948 359.517187 
z
" clip-path="url(#p5967f94383)" style="fill: #add8e6; stroke: #add8e6; stroke-linejoin: miter"/>
   </g>
   <g id="patch_37">
    <path d="M 508.026114 359.517187 
L 508.026114 26.877187 
L 508.292829 26.877187 
L 508.292829 359.517187 
z
" clip-path="url(#p5967f94383)" style="fill: #add8e6; stroke: #add8e6; stroke-linejoin: miter"/>
   </g>
   <g id="patch_38">
    <path d="M 514.847552 359.517187 
L 514.847552 26.877187 
L 515.393105 26.877187 
L 515.393105 359.517187 
z
" clip-path="url(#p5967f94383)" style="fill: #add8e6; stroke: #add8e6; stroke-linejoin: miter"/>
   </g>
   <g id="patch_39">
    <path d="M 560.82356 359.517187 
L 560.82356 26.877187 
L 544.044762 26.877187 
L 544.044762 359.517187 
z
" clip-path="url(#p5967f94383)" style="fill: #add8e6; stroke: #add8e6; stroke-linejoin: miter"/>
   </g>
   <g id="patch_40">
    <path d="M 574.310852 359.517187 
L 574.310852 26.877187 
L 540.248114 26.877187 
L 540.248114 359.517187 
z
" clip-path="url(#p5967f94383)" style="fill: #add8e6; stroke: #add8e6; stroke-linejoin: miter"/>
   </g>
   <g id="patch_41">
    <path d="M 582.756827 359.517187 
L 582.756827 26.877187 
L 573.169231 26.877187 
L 573.169231 359.517187 
z
" clip-path="url(#p5967f94383)" style="fill: #add8e6; stroke: #add8e6; stroke-linejoin: miter"/>
   </g>
   <g id="patch_42">
    <path d="M 588.557878 359.517187 
L 588.557878 26.877187 
L 588.998362 26.877187 
L 588.998362 359.517187 
z
" clip-path="url(#p5967f94383)" style="fill: #add8e6; stroke: #add8e6; stroke-linejoin: miter"/>
   </g>
   <g id="patch_43">
    <path d="M 647.809019 359.517187 
L 647.809019 26.877187 
L 617.260049 26.877187 
L 617.260049 359.517187 
z
" clip-path="url(#p5967f94383)" style="fill: #add8e6; stroke: #add8e6; stroke-linejoin: miter"/>
   </g>
   <g id="patch_44">
    <path d="M 657.396615 359.517187 
L 657.396615 26.877187 
L 653.492877 26.877187 
L 653.492877 359.517187 
z
" clip-path="url(#p5967f94383)" style="fill: #add8e6; stroke: #add8e6; stroke-linejoin: miter"/>
   </g>
   <g id="patch_45">
    <path d="M 682.938617 359.517187 
L 682.938617 26.877187 
L 682.259706 26.877187 
L 682.259706 359.517187 
z
" clip-path="url(#p5967f94383)" style="fill: #add8e6; stroke: #add8e6; stroke-linejoin: miter"/>
   </g>
   <g id="patch_46">
    <path d="M 685.634055 359.517187 
L 685.634055 26.877187 
L 683.063892 26.877187 
L 683.063892 359.517187 
z
" clip-path="url(#p5967f94383)" style="fill: #add8e6; stroke: #add8e6; stroke-linejoin: miter"/>
   </g>
   <g id="patch_47">
    <path d="M 712.410624 359.517187 
L 712.410624 26.877187 
L 711.339723 26.877187 
L 711.339723 359.517187 
z
" clip-path="url(#p5967f94383)" style="fill: #add8e6; stroke: #add8e6; stroke-linejoin: miter"/>
   </g>
   <g id="patch_48">
    <path d="M 725.756476 359.517187 
L 725.756476 26.877187 
L 725.691818 26.877187 
L 725.691818 359.517187 
z
" clip-path="url(#p5967f94383)" style="fill: #add8e6; stroke: #add8e6; stroke-linejoin: miter"/>
   </g>
   <g id="patch_49">
    <path d="M 764.161415 359.517187 
L 764.161415 26.877187 
L 755.559857 26.877187 
L 755.559857 359.517187 
z
" clip-path="url(#p5967f94383)" style="fill: #add8e6; stroke: #add8e6; stroke-linejoin: miter"/>
   </g>
   <g id="patch_50">
    <path d="M 783.518458 359.517187 
L 783.518458 26.877187 
L 783.649795 26.877187 
L 783.649795 359.517187 
z
" clip-path="url(#p5967f94383)" style="fill: #add8e6; stroke: #add8e6; stroke-linejoin: miter"/>
   </g>
   <g id="patch_51">
    <path d="M 784.443878 359.517187 
L 784.443878 26.877187 
L 784.821725 26.877187 
L 784.821725 359.517187 
z
" clip-path="url(#p5967f94383)" style="fill: #add8e6; stroke: #add8e6; stroke-linejoin: miter"/>
   </g>
   <g id="patch_52">
    <path d="M 814.685722 359.517187 
L 814.685722 26.877187 
L 814.936272 26.877187 
L 814.936272 359.517187 
z
" clip-path="url(#p5967f94383)" style="fill: #add8e6; stroke: #add8e6; stroke-linejoin: miter"/>
   </g>
   <g id="patch_53">
    <path d="M 859.512026 359.517187 
L 859.512026 26.877187 
L 859.920181 26.877187 
L 859.920181 359.517187 
z
" clip-path="url(#p5967f94383)" style="fill: #add8e6; stroke: #add8e6; stroke-linejoin: miter"/>
   </g>
   <g id="patch_54">
    <path d="M 882.528318 359.517187 
L 882.528318 26.877187 
L 883.039522 26.877187 
L 883.039522 359.517187 
z
" clip-path="url(#p5967f94383)" style="fill: #add8e6; stroke: #add8e6; stroke-linejoin: miter"/>
   </g>
   <g id="patch_55">
    <path d="M 903.297738 359.517187 
L 903.297738 26.877187 
L 903.420993 26.877187 
L 903.420993 359.517187 
z
" clip-path="url(#p5967f94383)" style="fill: #add8e6; stroke: #add8e6; stroke-linejoin: miter"/>
   </g>
   <g id="patch_56">
    <path d="M 935.792515 359.517187 
L 935.792515 26.877187 
L 936.273411 26.877187 
L 936.273411 359.517187 
z
" clip-path="url(#p5967f94383)" style="fill: #add8e6; stroke: #add8e6; stroke-linejoin: miter"/>
   </g>
   <g id="patch_57">
    <path d="M 957.036769 359.517187 
L 957.036769 26.877187 
L 957.234785 26.877187 
L 957.234785 359.517187 
z
" clip-path="url(#p5967f94383)" style="fill: #add8e6; stroke: #add8e6; stroke-linejoin: miter"/>
   </g>
   <g id="patch_58">
    <path d="M 994.748653 359.517187 
L 994.748653 26.877187 
L 995.231569 26.877187 
L 995.231569 359.517187 
z
" clip-path="url(#p5967f94383)" style="fill: #add8e6; stroke: #add8e6; stroke-linejoin: miter"/>
   </g>
   <g id="patch_59">
    <path d="M 1038.869779 359.517187 
L 1038.869779 26.877187 
L 1024.182269 26.877187 
L 1024.182269 359.517187 
z
" clip-path="url(#p5967f94383)" style="fill: #add8e6; stroke: #add8e6; stroke-linejoin: miter"/>
   </g>
   <g id="patch_60">
    <path d="M 1045.816492 359.517187 
L 1045.816492 26.877187 
L 1046.151907 26.877187 
L 1046.151907 359.517187 
z
" clip-path="url(#p5967f94383)" style="fill: #add8e6; stroke: #add8e6; stroke-linejoin: miter"/>
   </g>
   <g id="patch_61">
    <path d="M 1046.747974 359.517187 
L 1046.747974 26.877187 
L 1046.828797 26.877187 
L 1046.828797 359.517187 
z
" clip-path="url(#p5967f94383)" style="fill: #add8e6; stroke: #add8e6; stroke-linejoin: miter"/>
   </g>
   <g id="patch_62">
    <path d="M 1062.397275 359.517187 
L 1062.397275 26.877187 
L 1062.936766 26.877187 
L 1062.936766 359.517187 
z
" clip-path="url(#p5967f94383)" style="fill: #add8e6; stroke: #add8e6; stroke-linejoin: miter"/>
   </g>
   <g id="patch_63">
    <path d="M 1114.307691 359.517187 
L 1114.307691 26.877187 
L 1114.507727 26.877187 
L 1114.507727 359.517187 
z
" clip-path="url(#p5967f94383)" style="fill: #add8e6; stroke: #add8e6; stroke-linejoin: miter"/>
   </g>
   <g id="patch_64">
    <path d="M 99.962273 359.517187 
L 99.962273 26.877187 
L 160.579317 26.877187 
L 160.579317 359.517187 
z
" clip-path="url(#p5967f94383)" style="fill: #808080; opacity: 0.4; stroke: #808080; stroke-linejoin: miter"/>
   </g>
   <g id="patch_65">
    <path d="M 172.702726 26.877187 
L 172.702726 26.877187 
L 172.702726 359.517187 
" clip-path="url(#p5967f94383)" style="fill: #808080; opacity: 0.4; stroke: #808080; stroke-linejoin: miter"/>
   </g>
   <g id="patch_66">
    <path d="M 184.826135 26.877187 
L 184.826135 26.877187 
L 184.826135 359.517187 
" clip-path="url(#p5967f94383)" style="fill: #808080; opacity: 0.4; stroke: #808080; stroke-linejoin: miter"/>
   </g>
   <g id="patch_67">
    <path d="M 597.022038 359.517187 
L 597.022038 26.877187 
L 1033.464759 26.877187 
L 1033.464759 359.517187 
z
" clip-path="url(#p5967f94383)" style="fill: #808080; opacity: 0.4; stroke: #808080; stroke-linejoin: miter"/>
   </g>
   <g id="patch_68">
    <path d="M 1045.588168 26.877187 
L 1045.588168 26.877187 
L 1045.588168 359.517187 
" clip-path="url(#p5967f94383)" style="fill: #808080; opacity: 0.4; stroke: #808080; stroke-linejoin: miter"/>
   </g>
   <g id="patch_69">
    <path d="M 1057.711577 26.877187 
L 1057.711577 26.877187 
L 1057.711577 359.517187 
" clip-path="url(#p5967f94383)" style="fill: #808080; opacity: 0.4; stroke: #808080; stroke-linejoin: miter"/>
   </g>
   <g id="matplotlib.axis_1">
    <g id="xtick_1">
     <g id="line2d_1">
      <defs>
       <path id="meba2f9c784" d="M 0 0 
L 0 3.5 
" style="stroke: #000000; stroke-width: 0.8"/>
      </defs>
      <g>
       <use xlink:href="#meba2f9c784" x="112.32815" y="359.517187" style="stroke: #000000; stroke-width: 0.8"/>
      </g>
     </g>
     <g id="text_1">
      <!-- 11-12 06 -->
      <g transform="translate(89.847681 374.115625) scale(0.1 -0.1)">
       <defs>
        <path id="DejaVuSans-31" d="M 794 531 
L 1825 531 
L 1825 4091 
L 703 3866 
L 703 4441 
L 1819 4666 
L 2450 4666 
L 2450 531 
L 3481 531 
L 3481 0 
L 794 0 
L 794 531 
z
" transform="scale(0.015625)"/>
        <path id="DejaVuSans-2d" d="M 313 2009 
L 1997 2009 
L 1997 1497 
L 313 1497 
L 313 2009 
z
" transform="scale(0.015625)"/>
        <path id="DejaVuSans-32" d="M 1228 531 
L 3431 531 
L 3431 0 
L 469 0 
L 469 531 
Q 828 903 1448 1529 
Q 2069 2156 2228 2338 
Q 2531 2678 2651 2914 
Q 2772 3150 2772 3378 
Q 2772 3750 2511 3984 
Q 2250 4219 1831 4219 
Q 1534 4219 1204 4116 
Q 875 4013 500 3803 
L 500 4441 
Q 881 4594 1212 4672 
Q 1544 4750 1819 4750 
Q 2544 4750 2975 4387 
Q 3406 4025 3406 3419 
Q 3406 3131 3298 2873 
Q 3191 2616 2906 2266 
Q 2828 2175 2409 1742 
Q 1991 1309 1228 531 
z
" transform="scale(0.015625)"/>
        <path id="DejaVuSans-20" transform="scale(0.015625)"/>
        <path id="DejaVuSans-30" d="M 2034 4250 
Q 1547 4250 1301 3770 
Q 1056 3291 1056 2328 
Q 1056 1369 1301 889 
Q 1547 409 2034 409 
Q 2525 409 2770 889 
Q 3016 1369 3016 2328 
Q 3016 3291 2770 3770 
Q 2525 4250 2034 4250 
z
M 2034 4750 
Q 2819 4750 3233 4129 
Q 3647 3509 3647 2328 
Q 3647 1150 3233 529 
Q 2819 -91 2034 -91 
Q 1250 -91 836 529 
Q 422 1150 422 2328 
Q 422 3509 836 4129 
Q 1250 4750 2034 4750 
z
" transform="scale(0.015625)"/>
        <path id="DejaVuSans-36" d="M 2113 2584 
Q 1688 2584 1439 2293 
Q 1191 2003 1191 1497 
Q 1191 994 1439 701 
Q 1688 409 2113 409 
Q 2538 409 2786 701 
Q 3034 994 3034 1497 
Q 3034 2003 2786 2293 
Q 2538 2584 2113 2584 
z
M 3366 4563 
L 3366 3988 
Q 3128 4100 2886 4159 
Q 2644 4219 2406 4219 
Q 1781 4219 1451 3797 
Q 1122 3375 1075 2522 
Q 1259 2794 1537 2939 
Q 1816 3084 2150 3084 
Q 2853 3084 3261 2657 
Q 3669 2231 3669 1497 
Q 3669 778 3244 343 
Q 2819 -91 2113 -91 
Q 1303 -91 875 529 
Q 447 1150 447 2328 
Q 447 3434 972 4092 
Q 1497 4750 2381 4750 
Q 2619 4750 2861 4703 
Q 3103 4656 3366 4563 
z
" transform="scale(0.015625)"/>
       </defs>
       <use xlink:href="#DejaVuSans-31"/>
       <use xlink:href="#DejaVuSans-31" x="63.623047"/>
       <use xlink:href="#DejaVuSans-2d" x="127.246094"/>
       <use xlink:href="#DejaVuSans-31" x="163.330078"/>
       <use xlink:href="#DejaVuSans-32" x="226.953125"/>
       <use xlink:href="#DejaVuSans-20" x="290.576172"/>
       <use xlink:href="#DejaVuSans-30" x="322.363281"/>
       <use xlink:href="#DejaVuSans-36" x="385.986328"/>
      </g>
     </g>
    </g>
    <g id="xtick_2">
     <g id="line2d_2">
      <g>
       <use xlink:href="#meba2f9c784" x="221.43883" y="359.517187" style="stroke: #000000; stroke-width: 0.8"/>
      </g>
     </g>
     <g id="text_2">
      <!-- 11-12 09 -->
      <g transform="translate(198.958361 374.115625) scale(0.1 -0.1)">
       <defs>
        <path id="DejaVuSans-39" d="M 703 97 
L 703 672 
Q 941 559 1184 500 
Q 1428 441 1663 441 
Q 2288 441 2617 861 
Q 2947 1281 2994 2138 
Q 2813 1869 2534 1725 
Q 2256 1581 1919 1581 
Q 1219 1581 811 2004 
Q 403 2428 403 3163 
Q 403 3881 828 4315 
Q 1253 4750 1959 4750 
Q 2769 4750 3195 4129 
Q 3622 3509 3622 2328 
Q 3622 1225 3098 567 
Q 2575 -91 1691 -91 
Q 1453 -91 1209 -44 
Q 966 3 703 97 
z
M 1959 2075 
Q 2384 2075 2632 2365 
Q 2881 2656 2881 3163 
Q 2881 3666 2632 3958 
Q 2384 4250 1959 4250 
Q 1534 4250 1286 3958 
Q 1038 3666 1038 3163 
Q 1038 2656 1286 2365 
Q 1534 2075 1959 2075 
z
" transform="scale(0.015625)"/>
       </defs>
       <use xlink:href="#DejaVuSans-31"/>
       <use xlink:href="#DejaVuSans-31" x="63.623047"/>
       <use xlink:href="#DejaVuSans-2d" x="127.246094"/>
       <use xlink:href="#DejaVuSans-31" x="163.330078"/>
       <use xlink:href="#DejaVuSans-32" x="226.953125"/>
       <use xlink:href="#DejaVuSans-20" x="290.576172"/>
       <use xlink:href="#DejaVuSans-30" x="322.363281"/>
       <use xlink:href="#DejaVuSans-39" x="385.986328"/>
      </g>
     </g>
    </g>
    <g id="xtick_3">
     <g id="line2d_3">
      <g>
       <use xlink:href="#meba2f9c784" x="330.54951" y="359.517187" style="stroke: #000000; stroke-width: 0.8"/>
      </g>
     </g>
     <g id="text_3">
      <!-- 11-12 12 -->
      <g transform="translate(308.069042 374.115625) scale(0.1 -0.1)">
       <use xlink:href="#DejaVuSans-31"/>
       <use xlink:href="#DejaVuSans-31" x="63.623047"/>
       <use xlink:href="#DejaVuSans-2d" x="127.246094"/>
       <use xlink:href="#DejaVuSans-31" x="163.330078"/>
       <use xlink:href="#DejaVuSans-32" x="226.953125"/>
       <use xlink:href="#DejaVuSans-20" x="290.576172"/>
       <use xlink:href="#DejaVuSans-31" x="322.363281"/>
       <use xlink:href="#DejaVuSans-32" x="385.986328"/>
      </g>
     </g>
    </g>
    <g id="xtick_4">
     <g id="line2d_4">
      <g>
       <use xlink:href="#meba2f9c784" x="439.660191" y="359.517187" style="stroke: #000000; stroke-width: 0.8"/>
      </g>
     </g>
     <g id="text_4">
      <!-- 11-12 15 -->
      <g transform="translate(417.179722 374.115625) scale(0.1 -0.1)">
       <defs>
        <path id="DejaVuSans-35" d="M 691 4666 
L 3169 4666 
L 3169 4134 
L 1269 4134 
L 1269 2991 
Q 1406 3038 1543 3061 
Q 1681 3084 1819 3084 
Q 2600 3084 3056 2656 
Q 3513 2228 3513 1497 
Q 3513 744 3044 326 
Q 2575 -91 1722 -91 
Q 1428 -91 1123 -41 
Q 819 9 494 109 
L 494 744 
Q 775 591 1075 516 
Q 1375 441 1709 441 
Q 2250 441 2565 725 
Q 2881 1009 2881 1497 
Q 2881 1984 2565 2268 
Q 2250 2553 1709 2553 
Q 1456 2553 1204 2497 
Q 953 2441 691 2322 
L 691 4666 
z
" transform="scale(0.015625)"/>
       </defs>
       <use xlink:href="#DejaVuSans-31"/>
       <use xlink:href="#DejaVuSans-31" x="63.623047"/>
       <use xlink:href="#DejaVuSans-2d" x="127.246094"/>
       <use xlink:href="#DejaVuSans-31" x="163.330078"/>
       <use xlink:href="#DejaVuSans-32" x="226.953125"/>
       <use xlink:href="#DejaVuSans-20" x="290.576172"/>
       <use xlink:href="#DejaVuSans-31" x="322.363281"/>
       <use xlink:href="#DejaVuSans-35" x="385.986328"/>
      </g>
     </g>
    </g>
    <g id="xtick_5">
     <g id="line2d_5">
      <g>
       <use xlink:href="#meba2f9c784" x="548.770871" y="359.517187" style="stroke: #000000; stroke-width: 0.8"/>
      </g>
     </g>
     <g id="text_5">
      <!-- 11-12 18 -->
      <g transform="translate(526.290402 374.115625) scale(0.1 -0.1)">
       <defs>
        <path id="DejaVuSans-38" d="M 2034 2216 
Q 1584 2216 1326 1975 
Q 1069 1734 1069 1313 
Q 1069 891 1326 650 
Q 1584 409 2034 409 
Q 2484 409 2743 651 
Q 3003 894 3003 1313 
Q 3003 1734 2745 1975 
Q 2488 2216 2034 2216 
z
M 1403 2484 
Q 997 2584 770 2862 
Q 544 3141 544 3541 
Q 544 4100 942 4425 
Q 1341 4750 2034 4750 
Q 2731 4750 3128 4425 
Q 3525 4100 3525 3541 
Q 3525 3141 3298 2862 
Q 3072 2584 2669 2484 
Q 3125 2378 3379 2068 
Q 3634 1759 3634 1313 
Q 3634 634 3220 271 
Q 2806 -91 2034 -91 
Q 1263 -91 848 271 
Q 434 634 434 1313 
Q 434 1759 690 2068 
Q 947 2378 1403 2484 
z
M 1172 3481 
Q 1172 3119 1398 2916 
Q 1625 2713 2034 2713 
Q 2441 2713 2670 2916 
Q 2900 3119 2900 3481 
Q 2900 3844 2670 4047 
Q 2441 4250 2034 4250 
Q 1625 4250 1398 4047 
Q 1172 3844 1172 3481 
z
" transform="scale(0.015625)"/>
       </defs>
       <use xlink:href="#DejaVuSans-31"/>
       <use xlink:href="#DejaVuSans-31" x="63.623047"/>
       <use xlink:href="#DejaVuSans-2d" x="127.246094"/>
       <use xlink:href="#DejaVuSans-31" x="163.330078"/>
       <use xlink:href="#DejaVuSans-32" x="226.953125"/>
       <use xlink:href="#DejaVuSans-20" x="290.576172"/>
       <use xlink:href="#DejaVuSans-31" x="322.363281"/>
       <use xlink:href="#DejaVuSans-38" x="385.986328"/>
      </g>
     </g>
    </g>
    <g id="xtick_6">
     <g id="line2d_6">
      <g>
       <use xlink:href="#meba2f9c784" x="657.881551" y="359.517187" style="stroke: #000000; stroke-width: 0.8"/>
      </g>
     </g>
     <g id="text_6">
      <!-- 11-12 21 -->
      <g transform="translate(635.401082 374.115625) scale(0.1 -0.1)">
       <use xlink:href="#DejaVuSans-31"/>
       <use xlink:href="#DejaVuSans-31" x="63.623047"/>
       <use xlink:href="#DejaVuSans-2d" x="127.246094"/>
       <use xlink:href="#DejaVuSans-31" x="163.330078"/>
       <use xlink:href="#DejaVuSans-32" x="226.953125"/>
       <use xlink:href="#DejaVuSans-20" x="290.576172"/>
       <use xlink:href="#DejaVuSans-32" x="322.363281"/>
       <use xlink:href="#DejaVuSans-31" x="385.986328"/>
      </g>
     </g>
    </g>
    <g id="xtick_7">
     <g id="line2d_7">
      <g>
       <use xlink:href="#meba2f9c784" x="766.992231" y="359.517187" style="stroke: #000000; stroke-width: 0.8"/>
      </g>
     </g>
     <g id="text_7">
      <!-- 11-13 00 -->
      <g transform="translate(744.511763 374.115625) scale(0.1 -0.1)">
       <defs>
        <path id="DejaVuSans-33" d="M 2597 2516 
Q 3050 2419 3304 2112 
Q 3559 1806 3559 1356 
Q 3559 666 3084 287 
Q 2609 -91 1734 -91 
Q 1441 -91 1130 -33 
Q 819 25 488 141 
L 488 750 
Q 750 597 1062 519 
Q 1375 441 1716 441 
Q 2309 441 2620 675 
Q 2931 909 2931 1356 
Q 2931 1769 2642 2001 
Q 2353 2234 1838 2234 
L 1294 2234 
L 1294 2753 
L 1863 2753 
Q 2328 2753 2575 2939 
Q 2822 3125 2822 3475 
Q 2822 3834 2567 4026 
Q 2313 4219 1838 4219 
Q 1578 4219 1281 4162 
Q 984 4106 628 3988 
L 628 4550 
Q 988 4650 1302 4700 
Q 1616 4750 1894 4750 
Q 2613 4750 3031 4423 
Q 3450 4097 3450 3541 
Q 3450 3153 3228 2886 
Q 3006 2619 2597 2516 
z
" transform="scale(0.015625)"/>
       </defs>
       <use xlink:href="#DejaVuSans-31"/>
       <use xlink:href="#DejaVuSans-31" x="63.623047"/>
       <use xlink:href="#DejaVuSans-2d" x="127.246094"/>
       <use xlink:href="#DejaVuSans-31" x="163.330078"/>
       <use xlink:href="#DejaVuSans-33" x="226.953125"/>
       <use xlink:href="#DejaVuSans-20" x="290.576172"/>
       <use xlink:href="#DejaVuSans-30" x="322.363281"/>
       <use xlink:href="#DejaVuSans-30" x="385.986328"/>
      </g>
     </g>
    </g>
    <g id="xtick_8">
     <g id="line2d_8">
      <g>
       <use xlink:href="#meba2f9c784" x="876.102912" y="359.517187" style="stroke: #000000; stroke-width: 0.8"/>
      </g>
     </g>
     <g id="text_8">
      <!-- 11-13 03 -->
      <g transform="translate(853.622443 374.115625) scale(0.1 -0.1)">
       <use xlink:href="#DejaVuSans-31"/>
       <use xlink:href="#DejaVuSans-31" x="63.623047"/>
       <use xlink:href="#DejaVuSans-2d" x="127.246094"/>
       <use xlink:href="#DejaVuSans-31" x="163.330078"/>
       <use xlink:href="#DejaVuSans-33" x="226.953125"/>
       <use xlink:href="#DejaVuSans-20" x="290.576172"/>
       <use xlink:href="#DejaVuSans-30" x="322.363281"/>
       <use xlink:href="#DejaVuSans-33" x="385.986328"/>
      </g>
     </g>
    </g>
    <g id="xtick_9">
     <g id="line2d_9">
      <g>
       <use xlink:href="#meba2f9c784" x="985.213592" y="359.517187" style="stroke: #000000; stroke-width: 0.8"/>
      </g>
     </g>
     <g id="text_9">
      <!-- 11-13 06 -->
      <g transform="translate(962.733123 374.115625) scale(0.1 -0.1)">
       <use xlink:href="#DejaVuSans-31"/>
       <use xlink:href="#DejaVuSans-31" x="63.623047"/>
       <use xlink:href="#DejaVuSans-2d" x="127.246094"/>
       <use xlink:href="#DejaVuSans-31" x="163.330078"/>
       <use xlink:href="#DejaVuSans-33" x="226.953125"/>
       <use xlink:href="#DejaVuSans-20" x="290.576172"/>
       <use xlink:href="#DejaVuSans-30" x="322.363281"/>
       <use xlink:href="#DejaVuSans-36" x="385.986328"/>
      </g>
     </g>
    </g>
    <g id="xtick_10">
     <g id="line2d_10">
      <g>
       <use xlink:href="#meba2f9c784" x="1094.324272" y="359.517187" style="stroke: #000000; stroke-width: 0.8"/>
      </g>
     </g>
     <g id="text_10">
      <!-- 11-13 09 -->
      <g transform="translate(1071.843803 374.115625) scale(0.1 -0.1)">
       <use xlink:href="#DejaVuSans-31"/>
       <use xlink:href="#DejaVuSans-31" x="63.623047"/>
       <use xlink:href="#DejaVuSans-2d" x="127.246094"/>
       <use xlink:href="#DejaVuSans-31" x="163.330078"/>
       <use xlink:href="#DejaVuSans-33" x="226.953125"/>
       <use xlink:href="#DejaVuSans-20" x="290.576172"/>
       <use xlink:href="#DejaVuSans-30" x="322.363281"/>
       <use xlink:href="#DejaVuSans-39" x="385.986328"/>
      </g>
     </g>
    </g>
    <g id="text_11">
     <!-- Time -->
     <g transform="translate(592.554688 389.313437) scale(0.12 -0.12)">
      <defs>
       <path id="DejaVuSans-54" d="M -19 4666 
L 3928 4666 
L 3928 4134 
L 2272 4134 
L 2272 0 
L 1638 0 
L 1638 4134 
L -19 4134 
L -19 4666 
z
" transform="scale(0.015625)"/>
       <path id="DejaVuSans-69" d="M 603 3500 
L 1178 3500 
L 1178 0 
L 603 0 
L 603 3500 
z
M 603 4863 
L 1178 4863 
L 1178 4134 
L 603 4134 
L 603 4863 
z
" transform="scale(0.015625)"/>
       <path id="DejaVuSans-6d" d="M 3328 2828 
Q 3544 3216 3844 3400 
Q 4144 3584 4550 3584 
Q 5097 3584 5394 3201 
Q 5691 2819 5691 2113 
L 5691 0 
L 5113 0 
L 5113 2094 
Q 5113 2597 4934 2840 
Q 4756 3084 4391 3084 
Q 3944 3084 3684 2787 
Q 3425 2491 3425 1978 
L 3425 0 
L 2847 0 
L 2847 2094 
Q 2847 2600 2669 2842 
Q 2491 3084 2119 3084 
Q 1678 3084 1418 2786 
Q 1159 2488 1159 1978 
L 1159 0 
L 581 0 
L 581 3500 
L 1159 3500 
L 1159 2956 
Q 1356 3278 1631 3431 
Q 1906 3584 2284 3584 
Q 2666 3584 2933 3390 
Q 3200 3197 3328 2828 
z
" transform="scale(0.015625)"/>
       <path id="DejaVuSans-65" d="M 3597 1894 
L 3597 1613 
L 953 1613 
Q 991 1019 1311 708 
Q 1631 397 2203 397 
Q 2534 397 2845 478 
Q 3156 559 3463 722 
L 3463 178 
Q 3153 47 2828 -22 
Q 2503 -91 2169 -91 
Q 1331 -91 842 396 
Q 353 884 353 1716 
Q 353 2575 817 3079 
Q 1281 3584 2069 3584 
Q 2775 3584 3186 3129 
Q 3597 2675 3597 1894 
z
M 3022 2063 
Q 3016 2534 2758 2815 
Q 2500 3097 2075 3097 
Q 1594 3097 1305 2825 
Q 1016 2553 972 2059 
L 3022 2063 
z
" transform="scale(0.015625)"/>
      </defs>
      <use xlink:href="#DejaVuSans-54"/>
      <use xlink:href="#DejaVuSans-69" x="57.958984"/>
      <use xlink:href="#DejaVuSans-6d" x="85.742188"/>
      <use xlink:href="#DejaVuSans-65" x="183.154297"/>
     </g>
    </g>
   </g>
   <g id="matplotlib.axis_2">
    <g id="ytick_1">
     <g id="line2d_11">
      <defs>
       <path id="m6d205ea125" d="M 0 0 
L -3.5 0 
" style="stroke: #000000; stroke-width: 0.8"/>
      </defs>
      <g>
       <use xlink:href="#m6d205ea125" x="49.235" y="344.397187" style="stroke: #000000; stroke-width: 0.8"/>
      </g>
     </g>
     <g id="text_12">
      <!-- 0 -->
      <g transform="translate(35.8725 348.196406) scale(0.1 -0.1)">
       <use xlink:href="#DejaVuSans-30"/>
      </g>
     </g>
    </g>
    <g id="ytick_2">
     <g id="line2d_12">
      <g>
       <use xlink:href="#m6d205ea125" x="49.235" y="289.415369" style="stroke: #000000; stroke-width: 0.8"/>
      </g>
     </g>
     <g id="text_13">
      <!-- 50 -->
      <g transform="translate(29.51 293.214588) scale(0.1 -0.1)">
       <use xlink:href="#DejaVuSans-35"/>
       <use xlink:href="#DejaVuSans-30" x="63.623047"/>
      </g>
     </g>
    </g>
    <g id="ytick_3">
     <g id="line2d_13">
      <g>
       <use xlink:href="#m6d205ea125" x="49.235" y="234.433551" style="stroke: #000000; stroke-width: 0.8"/>
      </g>
     </g>
     <g id="text_14">
      <!-- 100 -->
      <g transform="translate(23.1475 238.23277) scale(0.1 -0.1)">
       <use xlink:href="#DejaVuSans-31"/>
       <use xlink:href="#DejaVuSans-30" x="63.623047"/>
       <use xlink:href="#DejaVuSans-30" x="127.246094"/>
      </g>
     </g>
    </g>
    <g id="ytick_4">
     <g id="line2d_14">
      <g>
       <use xlink:href="#m6d205ea125" x="49.235" y="179.451733" style="stroke: #000000; stroke-width: 0.8"/>
      </g>
     </g>
     <g id="text_15">
      <!-- 150 -->
      <g transform="translate(23.1475 183.250952) scale(0.1 -0.1)">
       <use xlink:href="#DejaVuSans-31"/>
       <use xlink:href="#DejaVuSans-35" x="63.623047"/>
       <use xlink:href="#DejaVuSans-30" x="127.246094"/>
      </g>
     </g>
    </g>
    <g id="ytick_5">
     <g id="line2d_15">
      <g>
       <use xlink:href="#m6d205ea125" x="49.235" y="124.469915" style="stroke: #000000; stroke-width: 0.8"/>
      </g>
     </g>
     <g id="text_16">
      <!-- 200 -->
      <g transform="translate(23.1475 128.269134) scale(0.1 -0.1)">
       <use xlink:href="#DejaVuSans-32"/>
       <use xlink:href="#DejaVuSans-30" x="63.623047"/>
       <use xlink:href="#DejaVuSans-30" x="127.246094"/>
      </g>
     </g>
    </g>
    <g id="ytick_6">
     <g id="line2d_16">
      <g>
       <use xlink:href="#m6d205ea125" x="49.235" y="69.488097" style="stroke: #000000; stroke-width: 0.8"/>
      </g>
     </g>
     <g id="text_17">
      <!-- 250 -->
      <g transform="translate(23.1475 73.287315) scale(0.1 -0.1)">
       <use xlink:href="#DejaVuSans-32"/>
       <use xlink:href="#DejaVuSans-35" x="63.623047"/>
       <use xlink:href="#DejaVuSans-30" x="127.246094"/>
      </g>
     </g>
    </g>
    <g id="text_18">
     <!-- Pellet_Count -->
     <g transform="translate(16.318125 230.485312) rotate(-90) scale(0.12 -0.12)">
      <defs>
       <path id="DejaVuSans-50" d="M 1259 4147 
L 1259 2394 
L 2053 2394 
Q 2494 2394 2734 2622 
Q 2975 2850 2975 3272 
Q 2975 3691 2734 3919 
Q 2494 4147 2053 4147 
L 1259 4147 
z
M 628 4666 
L 2053 4666 
Q 2838 4666 3239 4311 
Q 3641 3956 3641 3272 
Q 3641 2581 3239 2228 
Q 2838 1875 2053 1875 
L 1259 1875 
L 1259 0 
L 628 0 
L 628 4666 
z
" transform="scale(0.015625)"/>
       <path id="DejaVuSans-6c" d="M 603 4863 
L 1178 4863 
L 1178 0 
L 603 0 
L 603 4863 
z
" transform="scale(0.015625)"/>
       <path id="DejaVuSans-74" d="M 1172 4494 
L 1172 3500 
L 2356 3500 
L 2356 3053 
L 1172 3053 
L 1172 1153 
Q 1172 725 1289 603 
Q 1406 481 1766 481 
L 2356 481 
L 2356 0 
L 1766 0 
Q 1100 0 847 248 
Q 594 497 594 1153 
L 594 3053 
L 172 3053 
L 172 3500 
L 594 3500 
L 594 4494 
L 1172 4494 
z
" transform="scale(0.015625)"/>
       <path id="DejaVuSans-5f" d="M 3263 -1063 
L 3263 -1509 
L -63 -1509 
L -63 -1063 
L 3263 -1063 
z
" transform="scale(0.015625)"/>
       <path id="DejaVuSans-43" d="M 4122 4306 
L 4122 3641 
Q 3803 3938 3442 4084 
Q 3081 4231 2675 4231 
Q 1875 4231 1450 3742 
Q 1025 3253 1025 2328 
Q 1025 1406 1450 917 
Q 1875 428 2675 428 
Q 3081 428 3442 575 
Q 3803 722 4122 1019 
L 4122 359 
Q 3791 134 3420 21 
Q 3050 -91 2638 -91 
Q 1578 -91 968 557 
Q 359 1206 359 2328 
Q 359 3453 968 4101 
Q 1578 4750 2638 4750 
Q 3056 4750 3426 4639 
Q 3797 4528 4122 4306 
z
" transform="scale(0.015625)"/>
       <path id="DejaVuSans-6f" d="M 1959 3097 
Q 1497 3097 1228 2736 
Q 959 2375 959 1747 
Q 959 1119 1226 758 
Q 1494 397 1959 397 
Q 2419 397 2687 759 
Q 2956 1122 2956 1747 
Q 2956 2369 2687 2733 
Q 2419 3097 1959 3097 
z
M 1959 3584 
Q 2709 3584 3137 3096 
Q 3566 2609 3566 1747 
Q 3566 888 3137 398 
Q 2709 -91 1959 -91 
Q 1206 -91 779 398 
Q 353 888 353 1747 
Q 353 2609 779 3096 
Q 1206 3584 1959 3584 
z
" transform="scale(0.015625)"/>
       <path id="DejaVuSans-75" d="M 544 1381 
L 544 3500 
L 1119 3500 
L 1119 1403 
Q 1119 906 1312 657 
Q 1506 409 1894 409 
Q 2359 409 2629 706 
Q 2900 1003 2900 1516 
L 2900 3500 
L 3475 3500 
L 3475 0 
L 2900 0 
L 2900 538 
Q 2691 219 2414 64 
Q 2138 -91 1772 -91 
Q 1169 -91 856 284 
Q 544 659 544 1381 
z
M 1991 3584 
L 1991 3584 
z
" transform="scale(0.015625)"/>
       <path id="DejaVuSans-6e" d="M 3513 2113 
L 3513 0 
L 2938 0 
L 2938 2094 
Q 2938 2591 2744 2837 
Q 2550 3084 2163 3084 
Q 1697 3084 1428 2787 
Q 1159 2491 1159 1978 
L 1159 0 
L 581 0 
L 581 3500 
L 1159 3500 
L 1159 2956 
Q 1366 3272 1645 3428 
Q 1925 3584 2291 3584 
Q 2894 3584 3203 3211 
Q 3513 2838 3513 2113 
z
" transform="scale(0.015625)"/>
      </defs>
      <use xlink:href="#DejaVuSans-50"/>
      <use xlink:href="#DejaVuSans-65" x="56.677734"/>
      <use xlink:href="#DejaVuSans-6c" x="118.201172"/>
      <use xlink:href="#DejaVuSans-6c" x="145.984375"/>
      <use xlink:href="#DejaVuSans-65" x="173.767578"/>
      <use xlink:href="#DejaVuSans-74" x="235.291016"/>
      <use xlink:href="#DejaVuSans-5f" x="274.5"/>
      <use xlink:href="#DejaVuSans-43" x="324.5"/>
      <use xlink:href="#DejaVuSans-6f" x="394.324219"/>
      <use xlink:href="#DejaVuSans-75" x="455.505859"/>
      <use xlink:href="#DejaVuSans-6e" x="518.884766"/>
      <use xlink:href="#DejaVuSans-74" x="582.263672"/>
     </g>
    </g>
   </g>
   <g id="line2d_17">
    <path d="M 99.962273 344.397187 
L 105.862332 344.397187 
L 109.640794 343.297551 
L 138.120702 343.297551 
L 144.778474 342.197915 
L 144.899708 341.098278 
L 151.203881 341.098278 
L 152.012108 339.998642 
L 161.387545 339.998642 
L 162.034126 338.899006 
L 166.752153 338.899006 
L 167.105752 337.799369 
L 173.985787 337.799369 
L 185.604054 336.699733 
L 190.382698 336.699733 
L 192.352752 334.50046 
L 194.343011 334.50046 
L 195.504838 333.400824 
L 204.193281 333.400824 
L 204.223589 332.301187 
L 204.748937 332.301187 
L 204.9712 331.201551 
L 215.932782 331.201551 
L 216.023707 330.101915 
L 216.31669 330.101915 
L 216.437924 329.002278 
L 222.661274 329.002278 
L 222.731994 327.902642 
L 224.358551 327.902642 
L 224.479785 326.803006 
L 226.763027 326.803006 
L 226.823644 325.703369 
L 228.046088 325.703369 
L 228.066294 324.603733 
L 231.127454 324.603733 
L 231.278997 323.504097 
L 232.440824 323.504097 
L 232.450926 322.40446 
L 232.64288 322.40446 
L 232.7136 321.304824 
L 237.734712 321.304824 
L 237.916563 320.205187 
L 239.341064 320.205187 
L 239.401681 319.105551 
L 239.68456 319.105551 
L 239.805795 318.005915 
L 247.635496 318.005915 
L 247.696113 316.906278 
L 256.020854 316.906278 
L 256.04106 315.806642 
L 256.980624 315.806642 
L 257.010932 314.707006 
L 258.233376 314.707006 
L 258.253582 313.607369 
L 259.728597 313.607369 
L 259.758905 312.507733 
L 263.779836 312.507733 
L 263.810144 311.408097 
L 267.224904 311.408097 
L 267.235007 310.30846 
L 269.892054 310.30846 
L 269.922363 309.208824 
L 270.508328 309.208824 
L 270.538636 308.109187 
L 270.902338 308.109187 
L 270.932647 307.009551 
L 271.528715 307.009551 
L 271.54892 305.909915 
L 272.448073 305.909915 
L 272.640027 304.810278 
L 273.124963 304.810278 
L 273.135066 303.710642 
L 273.963499 303.710642 
L 273.973602 302.611006 
L 275.004092 302.611006 
L 275.024297 301.511369 
L 278.80276 301.511369 
L 278.822966 300.411733 
L 281.32847 300.411733 
L 281.348676 299.312097 
L 282.581222 299.312097 
L 282.601428 298.21246 
L 282.864102 298.21246 
L 282.874205 297.112824 
L 283.056056 297.112824 
L 283.066159 296.013187 
L 283.601609 296.013187 
L 283.621815 294.913551 
L 286.006085 294.913551 
L 286.026291 293.813915 
L 290.158353 293.813915 
L 290.178559 292.714278 
L 290.724112 292.714278 
L 290.754421 291.614642 
L 291.522236 291.614642 
L 291.532339 290.515006 
L 291.865733 290.515006 
L 291.875836 289.415369 
L 292.118304 289.415369 
L 292.128407 288.315733 
L 298.574019 288.315733 
L 298.594225 287.216097 
L 298.957927 287.216097 
L 298.988236 286.11646 
L 299.392349 286.11646 
L 299.412555 285.016824 
L 299.584303 285.016824 
L 299.614612 283.917187 
L 308.787991 283.917187 
L 308.798094 282.817551 
L 309.101179 282.817551 
L 309.121385 281.717915 
L 312.83923 281.717915 
L 312.920053 280.618278 
L 322.113638 280.618278 
L 322.164152 279.518642 
L 322.90166 279.518642 
L 323.012791 278.419006 
L 325.437473 278.419006 
L 325.457679 277.319369 
L 325.983026 277.319369 
L 326.013335 276.219733 
L 326.164877 276.219733 
L 326.185083 275.120097 
L 330.256528 275.120097 
L 330.266631 274.02046 
L 330.509099 274.02046 
L 330.539407 272.920824 
L 338.934868 272.920824 
L 338.965177 271.821187 
L 343.521558 271.821187 
L 343.541764 270.721551 
L 343.854952 270.721551 
L 343.875157 269.621915 
L 344.208551 269.621915 
L 344.208551 269.621915 
L 344.269168 268.522278 
L 344.552048 268.522278 
L 344.572253 267.422642 
L 344.834927 267.422642 
L 344.956161 266.323006 
L 344.98647 265.223369 
L 345.148115 265.223369 
L 345.158218 264.123733 
L 345.370378 264.123733 
L 345.390583 263.024097 
L 346.027062 263.024097 
L 346.037165 261.92446 
L 346.198811 261.92446 
L 346.208913 260.824824 
L 346.380662 260.824824 
L 346.400867 259.725187 
L 346.511999 259.725187 
L 346.55241 258.625551 
L 351.078483 258.625551 
L 351.098688 257.525915 
L 351.230025 257.525915 
L 351.240128 256.426278 
L 351.755373 256.426278 
L 351.775579 255.326642 
L 352.331235 255.326642 
L 352.341338 254.227006 
L 352.583806 254.227006 
L 352.614115 253.127369 
L 352.816171 253.127369 
L 352.826274 252.027733 
L 364.414233 252.027733 
L 364.424335 250.928097 
L 364.646598 250.928097 
L 364.656701 249.82846 
L 369.202979 249.82846 
L 369.344419 248.728824 
L 375.436432 248.728824 
L 375.456637 247.629187 
L 377.830805 247.629187 
L 377.851011 246.529551 
L 381.528445 246.529551 
L 381.54865 245.429915 
L 381.821427 245.429915 
L 381.83153 244.330278 
L 381.983073 244.330278 
L 382.003278 243.230642 
L 382.185129 243.230642 
L 382.195232 242.131006 
L 382.356878 242.131006 
L 382.377083 241.031369 
L 382.599346 241.031369 
L 382.629654 239.931733 
L 382.771094 239.931733 
L 382.781197 238.832097 
L 382.952945 238.832097 
L 382.963048 237.73246 
L 383.144899 237.73246 
L 383.155002 236.632824 
L 383.296442 236.632824 
L 383.316648 235.533187 
L 383.458087 235.533187 
L 383.46819 234.433551 
L 390.115859 234.433551 
L 390.136065 233.333915 
L 392.64157 233.333915 
L 392.661775 232.234278 
L 394.753063 232.234278 
L 396.581678 231.134642 
L 399.895409 231.134642 
L 399.915615 230.035006 
L 400.036849 230.035006 
L 400.067158 228.935369 
L 402.006903 228.935369 
L 402.188754 227.835733 
L 404.290145 227.835733 
L 404.310351 226.736097 
L 417.474352 226.736097 
L 418.272477 225.63646 
L 418.595768 225.63646 
L 418.60587 224.536824 
L 418.807927 224.536824 
L 418.81803 223.437187 
L 419.050395 223.437187 
L 419.070601 222.337551 
L 419.363583 222.337551 
L 419.373686 221.237915 
L 419.585846 221.237915 
L 419.595949 220.138278 
L 425.213128 220.138278 
L 425.233334 219.038642 
L 425.526316 219.038642 
L 425.536419 217.939006 
L 441.306954 217.939006 
L 441.327159 216.839369 
L 441.801993 216.839369 
L 441.812096 215.739733 
L 448.682027 215.739733 
L 448.702233 214.640097 
L 449.823648 214.640097 
L 449.833751 213.54046 
L 450.187351 213.54046 
L 450.197453 212.440824 
L 450.419716 212.440824 
L 450.439922 211.341187 
L 450.722801 211.341187 
L 450.743007 210.241551 
L 450.934961 210.241551 
L 450.965269 209.141915 
L 462.290554 209.141915 
L 462.300657 208.042278 
L 462.452199 208.042278 
L 462.472405 206.942642 
L 462.745182 206.942642 
L 462.755285 205.843006 
L 465.675006 205.843006 
L 465.705314 204.743369 
L 474.019952 204.743369 
L 474.040158 203.643733 
L 474.1917 203.643733 
L 474.211906 202.544097 
L 474.464477 202.544097 
L 474.47458 201.44446 
L 474.717048 201.44446 
L 474.737254 200.344824 
L 475.08075 200.344824 
L 475.090853 199.245187 
L 481.384923 199.245187 
L 481.405129 198.145551 
L 481.718317 198.145551 
L 481.728419 197.045915 
L 482.031505 197.045915 
L 482.041608 195.946278 
L 482.445721 195.946278 
L 482.486133 194.846642 
L 485.89079 194.846642 
L 485.900893 193.747006 
L 488.032592 193.747006 
L 488.042695 192.647369 
L 488.325575 192.647369 
L 488.335677 191.547733 
L 495.205609 191.547733 
L 495.225815 190.448097 
L 495.468283 190.448097 
L 495.488489 189.34846 
L 495.690545 189.34846 
L 495.700648 188.248824 
L 495.872397 188.248824 
L 495.882499 187.149187 
L 496.185585 187.149187 
L 496.195687 186.049551 
L 496.316922 186.049551 
L 496.34723 184.949915 
L 496.518978 184.949915 
L 496.539184 183.850278 
L 496.963503 183.850278 
L 496.983709 182.750642 
L 506.551099 182.750642 
L 506.571305 181.651006 
L 506.844082 181.651006 
L 506.854184 180.551369 
L 507.490663 180.551369 
L 507.510869 179.451733 
L 507.793749 179.451733 
L 507.813954 178.352097 
L 509.521334 178.352097 
L 509.54154 177.25246 
L 514.421212 177.25246 
L 514.441418 176.152824 
L 514.633372 176.152824 
L 514.653578 175.053187 
L 520.149523 175.053187 
L 520.169729 173.953551 
L 522.564102 173.953551 
L 522.574205 172.853915 
L 522.846981 172.853915 
L 522.867187 171.754278 
L 524.887755 171.754278 
L 525.483823 170.654642 
L 528.514675 170.654642 
L 528.534881 169.555006 
L 532.384063 169.555006 
L 532.576017 168.455369 
L 534.162163 168.455369 
L 539.193378 167.355733 
L 539.203481 166.256097 
L 539.41564 166.256097 
L 539.435846 165.15646 
L 546.154235 165.15646 
L 547.41709 164.056824 
L 547.679764 164.056824 
L 547.689867 162.957187 
L 547.992952 162.957187 
L 548.09398 161.857551 
L 556.853143 161.857551 
L 556.873349 160.757915 
L 563.157316 160.757915 
L 563.167419 159.658278 
L 563.359373 159.658278 
L 563.379579 158.558642 
L 563.551327 158.558642 
L 563.571533 157.459006 
L 565.147576 157.459006 
L 565.26881 156.359369 
L 572.482238 156.359369 
L 572.502444 155.259733 
L 583.948962 155.259733 
L 583.969168 154.160097 
L 588.131538 154.160097 
L 588.151744 153.06046 
L 588.323492 153.06046 
L 588.343698 151.960824 
L 588.515446 151.960824 
L 588.525549 150.861187 
L 588.697297 150.861187 
L 588.7074 149.761551 
L 588.899354 149.761551 
L 588.909457 148.661915 
L 589.071103 148.661915 
L 589.101411 147.562278 
L 590.232929 147.562278 
L 590.253135 146.462642 
L 591.677636 146.462642 
L 591.697841 145.363006 
L 604.144541 145.363006 
L 605.0639 144.263369 
L 610.438611 144.263369 
L 612.469282 143.163733 
L 616.581138 143.163733 
L 616.591241 142.064097 
L 616.843812 142.064097 
L 616.853915 140.96446 
L 622.026569 140.96446 
L 622.056878 139.864824 
L 631.24036 139.864824 
L 631.260566 138.765187 
L 631.735399 138.765187 
L 631.745502 137.665551 
L 640.817853 137.665551 
L 640.838059 136.565915 
L 652.769514 136.565915 
L 652.789719 135.466278 
L 679.875435 135.466278 
L 679.885538 134.366642 
L 680.168418 134.366642 
L 680.229035 133.267006 
L 680.693765 133.267006 
L 680.713971 132.167369 
L 680.895822 132.167369 
L 680.916028 131.067733 
L 681.20901 131.067733 
L 681.219113 129.968097 
L 681.380759 129.968097 
L 681.411067 128.86846 
L 681.603021 128.86846 
L 681.603021 128.86846 
L 681.805078 127.768824 
L 681.845489 127.768824 
L 681.865695 126.669187 
L 682.047546 126.669187 
L 682.067752 125.569551 
L 682.330426 125.569551 
L 682.350631 124.469915 
L 682.492071 124.469915 
L 682.512277 123.370278 
L 710.40622 123.370278 
L 710.446632 122.270642 
L 710.850745 122.270642 
L 710.860848 121.171006 
L 724.428963 121.171006 
L 724.459272 120.071369 
L 725.166471 120.071369 
L 725.176573 118.971733 
L 729.066167 118.971733 
L 729.652132 117.872097 
L 753.393808 117.872097 
L 753.414013 116.77246 
L 753.706996 116.77246 
L 753.717099 115.672824 
L 753.919155 115.672824 
L 753.929258 114.573187 
L 754.212138 114.573187 
L 754.222241 113.473551 
L 754.474812 113.473551 
L 754.495017 112.373915 
L 754.727383 112.373915 
L 754.747588 111.274278 
L 783.055748 111.274278 
L 783.075954 110.174642 
L 783.34873 110.174642 
L 783.358833 109.075006 
L 783.601301 109.075006 
L 783.63161 107.975369 
L 783.894284 107.975369 
L 783.904387 106.875733 
L 784.288295 106.875733 
L 784.298397 105.776097 
L 784.510557 105.776097 
L 784.530763 104.67646 
L 785.248065 104.67646 
L 785.26827 103.576824 
L 809.696939 103.576824 
L 809.707042 102.477187 
L 814.233115 102.477187 
L 814.243218 101.377551 
L 814.556406 101.377551 
L 814.566508 100.277915 
L 859.059419 100.277915 
L 859.069522 99.178278 
L 859.281682 99.178278 
L 859.301887 98.078642 
L 859.493841 98.078642 
L 859.514047 96.979006 
L 859.695898 96.979006 
L 859.706001 95.879369 
L 859.968675 95.879369 
L 859.98888 94.779733 
L 869.152157 94.779733 
L 869.222877 93.680097 
L 881.841325 93.680097 
L 881.861531 92.58046 
L 882.134307 92.58046 
L 882.14441 91.480824 
L 882.659655 91.480824 
L 882.669758 90.381187 
L 902.178344 90.381187 
L 902.198549 89.281551 
L 902.491532 89.281551 
L 902.52184 88.181915 
L 902.744103 88.181915 
L 902.754205 87.082278 
L 903.067394 87.082278 
L 903.087599 85.982642 
L 935.184324 85.982642 
L 935.20453 84.883006 
L 935.527821 84.883006 
L 935.548027 83.783369 
L 935.8107 83.783369 
L 935.830906 82.683733 
L 936.063271 82.683733 
L 936.083477 81.584097 
L 956.491215 81.584097 
L 956.521524 80.48446 
L 956.854918 80.48446 
L 956.865021 79.384824 
L 965.785829 79.384824 
L 965.795932 78.285187 
L 970.352313 78.285187 
L 970.372519 77.185551 
L 972.837612 77.185551 
L 973.211417 76.085915 
L 993.841418 76.085915 
L 993.861623 74.986278 
L 994.083886 74.986278 
L 994.104092 73.886642 
L 994.306148 73.886642 
L 994.316251 72.787006 
L 994.508205 72.787006 
L 994.528411 71.687369 
L 994.841599 71.687369 
L 994.861805 70.587733 
L 995.760958 70.587733 
L 1003.84323 69.488097 
L 1003.863436 68.38846 
L 1004.105904 68.38846 
L 1004.116007 67.288824 
L 1004.429195 67.288824 
L 1004.439298 66.189187 
L 1004.611046 66.189187 
L 1004.621149 65.089551 
L 1023.058833 65.089551 
L 1023.079039 63.989915 
L 1023.40233 63.989915 
L 1023.412433 62.890278 
L 1023.917575 62.890278 
L 1023.927678 61.790642 
L 1045.436626 61.790642 
L 1045.446728 60.691006 
L 1045.699299 60.691006 
L 1045.709402 59.591369 
L 1045.850842 59.591369 
L 1045.860945 58.491733 
L 1046.113516 58.491733 
L 1046.123619 57.392097 
L 1046.366087 57.392097 
L 1046.386293 56.29246 
L 1046.608555 56.29246 
L 1046.628761 55.192824 
L 1062.09621 55.192824 
L 1062.106313 54.093187 
L 1062.338678 54.093187 
L 1062.348781 52.993551 
L 1062.520529 52.993551 
L 1062.530632 51.893915 
L 1063.025671 51.893915 
L 1063.035774 50.794278 
L 1070.350231 50.794278 
L 1070.380539 49.694642 
L 1077.260574 49.694642 
L 1077.28078 48.595006 
L 1091.343934 48.595006 
L 1091.727842 47.495369 
L 1091.909693 47.495369 
L 1091.929899 46.395733 
L 1092.091544 46.395733 
L 1092.11175 45.296097 
L 1108.680409 45.296097 
L 1108.842054 43.096824 
L 1113.37823 43.096824 
L 1113.398435 41.997187 
L 1113.398435 41.997187 
" clip-path="url(#p5967f94383)" style="fill: none; stroke: #0000ff; stroke-width: 1.5; stroke-linecap: square"/>
   </g>
   <g id="patch_70">
    <path d="M 49.235 359.517187 
L 49.235 26.877187 
" style="fill: none; stroke: #000000; stroke-width: 0.8; stroke-linejoin: miter; stroke-linecap: square"/>
   </g>
   <g id="patch_71">
    <path d="M 1165.235 359.517187 
L 1165.235 26.877187 
" style="fill: none; stroke: #000000; stroke-width: 0.8; stroke-linejoin: miter; stroke-linecap: square"/>
   </g>
   <g id="patch_72">
    <path d="M 49.235 359.517187 
L 1165.235 359.517187 
" style="fill: none; stroke: #000000; stroke-width: 0.8; stroke-linejoin: miter; stroke-linecap: square"/>
   </g>
   <g id="patch_73">
    <path d="M 49.235 26.877187 
L 1165.235 26.877187 
" style="fill: none; stroke: #000000; stroke-width: 0.8; stroke-linejoin: miter; stroke-linecap: square"/>
   </g>
   <g id="text_19">
    <!-- Pellet Count and Cumulative Sum Over Time of Group 6 Mouse 4 -->
    <g transform="translate(315.460625 20.877187) scale(0.18 -0.18)">
     <defs>
      <path id="DejaVuSans-61" d="M 2194 1759 
Q 1497 1759 1228 1600 
Q 959 1441 959 1056 
Q 959 750 1161 570 
Q 1363 391 1709 391 
Q 2188 391 2477 730 
Q 2766 1069 2766 1631 
L 2766 1759 
L 2194 1759 
z
M 3341 1997 
L 3341 0 
L 2766 0 
L 2766 531 
Q 2569 213 2275 61 
Q 1981 -91 1556 -91 
Q 1019 -91 701 211 
Q 384 513 384 1019 
Q 384 1609 779 1909 
Q 1175 2209 1959 2209 
L 2766 2209 
L 2766 2266 
Q 2766 2663 2505 2880 
Q 2244 3097 1772 3097 
Q 1472 3097 1187 3025 
Q 903 2953 641 2809 
L 641 3341 
Q 956 3463 1253 3523 
Q 1550 3584 1831 3584 
Q 2591 3584 2966 3190 
Q 3341 2797 3341 1997 
z
" transform="scale(0.015625)"/>
      <path id="DejaVuSans-64" d="M 2906 2969 
L 2906 4863 
L 3481 4863 
L 3481 0 
L 2906 0 
L 2906 525 
Q 2725 213 2448 61 
Q 2172 -91 1784 -91 
Q 1150 -91 751 415 
Q 353 922 353 1747 
Q 353 2572 751 3078 
Q 1150 3584 1784 3584 
Q 2172 3584 2448 3432 
Q 2725 3281 2906 2969 
z
M 947 1747 
Q 947 1113 1208 752 
Q 1469 391 1925 391 
Q 2381 391 2643 752 
Q 2906 1113 2906 1747 
Q 2906 2381 2643 2742 
Q 2381 3103 1925 3103 
Q 1469 3103 1208 2742 
Q 947 2381 947 1747 
z
" transform="scale(0.015625)"/>
      <path id="DejaVuSans-76" d="M 191 3500 
L 800 3500 
L 1894 563 
L 2988 3500 
L 3597 3500 
L 2284 0 
L 1503 0 
L 191 3500 
z
" transform="scale(0.015625)"/>
      <path id="DejaVuSans-53" d="M 3425 4513 
L 3425 3897 
Q 3066 4069 2747 4153 
Q 2428 4238 2131 4238 
Q 1616 4238 1336 4038 
Q 1056 3838 1056 3469 
Q 1056 3159 1242 3001 
Q 1428 2844 1947 2747 
L 2328 2669 
Q 3034 2534 3370 2195 
Q 3706 1856 3706 1288 
Q 3706 609 3251 259 
Q 2797 -91 1919 -91 
Q 1588 -91 1214 -16 
Q 841 59 441 206 
L 441 856 
Q 825 641 1194 531 
Q 1563 422 1919 422 
Q 2459 422 2753 634 
Q 3047 847 3047 1241 
Q 3047 1584 2836 1778 
Q 2625 1972 2144 2069 
L 1759 2144 
Q 1053 2284 737 2584 
Q 422 2884 422 3419 
Q 422 4038 858 4394 
Q 1294 4750 2059 4750 
Q 2388 4750 2728 4690 
Q 3069 4631 3425 4513 
z
" transform="scale(0.015625)"/>
      <path id="DejaVuSans-4f" d="M 2522 4238 
Q 1834 4238 1429 3725 
Q 1025 3213 1025 2328 
Q 1025 1447 1429 934 
Q 1834 422 2522 422 
Q 3209 422 3611 934 
Q 4013 1447 4013 2328 
Q 4013 3213 3611 3725 
Q 3209 4238 2522 4238 
z
M 2522 4750 
Q 3503 4750 4090 4092 
Q 4678 3434 4678 2328 
Q 4678 1225 4090 567 
Q 3503 -91 2522 -91 
Q 1538 -91 948 565 
Q 359 1222 359 2328 
Q 359 3434 948 4092 
Q 1538 4750 2522 4750 
z
" transform="scale(0.015625)"/>
      <path id="DejaVuSans-72" d="M 2631 2963 
Q 2534 3019 2420 3045 
Q 2306 3072 2169 3072 
Q 1681 3072 1420 2755 
Q 1159 2438 1159 1844 
L 1159 0 
L 581 0 
L 581 3500 
L 1159 3500 
L 1159 2956 
Q 1341 3275 1631 3429 
Q 1922 3584 2338 3584 
Q 2397 3584 2469 3576 
Q 2541 3569 2628 3553 
L 2631 2963 
z
" transform="scale(0.015625)"/>
      <path id="DejaVuSans-66" d="M 2375 4863 
L 2375 4384 
L 1825 4384 
Q 1516 4384 1395 4259 
Q 1275 4134 1275 3809 
L 1275 3500 
L 2222 3500 
L 2222 3053 
L 1275 3053 
L 1275 0 
L 697 0 
L 697 3053 
L 147 3053 
L 147 3500 
L 697 3500 
L 697 3744 
Q 697 4328 969 4595 
Q 1241 4863 1831 4863 
L 2375 4863 
z
" transform="scale(0.015625)"/>
      <path id="DejaVuSans-47" d="M 3809 666 
L 3809 1919 
L 2778 1919 
L 2778 2438 
L 4434 2438 
L 4434 434 
Q 4069 175 3628 42 
Q 3188 -91 2688 -91 
Q 1594 -91 976 548 
Q 359 1188 359 2328 
Q 359 3472 976 4111 
Q 1594 4750 2688 4750 
Q 3144 4750 3555 4637 
Q 3966 4525 4313 4306 
L 4313 3634 
Q 3963 3931 3569 4081 
Q 3175 4231 2741 4231 
Q 1884 4231 1454 3753 
Q 1025 3275 1025 2328 
Q 1025 1384 1454 906 
Q 1884 428 2741 428 
Q 3075 428 3337 486 
Q 3600 544 3809 666 
z
" transform="scale(0.015625)"/>
      <path id="DejaVuSans-70" d="M 1159 525 
L 1159 -1331 
L 581 -1331 
L 581 3500 
L 1159 3500 
L 1159 2969 
Q 1341 3281 1617 3432 
Q 1894 3584 2278 3584 
Q 2916 3584 3314 3078 
Q 3713 2572 3713 1747 
Q 3713 922 3314 415 
Q 2916 -91 2278 -91 
Q 1894 -91 1617 61 
Q 1341 213 1159 525 
z
M 3116 1747 
Q 3116 2381 2855 2742 
Q 2594 3103 2138 3103 
Q 1681 3103 1420 2742 
Q 1159 2381 1159 1747 
Q 1159 1113 1420 752 
Q 1681 391 2138 391 
Q 2594 391 2855 752 
Q 3116 1113 3116 1747 
z
" transform="scale(0.015625)"/>
      <path id="DejaVuSans-4d" d="M 628 4666 
L 1569 4666 
L 2759 1491 
L 3956 4666 
L 4897 4666 
L 4897 0 
L 4281 0 
L 4281 4097 
L 3078 897 
L 2444 897 
L 1241 4097 
L 1241 0 
L 628 0 
L 628 4666 
z
" transform="scale(0.015625)"/>
      <path id="DejaVuSans-73" d="M 2834 3397 
L 2834 2853 
Q 2591 2978 2328 3040 
Q 2066 3103 1784 3103 
Q 1356 3103 1142 2972 
Q 928 2841 928 2578 
Q 928 2378 1081 2264 
Q 1234 2150 1697 2047 
L 1894 2003 
Q 2506 1872 2764 1633 
Q 3022 1394 3022 966 
Q 3022 478 2636 193 
Q 2250 -91 1575 -91 
Q 1294 -91 989 -36 
Q 684 19 347 128 
L 347 722 
Q 666 556 975 473 
Q 1284 391 1588 391 
Q 1994 391 2212 530 
Q 2431 669 2431 922 
Q 2431 1156 2273 1281 
Q 2116 1406 1581 1522 
L 1381 1569 
Q 847 1681 609 1914 
Q 372 2147 372 2553 
Q 372 3047 722 3315 
Q 1072 3584 1716 3584 
Q 2034 3584 2315 3537 
Q 2597 3491 2834 3397 
z
" transform="scale(0.015625)"/>
      <path id="DejaVuSans-34" d="M 2419 4116 
L 825 1625 
L 2419 1625 
L 2419 4116 
z
M 2253 4666 
L 3047 4666 
L 3047 1625 
L 3713 1625 
L 3713 1100 
L 3047 1100 
L 3047 0 
L 2419 0 
L 2419 1100 
L 313 1100 
L 313 1709 
L 2253 4666 
z
" transform="scale(0.015625)"/>
     </defs>
     <use xlink:href="#DejaVuSans-50"/>
     <use xlink:href="#DejaVuSans-65" x="56.677734"/>
     <use xlink:href="#DejaVuSans-6c" x="118.201172"/>
     <use xlink:href="#DejaVuSans-6c" x="145.984375"/>
     <use xlink:href="#DejaVuSans-65" x="173.767578"/>
     <use xlink:href="#DejaVuSans-74" x="235.291016"/>
     <use xlink:href="#DejaVuSans-20" x="274.5"/>
     <use xlink:href="#DejaVuSans-43" x="306.287109"/>
     <use xlink:href="#DejaVuSans-6f" x="376.111328"/>
     <use xlink:href="#DejaVuSans-75" x="437.292969"/>
     <use xlink:href="#DejaVuSans-6e" x="500.671875"/>
     <use xlink:href="#DejaVuSans-74" x="564.050781"/>
     <use xlink:href="#DejaVuSans-20" x="603.259766"/>
     <use xlink:href="#DejaVuSans-61" x="635.046875"/>
     <use xlink:href="#DejaVuSans-6e" x="696.326172"/>
     <use xlink:href="#DejaVuSans-64" x="759.705078"/>
     <use xlink:href="#DejaVuSans-20" x="823.181641"/>
     <use xlink:href="#DejaVuSans-43" x="854.96875"/>
     <use xlink:href="#DejaVuSans-75" x="924.792969"/>
     <use xlink:href="#DejaVuSans-6d" x="988.171875"/>
     <use xlink:href="#DejaVuSans-75" x="1085.583984"/>
     <use xlink:href="#DejaVuSans-6c" x="1148.962891"/>
     <use xlink:href="#DejaVuSans-61" x="1176.746094"/>
     <use xlink:href="#DejaVuSans-74" x="1238.025391"/>
     <use xlink:href="#DejaVuSans-69" x="1277.234375"/>
     <use xlink:href="#DejaVuSans-76" x="1305.017578"/>
     <use xlink:href="#DejaVuSans-65" x="1364.197266"/>
     <use xlink:href="#DejaVuSans-20" x="1425.720703"/>
     <use xlink:href="#DejaVuSans-53" x="1457.507812"/>
     <use xlink:href="#DejaVuSans-75" x="1520.984375"/>
     <use xlink:href="#DejaVuSans-6d" x="1584.363281"/>
     <use xlink:href="#DejaVuSans-20" x="1681.775391"/>
     <use xlink:href="#DejaVuSans-4f" x="1713.5625"/>
     <use xlink:href="#DejaVuSans-76" x="1792.273438"/>
     <use xlink:href="#DejaVuSans-65" x="1851.453125"/>
     <use xlink:href="#DejaVuSans-72" x="1912.976562"/>
     <use xlink:href="#DejaVuSans-20" x="1954.089844"/>
     <use xlink:href="#DejaVuSans-54" x="1985.876953"/>
     <use xlink:href="#DejaVuSans-69" x="2043.835938"/>
     <use xlink:href="#DejaVuSans-6d" x="2071.619141"/>
     <use xlink:href="#DejaVuSans-65" x="2169.03125"/>
     <use xlink:href="#DejaVuSans-20" x="2230.554688"/>
     <use xlink:href="#DejaVuSans-6f" x="2262.341797"/>
     <use xlink:href="#DejaVuSans-66" x="2323.523438"/>
     <use xlink:href="#DejaVuSans-20" x="2358.728516"/>
     <use xlink:href="#DejaVuSans-47" x="2390.515625"/>
     <use xlink:href="#DejaVuSans-72" x="2468.005859"/>
     <use xlink:href="#DejaVuSans-6f" x="2506.869141"/>
     <use xlink:href="#DejaVuSans-75" x="2568.050781"/>
     <use xlink:href="#DejaVuSans-70" x="2631.429688"/>
     <use xlink:href="#DejaVuSans-20" x="2694.90625"/>
     <use xlink:href="#DejaVuSans-36" x="2726.693359"/>
     <use xlink:href="#DejaVuSans-20" x="2790.316406"/>
     <use xlink:href="#DejaVuSans-4d" x="2822.103516"/>
     <use xlink:href="#DejaVuSans-6f" x="2908.382812"/>
     <use xlink:href="#DejaVuSans-75" x="2969.564453"/>
     <use xlink:href="#DejaVuSans-73" x="3032.943359"/>
     <use xlink:href="#DejaVuSans-65" x="3085.042969"/>
     <use xlink:href="#DejaVuSans-20" x="3146.566406"/>
     <use xlink:href="#DejaVuSans-34" x="3178.353516"/>
    </g>
   </g>
   <g id="legend_1">
    <g id="patch_74">
     <path d="M 1086.550625 64.233437 
L 1158.235 64.233437 
Q 1160.235 64.233437 1160.235 62.233437 
L 1160.235 33.877187 
Q 1160.235 31.877187 1158.235 31.877187 
L 1086.550625 31.877187 
Q 1084.550625 31.877187 1084.550625 33.877187 
L 1084.550625 62.233437 
Q 1084.550625 64.233437 1086.550625 64.233437 
z
" style="fill: #ffffff; opacity: 0.8; stroke: #cccccc; stroke-linejoin: miter"/>
    </g>
    <g id="patch_75">
     <path d="M 1088.550625 43.475625 
L 1108.550625 43.475625 
L 1108.550625 36.475625 
L 1088.550625 36.475625 
z
" style="fill: #add8e6; opacity: 0.9; stroke: #add8e6; stroke-linejoin: miter"/>
    </g>
    <g id="text_20">
     <!-- Meal -->
     <g transform="translate(1116.550625 43.475625) scale(0.1 -0.1)">
      <use xlink:href="#DejaVuSans-4d"/>
      <use xlink:href="#DejaVuSans-65" x="86.279297"/>
      <use xlink:href="#DejaVuSans-61" x="147.802734"/>
      <use xlink:href="#DejaVuSans-6c" x="209.082031"/>
     </g>
    </g>
    <g id="patch_76">
     <path d="M 1088.550625 58.15375 
L 1108.550625 58.15375 
L 1108.550625 51.15375 
L 1088.550625 51.15375 
z
" style="fill: #808080; opacity: 0.5; stroke: #808080; stroke-linejoin: miter"/>
    </g>
    <g id="text_21">
     <!-- Inactive -->
     <g transform="translate(1116.550625 58.15375) scale(0.1 -0.1)">
      <defs>
       <path id="DejaVuSans-49" d="M 628 4666 
L 1259 4666 
L 1259 0 
L 628 0 
L 628 4666 
z
" transform="scale(0.015625)"/>
       <path id="DejaVuSans-63" d="M 3122 3366 
L 3122 2828 
Q 2878 2963 2633 3030 
Q 2388 3097 2138 3097 
Q 1578 3097 1268 2742 
Q 959 2388 959 1747 
Q 959 1106 1268 751 
Q 1578 397 2138 397 
Q 2388 397 2633 464 
Q 2878 531 3122 666 
L 3122 134 
Q 2881 22 2623 -34 
Q 2366 -91 2075 -91 
Q 1284 -91 818 406 
Q 353 903 353 1747 
Q 353 2603 823 3093 
Q 1294 3584 2113 3584 
Q 2378 3584 2631 3529 
Q 2884 3475 3122 3366 
z
" transform="scale(0.015625)"/>
      </defs>
      <use xlink:href="#DejaVuSans-49"/>
      <use xlink:href="#DejaVuSans-6e" x="29.492188"/>
      <use xlink:href="#DejaVuSans-61" x="92.871094"/>
      <use xlink:href="#DejaVuSans-63" x="154.150391"/>
      <use xlink:href="#DejaVuSans-74" x="209.130859"/>
      <use xlink:href="#DejaVuSans-69" x="248.339844"/>
      <use xlink:href="#DejaVuSans-76" x="276.123047"/>
      <use xlink:href="#DejaVuSans-65" x="335.302734"/>
     </g>
    </g>
   </g>
  </g>
 </g>
 <defs>
  <clipPath id="p5967f94383">
   <rect x="49.235" y="26.877187" width="1116" height="332.64"/>
  </clipPath>
 </defs>
</svg>
