<?xml version="1.0" encoding="utf-8" standalone="no"?>
<!DOCTYPE svg PUBLIC "-//W3C//DTD SVG 1.1//EN"
  "http://www.w3.org/Graphics/SVG/1.1/DTD/svg11.dtd">
<svg xmlns:xlink="http://www.w3.org/1999/xlink" width="1172.435pt" height="399.009062pt" viewBox="0 0 1172.435 399.009062" xmlns="http://www.w3.org/2000/svg" version="1.1">
 <metadata>
  <rdf:RDF xmlns:dc="http://purl.org/dc/elements/1.1/" xmlns:cc="http://creativecommons.org/ns#" xmlns:rdf="http://www.w3.org/1999/02/22-rdf-syntax-ns#">
   <cc:Work>
    <dc:type rdf:resource="http://purl.org/dc/dcmitype/StillImage"/>
    <dc:date>2025-07-28T22:15:38.663564</dc:date>
    <dc:format>image/svg+xml</dc:format>
    <dc:creator>
     <cc:Agent>
      <dc:title>Matplotlib v3.8.4, https://matplotlib.org/</dc:title>
     </cc:Agent>
    </dc:creator>
   </cc:Work>
  </rdf:RDF>
 </metadata>
 <defs>
  <style type="text/css">*{stroke-linejoin: round; stroke-linecap: butt}</style>
 </defs>
 <g id="figure_1">
  <g id="patch_1">
   <path d="M 0 399.009062 
L 1172.435 399.009062 
L 1172.435 0 
L 0 0 
z
" style="fill: #ffffff"/>
  </g>
  <g id="axes_1">
   <g id="patch_2">
    <path d="M 49.235 359.517187 
L 1165.235 359.517187 
L 1165.235 26.877187 
L 49.235 26.877187 
z
" style="fill: #ffffff"/>
   </g>
   <g id="patch_3">
    <path d="M 182.893336 359.517187 
L 182.893336 26.877187 
L 163.621275 26.877187 
L 163.621275 359.517187 
z
" clip-path="url(#pda6c6621f0)" style="fill: #add8e6; stroke: #add8e6; stroke-linejoin: miter"/>
   </g>
   <g id="patch_4">
    <path d="M 194.650854 359.517187 
L 194.650854 26.877187 
L 166.360931 26.877187 
L 166.360931 359.517187 
z
" clip-path="url(#pda6c6621f0)" style="fill: #add8e6; stroke: #add8e6; stroke-linejoin: miter"/>
   </g>
   <g id="patch_5">
    <path d="M 206.110584 359.517187 
L 206.110584 26.877187 
L 178.050676 26.877187 
L 178.050676 359.517187 
z
" clip-path="url(#pda6c6621f0)" style="fill: #add8e6; stroke: #add8e6; stroke-linejoin: miter"/>
   </g>
   <g id="patch_6">
    <path d="M 213.403325 359.517187 
L 213.403325 26.877187 
L 209.472515 26.877187 
L 209.472515 359.517187 
z
" clip-path="url(#pda6c6621f0)" style="fill: #add8e6; stroke: #add8e6; stroke-linejoin: miter"/>
   </g>
   <g id="patch_7">
    <path d="M 258.223601 359.517187 
L 258.223601 26.877187 
L 227.686913 26.877187 
L 227.686913 359.517187 
z
" clip-path="url(#pda6c6621f0)" style="fill: #add8e6; stroke: #add8e6; stroke-linejoin: miter"/>
   </g>
   <g id="patch_8">
    <path d="M 230.04047 359.517187 
L 230.04047 26.877187 
L 229.773487 26.877187 
L 229.773487 359.517187 
z
" clip-path="url(#pda6c6621f0)" style="fill: #add8e6; stroke: #add8e6; stroke-linejoin: miter"/>
   </g>
   <g id="patch_9">
    <path d="M 240.487718 359.517187 
L 240.487718 26.877187 
L 232.704139 26.877187 
L 232.704139 359.517187 
z
" clip-path="url(#pda6c6621f0)" style="fill: #add8e6; stroke: #add8e6; stroke-linejoin: miter"/>
   </g>
   <g id="patch_10">
    <path d="M 234.614094 359.517187 
L 234.614094 26.877187 
L 234.907775 26.877187 
L 234.907775 359.517187 
z
" clip-path="url(#pda6c6621f0)" style="fill: #add8e6; stroke: #add8e6; stroke-linejoin: miter"/>
   </g>
   <g id="patch_11">
    <path d="M 237.587873 359.517187 
L 237.587873 26.877187 
L 239.052172 26.877187 
L 239.052172 359.517187 
z
" clip-path="url(#pda6c6621f0)" style="fill: #add8e6; stroke: #add8e6; stroke-linejoin: miter"/>
   </g>
   <g id="patch_12">
    <path d="M 285.075924 359.517187 
L 285.075924 26.877187 
L 253.764985 26.877187 
L 253.764985 359.517187 
z
" clip-path="url(#pda6c6621f0)" style="fill: #add8e6; stroke: #add8e6; stroke-linejoin: miter"/>
   </g>
   <g id="patch_13">
    <path d="M 286.68809 359.517187 
L 286.68809 26.877187 
L 258.268782 26.877187 
L 258.268782 359.517187 
z
" clip-path="url(#pda6c6621f0)" style="fill: #add8e6; stroke: #add8e6; stroke-linejoin: miter"/>
   </g>
   <g id="patch_14">
    <path d="M 271.683648 359.517187 
L 271.683648 26.877187 
L 269.97085 26.877187 
L 269.97085 359.517187 
z
" clip-path="url(#pda6c6621f0)" style="fill: #add8e6; stroke: #add8e6; stroke-linejoin: miter"/>
   </g>
   <g id="patch_15">
    <path d="M 287.856654 359.517187 
L 287.856654 26.877187 
L 272.948737 26.877187 
L 272.948737 359.517187 
z
" clip-path="url(#pda6c6621f0)" style="fill: #add8e6; stroke: #add8e6; stroke-linejoin: miter"/>
   </g>
   <g id="patch_16">
    <path d="M 333.923534 359.517187 
L 333.923534 26.877187 
L 303.557304 26.877187 
L 303.557304 359.517187 
z
" clip-path="url(#pda6c6621f0)" style="fill: #add8e6; stroke: #add8e6; stroke-linejoin: miter"/>
   </g>
   <g id="patch_17">
    <path d="M 328.357966 359.517187 
L 328.357966 26.877187 
L 304.423972 26.877187 
L 304.423972 359.517187 
z
" clip-path="url(#pda6c6621f0)" style="fill: #add8e6; stroke: #add8e6; stroke-linejoin: miter"/>
   </g>
   <g id="patch_18">
    <path d="M 340.585785 359.517187 
L 340.585785 26.877187 
L 310.125085 26.877187 
L 310.125085 359.517187 
z
" clip-path="url(#pda6c6621f0)" style="fill: #add8e6; stroke: #add8e6; stroke-linejoin: miter"/>
   </g>
   <g id="patch_19">
    <path d="M 334.60126 359.517187 
L 334.60126 26.877187 
L 319.732363 26.877187 
L 319.732363 359.517187 
z
" clip-path="url(#pda6c6621f0)" style="fill: #add8e6; stroke: #add8e6; stroke-linejoin: miter"/>
   </g>
   <g id="patch_20">
    <path d="M 361.874594 359.517187 
L 361.874594 26.877187 
L 330.598569 26.877187 
L 330.598569 359.517187 
z
" clip-path="url(#pda6c6621f0)" style="fill: #add8e6; stroke: #add8e6; stroke-linejoin: miter"/>
   </g>
   <g id="patch_21">
    <path d="M 379.598154 359.517187 
L 379.598154 26.877187 
L 359.001447 26.877187 
L 359.001447 359.517187 
z
" clip-path="url(#pda6c6621f0)" style="fill: #add8e6; stroke: #add8e6; stroke-linejoin: miter"/>
   </g>
   <g id="patch_22">
    <path d="M 393.214284 359.517187 
L 393.214284 26.877187 
L 371.305253 26.877187 
L 371.305253 359.517187 
z
" clip-path="url(#pda6c6621f0)" style="fill: #add8e6; stroke: #add8e6; stroke-linejoin: miter"/>
   </g>
   <g id="patch_23">
    <path d="M 398.019977 359.517187 
L 398.019977 26.877187 
L 366.080602 26.877187 
L 366.080602 359.517187 
z
" clip-path="url(#pda6c6621f0)" style="fill: #add8e6; stroke: #add8e6; stroke-linejoin: miter"/>
   </g>
   <g id="patch_24">
    <path d="M 378.901945 359.517187 
L 378.901945 26.877187 
L 376.176665 26.877187 
L 376.176665 359.517187 
z
" clip-path="url(#pda6c6621f0)" style="fill: #add8e6; stroke: #add8e6; stroke-linejoin: miter"/>
   </g>
   <g id="patch_25">
    <path d="M 377.916162 359.517187 
L 377.916162 26.877187 
L 378.770507 26.877187 
L 378.770507 359.517187 
z
" clip-path="url(#pda6c6621f0)" style="fill: #add8e6; stroke: #add8e6; stroke-linejoin: miter"/>
   </g>
   <g id="patch_26">
    <path d="M 414.254594 359.517187 
L 414.254594 26.877187 
L 387.98758 26.877187 
L 387.98758 359.517187 
z
" clip-path="url(#pda6c6621f0)" style="fill: #add8e6; stroke: #add8e6; stroke-linejoin: miter"/>
   </g>
   <g id="patch_27">
    <path d="M 392.152514 359.517187 
L 392.152514 26.877187 
L 386.646504 26.877187 
L 386.646504 359.517187 
z
" clip-path="url(#pda6c6621f0)" style="fill: #add8e6; stroke: #add8e6; stroke-linejoin: miter"/>
   </g>
   <g id="patch_28">
    <path d="M 390.924392 359.517187 
L 390.924392 26.877187 
L 389.195164 26.877187 
L 389.195164 359.517187 
z
" clip-path="url(#pda6c6621f0)" style="fill: #add8e6; stroke: #add8e6; stroke-linejoin: miter"/>
   </g>
   <g id="patch_29">
    <path d="M 398.161684 359.517187 
L 398.161684 26.877187 
L 394.150778 26.877187 
L 394.150778 359.517187 
z
" clip-path="url(#pda6c6621f0)" style="fill: #add8e6; stroke: #add8e6; stroke-linejoin: miter"/>
   </g>
   <g id="patch_30">
    <path d="M 395.366578 359.517187 
L 395.366578 26.877187 
L 394.378741 26.877187 
L 394.378741 359.517187 
z
" clip-path="url(#pda6c6621f0)" style="fill: #add8e6; stroke: #add8e6; stroke-linejoin: miter"/>
   </g>
   <g id="patch_31">
    <path d="M 436.204699 359.517187 
L 436.204699 26.877187 
L 411.457434 26.877187 
L 411.457434 359.517187 
z
" clip-path="url(#pda6c6621f0)" style="fill: #add8e6; stroke: #add8e6; stroke-linejoin: miter"/>
   </g>
   <g id="patch_32">
    <path d="M 445.699024 359.517187 
L 445.699024 26.877187 
L 435.752882 26.877187 
L 435.752882 359.517187 
z
" clip-path="url(#pda6c6621f0)" style="fill: #add8e6; stroke: #add8e6; stroke-linejoin: miter"/>
   </g>
   <g id="patch_33">
    <path d="M 438.964892 359.517187 
L 438.964892 26.877187 
L 437.894907 26.877187 
L 437.894907 359.517187 
z
" clip-path="url(#pda6c6621f0)" style="fill: #add8e6; stroke: #add8e6; stroke-linejoin: miter"/>
   </g>
   <g id="patch_34">
    <path d="M 466.511371 359.517187 
L 466.511371 26.877187 
L 446.606766 26.877187 
L 446.606766 359.517187 
z
" clip-path="url(#pda6c6621f0)" style="fill: #add8e6; stroke: #add8e6; stroke-linejoin: miter"/>
   </g>
   <g id="patch_35">
    <path d="M 476.457512 359.517187 
L 476.457512 26.877187 
L 464.422743 26.877187 
L 464.422743 359.517187 
z
" clip-path="url(#pda6c6621f0)" style="fill: #add8e6; stroke: #add8e6; stroke-linejoin: miter"/>
   </g>
   <g id="patch_36">
    <path d="M 490.572695 359.517187 
L 490.572695 26.877187 
L 477.734923 26.877187 
L 477.734923 359.517187 
z
" clip-path="url(#pda6c6621f0)" style="fill: #add8e6; stroke: #add8e6; stroke-linejoin: miter"/>
   </g>
   <g id="patch_37">
    <path d="M 484.616922 359.517187 
L 484.616922 26.877187 
L 480.753884 26.877187 
L 480.753884 359.517187 
z
" clip-path="url(#pda6c6621f0)" style="fill: #add8e6; stroke: #add8e6; stroke-linejoin: miter"/>
   </g>
   <g id="patch_38">
    <path d="M 528.62598 359.517187 
L 528.62598 26.877187 
L 495.589921 26.877187 
L 495.589921 359.517187 
z
" clip-path="url(#pda6c6621f0)" style="fill: #add8e6; stroke: #add8e6; stroke-linejoin: miter"/>
   </g>
   <g id="patch_39">
    <path d="M 541.307669 359.517187 
L 541.307669 26.877187 
L 518.306062 26.877187 
L 518.306062 359.517187 
z
" clip-path="url(#pda6c6621f0)" style="fill: #add8e6; stroke: #add8e6; stroke-linejoin: miter"/>
   </g>
   <g id="patch_40">
    <path d="M 583.326677 359.517187 
L 583.326677 26.877187 
L 550.378928 26.877187 
L 550.378928 359.517187 
z
" clip-path="url(#pda6c6621f0)" style="fill: #add8e6; stroke: #add8e6; stroke-linejoin: miter"/>
   </g>
   <g id="patch_41">
    <path d="M 552.783829 359.517187 
L 552.783829 26.877187 
L 551.549546 26.877187 
L 551.549546 359.517187 
z
" clip-path="url(#pda6c6621f0)" style="fill: #add8e6; stroke: #add8e6; stroke-linejoin: miter"/>
   </g>
   <g id="patch_42">
    <path d="M 584.610249 359.517187 
L 584.610249 26.877187 
L 583.835999 26.877187 
L 583.835999 359.517187 
z
" clip-path="url(#pda6c6621f0)" style="fill: #add8e6; stroke: #add8e6; stroke-linejoin: miter"/>
   </g>
   <g id="patch_43">
    <path d="M 587.631264 359.517187 
L 587.631264 26.877187 
L 588.081028 26.877187 
L 588.081028 359.517187 
z
" clip-path="url(#pda6c6621f0)" style="fill: #add8e6; stroke: #add8e6; stroke-linejoin: miter"/>
   </g>
   <g id="patch_44">
    <path d="M 623.018826 359.517187 
L 623.018826 26.877187 
L 598.994469 26.877187 
L 598.994469 359.517187 
z
" clip-path="url(#pda6c6621f0)" style="fill: #add8e6; stroke: #add8e6; stroke-linejoin: miter"/>
   </g>
   <g id="patch_45">
    <path d="M 665.990758 359.517187 
L 665.990758 26.877187 
L 666.45079 26.877187 
L 666.45079 359.517187 
z
" clip-path="url(#pda6c6621f0)" style="fill: #add8e6; stroke: #add8e6; stroke-linejoin: miter"/>
   </g>
   <g id="patch_46">
    <path d="M 671.650796 359.517187 
L 671.650796 26.877187 
L 671.578916 26.877187 
L 671.578916 359.517187 
z
" clip-path="url(#pda6c6621f0)" style="fill: #add8e6; stroke: #add8e6; stroke-linejoin: miter"/>
   </g>
   <g id="patch_47">
    <path d="M 682.796307 359.517187 
L 682.796307 26.877187 
L 682.730588 26.877187 
L 682.730588 359.517187 
z
" clip-path="url(#pda6c6621f0)" style="fill: #add8e6; stroke: #add8e6; stroke-linejoin: miter"/>
   </g>
   <g id="patch_48">
    <path d="M 726.626692 359.517187 
L 726.626692 26.877187 
L 726.967609 26.877187 
L 726.967609 359.517187 
z
" clip-path="url(#pda6c6621f0)" style="fill: #add8e6; stroke: #add8e6; stroke-linejoin: miter"/>
   </g>
   <g id="patch_49">
    <path d="M 773.905264 359.517187 
L 773.905264 26.877187 
L 773.925801 26.877187 
L 773.925801 359.517187 
z
" clip-path="url(#pda6c6621f0)" style="fill: #add8e6; stroke: #add8e6; stroke-linejoin: miter"/>
   </g>
   <g id="patch_50">
    <path d="M 786.780003 359.517187 
L 786.780003 26.877187 
L 787.576844 26.877187 
L 787.576844 359.517187 
z
" clip-path="url(#pda6c6621f0)" style="fill: #add8e6; stroke: #add8e6; stroke-linejoin: miter"/>
   </g>
   <g id="patch_51">
    <path d="M 803.28571 359.517187 
L 803.28571 26.877187 
L 802.408774 26.877187 
L 802.408774 359.517187 
z
" clip-path="url(#pda6c6621f0)" style="fill: #add8e6; stroke: #add8e6; stroke-linejoin: miter"/>
   </g>
   <g id="patch_52">
    <path d="M 893.556751 359.517187 
L 893.556751 26.877187 
L 894.255014 26.877187 
L 894.255014 359.517187 
z
" clip-path="url(#pda6c6621f0)" style="fill: #add8e6; stroke: #add8e6; stroke-linejoin: miter"/>
   </g>
   <g id="patch_53">
    <path d="M 947.101207 359.517187 
L 947.101207 26.877187 
L 947.068347 26.877187 
L 947.068347 359.517187 
z
" clip-path="url(#pda6c6621f0)" style="fill: #add8e6; stroke: #add8e6; stroke-linejoin: miter"/>
   </g>
   <g id="patch_54">
    <path d="M 947.735805 359.517187 
L 947.735805 26.877187 
L 948.14244 26.877187 
L 948.14244 359.517187 
z
" clip-path="url(#pda6c6621f0)" style="fill: #add8e6; stroke: #add8e6; stroke-linejoin: miter"/>
   </g>
   <g id="patch_55">
    <path d="M 987.427954 359.517187 
L 987.427954 26.877187 
L 987.775031 26.877187 
L 987.775031 359.517187 
z
" clip-path="url(#pda6c6621f0)" style="fill: #add8e6; stroke: #add8e6; stroke-linejoin: miter"/>
   </g>
   <g id="patch_56">
    <path d="M 989.356392 359.517187 
L 989.356392 26.877187 
L 989.648019 26.877187 
L 989.648019 359.517187 
z
" clip-path="url(#pda6c6621f0)" style="fill: #add8e6; stroke: #add8e6; stroke-linejoin: miter"/>
   </g>
   <g id="patch_57">
    <path d="M 1042.948084 359.517187 
L 1042.948084 26.877187 
L 1043.512855 26.877187 
L 1043.512855 359.517187 
z
" clip-path="url(#pda6c6621f0)" style="fill: #add8e6; stroke: #add8e6; stroke-linejoin: miter"/>
   </g>
   <g id="patch_58">
    <path d="M 1044.408275 359.517187 
L 1044.408275 26.877187 
L 1044.317911 26.877187 
L 1044.317911 359.517187 
z
" clip-path="url(#pda6c6621f0)" style="fill: #add8e6; stroke: #add8e6; stroke-linejoin: miter"/>
   </g>
   <g id="patch_59">
    <path d="M 1066.824574 359.517187 
L 1066.824574 26.877187 
L 1055.492174 26.877187 
L 1055.492174 359.517187 
z
" clip-path="url(#pda6c6621f0)" style="fill: #add8e6; stroke: #add8e6; stroke-linejoin: miter"/>
   </g>
   <g id="patch_60">
    <path d="M 1093.904859 359.517187 
L 1093.904859 26.877187 
L 1093.968524 26.877187 
L 1093.968524 359.517187 
z
" clip-path="url(#pda6c6621f0)" style="fill: #add8e6; stroke: #add8e6; stroke-linejoin: miter"/>
   </g>
   <g id="patch_61">
    <path d="M 1095.172001 359.517187 
L 1095.172001 26.877187 
L 1095.816868 26.877187 
L 1095.816868 359.517187 
z
" clip-path="url(#pda6c6621f0)" style="fill: #add8e6; stroke: #add8e6; stroke-linejoin: miter"/>
   </g>
   <g id="patch_62">
    <path d="M 1107.660642 359.517187 
L 1107.660642 26.877187 
L 1108.081653 26.877187 
L 1108.081653 359.517187 
z
" clip-path="url(#pda6c6621f0)" style="fill: #add8e6; stroke: #add8e6; stroke-linejoin: miter"/>
   </g>
   <g id="patch_63">
    <path d="M 99.962273 359.517187 
L 99.962273 26.877187 
L 136.929142 26.877187 
L 136.929142 359.517187 
z
" clip-path="url(#pda6c6621f0)" style="fill: #808080; opacity: 0.4; stroke: #808080; stroke-linejoin: miter"/>
   </g>
   <g id="patch_64">
    <path d="M 149.251432 26.877187 
L 149.251432 26.877187 
L 149.251432 359.517187 
" clip-path="url(#pda6c6621f0)" style="fill: #808080; opacity: 0.4; stroke: #808080; stroke-linejoin: miter"/>
   </g>
   <g id="patch_65">
    <path d="M 161.573721 26.877187 
L 161.573721 26.877187 
L 161.573721 359.517187 
" clip-path="url(#pda6c6621f0)" style="fill: #808080; opacity: 0.4; stroke: #808080; stroke-linejoin: miter"/>
   </g>
   <g id="patch_66">
    <path d="M 580.531571 359.517187 
L 580.531571 26.877187 
L 1024.134001 26.877187 
L 1024.134001 359.517187 
z
" clip-path="url(#pda6c6621f0)" style="fill: #808080; opacity: 0.4; stroke: #808080; stroke-linejoin: miter"/>
   </g>
   <g id="patch_67">
    <path d="M 1036.456291 26.877187 
L 1036.456291 26.877187 
L 1036.456291 359.517187 
" clip-path="url(#pda6c6621f0)" style="fill: #808080; opacity: 0.4; stroke: #808080; stroke-linejoin: miter"/>
   </g>
   <g id="patch_68">
    <path d="M 1048.77858 26.877187 
L 1048.77858 26.877187 
L 1048.77858 359.517187 
" clip-path="url(#pda6c6621f0)" style="fill: #808080; opacity: 0.4; stroke: #808080; stroke-linejoin: miter"/>
   </g>
   <g id="matplotlib.axis_1">
    <g id="xtick_1">
     <g id="line2d_1">
      <defs>
       <path id="md9bd69b509" d="M 0 0 
L 0 3.5 
" style="stroke: #000000; stroke-width: 0.8"/>
      </defs>
      <g>
       <use xlink:href="#md9bd69b509" x="88.492275" y="359.517187" style="stroke: #000000; stroke-width: 0.8"/>
      </g>
     </g>
     <g id="text_1">
      <!-- 12-12 06 -->
      <g transform="translate(66.011806 374.115625) scale(0.1 -0.1)">
       <defs>
        <path id="DejaVuSans-31" d="M 794 531 
L 1825 531 
L 1825 4091 
L 703 3866 
L 703 4441 
L 1819 4666 
L 2450 4666 
L 2450 531 
L 3481 531 
L 3481 0 
L 794 0 
L 794 531 
z
" transform="scale(0.015625)"/>
        <path id="DejaVuSans-32" d="M 1228 531 
L 3431 531 
L 3431 0 
L 469 0 
L 469 531 
Q 828 903 1448 1529 
Q 2069 2156 2228 2338 
Q 2531 2678 2651 2914 
Q 2772 3150 2772 3378 
Q 2772 3750 2511 3984 
Q 2250 4219 1831 4219 
Q 1534 4219 1204 4116 
Q 875 4013 500 3803 
L 500 4441 
Q 881 4594 1212 4672 
Q 1544 4750 1819 4750 
Q 2544 4750 2975 4387 
Q 3406 4025 3406 3419 
Q 3406 3131 3298 2873 
Q 3191 2616 2906 2266 
Q 2828 2175 2409 1742 
Q 1991 1309 1228 531 
z
" transform="scale(0.015625)"/>
        <path id="DejaVuSans-2d" d="M 313 2009 
L 1997 2009 
L 1997 1497 
L 313 1497 
L 313 2009 
z
" transform="scale(0.015625)"/>
        <path id="DejaVuSans-20" transform="scale(0.015625)"/>
        <path id="DejaVuSans-30" d="M 2034 4250 
Q 1547 4250 1301 3770 
Q 1056 3291 1056 2328 
Q 1056 1369 1301 889 
Q 1547 409 2034 409 
Q 2525 409 2770 889 
Q 3016 1369 3016 2328 
Q 3016 3291 2770 3770 
Q 2525 4250 2034 4250 
z
M 2034 4750 
Q 2819 4750 3233 4129 
Q 3647 3509 3647 2328 
Q 3647 1150 3233 529 
Q 2819 -91 2034 -91 
Q 1250 -91 836 529 
Q 422 1150 422 2328 
Q 422 3509 836 4129 
Q 1250 4750 2034 4750 
z
" transform="scale(0.015625)"/>
        <path id="DejaVuSans-36" d="M 2113 2584 
Q 1688 2584 1439 2293 
Q 1191 2003 1191 1497 
Q 1191 994 1439 701 
Q 1688 409 2113 409 
Q 2538 409 2786 701 
Q 3034 994 3034 1497 
Q 3034 2003 2786 2293 
Q 2538 2584 2113 2584 
z
M 3366 4563 
L 3366 3988 
Q 3128 4100 2886 4159 
Q 2644 4219 2406 4219 
Q 1781 4219 1451 3797 
Q 1122 3375 1075 2522 
Q 1259 2794 1537 2939 
Q 1816 3084 2150 3084 
Q 2853 3084 3261 2657 
Q 3669 2231 3669 1497 
Q 3669 778 3244 343 
Q 2819 -91 2113 -91 
Q 1303 -91 875 529 
Q 447 1150 447 2328 
Q 447 3434 972 4092 
Q 1497 4750 2381 4750 
Q 2619 4750 2861 4703 
Q 3103 4656 3366 4563 
z
" transform="scale(0.015625)"/>
       </defs>
       <use xlink:href="#DejaVuSans-31"/>
       <use xlink:href="#DejaVuSans-32" x="63.623047"/>
       <use xlink:href="#DejaVuSans-2d" x="127.246094"/>
       <use xlink:href="#DejaVuSans-31" x="163.330078"/>
       <use xlink:href="#DejaVuSans-32" x="226.953125"/>
       <use xlink:href="#DejaVuSans-20" x="290.576172"/>
       <use xlink:href="#DejaVuSans-30" x="322.363281"/>
       <use xlink:href="#DejaVuSans-36" x="385.986328"/>
      </g>
     </g>
    </g>
    <g id="xtick_2">
     <g id="line2d_2">
      <g>
       <use xlink:href="#md9bd69b509" x="199.392882" y="359.517187" style="stroke: #000000; stroke-width: 0.8"/>
      </g>
     </g>
     <g id="text_2">
      <!-- 12-12 09 -->
      <g transform="translate(176.912413 374.115625) scale(0.1 -0.1)">
       <defs>
        <path id="DejaVuSans-39" d="M 703 97 
L 703 672 
Q 941 559 1184 500 
Q 1428 441 1663 441 
Q 2288 441 2617 861 
Q 2947 1281 2994 2138 
Q 2813 1869 2534 1725 
Q 2256 1581 1919 1581 
Q 1219 1581 811 2004 
Q 403 2428 403 3163 
Q 403 3881 828 4315 
Q 1253 4750 1959 4750 
Q 2769 4750 3195 4129 
Q 3622 3509 3622 2328 
Q 3622 1225 3098 567 
Q 2575 -91 1691 -91 
Q 1453 -91 1209 -44 
Q 966 3 703 97 
z
M 1959 2075 
Q 2384 2075 2632 2365 
Q 2881 2656 2881 3163 
Q 2881 3666 2632 3958 
Q 2384 4250 1959 4250 
Q 1534 4250 1286 3958 
Q 1038 3666 1038 3163 
Q 1038 2656 1286 2365 
Q 1534 2075 1959 2075 
z
" transform="scale(0.015625)"/>
       </defs>
       <use xlink:href="#DejaVuSans-31"/>
       <use xlink:href="#DejaVuSans-32" x="63.623047"/>
       <use xlink:href="#DejaVuSans-2d" x="127.246094"/>
       <use xlink:href="#DejaVuSans-31" x="163.330078"/>
       <use xlink:href="#DejaVuSans-32" x="226.953125"/>
       <use xlink:href="#DejaVuSans-20" x="290.576172"/>
       <use xlink:href="#DejaVuSans-30" x="322.363281"/>
       <use xlink:href="#DejaVuSans-39" x="385.986328"/>
      </g>
     </g>
    </g>
    <g id="xtick_3">
     <g id="line2d_3">
      <g>
       <use xlink:href="#md9bd69b509" x="310.293489" y="359.517187" style="stroke: #000000; stroke-width: 0.8"/>
      </g>
     </g>
     <g id="text_3">
      <!-- 12-12 12 -->
      <g transform="translate(287.813021 374.115625) scale(0.1 -0.1)">
       <use xlink:href="#DejaVuSans-31"/>
       <use xlink:href="#DejaVuSans-32" x="63.623047"/>
       <use xlink:href="#DejaVuSans-2d" x="127.246094"/>
       <use xlink:href="#DejaVuSans-31" x="163.330078"/>
       <use xlink:href="#DejaVuSans-32" x="226.953125"/>
       <use xlink:href="#DejaVuSans-20" x="290.576172"/>
       <use xlink:href="#DejaVuSans-31" x="322.363281"/>
       <use xlink:href="#DejaVuSans-32" x="385.986328"/>
      </g>
     </g>
    </g>
    <g id="xtick_4">
     <g id="line2d_4">
      <g>
       <use xlink:href="#md9bd69b509" x="421.194097" y="359.517187" style="stroke: #000000; stroke-width: 0.8"/>
      </g>
     </g>
     <g id="text_4">
      <!-- 12-12 15 -->
      <g transform="translate(398.713628 374.115625) scale(0.1 -0.1)">
       <defs>
        <path id="DejaVuSans-35" d="M 691 4666 
L 3169 4666 
L 3169 4134 
L 1269 4134 
L 1269 2991 
Q 1406 3038 1543 3061 
Q 1681 3084 1819 3084 
Q 2600 3084 3056 2656 
Q 3513 2228 3513 1497 
Q 3513 744 3044 326 
Q 2575 -91 1722 -91 
Q 1428 -91 1123 -41 
Q 819 9 494 109 
L 494 744 
Q 775 591 1075 516 
Q 1375 441 1709 441 
Q 2250 441 2565 725 
Q 2881 1009 2881 1497 
Q 2881 1984 2565 2268 
Q 2250 2553 1709 2553 
Q 1456 2553 1204 2497 
Q 953 2441 691 2322 
L 691 4666 
z
" transform="scale(0.015625)"/>
       </defs>
       <use xlink:href="#DejaVuSans-31"/>
       <use xlink:href="#DejaVuSans-32" x="63.623047"/>
       <use xlink:href="#DejaVuSans-2d" x="127.246094"/>
       <use xlink:href="#DejaVuSans-31" x="163.330078"/>
       <use xlink:href="#DejaVuSans-32" x="226.953125"/>
       <use xlink:href="#DejaVuSans-20" x="290.576172"/>
       <use xlink:href="#DejaVuSans-31" x="322.363281"/>
       <use xlink:href="#DejaVuSans-35" x="385.986328"/>
      </g>
     </g>
    </g>
    <g id="xtick_5">
     <g id="line2d_5">
      <g>
       <use xlink:href="#md9bd69b509" x="532.094704" y="359.517187" style="stroke: #000000; stroke-width: 0.8"/>
      </g>
     </g>
     <g id="text_5">
      <!-- 12-12 18 -->
      <g transform="translate(509.614235 374.115625) scale(0.1 -0.1)">
       <defs>
        <path id="DejaVuSans-38" d="M 2034 2216 
Q 1584 2216 1326 1975 
Q 1069 1734 1069 1313 
Q 1069 891 1326 650 
Q 1584 409 2034 409 
Q 2484 409 2743 651 
Q 3003 894 3003 1313 
Q 3003 1734 2745 1975 
Q 2488 2216 2034 2216 
z
M 1403 2484 
Q 997 2584 770 2862 
Q 544 3141 544 3541 
Q 544 4100 942 4425 
Q 1341 4750 2034 4750 
Q 2731 4750 3128 4425 
Q 3525 4100 3525 3541 
Q 3525 3141 3298 2862 
Q 3072 2584 2669 2484 
Q 3125 2378 3379 2068 
Q 3634 1759 3634 1313 
Q 3634 634 3220 271 
Q 2806 -91 2034 -91 
Q 1263 -91 848 271 
Q 434 634 434 1313 
Q 434 1759 690 2068 
Q 947 2378 1403 2484 
z
M 1172 3481 
Q 1172 3119 1398 2916 
Q 1625 2713 2034 2713 
Q 2441 2713 2670 2916 
Q 2900 3119 2900 3481 
Q 2900 3844 2670 4047 
Q 2441 4250 2034 4250 
Q 1625 4250 1398 4047 
Q 1172 3844 1172 3481 
z
" transform="scale(0.015625)"/>
       </defs>
       <use xlink:href="#DejaVuSans-31"/>
       <use xlink:href="#DejaVuSans-32" x="63.623047"/>
       <use xlink:href="#DejaVuSans-2d" x="127.246094"/>
       <use xlink:href="#DejaVuSans-31" x="163.330078"/>
       <use xlink:href="#DejaVuSans-32" x="226.953125"/>
       <use xlink:href="#DejaVuSans-20" x="290.576172"/>
       <use xlink:href="#DejaVuSans-31" x="322.363281"/>
       <use xlink:href="#DejaVuSans-38" x="385.986328"/>
      </g>
     </g>
    </g>
    <g id="xtick_6">
     <g id="line2d_6">
      <g>
       <use xlink:href="#md9bd69b509" x="642.995312" y="359.517187" style="stroke: #000000; stroke-width: 0.8"/>
      </g>
     </g>
     <g id="text_6">
      <!-- 12-12 21 -->
      <g transform="translate(620.514843 374.115625) scale(0.1 -0.1)">
       <use xlink:href="#DejaVuSans-31"/>
       <use xlink:href="#DejaVuSans-32" x="63.623047"/>
       <use xlink:href="#DejaVuSans-2d" x="127.246094"/>
       <use xlink:href="#DejaVuSans-31" x="163.330078"/>
       <use xlink:href="#DejaVuSans-32" x="226.953125"/>
       <use xlink:href="#DejaVuSans-20" x="290.576172"/>
       <use xlink:href="#DejaVuSans-32" x="322.363281"/>
       <use xlink:href="#DejaVuSans-31" x="385.986328"/>
      </g>
     </g>
    </g>
    <g id="xtick_7">
     <g id="line2d_7">
      <g>
       <use xlink:href="#md9bd69b509" x="753.895919" y="359.517187" style="stroke: #000000; stroke-width: 0.8"/>
      </g>
     </g>
     <g id="text_7">
      <!-- 12-13 00 -->
      <g transform="translate(731.41545 374.115625) scale(0.1 -0.1)">
       <defs>
        <path id="DejaVuSans-33" d="M 2597 2516 
Q 3050 2419 3304 2112 
Q 3559 1806 3559 1356 
Q 3559 666 3084 287 
Q 2609 -91 1734 -91 
Q 1441 -91 1130 -33 
Q 819 25 488 141 
L 488 750 
Q 750 597 1062 519 
Q 1375 441 1716 441 
Q 2309 441 2620 675 
Q 2931 909 2931 1356 
Q 2931 1769 2642 2001 
Q 2353 2234 1838 2234 
L 1294 2234 
L 1294 2753 
L 1863 2753 
Q 2328 2753 2575 2939 
Q 2822 3125 2822 3475 
Q 2822 3834 2567 4026 
Q 2313 4219 1838 4219 
Q 1578 4219 1281 4162 
Q 984 4106 628 3988 
L 628 4550 
Q 988 4650 1302 4700 
Q 1616 4750 1894 4750 
Q 2613 4750 3031 4423 
Q 3450 4097 3450 3541 
Q 3450 3153 3228 2886 
Q 3006 2619 2597 2516 
z
" transform="scale(0.015625)"/>
       </defs>
       <use xlink:href="#DejaVuSans-31"/>
       <use xlink:href="#DejaVuSans-32" x="63.623047"/>
       <use xlink:href="#DejaVuSans-2d" x="127.246094"/>
       <use xlink:href="#DejaVuSans-31" x="163.330078"/>
       <use xlink:href="#DejaVuSans-33" x="226.953125"/>
       <use xlink:href="#DejaVuSans-20" x="290.576172"/>
       <use xlink:href="#DejaVuSans-30" x="322.363281"/>
       <use xlink:href="#DejaVuSans-30" x="385.986328"/>
      </g>
     </g>
    </g>
    <g id="xtick_8">
     <g id="line2d_8">
      <g>
       <use xlink:href="#md9bd69b509" x="864.796526" y="359.517187" style="stroke: #000000; stroke-width: 0.8"/>
      </g>
     </g>
     <g id="text_8">
      <!-- 12-13 03 -->
      <g transform="translate(842.316058 374.115625) scale(0.1 -0.1)">
       <use xlink:href="#DejaVuSans-31"/>
       <use xlink:href="#DejaVuSans-32" x="63.623047"/>
       <use xlink:href="#DejaVuSans-2d" x="127.246094"/>
       <use xlink:href="#DejaVuSans-31" x="163.330078"/>
       <use xlink:href="#DejaVuSans-33" x="226.953125"/>
       <use xlink:href="#DejaVuSans-20" x="290.576172"/>
       <use xlink:href="#DejaVuSans-30" x="322.363281"/>
       <use xlink:href="#DejaVuSans-33" x="385.986328"/>
      </g>
     </g>
    </g>
    <g id="xtick_9">
     <g id="line2d_9">
      <g>
       <use xlink:href="#md9bd69b509" x="975.697134" y="359.517187" style="stroke: #000000; stroke-width: 0.8"/>
      </g>
     </g>
     <g id="text_9">
      <!-- 12-13 06 -->
      <g transform="translate(953.216665 374.115625) scale(0.1 -0.1)">
       <use xlink:href="#DejaVuSans-31"/>
       <use xlink:href="#DejaVuSans-32" x="63.623047"/>
       <use xlink:href="#DejaVuSans-2d" x="127.246094"/>
       <use xlink:href="#DejaVuSans-31" x="163.330078"/>
       <use xlink:href="#DejaVuSans-33" x="226.953125"/>
       <use xlink:href="#DejaVuSans-20" x="290.576172"/>
       <use xlink:href="#DejaVuSans-30" x="322.363281"/>
       <use xlink:href="#DejaVuSans-36" x="385.986328"/>
      </g>
     </g>
    </g>
    <g id="xtick_10">
     <g id="line2d_10">
      <g>
       <use xlink:href="#md9bd69b509" x="1086.597741" y="359.517187" style="stroke: #000000; stroke-width: 0.8"/>
      </g>
     </g>
     <g id="text_10">
      <!-- 12-13 09 -->
      <g transform="translate(1064.117272 374.115625) scale(0.1 -0.1)">
       <use xlink:href="#DejaVuSans-31"/>
       <use xlink:href="#DejaVuSans-32" x="63.623047"/>
       <use xlink:href="#DejaVuSans-2d" x="127.246094"/>
       <use xlink:href="#DejaVuSans-31" x="163.330078"/>
       <use xlink:href="#DejaVuSans-33" x="226.953125"/>
       <use xlink:href="#DejaVuSans-20" x="290.576172"/>
       <use xlink:href="#DejaVuSans-30" x="322.363281"/>
       <use xlink:href="#DejaVuSans-39" x="385.986328"/>
      </g>
     </g>
    </g>
    <g id="text_11">
     <!-- Time -->
     <g transform="translate(592.554688 389.313437) scale(0.12 -0.12)">
      <defs>
       <path id="DejaVuSans-54" d="M -19 4666 
L 3928 4666 
L 3928 4134 
L 2272 4134 
L 2272 0 
L 1638 0 
L 1638 4134 
L -19 4134 
L -19 4666 
z
" transform="scale(0.015625)"/>
       <path id="DejaVuSans-69" d="M 603 3500 
L 1178 3500 
L 1178 0 
L 603 0 
L 603 3500 
z
M 603 4863 
L 1178 4863 
L 1178 4134 
L 603 4134 
L 603 4863 
z
" transform="scale(0.015625)"/>
       <path id="DejaVuSans-6d" d="M 3328 2828 
Q 3544 3216 3844 3400 
Q 4144 3584 4550 3584 
Q 5097 3584 5394 3201 
Q 5691 2819 5691 2113 
L 5691 0 
L 5113 0 
L 5113 2094 
Q 5113 2597 4934 2840 
Q 4756 3084 4391 3084 
Q 3944 3084 3684 2787 
Q 3425 2491 3425 1978 
L 3425 0 
L 2847 0 
L 2847 2094 
Q 2847 2600 2669 2842 
Q 2491 3084 2119 3084 
Q 1678 3084 1418 2786 
Q 1159 2488 1159 1978 
L 1159 0 
L 581 0 
L 581 3500 
L 1159 3500 
L 1159 2956 
Q 1356 3278 1631 3431 
Q 1906 3584 2284 3584 
Q 2666 3584 2933 3390 
Q 3200 3197 3328 2828 
z
" transform="scale(0.015625)"/>
       <path id="DejaVuSans-65" d="M 3597 1894 
L 3597 1613 
L 953 1613 
Q 991 1019 1311 708 
Q 1631 397 2203 397 
Q 2534 397 2845 478 
Q 3156 559 3463 722 
L 3463 178 
Q 3153 47 2828 -22 
Q 2503 -91 2169 -91 
Q 1331 -91 842 396 
Q 353 884 353 1716 
Q 353 2575 817 3079 
Q 1281 3584 2069 3584 
Q 2775 3584 3186 3129 
Q 3597 2675 3597 1894 
z
M 3022 2063 
Q 3016 2534 2758 2815 
Q 2500 3097 2075 3097 
Q 1594 3097 1305 2825 
Q 1016 2553 972 2059 
L 3022 2063 
z
" transform="scale(0.015625)"/>
      </defs>
      <use xlink:href="#DejaVuSans-54"/>
      <use xlink:href="#DejaVuSans-69" x="57.958984"/>
      <use xlink:href="#DejaVuSans-6d" x="85.742188"/>
      <use xlink:href="#DejaVuSans-65" x="183.154297"/>
     </g>
    </g>
   </g>
   <g id="matplotlib.axis_2">
    <g id="ytick_1">
     <g id="line2d_11">
      <defs>
       <path id="m07be126d5c" d="M 0 0 
L -3.5 0 
" style="stroke: #000000; stroke-width: 0.8"/>
      </defs>
      <g>
       <use xlink:href="#m07be126d5c" x="49.235" y="344.397187" style="stroke: #000000; stroke-width: 0.8"/>
      </g>
     </g>
     <g id="text_12">
      <!-- 0 -->
      <g transform="translate(35.8725 348.196406) scale(0.1 -0.1)">
       <use xlink:href="#DejaVuSans-30"/>
      </g>
     </g>
    </g>
    <g id="ytick_2">
     <g id="line2d_12">
      <g>
       <use xlink:href="#m07be126d5c" x="49.235" y="285.792536" style="stroke: #000000; stroke-width: 0.8"/>
      </g>
     </g>
     <g id="text_13">
      <!-- 50 -->
      <g transform="translate(29.51 289.591755) scale(0.1 -0.1)">
       <use xlink:href="#DejaVuSans-35"/>
       <use xlink:href="#DejaVuSans-30" x="63.623047"/>
      </g>
     </g>
    </g>
    <g id="ytick_3">
     <g id="line2d_13">
      <g>
       <use xlink:href="#m07be126d5c" x="49.235" y="227.187885" style="stroke: #000000; stroke-width: 0.8"/>
      </g>
     </g>
     <g id="text_14">
      <!-- 100 -->
      <g transform="translate(23.1475 230.987104) scale(0.1 -0.1)">
       <use xlink:href="#DejaVuSans-31"/>
       <use xlink:href="#DejaVuSans-30" x="63.623047"/>
       <use xlink:href="#DejaVuSans-30" x="127.246094"/>
      </g>
     </g>
    </g>
    <g id="ytick_4">
     <g id="line2d_14">
      <g>
       <use xlink:href="#m07be126d5c" x="49.235" y="168.583234" style="stroke: #000000; stroke-width: 0.8"/>
      </g>
     </g>
     <g id="text_15">
      <!-- 150 -->
      <g transform="translate(23.1475 172.382453) scale(0.1 -0.1)">
       <use xlink:href="#DejaVuSans-31"/>
       <use xlink:href="#DejaVuSans-35" x="63.623047"/>
       <use xlink:href="#DejaVuSans-30" x="127.246094"/>
      </g>
     </g>
    </g>
    <g id="ytick_5">
     <g id="line2d_15">
      <g>
       <use xlink:href="#m07be126d5c" x="49.235" y="109.978583" style="stroke: #000000; stroke-width: 0.8"/>
      </g>
     </g>
     <g id="text_16">
      <!-- 200 -->
      <g transform="translate(23.1475 113.777802) scale(0.1 -0.1)">
       <use xlink:href="#DejaVuSans-32"/>
       <use xlink:href="#DejaVuSans-30" x="63.623047"/>
       <use xlink:href="#DejaVuSans-30" x="127.246094"/>
      </g>
     </g>
    </g>
    <g id="ytick_6">
     <g id="line2d_16">
      <g>
       <use xlink:href="#m07be126d5c" x="49.235" y="51.373932" style="stroke: #000000; stroke-width: 0.8"/>
      </g>
     </g>
     <g id="text_17">
      <!-- 250 -->
      <g transform="translate(23.1475 55.17315) scale(0.1 -0.1)">
       <use xlink:href="#DejaVuSans-32"/>
       <use xlink:href="#DejaVuSans-35" x="63.623047"/>
       <use xlink:href="#DejaVuSans-30" x="127.246094"/>
      </g>
     </g>
    </g>
    <g id="text_18">
     <!-- Pellet_Count -->
     <g transform="translate(16.318125 230.485312) rotate(-90) scale(0.12 -0.12)">
      <defs>
       <path id="DejaVuSans-50" d="M 1259 4147 
L 1259 2394 
L 2053 2394 
Q 2494 2394 2734 2622 
Q 2975 2850 2975 3272 
Q 2975 3691 2734 3919 
Q 2494 4147 2053 4147 
L 1259 4147 
z
M 628 4666 
L 2053 4666 
Q 2838 4666 3239 4311 
Q 3641 3956 3641 3272 
Q 3641 2581 3239 2228 
Q 2838 1875 2053 1875 
L 1259 1875 
L 1259 0 
L 628 0 
L 628 4666 
z
" transform="scale(0.015625)"/>
       <path id="DejaVuSans-6c" d="M 603 4863 
L 1178 4863 
L 1178 0 
L 603 0 
L 603 4863 
z
" transform="scale(0.015625)"/>
       <path id="DejaVuSans-74" d="M 1172 4494 
L 1172 3500 
L 2356 3500 
L 2356 3053 
L 1172 3053 
L 1172 1153 
Q 1172 725 1289 603 
Q 1406 481 1766 481 
L 2356 481 
L 2356 0 
L 1766 0 
Q 1100 0 847 248 
Q 594 497 594 1153 
L 594 3053 
L 172 3053 
L 172 3500 
L 594 3500 
L 594 4494 
L 1172 4494 
z
" transform="scale(0.015625)"/>
       <path id="DejaVuSans-5f" d="M 3263 -1063 
L 3263 -1509 
L -63 -1509 
L -63 -1063 
L 3263 -1063 
z
" transform="scale(0.015625)"/>
       <path id="DejaVuSans-43" d="M 4122 4306 
L 4122 3641 
Q 3803 3938 3442 4084 
Q 3081 4231 2675 4231 
Q 1875 4231 1450 3742 
Q 1025 3253 1025 2328 
Q 1025 1406 1450 917 
Q 1875 428 2675 428 
Q 3081 428 3442 575 
Q 3803 722 4122 1019 
L 4122 359 
Q 3791 134 3420 21 
Q 3050 -91 2638 -91 
Q 1578 -91 968 557 
Q 359 1206 359 2328 
Q 359 3453 968 4101 
Q 1578 4750 2638 4750 
Q 3056 4750 3426 4639 
Q 3797 4528 4122 4306 
z
" transform="scale(0.015625)"/>
       <path id="DejaVuSans-6f" d="M 1959 3097 
Q 1497 3097 1228 2736 
Q 959 2375 959 1747 
Q 959 1119 1226 758 
Q 1494 397 1959 397 
Q 2419 397 2687 759 
Q 2956 1122 2956 1747 
Q 2956 2369 2687 2733 
Q 2419 3097 1959 3097 
z
M 1959 3584 
Q 2709 3584 3137 3096 
Q 3566 2609 3566 1747 
Q 3566 888 3137 398 
Q 2709 -91 1959 -91 
Q 1206 -91 779 398 
Q 353 888 353 1747 
Q 353 2609 779 3096 
Q 1206 3584 1959 3584 
z
" transform="scale(0.015625)"/>
       <path id="DejaVuSans-75" d="M 544 1381 
L 544 3500 
L 1119 3500 
L 1119 1403 
Q 1119 906 1312 657 
Q 1506 409 1894 409 
Q 2359 409 2629 706 
Q 2900 1003 2900 1516 
L 2900 3500 
L 3475 3500 
L 3475 0 
L 2900 0 
L 2900 538 
Q 2691 219 2414 64 
Q 2138 -91 1772 -91 
Q 1169 -91 856 284 
Q 544 659 544 1381 
z
M 1991 3584 
L 1991 3584 
z
" transform="scale(0.015625)"/>
       <path id="DejaVuSans-6e" d="M 3513 2113 
L 3513 0 
L 2938 0 
L 2938 2094 
Q 2938 2591 2744 2837 
Q 2550 3084 2163 3084 
Q 1697 3084 1428 2787 
Q 1159 2491 1159 1978 
L 1159 0 
L 581 0 
L 581 3500 
L 1159 3500 
L 1159 2956 
Q 1366 3272 1645 3428 
Q 1925 3584 2291 3584 
Q 2894 3584 3203 3211 
Q 3513 2838 3513 2113 
z
" transform="scale(0.015625)"/>
      </defs>
      <use xlink:href="#DejaVuSans-50"/>
      <use xlink:href="#DejaVuSans-65" x="56.677734"/>
      <use xlink:href="#DejaVuSans-6c" x="118.201172"/>
      <use xlink:href="#DejaVuSans-6c" x="145.984375"/>
      <use xlink:href="#DejaVuSans-65" x="173.767578"/>
      <use xlink:href="#DejaVuSans-74" x="235.291016"/>
      <use xlink:href="#DejaVuSans-5f" x="274.5"/>
      <use xlink:href="#DejaVuSans-43" x="324.5"/>
      <use xlink:href="#DejaVuSans-6f" x="394.324219"/>
      <use xlink:href="#DejaVuSans-75" x="455.505859"/>
      <use xlink:href="#DejaVuSans-6e" x="518.884766"/>
      <use xlink:href="#DejaVuSans-74" x="582.263672"/>
     </g>
    </g>
   </g>
   <g id="line2d_17">
    <path d="M 99.962273 344.397187 
L 135.132141 344.397187 
L 136.590279 343.225094 
L 147.659802 343.225094 
L 148.47102 342.053001 
L 152.095827 342.053001 
L 152.29093 340.880908 
L 157.733274 340.880908 
L 157.846229 339.708815 
L 159.766452 339.708815 
L 160.228538 338.536722 
L 161.87151 338.536722 
L 162.035807 337.364629 
L 163.360453 337.364629 
L 163.422065 336.192536 
L 163.812271 336.192536 
L 163.925225 335.020443 
L 165.486048 335.020443 
L 165.609271 333.84835 
L 168.309906 333.84835 
L 168.463935 332.676257 
L 171.113227 332.676257 
L 171.688267 331.504164 
L 172.869154 331.504164 
L 172.961571 330.332071 
L 175.682743 330.332071 
L 175.795697 329.159978 
L 178.260155 329.159978 
L 178.629824 327.987885 
L 180.283064 327.987885 
L 180.396019 326.815792 
L 186.485284 326.815792 
L 186.885758 325.643699 
L 192.595086 325.643699 
L 192.677234 324.471606 
L 193.529526 324.471606 
L 193.5706 323.299513 
L 196.260967 323.299513 
L 196.322578 322.12742 
L 201.35418 322.12742 
L 201.405523 320.955327 
L 202.422112 320.955327 
L 202.514529 319.783234 
L 204.783884 319.783234 
L 204.937912 318.611141 
L 205.666981 318.611141 
L 205.738861 317.439048 
L 208.470302 317.439048 
L 208.552451 316.266955 
L 212.567464 316.266955 
L 212.618806 315.094862 
L 213.738081 315.094862 
L 213.789424 313.922769 
L 215.093533 313.922769 
L 215.144876 312.750676 
L 216.428448 312.750676 
L 216.469522 311.578583 
L 218.903174 311.578583 
L 218.985323 310.40649 
L 220.104597 310.40649 
L 223.801284 309.234397 
L 225.300496 309.234397 
L 225.351839 308.062304 
L 226.727828 308.062304 
L 226.779171 306.890211 
L 227.929251 306.890211 
L 227.970326 305.718118 
L 229.726252 305.718118 
L 229.736521 304.546025 
L 230.034309 304.546025 
L 230.506664 303.373932 
L 231.430835 303.373932 
L 231.502715 302.201839 
L 232.724676 302.201839 
L 232.76575 301.029746 
L 233.48455 301.029746 
L 233.515356 299.857653 
L 233.905562 299.857653 
L 233.956905 298.68556 
L 234.973494 298.68556 
L 235.024837 297.513467 
L 235.887397 297.513467 
L 235.928471 296.341374 
L 236.626734 296.341374 
L 236.667808 295.169281 
L 237.08882 295.169281 
L 237.129894 293.997187 
L 241.91505 293.997187 
L 241.956124 292.825094 
L 245.15992 292.825094 
L 245.200994 291.653001 
L 246.864503 291.653001 
L 246.936383 290.480908 
L 249.862927 290.480908 
L 250.653607 289.308815 
L 251.526436 289.308815 
L 251.618853 288.136722 
L 252.265774 286.964629 
L 256.496426 286.964629 
L 256.537501 285.792536 
L 265.337669 285.792536 
L 265.389012 284.620443 
L 267.740516 284.620443 
L 267.832933 283.44835 
L 268.171796 283.44835 
L 268.202602 282.276257 
L 268.562002 282.276257 
L 268.880327 281.104164 
L 270.636254 281.104164 
L 270.687597 279.932071 
L 282.239743 279.932071 
L 282.393772 278.759978 
L 282.527263 277.587885 
L 289.879563 277.587885 
L 290.074666 276.415792 
L 292.990941 276.415792 
L 295.147342 275.243699 
L 296.810851 275.243699 
L 299.501217 274.071606 
L 301.986212 274.071606 
L 302.088898 272.899513 
L 302.530447 271.72742 
L 302.889847 271.72742 
L 302.920653 270.555327 
L 306.915128 270.555327 
L 306.945934 269.383234 
L 308.013866 269.383234 
L 308.05494 268.211141 
L 314.852737 268.211141 
L 315.212137 267.039048 
L 317.081017 267.039048 
L 317.13236 265.866955 
L 320.356693 265.866955 
L 323.76586 264.694862 
L 326.507569 264.694862 
L 327.452278 263.522769 
L 328.058124 263.522769 
L 328.109467 262.350676 
L 335.318006 262.350676 
L 335.369349 261.178583 
L 342.187683 261.178583 
L 342.885946 260.00649 
L 344.662409 260.00649 
L 345.175838 258.834397 
L 347.60949 258.834397 
L 348.051039 257.662304 
L 355.382801 257.662304 
L 356.389122 256.490211 
L 356.871745 256.490211 
L 356.923087 255.318118 
L 357.11819 255.318118 
L 357.159265 254.146025 
L 357.498128 254.146025 
L 358.791968 252.973932 
L 361.112666 252.973932 
L 361.287232 251.801839 
L 362.293552 251.801839 
L 363.597661 250.629746 
L 365.415199 250.629746 
L 365.446004 249.457653 
L 367.191662 249.457653 
L 367.633211 248.28556 
L 368.834634 248.28556 
L 369.111886 247.113467 
L 370.077132 247.113467 
L 370.323577 245.941374 
L 371.206675 245.941374 
L 371.299092 244.769281 
L 374.441276 244.769281 
L 374.48235 243.597187 
L 375.324373 243.597187 
L 375.365448 242.425094 
L 376.217739 242.425094 
L 376.258814 241.253001 
L 377.059763 241.253001 
L 377.0803 240.080908 
L 377.347283 240.080908 
L 377.378088 238.908815 
L 377.778563 238.908815 
L 377.819637 237.736722 
L 378.784883 237.736722 
L 379.832278 236.564629 
L 380.807792 236.564629 
L 381.228804 235.392536 
L 381.957873 235.392536 
L 382.245393 234.220443 
L 384.535285 234.220443 
L 384.576359 233.04835 
L 384.904954 233.04835 
L 384.956297 231.876257 
L 385.336234 231.876257 
L 385.36704 230.704164 
L 385.623754 230.704164 
L 385.72644 229.532071 
L 386.075571 229.532071 
L 386.219331 228.359978 
L 391.076367 228.359978 
L 391.292007 227.187885 
L 392.267522 227.187885 
L 392.308596 226.015792 
L 392.893905 226.015792 
L 392.914442 224.843699 
L 393.294379 224.843699 
L 393.325185 223.671606 
L 393.931031 223.671606 
L 393.992642 222.499513 
L 399.958684 222.499513 
L 400.040833 221.32742 
L 405.226463 221.32742 
L 405.257269 220.155327 
L 405.616669 220.155327 
L 405.657743 218.983234 
L 406.068486 218.983234 
L 406.797555 217.811141 
L 407.085075 217.811141 
L 407.249372 216.639048 
L 409.457116 216.639048 
L 409.49819 215.466955 
L 413.010043 215.466955 
L 413.24622 214.294862 
L 414.82758 214.294862 
L 414.878923 213.122769 
L 415.474501 213.122769 
L 415.495038 211.950676 
L 421.810211 211.950676 
L 421.912897 210.778583 
L 429.932654 210.778583 
L 429.953191 209.60649 
L 431.000586 209.60649 
L 431.031391 208.434397 
L 433.485581 208.434397 
L 433.721758 207.262304 
L 434.871838 207.262304 
L 434.964256 206.090211 
L 435.344193 206.090211 
L 435.416073 204.918118 
L 435.785742 204.918118 
L 435.826816 203.746025 
L 436.545616 203.746025 
L 436.576422 202.573932 
L 437.490325 202.573932 
L 437.972948 201.401839 
L 444.760476 201.401839 
L 444.80155 200.229746 
L 448.775489 200.229746 
L 448.867906 199.057653 
L 449.329992 197.88556 
L 459.074869 197.88556 
L 459.475344 196.713467 
L 460.060652 196.713467 
L 460.235218 195.541374 
L 461.672819 195.541374 
L 461.724161 194.369281 
L 463.182299 194.369281 
L 463.480088 193.197187 
L 464.352917 193.197187 
L 464.548019 192.025094 
L 465.502997 192.025094 
L 465.533803 190.853001 
L 466.591466 190.853001 
L 466.673614 189.680908 
L 472.290525 189.680908 
L 472.341868 188.508815 
L 475.473783 188.508815 
L 475.730497 187.336722 
L 476.623863 187.336722 
L 476.644401 186.164629 
L 477.979315 186.164629 
L 478.030658 184.992536 
L 479.262887 184.992536 
L 479.283424 183.820443 
L 480.330819 183.820443 
L 480.341087 182.64835 
L 480.762099 182.64835 
L 480.844248 181.476257 
L 480.998276 181.476257 
L 481.039351 180.304164 
L 493.567012 180.304164 
L 494.203663 179.132071 
L 494.706824 179.132071 
L 494.727361 177.959978 
L 506.844279 177.959978 
L 506.885353 176.787885 
L 515.223436 176.787885 
L 515.377465 175.615792 
L 517.698162 175.615792 
L 517.708431 174.443699 
L 518.416963 174.443699 
L 518.458037 173.271606 
L 518.909854 173.271606 
L 519.063883 172.099513 
L 525.317445 172.099513 
L 525.471474 170.92742 
L 526.549674 170.92742 
L 526.590748 169.755327 
L 528.038617 169.755327 
L 528.048886 168.583234 
L 530.75979 168.583234 
L 530.75979 168.583234 
L 530.852207 167.411141 
L 531.499127 167.411141 
L 531.560738 166.239048 
L 535.575751 166.239048 
L 535.596288 165.066955 
L 542.086027 165.066955 
L 542.106565 163.894862 
L 543.780342 163.894862 
L 543.821417 162.722769 
L 548.41147 162.722769 
L 548.904361 161.550676 
L 549.037853 161.550676 
L 549.068658 160.378583 
L 549.807996 160.378583 
L 549.818264 159.20649 
L 550.321424 159.20649 
L 550.341962 158.034397 
L 550.834853 158.034397 
L 550.85539 156.862304 
L 550.968345 156.862304 
L 550.988882 155.690211 
L 551.820636 155.690211 
L 551.861711 154.518118 
L 552.570242 154.518118 
L 552.601048 153.346025 
L 566.093955 153.346025 
L 566.124761 152.173932 
L 566.730607 152.173932 
L 566.751144 151.001839 
L 572.39886 151.001839 
L 572.419397 149.829746 
L 576.475484 149.829746 
L 576.50629 148.657653 
L 579.699817 148.657653 
L 579.720354 147.48556 
L 580.634257 147.48556 
L 581.024463 146.313467 
L 582.133469 146.313467 
L 582.215618 145.141374 
L 586.928893 145.141374 
L 586.959699 143.969281 
L 587.308831 143.969281 
L 587.329368 142.797187 
L 594.024479 142.797187 
L 594.08609 141.625094 
L 596.334908 141.625094 
L 596.355445 140.453001 
L 596.571085 140.453001 
L 596.601891 139.280908 
L 596.889411 139.280908 
L 597.320691 138.108815 
L 597.957343 138.108815 
L 597.97788 136.936722 
L 603.892579 136.936722 
L 603.913116 135.764629 
L 663.18333 135.764629 
L 663.203867 134.592536 
L 663.840518 134.592536 
L 663.861055 133.420443 
L 664.641467 133.420443 
L 664.672273 132.24835 
L 665.175433 132.24835 
L 665.206239 131.076257 
L 667.424251 131.076257 
L 667.424251 131.076257 
L 667.485862 129.904164 
L 670.227572 129.904164 
L 670.258378 128.732071 
L 670.782075 128.732071 
L 670.802612 127.559978 
L 671.172281 127.559978 
L 671.203086 126.387885 
L 674.222047 126.387885 
L 674.242585 125.215792 
L 677.025368 125.215792 
L 677.128054 124.043699 
L 681.153335 124.043699 
L 681.184141 122.871606 
L 683.628062 122.871606 
L 683.946388 121.699513 
L 685.404525 121.699513 
L 686.184937 120.52742 
L 724.92827 120.52742 
L 724.969344 119.355327 
L 725.369818 119.355327 
L 725.390355 118.183234 
L 725.79083 118.183234 
L 725.811367 117.011141 
L 726.211841 117.011141 
L 726.211841 117.011141 
L 726.252916 115.839048 
L 771.557868 115.839048 
L 771.578405 114.666955 
L 772.482039 114.666955 
L 772.512845 113.494862 
L 773.3446 113.494862 
L 773.365137 112.322769 
L 774.546023 112.322769 
L 774.56656 111.150676 
L 778.622647 111.150676 
L 778.643184 109.978583 
L 785.297221 109.978583 
L 785.307489 108.80649 
L 786.005752 108.80649 
L 786.026289 107.634397 
L 786.878581 107.634397 
L 786.899118 106.462304 
L 788.131347 106.462304 
L 788.162153 105.290211 
L 789.168473 105.290211 
L 789.18901 104.118118 
L 789.640828 104.118118 
L 789.661365 102.946025 
L 796.695339 102.946025 
L 796.746681 101.773932 
L 797.876225 101.773932 
L 797.90703 100.601839 
L 798.451265 100.601839 
L 798.492339 99.429746 
L 800.710351 99.429746 
L 800.833574 97.08556 
L 800.905454 97.08556 
L 801.090289 94.741374 
L 891.730998 94.741374 
L 891.792609 93.569281 
L 892.747587 93.569281 
L 892.768124 92.397187 
L 893.261016 92.397187 
L 893.281553 91.225094 
L 893.599879 91.225094 
L 893.620416 90.053001 
L 894.698616 90.053001 
L 894.719153 88.880908 
L 945.086512 88.880908 
L 945.117318 87.708815 
L 945.979878 87.708815 
L 946.010684 86.536722 
L 946.370084 86.536722 
L 946.390621 85.364629 
L 946.698679 85.364629 
L 946.719216 84.192536 
L 947.058079 84.192536 
L 947.088884 83.020443 
L 985.637114 83.020443 
L 985.657651 81.84835 
L 986.232691 81.84835 
L 986.263497 80.676257 
L 986.735852 80.676257 
L 986.74612 79.504164 
L 986.982297 79.504164 
L 987.023372 78.332071 
L 987.351966 78.332071 
L 987.362235 77.159978 
L 987.618949 77.159978 
L 987.639486 75.987885 
L 988.070766 75.987885 
L 988.111841 74.815792 
L 988.358286 74.815792 
L 988.389092 73.643699 
L 988.686881 73.643699 
L 988.707418 72.471606 
L 989.005207 72.471606 
L 989.015475 71.299513 
L 989.261921 71.299513 
L 989.27219 70.12742 
L 1028.487877 70.12742 
L 1028.487877 68.955327 
L 1033.396255 68.955327 
L 1033.416792 67.783234 
L 1034.15613 67.783234 
L 1034.176667 66.611141 
L 1042.51475 66.611141 
L 1042.535287 65.439048 
L 1042.904955 65.439048 
L 1042.915224 64.266955 
L 1043.192476 64.266955 
L 1043.243818 63.094862 
L 1043.613487 63.094862 
L 1043.623756 61.922769 
L 1043.921544 61.922769 
L 1043.942082 60.750676 
L 1044.126916 60.750676 
L 1044.16799 59.578583 
L 1053.625348 59.578583 
L 1053.830719 58.40649 
L 1054.837039 58.40649 
L 1054.857577 57.234397 
L 1057.650629 57.234397 
L 1057.691703 56.062304 
L 1058.164058 56.062304 
L 1058.205132 54.890211 
L 1059.653001 54.890211 
L 1059.683807 53.718118 
L 1093.169629 53.718118 
L 1093.190166 52.546025 
L 1093.508492 52.546025 
L 1093.51876 51.373932 
L 1093.785743 51.373932 
L 1093.816549 50.201839 
L 1094.124606 50.201839 
L 1094.155412 49.029746 
L 1094.484006 49.029746 
L 1094.504544 47.857653 
L 1094.843407 47.857653 
L 1094.863944 46.68556 
L 1095.161732 46.68556 
L 1095.18227 45.513467 
L 1107.227308 45.513467 
L 1107.247845 44.341374 
L 1107.658588 44.341374 
L 1107.668856 43.169281 
L 1114.476922 43.169281 
L 1114.507727 41.997187 
L 1114.507727 41.997187 
" clip-path="url(#pda6c6621f0)" style="fill: none; stroke: #0000ff; stroke-width: 1.5; stroke-linecap: square"/>
   </g>
   <g id="patch_69">
    <path d="M 49.235 359.517187 
L 49.235 26.877187 
" style="fill: none; stroke: #000000; stroke-width: 0.8; stroke-linejoin: miter; stroke-linecap: square"/>
   </g>
   <g id="patch_70">
    <path d="M 1165.235 359.517187 
L 1165.235 26.877187 
" style="fill: none; stroke: #000000; stroke-width: 0.8; stroke-linejoin: miter; stroke-linecap: square"/>
   </g>
   <g id="patch_71">
    <path d="M 49.235 359.517187 
L 1165.235 359.517187 
" style="fill: none; stroke: #000000; stroke-width: 0.8; stroke-linejoin: miter; stroke-linecap: square"/>
   </g>
   <g id="patch_72">
    <path d="M 49.235 26.877187 
L 1165.235 26.877187 
" style="fill: none; stroke: #000000; stroke-width: 0.8; stroke-linejoin: miter; stroke-linecap: square"/>
   </g>
   <g id="text_19">
    <!-- Pellet Count and Cumulative Sum Over Time of Group 1 Mouse 9 -->
    <g transform="translate(315.460625 20.877187) scale(0.18 -0.18)">
     <defs>
      <path id="DejaVuSans-61" d="M 2194 1759 
Q 1497 1759 1228 1600 
Q 959 1441 959 1056 
Q 959 750 1161 570 
Q 1363 391 1709 391 
Q 2188 391 2477 730 
Q 2766 1069 2766 1631 
L 2766 1759 
L 2194 1759 
z
M 3341 1997 
L 3341 0 
L 2766 0 
L 2766 531 
Q 2569 213 2275 61 
Q 1981 -91 1556 -91 
Q 1019 -91 701 211 
Q 384 513 384 1019 
Q 384 1609 779 1909 
Q 1175 2209 1959 2209 
L 2766 2209 
L 2766 2266 
Q 2766 2663 2505 2880 
Q 2244 3097 1772 3097 
Q 1472 3097 1187 3025 
Q 903 2953 641 2809 
L 641 3341 
Q 956 3463 1253 3523 
Q 1550 3584 1831 3584 
Q 2591 3584 2966 3190 
Q 3341 2797 3341 1997 
z
" transform="scale(0.015625)"/>
      <path id="DejaVuSans-64" d="M 2906 2969 
L 2906 4863 
L 3481 4863 
L 3481 0 
L 2906 0 
L 2906 525 
Q 2725 213 2448 61 
Q 2172 -91 1784 -91 
Q 1150 -91 751 415 
Q 353 922 353 1747 
Q 353 2572 751 3078 
Q 1150 3584 1784 3584 
Q 2172 3584 2448 3432 
Q 2725 3281 2906 2969 
z
M 947 1747 
Q 947 1113 1208 752 
Q 1469 391 1925 391 
Q 2381 391 2643 752 
Q 2906 1113 2906 1747 
Q 2906 2381 2643 2742 
Q 2381 3103 1925 3103 
Q 1469 3103 1208 2742 
Q 947 2381 947 1747 
z
" transform="scale(0.015625)"/>
      <path id="DejaVuSans-76" d="M 191 3500 
L 800 3500 
L 1894 563 
L 2988 3500 
L 3597 3500 
L 2284 0 
L 1503 0 
L 191 3500 
z
" transform="scale(0.015625)"/>
      <path id="DejaVuSans-53" d="M 3425 4513 
L 3425 3897 
Q 3066 4069 2747 4153 
Q 2428 4238 2131 4238 
Q 1616 4238 1336 4038 
Q 1056 3838 1056 3469 
Q 1056 3159 1242 3001 
Q 1428 2844 1947 2747 
L 2328 2669 
Q 3034 2534 3370 2195 
Q 3706 1856 3706 1288 
Q 3706 609 3251 259 
Q 2797 -91 1919 -91 
Q 1588 -91 1214 -16 
Q 841 59 441 206 
L 441 856 
Q 825 641 1194 531 
Q 1563 422 1919 422 
Q 2459 422 2753 634 
Q 3047 847 3047 1241 
Q 3047 1584 2836 1778 
Q 2625 1972 2144 2069 
L 1759 2144 
Q 1053 2284 737 2584 
Q 422 2884 422 3419 
Q 422 4038 858 4394 
Q 1294 4750 2059 4750 
Q 2388 4750 2728 4690 
Q 3069 4631 3425 4513 
z
" transform="scale(0.015625)"/>
      <path id="DejaVuSans-4f" d="M 2522 4238 
Q 1834 4238 1429 3725 
Q 1025 3213 1025 2328 
Q 1025 1447 1429 934 
Q 1834 422 2522 422 
Q 3209 422 3611 934 
Q 4013 1447 4013 2328 
Q 4013 3213 3611 3725 
Q 3209 4238 2522 4238 
z
M 2522 4750 
Q 3503 4750 4090 4092 
Q 4678 3434 4678 2328 
Q 4678 1225 4090 567 
Q 3503 -91 2522 -91 
Q 1538 -91 948 565 
Q 359 1222 359 2328 
Q 359 3434 948 4092 
Q 1538 4750 2522 4750 
z
" transform="scale(0.015625)"/>
      <path id="DejaVuSans-72" d="M 2631 2963 
Q 2534 3019 2420 3045 
Q 2306 3072 2169 3072 
Q 1681 3072 1420 2755 
Q 1159 2438 1159 1844 
L 1159 0 
L 581 0 
L 581 3500 
L 1159 3500 
L 1159 2956 
Q 1341 3275 1631 3429 
Q 1922 3584 2338 3584 
Q 2397 3584 2469 3576 
Q 2541 3569 2628 3553 
L 2631 2963 
z
" transform="scale(0.015625)"/>
      <path id="DejaVuSans-66" d="M 2375 4863 
L 2375 4384 
L 1825 4384 
Q 1516 4384 1395 4259 
Q 1275 4134 1275 3809 
L 1275 3500 
L 2222 3500 
L 2222 3053 
L 1275 3053 
L 1275 0 
L 697 0 
L 697 3053 
L 147 3053 
L 147 3500 
L 697 3500 
L 697 3744 
Q 697 4328 969 4595 
Q 1241 4863 1831 4863 
L 2375 4863 
z
" transform="scale(0.015625)"/>
      <path id="DejaVuSans-47" d="M 3809 666 
L 3809 1919 
L 2778 1919 
L 2778 2438 
L 4434 2438 
L 4434 434 
Q 4069 175 3628 42 
Q 3188 -91 2688 -91 
Q 1594 -91 976 548 
Q 359 1188 359 2328 
Q 359 3472 976 4111 
Q 1594 4750 2688 4750 
Q 3144 4750 3555 4637 
Q 3966 4525 4313 4306 
L 4313 3634 
Q 3963 3931 3569 4081 
Q 3175 4231 2741 4231 
Q 1884 4231 1454 3753 
Q 1025 3275 1025 2328 
Q 1025 1384 1454 906 
Q 1884 428 2741 428 
Q 3075 428 3337 486 
Q 3600 544 3809 666 
z
" transform="scale(0.015625)"/>
      <path id="DejaVuSans-70" d="M 1159 525 
L 1159 -1331 
L 581 -1331 
L 581 3500 
L 1159 3500 
L 1159 2969 
Q 1341 3281 1617 3432 
Q 1894 3584 2278 3584 
Q 2916 3584 3314 3078 
Q 3713 2572 3713 1747 
Q 3713 922 3314 415 
Q 2916 -91 2278 -91 
Q 1894 -91 1617 61 
Q 1341 213 1159 525 
z
M 3116 1747 
Q 3116 2381 2855 2742 
Q 2594 3103 2138 3103 
Q 1681 3103 1420 2742 
Q 1159 2381 1159 1747 
Q 1159 1113 1420 752 
Q 1681 391 2138 391 
Q 2594 391 2855 752 
Q 3116 1113 3116 1747 
z
" transform="scale(0.015625)"/>
      <path id="DejaVuSans-4d" d="M 628 4666 
L 1569 4666 
L 2759 1491 
L 3956 4666 
L 4897 4666 
L 4897 0 
L 4281 0 
L 4281 4097 
L 3078 897 
L 2444 897 
L 1241 4097 
L 1241 0 
L 628 0 
L 628 4666 
z
" transform="scale(0.015625)"/>
      <path id="DejaVuSans-73" d="M 2834 3397 
L 2834 2853 
Q 2591 2978 2328 3040 
Q 2066 3103 1784 3103 
Q 1356 3103 1142 2972 
Q 928 2841 928 2578 
Q 928 2378 1081 2264 
Q 1234 2150 1697 2047 
L 1894 2003 
Q 2506 1872 2764 1633 
Q 3022 1394 3022 966 
Q 3022 478 2636 193 
Q 2250 -91 1575 -91 
Q 1294 -91 989 -36 
Q 684 19 347 128 
L 347 722 
Q 666 556 975 473 
Q 1284 391 1588 391 
Q 1994 391 2212 530 
Q 2431 669 2431 922 
Q 2431 1156 2273 1281 
Q 2116 1406 1581 1522 
L 1381 1569 
Q 847 1681 609 1914 
Q 372 2147 372 2553 
Q 372 3047 722 3315 
Q 1072 3584 1716 3584 
Q 2034 3584 2315 3537 
Q 2597 3491 2834 3397 
z
" transform="scale(0.015625)"/>
     </defs>
     <use xlink:href="#DejaVuSans-50"/>
     <use xlink:href="#DejaVuSans-65" x="56.677734"/>
     <use xlink:href="#DejaVuSans-6c" x="118.201172"/>
     <use xlink:href="#DejaVuSans-6c" x="145.984375"/>
     <use xlink:href="#DejaVuSans-65" x="173.767578"/>
     <use xlink:href="#DejaVuSans-74" x="235.291016"/>
     <use xlink:href="#DejaVuSans-20" x="274.5"/>
     <use xlink:href="#DejaVuSans-43" x="306.287109"/>
     <use xlink:href="#DejaVuSans-6f" x="376.111328"/>
     <use xlink:href="#DejaVuSans-75" x="437.292969"/>
     <use xlink:href="#DejaVuSans-6e" x="500.671875"/>
     <use xlink:href="#DejaVuSans-74" x="564.050781"/>
     <use xlink:href="#DejaVuSans-20" x="603.259766"/>
     <use xlink:href="#DejaVuSans-61" x="635.046875"/>
     <use xlink:href="#DejaVuSans-6e" x="696.326172"/>
     <use xlink:href="#DejaVuSans-64" x="759.705078"/>
     <use xlink:href="#DejaVuSans-20" x="823.181641"/>
     <use xlink:href="#DejaVuSans-43" x="854.96875"/>
     <use xlink:href="#DejaVuSans-75" x="924.792969"/>
     <use xlink:href="#DejaVuSans-6d" x="988.171875"/>
     <use xlink:href="#DejaVuSans-75" x="1085.583984"/>
     <use xlink:href="#DejaVuSans-6c" x="1148.962891"/>
     <use xlink:href="#DejaVuSans-61" x="1176.746094"/>
     <use xlink:href="#DejaVuSans-74" x="1238.025391"/>
     <use xlink:href="#DejaVuSans-69" x="1277.234375"/>
     <use xlink:href="#DejaVuSans-76" x="1305.017578"/>
     <use xlink:href="#DejaVuSans-65" x="1364.197266"/>
     <use xlink:href="#DejaVuSans-20" x="1425.720703"/>
     <use xlink:href="#DejaVuSans-53" x="1457.507812"/>
     <use xlink:href="#DejaVuSans-75" x="1520.984375"/>
     <use xlink:href="#DejaVuSans-6d" x="1584.363281"/>
     <use xlink:href="#DejaVuSans-20" x="1681.775391"/>
     <use xlink:href="#DejaVuSans-4f" x="1713.5625"/>
     <use xlink:href="#DejaVuSans-76" x="1792.273438"/>
     <use xlink:href="#DejaVuSans-65" x="1851.453125"/>
     <use xlink:href="#DejaVuSans-72" x="1912.976562"/>
     <use xlink:href="#DejaVuSans-20" x="1954.089844"/>
     <use xlink:href="#DejaVuSans-54" x="1985.876953"/>
     <use xlink:href="#DejaVuSans-69" x="2043.835938"/>
     <use xlink:href="#DejaVuSans-6d" x="2071.619141"/>
     <use xlink:href="#DejaVuSans-65" x="2169.03125"/>
     <use xlink:href="#DejaVuSans-20" x="2230.554688"/>
     <use xlink:href="#DejaVuSans-6f" x="2262.341797"/>
     <use xlink:href="#DejaVuSans-66" x="2323.523438"/>
     <use xlink:href="#DejaVuSans-20" x="2358.728516"/>
     <use xlink:href="#DejaVuSans-47" x="2390.515625"/>
     <use xlink:href="#DejaVuSans-72" x="2468.005859"/>
     <use xlink:href="#DejaVuSans-6f" x="2506.869141"/>
     <use xlink:href="#DejaVuSans-75" x="2568.050781"/>
     <use xlink:href="#DejaVuSans-70" x="2631.429688"/>
     <use xlink:href="#DejaVuSans-20" x="2694.90625"/>
     <use xlink:href="#DejaVuSans-31" x="2726.693359"/>
     <use xlink:href="#DejaVuSans-20" x="2790.316406"/>
     <use xlink:href="#DejaVuSans-4d" x="2822.103516"/>
     <use xlink:href="#DejaVuSans-6f" x="2908.382812"/>
     <use xlink:href="#DejaVuSans-75" x="2969.564453"/>
     <use xlink:href="#DejaVuSans-73" x="3032.943359"/>
     <use xlink:href="#DejaVuSans-65" x="3085.042969"/>
     <use xlink:href="#DejaVuSans-20" x="3146.566406"/>
     <use xlink:href="#DejaVuSans-39" x="3178.353516"/>
    </g>
   </g>
   <g id="legend_1">
    <g id="patch_73">
     <path d="M 1086.550625 64.233437 
L 1158.235 64.233437 
Q 1160.235 64.233437 1160.235 62.233437 
L 1160.235 33.877187 
Q 1160.235 31.877187 1158.235 31.877187 
L 1086.550625 31.877187 
Q 1084.550625 31.877187 1084.550625 33.877187 
L 1084.550625 62.233437 
Q 1084.550625 64.233437 1086.550625 64.233437 
z
" style="fill: #ffffff; opacity: 0.8; stroke: #cccccc; stroke-linejoin: miter"/>
    </g>
    <g id="patch_74">
     <path d="M 1088.550625 43.475625 
L 1108.550625 43.475625 
L 1108.550625 36.475625 
L 1088.550625 36.475625 
z
" style="fill: #add8e6; opacity: 0.9; stroke: #add8e6; stroke-linejoin: miter"/>
    </g>
    <g id="text_20">
     <!-- Meal -->
     <g transform="translate(1116.550625 43.475625) scale(0.1 -0.1)">
      <use xlink:href="#DejaVuSans-4d"/>
      <use xlink:href="#DejaVuSans-65" x="86.279297"/>
      <use xlink:href="#DejaVuSans-61" x="147.802734"/>
      <use xlink:href="#DejaVuSans-6c" x="209.082031"/>
     </g>
    </g>
    <g id="patch_75">
     <path d="M 1088.550625 58.15375 
L 1108.550625 58.15375 
L 1108.550625 51.15375 
L 1088.550625 51.15375 
z
" style="fill: #808080; opacity: 0.5; stroke: #808080; stroke-linejoin: miter"/>
    </g>
    <g id="text_21">
     <!-- Inactive -->
     <g transform="translate(1116.550625 58.15375) scale(0.1 -0.1)">
      <defs>
       <path id="DejaVuSans-49" d="M 628 4666 
L 1259 4666 
L 1259 0 
L 628 0 
L 628 4666 
z
" transform="scale(0.015625)"/>
       <path id="DejaVuSans-63" d="M 3122 3366 
L 3122 2828 
Q 2878 2963 2633 3030 
Q 2388 3097 2138 3097 
Q 1578 3097 1268 2742 
Q 959 2388 959 1747 
Q 959 1106 1268 751 
Q 1578 397 2138 397 
Q 2388 397 2633 464 
Q 2878 531 3122 666 
L 3122 134 
Q 2881 22 2623 -34 
Q 2366 -91 2075 -91 
Q 1284 -91 818 406 
Q 353 903 353 1747 
Q 353 2603 823 3093 
Q 1294 3584 2113 3584 
Q 2378 3584 2631 3529 
Q 2884 3475 3122 3366 
z
" transform="scale(0.015625)"/>
      </defs>
      <use xlink:href="#DejaVuSans-49"/>
      <use xlink:href="#DejaVuSans-6e" x="29.492188"/>
      <use xlink:href="#DejaVuSans-61" x="92.871094"/>
      <use xlink:href="#DejaVuSans-63" x="154.150391"/>
      <use xlink:href="#DejaVuSans-74" x="209.130859"/>
      <use xlink:href="#DejaVuSans-69" x="248.339844"/>
      <use xlink:href="#DejaVuSans-76" x="276.123047"/>
      <use xlink:href="#DejaVuSans-65" x="335.302734"/>
     </g>
    </g>
   </g>
  </g>
 </g>
 <defs>
  <clipPath id="pda6c6621f0">
   <rect x="49.235" y="26.877187" width="1116" height="332.64"/>
  </clipPath>
 </defs>
</svg>
