<?xml version="1.0" encoding="utf-8" standalone="no"?>
<!DOCTYPE svg PUBLIC "-//W3C//DTD SVG 1.1//EN"
  "http://www.w3.org/Graphics/SVG/1.1/DTD/svg11.dtd">
<svg xmlns:xlink="http://www.w3.org/1999/xlink" width="900.34747pt" height="351.999375pt" viewBox="0 0 900.34747 351.999375" xmlns="http://www.w3.org/2000/svg" version="1.1">
 <metadata>
  <rdf:RDF xmlns:dc="http://purl.org/dc/elements/1.1/" xmlns:cc="http://creativecommons.org/ns#" xmlns:rdf="http://www.w3.org/1999/02/22-rdf-syntax-ns#">
   <cc:Work>
    <dc:type rdf:resource="http://purl.org/dc/dcmitype/StillImage"/>
    <dc:date>2025-04-02T08:58:22.251370</dc:date>
    <dc:format>image/svg+xml</dc:format>
    <dc:creator>
     <cc:Agent>
      <dc:title>Matplotlib v3.8.3, https://matplotlib.org/</dc:title>
     </cc:Agent>
    </dc:creator>
   </cc:Work>
  </rdf:RDF>
 </metadata>
 <defs>
  <style type="text/css">*{stroke-linejoin: round; stroke-linecap: butt}</style>
 </defs>
 <g id="figure_1">
  <g id="patch_1">
   <path d="M 0 351.999375 
L 900.34747 351.999375 
L 900.34747 0 
L 0 0 
z
" style="fill: #ffffff"/>
  </g>
  <g id="axes_1">
   <g id="patch_2">
    <path d="M 52.7725 308.63625 
L 889.7725 308.63625 
L 889.7725 31.43625 
L 52.7725 31.43625 
z
" style="fill: #ffffff"/>
   </g>
   <g id="PolyCollection_1">
    <defs>
     <path id="m8864f3533d" d="M 508.329187 -268.786654 
L 508.329187 -268.621353 
L 508.329187 -268.786654 
L 508.329187 -268.786654 
z
" style="stroke: #1f77b4; stroke-opacity: 0.2"/>
    </defs>
    <g clip-path="url(#pee7980bec3)">
     <use xlink:href="#m8864f3533d" x="0" y="351.999375" style="fill: #1f77b4; fill-opacity: 0.2; stroke: #1f77b4; stroke-opacity: 0.2"/>
    </g>
   </g>
   <g id="PolyCollection_2">
    <path d="M 239.274647 103.917438 
L 239.274647 104.51625 
L 239.274647 103.917438 
L 239.274647 103.917438 
z
" clip-path="url(#pee7980bec3)" style="fill: #ff7f0e; fill-opacity: 0.2; stroke: #ff7f0e; stroke-opacity: 0.2"/>
    <path d="M 670.644549 79.09712 
L 670.644549 80.03625 
L 670.644549 79.09712 
L 670.644549 79.09712 
z
" clip-path="url(#pee7980bec3)" style="fill: #ff7f0e; fill-opacity: 0.2; stroke: #ff7f0e; stroke-opacity: 0.2"/>
   </g>
   <g id="PolyCollection_3"/>
   <g id="PolyCollection_4">
    <path d="M 122.223275 170.03625 
L 122.223275 173.109421 
L 122.223275 170.03625 
L 122.223275 170.03625 
z
" clip-path="url(#pee7980bec3)" style="fill: #d62728; fill-opacity: 0.2; stroke: #d62728; stroke-opacity: 0.2"/>
    <path d="M 158.58128 138.190096 
L 158.58128 138.190096 
L 158.58128 138.190096 
L 158.58128 138.190096 
z
" clip-path="url(#pee7980bec3)" style="fill: #d62728; fill-opacity: 0.2; stroke: #d62728; stroke-opacity: 0.2"/>
    <path d="M 296.814218 112.28625 
L 296.814218 112.28625 
L 296.814218 112.28625 
L 296.814218 112.28625 
z
" clip-path="url(#pee7980bec3)" style="fill: #d62728; fill-opacity: 0.2; stroke: #d62728; stroke-opacity: 0.2"/>
    <path d="M 325.822794 109.77538 
L 325.822794 110.094502 
L 325.822794 109.77538 
L 325.822794 109.77538 
z
" clip-path="url(#pee7980bec3)" style="fill: #d62728; fill-opacity: 0.2; stroke: #d62728; stroke-opacity: 0.2"/>
    <path d="M 418.234565 103.082275 
L 418.234565 103.330368 
L 418.234565 103.082275 
L 418.234565 103.082275 
z
" clip-path="url(#pee7980bec3)" style="fill: #d62728; fill-opacity: 0.2; stroke: #d62728; stroke-opacity: 0.2"/>
   </g>
   <g id="PolyCollection_5">
    <path d="M 303.509185 55.490795 
L 303.509185 55.595883 
L 303.509185 55.490795 
L 303.509185 55.490795 
z
" clip-path="url(#pee7980bec3)" style="fill: #9467bd; fill-opacity: 0.2; stroke: #9467bd; stroke-opacity: 0.2"/>
    <path d="M 595.514107 52.692739 
L 595.514107 52.725905 
L 595.514107 52.692739 
L 595.514107 52.692739 
z
" clip-path="url(#pee7980bec3)" style="fill: #9467bd; fill-opacity: 0.2; stroke: #9467bd; stroke-opacity: 0.2"/>
    <path d="M 741.158383 50.389191 
L 741.158383 50.407037 
L 741.158383 50.389191 
L 741.158383 50.389191 
z
" clip-path="url(#pee7980bec3)" style="fill: #9467bd; fill-opacity: 0.2; stroke: #9467bd; stroke-opacity: 0.2"/>
    <path d="M 841.237969 49.43625 
L 841.237969 49.449138 
L 841.237969 49.43625 
L 841.237969 49.43625 
z
" clip-path="url(#pee7980bec3)" style="fill: #9467bd; fill-opacity: 0.2; stroke: #9467bd; stroke-opacity: 0.2"/>
   </g>
   <g id="PolyCollection_6"/>
   <g id="PolyCollection_7">
    <path d="M 197.990491 98.522736 
L 197.990491 99.269127 
L 197.990491 98.522736 
L 197.990491 98.522736 
z
" clip-path="url(#pee7980bec3)" style="fill: #e377c2; fill-opacity: 0.2; stroke: #e377c2; stroke-opacity: 0.2"/>
    <path d="M 233.649814 83.181881 
L 233.649814 83.181881 
L 233.649814 83.181881 
L 233.649814 83.181881 
z
" clip-path="url(#pee7980bec3)" style="fill: #e377c2; fill-opacity: 0.2; stroke: #e377c2; stroke-opacity: 0.2"/>
    <path d="M 487.810926 73.001767 
L 487.810926 73.853044 
L 487.810926 73.001767 
L 487.810926 73.001767 
z
" clip-path="url(#pee7980bec3)" style="fill: #e377c2; fill-opacity: 0.2; stroke: #e377c2; stroke-opacity: 0.2"/>
    <path d="M 603.420713 79.299049 
L 603.420713 80.03625 
L 603.420713 79.299049 
L 603.420713 79.299049 
z
" clip-path="url(#pee7980bec3)" style="fill: #e377c2; fill-opacity: 0.2; stroke: #e377c2; stroke-opacity: 0.2"/>
   </g>
   <g id="matplotlib.axis_1">
    <g id="xtick_1">
     <g id="line2d_1">
      <path d="M 90.817955 308.63625 
L 90.817955 31.43625 
" clip-path="url(#pee7980bec3)" style="fill: none; stroke: #b0b0b0; stroke-width: 0.8; stroke-linecap: square"/>
     </g>
     <g id="line2d_2">
      <defs>
       <path id="m54ebd73114" d="M 0 0 
L 0 3.5 
" style="stroke: #000000; stroke-width: 0.8"/>
      </defs>
      <g>
       <use xlink:href="#m54ebd73114" x="90.817955" y="308.63625" style="stroke: #000000; stroke-width: 0.8"/>
      </g>
     </g>
     <g id="text_1">
      <!-- 0 -->
      <g transform="translate(87.636705 323.234688) scale(0.1 -0.1)">
       <defs>
        <path id="DejaVuSans-30" d="M 2034 4250 
Q 1547 4250 1301 3770 
Q 1056 3291 1056 2328 
Q 1056 1369 1301 889 
Q 1547 409 2034 409 
Q 2525 409 2770 889 
Q 3016 1369 3016 2328 
Q 3016 3291 2770 3770 
Q 2525 4250 2034 4250 
z
M 2034 4750 
Q 2819 4750 3233 4129 
Q 3647 3509 3647 2328 
Q 3647 1150 3233 529 
Q 2819 -91 2034 -91 
Q 1250 -91 836 529 
Q 422 1150 422 2328 
Q 422 3509 836 4129 
Q 1250 4750 2034 4750 
z
" transform="scale(0.015625)"/>
       </defs>
       <use xlink:href="#DejaVuSans-30"/>
      </g>
     </g>
    </g>
    <g id="xtick_2">
     <g id="line2d_3">
      <path d="M 250.011358 308.63625 
L 250.011358 31.43625 
" clip-path="url(#pee7980bec3)" style="fill: none; stroke: #b0b0b0; stroke-width: 0.8; stroke-linecap: square"/>
     </g>
     <g id="line2d_4">
      <g>
       <use xlink:href="#m54ebd73114" x="250.011358" y="308.63625" style="stroke: #000000; stroke-width: 0.8"/>
      </g>
     </g>
     <g id="text_2">
      <!-- 5 -->
      <g transform="translate(246.830108 323.234688) scale(0.1 -0.1)">
       <defs>
        <path id="DejaVuSans-35" d="M 691 4666 
L 3169 4666 
L 3169 4134 
L 1269 4134 
L 1269 2991 
Q 1406 3038 1543 3061 
Q 1681 3084 1819 3084 
Q 2600 3084 3056 2656 
Q 3513 2228 3513 1497 
Q 3513 744 3044 326 
Q 2575 -91 1722 -91 
Q 1428 -91 1123 -41 
Q 819 9 494 109 
L 494 744 
Q 775 591 1075 516 
Q 1375 441 1709 441 
Q 2250 441 2565 725 
Q 2881 1009 2881 1497 
Q 2881 1984 2565 2268 
Q 2250 2553 1709 2553 
Q 1456 2553 1204 2497 
Q 953 2441 691 2322 
L 691 4666 
z
" transform="scale(0.015625)"/>
       </defs>
       <use xlink:href="#DejaVuSans-35"/>
      </g>
     </g>
    </g>
    <g id="xtick_3">
     <g id="line2d_5">
      <path d="M 409.204761 308.63625 
L 409.204761 31.43625 
" clip-path="url(#pee7980bec3)" style="fill: none; stroke: #b0b0b0; stroke-width: 0.8; stroke-linecap: square"/>
     </g>
     <g id="line2d_6">
      <g>
       <use xlink:href="#m54ebd73114" x="409.204761" y="308.63625" style="stroke: #000000; stroke-width: 0.8"/>
      </g>
     </g>
     <g id="text_3">
      <!-- 10 -->
      <g transform="translate(402.842261 323.234688) scale(0.1 -0.1)">
       <defs>
        <path id="DejaVuSans-31" d="M 794 531 
L 1825 531 
L 1825 4091 
L 703 3866 
L 703 4441 
L 1819 4666 
L 2450 4666 
L 2450 531 
L 3481 531 
L 3481 0 
L 794 0 
L 794 531 
z
" transform="scale(0.015625)"/>
       </defs>
       <use xlink:href="#DejaVuSans-31"/>
       <use xlink:href="#DejaVuSans-30" x="63.623047"/>
      </g>
     </g>
    </g>
    <g id="xtick_4">
     <g id="line2d_7">
      <path d="M 568.398164 308.63625 
L 568.398164 31.43625 
" clip-path="url(#pee7980bec3)" style="fill: none; stroke: #b0b0b0; stroke-width: 0.8; stroke-linecap: square"/>
     </g>
     <g id="line2d_8">
      <g>
       <use xlink:href="#m54ebd73114" x="568.398164" y="308.63625" style="stroke: #000000; stroke-width: 0.8"/>
      </g>
     </g>
     <g id="text_4">
      <!-- 15 -->
      <g transform="translate(562.035664 323.234688) scale(0.1 -0.1)">
       <use xlink:href="#DejaVuSans-31"/>
       <use xlink:href="#DejaVuSans-35" x="63.623047"/>
      </g>
     </g>
    </g>
    <g id="xtick_5">
     <g id="line2d_9">
      <path d="M 727.591567 308.63625 
L 727.591567 31.43625 
" clip-path="url(#pee7980bec3)" style="fill: none; stroke: #b0b0b0; stroke-width: 0.8; stroke-linecap: square"/>
     </g>
     <g id="line2d_10">
      <g>
       <use xlink:href="#m54ebd73114" x="727.591567" y="308.63625" style="stroke: #000000; stroke-width: 0.8"/>
      </g>
     </g>
     <g id="text_5">
      <!-- 20 -->
      <g transform="translate(721.229067 323.234688) scale(0.1 -0.1)">
       <defs>
        <path id="DejaVuSans-32" d="M 1228 531 
L 3431 531 
L 3431 0 
L 469 0 
L 469 531 
Q 828 903 1448 1529 
Q 2069 2156 2228 2338 
Q 2531 2678 2651 2914 
Q 2772 3150 2772 3378 
Q 2772 3750 2511 3984 
Q 2250 4219 1831 4219 
Q 1534 4219 1204 4116 
Q 875 4013 500 3803 
L 500 4441 
Q 881 4594 1212 4672 
Q 1544 4750 1819 4750 
Q 2544 4750 2975 4387 
Q 3406 4025 3406 3419 
Q 3406 3131 3298 2873 
Q 3191 2616 2906 2266 
Q 2828 2175 2409 1742 
Q 1991 1309 1228 531 
z
" transform="scale(0.015625)"/>
       </defs>
       <use xlink:href="#DejaVuSans-32"/>
       <use xlink:href="#DejaVuSans-30" x="63.623047"/>
      </g>
     </g>
    </g>
    <g id="xtick_6">
     <g id="line2d_11">
      <path d="M 886.78497 308.63625 
L 886.78497 31.43625 
" clip-path="url(#pee7980bec3)" style="fill: none; stroke: #b0b0b0; stroke-width: 0.8; stroke-linecap: square"/>
     </g>
     <g id="line2d_12">
      <g>
       <use xlink:href="#m54ebd73114" x="886.78497" y="308.63625" style="stroke: #000000; stroke-width: 0.8"/>
      </g>
     </g>
     <g id="text_6">
      <!-- 25 -->
      <g transform="translate(880.42247 323.234688) scale(0.1 -0.1)">
       <use xlink:href="#DejaVuSans-32"/>
       <use xlink:href="#DejaVuSans-35" x="63.623047"/>
      </g>
     </g>
    </g>
    <g id="text_7">
     <!-- Session Time (hours) -->
     <g transform="translate(387.35625 341.471875) scale(0.16 -0.16)">
      <defs>
       <path id="DejaVuSans-53" d="M 3425 4513 
L 3425 3897 
Q 3066 4069 2747 4153 
Q 2428 4238 2131 4238 
Q 1616 4238 1336 4038 
Q 1056 3838 1056 3469 
Q 1056 3159 1242 3001 
Q 1428 2844 1947 2747 
L 2328 2669 
Q 3034 2534 3370 2195 
Q 3706 1856 3706 1288 
Q 3706 609 3251 259 
Q 2797 -91 1919 -91 
Q 1588 -91 1214 -16 
Q 841 59 441 206 
L 441 856 
Q 825 641 1194 531 
Q 1563 422 1919 422 
Q 2459 422 2753 634 
Q 3047 847 3047 1241 
Q 3047 1584 2836 1778 
Q 2625 1972 2144 2069 
L 1759 2144 
Q 1053 2284 737 2584 
Q 422 2884 422 3419 
Q 422 4038 858 4394 
Q 1294 4750 2059 4750 
Q 2388 4750 2728 4690 
Q 3069 4631 3425 4513 
z
" transform="scale(0.015625)"/>
       <path id="DejaVuSans-65" d="M 3597 1894 
L 3597 1613 
L 953 1613 
Q 991 1019 1311 708 
Q 1631 397 2203 397 
Q 2534 397 2845 478 
Q 3156 559 3463 722 
L 3463 178 
Q 3153 47 2828 -22 
Q 2503 -91 2169 -91 
Q 1331 -91 842 396 
Q 353 884 353 1716 
Q 353 2575 817 3079 
Q 1281 3584 2069 3584 
Q 2775 3584 3186 3129 
Q 3597 2675 3597 1894 
z
M 3022 2063 
Q 3016 2534 2758 2815 
Q 2500 3097 2075 3097 
Q 1594 3097 1305 2825 
Q 1016 2553 972 2059 
L 3022 2063 
z
" transform="scale(0.015625)"/>
       <path id="DejaVuSans-73" d="M 2834 3397 
L 2834 2853 
Q 2591 2978 2328 3040 
Q 2066 3103 1784 3103 
Q 1356 3103 1142 2972 
Q 928 2841 928 2578 
Q 928 2378 1081 2264 
Q 1234 2150 1697 2047 
L 1894 2003 
Q 2506 1872 2764 1633 
Q 3022 1394 3022 966 
Q 3022 478 2636 193 
Q 2250 -91 1575 -91 
Q 1294 -91 989 -36 
Q 684 19 347 128 
L 347 722 
Q 666 556 975 473 
Q 1284 391 1588 391 
Q 1994 391 2212 530 
Q 2431 669 2431 922 
Q 2431 1156 2273 1281 
Q 2116 1406 1581 1522 
L 1381 1569 
Q 847 1681 609 1914 
Q 372 2147 372 2553 
Q 372 3047 722 3315 
Q 1072 3584 1716 3584 
Q 2034 3584 2315 3537 
Q 2597 3491 2834 3397 
z
" transform="scale(0.015625)"/>
       <path id="DejaVuSans-69" d="M 603 3500 
L 1178 3500 
L 1178 0 
L 603 0 
L 603 3500 
z
M 603 4863 
L 1178 4863 
L 1178 4134 
L 603 4134 
L 603 4863 
z
" transform="scale(0.015625)"/>
       <path id="DejaVuSans-6f" d="M 1959 3097 
Q 1497 3097 1228 2736 
Q 959 2375 959 1747 
Q 959 1119 1226 758 
Q 1494 397 1959 397 
Q 2419 397 2687 759 
Q 2956 1122 2956 1747 
Q 2956 2369 2687 2733 
Q 2419 3097 1959 3097 
z
M 1959 3584 
Q 2709 3584 3137 3096 
Q 3566 2609 3566 1747 
Q 3566 888 3137 398 
Q 2709 -91 1959 -91 
Q 1206 -91 779 398 
Q 353 888 353 1747 
Q 353 2609 779 3096 
Q 1206 3584 1959 3584 
z
" transform="scale(0.015625)"/>
       <path id="DejaVuSans-6e" d="M 3513 2113 
L 3513 0 
L 2938 0 
L 2938 2094 
Q 2938 2591 2744 2837 
Q 2550 3084 2163 3084 
Q 1697 3084 1428 2787 
Q 1159 2491 1159 1978 
L 1159 0 
L 581 0 
L 581 3500 
L 1159 3500 
L 1159 2956 
Q 1366 3272 1645 3428 
Q 1925 3584 2291 3584 
Q 2894 3584 3203 3211 
Q 3513 2838 3513 2113 
z
" transform="scale(0.015625)"/>
       <path id="DejaVuSans-20" transform="scale(0.015625)"/>
       <path id="DejaVuSans-54" d="M -19 4666 
L 3928 4666 
L 3928 4134 
L 2272 4134 
L 2272 0 
L 1638 0 
L 1638 4134 
L -19 4134 
L -19 4666 
z
" transform="scale(0.015625)"/>
       <path id="DejaVuSans-6d" d="M 3328 2828 
Q 3544 3216 3844 3400 
Q 4144 3584 4550 3584 
Q 5097 3584 5394 3201 
Q 5691 2819 5691 2113 
L 5691 0 
L 5113 0 
L 5113 2094 
Q 5113 2597 4934 2840 
Q 4756 3084 4391 3084 
Q 3944 3084 3684 2787 
Q 3425 2491 3425 1978 
L 3425 0 
L 2847 0 
L 2847 2094 
Q 2847 2600 2669 2842 
Q 2491 3084 2119 3084 
Q 1678 3084 1418 2786 
Q 1159 2488 1159 1978 
L 1159 0 
L 581 0 
L 581 3500 
L 1159 3500 
L 1159 2956 
Q 1356 3278 1631 3431 
Q 1906 3584 2284 3584 
Q 2666 3584 2933 3390 
Q 3200 3197 3328 2828 
z
" transform="scale(0.015625)"/>
       <path id="DejaVuSans-28" d="M 1984 4856 
Q 1566 4138 1362 3434 
Q 1159 2731 1159 2009 
Q 1159 1288 1364 580 
Q 1569 -128 1984 -844 
L 1484 -844 
Q 1016 -109 783 600 
Q 550 1309 550 2009 
Q 550 2706 781 3412 
Q 1013 4119 1484 4856 
L 1984 4856 
z
" transform="scale(0.015625)"/>
       <path id="DejaVuSans-68" d="M 3513 2113 
L 3513 0 
L 2938 0 
L 2938 2094 
Q 2938 2591 2744 2837 
Q 2550 3084 2163 3084 
Q 1697 3084 1428 2787 
Q 1159 2491 1159 1978 
L 1159 0 
L 581 0 
L 581 4863 
L 1159 4863 
L 1159 2956 
Q 1366 3272 1645 3428 
Q 1925 3584 2291 3584 
Q 2894 3584 3203 3211 
Q 3513 2838 3513 2113 
z
" transform="scale(0.015625)"/>
       <path id="DejaVuSans-75" d="M 544 1381 
L 544 3500 
L 1119 3500 
L 1119 1403 
Q 1119 906 1312 657 
Q 1506 409 1894 409 
Q 2359 409 2629 706 
Q 2900 1003 2900 1516 
L 2900 3500 
L 3475 3500 
L 3475 0 
L 2900 0 
L 2900 538 
Q 2691 219 2414 64 
Q 2138 -91 1772 -91 
Q 1169 -91 856 284 
Q 544 659 544 1381 
z
M 1991 3584 
L 1991 3584 
z
" transform="scale(0.015625)"/>
       <path id="DejaVuSans-72" d="M 2631 2963 
Q 2534 3019 2420 3045 
Q 2306 3072 2169 3072 
Q 1681 3072 1420 2755 
Q 1159 2438 1159 1844 
L 1159 0 
L 581 0 
L 581 3500 
L 1159 3500 
L 1159 2956 
Q 1341 3275 1631 3429 
Q 1922 3584 2338 3584 
Q 2397 3584 2469 3576 
Q 2541 3569 2628 3553 
L 2631 2963 
z
" transform="scale(0.015625)"/>
       <path id="DejaVuSans-29" d="M 513 4856 
L 1013 4856 
Q 1481 4119 1714 3412 
Q 1947 2706 1947 2009 
Q 1947 1309 1714 600 
Q 1481 -109 1013 -844 
L 513 -844 
Q 928 -128 1133 580 
Q 1338 1288 1338 2009 
Q 1338 2731 1133 3434 
Q 928 4138 513 4856 
z
" transform="scale(0.015625)"/>
      </defs>
      <use xlink:href="#DejaVuSans-53"/>
      <use xlink:href="#DejaVuSans-65" x="63.476562"/>
      <use xlink:href="#DejaVuSans-73" x="125"/>
      <use xlink:href="#DejaVuSans-73" x="177.099609"/>
      <use xlink:href="#DejaVuSans-69" x="229.199219"/>
      <use xlink:href="#DejaVuSans-6f" x="256.982422"/>
      <use xlink:href="#DejaVuSans-6e" x="318.164062"/>
      <use xlink:href="#DejaVuSans-20" x="381.542969"/>
      <use xlink:href="#DejaVuSans-54" x="413.330078"/>
      <use xlink:href="#DejaVuSans-69" x="471.289062"/>
      <use xlink:href="#DejaVuSans-6d" x="499.072266"/>
      <use xlink:href="#DejaVuSans-65" x="596.484375"/>
      <use xlink:href="#DejaVuSans-20" x="658.007812"/>
      <use xlink:href="#DejaVuSans-28" x="689.794922"/>
      <use xlink:href="#DejaVuSans-68" x="728.808594"/>
      <use xlink:href="#DejaVuSans-6f" x="792.1875"/>
      <use xlink:href="#DejaVuSans-75" x="853.369141"/>
      <use xlink:href="#DejaVuSans-72" x="916.748047"/>
      <use xlink:href="#DejaVuSans-73" x="957.861328"/>
      <use xlink:href="#DejaVuSans-29" x="1009.960938"/>
     </g>
    </g>
   </g>
   <g id="matplotlib.axis_2">
    <g id="ytick_1">
     <g id="line2d_13">
      <path d="M 52.7725 296.03625 
L 889.7725 296.03625 
" clip-path="url(#pee7980bec3)" style="fill: none; stroke: #b0b0b0; stroke-width: 0.8; stroke-linecap: square"/>
     </g>
     <g id="line2d_14">
      <defs>
       <path id="m7418effff1" d="M 0 0 
L -3.5 0 
" style="stroke: #000000; stroke-width: 0.8"/>
      </defs>
      <g>
       <use xlink:href="#m7418effff1" x="52.7725" y="296.03625" style="stroke: #000000; stroke-width: 0.8"/>
      </g>
     </g>
     <g id="text_8">
      <!-- 0 -->
      <g transform="translate(39.41 299.835469) scale(0.1 -0.1)">
       <use xlink:href="#DejaVuSans-30"/>
      </g>
     </g>
    </g>
    <g id="ytick_2">
     <g id="line2d_15">
      <path d="M 52.7725 270.83625 
L 889.7725 270.83625 
" clip-path="url(#pee7980bec3)" style="fill: none; stroke: #b0b0b0; stroke-width: 0.8; stroke-linecap: square"/>
     </g>
     <g id="line2d_16">
      <g>
       <use xlink:href="#m7418effff1" x="52.7725" y="270.83625" style="stroke: #000000; stroke-width: 0.8"/>
      </g>
     </g>
     <g id="text_9">
      <!-- 10 -->
      <g transform="translate(33.0475 274.635469) scale(0.1 -0.1)">
       <use xlink:href="#DejaVuSans-31"/>
       <use xlink:href="#DejaVuSans-30" x="63.623047"/>
      </g>
     </g>
    </g>
    <g id="ytick_3">
     <g id="line2d_17">
      <path d="M 52.7725 245.63625 
L 889.7725 245.63625 
" clip-path="url(#pee7980bec3)" style="fill: none; stroke: #b0b0b0; stroke-width: 0.8; stroke-linecap: square"/>
     </g>
     <g id="line2d_18">
      <g>
       <use xlink:href="#m7418effff1" x="52.7725" y="245.63625" style="stroke: #000000; stroke-width: 0.8"/>
      </g>
     </g>
     <g id="text_10">
      <!-- 20 -->
      <g transform="translate(33.0475 249.435469) scale(0.1 -0.1)">
       <use xlink:href="#DejaVuSans-32"/>
       <use xlink:href="#DejaVuSans-30" x="63.623047"/>
      </g>
     </g>
    </g>
    <g id="ytick_4">
     <g id="line2d_19">
      <path d="M 52.7725 220.43625 
L 889.7725 220.43625 
" clip-path="url(#pee7980bec3)" style="fill: none; stroke: #b0b0b0; stroke-width: 0.8; stroke-linecap: square"/>
     </g>
     <g id="line2d_20">
      <g>
       <use xlink:href="#m7418effff1" x="52.7725" y="220.43625" style="stroke: #000000; stroke-width: 0.8"/>
      </g>
     </g>
     <g id="text_11">
      <!-- 30 -->
      <g transform="translate(33.0475 224.235469) scale(0.1 -0.1)">
       <defs>
        <path id="DejaVuSans-33" d="M 2597 2516 
Q 3050 2419 3304 2112 
Q 3559 1806 3559 1356 
Q 3559 666 3084 287 
Q 2609 -91 1734 -91 
Q 1441 -91 1130 -33 
Q 819 25 488 141 
L 488 750 
Q 750 597 1062 519 
Q 1375 441 1716 441 
Q 2309 441 2620 675 
Q 2931 909 2931 1356 
Q 2931 1769 2642 2001 
Q 2353 2234 1838 2234 
L 1294 2234 
L 1294 2753 
L 1863 2753 
Q 2328 2753 2575 2939 
Q 2822 3125 2822 3475 
Q 2822 3834 2567 4026 
Q 2313 4219 1838 4219 
Q 1578 4219 1281 4162 
Q 984 4106 628 3988 
L 628 4550 
Q 988 4650 1302 4700 
Q 1616 4750 1894 4750 
Q 2613 4750 3031 4423 
Q 3450 4097 3450 3541 
Q 3450 3153 3228 2886 
Q 3006 2619 2597 2516 
z
" transform="scale(0.015625)"/>
       </defs>
       <use xlink:href="#DejaVuSans-33"/>
       <use xlink:href="#DejaVuSans-30" x="63.623047"/>
      </g>
     </g>
    </g>
    <g id="ytick_5">
     <g id="line2d_21">
      <path d="M 52.7725 195.23625 
L 889.7725 195.23625 
" clip-path="url(#pee7980bec3)" style="fill: none; stroke: #b0b0b0; stroke-width: 0.8; stroke-linecap: square"/>
     </g>
     <g id="line2d_22">
      <g>
       <use xlink:href="#m7418effff1" x="52.7725" y="195.23625" style="stroke: #000000; stroke-width: 0.8"/>
      </g>
     </g>
     <g id="text_12">
      <!-- 40 -->
      <g transform="translate(33.0475 199.035469) scale(0.1 -0.1)">
       <defs>
        <path id="DejaVuSans-34" d="M 2419 4116 
L 825 1625 
L 2419 1625 
L 2419 4116 
z
M 2253 4666 
L 3047 4666 
L 3047 1625 
L 3713 1625 
L 3713 1100 
L 3047 1100 
L 3047 0 
L 2419 0 
L 2419 1100 
L 313 1100 
L 313 1709 
L 2253 4666 
z
" transform="scale(0.015625)"/>
       </defs>
       <use xlink:href="#DejaVuSans-34"/>
       <use xlink:href="#DejaVuSans-30" x="63.623047"/>
      </g>
     </g>
    </g>
    <g id="ytick_6">
     <g id="line2d_23">
      <path d="M 52.7725 170.03625 
L 889.7725 170.03625 
" clip-path="url(#pee7980bec3)" style="fill: none; stroke: #b0b0b0; stroke-width: 0.8; stroke-linecap: square"/>
     </g>
     <g id="line2d_24">
      <g>
       <use xlink:href="#m7418effff1" x="52.7725" y="170.03625" style="stroke: #000000; stroke-width: 0.8"/>
      </g>
     </g>
     <g id="text_13">
      <!-- 50 -->
      <g transform="translate(33.0475 173.835469) scale(0.1 -0.1)">
       <use xlink:href="#DejaVuSans-35"/>
       <use xlink:href="#DejaVuSans-30" x="63.623047"/>
      </g>
     </g>
    </g>
    <g id="ytick_7">
     <g id="line2d_25">
      <path d="M 52.7725 144.83625 
L 889.7725 144.83625 
" clip-path="url(#pee7980bec3)" style="fill: none; stroke: #b0b0b0; stroke-width: 0.8; stroke-linecap: square"/>
     </g>
     <g id="line2d_26">
      <g>
       <use xlink:href="#m7418effff1" x="52.7725" y="144.83625" style="stroke: #000000; stroke-width: 0.8"/>
      </g>
     </g>
     <g id="text_14">
      <!-- 60 -->
      <g transform="translate(33.0475 148.635469) scale(0.1 -0.1)">
       <defs>
        <path id="DejaVuSans-36" d="M 2113 2584 
Q 1688 2584 1439 2293 
Q 1191 2003 1191 1497 
Q 1191 994 1439 701 
Q 1688 409 2113 409 
Q 2538 409 2786 701 
Q 3034 994 3034 1497 
Q 3034 2003 2786 2293 
Q 2538 2584 2113 2584 
z
M 3366 4563 
L 3366 3988 
Q 3128 4100 2886 4159 
Q 2644 4219 2406 4219 
Q 1781 4219 1451 3797 
Q 1122 3375 1075 2522 
Q 1259 2794 1537 2939 
Q 1816 3084 2150 3084 
Q 2853 3084 3261 2657 
Q 3669 2231 3669 1497 
Q 3669 778 3244 343 
Q 2819 -91 2113 -91 
Q 1303 -91 875 529 
Q 447 1150 447 2328 
Q 447 3434 972 4092 
Q 1497 4750 2381 4750 
Q 2619 4750 2861 4703 
Q 3103 4656 3366 4563 
z
" transform="scale(0.015625)"/>
       </defs>
       <use xlink:href="#DejaVuSans-36"/>
       <use xlink:href="#DejaVuSans-30" x="63.623047"/>
      </g>
     </g>
    </g>
    <g id="ytick_8">
     <g id="line2d_27">
      <path d="M 52.7725 119.63625 
L 889.7725 119.63625 
" clip-path="url(#pee7980bec3)" style="fill: none; stroke: #b0b0b0; stroke-width: 0.8; stroke-linecap: square"/>
     </g>
     <g id="line2d_28">
      <g>
       <use xlink:href="#m7418effff1" x="52.7725" y="119.63625" style="stroke: #000000; stroke-width: 0.8"/>
      </g>
     </g>
     <g id="text_15">
      <!-- 70 -->
      <g transform="translate(33.0475 123.435469) scale(0.1 -0.1)">
       <defs>
        <path id="DejaVuSans-37" d="M 525 4666 
L 3525 4666 
L 3525 4397 
L 1831 0 
L 1172 0 
L 2766 4134 
L 525 4134 
L 525 4666 
z
" transform="scale(0.015625)"/>
       </defs>
       <use xlink:href="#DejaVuSans-37"/>
       <use xlink:href="#DejaVuSans-30" x="63.623047"/>
      </g>
     </g>
    </g>
    <g id="ytick_9">
     <g id="line2d_29">
      <path d="M 52.7725 94.43625 
L 889.7725 94.43625 
" clip-path="url(#pee7980bec3)" style="fill: none; stroke: #b0b0b0; stroke-width: 0.8; stroke-linecap: square"/>
     </g>
     <g id="line2d_30">
      <g>
       <use xlink:href="#m7418effff1" x="52.7725" y="94.43625" style="stroke: #000000; stroke-width: 0.8"/>
      </g>
     </g>
     <g id="text_16">
      <!-- 80 -->
      <g transform="translate(33.0475 98.235469) scale(0.1 -0.1)">
       <defs>
        <path id="DejaVuSans-38" d="M 2034 2216 
Q 1584 2216 1326 1975 
Q 1069 1734 1069 1313 
Q 1069 891 1326 650 
Q 1584 409 2034 409 
Q 2484 409 2743 651 
Q 3003 894 3003 1313 
Q 3003 1734 2745 1975 
Q 2488 2216 2034 2216 
z
M 1403 2484 
Q 997 2584 770 2862 
Q 544 3141 544 3541 
Q 544 4100 942 4425 
Q 1341 4750 2034 4750 
Q 2731 4750 3128 4425 
Q 3525 4100 3525 3541 
Q 3525 3141 3298 2862 
Q 3072 2584 2669 2484 
Q 3125 2378 3379 2068 
Q 3634 1759 3634 1313 
Q 3634 634 3220 271 
Q 2806 -91 2034 -91 
Q 1263 -91 848 271 
Q 434 634 434 1313 
Q 434 1759 690 2068 
Q 947 2378 1403 2484 
z
M 1172 3481 
Q 1172 3119 1398 2916 
Q 1625 2713 2034 2713 
Q 2441 2713 2670 2916 
Q 2900 3119 2900 3481 
Q 2900 3844 2670 4047 
Q 2441 4250 2034 4250 
Q 1625 4250 1398 4047 
Q 1172 3844 1172 3481 
z
" transform="scale(0.015625)"/>
       </defs>
       <use xlink:href="#DejaVuSans-38"/>
       <use xlink:href="#DejaVuSans-30" x="63.623047"/>
      </g>
     </g>
    </g>
    <g id="ytick_10">
     <g id="line2d_31">
      <path d="M 52.7725 69.23625 
L 889.7725 69.23625 
" clip-path="url(#pee7980bec3)" style="fill: none; stroke: #b0b0b0; stroke-width: 0.8; stroke-linecap: square"/>
     </g>
     <g id="line2d_32">
      <g>
       <use xlink:href="#m7418effff1" x="52.7725" y="69.23625" style="stroke: #000000; stroke-width: 0.8"/>
      </g>
     </g>
     <g id="text_17">
      <!-- 90 -->
      <g transform="translate(33.0475 73.035469) scale(0.1 -0.1)">
       <defs>
        <path id="DejaVuSans-39" d="M 703 97 
L 703 672 
Q 941 559 1184 500 
Q 1428 441 1663 441 
Q 2288 441 2617 861 
Q 2947 1281 2994 2138 
Q 2813 1869 2534 1725 
Q 2256 1581 1919 1581 
Q 1219 1581 811 2004 
Q 403 2428 403 3163 
Q 403 3881 828 4315 
Q 1253 4750 1959 4750 
Q 2769 4750 3195 4129 
Q 3622 3509 3622 2328 
Q 3622 1225 3098 567 
Q 2575 -91 1691 -91 
Q 1453 -91 1209 -44 
Q 966 3 703 97 
z
M 1959 2075 
Q 2384 2075 2632 2365 
Q 2881 2656 2881 3163 
Q 2881 3666 2632 3958 
Q 2384 4250 1959 4250 
Q 1534 4250 1286 3958 
Q 1038 3666 1038 3163 
Q 1038 2656 1286 2365 
Q 1534 2075 1959 2075 
z
" transform="scale(0.015625)"/>
       </defs>
       <use xlink:href="#DejaVuSans-39"/>
       <use xlink:href="#DejaVuSans-30" x="63.623047"/>
      </g>
     </g>
    </g>
    <g id="ytick_11">
     <g id="line2d_33">
      <path d="M 52.7725 44.03625 
L 889.7725 44.03625 
" clip-path="url(#pee7980bec3)" style="fill: none; stroke: #b0b0b0; stroke-width: 0.8; stroke-linecap: square"/>
     </g>
     <g id="line2d_34">
      <g>
       <use xlink:href="#m7418effff1" x="52.7725" y="44.03625" style="stroke: #000000; stroke-width: 0.8"/>
      </g>
     </g>
     <g id="text_18">
      <!-- 100 -->
      <g transform="translate(26.685 47.835469) scale(0.1 -0.1)">
       <use xlink:href="#DejaVuSans-31"/>
       <use xlink:href="#DejaVuSans-30" x="63.623047"/>
       <use xlink:href="#DejaVuSans-30" x="127.246094"/>
      </g>
     </g>
    </g>
    <g id="text_19">
     <!-- Correct Rate (%) -->
     <g transform="translate(19.3575 236.50125) rotate(-90) scale(0.16 -0.16)">
      <defs>
       <path id="DejaVuSans-43" d="M 4122 4306 
L 4122 3641 
Q 3803 3938 3442 4084 
Q 3081 4231 2675 4231 
Q 1875 4231 1450 3742 
Q 1025 3253 1025 2328 
Q 1025 1406 1450 917 
Q 1875 428 2675 428 
Q 3081 428 3442 575 
Q 3803 722 4122 1019 
L 4122 359 
Q 3791 134 3420 21 
Q 3050 -91 2638 -91 
Q 1578 -91 968 557 
Q 359 1206 359 2328 
Q 359 3453 968 4101 
Q 1578 4750 2638 4750 
Q 3056 4750 3426 4639 
Q 3797 4528 4122 4306 
z
" transform="scale(0.015625)"/>
       <path id="DejaVuSans-63" d="M 3122 3366 
L 3122 2828 
Q 2878 2963 2633 3030 
Q 2388 3097 2138 3097 
Q 1578 3097 1268 2742 
Q 959 2388 959 1747 
Q 959 1106 1268 751 
Q 1578 397 2138 397 
Q 2388 397 2633 464 
Q 2878 531 3122 666 
L 3122 134 
Q 2881 22 2623 -34 
Q 2366 -91 2075 -91 
Q 1284 -91 818 406 
Q 353 903 353 1747 
Q 353 2603 823 3093 
Q 1294 3584 2113 3584 
Q 2378 3584 2631 3529 
Q 2884 3475 3122 3366 
z
" transform="scale(0.015625)"/>
       <path id="DejaVuSans-74" d="M 1172 4494 
L 1172 3500 
L 2356 3500 
L 2356 3053 
L 1172 3053 
L 1172 1153 
Q 1172 725 1289 603 
Q 1406 481 1766 481 
L 2356 481 
L 2356 0 
L 1766 0 
Q 1100 0 847 248 
Q 594 497 594 1153 
L 594 3053 
L 172 3053 
L 172 3500 
L 594 3500 
L 594 4494 
L 1172 4494 
z
" transform="scale(0.015625)"/>
       <path id="DejaVuSans-52" d="M 2841 2188 
Q 3044 2119 3236 1894 
Q 3428 1669 3622 1275 
L 4263 0 
L 3584 0 
L 2988 1197 
Q 2756 1666 2539 1819 
Q 2322 1972 1947 1972 
L 1259 1972 
L 1259 0 
L 628 0 
L 628 4666 
L 2053 4666 
Q 2853 4666 3247 4331 
Q 3641 3997 3641 3322 
Q 3641 2881 3436 2590 
Q 3231 2300 2841 2188 
z
M 1259 4147 
L 1259 2491 
L 2053 2491 
Q 2509 2491 2742 2702 
Q 2975 2913 2975 3322 
Q 2975 3731 2742 3939 
Q 2509 4147 2053 4147 
L 1259 4147 
z
" transform="scale(0.015625)"/>
       <path id="DejaVuSans-61" d="M 2194 1759 
Q 1497 1759 1228 1600 
Q 959 1441 959 1056 
Q 959 750 1161 570 
Q 1363 391 1709 391 
Q 2188 391 2477 730 
Q 2766 1069 2766 1631 
L 2766 1759 
L 2194 1759 
z
M 3341 1997 
L 3341 0 
L 2766 0 
L 2766 531 
Q 2569 213 2275 61 
Q 1981 -91 1556 -91 
Q 1019 -91 701 211 
Q 384 513 384 1019 
Q 384 1609 779 1909 
Q 1175 2209 1959 2209 
L 2766 2209 
L 2766 2266 
Q 2766 2663 2505 2880 
Q 2244 3097 1772 3097 
Q 1472 3097 1187 3025 
Q 903 2953 641 2809 
L 641 3341 
Q 956 3463 1253 3523 
Q 1550 3584 1831 3584 
Q 2591 3584 2966 3190 
Q 3341 2797 3341 1997 
z
" transform="scale(0.015625)"/>
       <path id="DejaVuSans-25" d="M 4653 2053 
Q 4381 2053 4226 1822 
Q 4072 1591 4072 1178 
Q 4072 772 4226 539 
Q 4381 306 4653 306 
Q 4919 306 5073 539 
Q 5228 772 5228 1178 
Q 5228 1588 5073 1820 
Q 4919 2053 4653 2053 
z
M 4653 2450 
Q 5147 2450 5437 2106 
Q 5728 1763 5728 1178 
Q 5728 594 5436 251 
Q 5144 -91 4653 -91 
Q 4153 -91 3862 251 
Q 3572 594 3572 1178 
Q 3572 1766 3864 2108 
Q 4156 2450 4653 2450 
z
M 1428 4353 
Q 1159 4353 1004 4120 
Q 850 3888 850 3481 
Q 850 3069 1003 2837 
Q 1156 2606 1428 2606 
Q 1700 2606 1854 2837 
Q 2009 3069 2009 3481 
Q 2009 3884 1853 4118 
Q 1697 4353 1428 4353 
z
M 4250 4750 
L 4750 4750 
L 1831 -91 
L 1331 -91 
L 4250 4750 
z
M 1428 4750 
Q 1922 4750 2215 4408 
Q 2509 4066 2509 3481 
Q 2509 2891 2217 2550 
Q 1925 2209 1428 2209 
Q 931 2209 642 2551 
Q 353 2894 353 3481 
Q 353 4063 643 4406 
Q 934 4750 1428 4750 
z
" transform="scale(0.015625)"/>
      </defs>
      <use xlink:href="#DejaVuSans-43"/>
      <use xlink:href="#DejaVuSans-6f" x="69.824219"/>
      <use xlink:href="#DejaVuSans-72" x="131.005859"/>
      <use xlink:href="#DejaVuSans-72" x="170.369141"/>
      <use xlink:href="#DejaVuSans-65" x="209.232422"/>
      <use xlink:href="#DejaVuSans-63" x="270.755859"/>
      <use xlink:href="#DejaVuSans-74" x="325.736328"/>
      <use xlink:href="#DejaVuSans-20" x="364.945312"/>
      <use xlink:href="#DejaVuSans-52" x="396.732422"/>
      <use xlink:href="#DejaVuSans-61" x="463.964844"/>
      <use xlink:href="#DejaVuSans-74" x="525.244141"/>
      <use xlink:href="#DejaVuSans-65" x="564.453125"/>
      <use xlink:href="#DejaVuSans-20" x="625.976562"/>
      <use xlink:href="#DejaVuSans-28" x="657.763672"/>
      <use xlink:href="#DejaVuSans-25" x="696.777344"/>
      <use xlink:href="#DejaVuSans-29" x="791.796875"/>
     </g>
    </g>
   </g>
   <g id="line2d_35">
    <path d="M 90.817955 296.03625 
L 91.092121 296.03625 
L 93.391581 212.03625 
L 104.1902 170.03625 
L 105.0127 170.03625 
L 105.224958 144.83625 
L 105.711382 144.83625 
L 110.115733 170.03625 
L 110.876323 188.03625 
L 110.947076 201.53625 
L 117.447473 212.03625 
L 117.474006 220.43625 
L 124.248569 227.308977 
L 129.555016 233.03625 
L 129.829182 237.882404 
L 144.687233 224.03625 
L 144.881803 224.03625 
L 145.315163 212.03625 
L 147.517338 201.53625 
L 148.835106 192.271544 
L 149.569164 184.03625 
L 149.763734 176.667829 
L 150.727739 170.03625 
L 151.638679 153.601467 
L 151.762496 159.53625 
L 152.461178 146.702917 
L 152.885694 143.03625 
L 153.540155 133.455605 
L 153.823166 130.66125 
L 153.955827 128.03625 
L 154.539536 125.565662 
L 154.919832 123.23625 
L 155.512385 121.03625 
L 156.635583 118.955169 
L 156.874373 115.113173 
L 157.04241 113.33625 
L 159.386091 110.03625 
L 159.580661 108.501366 
L 161.340632 107.03625 
L 161.402541 105.63625 
L 162.216196 103.014973 
L 162.340013 101.78625 
L 164.179581 100.607679 
L 165.15243 99.47625 
L 167.089283 98.389191 
L 167.434202 97.343942 
L 169.247238 96.338137 
L 170.697667 95.369583 
L 170.892236 94.43625 
L 171.935838 93.53625 
L 173.899223 92.667829 
L 174.138013 91.829353 
L 174.836695 91.019301 
L 175.225835 90.23625 
L 179.187981 88.745927 
L 179.435616 88.03625 
L 181.469754 87.34875 
L 182.053463 86.682404 
L 182.239188 86.03625 
L 184.264482 85.409384 
L 184.95432 84.800956 
L 188.518484 84.210163 
L 189.827407 83.63625 
L 189.89816 83.078504 
L 190.561466 82.53625 
L 191.870389 82.008853 
L 193.683425 81.495709 
L 194.399796 80.99625 
L 195.381488 80.509934 
L 199.72393 80.03625 
L 203.208497 79.124858 
L 203.969088 78.68625 
L 205.163038 78.258472 
L 205.331076 77.841128 
L 205.587554 77.43384 
L 205.861721 80.03625 
L 205.888253 79.612721 
L 205.950161 79.199041 
L 210.690587 78.794871 
L 211.663436 78.399886 
L 217.695097 78.013778 
L 218.022328 77.63625 
L 236.152688 77.267019 
L 236.957499 76.905815 
L 237.382014 76.552379 
L 239.486905 76.206463 
L 240.468598 75.53625 
L 243.864724 75.211508 
L 244.413056 74.893393 
L 247.994908 77.127159 
L 248.02144 81.461993 
L 248.463644 83.565662 
L 248.560929 83.181881 
L 248.950068 87.23625 
L 249.08273 96.727159 
L 249.330364 96.252466 
L 251.169932 95.78625 
L 254.150386 95.328285 
L 254.866757 94.878355 
L 255.362025 94.001767 
L 255.397401 94.001767 
L 255.627347 93.574712 
L 256.060707 93.154894 
L 258.775839 92.742132 
L 259.554118 92.33625 
L 264.692527 94.019721 
L 265.373521 93.61002 
L 265.948386 92.810444 
L 266.567472 92.42025 
L 266.77973 92.03625 
L 267.10696 93.642549 
L 267.151181 95.22375 
L 267.814487 96.780436 
L 267.867551 98.313173 
L 267.911772 97.898845 
L 282.035764 97.490795 
L 282.752134 96.692966 
L 282.98208 98.169583 
L 283.167806 97.771544 
L 292.91398 97.379316 
L 314.06017 96.992772 
L 314.617347 96.61179 
L 316.182749 94.43625 
L 317.120221 93.414628 
L 318.101914 94.774505 
L 318.128446 97.440224 
L 318.172667 97.088882 
L 329.157011 98.389191 
L 329.280828 98.03625 
L 331.421095 97.687863 
L 344.696056 97.343942 
L 345.37705 97.004403 
L 347.322747 96.338137 
L 351.382179 96.01125 
L 351.559061 93.53625 
L 351.815539 90.23625 
L 353.876209 89.981001 
L 353.982338 88.987601 
L 354.070779 90.100766 
L 358.970398 89.854432 
L 359.43029 89.369583 
L 359.81943 89.130987 
L 361.375987 88.894889 
L 361.809347 88.66125 
L 364.701361 88.430032 
L 375.155061 88.201198 
L 375.889119 87.974712 
L 376.101377 87.750536 
L 377.985166 87.528636 
L 378.241644 87.308977 
L 378.692692 87.308977 
L 380.912556 87.091526 
L 389.774322 86.663116 
L 390.358031 86.243147 
L 391.587358 86.03625 
L 392.082626 85.628483 
L 392.347948 86.644946 
L 402.951998 86.440096 
L 404.101728 86.237207 
L 404.384738 86.03625 
L 418.084215 85.837198 
L 418.950935 85.251203 
L 419.28701 85.059506 
L 419.879563 86.03625 
L 419.932627 87.003992 
L 420.012224 86.806892 
L 432.553127 86.611592 
L 435.701618 86.226295 
L 439.548792 86.03625 
L 439.982152 85.66125 
L 443.997364 85.292887 
L 444.138869 85.11114 
L 444.660669 84.930987 
L 452.434614 84.399886 
L 507.444779 84.225905 
L 509.788459 82.093393 
L 510.885125 81.633024 
L 511.769533 81.482033 
L 511.831442 81.33225 
L 513.069612 81.18366 
L 534.516501 81.03625 
L 536.249941 80.890005 
L 536.568328 80.744911 
L 543.360579 80.600956 
L 580.036971 80.458125 
L 580.346513 80.316406 
L 581.513932 80.03625 
L 582.548689 79.760388 
L 604.340497 79.624036 
L 604.720792 79.488721 
L 604.773857 79.354432 
L 605.950119 79.088882 
L 606.392323 77.217745 
L 631.102677 77.10008 
L 631.21765 76.41125 
L 631.491816 75.750536 
L 631.642166 75.012994 
L 631.721762 76.471894 
L 631.721762 76.471894 
" clip-path="url(#pee7980bec3)" style="fill: none; stroke: #1f77b4; stroke-width: 1.5; stroke-linecap: square"/>
   </g>
   <g id="line2d_36">
    <path d="M 90.817955 296.03625 
L 90.835643 170.03625 
L 93.347361 170.03625 
L 112.58323 212.03625 
L 126.680691 233.03625 
L 128.944775 245.63625 
L 129.165877 212.03625 
L 131.270767 224.03625 
L 131.438805 224.03625 
L 140.725086 201.53625 
L 141.335328 184.03625 
L 141.689091 184.03625 
L 142.485058 170.03625 
L 142.759224 170.03625 
L 145.580485 181.490795 
L 164.462592 170.03625 
L 165.090521 179.728558 
L 166.885869 170.03625 
L 167.160035 161.63625 
L 167.504954 170.03625 
L 167.566863 162.624485 
L 167.841029 156.03625 
L 168.000223 163.404671 
L 168.062131 157.43625 
L 168.548556 142.644946 
L 168.973071 138.53625 
L 169.954764 134.75625 
L 171.228311 122.243147 
L 171.511322 128.03625 
L 171.52901 133.455605 
L 172.077343 130.66125 
L 172.324977 128.03625 
L 172.537235 132.977426 
L 172.758337 130.43625 
L 173.324358 125.76598 
L 173.757718 130.246776 
L 174.916292 128.03625 
L 175.517689 125.93625 
L 176.702796 130.08503 
L 176.791236 128.03625 
L 178.29473 126.082762 
L 178.639649 124.218068 
L 178.904971 128.03625 
L 179.170293 124.461782 
L 179.223358 124.461782 
L 180.258115 128.03625 
L 180.629566 126.321964 
L 181.487442 124.67625 
L 181.823517 123.095074 
L 182.044619 126.420865 
L 185.423056 124.866439 
L 185.874104 121.927159 
L 186.192491 120.53625 
L 186.670071 119.194145 
L 188.686521 122.243147 
L 188.907623 125.188792 
L 189.18179 122.528053 
L 189.447112 121.262056 
L 190.030821 124.03625 
L 190.835632 126.72375 
L 192.126868 125.451635 
L 192.542539 123.021325 
L 193.082028 121.859779 
L 198.503448 124.384076 
L 198.733394 123.23625 
L 200.30764 122.120757 
L 200.511053 121.03625 
L 201.749224 119.981455 
L 202.111832 118.955169 
L 206.135887 117.95625 
L 206.348145 116.983618 
L 206.666532 116.03625 
L 210.902845 115.113173 
L 211.115103 114.213465 
L 214.590826 112.480694 
L 217.040635 111.646006 
L 217.6155 113.867575 
L 218.305338 113.03625 
L 219.844208 112.224485 
L 220.197971 111.431599 
L 221.427298 113.553491 
L 222.824662 111.991306 
L 230.71358 111.23625 
L 230.784332 110.497788 
L 231.120407 109.77538 
L 231.739493 109.068508 
L 231.987127 108.376676 
L 233.755942 107.699408 
L 234.153926 107.03625 
L 235.586667 106.386765 
L 236.61258 105.750536 
L 239.212739 105.127159 
L 239.283491 103.330368 
L 239.469217 103.330368 
L 240.442065 102.754697 
L 247.278538 104.613173 
L 247.340446 104.03625 
L 247.579236 103.470212 
L 249.99367 102.914755 
L 251.293749 102.369583 
L 253.602053 101.834415 
L 253.938128 103.599886 
L 256.228745 103.063277 
L 257.652641 102.018551 
L 262.826427 101.509934 
L 266.355214 101.010163 
L 272.696418 100.519009 
L 274.82784 100.03625 
L 275.066631 101.697267 
L 275.17276 101.212721 
L 282.212646 100.73625 
L 282.964392 99.353323 
L 283.141274 98.907218 
L 284.901245 98.46825 
L 289.358661 98.03625 
L 290.287289 97.611053 
L 294.081398 97.1925 
L 299.856581 96.780436 
L 305.879398 95.975181 
L 313.786004 95.581705 
L 316.527668 95.194145 
L 319.092451 94.43625 
L 319.578875 94.065662 
L 324.593467 93.700484 
L 324.734972 93.340598 
L 327.282067 92.98589 
L 327.299755 92.63625 
L 327.795023 92.291569 
L 330.342118 91.951743 
L 330.359806 91.61667 
L 334.746469 91.28625 
L 335.940419 90.960388 
L 342.759203 90.321964 
L 343.838181 90.009223 
L 343.873557 89.70068 
L 344.218476 89.39625 
L 364.22378 88.506838 
L 364.250313 88.218068 
L 364.630608 87.651635 
L 364.674828 87.37383 
L 365.063968 86.828703 
L 366.620526 86.56125 
L 366.67359 86.03625 
L 379.267557 85.524055 
L 381.169034 85.272614 
L 381.425512 85.024202 
L 387.466017 84.53625 
L 387.501394 84.296605 
L 387.908221 84.296605 
L 388.951822 84.059779 
L 390.189993 84.059779 
L 390.729482 83.59439 
L 391.092089 83.139698 
L 391.109777 83.139698 
L 391.773083 82.476928 
L 396.999933 82.260969 
L 397.300632 82.047423 
L 399.016383 82.047423 
L 401.696139 81.62741 
L 403.226164 81.420865 
L 404.853475 81.420865 
L 405.083421 81.216578 
L 411.451157 81.014511 
L 413.6268 82.176791 
L 415.245266 81.971734 
L 420.330611 81.76887 
L 420.737439 81.369583 
L 420.976229 81.173092 
L 421.011605 80.978658 
L 421.338836 80.978658 
L 431.969418 80.78625 
L 435.170974 80.595835 
L 435.851968 80.407384 
L 435.869656 80.220865 
L 441.255699 80.03625 
L 442.219704 79.31625 
L 448.357494 79.140728 
L 448.596284 78.966943 
L 449.463004 78.794871 
L 456.998158 78.455762 
L 459.067672 78.455762 
L 475.261179 77.797016 
L 476.004082 77.319269 
L 476.331313 77.163011 
L 479.506337 77.008213 
L 479.647842 76.854855 
L 492.37447 76.702917 
L 519.410816 76.552379 
L 520.427885 77.559186 
L 574.553642 77.406113 
L 576.897323 76.66125 
L 584.910058 77.63625 
L 593.860265 77.340215 
L 595.920935 77.194145 
L 670.626861 78.149787 
L 670.697614 79.881078 
L 670.998312 79.727237 
L 671.511269 79.727237 
L 701.837612 80.651635 
L 701.917209 83.378022 
L 702.200219 94.43625 
L 706.480753 95.239437 
L 707.957714 95.03625 
L 708.470671 95.830716 
L 708.488359 96.618927 
L 708.559112 96.208125 
L 708.939407 96.005122 
L 763.507368 95.803692 
L 764.418308 95.208664 
L 765.426533 94.627159 
L 804.561578 94.43625 
L 805.109911 94.058722 
L 815.43095 93.872071 
L 816.262293 93.502917 
L 825.336317 93.320383 
L 826.530267 93.139191 
L 834.932141 92.959327 
L 836.922059 92.603523 
L 837.496924 92.252856 
L 846.509039 92.079415 
L 846.862803 91.907218 
L 847.809119 91.566499 
L 847.809119 91.566499 
" clip-path="url(#pee7980bec3)" style="fill: none; stroke: #ff7f0e; stroke-width: 1.5; stroke-linecap: square"/>
   </g>
   <g id="line2d_37">
    <path d="M 90.817955 296.03625 
L 90.924083 170.03625 
L 97.212223 170.03625 
L 105.941328 212.03625 
L 120.923196 170.03625 
L 121.444997 170.03625 
L 123.841742 144.83625 
L 124.151284 144.83625 
L 125.186041 128.03625 
L 126.318083 152.03625 
L 126.937169 138.53625 
L 127.653539 128.03625 
L 127.856953 144.83625 
L 128.016146 188.03625 
L 128.17534 201.53625 
L 128.449506 207.095074 
L 128.546791 212.03625 
L 128.900554 216.457303 
L 129.316226 227.308977 
L 129.590392 230.29712 
L 129.714209 235.55625 
L 129.988376 240.03625 
L 130.457112 242.03625 
L 130.554397 243.898319 
L 131.005445 247.262056 
L 131.438805 248.78625 
L 132.040202 250.218068 
L 133.366814 251.565662 
L 133.587916 252.83625 
L 134.375038 255.171385 
L 135.666274 256.246776 
L 135.807779 250.805481 
L 137.382025 253.01186 
L 139.292346 254.03625 
L 139.73455 255.945341 
L 139.761082 256.83625 
L 140.097157 252.210163 
L 140.389011 253.142633 
L 140.521673 248.78625 
L 140.786995 249.750536 
L 140.893124 245.63625 
L 141.246887 246.624485 
L 141.282263 247.574712 
L 141.512209 249.369583 
L 142.069386 250.218068 
L 142.458526 251.03625 
L 142.476214 251.825724 
L 143.166052 252.587974 
L 143.457907 253.324386 
L 143.696697 249.83625 
L 143.935487 250.593627 
L 144.085836 247.262056 
L 144.368847 248.78625 
L 144.421911 249.513173 
L 145.023308 246.399886 
L 145.615862 247.140728 
L 145.730835 244.153897 
L 145.951937 241.253641 
L 146.128818 242.03625 
L 146.252635 239.247518 
L 146.500269 236.53625 
L 147.93301 226.404671 
L 147.941854 226.404671 
L 148.286773 224.03625 
L 148.472499 221.728558 
L 148.905859 219.479288 
L 149.08274 217.28625 
L 149.418815 218.258472 
L 149.454191 220.132636 
L 150.037901 213.989738 
L 150.453572 214.932802 
L 150.488949 216.755351 
L 150.639298 217.63625 
L 150.763115 215.728558 
L 151.559082 213.862337 
L 151.974754 212.03625 
L 152.072038 212.929867 
L 152.982978 211.152039 
L 153.124484 209.41125 
L 153.39865 207.706353 
L 154.54838 206.03625 
L 155.202842 204.399886 
L 155.662734 202.79625 
L 156.334884 201.224369 
L 156.724023 199.683309 
L 156.883217 198.172172 
L 157.245824 196.690096 
L 157.449238 197.63625 
L 157.537679 200.369583 
L 159.394935 197.527159 
L 160.128993 196.144358 
L 161.004557 194.78625 
L 162.46383 193.452179 
L 163.675469 192.141513 
L 163.781598 193.932802 
L 163.799286 194.805481 
L 164.727914 193.527775 
L 165.67423 191.03625 
L 165.877644 191.03625 
L 167.45189 189.821374 
L 168.194793 190.691988 
L 168.336298 193.22025 
L 168.504335 192.03625 
L 170.317371 190.870896 
L 170.361592 188.59439 
L 171.219467 187.482404 
L 171.29022 186.387395 
L 171.564386 185.308977 
L 172.979439 184.246776 
L 174.960512 184.246776 
L 180.452685 183.200429 
L 182.628328 182.169583 
L 182.946715 181.153897 
L 183.450827 180.153038 
L 184.512116 179.166685 
L 189.217166 178.194523 
L 189.367515 179.03625 
L 189.411736 178.078803 
L 189.730122 177.134842 
L 189.792031 178.78625 
L 190.473025 177.85694 
L 190.711815 176.94036 
L 190.844476 175.144358 
L 190.924073 172.539561 
L 191.118643 171.694145 
L 193.435791 170.859779 
L 195.372644 167.628607 
L 196.460466 166.846377 
L 196.495842 166.073986 
L 196.637347 165.31125 
L 196.672724 164.557989 
L 196.938046 163.814028 
L 198.48576 163.079195 
L 199.830059 163.889909 
L 201.554655 162.445889 
L 206.44543 161.736849 
L 206.843413 163.326191 
L 206.914166 164.878355 
L 207.320993 164.175785 
L 207.524407 163.481337 
L 209.284379 162.794871 
L 212.839698 162.11625 
L 214.21053 161.445341 
L 215.351416 162.205742 
L 229.333903 162.957598 
L 229.882236 162.293233 
L 230.032586 163.03625 
L 231.120407 162.378791 
L 231.642208 162.378791 
L 231.792557 161.728558 
L 234.366184 160.449293 
L 234.887984 159.820034 
L 237.833062 159.19754 
L 238.098385 158.581705 
L 238.832443 157.97242 
L 249.710659 157.369583 
L 258.422076 156.773092 
L 260.217424 156.182847 
L 260.473902 155.59875 
L 261.676697 155.020706 
L 261.712073 154.448621 
L 262.092368 154.448621 
L 270.043194 155.174712 
L 270.741876 154.607679 
L 271.237145 154.607679 
L 271.85623 153.490795 
L 272.546068 152.940773 
L 273.784239 152.39625 
L 283.141274 152.39625 
L 283.80458 151.323379 
L 284.795116 150.794871 
L 285.069283 150.794871 
L 285.962535 150.271544 
L 286.413583 149.240133 
L 286.785034 149.240133 
L 286.82041 149.949293 
L 287.236082 149.440096 
L 290.163472 149.440096 
L 291.268981 148.935772 
L 297.282954 148.43625 
L 303.933701 147.941463 
L 307.320983 147.451344 
L 307.391735 146.965827 
L 308.665283 146.484848 
L 308.974825 146.008343 
L 311.212377 145.068508 
L 311.460011 144.605057 
L 311.981812 144.605057 
L 312.19407 144.145839 
L 313.467617 143.690795 
L 314.042482 143.690795 
L 318.296484 143.23987 
L 318.358392 142.793007 
L 318.747532 142.350151 
L 318.782908 141.91125 
L 326.990212 141.47625 
L 337.647326 141.47625 
L 339.256948 141.0451 
L 339.822969 140.617748 
L 340.910791 140.194145 
L 344.793341 139.774241 
L 345.447803 138.945341 
L 345.500867 138.945341 
L 345.757346 138.53625 
L 346.190705 138.130671 
L 346.783259 137.728558 
L 348.631671 137.329867 
L 348.658203 136.934555 
L 351.541373 136.934555 
L 353.071398 136.542579 
L 355.229353 137.212721 
L 355.282418 139.189777 
L 356.007632 138.796581 
L 357.599566 138.40662 
L 369.158776 137.63625 
L 370.087404 138.280152 
L 370.175845 140.80425 
L 370.246598 140.41872 
L 371.192914 138.906838 
L 371.679338 138.906838 
L 376.817747 138.53625 
L 379.692073 139.14909 
L 380.072368 138.780436 
L 380.691454 138.414628 
L 383.574623 138.051635 
L 385.28153 137.33396 
L 391.268971 136.979216 
L 392.259508 136.627159 
L 393.577275 136.277759 
L 396.593106 135.930987 
L 397.769368 135.586812 
L 400.210334 135.245205 
L 404.305142 134.906138 
L 404.897695 134.569583 
L 405.95014 134.235512 
L 405.967828 133.903897 
L 406.312747 133.903897 
L 406.81686 133.574712 
L 407.798553 133.247929 
L 408.912906 133.247929 
L 410.336803 132.923523 
L 416.660319 132.923523 
L 417.058302 132.601467 
L 418.508731 132.601467 
L 420.00338 132.281737 
L 424.876467 132.281737 
L 425.4248 131.649153 
L 429.413479 131.33625 
L 429.448855 131.025574 
L 431.686407 131.025574 
L 431.951729 130.717101 
L 434.764146 130.410808 
L 435.913876 130.106673 
L 445.447792 130.688882 
L 445.783867 130.08503 
L 446.783248 129.194871 
L 447.234296 128.611592 
L 449.224214 128.322939 
L 449.763702 128.03625 
L 454.20343 127.751504 
L 455.715767 127.468682 
L 455.724611 127.187765 
L 456.096062 127.187765 
L 493.975248 126.908733 
L 494.505893 126.35625 
L 494.956941 125.811084 
L 494.992317 125.811084 
L 500.935537 125.5412 
L 501.183172 125.273092 
L 685.918272 125.006742 
L 686.475449 124.479247 
L 686.917653 123.95858 
L 687.819749 123.700766 
L 688.111603 123.44461 
L 688.155824 123.190096 
L 766.89465 122.937208 
L 767.089219 122.685932 
L 768.964164 122.43625 
L 769.998921 122.985617 
L 772.961687 122.736565 
L 796.009354 122.48908 
L 796.663816 121.99875 
L 797.371342 121.27464 
L 798.01696 121.03625 
L 844.642939 120.799327 
L 845.766137 119.866037 
L 845.766137 119.866037 
" clip-path="url(#pee7980bec3)" style="fill: none; stroke: #2ca02c; stroke-width: 1.5; stroke-linecap: square"/>
   </g>
   <g id="line2d_38">
    <path d="M 90.817955 296.03625 
L 91.24247 170.03625 
L 91.454728 170.03625 
L 92.807872 212.03625 
L 93.648059 233.03625 
L 95.425719 245.63625 
L 97.495233 254.03625 
L 98.043566 260.03625 
L 98.44155 233.03625 
L 99.149076 240.03625 
L 99.228673 220.43625 
L 100.298806 233.03625 
L 100.431467 218.497788 
L 100.838295 206.03625 
L 101.307031 195.23625 
L 101.492757 185.78625 
L 102.120686 192.271544 
L 102.297568 184.03625 
L 102.341788 176.667829 
L 102.571734 182.63625 
L 103.694932 188.03625 
L 103.90719 192.945341 
L 104.252109 186.471033 
L 105.888263 191.03625 
L 106.8788 195.23625 
L 108.302697 199.113173 
L 109.107508 202.702917 
L 109.470115 197.03625 
L 120.312955 200.450043 
L 120.383707 195.23625 
L 120.923196 190.358831 
L 121.498061 181.490795 
L 121.533437 177.448015 
L 121.763383 180.83625 
L 121.772227 184.03625 
L 121.825292 180.252466 
L 121.878356 183.299408 
L 121.8872 183.299408 
L 122.187899 179.728558 
L 122.249808 170.03625 
L 122.585883 172.966483 
L 123.877118 170.03625 
L 124.416607 167.23625 
L 125.159509 170.03625 
L 127.821577 172.717101 
L 129.157032 175.28625 
L 129.714209 177.750536 
L 130.121037 175.07625 
L 130.731278 172.506838 
L 130.757811 170.03625 
L 130.943536 167.658892 
L 131.562622 170.03625 
L 131.721815 176.667829 
L 132.146331 178.725905 
L 132.332056 176.44303 
L 133.154556 174.23625 
L 135.285979 172.101824 
L 135.409796 168.03625 
L 135.949284 166.09875 
L 136.055413 168.097788 
L 136.718719 166.218068 
L 138.558287 166.218068 
L 140.176754 164.394459 
L 140.247506 162.624485 
L 140.389011 160.905815 
L 141.618338 159.23625 
L 141.653715 157.613715 
L 141.874817 156.03625 
L 143.068767 154.502003 
L 143.66132 153.009223 
L 143.705541 151.55625 
L 143.820514 151.55625 
L 145.67777 150.141513 
L 147.88879 152.03625 
L 147.97723 150.651635 
L 148.401746 149.302073 
L 148.445966 147.98625 
L 148.60516 149.814028 
L 149.215401 148.524055 
L 150.197094 148.524055 
L 151.037281 147.265166 
L 151.081502 144.83625 
L 151.638679 144.83625 
L 157.564211 143.664157 
L 158.068323 142.519009 
L 158.280581 141.399886 
L 158.351334 140.305913 
L 158.563592 139.23625 
L 158.58128 138.190096 
L 159.10308 139.905815 
L 161.756304 138.87496 
L 164.489124 136.878355 
L 166.027993 136.878355 
L 166.266784 138.53625 
L 166.364068 137.562023 
L 167.434202 136.607679 
L 168.239013 135.672614 
L 168.274389 134.75625 
L 168.513179 133.858032 
L 169.008448 135.448015 
L 169.052668 137.007124 
L 169.096889 136.113173 
L 169.309146 136.113173 
L 171.750112 137.63625 
L 179.541745 139.13059 
L 179.824755 140.596998 
L 181.947334 139.702917 
L 182.380694 138.825241 
L 182.61064 137.963523 
L 183.026311 137.117331 
L 183.707305 136.28625 
L 183.724993 135.469878 
L 185.449589 136.878355 
L 186.157115 136.071033 
L 187.996683 137.450043 
L 189.579773 136.651635 
L 189.818563 135.866758 
L 189.845095 135.095074 
L 190.083886 134.33625 
L 194.49708 133.589969 
L 194.514769 132.855922 
L 194.983505 131.423347 
L 195.522993 130.03625 
L 195.691031 129.359085 
L 196.044794 128.6925 
L 198.857211 128.03625 
L 199.768151 127.390096 
L 200.060005 126.753807 
L 206.109355 126.127159 
L 206.569247 124.901922 
L 207.1618 124.302917 
L 207.568628 123.131141 
L 207.59516 122.557989 
L 208.081584 121.43625 
L 208.329218 120.887314 
L 214.396256 122.120757 
L 219.791143 123.336949 
L 220.419073 121.707483 
L 220.436761 121.707483 
L 221.949098 118.153897 
L 224.743827 117.672614 
L 229.148178 117.672614 
L 229.254307 117.19754 
L 231.518391 116.728558 
L 232.747718 117.870645 
L 233.039572 117.403339 
L 234.755323 116.94191 
L 234.83492 116.48625 
L 235.763548 116.03625 
L 236.134999 115.591806 
L 236.161532 115.152814 
L 238.761691 114.719177 
L 238.788223 114.290795 
L 257.670329 113.867575 
L 257.71455 113.449424 
L 261.853578 113.03625 
L 263.719679 112.627966 
L 271.157548 112.224485 
L 271.210613 111.825724 
L 274.898593 111.431599 
L 289.411725 112.498678 
L 290.260757 111.71625 
L 291.0921 110.951504 
L 291.896911 109.83625 
L 293.223523 109.472714 
L 296.504676 110.497788 
L 296.566584 114.487863 
L 296.637337 113.738378 
L 296.646181 113.738378 
L 296.814218 112.28625 
L 297.822443 111.932623 
L 299.042926 111.932623 
L 299.653167 111.582642 
L 299.759296 111.23625 
L 301.536956 110.893393 
L 301.625397 110.218068 
L 312.149849 110.218068 
L 312.583209 111.151828 
L 313.77716 110.81625 
L 313.803692 110.484011 
L 314.086703 110.155062 
L 324.062822 110.155062 
L 325.654756 111.070733 
L 325.796262 110.416738 
L 325.849326 109.146298 
L 326.999056 110.03625 
L 327.096341 108.802605 
L 332.119777 108.802605 
L 332.747707 108.501366 
L 336.161521 108.501366 
L 337.037085 108.202917 
L 337.098993 107.907218 
L 350.144008 107.614232 
L 350.373954 106.468682 
L 351.364491 106.468682 
L 352.213523 105.91125 
L 353.124463 105.093519 
L 354.415698 104.03625 
L 354.44223 104.03625 
L 355.344326 104.863836 
L 355.441611 104.602774 
L 370.069716 104.602774 
L 370.370415 104.343942 
L 370.423479 104.087314 
L 370.786086 104.087314 
L 417.880801 103.83286 
L 418.163812 103.580554 
L 418.349538 102.83625 
L 418.968623 102.592267 
L 419.145505 102.110324 
L 419.260478 102.905102 
L 425.327515 102.426494 
L 425.398268 101.722997 
L 425.575149 101.722997 
L 425.796251 101.263342 
L 428.078023 101.263342 
L 431.385708 101.03625 
L 433.021863 100.145625 
L 433.747077 99.495709 
L 434.083152 99.282404 
L 435.763527 100.03625 
L 443.40481 100.03625 
L 443.83817 99.82251 
L 454.05308 99.610394 
L 454.875579 99.190967 
L 456.35254 98.983618 
L 471.926962 98.777823 
L 473.775374 97.574712 
L 473.819594 97.379316 
L 475.729915 98.101705 
L 545.102863 97.905815 
L 547.083936 96.388363 
L 593.975238 96.204671 
L 595.10728 95.482617 
L 600.882462 96.174181 
L 703.226133 95.817072 
L 704.128228 95.640346 
L 704.773846 95.117331 
L 704.950728 95.117331 
L 709.646933 94.945341 
L 812.530092 94.945341 
L 813.635602 94.604812 
L 814.272375 94.102475 
L 815.537078 94.102475 
L 815.537078 94.102475 
" clip-path="url(#pee7980bec3)" style="fill: none; stroke: #d62728; stroke-width: 1.5; stroke-linecap: square"/>
   </g>
   <g id="line2d_39">
    <path d="M 90.817955 44.03625 
L 102.677863 44.03625 
L 104.437835 107.03625 
L 106.905332 144.83625 
L 140.707398 170.03625 
L 157.767625 152.03625 
L 157.873754 138.53625 
L 158.660877 128.03625 
L 158.77585 128.03625 
L 159.262274 119.63625 
L 159.315338 112.763523 
L 160.279343 98.03625 
L 162.198508 94.43625 
L 164.436059 91.28625 
L 164.966704 103.330368 
L 167.177724 100.03625 
L 170.980677 97.088882 
L 171.661671 94.43625 
L 172.386886 92.03625 
L 173.262449 89.854432 
L 178.524676 87.862337 
L 180.045857 86.03625 
L 180.249271 84.35625 
L 180.8772 81.369583 
L 181.929646 80.03625 
L 185.697223 78.794871 
L 185.86526 77.63625 
L 186.29862 84.681411 
L 186.316308 83.41125 
L 186.333996 83.41125 
L 187.501415 81.095074 
L 188.456575 80.03625 
L 191.339745 79.03625 
L 197.822454 77.194145 
L 200.387236 76.343942 
L 200.608338 75.53625 
L 203.367691 74.03625 
L 204.225566 73.338576 
L 204.42898 72.672614 
L 207.427122 72.03625 
L 209.478948 70.844761 
L 217.916199 70.28625 
L 218.128457 69.750536 
L 225.911245 68.267019 
L 226.2031 67.809835 
L 228.095733 67.369583 
L 231.819089 66.945341 
L 232.013659 66.53625 
L 234.826076 65.760388 
L 237.019407 65.392182 
L 237.550052 65.03625 
L 239.575346 64.691988 
L 240.610103 64.358831 
L 243.254482 64.03625 
L 243.475584 63.72375 
L 247.58808 63.127159 
L 247.844559 62.84222 
L 247.986064 62.29712 
L 253.557833 61.782729 
L 255.193987 61.53625 
L 255.945734 61.296524 
L 258.289415 61.063277 
L 264.506801 61.063277 
L 265.391209 60.83625 
L 267.142337 60.615197 
L 271.228301 60.399886 
L 272.439939 60.190096 
L 277.985176 60.190096 
L 278.223966 59.985617 
L 279.187971 59.591806 
L 280.081223 59.402104 
L 283.052833 59.03625 
L 283.088209 58.859779 
L 283.309311 58.687413 
L 288.138178 58.519009 
L 288.748419 58.03625 
L 290.870998 57.882404 
L 292.268362 57.440505 
L 295.248816 57.16125 
L 295.284193 57.025941 
L 296.540052 56.63625 
L 296.593116 56.511498 
L 296.761154 56.389191 
L 301.581176 56.151635 
L 301.837655 55.923042 
L 301.855343 55.811951 
L 303.473809 55.702917 
L 303.624158 54.992772 
L 305.278001 54.898319 
L 306.790338 54.624485 
L 314.511218 54.364119 
L 317.597801 53.88 
L 317.916188 53.728558 
L 320.082987 53.439235 
L 329.086259 53.23333 
L 333.366792 53.03625 
L 340.840038 52.725905 
L 344.085815 52.325724 
L 350.612744 52.165282 
L 353.106774 51.814028 
L 353.142151 51.766311 
L 356.520589 51.626611 
L 357.121986 51.491871 
L 361.305235 51.361831 
L 361.429052 51.195341 
L 361.818191 51.03625 
L 361.835879 50.997576 
L 363.162491 52.343942 
L 363.189023 52.298545 
L 363.70198 52.253641 
L 367.045041 52.078803 
L 391.277815 51.95248 
L 393.939882 51.750536 
L 394.258269 52.990565 
L 394.788914 52.85625 
L 395.045392 52.517019 
L 395.06308 52.476441 
L 403.447266 52.279241 
L 403.668368 52.127993 
L 408.072719 51.982196 
L 408.240756 51.807175 
L 414.626181 51.672614 
L 414.643869 51.639698 
L 414.679245 52.688611 
L 414.73231 52.578623 
L 414.988788 52.542579 
L 450.250127 52.401395 
L 461.146031 53.408151 
L 491.118611 53.255762 
L 491.162831 53.218436 
L 492.940491 53.03625 
L 501.298145 52.895625 
L 501.315833 52.861153 
L 595.478731 52.759327 
L 595.549483 52.627159 
L 597.194482 52.530632 
L 597.459804 52.498937 
L 599.458566 52.313622 
L 599.75042 52.050384 
L 615.165648 51.91125 
L 615.245245 51.776864 
L 615.687449 51.646988 
L 667.646407 51.521399 
L 668.884578 51.376056 
L 668.91111 51.328855 
L 669.565572 51.23625 
L 671.21057 51.168325 
L 734.454572 51.03625 
L 734.684518 50.950884 
L 736.311828 50.847061 
L 739.601825 50.706838 
L 741.069942 50.44303 
L 741.158383 50.398114 
L 741.406017 50.353799 
L 745.845744 50.33625 
L 822.338174 50.232971 
L 824.522662 49.957921 
L 825.115215 49.792595 
L 825.177123 49.749096 
L 845.518503 49.385307 
L 845.518503 49.385307 
" clip-path="url(#pee7980bec3)" style="fill: none; stroke: #9467bd; stroke-width: 1.5; stroke-linecap: square"/>
   </g>
   <g id="line2d_40">
    <path d="M 90.817955 44.03625 
L 90.977148 44.03625 
L 91.534325 128.03625 
L 92.772496 170.03625 
L 93.701124 144.83625 
L 93.763033 170.03625 
L 95.045424 188.03625 
L 96.504697 201.53625 
L 99.538215 212.03625 
L 100.511064 212.03625 
L 101.899584 220.43625 
L 102.049934 204.399886 
L 102.27988 204.399886 
L 103.155443 212.03625 
L 104.14598 218.497788 
L 104.163668 224.03625 
L 105.914796 228.83625 
L 107.152967 217.28625 
L 107.303316 221.918603 
L 107.639391 221.918603 
L 109.717749 212.03625 
L 110.416431 216.457303 
L 113.034278 207.83625 
L 114.79425 200.03625 
L 114.909223 200.03625 
L 116.156238 208.384076 
L 119.083628 212.03625 
L 124.743838 215.39625 
L 127.096362 218.497788 
L 130.625149 221.369583 
L 132.172863 224.03625 
L 136.3738 226.519009 
L 136.391488 231.003992 
L 144.33347 233.03625 
L 147.039758 234.945341 
L 150.895776 236.742132 
L 157.811845 238.43625 
L 158.086011 240.03625 
L 158.236361 244.343942 
L 158.38671 245.63625 
L 159.120769 240.719177 
L 159.359559 242.03625 
L 163.489743 237.431599 
L 164.329931 233.03625 
L 164.754446 234.43625 
L 165.099365 226.334122 
L 165.240871 222.53625 
L 165.444284 224.03625 
L 165.488505 220.43625 
L 165.709607 216.977426 
L 166.081058 218.497788 
L 166.266784 212.03625 
L 167.221944 197.798962 
L 167.425358 195.23625 
L 167.743745 196.888709 
L 167.92947 192.03625 
L 167.947158 192.03625 
L 168.247857 187.482404 
L 168.389362 185.308977 
L 168.858098 183.200429 
L 168.973071 184.859779 
L 170.626914 186.471033 
L 170.759575 188.03625 
L 171.016053 186.008081 
L 172.236536 184.03625 
L 172.714116 182.118442 
L 173.076724 178.43625 
L 174.916292 179.983618 
L 175.199302 178.218068 
L 178.250509 176.497788 
L 183.13244 174.82106 
L 183.928407 173.18625 
L 184.47674 167.03625 
L 187.315689 165.589191 
L 188.129344 164.175785 
L 193.152781 162.794871 
L 197.689793 164.308977 
L 198.131996 160.343942 
L 199.644334 161.818859 
L 199.662022 160.552379 
L 199.936188 158.099408 
L 200.909037 156.91125 
L 204.260942 155.74759 
L 205.233791 154.607679 
L 207.099891 153.490795 
L 211.451178 152.39625 
L 212.255989 151.323379 
L 213.423407 150.271544 
L 219.00402 149.240133 
L 229.84686 148.228558 
L 229.89108 147.23625 
L 230.023742 146.262665 
L 230.059118 145.307278 
L 230.218311 143.449094 
L 231.23538 142.545341 
L 231.297289 141.657872 
L 231.518391 143.03625 
L 231.536079 144.390232 
L 232.314358 144.390232 
L 232.862691 140.959327 
L 233.791319 140.137945 
L 234.021265 141.448015 
L 236.6568 140.63625 
L 238.71747 139.837903 
L 239.239271 139.837903 
L 239.451529 139.052643 
L 241.627172 138.280152 
L 242.776902 138.280152 
L 257.378475 139.552379 
L 257.449227 138.78825 
L 257.80299 138.03625 
L 258.103689 136.5675 
L 258.121377 136.5675 
L 258.510517 135.143942 
L 258.811215 133.763523 
L 271.679349 133.088882 
L 272.00658 131.769583 
L 272.227682 131.124485 
L 278.683858 130.488805 
L 279.285256 128.03625 
L 284.096434 127.444701 
L 284.246783 126.861425 
L 287.554469 126.28625 
L 288.093957 124.607679 
L 288.421188 125.76598 
L 288.438876 126.908733 
L 289.915837 126.35625 
L 294.214059 127.479959 
L 295.151532 126.930987 
L 299.467442 126.389191 
L 299.653167 125.854432 
L 299.6797 125.326573 
L 310.973587 124.805481 
L 312.609741 124.291027 
L 312.786623 123.783085 
L 319.755756 122.78625 
L 319.923794 122.29712 
L 343.961998 123.369583 
L 402.439041 122.882876 
L 402.837025 121.927159 
L 403.464954 121.457937 
L 404.703125 120.994334 
L 407.267908 120.53625 
L 408.196536 120.083587 
L 408.506079 120.083587 
L 408.674116 119.63625 
L 409.080944 119.194145 
L 412.653951 118.75718 
L 414.069004 118.325267 
L 414.502364 117.47625 
L 420.0476 116.646419 
L 422.205556 116.238497 
L 422.479722 115.835133 
L 424.894155 115.43625 
L 433.596728 116.43404 
L 442.626532 116.03625 
L 442.741505 115.642807 
L 443.024515 115.253641 
L 443.413654 115.253641 
L 446.57099 114.868682 
L 448.136392 114.487863 
L 448.295585 114.111116 
L 453.018323 113.738378 
L 453.345554 113.004671 
L 453.867355 113.962952 
L 454.96402 114.91125 
L 454.972864 115.849722 
L 455.998777 116.778518 
L 465.594602 116.03625 
L 465.948365 115.308977 
L 472.944031 114.950823 
L 473.235885 114.245205 
L 474.412148 113.897636 
L 484.84816 113.553491 
L 568.743083 113.212721 
L 569.424077 112.875274 
L 572.183429 112.541104 
L 579.311756 111.882404 
L 579.621299 111.557781 
L 595.036527 111.23625 
L 595.655612 109.980175 
L 647.269651 109.673459 
L 647.76492 109.068508 
L 647.950645 108.770195 
L 648.277876 108.474606 
L 654.636768 108.181705 
L 727.370465 107.891454 
L 728.016083 107.03625 
L 728.396378 106.478728 
L 771.077899 106.203651 
L 771.635075 105.392772 
L 771.661608 105.392772 
L 772.422198 104.343942 
L 777.746333 104.087314 
L 832.827251 103.83286 
L 833.154482 103.330368 
L 833.154482 103.330368 
" clip-path="url(#pee7980bec3)" style="fill: none; stroke: #8c564b; stroke-width: 1.5; stroke-linecap: square"/>
   </g>
   <g id="line2d_41">
    <path d="M 90.817955 296.03625 
L 97.132626 296.03625 
L 97.256443 268.03625 
L 97.406793 268.03625 
L 98.848377 270.83625 
L 98.901442 250.218068 
L 99.237517 250.218068 
L 99.653188 233.03625 
L 99.838914 206.03625 
L 100.042328 212.03625 
L 100.599505 201.53625 
L 101.050553 201.53625 
L 101.41316 192.271544 
L 103.871814 176.667829 
L 106.073989 176.667829 
L 107.489041 170.03625 
L 107.674767 164.03625 
L 108.311541 164.03625 
L 109.496647 158.581705 
L 109.646997 158.581705 
L 109.912319 153.601467 
L 110.009604 149.03625 
L 110.186485 149.03625 
L 114.422799 154.91625 
L 114.484707 150.651635 
L 114.705809 150.651635 
L 116.846076 146.702917 
L 117.058334 139.622457 
L 117.208683 139.622457 
L 149.931772 144.83625 
L 163.622404 141.584637 
L 164.108829 138.53625 
L 165.178962 135.672614 
L 165.523881 132.977426 
L 165.638854 132.977426 
L 166.019149 128.03625 
L 166.726676 132.576791 
L 166.885869 130.246776 
L 167.593395 125.93625 
L 167.787965 123.938689 
L 168.221325 122.03625 
L 168.336298 122.03625 
L 168.937695 126.082762 
L 169.088044 124.218068 
L 169.618689 122.43625 
L 170.317371 126.210163 
L 171.09565 124.461782 
L 171.838553 128.03625 
L 176.578978 126.321964 
L 176.623199 124.67625 
L 177.109623 121.574712 
L 177.118467 121.574712 
L 178.418547 118.702917 
L 179.196826 117.345341 
L 179.647874 114.773092 
L 181.381313 113.553491 
L 184.255638 112.375233 
L 188.191253 110.134611 
L 189.809719 109.068508 
L 193.435791 108.03625 
L 194.364419 107.03625 
L 196.336649 106.067019 
L 196.593127 105.127159 
L 196.619659 104.215354 
L 196.920358 103.330368 
L 197.176836 101.63625 
L 197.451002 100.824982 
L 197.972803 100.03625 
L 198.008179 98.522736 
L 198.441539 97.088882 
L 198.689173 96.399886 
L 200.263419 95.074225 
L 200.422613 94.43625 
L 202.925487 94.43625 
L 203.013927 93.814028 
L 204.252098 93.206982 
L 204.296319 92.614563 
L 205.569866 92.03625 
L 206.312769 91.471544 
L 206.622311 91.471544 
L 207.091047 90.919971 
L 209.558545 90.381078 
L 209.620454 89.854432 
L 211.415802 89.339621 
L 211.548463 88.343942 
L 212.397494 86.929867 
L 212.928139 86.478355 
L 213.069644 86.03625 
L 214.88268 86.03625 
L 214.935745 85.60326 
L 215.31604 85.179107 
L 217.058323 84.763523 
L 222.921947 84.763523 
L 233.428712 83.957042 
L 233.632125 83.565662 
L 233.764787 82.805481 
L 233.791319 82.805481 
L 234.746479 81.027076 
L 234.923361 82.981705 
L 234.958737 84.901115 
L 235.02949 84.53625 
L 240.53935 86.407931 
L 241.459134 86.03625 
L 241.945559 86.03625 
L 248.463644 85.671033 
L 249.392272 85.312112 
L 249.577998 84.959327 
L 249.754879 84.959327 
L 250.152863 83.93625 
L 250.329745 83.606498 
L 258.094845 82.963079 
L 258.130221 82.34025 
L 258.996941 82.03625 
L 259.050005 83.721289 
L 259.120758 83.106017 
L 259.218043 82.509532 
L 259.53643 84.127159 
L 260.509278 83.825724 
L 261.057611 82.948015 
L 267.151181 82.663987 
L 267.160025 82.384076 
L 269.937065 82.384076 
L 275.668028 81.83625 
L 275.809533 81.568165 
L 277.295338 81.303856 
L 277.71101 81.043243 
L 277.772918 80.78625 
L 277.843671 82.270733 
L 281.620092 82.008853 
L 286.961915 81.750536 
L 287.094577 81.495709 
L 287.855167 81.495709 
L 288.147022 80.99625 
L 297.336019 80.509934 
L 297.565965 80.271544 
L 297.601341 80.03625 
L 300.307629 79.803992 
L 300.847118 79.574712 
L 304.570475 79.574712 
L 307.68359 79.348352 
L 307.816251 79.124858 
L 307.957756 79.124858 
L 308.647595 78.471033 
L 308.656439 78.471033 
L 314.01595 78.258472 
L 314.042482 78.04852 
L 314.520062 77.63625 
L 314.758852 77.43384 
L 319.640783 77.233855 
L 319.791133 77.03625 
L 320.136052 76.840984 
L 332.040181 76.268808 
L 332.23475 76.268808 
L 335.843134 76.082493 
L 336.285338 75.53625 
L 337.13437 74.666084 
L 338.602487 74.497788 
L 342.087053 74.331332 
L 343.148343 74.166685 
L 348.728956 73.842702 
L 348.826241 75.030902 
L 349.542611 74.3818 
L 352.921049 74.067338 
L 355.379702 74.067338 
L 355.866127 73.607679 
L 362.225019 73.308977 
L 362.260395 73.161878 
L 363.816953 73.161878 
L 364.029211 72.872071 
L 364.382974 72.587974 
L 366.965445 72.448015 
L 369.291437 72.448015 
L 369.654044 72.309421 
L 375.623797 73.395473 
L 375.809523 73.253641 
L 376.198662 73.113173 
L 376.915032 72.974049 
L 377.631403 72.974049 
L 378.135515 72.430616 
L 387.952442 72.166483 
L 388.147011 71.779369 
L 391.790771 71.779369 
L 391.994185 72.803373 
L 392.029562 72.672614 
L 395.248806 72.672614 
L 395.752918 72.287371 
L 410.796695 72.16125 
L 411.937581 71.427554 
L 411.972957 71.427554 
L 412.627419 70.959327 
L 429.095092 70.731165 
L 429.74071 70.28625 
L 437.090139 70.177329 
L 437.143203 71.11063 
L 437.841885 71.11063 
L 441.291076 72.03625 
L 442.88301 71.807679 
L 443.378278 71.471734 
L 452.735313 71.25225 
L 453.044855 71.14382 
L 456.317164 70.929531 
L 465.506161 70.718603 
L 465.833392 70.510958 
L 484.149478 71.279493 
L 487.793238 72.143942 
L 487.828614 73.853044 
L 496.106671 73.627159 
L 496.168579 73.515495 
L 499.087125 73.294677 
L 499.255163 73.185504 
L 499.785807 73.077142 
L 572.961708 72.862818 
L 573.103214 72.756838 
L 574.491734 73.574712 
L 577.401435 74.386615 
L 577.49872 75.992772 
L 579.462106 75.53625 
L 584.715488 75.312846 
L 584.892369 75.202328 
L 591.021316 74.983618 
L 591.445831 74.767957 
L 602.837004 75.53625 
L 603.367648 77.05694 
L 603.579906 83.64829 
L 691.047837 84.35625 
L 691.100902 85.758104 
L 691.215875 85.620408 
L 692.250632 85.212721 
L 695.071893 84.945341 
L 707.223656 84.812949 
L 764.144141 84.681411 
L 764.595189 84.420865 
L 769.609782 84.291841 
L 769.760131 84.163639 
L 773.527708 84.03625 
L 774.173326 83.534683 
L 795.372581 83.41125 
L 796.495779 83.045538 
L 796.982203 82.805481 
L 802.757386 82.686557 
L 802.934267 82.56836 
L 803.270342 82.450884 
L 826.901719 82.334122 
L 827.591557 82.218068 
L 830.536635 81.988057 
L 830.580855 81.874088 
L 838.770471 81.64819 
L 839.35418 81.424974 
L 845.430062 81.204392 
L 851.727045 80.986397 
L 851.727045 80.986397 
" clip-path="url(#pee7980bec3)" style="fill: none; stroke: #e377c2; stroke-width: 1.5; stroke-linecap: square"/>
   </g>
   <g id="patch_3">
    <path d="M 52.7725 308.63625 
L 52.7725 31.43625 
" style="fill: none; stroke: #000000; stroke-width: 0.8; stroke-linejoin: miter; stroke-linecap: square"/>
   </g>
   <g id="patch_4">
    <path d="M 889.7725 308.63625 
L 889.7725 31.43625 
" style="fill: none; stroke: #000000; stroke-width: 0.8; stroke-linejoin: miter; stroke-linecap: square"/>
   </g>
   <g id="patch_5">
    <path d="M 52.7725 308.63625 
L 889.7725 308.63625 
" style="fill: none; stroke: #000000; stroke-width: 0.8; stroke-linejoin: miter; stroke-linecap: square"/>
   </g>
   <g id="patch_6">
    <path d="M 52.7725 31.43625 
L 889.7725 31.43625 
" style="fill: none; stroke: #000000; stroke-width: 0.8; stroke-linejoin: miter; stroke-linecap: square"/>
   </g>
   <g id="text_20">
    <!-- Cumulative Accuracy for Cohort 1 -->
    <g transform="translate(268.298125 25.43625) scale(0.24 -0.24)">
     <defs>
      <path id="DejaVuSans-6c" d="M 603 4863 
L 1178 4863 
L 1178 0 
L 603 0 
L 603 4863 
z
" transform="scale(0.015625)"/>
      <path id="DejaVuSans-76" d="M 191 3500 
L 800 3500 
L 1894 563 
L 2988 3500 
L 3597 3500 
L 2284 0 
L 1503 0 
L 191 3500 
z
" transform="scale(0.015625)"/>
      <path id="DejaVuSans-41" d="M 2188 4044 
L 1331 1722 
L 3047 1722 
L 2188 4044 
z
M 1831 4666 
L 2547 4666 
L 4325 0 
L 3669 0 
L 3244 1197 
L 1141 1197 
L 716 0 
L 50 0 
L 1831 4666 
z
" transform="scale(0.015625)"/>
      <path id="DejaVuSans-79" d="M 2059 -325 
Q 1816 -950 1584 -1140 
Q 1353 -1331 966 -1331 
L 506 -1331 
L 506 -850 
L 844 -850 
Q 1081 -850 1212 -737 
Q 1344 -625 1503 -206 
L 1606 56 
L 191 3500 
L 800 3500 
L 1894 763 
L 2988 3500 
L 3597 3500 
L 2059 -325 
z
" transform="scale(0.015625)"/>
      <path id="DejaVuSans-66" d="M 2375 4863 
L 2375 4384 
L 1825 4384 
Q 1516 4384 1395 4259 
Q 1275 4134 1275 3809 
L 1275 3500 
L 2222 3500 
L 2222 3053 
L 1275 3053 
L 1275 0 
L 697 0 
L 697 3053 
L 147 3053 
L 147 3500 
L 697 3500 
L 697 3744 
Q 697 4328 969 4595 
Q 1241 4863 1831 4863 
L 2375 4863 
z
" transform="scale(0.015625)"/>
     </defs>
     <use xlink:href="#DejaVuSans-43"/>
     <use xlink:href="#DejaVuSans-75" x="69.824219"/>
     <use xlink:href="#DejaVuSans-6d" x="133.203125"/>
     <use xlink:href="#DejaVuSans-75" x="230.615234"/>
     <use xlink:href="#DejaVuSans-6c" x="293.994141"/>
     <use xlink:href="#DejaVuSans-61" x="321.777344"/>
     <use xlink:href="#DejaVuSans-74" x="383.056641"/>
     <use xlink:href="#DejaVuSans-69" x="422.265625"/>
     <use xlink:href="#DejaVuSans-76" x="450.048828"/>
     <use xlink:href="#DejaVuSans-65" x="509.228516"/>
     <use xlink:href="#DejaVuSans-20" x="570.751953"/>
     <use xlink:href="#DejaVuSans-41" x="602.539062"/>
     <use xlink:href="#DejaVuSans-63" x="669.197266"/>
     <use xlink:href="#DejaVuSans-63" x="724.177734"/>
     <use xlink:href="#DejaVuSans-75" x="779.158203"/>
     <use xlink:href="#DejaVuSans-72" x="842.537109"/>
     <use xlink:href="#DejaVuSans-61" x="883.650391"/>
     <use xlink:href="#DejaVuSans-63" x="944.929688"/>
     <use xlink:href="#DejaVuSans-79" x="999.910156"/>
     <use xlink:href="#DejaVuSans-20" x="1059.089844"/>
     <use xlink:href="#DejaVuSans-66" x="1090.876953"/>
     <use xlink:href="#DejaVuSans-6f" x="1126.082031"/>
     <use xlink:href="#DejaVuSans-72" x="1187.263672"/>
     <use xlink:href="#DejaVuSans-20" x="1228.376953"/>
     <use xlink:href="#DejaVuSans-43" x="1260.164062"/>
     <use xlink:href="#DejaVuSans-6f" x="1329.988281"/>
     <use xlink:href="#DejaVuSans-68" x="1391.169922"/>
     <use xlink:href="#DejaVuSans-6f" x="1454.548828"/>
     <use xlink:href="#DejaVuSans-72" x="1515.730469"/>
     <use xlink:href="#DejaVuSans-74" x="1556.84375"/>
     <use xlink:href="#DejaVuSans-20" x="1596.052734"/>
     <use xlink:href="#DejaVuSans-31" x="1627.839844"/>
    </g>
   </g>
   <g id="legend_1">
    <g id="patch_7">
     <path d="M 835.781875 303.63625 
L 882.7725 303.63625 
Q 884.7725 303.63625 884.7725 301.63625 
L 884.7725 183.275625 
Q 884.7725 181.275625 882.7725 181.275625 
L 835.781875 181.275625 
Q 833.781875 181.275625 833.781875 183.275625 
L 833.781875 301.63625 
Q 833.781875 303.63625 835.781875 303.63625 
z
" style="fill: #ffffff; opacity: 0.8; stroke: #cccccc; stroke-linejoin: miter"/>
    </g>
    <g id="text_21">
     <!-- Mice -->
     <g transform="translate(845.4425 194.39375) scale(0.12 -0.12)">
      <defs>
       <path id="DejaVuSans-4d" d="M 628 4666 
L 1569 4666 
L 2759 1491 
L 3956 4666 
L 4897 4666 
L 4897 0 
L 4281 0 
L 4281 4097 
L 3078 897 
L 2444 897 
L 1241 4097 
L 1241 0 
L 628 0 
L 628 4666 
z
" transform="scale(0.015625)"/>
      </defs>
      <use xlink:href="#DejaVuSans-4d"/>
      <use xlink:href="#DejaVuSans-69" x="86.279297"/>
      <use xlink:href="#DejaVuSans-63" x="114.0625"/>
      <use xlink:href="#DejaVuSans-65" x="169.042969"/>
     </g>
    </g>
    <g id="line2d_42">
     <path d="M 837.781875 205.987813 
L 847.781875 205.987813 
L 857.781875 205.987813 
" style="fill: none; stroke: #1f77b4; stroke-width: 1.5; stroke-linecap: square"/>
    </g>
    <g id="text_22">
     <!-- M1 -->
     <g transform="translate(865.781875 209.487813) scale(0.1 -0.1)">
      <use xlink:href="#DejaVuSans-4d"/>
      <use xlink:href="#DejaVuSans-31" x="86.279297"/>
     </g>
    </g>
    <g id="line2d_43">
     <path d="M 837.781875 220.665938 
L 847.781875 220.665938 
L 857.781875 220.665938 
" style="fill: none; stroke: #ff7f0e; stroke-width: 1.5; stroke-linecap: square"/>
    </g>
    <g id="text_23">
     <!-- M2 -->
     <g transform="translate(865.781875 224.165938) scale(0.1 -0.1)">
      <use xlink:href="#DejaVuSans-4d"/>
      <use xlink:href="#DejaVuSans-32" x="86.279297"/>
     </g>
    </g>
    <g id="line2d_44">
     <path d="M 837.781875 235.344063 
L 847.781875 235.344063 
L 857.781875 235.344063 
" style="fill: none; stroke: #2ca02c; stroke-width: 1.5; stroke-linecap: square"/>
    </g>
    <g id="text_24">
     <!-- M3 -->
     <g transform="translate(865.781875 238.844063) scale(0.1 -0.1)">
      <use xlink:href="#DejaVuSans-4d"/>
      <use xlink:href="#DejaVuSans-33" x="86.279297"/>
     </g>
    </g>
    <g id="line2d_45">
     <path d="M 837.781875 250.022188 
L 847.781875 250.022188 
L 857.781875 250.022188 
" style="fill: none; stroke: #d62728; stroke-width: 1.5; stroke-linecap: square"/>
    </g>
    <g id="text_25">
     <!-- M4 -->
     <g transform="translate(865.781875 253.522188) scale(0.1 -0.1)">
      <use xlink:href="#DejaVuSans-4d"/>
      <use xlink:href="#DejaVuSans-34" x="86.279297"/>
     </g>
    </g>
    <g id="line2d_46">
     <path d="M 837.781875 264.700313 
L 847.781875 264.700313 
L 857.781875 264.700313 
" style="fill: none; stroke: #9467bd; stroke-width: 1.5; stroke-linecap: square"/>
    </g>
    <g id="text_26">
     <!-- M5 -->
     <g transform="translate(865.781875 268.200313) scale(0.1 -0.1)">
      <use xlink:href="#DejaVuSans-4d"/>
      <use xlink:href="#DejaVuSans-35" x="86.279297"/>
     </g>
    </g>
    <g id="line2d_47">
     <path d="M 837.781875 279.378438 
L 847.781875 279.378438 
L 857.781875 279.378438 
" style="fill: none; stroke: #8c564b; stroke-width: 1.5; stroke-linecap: square"/>
    </g>
    <g id="text_27">
     <!-- M6 -->
     <g transform="translate(865.781875 282.878438) scale(0.1 -0.1)">
      <use xlink:href="#DejaVuSans-4d"/>
      <use xlink:href="#DejaVuSans-36" x="86.279297"/>
     </g>
    </g>
    <g id="line2d_48">
     <path d="M 837.781875 294.056563 
L 847.781875 294.056563 
L 857.781875 294.056563 
" style="fill: none; stroke: #e377c2; stroke-width: 1.5; stroke-linecap: square"/>
    </g>
    <g id="text_28">
     <!-- M7 -->
     <g transform="translate(865.781875 297.556563) scale(0.1 -0.1)">
      <use xlink:href="#DejaVuSans-4d"/>
      <use xlink:href="#DejaVuSans-37" x="86.279297"/>
     </g>
    </g>
   </g>
  </g>
 </g>
 <defs>
  <clipPath id="pee7980bec3">
   <rect x="52.7725" y="31.43625" width="837" height="277.2"/>
  </clipPath>
 </defs>
</svg>
