<?xml version="1.0" encoding="utf-8" standalone="no"?>
<!DOCTYPE svg PUBLIC "-//W3C//DTD SVG 1.1//EN"
  "http://www.w3.org/Graphics/SVG/1.1/DTD/svg11.dtd">
<svg xmlns:xlink="http://www.w3.org/1999/xlink" width="1178.7975pt" height="399.009062pt" viewBox="0 0 1178.7975 399.009062" xmlns="http://www.w3.org/2000/svg" version="1.1">
 <metadata>
  <rdf:RDF xmlns:dc="http://purl.org/dc/elements/1.1/" xmlns:cc="http://creativecommons.org/ns#" xmlns:rdf="http://www.w3.org/1999/02/22-rdf-syntax-ns#">
   <cc:Work>
    <dc:type rdf:resource="http://purl.org/dc/dcmitype/StillImage"/>
    <dc:date>2025-01-10T11:52:05.594117</dc:date>
    <dc:format>image/svg+xml</dc:format>
    <dc:creator>
     <cc:Agent>
      <dc:title>Matplotlib v3.8.3, https://matplotlib.org/</dc:title>
     </cc:Agent>
    </dc:creator>
   </cc:Work>
  </rdf:RDF>
 </metadata>
 <defs>
  <style type="text/css">*{stroke-linejoin: round; stroke-linecap: butt}</style>
 </defs>
 <g id="figure_1">
  <g id="patch_1">
   <path d="M 0 399.009062 
L 1178.7975 399.009062 
L 1178.7975 0 
L 0 0 
z
" style="fill: #ffffff"/>
  </g>
  <g id="axes_1">
   <g id="patch_2">
    <path d="M 55.5975 359.517187 
L 1171.5975 359.517187 
L 1171.5975 26.877187 
L 55.5975 26.877187 
z
" style="fill: #ffffff"/>
   </g>
   <g id="patch_3">
    <path d="M 108.565629 359.517187 
L 108.565629 26.877187 
L 108.565629 26.877187 
z
" clip-path="url(#p4e24db0fda)" style="fill: #add8e6; stroke: #add8e6; stroke-linejoin: miter"/>
   </g>
   <g id="patch_4">
    <path d="M 124.941707 359.517187 
L 124.941707 26.877187 
L 124.78187 26.877187 
L 124.78187 359.517187 
z
" clip-path="url(#p4e24db0fda)" style="fill: #add8e6; stroke: #add8e6; stroke-linejoin: miter"/>
   </g>
   <g id="patch_5">
    <path d="M 126.947298 359.517187 
L 126.947298 26.877187 
L 127.079298 26.877187 
L 127.079298 359.517187 
z
" clip-path="url(#p4e24db0fda)" style="fill: #add8e6; stroke: #add8e6; stroke-linejoin: miter"/>
   </g>
   <g id="patch_6">
    <path d="M 144.963947 359.517187 
L 144.963947 26.877187 
L 139.047295 26.877187 
L 139.047295 359.517187 
z
" clip-path="url(#p4e24db0fda)" style="fill: #add8e6; stroke: #add8e6; stroke-linejoin: miter"/>
   </g>
   <g id="patch_7">
    <path d="M 151.694149 359.517187 
L 151.694149 26.877187 
L 144.366355 26.877187 
L 144.366355 359.517187 
z
" clip-path="url(#p4e24db0fda)" style="fill: #add8e6; stroke: #add8e6; stroke-linejoin: miter"/>
   </g>
   <g id="patch_8">
    <path d="M 152.819291 359.517187 
L 152.819291 26.877187 
L 147.957293 26.877187 
L 147.957293 359.517187 
z
" clip-path="url(#p4e24db0fda)" style="fill: #add8e6; stroke: #add8e6; stroke-linejoin: miter"/>
   </g>
   <g id="patch_9">
    <path d="M 156.91129 359.517187 
L 156.91129 26.877187 
L 154.510597 26.877187 
L 154.510597 359.517187 
z
" clip-path="url(#p4e24db0fda)" style="fill: #add8e6; stroke: #add8e6; stroke-linejoin: miter"/>
   </g>
   <g id="patch_10">
    <path d="M 159.884432 359.517187 
L 159.884432 26.877187 
L 160.00431 26.877187 
L 160.00431 359.517187 
z
" clip-path="url(#p4e24db0fda)" style="fill: #add8e6; stroke: #add8e6; stroke-linejoin: miter"/>
   </g>
   <g id="patch_11">
    <path d="M 162.795166 359.517187 
L 162.795166 26.877187 
L 162.831534 26.877187 
L 162.831534 359.517187 
z
" clip-path="url(#p4e24db0fda)" style="fill: #add8e6; stroke: #add8e6; stroke-linejoin: miter"/>
   </g>
   <g id="patch_12">
    <path d="M 162.932554 359.517187 
L 162.932554 26.877187 
L 162.880473 26.877187 
L 162.880473 359.517187 
z
" clip-path="url(#p4e24db0fda)" style="fill: #add8e6; stroke: #add8e6; stroke-linejoin: miter"/>
   </g>
   <g id="patch_13">
    <path d="M 173.559449 359.517187 
L 173.559449 26.877187 
L 166.237043 26.877187 
L 166.237043 359.517187 
z
" clip-path="url(#p4e24db0fda)" style="fill: #add8e6; stroke: #add8e6; stroke-linejoin: miter"/>
   </g>
   <g id="patch_14">
    <path d="M 176.888632 359.517187 
L 176.888632 26.877187 
L 171.633327 26.877187 
L 171.633327 359.517187 
z
" clip-path="url(#p4e24db0fda)" style="fill: #add8e6; stroke: #add8e6; stroke-linejoin: miter"/>
   </g>
   <g id="patch_15">
    <path d="M 197.324382 359.517187 
L 197.324382 26.877187 
L 197.385443 26.877187 
L 197.385443 359.517187 
z
" clip-path="url(#p4e24db0fda)" style="fill: #add8e6; stroke: #add8e6; stroke-linejoin: miter"/>
   </g>
   <g id="patch_16">
    <path d="M 202.414462 359.517187 
L 202.414462 26.877187 
L 202.416258 26.877187 
L 202.416258 359.517187 
z
" clip-path="url(#p4e24db0fda)" style="fill: #add8e6; stroke: #add8e6; stroke-linejoin: miter"/>
   </g>
   <g id="patch_17">
    <path d="M 212.026215 359.517187 
L 212.026215 26.877187 
L 212.119154 26.877187 
L 212.119154 359.517187 
z
" clip-path="url(#p4e24db0fda)" style="fill: #add8e6; stroke: #add8e6; stroke-linejoin: miter"/>
   </g>
   <g id="patch_18">
    <path d="M 224.389763 359.517187 
L 224.389763 26.877187 
L 224.31613 26.877187 
L 224.31613 359.517187 
z
" clip-path="url(#p4e24db0fda)" style="fill: #add8e6; stroke: #add8e6; stroke-linejoin: miter"/>
   </g>
   <g id="patch_19">
    <path d="M 227.606701 359.517187 
L 227.606701 26.877187 
L 227.147844 26.877187 
L 227.147844 359.517187 
z
" clip-path="url(#p4e24db0fda)" style="fill: #add8e6; stroke: #add8e6; stroke-linejoin: miter"/>
   </g>
   <g id="patch_20">
    <path d="M 242.018942 359.517187 
L 242.018942 26.877187 
L 241.907595 26.877187 
L 241.907595 359.517187 
z
" clip-path="url(#p4e24db0fda)" style="fill: #add8e6; stroke: #add8e6; stroke-linejoin: miter"/>
   </g>
   <g id="patch_21">
    <path d="M 249.65743 359.517187 
L 249.65743 26.877187 
L 249.69694 26.877187 
L 249.69694 359.517187 
z
" clip-path="url(#p4e24db0fda)" style="fill: #add8e6; stroke: #add8e6; stroke-linejoin: miter"/>
   </g>
   <g id="patch_22">
    <path d="M 255.099959 359.517187 
L 255.099959 26.877187 
L 254.943265 26.877187 
L 254.943265 359.517187 
z
" clip-path="url(#p4e24db0fda)" style="fill: #add8e6; stroke: #add8e6; stroke-linejoin: miter"/>
   </g>
   <g id="patch_23">
    <path d="M 268.439139 359.517187 
L 268.439139 26.877187 
L 268.433303 26.877187 
L 268.433303 359.517187 
z
" clip-path="url(#p4e24db0fda)" style="fill: #add8e6; stroke: #add8e6; stroke-linejoin: miter"/>
   </g>
   <g id="patch_24">
    <path d="M 274.477015 359.517187 
L 274.477015 26.877187 
L 274.530893 26.877187 
L 274.530893 359.517187 
z
" clip-path="url(#p4e24db0fda)" style="fill: #add8e6; stroke: #add8e6; stroke-linejoin: miter"/>
   </g>
   <g id="patch_25">
    <path d="M 282.233136 359.517187 
L 282.233136 26.877187 
L 280.631626 26.877187 
L 280.631626 359.517187 
z
" clip-path="url(#p4e24db0fda)" style="fill: #add8e6; stroke: #add8e6; stroke-linejoin: miter"/>
   </g>
   <g id="patch_26">
    <path d="M 290.26942 359.517187 
L 290.26942 26.877187 
L 289.640399 26.877187 
L 289.640399 359.517187 
z
" clip-path="url(#p4e24db0fda)" style="fill: #add8e6; stroke: #add8e6; stroke-linejoin: miter"/>
   </g>
   <g id="patch_27">
    <path d="M 292.970031 359.517187 
L 292.970031 26.877187 
L 293.042317 26.877187 
L 293.042317 359.517187 
z
" clip-path="url(#p4e24db0fda)" style="fill: #add8e6; stroke: #add8e6; stroke-linejoin: miter"/>
   </g>
   <g id="patch_28">
    <path d="M 293.118643 359.517187 
L 293.118643 26.877187 
L 293.106072 26.877187 
L 293.106072 359.517187 
z
" clip-path="url(#p4e24db0fda)" style="fill: #add8e6; stroke: #add8e6; stroke-linejoin: miter"/>
   </g>
   <g id="patch_29">
    <path d="M 298.744805 359.517187 
L 298.744805 26.877187 
L 298.807213 26.877187 
L 298.807213 359.517187 
z
" clip-path="url(#p4e24db0fda)" style="fill: #add8e6; stroke: #add8e6; stroke-linejoin: miter"/>
   </g>
   <g id="patch_30">
    <path d="M 309.878598 359.517187 
L 309.878598 26.877187 
L 304.980232 26.877187 
L 304.980232 359.517187 
z
" clip-path="url(#p4e24db0fda)" style="fill: #add8e6; stroke: #add8e6; stroke-linejoin: miter"/>
   </g>
   <g id="patch_31">
    <path d="M 319.564881 359.517187 
L 319.564881 26.877187 
L 319.529861 26.877187 
L 319.529861 359.517187 
z
" clip-path="url(#p4e24db0fda)" style="fill: #add8e6; stroke: #add8e6; stroke-linejoin: miter"/>
   </g>
   <g id="patch_32">
    <path d="M 329.345899 359.517187 
L 329.345899 26.877187 
L 327.206063 26.877187 
L 327.206063 359.517187 
z
" clip-path="url(#p4e24db0fda)" style="fill: #add8e6; stroke: #add8e6; stroke-linejoin: miter"/>
   </g>
   <g id="patch_33">
    <path d="M 336.435734 359.517187 
L 336.435734 26.877187 
L 333.636347 26.877187 
L 333.636347 359.517187 
z
" clip-path="url(#p4e24db0fda)" style="fill: #add8e6; stroke: #add8e6; stroke-linejoin: miter"/>
   </g>
   <g id="patch_34">
    <path d="M 343.426345 359.517187 
L 343.426345 26.877187 
L 338.604754 26.877187 
L 338.604754 359.517187 
z
" clip-path="url(#p4e24db0fda)" style="fill: #add8e6; stroke: #add8e6; stroke-linejoin: miter"/>
   </g>
   <g id="patch_35">
    <path d="M 346.087895 359.517187 
L 346.087895 26.877187 
L 343.082426 26.877187 
L 343.082426 359.517187 
z
" clip-path="url(#p4e24db0fda)" style="fill: #add8e6; stroke: #add8e6; stroke-linejoin: miter"/>
   </g>
   <g id="patch_36">
    <path d="M 351.873894 359.517187 
L 351.873894 26.877187 
L 351.930016 26.877187 
L 351.930016 359.517187 
z
" clip-path="url(#p4e24db0fda)" style="fill: #add8e6; stroke: #add8e6; stroke-linejoin: miter"/>
   </g>
   <g id="patch_37">
    <path d="M 364.08838 359.517187 
L 364.08838 26.877187 
L 357.241443 26.877187 
L 357.241443 359.517187 
z
" clip-path="url(#p4e24db0fda)" style="fill: #add8e6; stroke: #add8e6; stroke-linejoin: miter"/>
   </g>
   <g id="patch_38">
    <path d="M 366.757563 359.517187 
L 366.757563 26.877187 
L 366.106543 26.877187 
L 366.106543 359.517187 
z
" clip-path="url(#p4e24db0fda)" style="fill: #add8e6; stroke: #add8e6; stroke-linejoin: miter"/>
   </g>
   <g id="patch_39">
    <path d="M 378.001356 359.517187 
L 378.001356 26.877187 
L 378.129764 26.877187 
L 378.129764 359.517187 
z
" clip-path="url(#p4e24db0fda)" style="fill: #add8e6; stroke: #add8e6; stroke-linejoin: miter"/>
   </g>
   <g id="patch_40">
    <path d="M 378.159846 359.517187 
L 378.159846 26.877187 
L 378.228091 26.877187 
L 378.228091 359.517187 
z
" clip-path="url(#p4e24db0fda)" style="fill: #add8e6; stroke: #add8e6; stroke-linejoin: miter"/>
   </g>
   <g id="patch_41">
    <path d="M 378.295887 359.517187 
L 378.295887 26.877187 
L 378.375805 26.877187 
L 378.375805 359.517187 
z
" clip-path="url(#p4e24db0fda)" style="fill: #add8e6; stroke: #add8e6; stroke-linejoin: miter"/>
   </g>
   <g id="patch_42">
    <path d="M 383.966947 359.517187 
L 383.966947 26.877187 
L 383.937314 26.877187 
L 383.937314 359.517187 
z
" clip-path="url(#p4e24db0fda)" style="fill: #add8e6; stroke: #add8e6; stroke-linejoin: miter"/>
   </g>
   <g id="patch_43">
    <path d="M 389.140088 359.517187 
L 389.140088 26.877187 
L 389.19217 26.877187 
L 389.19217 359.517187 
z
" clip-path="url(#p4e24db0fda)" style="fill: #add8e6; stroke: #add8e6; stroke-linejoin: miter"/>
   </g>
   <g id="patch_44">
    <path d="M 397.875433 359.517187 
L 397.875433 26.877187 
L 397.825147 26.877187 
L 397.825147 359.517187 
z
" clip-path="url(#p4e24db0fda)" style="fill: #add8e6; stroke: #add8e6; stroke-linejoin: miter"/>
   </g>
   <g id="patch_45">
    <path d="M 412.197429 359.517187 
L 412.197429 26.877187 
L 412.26298 26.877187 
L 412.26298 359.517187 
z
" clip-path="url(#p4e24db0fda)" style="fill: #add8e6; stroke: #add8e6; stroke-linejoin: miter"/>
   </g>
   <g id="patch_46">
    <path d="M 423.869998 359.517187 
L 423.869998 26.877187 
L 423.603304 26.877187 
L 423.603304 359.517187 
z
" clip-path="url(#p4e24db0fda)" style="fill: #add8e6; stroke: #add8e6; stroke-linejoin: miter"/>
   </g>
   <g id="patch_47">
    <path d="M 450.941215 359.517187 
L 450.941215 26.877187 
L 451.035501 26.877187 
L 451.035501 359.517187 
z
" clip-path="url(#p4e24db0fda)" style="fill: #add8e6; stroke: #add8e6; stroke-linejoin: miter"/>
   </g>
   <g id="patch_48">
    <path d="M 470.789251 359.517187 
L 470.789251 26.877187 
L 470.795088 26.877187 
L 470.795088 359.517187 
z
" clip-path="url(#p4e24db0fda)" style="fill: #add8e6; stroke: #add8e6; stroke-linejoin: miter"/>
   </g>
   <g id="patch_49">
    <path d="M 483.987003 359.517187 
L 483.987003 26.877187 
L 484.110023 26.877187 
L 484.110023 359.517187 
z
" clip-path="url(#p4e24db0fda)" style="fill: #add8e6; stroke: #add8e6; stroke-linejoin: miter"/>
   </g>
   <g id="patch_50">
    <path d="M 490.951572 359.517187 
L 490.951572 26.877187 
L 491.008593 26.877187 
L 491.008593 359.517187 
z
" clip-path="url(#p4e24db0fda)" style="fill: #add8e6; stroke: #add8e6; stroke-linejoin: miter"/>
   </g>
   <g id="patch_51">
    <path d="M 506.120344 359.517187 
L 506.120344 26.877187 
L 504.639161 26.877187 
L 504.639161 359.517187 
z
" clip-path="url(#p4e24db0fda)" style="fill: #add8e6; stroke: #add8e6; stroke-linejoin: miter"/>
   </g>
   <g id="patch_52">
    <path d="M 516.849157 359.517187 
L 516.849157 26.877187 
L 515.901362 26.877187 
L 515.901362 359.517187 
z
" clip-path="url(#p4e24db0fda)" style="fill: #add8e6; stroke: #add8e6; stroke-linejoin: miter"/>
   </g>
   <g id="patch_53">
    <path d="M 526.233726 359.517187 
L 526.233726 26.877187 
L 526.116992 26.877187 
L 526.116992 359.517187 
z
" clip-path="url(#p4e24db0fda)" style="fill: #add8e6; stroke: #add8e6; stroke-linejoin: miter"/>
   </g>
   <g id="patch_54">
    <path d="M 534.685316 359.517187 
L 534.685316 26.877187 
L 534.436581 26.877187 
L 534.436581 359.517187 
z
" clip-path="url(#p4e24db0fda)" style="fill: #add8e6; stroke: #add8e6; stroke-linejoin: miter"/>
   </g>
   <g id="patch_55">
    <path d="M 545.196824 359.517187 
L 545.196824 26.877187 
L 545.308171 26.877187 
L 545.308171 359.517187 
z
" clip-path="url(#p4e24db0fda)" style="fill: #add8e6; stroke: #add8e6; stroke-linejoin: miter"/>
   </g>
   <g id="patch_56">
    <path d="M 547.047517 359.517187 
L 547.047517 26.877187 
L 546.911925 26.877187 
L 546.911925 359.517187 
z
" clip-path="url(#p4e24db0fda)" style="fill: #add8e6; stroke: #add8e6; stroke-linejoin: miter"/>
   </g>
   <g id="patch_57">
    <path d="M 548.793598 359.517187 
L 548.793598 26.877187 
L 548.387721 26.877187 
L 548.387721 359.517187 
z
" clip-path="url(#p4e24db0fda)" style="fill: #add8e6; stroke: #add8e6; stroke-linejoin: miter"/>
   </g>
   <g id="patch_58">
    <path d="M 549.596823 359.517187 
L 549.596823 26.877187 
L 549.726129 26.877187 
L 549.726129 359.517187 
z
" clip-path="url(#p4e24db0fda)" style="fill: #add8e6; stroke: #add8e6; stroke-linejoin: miter"/>
   </g>
   <g id="patch_59">
    <path d="M 551.153883 359.517187 
L 551.153883 26.877187 
L 551.239189 26.877187 
L 551.239189 359.517187 
z
" clip-path="url(#p4e24db0fda)" style="fill: #add8e6; stroke: #add8e6; stroke-linejoin: miter"/>
   </g>
   <g id="patch_60">
    <path d="M 562.518452 359.517187 
L 562.518452 26.877187 
L 562.58984 26.877187 
L 562.58984 359.517187 
z
" clip-path="url(#p4e24db0fda)" style="fill: #add8e6; stroke: #add8e6; stroke-linejoin: miter"/>
   </g>
   <g id="patch_61">
    <path d="M 592.219342 359.517187 
L 592.219342 26.877187 
L 584.905916 26.877187 
L 584.905916 359.517187 
z
" clip-path="url(#p4e24db0fda)" style="fill: #add8e6; stroke: #add8e6; stroke-linejoin: miter"/>
   </g>
   <g id="patch_62">
    <path d="M 598.143626 359.517187 
L 598.143626 26.877187 
L 598.259463 26.877187 
L 598.259463 359.517187 
z
" clip-path="url(#p4e24db0fda)" style="fill: #add8e6; stroke: #add8e6; stroke-linejoin: miter"/>
   </g>
   <g id="patch_63">
    <path d="M 607.373746 359.517187 
L 607.373746 26.877187 
L 607.503053 26.877187 
L 607.503053 359.517187 
z
" clip-path="url(#p4e24db0fda)" style="fill: #add8e6; stroke: #add8e6; stroke-linejoin: miter"/>
   </g>
   <g id="patch_64">
    <path d="M 607.547053 359.517187 
L 607.547053 26.877187 
L 607.657951 26.877187 
L 607.657951 359.517187 
z
" clip-path="url(#p4e24db0fda)" style="fill: #add8e6; stroke: #add8e6; stroke-linejoin: miter"/>
   </g>
   <g id="patch_65">
    <path d="M 625.663823 359.517187 
L 625.663823 26.877187 
L 625.763048 26.877187 
L 625.763048 359.517187 
z
" clip-path="url(#p4e24db0fda)" style="fill: #add8e6; stroke: #add8e6; stroke-linejoin: miter"/>
   </g>
   <g id="patch_66">
    <path d="M 659.523611 359.517187 
L 659.523611 26.877187 
L 659.537978 26.877187 
L 659.537978 359.517187 
z
" clip-path="url(#p4e24db0fda)" style="fill: #add8e6; stroke: #add8e6; stroke-linejoin: miter"/>
   </g>
   <g id="patch_67">
    <path d="M 668.308792 359.517187 
L 668.308792 26.877187 
L 667.960384 26.877187 
L 667.960384 359.517187 
z
" clip-path="url(#p4e24db0fda)" style="fill: #add8e6; stroke: #add8e6; stroke-linejoin: miter"/>
   </g>
   <g id="patch_68">
    <path d="M 679.48883 359.517187 
L 679.48883 26.877187 
L 679.489279 26.877187 
L 679.489279 359.517187 
z
" clip-path="url(#p4e24db0fda)" style="fill: #add8e6; stroke: #add8e6; stroke-linejoin: miter"/>
   </g>
   <g id="patch_69">
    <path d="M 685.421196 359.517187 
L 685.421196 26.877187 
L 685.444543 26.877187 
L 685.444543 359.517187 
z
" clip-path="url(#p4e24db0fda)" style="fill: #add8e6; stroke: #add8e6; stroke-linejoin: miter"/>
   </g>
   <g id="patch_70">
    <path d="M 685.611114 359.517187 
L 685.611114 26.877187 
L 685.614706 26.877187 
L 685.614706 359.517187 
z
" clip-path="url(#p4e24db0fda)" style="fill: #add8e6; stroke: #add8e6; stroke-linejoin: miter"/>
   </g>
   <g id="patch_71">
    <path d="M 696.614703 359.517187 
L 696.614703 26.877187 
L 696.624132 26.877187 
L 696.624132 359.517187 
z
" clip-path="url(#p4e24db0fda)" style="fill: #add8e6; stroke: #add8e6; stroke-linejoin: miter"/>
   </g>
   <g id="patch_72">
    <path d="M 710.177475 359.517187 
L 710.177475 26.877187 
L 710.300945 26.877187 
L 710.300945 359.517187 
z
" clip-path="url(#p4e24db0fda)" style="fill: #add8e6; stroke: #add8e6; stroke-linejoin: miter"/>
   </g>
   <g id="patch_73">
    <path d="M 710.354373 359.517187 
L 710.354373 26.877187 
L 710.460332 26.877187 
L 710.460332 359.517187 
z
" clip-path="url(#p4e24db0fda)" style="fill: #add8e6; stroke: #add8e6; stroke-linejoin: miter"/>
   </g>
   <g id="patch_74">
    <path d="M 714.624617 359.517187 
L 714.624617 26.877187 
L 714.757515 26.877187 
L 714.757515 359.517187 
z
" clip-path="url(#p4e24db0fda)" style="fill: #add8e6; stroke: #add8e6; stroke-linejoin: miter"/>
   </g>
   <g id="patch_75">
    <path d="M 716.565555 359.517187 
L 716.565555 26.877187 
L 716.615841 26.877187 
L 716.615841 359.517187 
z
" clip-path="url(#p4e24db0fda)" style="fill: #add8e6; stroke: #add8e6; stroke-linejoin: miter"/>
   </g>
   <g id="patch_76">
    <path d="M 716.974576 359.517187 
L 716.974576 26.877187 
L 716.941351 26.877187 
L 716.941351 359.517187 
z
" clip-path="url(#p4e24db0fda)" style="fill: #add8e6; stroke: #add8e6; stroke-linejoin: miter"/>
   </g>
   <g id="patch_77">
    <path d="M 721.841513 359.517187 
L 721.841513 26.877187 
L 721.144248 26.877187 
L 721.144248 359.517187 
z
" clip-path="url(#p4e24db0fda)" style="fill: #add8e6; stroke: #add8e6; stroke-linejoin: miter"/>
   </g>
   <g id="patch_78">
    <path d="M 724.664696 359.517187 
L 724.664696 26.877187 
L 724.771553 26.877187 
L 724.771553 359.517187 
z
" clip-path="url(#p4e24db0fda)" style="fill: #add8e6; stroke: #add8e6; stroke-linejoin: miter"/>
   </g>
   <g id="patch_79">
    <path d="M 730.080735 359.517187 
L 730.080735 26.877187 
L 730.181307 26.877187 
L 730.181307 359.517187 
z
" clip-path="url(#p4e24db0fda)" style="fill: #add8e6; stroke: #add8e6; stroke-linejoin: miter"/>
   </g>
   <g id="patch_80">
    <path d="M 730.322286 359.517187 
L 730.322286 26.877187 
L 730.408491 26.877187 
L 730.408491 359.517187 
z
" clip-path="url(#p4e24db0fda)" style="fill: #add8e6; stroke: #add8e6; stroke-linejoin: miter"/>
   </g>
   <g id="patch_81">
    <path d="M 733.780326 359.517187 
L 733.780326 26.877187 
L 733.758775 26.877187 
L 733.758775 359.517187 
z
" clip-path="url(#p4e24db0fda)" style="fill: #add8e6; stroke: #add8e6; stroke-linejoin: miter"/>
   </g>
   <g id="patch_82">
    <path d="M 733.920857 359.517187 
L 733.920857 26.877187 
L 733.936122 26.877187 
L 733.936122 359.517187 
z
" clip-path="url(#p4e24db0fda)" style="fill: #add8e6; stroke: #add8e6; stroke-linejoin: miter"/>
   </g>
   <g id="patch_83">
    <path d="M 746.162731 359.517187 
L 746.162731 26.877187 
L 746.230976 26.877187 
L 746.230976 359.517187 
z
" clip-path="url(#p4e24db0fda)" style="fill: #add8e6; stroke: #add8e6; stroke-linejoin: miter"/>
   </g>
   <g id="patch_84">
    <path d="M 760.243177 359.517187 
L 760.243177 26.877187 
L 760.310075 26.877187 
L 760.310075 359.517187 
z
" clip-path="url(#p4e24db0fda)" style="fill: #add8e6; stroke: #add8e6; stroke-linejoin: miter"/>
   </g>
   <g id="patch_85">
    <path d="M 763.007543 359.517187 
L 763.007543 26.877187 
L 762.96085 26.877187 
L 762.96085 359.517187 
z
" clip-path="url(#p4e24db0fda)" style="fill: #add8e6; stroke: #add8e6; stroke-linejoin: miter"/>
   </g>
   <g id="patch_86">
    <path d="M 763.234727 359.517187 
L 763.234727 26.877187 
L 763.262564 26.877187 
L 763.262564 359.517187 
z
" clip-path="url(#p4e24db0fda)" style="fill: #add8e6; stroke: #add8e6; stroke-linejoin: miter"/>
   </g>
   <g id="patch_87">
    <path d="M 776.143785 359.517187 
L 776.143785 26.877187 
L 776.183744 26.877187 
L 776.183744 359.517187 
z
" clip-path="url(#p4e24db0fda)" style="fill: #add8e6; stroke: #add8e6; stroke-linejoin: miter"/>
   </g>
   <g id="patch_88">
    <path d="M 776.29554 359.517187 
L 776.29554 26.877187 
L 776.411826 26.877187 
L 776.411826 359.517187 
z
" clip-path="url(#p4e24db0fda)" style="fill: #add8e6; stroke: #add8e6; stroke-linejoin: miter"/>
   </g>
   <g id="patch_89">
    <path d="M 776.507009 359.517187 
L 776.507009 26.877187 
L 776.487254 26.877187 
L 776.487254 359.517187 
z
" clip-path="url(#p4e24db0fda)" style="fill: #add8e6; stroke: #add8e6; stroke-linejoin: miter"/>
   </g>
   <g id="patch_90">
    <path d="M 776.834764 359.517187 
L 776.834764 26.877187 
L 776.690193 26.877187 
L 776.690193 359.517187 
z
" clip-path="url(#p4e24db0fda)" style="fill: #add8e6; stroke: #add8e6; stroke-linejoin: miter"/>
   </g>
   <g id="patch_91">
    <path d="M 777.167907 359.517187 
L 777.167907 26.877187 
L 776.942519 26.877187 
L 776.942519 359.517187 
z
" clip-path="url(#p4e24db0fda)" style="fill: #add8e6; stroke: #add8e6; stroke-linejoin: miter"/>
   </g>
   <g id="patch_92">
    <path d="M 812.852796 359.517187 
L 812.852796 26.877187 
L 812.878837 26.877187 
L 812.878837 359.517187 
z
" clip-path="url(#p4e24db0fda)" style="fill: #add8e6; stroke: #add8e6; stroke-linejoin: miter"/>
   </g>
   <g id="patch_93">
    <path d="M 825.810344 359.517187 
L 825.810344 26.877187 
L 825.575976 26.877187 
L 825.575976 359.517187 
z
" clip-path="url(#p4e24db0fda)" style="fill: #add8e6; stroke: #add8e6; stroke-linejoin: miter"/>
   </g>
   <g id="patch_94">
    <path d="M 833.891974 359.517187 
L 833.891974 26.877187 
L 833.953035 26.877187 
L 833.953035 359.517187 
z
" clip-path="url(#p4e24db0fda)" style="fill: #add8e6; stroke: #add8e6; stroke-linejoin: miter"/>
   </g>
   <g id="patch_95">
    <path d="M 834.058995 359.517187 
L 834.058995 26.877187 
L 834.177525 26.877187 
L 834.177525 359.517187 
z
" clip-path="url(#p4e24db0fda)" style="fill: #add8e6; stroke: #add8e6; stroke-linejoin: miter"/>
   </g>
   <g id="patch_96">
    <path d="M 848.436664 359.517187 
L 848.436664 26.877187 
L 848.528256 26.877187 
L 848.528256 359.517187 
z
" clip-path="url(#p4e24db0fda)" style="fill: #add8e6; stroke: #add8e6; stroke-linejoin: miter"/>
   </g>
   <g id="patch_97">
    <path d="M 858.639274 359.517187 
L 858.639274 26.877187 
L 858.684621 26.877187 
L 858.684621 359.517187 
z
" clip-path="url(#p4e24db0fda)" style="fill: #add8e6; stroke: #add8e6; stroke-linejoin: miter"/>
   </g>
   <g id="patch_98">
    <path d="M 898.746162 359.517187 
L 898.746162 26.877187 
L 898.803182 26.877187 
L 898.803182 359.517187 
z
" clip-path="url(#p4e24db0fda)" style="fill: #add8e6; stroke: #add8e6; stroke-linejoin: miter"/>
   </g>
   <g id="patch_99">
    <path d="M 917.300688 359.517187 
L 917.300688 26.877187 
L 909.635261 26.877187 
L 909.635261 359.517187 
z
" clip-path="url(#p4e24db0fda)" style="fill: #add8e6; stroke: #add8e6; stroke-linejoin: miter"/>
   </g>
   <g id="patch_100">
    <path d="M 920.452523 359.517187 
L 920.452523 26.877187 
L 914.869464 26.877187 
L 914.869464 359.517187 
z
" clip-path="url(#p4e24db0fda)" style="fill: #add8e6; stroke: #add8e6; stroke-linejoin: miter"/>
   </g>
   <g id="patch_101">
    <path d="M 925.386808 359.517187 
L 925.386808 26.877187 
L 917.781994 26.877187 
L 917.781994 359.517187 
z
" clip-path="url(#p4e24db0fda)" style="fill: #add8e6; stroke: #add8e6; stroke-linejoin: miter"/>
   </g>
   <g id="patch_102">
    <path d="M 930.900276 359.517187 
L 930.900276 26.877187 
L 929.084603 26.877187 
L 929.084603 359.517187 
z
" clip-path="url(#p4e24db0fda)" style="fill: #add8e6; stroke: #add8e6; stroke-linejoin: miter"/>
   </g>
   <g id="patch_103">
    <path d="M 940.490478 359.517187 
L 940.490478 26.877187 
L 932.934602 26.877187 
L 932.934602 359.517187 
z
" clip-path="url(#p4e24db0fda)" style="fill: #add8e6; stroke: #add8e6; stroke-linejoin: miter"/>
   </g>
   <g id="patch_104">
    <path d="M 942.394151 359.517187 
L 942.394151 26.877187 
L 934.867459 26.877187 
L 934.867459 359.517187 
z
" clip-path="url(#p4e24db0fda)" style="fill: #add8e6; stroke: #add8e6; stroke-linejoin: miter"/>
   </g>
   <g id="patch_105">
    <path d="M 954.407494 359.517187 
L 954.407494 26.877187 
L 954.48427 26.877187 
L 954.48427 359.517187 
z
" clip-path="url(#p4e24db0fda)" style="fill: #add8e6; stroke: #add8e6; stroke-linejoin: miter"/>
   </g>
   <g id="patch_106">
    <path d="M 954.681372 359.517187 
L 954.681372 26.877187 
L 954.741984 26.877187 
L 954.741984 359.517187 
z
" clip-path="url(#p4e24db0fda)" style="fill: #add8e6; stroke: #add8e6; stroke-linejoin: miter"/>
   </g>
   <g id="patch_107">
    <path d="M 959.704105 359.517187 
L 959.704105 26.877187 
L 959.621942 26.877187 
L 959.621942 359.517187 
z
" clip-path="url(#p4e24db0fda)" style="fill: #add8e6; stroke: #add8e6; stroke-linejoin: miter"/>
   </g>
   <g id="patch_108">
    <path d="M 989.192628 359.517187 
L 989.192628 26.877187 
L 989.09969 26.877187 
L 989.09969 359.517187 
z
" clip-path="url(#p4e24db0fda)" style="fill: #add8e6; stroke: #add8e6; stroke-linejoin: miter"/>
   </g>
   <g id="patch_109">
    <path d="M 990.952179 359.517187 
L 990.952179 26.877187 
L 991.07924 26.877187 
L 991.07924 359.517187 
z
" clip-path="url(#p4e24db0fda)" style="fill: #add8e6; stroke: #add8e6; stroke-linejoin: miter"/>
   </g>
   <g id="patch_110">
    <path d="M 994.58577 359.517187 
L 994.58577 26.877187 
L 991.27275 26.877187 
L 991.27275 359.517187 
z
" clip-path="url(#p4e24db0fda)" style="fill: #add8e6; stroke: #add8e6; stroke-linejoin: miter"/>
   </g>
   <g id="patch_111">
    <path d="M 1012.129643 359.517187 
L 1012.129643 26.877187 
L 1012.249071 26.877187 
L 1012.249071 359.517187 
z
" clip-path="url(#p4e24db0fda)" style="fill: #add8e6; stroke: #add8e6; stroke-linejoin: miter"/>
   </g>
   <g id="patch_112">
    <path d="M 1025.520456 359.517187 
L 1025.520456 26.877187 
L 1025.576129 26.877187 
L 1025.576129 359.517187 
z
" clip-path="url(#p4e24db0fda)" style="fill: #add8e6; stroke: #add8e6; stroke-linejoin: miter"/>
   </g>
   <g id="patch_113">
    <path d="M 1038.63335 359.517187 
L 1038.63335 26.877187 
L 1038.720003 26.877187 
L 1038.720003 359.517187 
z
" clip-path="url(#p4e24db0fda)" style="fill: #add8e6; stroke: #add8e6; stroke-linejoin: miter"/>
   </g>
   <g id="patch_114">
    <path d="M 1038.90633 359.517187 
L 1038.90633 26.877187 
L 1038.830901 26.877187 
L 1038.830901 359.517187 
z
" clip-path="url(#p4e24db0fda)" style="fill: #add8e6; stroke: #add8e6; stroke-linejoin: miter"/>
   </g>
   <g id="patch_115">
    <path d="M 1078.255789 359.517187 
L 1078.255789 26.877187 
L 1078.195177 26.877187 
L 1078.195177 359.517187 
z
" clip-path="url(#p4e24db0fda)" style="fill: #add8e6; stroke: #add8e6; stroke-linejoin: miter"/>
   </g>
   <g id="patch_116">
    <path d="M 1083.083217 359.517187 
L 1083.083217 26.877187 
L 1083.060768 26.877187 
L 1083.060768 359.517187 
z
" clip-path="url(#p4e24db0fda)" style="fill: #add8e6; stroke: #add8e6; stroke-linejoin: miter"/>
   </g>
   <g id="patch_117">
    <path d="M 1085.266604 359.517187 
L 1085.266604 26.877187 
L 1085.385583 26.877187 
L 1085.385583 359.517187 
z
" clip-path="url(#p4e24db0fda)" style="fill: #add8e6; stroke: #add8e6; stroke-linejoin: miter"/>
   </g>
   <g id="patch_118">
    <path d="M 1092.64199 359.517187 
L 1092.64199 26.877187 
L 1092.713377 26.877187 
L 1092.713377 359.517187 
z
" clip-path="url(#p4e24db0fda)" style="fill: #add8e6; stroke: #add8e6; stroke-linejoin: miter"/>
   </g>
   <g id="patch_119">
    <path d="M 1104.884313 359.517187 
L 1104.884313 26.877187 
L 1097.268723 26.877187 
L 1097.268723 359.517187 
z
" clip-path="url(#p4e24db0fda)" style="fill: #add8e6; stroke: #add8e6; stroke-linejoin: miter"/>
   </g>
   <g id="patch_120">
    <path d="M 1106.610639 359.517187 
L 1106.610639 26.877187 
L 1101.719457 26.877187 
L 1101.719457 359.517187 
z
" clip-path="url(#p4e24db0fda)" style="fill: #add8e6; stroke: #add8e6; stroke-linejoin: miter"/>
   </g>
   <g id="patch_121">
    <path d="M 1118.553493 359.517187 
L 1118.553493 26.877187 
L 1117.28333 26.877187 
L 1117.28333 359.517187 
z
" clip-path="url(#p4e24db0fda)" style="fill: #add8e6; stroke: #add8e6; stroke-linejoin: miter"/>
   </g>
   <g id="patch_122">
    <path d="M 1119.546187 359.517187 
L 1119.546187 26.877187 
L 1119.160513 26.877187 
L 1119.160513 359.517187 
z
" clip-path="url(#p4e24db0fda)" style="fill: #add8e6; stroke: #add8e6; stroke-linejoin: miter"/>
   </g>
   <g id="patch_123">
    <path d="M 184.447202 359.517187 
L 184.447202 26.877187 
L 281.426769 26.877187 
L 281.426769 359.517187 
z
" clip-path="url(#p4e24db0fda)" style="fill: #808080; opacity: 0.4; stroke: #808080; stroke-linejoin: miter"/>
   </g>
   <g id="patch_124">
    <path d="M 284.120646 26.877187 
L 284.120646 26.877187 
L 284.120646 359.517187 
" clip-path="url(#p4e24db0fda)" style="fill: #808080; opacity: 0.4; stroke: #808080; stroke-linejoin: miter"/>
   </g>
   <g id="patch_125">
    <path d="M 286.814522 26.877187 
L 286.814522 26.877187 
L 286.814522 359.517187 
" clip-path="url(#p4e24db0fda)" style="fill: #808080; opacity: 0.4; stroke: #808080; stroke-linejoin: miter"/>
   </g>
   <g id="patch_126">
    <path d="M 378.406336 359.517187 
L 378.406336 26.877187 
L 475.385903 26.877187 
L 475.385903 359.517187 
z
" clip-path="url(#p4e24db0fda)" style="fill: #808080; opacity: 0.4; stroke: #808080; stroke-linejoin: miter"/>
   </g>
   <g id="patch_127">
    <path d="M 478.07978 26.877187 
L 478.07978 26.877187 
L 478.07978 359.517187 
" clip-path="url(#p4e24db0fda)" style="fill: #808080; opacity: 0.4; stroke: #808080; stroke-linejoin: miter"/>
   </g>
   <g id="patch_128">
    <path d="M 480.773656 26.877187 
L 480.773656 26.877187 
L 480.773656 359.517187 
" clip-path="url(#p4e24db0fda)" style="fill: #808080; opacity: 0.4; stroke: #808080; stroke-linejoin: miter"/>
   </g>
   <g id="patch_129">
    <path d="M 572.36547 359.517187 
L 572.36547 26.877187 
L 669.345037 26.877187 
L 669.345037 359.517187 
z
" clip-path="url(#p4e24db0fda)" style="fill: #808080; opacity: 0.4; stroke: #808080; stroke-linejoin: miter"/>
   </g>
   <g id="patch_130">
    <path d="M 672.038914 26.877187 
L 672.038914 26.877187 
L 672.038914 359.517187 
" clip-path="url(#p4e24db0fda)" style="fill: #808080; opacity: 0.4; stroke: #808080; stroke-linejoin: miter"/>
   </g>
   <g id="patch_131">
    <path d="M 674.73279 26.877187 
L 674.73279 26.877187 
L 674.73279 359.517187 
" clip-path="url(#p4e24db0fda)" style="fill: #808080; opacity: 0.4; stroke: #808080; stroke-linejoin: miter"/>
   </g>
   <g id="patch_132">
    <path d="M 766.324604 359.517187 
L 766.324604 26.877187 
L 863.304171 26.877187 
L 863.304171 359.517187 
z
" clip-path="url(#p4e24db0fda)" style="fill: #808080; opacity: 0.4; stroke: #808080; stroke-linejoin: miter"/>
   </g>
   <g id="patch_133">
    <path d="M 865.998048 26.877187 
L 865.998048 26.877187 
L 865.998048 359.517187 
" clip-path="url(#p4e24db0fda)" style="fill: #808080; opacity: 0.4; stroke: #808080; stroke-linejoin: miter"/>
   </g>
   <g id="patch_134">
    <path d="M 868.691924 26.877187 
L 868.691924 26.877187 
L 868.691924 359.517187 
" clip-path="url(#p4e24db0fda)" style="fill: #808080; opacity: 0.4; stroke: #808080; stroke-linejoin: miter"/>
   </g>
   <g id="patch_135">
    <path d="M 960.283738 359.517187 
L 960.283738 26.877187 
L 1057.263305 26.877187 
L 1057.263305 359.517187 
z
" clip-path="url(#p4e24db0fda)" style="fill: #808080; opacity: 0.4; stroke: #808080; stroke-linejoin: miter"/>
   </g>
   <g id="patch_136">
    <path d="M 1059.957182 26.877187 
L 1059.957182 26.877187 
L 1059.957182 359.517187 
" clip-path="url(#p4e24db0fda)" style="fill: #808080; opacity: 0.4; stroke: #808080; stroke-linejoin: miter"/>
   </g>
   <g id="patch_137">
    <path d="M 1062.651059 26.877187 
L 1062.651059 26.877187 
L 1062.651059 359.517187 
" clip-path="url(#p4e24db0fda)" style="fill: #808080; opacity: 0.4; stroke: #808080; stroke-linejoin: miter"/>
   </g>
   <g id="matplotlib.axis_1">
    <g id="xtick_1">
     <g id="line2d_1">
      <defs>
       <path id="m0d2196f51d" d="M 0 0 
L 0 3.5 
" style="stroke: #000000; stroke-width: 0.8"/>
      </defs>
      <g>
       <use xlink:href="#m0d2196f51d" x="223.905763" y="359.517187" style="stroke: #000000; stroke-width: 0.8"/>
      </g>
     </g>
     <g id="text_1">
      <!-- 2024-11-21 -->
      <g transform="translate(194.847951 374.115625) scale(0.1 -0.1)">
       <defs>
        <path id="DejaVuSans-32" d="M 1228 531 
L 3431 531 
L 3431 0 
L 469 0 
L 469 531 
Q 828 903 1448 1529 
Q 2069 2156 2228 2338 
Q 2531 2678 2651 2914 
Q 2772 3150 2772 3378 
Q 2772 3750 2511 3984 
Q 2250 4219 1831 4219 
Q 1534 4219 1204 4116 
Q 875 4013 500 3803 
L 500 4441 
Q 881 4594 1212 4672 
Q 1544 4750 1819 4750 
Q 2544 4750 2975 4387 
Q 3406 4025 3406 3419 
Q 3406 3131 3298 2873 
Q 3191 2616 2906 2266 
Q 2828 2175 2409 1742 
Q 1991 1309 1228 531 
z
" transform="scale(0.015625)"/>
        <path id="DejaVuSans-30" d="M 2034 4250 
Q 1547 4250 1301 3770 
Q 1056 3291 1056 2328 
Q 1056 1369 1301 889 
Q 1547 409 2034 409 
Q 2525 409 2770 889 
Q 3016 1369 3016 2328 
Q 3016 3291 2770 3770 
Q 2525 4250 2034 4250 
z
M 2034 4750 
Q 2819 4750 3233 4129 
Q 3647 3509 3647 2328 
Q 3647 1150 3233 529 
Q 2819 -91 2034 -91 
Q 1250 -91 836 529 
Q 422 1150 422 2328 
Q 422 3509 836 4129 
Q 1250 4750 2034 4750 
z
" transform="scale(0.015625)"/>
        <path id="DejaVuSans-34" d="M 2419 4116 
L 825 1625 
L 2419 1625 
L 2419 4116 
z
M 2253 4666 
L 3047 4666 
L 3047 1625 
L 3713 1625 
L 3713 1100 
L 3047 1100 
L 3047 0 
L 2419 0 
L 2419 1100 
L 313 1100 
L 313 1709 
L 2253 4666 
z
" transform="scale(0.015625)"/>
        <path id="DejaVuSans-2d" d="M 313 2009 
L 1997 2009 
L 1997 1497 
L 313 1497 
L 313 2009 
z
" transform="scale(0.015625)"/>
        <path id="DejaVuSans-31" d="M 794 531 
L 1825 531 
L 1825 4091 
L 703 3866 
L 703 4441 
L 1819 4666 
L 2450 4666 
L 2450 531 
L 3481 531 
L 3481 0 
L 794 0 
L 794 531 
z
" transform="scale(0.015625)"/>
       </defs>
       <use xlink:href="#DejaVuSans-32"/>
       <use xlink:href="#DejaVuSans-30" x="63.623047"/>
       <use xlink:href="#DejaVuSans-32" x="127.246094"/>
       <use xlink:href="#DejaVuSans-34" x="190.869141"/>
       <use xlink:href="#DejaVuSans-2d" x="254.492188"/>
       <use xlink:href="#DejaVuSans-31" x="290.576172"/>
       <use xlink:href="#DejaVuSans-31" x="354.199219"/>
       <use xlink:href="#DejaVuSans-2d" x="417.822266"/>
       <use xlink:href="#DejaVuSans-32" x="453.90625"/>
       <use xlink:href="#DejaVuSans-31" x="517.529297"/>
      </g>
     </g>
    </g>
    <g id="xtick_2">
     <g id="line2d_2">
      <g>
       <use xlink:href="#m0d2196f51d" x="417.864897" y="359.517187" style="stroke: #000000; stroke-width: 0.8"/>
      </g>
     </g>
     <g id="text_2">
      <!-- 2024-11-22 -->
      <g transform="translate(388.807085 374.115625) scale(0.1 -0.1)">
       <use xlink:href="#DejaVuSans-32"/>
       <use xlink:href="#DejaVuSans-30" x="63.623047"/>
       <use xlink:href="#DejaVuSans-32" x="127.246094"/>
       <use xlink:href="#DejaVuSans-34" x="190.869141"/>
       <use xlink:href="#DejaVuSans-2d" x="254.492188"/>
       <use xlink:href="#DejaVuSans-31" x="290.576172"/>
       <use xlink:href="#DejaVuSans-31" x="354.199219"/>
       <use xlink:href="#DejaVuSans-2d" x="417.822266"/>
       <use xlink:href="#DejaVuSans-32" x="453.90625"/>
       <use xlink:href="#DejaVuSans-32" x="517.529297"/>
      </g>
     </g>
    </g>
    <g id="xtick_3">
     <g id="line2d_3">
      <g>
       <use xlink:href="#m0d2196f51d" x="611.824031" y="359.517187" style="stroke: #000000; stroke-width: 0.8"/>
      </g>
     </g>
     <g id="text_3">
      <!-- 2024-11-23 -->
      <g transform="translate(582.766219 374.115625) scale(0.1 -0.1)">
       <defs>
        <path id="DejaVuSans-33" d="M 2597 2516 
Q 3050 2419 3304 2112 
Q 3559 1806 3559 1356 
Q 3559 666 3084 287 
Q 2609 -91 1734 -91 
Q 1441 -91 1130 -33 
Q 819 25 488 141 
L 488 750 
Q 750 597 1062 519 
Q 1375 441 1716 441 
Q 2309 441 2620 675 
Q 2931 909 2931 1356 
Q 2931 1769 2642 2001 
Q 2353 2234 1838 2234 
L 1294 2234 
L 1294 2753 
L 1863 2753 
Q 2328 2753 2575 2939 
Q 2822 3125 2822 3475 
Q 2822 3834 2567 4026 
Q 2313 4219 1838 4219 
Q 1578 4219 1281 4162 
Q 984 4106 628 3988 
L 628 4550 
Q 988 4650 1302 4700 
Q 1616 4750 1894 4750 
Q 2613 4750 3031 4423 
Q 3450 4097 3450 3541 
Q 3450 3153 3228 2886 
Q 3006 2619 2597 2516 
z
" transform="scale(0.015625)"/>
       </defs>
       <use xlink:href="#DejaVuSans-32"/>
       <use xlink:href="#DejaVuSans-30" x="63.623047"/>
       <use xlink:href="#DejaVuSans-32" x="127.246094"/>
       <use xlink:href="#DejaVuSans-34" x="190.869141"/>
       <use xlink:href="#DejaVuSans-2d" x="254.492188"/>
       <use xlink:href="#DejaVuSans-31" x="290.576172"/>
       <use xlink:href="#DejaVuSans-31" x="354.199219"/>
       <use xlink:href="#DejaVuSans-2d" x="417.822266"/>
       <use xlink:href="#DejaVuSans-32" x="453.90625"/>
       <use xlink:href="#DejaVuSans-33" x="517.529297"/>
      </g>
     </g>
    </g>
    <g id="xtick_4">
     <g id="line2d_4">
      <g>
       <use xlink:href="#m0d2196f51d" x="805.783165" y="359.517187" style="stroke: #000000; stroke-width: 0.8"/>
      </g>
     </g>
     <g id="text_4">
      <!-- 2024-11-24 -->
      <g transform="translate(776.725353 374.115625) scale(0.1 -0.1)">
       <use xlink:href="#DejaVuSans-32"/>
       <use xlink:href="#DejaVuSans-30" x="63.623047"/>
       <use xlink:href="#DejaVuSans-32" x="127.246094"/>
       <use xlink:href="#DejaVuSans-34" x="190.869141"/>
       <use xlink:href="#DejaVuSans-2d" x="254.492188"/>
       <use xlink:href="#DejaVuSans-31" x="290.576172"/>
       <use xlink:href="#DejaVuSans-31" x="354.199219"/>
       <use xlink:href="#DejaVuSans-2d" x="417.822266"/>
       <use xlink:href="#DejaVuSans-32" x="453.90625"/>
       <use xlink:href="#DejaVuSans-34" x="517.529297"/>
      </g>
     </g>
    </g>
    <g id="xtick_5">
     <g id="line2d_5">
      <g>
       <use xlink:href="#m0d2196f51d" x="999.742299" y="359.517187" style="stroke: #000000; stroke-width: 0.8"/>
      </g>
     </g>
     <g id="text_5">
      <!-- 2024-11-25 -->
      <g transform="translate(970.684487 374.115625) scale(0.1 -0.1)">
       <defs>
        <path id="DejaVuSans-35" d="M 691 4666 
L 3169 4666 
L 3169 4134 
L 1269 4134 
L 1269 2991 
Q 1406 3038 1543 3061 
Q 1681 3084 1819 3084 
Q 2600 3084 3056 2656 
Q 3513 2228 3513 1497 
Q 3513 744 3044 326 
Q 2575 -91 1722 -91 
Q 1428 -91 1123 -41 
Q 819 9 494 109 
L 494 744 
Q 775 591 1075 516 
Q 1375 441 1709 441 
Q 2250 441 2565 725 
Q 2881 1009 2881 1497 
Q 2881 1984 2565 2268 
Q 2250 2553 1709 2553 
Q 1456 2553 1204 2497 
Q 953 2441 691 2322 
L 691 4666 
z
" transform="scale(0.015625)"/>
       </defs>
       <use xlink:href="#DejaVuSans-32"/>
       <use xlink:href="#DejaVuSans-30" x="63.623047"/>
       <use xlink:href="#DejaVuSans-32" x="127.246094"/>
       <use xlink:href="#DejaVuSans-34" x="190.869141"/>
       <use xlink:href="#DejaVuSans-2d" x="254.492188"/>
       <use xlink:href="#DejaVuSans-31" x="290.576172"/>
       <use xlink:href="#DejaVuSans-31" x="354.199219"/>
       <use xlink:href="#DejaVuSans-2d" x="417.822266"/>
       <use xlink:href="#DejaVuSans-32" x="453.90625"/>
       <use xlink:href="#DejaVuSans-35" x="517.529297"/>
      </g>
     </g>
    </g>
    <g id="text_6">
     <!-- Time -->
     <g transform="translate(598.917187 389.313437) scale(0.12 -0.12)">
      <defs>
       <path id="DejaVuSans-54" d="M -19 4666 
L 3928 4666 
L 3928 4134 
L 2272 4134 
L 2272 0 
L 1638 0 
L 1638 4134 
L -19 4134 
L -19 4666 
z
" transform="scale(0.015625)"/>
       <path id="DejaVuSans-69" d="M 603 3500 
L 1178 3500 
L 1178 0 
L 603 0 
L 603 3500 
z
M 603 4863 
L 1178 4863 
L 1178 4134 
L 603 4134 
L 603 4863 
z
" transform="scale(0.015625)"/>
       <path id="DejaVuSans-6d" d="M 3328 2828 
Q 3544 3216 3844 3400 
Q 4144 3584 4550 3584 
Q 5097 3584 5394 3201 
Q 5691 2819 5691 2113 
L 5691 0 
L 5113 0 
L 5113 2094 
Q 5113 2597 4934 2840 
Q 4756 3084 4391 3084 
Q 3944 3084 3684 2787 
Q 3425 2491 3425 1978 
L 3425 0 
L 2847 0 
L 2847 2094 
Q 2847 2600 2669 2842 
Q 2491 3084 2119 3084 
Q 1678 3084 1418 2786 
Q 1159 2488 1159 1978 
L 1159 0 
L 581 0 
L 581 3500 
L 1159 3500 
L 1159 2956 
Q 1356 3278 1631 3431 
Q 1906 3584 2284 3584 
Q 2666 3584 2933 3390 
Q 3200 3197 3328 2828 
z
" transform="scale(0.015625)"/>
       <path id="DejaVuSans-65" d="M 3597 1894 
L 3597 1613 
L 953 1613 
Q 991 1019 1311 708 
Q 1631 397 2203 397 
Q 2534 397 2845 478 
Q 3156 559 3463 722 
L 3463 178 
Q 3153 47 2828 -22 
Q 2503 -91 2169 -91 
Q 1331 -91 842 396 
Q 353 884 353 1716 
Q 353 2575 817 3079 
Q 1281 3584 2069 3584 
Q 2775 3584 3186 3129 
Q 3597 2675 3597 1894 
z
M 3022 2063 
Q 3016 2534 2758 2815 
Q 2500 3097 2075 3097 
Q 1594 3097 1305 2825 
Q 1016 2553 972 2059 
L 3022 2063 
z
" transform="scale(0.015625)"/>
      </defs>
      <use xlink:href="#DejaVuSans-54"/>
      <use xlink:href="#DejaVuSans-69" x="57.958984"/>
      <use xlink:href="#DejaVuSans-6d" x="85.742188"/>
      <use xlink:href="#DejaVuSans-65" x="183.154297"/>
     </g>
    </g>
   </g>
   <g id="matplotlib.axis_2">
    <g id="ytick_1">
     <g id="line2d_6">
      <defs>
       <path id="m1eea82cdd1" d="M 0 0 
L -3.5 0 
" style="stroke: #000000; stroke-width: 0.8"/>
      </defs>
      <g>
       <use xlink:href="#m1eea82cdd1" x="55.5975" y="344.397187" style="stroke: #000000; stroke-width: 0.8"/>
      </g>
     </g>
     <g id="text_7">
      <!-- 0 -->
      <g transform="translate(42.235 348.196406) scale(0.1 -0.1)">
       <use xlink:href="#DejaVuSans-30"/>
      </g>
     </g>
    </g>
    <g id="ytick_2">
     <g id="line2d_7">
      <g>
       <use xlink:href="#m1eea82cdd1" x="55.5975" y="287.178644" style="stroke: #000000; stroke-width: 0.8"/>
      </g>
     </g>
     <g id="text_8">
      <!-- 200 -->
      <g transform="translate(29.51 290.977863) scale(0.1 -0.1)">
       <use xlink:href="#DejaVuSans-32"/>
       <use xlink:href="#DejaVuSans-30" x="63.623047"/>
       <use xlink:href="#DejaVuSans-30" x="127.246094"/>
      </g>
     </g>
    </g>
    <g id="ytick_3">
     <g id="line2d_8">
      <g>
       <use xlink:href="#m1eea82cdd1" x="55.5975" y="229.960101" style="stroke: #000000; stroke-width: 0.8"/>
      </g>
     </g>
     <g id="text_9">
      <!-- 400 -->
      <g transform="translate(29.51 233.75932) scale(0.1 -0.1)">
       <use xlink:href="#DejaVuSans-34"/>
       <use xlink:href="#DejaVuSans-30" x="63.623047"/>
       <use xlink:href="#DejaVuSans-30" x="127.246094"/>
      </g>
     </g>
    </g>
    <g id="ytick_4">
     <g id="line2d_9">
      <g>
       <use xlink:href="#m1eea82cdd1" x="55.5975" y="172.741558" style="stroke: #000000; stroke-width: 0.8"/>
      </g>
     </g>
     <g id="text_10">
      <!-- 600 -->
      <g transform="translate(29.51 176.540777) scale(0.1 -0.1)">
       <defs>
        <path id="DejaVuSans-36" d="M 2113 2584 
Q 1688 2584 1439 2293 
Q 1191 2003 1191 1497 
Q 1191 994 1439 701 
Q 1688 409 2113 409 
Q 2538 409 2786 701 
Q 3034 994 3034 1497 
Q 3034 2003 2786 2293 
Q 2538 2584 2113 2584 
z
M 3366 4563 
L 3366 3988 
Q 3128 4100 2886 4159 
Q 2644 4219 2406 4219 
Q 1781 4219 1451 3797 
Q 1122 3375 1075 2522 
Q 1259 2794 1537 2939 
Q 1816 3084 2150 3084 
Q 2853 3084 3261 2657 
Q 3669 2231 3669 1497 
Q 3669 778 3244 343 
Q 2819 -91 2113 -91 
Q 1303 -91 875 529 
Q 447 1150 447 2328 
Q 447 3434 972 4092 
Q 1497 4750 2381 4750 
Q 2619 4750 2861 4703 
Q 3103 4656 3366 4563 
z
" transform="scale(0.015625)"/>
       </defs>
       <use xlink:href="#DejaVuSans-36"/>
       <use xlink:href="#DejaVuSans-30" x="63.623047"/>
       <use xlink:href="#DejaVuSans-30" x="127.246094"/>
      </g>
     </g>
    </g>
    <g id="ytick_5">
     <g id="line2d_10">
      <g>
       <use xlink:href="#m1eea82cdd1" x="55.5975" y="115.523015" style="stroke: #000000; stroke-width: 0.8"/>
      </g>
     </g>
     <g id="text_11">
      <!-- 800 -->
      <g transform="translate(29.51 119.322234) scale(0.1 -0.1)">
       <defs>
        <path id="DejaVuSans-38" d="M 2034 2216 
Q 1584 2216 1326 1975 
Q 1069 1734 1069 1313 
Q 1069 891 1326 650 
Q 1584 409 2034 409 
Q 2484 409 2743 651 
Q 3003 894 3003 1313 
Q 3003 1734 2745 1975 
Q 2488 2216 2034 2216 
z
M 1403 2484 
Q 997 2584 770 2862 
Q 544 3141 544 3541 
Q 544 4100 942 4425 
Q 1341 4750 2034 4750 
Q 2731 4750 3128 4425 
Q 3525 4100 3525 3541 
Q 3525 3141 3298 2862 
Q 3072 2584 2669 2484 
Q 3125 2378 3379 2068 
Q 3634 1759 3634 1313 
Q 3634 634 3220 271 
Q 2806 -91 2034 -91 
Q 1263 -91 848 271 
Q 434 634 434 1313 
Q 434 1759 690 2068 
Q 947 2378 1403 2484 
z
M 1172 3481 
Q 1172 3119 1398 2916 
Q 1625 2713 2034 2713 
Q 2441 2713 2670 2916 
Q 2900 3119 2900 3481 
Q 2900 3844 2670 4047 
Q 2441 4250 2034 4250 
Q 1625 4250 1398 4047 
Q 1172 3844 1172 3481 
z
" transform="scale(0.015625)"/>
       </defs>
       <use xlink:href="#DejaVuSans-38"/>
       <use xlink:href="#DejaVuSans-30" x="63.623047"/>
       <use xlink:href="#DejaVuSans-30" x="127.246094"/>
      </g>
     </g>
    </g>
    <g id="ytick_6">
     <g id="line2d_11">
      <g>
       <use xlink:href="#m1eea82cdd1" x="55.5975" y="58.304472" style="stroke: #000000; stroke-width: 0.8"/>
      </g>
     </g>
     <g id="text_12">
      <!-- 1000 -->
      <g transform="translate(23.1475 62.103691) scale(0.1 -0.1)">
       <use xlink:href="#DejaVuSans-31"/>
       <use xlink:href="#DejaVuSans-30" x="63.623047"/>
       <use xlink:href="#DejaVuSans-30" x="127.246094"/>
       <use xlink:href="#DejaVuSans-30" x="190.869141"/>
      </g>
     </g>
    </g>
    <g id="text_13">
     <!-- Pellet_Count -->
     <g transform="translate(16.318125 230.485312) rotate(-90) scale(0.12 -0.12)">
      <defs>
       <path id="DejaVuSans-50" d="M 1259 4147 
L 1259 2394 
L 2053 2394 
Q 2494 2394 2734 2622 
Q 2975 2850 2975 3272 
Q 2975 3691 2734 3919 
Q 2494 4147 2053 4147 
L 1259 4147 
z
M 628 4666 
L 2053 4666 
Q 2838 4666 3239 4311 
Q 3641 3956 3641 3272 
Q 3641 2581 3239 2228 
Q 2838 1875 2053 1875 
L 1259 1875 
L 1259 0 
L 628 0 
L 628 4666 
z
" transform="scale(0.015625)"/>
       <path id="DejaVuSans-6c" d="M 603 4863 
L 1178 4863 
L 1178 0 
L 603 0 
L 603 4863 
z
" transform="scale(0.015625)"/>
       <path id="DejaVuSans-74" d="M 1172 4494 
L 1172 3500 
L 2356 3500 
L 2356 3053 
L 1172 3053 
L 1172 1153 
Q 1172 725 1289 603 
Q 1406 481 1766 481 
L 2356 481 
L 2356 0 
L 1766 0 
Q 1100 0 847 248 
Q 594 497 594 1153 
L 594 3053 
L 172 3053 
L 172 3500 
L 594 3500 
L 594 4494 
L 1172 4494 
z
" transform="scale(0.015625)"/>
       <path id="DejaVuSans-5f" d="M 3263 -1063 
L 3263 -1509 
L -63 -1509 
L -63 -1063 
L 3263 -1063 
z
" transform="scale(0.015625)"/>
       <path id="DejaVuSans-43" d="M 4122 4306 
L 4122 3641 
Q 3803 3938 3442 4084 
Q 3081 4231 2675 4231 
Q 1875 4231 1450 3742 
Q 1025 3253 1025 2328 
Q 1025 1406 1450 917 
Q 1875 428 2675 428 
Q 3081 428 3442 575 
Q 3803 722 4122 1019 
L 4122 359 
Q 3791 134 3420 21 
Q 3050 -91 2638 -91 
Q 1578 -91 968 557 
Q 359 1206 359 2328 
Q 359 3453 968 4101 
Q 1578 4750 2638 4750 
Q 3056 4750 3426 4639 
Q 3797 4528 4122 4306 
z
" transform="scale(0.015625)"/>
       <path id="DejaVuSans-6f" d="M 1959 3097 
Q 1497 3097 1228 2736 
Q 959 2375 959 1747 
Q 959 1119 1226 758 
Q 1494 397 1959 397 
Q 2419 397 2687 759 
Q 2956 1122 2956 1747 
Q 2956 2369 2687 2733 
Q 2419 3097 1959 3097 
z
M 1959 3584 
Q 2709 3584 3137 3096 
Q 3566 2609 3566 1747 
Q 3566 888 3137 398 
Q 2709 -91 1959 -91 
Q 1206 -91 779 398 
Q 353 888 353 1747 
Q 353 2609 779 3096 
Q 1206 3584 1959 3584 
z
" transform="scale(0.015625)"/>
       <path id="DejaVuSans-75" d="M 544 1381 
L 544 3500 
L 1119 3500 
L 1119 1403 
Q 1119 906 1312 657 
Q 1506 409 1894 409 
Q 2359 409 2629 706 
Q 2900 1003 2900 1516 
L 2900 3500 
L 3475 3500 
L 3475 0 
L 2900 0 
L 2900 538 
Q 2691 219 2414 64 
Q 2138 -91 1772 -91 
Q 1169 -91 856 284 
Q 544 659 544 1381 
z
M 1991 3584 
L 1991 3584 
z
" transform="scale(0.015625)"/>
       <path id="DejaVuSans-6e" d="M 3513 2113 
L 3513 0 
L 2938 0 
L 2938 2094 
Q 2938 2591 2744 2837 
Q 2550 3084 2163 3084 
Q 1697 3084 1428 2787 
Q 1159 2491 1159 1978 
L 1159 0 
L 581 0 
L 581 3500 
L 1159 3500 
L 1159 2956 
Q 1366 3272 1645 3428 
Q 1925 3584 2291 3584 
Q 2894 3584 3203 3211 
Q 3513 2838 3513 2113 
z
" transform="scale(0.015625)"/>
      </defs>
      <use xlink:href="#DejaVuSans-50"/>
      <use xlink:href="#DejaVuSans-65" x="56.677734"/>
      <use xlink:href="#DejaVuSans-6c" x="118.201172"/>
      <use xlink:href="#DejaVuSans-6c" x="145.984375"/>
      <use xlink:href="#DejaVuSans-65" x="173.767578"/>
      <use xlink:href="#DejaVuSans-74" x="235.291016"/>
      <use xlink:href="#DejaVuSans-5f" x="274.5"/>
      <use xlink:href="#DejaVuSans-43" x="324.5"/>
      <use xlink:href="#DejaVuSans-6f" x="394.324219"/>
      <use xlink:href="#DejaVuSans-75" x="455.505859"/>
      <use xlink:href="#DejaVuSans-6e" x="518.884766"/>
      <use xlink:href="#DejaVuSans-74" x="582.263672"/>
     </g>
    </g>
   </g>
   <g id="line2d_12">
    <path d="M 106.324773 344.397187 
L 106.39212 344.397187 
L 106.434773 344.111095 
L 107.604364 344.111095 
L 108.039874 343.825002 
L 122.905585 343.825002 
L 122.905585 343.825002 
L 123.031299 343.538909 
L 123.047013 343.538909 
L 123.163748 342.966724 
L 123.242319 342.966724 
L 123.368034 342.394538 
L 123.433136 342.394538 
L 123.531911 341.822353 
L 123.574564 341.822353 
L 123.630687 341.250168 
L 123.895585 341.250168 
L 124.032523 340.105797 
L 124.335584 340.105797 
L 124.427625 339.247519 
L 125.651094 339.247519 
L 125.720686 338.675333 
L 126.762319 338.675333 
L 126.874563 337.817055 
L 126.903747 337.817055 
L 126.910482 337.530962 
L 127.17538 337.530962 
L 127.808441 337.24487 
L 132.819052 337.24487 
L 132.938031 336.386591 
L 133.039052 336.386591 
L 133.115378 335.528313 
L 133.162521 335.528313 
L 133.256807 334.670035 
L 133.306194 334.670035 
L 133.310684 334.383942 
L 135.58252 334.383942 
L 135.674561 333.525664 
L 135.714969 333.525664 
L 135.79803 332.667386 
L 136.740887 332.667386 
L 137.091091 332.381293 
L 137.908234 332.381293 
L 137.912724 332.095201 
L 138.31905 332.095201 
L 138.32354 331.809108 
L 138.752315 331.809108 
L 138.75905 331.523015 
L 139.42354 331.523015 
L 139.74905 331.236923 
L 139.852315 330.378644 
L 139.917417 330.378644 
L 139.957825 330.092552 
L 140.537009 330.092552 
L 140.669458 329.234274 
L 142.171294 329.234274 
L 142.303743 328.089903 
L 142.330682 328.089903 
L 142.445172 327.231625 
L 142.487825 327.231625 
L 142.537212 326.659439 
L 143.358845 326.659439 
L 143.837008 326.373346 
L 143.958232 325.801161 
L 144.009865 325.801161 
L 144.045783 325.228976 
L 144.961702 325.228976 
L 145.091906 324.942883 
L 147.177415 324.942883 
L 147.309864 324.084605 
L 147.570272 324.084605 
L 147.669048 323.226327 
L 149.027211 323.226327 
L 149.099047 322.940234 
L 150.472925 322.940234 
L 150.58068 322.081956 
L 150.648027 322.081956 
L 150.652516 321.795863 
L 153.948026 321.795863 
L 154.058026 320.937585 
L 154.084965 320.937585 
L 154.163536 320.079307 
L 154.226393 320.079307 
L 154.343128 318.934936 
L 154.388026 318.934936 
L 154.428434 318.36275 
L 159.699453 318.36275 
L 159.780269 317.504472 
L 159.831902 317.504472 
L 159.944147 316.360101 
L 162.400064 316.360101 
L 162.512309 315.787916 
L 162.566187 315.787916 
L 162.660473 314.929638 
L 162.725575 314.929638 
L 162.813126 314.07136 
L 165.682104 314.07136 
L 165.787615 313.213082 
L 165.870676 313.213082 
L 165.924553 312.640896 
L 168.533124 312.640896 
L 169.015777 312.354803 
L 169.523124 312.354803 
L 169.624144 312.068711 
L 169.794756 312.068711 
L 169.846389 311.496525 
L 169.972103 311.496525 
L 169.976593 311.210433 
L 171.256185 311.210433 
L 171.397613 310.066062 
L 171.480674 310.066062 
L 171.485164 309.779969 
L 173.150878 309.779969 
L 173.377613 309.493876 
L 174.587612 309.207784 
L 176.331898 309.207784 
L 176.868428 308.921691 
L 177.838224 308.921691 
L 177.954958 308.063413 
L 177.999856 308.063413 
L 178.064958 307.77732 
L 179.636387 307.77732 
L 179.739652 307.205135 
L 179.78006 307.205135 
L 179.822713 306.632949 
L 184.516794 306.632949 
L 184.631283 306.060764 
L 184.653732 306.060764 
L 184.763732 304.916393 
L 184.797406 304.916393 
L 184.842304 304.344207 
L 185.764956 304.344207 
L 185.769446 304.058115 
L 188.261282 304.058115 
L 188.344344 303.199837 
L 197.231892 303.199837 
L 197.319443 302.341558 
L 197.359851 302.341558 
L 197.451892 301.48328 
L 197.528219 301.48328 
L 197.626994 300.911095 
L 199.820259 300.911095 
L 199.826994 300.625002 
L 201.98883 300.625002 
L 202.096585 300.052817 
L 202.132503 300.052817 
L 202.235769 299.194538 
L 211.783317 299.194538 
L 211.857399 298.622353 
L 211.904542 298.622353 
L 211.994338 297.764075 
L 212.034746 297.764075 
L 212.081889 297.191889 
L 223.908008 297.191889 
L 223.912498 296.905797 
L 224.18862 296.905797 
L 224.251477 296.333611 
L 226.889232 296.333611 
L 226.979028 295.761426 
L 227.028415 295.761426 
L 227.091272 295.18924 
L 228.56617 295.18924 
L 228.599843 294.903148 
L 235.78576 294.903148 
L 235.902495 294.330962 
L 235.920454 294.330962 
L 236.008005 294.04487 
L 236.008005 294.04487 
L 236.061882 294.04487 
L 236.149433 293.186591 
L 236.183107 293.186591 
L 236.243719 292.614406 
L 241.530452 292.614406 
L 241.629228 292.042221 
L 241.665146 292.042221 
L 241.754942 291.183942 
L 241.788616 291.183942 
L 241.793105 290.89785 
L 249.380859 290.89785 
L 249.477389 290.039572 
L 249.553716 290.039572 
L 249.598614 289.467386 
L 254.528408 289.467386 
L 254.631674 288.609108 
L 254.69902 288.609108 
L 254.779837 287.75083 
L 254.829225 287.75083 
L 254.878612 287.178644 
L 262.35861 287.178644 
L 262.470855 286.892552 
L 262.502284 286.892552 
L 262.619018 286.320366 
L 262.632488 286.320366 
L 262.690855 285.748181 
L 267.50616 285.748181 
L 267.595956 285.175995 
L 267.643099 285.175995 
L 267.746364 284.317717 
L 268.28065 284.317717 
L 268.285139 284.031625 
L 274.18024 284.031625 
L 274.29473 283.459439 
L 274.308199 283.459439 
L 274.386771 282.601161 
L 274.427179 282.601161 
L 274.516975 281.742883 
L 280.445749 281.742883 
L 280.566973 280.884605 
L 281.579422 280.884605 
L 282.396564 280.598512 
L 289.227787 280.598512 
L 289.272685 280.026327 
L 289.402889 280.026327 
L 289.488195 279.168048 
L 289.528603 279.168048 
L 289.575746 278.595863 
L 292.817378 278.595863 
L 292.911664 277.737585 
L 292.947582 277.737585 
L 293.023909 276.879307 
L 298.633907 276.879307 
L 298.716968 276.021029 
L 301.999008 276.021029 
L 302.086559 275.16275 
L 302.140437 275.16275 
L 302.227988 274.304472 
L 304.692885 274.304472 
L 304.832069 273.160101 
L 304.863497 273.160101 
L 304.865742 272.874009 
L 311.180639 272.874009 
L 311.290639 272.015731 
L 312.994516 272.015731 
L 313.086557 271.157452 
L 313.122475 271.157452 
L 313.131454 270.87136 
L 317.625739 270.87136 
L 317.632474 270.585267 
L 319.300432 270.585267 
L 319.390228 269.726989 
L 319.437371 269.726989 
L 319.439616 269.440896 
L 319.601249 269.440896 
L 319.607983 269.154803 
L 321.639616 269.154803 
L 321.64635 268.868711 
L 322.656554 268.868711 
L 322.923697 268.296525 
L 323.734105 268.296525 
L 323.73635 268.010433 
L 324.737574 268.010433 
L 324.843084 267.438247 
L 326.131655 267.438247 
L 326.1339 267.152154 
L 326.975737 267.152154 
L 327.083492 266.293876 
L 327.294512 266.293876 
L 328.044308 266.007784 
L 328.529206 266.007784 
L 328.657165 265.721691 
L 329.469818 265.721691 
L 329.595532 264.57732 
L 331.16247 264.57732 
L 331.247776 263.719042 
L 331.290429 263.719042 
L 331.335327 263.146856 
L 333.407368 263.146856 
L 333.517368 262.002486 
L 333.560021 262.002486 
L 333.562266 261.716393 
L 335.549 261.716393 
L 335.64553 260.858115 
L 335.679204 260.858115 
L 335.739816 260.285929 
L 337.50206 260.285929 
L 337.50655 259.999837 
L 338.444917 259.999837 
L 338.548183 259.141558 
L 339.520223 259.141558 
L 339.627978 258.855466 
L 339.978182 258.855466 
L 340.041039 258.28328 
L 341.23757 258.28328 
L 341.322876 257.425002 
L 342.844916 257.425002 
L 342.943692 256.566724 
L 343.852875 256.566724 
L 344.115528 255.994538 
L 345.092059 255.994538 
L 345.202059 255.13626 
L 345.235732 255.13626 
L 345.314303 254.564075 
L 345.359201 254.564075 
L 345.361446 254.277982 
L 347.613078 254.277982 
L 347.718588 253.419704 
L 347.761242 253.419704 
L 347.880221 252.275333 
L 348.731037 252.275333 
L 348.850017 251.417055 
L 348.915119 251.417055 
L 348.962262 251.130962 
L 351.597771 251.130962 
L 351.714506 249.986591 
L 351.743689 249.986591 
L 351.815526 249.128313 
L 352.587771 249.128313 
L 356.278382 248.842221 
L 356.395117 247.69785 
L 356.422056 247.69785 
L 356.516341 246.839572 
L 356.554505 246.839572 
L 356.556749 246.553479 
L 357.165117 246.553479 
L 357.236953 246.267386 
L 358.700626 246.267386 
L 358.976749 245.695201 
L 359.075524 244.836923 
L 363.621442 244.836923 
L 363.731442 244.264737 
L 365.684502 244.264737 
L 365.792257 243.406459 
L 365.85287 243.406459 
L 365.947155 242.548181 
L 365.989808 242.548181 
L 365.992053 242.262088 
L 367.509604 242.262088 
L 367.763277 241.689903 
L 367.770012 241.40381 
L 371.236133 241.40381 
L 371.357358 240.545532 
L 371.400011 240.545532 
L 371.516746 239.687254 
L 371.63797 238.542883 
L 377.840622 238.542883 
L 377.948377 237.684605 
L 377.988785 237.684605 
L 378.110009 236.540234 
L 378.141438 236.540234 
L 378.235724 235.681956 
L 378.267152 235.681956 
L 378.269397 235.395863 
L 383.614498 235.395863 
L 383.704294 234.537585 
L 383.740212 234.537585 
L 383.834498 233.679307 
L 383.870416 233.679307 
L 383.872661 233.393214 
L 388.955109 233.393214 
L 389.076333 232.248843 
L 389.107762 232.248843 
L 389.186333 231.676658 
L 397.577759 231.676658 
L 397.68327 230.81838 
L 397.714698 230.81838 
L 397.808984 230.246194 
L 397.950412 229.960101 
L 403.942043 229.960101 
L 404.058778 229.101823 
L 404.121635 229.101823 
L 404.24286 228.243545 
L 404.321431 228.243545 
L 404.373064 227.67136 
L 411.88898 227.67136 
L 411.990001 226.813082 
L 412.088776 226.813082 
L 412.178572 225.954803 
L 412.212245 225.954803 
L 412.268368 225.382618 
L 423.416528 225.382618 
L 423.513059 224.810433 
L 426.047548 224.810433 
L 426.11714 224.52434 
L 426.828772 224.52434 
L 426.889385 224.238247 
L 433.87775 224.238247 
L 433.972036 223.666062 
L 434.005709 223.666062 
L 434.010199 223.379969 
L 443.831625 223.379969 
L 443.946115 222.807784 
L 443.950605 222.807784 
L 444.015707 222.521691 
L 450.687542 222.521691 
L 450.784072 221.949505 
L 450.815501 221.949505 
L 450.907542 221.091227 
L 450.959174 221.091227 
L 451.004072 220.519042 
L 459.011621 220.519042 
L 459.016111 220.232949 
L 470.494271 220.232949 
L 470.550394 219.660764 
L 470.64019 219.660764 
L 470.763659 218.802486 
L 483.844676 218.802486 
L 483.927737 217.944207 
L 483.97488 217.944207 
L 484.019778 217.372022 
L 490.848756 217.372022 
L 490.952021 216.513744 
L 490.994674 216.513744 
L 491.037327 215.941558 
L 495.149979 215.941558 
L 495.244265 215.369373 
L 495.277938 215.369373 
L 495.372224 214.511095 
L 500.777937 214.511095 
L 500.784672 214.225002 
L 502.358345 214.225002 
L 502.396508 213.938909 
L 504.183446 213.938909 
L 504.416916 212.508446 
L 507.447527 212.508446 
L 509.119976 212.222353 
L 511.768955 212.222353 
L 511.874465 211.364075 
L 515.455076 211.364075 
L 515.553852 210.505797 
L 515.58528 210.505797 
L 515.679566 209.647519 
L 515.717729 209.647519 
L 515.807525 209.075333 
L 515.939974 208.78924 
L 519.125483 208.78924 
L 519.230994 208.503148 
L 520.591401 208.503148 
L 520.714871 207.358777 
L 523.442421 207.358777 
L 523.547931 206.214406 
L 523.58385 206.214406 
L 523.669156 205.356128 
L 525.828747 205.356128 
L 525.920788 204.49785 
L 526.008339 204.49785 
L 526.010584 204.211757 
L 527.768338 204.211757 
L 527.878338 203.925664 
L 528.628134 203.925664 
L 528.742624 203.067386 
L 528.778542 203.067386 
L 528.893032 202.209108 
L 528.94242 201.636923 
L 530.123236 201.636923 
L 530.186093 201.35083 
L 531.389358 201.35083 
L 531.396092 201.064737 
L 532.184051 201.064737 
L 532.298541 200.492552 
L 532.3165 200.492552 
L 532.401807 199.634274 
L 532.446704 199.634274 
L 532.518541 198.775995 
L 534.155071 198.775995 
L 534.267316 197.631625 
L 534.294255 197.631625 
L 534.370582 196.773346 
L 537.055479 196.773346 
L 537.120581 196.201161 
L 538.687519 196.201161 
L 538.793029 195.342883 
L 538.824458 195.342883 
L 538.826703 195.05679 
L 540.64507 195.05679 
L 540.743845 194.484605 
L 540.782008 194.484605 
L 540.896498 193.912419 
L 542.472416 193.912419 
L 542.571192 193.054141 
L 542.629559 193.054141 
L 542.714865 192.481956 
L 544.90364 192.481956 
L 544.905885 192.195863 
L 545.069762 192.195863 
L 545.175273 191.623678 
L 545.204456 191.623678 
L 545.251599 191.051492 
L 546.784864 191.051492 
L 546.897109 190.193214 
L 546.935272 190.193214 
L 546.937517 189.907121 
L 548.29119 189.907121 
L 548.347313 189.334936 
L 549.546088 189.334936 
L 549.622414 188.476658 
L 549.667312 188.476658 
L 549.669557 188.190565 
L 551.059149 188.190565 
L 551.148945 187.332287 
L 551.202822 187.332287 
L 551.2567 187.046194 
L 562.061391 187.046194 
L 562.153432 186.474009 
L 562.216289 186.474009 
L 562.330778 185.615731 
L 562.342003 185.615731 
L 562.436289 184.757452 
L 562.469962 184.757452 
L 562.52384 184.185267 
L 565.092002 184.185267 
L 565.493839 182.182618 
L 568.659144 182.182618 
L 568.74894 181.32434 
L 568.793838 181.32434 
L 568.796083 181.038247 
L 571.788531 181.038247 
L 571.833429 180.752154 
L 572.818939 180.752154 
L 573.092816 179.893876 
L 573.764041 179.893876 
L 584.39812 179.607784 
L 584.40261 179.321691 
L 584.526079 179.321691 
L 584.568732 178.749505 
L 584.680977 178.749505 
L 584.764038 177.891227 
L 584.813426 177.891227 
L 584.815671 177.605135 
L 597.869749 177.605135 
L 597.871994 177.319042 
L 598.0673 177.319042 
L 598.1773 176.174671 
L 598.206484 176.174671 
L 598.253626 175.602486 
L 607.24893 175.602486 
L 607.309542 175.0303 
L 607.376889 175.0303 
L 607.493624 173.885929 
L 611.193215 173.885929 
L 611.197705 173.599837 
L 625.41015 173.599837 
L 625.522395 172.741558 
L 625.585252 172.741558 
L 625.672803 171.88328 
L 636.706474 171.88328 
L 636.78729 171.311095 
L 636.962392 171.311095 
L 636.964637 171.025002 
L 646.873614 171.025002 
L 646.972389 170.452817 
L 646.992593 170.452817 
L 647.095859 169.880631 
L 647.134022 169.880631 
L 647.246267 169.308446 
L 647.253002 169.308446 
L 647.255246 169.022353 
L 659.328305 169.022353 
L 659.43157 168.164075 
L 667.629935 168.164075 
L 667.629935 168.164075 
L 667.74667 167.305797 
L 667.780343 167.305797 
L 667.870139 166.447519 
L 679.361769 166.447519 
L 679.424626 165.875333 
L 679.597483 165.875333 
L 679.691769 165.58924 
L 685.326461 165.58924 
L 685.396053 165.017055 
L 685.510543 165.017055 
L 685.600339 164.158777 
L 685.782175 164.158777 
L 686.249114 163.872684 
L 686.249114 163.872684 
L 687.252583 163.586591 
L 692.831153 163.586591 
L 692.981561 162.728313 
L 692.988296 162.728313 
L 693.098296 161.870035 
L 696.369111 161.870035 
L 696.479111 161.011757 
L 696.51952 161.011757 
L 696.575642 160.439572 
L 699.956457 160.439572 
L 700.073192 159.867386 
L 707.371354 159.867386 
L 707.501558 159.295201 
L 709.979924 159.295201 
L 710.105639 158.723015 
L 710.114618 158.723015 
L 710.208904 157.864737 
L 710.258292 157.864737 
L 710.332373 157.006459 
L 710.381761 157.006459 
L 710.386251 156.720366 
L 714.505637 156.720366 
L 714.624617 155.575995 
L 714.665025 155.575995 
L 714.66727 155.289903 
L 716.478902 155.289903 
L 716.575433 154.431625 
L 716.613596 154.431625 
L 716.719106 153.573346 
L 718.223188 153.573346 
L 718.227677 153.287254 
L 719.624003 153.287254 
L 719.662167 153.001161 
L 720.825024 153.001161 
L 720.997881 151.85679 
L 721.085432 151.85679 
L 721.087677 151.570697 
L 722.86788 151.570697 
L 722.930737 151.284605 
L 724.520125 151.284605 
L 724.612165 150.426327 
L 724.648084 150.426327 
L 724.767063 149.281956 
L 727.58441 149.281956 
L 727.595634 148.995863 
L 730.002164 148.995863 
L 730.116654 148.137585 
L 730.19747 148.137585 
L 730.314205 146.993214 
L 730.365837 146.993214 
L 730.41747 146.421029 
L 733.627673 146.421029 
L 733.627673 146.421029 
L 733.726449 145.56275 
L 733.762367 145.56275 
L 733.843184 144.704472 
L 733.901551 144.704472 
L 733.993592 144.132287 
L 734.35053 144.132287 
L 734.35502 143.846194 
L 736.606652 143.846194 
L 736.694203 143.560101 
L 737.899713 143.560101 
L 737.946856 143.274009 
L 739.569917 143.274009 
L 739.677672 142.987916 
L 739.688896 142.987916 
L 739.825835 141.843545 
L 739.904406 141.843545 
L 740.023386 140.699174 
L 740.075019 140.699174 
L 740.079508 140.413082 
L 741.516243 140.413082 
L 741.57461 140.126989 
L 742.847467 140.126989 
L 742.961957 139.554803 
L 742.973181 139.554803 
L 743.076446 138.696525 
L 743.911548 138.696525 
L 743.913793 138.410433 
L 746.093589 138.410433 
L 746.174405 137.552154 
L 746.737874 137.552154 
L 748.010731 137.266062 
L 748.091547 136.407784 
L 748.140935 136.407784 
L 748.179098 135.835598 
L 749.633792 135.835598 
L 749.777465 134.691227 
L 749.820118 134.691227 
L 749.916649 133.832949 
L 751.916852 133.832949 
L 752.031342 133.260764 
L 754.534403 133.260764 
L 754.538892 132.974671 
L 759.722361 132.974671 
L 759.85032 132.116393 
L 759.879503 132.116393 
L 759.991748 131.258115 
L 760.020932 131.258115 
L 760.099503 130.399837 
L 760.157871 130.399837 
L 760.211748 129.827651 
L 760.429503 129.827651 
L 760.436238 129.541558 
L 762.786645 129.541558 
L 762.91236 128.68328 
L 762.966237 128.68328 
L 763.073992 127.825002 
L 768.109297 127.825002 
L 768.27093 127.538909 
L 776.000111 127.538909 
L 776.085418 126.680631 
L 776.134805 126.680631 
L 776.215622 126.108446 
L 776.262764 126.108446 
L 776.368275 125.250168 
L 776.410928 125.250168 
L 776.520928 124.677982 
L 776.57705 124.677982 
L 776.700519 123.819704 
L 776.740928 123.819704 
L 776.803785 123.247519 
L 784.277048 123.247519 
L 784.393783 122.675333 
L 789.853373 122.675333 
L 789.970108 122.103148 
L 789.999292 122.103148 
L 790.082353 121.530962 
L 790.129496 121.530962 
L 790.210312 120.672684 
L 802.595411 120.672684 
L 802.595411 120.672684 
L 802.71439 120.100499 
L 802.759288 120.100499 
L 802.860309 119.528313 
L 802.911941 119.528313 
L 802.983778 118.956128 
L 812.414592 118.956128 
L 812.468469 118.383942 
L 812.547041 118.383942 
L 812.547041 118.383942 
L 812.630102 117.811757 
L 812.672755 117.811757 
L 812.742347 117.239572 
L 812.79398 117.239572 
L 812.89949 116.381293 
L 824.287854 116.381293 
L 824.402344 115.523015 
L 824.436017 115.523015 
L 824.532548 114.95083 
L 824.577446 114.95083 
L 824.635813 114.378644 
L 824.909691 114.378644 
L 824.925405 114.092552 
L 825.439487 114.092552 
L 825.443976 113.806459 
L 833.873566 113.806459 
L 833.920709 113.234274 
L 834.00826 113.234274 
L 834.062137 112.662088 
L 834.142954 112.662088 
L 834.145199 112.375995 
L 836.976014 112.375995 
L 837.460912 112.089903 
L 847.944583 112.089903 
L 848.050093 111.517717 
L 848.339685 111.517717 
L 848.339685 111.517717 
L 848.413766 110.945532 
L 855.081112 110.945532 
L 855.085601 110.659439 
L 858.486621 110.659439 
L 858.594376 109.801161 
L 858.643764 109.801161 
L 858.650498 109.515068 
L 859.523764 109.515068 
L 868.339476 109.228976 
L 868.440496 108.370697 
L 879.330493 108.370697 
L 879.413554 107.798512 
L 879.451718 107.798512 
L 879.519065 107.226327 
L 883.696819 107.226327 
L 883.809063 106.654141 
L 883.827023 106.654141 
L 883.871921 106.081956 
L 884.024574 106.081956 
L 884.069472 105.50977 
L 889.037429 105.50977 
L 889.102532 105.223678 
L 898.492937 105.223678 
L 898.600692 104.365399 
L 898.629876 104.365399 
L 898.712937 103.507121 
L 903.750487 103.507121 
L 903.847018 102.648843 
L 903.887426 102.648843 
L 903.925589 102.076658 
L 907.236813 102.076658 
L 907.315384 101.21838 
L 908.644363 101.21838 
L 909.465996 100.932287 
L 909.567016 100.074009 
L 909.60069 100.074009 
L 909.602934 99.787916 
L 910.058649 99.787916 
L 912.620077 99.501823 
L 912.703138 98.643545 
L 914.50579 98.643545 
L 914.741505 97.785267 
L 914.829056 96.926989 
L 917.390483 96.926989 
L 917.58579 96.354803 
L 917.675585 95.496525 
L 917.711504 95.496525 
L 917.749667 94.92434 
L 920.234768 94.92434 
L 920.421095 94.066062 
L 920.432319 94.066062 
L 920.551299 92.921691 
L 922.405584 92.921691 
L 923.110482 92.635598 
L 923.162115 92.063413 
L 923.229462 92.063413 
L 923.328237 91.205135 
L 923.382115 91.205135 
L 923.384359 90.919042 
L 926.040073 90.919042 
L 926.21293 89.774671 
L 927.889869 89.774671 
L 927.954971 89.202486 
L 928.029052 89.202486 
L 928.121093 88.344207 
L 928.170481 88.344207 
L 928.282726 87.485929 
L 928.920276 87.485929 
L 928.983134 86.913744 
L 929.066195 86.913744 
L 929.06844 86.627651 
L 932.076602 86.627651 
L 932.66701 86.341558 
L 932.783745 85.197187 
L 932.826398 85.197187 
L 932.878031 84.625002 
L 934.516806 84.625002 
L 934.640275 83.480631 
L 934.673948 83.480631 
L 934.777214 82.622353 
L 939.821498 82.622353 
L 939.855172 82.33626 
L 940.575784 82.33626 
L 940.587008 82.050168 
L 941.442314 82.050168 
L 941.556804 81.477982 
L 941.556804 81.477982 
L 941.599457 81.191889 
L 942.719661 81.191889 
L 942.820681 80.333611 
L 942.874559 80.333611 
L 942.959865 79.475333 
L 943.002518 79.475333 
L 943.004763 79.18924 
L 947.263333 79.18924 
L 947.332925 78.330962 
L 954.179862 78.330962 
L 954.253943 77.472684 
L 954.359454 77.472684 
L 954.467209 76.328313 
L 954.507617 76.328313 
L 954.586188 75.756128 
L 954.635576 75.756128 
L 954.675984 75.183942 
L 954.900474 75.183942 
L 954.958841 74.611757 
L 959.399248 74.611757 
L 959.491289 73.753479 
L 959.527207 73.753479 
L 959.565371 73.181293 
L 962.032513 73.181293 
L 962.147003 72.323015 
L 962.191901 72.323015 
L 962.232309 71.75083 
L 979.686386 71.75083 
L 979.800876 70.892552 
L 979.843529 70.892552 
L 980.14659 69.175995 
L 980.415978 69.175995 
L 980.420467 68.889903 
L 988.881486 68.889903 
L 988.935363 68.317717 
L 990.841281 68.317717 
L 990.962505 67.459439 
L 991.002914 67.459439 
L 991.117403 66.887254 
L 991.178016 66.887254 
L 991.182505 66.601161 
L 997.641075 66.601161 
L 997.645565 66.315068 
L 1003.99189 66.315068 
L 1004.115359 65.45679 
L 1004.149033 65.45679 
L 1004.259033 64.312419 
L 1004.297196 64.312419 
L 1004.391482 64.026327 
L 1012.010663 64.026327 
L 1012.118418 63.454141 
L 1012.154337 63.454141 
L 1012.210459 63.168048 
L 1012.320459 63.168048 
L 1012.62801 62.881956 
L 1025.403721 62.881956 
L 1025.477803 62.023678 
L 1038.540861 62.023678 
L 1038.65984 60.879307 
L 1038.702493 60.879307 
L 1038.740656 60.307121 
L 1052.465959 60.307121 
L 1052.54453 59.448843 
L 1052.652286 59.448843 
L 1052.733102 58.876658 
L 1067.632486 58.876658 
L 1067.751465 58.304472 
L 1067.764935 58.304472 
L 1067.870445 57.446194 
L 1067.922078 57.446194 
L 1067.975955 56.874009 
L 1077.945544 56.874009 
L 1077.950034 56.587916 
L 1078.086973 56.587916 
L 1078.138606 56.015731 
L 1082.922482 56.015731 
L 1082.978604 55.443545 
L 1085.174114 55.443545 
L 1085.284114 54.585267 
L 1085.317787 54.585267 
L 1085.409828 53.726989 
L 1090.007378 53.726989 
L 1090.023092 53.440896 
L 1092.517173 53.440896 
L 1092.633908 52.582618 
L 1092.723704 51.72434 
L 1096.42554 51.72434 
L 1097.047376 51.438247 
L 1097.164111 50.579969 
L 1097.217988 50.579969 
L 1097.220233 50.293876 
L 1098.075539 50.293876 
L 1098.737784 50.007784 
L 1100.205947 50.007784 
L 1100.302477 49.149505 
L 1101.577579 49.149505 
L 1101.662885 48.291227 
L 1106.69819 48.291227 
L 1106.70717 48.005135 
L 1107.156149 48.005135 
L 1107.158394 47.719042 
L 1107.78921 47.719042 
L 1108.249414 47.432949 
L 1108.296557 47.146856 
L 1109.187781 47.146856 
L 1109.383087 46.574671 
L 1110.622271 46.574671 
L 1110.799618 46.002486 
L 1114.225331 46.002486 
L 1114.342066 45.4303 
L 1114.391453 45.4303 
L 1114.496964 44.572022 
L 1114.541862 44.572022 
L 1114.636147 43.999837 
L 1117.078596 43.999837 
L 1117.078596 43.999837 
L 1117.193085 43.141558 
L 1118.777983 43.141558 
L 1118.872269 42.28328 
L 1120.023901 42.28328 
L 1120.870227 41.997187 
L 1120.870227 41.997187 
" clip-path="url(#p4e24db0fda)" style="fill: none; stroke: #0000ff; stroke-width: 1.5; stroke-linecap: square"/>
   </g>
   <g id="patch_138">
    <path d="M 55.5975 359.517187 
L 55.5975 26.877187 
" style="fill: none; stroke: #000000; stroke-width: 0.8; stroke-linejoin: miter; stroke-linecap: square"/>
   </g>
   <g id="patch_139">
    <path d="M 1171.5975 359.517187 
L 1171.5975 26.877187 
" style="fill: none; stroke: #000000; stroke-width: 0.8; stroke-linejoin: miter; stroke-linecap: square"/>
   </g>
   <g id="patch_140">
    <path d="M 55.5975 359.517187 
L 1171.5975 359.517187 
" style="fill: none; stroke: #000000; stroke-width: 0.8; stroke-linejoin: miter; stroke-linecap: square"/>
   </g>
   <g id="patch_141">
    <path d="M 55.5975 26.877187 
L 1171.5975 26.877187 
" style="fill: none; stroke: #000000; stroke-width: 0.8; stroke-linejoin: miter; stroke-linecap: square"/>
   </g>
   <g id="text_14">
    <!-- Pellet Count and Cumulative Sum Over Time of Group 8 Mouse 3 -->
    <g transform="translate(321.823125 20.877187) scale(0.18 -0.18)">
     <defs>
      <path id="DejaVuSans-20" transform="scale(0.015625)"/>
      <path id="DejaVuSans-61" d="M 2194 1759 
Q 1497 1759 1228 1600 
Q 959 1441 959 1056 
Q 959 750 1161 570 
Q 1363 391 1709 391 
Q 2188 391 2477 730 
Q 2766 1069 2766 1631 
L 2766 1759 
L 2194 1759 
z
M 3341 1997 
L 3341 0 
L 2766 0 
L 2766 531 
Q 2569 213 2275 61 
Q 1981 -91 1556 -91 
Q 1019 -91 701 211 
Q 384 513 384 1019 
Q 384 1609 779 1909 
Q 1175 2209 1959 2209 
L 2766 2209 
L 2766 2266 
Q 2766 2663 2505 2880 
Q 2244 3097 1772 3097 
Q 1472 3097 1187 3025 
Q 903 2953 641 2809 
L 641 3341 
Q 956 3463 1253 3523 
Q 1550 3584 1831 3584 
Q 2591 3584 2966 3190 
Q 3341 2797 3341 1997 
z
" transform="scale(0.015625)"/>
      <path id="DejaVuSans-64" d="M 2906 2969 
L 2906 4863 
L 3481 4863 
L 3481 0 
L 2906 0 
L 2906 525 
Q 2725 213 2448 61 
Q 2172 -91 1784 -91 
Q 1150 -91 751 415 
Q 353 922 353 1747 
Q 353 2572 751 3078 
Q 1150 3584 1784 3584 
Q 2172 3584 2448 3432 
Q 2725 3281 2906 2969 
z
M 947 1747 
Q 947 1113 1208 752 
Q 1469 391 1925 391 
Q 2381 391 2643 752 
Q 2906 1113 2906 1747 
Q 2906 2381 2643 2742 
Q 2381 3103 1925 3103 
Q 1469 3103 1208 2742 
Q 947 2381 947 1747 
z
" transform="scale(0.015625)"/>
      <path id="DejaVuSans-76" d="M 191 3500 
L 800 3500 
L 1894 563 
L 2988 3500 
L 3597 3500 
L 2284 0 
L 1503 0 
L 191 3500 
z
" transform="scale(0.015625)"/>
      <path id="DejaVuSans-53" d="M 3425 4513 
L 3425 3897 
Q 3066 4069 2747 4153 
Q 2428 4238 2131 4238 
Q 1616 4238 1336 4038 
Q 1056 3838 1056 3469 
Q 1056 3159 1242 3001 
Q 1428 2844 1947 2747 
L 2328 2669 
Q 3034 2534 3370 2195 
Q 3706 1856 3706 1288 
Q 3706 609 3251 259 
Q 2797 -91 1919 -91 
Q 1588 -91 1214 -16 
Q 841 59 441 206 
L 441 856 
Q 825 641 1194 531 
Q 1563 422 1919 422 
Q 2459 422 2753 634 
Q 3047 847 3047 1241 
Q 3047 1584 2836 1778 
Q 2625 1972 2144 2069 
L 1759 2144 
Q 1053 2284 737 2584 
Q 422 2884 422 3419 
Q 422 4038 858 4394 
Q 1294 4750 2059 4750 
Q 2388 4750 2728 4690 
Q 3069 4631 3425 4513 
z
" transform="scale(0.015625)"/>
      <path id="DejaVuSans-4f" d="M 2522 4238 
Q 1834 4238 1429 3725 
Q 1025 3213 1025 2328 
Q 1025 1447 1429 934 
Q 1834 422 2522 422 
Q 3209 422 3611 934 
Q 4013 1447 4013 2328 
Q 4013 3213 3611 3725 
Q 3209 4238 2522 4238 
z
M 2522 4750 
Q 3503 4750 4090 4092 
Q 4678 3434 4678 2328 
Q 4678 1225 4090 567 
Q 3503 -91 2522 -91 
Q 1538 -91 948 565 
Q 359 1222 359 2328 
Q 359 3434 948 4092 
Q 1538 4750 2522 4750 
z
" transform="scale(0.015625)"/>
      <path id="DejaVuSans-72" d="M 2631 2963 
Q 2534 3019 2420 3045 
Q 2306 3072 2169 3072 
Q 1681 3072 1420 2755 
Q 1159 2438 1159 1844 
L 1159 0 
L 581 0 
L 581 3500 
L 1159 3500 
L 1159 2956 
Q 1341 3275 1631 3429 
Q 1922 3584 2338 3584 
Q 2397 3584 2469 3576 
Q 2541 3569 2628 3553 
L 2631 2963 
z
" transform="scale(0.015625)"/>
      <path id="DejaVuSans-66" d="M 2375 4863 
L 2375 4384 
L 1825 4384 
Q 1516 4384 1395 4259 
Q 1275 4134 1275 3809 
L 1275 3500 
L 2222 3500 
L 2222 3053 
L 1275 3053 
L 1275 0 
L 697 0 
L 697 3053 
L 147 3053 
L 147 3500 
L 697 3500 
L 697 3744 
Q 697 4328 969 4595 
Q 1241 4863 1831 4863 
L 2375 4863 
z
" transform="scale(0.015625)"/>
      <path id="DejaVuSans-47" d="M 3809 666 
L 3809 1919 
L 2778 1919 
L 2778 2438 
L 4434 2438 
L 4434 434 
Q 4069 175 3628 42 
Q 3188 -91 2688 -91 
Q 1594 -91 976 548 
Q 359 1188 359 2328 
Q 359 3472 976 4111 
Q 1594 4750 2688 4750 
Q 3144 4750 3555 4637 
Q 3966 4525 4313 4306 
L 4313 3634 
Q 3963 3931 3569 4081 
Q 3175 4231 2741 4231 
Q 1884 4231 1454 3753 
Q 1025 3275 1025 2328 
Q 1025 1384 1454 906 
Q 1884 428 2741 428 
Q 3075 428 3337 486 
Q 3600 544 3809 666 
z
" transform="scale(0.015625)"/>
      <path id="DejaVuSans-70" d="M 1159 525 
L 1159 -1331 
L 581 -1331 
L 581 3500 
L 1159 3500 
L 1159 2969 
Q 1341 3281 1617 3432 
Q 1894 3584 2278 3584 
Q 2916 3584 3314 3078 
Q 3713 2572 3713 1747 
Q 3713 922 3314 415 
Q 2916 -91 2278 -91 
Q 1894 -91 1617 61 
Q 1341 213 1159 525 
z
M 3116 1747 
Q 3116 2381 2855 2742 
Q 2594 3103 2138 3103 
Q 1681 3103 1420 2742 
Q 1159 2381 1159 1747 
Q 1159 1113 1420 752 
Q 1681 391 2138 391 
Q 2594 391 2855 752 
Q 3116 1113 3116 1747 
z
" transform="scale(0.015625)"/>
      <path id="DejaVuSans-4d" d="M 628 4666 
L 1569 4666 
L 2759 1491 
L 3956 4666 
L 4897 4666 
L 4897 0 
L 4281 0 
L 4281 4097 
L 3078 897 
L 2444 897 
L 1241 4097 
L 1241 0 
L 628 0 
L 628 4666 
z
" transform="scale(0.015625)"/>
      <path id="DejaVuSans-73" d="M 2834 3397 
L 2834 2853 
Q 2591 2978 2328 3040 
Q 2066 3103 1784 3103 
Q 1356 3103 1142 2972 
Q 928 2841 928 2578 
Q 928 2378 1081 2264 
Q 1234 2150 1697 2047 
L 1894 2003 
Q 2506 1872 2764 1633 
Q 3022 1394 3022 966 
Q 3022 478 2636 193 
Q 2250 -91 1575 -91 
Q 1294 -91 989 -36 
Q 684 19 347 128 
L 347 722 
Q 666 556 975 473 
Q 1284 391 1588 391 
Q 1994 391 2212 530 
Q 2431 669 2431 922 
Q 2431 1156 2273 1281 
Q 2116 1406 1581 1522 
L 1381 1569 
Q 847 1681 609 1914 
Q 372 2147 372 2553 
Q 372 3047 722 3315 
Q 1072 3584 1716 3584 
Q 2034 3584 2315 3537 
Q 2597 3491 2834 3397 
z
" transform="scale(0.015625)"/>
     </defs>
     <use xlink:href="#DejaVuSans-50"/>
     <use xlink:href="#DejaVuSans-65" x="56.677734"/>
     <use xlink:href="#DejaVuSans-6c" x="118.201172"/>
     <use xlink:href="#DejaVuSans-6c" x="145.984375"/>
     <use xlink:href="#DejaVuSans-65" x="173.767578"/>
     <use xlink:href="#DejaVuSans-74" x="235.291016"/>
     <use xlink:href="#DejaVuSans-20" x="274.5"/>
     <use xlink:href="#DejaVuSans-43" x="306.287109"/>
     <use xlink:href="#DejaVuSans-6f" x="376.111328"/>
     <use xlink:href="#DejaVuSans-75" x="437.292969"/>
     <use xlink:href="#DejaVuSans-6e" x="500.671875"/>
     <use xlink:href="#DejaVuSans-74" x="564.050781"/>
     <use xlink:href="#DejaVuSans-20" x="603.259766"/>
     <use xlink:href="#DejaVuSans-61" x="635.046875"/>
     <use xlink:href="#DejaVuSans-6e" x="696.326172"/>
     <use xlink:href="#DejaVuSans-64" x="759.705078"/>
     <use xlink:href="#DejaVuSans-20" x="823.181641"/>
     <use xlink:href="#DejaVuSans-43" x="854.96875"/>
     <use xlink:href="#DejaVuSans-75" x="924.792969"/>
     <use xlink:href="#DejaVuSans-6d" x="988.171875"/>
     <use xlink:href="#DejaVuSans-75" x="1085.583984"/>
     <use xlink:href="#DejaVuSans-6c" x="1148.962891"/>
     <use xlink:href="#DejaVuSans-61" x="1176.746094"/>
     <use xlink:href="#DejaVuSans-74" x="1238.025391"/>
     <use xlink:href="#DejaVuSans-69" x="1277.234375"/>
     <use xlink:href="#DejaVuSans-76" x="1305.017578"/>
     <use xlink:href="#DejaVuSans-65" x="1364.197266"/>
     <use xlink:href="#DejaVuSans-20" x="1425.720703"/>
     <use xlink:href="#DejaVuSans-53" x="1457.507812"/>
     <use xlink:href="#DejaVuSans-75" x="1520.984375"/>
     <use xlink:href="#DejaVuSans-6d" x="1584.363281"/>
     <use xlink:href="#DejaVuSans-20" x="1681.775391"/>
     <use xlink:href="#DejaVuSans-4f" x="1713.5625"/>
     <use xlink:href="#DejaVuSans-76" x="1792.273438"/>
     <use xlink:href="#DejaVuSans-65" x="1851.453125"/>
     <use xlink:href="#DejaVuSans-72" x="1912.976562"/>
     <use xlink:href="#DejaVuSans-20" x="1954.089844"/>
     <use xlink:href="#DejaVuSans-54" x="1985.876953"/>
     <use xlink:href="#DejaVuSans-69" x="2043.835938"/>
     <use xlink:href="#DejaVuSans-6d" x="2071.619141"/>
     <use xlink:href="#DejaVuSans-65" x="2169.03125"/>
     <use xlink:href="#DejaVuSans-20" x="2230.554688"/>
     <use xlink:href="#DejaVuSans-6f" x="2262.341797"/>
     <use xlink:href="#DejaVuSans-66" x="2323.523438"/>
     <use xlink:href="#DejaVuSans-20" x="2358.728516"/>
     <use xlink:href="#DejaVuSans-47" x="2390.515625"/>
     <use xlink:href="#DejaVuSans-72" x="2468.005859"/>
     <use xlink:href="#DejaVuSans-6f" x="2506.869141"/>
     <use xlink:href="#DejaVuSans-75" x="2568.050781"/>
     <use xlink:href="#DejaVuSans-70" x="2631.429688"/>
     <use xlink:href="#DejaVuSans-20" x="2694.90625"/>
     <use xlink:href="#DejaVuSans-38" x="2726.693359"/>
     <use xlink:href="#DejaVuSans-20" x="2790.316406"/>
     <use xlink:href="#DejaVuSans-4d" x="2822.103516"/>
     <use xlink:href="#DejaVuSans-6f" x="2908.382812"/>
     <use xlink:href="#DejaVuSans-75" x="2969.564453"/>
     <use xlink:href="#DejaVuSans-73" x="3032.943359"/>
     <use xlink:href="#DejaVuSans-65" x="3085.042969"/>
     <use xlink:href="#DejaVuSans-20" x="3146.566406"/>
     <use xlink:href="#DejaVuSans-33" x="3178.353516"/>
    </g>
   </g>
   <g id="legend_1">
    <g id="patch_142">
     <path d="M 1092.913125 64.233437 
L 1164.5975 64.233437 
Q 1166.5975 64.233437 1166.5975 62.233437 
L 1166.5975 33.877187 
Q 1166.5975 31.877187 1164.5975 31.877187 
L 1092.913125 31.877187 
Q 1090.913125 31.877187 1090.913125 33.877187 
L 1090.913125 62.233437 
Q 1090.913125 64.233437 1092.913125 64.233437 
z
" style="fill: #ffffff; opacity: 0.8; stroke: #cccccc; stroke-linejoin: miter"/>
    </g>
    <g id="patch_143">
     <path d="M 1094.913125 43.475625 
L 1114.913125 43.475625 
L 1114.913125 36.475625 
L 1094.913125 36.475625 
z
" style="fill: #add8e6; opacity: 0.9; stroke: #add8e6; stroke-linejoin: miter"/>
    </g>
    <g id="text_15">
     <!-- Meal -->
     <g transform="translate(1122.913125 43.475625) scale(0.1 -0.1)">
      <use xlink:href="#DejaVuSans-4d"/>
      <use xlink:href="#DejaVuSans-65" x="86.279297"/>
      <use xlink:href="#DejaVuSans-61" x="147.802734"/>
      <use xlink:href="#DejaVuSans-6c" x="209.082031"/>
     </g>
    </g>
    <g id="patch_144">
     <path d="M 1094.913125 58.15375 
L 1114.913125 58.15375 
L 1114.913125 51.15375 
L 1094.913125 51.15375 
z
" style="fill: #808080; opacity: 0.5; stroke: #808080; stroke-linejoin: miter"/>
    </g>
    <g id="text_16">
     <!-- Inactive -->
     <g transform="translate(1122.913125 58.15375) scale(0.1 -0.1)">
      <defs>
       <path id="DejaVuSans-49" d="M 628 4666 
L 1259 4666 
L 1259 0 
L 628 0 
L 628 4666 
z
" transform="scale(0.015625)"/>
       <path id="DejaVuSans-63" d="M 3122 3366 
L 3122 2828 
Q 2878 2963 2633 3030 
Q 2388 3097 2138 3097 
Q 1578 3097 1268 2742 
Q 959 2388 959 1747 
Q 959 1106 1268 751 
Q 1578 397 2138 397 
Q 2388 397 2633 464 
Q 2878 531 3122 666 
L 3122 134 
Q 2881 22 2623 -34 
Q 2366 -91 2075 -91 
Q 1284 -91 818 406 
Q 353 903 353 1747 
Q 353 2603 823 3093 
Q 1294 3584 2113 3584 
Q 2378 3584 2631 3529 
Q 2884 3475 3122 3366 
z
" transform="scale(0.015625)"/>
      </defs>
      <use xlink:href="#DejaVuSans-49"/>
      <use xlink:href="#DejaVuSans-6e" x="29.492188"/>
      <use xlink:href="#DejaVuSans-61" x="92.871094"/>
      <use xlink:href="#DejaVuSans-63" x="154.150391"/>
      <use xlink:href="#DejaVuSans-74" x="209.130859"/>
      <use xlink:href="#DejaVuSans-69" x="248.339844"/>
      <use xlink:href="#DejaVuSans-76" x="276.123047"/>
      <use xlink:href="#DejaVuSans-65" x="335.302734"/>
     </g>
    </g>
   </g>
  </g>
 </g>
 <defs>
  <clipPath id="p4e24db0fda">
   <rect x="55.5975" y="26.877187" width="1116" height="332.64"/>
  </clipPath>
 </defs>
</svg>
