<?xml version="1.0" encoding="utf-8" standalone="no"?>
<!DOCTYPE svg PUBLIC "-//W3C//DTD SVG 1.1//EN"
  "http://www.w3.org/Graphics/SVG/1.1/DTD/svg11.dtd">
<svg xmlns:xlink="http://www.w3.org/1999/xlink" width="1172.435pt" height="399.009062pt" viewBox="0 0 1172.435 399.009062" xmlns="http://www.w3.org/2000/svg" version="1.1">
 <metadata>
  <rdf:RDF xmlns:dc="http://purl.org/dc/elements/1.1/" xmlns:cc="http://creativecommons.org/ns#" xmlns:rdf="http://www.w3.org/1999/02/22-rdf-syntax-ns#">
   <cc:Work>
    <dc:type rdf:resource="http://purl.org/dc/dcmitype/StillImage"/>
    <dc:date>2025-01-10T11:47:40.702120</dc:date>
    <dc:format>image/svg+xml</dc:format>
    <dc:creator>
     <cc:Agent>
      <dc:title>Matplotlib v3.8.3, https://matplotlib.org/</dc:title>
     </cc:Agent>
    </dc:creator>
   </cc:Work>
  </rdf:RDF>
 </metadata>
 <defs>
  <style type="text/css">*{stroke-linejoin: round; stroke-linecap: butt}</style>
 </defs>
 <g id="figure_1">
  <g id="patch_1">
   <path d="M 0 399.009062 
L 1172.435 399.009062 
L 1172.435 0 
L 0 0 
z
" style="fill: #ffffff"/>
  </g>
  <g id="axes_1">
   <g id="patch_2">
    <path d="M 49.235 359.517187 
L 1165.235 359.517187 
L 1165.235 26.877187 
L 49.235 26.877187 
z
" style="fill: #ffffff"/>
   </g>
   <g id="patch_3">
    <path d="M 103.516292 359.517187 
L 103.516292 26.877187 
L 103.600159 26.877187 
L 103.600159 359.517187 
z
" clip-path="url(#pe0336159e3)" style="fill: #add8e6; stroke: #add8e6; stroke-linejoin: miter"/>
   </g>
   <g id="patch_4">
    <path d="M 106.719722 359.517187 
L 106.719722 26.877187 
L 106.903266 26.877187 
L 106.903266 359.517187 
z
" clip-path="url(#pe0336159e3)" style="fill: #add8e6; stroke: #add8e6; stroke-linejoin: miter"/>
   </g>
   <g id="patch_5">
    <path d="M 119.557501 359.517187 
L 119.557501 26.877187 
L 115.240433 26.877187 
L 115.240433 359.517187 
z
" clip-path="url(#pe0336159e3)" style="fill: #add8e6; stroke: #add8e6; stroke-linejoin: miter"/>
   </g>
   <g id="patch_6">
    <path d="M 128.011531 359.517187 
L 128.011531 26.877187 
L 128.0734 26.877187 
L 128.0734 359.517187 
z
" clip-path="url(#pe0336159e3)" style="fill: #add8e6; stroke: #add8e6; stroke-linejoin: miter"/>
   </g>
   <g id="patch_7">
    <path d="M 137.57645 359.517187 
L 137.57645 26.877187 
L 137.495333 26.877187 
L 137.495333 359.517187 
z
" clip-path="url(#pe0336159e3)" style="fill: #add8e6; stroke: #add8e6; stroke-linejoin: miter"/>
   </g>
   <g id="patch_8">
    <path d="M 137.908479 359.517187 
L 137.908479 26.877187 
L 138.09821 26.877187 
L 138.09821 359.517187 
z
" clip-path="url(#pe0336159e3)" style="fill: #add8e6; stroke: #add8e6; stroke-linejoin: miter"/>
   </g>
   <g id="patch_9">
    <path d="M 147.104935 359.517187 
L 147.104935 26.877187 
L 147.256857 26.877187 
L 147.256857 359.517187 
z
" clip-path="url(#pe0336159e3)" style="fill: #add8e6; stroke: #add8e6; stroke-linejoin: miter"/>
   </g>
   <g id="patch_10">
    <path d="M 153.316564 359.517187 
L 153.316564 26.877187 
L 153.48636 26.877187 
L 153.48636 359.517187 
z
" clip-path="url(#pe0336159e3)" style="fill: #add8e6; stroke: #add8e6; stroke-linejoin: miter"/>
   </g>
   <g id="patch_11">
    <path d="M 153.581225 359.517187 
L 153.581225 26.877187 
L 153.566789 26.877187 
L 153.566789 359.517187 
z
" clip-path="url(#pe0336159e3)" style="fill: #add8e6; stroke: #add8e6; stroke-linejoin: miter"/>
   </g>
   <g id="patch_12">
    <path d="M 168.677216 359.517187 
L 168.677216 26.877187 
L 168.717087 26.877187 
L 168.717087 359.517187 
z
" clip-path="url(#pe0336159e3)" style="fill: #add8e6; stroke: #add8e6; stroke-linejoin: miter"/>
   </g>
   <g id="patch_13">
    <path d="M 172.994284 359.517187 
L 172.994284 26.877187 
L 171.586425 26.877187 
L 171.586425 359.517187 
z
" clip-path="url(#pe0336159e3)" style="fill: #add8e6; stroke: #add8e6; stroke-linejoin: miter"/>
   </g>
   <g id="patch_14">
    <path d="M 188.015345 359.517187 
L 188.015345 26.877187 
L 183.886633 26.877187 
L 183.886633 359.517187 
z
" clip-path="url(#pe0336159e3)" style="fill: #add8e6; stroke: #add8e6; stroke-linejoin: miter"/>
   </g>
   <g id="patch_15">
    <path d="M 191.260708 359.517187 
L 191.260708 26.877187 
L 191.417443 26.877187 
L 191.417443 359.517187 
z
" clip-path="url(#pe0336159e3)" style="fill: #add8e6; stroke: #add8e6; stroke-linejoin: miter"/>
   </g>
   <g id="patch_16">
    <path d="M 204.407144 359.517187 
L 204.407144 26.877187 
L 204.607187 26.877187 
L 204.607187 359.517187 
z
" clip-path="url(#pe0336159e3)" style="fill: #add8e6; stroke: #add8e6; stroke-linejoin: miter"/>
   </g>
   <g id="patch_17">
    <path d="M 207.365848 359.517187 
L 207.365848 26.877187 
L 207.558329 26.877187 
L 207.558329 359.517187 
z
" clip-path="url(#pe0336159e3)" style="fill: #add8e6; stroke: #add8e6; stroke-linejoin: miter"/>
   </g>
   <g id="patch_18">
    <path d="M 207.694441 359.517187 
L 207.694441 26.877187 
L 207.784494 26.877187 
L 207.784494 359.517187 
z
" clip-path="url(#pe0336159e3)" style="fill: #add8e6; stroke: #add8e6; stroke-linejoin: miter"/>
   </g>
   <g id="patch_19">
    <path d="M 207.980412 359.517187 
L 207.980412 26.877187 
L 207.953602 26.877187 
L 207.953602 359.517187 
z
" clip-path="url(#pe0336159e3)" style="fill: #add8e6; stroke: #add8e6; stroke-linejoin: miter"/>
   </g>
   <g id="patch_20">
    <path d="M 249.946717 359.517187 
L 249.946717 26.877187 
L 250.13576 26.877187 
L 250.13576 359.517187 
z
" clip-path="url(#pe0336159e3)" style="fill: #add8e6; stroke: #add8e6; stroke-linejoin: miter"/>
   </g>
   <g id="patch_21">
    <path d="M 269.016061 359.517187 
L 269.016061 26.877187 
L 269.134986 26.877187 
L 269.134986 359.517187 
z
" clip-path="url(#pe0336159e3)" style="fill: #add8e6; stroke: #add8e6; stroke-linejoin: miter"/>
   </g>
   <g id="patch_22">
    <path d="M 285.121888 359.517187 
L 285.121888 26.877187 
L 285.170008 26.877187 
L 285.170008 359.517187 
z
" clip-path="url(#pe0336159e3)" style="fill: #add8e6; stroke: #add8e6; stroke-linejoin: miter"/>
   </g>
   <g id="patch_23">
    <path d="M 325.610903 359.517187 
L 325.610903 26.877187 
L 325.697519 26.877187 
L 325.697519 359.517187 
z
" clip-path="url(#pe0336159e3)" style="fill: #add8e6; stroke: #add8e6; stroke-linejoin: miter"/>
   </g>
   <g id="patch_24">
    <path d="M 326.140912 359.517187 
L 326.140912 26.877187 
L 326.019237 26.877187 
L 326.019237 359.517187 
z
" clip-path="url(#pe0336159e3)" style="fill: #add8e6; stroke: #add8e6; stroke-linejoin: miter"/>
   </g>
   <g id="patch_25">
    <path d="M 340.932371 359.517187 
L 340.932371 26.877187 
L 341.007301 26.877187 
L 341.007301 359.517187 
z
" clip-path="url(#pe0336159e3)" style="fill: #add8e6; stroke: #add8e6; stroke-linejoin: miter"/>
   </g>
   <g id="patch_26">
    <path d="M 344.337906 359.517187 
L 344.337906 26.877187 
L 341.208719 26.877187 
L 341.208719 359.517187 
z
" clip-path="url(#pe0336159e3)" style="fill: #add8e6; stroke: #add8e6; stroke-linejoin: miter"/>
   </g>
   <g id="patch_27">
    <path d="M 350.246378 359.517187 
L 350.246378 26.877187 
L 350.394175 26.877187 
L 350.394175 359.517187 
z
" clip-path="url(#pe0336159e3)" style="fill: #add8e6; stroke: #add8e6; stroke-linejoin: miter"/>
   </g>
   <g id="patch_28">
    <path d="M 350.558472 359.517187 
L 350.558472 26.877187 
L 350.514476 26.877187 
L 350.514476 359.517187 
z
" clip-path="url(#pe0336159e3)" style="fill: #add8e6; stroke: #add8e6; stroke-linejoin: miter"/>
   </g>
   <g id="patch_29">
    <path d="M 360.65615 359.517187 
L 360.65615 26.877187 
L 360.709769 26.877187 
L 360.709769 359.517187 
z
" clip-path="url(#pe0336159e3)" style="fill: #add8e6; stroke: #add8e6; stroke-linejoin: miter"/>
   </g>
   <g id="patch_30">
    <path d="M 361.023238 359.517187 
L 361.023238 26.877187 
L 360.972368 26.877187 
L 360.972368 359.517187 
z
" clip-path="url(#pe0336159e3)" style="fill: #add8e6; stroke: #add8e6; stroke-linejoin: miter"/>
   </g>
   <g id="patch_31">
    <path d="M 361.366954 359.517187 
L 361.366954 26.877187 
L 361.161412 26.877187 
L 361.161412 359.517187 
z
" clip-path="url(#pe0336159e3)" style="fill: #add8e6; stroke: #add8e6; stroke-linejoin: miter"/>
   </g>
   <g id="patch_32">
    <path d="M 374.752615 359.517187 
L 374.752615 26.877187 
L 374.698308 26.877187 
L 374.698308 359.517187 
z
" clip-path="url(#pe0336159e3)" style="fill: #add8e6; stroke: #add8e6; stroke-linejoin: miter"/>
   </g>
   <g id="patch_33">
    <path d="M 377.458345 359.517187 
L 377.458345 26.877187 
L 377.499591 26.877187 
L 377.499591 359.517187 
z
" clip-path="url(#pe0336159e3)" style="fill: #add8e6; stroke: #add8e6; stroke-linejoin: miter"/>
   </g>
   <g id="patch_34">
    <path d="M 383.977256 359.517187 
L 383.977256 26.877187 
L 383.98688 26.877187 
L 383.98688 359.517187 
z
" clip-path="url(#pe0336159e3)" style="fill: #add8e6; stroke: #add8e6; stroke-linejoin: miter"/>
   </g>
   <g id="patch_35">
    <path d="M 384.21167 359.517187 
L 384.21167 26.877187 
L 384.387652 26.877187 
L 384.387652 359.517187 
z
" clip-path="url(#pe0336159e3)" style="fill: #add8e6; stroke: #add8e6; stroke-linejoin: miter"/>
   </g>
   <g id="patch_36">
    <path d="M 391.061235 359.517187 
L 391.061235 26.877187 
L 391.151289 26.877187 
L 391.151289 359.517187 
z
" clip-path="url(#pe0336159e3)" style="fill: #add8e6; stroke: #add8e6; stroke-linejoin: miter"/>
   </g>
   <g id="patch_37">
    <path d="M 402.628641 359.517187 
L 402.628641 26.877187 
L 402.7895 26.877187 
L 402.7895 359.517187 
z
" clip-path="url(#pe0336159e3)" style="fill: #add8e6; stroke: #add8e6; stroke-linejoin: miter"/>
   </g>
   <g id="patch_38">
    <path d="M 411.902089 359.517187 
L 411.902089 26.877187 
L 411.977019 26.877187 
L 411.977019 359.517187 
z
" clip-path="url(#pe0336159e3)" style="fill: #add8e6; stroke: #add8e6; stroke-linejoin: miter"/>
   </g>
   <g id="patch_39">
    <path d="M 424.986656 359.517187 
L 424.986656 26.877187 
L 424.429149 26.877187 
L 424.429149 359.517187 
z
" clip-path="url(#pe0336159e3)" style="fill: #add8e6; stroke: #add8e6; stroke-linejoin: miter"/>
   </g>
   <g id="patch_40">
    <path d="M 432.97392 359.517187 
L 432.97392 26.877187 
L 433.002105 26.877187 
L 433.002105 359.517187 
z
" clip-path="url(#pe0336159e3)" style="fill: #add8e6; stroke: #add8e6; stroke-linejoin: miter"/>
   </g>
   <g id="patch_41">
    <path d="M 441.552375 359.517187 
L 441.552375 26.877187 
L 441.686424 26.877187 
L 441.686424 359.517187 
z
" clip-path="url(#pe0336159e3)" style="fill: #add8e6; stroke: #add8e6; stroke-linejoin: miter"/>
   </g>
   <g id="patch_42">
    <path d="M 441.795726 359.517187 
L 441.795726 26.877187 
L 441.834222 26.877187 
L 441.834222 359.517187 
z
" clip-path="url(#pe0336159e3)" style="fill: #add8e6; stroke: #add8e6; stroke-linejoin: miter"/>
   </g>
   <g id="patch_43">
    <path d="M 446.741106 359.517187 
L 446.741106 26.877187 
L 446.922588 26.877187 
L 446.922588 359.517187 
z
" clip-path="url(#pe0336159e3)" style="fill: #add8e6; stroke: #add8e6; stroke-linejoin: miter"/>
   </g>
   <g id="patch_44">
    <path d="M 453.58311 359.517187 
L 453.58311 26.877187 
L 453.778341 26.877187 
L 453.778341 359.517187 
z
" clip-path="url(#pe0336159e3)" style="fill: #add8e6; stroke: #add8e6; stroke-linejoin: miter"/>
   </g>
   <g id="patch_45">
    <path d="M 453.831273 359.517187 
L 453.831273 26.877187 
L 453.915827 26.877187 
L 453.915827 359.517187 
z
" clip-path="url(#pe0336159e3)" style="fill: #add8e6; stroke: #add8e6; stroke-linejoin: miter"/>
   </g>
   <g id="patch_46">
    <path d="M 458.213647 359.517187 
L 458.213647 26.877187 
L 458.307138 26.877187 
L 458.307138 359.517187 
z
" clip-path="url(#pe0336159e3)" style="fill: #add8e6; stroke: #add8e6; stroke-linejoin: miter"/>
   </g>
   <g id="patch_47">
    <path d="M 458.421939 359.517187 
L 458.421939 26.877187 
L 458.5553 26.877187 
L 458.5553 359.517187 
z
" clip-path="url(#pe0336159e3)" style="fill: #add8e6; stroke: #add8e6; stroke-linejoin: miter"/>
   </g>
   <g id="patch_48">
    <path d="M 478.786403 359.517187 
L 478.786403 26.877187 
L 476.248407 26.877187 
L 476.248407 359.517187 
z
" clip-path="url(#pe0336159e3)" style="fill: #add8e6; stroke: #add8e6; stroke-linejoin: miter"/>
   </g>
   <g id="patch_49">
    <path d="M 482.125257 359.517187 
L 482.125257 26.877187 
L 482.232496 26.877187 
L 482.232496 359.517187 
z
" clip-path="url(#pe0336159e3)" style="fill: #add8e6; stroke: #add8e6; stroke-linejoin: miter"/>
   </g>
   <g id="patch_50">
    <path d="M 497.02258 359.517187 
L 497.02258 26.877187 
L 497.085824 26.877187 
L 497.085824 359.517187 
z
" clip-path="url(#pe0336159e3)" style="fill: #add8e6; stroke: #add8e6; stroke-linejoin: miter"/>
   </g>
   <g id="patch_51">
    <path d="M 509.985472 359.517187 
L 509.985472 26.877187 
L 510.140144 26.877187 
L 510.140144 359.517187 
z
" clip-path="url(#pe0336159e3)" style="fill: #add8e6; stroke: #add8e6; stroke-linejoin: miter"/>
   </g>
   <g id="patch_52">
    <path d="M 578.922455 359.517187 
L 578.922455 26.877187 
L 579.033819 26.877187 
L 579.033819 359.517187 
z
" clip-path="url(#pe0336159e3)" style="fill: #add8e6; stroke: #add8e6; stroke-linejoin: miter"/>
   </g>
   <g id="patch_53">
    <path d="M 621.903409 359.517187 
L 621.903409 26.877187 
L 622.022334 26.877187 
L 622.022334 359.517187 
z
" clip-path="url(#pe0336159e3)" style="fill: #add8e6; stroke: #add8e6; stroke-linejoin: miter"/>
   </g>
   <g id="patch_54">
    <path d="M 622.144697 359.517187 
L 622.144697 26.877187 
L 622.214815 26.877187 
L 622.214815 359.517187 
z
" clip-path="url(#pe0336159e3)" style="fill: #add8e6; stroke: #add8e6; stroke-linejoin: miter"/>
   </g>
   <g id="patch_55">
    <path d="M 622.481538 359.517187 
L 622.481538 26.877187 
L 622.492537 26.877187 
L 622.492537 359.517187 
z
" clip-path="url(#pe0336159e3)" style="fill: #add8e6; stroke: #add8e6; stroke-linejoin: miter"/>
   </g>
   <g id="patch_56">
    <path d="M 636.669433 359.517187 
L 636.669433 26.877187 
L 636.826854 26.877187 
L 636.826854 359.517187 
z
" clip-path="url(#pe0336159e3)" style="fill: #add8e6; stroke: #add8e6; stroke-linejoin: miter"/>
   </g>
   <g id="patch_57">
    <path d="M 666.278473 359.517187 
L 666.278473 26.877187 
L 666.411147 26.877187 
L 666.411147 359.517187 
z
" clip-path="url(#pe0336159e3)" style="fill: #add8e6; stroke: #add8e6; stroke-linejoin: miter"/>
   </g>
   <g id="patch_58">
    <path d="M 666.759675 359.517187 
L 666.759675 26.877187 
L 666.914347 26.877187 
L 666.914347 359.517187 
z
" clip-path="url(#pe0336159e3)" style="fill: #add8e6; stroke: #add8e6; stroke-linejoin: miter"/>
   </g>
   <g id="patch_59">
    <path d="M 672.304495 359.517187 
L 672.304495 26.877187 
L 672.273561 26.877187 
L 672.273561 359.517187 
z
" clip-path="url(#pe0336159e3)" style="fill: #add8e6; stroke: #add8e6; stroke-linejoin: miter"/>
   </g>
   <g id="patch_60">
    <path d="M 692.83738 359.517187 
L 692.83738 26.877187 
L 688.104416 26.877187 
L 688.104416 359.517187 
z
" clip-path="url(#pe0336159e3)" style="fill: #add8e6; stroke: #add8e6; stroke-linejoin: miter"/>
   </g>
   <g id="patch_61">
    <path d="M 699.202994 359.517187 
L 699.202994 26.877187 
L 688.94102 26.877187 
L 688.94102 359.517187 
z
" clip-path="url(#pe0336159e3)" style="fill: #add8e6; stroke: #add8e6; stroke-linejoin: miter"/>
   </g>
   <g id="patch_62">
    <path d="M 713.370952 359.517187 
L 713.370952 26.877187 
L 706.613503 26.877187 
L 706.613503 359.517187 
z
" clip-path="url(#pe0336159e3)" style="fill: #add8e6; stroke: #add8e6; stroke-linejoin: miter"/>
   </g>
   <g id="patch_63">
    <path d="M 719.750315 359.517187 
L 719.750315 26.877187 
L 708.641425 26.877187 
L 708.641425 359.517187 
z
" clip-path="url(#pe0336159e3)" style="fill: #add8e6; stroke: #add8e6; stroke-linejoin: miter"/>
   </g>
   <g id="patch_64">
    <path d="M 722.988116 359.517187 
L 722.988116 26.877187 
L 714.328544 26.877187 
L 714.328544 359.517187 
z
" clip-path="url(#pe0336159e3)" style="fill: #add8e6; stroke: #add8e6; stroke-linejoin: miter"/>
   </g>
   <g id="patch_65">
    <path d="M 729.333107 359.517187 
L 729.333107 26.877187 
L 723.903087 26.877187 
L 723.903087 359.517187 
z
" clip-path="url(#pe0336159e3)" style="fill: #add8e6; stroke: #add8e6; stroke-linejoin: miter"/>
   </g>
   <g id="patch_66">
    <path d="M 742.390864 359.517187 
L 742.390864 26.877187 
L 731.287474 26.877187 
L 731.287474 359.517187 
z
" clip-path="url(#pe0336159e3)" style="fill: #add8e6; stroke: #add8e6; stroke-linejoin: miter"/>
   </g>
   <g id="patch_67">
    <path d="M 745.061534 359.517187 
L 745.061534 26.877187 
L 745.198333 26.877187 
L 745.198333 359.517187 
z
" clip-path="url(#pe0336159e3)" style="fill: #add8e6; stroke: #add8e6; stroke-linejoin: miter"/>
   </g>
   <g id="patch_68">
    <path d="M 746.035625 359.517187 
L 746.035625 26.877187 
L 746.237042 26.877187 
L 746.237042 359.517187 
z
" clip-path="url(#pe0336159e3)" style="fill: #add8e6; stroke: #add8e6; stroke-linejoin: miter"/>
   </g>
   <g id="patch_69">
    <path d="M 761.28835 359.517187 
L 761.28835 26.877187 
L 756.004753 26.877187 
L 756.004753 359.517187 
z
" clip-path="url(#pe0336159e3)" style="fill: #add8e6; stroke: #add8e6; stroke-linejoin: miter"/>
   </g>
   <g id="patch_70">
    <path d="M 767.133578 359.517187 
L 767.133578 26.877187 
L 767.305436 26.877187 
L 767.305436 359.517187 
z
" clip-path="url(#pe0336159e3)" style="fill: #add8e6; stroke: #add8e6; stroke-linejoin: miter"/>
   </g>
   <g id="patch_71">
    <path d="M 767.387928 359.517187 
L 767.387928 26.877187 
L 767.48623 26.877187 
L 767.48623 359.517187 
z
" clip-path="url(#pe0336159e3)" style="fill: #add8e6; stroke: #add8e6; stroke-linejoin: miter"/>
   </g>
   <g id="patch_72">
    <path d="M 791.473457 359.517187 
L 791.473457 26.877187 
L 791.081622 26.877187 
L 791.081622 359.517187 
z
" clip-path="url(#pe0336159e3)" style="fill: #add8e6; stroke: #add8e6; stroke-linejoin: miter"/>
   </g>
   <g id="patch_73">
    <path d="M 805.827022 359.517187 
L 805.827022 26.877187 
L 805.992006 26.877187 
L 805.992006 359.517187 
z
" clip-path="url(#pe0336159e3)" style="fill: #add8e6; stroke: #add8e6; stroke-linejoin: miter"/>
   </g>
   <g id="patch_74">
    <path d="M 818.568561 359.517187 
L 818.568561 26.877187 
L 811.274915 26.877187 
L 811.274915 359.517187 
z
" clip-path="url(#pe0336159e3)" style="fill: #add8e6; stroke: #add8e6; stroke-linejoin: miter"/>
   </g>
   <g id="patch_75">
    <path d="M 844.681326 359.517187 
L 844.681326 26.877187 
L 844.854559 26.877187 
L 844.854559 359.517187 
z
" clip-path="url(#pe0336159e3)" style="fill: #add8e6; stroke: #add8e6; stroke-linejoin: miter"/>
   </g>
   <g id="patch_76">
    <path d="M 852.525604 359.517187 
L 852.525604 26.877187 
L 852.693337 26.877187 
L 852.693337 359.517187 
z
" clip-path="url(#pe0336159e3)" style="fill: #add8e6; stroke: #add8e6; stroke-linejoin: miter"/>
   </g>
   <g id="patch_77">
    <path d="M 863.630369 359.517187 
L 863.630369 26.877187 
L 863.54719 26.877187 
L 863.54719 359.517187 
z
" clip-path="url(#pe0336159e3)" style="fill: #add8e6; stroke: #add8e6; stroke-linejoin: miter"/>
   </g>
   <g id="patch_78">
    <path d="M 868.779917 359.517187 
L 868.779917 26.877187 
L 868.794353 26.877187 
L 868.794353 359.517187 
z
" clip-path="url(#pe0336159e3)" style="fill: #add8e6; stroke: #add8e6; stroke-linejoin: miter"/>
   </g>
   <g id="patch_79">
    <path d="M 883.386457 359.517187 
L 883.386457 26.877187 
L 879.982297 26.877187 
L 879.982297 359.517187 
z
" clip-path="url(#pe0336159e3)" style="fill: #add8e6; stroke: #add8e6; stroke-linejoin: miter"/>
   </g>
   <g id="patch_80">
    <path d="M 891.809552 359.517187 
L 891.809552 26.877187 
L 891.934665 26.877187 
L 891.934665 359.517187 
z
" clip-path="url(#pe0336159e3)" style="fill: #add8e6; stroke: #add8e6; stroke-linejoin: miter"/>
   </g>
   <g id="patch_81">
    <path d="M 899.612585 359.517187 
L 899.612585 26.877187 
L 898.477636 26.877187 
L 898.477636 359.517187 
z
" clip-path="url(#pe0336159e3)" style="fill: #add8e6; stroke: #add8e6; stroke-linejoin: miter"/>
   </g>
   <g id="patch_82">
    <path d="M 909.895182 359.517187 
L 909.895182 26.877187 
L 910.096599 26.877187 
L 910.096599 359.517187 
z
" clip-path="url(#pe0336159e3)" style="fill: #add8e6; stroke: #add8e6; stroke-linejoin: miter"/>
   </g>
   <g id="patch_83">
    <path d="M 934.689453 359.517187 
L 934.689453 26.877187 
L 934.844813 26.877187 
L 934.844813 359.517187 
z
" clip-path="url(#pe0336159e3)" style="fill: #add8e6; stroke: #add8e6; stroke-linejoin: miter"/>
   </g>
   <g id="patch_84">
    <path d="M 935.028357 359.517187 
L 935.028357 26.877187 
L 935.198152 26.877187 
L 935.198152 359.517187 
z
" clip-path="url(#pe0336159e3)" style="fill: #add8e6; stroke: #add8e6; stroke-linejoin: miter"/>
   </g>
   <g id="patch_85">
    <path d="M 955.502122 359.517187 
L 955.502122 26.877187 
L 955.667106 26.877187 
L 955.667106 359.517187 
z
" clip-path="url(#pe0336159e3)" style="fill: #add8e6; stroke: #add8e6; stroke-linejoin: miter"/>
   </g>
   <g id="patch_86">
    <path d="M 972.929193 359.517187 
L 972.929193 26.877187 
L 972.802706 26.877187 
L 972.802706 359.517187 
z
" clip-path="url(#pe0336159e3)" style="fill: #add8e6; stroke: #add8e6; stroke-linejoin: miter"/>
   </g>
   <g id="patch_87">
    <path d="M 974.014647 359.517187 
L 974.014647 26.877187 
L 974.218814 26.877187 
L 974.218814 359.517187 
z
" clip-path="url(#pe0336159e3)" style="fill: #add8e6; stroke: #add8e6; stroke-linejoin: miter"/>
   </g>
   <g id="patch_88">
    <path d="M 990.873212 359.517187 
L 990.873212 26.877187 
L 982.588977 26.877187 
L 982.588977 359.517187 
z
" clip-path="url(#pe0336159e3)" style="fill: #add8e6; stroke: #add8e6; stroke-linejoin: miter"/>
   </g>
   <g id="patch_89">
    <path d="M 996.255798 359.517187 
L 996.255798 26.877187 
L 985.286458 26.877187 
L 985.286458 359.517187 
z
" clip-path="url(#pe0336159e3)" style="fill: #add8e6; stroke: #add8e6; stroke-linejoin: miter"/>
   </g>
   <g id="patch_90">
    <path d="M 999.335491 359.517187 
L 999.335491 26.877187 
L 990.598926 26.877187 
L 990.598926 359.517187 
z
" clip-path="url(#pe0336159e3)" style="fill: #add8e6; stroke: #add8e6; stroke-linejoin: miter"/>
   </g>
   <g id="patch_91">
    <path d="M 1057.842767 359.517187 
L 1057.842767 26.877187 
L 1050.652236 26.877187 
L 1050.652236 359.517187 
z
" clip-path="url(#pe0336159e3)" style="fill: #add8e6; stroke: #add8e6; stroke-linejoin: miter"/>
   </g>
   <g id="patch_92">
    <path d="M 1064.847692 359.517187 
L 1064.847692 26.877187 
L 1059.518724 26.877187 
L 1059.518724 359.517187 
z
" clip-path="url(#pe0336159e3)" style="fill: #add8e6; stroke: #add8e6; stroke-linejoin: miter"/>
   </g>
   <g id="patch_93">
    <path d="M 1074.075082 359.517187 
L 1074.075082 26.877187 
L 1074.231129 26.877187 
L 1074.231129 359.517187 
z
" clip-path="url(#pe0336159e3)" style="fill: #add8e6; stroke: #add8e6; stroke-linejoin: miter"/>
   </g>
   <g id="patch_94">
    <path d="M 1091.660949 359.517187 
L 1091.660949 26.877187 
L 1087.57417 26.877187 
L 1087.57417 359.517187 
z
" clip-path="url(#pe0336159e3)" style="fill: #add8e6; stroke: #add8e6; stroke-linejoin: miter"/>
   </g>
   <g id="patch_95">
    <path d="M 1100.886276 359.517187 
L 1100.886276 26.877187 
L 1094.30206 26.877187 
L 1094.30206 359.517187 
z
" clip-path="url(#pe0336159e3)" style="fill: #add8e6; stroke: #add8e6; stroke-linejoin: miter"/>
   </g>
   <g id="patch_96">
    <path d="M 1105.732667 359.517187 
L 1105.732667 26.877187 
L 1096.771313 26.877187 
L 1096.771313 359.517187 
z
" clip-path="url(#pe0336159e3)" style="fill: #add8e6; stroke: #add8e6; stroke-linejoin: miter"/>
   </g>
   <g id="patch_97">
    <path d="M 1109.293561 359.517187 
L 1109.293561 26.877187 
L 1103.537699 26.877187 
L 1103.537699 359.517187 
z
" clip-path="url(#pe0336159e3)" style="fill: #add8e6; stroke: #add8e6; stroke-linejoin: miter"/>
   </g>
   <g id="patch_98">
    <path d="M 219.575315 359.517187 
L 219.575315 26.877187 
L 368.060472 26.877187 
L 368.060472 359.517187 
z
" clip-path="url(#pe0336159e3)" style="fill: #808080; opacity: 0.4; stroke: #808080; stroke-linejoin: miter"/>
   </g>
   <g id="patch_99">
    <path d="M 372.18506 26.877187 
L 372.18506 26.877187 
L 372.18506 359.517187 
" clip-path="url(#pe0336159e3)" style="fill: #808080; opacity: 0.4; stroke: #808080; stroke-linejoin: miter"/>
   </g>
   <g id="patch_100">
    <path d="M 376.309647 26.877187 
L 376.309647 26.877187 
L 376.309647 359.517187 
" clip-path="url(#pe0336159e3)" style="fill: #808080; opacity: 0.4; stroke: #808080; stroke-linejoin: miter"/>
   </g>
   <g id="patch_101">
    <path d="M 516.545628 359.517187 
L 516.545628 26.877187 
L 665.030785 26.877187 
L 665.030785 359.517187 
z
" clip-path="url(#pe0336159e3)" style="fill: #808080; opacity: 0.4; stroke: #808080; stroke-linejoin: miter"/>
   </g>
   <g id="patch_102">
    <path d="M 669.155373 26.877187 
L 669.155373 26.877187 
L 669.155373 359.517187 
" clip-path="url(#pe0336159e3)" style="fill: #808080; opacity: 0.4; stroke: #808080; stroke-linejoin: miter"/>
   </g>
   <g id="patch_103">
    <path d="M 673.27996 26.877187 
L 673.27996 26.877187 
L 673.27996 359.517187 
" clip-path="url(#pe0336159e3)" style="fill: #808080; opacity: 0.4; stroke: #808080; stroke-linejoin: miter"/>
   </g>
   <g id="patch_104">
    <path d="M 813.515941 359.517187 
L 813.515941 26.877187 
L 962.001098 26.877187 
L 962.001098 359.517187 
z
" clip-path="url(#pe0336159e3)" style="fill: #808080; opacity: 0.4; stroke: #808080; stroke-linejoin: miter"/>
   </g>
   <g id="patch_105">
    <path d="M 966.125685 26.877187 
L 966.125685 26.877187 
L 966.125685 359.517187 
" clip-path="url(#pe0336159e3)" style="fill: #808080; opacity: 0.4; stroke: #808080; stroke-linejoin: miter"/>
   </g>
   <g id="patch_106">
    <path d="M 970.250273 26.877187 
L 970.250273 26.877187 
L 970.250273 359.517187 
" clip-path="url(#pe0336159e3)" style="fill: #808080; opacity: 0.4; stroke: #808080; stroke-linejoin: miter"/>
   </g>
   <g id="patch_107">
    <path d="M 1110.486254 359.517187 
L 1110.486254 26.877187 
L 1114.507727 26.877187 
L 1114.507727 359.517187 
z
" clip-path="url(#pe0336159e3)" style="fill: #808080; opacity: 0.4; stroke: #808080; stroke-linejoin: miter"/>
   </g>
   <g id="matplotlib.axis_1">
    <g id="xtick_1">
     <g id="line2d_1">
      <defs>
       <path id="m7b59f20134" d="M 0 0 
L 0 3.5 
" style="stroke: #000000; stroke-width: 0.8"/>
      </defs>
      <g>
       <use xlink:href="#m7b59f20134" x="132.213111" y="359.517187" style="stroke: #000000; stroke-width: 0.8"/>
      </g>
     </g>
     <g id="text_1">
      <!-- 07-11 12 -->
      <g transform="translate(109.732642 374.115625) scale(0.1 -0.1)">
       <defs>
        <path id="DejaVuSans-30" d="M 2034 4250 
Q 1547 4250 1301 3770 
Q 1056 3291 1056 2328 
Q 1056 1369 1301 889 
Q 1547 409 2034 409 
Q 2525 409 2770 889 
Q 3016 1369 3016 2328 
Q 3016 3291 2770 3770 
Q 2525 4250 2034 4250 
z
M 2034 4750 
Q 2819 4750 3233 4129 
Q 3647 3509 3647 2328 
Q 3647 1150 3233 529 
Q 2819 -91 2034 -91 
Q 1250 -91 836 529 
Q 422 1150 422 2328 
Q 422 3509 836 4129 
Q 1250 4750 2034 4750 
z
" transform="scale(0.015625)"/>
        <path id="DejaVuSans-37" d="M 525 4666 
L 3525 4666 
L 3525 4397 
L 1831 0 
L 1172 0 
L 2766 4134 
L 525 4134 
L 525 4666 
z
" transform="scale(0.015625)"/>
        <path id="DejaVuSans-2d" d="M 313 2009 
L 1997 2009 
L 1997 1497 
L 313 1497 
L 313 2009 
z
" transform="scale(0.015625)"/>
        <path id="DejaVuSans-31" d="M 794 531 
L 1825 531 
L 1825 4091 
L 703 3866 
L 703 4441 
L 1819 4666 
L 2450 4666 
L 2450 531 
L 3481 531 
L 3481 0 
L 794 0 
L 794 531 
z
" transform="scale(0.015625)"/>
        <path id="DejaVuSans-20" transform="scale(0.015625)"/>
        <path id="DejaVuSans-32" d="M 1228 531 
L 3431 531 
L 3431 0 
L 469 0 
L 469 531 
Q 828 903 1448 1529 
Q 2069 2156 2228 2338 
Q 2531 2678 2651 2914 
Q 2772 3150 2772 3378 
Q 2772 3750 2511 3984 
Q 2250 4219 1831 4219 
Q 1534 4219 1204 4116 
Q 875 4013 500 3803 
L 500 4441 
Q 881 4594 1212 4672 
Q 1544 4750 1819 4750 
Q 2544 4750 2975 4387 
Q 3406 4025 3406 3419 
Q 3406 3131 3298 2873 
Q 3191 2616 2906 2266 
Q 2828 2175 2409 1742 
Q 1991 1309 1228 531 
z
" transform="scale(0.015625)"/>
       </defs>
       <use xlink:href="#DejaVuSans-30"/>
       <use xlink:href="#DejaVuSans-37" x="63.623047"/>
       <use xlink:href="#DejaVuSans-2d" x="127.246094"/>
       <use xlink:href="#DejaVuSans-31" x="163.330078"/>
       <use xlink:href="#DejaVuSans-31" x="226.953125"/>
       <use xlink:href="#DejaVuSans-20" x="290.576172"/>
       <use xlink:href="#DejaVuSans-31" x="322.363281"/>
       <use xlink:href="#DejaVuSans-32" x="385.986328"/>
      </g>
     </g>
    </g>
    <g id="xtick_2">
     <g id="line2d_2">
      <g>
       <use xlink:href="#m7b59f20134" x="280.698268" y="359.517187" style="stroke: #000000; stroke-width: 0.8"/>
      </g>
     </g>
     <g id="text_2">
      <!-- 07-12 00 -->
      <g transform="translate(258.217799 374.115625) scale(0.1 -0.1)">
       <use xlink:href="#DejaVuSans-30"/>
       <use xlink:href="#DejaVuSans-37" x="63.623047"/>
       <use xlink:href="#DejaVuSans-2d" x="127.246094"/>
       <use xlink:href="#DejaVuSans-31" x="163.330078"/>
       <use xlink:href="#DejaVuSans-32" x="226.953125"/>
       <use xlink:href="#DejaVuSans-20" x="290.576172"/>
       <use xlink:href="#DejaVuSans-30" x="322.363281"/>
       <use xlink:href="#DejaVuSans-30" x="385.986328"/>
      </g>
     </g>
    </g>
    <g id="xtick_3">
     <g id="line2d_3">
      <g>
       <use xlink:href="#m7b59f20134" x="429.183424" y="359.517187" style="stroke: #000000; stroke-width: 0.8"/>
      </g>
     </g>
     <g id="text_3">
      <!-- 07-12 12 -->
      <g transform="translate(406.702955 374.115625) scale(0.1 -0.1)">
       <use xlink:href="#DejaVuSans-30"/>
       <use xlink:href="#DejaVuSans-37" x="63.623047"/>
       <use xlink:href="#DejaVuSans-2d" x="127.246094"/>
       <use xlink:href="#DejaVuSans-31" x="163.330078"/>
       <use xlink:href="#DejaVuSans-32" x="226.953125"/>
       <use xlink:href="#DejaVuSans-20" x="290.576172"/>
       <use xlink:href="#DejaVuSans-31" x="322.363281"/>
       <use xlink:href="#DejaVuSans-32" x="385.986328"/>
      </g>
     </g>
    </g>
    <g id="xtick_4">
     <g id="line2d_4">
      <g>
       <use xlink:href="#m7b59f20134" x="577.668581" y="359.517187" style="stroke: #000000; stroke-width: 0.8"/>
      </g>
     </g>
     <g id="text_4">
      <!-- 07-13 00 -->
      <g transform="translate(555.188112 374.115625) scale(0.1 -0.1)">
       <defs>
        <path id="DejaVuSans-33" d="M 2597 2516 
Q 3050 2419 3304 2112 
Q 3559 1806 3559 1356 
Q 3559 666 3084 287 
Q 2609 -91 1734 -91 
Q 1441 -91 1130 -33 
Q 819 25 488 141 
L 488 750 
Q 750 597 1062 519 
Q 1375 441 1716 441 
Q 2309 441 2620 675 
Q 2931 909 2931 1356 
Q 2931 1769 2642 2001 
Q 2353 2234 1838 2234 
L 1294 2234 
L 1294 2753 
L 1863 2753 
Q 2328 2753 2575 2939 
Q 2822 3125 2822 3475 
Q 2822 3834 2567 4026 
Q 2313 4219 1838 4219 
Q 1578 4219 1281 4162 
Q 984 4106 628 3988 
L 628 4550 
Q 988 4650 1302 4700 
Q 1616 4750 1894 4750 
Q 2613 4750 3031 4423 
Q 3450 4097 3450 3541 
Q 3450 3153 3228 2886 
Q 3006 2619 2597 2516 
z
" transform="scale(0.015625)"/>
       </defs>
       <use xlink:href="#DejaVuSans-30"/>
       <use xlink:href="#DejaVuSans-37" x="63.623047"/>
       <use xlink:href="#DejaVuSans-2d" x="127.246094"/>
       <use xlink:href="#DejaVuSans-31" x="163.330078"/>
       <use xlink:href="#DejaVuSans-33" x="226.953125"/>
       <use xlink:href="#DejaVuSans-20" x="290.576172"/>
       <use xlink:href="#DejaVuSans-30" x="322.363281"/>
       <use xlink:href="#DejaVuSans-30" x="385.986328"/>
      </g>
     </g>
    </g>
    <g id="xtick_5">
     <g id="line2d_5">
      <g>
       <use xlink:href="#m7b59f20134" x="726.153737" y="359.517187" style="stroke: #000000; stroke-width: 0.8"/>
      </g>
     </g>
     <g id="text_5">
      <!-- 07-13 12 -->
      <g transform="translate(703.673268 374.115625) scale(0.1 -0.1)">
       <use xlink:href="#DejaVuSans-30"/>
       <use xlink:href="#DejaVuSans-37" x="63.623047"/>
       <use xlink:href="#DejaVuSans-2d" x="127.246094"/>
       <use xlink:href="#DejaVuSans-31" x="163.330078"/>
       <use xlink:href="#DejaVuSans-33" x="226.953125"/>
       <use xlink:href="#DejaVuSans-20" x="290.576172"/>
       <use xlink:href="#DejaVuSans-31" x="322.363281"/>
       <use xlink:href="#DejaVuSans-32" x="385.986328"/>
      </g>
     </g>
    </g>
    <g id="xtick_6">
     <g id="line2d_6">
      <g>
       <use xlink:href="#m7b59f20134" x="874.638894" y="359.517187" style="stroke: #000000; stroke-width: 0.8"/>
      </g>
     </g>
     <g id="text_6">
      <!-- 07-14 00 -->
      <g transform="translate(852.158425 374.115625) scale(0.1 -0.1)">
       <defs>
        <path id="DejaVuSans-34" d="M 2419 4116 
L 825 1625 
L 2419 1625 
L 2419 4116 
z
M 2253 4666 
L 3047 4666 
L 3047 1625 
L 3713 1625 
L 3713 1100 
L 3047 1100 
L 3047 0 
L 2419 0 
L 2419 1100 
L 313 1100 
L 313 1709 
L 2253 4666 
z
" transform="scale(0.015625)"/>
       </defs>
       <use xlink:href="#DejaVuSans-30"/>
       <use xlink:href="#DejaVuSans-37" x="63.623047"/>
       <use xlink:href="#DejaVuSans-2d" x="127.246094"/>
       <use xlink:href="#DejaVuSans-31" x="163.330078"/>
       <use xlink:href="#DejaVuSans-34" x="226.953125"/>
       <use xlink:href="#DejaVuSans-20" x="290.576172"/>
       <use xlink:href="#DejaVuSans-30" x="322.363281"/>
       <use xlink:href="#DejaVuSans-30" x="385.986328"/>
      </g>
     </g>
    </g>
    <g id="xtick_7">
     <g id="line2d_7">
      <g>
       <use xlink:href="#m7b59f20134" x="1023.12405" y="359.517187" style="stroke: #000000; stroke-width: 0.8"/>
      </g>
     </g>
     <g id="text_7">
      <!-- 07-14 12 -->
      <g transform="translate(1000.643581 374.115625) scale(0.1 -0.1)">
       <use xlink:href="#DejaVuSans-30"/>
       <use xlink:href="#DejaVuSans-37" x="63.623047"/>
       <use xlink:href="#DejaVuSans-2d" x="127.246094"/>
       <use xlink:href="#DejaVuSans-31" x="163.330078"/>
       <use xlink:href="#DejaVuSans-34" x="226.953125"/>
       <use xlink:href="#DejaVuSans-20" x="290.576172"/>
       <use xlink:href="#DejaVuSans-31" x="322.363281"/>
       <use xlink:href="#DejaVuSans-32" x="385.986328"/>
      </g>
     </g>
    </g>
    <g id="text_8">
     <!-- Time -->
     <g transform="translate(592.554688 389.313437) scale(0.12 -0.12)">
      <defs>
       <path id="DejaVuSans-54" d="M -19 4666 
L 3928 4666 
L 3928 4134 
L 2272 4134 
L 2272 0 
L 1638 0 
L 1638 4134 
L -19 4134 
L -19 4666 
z
" transform="scale(0.015625)"/>
       <path id="DejaVuSans-69" d="M 603 3500 
L 1178 3500 
L 1178 0 
L 603 0 
L 603 3500 
z
M 603 4863 
L 1178 4863 
L 1178 4134 
L 603 4134 
L 603 4863 
z
" transform="scale(0.015625)"/>
       <path id="DejaVuSans-6d" d="M 3328 2828 
Q 3544 3216 3844 3400 
Q 4144 3584 4550 3584 
Q 5097 3584 5394 3201 
Q 5691 2819 5691 2113 
L 5691 0 
L 5113 0 
L 5113 2094 
Q 5113 2597 4934 2840 
Q 4756 3084 4391 3084 
Q 3944 3084 3684 2787 
Q 3425 2491 3425 1978 
L 3425 0 
L 2847 0 
L 2847 2094 
Q 2847 2600 2669 2842 
Q 2491 3084 2119 3084 
Q 1678 3084 1418 2786 
Q 1159 2488 1159 1978 
L 1159 0 
L 581 0 
L 581 3500 
L 1159 3500 
L 1159 2956 
Q 1356 3278 1631 3431 
Q 1906 3584 2284 3584 
Q 2666 3584 2933 3390 
Q 3200 3197 3328 2828 
z
" transform="scale(0.015625)"/>
       <path id="DejaVuSans-65" d="M 3597 1894 
L 3597 1613 
L 953 1613 
Q 991 1019 1311 708 
Q 1631 397 2203 397 
Q 2534 397 2845 478 
Q 3156 559 3463 722 
L 3463 178 
Q 3153 47 2828 -22 
Q 2503 -91 2169 -91 
Q 1331 -91 842 396 
Q 353 884 353 1716 
Q 353 2575 817 3079 
Q 1281 3584 2069 3584 
Q 2775 3584 3186 3129 
Q 3597 2675 3597 1894 
z
M 3022 2063 
Q 3016 2534 2758 2815 
Q 2500 3097 2075 3097 
Q 1594 3097 1305 2825 
Q 1016 2553 972 2059 
L 3022 2063 
z
" transform="scale(0.015625)"/>
      </defs>
      <use xlink:href="#DejaVuSans-54"/>
      <use xlink:href="#DejaVuSans-69" x="57.958984"/>
      <use xlink:href="#DejaVuSans-6d" x="85.742188"/>
      <use xlink:href="#DejaVuSans-65" x="183.154297"/>
     </g>
    </g>
   </g>
   <g id="matplotlib.axis_2">
    <g id="ytick_1">
     <g id="line2d_8">
      <defs>
       <path id="ma2856f187b" d="M 0 0 
L -3.5 0 
" style="stroke: #000000; stroke-width: 0.8"/>
      </defs>
      <g>
       <use xlink:href="#ma2856f187b" x="49.235" y="344.397187" style="stroke: #000000; stroke-width: 0.8"/>
      </g>
     </g>
     <g id="text_9">
      <!-- 0 -->
      <g transform="translate(35.8725 348.196406) scale(0.1 -0.1)">
       <use xlink:href="#DejaVuSans-30"/>
      </g>
     </g>
    </g>
    <g id="ytick_2">
     <g id="line2d_9">
      <g>
       <use xlink:href="#ma2856f187b" x="49.235" y="302.044246" style="stroke: #000000; stroke-width: 0.8"/>
      </g>
     </g>
     <g id="text_10">
      <!-- 100 -->
      <g transform="translate(23.1475 305.843465) scale(0.1 -0.1)">
       <use xlink:href="#DejaVuSans-31"/>
       <use xlink:href="#DejaVuSans-30" x="63.623047"/>
       <use xlink:href="#DejaVuSans-30" x="127.246094"/>
      </g>
     </g>
    </g>
    <g id="ytick_3">
     <g id="line2d_10">
      <g>
       <use xlink:href="#ma2856f187b" x="49.235" y="259.691305" style="stroke: #000000; stroke-width: 0.8"/>
      </g>
     </g>
     <g id="text_11">
      <!-- 200 -->
      <g transform="translate(23.1475 263.490524) scale(0.1 -0.1)">
       <use xlink:href="#DejaVuSans-32"/>
       <use xlink:href="#DejaVuSans-30" x="63.623047"/>
       <use xlink:href="#DejaVuSans-30" x="127.246094"/>
      </g>
     </g>
    </g>
    <g id="ytick_4">
     <g id="line2d_11">
      <g>
       <use xlink:href="#ma2856f187b" x="49.235" y="217.338364" style="stroke: #000000; stroke-width: 0.8"/>
      </g>
     </g>
     <g id="text_12">
      <!-- 300 -->
      <g transform="translate(23.1475 221.137583) scale(0.1 -0.1)">
       <use xlink:href="#DejaVuSans-33"/>
       <use xlink:href="#DejaVuSans-30" x="63.623047"/>
       <use xlink:href="#DejaVuSans-30" x="127.246094"/>
      </g>
     </g>
    </g>
    <g id="ytick_5">
     <g id="line2d_12">
      <g>
       <use xlink:href="#ma2856f187b" x="49.235" y="174.985423" style="stroke: #000000; stroke-width: 0.8"/>
      </g>
     </g>
     <g id="text_13">
      <!-- 400 -->
      <g transform="translate(23.1475 178.784642) scale(0.1 -0.1)">
       <use xlink:href="#DejaVuSans-34"/>
       <use xlink:href="#DejaVuSans-30" x="63.623047"/>
       <use xlink:href="#DejaVuSans-30" x="127.246094"/>
      </g>
     </g>
    </g>
    <g id="ytick_6">
     <g id="line2d_13">
      <g>
       <use xlink:href="#ma2856f187b" x="49.235" y="132.632482" style="stroke: #000000; stroke-width: 0.8"/>
      </g>
     </g>
     <g id="text_14">
      <!-- 500 -->
      <g transform="translate(23.1475 136.4317) scale(0.1 -0.1)">
       <defs>
        <path id="DejaVuSans-35" d="M 691 4666 
L 3169 4666 
L 3169 4134 
L 1269 4134 
L 1269 2991 
Q 1406 3038 1543 3061 
Q 1681 3084 1819 3084 
Q 2600 3084 3056 2656 
Q 3513 2228 3513 1497 
Q 3513 744 3044 326 
Q 2575 -91 1722 -91 
Q 1428 -91 1123 -41 
Q 819 9 494 109 
L 494 744 
Q 775 591 1075 516 
Q 1375 441 1709 441 
Q 2250 441 2565 725 
Q 2881 1009 2881 1497 
Q 2881 1984 2565 2268 
Q 2250 2553 1709 2553 
Q 1456 2553 1204 2497 
Q 953 2441 691 2322 
L 691 4666 
z
" transform="scale(0.015625)"/>
       </defs>
       <use xlink:href="#DejaVuSans-35"/>
       <use xlink:href="#DejaVuSans-30" x="63.623047"/>
       <use xlink:href="#DejaVuSans-30" x="127.246094"/>
      </g>
     </g>
    </g>
    <g id="ytick_7">
     <g id="line2d_14">
      <g>
       <use xlink:href="#ma2856f187b" x="49.235" y="90.27954" style="stroke: #000000; stroke-width: 0.8"/>
      </g>
     </g>
     <g id="text_15">
      <!-- 600 -->
      <g transform="translate(23.1475 94.078759) scale(0.1 -0.1)">
       <defs>
        <path id="DejaVuSans-36" d="M 2113 2584 
Q 1688 2584 1439 2293 
Q 1191 2003 1191 1497 
Q 1191 994 1439 701 
Q 1688 409 2113 409 
Q 2538 409 2786 701 
Q 3034 994 3034 1497 
Q 3034 2003 2786 2293 
Q 2538 2584 2113 2584 
z
M 3366 4563 
L 3366 3988 
Q 3128 4100 2886 4159 
Q 2644 4219 2406 4219 
Q 1781 4219 1451 3797 
Q 1122 3375 1075 2522 
Q 1259 2794 1537 2939 
Q 1816 3084 2150 3084 
Q 2853 3084 3261 2657 
Q 3669 2231 3669 1497 
Q 3669 778 3244 343 
Q 2819 -91 2113 -91 
Q 1303 -91 875 529 
Q 447 1150 447 2328 
Q 447 3434 972 4092 
Q 1497 4750 2381 4750 
Q 2619 4750 2861 4703 
Q 3103 4656 3366 4563 
z
" transform="scale(0.015625)"/>
       </defs>
       <use xlink:href="#DejaVuSans-36"/>
       <use xlink:href="#DejaVuSans-30" x="63.623047"/>
       <use xlink:href="#DejaVuSans-30" x="127.246094"/>
      </g>
     </g>
    </g>
    <g id="ytick_8">
     <g id="line2d_15">
      <g>
       <use xlink:href="#ma2856f187b" x="49.235" y="47.926599" style="stroke: #000000; stroke-width: 0.8"/>
      </g>
     </g>
     <g id="text_16">
      <!-- 700 -->
      <g transform="translate(23.1475 51.725818) scale(0.1 -0.1)">
       <use xlink:href="#DejaVuSans-37"/>
       <use xlink:href="#DejaVuSans-30" x="63.623047"/>
       <use xlink:href="#DejaVuSans-30" x="127.246094"/>
      </g>
     </g>
    </g>
    <g id="text_17">
     <!-- Pellet_Count -->
     <g transform="translate(16.318125 230.485312) rotate(-90) scale(0.12 -0.12)">
      <defs>
       <path id="DejaVuSans-50" d="M 1259 4147 
L 1259 2394 
L 2053 2394 
Q 2494 2394 2734 2622 
Q 2975 2850 2975 3272 
Q 2975 3691 2734 3919 
Q 2494 4147 2053 4147 
L 1259 4147 
z
M 628 4666 
L 2053 4666 
Q 2838 4666 3239 4311 
Q 3641 3956 3641 3272 
Q 3641 2581 3239 2228 
Q 2838 1875 2053 1875 
L 1259 1875 
L 1259 0 
L 628 0 
L 628 4666 
z
" transform="scale(0.015625)"/>
       <path id="DejaVuSans-6c" d="M 603 4863 
L 1178 4863 
L 1178 0 
L 603 0 
L 603 4863 
z
" transform="scale(0.015625)"/>
       <path id="DejaVuSans-74" d="M 1172 4494 
L 1172 3500 
L 2356 3500 
L 2356 3053 
L 1172 3053 
L 1172 1153 
Q 1172 725 1289 603 
Q 1406 481 1766 481 
L 2356 481 
L 2356 0 
L 1766 0 
Q 1100 0 847 248 
Q 594 497 594 1153 
L 594 3053 
L 172 3053 
L 172 3500 
L 594 3500 
L 594 4494 
L 1172 4494 
z
" transform="scale(0.015625)"/>
       <path id="DejaVuSans-5f" d="M 3263 -1063 
L 3263 -1509 
L -63 -1509 
L -63 -1063 
L 3263 -1063 
z
" transform="scale(0.015625)"/>
       <path id="DejaVuSans-43" d="M 4122 4306 
L 4122 3641 
Q 3803 3938 3442 4084 
Q 3081 4231 2675 4231 
Q 1875 4231 1450 3742 
Q 1025 3253 1025 2328 
Q 1025 1406 1450 917 
Q 1875 428 2675 428 
Q 3081 428 3442 575 
Q 3803 722 4122 1019 
L 4122 359 
Q 3791 134 3420 21 
Q 3050 -91 2638 -91 
Q 1578 -91 968 557 
Q 359 1206 359 2328 
Q 359 3453 968 4101 
Q 1578 4750 2638 4750 
Q 3056 4750 3426 4639 
Q 3797 4528 4122 4306 
z
" transform="scale(0.015625)"/>
       <path id="DejaVuSans-6f" d="M 1959 3097 
Q 1497 3097 1228 2736 
Q 959 2375 959 1747 
Q 959 1119 1226 758 
Q 1494 397 1959 397 
Q 2419 397 2687 759 
Q 2956 1122 2956 1747 
Q 2956 2369 2687 2733 
Q 2419 3097 1959 3097 
z
M 1959 3584 
Q 2709 3584 3137 3096 
Q 3566 2609 3566 1747 
Q 3566 888 3137 398 
Q 2709 -91 1959 -91 
Q 1206 -91 779 398 
Q 353 888 353 1747 
Q 353 2609 779 3096 
Q 1206 3584 1959 3584 
z
" transform="scale(0.015625)"/>
       <path id="DejaVuSans-75" d="M 544 1381 
L 544 3500 
L 1119 3500 
L 1119 1403 
Q 1119 906 1312 657 
Q 1506 409 1894 409 
Q 2359 409 2629 706 
Q 2900 1003 2900 1516 
L 2900 3500 
L 3475 3500 
L 3475 0 
L 2900 0 
L 2900 538 
Q 2691 219 2414 64 
Q 2138 -91 1772 -91 
Q 1169 -91 856 284 
Q 544 659 544 1381 
z
M 1991 3584 
L 1991 3584 
z
" transform="scale(0.015625)"/>
       <path id="DejaVuSans-6e" d="M 3513 2113 
L 3513 0 
L 2938 0 
L 2938 2094 
Q 2938 2591 2744 2837 
Q 2550 3084 2163 3084 
Q 1697 3084 1428 2787 
Q 1159 2491 1159 1978 
L 1159 0 
L 581 0 
L 581 3500 
L 1159 3500 
L 1159 2956 
Q 1366 3272 1645 3428 
Q 1925 3584 2291 3584 
Q 2894 3584 3203 3211 
Q 3513 2838 3513 2113 
z
" transform="scale(0.015625)"/>
      </defs>
      <use xlink:href="#DejaVuSans-50"/>
      <use xlink:href="#DejaVuSans-65" x="56.677734"/>
      <use xlink:href="#DejaVuSans-6c" x="118.201172"/>
      <use xlink:href="#DejaVuSans-6c" x="145.984375"/>
      <use xlink:href="#DejaVuSans-65" x="173.767578"/>
      <use xlink:href="#DejaVuSans-74" x="235.291016"/>
      <use xlink:href="#DejaVuSans-5f" x="274.5"/>
      <use xlink:href="#DejaVuSans-43" x="324.5"/>
      <use xlink:href="#DejaVuSans-6f" x="394.324219"/>
      <use xlink:href="#DejaVuSans-75" x="455.505859"/>
      <use xlink:href="#DejaVuSans-6e" x="518.884766"/>
      <use xlink:href="#DejaVuSans-74" x="582.263672"/>
     </g>
    </g>
   </g>
   <g id="line2d_16">
    <path d="M 99.962273 344.397187 
L 101.361195 344.397187 
L 101.371507 343.973658 
L 102.650129 343.973658 
L 102.657003 343.550129 
L 103.334123 343.550129 
L 103.437238 342.70307 
L 106.327886 342.70307 
L 106.327886 342.70307 
L 106.341635 342.27954 
L 106.592547 342.27954 
L 106.606296 341.856011 
L 106.736908 341.856011 
L 106.809088 341.432482 
L 107.960536 341.432482 
L 108.276754 341.008952 
L 108.809513 341.008952 
L 108.926377 340.161893 
L 110.5659 340.161893 
L 110.569337 339.738364 
L 111.707036 339.738364 
L 111.779216 338.891305 
L 111.844522 338.891305 
L 111.940763 338.044246 
L 112.012943 338.044246 
L 112.01638 337.620717 
L 113.006281 337.620717 
L 113.095647 336.773658 
L 113.143768 336.773658 
L 113.150642 336.350129 
L 114.305526 336.350129 
L 114.322712 335.926599 
L 114.662991 335.926599 
L 114.673302 335.50307 
L 116.505306 335.50307 
L 116.749345 334.232482 
L 117.041503 334.232482 
L 117.048377 333.808952 
L 122.516893 333.808952 
L 122.623445 332.961893 
L 122.829674 332.961893 
L 122.839986 332.538364 
L 123.200887 332.538364 
L 123.200887 332.538364 
L 123.321188 332.114835 
L 123.331499 332.114835 
L 123.420865 331.267776 
L 123.493045 331.267776 
L 123.606472 330.420717 
L 127.816988 330.420717 
L 127.933852 329.997187 
L 127.9476 329.573658 
L 136.152092 329.573658 
L 136.265519 329.150129 
L 136.272393 328.726599 
L 136.715786 328.726599 
L 136.787966 327.87954 
L 136.92889 327.87954 
L 137.035442 327.032482 
L 137.114496 327.032482 
L 137.186677 326.185423 
L 137.234797 326.185423 
L 137.337911 325.338364 
L 137.386032 325.338364 
L 137.396343 324.914835 
L 137.788179 324.914835 
L 137.870671 324.067776 
L 137.9566 324.067776 
L 137.960037 323.644246 
L 138.338124 323.644246 
L 138.344998 323.220717 
L 146.858835 323.220717 
L 146.965386 322.373658 
L 147.020381 322.373658 
L 147.089124 321.526599 
L 147.15443 321.526599 
L 147.260982 321.10307 
L 147.295354 321.10307 
L 147.298791 320.67954 
L 152.172678 320.67954 
L 152.179553 320.256011 
L 153.045716 320.256011 
L 153.124771 319.408952 
L 153.193514 319.408952 
L 153.286317 318.561893 
L 153.365372 318.561893 
L 153.440989 317.714835 
L 161.167717 317.714835 
L 161.174591 317.291305 
L 163.790267 317.291305 
L 163.876196 316.444246 
L 163.962125 316.444246 
L 163.968999 316.020717 
L 166.763407 316.020717 
L 166.839025 315.597187 
L 168.241385 315.597187 
L 168.317002 314.750129 
L 168.368559 314.750129 
L 168.44074 313.90307 
L 169.901531 313.90307 
L 169.908405 313.47954 
L 170.300241 313.47954 
L 170.348361 313.056011 
L 171.056416 313.056011 
L 171.169842 312.208952 
L 172.427841 312.208952 
L 172.493147 311.785423 
L 174.01237 311.785423 
L 174.101736 311.361893 
L 174.655118 311.361893 
L 174.661993 310.938364 
L 175.002271 310.938364 
L 175.084763 310.514835 
L 175.208501 310.514835 
L 175.287555 310.091305 
L 176.146844 310.091305 
L 176.81709 309.667776 
L 176.827401 309.244246 
L 177.177991 309.244246 
L 177.329226 308.397187 
L 177.727936 308.397187 
L 177.734811 307.973658 
L 183.333938 307.973658 
L 183.34425 307.550129 
L 191.040043 307.550129 
L 191.153469 306.70307 
L 192.404594 306.70307 
L 193.126397 306.27954 
L 195.171505 306.27954 
L 195.171505 306.27954 
L 195.185254 305.856011 
L 195.357111 305.856011 
L 195.470538 305.008952 
L 196.178592 305.008952 
L 196.267958 304.161893 
L 196.32639 304.161893 
L 196.333264 303.738364 
L 196.484499 303.738364 
L 196.491373 303.314835 
L 197.326602 303.314835 
L 197.336914 302.891305 
L 197.96935 302.891305 
L 197.979662 302.467776 
L 199.000497 302.467776 
L 199.010809 302.044246 
L 200.079764 302.044246 
L 200.086639 301.620717 
L 201.306829 301.620717 
L 201.413381 301.197187 
L 203.039156 301.197187 
L 203.128522 300.350129 
L 204.517133 300.350129 
L 204.52057 299.926599 
L 206.32164 299.926599 
L 206.325078 299.50307 
L 207.146558 299.50307 
L 207.235924 298.656011 
L 207.294356 298.656011 
L 207.407782 297.385423 
L 207.462776 297.385423 
L 207.545268 296.538364 
L 207.610574 296.538364 
L 207.713689 295.691305 
L 207.799618 295.691305 
L 207.803055 295.267776 
L 210.050955 295.267776 
L 210.057829 294.844246 
L 213.05503 294.844246 
L 213.061904 294.420717 
L 215.938804 294.420717 
L 216.014421 293.997187 
L 216.420006 291.456011 
L 236.78172 291.456011 
L 236.798906 291.032482 
L 237.702878 291.032482 
L 237.778496 290.608952 
L 249.69168 290.608952 
L 249.801669 289.761893 
L 249.894472 289.761893 
L 249.980401 288.914835 
L 250.04227 288.914835 
L 250.128199 288.067776 
L 268.616663 288.067776 
L 268.623537 287.644246 
L 268.812581 287.644246 
L 268.816018 287.220717 
L 268.981002 287.220717 
L 269.090991 286.373658 
L 269.180357 286.373658 
L 269.27316 285.526599 
L 284.939719 285.526599 
L 285.056582 284.67954 
L 285.125325 284.67954 
L 285.207817 283.832482 
L 300.118201 283.832482 
L 300.125076 283.408952 
L 300.764387 283.408952 
L 300.771261 282.985423 
L 302.93667 282.985423 
L 303.050096 282.561893 
L 303.146336 282.138364 
L 325.223192 282.138364 
L 325.343492 281.291305 
L 325.405361 281.291305 
L 325.522224 280.444246 
L 325.728454 280.444246 
L 325.831568 279.597187 
L 340.642275 279.597187 
L 340.642275 279.597187 
L 340.74539 278.750129 
L 340.800385 278.750129 
L 340.882876 278.326599 
L 341.109729 277.056011 
L 350.039461 277.056011 
L 350.115078 276.208952 
L 350.190696 276.208952 
L 350.26975 275.361893 
L 350.338494 275.361893 
L 350.42786 274.514835 
L 357.618391 274.514835 
L 357.625265 274.091305 
L 360.502165 274.091305 
L 360.608717 273.244246 
L 360.663711 273.244246 
L 360.746203 272.397187 
L 360.801198 272.397187 
L 360.801198 272.397187 
L 360.900875 271.550129 
L 361.007427 271.550129 
L 361.010864 271.126599 
L 363.798398 271.126599 
L 363.798398 271.126599 
L 363.887764 270.70307 
L 370.765514 270.70307 
L 370.848006 270.27954 
L 372.920611 270.27954 
L 372.927485 269.856011 
L 374.281725 269.856011 
L 374.402025 269.008952 
L 374.460457 269.008952 
L 374.560135 268.161893 
L 377.199871 268.161893 
L 377.272051 267.314835 
L 377.347669 267.314835 
L 377.412974 266.467776 
L 381.035737 266.467776 
L 381.042612 266.044246 
L 383.768277 266.044246 
L 383.86108 265.197187 
L 383.916074 265.197187 
L 384.043249 263.926599 
L 384.111992 263.926599 
L 384.18761 263.07954 
L 384.256353 263.07954 
L 384.263227 262.656011 
L 386.682985 262.656011 
L 386.68986 262.232482 
L 389.996404 262.232482 
L 389.999841 261.808952 
L 390.907251 261.808952 
L 390.979431 260.961893 
L 391.030988 260.961893 
L 391.037862 260.538364 
L 391.549999 260.538364 
L 391.553436 260.114835 
L 393.268577 260.114835 
L 393.282326 259.691305 
L 395.750204 259.691305 
L 395.757078 259.267776 
L 395.990805 259.267776 
L 396.014865 258.844246 
L 397.774689 258.844246 
L 397.860618 258.420717 
L 398.455246 258.420717 
L 398.551486 257.997187 
L 398.69241 257.997187 
L 398.761153 257.150129 
L 402.483593 257.150129 
L 402.607331 255.87954 
L 402.672637 255.87954 
L 402.74138 255.032482 
L 403.040413 255.032482 
L 403.04385 254.608952 
L 404.899914 254.608952 
L 404.910226 254.185423 
L 407.11688 254.185423 
L 407.120317 253.761893 
L 407.921175 253.761893 
L 407.924612 253.338364 
L 408.419562 253.338364 
L 408.423 252.914835 
L 408.697972 252.914835 
L 408.704846 252.491305 
L 411.757041 252.491305 
L 411.863593 251.644246 
L 411.952959 251.644246 
L 412.021702 250.797187 
L 415.520727 250.797187 
L 415.527602 250.373658 
L 416.280339 250.373658 
L 416.283776 249.950129 
L 417.088071 249.950129 
L 417.091508 249.526599 
L 417.486781 249.526599 
L 417.569273 249.10307 
L 418.126092 249.10307 
L 418.132966 248.67954 
L 419.79655 248.67954 
L 419.896228 247.832482 
L 419.947785 247.832482 
L 419.954659 247.408952 
L 420.501167 247.408952 
L 420.508041 246.985423 
L 422.896865 246.985423 
L 423.082472 246.138364 
L 423.116843 246.138364 
L 423.12028 245.714835 
L 424.275165 245.714835 
L 424.278602 245.291305 
L 424.443586 245.291305 
L 424.477957 244.867776 
L 429.681812 244.867776 
L 429.778052 244.020717 
L 429.82961 244.020717 
L 429.922413 243.173658 
L 432.816498 243.173658 
L 432.888679 242.326599 
L 432.953985 242.326599 
L 432.995231 241.90307 
L 441.361269 241.90307 
L 441.364706 241.47954 
L 441.48157 241.47954 
L 441.560624 240.632482 
L 441.629367 240.632482 
L 441.732482 240.208952 
L 441.756542 240.208952 
L 441.759979 239.785423 
L 446.599496 239.785423 
L 446.67855 238.938364 
L 446.740419 238.938364 
L 446.850408 238.091305 
L 453.480683 238.091305 
L 453.58036 237.244246 
L 453.645666 237.244246 
L 453.717847 236.397187 
L 453.78659 236.397187 
L 453.790027 235.973658 
L 453.924076 235.973658 
L 454.010005 235.550129 
L 455.556725 235.550129 
L 455.5636 235.126599 
L 458.093347 235.126599 
L 458.220521 233.856011 
L 458.292702 233.856011 
L 458.368319 233.008952 
L 458.426751 233.008952 
L 458.505805 232.161893 
L 465.895692 232.161893 
L 466.806538 231.738364 
L 468.126406 231.738364 
L 468.13328 231.314835 
L 469.422214 231.314835 
L 469.518455 230.891305 
L 469.81405 230.891305 
L 469.906853 230.467776 
L 472.336923 230.467776 
L 472.405666 229.620717 
L 473.378381 229.620717 
L 473.467747 229.197187 
L 475.581598 229.197187 
L 475.650342 228.350129 
L 475.732833 228.350129 
L 475.743145 227.926599 
L 476.489008 227.926599 
L 476.605871 227.50307 
L 478.025417 227.50307 
L 478.083848 227.07954 
L 479.462148 227.07954 
L 479.530891 226.656011 
L 480.929814 226.656011 
L 481.012306 226.232482 
L 481.971272 226.232482 
L 482.043452 225.385423 
L 482.115633 225.385423 
L 482.177502 224.961893 
L 482.39748 224.961893 
L 482.404354 224.538364 
L 485.700587 224.538364 
L 485.851822 223.691305 
L 485.899942 223.691305 
L 485.903379 223.267776 
L 486.992958 223.267776 
L 487.041078 222.420717 
L 488.072225 222.420717 
L 488.116908 221.997187 
L 488.993383 221.997187 
L 489.09306 221.573658 
L 492.083386 221.573658 
L 492.179627 220.726599 
L 493.877582 220.726599 
L 493.929139 219.87954 
L 494.729997 219.87954 
L 494.733434 219.456011 
L 495.156204 219.456011 
L 495.19745 219.032482 
L 496.548252 219.032482 
L 496.555127 218.608952 
L 496.802602 218.608952 
L 496.857597 218.185423 
L 497.641268 218.185423 
L 498.466186 217.761893 
L 500.614408 217.761893 
L 500.621283 217.338364 
L 501.807102 217.338364 
L 501.903342 216.914835 
L 502.621708 216.914835 
L 502.724823 216.491305 
L 503.267893 216.491305 
L 503.398505 215.220717 
L 504.680564 215.220717 
L 504.690876 214.797187 
L 506.698175 214.797187 
L 506.718798 214.373658 
L 509.056065 214.373658 
L 509.128245 213.526599 
L 509.179802 213.526599 
L 509.186677 213.10307 
L 509.341349 213.10307 
L 509.389469 212.67954 
L 509.650693 212.67954 
L 509.72631 211.832482 
L 509.791616 211.832482 
L 509.795053 211.408952 
L 509.970348 211.408952 
L 509.977223 210.985423 
L 516.665929 210.985423 
L 517.648956 210.561893 
L 519.315976 210.561893 
L 519.412217 209.714835 
L 519.484397 209.714835 
L 519.611572 208.444246 
L 519.680315 208.444246 
L 519.755932 207.597187 
L 520.811139 207.597187 
L 520.831762 207.173658 
L 522.811565 207.173658 
L 522.825313 206.750129 
L 547.321927 206.750129 
L 547.425041 205.90307 
L 547.514408 205.90307 
L 547.614085 205.056011 
L 549.569827 205.056011 
L 549.679816 204.632482 
L 550.882821 204.632482 
L 564.394283 204.208952 
L 578.765034 204.208952 
L 578.87846 203.361893 
L 578.943766 203.361893 
L 578.947203 202.938364 
L 579.823678 202.938364 
L 579.827115 202.514835 
L 621.825729 202.514835 
L 621.935718 201.667776 
L 621.990712 201.667776 
L 622.076641 200.820717 
L 622.159133 200.820717 
L 622.166007 200.397187 
L 622.375674 200.397187 
L 622.379111 199.973658 
L 622.836253 199.973658 
L 622.83969 199.550129 
L 636.423332 199.550129 
L 636.52301 198.70307 
L 636.591753 198.70307 
L 636.663933 197.856011 
L 652.911371 197.856011 
L 653.066043 197.008952 
L 653.145098 197.008952 
L 653.224153 196.161893 
L 653.341016 196.161893 
L 653.341016 196.161893 
L 653.454442 195.738364 
L 653.468191 195.738364 
L 653.585054 194.891305 
L 653.6263 194.891305 
L 653.72254 194.044246 
L 653.870338 194.044246 
L 653.956267 193.197187 
L 654.059382 193.197187 
L 654.165933 192.350129 
L 654.698693 192.350129 
L 654.70213 191.926599 
L 658.060232 191.926599 
L 658.060232 191.926599 
L 658.187406 191.07954 
L 666.158172 191.07954 
L 666.247538 190.232482 
L 666.326593 190.232482 
L 666.419396 189.385423 
L 666.491576 189.385423 
L 666.491576 189.385423 
L 666.577505 188.538364 
L 666.653123 188.538364 
L 666.739052 187.691305 
L 672.01165 187.691305 
L 672.221316 186.420717 
L 672.307245 186.420717 
L 672.382862 185.573658 
L 677.995739 185.573658 
L 678.109165 185.150129 
L 678.116039 185.150129 
L 678.222591 184.30307 
L 681.312595 184.30307 
L 681.615064 183.87954 
L 681.914097 183.87954 
L 681.920971 183.456011 
L 682.824944 183.456011 
L 682.910872 183.032482 
L 683.526123 183.032482 
L 683.598304 182.185423 
L 684.491964 182.185423 
L 684.498839 181.761893 
L 684.856303 181.761893 
L 684.863177 181.338364 
L 685.963067 181.338364 
L 686.000876 180.914835 
L 687.454793 180.914835 
L 687.987552 180.491305 
L 688.630301 180.491305 
L 688.839967 178.797187 
L 693.215467 178.797187 
L 694.511275 178.373658 
L 694.741565 178.373658 
L 694.799996 177.950129 
L 696.01675 177.950129 
L 696.88635 177.526599 
L 697.099454 177.526599 
L 697.106328 177.10307 
L 699.615453 177.10307 
L 700.674097 176.67954 
L 701.932096 176.67954 
L 702.24144 175.832482 
L 702.244877 175.408952 
L 705.437996 175.408952 
L 705.44487 174.985423 
L 705.908886 174.985423 
L 705.943257 174.561893 
L 706.379776 174.561893 
L 706.424459 174.138364 
L 707.383426 174.138364 
L 708.524562 173.714835 
L 708.527999 173.291305 
L 710.892763 173.291305 
L 711.755489 172.867776 
L 711.824232 172.444246 
L 712.04421 172.444246 
L 712.047647 172.020717 
L 712.838193 172.020717 
L 712.968805 171.597187 
L 714.092755 171.597187 
L 714.202744 170.326599 
L 717.688021 170.326599 
L 718.127977 169.90307 
L 718.176097 169.056011 
L 718.832594 169.056011 
L 718.963206 168.632482 
L 721.276412 168.632482 
L 721.523887 168.208952 
L 722.469105 168.208952 
L 725.370065 167.785423 
L 725.480054 166.514835 
L 725.528175 166.514835 
L 725.583169 165.667776 
L 731.072308 165.667776 
L 731.161674 164.820717 
L 732.106892 164.820717 
L 733.313334 164.397187 
L 733.72923 164.397187 
L 733.780787 163.973658 
L 734.038574 163.973658 
L 734.10388 163.550129 
L 735.997753 163.550129 
L 736.063059 163.126599 
L 737.035774 163.126599 
L 737.073583 162.70307 
L 738.441571 162.70307 
L 738.558435 161.856011 
L 738.634052 161.008952 
L 740.393876 161.008952 
L 740.466056 160.585423 
L 740.55886 160.585423 
L 740.682597 159.738364 
L 743.129853 159.738364 
L 743.25359 158.467776 
L 744.827808 158.467776 
L 744.95842 157.197187 
L 745.023726 157.197187 
L 745.099343 156.350129 
L 745.168086 156.350129 
L 745.171523 155.926599 
L 745.920824 155.926599 
L 746.061747 154.656011 
L 746.109867 154.656011 
L 746.175173 153.808952 
L 748.454008 153.808952 
L 750.392564 153.385423 
L 751.076558 153.385423 
L 751.162487 152.961893 
L 752.795136 152.961893 
L 752.898251 152.538364 
L 753.465382 152.538364 
L 753.537562 151.691305 
L 754.878053 151.691305 
L 754.960545 150.844246 
L 755.795774 150.844246 
L 755.857643 150.420717 
L 755.947009 150.420717 
L 756.043249 149.997187 
L 759.497591 149.997187 
L 759.504466 149.573658 
L 766.588445 149.573658 
L 766.701871 149.150129 
L 766.719057 149.150129 
L 766.791237 148.30307 
L 766.939035 148.30307 
L 767.035275 147.456011 
L 767.165887 147.456011 
L 767.231193 146.608952 
L 767.306811 146.608952 
L 767.399614 145.761893 
L 767.475231 145.761893 
L 767.547412 145.338364 
L 782.963058 145.338364 
L 782.969932 144.914835 
L 785.448122 144.914835 
L 785.451559 144.491305 
L 788.060361 144.491305 
L 788.060361 144.067776 
L 788.091295 144.067776 
L 789.163688 144.067776 
L 789.308049 142.797187 
L 790.961321 142.797187 
L 791.016316 142.373658 
L 793.965396 142.373658 
L 794.546275 141.950129 
L 795.395253 141.950129 
L 795.508679 140.67954 
L 795.553362 140.67954 
L 795.659914 139.408952 
L 798.361519 139.408952 
L 798.402765 138.985423 
L 801.554637 138.985423 
L 801.613069 138.138364 
L 802.197385 138.138364 
L 802.20426 137.714835 
L 805.641416 137.714835 
L 805.758279 136.444246 
L 805.813274 136.444246 
L 805.912951 136.020717 
L 806.060749 136.020717 
L 806.074498 135.597187 
L 807.09877 135.597187 
L 807.287814 135.173658 
L 807.813699 135.173658 
L 807.817136 134.750129 
L 808.800163 134.750129 
L 808.8036 134.326599 
L 809.535714 134.326599 
L 809.539151 133.90307 
L 811.158052 133.90307 
L 811.240544 133.47954 
L 813.619056 133.47954 
L 814.454285 133.056011 
L 815.303263 133.056011 
L 815.406377 132.632482 
L 822.95781 132.632482 
L 823.071236 131.785423 
L 823.146854 131.785423 
L 823.219034 130.938364 
L 823.28434 130.938364 
L 823.298088 130.514835 
L 823.435575 130.514835 
L 823.504318 129.667776 
L 823.583372 129.667776 
L 823.58681 129.244246 
L 828.842222 129.244246 
L 829.017517 128.820717 
L 844.422852 128.820717 
L 844.522529 127.973658 
L 844.577524 127.973658 
L 844.66689 127.126599 
L 844.721884 127.126599 
L 844.728759 126.70307 
L 852.125519 126.70307 
L 852.128956 126.27954 
L 852.242382 126.27954 
L 852.324874 125.432482 
L 852.403929 125.432482 
L 852.510481 124.585423 
L 852.603284 124.585423 
L 852.606721 124.161893 
L 863.371895 124.161893 
L 863.485321 123.314835 
L 868.496695 123.314835 
L 868.603247 122.467776 
L 868.716673 122.467776 
L 868.806039 122.044246 
L 868.898842 122.044246 
L 868.99852 121.197187 
L 871.806677 121.197187 
L 872.105709 120.773658 
L 872.55254 120.773658 
L 872.55254 120.773658 
L 872.566288 120.350129 
L 873.607747 120.350129 
L 873.618058 119.926599 
L 875.109784 119.926599 
L 875.109784 119.926599 
L 875.157904 119.50307 
L 877.577662 119.50307 
L 877.584537 119.07954 
L 878.110422 119.07954 
L 878.144793 118.656011 
L 891.164742 118.656011 
L 891.17849 118.232482 
L 891.295354 118.232482 
L 891.298791 117.808952 
L 891.415654 117.808952 
L 891.429403 117.385423 
L 897.715962 117.385423 
L 897.839699 116.538364 
L 897.91188 116.538364 
L 897.925628 116.114835 
L 898.097486 116.114835 
L 898.10436 115.691305 
L 898.231535 115.691305 
L 898.238409 115.267776 
L 909.61196 115.267776 
L 909.618834 114.844246 
L 909.742572 114.844246 
L 909.845687 113.997187 
L 909.910993 113.997187 
L 909.917867 113.573658 
L 910.031293 113.573658 
L 910.03473 113.150129 
L 910.354386 113.150129 
L 910.36126 112.726599 
L 913.2141 112.726599 
L 913.282843 112.30307 
L 922.370685 112.30307 
L 922.377559 111.87954 
L 922.628471 111.87954 
L 922.631908 111.456011 
L 927.615785 111.456011 
L 927.619222 111.032482 
L 929.475287 111.032482 
L 929.482161 110.608952 
L 929.626522 110.608952 
L 929.629959 110.185423 
L 934.624147 110.185423 
L 934.706639 109.338364 
L 934.833814 109.338364 
L 934.905994 108.491305 
L 934.9713 108.491305 
L 935.084726 107.644246 
L 938.116298 107.644246 
L 938.123172 107.220717 
L 940.164843 107.220717 
L 940.16828 106.797187 
L 944.052267 106.797187 
L 944.155382 105.950129 
L 944.224125 105.950129 
L 944.227562 105.526599 
L 950.692853 105.526599 
L 950.699728 105.10307 
L 955.412069 105.10307 
L 955.497998 104.256011 
L 955.566741 104.256011 
L 955.566741 104.256011 
L 955.659544 103.408952 
L 963.131922 103.408952 
L 963.20754 102.561893 
L 963.252223 102.561893 
L 963.25566 102.138364 
L 965.630735 102.138364 
L 965.637609 101.714835 
L 969.088514 101.714835 
L 969.191629 100.867776 
L 969.280995 100.867776 
L 969.387547 100.444246 
L 972.590977 100.444246 
L 972.676906 99.597187 
L 973.924593 99.597187 
L 974.020834 98.750129 
L 974.089577 98.750129 
L 974.203003 98.326599 
L 974.316429 97.47954 
L 974.612025 97.47954 
L 974.618899 97.056011 
L 979.406858 97.056011 
L 979.592464 96.632482 
L 980.345202 96.632482 
L 980.352076 96.208952 
L 981.372911 96.208952 
L 981.379786 95.785423 
L 982.314692 95.785423 
L 982.386872 94.938364 
L 984.810068 94.938364 
L 985.15722 94.091305 
L 985.232838 93.667776 
L 987.016722 93.667776 
L 988.120049 93.244246 
L 988.188792 92.820717 
L 989.096202 92.820717 
L 989.099639 92.397187 
L 989.3643 92.397187 
L 989.371174 91.973658 
L 990.168595 91.973658 
L 990.2339 91.126599 
L 990.508873 91.126599 
L 990.51231 90.70307 
L 994.630024 90.70307 
L 995.544307 90.27954 
L 995.599302 89.856011 
L 998.1153 89.856011 
L 998.252786 88.585423 
L 999.153321 88.585423 
L 999.160196 88.161893 
L 1001.102189 88.161893 
L 1001.109063 87.738364 
L 1002.796707 87.738364 
L 1002.807019 87.314835 
L 1003.363838 87.314835 
L 1003.370712 86.891305 
L 1004.092515 86.891305 
L 1004.109701 86.467776 
L 1006.226989 86.467776 
L 1006.237301 86.044246 
L 1006.993475 86.044246 
L 1007.038158 85.620717 
L 1008.536758 85.620717 
L 1008.588316 85.197187 
L 1010.86715 85.197187 
L 1010.932456 84.773658 
L 1011.633636 84.773658 
L 1011.791745 83.926599 
L 1012.64416 83.926599 
L 1012.699155 83.07954 
L 1013.053182 83.07954 
L 1013.132236 82.656011 
L 1014.668645 82.656011 
L 1014.730514 81.808952 
L 1015.380137 81.808952 
L 1015.383574 81.385423 
L 1017.428682 81.385423 
L 1017.435556 80.961893 
L 1018.65231 80.961893 
L 1018.679807 80.538364 
L 1019.360364 80.538364 
L 1019.363801 80.114835 
L 1020.19903 80.114835 
L 1020.202467 79.691305 
L 1020.779909 79.691305 
L 1020.783347 79.267776 
L 1021.505149 79.267776 
L 1021.512024 78.844246 
L 1021.934794 78.844246 
L 1021.996663 77.997187 
L 1024.543596 77.997187 
L 1024.602027 77.573658 
L 1025.320393 77.573658 
L 1025.361639 77.150129 
L 1026.492463 77.150129 
L 1026.619638 76.30307 
L 1026.65401 76.30307 
L 1026.657447 75.87954 
L 1027.619851 75.87954 
L 1027.674845 75.032482 
L 1030.087729 75.032482 
L 1030.091166 74.608952 
L 1031.878487 74.608952 
L 1031.885362 74.185423 
L 1032.318443 74.185423 
L 1032.363126 73.761893 
L 1033.772361 73.761893 
L 1033.775798 73.338364 
L 1035.7556 73.338364 
L 1035.844966 72.067776 
L 1038.013812 72.067776 
L 1038.089429 71.220717 
L 1041.523148 71.220717 
L 1041.626263 69.950129 
L 1041.688132 69.950129 
L 1041.811869 69.10307 
L 1041.818744 69.10307 
L 1041.873738 68.67954 
L 1042.537109 68.67954 
L 1042.568044 68.256011 
L 1046.531085 68.256011 
L 1046.661697 67.408952 
L 1048.968029 67.408952 
L 1048.971466 66.985423 
L 1049.590154 66.985423 
L 1049.700143 66.138364 
L 1050.201968 66.138364 
L 1050.205405 65.714835 
L 1050.535372 65.714835 
L 1050.53881 65.291305 
L 1052.226453 65.291305 
L 1053.687245 64.867776 
L 1053.690682 64.444246 
L 1054.549971 64.444246 
L 1054.56372 64.020717 
L 1054.876501 64.020717 
L 1054.924621 63.173658 
L 1055.371451 63.173658 
L 1055.3852 62.750129 
L 1056.725691 62.750129 
L 1056.78756 62.326599 
L 1058.574881 62.326599 
L 1058.705493 61.47954 
L 1058.774236 61.47954 
L 1058.781111 61.056011 
L 1058.932345 61.056011 
L 1059.03546 60.208952 
L 1059.341367 60.208952 
L 1059.392924 59.361893 
L 1073.567757 59.361893 
L 1073.688058 58.514835 
L 1073.694932 58.514835 
L 1073.81867 57.667776 
L 1073.825544 57.667776 
L 1073.894287 56.820717 
L 1073.952719 56.820717 
L 1074.031774 55.973658 
L 1074.114265 55.973658 
L 1074.117702 55.550129 
L 1077.224892 55.550129 
L 1080.380201 55.126599 
L 1082.284386 55.126599 
L 1082.356566 54.27954 
L 1082.425309 54.27954 
L 1082.504364 53.432482 
L 1082.576544 53.432482 
L 1082.64185 52.585423 
L 1087.278574 52.585423 
L 1087.388563 52.161893 
L 1088.918098 52.161893 
L 1089.674272 51.738364 
L 1089.746453 50.891305 
L 1089.811759 50.891305 
L 1089.925185 50.044246 
L 1089.932059 50.044246 
L 1089.935496 49.620717 
L 1090.640113 49.620717 
L 1090.64355 49.197187 
L 1091.083506 49.197187 
L 1091.086944 48.773658 
L 1092.509926 48.773658 
L 1092.588981 47.926599 
L 1093.011751 47.926599 
L 1093.035811 47.50307 
L 1094.228505 47.50307 
L 1094.5241 47.07954 
L 1095.740853 47.07954 
L 1095.747728 46.656011 
L 1096.668886 46.656011 
L 1096.672323 46.232482 
L 1097.253202 46.232482 
L 1097.748153 45.808952 
L 1097.79971 44.961893 
L 1102.350505 44.961893 
L 1102.467368 44.538364 
L 1102.917636 44.538364 
L 1102.97263 43.691305 
L 1103.391963 43.691305 
L 1103.436647 42.844246 
L 1106.791311 42.844246 
L 1106.798185 42.420717 
L 1111.342106 42.420717 
L 1112.857892 41.997187 
L 1114.507727 41.997187 
L 1114.507727 41.997187 
" clip-path="url(#pe0336159e3)" style="fill: none; stroke: #0000ff; stroke-width: 1.5; stroke-linecap: square"/>
   </g>
   <g id="patch_108">
    <path d="M 49.235 359.517187 
L 49.235 26.877187 
" style="fill: none; stroke: #000000; stroke-width: 0.8; stroke-linejoin: miter; stroke-linecap: square"/>
   </g>
   <g id="patch_109">
    <path d="M 1165.235 359.517187 
L 1165.235 26.877187 
" style="fill: none; stroke: #000000; stroke-width: 0.8; stroke-linejoin: miter; stroke-linecap: square"/>
   </g>
   <g id="patch_110">
    <path d="M 49.235 359.517187 
L 1165.235 359.517187 
" style="fill: none; stroke: #000000; stroke-width: 0.8; stroke-linejoin: miter; stroke-linecap: square"/>
   </g>
   <g id="patch_111">
    <path d="M 49.235 26.877187 
L 1165.235 26.877187 
" style="fill: none; stroke: #000000; stroke-width: 0.8; stroke-linejoin: miter; stroke-linecap: square"/>
   </g>
   <g id="text_18">
    <!-- Pellet Count and Cumulative Sum Over Time of Group 5 Mouse 1 -->
    <g transform="translate(315.460625 20.877187) scale(0.18 -0.18)">
     <defs>
      <path id="DejaVuSans-61" d="M 2194 1759 
Q 1497 1759 1228 1600 
Q 959 1441 959 1056 
Q 959 750 1161 570 
Q 1363 391 1709 391 
Q 2188 391 2477 730 
Q 2766 1069 2766 1631 
L 2766 1759 
L 2194 1759 
z
M 3341 1997 
L 3341 0 
L 2766 0 
L 2766 531 
Q 2569 213 2275 61 
Q 1981 -91 1556 -91 
Q 1019 -91 701 211 
Q 384 513 384 1019 
Q 384 1609 779 1909 
Q 1175 2209 1959 2209 
L 2766 2209 
L 2766 2266 
Q 2766 2663 2505 2880 
Q 2244 3097 1772 3097 
Q 1472 3097 1187 3025 
Q 903 2953 641 2809 
L 641 3341 
Q 956 3463 1253 3523 
Q 1550 3584 1831 3584 
Q 2591 3584 2966 3190 
Q 3341 2797 3341 1997 
z
" transform="scale(0.015625)"/>
      <path id="DejaVuSans-64" d="M 2906 2969 
L 2906 4863 
L 3481 4863 
L 3481 0 
L 2906 0 
L 2906 525 
Q 2725 213 2448 61 
Q 2172 -91 1784 -91 
Q 1150 -91 751 415 
Q 353 922 353 1747 
Q 353 2572 751 3078 
Q 1150 3584 1784 3584 
Q 2172 3584 2448 3432 
Q 2725 3281 2906 2969 
z
M 947 1747 
Q 947 1113 1208 752 
Q 1469 391 1925 391 
Q 2381 391 2643 752 
Q 2906 1113 2906 1747 
Q 2906 2381 2643 2742 
Q 2381 3103 1925 3103 
Q 1469 3103 1208 2742 
Q 947 2381 947 1747 
z
" transform="scale(0.015625)"/>
      <path id="DejaVuSans-76" d="M 191 3500 
L 800 3500 
L 1894 563 
L 2988 3500 
L 3597 3500 
L 2284 0 
L 1503 0 
L 191 3500 
z
" transform="scale(0.015625)"/>
      <path id="DejaVuSans-53" d="M 3425 4513 
L 3425 3897 
Q 3066 4069 2747 4153 
Q 2428 4238 2131 4238 
Q 1616 4238 1336 4038 
Q 1056 3838 1056 3469 
Q 1056 3159 1242 3001 
Q 1428 2844 1947 2747 
L 2328 2669 
Q 3034 2534 3370 2195 
Q 3706 1856 3706 1288 
Q 3706 609 3251 259 
Q 2797 -91 1919 -91 
Q 1588 -91 1214 -16 
Q 841 59 441 206 
L 441 856 
Q 825 641 1194 531 
Q 1563 422 1919 422 
Q 2459 422 2753 634 
Q 3047 847 3047 1241 
Q 3047 1584 2836 1778 
Q 2625 1972 2144 2069 
L 1759 2144 
Q 1053 2284 737 2584 
Q 422 2884 422 3419 
Q 422 4038 858 4394 
Q 1294 4750 2059 4750 
Q 2388 4750 2728 4690 
Q 3069 4631 3425 4513 
z
" transform="scale(0.015625)"/>
      <path id="DejaVuSans-4f" d="M 2522 4238 
Q 1834 4238 1429 3725 
Q 1025 3213 1025 2328 
Q 1025 1447 1429 934 
Q 1834 422 2522 422 
Q 3209 422 3611 934 
Q 4013 1447 4013 2328 
Q 4013 3213 3611 3725 
Q 3209 4238 2522 4238 
z
M 2522 4750 
Q 3503 4750 4090 4092 
Q 4678 3434 4678 2328 
Q 4678 1225 4090 567 
Q 3503 -91 2522 -91 
Q 1538 -91 948 565 
Q 359 1222 359 2328 
Q 359 3434 948 4092 
Q 1538 4750 2522 4750 
z
" transform="scale(0.015625)"/>
      <path id="DejaVuSans-72" d="M 2631 2963 
Q 2534 3019 2420 3045 
Q 2306 3072 2169 3072 
Q 1681 3072 1420 2755 
Q 1159 2438 1159 1844 
L 1159 0 
L 581 0 
L 581 3500 
L 1159 3500 
L 1159 2956 
Q 1341 3275 1631 3429 
Q 1922 3584 2338 3584 
Q 2397 3584 2469 3576 
Q 2541 3569 2628 3553 
L 2631 2963 
z
" transform="scale(0.015625)"/>
      <path id="DejaVuSans-66" d="M 2375 4863 
L 2375 4384 
L 1825 4384 
Q 1516 4384 1395 4259 
Q 1275 4134 1275 3809 
L 1275 3500 
L 2222 3500 
L 2222 3053 
L 1275 3053 
L 1275 0 
L 697 0 
L 697 3053 
L 147 3053 
L 147 3500 
L 697 3500 
L 697 3744 
Q 697 4328 969 4595 
Q 1241 4863 1831 4863 
L 2375 4863 
z
" transform="scale(0.015625)"/>
      <path id="DejaVuSans-47" d="M 3809 666 
L 3809 1919 
L 2778 1919 
L 2778 2438 
L 4434 2438 
L 4434 434 
Q 4069 175 3628 42 
Q 3188 -91 2688 -91 
Q 1594 -91 976 548 
Q 359 1188 359 2328 
Q 359 3472 976 4111 
Q 1594 4750 2688 4750 
Q 3144 4750 3555 4637 
Q 3966 4525 4313 4306 
L 4313 3634 
Q 3963 3931 3569 4081 
Q 3175 4231 2741 4231 
Q 1884 4231 1454 3753 
Q 1025 3275 1025 2328 
Q 1025 1384 1454 906 
Q 1884 428 2741 428 
Q 3075 428 3337 486 
Q 3600 544 3809 666 
z
" transform="scale(0.015625)"/>
      <path id="DejaVuSans-70" d="M 1159 525 
L 1159 -1331 
L 581 -1331 
L 581 3500 
L 1159 3500 
L 1159 2969 
Q 1341 3281 1617 3432 
Q 1894 3584 2278 3584 
Q 2916 3584 3314 3078 
Q 3713 2572 3713 1747 
Q 3713 922 3314 415 
Q 2916 -91 2278 -91 
Q 1894 -91 1617 61 
Q 1341 213 1159 525 
z
M 3116 1747 
Q 3116 2381 2855 2742 
Q 2594 3103 2138 3103 
Q 1681 3103 1420 2742 
Q 1159 2381 1159 1747 
Q 1159 1113 1420 752 
Q 1681 391 2138 391 
Q 2594 391 2855 752 
Q 3116 1113 3116 1747 
z
" transform="scale(0.015625)"/>
      <path id="DejaVuSans-4d" d="M 628 4666 
L 1569 4666 
L 2759 1491 
L 3956 4666 
L 4897 4666 
L 4897 0 
L 4281 0 
L 4281 4097 
L 3078 897 
L 2444 897 
L 1241 4097 
L 1241 0 
L 628 0 
L 628 4666 
z
" transform="scale(0.015625)"/>
      <path id="DejaVuSans-73" d="M 2834 3397 
L 2834 2853 
Q 2591 2978 2328 3040 
Q 2066 3103 1784 3103 
Q 1356 3103 1142 2972 
Q 928 2841 928 2578 
Q 928 2378 1081 2264 
Q 1234 2150 1697 2047 
L 1894 2003 
Q 2506 1872 2764 1633 
Q 3022 1394 3022 966 
Q 3022 478 2636 193 
Q 2250 -91 1575 -91 
Q 1294 -91 989 -36 
Q 684 19 347 128 
L 347 722 
Q 666 556 975 473 
Q 1284 391 1588 391 
Q 1994 391 2212 530 
Q 2431 669 2431 922 
Q 2431 1156 2273 1281 
Q 2116 1406 1581 1522 
L 1381 1569 
Q 847 1681 609 1914 
Q 372 2147 372 2553 
Q 372 3047 722 3315 
Q 1072 3584 1716 3584 
Q 2034 3584 2315 3537 
Q 2597 3491 2834 3397 
z
" transform="scale(0.015625)"/>
     </defs>
     <use xlink:href="#DejaVuSans-50"/>
     <use xlink:href="#DejaVuSans-65" x="56.677734"/>
     <use xlink:href="#DejaVuSans-6c" x="118.201172"/>
     <use xlink:href="#DejaVuSans-6c" x="145.984375"/>
     <use xlink:href="#DejaVuSans-65" x="173.767578"/>
     <use xlink:href="#DejaVuSans-74" x="235.291016"/>
     <use xlink:href="#DejaVuSans-20" x="274.5"/>
     <use xlink:href="#DejaVuSans-43" x="306.287109"/>
     <use xlink:href="#DejaVuSans-6f" x="376.111328"/>
     <use xlink:href="#DejaVuSans-75" x="437.292969"/>
     <use xlink:href="#DejaVuSans-6e" x="500.671875"/>
     <use xlink:href="#DejaVuSans-74" x="564.050781"/>
     <use xlink:href="#DejaVuSans-20" x="603.259766"/>
     <use xlink:href="#DejaVuSans-61" x="635.046875"/>
     <use xlink:href="#DejaVuSans-6e" x="696.326172"/>
     <use xlink:href="#DejaVuSans-64" x="759.705078"/>
     <use xlink:href="#DejaVuSans-20" x="823.181641"/>
     <use xlink:href="#DejaVuSans-43" x="854.96875"/>
     <use xlink:href="#DejaVuSans-75" x="924.792969"/>
     <use xlink:href="#DejaVuSans-6d" x="988.171875"/>
     <use xlink:href="#DejaVuSans-75" x="1085.583984"/>
     <use xlink:href="#DejaVuSans-6c" x="1148.962891"/>
     <use xlink:href="#DejaVuSans-61" x="1176.746094"/>
     <use xlink:href="#DejaVuSans-74" x="1238.025391"/>
     <use xlink:href="#DejaVuSans-69" x="1277.234375"/>
     <use xlink:href="#DejaVuSans-76" x="1305.017578"/>
     <use xlink:href="#DejaVuSans-65" x="1364.197266"/>
     <use xlink:href="#DejaVuSans-20" x="1425.720703"/>
     <use xlink:href="#DejaVuSans-53" x="1457.507812"/>
     <use xlink:href="#DejaVuSans-75" x="1520.984375"/>
     <use xlink:href="#DejaVuSans-6d" x="1584.363281"/>
     <use xlink:href="#DejaVuSans-20" x="1681.775391"/>
     <use xlink:href="#DejaVuSans-4f" x="1713.5625"/>
     <use xlink:href="#DejaVuSans-76" x="1792.273438"/>
     <use xlink:href="#DejaVuSans-65" x="1851.453125"/>
     <use xlink:href="#DejaVuSans-72" x="1912.976562"/>
     <use xlink:href="#DejaVuSans-20" x="1954.089844"/>
     <use xlink:href="#DejaVuSans-54" x="1985.876953"/>
     <use xlink:href="#DejaVuSans-69" x="2043.835938"/>
     <use xlink:href="#DejaVuSans-6d" x="2071.619141"/>
     <use xlink:href="#DejaVuSans-65" x="2169.03125"/>
     <use xlink:href="#DejaVuSans-20" x="2230.554688"/>
     <use xlink:href="#DejaVuSans-6f" x="2262.341797"/>
     <use xlink:href="#DejaVuSans-66" x="2323.523438"/>
     <use xlink:href="#DejaVuSans-20" x="2358.728516"/>
     <use xlink:href="#DejaVuSans-47" x="2390.515625"/>
     <use xlink:href="#DejaVuSans-72" x="2468.005859"/>
     <use xlink:href="#DejaVuSans-6f" x="2506.869141"/>
     <use xlink:href="#DejaVuSans-75" x="2568.050781"/>
     <use xlink:href="#DejaVuSans-70" x="2631.429688"/>
     <use xlink:href="#DejaVuSans-20" x="2694.90625"/>
     <use xlink:href="#DejaVuSans-35" x="2726.693359"/>
     <use xlink:href="#DejaVuSans-20" x="2790.316406"/>
     <use xlink:href="#DejaVuSans-4d" x="2822.103516"/>
     <use xlink:href="#DejaVuSans-6f" x="2908.382812"/>
     <use xlink:href="#DejaVuSans-75" x="2969.564453"/>
     <use xlink:href="#DejaVuSans-73" x="3032.943359"/>
     <use xlink:href="#DejaVuSans-65" x="3085.042969"/>
     <use xlink:href="#DejaVuSans-20" x="3146.566406"/>
     <use xlink:href="#DejaVuSans-31" x="3178.353516"/>
    </g>
   </g>
   <g id="legend_1">
    <g id="patch_112">
     <path d="M 1086.550625 64.233437 
L 1158.235 64.233437 
Q 1160.235 64.233437 1160.235 62.233437 
L 1160.235 33.877187 
Q 1160.235 31.877187 1158.235 31.877187 
L 1086.550625 31.877187 
Q 1084.550625 31.877187 1084.550625 33.877187 
L 1084.550625 62.233437 
Q 1084.550625 64.233437 1086.550625 64.233437 
z
" style="fill: #ffffff; opacity: 0.8; stroke: #cccccc; stroke-linejoin: miter"/>
    </g>
    <g id="patch_113">
     <path d="M 1088.550625 43.475625 
L 1108.550625 43.475625 
L 1108.550625 36.475625 
L 1088.550625 36.475625 
z
" style="fill: #add8e6; opacity: 0.9; stroke: #add8e6; stroke-linejoin: miter"/>
    </g>
    <g id="text_19">
     <!-- Meal -->
     <g transform="translate(1116.550625 43.475625) scale(0.1 -0.1)">
      <use xlink:href="#DejaVuSans-4d"/>
      <use xlink:href="#DejaVuSans-65" x="86.279297"/>
      <use xlink:href="#DejaVuSans-61" x="147.802734"/>
      <use xlink:href="#DejaVuSans-6c" x="209.082031"/>
     </g>
    </g>
    <g id="patch_114">
     <path d="M 1088.550625 58.15375 
L 1108.550625 58.15375 
L 1108.550625 51.15375 
L 1088.550625 51.15375 
z
" style="fill: #808080; opacity: 0.5; stroke: #808080; stroke-linejoin: miter"/>
    </g>
    <g id="text_20">
     <!-- Inactive -->
     <g transform="translate(1116.550625 58.15375) scale(0.1 -0.1)">
      <defs>
       <path id="DejaVuSans-49" d="M 628 4666 
L 1259 4666 
L 1259 0 
L 628 0 
L 628 4666 
z
" transform="scale(0.015625)"/>
       <path id="DejaVuSans-63" d="M 3122 3366 
L 3122 2828 
Q 2878 2963 2633 3030 
Q 2388 3097 2138 3097 
Q 1578 3097 1268 2742 
Q 959 2388 959 1747 
Q 959 1106 1268 751 
Q 1578 397 2138 397 
Q 2388 397 2633 464 
Q 2878 531 3122 666 
L 3122 134 
Q 2881 22 2623 -34 
Q 2366 -91 2075 -91 
Q 1284 -91 818 406 
Q 353 903 353 1747 
Q 353 2603 823 3093 
Q 1294 3584 2113 3584 
Q 2378 3584 2631 3529 
Q 2884 3475 3122 3366 
z
" transform="scale(0.015625)"/>
      </defs>
      <use xlink:href="#DejaVuSans-49"/>
      <use xlink:href="#DejaVuSans-6e" x="29.492188"/>
      <use xlink:href="#DejaVuSans-61" x="92.871094"/>
      <use xlink:href="#DejaVuSans-63" x="154.150391"/>
      <use xlink:href="#DejaVuSans-74" x="209.130859"/>
      <use xlink:href="#DejaVuSans-69" x="248.339844"/>
      <use xlink:href="#DejaVuSans-76" x="276.123047"/>
      <use xlink:href="#DejaVuSans-65" x="335.302734"/>
     </g>
    </g>
   </g>
  </g>
 </g>
 <defs>
  <clipPath id="pe0336159e3">
   <rect x="49.235" y="26.877187" width="1116" height="332.64"/>
  </clipPath>
 </defs>
</svg>
