<?xml version="1.0" encoding="utf-8" standalone="no"?>
<!DOCTYPE svg PUBLIC "-//W3C//DTD SVG 1.1//EN"
  "http://www.w3.org/Graphics/SVG/1.1/DTD/svg11.dtd">
<svg xmlns:xlink="http://www.w3.org/1999/xlink" width="1172.435pt" height="399.009062pt" viewBox="0 0 1172.435 399.009062" xmlns="http://www.w3.org/2000/svg" version="1.1">
 <metadata>
  <rdf:RDF xmlns:dc="http://purl.org/dc/elements/1.1/" xmlns:cc="http://creativecommons.org/ns#" xmlns:rdf="http://www.w3.org/1999/02/22-rdf-syntax-ns#">
   <cc:Work>
    <dc:type rdf:resource="http://purl.org/dc/dcmitype/StillImage"/>
    <dc:date>2026-01-06T16:11:27.276295</dc:date>
    <dc:format>image/svg+xml</dc:format>
    <dc:creator>
     <cc:Agent>
      <dc:title>Matplotlib v3.8.4, https://matplotlib.org/</dc:title>
     </cc:Agent>
    </dc:creator>
   </cc:Work>
  </rdf:RDF>
 </metadata>
 <defs>
  <style type="text/css">*{stroke-linejoin: round; stroke-linecap: butt}</style>
 </defs>
 <g id="figure_1">
  <g id="patch_1">
   <path d="M 0 399.009062 
L 1172.435 399.009062 
L 1172.435 0 
L 0 0 
z
" style="fill: #ffffff"/>
  </g>
  <g id="axes_1">
   <g id="patch_2">
    <path d="M 49.235 359.517187 
L 1165.235 359.517187 
L 1165.235 26.877187 
L 49.235 26.877187 
z
" style="fill: #ffffff"/>
   </g>
   <g id="patch_3">
    <path d="M 316.806073 359.517187 
L 316.806073 26.877187 
L 317.351324 26.877187 
L 317.351324 359.517187 
z
" clip-path="url(#pb55e3efc4e)" style="fill: #add8e6; stroke: #add8e6; stroke-linejoin: miter"/>
   </g>
   <g id="patch_4">
    <path d="M 321.974101 359.517187 
L 321.974101 26.877187 
L 322.614177 26.877187 
L 322.614177 359.517187 
z
" clip-path="url(#pb55e3efc4e)" style="fill: #add8e6; stroke: #add8e6; stroke-linejoin: miter"/>
   </g>
   <g id="patch_5">
    <path d="M 324.155103 359.517187 
L 324.155103 26.877187 
L 324.771473 26.877187 
L 324.771473 359.517187 
z
" clip-path="url(#pb55e3efc4e)" style="fill: #add8e6; stroke: #add8e6; stroke-linejoin: miter"/>
   </g>
   <g id="patch_6">
    <path d="M 326.691704 359.517187 
L 326.691704 26.877187 
L 327.177688 26.877187 
L 327.177688 359.517187 
z
" clip-path="url(#pb55e3efc4e)" style="fill: #add8e6; stroke: #add8e6; stroke-linejoin: miter"/>
   </g>
   <g id="patch_7">
    <path d="M 328.849 359.517187 
L 328.849 26.877187 
L 329.299424 26.877187 
L 329.299424 359.517187 
z
" clip-path="url(#pb55e3efc4e)" style="fill: #add8e6; stroke: #add8e6; stroke-linejoin: miter"/>
   </g>
   <g id="patch_8">
    <path d="M 342.148373 359.517187 
L 342.148373 26.877187 
L 342.598798 26.877187 
L 342.598798 359.517187 
z
" clip-path="url(#pb55e3efc4e)" style="fill: #add8e6; stroke: #add8e6; stroke-linejoin: miter"/>
   </g>
   <g id="patch_9">
    <path d="M 342.942543 359.517187 
L 342.942543 26.877187 
L 343.5115 26.877187 
L 343.5115 359.517187 
z
" clip-path="url(#pb55e3efc4e)" style="fill: #add8e6; stroke: #add8e6; stroke-linejoin: miter"/>
   </g>
   <g id="patch_10">
    <path d="M 348.501728 359.517187 
L 348.501728 26.877187 
L 348.79806 26.877187 
L 348.79806 359.517187 
z
" clip-path="url(#pb55e3efc4e)" style="fill: #add8e6; stroke: #add8e6; stroke-linejoin: miter"/>
   </g>
   <g id="patch_11">
    <path d="M 363.365734 359.517187 
L 363.365734 26.877187 
L 363.804306 26.877187 
L 363.804306 359.517187 
z
" clip-path="url(#pb55e3efc4e)" style="fill: #add8e6; stroke: #add8e6; stroke-linejoin: miter"/>
   </g>
   <g id="patch_12">
    <path d="M 367.775152 359.517187 
L 367.775152 26.877187 
L 368.225577 26.877187 
L 368.225577 359.517187 
z
" clip-path="url(#pb55e3efc4e)" style="fill: #add8e6; stroke: #add8e6; stroke-linejoin: miter"/>
   </g>
   <g id="patch_13">
    <path d="M 368.88936 359.517187 
L 368.88936 26.877187 
L 369.209399 26.877187 
L 369.209399 359.517187 
z
" clip-path="url(#pb55e3efc4e)" style="fill: #add8e6; stroke: #add8e6; stroke-linejoin: miter"/>
   </g>
   <g id="patch_14">
    <path d="M 370.26434 359.517187 
L 370.26434 26.877187 
L 370.643645 26.877187 
L 370.643645 359.517187 
z
" clip-path="url(#pb55e3efc4e)" style="fill: #add8e6; stroke: #add8e6; stroke-linejoin: miter"/>
   </g>
   <g id="patch_15">
    <path d="M 388.044252 359.517187 
L 388.044252 26.877187 
L 388.565796 26.877187 
L 388.565796 359.517187 
z
" clip-path="url(#pb55e3efc4e)" style="fill: #add8e6; stroke: #add8e6; stroke-linejoin: miter"/>
   </g>
   <g id="patch_16">
    <path d="M 393.603437 359.517187 
L 393.603437 26.877187 
L 393.864209 26.877187 
L 393.864209 359.517187 
z
" clip-path="url(#pb55e3efc4e)" style="fill: #add8e6; stroke: #add8e6; stroke-linejoin: miter"/>
   </g>
   <g id="patch_17">
    <path d="M 395.310309 359.517187 
L 395.310309 26.877187 
L 395.819999 26.877187 
L 395.819999 359.517187 
z
" clip-path="url(#pb55e3efc4e)" style="fill: #add8e6; stroke: #add8e6; stroke-linejoin: miter"/>
   </g>
   <g id="patch_18">
    <path d="M 396.068918 359.517187 
L 396.068918 26.877187 
L 396.708995 26.877187 
L 396.708995 359.517187 
z
" clip-path="url(#pb55e3efc4e)" style="fill: #add8e6; stroke: #add8e6; stroke-linejoin: miter"/>
   </g>
   <g id="patch_19">
    <path d="M 408.550416 359.517187 
L 408.550416 26.877187 
L 408.846748 26.877187 
L 408.846748 359.517187 
z
" clip-path="url(#pb55e3efc4e)" style="fill: #add8e6; stroke: #add8e6; stroke-linejoin: miter"/>
   </g>
   <g id="patch_20">
    <path d="M 430.265615 359.517187 
L 430.265615 26.877187 
L 430.775305 26.877187 
L 430.775305 359.517187 
z
" clip-path="url(#pb55e3efc4e)" style="fill: #add8e6; stroke: #add8e6; stroke-linejoin: miter"/>
   </g>
   <g id="patch_21">
    <path d="M 443.304216 359.517187 
L 443.304216 26.877187 
L 443.93244 26.877187 
L 443.93244 359.517187 
z
" clip-path="url(#pb55e3efc4e)" style="fill: #add8e6; stroke: #add8e6; stroke-linejoin: miter"/>
   </g>
   <g id="patch_22">
    <path d="M 444.394718 359.517187 
L 444.394718 26.877187 
L 445.105914 26.877187 
L 445.105914 359.517187 
z
" clip-path="url(#pb55e3efc4e)" style="fill: #add8e6; stroke: #add8e6; stroke-linejoin: miter"/>
   </g>
   <g id="patch_23">
    <path d="M 445.508925 359.517187 
L 445.508925 26.877187 
L 445.828964 26.877187 
L 445.828964 359.517187 
z
" clip-path="url(#pb55e3efc4e)" style="fill: #add8e6; stroke: #add8e6; stroke-linejoin: miter"/>
   </g>
   <g id="patch_24">
    <path d="M 469.203621 359.517187 
L 469.203621 26.877187 
L 469.879257 26.877187 
L 469.879257 359.517187 
z
" clip-path="url(#pb55e3efc4e)" style="fill: #add8e6; stroke: #add8e6; stroke-linejoin: miter"/>
   </g>
   <g id="patch_25">
    <path d="M 470.460068 359.517187 
L 470.460068 26.877187 
L 471.088291 26.877187 
L 471.088291 359.517187 
z
" clip-path="url(#pb55e3efc4e)" style="fill: #add8e6; stroke: #add8e6; stroke-linejoin: miter"/>
   </g>
   <g id="patch_26">
    <path d="M 471.349063 359.517187 
L 471.349063 26.877187 
L 472.036553 26.877187 
L 472.036553 359.517187 
z
" clip-path="url(#pb55e3efc4e)" style="fill: #add8e6; stroke: #add8e6; stroke-linejoin: miter"/>
   </g>
   <g id="patch_27">
    <path d="M 484.589171 359.517187 
L 484.589171 26.877187 
L 485.063302 26.877187 
L 485.063302 359.517187 
z
" clip-path="url(#pb55e3efc4e)" style="fill: #add8e6; stroke: #add8e6; stroke-linejoin: miter"/>
   </g>
   <g id="patch_28">
    <path d="M 492.459745 359.517187 
L 492.459745 26.877187 
L 492.945729 26.877187 
L 492.945729 359.517187 
z
" clip-path="url(#pb55e3efc4e)" style="fill: #add8e6; stroke: #add8e6; stroke-linejoin: miter"/>
   </g>
   <g id="patch_29">
    <path d="M 499.868041 359.517187 
L 499.868041 26.877187 
L 500.377732 26.877187 
L 500.377732 359.517187 
z
" clip-path="url(#pb55e3efc4e)" style="fill: #add8e6; stroke: #add8e6; stroke-linejoin: miter"/>
   </g>
   <g id="patch_30">
    <path d="M 507.051126 359.517187 
L 507.051126 26.877187 
L 507.703056 26.877187 
L 507.703056 359.517187 
z
" clip-path="url(#pb55e3efc4e)" style="fill: #add8e6; stroke: #add8e6; stroke-linejoin: miter"/>
   </g>
   <g id="patch_31">
    <path d="M 507.999387 359.517187 
L 507.999387 26.877187 
L 508.568345 26.877187 
L 508.568345 359.517187 
z
" clip-path="url(#pb55e3efc4e)" style="fill: #add8e6; stroke: #add8e6; stroke-linejoin: miter"/>
   </g>
   <g id="patch_32">
    <path d="M 514.767607 359.517187 
L 514.767607 26.877187 
L 515.218032 26.877187 
L 515.218032 359.517187 
z
" clip-path="url(#pb55e3efc4e)" style="fill: #add8e6; stroke: #add8e6; stroke-linejoin: miter"/>
   </g>
   <g id="patch_33">
    <path d="M 528.043274 359.517187 
L 528.043274 26.877187 
L 528.351459 26.877187 
L 528.351459 359.517187 
z
" clip-path="url(#pb55e3efc4e)" style="fill: #add8e6; stroke: #add8e6; stroke-linejoin: miter"/>
   </g>
   <g id="patch_34">
    <path d="M 535.060413 359.517187 
L 535.060413 26.877187 
L 535.759756 26.877187 
L 535.759756 359.517187 
z
" clip-path="url(#pb55e3efc4e)" style="fill: #add8e6; stroke: #add8e6; stroke-linejoin: miter"/>
   </g>
   <g id="patch_35">
    <path d="M 536.150914 359.517187 
L 536.150914 26.877187 
L 536.802844 26.877187 
L 536.802844 359.517187 
z
" clip-path="url(#pb55e3efc4e)" style="fill: #add8e6; stroke: #add8e6; stroke-linejoin: miter"/>
   </g>
   <g id="patch_36">
    <path d="M 602.861142 359.517187 
L 602.861142 26.877187 
L 603.21674 26.877187 
L 603.21674 359.517187 
z
" clip-path="url(#pb55e3efc4e)" style="fill: #add8e6; stroke: #add8e6; stroke-linejoin: miter"/>
   </g>
   <g id="patch_37">
    <path d="M 603.90423 359.517187 
L 603.90423 26.877187 
L 604.176855 26.877187 
L 604.176855 359.517187 
z
" clip-path="url(#pb55e3efc4e)" style="fill: #add8e6; stroke: #add8e6; stroke-linejoin: miter"/>
   </g>
   <g id="patch_38">
    <path d="M 604.816932 359.517187 
L 604.816932 26.877187 
L 605.089557 26.877187 
L 605.089557 359.517187 
z
" clip-path="url(#pb55e3efc4e)" style="fill: #add8e6; stroke: #add8e6; stroke-linejoin: miter"/>
   </g>
   <g id="patch_39">
    <path d="M 608.64554 359.517187 
L 608.64554 26.877187 
L 608.906312 26.877187 
L 608.906312 359.517187 
z
" clip-path="url(#pb55e3efc4e)" style="fill: #add8e6; stroke: #add8e6; stroke-linejoin: miter"/>
   </g>
   <g id="patch_40">
    <path d="M 612.130402 359.517187 
L 612.130402 26.877187 
L 612.616387 26.877187 
L 612.616387 359.517187 
z
" clip-path="url(#pb55e3efc4e)" style="fill: #add8e6; stroke: #add8e6; stroke-linejoin: miter"/>
   </g>
   <g id="patch_41">
    <path d="M 613.979513 359.517187 
L 613.979513 26.877187 
L 614.61959 26.877187 
L 614.61959 359.517187 
z
" clip-path="url(#pb55e3efc4e)" style="fill: #add8e6; stroke: #add8e6; stroke-linejoin: miter"/>
   </g>
   <g id="patch_42">
    <path d="M 668.23195 359.517187 
L 668.23195 26.877187 
L 668.362336 26.877187 
L 668.362336 359.517187 
z
" clip-path="url(#pb55e3efc4e)" style="fill: #add8e6; stroke: #add8e6; stroke-linejoin: miter"/>
   </g>
   <g id="patch_43">
    <path d="M 669.239478 359.517187 
L 669.239478 26.877187 
L 669.725462 26.877187 
L 669.725462 359.517187 
z
" clip-path="url(#pb55e3efc4e)" style="fill: #add8e6; stroke: #add8e6; stroke-linejoin: miter"/>
   </g>
   <g id="patch_44">
    <path d="M 670.270713 359.517187 
L 670.270713 26.877187 
L 670.685577 26.877187 
L 670.685577 359.517187 
z
" clip-path="url(#pb55e3efc4e)" style="fill: #add8e6; stroke: #add8e6; stroke-linejoin: miter"/>
   </g>
   <g id="patch_45">
    <path d="M 734.645846 359.517187 
L 734.645846 26.877187 
L 735.037004 26.877187 
L 735.037004 359.517187 
z
" clip-path="url(#pb55e3efc4e)" style="fill: #add8e6; stroke: #add8e6; stroke-linejoin: miter"/>
   </g>
   <g id="patch_46">
    <path d="M 735.641521 359.517187 
L 735.641521 26.877187 
L 736.222331 26.877187 
L 736.222331 359.517187 
z
" clip-path="url(#pb55e3efc4e)" style="fill: #add8e6; stroke: #add8e6; stroke-linejoin: miter"/>
   </g>
   <g id="patch_47">
    <path d="M 736.601636 359.517187 
L 736.601636 26.877187 
L 737.300979 26.877187 
L 737.300979 359.517187 
z
" clip-path="url(#pb55e3efc4e)" style="fill: #add8e6; stroke: #add8e6; stroke-linejoin: miter"/>
   </g>
   <g id="patch_48">
    <path d="M 737.549898 359.517187 
L 737.549898 26.877187 
L 738.237388 26.877187 
L 738.237388 359.517187 
z
" clip-path="url(#pb55e3efc4e)" style="fill: #add8e6; stroke: #add8e6; stroke-linejoin: miter"/>
   </g>
   <g id="patch_49">
    <path d="M 811.703982 359.517187 
L 811.703982 26.877187 
L 812.415178 26.877187 
L 812.415178 359.517187 
z
" clip-path="url(#pb55e3efc4e)" style="fill: #add8e6; stroke: #add8e6; stroke-linejoin: miter"/>
   </g>
   <g id="patch_50">
    <path d="M 1048.27163 359.517187 
L 1048.27163 26.877187 
L 1048.970974 26.877187 
L 1048.970974 359.517187 
z
" clip-path="url(#pb55e3efc4e)" style="fill: #add8e6; stroke: #add8e6; stroke-linejoin: miter"/>
   </g>
   <g id="patch_51">
    <path d="M 1049.302865 359.517187 
L 1049.302865 26.877187 
L 1049.670317 26.877187 
L 1049.670317 359.517187 
z
" clip-path="url(#pb55e3efc4e)" style="fill: #add8e6; stroke: #add8e6; stroke-linejoin: miter"/>
   </g>
   <g id="patch_52">
    <path d="M 1050.156301 359.517187 
L 1050.156301 26.877187 
L 1050.464486 26.877187 
L 1050.464486 359.517187 
z
" clip-path="url(#pb55e3efc4e)" style="fill: #add8e6; stroke: #add8e6; stroke-linejoin: miter"/>
   </g>
   <g id="patch_53">
    <path d="M 1111.212517 359.517187 
L 1111.212517 26.877187 
L 1111.568115 26.877187 
L 1111.568115 359.517187 
z
" clip-path="url(#pb55e3efc4e)" style="fill: #add8e6; stroke: #add8e6; stroke-linejoin: miter"/>
   </g>
   <g id="patch_54">
    <path d="M 1111.994833 359.517187 
L 1111.994833 26.877187 
L 1112.646763 26.877187 
L 1112.646763 359.517187 
z
" clip-path="url(#pb55e3efc4e)" style="fill: #add8e6; stroke: #add8e6; stroke-linejoin: miter"/>
   </g>
   <g id="patch_55">
    <path d="M 1112.931242 359.517187 
L 1112.931242 26.877187 
L 1113.535759 26.877187 
L 1113.535759 359.517187 
z
" clip-path="url(#pb55e3efc4e)" style="fill: #add8e6; stroke: #add8e6; stroke-linejoin: miter"/>
   </g>
   <g id="patch_56">
    <path d="M 1113.820237 359.517187 
L 1113.820237 26.877187 
L 1114.152129 26.877187 
L 1114.152129 359.517187 
z
" clip-path="url(#pb55e3efc4e)" style="fill: #add8e6; stroke: #add8e6; stroke-linejoin: miter"/>
   </g>
   <g id="patch_57">
    <path d="M 612.023723 359.517187 
L 612.023723 26.877187 
L 1114.507727 26.877187 
L 1114.507727 359.517187 
z
" clip-path="url(#pb55e3efc4e)" style="fill: #808080; opacity: 0.4; stroke: #808080; stroke-linejoin: miter"/>
   </g>
   <g id="matplotlib.axis_1">
    <g id="xtick_1">
     <g id="line2d_1">
      <defs>
       <path id="mbe81ac851d" d="M 0 0 
L 0 3.5 
" style="stroke: #000000; stroke-width: 0.8"/>
      </defs>
      <g>
       <use xlink:href="#mbe81ac851d" x="54.018982" y="359.517187" style="stroke: #000000; stroke-width: 0.8"/>
      </g>
     </g>
     <g id="text_1">
      <!-- 09-06 06 -->
      <g transform="translate(31.538513 374.115625) scale(0.1 -0.1)">
       <defs>
        <path id="DejaVuSans-30" d="M 2034 4250 
Q 1547 4250 1301 3770 
Q 1056 3291 1056 2328 
Q 1056 1369 1301 889 
Q 1547 409 2034 409 
Q 2525 409 2770 889 
Q 3016 1369 3016 2328 
Q 3016 3291 2770 3770 
Q 2525 4250 2034 4250 
z
M 2034 4750 
Q 2819 4750 3233 4129 
Q 3647 3509 3647 2328 
Q 3647 1150 3233 529 
Q 2819 -91 2034 -91 
Q 1250 -91 836 529 
Q 422 1150 422 2328 
Q 422 3509 836 4129 
Q 1250 4750 2034 4750 
z
" transform="scale(0.015625)"/>
        <path id="DejaVuSans-39" d="M 703 97 
L 703 672 
Q 941 559 1184 500 
Q 1428 441 1663 441 
Q 2288 441 2617 861 
Q 2947 1281 2994 2138 
Q 2813 1869 2534 1725 
Q 2256 1581 1919 1581 
Q 1219 1581 811 2004 
Q 403 2428 403 3163 
Q 403 3881 828 4315 
Q 1253 4750 1959 4750 
Q 2769 4750 3195 4129 
Q 3622 3509 3622 2328 
Q 3622 1225 3098 567 
Q 2575 -91 1691 -91 
Q 1453 -91 1209 -44 
Q 966 3 703 97 
z
M 1959 2075 
Q 2384 2075 2632 2365 
Q 2881 2656 2881 3163 
Q 2881 3666 2632 3958 
Q 2384 4250 1959 4250 
Q 1534 4250 1286 3958 
Q 1038 3666 1038 3163 
Q 1038 2656 1286 2365 
Q 1534 2075 1959 2075 
z
" transform="scale(0.015625)"/>
        <path id="DejaVuSans-2d" d="M 313 2009 
L 1997 2009 
L 1997 1497 
L 313 1497 
L 313 2009 
z
" transform="scale(0.015625)"/>
        <path id="DejaVuSans-36" d="M 2113 2584 
Q 1688 2584 1439 2293 
Q 1191 2003 1191 1497 
Q 1191 994 1439 701 
Q 1688 409 2113 409 
Q 2538 409 2786 701 
Q 3034 994 3034 1497 
Q 3034 2003 2786 2293 
Q 2538 2584 2113 2584 
z
M 3366 4563 
L 3366 3988 
Q 3128 4100 2886 4159 
Q 2644 4219 2406 4219 
Q 1781 4219 1451 3797 
Q 1122 3375 1075 2522 
Q 1259 2794 1537 2939 
Q 1816 3084 2150 3084 
Q 2853 3084 3261 2657 
Q 3669 2231 3669 1497 
Q 3669 778 3244 343 
Q 2819 -91 2113 -91 
Q 1303 -91 875 529 
Q 447 1150 447 2328 
Q 447 3434 972 4092 
Q 1497 4750 2381 4750 
Q 2619 4750 2861 4703 
Q 3103 4656 3366 4563 
z
" transform="scale(0.015625)"/>
        <path id="DejaVuSans-20" transform="scale(0.015625)"/>
       </defs>
       <use xlink:href="#DejaVuSans-30"/>
       <use xlink:href="#DejaVuSans-39" x="63.623047"/>
       <use xlink:href="#DejaVuSans-2d" x="127.246094"/>
       <use xlink:href="#DejaVuSans-30" x="163.330078"/>
       <use xlink:href="#DejaVuSans-36" x="226.953125"/>
       <use xlink:href="#DejaVuSans-20" x="290.576172"/>
       <use xlink:href="#DejaVuSans-30" x="322.363281"/>
       <use xlink:href="#DejaVuSans-36" x="385.986328"/>
      </g>
     </g>
    </g>
    <g id="xtick_2">
     <g id="line2d_2">
      <g>
       <use xlink:href="#mbe81ac851d" x="182.034344" y="359.517187" style="stroke: #000000; stroke-width: 0.8"/>
      </g>
     </g>
     <g id="text_2">
      <!-- 09-06 09 -->
      <g transform="translate(159.553875 374.115625) scale(0.1 -0.1)">
       <use xlink:href="#DejaVuSans-30"/>
       <use xlink:href="#DejaVuSans-39" x="63.623047"/>
       <use xlink:href="#DejaVuSans-2d" x="127.246094"/>
       <use xlink:href="#DejaVuSans-30" x="163.330078"/>
       <use xlink:href="#DejaVuSans-36" x="226.953125"/>
       <use xlink:href="#DejaVuSans-20" x="290.576172"/>
       <use xlink:href="#DejaVuSans-30" x="322.363281"/>
       <use xlink:href="#DejaVuSans-39" x="385.986328"/>
      </g>
     </g>
    </g>
    <g id="xtick_3">
     <g id="line2d_3">
      <g>
       <use xlink:href="#mbe81ac851d" x="310.049707" y="359.517187" style="stroke: #000000; stroke-width: 0.8"/>
      </g>
     </g>
     <g id="text_3">
      <!-- 09-06 12 -->
      <g transform="translate(287.569238 374.115625) scale(0.1 -0.1)">
       <defs>
        <path id="DejaVuSans-31" d="M 794 531 
L 1825 531 
L 1825 4091 
L 703 3866 
L 703 4441 
L 1819 4666 
L 2450 4666 
L 2450 531 
L 3481 531 
L 3481 0 
L 794 0 
L 794 531 
z
" transform="scale(0.015625)"/>
        <path id="DejaVuSans-32" d="M 1228 531 
L 3431 531 
L 3431 0 
L 469 0 
L 469 531 
Q 828 903 1448 1529 
Q 2069 2156 2228 2338 
Q 2531 2678 2651 2914 
Q 2772 3150 2772 3378 
Q 2772 3750 2511 3984 
Q 2250 4219 1831 4219 
Q 1534 4219 1204 4116 
Q 875 4013 500 3803 
L 500 4441 
Q 881 4594 1212 4672 
Q 1544 4750 1819 4750 
Q 2544 4750 2975 4387 
Q 3406 4025 3406 3419 
Q 3406 3131 3298 2873 
Q 3191 2616 2906 2266 
Q 2828 2175 2409 1742 
Q 1991 1309 1228 531 
z
" transform="scale(0.015625)"/>
       </defs>
       <use xlink:href="#DejaVuSans-30"/>
       <use xlink:href="#DejaVuSans-39" x="63.623047"/>
       <use xlink:href="#DejaVuSans-2d" x="127.246094"/>
       <use xlink:href="#DejaVuSans-30" x="163.330078"/>
       <use xlink:href="#DejaVuSans-36" x="226.953125"/>
       <use xlink:href="#DejaVuSans-20" x="290.576172"/>
       <use xlink:href="#DejaVuSans-31" x="322.363281"/>
       <use xlink:href="#DejaVuSans-32" x="385.986328"/>
      </g>
     </g>
    </g>
    <g id="xtick_4">
     <g id="line2d_4">
      <g>
       <use xlink:href="#mbe81ac851d" x="438.065069" y="359.517187" style="stroke: #000000; stroke-width: 0.8"/>
      </g>
     </g>
     <g id="text_4">
      <!-- 09-06 15 -->
      <g transform="translate(415.5846 374.115625) scale(0.1 -0.1)">
       <defs>
        <path id="DejaVuSans-35" d="M 691 4666 
L 3169 4666 
L 3169 4134 
L 1269 4134 
L 1269 2991 
Q 1406 3038 1543 3061 
Q 1681 3084 1819 3084 
Q 2600 3084 3056 2656 
Q 3513 2228 3513 1497 
Q 3513 744 3044 326 
Q 2575 -91 1722 -91 
Q 1428 -91 1123 -41 
Q 819 9 494 109 
L 494 744 
Q 775 591 1075 516 
Q 1375 441 1709 441 
Q 2250 441 2565 725 
Q 2881 1009 2881 1497 
Q 2881 1984 2565 2268 
Q 2250 2553 1709 2553 
Q 1456 2553 1204 2497 
Q 953 2441 691 2322 
L 691 4666 
z
" transform="scale(0.015625)"/>
       </defs>
       <use xlink:href="#DejaVuSans-30"/>
       <use xlink:href="#DejaVuSans-39" x="63.623047"/>
       <use xlink:href="#DejaVuSans-2d" x="127.246094"/>
       <use xlink:href="#DejaVuSans-30" x="163.330078"/>
       <use xlink:href="#DejaVuSans-36" x="226.953125"/>
       <use xlink:href="#DejaVuSans-20" x="290.576172"/>
       <use xlink:href="#DejaVuSans-31" x="322.363281"/>
       <use xlink:href="#DejaVuSans-35" x="385.986328"/>
      </g>
     </g>
    </g>
    <g id="xtick_5">
     <g id="line2d_5">
      <g>
       <use xlink:href="#mbe81ac851d" x="566.080432" y="359.517187" style="stroke: #000000; stroke-width: 0.8"/>
      </g>
     </g>
     <g id="text_5">
      <!-- 09-06 18 -->
      <g transform="translate(543.599963 374.115625) scale(0.1 -0.1)">
       <defs>
        <path id="DejaVuSans-38" d="M 2034 2216 
Q 1584 2216 1326 1975 
Q 1069 1734 1069 1313 
Q 1069 891 1326 650 
Q 1584 409 2034 409 
Q 2484 409 2743 651 
Q 3003 894 3003 1313 
Q 3003 1734 2745 1975 
Q 2488 2216 2034 2216 
z
M 1403 2484 
Q 997 2584 770 2862 
Q 544 3141 544 3541 
Q 544 4100 942 4425 
Q 1341 4750 2034 4750 
Q 2731 4750 3128 4425 
Q 3525 4100 3525 3541 
Q 3525 3141 3298 2862 
Q 3072 2584 2669 2484 
Q 3125 2378 3379 2068 
Q 3634 1759 3634 1313 
Q 3634 634 3220 271 
Q 2806 -91 2034 -91 
Q 1263 -91 848 271 
Q 434 634 434 1313 
Q 434 1759 690 2068 
Q 947 2378 1403 2484 
z
M 1172 3481 
Q 1172 3119 1398 2916 
Q 1625 2713 2034 2713 
Q 2441 2713 2670 2916 
Q 2900 3119 2900 3481 
Q 2900 3844 2670 4047 
Q 2441 4250 2034 4250 
Q 1625 4250 1398 4047 
Q 1172 3844 1172 3481 
z
" transform="scale(0.015625)"/>
       </defs>
       <use xlink:href="#DejaVuSans-30"/>
       <use xlink:href="#DejaVuSans-39" x="63.623047"/>
       <use xlink:href="#DejaVuSans-2d" x="127.246094"/>
       <use xlink:href="#DejaVuSans-30" x="163.330078"/>
       <use xlink:href="#DejaVuSans-36" x="226.953125"/>
       <use xlink:href="#DejaVuSans-20" x="290.576172"/>
       <use xlink:href="#DejaVuSans-31" x="322.363281"/>
       <use xlink:href="#DejaVuSans-38" x="385.986328"/>
      </g>
     </g>
    </g>
    <g id="xtick_6">
     <g id="line2d_6">
      <g>
       <use xlink:href="#mbe81ac851d" x="694.095794" y="359.517187" style="stroke: #000000; stroke-width: 0.8"/>
      </g>
     </g>
     <g id="text_6">
      <!-- 09-06 21 -->
      <g transform="translate(671.615325 374.115625) scale(0.1 -0.1)">
       <use xlink:href="#DejaVuSans-30"/>
       <use xlink:href="#DejaVuSans-39" x="63.623047"/>
       <use xlink:href="#DejaVuSans-2d" x="127.246094"/>
       <use xlink:href="#DejaVuSans-30" x="163.330078"/>
       <use xlink:href="#DejaVuSans-36" x="226.953125"/>
       <use xlink:href="#DejaVuSans-20" x="290.576172"/>
       <use xlink:href="#DejaVuSans-32" x="322.363281"/>
       <use xlink:href="#DejaVuSans-31" x="385.986328"/>
      </g>
     </g>
    </g>
    <g id="xtick_7">
     <g id="line2d_7">
      <g>
       <use xlink:href="#mbe81ac851d" x="822.111157" y="359.517187" style="stroke: #000000; stroke-width: 0.8"/>
      </g>
     </g>
     <g id="text_7">
      <!-- 09-07 00 -->
      <g transform="translate(799.630688 374.115625) scale(0.1 -0.1)">
       <defs>
        <path id="DejaVuSans-37" d="M 525 4666 
L 3525 4666 
L 3525 4397 
L 1831 0 
L 1172 0 
L 2766 4134 
L 525 4134 
L 525 4666 
z
" transform="scale(0.015625)"/>
       </defs>
       <use xlink:href="#DejaVuSans-30"/>
       <use xlink:href="#DejaVuSans-39" x="63.623047"/>
       <use xlink:href="#DejaVuSans-2d" x="127.246094"/>
       <use xlink:href="#DejaVuSans-30" x="163.330078"/>
       <use xlink:href="#DejaVuSans-37" x="226.953125"/>
       <use xlink:href="#DejaVuSans-20" x="290.576172"/>
       <use xlink:href="#DejaVuSans-30" x="322.363281"/>
       <use xlink:href="#DejaVuSans-30" x="385.986328"/>
      </g>
     </g>
    </g>
    <g id="xtick_8">
     <g id="line2d_8">
      <g>
       <use xlink:href="#mbe81ac851d" x="950.126519" y="359.517187" style="stroke: #000000; stroke-width: 0.8"/>
      </g>
     </g>
     <g id="text_8">
      <!-- 09-07 03 -->
      <g transform="translate(927.64605 374.115625) scale(0.1 -0.1)">
       <defs>
        <path id="DejaVuSans-33" d="M 2597 2516 
Q 3050 2419 3304 2112 
Q 3559 1806 3559 1356 
Q 3559 666 3084 287 
Q 2609 -91 1734 -91 
Q 1441 -91 1130 -33 
Q 819 25 488 141 
L 488 750 
Q 750 597 1062 519 
Q 1375 441 1716 441 
Q 2309 441 2620 675 
Q 2931 909 2931 1356 
Q 2931 1769 2642 2001 
Q 2353 2234 1838 2234 
L 1294 2234 
L 1294 2753 
L 1863 2753 
Q 2328 2753 2575 2939 
Q 2822 3125 2822 3475 
Q 2822 3834 2567 4026 
Q 2313 4219 1838 4219 
Q 1578 4219 1281 4162 
Q 984 4106 628 3988 
L 628 4550 
Q 988 4650 1302 4700 
Q 1616 4750 1894 4750 
Q 2613 4750 3031 4423 
Q 3450 4097 3450 3541 
Q 3450 3153 3228 2886 
Q 3006 2619 2597 2516 
z
" transform="scale(0.015625)"/>
       </defs>
       <use xlink:href="#DejaVuSans-30"/>
       <use xlink:href="#DejaVuSans-39" x="63.623047"/>
       <use xlink:href="#DejaVuSans-2d" x="127.246094"/>
       <use xlink:href="#DejaVuSans-30" x="163.330078"/>
       <use xlink:href="#DejaVuSans-37" x="226.953125"/>
       <use xlink:href="#DejaVuSans-20" x="290.576172"/>
       <use xlink:href="#DejaVuSans-30" x="322.363281"/>
       <use xlink:href="#DejaVuSans-33" x="385.986328"/>
      </g>
     </g>
    </g>
    <g id="xtick_9">
     <g id="line2d_9">
      <g>
       <use xlink:href="#mbe81ac851d" x="1078.141882" y="359.517187" style="stroke: #000000; stroke-width: 0.8"/>
      </g>
     </g>
     <g id="text_9">
      <!-- 09-07 06 -->
      <g transform="translate(1055.661413 374.115625) scale(0.1 -0.1)">
       <use xlink:href="#DejaVuSans-30"/>
       <use xlink:href="#DejaVuSans-39" x="63.623047"/>
       <use xlink:href="#DejaVuSans-2d" x="127.246094"/>
       <use xlink:href="#DejaVuSans-30" x="163.330078"/>
       <use xlink:href="#DejaVuSans-37" x="226.953125"/>
       <use xlink:href="#DejaVuSans-20" x="290.576172"/>
       <use xlink:href="#DejaVuSans-30" x="322.363281"/>
       <use xlink:href="#DejaVuSans-36" x="385.986328"/>
      </g>
     </g>
    </g>
    <g id="text_10">
     <!-- Time -->
     <g transform="translate(592.554688 389.313437) scale(0.12 -0.12)">
      <defs>
       <path id="DejaVuSans-54" d="M -19 4666 
L 3928 4666 
L 3928 4134 
L 2272 4134 
L 2272 0 
L 1638 0 
L 1638 4134 
L -19 4134 
L -19 4666 
z
" transform="scale(0.015625)"/>
       <path id="DejaVuSans-69" d="M 603 3500 
L 1178 3500 
L 1178 0 
L 603 0 
L 603 3500 
z
M 603 4863 
L 1178 4863 
L 1178 4134 
L 603 4134 
L 603 4863 
z
" transform="scale(0.015625)"/>
       <path id="DejaVuSans-6d" d="M 3328 2828 
Q 3544 3216 3844 3400 
Q 4144 3584 4550 3584 
Q 5097 3584 5394 3201 
Q 5691 2819 5691 2113 
L 5691 0 
L 5113 0 
L 5113 2094 
Q 5113 2597 4934 2840 
Q 4756 3084 4391 3084 
Q 3944 3084 3684 2787 
Q 3425 2491 3425 1978 
L 3425 0 
L 2847 0 
L 2847 2094 
Q 2847 2600 2669 2842 
Q 2491 3084 2119 3084 
Q 1678 3084 1418 2786 
Q 1159 2488 1159 1978 
L 1159 0 
L 581 0 
L 581 3500 
L 1159 3500 
L 1159 2956 
Q 1356 3278 1631 3431 
Q 1906 3584 2284 3584 
Q 2666 3584 2933 3390 
Q 3200 3197 3328 2828 
z
" transform="scale(0.015625)"/>
       <path id="DejaVuSans-65" d="M 3597 1894 
L 3597 1613 
L 953 1613 
Q 991 1019 1311 708 
Q 1631 397 2203 397 
Q 2534 397 2845 478 
Q 3156 559 3463 722 
L 3463 178 
Q 3153 47 2828 -22 
Q 2503 -91 2169 -91 
Q 1331 -91 842 396 
Q 353 884 353 1716 
Q 353 2575 817 3079 
Q 1281 3584 2069 3584 
Q 2775 3584 3186 3129 
Q 3597 2675 3597 1894 
z
M 3022 2063 
Q 3016 2534 2758 2815 
Q 2500 3097 2075 3097 
Q 1594 3097 1305 2825 
Q 1016 2553 972 2059 
L 3022 2063 
z
" transform="scale(0.015625)"/>
      </defs>
      <use xlink:href="#DejaVuSans-54"/>
      <use xlink:href="#DejaVuSans-69" x="57.958984"/>
      <use xlink:href="#DejaVuSans-6d" x="85.742188"/>
      <use xlink:href="#DejaVuSans-65" x="183.154297"/>
     </g>
    </g>
   </g>
   <g id="matplotlib.axis_2">
    <g id="ytick_1">
     <g id="line2d_10">
      <defs>
       <path id="m88e8416129" d="M 0 0 
L -3.5 0 
" style="stroke: #000000; stroke-width: 0.8"/>
      </defs>
      <g>
       <use xlink:href="#m88e8416129" x="49.235" y="344.397187" style="stroke: #000000; stroke-width: 0.8"/>
      </g>
     </g>
     <g id="text_11">
      <!-- 0 -->
      <g transform="translate(35.8725 348.196406) scale(0.1 -0.1)">
       <use xlink:href="#DejaVuSans-30"/>
      </g>
     </g>
    </g>
    <g id="ytick_2">
     <g id="line2d_11">
      <g>
       <use xlink:href="#m88e8416129" x="49.235" y="305.428115" style="stroke: #000000; stroke-width: 0.8"/>
      </g>
     </g>
     <g id="text_12">
      <!-- 25 -->
      <g transform="translate(29.51 309.227334) scale(0.1 -0.1)">
       <use xlink:href="#DejaVuSans-32"/>
       <use xlink:href="#DejaVuSans-35" x="63.623047"/>
      </g>
     </g>
    </g>
    <g id="ytick_3">
     <g id="line2d_12">
      <g>
       <use xlink:href="#m88e8416129" x="49.235" y="266.459043" style="stroke: #000000; stroke-width: 0.8"/>
      </g>
     </g>
     <g id="text_13">
      <!-- 50 -->
      <g transform="translate(29.51 270.258262) scale(0.1 -0.1)">
       <use xlink:href="#DejaVuSans-35"/>
       <use xlink:href="#DejaVuSans-30" x="63.623047"/>
      </g>
     </g>
    </g>
    <g id="ytick_4">
     <g id="line2d_13">
      <g>
       <use xlink:href="#m88e8416129" x="49.235" y="227.489971" style="stroke: #000000; stroke-width: 0.8"/>
      </g>
     </g>
     <g id="text_14">
      <!-- 75 -->
      <g transform="translate(29.51 231.28919) scale(0.1 -0.1)">
       <use xlink:href="#DejaVuSans-37"/>
       <use xlink:href="#DejaVuSans-35" x="63.623047"/>
      </g>
     </g>
    </g>
    <g id="ytick_5">
     <g id="line2d_14">
      <g>
       <use xlink:href="#m88e8416129" x="49.235" y="188.520899" style="stroke: #000000; stroke-width: 0.8"/>
      </g>
     </g>
     <g id="text_15">
      <!-- 100 -->
      <g transform="translate(23.1475 192.320118) scale(0.1 -0.1)">
       <use xlink:href="#DejaVuSans-31"/>
       <use xlink:href="#DejaVuSans-30" x="63.623047"/>
       <use xlink:href="#DejaVuSans-30" x="127.246094"/>
      </g>
     </g>
    </g>
    <g id="ytick_6">
     <g id="line2d_15">
      <g>
       <use xlink:href="#m88e8416129" x="49.235" y="149.551827" style="stroke: #000000; stroke-width: 0.8"/>
      </g>
     </g>
     <g id="text_16">
      <!-- 125 -->
      <g transform="translate(23.1475 153.351045) scale(0.1 -0.1)">
       <use xlink:href="#DejaVuSans-31"/>
       <use xlink:href="#DejaVuSans-32" x="63.623047"/>
       <use xlink:href="#DejaVuSans-35" x="127.246094"/>
      </g>
     </g>
    </g>
    <g id="ytick_7">
     <g id="line2d_16">
      <g>
       <use xlink:href="#m88e8416129" x="49.235" y="110.582755" style="stroke: #000000; stroke-width: 0.8"/>
      </g>
     </g>
     <g id="text_17">
      <!-- 150 -->
      <g transform="translate(23.1475 114.381973) scale(0.1 -0.1)">
       <use xlink:href="#DejaVuSans-31"/>
       <use xlink:href="#DejaVuSans-35" x="63.623047"/>
       <use xlink:href="#DejaVuSans-30" x="127.246094"/>
      </g>
     </g>
    </g>
    <g id="ytick_8">
     <g id="line2d_17">
      <g>
       <use xlink:href="#m88e8416129" x="49.235" y="71.613682" style="stroke: #000000; stroke-width: 0.8"/>
      </g>
     </g>
     <g id="text_18">
      <!-- 175 -->
      <g transform="translate(23.1475 75.412901) scale(0.1 -0.1)">
       <use xlink:href="#DejaVuSans-31"/>
       <use xlink:href="#DejaVuSans-37" x="63.623047"/>
       <use xlink:href="#DejaVuSans-35" x="127.246094"/>
      </g>
     </g>
    </g>
    <g id="ytick_9">
     <g id="line2d_18">
      <g>
       <use xlink:href="#m88e8416129" x="49.235" y="32.64461" style="stroke: #000000; stroke-width: 0.8"/>
      </g>
     </g>
     <g id="text_19">
      <!-- 200 -->
      <g transform="translate(23.1475 36.443829) scale(0.1 -0.1)">
       <use xlink:href="#DejaVuSans-32"/>
       <use xlink:href="#DejaVuSans-30" x="63.623047"/>
       <use xlink:href="#DejaVuSans-30" x="127.246094"/>
      </g>
     </g>
    </g>
    <g id="text_20">
     <!-- Pellet_Count -->
     <g transform="translate(16.318125 230.485312) rotate(-90) scale(0.12 -0.12)">
      <defs>
       <path id="DejaVuSans-50" d="M 1259 4147 
L 1259 2394 
L 2053 2394 
Q 2494 2394 2734 2622 
Q 2975 2850 2975 3272 
Q 2975 3691 2734 3919 
Q 2494 4147 2053 4147 
L 1259 4147 
z
M 628 4666 
L 2053 4666 
Q 2838 4666 3239 4311 
Q 3641 3956 3641 3272 
Q 3641 2581 3239 2228 
Q 2838 1875 2053 1875 
L 1259 1875 
L 1259 0 
L 628 0 
L 628 4666 
z
" transform="scale(0.015625)"/>
       <path id="DejaVuSans-6c" d="M 603 4863 
L 1178 4863 
L 1178 0 
L 603 0 
L 603 4863 
z
" transform="scale(0.015625)"/>
       <path id="DejaVuSans-74" d="M 1172 4494 
L 1172 3500 
L 2356 3500 
L 2356 3053 
L 1172 3053 
L 1172 1153 
Q 1172 725 1289 603 
Q 1406 481 1766 481 
L 2356 481 
L 2356 0 
L 1766 0 
Q 1100 0 847 248 
Q 594 497 594 1153 
L 594 3053 
L 172 3053 
L 172 3500 
L 594 3500 
L 594 4494 
L 1172 4494 
z
" transform="scale(0.015625)"/>
       <path id="DejaVuSans-5f" d="M 3263 -1063 
L 3263 -1509 
L -63 -1509 
L -63 -1063 
L 3263 -1063 
z
" transform="scale(0.015625)"/>
       <path id="DejaVuSans-43" d="M 4122 4306 
L 4122 3641 
Q 3803 3938 3442 4084 
Q 3081 4231 2675 4231 
Q 1875 4231 1450 3742 
Q 1025 3253 1025 2328 
Q 1025 1406 1450 917 
Q 1875 428 2675 428 
Q 3081 428 3442 575 
Q 3803 722 4122 1019 
L 4122 359 
Q 3791 134 3420 21 
Q 3050 -91 2638 -91 
Q 1578 -91 968 557 
Q 359 1206 359 2328 
Q 359 3453 968 4101 
Q 1578 4750 2638 4750 
Q 3056 4750 3426 4639 
Q 3797 4528 4122 4306 
z
" transform="scale(0.015625)"/>
       <path id="DejaVuSans-6f" d="M 1959 3097 
Q 1497 3097 1228 2736 
Q 959 2375 959 1747 
Q 959 1119 1226 758 
Q 1494 397 1959 397 
Q 2419 397 2687 759 
Q 2956 1122 2956 1747 
Q 2956 2369 2687 2733 
Q 2419 3097 1959 3097 
z
M 1959 3584 
Q 2709 3584 3137 3096 
Q 3566 2609 3566 1747 
Q 3566 888 3137 398 
Q 2709 -91 1959 -91 
Q 1206 -91 779 398 
Q 353 888 353 1747 
Q 353 2609 779 3096 
Q 1206 3584 1959 3584 
z
" transform="scale(0.015625)"/>
       <path id="DejaVuSans-75" d="M 544 1381 
L 544 3500 
L 1119 3500 
L 1119 1403 
Q 1119 906 1312 657 
Q 1506 409 1894 409 
Q 2359 409 2629 706 
Q 2900 1003 2900 1516 
L 2900 3500 
L 3475 3500 
L 3475 0 
L 2900 0 
L 2900 538 
Q 2691 219 2414 64 
Q 2138 -91 1772 -91 
Q 1169 -91 856 284 
Q 544 659 544 1381 
z
M 1991 3584 
L 1991 3584 
z
" transform="scale(0.015625)"/>
       <path id="DejaVuSans-6e" d="M 3513 2113 
L 3513 0 
L 2938 0 
L 2938 2094 
Q 2938 2591 2744 2837 
Q 2550 3084 2163 3084 
Q 1697 3084 1428 2787 
Q 1159 2491 1159 1978 
L 1159 0 
L 581 0 
L 581 3500 
L 1159 3500 
L 1159 2956 
Q 1366 3272 1645 3428 
Q 1925 3584 2291 3584 
Q 2894 3584 3203 3211 
Q 3513 2838 3513 2113 
z
" transform="scale(0.015625)"/>
      </defs>
      <use xlink:href="#DejaVuSans-50"/>
      <use xlink:href="#DejaVuSans-65" x="56.677734"/>
      <use xlink:href="#DejaVuSans-6c" x="118.201172"/>
      <use xlink:href="#DejaVuSans-6c" x="145.984375"/>
      <use xlink:href="#DejaVuSans-65" x="173.767578"/>
      <use xlink:href="#DejaVuSans-74" x="235.291016"/>
      <use xlink:href="#DejaVuSans-5f" x="274.5"/>
      <use xlink:href="#DejaVuSans-43" x="324.5"/>
      <use xlink:href="#DejaVuSans-6f" x="394.324219"/>
      <use xlink:href="#DejaVuSans-75" x="455.505859"/>
      <use xlink:href="#DejaVuSans-6e" x="518.884766"/>
      <use xlink:href="#DejaVuSans-74" x="582.263672"/>
     </g>
    </g>
   </g>
   <g id="line2d_19">
    <path d="M 99.962273 344.397187 
L 112.325238 344.397187 
L 112.360798 342.838425 
L 114.5418 342.838425 
L 117.410293 341.279662 
L 136.932635 341.279662 
L 138.177229 339.720899 
L 140.808656 339.720899 
L 141.887304 338.162136 
L 143.487496 338.162136 
L 143.487496 336.603373 
L 166.340609 336.603373 
L 166.8503 335.04461 
L 250.43959 335.04461 
L 250.47515 333.485847 
L 261.783174 333.485847 
L 261.795027 331.927084 
L 271.692511 331.927084 
L 271.94143 330.368322 
L 274.181699 330.368322 
L 274.537297 328.809559 
L 276.398261 328.809559 
L 277.370229 327.250796 
L 293.715895 327.250796 
L 293.763308 325.692033 
L 306.884882 325.692033 
L 307.027122 324.13327 
L 308.283569 324.13327 
L 308.330982 322.574507 
L 310.180093 322.574507 
L 310.203799 321.015744 
L 312.882639 321.015744 
L 312.918199 319.456981 
L 315.134761 319.456981 
L 315.217734 317.898218 
L 315.976344 317.898218 
L 316.00005 316.339456 
L 316.770513 316.339456 
L 316.806073 314.780693 
L 317.327617 314.780693 
L 317.351324 313.22193 
L 318.121786 313.22193 
L 318.157346 311.663167 
L 319.532326 311.663167 
L 319.591592 310.104404 
L 321.073252 310.104404 
L 321.096958 308.545641 
L 321.938541 308.545641 
L 321.974101 306.986878 
L 322.590471 306.986878 
L 322.614177 305.428115 
L 323.147575 305.428115 
L 323.171281 303.869352 
L 324.119543 303.869352 
L 324.155103 302.31059 
L 324.747767 302.31059 
L 324.771473 300.751827 
L 325.719735 300.751827 
L 325.743442 299.193064 
L 326.656144 299.193064 
L 326.691704 297.634301 
L 327.153981 297.634301 
L 327.177688 296.075538 
L 327.568846 296.075538 
L 327.592553 294.516775 
L 328.801587 294.516775 
L 328.849 292.958012 
L 329.275717 292.958012 
L 329.299424 291.399249 
L 329.619462 291.399249 
L 329.631316 289.840486 
L 332.665754 289.840486 
L 332.68946 288.281724 
L 337.810075 288.281724 
L 337.857488 286.722961 
L 339.777719 286.722961 
L 339.789572 285.164198 
L 341.105285 285.164198 
L 341.140845 283.605435 
L 342.124667 283.605435 
L 342.148373 282.046672 
L 342.575091 282.046672 
L 342.598798 280.487909 
L 342.906983 280.487909 
L 342.942543 278.929146 
L 343.203315 278.929146 
L 343.227021 277.370383 
L 343.487793 277.370383 
L 343.5115 275.81162 
L 348.454315 275.81162 
L 348.501728 274.252858 
L 348.7625 274.252858 
L 348.79806 272.694095 
L 351.607286 272.694095 
L 351.630993 271.135332 
L 353.930528 271.135332 
L 353.954235 269.576569 
L 363.259055 269.576569 
L 363.365734 268.017806 
L 363.780599 268.017806 
L 363.804306 266.459043 
L 364.420676 266.459043 
L 364.444382 264.90028 
L 366.874304 264.90028 
L 366.89801 263.341517 
L 367.763299 263.341517 
L 367.775152 261.782755 
L 368.20187 261.782755 
L 368.225577 260.223992 
L 368.616735 260.223992 
L 368.88936 258.665229 
L 369.185692 258.665229 
L 369.209399 257.106466 
L 370.22878 257.106466 
L 370.26434 255.547703 
L 370.536965 255.547703 
L 370.643645 253.98894 
L 377.400011 253.98894 
L 377.435571 252.430177 
L 379.142442 252.430177 
L 379.166149 250.871414 
L 388.020545 250.871414 
L 388.044252 249.312651 
L 388.305024 249.312651 
L 388.32873 247.753889 
L 388.542089 247.753889 
L 388.565796 246.195126 
L 393.556024 246.195126 
L 393.603437 244.636363 
L 393.840503 244.636363 
L 393.864209 243.0776 
L 395.286602 243.0776 
L 395.310309 241.518837 
L 395.559227 241.518837 
L 395.582934 239.960074 
L 395.78444 239.960074 
L 395.819999 238.401311 
L 396.045212 238.401311 
L 396.068918 236.842548 
L 396.282277 236.842548 
L 396.305984 235.283785 
L 396.685288 235.283785 
L 396.708995 233.725023 
L 396.969767 233.725023 
L 397.005327 232.16626 
L 408.52671 232.16626 
L 408.550416 230.607497 
L 408.823041 230.607497 
L 408.846748 229.048734 
L 409.119373 229.048734 
L 423.165503 227.489971 
L 430.241908 227.489971 
L 430.265615 225.931208 
L 430.751599 225.931208 
L 430.775305 224.372445 
L 443.28051 224.372445 
L 443.304216 222.813682 
L 443.671668 222.813682 
L 443.683521 221.254919 
L 443.920587 221.254919 
L 443.93244 219.696157 
L 444.359158 219.696157 
L 444.394718 218.137394 
L 444.58437 218.137394 
L 444.608076 216.578631 
L 444.845142 216.578631 
L 444.856995 215.019868 
L 445.082207 215.019868 
L 445.105914 213.461105 
L 445.34298 213.461105 
L 445.508925 211.902342 
L 445.805257 211.902342 
L 445.828964 210.343579 
L 448.175912 210.343579 
L 448.199619 208.784816 
L 469.144354 208.784816 
L 469.203621 207.226053 
L 469.855551 207.226053 
L 469.879257 205.667291 
L 470.436361 205.667291 
L 470.460068 204.108528 
L 470.7564 204.108528 
L 470.780106 202.549765 
L 471.064585 202.549765 
L 471.088291 200.991002 
L 471.33721 200.991002 
L 471.349063 199.432239 
L 471.574276 199.432239 
L 471.597982 197.873476 
L 471.823194 197.873476 
L 472.036553 196.314713 
L 472.321032 196.314713 
L 472.807016 194.75595 
L 484.316545 194.75595 
L 484.589171 193.197187 
L 485.039595 193.197187 
L 485.063302 191.638425 
L 492.447892 191.638425 
L 492.459745 190.079662 
L 492.779783 190.079662 
L 492.886463 186.962136 
L 492.922023 186.962136 
L 492.945729 185.403373 
L 499.844335 185.403373 
L 499.868041 183.84461 
L 500.140667 183.84461 
L 500.22364 182.285847 
L 500.377732 180.727084 
L 507.027419 180.727084 
L 507.051126 179.168322 
L 507.406724 179.168322 
L 507.442284 177.609559 
L 507.667496 177.609559 
L 507.703056 176.050796 
L 507.987534 176.050796 
L 507.999387 174.492033 
L 508.26016 174.492033 
L 508.283866 172.93327 
L 508.544638 172.93327 
L 508.627611 171.374507 
L 515.158765 169.815744 
L 515.277298 166.698218 
L 515.775135 165.139456 
L 528.019568 165.139456 
L 528.043274 163.580693 
L 528.327753 163.580693 
L 528.398873 162.02193 
L 535.392304 160.463167 
L 535.427864 158.904404 
L 535.736049 158.904404 
L 535.759756 157.345641 
L 536.127207 157.345641 
L 536.150914 155.786878 
L 536.387979 155.786878 
L 536.435393 154.228115 
L 536.779138 154.228115 
L 536.89767 152.669352 
L 602.801875 152.669352 
L 602.861142 151.11059 
L 603.169327 151.11059 
L 603.21674 149.551827 
L 603.536778 149.551827 
L 603.90423 147.993064 
L 604.165002 147.993064 
L 604.176855 146.434301 
L 604.769519 146.434301 
L 604.816932 144.875538 
L 605.077704 144.875538 
L 605.089557 143.316775 
L 608.633686 143.316775 
L 608.64554 141.758012 
L 608.894458 141.758012 
L 608.965578 140.199249 
L 611.099167 140.199249 
L 611.18214 138.640486 
L 611.276967 138.640486 
L 612.130402 137.081724 
L 612.59268 137.081724 
L 612.6638 135.522961 
L 613.979513 133.964198 
L 614.263992 133.964198 
L 614.335111 132.405435 
L 614.595883 132.405435 
L 614.61959 130.846672 
L 615.152987 130.846672 
L 615.544145 129.287909 
L 633.442589 129.287909 
L 633.466296 127.729146 
L 648.152503 127.729146 
L 648.354009 126.170383 
L 649.041498 126.170383 
L 649.266711 124.61162 
L 649.598602 124.61162 
L 649.610456 123.052858 
L 650.487598 123.052858 
L 650.67725 121.494095 
L 651.827018 121.494095 
L 651.838871 119.935332 
L 666.264306 119.935332 
L 666.288013 118.376569 
L 668.220096 118.376569 
L 668.338629 116.817806 
L 668.362336 115.259043 
L 669.215771 115.259043 
L 669.239478 113.70028 
L 669.713609 113.70028 
L 669.725462 112.141517 
L 670.247006 112.141517 
L 670.353686 109.023992 
L 670.626311 109.023992 
L 670.685577 107.465229 
L 671.100442 107.465229 
L 671.124149 105.906466 
L 684.16275 105.906466 
L 684.210163 104.347703 
L 684.968773 104.347703 
L 685.028039 102.78894 
L 734.633992 102.78894 
L 734.645846 101.230177 
L 735.02515 101.230177 
L 735.037004 99.671414 
L 735.617814 99.671414 
L 735.71264 96.553889 
L 736.210478 96.553889 
L 736.222331 94.995126 
L 736.566076 94.995126 
L 736.601636 93.436363 
L 736.933527 93.436363 
L 736.945381 91.8776 
L 737.289126 91.8776 
L 737.300979 90.318837 
L 737.538044 90.318837 
L 737.549898 88.760074 
L 737.834376 88.760074 
L 737.84623 87.201311 
L 738.166268 87.201311 
L 738.237388 84.083785 
L 811.692129 84.083785 
L 811.703982 82.525023 
L 812.071433 82.525023 
L 812.09514 80.96626 
L 812.403325 80.96626 
L 812.415178 79.407497 
L 936.175215 79.407497 
L 936.198922 77.848734 
L 936.708613 77.848734 
L 936.720466 76.289971 
L 937.550195 76.289971 
L 937.573902 74.731208 
L 1046.481786 74.731208 
L 1046.505493 73.172445 
L 1048.259777 73.172445 
L 1048.27163 71.613682 
L 1048.627229 71.613682 
L 1048.650935 70.054919 
L 1048.947267 70.054919 
L 1048.970974 68.496157 
L 1049.291012 68.496157 
L 1049.302865 66.937394 
L 1049.64661 66.937394 
L 1049.670317 65.378631 
L 1050.144448 65.378631 
L 1050.156301 63.819868 
L 1050.452633 63.819868 
L 1050.464486 62.261105 
L 1105.522945 62.261105 
L 1105.546652 60.702342 
L 1106.317115 60.702342 
L 1107.502442 59.143579 
L 1111.176957 59.143579 
L 1111.212517 57.584816 
L 1111.556262 57.584816 
L 1111.568115 56.026053 
L 1111.98298 56.026053 
L 1111.994833 54.467291 
L 1112.303018 54.467291 
L 1112.326725 52.908528 
L 1112.623057 52.908528 
L 1112.646763 51.349765 
L 1112.907535 51.349765 
L 1112.978655 48.232239 
L 1113.263133 48.232239 
L 1113.274987 46.673476 
L 1113.523906 46.673476 
L 1113.535759 45.114713 
L 1113.808384 45.114713 
L 1113.820237 43.55595 
L 1114.128422 43.55595 
L 1114.152129 41.997187 
L 1114.507727 41.997187 
L 1114.507727 41.997187 
" clip-path="url(#pb55e3efc4e)" style="fill: none; stroke: #0000ff; stroke-width: 1.5; stroke-linecap: square"/>
   </g>
   <g id="patch_58">
    <path d="M 49.235 359.517187 
L 49.235 26.877187 
" style="fill: none; stroke: #000000; stroke-width: 0.8; stroke-linejoin: miter; stroke-linecap: square"/>
   </g>
   <g id="patch_59">
    <path d="M 1165.235 359.517187 
L 1165.235 26.877187 
" style="fill: none; stroke: #000000; stroke-width: 0.8; stroke-linejoin: miter; stroke-linecap: square"/>
   </g>
   <g id="patch_60">
    <path d="M 49.235 359.517187 
L 1165.235 359.517187 
" style="fill: none; stroke: #000000; stroke-width: 0.8; stroke-linejoin: miter; stroke-linecap: square"/>
   </g>
   <g id="patch_61">
    <path d="M 49.235 26.877187 
L 1165.235 26.877187 
" style="fill: none; stroke: #000000; stroke-width: 0.8; stroke-linejoin: miter; stroke-linecap: square"/>
   </g>
   <g id="text_21">
    <!-- Pellet Count and Cumulative Sum Over Time of Group ctrl Mouse M58 -->
    <g transform="translate(293.018281 20.877187) scale(0.18 -0.18)">
     <defs>
      <path id="DejaVuSans-61" d="M 2194 1759 
Q 1497 1759 1228 1600 
Q 959 1441 959 1056 
Q 959 750 1161 570 
Q 1363 391 1709 391 
Q 2188 391 2477 730 
Q 2766 1069 2766 1631 
L 2766 1759 
L 2194 1759 
z
M 3341 1997 
L 3341 0 
L 2766 0 
L 2766 531 
Q 2569 213 2275 61 
Q 1981 -91 1556 -91 
Q 1019 -91 701 211 
Q 384 513 384 1019 
Q 384 1609 779 1909 
Q 1175 2209 1959 2209 
L 2766 2209 
L 2766 2266 
Q 2766 2663 2505 2880 
Q 2244 3097 1772 3097 
Q 1472 3097 1187 3025 
Q 903 2953 641 2809 
L 641 3341 
Q 956 3463 1253 3523 
Q 1550 3584 1831 3584 
Q 2591 3584 2966 3190 
Q 3341 2797 3341 1997 
z
" transform="scale(0.015625)"/>
      <path id="DejaVuSans-64" d="M 2906 2969 
L 2906 4863 
L 3481 4863 
L 3481 0 
L 2906 0 
L 2906 525 
Q 2725 213 2448 61 
Q 2172 -91 1784 -91 
Q 1150 -91 751 415 
Q 353 922 353 1747 
Q 353 2572 751 3078 
Q 1150 3584 1784 3584 
Q 2172 3584 2448 3432 
Q 2725 3281 2906 2969 
z
M 947 1747 
Q 947 1113 1208 752 
Q 1469 391 1925 391 
Q 2381 391 2643 752 
Q 2906 1113 2906 1747 
Q 2906 2381 2643 2742 
Q 2381 3103 1925 3103 
Q 1469 3103 1208 2742 
Q 947 2381 947 1747 
z
" transform="scale(0.015625)"/>
      <path id="DejaVuSans-76" d="M 191 3500 
L 800 3500 
L 1894 563 
L 2988 3500 
L 3597 3500 
L 2284 0 
L 1503 0 
L 191 3500 
z
" transform="scale(0.015625)"/>
      <path id="DejaVuSans-53" d="M 3425 4513 
L 3425 3897 
Q 3066 4069 2747 4153 
Q 2428 4238 2131 4238 
Q 1616 4238 1336 4038 
Q 1056 3838 1056 3469 
Q 1056 3159 1242 3001 
Q 1428 2844 1947 2747 
L 2328 2669 
Q 3034 2534 3370 2195 
Q 3706 1856 3706 1288 
Q 3706 609 3251 259 
Q 2797 -91 1919 -91 
Q 1588 -91 1214 -16 
Q 841 59 441 206 
L 441 856 
Q 825 641 1194 531 
Q 1563 422 1919 422 
Q 2459 422 2753 634 
Q 3047 847 3047 1241 
Q 3047 1584 2836 1778 
Q 2625 1972 2144 2069 
L 1759 2144 
Q 1053 2284 737 2584 
Q 422 2884 422 3419 
Q 422 4038 858 4394 
Q 1294 4750 2059 4750 
Q 2388 4750 2728 4690 
Q 3069 4631 3425 4513 
z
" transform="scale(0.015625)"/>
      <path id="DejaVuSans-4f" d="M 2522 4238 
Q 1834 4238 1429 3725 
Q 1025 3213 1025 2328 
Q 1025 1447 1429 934 
Q 1834 422 2522 422 
Q 3209 422 3611 934 
Q 4013 1447 4013 2328 
Q 4013 3213 3611 3725 
Q 3209 4238 2522 4238 
z
M 2522 4750 
Q 3503 4750 4090 4092 
Q 4678 3434 4678 2328 
Q 4678 1225 4090 567 
Q 3503 -91 2522 -91 
Q 1538 -91 948 565 
Q 359 1222 359 2328 
Q 359 3434 948 4092 
Q 1538 4750 2522 4750 
z
" transform="scale(0.015625)"/>
      <path id="DejaVuSans-72" d="M 2631 2963 
Q 2534 3019 2420 3045 
Q 2306 3072 2169 3072 
Q 1681 3072 1420 2755 
Q 1159 2438 1159 1844 
L 1159 0 
L 581 0 
L 581 3500 
L 1159 3500 
L 1159 2956 
Q 1341 3275 1631 3429 
Q 1922 3584 2338 3584 
Q 2397 3584 2469 3576 
Q 2541 3569 2628 3553 
L 2631 2963 
z
" transform="scale(0.015625)"/>
      <path id="DejaVuSans-66" d="M 2375 4863 
L 2375 4384 
L 1825 4384 
Q 1516 4384 1395 4259 
Q 1275 4134 1275 3809 
L 1275 3500 
L 2222 3500 
L 2222 3053 
L 1275 3053 
L 1275 0 
L 697 0 
L 697 3053 
L 147 3053 
L 147 3500 
L 697 3500 
L 697 3744 
Q 697 4328 969 4595 
Q 1241 4863 1831 4863 
L 2375 4863 
z
" transform="scale(0.015625)"/>
      <path id="DejaVuSans-47" d="M 3809 666 
L 3809 1919 
L 2778 1919 
L 2778 2438 
L 4434 2438 
L 4434 434 
Q 4069 175 3628 42 
Q 3188 -91 2688 -91 
Q 1594 -91 976 548 
Q 359 1188 359 2328 
Q 359 3472 976 4111 
Q 1594 4750 2688 4750 
Q 3144 4750 3555 4637 
Q 3966 4525 4313 4306 
L 4313 3634 
Q 3963 3931 3569 4081 
Q 3175 4231 2741 4231 
Q 1884 4231 1454 3753 
Q 1025 3275 1025 2328 
Q 1025 1384 1454 906 
Q 1884 428 2741 428 
Q 3075 428 3337 486 
Q 3600 544 3809 666 
z
" transform="scale(0.015625)"/>
      <path id="DejaVuSans-70" d="M 1159 525 
L 1159 -1331 
L 581 -1331 
L 581 3500 
L 1159 3500 
L 1159 2969 
Q 1341 3281 1617 3432 
Q 1894 3584 2278 3584 
Q 2916 3584 3314 3078 
Q 3713 2572 3713 1747 
Q 3713 922 3314 415 
Q 2916 -91 2278 -91 
Q 1894 -91 1617 61 
Q 1341 213 1159 525 
z
M 3116 1747 
Q 3116 2381 2855 2742 
Q 2594 3103 2138 3103 
Q 1681 3103 1420 2742 
Q 1159 2381 1159 1747 
Q 1159 1113 1420 752 
Q 1681 391 2138 391 
Q 2594 391 2855 752 
Q 3116 1113 3116 1747 
z
" transform="scale(0.015625)"/>
      <path id="DejaVuSans-63" d="M 3122 3366 
L 3122 2828 
Q 2878 2963 2633 3030 
Q 2388 3097 2138 3097 
Q 1578 3097 1268 2742 
Q 959 2388 959 1747 
Q 959 1106 1268 751 
Q 1578 397 2138 397 
Q 2388 397 2633 464 
Q 2878 531 3122 666 
L 3122 134 
Q 2881 22 2623 -34 
Q 2366 -91 2075 -91 
Q 1284 -91 818 406 
Q 353 903 353 1747 
Q 353 2603 823 3093 
Q 1294 3584 2113 3584 
Q 2378 3584 2631 3529 
Q 2884 3475 3122 3366 
z
" transform="scale(0.015625)"/>
      <path id="DejaVuSans-4d" d="M 628 4666 
L 1569 4666 
L 2759 1491 
L 3956 4666 
L 4897 4666 
L 4897 0 
L 4281 0 
L 4281 4097 
L 3078 897 
L 2444 897 
L 1241 4097 
L 1241 0 
L 628 0 
L 628 4666 
z
" transform="scale(0.015625)"/>
      <path id="DejaVuSans-73" d="M 2834 3397 
L 2834 2853 
Q 2591 2978 2328 3040 
Q 2066 3103 1784 3103 
Q 1356 3103 1142 2972 
Q 928 2841 928 2578 
Q 928 2378 1081 2264 
Q 1234 2150 1697 2047 
L 1894 2003 
Q 2506 1872 2764 1633 
Q 3022 1394 3022 966 
Q 3022 478 2636 193 
Q 2250 -91 1575 -91 
Q 1294 -91 989 -36 
Q 684 19 347 128 
L 347 722 
Q 666 556 975 473 
Q 1284 391 1588 391 
Q 1994 391 2212 530 
Q 2431 669 2431 922 
Q 2431 1156 2273 1281 
Q 2116 1406 1581 1522 
L 1381 1569 
Q 847 1681 609 1914 
Q 372 2147 372 2553 
Q 372 3047 722 3315 
Q 1072 3584 1716 3584 
Q 2034 3584 2315 3537 
Q 2597 3491 2834 3397 
z
" transform="scale(0.015625)"/>
     </defs>
     <use xlink:href="#DejaVuSans-50"/>
     <use xlink:href="#DejaVuSans-65" x="56.677734"/>
     <use xlink:href="#DejaVuSans-6c" x="118.201172"/>
     <use xlink:href="#DejaVuSans-6c" x="145.984375"/>
     <use xlink:href="#DejaVuSans-65" x="173.767578"/>
     <use xlink:href="#DejaVuSans-74" x="235.291016"/>
     <use xlink:href="#DejaVuSans-20" x="274.5"/>
     <use xlink:href="#DejaVuSans-43" x="306.287109"/>
     <use xlink:href="#DejaVuSans-6f" x="376.111328"/>
     <use xlink:href="#DejaVuSans-75" x="437.292969"/>
     <use xlink:href="#DejaVuSans-6e" x="500.671875"/>
     <use xlink:href="#DejaVuSans-74" x="564.050781"/>
     <use xlink:href="#DejaVuSans-20" x="603.259766"/>
     <use xlink:href="#DejaVuSans-61" x="635.046875"/>
     <use xlink:href="#DejaVuSans-6e" x="696.326172"/>
     <use xlink:href="#DejaVuSans-64" x="759.705078"/>
     <use xlink:href="#DejaVuSans-20" x="823.181641"/>
     <use xlink:href="#DejaVuSans-43" x="854.96875"/>
     <use xlink:href="#DejaVuSans-75" x="924.792969"/>
     <use xlink:href="#DejaVuSans-6d" x="988.171875"/>
     <use xlink:href="#DejaVuSans-75" x="1085.583984"/>
     <use xlink:href="#DejaVuSans-6c" x="1148.962891"/>
     <use xlink:href="#DejaVuSans-61" x="1176.746094"/>
     <use xlink:href="#DejaVuSans-74" x="1238.025391"/>
     <use xlink:href="#DejaVuSans-69" x="1277.234375"/>
     <use xlink:href="#DejaVuSans-76" x="1305.017578"/>
     <use xlink:href="#DejaVuSans-65" x="1364.197266"/>
     <use xlink:href="#DejaVuSans-20" x="1425.720703"/>
     <use xlink:href="#DejaVuSans-53" x="1457.507812"/>
     <use xlink:href="#DejaVuSans-75" x="1520.984375"/>
     <use xlink:href="#DejaVuSans-6d" x="1584.363281"/>
     <use xlink:href="#DejaVuSans-20" x="1681.775391"/>
     <use xlink:href="#DejaVuSans-4f" x="1713.5625"/>
     <use xlink:href="#DejaVuSans-76" x="1792.273438"/>
     <use xlink:href="#DejaVuSans-65" x="1851.453125"/>
     <use xlink:href="#DejaVuSans-72" x="1912.976562"/>
     <use xlink:href="#DejaVuSans-20" x="1954.089844"/>
     <use xlink:href="#DejaVuSans-54" x="1985.876953"/>
     <use xlink:href="#DejaVuSans-69" x="2043.835938"/>
     <use xlink:href="#DejaVuSans-6d" x="2071.619141"/>
     <use xlink:href="#DejaVuSans-65" x="2169.03125"/>
     <use xlink:href="#DejaVuSans-20" x="2230.554688"/>
     <use xlink:href="#DejaVuSans-6f" x="2262.341797"/>
     <use xlink:href="#DejaVuSans-66" x="2323.523438"/>
     <use xlink:href="#DejaVuSans-20" x="2358.728516"/>
     <use xlink:href="#DejaVuSans-47" x="2390.515625"/>
     <use xlink:href="#DejaVuSans-72" x="2468.005859"/>
     <use xlink:href="#DejaVuSans-6f" x="2506.869141"/>
     <use xlink:href="#DejaVuSans-75" x="2568.050781"/>
     <use xlink:href="#DejaVuSans-70" x="2631.429688"/>
     <use xlink:href="#DejaVuSans-20" x="2694.90625"/>
     <use xlink:href="#DejaVuSans-63" x="2726.693359"/>
     <use xlink:href="#DejaVuSans-74" x="2781.673828"/>
     <use xlink:href="#DejaVuSans-72" x="2820.882812"/>
     <use xlink:href="#DejaVuSans-6c" x="2861.996094"/>
     <use xlink:href="#DejaVuSans-20" x="2889.779297"/>
     <use xlink:href="#DejaVuSans-4d" x="2921.566406"/>
     <use xlink:href="#DejaVuSans-6f" x="3007.845703"/>
     <use xlink:href="#DejaVuSans-75" x="3069.027344"/>
     <use xlink:href="#DejaVuSans-73" x="3132.40625"/>
     <use xlink:href="#DejaVuSans-65" x="3184.505859"/>
     <use xlink:href="#DejaVuSans-20" x="3246.029297"/>
     <use xlink:href="#DejaVuSans-4d" x="3277.816406"/>
     <use xlink:href="#DejaVuSans-35" x="3364.095703"/>
     <use xlink:href="#DejaVuSans-38" x="3427.71875"/>
    </g>
   </g>
   <g id="legend_1">
    <g id="patch_62">
     <path d="M 1086.550625 64.233437 
L 1158.235 64.233437 
Q 1160.235 64.233437 1160.235 62.233437 
L 1160.235 33.877187 
Q 1160.235 31.877187 1158.235 31.877187 
L 1086.550625 31.877187 
Q 1084.550625 31.877187 1084.550625 33.877187 
L 1084.550625 62.233437 
Q 1084.550625 64.233437 1086.550625 64.233437 
z
" style="fill: #ffffff; opacity: 0.8; stroke: #cccccc; stroke-linejoin: miter"/>
    </g>
    <g id="patch_63">
     <path d="M 1088.550625 43.475625 
L 1108.550625 43.475625 
L 1108.550625 36.475625 
L 1088.550625 36.475625 
z
" style="fill: #add8e6; opacity: 0.9; stroke: #add8e6; stroke-linejoin: miter"/>
    </g>
    <g id="text_22">
     <!-- Meal -->
     <g transform="translate(1116.550625 43.475625) scale(0.1 -0.1)">
      <use xlink:href="#DejaVuSans-4d"/>
      <use xlink:href="#DejaVuSans-65" x="86.279297"/>
      <use xlink:href="#DejaVuSans-61" x="147.802734"/>
      <use xlink:href="#DejaVuSans-6c" x="209.082031"/>
     </g>
    </g>
    <g id="patch_64">
     <path d="M 1088.550625 58.15375 
L 1108.550625 58.15375 
L 1108.550625 51.15375 
L 1088.550625 51.15375 
z
" style="fill: #808080; opacity: 0.5; stroke: #808080; stroke-linejoin: miter"/>
    </g>
    <g id="text_23">
     <!-- Inactive -->
     <g transform="translate(1116.550625 58.15375) scale(0.1 -0.1)">
      <defs>
       <path id="DejaVuSans-49" d="M 628 4666 
L 1259 4666 
L 1259 0 
L 628 0 
L 628 4666 
z
" transform="scale(0.015625)"/>
      </defs>
      <use xlink:href="#DejaVuSans-49"/>
      <use xlink:href="#DejaVuSans-6e" x="29.492188"/>
      <use xlink:href="#DejaVuSans-61" x="92.871094"/>
      <use xlink:href="#DejaVuSans-63" x="154.150391"/>
      <use xlink:href="#DejaVuSans-74" x="209.130859"/>
      <use xlink:href="#DejaVuSans-69" x="248.339844"/>
      <use xlink:href="#DejaVuSans-76" x="276.123047"/>
      <use xlink:href="#DejaVuSans-65" x="335.302734"/>
     </g>
    </g>
   </g>
  </g>
 </g>
 <defs>
  <clipPath id="pb55e3efc4e">
   <rect x="49.235" y="26.877187" width="1116" height="332.64"/>
  </clipPath>
 </defs>
</svg>
