<?xml version="1.0" encoding="utf-8" standalone="no"?>
<!DOCTYPE svg PUBLIC "-//W3C//DTD SVG 1.1//EN"
  "http://www.w3.org/Graphics/SVG/1.1/DTD/svg11.dtd">
<svg xmlns:xlink="http://www.w3.org/1999/xlink" width="1172.435pt" height="399.009062pt" viewBox="0 0 1172.435 399.009062" xmlns="http://www.w3.org/2000/svg" version="1.1">
 <metadata>
  <rdf:RDF xmlns:dc="http://purl.org/dc/elements/1.1/" xmlns:cc="http://creativecommons.org/ns#" xmlns:rdf="http://www.w3.org/1999/02/22-rdf-syntax-ns#">
   <cc:Work>
    <dc:type rdf:resource="http://purl.org/dc/dcmitype/StillImage"/>
    <dc:date>2026-01-06T16:11:18.267295</dc:date>
    <dc:format>image/svg+xml</dc:format>
    <dc:creator>
     <cc:Agent>
      <dc:title>Matplotlib v3.8.4, https://matplotlib.org/</dc:title>
     </cc:Agent>
    </dc:creator>
   </cc:Work>
  </rdf:RDF>
 </metadata>
 <defs>
  <style type="text/css">*{stroke-linejoin: round; stroke-linecap: butt}</style>
 </defs>
 <g id="figure_1">
  <g id="patch_1">
   <path d="M 0 399.009062 
L 1172.435 399.009062 
L 1172.435 0 
L 0 0 
z
" style="fill: #ffffff"/>
  </g>
  <g id="axes_1">
   <g id="patch_2">
    <path d="M 49.235 359.517187 
L 1165.235 359.517187 
L 1165.235 26.877187 
L 49.235 26.877187 
z
" style="fill: #ffffff"/>
   </g>
   <g id="patch_3">
    <path d="M 115.609687 359.517187 
L 115.609687 26.877187 
L 116.109832 26.877187 
L 116.109832 359.517187 
z
" clip-path="url(#p8aff6f3468)" style="fill: #add8e6; stroke: #add8e6; stroke-linejoin: miter"/>
   </g>
   <g id="patch_4">
    <path d="M 121.885324 359.517187 
L 121.885324 26.877187 
L 122.278295 26.877187 
L 122.278295 359.517187 
z
" clip-path="url(#p8aff6f3468)" style="fill: #add8e6; stroke: #add8e6; stroke-linejoin: miter"/>
   </g>
   <g id="patch_5">
    <path d="M 148.917005 359.517187 
L 148.917005 26.877187 
L 149.405243 26.877187 
L 149.405243 359.517187 
z
" clip-path="url(#p8aff6f3468)" style="fill: #add8e6; stroke: #add8e6; stroke-linejoin: miter"/>
   </g>
   <g id="patch_6">
    <path d="M 149.786306 359.517187 
L 149.786306 26.877187 
L 150.465075 26.877187 
L 150.465075 359.517187 
z
" clip-path="url(#p8aff6f3468)" style="fill: #add8e6; stroke: #add8e6; stroke-linejoin: miter"/>
   </g>
   <g id="patch_7">
    <path d="M 159.277165 359.517187 
L 159.277165 26.877187 
L 159.896393 26.877187 
L 159.896393 359.517187 
z
" clip-path="url(#p8aff6f3468)" style="fill: #add8e6; stroke: #add8e6; stroke-linejoin: miter"/>
   </g>
   <g id="patch_8">
    <path d="M 175.389 359.517187 
L 175.389 26.877187 
L 175.841513 26.877187 
L 175.841513 359.517187 
z
" clip-path="url(#p8aff6f3468)" style="fill: #add8e6; stroke: #add8e6; stroke-linejoin: miter"/>
   </g>
   <g id="patch_9">
    <path d="M 178.961469 359.517187 
L 178.961469 26.877187 
L 179.235359 26.877187 
L 179.235359 359.517187 
z
" clip-path="url(#p8aff6f3468)" style="fill: #add8e6; stroke: #add8e6; stroke-linejoin: miter"/>
   </g>
   <g id="patch_10">
    <path d="M 179.878403 359.517187 
L 179.878403 26.877187 
L 180.390457 26.877187 
L 180.390457 359.517187 
z
" clip-path="url(#p8aff6f3468)" style="fill: #add8e6; stroke: #add8e6; stroke-linejoin: miter"/>
   </g>
   <g id="patch_11">
    <path d="M 184.641695 359.517187 
L 184.641695 26.877187 
L 184.998942 26.877187 
L 184.998942 359.517187 
z
" clip-path="url(#p8aff6f3468)" style="fill: #add8e6; stroke: #add8e6; stroke-linejoin: miter"/>
   </g>
   <g id="patch_12">
    <path d="M 192.382044 359.517187 
L 192.382044 26.877187 
L 192.977456 26.877187 
L 192.977456 359.517187 
z
" clip-path="url(#p8aff6f3468)" style="fill: #add8e6; stroke: #add8e6; stroke-linejoin: miter"/>
   </g>
   <g id="patch_13">
    <path d="M 197.25251 359.517187 
L 197.25251 26.877187 
L 197.752656 26.877187 
L 197.752656 359.517187 
z
" clip-path="url(#p8aff6f3468)" style="fill: #add8e6; stroke: #add8e6; stroke-linejoin: miter"/>
   </g>
   <g id="patch_14">
    <path d="M 209.934775 359.517187 
L 209.934775 26.877187 
L 210.423012 26.877187 
L 210.423012 359.517187 
z
" clip-path="url(#p8aff6f3468)" style="fill: #add8e6; stroke: #add8e6; stroke-linejoin: miter"/>
   </g>
   <g id="patch_15">
    <path d="M 213.900215 359.517187 
L 213.900215 26.877187 
L 214.34082 26.877187 
L 214.34082 359.517187 
z
" clip-path="url(#p8aff6f3468)" style="fill: #add8e6; stroke: #add8e6; stroke-linejoin: miter"/>
   </g>
   <g id="patch_16">
    <path d="M 214.733792 359.517187 
L 214.733792 26.877187 
L 215.448285 26.877187 
L 215.448285 359.517187 
z
" clip-path="url(#p8aff6f3468)" style="fill: #add8e6; stroke: #add8e6; stroke-linejoin: miter"/>
   </g>
   <g id="patch_17">
    <path d="M 220.080587 359.517187 
L 220.080587 26.877187 
L 220.723631 26.877187 
L 220.723631 359.517187 
z
" clip-path="url(#p8aff6f3468)" style="fill: #add8e6; stroke: #add8e6; stroke-linejoin: miter"/>
   </g>
   <g id="patch_18">
    <path d="M 225.379749 359.517187 
L 225.379749 26.877187 
L 225.665547 26.877187 
L 225.665547 359.517187 
z
" clip-path="url(#p8aff6f3468)" style="fill: #add8e6; stroke: #add8e6; stroke-linejoin: miter"/>
   </g>
   <g id="patch_19">
    <path d="M 239.014672 359.517187 
L 239.014672 26.877187 
L 239.598175 26.877187 
L 239.598175 359.517187 
z
" clip-path="url(#p8aff6f3468)" style="fill: #add8e6; stroke: #add8e6; stroke-linejoin: miter"/>
   </g>
   <g id="patch_20">
    <path d="M 276.215982 359.517187 
L 276.215982 26.877187 
L 276.43033 26.877187 
L 276.43033 359.517187 
z
" clip-path="url(#p8aff6f3468)" style="fill: #add8e6; stroke: #add8e6; stroke-linejoin: miter"/>
   </g>
   <g id="patch_21">
    <path d="M 301.449521 359.517187 
L 301.449521 26.877187 
L 302.068749 26.877187 
L 302.068749 359.517187 
z
" clip-path="url(#p8aff6f3468)" style="fill: #add8e6; stroke: #add8e6; stroke-linejoin: miter"/>
   </g>
   <g id="patch_22">
    <path d="M 302.295005 359.517187 
L 302.295005 26.877187 
L 302.830876 26.877187 
L 302.830876 359.517187 
z
" clip-path="url(#p8aff6f3468)" style="fill: #add8e6; stroke: #add8e6; stroke-linejoin: miter"/>
   </g>
   <g id="patch_23">
    <path d="M 330.493693 359.517187 
L 330.493693 26.877187 
L 331.065289 26.877187 
L 331.065289 359.517187 
z
" clip-path="url(#p8aff6f3468)" style="fill: #add8e6; stroke: #add8e6; stroke-linejoin: miter"/>
   </g>
   <g id="patch_24">
    <path d="M 355.155637 359.517187 
L 355.155637 26.877187 
L 355.417618 26.877187 
L 355.417618 359.517187 
z
" clip-path="url(#p8aff6f3468)" style="fill: #add8e6; stroke: #add8e6; stroke-linejoin: miter"/>
   </g>
   <g id="patch_25">
    <path d="M 389.891944 359.517187 
L 389.891944 26.877187 
L 390.344456 26.877187 
L 390.344456 359.517187 
z
" clip-path="url(#p8aff6f3468)" style="fill: #add8e6; stroke: #add8e6; stroke-linejoin: miter"/>
   </g>
   <g id="patch_26">
    <path d="M 391.154216 359.517187 
L 391.154216 26.877187 
L 391.440014 26.877187 
L 391.440014 359.517187 
z
" clip-path="url(#p8aff6f3468)" style="fill: #add8e6; stroke: #add8e6; stroke-linejoin: miter"/>
   </g>
   <g id="patch_27">
    <path d="M 403.288702 359.517187 
L 403.288702 26.877187 
L 403.729307 26.877187 
L 403.729307 359.517187 
z
" clip-path="url(#p8aff6f3468)" style="fill: #add8e6; stroke: #add8e6; stroke-linejoin: miter"/>
   </g>
   <g id="patch_28">
    <path d="M 414.422897 359.517187 
L 414.422897 26.877187 
L 414.87541 26.877187 
L 414.87541 359.517187 
z
" clip-path="url(#p8aff6f3468)" style="fill: #add8e6; stroke: #add8e6; stroke-linejoin: miter"/>
   </g>
   <g id="patch_29">
    <path d="M 415.399372 359.517187 
L 415.399372 26.877187 
L 415.982875 26.877187 
L 415.982875 359.517187 
z
" clip-path="url(#p8aff6f3468)" style="fill: #add8e6; stroke: #add8e6; stroke-linejoin: miter"/>
   </g>
   <g id="patch_30">
    <path d="M 416.22104 359.517187 
L 416.22104 26.877187 
L 416.578287 26.877187 
L 416.578287 359.517187 
z
" clip-path="url(#p8aff6f3468)" style="fill: #add8e6; stroke: #add8e6; stroke-linejoin: miter"/>
   </g>
   <g id="patch_31">
    <path d="M 416.95935 359.517187 
L 416.95935 26.877187 
L 417.483312 26.877187 
L 417.483312 359.517187 
z
" clip-path="url(#p8aff6f3468)" style="fill: #add8e6; stroke: #add8e6; stroke-linejoin: miter"/>
   </g>
   <g id="patch_32">
    <path d="M 440.656727 359.517187 
L 440.656727 26.877187 
L 441.287864 26.877187 
L 441.287864 359.517187 
z
" clip-path="url(#p8aff6f3468)" style="fill: #add8e6; stroke: #add8e6; stroke-linejoin: miter"/>
   </g>
   <g id="patch_33">
    <path d="M 448.623333 359.517187 
L 448.623333 26.877187 
L 448.921039 26.877187 
L 448.921039 359.517187 
z
" clip-path="url(#p8aff6f3468)" style="fill: #add8e6; stroke: #add8e6; stroke-linejoin: miter"/>
   </g>
   <g id="patch_34">
    <path d="M 449.38546 359.517187 
L 449.38546 26.877187 
L 449.647441 26.877187 
L 449.647441 359.517187 
z
" clip-path="url(#p8aff6f3468)" style="fill: #add8e6; stroke: #add8e6; stroke-linejoin: miter"/>
   </g>
   <g id="patch_35">
    <path d="M 485.074425 359.517187 
L 485.074425 26.877187 
L 485.717469 26.877187 
L 485.717469 359.517187 
z
" clip-path="url(#p8aff6f3468)" style="fill: #add8e6; stroke: #add8e6; stroke-linejoin: miter"/>
   </g>
   <g id="patch_36">
    <path d="M 486.598678 359.517187 
L 486.598678 26.877187 
L 487.039282 26.877187 
L 487.039282 359.517187 
z
" clip-path="url(#p8aff6f3468)" style="fill: #add8e6; stroke: #add8e6; stroke-linejoin: miter"/>
   </g>
   <g id="patch_37">
    <path d="M 520.394234 359.517187 
L 520.394234 26.877187 
L 521.061095 26.877187 
L 521.061095 359.517187 
z
" clip-path="url(#p8aff6f3468)" style="fill: #add8e6; stroke: #add8e6; stroke-linejoin: miter"/>
   </g>
   <g id="patch_38">
    <path d="M 556.047474 359.517187 
L 556.047474 26.877187 
L 556.285639 26.877187 
L 556.285639 359.517187 
z
" clip-path="url(#p8aff6f3468)" style="fill: #add8e6; stroke: #add8e6; stroke-linejoin: miter"/>
   </g>
   <g id="patch_39">
    <path d="M 591.533999 359.517187 
L 591.533999 26.877187 
L 592.224676 26.877187 
L 592.224676 359.517187 
z
" clip-path="url(#p8aff6f3468)" style="fill: #add8e6; stroke: #add8e6; stroke-linejoin: miter"/>
   </g>
   <g id="patch_40">
    <path d="M 593.284509 359.517187 
L 593.284509 26.877187 
L 593.701297 26.877187 
L 593.701297 359.517187 
z
" clip-path="url(#p8aff6f3468)" style="fill: #add8e6; stroke: #add8e6; stroke-linejoin: miter"/>
   </g>
   <g id="patch_41">
    <path d="M 625.865426 359.517187 
L 625.865426 26.877187 
L 626.484653 26.877187 
L 626.484653 359.517187 
z
" clip-path="url(#p8aff6f3468)" style="fill: #add8e6; stroke: #add8e6; stroke-linejoin: miter"/>
   </g>
   <g id="patch_42">
    <path d="M 626.818084 359.517187 
L 626.818084 26.877187 
L 627.258688 26.877187 
L 627.258688 359.517187 
z
" clip-path="url(#p8aff6f3468)" style="fill: #add8e6; stroke: #add8e6; stroke-linejoin: miter"/>
   </g>
   <g id="patch_43">
    <path d="M 627.627844 359.517187 
L 627.627844 26.877187 
L 627.949366 26.877187 
L 627.949366 359.517187 
z
" clip-path="url(#p8aff6f3468)" style="fill: #add8e6; stroke: #add8e6; stroke-linejoin: miter"/>
   </g>
   <g id="patch_44">
    <path d="M 681.786473 359.517187 
L 681.786473 26.877187 
L 682.107995 26.877187 
L 682.107995 359.517187 
z
" clip-path="url(#p8aff6f3468)" style="fill: #add8e6; stroke: #add8e6; stroke-linejoin: miter"/>
   </g>
   <g id="patch_45">
    <path d="M 682.620049 359.517187 
L 682.620049 26.877187 
L 683.239277 26.877187 
L 683.239277 359.517187 
z
" clip-path="url(#p8aff6f3468)" style="fill: #add8e6; stroke: #add8e6; stroke-linejoin: miter"/>
   </g>
   <g id="patch_46">
    <path d="M 724.358394 359.517187 
L 724.358394 26.877187 
L 724.846632 26.877187 
L 724.846632 359.517187 
z
" clip-path="url(#p8aff6f3468)" style="fill: #add8e6; stroke: #add8e6; stroke-linejoin: miter"/>
   </g>
   <g id="patch_47">
    <path d="M 765.036907 359.517187 
L 765.036907 26.877187 
L 765.429879 26.877187 
L 765.429879 359.517187 
z
" clip-path="url(#p8aff6f3468)" style="fill: #add8e6; stroke: #add8e6; stroke-linejoin: miter"/>
   </g>
   <g id="patch_48">
    <path d="M 765.775217 359.517187 
L 765.775217 26.877187 
L 766.001474 26.877187 
L 766.001474 359.517187 
z
" clip-path="url(#p8aff6f3468)" style="fill: #add8e6; stroke: #add8e6; stroke-linejoin: miter"/>
   </g>
   <g id="patch_49">
    <path d="M 852.479039 359.517187 
L 852.479039 26.877187 
L 852.895827 26.877187 
L 852.895827 359.517187 
z
" clip-path="url(#p8aff6f3468)" style="fill: #add8e6; stroke: #add8e6; stroke-linejoin: miter"/>
   </g>
   <g id="patch_50">
    <path d="M 853.217349 359.517187 
L 853.217349 26.877187 
L 853.729403 26.877187 
L 853.729403 359.517187 
z
" clip-path="url(#p8aff6f3468)" style="fill: #add8e6; stroke: #add8e6; stroke-linejoin: miter"/>
   </g>
   <g id="patch_51">
    <path d="M 854.062833 359.517187 
L 854.062833 26.877187 
L 854.551071 26.877187 
L 854.551071 359.517187 
z
" clip-path="url(#p8aff6f3468)" style="fill: #add8e6; stroke: #add8e6; stroke-linejoin: miter"/>
   </g>
   <g id="patch_52">
    <path d="M 854.848776 359.517187 
L 854.848776 26.877187 
L 855.086941 26.877187 
L 855.086941 359.517187 
z
" clip-path="url(#p8aff6f3468)" style="fill: #add8e6; stroke: #add8e6; stroke-linejoin: miter"/>
   </g>
   <g id="patch_53">
    <path d="M 922.451797 359.517187 
L 922.451797 26.877187 
L 923.142474 26.877187 
L 923.142474 359.517187 
z
" clip-path="url(#p8aff6f3468)" style="fill: #add8e6; stroke: #add8e6; stroke-linejoin: miter"/>
   </g>
   <g id="patch_54">
    <path d="M 923.380639 359.517187 
L 923.380639 26.877187 
L 923.97605 26.877187 
L 923.97605 359.517187 
z
" clip-path="url(#p8aff6f3468)" style="fill: #add8e6; stroke: #add8e6; stroke-linejoin: miter"/>
   </g>
   <g id="patch_55">
    <path d="M 959.736465 359.517187 
L 959.736465 26.877187 
L 960.188977 26.877187 
L 960.188977 359.517187 
z
" clip-path="url(#p8aff6f3468)" style="fill: #add8e6; stroke: #add8e6; stroke-linejoin: miter"/>
   </g>
   <g id="patch_56">
    <path d="M 987.196842 359.517187 
L 987.196842 26.877187 
L 987.827979 26.877187 
L 987.827979 359.517187 
z
" clip-path="url(#p8aff6f3468)" style="fill: #add8e6; stroke: #add8e6; stroke-linejoin: miter"/>
   </g>
   <g id="patch_57">
    <path d="M 1009.453324 359.517187 
L 1009.453324 26.877187 
L 1009.762938 26.877187 
L 1009.762938 359.517187 
z
" clip-path="url(#p8aff6f3468)" style="fill: #add8e6; stroke: #add8e6; stroke-linejoin: miter"/>
   </g>
   <g id="patch_58">
    <path d="M 1010.239267 359.517187 
L 1010.239267 26.877187 
L 1010.918036 26.877187 
L 1010.918036 359.517187 
z
" clip-path="url(#p8aff6f3468)" style="fill: #add8e6; stroke: #add8e6; stroke-linejoin: miter"/>
   </g>
   <g id="patch_59">
    <path d="M 1050.453359 359.517187 
L 1050.453359 26.877187 
L 1050.965413 26.877187 
L 1050.965413 359.517187 
z
" clip-path="url(#p8aff6f3468)" style="fill: #add8e6; stroke: #add8e6; stroke-linejoin: miter"/>
   </g>
   <g id="patch_60">
    <path d="M 1051.203578 359.517187 
L 1051.203578 26.877187 
L 1051.489375 26.877187 
L 1051.489375 359.517187 
z
" clip-path="url(#p8aff6f3468)" style="fill: #add8e6; stroke: #add8e6; stroke-linejoin: miter"/>
   </g>
   <g id="patch_61">
    <path d="M 1059.920402 359.517187 
L 1059.920402 26.877187 
L 1060.372915 26.877187 
L 1060.372915 359.517187 
z
" clip-path="url(#p8aff6f3468)" style="fill: #add8e6; stroke: #add8e6; stroke-linejoin: miter"/>
   </g>
   <g id="patch_62">
    <path d="M 1075.567816 359.517187 
L 1075.567816 26.877187 
L 1076.044145 26.877187 
L 1076.044145 359.517187 
z
" clip-path="url(#p8aff6f3468)" style="fill: #add8e6; stroke: #add8e6; stroke-linejoin: miter"/>
   </g>
   <g id="patch_63">
    <path d="M 1111.483037 359.517187 
L 1111.483037 26.877187 
L 1112.006999 26.877187 
L 1112.006999 359.517187 
z
" clip-path="url(#p8aff6f3468)" style="fill: #add8e6; stroke: #add8e6; stroke-linejoin: miter"/>
   </g>
   <g id="patch_64">
    <path d="M 1112.221347 359.517187 
L 1112.221347 26.877187 
L 1112.435695 26.877187 
L 1112.435695 359.517187 
z
" clip-path="url(#p8aff6f3468)" style="fill: #add8e6; stroke: #add8e6; stroke-linejoin: miter"/>
   </g>
   <g id="patch_65">
    <path d="M 1114.281471 359.517187 
L 1114.281471 26.877187 
L 1114.507727 26.877187 
L 1114.507727 359.517187 
z
" clip-path="url(#p8aff6f3468)" style="fill: #add8e6; stroke: #add8e6; stroke-linejoin: miter"/>
   </g>
   <g id="patch_66">
    <path d="M 542.948421 359.517187 
L 542.948421 26.877187 
L 1057.383949 26.877187 
L 1057.383949 359.517187 
z
" clip-path="url(#p8aff6f3468)" style="fill: #808080; opacity: 0.4; stroke: #808080; stroke-linejoin: miter"/>
   </g>
   <g id="matplotlib.axis_1">
    <g id="xtick_1">
     <g id="line2d_1">
      <defs>
       <path id="m5241058cae" d="M 0 0 
L 0 3.5 
" style="stroke: #000000; stroke-width: 0.8"/>
      </defs>
      <g>
       <use xlink:href="#m5241058cae" x="104.130153" y="359.517187" style="stroke: #000000; stroke-width: 0.8"/>
      </g>
     </g>
     <g id="text_1">
      <!-- 07-17 09 -->
      <g transform="translate(81.649684 374.115625) scale(0.1 -0.1)">
       <defs>
        <path id="DejaVuSans-30" d="M 2034 4250 
Q 1547 4250 1301 3770 
Q 1056 3291 1056 2328 
Q 1056 1369 1301 889 
Q 1547 409 2034 409 
Q 2525 409 2770 889 
Q 3016 1369 3016 2328 
Q 3016 3291 2770 3770 
Q 2525 4250 2034 4250 
z
M 2034 4750 
Q 2819 4750 3233 4129 
Q 3647 3509 3647 2328 
Q 3647 1150 3233 529 
Q 2819 -91 2034 -91 
Q 1250 -91 836 529 
Q 422 1150 422 2328 
Q 422 3509 836 4129 
Q 1250 4750 2034 4750 
z
" transform="scale(0.015625)"/>
        <path id="DejaVuSans-37" d="M 525 4666 
L 3525 4666 
L 3525 4397 
L 1831 0 
L 1172 0 
L 2766 4134 
L 525 4134 
L 525 4666 
z
" transform="scale(0.015625)"/>
        <path id="DejaVuSans-2d" d="M 313 2009 
L 1997 2009 
L 1997 1497 
L 313 1497 
L 313 2009 
z
" transform="scale(0.015625)"/>
        <path id="DejaVuSans-31" d="M 794 531 
L 1825 531 
L 1825 4091 
L 703 3866 
L 703 4441 
L 1819 4666 
L 2450 4666 
L 2450 531 
L 3481 531 
L 3481 0 
L 794 0 
L 794 531 
z
" transform="scale(0.015625)"/>
        <path id="DejaVuSans-20" transform="scale(0.015625)"/>
        <path id="DejaVuSans-39" d="M 703 97 
L 703 672 
Q 941 559 1184 500 
Q 1428 441 1663 441 
Q 2288 441 2617 861 
Q 2947 1281 2994 2138 
Q 2813 1869 2534 1725 
Q 2256 1581 1919 1581 
Q 1219 1581 811 2004 
Q 403 2428 403 3163 
Q 403 3881 828 4315 
Q 1253 4750 1959 4750 
Q 2769 4750 3195 4129 
Q 3622 3509 3622 2328 
Q 3622 1225 3098 567 
Q 2575 -91 1691 -91 
Q 1453 -91 1209 -44 
Q 966 3 703 97 
z
M 1959 2075 
Q 2384 2075 2632 2365 
Q 2881 2656 2881 3163 
Q 2881 3666 2632 3958 
Q 2384 4250 1959 4250 
Q 1534 4250 1286 3958 
Q 1038 3666 1038 3163 
Q 1038 2656 1286 2365 
Q 1534 2075 1959 2075 
z
" transform="scale(0.015625)"/>
       </defs>
       <use xlink:href="#DejaVuSans-30"/>
       <use xlink:href="#DejaVuSans-37" x="63.623047"/>
       <use xlink:href="#DejaVuSans-2d" x="127.246094"/>
       <use xlink:href="#DejaVuSans-31" x="163.330078"/>
       <use xlink:href="#DejaVuSans-37" x="226.953125"/>
       <use xlink:href="#DejaVuSans-20" x="290.576172"/>
       <use xlink:href="#DejaVuSans-30" x="322.363281"/>
       <use xlink:href="#DejaVuSans-39" x="385.986328"/>
      </g>
     </g>
    </g>
    <g id="xtick_2">
     <g id="line2d_2">
      <g>
       <use xlink:href="#m5241058cae" x="232.739035" y="359.517187" style="stroke: #000000; stroke-width: 0.8"/>
      </g>
     </g>
     <g id="text_2">
      <!-- 07-17 12 -->
      <g transform="translate(210.258566 374.115625) scale(0.1 -0.1)">
       <defs>
        <path id="DejaVuSans-32" d="M 1228 531 
L 3431 531 
L 3431 0 
L 469 0 
L 469 531 
Q 828 903 1448 1529 
Q 2069 2156 2228 2338 
Q 2531 2678 2651 2914 
Q 2772 3150 2772 3378 
Q 2772 3750 2511 3984 
Q 2250 4219 1831 4219 
Q 1534 4219 1204 4116 
Q 875 4013 500 3803 
L 500 4441 
Q 881 4594 1212 4672 
Q 1544 4750 1819 4750 
Q 2544 4750 2975 4387 
Q 3406 4025 3406 3419 
Q 3406 3131 3298 2873 
Q 3191 2616 2906 2266 
Q 2828 2175 2409 1742 
Q 1991 1309 1228 531 
z
" transform="scale(0.015625)"/>
       </defs>
       <use xlink:href="#DejaVuSans-30"/>
       <use xlink:href="#DejaVuSans-37" x="63.623047"/>
       <use xlink:href="#DejaVuSans-2d" x="127.246094"/>
       <use xlink:href="#DejaVuSans-31" x="163.330078"/>
       <use xlink:href="#DejaVuSans-37" x="226.953125"/>
       <use xlink:href="#DejaVuSans-20" x="290.576172"/>
       <use xlink:href="#DejaVuSans-31" x="322.363281"/>
       <use xlink:href="#DejaVuSans-32" x="385.986328"/>
      </g>
     </g>
    </g>
    <g id="xtick_3">
     <g id="line2d_3">
      <g>
       <use xlink:href="#m5241058cae" x="361.347917" y="359.517187" style="stroke: #000000; stroke-width: 0.8"/>
      </g>
     </g>
     <g id="text_3">
      <!-- 07-17 15 -->
      <g transform="translate(338.867448 374.115625) scale(0.1 -0.1)">
       <defs>
        <path id="DejaVuSans-35" d="M 691 4666 
L 3169 4666 
L 3169 4134 
L 1269 4134 
L 1269 2991 
Q 1406 3038 1543 3061 
Q 1681 3084 1819 3084 
Q 2600 3084 3056 2656 
Q 3513 2228 3513 1497 
Q 3513 744 3044 326 
Q 2575 -91 1722 -91 
Q 1428 -91 1123 -41 
Q 819 9 494 109 
L 494 744 
Q 775 591 1075 516 
Q 1375 441 1709 441 
Q 2250 441 2565 725 
Q 2881 1009 2881 1497 
Q 2881 1984 2565 2268 
Q 2250 2553 1709 2553 
Q 1456 2553 1204 2497 
Q 953 2441 691 2322 
L 691 4666 
z
" transform="scale(0.015625)"/>
       </defs>
       <use xlink:href="#DejaVuSans-30"/>
       <use xlink:href="#DejaVuSans-37" x="63.623047"/>
       <use xlink:href="#DejaVuSans-2d" x="127.246094"/>
       <use xlink:href="#DejaVuSans-31" x="163.330078"/>
       <use xlink:href="#DejaVuSans-37" x="226.953125"/>
       <use xlink:href="#DejaVuSans-20" x="290.576172"/>
       <use xlink:href="#DejaVuSans-31" x="322.363281"/>
       <use xlink:href="#DejaVuSans-35" x="385.986328"/>
      </g>
     </g>
    </g>
    <g id="xtick_4">
     <g id="line2d_4">
      <g>
       <use xlink:href="#m5241058cae" x="489.956799" y="359.517187" style="stroke: #000000; stroke-width: 0.8"/>
      </g>
     </g>
     <g id="text_4">
      <!-- 07-17 18 -->
      <g transform="translate(467.47633 374.115625) scale(0.1 -0.1)">
       <defs>
        <path id="DejaVuSans-38" d="M 2034 2216 
Q 1584 2216 1326 1975 
Q 1069 1734 1069 1313 
Q 1069 891 1326 650 
Q 1584 409 2034 409 
Q 2484 409 2743 651 
Q 3003 894 3003 1313 
Q 3003 1734 2745 1975 
Q 2488 2216 2034 2216 
z
M 1403 2484 
Q 997 2584 770 2862 
Q 544 3141 544 3541 
Q 544 4100 942 4425 
Q 1341 4750 2034 4750 
Q 2731 4750 3128 4425 
Q 3525 4100 3525 3541 
Q 3525 3141 3298 2862 
Q 3072 2584 2669 2484 
Q 3125 2378 3379 2068 
Q 3634 1759 3634 1313 
Q 3634 634 3220 271 
Q 2806 -91 2034 -91 
Q 1263 -91 848 271 
Q 434 634 434 1313 
Q 434 1759 690 2068 
Q 947 2378 1403 2484 
z
M 1172 3481 
Q 1172 3119 1398 2916 
Q 1625 2713 2034 2713 
Q 2441 2713 2670 2916 
Q 2900 3119 2900 3481 
Q 2900 3844 2670 4047 
Q 2441 4250 2034 4250 
Q 1625 4250 1398 4047 
Q 1172 3844 1172 3481 
z
" transform="scale(0.015625)"/>
       </defs>
       <use xlink:href="#DejaVuSans-30"/>
       <use xlink:href="#DejaVuSans-37" x="63.623047"/>
       <use xlink:href="#DejaVuSans-2d" x="127.246094"/>
       <use xlink:href="#DejaVuSans-31" x="163.330078"/>
       <use xlink:href="#DejaVuSans-37" x="226.953125"/>
       <use xlink:href="#DejaVuSans-20" x="290.576172"/>
       <use xlink:href="#DejaVuSans-31" x="322.363281"/>
       <use xlink:href="#DejaVuSans-38" x="385.986328"/>
      </g>
     </g>
    </g>
    <g id="xtick_5">
     <g id="line2d_5">
      <g>
       <use xlink:href="#m5241058cae" x="618.565681" y="359.517187" style="stroke: #000000; stroke-width: 0.8"/>
      </g>
     </g>
     <g id="text_5">
      <!-- 07-17 21 -->
      <g transform="translate(596.085212 374.115625) scale(0.1 -0.1)">
       <use xlink:href="#DejaVuSans-30"/>
       <use xlink:href="#DejaVuSans-37" x="63.623047"/>
       <use xlink:href="#DejaVuSans-2d" x="127.246094"/>
       <use xlink:href="#DejaVuSans-31" x="163.330078"/>
       <use xlink:href="#DejaVuSans-37" x="226.953125"/>
       <use xlink:href="#DejaVuSans-20" x="290.576172"/>
       <use xlink:href="#DejaVuSans-32" x="322.363281"/>
       <use xlink:href="#DejaVuSans-31" x="385.986328"/>
      </g>
     </g>
    </g>
    <g id="xtick_6">
     <g id="line2d_6">
      <g>
       <use xlink:href="#m5241058cae" x="747.174563" y="359.517187" style="stroke: #000000; stroke-width: 0.8"/>
      </g>
     </g>
     <g id="text_6">
      <!-- 07-18 00 -->
      <g transform="translate(724.694094 374.115625) scale(0.1 -0.1)">
       <use xlink:href="#DejaVuSans-30"/>
       <use xlink:href="#DejaVuSans-37" x="63.623047"/>
       <use xlink:href="#DejaVuSans-2d" x="127.246094"/>
       <use xlink:href="#DejaVuSans-31" x="163.330078"/>
       <use xlink:href="#DejaVuSans-38" x="226.953125"/>
       <use xlink:href="#DejaVuSans-20" x="290.576172"/>
       <use xlink:href="#DejaVuSans-30" x="322.363281"/>
       <use xlink:href="#DejaVuSans-30" x="385.986328"/>
      </g>
     </g>
    </g>
    <g id="xtick_7">
     <g id="line2d_7">
      <g>
       <use xlink:href="#m5241058cae" x="875.783444" y="359.517187" style="stroke: #000000; stroke-width: 0.8"/>
      </g>
     </g>
     <g id="text_7">
      <!-- 07-18 03 -->
      <g transform="translate(853.302976 374.115625) scale(0.1 -0.1)">
       <defs>
        <path id="DejaVuSans-33" d="M 2597 2516 
Q 3050 2419 3304 2112 
Q 3559 1806 3559 1356 
Q 3559 666 3084 287 
Q 2609 -91 1734 -91 
Q 1441 -91 1130 -33 
Q 819 25 488 141 
L 488 750 
Q 750 597 1062 519 
Q 1375 441 1716 441 
Q 2309 441 2620 675 
Q 2931 909 2931 1356 
Q 2931 1769 2642 2001 
Q 2353 2234 1838 2234 
L 1294 2234 
L 1294 2753 
L 1863 2753 
Q 2328 2753 2575 2939 
Q 2822 3125 2822 3475 
Q 2822 3834 2567 4026 
Q 2313 4219 1838 4219 
Q 1578 4219 1281 4162 
Q 984 4106 628 3988 
L 628 4550 
Q 988 4650 1302 4700 
Q 1616 4750 1894 4750 
Q 2613 4750 3031 4423 
Q 3450 4097 3450 3541 
Q 3450 3153 3228 2886 
Q 3006 2619 2597 2516 
z
" transform="scale(0.015625)"/>
       </defs>
       <use xlink:href="#DejaVuSans-30"/>
       <use xlink:href="#DejaVuSans-37" x="63.623047"/>
       <use xlink:href="#DejaVuSans-2d" x="127.246094"/>
       <use xlink:href="#DejaVuSans-31" x="163.330078"/>
       <use xlink:href="#DejaVuSans-38" x="226.953125"/>
       <use xlink:href="#DejaVuSans-20" x="290.576172"/>
       <use xlink:href="#DejaVuSans-30" x="322.363281"/>
       <use xlink:href="#DejaVuSans-33" x="385.986328"/>
      </g>
     </g>
    </g>
    <g id="xtick_8">
     <g id="line2d_8">
      <g>
       <use xlink:href="#m5241058cae" x="1004.392326" y="359.517187" style="stroke: #000000; stroke-width: 0.8"/>
      </g>
     </g>
     <g id="text_8">
      <!-- 07-18 06 -->
      <g transform="translate(981.911858 374.115625) scale(0.1 -0.1)">
       <defs>
        <path id="DejaVuSans-36" d="M 2113 2584 
Q 1688 2584 1439 2293 
Q 1191 2003 1191 1497 
Q 1191 994 1439 701 
Q 1688 409 2113 409 
Q 2538 409 2786 701 
Q 3034 994 3034 1497 
Q 3034 2003 2786 2293 
Q 2538 2584 2113 2584 
z
M 3366 4563 
L 3366 3988 
Q 3128 4100 2886 4159 
Q 2644 4219 2406 4219 
Q 1781 4219 1451 3797 
Q 1122 3375 1075 2522 
Q 1259 2794 1537 2939 
Q 1816 3084 2150 3084 
Q 2853 3084 3261 2657 
Q 3669 2231 3669 1497 
Q 3669 778 3244 343 
Q 2819 -91 2113 -91 
Q 1303 -91 875 529 
Q 447 1150 447 2328 
Q 447 3434 972 4092 
Q 1497 4750 2381 4750 
Q 2619 4750 2861 4703 
Q 3103 4656 3366 4563 
z
" transform="scale(0.015625)"/>
       </defs>
       <use xlink:href="#DejaVuSans-30"/>
       <use xlink:href="#DejaVuSans-37" x="63.623047"/>
       <use xlink:href="#DejaVuSans-2d" x="127.246094"/>
       <use xlink:href="#DejaVuSans-31" x="163.330078"/>
       <use xlink:href="#DejaVuSans-38" x="226.953125"/>
       <use xlink:href="#DejaVuSans-20" x="290.576172"/>
       <use xlink:href="#DejaVuSans-30" x="322.363281"/>
       <use xlink:href="#DejaVuSans-36" x="385.986328"/>
      </g>
     </g>
    </g>
    <g id="xtick_9">
     <g id="line2d_9">
      <g>
       <use xlink:href="#m5241058cae" x="1133.001208" y="359.517187" style="stroke: #000000; stroke-width: 0.8"/>
      </g>
     </g>
     <g id="text_9">
      <!-- 07-18 09 -->
      <g transform="translate(1110.520739 374.115625) scale(0.1 -0.1)">
       <use xlink:href="#DejaVuSans-30"/>
       <use xlink:href="#DejaVuSans-37" x="63.623047"/>
       <use xlink:href="#DejaVuSans-2d" x="127.246094"/>
       <use xlink:href="#DejaVuSans-31" x="163.330078"/>
       <use xlink:href="#DejaVuSans-38" x="226.953125"/>
       <use xlink:href="#DejaVuSans-20" x="290.576172"/>
       <use xlink:href="#DejaVuSans-30" x="322.363281"/>
       <use xlink:href="#DejaVuSans-39" x="385.986328"/>
      </g>
     </g>
    </g>
    <g id="text_10">
     <!-- Time -->
     <g transform="translate(592.554688 389.313437) scale(0.12 -0.12)">
      <defs>
       <path id="DejaVuSans-54" d="M -19 4666 
L 3928 4666 
L 3928 4134 
L 2272 4134 
L 2272 0 
L 1638 0 
L 1638 4134 
L -19 4134 
L -19 4666 
z
" transform="scale(0.015625)"/>
       <path id="DejaVuSans-69" d="M 603 3500 
L 1178 3500 
L 1178 0 
L 603 0 
L 603 3500 
z
M 603 4863 
L 1178 4863 
L 1178 4134 
L 603 4134 
L 603 4863 
z
" transform="scale(0.015625)"/>
       <path id="DejaVuSans-6d" d="M 3328 2828 
Q 3544 3216 3844 3400 
Q 4144 3584 4550 3584 
Q 5097 3584 5394 3201 
Q 5691 2819 5691 2113 
L 5691 0 
L 5113 0 
L 5113 2094 
Q 5113 2597 4934 2840 
Q 4756 3084 4391 3084 
Q 3944 3084 3684 2787 
Q 3425 2491 3425 1978 
L 3425 0 
L 2847 0 
L 2847 2094 
Q 2847 2600 2669 2842 
Q 2491 3084 2119 3084 
Q 1678 3084 1418 2786 
Q 1159 2488 1159 1978 
L 1159 0 
L 581 0 
L 581 3500 
L 1159 3500 
L 1159 2956 
Q 1356 3278 1631 3431 
Q 1906 3584 2284 3584 
Q 2666 3584 2933 3390 
Q 3200 3197 3328 2828 
z
" transform="scale(0.015625)"/>
       <path id="DejaVuSans-65" d="M 3597 1894 
L 3597 1613 
L 953 1613 
Q 991 1019 1311 708 
Q 1631 397 2203 397 
Q 2534 397 2845 478 
Q 3156 559 3463 722 
L 3463 178 
Q 3153 47 2828 -22 
Q 2503 -91 2169 -91 
Q 1331 -91 842 396 
Q 353 884 353 1716 
Q 353 2575 817 3079 
Q 1281 3584 2069 3584 
Q 2775 3584 3186 3129 
Q 3597 2675 3597 1894 
z
M 3022 2063 
Q 3016 2534 2758 2815 
Q 2500 3097 2075 3097 
Q 1594 3097 1305 2825 
Q 1016 2553 972 2059 
L 3022 2063 
z
" transform="scale(0.015625)"/>
      </defs>
      <use xlink:href="#DejaVuSans-54"/>
      <use xlink:href="#DejaVuSans-69" x="57.958984"/>
      <use xlink:href="#DejaVuSans-6d" x="85.742188"/>
      <use xlink:href="#DejaVuSans-65" x="183.154297"/>
     </g>
    </g>
   </g>
   <g id="matplotlib.axis_2">
    <g id="ytick_1">
     <g id="line2d_10">
      <defs>
       <path id="m782420ea80" d="M 0 0 
L -3.5 0 
" style="stroke: #000000; stroke-width: 0.8"/>
      </defs>
      <g>
       <use xlink:href="#m782420ea80" x="49.235" y="344.397187" style="stroke: #000000; stroke-width: 0.8"/>
      </g>
     </g>
     <g id="text_11">
      <!-- 0 -->
      <g transform="translate(35.8725 348.196406) scale(0.1 -0.1)">
       <use xlink:href="#DejaVuSans-30"/>
      </g>
     </g>
    </g>
    <g id="ytick_2">
     <g id="line2d_11">
      <g>
       <use xlink:href="#m782420ea80" x="49.235" y="275.980898" style="stroke: #000000; stroke-width: 0.8"/>
      </g>
     </g>
     <g id="text_12">
      <!-- 50 -->
      <g transform="translate(29.51 279.780117) scale(0.1 -0.1)">
       <use xlink:href="#DejaVuSans-35"/>
       <use xlink:href="#DejaVuSans-30" x="63.623047"/>
      </g>
     </g>
    </g>
    <g id="ytick_3">
     <g id="line2d_12">
      <g>
       <use xlink:href="#m782420ea80" x="49.235" y="207.564608" style="stroke: #000000; stroke-width: 0.8"/>
      </g>
     </g>
     <g id="text_13">
      <!-- 100 -->
      <g transform="translate(23.1475 211.363827) scale(0.1 -0.1)">
       <use xlink:href="#DejaVuSans-31"/>
       <use xlink:href="#DejaVuSans-30" x="63.623047"/>
       <use xlink:href="#DejaVuSans-30" x="127.246094"/>
      </g>
     </g>
    </g>
    <g id="ytick_4">
     <g id="line2d_13">
      <g>
       <use xlink:href="#m782420ea80" x="49.235" y="139.148319" style="stroke: #000000; stroke-width: 0.8"/>
      </g>
     </g>
     <g id="text_14">
      <!-- 150 -->
      <g transform="translate(23.1475 142.947537) scale(0.1 -0.1)">
       <use xlink:href="#DejaVuSans-31"/>
       <use xlink:href="#DejaVuSans-35" x="63.623047"/>
       <use xlink:href="#DejaVuSans-30" x="127.246094"/>
      </g>
     </g>
    </g>
    <g id="ytick_5">
     <g id="line2d_14">
      <g>
       <use xlink:href="#m782420ea80" x="49.235" y="70.732029" style="stroke: #000000; stroke-width: 0.8"/>
      </g>
     </g>
     <g id="text_15">
      <!-- 200 -->
      <g transform="translate(23.1475 74.531248) scale(0.1 -0.1)">
       <use xlink:href="#DejaVuSans-32"/>
       <use xlink:href="#DejaVuSans-30" x="63.623047"/>
       <use xlink:href="#DejaVuSans-30" x="127.246094"/>
      </g>
     </g>
    </g>
    <g id="text_16">
     <!-- Pellet_Count -->
     <g transform="translate(16.318125 230.485312) rotate(-90) scale(0.12 -0.12)">
      <defs>
       <path id="DejaVuSans-50" d="M 1259 4147 
L 1259 2394 
L 2053 2394 
Q 2494 2394 2734 2622 
Q 2975 2850 2975 3272 
Q 2975 3691 2734 3919 
Q 2494 4147 2053 4147 
L 1259 4147 
z
M 628 4666 
L 2053 4666 
Q 2838 4666 3239 4311 
Q 3641 3956 3641 3272 
Q 3641 2581 3239 2228 
Q 2838 1875 2053 1875 
L 1259 1875 
L 1259 0 
L 628 0 
L 628 4666 
z
" transform="scale(0.015625)"/>
       <path id="DejaVuSans-6c" d="M 603 4863 
L 1178 4863 
L 1178 0 
L 603 0 
L 603 4863 
z
" transform="scale(0.015625)"/>
       <path id="DejaVuSans-74" d="M 1172 4494 
L 1172 3500 
L 2356 3500 
L 2356 3053 
L 1172 3053 
L 1172 1153 
Q 1172 725 1289 603 
Q 1406 481 1766 481 
L 2356 481 
L 2356 0 
L 1766 0 
Q 1100 0 847 248 
Q 594 497 594 1153 
L 594 3053 
L 172 3053 
L 172 3500 
L 594 3500 
L 594 4494 
L 1172 4494 
z
" transform="scale(0.015625)"/>
       <path id="DejaVuSans-5f" d="M 3263 -1063 
L 3263 -1509 
L -63 -1509 
L -63 -1063 
L 3263 -1063 
z
" transform="scale(0.015625)"/>
       <path id="DejaVuSans-43" d="M 4122 4306 
L 4122 3641 
Q 3803 3938 3442 4084 
Q 3081 4231 2675 4231 
Q 1875 4231 1450 3742 
Q 1025 3253 1025 2328 
Q 1025 1406 1450 917 
Q 1875 428 2675 428 
Q 3081 428 3442 575 
Q 3803 722 4122 1019 
L 4122 359 
Q 3791 134 3420 21 
Q 3050 -91 2638 -91 
Q 1578 -91 968 557 
Q 359 1206 359 2328 
Q 359 3453 968 4101 
Q 1578 4750 2638 4750 
Q 3056 4750 3426 4639 
Q 3797 4528 4122 4306 
z
" transform="scale(0.015625)"/>
       <path id="DejaVuSans-6f" d="M 1959 3097 
Q 1497 3097 1228 2736 
Q 959 2375 959 1747 
Q 959 1119 1226 758 
Q 1494 397 1959 397 
Q 2419 397 2687 759 
Q 2956 1122 2956 1747 
Q 2956 2369 2687 2733 
Q 2419 3097 1959 3097 
z
M 1959 3584 
Q 2709 3584 3137 3096 
Q 3566 2609 3566 1747 
Q 3566 888 3137 398 
Q 2709 -91 1959 -91 
Q 1206 -91 779 398 
Q 353 888 353 1747 
Q 353 2609 779 3096 
Q 1206 3584 1959 3584 
z
" transform="scale(0.015625)"/>
       <path id="DejaVuSans-75" d="M 544 1381 
L 544 3500 
L 1119 3500 
L 1119 1403 
Q 1119 906 1312 657 
Q 1506 409 1894 409 
Q 2359 409 2629 706 
Q 2900 1003 2900 1516 
L 2900 3500 
L 3475 3500 
L 3475 0 
L 2900 0 
L 2900 538 
Q 2691 219 2414 64 
Q 2138 -91 1772 -91 
Q 1169 -91 856 284 
Q 544 659 544 1381 
z
M 1991 3584 
L 1991 3584 
z
" transform="scale(0.015625)"/>
       <path id="DejaVuSans-6e" d="M 3513 2113 
L 3513 0 
L 2938 0 
L 2938 2094 
Q 2938 2591 2744 2837 
Q 2550 3084 2163 3084 
Q 1697 3084 1428 2787 
Q 1159 2491 1159 1978 
L 1159 0 
L 581 0 
L 581 3500 
L 1159 3500 
L 1159 2956 
Q 1366 3272 1645 3428 
Q 1925 3584 2291 3584 
Q 2894 3584 3203 3211 
Q 3513 2838 3513 2113 
z
" transform="scale(0.015625)"/>
      </defs>
      <use xlink:href="#DejaVuSans-50"/>
      <use xlink:href="#DejaVuSans-65" x="56.677734"/>
      <use xlink:href="#DejaVuSans-6c" x="118.201172"/>
      <use xlink:href="#DejaVuSans-6c" x="145.984375"/>
      <use xlink:href="#DejaVuSans-65" x="173.767578"/>
      <use xlink:href="#DejaVuSans-74" x="235.291016"/>
      <use xlink:href="#DejaVuSans-5f" x="274.5"/>
      <use xlink:href="#DejaVuSans-43" x="324.5"/>
      <use xlink:href="#DejaVuSans-6f" x="394.324219"/>
      <use xlink:href="#DejaVuSans-75" x="455.505859"/>
      <use xlink:href="#DejaVuSans-6e" x="518.884766"/>
      <use xlink:href="#DejaVuSans-74" x="582.263672"/>
     </g>
    </g>
   </g>
   <g id="line2d_15">
    <path d="M 99.962273 344.397187 
L 103.201311 344.397187 
L 104.28496 343.028862 
L 106.464166 343.028862 
L 106.64279 341.660536 
L 112.442098 341.660536 
L 112.573088 340.29221 
L 115.597778 340.29221 
L 115.609687 338.923884 
L 115.955025 338.923884 
L 116.109832 337.555559 
L 117.348288 337.555559 
L 117.360196 336.187233 
L 121.849599 336.187233 
L 121.885324 334.818907 
L 122.18303 334.818907 
L 122.278295 333.450581 
L 123.469118 333.450581 
L 123.814457 332.082255 
L 126.374726 332.082255 
L 126.398543 330.71393 
L 139.878659 330.71393 
L 139.985833 329.345604 
L 146.821157 329.345604 
L 147.07123 327.977278 
L 148.797923 327.977278 
L 148.917005 326.608952 
L 149.286161 326.608952 
L 149.405243 325.240626 
L 149.667224 325.240626 
L 149.786306 323.872301 
L 150.381718 323.872301 
L 150.465075 322.503975 
L 151.048579 322.503975 
L 151.072395 321.135649 
L 152.465658 321.135649 
L 152.525199 319.767323 
L 155.978586 319.767323 
L 155.990494 318.398997 
L 159.241441 318.398997 
L 159.277165 317.030672 
L 159.586779 317.030672 
L 159.610596 315.662346 
L 159.872577 315.662346 
L 159.896393 314.29402 
L 160.420355 314.29402 
L 160.444172 312.925694 
L 163.814201 312.925694 
L 163.897559 311.557368 
L 169.446794 311.557368 
L 169.518243 310.189043 
L 172.138054 310.189043 
L 172.16187 308.820717 
L 174.210086 308.820717 
L 174.233902 307.452391 
L 175.365184 307.452391 
L 175.389 306.084065 
L 175.579532 306.084065 
L 175.639073 304.71574 
L 175.817697 304.71574 
L 175.841513 303.347414 
L 176.972795 303.347414 
L 176.984703 301.979088 
L 178.937653 301.979088 
L 178.961469 300.610762 
L 179.22345 300.610762 
L 179.235359 299.242436 
L 179.854586 299.242436 
L 179.878403 297.874111 
L 180.140384 297.874111 
L 180.1642 296.505785 
L 180.36664 296.505785 
L 180.390457 295.137459 
L 184.629787 295.137459 
L 184.641695 293.769133 
L 184.975125 293.769133 
L 184.998942 292.400807 
L 192.358228 292.400807 
L 192.382044 291.032482 
L 192.620209 291.032482 
L 192.632117 289.664156 
L 192.953639 289.664156 
L 192.977456 288.29583 
L 197.228694 288.29583 
L 197.25251 286.927504 
L 197.443042 286.927504 
L 197.466858 285.559178 
L 197.728839 285.559178 
L 197.752656 284.190853 
L 202.885103 284.190853 
L 202.908919 282.822527 
L 207.779385 282.822527 
L 207.803202 281.454201 
L 209.910959 281.454201 
L 209.934775 280.085875 
L 210.387288 280.085875 
L 210.423012 278.717549 
L 213.876399 278.717549 
L 213.900215 277.349224 
L 214.328912 277.349224 
L 214.34082 275.980898 
L 214.721883 275.980898 
L 214.733792 274.612572 
L 215.162488 274.612572 
L 215.186304 273.244246 
L 215.436377 273.244246 
L 215.448285 271.875921 
L 220.068679 271.875921 
L 220.080587 270.507595 
L 220.306843 270.507595 
L 220.354476 269.139269 
L 220.66409 269.139269 
L 220.723631 267.770943 
L 225.355933 267.770943 
L 225.379749 266.402617 
L 225.653638 266.402617 
L 225.665547 265.034292 
L 238.990856 265.034292 
L 239.014672 263.665966 
L 239.264745 263.665966 
L 239.30047 262.29764 
L 239.574359 262.29764 
L 239.598175 260.929314 
L 255.531387 260.929314 
L 255.543295 259.560988 
L 258.746609 259.560988 
L 258.794242 258.192663 
L 261.592676 258.192663 
L 261.604584 256.824337 
L 262.604875 256.824337 
L 262.735866 255.456011 
L 271.178801 255.456011 
L 271.202617 254.087685 
L 276.204074 254.087685 
L 276.215982 252.719359 
L 276.406514 252.719359 
L 276.43033 251.351034 
L 284.265945 251.351034 
L 284.289762 249.982708 
L 284.754183 249.982708 
L 284.825632 248.614382 
L 301.437613 248.614382 
L 301.449521 247.246056 
L 301.747227 247.246056 
L 301.759135 245.87773 
L 301.902034 245.87773 
L 301.913942 244.509405 
L 302.056841 244.509405 
L 302.068749 243.141079 
L 302.283097 243.141079 
L 302.295005 241.772753 
L 302.449812 241.772753 
L 302.461721 240.404427 
L 302.628436 240.404427 
L 302.640344 239.036102 
L 302.818967 239.036102 
L 302.830876 237.667776 
L 321.979309 237.667776 
L 321.991217 236.29945 
L 330.481785 236.29945 
L 330.493693 234.931124 
L 330.779491 234.931124 
L 330.791399 233.562798 
L 330.910482 233.562798 
L 331.065289 232.194473 
L 336.936046 232.194473 
L 336.947954 230.826147 
L 344.664487 230.826147 
L 344.676395 229.457821 
L 352.7859 229.457821 
L 352.797808 228.089495 
L 353.774283 228.089495 
L 353.786191 226.721169 
L 355.143729 226.721169 
L 355.155637 225.352844 
L 355.40571 225.352844 
L 355.417618 223.984518 
L 389.868127 223.984518 
L 389.891944 222.616192 
L 390.189649 222.616192 
L 390.201558 221.247866 
L 390.32064 221.247866 
L 390.344456 219.87954 
L 391.1304 219.87954 
L 391.154216 218.511215 
L 391.428105 218.511215 
L 391.440014 217.142889 
L 394.107457 217.142889 
L 394.119365 215.774563 
L 395.798426 215.774563 
L 395.822242 214.406237 
L 398.584952 214.406237 
L 398.59686 213.037911 
L 403.276794 213.037911 
L 403.288702 211.669586 
L 403.538775 211.669586 
L 403.550683 210.30126 
L 403.717399 210.30126 
L 403.729307 208.932934 
L 414.410989 208.932934 
L 414.422897 207.564608 
L 414.863502 207.564608 
L 414.87541 206.196283 
L 415.375556 206.196283 
L 415.399372 204.827957 
L 415.601812 204.827957 
L 415.61372 203.459631 
L 415.970967 203.459631 
L 415.982875 202.091305 
L 416.209132 202.091305 
L 416.22104 200.722979 
L 416.471113 200.722979 
L 416.578287 199.354654 
L 416.947442 199.354654 
L 416.95935 197.986328 
L 417.257056 197.986328 
L 417.268964 196.618002 
L 417.471404 196.618002 
L 417.483312 195.249676 
L 440.621003 195.249676 
L 440.656727 193.88135 
L 441.264047 193.88135 
L 441.287864 192.513025 
L 448.599517 192.513025 
L 448.623333 191.144699 
L 448.873406 191.144699 
L 448.921039 189.776373 
L 449.373552 189.776373 
L 449.38546 188.408047 
L 449.635533 188.408047 
L 449.647441 187.039721 
L 462.937025 187.039721 
L 462.948934 185.671396 
L 466.521403 185.671396 
L 466.545219 184.30307 
L 468.510077 184.30307 
L 468.521985 182.934744 
L 485.062516 182.934744 
L 485.074425 181.566418 
L 485.312589 181.566418 
L 485.336406 180.198092 
L 485.538846 180.198092 
L 485.550754 178.829767 
L 485.705561 178.829767 
L 485.717469 177.461441 
L 486.58677 177.461441 
L 486.598678 176.093115 
L 486.813026 176.093115 
L 486.824934 174.724789 
L 487.027374 174.724789 
L 487.039282 173.356464 
L 489.099406 173.356464 
L 489.111314 171.988138 
L 492.671875 171.988138 
L 492.683783 170.619812 
L 502.32945 170.619812 
L 502.341358 169.251486 
L 519.322493 169.251486 
L 519.34631 167.88316 
L 520.382326 167.88316 
L 520.394234 166.514835 
L 521.049187 166.514835 
L 521.061095 165.146509 
L 522.180469 165.146509 
L 522.192377 163.778183 
L 555.297256 163.778183 
L 555.321072 162.409857 
L 556.023658 162.409857 
L 556.047474 161.041531 
L 556.273731 161.041531 
L 556.285639 159.673206 
L 591.510183 159.673206 
L 591.533999 158.30488 
L 592.212768 158.30488 
L 592.224676 156.936554 
L 592.474749 156.936554 
L 592.486657 155.568228 
L 592.748638 155.568228 
L 593.284509 154.199902 
L 593.689389 154.199902 
L 593.701297 152.831577 
L 625.853517 152.831577 
L 625.865426 151.463251 
L 626.115498 151.463251 
L 626.127407 150.094925 
L 626.472745 150.094925 
L 626.484653 148.726599 
L 626.806176 148.726599 
L 626.818084 147.358273 
L 627.032432 147.358273 
L 627.056249 145.989948 
L 627.234872 145.989948 
L 627.258688 144.621622 
L 627.615935 144.621622 
L 627.627844 143.253296 
L 627.8541 143.253296 
L 627.949366 141.88497 
L 681.726932 141.88497 
L 681.786473 140.516645 
L 682.084178 140.516645 
L 682.107995 139.148319 
L 682.608141 139.148319 
L 682.620049 137.779993 
L 682.834397 137.779993 
L 682.858213 136.411667 
L 683.024929 136.411667 
L 683.048745 135.043341 
L 683.227368 135.043341 
L 683.239277 133.675016 
L 683.4179 133.675016 
L 683.465533 132.30669 
L 693.111199 132.30669 
L 693.135016 130.938364 
L 724.346486 130.938364 
L 724.358394 129.570038 
L 724.834723 129.570038 
L 724.846632 128.201712 
L 765.013091 128.201712 
L 765.036907 126.833387 
L 765.417971 126.833387 
L 765.429879 125.465061 
L 765.751401 125.465061 
L 765.775217 124.096735 
L 765.989566 124.096735 
L 766.001474 122.728409 
L 766.596885 122.728409 
L 766.620702 121.360083 
L 852.46713 121.360083 
L 852.479039 119.991758 
L 852.848194 119.991758 
L 852.895827 118.623432 
L 853.205441 118.623432 
L 853.217349 117.255106 
L 853.395972 117.255106 
L 853.407881 115.88678 
L 853.669862 115.88678 
L 853.669862 115.88678 
L 853.729403 114.518454 
L 854.039017 114.518454 
L 854.062833 113.150129 
L 854.300998 113.150129 
L 854.324814 111.781803 
L 854.539162 111.781803 
L 854.551071 110.413477 
L 854.836868 110.413477 
L 854.848776 109.045151 
L 855.075033 109.045151 
L 855.086941 107.676826 
L 866.054421 107.676826 
L 866.066329 106.3085 
L 867.590582 106.3085 
L 867.614399 104.940174 
L 879.010575 104.940174 
L 879.034391 103.571848 
L 879.284464 103.571848 
L 879.30828 102.203522 
L 884.202563 102.203522 
L 884.214471 100.835197 
L 922.427981 100.835197 
L 922.451797 99.466871 
L 922.916218 99.466871 
L 922.940034 98.098545 
L 923.130566 98.098545 
L 923.142474 96.730219 
L 923.368731 96.730219 
L 923.380639 95.361893 
L 923.606895 95.361893 
L 923.618804 93.993568 
L 923.964142 93.993568 
L 923.97605 92.625242 
L 924.297573 92.625242 
L 924.309481 91.256916 
L 958.438467 91.256916 
L 958.450376 89.88859 
L 959.724556 89.88859 
L 959.736465 88.520264 
L 959.974629 88.520264 
L 959.986537 87.151939 
L 960.177069 87.151939 
L 960.188977 85.783613 
L 987.161118 85.783613 
L 987.196842 84.415287 
L 987.446915 84.415287 
L 987.458824 83.046961 
L 987.81607 83.046961 
L 987.827979 81.678635 
L 988.209042 81.678635 
L 988.22095 80.31031 
L 1009.441416 80.31031 
L 1009.453324 78.941984 
L 1009.691489 78.941984 
L 1009.762938 77.573658 
L 1010.227359 77.573658 
L 1010.239267 76.205332 
L 1010.715596 76.205332 
L 1010.727505 74.837007 
L 1010.906128 74.837007 
L 1010.918036 73.468681 
L 1011.156201 73.468681 
L 1011.180017 72.100355 
L 1034.3058 72.100355 
L 1034.341524 70.732029 
L 1050.441451 70.732029 
L 1050.453359 69.363703 
L 1050.691524 69.363703 
L 1050.71534 67.995378 
L 1050.941597 67.995378 
L 1050.965413 66.627052 
L 1051.191669 66.627052 
L 1051.203578 65.258726 
L 1051.477467 65.258726 
L 1051.489375 63.8904 
L 1059.884677 63.8904 
L 1059.920402 62.522074 
L 1060.361006 62.522074 
L 1060.372915 61.153749 
L 1075.555908 61.153749 
L 1075.567816 59.785423 
L 1075.734531 59.785423 
L 1075.758347 58.417097 
L 1076.00842 58.417097 
L 1076.044145 57.048771 
L 1076.508566 57.048771 
L 1076.520474 55.680445 
L 1080.212025 55.680445 
L 1080.223934 54.31212 
L 1091.905907 54.31212 
L 1091.917815 52.943794 
L 1111.447312 52.943794 
L 1111.483037 51.575468 
L 1111.721201 51.575468 
L 1111.73311 50.207142 
L 1111.995091 50.207142 
L 1112.006999 48.838816 
L 1112.209439 48.838816 
L 1112.221347 47.470491 
L 1112.423787 47.470491 
L 1112.435695 46.102165 
L 1112.959657 46.102165 
L 1112.971566 44.733839 
L 1114.257654 44.733839 
L 1114.281471 43.365513 
L 1114.495819 43.365513 
L 1114.507727 41.997187 
L 1114.507727 41.997187 
" clip-path="url(#p8aff6f3468)" style="fill: none; stroke: #0000ff; stroke-width: 1.5; stroke-linecap: square"/>
   </g>
   <g id="patch_67">
    <path d="M 49.235 359.517187 
L 49.235 26.877187 
" style="fill: none; stroke: #000000; stroke-width: 0.8; stroke-linejoin: miter; stroke-linecap: square"/>
   </g>
   <g id="patch_68">
    <path d="M 1165.235 359.517187 
L 1165.235 26.877187 
" style="fill: none; stroke: #000000; stroke-width: 0.8; stroke-linejoin: miter; stroke-linecap: square"/>
   </g>
   <g id="patch_69">
    <path d="M 49.235 359.517187 
L 1165.235 359.517187 
" style="fill: none; stroke: #000000; stroke-width: 0.8; stroke-linejoin: miter; stroke-linecap: square"/>
   </g>
   <g id="patch_70">
    <path d="M 49.235 26.877187 
L 1165.235 26.877187 
" style="fill: none; stroke: #000000; stroke-width: 0.8; stroke-linejoin: miter; stroke-linecap: square"/>
   </g>
   <g id="text_17">
    <!-- Pellet Count and Cumulative Sum Over Time of Group ctrl Mouse M44 -->
    <g transform="translate(293.018281 20.877187) scale(0.18 -0.18)">
     <defs>
      <path id="DejaVuSans-61" d="M 2194 1759 
Q 1497 1759 1228 1600 
Q 959 1441 959 1056 
Q 959 750 1161 570 
Q 1363 391 1709 391 
Q 2188 391 2477 730 
Q 2766 1069 2766 1631 
L 2766 1759 
L 2194 1759 
z
M 3341 1997 
L 3341 0 
L 2766 0 
L 2766 531 
Q 2569 213 2275 61 
Q 1981 -91 1556 -91 
Q 1019 -91 701 211 
Q 384 513 384 1019 
Q 384 1609 779 1909 
Q 1175 2209 1959 2209 
L 2766 2209 
L 2766 2266 
Q 2766 2663 2505 2880 
Q 2244 3097 1772 3097 
Q 1472 3097 1187 3025 
Q 903 2953 641 2809 
L 641 3341 
Q 956 3463 1253 3523 
Q 1550 3584 1831 3584 
Q 2591 3584 2966 3190 
Q 3341 2797 3341 1997 
z
" transform="scale(0.015625)"/>
      <path id="DejaVuSans-64" d="M 2906 2969 
L 2906 4863 
L 3481 4863 
L 3481 0 
L 2906 0 
L 2906 525 
Q 2725 213 2448 61 
Q 2172 -91 1784 -91 
Q 1150 -91 751 415 
Q 353 922 353 1747 
Q 353 2572 751 3078 
Q 1150 3584 1784 3584 
Q 2172 3584 2448 3432 
Q 2725 3281 2906 2969 
z
M 947 1747 
Q 947 1113 1208 752 
Q 1469 391 1925 391 
Q 2381 391 2643 752 
Q 2906 1113 2906 1747 
Q 2906 2381 2643 2742 
Q 2381 3103 1925 3103 
Q 1469 3103 1208 2742 
Q 947 2381 947 1747 
z
" transform="scale(0.015625)"/>
      <path id="DejaVuSans-76" d="M 191 3500 
L 800 3500 
L 1894 563 
L 2988 3500 
L 3597 3500 
L 2284 0 
L 1503 0 
L 191 3500 
z
" transform="scale(0.015625)"/>
      <path id="DejaVuSans-53" d="M 3425 4513 
L 3425 3897 
Q 3066 4069 2747 4153 
Q 2428 4238 2131 4238 
Q 1616 4238 1336 4038 
Q 1056 3838 1056 3469 
Q 1056 3159 1242 3001 
Q 1428 2844 1947 2747 
L 2328 2669 
Q 3034 2534 3370 2195 
Q 3706 1856 3706 1288 
Q 3706 609 3251 259 
Q 2797 -91 1919 -91 
Q 1588 -91 1214 -16 
Q 841 59 441 206 
L 441 856 
Q 825 641 1194 531 
Q 1563 422 1919 422 
Q 2459 422 2753 634 
Q 3047 847 3047 1241 
Q 3047 1584 2836 1778 
Q 2625 1972 2144 2069 
L 1759 2144 
Q 1053 2284 737 2584 
Q 422 2884 422 3419 
Q 422 4038 858 4394 
Q 1294 4750 2059 4750 
Q 2388 4750 2728 4690 
Q 3069 4631 3425 4513 
z
" transform="scale(0.015625)"/>
      <path id="DejaVuSans-4f" d="M 2522 4238 
Q 1834 4238 1429 3725 
Q 1025 3213 1025 2328 
Q 1025 1447 1429 934 
Q 1834 422 2522 422 
Q 3209 422 3611 934 
Q 4013 1447 4013 2328 
Q 4013 3213 3611 3725 
Q 3209 4238 2522 4238 
z
M 2522 4750 
Q 3503 4750 4090 4092 
Q 4678 3434 4678 2328 
Q 4678 1225 4090 567 
Q 3503 -91 2522 -91 
Q 1538 -91 948 565 
Q 359 1222 359 2328 
Q 359 3434 948 4092 
Q 1538 4750 2522 4750 
z
" transform="scale(0.015625)"/>
      <path id="DejaVuSans-72" d="M 2631 2963 
Q 2534 3019 2420 3045 
Q 2306 3072 2169 3072 
Q 1681 3072 1420 2755 
Q 1159 2438 1159 1844 
L 1159 0 
L 581 0 
L 581 3500 
L 1159 3500 
L 1159 2956 
Q 1341 3275 1631 3429 
Q 1922 3584 2338 3584 
Q 2397 3584 2469 3576 
Q 2541 3569 2628 3553 
L 2631 2963 
z
" transform="scale(0.015625)"/>
      <path id="DejaVuSans-66" d="M 2375 4863 
L 2375 4384 
L 1825 4384 
Q 1516 4384 1395 4259 
Q 1275 4134 1275 3809 
L 1275 3500 
L 2222 3500 
L 2222 3053 
L 1275 3053 
L 1275 0 
L 697 0 
L 697 3053 
L 147 3053 
L 147 3500 
L 697 3500 
L 697 3744 
Q 697 4328 969 4595 
Q 1241 4863 1831 4863 
L 2375 4863 
z
" transform="scale(0.015625)"/>
      <path id="DejaVuSans-47" d="M 3809 666 
L 3809 1919 
L 2778 1919 
L 2778 2438 
L 4434 2438 
L 4434 434 
Q 4069 175 3628 42 
Q 3188 -91 2688 -91 
Q 1594 -91 976 548 
Q 359 1188 359 2328 
Q 359 3472 976 4111 
Q 1594 4750 2688 4750 
Q 3144 4750 3555 4637 
Q 3966 4525 4313 4306 
L 4313 3634 
Q 3963 3931 3569 4081 
Q 3175 4231 2741 4231 
Q 1884 4231 1454 3753 
Q 1025 3275 1025 2328 
Q 1025 1384 1454 906 
Q 1884 428 2741 428 
Q 3075 428 3337 486 
Q 3600 544 3809 666 
z
" transform="scale(0.015625)"/>
      <path id="DejaVuSans-70" d="M 1159 525 
L 1159 -1331 
L 581 -1331 
L 581 3500 
L 1159 3500 
L 1159 2969 
Q 1341 3281 1617 3432 
Q 1894 3584 2278 3584 
Q 2916 3584 3314 3078 
Q 3713 2572 3713 1747 
Q 3713 922 3314 415 
Q 2916 -91 2278 -91 
Q 1894 -91 1617 61 
Q 1341 213 1159 525 
z
M 3116 1747 
Q 3116 2381 2855 2742 
Q 2594 3103 2138 3103 
Q 1681 3103 1420 2742 
Q 1159 2381 1159 1747 
Q 1159 1113 1420 752 
Q 1681 391 2138 391 
Q 2594 391 2855 752 
Q 3116 1113 3116 1747 
z
" transform="scale(0.015625)"/>
      <path id="DejaVuSans-63" d="M 3122 3366 
L 3122 2828 
Q 2878 2963 2633 3030 
Q 2388 3097 2138 3097 
Q 1578 3097 1268 2742 
Q 959 2388 959 1747 
Q 959 1106 1268 751 
Q 1578 397 2138 397 
Q 2388 397 2633 464 
Q 2878 531 3122 666 
L 3122 134 
Q 2881 22 2623 -34 
Q 2366 -91 2075 -91 
Q 1284 -91 818 406 
Q 353 903 353 1747 
Q 353 2603 823 3093 
Q 1294 3584 2113 3584 
Q 2378 3584 2631 3529 
Q 2884 3475 3122 3366 
z
" transform="scale(0.015625)"/>
      <path id="DejaVuSans-4d" d="M 628 4666 
L 1569 4666 
L 2759 1491 
L 3956 4666 
L 4897 4666 
L 4897 0 
L 4281 0 
L 4281 4097 
L 3078 897 
L 2444 897 
L 1241 4097 
L 1241 0 
L 628 0 
L 628 4666 
z
" transform="scale(0.015625)"/>
      <path id="DejaVuSans-73" d="M 2834 3397 
L 2834 2853 
Q 2591 2978 2328 3040 
Q 2066 3103 1784 3103 
Q 1356 3103 1142 2972 
Q 928 2841 928 2578 
Q 928 2378 1081 2264 
Q 1234 2150 1697 2047 
L 1894 2003 
Q 2506 1872 2764 1633 
Q 3022 1394 3022 966 
Q 3022 478 2636 193 
Q 2250 -91 1575 -91 
Q 1294 -91 989 -36 
Q 684 19 347 128 
L 347 722 
Q 666 556 975 473 
Q 1284 391 1588 391 
Q 1994 391 2212 530 
Q 2431 669 2431 922 
Q 2431 1156 2273 1281 
Q 2116 1406 1581 1522 
L 1381 1569 
Q 847 1681 609 1914 
Q 372 2147 372 2553 
Q 372 3047 722 3315 
Q 1072 3584 1716 3584 
Q 2034 3584 2315 3537 
Q 2597 3491 2834 3397 
z
" transform="scale(0.015625)"/>
      <path id="DejaVuSans-34" d="M 2419 4116 
L 825 1625 
L 2419 1625 
L 2419 4116 
z
M 2253 4666 
L 3047 4666 
L 3047 1625 
L 3713 1625 
L 3713 1100 
L 3047 1100 
L 3047 0 
L 2419 0 
L 2419 1100 
L 313 1100 
L 313 1709 
L 2253 4666 
z
" transform="scale(0.015625)"/>
     </defs>
     <use xlink:href="#DejaVuSans-50"/>
     <use xlink:href="#DejaVuSans-65" x="56.677734"/>
     <use xlink:href="#DejaVuSans-6c" x="118.201172"/>
     <use xlink:href="#DejaVuSans-6c" x="145.984375"/>
     <use xlink:href="#DejaVuSans-65" x="173.767578"/>
     <use xlink:href="#DejaVuSans-74" x="235.291016"/>
     <use xlink:href="#DejaVuSans-20" x="274.5"/>
     <use xlink:href="#DejaVuSans-43" x="306.287109"/>
     <use xlink:href="#DejaVuSans-6f" x="376.111328"/>
     <use xlink:href="#DejaVuSans-75" x="437.292969"/>
     <use xlink:href="#DejaVuSans-6e" x="500.671875"/>
     <use xlink:href="#DejaVuSans-74" x="564.050781"/>
     <use xlink:href="#DejaVuSans-20" x="603.259766"/>
     <use xlink:href="#DejaVuSans-61" x="635.046875"/>
     <use xlink:href="#DejaVuSans-6e" x="696.326172"/>
     <use xlink:href="#DejaVuSans-64" x="759.705078"/>
     <use xlink:href="#DejaVuSans-20" x="823.181641"/>
     <use xlink:href="#DejaVuSans-43" x="854.96875"/>
     <use xlink:href="#DejaVuSans-75" x="924.792969"/>
     <use xlink:href="#DejaVuSans-6d" x="988.171875"/>
     <use xlink:href="#DejaVuSans-75" x="1085.583984"/>
     <use xlink:href="#DejaVuSans-6c" x="1148.962891"/>
     <use xlink:href="#DejaVuSans-61" x="1176.746094"/>
     <use xlink:href="#DejaVuSans-74" x="1238.025391"/>
     <use xlink:href="#DejaVuSans-69" x="1277.234375"/>
     <use xlink:href="#DejaVuSans-76" x="1305.017578"/>
     <use xlink:href="#DejaVuSans-65" x="1364.197266"/>
     <use xlink:href="#DejaVuSans-20" x="1425.720703"/>
     <use xlink:href="#DejaVuSans-53" x="1457.507812"/>
     <use xlink:href="#DejaVuSans-75" x="1520.984375"/>
     <use xlink:href="#DejaVuSans-6d" x="1584.363281"/>
     <use xlink:href="#DejaVuSans-20" x="1681.775391"/>
     <use xlink:href="#DejaVuSans-4f" x="1713.5625"/>
     <use xlink:href="#DejaVuSans-76" x="1792.273438"/>
     <use xlink:href="#DejaVuSans-65" x="1851.453125"/>
     <use xlink:href="#DejaVuSans-72" x="1912.976562"/>
     <use xlink:href="#DejaVuSans-20" x="1954.089844"/>
     <use xlink:href="#DejaVuSans-54" x="1985.876953"/>
     <use xlink:href="#DejaVuSans-69" x="2043.835938"/>
     <use xlink:href="#DejaVuSans-6d" x="2071.619141"/>
     <use xlink:href="#DejaVuSans-65" x="2169.03125"/>
     <use xlink:href="#DejaVuSans-20" x="2230.554688"/>
     <use xlink:href="#DejaVuSans-6f" x="2262.341797"/>
     <use xlink:href="#DejaVuSans-66" x="2323.523438"/>
     <use xlink:href="#DejaVuSans-20" x="2358.728516"/>
     <use xlink:href="#DejaVuSans-47" x="2390.515625"/>
     <use xlink:href="#DejaVuSans-72" x="2468.005859"/>
     <use xlink:href="#DejaVuSans-6f" x="2506.869141"/>
     <use xlink:href="#DejaVuSans-75" x="2568.050781"/>
     <use xlink:href="#DejaVuSans-70" x="2631.429688"/>
     <use xlink:href="#DejaVuSans-20" x="2694.90625"/>
     <use xlink:href="#DejaVuSans-63" x="2726.693359"/>
     <use xlink:href="#DejaVuSans-74" x="2781.673828"/>
     <use xlink:href="#DejaVuSans-72" x="2820.882812"/>
     <use xlink:href="#DejaVuSans-6c" x="2861.996094"/>
     <use xlink:href="#DejaVuSans-20" x="2889.779297"/>
     <use xlink:href="#DejaVuSans-4d" x="2921.566406"/>
     <use xlink:href="#DejaVuSans-6f" x="3007.845703"/>
     <use xlink:href="#DejaVuSans-75" x="3069.027344"/>
     <use xlink:href="#DejaVuSans-73" x="3132.40625"/>
     <use xlink:href="#DejaVuSans-65" x="3184.505859"/>
     <use xlink:href="#DejaVuSans-20" x="3246.029297"/>
     <use xlink:href="#DejaVuSans-4d" x="3277.816406"/>
     <use xlink:href="#DejaVuSans-34" x="3364.095703"/>
     <use xlink:href="#DejaVuSans-34" x="3427.71875"/>
    </g>
   </g>
   <g id="legend_1">
    <g id="patch_71">
     <path d="M 1086.550625 64.233437 
L 1158.235 64.233437 
Q 1160.235 64.233437 1160.235 62.233437 
L 1160.235 33.877187 
Q 1160.235 31.877187 1158.235 31.877187 
L 1086.550625 31.877187 
Q 1084.550625 31.877187 1084.550625 33.877187 
L 1084.550625 62.233437 
Q 1084.550625 64.233437 1086.550625 64.233437 
z
" style="fill: #ffffff; opacity: 0.8; stroke: #cccccc; stroke-linejoin: miter"/>
    </g>
    <g id="patch_72">
     <path d="M 1088.550625 43.475625 
L 1108.550625 43.475625 
L 1108.550625 36.475625 
L 1088.550625 36.475625 
z
" style="fill: #add8e6; opacity: 0.9; stroke: #add8e6; stroke-linejoin: miter"/>
    </g>
    <g id="text_18">
     <!-- Meal -->
     <g transform="translate(1116.550625 43.475625) scale(0.1 -0.1)">
      <use xlink:href="#DejaVuSans-4d"/>
      <use xlink:href="#DejaVuSans-65" x="86.279297"/>
      <use xlink:href="#DejaVuSans-61" x="147.802734"/>
      <use xlink:href="#DejaVuSans-6c" x="209.082031"/>
     </g>
    </g>
    <g id="patch_73">
     <path d="M 1088.550625 58.15375 
L 1108.550625 58.15375 
L 1108.550625 51.15375 
L 1088.550625 51.15375 
z
" style="fill: #808080; opacity: 0.5; stroke: #808080; stroke-linejoin: miter"/>
    </g>
    <g id="text_19">
     <!-- Inactive -->
     <g transform="translate(1116.550625 58.15375) scale(0.1 -0.1)">
      <defs>
       <path id="DejaVuSans-49" d="M 628 4666 
L 1259 4666 
L 1259 0 
L 628 0 
L 628 4666 
z
" transform="scale(0.015625)"/>
      </defs>
      <use xlink:href="#DejaVuSans-49"/>
      <use xlink:href="#DejaVuSans-6e" x="29.492188"/>
      <use xlink:href="#DejaVuSans-61" x="92.871094"/>
      <use xlink:href="#DejaVuSans-63" x="154.150391"/>
      <use xlink:href="#DejaVuSans-74" x="209.130859"/>
      <use xlink:href="#DejaVuSans-69" x="248.339844"/>
      <use xlink:href="#DejaVuSans-76" x="276.123047"/>
      <use xlink:href="#DejaVuSans-65" x="335.302734"/>
     </g>
    </g>
   </g>
  </g>
 </g>
 <defs>
  <clipPath id="p8aff6f3468">
   <rect x="49.235" y="26.877187" width="1116" height="332.64"/>
  </clipPath>
 </defs>
</svg>
