<?xml version="1.0" encoding="utf-8" standalone="no"?>
<!DOCTYPE svg PUBLIC "-//W3C//DTD SVG 1.1//EN"
  "http://www.w3.org/Graphics/SVG/1.1/DTD/svg11.dtd">
<svg xmlns:xlink="http://www.w3.org/1999/xlink" width="1172.435pt" height="399.009062pt" viewBox="0 0 1172.435 399.009062" xmlns="http://www.w3.org/2000/svg" version="1.1">
 <metadata>
  <rdf:RDF xmlns:dc="http://purl.org/dc/elements/1.1/" xmlns:cc="http://creativecommons.org/ns#" xmlns:rdf="http://www.w3.org/1999/02/22-rdf-syntax-ns#">
   <cc:Work>
    <dc:type rdf:resource="http://purl.org/dc/dcmitype/StillImage"/>
    <dc:date>2026-01-06T16:11:39.055248</dc:date>
    <dc:format>image/svg+xml</dc:format>
    <dc:creator>
     <cc:Agent>
      <dc:title>Matplotlib v3.8.4, https://matplotlib.org/</dc:title>
     </cc:Agent>
    </dc:creator>
   </cc:Work>
  </rdf:RDF>
 </metadata>
 <defs>
  <style type="text/css">*{stroke-linejoin: round; stroke-linecap: butt}</style>
 </defs>
 <g id="figure_1">
  <g id="patch_1">
   <path d="M 0 399.009062 
L 1172.435 399.009062 
L 1172.435 0 
L 0 0 
z
" style="fill: #ffffff"/>
  </g>
  <g id="axes_1">
   <g id="patch_2">
    <path d="M 49.235 359.517187 
L 1165.235 359.517187 
L 1165.235 26.877187 
L 49.235 26.877187 
z
" style="fill: #ffffff"/>
   </g>
   <g id="patch_3">
    <path d="M 144.174062 359.517187 
L 144.174062 26.877187 
L 144.831836 26.877187 
L 144.831836 359.517187 
z
" clip-path="url(#pfbae8b23a9)" style="fill: #add8e6; stroke: #add8e6; stroke-linejoin: miter"/>
   </g>
   <g id="patch_4">
    <path d="M 229.89607 359.517187 
L 229.89607 26.877187 
L 230.600828 26.877187 
L 230.600828 359.517187 
z
" clip-path="url(#pfbae8b23a9)" style="fill: #add8e6; stroke: #add8e6; stroke-linejoin: miter"/>
   </g>
   <g id="patch_5">
    <path d="M 250.639434 359.517187 
L 250.639434 26.877187 
L 251.285461 26.877187 
L 251.285461 359.517187 
z
" clip-path="url(#pfbae8b23a9)" style="fill: #add8e6; stroke: #add8e6; stroke-linejoin: miter"/>
   </g>
   <g id="patch_6">
    <path d="M 252.413073 359.517187 
L 252.413073 26.877187 
L 253.094339 26.877187 
L 253.094339 359.517187 
z
" clip-path="url(#pfbae8b23a9)" style="fill: #add8e6; stroke: #add8e6; stroke-linejoin: miter"/>
   </g>
   <g id="patch_7">
    <path d="M 254.010524 359.517187 
L 254.010524 26.877187 
L 254.621314 26.877187 
L 254.621314 359.517187 
z
" clip-path="url(#pfbae8b23a9)" style="fill: #add8e6; stroke: #add8e6; stroke-linejoin: miter"/>
   </g>
   <g id="patch_8">
    <path d="M 265.204423 359.517187 
L 265.204423 26.877187 
L 265.791721 26.877187 
L 265.791721 359.517187 
z
" clip-path="url(#pfbae8b23a9)" style="fill: #add8e6; stroke: #add8e6; stroke-linejoin: miter"/>
   </g>
   <g id="patch_9">
    <path d="M 268.258372 359.517187 
L 268.258372 26.877187 
L 268.775194 26.877187 
L 268.775194 359.517187 
z
" clip-path="url(#pfbae8b23a9)" style="fill: #add8e6; stroke: #add8e6; stroke-linejoin: miter"/>
   </g>
   <g id="patch_10">
    <path d="M 272.968501 359.517187 
L 272.968501 26.877187 
L 273.638021 26.877187 
L 273.638021 359.517187 
z
" clip-path="url(#pfbae8b23a9)" style="fill: #add8e6; stroke: #add8e6; stroke-linejoin: miter"/>
   </g>
   <g id="patch_11">
    <path d="M 297.024225 359.517187 
L 297.024225 26.877187 
L 297.458826 26.877187 
L 297.458826 359.517187 
z
" clip-path="url(#pfbae8b23a9)" style="fill: #add8e6; stroke: #add8e6; stroke-linejoin: miter"/>
   </g>
   <g id="patch_12">
    <path d="M 298.692151 359.517187 
L 298.692151 26.877187 
L 299.338179 26.877187 
L 299.338179 359.517187 
z
" clip-path="url(#pfbae8b23a9)" style="fill: #add8e6; stroke: #add8e6; stroke-linejoin: miter"/>
   </g>
   <g id="patch_13">
    <path d="M 299.702304 359.517187 
L 299.702304 26.877187 
L 300.407061 26.877187 
L 300.407061 359.517187 
z
" clip-path="url(#pfbae8b23a9)" style="fill: #add8e6; stroke: #add8e6; stroke-linejoin: miter"/>
   </g>
   <g id="patch_14">
    <path d="M 300.677219 359.517187 
L 300.677219 26.877187 
L 301.299754 26.877187 
L 301.299754 359.517187 
z
" clip-path="url(#pfbae8b23a9)" style="fill: #add8e6; stroke: #add8e6; stroke-linejoin: miter"/>
   </g>
   <g id="patch_15">
    <path d="M 345.276624 359.517187 
L 345.276624 26.877187 
L 345.852176 26.877187 
L 345.852176 359.517187 
z
" clip-path="url(#pfbae8b23a9)" style="fill: #add8e6; stroke: #add8e6; stroke-linejoin: miter"/>
   </g>
   <g id="patch_16">
    <path d="M 346.110588 359.517187 
L 346.110588 26.877187 
L 346.357253 26.877187 
L 346.357253 359.517187 
z
" clip-path="url(#pfbae8b23a9)" style="fill: #add8e6; stroke: #add8e6; stroke-linejoin: miter"/>
   </g>
   <g id="patch_17">
    <path d="M 350.538814 359.517187 
L 350.538814 26.877187 
L 350.60929 26.877187 
L 350.60929 359.517187 
z
" clip-path="url(#pfbae8b23a9)" style="fill: #add8e6; stroke: #add8e6; stroke-linejoin: miter"/>
   </g>
   <g id="patch_18">
    <path d="M 358.490828 359.517187 
L 358.490828 26.877187 
L 359.042888 26.877187 
L 359.042888 359.517187 
z
" clip-path="url(#pfbae8b23a9)" style="fill: #add8e6; stroke: #add8e6; stroke-linejoin: miter"/>
   </g>
   <g id="patch_19">
    <path d="M 359.524473 359.517187 
L 359.524473 26.877187 
L 359.712408 26.877187 
L 359.712408 359.517187 
z
" clip-path="url(#pfbae8b23a9)" style="fill: #add8e6; stroke: #add8e6; stroke-linejoin: miter"/>
   </g>
   <g id="patch_20">
    <path d="M 376.567859 359.517187 
L 376.567859 26.877187 
L 376.720556 26.877187 
L 376.720556 359.517187 
z
" clip-path="url(#pfbae8b23a9)" style="fill: #add8e6; stroke: #add8e6; stroke-linejoin: miter"/>
   </g>
   <g id="patch_21">
    <path d="M 385.964626 359.517187 
L 385.964626 26.877187 
L 386.410973 26.877187 
L 386.410973 359.517187 
z
" clip-path="url(#pfbae8b23a9)" style="fill: #add8e6; stroke: #add8e6; stroke-linejoin: miter"/>
   </g>
   <g id="patch_22">
    <path d="M 409.855907 359.517187 
L 409.855907 26.877187 
L 410.302253 26.877187 
L 410.302253 359.517187 
z
" clip-path="url(#pfbae8b23a9)" style="fill: #add8e6; stroke: #add8e6; stroke-linejoin: miter"/>
   </g>
   <g id="patch_23">
    <path d="M 414.354609 359.517187 
L 414.354609 26.877187 
L 414.507306 26.877187 
L 414.507306 359.517187 
z
" clip-path="url(#pfbae8b23a9)" style="fill: #add8e6; stroke: #add8e6; stroke-linejoin: miter"/>
   </g>
   <g id="patch_24">
    <path d="M 418.289505 359.517187 
L 418.289505 26.877187 
L 418.806327 26.877187 
L 418.806327 359.517187 
z
" clip-path="url(#pfbae8b23a9)" style="fill: #add8e6; stroke: #add8e6; stroke-linejoin: miter"/>
   </g>
   <g id="patch_25">
    <path d="M 427.627542 359.517187 
L 427.627542 26.877187 
L 427.956429 26.877187 
L 427.956429 359.517187 
z
" clip-path="url(#pfbae8b23a9)" style="fill: #add8e6; stroke: #add8e6; stroke-linejoin: miter"/>
   </g>
   <g id="patch_26">
    <path d="M 429.424674 359.517187 
L 429.424674 26.877187 
L 430.023718 26.877187 
L 430.023718 359.517187 
z
" clip-path="url(#pfbae8b23a9)" style="fill: #add8e6; stroke: #add8e6; stroke-linejoin: miter"/>
   </g>
   <g id="patch_27">
    <path d="M 435.837968 359.517187 
L 435.837968 26.877187 
L 435.967173 26.877187 
L 435.967173 359.517187 
z
" clip-path="url(#pfbae8b23a9)" style="fill: #add8e6; stroke: #add8e6; stroke-linejoin: miter"/>
   </g>
   <g id="patch_28">
    <path d="M 436.801136 359.517187 
L 436.801136 26.877187 
L 437.282721 26.877187 
L 437.282721 359.517187 
z
" clip-path="url(#pfbae8b23a9)" style="fill: #add8e6; stroke: #add8e6; stroke-linejoin: miter"/>
   </g>
   <g id="patch_29">
    <path d="M 437.611607 359.517187 
L 437.611607 26.877187 
L 437.811289 26.877187 
L 437.811289 359.517187 
z
" clip-path="url(#pfbae8b23a9)" style="fill: #add8e6; stroke: #add8e6; stroke-linejoin: miter"/>
   </g>
   <g id="patch_30">
    <path d="M 442.615386 359.517187 
L 442.615386 26.877187 
L 443.1557 26.877187 
L 443.1557 359.517187 
z
" clip-path="url(#pfbae8b23a9)" style="fill: #add8e6; stroke: #add8e6; stroke-linejoin: miter"/>
   </g>
   <g id="patch_31">
    <path d="M 469.713313 359.517187 
L 469.713313 26.877187 
L 469.92474 26.877187 
L 469.92474 359.517187 
z
" clip-path="url(#pfbae8b23a9)" style="fill: #add8e6; stroke: #add8e6; stroke-linejoin: miter"/>
   </g>
   <g id="patch_32">
    <path d="M 477.806279 359.517187 
L 477.806279 26.877187 
L 478.029452 26.877187 
L 478.029452 359.517187 
z
" clip-path="url(#pfbae8b23a9)" style="fill: #add8e6; stroke: #add8e6; stroke-linejoin: miter"/>
   </g>
   <g id="patch_33">
    <path d="M 545.650937 359.517187 
L 545.650937 26.877187 
L 546.073792 26.877187 
L 546.073792 359.517187 
z
" clip-path="url(#pfbae8b23a9)" style="fill: #add8e6; stroke: #add8e6; stroke-linejoin: miter"/>
   </g>
   <g id="patch_34">
    <path d="M 580.043105 359.517187 
L 580.043105 26.877187 
L 580.313262 26.877187 
L 580.313262 359.517187 
z
" clip-path="url(#pfbae8b23a9)" style="fill: #add8e6; stroke: #add8e6; stroke-linejoin: miter"/>
   </g>
   <g id="patch_35">
    <path d="M 580.888814 359.517187 
L 580.888814 26.877187 
L 581.252939 26.877187 
L 581.252939 359.517187 
z
" clip-path="url(#pfbae8b23a9)" style="fill: #add8e6; stroke: #add8e6; stroke-linejoin: miter"/>
   </g>
   <g id="patch_36">
    <path d="M 609.290543 359.517187 
L 609.290543 26.877187 
L 609.654668 26.877187 
L 609.654668 359.517187 
z
" clip-path="url(#pfbae8b23a9)" style="fill: #add8e6; stroke: #add8e6; stroke-linejoin: miter"/>
   </g>
   <g id="patch_37">
    <path d="M 610.042284 359.517187 
L 610.042284 26.877187 
L 610.476885 26.877187 
L 610.476885 359.517187 
z
" clip-path="url(#pfbae8b23a9)" style="fill: #add8e6; stroke: #add8e6; stroke-linejoin: miter"/>
   </g>
   <g id="patch_38">
    <path d="M 631.549135 359.517187 
L 631.549135 26.877187 
L 632.206909 26.877187 
L 632.206909 359.517187 
z
" clip-path="url(#pfbae8b23a9)" style="fill: #add8e6; stroke: #add8e6; stroke-linejoin: miter"/>
   </g>
   <g id="patch_39">
    <path d="M 644.152549 359.517187 
L 644.152549 26.877187 
L 644.575403 26.877187 
L 644.575403 359.517187 
z
" clip-path="url(#pfbae8b23a9)" style="fill: #add8e6; stroke: #add8e6; stroke-linejoin: miter"/>
   </g>
   <g id="patch_40">
    <path d="M 652.597893 359.517187 
L 652.597893 26.877187 
L 653.173445 26.877187 
L 653.173445 359.517187 
z
" clip-path="url(#pfbae8b23a9)" style="fill: #add8e6; stroke: #add8e6; stroke-linejoin: miter"/>
   </g>
   <g id="patch_41">
    <path d="M 653.502332 359.517187 
L 653.502332 26.877187 
L 654.019154 26.877187 
L 654.019154 359.517187 
z
" clip-path="url(#pfbae8b23a9)" style="fill: #add8e6; stroke: #add8e6; stroke-linejoin: miter"/>
   </g>
   <g id="patch_42">
    <path d="M 654.277565 359.517187 
L 654.277565 26.877187 
L 654.70042 26.877187 
L 654.70042 359.517187 
z
" clip-path="url(#pfbae8b23a9)" style="fill: #add8e6; stroke: #add8e6; stroke-linejoin: miter"/>
   </g>
   <g id="patch_43">
    <path d="M 738.801486 359.517187 
L 738.801486 26.877187 
L 739.130373 26.877187 
L 739.130373 359.517187 
z
" clip-path="url(#pfbae8b23a9)" style="fill: #add8e6; stroke: #add8e6; stroke-linejoin: miter"/>
   </g>
   <g id="patch_44">
    <path d="M 784.575488 359.517187 
L 784.575488 26.877187 
L 785.268499 26.877187 
L 785.268499 359.517187 
z
" clip-path="url(#pfbae8b23a9)" style="fill: #add8e6; stroke: #add8e6; stroke-linejoin: miter"/>
   </g>
   <g id="patch_45">
    <path d="M 785.58564 359.517187 
L 785.58564 26.877187 
L 786.07897 26.877187 
L 786.07897 359.517187 
z
" clip-path="url(#pfbae8b23a9)" style="fill: #add8e6; stroke: #add8e6; stroke-linejoin: miter"/>
   </g>
   <g id="patch_46">
    <path d="M 786.407857 359.517187 
L 786.407857 26.877187 
L 787.077377 26.877187 
L 787.077377 359.517187 
z
" clip-path="url(#pfbae8b23a9)" style="fill: #add8e6; stroke: #add8e6; stroke-linejoin: miter"/>
   </g>
   <g id="patch_47">
    <path d="M 794.066222 359.517187 
L 794.066222 26.877187 
L 794.383363 26.877187 
L 794.383363 359.517187 
z
" clip-path="url(#pfbae8b23a9)" style="fill: #add8e6; stroke: #add8e6; stroke-linejoin: miter"/>
   </g>
   <g id="patch_48">
    <path d="M 794.900185 359.517187 
L 794.900185 26.877187 
L 795.240818 26.877187 
L 795.240818 359.517187 
z
" clip-path="url(#pfbae8b23a9)" style="fill: #add8e6; stroke: #add8e6; stroke-linejoin: miter"/>
   </g>
   <g id="patch_49">
    <path d="M 798.036356 359.517187 
L 798.036356 26.877187 
L 798.118578 26.877187 
L 798.118578 359.517187 
z
" clip-path="url(#pfbae8b23a9)" style="fill: #add8e6; stroke: #add8e6; stroke-linejoin: miter"/>
   </g>
   <g id="patch_50">
    <path d="M 800.5265 359.517187 
L 800.5265 26.877187 
L 800.690943 26.877187 
L 800.690943 359.517187 
z
" clip-path="url(#pfbae8b23a9)" style="fill: #add8e6; stroke: #add8e6; stroke-linejoin: miter"/>
   </g>
   <g id="patch_51">
    <path d="M 872.799385 359.517187 
L 872.799385 26.877187 
L 873.327953 26.877187 
L 873.327953 359.517187 
z
" clip-path="url(#pfbae8b23a9)" style="fill: #add8e6; stroke: #add8e6; stroke-linejoin: miter"/>
   </g>
   <g id="patch_52">
    <path d="M 873.65684 359.517187 
L 873.65684 26.877187 
L 874.114932 26.877187 
L 874.114932 359.517187 
z
" clip-path="url(#pfbae8b23a9)" style="fill: #add8e6; stroke: #add8e6; stroke-linejoin: miter"/>
   </g>
   <g id="patch_53">
    <path d="M 874.455565 359.517187 
L 874.455565 26.877187 
L 875.019371 26.877187 
L 875.019371 359.517187 
z
" clip-path="url(#pfbae8b23a9)" style="fill: #add8e6; stroke: #add8e6; stroke-linejoin: miter"/>
   </g>
   <g id="patch_54">
    <path d="M 911.713747 359.517187 
L 911.713747 26.877187 
L 912.348029 26.877187 
L 912.348029 359.517187 
z
" clip-path="url(#pfbae8b23a9)" style="fill: #add8e6; stroke: #add8e6; stroke-linejoin: miter"/>
   </g>
   <g id="patch_55">
    <path d="M 912.535964 359.517187 
L 912.535964 26.877187 
L 912.817867 26.877187 
L 912.817867 359.517187 
z
" clip-path="url(#pfbae8b23a9)" style="fill: #add8e6; stroke: #add8e6; stroke-linejoin: miter"/>
   </g>
   <g id="patch_56">
    <path d="M 913.71056 359.517187 
L 913.71056 26.877187 
L 914.180398 26.877187 
L 914.180398 359.517187 
z
" clip-path="url(#pfbae8b23a9)" style="fill: #add8e6; stroke: #add8e6; stroke-linejoin: miter"/>
   </g>
   <g id="patch_57">
    <path d="M 915.155313 359.517187 
L 915.155313 26.877187 
L 915.601659 26.877187 
L 915.601659 359.517187 
z
" clip-path="url(#pfbae8b23a9)" style="fill: #add8e6; stroke: #add8e6; stroke-linejoin: miter"/>
   </g>
   <g id="patch_58">
    <path d="M 984.033616 359.517187 
L 984.033616 26.877187 
L 984.374249 26.877187 
L 984.374249 359.517187 
z
" clip-path="url(#pfbae8b23a9)" style="fill: #add8e6; stroke: #add8e6; stroke-linejoin: miter"/>
   </g>
   <g id="patch_59">
    <path d="M 984.797103 359.517187 
L 984.797103 26.877187 
L 985.443131 26.877187 
L 985.443131 359.517187 
z
" clip-path="url(#pfbae8b23a9)" style="fill: #add8e6; stroke: #add8e6; stroke-linejoin: miter"/>
   </g>
   <g id="patch_60">
    <path d="M 985.877731 359.517187 
L 985.877731 26.877187 
L 986.558997 26.877187 
L 986.558997 359.517187 
z
" clip-path="url(#pfbae8b23a9)" style="fill: #add8e6; stroke: #add8e6; stroke-linejoin: miter"/>
   </g>
   <g id="patch_61">
    <path d="M 1045.183078 359.517187 
L 1045.183078 26.877187 
L 1045.829106 26.877187 
L 1045.829106 359.517187 
z
" clip-path="url(#pfbae8b23a9)" style="fill: #add8e6; stroke: #add8e6; stroke-linejoin: miter"/>
   </g>
   <g id="patch_62">
    <path d="M 1047.41481 359.517187 
L 1047.41481 26.877187 
L 1047.884648 26.877187 
L 1047.884648 359.517187 
z
" clip-path="url(#pfbae8b23a9)" style="fill: #add8e6; stroke: #add8e6; stroke-linejoin: miter"/>
   </g>
   <g id="patch_63">
    <path d="M 1048.178297 359.517187 
L 1048.178297 26.877187 
L 1048.753849 26.877187 
L 1048.753849 359.517187 
z
" clip-path="url(#pfbae8b23a9)" style="fill: #add8e6; stroke: #add8e6; stroke-linejoin: miter"/>
   </g>
   <g id="patch_64">
    <path d="M 1048.965277 359.517187 
L 1048.965277 26.877187 
L 1049.235434 26.877187 
L 1049.235434 359.517187 
z
" clip-path="url(#pfbae8b23a9)" style="fill: #add8e6; stroke: #add8e6; stroke-linejoin: miter"/>
   </g>
   <g id="patch_65">
    <path d="M 1113.403607 359.517187 
L 1113.403607 26.877187 
L 1114.084873 26.877187 
L 1114.084873 359.517187 
z
" clip-path="url(#pfbae8b23a9)" style="fill: #add8e6; stroke: #add8e6; stroke-linejoin: miter"/>
   </g>
   <g id="patch_66">
    <path d="M 99.962273 359.517187 
L 99.962273 26.877187 
L 128.152574 26.877187 
L 128.152574 359.517187 
z
" clip-path="url(#pfbae8b23a9)" style="fill: #808080; opacity: 0.4; stroke: #808080; stroke-linejoin: miter"/>
   </g>
   <g id="patch_67">
    <path d="M 635.577999 359.517187 
L 635.577999 26.877187 
L 1114.507727 26.877187 
L 1114.507727 359.517187 
z
" clip-path="url(#pfbae8b23a9)" style="fill: #808080; opacity: 0.4; stroke: #808080; stroke-linejoin: miter"/>
   </g>
   <g id="matplotlib.axis_1">
    <g id="xtick_1">
     <g id="line2d_1">
      <defs>
       <path id="me45577c4dc" d="M 0 0 
L 0 3.5 
" style="stroke: #000000; stroke-width: 0.8"/>
      </defs>
      <g>
       <use xlink:href="#me45577c4dc" x="75.542424" y="359.517187" style="stroke: #000000; stroke-width: 0.8"/>
      </g>
     </g>
     <g id="text_1">
      <!-- 12-19 06 -->
      <g transform="translate(53.061955 374.115625) scale(0.1 -0.1)">
       <defs>
        <path id="DejaVuSans-31" d="M 794 531 
L 1825 531 
L 1825 4091 
L 703 3866 
L 703 4441 
L 1819 4666 
L 2450 4666 
L 2450 531 
L 3481 531 
L 3481 0 
L 794 0 
L 794 531 
z
" transform="scale(0.015625)"/>
        <path id="DejaVuSans-32" d="M 1228 531 
L 3431 531 
L 3431 0 
L 469 0 
L 469 531 
Q 828 903 1448 1529 
Q 2069 2156 2228 2338 
Q 2531 2678 2651 2914 
Q 2772 3150 2772 3378 
Q 2772 3750 2511 3984 
Q 2250 4219 1831 4219 
Q 1534 4219 1204 4116 
Q 875 4013 500 3803 
L 500 4441 
Q 881 4594 1212 4672 
Q 1544 4750 1819 4750 
Q 2544 4750 2975 4387 
Q 3406 4025 3406 3419 
Q 3406 3131 3298 2873 
Q 3191 2616 2906 2266 
Q 2828 2175 2409 1742 
Q 1991 1309 1228 531 
z
" transform="scale(0.015625)"/>
        <path id="DejaVuSans-2d" d="M 313 2009 
L 1997 2009 
L 1997 1497 
L 313 1497 
L 313 2009 
z
" transform="scale(0.015625)"/>
        <path id="DejaVuSans-39" d="M 703 97 
L 703 672 
Q 941 559 1184 500 
Q 1428 441 1663 441 
Q 2288 441 2617 861 
Q 2947 1281 2994 2138 
Q 2813 1869 2534 1725 
Q 2256 1581 1919 1581 
Q 1219 1581 811 2004 
Q 403 2428 403 3163 
Q 403 3881 828 4315 
Q 1253 4750 1959 4750 
Q 2769 4750 3195 4129 
Q 3622 3509 3622 2328 
Q 3622 1225 3098 567 
Q 2575 -91 1691 -91 
Q 1453 -91 1209 -44 
Q 966 3 703 97 
z
M 1959 2075 
Q 2384 2075 2632 2365 
Q 2881 2656 2881 3163 
Q 2881 3666 2632 3958 
Q 2384 4250 1959 4250 
Q 1534 4250 1286 3958 
Q 1038 3666 1038 3163 
Q 1038 2656 1286 2365 
Q 1534 2075 1959 2075 
z
" transform="scale(0.015625)"/>
        <path id="DejaVuSans-20" transform="scale(0.015625)"/>
        <path id="DejaVuSans-30" d="M 2034 4250 
Q 1547 4250 1301 3770 
Q 1056 3291 1056 2328 
Q 1056 1369 1301 889 
Q 1547 409 2034 409 
Q 2525 409 2770 889 
Q 3016 1369 3016 2328 
Q 3016 3291 2770 3770 
Q 2525 4250 2034 4250 
z
M 2034 4750 
Q 2819 4750 3233 4129 
Q 3647 3509 3647 2328 
Q 3647 1150 3233 529 
Q 2819 -91 2034 -91 
Q 1250 -91 836 529 
Q 422 1150 422 2328 
Q 422 3509 836 4129 
Q 1250 4750 2034 4750 
z
" transform="scale(0.015625)"/>
        <path id="DejaVuSans-36" d="M 2113 2584 
Q 1688 2584 1439 2293 
Q 1191 2003 1191 1497 
Q 1191 994 1439 701 
Q 1688 409 2113 409 
Q 2538 409 2786 701 
Q 3034 994 3034 1497 
Q 3034 2003 2786 2293 
Q 2538 2584 2113 2584 
z
M 3366 4563 
L 3366 3988 
Q 3128 4100 2886 4159 
Q 2644 4219 2406 4219 
Q 1781 4219 1451 3797 
Q 1122 3375 1075 2522 
Q 1259 2794 1537 2939 
Q 1816 3084 2150 3084 
Q 2853 3084 3261 2657 
Q 3669 2231 3669 1497 
Q 3669 778 3244 343 
Q 2819 -91 2113 -91 
Q 1303 -91 875 529 
Q 447 1150 447 2328 
Q 447 3434 972 4092 
Q 1497 4750 2381 4750 
Q 2619 4750 2861 4703 
Q 3103 4656 3366 4563 
z
" transform="scale(0.015625)"/>
       </defs>
       <use xlink:href="#DejaVuSans-31"/>
       <use xlink:href="#DejaVuSans-32" x="63.623047"/>
       <use xlink:href="#DejaVuSans-2d" x="127.246094"/>
       <use xlink:href="#DejaVuSans-31" x="163.330078"/>
       <use xlink:href="#DejaVuSans-39" x="226.953125"/>
       <use xlink:href="#DejaVuSans-20" x="290.576172"/>
       <use xlink:href="#DejaVuSans-30" x="322.363281"/>
       <use xlink:href="#DejaVuSans-36" x="385.986328"/>
      </g>
     </g>
    </g>
    <g id="xtick_2">
     <g id="line2d_2">
      <g>
       <use xlink:href="#me45577c4dc" x="202.39878" y="359.517187" style="stroke: #000000; stroke-width: 0.8"/>
      </g>
     </g>
     <g id="text_2">
      <!-- 12-19 09 -->
      <g transform="translate(179.918312 374.115625) scale(0.1 -0.1)">
       <use xlink:href="#DejaVuSans-31"/>
       <use xlink:href="#DejaVuSans-32" x="63.623047"/>
       <use xlink:href="#DejaVuSans-2d" x="127.246094"/>
       <use xlink:href="#DejaVuSans-31" x="163.330078"/>
       <use xlink:href="#DejaVuSans-39" x="226.953125"/>
       <use xlink:href="#DejaVuSans-20" x="290.576172"/>
       <use xlink:href="#DejaVuSans-30" x="322.363281"/>
       <use xlink:href="#DejaVuSans-39" x="385.986328"/>
      </g>
     </g>
    </g>
    <g id="xtick_3">
     <g id="line2d_3">
      <g>
       <use xlink:href="#me45577c4dc" x="329.255137" y="359.517187" style="stroke: #000000; stroke-width: 0.8"/>
      </g>
     </g>
     <g id="text_3">
      <!-- 12-19 12 -->
      <g transform="translate(306.774668 374.115625) scale(0.1 -0.1)">
       <use xlink:href="#DejaVuSans-31"/>
       <use xlink:href="#DejaVuSans-32" x="63.623047"/>
       <use xlink:href="#DejaVuSans-2d" x="127.246094"/>
       <use xlink:href="#DejaVuSans-31" x="163.330078"/>
       <use xlink:href="#DejaVuSans-39" x="226.953125"/>
       <use xlink:href="#DejaVuSans-20" x="290.576172"/>
       <use xlink:href="#DejaVuSans-31" x="322.363281"/>
       <use xlink:href="#DejaVuSans-32" x="385.986328"/>
      </g>
     </g>
    </g>
    <g id="xtick_4">
     <g id="line2d_4">
      <g>
       <use xlink:href="#me45577c4dc" x="456.111493" y="359.517187" style="stroke: #000000; stroke-width: 0.8"/>
      </g>
     </g>
     <g id="text_4">
      <!-- 12-19 15 -->
      <g transform="translate(433.631024 374.115625) scale(0.1 -0.1)">
       <defs>
        <path id="DejaVuSans-35" d="M 691 4666 
L 3169 4666 
L 3169 4134 
L 1269 4134 
L 1269 2991 
Q 1406 3038 1543 3061 
Q 1681 3084 1819 3084 
Q 2600 3084 3056 2656 
Q 3513 2228 3513 1497 
Q 3513 744 3044 326 
Q 2575 -91 1722 -91 
Q 1428 -91 1123 -41 
Q 819 9 494 109 
L 494 744 
Q 775 591 1075 516 
Q 1375 441 1709 441 
Q 2250 441 2565 725 
Q 2881 1009 2881 1497 
Q 2881 1984 2565 2268 
Q 2250 2553 1709 2553 
Q 1456 2553 1204 2497 
Q 953 2441 691 2322 
L 691 4666 
z
" transform="scale(0.015625)"/>
       </defs>
       <use xlink:href="#DejaVuSans-31"/>
       <use xlink:href="#DejaVuSans-32" x="63.623047"/>
       <use xlink:href="#DejaVuSans-2d" x="127.246094"/>
       <use xlink:href="#DejaVuSans-31" x="163.330078"/>
       <use xlink:href="#DejaVuSans-39" x="226.953125"/>
       <use xlink:href="#DejaVuSans-20" x="290.576172"/>
       <use xlink:href="#DejaVuSans-31" x="322.363281"/>
       <use xlink:href="#DejaVuSans-35" x="385.986328"/>
      </g>
     </g>
    </g>
    <g id="xtick_5">
     <g id="line2d_5">
      <g>
       <use xlink:href="#me45577c4dc" x="582.967849" y="359.517187" style="stroke: #000000; stroke-width: 0.8"/>
      </g>
     </g>
     <g id="text_5">
      <!-- 12-19 18 -->
      <g transform="translate(560.48738 374.115625) scale(0.1 -0.1)">
       <defs>
        <path id="DejaVuSans-38" d="M 2034 2216 
Q 1584 2216 1326 1975 
Q 1069 1734 1069 1313 
Q 1069 891 1326 650 
Q 1584 409 2034 409 
Q 2484 409 2743 651 
Q 3003 894 3003 1313 
Q 3003 1734 2745 1975 
Q 2488 2216 2034 2216 
z
M 1403 2484 
Q 997 2584 770 2862 
Q 544 3141 544 3541 
Q 544 4100 942 4425 
Q 1341 4750 2034 4750 
Q 2731 4750 3128 4425 
Q 3525 4100 3525 3541 
Q 3525 3141 3298 2862 
Q 3072 2584 2669 2484 
Q 3125 2378 3379 2068 
Q 3634 1759 3634 1313 
Q 3634 634 3220 271 
Q 2806 -91 2034 -91 
Q 1263 -91 848 271 
Q 434 634 434 1313 
Q 434 1759 690 2068 
Q 947 2378 1403 2484 
z
M 1172 3481 
Q 1172 3119 1398 2916 
Q 1625 2713 2034 2713 
Q 2441 2713 2670 2916 
Q 2900 3119 2900 3481 
Q 2900 3844 2670 4047 
Q 2441 4250 2034 4250 
Q 1625 4250 1398 4047 
Q 1172 3844 1172 3481 
z
" transform="scale(0.015625)"/>
       </defs>
       <use xlink:href="#DejaVuSans-31"/>
       <use xlink:href="#DejaVuSans-32" x="63.623047"/>
       <use xlink:href="#DejaVuSans-2d" x="127.246094"/>
       <use xlink:href="#DejaVuSans-31" x="163.330078"/>
       <use xlink:href="#DejaVuSans-39" x="226.953125"/>
       <use xlink:href="#DejaVuSans-20" x="290.576172"/>
       <use xlink:href="#DejaVuSans-31" x="322.363281"/>
       <use xlink:href="#DejaVuSans-38" x="385.986328"/>
      </g>
     </g>
    </g>
    <g id="xtick_6">
     <g id="line2d_6">
      <g>
       <use xlink:href="#me45577c4dc" x="709.824205" y="359.517187" style="stroke: #000000; stroke-width: 0.8"/>
      </g>
     </g>
     <g id="text_6">
      <!-- 12-19 21 -->
      <g transform="translate(687.343736 374.115625) scale(0.1 -0.1)">
       <use xlink:href="#DejaVuSans-31"/>
       <use xlink:href="#DejaVuSans-32" x="63.623047"/>
       <use xlink:href="#DejaVuSans-2d" x="127.246094"/>
       <use xlink:href="#DejaVuSans-31" x="163.330078"/>
       <use xlink:href="#DejaVuSans-39" x="226.953125"/>
       <use xlink:href="#DejaVuSans-20" x="290.576172"/>
       <use xlink:href="#DejaVuSans-32" x="322.363281"/>
       <use xlink:href="#DejaVuSans-31" x="385.986328"/>
      </g>
     </g>
    </g>
    <g id="xtick_7">
     <g id="line2d_7">
      <g>
       <use xlink:href="#me45577c4dc" x="836.680561" y="359.517187" style="stroke: #000000; stroke-width: 0.8"/>
      </g>
     </g>
     <g id="text_7">
      <!-- 12-20 00 -->
      <g transform="translate(814.200093 374.115625) scale(0.1 -0.1)">
       <use xlink:href="#DejaVuSans-31"/>
       <use xlink:href="#DejaVuSans-32" x="63.623047"/>
       <use xlink:href="#DejaVuSans-2d" x="127.246094"/>
       <use xlink:href="#DejaVuSans-32" x="163.330078"/>
       <use xlink:href="#DejaVuSans-30" x="226.953125"/>
       <use xlink:href="#DejaVuSans-20" x="290.576172"/>
       <use xlink:href="#DejaVuSans-30" x="322.363281"/>
       <use xlink:href="#DejaVuSans-30" x="385.986328"/>
      </g>
     </g>
    </g>
    <g id="xtick_8">
     <g id="line2d_8">
      <g>
       <use xlink:href="#me45577c4dc" x="963.536917" y="359.517187" style="stroke: #000000; stroke-width: 0.8"/>
      </g>
     </g>
     <g id="text_8">
      <!-- 12-20 03 -->
      <g transform="translate(941.056449 374.115625) scale(0.1 -0.1)">
       <defs>
        <path id="DejaVuSans-33" d="M 2597 2516 
Q 3050 2419 3304 2112 
Q 3559 1806 3559 1356 
Q 3559 666 3084 287 
Q 2609 -91 1734 -91 
Q 1441 -91 1130 -33 
Q 819 25 488 141 
L 488 750 
Q 750 597 1062 519 
Q 1375 441 1716 441 
Q 2309 441 2620 675 
Q 2931 909 2931 1356 
Q 2931 1769 2642 2001 
Q 2353 2234 1838 2234 
L 1294 2234 
L 1294 2753 
L 1863 2753 
Q 2328 2753 2575 2939 
Q 2822 3125 2822 3475 
Q 2822 3834 2567 4026 
Q 2313 4219 1838 4219 
Q 1578 4219 1281 4162 
Q 984 4106 628 3988 
L 628 4550 
Q 988 4650 1302 4700 
Q 1616 4750 1894 4750 
Q 2613 4750 3031 4423 
Q 3450 4097 3450 3541 
Q 3450 3153 3228 2886 
Q 3006 2619 2597 2516 
z
" transform="scale(0.015625)"/>
       </defs>
       <use xlink:href="#DejaVuSans-31"/>
       <use xlink:href="#DejaVuSans-32" x="63.623047"/>
       <use xlink:href="#DejaVuSans-2d" x="127.246094"/>
       <use xlink:href="#DejaVuSans-32" x="163.330078"/>
       <use xlink:href="#DejaVuSans-30" x="226.953125"/>
       <use xlink:href="#DejaVuSans-20" x="290.576172"/>
       <use xlink:href="#DejaVuSans-30" x="322.363281"/>
       <use xlink:href="#DejaVuSans-33" x="385.986328"/>
      </g>
     </g>
    </g>
    <g id="xtick_9">
     <g id="line2d_9">
      <g>
       <use xlink:href="#me45577c4dc" x="1090.393274" y="359.517187" style="stroke: #000000; stroke-width: 0.8"/>
      </g>
     </g>
     <g id="text_9">
      <!-- 12-20 06 -->
      <g transform="translate(1067.912805 374.115625) scale(0.1 -0.1)">
       <use xlink:href="#DejaVuSans-31"/>
       <use xlink:href="#DejaVuSans-32" x="63.623047"/>
       <use xlink:href="#DejaVuSans-2d" x="127.246094"/>
       <use xlink:href="#DejaVuSans-32" x="163.330078"/>
       <use xlink:href="#DejaVuSans-30" x="226.953125"/>
       <use xlink:href="#DejaVuSans-20" x="290.576172"/>
       <use xlink:href="#DejaVuSans-30" x="322.363281"/>
       <use xlink:href="#DejaVuSans-36" x="385.986328"/>
      </g>
     </g>
    </g>
    <g id="text_10">
     <!-- Time -->
     <g transform="translate(592.554688 389.313437) scale(0.12 -0.12)">
      <defs>
       <path id="DejaVuSans-54" d="M -19 4666 
L 3928 4666 
L 3928 4134 
L 2272 4134 
L 2272 0 
L 1638 0 
L 1638 4134 
L -19 4134 
L -19 4666 
z
" transform="scale(0.015625)"/>
       <path id="DejaVuSans-69" d="M 603 3500 
L 1178 3500 
L 1178 0 
L 603 0 
L 603 3500 
z
M 603 4863 
L 1178 4863 
L 1178 4134 
L 603 4134 
L 603 4863 
z
" transform="scale(0.015625)"/>
       <path id="DejaVuSans-6d" d="M 3328 2828 
Q 3544 3216 3844 3400 
Q 4144 3584 4550 3584 
Q 5097 3584 5394 3201 
Q 5691 2819 5691 2113 
L 5691 0 
L 5113 0 
L 5113 2094 
Q 5113 2597 4934 2840 
Q 4756 3084 4391 3084 
Q 3944 3084 3684 2787 
Q 3425 2491 3425 1978 
L 3425 0 
L 2847 0 
L 2847 2094 
Q 2847 2600 2669 2842 
Q 2491 3084 2119 3084 
Q 1678 3084 1418 2786 
Q 1159 2488 1159 1978 
L 1159 0 
L 581 0 
L 581 3500 
L 1159 3500 
L 1159 2956 
Q 1356 3278 1631 3431 
Q 1906 3584 2284 3584 
Q 2666 3584 2933 3390 
Q 3200 3197 3328 2828 
z
" transform="scale(0.015625)"/>
       <path id="DejaVuSans-65" d="M 3597 1894 
L 3597 1613 
L 953 1613 
Q 991 1019 1311 708 
Q 1631 397 2203 397 
Q 2534 397 2845 478 
Q 3156 559 3463 722 
L 3463 178 
Q 3153 47 2828 -22 
Q 2503 -91 2169 -91 
Q 1331 -91 842 396 
Q 353 884 353 1716 
Q 353 2575 817 3079 
Q 1281 3584 2069 3584 
Q 2775 3584 3186 3129 
Q 3597 2675 3597 1894 
z
M 3022 2063 
Q 3016 2534 2758 2815 
Q 2500 3097 2075 3097 
Q 1594 3097 1305 2825 
Q 1016 2553 972 2059 
L 3022 2063 
z
" transform="scale(0.015625)"/>
      </defs>
      <use xlink:href="#DejaVuSans-54"/>
      <use xlink:href="#DejaVuSans-69" x="57.958984"/>
      <use xlink:href="#DejaVuSans-6d" x="85.742188"/>
      <use xlink:href="#DejaVuSans-65" x="183.154297"/>
     </g>
    </g>
   </g>
   <g id="matplotlib.axis_2">
    <g id="ytick_1">
     <g id="line2d_10">
      <defs>
       <path id="m2557a09747" d="M 0 0 
L -3.5 0 
" style="stroke: #000000; stroke-width: 0.8"/>
      </defs>
      <g>
       <use xlink:href="#m2557a09747" x="49.235" y="344.397187" style="stroke: #000000; stroke-width: 0.8"/>
      </g>
     </g>
     <g id="text_11">
      <!-- 0 -->
      <g transform="translate(35.8725 348.196406) scale(0.1 -0.1)">
       <use xlink:href="#DejaVuSans-30"/>
      </g>
     </g>
    </g>
    <g id="ytick_2">
     <g id="line2d_11">
      <g>
       <use xlink:href="#m2557a09747" x="49.235" y="286.466153" style="stroke: #000000; stroke-width: 0.8"/>
      </g>
     </g>
     <g id="text_12">
      <!-- 50 -->
      <g transform="translate(29.51 290.265372) scale(0.1 -0.1)">
       <use xlink:href="#DejaVuSans-35"/>
       <use xlink:href="#DejaVuSans-30" x="63.623047"/>
      </g>
     </g>
    </g>
    <g id="ytick_3">
     <g id="line2d_12">
      <g>
       <use xlink:href="#m2557a09747" x="49.235" y="228.535119" style="stroke: #000000; stroke-width: 0.8"/>
      </g>
     </g>
     <g id="text_13">
      <!-- 100 -->
      <g transform="translate(23.1475 232.334337) scale(0.1 -0.1)">
       <use xlink:href="#DejaVuSans-31"/>
       <use xlink:href="#DejaVuSans-30" x="63.623047"/>
       <use xlink:href="#DejaVuSans-30" x="127.246094"/>
      </g>
     </g>
    </g>
    <g id="ytick_4">
     <g id="line2d_13">
      <g>
       <use xlink:href="#m2557a09747" x="49.235" y="170.604084" style="stroke: #000000; stroke-width: 0.8"/>
      </g>
     </g>
     <g id="text_14">
      <!-- 150 -->
      <g transform="translate(23.1475 174.403303) scale(0.1 -0.1)">
       <use xlink:href="#DejaVuSans-31"/>
       <use xlink:href="#DejaVuSans-35" x="63.623047"/>
       <use xlink:href="#DejaVuSans-30" x="127.246094"/>
      </g>
     </g>
    </g>
    <g id="ytick_5">
     <g id="line2d_14">
      <g>
       <use xlink:href="#m2557a09747" x="49.235" y="112.67305" style="stroke: #000000; stroke-width: 0.8"/>
      </g>
     </g>
     <g id="text_15">
      <!-- 200 -->
      <g transform="translate(23.1475 116.472268) scale(0.1 -0.1)">
       <use xlink:href="#DejaVuSans-32"/>
       <use xlink:href="#DejaVuSans-30" x="63.623047"/>
       <use xlink:href="#DejaVuSans-30" x="127.246094"/>
      </g>
     </g>
    </g>
    <g id="ytick_6">
     <g id="line2d_15">
      <g>
       <use xlink:href="#m2557a09747" x="49.235" y="54.742015" style="stroke: #000000; stroke-width: 0.8"/>
      </g>
     </g>
     <g id="text_16">
      <!-- 250 -->
      <g transform="translate(23.1475 58.541234) scale(0.1 -0.1)">
       <use xlink:href="#DejaVuSans-32"/>
       <use xlink:href="#DejaVuSans-35" x="63.623047"/>
       <use xlink:href="#DejaVuSans-30" x="127.246094"/>
      </g>
     </g>
    </g>
    <g id="text_17">
     <!-- Pellet_Count -->
     <g transform="translate(16.318125 230.485312) rotate(-90) scale(0.12 -0.12)">
      <defs>
       <path id="DejaVuSans-50" d="M 1259 4147 
L 1259 2394 
L 2053 2394 
Q 2494 2394 2734 2622 
Q 2975 2850 2975 3272 
Q 2975 3691 2734 3919 
Q 2494 4147 2053 4147 
L 1259 4147 
z
M 628 4666 
L 2053 4666 
Q 2838 4666 3239 4311 
Q 3641 3956 3641 3272 
Q 3641 2581 3239 2228 
Q 2838 1875 2053 1875 
L 1259 1875 
L 1259 0 
L 628 0 
L 628 4666 
z
" transform="scale(0.015625)"/>
       <path id="DejaVuSans-6c" d="M 603 4863 
L 1178 4863 
L 1178 0 
L 603 0 
L 603 4863 
z
" transform="scale(0.015625)"/>
       <path id="DejaVuSans-74" d="M 1172 4494 
L 1172 3500 
L 2356 3500 
L 2356 3053 
L 1172 3053 
L 1172 1153 
Q 1172 725 1289 603 
Q 1406 481 1766 481 
L 2356 481 
L 2356 0 
L 1766 0 
Q 1100 0 847 248 
Q 594 497 594 1153 
L 594 3053 
L 172 3053 
L 172 3500 
L 594 3500 
L 594 4494 
L 1172 4494 
z
" transform="scale(0.015625)"/>
       <path id="DejaVuSans-5f" d="M 3263 -1063 
L 3263 -1509 
L -63 -1509 
L -63 -1063 
L 3263 -1063 
z
" transform="scale(0.015625)"/>
       <path id="DejaVuSans-43" d="M 4122 4306 
L 4122 3641 
Q 3803 3938 3442 4084 
Q 3081 4231 2675 4231 
Q 1875 4231 1450 3742 
Q 1025 3253 1025 2328 
Q 1025 1406 1450 917 
Q 1875 428 2675 428 
Q 3081 428 3442 575 
Q 3803 722 4122 1019 
L 4122 359 
Q 3791 134 3420 21 
Q 3050 -91 2638 -91 
Q 1578 -91 968 557 
Q 359 1206 359 2328 
Q 359 3453 968 4101 
Q 1578 4750 2638 4750 
Q 3056 4750 3426 4639 
Q 3797 4528 4122 4306 
z
" transform="scale(0.015625)"/>
       <path id="DejaVuSans-6f" d="M 1959 3097 
Q 1497 3097 1228 2736 
Q 959 2375 959 1747 
Q 959 1119 1226 758 
Q 1494 397 1959 397 
Q 2419 397 2687 759 
Q 2956 1122 2956 1747 
Q 2956 2369 2687 2733 
Q 2419 3097 1959 3097 
z
M 1959 3584 
Q 2709 3584 3137 3096 
Q 3566 2609 3566 1747 
Q 3566 888 3137 398 
Q 2709 -91 1959 -91 
Q 1206 -91 779 398 
Q 353 888 353 1747 
Q 353 2609 779 3096 
Q 1206 3584 1959 3584 
z
" transform="scale(0.015625)"/>
       <path id="DejaVuSans-75" d="M 544 1381 
L 544 3500 
L 1119 3500 
L 1119 1403 
Q 1119 906 1312 657 
Q 1506 409 1894 409 
Q 2359 409 2629 706 
Q 2900 1003 2900 1516 
L 2900 3500 
L 3475 3500 
L 3475 0 
L 2900 0 
L 2900 538 
Q 2691 219 2414 64 
Q 2138 -91 1772 -91 
Q 1169 -91 856 284 
Q 544 659 544 1381 
z
M 1991 3584 
L 1991 3584 
z
" transform="scale(0.015625)"/>
       <path id="DejaVuSans-6e" d="M 3513 2113 
L 3513 0 
L 2938 0 
L 2938 2094 
Q 2938 2591 2744 2837 
Q 2550 3084 2163 3084 
Q 1697 3084 1428 2787 
Q 1159 2491 1159 1978 
L 1159 0 
L 581 0 
L 581 3500 
L 1159 3500 
L 1159 2956 
Q 1366 3272 1645 3428 
Q 1925 3584 2291 3584 
Q 2894 3584 3203 3211 
Q 3513 2838 3513 2113 
z
" transform="scale(0.015625)"/>
      </defs>
      <use xlink:href="#DejaVuSans-50"/>
      <use xlink:href="#DejaVuSans-65" x="56.677734"/>
      <use xlink:href="#DejaVuSans-6c" x="118.201172"/>
      <use xlink:href="#DejaVuSans-6c" x="145.984375"/>
      <use xlink:href="#DejaVuSans-65" x="173.767578"/>
      <use xlink:href="#DejaVuSans-74" x="235.291016"/>
      <use xlink:href="#DejaVuSans-5f" x="274.5"/>
      <use xlink:href="#DejaVuSans-43" x="324.5"/>
      <use xlink:href="#DejaVuSans-6f" x="394.324219"/>
      <use xlink:href="#DejaVuSans-75" x="455.505859"/>
      <use xlink:href="#DejaVuSans-6e" x="518.884766"/>
      <use xlink:href="#DejaVuSans-74" x="582.263672"/>
     </g>
    </g>
   </g>
   <g id="line2d_16">
    <path d="M 99.962273 344.397187 
L 121.574837 344.397187 
L 121.598329 343.238567 
L 123.642126 343.238567 
L 123.74784 342.079946 
L 124.405613 342.079946 
L 124.405613 342.079946 
L 125.063387 340.921325 
L 127.201151 340.921325 
L 127.248135 339.762705 
L 142.130265 339.762705 
L 142.153757 338.604084 
L 142.61185 338.604084 
L 143.210893 337.445463 
L 143.422321 337.445463 
L 144.174062 336.286843 
L 144.808344 336.286843 
L 144.831836 335.128222 
L 145.336912 335.128222 
L 145.336912 335.128222 
L 146.9696 333.969601 
L 153.21845 333.969601 
L 153.241942 332.810981 
L 157.329536 332.810981 
L 157.353028 331.65236 
L 167.419315 331.65236 
L 167.478045 330.493739 
L 171.377703 330.493739 
L 171.483417 329.335119 
L 178.296073 329.335119 
L 178.366548 328.176498 
L 179.306225 328.176498 
L 179.541144 327.017877 
L 180.89193 327.017877 
L 181.291292 325.859256 
L 194.282323 325.859256 
L 194.282323 325.859256 
L 194.728669 324.700636 
L 198.510868 324.700636 
L 198.581344 323.542015 
L 200.965773 323.542015 
L 200.989265 322.383394 
L 202.199099 322.383394 
L 202.481002 321.224774 
L 205.288286 321.224774 
L 205.464476 320.066153 
L 213.780615 320.066153 
L 213.85109 318.907532 
L 215.965363 318.907532 
L 216.012347 317.748912 
L 216.822818 317.748912 
L 216.952023 316.590291 
L 217.985668 316.590291 
L 218.161857 315.43167 
L 219.677086 315.43167 
L 219.688832 314.27305 
L 221.356758 314.27305 
L 221.391996 313.114429 
L 229.872578 313.114429 
L 229.89607 311.955808 
L 230.553844 311.955808 
L 230.600828 310.797187 
L 248.431193 310.797187 
L 248.454685 309.638567 
L 249.711503 309.638567 
L 249.746741 308.479946 
L 250.615942 308.479946 
L 250.639434 307.321325 
L 250.921337 307.321325 
L 250.956574 306.162705 
L 251.261969 306.162705 
L 251.285461 305.004084 
L 252.389581 305.004084 
L 252.413073 303.845463 
L 252.976879 303.845463 
L 253.094339 302.686843 
L 253.975286 302.686843 
L 254.010524 301.528222 
L 254.597822 301.528222 
L 254.621314 300.369601 
L 255.149882 300.369601 
L 255.173374 299.210981 
L 257.099711 299.210981 
L 257.111457 298.05236 
L 257.88669 298.05236 
L 257.94542 296.893739 
L 263.665702 296.893739 
L 263.689194 295.735119 
L 265.180931 295.735119 
L 265.204423 294.576498 
L 265.509818 294.576498 
L 265.533309 293.417877 
L 265.756483 293.417877 
L 265.791721 292.259256 
L 267.353933 292.259256 
L 267.377425 291.100636 
L 268.246626 291.100636 
L 268.258372 289.942015 
L 268.716464 289.942015 
L 268.775194 288.783394 
L 269.080589 288.783394 
L 269.104081 287.624774 
L 270.055504 287.624774 
L 270.078996 286.466153 
L 272.933264 286.466153 
L 272.968501 285.307532 
L 273.226913 285.307532 
L 273.250404 284.148912 
L 273.614529 284.148912 
L 273.638021 282.990291 
L 275.118012 282.990291 
L 275.176742 281.83167 
L 275.904991 281.83167 
L 275.916737 280.67305 
L 277.020857 280.67305 
L 277.056095 279.514429 
L 278.195453 279.514429 
L 278.265929 278.355808 
L 283.210978 278.355808 
L 283.422405 277.197187 
L 285.93604 277.197187 
L 285.971278 276.038567 
L 286.417624 276.038567 
L 286.840479 274.879946 
L 297.000733 274.879946 
L 297.024225 273.721325 
L 297.435334 273.721325 
L 297.458826 272.562705 
L 298.66866 272.562705 
L 298.692151 271.404084 
L 299.021038 271.404084 
L 299.04453 270.245463 
L 299.326433 270.245463 
L 299.338179 269.086843 
L 299.690558 269.086843 
L 299.702304 267.928222 
L 300.007699 267.928222 
L 300.031191 266.769601 
L 300.360078 266.769601 
L 300.407061 265.610981 
L 300.653727 265.610981 
L 300.677219 264.45236 
L 300.93563 264.45236 
L 301.006105 263.293739 
L 301.276262 263.293739 
L 301.299754 262.135119 
L 301.522928 262.135119 
L 302.03975 260.976498 
L 321.39709 260.976498 
L 321.444074 259.817877 
L 323.840249 259.817877 
L 329.30212 258.659256 
L 334.047488 258.659256 
L 334.153201 257.500636 
L 343.444255 257.500636 
L 343.467747 256.342015 
L 343.773142 256.342015 
L 345.276624 255.183394 
L 345.570273 255.183394 
L 345.582019 254.024774 
L 345.840431 254.024774 
L 345.852176 252.866153 
L 346.087096 252.866153 
L 346.110588 251.707532 
L 346.298523 251.707532 
L 346.298523 251.707532 
L 346.357253 250.548912 
L 350.515322 250.548912 
L 350.60929 248.23167 
L 351.960075 248.23167 
L 357.445438 247.07305 
L 358.490828 245.914429 
L 358.643526 245.914429 
L 359.042888 244.755808 
L 359.301299 244.755808 
L 359.524473 243.597187 
L 359.688916 243.597187 
L 359.712408 242.438567 
L 366.372367 242.438567 
L 369.485046 241.279946 
L 376.544367 241.279946 
L 376.650081 240.121325 
L 376.708811 240.121325 
L 376.720556 238.962705 
L 377.578011 238.962705 
L 377.601503 237.804084 
L 379.375143 237.804084 
L 379.386889 236.645463 
L 382.69925 236.645463 
L 382.722741 235.486843 
L 385.929388 235.486843 
L 385.964626 234.328222 
L 386.246529 234.328222 
L 386.410973 230.85236 
L 393.963624 230.85236 
L 398.415343 229.693739 
L 402.091828 229.693739 
L 402.11532 228.535119 
L 402.432461 228.535119 
L 405.216253 227.376498 
L 406.050216 227.376498 
L 410.196539 226.217877 
L 410.337491 223.900636 
L 411.288914 222.742015 
L 414.319371 222.742015 
L 414.507306 219.266153 
L 418.230775 219.266153 
L 418.230775 219.266153 
L 418.418711 216.948912 
L 418.806327 215.790291 
L 421.507898 215.790291 
L 421.53139 214.63167 
L 427.60405 214.63167 
L 427.627542 213.47305 
L 427.909445 213.47305 
L 427.956429 212.314429 
L 429.401182 212.314429 
L 429.424674 211.155808 
L 430.000226 211.155808 
L 430.023718 209.997187 
L 430.564032 209.997187 
L 430.587524 208.838567 
L 435.814476 208.838567 
L 435.967173 206.521325 
L 436.777644 206.521325 
L 436.801136 205.362705 
L 437.024309 205.362705 
L 437.047801 204.204084 
L 437.270975 204.204084 
L 437.282721 203.045463 
L 437.599861 203.045463 
L 437.611607 201.886843 
L 437.787797 201.886843 
L 437.811289 200.728222 
L 439.479215 200.728222 
L 439.502707 199.569601 
L 441.49952 199.569601 
L 442.615386 198.410981 
L 443.073478 198.410981 
L 443.226176 196.093739 
L 448.053765 194.935119 
L 449.122647 193.776498 
L 451.401363 193.776498 
L 452.587705 192.617877 
L 456.275936 192.617877 
L 456.346412 191.459256 
L 460.504481 191.459256 
L 460.715909 190.300636 
L 469.478394 190.300636 
L 469.92474 187.983394 
L 474.482172 187.983394 
L 476.032639 186.824774 
L 477.759295 186.824774 
L 477.958976 184.507532 
L 478.017706 184.507532 
L 478.029452 183.348912 
L 484.090367 183.348912 
L 484.266556 182.190291 
L 492.39476 182.190291 
L 501.251213 181.03167 
L 501.286451 179.87305 
L 501.744543 179.87305 
L 501.756289 178.714429 
L 507.206414 178.714429 
L 507.734982 177.555808 
L 508.745135 177.555808 
L 508.803864 176.397187 
L 509.167989 176.397187 
L 509.297195 174.079946 
L 509.567352 174.079946 
L 510.260363 172.921325 
L 514.441925 172.921325 
L 514.453671 171.762705 
L 515.710488 171.762705 
L 520.960932 170.604084 
L 523.533297 170.604084 
L 523.556789 169.445463 
L 526.704706 169.445463 
L 527.761842 168.286843 
L 534.750688 168.286843 
L 535.044337 167.128222 
L 538.016064 167.128222 
L 538.063048 165.969601 
L 543.372221 165.969601 
L 545.686175 164.810981 
L 545.885857 163.65236 
L 546.0503 163.65236 
L 546.073792 162.493739 
L 548.599173 162.493739 
L 548.622665 161.335119 
L 558.536254 161.335119 
L 560.251164 160.176498 
L 569.459996 160.176498 
L 569.730153 159.017877 
L 573.418384 159.017877 
L 573.441876 157.859256 
L 574.076158 157.859256 
L 574.087904 156.700636 
L 579.173904 156.700636 
L 579.209142 155.542015 
L 579.984375 155.542015 
L 580.043105 154.383394 
L 580.301516 154.383394 
L 580.313262 153.224774 
L 580.877068 153.224774 
L 580.888814 152.066153 
L 581.241193 152.066153 
L 581.252939 150.907532 
L 584.013239 150.907532 
L 584.036731 149.748912 
L 585.49323 149.748912 
L 585.516722 148.590291 
L 586.890999 148.590291 
L 586.937983 147.43167 
L 589.204953 147.43167 
L 589.392888 146.27305 
L 609.267051 146.27305 
L 609.290543 145.114429 
L 609.631176 145.114429 
L 609.654668 143.955808 
L 609.9953 143.955808 
L 610.042284 142.797187 
L 610.453393 142.797187 
L 610.476885 141.638567 
L 610.841009 141.638567 
L 610.864501 140.479946 
L 611.980367 140.479946 
L 612.015605 139.321325 
L 623.726326 139.321325 
L 623.749818 138.162705 
L 631.478659 138.162705 
L 631.549135 137.004084 
L 631.889768 137.004084 
L 631.901514 135.845463 
L 632.183417 135.845463 
L 632.206909 134.686843 
L 633.616424 134.686843 
L 634.06277 133.528222 
L 639.606863 133.528222 
L 639.75956 132.369601 
L 644.070327 132.369601 
L 644.152549 131.210981 
L 644.540165 131.210981 
L 644.575403 130.05236 
L 652.586147 130.05236 
L 652.597893 128.893739 
L 653.161699 128.893739 
L 653.173445 127.735119 
L 653.490586 127.735119 
L 653.561062 125.417877 
L 653.725505 125.417877 
L 653.737251 124.259256 
L 653.97217 124.259256 
L 654.019154 121.942015 
L 654.254073 121.942015 
L 654.277565 120.783394 
L 654.500739 120.783394 
L 654.547722 119.624774 
L 654.676928 119.624774 
L 654.70042 118.466153 
L 656.661995 118.466153 
L 656.826438 117.307532 
L 664.907658 117.307532 
L 679.660583 116.148912 
L 738.78974 116.148912 
L 738.801486 114.990291 
L 739.106881 114.990291 
L 739.130373 113.83167 
L 784.54025 113.83167 
L 784.54025 113.83167 
L 784.575488 112.67305 
L 785.233261 112.67305 
L 785.268499 111.514429 
L 785.573894 111.514429 
L 785.58564 110.355808 
L 786.055478 110.355808 
L 786.07897 109.197187 
L 786.384365 109.197187 
L 786.407857 108.038567 
L 786.74849 108.038567 
L 786.771982 106.879946 
L 787.053885 106.879946 
L 787.18309 105.721325 
L 790.413229 105.721325 
L 791.141479 104.562705 
L 794.030984 104.562705 
L 794.066222 103.404084 
L 794.371617 103.404084 
L 794.383363 102.245463 
L 794.853202 102.245463 
L 794.900185 101.086843 
L 795.193834 101.086843 
L 795.240818 99.928222 
L 798.012865 99.928222 
L 798.118578 97.610981 
L 800.503008 97.610981 
L 800.632213 95.293739 
L 800.667451 95.293739 
L 800.702689 94.135119 
L 872.764147 94.135119 
L 872.858115 91.817877 
L 873.116526 91.817877 
L 873.140018 90.659256 
L 873.304461 90.659256 
L 873.327953 89.500636 
L 873.633348 89.500636 
L 873.65684 88.342015 
L 873.833029 88.342015 
L 873.844775 87.183394 
L 874.09144 87.183394 
L 874.114932 86.024774 
L 874.432073 86.024774 
L 874.455565 84.866153 
L 874.749214 84.866153 
L 874.76096 83.707532 
L 874.995879 83.707532 
L 875.019371 82.548912 
L 875.324766 82.548912 
L 875.336512 81.390291 
L 911.690255 81.390291 
L 911.713747 80.23167 
L 912.007396 80.23167 
L 912.113109 79.07305 
L 912.336283 79.07305 
L 912.348029 77.914429 
L 912.500726 77.914429 
L 912.535964 76.755808 
L 912.735645 76.755808 
L 912.817867 75.597187 
L 913.687068 75.597187 
L 913.71056 74.438567 
L 914.08643 74.438567 
L 914.180398 72.121325 
L 915.108329 72.121325 
L 915.155313 70.962705 
L 915.566421 70.962705 
L 915.601659 69.804084 
L 918.361959 69.804084 
L 984.315519 68.645463 
L 984.374249 67.486843 
L 984.773611 67.486843 
L 984.797103 66.328222 
L 984.996784 66.328222 
L 985.020276 65.169601 
L 985.419639 65.169601 
L 985.443131 64.010981 
L 985.865985 64.010981 
L 985.971699 62.85236 
L 985.995191 62.85236 
L 986.558997 61.693739 
L 1045.171332 61.693739 
L 1045.183078 60.535119 
L 1045.558948 60.535119 
L 1045.594186 59.376498 
L 1045.793868 59.376498 
L 1045.829106 58.217877 
L 1046.099263 58.217877 
L 1046.1345 57.059256 
L 1047.391318 57.059256 
L 1047.41481 55.900636 
L 1047.649729 55.900636 
L 1047.661475 54.742015 
L 1047.861156 54.742015 
L 1047.884648 53.583394 
L 1048.166551 53.583394 
L 1048.178297 52.424774 
L 1048.401471 52.424774 
L 1048.424962 51.266153 
L 1048.730357 51.266153 
L 1048.753849 50.107532 
L 1048.953531 50.107532 
L 1048.965277 48.948912 
L 1049.223688 48.948912 
L 1049.235434 47.790291 
L 1053.992547 47.790291 
L 1055.143651 46.63167 
L 1113.368369 46.63167 
L 1113.403607 45.47305 
L 1113.720748 45.47305 
L 1113.755986 44.314429 
L 1114.061381 44.314429 
L 1114.084873 43.155808 
L 1114.495981 43.155808 
L 1114.507727 41.997187 
L 1114.507727 41.997187 
" clip-path="url(#pfbae8b23a9)" style="fill: none; stroke: #0000ff; stroke-width: 1.5; stroke-linecap: square"/>
   </g>
   <g id="patch_68">
    <path d="M 49.235 359.517187 
L 49.235 26.877187 
" style="fill: none; stroke: #000000; stroke-width: 0.8; stroke-linejoin: miter; stroke-linecap: square"/>
   </g>
   <g id="patch_69">
    <path d="M 1165.235 359.517187 
L 1165.235 26.877187 
" style="fill: none; stroke: #000000; stroke-width: 0.8; stroke-linejoin: miter; stroke-linecap: square"/>
   </g>
   <g id="patch_70">
    <path d="M 49.235 359.517187 
L 1165.235 359.517187 
" style="fill: none; stroke: #000000; stroke-width: 0.8; stroke-linejoin: miter; stroke-linecap: square"/>
   </g>
   <g id="patch_71">
    <path d="M 49.235 26.877187 
L 1165.235 26.877187 
" style="fill: none; stroke: #000000; stroke-width: 0.8; stroke-linejoin: miter; stroke-linecap: square"/>
   </g>
   <g id="text_18">
    <!-- Pellet Count and Cumulative Sum Over Time of Group female Mouse M82 -->
    <g transform="translate(276.669219 20.877187) scale(0.18 -0.18)">
     <defs>
      <path id="DejaVuSans-61" d="M 2194 1759 
Q 1497 1759 1228 1600 
Q 959 1441 959 1056 
Q 959 750 1161 570 
Q 1363 391 1709 391 
Q 2188 391 2477 730 
Q 2766 1069 2766 1631 
L 2766 1759 
L 2194 1759 
z
M 3341 1997 
L 3341 0 
L 2766 0 
L 2766 531 
Q 2569 213 2275 61 
Q 1981 -91 1556 -91 
Q 1019 -91 701 211 
Q 384 513 384 1019 
Q 384 1609 779 1909 
Q 1175 2209 1959 2209 
L 2766 2209 
L 2766 2266 
Q 2766 2663 2505 2880 
Q 2244 3097 1772 3097 
Q 1472 3097 1187 3025 
Q 903 2953 641 2809 
L 641 3341 
Q 956 3463 1253 3523 
Q 1550 3584 1831 3584 
Q 2591 3584 2966 3190 
Q 3341 2797 3341 1997 
z
" transform="scale(0.015625)"/>
      <path id="DejaVuSans-64" d="M 2906 2969 
L 2906 4863 
L 3481 4863 
L 3481 0 
L 2906 0 
L 2906 525 
Q 2725 213 2448 61 
Q 2172 -91 1784 -91 
Q 1150 -91 751 415 
Q 353 922 353 1747 
Q 353 2572 751 3078 
Q 1150 3584 1784 3584 
Q 2172 3584 2448 3432 
Q 2725 3281 2906 2969 
z
M 947 1747 
Q 947 1113 1208 752 
Q 1469 391 1925 391 
Q 2381 391 2643 752 
Q 2906 1113 2906 1747 
Q 2906 2381 2643 2742 
Q 2381 3103 1925 3103 
Q 1469 3103 1208 2742 
Q 947 2381 947 1747 
z
" transform="scale(0.015625)"/>
      <path id="DejaVuSans-76" d="M 191 3500 
L 800 3500 
L 1894 563 
L 2988 3500 
L 3597 3500 
L 2284 0 
L 1503 0 
L 191 3500 
z
" transform="scale(0.015625)"/>
      <path id="DejaVuSans-53" d="M 3425 4513 
L 3425 3897 
Q 3066 4069 2747 4153 
Q 2428 4238 2131 4238 
Q 1616 4238 1336 4038 
Q 1056 3838 1056 3469 
Q 1056 3159 1242 3001 
Q 1428 2844 1947 2747 
L 2328 2669 
Q 3034 2534 3370 2195 
Q 3706 1856 3706 1288 
Q 3706 609 3251 259 
Q 2797 -91 1919 -91 
Q 1588 -91 1214 -16 
Q 841 59 441 206 
L 441 856 
Q 825 641 1194 531 
Q 1563 422 1919 422 
Q 2459 422 2753 634 
Q 3047 847 3047 1241 
Q 3047 1584 2836 1778 
Q 2625 1972 2144 2069 
L 1759 2144 
Q 1053 2284 737 2584 
Q 422 2884 422 3419 
Q 422 4038 858 4394 
Q 1294 4750 2059 4750 
Q 2388 4750 2728 4690 
Q 3069 4631 3425 4513 
z
" transform="scale(0.015625)"/>
      <path id="DejaVuSans-4f" d="M 2522 4238 
Q 1834 4238 1429 3725 
Q 1025 3213 1025 2328 
Q 1025 1447 1429 934 
Q 1834 422 2522 422 
Q 3209 422 3611 934 
Q 4013 1447 4013 2328 
Q 4013 3213 3611 3725 
Q 3209 4238 2522 4238 
z
M 2522 4750 
Q 3503 4750 4090 4092 
Q 4678 3434 4678 2328 
Q 4678 1225 4090 567 
Q 3503 -91 2522 -91 
Q 1538 -91 948 565 
Q 359 1222 359 2328 
Q 359 3434 948 4092 
Q 1538 4750 2522 4750 
z
" transform="scale(0.015625)"/>
      <path id="DejaVuSans-72" d="M 2631 2963 
Q 2534 3019 2420 3045 
Q 2306 3072 2169 3072 
Q 1681 3072 1420 2755 
Q 1159 2438 1159 1844 
L 1159 0 
L 581 0 
L 581 3500 
L 1159 3500 
L 1159 2956 
Q 1341 3275 1631 3429 
Q 1922 3584 2338 3584 
Q 2397 3584 2469 3576 
Q 2541 3569 2628 3553 
L 2631 2963 
z
" transform="scale(0.015625)"/>
      <path id="DejaVuSans-66" d="M 2375 4863 
L 2375 4384 
L 1825 4384 
Q 1516 4384 1395 4259 
Q 1275 4134 1275 3809 
L 1275 3500 
L 2222 3500 
L 2222 3053 
L 1275 3053 
L 1275 0 
L 697 0 
L 697 3053 
L 147 3053 
L 147 3500 
L 697 3500 
L 697 3744 
Q 697 4328 969 4595 
Q 1241 4863 1831 4863 
L 2375 4863 
z
" transform="scale(0.015625)"/>
      <path id="DejaVuSans-47" d="M 3809 666 
L 3809 1919 
L 2778 1919 
L 2778 2438 
L 4434 2438 
L 4434 434 
Q 4069 175 3628 42 
Q 3188 -91 2688 -91 
Q 1594 -91 976 548 
Q 359 1188 359 2328 
Q 359 3472 976 4111 
Q 1594 4750 2688 4750 
Q 3144 4750 3555 4637 
Q 3966 4525 4313 4306 
L 4313 3634 
Q 3963 3931 3569 4081 
Q 3175 4231 2741 4231 
Q 1884 4231 1454 3753 
Q 1025 3275 1025 2328 
Q 1025 1384 1454 906 
Q 1884 428 2741 428 
Q 3075 428 3337 486 
Q 3600 544 3809 666 
z
" transform="scale(0.015625)"/>
      <path id="DejaVuSans-70" d="M 1159 525 
L 1159 -1331 
L 581 -1331 
L 581 3500 
L 1159 3500 
L 1159 2969 
Q 1341 3281 1617 3432 
Q 1894 3584 2278 3584 
Q 2916 3584 3314 3078 
Q 3713 2572 3713 1747 
Q 3713 922 3314 415 
Q 2916 -91 2278 -91 
Q 1894 -91 1617 61 
Q 1341 213 1159 525 
z
M 3116 1747 
Q 3116 2381 2855 2742 
Q 2594 3103 2138 3103 
Q 1681 3103 1420 2742 
Q 1159 2381 1159 1747 
Q 1159 1113 1420 752 
Q 1681 391 2138 391 
Q 2594 391 2855 752 
Q 3116 1113 3116 1747 
z
" transform="scale(0.015625)"/>
      <path id="DejaVuSans-4d" d="M 628 4666 
L 1569 4666 
L 2759 1491 
L 3956 4666 
L 4897 4666 
L 4897 0 
L 4281 0 
L 4281 4097 
L 3078 897 
L 2444 897 
L 1241 4097 
L 1241 0 
L 628 0 
L 628 4666 
z
" transform="scale(0.015625)"/>
      <path id="DejaVuSans-73" d="M 2834 3397 
L 2834 2853 
Q 2591 2978 2328 3040 
Q 2066 3103 1784 3103 
Q 1356 3103 1142 2972 
Q 928 2841 928 2578 
Q 928 2378 1081 2264 
Q 1234 2150 1697 2047 
L 1894 2003 
Q 2506 1872 2764 1633 
Q 3022 1394 3022 966 
Q 3022 478 2636 193 
Q 2250 -91 1575 -91 
Q 1294 -91 989 -36 
Q 684 19 347 128 
L 347 722 
Q 666 556 975 473 
Q 1284 391 1588 391 
Q 1994 391 2212 530 
Q 2431 669 2431 922 
Q 2431 1156 2273 1281 
Q 2116 1406 1581 1522 
L 1381 1569 
Q 847 1681 609 1914 
Q 372 2147 372 2553 
Q 372 3047 722 3315 
Q 1072 3584 1716 3584 
Q 2034 3584 2315 3537 
Q 2597 3491 2834 3397 
z
" transform="scale(0.015625)"/>
     </defs>
     <use xlink:href="#DejaVuSans-50"/>
     <use xlink:href="#DejaVuSans-65" x="56.677734"/>
     <use xlink:href="#DejaVuSans-6c" x="118.201172"/>
     <use xlink:href="#DejaVuSans-6c" x="145.984375"/>
     <use xlink:href="#DejaVuSans-65" x="173.767578"/>
     <use xlink:href="#DejaVuSans-74" x="235.291016"/>
     <use xlink:href="#DejaVuSans-20" x="274.5"/>
     <use xlink:href="#DejaVuSans-43" x="306.287109"/>
     <use xlink:href="#DejaVuSans-6f" x="376.111328"/>
     <use xlink:href="#DejaVuSans-75" x="437.292969"/>
     <use xlink:href="#DejaVuSans-6e" x="500.671875"/>
     <use xlink:href="#DejaVuSans-74" x="564.050781"/>
     <use xlink:href="#DejaVuSans-20" x="603.259766"/>
     <use xlink:href="#DejaVuSans-61" x="635.046875"/>
     <use xlink:href="#DejaVuSans-6e" x="696.326172"/>
     <use xlink:href="#DejaVuSans-64" x="759.705078"/>
     <use xlink:href="#DejaVuSans-20" x="823.181641"/>
     <use xlink:href="#DejaVuSans-43" x="854.96875"/>
     <use xlink:href="#DejaVuSans-75" x="924.792969"/>
     <use xlink:href="#DejaVuSans-6d" x="988.171875"/>
     <use xlink:href="#DejaVuSans-75" x="1085.583984"/>
     <use xlink:href="#DejaVuSans-6c" x="1148.962891"/>
     <use xlink:href="#DejaVuSans-61" x="1176.746094"/>
     <use xlink:href="#DejaVuSans-74" x="1238.025391"/>
     <use xlink:href="#DejaVuSans-69" x="1277.234375"/>
     <use xlink:href="#DejaVuSans-76" x="1305.017578"/>
     <use xlink:href="#DejaVuSans-65" x="1364.197266"/>
     <use xlink:href="#DejaVuSans-20" x="1425.720703"/>
     <use xlink:href="#DejaVuSans-53" x="1457.507812"/>
     <use xlink:href="#DejaVuSans-75" x="1520.984375"/>
     <use xlink:href="#DejaVuSans-6d" x="1584.363281"/>
     <use xlink:href="#DejaVuSans-20" x="1681.775391"/>
     <use xlink:href="#DejaVuSans-4f" x="1713.5625"/>
     <use xlink:href="#DejaVuSans-76" x="1792.273438"/>
     <use xlink:href="#DejaVuSans-65" x="1851.453125"/>
     <use xlink:href="#DejaVuSans-72" x="1912.976562"/>
     <use xlink:href="#DejaVuSans-20" x="1954.089844"/>
     <use xlink:href="#DejaVuSans-54" x="1985.876953"/>
     <use xlink:href="#DejaVuSans-69" x="2043.835938"/>
     <use xlink:href="#DejaVuSans-6d" x="2071.619141"/>
     <use xlink:href="#DejaVuSans-65" x="2169.03125"/>
     <use xlink:href="#DejaVuSans-20" x="2230.554688"/>
     <use xlink:href="#DejaVuSans-6f" x="2262.341797"/>
     <use xlink:href="#DejaVuSans-66" x="2323.523438"/>
     <use xlink:href="#DejaVuSans-20" x="2358.728516"/>
     <use xlink:href="#DejaVuSans-47" x="2390.515625"/>
     <use xlink:href="#DejaVuSans-72" x="2468.005859"/>
     <use xlink:href="#DejaVuSans-6f" x="2506.869141"/>
     <use xlink:href="#DejaVuSans-75" x="2568.050781"/>
     <use xlink:href="#DejaVuSans-70" x="2631.429688"/>
     <use xlink:href="#DejaVuSans-20" x="2694.90625"/>
     <use xlink:href="#DejaVuSans-66" x="2726.693359"/>
     <use xlink:href="#DejaVuSans-65" x="2761.898438"/>
     <use xlink:href="#DejaVuSans-6d" x="2823.421875"/>
     <use xlink:href="#DejaVuSans-61" x="2920.833984"/>
     <use xlink:href="#DejaVuSans-6c" x="2982.113281"/>
     <use xlink:href="#DejaVuSans-65" x="3009.896484"/>
     <use xlink:href="#DejaVuSans-20" x="3071.419922"/>
     <use xlink:href="#DejaVuSans-4d" x="3103.207031"/>
     <use xlink:href="#DejaVuSans-6f" x="3189.486328"/>
     <use xlink:href="#DejaVuSans-75" x="3250.667969"/>
     <use xlink:href="#DejaVuSans-73" x="3314.046875"/>
     <use xlink:href="#DejaVuSans-65" x="3366.146484"/>
     <use xlink:href="#DejaVuSans-20" x="3427.669922"/>
     <use xlink:href="#DejaVuSans-4d" x="3459.457031"/>
     <use xlink:href="#DejaVuSans-38" x="3545.736328"/>
     <use xlink:href="#DejaVuSans-32" x="3609.359375"/>
    </g>
   </g>
   <g id="legend_1">
    <g id="patch_72">
     <path d="M 1086.550625 64.233437 
L 1158.235 64.233437 
Q 1160.235 64.233437 1160.235 62.233437 
L 1160.235 33.877187 
Q 1160.235 31.877187 1158.235 31.877187 
L 1086.550625 31.877187 
Q 1084.550625 31.877187 1084.550625 33.877187 
L 1084.550625 62.233437 
Q 1084.550625 64.233437 1086.550625 64.233437 
z
" style="fill: #ffffff; opacity: 0.8; stroke: #cccccc; stroke-linejoin: miter"/>
    </g>
    <g id="patch_73">
     <path d="M 1088.550625 43.475625 
L 1108.550625 43.475625 
L 1108.550625 36.475625 
L 1088.550625 36.475625 
z
" style="fill: #add8e6; opacity: 0.9; stroke: #add8e6; stroke-linejoin: miter"/>
    </g>
    <g id="text_19">
     <!-- Meal -->
     <g transform="translate(1116.550625 43.475625) scale(0.1 -0.1)">
      <use xlink:href="#DejaVuSans-4d"/>
      <use xlink:href="#DejaVuSans-65" x="86.279297"/>
      <use xlink:href="#DejaVuSans-61" x="147.802734"/>
      <use xlink:href="#DejaVuSans-6c" x="209.082031"/>
     </g>
    </g>
    <g id="patch_74">
     <path d="M 1088.550625 58.15375 
L 1108.550625 58.15375 
L 1108.550625 51.15375 
L 1088.550625 51.15375 
z
" style="fill: #808080; opacity: 0.5; stroke: #808080; stroke-linejoin: miter"/>
    </g>
    <g id="text_20">
     <!-- Inactive -->
     <g transform="translate(1116.550625 58.15375) scale(0.1 -0.1)">
      <defs>
       <path id="DejaVuSans-49" d="M 628 4666 
L 1259 4666 
L 1259 0 
L 628 0 
L 628 4666 
z
" transform="scale(0.015625)"/>
       <path id="DejaVuSans-63" d="M 3122 3366 
L 3122 2828 
Q 2878 2963 2633 3030 
Q 2388 3097 2138 3097 
Q 1578 3097 1268 2742 
Q 959 2388 959 1747 
Q 959 1106 1268 751 
Q 1578 397 2138 397 
Q 2388 397 2633 464 
Q 2878 531 3122 666 
L 3122 134 
Q 2881 22 2623 -34 
Q 2366 -91 2075 -91 
Q 1284 -91 818 406 
Q 353 903 353 1747 
Q 353 2603 823 3093 
Q 1294 3584 2113 3584 
Q 2378 3584 2631 3529 
Q 2884 3475 3122 3366 
z
" transform="scale(0.015625)"/>
      </defs>
      <use xlink:href="#DejaVuSans-49"/>
      <use xlink:href="#DejaVuSans-6e" x="29.492188"/>
      <use xlink:href="#DejaVuSans-61" x="92.871094"/>
      <use xlink:href="#DejaVuSans-63" x="154.150391"/>
      <use xlink:href="#DejaVuSans-74" x="209.130859"/>
      <use xlink:href="#DejaVuSans-69" x="248.339844"/>
      <use xlink:href="#DejaVuSans-76" x="276.123047"/>
      <use xlink:href="#DejaVuSans-65" x="335.302734"/>
     </g>
    </g>
   </g>
  </g>
 </g>
 <defs>
  <clipPath id="pfbae8b23a9">
   <rect x="49.235" y="26.877187" width="1116" height="332.64"/>
  </clipPath>
 </defs>
</svg>
