<?xml version="1.0" encoding="utf-8" standalone="no"?>
<!DOCTYPE svg PUBLIC "-//W3C//DTD SVG 1.1//EN"
  "http://www.w3.org/Graphics/SVG/1.1/DTD/svg11.dtd">
<svg xmlns:xlink="http://www.w3.org/1999/xlink" width="455.428125pt" height="454.865pt" viewBox="0 0 455.428125 454.865" xmlns="http://www.w3.org/2000/svg" version="1.1">
 <metadata>
  <rdf:RDF xmlns:dc="http://purl.org/dc/elements/1.1/" xmlns:cc="http://creativecommons.org/ns#" xmlns:rdf="http://www.w3.org/1999/02/22-rdf-syntax-ns#">
   <cc:Work>
    <dc:type rdf:resource="http://purl.org/dc/dcmitype/StillImage"/>
    <dc:date>2025-04-10T14:52:57.739034</dc:date>
    <dc:format>image/svg+xml</dc:format>
    <dc:creator>
     <cc:Agent>
      <dc:title>Matplotlib v3.8.3, https://matplotlib.org/</dc:title>
     </cc:Agent>
    </dc:creator>
   </cc:Work>
  </rdf:RDF>
 </metadata>
 <defs>
  <style type="text/css">*{stroke-linejoin: round; stroke-linecap: butt}</style>
 </defs>
 <g id="figure_1">
  <g id="patch_1">
   <path d="M 0 454.865 
L 455.428125 454.865 
L 455.428125 0 
L 0 0 
z
" style="fill: #ffffff"/>
  </g>
  <g id="axes_1">
   <g id="patch_2">
    <path d="M 44.474375 413.4375 
L 435.074375 413.4375 
L 435.074375 25.3575 
L 44.474375 25.3575 
z
" style="fill: #ffffff"/>
   </g>
   <g id="PolyCollection_1">
    <defs>
     <path id="mef277faa66" d="M 118.653183 -59.0675 
L 107.259203 -59.0675 
L 106.925248 -62.140365 
L 106.565526 -65.213229 
L 106.174344 -68.286094 
L 105.745631 -71.358958 
L 105.273103 -74.431823 
L 104.75046 -77.504688 
L 104.171584 -80.577552 
L 103.530756 -83.650417 
L 102.822864 -86.723281 
L 102.043604 -89.796146 
L 101.189654 -92.869011 
L 100.258827 -95.941875 
L 99.250185 -99.01474 
L 98.164111 -102.087605 
L 97.002339 -105.160469 
L 95.767941 -108.233334 
L 94.465265 -111.306198 
L 93.09984 -114.379063 
L 91.678246 -117.451928 
L 90.207949 -120.524792 
L 88.697137 -123.597657 
L 87.154528 -126.670521 
L 85.589194 -129.743386 
L 84.01039 -132.816251 
L 82.427406 -135.889115 
L 80.849439 -138.96198 
L 79.2855 -142.034844 
L 77.744349 -145.107709 
L 76.234457 -148.180574 
L 74.764006 -151.253438 
L 73.340896 -154.326303 
L 71.972773 -157.399168 
L 70.667068 -160.472032 
L 69.431016 -163.544897 
L 68.27168 -166.617761 
L 67.19594 -169.690626 
L 66.210466 -172.763491 
L 65.321649 -175.836355 
L 64.535509 -178.90922 
L 63.857568 -181.982084 
L 63.292699 -185.054949 
L 62.844951 -188.127814 
L 62.517378 -191.200678 
L 62.311854 -194.273543 
L 62.22892 -197.346407 
L 62.267653 -200.419272 
L 62.42557 -203.492137 
L 62.698593 -206.565001 
L 63.081069 -209.637866 
L 63.565849 -212.71073 
L 64.14444 -215.783595 
L 64.807207 -218.85646 
L 65.543643 -221.929324 
L 66.342674 -225.002189 
L 67.192996 -228.075054 
L 68.083432 -231.147918 
L 69.00328 -234.220783 
L 69.942648 -237.293647 
L 70.892749 -240.366512 
L 71.846139 -243.439377 
L 72.796901 -246.512241 
L 73.740739 -249.585106 
L 74.675007 -252.65797 
L 75.598644 -255.730835 
L 76.51204 -258.8037 
L 77.416824 -261.876564 
L 78.3156 -264.949429 
L 79.211637 -268.022293 
L 80.108532 -271.095158 
L 81.009871 -274.168023 
L 81.918894 -277.240887 
L 82.838202 -280.313752 
L 83.769505 -283.386616 
L 84.71343 -286.459481 
L 85.669408 -289.532346 
L 86.635628 -292.60521 
L 87.609081 -295.678075 
L 88.585672 -298.75094 
L 89.560397 -301.823804 
L 90.527584 -304.896669 
L 91.481167 -307.969533 
L 92.414986 -311.042398 
L 93.323098 -314.115263 
L 94.200069 -317.188127 
L 95.041239 -320.260992 
L 95.842945 -323.333856 
L 96.602689 -326.406721 
L 97.319237 -329.479586 
L 97.992657 -332.55245 
L 98.624286 -335.625315 
L 99.216627 -338.698179 
L 99.773201 -341.771044 
L 100.298341 -344.843909 
L 100.796958 -347.916773 
L 101.274287 -350.989638 
L 101.735629 -354.062503 
L 102.186094 -357.135367 
L 102.630379 -360.208232 
L 103.072567 -363.281096 
L 122.839819 -363.281096 
L 122.839819 -363.281096 
L 123.282008 -360.208232 
L 123.726293 -357.135367 
L 124.176758 -354.062503 
L 124.638099 -350.989638 
L 125.115428 -347.916773 
L 125.614045 -344.843909 
L 126.139185 -341.771044 
L 126.695759 -338.698179 
L 127.288101 -335.625315 
L 127.919729 -332.55245 
L 128.59315 -329.479586 
L 129.309698 -326.406721 
L 130.069441 -323.333856 
L 130.871147 -320.260992 
L 131.712317 -317.188127 
L 132.589288 -314.115263 
L 133.4974 -311.042398 
L 134.43122 -307.969533 
L 135.384802 -304.896669 
L 136.351989 -301.823804 
L 137.326714 -298.75094 
L 138.303305 -295.678075 
L 139.276759 -292.60521 
L 140.242979 -289.532346 
L 141.198956 -286.459481 
L 142.142881 -283.386616 
L 143.074184 -280.313752 
L 143.993493 -277.240887 
L 144.902516 -274.168023 
L 145.803854 -271.095158 
L 146.700749 -268.022293 
L 147.596786 -264.949429 
L 148.495562 -261.876564 
L 149.400346 -258.8037 
L 150.313742 -255.730835 
L 151.237379 -252.65797 
L 152.171647 -249.585106 
L 153.115486 -246.512241 
L 154.066247 -243.439377 
L 155.019638 -240.366512 
L 155.969738 -237.293647 
L 156.909107 -234.220783 
L 157.828955 -231.147918 
L 158.71939 -228.075054 
L 159.569712 -225.002189 
L 160.368743 -221.929324 
L 161.10518 -218.85646 
L 161.767947 -215.783595 
L 162.346537 -212.71073 
L 162.831317 -209.637866 
L 163.213793 -206.565001 
L 163.486817 -203.492137 
L 163.644733 -200.419272 
L 163.683466 -197.346407 
L 163.600533 -194.273543 
L 163.395009 -191.200678 
L 163.067435 -188.127814 
L 162.619688 -185.054949 
L 162.054818 -181.982084 
L 161.376878 -178.90922 
L 160.590738 -175.836355 
L 159.701921 -172.763491 
L 158.716446 -169.690626 
L 157.640707 -166.617761 
L 156.481371 -163.544897 
L 155.245319 -160.472032 
L 153.939613 -157.399168 
L 152.571491 -154.326303 
L 151.14838 -151.253438 
L 149.677929 -148.180574 
L 148.168038 -145.107709 
L 146.626886 -142.034844 
L 145.062947 -138.96198 
L 143.484981 -135.889115 
L 141.901997 -132.816251 
L 140.323193 -129.743386 
L 138.757858 -126.670521 
L 137.215249 -123.597657 
L 135.704437 -120.524792 
L 134.234141 -117.451928 
L 132.812546 -114.379063 
L 131.447122 -111.306198 
L 130.144446 -108.233334 
L 128.910047 -105.160469 
L 127.748275 -102.087605 
L 126.662201 -99.01474 
L 125.653559 -95.941875 
L 124.722733 -92.869011 
L 123.868783 -89.796146 
L 123.089522 -86.723281 
L 122.381631 -83.650417 
L 121.740803 -80.577552 
L 121.161926 -77.504688 
L 120.639283 -74.431823 
L 120.166756 -71.358958 
L 119.738042 -68.286094 
L 119.34686 -65.213229 
L 118.987138 -62.140365 
L 118.653183 -59.0675 
z
" style="stroke: #000000; stroke-opacity: 0.8"/>
    </defs>
    <g clip-path="url(#pb9bfb9307a)">
     <use xlink:href="#mef277faa66" x="0" y="454.865" style="fill: #add8e6; fill-opacity: 0.8; stroke: #000000; stroke-opacity: 0.8"/>
    </g>
   </g>
   <g id="PolyCollection_2">
    <defs>
     <path id="m961639c88b" d="M 390.612834 -89.996579 
L 342.57228 -89.996579 
L 340.975144 -93.2478 
L 339.35505 -96.499022 
L 337.719092 -99.750243 
L 336.074933 -103.001464 
L 334.430796 -106.252686 
L 332.795458 -109.503907 
L 331.178229 -112.755129 
L 329.588905 -116.00635 
L 328.037706 -119.257572 
L 326.535187 -122.508793 
L 325.092123 -125.760014 
L 323.719368 -129.011236 
L 322.427685 -132.262457 
L 321.227559 -135.513679 
L 320.12899 -138.7649 
L 319.141272 -142.016122 
L 318.272772 -145.267343 
L 317.530708 -148.518564 
L 316.920945 -151.769786 
L 316.447807 -155.021007 
L 316.113922 -158.272229 
L 315.920105 -161.52345 
L 315.865284 -164.774672 
L 315.946472 -168.025893 
L 316.158793 -171.277114 
L 316.49556 -174.528336 
L 316.948398 -177.779557 
L 317.507422 -181.030779 
L 318.161445 -184.282 
L 318.898233 -187.533222 
L 319.704777 -190.784443 
L 320.567586 -194.035664 
L 321.47299 -197.286886 
L 322.407439 -200.538107 
L 323.357798 -203.789329 
L 324.311617 -207.04055 
L 325.257384 -210.291771 
L 326.184747 -213.542993 
L 327.084693 -216.794214 
L 327.949701 -220.045436 
L 328.773844 -223.296657 
L 329.552852 -226.547879 
L 330.28414 -229.7991 
L 330.966786 -233.050321 
L 331.601474 -236.301543 
L 332.190405 -239.552764 
L 332.737169 -242.803986 
L 333.246593 -246.055207 
L 333.724562 -249.306429 
L 334.177819 -252.55765 
L 334.613755 -255.808871 
L 335.040185 -259.060093 
L 335.465121 -262.311314 
L 335.896543 -265.562536 
L 336.342183 -268.813757 
L 336.809315 -272.064979 
L 337.30456 -275.3162 
L 337.833715 -278.567421 
L 338.401607 -281.818643 
L 339.011968 -285.069864 
L 339.667348 -288.321086 
L 340.369057 -291.572307 
L 341.117136 -294.823529 
L 341.910367 -298.07475 
L 342.746311 -301.325971 
L 343.621376 -304.577193 
L 344.530917 -307.828414 
L 345.469353 -311.079636 
L 346.430316 -314.330857 
L 347.406809 -317.582079 
L 348.391378 -320.8333 
L 349.376293 -324.084521 
L 350.353733 -327.335743 
L 351.315969 -330.586964 
L 352.255538 -333.838186 
L 353.16541 -337.089407 
L 354.039142 -340.340629 
L 354.871008 -343.59185 
L 355.656114 -346.843071 
L 356.390487 -350.094293 
L 357.071141 -353.345514 
L 357.696113 -356.596736 
L 358.264478 -359.847957 
L 358.776333 -363.099179 
L 359.232759 -366.3504 
L 359.63576 -369.601621 
L 359.988175 -372.852843 
L 360.293579 -376.104064 
L 360.556164 -379.355286 
L 360.78061 -382.606507 
L 360.971947 -385.857729 
L 361.135417 -389.10895 
L 361.276332 -392.360171 
L 361.399937 -395.611393 
L 361.511288 -398.862614 
L 361.615131 -402.113836 
L 361.715804 -405.365057 
L 361.817155 -408.616279 
L 361.922473 -411.8675 
L 371.262641 -411.8675 
L 371.262641 -411.8675 
L 371.367959 -408.616279 
L 371.469309 -405.365057 
L 371.569983 -402.113836 
L 371.673826 -398.862614 
L 371.785176 -395.611393 
L 371.908782 -392.360171 
L 372.049697 -389.10895 
L 372.213167 -385.857729 
L 372.404504 -382.606507 
L 372.62895 -379.355286 
L 372.891534 -376.104064 
L 373.196938 -372.852843 
L 373.549354 -369.601621 
L 373.952354 -366.3504 
L 374.408781 -363.099179 
L 374.920636 -359.847957 
L 375.489001 -356.596736 
L 376.113972 -353.345514 
L 376.794626 -350.094293 
L 377.528999 -346.843071 
L 378.314106 -343.59185 
L 379.145972 -340.340629 
L 380.019704 -337.089407 
L 380.929576 -333.838186 
L 381.869145 -330.586964 
L 382.83138 -327.335743 
L 383.808821 -324.084521 
L 384.793736 -320.8333 
L 385.778305 -317.582079 
L 386.754798 -314.330857 
L 387.715761 -311.079636 
L 388.654197 -307.828414 
L 389.563737 -304.577193 
L 390.438802 -301.325971 
L 391.274746 -298.07475 
L 392.067978 -294.823529 
L 392.816057 -291.572307 
L 393.517766 -288.321086 
L 394.173146 -285.069864 
L 394.783507 -281.818643 
L 395.351398 -278.567421 
L 395.880554 -275.3162 
L 396.375799 -272.064979 
L 396.84293 -268.813757 
L 397.288571 -265.562536 
L 397.719993 -262.311314 
L 398.144928 -259.060093 
L 398.571358 -255.808871 
L 399.007295 -252.55765 
L 399.460552 -249.306429 
L 399.93852 -246.055207 
L 400.447945 -242.803986 
L 400.994709 -239.552764 
L 401.58364 -236.301543 
L 402.218328 -233.050321 
L 402.900974 -229.7991 
L 403.632262 -226.547879 
L 404.41127 -223.296657 
L 405.235412 -220.045436 
L 406.10042 -216.794214 
L 407.000367 -213.542993 
L 407.927729 -210.291771 
L 408.873497 -207.04055 
L 409.827316 -203.789329 
L 410.777674 -200.538107 
L 411.712124 -197.286886 
L 412.617528 -194.035664 
L 413.480337 -190.784443 
L 414.286881 -187.533222 
L 415.023669 -184.282 
L 415.677692 -181.030779 
L 416.236715 -177.779557 
L 416.689554 -174.528336 
L 417.026321 -171.277114 
L 417.238642 -168.025893 
L 417.31983 -164.774672 
L 417.265008 -161.52345 
L 417.071192 -158.272229 
L 416.737306 -155.021007 
L 416.264168 -151.769786 
L 415.654405 -148.518564 
L 414.912342 -145.267343 
L 414.043842 -142.016122 
L 413.056124 -138.7649 
L 411.957555 -135.513679 
L 410.757429 -132.262457 
L 409.465746 -129.011236 
L 408.09299 -125.760014 
L 406.649927 -122.508793 
L 405.147408 -119.257572 
L 403.596209 -116.00635 
L 402.006885 -112.755129 
L 400.389655 -109.503907 
L 398.754318 -106.252686 
L 397.11018 -103.001464 
L 395.466021 -99.750243 
L 393.830064 -96.499022 
L 392.209969 -93.2478 
L 390.612834 -89.996579 
z
" style="stroke: #000000; stroke-opacity: 0.8"/>
    </defs>
    <g clip-path="url(#pb9bfb9307a)">
     <use xlink:href="#m961639c88b" x="0" y="454.865" style="fill: #ffff00; fill-opacity: 0.8; stroke: #000000; stroke-opacity: 0.8"/>
    </g>
   </g>
   <g id="matplotlib.axis_1">
    <g id="xtick_1">
     <g id="line2d_1">
      <defs>
       <path id="m016c673d39" d="M 0 0 
L 0 3.5 
" style="stroke: #000000; stroke-width: 0.8"/>
      </defs>
      <g>
       <use xlink:href="#m016c673d39" x="112.956193" y="413.4375" style="stroke: #000000; stroke-width: 0.8"/>
      </g>
     </g>
     <g id="text_1">
      <!-- Ctrl -->
      <g transform="translate(104.060099 428.035937) scale(0.1 -0.1)">
       <defs>
        <path id="DejaVuSans-43" d="M 4122 4306 
L 4122 3641 
Q 3803 3938 3442 4084 
Q 3081 4231 2675 4231 
Q 1875 4231 1450 3742 
Q 1025 3253 1025 2328 
Q 1025 1406 1450 917 
Q 1875 428 2675 428 
Q 3081 428 3442 575 
Q 3803 722 4122 1019 
L 4122 359 
Q 3791 134 3420 21 
Q 3050 -91 2638 -91 
Q 1578 -91 968 557 
Q 359 1206 359 2328 
Q 359 3453 968 4101 
Q 1578 4750 2638 4750 
Q 3056 4750 3426 4639 
Q 3797 4528 4122 4306 
z
" transform="scale(0.015625)"/>
        <path id="DejaVuSans-74" d="M 1172 4494 
L 1172 3500 
L 2356 3500 
L 2356 3053 
L 1172 3053 
L 1172 1153 
Q 1172 725 1289 603 
Q 1406 481 1766 481 
L 2356 481 
L 2356 0 
L 1766 0 
Q 1100 0 847 248 
Q 594 497 594 1153 
L 594 3053 
L 172 3053 
L 172 3500 
L 594 3500 
L 594 4494 
L 1172 4494 
z
" transform="scale(0.015625)"/>
        <path id="DejaVuSans-72" d="M 2631 2963 
Q 2534 3019 2420 3045 
Q 2306 3072 2169 3072 
Q 1681 3072 1420 2755 
Q 1159 2438 1159 1844 
L 1159 0 
L 581 0 
L 581 3500 
L 1159 3500 
L 1159 2956 
Q 1341 3275 1631 3429 
Q 1922 3584 2338 3584 
Q 2397 3584 2469 3576 
Q 2541 3569 2628 3553 
L 2631 2963 
z
" transform="scale(0.015625)"/>
        <path id="DejaVuSans-6c" d="M 603 4863 
L 1178 4863 
L 1178 0 
L 603 0 
L 603 4863 
z
" transform="scale(0.015625)"/>
       </defs>
       <use xlink:href="#DejaVuSans-43"/>
       <use xlink:href="#DejaVuSans-74" x="69.824219"/>
       <use xlink:href="#DejaVuSans-72" x="109.033203"/>
       <use xlink:href="#DejaVuSans-6c" x="150.146484"/>
      </g>
     </g>
    </g>
    <g id="xtick_2">
     <g id="line2d_2">
      <g>
       <use xlink:href="#m016c673d39" x="366.592557" y="413.4375" style="stroke: #000000; stroke-width: 0.8"/>
      </g>
     </g>
     <g id="text_2">
      <!-- Cask -->
      <g transform="translate(354.537088 428.035937) scale(0.1 -0.1)">
       <defs>
        <path id="DejaVuSans-61" d="M 2194 1759 
Q 1497 1759 1228 1600 
Q 959 1441 959 1056 
Q 959 750 1161 570 
Q 1363 391 1709 391 
Q 2188 391 2477 730 
Q 2766 1069 2766 1631 
L 2766 1759 
L 2194 1759 
z
M 3341 1997 
L 3341 0 
L 2766 0 
L 2766 531 
Q 2569 213 2275 61 
Q 1981 -91 1556 -91 
Q 1019 -91 701 211 
Q 384 513 384 1019 
Q 384 1609 779 1909 
Q 1175 2209 1959 2209 
L 2766 2209 
L 2766 2266 
Q 2766 2663 2505 2880 
Q 2244 3097 1772 3097 
Q 1472 3097 1187 3025 
Q 903 2953 641 2809 
L 641 3341 
Q 956 3463 1253 3523 
Q 1550 3584 1831 3584 
Q 2591 3584 2966 3190 
Q 3341 2797 3341 1997 
z
" transform="scale(0.015625)"/>
        <path id="DejaVuSans-73" d="M 2834 3397 
L 2834 2853 
Q 2591 2978 2328 3040 
Q 2066 3103 1784 3103 
Q 1356 3103 1142 2972 
Q 928 2841 928 2578 
Q 928 2378 1081 2264 
Q 1234 2150 1697 2047 
L 1894 2003 
Q 2506 1872 2764 1633 
Q 3022 1394 3022 966 
Q 3022 478 2636 193 
Q 2250 -91 1575 -91 
Q 1294 -91 989 -36 
Q 684 19 347 128 
L 347 722 
Q 666 556 975 473 
Q 1284 391 1588 391 
Q 1994 391 2212 530 
Q 2431 669 2431 922 
Q 2431 1156 2273 1281 
Q 2116 1406 1581 1522 
L 1381 1569 
Q 847 1681 609 1914 
Q 372 2147 372 2553 
Q 372 3047 722 3315 
Q 1072 3584 1716 3584 
Q 2034 3584 2315 3537 
Q 2597 3491 2834 3397 
z
" transform="scale(0.015625)"/>
        <path id="DejaVuSans-6b" d="M 581 4863 
L 1159 4863 
L 1159 1991 
L 2875 3500 
L 3609 3500 
L 1753 1863 
L 3688 0 
L 2938 0 
L 1159 1709 
L 1159 0 
L 581 0 
L 581 4863 
z
" transform="scale(0.015625)"/>
       </defs>
       <use xlink:href="#DejaVuSans-43"/>
       <use xlink:href="#DejaVuSans-61" x="69.824219"/>
       <use xlink:href="#DejaVuSans-73" x="131.103516"/>
       <use xlink:href="#DejaVuSans-6b" x="183.203125"/>
      </g>
     </g>
    </g>
    <g id="text_3">
     <!-- Groups -->
     <g transform="translate(214.820469 444.753438) scale(0.14 -0.14)">
      <defs>
       <path id="DejaVuSans-47" d="M 3809 666 
L 3809 1919 
L 2778 1919 
L 2778 2438 
L 4434 2438 
L 4434 434 
Q 4069 175 3628 42 
Q 3188 -91 2688 -91 
Q 1594 -91 976 548 
Q 359 1188 359 2328 
Q 359 3472 976 4111 
Q 1594 4750 2688 4750 
Q 3144 4750 3555 4637 
Q 3966 4525 4313 4306 
L 4313 3634 
Q 3963 3931 3569 4081 
Q 3175 4231 2741 4231 
Q 1884 4231 1454 3753 
Q 1025 3275 1025 2328 
Q 1025 1384 1454 906 
Q 1884 428 2741 428 
Q 3075 428 3337 486 
Q 3600 544 3809 666 
z
" transform="scale(0.015625)"/>
       <path id="DejaVuSans-6f" d="M 1959 3097 
Q 1497 3097 1228 2736 
Q 959 2375 959 1747 
Q 959 1119 1226 758 
Q 1494 397 1959 397 
Q 2419 397 2687 759 
Q 2956 1122 2956 1747 
Q 2956 2369 2687 2733 
Q 2419 3097 1959 3097 
z
M 1959 3584 
Q 2709 3584 3137 3096 
Q 3566 2609 3566 1747 
Q 3566 888 3137 398 
Q 2709 -91 1959 -91 
Q 1206 -91 779 398 
Q 353 888 353 1747 
Q 353 2609 779 3096 
Q 1206 3584 1959 3584 
z
" transform="scale(0.015625)"/>
       <path id="DejaVuSans-75" d="M 544 1381 
L 544 3500 
L 1119 3500 
L 1119 1403 
Q 1119 906 1312 657 
Q 1506 409 1894 409 
Q 2359 409 2629 706 
Q 2900 1003 2900 1516 
L 2900 3500 
L 3475 3500 
L 3475 0 
L 2900 0 
L 2900 538 
Q 2691 219 2414 64 
Q 2138 -91 1772 -91 
Q 1169 -91 856 284 
Q 544 659 544 1381 
z
M 1991 3584 
L 1991 3584 
z
" transform="scale(0.015625)"/>
       <path id="DejaVuSans-70" d="M 1159 525 
L 1159 -1331 
L 581 -1331 
L 581 3500 
L 1159 3500 
L 1159 2969 
Q 1341 3281 1617 3432 
Q 1894 3584 2278 3584 
Q 2916 3584 3314 3078 
Q 3713 2572 3713 1747 
Q 3713 922 3314 415 
Q 2916 -91 2278 -91 
Q 1894 -91 1617 61 
Q 1341 213 1159 525 
z
M 3116 1747 
Q 3116 2381 2855 2742 
Q 2594 3103 2138 3103 
Q 1681 3103 1420 2742 
Q 1159 2381 1159 1747 
Q 1159 1113 1420 752 
Q 1681 391 2138 391 
Q 2594 391 2855 752 
Q 3116 1113 3116 1747 
z
" transform="scale(0.015625)"/>
      </defs>
      <use xlink:href="#DejaVuSans-47"/>
      <use xlink:href="#DejaVuSans-72" x="77.490234"/>
      <use xlink:href="#DejaVuSans-6f" x="116.353516"/>
      <use xlink:href="#DejaVuSans-75" x="177.535156"/>
      <use xlink:href="#DejaVuSans-70" x="240.914062"/>
      <use xlink:href="#DejaVuSans-73" x="304.390625"/>
     </g>
    </g>
   </g>
   <g id="matplotlib.axis_2">
    <g id="ytick_1">
     <g id="line2d_3">
      <defs>
       <path id="m1be087c42e" d="M 0 0 
L -3.5 0 
" style="stroke: #000000; stroke-width: 0.8"/>
      </defs>
      <g>
       <use xlink:href="#m1be087c42e" x="44.474375" y="402.745393" style="stroke: #000000; stroke-width: 0.8"/>
      </g>
     </g>
     <g id="text_4">
      <!-- 30 -->
      <g transform="translate(24.749375 406.544612) scale(0.1 -0.1)">
       <defs>
        <path id="DejaVuSans-33" d="M 2597 2516 
Q 3050 2419 3304 2112 
Q 3559 1806 3559 1356 
Q 3559 666 3084 287 
Q 2609 -91 1734 -91 
Q 1441 -91 1130 -33 
Q 819 25 488 141 
L 488 750 
Q 750 597 1062 519 
Q 1375 441 1716 441 
Q 2309 441 2620 675 
Q 2931 909 2931 1356 
Q 2931 1769 2642 2001 
Q 2353 2234 1838 2234 
L 1294 2234 
L 1294 2753 
L 1863 2753 
Q 2328 2753 2575 2939 
Q 2822 3125 2822 3475 
Q 2822 3834 2567 4026 
Q 2313 4219 1838 4219 
Q 1578 4219 1281 4162 
Q 984 4106 628 3988 
L 628 4550 
Q 988 4650 1302 4700 
Q 1616 4750 1894 4750 
Q 2613 4750 3031 4423 
Q 3450 4097 3450 3541 
Q 3450 3153 3228 2886 
Q 3006 2619 2597 2516 
z
" transform="scale(0.015625)"/>
        <path id="DejaVuSans-30" d="M 2034 4250 
Q 1547 4250 1301 3770 
Q 1056 3291 1056 2328 
Q 1056 1369 1301 889 
Q 1547 409 2034 409 
Q 2525 409 2770 889 
Q 3016 1369 3016 2328 
Q 3016 3291 2770 3770 
Q 2525 4250 2034 4250 
z
M 2034 4750 
Q 2819 4750 3233 4129 
Q 3647 3509 3647 2328 
Q 3647 1150 3233 529 
Q 2819 -91 2034 -91 
Q 1250 -91 836 529 
Q 422 1150 422 2328 
Q 422 3509 836 4129 
Q 1250 4750 2034 4750 
z
" transform="scale(0.015625)"/>
       </defs>
       <use xlink:href="#DejaVuSans-33"/>
       <use xlink:href="#DejaVuSans-30" x="63.623047"/>
      </g>
     </g>
    </g>
    <g id="ytick_2">
     <g id="line2d_4">
      <g>
       <use xlink:href="#m1be087c42e" x="44.474375" y="334.413824" style="stroke: #000000; stroke-width: 0.8"/>
      </g>
     </g>
     <g id="text_5">
      <!-- 35 -->
      <g transform="translate(24.749375 338.213042) scale(0.1 -0.1)">
       <defs>
        <path id="DejaVuSans-35" d="M 691 4666 
L 3169 4666 
L 3169 4134 
L 1269 4134 
L 1269 2991 
Q 1406 3038 1543 3061 
Q 1681 3084 1819 3084 
Q 2600 3084 3056 2656 
Q 3513 2228 3513 1497 
Q 3513 744 3044 326 
Q 2575 -91 1722 -91 
Q 1428 -91 1123 -41 
Q 819 9 494 109 
L 494 744 
Q 775 591 1075 516 
Q 1375 441 1709 441 
Q 2250 441 2565 725 
Q 2881 1009 2881 1497 
Q 2881 1984 2565 2268 
Q 2250 2553 1709 2553 
Q 1456 2553 1204 2497 
Q 953 2441 691 2322 
L 691 4666 
z
" transform="scale(0.015625)"/>
       </defs>
       <use xlink:href="#DejaVuSans-33"/>
       <use xlink:href="#DejaVuSans-35" x="63.623047"/>
      </g>
     </g>
    </g>
    <g id="ytick_3">
     <g id="line2d_5">
      <g>
       <use xlink:href="#m1be087c42e" x="44.474375" y="266.082254" style="stroke: #000000; stroke-width: 0.8"/>
      </g>
     </g>
     <g id="text_6">
      <!-- 40 -->
      <g transform="translate(24.749375 269.881473) scale(0.1 -0.1)">
       <defs>
        <path id="DejaVuSans-34" d="M 2419 4116 
L 825 1625 
L 2419 1625 
L 2419 4116 
z
M 2253 4666 
L 3047 4666 
L 3047 1625 
L 3713 1625 
L 3713 1100 
L 3047 1100 
L 3047 0 
L 2419 0 
L 2419 1100 
L 313 1100 
L 313 1709 
L 2253 4666 
z
" transform="scale(0.015625)"/>
       </defs>
       <use xlink:href="#DejaVuSans-34"/>
       <use xlink:href="#DejaVuSans-30" x="63.623047"/>
      </g>
     </g>
    </g>
    <g id="ytick_4">
     <g id="line2d_6">
      <g>
       <use xlink:href="#m1be087c42e" x="44.474375" y="197.750684" style="stroke: #000000; stroke-width: 0.8"/>
      </g>
     </g>
     <g id="text_7">
      <!-- 45 -->
      <g transform="translate(24.749375 201.549903) scale(0.1 -0.1)">
       <use xlink:href="#DejaVuSans-34"/>
       <use xlink:href="#DejaVuSans-35" x="63.623047"/>
      </g>
     </g>
    </g>
    <g id="ytick_5">
     <g id="line2d_7">
      <g>
       <use xlink:href="#m1be087c42e" x="44.474375" y="129.419114" style="stroke: #000000; stroke-width: 0.8"/>
      </g>
     </g>
     <g id="text_8">
      <!-- 50 -->
      <g transform="translate(24.749375 133.218333) scale(0.1 -0.1)">
       <use xlink:href="#DejaVuSans-35"/>
       <use xlink:href="#DejaVuSans-30" x="63.623047"/>
      </g>
     </g>
    </g>
    <g id="ytick_6">
     <g id="line2d_8">
      <g>
       <use xlink:href="#m1be087c42e" x="44.474375" y="61.087545" style="stroke: #000000; stroke-width: 0.8"/>
      </g>
     </g>
     <g id="text_9">
      <!-- 55 -->
      <g transform="translate(24.749375 64.886763) scale(0.1 -0.1)">
       <use xlink:href="#DejaVuSans-35"/>
       <use xlink:href="#DejaVuSans-35" x="63.623047"/>
      </g>
     </g>
    </g>
    <g id="text_10">
     <!-- Learning Score -->
     <g transform="translate(17.837813 271.616406) rotate(-90) scale(0.14 -0.14)">
      <defs>
       <path id="DejaVuSans-4c" d="M 628 4666 
L 1259 4666 
L 1259 531 
L 3531 531 
L 3531 0 
L 628 0 
L 628 4666 
z
" transform="scale(0.015625)"/>
       <path id="DejaVuSans-65" d="M 3597 1894 
L 3597 1613 
L 953 1613 
Q 991 1019 1311 708 
Q 1631 397 2203 397 
Q 2534 397 2845 478 
Q 3156 559 3463 722 
L 3463 178 
Q 3153 47 2828 -22 
Q 2503 -91 2169 -91 
Q 1331 -91 842 396 
Q 353 884 353 1716 
Q 353 2575 817 3079 
Q 1281 3584 2069 3584 
Q 2775 3584 3186 3129 
Q 3597 2675 3597 1894 
z
M 3022 2063 
Q 3016 2534 2758 2815 
Q 2500 3097 2075 3097 
Q 1594 3097 1305 2825 
Q 1016 2553 972 2059 
L 3022 2063 
z
" transform="scale(0.015625)"/>
       <path id="DejaVuSans-6e" d="M 3513 2113 
L 3513 0 
L 2938 0 
L 2938 2094 
Q 2938 2591 2744 2837 
Q 2550 3084 2163 3084 
Q 1697 3084 1428 2787 
Q 1159 2491 1159 1978 
L 1159 0 
L 581 0 
L 581 3500 
L 1159 3500 
L 1159 2956 
Q 1366 3272 1645 3428 
Q 1925 3584 2291 3584 
Q 2894 3584 3203 3211 
Q 3513 2838 3513 2113 
z
" transform="scale(0.015625)"/>
       <path id="DejaVuSans-69" d="M 603 3500 
L 1178 3500 
L 1178 0 
L 603 0 
L 603 3500 
z
M 603 4863 
L 1178 4863 
L 1178 4134 
L 603 4134 
L 603 4863 
z
" transform="scale(0.015625)"/>
       <path id="DejaVuSans-67" d="M 2906 1791 
Q 2906 2416 2648 2759 
Q 2391 3103 1925 3103 
Q 1463 3103 1205 2759 
Q 947 2416 947 1791 
Q 947 1169 1205 825 
Q 1463 481 1925 481 
Q 2391 481 2648 825 
Q 2906 1169 2906 1791 
z
M 3481 434 
Q 3481 -459 3084 -895 
Q 2688 -1331 1869 -1331 
Q 1566 -1331 1297 -1286 
Q 1028 -1241 775 -1147 
L 775 -588 
Q 1028 -725 1275 -790 
Q 1522 -856 1778 -856 
Q 2344 -856 2625 -561 
Q 2906 -266 2906 331 
L 2906 616 
Q 2728 306 2450 153 
Q 2172 0 1784 0 
Q 1141 0 747 490 
Q 353 981 353 1791 
Q 353 2603 747 3093 
Q 1141 3584 1784 3584 
Q 2172 3584 2450 3431 
Q 2728 3278 2906 2969 
L 2906 3500 
L 3481 3500 
L 3481 434 
z
" transform="scale(0.015625)"/>
       <path id="DejaVuSans-20" transform="scale(0.015625)"/>
       <path id="DejaVuSans-53" d="M 3425 4513 
L 3425 3897 
Q 3066 4069 2747 4153 
Q 2428 4238 2131 4238 
Q 1616 4238 1336 4038 
Q 1056 3838 1056 3469 
Q 1056 3159 1242 3001 
Q 1428 2844 1947 2747 
L 2328 2669 
Q 3034 2534 3370 2195 
Q 3706 1856 3706 1288 
Q 3706 609 3251 259 
Q 2797 -91 1919 -91 
Q 1588 -91 1214 -16 
Q 841 59 441 206 
L 441 856 
Q 825 641 1194 531 
Q 1563 422 1919 422 
Q 2459 422 2753 634 
Q 3047 847 3047 1241 
Q 3047 1584 2836 1778 
Q 2625 1972 2144 2069 
L 1759 2144 
Q 1053 2284 737 2584 
Q 422 2884 422 3419 
Q 422 4038 858 4394 
Q 1294 4750 2059 4750 
Q 2388 4750 2728 4690 
Q 3069 4631 3425 4513 
z
" transform="scale(0.015625)"/>
       <path id="DejaVuSans-63" d="M 3122 3366 
L 3122 2828 
Q 2878 2963 2633 3030 
Q 2388 3097 2138 3097 
Q 1578 3097 1268 2742 
Q 959 2388 959 1747 
Q 959 1106 1268 751 
Q 1578 397 2138 397 
Q 2388 397 2633 464 
Q 2878 531 3122 666 
L 3122 134 
Q 2881 22 2623 -34 
Q 2366 -91 2075 -91 
Q 1284 -91 818 406 
Q 353 903 353 1747 
Q 353 2603 823 3093 
Q 1294 3584 2113 3584 
Q 2378 3584 2631 3529 
Q 2884 3475 3122 3366 
z
" transform="scale(0.015625)"/>
      </defs>
      <use xlink:href="#DejaVuSans-4c"/>
      <use xlink:href="#DejaVuSans-65" x="53.962891"/>
      <use xlink:href="#DejaVuSans-61" x="115.486328"/>
      <use xlink:href="#DejaVuSans-72" x="176.765625"/>
      <use xlink:href="#DejaVuSans-6e" x="216.128906"/>
      <use xlink:href="#DejaVuSans-69" x="279.507812"/>
      <use xlink:href="#DejaVuSans-6e" x="307.291016"/>
      <use xlink:href="#DejaVuSans-67" x="370.669922"/>
      <use xlink:href="#DejaVuSans-20" x="434.146484"/>
      <use xlink:href="#DejaVuSans-53" x="465.933594"/>
      <use xlink:href="#DejaVuSans-63" x="529.410156"/>
      <use xlink:href="#DejaVuSans-6f" x="584.390625"/>
      <use xlink:href="#DejaVuSans-72" x="645.572266"/>
      <use xlink:href="#DejaVuSans-65" x="684.435547"/>
     </g>
    </g>
   </g>
   <g id="patch_3">
    <path d="M 44.474375 413.4375 
L 44.474375 25.3575 
" style="fill: none; stroke: #000000; stroke-width: 0.8; stroke-linejoin: miter; stroke-linecap: square"/>
   </g>
   <g id="patch_4">
    <path d="M 435.074375 413.4375 
L 435.074375 25.3575 
" style="fill: none; stroke: #000000; stroke-width: 0.8; stroke-linejoin: miter; stroke-linecap: square"/>
   </g>
   <g id="patch_5">
    <path d="M 44.474375 413.4375 
L 435.074375 413.4375 
" style="fill: none; stroke: #000000; stroke-width: 0.8; stroke-linejoin: miter; stroke-linecap: square"/>
   </g>
   <g id="patch_6">
    <path d="M 44.474375 25.3575 
L 435.074375 25.3575 
" style="fill: none; stroke: #000000; stroke-width: 0.8; stroke-linejoin: miter; stroke-linecap: square"/>
   </g>
   <g id="PathCollection_1">
    <defs>
     <path id="ma673f223f7" d="M 0 3 
C 0.795609 3 1.55874 2.683901 2.12132 2.12132 
C 2.683901 1.55874 3 0.795609 3 0 
C 3 -0.795609 2.683901 -1.55874 2.12132 -2.12132 
C 1.55874 -2.683901 0.795609 -3 0 -3 
C -0.795609 -3 -1.55874 -2.683901 -2.12132 -2.12132 
C -2.683901 -1.55874 -3 -0.795609 -3 0 
C -3 0.795609 -2.683901 1.55874 -2.12132 2.12132 
C -1.55874 2.683901 -0.795609 3 0 3 
z
" style="stroke: #1405eb; stroke-opacity: 0.8"/>
    </defs>
    <g clip-path="url(#pb9bfb9307a)">
     <use xlink:href="#ma673f223f7" x="108.673769" y="161.196186" style="fill: #1405eb; fill-opacity: 0.8; stroke: #1405eb; stroke-opacity: 0.8"/>
     <use xlink:href="#ma673f223f7" x="122.057525" y="318.467201" style="fill: #1405eb; fill-opacity: 0.8; stroke: #1405eb; stroke-opacity: 0.8"/>
     <use xlink:href="#ma673f223f7" x="123.045401" y="99.525199" style="fill: #1405eb; fill-opacity: 0.8; stroke: #1405eb; stroke-opacity: 0.8"/>
     <use xlink:href="#ma673f223f7" x="100.744038" y="91.583904" style="fill: #1405eb; fill-opacity: 0.8; stroke: #1405eb; stroke-opacity: 0.8"/>
     <use xlink:href="#ma673f223f7" x="109.512477" y="279.851144" style="fill: #1405eb; fill-opacity: 0.8; stroke: #1405eb; stroke-opacity: 0.8"/>
     <use xlink:href="#ma673f223f7" x="119.243801" y="186.6602" style="fill: #1405eb; fill-opacity: 0.8; stroke: #1405eb; stroke-opacity: 0.8"/>
     <use xlink:href="#ma673f223f7" x="122.008573" y="257.668703" style="fill: #1405eb; fill-opacity: 0.8; stroke: #1405eb; stroke-opacity: 0.8"/>
     <use xlink:href="#ma673f223f7" x="109.492973" y="253.629804" style="fill: #1405eb; fill-opacity: 0.8; stroke: #1405eb; stroke-opacity: 0.8"/>
     <use xlink:href="#ma673f223f7" x="106.259868" y="268.24528" style="fill: #1405eb; fill-opacity: 0.8; stroke: #1405eb; stroke-opacity: 0.8"/>
     <use xlink:href="#ma673f223f7" x="120.259384" y="326.293282" style="fill: #1405eb; fill-opacity: 0.8; stroke: #1405eb; stroke-opacity: 0.8"/>
     <use xlink:href="#ma673f223f7" x="118.418361" y="231.615736" style="fill: #1405eb; fill-opacity: 0.8; stroke: #1405eb; stroke-opacity: 0.8"/>
     <use xlink:href="#ma673f223f7" x="120.16487" y="203.821171" style="fill: #1405eb; fill-opacity: 0.8; stroke: #1405eb; stroke-opacity: 0.8"/>
     <use xlink:href="#ma673f223f7" x="109.378441" y="172.480517" style="fill: #1405eb; fill-opacity: 0.8; stroke: #1405eb; stroke-opacity: 0.8"/>
     <use xlink:href="#ma673f223f7" x="109.474924" y="260.040271" style="fill: #1405eb; fill-opacity: 0.8; stroke: #1405eb; stroke-opacity: 0.8"/>
     <use xlink:href="#ma673f223f7" x="106.110015" y="314.602542" style="fill: #1405eb; fill-opacity: 0.8; stroke: #1405eb; stroke-opacity: 0.8"/>
     <use xlink:href="#ma673f223f7" x="114.730103" y="233.511283" style="fill: #1405eb; fill-opacity: 0.8; stroke: #1405eb; stroke-opacity: 0.8"/>
     <use xlink:href="#ma673f223f7" x="117.8842" y="214.485638" style="fill: #1405eb; fill-opacity: 0.8; stroke: #1405eb; stroke-opacity: 0.8"/>
     <use xlink:href="#ma673f223f7" x="122.078722" y="241.994633" style="fill: #1405eb; fill-opacity: 0.8; stroke: #1405eb; stroke-opacity: 0.8"/>
     <use xlink:href="#ma673f223f7" x="125.048962" y="166.523157" style="fill: #1405eb; fill-opacity: 0.8; stroke: #1405eb; stroke-opacity: 0.8"/>
     <use xlink:href="#ma673f223f7" x="107.15902" y="287.283552" style="fill: #1405eb; fill-opacity: 0.8; stroke: #1405eb; stroke-opacity: 0.8"/>
     <use xlink:href="#ma673f223f7" x="125.241178" y="168.634847" style="fill: #1405eb; fill-opacity: 0.8; stroke: #1405eb; stroke-opacity: 0.8"/>
     <use xlink:href="#ma673f223f7" x="111.609875" y="299.748032" style="fill: #1405eb; fill-opacity: 0.8; stroke: #1405eb; stroke-opacity: 0.8"/>
     <use xlink:href="#ma673f223f7" x="109.746043" y="252.626856" style="fill: #1405eb; fill-opacity: 0.8; stroke: #1405eb; stroke-opacity: 0.8"/>
     <use xlink:href="#ma673f223f7" x="116.710313" y="244.654619" style="fill: #1405eb; fill-opacity: 0.8; stroke: #1405eb; stroke-opacity: 0.8"/>
     <use xlink:href="#ma673f223f7" x="108.348486" y="298.534908" style="fill: #1405eb; fill-opacity: 0.8; stroke: #1405eb; stroke-opacity: 0.8"/>
     <use xlink:href="#ma673f223f7" x="107.146017" y="395.7975" style="fill: #1405eb; fill-opacity: 0.8; stroke: #1405eb; stroke-opacity: 0.8"/>
    </g>
   </g>
   <g id="PathCollection_2">
    <defs>
     <path id="mcb40248b42" d="M 0 3 
C 0.795609 3 1.55874 2.683901 2.12132 2.12132 
C 2.683901 1.55874 3 0.795609 3 0 
C 3 -0.795609 2.683901 -1.55874 2.12132 -2.12132 
C 1.55874 -2.683901 0.795609 -3 0 -3 
C -0.795609 -3 -1.55874 -2.683901 -2.12132 -2.12132 
C -2.683901 -1.55874 -3 -0.795609 -3 0 
C -3 0.795609 -2.683901 1.55874 -2.12132 2.12132 
C -1.55874 2.683901 -0.795609 3 0 3 
z
" style="stroke: #f28211; stroke-opacity: 0.8"/>
    </defs>
    <g clip-path="url(#pb9bfb9307a)">
     <use xlink:href="#mcb40248b42" x="357.154476" y="170.904394" style="fill: #f28211; fill-opacity: 0.8; stroke: #f28211; stroke-opacity: 0.8"/>
     <use xlink:href="#mcb40248b42" x="374.532724" y="248.893465" style="fill: #f28211; fill-opacity: 0.8; stroke: #f28211; stroke-opacity: 0.8"/>
     <use xlink:href="#mcb40248b42" x="366.477598" y="220.906575" style="fill: #f28211; fill-opacity: 0.8; stroke: #f28211; stroke-opacity: 0.8"/>
     <use xlink:href="#mcb40248b42" x="375.214338" y="293.750676" style="fill: #f28211; fill-opacity: 0.8; stroke: #f28211; stroke-opacity: 0.8"/>
     <use xlink:href="#mcb40248b42" x="374.828215" y="141.014976" style="fill: #f28211; fill-opacity: 0.8; stroke: #f28211; stroke-opacity: 0.8"/>
     <use xlink:href="#mcb40248b42" x="366.908243" y="340.502644" style="fill: #f28211; fill-opacity: 0.8; stroke: #f28211; stroke-opacity: 0.8"/>
     <use xlink:href="#mcb40248b42" x="365.325916" y="281.732516" style="fill: #f28211; fill-opacity: 0.8; stroke: #f28211; stroke-opacity: 0.8"/>
     <use xlink:href="#mcb40248b42" x="362.512883" y="364.868421" style="fill: #f28211; fill-opacity: 0.8; stroke: #f28211; stroke-opacity: 0.8"/>
     <use xlink:href="#mcb40248b42" x="364.725544" y="285.311138" style="fill: #f28211; fill-opacity: 0.8; stroke: #f28211; stroke-opacity: 0.8"/>
     <use xlink:href="#mcb40248b42" x="360.723439" y="42.9975" style="fill: #f28211; fill-opacity: 0.8; stroke: #f28211; stroke-opacity: 0.8"/>
     <use xlink:href="#mcb40248b42" x="360.936186" y="233.64334" style="fill: #f28211; fill-opacity: 0.8; stroke: #f28211; stroke-opacity: 0.8"/>
     <use xlink:href="#mcb40248b42" x="372.206588" y="290.566701" style="fill: #f28211; fill-opacity: 0.8; stroke: #f28211; stroke-opacity: 0.8"/>
     <use xlink:href="#mcb40248b42" x="372.014799" y="191.757434" style="fill: #f28211; fill-opacity: 0.8; stroke: #f28211; stroke-opacity: 0.8"/>
     <use xlink:href="#mcb40248b42" x="363.322824" y="296.216865" style="fill: #f28211; fill-opacity: 0.8; stroke: #f28211; stroke-opacity: 0.8"/>
     <use xlink:href="#mcb40248b42" x="374.18471" y="250.560927" style="fill: #f28211; fill-opacity: 0.8; stroke: #f28211; stroke-opacity: 0.8"/>
     <use xlink:href="#mcb40248b42" x="371.672532" y="276.137206" style="fill: #f28211; fill-opacity: 0.8; stroke: #f28211; stroke-opacity: 0.8"/>
     <use xlink:href="#mcb40248b42" x="362.516804" y="303.992896" style="fill: #f28211; fill-opacity: 0.8; stroke: #f28211; stroke-opacity: 0.8"/>
     <use xlink:href="#mcb40248b42" x="366.12406" y="184.967581" style="fill: #f28211; fill-opacity: 0.8; stroke: #f28211; stroke-opacity: 0.8"/>
     <use xlink:href="#mcb40248b42" x="371.660745" y="334.892989" style="fill: #f28211; fill-opacity: 0.8; stroke: #f28211; stroke-opacity: 0.8"/>
     <use xlink:href="#mcb40248b42" x="356.486749" y="175.559289" style="fill: #f28211; fill-opacity: 0.8; stroke: #f28211; stroke-opacity: 0.8"/>
     <use xlink:href="#mcb40248b42" x="375.186274" y="309.151474" style="fill: #f28211; fill-opacity: 0.8; stroke: #f28211; stroke-opacity: 0.8"/>
     <use xlink:href="#mcb40248b42" x="377.830559" y="145.744587" style="fill: #f28211; fill-opacity: 0.8; stroke: #f28211; stroke-opacity: 0.8"/>
     <use xlink:href="#mcb40248b42" x="360.158656" y="301.14769" style="fill: #f28211; fill-opacity: 0.8; stroke: #f28211; stroke-opacity: 0.8"/>
     <use xlink:href="#mcb40248b42" x="355.156027" y="355.970849" style="fill: #f28211; fill-opacity: 0.8; stroke: #f28211; stroke-opacity: 0.8"/>
    </g>
   </g>
   <g id="text_11">
    <!-- Learning Score Ctrl and Cask Groups with 0.25 Data -->
    <g transform="translate(31.320625 19.3575) scale(0.16 -0.16)">
     <defs>
      <path id="DejaVuSans-64" d="M 2906 2969 
L 2906 4863 
L 3481 4863 
L 3481 0 
L 2906 0 
L 2906 525 
Q 2725 213 2448 61 
Q 2172 -91 1784 -91 
Q 1150 -91 751 415 
Q 353 922 353 1747 
Q 353 2572 751 3078 
Q 1150 3584 1784 3584 
Q 2172 3584 2448 3432 
Q 2725 3281 2906 2969 
z
M 947 1747 
Q 947 1113 1208 752 
Q 1469 391 1925 391 
Q 2381 391 2643 752 
Q 2906 1113 2906 1747 
Q 2906 2381 2643 2742 
Q 2381 3103 1925 3103 
Q 1469 3103 1208 2742 
Q 947 2381 947 1747 
z
" transform="scale(0.015625)"/>
      <path id="DejaVuSans-77" d="M 269 3500 
L 844 3500 
L 1563 769 
L 2278 3500 
L 2956 3500 
L 3675 769 
L 4391 3500 
L 4966 3500 
L 4050 0 
L 3372 0 
L 2619 2869 
L 1863 0 
L 1184 0 
L 269 3500 
z
" transform="scale(0.015625)"/>
      <path id="DejaVuSans-68" d="M 3513 2113 
L 3513 0 
L 2938 0 
L 2938 2094 
Q 2938 2591 2744 2837 
Q 2550 3084 2163 3084 
Q 1697 3084 1428 2787 
Q 1159 2491 1159 1978 
L 1159 0 
L 581 0 
L 581 4863 
L 1159 4863 
L 1159 2956 
Q 1366 3272 1645 3428 
Q 1925 3584 2291 3584 
Q 2894 3584 3203 3211 
Q 3513 2838 3513 2113 
z
" transform="scale(0.015625)"/>
      <path id="DejaVuSans-2e" d="M 684 794 
L 1344 794 
L 1344 0 
L 684 0 
L 684 794 
z
" transform="scale(0.015625)"/>
      <path id="DejaVuSans-32" d="M 1228 531 
L 3431 531 
L 3431 0 
L 469 0 
L 469 531 
Q 828 903 1448 1529 
Q 2069 2156 2228 2338 
Q 2531 2678 2651 2914 
Q 2772 3150 2772 3378 
Q 2772 3750 2511 3984 
Q 2250 4219 1831 4219 
Q 1534 4219 1204 4116 
Q 875 4013 500 3803 
L 500 4441 
Q 881 4594 1212 4672 
Q 1544 4750 1819 4750 
Q 2544 4750 2975 4387 
Q 3406 4025 3406 3419 
Q 3406 3131 3298 2873 
Q 3191 2616 2906 2266 
Q 2828 2175 2409 1742 
Q 1991 1309 1228 531 
z
" transform="scale(0.015625)"/>
      <path id="DejaVuSans-44" d="M 1259 4147 
L 1259 519 
L 2022 519 
Q 2988 519 3436 956 
Q 3884 1394 3884 2338 
Q 3884 3275 3436 3711 
Q 2988 4147 2022 4147 
L 1259 4147 
z
M 628 4666 
L 1925 4666 
Q 3281 4666 3915 4102 
Q 4550 3538 4550 2338 
Q 4550 1131 3912 565 
Q 3275 0 1925 0 
L 628 0 
L 628 4666 
z
" transform="scale(0.015625)"/>
     </defs>
     <use xlink:href="#DejaVuSans-4c"/>
     <use xlink:href="#DejaVuSans-65" x="53.962891"/>
     <use xlink:href="#DejaVuSans-61" x="115.486328"/>
     <use xlink:href="#DejaVuSans-72" x="176.765625"/>
     <use xlink:href="#DejaVuSans-6e" x="216.128906"/>
     <use xlink:href="#DejaVuSans-69" x="279.507812"/>
     <use xlink:href="#DejaVuSans-6e" x="307.291016"/>
     <use xlink:href="#DejaVuSans-67" x="370.669922"/>
     <use xlink:href="#DejaVuSans-20" x="434.146484"/>
     <use xlink:href="#DejaVuSans-53" x="465.933594"/>
     <use xlink:href="#DejaVuSans-63" x="529.410156"/>
     <use xlink:href="#DejaVuSans-6f" x="584.390625"/>
     <use xlink:href="#DejaVuSans-72" x="645.572266"/>
     <use xlink:href="#DejaVuSans-65" x="684.435547"/>
     <use xlink:href="#DejaVuSans-20" x="745.958984"/>
     <use xlink:href="#DejaVuSans-43" x="777.746094"/>
     <use xlink:href="#DejaVuSans-74" x="847.570312"/>
     <use xlink:href="#DejaVuSans-72" x="886.779297"/>
     <use xlink:href="#DejaVuSans-6c" x="927.892578"/>
     <use xlink:href="#DejaVuSans-20" x="955.675781"/>
     <use xlink:href="#DejaVuSans-61" x="987.462891"/>
     <use xlink:href="#DejaVuSans-6e" x="1048.742188"/>
     <use xlink:href="#DejaVuSans-64" x="1112.121094"/>
     <use xlink:href="#DejaVuSans-20" x="1175.597656"/>
     <use xlink:href="#DejaVuSans-43" x="1207.384766"/>
     <use xlink:href="#DejaVuSans-61" x="1277.208984"/>
     <use xlink:href="#DejaVuSans-73" x="1338.488281"/>
     <use xlink:href="#DejaVuSans-6b" x="1390.587891"/>
     <use xlink:href="#DejaVuSans-20" x="1448.498047"/>
     <use xlink:href="#DejaVuSans-47" x="1480.285156"/>
     <use xlink:href="#DejaVuSans-72" x="1557.775391"/>
     <use xlink:href="#DejaVuSans-6f" x="1596.638672"/>
     <use xlink:href="#DejaVuSans-75" x="1657.820312"/>
     <use xlink:href="#DejaVuSans-70" x="1721.199219"/>
     <use xlink:href="#DejaVuSans-73" x="1784.675781"/>
     <use xlink:href="#DejaVuSans-20" x="1836.775391"/>
     <use xlink:href="#DejaVuSans-77" x="1868.5625"/>
     <use xlink:href="#DejaVuSans-69" x="1950.349609"/>
     <use xlink:href="#DejaVuSans-74" x="1978.132812"/>
     <use xlink:href="#DejaVuSans-68" x="2017.341797"/>
     <use xlink:href="#DejaVuSans-20" x="2080.720703"/>
     <use xlink:href="#DejaVuSans-30" x="2112.507812"/>
     <use xlink:href="#DejaVuSans-2e" x="2176.130859"/>
     <use xlink:href="#DejaVuSans-32" x="2207.917969"/>
     <use xlink:href="#DejaVuSans-35" x="2271.541016"/>
     <use xlink:href="#DejaVuSans-20" x="2335.164062"/>
     <use xlink:href="#DejaVuSans-44" x="2366.951172"/>
     <use xlink:href="#DejaVuSans-61" x="2443.953125"/>
     <use xlink:href="#DejaVuSans-74" x="2505.232422"/>
     <use xlink:href="#DejaVuSans-61" x="2544.441406"/>
    </g>
   </g>
   <g id="legend_1">
    <g id="patch_7">
     <path d="M 51.474375 62.71375 
L 152.365 62.71375 
Q 154.365 62.71375 154.365 60.71375 
L 154.365 32.3575 
Q 154.365 30.3575 152.365 30.3575 
L 51.474375 30.3575 
Q 49.474375 30.3575 49.474375 32.3575 
L 49.474375 60.71375 
Q 49.474375 62.71375 51.474375 62.71375 
z
" style="fill: #ffffff; opacity: 0.8; stroke: #cccccc; stroke-linejoin: miter"/>
    </g>
    <g id="patch_8">
     <path d="M 53.474375 41.955938 
L 73.474375 41.955938 
L 73.474375 34.955938 
L 53.474375 34.955938 
z
" style="fill: #add8e6; opacity: 0.8; stroke: #add8e6; stroke-linejoin: miter"/>
    </g>
    <g id="text_12">
     <!-- Ctrl (n = 26) -->
     <g transform="translate(81.474375 41.955938) scale(0.1 -0.1)">
      <defs>
       <path id="DejaVuSans-28" d="M 1984 4856 
Q 1566 4138 1362 3434 
Q 1159 2731 1159 2009 
Q 1159 1288 1364 580 
Q 1569 -128 1984 -844 
L 1484 -844 
Q 1016 -109 783 600 
Q 550 1309 550 2009 
Q 550 2706 781 3412 
Q 1013 4119 1484 4856 
L 1984 4856 
z
" transform="scale(0.015625)"/>
       <path id="DejaVuSans-3d" d="M 678 2906 
L 4684 2906 
L 4684 2381 
L 678 2381 
L 678 2906 
z
M 678 1631 
L 4684 1631 
L 4684 1100 
L 678 1100 
L 678 1631 
z
" transform="scale(0.015625)"/>
       <path id="DejaVuSans-36" d="M 2113 2584 
Q 1688 2584 1439 2293 
Q 1191 2003 1191 1497 
Q 1191 994 1439 701 
Q 1688 409 2113 409 
Q 2538 409 2786 701 
Q 3034 994 3034 1497 
Q 3034 2003 2786 2293 
Q 2538 2584 2113 2584 
z
M 3366 4563 
L 3366 3988 
Q 3128 4100 2886 4159 
Q 2644 4219 2406 4219 
Q 1781 4219 1451 3797 
Q 1122 3375 1075 2522 
Q 1259 2794 1537 2939 
Q 1816 3084 2150 3084 
Q 2853 3084 3261 2657 
Q 3669 2231 3669 1497 
Q 3669 778 3244 343 
Q 2819 -91 2113 -91 
Q 1303 -91 875 529 
Q 447 1150 447 2328 
Q 447 3434 972 4092 
Q 1497 4750 2381 4750 
Q 2619 4750 2861 4703 
Q 3103 4656 3366 4563 
z
" transform="scale(0.015625)"/>
       <path id="DejaVuSans-29" d="M 513 4856 
L 1013 4856 
Q 1481 4119 1714 3412 
Q 1947 2706 1947 2009 
Q 1947 1309 1714 600 
Q 1481 -109 1013 -844 
L 513 -844 
Q 928 -128 1133 580 
Q 1338 1288 1338 2009 
Q 1338 2731 1133 3434 
Q 928 4138 513 4856 
z
" transform="scale(0.015625)"/>
      </defs>
      <use xlink:href="#DejaVuSans-43"/>
      <use xlink:href="#DejaVuSans-74" x="69.824219"/>
      <use xlink:href="#DejaVuSans-72" x="109.033203"/>
      <use xlink:href="#DejaVuSans-6c" x="150.146484"/>
      <use xlink:href="#DejaVuSans-20" x="177.929688"/>
      <use xlink:href="#DejaVuSans-28" x="209.716797"/>
      <use xlink:href="#DejaVuSans-6e" x="248.730469"/>
      <use xlink:href="#DejaVuSans-20" x="312.109375"/>
      <use xlink:href="#DejaVuSans-3d" x="343.896484"/>
      <use xlink:href="#DejaVuSans-20" x="427.685547"/>
      <use xlink:href="#DejaVuSans-32" x="459.472656"/>
      <use xlink:href="#DejaVuSans-36" x="523.095703"/>
      <use xlink:href="#DejaVuSans-29" x="586.71875"/>
     </g>
    </g>
    <g id="patch_9">
     <path d="M 53.474375 56.634063 
L 73.474375 56.634063 
L 73.474375 49.634063 
L 53.474375 49.634063 
z
" style="fill: #ffff00; opacity: 0.8; stroke: #ffff00; stroke-linejoin: miter"/>
    </g>
    <g id="text_13">
     <!-- Cask (n = 24) -->
     <g transform="translate(81.474375 56.634063) scale(0.1 -0.1)">
      <use xlink:href="#DejaVuSans-43"/>
      <use xlink:href="#DejaVuSans-61" x="69.824219"/>
      <use xlink:href="#DejaVuSans-73" x="131.103516"/>
      <use xlink:href="#DejaVuSans-6b" x="183.203125"/>
      <use xlink:href="#DejaVuSans-20" x="241.113281"/>
      <use xlink:href="#DejaVuSans-28" x="272.900391"/>
      <use xlink:href="#DejaVuSans-6e" x="311.914062"/>
      <use xlink:href="#DejaVuSans-20" x="375.292969"/>
      <use xlink:href="#DejaVuSans-3d" x="407.080078"/>
      <use xlink:href="#DejaVuSans-20" x="490.869141"/>
      <use xlink:href="#DejaVuSans-32" x="522.65625"/>
      <use xlink:href="#DejaVuSans-34" x="586.279297"/>
      <use xlink:href="#DejaVuSans-29" x="649.902344"/>
     </g>
    </g>
   </g>
  </g>
 </g>
 <defs>
  <clipPath id="pb9bfb9307a">
   <rect x="44.474375" y="25.3575" width="390.6" height="388.08"/>
  </clipPath>
 </defs>
</svg>
