<?xml version="1.0" encoding="utf-8" standalone="no"?>
<!DOCTYPE svg PUBLIC "-//W3C//DTD SVG 1.1//EN"
  "http://www.w3.org/Graphics/SVG/1.1/DTD/svg11.dtd">
<svg xmlns:xlink="http://www.w3.org/1999/xlink" width="466.790625pt" height="402.464375pt" viewBox="0 0 466.790625 402.464375" xmlns="http://www.w3.org/2000/svg" version="1.1">
 <metadata>
  <rdf:RDF xmlns:dc="http://purl.org/dc/elements/1.1/" xmlns:cc="http://creativecommons.org/ns#" xmlns:rdf="http://www.w3.org/1999/02/22-rdf-syntax-ns#">
   <cc:Work>
    <dc:type rdf:resource="http://purl.org/dc/dcmitype/StillImage"/>
    <dc:date>2025-08-14T08:38:24.318726</dc:date>
    <dc:format>image/svg+xml</dc:format>
    <dc:creator>
     <cc:Agent>
      <dc:title>Matplotlib v3.8.4, https://matplotlib.org/</dc:title>
     </cc:Agent>
    </dc:creator>
   </cc:Work>
  </rdf:RDF>
 </metadata>
 <defs>
  <style type="text/css">*{stroke-linejoin: round; stroke-linecap: butt}</style>
 </defs>
 <g id="figure_1">
  <g id="patch_1">
   <path d="M 0 402.464375 
L 466.790625 402.464375 
L 466.790625 0 
L 0 0 
z
" style="fill: #ffffff"/>
  </g>
  <g id="axes_1">
   <g id="patch_2">
    <path d="M 65.995312 361.036875 
L 400.795313 361.036875 
L 400.795313 28.396875 
L 65.995312 28.396875 
z
" style="fill: #ffffff"/>
   </g>
   <g id="PolyCollection_1">
    <defs>
     <path id="m9b18dfc807" d="M 186.476262 -94.842085 
L 168.714363 -94.842085 
L 168.192713 -96.967316 
L 167.658226 -99.092547 
L 167.111484 -101.217778 
L 166.553111 -103.34301 
L 165.983781 -105.468241 
L 165.40423 -107.593472 
L 164.815258 -109.718703 
L 164.217746 -111.843934 
L 163.61266 -113.969165 
L 163.001062 -116.094397 
L 162.384119 -118.219628 
L 161.763106 -120.344859 
L 161.139411 -122.47009 
L 160.514539 -124.595321 
L 159.890108 -126.720553 
L 159.267849 -128.845784 
L 158.649596 -130.971015 
L 158.037274 -133.096246 
L 157.432893 -135.221477 
L 156.838522 -137.346708 
L 156.256276 -139.47194 
L 155.688289 -141.597171 
L 155.136693 -143.722402 
L 154.603588 -145.847633 
L 154.091015 -147.972864 
L 153.600928 -150.098096 
L 153.135164 -152.223327 
L 152.695413 -154.348558 
L 152.283195 -156.473789 
L 151.899831 -158.59902 
L 151.546423 -160.724251 
L 151.223834 -162.849483 
L 150.932674 -164.974714 
L 150.673288 -167.099945 
L 150.445751 -169.225176 
L 150.249867 -171.350407 
L 150.085169 -173.475639 
L 149.950935 -175.60087 
L 149.846195 -177.726101 
L 149.769753 -179.851332 
L 149.720207 -181.976563 
L 149.695972 -184.101794 
L 149.695312 -186.227026 
L 149.71637 -188.352257 
L 149.757192 -190.477488 
L 149.815768 -192.602719 
L 149.890055 -194.72795 
L 149.978012 -196.853182 
L 150.077627 -198.978413 
L 150.186943 -201.103644 
L 150.304081 -203.228875 
L 150.427262 -205.354106 
L 150.554827 -207.479337 
L 150.685247 -209.604569 
L 150.817137 -211.7298 
L 150.949267 -213.855031 
L 151.080566 -215.980262 
L 151.210128 -218.105493 
L 151.33721 -220.230725 
L 151.46124 -222.355956 
L 151.581809 -224.481187 
L 151.698677 -226.606418 
L 151.811765 -228.731649 
L 151.921157 -230.85688 
L 152.027094 -232.982112 
L 152.129975 -235.107343 
L 152.230355 -237.232574 
L 152.328936 -239.357805 
L 152.426571 -241.483036 
L 152.524256 -243.608268 
L 152.623125 -245.733499 
L 152.724447 -247.85873 
L 152.829614 -249.983961 
L 152.940134 -252.109192 
L 153.057621 -254.234423 
L 153.183776 -256.359655 
L 153.320376 -258.484886 
L 153.469251 -260.610117 
L 153.632267 -262.735348 
L 153.811296 -264.860579 
L 154.008193 -266.985811 
L 154.224768 -269.111042 
L 154.462754 -271.236273 
L 154.723777 -273.361504 
L 155.009324 -275.486735 
L 155.320711 -277.611967 
L 155.659052 -279.737198 
L 156.025229 -281.862429 
L 156.419867 -283.98766 
L 156.843307 -286.112891 
L 157.295588 -288.238122 
L 157.77643 -290.363354 
L 158.285225 -292.488585 
L 158.821029 -294.613816 
L 159.382565 -296.739047 
L 159.96823 -298.864278 
L 160.576107 -300.98951 
L 161.203985 -303.114741 
L 161.849386 -305.239972 
L 193.341239 -305.239972 
L 193.341239 -305.239972 
L 193.98664 -303.114741 
L 194.614518 -300.98951 
L 195.222395 -298.864278 
L 195.80806 -296.739047 
L 196.369596 -294.613816 
L 196.9054 -292.488585 
L 197.414195 -290.363354 
L 197.895037 -288.238122 
L 198.347318 -286.112891 
L 198.770758 -283.98766 
L 199.165396 -281.862429 
L 199.531573 -279.737198 
L 199.869914 -277.611967 
L 200.181301 -275.486735 
L 200.466848 -273.361504 
L 200.727871 -271.236273 
L 200.965857 -269.111042 
L 201.182432 -266.985811 
L 201.379329 -264.860579 
L 201.558358 -262.735348 
L 201.721374 -260.610117 
L 201.870249 -258.484886 
L 202.006849 -256.359655 
L 202.133004 -254.234423 
L 202.250491 -252.109192 
L 202.361011 -249.983961 
L 202.466178 -247.85873 
L 202.5675 -245.733499 
L 202.666369 -243.608268 
L 202.764054 -241.483036 
L 202.861689 -239.357805 
L 202.96027 -237.232574 
L 203.06065 -235.107343 
L 203.163531 -232.982112 
L 203.269468 -230.85688 
L 203.37886 -228.731649 
L 203.491948 -226.606418 
L 203.608816 -224.481187 
L 203.729385 -222.355956 
L 203.853415 -220.230725 
L 203.980497 -218.105493 
L 204.110059 -215.980262 
L 204.241358 -213.855031 
L 204.373488 -211.7298 
L 204.505378 -209.604569 
L 204.635798 -207.479337 
L 204.763363 -205.354106 
L 204.886544 -203.228875 
L 205.003682 -201.103644 
L 205.112998 -198.978413 
L 205.212613 -196.853182 
L 205.30057 -194.72795 
L 205.374857 -192.602719 
L 205.433433 -190.477488 
L 205.474255 -188.352257 
L 205.495313 -186.227026 
L 205.494653 -184.101794 
L 205.470418 -181.976563 
L 205.420872 -179.851332 
L 205.34443 -177.726101 
L 205.23969 -175.60087 
L 205.105456 -173.475639 
L 204.940758 -171.350407 
L 204.744874 -169.225176 
L 204.517337 -167.099945 
L 204.257951 -164.974714 
L 203.966791 -162.849483 
L 203.644202 -160.724251 
L 203.290794 -158.59902 
L 202.90743 -156.473789 
L 202.495212 -154.348558 
L 202.055461 -152.223327 
L 201.589697 -150.098096 
L 201.09961 -147.972864 
L 200.587037 -145.847633 
L 200.053932 -143.722402 
L 199.502336 -141.597171 
L 198.934349 -139.47194 
L 198.352103 -137.346708 
L 197.757732 -135.221477 
L 197.153351 -133.096246 
L 196.541029 -130.971015 
L 195.922776 -128.845784 
L 195.300517 -126.720553 
L 194.676086 -124.595321 
L 194.051214 -122.47009 
L 193.427519 -120.344859 
L 192.806506 -118.219628 
L 192.189563 -116.094397 
L 191.577965 -113.969165 
L 190.972879 -111.843934 
L 190.375367 -109.718703 
L 189.786395 -107.593472 
L 189.206844 -105.468241 
L 188.637514 -103.34301 
L 188.079141 -101.217778 
L 187.532399 -99.092547 
L 186.997912 -96.967316 
L 186.476262 -94.842085 
z
" style="stroke: #000000; stroke-opacity: 0.6"/>
    </defs>
    <g clip-path="url(#p5cfd4b6776)">
     <use xlink:href="#m9b18dfc807" x="0" y="402.464375" style="fill: #38bcf5; fill-opacity: 0.6; stroke: #000000; stroke-opacity: 0.6"/>
    </g>
   </g>
   <g id="PolyCollection_2">
    <defs>
     <path id="m51a574e5c3" d="M 295.492052 -56.5475 
L 282.898573 -56.5475 
L 282.449493 -59.602045 
L 281.995081 -62.656591 
L 281.537841 -65.711136 
L 281.080341 -68.765682 
L 280.625144 -71.820227 
L 280.174735 -74.874773 
L 279.73143 -77.929318 
L 279.297282 -80.983864 
L 278.873976 -84.038409 
L 278.462727 -87.092955 
L 278.064179 -90.1475 
L 277.678313 -93.202045 
L 277.304372 -96.256591 
L 276.940812 -99.311136 
L 276.585275 -102.365682 
L 276.234608 -105.420227 
L 275.88491 -108.474773 
L 275.531631 -111.529318 
L 275.169707 -114.583864 
L 274.793743 -117.638409 
L 274.39823 -120.692955 
L 273.977788 -123.7475 
L 273.527438 -126.802045 
L 273.042881 -129.856591 
L 272.520767 -132.911136 
L 271.958955 -135.965682 
L 271.356737 -139.020227 
L 270.715017 -142.074773 
L 270.036435 -145.129318 
L 269.32542 -148.183864 
L 268.588178 -151.238409 
L 267.832592 -154.292955 
L 267.068053 -157.3475 
L 266.305226 -160.402045 
L 265.555741 -163.456591 
L 264.831841 -166.511136 
L 264.145999 -169.565682 
L 263.51051 -172.620227 
L 262.937088 -175.674773 
L 262.436482 -178.729318 
L 262.018125 -181.783864 
L 261.689845 -184.838409 
L 261.457629 -187.892955 
L 261.325475 -190.9475 
L 261.295312 -194.002045 
L 261.367014 -197.056591 
L 261.538483 -200.111136 
L 261.805811 -203.165682 
L 262.1635 -206.220227 
L 262.604734 -209.274773 
L 263.12168 -212.329318 
L 263.70581 -215.383864 
L 264.348223 -218.438409 
L 265.039953 -221.492955 
L 265.772247 -224.5475 
L 266.536808 -227.602045 
L 267.32598 -230.656591 
L 268.132893 -233.711136 
L 268.951537 -236.765682 
L 269.776794 -239.820227 
L 270.604411 -242.874773 
L 271.43093 -245.929318 
L 272.253588 -248.983864 
L 273.070185 -252.038409 
L 273.878937 -255.092955 
L 274.678335 -258.1475 
L 275.466993 -261.202045 
L 276.243528 -264.256591 
L 277.006452 -267.311136 
L 277.754092 -270.365682 
L 278.484549 -273.420227 
L 279.195675 -276.474773 
L 279.885096 -279.529318 
L 280.550253 -282.583864 
L 281.188473 -285.638409 
L 281.797056 -288.692955 
L 282.373371 -291.7475 
L 282.914972 -294.802045 
L 283.419694 -297.856591 
L 283.88576 -300.911136 
L 284.311865 -303.965682 
L 284.697253 -307.020227 
L 285.04176 -310.074773 
L 285.345854 -313.129318 
L 285.610635 -316.183864 
L 285.837818 -319.238409 
L 286.029697 -322.292955 
L 286.189084 -325.3475 
L 286.319231 -328.402045 
L 286.423735 -331.456591 
L 286.506444 -334.511136 
L 286.571338 -337.565682 
L 286.622426 -340.620227 
L 286.663634 -343.674773 
L 286.698701 -346.729318 
L 286.731092 -349.783864 
L 286.763909 -352.838409 
L 286.799835 -355.892955 
L 286.84108 -358.9475 
L 291.549545 -358.9475 
L 291.549545 -358.9475 
L 291.59079 -355.892955 
L 291.626716 -352.838409 
L 291.659533 -349.783864 
L 291.691924 -346.729318 
L 291.726991 -343.674773 
L 291.768199 -340.620227 
L 291.819287 -337.565682 
L 291.884181 -334.511136 
L 291.96689 -331.456591 
L 292.071394 -328.402045 
L 292.201541 -325.3475 
L 292.360928 -322.292955 
L 292.552807 -319.238409 
L 292.77999 -316.183864 
L 293.044771 -313.129318 
L 293.348865 -310.074773 
L 293.693372 -307.020227 
L 294.07876 -303.965682 
L 294.504865 -300.911136 
L 294.970931 -297.856591 
L 295.475653 -294.802045 
L 296.017254 -291.7475 
L 296.593569 -288.692955 
L 297.202152 -285.638409 
L 297.840372 -282.583864 
L 298.505529 -279.529318 
L 299.19495 -276.474773 
L 299.906076 -273.420227 
L 300.636533 -270.365682 
L 301.384173 -267.311136 
L 302.147097 -264.256591 
L 302.923632 -261.202045 
L 303.71229 -258.1475 
L 304.511688 -255.092955 
L 305.32044 -252.038409 
L 306.137037 -248.983864 
L 306.959695 -245.929318 
L 307.786214 -242.874773 
L 308.613831 -239.820227 
L 309.439088 -236.765682 
L 310.257732 -233.711136 
L 311.064645 -230.656591 
L 311.853817 -227.602045 
L 312.618378 -224.5475 
L 313.350672 -221.492955 
L 314.042402 -218.438409 
L 314.684815 -215.383864 
L 315.268945 -212.329318 
L 315.785891 -209.274773 
L 316.227125 -206.220227 
L 316.584814 -203.165682 
L 316.852142 -200.111136 
L 317.023611 -197.056591 
L 317.095312 -194.002045 
L 317.06515 -190.9475 
L 316.932996 -187.892955 
L 316.70078 -184.838409 
L 316.3725 -181.783864 
L 315.954143 -178.729318 
L 315.453537 -175.674773 
L 314.880115 -172.620227 
L 314.244626 -169.565682 
L 313.558784 -166.511136 
L 312.834884 -163.456591 
L 312.085399 -160.402045 
L 311.322572 -157.3475 
L 310.558033 -154.292955 
L 309.802447 -151.238409 
L 309.065205 -148.183864 
L 308.35419 -145.129318 
L 307.675608 -142.074773 
L 307.033888 -139.020227 
L 306.43167 -135.965682 
L 305.869858 -132.911136 
L 305.347744 -129.856591 
L 304.863187 -126.802045 
L 304.412837 -123.7475 
L 303.992395 -120.692955 
L 303.596882 -117.638409 
L 303.220918 -114.583864 
L 302.858994 -111.529318 
L 302.505715 -108.474773 
L 302.156017 -105.420227 
L 301.80535 -102.365682 
L 301.449813 -99.311136 
L 301.086253 -96.256591 
L 300.712312 -93.202045 
L 300.326446 -90.1475 
L 299.927898 -87.092955 
L 299.516649 -84.038409 
L 299.093343 -80.983864 
L 298.659195 -77.929318 
L 298.21589 -74.874773 
L 297.765481 -71.820227 
L 297.310284 -68.765682 
L 296.852784 -65.711136 
L 296.395544 -62.656591 
L 295.941132 -59.602045 
L 295.492052 -56.5475 
z
" style="stroke: #000000; stroke-opacity: 0.6"/>
    </defs>
    <g clip-path="url(#p5cfd4b6776)">
     <use xlink:href="#m51a574e5c3" x="0" y="402.464375" style="fill: #38f5a6; fill-opacity: 0.6; stroke: #000000; stroke-opacity: 0.6"/>
    </g>
   </g>
   <g id="matplotlib.axis_1">
    <g id="xtick_1">
     <g id="line2d_1">
      <defs>
       <path id="ma665001c9e" d="M 0 0 
L 0 3.5 
" style="stroke: #000000; stroke-width: 0.8"/>
      </defs>
      <g>
       <use xlink:href="#ma665001c9e" x="177.595312" y="361.036875" style="stroke: #000000; stroke-width: 0.8"/>
      </g>
     </g>
     <g id="text_1">
      <!-- Control -->
      <g transform="translate(159.524219 375.635312) scale(0.1 -0.1)">
       <defs>
        <path id="DejaVuSans-43" d="M 4122 4306 
L 4122 3641 
Q 3803 3938 3442 4084 
Q 3081 4231 2675 4231 
Q 1875 4231 1450 3742 
Q 1025 3253 1025 2328 
Q 1025 1406 1450 917 
Q 1875 428 2675 428 
Q 3081 428 3442 575 
Q 3803 722 4122 1019 
L 4122 359 
Q 3791 134 3420 21 
Q 3050 -91 2638 -91 
Q 1578 -91 968 557 
Q 359 1206 359 2328 
Q 359 3453 968 4101 
Q 1578 4750 2638 4750 
Q 3056 4750 3426 4639 
Q 3797 4528 4122 4306 
z
" transform="scale(0.015625)"/>
        <path id="DejaVuSans-6f" d="M 1959 3097 
Q 1497 3097 1228 2736 
Q 959 2375 959 1747 
Q 959 1119 1226 758 
Q 1494 397 1959 397 
Q 2419 397 2687 759 
Q 2956 1122 2956 1747 
Q 2956 2369 2687 2733 
Q 2419 3097 1959 3097 
z
M 1959 3584 
Q 2709 3584 3137 3096 
Q 3566 2609 3566 1747 
Q 3566 888 3137 398 
Q 2709 -91 1959 -91 
Q 1206 -91 779 398 
Q 353 888 353 1747 
Q 353 2609 779 3096 
Q 1206 3584 1959 3584 
z
" transform="scale(0.015625)"/>
        <path id="DejaVuSans-6e" d="M 3513 2113 
L 3513 0 
L 2938 0 
L 2938 2094 
Q 2938 2591 2744 2837 
Q 2550 3084 2163 3084 
Q 1697 3084 1428 2787 
Q 1159 2491 1159 1978 
L 1159 0 
L 581 0 
L 581 3500 
L 1159 3500 
L 1159 2956 
Q 1366 3272 1645 3428 
Q 1925 3584 2291 3584 
Q 2894 3584 3203 3211 
Q 3513 2838 3513 2113 
z
" transform="scale(0.015625)"/>
        <path id="DejaVuSans-74" d="M 1172 4494 
L 1172 3500 
L 2356 3500 
L 2356 3053 
L 1172 3053 
L 1172 1153 
Q 1172 725 1289 603 
Q 1406 481 1766 481 
L 2356 481 
L 2356 0 
L 1766 0 
Q 1100 0 847 248 
Q 594 497 594 1153 
L 594 3053 
L 172 3053 
L 172 3500 
L 594 3500 
L 594 4494 
L 1172 4494 
z
" transform="scale(0.015625)"/>
        <path id="DejaVuSans-72" d="M 2631 2963 
Q 2534 3019 2420 3045 
Q 2306 3072 2169 3072 
Q 1681 3072 1420 2755 
Q 1159 2438 1159 1844 
L 1159 0 
L 581 0 
L 581 3500 
L 1159 3500 
L 1159 2956 
Q 1341 3275 1631 3429 
Q 1922 3584 2338 3584 
Q 2397 3584 2469 3576 
Q 2541 3569 2628 3553 
L 2631 2963 
z
" transform="scale(0.015625)"/>
        <path id="DejaVuSans-6c" d="M 603 4863 
L 1178 4863 
L 1178 0 
L 603 0 
L 603 4863 
z
" transform="scale(0.015625)"/>
       </defs>
       <use xlink:href="#DejaVuSans-43"/>
       <use xlink:href="#DejaVuSans-6f" x="69.824219"/>
       <use xlink:href="#DejaVuSans-6e" x="131.005859"/>
       <use xlink:href="#DejaVuSans-74" x="194.384766"/>
       <use xlink:href="#DejaVuSans-72" x="233.59375"/>
       <use xlink:href="#DejaVuSans-6f" x="272.457031"/>
       <use xlink:href="#DejaVuSans-6c" x="333.638672"/>
      </g>
     </g>
    </g>
    <g id="xtick_2">
     <g id="line2d_2">
      <g>
       <use xlink:href="#ma665001c9e" x="289.195312" y="361.036875" style="stroke: #000000; stroke-width: 0.8"/>
      </g>
     </g>
     <g id="text_2">
      <!-- CASK -->
      <g transform="translate(275.830469 375.635312) scale(0.1 -0.1)">
       <defs>
        <path id="DejaVuSans-41" d="M 2188 4044 
L 1331 1722 
L 3047 1722 
L 2188 4044 
z
M 1831 4666 
L 2547 4666 
L 4325 0 
L 3669 0 
L 3244 1197 
L 1141 1197 
L 716 0 
L 50 0 
L 1831 4666 
z
" transform="scale(0.015625)"/>
        <path id="DejaVuSans-53" d="M 3425 4513 
L 3425 3897 
Q 3066 4069 2747 4153 
Q 2428 4238 2131 4238 
Q 1616 4238 1336 4038 
Q 1056 3838 1056 3469 
Q 1056 3159 1242 3001 
Q 1428 2844 1947 2747 
L 2328 2669 
Q 3034 2534 3370 2195 
Q 3706 1856 3706 1288 
Q 3706 609 3251 259 
Q 2797 -91 1919 -91 
Q 1588 -91 1214 -16 
Q 841 59 441 206 
L 441 856 
Q 825 641 1194 531 
Q 1563 422 1919 422 
Q 2459 422 2753 634 
Q 3047 847 3047 1241 
Q 3047 1584 2836 1778 
Q 2625 1972 2144 2069 
L 1759 2144 
Q 1053 2284 737 2584 
Q 422 2884 422 3419 
Q 422 4038 858 4394 
Q 1294 4750 2059 4750 
Q 2388 4750 2728 4690 
Q 3069 4631 3425 4513 
z
" transform="scale(0.015625)"/>
        <path id="DejaVuSans-4b" d="M 628 4666 
L 1259 4666 
L 1259 2694 
L 3353 4666 
L 4166 4666 
L 1850 2491 
L 4331 0 
L 3500 0 
L 1259 2247 
L 1259 0 
L 628 0 
L 628 4666 
z
" transform="scale(0.015625)"/>
       </defs>
       <use xlink:href="#DejaVuSans-43"/>
       <use xlink:href="#DejaVuSans-41" x="69.824219"/>
       <use xlink:href="#DejaVuSans-53" x="138.232422"/>
       <use xlink:href="#DejaVuSans-4b" x="201.708984"/>
      </g>
     </g>
    </g>
    <g id="text_3">
     <!-- Groups -->
     <g transform="translate(208.441406 392.352812) scale(0.14 -0.14)">
      <defs>
       <path id="DejaVuSans-47" d="M 3809 666 
L 3809 1919 
L 2778 1919 
L 2778 2438 
L 4434 2438 
L 4434 434 
Q 4069 175 3628 42 
Q 3188 -91 2688 -91 
Q 1594 -91 976 548 
Q 359 1188 359 2328 
Q 359 3472 976 4111 
Q 1594 4750 2688 4750 
Q 3144 4750 3555 4637 
Q 3966 4525 4313 4306 
L 4313 3634 
Q 3963 3931 3569 4081 
Q 3175 4231 2741 4231 
Q 1884 4231 1454 3753 
Q 1025 3275 1025 2328 
Q 1025 1384 1454 906 
Q 1884 428 2741 428 
Q 3075 428 3337 486 
Q 3600 544 3809 666 
z
" transform="scale(0.015625)"/>
       <path id="DejaVuSans-75" d="M 544 1381 
L 544 3500 
L 1119 3500 
L 1119 1403 
Q 1119 906 1312 657 
Q 1506 409 1894 409 
Q 2359 409 2629 706 
Q 2900 1003 2900 1516 
L 2900 3500 
L 3475 3500 
L 3475 0 
L 2900 0 
L 2900 538 
Q 2691 219 2414 64 
Q 2138 -91 1772 -91 
Q 1169 -91 856 284 
Q 544 659 544 1381 
z
M 1991 3584 
L 1991 3584 
z
" transform="scale(0.015625)"/>
       <path id="DejaVuSans-70" d="M 1159 525 
L 1159 -1331 
L 581 -1331 
L 581 3500 
L 1159 3500 
L 1159 2969 
Q 1341 3281 1617 3432 
Q 1894 3584 2278 3584 
Q 2916 3584 3314 3078 
Q 3713 2572 3713 1747 
Q 3713 922 3314 415 
Q 2916 -91 2278 -91 
Q 1894 -91 1617 61 
Q 1341 213 1159 525 
z
M 3116 1747 
Q 3116 2381 2855 2742 
Q 2594 3103 2138 3103 
Q 1681 3103 1420 2742 
Q 1159 2381 1159 1747 
Q 1159 1113 1420 752 
Q 1681 391 2138 391 
Q 2594 391 2855 752 
Q 3116 1113 3116 1747 
z
" transform="scale(0.015625)"/>
       <path id="DejaVuSans-73" d="M 2834 3397 
L 2834 2853 
Q 2591 2978 2328 3040 
Q 2066 3103 1784 3103 
Q 1356 3103 1142 2972 
Q 928 2841 928 2578 
Q 928 2378 1081 2264 
Q 1234 2150 1697 2047 
L 1894 2003 
Q 2506 1872 2764 1633 
Q 3022 1394 3022 966 
Q 3022 478 2636 193 
Q 2250 -91 1575 -91 
Q 1294 -91 989 -36 
Q 684 19 347 128 
L 347 722 
Q 666 556 975 473 
Q 1284 391 1588 391 
Q 1994 391 2212 530 
Q 2431 669 2431 922 
Q 2431 1156 2273 1281 
Q 2116 1406 1581 1522 
L 1381 1569 
Q 847 1681 609 1914 
Q 372 2147 372 2553 
Q 372 3047 722 3315 
Q 1072 3584 1716 3584 
Q 2034 3584 2315 3537 
Q 2597 3491 2834 3397 
z
" transform="scale(0.015625)"/>
      </defs>
      <use xlink:href="#DejaVuSans-47"/>
      <use xlink:href="#DejaVuSans-72" x="77.490234"/>
      <use xlink:href="#DejaVuSans-6f" x="116.353516"/>
      <use xlink:href="#DejaVuSans-75" x="177.535156"/>
      <use xlink:href="#DejaVuSans-70" x="240.914062"/>
      <use xlink:href="#DejaVuSans-73" x="304.390625"/>
     </g>
    </g>
   </g>
   <g id="matplotlib.axis_2">
    <g id="ytick_1">
     <g id="line2d_3">
      <defs>
       <path id="m226c9a9ff4" d="M 0 0 
L -3.5 0 
" style="stroke: #000000; stroke-width: 0.8"/>
      </defs>
      <g>
       <use xlink:href="#m226c9a9ff4" x="65.995312" y="360.608348" style="stroke: #000000; stroke-width: 0.8"/>
      </g>
     </g>
     <g id="text_4">
      <!-- 50 -->
      <g transform="translate(46.270312 364.407567) scale(0.1 -0.1)">
       <defs>
        <path id="DejaVuSans-35" d="M 691 4666 
L 3169 4666 
L 3169 4134 
L 1269 4134 
L 1269 2991 
Q 1406 3038 1543 3061 
Q 1681 3084 1819 3084 
Q 2600 3084 3056 2656 
Q 3513 2228 3513 1497 
Q 3513 744 3044 326 
Q 2575 -91 1722 -91 
Q 1428 -91 1123 -41 
Q 819 9 494 109 
L 494 744 
Q 775 591 1075 516 
Q 1375 441 1709 441 
Q 2250 441 2565 725 
Q 2881 1009 2881 1497 
Q 2881 1984 2565 2268 
Q 2250 2553 1709 2553 
Q 1456 2553 1204 2497 
Q 953 2441 691 2322 
L 691 4666 
z
" transform="scale(0.015625)"/>
        <path id="DejaVuSans-30" d="M 2034 4250 
Q 1547 4250 1301 3770 
Q 1056 3291 1056 2328 
Q 1056 1369 1301 889 
Q 1547 409 2034 409 
Q 2525 409 2770 889 
Q 3016 1369 3016 2328 
Q 3016 3291 2770 3770 
Q 2525 4250 2034 4250 
z
M 2034 4750 
Q 2819 4750 3233 4129 
Q 3647 3509 3647 2328 
Q 3647 1150 3233 529 
Q 2819 -91 2034 -91 
Q 1250 -91 836 529 
Q 422 1150 422 2328 
Q 422 3509 836 4129 
Q 1250 4750 2034 4750 
z
" transform="scale(0.015625)"/>
       </defs>
       <use xlink:href="#DejaVuSans-35"/>
       <use xlink:href="#DejaVuSans-30" x="63.623047"/>
      </g>
     </g>
    </g>
    <g id="ytick_2">
     <g id="line2d_4">
      <g>
       <use xlink:href="#m226c9a9ff4" x="65.995312" y="317.456066" style="stroke: #000000; stroke-width: 0.8"/>
      </g>
     </g>
     <g id="text_5">
      <!-- 52 -->
      <g transform="translate(46.270312 321.255285) scale(0.1 -0.1)">
       <defs>
        <path id="DejaVuSans-32" d="M 1228 531 
L 3431 531 
L 3431 0 
L 469 0 
L 469 531 
Q 828 903 1448 1529 
Q 2069 2156 2228 2338 
Q 2531 2678 2651 2914 
Q 2772 3150 2772 3378 
Q 2772 3750 2511 3984 
Q 2250 4219 1831 4219 
Q 1534 4219 1204 4116 
Q 875 4013 500 3803 
L 500 4441 
Q 881 4594 1212 4672 
Q 1544 4750 1819 4750 
Q 2544 4750 2975 4387 
Q 3406 4025 3406 3419 
Q 3406 3131 3298 2873 
Q 3191 2616 2906 2266 
Q 2828 2175 2409 1742 
Q 1991 1309 1228 531 
z
" transform="scale(0.015625)"/>
       </defs>
       <use xlink:href="#DejaVuSans-35"/>
       <use xlink:href="#DejaVuSans-32" x="63.623047"/>
      </g>
     </g>
    </g>
    <g id="ytick_3">
     <g id="line2d_5">
      <g>
       <use xlink:href="#m226c9a9ff4" x="65.995312" y="274.303785" style="stroke: #000000; stroke-width: 0.8"/>
      </g>
     </g>
     <g id="text_6">
      <!-- 54 -->
      <g transform="translate(46.270312 278.103004) scale(0.1 -0.1)">
       <defs>
        <path id="DejaVuSans-34" d="M 2419 4116 
L 825 1625 
L 2419 1625 
L 2419 4116 
z
M 2253 4666 
L 3047 4666 
L 3047 1625 
L 3713 1625 
L 3713 1100 
L 3047 1100 
L 3047 0 
L 2419 0 
L 2419 1100 
L 313 1100 
L 313 1709 
L 2253 4666 
z
" transform="scale(0.015625)"/>
       </defs>
       <use xlink:href="#DejaVuSans-35"/>
       <use xlink:href="#DejaVuSans-34" x="63.623047"/>
      </g>
     </g>
    </g>
    <g id="ytick_4">
     <g id="line2d_6">
      <g>
       <use xlink:href="#m226c9a9ff4" x="65.995312" y="231.151503" style="stroke: #000000; stroke-width: 0.8"/>
      </g>
     </g>
     <g id="text_7">
      <!-- 56 -->
      <g transform="translate(46.270312 234.950722) scale(0.1 -0.1)">
       <defs>
        <path id="DejaVuSans-36" d="M 2113 2584 
Q 1688 2584 1439 2293 
Q 1191 2003 1191 1497 
Q 1191 994 1439 701 
Q 1688 409 2113 409 
Q 2538 409 2786 701 
Q 3034 994 3034 1497 
Q 3034 2003 2786 2293 
Q 2538 2584 2113 2584 
z
M 3366 4563 
L 3366 3988 
Q 3128 4100 2886 4159 
Q 2644 4219 2406 4219 
Q 1781 4219 1451 3797 
Q 1122 3375 1075 2522 
Q 1259 2794 1537 2939 
Q 1816 3084 2150 3084 
Q 2853 3084 3261 2657 
Q 3669 2231 3669 1497 
Q 3669 778 3244 343 
Q 2819 -91 2113 -91 
Q 1303 -91 875 529 
Q 447 1150 447 2328 
Q 447 3434 972 4092 
Q 1497 4750 2381 4750 
Q 2619 4750 2861 4703 
Q 3103 4656 3366 4563 
z
" transform="scale(0.015625)"/>
       </defs>
       <use xlink:href="#DejaVuSans-35"/>
       <use xlink:href="#DejaVuSans-36" x="63.623047"/>
      </g>
     </g>
    </g>
    <g id="ytick_5">
     <g id="line2d_7">
      <g>
       <use xlink:href="#m226c9a9ff4" x="65.995312" y="187.999222" style="stroke: #000000; stroke-width: 0.8"/>
      </g>
     </g>
     <g id="text_8">
      <!-- 58 -->
      <g transform="translate(46.270312 191.798441) scale(0.1 -0.1)">
       <defs>
        <path id="DejaVuSans-38" d="M 2034 2216 
Q 1584 2216 1326 1975 
Q 1069 1734 1069 1313 
Q 1069 891 1326 650 
Q 1584 409 2034 409 
Q 2484 409 2743 651 
Q 3003 894 3003 1313 
Q 3003 1734 2745 1975 
Q 2488 2216 2034 2216 
z
M 1403 2484 
Q 997 2584 770 2862 
Q 544 3141 544 3541 
Q 544 4100 942 4425 
Q 1341 4750 2034 4750 
Q 2731 4750 3128 4425 
Q 3525 4100 3525 3541 
Q 3525 3141 3298 2862 
Q 3072 2584 2669 2484 
Q 3125 2378 3379 2068 
Q 3634 1759 3634 1313 
Q 3634 634 3220 271 
Q 2806 -91 2034 -91 
Q 1263 -91 848 271 
Q 434 634 434 1313 
Q 434 1759 690 2068 
Q 947 2378 1403 2484 
z
M 1172 3481 
Q 1172 3119 1398 2916 
Q 1625 2713 2034 2713 
Q 2441 2713 2670 2916 
Q 2900 3119 2900 3481 
Q 2900 3844 2670 4047 
Q 2441 4250 2034 4250 
Q 1625 4250 1398 4047 
Q 1172 3844 1172 3481 
z
" transform="scale(0.015625)"/>
       </defs>
       <use xlink:href="#DejaVuSans-35"/>
       <use xlink:href="#DejaVuSans-38" x="63.623047"/>
      </g>
     </g>
    </g>
    <g id="ytick_6">
     <g id="line2d_8">
      <g>
       <use xlink:href="#m226c9a9ff4" x="65.995312" y="144.84694" style="stroke: #000000; stroke-width: 0.8"/>
      </g>
     </g>
     <g id="text_9">
      <!-- 60 -->
      <g transform="translate(46.270312 148.646159) scale(0.1 -0.1)">
       <use xlink:href="#DejaVuSans-36"/>
       <use xlink:href="#DejaVuSans-30" x="63.623047"/>
      </g>
     </g>
    </g>
    <g id="ytick_7">
     <g id="line2d_9">
      <g>
       <use xlink:href="#m226c9a9ff4" x="65.995312" y="101.694659" style="stroke: #000000; stroke-width: 0.8"/>
      </g>
     </g>
     <g id="text_10">
      <!-- 62 -->
      <g transform="translate(46.270312 105.493878) scale(0.1 -0.1)">
       <use xlink:href="#DejaVuSans-36"/>
       <use xlink:href="#DejaVuSans-32" x="63.623047"/>
      </g>
     </g>
    </g>
    <g id="ytick_8">
     <g id="line2d_10">
      <g>
       <use xlink:href="#m226c9a9ff4" x="65.995312" y="58.542377" style="stroke: #000000; stroke-width: 0.8"/>
      </g>
     </g>
     <g id="text_11">
      <!-- 64 -->
      <g transform="translate(46.270312 62.341596) scale(0.1 -0.1)">
       <use xlink:href="#DejaVuSans-36"/>
       <use xlink:href="#DejaVuSans-34" x="63.623047"/>
      </g>
     </g>
    </g>
    <g id="text_12">
     <!-- Learning Score (%) -->
     <g transform="translate(39.35875 261.27375) rotate(-90) scale(0.14 -0.14)">
      <defs>
       <path id="DejaVuSans-4c" d="M 628 4666 
L 1259 4666 
L 1259 531 
L 3531 531 
L 3531 0 
L 628 0 
L 628 4666 
z
" transform="scale(0.015625)"/>
       <path id="DejaVuSans-65" d="M 3597 1894 
L 3597 1613 
L 953 1613 
Q 991 1019 1311 708 
Q 1631 397 2203 397 
Q 2534 397 2845 478 
Q 3156 559 3463 722 
L 3463 178 
Q 3153 47 2828 -22 
Q 2503 -91 2169 -91 
Q 1331 -91 842 396 
Q 353 884 353 1716 
Q 353 2575 817 3079 
Q 1281 3584 2069 3584 
Q 2775 3584 3186 3129 
Q 3597 2675 3597 1894 
z
M 3022 2063 
Q 3016 2534 2758 2815 
Q 2500 3097 2075 3097 
Q 1594 3097 1305 2825 
Q 1016 2553 972 2059 
L 3022 2063 
z
" transform="scale(0.015625)"/>
       <path id="DejaVuSans-61" d="M 2194 1759 
Q 1497 1759 1228 1600 
Q 959 1441 959 1056 
Q 959 750 1161 570 
Q 1363 391 1709 391 
Q 2188 391 2477 730 
Q 2766 1069 2766 1631 
L 2766 1759 
L 2194 1759 
z
M 3341 1997 
L 3341 0 
L 2766 0 
L 2766 531 
Q 2569 213 2275 61 
Q 1981 -91 1556 -91 
Q 1019 -91 701 211 
Q 384 513 384 1019 
Q 384 1609 779 1909 
Q 1175 2209 1959 2209 
L 2766 2209 
L 2766 2266 
Q 2766 2663 2505 2880 
Q 2244 3097 1772 3097 
Q 1472 3097 1187 3025 
Q 903 2953 641 2809 
L 641 3341 
Q 956 3463 1253 3523 
Q 1550 3584 1831 3584 
Q 2591 3584 2966 3190 
Q 3341 2797 3341 1997 
z
" transform="scale(0.015625)"/>
       <path id="DejaVuSans-69" d="M 603 3500 
L 1178 3500 
L 1178 0 
L 603 0 
L 603 3500 
z
M 603 4863 
L 1178 4863 
L 1178 4134 
L 603 4134 
L 603 4863 
z
" transform="scale(0.015625)"/>
       <path id="DejaVuSans-67" d="M 2906 1791 
Q 2906 2416 2648 2759 
Q 2391 3103 1925 3103 
Q 1463 3103 1205 2759 
Q 947 2416 947 1791 
Q 947 1169 1205 825 
Q 1463 481 1925 481 
Q 2391 481 2648 825 
Q 2906 1169 2906 1791 
z
M 3481 434 
Q 3481 -459 3084 -895 
Q 2688 -1331 1869 -1331 
Q 1566 -1331 1297 -1286 
Q 1028 -1241 775 -1147 
L 775 -588 
Q 1028 -725 1275 -790 
Q 1522 -856 1778 -856 
Q 2344 -856 2625 -561 
Q 2906 -266 2906 331 
L 2906 616 
Q 2728 306 2450 153 
Q 2172 0 1784 0 
Q 1141 0 747 490 
Q 353 981 353 1791 
Q 353 2603 747 3093 
Q 1141 3584 1784 3584 
Q 2172 3584 2450 3431 
Q 2728 3278 2906 2969 
L 2906 3500 
L 3481 3500 
L 3481 434 
z
" transform="scale(0.015625)"/>
       <path id="DejaVuSans-20" transform="scale(0.015625)"/>
       <path id="DejaVuSans-63" d="M 3122 3366 
L 3122 2828 
Q 2878 2963 2633 3030 
Q 2388 3097 2138 3097 
Q 1578 3097 1268 2742 
Q 959 2388 959 1747 
Q 959 1106 1268 751 
Q 1578 397 2138 397 
Q 2388 397 2633 464 
Q 2878 531 3122 666 
L 3122 134 
Q 2881 22 2623 -34 
Q 2366 -91 2075 -91 
Q 1284 -91 818 406 
Q 353 903 353 1747 
Q 353 2603 823 3093 
Q 1294 3584 2113 3584 
Q 2378 3584 2631 3529 
Q 2884 3475 3122 3366 
z
" transform="scale(0.015625)"/>
       <path id="DejaVuSans-28" d="M 1984 4856 
Q 1566 4138 1362 3434 
Q 1159 2731 1159 2009 
Q 1159 1288 1364 580 
Q 1569 -128 1984 -844 
L 1484 -844 
Q 1016 -109 783 600 
Q 550 1309 550 2009 
Q 550 2706 781 3412 
Q 1013 4119 1484 4856 
L 1984 4856 
z
" transform="scale(0.015625)"/>
       <path id="DejaVuSans-25" d="M 4653 2053 
Q 4381 2053 4226 1822 
Q 4072 1591 4072 1178 
Q 4072 772 4226 539 
Q 4381 306 4653 306 
Q 4919 306 5073 539 
Q 5228 772 5228 1178 
Q 5228 1588 5073 1820 
Q 4919 2053 4653 2053 
z
M 4653 2450 
Q 5147 2450 5437 2106 
Q 5728 1763 5728 1178 
Q 5728 594 5436 251 
Q 5144 -91 4653 -91 
Q 4153 -91 3862 251 
Q 3572 594 3572 1178 
Q 3572 1766 3864 2108 
Q 4156 2450 4653 2450 
z
M 1428 4353 
Q 1159 4353 1004 4120 
Q 850 3888 850 3481 
Q 850 3069 1003 2837 
Q 1156 2606 1428 2606 
Q 1700 2606 1854 2837 
Q 2009 3069 2009 3481 
Q 2009 3884 1853 4118 
Q 1697 4353 1428 4353 
z
M 4250 4750 
L 4750 4750 
L 1831 -91 
L 1331 -91 
L 4250 4750 
z
M 1428 4750 
Q 1922 4750 2215 4408 
Q 2509 4066 2509 3481 
Q 2509 2891 2217 2550 
Q 1925 2209 1428 2209 
Q 931 2209 642 2551 
Q 353 2894 353 3481 
Q 353 4063 643 4406 
Q 934 4750 1428 4750 
z
" transform="scale(0.015625)"/>
       <path id="DejaVuSans-29" d="M 513 4856 
L 1013 4856 
Q 1481 4119 1714 3412 
Q 1947 2706 1947 2009 
Q 1947 1309 1714 600 
Q 1481 -109 1013 -844 
L 513 -844 
Q 928 -128 1133 580 
Q 1338 1288 1338 2009 
Q 1338 2731 1133 3434 
Q 928 4138 513 4856 
z
" transform="scale(0.015625)"/>
      </defs>
      <use xlink:href="#DejaVuSans-4c"/>
      <use xlink:href="#DejaVuSans-65" x="53.962891"/>
      <use xlink:href="#DejaVuSans-61" x="115.486328"/>
      <use xlink:href="#DejaVuSans-72" x="176.765625"/>
      <use xlink:href="#DejaVuSans-6e" x="216.128906"/>
      <use xlink:href="#DejaVuSans-69" x="279.507812"/>
      <use xlink:href="#DejaVuSans-6e" x="307.291016"/>
      <use xlink:href="#DejaVuSans-67" x="370.669922"/>
      <use xlink:href="#DejaVuSans-20" x="434.146484"/>
      <use xlink:href="#DejaVuSans-53" x="465.933594"/>
      <use xlink:href="#DejaVuSans-63" x="529.410156"/>
      <use xlink:href="#DejaVuSans-6f" x="584.390625"/>
      <use xlink:href="#DejaVuSans-72" x="645.572266"/>
      <use xlink:href="#DejaVuSans-65" x="684.435547"/>
      <use xlink:href="#DejaVuSans-20" x="745.958984"/>
      <use xlink:href="#DejaVuSans-28" x="777.746094"/>
      <use xlink:href="#DejaVuSans-25" x="816.759766"/>
      <use xlink:href="#DejaVuSans-29" x="911.779297"/>
     </g>
    </g>
   </g>
   <g id="patch_3">
    <path d="M 163.645312 236.852392 
L 191.545312 236.852392 
L 191.545312 145.719583 
L 163.645312 145.719583 
L 163.645312 236.852392 
z
" clip-path="url(#p5cfd4b6776)" style="fill: #ffffff; stroke: #000000; stroke-linejoin: miter"/>
   </g>
   <g id="line2d_11">
    <path d="M 177.595312 236.852392 
L 177.595312 307.62229 
" clip-path="url(#p5cfd4b6776)" style="fill: none; stroke: #000000; stroke-linecap: square"/>
   </g>
   <g id="line2d_12">
    <path d="M 177.595312 145.719583 
L 177.595312 97.224403 
" clip-path="url(#p5cfd4b6776)" style="fill: none; stroke: #000000; stroke-linecap: square"/>
   </g>
   <g id="line2d_13">
    <path d="M 170.620313 307.62229 
L 184.570312 307.62229 
" clip-path="url(#p5cfd4b6776)" style="fill: none; stroke: #000000; stroke-linecap: square"/>
   </g>
   <g id="line2d_14">
    <path d="M 170.620313 97.224403 
L 184.570312 97.224403 
" clip-path="url(#p5cfd4b6776)" style="fill: none; stroke: #000000; stroke-linecap: square"/>
   </g>
   <g id="patch_4">
    <path d="M 275.245313 246.316161 
L 303.145312 246.316161 
L 303.145312 185.28531 
L 275.245313 185.28531 
L 275.245313 246.316161 
z
" clip-path="url(#p5cfd4b6776)" style="fill: #ffffff; stroke: #000000; stroke-linejoin: miter"/>
   </g>
   <g id="line2d_15">
    <path d="M 289.195312 246.316161 
L 289.195312 317.596088 
" clip-path="url(#p5cfd4b6776)" style="fill: none; stroke: #000000; stroke-linecap: square"/>
   </g>
   <g id="line2d_16">
    <path d="M 289.195312 185.28531 
L 289.195312 131.700667 
" clip-path="url(#p5cfd4b6776)" style="fill: none; stroke: #000000; stroke-linecap: square"/>
   </g>
   <g id="line2d_17">
    <path d="M 282.220312 317.596088 
L 296.170312 317.596088 
" clip-path="url(#p5cfd4b6776)" style="fill: none; stroke: #000000; stroke-linecap: square"/>
   </g>
   <g id="line2d_18">
    <path d="M 282.220312 131.700667 
L 296.170312 131.700667 
" clip-path="url(#p5cfd4b6776)" style="fill: none; stroke: #000000; stroke-linecap: square"/>
   </g>
   <g id="line2d_19">
    <path d="M 163.645312 192.360411 
L 191.545312 192.360411 
" clip-path="url(#p5cfd4b6776)" style="fill: none; stroke: #000000"/>
   </g>
   <g id="line2d_20">
    <path d="M 275.245313 215.040318 
L 303.145312 215.040318 
" clip-path="url(#p5cfd4b6776)" style="fill: none; stroke: #000000"/>
   </g>
   <g id="patch_5">
    <path d="M 65.995312 361.036875 
L 65.995312 28.396875 
" style="fill: none; stroke: #000000; stroke-width: 0.8; stroke-linejoin: miter; stroke-linecap: square"/>
   </g>
   <g id="patch_6">
    <path d="M 400.795313 361.036875 
L 400.795313 28.396875 
" style="fill: none; stroke: #000000; stroke-width: 0.8; stroke-linejoin: miter; stroke-linecap: square"/>
   </g>
   <g id="patch_7">
    <path d="M 65.995312 361.036875 
L 400.795312 361.036875 
" style="fill: none; stroke: #000000; stroke-width: 0.8; stroke-linejoin: miter; stroke-linecap: square"/>
   </g>
   <g id="patch_8">
    <path d="M 65.995312 28.396875 
L 400.795312 28.396875 
" style="fill: none; stroke: #000000; stroke-width: 0.8; stroke-linejoin: miter; stroke-linecap: square"/>
   </g>
   <g id="PathCollection_1">
    <defs>
     <path id="m00c83f03b6" d="M 0 3 
C 0.795609 3 1.55874 2.683901 2.12132 2.12132 
C 2.683901 1.55874 3 0.795609 3 0 
C 3 -0.795609 2.683901 -1.55874 2.12132 -2.12132 
C 1.55874 -2.683901 0.795609 -3 0 -3 
C -0.795609 -3 -1.55874 -2.683901 -2.12132 -2.12132 
C -2.683901 -1.55874 -3 -0.795609 -3 0 
C -3 0.795609 -2.683901 1.55874 -2.12132 2.12132 
C -1.55874 2.683901 -0.795609 3 0 3 
z
" style="stroke: #18c1f5; stroke-opacity: 0.8"/>
    </defs>
    <g clip-path="url(#p5cfd4b6776)">
     <use xlink:href="#m00c83f03b6" x="171.563524" y="121.229643" style="fill: #18c1f5; fill-opacity: 0.8; stroke: #18c1f5; stroke-opacity: 0.8"/>
     <use xlink:href="#m00c83f03b6" x="184.2297" y="307.62229" style="fill: #18c1f5; fill-opacity: 0.8; stroke: #18c1f5; stroke-opacity: 0.8"/>
     <use xlink:href="#m00c83f03b6" x="183.057062" y="184.212196" style="fill: #18c1f5; fill-opacity: 0.8; stroke: #18c1f5; stroke-opacity: 0.8"/>
     <use xlink:href="#m00c83f03b6" x="176.675839" y="186.171448" style="fill: #18c1f5; fill-opacity: 0.8; stroke: #18c1f5; stroke-opacity: 0.8"/>
     <use xlink:href="#m00c83f03b6" x="183.050924" y="210.128477" style="fill: #18c1f5; fill-opacity: 0.8; stroke: #18c1f5; stroke-opacity: 0.8"/>
     <use xlink:href="#m00c83f03b6" x="180.642817" y="121.159733" style="fill: #18c1f5; fill-opacity: 0.8; stroke: #18c1f5; stroke-opacity: 0.8"/>
     <use xlink:href="#m00c83f03b6" x="172.807937" y="219.419001" style="fill: #18c1f5; fill-opacity: 0.8; stroke: #18c1f5; stroke-opacity: 0.8"/>
     <use xlink:href="#m00c83f03b6" x="179.757794" y="198.549375" style="fill: #18c1f5; fill-opacity: 0.8; stroke: #18c1f5; stroke-opacity: 0.8"/>
     <use xlink:href="#m00c83f03b6" x="175.367057" y="263.023533" style="fill: #18c1f5; fill-opacity: 0.8; stroke: #18c1f5; stroke-opacity: 0.8"/>
     <use xlink:href="#m00c83f03b6" x="178.716244" y="237.907303" style="fill: #18c1f5; fill-opacity: 0.8; stroke: #18c1f5; stroke-opacity: 0.8"/>
     <use xlink:href="#m00c83f03b6" x="176.803637" y="97.224403" style="fill: #18c1f5; fill-opacity: 0.8; stroke: #18c1f5; stroke-opacity: 0.8"/>
     <use xlink:href="#m00c83f03b6" x="183.711177" y="105.177063" style="fill: #18c1f5; fill-opacity: 0.8; stroke: #18c1f5; stroke-opacity: 0.8"/>
     <use xlink:href="#m00c83f03b6" x="184.173869" y="154.279592" style="fill: #18c1f5; fill-opacity: 0.8; stroke: #18c1f5; stroke-opacity: 0.8"/>
     <use xlink:href="#m00c83f03b6" x="183.364172" y="232.20189" style="fill: #18c1f5; fill-opacity: 0.8; stroke: #18c1f5; stroke-opacity: 0.8"/>
     <use xlink:href="#m00c83f03b6" x="173.414556" y="290.126016" style="fill: #18c1f5; fill-opacity: 0.8; stroke: #18c1f5; stroke-opacity: 0.8"/>
     <use xlink:href="#m00c83f03b6" x="174.162562" y="233.687659" style="fill: #18c1f5; fill-opacity: 0.8; stroke: #18c1f5; stroke-opacity: 0.8"/>
     <use xlink:href="#m00c83f03b6" x="177.923962" y="265.095318" style="fill: #18c1f5; fill-opacity: 0.8; stroke: #18c1f5; stroke-opacity: 0.8"/>
     <use xlink:href="#m00c83f03b6" x="176.166928" y="147.727883" style="fill: #18c1f5; fill-opacity: 0.8; stroke: #18c1f5; stroke-opacity: 0.8"/>
     <use xlink:href="#m00c83f03b6" x="176.992329" y="145.05015" style="fill: #18c1f5; fill-opacity: 0.8; stroke: #18c1f5; stroke-opacity: 0.8"/>
     <use xlink:href="#m00c83f03b6" x="177.453891" y="262.700034" style="fill: #18c1f5; fill-opacity: 0.8; stroke: #18c1f5; stroke-opacity: 0.8"/>
     <use xlink:href="#m00c83f03b6" x="182.781669" y="177.891119" style="fill: #18c1f5; fill-opacity: 0.8; stroke: #18c1f5; stroke-opacity: 0.8"/>
     <use xlink:href="#m00c83f03b6" x="174.010795" y="169.872549" style="fill: #18c1f5; fill-opacity: 0.8; stroke: #18c1f5; stroke-opacity: 0.8"/>
     <use xlink:href="#m00c83f03b6" x="175.208092" y="98.41266" style="fill: #18c1f5; fill-opacity: 0.8; stroke: #18c1f5; stroke-opacity: 0.8"/>
     <use xlink:href="#m00c83f03b6" x="180.462323" y="218.674379" style="fill: #18c1f5; fill-opacity: 0.8; stroke: #18c1f5; stroke-opacity: 0.8"/>
     <use xlink:href="#m00c83f03b6" x="183.182821" y="131.25661" style="fill: #18c1f5; fill-opacity: 0.8; stroke: #18c1f5; stroke-opacity: 0.8"/>
     <use xlink:href="#m00c83f03b6" x="181.096808" y="240.001162" style="fill: #18c1f5; fill-opacity: 0.8; stroke: #18c1f5; stroke-opacity: 0.8"/>
    </g>
   </g>
   <g id="PathCollection_2">
    <defs>
     <path id="m36d8986be1" d="M 0 3 
C 0.795609 3 1.55874 2.683901 2.12132 2.12132 
C 2.683901 1.55874 3 0.795609 3 0 
C 3 -0.795609 2.683901 -1.55874 2.12132 -2.12132 
C 1.55874 -2.683901 0.795609 -3 0 -3 
C -0.795609 -3 -1.55874 -2.683901 -2.12132 -2.12132 
C -2.683901 -1.55874 -3 -0.795609 -3 0 
C -3 0.795609 -2.683901 1.55874 -2.12132 2.12132 
C -1.55874 2.683901 -0.795609 3 0 3 
z
" style="stroke: #36d15a; stroke-opacity: 0.8"/>
    </defs>
    <g clip-path="url(#p5cfd4b6776)">
     <use xlink:href="#m36d8986be1" x="291.907166" y="131.700667" style="fill: #36d15a; fill-opacity: 0.8; stroke: #36d15a; stroke-opacity: 0.8"/>
     <use xlink:href="#m36d8986be1" x="288.179577" y="214.480394" style="fill: #36d15a; fill-opacity: 0.8; stroke: #36d15a; stroke-opacity: 0.8"/>
     <use xlink:href="#m36d8986be1" x="291.394729" y="216.192587" style="fill: #36d15a; fill-opacity: 0.8; stroke: #36d15a; stroke-opacity: 0.8"/>
     <use xlink:href="#m36d8986be1" x="294.393871" y="177.814671" style="fill: #36d15a; fill-opacity: 0.8; stroke: #36d15a; stroke-opacity: 0.8"/>
     <use xlink:href="#m36d8986be1" x="289.983187" y="138.801899" style="fill: #36d15a; fill-opacity: 0.8; stroke: #36d15a; stroke-opacity: 0.8"/>
     <use xlink:href="#m36d8986be1" x="295.461815" y="283.90124" style="fill: #36d15a; fill-opacity: 0.8; stroke: #36d15a; stroke-opacity: 0.8"/>
     <use xlink:href="#m36d8986be1" x="287.247616" y="226.167492" style="fill: #36d15a; fill-opacity: 0.8; stroke: #36d15a; stroke-opacity: 0.8"/>
     <use xlink:href="#m36d8986be1" x="289.047433" y="300.550693" style="fill: #36d15a; fill-opacity: 0.8; stroke: #36d15a; stroke-opacity: 0.8"/>
     <use xlink:href="#m36d8986be1" x="288.094046" y="152.928168" style="fill: #36d15a; fill-opacity: 0.8; stroke: #36d15a; stroke-opacity: 0.8"/>
     <use xlink:href="#m36d8986be1" x="282.591019" y="43.516875" style="fill: #36d15a; fill-opacity: 0.8; stroke: #36d15a; stroke-opacity: 0.8"/>
     <use xlink:href="#m36d8986be1" x="291.820335" y="295.956554" style="fill: #36d15a; fill-opacity: 0.8; stroke: #36d15a; stroke-opacity: 0.8"/>
     <use xlink:href="#m36d8986be1" x="282.991403" y="213.953525" style="fill: #36d15a; fill-opacity: 0.8; stroke: #36d15a; stroke-opacity: 0.8"/>
     <use xlink:href="#m36d8986be1" x="285.076983" y="236.945431" style="fill: #36d15a; fill-opacity: 0.8; stroke: #36d15a; stroke-opacity: 0.8"/>
     <use xlink:href="#m36d8986be1" x="284.170067" y="198.648883" style="fill: #36d15a; fill-opacity: 0.8; stroke: #36d15a; stroke-opacity: 0.8"/>
     <use xlink:href="#m36d8986be1" x="293.47123" y="191.432101" style="fill: #36d15a; fill-opacity: 0.8; stroke: #36d15a; stroke-opacity: 0.8"/>
     <use xlink:href="#m36d8986be1" x="282.638832" y="206.075717" style="fill: #36d15a; fill-opacity: 0.8; stroke: #36d15a; stroke-opacity: 0.8"/>
     <use xlink:href="#m36d8986be1" x="295.407208" y="317.596088" style="fill: #36d15a; fill-opacity: 0.8; stroke: #36d15a; stroke-opacity: 0.8"/>
     <use xlink:href="#m36d8986be1" x="286.415981" y="215.600243" style="fill: #36d15a; fill-opacity: 0.8; stroke: #36d15a; stroke-opacity: 0.8"/>
     <use xlink:href="#m36d8986be1" x="286.721362" y="345.916875" style="fill: #36d15a; fill-opacity: 0.8; stroke: #36d15a; stroke-opacity: 0.8"/>
     <use xlink:href="#m36d8986be1" x="285.167239" y="155.845663" style="fill: #36d15a; fill-opacity: 0.8; stroke: #36d15a; stroke-opacity: 0.8"/>
     <use xlink:href="#m36d8986be1" x="294.234943" y="221.469205" style="fill: #36d15a; fill-opacity: 0.8; stroke: #36d15a; stroke-opacity: 0.8"/>
     <use xlink:href="#m36d8986be1" x="290.178844" y="274.428348" style="fill: #36d15a; fill-opacity: 0.8; stroke: #36d15a; stroke-opacity: 0.8"/>
     <use xlink:href="#m36d8986be1" x="293.165511" y="231.418681" style="fill: #36d15a; fill-opacity: 0.8; stroke: #36d15a; stroke-opacity: 0.8"/>
     <use xlink:href="#m36d8986be1" x="283.220371" y="187.775523" style="fill: #36d15a; fill-opacity: 0.8; stroke: #36d15a; stroke-opacity: 0.8"/>
    </g>
   </g>
   <g id="text_13">
    <!-- Learning Score Distribution: Control vs. CASK -->
    <g transform="translate(7.2 22.396875) scale(0.2 -0.2)">
     <defs>
      <path id="DejaVuSans-44" d="M 1259 4147 
L 1259 519 
L 2022 519 
Q 2988 519 3436 956 
Q 3884 1394 3884 2338 
Q 3884 3275 3436 3711 
Q 2988 4147 2022 4147 
L 1259 4147 
z
M 628 4666 
L 1925 4666 
Q 3281 4666 3915 4102 
Q 4550 3538 4550 2338 
Q 4550 1131 3912 565 
Q 3275 0 1925 0 
L 628 0 
L 628 4666 
z
" transform="scale(0.015625)"/>
      <path id="DejaVuSans-62" d="M 3116 1747 
Q 3116 2381 2855 2742 
Q 2594 3103 2138 3103 
Q 1681 3103 1420 2742 
Q 1159 2381 1159 1747 
Q 1159 1113 1420 752 
Q 1681 391 2138 391 
Q 2594 391 2855 752 
Q 3116 1113 3116 1747 
z
M 1159 2969 
Q 1341 3281 1617 3432 
Q 1894 3584 2278 3584 
Q 2916 3584 3314 3078 
Q 3713 2572 3713 1747 
Q 3713 922 3314 415 
Q 2916 -91 2278 -91 
Q 1894 -91 1617 61 
Q 1341 213 1159 525 
L 1159 0 
L 581 0 
L 581 4863 
L 1159 4863 
L 1159 2969 
z
" transform="scale(0.015625)"/>
      <path id="DejaVuSans-3a" d="M 750 794 
L 1409 794 
L 1409 0 
L 750 0 
L 750 794 
z
M 750 3309 
L 1409 3309 
L 1409 2516 
L 750 2516 
L 750 3309 
z
" transform="scale(0.015625)"/>
      <path id="DejaVuSans-76" d="M 191 3500 
L 800 3500 
L 1894 563 
L 2988 3500 
L 3597 3500 
L 2284 0 
L 1503 0 
L 191 3500 
z
" transform="scale(0.015625)"/>
      <path id="DejaVuSans-2e" d="M 684 794 
L 1344 794 
L 1344 0 
L 684 0 
L 684 794 
z
" transform="scale(0.015625)"/>
     </defs>
     <use xlink:href="#DejaVuSans-4c"/>
     <use xlink:href="#DejaVuSans-65" x="53.962891"/>
     <use xlink:href="#DejaVuSans-61" x="115.486328"/>
     <use xlink:href="#DejaVuSans-72" x="176.765625"/>
     <use xlink:href="#DejaVuSans-6e" x="216.128906"/>
     <use xlink:href="#DejaVuSans-69" x="279.507812"/>
     <use xlink:href="#DejaVuSans-6e" x="307.291016"/>
     <use xlink:href="#DejaVuSans-67" x="370.669922"/>
     <use xlink:href="#DejaVuSans-20" x="434.146484"/>
     <use xlink:href="#DejaVuSans-53" x="465.933594"/>
     <use xlink:href="#DejaVuSans-63" x="529.410156"/>
     <use xlink:href="#DejaVuSans-6f" x="584.390625"/>
     <use xlink:href="#DejaVuSans-72" x="645.572266"/>
     <use xlink:href="#DejaVuSans-65" x="684.435547"/>
     <use xlink:href="#DejaVuSans-20" x="745.958984"/>
     <use xlink:href="#DejaVuSans-44" x="777.746094"/>
     <use xlink:href="#DejaVuSans-69" x="854.748047"/>
     <use xlink:href="#DejaVuSans-73" x="882.53125"/>
     <use xlink:href="#DejaVuSans-74" x="934.630859"/>
     <use xlink:href="#DejaVuSans-72" x="973.839844"/>
     <use xlink:href="#DejaVuSans-69" x="1014.953125"/>
     <use xlink:href="#DejaVuSans-62" x="1042.736328"/>
     <use xlink:href="#DejaVuSans-75" x="1106.212891"/>
     <use xlink:href="#DejaVuSans-74" x="1169.591797"/>
     <use xlink:href="#DejaVuSans-69" x="1208.800781"/>
     <use xlink:href="#DejaVuSans-6f" x="1236.583984"/>
     <use xlink:href="#DejaVuSans-6e" x="1297.765625"/>
     <use xlink:href="#DejaVuSans-3a" x="1361.144531"/>
     <use xlink:href="#DejaVuSans-20" x="1394.835938"/>
     <use xlink:href="#DejaVuSans-43" x="1426.623047"/>
     <use xlink:href="#DejaVuSans-6f" x="1496.447266"/>
     <use xlink:href="#DejaVuSans-6e" x="1557.628906"/>
     <use xlink:href="#DejaVuSans-74" x="1621.007812"/>
     <use xlink:href="#DejaVuSans-72" x="1660.216797"/>
     <use xlink:href="#DejaVuSans-6f" x="1699.080078"/>
     <use xlink:href="#DejaVuSans-6c" x="1760.261719"/>
     <use xlink:href="#DejaVuSans-20" x="1788.044922"/>
     <use xlink:href="#DejaVuSans-76" x="1819.832031"/>
     <use xlink:href="#DejaVuSans-73" x="1879.011719"/>
     <use xlink:href="#DejaVuSans-2e" x="1931.111328"/>
     <use xlink:href="#DejaVuSans-20" x="1962.898438"/>
     <use xlink:href="#DejaVuSans-43" x="1994.685547"/>
     <use xlink:href="#DejaVuSans-41" x="2064.509766"/>
     <use xlink:href="#DejaVuSans-53" x="2132.917969"/>
     <use xlink:href="#DejaVuSans-4b" x="2196.394531"/>
    </g>
   </g>
   <g id="legend_1">
    <g id="patch_9">
     <path d="M 287.229688 65.753125 
L 393.795313 65.753125 
Q 395.795313 65.753125 395.795313 63.753125 
L 395.795313 35.396875 
Q 395.795313 33.396875 393.795313 33.396875 
L 287.229688 33.396875 
Q 285.229688 33.396875 285.229688 35.396875 
L 285.229688 63.753125 
Q 285.229688 65.753125 287.229688 65.753125 
z
" style="fill: #ffffff; opacity: 0.8; stroke: #cccccc; stroke-linejoin: miter"/>
    </g>
    <g id="patch_10">
     <path d="M 289.229688 44.995312 
L 309.229688 44.995312 
L 309.229688 37.995312 
L 289.229688 37.995312 
z
" style="fill: #38bcf5; opacity: 0.6; stroke: #38bcf5; stroke-linejoin: miter"/>
    </g>
    <g id="text_14">
     <!-- Control (n=26) -->
     <g transform="translate(317.229688 44.995312) scale(0.1 -0.1)">
      <defs>
       <path id="DejaVuSans-3d" d="M 678 2906 
L 4684 2906 
L 4684 2381 
L 678 2381 
L 678 2906 
z
M 678 1631 
L 4684 1631 
L 4684 1100 
L 678 1100 
L 678 1631 
z
" transform="scale(0.015625)"/>
      </defs>
      <use xlink:href="#DejaVuSans-43"/>
      <use xlink:href="#DejaVuSans-6f" x="69.824219"/>
      <use xlink:href="#DejaVuSans-6e" x="131.005859"/>
      <use xlink:href="#DejaVuSans-74" x="194.384766"/>
      <use xlink:href="#DejaVuSans-72" x="233.59375"/>
      <use xlink:href="#DejaVuSans-6f" x="272.457031"/>
      <use xlink:href="#DejaVuSans-6c" x="333.638672"/>
      <use xlink:href="#DejaVuSans-20" x="361.421875"/>
      <use xlink:href="#DejaVuSans-28" x="393.208984"/>
      <use xlink:href="#DejaVuSans-6e" x="432.222656"/>
      <use xlink:href="#DejaVuSans-3d" x="495.601562"/>
      <use xlink:href="#DejaVuSans-32" x="579.390625"/>
      <use xlink:href="#DejaVuSans-36" x="643.013672"/>
      <use xlink:href="#DejaVuSans-29" x="706.636719"/>
     </g>
    </g>
    <g id="patch_11">
     <path d="M 289.229688 59.673437 
L 309.229688 59.673437 
L 309.229688 52.673437 
L 289.229688 52.673437 
z
" style="fill: #38f5a6; opacity: 0.6; stroke: #38f5a6; stroke-linejoin: miter"/>
    </g>
    <g id="text_15">
     <!-- CASK (n=24) -->
     <g transform="translate(317.229688 59.673437) scale(0.1 -0.1)">
      <use xlink:href="#DejaVuSans-43"/>
      <use xlink:href="#DejaVuSans-41" x="69.824219"/>
      <use xlink:href="#DejaVuSans-53" x="138.232422"/>
      <use xlink:href="#DejaVuSans-4b" x="201.708984"/>
      <use xlink:href="#DejaVuSans-20" x="267.285156"/>
      <use xlink:href="#DejaVuSans-28" x="299.072266"/>
      <use xlink:href="#DejaVuSans-6e" x="338.085938"/>
      <use xlink:href="#DejaVuSans-3d" x="401.464844"/>
      <use xlink:href="#DejaVuSans-32" x="485.253906"/>
      <use xlink:href="#DejaVuSans-34" x="548.876953"/>
      <use xlink:href="#DejaVuSans-29" x="612.5"/>
     </g>
    </g>
   </g>
  </g>
 </g>
 <defs>
  <clipPath id="p5cfd4b6776">
   <rect x="65.995312" y="28.396875" width="334.8" height="332.64"/>
  </clipPath>
 </defs>
</svg>
