<?xml version="1.0" encoding="utf-8" standalone="no"?>
<!DOCTYPE svg PUBLIC "-//W3C//DTD SVG 1.1//EN"
  "http://www.w3.org/Graphics/SVG/1.1/DTD/svg11.dtd">
<svg xmlns:xlink="http://www.w3.org/1999/xlink" width="504.9875pt" height="402.464375pt" viewBox="0 0 504.9875 402.464375" xmlns="http://www.w3.org/2000/svg" version="1.1">
 <metadata>
  <rdf:RDF xmlns:dc="http://purl.org/dc/elements/1.1/" xmlns:cc="http://creativecommons.org/ns#" xmlns:rdf="http://www.w3.org/1999/02/22-rdf-syntax-ns#">
   <cc:Work>
    <dc:type rdf:resource="http://purl.org/dc/dcmitype/StillImage"/>
    <dc:date>2025-08-13T21:41:36.726471</dc:date>
    <dc:format>image/svg+xml</dc:format>
    <dc:creator>
     <cc:Agent>
      <dc:title>Matplotlib v3.8.4, https://matplotlib.org/</dc:title>
     </cc:Agent>
    </dc:creator>
   </cc:Work>
  </rdf:RDF>
 </metadata>
 <defs>
  <style type="text/css">*{stroke-linejoin: round; stroke-linecap: butt}</style>
 </defs>
 <g id="figure_1">
  <g id="patch_1">
   <path d="M 0 402.464375 
L 504.9875 402.464375 
L 504.9875 0 
L 0 0 
z
" style="fill: #ffffff"/>
  </g>
  <g id="axes_1">
   <g id="patch_2">
    <path d="M 85.09375 361.036875 
L 419.89375 361.036875 
L 419.89375 28.396875 
L 85.09375 28.396875 
z
" style="fill: #ffffff"/>
   </g>
   <g id="PolyCollection_1">
    <defs>
     <path id="mff272670e4" d="M 198.791274 -56.5475 
L 194.596226 -56.5475 
L 194.535578 -59.602045 
L 194.479761 -62.656591 
L 194.426184 -65.711136 
L 194.371653 -68.765682 
L 194.312437 -71.820227 
L 194.244365 -74.874773 
L 194.162919 -77.929318 
L 194.063337 -80.983864 
L 193.940718 -84.038409 
L 193.79011 -87.092955 
L 193.606589 -90.1475 
L 193.385331 -93.202045 
L 193.121663 -96.256591 
L 192.811113 -99.311136 
L 192.449454 -102.365682 
L 192.032747 -105.420227 
L 191.557403 -108.474773 
L 191.02025 -111.529318 
L 190.418624 -114.583864 
L 189.750485 -117.638409 
L 189.014549 -120.692955 
L 188.210447 -123.7475 
L 187.338884 -126.802045 
L 186.401818 -129.856591 
L 185.402615 -132.911136 
L 184.346191 -135.965682 
L 183.239119 -139.020227 
L 182.089688 -142.074773 
L 180.9079 -145.129318 
L 179.705398 -148.183864 
L 178.495327 -151.238409 
L 177.292117 -154.292955 
L 176.111186 -157.3475 
L 174.968596 -160.402045 
L 173.88064 -163.456591 
L 172.86341 -166.511136 
L 171.932334 -169.565682 
L 171.101729 -172.620227 
L 170.384373 -175.674773 
L 169.791126 -178.729318 
L 169.330612 -181.783864 
L 169.008977 -184.838409 
L 168.829745 -187.892955 
L 168.79375 -190.9475 
L 168.899175 -194.002045 
L 169.141672 -197.056591 
L 169.514558 -200.111136 
L 170.009082 -203.165682 
L 170.614741 -206.220227 
L 171.31962 -209.274773 
L 172.110769 -212.329318 
L 172.974563 -215.383864 
L 173.897065 -218.438409 
L 174.864363 -221.492955 
L 175.862877 -224.5475 
L 176.879632 -227.602045 
L 177.902492 -230.656591 
L 178.920353 -233.711136 
L 179.923293 -236.765682 
L 180.902686 -239.820227 
L 181.851274 -242.874773 
L 182.7632 -245.929318 
L 183.634003 -248.983864 
L 184.460582 -252.038409 
L 185.241123 -255.092955 
L 185.974994 -258.1475 
L 186.662617 -261.202045 
L 187.305312 -264.256591 
L 187.905121 -267.311136 
L 188.464624 -270.365682 
L 188.986749 -273.420227 
L 189.47458 -276.474773 
L 189.93118 -279.529318 
L 190.359431 -282.583864 
L 190.761897 -285.638409 
L 191.140724 -288.692955 
L 191.497572 -291.7475 
L 191.833588 -294.802045 
L 192.149416 -297.856591 
L 192.445251 -300.911136 
L 192.720916 -303.965682 
L 192.975978 -307.020227 
L 193.209874 -310.074773 
L 193.422048 -313.129318 
L 193.612097 -316.183864 
L 193.779889 -319.238409 
L 193.925682 -322.292955 
L 194.050197 -325.3475 
L 194.154669 -328.402045 
L 194.240854 -331.456591 
L 194.311003 -334.511136 
L 194.367792 -337.565682 
L 194.414226 -340.620227 
L 194.453515 -343.674773 
L 194.488933 -346.729318 
L 194.523671 -349.783864 
L 194.560691 -352.838409 
L 194.602596 -355.892955 
L 194.651517 -358.9475 
L 198.735983 -358.9475 
L 198.735983 -358.9475 
L 198.784904 -355.892955 
L 198.826809 -352.838409 
L 198.863829 -349.783864 
L 198.898567 -346.729318 
L 198.933985 -343.674773 
L 198.973274 -340.620227 
L 199.019708 -337.565682 
L 199.076497 -334.511136 
L 199.146646 -331.456591 
L 199.232831 -328.402045 
L 199.337303 -325.3475 
L 199.461818 -322.292955 
L 199.607611 -319.238409 
L 199.775403 -316.183864 
L 199.965452 -313.129318 
L 200.177626 -310.074773 
L 200.411522 -307.020227 
L 200.666584 -303.965682 
L 200.942249 -300.911136 
L 201.238084 -297.856591 
L 201.553912 -294.802045 
L 201.889928 -291.7475 
L 202.246776 -288.692955 
L 202.625603 -285.638409 
L 203.028069 -282.583864 
L 203.45632 -279.529318 
L 203.91292 -276.474773 
L 204.400751 -273.420227 
L 204.922876 -270.365682 
L 205.482379 -267.311136 
L 206.082188 -264.256591 
L 206.724883 -261.202045 
L 207.412506 -258.1475 
L 208.146377 -255.092955 
L 208.926918 -252.038409 
L 209.753497 -248.983864 
L 210.6243 -245.929318 
L 211.536226 -242.874773 
L 212.484814 -239.820227 
L 213.464207 -236.765682 
L 214.467147 -233.711136 
L 215.485008 -230.656591 
L 216.507868 -227.602045 
L 217.524623 -224.5475 
L 218.523137 -221.492955 
L 219.490435 -218.438409 
L 220.412937 -215.383864 
L 221.276731 -212.329318 
L 222.06788 -209.274773 
L 222.772759 -206.220227 
L 223.378418 -203.165682 
L 223.872942 -200.111136 
L 224.245828 -197.056591 
L 224.488325 -194.002045 
L 224.59375 -190.9475 
L 224.557755 -187.892955 
L 224.378523 -184.838409 
L 224.056888 -181.783864 
L 223.596374 -178.729318 
L 223.003127 -175.674773 
L 222.285771 -172.620227 
L 221.455166 -169.565682 
L 220.52409 -166.511136 
L 219.50686 -163.456591 
L 218.418904 -160.402045 
L 217.276314 -157.3475 
L 216.095383 -154.292955 
L 214.892173 -151.238409 
L 213.682102 -148.183864 
L 212.4796 -145.129318 
L 211.297812 -142.074773 
L 210.148381 -139.020227 
L 209.041309 -135.965682 
L 207.984885 -132.911136 
L 206.985682 -129.856591 
L 206.048616 -126.802045 
L 205.177053 -123.7475 
L 204.372951 -120.692955 
L 203.637015 -117.638409 
L 202.968876 -114.583864 
L 202.36725 -111.529318 
L 201.830097 -108.474773 
L 201.354753 -105.420227 
L 200.938046 -102.365682 
L 200.576387 -99.311136 
L 200.265837 -96.256591 
L 200.002169 -93.202045 
L 199.780911 -90.1475 
L 199.59739 -87.092955 
L 199.446782 -84.038409 
L 199.324163 -80.983864 
L 199.224581 -77.929318 
L 199.143135 -74.874773 
L 199.075063 -71.820227 
L 199.015847 -68.765682 
L 198.961316 -65.711136 
L 198.907739 -62.656591 
L 198.851922 -59.602045 
L 198.791274 -56.5475 
z
" style="stroke: #000000; stroke-opacity: 0.6"/>
    </defs>
    <g clip-path="url(#pb869a53e7e)">
     <use xlink:href="#mff272670e4" x="0" y="402.464375" style="fill: #38bcf5; fill-opacity: 0.6; stroke: #000000; stroke-opacity: 0.6"/>
    </g>
   </g>
   <g id="PolyCollection_2">
    <defs>
     <path id="mfa9746c1b4" d="M 311.242644 -156.589102 
L 305.344856 -156.589102 
L 305.252081 -158.621492 
L 305.156796 -160.653882 
L 305.056936 -162.686272 
L 304.950198 -164.718662 
L 304.83408 -166.751052 
L 304.705943 -168.783442 
L 304.563073 -170.815832 
L 304.402758 -172.848222 
L 304.222362 -174.880612 
L 304.019409 -176.913002 
L 303.791663 -178.945392 
L 303.537212 -180.977781 
L 303.254537 -183.010171 
L 302.942582 -185.042561 
L 302.60081 -187.074951 
L 302.229247 -189.107341 
L 301.828509 -191.139731 
L 301.399811 -193.172121 
L 300.944966 -195.204511 
L 300.466353 -197.236901 
L 299.966878 -199.269291 
L 299.449909 -201.301681 
L 298.919198 -203.334071 
L 298.378788 -205.366461 
L 297.832912 -207.398851 
L 297.285875 -209.431241 
L 296.74194 -211.463631 
L 296.205207 -213.496021 
L 295.6795 -215.528411 
L 295.16826 -217.560801 
L 294.674445 -219.593191 
L 294.200449 -221.625581 
L 293.748043 -223.657971 
L 293.318324 -225.690361 
L 292.9117 -227.722751 
L 292.527886 -229.755141 
L 292.165935 -231.787531 
L 291.824279 -233.819921 
L 291.5008 -235.852311 
L 291.192913 -237.884701 
L 290.897669 -239.917091 
L 290.611863 -241.949481 
L 290.332156 -243.981871 
L 290.055193 -246.014261 
L 289.777724 -248.046651 
L 289.496715 -250.079041 
L 289.209453 -252.111431 
L 288.913631 -254.143821 
L 288.607423 -256.176211 
L 288.289536 -258.208601 
L 287.95924 -260.240991 
L 287.616381 -262.273381 
L 287.261369 -264.305771 
L 286.895152 -266.338161 
L 286.519165 -268.370551 
L 286.135269 -270.402941 
L 285.74568 -272.435331 
L 285.352883 -274.467721 
L 284.95955 -276.500111 
L 284.56845 -278.532501 
L 284.182374 -280.56489 
L 283.804054 -282.59728 
L 283.436103 -284.62967 
L 283.080965 -286.66206 
L 282.74088 -288.69445 
L 282.417862 -290.72684 
L 282.113705 -292.75923 
L 281.829986 -294.79162 
L 281.568104 -296.82401 
L 281.329308 -298.8564 
L 281.114756 -300.88879 
L 280.925564 -302.92118 
L 280.762865 -304.95357 
L 280.62786 -306.98596 
L 280.521871 -309.01835 
L 280.446379 -311.05074 
L 280.403051 -313.08313 
L 280.39375 -315.11552 
L 280.420533 -317.14791 
L 280.485629 -319.1803 
L 280.591396 -321.21269 
L 280.740265 -323.24508 
L 280.93467 -325.27747 
L 281.176962 -327.30986 
L 281.469314 -329.34225 
L 281.813627 -331.37464 
L 282.211428 -333.40703 
L 282.66377 -335.43942 
L 283.171153 -337.47181 
L 283.733442 -339.5042 
L 284.349806 -341.53659 
L 285.018681 -343.56898 
L 285.737747 -345.60137 
L 286.503931 -347.63376 
L 287.31343 -349.66615 
L 288.161759 -351.69854 
L 289.043821 -353.73093 
L 289.95399 -355.76332 
L 290.886217 -357.79571 
L 325.701283 -357.79571 
L 325.701283 -357.79571 
L 326.63351 -355.76332 
L 327.543679 -353.73093 
L 328.425741 -351.69854 
L 329.27407 -349.66615 
L 330.083569 -347.63376 
L 330.849753 -345.60137 
L 331.568819 -343.56898 
L 332.237694 -341.53659 
L 332.854058 -339.5042 
L 333.416347 -337.47181 
L 333.92373 -335.43942 
L 334.376072 -333.40703 
L 334.773873 -331.37464 
L 335.118186 -329.34225 
L 335.410538 -327.30986 
L 335.65283 -325.27747 
L 335.847235 -323.24508 
L 335.996104 -321.21269 
L 336.101871 -319.1803 
L 336.166967 -317.14791 
L 336.19375 -315.11552 
L 336.184449 -313.08313 
L 336.141121 -311.05074 
L 336.065629 -309.01835 
L 335.95964 -306.98596 
L 335.824635 -304.95357 
L 335.661936 -302.92118 
L 335.472744 -300.88879 
L 335.258192 -298.8564 
L 335.019396 -296.82401 
L 334.757514 -294.79162 
L 334.473795 -292.75923 
L 334.169638 -290.72684 
L 333.84662 -288.69445 
L 333.506535 -286.66206 
L 333.151397 -284.62967 
L 332.783446 -282.59728 
L 332.405126 -280.56489 
L 332.01905 -278.532501 
L 331.62795 -276.500111 
L 331.234617 -274.467721 
L 330.84182 -272.435331 
L 330.452231 -270.402941 
L 330.068335 -268.370551 
L 329.692348 -266.338161 
L 329.326131 -264.305771 
L 328.971119 -262.273381 
L 328.62826 -260.240991 
L 328.297964 -258.208601 
L 327.980077 -256.176211 
L 327.673869 -254.143821 
L 327.378047 -252.111431 
L 327.090785 -250.079041 
L 326.809776 -248.046651 
L 326.532307 -246.014261 
L 326.255344 -243.981871 
L 325.975637 -241.949481 
L 325.689831 -239.917091 
L 325.394587 -237.884701 
L 325.0867 -235.852311 
L 324.763221 -233.819921 
L 324.421565 -231.787531 
L 324.059614 -229.755141 
L 323.6758 -227.722751 
L 323.269176 -225.690361 
L 322.839457 -223.657971 
L 322.387051 -221.625581 
L 321.913055 -219.593191 
L 321.41924 -217.560801 
L 320.908 -215.528411 
L 320.382293 -213.496021 
L 319.84556 -211.463631 
L 319.301625 -209.431241 
L 318.754588 -207.398851 
L 318.208712 -205.366461 
L 317.668302 -203.334071 
L 317.137591 -201.301681 
L 316.620622 -199.269291 
L 316.121147 -197.236901 
L 315.642534 -195.204511 
L 315.187689 -193.172121 
L 314.758991 -191.139731 
L 314.358253 -189.107341 
L 313.98669 -187.074951 
L 313.644918 -185.042561 
L 313.332963 -183.010171 
L 313.050288 -180.977781 
L 312.795837 -178.945392 
L 312.568091 -176.913002 
L 312.365138 -174.880612 
L 312.184742 -172.848222 
L 312.024427 -170.815832 
L 311.881557 -168.783442 
L 311.75342 -166.751052 
L 311.637302 -164.718662 
L 311.530564 -162.686272 
L 311.430704 -160.653882 
L 311.335419 -158.621492 
L 311.242644 -156.589102 
z
" style="stroke: #000000; stroke-opacity: 0.6"/>
    </defs>
    <g clip-path="url(#pb869a53e7e)">
     <use xlink:href="#mfa9746c1b4" x="0" y="402.464375" style="fill: #38f5a6; fill-opacity: 0.6; stroke: #000000; stroke-opacity: 0.6"/>
    </g>
   </g>
   <g id="matplotlib.axis_1">
    <g id="xtick_1">
     <g id="line2d_1">
      <defs>
       <path id="m87007cdd7f" d="M 0 0 
L 0 3.5 
" style="stroke: #000000; stroke-width: 0.8"/>
      </defs>
      <g>
       <use xlink:href="#m87007cdd7f" x="196.69375" y="361.036875" style="stroke: #000000; stroke-width: 0.8"/>
      </g>
     </g>
     <g id="text_1">
      <!-- Control -->
      <g transform="translate(178.622656 375.635312) scale(0.1 -0.1)">
       <defs>
        <path id="DejaVuSans-43" d="M 4122 4306 
L 4122 3641 
Q 3803 3938 3442 4084 
Q 3081 4231 2675 4231 
Q 1875 4231 1450 3742 
Q 1025 3253 1025 2328 
Q 1025 1406 1450 917 
Q 1875 428 2675 428 
Q 3081 428 3442 575 
Q 3803 722 4122 1019 
L 4122 359 
Q 3791 134 3420 21 
Q 3050 -91 2638 -91 
Q 1578 -91 968 557 
Q 359 1206 359 2328 
Q 359 3453 968 4101 
Q 1578 4750 2638 4750 
Q 3056 4750 3426 4639 
Q 3797 4528 4122 4306 
z
" transform="scale(0.015625)"/>
        <path id="DejaVuSans-6f" d="M 1959 3097 
Q 1497 3097 1228 2736 
Q 959 2375 959 1747 
Q 959 1119 1226 758 
Q 1494 397 1959 397 
Q 2419 397 2687 759 
Q 2956 1122 2956 1747 
Q 2956 2369 2687 2733 
Q 2419 3097 1959 3097 
z
M 1959 3584 
Q 2709 3584 3137 3096 
Q 3566 2609 3566 1747 
Q 3566 888 3137 398 
Q 2709 -91 1959 -91 
Q 1206 -91 779 398 
Q 353 888 353 1747 
Q 353 2609 779 3096 
Q 1206 3584 1959 3584 
z
" transform="scale(0.015625)"/>
        <path id="DejaVuSans-6e" d="M 3513 2113 
L 3513 0 
L 2938 0 
L 2938 2094 
Q 2938 2591 2744 2837 
Q 2550 3084 2163 3084 
Q 1697 3084 1428 2787 
Q 1159 2491 1159 1978 
L 1159 0 
L 581 0 
L 581 3500 
L 1159 3500 
L 1159 2956 
Q 1366 3272 1645 3428 
Q 1925 3584 2291 3584 
Q 2894 3584 3203 3211 
Q 3513 2838 3513 2113 
z
" transform="scale(0.015625)"/>
        <path id="DejaVuSans-74" d="M 1172 4494 
L 1172 3500 
L 2356 3500 
L 2356 3053 
L 1172 3053 
L 1172 1153 
Q 1172 725 1289 603 
Q 1406 481 1766 481 
L 2356 481 
L 2356 0 
L 1766 0 
Q 1100 0 847 248 
Q 594 497 594 1153 
L 594 3053 
L 172 3053 
L 172 3500 
L 594 3500 
L 594 4494 
L 1172 4494 
z
" transform="scale(0.015625)"/>
        <path id="DejaVuSans-72" d="M 2631 2963 
Q 2534 3019 2420 3045 
Q 2306 3072 2169 3072 
Q 1681 3072 1420 2755 
Q 1159 2438 1159 1844 
L 1159 0 
L 581 0 
L 581 3500 
L 1159 3500 
L 1159 2956 
Q 1341 3275 1631 3429 
Q 1922 3584 2338 3584 
Q 2397 3584 2469 3576 
Q 2541 3569 2628 3553 
L 2631 2963 
z
" transform="scale(0.015625)"/>
        <path id="DejaVuSans-6c" d="M 603 4863 
L 1178 4863 
L 1178 0 
L 603 0 
L 603 4863 
z
" transform="scale(0.015625)"/>
       </defs>
       <use xlink:href="#DejaVuSans-43"/>
       <use xlink:href="#DejaVuSans-6f" x="69.824219"/>
       <use xlink:href="#DejaVuSans-6e" x="131.005859"/>
       <use xlink:href="#DejaVuSans-74" x="194.384766"/>
       <use xlink:href="#DejaVuSans-72" x="233.59375"/>
       <use xlink:href="#DejaVuSans-6f" x="272.457031"/>
       <use xlink:href="#DejaVuSans-6c" x="333.638672"/>
      </g>
     </g>
    </g>
    <g id="xtick_2">
     <g id="line2d_2">
      <g>
       <use xlink:href="#m87007cdd7f" x="308.29375" y="361.036875" style="stroke: #000000; stroke-width: 0.8"/>
      </g>
     </g>
     <g id="text_2">
      <!-- Cask -->
      <g transform="translate(296.238281 375.635312) scale(0.1 -0.1)">
       <defs>
        <path id="DejaVuSans-61" d="M 2194 1759 
Q 1497 1759 1228 1600 
Q 959 1441 959 1056 
Q 959 750 1161 570 
Q 1363 391 1709 391 
Q 2188 391 2477 730 
Q 2766 1069 2766 1631 
L 2766 1759 
L 2194 1759 
z
M 3341 1997 
L 3341 0 
L 2766 0 
L 2766 531 
Q 2569 213 2275 61 
Q 1981 -91 1556 -91 
Q 1019 -91 701 211 
Q 384 513 384 1019 
Q 384 1609 779 1909 
Q 1175 2209 1959 2209 
L 2766 2209 
L 2766 2266 
Q 2766 2663 2505 2880 
Q 2244 3097 1772 3097 
Q 1472 3097 1187 3025 
Q 903 2953 641 2809 
L 641 3341 
Q 956 3463 1253 3523 
Q 1550 3584 1831 3584 
Q 2591 3584 2966 3190 
Q 3341 2797 3341 1997 
z
" transform="scale(0.015625)"/>
        <path id="DejaVuSans-73" d="M 2834 3397 
L 2834 2853 
Q 2591 2978 2328 3040 
Q 2066 3103 1784 3103 
Q 1356 3103 1142 2972 
Q 928 2841 928 2578 
Q 928 2378 1081 2264 
Q 1234 2150 1697 2047 
L 1894 2003 
Q 2506 1872 2764 1633 
Q 3022 1394 3022 966 
Q 3022 478 2636 193 
Q 2250 -91 1575 -91 
Q 1294 -91 989 -36 
Q 684 19 347 128 
L 347 722 
Q 666 556 975 473 
Q 1284 391 1588 391 
Q 1994 391 2212 530 
Q 2431 669 2431 922 
Q 2431 1156 2273 1281 
Q 2116 1406 1581 1522 
L 1381 1569 
Q 847 1681 609 1914 
Q 372 2147 372 2553 
Q 372 3047 722 3315 
Q 1072 3584 1716 3584 
Q 2034 3584 2315 3537 
Q 2597 3491 2834 3397 
z
" transform="scale(0.015625)"/>
        <path id="DejaVuSans-6b" d="M 581 4863 
L 1159 4863 
L 1159 1991 
L 2875 3500 
L 3609 3500 
L 1753 1863 
L 3688 0 
L 2938 0 
L 1159 1709 
L 1159 0 
L 581 0 
L 581 4863 
z
" transform="scale(0.015625)"/>
       </defs>
       <use xlink:href="#DejaVuSans-43"/>
       <use xlink:href="#DejaVuSans-61" x="69.824219"/>
       <use xlink:href="#DejaVuSans-73" x="131.103516"/>
       <use xlink:href="#DejaVuSans-6b" x="183.203125"/>
      </g>
     </g>
    </g>
    <g id="text_3">
     <!-- Groups -->
     <g transform="translate(227.539844 392.352812) scale(0.14 -0.14)">
      <defs>
       <path id="DejaVuSans-47" d="M 3809 666 
L 3809 1919 
L 2778 1919 
L 2778 2438 
L 4434 2438 
L 4434 434 
Q 4069 175 3628 42 
Q 3188 -91 2688 -91 
Q 1594 -91 976 548 
Q 359 1188 359 2328 
Q 359 3472 976 4111 
Q 1594 4750 2688 4750 
Q 3144 4750 3555 4637 
Q 3966 4525 4313 4306 
L 4313 3634 
Q 3963 3931 3569 4081 
Q 3175 4231 2741 4231 
Q 1884 4231 1454 3753 
Q 1025 3275 1025 2328 
Q 1025 1384 1454 906 
Q 1884 428 2741 428 
Q 3075 428 3337 486 
Q 3600 544 3809 666 
z
" transform="scale(0.015625)"/>
       <path id="DejaVuSans-75" d="M 544 1381 
L 544 3500 
L 1119 3500 
L 1119 1403 
Q 1119 906 1312 657 
Q 1506 409 1894 409 
Q 2359 409 2629 706 
Q 2900 1003 2900 1516 
L 2900 3500 
L 3475 3500 
L 3475 0 
L 2900 0 
L 2900 538 
Q 2691 219 2414 64 
Q 2138 -91 1772 -91 
Q 1169 -91 856 284 
Q 544 659 544 1381 
z
M 1991 3584 
L 1991 3584 
z
" transform="scale(0.015625)"/>
       <path id="DejaVuSans-70" d="M 1159 525 
L 1159 -1331 
L 581 -1331 
L 581 3500 
L 1159 3500 
L 1159 2969 
Q 1341 3281 1617 3432 
Q 1894 3584 2278 3584 
Q 2916 3584 3314 3078 
Q 3713 2572 3713 1747 
Q 3713 922 3314 415 
Q 2916 -91 2278 -91 
Q 1894 -91 1617 61 
Q 1341 213 1159 525 
z
M 3116 1747 
Q 3116 2381 2855 2742 
Q 2594 3103 2138 3103 
Q 1681 3103 1420 2742 
Q 1159 2381 1159 1747 
Q 1159 1113 1420 752 
Q 1681 391 2138 391 
Q 2594 391 2855 752 
Q 3116 1113 3116 1747 
z
" transform="scale(0.015625)"/>
      </defs>
      <use xlink:href="#DejaVuSans-47"/>
      <use xlink:href="#DejaVuSans-72" x="77.490234"/>
      <use xlink:href="#DejaVuSans-6f" x="116.353516"/>
      <use xlink:href="#DejaVuSans-75" x="177.535156"/>
      <use xlink:href="#DejaVuSans-70" x="240.914062"/>
      <use xlink:href="#DejaVuSans-73" x="304.390625"/>
     </g>
    </g>
   </g>
   <g id="matplotlib.axis_2">
    <g id="ytick_1">
     <g id="line2d_3">
      <defs>
       <path id="m4e4debd4d0" d="M 0 0 
L -3.5 0 
" style="stroke: #000000; stroke-width: 0.8"/>
      </defs>
      <g>
       <use xlink:href="#m4e4debd4d0" x="85.09375" y="320.06717" style="stroke: #000000; stroke-width: 0.8"/>
      </g>
     </g>
     <g id="text_4">
      <!-- 0.75 -->
      <g transform="translate(55.828125 323.866389) scale(0.1 -0.1)">
       <defs>
        <path id="DejaVuSans-30" d="M 2034 4250 
Q 1547 4250 1301 3770 
Q 1056 3291 1056 2328 
Q 1056 1369 1301 889 
Q 1547 409 2034 409 
Q 2525 409 2770 889 
Q 3016 1369 3016 2328 
Q 3016 3291 2770 3770 
Q 2525 4250 2034 4250 
z
M 2034 4750 
Q 2819 4750 3233 4129 
Q 3647 3509 3647 2328 
Q 3647 1150 3233 529 
Q 2819 -91 2034 -91 
Q 1250 -91 836 529 
Q 422 1150 422 2328 
Q 422 3509 836 4129 
Q 1250 4750 2034 4750 
z
" transform="scale(0.015625)"/>
        <path id="DejaVuSans-2e" d="M 684 794 
L 1344 794 
L 1344 0 
L 684 0 
L 684 794 
z
" transform="scale(0.015625)"/>
        <path id="DejaVuSans-37" d="M 525 4666 
L 3525 4666 
L 3525 4397 
L 1831 0 
L 1172 0 
L 2766 4134 
L 525 4134 
L 525 4666 
z
" transform="scale(0.015625)"/>
        <path id="DejaVuSans-35" d="M 691 4666 
L 3169 4666 
L 3169 4134 
L 1269 4134 
L 1269 2991 
Q 1406 3038 1543 3061 
Q 1681 3084 1819 3084 
Q 2600 3084 3056 2656 
Q 3513 2228 3513 1497 
Q 3513 744 3044 326 
Q 2575 -91 1722 -91 
Q 1428 -91 1123 -41 
Q 819 9 494 109 
L 494 744 
Q 775 591 1075 516 
Q 1375 441 1709 441 
Q 2250 441 2565 725 
Q 2881 1009 2881 1497 
Q 2881 1984 2565 2268 
Q 2250 2553 1709 2553 
Q 1456 2553 1204 2497 
Q 953 2441 691 2322 
L 691 4666 
z
" transform="scale(0.015625)"/>
       </defs>
       <use xlink:href="#DejaVuSans-30"/>
       <use xlink:href="#DejaVuSans-2e" x="63.623047"/>
       <use xlink:href="#DejaVuSans-37" x="95.410156"/>
       <use xlink:href="#DejaVuSans-35" x="159.033203"/>
      </g>
     </g>
    </g>
    <g id="ytick_2">
     <g id="line2d_4">
      <g>
       <use xlink:href="#m4e4debd4d0" x="85.09375" y="250.512267" style="stroke: #000000; stroke-width: 0.8"/>
      </g>
     </g>
     <g id="text_5">
      <!-- 0.80 -->
      <g transform="translate(55.828125 254.311486) scale(0.1 -0.1)">
       <defs>
        <path id="DejaVuSans-38" d="M 2034 2216 
Q 1584 2216 1326 1975 
Q 1069 1734 1069 1313 
Q 1069 891 1326 650 
Q 1584 409 2034 409 
Q 2484 409 2743 651 
Q 3003 894 3003 1313 
Q 3003 1734 2745 1975 
Q 2488 2216 2034 2216 
z
M 1403 2484 
Q 997 2584 770 2862 
Q 544 3141 544 3541 
Q 544 4100 942 4425 
Q 1341 4750 2034 4750 
Q 2731 4750 3128 4425 
Q 3525 4100 3525 3541 
Q 3525 3141 3298 2862 
Q 3072 2584 2669 2484 
Q 3125 2378 3379 2068 
Q 3634 1759 3634 1313 
Q 3634 634 3220 271 
Q 2806 -91 2034 -91 
Q 1263 -91 848 271 
Q 434 634 434 1313 
Q 434 1759 690 2068 
Q 947 2378 1403 2484 
z
M 1172 3481 
Q 1172 3119 1398 2916 
Q 1625 2713 2034 2713 
Q 2441 2713 2670 2916 
Q 2900 3119 2900 3481 
Q 2900 3844 2670 4047 
Q 2441 4250 2034 4250 
Q 1625 4250 1398 4047 
Q 1172 3844 1172 3481 
z
" transform="scale(0.015625)"/>
       </defs>
       <use xlink:href="#DejaVuSans-30"/>
       <use xlink:href="#DejaVuSans-2e" x="63.623047"/>
       <use xlink:href="#DejaVuSans-38" x="95.410156"/>
       <use xlink:href="#DejaVuSans-30" x="159.033203"/>
      </g>
     </g>
    </g>
    <g id="ytick_3">
     <g id="line2d_5">
      <g>
       <use xlink:href="#m4e4debd4d0" x="85.09375" y="180.957364" style="stroke: #000000; stroke-width: 0.8"/>
      </g>
     </g>
     <g id="text_6">
      <!-- 0.85 -->
      <g transform="translate(55.828125 184.756582) scale(0.1 -0.1)">
       <use xlink:href="#DejaVuSans-30"/>
       <use xlink:href="#DejaVuSans-2e" x="63.623047"/>
       <use xlink:href="#DejaVuSans-38" x="95.410156"/>
       <use xlink:href="#DejaVuSans-35" x="159.033203"/>
      </g>
     </g>
    </g>
    <g id="ytick_4">
     <g id="line2d_6">
      <g>
       <use xlink:href="#m4e4debd4d0" x="85.09375" y="111.40246" style="stroke: #000000; stroke-width: 0.8"/>
      </g>
     </g>
     <g id="text_7">
      <!-- 0.90 -->
      <g transform="translate(55.828125 115.201679) scale(0.1 -0.1)">
       <defs>
        <path id="DejaVuSans-39" d="M 703 97 
L 703 672 
Q 941 559 1184 500 
Q 1428 441 1663 441 
Q 2288 441 2617 861 
Q 2947 1281 2994 2138 
Q 2813 1869 2534 1725 
Q 2256 1581 1919 1581 
Q 1219 1581 811 2004 
Q 403 2428 403 3163 
Q 403 3881 828 4315 
Q 1253 4750 1959 4750 
Q 2769 4750 3195 4129 
Q 3622 3509 3622 2328 
Q 3622 1225 3098 567 
Q 2575 -91 1691 -91 
Q 1453 -91 1209 -44 
Q 966 3 703 97 
z
M 1959 2075 
Q 2384 2075 2632 2365 
Q 2881 2656 2881 3163 
Q 2881 3666 2632 3958 
Q 2384 4250 1959 4250 
Q 1534 4250 1286 3958 
Q 1038 3666 1038 3163 
Q 1038 2656 1286 2365 
Q 1534 2075 1959 2075 
z
" transform="scale(0.015625)"/>
       </defs>
       <use xlink:href="#DejaVuSans-30"/>
       <use xlink:href="#DejaVuSans-2e" x="63.623047"/>
       <use xlink:href="#DejaVuSans-39" x="95.410156"/>
       <use xlink:href="#DejaVuSans-30" x="159.033203"/>
      </g>
     </g>
    </g>
    <g id="ytick_5">
     <g id="line2d_7">
      <g>
       <use xlink:href="#m4e4debd4d0" x="85.09375" y="41.847557" style="stroke: #000000; stroke-width: 0.8"/>
      </g>
     </g>
     <g id="text_8">
      <!-- 0.95 -->
      <g transform="translate(55.828125 45.646776) scale(0.1 -0.1)">
       <use xlink:href="#DejaVuSans-30"/>
       <use xlink:href="#DejaVuSans-2e" x="63.623047"/>
       <use xlink:href="#DejaVuSans-39" x="95.410156"/>
       <use xlink:href="#DejaVuSans-35" x="159.033203"/>
      </g>
     </g>
    </g>
    <g id="text_9">
     <!-- Pellet-in-Meal Ratio (ratio) -->
     <g transform="translate(48.916563 285.964062) rotate(-90) scale(0.14 -0.14)">
      <defs>
       <path id="DejaVuSans-50" d="M 1259 4147 
L 1259 2394 
L 2053 2394 
Q 2494 2394 2734 2622 
Q 2975 2850 2975 3272 
Q 2975 3691 2734 3919 
Q 2494 4147 2053 4147 
L 1259 4147 
z
M 628 4666 
L 2053 4666 
Q 2838 4666 3239 4311 
Q 3641 3956 3641 3272 
Q 3641 2581 3239 2228 
Q 2838 1875 2053 1875 
L 1259 1875 
L 1259 0 
L 628 0 
L 628 4666 
z
" transform="scale(0.015625)"/>
       <path id="DejaVuSans-65" d="M 3597 1894 
L 3597 1613 
L 953 1613 
Q 991 1019 1311 708 
Q 1631 397 2203 397 
Q 2534 397 2845 478 
Q 3156 559 3463 722 
L 3463 178 
Q 3153 47 2828 -22 
Q 2503 -91 2169 -91 
Q 1331 -91 842 396 
Q 353 884 353 1716 
Q 353 2575 817 3079 
Q 1281 3584 2069 3584 
Q 2775 3584 3186 3129 
Q 3597 2675 3597 1894 
z
M 3022 2063 
Q 3016 2534 2758 2815 
Q 2500 3097 2075 3097 
Q 1594 3097 1305 2825 
Q 1016 2553 972 2059 
L 3022 2063 
z
" transform="scale(0.015625)"/>
       <path id="DejaVuSans-2d" d="M 313 2009 
L 1997 2009 
L 1997 1497 
L 313 1497 
L 313 2009 
z
" transform="scale(0.015625)"/>
       <path id="DejaVuSans-69" d="M 603 3500 
L 1178 3500 
L 1178 0 
L 603 0 
L 603 3500 
z
M 603 4863 
L 1178 4863 
L 1178 4134 
L 603 4134 
L 603 4863 
z
" transform="scale(0.015625)"/>
       <path id="DejaVuSans-4d" d="M 628 4666 
L 1569 4666 
L 2759 1491 
L 3956 4666 
L 4897 4666 
L 4897 0 
L 4281 0 
L 4281 4097 
L 3078 897 
L 2444 897 
L 1241 4097 
L 1241 0 
L 628 0 
L 628 4666 
z
" transform="scale(0.015625)"/>
       <path id="DejaVuSans-20" transform="scale(0.015625)"/>
       <path id="DejaVuSans-52" d="M 2841 2188 
Q 3044 2119 3236 1894 
Q 3428 1669 3622 1275 
L 4263 0 
L 3584 0 
L 2988 1197 
Q 2756 1666 2539 1819 
Q 2322 1972 1947 1972 
L 1259 1972 
L 1259 0 
L 628 0 
L 628 4666 
L 2053 4666 
Q 2853 4666 3247 4331 
Q 3641 3997 3641 3322 
Q 3641 2881 3436 2590 
Q 3231 2300 2841 2188 
z
M 1259 4147 
L 1259 2491 
L 2053 2491 
Q 2509 2491 2742 2702 
Q 2975 2913 2975 3322 
Q 2975 3731 2742 3939 
Q 2509 4147 2053 4147 
L 1259 4147 
z
" transform="scale(0.015625)"/>
       <path id="DejaVuSans-28" d="M 1984 4856 
Q 1566 4138 1362 3434 
Q 1159 2731 1159 2009 
Q 1159 1288 1364 580 
Q 1569 -128 1984 -844 
L 1484 -844 
Q 1016 -109 783 600 
Q 550 1309 550 2009 
Q 550 2706 781 3412 
Q 1013 4119 1484 4856 
L 1984 4856 
z
" transform="scale(0.015625)"/>
       <path id="DejaVuSans-29" d="M 513 4856 
L 1013 4856 
Q 1481 4119 1714 3412 
Q 1947 2706 1947 2009 
Q 1947 1309 1714 600 
Q 1481 -109 1013 -844 
L 513 -844 
Q 928 -128 1133 580 
Q 1338 1288 1338 2009 
Q 1338 2731 1133 3434 
Q 928 4138 513 4856 
z
" transform="scale(0.015625)"/>
      </defs>
      <use xlink:href="#DejaVuSans-50"/>
      <use xlink:href="#DejaVuSans-65" x="56.677734"/>
      <use xlink:href="#DejaVuSans-6c" x="118.201172"/>
      <use xlink:href="#DejaVuSans-6c" x="145.984375"/>
      <use xlink:href="#DejaVuSans-65" x="173.767578"/>
      <use xlink:href="#DejaVuSans-74" x="235.291016"/>
      <use xlink:href="#DejaVuSans-2d" x="274.5"/>
      <use xlink:href="#DejaVuSans-69" x="310.583984"/>
      <use xlink:href="#DejaVuSans-6e" x="338.367188"/>
      <use xlink:href="#DejaVuSans-2d" x="401.746094"/>
      <use xlink:href="#DejaVuSans-4d" x="437.830078"/>
      <use xlink:href="#DejaVuSans-65" x="524.109375"/>
      <use xlink:href="#DejaVuSans-61" x="585.632812"/>
      <use xlink:href="#DejaVuSans-6c" x="646.912109"/>
      <use xlink:href="#DejaVuSans-20" x="674.695312"/>
      <use xlink:href="#DejaVuSans-52" x="706.482422"/>
      <use xlink:href="#DejaVuSans-61" x="773.714844"/>
      <use xlink:href="#DejaVuSans-74" x="834.994141"/>
      <use xlink:href="#DejaVuSans-69" x="874.203125"/>
      <use xlink:href="#DejaVuSans-6f" x="901.986328"/>
      <use xlink:href="#DejaVuSans-20" x="963.167969"/>
      <use xlink:href="#DejaVuSans-28" x="994.955078"/>
      <use xlink:href="#DejaVuSans-72" x="1033.96875"/>
      <use xlink:href="#DejaVuSans-61" x="1075.082031"/>
      <use xlink:href="#DejaVuSans-74" x="1136.361328"/>
      <use xlink:href="#DejaVuSans-69" x="1175.570312"/>
      <use xlink:href="#DejaVuSans-6f" x="1203.353516"/>
      <use xlink:href="#DejaVuSans-29" x="1264.535156"/>
     </g>
    </g>
   </g>
   <g id="patch_3">
    <path d="M 182.74375 229.98349 
L 210.64375 229.98349 
L 210.64375 179.806781 
L 182.74375 179.806781 
L 182.74375 229.98349 
z
" clip-path="url(#pb869a53e7e)" style="fill: #ffffff; stroke: #000000; stroke-linejoin: miter"/>
   </g>
   <g id="line2d_8">
    <path d="M 196.69375 229.98349 
L 196.69375 285.620932 
" clip-path="url(#pb869a53e7e)" style="fill: none; stroke: #000000; stroke-linecap: square"/>
   </g>
   <g id="line2d_9">
    <path d="M 196.69375 179.806781 
L 196.69375 107.122159 
" clip-path="url(#pb869a53e7e)" style="fill: none; stroke: #000000; stroke-linecap: square"/>
   </g>
   <g id="line2d_10">
    <path d="M 189.71875 285.620932 
L 203.66875 285.620932 
" clip-path="url(#pb869a53e7e)" style="fill: none; stroke: #000000; stroke-linecap: square"/>
   </g>
   <g id="line2d_11">
    <path d="M 189.71875 107.122159 
L 203.66875 107.122159 
" clip-path="url(#pb869a53e7e)" style="fill: none; stroke: #000000; stroke-linecap: square"/>
   </g>
   <g id="patch_4">
    <path d="M 294.34375 153.451561 
L 322.24375 153.451561 
L 322.24375 66.958046 
L 294.34375 66.958046 
L 294.34375 153.451561 
z
" clip-path="url(#pb869a53e7e)" style="fill: #ffffff; stroke: #000000; stroke-linejoin: miter"/>
   </g>
   <g id="line2d_12">
    <path d="M 308.29375 153.451561 
L 308.29375 245.875273 
" clip-path="url(#pb869a53e7e)" style="fill: none; stroke: #000000; stroke-linecap: square"/>
   </g>
   <g id="line2d_13">
    <path d="M 308.29375 66.958046 
L 308.29375 44.668665 
" clip-path="url(#pb869a53e7e)" style="fill: none; stroke: #000000; stroke-linecap: square"/>
   </g>
   <g id="line2d_14">
    <path d="M 301.31875 245.875273 
L 315.26875 245.875273 
" clip-path="url(#pb869a53e7e)" style="fill: none; stroke: #000000; stroke-linecap: square"/>
   </g>
   <g id="line2d_15">
    <path d="M 301.31875 44.668665 
L 315.26875 44.668665 
" clip-path="url(#pb869a53e7e)" style="fill: none; stroke: #000000; stroke-linecap: square"/>
   </g>
   <g id="line2d_16">
    <path d="M 182.74375 208.600979 
L 210.64375 208.600979 
" clip-path="url(#pb869a53e7e)" style="fill: none; stroke: #000000"/>
   </g>
   <g id="line2d_17">
    <path d="M 294.34375 107.344454 
L 322.24375 107.344454 
" clip-path="url(#pb869a53e7e)" style="fill: none; stroke: #000000"/>
   </g>
   <g id="patch_5">
    <path d="M 85.09375 361.036875 
L 85.09375 28.396875 
" style="fill: none; stroke: #000000; stroke-width: 0.8; stroke-linejoin: miter; stroke-linecap: square"/>
   </g>
   <g id="patch_6">
    <path d="M 419.89375 361.036875 
L 419.89375 28.396875 
" style="fill: none; stroke: #000000; stroke-width: 0.8; stroke-linejoin: miter; stroke-linecap: square"/>
   </g>
   <g id="patch_7">
    <path d="M 85.09375 361.036875 
L 419.89375 361.036875 
" style="fill: none; stroke: #000000; stroke-width: 0.8; stroke-linejoin: miter; stroke-linecap: square"/>
   </g>
   <g id="patch_8">
    <path d="M 85.09375 28.396875 
L 419.89375 28.396875 
" style="fill: none; stroke: #000000; stroke-width: 0.8; stroke-linejoin: miter; stroke-linecap: square"/>
   </g>
   <g id="PathCollection_1">
    <defs>
     <path id="m4a4857b23d" d="M 0 3 
C 0.795609 3 1.55874 2.683901 2.12132 2.12132 
C 2.683901 1.55874 3 0.795609 3 0 
C 3 -0.795609 2.683901 -1.55874 2.12132 -2.12132 
C 1.55874 -2.683901 0.795609 -3 0 -3 
C -0.795609 -3 -1.55874 -2.683901 -2.12132 -2.12132 
C -2.683901 -1.55874 -3 -0.795609 -3 0 
C -3 0.795609 -2.683901 1.55874 -2.12132 2.12132 
C -1.55874 2.683901 -0.795609 3 0 3 
z
" style="stroke: #18c1f5; stroke-opacity: 0.8"/>
    </defs>
    <g clip-path="url(#pb869a53e7e)">
     <use xlink:href="#m4a4857b23d" x="192.245401" y="129.107345" style="fill: #18c1f5; fill-opacity: 0.8; stroke: #18c1f5; stroke-opacity: 0.8"/>
     <use xlink:href="#m4a4857b23d" x="202.22652" y="251.174694" style="fill: #18c1f5; fill-opacity: 0.8; stroke: #18c1f5; stroke-opacity: 0.8"/>
     <use xlink:href="#m4a4857b23d" x="191.153864" y="231.21778" style="fill: #18c1f5; fill-opacity: 0.8; stroke: #18c1f5; stroke-opacity: 0.8"/>
     <use xlink:href="#m4a4857b23d" x="192.533344" y="148.498409" style="fill: #18c1f5; fill-opacity: 0.8; stroke: #18c1f5; stroke-opacity: 0.8"/>
     <use xlink:href="#m4a4857b23d" x="193.125603" y="190.634568" style="fill: #18c1f5; fill-opacity: 0.8; stroke: #18c1f5; stroke-opacity: 0.8"/>
     <use xlink:href="#m4a4857b23d" x="198.991357" y="107.122159" style="fill: #18c1f5; fill-opacity: 0.8; stroke: #18c1f5; stroke-opacity: 0.8"/>
     <use xlink:href="#m4a4857b23d" x="196.99427" y="43.516875" style="fill: #18c1f5; fill-opacity: 0.8; stroke: #18c1f5; stroke-opacity: 0.8"/>
     <use xlink:href="#m4a4857b23d" x="192.057753" y="166.01594" style="fill: #18c1f5; fill-opacity: 0.8; stroke: #18c1f5; stroke-opacity: 0.8"/>
     <use xlink:href="#m4a4857b23d" x="198.868327" y="218.439728" style="fill: #18c1f5; fill-opacity: 0.8; stroke: #18c1f5; stroke-opacity: 0.8"/>
     <use xlink:href="#m4a4857b23d" x="200.697697" y="226.823278" style="fill: #18c1f5; fill-opacity: 0.8; stroke: #18c1f5; stroke-opacity: 0.8"/>
     <use xlink:href="#m4a4857b23d" x="202.068592" y="221.36545" style="fill: #18c1f5; fill-opacity: 0.8; stroke: #18c1f5; stroke-opacity: 0.8"/>
     <use xlink:href="#m4a4857b23d" x="202.61837" y="213.416318" style="fill: #18c1f5; fill-opacity: 0.8; stroke: #18c1f5; stroke-opacity: 0.8"/>
     <use xlink:href="#m4a4857b23d" x="195.046545" y="221.161626" style="fill: #18c1f5; fill-opacity: 0.8; stroke: #18c1f5; stroke-opacity: 0.8"/>
     <use xlink:href="#m4a4857b23d" x="191.52088" y="174.774706" style="fill: #18c1f5; fill-opacity: 0.8; stroke: #18c1f5; stroke-opacity: 0.8"/>
     <use xlink:href="#m4a4857b23d" x="199.464514" y="199.926883" style="fill: #18c1f5; fill-opacity: 0.8; stroke: #18c1f5; stroke-opacity: 0.8"/>
     <use xlink:href="#m4a4857b23d" x="189.782647" y="220.550155" style="fill: #18c1f5; fill-opacity: 0.8; stroke: #18c1f5; stroke-opacity: 0.8"/>
     <use xlink:href="#m4a4857b23d" x="202.537225" y="254.556562" style="fill: #18c1f5; fill-opacity: 0.8; stroke: #18c1f5; stroke-opacity: 0.8"/>
     <use xlink:href="#m4a4857b23d" x="202.088811" y="203.78564" style="fill: #18c1f5; fill-opacity: 0.8; stroke: #18c1f5; stroke-opacity: 0.8"/>
     <use xlink:href="#m4a4857b23d" x="193.820981" y="202.265453" style="fill: #18c1f5; fill-opacity: 0.8; stroke: #18c1f5; stroke-opacity: 0.8"/>
     <use xlink:href="#m4a4857b23d" x="193.250375" y="231.036894" style="fill: #18c1f5; fill-opacity: 0.8; stroke: #18c1f5; stroke-opacity: 0.8"/>
     <use xlink:href="#m4a4857b23d" x="192.338912" y="345.916875" style="fill: #18c1f5; fill-opacity: 0.8; stroke: #18c1f5; stroke-opacity: 0.8"/>
     <use xlink:href="#m4a4857b23d" x="190.576763" y="244.947875" style="fill: #18c1f5; fill-opacity: 0.8; stroke: #18c1f5; stroke-opacity: 0.8"/>
     <use xlink:href="#m4a4857b23d" x="194.468795" y="178.914492" style="fill: #18c1f5; fill-opacity: 0.8; stroke: #18c1f5; stroke-opacity: 0.8"/>
     <use xlink:href="#m4a4857b23d" x="190.157722" y="285.620932" style="fill: #18c1f5; fill-opacity: 0.8; stroke: #18c1f5; stroke-opacity: 0.8"/>
     <use xlink:href="#m4a4857b23d" x="194.817623" y="203.479904" style="fill: #18c1f5; fill-opacity: 0.8; stroke: #18c1f5; stroke-opacity: 0.8"/>
     <use xlink:href="#m4a4857b23d" x="199.400536" y="182.483647" style="fill: #18c1f5; fill-opacity: 0.8; stroke: #18c1f5; stroke-opacity: 0.8"/>
    </g>
   </g>
   <g id="PathCollection_2">
    <defs>
     <path id="m9b78fdcfd8" d="M 0 3 
C 0.795609 3 1.55874 2.683901 2.12132 2.12132 
C 2.683901 1.55874 3 0.795609 3 0 
C 3 -0.795609 2.683901 -1.55874 2.12132 -2.12132 
C 1.55874 -2.683901 0.795609 -3 0 -3 
C -0.795609 -3 -1.55874 -2.683901 -2.12132 -2.12132 
C -2.683901 -1.55874 -3 -0.795609 -3 0 
C -3 0.795609 -2.683901 1.55874 -2.12132 2.12132 
C -1.55874 2.683901 -0.795609 3 0 3 
z
" style="stroke: #36d15a; stroke-opacity: 0.8"/>
    </defs>
    <g clip-path="url(#pb869a53e7e)">
     <use xlink:href="#m9b78fdcfd8" x="304.210307" y="61.255619" style="fill: #36d15a; fill-opacity: 0.8; stroke: #36d15a; stroke-opacity: 0.8"/>
     <use xlink:href="#m9b78fdcfd8" x="302.772005" y="53.903741" style="fill: #36d15a; fill-opacity: 0.8; stroke: #36d15a; stroke-opacity: 0.8"/>
     <use xlink:href="#m9b78fdcfd8" x="304.183763" y="67.169889" style="fill: #36d15a; fill-opacity: 0.8; stroke: #36d15a; stroke-opacity: 0.8"/>
     <use xlink:href="#m9b78fdcfd8" x="304.893549" y="64.319141" style="fill: #36d15a; fill-opacity: 0.8; stroke: #36d15a; stroke-opacity: 0.8"/>
     <use xlink:href="#m9b78fdcfd8" x="312.638606" y="59.236283" style="fill: #36d15a; fill-opacity: 0.8; stroke: #36d15a; stroke-opacity: 0.8"/>
     <use xlink:href="#m9b78fdcfd8" x="303.125382" y="179.926921" style="fill: #36d15a; fill-opacity: 0.8; stroke: #36d15a; stroke-opacity: 0.8"/>
     <use xlink:href="#m9b78fdcfd8" x="314.696046" y="116.241062" style="fill: #36d15a; fill-opacity: 0.8; stroke: #36d15a; stroke-opacity: 0.8"/>
     <use xlink:href="#m9b78fdcfd8" x="302.83143" y="245.875273" style="fill: #36d15a; fill-opacity: 0.8; stroke: #36d15a; stroke-opacity: 0.8"/>
     <use xlink:href="#m9b78fdcfd8" x="310.264285" y="107.790956" style="fill: #36d15a; fill-opacity: 0.8; stroke: #36d15a; stroke-opacity: 0.8"/>
     <use xlink:href="#m9b78fdcfd8" x="305.264307" y="44.668665" style="fill: #36d15a; fill-opacity: 0.8; stroke: #36d15a; stroke-opacity: 0.8"/>
     <use xlink:href="#m9b78fdcfd8" x="312.85985" y="66.322516" style="fill: #36d15a; fill-opacity: 0.8; stroke: #36d15a; stroke-opacity: 0.8"/>
     <use xlink:href="#m9b78fdcfd8" x="310.853049" y="174.001873" style="fill: #36d15a; fill-opacity: 0.8; stroke: #36d15a; stroke-opacity: 0.8"/>
     <use xlink:href="#m9b78fdcfd8" x="309.517208" y="154.400037" style="fill: #36d15a; fill-opacity: 0.8; stroke: #36d15a; stroke-opacity: 0.8"/>
     <use xlink:href="#m9b78fdcfd8" x="303.256915" y="127.0969" style="fill: #36d15a; fill-opacity: 0.8; stroke: #36d15a; stroke-opacity: 0.8"/>
     <use xlink:href="#m9b78fdcfd8" x="304.370472" y="80.930789" style="fill: #36d15a; fill-opacity: 0.8; stroke: #36d15a; stroke-opacity: 0.8"/>
     <use xlink:href="#m9b78fdcfd8" x="308.799251" y="106.897952" style="fill: #36d15a; fill-opacity: 0.8; stroke: #36d15a; stroke-opacity: 0.8"/>
     <use xlink:href="#m9b78fdcfd8" x="308.513743" y="122.994944" style="fill: #36d15a; fill-opacity: 0.8; stroke: #36d15a; stroke-opacity: 0.8"/>
     <use xlink:href="#m9b78fdcfd8" x="309.928834" y="177.06618" style="fill: #36d15a; fill-opacity: 0.8; stroke: #36d15a; stroke-opacity: 0.8"/>
     <use xlink:href="#m9b78fdcfd8" x="305.004167" y="153.135402" style="fill: #36d15a; fill-opacity: 0.8; stroke: #36d15a; stroke-opacity: 0.8"/>
     <use xlink:href="#m9b78fdcfd8" x="301.3556" y="89.376741" style="fill: #36d15a; fill-opacity: 0.8; stroke: #36d15a; stroke-opacity: 0.8"/>
     <use xlink:href="#m9b78fdcfd8" x="302.031092" y="101.530152" style="fill: #36d15a; fill-opacity: 0.8; stroke: #36d15a; stroke-opacity: 0.8"/>
     <use xlink:href="#m9b78fdcfd8" x="314.713539" y="182.944647" style="fill: #36d15a; fill-opacity: 0.8; stroke: #36d15a; stroke-opacity: 0.8"/>
     <use xlink:href="#m9b78fdcfd8" x="304.69573" y="125.772045" style="fill: #36d15a; fill-opacity: 0.8; stroke: #36d15a; stroke-opacity: 0.8"/>
     <use xlink:href="#m9b78fdcfd8" x="308.512354" y="90.25777" style="fill: #36d15a; fill-opacity: 0.8; stroke: #36d15a; stroke-opacity: 0.8"/>
    </g>
   </g>
   <g id="text_10">
    <!-- Pellet-in-Meal Ratio Distribution: Control vs. Cask -->
    <g transform="translate(7.2 22.396875) scale(0.2 -0.2)">
     <defs>
      <path id="DejaVuSans-44" d="M 1259 4147 
L 1259 519 
L 2022 519 
Q 2988 519 3436 956 
Q 3884 1394 3884 2338 
Q 3884 3275 3436 3711 
Q 2988 4147 2022 4147 
L 1259 4147 
z
M 628 4666 
L 1925 4666 
Q 3281 4666 3915 4102 
Q 4550 3538 4550 2338 
Q 4550 1131 3912 565 
Q 3275 0 1925 0 
L 628 0 
L 628 4666 
z
" transform="scale(0.015625)"/>
      <path id="DejaVuSans-62" d="M 3116 1747 
Q 3116 2381 2855 2742 
Q 2594 3103 2138 3103 
Q 1681 3103 1420 2742 
Q 1159 2381 1159 1747 
Q 1159 1113 1420 752 
Q 1681 391 2138 391 
Q 2594 391 2855 752 
Q 3116 1113 3116 1747 
z
M 1159 2969 
Q 1341 3281 1617 3432 
Q 1894 3584 2278 3584 
Q 2916 3584 3314 3078 
Q 3713 2572 3713 1747 
Q 3713 922 3314 415 
Q 2916 -91 2278 -91 
Q 1894 -91 1617 61 
Q 1341 213 1159 525 
L 1159 0 
L 581 0 
L 581 4863 
L 1159 4863 
L 1159 2969 
z
" transform="scale(0.015625)"/>
      <path id="DejaVuSans-3a" d="M 750 794 
L 1409 794 
L 1409 0 
L 750 0 
L 750 794 
z
M 750 3309 
L 1409 3309 
L 1409 2516 
L 750 2516 
L 750 3309 
z
" transform="scale(0.015625)"/>
      <path id="DejaVuSans-76" d="M 191 3500 
L 800 3500 
L 1894 563 
L 2988 3500 
L 3597 3500 
L 2284 0 
L 1503 0 
L 191 3500 
z
" transform="scale(0.015625)"/>
     </defs>
     <use xlink:href="#DejaVuSans-50"/>
     <use xlink:href="#DejaVuSans-65" x="56.677734"/>
     <use xlink:href="#DejaVuSans-6c" x="118.201172"/>
     <use xlink:href="#DejaVuSans-6c" x="145.984375"/>
     <use xlink:href="#DejaVuSans-65" x="173.767578"/>
     <use xlink:href="#DejaVuSans-74" x="235.291016"/>
     <use xlink:href="#DejaVuSans-2d" x="274.5"/>
     <use xlink:href="#DejaVuSans-69" x="310.583984"/>
     <use xlink:href="#DejaVuSans-6e" x="338.367188"/>
     <use xlink:href="#DejaVuSans-2d" x="401.746094"/>
     <use xlink:href="#DejaVuSans-4d" x="437.830078"/>
     <use xlink:href="#DejaVuSans-65" x="524.109375"/>
     <use xlink:href="#DejaVuSans-61" x="585.632812"/>
     <use xlink:href="#DejaVuSans-6c" x="646.912109"/>
     <use xlink:href="#DejaVuSans-20" x="674.695312"/>
     <use xlink:href="#DejaVuSans-52" x="706.482422"/>
     <use xlink:href="#DejaVuSans-61" x="773.714844"/>
     <use xlink:href="#DejaVuSans-74" x="834.994141"/>
     <use xlink:href="#DejaVuSans-69" x="874.203125"/>
     <use xlink:href="#DejaVuSans-6f" x="901.986328"/>
     <use xlink:href="#DejaVuSans-20" x="963.167969"/>
     <use xlink:href="#DejaVuSans-44" x="994.955078"/>
     <use xlink:href="#DejaVuSans-69" x="1071.957031"/>
     <use xlink:href="#DejaVuSans-73" x="1099.740234"/>
     <use xlink:href="#DejaVuSans-74" x="1151.839844"/>
     <use xlink:href="#DejaVuSans-72" x="1191.048828"/>
     <use xlink:href="#DejaVuSans-69" x="1232.162109"/>
     <use xlink:href="#DejaVuSans-62" x="1259.945312"/>
     <use xlink:href="#DejaVuSans-75" x="1323.421875"/>
     <use xlink:href="#DejaVuSans-74" x="1386.800781"/>
     <use xlink:href="#DejaVuSans-69" x="1426.009766"/>
     <use xlink:href="#DejaVuSans-6f" x="1453.792969"/>
     <use xlink:href="#DejaVuSans-6e" x="1514.974609"/>
     <use xlink:href="#DejaVuSans-3a" x="1578.353516"/>
     <use xlink:href="#DejaVuSans-20" x="1612.044922"/>
     <use xlink:href="#DejaVuSans-43" x="1643.832031"/>
     <use xlink:href="#DejaVuSans-6f" x="1713.65625"/>
     <use xlink:href="#DejaVuSans-6e" x="1774.837891"/>
     <use xlink:href="#DejaVuSans-74" x="1838.216797"/>
     <use xlink:href="#DejaVuSans-72" x="1877.425781"/>
     <use xlink:href="#DejaVuSans-6f" x="1916.289062"/>
     <use xlink:href="#DejaVuSans-6c" x="1977.470703"/>
     <use xlink:href="#DejaVuSans-20" x="2005.253906"/>
     <use xlink:href="#DejaVuSans-76" x="2037.041016"/>
     <use xlink:href="#DejaVuSans-73" x="2096.220703"/>
     <use xlink:href="#DejaVuSans-2e" x="2148.320312"/>
     <use xlink:href="#DejaVuSans-20" x="2180.107422"/>
     <use xlink:href="#DejaVuSans-43" x="2211.894531"/>
     <use xlink:href="#DejaVuSans-61" x="2281.71875"/>
     <use xlink:href="#DejaVuSans-73" x="2342.998047"/>
     <use xlink:href="#DejaVuSans-6b" x="2395.097656"/>
    </g>
   </g>
   <g id="legend_1">
    <g id="patch_9">
     <path d="M 306.328125 356.036875 
L 412.89375 356.036875 
Q 414.89375 356.036875 414.89375 354.036875 
L 414.89375 325.680625 
Q 414.89375 323.680625 412.89375 323.680625 
L 306.328125 323.680625 
Q 304.328125 323.680625 304.328125 325.680625 
L 304.328125 354.036875 
Q 304.328125 356.036875 306.328125 356.036875 
z
" style="fill: #ffffff; opacity: 0.8; stroke: #cccccc; stroke-linejoin: miter"/>
    </g>
    <g id="patch_10">
     <path d="M 308.328125 335.279062 
L 328.328125 335.279062 
L 328.328125 328.279062 
L 308.328125 328.279062 
z
" style="fill: #38bcf5; opacity: 0.6; stroke: #38bcf5; stroke-linejoin: miter"/>
    </g>
    <g id="text_11">
     <!-- Control (n=26) -->
     <g transform="translate(336.328125 335.279062) scale(0.1 -0.1)">
      <defs>
       <path id="DejaVuSans-3d" d="M 678 2906 
L 4684 2906 
L 4684 2381 
L 678 2381 
L 678 2906 
z
M 678 1631 
L 4684 1631 
L 4684 1100 
L 678 1100 
L 678 1631 
z
" transform="scale(0.015625)"/>
       <path id="DejaVuSans-32" d="M 1228 531 
L 3431 531 
L 3431 0 
L 469 0 
L 469 531 
Q 828 903 1448 1529 
Q 2069 2156 2228 2338 
Q 2531 2678 2651 2914 
Q 2772 3150 2772 3378 
Q 2772 3750 2511 3984 
Q 2250 4219 1831 4219 
Q 1534 4219 1204 4116 
Q 875 4013 500 3803 
L 500 4441 
Q 881 4594 1212 4672 
Q 1544 4750 1819 4750 
Q 2544 4750 2975 4387 
Q 3406 4025 3406 3419 
Q 3406 3131 3298 2873 
Q 3191 2616 2906 2266 
Q 2828 2175 2409 1742 
Q 1991 1309 1228 531 
z
" transform="scale(0.015625)"/>
       <path id="DejaVuSans-36" d="M 2113 2584 
Q 1688 2584 1439 2293 
Q 1191 2003 1191 1497 
Q 1191 994 1439 701 
Q 1688 409 2113 409 
Q 2538 409 2786 701 
Q 3034 994 3034 1497 
Q 3034 2003 2786 2293 
Q 2538 2584 2113 2584 
z
M 3366 4563 
L 3366 3988 
Q 3128 4100 2886 4159 
Q 2644 4219 2406 4219 
Q 1781 4219 1451 3797 
Q 1122 3375 1075 2522 
Q 1259 2794 1537 2939 
Q 1816 3084 2150 3084 
Q 2853 3084 3261 2657 
Q 3669 2231 3669 1497 
Q 3669 778 3244 343 
Q 2819 -91 2113 -91 
Q 1303 -91 875 529 
Q 447 1150 447 2328 
Q 447 3434 972 4092 
Q 1497 4750 2381 4750 
Q 2619 4750 2861 4703 
Q 3103 4656 3366 4563 
z
" transform="scale(0.015625)"/>
      </defs>
      <use xlink:href="#DejaVuSans-43"/>
      <use xlink:href="#DejaVuSans-6f" x="69.824219"/>
      <use xlink:href="#DejaVuSans-6e" x="131.005859"/>
      <use xlink:href="#DejaVuSans-74" x="194.384766"/>
      <use xlink:href="#DejaVuSans-72" x="233.59375"/>
      <use xlink:href="#DejaVuSans-6f" x="272.457031"/>
      <use xlink:href="#DejaVuSans-6c" x="333.638672"/>
      <use xlink:href="#DejaVuSans-20" x="361.421875"/>
      <use xlink:href="#DejaVuSans-28" x="393.208984"/>
      <use xlink:href="#DejaVuSans-6e" x="432.222656"/>
      <use xlink:href="#DejaVuSans-3d" x="495.601562"/>
      <use xlink:href="#DejaVuSans-32" x="579.390625"/>
      <use xlink:href="#DejaVuSans-36" x="643.013672"/>
      <use xlink:href="#DejaVuSans-29" x="706.636719"/>
     </g>
    </g>
    <g id="patch_11">
     <path d="M 308.328125 349.957187 
L 328.328125 349.957187 
L 328.328125 342.957187 
L 308.328125 342.957187 
z
" style="fill: #38f5a6; opacity: 0.6; stroke: #38f5a6; stroke-linejoin: miter"/>
    </g>
    <g id="text_12">
     <!-- Cask (n=24) -->
     <g transform="translate(336.328125 349.957187) scale(0.1 -0.1)">
      <defs>
       <path id="DejaVuSans-34" d="M 2419 4116 
L 825 1625 
L 2419 1625 
L 2419 4116 
z
M 2253 4666 
L 3047 4666 
L 3047 1625 
L 3713 1625 
L 3713 1100 
L 3047 1100 
L 3047 0 
L 2419 0 
L 2419 1100 
L 313 1100 
L 313 1709 
L 2253 4666 
z
" transform="scale(0.015625)"/>
      </defs>
      <use xlink:href="#DejaVuSans-43"/>
      <use xlink:href="#DejaVuSans-61" x="69.824219"/>
      <use xlink:href="#DejaVuSans-73" x="131.103516"/>
      <use xlink:href="#DejaVuSans-6b" x="183.203125"/>
      <use xlink:href="#DejaVuSans-20" x="241.113281"/>
      <use xlink:href="#DejaVuSans-28" x="272.900391"/>
      <use xlink:href="#DejaVuSans-6e" x="311.914062"/>
      <use xlink:href="#DejaVuSans-3d" x="375.292969"/>
      <use xlink:href="#DejaVuSans-32" x="459.082031"/>
      <use xlink:href="#DejaVuSans-34" x="522.705078"/>
      <use xlink:href="#DejaVuSans-29" x="586.328125"/>
     </g>
    </g>
   </g>
  </g>
 </g>
 <defs>
  <clipPath id="pb869a53e7e">
   <rect x="85.09375" y="28.396875" width="334.8" height="332.64"/>
  </clipPath>
 </defs>
</svg>
