<?xml version="1.0" encoding="utf-8" standalone="no"?>
<!DOCTYPE svg PUBLIC "-//W3C//DTD SVG 1.1//EN"
  "http://www.w3.org/Graphics/SVG/1.1/DTD/svg11.dtd">
<svg xmlns:xlink="http://www.w3.org/1999/xlink" width="442.274375pt" height="454.865pt" viewBox="0 0 442.274375 454.865" xmlns="http://www.w3.org/2000/svg" version="1.1">
 <metadata>
  <rdf:RDF xmlns:dc="http://purl.org/dc/elements/1.1/" xmlns:cc="http://creativecommons.org/ns#" xmlns:rdf="http://www.w3.org/1999/02/22-rdf-syntax-ns#">
   <cc:Work>
    <dc:type rdf:resource="http://purl.org/dc/dcmitype/StillImage"/>
    <dc:date>2025-04-10T14:53:06.731102</dc:date>
    <dc:format>image/svg+xml</dc:format>
    <dc:creator>
     <cc:Agent>
      <dc:title>Matplotlib v3.8.3, https://matplotlib.org/</dc:title>
     </cc:Agent>
    </dc:creator>
   </cc:Work>
  </rdf:RDF>
 </metadata>
 <defs>
  <style type="text/css">*{stroke-linejoin: round; stroke-linecap: butt}</style>
 </defs>
 <g id="figure_1">
  <g id="patch_1">
   <path d="M 0 454.865 
L 442.274375 454.865 
L 442.274375 0 
L 0 0 
z
" style="fill: #ffffff"/>
  </g>
  <g id="axes_1">
   <g id="patch_2">
    <path d="M 44.474375 413.4375 
L 435.074375 413.4375 
L 435.074375 25.3575 
L 44.474375 25.3575 
z
" style="fill: #ffffff"/>
   </g>
   <g id="PolyCollection_1">
    <defs>
     <path id="m221193214c" d="M 141.800808 -115.567375 
L 84.111578 -115.567375 
L 82.727433 -118.560306 
L 81.360086 -121.553237 
L 80.015491 -124.546167 
L 78.699324 -127.539098 
L 77.416911 -130.532028 
L 76.173161 -133.524959 
L 74.972518 -136.517889 
L 73.818908 -139.51082 
L 72.715714 -142.50375 
L 71.665752 -145.496681 
L 70.671265 -148.489612 
L 69.733931 -151.482542 
L 68.854879 -154.475473 
L 68.034718 -157.468403 
L 67.27358 -160.461334 
L 66.571169 -163.454264 
L 65.926815 -166.447195 
L 65.339538 -169.440125 
L 64.808112 -172.433056 
L 64.331128 -175.425987 
L 63.907064 -178.418917 
L 63.53434 -181.411848 
L 63.211374 -184.404778 
L 62.936635 -187.397709 
L 62.708675 -190.390639 
L 62.526166 -193.38357 
L 62.387913 -196.3765 
L 62.292869 -199.369431 
L 62.240129 -202.362361 
L 62.22892 -205.355292 
L 62.258582 -208.348223 
L 62.328536 -211.341153 
L 62.438255 -214.334084 
L 62.587223 -217.327014 
L 62.774895 -220.319945 
L 63.000657 -223.312875 
L 63.263787 -226.305806 
L 63.563422 -229.298736 
L 63.898525 -232.291667 
L 64.267866 -235.284598 
L 64.670006 -238.277528 
L 65.103292 -241.270459 
L 65.565859 -244.263389 
L 66.055644 -247.25632 
L 66.570405 -250.24925 
L 67.10775 -253.242181 
L 67.66517 -256.235111 
L 68.24008 -259.228042 
L 68.829862 -262.220972 
L 69.431905 -265.213903 
L 70.043653 -268.206834 
L 70.662644 -271.199764 
L 71.286547 -274.192695 
L 71.913198 -277.185625 
L 72.540621 -280.178556 
L 73.167052 -283.171486 
L 73.790947 -286.164417 
L 74.410991 -289.157347 
L 75.02609 -292.150278 
L 75.635365 -295.143209 
L 76.238136 -298.136139 
L 76.833902 -301.12907 
L 77.422321 -304.122 
L 78.003179 -307.114931 
L 78.576373 -310.107861 
L 79.141882 -313.100792 
L 79.699748 -316.093722 
L 80.250058 -319.086653 
L 80.792931 -322.079583 
L 81.328509 -325.072514 
L 81.856951 -328.065445 
L 82.378441 -331.058375 
L 82.893189 -334.051306 
L 83.401443 -337.044236 
L 83.903505 -340.037167 
L 84.399742 -343.030097 
L 84.890608 -346.023028 
L 85.376655 -349.015958 
L 85.85855 -352.008889 
L 86.337085 -355.00182 
L 86.813184 -357.99475 
L 87.287903 -360.987681 
L 87.762426 -363.980611 
L 88.238055 -366.973542 
L 88.716192 -369.966472 
L 89.19831 -372.959403 
L 89.685933 -375.952333 
L 90.18059 -378.945264 
L 90.683783 -381.938194 
L 91.196943 -384.931125 
L 91.721385 -387.924056 
L 92.258266 -390.916986 
L 92.808542 -393.909917 
L 93.372933 -396.902847 
L 93.951884 -399.895778 
L 94.54554 -402.888708 
L 95.153727 -405.881639 
L 95.775936 -408.874569 
L 96.411317 -411.8675 
L 129.501069 -411.8675 
L 129.501069 -411.8675 
L 130.136451 -408.874569 
L 130.758659 -405.881639 
L 131.366846 -402.888708 
L 131.960503 -399.895778 
L 132.539454 -396.902847 
L 133.103844 -393.909917 
L 133.654121 -390.916986 
L 134.191001 -387.924056 
L 134.715443 -384.931125 
L 135.228603 -381.938194 
L 135.731796 -378.945264 
L 136.226453 -375.952333 
L 136.714076 -372.959403 
L 137.196195 -369.966472 
L 137.674331 -366.973542 
L 138.14996 -363.980611 
L 138.624484 -360.987681 
L 139.099203 -357.99475 
L 139.575301 -355.00182 
L 140.053836 -352.008889 
L 140.535732 -349.015958 
L 141.021778 -346.023028 
L 141.512644 -343.030097 
L 142.008882 -340.037167 
L 142.510943 -337.044236 
L 143.019198 -334.051306 
L 143.533946 -331.058375 
L 144.055436 -328.065445 
L 144.583878 -325.072514 
L 145.119455 -322.079583 
L 145.662328 -319.086653 
L 146.212638 -316.093722 
L 146.770505 -313.100792 
L 147.336013 -310.107861 
L 147.909207 -307.114931 
L 148.490066 -304.122 
L 149.078484 -301.12907 
L 149.674251 -298.136139 
L 150.277022 -295.143209 
L 150.886297 -292.150278 
L 151.501396 -289.157347 
L 152.121439 -286.164417 
L 152.745335 -283.171486 
L 153.371765 -280.178556 
L 153.999188 -277.185625 
L 154.625839 -274.192695 
L 155.249743 -271.199764 
L 155.868734 -268.206834 
L 156.480482 -265.213903 
L 157.082525 -262.220972 
L 157.672306 -259.228042 
L 158.247216 -256.235111 
L 158.804636 -253.242181 
L 159.341981 -250.24925 
L 159.856742 -247.25632 
L 160.346527 -244.263389 
L 160.809094 -241.270459 
L 161.24238 -238.277528 
L 161.64452 -235.284598 
L 162.013861 -232.291667 
L 162.348964 -229.298736 
L 162.648599 -226.305806 
L 162.911729 -223.312875 
L 163.137492 -220.319945 
L 163.325164 -217.327014 
L 163.474132 -214.334084 
L 163.583851 -211.341153 
L 163.653805 -208.348223 
L 163.683466 -205.355292 
L 163.672257 -202.362361 
L 163.619517 -199.369431 
L 163.524473 -196.3765 
L 163.38622 -193.38357 
L 163.203711 -190.390639 
L 162.975751 -187.397709 
L 162.701012 -184.404778 
L 162.378047 -181.411848 
L 162.005322 -178.418917 
L 161.581258 -175.425987 
L 161.104275 -172.433056 
L 160.572848 -169.440125 
L 159.985571 -166.447195 
L 159.341217 -163.454264 
L 158.638806 -160.461334 
L 157.877669 -157.468403 
L 157.057507 -154.475473 
L 156.178455 -151.482542 
L 155.241121 -148.489612 
L 154.246635 -145.496681 
L 153.196673 -142.50375 
L 152.093478 -139.51082 
L 150.939869 -136.517889 
L 149.739225 -133.524959 
L 148.495476 -130.532028 
L 147.213062 -127.539098 
L 145.896895 -124.546167 
L 144.5523 -121.553237 
L 143.184954 -118.560306 
L 141.800808 -115.567375 
z
" style="stroke: #000000; stroke-opacity: 0.8"/>
    </defs>
    <g clip-path="url(#p6156dabff7)">
     <use xlink:href="#m221193214c" x="0" y="454.865" style="fill: #add8e6; fill-opacity: 0.8; stroke: #000000; stroke-opacity: 0.8"/>
    </g>
   </g>
   <g id="PolyCollection_2">
    <defs>
     <path id="mc6eb2427d7" d="M 383.996836 -59.0675 
L 349.188278 -59.0675 
L 348.666205 -62.013399 
L 348.17588 -64.959298 
L 347.718274 -67.905197 
L 347.293754 -70.851096 
L 346.902067 -73.796995 
L 346.542325 -76.742894 
L 346.213023 -79.688793 
L 345.912049 -82.634692 
L 345.63672 -85.580591 
L 345.383822 -88.52649 
L 345.149664 -91.472389 
L 344.930141 -94.418288 
L 344.720802 -97.364187 
L 344.516928 -100.310086 
L 344.313614 -103.255985 
L 344.105849 -106.201884 
L 343.888605 -109.147783 
L 343.656919 -112.093682 
L 343.405974 -115.039581 
L 343.131178 -117.98548 
L 342.828233 -120.931379 
L 342.493203 -123.877278 
L 342.122569 -126.823177 
L 341.713279 -129.769076 
L 341.262786 -132.714975 
L 340.769081 -135.660874 
L 340.230714 -138.606773 
L 339.646809 -141.552672 
L 339.017065 -144.498571 
L 338.341761 -147.44447 
L 337.621743 -150.390369 
L 336.858412 -153.336268 
L 336.053709 -156.282167 
L 335.210092 -159.228066 
L 334.330514 -162.173965 
L 333.418399 -165.119864 
L 332.477616 -168.065763 
L 331.512453 -171.011662 
L 330.527591 -173.957561 
L 329.528078 -176.90346 
L 328.519299 -179.849359 
L 327.506947 -182.795258 
L 326.496994 -185.741157 
L 325.495652 -188.687056 
L 324.509342 -191.632955 
L 323.544646 -194.578854 
L 322.608259 -197.524753 
L 321.706938 -200.470652 
L 320.847443 -203.416551 
L 320.036465 -206.36245 
L 319.280562 -209.308349 
L 318.586074 -212.254248 
L 317.959046 -215.200147 
L 317.405141 -218.146046 
L 316.929556 -221.091944 
L 316.536935 -224.037843 
L 316.231291 -226.983742 
L 316.015924 -229.929641 
L 315.893359 -232.87554 
L 315.865284 -235.821439 
L 315.932509 -238.767338 
L 316.094934 -241.713237 
L 316.351532 -244.659136 
L 316.700361 -247.605035 
L 317.138578 -250.550934 
L 317.662485 -253.496833 
L 318.267588 -256.442732 
L 318.948668 -259.388631 
L 319.699879 -262.33453 
L 320.514847 -265.280429 
L 321.386791 -268.226328 
L 322.308641 -271.172227 
L 323.273172 -274.118126 
L 324.273127 -277.064025 
L 325.301352 -280.009924 
L 326.35091 -282.955823 
L 327.415201 -285.901722 
L 328.488058 -288.847621 
L 329.563841 -291.79352 
L 330.637501 -294.739419 
L 331.70464 -297.685318 
L 332.761542 -300.631217 
L 333.805193 -303.577116 
L 334.833273 -306.523015 
L 335.844141 -309.468914 
L 336.836793 -312.414813 
L 337.810813 -315.360712 
L 338.766305 -318.306611 
L 339.703819 -321.25251 
L 340.62427 -324.198409 
L 341.528845 -327.144308 
L 342.418918 -330.090207 
L 343.295959 -333.036106 
L 344.161452 -335.982005 
L 345.016809 -338.927904 
L 345.863309 -341.873803 
L 346.702027 -344.819702 
L 347.53379 -347.765601 
L 348.359139 -350.7115 
L 384.825975 -350.7115 
L 384.825975 -350.7115 
L 385.651324 -347.765601 
L 386.483087 -344.819702 
L 387.321805 -341.873803 
L 388.168304 -338.927904 
L 389.023662 -335.982005 
L 389.889154 -333.036106 
L 390.766196 -330.090207 
L 391.656269 -327.144308 
L 392.560844 -324.198409 
L 393.481294 -321.25251 
L 394.418809 -318.306611 
L 395.374301 -315.360712 
L 396.348321 -312.414813 
L 397.340973 -309.468914 
L 398.351841 -306.523015 
L 399.379921 -303.577116 
L 400.423571 -300.631217 
L 401.480474 -297.685318 
L 402.547613 -294.739419 
L 403.621273 -291.79352 
L 404.697055 -288.847621 
L 405.769913 -285.901722 
L 406.834204 -282.955823 
L 407.883762 -280.009924 
L 408.911986 -277.064025 
L 409.911942 -274.118126 
L 410.876472 -271.172227 
L 411.798323 -268.226328 
L 412.670266 -265.280429 
L 413.485235 -262.33453 
L 414.236446 -259.388631 
L 414.917526 -256.442732 
L 415.522629 -253.496833 
L 416.046536 -250.550934 
L 416.484753 -247.605035 
L 416.833582 -244.659136 
L 417.09018 -241.713237 
L 417.252604 -238.767338 
L 417.31983 -235.821439 
L 417.291755 -232.87554 
L 417.16919 -229.929641 
L 416.953823 -226.983742 
L 416.648178 -224.037843 
L 416.255558 -221.091944 
L 415.779973 -218.146046 
L 415.226068 -215.200147 
L 414.59904 -212.254248 
L 413.904552 -209.308349 
L 413.148648 -206.36245 
L 412.337671 -203.416551 
L 411.478176 -200.470652 
L 410.576855 -197.524753 
L 409.640468 -194.578854 
L 408.675771 -191.632955 
L 407.689461 -188.687056 
L 406.68812 -185.741157 
L 405.678167 -182.795258 
L 404.665815 -179.849359 
L 403.657035 -176.90346 
L 402.657522 -173.957561 
L 401.672661 -171.011662 
L 400.707498 -168.065763 
L 399.766715 -165.119864 
L 398.854599 -162.173965 
L 397.975021 -159.228066 
L 397.131404 -156.282167 
L 396.326701 -153.336268 
L 395.563371 -150.390369 
L 394.843352 -147.44447 
L 394.168048 -144.498571 
L 393.538305 -141.552672 
L 392.9544 -138.606773 
L 392.416033 -135.660874 
L 391.922328 -132.714975 
L 391.471835 -129.769076 
L 391.062544 -126.823177 
L 390.69191 -123.877278 
L 390.35688 -120.931379 
L 390.053936 -117.98548 
L 389.77914 -115.039581 
L 389.528195 -112.093682 
L 389.296509 -109.147783 
L 389.079265 -106.201884 
L 388.8715 -103.255985 
L 388.668185 -100.310086 
L 388.464312 -97.364187 
L 388.254973 -94.418288 
L 388.03545 -91.472389 
L 387.801292 -88.52649 
L 387.548394 -85.580591 
L 387.273065 -82.634692 
L 386.972091 -79.688793 
L 386.642788 -76.742894 
L 386.283047 -73.796995 
L 385.891359 -70.851096 
L 385.46684 -67.905197 
L 385.009234 -64.959298 
L 384.518909 -62.013399 
L 383.996836 -59.0675 
z
" style="stroke: #000000; stroke-opacity: 0.8"/>
    </defs>
    <g clip-path="url(#p6156dabff7)">
     <use xlink:href="#mc6eb2427d7" x="0" y="454.865" style="fill: #ffff00; fill-opacity: 0.8; stroke: #000000; stroke-opacity: 0.8"/>
    </g>
   </g>
   <g id="matplotlib.axis_1">
    <g id="xtick_1">
     <g id="line2d_1">
      <defs>
       <path id="m1ca37cd848" d="M 0 0 
L 0 3.5 
" style="stroke: #000000; stroke-width: 0.8"/>
      </defs>
      <g>
       <use xlink:href="#m1ca37cd848" x="112.956193" y="413.4375" style="stroke: #000000; stroke-width: 0.8"/>
      </g>
     </g>
     <g id="text_1">
      <!-- Ctrl -->
      <g transform="translate(104.060099 428.035937) scale(0.1 -0.1)">
       <defs>
        <path id="DejaVuSans-43" d="M 4122 4306 
L 4122 3641 
Q 3803 3938 3442 4084 
Q 3081 4231 2675 4231 
Q 1875 4231 1450 3742 
Q 1025 3253 1025 2328 
Q 1025 1406 1450 917 
Q 1875 428 2675 428 
Q 3081 428 3442 575 
Q 3803 722 4122 1019 
L 4122 359 
Q 3791 134 3420 21 
Q 3050 -91 2638 -91 
Q 1578 -91 968 557 
Q 359 1206 359 2328 
Q 359 3453 968 4101 
Q 1578 4750 2638 4750 
Q 3056 4750 3426 4639 
Q 3797 4528 4122 4306 
z
" transform="scale(0.015625)"/>
        <path id="DejaVuSans-74" d="M 1172 4494 
L 1172 3500 
L 2356 3500 
L 2356 3053 
L 1172 3053 
L 1172 1153 
Q 1172 725 1289 603 
Q 1406 481 1766 481 
L 2356 481 
L 2356 0 
L 1766 0 
Q 1100 0 847 248 
Q 594 497 594 1153 
L 594 3053 
L 172 3053 
L 172 3500 
L 594 3500 
L 594 4494 
L 1172 4494 
z
" transform="scale(0.015625)"/>
        <path id="DejaVuSans-72" d="M 2631 2963 
Q 2534 3019 2420 3045 
Q 2306 3072 2169 3072 
Q 1681 3072 1420 2755 
Q 1159 2438 1159 1844 
L 1159 0 
L 581 0 
L 581 3500 
L 1159 3500 
L 1159 2956 
Q 1341 3275 1631 3429 
Q 1922 3584 2338 3584 
Q 2397 3584 2469 3576 
Q 2541 3569 2628 3553 
L 2631 2963 
z
" transform="scale(0.015625)"/>
        <path id="DejaVuSans-6c" d="M 603 4863 
L 1178 4863 
L 1178 0 
L 603 0 
L 603 4863 
z
" transform="scale(0.015625)"/>
       </defs>
       <use xlink:href="#DejaVuSans-43"/>
       <use xlink:href="#DejaVuSans-74" x="69.824219"/>
       <use xlink:href="#DejaVuSans-72" x="109.033203"/>
       <use xlink:href="#DejaVuSans-6c" x="150.146484"/>
      </g>
     </g>
    </g>
    <g id="xtick_2">
     <g id="line2d_2">
      <g>
       <use xlink:href="#m1ca37cd848" x="366.592557" y="413.4375" style="stroke: #000000; stroke-width: 0.8"/>
      </g>
     </g>
     <g id="text_2">
      <!-- Cask -->
      <g transform="translate(354.537088 428.035937) scale(0.1 -0.1)">
       <defs>
        <path id="DejaVuSans-61" d="M 2194 1759 
Q 1497 1759 1228 1600 
Q 959 1441 959 1056 
Q 959 750 1161 570 
Q 1363 391 1709 391 
Q 2188 391 2477 730 
Q 2766 1069 2766 1631 
L 2766 1759 
L 2194 1759 
z
M 3341 1997 
L 3341 0 
L 2766 0 
L 2766 531 
Q 2569 213 2275 61 
Q 1981 -91 1556 -91 
Q 1019 -91 701 211 
Q 384 513 384 1019 
Q 384 1609 779 1909 
Q 1175 2209 1959 2209 
L 2766 2209 
L 2766 2266 
Q 2766 2663 2505 2880 
Q 2244 3097 1772 3097 
Q 1472 3097 1187 3025 
Q 903 2953 641 2809 
L 641 3341 
Q 956 3463 1253 3523 
Q 1550 3584 1831 3584 
Q 2591 3584 2966 3190 
Q 3341 2797 3341 1997 
z
" transform="scale(0.015625)"/>
        <path id="DejaVuSans-73" d="M 2834 3397 
L 2834 2853 
Q 2591 2978 2328 3040 
Q 2066 3103 1784 3103 
Q 1356 3103 1142 2972 
Q 928 2841 928 2578 
Q 928 2378 1081 2264 
Q 1234 2150 1697 2047 
L 1894 2003 
Q 2506 1872 2764 1633 
Q 3022 1394 3022 966 
Q 3022 478 2636 193 
Q 2250 -91 1575 -91 
Q 1294 -91 989 -36 
Q 684 19 347 128 
L 347 722 
Q 666 556 975 473 
Q 1284 391 1588 391 
Q 1994 391 2212 530 
Q 2431 669 2431 922 
Q 2431 1156 2273 1281 
Q 2116 1406 1581 1522 
L 1381 1569 
Q 847 1681 609 1914 
Q 372 2147 372 2553 
Q 372 3047 722 3315 
Q 1072 3584 1716 3584 
Q 2034 3584 2315 3537 
Q 2597 3491 2834 3397 
z
" transform="scale(0.015625)"/>
        <path id="DejaVuSans-6b" d="M 581 4863 
L 1159 4863 
L 1159 1991 
L 2875 3500 
L 3609 3500 
L 1753 1863 
L 3688 0 
L 2938 0 
L 1159 1709 
L 1159 0 
L 581 0 
L 581 4863 
z
" transform="scale(0.015625)"/>
       </defs>
       <use xlink:href="#DejaVuSans-43"/>
       <use xlink:href="#DejaVuSans-61" x="69.824219"/>
       <use xlink:href="#DejaVuSans-73" x="131.103516"/>
       <use xlink:href="#DejaVuSans-6b" x="183.203125"/>
      </g>
     </g>
    </g>
    <g id="text_3">
     <!-- Groups -->
     <g transform="translate(214.820469 444.753438) scale(0.14 -0.14)">
      <defs>
       <path id="DejaVuSans-47" d="M 3809 666 
L 3809 1919 
L 2778 1919 
L 2778 2438 
L 4434 2438 
L 4434 434 
Q 4069 175 3628 42 
Q 3188 -91 2688 -91 
Q 1594 -91 976 548 
Q 359 1188 359 2328 
Q 359 3472 976 4111 
Q 1594 4750 2688 4750 
Q 3144 4750 3555 4637 
Q 3966 4525 4313 4306 
L 4313 3634 
Q 3963 3931 3569 4081 
Q 3175 4231 2741 4231 
Q 1884 4231 1454 3753 
Q 1025 3275 1025 2328 
Q 1025 1384 1454 906 
Q 1884 428 2741 428 
Q 3075 428 3337 486 
Q 3600 544 3809 666 
z
" transform="scale(0.015625)"/>
       <path id="DejaVuSans-6f" d="M 1959 3097 
Q 1497 3097 1228 2736 
Q 959 2375 959 1747 
Q 959 1119 1226 758 
Q 1494 397 1959 397 
Q 2419 397 2687 759 
Q 2956 1122 2956 1747 
Q 2956 2369 2687 2733 
Q 2419 3097 1959 3097 
z
M 1959 3584 
Q 2709 3584 3137 3096 
Q 3566 2609 3566 1747 
Q 3566 888 3137 398 
Q 2709 -91 1959 -91 
Q 1206 -91 779 398 
Q 353 888 353 1747 
Q 353 2609 779 3096 
Q 1206 3584 1959 3584 
z
" transform="scale(0.015625)"/>
       <path id="DejaVuSans-75" d="M 544 1381 
L 544 3500 
L 1119 3500 
L 1119 1403 
Q 1119 906 1312 657 
Q 1506 409 1894 409 
Q 2359 409 2629 706 
Q 2900 1003 2900 1516 
L 2900 3500 
L 3475 3500 
L 3475 0 
L 2900 0 
L 2900 538 
Q 2691 219 2414 64 
Q 2138 -91 1772 -91 
Q 1169 -91 856 284 
Q 544 659 544 1381 
z
M 1991 3584 
L 1991 3584 
z
" transform="scale(0.015625)"/>
       <path id="DejaVuSans-70" d="M 1159 525 
L 1159 -1331 
L 581 -1331 
L 581 3500 
L 1159 3500 
L 1159 2969 
Q 1341 3281 1617 3432 
Q 1894 3584 2278 3584 
Q 2916 3584 3314 3078 
Q 3713 2572 3713 1747 
Q 3713 922 3314 415 
Q 2916 -91 2278 -91 
Q 1894 -91 1617 61 
Q 1341 213 1159 525 
z
M 3116 1747 
Q 3116 2381 2855 2742 
Q 2594 3103 2138 3103 
Q 1681 3103 1420 2742 
Q 1159 2381 1159 1747 
Q 1159 1113 1420 752 
Q 1681 391 2138 391 
Q 2594 391 2855 752 
Q 3116 1113 3116 1747 
z
" transform="scale(0.015625)"/>
      </defs>
      <use xlink:href="#DejaVuSans-47"/>
      <use xlink:href="#DejaVuSans-72" x="77.490234"/>
      <use xlink:href="#DejaVuSans-6f" x="116.353516"/>
      <use xlink:href="#DejaVuSans-75" x="177.535156"/>
      <use xlink:href="#DejaVuSans-70" x="240.914062"/>
      <use xlink:href="#DejaVuSans-73" x="304.390625"/>
     </g>
    </g>
   </g>
   <g id="matplotlib.axis_2">
    <g id="ytick_1">
     <g id="line2d_3">
      <defs>
       <path id="mbf233e9897" d="M 0 0 
L -3.5 0 
" style="stroke: #000000; stroke-width: 0.8"/>
      </defs>
      <g>
       <use xlink:href="#mbf233e9897" x="44.474375" y="373.97798" style="stroke: #000000; stroke-width: 0.8"/>
      </g>
     </g>
     <g id="text_4">
      <!-- 58 -->
      <g transform="translate(24.749375 377.777198) scale(0.1 -0.1)">
       <defs>
        <path id="DejaVuSans-35" d="M 691 4666 
L 3169 4666 
L 3169 4134 
L 1269 4134 
L 1269 2991 
Q 1406 3038 1543 3061 
Q 1681 3084 1819 3084 
Q 2600 3084 3056 2656 
Q 3513 2228 3513 1497 
Q 3513 744 3044 326 
Q 2575 -91 1722 -91 
Q 1428 -91 1123 -41 
Q 819 9 494 109 
L 494 744 
Q 775 591 1075 516 
Q 1375 441 1709 441 
Q 2250 441 2565 725 
Q 2881 1009 2881 1497 
Q 2881 1984 2565 2268 
Q 2250 2553 1709 2553 
Q 1456 2553 1204 2497 
Q 953 2441 691 2322 
L 691 4666 
z
" transform="scale(0.015625)"/>
        <path id="DejaVuSans-38" d="M 2034 2216 
Q 1584 2216 1326 1975 
Q 1069 1734 1069 1313 
Q 1069 891 1326 650 
Q 1584 409 2034 409 
Q 2484 409 2743 651 
Q 3003 894 3003 1313 
Q 3003 1734 2745 1975 
Q 2488 2216 2034 2216 
z
M 1403 2484 
Q 997 2584 770 2862 
Q 544 3141 544 3541 
Q 544 4100 942 4425 
Q 1341 4750 2034 4750 
Q 2731 4750 3128 4425 
Q 3525 4100 3525 3541 
Q 3525 3141 3298 2862 
Q 3072 2584 2669 2484 
Q 3125 2378 3379 2068 
Q 3634 1759 3634 1313 
Q 3634 634 3220 271 
Q 2806 -91 2034 -91 
Q 1263 -91 848 271 
Q 434 634 434 1313 
Q 434 1759 690 2068 
Q 947 2378 1403 2484 
z
M 1172 3481 
Q 1172 3119 1398 2916 
Q 1625 2713 2034 2713 
Q 2441 2713 2670 2916 
Q 2900 3119 2900 3481 
Q 2900 3844 2670 4047 
Q 2441 4250 2034 4250 
Q 1625 4250 1398 4047 
Q 1172 3844 1172 3481 
z
" transform="scale(0.015625)"/>
       </defs>
       <use xlink:href="#DejaVuSans-35"/>
       <use xlink:href="#DejaVuSans-38" x="63.623047"/>
      </g>
     </g>
    </g>
    <g id="ytick_2">
     <g id="line2d_4">
      <g>
       <use xlink:href="#mbf233e9897" x="44.474375" y="326.258832" style="stroke: #000000; stroke-width: 0.8"/>
      </g>
     </g>
     <g id="text_5">
      <!-- 60 -->
      <g transform="translate(24.749375 330.05805) scale(0.1 -0.1)">
       <defs>
        <path id="DejaVuSans-36" d="M 2113 2584 
Q 1688 2584 1439 2293 
Q 1191 2003 1191 1497 
Q 1191 994 1439 701 
Q 1688 409 2113 409 
Q 2538 409 2786 701 
Q 3034 994 3034 1497 
Q 3034 2003 2786 2293 
Q 2538 2584 2113 2584 
z
M 3366 4563 
L 3366 3988 
Q 3128 4100 2886 4159 
Q 2644 4219 2406 4219 
Q 1781 4219 1451 3797 
Q 1122 3375 1075 2522 
Q 1259 2794 1537 2939 
Q 1816 3084 2150 3084 
Q 2853 3084 3261 2657 
Q 3669 2231 3669 1497 
Q 3669 778 3244 343 
Q 2819 -91 2113 -91 
Q 1303 -91 875 529 
Q 447 1150 447 2328 
Q 447 3434 972 4092 
Q 1497 4750 2381 4750 
Q 2619 4750 2861 4703 
Q 3103 4656 3366 4563 
z
" transform="scale(0.015625)"/>
        <path id="DejaVuSans-30" d="M 2034 4250 
Q 1547 4250 1301 3770 
Q 1056 3291 1056 2328 
Q 1056 1369 1301 889 
Q 1547 409 2034 409 
Q 2525 409 2770 889 
Q 3016 1369 3016 2328 
Q 3016 3291 2770 3770 
Q 2525 4250 2034 4250 
z
M 2034 4750 
Q 2819 4750 3233 4129 
Q 3647 3509 3647 2328 
Q 3647 1150 3233 529 
Q 2819 -91 2034 -91 
Q 1250 -91 836 529 
Q 422 1150 422 2328 
Q 422 3509 836 4129 
Q 1250 4750 2034 4750 
z
" transform="scale(0.015625)"/>
       </defs>
       <use xlink:href="#DejaVuSans-36"/>
       <use xlink:href="#DejaVuSans-30" x="63.623047"/>
      </g>
     </g>
    </g>
    <g id="ytick_3">
     <g id="line2d_5">
      <g>
       <use xlink:href="#mbf233e9897" x="44.474375" y="278.539683" style="stroke: #000000; stroke-width: 0.8"/>
      </g>
     </g>
     <g id="text_6">
      <!-- 62 -->
      <g transform="translate(24.749375 282.338902) scale(0.1 -0.1)">
       <defs>
        <path id="DejaVuSans-32" d="M 1228 531 
L 3431 531 
L 3431 0 
L 469 0 
L 469 531 
Q 828 903 1448 1529 
Q 2069 2156 2228 2338 
Q 2531 2678 2651 2914 
Q 2772 3150 2772 3378 
Q 2772 3750 2511 3984 
Q 2250 4219 1831 4219 
Q 1534 4219 1204 4116 
Q 875 4013 500 3803 
L 500 4441 
Q 881 4594 1212 4672 
Q 1544 4750 1819 4750 
Q 2544 4750 2975 4387 
Q 3406 4025 3406 3419 
Q 3406 3131 3298 2873 
Q 3191 2616 2906 2266 
Q 2828 2175 2409 1742 
Q 1991 1309 1228 531 
z
" transform="scale(0.015625)"/>
       </defs>
       <use xlink:href="#DejaVuSans-36"/>
       <use xlink:href="#DejaVuSans-32" x="63.623047"/>
      </g>
     </g>
    </g>
    <g id="ytick_4">
     <g id="line2d_6">
      <g>
       <use xlink:href="#mbf233e9897" x="44.474375" y="230.820535" style="stroke: #000000; stroke-width: 0.8"/>
      </g>
     </g>
     <g id="text_7">
      <!-- 64 -->
      <g transform="translate(24.749375 234.619754) scale(0.1 -0.1)">
       <defs>
        <path id="DejaVuSans-34" d="M 2419 4116 
L 825 1625 
L 2419 1625 
L 2419 4116 
z
M 2253 4666 
L 3047 4666 
L 3047 1625 
L 3713 1625 
L 3713 1100 
L 3047 1100 
L 3047 0 
L 2419 0 
L 2419 1100 
L 313 1100 
L 313 1709 
L 2253 4666 
z
" transform="scale(0.015625)"/>
       </defs>
       <use xlink:href="#DejaVuSans-36"/>
       <use xlink:href="#DejaVuSans-34" x="63.623047"/>
      </g>
     </g>
    </g>
    <g id="ytick_5">
     <g id="line2d_7">
      <g>
       <use xlink:href="#mbf233e9897" x="44.474375" y="183.101387" style="stroke: #000000; stroke-width: 0.8"/>
      </g>
     </g>
     <g id="text_8">
      <!-- 66 -->
      <g transform="translate(24.749375 186.900606) scale(0.1 -0.1)">
       <use xlink:href="#DejaVuSans-36"/>
       <use xlink:href="#DejaVuSans-36" x="63.623047"/>
      </g>
     </g>
    </g>
    <g id="ytick_6">
     <g id="line2d_8">
      <g>
       <use xlink:href="#mbf233e9897" x="44.474375" y="135.382239" style="stroke: #000000; stroke-width: 0.8"/>
      </g>
     </g>
     <g id="text_9">
      <!-- 68 -->
      <g transform="translate(24.749375 139.181458) scale(0.1 -0.1)">
       <use xlink:href="#DejaVuSans-36"/>
       <use xlink:href="#DejaVuSans-38" x="63.623047"/>
      </g>
     </g>
    </g>
    <g id="ytick_7">
     <g id="line2d_9">
      <g>
       <use xlink:href="#mbf233e9897" x="44.474375" y="87.663091" style="stroke: #000000; stroke-width: 0.8"/>
      </g>
     </g>
     <g id="text_10">
      <!-- 70 -->
      <g transform="translate(24.749375 91.46231) scale(0.1 -0.1)">
       <defs>
        <path id="DejaVuSans-37" d="M 525 4666 
L 3525 4666 
L 3525 4397 
L 1831 0 
L 1172 0 
L 2766 4134 
L 525 4134 
L 525 4666 
z
" transform="scale(0.015625)"/>
       </defs>
       <use xlink:href="#DejaVuSans-37"/>
       <use xlink:href="#DejaVuSans-30" x="63.623047"/>
      </g>
     </g>
    </g>
    <g id="ytick_8">
     <g id="line2d_10">
      <g>
       <use xlink:href="#mbf233e9897" x="44.474375" y="39.943943" style="stroke: #000000; stroke-width: 0.8"/>
      </g>
     </g>
     <g id="text_11">
      <!-- 72 -->
      <g transform="translate(24.749375 43.743162) scale(0.1 -0.1)">
       <use xlink:href="#DejaVuSans-37"/>
       <use xlink:href="#DejaVuSans-32" x="63.623047"/>
      </g>
     </g>
    </g>
    <g id="text_12">
     <!-- Mean Accuracy (%) -->
     <g transform="translate(17.837813 286.992344) rotate(-90) scale(0.14 -0.14)">
      <defs>
       <path id="DejaVuSans-4d" d="M 628 4666 
L 1569 4666 
L 2759 1491 
L 3956 4666 
L 4897 4666 
L 4897 0 
L 4281 0 
L 4281 4097 
L 3078 897 
L 2444 897 
L 1241 4097 
L 1241 0 
L 628 0 
L 628 4666 
z
" transform="scale(0.015625)"/>
       <path id="DejaVuSans-65" d="M 3597 1894 
L 3597 1613 
L 953 1613 
Q 991 1019 1311 708 
Q 1631 397 2203 397 
Q 2534 397 2845 478 
Q 3156 559 3463 722 
L 3463 178 
Q 3153 47 2828 -22 
Q 2503 -91 2169 -91 
Q 1331 -91 842 396 
Q 353 884 353 1716 
Q 353 2575 817 3079 
Q 1281 3584 2069 3584 
Q 2775 3584 3186 3129 
Q 3597 2675 3597 1894 
z
M 3022 2063 
Q 3016 2534 2758 2815 
Q 2500 3097 2075 3097 
Q 1594 3097 1305 2825 
Q 1016 2553 972 2059 
L 3022 2063 
z
" transform="scale(0.015625)"/>
       <path id="DejaVuSans-6e" d="M 3513 2113 
L 3513 0 
L 2938 0 
L 2938 2094 
Q 2938 2591 2744 2837 
Q 2550 3084 2163 3084 
Q 1697 3084 1428 2787 
Q 1159 2491 1159 1978 
L 1159 0 
L 581 0 
L 581 3500 
L 1159 3500 
L 1159 2956 
Q 1366 3272 1645 3428 
Q 1925 3584 2291 3584 
Q 2894 3584 3203 3211 
Q 3513 2838 3513 2113 
z
" transform="scale(0.015625)"/>
       <path id="DejaVuSans-20" transform="scale(0.015625)"/>
       <path id="DejaVuSans-41" d="M 2188 4044 
L 1331 1722 
L 3047 1722 
L 2188 4044 
z
M 1831 4666 
L 2547 4666 
L 4325 0 
L 3669 0 
L 3244 1197 
L 1141 1197 
L 716 0 
L 50 0 
L 1831 4666 
z
" transform="scale(0.015625)"/>
       <path id="DejaVuSans-63" d="M 3122 3366 
L 3122 2828 
Q 2878 2963 2633 3030 
Q 2388 3097 2138 3097 
Q 1578 3097 1268 2742 
Q 959 2388 959 1747 
Q 959 1106 1268 751 
Q 1578 397 2138 397 
Q 2388 397 2633 464 
Q 2878 531 3122 666 
L 3122 134 
Q 2881 22 2623 -34 
Q 2366 -91 2075 -91 
Q 1284 -91 818 406 
Q 353 903 353 1747 
Q 353 2603 823 3093 
Q 1294 3584 2113 3584 
Q 2378 3584 2631 3529 
Q 2884 3475 3122 3366 
z
" transform="scale(0.015625)"/>
       <path id="DejaVuSans-79" d="M 2059 -325 
Q 1816 -950 1584 -1140 
Q 1353 -1331 966 -1331 
L 506 -1331 
L 506 -850 
L 844 -850 
Q 1081 -850 1212 -737 
Q 1344 -625 1503 -206 
L 1606 56 
L 191 3500 
L 800 3500 
L 1894 763 
L 2988 3500 
L 3597 3500 
L 2059 -325 
z
" transform="scale(0.015625)"/>
       <path id="DejaVuSans-28" d="M 1984 4856 
Q 1566 4138 1362 3434 
Q 1159 2731 1159 2009 
Q 1159 1288 1364 580 
Q 1569 -128 1984 -844 
L 1484 -844 
Q 1016 -109 783 600 
Q 550 1309 550 2009 
Q 550 2706 781 3412 
Q 1013 4119 1484 4856 
L 1984 4856 
z
" transform="scale(0.015625)"/>
       <path id="DejaVuSans-25" d="M 4653 2053 
Q 4381 2053 4226 1822 
Q 4072 1591 4072 1178 
Q 4072 772 4226 539 
Q 4381 306 4653 306 
Q 4919 306 5073 539 
Q 5228 772 5228 1178 
Q 5228 1588 5073 1820 
Q 4919 2053 4653 2053 
z
M 4653 2450 
Q 5147 2450 5437 2106 
Q 5728 1763 5728 1178 
Q 5728 594 5436 251 
Q 5144 -91 4653 -91 
Q 4153 -91 3862 251 
Q 3572 594 3572 1178 
Q 3572 1766 3864 2108 
Q 4156 2450 4653 2450 
z
M 1428 4353 
Q 1159 4353 1004 4120 
Q 850 3888 850 3481 
Q 850 3069 1003 2837 
Q 1156 2606 1428 2606 
Q 1700 2606 1854 2837 
Q 2009 3069 2009 3481 
Q 2009 3884 1853 4118 
Q 1697 4353 1428 4353 
z
M 4250 4750 
L 4750 4750 
L 1831 -91 
L 1331 -91 
L 4250 4750 
z
M 1428 4750 
Q 1922 4750 2215 4408 
Q 2509 4066 2509 3481 
Q 2509 2891 2217 2550 
Q 1925 2209 1428 2209 
Q 931 2209 642 2551 
Q 353 2894 353 3481 
Q 353 4063 643 4406 
Q 934 4750 1428 4750 
z
" transform="scale(0.015625)"/>
       <path id="DejaVuSans-29" d="M 513 4856 
L 1013 4856 
Q 1481 4119 1714 3412 
Q 1947 2706 1947 2009 
Q 1947 1309 1714 600 
Q 1481 -109 1013 -844 
L 513 -844 
Q 928 -128 1133 580 
Q 1338 1288 1338 2009 
Q 1338 2731 1133 3434 
Q 928 4138 513 4856 
z
" transform="scale(0.015625)"/>
      </defs>
      <use xlink:href="#DejaVuSans-4d"/>
      <use xlink:href="#DejaVuSans-65" x="86.279297"/>
      <use xlink:href="#DejaVuSans-61" x="147.802734"/>
      <use xlink:href="#DejaVuSans-6e" x="209.082031"/>
      <use xlink:href="#DejaVuSans-20" x="272.460938"/>
      <use xlink:href="#DejaVuSans-41" x="304.248047"/>
      <use xlink:href="#DejaVuSans-63" x="370.90625"/>
      <use xlink:href="#DejaVuSans-63" x="425.886719"/>
      <use xlink:href="#DejaVuSans-75" x="480.867188"/>
      <use xlink:href="#DejaVuSans-72" x="544.246094"/>
      <use xlink:href="#DejaVuSans-61" x="585.359375"/>
      <use xlink:href="#DejaVuSans-63" x="646.638672"/>
      <use xlink:href="#DejaVuSans-79" x="701.619141"/>
      <use xlink:href="#DejaVuSans-20" x="760.798828"/>
      <use xlink:href="#DejaVuSans-28" x="792.585938"/>
      <use xlink:href="#DejaVuSans-25" x="831.599609"/>
      <use xlink:href="#DejaVuSans-29" x="926.619141"/>
     </g>
    </g>
   </g>
   <g id="patch_3">
    <path d="M 44.474375 413.4375 
L 44.474375 25.3575 
" style="fill: none; stroke: #000000; stroke-width: 0.8; stroke-linejoin: miter; stroke-linecap: square"/>
   </g>
   <g id="patch_4">
    <path d="M 435.074375 413.4375 
L 435.074375 25.3575 
" style="fill: none; stroke: #000000; stroke-width: 0.8; stroke-linejoin: miter; stroke-linecap: square"/>
   </g>
   <g id="patch_5">
    <path d="M 44.474375 413.4375 
L 435.074375 413.4375 
" style="fill: none; stroke: #000000; stroke-width: 0.8; stroke-linejoin: miter; stroke-linecap: square"/>
   </g>
   <g id="patch_6">
    <path d="M 44.474375 25.3575 
L 435.074375 25.3575 
" style="fill: none; stroke: #000000; stroke-width: 0.8; stroke-linejoin: miter; stroke-linecap: square"/>
   </g>
   <g id="PathCollection_1">
    <defs>
     <path id="mab537ad9af" d="M 0 3 
C 0.795609 3 1.55874 2.683901 2.12132 2.12132 
C 2.683901 1.55874 3 0.795609 3 0 
C 3 -0.795609 2.683901 -1.55874 2.12132 -2.12132 
C 1.55874 -2.683901 0.795609 -3 0 -3 
C -0.795609 -3 -1.55874 -2.683901 -2.12132 -2.12132 
C -2.683901 -1.55874 -3 -0.795609 -3 0 
C -3 0.795609 -2.683901 1.55874 -2.12132 2.12132 
C -1.55874 2.683901 -0.795609 3 0 3 
z
" style="stroke: #1405eb; stroke-opacity: 0.8"/>
    </defs>
    <g clip-path="url(#p6156dabff7)">
     <use xlink:href="#mab537ad9af" x="124.744631" y="166.882127" style="fill: #1405eb; fill-opacity: 0.8; stroke: #1405eb; stroke-opacity: 0.8"/>
     <use xlink:href="#mab537ad9af" x="123.921135" y="333.023658" style="fill: #1405eb; fill-opacity: 0.8; stroke: #1405eb; stroke-opacity: 0.8"/>
     <use xlink:href="#mab537ad9af" x="121.799436" y="309.774886" style="fill: #1405eb; fill-opacity: 0.8; stroke: #1405eb; stroke-opacity: 0.8"/>
     <use xlink:href="#mab537ad9af" x="123.083701" y="305.339301" style="fill: #1405eb; fill-opacity: 0.8; stroke: #1405eb; stroke-opacity: 0.8"/>
     <use xlink:href="#mab537ad9af" x="119.576799" y="214.715629" style="fill: #1405eb; fill-opacity: 0.8; stroke: #1405eb; stroke-opacity: 0.8"/>
     <use xlink:href="#mab537ad9af" x="106.263128" y="144.476711" style="fill: #1405eb; fill-opacity: 0.8; stroke: #1405eb; stroke-opacity: 0.8"/>
     <use xlink:href="#mab537ad9af" x="124.675222" y="259.91877" style="fill: #1405eb; fill-opacity: 0.8; stroke: #1405eb; stroke-opacity: 0.8"/>
     <use xlink:href="#mab537ad9af" x="123.048776" y="212.992066" style="fill: #1405eb; fill-opacity: 0.8; stroke: #1405eb; stroke-opacity: 0.8"/>
     <use xlink:href="#mab537ad9af" x="100.797389" y="310.196374" style="fill: #1405eb; fill-opacity: 0.8; stroke: #1405eb; stroke-opacity: 0.8"/>
     <use xlink:href="#mab537ad9af" x="105.259187" y="227.699747" style="fill: #1405eb; fill-opacity: 0.8; stroke: #1405eb; stroke-opacity: 0.8"/>
     <use xlink:href="#mab537ad9af" x="101.732759" y="69.996286" style="fill: #1405eb; fill-opacity: 0.8; stroke: #1405eb; stroke-opacity: 0.8"/>
     <use xlink:href="#mab537ad9af" x="112.127958" y="98.57773" style="fill: #1405eb; fill-opacity: 0.8; stroke: #1405eb; stroke-opacity: 0.8"/>
     <use xlink:href="#mab537ad9af" x="109.441208" y="204.714278" style="fill: #1405eb; fill-opacity: 0.8; stroke: #1405eb; stroke-opacity: 0.8"/>
     <use xlink:href="#mab537ad9af" x="120.51878" y="264.071286" style="fill: #1405eb; fill-opacity: 0.8; stroke: #1405eb; stroke-opacity: 0.8"/>
     <use xlink:href="#mab537ad9af" x="103.6065" y="300.500794" style="fill: #1405eb; fill-opacity: 0.8; stroke: #1405eb; stroke-opacity: 0.8"/>
     <use xlink:href="#mab537ad9af" x="119.438583" y="277.739557" style="fill: #1405eb; fill-opacity: 0.8; stroke: #1405eb; stroke-opacity: 0.8"/>
     <use xlink:href="#mab537ad9af" x="111.236252" y="339.297625" style="fill: #1405eb; fill-opacity: 0.8; stroke: #1405eb; stroke-opacity: 0.8"/>
     <use xlink:href="#mab537ad9af" x="116.006388" y="133.039616" style="fill: #1405eb; fill-opacity: 0.8; stroke: #1405eb; stroke-opacity: 0.8"/>
     <use xlink:href="#mab537ad9af" x="115.288899" y="199.518108" style="fill: #1405eb; fill-opacity: 0.8; stroke: #1405eb; stroke-opacity: 0.8"/>
     <use xlink:href="#mab537ad9af" x="119.608758" y="278.538293" style="fill: #1405eb; fill-opacity: 0.8; stroke: #1405eb; stroke-opacity: 0.8"/>
     <use xlink:href="#mab537ad9af" x="101.309488" y="234.129359" style="fill: #1405eb; fill-opacity: 0.8; stroke: #1405eb; stroke-opacity: 0.8"/>
     <use xlink:href="#mab537ad9af" x="116.147423" y="124.240196" style="fill: #1405eb; fill-opacity: 0.8; stroke: #1405eb; stroke-opacity: 0.8"/>
     <use xlink:href="#mab537ad9af" x="101.966231" y="42.9975" style="fill: #1405eb; fill-opacity: 0.8; stroke: #1405eb; stroke-opacity: 0.8"/>
     <use xlink:href="#mab537ad9af" x="116.655518" y="233.819954" style="fill: #1405eb; fill-opacity: 0.8; stroke: #1405eb; stroke-opacity: 0.8"/>
     <use xlink:href="#mab537ad9af" x="106.088667" y="50.313073" style="fill: #1405eb; fill-opacity: 0.8; stroke: #1405eb; stroke-opacity: 0.8"/>
     <use xlink:href="#mab537ad9af" x="125.15799" y="162.356485" style="fill: #1405eb; fill-opacity: 0.8; stroke: #1405eb; stroke-opacity: 0.8"/>
    </g>
   </g>
   <g id="PathCollection_2">
    <defs>
     <path id="m8d3cdbdcc0" d="M 0 3 
C 0.795609 3 1.55874 2.683901 2.12132 2.12132 
C 2.683901 1.55874 3 0.795609 3 0 
C 3 -0.795609 2.683901 -1.55874 2.12132 -2.12132 
C 1.55874 -2.683901 0.795609 -3 0 -3 
C -0.795609 -3 -1.55874 -2.683901 -2.12132 -2.12132 
C -2.683901 -1.55874 -3 -0.795609 -3 0 
C -3 0.795609 -2.683901 1.55874 -2.12132 2.12132 
C -1.55874 2.683901 -0.795609 3 0 3 
z
" style="stroke: #f28211; stroke-opacity: 0.8"/>
    </defs>
    <g clip-path="url(#p6156dabff7)">
     <use xlink:href="#m8d3cdbdcc0" x="372.910019" y="176.006545" style="fill: #f28211; fill-opacity: 0.8; stroke: #f28211; stroke-opacity: 0.8"/>
     <use xlink:href="#m8d3cdbdcc0" x="354.517678" y="241.434028" style="fill: #f28211; fill-opacity: 0.8; stroke: #f28211; stroke-opacity: 0.8"/>
     <use xlink:href="#m8d3cdbdcc0" x="373.309903" y="284.19408" style="fill: #f28211; fill-opacity: 0.8; stroke: #f28211; stroke-opacity: 0.8"/>
     <use xlink:href="#m8d3cdbdcc0" x="361.372446" y="150.958137" style="fill: #f28211; fill-opacity: 0.8; stroke: #f28211; stroke-opacity: 0.8"/>
     <use xlink:href="#m8d3cdbdcc0" x="376.58392" y="208.513533" style="fill: #f28211; fill-opacity: 0.8; stroke: #f28211; stroke-opacity: 0.8"/>
     <use xlink:href="#m8d3cdbdcc0" x="365.278331" y="277.833794" style="fill: #f28211; fill-opacity: 0.8; stroke: #f28211; stroke-opacity: 0.8"/>
     <use xlink:href="#m8d3cdbdcc0" x="365.199854" y="245.927199" style="fill: #f28211; fill-opacity: 0.8; stroke: #f28211; stroke-opacity: 0.8"/>
     <use xlink:href="#m8d3cdbdcc0" x="375.672021" y="264.105702" style="fill: #f28211; fill-opacity: 0.8; stroke: #f28211; stroke-opacity: 0.8"/>
     <use xlink:href="#m8d3cdbdcc0" x="360.994771" y="104.1535" style="fill: #f28211; fill-opacity: 0.8; stroke: #f28211; stroke-opacity: 0.8"/>
     <use xlink:href="#m8d3cdbdcc0" x="367.245177" y="127.985317" style="fill: #f28211; fill-opacity: 0.8; stroke: #f28211; stroke-opacity: 0.8"/>
     <use xlink:href="#m8d3cdbdcc0" x="378.292931" y="394.224867" style="fill: #f28211; fill-opacity: 0.8; stroke: #f28211; stroke-opacity: 0.8"/>
     <use xlink:href="#m8d3cdbdcc0" x="371.695425" y="206.0452" style="fill: #f28211; fill-opacity: 0.8; stroke: #f28211; stroke-opacity: 0.8"/>
     <use xlink:href="#m8d3cdbdcc0" x="359.27072" y="335.273208" style="fill: #f28211; fill-opacity: 0.8; stroke: #f28211; stroke-opacity: 0.8"/>
     <use xlink:href="#m8d3cdbdcc0" x="370.37566" y="182.179724" style="fill: #f28211; fill-opacity: 0.8; stroke: #f28211; stroke-opacity: 0.8"/>
     <use xlink:href="#m8d3cdbdcc0" x="360.121402" y="222.988539" style="fill: #f28211; fill-opacity: 0.8; stroke: #f28211; stroke-opacity: 0.8"/>
     <use xlink:href="#m8d3cdbdcc0" x="364.16809" y="206.944534" style="fill: #f28211; fill-opacity: 0.8; stroke: #f28211; stroke-opacity: 0.8"/>
     <use xlink:href="#m8d3cdbdcc0" x="355.010669" y="356.237402" style="fill: #f28211; fill-opacity: 0.8; stroke: #f28211; stroke-opacity: 0.8"/>
     <use xlink:href="#m8d3cdbdcc0" x="368.788273" y="290.315178" style="fill: #f28211; fill-opacity: 0.8; stroke: #f28211; stroke-opacity: 0.8"/>
     <use xlink:href="#m8d3cdbdcc0" x="362.515867" y="377.805918" style="fill: #f28211; fill-opacity: 0.8; stroke: #f28211; stroke-opacity: 0.8"/>
     <use xlink:href="#m8d3cdbdcc0" x="358.420428" y="212.411566" style="fill: #f28211; fill-opacity: 0.8; stroke: #f28211; stroke-opacity: 0.8"/>
     <use xlink:href="#m8d3cdbdcc0" x="378.328467" y="206.99988" style="fill: #f28211; fill-opacity: 0.8; stroke: #f28211; stroke-opacity: 0.8"/>
     <use xlink:href="#m8d3cdbdcc0" x="375.686895" y="395.7975" style="fill: #f28211; fill-opacity: 0.8; stroke: #f28211; stroke-opacity: 0.8"/>
     <use xlink:href="#m8d3cdbdcc0" x="355.739665" y="224.069349" style="fill: #f28211; fill-opacity: 0.8; stroke: #f28211; stroke-opacity: 0.8"/>
     <use xlink:href="#m8d3cdbdcc0" x="369.599691" y="108.454538" style="fill: #f28211; fill-opacity: 0.8; stroke: #f28211; stroke-opacity: 0.8"/>
    </g>
   </g>
   <g id="text_13">
    <!-- Accuracy of Last 0.25 Data Ctrl and Cask Groups -->
    <g transform="translate(44.528125 19.3575) scale(0.16 -0.16)">
     <defs>
      <path id="DejaVuSans-66" d="M 2375 4863 
L 2375 4384 
L 1825 4384 
Q 1516 4384 1395 4259 
Q 1275 4134 1275 3809 
L 1275 3500 
L 2222 3500 
L 2222 3053 
L 1275 3053 
L 1275 0 
L 697 0 
L 697 3053 
L 147 3053 
L 147 3500 
L 697 3500 
L 697 3744 
Q 697 4328 969 4595 
Q 1241 4863 1831 4863 
L 2375 4863 
z
" transform="scale(0.015625)"/>
      <path id="DejaVuSans-4c" d="M 628 4666 
L 1259 4666 
L 1259 531 
L 3531 531 
L 3531 0 
L 628 0 
L 628 4666 
z
" transform="scale(0.015625)"/>
      <path id="DejaVuSans-2e" d="M 684 794 
L 1344 794 
L 1344 0 
L 684 0 
L 684 794 
z
" transform="scale(0.015625)"/>
      <path id="DejaVuSans-44" d="M 1259 4147 
L 1259 519 
L 2022 519 
Q 2988 519 3436 956 
Q 3884 1394 3884 2338 
Q 3884 3275 3436 3711 
Q 2988 4147 2022 4147 
L 1259 4147 
z
M 628 4666 
L 1925 4666 
Q 3281 4666 3915 4102 
Q 4550 3538 4550 2338 
Q 4550 1131 3912 565 
Q 3275 0 1925 0 
L 628 0 
L 628 4666 
z
" transform="scale(0.015625)"/>
      <path id="DejaVuSans-64" d="M 2906 2969 
L 2906 4863 
L 3481 4863 
L 3481 0 
L 2906 0 
L 2906 525 
Q 2725 213 2448 61 
Q 2172 -91 1784 -91 
Q 1150 -91 751 415 
Q 353 922 353 1747 
Q 353 2572 751 3078 
Q 1150 3584 1784 3584 
Q 2172 3584 2448 3432 
Q 2725 3281 2906 2969 
z
M 947 1747 
Q 947 1113 1208 752 
Q 1469 391 1925 391 
Q 2381 391 2643 752 
Q 2906 1113 2906 1747 
Q 2906 2381 2643 2742 
Q 2381 3103 1925 3103 
Q 1469 3103 1208 2742 
Q 947 2381 947 1747 
z
" transform="scale(0.015625)"/>
     </defs>
     <use xlink:href="#DejaVuSans-41"/>
     <use xlink:href="#DejaVuSans-63" x="66.658203"/>
     <use xlink:href="#DejaVuSans-63" x="121.638672"/>
     <use xlink:href="#DejaVuSans-75" x="176.619141"/>
     <use xlink:href="#DejaVuSans-72" x="239.998047"/>
     <use xlink:href="#DejaVuSans-61" x="281.111328"/>
     <use xlink:href="#DejaVuSans-63" x="342.390625"/>
     <use xlink:href="#DejaVuSans-79" x="397.371094"/>
     <use xlink:href="#DejaVuSans-20" x="456.550781"/>
     <use xlink:href="#DejaVuSans-6f" x="488.337891"/>
     <use xlink:href="#DejaVuSans-66" x="549.519531"/>
     <use xlink:href="#DejaVuSans-20" x="584.724609"/>
     <use xlink:href="#DejaVuSans-4c" x="616.511719"/>
     <use xlink:href="#DejaVuSans-61" x="672.224609"/>
     <use xlink:href="#DejaVuSans-73" x="733.503906"/>
     <use xlink:href="#DejaVuSans-74" x="785.603516"/>
     <use xlink:href="#DejaVuSans-20" x="824.8125"/>
     <use xlink:href="#DejaVuSans-30" x="856.599609"/>
     <use xlink:href="#DejaVuSans-2e" x="920.222656"/>
     <use xlink:href="#DejaVuSans-32" x="952.009766"/>
     <use xlink:href="#DejaVuSans-35" x="1015.632812"/>
     <use xlink:href="#DejaVuSans-20" x="1079.255859"/>
     <use xlink:href="#DejaVuSans-44" x="1111.042969"/>
     <use xlink:href="#DejaVuSans-61" x="1188.044922"/>
     <use xlink:href="#DejaVuSans-74" x="1249.324219"/>
     <use xlink:href="#DejaVuSans-61" x="1288.533203"/>
     <use xlink:href="#DejaVuSans-20" x="1349.8125"/>
     <use xlink:href="#DejaVuSans-43" x="1381.599609"/>
     <use xlink:href="#DejaVuSans-74" x="1451.423828"/>
     <use xlink:href="#DejaVuSans-72" x="1490.632812"/>
     <use xlink:href="#DejaVuSans-6c" x="1531.746094"/>
     <use xlink:href="#DejaVuSans-20" x="1559.529297"/>
     <use xlink:href="#DejaVuSans-61" x="1591.316406"/>
     <use xlink:href="#DejaVuSans-6e" x="1652.595703"/>
     <use xlink:href="#DejaVuSans-64" x="1715.974609"/>
     <use xlink:href="#DejaVuSans-20" x="1779.451172"/>
     <use xlink:href="#DejaVuSans-43" x="1811.238281"/>
     <use xlink:href="#DejaVuSans-61" x="1881.0625"/>
     <use xlink:href="#DejaVuSans-73" x="1942.341797"/>
     <use xlink:href="#DejaVuSans-6b" x="1994.441406"/>
     <use xlink:href="#DejaVuSans-20" x="2052.351562"/>
     <use xlink:href="#DejaVuSans-47" x="2084.138672"/>
     <use xlink:href="#DejaVuSans-72" x="2161.628906"/>
     <use xlink:href="#DejaVuSans-6f" x="2200.492188"/>
     <use xlink:href="#DejaVuSans-75" x="2261.673828"/>
     <use xlink:href="#DejaVuSans-70" x="2325.052734"/>
     <use xlink:href="#DejaVuSans-73" x="2388.529297"/>
    </g>
   </g>
   <g id="legend_1">
    <g id="patch_7">
     <path d="M 327.18375 62.71375 
L 428.074375 62.71375 
Q 430.074375 62.71375 430.074375 60.71375 
L 430.074375 32.3575 
Q 430.074375 30.3575 428.074375 30.3575 
L 327.18375 30.3575 
Q 325.18375 30.3575 325.18375 32.3575 
L 325.18375 60.71375 
Q 325.18375 62.71375 327.18375 62.71375 
z
" style="fill: #ffffff; opacity: 0.8; stroke: #cccccc; stroke-linejoin: miter"/>
    </g>
    <g id="patch_8">
     <path d="M 329.18375 41.955938 
L 349.18375 41.955938 
L 349.18375 34.955938 
L 329.18375 34.955938 
z
" style="fill: #add8e6; opacity: 0.8; stroke: #add8e6; stroke-linejoin: miter"/>
    </g>
    <g id="text_14">
     <!-- Ctrl (n = 26) -->
     <g transform="translate(357.18375 41.955938) scale(0.1 -0.1)">
      <defs>
       <path id="DejaVuSans-3d" d="M 678 2906 
L 4684 2906 
L 4684 2381 
L 678 2381 
L 678 2906 
z
M 678 1631 
L 4684 1631 
L 4684 1100 
L 678 1100 
L 678 1631 
z
" transform="scale(0.015625)"/>
      </defs>
      <use xlink:href="#DejaVuSans-43"/>
      <use xlink:href="#DejaVuSans-74" x="69.824219"/>
      <use xlink:href="#DejaVuSans-72" x="109.033203"/>
      <use xlink:href="#DejaVuSans-6c" x="150.146484"/>
      <use xlink:href="#DejaVuSans-20" x="177.929688"/>
      <use xlink:href="#DejaVuSans-28" x="209.716797"/>
      <use xlink:href="#DejaVuSans-6e" x="248.730469"/>
      <use xlink:href="#DejaVuSans-20" x="312.109375"/>
      <use xlink:href="#DejaVuSans-3d" x="343.896484"/>
      <use xlink:href="#DejaVuSans-20" x="427.685547"/>
      <use xlink:href="#DejaVuSans-32" x="459.472656"/>
      <use xlink:href="#DejaVuSans-36" x="523.095703"/>
      <use xlink:href="#DejaVuSans-29" x="586.71875"/>
     </g>
    </g>
    <g id="patch_9">
     <path d="M 329.18375 56.634063 
L 349.18375 56.634063 
L 349.18375 49.634063 
L 329.18375 49.634063 
z
" style="fill: #ffff00; opacity: 0.8; stroke: #ffff00; stroke-linejoin: miter"/>
    </g>
    <g id="text_15">
     <!-- Cask (n = 24) -->
     <g transform="translate(357.18375 56.634063) scale(0.1 -0.1)">
      <use xlink:href="#DejaVuSans-43"/>
      <use xlink:href="#DejaVuSans-61" x="69.824219"/>
      <use xlink:href="#DejaVuSans-73" x="131.103516"/>
      <use xlink:href="#DejaVuSans-6b" x="183.203125"/>
      <use xlink:href="#DejaVuSans-20" x="241.113281"/>
      <use xlink:href="#DejaVuSans-28" x="272.900391"/>
      <use xlink:href="#DejaVuSans-6e" x="311.914062"/>
      <use xlink:href="#DejaVuSans-20" x="375.292969"/>
      <use xlink:href="#DejaVuSans-3d" x="407.080078"/>
      <use xlink:href="#DejaVuSans-20" x="490.869141"/>
      <use xlink:href="#DejaVuSans-32" x="522.65625"/>
      <use xlink:href="#DejaVuSans-34" x="586.279297"/>
      <use xlink:href="#DejaVuSans-29" x="649.902344"/>
     </g>
    </g>
   </g>
  </g>
 </g>
 <defs>
  <clipPath id="p6156dabff7">
   <rect x="44.474375" y="25.3575" width="390.6" height="388.08"/>
  </clipPath>
 </defs>
</svg>
