<?xml version="1.0" encoding="utf-8" standalone="no"?>
<!DOCTYPE svg PUBLIC "-//W3C//DTD SVG 1.1//EN"
  "http://www.w3.org/Graphics/SVG/1.1/DTD/svg11.dtd">
<svg xmlns:xlink="http://www.w3.org/1999/xlink" width="442.274375pt" height="454.865pt" viewBox="0 0 442.274375 454.865" xmlns="http://www.w3.org/2000/svg" version="1.1">
 <metadata>
  <rdf:RDF xmlns:dc="http://purl.org/dc/elements/1.1/" xmlns:cc="http://creativecommons.org/ns#" xmlns:rdf="http://www.w3.org/1999/02/22-rdf-syntax-ns#">
   <cc:Work>
    <dc:type rdf:resource="http://purl.org/dc/dcmitype/StillImage"/>
    <dc:date>2025-07-29T17:27:58.681928</dc:date>
    <dc:format>image/svg+xml</dc:format>
    <dc:creator>
     <cc:Agent>
      <dc:title>Matplotlib v3.8.4, https://matplotlib.org/</dc:title>
     </cc:Agent>
    </dc:creator>
   </cc:Work>
  </rdf:RDF>
 </metadata>
 <defs>
  <style type="text/css">*{stroke-linejoin: round; stroke-linecap: butt}</style>
 </defs>
 <g id="figure_1">
  <g id="patch_1">
   <path d="M 0 454.865 
L 442.274375 454.865 
L 442.274375 0 
L 0 0 
z
" style="fill: #ffffff"/>
  </g>
  <g id="axes_1">
   <g id="patch_2">
    <path d="M 44.474375 413.4375 
L 435.074375 413.4375 
L 435.074375 25.3575 
L 44.474375 25.3575 
z
" style="fill: #ffffff"/>
   </g>
   <g id="PolyCollection_1">
    <defs>
     <path id="me0d57736b9" d="M 153.666926 -175.645114 
L 130.581824 -175.645114 
L 129.846657 -177.793897 
L 129.096357 -179.942679 
L 128.331417 -182.091462 
L 127.552201 -184.240244 
L 126.758976 -186.389027 
L 125.951957 -188.537809 
L 125.131353 -190.686592 
L 124.29742 -192.835375 
L 123.450513 -194.984157 
L 122.591143 -197.13294 
L 121.720024 -199.281722 
L 120.83812 -201.430505 
L 119.946674 -203.579287 
L 119.047242 -205.72807 
L 118.141706 -207.876852 
L 117.232281 -210.025635 
L 116.321507 -212.174417 
L 115.41224 -214.3232 
L 114.507626 -216.471982 
L 113.611068 -218.620765 
L 112.726195 -220.769547 
L 111.856814 -222.91833 
L 111.006868 -225.067112 
L 110.180391 -227.215895 
L 109.381456 -229.364677 
L 108.614128 -231.51346 
L 107.882417 -233.662243 
L 107.190232 -235.811025 
L 106.541333 -237.959808 
L 105.939287 -240.10859 
L 105.387427 -242.257373 
L 104.888808 -244.406155 
L 104.446171 -246.554938 
L 104.061903 -248.70372 
L 103.73801 -250.852503 
L 103.476083 -253.001285 
L 103.277279 -255.150068 
L 103.142304 -257.29885 
L 103.071406 -259.447633 
L 103.064375 -261.596415 
L 103.120558 -263.745198 
L 103.238876 -265.89398 
L 103.417857 -268.042763 
L 103.65568 -270.191545 
L 103.950222 -272.340328 
L 104.299112 -274.489111 
L 104.699798 -276.637893 
L 105.149602 -278.786676 
L 105.645786 -280.935458 
L 106.185605 -283.084241 
L 106.766357 -285.233023 
L 107.385423 -287.381806 
L 108.040291 -289.530588 
L 108.728571 -291.679371 
L 109.447995 -293.828153 
L 110.196398 -295.976936 
L 110.971698 -298.125718 
L 111.771851 -300.274501 
L 112.594812 -302.423283 
L 113.438482 -304.572066 
L 114.300658 -306.720848 
L 115.17899 -308.869631 
L 116.07094 -311.018413 
L 116.973753 -313.167196 
L 117.884441 -315.315979 
L 118.799786 -317.464761 
L 119.716351 -319.613544 
L 120.630515 -321.762326 
L 121.538517 -323.911109 
L 122.436518 -326.059891 
L 123.320667 -328.208674 
L 124.187183 -330.357456 
L 125.032432 -332.506239 
L 125.853009 -334.655021 
L 126.645816 -336.803804 
L 127.408129 -338.952586 
L 128.13766 -341.101369 
L 128.832604 -343.250151 
L 129.491673 -345.398934 
L 130.114114 -347.547716 
L 130.699712 -349.696499 
L 131.248781 -351.845281 
L 131.762138 -353.994064 
L 132.241063 -356.142847 
L 132.687257 -358.291629 
L 133.102778 -360.440412 
L 133.489984 -362.589194 
L 133.851461 -364.737977 
L 134.189955 -366.886759 
L 134.508299 -369.035542 
L 134.809345 -371.184324 
L 135.095895 -373.333107 
L 135.370639 -375.481889 
L 135.636101 -377.630672 
L 135.894583 -379.779454 
L 136.148128 -381.928237 
L 136.398483 -384.077019 
L 136.647076 -386.225802 
L 136.894999 -388.374584 
L 147.353751 -388.374584 
L 147.353751 -388.374584 
L 147.601674 -386.225802 
L 147.850267 -384.077019 
L 148.100622 -381.928237 
L 148.354167 -379.779454 
L 148.612649 -377.630672 
L 148.878111 -375.481889 
L 149.152855 -373.333107 
L 149.439405 -371.184324 
L 149.740451 -369.035542 
L 150.058795 -366.886759 
L 150.397289 -364.737977 
L 150.758766 -362.589194 
L 151.145972 -360.440412 
L 151.561493 -358.291629 
L 152.007687 -356.142847 
L 152.486612 -353.994064 
L 152.999969 -351.845281 
L 153.549038 -349.696499 
L 154.134636 -347.547716 
L 154.757077 -345.398934 
L 155.416146 -343.250151 
L 156.11109 -341.101369 
L 156.840621 -338.952586 
L 157.602934 -336.803804 
L 158.395741 -334.655021 
L 159.216318 -332.506239 
L 160.061567 -330.357456 
L 160.928083 -328.208674 
L 161.812232 -326.059891 
L 162.710233 -323.911109 
L 163.618235 -321.762326 
L 164.532399 -319.613544 
L 165.448964 -317.464761 
L 166.364309 -315.315979 
L 167.274997 -313.167196 
L 168.17781 -311.018413 
L 169.06976 -308.869631 
L 169.948092 -306.720848 
L 170.810268 -304.572066 
L 171.653938 -302.423283 
L 172.476899 -300.274501 
L 173.277052 -298.125718 
L 174.052352 -295.976936 
L 174.800755 -293.828153 
L 175.520179 -291.679371 
L 176.208459 -289.530588 
L 176.863327 -287.381806 
L 177.482393 -285.233023 
L 178.063145 -283.084241 
L 178.602964 -280.935458 
L 179.099148 -278.786676 
L 179.548952 -276.637893 
L 179.949638 -274.489111 
L 180.298528 -272.340328 
L 180.59307 -270.191545 
L 180.830893 -268.042763 
L 181.009874 -265.89398 
L 181.128192 -263.745198 
L 181.184375 -261.596415 
L 181.177344 -259.447633 
L 181.106446 -257.29885 
L 180.971471 -255.150068 
L 180.772667 -253.001285 
L 180.51074 -250.852503 
L 180.186847 -248.70372 
L 179.802579 -246.554938 
L 179.359942 -244.406155 
L 178.861323 -242.257373 
L 178.309463 -240.10859 
L 177.707417 -237.959808 
L 177.058518 -235.811025 
L 176.366333 -233.662243 
L 175.634622 -231.51346 
L 174.867294 -229.364677 
L 174.068359 -227.215895 
L 173.241882 -225.067112 
L 172.391936 -222.91833 
L 171.522555 -220.769547 
L 170.637682 -218.620765 
L 169.741124 -216.471982 
L 168.83651 -214.3232 
L 167.927243 -212.174417 
L 167.016469 -210.025635 
L 166.107044 -207.876852 
L 165.201508 -205.72807 
L 164.302076 -203.579287 
L 163.41063 -201.430505 
L 162.528726 -199.281722 
L 161.657607 -197.13294 
L 160.798237 -194.984157 
L 159.95133 -192.835375 
L 159.117397 -190.686592 
L 158.296793 -188.537809 
L 157.489774 -186.389027 
L 156.696549 -184.240244 
L 155.917333 -182.091462 
L 155.152393 -179.942679 
L 154.402093 -177.793897 
L 153.666926 -175.645114 
z
" style="stroke: #000000; stroke-opacity: 0.8"/>
    </defs>
    <g clip-path="url(#pb0153c20c5)">
     <use xlink:href="#me0d57736b9" x="0" y="454.865" style="fill: #add8e6; fill-opacity: 0.8; stroke: #000000; stroke-opacity: 0.8"/>
    </g>
   </g>
   <g id="PolyCollection_2">
    <defs>
     <path id="mdfe8e59d55" d="M 341.09944 -111.475132 
L 333.74931 -111.475132 
L 333.737649 -113.946395 
L 333.742896 -116.417658 
L 333.763125 -118.888921 
L 333.79579 -121.360185 
L 333.837742 -123.831448 
L 333.885261 -126.302711 
L 333.934098 -128.773974 
L 333.979536 -131.245238 
L 334.016455 -133.716501 
L 334.039413 -136.187764 
L 334.042731 -138.659027 
L 334.020588 -141.130291 
L 333.967118 -143.601554 
L 333.876521 -146.072817 
L 333.743165 -148.54408 
L 333.561698 -151.015344 
L 333.327157 -153.486607 
L 333.03508 -155.95787 
L 332.681607 -158.429133 
L 332.263581 -160.900397 
L 331.778641 -163.37166 
L 331.2253 -165.842923 
L 330.60301 -168.314186 
L 329.912215 -170.78545 
L 329.154373 -173.256713 
L 328.331968 -175.727976 
L 327.448485 -178.199239 
L 326.508363 -180.670503 
L 325.516928 -183.141766 
L 324.480285 -185.613029 
L 323.405199 -188.084292 
L 322.298944 -190.555556 
L 321.169148 -193.026819 
L 320.023609 -195.498082 
L 318.870124 -197.969345 
L 317.716308 -200.440609 
L 316.569427 -202.911872 
L 315.436247 -205.383135 
L 314.322907 -207.854398 
L 313.234816 -210.325662 
L 312.176591 -212.796925 
L 311.15202 -215.268188 
L 310.164068 -217.739451 
L 309.214914 -220.210715 
L 308.306017 -222.681978 
L 307.438214 -225.153241 
L 306.611824 -227.624504 
L 305.82678 -230.095768 
L 305.082749 -232.567031 
L 304.379255 -235.038294 
L 303.71579 -237.509557 
L 303.091899 -239.980821 
L 302.507245 -242.452084 
L 301.961646 -244.923347 
L 301.455082 -247.39461 
L 300.987673 -249.865874 
L 300.559629 -252.337137 
L 300.171183 -254.8084 
L 299.82251 -257.279663 
L 299.513631 -259.750927 
L 299.244326 -262.22219 
L 299.014056 -264.693453 
L 298.82189 -267.164716 
L 298.666473 -269.63598 
L 298.546009 -272.107243 
L 298.45828 -274.578506 
L 298.400701 -277.049769 
L 298.370409 -279.521032 
L 298.364375 -281.992296 
L 298.379551 -284.463559 
L 298.413028 -286.934822 
L 298.46221 -289.406085 
L 298.524985 -291.877349 
L 298.599892 -294.348612 
L 298.686265 -296.819875 
L 298.784357 -299.291138 
L 298.895419 -301.762402 
L 299.021748 -304.233665 
L 299.166681 -306.704928 
L 299.334539 -309.176191 
L 299.530531 -311.647455 
L 299.7606 -314.118718 
L 300.031233 -316.589981 
L 300.349233 -319.061244 
L 300.721468 -321.532508 
L 301.154598 -324.003771 
L 301.654801 -326.475034 
L 302.227501 -328.946297 
L 302.877121 -331.417561 
L 303.606856 -333.888824 
L 304.418492 -336.360087 
L 305.312265 -338.83135 
L 306.286777 -341.302614 
L 307.338967 -343.773877 
L 308.464138 -346.24514 
L 309.656038 -348.716403 
L 310.907001 -351.187667 
L 312.208122 -353.65893 
L 313.549479 -356.130193 
L 361.299271 -356.130193 
L 361.299271 -356.130193 
L 362.640628 -353.65893 
L 363.941749 -351.187667 
L 365.192712 -348.716403 
L 366.384612 -346.24514 
L 367.509783 -343.773877 
L 368.561973 -341.302614 
L 369.536485 -338.83135 
L 370.430258 -336.360087 
L 371.241894 -333.888824 
L 371.971629 -331.417561 
L 372.621249 -328.946297 
L 373.193949 -326.475034 
L 373.694152 -324.003771 
L 374.127282 -321.532508 
L 374.499517 -319.061244 
L 374.817517 -316.589981 
L 375.08815 -314.118718 
L 375.318219 -311.647455 
L 375.514211 -309.176191 
L 375.682069 -306.704928 
L 375.827002 -304.233665 
L 375.953331 -301.762402 
L 376.064393 -299.291138 
L 376.162485 -296.819875 
L 376.248858 -294.348612 
L 376.323765 -291.877349 
L 376.38654 -289.406085 
L 376.435722 -286.934822 
L 376.469199 -284.463559 
L 376.484375 -281.992296 
L 376.478341 -279.521032 
L 376.448049 -277.049769 
L 376.39047 -274.578506 
L 376.302741 -272.107243 
L 376.182277 -269.63598 
L 376.02686 -267.164716 
L 375.834694 -264.693453 
L 375.604424 -262.22219 
L 375.335119 -259.750927 
L 375.02624 -257.279663 
L 374.677567 -254.8084 
L 374.289121 -252.337137 
L 373.861077 -249.865874 
L 373.393668 -247.39461 
L 372.887104 -244.923347 
L 372.341505 -242.452084 
L 371.756851 -239.980821 
L 371.13296 -237.509557 
L 370.469495 -235.038294 
L 369.766001 -232.567031 
L 369.02197 -230.095768 
L 368.236926 -227.624504 
L 367.410536 -225.153241 
L 366.542733 -222.681978 
L 365.633836 -220.210715 
L 364.684682 -217.739451 
L 363.69673 -215.268188 
L 362.672159 -212.796925 
L 361.613934 -210.325662 
L 360.525843 -207.854398 
L 359.412503 -205.383135 
L 358.279323 -202.911872 
L 357.132442 -200.440609 
L 355.978626 -197.969345 
L 354.825141 -195.498082 
L 353.679602 -193.026819 
L 352.549806 -190.555556 
L 351.443551 -188.084292 
L 350.368465 -185.613029 
L 349.331822 -183.141766 
L 348.340387 -180.670503 
L 347.400265 -178.199239 
L 346.516782 -175.727976 
L 345.694377 -173.256713 
L 344.936535 -170.78545 
L 344.24574 -168.314186 
L 343.62345 -165.842923 
L 343.070109 -163.37166 
L 342.585169 -160.900397 
L 342.167143 -158.429133 
L 341.81367 -155.95787 
L 341.521593 -153.486607 
L 341.287052 -151.015344 
L 341.105585 -148.54408 
L 340.972229 -146.072817 
L 340.881632 -143.601554 
L 340.828162 -141.130291 
L 340.806019 -138.659027 
L 340.809337 -136.187764 
L 340.832295 -133.716501 
L 340.869214 -131.245238 
L 340.914652 -128.773974 
L 340.963489 -126.302711 
L 341.011008 -123.831448 
L 341.05296 -121.360185 
L 341.085625 -118.888921 
L 341.105854 -116.417658 
L 341.111101 -113.946395 
L 341.09944 -111.475132 
z
" style="stroke: #000000; stroke-opacity: 0.8"/>
    </defs>
    <g clip-path="url(#pb0153c20c5)">
     <use xlink:href="#mdfe8e59d55" x="0" y="454.865" style="fill: #ffff00; fill-opacity: 0.8; stroke: #000000; stroke-opacity: 0.8"/>
    </g>
   </g>
   <g id="matplotlib.axis_1">
    <g id="xtick_1">
     <g id="line2d_1">
      <defs>
       <path id="m26cec68d96" d="M 0 0 
L 0 3.5 
" style="stroke: #000000; stroke-width: 0.8"/>
      </defs>
      <g>
       <use xlink:href="#m26cec68d96" x="142.124375" y="413.4375" style="stroke: #000000; stroke-width: 0.8"/>
      </g>
     </g>
     <g id="text_1">
      <!-- Ctrl -->
      <g transform="translate(133.228281 428.035937) scale(0.1 -0.1)">
       <defs>
        <path id="DejaVuSans-43" d="M 4122 4306 
L 4122 3641 
Q 3803 3938 3442 4084 
Q 3081 4231 2675 4231 
Q 1875 4231 1450 3742 
Q 1025 3253 1025 2328 
Q 1025 1406 1450 917 
Q 1875 428 2675 428 
Q 3081 428 3442 575 
Q 3803 722 4122 1019 
L 4122 359 
Q 3791 134 3420 21 
Q 3050 -91 2638 -91 
Q 1578 -91 968 557 
Q 359 1206 359 2328 
Q 359 3453 968 4101 
Q 1578 4750 2638 4750 
Q 3056 4750 3426 4639 
Q 3797 4528 4122 4306 
z
" transform="scale(0.015625)"/>
        <path id="DejaVuSans-74" d="M 1172 4494 
L 1172 3500 
L 2356 3500 
L 2356 3053 
L 1172 3053 
L 1172 1153 
Q 1172 725 1289 603 
Q 1406 481 1766 481 
L 2356 481 
L 2356 0 
L 1766 0 
Q 1100 0 847 248 
Q 594 497 594 1153 
L 594 3053 
L 172 3053 
L 172 3500 
L 594 3500 
L 594 4494 
L 1172 4494 
z
" transform="scale(0.015625)"/>
        <path id="DejaVuSans-72" d="M 2631 2963 
Q 2534 3019 2420 3045 
Q 2306 3072 2169 3072 
Q 1681 3072 1420 2755 
Q 1159 2438 1159 1844 
L 1159 0 
L 581 0 
L 581 3500 
L 1159 3500 
L 1159 2956 
Q 1341 3275 1631 3429 
Q 1922 3584 2338 3584 
Q 2397 3584 2469 3576 
Q 2541 3569 2628 3553 
L 2631 2963 
z
" transform="scale(0.015625)"/>
        <path id="DejaVuSans-6c" d="M 603 4863 
L 1178 4863 
L 1178 0 
L 603 0 
L 603 4863 
z
" transform="scale(0.015625)"/>
       </defs>
       <use xlink:href="#DejaVuSans-43"/>
       <use xlink:href="#DejaVuSans-74" x="69.824219"/>
       <use xlink:href="#DejaVuSans-72" x="109.033203"/>
       <use xlink:href="#DejaVuSans-6c" x="150.146484"/>
      </g>
     </g>
    </g>
    <g id="xtick_2">
     <g id="line2d_2">
      <g>
       <use xlink:href="#m26cec68d96" x="337.424375" y="413.4375" style="stroke: #000000; stroke-width: 0.8"/>
      </g>
     </g>
     <g id="text_2">
      <!-- Cask -->
      <g transform="translate(325.368906 428.035937) scale(0.1 -0.1)">
       <defs>
        <path id="DejaVuSans-61" d="M 2194 1759 
Q 1497 1759 1228 1600 
Q 959 1441 959 1056 
Q 959 750 1161 570 
Q 1363 391 1709 391 
Q 2188 391 2477 730 
Q 2766 1069 2766 1631 
L 2766 1759 
L 2194 1759 
z
M 3341 1997 
L 3341 0 
L 2766 0 
L 2766 531 
Q 2569 213 2275 61 
Q 1981 -91 1556 -91 
Q 1019 -91 701 211 
Q 384 513 384 1019 
Q 384 1609 779 1909 
Q 1175 2209 1959 2209 
L 2766 2209 
L 2766 2266 
Q 2766 2663 2505 2880 
Q 2244 3097 1772 3097 
Q 1472 3097 1187 3025 
Q 903 2953 641 2809 
L 641 3341 
Q 956 3463 1253 3523 
Q 1550 3584 1831 3584 
Q 2591 3584 2966 3190 
Q 3341 2797 3341 1997 
z
" transform="scale(0.015625)"/>
        <path id="DejaVuSans-73" d="M 2834 3397 
L 2834 2853 
Q 2591 2978 2328 3040 
Q 2066 3103 1784 3103 
Q 1356 3103 1142 2972 
Q 928 2841 928 2578 
Q 928 2378 1081 2264 
Q 1234 2150 1697 2047 
L 1894 2003 
Q 2506 1872 2764 1633 
Q 3022 1394 3022 966 
Q 3022 478 2636 193 
Q 2250 -91 1575 -91 
Q 1294 -91 989 -36 
Q 684 19 347 128 
L 347 722 
Q 666 556 975 473 
Q 1284 391 1588 391 
Q 1994 391 2212 530 
Q 2431 669 2431 922 
Q 2431 1156 2273 1281 
Q 2116 1406 1581 1522 
L 1381 1569 
Q 847 1681 609 1914 
Q 372 2147 372 2553 
Q 372 3047 722 3315 
Q 1072 3584 1716 3584 
Q 2034 3584 2315 3537 
Q 2597 3491 2834 3397 
z
" transform="scale(0.015625)"/>
        <path id="DejaVuSans-6b" d="M 581 4863 
L 1159 4863 
L 1159 1991 
L 2875 3500 
L 3609 3500 
L 1753 1863 
L 3688 0 
L 2938 0 
L 1159 1709 
L 1159 0 
L 581 0 
L 581 4863 
z
" transform="scale(0.015625)"/>
       </defs>
       <use xlink:href="#DejaVuSans-43"/>
       <use xlink:href="#DejaVuSans-61" x="69.824219"/>
       <use xlink:href="#DejaVuSans-73" x="131.103516"/>
       <use xlink:href="#DejaVuSans-6b" x="183.203125"/>
      </g>
     </g>
    </g>
    <g id="text_3">
     <!-- Groups -->
     <g transform="translate(214.820469 444.753438) scale(0.14 -0.14)">
      <defs>
       <path id="DejaVuSans-47" d="M 3809 666 
L 3809 1919 
L 2778 1919 
L 2778 2438 
L 4434 2438 
L 4434 434 
Q 4069 175 3628 42 
Q 3188 -91 2688 -91 
Q 1594 -91 976 548 
Q 359 1188 359 2328 
Q 359 3472 976 4111 
Q 1594 4750 2688 4750 
Q 3144 4750 3555 4637 
Q 3966 4525 4313 4306 
L 4313 3634 
Q 3963 3931 3569 4081 
Q 3175 4231 2741 4231 
Q 1884 4231 1454 3753 
Q 1025 3275 1025 2328 
Q 1025 1384 1454 906 
Q 1884 428 2741 428 
Q 3075 428 3337 486 
Q 3600 544 3809 666 
z
" transform="scale(0.015625)"/>
       <path id="DejaVuSans-6f" d="M 1959 3097 
Q 1497 3097 1228 2736 
Q 959 2375 959 1747 
Q 959 1119 1226 758 
Q 1494 397 1959 397 
Q 2419 397 2687 759 
Q 2956 1122 2956 1747 
Q 2956 2369 2687 2733 
Q 2419 3097 1959 3097 
z
M 1959 3584 
Q 2709 3584 3137 3096 
Q 3566 2609 3566 1747 
Q 3566 888 3137 398 
Q 2709 -91 1959 -91 
Q 1206 -91 779 398 
Q 353 888 353 1747 
Q 353 2609 779 3096 
Q 1206 3584 1959 3584 
z
" transform="scale(0.015625)"/>
       <path id="DejaVuSans-75" d="M 544 1381 
L 544 3500 
L 1119 3500 
L 1119 1403 
Q 1119 906 1312 657 
Q 1506 409 1894 409 
Q 2359 409 2629 706 
Q 2900 1003 2900 1516 
L 2900 3500 
L 3475 3500 
L 3475 0 
L 2900 0 
L 2900 538 
Q 2691 219 2414 64 
Q 2138 -91 1772 -91 
Q 1169 -91 856 284 
Q 544 659 544 1381 
z
M 1991 3584 
L 1991 3584 
z
" transform="scale(0.015625)"/>
       <path id="DejaVuSans-70" d="M 1159 525 
L 1159 -1331 
L 581 -1331 
L 581 3500 
L 1159 3500 
L 1159 2969 
Q 1341 3281 1617 3432 
Q 1894 3584 2278 3584 
Q 2916 3584 3314 3078 
Q 3713 2572 3713 1747 
Q 3713 922 3314 415 
Q 2916 -91 2278 -91 
Q 1894 -91 1617 61 
Q 1341 213 1159 525 
z
M 3116 1747 
Q 3116 2381 2855 2742 
Q 2594 3103 2138 3103 
Q 1681 3103 1420 2742 
Q 1159 2381 1159 1747 
Q 1159 1113 1420 752 
Q 1681 391 2138 391 
Q 2594 391 2855 752 
Q 3116 1113 3116 1747 
z
" transform="scale(0.015625)"/>
      </defs>
      <use xlink:href="#DejaVuSans-47"/>
      <use xlink:href="#DejaVuSans-72" x="77.490234"/>
      <use xlink:href="#DejaVuSans-6f" x="116.353516"/>
      <use xlink:href="#DejaVuSans-75" x="177.535156"/>
      <use xlink:href="#DejaVuSans-70" x="240.914062"/>
      <use xlink:href="#DejaVuSans-73" x="304.390625"/>
     </g>
    </g>
   </g>
   <g id="matplotlib.axis_2">
    <g id="ytick_1">
     <g id="line2d_3">
      <defs>
       <path id="m972a0061f4" d="M 0 0 
L -3.5 0 
" style="stroke: #000000; stroke-width: 0.8"/>
      </defs>
      <g>
       <use xlink:href="#m972a0061f4" x="44.474375" y="413.4375" style="stroke: #000000; stroke-width: 0.8"/>
      </g>
     </g>
     <g id="text_4">
      <!-- 55 -->
      <g transform="translate(24.749375 417.236719) scale(0.1 -0.1)">
       <defs>
        <path id="DejaVuSans-35" d="M 691 4666 
L 3169 4666 
L 3169 4134 
L 1269 4134 
L 1269 2991 
Q 1406 3038 1543 3061 
Q 1681 3084 1819 3084 
Q 2600 3084 3056 2656 
Q 3513 2228 3513 1497 
Q 3513 744 3044 326 
Q 2575 -91 1722 -91 
Q 1428 -91 1123 -41 
Q 819 9 494 109 
L 494 744 
Q 775 591 1075 516 
Q 1375 441 1709 441 
Q 2250 441 2565 725 
Q 2881 1009 2881 1497 
Q 2881 1984 2565 2268 
Q 2250 2553 1709 2553 
Q 1456 2553 1204 2497 
Q 953 2441 691 2322 
L 691 4666 
z
" transform="scale(0.015625)"/>
       </defs>
       <use xlink:href="#DejaVuSans-35"/>
       <use xlink:href="#DejaVuSans-35" x="63.623047"/>
      </g>
     </g>
    </g>
    <g id="ytick_2">
     <g id="line2d_4">
      <g>
       <use xlink:href="#m972a0061f4" x="44.474375" y="348.7575" style="stroke: #000000; stroke-width: 0.8"/>
      </g>
     </g>
     <g id="text_5">
      <!-- 60 -->
      <g transform="translate(24.749375 352.556719) scale(0.1 -0.1)">
       <defs>
        <path id="DejaVuSans-36" d="M 2113 2584 
Q 1688 2584 1439 2293 
Q 1191 2003 1191 1497 
Q 1191 994 1439 701 
Q 1688 409 2113 409 
Q 2538 409 2786 701 
Q 3034 994 3034 1497 
Q 3034 2003 2786 2293 
Q 2538 2584 2113 2584 
z
M 3366 4563 
L 3366 3988 
Q 3128 4100 2886 4159 
Q 2644 4219 2406 4219 
Q 1781 4219 1451 3797 
Q 1122 3375 1075 2522 
Q 1259 2794 1537 2939 
Q 1816 3084 2150 3084 
Q 2853 3084 3261 2657 
Q 3669 2231 3669 1497 
Q 3669 778 3244 343 
Q 2819 -91 2113 -91 
Q 1303 -91 875 529 
Q 447 1150 447 2328 
Q 447 3434 972 4092 
Q 1497 4750 2381 4750 
Q 2619 4750 2861 4703 
Q 3103 4656 3366 4563 
z
" transform="scale(0.015625)"/>
        <path id="DejaVuSans-30" d="M 2034 4250 
Q 1547 4250 1301 3770 
Q 1056 3291 1056 2328 
Q 1056 1369 1301 889 
Q 1547 409 2034 409 
Q 2525 409 2770 889 
Q 3016 1369 3016 2328 
Q 3016 3291 2770 3770 
Q 2525 4250 2034 4250 
z
M 2034 4750 
Q 2819 4750 3233 4129 
Q 3647 3509 3647 2328 
Q 3647 1150 3233 529 
Q 2819 -91 2034 -91 
Q 1250 -91 836 529 
Q 422 1150 422 2328 
Q 422 3509 836 4129 
Q 1250 4750 2034 4750 
z
" transform="scale(0.015625)"/>
       </defs>
       <use xlink:href="#DejaVuSans-36"/>
       <use xlink:href="#DejaVuSans-30" x="63.623047"/>
      </g>
     </g>
    </g>
    <g id="ytick_3">
     <g id="line2d_5">
      <g>
       <use xlink:href="#m972a0061f4" x="44.474375" y="284.0775" style="stroke: #000000; stroke-width: 0.8"/>
      </g>
     </g>
     <g id="text_6">
      <!-- 65 -->
      <g transform="translate(24.749375 287.876719) scale(0.1 -0.1)">
       <use xlink:href="#DejaVuSans-36"/>
       <use xlink:href="#DejaVuSans-35" x="63.623047"/>
      </g>
     </g>
    </g>
    <g id="ytick_4">
     <g id="line2d_6">
      <g>
       <use xlink:href="#m972a0061f4" x="44.474375" y="219.3975" style="stroke: #000000; stroke-width: 0.8"/>
      </g>
     </g>
     <g id="text_7">
      <!-- 70 -->
      <g transform="translate(24.749375 223.196719) scale(0.1 -0.1)">
       <defs>
        <path id="DejaVuSans-37" d="M 525 4666 
L 3525 4666 
L 3525 4397 
L 1831 0 
L 1172 0 
L 2766 4134 
L 525 4134 
L 525 4666 
z
" transform="scale(0.015625)"/>
       </defs>
       <use xlink:href="#DejaVuSans-37"/>
       <use xlink:href="#DejaVuSans-30" x="63.623047"/>
      </g>
     </g>
    </g>
    <g id="ytick_5">
     <g id="line2d_7">
      <g>
       <use xlink:href="#m972a0061f4" x="44.474375" y="154.7175" style="stroke: #000000; stroke-width: 0.8"/>
      </g>
     </g>
     <g id="text_8">
      <!-- 75 -->
      <g transform="translate(24.749375 158.516719) scale(0.1 -0.1)">
       <use xlink:href="#DejaVuSans-37"/>
       <use xlink:href="#DejaVuSans-35" x="63.623047"/>
      </g>
     </g>
    </g>
    <g id="ytick_6">
     <g id="line2d_8">
      <g>
       <use xlink:href="#m972a0061f4" x="44.474375" y="90.0375" style="stroke: #000000; stroke-width: 0.8"/>
      </g>
     </g>
     <g id="text_9">
      <!-- 80 -->
      <g transform="translate(24.749375 93.836719) scale(0.1 -0.1)">
       <defs>
        <path id="DejaVuSans-38" d="M 2034 2216 
Q 1584 2216 1326 1975 
Q 1069 1734 1069 1313 
Q 1069 891 1326 650 
Q 1584 409 2034 409 
Q 2484 409 2743 651 
Q 3003 894 3003 1313 
Q 3003 1734 2745 1975 
Q 2488 2216 2034 2216 
z
M 1403 2484 
Q 997 2584 770 2862 
Q 544 3141 544 3541 
Q 544 4100 942 4425 
Q 1341 4750 2034 4750 
Q 2731 4750 3128 4425 
Q 3525 4100 3525 3541 
Q 3525 3141 3298 2862 
Q 3072 2584 2669 2484 
Q 3125 2378 3379 2068 
Q 3634 1759 3634 1313 
Q 3634 634 3220 271 
Q 2806 -91 2034 -91 
Q 1263 -91 848 271 
Q 434 634 434 1313 
Q 434 1759 690 2068 
Q 947 2378 1403 2484 
z
M 1172 3481 
Q 1172 3119 1398 2916 
Q 1625 2713 2034 2713 
Q 2441 2713 2670 2916 
Q 2900 3119 2900 3481 
Q 2900 3844 2670 4047 
Q 2441 4250 2034 4250 
Q 1625 4250 1398 4047 
Q 1172 3844 1172 3481 
z
" transform="scale(0.015625)"/>
       </defs>
       <use xlink:href="#DejaVuSans-38"/>
       <use xlink:href="#DejaVuSans-30" x="63.623047"/>
      </g>
     </g>
    </g>
    <g id="ytick_7">
     <g id="line2d_9">
      <g>
       <use xlink:href="#m972a0061f4" x="44.474375" y="25.3575" style="stroke: #000000; stroke-width: 0.8"/>
      </g>
     </g>
     <g id="text_10">
      <!-- 85 -->
      <g transform="translate(24.749375 29.156719) scale(0.1 -0.1)">
       <use xlink:href="#DejaVuSans-38"/>
       <use xlink:href="#DejaVuSans-35" x="63.623047"/>
      </g>
     </g>
    </g>
    <g id="text_11">
     <!-- Mean Accuracy (%) -->
     <g transform="translate(17.837813 286.992344) rotate(-90) scale(0.14 -0.14)">
      <defs>
       <path id="DejaVuSans-4d" d="M 628 4666 
L 1569 4666 
L 2759 1491 
L 3956 4666 
L 4897 4666 
L 4897 0 
L 4281 0 
L 4281 4097 
L 3078 897 
L 2444 897 
L 1241 4097 
L 1241 0 
L 628 0 
L 628 4666 
z
" transform="scale(0.015625)"/>
       <path id="DejaVuSans-65" d="M 3597 1894 
L 3597 1613 
L 953 1613 
Q 991 1019 1311 708 
Q 1631 397 2203 397 
Q 2534 397 2845 478 
Q 3156 559 3463 722 
L 3463 178 
Q 3153 47 2828 -22 
Q 2503 -91 2169 -91 
Q 1331 -91 842 396 
Q 353 884 353 1716 
Q 353 2575 817 3079 
Q 1281 3584 2069 3584 
Q 2775 3584 3186 3129 
Q 3597 2675 3597 1894 
z
M 3022 2063 
Q 3016 2534 2758 2815 
Q 2500 3097 2075 3097 
Q 1594 3097 1305 2825 
Q 1016 2553 972 2059 
L 3022 2063 
z
" transform="scale(0.015625)"/>
       <path id="DejaVuSans-6e" d="M 3513 2113 
L 3513 0 
L 2938 0 
L 2938 2094 
Q 2938 2591 2744 2837 
Q 2550 3084 2163 3084 
Q 1697 3084 1428 2787 
Q 1159 2491 1159 1978 
L 1159 0 
L 581 0 
L 581 3500 
L 1159 3500 
L 1159 2956 
Q 1366 3272 1645 3428 
Q 1925 3584 2291 3584 
Q 2894 3584 3203 3211 
Q 3513 2838 3513 2113 
z
" transform="scale(0.015625)"/>
       <path id="DejaVuSans-20" transform="scale(0.015625)"/>
       <path id="DejaVuSans-41" d="M 2188 4044 
L 1331 1722 
L 3047 1722 
L 2188 4044 
z
M 1831 4666 
L 2547 4666 
L 4325 0 
L 3669 0 
L 3244 1197 
L 1141 1197 
L 716 0 
L 50 0 
L 1831 4666 
z
" transform="scale(0.015625)"/>
       <path id="DejaVuSans-63" d="M 3122 3366 
L 3122 2828 
Q 2878 2963 2633 3030 
Q 2388 3097 2138 3097 
Q 1578 3097 1268 2742 
Q 959 2388 959 1747 
Q 959 1106 1268 751 
Q 1578 397 2138 397 
Q 2388 397 2633 464 
Q 2878 531 3122 666 
L 3122 134 
Q 2881 22 2623 -34 
Q 2366 -91 2075 -91 
Q 1284 -91 818 406 
Q 353 903 353 1747 
Q 353 2603 823 3093 
Q 1294 3584 2113 3584 
Q 2378 3584 2631 3529 
Q 2884 3475 3122 3366 
z
" transform="scale(0.015625)"/>
       <path id="DejaVuSans-79" d="M 2059 -325 
Q 1816 -950 1584 -1140 
Q 1353 -1331 966 -1331 
L 506 -1331 
L 506 -850 
L 844 -850 
Q 1081 -850 1212 -737 
Q 1344 -625 1503 -206 
L 1606 56 
L 191 3500 
L 800 3500 
L 1894 763 
L 2988 3500 
L 3597 3500 
L 2059 -325 
z
" transform="scale(0.015625)"/>
       <path id="DejaVuSans-28" d="M 1984 4856 
Q 1566 4138 1362 3434 
Q 1159 2731 1159 2009 
Q 1159 1288 1364 580 
Q 1569 -128 1984 -844 
L 1484 -844 
Q 1016 -109 783 600 
Q 550 1309 550 2009 
Q 550 2706 781 3412 
Q 1013 4119 1484 4856 
L 1984 4856 
z
" transform="scale(0.015625)"/>
       <path id="DejaVuSans-25" d="M 4653 2053 
Q 4381 2053 4226 1822 
Q 4072 1591 4072 1178 
Q 4072 772 4226 539 
Q 4381 306 4653 306 
Q 4919 306 5073 539 
Q 5228 772 5228 1178 
Q 5228 1588 5073 1820 
Q 4919 2053 4653 2053 
z
M 4653 2450 
Q 5147 2450 5437 2106 
Q 5728 1763 5728 1178 
Q 5728 594 5436 251 
Q 5144 -91 4653 -91 
Q 4153 -91 3862 251 
Q 3572 594 3572 1178 
Q 3572 1766 3864 2108 
Q 4156 2450 4653 2450 
z
M 1428 4353 
Q 1159 4353 1004 4120 
Q 850 3888 850 3481 
Q 850 3069 1003 2837 
Q 1156 2606 1428 2606 
Q 1700 2606 1854 2837 
Q 2009 3069 2009 3481 
Q 2009 3884 1853 4118 
Q 1697 4353 1428 4353 
z
M 4250 4750 
L 4750 4750 
L 1831 -91 
L 1331 -91 
L 4250 4750 
z
M 1428 4750 
Q 1922 4750 2215 4408 
Q 2509 4066 2509 3481 
Q 2509 2891 2217 2550 
Q 1925 2209 1428 2209 
Q 931 2209 642 2551 
Q 353 2894 353 3481 
Q 353 4063 643 4406 
Q 934 4750 1428 4750 
z
" transform="scale(0.015625)"/>
       <path id="DejaVuSans-29" d="M 513 4856 
L 1013 4856 
Q 1481 4119 1714 3412 
Q 1947 2706 1947 2009 
Q 1947 1309 1714 600 
Q 1481 -109 1013 -844 
L 513 -844 
Q 928 -128 1133 580 
Q 1338 1288 1338 2009 
Q 1338 2731 1133 3434 
Q 928 4138 513 4856 
z
" transform="scale(0.015625)"/>
      </defs>
      <use xlink:href="#DejaVuSans-4d"/>
      <use xlink:href="#DejaVuSans-65" x="86.279297"/>
      <use xlink:href="#DejaVuSans-61" x="147.802734"/>
      <use xlink:href="#DejaVuSans-6e" x="209.082031"/>
      <use xlink:href="#DejaVuSans-20" x="272.460938"/>
      <use xlink:href="#DejaVuSans-41" x="304.248047"/>
      <use xlink:href="#DejaVuSans-63" x="370.90625"/>
      <use xlink:href="#DejaVuSans-63" x="425.886719"/>
      <use xlink:href="#DejaVuSans-75" x="480.867188"/>
      <use xlink:href="#DejaVuSans-72" x="544.246094"/>
      <use xlink:href="#DejaVuSans-61" x="585.359375"/>
      <use xlink:href="#DejaVuSans-63" x="646.638672"/>
      <use xlink:href="#DejaVuSans-79" x="701.619141"/>
      <use xlink:href="#DejaVuSans-20" x="760.798828"/>
      <use xlink:href="#DejaVuSans-28" x="792.585938"/>
      <use xlink:href="#DejaVuSans-25" x="831.599609"/>
      <use xlink:href="#DejaVuSans-29" x="926.619141"/>
     </g>
    </g>
   </g>
   <g id="patch_3">
    <path d="M 122.594375 223.169745 
L 161.654375 223.169745 
L 161.654375 153.84994 
L 122.594375 153.84994 
L 122.594375 223.169745 
z
" clip-path="url(#pb0153c20c5)" style="fill: #ffffff; stroke: #000000; stroke-linejoin: miter"/>
   </g>
   <g id="line2d_10">
    <path d="M 142.124375 223.169745 
L 142.124375 279.219886 
" clip-path="url(#pb0153c20c5)" style="fill: none; stroke: #000000; stroke-linecap: square"/>
   </g>
   <g id="line2d_11">
    <path d="M 142.124375 153.84994 
L 142.124375 66.490416 
" clip-path="url(#pb0153c20c5)" style="fill: none; stroke: #000000; stroke-linecap: square"/>
   </g>
   <g id="line2d_12">
    <path d="M 132.359375 279.219886 
L 151.889375 279.219886 
" clip-path="url(#pb0153c20c5)" style="fill: none; stroke: #000000; stroke-linecap: square"/>
   </g>
   <g id="line2d_13">
    <path d="M 132.359375 66.490416 
L 151.889375 66.490416 
" clip-path="url(#pb0153c20c5)" style="fill: none; stroke: #000000; stroke-linecap: square"/>
   </g>
   <g id="patch_4">
    <path d="M 317.894375 214.776294 
L 356.954375 214.776294 
L 356.954375 128.244455 
L 317.894375 128.244455 
L 317.894375 214.776294 
z
" clip-path="url(#pb0153c20c5)" style="fill: #ffffff; stroke: #000000; stroke-linejoin: miter"/>
   </g>
   <g id="line2d_14">
    <path d="M 337.424375 214.776294 
L 337.424375 343.389868 
" clip-path="url(#pb0153c20c5)" style="fill: none; stroke: #000000; stroke-linecap: square"/>
   </g>
   <g id="line2d_15">
    <path d="M 337.424375 128.244455 
L 337.424375 98.734807 
" clip-path="url(#pb0153c20c5)" style="fill: none; stroke: #000000; stroke-linecap: square"/>
   </g>
   <g id="line2d_16">
    <path d="M 327.659375 343.389868 
L 347.189375 343.389868 
" clip-path="url(#pb0153c20c5)" style="fill: none; stroke: #000000; stroke-linecap: square"/>
   </g>
   <g id="line2d_17">
    <path d="M 327.659375 98.734807 
L 347.189375 98.734807 
" clip-path="url(#pb0153c20c5)" style="fill: none; stroke: #000000; stroke-linecap: square"/>
   </g>
   <g id="line2d_18">
    <path d="M 122.594375 192.332184 
L 161.654375 192.332184 
" clip-path="url(#pb0153c20c5)" style="fill: none; stroke: #000000"/>
   </g>
   <g id="line2d_19">
    <path d="M 317.894375 177.034125 
L 356.954375 177.034125 
" clip-path="url(#pb0153c20c5)" style="fill: none; stroke: #000000"/>
   </g>
   <g id="patch_5">
    <path d="M 44.474375 413.4375 
L 44.474375 25.3575 
" style="fill: none; stroke: #000000; stroke-width: 0.8; stroke-linejoin: miter; stroke-linecap: square"/>
   </g>
   <g id="patch_6">
    <path d="M 435.074375 413.4375 
L 435.074375 25.3575 
" style="fill: none; stroke: #000000; stroke-width: 0.8; stroke-linejoin: miter; stroke-linecap: square"/>
   </g>
   <g id="patch_7">
    <path d="M 44.474375 413.4375 
L 435.074375 413.4375 
" style="fill: none; stroke: #000000; stroke-width: 0.8; stroke-linejoin: miter; stroke-linecap: square"/>
   </g>
   <g id="patch_8">
    <path d="M 44.474375 25.3575 
L 435.074375 25.3575 
" style="fill: none; stroke: #000000; stroke-width: 0.8; stroke-linejoin: miter; stroke-linecap: square"/>
   </g>
   <g id="PathCollection_1">
    <defs>
     <path id="mff393e0a4e" d="M 0 3 
C 0.795609 3 1.55874 2.683901 2.12132 2.12132 
C 2.683901 1.55874 3 0.795609 3 0 
C 3 -0.795609 2.683901 -1.55874 2.12132 -2.12132 
C 1.55874 -2.683901 0.795609 -3 0 -3 
C -0.795609 -3 -1.55874 -2.683901 -2.12132 -2.12132 
C -2.683901 -1.55874 -3 -0.795609 -3 0 
C -3 0.795609 -2.683901 1.55874 -2.12132 2.12132 
C -1.55874 2.683901 -0.795609 3 0 3 
z
" style="stroke: #1405eb; stroke-opacity: 0.8"/>
    </defs>
    <g clip-path="url(#pb0153c20c5)">
     <use xlink:href="#mff393e0a4e" x="149.429734" y="234.416963" style="fill: #1405eb; fill-opacity: 0.8; stroke: #1405eb; stroke-opacity: 0.8"/>
     <use xlink:href="#mff393e0a4e" x="137.357353" y="247.934252" style="fill: #1405eb; fill-opacity: 0.8; stroke: #1405eb; stroke-opacity: 0.8"/>
     <use xlink:href="#mff393e0a4e" x="148.32194" y="226.887839" style="fill: #1405eb; fill-opacity: 0.8; stroke: #1405eb; stroke-opacity: 0.8"/>
     <use xlink:href="#mff393e0a4e" x="139.600443" y="176.676148" style="fill: #1405eb; fill-opacity: 0.8; stroke: #1405eb; stroke-opacity: 0.8"/>
     <use xlink:href="#mff393e0a4e" x="150.899195" y="174.958269" style="fill: #1405eb; fill-opacity: 0.8; stroke: #1405eb; stroke-opacity: 0.8"/>
     <use xlink:href="#mff393e0a4e" x="150.116836" y="212.947007" style="fill: #1405eb; fill-opacity: 0.8; stroke: #1405eb; stroke-opacity: 0.8"/>
     <use xlink:href="#mff393e0a4e" x="139.244981" y="188.040808" style="fill: #1405eb; fill-opacity: 0.8; stroke: #1405eb; stroke-opacity: 0.8"/>
     <use xlink:href="#mff393e0a4e" x="147.199699" y="144.040948" style="fill: #1405eb; fill-opacity: 0.8; stroke: #1405eb; stroke-opacity: 0.8"/>
     <use xlink:href="#mff393e0a4e" x="143.020687" y="196.553691" style="fill: #1405eb; fill-opacity: 0.8; stroke: #1405eb; stroke-opacity: 0.8"/>
     <use xlink:href="#mff393e0a4e" x="149.887923" y="196.392357" style="fill: #1405eb; fill-opacity: 0.8; stroke: #1405eb; stroke-opacity: 0.8"/>
     <use xlink:href="#mff393e0a4e" x="146.462776" y="150.308611" style="fill: #1405eb; fill-opacity: 0.8; stroke: #1405eb; stroke-opacity: 0.8"/>
     <use xlink:href="#mff393e0a4e" x="142.565946" y="164.473926" style="fill: #1405eb; fill-opacity: 0.8; stroke: #1405eb; stroke-opacity: 0.8"/>
     <use xlink:href="#mff393e0a4e" x="141.225502" y="171.642372" style="fill: #1405eb; fill-opacity: 0.8; stroke: #1405eb; stroke-opacity: 0.8"/>
     <use xlink:href="#mff393e0a4e" x="132.831619" y="226.008404" style="fill: #1405eb; fill-opacity: 0.8; stroke: #1405eb; stroke-opacity: 0.8"/>
     <use xlink:href="#mff393e0a4e" x="143.543839" y="188.714983" style="fill: #1405eb; fill-opacity: 0.8; stroke: #1405eb; stroke-opacity: 0.8"/>
     <use xlink:href="#mff393e0a4e" x="136.980965" y="271.767179" style="fill: #1405eb; fill-opacity: 0.8; stroke: #1405eb; stroke-opacity: 0.8"/>
     <use xlink:href="#mff393e0a4e" x="142.703022" y="214.653768" style="fill: #1405eb; fill-opacity: 0.8; stroke: #1405eb; stroke-opacity: 0.8"/>
     <use xlink:href="#mff393e0a4e" x="147.682275" y="97.789827" style="fill: #1405eb; fill-opacity: 0.8; stroke: #1405eb; stroke-opacity: 0.8"/>
     <use xlink:href="#mff393e0a4e" x="138.754153" y="139.681003" style="fill: #1405eb; fill-opacity: 0.8; stroke: #1405eb; stroke-opacity: 0.8"/>
     <use xlink:href="#mff393e0a4e" x="137.018389" y="195.949386" style="fill: #1405eb; fill-opacity: 0.8; stroke: #1405eb; stroke-opacity: 0.8"/>
     <use xlink:href="#mff393e0a4e" x="148.698537" y="212.613523" style="fill: #1405eb; fill-opacity: 0.8; stroke: #1405eb; stroke-opacity: 0.8"/>
     <use xlink:href="#mff393e0a4e" x="151.598621" y="123.349265" style="fill: #1405eb; fill-opacity: 0.8; stroke: #1405eb; stroke-opacity: 0.8"/>
     <use xlink:href="#mff393e0a4e" x="150.943311" y="146.636425" style="fill: #1405eb; fill-opacity: 0.8; stroke: #1405eb; stroke-opacity: 0.8"/>
     <use xlink:href="#mff393e0a4e" x="140.136992" y="279.219886" style="fill: #1405eb; fill-opacity: 0.8; stroke: #1405eb; stroke-opacity: 0.8"/>
     <use xlink:href="#mff393e0a4e" x="144.494763" y="66.490416" style="fill: #1405eb; fill-opacity: 0.8; stroke: #1405eb; stroke-opacity: 0.8"/>
     <use xlink:href="#mff393e0a4e" x="139.344542" y="248.104141" style="fill: #1405eb; fill-opacity: 0.8; stroke: #1405eb; stroke-opacity: 0.8"/>
    </g>
   </g>
   <g id="PathCollection_2">
    <defs>
     <path id="m978bf1a41b" d="M 0 3 
C 0.795609 3 1.55874 2.683901 2.12132 2.12132 
C 2.683901 1.55874 3 0.795609 3 0 
C 3 -0.795609 2.683901 -1.55874 2.12132 -2.12132 
C 1.55874 -2.683901 0.795609 -3 0 -3 
C -0.795609 -3 -1.55874 -2.683901 -2.12132 -2.12132 
C -2.683901 -1.55874 -3 -0.795609 -3 0 
C -3 0.795609 -2.683901 1.55874 -2.12132 2.12132 
C -1.55874 2.683901 -0.795609 3 0 3 
z
" style="stroke: #f28211; stroke-opacity: 0.8"/>
    </defs>
    <g clip-path="url(#pb0153c20c5)">
     <use xlink:href="#m978bf1a41b" x="336.185209" y="142.735641" style="fill: #f28211; fill-opacity: 0.8; stroke: #f28211; stroke-opacity: 0.8"/>
     <use xlink:href="#m978bf1a41b" x="336.036325" y="153.076149" style="fill: #f28211; fill-opacity: 0.8; stroke: #f28211; stroke-opacity: 0.8"/>
     <use xlink:href="#m978bf1a41b" x="329.337978" y="234.857136" style="fill: #f28211; fill-opacity: 0.8; stroke: #f28211; stroke-opacity: 0.8"/>
     <use xlink:href="#m978bf1a41b" x="338.811348" y="110.177915" style="fill: #f28211; fill-opacity: 0.8; stroke: #f28211; stroke-opacity: 0.8"/>
     <use xlink:href="#m978bf1a41b" x="337.83651" y="127.487208" style="fill: #f28211; fill-opacity: 0.8; stroke: #f28211; stroke-opacity: 0.8"/>
     <use xlink:href="#m978bf1a41b" x="344.901754" y="209.463511" style="fill: #f28211; fill-opacity: 0.8; stroke: #f28211; stroke-opacity: 0.8"/>
     <use xlink:href="#m978bf1a41b" x="337.888236" y="177.633621" style="fill: #f28211; fill-opacity: 0.8; stroke: #f28211; stroke-opacity: 0.8"/>
     <use xlink:href="#m978bf1a41b" x="331.864112" y="128.496871" style="fill: #f28211; fill-opacity: 0.8; stroke: #f28211; stroke-opacity: 0.8"/>
     <use xlink:href="#m978bf1a41b" x="335.417298" y="116.919273" style="fill: #f28211; fill-opacity: 0.8; stroke: #f28211; stroke-opacity: 0.8"/>
     <use xlink:href="#m978bf1a41b" x="340.667554" y="176.434628" style="fill: #f28211; fill-opacity: 0.8; stroke: #f28211; stroke-opacity: 0.8"/>
     <use xlink:href="#m978bf1a41b" x="346.565835" y="246.875382" style="fill: #f28211; fill-opacity: 0.8; stroke: #f28211; stroke-opacity: 0.8"/>
     <use xlink:href="#m978bf1a41b" x="331.046222" y="195.453299" style="fill: #f28211; fill-opacity: 0.8; stroke: #f28211; stroke-opacity: 0.8"/>
     <use xlink:href="#m978bf1a41b" x="338.986011" y="248.533762" style="fill: #f28211; fill-opacity: 0.8; stroke: #f28211; stroke-opacity: 0.8"/>
     <use xlink:href="#m978bf1a41b" x="328.835442" y="156.455566" style="fill: #f28211; fill-opacity: 0.8; stroke: #f28211; stroke-opacity: 0.8"/>
     <use xlink:href="#m978bf1a41b" x="330.737003" y="199.89406" style="fill: #f28211; fill-opacity: 0.8; stroke: #f28211; stroke-opacity: 0.8"/>
     <use xlink:href="#m978bf1a41b" x="340.660069" y="118.866227" style="fill: #f28211; fill-opacity: 0.8; stroke: #f28211; stroke-opacity: 0.8"/>
     <use xlink:href="#m978bf1a41b" x="346.220067" y="236.613895" style="fill: #f28211; fill-opacity: 0.8; stroke: #f28211; stroke-opacity: 0.8"/>
     <use xlink:href="#m978bf1a41b" x="342.148339" y="172.712637" style="fill: #f28211; fill-opacity: 0.8; stroke: #f28211; stroke-opacity: 0.8"/>
     <use xlink:href="#m978bf1a41b" x="337.132005" y="196.750594" style="fill: #f28211; fill-opacity: 0.8; stroke: #f28211; stroke-opacity: 0.8"/>
     <use xlink:href="#m978bf1a41b" x="335.723754" y="230.714642" style="fill: #f28211; fill-opacity: 0.8; stroke: #f28211; stroke-opacity: 0.8"/>
     <use xlink:href="#m978bf1a41b" x="335.087175" y="186.311368" style="fill: #f28211; fill-opacity: 0.8; stroke: #f28211; stroke-opacity: 0.8"/>
     <use xlink:href="#m978bf1a41b" x="328.827537" y="343.389868" style="fill: #f28211; fill-opacity: 0.8; stroke: #f28211; stroke-opacity: 0.8"/>
     <use xlink:href="#m978bf1a41b" x="344.372539" y="115.467335" style="fill: #f28211; fill-opacity: 0.8; stroke: #f28211; stroke-opacity: 0.8"/>
     <use xlink:href="#m978bf1a41b" x="335.087726" y="98.734807" style="fill: #f28211; fill-opacity: 0.8; stroke: #f28211; stroke-opacity: 0.8"/>
    </g>
   </g>
   <g id="text_12">
    <!-- Learning Result of Ctrl vs Cask (last 0.25 data) -->
    <g transform="translate(53.344375 19.3575) scale(0.16 -0.16)">
     <defs>
      <path id="DejaVuSans-4c" d="M 628 4666 
L 1259 4666 
L 1259 531 
L 3531 531 
L 3531 0 
L 628 0 
L 628 4666 
z
" transform="scale(0.015625)"/>
      <path id="DejaVuSans-69" d="M 603 3500 
L 1178 3500 
L 1178 0 
L 603 0 
L 603 3500 
z
M 603 4863 
L 1178 4863 
L 1178 4134 
L 603 4134 
L 603 4863 
z
" transform="scale(0.015625)"/>
      <path id="DejaVuSans-67" d="M 2906 1791 
Q 2906 2416 2648 2759 
Q 2391 3103 1925 3103 
Q 1463 3103 1205 2759 
Q 947 2416 947 1791 
Q 947 1169 1205 825 
Q 1463 481 1925 481 
Q 2391 481 2648 825 
Q 2906 1169 2906 1791 
z
M 3481 434 
Q 3481 -459 3084 -895 
Q 2688 -1331 1869 -1331 
Q 1566 -1331 1297 -1286 
Q 1028 -1241 775 -1147 
L 775 -588 
Q 1028 -725 1275 -790 
Q 1522 -856 1778 -856 
Q 2344 -856 2625 -561 
Q 2906 -266 2906 331 
L 2906 616 
Q 2728 306 2450 153 
Q 2172 0 1784 0 
Q 1141 0 747 490 
Q 353 981 353 1791 
Q 353 2603 747 3093 
Q 1141 3584 1784 3584 
Q 2172 3584 2450 3431 
Q 2728 3278 2906 2969 
L 2906 3500 
L 3481 3500 
L 3481 434 
z
" transform="scale(0.015625)"/>
      <path id="DejaVuSans-52" d="M 2841 2188 
Q 3044 2119 3236 1894 
Q 3428 1669 3622 1275 
L 4263 0 
L 3584 0 
L 2988 1197 
Q 2756 1666 2539 1819 
Q 2322 1972 1947 1972 
L 1259 1972 
L 1259 0 
L 628 0 
L 628 4666 
L 2053 4666 
Q 2853 4666 3247 4331 
Q 3641 3997 3641 3322 
Q 3641 2881 3436 2590 
Q 3231 2300 2841 2188 
z
M 1259 4147 
L 1259 2491 
L 2053 2491 
Q 2509 2491 2742 2702 
Q 2975 2913 2975 3322 
Q 2975 3731 2742 3939 
Q 2509 4147 2053 4147 
L 1259 4147 
z
" transform="scale(0.015625)"/>
      <path id="DejaVuSans-66" d="M 2375 4863 
L 2375 4384 
L 1825 4384 
Q 1516 4384 1395 4259 
Q 1275 4134 1275 3809 
L 1275 3500 
L 2222 3500 
L 2222 3053 
L 1275 3053 
L 1275 0 
L 697 0 
L 697 3053 
L 147 3053 
L 147 3500 
L 697 3500 
L 697 3744 
Q 697 4328 969 4595 
Q 1241 4863 1831 4863 
L 2375 4863 
z
" transform="scale(0.015625)"/>
      <path id="DejaVuSans-76" d="M 191 3500 
L 800 3500 
L 1894 563 
L 2988 3500 
L 3597 3500 
L 2284 0 
L 1503 0 
L 191 3500 
z
" transform="scale(0.015625)"/>
      <path id="DejaVuSans-2e" d="M 684 794 
L 1344 794 
L 1344 0 
L 684 0 
L 684 794 
z
" transform="scale(0.015625)"/>
      <path id="DejaVuSans-32" d="M 1228 531 
L 3431 531 
L 3431 0 
L 469 0 
L 469 531 
Q 828 903 1448 1529 
Q 2069 2156 2228 2338 
Q 2531 2678 2651 2914 
Q 2772 3150 2772 3378 
Q 2772 3750 2511 3984 
Q 2250 4219 1831 4219 
Q 1534 4219 1204 4116 
Q 875 4013 500 3803 
L 500 4441 
Q 881 4594 1212 4672 
Q 1544 4750 1819 4750 
Q 2544 4750 2975 4387 
Q 3406 4025 3406 3419 
Q 3406 3131 3298 2873 
Q 3191 2616 2906 2266 
Q 2828 2175 2409 1742 
Q 1991 1309 1228 531 
z
" transform="scale(0.015625)"/>
      <path id="DejaVuSans-64" d="M 2906 2969 
L 2906 4863 
L 3481 4863 
L 3481 0 
L 2906 0 
L 2906 525 
Q 2725 213 2448 61 
Q 2172 -91 1784 -91 
Q 1150 -91 751 415 
Q 353 922 353 1747 
Q 353 2572 751 3078 
Q 1150 3584 1784 3584 
Q 2172 3584 2448 3432 
Q 2725 3281 2906 2969 
z
M 947 1747 
Q 947 1113 1208 752 
Q 1469 391 1925 391 
Q 2381 391 2643 752 
Q 2906 1113 2906 1747 
Q 2906 2381 2643 2742 
Q 2381 3103 1925 3103 
Q 1469 3103 1208 2742 
Q 947 2381 947 1747 
z
" transform="scale(0.015625)"/>
     </defs>
     <use xlink:href="#DejaVuSans-4c"/>
     <use xlink:href="#DejaVuSans-65" x="53.962891"/>
     <use xlink:href="#DejaVuSans-61" x="115.486328"/>
     <use xlink:href="#DejaVuSans-72" x="176.765625"/>
     <use xlink:href="#DejaVuSans-6e" x="216.128906"/>
     <use xlink:href="#DejaVuSans-69" x="279.507812"/>
     <use xlink:href="#DejaVuSans-6e" x="307.291016"/>
     <use xlink:href="#DejaVuSans-67" x="370.669922"/>
     <use xlink:href="#DejaVuSans-20" x="434.146484"/>
     <use xlink:href="#DejaVuSans-52" x="465.933594"/>
     <use xlink:href="#DejaVuSans-65" x="530.916016"/>
     <use xlink:href="#DejaVuSans-73" x="592.439453"/>
     <use xlink:href="#DejaVuSans-75" x="644.539062"/>
     <use xlink:href="#DejaVuSans-6c" x="707.917969"/>
     <use xlink:href="#DejaVuSans-74" x="735.701172"/>
     <use xlink:href="#DejaVuSans-20" x="774.910156"/>
     <use xlink:href="#DejaVuSans-6f" x="806.697266"/>
     <use xlink:href="#DejaVuSans-66" x="867.878906"/>
     <use xlink:href="#DejaVuSans-20" x="903.083984"/>
     <use xlink:href="#DejaVuSans-43" x="934.871094"/>
     <use xlink:href="#DejaVuSans-74" x="1004.695312"/>
     <use xlink:href="#DejaVuSans-72" x="1043.904297"/>
     <use xlink:href="#DejaVuSans-6c" x="1085.017578"/>
     <use xlink:href="#DejaVuSans-20" x="1112.800781"/>
     <use xlink:href="#DejaVuSans-76" x="1144.587891"/>
     <use xlink:href="#DejaVuSans-73" x="1203.767578"/>
     <use xlink:href="#DejaVuSans-20" x="1255.867188"/>
     <use xlink:href="#DejaVuSans-43" x="1287.654297"/>
     <use xlink:href="#DejaVuSans-61" x="1357.478516"/>
     <use xlink:href="#DejaVuSans-73" x="1418.757812"/>
     <use xlink:href="#DejaVuSans-6b" x="1470.857422"/>
     <use xlink:href="#DejaVuSans-20" x="1528.767578"/>
     <use xlink:href="#DejaVuSans-28" x="1560.554688"/>
     <use xlink:href="#DejaVuSans-6c" x="1599.568359"/>
     <use xlink:href="#DejaVuSans-61" x="1627.351562"/>
     <use xlink:href="#DejaVuSans-73" x="1688.630859"/>
     <use xlink:href="#DejaVuSans-74" x="1740.730469"/>
     <use xlink:href="#DejaVuSans-20" x="1779.939453"/>
     <use xlink:href="#DejaVuSans-30" x="1811.726562"/>
     <use xlink:href="#DejaVuSans-2e" x="1875.349609"/>
     <use xlink:href="#DejaVuSans-32" x="1907.136719"/>
     <use xlink:href="#DejaVuSans-35" x="1970.759766"/>
     <use xlink:href="#DejaVuSans-20" x="2034.382812"/>
     <use xlink:href="#DejaVuSans-64" x="2066.169922"/>
     <use xlink:href="#DejaVuSans-61" x="2129.646484"/>
     <use xlink:href="#DejaVuSans-74" x="2190.925781"/>
     <use xlink:href="#DejaVuSans-61" x="2230.134766"/>
     <use xlink:href="#DejaVuSans-29" x="2291.414062"/>
    </g>
   </g>
   <g id="legend_1">
    <g id="patch_9">
     <path d="M 333.54 62.71375 
L 428.074375 62.71375 
Q 430.074375 62.71375 430.074375 60.71375 
L 430.074375 32.3575 
Q 430.074375 30.3575 428.074375 30.3575 
L 333.54 30.3575 
Q 331.54 30.3575 331.54 32.3575 
L 331.54 60.71375 
Q 331.54 62.71375 333.54 62.71375 
z
" style="fill: #ffffff; opacity: 0.8; stroke: #cccccc; stroke-linejoin: miter"/>
    </g>
    <g id="patch_10">
     <path d="M 335.54 41.955938 
L 355.54 41.955938 
L 355.54 34.955938 
L 335.54 34.955938 
z
" style="fill: #add8e6; opacity: 0.8; stroke: #add8e6; stroke-linejoin: miter"/>
    </g>
    <g id="text_13">
     <!-- Ctrl (n=26) -->
     <g transform="translate(363.54 41.955938) scale(0.1 -0.1)">
      <defs>
       <path id="DejaVuSans-3d" d="M 678 2906 
L 4684 2906 
L 4684 2381 
L 678 2381 
L 678 2906 
z
M 678 1631 
L 4684 1631 
L 4684 1100 
L 678 1100 
L 678 1631 
z
" transform="scale(0.015625)"/>
      </defs>
      <use xlink:href="#DejaVuSans-43"/>
      <use xlink:href="#DejaVuSans-74" x="69.824219"/>
      <use xlink:href="#DejaVuSans-72" x="109.033203"/>
      <use xlink:href="#DejaVuSans-6c" x="150.146484"/>
      <use xlink:href="#DejaVuSans-20" x="177.929688"/>
      <use xlink:href="#DejaVuSans-28" x="209.716797"/>
      <use xlink:href="#DejaVuSans-6e" x="248.730469"/>
      <use xlink:href="#DejaVuSans-3d" x="312.109375"/>
      <use xlink:href="#DejaVuSans-32" x="395.898438"/>
      <use xlink:href="#DejaVuSans-36" x="459.521484"/>
      <use xlink:href="#DejaVuSans-29" x="523.144531"/>
     </g>
    </g>
    <g id="patch_11">
     <path d="M 335.54 56.634063 
L 355.54 56.634063 
L 355.54 49.634063 
L 335.54 49.634063 
z
" style="fill: #ffff00; opacity: 0.8; stroke: #ffff00; stroke-linejoin: miter"/>
    </g>
    <g id="text_14">
     <!-- Cask (n=24) -->
     <g transform="translate(363.54 56.634063) scale(0.1 -0.1)">
      <defs>
       <path id="DejaVuSans-34" d="M 2419 4116 
L 825 1625 
L 2419 1625 
L 2419 4116 
z
M 2253 4666 
L 3047 4666 
L 3047 1625 
L 3713 1625 
L 3713 1100 
L 3047 1100 
L 3047 0 
L 2419 0 
L 2419 1100 
L 313 1100 
L 313 1709 
L 2253 4666 
z
" transform="scale(0.015625)"/>
      </defs>
      <use xlink:href="#DejaVuSans-43"/>
      <use xlink:href="#DejaVuSans-61" x="69.824219"/>
      <use xlink:href="#DejaVuSans-73" x="131.103516"/>
      <use xlink:href="#DejaVuSans-6b" x="183.203125"/>
      <use xlink:href="#DejaVuSans-20" x="241.113281"/>
      <use xlink:href="#DejaVuSans-28" x="272.900391"/>
      <use xlink:href="#DejaVuSans-6e" x="311.914062"/>
      <use xlink:href="#DejaVuSans-3d" x="375.292969"/>
      <use xlink:href="#DejaVuSans-32" x="459.082031"/>
      <use xlink:href="#DejaVuSans-34" x="522.705078"/>
      <use xlink:href="#DejaVuSans-29" x="586.328125"/>
     </g>
    </g>
   </g>
  </g>
 </g>
 <defs>
  <clipPath id="pb0153c20c5">
   <rect x="44.474375" y="25.3575" width="390.6" height="388.08"/>
  </clipPath>
 </defs>
</svg>
