<?xml version="1.0" encoding="utf-8" standalone="no"?>
<!DOCTYPE svg PUBLIC "-//W3C//DTD SVG 1.1//EN"
  "http://www.w3.org/Graphics/SVG/1.1/DTD/svg11.dtd">
<svg xmlns:xlink="http://www.w3.org/1999/xlink" width="459.87875pt" height="454.865pt" viewBox="0 0 459.87875 454.865" xmlns="http://www.w3.org/2000/svg" version="1.1">
 <metadata>
  <rdf:RDF xmlns:dc="http://purl.org/dc/elements/1.1/" xmlns:cc="http://creativecommons.org/ns#" xmlns:rdf="http://www.w3.org/1999/02/22-rdf-syntax-ns#">
   <cc:Work>
    <dc:type rdf:resource="http://purl.org/dc/dcmitype/StillImage"/>
    <dc:date>2025-04-10T14:53:58.283336</dc:date>
    <dc:format>image/svg+xml</dc:format>
    <dc:creator>
     <cc:Agent>
      <dc:title>Matplotlib v3.8.3, https://matplotlib.org/</dc:title>
     </cc:Agent>
    </dc:creator>
   </cc:Work>
  </rdf:RDF>
 </metadata>
 <defs>
  <style type="text/css">*{stroke-linejoin: round; stroke-linecap: butt}</style>
 </defs>
 <g id="figure_1">
  <g id="patch_1">
   <path d="M 0 454.865 
L 459.87875 454.865 
L 459.87875 0 
L 0 0 
z
" style="fill: #ffffff"/>
  </g>
  <g id="axes_1">
   <g id="patch_2">
    <path d="M 54.015 413.4375 
L 444.615 413.4375 
L 444.615 25.3575 
L 54.015 25.3575 
z
" style="fill: #ffffff"/>
   </g>
   <g id="PolyCollection_1">
    <defs>
     <path id="m8054380a32" d="M 146.288515 -129.6906 
L 98.705122 -129.6906 
L 97.713846 -132.033898 
L 96.757792 -134.377196 
L 95.841124 -136.720494 
L 94.96726 -139.063792 
L 94.138803 -141.40709 
L 93.357481 -143.750388 
L 92.624123 -146.093686 
L 91.938641 -148.436984 
L 91.30005 -150.780282 
L 90.706503 -153.12358 
L 90.155349 -155.466877 
L 89.643213 -157.810175 
L 89.166096 -160.153473 
L 88.719485 -162.496771 
L 88.298482 -164.840069 
L 87.897935 -167.183367 
L 87.512581 -169.526665 
L 87.137176 -171.869963 
L 86.766639 -174.213261 
L 86.396172 -176.556559 
L 86.02138 -178.899857 
L 85.638366 -181.243155 
L 85.243822 -183.586453 
L 84.835087 -185.92975 
L 84.410192 -188.273048 
L 83.967884 -190.616346 
L 83.507629 -192.959644 
L 83.029589 -195.302942 
L 82.534585 -197.64624 
L 82.024048 -199.989538 
L 81.499942 -202.332836 
L 80.964692 -204.676134 
L 80.42109 -207.019432 
L 79.872206 -209.36273 
L 79.321293 -211.706028 
L 78.771693 -214.049326 
L 78.226754 -216.392624 
L 77.689746 -218.735921 
L 77.163798 -221.079219 
L 76.651835 -223.422517 
L 76.156542 -225.765815 
L 75.680327 -228.109113 
L 75.225314 -230.452411 
L 74.79334 -232.795709 
L 74.385968 -235.139007 
L 74.00451 -237.482305 
L 73.650065 -239.825603 
L 73.323559 -242.168901 
L 73.025794 -244.512199 
L 72.757496 -246.855497 
L 72.519365 -249.198794 
L 72.312125 -251.542092 
L 72.136563 -253.88539 
L 71.993563 -256.228688 
L 71.884138 -258.571986 
L 71.809437 -260.915284 
L 71.770761 -263.258582 
L 71.769545 -265.60188 
L 71.807351 -267.945178 
L 71.885834 -270.288476 
L 72.006708 -272.631774 
L 72.171701 -274.975072 
L 72.382506 -277.31837 
L 72.640728 -279.661668 
L 72.947829 -282.004965 
L 73.305075 -284.348263 
L 73.713483 -286.691561 
L 74.17378 -289.034859 
L 74.686362 -291.378157 
L 75.251264 -293.721455 
L 75.868141 -296.064753 
L 76.536255 -298.408051 
L 77.254475 -300.751349 
L 78.02129 -303.094647 
L 78.834821 -305.437945 
L 79.692853 -307.781243 
L 80.592869 -310.124541 
L 81.532084 -312.467838 
L 82.507495 -314.811136 
L 83.515925 -317.154434 
L 84.554065 -319.497732 
L 85.618527 -321.84103 
L 86.705879 -324.184328 
L 87.812688 -326.527626 
L 88.935557 -328.870924 
L 90.07115 -331.214222 
L 91.216217 -333.55752 
L 92.367611 -335.900818 
L 93.522306 -338.244116 
L 94.677393 -340.587414 
L 95.830094 -342.930711 
L 96.977752 -345.274009 
L 98.11783 -347.617307 
L 99.247904 -349.960605 
L 100.365655 -352.303903 
L 101.468863 -354.647201 
L 102.555396 -356.990499 
L 103.623209 -359.333797 
L 104.670336 -361.677095 
L 140.3233 -361.677095 
L 140.3233 -361.677095 
L 141.370428 -359.333797 
L 142.43824 -356.990499 
L 143.524774 -354.647201 
L 144.627981 -352.303903 
L 145.745733 -349.960605 
L 146.875806 -347.617307 
L 148.015884 -345.274009 
L 149.163542 -342.930711 
L 150.316243 -340.587414 
L 151.471331 -338.244116 
L 152.626025 -335.900818 
L 153.77742 -333.55752 
L 154.922486 -331.214222 
L 156.058079 -328.870924 
L 157.180948 -326.527626 
L 158.287758 -324.184328 
L 159.375109 -321.84103 
L 160.439571 -319.497732 
L 161.477712 -317.154434 
L 162.486141 -314.811136 
L 163.461553 -312.467838 
L 164.400768 -310.124541 
L 165.300783 -307.781243 
L 166.158815 -305.437945 
L 166.972346 -303.094647 
L 167.739161 -300.751349 
L 168.457382 -298.408051 
L 169.125495 -296.064753 
L 169.742372 -293.721455 
L 170.307274 -291.378157 
L 170.819856 -289.034859 
L 171.280153 -286.691561 
L 171.688561 -284.348263 
L 172.045807 -282.004965 
L 172.352908 -279.661668 
L 172.611131 -277.31837 
L 172.821936 -274.975072 
L 172.986929 -272.631774 
L 173.107802 -270.288476 
L 173.186285 -267.945178 
L 173.224091 -265.60188 
L 173.222875 -263.258582 
L 173.184199 -260.915284 
L 173.109499 -258.571986 
L 173.000073 -256.228688 
L 172.857074 -253.88539 
L 172.681511 -251.542092 
L 172.474271 -249.198794 
L 172.23614 -246.855497 
L 171.967842 -244.512199 
L 171.670077 -242.168901 
L 171.343572 -239.825603 
L 170.989127 -237.482305 
L 170.607668 -235.139007 
L 170.200296 -232.795709 
L 169.768322 -230.452411 
L 169.31331 -228.109113 
L 168.837095 -225.765815 
L 168.341801 -223.422517 
L 167.829838 -221.079219 
L 167.30389 -218.735921 
L 166.766883 -216.392624 
L 166.221943 -214.049326 
L 165.672344 -211.706028 
L 165.12143 -209.36273 
L 164.572547 -207.019432 
L 164.028945 -204.676134 
L 163.493694 -202.332836 
L 162.969589 -199.989538 
L 162.459051 -197.64624 
L 161.964048 -195.302942 
L 161.486007 -192.959644 
L 161.025752 -190.616346 
L 160.583445 -188.273048 
L 160.15855 -185.92975 
L 159.749814 -183.586453 
L 159.35527 -181.243155 
L 158.972257 -178.899857 
L 158.597464 -176.556559 
L 158.226998 -174.213261 
L 157.856461 -171.869963 
L 157.481056 -169.526665 
L 157.095701 -167.183367 
L 156.695155 -164.840069 
L 156.274152 -162.496771 
L 155.827541 -160.153473 
L 155.350423 -157.810175 
L 154.838288 -155.466877 
L 154.287133 -153.12358 
L 153.693586 -150.780282 
L 153.054996 -148.436984 
L 152.369514 -146.093686 
L 151.636155 -143.750388 
L 150.854834 -141.40709 
L 150.026376 -139.063792 
L 149.152513 -136.720494 
L 148.235844 -134.377196 
L 147.27979 -132.033898 
L 146.288515 -129.6906 
z
" style="stroke: #000000; stroke-opacity: 0.8"/>
    </defs>
    <g clip-path="url(#pd8b75b3cae)">
     <use xlink:href="#m8054380a32" x="0" y="454.865" style="fill: #add8e6; fill-opacity: 0.8; stroke: #000000; stroke-opacity: 0.8"/>
    </g>
   </g>
   <g id="PolyCollection_2">
    <defs>
     <path id="m6ff450ea35" d="M 388.512279 -59.0675 
L 363.754084 -59.0675 
L 363.178467 -62.631136 
L 362.613984 -66.194773 
L 362.057801 -69.758409 
L 361.505647 -73.322045 
L 360.951856 -76.885682 
L 360.389477 -80.449318 
L 359.810447 -84.012955 
L 359.205825 -87.576591 
L 358.566085 -91.140227 
L 357.88145 -94.703864 
L 357.142278 -98.2675 
L 356.339455 -101.831136 
L 355.464806 -105.394773 
L 354.511496 -108.958409 
L 353.474405 -112.522045 
L 352.350461 -116.085682 
L 351.138917 -119.649318 
L 349.841558 -123.212955 
L 348.462822 -126.776591 
L 347.009839 -130.340227 
L 345.492366 -133.903864 
L 343.922641 -137.4675 
L 342.315133 -141.031136 
L 340.686221 -144.594773 
L 339.053795 -148.158409 
L 337.436804 -151.722045 
L 335.85476 -155.285682 
L 334.327227 -158.849318 
L 332.873301 -162.412955 
L 331.511112 -165.976591 
L 330.257362 -169.540227 
L 329.126912 -173.103864 
L 328.132436 -176.6675 
L 327.284156 -180.231136 
L 326.589658 -183.794773 
L 326.053793 -187.358409 
L 325.678671 -190.922045 
L 325.463735 -194.485682 
L 325.405909 -198.049318 
L 325.49982 -201.612955 
L 325.738063 -205.176591 
L 326.11152 -208.740227 
L 326.609694 -212.303864 
L 327.221061 -215.8675 
L 327.933428 -219.431136 
L 328.734268 -222.994773 
L 329.611044 -226.558409 
L 330.551491 -230.122045 
L 331.543876 -233.685682 
L 332.577203 -237.249318 
L 333.641383 -240.812955 
L 334.727359 -244.376591 
L 335.827191 -247.940227 
L 336.934092 -251.503864 
L 338.042437 -255.0675 
L 339.147736 -258.631136 
L 340.24657 -262.194773 
L 341.336514 -265.758409 
L 342.41603 -269.322045 
L 343.484347 -272.885682 
L 344.541334 -276.449318 
L 345.587353 -280.012955 
L 346.623122 -283.576591 
L 347.649568 -287.140227 
L 348.667691 -290.703864 
L 349.67843 -294.2675 
L 350.682543 -297.831136 
L 351.680501 -301.394773 
L 352.672403 -304.958409 
L 353.657902 -308.522045 
L 354.636168 -312.085682 
L 355.605859 -315.649318 
L 356.565127 -319.212955 
L 357.511649 -322.776591 
L 358.442676 -326.340227 
L 359.355109 -329.903864 
L 360.24559 -333.4675 
L 361.110618 -337.031136 
L 361.946664 -340.594773 
L 362.750301 -344.158409 
L 363.518334 -347.722045 
L 364.247924 -351.285682 
L 364.936702 -354.849318 
L 365.582871 -358.412955 
L 366.185283 -361.976591 
L 366.743498 -365.540227 
L 367.257815 -369.103864 
L 367.729272 -372.6675 
L 368.159623 -376.231136 
L 368.551281 -379.794773 
L 368.907245 -383.358409 
L 369.230999 -386.922045 
L 369.526391 -390.485682 
L 369.797512 -394.049318 
L 370.048553 -397.612955 
L 370.283676 -401.176591 
L 370.50688 -404.740227 
L 370.721887 -408.303864 
L 370.932031 -411.8675 
L 381.334333 -411.8675 
L 381.334333 -411.8675 
L 381.544477 -408.303864 
L 381.759483 -404.740227 
L 381.982688 -401.176591 
L 382.217811 -397.612955 
L 382.468852 -394.049318 
L 382.739973 -390.485682 
L 383.035365 -386.922045 
L 383.359118 -383.358409 
L 383.715083 -379.794773 
L 384.106741 -376.231136 
L 384.537091 -372.6675 
L 385.008548 -369.103864 
L 385.522865 -365.540227 
L 386.081081 -361.976591 
L 386.683493 -358.412955 
L 387.329661 -354.849318 
L 388.018439 -351.285682 
L 388.748029 -347.722045 
L 389.516062 -344.158409 
L 390.319699 -340.594773 
L 391.155745 -337.031136 
L 392.020773 -333.4675 
L 392.911255 -329.903864 
L 393.823687 -326.340227 
L 394.754714 -322.776591 
L 395.701237 -319.212955 
L 396.660505 -315.649318 
L 397.630195 -312.085682 
L 398.608461 -308.522045 
L 399.593961 -304.958409 
L 400.585862 -301.394773 
L 401.583821 -297.831136 
L 402.587933 -294.2675 
L 403.598672 -290.703864 
L 404.616796 -287.140227 
L 405.643242 -283.576591 
L 406.679011 -280.012955 
L 407.72503 -276.449318 
L 408.782016 -272.885682 
L 409.850334 -269.322045 
L 410.929849 -265.758409 
L 412.019793 -262.194773 
L 413.118628 -258.631136 
L 414.223926 -255.0675 
L 415.332272 -251.503864 
L 416.439173 -247.940227 
L 417.539004 -244.376591 
L 418.624981 -240.812955 
L 419.689161 -237.249318 
L 420.722487 -233.685682 
L 421.714872 -230.122045 
L 422.65532 -226.558409 
L 423.532095 -222.994773 
L 424.332936 -219.431136 
L 425.045303 -215.8675 
L 425.65667 -212.303864 
L 426.154843 -208.740227 
L 426.5283 -205.176591 
L 426.766544 -201.612955 
L 426.860455 -198.049318 
L 426.802629 -194.485682 
L 426.587692 -190.922045 
L 426.21257 -187.358409 
L 425.676705 -183.794773 
L 424.982208 -180.231136 
L 424.133928 -176.6675 
L 423.139452 -173.103864 
L 422.009001 -169.540227 
L 420.755251 -165.976591 
L 419.393063 -162.412955 
L 417.939137 -158.849318 
L 416.411604 -155.285682 
L 414.82956 -151.722045 
L 413.212569 -148.158409 
L 411.580143 -144.594773 
L 409.951231 -141.031136 
L 408.343723 -137.4675 
L 406.773997 -133.903864 
L 405.256525 -130.340227 
L 403.803542 -126.776591 
L 402.424806 -123.212955 
L 401.127447 -119.649318 
L 399.915903 -116.085682 
L 398.791958 -112.522045 
L 397.754867 -108.958409 
L 396.801557 -105.394773 
L 395.926908 -101.831136 
L 395.124085 -98.2675 
L 394.384913 -94.703864 
L 393.700279 -91.140227 
L 393.060538 -87.576591 
L 392.455917 -84.012955 
L 391.876887 -80.449318 
L 391.314508 -76.885682 
L 390.760717 -73.322045 
L 390.208562 -69.758409 
L 389.65238 -66.194773 
L 389.087897 -62.631136 
L 388.512279 -59.0675 
z
" style="stroke: #000000; stroke-opacity: 0.8"/>
    </defs>
    <g clip-path="url(#pd8b75b3cae)">
     <use xlink:href="#m6ff450ea35" x="0" y="454.865" style="fill: #ffff00; fill-opacity: 0.8; stroke: #000000; stroke-opacity: 0.8"/>
    </g>
   </g>
   <g id="matplotlib.axis_1">
    <g id="xtick_1">
     <g id="line2d_1">
      <defs>
       <path id="m13352b8158" d="M 0 0 
L 0 3.5 
" style="stroke: #000000; stroke-width: 0.8"/>
      </defs>
      <g>
       <use xlink:href="#m13352b8158" x="122.496818" y="413.4375" style="stroke: #000000; stroke-width: 0.8"/>
      </g>
     </g>
     <g id="text_1">
      <!-- Ctrl -->
      <g transform="translate(113.600724 428.035937) scale(0.1 -0.1)">
       <defs>
        <path id="DejaVuSans-43" d="M 4122 4306 
L 4122 3641 
Q 3803 3938 3442 4084 
Q 3081 4231 2675 4231 
Q 1875 4231 1450 3742 
Q 1025 3253 1025 2328 
Q 1025 1406 1450 917 
Q 1875 428 2675 428 
Q 3081 428 3442 575 
Q 3803 722 4122 1019 
L 4122 359 
Q 3791 134 3420 21 
Q 3050 -91 2638 -91 
Q 1578 -91 968 557 
Q 359 1206 359 2328 
Q 359 3453 968 4101 
Q 1578 4750 2638 4750 
Q 3056 4750 3426 4639 
Q 3797 4528 4122 4306 
z
" transform="scale(0.015625)"/>
        <path id="DejaVuSans-74" d="M 1172 4494 
L 1172 3500 
L 2356 3500 
L 2356 3053 
L 1172 3053 
L 1172 1153 
Q 1172 725 1289 603 
Q 1406 481 1766 481 
L 2356 481 
L 2356 0 
L 1766 0 
Q 1100 0 847 248 
Q 594 497 594 1153 
L 594 3053 
L 172 3053 
L 172 3500 
L 594 3500 
L 594 4494 
L 1172 4494 
z
" transform="scale(0.015625)"/>
        <path id="DejaVuSans-72" d="M 2631 2963 
Q 2534 3019 2420 3045 
Q 2306 3072 2169 3072 
Q 1681 3072 1420 2755 
Q 1159 2438 1159 1844 
L 1159 0 
L 581 0 
L 581 3500 
L 1159 3500 
L 1159 2956 
Q 1341 3275 1631 3429 
Q 1922 3584 2338 3584 
Q 2397 3584 2469 3576 
Q 2541 3569 2628 3553 
L 2631 2963 
z
" transform="scale(0.015625)"/>
        <path id="DejaVuSans-6c" d="M 603 4863 
L 1178 4863 
L 1178 0 
L 603 0 
L 603 4863 
z
" transform="scale(0.015625)"/>
       </defs>
       <use xlink:href="#DejaVuSans-43"/>
       <use xlink:href="#DejaVuSans-74" x="69.824219"/>
       <use xlink:href="#DejaVuSans-72" x="109.033203"/>
       <use xlink:href="#DejaVuSans-6c" x="150.146484"/>
      </g>
     </g>
    </g>
    <g id="xtick_2">
     <g id="line2d_2">
      <g>
       <use xlink:href="#m13352b8158" x="376.133182" y="413.4375" style="stroke: #000000; stroke-width: 0.8"/>
      </g>
     </g>
     <g id="text_2">
      <!-- Cask -->
      <g transform="translate(364.077713 428.035937) scale(0.1 -0.1)">
       <defs>
        <path id="DejaVuSans-61" d="M 2194 1759 
Q 1497 1759 1228 1600 
Q 959 1441 959 1056 
Q 959 750 1161 570 
Q 1363 391 1709 391 
Q 2188 391 2477 730 
Q 2766 1069 2766 1631 
L 2766 1759 
L 2194 1759 
z
M 3341 1997 
L 3341 0 
L 2766 0 
L 2766 531 
Q 2569 213 2275 61 
Q 1981 -91 1556 -91 
Q 1019 -91 701 211 
Q 384 513 384 1019 
Q 384 1609 779 1909 
Q 1175 2209 1959 2209 
L 2766 2209 
L 2766 2266 
Q 2766 2663 2505 2880 
Q 2244 3097 1772 3097 
Q 1472 3097 1187 3025 
Q 903 2953 641 2809 
L 641 3341 
Q 956 3463 1253 3523 
Q 1550 3584 1831 3584 
Q 2591 3584 2966 3190 
Q 3341 2797 3341 1997 
z
" transform="scale(0.015625)"/>
        <path id="DejaVuSans-73" d="M 2834 3397 
L 2834 2853 
Q 2591 2978 2328 3040 
Q 2066 3103 1784 3103 
Q 1356 3103 1142 2972 
Q 928 2841 928 2578 
Q 928 2378 1081 2264 
Q 1234 2150 1697 2047 
L 1894 2003 
Q 2506 1872 2764 1633 
Q 3022 1394 3022 966 
Q 3022 478 2636 193 
Q 2250 -91 1575 -91 
Q 1294 -91 989 -36 
Q 684 19 347 128 
L 347 722 
Q 666 556 975 473 
Q 1284 391 1588 391 
Q 1994 391 2212 530 
Q 2431 669 2431 922 
Q 2431 1156 2273 1281 
Q 2116 1406 1581 1522 
L 1381 1569 
Q 847 1681 609 1914 
Q 372 2147 372 2553 
Q 372 3047 722 3315 
Q 1072 3584 1716 3584 
Q 2034 3584 2315 3537 
Q 2597 3491 2834 3397 
z
" transform="scale(0.015625)"/>
        <path id="DejaVuSans-6b" d="M 581 4863 
L 1159 4863 
L 1159 1991 
L 2875 3500 
L 3609 3500 
L 1753 1863 
L 3688 0 
L 2938 0 
L 1159 1709 
L 1159 0 
L 581 0 
L 581 4863 
z
" transform="scale(0.015625)"/>
       </defs>
       <use xlink:href="#DejaVuSans-43"/>
       <use xlink:href="#DejaVuSans-61" x="69.824219"/>
       <use xlink:href="#DejaVuSans-73" x="131.103516"/>
       <use xlink:href="#DejaVuSans-6b" x="183.203125"/>
      </g>
     </g>
    </g>
    <g id="text_3">
     <!-- Groups -->
     <g transform="translate(224.361094 444.753438) scale(0.14 -0.14)">
      <defs>
       <path id="DejaVuSans-47" d="M 3809 666 
L 3809 1919 
L 2778 1919 
L 2778 2438 
L 4434 2438 
L 4434 434 
Q 4069 175 3628 42 
Q 3188 -91 2688 -91 
Q 1594 -91 976 548 
Q 359 1188 359 2328 
Q 359 3472 976 4111 
Q 1594 4750 2688 4750 
Q 3144 4750 3555 4637 
Q 3966 4525 4313 4306 
L 4313 3634 
Q 3963 3931 3569 4081 
Q 3175 4231 2741 4231 
Q 1884 4231 1454 3753 
Q 1025 3275 1025 2328 
Q 1025 1384 1454 906 
Q 1884 428 2741 428 
Q 3075 428 3337 486 
Q 3600 544 3809 666 
z
" transform="scale(0.015625)"/>
       <path id="DejaVuSans-6f" d="M 1959 3097 
Q 1497 3097 1228 2736 
Q 959 2375 959 1747 
Q 959 1119 1226 758 
Q 1494 397 1959 397 
Q 2419 397 2687 759 
Q 2956 1122 2956 1747 
Q 2956 2369 2687 2733 
Q 2419 3097 1959 3097 
z
M 1959 3584 
Q 2709 3584 3137 3096 
Q 3566 2609 3566 1747 
Q 3566 888 3137 398 
Q 2709 -91 1959 -91 
Q 1206 -91 779 398 
Q 353 888 353 1747 
Q 353 2609 779 3096 
Q 1206 3584 1959 3584 
z
" transform="scale(0.015625)"/>
       <path id="DejaVuSans-75" d="M 544 1381 
L 544 3500 
L 1119 3500 
L 1119 1403 
Q 1119 906 1312 657 
Q 1506 409 1894 409 
Q 2359 409 2629 706 
Q 2900 1003 2900 1516 
L 2900 3500 
L 3475 3500 
L 3475 0 
L 2900 0 
L 2900 538 
Q 2691 219 2414 64 
Q 2138 -91 1772 -91 
Q 1169 -91 856 284 
Q 544 659 544 1381 
z
M 1991 3584 
L 1991 3584 
z
" transform="scale(0.015625)"/>
       <path id="DejaVuSans-70" d="M 1159 525 
L 1159 -1331 
L 581 -1331 
L 581 3500 
L 1159 3500 
L 1159 2969 
Q 1341 3281 1617 3432 
Q 1894 3584 2278 3584 
Q 2916 3584 3314 3078 
Q 3713 2572 3713 1747 
Q 3713 922 3314 415 
Q 2916 -91 2278 -91 
Q 1894 -91 1617 61 
Q 1341 213 1159 525 
z
M 3116 1747 
Q 3116 2381 2855 2742 
Q 2594 3103 2138 3103 
Q 1681 3103 1420 2742 
Q 1159 2381 1159 1747 
Q 1159 1113 1420 752 
Q 1681 391 2138 391 
Q 2594 391 2855 752 
Q 3116 1113 3116 1747 
z
" transform="scale(0.015625)"/>
      </defs>
      <use xlink:href="#DejaVuSans-47"/>
      <use xlink:href="#DejaVuSans-72" x="77.490234"/>
      <use xlink:href="#DejaVuSans-6f" x="116.353516"/>
      <use xlink:href="#DejaVuSans-75" x="177.535156"/>
      <use xlink:href="#DejaVuSans-70" x="240.914062"/>
      <use xlink:href="#DejaVuSans-73" x="304.390625"/>
     </g>
    </g>
   </g>
   <g id="matplotlib.axis_2">
    <g id="ytick_1">
     <g id="line2d_3">
      <defs>
       <path id="m0aa0c89b02" d="M 0 0 
L -3.5 0 
" style="stroke: #000000; stroke-width: 0.8"/>
      </defs>
      <g>
       <use xlink:href="#m0aa0c89b02" x="54.015" y="385.948941" style="stroke: #000000; stroke-width: 0.8"/>
      </g>
     </g>
     <g id="text_4">
      <!-- 40.0 -->
      <g transform="translate(24.749375 389.74816) scale(0.1 -0.1)">
       <defs>
        <path id="DejaVuSans-34" d="M 2419 4116 
L 825 1625 
L 2419 1625 
L 2419 4116 
z
M 2253 4666 
L 3047 4666 
L 3047 1625 
L 3713 1625 
L 3713 1100 
L 3047 1100 
L 3047 0 
L 2419 0 
L 2419 1100 
L 313 1100 
L 313 1709 
L 2253 4666 
z
" transform="scale(0.015625)"/>
        <path id="DejaVuSans-30" d="M 2034 4250 
Q 1547 4250 1301 3770 
Q 1056 3291 1056 2328 
Q 1056 1369 1301 889 
Q 1547 409 2034 409 
Q 2525 409 2770 889 
Q 3016 1369 3016 2328 
Q 3016 3291 2770 3770 
Q 2525 4250 2034 4250 
z
M 2034 4750 
Q 2819 4750 3233 4129 
Q 3647 3509 3647 2328 
Q 3647 1150 3233 529 
Q 2819 -91 2034 -91 
Q 1250 -91 836 529 
Q 422 1150 422 2328 
Q 422 3509 836 4129 
Q 1250 4750 2034 4750 
z
" transform="scale(0.015625)"/>
        <path id="DejaVuSans-2e" d="M 684 794 
L 1344 794 
L 1344 0 
L 684 0 
L 684 794 
z
" transform="scale(0.015625)"/>
       </defs>
       <use xlink:href="#DejaVuSans-34"/>
       <use xlink:href="#DejaVuSans-30" x="63.623047"/>
       <use xlink:href="#DejaVuSans-2e" x="127.246094"/>
       <use xlink:href="#DejaVuSans-30" x="159.033203"/>
      </g>
     </g>
    </g>
    <g id="ytick_2">
     <g id="line2d_4">
      <g>
       <use xlink:href="#m0aa0c89b02" x="54.015" y="340.666876" style="stroke: #000000; stroke-width: 0.8"/>
      </g>
     </g>
     <g id="text_5">
      <!-- 42.5 -->
      <g transform="translate(24.749375 344.466095) scale(0.1 -0.1)">
       <defs>
        <path id="DejaVuSans-32" d="M 1228 531 
L 3431 531 
L 3431 0 
L 469 0 
L 469 531 
Q 828 903 1448 1529 
Q 2069 2156 2228 2338 
Q 2531 2678 2651 2914 
Q 2772 3150 2772 3378 
Q 2772 3750 2511 3984 
Q 2250 4219 1831 4219 
Q 1534 4219 1204 4116 
Q 875 4013 500 3803 
L 500 4441 
Q 881 4594 1212 4672 
Q 1544 4750 1819 4750 
Q 2544 4750 2975 4387 
Q 3406 4025 3406 3419 
Q 3406 3131 3298 2873 
Q 3191 2616 2906 2266 
Q 2828 2175 2409 1742 
Q 1991 1309 1228 531 
z
" transform="scale(0.015625)"/>
        <path id="DejaVuSans-35" d="M 691 4666 
L 3169 4666 
L 3169 4134 
L 1269 4134 
L 1269 2991 
Q 1406 3038 1543 3061 
Q 1681 3084 1819 3084 
Q 2600 3084 3056 2656 
Q 3513 2228 3513 1497 
Q 3513 744 3044 326 
Q 2575 -91 1722 -91 
Q 1428 -91 1123 -41 
Q 819 9 494 109 
L 494 744 
Q 775 591 1075 516 
Q 1375 441 1709 441 
Q 2250 441 2565 725 
Q 2881 1009 2881 1497 
Q 2881 1984 2565 2268 
Q 2250 2553 1709 2553 
Q 1456 2553 1204 2497 
Q 953 2441 691 2322 
L 691 4666 
z
" transform="scale(0.015625)"/>
       </defs>
       <use xlink:href="#DejaVuSans-34"/>
       <use xlink:href="#DejaVuSans-32" x="63.623047"/>
       <use xlink:href="#DejaVuSans-2e" x="127.246094"/>
       <use xlink:href="#DejaVuSans-35" x="159.033203"/>
      </g>
     </g>
    </g>
    <g id="ytick_3">
     <g id="line2d_5">
      <g>
       <use xlink:href="#m0aa0c89b02" x="54.015" y="295.384812" style="stroke: #000000; stroke-width: 0.8"/>
      </g>
     </g>
     <g id="text_6">
      <!-- 45.0 -->
      <g transform="translate(24.749375 299.184031) scale(0.1 -0.1)">
       <use xlink:href="#DejaVuSans-34"/>
       <use xlink:href="#DejaVuSans-35" x="63.623047"/>
       <use xlink:href="#DejaVuSans-2e" x="127.246094"/>
       <use xlink:href="#DejaVuSans-30" x="159.033203"/>
      </g>
     </g>
    </g>
    <g id="ytick_4">
     <g id="line2d_6">
      <g>
       <use xlink:href="#m0aa0c89b02" x="54.015" y="250.102748" style="stroke: #000000; stroke-width: 0.8"/>
      </g>
     </g>
     <g id="text_7">
      <!-- 47.5 -->
      <g transform="translate(24.749375 253.901967) scale(0.1 -0.1)">
       <defs>
        <path id="DejaVuSans-37" d="M 525 4666 
L 3525 4666 
L 3525 4397 
L 1831 0 
L 1172 0 
L 2766 4134 
L 525 4134 
L 525 4666 
z
" transform="scale(0.015625)"/>
       </defs>
       <use xlink:href="#DejaVuSans-34"/>
       <use xlink:href="#DejaVuSans-37" x="63.623047"/>
       <use xlink:href="#DejaVuSans-2e" x="127.246094"/>
       <use xlink:href="#DejaVuSans-35" x="159.033203"/>
      </g>
     </g>
    </g>
    <g id="ytick_5">
     <g id="line2d_7">
      <g>
       <use xlink:href="#m0aa0c89b02" x="54.015" y="204.820684" style="stroke: #000000; stroke-width: 0.8"/>
      </g>
     </g>
     <g id="text_8">
      <!-- 50.0 -->
      <g transform="translate(24.749375 208.619902) scale(0.1 -0.1)">
       <use xlink:href="#DejaVuSans-35"/>
       <use xlink:href="#DejaVuSans-30" x="63.623047"/>
       <use xlink:href="#DejaVuSans-2e" x="127.246094"/>
       <use xlink:href="#DejaVuSans-30" x="159.033203"/>
      </g>
     </g>
    </g>
    <g id="ytick_6">
     <g id="line2d_8">
      <g>
       <use xlink:href="#m0aa0c89b02" x="54.015" y="159.538619" style="stroke: #000000; stroke-width: 0.8"/>
      </g>
     </g>
     <g id="text_9">
      <!-- 52.5 -->
      <g transform="translate(24.749375 163.337838) scale(0.1 -0.1)">
       <use xlink:href="#DejaVuSans-35"/>
       <use xlink:href="#DejaVuSans-32" x="63.623047"/>
       <use xlink:href="#DejaVuSans-2e" x="127.246094"/>
       <use xlink:href="#DejaVuSans-35" x="159.033203"/>
      </g>
     </g>
    </g>
    <g id="ytick_7">
     <g id="line2d_9">
      <g>
       <use xlink:href="#m0aa0c89b02" x="54.015" y="114.256555" style="stroke: #000000; stroke-width: 0.8"/>
      </g>
     </g>
     <g id="text_10">
      <!-- 55.0 -->
      <g transform="translate(24.749375 118.055774) scale(0.1 -0.1)">
       <use xlink:href="#DejaVuSans-35"/>
       <use xlink:href="#DejaVuSans-35" x="63.623047"/>
       <use xlink:href="#DejaVuSans-2e" x="127.246094"/>
       <use xlink:href="#DejaVuSans-30" x="159.033203"/>
      </g>
     </g>
    </g>
    <g id="ytick_8">
     <g id="line2d_10">
      <g>
       <use xlink:href="#m0aa0c89b02" x="54.015" y="68.974491" style="stroke: #000000; stroke-width: 0.8"/>
      </g>
     </g>
     <g id="text_11">
      <!-- 57.5 -->
      <g transform="translate(24.749375 72.773709) scale(0.1 -0.1)">
       <use xlink:href="#DejaVuSans-35"/>
       <use xlink:href="#DejaVuSans-37" x="63.623047"/>
       <use xlink:href="#DejaVuSans-2e" x="127.246094"/>
       <use xlink:href="#DejaVuSans-35" x="159.033203"/>
      </g>
     </g>
    </g>
    <g id="text_12">
     <!-- Learning Score -->
     <g transform="translate(17.837813 271.616406) rotate(-90) scale(0.14 -0.14)">
      <defs>
       <path id="DejaVuSans-4c" d="M 628 4666 
L 1259 4666 
L 1259 531 
L 3531 531 
L 3531 0 
L 628 0 
L 628 4666 
z
" transform="scale(0.015625)"/>
       <path id="DejaVuSans-65" d="M 3597 1894 
L 3597 1613 
L 953 1613 
Q 991 1019 1311 708 
Q 1631 397 2203 397 
Q 2534 397 2845 478 
Q 3156 559 3463 722 
L 3463 178 
Q 3153 47 2828 -22 
Q 2503 -91 2169 -91 
Q 1331 -91 842 396 
Q 353 884 353 1716 
Q 353 2575 817 3079 
Q 1281 3584 2069 3584 
Q 2775 3584 3186 3129 
Q 3597 2675 3597 1894 
z
M 3022 2063 
Q 3016 2534 2758 2815 
Q 2500 3097 2075 3097 
Q 1594 3097 1305 2825 
Q 1016 2553 972 2059 
L 3022 2063 
z
" transform="scale(0.015625)"/>
       <path id="DejaVuSans-6e" d="M 3513 2113 
L 3513 0 
L 2938 0 
L 2938 2094 
Q 2938 2591 2744 2837 
Q 2550 3084 2163 3084 
Q 1697 3084 1428 2787 
Q 1159 2491 1159 1978 
L 1159 0 
L 581 0 
L 581 3500 
L 1159 3500 
L 1159 2956 
Q 1366 3272 1645 3428 
Q 1925 3584 2291 3584 
Q 2894 3584 3203 3211 
Q 3513 2838 3513 2113 
z
" transform="scale(0.015625)"/>
       <path id="DejaVuSans-69" d="M 603 3500 
L 1178 3500 
L 1178 0 
L 603 0 
L 603 3500 
z
M 603 4863 
L 1178 4863 
L 1178 4134 
L 603 4134 
L 603 4863 
z
" transform="scale(0.015625)"/>
       <path id="DejaVuSans-67" d="M 2906 1791 
Q 2906 2416 2648 2759 
Q 2391 3103 1925 3103 
Q 1463 3103 1205 2759 
Q 947 2416 947 1791 
Q 947 1169 1205 825 
Q 1463 481 1925 481 
Q 2391 481 2648 825 
Q 2906 1169 2906 1791 
z
M 3481 434 
Q 3481 -459 3084 -895 
Q 2688 -1331 1869 -1331 
Q 1566 -1331 1297 -1286 
Q 1028 -1241 775 -1147 
L 775 -588 
Q 1028 -725 1275 -790 
Q 1522 -856 1778 -856 
Q 2344 -856 2625 -561 
Q 2906 -266 2906 331 
L 2906 616 
Q 2728 306 2450 153 
Q 2172 0 1784 0 
Q 1141 0 747 490 
Q 353 981 353 1791 
Q 353 2603 747 3093 
Q 1141 3584 1784 3584 
Q 2172 3584 2450 3431 
Q 2728 3278 2906 2969 
L 2906 3500 
L 3481 3500 
L 3481 434 
z
" transform="scale(0.015625)"/>
       <path id="DejaVuSans-20" transform="scale(0.015625)"/>
       <path id="DejaVuSans-53" d="M 3425 4513 
L 3425 3897 
Q 3066 4069 2747 4153 
Q 2428 4238 2131 4238 
Q 1616 4238 1336 4038 
Q 1056 3838 1056 3469 
Q 1056 3159 1242 3001 
Q 1428 2844 1947 2747 
L 2328 2669 
Q 3034 2534 3370 2195 
Q 3706 1856 3706 1288 
Q 3706 609 3251 259 
Q 2797 -91 1919 -91 
Q 1588 -91 1214 -16 
Q 841 59 441 206 
L 441 856 
Q 825 641 1194 531 
Q 1563 422 1919 422 
Q 2459 422 2753 634 
Q 3047 847 3047 1241 
Q 3047 1584 2836 1778 
Q 2625 1972 2144 2069 
L 1759 2144 
Q 1053 2284 737 2584 
Q 422 2884 422 3419 
Q 422 4038 858 4394 
Q 1294 4750 2059 4750 
Q 2388 4750 2728 4690 
Q 3069 4631 3425 4513 
z
" transform="scale(0.015625)"/>
       <path id="DejaVuSans-63" d="M 3122 3366 
L 3122 2828 
Q 2878 2963 2633 3030 
Q 2388 3097 2138 3097 
Q 1578 3097 1268 2742 
Q 959 2388 959 1747 
Q 959 1106 1268 751 
Q 1578 397 2138 397 
Q 2388 397 2633 464 
Q 2878 531 3122 666 
L 3122 134 
Q 2881 22 2623 -34 
Q 2366 -91 2075 -91 
Q 1284 -91 818 406 
Q 353 903 353 1747 
Q 353 2603 823 3093 
Q 1294 3584 2113 3584 
Q 2378 3584 2631 3529 
Q 2884 3475 3122 3366 
z
" transform="scale(0.015625)"/>
      </defs>
      <use xlink:href="#DejaVuSans-4c"/>
      <use xlink:href="#DejaVuSans-65" x="53.962891"/>
      <use xlink:href="#DejaVuSans-61" x="115.486328"/>
      <use xlink:href="#DejaVuSans-72" x="176.765625"/>
      <use xlink:href="#DejaVuSans-6e" x="216.128906"/>
      <use xlink:href="#DejaVuSans-69" x="279.507812"/>
      <use xlink:href="#DejaVuSans-6e" x="307.291016"/>
      <use xlink:href="#DejaVuSans-67" x="370.669922"/>
      <use xlink:href="#DejaVuSans-20" x="434.146484"/>
      <use xlink:href="#DejaVuSans-53" x="465.933594"/>
      <use xlink:href="#DejaVuSans-63" x="529.410156"/>
      <use xlink:href="#DejaVuSans-6f" x="584.390625"/>
      <use xlink:href="#DejaVuSans-72" x="645.572266"/>
      <use xlink:href="#DejaVuSans-65" x="684.435547"/>
     </g>
    </g>
   </g>
   <g id="patch_3">
    <path d="M 54.015 413.4375 
L 54.015 25.3575 
" style="fill: none; stroke: #000000; stroke-width: 0.8; stroke-linejoin: miter; stroke-linecap: square"/>
   </g>
   <g id="patch_4">
    <path d="M 444.615 413.4375 
L 444.615 25.3575 
" style="fill: none; stroke: #000000; stroke-width: 0.8; stroke-linejoin: miter; stroke-linecap: square"/>
   </g>
   <g id="patch_5">
    <path d="M 54.015 413.4375 
L 444.615 413.4375 
" style="fill: none; stroke: #000000; stroke-width: 0.8; stroke-linejoin: miter; stroke-linecap: square"/>
   </g>
   <g id="patch_6">
    <path d="M 54.015 25.3575 
L 444.615 25.3575 
" style="fill: none; stroke: #000000; stroke-width: 0.8; stroke-linejoin: miter; stroke-linecap: square"/>
   </g>
   <g id="PathCollection_1">
    <defs>
     <path id="m6812e6f7fd" d="M 0 3 
C 0.795609 3 1.55874 2.683901 2.12132 2.12132 
C 2.683901 1.55874 3 0.795609 3 0 
C 3 -0.795609 2.683901 -1.55874 2.12132 -2.12132 
C 1.55874 -2.683901 0.795609 -3 0 -3 
C -0.795609 -3 -1.55874 -2.683901 -2.12132 -2.12132 
C -2.683901 -1.55874 -3 -0.795609 -3 0 
C -3 0.795609 -2.683901 1.55874 -2.12132 2.12132 
C -1.55874 2.683901 -0.795609 3 0 3 
z
" style="stroke: #1405eb; stroke-opacity: 0.8"/>
    </defs>
    <g clip-path="url(#pd8b75b3cae)">
     <use xlink:href="#m6812e6f7fd" x="116.896071" y="93.187905" style="fill: #1405eb; fill-opacity: 0.8; stroke: #1405eb; stroke-opacity: 0.8"/>
     <use xlink:href="#m6812e6f7fd" x="124.296539" y="325.1744" style="fill: #1405eb; fill-opacity: 0.8; stroke: #1405eb; stroke-opacity: 0.8"/>
     <use xlink:href="#m6812e6f7fd" x="116.286173" y="160.804235" style="fill: #1405eb; fill-opacity: 0.8; stroke: #1405eb; stroke-opacity: 0.8"/>
     <use xlink:href="#m6812e6f7fd" x="120.848474" y="178.267454" style="fill: #1405eb; fill-opacity: 0.8; stroke: #1405eb; stroke-opacity: 0.8"/>
     <use xlink:href="#m6812e6f7fd" x="125.803362" y="238.07652" style="fill: #1405eb; fill-opacity: 0.8; stroke: #1405eb; stroke-opacity: 0.8"/>
     <use xlink:href="#m6812e6f7fd" x="125.209844" y="109.602135" style="fill: #1405eb; fill-opacity: 0.8; stroke: #1405eb; stroke-opacity: 0.8"/>
     <use xlink:href="#m6812e6f7fd" x="112.306222" y="217.807232" style="fill: #1405eb; fill-opacity: 0.8; stroke: #1405eb; stroke-opacity: 0.8"/>
     <use xlink:href="#m6812e6f7fd" x="118.992724" y="186.455594" style="fill: #1405eb; fill-opacity: 0.8; stroke: #1405eb; stroke-opacity: 0.8"/>
     <use xlink:href="#m6812e6f7fd" x="127.107328" y="280.200447" style="fill: #1405eb; fill-opacity: 0.8; stroke: #1405eb; stroke-opacity: 0.8"/>
     <use xlink:href="#m6812e6f7fd" x="133.922762" y="297.796748" style="fill: #1405eb; fill-opacity: 0.8; stroke: #1405eb; stroke-opacity: 0.8"/>
     <use xlink:href="#m6812e6f7fd" x="122.118497" y="130.924826" style="fill: #1405eb; fill-opacity: 0.8; stroke: #1405eb; stroke-opacity: 0.8"/>
     <use xlink:href="#m6812e6f7fd" x="115.977698" y="166.933426" style="fill: #1405eb; fill-opacity: 0.8; stroke: #1405eb; stroke-opacity: 0.8"/>
     <use xlink:href="#m6812e6f7fd" x="118.049522" y="162.173971" style="fill: #1405eb; fill-opacity: 0.8; stroke: #1405eb; stroke-opacity: 0.8"/>
     <use xlink:href="#m6812e6f7fd" x="129.469467" y="212.034233" style="fill: #1405eb; fill-opacity: 0.8; stroke: #1405eb; stroke-opacity: 0.8"/>
     <use xlink:href="#m6812e6f7fd" x="125.179685" y="305.841151" style="fill: #1405eb; fill-opacity: 0.8; stroke: #1405eb; stroke-opacity: 0.8"/>
     <use xlink:href="#m6812e6f7fd" x="110.351528" y="258.851667" style="fill: #1405eb; fill-opacity: 0.8; stroke: #1405eb; stroke-opacity: 0.8"/>
     <use xlink:href="#m6812e6f7fd" x="134.37429" y="240.458576" style="fill: #1405eb; fill-opacity: 0.8; stroke: #1405eb; stroke-opacity: 0.8"/>
     <use xlink:href="#m6812e6f7fd" x="113.237718" y="167.828873" style="fill: #1405eb; fill-opacity: 0.8; stroke: #1405eb; stroke-opacity: 0.8"/>
     <use xlink:href="#m6812e6f7fd" x="114.208001" y="221.238474" style="fill: #1405eb; fill-opacity: 0.8; stroke: #1405eb; stroke-opacity: 0.8"/>
     <use xlink:href="#m6812e6f7fd" x="110.251807" y="310.566567" style="fill: #1405eb; fill-opacity: 0.8; stroke: #1405eb; stroke-opacity: 0.8"/>
     <use xlink:href="#m6812e6f7fd" x="131.716231" y="130.525208" style="fill: #1405eb; fill-opacity: 0.8; stroke: #1405eb; stroke-opacity: 0.8"/>
     <use xlink:href="#m6812e6f7fd" x="118.473537" y="216.148306" style="fill: #1405eb; fill-opacity: 0.8; stroke: #1405eb; stroke-opacity: 0.8"/>
     <use xlink:href="#m6812e6f7fd" x="123.568896" y="146.933807" style="fill: #1405eb; fill-opacity: 0.8; stroke: #1405eb; stroke-opacity: 0.8"/>
     <use xlink:href="#m6812e6f7fd" x="128.173647" y="194.435555" style="fill: #1405eb; fill-opacity: 0.8; stroke: #1405eb; stroke-opacity: 0.8"/>
     <use xlink:href="#m6812e6f7fd" x="134.261672" y="249.521134" style="fill: #1405eb; fill-opacity: 0.8; stroke: #1405eb; stroke-opacity: 0.8"/>
     <use xlink:href="#m6812e6f7fd" x="125.645646" y="308.658037" style="fill: #1405eb; fill-opacity: 0.8; stroke: #1405eb; stroke-opacity: 0.8"/>
    </g>
   </g>
   <g id="PathCollection_2">
    <defs>
     <path id="mf4d3b6ee91" d="M 0 3 
C 0.795609 3 1.55874 2.683901 2.12132 2.12132 
C 2.683901 1.55874 3 0.795609 3 0 
C 3 -0.795609 2.683901 -1.55874 2.12132 -2.12132 
C 1.55874 -2.683901 0.795609 -3 0 -3 
C -0.795609 -3 -1.55874 -2.683901 -2.12132 -2.12132 
C -2.683901 -1.55874 -3 -0.795609 -3 0 
C -3 0.795609 -2.683901 1.55874 -2.12132 2.12132 
C -1.55874 2.683901 -0.795609 3 0 3 
z
" style="stroke: #f28211; stroke-opacity: 0.8"/>
    </defs>
    <g clip-path="url(#pd8b75b3cae)">
     <use xlink:href="#mf4d3b6ee91" x="375.226016" y="141.194506" style="fill: #f28211; fill-opacity: 0.8; stroke: #f28211; stroke-opacity: 0.8"/>
     <use xlink:href="#mf4d3b6ee91" x="370.139611" y="268.791626" style="fill: #f28211; fill-opacity: 0.8; stroke: #f28211; stroke-opacity: 0.8"/>
     <use xlink:href="#mf4d3b6ee91" x="378.75825" y="206.863644" style="fill: #f28211; fill-opacity: 0.8; stroke: #f28211; stroke-opacity: 0.8"/>
     <use xlink:href="#mf4d3b6ee91" x="381.486541" y="296.820521" style="fill: #f28211; fill-opacity: 0.8; stroke: #f28211; stroke-opacity: 0.8"/>
     <use xlink:href="#mf4d3b6ee91" x="371.501707" y="160.060255" style="fill: #f28211; fill-opacity: 0.8; stroke: #f28211; stroke-opacity: 0.8"/>
     <use xlink:href="#mf4d3b6ee91" x="367.618522" y="308.658408" style="fill: #f28211; fill-opacity: 0.8; stroke: #f28211; stroke-opacity: 0.8"/>
     <use xlink:href="#mf4d3b6ee91" x="367.470114" y="285.058336" style="fill: #f28211; fill-opacity: 0.8; stroke: #f28211; stroke-opacity: 0.8"/>
     <use xlink:href="#mf4d3b6ee91" x="368.028366" y="378.082603" style="fill: #f28211; fill-opacity: 0.8; stroke: #f28211; stroke-opacity: 0.8"/>
     <use xlink:href="#mf4d3b6ee91" x="382.194332" y="216.35239" style="fill: #f28211; fill-opacity: 0.8; stroke: #f28211; stroke-opacity: 0.8"/>
     <use xlink:href="#mf4d3b6ee91" x="366.795133" y="42.9975" style="fill: #f28211; fill-opacity: 0.8; stroke: #f28211; stroke-opacity: 0.8"/>
     <use xlink:href="#mf4d3b6ee91" x="365.393826" y="266.930263" style="fill: #f28211; fill-opacity: 0.8; stroke: #f28211; stroke-opacity: 0.8"/>
     <use xlink:href="#mf4d3b6ee91" x="386.702239" y="287.421651" style="fill: #f28211; fill-opacity: 0.8; stroke: #f28211; stroke-opacity: 0.8"/>
     <use xlink:href="#mf4d3b6ee91" x="373.811061" y="175.289885" style="fill: #f28211; fill-opacity: 0.8; stroke: #f28211; stroke-opacity: 0.8"/>
     <use xlink:href="#mf4d3b6ee91" x="364.63479" y="268.216751" style="fill: #f28211; fill-opacity: 0.8; stroke: #f28211; stroke-opacity: 0.8"/>
     <use xlink:href="#mf4d3b6ee91" x="363.705305" y="236.564842" style="fill: #f28211; fill-opacity: 0.8; stroke: #f28211; stroke-opacity: 0.8"/>
     <use xlink:href="#mf4d3b6ee91" x="386.489821" y="227.720599" style="fill: #f28211; fill-opacity: 0.8; stroke: #f28211; stroke-opacity: 0.8"/>
     <use xlink:href="#mf4d3b6ee91" x="383.77622" y="368.153734" style="fill: #f28211; fill-opacity: 0.8; stroke: #f28211; stroke-opacity: 0.8"/>
     <use xlink:href="#mf4d3b6ee91" x="380.76789" y="223.849101" style="fill: #f28211; fill-opacity: 0.8; stroke: #f28211; stroke-opacity: 0.8"/>
     <use xlink:href="#mf4d3b6ee91" x="385.220869" y="395.7975" style="fill: #f28211; fill-opacity: 0.8; stroke: #f28211; stroke-opacity: 0.8"/>
     <use xlink:href="#mf4d3b6ee91" x="379.149766" y="122.645494" style="fill: #f28211; fill-opacity: 0.8; stroke: #f28211; stroke-opacity: 0.8"/>
     <use xlink:href="#mf4d3b6ee91" x="380.716266" y="271.756128" style="fill: #f28211; fill-opacity: 0.8; stroke: #f28211; stroke-opacity: 0.8"/>
     <use xlink:href="#mf4d3b6ee91" x="387.656228" y="183.811312" style="fill: #f28211; fill-opacity: 0.8; stroke: #f28211; stroke-opacity: 0.8"/>
     <use xlink:href="#mf4d3b6ee91" x="363.833747" y="271.153532" style="fill: #f28211; fill-opacity: 0.8; stroke: #f28211; stroke-opacity: 0.8"/>
     <use xlink:href="#mf4d3b6ee91" x="369.354285" y="255.837801" style="fill: #f28211; fill-opacity: 0.8; stroke: #f28211; stroke-opacity: 0.8"/>
    </g>
   </g>
   <g id="text_13">
    <!-- Learning Score Ctrl and Cask Groups with 0.5 Data -->
    <g transform="translate(45.95125 19.3575) scale(0.16 -0.16)">
     <defs>
      <path id="DejaVuSans-64" d="M 2906 2969 
L 2906 4863 
L 3481 4863 
L 3481 0 
L 2906 0 
L 2906 525 
Q 2725 213 2448 61 
Q 2172 -91 1784 -91 
Q 1150 -91 751 415 
Q 353 922 353 1747 
Q 353 2572 751 3078 
Q 1150 3584 1784 3584 
Q 2172 3584 2448 3432 
Q 2725 3281 2906 2969 
z
M 947 1747 
Q 947 1113 1208 752 
Q 1469 391 1925 391 
Q 2381 391 2643 752 
Q 2906 1113 2906 1747 
Q 2906 2381 2643 2742 
Q 2381 3103 1925 3103 
Q 1469 3103 1208 2742 
Q 947 2381 947 1747 
z
" transform="scale(0.015625)"/>
      <path id="DejaVuSans-77" d="M 269 3500 
L 844 3500 
L 1563 769 
L 2278 3500 
L 2956 3500 
L 3675 769 
L 4391 3500 
L 4966 3500 
L 4050 0 
L 3372 0 
L 2619 2869 
L 1863 0 
L 1184 0 
L 269 3500 
z
" transform="scale(0.015625)"/>
      <path id="DejaVuSans-68" d="M 3513 2113 
L 3513 0 
L 2938 0 
L 2938 2094 
Q 2938 2591 2744 2837 
Q 2550 3084 2163 3084 
Q 1697 3084 1428 2787 
Q 1159 2491 1159 1978 
L 1159 0 
L 581 0 
L 581 4863 
L 1159 4863 
L 1159 2956 
Q 1366 3272 1645 3428 
Q 1925 3584 2291 3584 
Q 2894 3584 3203 3211 
Q 3513 2838 3513 2113 
z
" transform="scale(0.015625)"/>
      <path id="DejaVuSans-44" d="M 1259 4147 
L 1259 519 
L 2022 519 
Q 2988 519 3436 956 
Q 3884 1394 3884 2338 
Q 3884 3275 3436 3711 
Q 2988 4147 2022 4147 
L 1259 4147 
z
M 628 4666 
L 1925 4666 
Q 3281 4666 3915 4102 
Q 4550 3538 4550 2338 
Q 4550 1131 3912 565 
Q 3275 0 1925 0 
L 628 0 
L 628 4666 
z
" transform="scale(0.015625)"/>
     </defs>
     <use xlink:href="#DejaVuSans-4c"/>
     <use xlink:href="#DejaVuSans-65" x="53.962891"/>
     <use xlink:href="#DejaVuSans-61" x="115.486328"/>
     <use xlink:href="#DejaVuSans-72" x="176.765625"/>
     <use xlink:href="#DejaVuSans-6e" x="216.128906"/>
     <use xlink:href="#DejaVuSans-69" x="279.507812"/>
     <use xlink:href="#DejaVuSans-6e" x="307.291016"/>
     <use xlink:href="#DejaVuSans-67" x="370.669922"/>
     <use xlink:href="#DejaVuSans-20" x="434.146484"/>
     <use xlink:href="#DejaVuSans-53" x="465.933594"/>
     <use xlink:href="#DejaVuSans-63" x="529.410156"/>
     <use xlink:href="#DejaVuSans-6f" x="584.390625"/>
     <use xlink:href="#DejaVuSans-72" x="645.572266"/>
     <use xlink:href="#DejaVuSans-65" x="684.435547"/>
     <use xlink:href="#DejaVuSans-20" x="745.958984"/>
     <use xlink:href="#DejaVuSans-43" x="777.746094"/>
     <use xlink:href="#DejaVuSans-74" x="847.570312"/>
     <use xlink:href="#DejaVuSans-72" x="886.779297"/>
     <use xlink:href="#DejaVuSans-6c" x="927.892578"/>
     <use xlink:href="#DejaVuSans-20" x="955.675781"/>
     <use xlink:href="#DejaVuSans-61" x="987.462891"/>
     <use xlink:href="#DejaVuSans-6e" x="1048.742188"/>
     <use xlink:href="#DejaVuSans-64" x="1112.121094"/>
     <use xlink:href="#DejaVuSans-20" x="1175.597656"/>
     <use xlink:href="#DejaVuSans-43" x="1207.384766"/>
     <use xlink:href="#DejaVuSans-61" x="1277.208984"/>
     <use xlink:href="#DejaVuSans-73" x="1338.488281"/>
     <use xlink:href="#DejaVuSans-6b" x="1390.587891"/>
     <use xlink:href="#DejaVuSans-20" x="1448.498047"/>
     <use xlink:href="#DejaVuSans-47" x="1480.285156"/>
     <use xlink:href="#DejaVuSans-72" x="1557.775391"/>
     <use xlink:href="#DejaVuSans-6f" x="1596.638672"/>
     <use xlink:href="#DejaVuSans-75" x="1657.820312"/>
     <use xlink:href="#DejaVuSans-70" x="1721.199219"/>
     <use xlink:href="#DejaVuSans-73" x="1784.675781"/>
     <use xlink:href="#DejaVuSans-20" x="1836.775391"/>
     <use xlink:href="#DejaVuSans-77" x="1868.5625"/>
     <use xlink:href="#DejaVuSans-69" x="1950.349609"/>
     <use xlink:href="#DejaVuSans-74" x="1978.132812"/>
     <use xlink:href="#DejaVuSans-68" x="2017.341797"/>
     <use xlink:href="#DejaVuSans-20" x="2080.720703"/>
     <use xlink:href="#DejaVuSans-30" x="2112.507812"/>
     <use xlink:href="#DejaVuSans-2e" x="2176.130859"/>
     <use xlink:href="#DejaVuSans-35" x="2207.917969"/>
     <use xlink:href="#DejaVuSans-20" x="2271.541016"/>
     <use xlink:href="#DejaVuSans-44" x="2303.328125"/>
     <use xlink:href="#DejaVuSans-61" x="2380.330078"/>
     <use xlink:href="#DejaVuSans-74" x="2441.609375"/>
     <use xlink:href="#DejaVuSans-61" x="2480.818359"/>
    </g>
   </g>
   <g id="legend_1">
    <g id="patch_7">
     <path d="M 61.015 62.71375 
L 161.905625 62.71375 
Q 163.905625 62.71375 163.905625 60.71375 
L 163.905625 32.3575 
Q 163.905625 30.3575 161.905625 30.3575 
L 61.015 30.3575 
Q 59.015 30.3575 59.015 32.3575 
L 59.015 60.71375 
Q 59.015 62.71375 61.015 62.71375 
z
" style="fill: #ffffff; opacity: 0.8; stroke: #cccccc; stroke-linejoin: miter"/>
    </g>
    <g id="patch_8">
     <path d="M 63.015 41.955938 
L 83.015 41.955938 
L 83.015 34.955938 
L 63.015 34.955938 
z
" style="fill: #add8e6; opacity: 0.8; stroke: #add8e6; stroke-linejoin: miter"/>
    </g>
    <g id="text_14">
     <!-- Ctrl (n = 26) -->
     <g transform="translate(91.015 41.955938) scale(0.1 -0.1)">
      <defs>
       <path id="DejaVuSans-28" d="M 1984 4856 
Q 1566 4138 1362 3434 
Q 1159 2731 1159 2009 
Q 1159 1288 1364 580 
Q 1569 -128 1984 -844 
L 1484 -844 
Q 1016 -109 783 600 
Q 550 1309 550 2009 
Q 550 2706 781 3412 
Q 1013 4119 1484 4856 
L 1984 4856 
z
" transform="scale(0.015625)"/>
       <path id="DejaVuSans-3d" d="M 678 2906 
L 4684 2906 
L 4684 2381 
L 678 2381 
L 678 2906 
z
M 678 1631 
L 4684 1631 
L 4684 1100 
L 678 1100 
L 678 1631 
z
" transform="scale(0.015625)"/>
       <path id="DejaVuSans-36" d="M 2113 2584 
Q 1688 2584 1439 2293 
Q 1191 2003 1191 1497 
Q 1191 994 1439 701 
Q 1688 409 2113 409 
Q 2538 409 2786 701 
Q 3034 994 3034 1497 
Q 3034 2003 2786 2293 
Q 2538 2584 2113 2584 
z
M 3366 4563 
L 3366 3988 
Q 3128 4100 2886 4159 
Q 2644 4219 2406 4219 
Q 1781 4219 1451 3797 
Q 1122 3375 1075 2522 
Q 1259 2794 1537 2939 
Q 1816 3084 2150 3084 
Q 2853 3084 3261 2657 
Q 3669 2231 3669 1497 
Q 3669 778 3244 343 
Q 2819 -91 2113 -91 
Q 1303 -91 875 529 
Q 447 1150 447 2328 
Q 447 3434 972 4092 
Q 1497 4750 2381 4750 
Q 2619 4750 2861 4703 
Q 3103 4656 3366 4563 
z
" transform="scale(0.015625)"/>
       <path id="DejaVuSans-29" d="M 513 4856 
L 1013 4856 
Q 1481 4119 1714 3412 
Q 1947 2706 1947 2009 
Q 1947 1309 1714 600 
Q 1481 -109 1013 -844 
L 513 -844 
Q 928 -128 1133 580 
Q 1338 1288 1338 2009 
Q 1338 2731 1133 3434 
Q 928 4138 513 4856 
z
" transform="scale(0.015625)"/>
      </defs>
      <use xlink:href="#DejaVuSans-43"/>
      <use xlink:href="#DejaVuSans-74" x="69.824219"/>
      <use xlink:href="#DejaVuSans-72" x="109.033203"/>
      <use xlink:href="#DejaVuSans-6c" x="150.146484"/>
      <use xlink:href="#DejaVuSans-20" x="177.929688"/>
      <use xlink:href="#DejaVuSans-28" x="209.716797"/>
      <use xlink:href="#DejaVuSans-6e" x="248.730469"/>
      <use xlink:href="#DejaVuSans-20" x="312.109375"/>
      <use xlink:href="#DejaVuSans-3d" x="343.896484"/>
      <use xlink:href="#DejaVuSans-20" x="427.685547"/>
      <use xlink:href="#DejaVuSans-32" x="459.472656"/>
      <use xlink:href="#DejaVuSans-36" x="523.095703"/>
      <use xlink:href="#DejaVuSans-29" x="586.71875"/>
     </g>
    </g>
    <g id="patch_9">
     <path d="M 63.015 56.634063 
L 83.015 56.634063 
L 83.015 49.634063 
L 63.015 49.634063 
z
" style="fill: #ffff00; opacity: 0.8; stroke: #ffff00; stroke-linejoin: miter"/>
    </g>
    <g id="text_15">
     <!-- Cask (n = 24) -->
     <g transform="translate(91.015 56.634063) scale(0.1 -0.1)">
      <use xlink:href="#DejaVuSans-43"/>
      <use xlink:href="#DejaVuSans-61" x="69.824219"/>
      <use xlink:href="#DejaVuSans-73" x="131.103516"/>
      <use xlink:href="#DejaVuSans-6b" x="183.203125"/>
      <use xlink:href="#DejaVuSans-20" x="241.113281"/>
      <use xlink:href="#DejaVuSans-28" x="272.900391"/>
      <use xlink:href="#DejaVuSans-6e" x="311.914062"/>
      <use xlink:href="#DejaVuSans-20" x="375.292969"/>
      <use xlink:href="#DejaVuSans-3d" x="407.080078"/>
      <use xlink:href="#DejaVuSans-20" x="490.869141"/>
      <use xlink:href="#DejaVuSans-32" x="522.65625"/>
      <use xlink:href="#DejaVuSans-34" x="586.279297"/>
      <use xlink:href="#DejaVuSans-29" x="649.902344"/>
     </g>
    </g>
   </g>
  </g>
 </g>
 <defs>
  <clipPath id="pd8b75b3cae">
   <rect x="54.015" y="25.3575" width="390.6" height="388.08"/>
  </clipPath>
 </defs>
</svg>
