<?xml version="1.0" encoding="utf-8" standalone="no"?>
<!DOCTYPE svg PUBLIC "-//W3C//DTD SVG 1.1//EN"
  "http://www.w3.org/Graphics/SVG/1.1/DTD/svg11.dtd">
<svg xmlns:xlink="http://www.w3.org/1999/xlink" width="539.725pt" height="402.464375pt" viewBox="0 0 539.725 402.464375" xmlns="http://www.w3.org/2000/svg" version="1.1">
 <metadata>
  <rdf:RDF xmlns:dc="http://purl.org/dc/elements/1.1/" xmlns:cc="http://creativecommons.org/ns#" xmlns:rdf="http://www.w3.org/1999/02/22-rdf-syntax-ns#">
   <cc:Work>
    <dc:type rdf:resource="http://purl.org/dc/dcmitype/StillImage"/>
    <dc:date>2025-04-10T14:46:54.532666</dc:date>
    <dc:format>image/svg+xml</dc:format>
    <dc:creator>
     <cc:Agent>
      <dc:title>Matplotlib v3.8.3, https://matplotlib.org/</dc:title>
     </cc:Agent>
    </dc:creator>
   </cc:Work>
  </rdf:RDF>
 </metadata>
 <defs>
  <style type="text/css">*{stroke-linejoin: round; stroke-linecap: butt}</style>
 </defs>
 <g id="figure_1">
  <g id="patch_1">
   <path d="M 0 402.464375 
L 539.725 402.464375 
L 539.725 0 
L 0 0 
z
" style="fill: #ffffff"/>
  </g>
  <g id="axes_1">
   <g id="patch_2">
    <path d="M 102.4625 361.036875 
L 437.2625 361.036875 
L 437.2625 28.396875 
L 102.4625 28.396875 
z
" style="fill: #ffffff"/>
   </g>
   <g id="PolyCollection_1">
    <defs>
     <path id="mc089de5347" d="M 174.159579 -140.09608 
L 162.65633 -140.09608 
L 162.407766 -142.144413 
L 162.149654 -144.192746 
L 161.877543 -146.241079 
L 161.586405 -148.289412 
L 161.270727 -150.337745 
L 160.924631 -152.386078 
L 160.542004 -154.434412 
L 160.116647 -156.482745 
L 159.642431 -158.531078 
L 159.113464 -160.579411 
L 158.524249 -162.627744 
L 157.869845 -164.676077 
L 157.146021 -166.72441 
L 156.349386 -168.772743 
L 155.477515 -170.821077 
L 154.529047 -172.86941 
L 153.503756 -174.917743 
L 152.40261 -176.966076 
L 151.227789 -179.014409 
L 149.982684 -181.062742 
L 148.671865 -183.111075 
L 147.301028 -185.159409 
L 145.876906 -187.207742 
L 144.407171 -189.256075 
L 142.900307 -191.304408 
L 141.365467 -193.352741 
L 139.812326 -195.401074 
L 138.250913 -197.449407 
L 136.691452 -199.49774 
L 135.144192 -201.546074 
L 133.619252 -203.594407 
L 132.126468 -205.64274 
L 130.675249 -207.691073 
L 129.274457 -209.739406 
L 127.93229 -211.787739 
L 126.656189 -213.836072 
L 125.452764 -215.884405 
L 124.327723 -217.932739 
L 123.285837 -219.981072 
L 122.330897 -222.029405 
L 121.465702 -224.077738 
L 120.692054 -226.126071 
L 120.010757 -228.174404 
L 119.421642 -230.222737 
L 118.923597 -232.271071 
L 118.514606 -234.319404 
L 118.191813 -236.367737 
L 117.951596 -238.41607 
L 117.789654 -240.464403 
L 117.701119 -242.512736 
L 117.680682 -244.561069 
L 117.72273 -246.609402 
L 117.821503 -248.657736 
L 117.971258 -250.706069 
L 118.166429 -252.754402 
L 118.401798 -254.802735 
L 118.672647 -256.851068 
L 118.974891 -258.899401 
L 119.305196 -260.947734 
L 119.661057 -262.996067 
L 120.040844 -265.044401 
L 120.443806 -267.092734 
L 120.870033 -269.141067 
L 121.320378 -271.1894 
L 121.796343 -273.237733 
L 122.299926 -275.286066 
L 122.833451 -277.334399 
L 123.399377 -279.382733 
L 124.000107 -281.431066 
L 124.637797 -283.479399 
L 125.314188 -285.527732 
L 126.030455 -287.576065 
L 126.787102 -289.624398 
L 127.583883 -291.672731 
L 128.419778 -293.721064 
L 129.293003 -295.769398 
L 130.201069 -297.817731 
L 131.140874 -299.866064 
L 132.108823 -301.914397 
L 133.100979 -303.96273 
L 134.113213 -306.011063 
L 135.141368 -308.059396 
L 136.181411 -310.107729 
L 137.229562 -312.156063 
L 138.282416 -314.204396 
L 139.337013 -316.252729 
L 140.390895 -318.301062 
L 141.442117 -320.349395 
L 142.489225 -322.397728 
L 143.531208 -324.446061 
L 144.56742 -326.494395 
L 145.597482 -328.542728 
L 146.621176 -330.591061 
L 147.638327 -332.639394 
L 148.648695 -334.687727 
L 149.65187 -336.73606 
L 150.647188 -338.784393 
L 151.633664 -340.832726 
L 152.609949 -342.88106 
L 184.20596 -342.88106 
L 184.20596 -342.88106 
L 185.182245 -340.832726 
L 186.168721 -338.784393 
L 187.164039 -336.73606 
L 188.167214 -334.687727 
L 189.177582 -332.639394 
L 190.194733 -330.591061 
L 191.218427 -328.542728 
L 192.248489 -326.494395 
L 193.284701 -324.446061 
L 194.326684 -322.397728 
L 195.373792 -320.349395 
L 196.425014 -318.301062 
L 197.478897 -316.252729 
L 198.533494 -314.204396 
L 199.586347 -312.156063 
L 200.634498 -310.107729 
L 201.674541 -308.059396 
L 202.702696 -306.011063 
L 203.71493 -303.96273 
L 204.707086 -301.914397 
L 205.675036 -299.866064 
L 206.61484 -297.817731 
L 207.522906 -295.769398 
L 208.396131 -293.721064 
L 209.232026 -291.672731 
L 210.028807 -289.624398 
L 210.785454 -287.576065 
L 211.501721 -285.527732 
L 212.178112 -283.479399 
L 212.815802 -281.431066 
L 213.416532 -279.382733 
L 213.982458 -277.334399 
L 214.515983 -275.286066 
L 215.019566 -273.237733 
L 215.495531 -271.1894 
L 215.945876 -269.141067 
L 216.372103 -267.092734 
L 216.775065 -265.044401 
L 217.154852 -262.996067 
L 217.510713 -260.947734 
L 217.841018 -258.899401 
L 218.143262 -256.851068 
L 218.414111 -254.802735 
L 218.64948 -252.754402 
L 218.844651 -250.706069 
L 218.994406 -248.657736 
L 219.093179 -246.609402 
L 219.135227 -244.561069 
L 219.11479 -242.512736 
L 219.026255 -240.464403 
L 218.864313 -238.41607 
L 218.624096 -236.367737 
L 218.301303 -234.319404 
L 217.892312 -232.271071 
L 217.394267 -230.222737 
L 216.805152 -228.174404 
L 216.123855 -226.126071 
L 215.350207 -224.077738 
L 214.485012 -222.029405 
L 213.530072 -219.981072 
L 212.488186 -217.932739 
L 211.363145 -215.884405 
L 210.15972 -213.836072 
L 208.883619 -211.787739 
L 207.541452 -209.739406 
L 206.14066 -207.691073 
L 204.689441 -205.64274 
L 203.196657 -203.594407 
L 201.671717 -201.546074 
L 200.124457 -199.49774 
L 198.564996 -197.449407 
L 197.003583 -195.401074 
L 195.450442 -193.352741 
L 193.915602 -191.304408 
L 192.408738 -189.256075 
L 190.939003 -187.207742 
L 189.514881 -185.159409 
L 188.144044 -183.111075 
L 186.833226 -181.062742 
L 185.58812 -179.014409 
L 184.413299 -176.966076 
L 183.312153 -174.917743 
L 182.286862 -172.86941 
L 181.338394 -170.821077 
L 180.466523 -168.772743 
L 179.669889 -166.72441 
L 178.946064 -164.676077 
L 178.29166 -162.627744 
L 177.702445 -160.579411 
L 177.173478 -158.531078 
L 176.699263 -156.482745 
L 176.273905 -154.434412 
L 175.891278 -152.386078 
L 175.545182 -150.337745 
L 175.229504 -148.289412 
L 174.938366 -146.241079 
L 174.666255 -144.192746 
L 174.408144 -142.144413 
L 174.159579 -140.09608 
z
" style="stroke: #000000; stroke-opacity: 0.6"/>
    </defs>
    <g clip-path="url(#pdcfec4c9b3)">
     <use xlink:href="#mc089de5347" x="0" y="402.464375" style="fill: #38bcf5; fill-opacity: 0.6; stroke: #000000; stroke-opacity: 0.6"/>
    </g>
   </g>
   <g id="PolyCollection_2">
    <defs>
     <path id="m2ae2f00809" d="M 385.509187 -56.5475 
L 357.124904 -56.5475 
L 356.296197 -59.602045 
L 355.474249 -62.656591 
L 354.663249 -65.711136 
L 353.867029 -68.765682 
L 353.088956 -71.820227 
L 352.331841 -74.874773 
L 351.597844 -77.929318 
L 350.888407 -80.983864 
L 350.204195 -84.038409 
L 349.545051 -87.092955 
L 348.909979 -90.1475 
L 348.297145 -93.202045 
L 347.703897 -96.256591 
L 347.12681 -99.311136 
L 346.561755 -102.365682 
L 346.003989 -105.420227 
L 345.44826 -108.474773 
L 344.888941 -111.529318 
L 344.320169 -114.583864 
L 343.736008 -117.638409 
L 343.130613 -120.692955 
L 342.498411 -123.7475 
L 341.834277 -126.802045 
L 341.133709 -129.856591 
L 340.393003 -132.911136 
L 339.609412 -135.965682 
L 338.781285 -139.020227 
L 337.908201 -142.074773 
L 336.991054 -145.129318 
L 336.032132 -148.183864 
L 335.035142 -151.238409 
L 334.005213 -154.292955 
L 332.948851 -157.3475 
L 331.873855 -160.402045 
L 330.7892 -163.456591 
L 329.704873 -166.511136 
L 328.631683 -169.565682 
L 327.581034 -172.620227 
L 326.56468 -175.674773 
L 325.594462 -178.729318 
L 324.682037 -181.783864 
L 323.838611 -184.838409 
L 323.074678 -187.892955 
L 322.399781 -190.9475 
L 321.822303 -194.002045 
L 321.349291 -197.056591 
L 320.986317 -200.111136 
L 320.737397 -203.165682 
L 320.604942 -206.220227 
L 320.589773 -209.274773 
L 320.691167 -212.329318 
L 320.906962 -215.383864 
L 321.233686 -218.438409 
L 321.666725 -221.492955 
L 322.200514 -224.5475 
L 322.828733 -227.602045 
L 323.54452 -230.656591 
L 324.340673 -233.711136 
L 325.209843 -236.765682 
L 326.144709 -239.820227 
L 327.138122 -242.874773 
L 328.183228 -245.929318 
L 329.273555 -248.983864 
L 330.403066 -252.038409 
L 331.566183 -255.092955 
L 332.757778 -258.1475 
L 333.973141 -261.202045 
L 335.207925 -264.256591 
L 336.458075 -267.311136 
L 337.719751 -270.365682 
L 338.989247 -273.420227 
L 340.262913 -276.474773 
L 341.537086 -279.529318 
L 342.808037 -282.583864 
L 344.071936 -285.638409 
L 345.324836 -288.692955 
L 346.562681 -291.7475 
L 347.781338 -294.802045 
L 348.976641 -297.856591 
L 350.144463 -300.911136 
L 351.280799 -303.965682 
L 352.38185 -307.020227 
L 353.444126 -310.074773 
L 354.464534 -313.129318 
L 355.440469 -316.183864 
L 356.369886 -319.238409 
L 357.251362 -322.292955 
L 358.084132 -325.3475 
L 358.868111 -328.402045 
L 359.603886 -331.456591 
L 360.292683 -334.511136 
L 360.936322 -337.565682 
L 361.537139 -340.620227 
L 362.097902 -343.674773 
L 362.621709 -346.729318 
L 363.111876 -349.783864 
L 363.571831 -352.838409 
L 364.004998 -355.892955 
L 364.414695 -358.9475 
L 378.219396 -358.9475 
L 378.219396 -358.9475 
L 378.629093 -355.892955 
L 379.06226 -352.838409 
L 379.522214 -349.783864 
L 380.012382 -346.729318 
L 380.536189 -343.674773 
L 381.096952 -340.620227 
L 381.697769 -337.565682 
L 382.341408 -334.511136 
L 383.030205 -331.456591 
L 383.765979 -328.402045 
L 384.549959 -325.3475 
L 385.382729 -322.292955 
L 386.264204 -319.238409 
L 387.193621 -316.183864 
L 388.169556 -313.129318 
L 389.189965 -310.074773 
L 390.252241 -307.020227 
L 391.353292 -303.965682 
L 392.489628 -300.911136 
L 393.65745 -297.856591 
L 394.852753 -294.802045 
L 396.07141 -291.7475 
L 397.309255 -288.692955 
L 398.562155 -285.638409 
L 399.826054 -282.583864 
L 401.097005 -279.529318 
L 402.371178 -276.474773 
L 403.644844 -273.420227 
L 404.91434 -270.365682 
L 406.176016 -267.311136 
L 407.426166 -264.256591 
L 408.660949 -261.202045 
L 409.876312 -258.1475 
L 411.067908 -255.092955 
L 412.231025 -252.038409 
L 413.360536 -248.983864 
L 414.450863 -245.929318 
L 415.495969 -242.874773 
L 416.489382 -239.820227 
L 417.424248 -236.765682 
L 418.293418 -233.711136 
L 419.089571 -230.656591 
L 419.805358 -227.602045 
L 420.433577 -224.5475 
L 420.967365 -221.492955 
L 421.400405 -218.438409 
L 421.727129 -215.383864 
L 421.942924 -212.329318 
L 422.044318 -209.274773 
L 422.029148 -206.220227 
L 421.896694 -203.165682 
L 421.647774 -200.111136 
L 421.2848 -197.056591 
L 420.811787 -194.002045 
L 420.23431 -190.9475 
L 419.559413 -187.892955 
L 418.79548 -184.838409 
L 417.952054 -181.783864 
L 417.039629 -178.729318 
L 416.069411 -175.674773 
L 415.053057 -172.620227 
L 414.002408 -169.565682 
L 412.929218 -166.511136 
L 411.844891 -163.456591 
L 410.760236 -160.402045 
L 409.68524 -157.3475 
L 408.628877 -154.292955 
L 407.598949 -151.238409 
L 406.601959 -148.183864 
L 405.643037 -145.129318 
L 404.72589 -142.074773 
L 403.852806 -139.020227 
L 403.024679 -135.965682 
L 402.241087 -132.911136 
L 401.500382 -129.856591 
L 400.799814 -126.802045 
L 400.13568 -123.7475 
L 399.503478 -120.692955 
L 398.898083 -117.638409 
L 398.313922 -114.583864 
L 397.74515 -111.529318 
L 397.18583 -108.474773 
L 396.630102 -105.420227 
L 396.072336 -102.365682 
L 395.507281 -99.311136 
L 394.930194 -96.256591 
L 394.336945 -93.202045 
L 393.724111 -90.1475 
L 393.08904 -87.092955 
L 392.429896 -84.038409 
L 391.745683 -80.983864 
L 391.036247 -77.929318 
L 390.30225 -74.874773 
L 389.545135 -71.820227 
L 388.767062 -68.765682 
L 387.970842 -65.711136 
L 387.159842 -62.656591 
L 386.337894 -59.602045 
L 385.509187 -56.5475 
z
" style="stroke: #000000; stroke-opacity: 0.6"/>
    </defs>
    <g clip-path="url(#pdcfec4c9b3)">
     <use xlink:href="#m2ae2f00809" x="0" y="402.464375" style="fill: #38f5a6; fill-opacity: 0.6; stroke: #000000; stroke-opacity: 0.6"/>
    </g>
   </g>
   <g id="matplotlib.axis_1">
    <g id="xtick_1">
     <g id="line2d_1">
      <defs>
       <path id="m645aa5297c" d="M 0 0 
L 0 3.5 
" style="stroke: #000000; stroke-width: 0.8"/>
      </defs>
      <g>
       <use xlink:href="#m645aa5297c" x="168.407955" y="361.036875" style="stroke: #000000; stroke-width: 0.8"/>
      </g>
     </g>
     <g id="text_1">
      <!-- Ctrl -->
      <g transform="translate(159.511861 375.635312) scale(0.1 -0.1)">
       <defs>
        <path id="DejaVuSans-43" d="M 4122 4306 
L 4122 3641 
Q 3803 3938 3442 4084 
Q 3081 4231 2675 4231 
Q 1875 4231 1450 3742 
Q 1025 3253 1025 2328 
Q 1025 1406 1450 917 
Q 1875 428 2675 428 
Q 3081 428 3442 575 
Q 3803 722 4122 1019 
L 4122 359 
Q 3791 134 3420 21 
Q 3050 -91 2638 -91 
Q 1578 -91 968 557 
Q 359 1206 359 2328 
Q 359 3453 968 4101 
Q 1578 4750 2638 4750 
Q 3056 4750 3426 4639 
Q 3797 4528 4122 4306 
z
" transform="scale(0.015625)"/>
        <path id="DejaVuSans-74" d="M 1172 4494 
L 1172 3500 
L 2356 3500 
L 2356 3053 
L 1172 3053 
L 1172 1153 
Q 1172 725 1289 603 
Q 1406 481 1766 481 
L 2356 481 
L 2356 0 
L 1766 0 
Q 1100 0 847 248 
Q 594 497 594 1153 
L 594 3053 
L 172 3053 
L 172 3500 
L 594 3500 
L 594 4494 
L 1172 4494 
z
" transform="scale(0.015625)"/>
        <path id="DejaVuSans-72" d="M 2631 2963 
Q 2534 3019 2420 3045 
Q 2306 3072 2169 3072 
Q 1681 3072 1420 2755 
Q 1159 2438 1159 1844 
L 1159 0 
L 581 0 
L 581 3500 
L 1159 3500 
L 1159 2956 
Q 1341 3275 1631 3429 
Q 1922 3584 2338 3584 
Q 2397 3584 2469 3576 
Q 2541 3569 2628 3553 
L 2631 2963 
z
" transform="scale(0.015625)"/>
        <path id="DejaVuSans-6c" d="M 603 4863 
L 1178 4863 
L 1178 0 
L 603 0 
L 603 4863 
z
" transform="scale(0.015625)"/>
       </defs>
       <use xlink:href="#DejaVuSans-43"/>
       <use xlink:href="#DejaVuSans-74" x="69.824219"/>
       <use xlink:href="#DejaVuSans-72" x="109.033203"/>
       <use xlink:href="#DejaVuSans-6c" x="150.146484"/>
      </g>
     </g>
    </g>
    <g id="xtick_2">
     <g id="line2d_2">
      <g>
       <use xlink:href="#m645aa5297c" x="371.317045" y="361.036875" style="stroke: #000000; stroke-width: 0.8"/>
      </g>
     </g>
     <g id="text_2">
      <!-- CASK -->
      <g transform="translate(357.952202 375.635312) scale(0.1 -0.1)">
       <defs>
        <path id="DejaVuSans-41" d="M 2188 4044 
L 1331 1722 
L 3047 1722 
L 2188 4044 
z
M 1831 4666 
L 2547 4666 
L 4325 0 
L 3669 0 
L 3244 1197 
L 1141 1197 
L 716 0 
L 50 0 
L 1831 4666 
z
" transform="scale(0.015625)"/>
        <path id="DejaVuSans-53" d="M 3425 4513 
L 3425 3897 
Q 3066 4069 2747 4153 
Q 2428 4238 2131 4238 
Q 1616 4238 1336 4038 
Q 1056 3838 1056 3469 
Q 1056 3159 1242 3001 
Q 1428 2844 1947 2747 
L 2328 2669 
Q 3034 2534 3370 2195 
Q 3706 1856 3706 1288 
Q 3706 609 3251 259 
Q 2797 -91 1919 -91 
Q 1588 -91 1214 -16 
Q 841 59 441 206 
L 441 856 
Q 825 641 1194 531 
Q 1563 422 1919 422 
Q 2459 422 2753 634 
Q 3047 847 3047 1241 
Q 3047 1584 2836 1778 
Q 2625 1972 2144 2069 
L 1759 2144 
Q 1053 2284 737 2584 
Q 422 2884 422 3419 
Q 422 4038 858 4394 
Q 1294 4750 2059 4750 
Q 2388 4750 2728 4690 
Q 3069 4631 3425 4513 
z
" transform="scale(0.015625)"/>
        <path id="DejaVuSans-4b" d="M 628 4666 
L 1259 4666 
L 1259 2694 
L 3353 4666 
L 4166 4666 
L 1850 2491 
L 4331 0 
L 3500 0 
L 1259 2247 
L 1259 0 
L 628 0 
L 628 4666 
z
" transform="scale(0.015625)"/>
       </defs>
       <use xlink:href="#DejaVuSans-43"/>
       <use xlink:href="#DejaVuSans-41" x="69.824219"/>
       <use xlink:href="#DejaVuSans-53" x="138.232422"/>
       <use xlink:href="#DejaVuSans-4b" x="201.708984"/>
      </g>
     </g>
    </g>
    <g id="text_3">
     <!-- Groups -->
     <g transform="translate(244.908594 392.352812) scale(0.14 -0.14)">
      <defs>
       <path id="DejaVuSans-47" d="M 3809 666 
L 3809 1919 
L 2778 1919 
L 2778 2438 
L 4434 2438 
L 4434 434 
Q 4069 175 3628 42 
Q 3188 -91 2688 -91 
Q 1594 -91 976 548 
Q 359 1188 359 2328 
Q 359 3472 976 4111 
Q 1594 4750 2688 4750 
Q 3144 4750 3555 4637 
Q 3966 4525 4313 4306 
L 4313 3634 
Q 3963 3931 3569 4081 
Q 3175 4231 2741 4231 
Q 1884 4231 1454 3753 
Q 1025 3275 1025 2328 
Q 1025 1384 1454 906 
Q 1884 428 2741 428 
Q 3075 428 3337 486 
Q 3600 544 3809 666 
z
" transform="scale(0.015625)"/>
       <path id="DejaVuSans-6f" d="M 1959 3097 
Q 1497 3097 1228 2736 
Q 959 2375 959 1747 
Q 959 1119 1226 758 
Q 1494 397 1959 397 
Q 2419 397 2687 759 
Q 2956 1122 2956 1747 
Q 2956 2369 2687 2733 
Q 2419 3097 1959 3097 
z
M 1959 3584 
Q 2709 3584 3137 3096 
Q 3566 2609 3566 1747 
Q 3566 888 3137 398 
Q 2709 -91 1959 -91 
Q 1206 -91 779 398 
Q 353 888 353 1747 
Q 353 2609 779 3096 
Q 1206 3584 1959 3584 
z
" transform="scale(0.015625)"/>
       <path id="DejaVuSans-75" d="M 544 1381 
L 544 3500 
L 1119 3500 
L 1119 1403 
Q 1119 906 1312 657 
Q 1506 409 1894 409 
Q 2359 409 2629 706 
Q 2900 1003 2900 1516 
L 2900 3500 
L 3475 3500 
L 3475 0 
L 2900 0 
L 2900 538 
Q 2691 219 2414 64 
Q 2138 -91 1772 -91 
Q 1169 -91 856 284 
Q 544 659 544 1381 
z
M 1991 3584 
L 1991 3584 
z
" transform="scale(0.015625)"/>
       <path id="DejaVuSans-70" d="M 1159 525 
L 1159 -1331 
L 581 -1331 
L 581 3500 
L 1159 3500 
L 1159 2969 
Q 1341 3281 1617 3432 
Q 1894 3584 2278 3584 
Q 2916 3584 3314 3078 
Q 3713 2572 3713 1747 
Q 3713 922 3314 415 
Q 2916 -91 2278 -91 
Q 1894 -91 1617 61 
Q 1341 213 1159 525 
z
M 3116 1747 
Q 3116 2381 2855 2742 
Q 2594 3103 2138 3103 
Q 1681 3103 1420 2742 
Q 1159 2381 1159 1747 
Q 1159 1113 1420 752 
Q 1681 391 2138 391 
Q 2594 391 2855 752 
Q 3116 1113 3116 1747 
z
" transform="scale(0.015625)"/>
       <path id="DejaVuSans-73" d="M 2834 3397 
L 2834 2853 
Q 2591 2978 2328 3040 
Q 2066 3103 1784 3103 
Q 1356 3103 1142 2972 
Q 928 2841 928 2578 
Q 928 2378 1081 2264 
Q 1234 2150 1697 2047 
L 1894 2003 
Q 2506 1872 2764 1633 
Q 3022 1394 3022 966 
Q 3022 478 2636 193 
Q 2250 -91 1575 -91 
Q 1294 -91 989 -36 
Q 684 19 347 128 
L 347 722 
Q 666 556 975 473 
Q 1284 391 1588 391 
Q 1994 391 2212 530 
Q 2431 669 2431 922 
Q 2431 1156 2273 1281 
Q 2116 1406 1581 1522 
L 1381 1569 
Q 847 1681 609 1914 
Q 372 2147 372 2553 
Q 372 3047 722 3315 
Q 1072 3584 1716 3584 
Q 2034 3584 2315 3537 
Q 2597 3491 2834 3397 
z
" transform="scale(0.015625)"/>
      </defs>
      <use xlink:href="#DejaVuSans-47"/>
      <use xlink:href="#DejaVuSans-72" x="77.490234"/>
      <use xlink:href="#DejaVuSans-6f" x="116.353516"/>
      <use xlink:href="#DejaVuSans-75" x="177.535156"/>
      <use xlink:href="#DejaVuSans-70" x="240.914062"/>
      <use xlink:href="#DejaVuSans-73" x="304.390625"/>
     </g>
    </g>
   </g>
   <g id="matplotlib.axis_2">
    <g id="ytick_1">
     <g id="line2d_3">
      <defs>
       <path id="mf3539deb98" d="M 0 0 
L -3.5 0 
" style="stroke: #000000; stroke-width: 0.8"/>
      </defs>
      <g>
       <use xlink:href="#mf3539deb98" x="102.4625" y="348.154251" style="stroke: #000000; stroke-width: 0.8"/>
      </g>
     </g>
     <g id="text_4">
      <!-- 75.0 -->
      <g transform="translate(73.196875 351.95347) scale(0.1 -0.1)">
       <defs>
        <path id="DejaVuSans-37" d="M 525 4666 
L 3525 4666 
L 3525 4397 
L 1831 0 
L 1172 0 
L 2766 4134 
L 525 4134 
L 525 4666 
z
" transform="scale(0.015625)"/>
        <path id="DejaVuSans-35" d="M 691 4666 
L 3169 4666 
L 3169 4134 
L 1269 4134 
L 1269 2991 
Q 1406 3038 1543 3061 
Q 1681 3084 1819 3084 
Q 2600 3084 3056 2656 
Q 3513 2228 3513 1497 
Q 3513 744 3044 326 
Q 2575 -91 1722 -91 
Q 1428 -91 1123 -41 
Q 819 9 494 109 
L 494 744 
Q 775 591 1075 516 
Q 1375 441 1709 441 
Q 2250 441 2565 725 
Q 2881 1009 2881 1497 
Q 2881 1984 2565 2268 
Q 2250 2553 1709 2553 
Q 1456 2553 1204 2497 
Q 953 2441 691 2322 
L 691 4666 
z
" transform="scale(0.015625)"/>
        <path id="DejaVuSans-2e" d="M 684 794 
L 1344 794 
L 1344 0 
L 684 0 
L 684 794 
z
" transform="scale(0.015625)"/>
        <path id="DejaVuSans-30" d="M 2034 4250 
Q 1547 4250 1301 3770 
Q 1056 3291 1056 2328 
Q 1056 1369 1301 889 
Q 1547 409 2034 409 
Q 2525 409 2770 889 
Q 3016 1369 3016 2328 
Q 3016 3291 2770 3770 
Q 2525 4250 2034 4250 
z
M 2034 4750 
Q 2819 4750 3233 4129 
Q 3647 3509 3647 2328 
Q 3647 1150 3233 529 
Q 2819 -91 2034 -91 
Q 1250 -91 836 529 
Q 422 1150 422 2328 
Q 422 3509 836 4129 
Q 1250 4750 2034 4750 
z
" transform="scale(0.015625)"/>
       </defs>
       <use xlink:href="#DejaVuSans-37"/>
       <use xlink:href="#DejaVuSans-35" x="63.623047"/>
       <use xlink:href="#DejaVuSans-2e" x="127.246094"/>
       <use xlink:href="#DejaVuSans-30" x="159.033203"/>
      </g>
     </g>
    </g>
    <g id="ytick_2">
     <g id="line2d_4">
      <g>
       <use xlink:href="#mf3539deb98" x="102.4625" y="309.443836" style="stroke: #000000; stroke-width: 0.8"/>
      </g>
     </g>
     <g id="text_5">
      <!-- 77.5 -->
      <g transform="translate(73.196875 313.243054) scale(0.1 -0.1)">
       <use xlink:href="#DejaVuSans-37"/>
       <use xlink:href="#DejaVuSans-37" x="63.623047"/>
       <use xlink:href="#DejaVuSans-2e" x="127.246094"/>
       <use xlink:href="#DejaVuSans-35" x="159.033203"/>
      </g>
     </g>
    </g>
    <g id="ytick_3">
     <g id="line2d_5">
      <g>
       <use xlink:href="#mf3539deb98" x="102.4625" y="270.73342" style="stroke: #000000; stroke-width: 0.8"/>
      </g>
     </g>
     <g id="text_6">
      <!-- 80.0 -->
      <g transform="translate(73.196875 274.532639) scale(0.1 -0.1)">
       <defs>
        <path id="DejaVuSans-38" d="M 2034 2216 
Q 1584 2216 1326 1975 
Q 1069 1734 1069 1313 
Q 1069 891 1326 650 
Q 1584 409 2034 409 
Q 2484 409 2743 651 
Q 3003 894 3003 1313 
Q 3003 1734 2745 1975 
Q 2488 2216 2034 2216 
z
M 1403 2484 
Q 997 2584 770 2862 
Q 544 3141 544 3541 
Q 544 4100 942 4425 
Q 1341 4750 2034 4750 
Q 2731 4750 3128 4425 
Q 3525 4100 3525 3541 
Q 3525 3141 3298 2862 
Q 3072 2584 2669 2484 
Q 3125 2378 3379 2068 
Q 3634 1759 3634 1313 
Q 3634 634 3220 271 
Q 2806 -91 2034 -91 
Q 1263 -91 848 271 
Q 434 634 434 1313 
Q 434 1759 690 2068 
Q 947 2378 1403 2484 
z
M 1172 3481 
Q 1172 3119 1398 2916 
Q 1625 2713 2034 2713 
Q 2441 2713 2670 2916 
Q 2900 3119 2900 3481 
Q 2900 3844 2670 4047 
Q 2441 4250 2034 4250 
Q 1625 4250 1398 4047 
Q 1172 3844 1172 3481 
z
" transform="scale(0.015625)"/>
       </defs>
       <use xlink:href="#DejaVuSans-38"/>
       <use xlink:href="#DejaVuSans-30" x="63.623047"/>
       <use xlink:href="#DejaVuSans-2e" x="127.246094"/>
       <use xlink:href="#DejaVuSans-30" x="159.033203"/>
      </g>
     </g>
    </g>
    <g id="ytick_4">
     <g id="line2d_6">
      <g>
       <use xlink:href="#mf3539deb98" x="102.4625" y="232.023005" style="stroke: #000000; stroke-width: 0.8"/>
      </g>
     </g>
     <g id="text_7">
      <!-- 82.5 -->
      <g transform="translate(73.196875 235.822224) scale(0.1 -0.1)">
       <defs>
        <path id="DejaVuSans-32" d="M 1228 531 
L 3431 531 
L 3431 0 
L 469 0 
L 469 531 
Q 828 903 1448 1529 
Q 2069 2156 2228 2338 
Q 2531 2678 2651 2914 
Q 2772 3150 2772 3378 
Q 2772 3750 2511 3984 
Q 2250 4219 1831 4219 
Q 1534 4219 1204 4116 
Q 875 4013 500 3803 
L 500 4441 
Q 881 4594 1212 4672 
Q 1544 4750 1819 4750 
Q 2544 4750 2975 4387 
Q 3406 4025 3406 3419 
Q 3406 3131 3298 2873 
Q 3191 2616 2906 2266 
Q 2828 2175 2409 1742 
Q 1991 1309 1228 531 
z
" transform="scale(0.015625)"/>
       </defs>
       <use xlink:href="#DejaVuSans-38"/>
       <use xlink:href="#DejaVuSans-32" x="63.623047"/>
       <use xlink:href="#DejaVuSans-2e" x="127.246094"/>
       <use xlink:href="#DejaVuSans-35" x="159.033203"/>
      </g>
     </g>
    </g>
    <g id="ytick_5">
     <g id="line2d_7">
      <g>
       <use xlink:href="#mf3539deb98" x="102.4625" y="193.31259" style="stroke: #000000; stroke-width: 0.8"/>
      </g>
     </g>
     <g id="text_8">
      <!-- 85.0 -->
      <g transform="translate(73.196875 197.111809) scale(0.1 -0.1)">
       <use xlink:href="#DejaVuSans-38"/>
       <use xlink:href="#DejaVuSans-35" x="63.623047"/>
       <use xlink:href="#DejaVuSans-2e" x="127.246094"/>
       <use xlink:href="#DejaVuSans-30" x="159.033203"/>
      </g>
     </g>
    </g>
    <g id="ytick_6">
     <g id="line2d_8">
      <g>
       <use xlink:href="#mf3539deb98" x="102.4625" y="154.602174" style="stroke: #000000; stroke-width: 0.8"/>
      </g>
     </g>
     <g id="text_9">
      <!-- 87.5 -->
      <g transform="translate(73.196875 158.401393) scale(0.1 -0.1)">
       <use xlink:href="#DejaVuSans-38"/>
       <use xlink:href="#DejaVuSans-37" x="63.623047"/>
       <use xlink:href="#DejaVuSans-2e" x="127.246094"/>
       <use xlink:href="#DejaVuSans-35" x="159.033203"/>
      </g>
     </g>
    </g>
    <g id="ytick_7">
     <g id="line2d_9">
      <g>
       <use xlink:href="#mf3539deb98" x="102.4625" y="115.891759" style="stroke: #000000; stroke-width: 0.8"/>
      </g>
     </g>
     <g id="text_10">
      <!-- 90.0 -->
      <g transform="translate(73.196875 119.690978) scale(0.1 -0.1)">
       <defs>
        <path id="DejaVuSans-39" d="M 703 97 
L 703 672 
Q 941 559 1184 500 
Q 1428 441 1663 441 
Q 2288 441 2617 861 
Q 2947 1281 2994 2138 
Q 2813 1869 2534 1725 
Q 2256 1581 1919 1581 
Q 1219 1581 811 2004 
Q 403 2428 403 3163 
Q 403 3881 828 4315 
Q 1253 4750 1959 4750 
Q 2769 4750 3195 4129 
Q 3622 3509 3622 2328 
Q 3622 1225 3098 567 
Q 2575 -91 1691 -91 
Q 1453 -91 1209 -44 
Q 966 3 703 97 
z
M 1959 2075 
Q 2384 2075 2632 2365 
Q 2881 2656 2881 3163 
Q 2881 3666 2632 3958 
Q 2384 4250 1959 4250 
Q 1534 4250 1286 3958 
Q 1038 3666 1038 3163 
Q 1038 2656 1286 2365 
Q 1534 2075 1959 2075 
z
" transform="scale(0.015625)"/>
       </defs>
       <use xlink:href="#DejaVuSans-39"/>
       <use xlink:href="#DejaVuSans-30" x="63.623047"/>
       <use xlink:href="#DejaVuSans-2e" x="127.246094"/>
       <use xlink:href="#DejaVuSans-30" x="159.033203"/>
      </g>
     </g>
    </g>
    <g id="ytick_8">
     <g id="line2d_10">
      <g>
       <use xlink:href="#mf3539deb98" x="102.4625" y="77.181344" style="stroke: #000000; stroke-width: 0.8"/>
      </g>
     </g>
     <g id="text_11">
      <!-- 92.5 -->
      <g transform="translate(73.196875 80.980563) scale(0.1 -0.1)">
       <use xlink:href="#DejaVuSans-39"/>
       <use xlink:href="#DejaVuSans-32" x="63.623047"/>
       <use xlink:href="#DejaVuSans-2e" x="127.246094"/>
       <use xlink:href="#DejaVuSans-35" x="159.033203"/>
      </g>
     </g>
    </g>
    <g id="ytick_9">
     <g id="line2d_11">
      <g>
       <use xlink:href="#mf3539deb98" x="102.4625" y="38.470929" style="stroke: #000000; stroke-width: 0.8"/>
      </g>
     </g>
     <g id="text_12">
      <!-- 95.0 -->
      <g transform="translate(73.196875 42.270147) scale(0.1 -0.1)">
       <use xlink:href="#DejaVuSans-39"/>
       <use xlink:href="#DejaVuSans-35" x="63.623047"/>
       <use xlink:href="#DejaVuSans-2e" x="127.246094"/>
       <use xlink:href="#DejaVuSans-30" x="159.033203"/>
      </g>
     </g>
    </g>
    <g id="text_13">
     <!-- Meal Accuracy (%) -->
     <g transform="translate(66.285313 259.820156) rotate(-90) scale(0.14 -0.14)">
      <defs>
       <path id="DejaVuSans-4d" d="M 628 4666 
L 1569 4666 
L 2759 1491 
L 3956 4666 
L 4897 4666 
L 4897 0 
L 4281 0 
L 4281 4097 
L 3078 897 
L 2444 897 
L 1241 4097 
L 1241 0 
L 628 0 
L 628 4666 
z
" transform="scale(0.015625)"/>
       <path id="DejaVuSans-65" d="M 3597 1894 
L 3597 1613 
L 953 1613 
Q 991 1019 1311 708 
Q 1631 397 2203 397 
Q 2534 397 2845 478 
Q 3156 559 3463 722 
L 3463 178 
Q 3153 47 2828 -22 
Q 2503 -91 2169 -91 
Q 1331 -91 842 396 
Q 353 884 353 1716 
Q 353 2575 817 3079 
Q 1281 3584 2069 3584 
Q 2775 3584 3186 3129 
Q 3597 2675 3597 1894 
z
M 3022 2063 
Q 3016 2534 2758 2815 
Q 2500 3097 2075 3097 
Q 1594 3097 1305 2825 
Q 1016 2553 972 2059 
L 3022 2063 
z
" transform="scale(0.015625)"/>
       <path id="DejaVuSans-61" d="M 2194 1759 
Q 1497 1759 1228 1600 
Q 959 1441 959 1056 
Q 959 750 1161 570 
Q 1363 391 1709 391 
Q 2188 391 2477 730 
Q 2766 1069 2766 1631 
L 2766 1759 
L 2194 1759 
z
M 3341 1997 
L 3341 0 
L 2766 0 
L 2766 531 
Q 2569 213 2275 61 
Q 1981 -91 1556 -91 
Q 1019 -91 701 211 
Q 384 513 384 1019 
Q 384 1609 779 1909 
Q 1175 2209 1959 2209 
L 2766 2209 
L 2766 2266 
Q 2766 2663 2505 2880 
Q 2244 3097 1772 3097 
Q 1472 3097 1187 3025 
Q 903 2953 641 2809 
L 641 3341 
Q 956 3463 1253 3523 
Q 1550 3584 1831 3584 
Q 2591 3584 2966 3190 
Q 3341 2797 3341 1997 
z
" transform="scale(0.015625)"/>
       <path id="DejaVuSans-20" transform="scale(0.015625)"/>
       <path id="DejaVuSans-63" d="M 3122 3366 
L 3122 2828 
Q 2878 2963 2633 3030 
Q 2388 3097 2138 3097 
Q 1578 3097 1268 2742 
Q 959 2388 959 1747 
Q 959 1106 1268 751 
Q 1578 397 2138 397 
Q 2388 397 2633 464 
Q 2878 531 3122 666 
L 3122 134 
Q 2881 22 2623 -34 
Q 2366 -91 2075 -91 
Q 1284 -91 818 406 
Q 353 903 353 1747 
Q 353 2603 823 3093 
Q 1294 3584 2113 3584 
Q 2378 3584 2631 3529 
Q 2884 3475 3122 3366 
z
" transform="scale(0.015625)"/>
       <path id="DejaVuSans-79" d="M 2059 -325 
Q 1816 -950 1584 -1140 
Q 1353 -1331 966 -1331 
L 506 -1331 
L 506 -850 
L 844 -850 
Q 1081 -850 1212 -737 
Q 1344 -625 1503 -206 
L 1606 56 
L 191 3500 
L 800 3500 
L 1894 763 
L 2988 3500 
L 3597 3500 
L 2059 -325 
z
" transform="scale(0.015625)"/>
       <path id="DejaVuSans-28" d="M 1984 4856 
Q 1566 4138 1362 3434 
Q 1159 2731 1159 2009 
Q 1159 1288 1364 580 
Q 1569 -128 1984 -844 
L 1484 -844 
Q 1016 -109 783 600 
Q 550 1309 550 2009 
Q 550 2706 781 3412 
Q 1013 4119 1484 4856 
L 1984 4856 
z
" transform="scale(0.015625)"/>
       <path id="DejaVuSans-25" d="M 4653 2053 
Q 4381 2053 4226 1822 
Q 4072 1591 4072 1178 
Q 4072 772 4226 539 
Q 4381 306 4653 306 
Q 4919 306 5073 539 
Q 5228 772 5228 1178 
Q 5228 1588 5073 1820 
Q 4919 2053 4653 2053 
z
M 4653 2450 
Q 5147 2450 5437 2106 
Q 5728 1763 5728 1178 
Q 5728 594 5436 251 
Q 5144 -91 4653 -91 
Q 4153 -91 3862 251 
Q 3572 594 3572 1178 
Q 3572 1766 3864 2108 
Q 4156 2450 4653 2450 
z
M 1428 4353 
Q 1159 4353 1004 4120 
Q 850 3888 850 3481 
Q 850 3069 1003 2837 
Q 1156 2606 1428 2606 
Q 1700 2606 1854 2837 
Q 2009 3069 2009 3481 
Q 2009 3884 1853 4118 
Q 1697 4353 1428 4353 
z
M 4250 4750 
L 4750 4750 
L 1831 -91 
L 1331 -91 
L 4250 4750 
z
M 1428 4750 
Q 1922 4750 2215 4408 
Q 2509 4066 2509 3481 
Q 2509 2891 2217 2550 
Q 1925 2209 1428 2209 
Q 931 2209 642 2551 
Q 353 2894 353 3481 
Q 353 4063 643 4406 
Q 934 4750 1428 4750 
z
" transform="scale(0.015625)"/>
       <path id="DejaVuSans-29" d="M 513 4856 
L 1013 4856 
Q 1481 4119 1714 3412 
Q 1947 2706 1947 2009 
Q 1947 1309 1714 600 
Q 1481 -109 1013 -844 
L 513 -844 
Q 928 -128 1133 580 
Q 1338 1288 1338 2009 
Q 1338 2731 1133 3434 
Q 928 4138 513 4856 
z
" transform="scale(0.015625)"/>
      </defs>
      <use xlink:href="#DejaVuSans-4d"/>
      <use xlink:href="#DejaVuSans-65" x="86.279297"/>
      <use xlink:href="#DejaVuSans-61" x="147.802734"/>
      <use xlink:href="#DejaVuSans-6c" x="209.082031"/>
      <use xlink:href="#DejaVuSans-20" x="236.865234"/>
      <use xlink:href="#DejaVuSans-41" x="268.652344"/>
      <use xlink:href="#DejaVuSans-63" x="335.310547"/>
      <use xlink:href="#DejaVuSans-63" x="390.291016"/>
      <use xlink:href="#DejaVuSans-75" x="445.271484"/>
      <use xlink:href="#DejaVuSans-72" x="508.650391"/>
      <use xlink:href="#DejaVuSans-61" x="549.763672"/>
      <use xlink:href="#DejaVuSans-63" x="611.042969"/>
      <use xlink:href="#DejaVuSans-79" x="666.023438"/>
      <use xlink:href="#DejaVuSans-20" x="725.203125"/>
      <use xlink:href="#DejaVuSans-28" x="756.990234"/>
      <use xlink:href="#DejaVuSans-25" x="796.003906"/>
      <use xlink:href="#DejaVuSans-29" x="891.023438"/>
     </g>
    </g>
   </g>
   <g id="patch_3">
    <path d="M 102.4625 361.036875 
L 102.4625 28.396875 
" style="fill: none; stroke: #000000; stroke-width: 0.8; stroke-linejoin: miter; stroke-linecap: square"/>
   </g>
   <g id="patch_4">
    <path d="M 437.2625 361.036875 
L 437.2625 28.396875 
" style="fill: none; stroke: #000000; stroke-width: 0.8; stroke-linejoin: miter; stroke-linecap: square"/>
   </g>
   <g id="patch_5">
    <path d="M 102.4625 361.036875 
L 437.2625 361.036875 
" style="fill: none; stroke: #000000; stroke-width: 0.8; stroke-linejoin: miter; stroke-linecap: square"/>
   </g>
   <g id="patch_6">
    <path d="M 102.4625 28.396875 
L 437.2625 28.396875 
" style="fill: none; stroke: #000000; stroke-width: 0.8; stroke-linejoin: miter; stroke-linecap: square"/>
   </g>
   <g id="PathCollection_1">
    <defs>
     <path id="m60b9d582a3" d="M 0 3 
C 0.795609 3 1.55874 2.683901 2.12132 2.12132 
C 2.683901 1.55874 3 0.795609 3 0 
C 3 -0.795609 2.683901 -1.55874 2.12132 -2.12132 
C 1.55874 -2.683901 0.795609 -3 0 -3 
C -0.795609 -3 -1.55874 -2.683901 -2.12132 -2.12132 
C -2.683901 -1.55874 -3 -0.795609 -3 0 
C -3 0.795609 -2.683901 1.55874 -2.12132 2.12132 
C -1.55874 2.683901 -0.795609 3 0 3 
z
" style="stroke: #18c1f5; stroke-opacity: 0.8"/>
    </defs>
    <g clip-path="url(#pdcfec4c9b3)">
     <use xlink:href="#m60b9d582a3" x="167.29086" y="262.368295" style="fill: #18c1f5; fill-opacity: 0.8; stroke: #18c1f5; stroke-opacity: 0.8"/>
     <use xlink:href="#m60b9d582a3" x="156.871361" y="149.82052" style="fill: #18c1f5; fill-opacity: 0.8; stroke: #18c1f5; stroke-opacity: 0.8"/>
     <use xlink:href="#m60b9d582a3" x="165.038834" y="186.601672" style="fill: #18c1f5; fill-opacity: 0.8; stroke: #18c1f5; stroke-opacity: 0.8"/>
     <use xlink:href="#m60b9d582a3" x="156.390753" y="146.05308" style="fill: #18c1f5; fill-opacity: 0.8; stroke: #18c1f5; stroke-opacity: 0.8"/>
     <use xlink:href="#m60b9d582a3" x="166.332971" y="166.511948" style="fill: #18c1f5; fill-opacity: 0.8; stroke: #18c1f5; stroke-opacity: 0.8"/>
     <use xlink:href="#m60b9d582a3" x="157.258341" y="190.316141" style="fill: #18c1f5; fill-opacity: 0.8; stroke: #18c1f5; stroke-opacity: 0.8"/>
     <use xlink:href="#m60b9d582a3" x="171.423451" y="218.662763" style="fill: #18c1f5; fill-opacity: 0.8; stroke: #18c1f5; stroke-opacity: 0.8"/>
     <use xlink:href="#m60b9d582a3" x="180.768255" y="164.256064" style="fill: #18c1f5; fill-opacity: 0.8; stroke: #18c1f5; stroke-opacity: 0.8"/>
     <use xlink:href="#m60b9d582a3" x="165.781034" y="199.65984" style="fill: #18c1f5; fill-opacity: 0.8; stroke: #18c1f5; stroke-opacity: 0.8"/>
     <use xlink:href="#m60b9d582a3" x="156.75122" y="127.27354" style="fill: #18c1f5; fill-opacity: 0.8; stroke: #18c1f5; stroke-opacity: 0.8"/>
     <use xlink:href="#m60b9d582a3" x="167.659259" y="92.841232" style="fill: #18c1f5; fill-opacity: 0.8; stroke: #18c1f5; stroke-opacity: 0.8"/>
     <use xlink:href="#m60b9d582a3" x="156.632813" y="59.583315" style="fill: #18c1f5; fill-opacity: 0.8; stroke: #18c1f5; stroke-opacity: 0.8"/>
     <use xlink:href="#m60b9d582a3" x="172.973359" y="130.264968" style="fill: #18c1f5; fill-opacity: 0.8; stroke: #18c1f5; stroke-opacity: 0.8"/>
     <use xlink:href="#m60b9d582a3" x="178.977942" y="156.33903" style="fill: #18c1f5; fill-opacity: 0.8; stroke: #18c1f5; stroke-opacity: 0.8"/>
     <use xlink:href="#m60b9d582a3" x="162.481983" y="178.48857" style="fill: #18c1f5; fill-opacity: 0.8; stroke: #18c1f5; stroke-opacity: 0.8"/>
     <use xlink:href="#m60b9d582a3" x="178.110301" y="158.147801" style="fill: #18c1f5; fill-opacity: 0.8; stroke: #18c1f5; stroke-opacity: 0.8"/>
     <use xlink:href="#m60b9d582a3" x="177.497124" y="183.967814" style="fill: #18c1f5; fill-opacity: 0.8; stroke: #18c1f5; stroke-opacity: 0.8"/>
     <use xlink:href="#m60b9d582a3" x="164.891374" y="121.791399" style="fill: #18c1f5; fill-opacity: 0.8; stroke: #18c1f5; stroke-opacity: 0.8"/>
     <use xlink:href="#m60b9d582a3" x="162.179681" y="196.203662" style="fill: #18c1f5; fill-opacity: 0.8; stroke: #18c1f5; stroke-opacity: 0.8"/>
     <use xlink:href="#m60b9d582a3" x="172.891121" y="115.673459" style="fill: #18c1f5; fill-opacity: 0.8; stroke: #18c1f5; stroke-opacity: 0.8"/>
     <use xlink:href="#m60b9d582a3" x="171.010821" y="158.361607" style="fill: #18c1f5; fill-opacity: 0.8; stroke: #18c1f5; stroke-opacity: 0.8"/>
     <use xlink:href="#m60b9d582a3" x="172.666465" y="105.311204" style="fill: #18c1f5; fill-opacity: 0.8; stroke: #18c1f5; stroke-opacity: 0.8"/>
     <use xlink:href="#m60b9d582a3" x="180.618964" y="114.208601" style="fill: #18c1f5; fill-opacity: 0.8; stroke: #18c1f5; stroke-opacity: 0.8"/>
     <use xlink:href="#m60b9d582a3" x="164.133571" y="109.590941" style="fill: #18c1f5; fill-opacity: 0.8; stroke: #18c1f5; stroke-opacity: 0.8"/>
     <use xlink:href="#m60b9d582a3" x="165.935938" y="79.932908" style="fill: #18c1f5; fill-opacity: 0.8; stroke: #18c1f5; stroke-opacity: 0.8"/>
     <use xlink:href="#m60b9d582a3" x="161.660167" y="69.231301" style="fill: #18c1f5; fill-opacity: 0.8; stroke: #18c1f5; stroke-opacity: 0.8"/>
    </g>
   </g>
   <g id="PathCollection_2">
    <defs>
     <path id="m80471f278d" d="M 0 3 
C 0.795609 3 1.55874 2.683901 2.12132 2.12132 
C 2.683901 1.55874 3 0.795609 3 0 
C 3 -0.795609 2.683901 -1.55874 2.12132 -2.12132 
C 1.55874 -2.683901 0.795609 -3 0 -3 
C -0.795609 -3 -1.55874 -2.683901 -2.12132 -2.12132 
C -2.683901 -1.55874 -3 -0.795609 -3 0 
C -3 0.795609 -2.683901 1.55874 -2.12132 2.12132 
C -1.55874 2.683901 -0.795609 3 0 3 
z
" style="stroke: #36d15a; stroke-opacity: 0.8"/>
    </defs>
    <g clip-path="url(#pdcfec4c9b3)">
     <use xlink:href="#m80471f278d" x="370.650091" y="304.630364" style="fill: #36d15a; fill-opacity: 0.8; stroke: #36d15a; stroke-opacity: 0.8"/>
     <use xlink:href="#m80471f278d" x="371.536827" y="219.176984" style="fill: #36d15a; fill-opacity: 0.8; stroke: #36d15a; stroke-opacity: 0.8"/>
     <use xlink:href="#m80471f278d" x="375.671981" y="320.984393" style="fill: #36d15a; fill-opacity: 0.8; stroke: #36d15a; stroke-opacity: 0.8"/>
     <use xlink:href="#m80471f278d" x="362.767091" y="192.922852" style="fill: #36d15a; fill-opacity: 0.8; stroke: #36d15a; stroke-opacity: 0.8"/>
     <use xlink:href="#m80471f278d" x="366.682273" y="200.990207" style="fill: #36d15a; fill-opacity: 0.8; stroke: #36d15a; stroke-opacity: 0.8"/>
     <use xlink:href="#m80471f278d" x="380.490579" y="154.590786" style="fill: #36d15a; fill-opacity: 0.8; stroke: #36d15a; stroke-opacity: 0.8"/>
     <use xlink:href="#m80471f278d" x="374.453248" y="214.782636" style="fill: #36d15a; fill-opacity: 0.8; stroke: #36d15a; stroke-opacity: 0.8"/>
     <use xlink:href="#m80471f278d" x="378.028586" y="43.516875" style="fill: #36d15a; fill-opacity: 0.8; stroke: #36d15a; stroke-opacity: 0.8"/>
     <use xlink:href="#m80471f278d" x="376.099055" y="125.883092" style="fill: #36d15a; fill-opacity: 0.8; stroke: #36d15a; stroke-opacity: 0.8"/>
     <use xlink:href="#m80471f278d" x="375.963484" y="257.290347" style="fill: #36d15a; fill-opacity: 0.8; stroke: #36d15a; stroke-opacity: 0.8"/>
     <use xlink:href="#m80471f278d" x="380.417982" y="345.916875" style="fill: #36d15a; fill-opacity: 0.8; stroke: #36d15a; stroke-opacity: 0.8"/>
     <use xlink:href="#m80471f278d" x="373.850806" y="184.05692" style="fill: #36d15a; fill-opacity: 0.8; stroke: #36d15a; stroke-opacity: 0.8"/>
     <use xlink:href="#m80471f278d" x="381.212017" y="305.518545" style="fill: #36d15a; fill-opacity: 0.8; stroke: #36d15a; stroke-opacity: 0.8"/>
     <use xlink:href="#m80471f278d" x="358.880397" y="184.193608" style="fill: #36d15a; fill-opacity: 0.8; stroke: #36d15a; stroke-opacity: 0.8"/>
     <use xlink:href="#m80471f278d" x="361.95159" y="275.345187" style="fill: #36d15a; fill-opacity: 0.8; stroke: #36d15a; stroke-opacity: 0.8"/>
     <use xlink:href="#m80471f278d" x="363.16193" y="117.274726" style="fill: #36d15a; fill-opacity: 0.8; stroke: #36d15a; stroke-opacity: 0.8"/>
     <use xlink:href="#m80471f278d" x="372.581253" y="256.417024" style="fill: #36d15a; fill-opacity: 0.8; stroke: #36d15a; stroke-opacity: 0.8"/>
     <use xlink:href="#m80471f278d" x="360.012175" y="210.119673" style="fill: #36d15a; fill-opacity: 0.8; stroke: #36d15a; stroke-opacity: 0.8"/>
     <use xlink:href="#m80471f278d" x="371.47203" y="155.127124" style="fill: #36d15a; fill-opacity: 0.8; stroke: #36d15a; stroke-opacity: 0.8"/>
     <use xlink:href="#m80471f278d" x="380.01568" y="205.113684" style="fill: #36d15a; fill-opacity: 0.8; stroke: #36d15a; stroke-opacity: 0.8"/>
     <use xlink:href="#m80471f278d" x="373.635353" y="222.972544" style="fill: #36d15a; fill-opacity: 0.8; stroke: #36d15a; stroke-opacity: 0.8"/>
     <use xlink:href="#m80471f278d" x="362.170894" y="175.035715" style="fill: #36d15a; fill-opacity: 0.8; stroke: #36d15a; stroke-opacity: 0.8"/>
     <use xlink:href="#m80471f278d" x="361.737736" y="144.055152" style="fill: #36d15a; fill-opacity: 0.8; stroke: #36d15a; stroke-opacity: 0.8"/>
     <use xlink:href="#m80471f278d" x="366.010845" y="106.699557" style="fill: #36d15a; fill-opacity: 0.8; stroke: #36d15a; stroke-opacity: 0.8"/>
    </g>
   </g>
   <g id="text_14">
    <!-- Meal Accuracy Distribution for Ctrl and CASK Groups -->
    <g transform="translate(7.2 22.396875) scale(0.2 -0.2)">
     <defs>
      <path id="DejaVuSans-44" d="M 1259 4147 
L 1259 519 
L 2022 519 
Q 2988 519 3436 956 
Q 3884 1394 3884 2338 
Q 3884 3275 3436 3711 
Q 2988 4147 2022 4147 
L 1259 4147 
z
M 628 4666 
L 1925 4666 
Q 3281 4666 3915 4102 
Q 4550 3538 4550 2338 
Q 4550 1131 3912 565 
Q 3275 0 1925 0 
L 628 0 
L 628 4666 
z
" transform="scale(0.015625)"/>
      <path id="DejaVuSans-69" d="M 603 3500 
L 1178 3500 
L 1178 0 
L 603 0 
L 603 3500 
z
M 603 4863 
L 1178 4863 
L 1178 4134 
L 603 4134 
L 603 4863 
z
" transform="scale(0.015625)"/>
      <path id="DejaVuSans-62" d="M 3116 1747 
Q 3116 2381 2855 2742 
Q 2594 3103 2138 3103 
Q 1681 3103 1420 2742 
Q 1159 2381 1159 1747 
Q 1159 1113 1420 752 
Q 1681 391 2138 391 
Q 2594 391 2855 752 
Q 3116 1113 3116 1747 
z
M 1159 2969 
Q 1341 3281 1617 3432 
Q 1894 3584 2278 3584 
Q 2916 3584 3314 3078 
Q 3713 2572 3713 1747 
Q 3713 922 3314 415 
Q 2916 -91 2278 -91 
Q 1894 -91 1617 61 
Q 1341 213 1159 525 
L 1159 0 
L 581 0 
L 581 4863 
L 1159 4863 
L 1159 2969 
z
" transform="scale(0.015625)"/>
      <path id="DejaVuSans-6e" d="M 3513 2113 
L 3513 0 
L 2938 0 
L 2938 2094 
Q 2938 2591 2744 2837 
Q 2550 3084 2163 3084 
Q 1697 3084 1428 2787 
Q 1159 2491 1159 1978 
L 1159 0 
L 581 0 
L 581 3500 
L 1159 3500 
L 1159 2956 
Q 1366 3272 1645 3428 
Q 1925 3584 2291 3584 
Q 2894 3584 3203 3211 
Q 3513 2838 3513 2113 
z
" transform="scale(0.015625)"/>
      <path id="DejaVuSans-66" d="M 2375 4863 
L 2375 4384 
L 1825 4384 
Q 1516 4384 1395 4259 
Q 1275 4134 1275 3809 
L 1275 3500 
L 2222 3500 
L 2222 3053 
L 1275 3053 
L 1275 0 
L 697 0 
L 697 3053 
L 147 3053 
L 147 3500 
L 697 3500 
L 697 3744 
Q 697 4328 969 4595 
Q 1241 4863 1831 4863 
L 2375 4863 
z
" transform="scale(0.015625)"/>
      <path id="DejaVuSans-64" d="M 2906 2969 
L 2906 4863 
L 3481 4863 
L 3481 0 
L 2906 0 
L 2906 525 
Q 2725 213 2448 61 
Q 2172 -91 1784 -91 
Q 1150 -91 751 415 
Q 353 922 353 1747 
Q 353 2572 751 3078 
Q 1150 3584 1784 3584 
Q 2172 3584 2448 3432 
Q 2725 3281 2906 2969 
z
M 947 1747 
Q 947 1113 1208 752 
Q 1469 391 1925 391 
Q 2381 391 2643 752 
Q 2906 1113 2906 1747 
Q 2906 2381 2643 2742 
Q 2381 3103 1925 3103 
Q 1469 3103 1208 2742 
Q 947 2381 947 1747 
z
" transform="scale(0.015625)"/>
     </defs>
     <use xlink:href="#DejaVuSans-4d"/>
     <use xlink:href="#DejaVuSans-65" x="86.279297"/>
     <use xlink:href="#DejaVuSans-61" x="147.802734"/>
     <use xlink:href="#DejaVuSans-6c" x="209.082031"/>
     <use xlink:href="#DejaVuSans-20" x="236.865234"/>
     <use xlink:href="#DejaVuSans-41" x="268.652344"/>
     <use xlink:href="#DejaVuSans-63" x="335.310547"/>
     <use xlink:href="#DejaVuSans-63" x="390.291016"/>
     <use xlink:href="#DejaVuSans-75" x="445.271484"/>
     <use xlink:href="#DejaVuSans-72" x="508.650391"/>
     <use xlink:href="#DejaVuSans-61" x="549.763672"/>
     <use xlink:href="#DejaVuSans-63" x="611.042969"/>
     <use xlink:href="#DejaVuSans-79" x="666.023438"/>
     <use xlink:href="#DejaVuSans-20" x="725.203125"/>
     <use xlink:href="#DejaVuSans-44" x="756.990234"/>
     <use xlink:href="#DejaVuSans-69" x="833.992188"/>
     <use xlink:href="#DejaVuSans-73" x="861.775391"/>
     <use xlink:href="#DejaVuSans-74" x="913.875"/>
     <use xlink:href="#DejaVuSans-72" x="953.083984"/>
     <use xlink:href="#DejaVuSans-69" x="994.197266"/>
     <use xlink:href="#DejaVuSans-62" x="1021.980469"/>
     <use xlink:href="#DejaVuSans-75" x="1085.457031"/>
     <use xlink:href="#DejaVuSans-74" x="1148.835938"/>
     <use xlink:href="#DejaVuSans-69" x="1188.044922"/>
     <use xlink:href="#DejaVuSans-6f" x="1215.828125"/>
     <use xlink:href="#DejaVuSans-6e" x="1277.009766"/>
     <use xlink:href="#DejaVuSans-20" x="1340.388672"/>
     <use xlink:href="#DejaVuSans-66" x="1372.175781"/>
     <use xlink:href="#DejaVuSans-6f" x="1407.380859"/>
     <use xlink:href="#DejaVuSans-72" x="1468.5625"/>
     <use xlink:href="#DejaVuSans-20" x="1509.675781"/>
     <use xlink:href="#DejaVuSans-43" x="1541.462891"/>
     <use xlink:href="#DejaVuSans-74" x="1611.287109"/>
     <use xlink:href="#DejaVuSans-72" x="1650.496094"/>
     <use xlink:href="#DejaVuSans-6c" x="1691.609375"/>
     <use xlink:href="#DejaVuSans-20" x="1719.392578"/>
     <use xlink:href="#DejaVuSans-61" x="1751.179688"/>
     <use xlink:href="#DejaVuSans-6e" x="1812.458984"/>
     <use xlink:href="#DejaVuSans-64" x="1875.837891"/>
     <use xlink:href="#DejaVuSans-20" x="1939.314453"/>
     <use xlink:href="#DejaVuSans-43" x="1971.101562"/>
     <use xlink:href="#DejaVuSans-41" x="2040.925781"/>
     <use xlink:href="#DejaVuSans-53" x="2109.333984"/>
     <use xlink:href="#DejaVuSans-4b" x="2172.810547"/>
     <use xlink:href="#DejaVuSans-20" x="2238.386719"/>
     <use xlink:href="#DejaVuSans-47" x="2270.173828"/>
     <use xlink:href="#DejaVuSans-72" x="2347.664062"/>
     <use xlink:href="#DejaVuSans-6f" x="2386.527344"/>
     <use xlink:href="#DejaVuSans-75" x="2447.708984"/>
     <use xlink:href="#DejaVuSans-70" x="2511.087891"/>
     <use xlink:href="#DejaVuSans-73" x="2574.564453"/>
    </g>
   </g>
   <g id="legend_1">
    <g id="patch_7">
     <path d="M 109.4625 356.036875 
L 212.971875 356.036875 
Q 214.971875 356.036875 214.971875 354.036875 
L 214.971875 325.680625 
Q 214.971875 323.680625 212.971875 323.680625 
L 109.4625 323.680625 
Q 107.4625 323.680625 107.4625 325.680625 
L 107.4625 354.036875 
Q 107.4625 356.036875 109.4625 356.036875 
z
" style="fill: #ffffff; opacity: 0.8; stroke: #cccccc; stroke-linejoin: miter"/>
    </g>
    <g id="patch_8">
     <path d="M 111.4625 335.279062 
L 131.4625 335.279062 
L 131.4625 328.279062 
L 111.4625 328.279062 
z
" style="fill: #38bcf5; opacity: 0.6; stroke: #38bcf5; stroke-linejoin: miter"/>
    </g>
    <g id="text_15">
     <!-- Ctrl (n = 26) -->
     <g transform="translate(139.4625 335.279062) scale(0.1 -0.1)">
      <defs>
       <path id="DejaVuSans-3d" d="M 678 2906 
L 4684 2906 
L 4684 2381 
L 678 2381 
L 678 2906 
z
M 678 1631 
L 4684 1631 
L 4684 1100 
L 678 1100 
L 678 1631 
z
" transform="scale(0.015625)"/>
       <path id="DejaVuSans-36" d="M 2113 2584 
Q 1688 2584 1439 2293 
Q 1191 2003 1191 1497 
Q 1191 994 1439 701 
Q 1688 409 2113 409 
Q 2538 409 2786 701 
Q 3034 994 3034 1497 
Q 3034 2003 2786 2293 
Q 2538 2584 2113 2584 
z
M 3366 4563 
L 3366 3988 
Q 3128 4100 2886 4159 
Q 2644 4219 2406 4219 
Q 1781 4219 1451 3797 
Q 1122 3375 1075 2522 
Q 1259 2794 1537 2939 
Q 1816 3084 2150 3084 
Q 2853 3084 3261 2657 
Q 3669 2231 3669 1497 
Q 3669 778 3244 343 
Q 2819 -91 2113 -91 
Q 1303 -91 875 529 
Q 447 1150 447 2328 
Q 447 3434 972 4092 
Q 1497 4750 2381 4750 
Q 2619 4750 2861 4703 
Q 3103 4656 3366 4563 
z
" transform="scale(0.015625)"/>
      </defs>
      <use xlink:href="#DejaVuSans-43"/>
      <use xlink:href="#DejaVuSans-74" x="69.824219"/>
      <use xlink:href="#DejaVuSans-72" x="109.033203"/>
      <use xlink:href="#DejaVuSans-6c" x="150.146484"/>
      <use xlink:href="#DejaVuSans-20" x="177.929688"/>
      <use xlink:href="#DejaVuSans-28" x="209.716797"/>
      <use xlink:href="#DejaVuSans-6e" x="248.730469"/>
      <use xlink:href="#DejaVuSans-20" x="312.109375"/>
      <use xlink:href="#DejaVuSans-3d" x="343.896484"/>
      <use xlink:href="#DejaVuSans-20" x="427.685547"/>
      <use xlink:href="#DejaVuSans-32" x="459.472656"/>
      <use xlink:href="#DejaVuSans-36" x="523.095703"/>
      <use xlink:href="#DejaVuSans-29" x="586.71875"/>
     </g>
    </g>
    <g id="patch_9">
     <path d="M 111.4625 349.957187 
L 131.4625 349.957187 
L 131.4625 342.957187 
L 111.4625 342.957187 
z
" style="fill: #38f5a6; opacity: 0.6; stroke: #38f5a6; stroke-linejoin: miter"/>
    </g>
    <g id="text_16">
     <!-- CASK (n = 24) -->
     <g transform="translate(139.4625 349.957187) scale(0.1 -0.1)">
      <defs>
       <path id="DejaVuSans-34" d="M 2419 4116 
L 825 1625 
L 2419 1625 
L 2419 4116 
z
M 2253 4666 
L 3047 4666 
L 3047 1625 
L 3713 1625 
L 3713 1100 
L 3047 1100 
L 3047 0 
L 2419 0 
L 2419 1100 
L 313 1100 
L 313 1709 
L 2253 4666 
z
" transform="scale(0.015625)"/>
      </defs>
      <use xlink:href="#DejaVuSans-43"/>
      <use xlink:href="#DejaVuSans-41" x="69.824219"/>
      <use xlink:href="#DejaVuSans-53" x="138.232422"/>
      <use xlink:href="#DejaVuSans-4b" x="201.708984"/>
      <use xlink:href="#DejaVuSans-20" x="267.285156"/>
      <use xlink:href="#DejaVuSans-28" x="299.072266"/>
      <use xlink:href="#DejaVuSans-6e" x="338.085938"/>
      <use xlink:href="#DejaVuSans-20" x="401.464844"/>
      <use xlink:href="#DejaVuSans-3d" x="433.251953"/>
      <use xlink:href="#DejaVuSans-20" x="517.041016"/>
      <use xlink:href="#DejaVuSans-32" x="548.828125"/>
      <use xlink:href="#DejaVuSans-34" x="612.451172"/>
      <use xlink:href="#DejaVuSans-29" x="676.074219"/>
     </g>
    </g>
   </g>
  </g>
 </g>
 <defs>
  <clipPath id="pdcfec4c9b3">
   <rect x="102.4625" y="28.396875" width="334.8" height="332.64"/>
  </clipPath>
 </defs>
</svg>
