<?xml version="1.0" encoding="utf-8" standalone="no"?>
<!DOCTYPE svg PUBLIC "-//W3C//DTD SVG 1.1//EN"
  "http://www.w3.org/Graphics/SVG/1.1/DTD/svg11.dtd">
<svg xmlns:xlink="http://www.w3.org/1999/xlink" width="336.62pt" height="399.425pt" viewBox="0 0 336.62 399.425" xmlns="http://www.w3.org/2000/svg" version="1.1">
 <metadata>
  <rdf:RDF xmlns:dc="http://purl.org/dc/elements/1.1/" xmlns:cc="http://creativecommons.org/ns#" xmlns:rdf="http://www.w3.org/1999/02/22-rdf-syntax-ns#">
   <cc:Work>
    <dc:type rdf:resource="http://purl.org/dc/dcmitype/StillImage"/>
    <dc:date>2025-04-10T15:22:17.079439</dc:date>
    <dc:format>image/svg+xml</dc:format>
    <dc:creator>
     <cc:Agent>
      <dc:title>Matplotlib v3.8.3, https://matplotlib.org/</dc:title>
     </cc:Agent>
    </dc:creator>
   </cc:Work>
  </rdf:RDF>
 </metadata>
 <defs>
  <style type="text/css">*{stroke-linejoin: round; stroke-linecap: butt}</style>
 </defs>
 <g id="figure_1">
  <g id="patch_1">
   <path d="M 0 399.425 
L 336.62 399.425 
L 336.62 0 
L 0 0 
z
" style="fill: #ffffff"/>
  </g>
  <g id="axes_1">
   <g id="patch_2">
    <path d="M 84.61 357.9975 
L 252.01 357.9975 
L 252.01 25.3575 
L 84.61 25.3575 
z
" style="fill: #ffffff"/>
   </g>
   <g id="PolyCollection_1">
    <defs>
     <path id="me4ecab059c" d="M 171.205896 -56.5475 
L 165.414104 -56.5475 
L 165.418935 -59.602045 
L 165.443756 -62.656591 
L 165.487338 -65.711136 
L 165.547887 -68.765682 
L 165.623074 -71.820227 
L 165.710092 -74.874773 
L 165.805709 -77.929318 
L 165.906349 -80.983864 
L 166.008163 -84.038409 
L 166.107118 -87.092955 
L 166.199072 -90.1475 
L 166.279862 -93.202045 
L 166.345372 -96.256591 
L 166.391608 -99.311136 
L 166.414756 -102.365682 
L 166.411238 -105.420227 
L 166.377757 -108.474773 
L 166.311331 -111.529318 
L 166.209325 -114.583864 
L 166.06947 -117.638409 
L 165.889878 -120.692955 
L 165.669042 -123.7475 
L 165.405839 -126.802045 
L 165.099518 -129.856591 
L 164.749681 -132.911136 
L 164.356263 -135.965682 
L 163.919497 -139.020227 
L 163.43988 -142.074773 
L 162.918131 -145.129318 
L 162.35515 -148.183864 
L 161.751972 -151.238409 
L 161.109729 -154.292955 
L 160.429615 -157.3475 
L 159.712858 -160.402045 
L 158.960706 -163.456591 
L 158.174423 -166.511136 
L 157.355307 -169.565682 
L 156.504711 -172.620227 
L 155.624092 -175.674773 
L 154.715063 -178.729318 
L 153.779459 -181.783864 
L 152.819409 -184.838409 
L 151.837405 -187.892955 
L 150.83637 -190.9475 
L 149.819713 -194.002045 
L 148.791374 -197.056591 
L 147.755842 -200.111136 
L 146.718156 -203.165682 
L 145.68388 -206.220227 
L 144.659052 -209.274773 
L 143.650117 -212.329318 
L 142.663827 -215.383864 
L 141.70714 -218.438409 
L 140.787104 -221.492955 
L 139.91073 -224.5475 
L 139.084879 -227.602045 
L 138.316149 -230.656591 
L 137.610779 -233.711136 
L 136.974566 -236.765682 
L 136.4128 -239.820227 
L 135.930222 -242.874773 
L 135.530993 -245.929318 
L 135.218681 -248.983864 
L 134.996257 -252.038409 
L 134.866101 -255.092955 
L 134.83 -258.1475 
L 134.889152 -261.202045 
L 135.044157 -264.256591 
L 135.295001 -267.311136 
L 135.641028 -270.365682 
L 136.080902 -273.420227 
L 136.612559 -276.474773 
L 137.233162 -279.529318 
L 137.939053 -282.583864 
L 138.725714 -285.638409 
L 139.587741 -288.692955 
L 140.518849 -291.7475 
L 141.511889 -294.802045 
L 142.558914 -297.856591 
L 143.651262 -300.911136 
L 144.779688 -303.965682 
L 145.934517 -307.020227 
L 147.105828 -310.074773 
L 148.283662 -313.129318 
L 149.458238 -316.183864 
L 150.620169 -319.238409 
L 151.760679 -322.292955 
L 152.87179 -325.3475 
L 153.946491 -328.402045 
L 154.978863 -331.456591 
L 155.964171 -334.511136 
L 156.898906 -337.565682 
L 157.780777 -340.620227 
L 158.608665 -343.674773 
L 159.382538 -346.729318 
L 160.103323 -349.783864 
L 160.772761 -352.838409 
L 161.393243 -355.892955 
L 161.96763 -358.9475 
L 174.65237 -358.9475 
L 174.65237 -358.9475 
L 175.226757 -355.892955 
L 175.847239 -352.838409 
L 176.516677 -349.783864 
L 177.237462 -346.729318 
L 178.011335 -343.674773 
L 178.839223 -340.620227 
L 179.721094 -337.565682 
L 180.655829 -334.511136 
L 181.641137 -331.456591 
L 182.673509 -328.402045 
L 183.74821 -325.3475 
L 184.859321 -322.292955 
L 185.999831 -319.238409 
L 187.161762 -316.183864 
L 188.336338 -313.129318 
L 189.514172 -310.074773 
L 190.685483 -307.020227 
L 191.840312 -303.965682 
L 192.968738 -300.911136 
L 194.061086 -297.856591 
L 195.108111 -294.802045 
L 196.101151 -291.7475 
L 197.032259 -288.692955 
L 197.894286 -285.638409 
L 198.680947 -282.583864 
L 199.386838 -279.529318 
L 200.007441 -276.474773 
L 200.539098 -273.420227 
L 200.978972 -270.365682 
L 201.324999 -267.311136 
L 201.575843 -264.256591 
L 201.730848 -261.202045 
L 201.79 -258.1475 
L 201.753899 -255.092955 
L 201.623743 -252.038409 
L 201.401319 -248.983864 
L 201.089007 -245.929318 
L 200.689778 -242.874773 
L 200.2072 -239.820227 
L 199.645434 -236.765682 
L 199.009221 -233.711136 
L 198.303851 -230.656591 
L 197.535121 -227.602045 
L 196.70927 -224.5475 
L 195.832896 -221.492955 
L 194.91286 -218.438409 
L 193.956173 -215.383864 
L 192.969883 -212.329318 
L 191.960948 -209.274773 
L 190.93612 -206.220227 
L 189.901844 -203.165682 
L 188.864158 -200.111136 
L 187.828626 -197.056591 
L 186.800287 -194.002045 
L 185.78363 -190.9475 
L 184.782595 -187.892955 
L 183.800591 -184.838409 
L 182.840541 -181.783864 
L 181.904937 -178.729318 
L 180.995908 -175.674773 
L 180.115289 -172.620227 
L 179.264693 -169.565682 
L 178.445577 -166.511136 
L 177.659294 -163.456591 
L 176.907142 -160.402045 
L 176.190385 -157.3475 
L 175.510271 -154.292955 
L 174.868028 -151.238409 
L 174.26485 -148.183864 
L 173.701869 -145.129318 
L 173.18012 -142.074773 
L 172.700503 -139.020227 
L 172.263737 -135.965682 
L 171.870319 -132.911136 
L 171.520482 -129.856591 
L 171.214161 -126.802045 
L 170.950958 -123.7475 
L 170.730122 -120.692955 
L 170.55053 -117.638409 
L 170.410675 -114.583864 
L 170.308669 -111.529318 
L 170.242243 -108.474773 
L 170.208762 -105.420227 
L 170.205244 -102.365682 
L 170.228392 -99.311136 
L 170.274628 -96.256591 
L 170.340138 -93.202045 
L 170.420928 -90.1475 
L 170.512882 -87.092955 
L 170.611837 -84.038409 
L 170.713651 -80.983864 
L 170.814291 -77.929318 
L 170.909908 -74.874773 
L 170.996926 -71.820227 
L 171.072113 -68.765682 
L 171.132662 -65.711136 
L 171.176244 -62.656591 
L 171.201065 -59.602045 
L 171.205896 -56.5475 
z
" style="stroke: #000000; stroke-opacity: 0.8"/>
    </defs>
    <g clip-path="url(#p17ce4720cd)">
     <use xlink:href="#me4ecab059c" x="0" y="399.425" style="fill: #add8e6; fill-opacity: 0.8; stroke: #000000; stroke-opacity: 0.8"/>
    </g>
   </g>
   <g id="matplotlib.axis_1">
    <g id="xtick_1">
     <g id="line2d_1">
      <defs>
       <path id="mb11cd416ea" d="M 0 0 
L 0 3.5 
" style="stroke: #000000; stroke-width: 0.8"/>
      </defs>
      <g>
       <use xlink:href="#mb11cd416ea" x="168.31" y="357.9975" style="stroke: #000000; stroke-width: 0.8"/>
      </g>
     </g>
     <g id="text_1">
      <!-- Female -->
      <g transform="translate(150.232656 372.595937) scale(0.1 -0.1)">
       <defs>
        <path id="DejaVuSans-46" d="M 628 4666 
L 3309 4666 
L 3309 4134 
L 1259 4134 
L 1259 2759 
L 3109 2759 
L 3109 2228 
L 1259 2228 
L 1259 0 
L 628 0 
L 628 4666 
z
" transform="scale(0.015625)"/>
        <path id="DejaVuSans-65" d="M 3597 1894 
L 3597 1613 
L 953 1613 
Q 991 1019 1311 708 
Q 1631 397 2203 397 
Q 2534 397 2845 478 
Q 3156 559 3463 722 
L 3463 178 
Q 3153 47 2828 -22 
Q 2503 -91 2169 -91 
Q 1331 -91 842 396 
Q 353 884 353 1716 
Q 353 2575 817 3079 
Q 1281 3584 2069 3584 
Q 2775 3584 3186 3129 
Q 3597 2675 3597 1894 
z
M 3022 2063 
Q 3016 2534 2758 2815 
Q 2500 3097 2075 3097 
Q 1594 3097 1305 2825 
Q 1016 2553 972 2059 
L 3022 2063 
z
" transform="scale(0.015625)"/>
        <path id="DejaVuSans-6d" d="M 3328 2828 
Q 3544 3216 3844 3400 
Q 4144 3584 4550 3584 
Q 5097 3584 5394 3201 
Q 5691 2819 5691 2113 
L 5691 0 
L 5113 0 
L 5113 2094 
Q 5113 2597 4934 2840 
Q 4756 3084 4391 3084 
Q 3944 3084 3684 2787 
Q 3425 2491 3425 1978 
L 3425 0 
L 2847 0 
L 2847 2094 
Q 2847 2600 2669 2842 
Q 2491 3084 2119 3084 
Q 1678 3084 1418 2786 
Q 1159 2488 1159 1978 
L 1159 0 
L 581 0 
L 581 3500 
L 1159 3500 
L 1159 2956 
Q 1356 3278 1631 3431 
Q 1906 3584 2284 3584 
Q 2666 3584 2933 3390 
Q 3200 3197 3328 2828 
z
" transform="scale(0.015625)"/>
        <path id="DejaVuSans-61" d="M 2194 1759 
Q 1497 1759 1228 1600 
Q 959 1441 959 1056 
Q 959 750 1161 570 
Q 1363 391 1709 391 
Q 2188 391 2477 730 
Q 2766 1069 2766 1631 
L 2766 1759 
L 2194 1759 
z
M 3341 1997 
L 3341 0 
L 2766 0 
L 2766 531 
Q 2569 213 2275 61 
Q 1981 -91 1556 -91 
Q 1019 -91 701 211 
Q 384 513 384 1019 
Q 384 1609 779 1909 
Q 1175 2209 1959 2209 
L 2766 2209 
L 2766 2266 
Q 2766 2663 2505 2880 
Q 2244 3097 1772 3097 
Q 1472 3097 1187 3025 
Q 903 2953 641 2809 
L 641 3341 
Q 956 3463 1253 3523 
Q 1550 3584 1831 3584 
Q 2591 3584 2966 3190 
Q 3341 2797 3341 1997 
z
" transform="scale(0.015625)"/>
        <path id="DejaVuSans-6c" d="M 603 4863 
L 1178 4863 
L 1178 0 
L 603 0 
L 603 4863 
z
" transform="scale(0.015625)"/>
       </defs>
       <use xlink:href="#DejaVuSans-46"/>
       <use xlink:href="#DejaVuSans-65" x="52.019531"/>
       <use xlink:href="#DejaVuSans-6d" x="113.542969"/>
       <use xlink:href="#DejaVuSans-61" x="210.955078"/>
       <use xlink:href="#DejaVuSans-6c" x="272.234375"/>
       <use xlink:href="#DejaVuSans-65" x="300.017578"/>
      </g>
     </g>
    </g>
    <g id="text_2">
     <!-- Groups -->
     <g transform="translate(143.356094 389.313437) scale(0.14 -0.14)">
      <defs>
       <path id="DejaVuSans-47" d="M 3809 666 
L 3809 1919 
L 2778 1919 
L 2778 2438 
L 4434 2438 
L 4434 434 
Q 4069 175 3628 42 
Q 3188 -91 2688 -91 
Q 1594 -91 976 548 
Q 359 1188 359 2328 
Q 359 3472 976 4111 
Q 1594 4750 2688 4750 
Q 3144 4750 3555 4637 
Q 3966 4525 4313 4306 
L 4313 3634 
Q 3963 3931 3569 4081 
Q 3175 4231 2741 4231 
Q 1884 4231 1454 3753 
Q 1025 3275 1025 2328 
Q 1025 1384 1454 906 
Q 1884 428 2741 428 
Q 3075 428 3337 486 
Q 3600 544 3809 666 
z
" transform="scale(0.015625)"/>
       <path id="DejaVuSans-72" d="M 2631 2963 
Q 2534 3019 2420 3045 
Q 2306 3072 2169 3072 
Q 1681 3072 1420 2755 
Q 1159 2438 1159 1844 
L 1159 0 
L 581 0 
L 581 3500 
L 1159 3500 
L 1159 2956 
Q 1341 3275 1631 3429 
Q 1922 3584 2338 3584 
Q 2397 3584 2469 3576 
Q 2541 3569 2628 3553 
L 2631 2963 
z
" transform="scale(0.015625)"/>
       <path id="DejaVuSans-6f" d="M 1959 3097 
Q 1497 3097 1228 2736 
Q 959 2375 959 1747 
Q 959 1119 1226 758 
Q 1494 397 1959 397 
Q 2419 397 2687 759 
Q 2956 1122 2956 1747 
Q 2956 2369 2687 2733 
Q 2419 3097 1959 3097 
z
M 1959 3584 
Q 2709 3584 3137 3096 
Q 3566 2609 3566 1747 
Q 3566 888 3137 398 
Q 2709 -91 1959 -91 
Q 1206 -91 779 398 
Q 353 888 353 1747 
Q 353 2609 779 3096 
Q 1206 3584 1959 3584 
z
" transform="scale(0.015625)"/>
       <path id="DejaVuSans-75" d="M 544 1381 
L 544 3500 
L 1119 3500 
L 1119 1403 
Q 1119 906 1312 657 
Q 1506 409 1894 409 
Q 2359 409 2629 706 
Q 2900 1003 2900 1516 
L 2900 3500 
L 3475 3500 
L 3475 0 
L 2900 0 
L 2900 538 
Q 2691 219 2414 64 
Q 2138 -91 1772 -91 
Q 1169 -91 856 284 
Q 544 659 544 1381 
z
M 1991 3584 
L 1991 3584 
z
" transform="scale(0.015625)"/>
       <path id="DejaVuSans-70" d="M 1159 525 
L 1159 -1331 
L 581 -1331 
L 581 3500 
L 1159 3500 
L 1159 2969 
Q 1341 3281 1617 3432 
Q 1894 3584 2278 3584 
Q 2916 3584 3314 3078 
Q 3713 2572 3713 1747 
Q 3713 922 3314 415 
Q 2916 -91 2278 -91 
Q 1894 -91 1617 61 
Q 1341 213 1159 525 
z
M 3116 1747 
Q 3116 2381 2855 2742 
Q 2594 3103 2138 3103 
Q 1681 3103 1420 2742 
Q 1159 2381 1159 1747 
Q 1159 1113 1420 752 
Q 1681 391 2138 391 
Q 2594 391 2855 752 
Q 3116 1113 3116 1747 
z
" transform="scale(0.015625)"/>
       <path id="DejaVuSans-73" d="M 2834 3397 
L 2834 2853 
Q 2591 2978 2328 3040 
Q 2066 3103 1784 3103 
Q 1356 3103 1142 2972 
Q 928 2841 928 2578 
Q 928 2378 1081 2264 
Q 1234 2150 1697 2047 
L 1894 2003 
Q 2506 1872 2764 1633 
Q 3022 1394 3022 966 
Q 3022 478 2636 193 
Q 2250 -91 1575 -91 
Q 1294 -91 989 -36 
Q 684 19 347 128 
L 347 722 
Q 666 556 975 473 
Q 1284 391 1588 391 
Q 1994 391 2212 530 
Q 2431 669 2431 922 
Q 2431 1156 2273 1281 
Q 2116 1406 1581 1522 
L 1381 1569 
Q 847 1681 609 1914 
Q 372 2147 372 2553 
Q 372 3047 722 3315 
Q 1072 3584 1716 3584 
Q 2034 3584 2315 3537 
Q 2597 3491 2834 3397 
z
" transform="scale(0.015625)"/>
      </defs>
      <use xlink:href="#DejaVuSans-47"/>
      <use xlink:href="#DejaVuSans-72" x="77.490234"/>
      <use xlink:href="#DejaVuSans-6f" x="116.353516"/>
      <use xlink:href="#DejaVuSans-75" x="177.535156"/>
      <use xlink:href="#DejaVuSans-70" x="240.914062"/>
      <use xlink:href="#DejaVuSans-73" x="304.390625"/>
     </g>
    </g>
   </g>
   <g id="matplotlib.axis_2">
    <g id="ytick_1">
     <g id="line2d_2">
      <defs>
       <path id="mfd4b4d9929" d="M 0 0 
L -3.5 0 
" style="stroke: #000000; stroke-width: 0.8"/>
      </defs>
      <g>
       <use xlink:href="#mfd4b4d9929" x="84.61" y="302.842116" style="stroke: #000000; stroke-width: 0.8"/>
      </g>
     </g>
     <g id="text_3">
      <!-- 35 -->
      <g transform="translate(64.885 306.641335) scale(0.1 -0.1)">
       <defs>
        <path id="DejaVuSans-33" d="M 2597 2516 
Q 3050 2419 3304 2112 
Q 3559 1806 3559 1356 
Q 3559 666 3084 287 
Q 2609 -91 1734 -91 
Q 1441 -91 1130 -33 
Q 819 25 488 141 
L 488 750 
Q 750 597 1062 519 
Q 1375 441 1716 441 
Q 2309 441 2620 675 
Q 2931 909 2931 1356 
Q 2931 1769 2642 2001 
Q 2353 2234 1838 2234 
L 1294 2234 
L 1294 2753 
L 1863 2753 
Q 2328 2753 2575 2939 
Q 2822 3125 2822 3475 
Q 2822 3834 2567 4026 
Q 2313 4219 1838 4219 
Q 1578 4219 1281 4162 
Q 984 4106 628 3988 
L 628 4550 
Q 988 4650 1302 4700 
Q 1616 4750 1894 4750 
Q 2613 4750 3031 4423 
Q 3450 4097 3450 3541 
Q 3450 3153 3228 2886 
Q 3006 2619 2597 2516 
z
" transform="scale(0.015625)"/>
        <path id="DejaVuSans-35" d="M 691 4666 
L 3169 4666 
L 3169 4134 
L 1269 4134 
L 1269 2991 
Q 1406 3038 1543 3061 
Q 1681 3084 1819 3084 
Q 2600 3084 3056 2656 
Q 3513 2228 3513 1497 
Q 3513 744 3044 326 
Q 2575 -91 1722 -91 
Q 1428 -91 1123 -41 
Q 819 9 494 109 
L 494 744 
Q 775 591 1075 516 
Q 1375 441 1709 441 
Q 2250 441 2565 725 
Q 2881 1009 2881 1497 
Q 2881 1984 2565 2268 
Q 2250 2553 1709 2553 
Q 1456 2553 1204 2497 
Q 953 2441 691 2322 
L 691 4666 
z
" transform="scale(0.015625)"/>
       </defs>
       <use xlink:href="#DejaVuSans-33"/>
       <use xlink:href="#DejaVuSans-35" x="63.623047"/>
      </g>
     </g>
    </g>
    <g id="ytick_2">
     <g id="line2d_3">
      <g>
       <use xlink:href="#mfd4b4d9929" x="84.61" y="238.416243" style="stroke: #000000; stroke-width: 0.8"/>
      </g>
     </g>
     <g id="text_4">
      <!-- 40 -->
      <g transform="translate(64.885 242.215462) scale(0.1 -0.1)">
       <defs>
        <path id="DejaVuSans-34" d="M 2419 4116 
L 825 1625 
L 2419 1625 
L 2419 4116 
z
M 2253 4666 
L 3047 4666 
L 3047 1625 
L 3713 1625 
L 3713 1100 
L 3047 1100 
L 3047 0 
L 2419 0 
L 2419 1100 
L 313 1100 
L 313 1709 
L 2253 4666 
z
" transform="scale(0.015625)"/>
        <path id="DejaVuSans-30" d="M 2034 4250 
Q 1547 4250 1301 3770 
Q 1056 3291 1056 2328 
Q 1056 1369 1301 889 
Q 1547 409 2034 409 
Q 2525 409 2770 889 
Q 3016 1369 3016 2328 
Q 3016 3291 2770 3770 
Q 2525 4250 2034 4250 
z
M 2034 4750 
Q 2819 4750 3233 4129 
Q 3647 3509 3647 2328 
Q 3647 1150 3233 529 
Q 2819 -91 2034 -91 
Q 1250 -91 836 529 
Q 422 1150 422 2328 
Q 422 3509 836 4129 
Q 1250 4750 2034 4750 
z
" transform="scale(0.015625)"/>
       </defs>
       <use xlink:href="#DejaVuSans-34"/>
       <use xlink:href="#DejaVuSans-30" x="63.623047"/>
      </g>
     </g>
    </g>
    <g id="ytick_3">
     <g id="line2d_4">
      <g>
       <use xlink:href="#mfd4b4d9929" x="84.61" y="173.99037" style="stroke: #000000; stroke-width: 0.8"/>
      </g>
     </g>
     <g id="text_5">
      <!-- 45 -->
      <g transform="translate(64.885 177.789589) scale(0.1 -0.1)">
       <use xlink:href="#DejaVuSans-34"/>
       <use xlink:href="#DejaVuSans-35" x="63.623047"/>
      </g>
     </g>
    </g>
    <g id="ytick_4">
     <g id="line2d_5">
      <g>
       <use xlink:href="#mfd4b4d9929" x="84.61" y="109.564497" style="stroke: #000000; stroke-width: 0.8"/>
      </g>
     </g>
     <g id="text_6">
      <!-- 50 -->
      <g transform="translate(64.885 113.363716) scale(0.1 -0.1)">
       <use xlink:href="#DejaVuSans-35"/>
       <use xlink:href="#DejaVuSans-30" x="63.623047"/>
      </g>
     </g>
    </g>
    <g id="ytick_5">
     <g id="line2d_6">
      <g>
       <use xlink:href="#mfd4b4d9929" x="84.61" y="45.138625" style="stroke: #000000; stroke-width: 0.8"/>
      </g>
     </g>
     <g id="text_7">
      <!-- 55 -->
      <g transform="translate(64.885 48.937843) scale(0.1 -0.1)">
       <use xlink:href="#DejaVuSans-35"/>
       <use xlink:href="#DejaVuSans-35" x="63.623047"/>
      </g>
     </g>
    </g>
    <g id="text_8">
     <!-- Learning Score -->
     <g transform="translate(57.973438 243.896406) rotate(-90) scale(0.14 -0.14)">
      <defs>
       <path id="DejaVuSans-4c" d="M 628 4666 
L 1259 4666 
L 1259 531 
L 3531 531 
L 3531 0 
L 628 0 
L 628 4666 
z
" transform="scale(0.015625)"/>
       <path id="DejaVuSans-6e" d="M 3513 2113 
L 3513 0 
L 2938 0 
L 2938 2094 
Q 2938 2591 2744 2837 
Q 2550 3084 2163 3084 
Q 1697 3084 1428 2787 
Q 1159 2491 1159 1978 
L 1159 0 
L 581 0 
L 581 3500 
L 1159 3500 
L 1159 2956 
Q 1366 3272 1645 3428 
Q 1925 3584 2291 3584 
Q 2894 3584 3203 3211 
Q 3513 2838 3513 2113 
z
" transform="scale(0.015625)"/>
       <path id="DejaVuSans-69" d="M 603 3500 
L 1178 3500 
L 1178 0 
L 603 0 
L 603 3500 
z
M 603 4863 
L 1178 4863 
L 1178 4134 
L 603 4134 
L 603 4863 
z
" transform="scale(0.015625)"/>
       <path id="DejaVuSans-67" d="M 2906 1791 
Q 2906 2416 2648 2759 
Q 2391 3103 1925 3103 
Q 1463 3103 1205 2759 
Q 947 2416 947 1791 
Q 947 1169 1205 825 
Q 1463 481 1925 481 
Q 2391 481 2648 825 
Q 2906 1169 2906 1791 
z
M 3481 434 
Q 3481 -459 3084 -895 
Q 2688 -1331 1869 -1331 
Q 1566 -1331 1297 -1286 
Q 1028 -1241 775 -1147 
L 775 -588 
Q 1028 -725 1275 -790 
Q 1522 -856 1778 -856 
Q 2344 -856 2625 -561 
Q 2906 -266 2906 331 
L 2906 616 
Q 2728 306 2450 153 
Q 2172 0 1784 0 
Q 1141 0 747 490 
Q 353 981 353 1791 
Q 353 2603 747 3093 
Q 1141 3584 1784 3584 
Q 2172 3584 2450 3431 
Q 2728 3278 2906 2969 
L 2906 3500 
L 3481 3500 
L 3481 434 
z
" transform="scale(0.015625)"/>
       <path id="DejaVuSans-20" transform="scale(0.015625)"/>
       <path id="DejaVuSans-53" d="M 3425 4513 
L 3425 3897 
Q 3066 4069 2747 4153 
Q 2428 4238 2131 4238 
Q 1616 4238 1336 4038 
Q 1056 3838 1056 3469 
Q 1056 3159 1242 3001 
Q 1428 2844 1947 2747 
L 2328 2669 
Q 3034 2534 3370 2195 
Q 3706 1856 3706 1288 
Q 3706 609 3251 259 
Q 2797 -91 1919 -91 
Q 1588 -91 1214 -16 
Q 841 59 441 206 
L 441 856 
Q 825 641 1194 531 
Q 1563 422 1919 422 
Q 2459 422 2753 634 
Q 3047 847 3047 1241 
Q 3047 1584 2836 1778 
Q 2625 1972 2144 2069 
L 1759 2144 
Q 1053 2284 737 2584 
Q 422 2884 422 3419 
Q 422 4038 858 4394 
Q 1294 4750 2059 4750 
Q 2388 4750 2728 4690 
Q 3069 4631 3425 4513 
z
" transform="scale(0.015625)"/>
       <path id="DejaVuSans-63" d="M 3122 3366 
L 3122 2828 
Q 2878 2963 2633 3030 
Q 2388 3097 2138 3097 
Q 1578 3097 1268 2742 
Q 959 2388 959 1747 
Q 959 1106 1268 751 
Q 1578 397 2138 397 
Q 2388 397 2633 464 
Q 2878 531 3122 666 
L 3122 134 
Q 2881 22 2623 -34 
Q 2366 -91 2075 -91 
Q 1284 -91 818 406 
Q 353 903 353 1747 
Q 353 2603 823 3093 
Q 1294 3584 2113 3584 
Q 2378 3584 2631 3529 
Q 2884 3475 3122 3366 
z
" transform="scale(0.015625)"/>
      </defs>
      <use xlink:href="#DejaVuSans-4c"/>
      <use xlink:href="#DejaVuSans-65" x="53.962891"/>
      <use xlink:href="#DejaVuSans-61" x="115.486328"/>
      <use xlink:href="#DejaVuSans-72" x="176.765625"/>
      <use xlink:href="#DejaVuSans-6e" x="216.128906"/>
      <use xlink:href="#DejaVuSans-69" x="279.507812"/>
      <use xlink:href="#DejaVuSans-6e" x="307.291016"/>
      <use xlink:href="#DejaVuSans-67" x="370.669922"/>
      <use xlink:href="#DejaVuSans-20" x="434.146484"/>
      <use xlink:href="#DejaVuSans-53" x="465.933594"/>
      <use xlink:href="#DejaVuSans-63" x="529.410156"/>
      <use xlink:href="#DejaVuSans-6f" x="584.390625"/>
      <use xlink:href="#DejaVuSans-72" x="645.572266"/>
      <use xlink:href="#DejaVuSans-65" x="684.435547"/>
     </g>
    </g>
   </g>
   <g id="patch_3">
    <path d="M 84.61 357.9975 
L 84.61 25.3575 
" style="fill: none; stroke: #000000; stroke-width: 0.8; stroke-linejoin: miter; stroke-linecap: square"/>
   </g>
   <g id="patch_4">
    <path d="M 252.01 357.9975 
L 252.01 25.3575 
" style="fill: none; stroke: #000000; stroke-width: 0.8; stroke-linejoin: miter; stroke-linecap: square"/>
   </g>
   <g id="patch_5">
    <path d="M 84.61 357.9975 
L 252.01 357.9975 
" style="fill: none; stroke: #000000; stroke-width: 0.8; stroke-linejoin: miter; stroke-linecap: square"/>
   </g>
   <g id="patch_6">
    <path d="M 84.61 25.3575 
L 252.01 25.3575 
" style="fill: none; stroke: #000000; stroke-width: 0.8; stroke-linejoin: miter; stroke-linecap: square"/>
   </g>
   <g id="PathCollection_1">
    <defs>
     <path id="m75f989cae1" d="M 0 3 
C 0.795609 3 1.55874 2.683901 2.12132 2.12132 
C 2.683901 1.55874 3 0.795609 3 0 
C 3 -0.795609 2.683901 -1.55874 2.12132 -2.12132 
C 1.55874 -2.683901 0.795609 -3 0 -3 
C -0.795609 -3 -1.55874 -2.683901 -2.12132 -2.12132 
C -2.683901 -1.55874 -3 -0.795609 -3 0 
C -3 0.795609 -2.683901 1.55874 -2.12132 2.12132 
C -1.55874 2.683901 -0.795609 3 0 3 
z
" style="stroke: #1405eb; stroke-opacity: 0.8"/>
    </defs>
    <g clip-path="url(#p17ce4720cd)">
     <use xlink:href="#m75f989cae1" x="166.997858" y="229.31597" style="fill: #1405eb; fill-opacity: 0.8; stroke: #1405eb; stroke-opacity: 0.8"/>
     <use xlink:href="#m75f989cae1" x="176.476448" y="170.404825" style="fill: #1405eb; fill-opacity: 0.8; stroke: #1405eb; stroke-opacity: 0.8"/>
     <use xlink:href="#m75f989cae1" x="176.395817" y="342.8775" style="fill: #1405eb; fill-opacity: 0.8; stroke: #1405eb; stroke-opacity: 0.8"/>
     <use xlink:href="#m75f989cae1" x="170.371319" y="189.037544" style="fill: #1405eb; fill-opacity: 0.8; stroke: #1405eb; stroke-opacity: 0.8"/>
     <use xlink:href="#m75f989cae1" x="175.583644" y="94.239463" style="fill: #1405eb; fill-opacity: 0.8; stroke: #1405eb; stroke-opacity: 0.8"/>
     <use xlink:href="#m75f989cae1" x="170.318198" y="124.445633" style="fill: #1405eb; fill-opacity: 0.8; stroke: #1405eb; stroke-opacity: 0.8"/>
     <use xlink:href="#m75f989cae1" x="168.172577" y="110.586619" style="fill: #1405eb; fill-opacity: 0.8; stroke: #1405eb; stroke-opacity: 0.8"/>
     <use xlink:href="#m75f989cae1" x="162.522888" y="98.978935" style="fill: #1405eb; fill-opacity: 0.8; stroke: #1405eb; stroke-opacity: 0.8"/>
     <use xlink:href="#m75f989cae1" x="163.822425" y="159.221347" style="fill: #1405eb; fill-opacity: 0.8; stroke: #1405eb; stroke-opacity: 0.8"/>
     <use xlink:href="#m75f989cae1" x="171.653028" y="216.627483" style="fill: #1405eb; fill-opacity: 0.8; stroke: #1405eb; stroke-opacity: 0.8"/>
     <use xlink:href="#m75f989cae1" x="163.427434" y="40.4775" style="fill: #1405eb; fill-opacity: 0.8; stroke: #1405eb; stroke-opacity: 0.8"/>
     <use xlink:href="#m75f989cae1" x="167.957007" y="165.426697" style="fill: #1405eb; fill-opacity: 0.8; stroke: #1405eb; stroke-opacity: 0.8"/>
     <use xlink:href="#m75f989cae1" x="175.949982" y="96.156068" style="fill: #1405eb; fill-opacity: 0.8; stroke: #1405eb; stroke-opacity: 0.8"/>
     <use xlink:href="#m75f989cae1" x="172.696675" y="186.360396" style="fill: #1405eb; fill-opacity: 0.8; stroke: #1405eb; stroke-opacity: 0.8"/>
     <use xlink:href="#m75f989cae1" x="173.593753" y="135.58945" style="fill: #1405eb; fill-opacity: 0.8; stroke: #1405eb; stroke-opacity: 0.8"/>
     <use xlink:href="#m75f989cae1" x="176.482626" y="131.00926" style="fill: #1405eb; fill-opacity: 0.8; stroke: #1405eb; stroke-opacity: 0.8"/>
     <use xlink:href="#m75f989cae1" x="167.711835" y="141.573435" style="fill: #1405eb; fill-opacity: 0.8; stroke: #1405eb; stroke-opacity: 0.8"/>
     <use xlink:href="#m75f989cae1" x="164.747017" y="114.26001" style="fill: #1405eb; fill-opacity: 0.8; stroke: #1405eb; stroke-opacity: 0.8"/>
     <use xlink:href="#m75f989cae1" x="175.429779" y="150.527764" style="fill: #1405eb; fill-opacity: 0.8; stroke: #1405eb; stroke-opacity: 0.8"/>
     <use xlink:href="#m75f989cae1" x="166.588101" y="166.714313" style="fill: #1405eb; fill-opacity: 0.8; stroke: #1405eb; stroke-opacity: 0.8"/>
    </g>
   </g>
   <g id="text_9">
    <!-- Learning Score for Female with 0.5 Data -->
    <g transform="translate(7.2 19.3575) scale(0.16 -0.16)">
     <defs>
      <path id="DejaVuSans-66" d="M 2375 4863 
L 2375 4384 
L 1825 4384 
Q 1516 4384 1395 4259 
Q 1275 4134 1275 3809 
L 1275 3500 
L 2222 3500 
L 2222 3053 
L 1275 3053 
L 1275 0 
L 697 0 
L 697 3053 
L 147 3053 
L 147 3500 
L 697 3500 
L 697 3744 
Q 697 4328 969 4595 
Q 1241 4863 1831 4863 
L 2375 4863 
z
" transform="scale(0.015625)"/>
      <path id="DejaVuSans-77" d="M 269 3500 
L 844 3500 
L 1563 769 
L 2278 3500 
L 2956 3500 
L 3675 769 
L 4391 3500 
L 4966 3500 
L 4050 0 
L 3372 0 
L 2619 2869 
L 1863 0 
L 1184 0 
L 269 3500 
z
" transform="scale(0.015625)"/>
      <path id="DejaVuSans-74" d="M 1172 4494 
L 1172 3500 
L 2356 3500 
L 2356 3053 
L 1172 3053 
L 1172 1153 
Q 1172 725 1289 603 
Q 1406 481 1766 481 
L 2356 481 
L 2356 0 
L 1766 0 
Q 1100 0 847 248 
Q 594 497 594 1153 
L 594 3053 
L 172 3053 
L 172 3500 
L 594 3500 
L 594 4494 
L 1172 4494 
z
" transform="scale(0.015625)"/>
      <path id="DejaVuSans-68" d="M 3513 2113 
L 3513 0 
L 2938 0 
L 2938 2094 
Q 2938 2591 2744 2837 
Q 2550 3084 2163 3084 
Q 1697 3084 1428 2787 
Q 1159 2491 1159 1978 
L 1159 0 
L 581 0 
L 581 4863 
L 1159 4863 
L 1159 2956 
Q 1366 3272 1645 3428 
Q 1925 3584 2291 3584 
Q 2894 3584 3203 3211 
Q 3513 2838 3513 2113 
z
" transform="scale(0.015625)"/>
      <path id="DejaVuSans-2e" d="M 684 794 
L 1344 794 
L 1344 0 
L 684 0 
L 684 794 
z
" transform="scale(0.015625)"/>
      <path id="DejaVuSans-44" d="M 1259 4147 
L 1259 519 
L 2022 519 
Q 2988 519 3436 956 
Q 3884 1394 3884 2338 
Q 3884 3275 3436 3711 
Q 2988 4147 2022 4147 
L 1259 4147 
z
M 628 4666 
L 1925 4666 
Q 3281 4666 3915 4102 
Q 4550 3538 4550 2338 
Q 4550 1131 3912 565 
Q 3275 0 1925 0 
L 628 0 
L 628 4666 
z
" transform="scale(0.015625)"/>
     </defs>
     <use xlink:href="#DejaVuSans-4c"/>
     <use xlink:href="#DejaVuSans-65" x="53.962891"/>
     <use xlink:href="#DejaVuSans-61" x="115.486328"/>
     <use xlink:href="#DejaVuSans-72" x="176.765625"/>
     <use xlink:href="#DejaVuSans-6e" x="216.128906"/>
     <use xlink:href="#DejaVuSans-69" x="279.507812"/>
     <use xlink:href="#DejaVuSans-6e" x="307.291016"/>
     <use xlink:href="#DejaVuSans-67" x="370.669922"/>
     <use xlink:href="#DejaVuSans-20" x="434.146484"/>
     <use xlink:href="#DejaVuSans-53" x="465.933594"/>
     <use xlink:href="#DejaVuSans-63" x="529.410156"/>
     <use xlink:href="#DejaVuSans-6f" x="584.390625"/>
     <use xlink:href="#DejaVuSans-72" x="645.572266"/>
     <use xlink:href="#DejaVuSans-65" x="684.435547"/>
     <use xlink:href="#DejaVuSans-20" x="745.958984"/>
     <use xlink:href="#DejaVuSans-66" x="777.746094"/>
     <use xlink:href="#DejaVuSans-6f" x="812.951172"/>
     <use xlink:href="#DejaVuSans-72" x="874.132812"/>
     <use xlink:href="#DejaVuSans-20" x="915.246094"/>
     <use xlink:href="#DejaVuSans-46" x="947.033203"/>
     <use xlink:href="#DejaVuSans-65" x="999.052734"/>
     <use xlink:href="#DejaVuSans-6d" x="1060.576172"/>
     <use xlink:href="#DejaVuSans-61" x="1157.988281"/>
     <use xlink:href="#DejaVuSans-6c" x="1219.267578"/>
     <use xlink:href="#DejaVuSans-65" x="1247.050781"/>
     <use xlink:href="#DejaVuSans-20" x="1308.574219"/>
     <use xlink:href="#DejaVuSans-77" x="1340.361328"/>
     <use xlink:href="#DejaVuSans-69" x="1422.148438"/>
     <use xlink:href="#DejaVuSans-74" x="1449.931641"/>
     <use xlink:href="#DejaVuSans-68" x="1489.140625"/>
     <use xlink:href="#DejaVuSans-20" x="1552.519531"/>
     <use xlink:href="#DejaVuSans-30" x="1584.306641"/>
     <use xlink:href="#DejaVuSans-2e" x="1647.929688"/>
     <use xlink:href="#DejaVuSans-35" x="1679.716797"/>
     <use xlink:href="#DejaVuSans-20" x="1743.339844"/>
     <use xlink:href="#DejaVuSans-44" x="1775.126953"/>
     <use xlink:href="#DejaVuSans-61" x="1852.128906"/>
     <use xlink:href="#DejaVuSans-74" x="1913.408203"/>
     <use xlink:href="#DejaVuSans-61" x="1952.617188"/>
    </g>
   </g>
   <g id="legend_1">
    <g id="patch_7">
     <path d="M 132.075625 48.035625 
L 245.01 48.035625 
Q 247.01 48.035625 247.01 46.035625 
L 247.01 32.3575 
Q 247.01 30.3575 245.01 30.3575 
L 132.075625 30.3575 
Q 130.075625 30.3575 130.075625 32.3575 
L 130.075625 46.035625 
Q 130.075625 48.035625 132.075625 48.035625 
z
" style="fill: #ffffff; opacity: 0.8; stroke: #cccccc; stroke-linejoin: miter"/>
    </g>
    <g id="patch_8">
     <path d="M 134.075625 41.955937 
L 154.075625 41.955937 
L 154.075625 34.955937 
L 134.075625 34.955937 
z
" style="fill: #add8e6; opacity: 0.8; stroke: #add8e6; stroke-linejoin: miter"/>
    </g>
    <g id="text_10">
     <!-- Female (n = 20) -->
     <g transform="translate(162.075625 41.955937) scale(0.1 -0.1)">
      <defs>
       <path id="DejaVuSans-28" d="M 1984 4856 
Q 1566 4138 1362 3434 
Q 1159 2731 1159 2009 
Q 1159 1288 1364 580 
Q 1569 -128 1984 -844 
L 1484 -844 
Q 1016 -109 783 600 
Q 550 1309 550 2009 
Q 550 2706 781 3412 
Q 1013 4119 1484 4856 
L 1984 4856 
z
" transform="scale(0.015625)"/>
       <path id="DejaVuSans-3d" d="M 678 2906 
L 4684 2906 
L 4684 2381 
L 678 2381 
L 678 2906 
z
M 678 1631 
L 4684 1631 
L 4684 1100 
L 678 1100 
L 678 1631 
z
" transform="scale(0.015625)"/>
       <path id="DejaVuSans-32" d="M 1228 531 
L 3431 531 
L 3431 0 
L 469 0 
L 469 531 
Q 828 903 1448 1529 
Q 2069 2156 2228 2338 
Q 2531 2678 2651 2914 
Q 2772 3150 2772 3378 
Q 2772 3750 2511 3984 
Q 2250 4219 1831 4219 
Q 1534 4219 1204 4116 
Q 875 4013 500 3803 
L 500 4441 
Q 881 4594 1212 4672 
Q 1544 4750 1819 4750 
Q 2544 4750 2975 4387 
Q 3406 4025 3406 3419 
Q 3406 3131 3298 2873 
Q 3191 2616 2906 2266 
Q 2828 2175 2409 1742 
Q 1991 1309 1228 531 
z
" transform="scale(0.015625)"/>
       <path id="DejaVuSans-29" d="M 513 4856 
L 1013 4856 
Q 1481 4119 1714 3412 
Q 1947 2706 1947 2009 
Q 1947 1309 1714 600 
Q 1481 -109 1013 -844 
L 513 -844 
Q 928 -128 1133 580 
Q 1338 1288 1338 2009 
Q 1338 2731 1133 3434 
Q 928 4138 513 4856 
z
" transform="scale(0.015625)"/>
      </defs>
      <use xlink:href="#DejaVuSans-46"/>
      <use xlink:href="#DejaVuSans-65" x="52.019531"/>
      <use xlink:href="#DejaVuSans-6d" x="113.542969"/>
      <use xlink:href="#DejaVuSans-61" x="210.955078"/>
      <use xlink:href="#DejaVuSans-6c" x="272.234375"/>
      <use xlink:href="#DejaVuSans-65" x="300.017578"/>
      <use xlink:href="#DejaVuSans-20" x="361.541016"/>
      <use xlink:href="#DejaVuSans-28" x="393.328125"/>
      <use xlink:href="#DejaVuSans-6e" x="432.341797"/>
      <use xlink:href="#DejaVuSans-20" x="495.720703"/>
      <use xlink:href="#DejaVuSans-3d" x="527.507812"/>
      <use xlink:href="#DejaVuSans-20" x="611.296875"/>
      <use xlink:href="#DejaVuSans-32" x="643.083984"/>
      <use xlink:href="#DejaVuSans-30" x="706.707031"/>
      <use xlink:href="#DejaVuSans-29" x="770.330078"/>
     </g>
    </g>
   </g>
  </g>
 </g>
 <defs>
  <clipPath id="p17ce4720cd">
   <rect x="84.61" y="25.3575" width="167.4" height="332.64"/>
  </clipPath>
 </defs>
</svg>
