<?xml version="1.0" encoding="utf-8" standalone="no"?>
<!DOCTYPE svg PUBLIC "-//W3C//DTD SVG 1.1//EN"
  "http://www.w3.org/Graphics/SVG/1.1/DTD/svg11.dtd">
<svg xmlns:xlink="http://www.w3.org/1999/xlink" width="319.54pt" height="399.425pt" viewBox="0 0 319.54 399.425" xmlns="http://www.w3.org/2000/svg" version="1.1">
 <metadata>
  <rdf:RDF xmlns:dc="http://purl.org/dc/elements/1.1/" xmlns:cc="http://creativecommons.org/ns#" xmlns:rdf="http://www.w3.org/1999/02/22-rdf-syntax-ns#">
   <cc:Work>
    <dc:type rdf:resource="http://purl.org/dc/dcmitype/StillImage"/>
    <dc:date>2025-08-13T21:39:25.513332</dc:date>
    <dc:format>image/svg+xml</dc:format>
    <dc:creator>
     <cc:Agent>
      <dc:title>Matplotlib v3.8.4, https://matplotlib.org/</dc:title>
     </cc:Agent>
    </dc:creator>
   </cc:Work>
  </rdf:RDF>
 </metadata>
 <defs>
  <style type="text/css">*{stroke-linejoin: round; stroke-linecap: butt}</style>
 </defs>
 <g id="figure_1">
  <g id="patch_1">
   <path d="M 0 399.425 
L 319.54 399.425 
L 319.54 0 
L 0 0 
z
" style="fill: #ffffff"/>
  </g>
  <g id="axes_1">
   <g id="patch_2">
    <path d="M 76.07 357.9975 
L 243.47 357.9975 
L 243.47 25.3575 
L 76.07 25.3575 
z
" style="fill: #ffffff"/>
   </g>
   <g id="PolyCollection_1">
    <defs>
     <path id="mfbc04793a0" d="M 173.206471 -237.165108 
L 146.333529 -237.165108 
L 145.710593 -238.001105 
L 145.09619 -238.837102 
L 144.491766 -239.673099 
L 143.898432 -240.509096 
L 143.316953 -241.345094 
L 142.747741 -242.181091 
L 142.190859 -243.017088 
L 141.646035 -243.853085 
L 141.112685 -244.689082 
L 140.589939 -245.525079 
L 140.076685 -246.361077 
L 139.57161 -247.197074 
L 139.073249 -248.033071 
L 138.580039 -248.869068 
L 138.090377 -249.705065 
L 137.602676 -250.541062 
L 137.115422 -251.37706 
L 136.627231 -252.213057 
L 136.136903 -253.049054 
L 135.643474 -253.885051 
L 135.146258 -254.721048 
L 134.644888 -255.557045 
L 134.139351 -256.393043 
L 133.630013 -257.22904 
L 133.117641 -258.065037 
L 132.603406 -258.901034 
L 132.088894 -259.737031 
L 131.576095 -260.573028 
L 131.067388 -261.409026 
L 130.565521 -262.245023 
L 130.073576 -263.08102 
L 129.594933 -263.917017 
L 129.133225 -264.753014 
L 128.692282 -265.589011 
L 128.276082 -266.425009 
L 127.888681 -267.261006 
L 127.534156 -268.097003 
L 127.216539 -268.933 
L 126.939751 -269.768997 
L 126.707538 -270.604994 
L 126.523411 -271.440992 
L 126.390592 -272.276989 
L 126.311959 -273.112986 
L 126.29 -273.948983 
L 126.326782 -274.78498 
L 126.423914 -275.620977 
L 126.582528 -276.456975 
L 126.803267 -277.292972 
L 127.086275 -278.128969 
L 127.431201 -278.964966 
L 127.837209 -279.800963 
L 128.302987 -280.63696 
L 128.826773 -281.472958 
L 129.406372 -282.308955 
L 130.039186 -283.144952 
L 130.722241 -283.980949 
L 131.452215 -284.816946 
L 132.225471 -285.652943 
L 133.038085 -286.488941 
L 133.885879 -287.324938 
L 134.764446 -288.160935 
L 135.669187 -288.996932 
L 136.595337 -289.832929 
L 137.537999 -290.668926 
L 138.492178 -291.504924 
L 139.452817 -292.340921 
L 140.414834 -293.176918 
L 141.373163 -294.012915 
L 142.322801 -294.848912 
L 143.258852 -295.684909 
L 144.176576 -296.520907 
L 145.071447 -297.356904 
L 145.9392 -298.192901 
L 146.775883 -299.028898 
L 147.577917 -299.864895 
L 148.342137 -300.700892 
L 149.065842 -301.53689 
L 149.74683 -302.372887 
L 150.383436 -303.208884 
L 150.974553 -304.044881 
L 151.519645 -304.880878 
L 152.018752 -305.716875 
L 152.472481 -306.552873 
L 152.881992 -307.38887 
L 153.248961 -308.224867 
L 153.575544 -309.060864 
L 153.864324 -309.896861 
L 154.118252 -310.732858 
L 154.340581 -311.568856 
L 154.534792 -312.404853 
L 154.704519 -313.24085 
L 154.853473 -314.076847 
L 154.985359 -314.912844 
L 155.10381 -315.748841 
L 155.21231 -316.584839 
L 155.314131 -317.420836 
L 155.41228 -318.256833 
L 155.509448 -319.09283 
L 155.607975 -319.928827 
L 163.932025 -319.928827 
L 163.932025 -319.928827 
L 164.030552 -319.09283 
L 164.12772 -318.256833 
L 164.225869 -317.420836 
L 164.32769 -316.584839 
L 164.43619 -315.748841 
L 164.554641 -314.912844 
L 164.686527 -314.076847 
L 164.835481 -313.24085 
L 165.005208 -312.404853 
L 165.199419 -311.568856 
L 165.421748 -310.732858 
L 165.675676 -309.896861 
L 165.964456 -309.060864 
L 166.291039 -308.224867 
L 166.658008 -307.38887 
L 167.067519 -306.552873 
L 167.521248 -305.716875 
L 168.020355 -304.880878 
L 168.565447 -304.044881 
L 169.156564 -303.208884 
L 169.79317 -302.372887 
L 170.474158 -301.53689 
L 171.197863 -300.700892 
L 171.962083 -299.864895 
L 172.764117 -299.028898 
L 173.6008 -298.192901 
L 174.468553 -297.356904 
L 175.363424 -296.520907 
L 176.281148 -295.684909 
L 177.217199 -294.848912 
L 178.166837 -294.012915 
L 179.125166 -293.176918 
L 180.087183 -292.340921 
L 181.047822 -291.504924 
L 182.002001 -290.668926 
L 182.944663 -289.832929 
L 183.870813 -288.996932 
L 184.775554 -288.160935 
L 185.654121 -287.324938 
L 186.501915 -286.488941 
L 187.314529 -285.652943 
L 188.087785 -284.816946 
L 188.817759 -283.980949 
L 189.500814 -283.144952 
L 190.133628 -282.308955 
L 190.713227 -281.472958 
L 191.237013 -280.63696 
L 191.702791 -279.800963 
L 192.108799 -278.964966 
L 192.453725 -278.128969 
L 192.736733 -277.292972 
L 192.957472 -276.456975 
L 193.116086 -275.620977 
L 193.213218 -274.78498 
L 193.25 -273.948983 
L 193.228041 -273.112986 
L 193.149408 -272.276989 
L 193.016589 -271.440992 
L 192.832462 -270.604994 
L 192.600249 -269.768997 
L 192.323461 -268.933 
L 192.005844 -268.097003 
L 191.651319 -267.261006 
L 191.263918 -266.425009 
L 190.847718 -265.589011 
L 190.406775 -264.753014 
L 189.945067 -263.917017 
L 189.466424 -263.08102 
L 188.974479 -262.245023 
L 188.472612 -261.409026 
L 187.963905 -260.573028 
L 187.451106 -259.737031 
L 186.936594 -258.901034 
L 186.422359 -258.065037 
L 185.909987 -257.22904 
L 185.400649 -256.393043 
L 184.895112 -255.557045 
L 184.393742 -254.721048 
L 183.896526 -253.885051 
L 183.403097 -253.049054 
L 182.912769 -252.213057 
L 182.424578 -251.37706 
L 181.937324 -250.541062 
L 181.449623 -249.705065 
L 180.959961 -248.869068 
L 180.466751 -248.033071 
L 179.96839 -247.197074 
L 179.463315 -246.361077 
L 178.950061 -245.525079 
L 178.427315 -244.689082 
L 177.893965 -243.853085 
L 177.349141 -243.017088 
L 176.792259 -242.181091 
L 176.223047 -241.345094 
L 175.641568 -240.509096 
L 175.048234 -239.673099 
L 174.44381 -238.837102 
L 173.829407 -238.001105 
L 173.206471 -237.165108 
z
" style="stroke: #000000; stroke-opacity: 0.8"/>
    </defs>
    <g clip-path="url(#pe96e0e208d)">
     <use xlink:href="#mfbc04793a0" x="0" y="399.425" style="fill: #add8e6; fill-opacity: 0.8; stroke: #000000; stroke-opacity: 0.8"/>
    </g>
   </g>
   <g id="matplotlib.axis_1">
    <g id="xtick_1">
     <g id="line2d_1">
      <defs>
       <path id="mc2259c73de" d="M 0 0 
L 0 3.5 
" style="stroke: #000000; stroke-width: 0.8"/>
      </defs>
      <g>
       <use xlink:href="#mc2259c73de" x="159.77" y="357.9975" style="stroke: #000000; stroke-width: 0.8"/>
      </g>
     </g>
     <g id="text_1">
      <!-- Female -->
      <g transform="translate(141.692656 372.595937) scale(0.1 -0.1)">
       <defs>
        <path id="DejaVuSans-46" d="M 628 4666 
L 3309 4666 
L 3309 4134 
L 1259 4134 
L 1259 2759 
L 3109 2759 
L 3109 2228 
L 1259 2228 
L 1259 0 
L 628 0 
L 628 4666 
z
" transform="scale(0.015625)"/>
        <path id="DejaVuSans-65" d="M 3597 1894 
L 3597 1613 
L 953 1613 
Q 991 1019 1311 708 
Q 1631 397 2203 397 
Q 2534 397 2845 478 
Q 3156 559 3463 722 
L 3463 178 
Q 3153 47 2828 -22 
Q 2503 -91 2169 -91 
Q 1331 -91 842 396 
Q 353 884 353 1716 
Q 353 2575 817 3079 
Q 1281 3584 2069 3584 
Q 2775 3584 3186 3129 
Q 3597 2675 3597 1894 
z
M 3022 2063 
Q 3016 2534 2758 2815 
Q 2500 3097 2075 3097 
Q 1594 3097 1305 2825 
Q 1016 2553 972 2059 
L 3022 2063 
z
" transform="scale(0.015625)"/>
        <path id="DejaVuSans-6d" d="M 3328 2828 
Q 3544 3216 3844 3400 
Q 4144 3584 4550 3584 
Q 5097 3584 5394 3201 
Q 5691 2819 5691 2113 
L 5691 0 
L 5113 0 
L 5113 2094 
Q 5113 2597 4934 2840 
Q 4756 3084 4391 3084 
Q 3944 3084 3684 2787 
Q 3425 2491 3425 1978 
L 3425 0 
L 2847 0 
L 2847 2094 
Q 2847 2600 2669 2842 
Q 2491 3084 2119 3084 
Q 1678 3084 1418 2786 
Q 1159 2488 1159 1978 
L 1159 0 
L 581 0 
L 581 3500 
L 1159 3500 
L 1159 2956 
Q 1356 3278 1631 3431 
Q 1906 3584 2284 3584 
Q 2666 3584 2933 3390 
Q 3200 3197 3328 2828 
z
" transform="scale(0.015625)"/>
        <path id="DejaVuSans-61" d="M 2194 1759 
Q 1497 1759 1228 1600 
Q 959 1441 959 1056 
Q 959 750 1161 570 
Q 1363 391 1709 391 
Q 2188 391 2477 730 
Q 2766 1069 2766 1631 
L 2766 1759 
L 2194 1759 
z
M 3341 1997 
L 3341 0 
L 2766 0 
L 2766 531 
Q 2569 213 2275 61 
Q 1981 -91 1556 -91 
Q 1019 -91 701 211 
Q 384 513 384 1019 
Q 384 1609 779 1909 
Q 1175 2209 1959 2209 
L 2766 2209 
L 2766 2266 
Q 2766 2663 2505 2880 
Q 2244 3097 1772 3097 
Q 1472 3097 1187 3025 
Q 903 2953 641 2809 
L 641 3341 
Q 956 3463 1253 3523 
Q 1550 3584 1831 3584 
Q 2591 3584 2966 3190 
Q 3341 2797 3341 1997 
z
" transform="scale(0.015625)"/>
        <path id="DejaVuSans-6c" d="M 603 4863 
L 1178 4863 
L 1178 0 
L 603 0 
L 603 4863 
z
" transform="scale(0.015625)"/>
       </defs>
       <use xlink:href="#DejaVuSans-46"/>
       <use xlink:href="#DejaVuSans-65" x="52.019531"/>
       <use xlink:href="#DejaVuSans-6d" x="113.542969"/>
       <use xlink:href="#DejaVuSans-61" x="210.955078"/>
       <use xlink:href="#DejaVuSans-6c" x="272.234375"/>
       <use xlink:href="#DejaVuSans-65" x="300.017578"/>
      </g>
     </g>
    </g>
    <g id="text_2">
     <!-- Group -->
     <g transform="translate(138.462656 389.313437) scale(0.14 -0.14)">
      <defs>
       <path id="DejaVuSans-47" d="M 3809 666 
L 3809 1919 
L 2778 1919 
L 2778 2438 
L 4434 2438 
L 4434 434 
Q 4069 175 3628 42 
Q 3188 -91 2688 -91 
Q 1594 -91 976 548 
Q 359 1188 359 2328 
Q 359 3472 976 4111 
Q 1594 4750 2688 4750 
Q 3144 4750 3555 4637 
Q 3966 4525 4313 4306 
L 4313 3634 
Q 3963 3931 3569 4081 
Q 3175 4231 2741 4231 
Q 1884 4231 1454 3753 
Q 1025 3275 1025 2328 
Q 1025 1384 1454 906 
Q 1884 428 2741 428 
Q 3075 428 3337 486 
Q 3600 544 3809 666 
z
" transform="scale(0.015625)"/>
       <path id="DejaVuSans-72" d="M 2631 2963 
Q 2534 3019 2420 3045 
Q 2306 3072 2169 3072 
Q 1681 3072 1420 2755 
Q 1159 2438 1159 1844 
L 1159 0 
L 581 0 
L 581 3500 
L 1159 3500 
L 1159 2956 
Q 1341 3275 1631 3429 
Q 1922 3584 2338 3584 
Q 2397 3584 2469 3576 
Q 2541 3569 2628 3553 
L 2631 2963 
z
" transform="scale(0.015625)"/>
       <path id="DejaVuSans-6f" d="M 1959 3097 
Q 1497 3097 1228 2736 
Q 959 2375 959 1747 
Q 959 1119 1226 758 
Q 1494 397 1959 397 
Q 2419 397 2687 759 
Q 2956 1122 2956 1747 
Q 2956 2369 2687 2733 
Q 2419 3097 1959 3097 
z
M 1959 3584 
Q 2709 3584 3137 3096 
Q 3566 2609 3566 1747 
Q 3566 888 3137 398 
Q 2709 -91 1959 -91 
Q 1206 -91 779 398 
Q 353 888 353 1747 
Q 353 2609 779 3096 
Q 1206 3584 1959 3584 
z
" transform="scale(0.015625)"/>
       <path id="DejaVuSans-75" d="M 544 1381 
L 544 3500 
L 1119 3500 
L 1119 1403 
Q 1119 906 1312 657 
Q 1506 409 1894 409 
Q 2359 409 2629 706 
Q 2900 1003 2900 1516 
L 2900 3500 
L 3475 3500 
L 3475 0 
L 2900 0 
L 2900 538 
Q 2691 219 2414 64 
Q 2138 -91 1772 -91 
Q 1169 -91 856 284 
Q 544 659 544 1381 
z
M 1991 3584 
L 1991 3584 
z
" transform="scale(0.015625)"/>
       <path id="DejaVuSans-70" d="M 1159 525 
L 1159 -1331 
L 581 -1331 
L 581 3500 
L 1159 3500 
L 1159 2969 
Q 1341 3281 1617 3432 
Q 1894 3584 2278 3584 
Q 2916 3584 3314 3078 
Q 3713 2572 3713 1747 
Q 3713 922 3314 415 
Q 2916 -91 2278 -91 
Q 1894 -91 1617 61 
Q 1341 213 1159 525 
z
M 3116 1747 
Q 3116 2381 2855 2742 
Q 2594 3103 2138 3103 
Q 1681 3103 1420 2742 
Q 1159 2381 1159 1747 
Q 1159 1113 1420 752 
Q 1681 391 2138 391 
Q 2594 391 2855 752 
Q 3116 1113 3116 1747 
z
" transform="scale(0.015625)"/>
      </defs>
      <use xlink:href="#DejaVuSans-47"/>
      <use xlink:href="#DejaVuSans-72" x="77.490234"/>
      <use xlink:href="#DejaVuSans-6f" x="116.353516"/>
      <use xlink:href="#DejaVuSans-75" x="177.535156"/>
      <use xlink:href="#DejaVuSans-70" x="240.914062"/>
     </g>
    </g>
   </g>
   <g id="matplotlib.axis_2">
    <g id="ytick_1">
     <g id="line2d_2">
      <defs>
       <path id="m121e1614d6" d="M 0 0 
L -3.5 0 
" style="stroke: #000000; stroke-width: 0.8"/>
      </defs>
      <g>
       <use xlink:href="#m121e1614d6" x="76.07" y="357.9975" style="stroke: #000000; stroke-width: 0.8"/>
      </g>
     </g>
     <g id="text_3">
      <!-- 20 -->
      <g transform="translate(56.345 361.796719) scale(0.1 -0.1)">
       <defs>
        <path id="DejaVuSans-32" d="M 1228 531 
L 3431 531 
L 3431 0 
L 469 0 
L 469 531 
Q 828 903 1448 1529 
Q 2069 2156 2228 2338 
Q 2531 2678 2651 2914 
Q 2772 3150 2772 3378 
Q 2772 3750 2511 3984 
Q 2250 4219 1831 4219 
Q 1534 4219 1204 4116 
Q 875 4013 500 3803 
L 500 4441 
Q 881 4594 1212 4672 
Q 1544 4750 1819 4750 
Q 2544 4750 2975 4387 
Q 3406 4025 3406 3419 
Q 3406 3131 3298 2873 
Q 3191 2616 2906 2266 
Q 2828 2175 2409 1742 
Q 1991 1309 1228 531 
z
" transform="scale(0.015625)"/>
        <path id="DejaVuSans-30" d="M 2034 4250 
Q 1547 4250 1301 3770 
Q 1056 3291 1056 2328 
Q 1056 1369 1301 889 
Q 1547 409 2034 409 
Q 2525 409 2770 889 
Q 3016 1369 3016 2328 
Q 3016 3291 2770 3770 
Q 2525 4250 2034 4250 
z
M 2034 4750 
Q 2819 4750 3233 4129 
Q 3647 3509 3647 2328 
Q 3647 1150 3233 529 
Q 2819 -91 2034 -91 
Q 1250 -91 836 529 
Q 422 1150 422 2328 
Q 422 3509 836 4129 
Q 1250 4750 2034 4750 
z
" transform="scale(0.015625)"/>
       </defs>
       <use xlink:href="#DejaVuSans-32"/>
       <use xlink:href="#DejaVuSans-30" x="63.623047"/>
      </g>
     </g>
    </g>
    <g id="ytick_2">
     <g id="line2d_3">
      <g>
       <use xlink:href="#m121e1614d6" x="76.07" y="321.0375" style="stroke: #000000; stroke-width: 0.8"/>
      </g>
     </g>
     <g id="text_4">
      <!-- 25 -->
      <g transform="translate(56.345 324.836719) scale(0.1 -0.1)">
       <defs>
        <path id="DejaVuSans-35" d="M 691 4666 
L 3169 4666 
L 3169 4134 
L 1269 4134 
L 1269 2991 
Q 1406 3038 1543 3061 
Q 1681 3084 1819 3084 
Q 2600 3084 3056 2656 
Q 3513 2228 3513 1497 
Q 3513 744 3044 326 
Q 2575 -91 1722 -91 
Q 1428 -91 1123 -41 
Q 819 9 494 109 
L 494 744 
Q 775 591 1075 516 
Q 1375 441 1709 441 
Q 2250 441 2565 725 
Q 2881 1009 2881 1497 
Q 2881 1984 2565 2268 
Q 2250 2553 1709 2553 
Q 1456 2553 1204 2497 
Q 953 2441 691 2322 
L 691 4666 
z
" transform="scale(0.015625)"/>
       </defs>
       <use xlink:href="#DejaVuSans-32"/>
       <use xlink:href="#DejaVuSans-35" x="63.623047"/>
      </g>
     </g>
    </g>
    <g id="ytick_3">
     <g id="line2d_4">
      <g>
       <use xlink:href="#m121e1614d6" x="76.07" y="284.0775" style="stroke: #000000; stroke-width: 0.8"/>
      </g>
     </g>
     <g id="text_5">
      <!-- 30 -->
      <g transform="translate(56.345 287.876719) scale(0.1 -0.1)">
       <defs>
        <path id="DejaVuSans-33" d="M 2597 2516 
Q 3050 2419 3304 2112 
Q 3559 1806 3559 1356 
Q 3559 666 3084 287 
Q 2609 -91 1734 -91 
Q 1441 -91 1130 -33 
Q 819 25 488 141 
L 488 750 
Q 750 597 1062 519 
Q 1375 441 1716 441 
Q 2309 441 2620 675 
Q 2931 909 2931 1356 
Q 2931 1769 2642 2001 
Q 2353 2234 1838 2234 
L 1294 2234 
L 1294 2753 
L 1863 2753 
Q 2328 2753 2575 2939 
Q 2822 3125 2822 3475 
Q 2822 3834 2567 4026 
Q 2313 4219 1838 4219 
Q 1578 4219 1281 4162 
Q 984 4106 628 3988 
L 628 4550 
Q 988 4650 1302 4700 
Q 1616 4750 1894 4750 
Q 2613 4750 3031 4423 
Q 3450 4097 3450 3541 
Q 3450 3153 3228 2886 
Q 3006 2619 2597 2516 
z
" transform="scale(0.015625)"/>
       </defs>
       <use xlink:href="#DejaVuSans-33"/>
       <use xlink:href="#DejaVuSans-30" x="63.623047"/>
      </g>
     </g>
    </g>
    <g id="ytick_4">
     <g id="line2d_5">
      <g>
       <use xlink:href="#m121e1614d6" x="76.07" y="247.1175" style="stroke: #000000; stroke-width: 0.8"/>
      </g>
     </g>
     <g id="text_6">
      <!-- 35 -->
      <g transform="translate(56.345 250.916719) scale(0.1 -0.1)">
       <use xlink:href="#DejaVuSans-33"/>
       <use xlink:href="#DejaVuSans-35" x="63.623047"/>
      </g>
     </g>
    </g>
    <g id="ytick_5">
     <g id="line2d_6">
      <g>
       <use xlink:href="#m121e1614d6" x="76.07" y="210.1575" style="stroke: #000000; stroke-width: 0.8"/>
      </g>
     </g>
     <g id="text_7">
      <!-- 40 -->
      <g transform="translate(56.345 213.956719) scale(0.1 -0.1)">
       <defs>
        <path id="DejaVuSans-34" d="M 2419 4116 
L 825 1625 
L 2419 1625 
L 2419 4116 
z
M 2253 4666 
L 3047 4666 
L 3047 1625 
L 3713 1625 
L 3713 1100 
L 3047 1100 
L 3047 0 
L 2419 0 
L 2419 1100 
L 313 1100 
L 313 1709 
L 2253 4666 
z
" transform="scale(0.015625)"/>
       </defs>
       <use xlink:href="#DejaVuSans-34"/>
       <use xlink:href="#DejaVuSans-30" x="63.623047"/>
      </g>
     </g>
    </g>
    <g id="ytick_6">
     <g id="line2d_7">
      <g>
       <use xlink:href="#m121e1614d6" x="76.07" y="173.1975" style="stroke: #000000; stroke-width: 0.8"/>
      </g>
     </g>
     <g id="text_8">
      <!-- 45 -->
      <g transform="translate(56.345 176.996719) scale(0.1 -0.1)">
       <use xlink:href="#DejaVuSans-34"/>
       <use xlink:href="#DejaVuSans-35" x="63.623047"/>
      </g>
     </g>
    </g>
    <g id="ytick_7">
     <g id="line2d_8">
      <g>
       <use xlink:href="#m121e1614d6" x="76.07" y="136.2375" style="stroke: #000000; stroke-width: 0.8"/>
      </g>
     </g>
     <g id="text_9">
      <!-- 50 -->
      <g transform="translate(56.345 140.036719) scale(0.1 -0.1)">
       <use xlink:href="#DejaVuSans-35"/>
       <use xlink:href="#DejaVuSans-30" x="63.623047"/>
      </g>
     </g>
    </g>
    <g id="ytick_8">
     <g id="line2d_9">
      <g>
       <use xlink:href="#m121e1614d6" x="76.07" y="99.2775" style="stroke: #000000; stroke-width: 0.8"/>
      </g>
     </g>
     <g id="text_10">
      <!-- 55 -->
      <g transform="translate(56.345 103.076719) scale(0.1 -0.1)">
       <use xlink:href="#DejaVuSans-35"/>
       <use xlink:href="#DejaVuSans-35" x="63.623047"/>
      </g>
     </g>
    </g>
    <g id="ytick_9">
     <g id="line2d_10">
      <g>
       <use xlink:href="#m121e1614d6" x="76.07" y="62.3175" style="stroke: #000000; stroke-width: 0.8"/>
      </g>
     </g>
     <g id="text_11">
      <!-- 60 -->
      <g transform="translate(56.345 66.116719) scale(0.1 -0.1)">
       <defs>
        <path id="DejaVuSans-36" d="M 2113 2584 
Q 1688 2584 1439 2293 
Q 1191 2003 1191 1497 
Q 1191 994 1439 701 
Q 1688 409 2113 409 
Q 2538 409 2786 701 
Q 3034 994 3034 1497 
Q 3034 2003 2786 2293 
Q 2538 2584 2113 2584 
z
M 3366 4563 
L 3366 3988 
Q 3128 4100 2886 4159 
Q 2644 4219 2406 4219 
Q 1781 4219 1451 3797 
Q 1122 3375 1075 2522 
Q 1259 2794 1537 2939 
Q 1816 3084 2150 3084 
Q 2853 3084 3261 2657 
Q 3669 2231 3669 1497 
Q 3669 778 3244 343 
Q 2819 -91 2113 -91 
Q 1303 -91 875 529 
Q 447 1150 447 2328 
Q 447 3434 972 4092 
Q 1497 4750 2381 4750 
Q 2619 4750 2861 4703 
Q 3103 4656 3366 4563 
z
" transform="scale(0.015625)"/>
       </defs>
       <use xlink:href="#DejaVuSans-36"/>
       <use xlink:href="#DejaVuSans-30" x="63.623047"/>
      </g>
     </g>
    </g>
    <g id="ytick_10">
     <g id="line2d_11">
      <g>
       <use xlink:href="#m121e1614d6" x="76.07" y="25.3575" style="stroke: #000000; stroke-width: 0.8"/>
      </g>
     </g>
     <g id="text_12">
      <!-- 65 -->
      <g transform="translate(56.345 29.156719) scale(0.1 -0.1)">
       <use xlink:href="#DejaVuSans-36"/>
       <use xlink:href="#DejaVuSans-35" x="63.623047"/>
      </g>
     </g>
    </g>
    <g id="text_13">
     <!-- Learning Score -->
     <g transform="translate(49.433437 243.896406) rotate(-90) scale(0.14 -0.14)">
      <defs>
       <path id="DejaVuSans-4c" d="M 628 4666 
L 1259 4666 
L 1259 531 
L 3531 531 
L 3531 0 
L 628 0 
L 628 4666 
z
" transform="scale(0.015625)"/>
       <path id="DejaVuSans-6e" d="M 3513 2113 
L 3513 0 
L 2938 0 
L 2938 2094 
Q 2938 2591 2744 2837 
Q 2550 3084 2163 3084 
Q 1697 3084 1428 2787 
Q 1159 2491 1159 1978 
L 1159 0 
L 581 0 
L 581 3500 
L 1159 3500 
L 1159 2956 
Q 1366 3272 1645 3428 
Q 1925 3584 2291 3584 
Q 2894 3584 3203 3211 
Q 3513 2838 3513 2113 
z
" transform="scale(0.015625)"/>
       <path id="DejaVuSans-69" d="M 603 3500 
L 1178 3500 
L 1178 0 
L 603 0 
L 603 3500 
z
M 603 4863 
L 1178 4863 
L 1178 4134 
L 603 4134 
L 603 4863 
z
" transform="scale(0.015625)"/>
       <path id="DejaVuSans-67" d="M 2906 1791 
Q 2906 2416 2648 2759 
Q 2391 3103 1925 3103 
Q 1463 3103 1205 2759 
Q 947 2416 947 1791 
Q 947 1169 1205 825 
Q 1463 481 1925 481 
Q 2391 481 2648 825 
Q 2906 1169 2906 1791 
z
M 3481 434 
Q 3481 -459 3084 -895 
Q 2688 -1331 1869 -1331 
Q 1566 -1331 1297 -1286 
Q 1028 -1241 775 -1147 
L 775 -588 
Q 1028 -725 1275 -790 
Q 1522 -856 1778 -856 
Q 2344 -856 2625 -561 
Q 2906 -266 2906 331 
L 2906 616 
Q 2728 306 2450 153 
Q 2172 0 1784 0 
Q 1141 0 747 490 
Q 353 981 353 1791 
Q 353 2603 747 3093 
Q 1141 3584 1784 3584 
Q 2172 3584 2450 3431 
Q 2728 3278 2906 2969 
L 2906 3500 
L 3481 3500 
L 3481 434 
z
" transform="scale(0.015625)"/>
       <path id="DejaVuSans-20" transform="scale(0.015625)"/>
       <path id="DejaVuSans-53" d="M 3425 4513 
L 3425 3897 
Q 3066 4069 2747 4153 
Q 2428 4238 2131 4238 
Q 1616 4238 1336 4038 
Q 1056 3838 1056 3469 
Q 1056 3159 1242 3001 
Q 1428 2844 1947 2747 
L 2328 2669 
Q 3034 2534 3370 2195 
Q 3706 1856 3706 1288 
Q 3706 609 3251 259 
Q 2797 -91 1919 -91 
Q 1588 -91 1214 -16 
Q 841 59 441 206 
L 441 856 
Q 825 641 1194 531 
Q 1563 422 1919 422 
Q 2459 422 2753 634 
Q 3047 847 3047 1241 
Q 3047 1584 2836 1778 
Q 2625 1972 2144 2069 
L 1759 2144 
Q 1053 2284 737 2584 
Q 422 2884 422 3419 
Q 422 4038 858 4394 
Q 1294 4750 2059 4750 
Q 2388 4750 2728 4690 
Q 3069 4631 3425 4513 
z
" transform="scale(0.015625)"/>
       <path id="DejaVuSans-63" d="M 3122 3366 
L 3122 2828 
Q 2878 2963 2633 3030 
Q 2388 3097 2138 3097 
Q 1578 3097 1268 2742 
Q 959 2388 959 1747 
Q 959 1106 1268 751 
Q 1578 397 2138 397 
Q 2388 397 2633 464 
Q 2878 531 3122 666 
L 3122 134 
Q 2881 22 2623 -34 
Q 2366 -91 2075 -91 
Q 1284 -91 818 406 
Q 353 903 353 1747 
Q 353 2603 823 3093 
Q 1294 3584 2113 3584 
Q 2378 3584 2631 3529 
Q 2884 3475 3122 3366 
z
" transform="scale(0.015625)"/>
      </defs>
      <use xlink:href="#DejaVuSans-4c"/>
      <use xlink:href="#DejaVuSans-65" x="53.962891"/>
      <use xlink:href="#DejaVuSans-61" x="115.486328"/>
      <use xlink:href="#DejaVuSans-72" x="176.765625"/>
      <use xlink:href="#DejaVuSans-6e" x="216.128906"/>
      <use xlink:href="#DejaVuSans-69" x="279.507812"/>
      <use xlink:href="#DejaVuSans-6e" x="307.291016"/>
      <use xlink:href="#DejaVuSans-67" x="370.669922"/>
      <use xlink:href="#DejaVuSans-20" x="434.146484"/>
      <use xlink:href="#DejaVuSans-53" x="465.933594"/>
      <use xlink:href="#DejaVuSans-63" x="529.410156"/>
      <use xlink:href="#DejaVuSans-6f" x="584.390625"/>
      <use xlink:href="#DejaVuSans-72" x="645.572266"/>
      <use xlink:href="#DejaVuSans-65" x="684.435547"/>
     </g>
    </g>
   </g>
   <g id="patch_3">
    <path d="M 143.03 141.168787 
L 176.51 141.168787 
L 176.51 119.427149 
L 143.03 119.427149 
L 143.03 141.168787 
z
" clip-path="url(#pe96e0e208d)" style="fill: #ffffff; stroke: #000000; stroke-linejoin: miter"/>
   </g>
   <g id="line2d_12">
    <path d="M 159.77 141.168787 
L 159.77 162.259892 
" clip-path="url(#pe96e0e208d)" style="fill: none; stroke: #000000; stroke-linecap: square"/>
   </g>
   <g id="line2d_13">
    <path d="M 159.77 119.427149 
L 159.77 105.806197 
" clip-path="url(#pe96e0e208d)" style="fill: none; stroke: #000000; stroke-linecap: square"/>
   </g>
   <g id="line2d_14">
    <path d="M 151.4 162.259892 
L 168.14 162.259892 
" clip-path="url(#pe96e0e208d)" style="fill: none; stroke: #000000; stroke-linecap: square"/>
   </g>
   <g id="line2d_15">
    <path d="M 151.4 105.806197 
L 168.14 105.806197 
" clip-path="url(#pe96e0e208d)" style="fill: none; stroke: #000000; stroke-linecap: square"/>
   </g>
   <g id="line2d_16">
    <path d="M 143.03 127.19079 
L 176.51 127.19079 
" clip-path="url(#pe96e0e208d)" style="fill: none; stroke: #000000"/>
   </g>
   <g id="patch_4">
    <path d="M 76.07 357.9975 
L 76.07 25.3575 
" style="fill: none; stroke: #000000; stroke-width: 0.8; stroke-linejoin: miter; stroke-linecap: square"/>
   </g>
   <g id="patch_5">
    <path d="M 243.47 357.9975 
L 243.47 25.3575 
" style="fill: none; stroke: #000000; stroke-width: 0.8; stroke-linejoin: miter; stroke-linecap: square"/>
   </g>
   <g id="patch_6">
    <path d="M 76.07 357.9975 
L 243.47 357.9975 
" style="fill: none; stroke: #000000; stroke-width: 0.8; stroke-linejoin: miter; stroke-linecap: square"/>
   </g>
   <g id="patch_7">
    <path d="M 76.07 25.3575 
L 243.47 25.3575 
" style="fill: none; stroke: #000000; stroke-width: 0.8; stroke-linejoin: miter; stroke-linecap: square"/>
   </g>
   <g id="PathCollection_1">
    <defs>
     <path id="m14bc54951f" d="M 0 3 
C 0.795609 3 1.55874 2.683901 2.12132 2.12132 
C 2.683901 1.55874 3 0.795609 3 0 
C 3 -0.795609 2.683901 -1.55874 2.12132 -2.12132 
C 1.55874 -2.683901 0.795609 -3 0 -3 
C -0.795609 -3 -1.55874 -2.683901 -2.12132 -2.12132 
C -2.683901 -1.55874 -3 -0.795609 -3 0 
C -3 0.795609 -2.683901 1.55874 -2.12132 2.12132 
C -1.55874 2.683901 -0.795609 3 0 3 
z
" style="stroke: #1405eb; stroke-opacity: 0.8"/>
    </defs>
    <g clip-path="url(#pe96e0e208d)">
     <use xlink:href="#m14bc54951f" x="167.455219" y="151.177346" style="fill: #1405eb; fill-opacity: 0.8; stroke: #1405eb; stroke-opacity: 0.8"/>
     <use xlink:href="#m14bc54951f" x="162.221955" y="140.332989" style="fill: #1405eb; fill-opacity: 0.8; stroke: #1405eb; stroke-opacity: 0.8"/>
     <use xlink:href="#m14bc54951f" x="159.107357" y="109.901261" style="fill: #1405eb; fill-opacity: 0.8; stroke: #1405eb; stroke-opacity: 0.8"/>
     <use xlink:href="#m14bc54951f" x="153.882945" y="109.716531" style="fill: #1405eb; fill-opacity: 0.8; stroke: #1405eb; stroke-opacity: 0.8"/>
     <use xlink:href="#m14bc54951f" x="151.955648" y="119.414146" style="fill: #1405eb; fill-opacity: 0.8; stroke: #1405eb; stroke-opacity: 0.8"/>
     <use xlink:href="#m14bc54951f" x="155.286213" y="124.060401" style="fill: #1405eb; fill-opacity: 0.8; stroke: #1405eb; stroke-opacity: 0.8"/>
     <use xlink:href="#m14bc54951f" x="162.145884" y="120.571988" style="fill: #1405eb; fill-opacity: 0.8; stroke: #1405eb; stroke-opacity: 0.8"/>
     <use xlink:href="#m14bc54951f" x="157.853693" y="162.259892" style="fill: #1405eb; fill-opacity: 0.8; stroke: #1405eb; stroke-opacity: 0.8"/>
     <use xlink:href="#m14bc54951f" x="164.624304" y="79.496173" style="fill: #1405eb; fill-opacity: 0.8; stroke: #1405eb; stroke-opacity: 0.8"/>
     <use xlink:href="#m14bc54951f" x="160.820054" y="141.447387" style="fill: #1405eb; fill-opacity: 0.8; stroke: #1405eb; stroke-opacity: 0.8"/>
     <use xlink:href="#m14bc54951f" x="163.29491" y="105.806197" style="fill: #1405eb; fill-opacity: 0.8; stroke: #1405eb; stroke-opacity: 0.8"/>
     <use xlink:href="#m14bc54951f" x="157.346688" y="150.66454" style="fill: #1405eb; fill-opacity: 0.8; stroke: #1405eb; stroke-opacity: 0.8"/>
     <use xlink:href="#m14bc54951f" x="166.866166" y="127.656735" style="fill: #1405eb; fill-opacity: 0.8; stroke: #1405eb; stroke-opacity: 0.8"/>
     <use xlink:href="#m14bc54951f" x="155.631062" y="126.724845" style="fill: #1405eb; fill-opacity: 0.8; stroke: #1405eb; stroke-opacity: 0.8"/>
     <use xlink:href="#m14bc54951f" x="163.938645" y="119.466159" style="fill: #1405eb; fill-opacity: 0.8; stroke: #1405eb; stroke-opacity: 0.8"/>
     <use xlink:href="#m14bc54951f" x="154.400827" y="132.53543" style="fill: #1405eb; fill-opacity: 0.8; stroke: #1405eb; stroke-opacity: 0.8"/>
     <use xlink:href="#m14bc54951f" x="151.753878" y="134.582083" style="fill: #1405eb; fill-opacity: 0.8; stroke: #1405eb; stroke-opacity: 0.8"/>
     <use xlink:href="#m14bc54951f" x="156.952999" y="159.936028" style="fill: #1405eb; fill-opacity: 0.8; stroke: #1405eb; stroke-opacity: 0.8"/>
    </g>
   </g>
   <g id="text_14">
    <!-- Learning Score of Female of 0.75 data -->
    <g transform="translate(7.2 19.3575) scale(0.16 -0.16)">
     <defs>
      <path id="DejaVuSans-66" d="M 2375 4863 
L 2375 4384 
L 1825 4384 
Q 1516 4384 1395 4259 
Q 1275 4134 1275 3809 
L 1275 3500 
L 2222 3500 
L 2222 3053 
L 1275 3053 
L 1275 0 
L 697 0 
L 697 3053 
L 147 3053 
L 147 3500 
L 697 3500 
L 697 3744 
Q 697 4328 969 4595 
Q 1241 4863 1831 4863 
L 2375 4863 
z
" transform="scale(0.015625)"/>
      <path id="DejaVuSans-2e" d="M 684 794 
L 1344 794 
L 1344 0 
L 684 0 
L 684 794 
z
" transform="scale(0.015625)"/>
      <path id="DejaVuSans-37" d="M 525 4666 
L 3525 4666 
L 3525 4397 
L 1831 0 
L 1172 0 
L 2766 4134 
L 525 4134 
L 525 4666 
z
" transform="scale(0.015625)"/>
      <path id="DejaVuSans-64" d="M 2906 2969 
L 2906 4863 
L 3481 4863 
L 3481 0 
L 2906 0 
L 2906 525 
Q 2725 213 2448 61 
Q 2172 -91 1784 -91 
Q 1150 -91 751 415 
Q 353 922 353 1747 
Q 353 2572 751 3078 
Q 1150 3584 1784 3584 
Q 2172 3584 2448 3432 
Q 2725 3281 2906 2969 
z
M 947 1747 
Q 947 1113 1208 752 
Q 1469 391 1925 391 
Q 2381 391 2643 752 
Q 2906 1113 2906 1747 
Q 2906 2381 2643 2742 
Q 2381 3103 1925 3103 
Q 1469 3103 1208 2742 
Q 947 2381 947 1747 
z
" transform="scale(0.015625)"/>
      <path id="DejaVuSans-74" d="M 1172 4494 
L 1172 3500 
L 2356 3500 
L 2356 3053 
L 1172 3053 
L 1172 1153 
Q 1172 725 1289 603 
Q 1406 481 1766 481 
L 2356 481 
L 2356 0 
L 1766 0 
Q 1100 0 847 248 
Q 594 497 594 1153 
L 594 3053 
L 172 3053 
L 172 3500 
L 594 3500 
L 594 4494 
L 1172 4494 
z
" transform="scale(0.015625)"/>
     </defs>
     <use xlink:href="#DejaVuSans-4c"/>
     <use xlink:href="#DejaVuSans-65" x="53.962891"/>
     <use xlink:href="#DejaVuSans-61" x="115.486328"/>
     <use xlink:href="#DejaVuSans-72" x="176.765625"/>
     <use xlink:href="#DejaVuSans-6e" x="216.128906"/>
     <use xlink:href="#DejaVuSans-69" x="279.507812"/>
     <use xlink:href="#DejaVuSans-6e" x="307.291016"/>
     <use xlink:href="#DejaVuSans-67" x="370.669922"/>
     <use xlink:href="#DejaVuSans-20" x="434.146484"/>
     <use xlink:href="#DejaVuSans-53" x="465.933594"/>
     <use xlink:href="#DejaVuSans-63" x="529.410156"/>
     <use xlink:href="#DejaVuSans-6f" x="584.390625"/>
     <use xlink:href="#DejaVuSans-72" x="645.572266"/>
     <use xlink:href="#DejaVuSans-65" x="684.435547"/>
     <use xlink:href="#DejaVuSans-20" x="745.958984"/>
     <use xlink:href="#DejaVuSans-6f" x="777.746094"/>
     <use xlink:href="#DejaVuSans-66" x="838.927734"/>
     <use xlink:href="#DejaVuSans-20" x="874.132812"/>
     <use xlink:href="#DejaVuSans-46" x="905.919922"/>
     <use xlink:href="#DejaVuSans-65" x="957.939453"/>
     <use xlink:href="#DejaVuSans-6d" x="1019.462891"/>
     <use xlink:href="#DejaVuSans-61" x="1116.875"/>
     <use xlink:href="#DejaVuSans-6c" x="1178.154297"/>
     <use xlink:href="#DejaVuSans-65" x="1205.9375"/>
     <use xlink:href="#DejaVuSans-20" x="1267.460938"/>
     <use xlink:href="#DejaVuSans-6f" x="1299.248047"/>
     <use xlink:href="#DejaVuSans-66" x="1360.429688"/>
     <use xlink:href="#DejaVuSans-20" x="1395.634766"/>
     <use xlink:href="#DejaVuSans-30" x="1427.421875"/>
     <use xlink:href="#DejaVuSans-2e" x="1491.044922"/>
     <use xlink:href="#DejaVuSans-37" x="1522.832031"/>
     <use xlink:href="#DejaVuSans-35" x="1586.455078"/>
     <use xlink:href="#DejaVuSans-20" x="1650.078125"/>
     <use xlink:href="#DejaVuSans-64" x="1681.865234"/>
     <use xlink:href="#DejaVuSans-61" x="1745.341797"/>
     <use xlink:href="#DejaVuSans-74" x="1806.621094"/>
     <use xlink:href="#DejaVuSans-61" x="1845.830078"/>
    </g>
   </g>
   <g id="legend_1">
    <g id="patch_8">
     <path d="M 129.891875 48.035625 
L 236.47 48.035625 
Q 238.47 48.035625 238.47 46.035625 
L 238.47 32.3575 
Q 238.47 30.3575 236.47 30.3575 
L 129.891875 30.3575 
Q 127.891875 30.3575 127.891875 32.3575 
L 127.891875 46.035625 
Q 127.891875 48.035625 129.891875 48.035625 
z
" style="fill: #ffffff; opacity: 0.8; stroke: #cccccc; stroke-linejoin: miter"/>
    </g>
    <g id="patch_9">
     <path d="M 131.891875 41.955937 
L 151.891875 41.955937 
L 151.891875 34.955937 
L 131.891875 34.955937 
z
" style="fill: #add8e6; opacity: 0.8; stroke: #add8e6; stroke-linejoin: miter"/>
    </g>
    <g id="text_15">
     <!-- Female (n=18) -->
     <g transform="translate(159.891875 41.955937) scale(0.1 -0.1)">
      <defs>
       <path id="DejaVuSans-28" d="M 1984 4856 
Q 1566 4138 1362 3434 
Q 1159 2731 1159 2009 
Q 1159 1288 1364 580 
Q 1569 -128 1984 -844 
L 1484 -844 
Q 1016 -109 783 600 
Q 550 1309 550 2009 
Q 550 2706 781 3412 
Q 1013 4119 1484 4856 
L 1984 4856 
z
" transform="scale(0.015625)"/>
       <path id="DejaVuSans-3d" d="M 678 2906 
L 4684 2906 
L 4684 2381 
L 678 2381 
L 678 2906 
z
M 678 1631 
L 4684 1631 
L 4684 1100 
L 678 1100 
L 678 1631 
z
" transform="scale(0.015625)"/>
       <path id="DejaVuSans-31" d="M 794 531 
L 1825 531 
L 1825 4091 
L 703 3866 
L 703 4441 
L 1819 4666 
L 2450 4666 
L 2450 531 
L 3481 531 
L 3481 0 
L 794 0 
L 794 531 
z
" transform="scale(0.015625)"/>
       <path id="DejaVuSans-38" d="M 2034 2216 
Q 1584 2216 1326 1975 
Q 1069 1734 1069 1313 
Q 1069 891 1326 650 
Q 1584 409 2034 409 
Q 2484 409 2743 651 
Q 3003 894 3003 1313 
Q 3003 1734 2745 1975 
Q 2488 2216 2034 2216 
z
M 1403 2484 
Q 997 2584 770 2862 
Q 544 3141 544 3541 
Q 544 4100 942 4425 
Q 1341 4750 2034 4750 
Q 2731 4750 3128 4425 
Q 3525 4100 3525 3541 
Q 3525 3141 3298 2862 
Q 3072 2584 2669 2484 
Q 3125 2378 3379 2068 
Q 3634 1759 3634 1313 
Q 3634 634 3220 271 
Q 2806 -91 2034 -91 
Q 1263 -91 848 271 
Q 434 634 434 1313 
Q 434 1759 690 2068 
Q 947 2378 1403 2484 
z
M 1172 3481 
Q 1172 3119 1398 2916 
Q 1625 2713 2034 2713 
Q 2441 2713 2670 2916 
Q 2900 3119 2900 3481 
Q 2900 3844 2670 4047 
Q 2441 4250 2034 4250 
Q 1625 4250 1398 4047 
Q 1172 3844 1172 3481 
z
" transform="scale(0.015625)"/>
       <path id="DejaVuSans-29" d="M 513 4856 
L 1013 4856 
Q 1481 4119 1714 3412 
Q 1947 2706 1947 2009 
Q 1947 1309 1714 600 
Q 1481 -109 1013 -844 
L 513 -844 
Q 928 -128 1133 580 
Q 1338 1288 1338 2009 
Q 1338 2731 1133 3434 
Q 928 4138 513 4856 
z
" transform="scale(0.015625)"/>
      </defs>
      <use xlink:href="#DejaVuSans-46"/>
      <use xlink:href="#DejaVuSans-65" x="52.019531"/>
      <use xlink:href="#DejaVuSans-6d" x="113.542969"/>
      <use xlink:href="#DejaVuSans-61" x="210.955078"/>
      <use xlink:href="#DejaVuSans-6c" x="272.234375"/>
      <use xlink:href="#DejaVuSans-65" x="300.017578"/>
      <use xlink:href="#DejaVuSans-20" x="361.541016"/>
      <use xlink:href="#DejaVuSans-28" x="393.328125"/>
      <use xlink:href="#DejaVuSans-6e" x="432.341797"/>
      <use xlink:href="#DejaVuSans-3d" x="495.720703"/>
      <use xlink:href="#DejaVuSans-31" x="579.509766"/>
      <use xlink:href="#DejaVuSans-38" x="643.132812"/>
      <use xlink:href="#DejaVuSans-29" x="706.755859"/>
     </g>
    </g>
   </g>
  </g>
 </g>
 <defs>
  <clipPath id="pe96e0e208d">
   <rect x="76.07" y="25.3575" width="167.4" height="332.64"/>
  </clipPath>
 </defs>
</svg>
