<?xml version="1.0" encoding="utf-8" standalone="no"?>
<!DOCTYPE svg PUBLIC "-//W3C//DTD SVG 1.1//EN"
  "http://www.w3.org/Graphics/SVG/1.1/DTD/svg11.dtd">
<svg xmlns:xlink="http://www.w3.org/1999/xlink" width="465.696875pt" height="402.464375pt" viewBox="0 0 465.696875 402.464375" xmlns="http://www.w3.org/2000/svg" version="1.1">
 <metadata>
  <rdf:RDF xmlns:dc="http://purl.org/dc/elements/1.1/" xmlns:cc="http://creativecommons.org/ns#" xmlns:rdf="http://www.w3.org/1999/02/22-rdf-syntax-ns#">
   <cc:Work>
    <dc:type rdf:resource="http://purl.org/dc/dcmitype/StillImage"/>
    <dc:date>2025-08-08T12:37:33.808902</dc:date>
    <dc:format>image/svg+xml</dc:format>
    <dc:creator>
     <cc:Agent>
      <dc:title>Matplotlib v3.8.4, https://matplotlib.org/</dc:title>
     </cc:Agent>
    </dc:creator>
   </cc:Work>
  </rdf:RDF>
 </metadata>
 <defs>
  <style type="text/css">*{stroke-linejoin: round; stroke-linecap: butt}</style>
 </defs>
 <g id="figure_1">
  <g id="patch_1">
   <path d="M 0 402.464375 
L 465.696875 402.464375 
L 465.696875 0 
L 0 0 
z
" style="fill: #ffffff"/>
  </g>
  <g id="axes_1">
   <g id="patch_2">
    <path d="M 65.448437 361.036875 
L 400.248438 361.036875 
L 400.248438 28.396875 
L 65.448437 28.396875 
z
" style="fill: #ffffff"/>
   </g>
   <g id="PolyCollection_1">
    <defs>
     <path id="m68d3b47440" d="M 252.751756 -56.5475 
L 212.945119 -56.5475 
L 212.503737 -59.602045 
L 212.095358 -62.656591 
L 211.720911 -65.711136 
L 211.38096 -68.765682 
L 211.075695 -71.820227 
L 210.804929 -74.874773 
L 210.568098 -77.929318 
L 210.364266 -80.983864 
L 210.19214 -84.038409 
L 210.050079 -87.092955 
L 209.936118 -90.1475 
L 209.847992 -93.202045 
L 209.783157 -96.256591 
L 209.738827 -99.311136 
L 209.712 -102.365682 
L 209.699496 -105.420227 
L 209.697992 -108.474773 
L 209.70406 -111.529318 
L 209.714202 -114.583864 
L 209.724891 -117.638409 
L 209.732608 -120.692955 
L 209.733879 -123.7475 
L 209.72531 -126.802045 
L 209.703626 -129.856591 
L 209.665699 -132.911136 
L 209.608586 -135.965682 
L 209.529552 -139.020227 
L 209.426099 -142.074773 
L 209.295995 -145.129318 
L 209.137288 -148.183864 
L 208.94833 -151.238409 
L 208.727787 -154.292955 
L 208.474658 -157.3475 
L 208.188277 -160.402045 
L 207.868322 -163.456591 
L 207.514814 -166.511136 
L 207.128117 -169.565682 
L 206.708932 -172.620227 
L 206.25829 -175.674773 
L 205.777535 -178.729318 
L 205.268318 -181.783864 
L 204.732572 -184.838409 
L 204.172494 -187.892955 
L 203.590527 -190.9475 
L 202.98933 -194.002045 
L 202.371758 -197.056591 
L 201.740834 -200.111136 
L 201.09972 -203.165682 
L 200.451692 -206.220227 
L 199.800114 -209.274773 
L 199.148409 -212.329318 
L 198.500036 -215.383864 
L 197.858461 -218.438409 
L 197.22714 -221.492955 
L 196.609491 -224.5475 
L 196.008879 -227.602045 
L 195.428596 -230.656591 
L 194.871843 -233.711136 
L 194.34172 -236.765682 
L 193.841206 -239.820227 
L 193.373158 -242.874773 
L 192.94029 -245.929318 
L 192.545175 -248.983864 
L 192.190228 -252.038409 
L 191.877709 -255.092955 
L 191.609708 -258.1475 
L 191.388148 -261.202045 
L 191.214772 -264.256591 
L 191.091143 -267.311136 
L 191.018637 -270.365682 
L 190.998438 -273.420227 
L 191.031531 -276.474773 
L 191.118699 -279.529318 
L 191.260516 -282.583864 
L 191.457338 -285.638409 
L 191.709302 -288.692955 
L 192.016319 -291.7475 
L 192.378068 -294.802045 
L 192.793993 -297.856591 
L 193.263299 -300.911136 
L 193.784951 -303.965682 
L 194.357672 -307.020227 
L 194.979946 -310.074773 
L 195.65002 -313.129318 
L 196.365908 -316.183864 
L 197.125401 -319.238409 
L 197.926073 -322.292955 
L 198.765296 -325.3475 
L 199.64025 -328.402045 
L 200.547943 -331.456591 
L 201.485226 -334.511136 
L 202.448816 -337.565682 
L 203.435315 -340.620227 
L 204.441235 -343.674773 
L 205.463021 -346.729318 
L 206.497079 -349.783864 
L 207.539799 -352.838409 
L 208.587582 -355.892955 
L 209.636867 -358.9475 
L 256.060008 -358.9475 
L 256.060008 -358.9475 
L 257.109293 -355.892955 
L 258.157076 -352.838409 
L 259.199796 -349.783864 
L 260.233854 -346.729318 
L 261.25564 -343.674773 
L 262.26156 -340.620227 
L 263.248059 -337.565682 
L 264.211649 -334.511136 
L 265.148932 -331.456591 
L 266.056625 -328.402045 
L 266.931579 -325.3475 
L 267.770802 -322.292955 
L 268.571474 -319.238409 
L 269.330967 -316.183864 
L 270.046855 -313.129318 
L 270.716929 -310.074773 
L 271.339203 -307.020227 
L 271.911924 -303.965682 
L 272.433576 -300.911136 
L 272.902882 -297.856591 
L 273.318807 -294.802045 
L 273.680556 -291.7475 
L 273.987573 -288.692955 
L 274.239537 -285.638409 
L 274.436359 -282.583864 
L 274.578176 -279.529318 
L 274.665344 -276.474773 
L 274.698438 -273.420227 
L 274.678238 -270.365682 
L 274.605732 -267.311136 
L 274.482103 -264.256591 
L 274.308727 -261.202045 
L 274.087167 -258.1475 
L 273.819166 -255.092955 
L 273.506647 -252.038409 
L 273.1517 -248.983864 
L 272.756585 -245.929318 
L 272.323717 -242.874773 
L 271.855669 -239.820227 
L 271.355155 -236.765682 
L 270.825032 -233.711136 
L 270.268279 -230.656591 
L 269.687996 -227.602045 
L 269.087384 -224.5475 
L 268.469735 -221.492955 
L 267.838414 -218.438409 
L 267.196839 -215.383864 
L 266.548466 -212.329318 
L 265.896761 -209.274773 
L 265.245183 -206.220227 
L 264.597155 -203.165682 
L 263.956041 -200.111136 
L 263.325117 -197.056591 
L 262.707545 -194.002045 
L 262.106348 -190.9475 
L 261.524381 -187.892955 
L 260.964303 -184.838409 
L 260.428557 -181.783864 
L 259.91934 -178.729318 
L 259.438585 -175.674773 
L 258.987943 -172.620227 
L 258.568758 -169.565682 
L 258.182061 -166.511136 
L 257.828553 -163.456591 
L 257.508598 -160.402045 
L 257.222217 -157.3475 
L 256.969088 -154.292955 
L 256.748545 -151.238409 
L 256.559587 -148.183864 
L 256.40088 -145.129318 
L 256.270776 -142.074773 
L 256.167323 -139.020227 
L 256.088289 -135.965682 
L 256.031176 -132.911136 
L 255.993249 -129.856591 
L 255.971565 -126.802045 
L 255.962996 -123.7475 
L 255.964267 -120.692955 
L 255.971984 -117.638409 
L 255.982673 -114.583864 
L 255.992815 -111.529318 
L 255.998883 -108.474773 
L 255.997379 -105.420227 
L 255.984875 -102.365682 
L 255.958048 -99.311136 
L 255.913718 -96.256591 
L 255.848883 -93.202045 
L 255.760757 -90.1475 
L 255.646796 -87.092955 
L 255.504735 -84.038409 
L 255.332609 -80.983864 
L 255.128777 -77.929318 
L 254.891946 -74.874773 
L 254.62118 -71.820227 
L 254.315915 -68.765682 
L 253.975964 -65.711136 
L 253.601517 -62.656591 
L 253.193138 -59.602045 
L 252.751756 -56.5475 
z
" style="stroke: #000000; stroke-opacity: 0.6"/>
    </defs>
    <g clip-path="url(#p943a445aa3)">
     <use xlink:href="#m68d3b47440" x="0" y="402.464375" style="fill: #38bcf5; fill-opacity: 0.6; stroke: #000000; stroke-opacity: 0.6"/>
    </g>
   </g>
   <g id="matplotlib.axis_1">
    <g id="xtick_1">
     <g id="line2d_1">
      <defs>
       <path id="m62b3245d2f" d="M 0 0 
L 0 3.5 
" style="stroke: #000000; stroke-width: 0.8"/>
      </defs>
      <g>
       <use xlink:href="#m62b3245d2f" x="232.848437" y="361.036875" style="stroke: #000000; stroke-width: 0.8"/>
      </g>
     </g>
     <g id="text_1">
      <!-- Wild Type -->
      <g transform="translate(208.992969 375.635312) scale(0.1 -0.1)">
       <defs>
        <path id="DejaVuSans-57" d="M 213 4666 
L 850 4666 
L 1831 722 
L 2809 4666 
L 3519 4666 
L 4500 722 
L 5478 4666 
L 6119 4666 
L 4947 0 
L 4153 0 
L 3169 4050 
L 2175 0 
L 1381 0 
L 213 4666 
z
" transform="scale(0.015625)"/>
        <path id="DejaVuSans-69" d="M 603 3500 
L 1178 3500 
L 1178 0 
L 603 0 
L 603 3500 
z
M 603 4863 
L 1178 4863 
L 1178 4134 
L 603 4134 
L 603 4863 
z
" transform="scale(0.015625)"/>
        <path id="DejaVuSans-6c" d="M 603 4863 
L 1178 4863 
L 1178 0 
L 603 0 
L 603 4863 
z
" transform="scale(0.015625)"/>
        <path id="DejaVuSans-64" d="M 2906 2969 
L 2906 4863 
L 3481 4863 
L 3481 0 
L 2906 0 
L 2906 525 
Q 2725 213 2448 61 
Q 2172 -91 1784 -91 
Q 1150 -91 751 415 
Q 353 922 353 1747 
Q 353 2572 751 3078 
Q 1150 3584 1784 3584 
Q 2172 3584 2448 3432 
Q 2725 3281 2906 2969 
z
M 947 1747 
Q 947 1113 1208 752 
Q 1469 391 1925 391 
Q 2381 391 2643 752 
Q 2906 1113 2906 1747 
Q 2906 2381 2643 2742 
Q 2381 3103 1925 3103 
Q 1469 3103 1208 2742 
Q 947 2381 947 1747 
z
" transform="scale(0.015625)"/>
        <path id="DejaVuSans-20" transform="scale(0.015625)"/>
        <path id="DejaVuSans-54" d="M -19 4666 
L 3928 4666 
L 3928 4134 
L 2272 4134 
L 2272 0 
L 1638 0 
L 1638 4134 
L -19 4134 
L -19 4666 
z
" transform="scale(0.015625)"/>
        <path id="DejaVuSans-79" d="M 2059 -325 
Q 1816 -950 1584 -1140 
Q 1353 -1331 966 -1331 
L 506 -1331 
L 506 -850 
L 844 -850 
Q 1081 -850 1212 -737 
Q 1344 -625 1503 -206 
L 1606 56 
L 191 3500 
L 800 3500 
L 1894 763 
L 2988 3500 
L 3597 3500 
L 2059 -325 
z
" transform="scale(0.015625)"/>
        <path id="DejaVuSans-70" d="M 1159 525 
L 1159 -1331 
L 581 -1331 
L 581 3500 
L 1159 3500 
L 1159 2969 
Q 1341 3281 1617 3432 
Q 1894 3584 2278 3584 
Q 2916 3584 3314 3078 
Q 3713 2572 3713 1747 
Q 3713 922 3314 415 
Q 2916 -91 2278 -91 
Q 1894 -91 1617 61 
Q 1341 213 1159 525 
z
M 3116 1747 
Q 3116 2381 2855 2742 
Q 2594 3103 2138 3103 
Q 1681 3103 1420 2742 
Q 1159 2381 1159 1747 
Q 1159 1113 1420 752 
Q 1681 391 2138 391 
Q 2594 391 2855 752 
Q 3116 1113 3116 1747 
z
" transform="scale(0.015625)"/>
        <path id="DejaVuSans-65" d="M 3597 1894 
L 3597 1613 
L 953 1613 
Q 991 1019 1311 708 
Q 1631 397 2203 397 
Q 2534 397 2845 478 
Q 3156 559 3463 722 
L 3463 178 
Q 3153 47 2828 -22 
Q 2503 -91 2169 -91 
Q 1331 -91 842 396 
Q 353 884 353 1716 
Q 353 2575 817 3079 
Q 1281 3584 2069 3584 
Q 2775 3584 3186 3129 
Q 3597 2675 3597 1894 
z
M 3022 2063 
Q 3016 2534 2758 2815 
Q 2500 3097 2075 3097 
Q 1594 3097 1305 2825 
Q 1016 2553 972 2059 
L 3022 2063 
z
" transform="scale(0.015625)"/>
       </defs>
       <use xlink:href="#DejaVuSans-57"/>
       <use xlink:href="#DejaVuSans-69" x="96.626953"/>
       <use xlink:href="#DejaVuSans-6c" x="124.410156"/>
       <use xlink:href="#DejaVuSans-64" x="152.193359"/>
       <use xlink:href="#DejaVuSans-20" x="215.669922"/>
       <use xlink:href="#DejaVuSans-54" x="247.457031"/>
       <use xlink:href="#DejaVuSans-79" x="292.916016"/>
       <use xlink:href="#DejaVuSans-70" x="352.095703"/>
       <use xlink:href="#DejaVuSans-65" x="415.572266"/>
      </g>
     </g>
    </g>
    <g id="text_2">
     <!-- Groups -->
     <g transform="translate(207.894531 392.352812) scale(0.14 -0.14)">
      <defs>
       <path id="DejaVuSans-47" d="M 3809 666 
L 3809 1919 
L 2778 1919 
L 2778 2438 
L 4434 2438 
L 4434 434 
Q 4069 175 3628 42 
Q 3188 -91 2688 -91 
Q 1594 -91 976 548 
Q 359 1188 359 2328 
Q 359 3472 976 4111 
Q 1594 4750 2688 4750 
Q 3144 4750 3555 4637 
Q 3966 4525 4313 4306 
L 4313 3634 
Q 3963 3931 3569 4081 
Q 3175 4231 2741 4231 
Q 1884 4231 1454 3753 
Q 1025 3275 1025 2328 
Q 1025 1384 1454 906 
Q 1884 428 2741 428 
Q 3075 428 3337 486 
Q 3600 544 3809 666 
z
" transform="scale(0.015625)"/>
       <path id="DejaVuSans-72" d="M 2631 2963 
Q 2534 3019 2420 3045 
Q 2306 3072 2169 3072 
Q 1681 3072 1420 2755 
Q 1159 2438 1159 1844 
L 1159 0 
L 581 0 
L 581 3500 
L 1159 3500 
L 1159 2956 
Q 1341 3275 1631 3429 
Q 1922 3584 2338 3584 
Q 2397 3584 2469 3576 
Q 2541 3569 2628 3553 
L 2631 2963 
z
" transform="scale(0.015625)"/>
       <path id="DejaVuSans-6f" d="M 1959 3097 
Q 1497 3097 1228 2736 
Q 959 2375 959 1747 
Q 959 1119 1226 758 
Q 1494 397 1959 397 
Q 2419 397 2687 759 
Q 2956 1122 2956 1747 
Q 2956 2369 2687 2733 
Q 2419 3097 1959 3097 
z
M 1959 3584 
Q 2709 3584 3137 3096 
Q 3566 2609 3566 1747 
Q 3566 888 3137 398 
Q 2709 -91 1959 -91 
Q 1206 -91 779 398 
Q 353 888 353 1747 
Q 353 2609 779 3096 
Q 1206 3584 1959 3584 
z
" transform="scale(0.015625)"/>
       <path id="DejaVuSans-75" d="M 544 1381 
L 544 3500 
L 1119 3500 
L 1119 1403 
Q 1119 906 1312 657 
Q 1506 409 1894 409 
Q 2359 409 2629 706 
Q 2900 1003 2900 1516 
L 2900 3500 
L 3475 3500 
L 3475 0 
L 2900 0 
L 2900 538 
Q 2691 219 2414 64 
Q 2138 -91 1772 -91 
Q 1169 -91 856 284 
Q 544 659 544 1381 
z
M 1991 3584 
L 1991 3584 
z
" transform="scale(0.015625)"/>
       <path id="DejaVuSans-73" d="M 2834 3397 
L 2834 2853 
Q 2591 2978 2328 3040 
Q 2066 3103 1784 3103 
Q 1356 3103 1142 2972 
Q 928 2841 928 2578 
Q 928 2378 1081 2264 
Q 1234 2150 1697 2047 
L 1894 2003 
Q 2506 1872 2764 1633 
Q 3022 1394 3022 966 
Q 3022 478 2636 193 
Q 2250 -91 1575 -91 
Q 1294 -91 989 -36 
Q 684 19 347 128 
L 347 722 
Q 666 556 975 473 
Q 1284 391 1588 391 
Q 1994 391 2212 530 
Q 2431 669 2431 922 
Q 2431 1156 2273 1281 
Q 2116 1406 1581 1522 
L 1381 1569 
Q 847 1681 609 1914 
Q 372 2147 372 2553 
Q 372 3047 722 3315 
Q 1072 3584 1716 3584 
Q 2034 3584 2315 3537 
Q 2597 3491 2834 3397 
z
" transform="scale(0.015625)"/>
      </defs>
      <use xlink:href="#DejaVuSans-47"/>
      <use xlink:href="#DejaVuSans-72" x="77.490234"/>
      <use xlink:href="#DejaVuSans-6f" x="116.353516"/>
      <use xlink:href="#DejaVuSans-75" x="177.535156"/>
      <use xlink:href="#DejaVuSans-70" x="240.914062"/>
      <use xlink:href="#DejaVuSans-73" x="304.390625"/>
     </g>
    </g>
   </g>
   <g id="matplotlib.axis_2">
    <g id="ytick_1">
     <g id="line2d_2">
      <defs>
       <path id="m2c9df06ecc" d="M 0 0 
L -3.5 0 
" style="stroke: #000000; stroke-width: 0.8"/>
      </defs>
      <g>
       <use xlink:href="#m2c9df06ecc" x="65.448437" y="297.332649" style="stroke: #000000; stroke-width: 0.8"/>
      </g>
     </g>
     <g id="text_3">
      <!-- 0.70 -->
      <g transform="translate(36.182812 301.131868) scale(0.1 -0.1)">
       <defs>
        <path id="DejaVuSans-30" d="M 2034 4250 
Q 1547 4250 1301 3770 
Q 1056 3291 1056 2328 
Q 1056 1369 1301 889 
Q 1547 409 2034 409 
Q 2525 409 2770 889 
Q 3016 1369 3016 2328 
Q 3016 3291 2770 3770 
Q 2525 4250 2034 4250 
z
M 2034 4750 
Q 2819 4750 3233 4129 
Q 3647 3509 3647 2328 
Q 3647 1150 3233 529 
Q 2819 -91 2034 -91 
Q 1250 -91 836 529 
Q 422 1150 422 2328 
Q 422 3509 836 4129 
Q 1250 4750 2034 4750 
z
" transform="scale(0.015625)"/>
        <path id="DejaVuSans-2e" d="M 684 794 
L 1344 794 
L 1344 0 
L 684 0 
L 684 794 
z
" transform="scale(0.015625)"/>
        <path id="DejaVuSans-37" d="M 525 4666 
L 3525 4666 
L 3525 4397 
L 1831 0 
L 1172 0 
L 2766 4134 
L 525 4134 
L 525 4666 
z
" transform="scale(0.015625)"/>
       </defs>
       <use xlink:href="#DejaVuSans-30"/>
       <use xlink:href="#DejaVuSans-2e" x="63.623047"/>
       <use xlink:href="#DejaVuSans-37" x="95.410156"/>
       <use xlink:href="#DejaVuSans-30" x="159.033203"/>
      </g>
     </g>
    </g>
    <g id="ytick_2">
     <g id="line2d_3">
      <g>
       <use xlink:href="#m2c9df06ecc" x="65.448437" y="231.081432" style="stroke: #000000; stroke-width: 0.8"/>
      </g>
     </g>
     <g id="text_4">
      <!-- 0.75 -->
      <g transform="translate(36.182812 234.880651) scale(0.1 -0.1)">
       <defs>
        <path id="DejaVuSans-35" d="M 691 4666 
L 3169 4666 
L 3169 4134 
L 1269 4134 
L 1269 2991 
Q 1406 3038 1543 3061 
Q 1681 3084 1819 3084 
Q 2600 3084 3056 2656 
Q 3513 2228 3513 1497 
Q 3513 744 3044 326 
Q 2575 -91 1722 -91 
Q 1428 -91 1123 -41 
Q 819 9 494 109 
L 494 744 
Q 775 591 1075 516 
Q 1375 441 1709 441 
Q 2250 441 2565 725 
Q 2881 1009 2881 1497 
Q 2881 1984 2565 2268 
Q 2250 2553 1709 2553 
Q 1456 2553 1204 2497 
Q 953 2441 691 2322 
L 691 4666 
z
" transform="scale(0.015625)"/>
       </defs>
       <use xlink:href="#DejaVuSans-30"/>
       <use xlink:href="#DejaVuSans-2e" x="63.623047"/>
       <use xlink:href="#DejaVuSans-37" x="95.410156"/>
       <use xlink:href="#DejaVuSans-35" x="159.033203"/>
      </g>
     </g>
    </g>
    <g id="ytick_3">
     <g id="line2d_4">
      <g>
       <use xlink:href="#m2c9df06ecc" x="65.448437" y="164.830215" style="stroke: #000000; stroke-width: 0.8"/>
      </g>
     </g>
     <g id="text_5">
      <!-- 0.80 -->
      <g transform="translate(36.182812 168.629434) scale(0.1 -0.1)">
       <defs>
        <path id="DejaVuSans-38" d="M 2034 2216 
Q 1584 2216 1326 1975 
Q 1069 1734 1069 1313 
Q 1069 891 1326 650 
Q 1584 409 2034 409 
Q 2484 409 2743 651 
Q 3003 894 3003 1313 
Q 3003 1734 2745 1975 
Q 2488 2216 2034 2216 
z
M 1403 2484 
Q 997 2584 770 2862 
Q 544 3141 544 3541 
Q 544 4100 942 4425 
Q 1341 4750 2034 4750 
Q 2731 4750 3128 4425 
Q 3525 4100 3525 3541 
Q 3525 3141 3298 2862 
Q 3072 2584 2669 2484 
Q 3125 2378 3379 2068 
Q 3634 1759 3634 1313 
Q 3634 634 3220 271 
Q 2806 -91 2034 -91 
Q 1263 -91 848 271 
Q 434 634 434 1313 
Q 434 1759 690 2068 
Q 947 2378 1403 2484 
z
M 1172 3481 
Q 1172 3119 1398 2916 
Q 1625 2713 2034 2713 
Q 2441 2713 2670 2916 
Q 2900 3119 2900 3481 
Q 2900 3844 2670 4047 
Q 2441 4250 2034 4250 
Q 1625 4250 1398 4047 
Q 1172 3844 1172 3481 
z
" transform="scale(0.015625)"/>
       </defs>
       <use xlink:href="#DejaVuSans-30"/>
       <use xlink:href="#DejaVuSans-2e" x="63.623047"/>
       <use xlink:href="#DejaVuSans-38" x="95.410156"/>
       <use xlink:href="#DejaVuSans-30" x="159.033203"/>
      </g>
     </g>
    </g>
    <g id="ytick_4">
     <g id="line2d_5">
      <g>
       <use xlink:href="#m2c9df06ecc" x="65.448437" y="98.578998" style="stroke: #000000; stroke-width: 0.8"/>
      </g>
     </g>
     <g id="text_6">
      <!-- 0.85 -->
      <g transform="translate(36.182812 102.378216) scale(0.1 -0.1)">
       <use xlink:href="#DejaVuSans-30"/>
       <use xlink:href="#DejaVuSans-2e" x="63.623047"/>
       <use xlink:href="#DejaVuSans-38" x="95.410156"/>
       <use xlink:href="#DejaVuSans-35" x="159.033203"/>
      </g>
     </g>
    </g>
    <g id="ytick_5">
     <g id="line2d_6">
      <g>
       <use xlink:href="#m2c9df06ecc" x="65.448437" y="32.327781" style="stroke: #000000; stroke-width: 0.8"/>
      </g>
     </g>
     <g id="text_7">
      <!-- 0.90 -->
      <g transform="translate(36.182812 36.126999) scale(0.1 -0.1)">
       <defs>
        <path id="DejaVuSans-39" d="M 703 97 
L 703 672 
Q 941 559 1184 500 
Q 1428 441 1663 441 
Q 2288 441 2617 861 
Q 2947 1281 2994 2138 
Q 2813 1869 2534 1725 
Q 2256 1581 1919 1581 
Q 1219 1581 811 2004 
Q 403 2428 403 3163 
Q 403 3881 828 4315 
Q 1253 4750 1959 4750 
Q 2769 4750 3195 4129 
Q 3622 3509 3622 2328 
Q 3622 1225 3098 567 
Q 2575 -91 1691 -91 
Q 1453 -91 1209 -44 
Q 966 3 703 97 
z
M 1959 2075 
Q 2384 2075 2632 2365 
Q 2881 2656 2881 3163 
Q 2881 3666 2632 3958 
Q 2384 4250 1959 4250 
Q 1534 4250 1286 3958 
Q 1038 3666 1038 3163 
Q 1038 2656 1286 2365 
Q 1534 2075 1959 2075 
z
" transform="scale(0.015625)"/>
       </defs>
       <use xlink:href="#DejaVuSans-30"/>
       <use xlink:href="#DejaVuSans-2e" x="63.623047"/>
       <use xlink:href="#DejaVuSans-39" x="95.410156"/>
       <use xlink:href="#DejaVuSans-30" x="159.033203"/>
      </g>
     </g>
    </g>
    <g id="text_8">
     <!-- Pellet-in-Meal Ratio (ratio) -->
     <g transform="translate(29.27125 285.964062) rotate(-90) scale(0.14 -0.14)">
      <defs>
       <path id="DejaVuSans-50" d="M 1259 4147 
L 1259 2394 
L 2053 2394 
Q 2494 2394 2734 2622 
Q 2975 2850 2975 3272 
Q 2975 3691 2734 3919 
Q 2494 4147 2053 4147 
L 1259 4147 
z
M 628 4666 
L 2053 4666 
Q 2838 4666 3239 4311 
Q 3641 3956 3641 3272 
Q 3641 2581 3239 2228 
Q 2838 1875 2053 1875 
L 1259 1875 
L 1259 0 
L 628 0 
L 628 4666 
z
" transform="scale(0.015625)"/>
       <path id="DejaVuSans-74" d="M 1172 4494 
L 1172 3500 
L 2356 3500 
L 2356 3053 
L 1172 3053 
L 1172 1153 
Q 1172 725 1289 603 
Q 1406 481 1766 481 
L 2356 481 
L 2356 0 
L 1766 0 
Q 1100 0 847 248 
Q 594 497 594 1153 
L 594 3053 
L 172 3053 
L 172 3500 
L 594 3500 
L 594 4494 
L 1172 4494 
z
" transform="scale(0.015625)"/>
       <path id="DejaVuSans-2d" d="M 313 2009 
L 1997 2009 
L 1997 1497 
L 313 1497 
L 313 2009 
z
" transform="scale(0.015625)"/>
       <path id="DejaVuSans-6e" d="M 3513 2113 
L 3513 0 
L 2938 0 
L 2938 2094 
Q 2938 2591 2744 2837 
Q 2550 3084 2163 3084 
Q 1697 3084 1428 2787 
Q 1159 2491 1159 1978 
L 1159 0 
L 581 0 
L 581 3500 
L 1159 3500 
L 1159 2956 
Q 1366 3272 1645 3428 
Q 1925 3584 2291 3584 
Q 2894 3584 3203 3211 
Q 3513 2838 3513 2113 
z
" transform="scale(0.015625)"/>
       <path id="DejaVuSans-4d" d="M 628 4666 
L 1569 4666 
L 2759 1491 
L 3956 4666 
L 4897 4666 
L 4897 0 
L 4281 0 
L 4281 4097 
L 3078 897 
L 2444 897 
L 1241 4097 
L 1241 0 
L 628 0 
L 628 4666 
z
" transform="scale(0.015625)"/>
       <path id="DejaVuSans-61" d="M 2194 1759 
Q 1497 1759 1228 1600 
Q 959 1441 959 1056 
Q 959 750 1161 570 
Q 1363 391 1709 391 
Q 2188 391 2477 730 
Q 2766 1069 2766 1631 
L 2766 1759 
L 2194 1759 
z
M 3341 1997 
L 3341 0 
L 2766 0 
L 2766 531 
Q 2569 213 2275 61 
Q 1981 -91 1556 -91 
Q 1019 -91 701 211 
Q 384 513 384 1019 
Q 384 1609 779 1909 
Q 1175 2209 1959 2209 
L 2766 2209 
L 2766 2266 
Q 2766 2663 2505 2880 
Q 2244 3097 1772 3097 
Q 1472 3097 1187 3025 
Q 903 2953 641 2809 
L 641 3341 
Q 956 3463 1253 3523 
Q 1550 3584 1831 3584 
Q 2591 3584 2966 3190 
Q 3341 2797 3341 1997 
z
" transform="scale(0.015625)"/>
       <path id="DejaVuSans-52" d="M 2841 2188 
Q 3044 2119 3236 1894 
Q 3428 1669 3622 1275 
L 4263 0 
L 3584 0 
L 2988 1197 
Q 2756 1666 2539 1819 
Q 2322 1972 1947 1972 
L 1259 1972 
L 1259 0 
L 628 0 
L 628 4666 
L 2053 4666 
Q 2853 4666 3247 4331 
Q 3641 3997 3641 3322 
Q 3641 2881 3436 2590 
Q 3231 2300 2841 2188 
z
M 1259 4147 
L 1259 2491 
L 2053 2491 
Q 2509 2491 2742 2702 
Q 2975 2913 2975 3322 
Q 2975 3731 2742 3939 
Q 2509 4147 2053 4147 
L 1259 4147 
z
" transform="scale(0.015625)"/>
       <path id="DejaVuSans-28" d="M 1984 4856 
Q 1566 4138 1362 3434 
Q 1159 2731 1159 2009 
Q 1159 1288 1364 580 
Q 1569 -128 1984 -844 
L 1484 -844 
Q 1016 -109 783 600 
Q 550 1309 550 2009 
Q 550 2706 781 3412 
Q 1013 4119 1484 4856 
L 1984 4856 
z
" transform="scale(0.015625)"/>
       <path id="DejaVuSans-29" d="M 513 4856 
L 1013 4856 
Q 1481 4119 1714 3412 
Q 1947 2706 1947 2009 
Q 1947 1309 1714 600 
Q 1481 -109 1013 -844 
L 513 -844 
Q 928 -128 1133 580 
Q 1338 1288 1338 2009 
Q 1338 2731 1133 3434 
Q 928 4138 513 4856 
z
" transform="scale(0.015625)"/>
      </defs>
      <use xlink:href="#DejaVuSans-50"/>
      <use xlink:href="#DejaVuSans-65" x="56.677734"/>
      <use xlink:href="#DejaVuSans-6c" x="118.201172"/>
      <use xlink:href="#DejaVuSans-6c" x="145.984375"/>
      <use xlink:href="#DejaVuSans-65" x="173.767578"/>
      <use xlink:href="#DejaVuSans-74" x="235.291016"/>
      <use xlink:href="#DejaVuSans-2d" x="274.5"/>
      <use xlink:href="#DejaVuSans-69" x="310.583984"/>
      <use xlink:href="#DejaVuSans-6e" x="338.367188"/>
      <use xlink:href="#DejaVuSans-2d" x="401.746094"/>
      <use xlink:href="#DejaVuSans-4d" x="437.830078"/>
      <use xlink:href="#DejaVuSans-65" x="524.109375"/>
      <use xlink:href="#DejaVuSans-61" x="585.632812"/>
      <use xlink:href="#DejaVuSans-6c" x="646.912109"/>
      <use xlink:href="#DejaVuSans-20" x="674.695312"/>
      <use xlink:href="#DejaVuSans-52" x="706.482422"/>
      <use xlink:href="#DejaVuSans-61" x="773.714844"/>
      <use xlink:href="#DejaVuSans-74" x="834.994141"/>
      <use xlink:href="#DejaVuSans-69" x="874.203125"/>
      <use xlink:href="#DejaVuSans-6f" x="901.986328"/>
      <use xlink:href="#DejaVuSans-20" x="963.167969"/>
      <use xlink:href="#DejaVuSans-28" x="994.955078"/>
      <use xlink:href="#DejaVuSans-72" x="1033.96875"/>
      <use xlink:href="#DejaVuSans-61" x="1075.082031"/>
      <use xlink:href="#DejaVuSans-74" x="1136.361328"/>
      <use xlink:href="#DejaVuSans-69" x="1175.570312"/>
      <use xlink:href="#DejaVuSans-6f" x="1203.353516"/>
      <use xlink:href="#DejaVuSans-29" x="1264.535156"/>
     </g>
    </g>
   </g>
   <g id="patch_3">
    <path d="M 211.923437 271.89128 
L 253.773438 271.89128 
L 253.773438 104.212246 
L 211.923437 104.212246 
L 211.923437 271.89128 
z
" clip-path="url(#p943a445aa3)" style="fill: #ffffff; stroke: #000000; stroke-linejoin: miter"/>
   </g>
   <g id="line2d_7">
    <path d="M 232.848437 271.89128 
L 232.848437 345.916875 
" clip-path="url(#p943a445aa3)" style="fill: none; stroke: #000000; stroke-linecap: square"/>
   </g>
   <g id="line2d_8">
    <path d="M 232.848437 104.212246 
L 232.848437 43.516875 
" clip-path="url(#p943a445aa3)" style="fill: none; stroke: #000000; stroke-linecap: square"/>
   </g>
   <g id="line2d_9">
    <path d="M 222.385938 345.916875 
L 243.310938 345.916875 
" clip-path="url(#p943a445aa3)" style="fill: none; stroke: #000000; stroke-linecap: square"/>
   </g>
   <g id="line2d_10">
    <path d="M 222.385938 43.516875 
L 243.310938 43.516875 
" clip-path="url(#p943a445aa3)" style="fill: none; stroke: #000000; stroke-linecap: square"/>
   </g>
   <g id="line2d_11">
    <path d="M 211.923437 164.680856 
L 253.773438 164.680856 
" clip-path="url(#p943a445aa3)" style="fill: none; stroke: #000000"/>
   </g>
   <g id="patch_4">
    <path d="M 65.448437 361.036875 
L 65.448437 28.396875 
" style="fill: none; stroke: #000000; stroke-width: 0.8; stroke-linejoin: miter; stroke-linecap: square"/>
   </g>
   <g id="patch_5">
    <path d="M 400.248438 361.036875 
L 400.248438 28.396875 
" style="fill: none; stroke: #000000; stroke-width: 0.8; stroke-linejoin: miter; stroke-linecap: square"/>
   </g>
   <g id="patch_6">
    <path d="M 65.448437 361.036875 
L 400.248438 361.036875 
" style="fill: none; stroke: #000000; stroke-width: 0.8; stroke-linejoin: miter; stroke-linecap: square"/>
   </g>
   <g id="patch_7">
    <path d="M 65.448437 28.396875 
L 400.248438 28.396875 
" style="fill: none; stroke: #000000; stroke-width: 0.8; stroke-linejoin: miter; stroke-linecap: square"/>
   </g>
   <g id="PathCollection_1">
    <defs>
     <path id="mc2816d48cc" d="M 0 3 
C 0.795609 3 1.55874 2.683901 2.12132 2.12132 
C 2.683901 1.55874 3 0.795609 3 0 
C 3 -0.795609 2.683901 -1.55874 2.12132 -2.12132 
C 1.55874 -2.683901 0.795609 -3 0 -3 
C -0.795609 -3 -1.55874 -2.683901 -2.12132 -2.12132 
C -2.683901 -1.55874 -3 -0.795609 -3 0 
C -3 0.795609 -2.683901 1.55874 -2.12132 2.12132 
C -1.55874 2.683901 -0.795609 3 0 3 
z
" style="stroke: #0000ff; stroke-opacity: 0.8"/>
    </defs>
    <g clip-path="url(#p943a445aa3)">
     <use xlink:href="#mc2816d48cc" x="235.891319" y="275.24891" style="fill: #0000ff; fill-opacity: 0.8; stroke: #0000ff; stroke-opacity: 0.8"/>
     <use xlink:href="#mc2816d48cc" x="237.958591" y="43.516875" style="fill: #0000ff; fill-opacity: 0.8; stroke: #0000ff; stroke-opacity: 0.8"/>
     <use xlink:href="#mc2816d48cc" x="228.797716" y="345.916875" style="fill: #0000ff; fill-opacity: 0.8; stroke: #0000ff; stroke-opacity: 0.8"/>
     <use xlink:href="#mc2816d48cc" x="241.256079" y="215.18114" style="fill: #0000ff; fill-opacity: 0.8; stroke: #0000ff; stroke-opacity: 0.8"/>
     <use xlink:href="#mc2816d48cc" x="222.981945" y="140.597149" style="fill: #0000ff; fill-opacity: 0.8; stroke: #0000ff; stroke-opacity: 0.8"/>
     <use xlink:href="#mc2816d48cc" x="226.65261" y="58.312024" style="fill: #0000ff; fill-opacity: 0.8; stroke: #0000ff; stroke-opacity: 0.8"/>
     <use xlink:href="#mc2816d48cc" x="243.085872" y="85.30115" style="fill: #0000ff; fill-opacity: 0.8; stroke: #0000ff; stroke-opacity: 0.8"/>
     <use xlink:href="#mc2816d48cc" x="231.599084" y="106.053494" style="fill: #0000ff; fill-opacity: 0.8; stroke: #0000ff; stroke-opacity: 0.8"/>
     <use xlink:href="#mc2816d48cc" x="236.34208" y="187.253704" style="fill: #0000ff; fill-opacity: 0.8; stroke: #0000ff; stroke-opacity: 0.8"/>
     <use xlink:href="#mc2816d48cc" x="225.365282" y="139.20337" style="fill: #0000ff; fill-opacity: 0.8; stroke: #0000ff; stroke-opacity: 0.8"/>
     <use xlink:href="#mc2816d48cc" x="232.381079" y="183.910565" style="fill: #0000ff; fill-opacity: 0.8; stroke: #0000ff; stroke-opacity: 0.8"/>
     <use xlink:href="#mc2816d48cc" x="224.283639" y="98.688504" style="fill: #0000ff; fill-opacity: 0.8; stroke: #0000ff; stroke-opacity: 0.8"/>
     <use xlink:href="#mc2816d48cc" x="240.073205" y="168.756213" style="fill: #0000ff; fill-opacity: 0.8; stroke: #0000ff; stroke-opacity: 0.8"/>
     <use xlink:href="#mc2816d48cc" x="227.042741" y="91.953876" style="fill: #0000ff; fill-opacity: 0.8; stroke: #0000ff; stroke-opacity: 0.8"/>
     <use xlink:href="#mc2816d48cc" x="226.254613" y="115.014396" style="fill: #0000ff; fill-opacity: 0.8; stroke: #0000ff; stroke-opacity: 0.8"/>
     <use xlink:href="#mc2816d48cc" x="238.659714" y="160.6055" style="fill: #0000ff; fill-opacity: 0.8; stroke: #0000ff; stroke-opacity: 0.8"/>
     <use xlink:href="#mc2816d48cc" x="237.451728" y="270.77207" style="fill: #0000ff; fill-opacity: 0.8; stroke: #0000ff; stroke-opacity: 0.8"/>
     <use xlink:href="#mc2816d48cc" x="222.864068" y="340.697082" style="fill: #0000ff; fill-opacity: 0.8; stroke: #0000ff; stroke-opacity: 0.8"/>
     <use xlink:href="#mc2816d48cc" x="243.219722" y="319.424737" style="fill: #0000ff; fill-opacity: 0.8; stroke: #0000ff; stroke-opacity: 0.8"/>
     <use xlink:href="#mc2816d48cc" x="234.262156" y="340.570286" style="fill: #0000ff; fill-opacity: 0.8; stroke: #0000ff; stroke-opacity: 0.8"/>
    </g>
   </g>
   <g id="text_9">
    <!-- Pellet-in-Meal Ratio Distribution for Wild Type -->
    <g transform="translate(7.2 22.396875) scale(0.2 -0.2)">
     <defs>
      <path id="DejaVuSans-44" d="M 1259 4147 
L 1259 519 
L 2022 519 
Q 2988 519 3436 956 
Q 3884 1394 3884 2338 
Q 3884 3275 3436 3711 
Q 2988 4147 2022 4147 
L 1259 4147 
z
M 628 4666 
L 1925 4666 
Q 3281 4666 3915 4102 
Q 4550 3538 4550 2338 
Q 4550 1131 3912 565 
Q 3275 0 1925 0 
L 628 0 
L 628 4666 
z
" transform="scale(0.015625)"/>
      <path id="DejaVuSans-62" d="M 3116 1747 
Q 3116 2381 2855 2742 
Q 2594 3103 2138 3103 
Q 1681 3103 1420 2742 
Q 1159 2381 1159 1747 
Q 1159 1113 1420 752 
Q 1681 391 2138 391 
Q 2594 391 2855 752 
Q 3116 1113 3116 1747 
z
M 1159 2969 
Q 1341 3281 1617 3432 
Q 1894 3584 2278 3584 
Q 2916 3584 3314 3078 
Q 3713 2572 3713 1747 
Q 3713 922 3314 415 
Q 2916 -91 2278 -91 
Q 1894 -91 1617 61 
Q 1341 213 1159 525 
L 1159 0 
L 581 0 
L 581 4863 
L 1159 4863 
L 1159 2969 
z
" transform="scale(0.015625)"/>
      <path id="DejaVuSans-66" d="M 2375 4863 
L 2375 4384 
L 1825 4384 
Q 1516 4384 1395 4259 
Q 1275 4134 1275 3809 
L 1275 3500 
L 2222 3500 
L 2222 3053 
L 1275 3053 
L 1275 0 
L 697 0 
L 697 3053 
L 147 3053 
L 147 3500 
L 697 3500 
L 697 3744 
Q 697 4328 969 4595 
Q 1241 4863 1831 4863 
L 2375 4863 
z
" transform="scale(0.015625)"/>
     </defs>
     <use xlink:href="#DejaVuSans-50"/>
     <use xlink:href="#DejaVuSans-65" x="56.677734"/>
     <use xlink:href="#DejaVuSans-6c" x="118.201172"/>
     <use xlink:href="#DejaVuSans-6c" x="145.984375"/>
     <use xlink:href="#DejaVuSans-65" x="173.767578"/>
     <use xlink:href="#DejaVuSans-74" x="235.291016"/>
     <use xlink:href="#DejaVuSans-2d" x="274.5"/>
     <use xlink:href="#DejaVuSans-69" x="310.583984"/>
     <use xlink:href="#DejaVuSans-6e" x="338.367188"/>
     <use xlink:href="#DejaVuSans-2d" x="401.746094"/>
     <use xlink:href="#DejaVuSans-4d" x="437.830078"/>
     <use xlink:href="#DejaVuSans-65" x="524.109375"/>
     <use xlink:href="#DejaVuSans-61" x="585.632812"/>
     <use xlink:href="#DejaVuSans-6c" x="646.912109"/>
     <use xlink:href="#DejaVuSans-20" x="674.695312"/>
     <use xlink:href="#DejaVuSans-52" x="706.482422"/>
     <use xlink:href="#DejaVuSans-61" x="773.714844"/>
     <use xlink:href="#DejaVuSans-74" x="834.994141"/>
     <use xlink:href="#DejaVuSans-69" x="874.203125"/>
     <use xlink:href="#DejaVuSans-6f" x="901.986328"/>
     <use xlink:href="#DejaVuSans-20" x="963.167969"/>
     <use xlink:href="#DejaVuSans-44" x="994.955078"/>
     <use xlink:href="#DejaVuSans-69" x="1071.957031"/>
     <use xlink:href="#DejaVuSans-73" x="1099.740234"/>
     <use xlink:href="#DejaVuSans-74" x="1151.839844"/>
     <use xlink:href="#DejaVuSans-72" x="1191.048828"/>
     <use xlink:href="#DejaVuSans-69" x="1232.162109"/>
     <use xlink:href="#DejaVuSans-62" x="1259.945312"/>
     <use xlink:href="#DejaVuSans-75" x="1323.421875"/>
     <use xlink:href="#DejaVuSans-74" x="1386.800781"/>
     <use xlink:href="#DejaVuSans-69" x="1426.009766"/>
     <use xlink:href="#DejaVuSans-6f" x="1453.792969"/>
     <use xlink:href="#DejaVuSans-6e" x="1514.974609"/>
     <use xlink:href="#DejaVuSans-20" x="1578.353516"/>
     <use xlink:href="#DejaVuSans-66" x="1610.140625"/>
     <use xlink:href="#DejaVuSans-6f" x="1645.345703"/>
     <use xlink:href="#DejaVuSans-72" x="1706.527344"/>
     <use xlink:href="#DejaVuSans-20" x="1747.640625"/>
     <use xlink:href="#DejaVuSans-57" x="1779.427734"/>
     <use xlink:href="#DejaVuSans-69" x="1876.054688"/>
     <use xlink:href="#DejaVuSans-6c" x="1903.837891"/>
     <use xlink:href="#DejaVuSans-64" x="1931.621094"/>
     <use xlink:href="#DejaVuSans-20" x="1995.097656"/>
     <use xlink:href="#DejaVuSans-54" x="2026.884766"/>
     <use xlink:href="#DejaVuSans-79" x="2072.34375"/>
     <use xlink:href="#DejaVuSans-70" x="2131.523438"/>
     <use xlink:href="#DejaVuSans-65" x="2195"/>
    </g>
   </g>
   <g id="legend_1">
    <g id="patch_8">
     <path d="M 268.757812 51.075 
L 393.248438 51.075 
Q 395.248438 51.075 395.248438 49.075 
L 395.248438 35.396875 
Q 395.248438 33.396875 393.248438 33.396875 
L 268.757812 33.396875 
Q 266.757812 33.396875 266.757812 35.396875 
L 266.757812 49.075 
Q 266.757812 51.075 268.757812 51.075 
z
" style="fill: #ffffff; opacity: 0.8; stroke: #cccccc; stroke-linejoin: miter"/>
    </g>
    <g id="patch_9">
     <path d="M 270.757812 44.995312 
L 290.757812 44.995312 
L 290.757812 37.995312 
L 270.757812 37.995312 
z
" style="fill: #38bcf5; opacity: 0.6; stroke: #38bcf5; stroke-linejoin: miter"/>
    </g>
    <g id="text_10">
     <!-- Wild Type (n = 20) -->
     <g transform="translate(298.757812 44.995312) scale(0.1 -0.1)">
      <defs>
       <path id="DejaVuSans-3d" d="M 678 2906 
L 4684 2906 
L 4684 2381 
L 678 2381 
L 678 2906 
z
M 678 1631 
L 4684 1631 
L 4684 1100 
L 678 1100 
L 678 1631 
z
" transform="scale(0.015625)"/>
       <path id="DejaVuSans-32" d="M 1228 531 
L 3431 531 
L 3431 0 
L 469 0 
L 469 531 
Q 828 903 1448 1529 
Q 2069 2156 2228 2338 
Q 2531 2678 2651 2914 
Q 2772 3150 2772 3378 
Q 2772 3750 2511 3984 
Q 2250 4219 1831 4219 
Q 1534 4219 1204 4116 
Q 875 4013 500 3803 
L 500 4441 
Q 881 4594 1212 4672 
Q 1544 4750 1819 4750 
Q 2544 4750 2975 4387 
Q 3406 4025 3406 3419 
Q 3406 3131 3298 2873 
Q 3191 2616 2906 2266 
Q 2828 2175 2409 1742 
Q 1991 1309 1228 531 
z
" transform="scale(0.015625)"/>
      </defs>
      <use xlink:href="#DejaVuSans-57"/>
      <use xlink:href="#DejaVuSans-69" x="96.626953"/>
      <use xlink:href="#DejaVuSans-6c" x="124.410156"/>
      <use xlink:href="#DejaVuSans-64" x="152.193359"/>
      <use xlink:href="#DejaVuSans-20" x="215.669922"/>
      <use xlink:href="#DejaVuSans-54" x="247.457031"/>
      <use xlink:href="#DejaVuSans-79" x="292.916016"/>
      <use xlink:href="#DejaVuSans-70" x="352.095703"/>
      <use xlink:href="#DejaVuSans-65" x="415.572266"/>
      <use xlink:href="#DejaVuSans-20" x="477.095703"/>
      <use xlink:href="#DejaVuSans-28" x="508.882812"/>
      <use xlink:href="#DejaVuSans-6e" x="547.896484"/>
      <use xlink:href="#DejaVuSans-20" x="611.275391"/>
      <use xlink:href="#DejaVuSans-3d" x="643.0625"/>
      <use xlink:href="#DejaVuSans-20" x="726.851562"/>
      <use xlink:href="#DejaVuSans-32" x="758.638672"/>
      <use xlink:href="#DejaVuSans-30" x="822.261719"/>
      <use xlink:href="#DejaVuSans-29" x="885.884766"/>
     </g>
    </g>
   </g>
  </g>
 </g>
 <defs>
  <clipPath id="p943a445aa3">
   <rect x="65.448437" y="28.396875" width="334.8" height="332.64"/>
  </clipPath>
 </defs>
</svg>
